<svg height="96" width="96" xmlns="http://www.w3.org/2000/svg" xmlns:xlink="http://www.w3.org/1999/xlink">
 <defs>
  <linearGradient id="linearGradient15916">
   <stop stop-color="#b4b4b4"/>
   <stop stop-color="#b4b4b4" stop-opacity="0" offset="1"/>
  </linearGradient>
  <linearGradient x2="0" y1="90" y2="5.988" gradientUnits="userSpaceOnUse" id="linearGradient8339" gradientTransform="matrix(1.0959 0 0 1.0685 -4.442 -3.204)">
   <stop stop-color="#ebebeb"/>
   <stop stop-color="#fafafa" offset="1"/>
  </linearGradient>
  <radialGradient cy="360.77" r="21.302" xlink:href="#linearGradient15916" gradientUnits="userSpaceOnUse" id="radialGradient9011" cx="303.16" gradientTransform="matrix(0.44073 -0.24657 0.39119 0.69922 -196.61 -156.38)"/>
  <linearGradient x1="320.6" x2="293.81" xlink:href="#linearGradient15916" y1="345.4" y2="361.49" gradientUnits="userSpaceOnUse" id="linearGradient9020" gradientTransform="matrix(1 0 0 1 -224.68 -343.18)"/>
  <filter x="-0.19" y="-0.171" height="1.341" color-interpolation-filters="sRGB" id="filter4035" width="1.381">
   <feGaussianBlur stdDeviation="4.94766"/>
  </filter>
  <clipPath id="clipPath4031">
   <path d="m48 32c-19.882 0-36 16.118-36 36s16.118 36 36 36 36-16.118 36-36-16.118-36-36-36zm0 24c6.6274 0 12 5.3726 12 12s-5.3726 12-12 12-12-5.3726-12-12 5.3726-12 12-12z"/>
  </clipPath>
  <filter x="-0.18" y="-0.18" height="1.36" color-interpolation-filters="sRGB" id="filter4195" width="1.36">
   <feGaussianBlur stdDeviation="5.216"/>
  </filter>
  <clipPath id="clipPath4187">
   <path d="m48 102c-19.882 0-36 16.118-36 36s16.118 36 36 36 36-16.118 36-36-16.118-36-36-36zm0 24c6.6274 0 12 5.3726 12 12s-5.3726 12-12 12-12-5.3726-12-12 5.3726-12 12-12z"/>
  </clipPath>
  <radialGradient cy="61.922" r="33.714" gradientUnits="userSpaceOnUse" id="radialGradient8103" cx="59.894" gradientTransform="matrix(0 0.2275 -0.2289 0 62.44 33.996)">
   <stop stop-opacity="0"/>
   <stop stop-opacity="0" offset="0.85"/>
   <stop offset="1"/>
  </radialGradient>
  <linearGradient x1="26.18" x2="93.61" gradientUnits="userSpaceOnUse" id="linearGradient8105" gradientTransform="matrix(0 0.2275 -0.2733 0 65.19 33.996)">
   <stop stop-color="#fff" stop-opacity="0.203"/>
   <stop stop-color="#fff" stop-opacity="0.68" offset="1"/>
  </linearGradient>
  <linearGradient x1="25.22" x2="94.57" gradientUnits="userSpaceOnUse" id="linearGradient8108" gradientTransform="matrix(0 0.13171 -0.15822 0 58.06 39.733)">
   <stop stop-color="#4d4d4d"/>
   <stop stop-color="#fff" offset="1"/>
  </linearGradient>
  <path d="m60.947 57.784a20.708 18.814 0 0 1 -2.6155 2.9059l-14.643-13.304z" fill="#7137c8" id="SVGCleanerId_0"/>
  <path d="m60.779 58.011a20.708 18.814 0 0 1 -3.384 3.4788l-13.706-14.104z" fill="#0cf" id="SVGCleanerId_1"/>
  <path d="m62.724 54.796a20.708 18.814 0 0 1 -2.2597 3.6221l-16.775-11.032z" fill="#fc0" id="SVGCleanerId_2"/>
  <path d="m61.623 56.793a20.708 18.814 0 0 1 -1.6993 2.2728l-16.235-11.68z" fill="#f00" id="SVGCleanerId_3"/>
  <path d="m63.123 53.883a20.708 18.814 0 0 1 -2.37 4.1619l-17.064-10.659z" fill="#0f0" id="SVGCleanerId_4"/>
 </defs>
 <path d="m16.059 3.1081c-7.049 0-12.719 5.6697-12.719 12.719v64.531c0 7.049 5.6697 12.719 12.719 12.719h64.188c7.049 0 12.719-5.6697 12.719-12.719v-35.013c-0.0367-3.8222-0.0417-6.3452-1.8012-9.5856l-16.206-29.842c-1.0788-1.8835-2.0313-2.8088-5.1346-2.8088z" fill-opacity="0.02"/>
 <path d="m16.497 3.7018c-6.9538 0-12.531 5.6087-12.531 12.562v63.656c0 6.9538 5.5775 12.531 12.531 12.531h63.312c6.9538 0 12.562-5.5775 12.562-12.531v-34.607c-0.0741-3.7145-0.0646-6.1373-1.775-9.2846l-16.222-29.849c-0.90306-1.708-1.7952-2.4773-4.5338-2.4773z" fill-opacity="0.039"/>
 <path d="m16.934 4.3268c-6.8585 0-12.375 5.5165-12.375 12.375v62.781c0 6.8585 5.5165 12.375 12.375 12.375h62.438c6.8585 0 12.375-5.5165 12.375-12.375v-34.169c-0.0596-3.6037-0.0554-5.964-1.7158-9.0186l-16.222-29.842c-0.57824-1.2184-1.5501-2.1266-3.906-2.1266z" fill-opacity="0.078"/>
 <path d="m17.372 4.9206c-6.7632 0-12.219 5.4555-12.219 12.219v61.906c0 6.7632 5.4555 12.219 12.219 12.219h61.562c6.7632 0 12.219-5.4555 12.219-12.219v-33.794c-0.0346-3.5165-0.0841-5.7358-1.6885-8.6896l-16.237-29.895c-0.43675-0.77203-1.3586-1.7467-3.3394-1.7467z" fill-opacity="0.157"/>
 <path d="m17.747 5.5143c-6.6418 0-11.969 5.3946-11.969 12.062v61.031c0 6.668 5.327 12.031 11.969 12.031h60.813c6.6418 0 11.969-5.3632 11.969-12.031l-0.06245-33.438c-0.0731-3.3855-0.11339-5.4702-1.6562-8.3125l-16.283-29.967c-0.544-0.7689-1.558-1.3403-2.625-1.3747z" fill="url(#linearGradient8339)"/>
 <path d="m57.817 5.6171v85.125h20.906c6.6418 0 11.969-5.3632 11.969-12.031v-61.031c0-0.92374-0.1187-1.7923-0.3125-2.6562 0.15863 0.78565 0.25 1.604 0.25 2.4375v27.812c-0.0731-3.3855-0.11339-5.4702-1.6562-8.3125l-16.282-29.968c-0.53945-0.76243-1.3896-1.1622-2.5938-1.375h-12.281z" fill="url(#linearGradient9020)"/>
 <path d="m71.473 4.4296c-7.4721 3.35-12.688 10.913-12.688 19.719 0 11.911 9.5167 21.562 21.281 21.562 4.3866 0 8.4555-1.3551 11.844-3.6562l-20.437-37.625z" stroke-width="0.1" fill="url(#radialGradient9011)"/>
 <path d="m72.4 6.5777c-0.341-0.3041-0.564-0.3884-0.564-0.3884s0.83487 0.58215-0.16423 2.3199c-3.6996 5.3693-2.6956 12.724 2.4663 16.827l13.888 11.014c0.78033 0.57546 0.96083 0.84746 1.2481 1.2895z" fill="#ccc"/>
 <path d="m72.648 6.9456c-0.26811-0.37128-0.48292-0.5133-0.48292-0.5133s0.74441 0.70007-0.21905 2.3758c-3.5676 5.1777-2.5994 12.27 2.3783 16.227l13.393 10.621c0.75249 0.55493 0.92655 0.81722 1.2036 1.2435z" fill="#fff"/>
 <path d="m-144.73 105.12c-16.522 0-29.915 13.394-29.915 29.915 0 0.2801 0.0183 0.55274 0.0259 0.83099 0.44357-16.135 13.648-29.085 29.89-29.085s29.446 12.95 29.89 29.085c0.008-0.27825 0.026-0.55089 0.026-0.83099-0.00001-16.522-13.394-29.915-29.916-29.915z" fill="#fff" opacity="0.4"/>
 <path d="m48.264 31.609c-9.3497 0-16.955 7.6052-16.955 16.955 0 9.3497 7.6052 16.955 16.955 16.955 9.3497 0 16.955-7.6052 16.955-16.955 0-9.3497-7.6052-16.955-16.955-16.955zm0 9.4194c4.1789 0 7.5355 3.3566 7.5355 7.5355s-3.3566 7.5355-7.5355 7.5355-7.5355-3.3566-7.5355-7.5355 3.3566-7.5355 7.5355-7.5355z" color="#000000" opacity="0.05"/>
 <path d="m48.264 33.492c-8.3235 0-15.071 6.7475-15.071 15.071s6.7475 15.071 15.071 15.071 15.071-6.7475 15.071-15.071-6.7475-15.071-15.071-15.071zm0 5.6516c5.2022 0 9.4194 4.2172 9.4194 9.4194s-4.2172 9.4194-9.4194 9.4194-9.4194-4.2172-9.4194-9.4194 4.2172-9.4194 9.4194-9.4194z" color="#000000" opacity="0.3"/>
 <path d="m48.264 32.521c-8.8519 0-16.042 7.1905-16.042 16.042 0 8.8519 7.1905 16.042 16.042 16.042 8.8519 0 16.042-7.1905 16.042-16.042 0-8.8519-7.1905-16.042-16.042-16.042zm0 7.5944c4.6738 0 8.448 3.7742 8.448 8.448s-3.7742 8.448-8.448 8.448-8.448-3.7742-8.448-8.448 3.7742-8.448 8.448-8.448z" color="#000000" opacity="0.1"/>
 <path d="m48.264 19.443c-15.563 0-28.179 12.616-28.179 28.179s12.616 28.179 28.179 28.179 28.179-12.616 28.179-28.179-12.616-28.179-28.179-28.179zm0 18.786c5.1875 0 9.3928 4.2053 9.3928 9.3928s-4.2053 9.3928-9.3928 9.3928-9.3928-4.2053-9.3928-9.3928 4.2053-9.3928 9.3928-9.3928z" fill="#bbb1bf"/>
 <path d="m48.264 38.229c-5.1875 0-9.3928 4.2053-9.3928 9.3928s4.2053 9.3928 9.3928 9.3928 9.3928-4.2053 9.3928-9.3928-4.2053-9.3928-9.3928-9.3928zm0 5.4792c2.1615 0 3.9137 1.7522 3.9137 3.9137s-1.7522 3.9137-3.9137 3.9137-3.9137-1.7522-3.9137-3.9137 1.7522-3.9137 3.9137-3.9137z" fill="#fff" opacity="0.3"/>
 <path d="m48.264 51.927a4.3051 4.3051 0 1 1 0 -8.6101 4.3051 4.3051 0 1 1 0 8.6101z" stroke-width="0.942" fill="none" stroke="url(#linearGradient8108)" opacity="0.6" stroke-linecap="round"/>
 <path d="m48.264 55.057a7.436 7.4359 0 1 1 0 -14.872 7.436 7.4359 0 0 1 0 14.872z" stroke-width="0.942" fill="url(#radialGradient8103)" fill-rule="evenodd" stroke="url(#linearGradient8105)" opacity="0.5" stroke-linecap="round"/>
 <path d="m57.312 33.219-9.312 34.781 31.188-18c-4.774-8.269-12.653-14.31-21.876-16.781zm-9.312 34.781-31.188 18c4.7739 8.2686 12.653 14.31 21.875 16.781l9.313-34.78z" clip-path="url(#clipPath4031)" fill="#fff" filter="url(#filter4035)" opacity="0.8" transform="matrix(0.78274 0 0 0.78274 10.693 -5.605)"/>
 <g clip-path="url(#clipPath4187)" filter="url(#filter4195)" opacity="0.6" transform="matrix(0.78274 0 0 0.78274 10.693 -60.4)">
  <use xlink:href="#SVGCleanerId_0" transform="matrix(1.5055 0.86922 -0.95673 1.6571 27.56 21.5)"/>
  <use xlink:href="#SVGCleanerId_1" transform="matrix(1.6792 0.44994 -0.49524 1.8483 -1.896 30.76)"/>
  <use xlink:href="#SVGCleanerId_2" transform="matrix(1.7384 0 0 1.9135 -27.951 47.33)"/>
  <use xlink:href="#SVGCleanerId_3" transform="matrix(1.6792 -0.44994 0.49524 1.8483 -48.831 70.08)"/>
  <use xlink:href="#SVGCleanerId_4" transform="matrix(1.6792 0.44994 -0.49524 1.8483 -1.896 30.76)"/>
  <use xlink:href="#SVGCleanerId_0" transform="matrix(-1.5055 -0.86922 0.95673 -1.6571 68.44 254.5)"/>
  <use xlink:href="#SVGCleanerId_1" transform="matrix(-1.6792 -0.44994 0.49524 -1.8483 97.9 245.24)"/>
  <use xlink:href="#SVGCleanerId_2" transform="matrix(-1.7384 0 0 -1.9135 123.95 228.67)"/>
  <use xlink:href="#SVGCleanerId_3" transform="matrix(-1.6792 0.44994 -0.49524 -1.8483 144.83 205.92)"/>
  <use xlink:href="#SVGCleanerId_4" transform="matrix(-1.6792 -0.44994 0.49524 -1.8483 97.9 245.24)"/>
 </g>
 <path d="m48.264 36.272c-6.2683 0-11.35 5.0814-11.35 11.35 0 6.2683 5.0814 11.35 11.35 11.35 6.2683 0 11.35-5.0814 11.35-11.35 0-6.2683-5.0814-11.35-11.35-11.35zm0 1.9568c5.1875 0 9.3928 4.2053 9.3928 9.3928s-4.2053 9.3928-9.3928 9.3928-9.3928-4.2053-9.3928-9.3928 4.2053-9.3928 9.3928-9.3928z" opacity="0.2"/>
 <path d="m20.006 48.092c-0.0026 0.15857 0 0.31179 0 0.47097 0 15.607 12.652 28.258 28.258 28.258 15.607 0 28.258-12.652 28.258-28.258 0-0.15918 0.0026-0.3124 0-0.47097-0.25446 15.387-12.811 27.787-28.258 27.787s-28.004-12.4-28.258-27.787z" fill="#fff" color="#000000" opacity="0.6"/>
 <path d="m48.264 19.363c-15.607 0-28.258 12.652-28.258 28.258 0 15.607 12.652 28.258 28.258 28.258 15.607 0 28.258-12.652 28.258-28.258 0-15.607-12.652-28.258-28.258-28.258zm0 2.8258c14.046 0 25.432 11.386 25.432 25.432s-11.386 25.432-25.432 25.432-25.432-11.386-25.432-25.432 11.386-25.432 25.432-25.432z" color="#000000" opacity="0.05"/>
 <path d="m48.264 19.363c-15.607 0-28.258 12.652-28.258 28.258 0 15.607 12.652 28.258 28.258 28.258 15.607 0 28.258-12.652 28.258-28.258 0-15.607-12.652-28.258-28.258-28.258zm0 1.9133c14.571 0 26.345 11.774 26.345 26.345s-11.774 26.345-26.345 26.345-26.345-11.774-26.345-26.345 11.774-26.345 26.345-26.345z" color="#000000" opacity="0.1"/>
 <path d="m48.264 19.363c-15.607 0-28.258 12.652-28.258 28.258 0 15.607 12.652 28.258 28.258 28.258 15.607 0 28.258-12.652 28.258-28.258 0-15.607-12.652-28.258-28.258-28.258zm0 0.94194c15.086 0 27.316 12.23 27.316 27.316s-12.23 27.316-27.316 27.316-27.316-12.23-27.316-27.316 12.23-27.316 27.316-27.316z" color="#000000" opacity="0.15"/>
 <path d="m48.264 19.363c-15.607 0-28.258 12.652-28.258 28.258 0 0.15919-0.0026 0.31241 0 0.47097 0.25446-15.387 12.811-27.787 28.258-27.787s28.004 12.4 28.258 27.787c0.0026-0.15856 0-0.31178 0-0.47097 0-15.607-12.652-28.258-28.258-28.258z" color="#000000" opacity="0.2"/>
</svg>
