<svg height="96" width="96" xmlns="http://www.w3.org/2000/svg" xmlns:xlink="http://www.w3.org/1999/xlink">
 <defs>
  <linearGradient id="linearGradient15916">
   <stop stop-color="#b4b4b4"/>
   <stop stop-color="#b4b4b4" stop-opacity="0" offset="1"/>
  </linearGradient>
  <linearGradient x2="0" y1="90" y2="5.988" gradientUnits="userSpaceOnUse" id="linearGradient8339" gradientTransform="matrix(1.0959 0 0 1.0685 -4.442 -3.204)">
   <stop stop-color="#ebebeb"/>
   <stop stop-color="#fafafa" offset="1"/>
  </linearGradient>
  <radialGradient cy="360.77" r="21.302" xlink:href="#linearGradient15916" gradientUnits="userSpaceOnUse" id="radialGradient8416" cx="303.16" gradientTransform="matrix(0.44073 -0.24657 0.39119 0.69922 -196.61 -156.38)"/>
  <linearGradient x1="320.6" x2="293.81" xlink:href="#linearGradient15916" y1="345.4" y2="361.49" gradientUnits="userSpaceOnUse" id="linearGradient8419" gradientTransform="matrix(1 0 0 1 -224.68 -343.18)"/>
  <filter color-interpolation-filters="sRGB" id="filter3767">
   <feGaussianBlur stdDeviation="1.08"/>
  </filter>
  <clipPath id="clipPath3763">
   <path d="m-88 6c-3.324 0-6 2.676-6 6v72c0 3.324 2.676 6 6 6h72c3.324 0 6-2.676 6-6v-72c0-3.324-2.676-6-6-6h-72zm4 38a36 36 0 0 1 36 36h-7.1875a28.8 28.8 0 0 0 -28.812 -28.812v-7.188zm0 12.125a23.863 23.863 0 0 1 23.875 23.875h-7a16.869 16.869 0 0 0 -16.875 -16.875v-7zm4.9375 14c2.7267 0 4.9375 2.2108 4.9375 4.9375s-2.2108 4.9375-4.9375 4.9375c-2.727 0-4.938-2.211-4.938-4.938 0-2.7267 2.2108-4.9375 4.9375-4.9375z"/>
  </clipPath>
  <linearGradient x2="0" y1="40" y2="-57.782" gradientUnits="userSpaceOnUse" id="linearGradient32847" gradientTransform="matrix(0.5625 0 0 0.5625 34 57.5)">
   <stop stop-color="#d4530d"/>
   <stop stop-color="#f7ad25" offset="1"/>
  </linearGradient>
 </defs>
 <path d="m16.059 3.1081c-7.049 0-12.719 5.6697-12.719 12.719v64.531c0 7.049 5.6697 12.719 12.719 12.719h64.188c7.049 0 12.719-5.6697 12.719-12.719v-35.013c-0.0367-3.8222-0.0417-6.3452-1.8012-9.5856l-16.206-29.842c-1.0788-1.8835-2.0313-2.8088-5.1346-2.8088z" fill-opacity="0.02"/>
 <path d="m16.497 3.7018c-6.9538 0-12.531 5.6087-12.531 12.562v63.656c0 6.9538 5.5775 12.531 12.531 12.531h63.312c6.9538 0 12.562-5.5775 12.562-12.531v-34.607c-0.0741-3.7145-0.0646-6.1373-1.775-9.2846l-16.222-29.849c-0.90306-1.708-1.7952-2.4773-4.5338-2.4773z" fill-opacity="0.039"/>
 <path d="m16.934 4.3268c-6.8585 0-12.375 5.5165-12.375 12.375v62.781c0 6.8585 5.5165 12.375 12.375 12.375h62.438c6.8585 0 12.375-5.5165 12.375-12.375v-34.169c-0.0596-3.6037-0.0554-5.964-1.7158-9.0186l-16.222-29.842c-0.57824-1.2184-1.5501-2.1266-3.906-2.1266z" fill-opacity="0.078"/>
 <path d="m17.372 4.9206c-6.7632 0-12.219 5.4555-12.219 12.219v61.906c0 6.7632 5.4555 12.219 12.219 12.219h61.562c6.7632 0 12.219-5.4555 12.219-12.219v-33.794c-0.0346-3.5165-0.0841-5.7358-1.6885-8.6896l-16.237-29.895c-0.43675-0.77203-1.3586-1.7467-3.3394-1.7467z" fill-opacity="0.157"/>
 <path d="m17.747 5.5143c-6.6418 0-11.969 5.3946-11.969 12.062v61.031c0 6.668 5.327 12.031 11.969 12.031h60.813c6.6418 0 11.969-5.3632 11.969-12.031l-0.06245-33.438c-0.0731-3.3855-0.11339-5.4702-1.6562-8.3125l-16.283-29.967c-0.544-0.7689-1.558-1.3403-2.625-1.3747z" fill="url(#linearGradient8339)"/>
 <path d="m5.7709 77.595v1.0133c0 6.668 5.3434 12.032 11.985 12.032h60.809c6.6418 0 11.985-5.3645 11.985-12.032v-1.0133c0 6.6681-5.3434 12.032-11.985 12.032h-60.809c-6.6418 0-11.985-5.3644-11.985-12.032z" fill-opacity="0.098"/>
 <path d="m57.817 5.6171v85.125h20.906c6.6418 0 11.969-5.3632 11.969-12.031v-61.031c0-0.92374-0.1187-1.7923-0.3125-2.6562 0.15863 0.78565 0.25 1.604 0.25 2.4375v27.812c-0.0731-3.3855-0.11339-5.4702-1.6562-8.3125l-16.282-29.968c-0.53945-0.76243-1.3896-1.1622-2.5938-1.375h-12.281z" fill="url(#linearGradient8419)"/>
 <path d="m71.473 4.4296c-7.4721 3.35-12.688 10.913-12.688 19.719 0 11.911 9.5167 21.562 21.281 21.562 4.3866 0 8.4555-1.3551 11.844-3.6562l-20.437-37.625z" stroke-width="0.1" fill="url(#radialGradient8416)"/>
 <path d="m72.4 6.5777c-0.341-0.3041-0.564-0.3884-0.564-0.3884s0.83487 0.58215-0.16423 2.3199c-3.6996 5.3693-2.6956 12.724 2.4663 16.827l13.888 11.014c0.78033 0.57546 0.96083 0.84746 1.2481 1.2895z" fill="#ccc"/>
 <path d="m72.648 6.9456c-0.26811-0.37128-0.48292-0.5133-0.48292-0.5133s0.74441 0.70007-0.21905 2.3758c-3.5676 5.1777-2.5994 12.27 2.3783 16.227l13.393 10.621c0.75249 0.55493 0.92655 0.81722 1.2036 1.2435z" fill="#fff"/>
 <g transform="matrix(1 0 0 1 -1.744 1.751)">
  <path d="m-84 44v7.2a28.8 28.8 0 0 1 28.8 28.8h7.2a36 36 0 0 0 -36 -36zm0 12.137v6.9943a16.869 16.869 0 0 1 16.869 16.869h6.9943a23.863 23.863 0 0 0 -23.863 -23.863zm4.9371 13.989c-2.727 0-4.937 2.21-4.937 4.937s2.21 4.937 4.937 4.937c2.7267 0 4.9371-2.2104 4.9371-4.9371s-2.2104-4.9371-4.9371-4.9371z" stroke-width="2" clip-path="url(#clipPath3763)" fill="none" stroke="#fff" filter="url(#filter3767)" opacity="0.12" transform="matrix(1 0 0 1 100 0)"/>
  <path d="m16 44v7.2a28.8 28.8 0 0 1 28.8 28.8h7.2a36 36 0 0 0 -36 -36zm0 12.137v6.9943a16.869 16.869 0 0 1 16.869 16.869h6.9943a23.863 23.863 0 0 0 -23.863 -23.863zm4.9371 13.989c-2.727 0-4.937 2.21-4.937 4.937s2.21 4.937 4.937 4.937c2.7267 0 4.9371-2.2104 4.9371-4.9371s-2.2104-4.9371-4.9371-4.9371z" fill="url(#linearGradient32847)"/>
  <path d="m16 44v7.1875c0.32324 0.01539 0.64622 0.03623 0.96875 0.0625 0.000668-0.02083 0.000668-0.04167 0-0.0625v-6.1562c0.81294 0.02133 1.6041 0.03984 2.4688 0.125 1.2042 0.1186 2.2195 0.26394 3.4062 0.5s2.1546 0.46126 3.3125 0.8125 2.1321 0.69321 3.25 1.1562c1.1179 0.46304 2.0266 0.92962 3.0938 1.5 1.0671 0.57038 1.9627 1.0778 2.9688 1.75 1.0061 0.67223 1.8147 1.2949 2.75 2.0625 0.93532 0.7676 1.7069 1.4257 2.5625 2.2812 0.85558 0.85558 1.5136 1.6272 2.2812 2.5625 0.7676 0.93532 1.3903 1.7439 2.0625 2.75 0.67223 1.0061 1.1796 1.9016 1.75 2.9688 0.57038 1.0671 1.037 1.9759 1.5 3.0938 0.46304 1.1179 0.80501 2.0921 1.1562 3.25 0.35124 1.1579 0.57644 2.1258 0.8125 3.3125s0.3814 2.2021 0.5 3.4062c0.08516 0.86462 0.10367 1.6558 0.125 2.4688h-6.1562c-0.01042-0.000167-0.02083-0.000167-0.03125 0 0.014 0.321 0.025 0.644 0.029 0.967h7.188c0-9.425-3.88-18.792-10.544-25.456s-16.031-10.544-25.456-10.544zm0 12.125v7c0.32343 0.01154 0.64652 0.03238 0.96875 0.0625 0.000668-0.02083 0.000668-0.04167 0-0.0625v-5.9688c0.40921 0.01676 0.8205 0.01733 1.2812 0.0625 0.80944 0.07936 1.421 0.15413 2.2188 0.3125 0.79775 0.15837 1.4091 0.32665 2.1875 0.5625 0.77837 0.23585 1.3735 0.43895 2.125 0.75 0.75148 0.31105 1.3139 0.58549 2.0312 0.96875 0.71735 0.38326 1.2299 0.70448 1.9062 1.1562 0.6763 0.45177 1.1838 0.79658 1.8125 1.3125 0.62874 0.51592 1.0811 0.95615 1.6562 1.5312 0.5751 0.5751 1.0153 1.0275 1.5312 1.6562 0.51592 0.62874 0.86073 1.1362 1.3125 1.8125s0.77299 1.1889 1.1562 1.9062c0.38326 0.71735 0.6577 1.2798 0.96875 2.0312 0.31105 0.75148 0.51415 1.3466 0.75 2.125 0.23585 0.77837 0.40413 1.3898 0.5625 2.1875 0.15837 0.79775 0.23314 1.4093 0.3125 2.2188 0.04517 0.46076 0.04574 0.87204 0.0625 1.2812h-5.9688c-0.02083-0.000668-0.04167-0.000668-0.0625 0 0.03012 0.32223 0.05096 0.64532 0.0625 0.96875h7c0.004-6.25-2.568-12.464-6.988-16.885-4.421-4.42-10.635-6.992-16.886-6.989zm4.9375 14c-2.727 0-4.938 2.211-4.938 4.937 0 2.727 2.211 4.938 4.938 4.938 2.7267 0 4.9375-2.2108 4.9375-4.9375s-2.2108-4.9375-4.9375-4.9375zm0 0.96875c2.2002 0 3.9688 1.7686 3.9688 3.9688s-1.7686 3.9688-3.9688 3.9688-3.9688-1.7686-3.9688-3.9688 1.7686-3.9688 3.9688-3.9688z" fill="#803300" opacity="0.3"/>
  <path d="m16 44v1a36 36 0 0 1 35.938 35h0.062a36 36 0 0 0 -36 -36zm0 12.125v1a23.863 23.863 0 0 1 23.812 22.875h0.0625a23.863 23.863 0 0 0 -23.874 -23.875zm4.9375 14c-2.727 0-4.938 2.211-4.938 4.937 0 0.17042 0.0144 0.33403 0.03125 0.5 0.25283-2.4896 2.35-4.4375 4.9062-4.4375 2.5563 0 4.6534 1.9479 4.9062 4.4375 0.01685-0.16597 0.03125-0.32958 0.03125-0.5 0-2.7267-2.2108-4.9375-4.9375-4.9375z" fill="#803300" opacity="0.5"/>
  <path d="m16 51.188v1a28.8 28.8 0 0 1 28.812 28.812h7.188a36 36 0 0 0 -0.0625 -1h-7.125a28.8 28.8 0 0 0 -28.813 -28.812zm0 11.938v1a16.869 16.869 0 0 1 16.875 16.874h7a23.863 23.863 0 0 0 -0.063 -1h-6.937a16.869 16.869 0 0 0 -16.875 -16.875zm0.03125 12.438c-0.017 0.164-0.031 0.328-0.031 0.498 0 2.727 2.211 4.938 4.938 4.938 2.7267 0 4.9375-2.2108 4.9375-4.9375 0-0.17042-0.0144-0.33403-0.03125-0.5-0.253 2.49-2.35 4.438-4.906 4.438-2.557 0-4.654-1.948-4.907-4.438z" fill="#fff"/>
 </g>
</svg>
