<svg height="96" width="96" xmlns="http://www.w3.org/2000/svg" xmlns:xlink="http://www.w3.org/1999/xlink">
 <defs>
  <linearGradient x2="0" y1="20.221" y2="138.66" gradientUnits="userSpaceOnUse" id="linearGradient11029">
   <stop stop-color="#fff"/>
   <stop stop-color="#fff" stop-opacity="0" offset="1"/>
  </linearGradient>
  <linearGradient x2="0" y1="90" y2="5.988" gradientUnits="userSpaceOnUse" id="linearGradient8339" gradientTransform="matrix(1.0959 0 0 1.0685 -4.442 -3.204)">
   <stop stop-color="#ebebeb"/>
   <stop stop-color="#fafafa" offset="1"/>
  </linearGradient>
  <radialGradient cy="360.77" r="21.302" gradientUnits="userSpaceOnUse" id="radialGradient8416" cx="303.16" gradientTransform="matrix(0.44073 -0.24657 0.39119 0.69922 -196.61 -156.38)">
   <stop stop-color="#b4b4b4"/>
   <stop stop-color="#b4b4b4" stop-opacity="0" offset="1"/>
  </radialGradient>
  <radialGradient cy="90.17" r="42" xlink:href="#linearGradient11029" gradientUnits="userSpaceOnUse" id="radialGradient22971" cx="48" gradientTransform="matrix(1.1573 0 0 0.99591 217.41 -166.15)"/>
  <linearGradient xlink:href="#linearGradient11029" id="linearGradient4193-9"/>
  <radialGradient cy="90.17" r="42" xlink:href="#linearGradient11029" gradientUnits="userSpaceOnUse" id="radialGradient21554" cx="48" gradientTransform="matrix(1.1573 0 0 0.99591 -95.27 -50.2)"/>
  <linearGradient x2="0" y1="48" y2="60" gradientUnits="userSpaceOnUse" id="linearGradient21556">
   <stop stop-color="#f00"/>
   <stop stop-color="#ff006b" offset="1"/>
  </linearGradient>
  <linearGradient x1="71" x2="77" y1="34" y2="45" gradientUnits="userSpaceOnUse" id="linearGradient21558">
   <stop stop-color="#ff8200"/>
   <stop stop-color="#ff4700" offset="1"/>
  </linearGradient>
  <linearGradient x1="58" x2="68" y1="25" y2="31" gradientUnits="userSpaceOnUse" id="linearGradient21560">
   <stop stop-color="#ffd500"/>
   <stop stop-color="#ff9a00" offset="1"/>
  </linearGradient>
  <linearGradient x1="42" x2="54" gradientUnits="userSpaceOnUse" id="linearGradient21562">
   <stop stop-color="#46cc00"/>
   <stop stop-color="#85cc00" offset="1"/>
  </linearGradient>
  <linearGradient x1="28" x2="38.1" y1="31" y2="25.17" gradientUnits="userSpaceOnUse" id="linearGradient21564">
   <stop stop-color="#00b4b4"/>
   <stop stop-color="#00b464" offset="1"/>
  </linearGradient>
  <linearGradient x1="19" x2="25" y1="44" y2="34" gradientUnits="userSpaceOnUse" id="linearGradient21566">
   <stop stop-color="#03c"/>
   <stop stop-color="#0e7eff" offset="1"/>
  </linearGradient>
  <linearGradient x2="0" y1="60" y2="47.958" gradientUnits="userSpaceOnUse" id="linearGradient21568">
   <stop stop-color="#609"/>
   <stop stop-color="#330eac" offset="1"/>
  </linearGradient>
  <radialGradient cy="54" r="6" xlink:href="#linearGradient4193-9" gradientUnits="userSpaceOnUse" id="radialGradient21570" cx="-22"/>
  <radialGradient cy="54" r="4" xlink:href="#linearGradient4193-9" gradientUnits="userSpaceOnUse" id="radialGradient21572" cx="-34"/>
  <radialGradient cy="54" r="2" xlink:href="#linearGradient4193-9" gradientUnits="userSpaceOnUse" id="radialGradient21574" cx="-42"/>
  <radialGradient cy="39" r="6" xlink:href="#linearGradient4193-9" gradientUnits="userSpaceOnUse" id="radialGradient21576" cx="-26.02" gradientTransform="matrix(1 0 0 1 0 0)"/>
  <radialGradient cy="45" r="4" xlink:href="#linearGradient4193-9" gradientUnits="userSpaceOnUse" id="radialGradient21578" cx="-36.412" gradientTransform="matrix(1 0 0 1 0 0)"/>
  <radialGradient cy="49" r="2" xlink:href="#linearGradient4193-9" gradientUnits="userSpaceOnUse" id="radialGradient21580" cx="-43.34" gradientTransform="matrix(1 0 0 1 0 0)"/>
  <radialGradient cy="28.02" r="6" xlink:href="#linearGradient4193-9" gradientUnits="userSpaceOnUse" id="radialGradient21582" cx="-37" gradientTransform="matrix(1 0 0 1 0 0)"/>
  <radialGradient cy="38.41" r="4" xlink:href="#linearGradient4193-9" gradientUnits="userSpaceOnUse" id="radialGradient21584" cx="-43" gradientTransform="matrix(1 0 0 1 0 0)"/>
  <radialGradient cy="45.34" r="2" xlink:href="#linearGradient4193-9" gradientUnits="userSpaceOnUse" id="radialGradient21586" cx="-47" gradientTransform="matrix(1 0 0 1 0 0)"/>
  <radialGradient cy="24" r="6" xlink:href="#linearGradient4193-9" gradientUnits="userSpaceOnUse" id="radialGradient21588" cx="-52" gradientTransform="matrix(1 0 0 1 0 0)"/>
  <radialGradient cy="36" r="4" xlink:href="#linearGradient4193-9" gradientUnits="userSpaceOnUse" id="radialGradient21590" cx="-52" gradientTransform="matrix(1 0 0 1 0 0)"/>
  <radialGradient cy="44" r="2" xlink:href="#linearGradient4193-9" gradientUnits="userSpaceOnUse" id="radialGradient21592" cx="-52"/>
  <radialGradient cy="28.02" r="6" xlink:href="#linearGradient4193-9" gradientUnits="userSpaceOnUse" id="radialGradient21594" cx="-67" gradientTransform="matrix(1 0 0 1 0 0)"/>
  <radialGradient cy="38.41" r="4" xlink:href="#linearGradient4193-9" gradientUnits="userSpaceOnUse" id="radialGradient21596" cx="-61" gradientTransform="matrix(1 0 0 1 0 0)"/>
  <radialGradient cy="45.34" r="2" xlink:href="#linearGradient4193-9" gradientUnits="userSpaceOnUse" id="radialGradient21598" cx="-57" gradientTransform="matrix(1 0 0 1 0 0)"/>
  <radialGradient cy="39" r="6" xlink:href="#linearGradient4193-9" gradientUnits="userSpaceOnUse" id="radialGradient21600" cx="-77.981" gradientTransform="matrix(1 0 0 1 0 0)"/>
  <radialGradient cy="45" r="4" xlink:href="#linearGradient4193-9" gradientUnits="userSpaceOnUse" id="radialGradient21602" cx="-67.59" gradientTransform="matrix(1 0 0 1 0 0)"/>
  <radialGradient cy="49" r="2" xlink:href="#linearGradient4193-9" gradientUnits="userSpaceOnUse" id="radialGradient21604" cx="-60.66" gradientTransform="matrix(1 0 0 1 0 0)"/>
  <radialGradient cy="54" r="6" xlink:href="#linearGradient4193-9" gradientUnits="userSpaceOnUse" id="radialGradient21606" cx="-82"/>
  <radialGradient cy="54" r="4" xlink:href="#linearGradient4193-9" gradientUnits="userSpaceOnUse" id="radialGradient21608" cx="-70" gradientTransform="matrix(1 0 0 1 0 0)"/>
  <radialGradient cy="54" r="2" xlink:href="#linearGradient4193-9" gradientUnits="userSpaceOnUse" id="radialGradient21610" cx="-62"/>
 </defs>
 <path d="m16.059 3.1081c-7.049 0-12.719 5.6697-12.719 12.719v64.531c0 7.049 5.6697 12.719 12.719 12.719h64.188c7.049 0 12.719-5.6697 12.719-12.719v-35.013c-0.0367-3.8222-0.0417-6.3452-1.8012-9.5856l-16.206-29.842c-1.0788-1.8835-2.0313-2.8088-5.1346-2.8088z" fill-opacity="0.02"/>
 <path d="m16.497 3.7018c-6.9538 0-12.531 5.6087-12.531 12.562v63.656c0 6.9538 5.5775 12.531 12.531 12.531h63.312c6.9538 0 12.562-5.5775 12.562-12.531v-34.607c-0.0741-3.7145-0.0646-6.1373-1.775-9.2846l-16.222-29.849c-0.90306-1.708-1.7952-2.4773-4.5338-2.4773z" fill-opacity="0.039"/>
 <path d="m16.934 4.3268c-6.8585 0-12.375 5.5165-12.375 12.375v62.781c0 6.8585 5.5165 12.375 12.375 12.375h62.438c6.8585 0 12.375-5.5165 12.375-12.375v-34.169c-0.0596-3.6037-0.0554-5.964-1.7158-9.0186l-16.222-29.842c-0.57824-1.2184-1.5501-2.1266-3.906-2.1266z" fill-opacity="0.078"/>
 <path d="m17.372 4.9206c-6.7632 0-12.219 5.4555-12.219 12.219v61.906c0 6.7632 5.4555 12.219 12.219 12.219h61.562c6.7632 0 12.219-5.4555 12.219-12.219v-33.794c-0.0346-3.5165-0.0841-5.7358-1.6885-8.6896l-16.237-29.895c-0.43675-0.77203-1.3586-1.7467-3.3394-1.7467z" fill-opacity="0.157"/>
 <path d="m17.747 5.5143c-6.6418 0-11.969 5.3946-11.969 12.062v61.031c0 6.668 5.327 12.031 11.969 12.031h60.813c6.6418 0 11.969-5.3632 11.969-12.031l-0.06245-33.438c-0.0731-3.3855-0.11339-5.4702-1.6562-8.3125l-16.283-29.967c-0.544-0.7689-1.558-1.3403-2.625-1.3747z" fill="url(#linearGradient8339)"/>
 <path d="m236.96-76.351c-3.324 0-6-2.676-6-6v-2-68-2c0-0.33472 0.0413-0.6507 0.0937-0.96875 0.0487-0.2956 0.097-0.59691 0.1875-0.875 0.01-0.0304 0.0209-0.0636 0.0313-0.0937 0.0989-0.28777 0.23488-0.54745 0.375-0.8125 0.14459-0.27351 0.31562-0.53562 0.5-0.78125s0.37378-0.47347 0.59375-0.6875c0.43995-0.42806 0.94291-0.81453 1.5-1.0938 0.27854-0.13961 0.57347-0.24695 0.875-0.34375-0.2562 0.10022-0.48671 0.23627-0.71875 0.375-0.007 0.004-0.0239-0.004-0.0313 0-0.0319 0.0193-0.0623 0.0425-0.0937 0.0625-0.1204 0.0767-0.23102 0.16351-0.34375 0.25-0.10617 0.0808-0.21328 0.16111-0.3125 0.25-0.17793 0.16143-0.34746 0.34539-0.5 0.53125-0.10758 0.13026-0.21839 0.26529-0.3125 0.40625-0.0251 0.0384-0.0385 0.0859-0.0625 0.125-0.0648 0.10303-0.13023 0.20452-0.1875 0.3125-0.10101 0.19471-0.20567 0.4157-0.28125 0.625-0.008 0.0218-0.0236 0.0406-0.0313 0.0625-0.0318 0.092-0.0358 0.18683-0.0625 0.28125-0.0303 0.10662-0.0704 0.20303-0.0937 0.3125-0.0729 0.34151-0.125 0.69821-0.125 1.0625v2 68 2c0 2.7818 2.2182 5 5 5h2 68 2c2.7818 0 5-2.2182 5-5v-2-68-2c0-0.36429-0.0521-0.72099-0.125-1.0625-0.0442-0.20689-0.0884-0.39766-0.15625-0.59375-0.008-0.0219-0.0233-0.0407-0.0313-0.0625-0.0627-0.17374-0.13838-0.36745-0.21875-0.53125-0.0416-0.0828-0.079-0.16995-0.125-0.25-0.0546-0.0972-0.12677-0.18835-0.1875-0.28125-0.0941-0.14096-0.20492-0.27599-0.3125-0.40625-0.14317-0.17445-0.30314-0.347-0.46875-0.5-0.0112-0.0102-0.02-0.0211-0.0313-0.0313-0.13839-0.12556-0.28509-0.23444-0.4375-0.34375-0.10257-0.0731-0.20432-0.15336-0.3125-0.21875-0.007-0.004-0.0238 0.004-0.0313 0-0.23204-0.13873-0.46255-0.27478-0.71875-0.375 0.30153 0.0968 0.59645 0.20414 0.875 0.34375 0.55709 0.27922 1.06 0.66569 1.5 1.0938 0.21997 0.21403 0.40937 0.44187 0.59375 0.6875s0.35541 0.50774 0.5 0.78125c0.14012 0.26505 0.27613 0.52473 0.375 0.8125 0.0104 0.0308 0.0213 0.0627 0.0313 0.0937 0.0905 0.27809 0.1388 0.5794 0.1875 0.875 0.0524 0.31805 0.0937 0.63403 0.0937 0.96875v2 68 2c0 3.324-2.676 6-6 6h-72z" fill="url(#radialGradient22971)" opacity="0.4"/>
 <path d="m71.473 4.4296c-7.4721 3.35-12.688 10.913-12.688 19.719 0 11.911 9.5167 21.562 21.281 21.562 4.3866 0 8.4555-1.3551 11.844-3.6562l-20.437-37.625z" stroke-width="0.1" fill="url(#radialGradient8416)"/>
 <path d="m72.4 6.5777c-0.341-0.3041-0.564-0.3884-0.564-0.3884s0.83487 0.58215-0.16423 2.3199c-3.6996 5.3693-2.6956 12.724 2.4663 16.827l13.888 11.014c0.78033 0.57546 0.96083 0.84746 1.2481 1.2895z" fill="#ccc"/>
 <path d="m72.648 6.9456c-0.26811-0.37128-0.48292-0.5133-0.48292-0.5133s0.74441 0.70007-0.21905 2.3758c-3.5676 5.1777-2.5994 12.27 2.3783 16.227l13.393 10.621c0.75249 0.55493 0.92655 0.81722 1.2036 1.2435z" fill="#fff"/>
 <g transform="matrix(1 0 0 1 87.46 47.593)">
  <path d="m-75.717 39.603c-3.324 0-6-2.676-6-6v-2-68-2c0-0.33472 0.04135-0.6507 0.09375-0.96875 0.0487-0.2956 0.09704-0.59692 0.1875-0.875 0.0099-0.03038 0.02089-0.0636 0.03125-0.09375 0.09886-0.28777 0.23488-0.54745 0.375-0.8125 0.14459-0.27351 0.31562-0.53562 0.5-0.78125 0.18438-0.24564 0.37378-0.47347 0.59375-0.6875 0.43995-0.42806 0.94291-0.81453 1.5-1.0938 0.27854-0.13961 0.57347-0.24695 0.875-0.34375-0.2562 0.10022-0.48671 0.23627-0.71875 0.375-0.0074 0.0044-0.02387-0.0045-0.03125 0-0.03193 0.0193-0.06229 0.04251-0.09375 0.0625-0.1204 0.0767-0.23102 0.16351-0.34375 0.25-0.10617 0.0808-0.21328 0.16111-0.3125 0.25-0.17793 0.16143-0.34746 0.34539-0.5 0.53125-0.10758 0.13026-0.21839 0.26528-0.3125 0.40625-0.02509 0.03838-0.03845 0.08587-0.0625 0.125-0.06476 0.10303-0.13023 0.20452-0.1875 0.3125-0.10101 0.19471-0.20568 0.4157-0.28125 0.625-0.008 0.02181-0.02359 0.04055-0.03125 0.0625-0.03182 0.09195-0.0358 0.18683-0.0625 0.28125-0.03033 0.10662-0.07039 0.20303-0.09375 0.3125-0.07288 0.34151-0.125 0.6982-0.125 1.0625v2 68 2c0 2.7818 2.2182 5 5 5h2 68 2c2.7818 0 5-2.2182 5-5v-2-68-2c0-0.3643-0.05212-0.72099-0.125-1.0625-0.04415-0.20689-0.08838-0.39766-0.15625-0.59375-0.0077-0.02195-0.0233-0.04069-0.03125-0.0625-0.06274-0.17374-0.13838-0.36745-0.21875-0.53125-0.04158-0.0828-0.07904-0.16995-0.125-0.25-0.0546-0.09721-0.12677-0.18835-0.1875-0.28125-0.09411-0.14096-0.20492-0.276-0.3125-0.40625-0.14317-0.17445-0.30314-0.347-0.46875-0.5-0.01117-0.0102-0.01998-0.02115-0.03125-0.03125-0.13839-0.12556-0.28509-0.23444-0.4375-0.34375-0.10257-0.07315-0.20432-0.15336-0.3125-0.21875-0.0074-0.0045-0.02384 0.0044-0.03125 0-0.23204-0.13873-0.46255-0.27478-0.71875-0.375 0.30153 0.0968 0.59646 0.20414 0.875 0.34375 0.55709 0.27922 1.0601 0.66569 1.5 1.0938 0.21997 0.21403 0.40937 0.44186 0.59375 0.6875s0.35541 0.50774 0.5 0.78125c0.14012 0.26505 0.27614 0.52473 0.375 0.8125 0.01041 0.03078 0.02133 0.06274 0.03125 0.09375 0.09046 0.27808 0.1388 0.5794 0.1875 0.875 0.0524 0.31805 0.09375 0.63403 0.09375 0.96875v2 68 2c0 3.324-2.676 6-6 6h-72z" fill="url(#radialGradient21554)" opacity="0.4"/>
  <g transform="matrix(1 0 0 1 -87.72 -50.4)">
   <path d="m78 48c-3.3137 0-6 2.6863-6 6s2.6863 6 6 6 6-2.6863 6-6-2.6863-6-6-6zm-12 2c-2.2091 0-4 1.7909-4 4s1.7909 4 4 4 4-1.7909 4-4-1.7909-4-4-4zm-8 2c-1.1046 0-2 0.89543-2 2s0.89543 2 2 2 2-0.89543 2-2-0.89543-2-2-2z" fill="url(#linearGradient21556)" color="#000000"/>
   <path d="m70.981 33.804c-2.87 1.657-3.853 5.326-2.196 8.196 1.6569 2.8698 5.3264 3.853 8.1962 2.1962 2.87-1.657 3.853-5.326 2.196-8.196s-5.326-3.853-8.196-2.196zm-9.3923 7.732c-1.9132 1.1046-2.5687 3.5509-1.4641 5.4641s3.5509 2.5687 5.4641 1.4641 2.5687-3.5509 1.4641-5.4641-3.5509-2.5687-5.4641-1.4641zm-5.9282 5.732c-0.957 0.552-1.285 1.775-0.733 2.732 0.55228 0.95659 1.7755 1.2843 2.7321 0.73205 0.957-0.552 1.285-1.775 0.732-2.732-0.552-0.957-1.775-1.284-2.732-0.732z" fill="url(#linearGradient21558)" color="#000000"/>
   <path d="m57.804 25.019c-1.6569 2.8698-0.6736 6.5393 2.1962 8.1962 2.8698 1.6568 6.5393 0.6736 8.1962-2.1962 1.657-2.87 0.674-6.539-2.196-8.196s-6.539-0.674-8.196 2.196zm-4.268 11.392c-1.105 1.914-0.449 4.36 1.464 5.465 1.9132 1.1046 4.3595 0.44907 5.4641-1.4641 1.105-1.914 0.449-4.36-1.464-5.465-1.9132-1.1046-4.3595-0.44907-5.4641 1.4641zm-2.2679 7.9282c-0.552 0.957-0.225 2.181 0.732 2.733 0.95658 0.55228 2.1798 0.22453 2.7321-0.73205 0.552-0.957 0.225-2.18-0.732-2.732-0.957-0.553-2.18-0.225-2.732 0.732z" fill="url(#linearGradient21560)" color="#000000"/>
   <path d="m42 24c0 3.314 2.686 6 6 6 3.3137 0 6-2.6863 6-6s-2.6863-6-6-6-6 2.6863-6 6zm2 12c0 2.2091 1.7909 4 4 4s4-1.7909 4-4c0-2.209-1.791-4-4-4-2.2091 0-4 1.7909-4 4zm2 8c0.000001 1.1046 0.89543 2 2 2s2-0.89543 2-2-0.89543-2-2-2-2 0.89543-2 2z" fill="url(#linearGradient21562)" color="#000000"/>
   <path d="m27.804 31.019c1.6569 2.8698 5.3264 3.853 8.1962 2.1962s3.853-5.3264 2.1962-8.1962c-1.657-2.87-5.326-3.853-8.196-2.196-2.8698 1.6568-3.853 5.3264-2.1962 8.1962zm7.732 9.3923c1.1046 1.9132 3.5509 2.5687 5.4641 1.4641s2.5687-3.5509 1.4641-5.4641c-1.104-1.913-3.551-2.568-5.464-1.464-1.9132 1.1046-2.5687 3.5509-1.4641 5.4641zm5.7321 5.9282c0.552 0.957 1.775 1.285 2.732 0.733s1.284-1.776 0.732-2.732c-0.552-0.957-1.775-1.285-2.732-0.732-0.95658 0.55228-1.2843 1.7755-0.73205 2.732z" fill="url(#linearGradient21564)" color="#000000"/>
   <path d="m19.019 44.196c2.87 1.657 6.54 0.674 8.196-2.196 1.657-2.87 0.674-6.539-2.196-8.196s-6.539-0.674-8.196 2.196c-1.6569 2.8698-0.6736 6.5393 2.1962 8.1962zm11.393 4.268c1.913 1.105 4.359 0.449 5.464-1.464 1.104-1.913 0.449-4.36-1.464-5.464-1.914-1.105-4.36-0.449-5.465 1.464-1.1046 1.9132-0.44907 4.3595 1.4641 5.4641zm7.9282 2.268c0.956 0.552 2.18 0.225 2.732-0.732s0.224-2.18-0.732-2.732c-0.957-0.552-2.18-0.225-2.732 0.732-0.55228 0.95659-0.22453 2.1798 0.73205 2.732z" fill="url(#linearGradient21566)" color="#000000"/>
   <path d="m18 60c3.3137 0 6-2.6863 6-6 0-3.314-2.686-6-6-6-3.3137 0-6 2.6863-6 6-0.000001 3.3137 2.6863 6 6 6zm12-2c2.2091 0 4-1.7909 4-4 0-2.209-1.791-4-4-4-2.2091 0-4 1.7909-4 4s1.7909 4 4 4zm8-2c1.1046 0 2-0.89543 2-2 0.000001-1.1046-0.89543-2-2-2s-2 0.89543-2 2 0.89543 2 2 2z" fill="url(#linearGradient21568)" color="#000000"/>
  </g>
  <path d="m-46.175 18.588-3.0061 7.952h6.0232l-3.0171-7.952m-1.2507-2.1298h2.5124l6.2427 15.979h-2.304l-1.4921-4.0991h-7.3837l-1.4921 4.0991h-2.3369l6.2536-15.979" fill="#4d4d4d"/>
  <path d="m-29.496 26.412c-1.5911 0-2.6935 0.18194-3.3071 0.54582-0.61362 0.3639-0.92042 0.98464-0.92042 1.8622-0.000004 0.69923 0.22832 1.2558 0.68496 1.6696 0.46377 0.4067 1.0917 0.61005 1.8836 0.61005 1.0917 0 1.9657-0.38529 2.6221-1.1559 0.66355-0.77771 0.99533-1.8087 0.99534-3.093v-0.43881h-1.9586m3.9278-0.81339v6.8389h-1.9693v-1.8194c-0.44952 0.72778-1.0096 1.2665-1.6803 1.6161-0.6707 0.34248-1.4912 0.51372-2.4616 0.51372-1.2272 0-2.2047-0.34248-2.9325-1.0274-0.72064-0.6921-1.081-1.6161-1.081-2.772-0.000001-1.3485 0.4495-2.3653 1.3485-3.0502 0.90614-0.68495 2.2547-1.0274 4.0456-1.0274h2.7613v-0.19265c-0.00001-0.90614-0.29968-1.6054-0.89901-2.0977-0.59222-0.49944-1.427-0.74916-2.5044-0.74917-0.68497 0.00001-1.3521 0.0821-2.0014 0.24615-0.64929 0.16412-1.2736 0.41028-1.8729 0.73848v-1.8194c0.72064-0.27826 1.4199-0.48517 2.0977-0.62075 0.67782-0.14269 1.3378-0.21404 1.98-0.21405 1.7338 0.00001 3.0288 0.44952 3.885 1.3485 0.85619 0.89902 1.2843 2.2618 1.2843 4.0884" fill="#4d4d4d"/>
  <g opacity="0.3" transform="matrix(1 0 0 1 12.283 -51.4)">
   <path d="m-22 48c-3.3137 0-6 2.6863-6 6s2.6863 6 6 6 6-2.6863 6-6-2.6863-6-6-6z" fill="url(#radialGradient21570)" color="#000000"/>
   <path d="m-34 50c-2.2091 0-4 1.7909-4 4s1.7909 4 4 4 4-1.7909 4-4-1.7909-4-4-4z" fill="url(#radialGradient21572)" color="#000000"/>
   <path d="m-42 52c-1.1046 0-2 0.89543-2 2s0.89543 2 2 2 2-0.89543 2-2-0.89543-2-2-2z" fill="url(#radialGradient21574)" color="#000000"/>
   <path d="m-29.019 33.804c-2.8698 1.6568-3.853 5.3264-2.1962 8.1962 1.6569 2.8698 5.3264 3.853 8.1962 2.1962s3.853-5.3264 2.1962-8.1962c-1.6569-2.8698-5.3264-3.853-8.1962-2.1962z" fill="url(#radialGradient21576)" color="#000000"/>
   <path d="m-38.412 41.536c-1.9132 1.1046-2.5687 3.5509-1.4641 5.4641s3.5509 2.5687 5.4641 1.4641 2.5687-3.5509 1.4641-5.4641-3.5509-2.5687-5.4641-1.4641z" fill="url(#radialGradient21578)" color="#000000"/>
   <path d="m-44.34 47.268c-0.95658 0.55228-1.2843 1.7755-0.73205 2.732 0.55228 0.95659 1.7755 1.2843 2.7321 0.73205 0.95658-0.55228 1.2843-1.7755 0.73205-2.732-0.55228-0.95659-1.7755-1.2843-2.7321-0.73205z" fill="url(#radialGradient21580)" color="#000000"/>
   <path d="m-42.196 25.019c-1.6569 2.8698-0.6736 6.5393 2.1962 8.1962 2.8698 1.6568 6.5393 0.6736 8.1962-2.1962s0.6736-6.5393-2.1962-8.1962-6.5393-0.67361-8.1962 2.1962z" fill="url(#radialGradient21582)" color="#000000"/>
   <path d="m-46.464 36.412c-1.1046 1.9132-0.44907 4.3595 1.4641 5.4641s4.3595 0.44907 5.4641-1.4641 0.44907-4.3595-1.4641-5.4641-4.3595-0.44907-5.4641 1.4641z" fill="url(#radialGradient21584)" color="#000000"/>
   <path d="m-48.732 44.34c-0.55228 0.95658-0.22453 2.1798 0.73205 2.732 0.95658 0.55228 2.1798 0.22453 2.7321-0.73205 0.55228-0.95659 0.22453-2.1798-0.73205-2.732-0.95658-0.55229-2.1798-0.22454-2.7321 0.73205z" fill="url(#radialGradient21586)" color="#000000"/>
   <path d="m-58 24c-0.000001 3.3137 2.6863 6 6 6s6-2.6863 6-6-2.6863-6-6-6-6 2.6863-6 6z" fill="url(#radialGradient21588)" color="#000000"/>
   <path d="m-56 36c0 2.2091 1.7909 4 4 4s4-1.7909 4-4c0-2.209-1.791-4-4-4-2.2091 0-4 1.7909-4 4z" fill="url(#radialGradient21590)" color="#000000"/>
   <path d="m-54 44c0.000001 1.1046 0.89543 2 2 2s2-0.89543 2-2-0.89543-2-2-2-2 0.89543-2 2z" fill="url(#radialGradient21592)" color="#000000"/>
   <path d="m-72.196 31.019c1.6569 2.8698 5.3264 3.853 8.1962 2.1962s3.853-5.3264 2.1962-8.1962c-1.6569-2.8698-5.3264-3.853-8.1962-2.1962s-3.853 5.3264-2.1962 8.1962z" fill="url(#radialGradient21594)" color="#000000"/>
   <path d="m-64.464 40.412c1.1046 1.9132 3.5509 2.5687 5.4641 1.4641s2.5687-3.5509 1.4641-5.4641-3.5509-2.5687-5.4641-1.4641-2.5687 3.5509-1.4641 5.4641z" fill="url(#radialGradient21596)" color="#000000"/>
   <path d="m-58.732 46.34c0.55229 0.95658 1.7755 1.2843 2.7321 0.73205 0.95658-0.55229 1.2843-1.7755 0.73205-2.732-0.552-0.957-1.775-1.285-2.732-0.732-0.95658 0.55228-1.2843 1.7755-0.73205 2.732z" fill="url(#radialGradient21598)" color="#000000"/>
   <path d="m-80.981 44.196c2.8698 1.6569 6.5393 0.67361 8.1962-2.1962s0.6736-6.5393-2.1962-8.1962-6.5393-0.67361-8.1962 2.1962-0.6736 6.5393 2.1962 8.1962z" fill="url(#radialGradient21600)" color="#000000"/>
   <path d="m-69.588 48.464c1.9132 1.1046 4.3595 0.44907 5.4641-1.4641s0.44907-4.3595-1.4641-5.4641-4.3595-0.44907-5.4641 1.4641-0.44907 4.3595 1.4641 5.4641z" fill="url(#radialGradient21602)" color="#000000"/>
   <path d="m-61.66 50.732c0.95659 0.55229 2.1798 0.22454 2.7321-0.73205 0.55228-0.95658 0.22453-2.1798-0.73205-2.732-0.95658-0.55228-2.1798-0.22454-2.7321 0.73205-0.55228 0.95659-0.22453 2.1798 0.73205 2.732z" fill="url(#radialGradient21604)" color="#000000"/>
   <path d="m-82 60c3.3137 0 6-2.6863 6-6 0-3.314-2.686-6-6-6-3.3137 0-6 2.6863-6 6-0.000001 3.3137 2.6863 6 6 6z" fill="url(#radialGradient21606)" color="#000000"/>
   <path d="m-70 58c2.2091 0 4-1.7909 4-4 0-2.209-1.791-4-4-4-2.2091 0-4 1.7909-4 4s1.7909 4 4 4z" fill="url(#radialGradient21608)" color="#000000"/>
   <path d="m-62 56c1.1046 0 2-0.89543 2-2 0.000001-1.1046-0.89543-2-2-2s-2 0.89543-2 2 0.89543 2 2 2z" fill="url(#radialGradient21610)" color="#000000"/>
  </g>
 </g>
</svg>
