<svg height="96" width="96" xmlns="http://www.w3.org/2000/svg" xmlns:xlink="http://www.w3.org/1999/xlink">
 <defs>
  <linearGradient id="linearGradient15916">
   <stop stop-color="#b4b4b4"/>
   <stop stop-color="#b4b4b4" stop-opacity="0" offset="1"/>
  </linearGradient>
  <radialGradient cy="360.77" r="21.302" xlink:href="#linearGradient15916" gradientUnits="userSpaceOnUse" id="radialGradient8416" cx="303.16" gradientTransform="matrix(0.44073 -0.24657 0.39119 0.69922 -196.61 -156.38)"/>
  <linearGradient x1="320.6" x2="293.81" xlink:href="#linearGradient15916" y1="345.4" y2="361.49" gradientUnits="userSpaceOnUse" id="linearGradient8419" gradientTransform="matrix(1 0 0 1 -224.68 -343.18)"/>
  <filter x="-0.162" y="-0.095" height="1.191" color-interpolation-filters="sRGB" id="filter3429" width="1.324">
   <feGaussianBlur stdDeviation="0.53551"/>
  </filter>
  <filter x="-0.166" y="-0.037" height="1.073" color-interpolation-filters="sRGB" id="filter3243" width="1.332">
   <feGaussianBlur stdDeviation="0.9"/>
  </filter>
  <clipPath id="clipPath3235">
   <use xlink:href="#SVGCleanerId_1"/>
  </clipPath>
  <linearGradient id="linearGradient3354-1">
   <stop stop-color="#b4b4b4"/>
   <stop stop-color="#646464" offset="0.205"/>
   <stop stop-color="#fff" offset="0.496"/>
   <stop stop-color="#3c3c3c" offset="1"/>
  </linearGradient>
  <linearGradient id="linearGradient3435">
   <stop stop-color="#ededed"/>
   <stop stop-color="#b0b0b0" offset="1"/>
  </linearGradient>
  <linearGradient x1="68.75" x2="75.25" xlink:href="#linearGradient3354-1" gradientUnits="userSpaceOnUse" id="linearGradient8452" gradientTransform="matrix(1 0 0 1 -23.713 -1.712)"/>
  <linearGradient x1="63.48" x2="79" y1="64.16" y2="65" gradientUnits="userSpaceOnUse" id="linearGradient8458" gradientTransform="matrix(1 0 0 1 -23.713 -0.712)">
   <stop stop-color="#a2a2a2"/>
   <stop stop-color="#fff" offset="1"/>
  </linearGradient>
  <linearGradient x1="68.03" x2="75.971" xlink:href="#linearGradient3435" gradientUnits="userSpaceOnUse" id="linearGradient8460" gradientTransform="matrix(1 0 0 1 -23.713 -2.712)"/>
  <linearGradient x1="68.969" x2="75.06" xlink:href="#linearGradient3435" gradientUnits="userSpaceOnUse" id="linearGradient8462" gradientTransform="matrix(-1 0 0 1 120.32 -2.712)"/>
  <linearGradient x1="68.75" x2="72.25" xlink:href="#linearGradient3354-1" gradientUnits="userSpaceOnUse" id="linearGradient8464" gradientTransform="matrix(1.1263 0 0 1 -31.11 -50.21)"/>
  <linearGradient x1="69" x2="73" gradientUnits="userSpaceOnUse" id="linearGradient8096" gradientTransform="matrix(1 0 0 1 -23.713 -1.712)">
   <stop stop-color="#fff"/>
   <stop stop-color="#8c8c8c" offset="0.49"/>
   <stop stop-color="#cfcfcf" offset="0.5"/>
   <stop stop-color="#fff" offset="0.623"/>
   <stop stop-color="#c8c8c8" offset="0.817"/>
   <stop stop-color="#505050" offset="1"/>
  </linearGradient>
  <linearGradient x1="69" x2="73" gradientUnits="userSpaceOnUse" id="linearGradient8098" gradientTransform="matrix(-1 0 0 1 120.29 -4.712)">
   <stop stop-color="#2f2f2f"/>
   <stop stop-color="#fff" offset="0.437"/>
   <stop stop-color="#979797" offset="0.621"/>
   <stop stop-color="#505050" offset="0.772"/>
   <stop stop-color="#e6e6e6" offset="1"/>
  </linearGradient>
  <clipPath id="clipPath3353">
   <path d="m7.0312 60.094c-2.216 0-4 1.784-4 4v45.281c0 2.216 1.784 4 4 4h55.375c2.216 0 4-1.784 4-4v-45.281c0-2.216-1.784-4-4-4h-55.375zm10.969 19.906h4.9062c0.37735 0.000014 0.72287 0.02478 1.0625 0.0625 0.33962 0.03775 0.67943 0.12423 0.96875 0.25 0.30188 0.1258 0.56092 0.29227 0.8125 0.53125 0.25156 0.22643 0.46756 0.54758 0.65625 0.9375 0.31446 0.64152 0.46874 1.3265 0.46875 2.0938-0.00001 0.98114-0.24077 1.796-0.71875 2.4375-0.46542 0.62894-1.1195 1.0735-2 1.3125 0.40251 0.32705 0.73584 0.69124 1 1.0938 0.27672 0.38994 0.52358 0.80975 0.75 1.25l2.032 4.031h-2.219c-0.0629-0.12579-0.16157-0.35436-0.3125-0.65625-0.15095-0.30189-0.34867-0.62264-0.5625-1-0.202-0.39-0.418-0.791-0.656-1.219-0.227-0.44-0.462-0.873-0.688-1.25-0.22642-0.38993-0.42375-0.71069-0.625-1-0.20126-0.30188-0.39289-0.51179-0.53125-0.625-0.21384-0.1761-0.40508-0.27476-0.59375-0.3125-0.1761-0.05031-0.41687-0.09374-0.71875-0.09375h-1.2188v6.1562h-1.812v-14zm15.781 0h1.8125l4.5312 14h-2.0625l-1.25-4.125h-4.125l-1.187 4.125h-1.9688l4.25-14zm8.219 0h4.9062c0.37735 0.000014 0.75412 0.02478 1.0938 0.0625 0.33962 0.03775 0.64819 0.12423 0.9375 0.25 0.30188 0.1258 0.56092 0.29227 0.8125 0.53125 0.25156 0.22643 0.46756 0.54758 0.65625 0.9375 0.31446 0.64152 0.49999 1.3265 0.5 2.0938-0.00001 0.98114-0.24077 1.796-0.71875 2.4375-0.46542 0.62894-1.1508 1.0735-2.0312 1.3125 0.40251 0.32705 0.73584 0.69124 1 1.0938 0.27672 0.38994 0.52358 0.80975 0.75 1.25l2.032 4.031h-2.219c-0.0629-0.12579-0.16156-0.35436-0.3125-0.65625-0.15095-0.30189-0.34867-0.62264-0.5625-1-0.202-0.39-0.418-0.791-0.656-1.219-0.227-0.44-0.462-0.873-0.688-1.25-0.22642-0.38993-0.42375-0.71069-0.625-1-0.20126-0.30188-0.36164-0.51179-0.5-0.625-0.21384-0.1761-0.43633-0.27476-0.625-0.3125-0.1761-0.05031-0.41687-0.09374-0.71875-0.09375h-1.2188v6.1562h-1.812v-14zm-22.156 1.6875v4.4062h2.8125c0.77987 0.000007 1.3662-0.16037 1.7812-0.5 0.42766-0.35219 0.65624-0.92629 0.65625-1.7188-0.000008-0.69181-0.17906-1.2476-0.53125-1.625-0.352-0.377-0.87-0.562-1.562-0.562h-3.1562zm24 0v4.4062h2.8125c0.77987 0.000007 1.3974-0.16037 1.8125-0.5 0.42766-0.35219 0.62499-0.92629 0.625-1.7188-0.000008-0.69181-0.17906-1.2476-0.53125-1.625-0.352-0.377-0.87-0.562-1.562-0.562h-3.1562zm-9.1562 1.1562c-0.18868 0.90567-0.3921 1.7883-0.65625 2.6562-0.26416 0.85535-0.54835 1.7258-0.8125 2.5938h3c-0.252-0.868-0.505-1.726-0.781-2.594-0.26416-0.86792-0.52359-1.7632-0.75-2.6562z"/>
  </clipPath>
  <linearGradient x2="0" y1="74" y2="5.833" gradientUnits="userSpaceOnUse" id="linearGradient64769" gradientTransform="matrix(1.1298 0 0 1.4431 -4.771 -10.01)">
   <stop stop-color="#853798"/>
   <stop stop-color="#c78bd5" offset="1"/>
  </linearGradient>
  <path d="m18 80v14h1.8125v-6.1562h1.2188c0.30188 0.000005 0.54264 0.04344 0.71875 0.09375 0.18867 0.03774 0.37991 0.1364 0.59375 0.3125 0.13836 0.11321 0.32999 0.32312 0.53125 0.625 0.20125 0.28931 0.39858 0.61007 0.625 1 0.22641 0.37736 0.46108 0.80975 0.6875 1.25 0.23899 0.42768 0.45498 0.82881 0.65625 1.2188 0.21383 0.37736 0.41155 0.69811 0.5625 1 0.15093 0.30188 0.2496 0.53046 0.3125 0.65625h2.2188l-2.0312-4.0312c-0.22642-0.44025-0.47328-0.86006-0.75-1.25-0.26416-0.40251-0.59749-0.7667-1-1.0938 0.88049-0.23899 1.5346-0.68356 2-1.3125 0.47798-0.6415 0.71874-1.4564 0.71875-2.4375-0.000009-0.76728-0.15429-1.4522-0.46875-2.0938-0.189-0.39-0.405-0.711-0.657-0.937-0.252-0.239-0.511-0.406-0.812-0.532-0.29-0.125-0.63-0.212-0.969-0.25-0.34-0.037-0.685-0.062-1.063-0.062h-4.906zm15.781 0-4.25 14h1.9688l1.1875-4.125h4.125l1.25 4.125h2.0625l-4.5312-14h-1.8125zm8.219 0v14h1.8125v-6.1562h1.2188c0.30188 0.000005 0.54264 0.04344 0.71875 0.09375 0.18867 0.03774 0.41116 0.1364 0.625 0.3125 0.13836 0.11321 0.29874 0.32312 0.5 0.625 0.20125 0.28931 0.39858 0.61007 0.625 1 0.22641 0.37736 0.46108 0.80975 0.6875 1.25 0.23899 0.42768 0.45498 0.82881 0.65625 1.2188 0.21383 0.37736 0.41155 0.69811 0.5625 1 0.15094 0.30188 0.2496 0.53046 0.3125 0.65625h2.2188l-2.0312-4.0312c-0.22642-0.44025-0.47328-0.86006-0.75-1.25-0.26416-0.40251-0.59749-0.7667-1-1.0938 0.88049-0.23899 1.5658-0.68356 2.0312-1.3125 0.47798-0.6415 0.71874-1.4564 0.71875-2.4375-0.000009-0.76728-0.18554-1.4522-0.5-2.0938-0.189-0.39-0.405-0.711-0.657-0.937-0.252-0.239-0.511-0.406-0.812-0.532-0.29-0.125-0.598-0.212-0.938-0.25-0.34-0.037-0.716-0.062-1.094-0.062h-4.906zm-22.156 1.6875h3.1562c0.69182 0.000012 1.2103 0.18515 1.5625 0.5625 0.35219 0.37737 0.53124 0.93319 0.53125 1.625-0.000008 0.79246-0.22858 1.3666-0.65625 1.7188-0.4151 0.33963-1.0014 0.50001-1.7812 0.5h-2.8125v-4.4062zm24 0h3.1562c0.69182 0.000012 1.2103 0.18515 1.5625 0.5625 0.3522 0.37737 0.53124 0.93319 0.53125 1.625-0.000006 0.79246-0.19734 1.3666-0.625 1.7188-0.4151 0.33963-1.0326 0.50001-1.8125 0.5h-2.8125v-4.4062zm-9.1562 1.1562c0.22641 0.89309 0.48584 1.7883 0.75 2.6562 0.27672 0.86793 0.52967 1.7258 0.78125 2.5938h-3c0.26415-0.86792 0.54834-1.7384 0.8125-2.5938 0.26415-0.86792 0.46757-1.7506 0.65625-2.6562z" clip-path="url(#clipPath3353)" fill="none" stroke="#fff" id="SVGCleanerId_0"/>
  <path d="m66 6v55c0 1.662 1.338 3 3 3h6c1.662 0 3-1.338 3-3v-55h-4v2h-4v-2h-4z" id="SVGCleanerId_1"/>
 </defs>
 <path d="m16.059 3.1081c-7.049 0-12.719 5.6697-12.719 12.719v64.531c0 7.049 5.6697 12.719 12.719 12.719h64.188c7.049 0 12.719-5.6697 12.719-12.719v-35.013c-0.0367-3.8222-0.0417-6.3452-1.8012-9.5856l-16.206-29.842c-1.0788-1.8835-2.0313-2.8088-5.1346-2.8088z" fill-opacity="0.02"/>
 <path d="m16.497 3.7018c-6.9538 0-12.531 5.6087-12.531 12.562v63.656c0 6.9538 5.5775 12.531 12.531 12.531h63.312c6.9538 0 12.562-5.5775 12.562-12.531v-34.607c-0.0741-3.7145-0.0646-6.1373-1.775-9.2846l-16.222-29.849c-0.90306-1.708-1.7952-2.4773-4.5338-2.4773z" fill-opacity="0.039"/>
 <path d="m16.934 4.3268c-6.8585 0-12.375 5.5165-12.375 12.375v62.781c0 6.8585 5.5165 12.375 12.375 12.375h62.438c6.8585 0 12.375-5.5165 12.375-12.375v-34.169c-0.0596-3.6037-0.0554-5.964-1.7158-9.0186l-16.222-29.842c-0.57824-1.2184-1.5501-2.1266-3.906-2.1266z" fill-opacity="0.078"/>
 <path d="m17.372 4.9206c-6.7632 0-12.219 5.4555-12.219 12.219v61.906c0 6.7632 5.4555 12.219 12.219 12.219h61.562c6.7632 0 12.219-5.4555 12.219-12.219v-33.794c-0.0346-3.5165-0.0841-5.7358-1.6885-8.6896l-16.237-29.895c-0.43675-0.77203-1.3586-1.7467-3.3394-1.7467z" fill-opacity="0.157"/>
 <path d="m17.75 5.5c-6.642 0-11.969 5.395-11.969 12.062l0.0002 61.032c0 6.668 5.3268 12.031 11.969 12.031h60.812c6.642 0 11.969-5.363 11.969-12.031l-0.062-33.438c-0.073-3.385-0.114-5.47-1.657-8.312l-16.281-29.969c-0.544-0.7692-1.558-1.3406-2.625-1.375h-52.156z" fill="url(#linearGradient64769)"/>
 <path d="m5.7709 77.595v1.0133c0 6.668 5.3434 12.032 11.985 12.032h60.809c6.6418 0 11.985-5.3645 11.985-12.032v-1.0133c0 6.6681-5.3434 12.032-11.985 12.032h-60.809c-6.6418 0-11.985-5.3644-11.985-12.032z" fill-opacity="0.098"/>
 <path d="m57.817 5.6171v85.125h20.906c6.6418 0 11.969-5.3632 11.969-12.031v-61.031c0-0.92374-0.1187-1.7923-0.3125-2.6562 0.15863 0.78565 0.25 1.604 0.25 2.4375v27.812c-0.0731-3.3855-0.11339-5.4702-1.6562-8.3125l-16.282-29.968c-0.53945-0.76243-1.3896-1.1622-2.5938-1.375h-12.281z" fill="url(#linearGradient8419)"/>
 <path d="m71.473 4.4296c-7.4721 3.35-12.688 10.913-12.688 19.719 0 11.911 9.5167 21.562 21.281 21.562 4.3866 0 8.4555-1.3551 11.844-3.6562l-20.437-37.625z" stroke-width="0.1" fill="url(#radialGradient8416)"/>
 <path d="m72.4 6.5777c-0.341-0.3041-0.564-0.3884-0.564-0.3884s0.83487 0.58215-0.16423 2.3199c-3.6996 5.3693-2.6956 12.724 2.4663 16.827l13.888 11.014c0.78033 0.57546 0.96083 0.84746 1.2481 1.2895z" fill="#ccc"/>
 <path d="m72.648 6.9456c-0.26811-0.37128-0.48292-0.5133-0.48292-0.5133s0.74441 0.70007-0.21905 2.3758c-3.5676 5.1777-2.5994 12.27 2.3783 16.227l13.393 10.621c0.75249 0.55493 0.92655 0.81722 1.2036 1.2435z" fill="#fff"/>
 <g transform="matrix(1.1658 0 0 1.1658 -7.419 -0.876)">
  <path d="m42.287 5.2878v55c0 1.662 1.338 3 3 3h6c1.662 0 3-1.338 3-3v-55h-4v2h-4v-2h-4z" fill="#252525"/>
  <rect x="46.29" y="7.288" fill="#4d4d4d" height="49" width="4"/>
  <rect stroke-opacity="0.564" x="45.29" stroke-width="0.5" rx="1" y="55.29" fill="url(#linearGradient8452)" stroke="#000" height="4" width="6" stroke-linecap="square"/>
  <use stroke-width="2" xlink:href="#SVGCleanerId_1" clip-path="url(#clipPath3235)" fill="none" stroke="#000" filter="url(#filter3243)" stroke-linecap="square" transform="matrix(1 0 0 1 -23.713 -0.712)"/>
  <path stroke-opacity="0.564" d="m45.787 50.288c-0.26977 0-0.5 0.21796-0.5 0.5v3c0 0.28204 0.23023 0.5 0.5 0.5h1c0.26977 0 0.5-0.21796 0.5-0.5v-0.5h1.5c0.277 0 0.5-0.223 0.5-0.5v-1c0-0.277-0.223-0.5-0.5-0.5h-1.5v-0.5c0-0.28204-0.23023-0.5-0.5-0.5h-1z" stroke-width="0.5" fill="url(#linearGradient8096)" stroke="#000" id="rect3249" stroke-linecap="square"/>
  <use xlink:href="#rect3249" height="96" id="use3308" width="96" transform="matrix(1 0 0 1 0 -6)"/>
  <use xlink:href="#use3308" height="96" id="use3310" width="96" transform="matrix(1 0 0 1 0 -6)"/>
  <use xlink:href="#use3310" height="96" id="use3312" width="96" transform="matrix(1 0 0 1 0 -6)"/>
  <use xlink:href="#use3312" height="96" id="use3314" width="96" transform="matrix(1 0 0 1 0 -6)"/>
  <use xlink:href="#use3314" height="96" id="use3316" width="96" transform="matrix(1 0 0 1 0 -6)"/>
  <use xlink:href="#use3316" height="96" id="use3318" width="96" transform="matrix(1 0 0 1 0 -6)"/>
  <use xlink:href="#use3318" height="96" width="96" transform="matrix(1 0 0 1 0 -6)"/>
  <path stroke-opacity="0.564" d="m50.787 47.288c0.26977 0 0.5 0.21796 0.5 0.5v3c0 0.28204-0.23023 0.5-0.5 0.5h-1c-0.26977 0-0.5-0.21796-0.5-0.5v-0.5h-1.5c-0.277 0-0.5-0.223-0.5-0.5v-1c0-0.277 0.223-0.5 0.5-0.5h1.5v-0.5c0-0.28204 0.23023-0.5 0.5-0.5h1z" stroke-width="0.5" fill="url(#linearGradient8098)" stroke="#000" id="path3322" stroke-linecap="square"/>
  <use xlink:href="#path3322" height="96" id="use3340" width="96" transform="matrix(1 0 0 1 0 -6)"/>
  <use xlink:href="#use3340" height="96" id="use3342" width="96" transform="matrix(1 0 0 1 0 -6)"/>
  <use xlink:href="#use3342" height="96" id="use3344" width="96" transform="matrix(1 0 0 1 0 -6)"/>
  <use xlink:href="#use3344" height="96" id="use3346" width="96" transform="matrix(1 0 0 1 0 -6)"/>
  <use xlink:href="#use3346" height="96" id="use3348" width="96" transform="matrix(1 0 0 1 0 -6)"/>
  <use xlink:href="#use3348" height="96" width="96" transform="matrix(1 0 0 1 0 -6)"/>
  <path d="m41.287 5.2878v55c0 2.2023 1.7977 4 4 4h6c2.2023 0 4-1.7977 4-4v-55h-1v55c0 1.662-1.338 3-3 3h-6c-1.662 0-3-1.338-3-3v-55h-1z" fill="url(#linearGradient8458)"/>
  <path stroke-opacity="0.564" d="m45.787 7.8191c-1.0277 0-1.9688 0.7652-1.9688 1.8125v10.812c-0.000005 1.0473 0.91808 1.8438 1.9688 1.8438h5c1.0507 0 1.9688-0.79645 1.9688-1.8438v-10.812c-0.000003-1.0473-0.94105-1.8125-1.9688-1.8125h-5zm1.0625 9.0625h2.875v1.75h-2.875v-1.75z" stroke-width="0.5" stroke="#000" filter="url(#filter3429)" stroke-linecap="square"/>
  <path d="m45.516 8.3092c-0.68714 0-1.2292 0.48237-1.2292 1.0815l-0.0051 10.815c0.000022 0.59918 0.54213 1.0815 1.2293 1.0815h5.5832c0.68714 0 1.2292-0.48237 1.2292-1.0815l0.0051-10.815c0-0.59918-0.54211-1.0815-1.2292-1.0815h-5.5832zm0.7043 7.9496h4.1013v3.1184h-4.1013v-3.1184z" fill="url(#linearGradient8460)"/>
  <path d="m50.849 9.2566c0.277 0 0.5 0.223 0.5 0.5v10.062c0 0.277-0.223 0.5-0.5 0.5h-5.0938c-0.277 0-0.5-0.223-0.5-0.5v-10.062c0-0.277 0.223-0.5 0.5-0.5h5.0938zm-0.4375 6.9687h-4.125v3.125h4.125v-3.125z" fill="url(#linearGradient8462)"/>
  <rect stroke-opacity="0.564" x="46.597" rx="0.563" ry="0.5" y="6.788" fill="url(#linearGradient8464)" stroke="#000" height="5" width="3.379" stroke-linecap="square"/>
  <rect x="46.27" y="15.288" height="1" opacity="0.3" width="4"/>
 </g>
 <use stroke-width="6" xlink:href="#SVGCleanerId_0" opacity="0.05" transform="matrix(0.79834 0 0 0.79834 -3.843 -49.37)"/>
 <use stroke-width="4" xlink:href="#SVGCleanerId_0" opacity="0.08" transform="matrix(0.79834 0 0 0.79834 -3.843 -49.37)"/>
 <use stroke-width="2" xlink:href="#SVGCleanerId_0" opacity="0.15" transform="matrix(0.79834 0 0 0.79834 -3.843 -49.37)"/>
 <path d="m10.527 14.494v11.177h1.447v-4.9148h0.97298c0.241 0.000004 0.43321 0.03468 0.57381 0.07484 0.15062 0.03013 0.3033 0.1089 0.47401 0.24948 0.11046 0.09038 0.26344 0.25796 0.42412 0.49896 0.16066 0.23097 0.3182 0.48704 0.49896 0.79834 0.18075 0.30126 0.3681 0.64646 0.54886 0.99792 0.1908 0.34143 0.36323 0.66168 0.52391 0.97298 0.17071 0.30126 0.32856 0.55733 0.44907 0.79834 0.12049 0.24101 0.19926 0.42349 0.24948 0.52391h1.7713l-1.6216-3.2183c-0.18077-0.35147-0.37784-0.68662-0.59875-0.99792-0.21089-0.32134-0.477-0.61209-0.79834-0.87318 0.70293-0.19079 1.2251-0.54572 1.5967-1.0478 0.38159-0.51214 0.5738-1.1627 0.57381-1.946-0.000008-0.61255-0.12318-1.1594-0.37422-1.6715-0.15064-0.31129-0.32308-0.56768-0.52391-0.74844-0.20085-0.19079-0.40765-0.32369-0.64865-0.42412-0.23098-0.10041-0.50227-0.16945-0.77339-0.19958-0.27114-0.03011-0.54698-0.04989-0.84824-0.0499h-3.9169zm12.599 0-3.3929 11.177h1.5717l0.94803-3.2931h3.2932l0.99792 3.2931h1.6466l-3.6175-11.177h-1.447zm6.5614 0v11.177h1.447v-4.9148h0.97298c0.241 0.000004 0.43321 0.03468 0.57381 0.07484 0.15062 0.03013 0.32824 0.1089 0.49896 0.24948 0.11046 0.09038 0.2385 0.25796 0.39917 0.49896 0.16066 0.23097 0.3182 0.48704 0.49896 0.79834 0.18075 0.30126 0.3681 0.64646 0.54886 0.99792 0.1908 0.34143 0.36323 0.66168 0.52391 0.97298 0.17071 0.30126 0.32856 0.55733 0.44907 0.79834 0.1205 0.24101 0.19926 0.42349 0.24948 0.52391h1.7713l-1.6216-3.2183c-0.18076-0.35147-0.37784-0.68662-0.59875-0.99792-0.21089-0.32134-0.477-0.61209-0.79834-0.87318 0.70293-0.19079 1.2501-0.54572 1.6216-1.0478 0.38159-0.51214 0.5738-1.1627 0.57381-1.946-0.000008-0.61255-0.14812-1.1594-0.39917-1.6715-0.15064-0.31129-0.32308-0.56768-0.52391-0.74844-0.20085-0.19079-0.40765-0.32369-0.64865-0.42412-0.23097-0.10041-0.47732-0.16945-0.74844-0.19958-0.27114-0.03011-0.57193-0.04989-0.87318-0.0499h-3.9169zm-17.688 1.3472h2.5198c0.55231 0.00001 0.96622 0.14782 1.2474 0.44907 0.28117 0.30127 0.42411 0.745 0.42412 1.2973-0.000008 0.63265-0.18249 1.091-0.52391 1.3721-0.33139 0.27114-0.79944 0.39918-1.422 0.39917h-2.2453v-3.5177zm19.16 0h2.5198c0.55231 0.00001 0.96622 0.14782 1.2474 0.44907 0.28117 0.30127 0.42411 0.745 0.42412 1.2973-0.000008 0.63265-0.15754 1.091-0.49896 1.3721-0.33139 0.27114-0.82439 0.39918-1.447 0.39917h-2.2453v-3.5177zm-7.3098 0.92308c0.18075 0.71299 0.38786 1.4277 0.59875 2.1206 0.22092 0.6929 0.42286 1.3778 0.6237 2.0707h-2.395c0.21088-0.69289 0.43776-1.3878 0.64865-2.0707 0.21088-0.69289 0.37328-1.3976 0.52391-2.1206z" fill="#43134e"/>
 <path d="m10.527 14.494v0.79834h3.9169c0.30125 0.000011 0.5771 0.01978 0.84824 0.0499 0.27112 0.03014 0.54242 0.09918 0.77339 0.19958 0.241 0.10043 0.4478 0.23333 0.64865 0.42412 0.20083 0.18077 0.37327 0.43715 0.52391 0.74844 0.18828 0.38411 0.30286 0.78624 0.34927 1.2225 0.0089-0.11316 0.02499-0.22993 0.02499-0.34927-0.000008-0.61255-0.12318-1.1594-0.37422-1.6715-0.15064-0.31129-0.32308-0.56768-0.52391-0.74844-0.20085-0.19079-0.40765-0.32369-0.64865-0.42412-0.23098-0.10041-0.50227-0.16945-0.77339-0.19958-0.27114-0.03011-0.54698-0.04989-0.84824-0.0499h-3.9169zm12.599 0-3.3929 11.177h0.24948l3.1435-10.378h1.447l3.368 10.378h0.24948l-3.6175-11.177h-1.447zm6.5614 0v0.79834h3.9169c0.30125 0.000011 0.60204 0.01978 0.87318 0.0499 0.27112 0.03014 0.51748 0.09918 0.74844 0.19958 0.241 0.10043 0.4478 0.23333 0.64865 0.42412 0.20083 0.18077 0.37327 0.43715 0.52391 0.74844 0.18828 0.38411 0.32079 0.78624 0.37422 1.2225 0.0089-0.11316 0.02499-0.22993 0.02499-0.34927-0.000008-0.61255-0.14812-1.1594-0.39917-1.6715-0.15-0.311-0.323-0.568-0.524-0.749-0.2-0.19-0.407-0.323-0.648-0.424-0.231-0.1-0.478-0.169-0.749-0.199-0.27114-0.03011-0.57193-0.04989-0.87318-0.0499h-3.9169zm-13.522 3.5426c-0.0673 0.40898-0.2429 0.7122-0.49896 0.92308-0.33139 0.27114-0.79944 0.39918-1.422 0.39917h-2.2453v0.79834h2.2453c0.6226 0.000005 1.0907-0.12803 1.422-0.39917 0.34142-0.28117 0.5239-0.73949 0.52391-1.3721 0-0.12088-0.01134-0.23915-0.02499-0.34927zm19.16 0c-0.06028 0.40898-0.21795 0.7122-0.47401 0.92308-0.33139 0.27114-0.82439 0.39918-1.447 0.39917h-2.2453v0.79834h2.2453c0.6226 0.000005 1.1156-0.12803 1.447-0.39917 0.34142-0.28117 0.49895-0.73949 0.49896-1.3721 0-0.12088-0.01134-0.23915-0.02499-0.34927zm-12.399 2.9189c-0.08421 0.26688-0.16819 0.53126-0.24948 0.79834h2.395c-0.078-0.268-0.171-0.532-0.25-0.799h-1.8961zm-6.9106 0.19958c-0.17749 0.08503-0.3653 0.16794-0.57381 0.22453 0.32134 0.2611 0.58745 0.55184 0.79834 0.87318 0.22092 0.31131 0.41799 0.64646 0.59875 0.99792l1.2225 2.42h0.39917l-1.6216-3.2183c-0.18077-0.35147-0.37784-0.68662-0.59875-0.99792-0.06938-0.10567-0.14324-0.20029-0.22453-0.29938zm19.16 0c-0.18058 0.08503-0.3653 0.16794-0.57381 0.22453 0.32134 0.2611 0.58745 0.55184 0.79834 0.87318 0.22092 0.31131 0.41799 0.64646 0.59875 0.99792l1.2225 2.42h0.39917l-1.6216-3.2183c-0.18076-0.35147-0.37784-0.68662-0.59875-0.99792-0.06938-0.10567-0.14324-0.20029-0.22453-0.29938z" opacity="0.4"/>
</svg>
