<svg height="96" width="96" xmlns="http://www.w3.org/2000/svg" xmlns:xlink="http://www.w3.org/1999/xlink">
 <defs>
  <linearGradient x2="0" y1="20.221" y2="138.66" gradientUnits="userSpaceOnUse" id="linearGradient11029">
   <stop stop-color="#fff"/>
   <stop stop-color="#fff" stop-opacity="0" offset="1"/>
  </linearGradient>
  <linearGradient id="linearGradient15916">
   <stop stop-color="#b4b4b4"/>
   <stop stop-color="#b4b4b4" stop-opacity="0" offset="1"/>
  </linearGradient>
  <linearGradient x1="320.6" x2="293.81" xlink:href="#linearGradient15916" y1="345.4" y2="361.49" gradientUnits="userSpaceOnUse" id="linearGradient16007" gradientTransform="matrix(1 0 0 1 -224.93 -343.08)"/>
  <radialGradient cy="360.77" r="21.302" xlink:href="#linearGradient15916" gradientUnits="userSpaceOnUse" id="radialGradient16049" cx="303.16" gradientTransform="matrix(0.44073 -0.24657 0.39119 0.69922 -196.87 -156.28)"/>
  <linearGradient x2="0" y1="90" y2="5.988" gradientUnits="userSpaceOnUse" id="linearGradient40283" gradientTransform="matrix(1.0959 0 0 1.0685 -4.442 -3.204)">
   <stop stop-color="#ebebeb"/>
   <stop stop-color="#fafafa" offset="1"/>
  </linearGradient>
  <radialGradient cy="48" r="27" gradientUnits="userSpaceOnUse" id="radialGradient4046" cx="48" gradientTransform="matrix(0.88889 0 0 -0.88889 5.333 90.67)">
   <stop stop-opacity="0"/>
   <stop stop-opacity="0" offset="0.874"/>
   <stop offset="1"/>
  </radialGradient>
  <linearGradient x1="35.06" x2="59.08" gradientUnits="userSpaceOnUse" id="linearGradient3987-6">
   <stop stop-color="#b4b4b4"/>
   <stop stop-color="#787878" offset="0.5"/>
   <stop stop-color="#b4b4b4" offset="1"/>
  </linearGradient>
  <linearGradient x1="27.02" x2="94.36" xlink:href="#linearGradient3737-7-7" gradientUnits="userSpaceOnUse" id="linearGradient4050"/>
  <filter x="-0.086" y="-0.109" height="1.217" color-interpolation-filters="sRGB" id="filter4021" width="1.172">
   <feGaussianBlur stdDeviation="2.35582"/>
  </filter>
  <clipPath id="clipPath4009">
   <use xlink:href="#SVGCleanerId_0" transform="matrix(1.4146 -0.81671 0.81671 1.4146 -56.16 21.859)"/>
  </clipPath>
  <linearGradient x1="27.02" x2="67.43" gradientUnits="userSpaceOnUse" id="linearGradient3960">
   <stop stop-color="#1a1a1a"/>
   <stop stop-color="#3a3a3a" offset="1"/>
  </linearGradient>
  <linearGradient x2="0" y1="27.99" y2="65.948" gradientUnits="userSpaceOnUse" id="linearGradient3855" gradientTransform="matrix(0.64024 0 0 0.64024 17.765 18.712)">
   <stop stop-color="#ccc"/>
   <stop stop-color="#969696" offset="1"/>
  </linearGradient>
  <radialGradient cy="45.745" r="20.2" gradientUnits="userSpaceOnUse" id="radialGradient3838" cx="47.23">
   <stop stop-opacity="0"/>
   <stop offset="0.828"/>
   <stop stop-opacity="0" offset="1"/>
  </radialGradient>
  <linearGradient x2="0" y1="37.15" y2="65.948" gradientUnits="userSpaceOnUse" id="linearGradient4126">
   <stop stop-color="#fff"/>
   <stop stop-color="#989898" offset="1"/>
  </linearGradient>
  <linearGradient x1="36" x2="60" xlink:href="#linearGradient11029" gradientUnits="userSpaceOnUse" id="linearGradient4170" gradientTransform="matrix(0.7838 0 0 0.7838 10.378 10.378)"/>
  <linearGradient x1="41.469" x2="54.53" gradientUnits="userSpaceOnUse" id="linearGradient3836" gradientTransform="matrix(0 1.4372 -1.4372 0 116.99 -20.986)">
   <stop stop-color="#fff"/>
   <stop stop-color="#3a3a3a" offset="1"/>
  </linearGradient>
  <linearGradient xlink:href="#linearGradient11029" id="linearGradient3737-7-7"/>
  <linearGradient x1="41.713" x2="53.53" xlink:href="#linearGradient3737-7-7" y1="36.09" y2="59.906" gradientUnits="userSpaceOnUse" id="linearGradient4262-7" gradientTransform="matrix(0.7838 0 0 0.7838 10.378 10.378)"/>
  <path d="m67.428 45.745a20.203 20.203 0 1 1 -40.406 0 20.203 20.203 0 1 1 40.406 0z" id="SVGCleanerId_0"/>
  <path d="m42.75 25.594-1.4062 0.375 0.78125 2.9062c0.46064-0.14154 0.9321-0.23525 1.4062-0.34375l-0.781-2.937zm16.125 2.125-1.5 2.625c0.42476 0.22615 0.84418 0.46355 1.25 0.71875l1.5-2.625-1.25-0.71875zm-30.438 8.1562-0.71875 1.25 2.625 1.5c0.22615-0.42476 0.46355-0.84418 0.71875-1.25l-2.625-1.5zm41.594 5.469-2.906 0.781c0.14154 0.46064 0.23525 0.9321 0.34375 1.4062l2.9375-0.78125-0.375-1.4062zm-41.5 11.125-2.9375 0.78125 0.375 1.4062l2.906-0.781c-0.14154-0.46064-0.23525-0.9321-0.34375-1.4062zm37.125 4.9062c-0.22615 0.42476-0.46355 0.84418-0.71875 1.25l2.625 1.5 0.71875-1.25-2.625-1.5zm-28.281 7.5625-1.5 2.625 1.25 0.71875 1.5-2.625c-0.42476-0.22615-0.84418-0.46355-1.25-0.71875zm16.5 2.1875c-0.46064 0.14154-0.9321 0.23525-1.4062 0.34375l0.78125 2.9375 1.4062-0.375-0.781-2.907z" fill="#fff" id="SVGCleanerId_1" opacity="0.3"/>
  <path d="m67.428 45.745a20.203 20.203 0 0 1 -5.918 14.286l-14.285-14.286z" id="SVGCleanerId_3"/>
 </defs>
 <path d="m16.059 3.1081c-7.049 0-12.719 5.6697-12.719 12.719v64.531c0 7.049 5.6697 12.719 12.719 12.719h64.188c7.049 0 12.719-5.6697 12.719-12.719v-35.013c-0.0367-3.8222-0.0417-6.3452-1.8012-9.5856l-16.206-29.842c-1.0788-1.8835-2.0313-2.8088-5.1346-2.8088z" fill-opacity="0.02"/>
 <path d="m16.497 3.7018c-6.9538 0-12.531 5.6087-12.531 12.562v63.656c0 6.9538 5.5775 12.531 12.531 12.531h63.312c6.9538 0 12.562-5.5775 12.562-12.531v-34.607c-0.0741-3.7145-0.0646-6.1373-1.775-9.2846l-16.222-29.849c-0.90306-1.708-1.7952-2.4773-4.5338-2.4773z" fill-opacity="0.039"/>
 <path d="m16.934 4.3268c-6.8585 0-12.375 5.5165-12.375 12.375v62.781c0 6.8585 5.5165 12.375 12.375 12.375h62.438c6.8585 0 12.375-5.5165 12.375-12.375v-34.169c-0.0596-3.6037-0.0554-5.964-1.7158-9.0186l-16.222-29.842c-0.57824-1.2184-1.5501-2.1266-3.906-2.1266z" fill-opacity="0.078"/>
 <path d="m17.372 4.9206c-6.7632 0-12.219 5.4555-12.219 12.219v61.906c0 6.7632 5.4555 12.219 12.219 12.219h61.562c6.7632 0 12.219-5.4555 12.219-12.219v-33.794c-0.0346-3.5165-0.0841-5.7358-1.6885-8.6896l-16.237-29.895c-0.43675-0.77203-1.3586-1.7467-3.3394-1.7467z" fill-opacity="0.157"/>
 <path d="m17.747 5.5143c-6.6418 0-11.969 5.3946-11.969 12.062v61.031c0 6.668 5.327 12.031 11.969 12.031h60.812c6.6418 0 11.969-5.3632 11.969-12.031l-0.06253-33.438c-0.07313-3.3855-0.11339-5.4702-1.6563-8.3125l-16.281-29.967c-0.544-0.7689-1.558-1.3403-2.625-1.3747z" fill="url(#linearGradient40283)"/>
 <path d="m5.7709 77.595v1.0133c0 6.668 5.3434 12.032 11.985 12.032h60.809c6.6418 0 11.985-5.3645 11.985-12.032v-1.0133c0 6.6681-5.3434 12.032-11.985 12.032h-60.809c-6.6418 0-11.985-5.3644-11.985-12.032z" fill-opacity="0.098"/>
 <path d="m57.562 5.7188v85.125h20.907c6.642 0 11.969-5.364 11.969-12.032v-61.031c0-0.923-0.119-1.792-0.313-2.656 0.159 0.786 0.25 1.604 0.25 2.437v27.813c-0.073-3.385-0.113-5.47-1.656-8.313l-16.281-29.968c-0.54-0.7627-1.39-1.1624-2.594-1.3752h-12.282z" fill="url(#linearGradient16007)"/>
 <path d="m71.219 4.5312c-7.472 3.35-12.688 10.913-12.688 19.719 0 11.911 9.517 21.562 21.281 21.562 4.387 0 8.456-1.355 11.844-3.656l-20.437-37.625z" stroke-width="0.1" fill="url(#radialGradient16049)"/>
 <path d="m72.145 6.6794c-0.27803-0.38501-0.50079-0.53229-0.50079-0.53229s0.77195 0.72597-0.22715 2.4637c-3.6996 5.3693-2.6956 12.724 2.4663 16.827l13.888 11.014c0.78033 0.57546 0.96083 0.84746 1.2481 1.2895z" fill="#ccc"/>
 <path d="m72.394 7.0473c-0.26811-0.37128-0.48292-0.5133-0.48292-0.5133s0.74441 0.70007-0.21905 2.3758c-3.5676 5.1777-2.5994 12.27 2.3783 16.227l13.393 10.621c0.75249 0.55493 0.92655 0.81722 1.2036 1.2435z" fill="#fff"/>
 <g transform="matrix(0.88006 0 0 0.88006 5.794 4.75)">
  <path d="m47.219 24.312c-11.809 0-21.406 9.6302-21.406 21.438 0 11.807 9.5989 21.406 21.406 21.406s21.438-9.5968 21.438-21.406-9.6281-21.438-21.438-21.438z" opacity="0.05" transform="matrix(1.3715 -0.79183 0.79183 1.3715 -52.99 23.655)"/>
  <path d="m47.219 24.906c-11.494 0-20.812 9.3513-20.812 20.844 0 11.492 9.3201 20.812 20.812 20.812s20.844-9.3189 20.844-20.812c0-11.494-9.3502-20.844-20.844-20.844z" opacity="0.15" transform="matrix(1.3715 -0.79183 0.79183 1.3715 -52.99 23.655)"/>
  <use xlink:href="#SVGCleanerId_0" opacity="0.3" transform="matrix(1.3715 -0.79183 0.79183 1.3715 -52.99 23.655)"/>
  <use xlink:href="#SVGCleanerId_0" fill="url(#linearGradient3987-6)" transform="matrix(1.3639 -0.78748 0.78748 1.3639 -52.44 22.8)"/>
  <g clip-path="url(#clipPath4009)" fill="#fff" filter="url(#filter4021)" transform="matrix(0.97003 0 0 0.97003 1.438 1.444)">
   <path d="m67.328 47.745a20.203 20.203 0 0 1 -17.951 18.088l-2.1522-20.088z" opacity="0.2" transform="matrix(0 -1.6334 1.6334 0 -26.773 125.17)"/>
   <use xlink:href="#SVGCleanerId_3" transform="matrix(0.81671 -1.4146 1.4146 0.81671 -55.31 77.45)"/>
   <path d="m66.786 50.796a20.203 20.203 0 0 1 -3.1369 6.7132l-16.424-11.764z" opacity="0.2" transform="matrix(1.6334 0 0 1.6334 -29.11 -26.712)"/>
   <use xlink:href="#SVGCleanerId_3" transform="matrix(-1.4146 0.81671 -0.81671 -1.4146 152.16 74.26)"/>
  </g>
  <use xlink:href="#SVGCleanerId_0" fill="url(#linearGradient4050)" opacity="0.6" transform="matrix(0 -1.2374 1.2374 0 -8.606 106.44)"/>
  <use xlink:href="#SVGCleanerId_0" fill="url(#linearGradient3960)" transform="matrix(0 -1.1879 1.1879 0 -6.342 104.1)"/>
  <path d="m47.75 29.719c-1.3916 0.20308-1.9337 1.6393-2.7646 2.5883-0.65138 0.86639-1.3028 1.7328-1.9541 2.5992-5.78 1.9407-10.093 7.6522-10.122 13.787-0.21857 6.3521 4.0726 12.504 10.086 14.544 5.6857 2.0865 12.512 0.27612 16.407-4.3715 4.183-4.6737 4.917-12.057 1.6153-17.413-1.7996-3.0927-4.809-5.3677-8.1047-6.62-1.179-1.515-2.268-3.127-3.506-4.582-0.448-0.419-1.051-0.576-1.656-0.531z" opacity="0.1"/>
  <path d="m48.031 30.812a1.0481 1.0481 0 0 0 -0.875 0.4375l-3.375 4.5c-5.649 1.797-9.781 7.017-9.781 13.25 0 7.7103 6.2897 14 14 14s14-6.2897 14-14c0-6.2329-4.1324-11.453-9.7812-13.25l-3.375-4.5a1.0481 1.0481 0 0 0 -0.8125 -0.4375z" opacity="0.15"/>
  <path d="m48 31.888-3.5032 4.6709c-5.445 1.526-9.432 6.509-9.432 12.441 0 7.1437 5.7911 12.935 12.935 12.935 7.1437 0 12.935-5.7911 12.935-12.935 0-5.9318-3.9869-10.915-9.4316-12.441l-3.503-4.671z" opacity="0.3"/>
  <path d="m48 30.888-3.5032 4.6709c-5.445 1.526-9.432 6.509-9.432 12.441 0 7.1437 5.7911 12.935 12.935 12.935 7.1437 0 12.935-5.7911 12.935-12.935 0-5.9318-3.9869-10.915-9.4316-12.441l-3.503-4.671z" fill="url(#linearGradient3855)"/>
  <use xlink:href="#SVGCleanerId_0" fill="url(#radialGradient3838)" transform="matrix(0.52834 0 0 0.52834 23.05 24.16)"/>
  <use xlink:href="#SVGCleanerId_0" fill="url(#linearGradient4126)" transform="matrix(0.46555 0 0 0.46555 26.01 26.703)"/>
  <path d="m35.88 28.445 1.2447-0.7186 2.8744 4.9786-1.2447 0.7186-2.8744-4.9786zm-10.278 14.298 0.37198-1.3882 5.5529 1.4879-0.37198 1.3882-5.5529-1.4879zm2.8425 17.377-0.7186-1.2447 4.9786-2.8744 0.7186 1.2447-4.9786 2.8744zm14.298 10.278-1.3882-0.37198 1.4879-5.5529 1.3882 0.37197-1.4879 5.5529zm17.377-2.8425-1.2447 0.7186-2.8744-4.9786 1.2447-0.7186 2.8744 4.9786zm10.278-14.298-0.37198 1.3882-5.5529-1.4879 0.37197-1.3882 5.5529 1.4879zm-2.8425-17.377 0.7186 1.2447-4.9786 2.8744-0.7186-1.2447 4.9786-2.8744zm-14.298-10.278 1.3882 0.37198-1.4879 5.5529-1.3882-0.37198 1.4879-5.5529z" fill="#fff" opacity="0.7"/>
  <path d="m48 72c-13.255 0-24-10.745-24-24s10.745-24 24-24 24 10.745 24 24-10.745 24-24 24zm0-3.8889c11.1 0 20.111-9.0109 20.111-20.111s-9.0109-20.111-20.111-20.111-20.111 9.0109-20.111 20.111 9.0109 20.111 20.111 20.111z" fill="url(#radialGradient4046)"/>
  <path d="m48 38.594c-0.41098 0-0.82051 0.02006-1.2247 0.07349l1.225 3.063 1.225-3.062c-0.405-0.053-0.814-0.074-1.225-0.074zm1.2247 0.07349 0.3919 3.2821 1.984-2.6453c-0.377-0.155-0.779-0.285-1.176-0.391-0.397-0.107-0.796-0.192-1.2-0.245zm2.3759 0.63684-0.46538 3.2577 2.5963-2.033c-0.324-0.248-0.673-0.48-1.029-0.685-0.356-0.206-0.726-0.383-1.102-0.539zm2.1309 1.2247-1.2982 3.0372 3.0372-1.2982c-0.249-0.323-0.518-0.64-0.809-0.93h-0.02449c-0.29061-0.29061-0.5827-0.56027-0.90627-0.80829zm1.739 1.739-2.0575 2.5963h0.02449l3.2577-0.46538c-0.15621-0.37658-0.33337-0.7463-0.53886-1.1022h-0.02449c-0.20549-0.35592-0.41298-0.70542-0.66133-1.0287zm1.2247 2.1309-2.6453 1.984 3.0372-0.83278c-0.10636-0.39698-0.2357-0.77462-0.3919-1.1512zm-2.6453 1.984 3.2821 0.3919c-0.054-0.404-0.139-0.803-0.246-1.2l-3.0372 0.80829zm3.2821 0.3919-3.0617 1.2247 3.0617 1.2247c0.05302-0.40423 0.07349-0.8137 0.07349-1.2247 0-0.41098-0.02006-0.82051-0.07349-1.2247zm0 2.4494-3.2821 0.3919 2.6453 1.984c0.15583-0.37673 0.28553-0.77872 0.3919-1.1757s0.19193-0.79596 0.24494-1.2002zm-0.63683 2.3759-3.2577-0.46538 2.033 2.5963c0.24802-0.32356 0.48033-0.67281 0.68582-1.0287 0.20549-0.35592 0.38303-0.72548 0.53886-1.1022zm-1.2247 2.1309-3.0372-1.2982 1.2982 3.0372c0.32332-0.24835 0.64015-0.51768 0.93076-0.80829v-0.02449c0.29061-0.29061 0.56027-0.5827 0.80829-0.90626zm-1.739 1.739-2.5963-2.0575v0.02449l0.46538 3.2577c0.37658-0.1562 0.74629-0.33337 1.1022-0.53886v-0.02449c0.35592-0.20549 0.70542-0.41298 1.0287-0.66133zm-2.1309 1.2247-1.984-2.6453 0.83279 3.0372c0.39698-0.10636 0.77462-0.2357 1.1512-0.3919zm-1.984-2.6453-0.3919 3.2821c0.40417-0.05342 0.80321-0.13856 1.2002-0.24494l-0.808-3.037zm-0.392 3.282-1.225-3.062-1.225 3.062c0.40423 0.05302 0.8137 0.07349 1.2247 0.07349 0.41098 0 0.82051-0.02006 1.2247-0.07349zm-2.4494 0-0.3919-3.2821-1.984 2.6453c0.37674 0.15583 0.77872 0.28553 1.1757 0.3919 0.39698 0.10636 0.79596 0.19192 1.2002 0.24494zm-2.3759-0.63684 0.46538-3.2577-2.5963 2.033c0.32357 0.24802 0.67281 0.48033 1.0287 0.68582 0.35592 0.20549 0.72548 0.38303 1.1022 0.53886zm-2.1309-1.2247 1.2982-3.0372-3.0372 1.2982c0.24835 0.32332 0.51768 0.64015 0.80829 0.93076h0.02449c0.29061 0.29061 0.5827 0.56027 0.90626 0.80829zm-1.739-1.739 2.0575-2.5963h-0.02449l-3.2577 0.46538c0.15621 0.37658 0.33337 0.74629 0.53886 1.1022h0.02449c0.20549 0.35592 0.41298 0.70542 0.66133 1.0287zm-1.2247-2.1309 2.6453-1.984-3.0372 0.83278c0.10636 0.39698 0.23569 0.77462 0.3919 1.1512zm2.6453-1.984-3.2821-0.3919c0.05342 0.40418 0.13857 0.80321 0.24494 1.2002l3.0372-0.80829zm-3.2821-0.3919 3.0617-1.2247-3.0617-1.2247c-0.053 0.40423-0.07349 0.8137-0.07349 1.2247 0 0.41098 0.02006 0.82051 0.07349 1.2247zm0-2.4494 3.2821-0.3919-2.6453-1.984c-0.15583 0.37674-0.28553 0.77872-0.3919 1.1757s-0.19193 0.79596-0.24494 1.2002zm0.63684-2.3759 3.2577 0.46538-2.033-2.5963c-0.24802 0.32357-0.48033 0.67281-0.68582 1.0287-0.20549 0.35592-0.38303 0.72548-0.53886 1.1022zm1.2247-2.1309 3.0372 1.2982-1.2982-3.0372c-0.32332 0.24835-0.64015 0.51768-0.93076 0.80829v0.02449c-0.29061 0.29061-0.56027 0.5827-0.80829 0.90627zm1.739-1.739 2.5963 2.0575v-0.02449l-0.46538-3.2577c-0.37658 0.1562-0.74629 0.33337-1.1022 0.53886v0.02449c-0.35592 0.20549-0.70542 0.41298-1.0287 0.66133zm2.1309-1.2247 1.984 2.6453-0.83278-3.0372c-0.39698 0.10636-0.77462 0.2357-1.1512 0.3919zm1.984 2.6453 0.3919-3.2821c-0.40418 0.05342-0.80321 0.13856-1.2002 0.24494l0.80829 3.0372z" fill="url(#linearGradient4170)" opacity="0.2"/>
  <path d="m57.387 48c0-5.1945-4.1922-9.3867-9.3867-9.3867s-9.3867 4.1922-9.3867 9.3867 4.1922 9.3867 9.3867 9.3867 9.3867-4.1922 9.3867-9.3867zm-3.0541 0c0 3.4907-2.8419 6.3327-6.3327 6.3327-3.4907 0-6.3327-2.8419-6.3327-6.3327 0-3.4907 2.8419-6.3327 6.3327-6.3327 3.4907 0 6.3327 2.8419 6.3327 6.3327z" fill="url(#linearGradient3836)"/>
  <path d="m46.775 38.668-0.3919 3.2821c0.54-0.145 1.083-0.219 1.617-0.22l-1.225-3.062zm1.225 3.062c0.55893 0 1.1009 0.08322 1.6166 0.22044l-0.392-3.282-1.225 3.062zm1.6166 0.22044c0.53989 0.14466 1.056 0.34632 1.5186 0.61234l0.46538-3.2577-1.984 2.6453zm1.5186 0.61234c0.48405 0.27947 0.92014 0.62754 1.2982 1.0042l1.2982-3.0372-2.5963 2.033zm1.2982 1.0042c0.39523 0.39522 0.7121 0.83646 0.97975 1.2982l2.0575-2.5963-3.0372 1.2982zm-6.0499-1.6166-1.984-2.6453 0.46538 3.2577c0.48405-0.27947 1.0034-0.47331 1.5186-0.61234zm-4.1149-1.4206 1.2982 3.0372c0.39523-0.39523 0.83647-0.7121 1.2982-0.97975l-2.5963-2.0575zm1.2982 3.0372-3.0372-1.2982 2.033 2.5963c0.27947-0.48405 0.62754-0.92014 1.0042-1.2982zm-1.0042 1.2982-3.2577-0.46538 2.6453 1.984c0.14466-0.53989 0.34632-1.056 0.61234-1.5186zm-0.61234 1.5186-3.2821 0.3919 3.0617 1.2247c0-0.55893 0.08322-1.1009 0.22044-1.6166zm-0.22044 1.6166-3.0617 1.2247 3.2821 0.3919c-0.14466-0.53989-0.2195-1.0829-0.22044-1.6166zm0.22044 1.6166-2.6453 1.984 3.2577-0.46538c-0.27947-0.48405-0.47331-1.0034-0.61234-1.5186zm14.745-5.2171-3.2577 0.46538c0.27947 0.48405 0.47331 1.0034 0.61234 1.5186l2.6453-1.984zm-2.6453 1.984c0.14466 0.53989 0.2195 1.0829 0.22044 1.6166l3.0617-1.2247-3.2821-0.3919zm0.22044 1.6166c0 0.55893-0.08322 1.1009-0.22044 1.6166l3.2821-0.3919-3.0617-1.2247zm-0.22044 1.6166c-0.14466 0.53989-0.34632 1.056-0.61234 1.5186l3.2577 0.46538-2.6453-1.984zm-0.61234 1.5186c-0.27947 0.48405-0.62755 0.92014-1.0042 1.2982l3.0372 1.2982-2.033-2.5963zm-1.0042 1.2982c-0.39522 0.39523-0.83646 0.7121-1.2982 0.97974l2.5963 2.0575-1.2982-3.0372zm-9.8464-1.2982-2.0575 2.5963 3.0372-1.2982c-0.398-0.396-0.714-0.837-0.982-1.299zm0.97974 1.2982-1.2982 3.0372 2.5963-2.033c-0.486-0.28-0.922-0.628-1.3-1.005zm1.2982 1.0042-0.46538 3.2577 1.984-2.6453c-0.53989-0.14466-1.056-0.34632-1.5186-0.61234zm1.5186 0.61234 0.3919 3.2821l1.222-3.062c-0.55893 0-1.1009-0.08322-1.6166-0.22044zm1.614 0.22l1.2247 3.0617 0.3919-3.2821c-0.54 0.145-1.083 0.219-1.617 0.22zm1.6166-0.22044 1.984 2.6453-0.46538-3.2577c-0.48405 0.27947-1.0034 0.47331-1.5186 0.61234z" fill="url(#linearGradient4262-7)" opacity="0.7"/>
  <path d="m46.775 38.668 1.225 3.062 1.225-3.062-1.225 1.494-1.225-1.494zl-0.80829 1.739v0.02449l-1.5676-1.1267 1.984 2.6453 0.3919-3.2821zm-2.3759 0.63684-0.31842 1.9105-1.8125-0.68582 2.5963 2.0575v-0.02449l-0.46538-3.2577zm-2.1309 1.2247 0.19595 1.935-1.935-0.19595 3.0372 1.2982-1.2982-3.0372zm-1.739 1.739 0.68582 1.8125-1.9105 0.31842 3.2577 0.46538-2.033-2.5963zm-1.2247 2.1309 1.1267 1.5676-1.7635 0.80829 3.2821-0.3919-2.6453-1.984zm-0.63684 2.3759 1.4941 1.2247-1.4941 1.2247 3.0617-1.2247-3.0617-1.2247zm0 2.4494 1.739 0.80829h0.02449l-1.1267 1.5676 2.6453-1.984-3.2822-0.3919zm0.63684 2.3759 1.9105 0.31842-0.68582 1.8125 2.0575-2.5963h-0.02449l-3.2577 0.46538zm1.2247 2.1309 1.935-0.19595-0.19595 1.935 1.2982-3.0372-3.0372 1.2982zm1.739 1.739 1.8125-0.68582 0.31842 1.9105 0.46538-3.2577-2.5963 2.033zm2.1309 1.2247 1.5676-1.1267 0.80829 1.7635-0.3919-3.2821-1.984 2.6453zm2.376 0.636 1.225-1.494 1.225 1.494-1.225-3.062-1.225 3.062zm2.4494 0 0.80829-1.739v-0.02449l1.5676 1.1267-1.984-2.6453-0.3919 3.2822zm2.3759-0.63684 0.31842-1.9105 1.8125 0.68582-2.5963-2.0575v0.02449l0.46538 3.2577zm2.1309-1.2247-0.19595-1.935 1.935 0.19595-3.0372-1.2982 1.2982 3.0372zm1.739-1.739-0.68582-1.8125 1.9105-0.31842-3.2577-0.46538 2.033 2.5963zm1.2247-2.1309-1.1267-1.5676 1.7635-0.80829-3.2821 0.3919 2.6453 1.984zm0.63683-2.3759-1.4941-1.2247 1.4941-1.2247-3.0617 1.2247 3.0617 1.2247zm0-2.4494-1.739-0.80829h-0.02449l1.1267-1.5676-2.6453 1.984 3.2821 0.3919zm-0.63683-2.3759-1.9105-0.31842 0.68582-1.8125-2.0575 2.5963h0.02449l3.2577-0.46538zm-1.2247-2.1309-1.935 0.19595 0.19595-1.935-1.2982 3.0372 3.0372-1.2982zm-1.739-1.739-1.8125 0.68582-0.31842-1.9105-0.46538 3.2577 2.5963-2.033zm-2.1309-1.2247-1.5676 1.1267-0.80829-1.7635 0.3919 3.2821 1.984-2.6453z" opacity="0.3"/>
  <path d="m48 30.875-3.5 4.6875c-5.445 1.526-9.438 6.506-9.438 12.438 0 0.18082 0.0239 0.35224 0.03125 0.53125 0.207-5.721 4.108-10.484 9.407-11.969l3.5-4.6875 3.5 4.6875c5.2988 1.4846 9.2 6.2471 9.4062 11.969 0.008-0.179 0.032-0.35 0.032-0.531 0-5.932-3.993-10.912-9.438-12.438l-3.5-4.687z" fill="#fff" opacity="0.8"/>
  <use xlink:href="#SVGCleanerId_1"/>
  <use xlink:href="#SVGCleanerId_1" transform="matrix(0.96593 0.25882 -0.25882 0.96593 14.06 -10.788)"/>
 </g>
</svg>
