<svg height="96" width="96" xmlns="http://www.w3.org/2000/svg" xmlns:xlink="http://www.w3.org/1999/xlink">
 <defs>
  <linearGradient id="linearGradient15916">
   <stop stop-color="#b4b4b4"/>
   <stop stop-color="#b4b4b4" stop-opacity="0" offset="1"/>
  </linearGradient>
  <radialGradient cy="360.77" r="21.302" xlink:href="#linearGradient15916" gradientUnits="userSpaceOnUse" id="radialGradient8416" cx="303.16" gradientTransform="matrix(0.44073 -0.24657 0.39119 0.69922 -196.61 -156.38)"/>
  <linearGradient x1="320.6" x2="293.81" xlink:href="#linearGradient15916" y1="345.4" y2="361.49" gradientUnits="userSpaceOnUse" id="linearGradient8419" gradientTransform="matrix(1 0 0 1 -224.68 -343.18)"/>
  <filter x="-0.162" y="-0.095" height="1.191" color-interpolation-filters="sRGB" id="filter3429" width="1.324">
   <feGaussianBlur stdDeviation="0.53551"/>
  </filter>
  <filter x="-0.166" y="-0.037" height="1.073" color-interpolation-filters="sRGB" id="filter3243" width="1.332">
   <feGaussianBlur stdDeviation="0.9"/>
  </filter>
  <clipPath id="clipPath3235">
   <use xlink:href="#SVGCleanerId_1"/>
  </clipPath>
  <linearGradient id="linearGradient3354-1">
   <stop stop-color="#b4b4b4"/>
   <stop stop-color="#646464" offset="0.205"/>
   <stop stop-color="#fff" offset="0.496"/>
   <stop stop-color="#3c3c3c" offset="1"/>
  </linearGradient>
  <linearGradient id="linearGradient3435">
   <stop stop-color="#ededed"/>
   <stop stop-color="#b0b0b0" offset="1"/>
  </linearGradient>
  <linearGradient x1="68.75" x2="75.25" xlink:href="#linearGradient3354-1" gradientUnits="userSpaceOnUse" id="linearGradient8452" gradientTransform="matrix(1 0 0 1 -23.713 -1.712)"/>
  <linearGradient x1="63.48" x2="79" y1="64.16" y2="65" gradientUnits="userSpaceOnUse" id="linearGradient8458" gradientTransform="matrix(1 0 0 1 -23.713 -0.712)">
   <stop stop-color="#a2a2a2"/>
   <stop stop-color="#fff" offset="1"/>
  </linearGradient>
  <linearGradient x1="68.03" x2="75.971" xlink:href="#linearGradient3435" gradientUnits="userSpaceOnUse" id="linearGradient8460" gradientTransform="matrix(1 0 0 1 -23.713 -2.712)"/>
  <linearGradient x1="68.969" x2="75.06" xlink:href="#linearGradient3435" gradientUnits="userSpaceOnUse" id="linearGradient8462" gradientTransform="matrix(-1 0 0 1 120.32 -2.712)"/>
  <linearGradient x1="68.75" x2="72.25" xlink:href="#linearGradient3354-1" gradientUnits="userSpaceOnUse" id="linearGradient8464" gradientTransform="matrix(1.1263 0 0 1 -31.11 -50.21)"/>
  <linearGradient x1="69" x2="73" gradientUnits="userSpaceOnUse" id="linearGradient8096" gradientTransform="matrix(1 0 0 1 -23.713 -1.712)">
   <stop stop-color="#fff"/>
   <stop stop-color="#8c8c8c" offset="0.49"/>
   <stop stop-color="#cfcfcf" offset="0.5"/>
   <stop stop-color="#fff" offset="0.623"/>
   <stop stop-color="#c8c8c8" offset="0.817"/>
   <stop stop-color="#505050" offset="1"/>
  </linearGradient>
  <linearGradient x1="69" x2="73" gradientUnits="userSpaceOnUse" id="linearGradient8098" gradientTransform="matrix(-1 0 0 1 120.29 -4.712)">
   <stop stop-color="#2f2f2f"/>
   <stop stop-color="#fff" offset="0.437"/>
   <stop stop-color="#979797" offset="0.621"/>
   <stop stop-color="#505050" offset="0.772"/>
   <stop stop-color="#e6e6e6" offset="1"/>
  </linearGradient>
  <clipPath id="clipPath3352">
   <path d="m11.688 64.375c-2.216 0-4 1.784-4 4v33.688c0 2.216 1.784 4 4 4h36.094c2.216 0 4-1.784 4-4v-33.688c0-2.216-1.784-4-4-4h-36.094zm6.875 15.625h7.2812v1.9062c-0.20514 0.35221-0.43386 0.77812-0.71875 1.2812-0.27351 0.49058-0.57577 1.0151-0.90625 1.5938-0.33049 0.57862-0.69783 1.2022-1.0625 1.8438-0.36468 0.64152-0.71769 1.296-1.0938 1.9375-0.36468 0.64151-0.74894 1.2587-1.125 1.875-0.37607 0.61636-0.74048 1.1779-1.0938 1.7188h6.1562v1.8438h-8v-1.9688l5-8.7188c0.15954-0.26414 0.28935-0.49842 0.4375-0.75 0.15954-0.25156 0.32905-0.52966 0.5-0.78125h-5.375v-1.7812zm9.437 0h1.8125v14h-1.812v-14zm4 0h4.2188c0.44025 0.000014 0.84748 0.0122 1.25 0.0625 0.40251 0.03775 0.78537 0.13032 1.125 0.28125 0.33962 0.15096 0.64209 0.3982 0.90625 0.6875 0.27672 0.28932 0.49881 0.6657 0.6875 1.1562 0.12578 0.31448 0.23092 0.64172 0.28125 0.96875 0.05031 0.31448 0.06249 0.64172 0.0625 0.96875-0.000009 0.52831-0.06782 1.0342-0.21875 1.5625-0.13837 0.51573-0.36046 0.99726-0.6875 1.4375-0.18869 0.26416-0.46679 0.49274-0.78125 0.65625-0.31447 0.16353-0.64781 0.27438-1 0.375-0.35221 0.08806-0.69772 0.14977-1.0625 0.1875-0.35221 0.02516-0.66078 0.06251-0.9375 0.0625h-2.0312v5.5938h-1.813v-14zm1.8438 1.7812v4.7812h2.0938c0.85534 0.000007 1.5094-0.22248 2-0.625 0.50314-0.41509 0.78124-1.02 0.78125-1.8125-0.000008-0.22641-0.02477-0.46107-0.0625-0.6875-0.03774-0.23898-0.09946-0.45498-0.1875-0.65625-0.088-0.201-0.206-0.38-0.344-0.531-0.138-0.164-0.299-0.268-0.5-0.344-0.164-0.063-0.373-0.093-0.625-0.094-0.239-0.01257-0.4489-0.03124-0.625-0.03125h-2.5312z"/>
  </clipPath>
  <linearGradient x2="0" y1="72.41" y2="5.833" gradientUnits="userSpaceOnUse" id="linearGradient8552" gradientTransform="matrix(1.1781 0 0 1.423 -7.07 -8.675)">
   <stop stop-color="#e5a824"/>
   <stop stop-color="#ffe680" offset="1"/>
  </linearGradient>
  <path d="m18.562 80v1.7812h5.375c-0.17095 0.25158-0.34046 0.52969-0.5 0.78125-0.14815 0.25158-0.27796 0.48586-0.4375 0.75l-5 8.719v1.969h8v-1.8438h-6.1562c0.35327-0.54088 0.71768-1.1024 1.0938-1.7188 0.37606-0.61635 0.76032-1.2335 1.125-1.875 0.37606-0.6415 0.72907-1.296 1.0938-1.9375 0.36467-0.6415 0.73201-1.2651 1.0625-1.8438 0.33048-0.57861 0.63274-1.1032 0.90625-1.5938 0.28489-0.50314 0.51362-0.92904 0.71875-1.2812v-1.9062h-7.2812zm9.438 0v14h1.8125v-14h-1.812zm4 0v14h1.8125v-5.5938h2.0312c0.27672 0.000005 0.58529-0.03734 0.9375-0.0625 0.36478-0.03773 0.71029-0.09944 1.0625-0.1875 0.35219-0.10062 0.68553-0.21147 1-0.375 0.31446-0.16352 0.59256-0.39209 0.78125-0.65625 0.32704-0.44024 0.54913-0.92177 0.6875-1.4375 0.15093-0.52829 0.21874-1.0342 0.21875-1.5625-0.000009-0.32703-0.01219-0.65428-0.0625-0.96875-0.05-0.327-0.155-0.654-0.28-0.968-0.189-0.491-0.411-0.867-0.688-1.157-0.264-0.289-0.567-0.536-0.906-0.687-0.34-0.151-0.723-0.244-1.125-0.282-0.403-0.05-0.81-0.062-1.25-0.062h-4.219zm1.8438 1.7812h2.5312c0.1761 0.000013 0.386 0.01868 0.625 0.03125 0.25157 0.000014 0.46147 0.03087 0.625 0.09375 0.20125 0.07548 0.36163 0.18024 0.5 0.34375 0.13836 0.15096 0.25569 0.33 0.34375 0.53125 0.08804 0.20127 0.14976 0.41727 0.1875 0.65625 0.03773 0.22643 0.06249 0.46109 0.0625 0.6875-0.000007 0.79246-0.27811 1.3974-0.78125 1.8125-0.49058 0.40252-1.1447 0.62501-2 0.625h-2.0938v-4.7812z" clip-path="url(#clipPath3352)" fill="none" stroke="#fff" id="SVGCleanerId_0"/>
  <path d="m66 6v55c0 1.662 1.338 3 3 3h6c1.662 0 3-1.338 3-3v-55h-4v2h-4v-2h-4z" id="SVGCleanerId_1"/>
 </defs>
 <path d="m16.059 3.1081c-7.049 0-12.719 5.6697-12.719 12.719v64.531c0 7.049 5.6697 12.719 12.719 12.719h64.188c7.049 0 12.719-5.6697 12.719-12.719v-35.013c-0.0367-3.8222-0.0417-6.3452-1.8012-9.5856l-16.206-29.842c-1.0788-1.8835-2.0313-2.8088-5.1346-2.8088z" fill-opacity="0.02"/>
 <path d="m16.497 3.7018c-6.9538 0-12.531 5.6087-12.531 12.562v63.656c0 6.9538 5.5775 12.531 12.531 12.531h63.312c6.9538 0 12.562-5.5775 12.562-12.531v-34.607c-0.0741-3.7145-0.0646-6.1373-1.775-9.2846l-16.222-29.849c-0.90306-1.708-1.7952-2.4773-4.5338-2.4773z" fill-opacity="0.039"/>
 <path d="m16.934 4.3268c-6.8585 0-12.375 5.5165-12.375 12.375v62.781c0 6.8585 5.5165 12.375 12.375 12.375h62.438c6.8585 0 12.375-5.5165 12.375-12.375v-34.169c-0.0596-3.6037-0.0554-5.964-1.7158-9.0186l-16.222-29.842c-0.57824-1.2184-1.5501-2.1266-3.906-2.1266z" fill-opacity="0.078"/>
 <path d="m17.372 4.9206c-6.7632 0-12.219 5.4555-12.219 12.219v61.906c0 6.7632 5.4555 12.219 12.219 12.219h61.562c6.7632 0 12.219-5.4555 12.219-12.219v-33.794c-0.0346-3.5165-0.0841-5.7358-1.6885-8.6896l-16.237-29.895c-0.43675-0.77203-1.3586-1.7467-3.3394-1.7467z" fill-opacity="0.157"/>
 <path d="m17.75 5.5c-6.642 0-11.969 5.395-11.969 12.062l0.0002 61.032c0 6.668 5.3268 12.031 11.969 12.031h60.812c6.642 0 11.969-5.363 11.969-12.031l-0.062-33.438c-0.073-3.385-0.114-5.47-1.657-8.312l-16.281-29.969c-0.544-0.7692-1.558-1.3406-2.625-1.375h-52.156z" fill="url(#linearGradient8552)"/>
 <path d="m5.7709 77.595v1.0133c0 6.668 5.3434 12.032 11.985 12.032h60.809c6.6418 0 11.985-5.3645 11.985-12.032v-1.0133c0 6.6681-5.3434 12.032-11.985 12.032h-60.809c-6.6418 0-11.985-5.3644-11.985-12.032z" fill-opacity="0.098"/>
 <path d="m57.817 5.6171v85.125h20.906c6.6418 0 11.969-5.3632 11.969-12.031v-61.031c0-0.92374-0.1187-1.7923-0.3125-2.6562 0.15863 0.78565 0.25 1.604 0.25 2.4375v27.812c-0.0731-3.3855-0.11339-5.4702-1.6562-8.3125l-16.282-29.968c-0.53945-0.76243-1.3896-1.1622-2.5938-1.375h-12.281z" fill="url(#linearGradient8419)"/>
 <path d="m71.473 4.4296c-7.4721 3.35-12.688 10.913-12.688 19.719 0 11.911 9.5167 21.562 21.281 21.562 4.3866 0 8.4555-1.3551 11.844-3.6562l-20.437-37.625z" stroke-width="0.1" fill="url(#radialGradient8416)"/>
 <path d="m72.4 6.5777c-0.341-0.3041-0.564-0.3884-0.564-0.3884s0.83487 0.58215-0.16423 2.3199c-3.6996 5.3693-2.6956 12.724 2.4663 16.827l13.888 11.014c0.78033 0.57546 0.96083 0.84746 1.2481 1.2895z" fill="#ccc"/>
 <path d="m72.648 6.9456c-0.26811-0.37128-0.48292-0.5133-0.48292-0.5133s0.74441 0.70007-0.21905 2.3758c-3.5676 5.1777-2.5994 12.27 2.3783 16.227l13.393 10.621c0.75249 0.55493 0.92655 0.81722 1.2036 1.2435z" fill="#fff"/>
 <g transform="matrix(1.1658 0 0 1.1658 -7.419 -0.876)">
  <path d="m42.287 5.2878v55c0 1.662 1.338 3 3 3h6c1.662 0 3-1.338 3-3v-55h-4v2h-4v-2h-4z" fill="#252525"/>
  <rect x="46.29" y="7.288" fill="#4d4d4d" height="49" width="4"/>
  <rect stroke-opacity="0.564" x="45.29" stroke-width="0.5" rx="1" y="55.29" fill="url(#linearGradient8452)" stroke="#000" height="4" width="6" stroke-linecap="square"/>
  <use stroke-width="2" xlink:href="#SVGCleanerId_1" clip-path="url(#clipPath3235)" fill="none" stroke="#000" filter="url(#filter3243)" stroke-linecap="square" transform="matrix(1 0 0 1 -23.713 -0.712)"/>
  <path stroke-opacity="0.564" d="m45.787 50.288c-0.26977 0-0.5 0.21796-0.5 0.5v3c0 0.28204 0.23023 0.5 0.5 0.5h1c0.26977 0 0.5-0.21796 0.5-0.5v-0.5h1.5c0.277 0 0.5-0.223 0.5-0.5v-1c0-0.277-0.223-0.5-0.5-0.5h-1.5v-0.5c0-0.28204-0.23023-0.5-0.5-0.5h-1z" stroke-width="0.5" fill="url(#linearGradient8096)" stroke="#000" id="rect3249" stroke-linecap="square"/>
  <use xlink:href="#rect3249" height="96" id="use3308" width="96" transform="matrix(1 0 0 1 0 -6)"/>
  <use xlink:href="#use3308" height="96" id="use3310" width="96" transform="matrix(1 0 0 1 0 -6)"/>
  <use xlink:href="#use3310" height="96" id="use3312" width="96" transform="matrix(1 0 0 1 0 -6)"/>
  <use xlink:href="#use3312" height="96" id="use3314" width="96" transform="matrix(1 0 0 1 0 -6)"/>
  <use xlink:href="#use3314" height="96" id="use3316" width="96" transform="matrix(1 0 0 1 0 -6)"/>
  <use xlink:href="#use3316" height="96" id="use3318" width="96" transform="matrix(1 0 0 1 0 -6)"/>
  <use xlink:href="#use3318" height="96" width="96" transform="matrix(1 0 0 1 0 -6)"/>
  <path stroke-opacity="0.564" d="m50.787 47.288c0.26977 0 0.5 0.21796 0.5 0.5v3c0 0.28204-0.23023 0.5-0.5 0.5h-1c-0.26977 0-0.5-0.21796-0.5-0.5v-0.5h-1.5c-0.277 0-0.5-0.223-0.5-0.5v-1c0-0.277 0.223-0.5 0.5-0.5h1.5v-0.5c0-0.28204 0.23023-0.5 0.5-0.5h1z" stroke-width="0.5" fill="url(#linearGradient8098)" stroke="#000" id="path3322" stroke-linecap="square"/>
  <use xlink:href="#path3322" height="96" id="use3340" width="96" transform="matrix(1 0 0 1 0 -6)"/>
  <use xlink:href="#use3340" height="96" id="use3342" width="96" transform="matrix(1 0 0 1 0 -6)"/>
  <use xlink:href="#use3342" height="96" id="use3344" width="96" transform="matrix(1 0 0 1 0 -6)"/>
  <use xlink:href="#use3344" height="96" id="use3346" width="96" transform="matrix(1 0 0 1 0 -6)"/>
  <use xlink:href="#use3346" height="96" id="use3348" width="96" transform="matrix(1 0 0 1 0 -6)"/>
  <use xlink:href="#use3348" height="96" width="96" transform="matrix(1 0 0 1 0 -6)"/>
  <path d="m41.287 5.2878v55c0 2.2023 1.7977 4 4 4h6c2.2023 0 4-1.7977 4-4v-55h-1v55c0 1.662-1.338 3-3 3h-6c-1.662 0-3-1.338-3-3v-55h-1z" fill="url(#linearGradient8458)"/>
  <path stroke-opacity="0.564" d="m45.787 7.8191c-1.0277 0-1.9688 0.7652-1.9688 1.8125v10.812c-0.000005 1.0473 0.91808 1.8438 1.9688 1.8438h5c1.0507 0 1.9688-0.79645 1.9688-1.8438v-10.812c-0.000003-1.0473-0.94105-1.8125-1.9688-1.8125h-5zm1.0625 9.0625h2.875v1.75h-2.875v-1.75z" stroke-width="0.5" stroke="#000" filter="url(#filter3429)" stroke-linecap="square"/>
  <path d="m45.516 8.3092c-0.68714 0-1.2292 0.48237-1.2292 1.0815l-0.0051 10.815c0.000022 0.59918 0.54213 1.0815 1.2293 1.0815h5.5832c0.68714 0 1.2292-0.48237 1.2292-1.0815l0.0051-10.815c0-0.59918-0.54211-1.0815-1.2292-1.0815h-5.5832zm0.7043 7.9496h4.1013v3.1184h-4.1013v-3.1184z" fill="url(#linearGradient8460)"/>
  <path d="m50.849 9.2566c0.277 0 0.5 0.223 0.5 0.5v10.062c0 0.277-0.223 0.5-0.5 0.5h-5.0938c-0.277 0-0.5-0.223-0.5-0.5v-10.062c0-0.277 0.223-0.5 0.5-0.5h5.0938zm-0.4375 6.9687h-4.125v3.125h4.125v-3.125z" fill="url(#linearGradient8462)"/>
  <rect stroke-opacity="0.564" x="46.597" rx="0.563" ry="0.5" y="6.788" fill="url(#linearGradient8464)" stroke="#000" height="5" width="3.379" stroke-linecap="square"/>
  <rect x="46.27" y="15.288" height="1" opacity="0.3" width="4"/>
 </g>
 <use stroke-width="6" xlink:href="#SVGCleanerId_0" opacity="0.05" transform="matrix(1 0 0 1 -3.704 -65.19)"/>
 <use stroke-width="4" xlink:href="#SVGCleanerId_0" opacity="0.1" transform="matrix(1 0 0 1 -3.704 -65.19)"/>
 <use stroke-width="2" xlink:href="#SVGCleanerId_0" opacity="0.2" transform="matrix(1 0 0 1 -3.704 -65.19)"/>
 <path d="m14.859 14.811v1.7812h5.375c-0.17095 0.25158-0.34046 0.52969-0.5 0.78125-0.14815 0.25158-0.27796 0.48586-0.4375 0.75l-5 8.7188v1.9688h8v-1.8438h-6.1562c0.35327-0.54088 0.71768-1.1024 1.0938-1.7188 0.37607-0.61635 0.76032-1.2335 1.125-1.875 0.37606-0.6415 0.72907-1.296 1.0938-1.9375 0.36467-0.6415 0.73201-1.2651 1.0625-1.8438 0.33048-0.57861 0.63274-1.1032 0.90625-1.5938 0.28489-0.50314 0.51362-0.92904 0.71875-1.2812v-1.9062h-7.2812zm9.4375 0v14h1.8125v-14h-1.8125zm4 0v14h1.8125v-5.5938h2.0312c0.27672 0.000005 0.58529-0.03734 0.9375-0.0625 0.36478-0.03773 0.71029-0.09944 1.0625-0.1875 0.35219-0.10062 0.68553-0.21147 1-0.375 0.31446-0.16352 0.59256-0.39209 0.78125-0.65625 0.32704-0.44024 0.54913-0.92177 0.6875-1.4375 0.15093-0.52829 0.21874-1.0342 0.21875-1.5625-0.00001-0.32703-0.0122-0.65428-0.0625-0.96875-0.0503-0.32704-0.15547-0.65427-0.28125-0.96875-0.18869-0.49056-0.41078-0.86693-0.6875-1.1562-0.26416-0.2893-0.56663-0.53654-0.90625-0.6875-0.33963-0.15093-0.72249-0.2435-1.125-0.28125-0.40252-0.0503-0.80975-0.06249-1.25-0.0625h-4.2188zm1.8438 1.7812h2.5312c0.1761 0.000013 0.386 0.01868 0.625 0.03125 0.25157 0.000014 0.46147 0.03087 0.625 0.09375 0.20125 0.07548 0.36163 0.18024 0.5 0.34375 0.13836 0.15096 0.25569 0.33 0.34375 0.53125 0.088 0.20127 0.14976 0.41727 0.1875 0.65625 0.0377 0.22643 0.0625 0.46109 0.0625 0.6875-0.00001 0.79246-0.27811 1.3974-0.78125 1.8125-0.49058 0.40252-1.1447 0.62501-2 0.625h-2.0938v-4.7812z" fill="#7a4b21"/>
 <path d="m14.859 14.811v1h7.2812v-1h-7.2812zm9.4375 0v1h1.8125v-1h-1.8125zm4 0v1h4.2188c0.44025 0.000014 0.84748 0.0122 1.25 0.0625 0.40251 0.03775 0.78537 0.13032 1.125 0.28125 0.33962 0.15096 0.64209 0.3982 0.90625 0.6875 0.27672 0.28932 0.49881 0.6657 0.6875 1.1562 0.12578 0.31448 0.23093 0.64172 0.28125 0.96875 0.0211 0.13198 0.0216 0.27073 0.0313 0.40625 0.011-0.1453 0.0313-0.28967 0.0313-0.4375-0.00001-0.32703-0.0122-0.65428-0.0625-0.96875-0.0503-0.32704-0.15547-0.65427-0.28125-0.96875-0.18869-0.49056-0.41078-0.86693-0.6875-1.1562-0.26416-0.2893-0.56663-0.53654-0.90625-0.6875-0.33963-0.15093-0.72249-0.2435-1.125-0.28125-0.40252-0.0503-0.80975-0.06249-1.25-0.0625h-4.2188zm-8.6875 2.7812c-0.10048 0.17428-0.19925 0.34375-0.3125 0.53125l-5 8.7188v1l5-8.7188c0.15954-0.26414 0.28935-0.49842 0.4375-0.75 0.15954-0.25156 0.32905-0.52966 0.5-0.78125h-0.625zm15.344 1.7812c-0.0857 0.57887-0.31379 1.0409-0.71875 1.375-0.49058 0.40252-1.1447 0.62501-2 0.625h-2.0938v1h2.0938c0.85534 0.000007 1.5094-0.22248 2-0.625 0.50314-0.41509 0.78124-1.02 0.78125-1.8125-0.00001-0.18558-0.0357-0.37491-0.0625-0.5625zm-18.188 7.5938c-0.21205 0.33354-0.42052 0.68693-0.625 1h6.1562v-1h-5.5312z" opacity="0.4"/>
</svg>
