<svg height="96" width="96" xmlns="http://www.w3.org/2000/svg" xmlns:xlink="http://www.w3.org/1999/xlink">
 <defs>
  <linearGradient id="linearGradient15916">
   <stop stop-color="#b4b4b4"/>
   <stop stop-color="#b4b4b4" stop-opacity="0" offset="1"/>
  </linearGradient>
  <linearGradient x2="0" y1="90" y2="5.988" gradientUnits="userSpaceOnUse" id="linearGradient8339" gradientTransform="matrix(1.0959 0 0 1.0685 -4.442 -3.204)">
   <stop stop-color="#ebebeb"/>
   <stop stop-color="#fafafa" offset="1"/>
  </linearGradient>
  <radialGradient cy="360.77" r="21.302" xlink:href="#linearGradient15916" gradientUnits="userSpaceOnUse" id="radialGradient9011" cx="303.16" gradientTransform="matrix(0.44073 -0.24657 0.39119 0.69922 -196.61 -156.38)"/>
  <linearGradient x1="320.6" x2="293.81" xlink:href="#linearGradient15916" y1="345.4" y2="361.49" gradientUnits="userSpaceOnUse" id="linearGradient9020" gradientTransform="matrix(1 0 0 1 -224.68 -343.18)"/>
  <path d="m57.817 5.6171v85.125h20.906c6.6418 0 11.969-5.3632 11.969-12.031v-61.031c0-0.92374-0.1187-1.7923-0.3125-2.6562 0.15863 0.78565 0.25 1.604 0.25 2.4375v27.812c-0.0731-3.3855-0.11339-5.4702-1.6562-8.3125l-16.282-29.968c-0.53945-0.76243-1.3896-1.1622-2.5938-1.375h-12.281z" fill="url(#linearGradient9020)" id="SVGCleanerId_0"/>
  <path d="m71.473 4.4296c-7.4721 3.35-12.688 10.913-12.688 19.719 0 11.911 9.5167 21.562 21.281 21.562 4.3866 0 8.4555-1.3551 11.844-3.6562l-20.437-37.625z" stroke-width="0.1" fill="url(#radialGradient9011)" id="SVGCleanerId_1"/>
  <path d="m72.4 6.5777c-0.341-0.3041-0.564-0.3884-0.564-0.3884s0.83487 0.58215-0.16423 2.3199c-3.6996 5.3693-2.6956 12.724 2.4663 16.827l13.888 11.014c0.78033 0.57546 0.96083 0.84746 1.2481 1.2895z" fill="#ccc" id="SVGCleanerId_2"/>
  <path d="m72.648 6.9456c-0.26811-0.37128-0.48292-0.5133-0.48292-0.5133s0.74441 0.70007-0.21905 2.3758c-3.5676 5.1777-2.5994 12.27 2.3783 16.227l13.393 10.621c0.75249 0.55493 0.92655 0.81722 1.2036 1.2435z" fill="#fff" id="SVGCleanerId_3"/>
 </defs>
 <path d="m16.059 3.1081c-7.049 0-12.719 5.6697-12.719 12.719v64.531c0 7.049 5.6697 12.719 12.719 12.719h64.188c7.049 0 12.719-5.6697 12.719-12.719v-35.013c-0.0367-3.8222-0.0417-6.3452-1.8012-9.5856l-16.206-29.842c-1.0788-1.8835-2.0313-2.8088-5.1346-2.8088z" fill-opacity="0.02"/>
 <path d="m16.497 3.7018c-6.9538 0-12.531 5.6087-12.531 12.562v63.656c0 6.9538 5.5775 12.531 12.531 12.531h63.312c6.9538 0 12.562-5.5775 12.562-12.531v-34.607c-0.0741-3.7145-0.0646-6.1373-1.775-9.2846l-16.222-29.849c-0.90306-1.708-1.7952-2.4773-4.5338-2.4773z" fill-opacity="0.039"/>
 <path d="m16.934 4.3268c-6.8585 0-12.375 5.5165-12.375 12.375v62.781c0 6.8585 5.5165 12.375 12.375 12.375h62.438c6.8585 0 12.375-5.5165 12.375-12.375v-34.169c-0.0596-3.6037-0.0554-5.964-1.7158-9.0186l-16.222-29.842c-0.57824-1.2184-1.5501-2.1266-3.906-2.1266z" fill-opacity="0.078"/>
 <path d="m17.372 4.9206c-6.7632 0-12.219 5.4555-12.219 12.219v61.906c0 6.7632 5.4555 12.219 12.219 12.219h61.562c6.7632 0 12.219-5.4555 12.219-12.219v-33.794c-0.0346-3.5165-0.0841-5.7358-1.6885-8.6896l-16.237-29.895c-0.43675-0.77203-1.3586-1.7467-3.3394-1.7467z" fill-opacity="0.157"/>
 <path d="m17.747 5.5143c-6.6418 0-11.969 5.3946-11.969 12.062v61.031c0 6.668 5.327 12.031 11.969 12.031h60.813c6.6418 0 11.969-5.3632 11.969-12.031l-0.06245-33.438c-0.0731-3.3855-0.11339-5.4702-1.6562-8.3125l-16.283-29.967c-0.544-0.7689-1.558-1.3403-2.625-1.3747z" fill="url(#linearGradient8339)"/>
 <path d="m5.7709 77.595v1.0133c0 6.668 5.3434 12.032 11.985 12.032h60.809c6.6418 0 11.985-5.3645 11.985-12.032v-1.0133c0 6.6681-5.3434 12.032-11.985 12.032h-60.809c-6.6418 0-11.985-5.3644-11.985-12.032z" fill-opacity="0.098"/>
 <path d="m5.2475 15.735v1h68.711v-1h-68.711z" fill="#4d4d4d" color="#000000" opacity="0.1"/>
 <use xlink:href="#SVGCleanerId_0"/>
 <use xlink:href="#SVGCleanerId_1"/>
 <use xlink:href="#SVGCleanerId_2"/>
 <use xlink:href="#SVGCleanerId_3"/>
 <path d="m5.2475 31.735v1h84v-1h-84z" fill="#4d4d4d" color="#000000" opacity="0.1"/>
 <path d="m5.2475 47.735v1h84v-1h-84z" fill="#4d4d4d" color="#000000" opacity="0.1"/>
 <path d="m5.2475 63.735v1h84v-1h-84z" fill="#4d4d4d" color="#000000" opacity="0.1"/>
 <path d="m5.2475 79.735v1h84v-1h-84z" fill="#4d4d4d" color="#000000" opacity="0.1"/>
 <path d="m79.247 23.868h-1v65.867h1v-65.867z" fill="#333" color="#000000" opacity="0.1"/>
 <path d="m63.247 5.7348h-1v84h1v-84z" fill="#333" color="#000000" opacity="0.1"/>
 <path d="m47.247 5.7348h-1v84h1v-84z" fill="#333" color="#000000" opacity="0.1"/>
 <path d="m31.247 5.7348h-1v84h1v-84z" fill="#333" color="#000000" opacity="0.1"/>
 <path d="m15.247 5.7348h-1v84h1v-84z" fill="#333" color="#000000" opacity="0.1"/>
 <rect x="7.247" y="23.735" fill="#666" color="#000000" height="1" opacity="0.7" width="69.07"/>
 <rect x="15.735" y="-15.04" fill="#666" color="#000000" height="0.824" opacity="0.7" width="59.04" transform="matrix(0 1 -1 0 0 0)"/>
 <rect x="23.846" y="-79.04" fill="#666" color="#000000" height="0.818" opacity="0.7" width="51.875" transform="matrix(0 1 -1 0 0 0)"/>
 <rect x="-83.06" y="-74.73" fill="#666" color="#000000" height="1" opacity="0.7" width="64" transform="matrix(-1 0 0 -1 0 0)"/>
 <rect x="9.217" y="31.735" fill="#666" color="#000000" height="1" opacity="0.5" width="71.46"/>
 <path d="m76.172 28.735a1.9693 2 0 0 1 -3.9385 0 1.9693 2 0 1 1 3.9385 0z" fill="#666" color="#000000" opacity="0.6"/>
 <path d="m70.264 28.735a1.9693 2 0 0 1 -3.9385 0 1.9693 2 0 1 1 3.9385 0z" fill="#666" color="#000000" opacity="0.4"/>
 <path d="m64.356 28.735a1.9693 2 0 0 1 -3.9385 0 1.9693 2 0 1 1 3.9385 0z" fill="#666" color="#000000" opacity="0.4"/>
 <path d="m26.448 40.735a2.4616 2.5 0 0 1 -4.9232 0 2.4616 2.5 0 1 1 4.9232 0z" stroke-width="0.992" fill="#666" color="#000000" stroke="#fff" opacity="0.6"/>
 <path d="m26.448 50.735a2.4616 2.5 0 0 1 -4.9232 0 2.4616 2.5 0 1 1 4.9232 0z" stroke-width="0.992" fill="#666" color="#000000" stroke="#fff" opacity="0.6"/>
 <g fill="#666" opacity="0.6" transform="matrix(0.98463 0 0 1 -0.63 -0.265)">
  <path d="m31.457 43v-3.9547h2.6478v0.74756h-1.7576v0.82745h1.5636v0.74756h-1.5636v1.6321h-0.89022"/>
  <path d="m35.527 43h-0.85028v-3.0017h0.85028v3.0017m0.07989-3.8691c-0.000002 0.15598-0.05136 0.27962-0.15408 0.37093-0.09891 0.0875-0.21685 0.13125-0.35381 0.13125-0.13696 0.000003-0.2568-0.04375-0.35951-0.13125-0.09891-0.0913-0.14837-0.21494-0.14837-0.37093-0.000001-0.15598 0.04946-0.27772 0.14837-0.36522 0.10272-0.0913 0.22256-0.13695 0.35951-0.13696 0.13696 0.000004 0.25489 0.04566 0.35381 0.13696 0.10272 0.08751 0.15408 0.20924 0.15408 0.36522"/>
  <path d="m38.135 40.752c-0.07609-0.01902-0.16549-0.03804-0.26821-0.05707-0.10272-0.02282-0.21305-0.03424-0.33098-0.03424-0.05326 0.000003-0.11794 0.0057-0.19402 0.01712-0.07229 0.0076-0.12745 0.01712-0.16549 0.02853v2.294h-0.85028v-2.8419c0.15217-0.05326 0.33098-0.10272 0.53642-0.14837 0.20924-0.04945 0.44131-0.07418 0.6962-0.07418 0.04565 0.000003 0.10082 0.0038 0.16549 0.01141 0.06467 0.0038 0.12935 0.01142 0.19402 0.02283 0.06467 0.0076 0.12935 0.01902 0.19402 0.03424 0.06467 0.01142 0.11984 0.02663 0.16549 0.04565l-0.14266 0.70191"/>
  <path d="m39.595 42.389c0.15598 0.000001 0.2663-0.01522 0.33098-0.04565 0.06467-0.03043 0.09701-0.0894 0.09701-0.1769-0.000001-0.06848-0.04185-0.12745-0.12554-0.1769-0.0837-0.05326-0.21114-0.11223-0.38234-0.1769-0.13315-0.04946-0.25489-0.10082-0.36522-0.15408-0.10652-0.05326-0.19783-0.11603-0.27392-0.18832-0.07609-0.07609-0.13506-0.16549-0.1769-0.26821-0.04185-0.10272-0.06277-0.22636-0.06277-0.37093 0-0.28152 0.10462-0.50408 0.31386-0.66767 0.20924-0.16358 0.49647-0.24538 0.86169-0.24538 0.18261 0.000003 0.35761 0.01712 0.525 0.05136 0.16739 0.03044 0.30054 0.06468 0.39946 0.10272l-0.14837 0.66196c-0.09892-0.03424-0.20734-0.06467-0.32528-0.0913-0.11413-0.02663-0.24348-0.03994-0.38805-0.03995-0.26631 0.000002-0.39946 0.07419-0.39946 0.22256-0.000001 0.03424 0.0057 0.06468 0.01712 0.0913 0.01141 0.02663 0.03424 0.05326 0.06848 0.07989 0.03424 0.02283 0.07989 0.04946 0.13696 0.07989 0.06087 0.02663 0.13696 0.05707 0.22826 0.0913 0.18641 0.06848 0.34049 0.13696 0.46223 0.20544 0.12174 0.06468 0.21685 0.13696 0.28533 0.21685 0.07228 0.07609 0.12174 0.16169 0.14837 0.2568 0.03043 0.09511 0.04565 0.20544 0.04565 0.33098-0.000002 0.29674-0.11223 0.5212-0.33669 0.67338-0.22066 0.15218-0.53452 0.22826-0.94158 0.22826-0.26631 0-0.48886-0.02283-0.66767-0.06848-0.175-0.04565-0.29674-0.0837-0.36522-0.11413l0.14266-0.6905c0.14457 0.05707 0.29294 0.10272 0.44511 0.13696 0.15217 0.03044 0.30245 0.04565 0.45082 0.04565"/>
  <path d="m41.469 39.251 0.85028-0.13696v0.88452h1.0215v0.70762h-1.0215v1.0557c-0.000001 0.17881 0.03043 0.32147 0.09131 0.42799 0.06467 0.10652 0.19212 0.15978 0.38234 0.15978 0.0913 0.000001 0.18451-0.0076 0.27962-0.02283 0.09891-0.01902 0.18832-0.04375 0.26821-0.07418l0.11984 0.66196c-0.10272 0.04185-0.21685 0.07799-0.34239 0.10842-0.12555 0.03043-0.27962 0.04565-0.46223 0.04565-0.23207 0-0.42419-0.03044-0.57636-0.09131-0.15218-0.06468-0.27392-0.15218-0.36522-0.2625-0.0913-0.11413-0.15598-0.25109-0.19402-0.41087-0.03424-0.15978-0.05136-0.33669-0.05136-0.53071v-2.5223"/>
  <path d="m48.206 41.493c-0.000003 0.23587-0.03424 0.45272-0.10272 0.65055-0.06848 0.19402-0.1674 0.36142-0.29674 0.50218-0.12935 0.13696-0.28533 0.24348-0.46794 0.31957-0.17881 0.07609-0.38044 0.11413-0.6049 0.11413-0.22066 0-0.42229-0.03804-0.6049-0.11413-0.17881-0.07609-0.33288-0.18261-0.46223-0.31957-0.12935-0.14076-0.23017-0.30815-0.30245-0.50218-0.07228-0.19783-0.10842-0.41468-0.10842-0.65055s0.03614-0.45082 0.10842-0.64484c0.07609-0.19402 0.1788-0.35951 0.30815-0.49647 0.13315-0.13696 0.28913-0.24348 0.46794-0.31957 0.18261-0.07608 0.38044-0.11413 0.59348-0.11413 0.21685 0.000003 0.41468 0.03805 0.59348 0.11413 0.18261 0.07609 0.33859 0.18261 0.46794 0.31957s0.23016 0.30245 0.30245 0.49647c0.07228 0.19402 0.10842 0.40897 0.10842 0.64484m-0.8674 0c-0.000002-0.2625-0.05326-0.46794-0.15978-0.61631-0.10272-0.15217-0.25109-0.22826-0.44511-0.22826-0.19402 0.000002-0.3443 0.07609-0.45082 0.22826-0.10652 0.14837-0.15978 0.35381-0.15978 0.61631-0.000001 0.2625 0.05326 0.47174 0.15978 0.62772 0.10652 0.15218 0.25679 0.22826 0.45082 0.22826 0.19402 0.000001 0.34239-0.07609 0.44511-0.22826 0.10652-0.15598 0.15978-0.36522 0.15978-0.62772"/>
  <path d="m50.788 41.522c-0.000003-0.2625-0.05897-0.47174-0.1769-0.62772-0.11794-0.15978-0.29294-0.23967-0.525-0.23968-0.07609 0.000002-0.14647 0.0038-0.21114 0.01141-0.06468 0.0038-0.11794 0.0095-0.15978 0.01712v1.5351c0.05326 0.03424 0.12174 0.06277 0.20544 0.0856 0.0875 0.02283 0.175 0.03424 0.2625 0.03424 0.40326 0.000001 0.60489-0.27201 0.6049-0.81604m0.8674-0.02283c-0.000003 0.23207-0.02854 0.44321-0.0856 0.63343-0.05707 0.19022-0.14076 0.35381-0.25109 0.49076-0.11033 0.13696-0.24729 0.24348-0.41087 0.31957-0.16359 0.07609-0.35191 0.11413-0.56495 0.11413-0.11794 0-0.22826-0.01141-0.33098-0.03424-0.103-0.023-0.202-0.055-0.297-0.097v1.1299h-0.85028v-3.9547c0.07609-0.02282 0.16359-0.04375 0.2625-0.06277 0.09891-0.02282 0.20163-0.04185 0.30816-0.05707 0.11033-0.01521 0.22065-0.02663 0.33098-0.03424 0.11413-0.01141 0.22256-0.01712 0.32527-0.01712 0.24728 0.000003 0.46794 0.03805 0.66196 0.11413 0.19402 0.07229 0.35761 0.17691 0.49076 0.31386 0.13315 0.13316 0.23397 0.29674 0.30245 0.49076 0.07228 0.19402 0.10842 0.41088 0.10842 0.65055"/>
  <path d="m52.28 39.251 0.85028-0.13696v0.88452h1.0215v0.70762h-1.0215v1.0557c-0.000001 0.17881 0.03043 0.32147 0.09131 0.42799 0.06467 0.10652 0.19212 0.15978 0.38234 0.15978 0.0913 0.000001 0.18451-0.0076 0.27962-0.02283 0.09891-0.01902 0.18832-0.04375 0.26821-0.07418l0.11984 0.66196c-0.10272 0.04185-0.21685 0.07799-0.34239 0.10842-0.12555 0.03043-0.27962 0.04565-0.46223 0.04565-0.23207 0-0.42419-0.03044-0.57636-0.09131-0.15218-0.06468-0.27392-0.15218-0.36522-0.2625-0.09131-0.11413-0.15598-0.25109-0.19402-0.41087-0.03424-0.15978-0.05136-0.33669-0.05136-0.53071v-2.5223"/>
  <path d="m55.689 43h-0.85028v-3.0017h0.85028v3.0017m0.07989-3.8691c-0.000002 0.15598-0.05136 0.27962-0.15408 0.37093-0.09891 0.0875-0.21685 0.13125-0.35381 0.13125-0.13696 0.000003-0.2568-0.04375-0.35951-0.13125-0.09891-0.0913-0.14837-0.21494-0.14837-0.37093-0.000001-0.15598 0.04946-0.27772 0.14837-0.36522 0.10272-0.0913 0.22256-0.13695 0.35951-0.13696 0.13696 0.000004 0.25489 0.04566 0.35381 0.13696 0.10272 0.08751 0.15408 0.20924 0.15408 0.36522"/>
  <path d="m59.296 41.493c-0.000003 0.23587-0.03424 0.45272-0.10272 0.65055-0.06848 0.19402-0.1674 0.36142-0.29674 0.50218-0.12935 0.13696-0.28533 0.24348-0.46794 0.31957-0.17881 0.07609-0.38044 0.11413-0.6049 0.11413-0.22066 0-0.42229-0.03804-0.6049-0.11413-0.17881-0.07609-0.33288-0.18261-0.46223-0.31957-0.12935-0.14076-0.23016-0.30815-0.30245-0.50218-0.07228-0.19783-0.10842-0.41468-0.10842-0.65055s0.03614-0.45082 0.10842-0.64484c0.07609-0.19402 0.1788-0.35951 0.30816-0.49647 0.13315-0.13696 0.28913-0.24348 0.46794-0.31957 0.18261-0.07608 0.38044-0.11413 0.59348-0.11413 0.21685 0.000003 0.41468 0.03805 0.59348 0.11413 0.18261 0.07609 0.33859 0.18261 0.46794 0.31957s0.23016 0.30245 0.30245 0.49647c0.07228 0.19402 0.10842 0.40897 0.10842 0.64484m-0.8674 0c-0.000002-0.2625-0.05326-0.46794-0.15978-0.61631-0.10272-0.15217-0.25109-0.22826-0.44511-0.22826-0.19402 0.000002-0.3443 0.07609-0.45082 0.22826-0.10652 0.14837-0.15978 0.35381-0.15978 0.61631-0.000002 0.2625 0.05326 0.47174 0.15978 0.62772 0.10652 0.15218 0.25679 0.22826 0.45082 0.22826 0.19402 0.000001 0.34239-0.07609 0.44511-0.22826 0.10652-0.15598 0.15978-0.36522 0.15978-0.62772"/>
  <path d="m59.955 40.101c0.14457-0.04185 0.33098-0.07989 0.55924-0.11413 0.22826-0.03804 0.46794-0.05706 0.71903-0.05707 0.25489 0.000003 0.46603 0.03424 0.63343 0.10272 0.17119 0.06468 0.30625 0.15788 0.40517 0.27962 0.09891 0.12174 0.16929 0.26631 0.21114 0.4337s0.06277 0.35381 0.06277 0.55924v1.6949h-0.85028v-1.5921c-0.000002-0.27391-0.03614-0.46794-0.10842-0.58207-0.07229-0.11413-0.20734-0.1712-0.40517-0.1712-0.06087 0.000002-0.12555 0.0038-0.19402 0.01141-0.06848 0.0038-0.12935 0.0095-0.18261 0.01712v2.3169h-0.85028v-2.8989"/>
 </g>
 <g fill="#666" opacity="0.6" transform="matrix(0.98463 0 0 1 -0.63 -0.265)">
  <path d="m32.535 52.321c0.12554 0.000001 0.22826-0.0095 0.30815-0.02853 0.08369-0.02283 0.15027-0.05136 0.19973-0.0856 0.04945-0.03804 0.08369-0.08179 0.10272-0.13125 0.01902-0.04946 0.02853-0.10462 0.02853-0.16549-0.000002-0.12935-0.06087-0.23587-0.18261-0.31957-0.12174-0.0875-0.33098-0.18071-0.62772-0.27962-0.12935-0.04565-0.2587-0.09701-0.38805-0.15408-0.12935-0.06087-0.24538-0.13505-0.3481-0.22256-0.10272-0.0913-0.18642-0.19973-0.25109-0.32527-0.06467-0.12935-0.09701-0.28533-0.09701-0.46794s0.03424-0.3462 0.10272-0.49076c0.06848-0.14837 0.16549-0.27391 0.29104-0.37663 0.12554-0.10271 0.27772-0.1807 0.45652-0.23397 0.1788-0.05706 0.38044-0.08559 0.6049-0.0856 0.2663 0.000005 0.49647 0.02854 0.69049 0.0856 0.19402 0.05707 0.3538 0.11984 0.47935 0.18832l-0.2568 0.70191c-0.11033-0.05706-0.23397-0.10652-0.37093-0.14837-0.13316-0.04565-0.29484-0.06848-0.48506-0.06848-0.21305 0.000003-0.36712 0.03044-0.46223 0.0913-0.09131 0.05707-0.13696 0.14647-0.13696 0.26821-0.000002 0.07229 0.01712 0.13316 0.05136 0.18261 0.03424 0.04946 0.08179 0.09511 0.14266 0.13696 0.06467 0.03805 0.13696 0.07419 0.21685 0.10842 0.08369 0.03044 0.175 0.06278 0.27392 0.09701 0.20543 0.07609 0.38424 0.15218 0.53642 0.22826 0.15217 0.07229 0.27772 0.15788 0.37663 0.2568 0.10272 0.09892 0.1788 0.21495 0.22826 0.3481 0.04945 0.13316 0.07418 0.29484 0.07419 0.48506-0.000003 0.36903-0.12935 0.65626-0.38805 0.86169-0.2587 0.20163-0.64865 0.30245-1.1698 0.30245-0.175 0-0.33288-0.01141-0.47364-0.03424-0.14076-0.01902-0.26631-0.04375-0.37663-0.07419-0.10652-0.03043-0.19973-0.06277-0.27962-0.09701-0.07609-0.03424-0.14076-0.06658-0.19402-0.09701l0.25109-0.70762c0.11794 0.06468 0.2625 0.12364 0.4337 0.1769 0.175 0.04946 0.38804 0.07419 0.63914 0.07418"/>
  <path d="m34.578 51.522c0-0.2663 0.03995-0.49837 0.11984-0.6962 0.0837-0.20163 0.19212-0.36902 0.32528-0.50218 0.13315-0.13315 0.28533-0.23397 0.45652-0.30245 0.175-0.06848 0.35381-0.10272 0.53642-0.10272 0.42609 0.000003 0.76278 0.13125 1.0101 0.39375 0.24728 0.2587 0.37092 0.64104 0.37093 1.147-0.000003 0.04946-0.0019 0.10462-0.0057 0.16549-0.0038 0.05707-0.0076 0.10843-0.01141 0.15408h-1.9288c0.01902 0.175 0.10082 0.31386 0.24538 0.41658s0.33859 0.15408 0.58207 0.15408c0.15598 0.000001 0.30815-0.01331 0.45652-0.03995 0.15217-0.03043 0.27582-0.06658 0.37093-0.10842l0.11413 0.69049c-0.04566 0.02283-0.10652 0.04565-0.18261 0.06848s-0.16169 0.04185-0.2568 0.05707c-0.09131 0.01902-0.19022 0.03424-0.29674 0.04565s-0.21305 0.01712-0.31957 0.01712c-0.27011 0-0.50598-0.03995-0.70761-0.11984-0.19783-0.07989-0.36332-0.18832-0.49647-0.32527-0.12935-0.14076-0.22636-0.30625-0.29103-0.49647-0.06087-0.19022-0.09131-0.39565-0.09131-0.61631m1.9973-0.32527c-0.0038-0.07228-0.01712-0.14266-0.03995-0.21114-0.01902-0.06848-0.05136-0.12935-0.09701-0.18261-0.04185-0.05326-0.09701-0.09701-0.16549-0.13125-0.06468-0.03424-0.14647-0.05136-0.24538-0.05136-0.09511 0.000003-0.1769 0.01712-0.24538 0.05136-0.06848 0.03044-0.12555 0.07229-0.1712 0.12554-0.04565 0.05326-0.08179 0.11604-0.10842 0.18832-0.02283 0.06848-0.03995 0.13886-0.05136 0.21114h1.1242"/>
  <path d="m37.911 51.499c0-0.21685 0.03424-0.42038 0.10272-0.6106 0.07228-0.19402 0.175-0.36141 0.30816-0.50218 0.13315-0.14456 0.29484-0.2587 0.48506-0.34239s0.40707-0.12554 0.65055-0.12554c0.15978 0.000003 0.30625 0.01522 0.4394 0.04565 0.13315 0.02663 0.2625 0.06658 0.38805 0.11984l-0.1769 0.67908c-0.07989-0.03043-0.16739-0.05706-0.2625-0.07989-0.09511-0.02282-0.20163-0.03424-0.31957-0.03424-0.25109 0.000002-0.43941 0.07799-0.56495 0.23397-0.12174 0.15598-0.18261 0.36142-0.18261 0.61631-0.000001 0.27011 0.05707 0.47935 0.1712 0.62772 0.11794 0.14837 0.32147 0.22256 0.6106 0.22256 0.10272 0.000001 0.21304-0.0095 0.33098-0.02853 0.11793-0.01902 0.22636-0.04946 0.32527-0.0913l0.11984 0.6962c-0.09892 0.04185-0.22256 0.07799-0.37093 0.10842s-0.31196 0.04565-0.49076 0.04565c-0.27392 0-0.50979-0.03995-0.70761-0.11984-0.19783-0.0837-0.36142-0.19592-0.49076-0.33669-0.12554-0.14076-0.21875-0.30625-0.27962-0.49647-0.05707-0.19402-0.0856-0.40326-0.0856-0.62772"/>
  <path d="m43.569 51.493c-0.000003 0.23587-0.03424 0.45272-0.10272 0.65055-0.06848 0.19402-0.1674 0.36142-0.29674 0.50218-0.12935 0.13696-0.28533 0.24348-0.46794 0.31957-0.17881 0.07609-0.38044 0.11413-0.6049 0.11413-0.22066 0-0.42229-0.03804-0.6049-0.11413-0.17881-0.07609-0.33288-0.18261-0.46223-0.31957-0.12935-0.14076-0.23016-0.30815-0.30245-0.50218-0.07228-0.19783-0.10842-0.41468-0.10842-0.65055-0.000001-0.23587 0.03614-0.45082 0.10842-0.64484 0.07609-0.19402 0.17881-0.35951 0.30816-0.49647 0.13315-0.13696 0.28913-0.24348 0.46794-0.31957 0.18261-0.07608 0.38044-0.11413 0.59348-0.11413 0.21685 0.000003 0.41468 0.03805 0.59348 0.11413 0.18261 0.07609 0.33859 0.18261 0.46794 0.31957s0.23016 0.30245 0.30245 0.49647c0.07228 0.19402 0.10842 0.40897 0.10842 0.64484m-0.8674 0c-0.000002-0.2625-0.05326-0.46794-0.15978-0.61631-0.10272-0.15217-0.25109-0.22826-0.44511-0.22826-0.19402 0.000002-0.3443 0.07609-0.45082 0.22826-0.10652 0.14837-0.15978 0.35381-0.15978 0.61631-0.000001 0.2625 0.05326 0.47174 0.15978 0.62772 0.10652 0.15218 0.25679 0.22826 0.45082 0.22826 0.19402 0.000001 0.34239-0.07609 0.44511-0.22826 0.10652-0.15598 0.15978-0.36522 0.15978-0.62772"/>
  <path d="m44.228 50.101c0.14457-0.04185 0.33098-0.07989 0.55924-0.11413 0.22826-0.03804 0.46794-0.05706 0.71903-0.05707 0.25489 0.000003 0.46604 0.03424 0.63343 0.10272 0.1712 0.06468 0.30625 0.15788 0.40517 0.27962 0.09891 0.12174 0.16929 0.26631 0.21114 0.4337s0.06277 0.35381 0.06277 0.55924v1.6949h-0.85028v-1.5921c-0.000002-0.27391-0.03614-0.46794-0.10842-0.58207s-0.20734-0.1712-0.40517-0.1712c-0.06087 0.000002-0.12555 0.0038-0.19402 0.01141-0.06848 0.0038-0.12935 0.0095-0.18261 0.01712v2.3169h-0.85028v-2.8989"/>
  <path d="m48.319 51.476c-0.000001 0.2625 0.05897 0.47365 0.1769 0.63343s0.29294 0.23968 0.525 0.23968c0.07609 0.000001 0.14647-0.0019 0.21114-0.0057 0.06467-0.0076 0.11793-0.01522 0.15978-0.02283v-1.5465c-0.05326-0.03424-0.12364-0.06277-0.21114-0.0856-0.0837-0.02282-0.1693-0.03424-0.2568-0.03424-0.40326 0.000002-0.6049 0.27392-0.6049 0.82174m1.9231 1.4266c-0.07609 0.02283-0.16359 0.04565-0.2625 0.06848-0.09892 0.01902-0.20354 0.03614-0.31386 0.05136-0.10652 0.01522-0.21685 0.02663-0.33098 0.03424-0.11033 0.01141-0.21685 0.01712-0.31957 0.01712-0.24729 0-0.46794-0.03614-0.66196-0.10842s-0.35761-0.175-0.49076-0.30816c-0.13315-0.13696-0.23587-0.30054-0.30816-0.49076-0.06848-0.19402-0.10272-0.41087-0.10272-0.65055 0-0.24348 0.03043-0.46223 0.0913-0.65626 0.06087-0.19782 0.14837-0.36522 0.2625-0.50218s0.25299-0.24158 0.41658-0.31386c0.16739-0.07228 0.35761-0.10842 0.57066-0.10842 0.11793 0.000003 0.22256 0.01142 0.31386 0.03424 0.09511 0.02283 0.19022 0.05517 0.28533 0.09701v-1.3582l0.85028-0.13696v4.3313"/>
  <path d="m55.217 51.493c-0.000003 0.23587-0.03424 0.45272-0.10272 0.65055-0.06848 0.19402-0.1674 0.36142-0.29674 0.50218-0.12935 0.13696-0.28533 0.24348-0.46794 0.31957-0.17881 0.07609-0.38044 0.11413-0.6049 0.11413-0.22066 0-0.42229-0.03804-0.6049-0.11413-0.17881-0.07609-0.33288-0.18261-0.46223-0.31957-0.12935-0.14076-0.23016-0.30815-0.30245-0.50218-0.07228-0.19783-0.10842-0.41468-0.10842-0.65055-0.000001-0.23587 0.03614-0.45082 0.10842-0.64484 0.07609-0.19402 0.17881-0.35951 0.30816-0.49647 0.13315-0.13696 0.28913-0.24348 0.46794-0.31957 0.18261-0.07608 0.38044-0.11413 0.59348-0.11413 0.21685 0.000003 0.41468 0.03805 0.59348 0.11413 0.18261 0.07609 0.33859 0.18261 0.46794 0.31957s0.23016 0.30245 0.30245 0.49647c0.07228 0.19402 0.10842 0.40897 0.10842 0.64484m-0.8674 0c-0.000003-0.2625-0.05326-0.46794-0.15978-0.61631-0.10272-0.15217-0.25109-0.22826-0.44511-0.22826-0.19402 0.000002-0.3443 0.07609-0.45082 0.22826-0.10652 0.14837-0.15978 0.35381-0.15978 0.61631-0.000001 0.2625 0.05326 0.47174 0.15978 0.62772 0.10652 0.15218 0.25679 0.22826 0.45082 0.22826 0.19402 0.000001 0.34239-0.07609 0.44511-0.22826 0.10652-0.15598 0.15978-0.36522 0.15978-0.62772"/>
  <path d="m57.798 51.522c-0.000002-0.2625-0.05897-0.47174-0.1769-0.62772-0.11794-0.15978-0.29294-0.23967-0.525-0.23968-0.07609 0.000002-0.14647 0.0038-0.21114 0.01141-0.06468 0.0038-0.11794 0.0095-0.15978 0.01712v1.5351c0.05326 0.03424 0.12174 0.06277 0.20544 0.0856 0.0875 0.02283 0.175 0.03424 0.2625 0.03424 0.40326 0.000001 0.60489-0.27201 0.6049-0.81604m0.8674-0.02283c-0.000004 0.23207-0.02854 0.44321-0.0856 0.63343-0.05707 0.19022-0.14076 0.35381-0.25109 0.49076-0.11033 0.13696-0.24729 0.24348-0.41087 0.31957-0.16359 0.07609-0.35191 0.11413-0.56495 0.11413-0.11794 0-0.22826-0.01141-0.33098-0.03424-0.102-0.023-0.201-0.055-0.296-0.097v1.1299h-0.85028v-3.9547c0.07609-0.02282 0.16359-0.04375 0.2625-0.06277 0.09891-0.02282 0.20163-0.04185 0.30816-0.05707 0.11033-0.01521 0.22065-0.02663 0.33098-0.03424 0.11413-0.01141 0.22255-0.01712 0.32527-0.01712 0.24728 0.000003 0.46794 0.03805 0.66196 0.11413 0.19402 0.07229 0.35761 0.17691 0.49076 0.31386 0.13315 0.13316 0.23397 0.29674 0.30245 0.49076 0.07228 0.19402 0.10842 0.41088 0.10842 0.65055"/>
  <path d="m59.291 49.251 0.85028-0.13696v0.88452h1.0215v0.70762h-1.0215v1.0557c-0.000001 0.17881 0.03043 0.32147 0.09131 0.42799 0.06467 0.10652 0.19212 0.15978 0.38234 0.15978 0.0913 0.000001 0.18451-0.0076 0.27962-0.02283 0.09891-0.01902 0.18831-0.04375 0.26821-0.07418l0.11984 0.66196c-0.10272 0.04185-0.21685 0.07799-0.34239 0.10842-0.12555 0.03043-0.27962 0.04565-0.46223 0.04565-0.23207 0-0.42419-0.03044-0.57636-0.09131-0.15218-0.06468-0.27392-0.15218-0.36522-0.2625-0.09131-0.11413-0.15598-0.25109-0.19402-0.41087-0.03424-0.15978-0.05136-0.33669-0.05136-0.53071v-2.5223"/>
  <path d="m62.7 53h-0.85028v-3.0017h0.85028v3.0017m0.07989-3.8691c-0.000002 0.15598-0.05136 0.27962-0.15408 0.37093-0.09892 0.0875-0.21685 0.13125-0.35381 0.13125-0.13696 0.000003-0.2568-0.04375-0.35951-0.13125-0.09891-0.0913-0.14837-0.21494-0.14837-0.37093 0-0.15598 0.04946-0.27772 0.14837-0.36522 0.10272-0.0913 0.22256-0.13695 0.35951-0.13696 0.13696 0.000004 0.25489 0.04566 0.35381 0.13696 0.10272 0.08751 0.15408 0.20924 0.15408 0.36522"/>
  <path d="m66.307 51.493c-0.000003 0.23587-0.03424 0.45272-0.10272 0.65055-0.06848 0.19402-0.1674 0.36142-0.29674 0.50218-0.12935 0.13696-0.28533 0.24348-0.46794 0.31957-0.17881 0.07609-0.38044 0.11413-0.6049 0.11413-0.22066 0-0.42229-0.03804-0.6049-0.11413-0.17881-0.07609-0.33288-0.18261-0.46223-0.31957-0.12935-0.14076-0.23017-0.30815-0.30245-0.50218-0.07228-0.19783-0.10842-0.41468-0.10842-0.65055s0.03614-0.45082 0.10842-0.64484c0.07609-0.19402 0.1788-0.35951 0.30815-0.49647 0.13315-0.13696 0.28913-0.24348 0.46794-0.31957 0.18261-0.07608 0.38044-0.11413 0.59348-0.11413 0.21685 0.000003 0.41468 0.03805 0.59348 0.11413 0.18261 0.07609 0.33859 0.18261 0.46794 0.31957 0.12934 0.13696 0.23016 0.30245 0.30245 0.49647 0.07228 0.19402 0.10842 0.40897 0.10842 0.64484m-0.8674 0c-0.000002-0.2625-0.05326-0.46794-0.15978-0.61631-0.10272-0.15217-0.25109-0.22826-0.44511-0.22826-0.19402 0.000002-0.3443 0.07609-0.45082 0.22826-0.10652 0.14837-0.15978 0.35381-0.15978 0.61631-0.000001 0.2625 0.05326 0.47174 0.15978 0.62772 0.10652 0.15218 0.25679 0.22826 0.45082 0.22826 0.19402 0.000001 0.34239-0.07609 0.44511-0.22826 0.10652-0.15598 0.15978-0.36522 0.15978-0.62772"/>
  <path d="m66.965 50.101c0.14457-0.04185 0.33098-0.07989 0.55924-0.11413 0.22826-0.03804 0.46794-0.05706 0.71903-0.05707 0.25489 0.000003 0.46603 0.03424 0.63343 0.10272 0.17119 0.06468 0.30625 0.15788 0.40517 0.27962 0.09891 0.12174 0.16929 0.26631 0.21114 0.4337s0.06277 0.35381 0.06277 0.55924v1.6949h-0.85028v-1.5921c-0.000003-0.27391-0.03614-0.46794-0.10842-0.58207-0.07229-0.11413-0.20734-0.1712-0.40517-0.1712-0.06087 0.000002-0.12555 0.0038-0.19402 0.01141-0.06848 0.0038-0.12935 0.0095-0.18261 0.01712v2.3169h-0.85028v-2.8989"/>
 </g>
 <rect x="55" stroke-width="0.992" y="61.23" fill="#666" color="#000000" stroke="#fff" height="5" opacity="0.5" stroke-dashoffset="8.6" width="16.739" stroke-linecap="round"/>
 <rect x="33.34" stroke-width="0.992" y="61.23" fill="#666" color="#000000" stroke="#fff" height="5" opacity="0.3" stroke-dashoffset="8.6" width="16.739" stroke-linecap="round"/>
 <use xlink:href="#SVGCleanerId_0"/>
 <use xlink:href="#SVGCleanerId_1"/>
 <use xlink:href="#SVGCleanerId_2"/>
 <use xlink:href="#SVGCleanerId_3"/>
</svg>
