<svg height="96" width="96" xmlns="http://www.w3.org/2000/svg" xmlns:xlink="http://www.w3.org/1999/xlink">
 <defs>
  <linearGradient id="linearGradient15916">
   <stop stop-color="#b4b4b4"/>
   <stop stop-color="#b4b4b4" stop-opacity="0" offset="1"/>
  </linearGradient>
  <radialGradient cy="360.77" r="21.302" xlink:href="#linearGradient15916" gradientUnits="userSpaceOnUse" id="radialGradient8416" cx="303.16" gradientTransform="matrix(0.44073 -0.24657 0.39119 0.69922 -196.61 -156.38)"/>
  <linearGradient x1="320.6" x2="293.81" xlink:href="#linearGradient15916" y1="345.4" y2="361.49" gradientUnits="userSpaceOnUse" id="linearGradient8419" gradientTransform="matrix(1 0 0 1 -224.68 -343.18)"/>
  <filter x="-0.162" y="-0.095" height="1.191" color-interpolation-filters="sRGB" id="filter3429" width="1.324">
   <feGaussianBlur stdDeviation="0.53551"/>
  </filter>
  <filter x="-0.166" y="-0.037" height="1.073" color-interpolation-filters="sRGB" id="filter3243" width="1.332">
   <feGaussianBlur stdDeviation="0.9"/>
  </filter>
  <clipPath id="clipPath3235">
   <use xlink:href="#SVGCleanerId_0"/>
  </clipPath>
  <linearGradient id="linearGradient3354-1">
   <stop stop-color="#b4b4b4"/>
   <stop stop-color="#646464" offset="0.205"/>
   <stop stop-color="#fff" offset="0.496"/>
   <stop stop-color="#3c3c3c" offset="1"/>
  </linearGradient>
  <linearGradient id="linearGradient3435">
   <stop stop-color="#ededed"/>
   <stop stop-color="#b0b0b0" offset="1"/>
  </linearGradient>
  <linearGradient x1="68.75" x2="75.25" xlink:href="#linearGradient3354-1" gradientUnits="userSpaceOnUse" id="linearGradient8452" gradientTransform="matrix(1 0 0 1 -23.713 -1.712)"/>
  <linearGradient x1="63.48" x2="79" y1="64.16" y2="65" gradientUnits="userSpaceOnUse" id="linearGradient8458" gradientTransform="matrix(1 0 0 1 -23.713 -0.712)">
   <stop stop-color="#a2a2a2"/>
   <stop stop-color="#fff" offset="1"/>
  </linearGradient>
  <linearGradient x1="68.03" x2="75.971" xlink:href="#linearGradient3435" gradientUnits="userSpaceOnUse" id="linearGradient8460" gradientTransform="matrix(1 0 0 1 -23.713 -2.712)"/>
  <linearGradient x1="68.969" x2="75.06" xlink:href="#linearGradient3435" gradientUnits="userSpaceOnUse" id="linearGradient8462" gradientTransform="matrix(-1 0 0 1 120.32 -2.712)"/>
  <linearGradient x1="68.75" x2="72.25" xlink:href="#linearGradient3354-1" gradientUnits="userSpaceOnUse" id="linearGradient8464" gradientTransform="matrix(1.1263 0 0 1 -31.11 -50.21)"/>
  <linearGradient x2="0" y1="65.59" y2="5.833" gradientUnits="userSpaceOnUse" id="linearGradient8478" gradientTransform="matrix(1.2324 0 0 1.3222 -12.09 -4.447)">
   <stop stop-color="#dcdcdc"/>
   <stop stop-color="#fafafa" offset="1"/>
  </linearGradient>
  <clipPath clipPathUnits="userSpaceOnUse" id="clipPath8486">
   <path d="m17.747 5.5143c-6.6418 0-11.969 5.3946-11.969 12.062v61.031c0 6.668 5.327 12.031 11.969 12.031h60.813c6.6418 0 11.969-5.3632 11.969-12.031l-0.06245-33.438c-0.0731-3.3855-0.11339-5.4702-1.6562-8.3125l-16.283-29.967c-0.544-0.7689-1.558-1.3403-2.625-1.3747z"/>
  </clipPath>
  <linearGradient x1="69" x2="73" gradientUnits="userSpaceOnUse" id="linearGradient8096" gradientTransform="matrix(1 0 0 1 -23.713 -1.712)">
   <stop stop-color="#fff"/>
   <stop stop-color="#8c8c8c" offset="0.49"/>
   <stop stop-color="#cfcfcf" offset="0.5"/>
   <stop stop-color="#fff" offset="0.623"/>
   <stop stop-color="#c8c8c8" offset="0.817"/>
   <stop stop-color="#505050" offset="1"/>
  </linearGradient>
  <linearGradient x1="69" x2="73" gradientUnits="userSpaceOnUse" id="linearGradient8098" gradientTransform="matrix(-1 0 0 1 120.29 -4.712)">
   <stop stop-color="#2f2f2f"/>
   <stop stop-color="#fff" offset="0.437"/>
   <stop stop-color="#979797" offset="0.621"/>
   <stop stop-color="#505050" offset="0.772"/>
   <stop stop-color="#e6e6e6" offset="1"/>
  </linearGradient>
  <linearGradient x1="19.472" x2="28.06" y1="40" y2="54.868" gradientUnits="userSpaceOnUse" id="linearGradient8101" gradientTransform="matrix(1 0 0 1 -6.916 -29.403)">
   <stop stop-color="#fff"/>
   <stop stop-color="#fff" stop-opacity="0" offset="1"/>
  </linearGradient>
  <path d="m66 6v55c0 1.662 1.338 3 3 3h6c1.662 0 3-1.338 3-3v-55h-4v2h-4v-2h-4z" id="SVGCleanerId_0"/>
 </defs>
 <path d="m16.059 3.1081c-7.049 0-12.719 5.6697-12.719 12.719v64.531c0 7.049 5.6697 12.719 12.719 12.719h64.188c7.049 0 12.719-5.6697 12.719-12.719v-35.013c-0.0367-3.8222-0.0417-6.3452-1.8012-9.5856l-16.206-29.842c-1.0788-1.8835-2.0313-2.8088-5.1346-2.8088z" fill-opacity="0.02"/>
 <path d="m16.497 3.7018c-6.9538 0-12.531 5.6087-12.531 12.562v63.656c0 6.9538 5.5775 12.531 12.531 12.531h63.312c6.9538 0 12.562-5.5775 12.562-12.531v-34.607c-0.0741-3.7145-0.0646-6.1373-1.775-9.2846l-16.222-29.849c-0.90306-1.708-1.7952-2.4773-4.5338-2.4773z" fill-opacity="0.039"/>
 <path d="m16.934 4.3268c-6.8585 0-12.375 5.5165-12.375 12.375v62.781c0 6.8585 5.5165 12.375 12.375 12.375h62.438c6.8585 0 12.375-5.5165 12.375-12.375v-34.169c-0.0596-3.6037-0.0554-5.964-1.7158-9.0186l-16.222-29.842c-0.57824-1.2184-1.5501-2.1266-3.906-2.1266z" fill-opacity="0.078"/>
 <path d="m17.372 4.9206c-6.7632 0-12.219 5.4555-12.219 12.219v61.906c0 6.7632 5.4555 12.219 12.219 12.219h61.562c6.7632 0 12.219-5.4555 12.219-12.219v-33.794c-0.0346-3.5165-0.0841-5.7358-1.6885-8.6896l-16.237-29.895c-0.43675-0.77203-1.3586-1.7467-3.3394-1.7467z" fill-opacity="0.157"/>
 <path d="m2.6985 3.4863c-4.0966 0-7.3947 3.5381-7.3947 7.9331v74.042c0 4.3949 3.298 7.9331 7.3947 7.9331h88.736c4.0966 0 7.3947-3.5381 7.3947-7.9331v-74.042c0-4.3949-3.298-7.9331-7.3947-7.9331h-11.092v3.9665h-7.3947v-3.9665h-70.249z" clip-path="url(#clipPath8486)" fill="url(#linearGradient8478)"/>
 <path d="m5.7709 77.595v1.0133c0 6.668 5.3434 12.032 11.985 12.032h60.809c6.6418 0 11.985-5.3645 11.985-12.032v-1.0133c0 6.6681-5.3434 12.032-11.985 12.032h-60.809c-6.6418 0-11.985-5.3644-11.985-12.032z" fill-opacity="0.098"/>
 <path d="m57.817 5.6171v85.125h20.906c6.6418 0 11.969-5.3632 11.969-12.031v-61.031c0-0.92374-0.1187-1.7923-0.3125-2.6562 0.15863 0.78565 0.25 1.604 0.25 2.4375v27.812c-0.0731-3.3855-0.11339-5.4702-1.6562-8.3125l-16.282-29.968c-0.53945-0.76243-1.3896-1.1622-2.5938-1.375h-12.281z" fill="url(#linearGradient8419)"/>
 <path d="m71.473 4.4296c-7.4721 3.35-12.688 10.913-12.688 19.719 0 11.911 9.5167 21.562 21.281 21.562 4.3866 0 8.4555-1.3551 11.844-3.6562l-20.437-37.625z" stroke-width="0.1" fill="url(#radialGradient8416)"/>
 <path d="m72.4 6.5777c-0.341-0.3041-0.564-0.3884-0.564-0.3884s0.83487 0.58215-0.16423 2.3199c-3.6996 5.3693-2.6956 12.724 2.4663 16.827l13.888 11.014c0.78033 0.57546 0.96083 0.84746 1.2481 1.2895z" fill="#ccc"/>
 <path d="m72.648 6.9456c-0.26811-0.37128-0.48292-0.5133-0.48292-0.5133s0.74441 0.70007-0.21905 2.3758c-3.5676 5.1777-2.5994 12.27 2.3783 16.227l13.393 10.621c0.75249 0.55493 0.92655 0.81722 1.2036 1.2435z" fill="#fff"/>
 <g transform="matrix(1.1658 0 0 1.1658 -7.419 -0.876)">
  <path d="m42.287 5.2878v55c0 1.662 1.338 3 3 3h6c1.662 0 3-1.338 3-3v-55h-4v2h-4v-2h-4z" fill="#252525"/>
  <rect x="46.29" y="7.288" fill="#4d4d4d" height="49" width="4"/>
  <rect stroke-opacity="0.564" x="45.29" stroke-width="0.5" rx="1" y="55.29" fill="url(#linearGradient8452)" stroke="#000" height="4" width="6" stroke-linecap="square"/>
  <use stroke-width="2" xlink:href="#SVGCleanerId_0" clip-path="url(#clipPath3235)" fill="none" stroke="#000" filter="url(#filter3243)" stroke-linecap="square" transform="matrix(1 0 0 1 -23.713 -0.712)"/>
  <path stroke-opacity="0.564" d="m45.787 50.288c-0.26977 0-0.5 0.21796-0.5 0.5v3c0 0.28204 0.23023 0.5 0.5 0.5h1c0.26977 0 0.5-0.21796 0.5-0.5v-0.5h1.5c0.277 0 0.5-0.223 0.5-0.5v-1c0-0.277-0.223-0.5-0.5-0.5h-1.5v-0.5c0-0.28204-0.23023-0.5-0.5-0.5h-1z" stroke-width="0.5" fill="url(#linearGradient8096)" stroke="#000" id="rect3249" stroke-linecap="square"/>
  <use xlink:href="#rect3249" height="96" id="use3308" width="96" transform="matrix(1 0 0 1 0 -6)"/>
  <use xlink:href="#use3308" height="96" id="use3310" width="96" transform="matrix(1 0 0 1 0 -6)"/>
  <use xlink:href="#use3310" height="96" id="use3312" width="96" transform="matrix(1 0 0 1 0 -6)"/>
  <use xlink:href="#use3312" height="96" id="use3314" width="96" transform="matrix(1 0 0 1 0 -6)"/>
  <use xlink:href="#use3314" height="96" id="use3316" width="96" transform="matrix(1 0 0 1 0 -6)"/>
  <use xlink:href="#use3316" height="96" id="use3318" width="96" transform="matrix(1 0 0 1 0 -6)"/>
  <use xlink:href="#use3318" height="96" width="96" transform="matrix(1 0 0 1 0 -6)"/>
  <path stroke-opacity="0.564" d="m50.787 47.288c0.26977 0 0.5 0.21796 0.5 0.5v3c0 0.28204-0.23023 0.5-0.5 0.5h-1c-0.26977 0-0.5-0.21796-0.5-0.5v-0.5h-1.5c-0.277 0-0.5-0.223-0.5-0.5v-1c0-0.277 0.223-0.5 0.5-0.5h1.5v-0.5c0-0.28204 0.23023-0.5 0.5-0.5h1z" stroke-width="0.5" fill="url(#linearGradient8098)" stroke="#000" id="path3322" stroke-linecap="square"/>
  <use xlink:href="#path3322" height="96" id="use3340" width="96" transform="matrix(1 0 0 1 0 -6)"/>
  <use xlink:href="#use3340" height="96" id="use3342" width="96" transform="matrix(1 0 0 1 0 -6)"/>
  <use xlink:href="#use3342" height="96" id="use3344" width="96" transform="matrix(1 0 0 1 0 -6)"/>
  <use xlink:href="#use3344" height="96" id="use3346" width="96" transform="matrix(1 0 0 1 0 -6)"/>
  <use xlink:href="#use3346" height="96" id="use3348" width="96" transform="matrix(1 0 0 1 0 -6)"/>
  <use xlink:href="#use3348" height="96" width="96" transform="matrix(1 0 0 1 0 -6)"/>
  <path d="m41.287 5.2878v55c0 2.2023 1.7977 4 4 4h6c2.2023 0 4-1.7977 4-4v-55h-1v55c0 1.662-1.338 3-3 3h-6c-1.662 0-3-1.338-3-3v-55h-1z" fill="url(#linearGradient8458)"/>
  <path stroke-opacity="0.564" d="m45.787 7.8191c-1.0277 0-1.9688 0.7652-1.9688 1.8125v10.812c-0.000005 1.0473 0.91808 1.8438 1.9688 1.8438h5c1.0507 0 1.9688-0.79645 1.9688-1.8438v-10.812c-0.000003-1.0473-0.94105-1.8125-1.9688-1.8125h-5zm1.0625 9.0625h2.875v1.75h-2.875v-1.75z" stroke-width="0.5" stroke="#000" filter="url(#filter3429)" stroke-linecap="square"/>
  <path d="m45.516 8.3092c-0.68714 0-1.2292 0.48237-1.2292 1.0815l-0.0051 10.815c0.000022 0.59918 0.54213 1.0815 1.2293 1.0815h5.5832c0.68714 0 1.2292-0.48237 1.2292-1.0815l0.0051-10.815c0-0.59918-0.54211-1.0815-1.2292-1.0815h-5.5832zm0.7043 7.9496h4.1013v3.1184h-4.1013v-3.1184z" fill="url(#linearGradient8460)"/>
  <path d="m50.849 9.2566c0.277 0 0.5 0.223 0.5 0.5v10.062c0 0.277-0.223 0.5-0.5 0.5h-5.0938c-0.277 0-0.5-0.223-0.5-0.5v-10.062c0-0.277 0.223-0.5 0.5-0.5h5.0938zm-0.4375 6.9687h-4.125v3.125h4.125v-3.125z" fill="url(#linearGradient8462)"/>
  <rect stroke-opacity="0.564" x="46.597" rx="0.563" ry="0.5" y="6.788" fill="url(#linearGradient8464)" stroke="#000" height="5" width="3.379" stroke-linecap="square"/>
  <rect x="46.27" y="15.288" height="1" opacity="0.3" width="4"/>
 </g>
 <path d="m11.584 10.597c-1.385 0-2.5 1.115-2.5 2.5v19c0 1.385 1.115 2.5 2.5 2.5h15c1.385 0 2.5-1.115 2.5-2.5v-19c0-1.385-1.115-2.5-2.5-2.5h-15zm0 1h15c0.84285 0 1.5 0.65715 1.5 1.5v19c0 0.84285-0.65715 1.5-1.5 1.5h-15c-0.84285 0-1.5-0.65715-1.5-1.5v-19c0-0.84285 0.65715-1.5 1.5-1.5z" fill="url(#linearGradient8101)" opacity="0.2"/>
 <text font-size="13.522" x="10.02" letter-spacing="0" y="26.13" line-height="125%" fill="#000000" word-spacing="0" font-family="Sans"><tspan x="10.02" y="26.13">ACE</tspan>
 </text>
</svg>
