<svg height="96" width="96" xmlns="http://www.w3.org/2000/svg" xmlns:xlink="http://www.w3.org/1999/xlink">
 <defs>
  <filter x="-0.192" y="-0.192" height="1.384" color-interpolation-filters="sRGB" id="filter3794-58" width="1.384">
   <feGaussianBlur stdDeviation="5.28"/>
  </filter>
  <linearGradient x2="0" y1="20.221" y2="138.66" gradientUnits="userSpaceOnUse" id="linearGradient11029">
   <stop stop-color="#fff"/>
   <stop stop-color="#fff" stop-opacity="0" offset="1"/>
  </linearGradient>
  <linearGradient id="linearGradient15916">
   <stop stop-color="#b4b4b4"/>
   <stop stop-color="#b4b4b4" stop-opacity="0" offset="1"/>
  </linearGradient>
  <linearGradient x2="0" y1="90" y2="5.988" gradientUnits="userSpaceOnUse" id="linearGradient8339" gradientTransform="matrix(1.0959 0 0 1.0685 -4.442 -3.204)">
   <stop stop-color="#ebebeb"/>
   <stop stop-color="#fafafa" offset="1"/>
  </linearGradient>
  <radialGradient cy="360.77" r="21.302" xlink:href="#linearGradient15916" gradientUnits="userSpaceOnUse" id="radialGradient8416" cx="303.16" gradientTransform="matrix(0.44073 -0.24657 0.39119 0.69922 -196.61 -156.38)"/>
  <linearGradient x1="320.6" x2="293.81" xlink:href="#linearGradient15916" y1="345.4" y2="361.49" gradientUnits="userSpaceOnUse" id="linearGradient8419" gradientTransform="matrix(1 0 0 1 -224.68 -343.18)"/>
  <clipPath id="clipPath3613-70">
   <use xlink:href="#SVGCleanerId_0"/>
  </clipPath>
  <linearGradient x2="0" y1="72" y2="24" gradientUnits="userSpaceOnUse" id="linearGradient8000" gradientTransform="matrix(1.0172 0 0 1.0088 -0.445 0.867)">
   <stop stop-color="#bababa"/>
   <stop stop-color="#d2d2d2" offset="1"/>
  </linearGradient>
  <rect x="6" rx="6" y="6" height="84" id="SVGCleanerId_0" width="84"/>
 </defs>
 <path d="m16.059 3.1081c-7.049 0-12.719 5.6697-12.719 12.719v64.531c0 7.049 5.6697 12.719 12.719 12.719h64.188c7.049 0 12.719-5.6697 12.719-12.719v-35.013c-0.0367-3.8222-0.0417-6.3452-1.8012-9.5856l-16.206-29.842c-1.0788-1.8835-2.0313-2.8088-5.1346-2.8088z" fill-opacity="0.02"/>
 <path d="m16.497 3.7018c-6.9538 0-12.531 5.6087-12.531 12.562v63.656c0 6.9538 5.5775 12.531 12.531 12.531h63.312c6.9538 0 12.562-5.5775 12.562-12.531v-34.607c-0.0741-3.7145-0.0646-6.1373-1.775-9.2846l-16.222-29.849c-0.90306-1.708-1.7952-2.4773-4.5338-2.4773z" fill-opacity="0.039"/>
 <path d="m16.934 4.3268c-6.8585 0-12.375 5.5165-12.375 12.375v62.781c0 6.8585 5.5165 12.375 12.375 12.375h62.438c6.8585 0 12.375-5.5165 12.375-12.375v-34.169c-0.0596-3.6037-0.0554-5.964-1.7158-9.0186l-16.222-29.842c-0.57824-1.2184-1.5501-2.1266-3.906-2.1266z" fill-opacity="0.078"/>
 <path d="m17.372 4.9206c-6.7632 0-12.219 5.4555-12.219 12.219v61.906c0 6.7632 5.4555 12.219 12.219 12.219h61.562c6.7632 0 12.219-5.4555 12.219-12.219v-33.794c-0.0346-3.5165-0.0841-5.7358-1.6885-8.6896l-16.237-29.895c-0.43675-0.77203-1.3586-1.7467-3.3394-1.7467z" fill-opacity="0.157"/>
 <path d="m17.747 5.5143c-6.6418 0-11.969 5.3946-11.969 12.062v61.031c0 6.668 5.327 12.031 11.969 12.031h60.813c6.6418 0 11.969-5.3632 11.969-12.031l-0.06245-33.438c-0.0731-3.3855-0.11339-5.4702-1.6562-8.3125l-16.283-29.967c-0.544-0.7689-1.558-1.3403-2.625-1.3747z" fill="url(#linearGradient8339)"/>
 <path d="m5.7709 77.595v1.0133c0 6.668 5.3434 12.032 11.985 12.032h60.809c6.6418 0 11.985-5.3645 11.985-12.032v-1.0133c0 6.6681-5.3434 12.032-11.985 12.032h-60.809c-6.6418 0-11.985-5.3644-11.985-12.032z" fill-opacity="0.098"/>
 <path d="m57.817 5.6171v85.125h20.906c6.6418 0 11.969-5.3632 11.969-12.031v-61.031c0-0.92374-0.1187-1.7923-0.3125-2.6562 0.15863 0.78565 0.25 1.604 0.25 2.4375v27.812c-0.0731-3.3855-0.11339-5.4702-1.6562-8.3125l-16.282-29.968c-0.53945-0.76243-1.3896-1.1622-2.5938-1.375h-12.281z" fill="url(#linearGradient8419)"/>
 <path d="m71.473 4.4296c-7.4721 3.35-12.688 10.913-12.688 19.719 0 11.911 9.5167 21.562 21.281 21.562 4.3866 0 8.4555-1.3551 11.844-3.6562l-20.437-37.625z" stroke-width="0.1" fill="url(#radialGradient8416)"/>
 <path d="m72.4 6.5777c-0.341-0.3041-0.564-0.3884-0.564-0.3884s0.83487 0.58215-0.16423 2.3199c-3.6996 5.3693-2.6956 12.724 2.4663 16.827l13.888 11.014c0.78033 0.57546 0.96083 0.84746 1.2481 1.2895z" fill="#ccc"/>
 <path d="m72.648 6.9456c-0.26811-0.37128-0.48292-0.5133-0.48292-0.5133s0.74441 0.70007-0.21905 2.3758c-3.5676 5.1777-2.5994 12.27 2.3783 16.227l13.393 10.621c0.75249 0.55493 0.92655 0.81722 1.2036 1.2435z" fill="#fff"/>
 <g transform="matrix(1 0 0 1 -0.252 -0.469)">
  <path d="m42.628 27.002c-2.3642 0.03618-5.1848 0.64794-8.6781 2.0807l-4.5775 15.763c3.7035-1.5165 6.6103-2.2259 9.0596-2.2068 3.7139 0.02719 6.3125 1.561 8.7417 3.1841l4.61-15.7c-2.522-1.692-5.215-3.182-9.155-3.121zm11.571 4.7919-4.5775 15.763c4.0243 2.706 8.8821 4.9346 17.801 0.97729l4.5775-15.731c-9.303 3.812-13.774 1.681-17.801-1.009zm-16.943 13.871c-2.3622 0.05699-5.1647 0.65841-8.6464 2.0807h-0.06358l-4.546 15.699c9.3215-3.8221 13.73-1.6217 17.77 1.0719l4.6411-15.826c-2.5152-1.6936-5.2179-3.1214-9.155-3.0264zm11.603 4.5397-4.6093 15.668c4.0317 2.7112 8.522 4.891 17.833 1.0719l4.418-15.29c-9.487 3.216-13.607 1.242-17.643-1.451z" fill="url(#linearGradient8000)"/>
  <path d="m42.625 27c-2.3642 0.03618-5.1942 0.66102-8.6875 2.0938l-4.5625 15.75c0.11092-0.04542 0.203-0.08103 0.3125-0.125l4.25-14.625c3.493-1.433 6.323-2.058 8.687-2.094 3.8144-0.05837 6.4531 1.3449 8.9062 2.9688l0.25-0.84375c-2.522-1.692-5.216-3.185-9.156-3.125zm11.563 4.781-4.563 15.781c0.08067 0.05424 0.16864 0.10244 0.25 0.15625l4.3125-14.938c3.9802 2.6592 8.4168 4.7877 17.5 1.1562l0.312-1.124c-9.303 3.813-13.785 1.66-17.812-1.031zm-16.938 13.875c-2.3622 0.05699-5.1746 0.67149-8.6562 2.0938h-0.0625l-4.532 15.688c0.10893-0.04466 0.20491-0.08197 0.3125-0.125l4.2188-14.562h0.0625c3.4817-1.4223 6.294-2.0368 8.6562-2.0938 3.8083-0.09188 6.4603 1.2549 8.9062 2.875l0.25-0.84375c-2.514-1.694-5.218-3.127-9.155-3.032zm11.594 4.563-4.594 15.656c0.082 0.05514 0.16759 0.1016 0.25 0.15625l4.3438-14.812c3.9904 2.6623 8.0842 4.5957 17.344 1.5312l0.312-1.094c-9.4867 3.2167-13.62 1.2553-17.656-1.4375z" opacity="0.2"/>
  <path d="m51.531 30.969-4.343 14.843c-2.4293-1.623-5.0361-3.1603-8.75-3.1875-2.3759-0.01853-5.2034 0.66951-8.75 2.0938l-0.3125 1.125c3.7035-1.5165 6.6132-2.2379 9.0625-2.2188 3.7139 0.02719 6.3207 1.5645 8.75 3.1875l4.593-15.687c-0.08061-0.05407-0.169-0.10264-0.25-0.15625zm20.469 2.843c-0.10871 0.04455-0.2051 0.08206-0.3125 0.125l-4.25 14.594c-8.7404 3.878-13.585 1.8183-17.562-0.8125l-0.25 0.84375c4.0243 2.706 8.8933 4.926 17.812 0.96875l4.562-15.719zm-25.844 15.719-4.375 15c-3.992-2.662-8.369-4.858-17.469-1.219l-0.312 1.126c9.3215-3.8221 13.742-1.5998 17.781 1.0938l4.625-15.844c-0.08223-0.05537-0.16734-0.1015-0.25-0.15625zm20.344 3.125c-0.108 0.037-0.206 0.059-0.312 0.094l-4.094 14.188c-9.122 3.741-13.624 1.726-17.594-0.907l-0.25 0.844c4.0317 2.7112 8.5327 4.8817 17.844 1.0625l4.406-15.282z" fill="#fff"/>
 </g>
 <rect x="15" stroke-width="0.5" rx="12" y="15" clip-path="url(#clipPath3613-70)" fill="url(#linearGradient11029)" stroke="#fff" height="66" filter="url(#filter3794-58)" opacity="0.5" stroke-linecap="round" width="66" transform="matrix(1 0 0 1 -0.252 -0.469)"/>
</svg>
