<svg height="96" width="96" xmlns="http://www.w3.org/2000/svg" xmlns:xlink="http://www.w3.org/1999/xlink">
 <defs>
  <linearGradient id="linearGradient15916">
   <stop stop-color="#b4b4b4"/>
   <stop stop-color="#b4b4b4" stop-opacity="0" offset="1"/>
  </linearGradient>
  <linearGradient x2="0" y1="90" y2="5.988" gradientUnits="userSpaceOnUse" id="linearGradient8339" gradientTransform="matrix(1.0959 0 0 1.0685 -4.442 -3.204)">
   <stop stop-color="#ebebeb"/>
   <stop stop-color="#fafafa" offset="1"/>
  </linearGradient>
  <radialGradient cy="360.77" r="21.302" xlink:href="#linearGradient15916" gradientUnits="userSpaceOnUse" id="radialGradient8416" cx="303.16" gradientTransform="matrix(0.44073 -0.24657 0.39119 0.69922 -196.61 -156.38)"/>
  <linearGradient x1="320.6" x2="293.81" xlink:href="#linearGradient15916" y1="345.4" y2="361.49" gradientUnits="userSpaceOnUse" id="linearGradient8419" gradientTransform="matrix(1 0 0 1 -224.68 -343.18)"/>
  <linearGradient id="linearGradient3894-2">
   <stop stop-color="#93ddf7"/>
   <stop stop-color="#93ddf7" stop-opacity="0" offset="1"/>
  </linearGradient>
  <linearGradient id="linearGradient3934-2">
   <stop stop-color="#003d9e"/>
   <stop stop-color="#003d9e" stop-opacity="0" offset="1"/>
  </linearGradient>
  <linearGradient id="linearGradient3816-0">
   <stop stop-color="#51acff"/>
   <stop stop-color="#6abaee" stop-opacity="0.675" offset="0.5"/>
   <stop stop-color="#318fe4" stop-opacity="0" offset="1"/>
  </linearGradient>
  <filter color-interpolation-filters="sRGB" id="filter3810-7">
   <feGaussianBlur stdDeviation="0.42"/>
  </filter>
  <radialGradient cy="24.634" r="19.01" gradientUnits="userSpaceOnUse" id="radialGradient11697" cx="61" gradientTransform="matrix(1.2626 -0.21044 0.09521 0.57124 -18.366 22.765)">
   <stop stop-color="#0a85ff"/>
   <stop stop-color="#006ad3" stop-opacity="0" offset="1"/>
  </radialGradient>
  <radialGradient cy="36.957" r="19" xlink:href="#linearGradient3816-0" gradientUnits="userSpaceOnUse" id="radialGradient11699" cx="41.753" gradientTransform="matrix(3.3631 -0.59089 0.30096 1.713 -109.79 2.681)"/>
  <linearGradient x1="80" x2="77" gradientUnits="userSpaceOnUse" id="linearGradient11701" gradientTransform="matrix(1 0 0 1 0 3)">
   <stop stop-color="#002767"/>
   <stop stop-color="#003180" stop-opacity="0.364" offset="0.5"/>
   <stop stop-color="#002767" stop-opacity="0" offset="1"/>
  </linearGradient>
  <linearGradient x1="52" x2="51.631" y1="10" y2="8.08" gradientUnits="userSpaceOnUse" id="linearGradient11703" gradientTransform="matrix(1 0 0 1 0 3)">
   <stop stop-color="#a2d7fb"/>
   <stop stop-color="#a2d7fb" stop-opacity="0" offset="1"/>
  </linearGradient>
  <radialGradient cy="39.11" r="19" xlink:href="#linearGradient3816-0" gradientUnits="userSpaceOnUse" id="radialGradient11705" cx="40.28" gradientTransform="matrix(3.373 -0.53175 0.18746 1.1891 -71.61 16.442)"/>
  <radialGradient cy="50.609" r="1.5" xlink:href="#linearGradient11701" gradientUnits="userSpaceOnUse" id="radialGradient11707" cx="46" gradientTransform="matrix(2.6667 0 0 30.667 -76.67 -1477)"/>
  <radialGradient cy="69.844" r="11" gradientUnits="userSpaceOnUse" id="radialGradient11709" cx="39.769" gradientTransform="matrix(1.1598 -0.14009 0.07244 0.58349 -11.414 33.34)">
   <stop stop-color="#01a3f1"/>
   <stop stop-color="#01a3f1" stop-opacity="0" offset="1"/>
  </radialGradient>
  <linearGradient x1="40" x2="41.884" xlink:href="#linearGradient3934-2" y1="70" y2="62.968" gradientUnits="userSpaceOnUse" id="linearGradient11711"/>
  <linearGradient x1="40" x2="42" xlink:href="#linearGradient3934-2" y1="69" y2="64" gradientUnits="userSpaceOnUse" id="linearGradient11713"/>
  <linearGradient x1="31" x2="36" xlink:href="#linearGradient3894-2" y1="61" y2="70" gradientUnits="userSpaceOnUse" id="linearGradient11715" gradientTransform="matrix(1 0 0 1 0 3)"/>
  <linearGradient x1="40" x2="41.884" xlink:href="#linearGradient3934-2" y1="70" y2="62.968" gradientUnits="userSpaceOnUse" id="linearGradient11719" gradientTransform="matrix(1 0 0 1 34 -5)"/>
  <linearGradient x1="40" x2="42" xlink:href="#linearGradient3934-2" y1="69" y2="64" gradientUnits="userSpaceOnUse" id="linearGradient11721" gradientTransform="matrix(1 0 0 1 34 -5)"/>
  <linearGradient x1="31" x2="36" xlink:href="#linearGradient3894-2" y1="61" y2="70" gradientUnits="userSpaceOnUse" id="linearGradient11723" gradientTransform="matrix(1 0 0 1 34 -2)"/>
  <path d="m51 65a11 8 0 1 1 -22 0 11 8 0 1 1 22 0z" fill="url(#radialGradient11709)" color="#000000" id="SVGCleanerId_0"/>
 </defs>
 <path d="m16.059 3.1081c-7.049 0-12.719 5.6697-12.719 12.719v64.531c0 7.049 5.6697 12.719 12.719 12.719h64.188c7.049 0 12.719-5.6697 12.719-12.719v-35.013c-0.0367-3.8222-0.0417-6.3452-1.8012-9.5856l-16.206-29.842c-1.0788-1.8835-2.0313-2.8088-5.1346-2.8088z" fill-opacity="0.02"/>
 <path d="m16.497 3.7018c-6.9538 0-12.531 5.6087-12.531 12.562v63.656c0 6.9538 5.5775 12.531 12.531 12.531h63.312c6.9538 0 12.562-5.5775 12.562-12.531v-34.607c-0.0741-3.7145-0.0646-6.1373-1.775-9.2846l-16.222-29.849c-0.90306-1.708-1.7952-2.4773-4.5338-2.4773z" fill-opacity="0.039"/>
 <path d="m16.934 4.3268c-6.8585 0-12.375 5.5165-12.375 12.375v62.781c0 6.8585 5.5165 12.375 12.375 12.375h62.438c6.8585 0 12.375-5.5165 12.375-12.375v-34.169c-0.0596-3.6037-0.0554-5.964-1.7158-9.0186l-16.222-29.842c-0.57824-1.2184-1.5501-2.1266-3.906-2.1266z" fill-opacity="0.078"/>
 <path d="m17.372 4.9206c-6.7632 0-12.219 5.4555-12.219 12.219v61.906c0 6.7632 5.4555 12.219 12.219 12.219h61.562c6.7632 0 12.219-5.4555 12.219-12.219v-33.794c-0.0346-3.5165-0.0841-5.7358-1.6885-8.6896l-16.237-29.895c-0.43675-0.77203-1.3586-1.7467-3.3394-1.7467z" fill-opacity="0.157"/>
 <path d="m17.747 5.5143c-6.6418 0-11.969 5.3946-11.969 12.062v61.031c0 6.668 5.327 12.031 11.969 12.031h60.813c6.6418 0 11.969-5.3632 11.969-12.031l-0.06245-33.438c-0.0731-3.3855-0.11339-5.4702-1.6562-8.3125l-16.283-29.967c-0.544-0.7689-1.558-1.3403-2.625-1.3747z" fill="url(#linearGradient8339)"/>
 <path d="m5.7709 77.595v1.0133c0 6.668 5.3434 12.032 11.985 12.032h60.809c6.6418 0 11.985-5.3645 11.985-12.032v-1.0133c0 6.6681-5.3434 12.032-11.985 12.032h-60.809c-6.6418 0-11.985-5.3644-11.985-12.032z" fill-opacity="0.098"/>
 <path d="m57.817 5.6171v85.125h20.906c6.6418 0 11.969-5.3632 11.969-12.031v-61.031c0-0.92374-0.1187-1.7923-0.3125-2.6562 0.15863 0.78565 0.25 1.604 0.25 2.4375v27.812c-0.0731-3.3855-0.11339-5.4702-1.6562-8.3125l-16.282-29.968c-0.53945-0.76243-1.3896-1.1622-2.5938-1.375h-12.281z" fill="url(#linearGradient8419)"/>
 <path d="m71.473 4.4296c-7.4721 3.35-12.688 10.913-12.688 19.719 0 11.911 9.5167 21.562 21.281 21.562 4.3866 0 8.4555-1.3551 11.844-3.6562l-20.437-37.625z" stroke-width="0.1" fill="url(#radialGradient8416)"/>
 <path d="m72.4 6.5777c-0.341-0.3041-0.564-0.3884-0.564-0.3884s0.83487 0.58215-0.16423 2.3199c-3.6996 5.3693-2.6956 12.724 2.4663 16.827l13.888 11.014c0.78033 0.57546 0.96083 0.84746 1.2481 1.2895z" fill="#ccc"/>
 <path d="m72.648 6.9456c-0.26811-0.37128-0.48292-0.5133-0.48292-0.5133s0.74441 0.70007-0.21905 2.3758c-3.5676 5.1777-2.5994 12.27 2.3783 16.227l13.393 10.621c0.75249 0.55493 0.92655 0.81722 1.2036 1.2435z" fill="#fff"/>
 <path d="m65.131 20.611c-10.023 1.7794-20.084 3.4678-30.094 5.3125-1.9764 0.76331-1.0321 3.248-1.25 4.8623v31.45c-5.7436-0.70556-12.716 3.9658-11.706 10.278 1.4494 5.9059 9.1113 7.1502 13.923 4.7268 4.0827-1.6483 6.4123-6.0676 5.9702-10.33v-25.768c5.6562-1.0208 11.312-2.0417 16.969-3.0625v20.469c-5.7611-0.77515-12.674 4.0029-11.706 10.279 1.4509 5.9047 9.1114 7.1485 13.923 4.7253 4.0827-1.6483 6.4123-6.0676 5.9702-10.33-0.02094-13.703 0.04182-27.416-0.03125-41.112-0.18604-0.90952-1.0574-1.5506-1.9688-1.5z" fill="#005ef5" opacity="0.05"/>
 <path d="m65.099 21.579-29.594 5.1875a0.93647 0.93647 0 0 0 -0.78125 0.9375v35.531c-1.6156-0.23382-3.3445-0.21598-5.0938 0.34375-2.3501 0.752-4.25 2.1289-5.4375 3.8125s-1.6508 3.745-0.96875 5.6562c0.68174 1.9104 2.3423 3.2484 4.3438 3.9062 2.0015 0.65786 4.3668 0.6901 6.7188-0.0625 3.8165-1.2212 6.4373-4.1522 6.625-7.3125a0.93647 0.93647 0 0 0 0.125 -0.46875v-28.781l18.844-3.375v22.594c-1.611-0.24159-3.3378-0.24939-5.0938 0.3125-2.352 0.75262-4.2509 2.1525-5.4375 3.8438s-1.6511 3.7441-0.96875 5.6562c0.68174 1.9104 2.3423 3.2484 4.3438 3.9062 2.0015 0.65786 4.3668 0.6901 6.7188-0.0625 3.8165-1.2212 6.4373-4.1522 6.625-7.3125a0.93647 0.93647 0 0 0 0.125 -0.46875v-42.906a0.93647 0.93647 0 0 0 -1.0938 -0.9375z" fill="#005ef5" opacity="0.12"/>
 <path d="m65.249 22.517-29.589 5.1781v36.57c-1.7156-0.46318-3.7445-0.43562-5.756 0.20805-4.3471 1.391-6.9373 5.0948-5.8022 8.2757 1.1351 3.1808 5.5699 4.6273 9.917 3.2363 3.7133-1.1882 6.131-4.0692 6.0565-6.8656h0.02312v-29.589l20.712-3.6986v24.735c-1.7156-0.46319-3.7445-0.43562-5.756 0.20805-4.3471 1.391-6.9373 5.0948-5.8022 8.2757 1.1351 3.1808 5.5699 4.6273 9.9169 3.2363 3.7132-1.1882 6.131-4.0692 6.0565-6.8656h0.0231v-42.904z" fill="#005ef5" opacity="0.3"/>
 <g transform="matrix(0.73973 0 0 0.73973 6.071 17.08)">
  <path d="m80 6-40 7v49.438c-2.3193-0.62616-5.062-0.58889-7.7812 0.28125-5.8766 1.8805-9.3783 6.8875-7.8437 11.188 1.5345 4.3 7.5296 6.2555 13.406 4.375 5.02-1.607 8.288-5.502 8.188-9.282h0.031v-40l28-5v33.438c-2.3193-0.62616-5.062-0.58889-7.7812 0.28125-5.8766 1.8805-9.3783 6.8875-7.8438 11.188 1.5345 4.3 7.5296 6.2555 13.406 4.375 5.02-1.607 8.288-5.502 8.188-9.282h0.031v-58z" fill="#0046b5"/>
  <path d="m42 16v13l36-7v-13l-36 7z" fill="url(#radialGradient11697)" filter="url(#filter3810-7)"/>
  <path d="m79 8-38 7v47.75c0.72261 0.27229 1.4026 0.59025 2 1v-33.75c0-4 0.41719-5.5006 4-7 10.867-4.5478 27-2 32-15z" fill="url(#radialGradient11699)"/>
  <path d="m80 6-3 0.5312v63.719c1.917-1.807 3.028-4.043 2.969-6.25h0.031v-58z" fill="url(#linearGradient11701)"/>
  <path d="m40 13 1 2 38-7 1-2l-40 7z" fill="url(#linearGradient11703)"/>
  <path d="m77.062 23.438-2.062 0.343v33.969c0.72261 0.27229 1.4026 0.59025 2 1v-33.75c0-0.57949 0.03663-1.0803 0.0625-1.5625z" fill="url(#radialGradient11705)"/>
  <path d="m46 29-3 0.531v45.719c1.917-1.807 3.028-4.043 2.969-6.25h0.031v-40z" fill="url(#radialGradient11707)"/>
  <use xlink:href="#SVGCleanerId_0" transform="matrix(0.96732 -0.30953 0.34731 0.97324 -26.27 19.621)"/>
  <path d="m36.594 62c-1.4136 0.01337-2.9058 0.24864-4.375 0.71875-5.8766 1.8805-9.3783 6.8875-7.8437 11.188 1.5345 4.3 7.5296 6.2555 13.406 4.375 5.8766-1.8805 9.3783-6.8875 7.8438-11.188-1.151-3.225-4.79-5.134-9.031-5.094zm0.09375 1.8438c1.2256-0.01097 2.3477 0.17481 3.3438 0.5 1.9921 0.65038 3.3123 1.8234 3.8438 3.3125 0.5314 1.4891 0.26089 3.1825-0.90625 4.8438s-3.2216 3.2022-5.8125 4.0312c-2.5909 0.82905-5.1954 0.77538-7.1875 0.125s-3.3123-1.8234-3.8438-3.3125c-0.5314-1.4891-0.26089-3.1825 0.90625-4.8438s3.2216-3.2022 5.8125-4.0312c1.2954-0.41452 2.6182-0.61403 3.8438-0.625z" fill="url(#linearGradient11711)" color="#000000" opacity="0.2"/>
  <path d="m36.594 62c-1.4136 0.01337-2.9058 0.24864-4.375 0.71875-5.8766 1.8805-9.3783 6.8875-7.8437 11.188 1.5345 4.3 7.5296 6.2555 13.406 4.375 5.8766-1.8805 9.3783-6.8875 7.8438-11.188-1.151-3.225-4.79-5.134-9.031-5.094zm0.03125 1.0312c1.3081-0.01099 2.5614 0.17381 3.6562 0.53125 2.1896 0.71488 3.768 2.0554 4.4062 3.8438 0.63821 1.7884 0.22039 3.7677-1.0625 5.5938s-3.4393 3.4331-6.1875 4.3125-5.5291 0.83988-7.7187 0.125-3.768-2.0554-4.4062-3.8438c-0.63821-1.7884-0.22039-3.7677 1.0625-5.5938s3.4393-3.4331 6.1875-4.3125c1.3741-0.4397 2.7544-0.64526 4.0625-0.65625z" fill="url(#linearGradient11713)" color="#000000" opacity="0.5"/>
  <path d="m40 65c1.2209 2.4769-1.4442 5.1714-5.4072 7.1248s-7.7233 2.426-8.9441-0.05091c-1.2209-2.4769 1.0021-6.0683 4.9651-8.0217s8.1654-1.529 9.3862 0.94786z" fill="url(#linearGradient11715)" color="#000000"/>
  <use xlink:href="#SVGCleanerId_0" transform="matrix(0.96732 -0.30953 0.34731 0.97324 7.732 14.621)"/>
  <path d="m70.594 57c-1.4136 0.01337-2.9058 0.24864-4.375 0.71875-5.8766 1.8805-9.3783 6.8875-7.8438 11.188 1.5345 4.3 7.5296 6.2555 13.406 4.375 5.8766-1.8805 9.3783-6.8875 7.8438-11.188-1.151-3.225-4.79-5.134-9.031-5.094zm0.09375 1.8438c1.2256-0.01097 2.3477 0.17481 3.3438 0.5 1.9921 0.65038 3.3123 1.8234 3.8438 3.3125 0.5314 1.4891 0.26089 3.1825-0.90625 4.8438s-3.2216 3.2022-5.8125 4.0312c-2.5909 0.82905-5.1954 0.77538-7.1875 0.125s-3.3123-1.8234-3.8438-3.3125c-0.5314-1.4891-0.26089-3.1825 0.90625-4.8438s3.2216-3.2022 5.8125-4.0312c1.2954-0.41452 2.6182-0.61403 3.8438-0.625z" fill="url(#linearGradient11719)" color="#000000" opacity="0.2"/>
  <path d="m70.594 57c-1.4136 0.01337-2.9058 0.24864-4.375 0.71875-5.8766 1.8805-9.3783 6.8875-7.8438 11.188 1.5345 4.3 7.5296 6.2555 13.406 4.375 5.8766-1.8805 9.3783-6.8875 7.8438-11.188-1.151-3.225-4.79-5.134-9.031-5.094zm0.03125 1.0312c1.3081-0.01099 2.5614 0.17381 3.6562 0.53125 2.1896 0.71488 3.768 2.0554 4.4062 3.8438 0.63821 1.7884 0.22039 3.7677-1.0625 5.5938s-3.4393 3.4331-6.1875 4.3125-5.5291 0.83988-7.7188 0.125c-2.19-0.714-3.768-2.055-4.407-3.843-0.638-1.789-0.22-3.768 1.063-5.594 1.2829-1.8261 3.4393-3.4331 6.1875-4.3125 1.3741-0.4397 2.7544-0.64526 4.0625-0.65625z" fill="url(#linearGradient11721)" color="#000000" opacity="0.5"/>
  <path d="m74 60c1.2209 2.4769-1.4442 5.1714-5.4072 7.1248s-7.7233 2.426-8.9441-0.05091c-1.2209-2.4769 1.0021-6.0683 4.9651-8.0217s8.1654-1.529 9.3862 0.94786z" fill="url(#linearGradient11723)" color="#000000"/>
 </g>
</svg>
