<svg height="96" width="96" xmlns="http://www.w3.org/2000/svg" xmlns:xlink="http://www.w3.org/1999/xlink" xmlns:sodipodi="http://sodipodi.sourceforge.net/DTD/sodipodi-0.dtd" xmlns:inkscape="http://www.inkscape.org/namespaces/inkscape">
 <defs>
  <linearGradient id="linearGradient4489" inkscape:collect="always">
   <stop stop-color="#cccccc" stop-opacity="1"/>
   <stop stop-color="#cccccc" stop-opacity="0" offset="1"/>
  </linearGradient>
  <linearGradient id="linearGradient15916">
   <stop stop-color="#b4b4b4"/>
   <stop stop-color="#b4b4b4" stop-opacity="0" offset="1"/>
  </linearGradient>
  <linearGradient x2="0" y1="90" y2="5.988" gradientUnits="userSpaceOnUse" id="linearGradient8339" gradientTransform="matrix(1.0959 0 0 1.0685 -4.442 -3.204)">
   <stop stop-color="#ebebeb"/>
   <stop stop-color="#fafafa" offset="1"/>
  </linearGradient>
  <radialGradient cy="360.77" r="21.302" xlink:href="#linearGradient15916" gradientUnits="userSpaceOnUse" id="radialGradient8416" cx="303.16" gradientTransform="matrix(0.44073 -0.24657 0.39119 0.69922 -196.61 -156.38)"/>
  <linearGradient x1="320.6" x2="293.81" xlink:href="#linearGradient15916" y1="345.4" y2="361.49" gradientUnits="userSpaceOnUse" id="linearGradient8419" gradientTransform="matrix(1 0 0 1 -224.68 -343.18)"/>
  <linearGradient id="linearGradient3894-2">
   <stop stop-color="#93ddf7"/>
   <stop stop-color="#93ddf7" stop-opacity="0" offset="1"/>
  </linearGradient>
  <linearGradient id="linearGradient3934-2">
   <stop stop-color="#003d9e"/>
   <stop stop-color="#003d9e" stop-opacity="0" offset="1"/>
  </linearGradient>
  <linearGradient id="linearGradient3816-0">
   <stop stop-color="#51acff"/>
   <stop stop-color="#6abaee" stop-opacity="0.675" offset="0.5"/>
   <stop stop-color="#318fe4" stop-opacity="0" offset="1"/>
  </linearGradient>
  <filter color-interpolation-filters="sRGB" id="filter3810-7">
   <feGaussianBlur stdDeviation="0.42"/>
  </filter>
  <radialGradient cy="36.957" r="19" xlink:href="#linearGradient3816-0" gradientUnits="userSpaceOnUse" id="radialGradient11699" cx="41.753" gradientTransform="matrix(3.3631 -0.59089 0.30096 1.713 -109.79 2.681)"/>
  <linearGradient x1="80" x2="77" gradientUnits="userSpaceOnUse" id="linearGradient11701" gradientTransform="matrix(1 0 0 1 0 3)">
   <stop stop-color="#002767"/>
   <stop stop-color="#003180" stop-opacity="0.364" offset="0.5"/>
   <stop stop-color="#002767" stop-opacity="0" offset="1"/>
  </linearGradient>
  <linearGradient x1="52" x2="51.631" y1="10" y2="8.08" gradientUnits="userSpaceOnUse" id="linearGradient11703" gradientTransform="matrix(1 0 0 1 0 3)">
   <stop stop-color="#a2d7fb"/>
   <stop stop-color="#a2d7fb" stop-opacity="0" offset="1"/>
  </linearGradient>
  <radialGradient cy="39.11" r="19" xlink:href="#linearGradient3816-0" gradientUnits="userSpaceOnUse" id="radialGradient11705" cx="40.28" gradientTransform="matrix(3.373 -0.53175 0.18746 1.1891 -71.61 16.442)"/>
  <radialGradient cy="50.609" r="1.5" xlink:href="#linearGradient11701" gradientUnits="userSpaceOnUse" id="radialGradient11707" cx="46" gradientTransform="matrix(2.6667 0 0 30.667 -76.67 -1477)"/>
  <radialGradient cy="69.844" r="11" gradientUnits="userSpaceOnUse" id="radialGradient11709" cx="39.769" gradientTransform="matrix(1.1598 -0.14009 0.07244 0.58349 -11.414 33.34)">
   <stop stop-color="#01a3f1"/>
   <stop stop-color="#01a3f1" stop-opacity="0" offset="1"/>
  </radialGradient>
  <linearGradient x1="40" x2="41.884" xlink:href="#linearGradient3934-2" y1="70" y2="62.968" gradientUnits="userSpaceOnUse" id="linearGradient11711"/>
  <linearGradient x1="40" x2="42" xlink:href="#linearGradient3934-2" y1="69" y2="64" gradientUnits="userSpaceOnUse" id="linearGradient11713"/>
  <linearGradient x1="31" x2="36" xlink:href="#linearGradient3894-2" y1="61" y2="70" gradientUnits="userSpaceOnUse" id="linearGradient11715" gradientTransform="matrix(1 0 0 1 0 3)"/>
  <linearGradient x1="40" x2="41.884" xlink:href="#linearGradient3934-2" y1="70" y2="62.968" gradientUnits="userSpaceOnUse" id="linearGradient11719" gradientTransform="matrix(1 0 0 1 34 -5)"/>
  <linearGradient x1="40" x2="42" xlink:href="#linearGradient3934-2" y1="69" y2="64" gradientUnits="userSpaceOnUse" id="linearGradient11721" gradientTransform="matrix(1 0 0 1 34 -5)"/>
  <linearGradient x1="31" x2="36" xlink:href="#linearGradient3894-2" y1="61" y2="70" gradientUnits="userSpaceOnUse" id="linearGradient11723" gradientTransform="matrix(1 0 0 1 34 -2)"/>
  <radialGradient cy="24.634" r="19.01" gradientUnits="userSpaceOnUse" id="radialGradient4472" cx="61" inkscape:collect="always" gradientTransform="matrix(1.2626 -0.21044 0.09521 0.57124 -18.366 22.765)">
   <stop stop-color="#0a85ff"/>
   <stop stop-color="#006ad3" stop-opacity="0" offset="1"/>
  </radialGradient>
  <linearGradient x1="12.1" x2="78.961" xlink:href="#linearGradient4489" gradientUnits="userSpaceOnUse" id="linearGradient4501" inkscape:collect="always" gradientTransform="matrix(0.03607 -1.1409 1.2366 0.03328 -68.755 96.91)"/>
  <linearGradient x1="96.95" x2="56.16" xlink:href="#linearGradient4489" y1="84.31" y2="75.51" gradientUnits="userSpaceOnUse" id="linearGradient4503" inkscape:collect="always" gradientTransform="matrix(0.03607 -1.1409 1.2366 0.03328 -68.755 96.91)"/>
  <path d="m 18.187049,84.73346 c 2.312708,0.749079 8.772386,1.148691 14.148965,0.875267 5.05252,-0.25693 7.178892,-0.845767 8.932001,-2.47346 1.362736,-1.265207 1.763543,-2.401668 1.79996,-5.103295 0.03324,-2.466237 -0.384754,-4.398838 -1.340737,-6.198912 -0.977702,-1.840978 -1.991584,-4.782012 -2.40496,-6.976239 -0.356669,-1.893223 -0.472172,-1.423011 1.726416,-7.028745 0.483191,-1.231997 0.591337,-1.943319 0.538498,-3.541955 -0.04055,-1.226877 -0.21331,-2.241835 -0.446788,-2.62485 -0.496179,-0.813983 -1.938382,-1.690483 -2.74282,-1.66696 -1.002027,0.02931 -1.269375,0.501612 -1.294536,2.28701 -0.02685,1.90446 -0.248652,2.343137 -1.590326,3.145236 -1.558168,0.931522 -3.480548,0.929716 -4.485394,-0.0042 -0.18252,-0.169639 -0.376862,-6.086641 -0.525023,-15.98499 l -0.235231,-15.715643 0.759221,-1.163738 c 0.417578,-0.640052 0.961329,-1.368778 1.208338,-1.619391 0.613919,-0.622902 0.564722,-0.806234 -0.178776,-0.665996 -0.615747,0.116147 -0.632859,0.105356 -0.800383,-0.504672 -0.15073,-0.548847 -0.110034,-0.644226 0.34035,-0.797881 0.38154,-0.130171 0.511143,-0.260213 0.509955,-0.511752 -0.0012,-0.26662 -0.155394,-0.327593 -0.736444,-0.291252 -0.709897,0.04439 -0.739225,0.02635 -0.862159,-0.529928 -0.11327,-0.512546 -0.07401,-0.583329 0.356992,-0.643562 0.73537,-0.102772 0.680976,-0.475123 -0.07295,-0.499404 -1.072785,-0.03458 -1.370928,-0.960835 -0.374697,-1.164115 0.619475,-0.126401 0.475183,-0.457074 -0.209079,-0.479128 -0.552664,-0.01784 -0.685397,-0.09581 -0.808201,-0.475046 -0.118293,-0.365328 -0.04343,-0.514332 0.384183,-0.764721 0.605003,-0.35425 0.467369,-0.639268 -0.327679,-0.678564 -0.403248,-0.01987 -0.508604,-0.102489 -0.59897,-0.469367 -0.08652,-0.351242 -0.0094,-0.486316 0.365443,-0.640084 0.558765,-0.229226 0.335645,-0.587747 -0.331594,-0.532819 -0.276404,0.02274 -0.682656,-0.222633 -1.265588,-0.764433 -1.490505,-1.3853369 -2.687008,-1.6117858 -3.685337,-0.697489 -0.771344,0.706419 -1.03557,1.280449 -1.031821,2.241676 0.0029,0.750992 0.06212,0.841672 1.16502,1.784635 1.066972,0.912253 1.153404,1.037256 1.057396,1.529411 -0.0575,0.294778 -0.315011,0.728705 -0.572239,0.964282 -0.513711,0.470471 -1.441257,2.828254 -1.574904,4.003374 l -0.08475,0.744949 0.982092,0.02049 c 1.165317,0.02427 2.043073,0.698662 2.324058,1.785645 0.09654,0.373456 -0.07908,8.629018 -0.390235,18.345699 -0.529303,16.527354 -0.59954,17.695555 -1.089647,18.114307 -0.697756,0.59618 -1.661979,0.596785 -3.066409,0.002 -1.39693,-0.591662 -1.985824,-1.283459 -2.449052,-2.877009 -0.369515,-1.271149 -0.717744,-1.551519 -1.785478,-1.437535 -1.015405,0.108396 -1.309531,0.510542 -1.724833,2.358262 -0.452399,2.012773 -0.337184,2.627524 0.987185,5.267313 0.560747,1.117711 1.062656,2.304964 1.115355,2.638346 0.159484,1.00893 -0.592342,3.125693 -2.084671,5.869318 -3.455606,6.353094 -3.517126,8.447703 -0.34148,11.627953 1.414875,1.416914 1.56135,1.517035 2.811711,1.922041 z m 5.462909,-5.947429 c 0.0742,-0.223134 0.18398,-0.450631 0.243952,-0.505562 0.05998,-0.05491 1.879292,-0.10188 4.042936,-0.104346 3.108674,-0.0036 4.017267,0.07305 4.331322,0.364899 0.503957,0.468402 0.281815,0.954273 -0.504078,1.102509 -0.329553,0.06216 -2.173857,0.123367 -4.098453,0.136 -3.603135,0.02367 -4.296854,-0.147942 -4.015679,-0.9935 z" fill-opacity="1" id="SVGCleanerId_0"/>
  <path d="m 51,65 a 11,8 0 1 1 -22,0 11,8 0 1 1 22,0 z" fill="url(#radialGradient11709)" color="#000000" id="SVGCleanerId_2"/>
 </defs>
 <path d="m16.059 3.1081c-7.049 0-12.719 5.6697-12.719 12.719v64.531c0 7.049 5.6697 12.719 12.719 12.719h64.188c7.049 0 12.719-5.6697 12.719-12.719v-35.013c-0.0367-3.8222-0.0417-6.3452-1.8012-9.5856l-16.206-29.842c-1.0788-1.8835-2.0313-2.8088-5.1346-2.8088z" fill-opacity="0.02"/>
 <path d="m16.497 3.7018c-6.9538 0-12.531 5.6087-12.531 12.562v63.656c0 6.9538 5.5775 12.531 12.531 12.531h63.312c6.9538 0 12.562-5.5775 12.562-12.531v-34.607c-0.0741-3.7145-0.0646-6.1373-1.775-9.2846l-16.222-29.849c-0.90306-1.708-1.7952-2.4773-4.5338-2.4773z" fill-opacity="0.039"/>
 <path d="m16.934 4.3268c-6.8585 0-12.375 5.5165-12.375 12.375v62.781c0 6.8585 5.5165 12.375 12.375 12.375h62.438c6.8585 0 12.375-5.5165 12.375-12.375v-34.169c-0.0596-3.6037-0.0554-5.964-1.7158-9.0186l-16.222-29.842c-0.57824-1.2184-1.5501-2.1266-3.906-2.1266z" fill-opacity="0.078"/>
 <path d="m17.372 4.9206c-6.7632 0-12.219 5.4555-12.219 12.219v61.906c0 6.7632 5.4555 12.219 12.219 12.219h61.562c6.7632 0 12.219-5.4555 12.219-12.219v-33.794c-0.0346-3.5165-0.0841-5.7358-1.6885-8.6896l-16.237-29.895c-0.43675-0.77203-1.3586-1.7467-3.3394-1.7467z" fill-opacity="0.157"/>
 <path d="m17.747 5.5143c-6.6418 0-11.969 5.3946-11.969 12.062v61.031c0 6.668 5.327 12.031 11.969 12.031h60.813c6.6418 0 11.969-5.3632 11.969-12.031l-0.06245-33.438c-0.0731-3.3855-0.11339-5.4702-1.6562-8.3125l-16.283-29.967c-0.544-0.7689-1.558-1.3403-2.625-1.3747z" fill="url(#linearGradient8339)"/>
 <path d="m5.7709 77.595v1.0133c0 6.668 5.3434 12.032 11.985 12.032h60.809c6.6418 0 11.985-5.3645 11.985-12.032v-1.0133c0 6.6681-5.3434 12.032-11.985 12.032h-60.809c-6.6418 0-11.985-5.3644-11.985-12.032z" fill-opacity="0.098"/>
 <path d="m57.817 5.6171v85.125h20.906c6.6418 0 11.969-5.3632 11.969-12.031v-61.031c0-0.92374-0.1187-1.7923-0.3125-2.6562 0.15863 0.78565 0.25 1.604 0.25 2.4375v27.812c-0.0731-3.3855-0.11339-5.4702-1.6562-8.3125l-16.282-29.968c-0.53945-0.76243-1.3896-1.1622-2.5938-1.375h-12.281z" fill="url(#linearGradient8419)"/>
 <path d="m71.473 4.4296c-7.4721 3.35-12.688 10.913-12.688 19.719 0 11.911 9.5167 21.562 21.281 21.562 4.3866 0 8.4555-1.3551 11.844-3.6562l-20.437-37.625z" stroke-width="0.1" fill="url(#radialGradient8416)"/>
 <path d="m72.4 6.5777c-0.341-0.3041-0.564-0.3884-0.564-0.3884s0.83487 0.58215-0.16423 2.3199c-3.6996 5.3693-2.6956 12.724 2.4663 16.827l13.888 11.014c0.78033 0.57546 0.96083 0.84746 1.2481 1.2895z" fill="#ccc"/>
 <path d="m72.648 6.9456c-0.26811-0.37128-0.48292-0.5133-0.48292-0.5133s0.74441 0.70007-0.21905 2.3758c-3.5676 5.1777-2.5994 12.27 2.3783 16.227l13.393 10.621c0.75249 0.55493 0.92655 0.81722 1.2036 1.2435z" fill="#fff"/>
 <g transform="matrix(0.78104 0 0 0.78104 31.05 30.524)">
  <path d="m 65.131,14.611 c -10.023,1.7794 -20.084,3.4678 -30.094,5.3125 -1.9764,0.76331 -1.0321,3.248 -1.25,4.8623 l 0,31.45 c -5.7436,-0.70556 -12.716,3.9658 -11.706,10.278 1.4494,5.9059 9.1113,7.1502 13.923,4.7268 4.0827,-1.6483 6.4123,-6.0676 5.9702,-10.33 l 0,-25.768 c 5.6562,-1.0208 11.312,-2.0417 16.969,-3.0625 l 0,20.469 c -5.7611,-0.77515 -12.674,4.0029 -11.706,10.279 1.4509,5.9047 9.1114,7.1485 13.923,4.7253 4.0827,-1.6483 6.4123,-6.0676 5.9702,-10.33 -0.02094,-13.703 0.04182,-27.416 -0.03125,-41.112 -0.18604,-0.90952 -1.0574,-1.5506 -1.9688,-1.5 z" fill="#005ef5" opacity="0.05" inkscape:connector-curvature="0"/>
  <path d="m 65.099,15.579 -29.594,5.1875 a 0.93647,0.93647 0 0 0 -0.78125,0.9375 l 0,35.531 c -1.6156,-0.23382 -3.3445,-0.21598 -5.0938,0.34375 -2.3501,0.752 -4.25,2.1289 -5.4375,3.8125 -1.1875,1.6836 -1.6508,3.745 -0.96875,5.6562 0.68174,1.9104 2.3423,3.2484 4.3438,3.9062 2.0015,0.65786 4.3668,0.6901 6.7188,-0.0625 3.8165,-1.2212 6.4373,-4.1522 6.625,-7.3125 a 0.93647,0.93647 0 0 0 0.125,-0.46875 l 0,-28.781 18.844,-3.375 0,22.594 c -1.611,-0.24159 -3.3378,-0.24939 -5.0938,0.3125 -2.352,0.75262 -4.2509,2.1525 -5.4375,3.8438 -1.1866,1.6913 -1.6511,3.7441 -0.96875,5.6562 0.68174,1.9104 2.3423,3.2484 4.3438,3.9062 2.0015,0.65786 4.3668,0.6901 6.7188,-0.0625 3.8165,-1.2212 6.4373,-4.1522 6.625,-7.3125 a 0.93647,0.93647 0 0 0 0.125,-0.46875 l 0,-42.906 a 0.93647,0.93647 0 0 0 -1.0938,-0.9375 z" fill="#005ef5" opacity="0.12" inkscape:connector-curvature="0"/>
  <path d="m 65.249,16.517 -29.589,5.1781 0,36.57 c -1.7156,-0.46318 -3.7445,-0.43562 -5.756,0.20805 -4.3471,1.391 -6.9373,5.0948 -5.8022,8.2757 1.1351,3.1808 5.5699,4.6273 9.917,3.2363 3.7133,-1.1882 6.131,-4.0692 6.0565,-6.8656 l 0.02312,0 0,-29.589 20.712,-3.6986 0,24.735 c -1.7156,-0.46319 -3.7445,-0.43562 -5.756,0.20805 -4.3471,1.391 -6.9373,5.0948 -5.8022,8.2757 1.1351,3.1808 5.5699,4.6273 9.9169,3.2363 3.7132,-1.1882 6.131,-4.0692 6.0565,-6.8656 l 0.0231,0 0,-42.904 z" fill="#005ef5" opacity="0.3" inkscape:connector-curvature="0"/>
  <g transform="matrix(0.73973 0 0 0.73973 6.071 11.08)">
   <path d="m 80,6 -40,7 0,49.438 c -2.3193,-0.62616 -5.062,-0.58889 -7.7812,0.28125 -5.8766,1.8805 -9.3783,6.8875 -7.8437,11.188 1.5345,4.3 7.5296,6.2555 13.406,4.375 5.02,-1.607 8.288,-5.502 8.188,-9.282 l 0.031,0 0,-40 28,-5 0,33.438 c -2.3193,-0.62616 -5.062,-0.58889 -7.7812,0.28125 -5.8766,1.8805 -9.3783,6.8875 -7.8438,11.188 1.5345,4.3 7.5296,6.2555 13.406,4.375 5.02,-1.607 8.288,-5.502 8.188,-9.282 l 0.031,0 0,-58 z" fill="#0046b5" inkscape:connector-curvature="0"/>
   <path d="M 42,16 42,29 78,22 78,9 42,16 Z" fill="url(#radialGradient4472)" filter="url(#filter3810-7)" inkscape:connector-curvature="0"/>
   <path d="m 79,8 -38,7 0,47.75 c 0.72261,0.27229 1.4026,0.59025 2,1 L 43,30 c 0,-4 0.41719,-5.5006 4,-7 10.867,-4.5478 27,-2 32,-15 z" fill="url(#radialGradient11699)" inkscape:connector-curvature="0"/>
   <path d="m 80,6 -3,0.5312 0,63.719 c 1.917,-1.807 3.028,-4.043 2.969,-6.25 l 0.031,0 0,-58 z" fill="url(#linearGradient11701)" inkscape:connector-curvature="0"/>
   <path d="m 40,13 1,2 38,-7 1,-2 -40,7 z" fill="url(#linearGradient11703)" inkscape:connector-curvature="0"/>
   <path d="M 77.062,23.438 75,23.781 75,57.75 c 0.72261,0.27229 1.4026,0.59025 2,1 L 77,25 c 0,-0.57949 0.03663,-1.0803 0.0625,-1.5625 z" fill="url(#radialGradient11705)" inkscape:connector-curvature="0"/>
   <path d="m 46,29 -3,0.531 0,45.719 C 44.917,73.443 46.028,71.207 45.969,69 L 46,69 46,29 Z" fill="url(#radialGradient11707)" inkscape:connector-curvature="0"/>
   <use xlink:href="#SVGCleanerId_2" inkscape:connector-curvature="0" transform="matrix(0.96732 -0.30953 0.34731 0.97324 -26.27 19.621)"/>
   <path d="m 36.594,62 c -1.4136,0.01337 -2.9058,0.24864 -4.375,0.71875 -5.8766,1.8805 -9.3783,6.8875 -7.8437,11.188 1.5345,4.3 7.5296,6.2555 13.406,4.375 5.8766,-1.8805 9.3783,-6.8875 7.8438,-11.188 -1.151,-3.225 -4.79,-5.134 -9.031,-5.094 z m 0.09375,1.8438 c 1.2256,-0.01097 2.3477,0.17481 3.3438,0.5 1.9921,0.65038 3.3123,1.8234 3.8438,3.3125 0.5314,1.4891 0.26089,3.1825 -0.90625,4.8438 -1.16714,1.6613 -3.2216,3.2022 -5.8125,4.0312 -2.5909,0.82905 -5.1954,0.77538 -7.1875,0.125 -1.9921,-0.65038 -3.3123,-1.8234 -3.8438,-3.3125 -0.5314,-1.4891 -0.26089,-3.1825 0.90625,-4.8438 1.16714,-1.6613 3.2216,-3.2022 5.8125,-4.0312 1.2954,-0.41452 2.6182,-0.61403 3.8438,-0.625 z" fill="url(#linearGradient11711)" color="#000000" opacity="0.2" inkscape:connector-curvature="0"/>
   <path d="m 36.594,62 c -1.4136,0.01337 -2.9058,0.24864 -4.375,0.71875 -5.8766,1.8805 -9.3783,6.8875 -7.8437,11.188 1.5345,4.3 7.5296,6.2555 13.406,4.375 5.8766,-1.8805 9.3783,-6.8875 7.8438,-11.188 -1.151,-3.225 -4.79,-5.134 -9.031,-5.094 z m 0.03125,1.0312 c 1.3081,-0.01099 2.5614,0.17381 3.6562,0.53125 2.1896,0.71488 3.768,2.0554 4.4062,3.8438 0.63821,1.7884 0.22039,3.7677 -1.0625,5.5938 -1.28289,1.8261 -3.4393,3.4331 -6.1875,4.3125 -2.7482,0.8794 -5.5291,0.83988 -7.7187,0.125 -2.1896,-0.71488 -3.768,-2.0554 -4.4062,-3.8438 -0.63821,-1.7884 -0.22039,-3.7677 1.0625,-5.5938 1.28289,-1.8261 3.4393,-3.4331 6.1875,-4.3125 1.3741,-0.4397 2.7544,-0.64526 4.0625,-0.65625 z" fill="url(#linearGradient11713)" color="#000000" opacity="0.5" inkscape:connector-curvature="0"/>
   <path d="m 40,65 c 1.2209,2.4769 -1.4442,5.1714 -5.4072,7.1248 -3.963,1.9534 -7.7233,2.426 -8.9441,-0.05091 -1.2209,-2.4769 1.0021,-6.0683 4.9651,-8.0217 3.963,-1.9534 8.1654,-1.529 9.3862,0.94786 z" fill="url(#linearGradient11715)" color="#000000" inkscape:connector-curvature="0"/>
   <use xlink:href="#SVGCleanerId_2" inkscape:connector-curvature="0" transform="matrix(0.96732 -0.30953 0.34731 0.97324 7.732 14.621)"/>
   <path d="m 70.594,57 c -1.4136,0.01337 -2.9058,0.24864 -4.375,0.71875 -5.8766,1.8805 -9.3783,6.8875 -7.8438,11.188 1.5345,4.3 7.5296,6.2555 13.406,4.375 5.8766,-1.8805 9.3783,-6.8875 7.8438,-11.188 -1.151,-3.225 -4.79,-5.134 -9.031,-5.094 z m 0.09375,1.8438 c 1.2256,-0.01097 2.3477,0.17481 3.3438,0.5 1.9921,0.65038 3.3123,1.8234 3.8438,3.3125 0.5314,1.4891 0.26089,3.1825 -0.90625,4.8438 -1.16714,1.6613 -3.2216,3.2022 -5.8125,4.0312 -2.5909,0.82905 -5.1954,0.77538 -7.1875,0.125 -1.9921,-0.65038 -3.3123,-1.8234 -3.8438,-3.3125 -0.5314,-1.4891 -0.26089,-3.1825 0.90625,-4.8438 1.16714,-1.6613 3.2216,-3.2022 5.8125,-4.0312 1.2954,-0.41452 2.6182,-0.61403 3.8438,-0.625 z" fill="url(#linearGradient11719)" color="#000000" opacity="0.2" inkscape:connector-curvature="0"/>
   <path d="m 70.594,57 c -1.4136,0.01337 -2.9058,0.24864 -4.375,0.71875 -5.8766,1.8805 -9.3783,6.8875 -7.8438,11.188 1.5345,4.3 7.5296,6.2555 13.406,4.375 5.8766,-1.8805 9.3783,-6.8875 7.8438,-11.188 -1.151,-3.225 -4.79,-5.134 -9.031,-5.094 z m 0.03125,1.0312 c 1.3081,-0.01099 2.5614,0.17381 3.6562,0.53125 2.1896,0.71488 3.768,2.0554 4.4062,3.8438 0.63821,1.7884 0.22039,3.7677 -1.0625,5.5938 -1.28289,1.8261 -3.4393,3.4331 -6.1875,4.3125 -2.7482,0.8794 -5.5291,0.83988 -7.7188,0.125 -2.19,-0.714 -3.768,-2.055 -4.407,-3.843 -0.638,-1.789 -0.22,-3.768 1.063,-5.594 1.2829,-1.8261 3.4393,-3.4331 6.1875,-4.3125 1.3741,-0.4397 2.7544,-0.64526 4.0625,-0.65625 z" fill="url(#linearGradient11721)" color="#000000" opacity="0.5" inkscape:connector-curvature="0"/>
   <path d="m 74,60 c 1.2209,2.4769 -1.4442,5.1714 -5.4072,7.1248 -3.963,1.9534 -7.7233,2.426 -8.9441,-0.05091 -1.2209,-2.4769 1.0021,-6.0683 4.9651,-8.0217 3.963,-1.9534 8.1654,-1.529 9.3862,0.94786 z" fill="url(#linearGradient11723)" color="#000000" inkscape:connector-curvature="0"/>
  </g>
 </g>
 <use xlink:href="#SVGCleanerId_0" fill="url(#linearGradient4501)" inkscape:connector-curvature="0"/>
 <use xlink:href="#SVGCleanerId_0" fill="url(#linearGradient4503)" inkscape:connector-curvature="0"/>
</svg>
