<svg height="96" width="96" xmlns="http://www.w3.org/2000/svg" xmlns:xlink="http://www.w3.org/1999/xlink">
 <defs>
  <linearGradient x2="0" y1="20.221" y2="138.66" gradientUnits="userSpaceOnUse" id="linearGradient11029">
   <stop stop-color="#fff"/>
   <stop stop-color="#fff" stop-opacity="0" offset="1"/>
  </linearGradient>
  <linearGradient id="linearGradient15916">
   <stop stop-color="#b4b4b4"/>
   <stop stop-color="#b4b4b4" stop-opacity="0" offset="1"/>
  </linearGradient>
  <linearGradient x2="0" y1="90" y2="5.988" gradientUnits="userSpaceOnUse" id="linearGradient8339" gradientTransform="matrix(1.0959 0 0 1.0685 -4.442 -3.204)">
   <stop stop-color="#ebebeb"/>
   <stop stop-color="#fafafa" offset="1"/>
  </linearGradient>
  <radialGradient cy="360.77" r="21.302" xlink:href="#linearGradient15916" gradientUnits="userSpaceOnUse" id="radialGradient8416" cx="303.16" gradientTransform="matrix(0.44073 -0.24657 0.39119 0.69922 -196.61 -156.38)"/>
  <linearGradient x1="320.6" x2="293.81" xlink:href="#linearGradient15916" y1="345.4" y2="361.49" gradientUnits="userSpaceOnUse" id="linearGradient8419" gradientTransform="matrix(1 0 0 1 -224.68 -343.18)"/>
  <linearGradient id="linearGradient3894-2">
   <stop stop-color="#93ddf7"/>
   <stop stop-color="#93ddf7" stop-opacity="0" offset="1"/>
  </linearGradient>
  <linearGradient id="linearGradient3934-2">
   <stop stop-color="#003d9e"/>
   <stop stop-color="#003d9e" stop-opacity="0" offset="1"/>
  </linearGradient>
  <linearGradient id="linearGradient3816-0">
   <stop stop-color="#51acff"/>
   <stop stop-color="#6abaee" stop-opacity="0.675" offset="0.5"/>
   <stop stop-color="#318fe4" stop-opacity="0" offset="1"/>
  </linearGradient>
  <filter color-interpolation-filters="sRGB" id="filter3810-7">
   <feGaussianBlur stdDeviation="0.42"/>
  </filter>
  <radialGradient cy="24.634" r="19.01" gradientUnits="userSpaceOnUse" id="radialGradient11697" cx="61" gradientTransform="matrix(1.2626 -0.21044 0.09521 0.57124 -18.366 22.765)">
   <stop stop-color="#0a85ff"/>
   <stop stop-color="#006ad3" stop-opacity="0" offset="1"/>
  </radialGradient>
  <radialGradient cy="36.957" r="19" xlink:href="#linearGradient3816-0" gradientUnits="userSpaceOnUse" id="radialGradient11699" cx="41.753" gradientTransform="matrix(3.3631 -0.59089 0.30096 1.713 -109.79 2.681)"/>
  <linearGradient x1="80" x2="77" gradientUnits="userSpaceOnUse" id="linearGradient11701" gradientTransform="matrix(1 0 0 1 0 3)">
   <stop stop-color="#002767"/>
   <stop stop-color="#003180" stop-opacity="0.364" offset="0.5"/>
   <stop stop-color="#002767" stop-opacity="0" offset="1"/>
  </linearGradient>
  <linearGradient x1="52" x2="51.631" y1="10" y2="8.08" gradientUnits="userSpaceOnUse" id="linearGradient11703" gradientTransform="matrix(1 0 0 1 0 3)">
   <stop stop-color="#a2d7fb"/>
   <stop stop-color="#a2d7fb" stop-opacity="0" offset="1"/>
  </linearGradient>
  <radialGradient cy="39.11" r="19" xlink:href="#linearGradient3816-0" gradientUnits="userSpaceOnUse" id="radialGradient11705" cx="40.28" gradientTransform="matrix(3.373 -0.53175 0.18746 1.1891 -71.61 16.442)"/>
  <radialGradient cy="50.609" r="1.5" xlink:href="#linearGradient11701" gradientUnits="userSpaceOnUse" id="radialGradient11707" cx="46" gradientTransform="matrix(2.6667 0 0 30.667 -76.67 -1477)"/>
  <radialGradient cy="69.844" r="11" gradientUnits="userSpaceOnUse" id="radialGradient11709" cx="39.769" gradientTransform="matrix(1.1598 -0.14009 0.07244 0.58349 -11.414 33.34)">
   <stop stop-color="#01a3f1"/>
   <stop stop-color="#01a3f1" stop-opacity="0" offset="1"/>
  </radialGradient>
  <linearGradient x1="40" x2="41.884" xlink:href="#linearGradient3934-2" y1="70" y2="62.968" gradientUnits="userSpaceOnUse" id="linearGradient11711"/>
  <linearGradient x1="40" x2="42" xlink:href="#linearGradient3934-2" y1="69" y2="64" gradientUnits="userSpaceOnUse" id="linearGradient11713"/>
  <linearGradient x1="31" x2="36" xlink:href="#linearGradient3894-2" y1="61" y2="70" gradientUnits="userSpaceOnUse" id="linearGradient11715" gradientTransform="matrix(1 0 0 1 0 3)"/>
  <linearGradient x1="40" x2="41.884" xlink:href="#linearGradient3934-2" y1="70" y2="62.968" gradientUnits="userSpaceOnUse" id="linearGradient11719" gradientTransform="matrix(1 0 0 1 34 -5)"/>
  <linearGradient x1="40" x2="42" xlink:href="#linearGradient3934-2" y1="69" y2="64" gradientUnits="userSpaceOnUse" id="linearGradient11721" gradientTransform="matrix(1 0 0 1 34 -5)"/>
  <linearGradient x1="31" x2="36" xlink:href="#linearGradient3894-2" y1="61" y2="70" gradientUnits="userSpaceOnUse" id="linearGradient11723" gradientTransform="matrix(1 0 0 1 34 -2)"/>
  <linearGradient x2="0" y1="6.132" y2="90.24" gradientUnits="userSpaceOnUse" id="linearGradient19989" gradientTransform="matrix(1.0238 0 0 1.0119 -1.143 -98.07)">
   <stop/>
   <stop stop-opacity="0.588" offset="1"/>
  </linearGradient>
  <linearGradient x2="0" xlink:href="#linearGradient11029" y1="6" y2="63.893" gradientUnits="userSpaceOnUse" id="linearGradient20001"/>
  <radialGradient cy="90.17" r="42" xlink:href="#linearGradient11029" gradientUnits="userSpaceOnUse" id="radialGradient20003" cx="48" gradientTransform="matrix(1.1573 0 0 0.99591 -7.551 0.197)"/>
  <path d="m80 6-40 7v49.438c-2.3193-0.62616-5.062-0.58889-7.7812 0.28125-5.8766 1.8805-9.3783 6.8875-7.8437 11.188 1.5345 4.3 7.5296 6.2555 13.406 4.375 5.02-1.607 8.288-5.502 8.188-9.282h0.031v-40l28-5v33.438c-2.3193-0.62616-5.062-0.58889-7.7812 0.28125-5.8766 1.8805-9.3783 6.8875-7.8438 11.188 1.5345 4.3 7.5296 6.2555 13.406 4.375 5.02-1.607 8.288-5.502 8.188-9.282h0.031v-58z" fill="#0046b5" id="SVGCleanerId_0"/>
  <path d="m42 16v13l36-7v-13l-36 7z" fill="url(#radialGradient11697)" filter="url(#filter3810-7)" id="SVGCleanerId_1"/>
  <path d="m79 8-38 7v47.75c0.72261 0.27229 1.4026 0.59025 2 1v-33.75c0-4 0.41719-5.5006 4-7 10.867-4.5478 27-2 32-15z" fill="url(#radialGradient11699)" id="SVGCleanerId_2"/>
  <path d="m80 6-3 0.5312v63.719c1.917-1.807 3.028-4.043 2.969-6.25h0.031v-58z" fill="url(#linearGradient11701)" id="SVGCleanerId_3"/>
  <path d="m40 13 1 2 38-7 1-2l-40 7z" fill="url(#linearGradient11703)" id="SVGCleanerId_4"/>
  <path d="m77.062 23.438-2.062 0.343v33.969c0.72261 0.27229 1.4026 0.59025 2 1v-33.75c0-0.57949 0.03663-1.0803 0.0625-1.5625z" fill="url(#radialGradient11705)" id="SVGCleanerId_5"/>
  <path d="m46 29-3 0.531v45.719c1.917-1.807 3.028-4.043 2.969-6.25h0.031v-40z" fill="url(#radialGradient11707)" id="SVGCleanerId_6"/>
  <path d="m51 65a11 8 0 1 1 -22 0 11 8 0 1 1 22 0z" fill="url(#radialGradient11709)" color="#000000" id="SVGCleanerId_7"/>
  <path d="m36.594 62c-1.4136 0.01337-2.9058 0.24864-4.375 0.71875-5.8766 1.8805-9.3783 6.8875-7.8437 11.188 1.5345 4.3 7.5296 6.2555 13.406 4.375 5.8766-1.8805 9.3783-6.8875 7.8438-11.188-1.151-3.225-4.79-5.134-9.031-5.094zm0.09375 1.8438c1.2256-0.01097 2.3477 0.17481 3.3438 0.5 1.9921 0.65038 3.3123 1.8234 3.8438 3.3125 0.5314 1.4891 0.26089 3.1825-0.90625 4.8438s-3.2216 3.2022-5.8125 4.0312c-2.5909 0.82905-5.1954 0.77538-7.1875 0.125s-3.3123-1.8234-3.8438-3.3125c-0.5314-1.4891-0.26089-3.1825 0.90625-4.8438s3.2216-3.2022 5.8125-4.0312c1.2954-0.41452 2.6182-0.61403 3.8438-0.625z" fill="url(#linearGradient11711)" color="#000000" id="SVGCleanerId_8" opacity="0.2"/>
  <path d="m36.594 62c-1.4136 0.01337-2.9058 0.24864-4.375 0.71875-5.8766 1.8805-9.3783 6.8875-7.8437 11.188 1.5345 4.3 7.5296 6.2555 13.406 4.375 5.8766-1.8805 9.3783-6.8875 7.8438-11.188-1.151-3.225-4.79-5.134-9.031-5.094zm0.03125 1.0312c1.3081-0.01099 2.5614 0.17381 3.6562 0.53125 2.1896 0.71488 3.768 2.0554 4.4062 3.8438 0.63821 1.7884 0.22039 3.7677-1.0625 5.5938s-3.4393 3.4331-6.1875 4.3125-5.5291 0.83988-7.7187 0.125-3.768-2.0554-4.4062-3.8438c-0.63821-1.7884-0.22039-3.7677 1.0625-5.5938s3.4393-3.4331 6.1875-4.3125c1.3741-0.4397 2.7544-0.64526 4.0625-0.65625z" fill="url(#linearGradient11713)" color="#000000" id="SVGCleanerId_9" opacity="0.5"/>
  <path d="m40 65c1.2209 2.4769-1.4442 5.1714-5.4072 7.1248s-7.7233 2.426-8.9441-0.05091c-1.2209-2.4769 1.0021-6.0683 4.9651-8.0217s8.1654-1.529 9.3862 0.94786z" fill="url(#linearGradient11715)" color="#000000" id="SVGCleanerId_10"/>
  <path d="m70.594 57c-1.4136 0.01337-2.9058 0.24864-4.375 0.71875-5.8766 1.8805-9.3783 6.8875-7.8438 11.188 1.5345 4.3 7.5296 6.2555 13.406 4.375 5.8766-1.8805 9.3783-6.8875 7.8438-11.188-1.151-3.225-4.79-5.134-9.031-5.094zm0.09375 1.8438c1.2256-0.01097 2.3477 0.17481 3.3438 0.5 1.9921 0.65038 3.3123 1.8234 3.8438 3.3125 0.5314 1.4891 0.26089 3.1825-0.90625 4.8438s-3.2216 3.2022-5.8125 4.0312c-2.5909 0.82905-5.1954 0.77538-7.1875 0.125s-3.3123-1.8234-3.8438-3.3125c-0.5314-1.4891-0.26089-3.1825 0.90625-4.8438s3.2216-3.2022 5.8125-4.0312c1.2954-0.41452 2.6182-0.61403 3.8438-0.625z" fill="url(#linearGradient11719)" color="#000000" id="SVGCleanerId_11" opacity="0.2"/>
  <path d="m70.594 57c-1.4136 0.01337-2.9058 0.24864-4.375 0.71875-5.8766 1.8805-9.3783 6.8875-7.8438 11.188 1.5345 4.3 7.5296 6.2555 13.406 4.375 5.8766-1.8805 9.3783-6.8875 7.8438-11.188-1.151-3.225-4.79-5.134-9.031-5.094zm0.03125 1.0312c1.3081-0.01099 2.5614 0.17381 3.6562 0.53125 2.1896 0.71488 3.768 2.0554 4.4062 3.8438 0.63821 1.7884 0.22039 3.7677-1.0625 5.5938s-3.4393 3.4331-6.1875 4.3125-5.5291 0.83988-7.7188 0.125c-2.19-0.714-3.768-2.055-4.407-3.843-0.638-1.789-0.22-3.768 1.063-5.594 1.2829-1.8261 3.4393-3.4331 6.1875-4.3125 1.3741-0.4397 2.7544-0.64526 4.0625-0.65625z" fill="url(#linearGradient11721)" color="#000000" id="SVGCleanerId_12" opacity="0.5"/>
  <path d="m74 60c1.2209 2.4769-1.4442 5.1714-5.4072 7.1248s-7.7233 2.426-8.9441-0.05091c-1.2209-2.4769 1.0021-6.0683 4.9651-8.0217s8.1654-1.529 9.3862 0.94786z" fill="url(#linearGradient11723)" color="#000000" id="SVGCleanerId_13"/>
 </defs>
 <path d="m16.059 3.1081c-7.049 0-12.719 5.6697-12.719 12.719v64.531c0 7.049 5.6697 12.719 12.719 12.719h64.188c7.049 0 12.719-5.6697 12.719-12.719v-35.013c-0.0367-3.8222-0.0417-6.3452-1.8012-9.5856l-16.206-29.842c-1.0788-1.8835-2.0313-2.8088-5.1346-2.8088z" fill-opacity="0.02"/>
 <path d="m16.497 3.7018c-6.9538 0-12.531 5.6087-12.531 12.562v63.656c0 6.9538 5.5775 12.531 12.531 12.531h63.312c6.9538 0 12.562-5.5775 12.562-12.531v-34.607c-0.0741-3.7145-0.0646-6.1373-1.775-9.2846l-16.222-29.849c-0.90306-1.708-1.7952-2.4773-4.5338-2.4773z" fill-opacity="0.039"/>
 <path d="m16.934 4.3268c-6.8585 0-12.375 5.5165-12.375 12.375v62.781c0 6.8585 5.5165 12.375 12.375 12.375h62.438c6.8585 0 12.375-5.5165 12.375-12.375v-34.169c-0.0596-3.6037-0.0554-5.964-1.7158-9.0186l-16.222-29.842c-0.57824-1.2184-1.5501-2.1266-3.906-2.1266z" fill-opacity="0.078"/>
 <path d="m17.372 4.9206c-6.7632 0-12.219 5.4555-12.219 12.219v61.906c0 6.7632 5.4555 12.219 12.219 12.219h61.562c6.7632 0 12.219-5.4555 12.219-12.219v-33.794c-0.0346-3.5165-0.0841-5.7358-1.6885-8.6896l-16.237-29.895c-0.43675-0.77203-1.3586-1.7467-3.3394-1.7467z" fill-opacity="0.157"/>
 <path d="m17.747 5.5143c-6.6418 0-11.969 5.3946-11.969 12.062v61.031c0 6.668 5.327 12.031 11.969 12.031h60.813c6.6418 0 11.969-5.3632 11.969-12.031l-0.06245-33.438c-0.0731-3.3855-0.11339-5.4702-1.6562-8.3125l-16.283-29.967c-0.544-0.7689-1.558-1.3403-2.625-1.3747z" fill="url(#linearGradient8339)"/>
 <path d="m5.7709 77.595v1.0133c0 6.668 5.3434 12.032 11.985 12.032h60.809c6.6418 0 11.985-5.3645 11.985-12.032v-1.0133c0 6.6681-5.3434 12.032-11.985 12.032h-60.809c-6.6418 0-11.985-5.3644-11.985-12.032z" fill-opacity="0.098"/>
 <path d="m57.817 5.6171v85.125h20.906c6.6418 0 11.969-5.3632 11.969-12.031v-61.031c0-0.92374-0.1187-1.7923-0.3125-2.6562 0.15863 0.78565 0.25 1.604 0.25 2.4375v27.812c-0.0731-3.3855-0.11339-5.4702-1.6562-8.3125l-16.282-29.968c-0.53945-0.76243-1.3896-1.1622-2.5938-1.375h-12.281z" fill="url(#linearGradient8419)"/>
 <path d="m71.473 4.4296c-7.4721 3.35-12.688 10.913-12.688 19.719 0 11.911 9.5167 21.562 21.281 21.562 4.3866 0 8.4555-1.3551 11.844-3.6562l-20.437-37.625z" stroke-width="0.1" fill="url(#radialGradient8416)"/>
 <path d="m72.4 6.5777c-0.341-0.3041-0.564-0.3884-0.564-0.3884s0.83487 0.58215-0.16423 2.3199c-3.6996 5.3693-2.6956 12.724 2.4663 16.827l13.888 11.014c0.78033 0.57546 0.96083 0.84746 1.2481 1.2895z" fill="#ccc"/>
 <path d="m72.648 6.9456c-0.26811-0.37128-0.48292-0.5133-0.48292-0.5133s0.74441 0.70007-0.21905 2.3758c-3.5676 5.1777-2.5994 12.27 2.3783 16.227l13.393 10.621c0.75249 0.55493 0.92655 0.81722 1.2036 1.2435z" fill="#fff"/>
 <path d="m65.131 10.611c-10.023 1.7794-20.084 3.4678-30.094 5.3125-1.9764 0.76331-1.0321 3.248-1.25 4.8623v31.45c-5.7436-0.70556-12.716 3.9658-11.706 10.278 1.4494 5.9059 9.1113 7.1502 13.923 4.7268 4.0827-1.6483 6.4123-6.0676 5.9702-10.33v-25.768c5.6562-1.0208 11.312-2.0417 16.969-3.0625v20.469c-5.7611-0.77515-12.674 4.0029-11.706 10.279 1.4509 5.9047 9.1114 7.1485 13.923 4.7253 4.0827-1.6483 6.4123-6.0676 5.9702-10.33-0.02094-13.703 0.04182-27.416-0.03125-41.112-0.18604-0.90952-1.0574-1.5506-1.9688-1.5z" fill="#005ef5" opacity="0.05"/>
 <path d="m65.099 11.579-29.594 5.1875a0.93647 0.93647 0 0 0 -0.78125 0.9375v35.531c-1.6156-0.23382-3.3445-0.21598-5.0938 0.34375-2.3501 0.752-4.25 2.1289-5.4375 3.8125s-1.6508 3.745-0.96875 5.6562c0.68174 1.9104 2.3423 3.2484 4.3438 3.9062 2.0015 0.65786 4.3668 0.6901 6.7188-0.0625 3.8165-1.2212 6.4373-4.1522 6.625-7.3125a0.93647 0.93647 0 0 0 0.125 -0.46875v-28.781l18.844-3.375v22.594c-1.611-0.24159-3.3378-0.24939-5.0938 0.3125-2.352 0.75262-4.2509 2.1525-5.4375 3.8438s-1.6511 3.7441-0.96875 5.6562c0.68174 1.9104 2.3423 3.2484 4.3438 3.9062 2.0015 0.65786 4.3668 0.6901 6.7188-0.0625 3.8165-1.2212 6.4373-4.1522 6.625-7.3125a0.93647 0.93647 0 0 0 0.125 -0.46875v-42.906a0.93647 0.93647 0 0 0 -1.0938 -0.9375z" fill="#005ef5" opacity="0.12"/>
 <path d="m65.249 12.517-29.589 5.1781v36.57c-1.7156-0.46318-3.7445-0.43562-5.756 0.20805-4.3471 1.391-6.9373 5.0948-5.8022 8.2757 1.1351 3.1808 5.5699 4.6273 9.917 3.2363 3.7133-1.1882 6.131-4.0692 6.0565-6.8656h0.02312v-29.589l20.712-3.6986v24.735c-1.7156-0.46319-3.7445-0.43562-5.756 0.20805-4.3471 1.391-6.9373 5.0948-5.8022 8.2757 1.1351 3.1808 5.5699 4.6273 9.9169 3.2363 3.7132-1.1882 6.131-4.0692 6.0565-6.8656h0.0231v-42.904z" fill="#005ef5" opacity="0.3"/>
 <g transform="matrix(0.73973 0 0 0.73973 6.071 7.079)">
  <use xlink:href="#SVGCleanerId_0"/>
  <use xlink:href="#SVGCleanerId_1"/>
  <use xlink:href="#SVGCleanerId_2"/>
  <use xlink:href="#SVGCleanerId_3"/>
  <use xlink:href="#SVGCleanerId_4"/>
  <use xlink:href="#SVGCleanerId_5"/>
  <use xlink:href="#SVGCleanerId_6"/>
  <use xlink:href="#SVGCleanerId_7" transform="matrix(0.96732 -0.30953 0.34731 0.97324 -26.27 19.621)"/>
  <use xlink:href="#SVGCleanerId_8"/>
  <use xlink:href="#SVGCleanerId_9"/>
  <use xlink:href="#SVGCleanerId_10"/>
  <use xlink:href="#SVGCleanerId_7" transform="matrix(0.96732 -0.30953 0.34731 0.97324 7.732 14.621)"/>
  <use xlink:href="#SVGCleanerId_11"/>
  <use xlink:href="#SVGCleanerId_12"/>
  <use xlink:href="#SVGCleanerId_13"/>
 </g>
 <path d="m12-95.031c-5.5111 0-10.031 4.5202-10.031 10.031v71c0 5.5111 4.5202 10.031 10.031 10.031h72c5.5111 0 10.031-4.5202 10.031-10.031v-71c0-5.5111-4.5202-10.031-10.031-10.031h-72z" fill="url(#linearGradient19989)" opacity="0.08" transform="matrix(1 0 0 -1 -202.63 -32.21)"/>
 <path d="m12-94.031c-4.9716 0-9.0312 4.0596-9.0312 9.0312v71c0 4.9716 4.0596 9.0312 9.0312 9.0312h72c4.9716 0 9.0312-4.0596 9.0312-9.0312v-71c0-4.9716-4.0596-9.0312-9.0312-9.0312h-72z" fill="url(#linearGradient19989)" opacity="0.1" transform="matrix(1 0 0 -1 -202.63 -32.21)"/>
 <path d="m12-93c-4.4091 0-8 3.5909-8 8v71c0 4.4091 3.5909 8 8 8h72c4.4091 0 8-3.5909 8-8v-71c0-4.4091-3.5909-8-8-8h-72z" fill="url(#linearGradient19989)" opacity="0.2" transform="matrix(1 0 0 -1 -202.63 -32.21)"/>
 <g transform="matrix(1 0 0 1 -202.63 -32.21)">
  <path d="m12 6c-3.324 0-6 2.676-6 6v2 68 2c0 0.33472 0.04135 0.6507 0.09375 0.96875 0.0487 0.2956 0.09704 0.59692 0.1875 0.875 0.0099 0.03038 0.02089 0.0636 0.03125 0.09375 0.09886 0.28777 0.23488 0.54745 0.375 0.8125 0.14459 0.27351 0.31562 0.53562 0.5 0.78125 0.18438 0.24564 0.37378 0.47347 0.59375 0.6875 0.43995 0.42806 0.94291 0.81453 1.5 1.0938 0.27854 0.13961 0.57347 0.24695 0.875 0.34375-0.2562-0.10022-0.48671-0.23627-0.71875-0.375-0.0074-0.0044-0.02387 0.0045-0.03125 0-0.03193-0.0193-0.06229-0.04251-0.09375-0.0625-0.1204-0.0767-0.23102-0.16351-0.34375-0.25-0.10617-0.0808-0.21328-0.16111-0.3125-0.25-0.1778-0.162-0.3473-0.346-0.4999-0.531-0.1075-0.131-0.2183-0.266-0.3124-0.407-0.0251-0.038-0.0385-0.086-0.0626-0.125-0.0647-0.103-0.1302-0.204-0.1874-0.312-0.1011-0.195-0.2057-0.416-0.2813-0.625-0.008-0.022-0.0236-0.041-0.0313-0.063-0.0318-0.092-0.0358-0.187-0.0624-0.281-0.0304-0.107-0.0704-0.203-0.0938-0.313-0.0729-0.341-0.125-0.698-0.125-1.062v-2-68-2c0-2.782 2.2182-5 5-5h2 68 2c2.7818 0 5 2.2182 5 5v2 68 2c0 0.3643-0.05212 0.72099-0.125 1.0625-0.04415 0.20689-0.08838 0.39766-0.15625 0.59375-0.0077 0.02195-0.0233 0.04069-0.03125 0.0625-0.06274 0.17374-0.13838 0.36745-0.21875 0.53125-0.04158 0.0828-0.07904 0.16995-0.125 0.25-0.0546 0.09721-0.12677 0.18835-0.1875 0.28125-0.09411 0.14096-0.20492 0.276-0.3125 0.40625-0.14317 0.17445-0.30314 0.347-0.46875 0.5-0.01117 0.0102-0.01998 0.02115-0.03125 0.03125-0.13839 0.12556-0.28509 0.23444-0.4375 0.34375-0.10257 0.07315-0.20432 0.15336-0.3125 0.21875-0.0074 0.0045-0.02384-0.0044-0.03125 0-0.23204 0.13873-0.46255 0.27478-0.71875 0.375 0.30153-0.0968 0.59646-0.20414 0.875-0.34375 0.55709-0.27922 1.0601-0.66569 1.5-1.0938 0.21997-0.21403 0.40937-0.44186 0.59375-0.6875s0.35541-0.50774 0.5-0.78125c0.14012-0.26505 0.27614-0.52473 0.375-0.8125 0.01041-0.03078 0.02133-0.06274 0.03125-0.09375 0.09046-0.27808 0.1388-0.5794 0.1875-0.875 0.053-0.318 0.094-0.634 0.094-0.969v-2-68-2c0-3.324-2.676-6-6-6h-72z" fill="url(#linearGradient20001)" opacity="0.5"/>
  <path d="m12 90c-3.324 0-6-2.676-6-6v-2-68-2c0-0.33472 0.04135-0.6507 0.09375-0.96875 0.0487-0.2956 0.09704-0.59692 0.1875-0.875 0.0099-0.03 0.0209-0.063 0.0313-0.094 0.0989-0.2873 0.2349-0.547 0.375-0.812 0.1446-0.2735 0.3156-0.5356 0.5-0.7812 0.1844-0.2457 0.3738-0.4735 0.5937-0.6876 0.44-0.428 0.943-0.8145 1.5-1.0937 0.2786-0.1396 0.5735-0.2469 0.8748-0.3437-0.256 0.1002-0.4865 0.2362-0.7185 0.375-0.00741 0.0044-0.023866-0.0045-0.03125 0-0.031933 0.0193-0.062293 0.04251-0.09375 0.0625-0.1204 0.0767-0.23102 0.16351-0.34375 0.25-0.10617 0.0808-0.21328 0.16111-0.3125 0.25-0.1779 0.1614-0.3474 0.3453-0.5 0.5312-0.1075 0.1303-0.2183 0.2653-0.3124 0.4063-0.0251 0.0383-0.0385 0.0858-0.0626 0.125-0.0647 0.103-0.1302 0.2045-0.1874 0.3124-0.1011 0.1948-0.2057 0.4158-0.2813 0.625-0.008 0.0219-0.0236 0.0406-0.0313 0.0626-0.0318 0.0919-0.0358 0.1868-0.0624 0.2812-0.0304 0.1066-0.0704 0.203-0.0938 0.3125-0.0729 0.3415-0.125 0.6985-0.125 1.0625v2 68 2c0 2.7818 2.2182 5 5 5h2 68 2c2.7818 0 5-2.2182 5-5v-2-68-2c0-0.364-0.052-0.721-0.125-1.0625-0.044-0.2069-0.088-0.3977-0.156-0.5937-0.008-0.022-0.024-0.0407-0.031-0.0626-0.063-0.1737-0.139-0.3674-0.219-0.5312-0.042-0.0828-0.079-0.17-0.125-0.25-0.055-0.0972-0.127-0.1884-0.188-0.2812-0.094-0.141-0.205-0.276-0.312-0.4063-0.143-0.1745-0.303-0.347-0.469-0.5-0.011-0.0102-0.02-0.0211-0.031-0.0313-0.139-0.1255-0.285-0.2344-0.438-0.3437-0.102-0.0731-0.204-0.1534-0.312-0.2187-0.0074-0.0045-0.02384 0.0044-0.03125 0-0.23204-0.13873-0.46255-0.27478-0.71875-0.375 0.30153 0.0968 0.59646 0.20414 0.875 0.34375 0.55709 0.27922 1.0601 0.66569 1.5 1.0938 0.21997 0.21403 0.40937 0.44186 0.59375 0.6875s0.35541 0.50774 0.5 0.78125c0.14012 0.26505 0.27614 0.52473 0.375 0.8125 0.01041 0.03078 0.02133 0.06274 0.03125 0.09375 0.09046 0.27808 0.1388 0.5794 0.1875 0.875 0.053 0.318 0.094 0.634 0.094 0.969v2 68 2c0 3.324-2.676 6-6 6h-72z" fill="url(#radialGradient20003)" opacity="0.4"/>
  <text font-size="4" x="131.39" y="11.969" line-height="125%" fill="#000000" font-family="Liberation Sans"><tspan x="131.39" y="11.969">Width: 2px</tspan><tspan x="131.39" y="16.969">Blur: 12</tspan><tspan x="131.39" y="21.969">Opacity: 60</tspan>
  </text>
 </g>
 <path d="m-137.04-21.118c-10.023 1.7794-20.084 3.4678-30.094 5.3125-1.9764 0.76331-1.0321 3.248-1.25 4.8623v31.45c-5.7436-0.70556-12.716 3.9658-11.706 10.278 1.4494 5.9059 9.1113 7.1502 13.923 4.7268 4.0827-1.6483 6.4123-6.0676 5.9702-10.33v-25.768c5.6562-1.0208 11.312-2.0417 16.969-3.0625v20.469c-5.7611-0.77515-12.674 4.0029-11.706 10.279 1.4509 5.9047 9.1114 7.1485 13.923 4.7253 4.0827-1.6483 6.4123-6.0676 5.9702-10.33-0.0209-13.703 0.0418-27.416-0.0313-41.112-0.18604-0.90952-1.0574-1.5506-1.9688-1.5z" fill="#005ef5" opacity="0.05"/>
 <path d="m-137.07-20.149-29.594 5.1875a0.93647 0.93647 0 0 0 -0.78125 0.9375v35.531c-1.6156-0.23382-3.3445-0.21598-5.0938 0.34375-2.3501 0.752-4.25 2.1289-5.4375 3.8125s-1.6508 3.745-0.96875 5.6562c0.68174 1.9104 2.3423 3.2484 4.3438 3.9062 2.0015 0.65786 4.3668 0.6901 6.7188-0.0625 3.8165-1.2212 6.4373-4.1522 6.625-7.3125a0.93647 0.93647 0 0 0 0.125 -0.46875v-28.781l18.844-3.375v22.594c-1.611-0.24159-3.3378-0.24939-5.0938 0.3125-2.352 0.75262-4.2509 2.1525-5.4375 3.8438s-1.6511 3.7441-0.96875 5.6562c0.68174 1.9104 2.3423 3.2484 4.3438 3.9062 2.0015 0.65786 4.3668 0.6901 6.7188-0.0625 3.8165-1.2212 6.4373-4.1522 6.625-7.3125a0.93647 0.93647 0 0 0 0.125 -0.46875v-42.906a0.93647 0.93647 0 0 0 -1.0938 -0.9375z" fill="#005ef5" opacity="0.12"/>
 <path d="m-136.92-19.212-29.589 5.1781v36.57c-1.7156-0.46318-3.7445-0.43562-5.756 0.20805-4.3471 1.391-6.9374 5.0948-5.8022 8.2757 1.1351 3.1808 5.5699 4.6273 9.917 3.2363 3.7133-1.1882 6.131-4.0692 6.0565-6.8656h0.0231v-29.589l20.712-3.6986v24.735c-1.7156-0.46319-3.7445-0.43562-5.756 0.20805-4.3471 1.391-6.9373 5.0948-5.8022 8.2757 1.1351 3.1808 5.5699 4.6273 9.917 3.2363 3.7132-1.1882 6.131-4.0692 6.0565-6.8656h0.0231v-42.904z" fill="#005ef5" opacity="0.3"/>
 <g transform="matrix(0.73973 0 0 0.73973 -196.1 -24.65)">
  <use xlink:href="#SVGCleanerId_0"/>
  <use xlink:href="#SVGCleanerId_1"/>
  <use xlink:href="#SVGCleanerId_2"/>
  <use xlink:href="#SVGCleanerId_3"/>
  <use xlink:href="#SVGCleanerId_4"/>
  <use xlink:href="#SVGCleanerId_5"/>
  <use xlink:href="#SVGCleanerId_6"/>
  <use xlink:href="#SVGCleanerId_7" transform="matrix(0.96732 -0.30953 0.34731 0.97324 -26.27 19.621)"/>
  <use xlink:href="#SVGCleanerId_8"/>
  <use xlink:href="#SVGCleanerId_9"/>
  <use xlink:href="#SVGCleanerId_10"/>
  <use xlink:href="#SVGCleanerId_7" transform="matrix(0.96732 -0.30953 0.34731 0.97324 7.732 14.621)"/>
  <use xlink:href="#SVGCleanerId_11"/>
  <use xlink:href="#SVGCleanerId_12"/>
  <use xlink:href="#SVGCleanerId_13"/>
 </g>
 <g fill="#666" transform="matrix(1 0 0 1 109.32 -4.537)">
  <path d="m-65.768 76.805h-1.7026c-0.30957 1.531-0.62487 3.0189-0.9459 4.4636-0.32104 1.434-0.61341 2.8733-0.87711 4.3181-0.24078-1.4555-0.54462-2.9057-0.91151-4.3504-0.3669-1.4447-0.7338-2.9218-1.1007-4.4313h-1.8574c-0.3669 1.5634-0.73379 3.0836-1.1007 4.5606-0.35544 1.4663-0.69367 2.938-1.0147 4.4151-0.25224-1.4771-0.53315-2.9542-0.84271-4.4313-0.30957-1.4771-0.61341-2.9919-0.91151-4.5445h-1.7198l2.6657 12h1.651c0.13759-0.59299 0.2981-1.2668 0.48156-2.0216 0.18344-0.75471 0.37262-1.5364 0.56754-2.345 0.20637-0.8194 0.40128-1.6496 0.58474-2.4906 0.19491-0.84096 0.37262-1.6496 0.53314-2.4259 0.36689 1.5418 0.72232 3.0836 1.0663 4.6253 0.35542 1.531 0.71658 3.0836 1.0835 4.6577h1.5822l2.7689-12"/>
  <path d="m-54.387 88.805v-12h-2.0588c-0.20589 0.70082-0.44037 1.4879-0.70343 2.3612-0.25164 0.86254-0.50328 1.7251-0.7549 2.5876-0.25164 0.85176-0.49184 1.6496-0.72059 2.3935-0.21732 0.73316-0.39461 1.3208-0.53186 1.7628-0.0915-0.2911-0.20017-0.65229-0.32598-1.0836-0.12582-0.44204-0.26307-0.92183-0.41176-1.4394-0.1487-0.51752-0.30883-1.062-0.48039-1.6334-0.16013-0.5822-0.32598-1.159-0.49755-1.7305-0.16013-0.5822-0.32026-1.1482-0.48039-1.6981-0.14869-0.54985-0.28595-1.0566-0.41176-1.5202h-2.2647v12h1.6471v-8.4906l2.4191 8.4906h1.527l2.3676-8.1833v8.1833h1.6814"/>
  <path d="m-43.244 88.805-3.8976-12h-1.5364l-3.6388 12h1.6819l1.0027-3.5418h3.5418l1.0674 3.5418h1.779m-3.3477-5.062h-2.5714c0.22641-0.74393 0.45283-1.4825 0.67925-2.2156 0.22641-0.74393 0.42048-1.504 0.58221-2.2803 0.19406 0.76551 0.4043 1.5202 0.63072 2.2642 0.2372 0.74394 0.46361 1.4879 0.67925 2.2318"/>
 </g>
</svg>
