<svg height="96" width="96" xmlns="http://www.w3.org/2000/svg" xmlns:xlink="http://www.w3.org/1999/xlink">
 <defs>
  <filter x="-0.192" y="-0.192" height="1.384" color-interpolation-filters="sRGB" id="filter3794-58" width="1.384">
   <feGaussianBlur stdDeviation="5.28"/>
  </filter>
  <linearGradient x2="0" y1="20.221" y2="138.66" gradientUnits="userSpaceOnUse" id="linearGradient11029">
   <stop stop-color="#fff"/>
   <stop stop-color="#fff" stop-opacity="0" offset="1"/>
  </linearGradient>
  <linearGradient x2="0" y1="90" y2="5.988" gradientUnits="userSpaceOnUse" id="linearGradient8339" gradientTransform="matrix(1.0959 0 0 1.0685 -4.442 -3.204)">
   <stop stop-color="#ebebeb"/>
   <stop stop-color="#fafafa" offset="1"/>
  </linearGradient>
  <radialGradient cy="360.77" r="21.302" gradientUnits="userSpaceOnUse" id="radialGradient8416" cx="303.16" gradientTransform="matrix(0.44073 -0.24657 0.39119 0.69922 -196.61 -156.38)">
   <stop stop-color="#b4b4b4"/>
   <stop stop-color="#b4b4b4" stop-opacity="0" offset="1"/>
  </radialGradient>
  <linearGradient x2="0" y1="48.04" y2="79.52" spreadMethod="reflect" gradientUnits="userSpaceOnUse" id="linearGradient12223" gradientTransform="matrix(1 0 0 1 338.87 -254.78)">
   <stop stop-color="#4caaff"/>
   <stop stop-color="#9fd7f8" offset="1"/>
  </linearGradient>
  <clipPath id="clipPath3613-30">
   <use xlink:href="#SVGCleanerId_0"/>
  </clipPath>
  <filter x="-0.141" y="-0.148" height="1.295" color-interpolation-filters="sRGB" id="filter3904" width="1.281">
   <feGaussianBlur stdDeviation="2.95364"/>
  </filter>
  <clipPath id="clipPath3900">
   <path d="m12 6c-3.324 0-6 2.676-6 6v72c0 3.324 2.676 6 6 6h72c3.324 0 6-2.676 6-6v-72c0-3.324-2.676-6-6-6h-72zm36 18c7.1156 0 12.812 5.3588 12.812 12-0.02737 0.80462-0.06285 1.7872-0.125 2.7188 1.0542 0.66289 1.1062 2.8756 0.125 5.1875-0.34904 0.82239-0.74494 1.4886-1.2188 2.0625-0.14887 0.69438-0.21547 1.2248-0.40625 2.0312-0.53084 1.5925-2.6375 4.7786-4.2188 7.2188-0.10157 1.6192-0.07483 3.2623 0.125 4.9062 4.9388 4.2946 17.855 6.5744 17.875 10.25l0.25 1.625h-50.438l0.25-1.625c-0.01917-4.2946 12.875-6.1016 17.875-10.25 0.34667-2.0212 0.17016-3.8171 0-5.5938-1.734-2.312-3.616-5.1-4.093-6.53-0.17079-0.78174-0.14306-1.0973-0.28125-1.7812-0.56875-0.61214-1.0904-1.3475-1.5-2.3125-1.0329-2.4336-0.93555-4.7961 0.28125-5.3125-0.067-0.862-0.108-1.887-0.124-2.594 0-6.641 5.696-12 12.812-12z"/>
  </clipPath>
  <linearGradient x2="0" y1="72" y2="24" gradientUnits="userSpaceOnUse" id="linearGradient29134" gradientTransform="matrix(1 0 0 1 216.91 -49.858)">
   <stop stop-color="#bababa"/>
   <stop stop-color="#d2d2d2" offset="1"/>
  </linearGradient>
  <rect x="6" rx="6" y="6" height="84" id="SVGCleanerId_0" width="84"/>
 </defs>
 <path d="m16.059 3.1081c-7.049 0-12.719 5.6697-12.719 12.719v64.531c0 7.049 5.6697 12.719 12.719 12.719h64.188c7.049 0 12.719-5.6697 12.719-12.719v-35.013c-0.0367-3.8222-0.0417-6.3452-1.8012-9.5856l-16.206-29.842c-1.0788-1.8835-2.0313-2.8088-5.1346-2.8088z" fill-opacity="0.02"/>
 <path d="m16.497 3.7018c-6.9538 0-12.531 5.6087-12.531 12.562v63.656c0 6.9538 5.5775 12.531 12.531 12.531h63.312c6.9538 0 12.562-5.5775 12.562-12.531v-34.607c-0.0741-3.7145-0.0646-6.1373-1.775-9.2846l-16.222-29.849c-0.90306-1.708-1.7952-2.4773-4.5338-2.4773z" fill-opacity="0.039"/>
 <path d="m16.934 4.3268c-6.8585 0-12.375 5.5165-12.375 12.375v62.781c0 6.8585 5.5165 12.375 12.375 12.375h62.438c6.8585 0 12.375-5.5165 12.375-12.375v-34.169c-0.0596-3.6037-0.0554-5.964-1.7158-9.0186l-16.222-29.842c-0.57824-1.2184-1.5501-2.1266-3.906-2.1266z" fill-opacity="0.078"/>
 <path d="m17.372 4.9206c-6.7632 0-12.219 5.4555-12.219 12.219v61.906c0 6.7632 5.4555 12.219 12.219 12.219h61.562c6.7632 0 12.219-5.4555 12.219-12.219v-33.794c-0.0346-3.5165-0.0841-5.7358-1.6885-8.6896l-16.237-29.895c-0.43675-0.77203-1.3586-1.7467-3.3394-1.7467z" fill-opacity="0.157"/>
 <path d="m17.747 5.5143c-6.6418 0-11.969 5.3946-11.969 12.062v61.031c0 6.668 5.327 12.031 11.969 12.031h60.813c6.6418 0 11.969-5.3632 11.969-12.031l-0.06245-33.438c-0.0731-3.3855-0.11339-5.4702-1.6562-8.3125l-16.283-29.967c-0.544-0.7689-1.558-1.3403-2.625-1.3747z" fill="url(#linearGradient8339)"/>
 <path d="m344.83-206.32c1.5828 0 0.28855-23.91 2.6363-23.91 2.4177 0 0.28751 47.819 2.6363 47.819 2.3478 0 0.98808-35.865 2.6363-35.865 1.7182 0 0.49842 28.692 2.6363 28.692 2.068 0 0.42846-52.601 2.6363-52.601 2.1379 0 0.84817 47.819 2.6363 47.819 1.8581 0 0.84817-20.323 2.6363-20.323 1.8581 0 0.35803 36.149 2.6363 35.865 2.4177-0.3019 0.77813-51.26 2.6363-51.406 1.9281-0.15096 0.14958 55.139 2.6363 54.992 2.5576-0.15095 0.56837-43.037 2.6363-43.037 2.1379 0 0.77813 23.764 2.6363 23.91 1.9281 0.15095 0.84817-40.646 2.6363-40.646 1.8581 0 0.57258 45.225 2.6363 45.428 2.1648 0.21348 0.37239-24.901 2.6363-25.105 2.3627-0.21348 0.47149 15.541 2.6363 15.541 2.0659 0 0.4715-31.083 2.6363-31.083 2.0659 0 0.57042 47.819 2.6363 47.819 2.1648 0 0.87822-60.377 2.6363-59.774 1.8681 0.64044 0.86997 64.769 2.6363 64.556 1.7691-0.21348 0.86693-40.444 2.6363-40.646 1.8681-0.21348 0.47149 23.91 2.6363 23.91 2.2638 0 0.57043-31.083 2.6363-31.083 2.1648 0 0.37257 39.451 2.6363 39.451 2.3627 0 0.46924-44.233 2.6363-44.233 2.1648 0 0.57043 33.474 2.6363 33.474 1.967 0 0.86721-20.323 2.6363-20.323 1.868 0 0.76828 26.301 2.6363 26.301 1.967 0 0.76828-33.474 2.6363-33.474 1.967 0 0.17472 44.233 2.6363 44.233 2.5606 0 0.57067-52.826 2.6363-52.601 1.967 0.21348 0.95456 26.301 2.6363 26.301" fill="url(#linearGradient12223)" opacity="0.4"/>
 <rect x="15" stroke-width="0.5" rx="12" y="15" clip-path="url(#clipPath3613-30)" fill="url(#linearGradient11029)" stroke="#fff" height="66" filter="url(#filter3794-58)" opacity="0.5" stroke-linecap="round" width="66" transform="matrix(1 0 0 1 -1.193 1.248)"/>
 <path d="m71.473 4.4296c-7.4721 3.35-12.688 10.913-12.688 19.719 0 11.911 9.5167 21.562 21.281 21.562 4.3866 0 8.4555-1.3551 11.844-3.6562l-20.437-37.625z" stroke-width="0.1" fill="url(#radialGradient8416)"/>
 <path d="m72.4 6.5777c-0.341-0.3041-0.564-0.3884-0.564-0.3884s0.83487 0.58215-0.16423 2.3199c-3.6996 5.3693-2.6956 12.724 2.4663 16.827l13.888 11.014c0.78033 0.57546 0.96083 0.84746 1.2481 1.2895z" fill="#ccc"/>
 <path d="m72.648 6.9456c-0.26811-0.37128-0.48292-0.5133-0.48292-0.5133s0.74441 0.70007-0.21905 2.3758c-3.5676 5.1777-2.5994 12.27 2.3783 16.227l13.393 10.621c0.75249 0.55493 0.92655 0.81722 1.2036 1.2435z" fill="#fff"/>
 <g transform="matrix(1 0 0 1 -217.17 50.912)">
  <path d="m264.91-25.858c-7.1156 0-12.818 5.3588-12.818 12 0.016 0.7072 0.0689 1.7294 0.13636 2.5909-1.2168 0.51643-1.3056 2.8846-0.27272 5.3182 0.40958 0.96505 0.93124 1.706 1.5 2.3182 0.13819 0.68394 0.10193 0.99099 0.27272 1.7727 0.4766 1.4298 2.3556 4.232 4.0909 6.5455 0.17016 1.7767 0.34667 3.5697 0 5.5909-5.0001 4.1484-17.883 5.9327-17.864 10.227l-0.27273 1.6364h50.455l-0.27274-1.6364c-0.0205-3.6756-12.925-5.9327-17.864-10.227-0.19984-1.644-0.23793-3.2899-0.13636-4.9091 1.5812-2.4402 3.6964-5.6347 4.2273-7.2273 0.19079-0.80644 0.26022-1.3511 0.40909-2.0455 0.47382-0.57394 0.87824-1.2231 1.2273-2.0455 0.98122-2.3119 0.91779-4.5189-0.13636-5.1818 0.0622-0.9315 0.10899-1.9227 0.13636-2.7273 0-6.6412-5.7026-12-12.818-12z" fill="url(#linearGradient29134)"/>
  <path d="m252.13-13.358c-0.007 0.16863-0.0313 0.32962-0.0313 0.5 0.0101 0.44327 0.0602 1.0514 0.0937 1.625 0.0131-0.0061 0.0179-0.02557 0.0313-0.03125-0.0545-0.69531-0.07-1.4392-0.0937-2.0938zm25.562 0.03125c-0.028 0.69841-0.0437 1.4381-0.0937 2.1875 0.0125 0.0079 0.019 0.02294 0.0313 0.03125 0.0327-0.60705 0.0761-1.2319 0.0937-1.75 0-0.15977-0.0247-0.31052-0.0313-0.46875zm-26.406 4.875c-0.0744 0.98149 0.11599 2.2271 0.65625 3.5 0.40958 0.96505 0.93125 1.7004 1.5 2.3125 0.13819 0.68394 0.11046 0.99951 0.28125 1.7812 0.4766 1.4298 2.3585 4.2178 4.0938 6.5312 0.0851 0.88835 0.16544 1.7958 0.1875 2.7188 0.0437-1.2852-0.0722-2.5145-0.1875-3.7188-1.7353-2.3135-3.6172-5.1015-4.0938-6.5312-0.17079-0.78174-0.14306-1.0973-0.28125-1.7812-0.56875-0.61214-1.0904-1.3475-1.5-2.3125-0.36791-0.86687-0.57326-1.7305-0.65625-2.5zm27.094 0.03125c-0.077 0.76157-0.28829 1.6018-0.65625 2.4688-0.34904 0.82239-0.74494 1.4886-1.2188 2.0625-0.14887 0.69438-0.21547 1.2248-0.40625 2.0312-0.53084 1.5925-2.6375 4.7786-4.2188 7.2188-0.0457 0.72865-0.0754 1.4819-0.0625 2.2188 0.008-0.40769 0.0371-0.81394 0.0625-1.2188 1.5812-2.4402 3.6879-5.6262 4.2188-7.2188 0.19078-0.80644 0.25738-1.3369 0.40625-2.0312 0.47381-0.57394 0.86971-1.2401 1.2188-2.0625 0.53979-1.2718 0.73977-2.5 0.65625-3.4688zm-38.531 30.562-0.15625 1h50.438l-0.15625-1h-50.125z" fill="#fff"/>
  <path d="m264.91-25.858c-7.1156 0-12.812 5.3588-12.812 12 0.003 0.13642 0.0256 0.34355 0.0313 0.5 0.28235-6.4041 5.8482-11.5 12.781-11.5 6.9444 0 12.516 5.1124 12.781 11.531 0.007-0.16974 0.0259-0.37393 0.0313-0.53125 0-6.6412-5.6969-12-12.812-12zm-12.719 14.625c-0.75428 0.35244-1.0537 1.4142-0.90625 2.7812 0.0679-0.8949 0.35718-1.5662 0.9375-1.8125-0.0252-0.32152-0.0113-0.62719-0.0313-0.96875zm25.438 0.125c-0.0181 0.33572-0.009 0.63704-0.0313 0.96875 0.46771 0.29412 0.70831 0.91114 0.78125 1.6875 0.11834-1.2305-0.12347-2.2311-0.75-2.6562zm-5.8125 18.938c-0.0111 1.1429 0.0476 2.2867 0.1875 3.4375 4.9388 4.2946 17.855 6.5744 17.875 10.25l0.0937 0.625h0.15625l-0.25-1.625c-0.0205-3.6756-12.936-5.9554-17.875-10.25-0.0999-0.82199-0.16569-1.6181-0.1875-2.4375zm-13.812 0.96875c-0.0295 0.48009-0.10083 0.96344-0.1875 1.4688-5.0001 4.1484-17.894 5.9554-17.875 10.25l-0.25 1.625h0.15625l0.0937-0.625c-0.0192-4.2946 12.875-6.1016 17.875-10.25 0.1483-0.86464 0.18923-1.6711 0.1875-2.4688z" opacity="0.2"/>
  <path d="m48 24c-7.1156 0-12.818 5.3588-12.818 12 0.01605 0.7072 0.06889 1.7294 0.13637 2.5909-1.2168 0.51643-1.3056 2.8846-0.27273 5.3182 0.40958 0.96505 0.93125 1.706 1.5 2.3182 0.13819 0.68394 0.10193 0.99099 0.27273 1.7727 0.4766 1.4298 2.3556 4.232 4.0909 6.5455 0.17016 1.7767 0.34667 3.5697 0 5.5909-5.0001 4.1484-17.883 5.9327-17.864 10.227l-0.272 1.636h50.454l-0.272-1.636c-0.021-3.676-12.925-5.933-17.864-10.228-0.2-1.644-0.238-3.289-0.136-4.909 1.581-2.44 3.696-5.634 4.227-7.227 0.19078-0.80644 0.26022-1.3511 0.40909-2.0455 0.47382-0.57394 0.87824-1.2231 1.2273-2.0455 0.98122-2.3119 0.9178-4.5189-0.13635-5.1818 0.06215-0.9315 0.10898-1.9227 0.13635-2.7273 0-6.641-5.702-12-12.818-12z" stroke-width="2" clip-path="url(#clipPath3900)" fill="none" stroke="#fff" filter="url(#filter3904)" opacity="0.6" transform="matrix(1 0 0 1 216.91 -49.858)"/>
 </g>
</svg>
