<svg height="96" width="96" xmlns="http://www.w3.org/2000/svg" xmlns:xlink="http://www.w3.org/1999/xlink" xmlns:sodipodi="http://sodipodi.sourceforge.net/DTD/sodipodi-0.dtd" xmlns:inkscape="http://www.inkscape.org/namespaces/inkscape">
 <defs>
  <linearGradient id="linearGradient15916">
   <stop stop-color="#b4b4b4"/>
   <stop stop-color="#b4b4b4" stop-opacity="0" offset="1"/>
  </linearGradient>
  <linearGradient x2="0" y1="90" y2="5.988" gradientUnits="userSpaceOnUse" id="linearGradient8339" gradientTransform="matrix(1.0959 0 0 1.0685 -4.442 -3.204)">
   <stop stop-color="#ebebeb"/>
   <stop stop-color="#fafafa" offset="1"/>
  </linearGradient>
  <radialGradient cy="360.77" r="21.302" xlink:href="#linearGradient15916" gradientUnits="userSpaceOnUse" id="radialGradient8416" cx="303.16" gradientTransform="matrix(0.44073 -0.24657 0.39119 0.69922 -196.61 -156.38)"/>
  <linearGradient x1="320.6" x2="293.81" xlink:href="#linearGradient15916" y1="345.4" y2="361.49" gradientUnits="userSpaceOnUse" id="linearGradient8419" gradientTransform="matrix(1 0 0 1 -224.68 -343.18)"/>
  <linearGradient x2="0" y1="48.04" y2="79.52" spreadMethod="reflect" gradientUnits="userSpaceOnUse" id="linearGradient12223" gradientTransform="matrix(1 0 0 1 338.87 -254.78)">
   <stop stop-color="#4caaff"/>
   <stop stop-color="#9fd7f8" offset="1"/>
  </linearGradient>
  <linearGradient x2="0" y1="64" y2="24" gradientUnits="userSpaceOnUse" id="linearGradient8342">
   <stop stop-color="#6ab300"/>
   <stop stop-color="#9dcf00" offset="1"/>
  </linearGradient>
 </defs>
 <path d="m16.059 3.1081c-7.049 0-12.719 5.6697-12.719 12.719v64.531c0 7.049 5.6697 12.719 12.719 12.719h64.188c7.049 0 12.719-5.6697 12.719-12.719v-35.013c-0.0367-3.8222-0.0417-6.3452-1.8012-9.5856l-16.206-29.842c-1.0788-1.8835-2.0313-2.8088-5.1346-2.8088z" fill-opacity="0.02"/>
 <path d="m16.497 3.7018c-6.9538 0-12.531 5.6087-12.531 12.562v63.656c0 6.9538 5.5775 12.531 12.531 12.531h63.312c6.9538 0 12.562-5.5775 12.562-12.531v-34.607c-0.0741-3.7145-0.0646-6.1373-1.775-9.2846l-16.222-29.849c-0.90306-1.708-1.7952-2.4773-4.5338-2.4773z" fill-opacity="0.039"/>
 <path d="m16.934 4.3268c-6.8585 0-12.375 5.5165-12.375 12.375v62.781c0 6.8585 5.5165 12.375 12.375 12.375h62.438c6.8585 0 12.375-5.5165 12.375-12.375v-34.169c-0.0596-3.6037-0.0554-5.964-1.7158-9.0186l-16.222-29.842c-0.57824-1.2184-1.5501-2.1266-3.906-2.1266z" fill-opacity="0.078"/>
 <path d="m17.372 4.9206c-6.7632 0-12.219 5.4555-12.219 12.219v61.906c0 6.7632 5.4555 12.219 12.219 12.219h61.562c6.7632 0 12.219-5.4555 12.219-12.219v-33.794c-0.0346-3.5165-0.0841-5.7358-1.6885-8.6896l-16.237-29.895c-0.43675-0.77203-1.3586-1.7467-3.3394-1.7467z" fill-opacity="0.157"/>
 <path d="m17.747 5.5143c-6.6418 0-11.969 5.3946-11.969 12.062v61.031c0 6.668 5.327 12.031 11.969 12.031h60.813c6.6418 0 11.969-5.3632 11.969-12.031l-0.06245-33.438c-0.0731-3.3855-0.11339-5.4702-1.6562-8.3125l-16.283-29.967c-0.544-0.7689-1.558-1.3403-2.625-1.3747z" fill="url(#linearGradient8339)"/>
 <path d="m5.7709 77.595v1.0133c0 6.668 5.3434 12.032 11.985 12.032h60.809c6.6418 0 11.985-5.3645 11.985-12.032v-1.0133c0 6.6681-5.3434 12.032-11.985 12.032h-60.809c-6.6418 0-11.985-5.3644-11.985-12.032z" fill-opacity="0.098"/>
 <path d="m344.83-206.32c1.5828 0 0.28855-23.91 2.6363-23.91 2.4177 0 0.28751 47.819 2.6363 47.819 2.3478 0 0.98808-35.865 2.6363-35.865 1.7182 0 0.49842 28.692 2.6363 28.692 2.068 0 0.42846-52.601 2.6363-52.601 2.1379 0 0.84817 47.819 2.6363 47.819 1.8581 0 0.84817-20.323 2.6363-20.323 1.8581 0 0.35803 36.149 2.6363 35.865 2.4177-0.3019 0.77813-51.26 2.6363-51.406 1.9281-0.15096 0.14958 55.139 2.6363 54.992 2.5576-0.15095 0.56837-43.037 2.6363-43.037 2.1379 0 0.77813 23.764 2.6363 23.91 1.9281 0.15095 0.84817-40.646 2.6363-40.646 1.8581 0 0.57258 45.225 2.6363 45.428 2.1648 0.21348 0.37239-24.901 2.6363-25.105 2.3627-0.21348 0.47149 15.541 2.6363 15.541 2.0659 0 0.4715-31.083 2.6363-31.083 2.0659 0 0.57042 47.819 2.6363 47.819 2.1648 0 0.87822-60.377 2.6363-59.774 1.8681 0.64044 0.86997 64.769 2.6363 64.556 1.7691-0.21348 0.86693-40.444 2.6363-40.646 1.8681-0.21348 0.47149 23.91 2.6363 23.91 2.2638 0 0.57043-31.083 2.6363-31.083 2.1648 0 0.37257 39.451 2.6363 39.451 2.3627 0 0.46924-44.233 2.6363-44.233 2.1648 0 0.57043 33.474 2.6363 33.474 1.967 0 0.86721-20.323 2.6363-20.323 1.868 0 0.76828 26.301 2.6363 26.301 1.967 0 0.76828-33.474 2.6363-33.474 1.967 0 0.17472 44.233 2.6363 44.233 2.5606 0 0.57067-52.826 2.6363-52.601 1.967 0.21348 0.95456 26.301 2.6363 26.301" fill="url(#linearGradient12223)" opacity="0.4"/>
 <path d="m57.817 5.6171v85.125h20.906c6.6418 0 11.969-5.3632 11.969-12.031v-61.031c0-0.92374-0.1187-1.7923-0.3125-2.6562 0.15863 0.78565 0.25 1.604 0.25 2.4375v27.812c-0.0731-3.3855-0.11339-5.4702-1.6562-8.3125l-16.282-29.968c-0.53945-0.76243-1.3896-1.1622-2.5938-1.375h-12.281z" fill="url(#linearGradient8419)"/>
 <path d="m71.473 4.4296c-7.4721 3.35-12.688 10.913-12.688 19.719 0 11.911 9.5167 21.562 21.281 21.562 4.3866 0 8.4555-1.3551 11.844-3.6562l-20.437-37.625z" stroke-width="0.1" fill="url(#radialGradient8416)"/>
 <path d="m72.4 6.5777c-0.341-0.3041-0.564-0.3884-0.564-0.3884s0.83487 0.58215-0.16423 2.3199c-3.6996 5.3693-2.6956 12.724 2.4663 16.827l13.888 11.014c0.78033 0.57546 0.96083 0.84746 1.2481 1.2895z" fill="#ccc"/>
 <path d="m72.648 6.9456c-0.26811-0.37128-0.48292-0.5133-0.48292-0.5133s0.74441 0.70007-0.21905 2.3758c-3.5676 5.1777-2.5994 12.27 2.3783 16.227l13.393 10.621c0.75249 0.55493 0.92655 0.81722 1.2036 1.2435z" fill="#fff"/>
 <g transform="matrix(1 0 0 1 -5.548 4.602)">
  <path d="m48.5 17c-3.5899 0-6.5 2.0147-6.5 4.5 0.10443 0.9272 0.69059 2.098 1 2.5 1.5 2 1.5 3.25 1.125 4h-12.125c-2.216 0-4 1.784-4 4v10.125c0.75 0.375 2 0.375 4-1.125 0.40197-0.30941 1.5728-0.89557 2.5-1 2.4853 0 4.5 2.9101 4.5 6.5 0 3.59-2.015 6.5-4.5 6.5-0.763-0.013-1.922-0.695-2.5-1-2-1.5-3.25-1.5-4-1.125v13.125c0 2.216 1.784 4 4 4h16.125c0.375-0.75 0.375-2-1.125-4-0.309-0.402-0.896-1.573-1-2.5 0-2.485 2.91-4.5 6.5-4.5 3.5899 0 6.5 2.0147 6.5 4.5-0.01292 0.76276-0.6951 1.9224-1 2.5-1.5 2-1.5 3.25-1.125 4h7.125c2.216 0 4-1.784 4-4v-11.125c0.75-0.375 2-0.375 4 1.125 0.57763 0.3049 1.7372 0.98708 2.5 1 2.4853 0 4.5-2.9101 4.5-6.5s-2.0147-6.5-4.5-6.5c-0.9272 0.10443-2.098 0.69059-2.5 1-2 1.5-3.25 1.5-4 1.125v-12.125c0-2.216-1.784-4-4-4h-11.125c-0.375-0.75-0.375-2 1.125-4 0.305-0.578 0.987-1.737 1-2.5 0-2.485-2.91-4.5-6.5-4.5z" fill="url(#linearGradient8342)" color="#000000"/>
  <path d="m48.5 17c-3.5899 0-6.5 2.0147-6.5 4.5 0.10443 0.9272 0.69059 2.098 1 2.5 1.5 2 1.5 3.25 1.125 4h-12.125c-2.216 0-4 1.784-4 4v10.125c0.75 0.375 2 0.375 4-1.125 0.40197-0.30941 1.5728-0.89557 2.5-1 2.4853 0 4.5 2.9101 4.5 6.5 0 3.59-2.015 6.5-4.5 6.5-0.763-0.013-1.922-0.695-2.5-1-2-1.5-3.25-1.5-4-1.125v13.125c0 2.216 1.784 4 4 4h16.125c0.375-0.75 0.375-2-1.125-4-0.309-0.402-0.896-1.573-1-2.5 0-2.485 2.91-4.5 6.5-4.5 3.5899 0 6.5 2.0147 6.5 4.5-0.01292 0.76276-0.6951 1.9224-1 2.5-1.5 2-1.5 3.25-1.125 4h7.125c2.216 0 4-1.784 4-4v-11.125c0.75-0.375 2-0.375 4 1.125 0.57763 0.3049 1.7372 0.98708 2.5 1 2.4853 0 4.5-2.9101 4.5-6.5s-2.0147-6.5-4.5-6.5c-0.9272 0.10443-2.098 0.69059-2.5 1-2 1.5-3.25 1.5-4 1.125v-12.125c0-2.216-1.784-4-4-4h-11.125c-0.375-0.75-0.375-2 1.125-4 0.305-0.578 0.987-1.737 1-2.5 0-2.485-2.91-4.5-6.5-4.5zm0 1.9375c1.4299 0 2.7056 0.45004 3.5 1 0.77948 0.53964 1.0525 1.0568 1.0625 1.5312 0.0084-0.01462-0.000602 0.000463 0 0.03125-0.02887 0.06517-0.11088 0.26533-0.21875 0.5-0.16406 0.35691-0.38124 0.75034-0.5625 1.0938h0.03125c-1.5665 2.2157-1.9213 4.3136-1.1875 5.7812a1.9514 1.9514 0 0 0 1.75 1.0625h11.125c1.1688 0 2.0625 0.89371 2.0625 2.0625v12.125a1.9514 1.9514 0 0 0 1.0625 1.75c1.5256 0.76282 3.7191 0.42164 6.0312-1.3125a1.9514 1.9514 0 0 0 0.03125 -0.03125c-0.09907 0.07626 1.0458-0.46506 1.4375-0.5625 0.45139 0.0417 0.93223 0.30141 1.4375 1.0312 0.54996 0.79438 1 2.0701 1 3.5s-0.45004 2.7056-1 3.5c-0.53964 0.77948-1.0568 1.0525-1.5312 1.0625 0.0092 0.000156-0.03777 0.000128-0.03125 0-0.06517-0.02887-0.26533-0.11088-0.5-0.21875-0.35691-0.16406-0.75034-0.38124-1.0938-0.5625v0.03125c-2.214-1.566-4.312-1.921-5.78-1.187a1.9514 1.9514 0 0 0 -1.0625 1.75v11.125c0 1.1688-0.89371 2.0625-2.0625 2.0625h-4.9688c0.14588-0.27766 0.17685-0.43372 0.53125-0.90625a1.9514 1.9514 0 0 0 0.15625 -0.25c0.12363-0.23422 0.39976-0.72326 0.65625-1.2812 0.25649-0.55799 0.54648-1.1477 0.5625-2.0938a1.9514 1.9514 0 0 0 0 -0.03125c0-2.0042-1.1606-3.7025-2.7188-4.7812-1.557-1.079-3.558-1.657-5.718-1.657-2.1599 0-4.1606 0.57752-5.7188 1.6562-1.558 1.079-2.719 2.778-2.719 4.782a1.9514 1.9514 0 0 0 0 0.21875c0.17273 1.5336 0.68804 2.5368 1.375 3.4375 0.0085 0.01116 0.02268 0.02012 0.03125 0.03125 0.33026 0.44485 0.36005 0.60862 0.5 0.875l-13.968-0.001c-1.1688 0-2.0625-0.89371-2.0625-2.0625v-10.969c0.27766 0.14588 0.43372 0.17685 0.90625 0.53125a1.9514 1.9514 0 0 0 0.25 0.15625c0.23422 0.12363 0.72326 0.39976 1.2812 0.65625 0.55799 0.25649 1.1477 0.54648 2.0938 0.5625a1.9514 1.9514 0 0 0 0.03125 0c2.0042 0 3.7025-1.1606 4.7812-2.7188s1.6562-3.5588 1.6562-5.7188c0-2.1599-0.57752-4.1606-1.6562-5.7188-1.078-1.558-2.777-2.719-4.781-2.719a1.9514 1.9514 0 0 0 -0.21875 0c-1.5336 0.17273-2.5368 0.68804-3.4375 1.375-0.01116 0.0085-0.02012 0.02268-0.03125 0.03125-0.44485 0.33026-0.60862 0.36005-0.875 0.5v-7.9688c0-1.1688 0.89371-2.0625 2.0625-2.0625h12.125a1.9514 1.9514 0 0 0 1.75 -1.0625c0.76282-1.5256 0.42164-3.7191-1.3125-6.0312a1.9514 1.9514 0 0 0 -0.031 -0.031c0.07626 0.09907-0.46506-1.0458-0.5625-1.4375 0.0417-0.45139 0.30141-0.93223 1.0312-1.4375 0.79438-0.54996 2.0701-1 3.5-1z" color="#000000" opacity="0.08"/>
  <path d="m48.5 17c-3.5899 0-6.5 2.0147-6.5 4.5 0.01239 0.11004 0.0378 0.22854 0.0625 0.34375 0.456-2.177 3.168-3.844 6.438-3.844 3.2703 0 5.9816 1.6672 6.4375 3.8438 0.024-0.117 0.06-0.239 0.062-0.344 0-2.485-2.91-4.5-6.5-4.5zm-4.219 10.562c-0.036 0.159-0.092 0.31-0.156 0.438h-12.125c-2.216 0-4 1.784-4 4v1c0-2.216 1.784-4 4-4h12.125c0.17788-0.35577 0.26721-0.83003 0.15625-1.4375zm8.4375 0c-0.11 0.608-0.021 1.082 0.157 1.438h11.125c2.216 0 4 1.784 4 4v-1c0-2.216-1.784-4-4-4h-11.125c-0.064-0.128-0.12-0.279-0.156-0.438zm21.782 14.438c-0.9272 0.10443-2.098 0.69059-2.5 1-2 1.5-3.25 1.5-4 1.125v1c0.75 0.375 2 0.375 4-1.125 0.40197-0.30941 1.5728-0.89557 2.5-1 2.367 0 4.2894 2.6474 4.4688 6 0.009-0.168 0.031-0.329 0.031-0.5 0-3.59-2.015-6.5-4.5-6.5zm-35.531 5c-0.18 3.353-2.102 6-4.469 6-0.763-0.013-1.922-0.695-2.5-1-2-1.5-3.25-1.5-4-1.125v1c0.75-0.375 2-0.375 4 1.125 0.57763 0.3049 1.7372 0.98708 2.5 1 2.4853 0 4.5-2.9101 4.5-6.5 0-0.17084-0.02229-0.33248-0.03125-0.5zm7.093 14.844c-0.044 0.212-0.062 0.435-0.062 0.656 0.10443 0.9272 0.69059 2.098 1 2.5 0.78846 1.0513 1.1583 1.8894 1.2812 2.5625 0.178-0.769-0.037-1.904-1.281-3.562-0.273-0.354-0.754-1.301-0.938-2.156zm12.875 0c-0.152 0.736-0.674 1.658-0.937 2.156-1.244 1.658-1.459 2.793-1.281 3.562 0.123-0.673 0.493-1.511 1.281-2.562 0.3049-0.57763 0.98708-1.7372 1-2.5 0-0.22125-0.01795-0.44355-0.0625-0.65625z" color="#000000" opacity="0.3"/>
  <path d="m48.5 17c-3.5899 0-6.5 2.0147-6.5 4.5 0.10443 0.9272 0.69059 2.098 1 2.5 1.5 2 1.5 3.25 1.125 4h-12.125c-2.216 0-4 1.784-4 4v10.125c0.75 0.375 2 0.375 4-1.125 0.40197-0.30941 1.5728-0.89557 2.5-1 2.4853 0 4.5 2.9101 4.5 6.5 0 3.59-2.015 6.5-4.5 6.5-0.763-0.013-1.922-0.695-2.5-1-2-1.5-3.25-1.5-4-1.125v13.125c0 2.216 1.784 4 4 4h16.125c0.375-0.75 0.375-2-1.125-4-0.309-0.402-0.896-1.573-1-2.5 0-2.485 2.91-4.5 6.5-4.5 3.5899 0 6.5 2.0147 6.5 4.5-0.01292 0.76276-0.6951 1.9224-1 2.5-1.5 2-1.5 3.25-1.125 4h7.125c2.216 0 4-1.784 4-4v-11.125c0.75-0.375 2-0.375 4 1.125 0.57763 0.3049 1.7372 0.98708 2.5 1 2.4853 0 4.5-2.9101 4.5-6.5s-2.0147-6.5-4.5-6.5c-0.9272 0.10443-2.098 0.69059-2.5 1-2 1.5-3.25 1.5-4 1.125v-12.125c0-2.216-1.784-4-4-4h-11.125c-0.375-0.75-0.375-2 1.125-4 0.305-0.578 0.987-1.737 1-2.5 0-2.485-2.91-4.5-6.5-4.5zm0 1c1.6093 0 3.0492 0.4451 4.0312 1.125 0.97081 0.6721 1.4575 1.4988 1.4688 2.3438 0.00013 0.0098 0 0.02144 0 0.03125-0.008 0.11043-0.10019 0.51235-0.28125 0.90625-0.18677 0.40633-0.42665 0.80842-0.59375 1.125h0.03125c-1.523 2.095-1.716 3.787-1.156 4.907a0.9923 0.9923 0 0 0 0.875 0.562h11.125c1.6835 0 3 1.3165 3 3v12.125a0.9923 0.9923 0 0 0 0.562 0.875c1.1444 0.57221 2.8725 0.40031 5.0312-1.2188 0.13936-0.10728 1.341-0.65046 1.9688-0.75 0.83147 0.02538 1.6505 0.48133 2.3125 1.4375 0.681 0.982 1.126 2.422 1.126 4.031 0 1.6093-0.4451 3.0492-1.125 4.0312-0.6721 0.97081-1.4988 1.4575-2.3438 1.4688-0.0029-0.000049-0.02777 0.000254-0.03125 0-0.11043-0.008-0.51235-0.10019-0.90625-0.28125-0.40633-0.18677-0.80842-0.42665-1.125-0.59375v0.03125c-2.095-1.523-3.787-1.716-4.907-1.156a0.9923 0.9923 0 0 0 -0.562 0.875v11.125c0 1.6835-1.3165 3-3 3h-6.2812c-0.02466-0.46257 0.09554-1.117 1.0625-2.4062a0.9923 0.9923 0 0 0 0.09375 -0.125c0.13779-0.26105 0.39123-0.74142 0.625-1.25s0.48868-1.019 0.5-1.6875a0.9923 0.9923 0 0 0 -0.001 -0.032c0-1.6299-0.97329-3.0512-2.3438-4-1.37-0.949-3.175-1.5-5.156-1.5s-3.786 0.551-5.156 1.5c-1.371 0.949-2.344 2.37-2.344 4a0.9923 0.9923 0 0 0 0 0.125c0.14025 1.2452 0.71074 2.3088 1.2188 2.9688 0.96696 1.2893 1.0872 1.9437 1.0625 2.4062h-15.281c-1.6835 0-3-1.3165-3-3v-12.281c0.46257-0.02466 1.117 0.09554 2.4062 1.0625a0.9923 0.9923 0 0 0 0.125 0.09375c0.26105 0.13779 0.74142 0.39123 1.25 0.625s1.019 0.48868 1.6875 0.5a0.9923 0.9923 0 0 0 0.032 -0.001c1.6299 0 3.0512-0.97329 4-2.3438 0.949-1.37 1.5-3.175 1.5-5.156s-0.551-3.786-1.5-5.156c-0.949-1.371-2.37-2.344-4-2.344a0.9923 0.9923 0 0 0 -0.125 0c-1.2452 0.14025-2.3088 0.71074-2.9688 1.2188-1.289 0.967-1.943 1.087-2.406 1.062v-9.281c0-1.6835 1.3165-3 3-3h12.125a0.9923 0.9923 0 0 0 0.875 -0.562c0.57221-1.1444 0.40031-2.8725-1.2188-5.0312-0.10728-0.13936-0.65046-1.341-0.75-1.9688 0.02538-0.83147 0.48133-1.6505 1.4375-2.3125 0.982-0.681 2.422-1.126 4.031-1.126z" color="#000000" opacity="0.15"/>
  <path d="m42.062 21.844c-0.044 0.212-0.062 0.435-0.062 0.656 0.10443 0.9272 0.69059 2.098 1 2.5 0.78846 1.0513 1.1583 1.8894 1.2812 2.5625 0.178-0.769-0.037-1.904-1.281-3.562-0.273-0.354-0.754-1.301-0.938-2.156zm12.875 0c-0.152 0.736-0.674 1.658-0.937 2.156-1.244 1.658-1.459 2.793-1.281 3.562 0.123-0.673 0.493-1.511 1.281-2.562 0.3049-0.57763 0.98708-1.7372 1-2.5 0-0.22125-0.01795-0.44355-0.0625-0.65625zm-20.437 18.156c-0.9272 0.10443-2.098 0.69059-2.5 1-2 1.5-3.25 1.5-4 1.125v1c0.75 0.375 2 0.375 4-1.125 0.40197-0.30941 1.5728-0.89557 2.5-1 2.367 0 4.2894 2.6474 4.4688 6 0.009-0.168 0.031-0.329 0.031-0.5 0-3.59-2.015-6.5-4.5-6.5zm44.469 9c-0.18 3.353-2.102 6-4.469 6-0.763-0.013-1.922-0.695-2.5-1-2-1.5-3.25-1.5-4-1.125v1c0.75-0.375 2-0.375 4 1.125 0.57763 0.3049 1.7372 0.98708 2.5 1 2.4853 0 4.5-2.9101 4.5-6.5 0-0.17084-0.02229-0.33248-0.03125-0.5zm-26.469 8c-3.5899 0-6.5 2.0147-6.5 4.5 0.01239 0.11004 0.0378 0.22854 0.0625 0.34375 0.456-2.177 3.168-3.844 6.438-3.844 3.2703 0 5.9816 1.6672 6.4375 3.8438 0.024-0.117 0.06-0.239 0.062-0.344 0-2.485-2.91-4.5-6.5-4.5zm-24.5 7v1c0 2.216 1.784 4 4 4h16.125c0.17788-0.35577 0.26721-0.83003 0.15625-1.4375-0.036 0.159-0.092 0.31-0.156 0.438h-16.125c-2.216 0-4-1.784-4-4zm40 0c0 2.216-1.784 4-4 4h-7.125c-0.064-0.128-0.12-0.279-0.156-0.438-0.111 0.608-0.022 1.082 0.156 1.438h7.125c2.216 0 4-1.784 4-4v-1z" fill="#fff" color="#000000" opacity="0.75"/>
 </g>
</svg>
