<svg height="96" width="96" xmlns="http://www.w3.org/2000/svg" xmlns:xlink="http://www.w3.org/1999/xlink">
 <defs>
  <filter x="-0.192" y="-0.192" height="1.384" color-interpolation-filters="sRGB" id="filter3794-58" width="1.384">
   <feGaussianBlur stdDeviation="5.28"/>
  </filter>
  <linearGradient x2="0" y1="20.221" y2="138.66" gradientUnits="userSpaceOnUse" id="linearGradient11029">
   <stop stop-color="#fff"/>
   <stop stop-color="#fff" stop-opacity="0" offset="1"/>
  </linearGradient>
  <linearGradient x2="0" y1="90" y2="5.988" gradientUnits="userSpaceOnUse" id="linearGradient8339" gradientTransform="matrix(1.0959 0 0 1.0685 -4.442 -3.204)">
   <stop stop-color="#ebebeb"/>
   <stop stop-color="#fafafa" offset="1"/>
  </linearGradient>
  <radialGradient cy="360.77" r="21.302" gradientUnits="userSpaceOnUse" id="radialGradient8416" cx="303.16" gradientTransform="matrix(0.44073 -0.24657 0.39119 0.69922 -196.61 -156.38)">
   <stop stop-color="#b4b4b4"/>
   <stop stop-color="#b4b4b4" stop-opacity="0" offset="1"/>
  </radialGradient>
  <linearGradient x2="0" y1="48.04" y2="79.52" spreadMethod="reflect" gradientUnits="userSpaceOnUse" id="linearGradient12223" gradientTransform="matrix(1 0 0 1 338.87 -254.78)">
   <stop stop-color="#4caaff"/>
   <stop stop-color="#9fd7f8" offset="1"/>
  </linearGradient>
  <clipPath id="clipPath3613-30">
   <use xlink:href="#SVGCleanerId_0"/>
  </clipPath>
  <linearGradient x2="0" y1="75.47" y2="36.25" gradientUnits="userSpaceOnUse" id="linearGradient28847" gradientTransform="matrix(1 0 0 1 -2 0)">
   <stop stop-color="#1c59ad"/>
   <stop stop-color="#377ad6" offset="1"/>
  </linearGradient>
  <rect x="6" rx="6" y="6" height="84" id="SVGCleanerId_0" width="84"/>
 </defs>
 <path d="m16.059 3.1081c-7.049 0-12.719 5.6697-12.719 12.719v64.531c0 7.049 5.6697 12.719 12.719 12.719h64.188c7.049 0 12.719-5.6697 12.719-12.719v-35.013c-0.0367-3.8222-0.0417-6.3452-1.8012-9.5856l-16.206-29.842c-1.0788-1.8835-2.0313-2.8088-5.1346-2.8088z" fill-opacity="0.02"/>
 <path d="m16.497 3.7018c-6.9538 0-12.531 5.6087-12.531 12.562v63.656c0 6.9538 5.5775 12.531 12.531 12.531h63.312c6.9538 0 12.562-5.5775 12.562-12.531v-34.607c-0.0741-3.7145-0.0646-6.1373-1.775-9.2846l-16.222-29.849c-0.90306-1.708-1.7952-2.4773-4.5338-2.4773z" fill-opacity="0.039"/>
 <path d="m16.934 4.3268c-6.8585 0-12.375 5.5165-12.375 12.375v62.781c0 6.8585 5.5165 12.375 12.375 12.375h62.438c6.8585 0 12.375-5.5165 12.375-12.375v-34.169c-0.0596-3.6037-0.0554-5.964-1.7158-9.0186l-16.222-29.842c-0.57824-1.2184-1.5501-2.1266-3.906-2.1266z" fill-opacity="0.078"/>
 <path d="m17.372 4.9206c-6.7632 0-12.219 5.4555-12.219 12.219v61.906c0 6.7632 5.4555 12.219 12.219 12.219h61.562c6.7632 0 12.219-5.4555 12.219-12.219v-33.794c-0.0346-3.5165-0.0841-5.7358-1.6885-8.6896l-16.237-29.895c-0.43675-0.77203-1.3586-1.7467-3.3394-1.7467z" fill-opacity="0.157"/>
 <path d="m17.747 5.5143c-6.6418 0-11.969 5.3946-11.969 12.062v61.031c0 6.668 5.327 12.031 11.969 12.031h60.813c6.6418 0 11.969-5.3632 11.969-12.031l-0.06245-33.438c-0.0731-3.3855-0.11339-5.4702-1.6562-8.3125l-16.283-29.967c-0.544-0.7689-1.558-1.3403-2.625-1.3747z" fill="url(#linearGradient8339)"/>
 <path d="m344.83-206.32c1.5828 0 0.28855-23.91 2.6363-23.91 2.4177 0 0.28751 47.819 2.6363 47.819 2.3478 0 0.98808-35.865 2.6363-35.865 1.7182 0 0.49842 28.692 2.6363 28.692 2.068 0 0.42846-52.601 2.6363-52.601 2.1379 0 0.84817 47.819 2.6363 47.819 1.8581 0 0.84817-20.323 2.6363-20.323 1.8581 0 0.35803 36.149 2.6363 35.865 2.4177-0.3019 0.77813-51.26 2.6363-51.406 1.9281-0.15096 0.14958 55.139 2.6363 54.992 2.5576-0.15095 0.56837-43.037 2.6363-43.037 2.1379 0 0.77813 23.764 2.6363 23.91 1.9281 0.15095 0.84817-40.646 2.6363-40.646 1.8581 0 0.57258 45.225 2.6363 45.428 2.1648 0.21348 0.37239-24.901 2.6363-25.105 2.3627-0.21348 0.47149 15.541 2.6363 15.541 2.0659 0 0.4715-31.083 2.6363-31.083 2.0659 0 0.57042 47.819 2.6363 47.819 2.1648 0 0.87822-60.377 2.6363-59.774 1.8681 0.64044 0.86997 64.769 2.6363 64.556 1.7691-0.21348 0.86693-40.444 2.6363-40.646 1.8681-0.21348 0.47149 23.91 2.6363 23.91 2.2638 0 0.57043-31.083 2.6363-31.083 2.1648 0 0.37257 39.451 2.6363 39.451 2.3627 0 0.46924-44.233 2.6363-44.233 2.1648 0 0.57043 33.474 2.6363 33.474 1.967 0 0.86721-20.323 2.6363-20.323 1.868 0 0.76828 26.301 2.6363 26.301 1.967 0 0.76828-33.474 2.6363-33.474 1.967 0 0.17472 44.233 2.6363 44.233 2.5606 0 0.57067-52.826 2.6363-52.601 1.967 0.21348 0.95456 26.301 2.6363 26.301" fill="url(#linearGradient12223)" opacity="0.4"/>
 <rect x="15" stroke-width="0.5" rx="12" y="15" clip-path="url(#clipPath3613-30)" fill="url(#linearGradient11029)" stroke="#fff" height="66" filter="url(#filter3794-58)" opacity="0.5" stroke-linecap="round" width="66" transform="matrix(1 0 0 1 -1.193 1.248)"/>
 <path d="m71.473 4.4296c-7.4721 3.35-12.688 10.913-12.688 19.719 0 11.911 9.5167 21.562 21.281 21.562 4.3866 0 8.4555-1.3551 11.844-3.6562l-20.437-37.625z" stroke-width="0.1" fill="url(#radialGradient8416)"/>
 <path d="m72.4 6.5777c-0.341-0.3041-0.564-0.3884-0.564-0.3884s0.83487 0.58215-0.16423 2.3199c-3.6996 5.3693-2.6956 12.724 2.4663 16.827l13.888 11.014c0.78033 0.57546 0.96083 0.84746 1.2481 1.2895z" fill="#ccc"/>
 <path d="m72.648 6.9456c-0.26811-0.37128-0.48292-0.5133-0.48292-0.5133s0.74441 0.70007-0.21905 2.3758c-3.5676 5.1777-2.5994 12.27 2.3783 16.227l13.393 10.621c0.75249 0.55493 0.92655 0.81722 1.2036 1.2435z" fill="#fff"/>
 <g transform="matrix(1 0 0 1 3.834 3.642)">
  <path d="m12 12v17.938l8.094-17.938h-8.094zm9.906 0 8.094 17.938v-17.938h-8.094zm-0.906 7.031l-3.0312 7h2.9286l1.7188 3.9688h3.2277l-2.375-5.2812-0.0625-0.125-2.406-5.563z" fill="#999" opacity="0.5"/>
  <path d="m26 36v40h7.6562v-14.656h2.6562c3.0078 0.000014 5.4963-0.37613 7.4688-1.0938 2.0176-0.72729 3.6261-1.692 4.8125-2.875 1.2174-1.1958 2.0687-2.56 2.5938-4.125 0.53368-1.5909 0.81247-3.2577 0.8125-5-0.000032-1.9495-0.29403-3.6581-0.875-5.1562-0.578-1.509-1.482-2.756-2.687-3.782-1.184-1.039-2.724-1.844-4.626-2.406-1.873-0.577-4.163-0.906-6.812-0.906h-11zm7.6562 5.9688h2.9062c2.5114 0.000035 4.4274 0.5071 5.7188 1.625 1.3069 1.1127 1.9062 2.8428 1.9062 5-0.000026 2.3119-0.66857 4.1084-2.125 5.2188-1.4163 1.0962-3.4459 1.5625-6.0312 1.5625h-2.375v-13.406zm30.219 6.031c-1.4911 0.00003-2.8382 0.14666-4.0625 0.46875-1.2086 0.30604-2.2305 0.77815-3.0938 1.4062-0.86328 0.62815-1.5291 1.4248-2 2.375-0.47088 0.93416-0.71875 2.025-0.71875 3.2812-0.000001 1.1435 0.13942 2.1313 0.40625 2.9688 0.26683 0.82142 0.65383 1.5745 1.1875 2.2188 0.54936 0.64425 1.2619 1.2185 2.0938 1.75 0.84758 0.5154 1.8229 1.031 2.9688 1.5625 1.1772 0.54761 2.1219 1.0197 2.8125 1.4062 0.70631 0.37044 1.2327 0.72525 1.5938 1.0312 0.36099 0.28992 0.59332 0.56996 0.6875 0.84375 0.10986 0.2577 0.15624 0.53679 0.15625 0.875-0.000015 0.33823-0.0775 0.66274-0.21875 0.96875-0.12558 0.28991-0.32679 0.55578-0.625 0.78125-0.28254 0.20938-0.63858 0.37116-1.0938 0.5-0.4552 0.11275-1.0127 0.1875-1.6562 0.1875-0.58076 0.000005-1.2156-0.07475-1.9062-0.1875-0.675-0.113-1.371-0.245-2.094-0.438-0.722-0.209-1.449-0.476-2.187-0.75-0.722-0.274-1.403-0.568-2.063-0.906v6.0938c0.62784 0.28991 1.2316 0.52548 1.8438 0.71875 0.61214 0.19327 1.247 0.33991 1.9062 0.46875 0.65922 0.12885 1.356 0.23293 2.0938 0.28125 0.738 0.064 1.543 0.093 2.406 0.093 1.6324-0.000001 3.119-0.17692 4.4375-0.53125 1.3184-0.35433 2.4177-0.88509 3.3438-1.5938 0.927-0.709 1.655-1.593 2.157-2.656s0.75-2.302 0.75-3.719c0-1.192-0.186-2.225-0.531-3.062-0.346-0.838-0.825-1.56-1.469-2.188-0.64355-0.62811-1.4178-1.1731-2.3125-1.6562-0.89469-0.49927-1.8856-1.0007-3-1.5-0.95747-0.45095-1.7473-0.81897-2.3438-1.125-0.59646-0.3221-1.0454-0.61729-1.375-0.875-0.32963-0.27378-0.54638-0.53964-0.65625-0.78125-0.10988-0.25767-0.18751-0.55286-0.1875-0.875-0.00001-0.612 0.23245-1.0831 0.65625-1.4375 0.43948-0.3543 1.1206-0.53123 2.0938-0.53125 1.083 0.000022 2.167 0.16084 3.25 0.53125 1.083 0.37045 2.2446 0.85771 3.4375 1.4375l2.1562-5.2188c-1.49-0.741-2.93-1.286-4.343-1.657-1.413-0.37-2.93-0.562-4.5-0.562z" fill="url(#linearGradient28847)"/>
  <path d="m26 36v1h11c2.6493 0.000039 4.9393 0.32902 6.8125 0.90625 1.9011 0.56209 3.4414 1.367 4.625 2.4062 1.2055 1.0252 2.1091 2.2723 2.6875 3.7812 0.52607 1.3566 0.79347 2.9008 0.84375 4.625 0.003-0.158 0.03-0.31 0.03-0.469 0-1.949-0.294-3.658-0.875-5.156-0.578-1.509-1.482-2.756-2.687-3.782-1.184-1.039-2.724-1.844-4.626-2.406-1.873-0.577-4.163-0.906-6.812-0.906h-11zm37.875 12c-1.4911 0.00003-2.8382 0.14666-4.0625 0.46875-1.2086 0.30604-2.2305 0.77815-3.0938 1.4062-0.86328 0.62815-1.5291 1.4248-2 2.375-0.47088 0.93416-0.71875 2.025-0.71875 3.2812 0 0.159 0.02589 0.31576 0.03125 0.46875 0.06159-1.0307 0.28568-1.9529 0.6875-2.75 0.47088-0.95022 1.1367-1.7468 2-2.375 0.86328-0.6281 1.8852-1.1002 3.0938-1.4062 1.2243-0.32209 2.5714-0.46872 4.0625-0.46875 1.5696 0.00003 3.0873 0.19209 4.5 0.5625 1.303 0.34171 2.6318 0.84458 4 1.5l0.34375-0.84375c-1.491-0.74-2.931-1.285-4.344-1.656-1.413-0.37-2.93-0.562-4.5-0.562zm-19.719 1.125c-0.09773 2.054-0.75204 3.6646-2.0938 4.6875-1.4163 1.0962-3.4459 1.5625-6.0312 1.5625h-2.375v1h2.375c2.5853 0.000023 4.6149-0.46634 6.0312-1.5625 1.4564-1.1104 2.125-2.9068 2.125-5.2188-0.000002-0.16196-0.02445-0.31168-0.03125-0.46875zm17.031 6.7812c-0.04415 0.16447-0.0625 0.34-0.0625 0.53125-0.00001 0.32214 0.07762 0.61733 0.1875 0.875 0.10987 0.24161 0.32662 0.50747 0.65625 0.78125 0.3296 0.25771 0.77854 0.5529 1.375 0.875 0.59644 0.30603 1.3863 0.67405 2.3438 1.125 1.1144 0.4993 2.1053 1.0007 3 1.5 0.89465 0.48319 1.6689 1.0281 2.3125 1.6562 0.64352 0.62814 1.1234 1.35 1.4688 2.1875 0.299 0.72522 0.45722 1.5991 0.5 2.5938 0.009-0.177 0.032-0.348 0.032-0.531 0-1.192-0.186-2.225-0.531-3.062-0.346-0.838-0.825-1.56-1.469-2.188-0.64355-0.62811-1.4178-1.1731-2.3125-1.6562-0.89469-0.49927-1.8856-1.0007-3-1.5-0.95747-0.45095-1.7473-0.81897-2.3438-1.125-0.59646-0.3221-1.0454-0.61729-1.375-0.875-0.32963-0.27378-0.54638-0.53964-0.65625-0.78125-0.05494-0.12884-0.09186-0.25998-0.125-0.40625zm-7.125 12.438v1c0.65923 0.33823 1.3405 0.63246 2.0625 0.90625 0.73771 0.2738 1.4655 0.54063 2.1875 0.75 0.72201 0.19328 1.4188 0.32476 2.0938 0.4375 0.69062 0.11275 1.3255 0.1875 1.9062 0.1875 0.64352 0.000005 1.2011-0.07475 1.6562-0.1875 0.45517-0.12884 0.81121-0.29062 1.0938-0.5 0.29821-0.22548 0.49942-0.49134 0.625-0.78125 0.14125-0.306 0.21874-0.63052 0.21875-0.96875-0.000009-0.20841-0.02328-0.39016-0.0625-0.5625-0.03668 0.18266-0.07693 0.35942-0.15625 0.53125-0.12558 0.28991-0.32679 0.55578-0.625 0.78125-0.28254 0.20938-0.63858 0.37116-1.0938 0.5-0.4552 0.11275-1.0127 0.1875-1.6562 0.1875-0.58076 0.000005-1.2156-0.07475-1.9062-0.1875-0.676-0.113-1.372-0.245-2.095-0.438-0.722-0.209-1.449-0.476-2.187-0.75-0.722-0.274-1.403-0.568-2.063-0.906z" fill="#123b72" opacity="0.6"/>
  <path d="m26 36v40h7.6562v-14.656h2.6562c3.0078 0.000014 5.4963-0.37613 7.4688-1.0938 2.0176-0.72729 3.6261-1.692 4.8125-2.875 1.2174-1.1958 2.0687-2.56 2.5938-4.125 0.53368-1.5909 0.81247-3.2577 0.8125-5-0.000032-1.9495-0.29403-3.6581-0.875-5.1562-0.578-1.509-1.482-2.756-2.687-3.782-1.184-1.039-2.724-1.844-4.626-2.406-1.873-0.577-4.163-0.906-6.812-0.906h-11zm1.0625 1.0625h9.9375c2.5606 0.000038 4.7521 0.33638 6.5 0.875 1.7853 0.52787 3.1753 1.2713 4.2188 2.1875a1.071 1.071 0 0 0 0.03125 0c1.0802 0.91857 1.8595 1.9987 2.375 3.3438 0.52577 1.3558 0.81247 2.9395 0.8125 4.7812-0.00003 1.6281-0.25229 3.1726-0.75 4.6562-0.47371 1.412-1.2388 2.6333-2.3438 3.7188-1.0497 1.0468-2.5333 1.9386-4.4375 2.625-1.8135 0.65978-4.1752 1.0313-7.0938 1.0312h-2.6562a1.071 1.071 0 0 0 -1.0625 1.0625v13.594h-5.5312v-37.875zm6.4062 3.8438a1.071 1.071 0 0 0 -0.875 1.0625v13.406a1.071 1.071 0 0 0 1.0625 1.0625h2.375c2.7141 0.000024 4.9958-0.472 6.6875-1.7812 1.7737-1.3522 2.5312-3.5441 2.5312-6.0625-0.000028-2.3555-0.68016-4.4494-2.2812-5.8125-1.5665-1.3561-3.7507-1.875-6.4062-1.875h-2.9062a1.071 1.071 0 0 0 -0.1875 0zm0.1875 1.0625h2.9062c2.5114 0.000035 4.4274 0.5071 5.7188 1.625 1.3069 1.1127 1.9062 2.8428 1.9062 5-0.000026 2.3119-0.66857 4.1084-2.125 5.2188-1.4163 1.0962-3.4459 1.5625-6.0312 1.5625h-2.375v-13.406zm30.219 6.032c-1.4911 0.00003-2.8382 0.14666-4.0625 0.46875-1.2086 0.30604-2.2305 0.77815-3.0938 1.4062-0.86328 0.62815-1.5291 1.4248-2 2.375-0.47088 0.93416-0.71875 2.025-0.71875 3.2812-0.000001 1.1435 0.13942 2.1313 0.40625 2.9688 0.26683 0.82142 0.65383 1.5745 1.1875 2.2188 0.54936 0.64425 1.2619 1.2185 2.0938 1.75 0.84758 0.5154 1.8229 1.031 2.9688 1.5625 1.1772 0.54761 2.1219 1.0197 2.8125 1.4062 0.70631 0.37044 1.2327 0.72525 1.5938 1.0312 0.36099 0.28992 0.59332 0.56996 0.6875 0.84375 0.10986 0.2577 0.15624 0.53679 0.15625 0.875-0.000015 0.33823-0.0775 0.66274-0.21875 0.96875-0.12558 0.28991-0.32679 0.55578-0.625 0.78125-0.28254 0.20938-0.63858 0.37116-1.0938 0.5-0.4552 0.11275-1.0127 0.1875-1.6562 0.1875-0.58076 0.000005-1.2156-0.07475-1.9062-0.1875-0.675-0.113-1.371-0.245-2.094-0.438-0.722-0.209-1.449-0.476-2.187-0.75-0.722-0.274-1.403-0.568-2.063-0.906v6.0938c0.62784 0.28991 1.2316 0.52548 1.8438 0.71875 0.61214 0.19327 1.247 0.33991 1.9062 0.46875 0.65922 0.12885 1.356 0.23293 2.0938 0.28125 0.738 0.064 1.543 0.093 2.406 0.093 1.6324-0.000001 3.119-0.17692 4.4375-0.53125 1.3184-0.35433 2.4177-0.88509 3.3438-1.5938 0.927-0.709 1.655-1.593 2.157-2.656s0.75-2.302 0.75-3.719c0-1.192-0.186-2.225-0.531-3.062-0.346-0.838-0.825-1.56-1.469-2.188-0.64355-0.62811-1.4178-1.1731-2.3125-1.6562-0.89469-0.49927-1.8856-1.0007-3-1.5-0.95747-0.45095-1.7473-0.81897-2.3438-1.125-0.59646-0.3221-1.0454-0.61729-1.375-0.875-0.32963-0.27378-0.54638-0.53964-0.65625-0.78125-0.10988-0.25767-0.18751-0.55286-0.1875-0.875-0.00001-0.612 0.23245-1.0831 0.65625-1.4375 0.43948-0.3543 1.1206-0.53123 2.0938-0.53125 1.083 0.000022 2.167 0.16084 3.25 0.53125 1.083 0.37045 2.2446 0.85771 3.4375 1.4375l2.1562-5.2188c-1.49-0.741-2.93-1.286-4.343-1.657-1.413-0.37-2.93-0.562-4.5-0.562zm0 1.0625c1.4822 0.000028 2.9003 0.18554 4.2188 0.53125 1.0331 0.27092 2.1319 0.73555 3.2188 1.2188l-1.3438 3.2188c-0.847-0.378-1.705-0.759-2.5-1.031-1.201-0.411-2.405-0.594-3.594-0.594-1.103 0.000025-2.0565 0.1657-2.7812 0.75a1.071 1.071 0 0 0 0 0.03125c-0.63433 0.53038-1.0313 1.3668-1.0312 2.25-0.000015 0.49422 0.09576 0.91954 0.25 1.2812a1.071 1.071 0 0 0 0.031 0.032c0.20703 0.45529 0.52325 0.81218 0.9375 1.1562a1.071 1.071 0 0 0 0.03125 0.03125c0.38873 0.30394 0.89177 0.62342 1.5312 0.96875 0.62784 0.32214 1.4197 0.70634 2.375 1.1562a1.071 1.071 0 0 0 0.03125 0c1.0864 0.48676 2.0389 0.98476 2.9062 1.4688a1.071 1.071 0 0 0 0.03125 0c0.82575 0.44598 1.5046 0.95553 2.0625 1.5 0.54048 0.52756 0.92404 1.0978 1.2188 1.8125 0.27863 0.67584 0.46873 1.5758 0.46875 2.6562-0.00002 1.2925-0.23315 2.3545-0.65625 3.25-0.4296 0.90914-1.0442 1.6694-1.8438 2.2812-0.80623 0.61695-1.7651 1.0828-2.9688 1.4062-1.2099 0.32515-2.6013 0.5-4.1562 0.5-0.83903 0-1.614-0.03275-2.3125-0.09375a1.071 1.071 0 0 0 -0.03125 0c-0.682-0.044-1.311-0.158-1.938-0.281-0.636-0.124-1.255-0.261-1.812-0.437-0.36-0.113-0.731-0.257-1.094-0.406v-3.75c0.21026 0.08631 0.40985 0.19966 0.625 0.28125 0.74033 0.27478 1.4791 0.55771 2.25 0.78125a1.071 1.071 0 0 0 0.03125 0c0.77107 0.20641 1.4972 0.35346 2.1875 0.46875 0.71933 0.11744 1.4211 0.18751 2.0938 0.1875 0.72646 0.000006 1.3602-0.08349 1.9062-0.21875a1.071 1.071 0 0 0 0.03125 0c0.54039-0.15297 1.0212-0.34773 1.4375-0.65625a1.071 1.071 0 0 0 0.03125 -0.03125c0.4364-0.32996 0.741-0.73388 0.9375-1.1875 0.19954-0.43228 0.31248-0.90449 0.3125-1.4062-0.000018-0.41542-0.06046-0.82147-0.21875-1.2188-0.0079-0.01977 0.0084-0.04286 0-0.0625h-0.03125c-0.196-0.524-0.551-0.914-0.967-1.252-0.009-0.007-0.022-0.023-0.031-0.031-0.433-0.362-0.987-0.739-1.719-1.125-0.0093-0.0049-0.02185 0.0049-0.03125 0-0.7272-0.40599-1.6933-0.88781-2.875-1.4375-1.1164-0.51784-2.0369-1.0094-2.8438-1.5-0.77074-0.49241-1.3872-0.99579-1.8438-1.5312-0.42864-0.51743-0.73709-1.1405-0.96875-1.8438-0.0026-0.0082 0.0026-0.02304 0-0.03125-0.22086-0.70395-0.375-1.5807-0.375-2.625-0.000001-1.1154 0.23696-2.0427 0.625-2.8125 0.39827-0.8037 0.92944-1.4399 1.6562-1.9688 0.74461-0.54176 1.625-0.97304 2.7188-1.25a1.071 1.071 0 0 0 0.03125 0c1.1147-0.29326 2.3603-0.43747 3.7812-0.4375z" fill="#0c2548" opacity="0.2"/>
  <path d="m33.656 41.969v1h2.9062c2.5114 0.000035 4.4274 0.5071 5.7188 1.625 1.2088 1.0291 1.7912 2.5963 1.875 4.5312 0.0084-0.17562 0.03125-0.34915 0.03125-0.53125-0.000026-2.1572-0.59936-3.8873-1.9062-5-1.2913-1.1179-3.2073-1.625-5.7188-1.625h-2.9062zm18.312 6.75c-0.04621 1.5703-0.29642 3.086-0.78125 4.5312-0.52506 1.565-1.3764 2.9292-2.5938 4.125-1.1864 1.183-2.7949 2.1477-4.8125 2.875-1.9725 0.71762-4.4609 1.0938-7.4688 1.0938h-2.6562v1h2.6562c3.0078 0.000014 5.4963-0.37613 7.4688-1.0938 2.0176-0.72729 3.6261-1.692 4.8125-2.875 1.2174-1.1958 2.0687-2.56 2.5938-4.125 0.53368-1.5909 0.81247-3.2577 0.8125-5-0.000003-0.18423-0.026-0.35129-0.03125-0.53125zm20.407 2.343-1.813 4.376c-1.192-0.58-2.354-1.068-3.437-1.438-1.083-0.37041-2.167-0.53123-3.25-0.53125-0.97316 0.000022-1.6543 0.17695-2.0938 0.53125-0.4238 0.35435-0.65626 0.8255-0.65625 1.4375-0.000005 0.16107 0.02936 0.32248 0.0625 0.46875 0.09712-0.36184 0.30239-0.66263 0.59375-0.90625 0.43948-0.3543 1.1206-0.53123 2.0938-0.53125 1.083 0.000022 2.167 0.16084 3.25 0.53125 1.083 0.37045 2.2446 0.85771 3.4375 1.4375l2.1562-5.2188c-0.115-0.057-0.228-0.1-0.343-0.156zm-18.344 4.938c-0.01 0.177-0.031 0.347-0.031 0.531-0.000001 1.1435 0.13942 2.1313 0.40625 2.9688 0.26683 0.82142 0.65383 1.5745 1.1875 2.2188 0.54936 0.64425 1.2619 1.2185 2.0938 1.75 0.84758 0.5154 1.8229 1.031 2.9688 1.5625 1.1772 0.54761 2.1219 1.0197 2.8125 1.4062 0.70631 0.37044 1.2327 0.72525 1.5938 1.0312 0.36099 0.28992 0.59332 0.56996 0.6875 0.84375 0.04216 0.0989 0.06932 0.20517 0.09375 0.3125 0.02864-0.14262 0.06249-0.2892 0.0625-0.4375-0.000015-0.33821-0.04639-0.6173-0.15625-0.875-0.09418-0.27379-0.32651-0.55384-0.6875-0.84375-0.36102-0.306-0.88744-0.6608-1.5938-1.0312-0.69063-0.38653-1.6353-0.85864-2.8125-1.4062-1.1458-0.53148-2.1212-1.0471-2.9688-1.5625-0.83189-0.53148-1.5444-1.1058-2.0938-1.75-0.533-0.643-0.92-1.397-1.187-2.218-0.229-0.721-0.342-1.553-0.375-2.5zm18.938 12.031c-0.056 1.195-0.281 2.262-0.719 3.188-0.502 1.063-1.23 1.947-2.156 2.656s-2.026 1.239-3.344 1.594c-1.318 0.354-2.805 0.531-4.438 0.531-0.863 0-1.668-0.029-2.406-0.094-0.737-0.048-1.434-0.152-2.094-0.281-0.659-0.129-1.294-0.275-1.906-0.469-0.612-0.193-1.216-0.429-1.844-0.718v1c0.62784 0.28991 1.2316 0.52548 1.8438 0.71875 0.61214 0.19327 1.247 0.33991 1.9062 0.46875 0.65922 0.12885 1.356 0.23293 2.0938 0.28125 0.738 0.064 1.543 0.093 2.406 0.093 1.6324-0.000001 3.119-0.17692 4.4375-0.53125 1.3184-0.35433 2.4177-0.88509 3.3438-1.5938 0.92604-0.70865 1.654-1.5933 2.1562-2.6562 0.50225-1.063 0.74998-2.3014 0.75-3.7188-0.000003-0.1598-0.02463-0.31475-0.03125-0.46875zm-46.969 7.969v1h7.6562v-1h-7.656z" fill="#fff" opacity="0.8"/>
 </g>
</svg>
