<svg height="96" width="96" xmlns="http://www.w3.org/2000/svg" xmlns:xlink="http://www.w3.org/1999/xlink" xmlns:sodipodi="http://sodipodi.sourceforge.net/DTD/sodipodi-0.dtd" xmlns:inkscape="http://www.inkscape.org/namespaces/inkscape">
 <defs>
  <linearGradient id="linearGradient15916">
   <stop stop-color="#b4b4b4"/>
   <stop stop-color="#b4b4b4" stop-opacity="0" offset="1"/>
  </linearGradient>
  <radialGradient cy="360.77" r="21.302" xlink:href="#linearGradient15916" gradientUnits="userSpaceOnUse" id="radialGradient8416" cx="303.16" gradientTransform="matrix(0.44073 -0.24657 0.39119 0.69922 -196.61 -156.38)"/>
  <linearGradient x1="320.6" x2="293.81" xlink:href="#linearGradient15916" y1="345.4" y2="361.49" gradientUnits="userSpaceOnUse" id="linearGradient8419" gradientTransform="matrix(1 0 0 1 -224.68 -343.18)"/>
  <clipPath id="clipPath3703">
   <use xlink:href="#SVGCleanerId_1"/>
  </clipPath>
  <clipPath id="clipPath3696">
   <use xlink:href="#SVGCleanerId_1"/>
  </clipPath>
  <filter color-interpolation-filters="sRGB" id="filter3665-1">
   <feGaussianBlur stdDeviation="0.69"/>
  </filter>
  <filter color-interpolation-filters="sRGB" id="filter3649">
   <feGaussianBlur stdDeviation="1.38"/>
  </filter>
  <linearGradient id="linearGradient3700-254">
   <stop stop-color="#dcdcdc"/>
   <stop stop-color="#f0f0f0" offset="1"/>
  </linearGradient>
  <linearGradient id="linearGradient3641-1">
   <stop/>
   <stop stop-opacity="0" offset="1"/>
  </linearGradient>
  <linearGradient x2="0" xlink:href="#linearGradient3700-254" y1="90" y2="5.988" gradientUnits="userSpaceOnUse" id="linearGradient33724"/>
  <linearGradient x2="0" xlink:href="#linearGradient3641-1" y1="32" y2="80" gradientUnits="userSpaceOnUse" id="linearGradient33726" gradientTransform="matrix(1 0 0 1 100 0)"/>
  <linearGradient x2="0" y1="88" y2="36" gradientUnits="userSpaceOnUse" id="linearGradient33728">
   <stop stop-color="#d5d5d5"/>
   <stop stop-color="#f1f1f1" offset="1"/>
  </linearGradient>
  <linearGradient x2="0" xlink:href="#linearGradient3641-1" y1="62" y2="21" gradientUnits="userSpaceOnUse" id="linearGradient33730" gradientTransform="matrix(1 0 0 1 100 -1)"/>
  <linearGradient x2="0" xlink:href="#linearGradient3700-254" y1="88" y2="32" gradientUnits="userSpaceOnUse" id="linearGradient33732"/>
  <clipPath clipPathUnits="userSpaceOnUse" id="clipPath33734">
   <path d="m184.67 31.63c-6.4695 0-11.658 5.1934-11.658 11.613v58.755c0 6.4193 5.1888 11.583 11.658 11.583h59.235c6.4695 0 11.658-5.1632 11.658-11.583l-0.0608-32.19c-0.0712-3.2592-0.11044-5.2662-1.6133-8.0025l-15.859-28.851c-0.5301-0.74049-1.5178-1.2906-2.5569-1.3237z"/>
  </clipPath>
  <rect x="6" rx="6" y="6" fill="url(#linearGradient33724)" height="84" id="SVGCleanerId_0" width="84"/>
  <rect x="106" rx="6" y="6" height="84" id="SVGCleanerId_1" width="84"/>
 </defs>
 <path d="m16.059 3.1081c-7.049 0-12.719 5.6697-12.719 12.719v64.531c0 7.049 5.6697 12.719 12.719 12.719h64.188c7.049 0 12.719-5.6697 12.719-12.719v-35.013c-0.0367-3.8222-0.0417-6.3452-1.8012-9.5856l-16.206-29.842c-1.0788-1.8835-2.0313-2.8088-5.1346-2.8088z" fill-opacity="0.02"/>
 <path d="m16.497 3.7018c-6.9538 0-12.531 5.6087-12.531 12.562v63.656c0 6.9538 5.5775 12.531 12.531 12.531h63.312c6.9538 0 12.562-5.5775 12.562-12.531v-34.607c-0.0741-3.7145-0.0646-6.1373-1.775-9.2846l-16.222-29.849c-0.90306-1.708-1.7952-2.4773-4.5338-2.4773z" fill-opacity="0.039"/>
 <path d="m16.934 4.3268c-6.8585 0-12.375 5.5165-12.375 12.375v62.781c0 6.8585 5.5165 12.375 12.375 12.375h62.438c6.8585 0 12.375-5.5165 12.375-12.375v-34.169c-0.0596-3.6037-0.0554-5.964-1.7158-9.0186l-16.222-29.842c-0.57824-1.2184-1.5501-2.1266-3.906-2.1266z" fill-opacity="0.078"/>
 <path d="m17.372 4.9206c-6.7632 0-12.219 5.4555-12.219 12.219v61.906c0 6.7632 5.4555 12.219 12.219 12.219h61.562c6.7632 0 12.219-5.4555 12.219-12.219v-33.794c-0.0346-3.5165-0.0841-5.7358-1.6885-8.6896l-16.237-29.895c-0.43675-0.77203-1.3586-1.7467-3.3394-1.7467z" fill-opacity="0.157"/>
 <g clip-path="url(#clipPath33734)" transform="matrix(1.0266 0 0 1.0387 -171.84 -27.342)">
  <g transform="matrix(1 0 0 1 166 24.64)">
   <use xlink:href="#SVGCleanerId_0"/>
   <path d="m112 89c-3.324 0-6-2.676-6-6v-6l42-42 42 42v6c0 3.324-2.676 6-6 6h-72z" clip-path="url(#clipPath3696)" fill="url(#linearGradient33726)" filter="url(#filter3665-1)" opacity="0.3" transform="matrix(1 0 0 1 -100 -1)"/>
   <path d="m12 90c-3.324 0-6-2.676-6-6v-6l42-42 42 42v6c0 3.324-2.676 6-6 6h-72z" fill="url(#linearGradient33728)"/>
   <path d="m48 36-42 42v1l42-42 42 42v-1l-42-42z" fill="#fff" opacity="0.4"/>
   <path d="m112 7c-3.324 0-6 2.676-6 6v6l42 42 42-42v-6c0-3.324-2.676-6-6-6h-72z" clip-path="url(#clipPath3703)" fill="url(#linearGradient33730)" filter="url(#filter3649)" opacity="0.4" transform="matrix(1 0 0 1 -100 1)"/>
   <path d="m12 6c-3.324 0-6 2.676-6 6v6l42 42 42-42v-6c0-3.324-2.676-6-6-6h-72z" fill="url(#linearGradient33732)"/>
   <path d="m6 17v1l42 42 42-42v-1l-42 42-42-42z" fill="#fff" opacity="0.6"/>
  </g>
 </g>
 <path d="m5.7709 77.595v1.0133c0 6.668 5.3434 12.032 11.985 12.032h60.809c6.6418 0 11.985-5.3645 11.985-12.032v-1.0133c0 6.6681-5.3434 12.032-11.985 12.032h-60.809c-6.6418 0-11.985-5.3644-11.985-12.032z" fill-opacity="0.098"/>
 <path d="m57.817 5.6171v85.125h20.906c6.6418 0 11.969-5.3632 11.969-12.031v-61.031c0-0.92374-0.1187-1.7923-0.3125-2.6562 0.15863 0.78565 0.25 1.604 0.25 2.4375v27.812c-0.0731-3.3855-0.11339-5.4702-1.6562-8.3125l-16.282-29.968c-0.53945-0.76243-1.3896-1.1622-2.5938-1.375h-12.281z" fill="url(#linearGradient8419)"/>
 <path d="m71.473 4.4296c-7.4721 3.35-12.688 10.913-12.688 19.719 0 11.911 9.5167 21.562 21.281 21.562 4.3866 0 8.4555-1.3551 11.844-3.6562l-20.437-37.625z" stroke-width="0.1" fill="url(#radialGradient8416)"/>
 <path d="m72.4 6.5777c-0.341-0.3041-0.564-0.3884-0.564-0.3884s0.83487 0.58215-0.16423 2.3199c-3.6996 5.3693-2.6956 12.724 2.4663 16.827l13.888 11.014c0.78033 0.57546 0.96083 0.84746 1.2481 1.2895z" fill="#ccc"/>
 <path d="m72.648 6.9456c-0.26811-0.37128-0.48292-0.5133-0.48292-0.5133s0.74441 0.70007-0.21905 2.3758c-3.5676 5.1777-2.5994 12.27 2.3783 16.227l13.393 10.621c0.75249 0.55493 0.92655 0.81722 1.2036 1.2435z" fill="#fff"/>
</svg>
