<svg height="96" width="96" xmlns="http://www.w3.org/2000/svg" xmlns:xlink="http://www.w3.org/1999/xlink">
 <defs>
  <linearGradient id="linearGradient15916">
   <stop stop-color="#b4b4b4"/>
   <stop stop-color="#b4b4b4" stop-opacity="0" offset="1"/>
  </linearGradient>
  <linearGradient x2="0" y1="90" y2="5.988" gradientUnits="userSpaceOnUse" id="linearGradient8339" gradientTransform="matrix(1.0959 0 0 1.0685 -4.442 -3.204)">
   <stop stop-color="#ebebeb"/>
   <stop stop-color="#fafafa" offset="1"/>
  </linearGradient>
  <radialGradient cy="360.77" r="21.302" xlink:href="#linearGradient15916" gradientUnits="userSpaceOnUse" id="radialGradient8416" cx="303.16" gradientTransform="matrix(0.44073 -0.24657 0.39119 0.69922 -196.61 -156.38)"/>
  <linearGradient x1="320.6" x2="293.81" xlink:href="#linearGradient15916" y1="345.4" y2="361.49" gradientUnits="userSpaceOnUse" id="linearGradient8419" gradientTransform="matrix(1 0 0 1 -224.68 -343.18)"/>
  <filter x="-0.162" y="-0.13" height="1.259" color-interpolation-filters="sRGB" id="filter3786" width="1.324">
   <feGaussianBlur stdDeviation="3.24"/>
  </filter>
  <clipPath id="clipPath3782">
   <path d="m-98 6c-3.324 0-6 2.676-6 6v72c0 3.324 2.676 6 6 6h72c3.324 0 6-2.676 6-6v-72c0-3.324-2.676-6-6-6h-72zm59.062 12c0.602-0.009 0.938 0.031 0.938 0.031v12.062c-12.051 0.213-15 11.969-15 11.969h9.0625v12.062h-14.094c-8.476 26.153-27.968 23.814-27.968 23.814v-12.062s12.376 2.2983 18.688-20.75c6.9081-25.227 24.168-27.061 28.375-27.125z"/>
  </clipPath>
  <linearGradient x1="-253.92" x2="-132.57" gradientUnits="userSpaceOnUse" id="linearGradient9436" gradientTransform="matrix(0 0.68402 -0.68402 0 -73.33 189.08)">
   <stop stop-color="#e1a075"/>
   <stop stop-color="#81422a" offset="0.763"/>
  </linearGradient>
 </defs>
 <path d="m16.059 3.1081c-7.049 0-12.719 5.6697-12.719 12.719v64.531c0 7.049 5.6697 12.719 12.719 12.719h64.188c7.049 0 12.719-5.6697 12.719-12.719v-35.013c-0.0367-3.8222-0.0417-6.3452-1.8012-9.5856l-16.206-29.842c-1.0788-1.8835-2.0313-2.8088-5.1346-2.8088z" fill-opacity="0.02"/>
 <path d="m16.497 3.7018c-6.9538 0-12.531 5.6087-12.531 12.562v63.656c0 6.9538 5.5775 12.531 12.531 12.531h63.312c6.9538 0 12.562-5.5775 12.562-12.531v-34.607c-0.0741-3.7145-0.0646-6.1373-1.775-9.2846l-16.222-29.849c-0.90306-1.708-1.7952-2.4773-4.5338-2.4773z" fill-opacity="0.039"/>
 <path d="m16.934 4.3268c-6.8585 0-12.375 5.5165-12.375 12.375v62.781c0 6.8585 5.5165 12.375 12.375 12.375h62.438c6.8585 0 12.375-5.5165 12.375-12.375v-34.169c-0.0596-3.6037-0.0554-5.964-1.7158-9.0186l-16.222-29.842c-0.57824-1.2184-1.5501-2.1266-3.906-2.1266z" fill-opacity="0.078"/>
 <path d="m17.372 4.9206c-6.7632 0-12.219 5.4555-12.219 12.219v61.906c0 6.7632 5.4555 12.219 12.219 12.219h61.562c6.7632 0 12.219-5.4555 12.219-12.219v-33.794c-0.0346-3.5165-0.0841-5.7358-1.6885-8.6896l-16.237-29.895c-0.43675-0.77203-1.3586-1.7467-3.3394-1.7467z" fill-opacity="0.157"/>
 <path d="m17.747 5.5143c-6.6418 0-11.969 5.3946-11.969 12.062v61.031c0 6.668 5.327 12.031 11.969 12.031h60.813c6.6418 0 11.969-5.3632 11.969-12.031l-0.06245-33.438c-0.0731-3.3855-0.11339-5.4702-1.6562-8.3125l-16.283-29.967c-0.544-0.7689-1.558-1.3403-2.625-1.3747z" fill="url(#linearGradient8339)"/>
 <path d="m5.7709 77.595v1.0133c0 6.668 5.3434 12.032 11.985 12.032h60.809c6.6418 0 11.985-5.3645 11.985-12.032v-1.0133c0 6.6681-5.3434 12.032-11.985 12.032h-60.809c-6.6418 0-11.985-5.3644-11.985-12.032z" fill-opacity="0.098"/>
 <path d="m57.817 5.6171v85.125h20.906c6.6418 0 11.969-5.3632 11.969-12.031v-61.031c0-0.92374-0.1187-1.7923-0.3125-2.6562 0.15863 0.78565 0.25 1.604 0.25 2.4375v27.812c-0.0731-3.3855-0.11339-5.4702-1.6562-8.3125l-16.282-29.968c-0.53945-0.76243-1.3896-1.1622-2.5938-1.375h-12.281z" fill="url(#linearGradient8419)"/>
 <path d="m71.473 4.4296c-7.4721 3.35-12.688 10.913-12.688 19.719 0 11.911 9.5167 21.562 21.281 21.562 4.3866 0 8.4555-1.3551 11.844-3.6562l-20.437-37.625z" stroke-width="0.1" fill="url(#radialGradient8416)"/>
 <path d="m72.4 6.5777c-0.341-0.3041-0.564-0.3884-0.564-0.3884s0.83487 0.58215-0.16423 2.3199c-3.6996 5.3693-2.6956 12.724 2.4663 16.827l13.888 11.014c0.78033 0.57546 0.96083 0.84746 1.2481 1.2895z" fill="#ccc"/>
 <path d="m72.648 6.9456c-0.26811-0.37128-0.48292-0.5133-0.48292-0.5133s0.74441 0.70007-0.21905 2.3758c-3.5676 5.1777-2.5994 12.27 2.3783 16.227l13.393 10.621c0.75249 0.55493 0.92655 0.81722 1.2036 1.2435z" fill="#fff"/>
 <path d="m-38 18.02v12.07c-12.051 0.21176-15.013 11.964-15.013 11.964h9.0894v12.07h-14.094c-8.476 26.152-27.982 23.823-27.982 23.823v-12.07s12.378 2.2962 18.689-20.752c7.895-28.832 29.311-27.105 29.311-27.105z" stroke-width="2" clip-path="url(#clipPath3782)" fill="none" stroke="#fff" filter="url(#filter3786)" opacity="0.6" transform="matrix(1 0 0 1 111.73 1.347)"/>
 <g transform="matrix(1 0 0 1 88.58 -21.559)">
  <path d="m-10.597 86.457c0.0847-6.1616-3.5233-13.483-12.27-18.511-10.117-5.8709-17.763-0.81227-17.763-0.81227s8.51-1.8585 11.821 4.1041c3.31 5.964 0.6045 9.4677-0.7054 11.735-4.3859 7.5974-0.1893 12.039 3.356 14.087 3.5453 2.0473 10.05 2.4796 13.851-4.1041 1.0691-1.852 1.6769-4.0871 1.71-6.4982zm-12.505-36.851c0-4.0938-2.8926-9.9396-10.495-9.9396-7.6036 0-16.4 7.596-16.374 21.632-0.026 11.697 8.1868 15.797 8.1868 15.797s-5.8603-6.4212-2.3513-12.27c3.509-5.8484 7.8977-5.2798 10.517-5.2798 8.7725 0 10.517-5.8458 10.517-9.9396zm-9.3625 23.663s-2.6504 8.2997-9.4694 8.1868c-6.8203-0.11491-8.5022-4.21-9.8114-6.4768-4.3859-7.5981-10.327-6.1934-13.873-4.1469-3.5453 2.0466-7.1577 7.4801-3.356 14.065 3.7997 6.5837 14.791 10.397 26.933 3.356 10.143-5.8244 9.5762-14.984 9.5762-14.984z" fill="url(#linearGradient9436)"/>
  <path d="m-33.596 39.679c-7.6036 0-16.401 7.5889-16.375 21.625-0.026 11.697 8.1875 15.781 8.1875 15.781s-5.8528-6.4016-2.3438-12.25 7.8809-5.2812 10.5-5.2812c8.7725 0 10.531-5.8436 10.531-9.9375 0-4.0938-2.8971-9.9375-10.5-9.9375zm0 2c3.2926 0 5.2687 1.1579 6.5938 2.7188 1.325 1.5608 1.9062 3.6403 1.9062 5.2188 0 1.7625-0.37883 3.8015-1.5312 5.2812-1.1524 1.4798-3.0547 2.6562-7 2.6562-1.1662 0-3.243-0.16284-5.5312 0.5625-2.2883 0.72534-4.6999 2.427-6.6562 5.6875-0.70658 1.1776-1.0438 2.3829-1.2188 3.5625-0.56265-1.688-0.94283-3.6629-0.9375-6.0625-0.0245-13.205 8.093-19.625 14.375-19.625zm0.65625 23.438c-4.7101 0.0487-7.6875 2.0312-7.6875 2.0312s8.5018-1.8688 11.812 4.0938c3.31 5.964 0.62239 9.4512-0.6875 11.719-4.3859 7.5974-0.20152 12.046 3.3438 14.094 3.5453 2.0473 10.042 2.4899 13.844-4.0938 1.0691-1.852 1.6856-4.0889 1.7188-6.5 0.0847-6.1616-3.535-13.472-12.281-18.5-3.7937-2.2016-7.2365-2.873-10.062-2.8438zm3.5 2.4062c1.7072 0.36463 3.5368 0.98066 5.5625 2.1562 8.2304 4.7314 11.355 11.388 11.281 16.75-0.0287 2.0894-0.54931 3.9925-1.4375 5.5312-1.6462 2.8509-3.6466 3.983-5.6562 4.3438-2.0097 0.36073-4.0974-0.17685-5.4688-0.96875-1.5261-0.88128-3.1063-2.2606-3.8125-4-0.70616-1.7394-0.7848-3.9585 1.1875-7.375 0.58124-1.0062 1.7615-2.6897 2.2812-5.0312 0.51971-2.3415 0.28287-5.3312-1.5625-8.6562-0.64301-1.1581-1.4794-2.0211-2.375-2.75zm-30.469 1.6875c-2.1374-0.0505-4.1677 0.72962-5.7188 1.625-3.5453 2.0466-7.1455 7.4775-3.3438 14.062 3.7997 6.5837 14.795 10.384 26.938 3.3438 10.143-5.8244 9.5625-14.969 9.5625-14.969s-2.6498 8.3004-9.4688 8.1875c-6.8204-0.11491-8.5033-4.2019-9.8125-6.4688-2.4671-4.2739-5.4081-5.7163-8.1562-5.7812zm-0.0625 1.9688c0.23344 0.004 0.45654 0.0305 0.6875 0.0625 1.843 0.25506 3.8378 1.3291 5.8125 4.75 0.5804 1.0049 1.4498 2.8757 3.2188 4.5 1.7689 1.6243 4.4773 2.9047 8.2812 2.9688 1.3484 0.02232 2.5305-0.29376 3.625-0.71875-1.1708 1.3023-2.6494 2.6109-4.6875 3.7812-11.424 6.6241-21.083 2.8086-24.219-2.625-1.6469-2.8527-1.6242-5.1348-0.9375-7.0625 0.68669-1.9277 2.1965-3.4927 3.5625-4.2812 1.3433-0.77544 3.0221-1.4036 4.6562-1.375z" opacity="0.1"/>
  <path d="m-33.596 39.679c-7.6036 0-16.401 7.5889-16.375 21.625-0.00027 0.11978-0.001 0.22556 0 0.34375 0.24324-13.619 8.8902-20.969 16.375-20.969 7.2554 0 10.213 5.2993 10.469 9.3438 0.004-0.1339 0.0313-0.27567 0.0313-0.40625 0-4.0938-2.8971-9.9375-10.5-9.9375zm0.65625 25.438c-4.7101 0.0487-7.6875 2.0312-7.6875 2.0312s1.1914-0.26568 2.8438-0.28125c0.0115-0.00011 0.0197 0.00009 0.0313 0 3.1187-0.97895 8.5033-1.6039 14.875 2.0938 8.4805 4.8752 12.144 11.898 12.281 17.938 0.006-0.144-0.002-0.29218 0-0.4375 0.0847-6.1616-3.535-13.472-12.281-18.5-3.7937-2.2016-7.2365-2.873-10.062-2.8438zm-26.969 4.0938c-2.1374-0.0505-4.1677 0.72962-5.7188 1.625-2.5894 1.4948-5.1913 4.794-4.9375 9.0312 0.17083-3.7584 2.554-6.6553 4.9375-8.0312 3.5453-2.0466 9.4891-3.4418 13.875 4.1562 1.3092 2.2668 2.9922 6.3538 9.8125 6.4688 6.5888 0.10905 9.2629-7.5707 9.4375-8.0938 0.0461-0.64069 0.0313-1.0938 0.0313-1.0938s-2.6498 8.3004-9.4688 8.1875c-6.8204-0.11491-8.5033-4.2019-9.8125-6.4688-2.4671-4.2739-5.4081-5.7163-8.1562-5.7812zm14.688 0.25c-0.1305 2.6858 1.038 5.1414 2.0625 6.75 0.8148 0.60964 1.375 0.875 1.375 0.875s-3.1547-3.4624-3.4375-7.625zm17.969 7.8125c-0.1901 2.5147-1.4641 4.3271-2.25 5.6875-1.4753 2.5556-1.9904 4.7546-1.875 6.625 0.0893-1.6432 0.65317-3.5085 1.875-5.625 0.88798-1.5372 2.3881-3.6328 2.25-6.6875z" opacity="0.3"/>
  <path d="m-33.596 39.679c-7.6036 0-16.401 7.5889-16.375 21.625-0.026 11.697 8.1875 15.781 8.1875 15.781s-5.8528-6.4016-2.3438-12.25 7.8809-5.2812 10.5-5.2812c8.7725 0 10.531-5.8436 10.531-9.9375 0-4.0938-2.8971-9.9375-10.5-9.9375zm0 1c3.549 0 5.8425 1.2941 7.3438 3.0625 1.5012 1.7684 2.1562 4.0605 2.1562 5.875 0 1.9059-0.40413 4.1781-1.75 5.9062-1.3459 1.7282-3.6137 3.0312-7.7812 3.0312-1.2384 0-3.1468-0.15676-5.2188 0.5-2.0719 0.65676-4.2704 2.1903-6.125 5.2812-1.7329 2.8882-1.2918 5.8289-0.4375 8.2188-1.8291-2.3499-3.5744-5.9134-3.5625-11.25-0.0252-13.624 8.4269-20.625 15.375-20.625zm0.65625 24.438c-4.7101 0.0487-7.6875 2.0312-7.6875 2.0312s8.5018-1.8688 11.812 4.0938c3.31 5.964 0.62239 9.4512-0.6875 11.719-4.3859 7.5974-0.20152 12.046 3.3438 14.094 3.5453 2.0473 10.042 2.4899 13.844-4.0938 1.0691-1.852 1.6856-4.0889 1.7188-6.5 0.0847-6.1616-3.535-13.472-12.281-18.5-3.7937-2.2016-7.2365-2.873-10.062-2.8438zm0 1c2.6618-0.0275 5.9173 0.57212 9.5625 2.6875 8.4904 4.8809 11.86 11.891 11.781 17.656-0.0309 2.2515-0.58315 4.3034-1.5625 6-1.7746 3.0731-4.0655 4.4036-6.3438 4.8125-2.2782 0.40894-4.5826-0.1538-6.1562-1.0625-1.6504-0.95303-3.3942-2.4691-4.2188-4.5-0.82453-2.0309-0.86477-4.6409 1.2188-8.25 0.61839-1.0705 1.7171-2.6306 2.1875-4.75 0.47041-2.1194 0.28066-4.7854-1.4688-7.9375-1.6268-2.9298-4.3819-4.0082-6.875-4.4688 0.61112-0.0816 1.1739-0.18025 1.875-0.1875zm-26.969 3.0938c-2.1374-0.0505-4.1677 0.72962-5.7188 1.625-3.5453 2.0466-7.1455 7.4775-3.3438 14.062 3.7997 6.5837 14.795 10.384 26.938 3.3438 10.143-5.8244 9.5625-14.969 9.5625-14.969s-2.6498 8.3004-9.4688 8.1875c-6.8204-0.11491-8.5033-4.2019-9.8125-6.4688-2.4671-4.2739-5.4081-5.7163-8.1562-5.7812zm-0.0313 0.96875c0.27003 0.005 0.54191 0.025 0.8125 0.0625 2.1624 0.29927 4.4465 1.6385 6.5312 5.25 0.6178 1.0697 1.4297 2.8106 3.0312 4.2812 1.6016 1.4707 3.9882 2.6268 7.5938 2.6875 3.377 0.05589 5.7262-1.8346 7.375-3.7812-1.1179 2.7559-3.3096 6.0612-7.9375 8.7188-11.786 6.834-22.123 3.0133-25.594-3-1.7749-3.0744-1.7781-5.722-1-7.9062 0.77807-2.1842 2.4291-3.9056 4-4.8125 1.448-0.83589 3.2973-1.538 5.1875-1.5z" opacity="0.15"/>
  <path d="m-23.127 50.023c-0.11293 4.064-2.0073 9.5312-10.5 9.5312-2.6191 0-6.991-0.56711-10.5 5.2812-0.92902 1.5484-1.1956 3.1261-1.0938 4.625 0.0582-1.1984 0.36694-2.4136 1.0938-3.625 3.509-5.8484 7.8809-5.2812 10.5-5.2812 8.7725 0 10.531-5.8436 10.531-9.9375 0-0.18708-0.019-0.40008-0.0313-0.59375zm-26.844 11.625c-0.004 0.21604-0.00041 0.43706 0 0.65625-0.026 11.697 8.1875 15.781 8.1875 15.781s-0.64966-0.73614-1.375-1.875c-2.3018-1.7222-6.7094-6.1257-6.8125-14.562zm12.188 5.2188c-1.8143 0.57347-2.8438 1.2812-2.8438 1.2812s8.5018-1.8688 11.812 4.0938c1.0344 1.8637 1.4769 3.4857 1.5625 4.9062 0.0997-1.6504-0.27127-3.5797-1.5625-5.9062-2.0692-3.7266-6.1534-4.3954-8.9375-4.375-0.0116 0.00009-0.0197-0.00011-0.0313 0zm5.3125 7.4062s-0.0251 0.0755-0.0313 0.0937c-0.18292 2.5414-1.4308 9.2233-9.5312 13.875-12.143 7.0406-23.138 3.2399-26.938-3.3438-1.0251-1.7755-1.5-3.467-1.5938-5.0312-0.0833 1.8319 0.34792 3.8733 1.5938 6.0312 3.7997 6.5837 14.795 10.384 26.938 3.3438 10.143-5.8244 9.5625-14.969 9.5625-14.969zm21.875 12.625c-0.0958 2.2451-0.71413 4.3221-1.7188 6.0625-3.8018 6.5837-10.298 6.141-13.844 4.0938-2.3527-1.3586-4.991-3.7786-5.2188-7.4688-0.23135 4.2552 2.6611 6.9918 5.2188 8.4688 3.5453 2.0473 10.042 2.4899 13.844-4.0938 1.0691-1.852 1.6856-4.0889 1.7188-6.5 0.003-0.18721 0.004-0.37324 0-0.5625z" fill="#fff" opacity="0.8"/>
 </g>
</svg>
