<svg height="96" width="96" xmlns="http://www.w3.org/2000/svg" xmlns:xlink="http://www.w3.org/1999/xlink">
 <defs>
  <linearGradient id="linearGradient15916">
   <stop stop-color="#b4b4b4"/>
   <stop stop-color="#b4b4b4" stop-opacity="0" offset="1"/>
  </linearGradient>
  <linearGradient x2="0" y1="90" y2="5.988" gradientUnits="userSpaceOnUse" id="linearGradient8339" gradientTransform="matrix(1.0959 0 0 1.0685 -4.442 -3.204)">
   <stop stop-color="#ebebeb"/>
   <stop stop-color="#fafafa" offset="1"/>
  </linearGradient>
  <radialGradient cy="360.77" r="21.302" xlink:href="#linearGradient15916" gradientUnits="userSpaceOnUse" id="radialGradient8416" cx="303.16" gradientTransform="matrix(0.44073 -0.24657 0.39119 0.69922 -196.61 -156.38)"/>
  <linearGradient x1="320.6" x2="293.81" xlink:href="#linearGradient15916" y1="345.4" y2="361.49" gradientUnits="userSpaceOnUse" id="linearGradient8419" gradientTransform="matrix(1 0 0 1 -224.68 -343.18)"/>
  <filter x="-0.162" y="-0.13" height="1.259" color-interpolation-filters="sRGB" id="filter3786" width="1.324">
   <feGaussianBlur stdDeviation="3.24"/>
  </filter>
  <clipPath id="clipPath3782">
   <path d="m-98 6c-3.324 0-6 2.676-6 6v72c0 3.324 2.676 6 6 6h72c3.324 0 6-2.676 6-6v-72c0-3.324-2.676-6-6-6h-72zm59.062 12c0.602-0.009 0.938 0.031 0.938 0.031v12.062c-12.051 0.213-15 11.969-15 11.969h9.0625v12.062h-14.094c-8.476 26.153-27.968 23.814-27.968 23.814v-12.062s12.376 2.2983 18.688-20.75c6.9081-25.227 24.168-27.061 28.375-27.125z"/>
  </clipPath>
  <linearGradient x1="141.71" x2="141" y1="723.35" y2="675.35" gradientUnits="userSpaceOnUse" id="linearGradient9661" gradientTransform="matrix(0.7408 0 0 0.7408 -44.27 -471.73)">
   <stop stop-color="#444"/>
   <stop stop-color="#888" offset="1"/>
  </linearGradient>
  <linearGradient x2="0" y1="706.88" y2="678.83" gradientUnits="userSpaceOnUse" id="linearGradient9663" gradientTransform="matrix(0.7267 0 0 0.7262 -42.886 -460.98)">
   <stop stop-color="#8fd400"/>
   <stop stop-color="#daff31" offset="1"/>
  </linearGradient>
 </defs>
 <path d="m16.059 3.1081c-7.049 0-12.719 5.6697-12.719 12.719v64.531c0 7.049 5.6697 12.719 12.719 12.719h64.188c7.049 0 12.719-5.6697 12.719-12.719v-35.013c-0.0367-3.8222-0.0417-6.3452-1.8012-9.5856l-16.206-29.842c-1.0788-1.8835-2.0313-2.8088-5.1346-2.8088z" fill-opacity="0.02"/>
 <path d="m16.497 3.7018c-6.9538 0-12.531 5.6087-12.531 12.562v63.656c0 6.9538 5.5775 12.531 12.531 12.531h63.312c6.9538 0 12.562-5.5775 12.562-12.531v-34.607c-0.0741-3.7145-0.0646-6.1373-1.775-9.2846l-16.222-29.849c-0.90306-1.708-1.7952-2.4773-4.5338-2.4773z" fill-opacity="0.039"/>
 <path d="m16.934 4.3268c-6.8585 0-12.375 5.5165-12.375 12.375v62.781c0 6.8585 5.5165 12.375 12.375 12.375h62.438c6.8585 0 12.375-5.5165 12.375-12.375v-34.169c-0.0596-3.6037-0.0554-5.964-1.7158-9.0186l-16.222-29.842c-0.57824-1.2184-1.5501-2.1266-3.906-2.1266z" fill-opacity="0.078"/>
 <path d="m17.372 4.9206c-6.7632 0-12.219 5.4555-12.219 12.219v61.906c0 6.7632 5.4555 12.219 12.219 12.219h61.562c6.7632 0 12.219-5.4555 12.219-12.219v-33.794c-0.0346-3.5165-0.0841-5.7358-1.6885-8.6896l-16.237-29.895c-0.43675-0.77203-1.3586-1.7467-3.3394-1.7467z" fill-opacity="0.157"/>
 <path d="m17.747 5.5143c-6.6418 0-11.969 5.3946-11.969 12.062v61.031c0 6.668 5.327 12.031 11.969 12.031h60.813c6.6418 0 11.969-5.3632 11.969-12.031l-0.06245-33.438c-0.0731-3.3855-0.11339-5.4702-1.6562-8.3125l-16.283-29.967c-0.544-0.7689-1.558-1.3403-2.625-1.3747z" fill="url(#linearGradient8339)"/>
 <path d="m5.7709 77.595v1.0133c0 6.668 5.3434 12.032 11.985 12.032h60.809c6.6418 0 11.985-5.3645 11.985-12.032v-1.0133c0 6.6681-5.3434 12.032-11.985 12.032h-60.809c-6.6418 0-11.985-5.3644-11.985-12.032z" fill-opacity="0.098"/>
 <path d="m57.817 5.6171v85.125h20.906c6.6418 0 11.969-5.3632 11.969-12.031v-61.031c0-0.92374-0.1187-1.7923-0.3125-2.6562 0.15863 0.78565 0.25 1.604 0.25 2.4375v27.812c-0.0731-3.3855-0.11339-5.4702-1.6562-8.3125l-16.282-29.968c-0.53945-0.76243-1.3896-1.1622-2.5938-1.375h-12.281z" fill="url(#linearGradient8419)"/>
 <path d="m71.473 4.4296c-7.4721 3.35-12.688 10.913-12.688 19.719 0 11.911 9.5167 21.562 21.281 21.562 4.3866 0 8.4555-1.3551 11.844-3.6562l-20.437-37.625z" stroke-width="0.1" fill="url(#radialGradient8416)"/>
 <path d="m72.4 6.5777c-0.341-0.3041-0.564-0.3884-0.564-0.3884s0.83487 0.58215-0.16423 2.3199c-3.6996 5.3693-2.6956 12.724 2.4663 16.827l13.888 11.014c0.78033 0.57546 0.96083 0.84746 1.2481 1.2895z" fill="#ccc"/>
 <path d="m72.648 6.9456c-0.26811-0.37128-0.48292-0.5133-0.48292-0.5133s0.74441 0.70007-0.21905 2.3758c-3.5676 5.1777-2.5994 12.27 2.3783 16.227l13.393 10.621c0.75249 0.55493 0.92655 0.81722 1.2036 1.2435z" fill="#fff"/>
 <path d="m-38 18.02v12.07c-12.051 0.21176-15.013 11.964-15.013 11.964h9.0894v12.07h-14.094c-8.476 26.152-27.982 23.823-27.982 23.823v-12.07s12.378 2.2962 18.689-20.752c7.895-28.832 29.311-27.105 29.311-27.105z" stroke-width="2" clip-path="url(#clipPath3782)" fill="none" stroke="#fff" filter="url(#filter3786)" opacity="0.6" transform="matrix(1 0 0 1 111.73 1.347)"/>
 <g transform="matrix(1 0 0 1 0.175 0.939)">
  <path d="m10 55.188c1.654 2.153 15.758 12.18 34.297 12.18s37.232-8.579 41.703-12.907c-2.77-4.147-18.71-26.218-41.582-25.824-24.586 0.425-34.066 24.976-34.418 26.551z" fill="url(#linearGradient9661)"/>
  <path d="m44.406 28.625c-24.586 0.424-34.054 24.988-34.406 26.563 1.654 2.153 15.774 12.187 34.312 12.187 18.539 0 37.217-8.579 41.688-12.906-2.77-4.148-18.722-26.239-41.594-25.844zm0.0625 3c10.461-0.18058 19.485 4.8181 26.344 10.531 5.395 4.494 8.8067 8.7789 10.875 11.594-2.505 1.6767-6.5705 3.9473-12.25 5.9688-7.2879 2.5939-16.317 4.6562-25.125 4.6562-8.7297 0-16.502-2.3627-22.25-5-2.874-1.3187-5.2317-2.6947-6.9375-3.8438-0.9673-0.65159-1.0752-0.79737-1.5625-1.2188 0.29938-0.69667 0.63142-1.4947 1.1562-2.5 1.236-2.3674 3.0986-5.3946 5.6562-8.375 5.1154-5.9608 12.79-11.617 24.094-11.812z" opacity="0.05"/>
  <path d="m85.562 54.844c-5.098 4.426-23.221 12.531-41.25 12.531-17.902 0-31.649-9.326-34.062-11.906-0.123 0.336-0.225 0.605-0.25 0.719 1.654 2.153 15.774 12.187 34.312 12.187 18.539 0 37.217-8.579 41.688-12.906-0.09288-0.13904-0.31526-0.44719-0.4375-0.625z" fill="#fff" opacity="0.8"/>
  <path d="m44 31c-1.2904 0.14542-2.7891-0.04181-3.9252 0.68609-1.1568 0.85907-0.70317 2.4239-0.79354 3.6577-0.909 0.4122-1.7598 0.94442-2.3545-0.13575-0.63687-0.73659-1.4969-1.5402-2.5584-1.2225-1.4602 0.49515-2.5098 1.852-3.604 2.8878-0.80699 0.99986-2.2404 2.1757-1.6705 3.6267 0.4316 0.87547 1.3082 1.4277 1.9375 2.1562-0.38389 0.92653-0.61038 1.9431-1.8076 1.5938-1.0304-0.09815-2.2593 0.06375-2.7448 1.1186-0.66361 2.3255-0.60182 4.8795-0.04136 7.2252 0.44781 1.0227 1.6092 1.3065 2.6271 1.1875 1.0008-0.19235 1.6122 0.13209 1.779 1.2049 0.43192 0.66955-0.70983 1.0719-1.0363 1.6129-0.98616 0.69847-1.1228 2.2038-0.26541 3.0619 1.2893 1.6679 2.7967 3.2667 4.6457 4.3078 0.99024 0.359 1.9412-0.23908 2.5352-1.004 0.56526-0.66682 1.1195-1.2947 1.9481-0.51312 1.0032 0.07559 0.4849 1.1884 0.61042 1.865-0.18392 1.2218 0.77913 2.4451 2.0469 2.4311 2.1304 0.33234 4.4202 0.42247 6.4844-0.27898 0.99691-0.52984 1.0768-1.7369 1-2.737-0.3494-1.161 0.63635-1.3528 1.5312-1.7005 0.92423 0.82345 1.7248 2.205 3.1562 2 1.5236-0.47421 2.6041-1.8442 3.7523-2.8829 0.83388-0.99282 2.2886-2.1817 1.7164-3.6483-0.42236-0.86409-1.2866-1.4075-1.9062-2.125 0.38389-0.92653 0.61038-1.9431 1.8076-1.5938 1.0051 0.10393 2.1817-0.10431 2.6511-1.1186 0.66031-2.3257 0.60522-4.8798 0.04136-7.2252-0.44781-1.0227-1.6092-1.3065-2.6271-1.1875-1.109 0.29146-1.4999-0.41056-1.7781-1.4-0.05633-0.57269 0.85562-0.98402 1.2012-1.4897 0.92552-0.70074 0.96306-2.1475 0.16314-2.9595-1.29-1.675-2.794-3.289-4.647-4.338-0.99024-0.359-1.9412 0.23908-2.5352 1.004-0.58517 0.83711-1.2446 1.0967-2.1184 0.39973-0.778-0.184-0.258-1.266-0.409-1.884 0.163-1.189-0.801-2.316-2.006-2.334-0.927-0.149-1.866-0.248-2.806-0.248zm0 12.625c3.1939-0.12007 5.9067 3.066 5.3137 6.1995-0.36744 3.1696-3.9219 5.3445-6.9225 4.3111-3.1672-0.85851-4.7565-4.8887-3.1231-7.7089 0.905-1.718 2.793-2.825 4.732-2.802z" opacity="0.08"/>
  <path d="m44 32c-0.99769 0-1.9502 0.12292-2.875 0.28125a0.99153 0.99153 0 0 0 -0.844 0.969v2.7188c-0.98618 0.28863-1.9055 0.69916-2.7812 1.1875l-2-1.9688a0.99153 0.99153 0 0 0 -1.25 -0.09375c-1.6175 1.134-2.9986 2.5611-4.125 4.1562a0.99153 0.99153 0 0 0 0.125 1.25l1.9375 1.9375c-0.496 0.885-0.897 1.819-1.188 2.814h-2.75a0.99153 0.99153 0 0 0 -0.96875 0.84375c-0.164 0.941-0.281 1.899-0.281 2.906 0 1.0066 0.11679 1.9921 0.28125 2.9375a0.99153 0.99153 0 0 0 0.969 0.843h2.75c0.29126 0.99523 0.69245 1.9293 1.1875 2.8125l-1.9375 1.9375a0.99153 0.99153 0 0 0 -0.125 1.25c1.1366 1.6095 2.5482 2.999 4.1562 4.125a0.99153 0.99153 0 0 0 1.25 -0.125l1.9375-1.9375c0.88291 0.4947 1.8169 0.89611 2.8125 1.1875v2.7188a0.99153 0.99153 0 0 0 0.845 0.968c0.925 0.158 1.877 0.281 2.875 0.281 1.016-0.00001 2.0384-0.11191 3-0.28125a0.99153 0.99153 0 0 0 0.812 -0.969v-2.7188c0.98618-0.28863 1.9055-0.69915 2.7812-1.1875l1.875 1.9062a0.99153 0.99153 0 0 0 1.282 0.125c1.5937-1.1238 3.0473-2.4989 4.1875-4.125a0.99153 0.99153 0 0 0 -0.125 -1.25l-1.9062-1.9062c0.49504-0.88325 0.89624-1.8173 1.1875-2.8125h2.6562a0.99153 0.99153 0 0 0 0.969 -0.844c0.164-0.946 0.281-1.931 0.281-2.938s-0.117-1.965-0.281-2.906a0.99153 0.99153 0 0 0 -0.969 -0.844h-2.6562c-0.29126-0.99522-0.69245-1.9293-1.1875-2.8125l1.9062-1.9062a0.99153 0.99153 0 0 0 0.125 -1.25c-1.13-1.613-2.552-3.025-4.156-4.157a0.99153 0.99153 0 0 0 -1.25 0.125l-1.906 1.906c-0.88291-0.4947-1.8169-0.89612-2.8125-1.1875v-2.7188a0.99153 0.99153 0 0 0 -0.812 -0.968c-0.962-0.169-1.984-0.281-3-0.281zm0 10.625c3.5301 0.000016 6.375 2.8476 6.375 6.375s-2.8449 6.375-6.375 6.375c-3.5301 0.000016-6.375-2.8476-6.375-6.375s2.8449-6.375 6.375-6.375z" opacity="0.15"/>
  <path d="m44.011 33c-0.9274 0-1.8456 0.08677-2.7299 0.23816v3.3992c-1.4573 0.32356-2.8085 0.91135-4.0298 1.6888l-2.4265-2.4249c-1.5155 1.0625-2.8326 2.3858-3.8998 3.8972l2.4265 2.4249c-0.77794 1.2205-1.3661 2.5707-1.6899 4.0271h-3.4232c-0.155 0.896-0.237 1.81-0.237 2.75 0 0.94043 0.08247 1.8754 0.23832 2.7713h3.4232c0.32376 1.4564 0.91197 2.8066 1.6899 4.0271l-2.4265 2.4249c1.0689 1.5138 2.403 2.8122 3.9215 3.8755l2.4049-2.4033c1.2213 0.7774 2.5725 1.3652 4.0298 1.6888v3.3775c0.884 0.151 1.802 0.238 2.73 0.238 0.95359-0.000009 1.8871-0.0783 2.7949-0.23816v-3.3775c1.4573-0.32354 2.8085-0.91134 4.0298-1.6888l2.3615 2.3816c1.5148-1.0682 2.8574-2.3797 3.9215-3.8972l-2.3832-2.3816c0.77794-1.2205 1.3661-2.5707 1.6899-4.0271h3.3365c0.154-0.896 0.236-1.831 0.236-2.771s-0.082-1.854-0.238-2.75h-3.3365c-0.32377-1.4564-0.91197-2.8066-1.6899-4.0271l2.3832-2.3816c-1.063-1.515-2.388-2.851-3.9-3.918l-2.3832 2.4032c-1.2213-0.77741-2.5725-1.3652-4.0298-1.6888v-3.3775c-0.908-0.16-1.842-0.26-2.795-0.26zm-0.02167 8.6387c4.0679 0.000018 7.3879 3.2962 7.3879 7.3613s-3.3201 7.3613-7.3879 7.3613c-4.0679 0.000018-7.3663-3.2962-7.3663-7.3613s3.2984-7.3613 7.3663-7.3613z" opacity="0.3"/>
  <path d="m44.011 32c-0.9274 0-1.8456 0.08677-2.7299 0.23816v3.3992c-1.4573 0.32356-2.8085 0.91135-4.0298 1.6888l-2.4265-2.4249c-1.5155 1.0625-2.8326 2.3858-3.8998 3.8972l2.4265 2.4249c-0.77794 1.2205-1.3661 2.5707-1.6899 4.0271h-3.4232c-0.155 0.896-0.237 1.81-0.237 2.75 0 0.94043 0.08247 1.8754 0.23832 2.7713h3.4232c0.32376 1.4564 0.91197 2.8066 1.6899 4.0271l-2.4265 2.4249c1.0689 1.5138 2.403 2.8122 3.9215 3.8755l2.4049-2.4033c1.2213 0.7774 2.5725 1.3652 4.0298 1.6888v3.3775c0.884 0.151 1.802 0.238 2.73 0.238 0.95359-0.000009 1.8871-0.0783 2.7949-0.23816v-3.3775c1.4573-0.32354 2.8085-0.91134 4.0298-1.6888l2.3615 2.3816c1.5148-1.0682 2.8574-2.3797 3.9215-3.8972l-2.3832-2.3816c0.77794-1.2205 1.3661-2.5707 1.6899-4.0271h3.3365c0.154-0.896 0.236-1.831 0.236-2.771s-0.082-1.854-0.238-2.75h-3.3365c-0.32377-1.4564-0.91197-2.8066-1.6899-4.0271l2.3832-2.3816c-1.063-1.515-2.388-2.851-3.9-3.918l-2.3832 2.4032c-1.2213-0.77741-2.5725-1.3652-4.0298-1.6888v-3.3775c-0.908-0.16-1.842-0.26-2.795-0.26zm-0.02167 8.6387c4.0679 0.000018 7.3879 3.2962 7.3879 7.3613s-3.3201 7.3613-7.3879 7.3613c-4.0679 0.000018-7.3663-3.2962-7.3663-7.3613s3.2984-7.3613 7.3663-7.3613z" fill="url(#linearGradient9663)"/>
  <path d="m44.406 28.625c-24.586 0.424-34.054 24.988-34.406 26.563 1.654 2.153 15.774 12.187 34.312 12.187 18.539 0 37.217-8.579 41.688-12.906-2.77-4.148-18.722-26.239-41.594-25.844zm0.03125 1.9375c10.803-0.186 20.087 4.971 27.063 10.782 6.017 5.012 9.791 9.983 11.688 12.656-2.4054 1.7982-7.0413 4.4534-13.406 6.7188-7.378 2.626-16.499 4.7188-25.469 4.7188-8.9184 0-16.832-2.4386-22.688-5.125-2.9275-1.3432-5.3389-2.7554-7.0938-3.9375-1.3161-0.88657-1.8124-1.3797-2.25-1.7812 0.05187-0.13733 0.03148-0.09951 0.09375-0.25 0.3182-0.769 0.77334-1.7877 1.4062-3 1.2658-2.4246 3.1903-5.5382 5.8125-8.5938 5.2444-6.1112 13.194-11.986 24.844-12.188z" opacity="0.08"/>
  <path d="m44 32c-0.9274 0-1.8345 0.09861-2.7188 0.25v1c0.885-0.151 1.792-0.25 2.719-0.25 0.95359 0 1.9047 0.09014 2.8125 0.25v-1c-0.907-0.16-1.858-0.25-2.812-0.25zm-9.1875 2.9062c-1.5155 1.0625-2.8078 2.3949-3.875 3.9062l0.438 0.438c0.98661-1.2773 2.114-2.4159 3.4375-3.3438l2.438 2.406c1.2213-0.77742 2.5739-1.3639 4.0312-1.6875v-1c-1.4573 0.32356-2.8099 0.91008-4.0312 1.6875l-2.4375-2.4062zm18.406 0.03125-2.375 2.375c-1.221-0.777-2.573-1.363-4.031-1.687v1c1.4573 0.32355 2.8099 0.91009 4.0312 1.6875l2.375-2.375c1.317 0.92972 2.4853 2.0655 3.4688 3.3438l0.4375-0.4375c-1.061-1.515-2.393-2.839-3.905-3.906zm-20.25 6.9062c-0.59135 1.0501-1.0435 2.1961-1.3125 3.4062h-3.4062c-0.156 0.897-0.25 1.811-0.25 2.751 0 0.16732 0.02608 0.33321 0.03125 0.5 0.02389-0.76543 0.09063-1.5135 0.21875-2.25h3.4062c0.32376-1.4563 0.90956-2.8107 1.6875-4.0312l-0.375-0.375zm22.156 0-0.375 0.375c0.77794 1.2205 1.3637 2.5749 1.6875 4.0312h3.3125c0.1281 0.7365 0.19486 1.4846 0.21875 2.25 0.007-0.166 0.033-0.332 0.033-0.499 0-0.94-0.094-1.854-0.25-2.75h-3.3125c-0.27-1.21-0.722-2.356-1.313-3.406zm-18.468 6.657c-0.011 0.167-0.031 0.33-0.031 0.5 0 4.0651 3.3071 7.375 7.375 7.375s7.375-3.3099 7.375-7.375c0-0.16953-0.01989-0.33333-0.03125-0.5-0.261 3.83-3.446 6.875-7.344 6.875s-7.084-3.045-7.344-6.875zm-3.656 6.656l-2.0625 2.0625c0.13786 0.19523 0.291 0.37448 0.4375 0.5625l1.968-1.968c-0.131-0.204-0.225-0.444-0.344-0.656zm22.094 0c-0.12 0.212-0.214 0.452-0.344 0.656l1.9375 1.9375c0.14626-0.18877 0.30027-0.3668 0.4375-0.5625l-2.0312-2.0312z" fill="#fff" opacity="0.4"/>
  <path d="m44.406 28.625c-24.586 0.424-34.054 24.988-34.406 26.563 0.05674 0.07386 0.16428 0.18958 0.25 0.28125 1.581-4.317 11.349-25.45 34.156-25.844 22.105-0.382 37.632 20.093 41.156 25.219 0.145-0.126 0.315-0.256 0.438-0.375-2.77-4.148-18.722-26.239-41.594-25.844z" opacity="0.3"/>
  <path d="m44.406 28.625c-24.586 0.424-34.054 24.988-34.406 26.563 1.654 2.153 15.774 12.187 34.312 12.187 18.539 0 37.217-8.579 41.688-12.906-2.77-4.148-18.722-26.239-41.594-25.844zm0.03125 0.96875c11.124-0.19202 20.601 5.0973 27.688 11 6.6183 5.513 10.837 11.237 12.5 13.656-2.3053 1.9534-7.5178 4.9212-14.5 7.4062-7.4632 2.6563-16.691 4.75-25.812 4.75-9.0966 0-17.138-2.4547-23.094-5.1875-2.9781-1.3664-5.4176-2.7867-7.2188-4-1.5907-1.0715-2.4759-1.8921-2.875-2.3125 0.08281-0.24702 0.129-0.41851 0.34375-0.9375 0.32959-0.79654 0.79049-1.8544 1.4375-3.0938 1.294-2.4786 3.2544-5.6547 5.9375-8.7812 5.3663-6.2532 13.617-12.293 25.594-12.5z" opacity="0.15"/>
 </g>
</svg>
