<svg height="96" width="96" xmlns="http://www.w3.org/2000/svg">
 <defs>
  <linearGradient x2="0" y1="90" y2="5.988" gradientUnits="userSpaceOnUse" id="linearGradient8339" gradientTransform="matrix(1.0959 0 0 1.0685 -4.442 -3.204)">
   <stop stop-color="#ebebeb"/>
   <stop stop-color="#fafafa" offset="1"/>
  </linearGradient>
  <radialGradient cy="360.77" r="21.302" gradientUnits="userSpaceOnUse" id="radialGradient8416" cx="303.16" gradientTransform="matrix(0.44073 -0.24657 0.39119 0.69922 -196.61 -156.38)">
   <stop stop-color="#b4b4b4"/>
   <stop stop-color="#b4b4b4" stop-opacity="0" offset="1"/>
  </radialGradient>
  <filter x="-0.144" y="-0.144" height="1.288" color-interpolation-filters="sRGB" id="filter3879" width="1.288">
   <feGaussianBlur stdDeviation="2.88"/>
  </filter>
  <clipPath id="clipPath3875">
   <path d="m-88 6c-3.324 0-6 2.676-6 6v72c0 3.324 2.676 6 6 6h72c3.324 0 6-2.676 6-6v-72c0-3.324-2.676-6-6-6h-72zm36 18c13.255 0 24 10.745 24 24s-10.745 24-24 24-24-10.745-24-24 10.745-24 24-24zm0 6c-9.9411 0-18 8.0589-18 18s8.0589 18 18 18 18-8.0589 18-18-8.0589-18-18-18zm0.46875 4c1.7765 0.000028 3.3303 0.18919 4.6562 0.5625 1.3388 0.37336 2.5032 0.91148 3.4688 1.5938 0.97837 0.66945 1.7754 1.4481 2.4062 2.375 0.64365 0.91404 1.1395 1.9241 1.5 3.0312l-5 1.375c-0.18025-0.57929-0.47044-1.1284-0.84375-1.6562-0.37335-0.54067-0.85821-1.0255-1.4375-1.4375-0.56646-0.41193-1.2276-0.72413-2-0.96875-0.77243-0.25745-1.6466-0.40623-2.625-0.40625-1.3775 0.000023-2.5712 0.23695-3.5625 0.6875-0.99128 0.43772-1.7938 1.0824-2.4375 1.9062-0.63081 0.82393-1.0973 1.8101-1.4062 2.9688-0.2961 1.1458-0.43751 2.4148-0.4375 3.8438-0.000007 1.4161 0.1414 2.7219 0.4375 3.9062 0.30896 1.1715 0.76256 2.1816 1.4062 3.0312 0.64367 0.84966 1.4959 1.5237 2.5 2 1.017 0.47633 2.2089 0.71875 3.625 0.71875 1.0685 0.000004 2.0088-0.17265 2.7812-0.46875 0.78527-0.30896 1.4648-0.6983 2.0312-1.1875 0.57929-0.48919 1.0329-1.0383 1.4062-1.6562 0.38618-0.61792 0.72413-1.2442 0.96875-1.875l4.9375 1.875c-0.39911 0.9784-0.91885 1.9352-1.5625 2.875-0.6437 0.93977-1.4408 1.7791-2.4062 2.5-0.96554 0.72092-2.0987 1.2994-3.4375 1.75-1.326 0.437-2.917 0.656-4.719 0.656-2.3559 0-4.4-0.33608-6.125-1.0312-1.7251-0.70804-3.1484-1.6888-4.2812-2.9375-1.12-1.2616-1.9464-2.7749-2.5-4.5-0.54069-1.725-0.8125-3.6093-0.8125-5.6562-0.000002-2.1241 0.27181-4.0378 0.8125-5.75 0.55356-1.7122 1.3929-3.1777 2.5-4.375 1.1071-1.2101 2.5011-2.1063 4.1875-2.75 1.6993-0.65652 3.6772-0.99997 5.9688-1z"/>
  </clipPath>
  <radialGradient cy="90.17" r="42" gradientUnits="userSpaceOnUse" id="radialGradient22971" cx="48" gradientTransform="matrix(1.1573 0 0 0.99591 217.41 -166.15)">
   <stop stop-color="#fff"/>
   <stop stop-color="#fff" stop-opacity="0" offset="1"/>
  </radialGradient>
  <linearGradient x2="0" y1="72" y2="23.99" gradientUnits="userSpaceOnUse" id="linearGradient22979" gradientTransform="matrix(1 0 0 1 0.317 1.053)">
   <stop stop-color="#bababa"/>
   <stop stop-color="#d2d2d2" offset="1"/>
  </linearGradient>
 </defs>
 <path d="m16.059 3.1081c-7.049 0-12.719 5.6697-12.719 12.719v64.531c0 7.049 5.6697 12.719 12.719 12.719h64.188c7.049 0 12.719-5.6697 12.719-12.719v-35.013c-0.0367-3.8222-0.0417-6.3452-1.8012-9.5856l-16.206-29.842c-1.0788-1.8835-2.0313-2.8088-5.1346-2.8088z" fill-opacity="0.02"/>
 <path d="m16.497 3.7018c-6.9538 0-12.531 5.6087-12.531 12.562v63.656c0 6.9538 5.5775 12.531 12.531 12.531h63.312c6.9538 0 12.562-5.5775 12.562-12.531v-34.607c-0.0741-3.7145-0.0646-6.1373-1.775-9.2846l-16.222-29.849c-0.90306-1.708-1.7952-2.4773-4.5338-2.4773z" fill-opacity="0.039"/>
 <path d="m16.934 4.3268c-6.8585 0-12.375 5.5165-12.375 12.375v62.781c0 6.8585 5.5165 12.375 12.375 12.375h62.438c6.8585 0 12.375-5.5165 12.375-12.375v-34.169c-0.0596-3.6037-0.0554-5.964-1.7158-9.0186l-16.222-29.842c-0.57824-1.2184-1.5501-2.1266-3.906-2.1266z" fill-opacity="0.078"/>
 <path d="m17.372 4.9206c-6.7632 0-12.219 5.4555-12.219 12.219v61.906c0 6.7632 5.4555 12.219 12.219 12.219h61.562c6.7632 0 12.219-5.4555 12.219-12.219v-33.794c-0.0346-3.5165-0.0841-5.7358-1.6885-8.6896l-16.237-29.895c-0.43675-0.77203-1.3586-1.7467-3.3394-1.7467z" fill-opacity="0.157"/>
 <path d="m17.747 5.5143c-6.6418 0-11.969 5.3946-11.969 12.062v61.031c0 6.668 5.327 12.031 11.969 12.031h60.813c6.6418 0 11.969-5.3632 11.969-12.031l-0.06245-33.438c-0.0731-3.3855-0.11339-5.4702-1.6562-8.3125l-16.283-29.967c-0.544-0.7689-1.558-1.3403-2.625-1.3747z" fill="url(#linearGradient8339)"/>
 <path d="m71.473 4.4296c-7.4721 3.35-12.688 10.913-12.688 19.719 0 11.911 9.5167 21.562 21.281 21.562 4.3866 0 8.4555-1.3551 11.844-3.6562l-20.437-37.625z" stroke-width="0.1" fill="url(#radialGradient8416)"/>
 <path d="m72.4 6.5777c-0.341-0.3041-0.564-0.3884-0.564-0.3884s0.83487 0.58215-0.16423 2.3199c-3.6996 5.3693-2.6956 12.724 2.4663 16.827l13.888 11.014c0.78033 0.57546 0.96083 0.84746 1.2481 1.2895z" fill="#ccc"/>
 <path d="m72.648 6.9456c-0.26811-0.37128-0.48292-0.5133-0.48292-0.5133s0.74441 0.70007-0.21905 2.3758c-3.5676 5.1777-2.5994 12.27 2.3783 16.227l13.393 10.621c0.75249 0.55493 0.92655 0.81722 1.2036 1.2435z" fill="#fff"/>
 <path d="m236.96-76.351c-3.324 0-6-2.676-6-6v-2-68-2c0-0.33472 0.0413-0.6507 0.0937-0.96875 0.0487-0.2956 0.097-0.59691 0.1875-0.875 0.01-0.0304 0.0209-0.0636 0.0313-0.0937 0.0989-0.28777 0.23488-0.54745 0.375-0.8125 0.14459-0.27351 0.31562-0.53562 0.5-0.78125s0.37378-0.47347 0.59375-0.6875c0.43995-0.42806 0.94291-0.81453 1.5-1.0938 0.27854-0.13961 0.57347-0.24695 0.875-0.34375-0.2562 0.10022-0.48671 0.23627-0.71875 0.375-0.007 0.004-0.0239-0.004-0.0313 0-0.0319 0.0193-0.0623 0.0425-0.0937 0.0625-0.1204 0.0767-0.23102 0.16351-0.34375 0.25-0.10617 0.0808-0.21328 0.16111-0.3125 0.25-0.17793 0.16143-0.34746 0.34539-0.5 0.53125-0.10758 0.13026-0.21839 0.26529-0.3125 0.40625-0.0251 0.0384-0.0385 0.0859-0.0625 0.125-0.0648 0.10303-0.13023 0.20452-0.1875 0.3125-0.10101 0.19471-0.20567 0.4157-0.28125 0.625-0.008 0.0218-0.0236 0.0406-0.0313 0.0625-0.0318 0.092-0.0358 0.18683-0.0625 0.28125-0.0303 0.10662-0.0704 0.20303-0.0937 0.3125-0.0729 0.34151-0.125 0.69821-0.125 1.0625v2 68 2c0 2.7818 2.2182 5 5 5h2 68 2c2.7818 0 5-2.2182 5-5v-2-68-2c0-0.36429-0.0521-0.72099-0.125-1.0625-0.0442-0.20689-0.0884-0.39766-0.15625-0.59375-0.008-0.0219-0.0233-0.0407-0.0313-0.0625-0.0627-0.17374-0.13838-0.36745-0.21875-0.53125-0.0416-0.0828-0.079-0.16995-0.125-0.25-0.0546-0.0972-0.12677-0.18835-0.1875-0.28125-0.0941-0.14096-0.20492-0.27599-0.3125-0.40625-0.14317-0.17445-0.30314-0.347-0.46875-0.5-0.0112-0.0102-0.02-0.0211-0.0313-0.0313-0.13839-0.12556-0.28509-0.23444-0.4375-0.34375-0.10257-0.0731-0.20432-0.15336-0.3125-0.21875-0.007-0.004-0.0238 0.004-0.0313 0-0.23204-0.13873-0.46255-0.27478-0.71875-0.375 0.30153 0.0968 0.59645 0.20414 0.875 0.34375 0.55709 0.27922 1.06 0.66569 1.5 1.0938 0.21997 0.21403 0.40937 0.44187 0.59375 0.6875s0.35541 0.50774 0.5 0.78125c0.14012 0.26505 0.27613 0.52473 0.375 0.8125 0.0104 0.0308 0.0213 0.0627 0.0313 0.0937 0.0905 0.27809 0.1388 0.5794 0.1875 0.875 0.0524 0.31805 0.0937 0.63403 0.0937 0.96875v2 68 2c0 3.324-2.676 6-6 6h-72z" fill="url(#radialGradient22971)" opacity="0.4"/>
 <path d="m-52 24c-13.255 0-24 10.745-24 24s10.745 24 24 24 24-10.745 24-24-10.745-24-24-24zm0 6c9.9411 0 18 8.0589 18 18s-8.0589 18-18 18-18-8.0589-18-18 8.0589-18 18-18zm0.46875 4c-2.2915 0.000028-4.2695 0.34348-5.9688 1-1.6864 0.6437-3.0804 1.5399-4.1875 2.75-1.1071 1.1973-1.9464 2.6628-2.5 4.375-0.54069 1.7122-0.8125 3.6259-0.8125 5.75-0.000002 2.0469 0.27181 3.9312 0.8125 5.6562 0.55356 1.7251 1.38 3.2384 2.5 4.5 1.1329 1.2487 2.5562 2.2295 4.2812 2.9375 1.725 0.69517 3.7691 1.0312 6.125 1.0312 1.8023 0 3.3928-0.21855 4.7188-0.65625 1.3388-0.45057 2.472-1.0291 3.4375-1.75 0.96549-0.72092 1.7625-1.5602 2.4062-2.5 0.64365-0.93976 1.1634-1.8966 1.5625-2.875l-4.9375-1.875c-0.24462 0.63081-0.58256 1.2571-0.96875 1.875-0.37336 0.61794-0.82696 1.1671-1.4062 1.6562-0.56646 0.4892-1.246 0.87854-2.0312 1.1875-0.77243 0.2961-1.7128 0.46875-2.7812 0.46875-1.4161 0.000004-2.608-0.24242-3.625-0.71875-1.0041-0.47632-1.8563-1.1503-2.5-2-0.64369-0.84965-1.0973-1.8597-1.4062-3.0312-0.2961-1.1844-0.43751-2.4901-0.4375-3.9062-0.000007-1.429 0.1414-2.698 0.4375-3.8438 0.30896-1.1586 0.77544-2.1448 1.4062-2.9688 0.64367-0.82389 1.4462-1.4685 2.4375-1.9062 0.99125-0.45055 2.185-0.68748 3.5625-0.6875 0.97838 0.000023 1.8526 0.1488 2.625 0.40625 0.7724 0.24462 1.4335 0.55682 2 0.96875 0.57929 0.41198 1.0641 0.89683 1.4375 1.4375 0.37331 0.52784 0.6635 1.077 0.84375 1.6562l5-1.375c-0.36049-1.1071-0.85635-2.1172-1.5-3.0312-0.63083-0.92687-1.4279-1.7056-2.4062-2.375-0.96554-0.68227-2.1299-1.2204-3.4688-1.5938-1.326-0.37331-2.8797-0.56247-4.6562-0.5625z" stroke-width="2" clip-path="url(#clipPath3875)" fill="none" color="#000000" stroke="#fff" filter="url(#filter3879)" opacity="0.6" transform="matrix(1 0 0 1 100.32 1.053)"/>
 <path d="m48.317 25.053c-13.255 0-24 10.745-24 24s10.745 24 24 24 24-10.745 24-24-10.745-24-24-24zm0 6c9.9411 0 18 8.0589 18 18s-8.0589 18-18 18-18-8.0589-18-18 8.0589-18 18-18zm0.46875 4c-2.2915 0.00003-4.2694 0.34348-5.9688 1-1.6864 0.6437-3.0804 1.5399-4.1875 2.75-1.1071 1.1973-1.9464 2.6628-2.5 4.375-0.54069 1.7122-0.8125 3.6259-0.8125 5.75 0 2.0469 0.27181 3.9312 0.8125 5.6562 0.55356 1.7251 1.38 3.2384 2.5 4.5 1.1329 1.2487 2.5562 2.2294 4.2812 2.9375 1.725 0.69517 3.7691 1.0312 6.125 1.0312 1.8023 0 3.3928-0.21855 4.7188-0.65625 1.3388-0.45057 2.472-1.0291 3.4375-1.75 0.96549-0.72092 1.7626-1.5602 2.4062-2.5 0.64365-0.93977 1.1634-1.8966 1.5625-2.875l-4.9375-1.875c-0.24462 0.63081-0.58257 1.2571-0.96875 1.875-0.37336 0.61794-0.82696 1.1671-1.4062 1.6562-0.56646 0.4892-1.246 0.87854-2.0312 1.1875-0.77243 0.2961-1.7128 0.46875-2.7812 0.46875-1.4161 0-2.608-0.24242-3.625-0.71875-1.0042-0.47632-1.8563-1.1503-2.5-2-0.64369-0.84965-1.0973-1.8598-1.4062-3.0312-0.2961-1.1844-0.43751-2.4902-0.4375-3.9062-0.00001-1.429 0.1414-2.698 0.4375-3.8438 0.30896-1.1586 0.77544-2.1448 1.4062-2.9688 0.64367-0.82389 1.4462-1.4685 2.4375-1.9062 0.99125-0.45055 2.185-0.68748 3.5625-0.6875 0.97838 0.00002 1.8526 0.1488 2.625 0.40625 0.7724 0.24462 1.4335 0.55682 2 0.96875 0.57929 0.41197 1.0642 0.89683 1.4375 1.4375 0.37331 0.52784 0.6635 1.077 0.84375 1.6562l5-1.375c-0.36049-1.1071-0.85635-2.1172-1.5-3.0312-0.63083-0.92687-1.4279-1.7056-2.4062-2.375-0.96554-0.68227-2.1299-1.2204-3.4688-1.5938-1.326-0.37331-2.8797-0.56247-4.6562-0.5625z" fill="url(#linearGradient22979)" color="#000000"/>
 <path d="m48.317 25.053c-13.255 0-24 10.745-24 24 0 0.16558-0.003 0.33522 0 0.5 0.26384-13.026 10.911-23.5 24-23.5s23.736 10.474 24 23.5c0.003-0.16478 0-0.33442 0-0.5 0-13.255-10.745-24-24-24zm0.46875 10c-2.2915 0.00003-4.2694 0.34348-5.9688 1-1.6864 0.6437-3.0804 1.5399-4.1875 2.75-1.1071 1.1973-1.9464 2.6628-2.5 4.375-0.54069 1.7122-0.8125 3.6259-0.8125 5.75 0 0.17072 0.0275 0.33154 0.0313 0.5 0.04-1.9231 0.28385-3.6749 0.78125-5.25 0.55356-1.7122 1.3929-3.1777 2.5-4.375 1.1071-1.2101 2.5011-2.1063 4.1875-2.75 1.6993-0.65652 3.6772-0.99997 5.9688-1 1.7765 0.00003 3.3303 0.18919 4.6562 0.5625 1.3388 0.37336 2.5032 0.91148 3.4688 1.5938 0.97837 0.66945 1.7754 1.4481 2.4062 2.375 0.46453 0.65968 0.87226 1.3649 1.1875 2.125l0.3125-0.0937c-0.36049-1.1071-0.85635-2.1172-1.5-3.0312-0.63083-0.92687-1.4279-1.7056-2.4062-2.375-0.96554-0.68227-2.1299-1.2204-3.4688-1.5938-1.326-0.37331-2.8797-0.56247-4.6562-0.5625zm-7.7188 14.375c-0.004 0.16842 0 0.32695 0 0.5-0.00001 1.4161 0.1414 2.7219 0.4375 3.9062 0.30896 1.1715 0.76256 2.1816 1.4062 3.0312 0.64367 0.84966 1.4958 1.5237 2.5 2 1.017 0.47633 2.2089 0.71875 3.625 0.71875 1.0685 0 2.0088-0.17265 2.7812-0.46875 0.78527-0.30896 1.4648-0.6983 2.0312-1.1875 0.57929-0.48919 1.0329-1.0383 1.4062-1.6562 0.38618-0.61792 0.72413-1.2442 0.96875-1.875l4.5312 1.7188c0.13819-0.28389 0.28897-0.55625 0.40625-0.84375l-4.9375-1.875c-0.24462 0.63081-0.58257 1.2571-0.96875 1.875-0.37336 0.61794-0.82696 1.1671-1.4062 1.6562-0.56646 0.4892-1.246 0.87854-2.0312 1.1875-0.77243 0.2961-1.7128 0.46875-2.7812 0.46875-1.4161 0-2.608-0.24242-3.625-0.71875-1.0042-0.47632-1.8563-1.1503-2.5-2-0.64369-0.84965-1.0973-1.8598-1.4062-3.0312-0.26024-1.0409-0.40723-2.1853-0.4375-3.4062zm-10.719 0.125c-0.005 0.16748-0.0313 0.33141-0.0313 0.5 0 9.9411 8.0589 18 18 18s18-8.0589 18-18c0-0.16859-0.0266-0.33252-0.0313-0.5-0.26696 9.708-8.1962 17.5-17.969 17.5-9.7725 0-17.702-7.792-17.969-17.5z" color="#000000" opacity="0.2"/>
 <path d="m48.317 31.053c-9.9411 0-18 8.0589-18 18 0 0.16859 0.0266 0.33252 0.0313 0.5 0.26696-9.708 8.1962-17.5 17.969-17.5 9.7725 0 17.702 7.792 17.969 17.5 0.005-0.16748 0.0313-0.33141 0.0313-0.5 0-9.9411-8.0589-18-18-18zm0.59375 8.4688c-1.3775 0.00002-2.5712 0.23695-3.5625 0.6875-0.99127 0.43772-1.7938 1.0824-2.4375 1.9062-0.63081 0.82393-1.0973 1.8102-1.4062 2.9688-0.2961 1.1458-0.43751 2.4148-0.4375 3.8438 0 0.17149-0.004 0.33176 0 0.5 0.0303-1.2223 0.17726-2.3367 0.4375-3.3438 0.30896-1.1586 0.77544-2.1448 1.4062-2.9688 0.64367-0.82389 1.4462-1.4685 2.4375-1.9062 0.99125-0.45055 2.185-0.68748 3.5625-0.6875 0.97838 0.00002 1.8526 0.1488 2.625 0.40625 0.7724 0.24462 1.4335 0.55682 2 0.96875 0.57929 0.41197 1.0642 0.89683 1.4375 1.4375 0.37331 0.52784 0.6635 1.077 0.84375 1.6562l5-1.375c-0.10032-0.30809-0.19095-0.61317-0.3125-0.90625l-4.6875 1.2812c-0.18025-0.57929-0.47044-1.1284-0.84375-1.6562-0.37335-0.54067-0.85821-1.0255-1.4375-1.4375-0.56646-0.41193-1.2276-0.72413-2-0.96875-0.77243-0.25745-1.6466-0.40623-2.625-0.40625zm-13.562 9.9062c-0.003 0.16739-0.0313 0.32992-0.0313 0.5 0 2.0469 0.27181 3.9312 0.8125 5.6562 0.55356 1.7251 1.38 3.2384 2.5 4.5 1.1329 1.2487 2.5562 2.2294 4.2812 2.9375 1.725 0.69517 3.7691 1.0312 6.125 1.0312 1.8023 0 3.3928-0.21855 4.7188-0.65625 1.3388-0.45057 2.472-1.0291 3.4375-1.75 0.96549-0.72092 1.7626-1.5602 2.4062-2.5 0.64365-0.93977 1.1634-1.8966 1.5625-2.875l-0.40625-0.15625c-0.33209 0.68222-0.70173 1.3676-1.1562 2.0312-0.6437 0.93977-1.4408 1.7791-2.4062 2.5-0.96554 0.72092-2.0987 1.2994-3.4375 1.75-1.326 0.4377-2.9165 0.65625-4.7188 0.65625-2.3559 0-4.4-0.33608-6.125-1.0312-1.7251-0.70805-3.1484-1.6888-4.2812-2.9375-1.12-1.2616-1.9464-2.7749-2.5-4.5-0.49559-1.5812-0.73971-3.3049-0.78125-5.1562zm-11.031 0.125c-0.003 0.16478 0 0.33442 0 0.5 0 13.255 10.745 24 24 24s24-10.745 24-24c0-0.16558 0.003-0.33522 0-0.5-0.26384 13.026-10.911 23.5-24 23.5s-23.736-10.474-24-23.5z" fill="#fff" color="#000000"/>
</svg>
