<svg height="96" width="96" xmlns="http://www.w3.org/2000/svg" xmlns:xlink="http://www.w3.org/1999/xlink">
 <defs>
  <linearGradient id="linearGradient15916">
   <stop stop-color="#b4b4b4"/>
   <stop stop-color="#b4b4b4" stop-opacity="0" offset="1"/>
  </linearGradient>
  <linearGradient x2="0" y1="90" y2="5.988" gradientUnits="userSpaceOnUse" id="linearGradient8339" gradientTransform="matrix(1.0959 0 0 1.0685 -4.442 -3.204)">
   <stop stop-color="#ebebeb"/>
   <stop stop-color="#fafafa" offset="1"/>
  </linearGradient>
  <radialGradient cy="360.77" r="21.302" xlink:href="#linearGradient15916" gradientUnits="userSpaceOnUse" id="radialGradient8416" cx="303.16" gradientTransform="matrix(0.44073 -0.24657 0.39119 0.69922 -196.61 -156.38)"/>
  <linearGradient x1="320.6" x2="293.81" xlink:href="#linearGradient15916" y1="345.4" y2="361.49" gradientUnits="userSpaceOnUse" id="linearGradient8419" gradientTransform="matrix(1 0 0 1 -224.68 -343.18)"/>
  <path d="m14.718 0.035034h-14.3l-0.418 5.477h0.445c0.32-4.102 0.672-4.82 4.512-4.82h1.367c0.473 0.074035 0.473 0.375 0.473 0.945v13.48c0 0.895-0.075 1.168-2.161 1.168h-0.703v0.5981c1.188-0.023 2.426-0.047 3.641-0.047 1.211 0 2.453 0.024 3.64 0.0471v-0.5981h-0.691c-2.055 0-2.129-0.273-2.129-1.168v-13.48c0-0.54699 0-0.84399 0.446-0.945h1.359c3.789 0 4.16 0.71399 4.48 4.82h0.446" id="SVGCleanerId_1"/>
  <path d="m27.144 16.02h-0.445c-0.543 3.672-0.863 5.668-5.219 5.668h-3.437c-0.989 0-1.036-0.125-1.036-0.977v-6.922h2.336c2.336 0 2.559 0.856 2.559 2.946h0.398v-6.442h-0.398c0 2.055-0.223 2.895-2.559 2.895h-2.336v-6.137c0-0.836 0.047-0.961 1.036-0.961h3.386c3.832 0 4.278 1.523 4.625 4.797h0.446l-0.594-5.477h-12.539v0.68c1.754 0 2.035 0 2.035 1.113v13.364c0 1.1131-0.277 1.1131-2.035 1.1131v0.5979h12.887" id="SVGCleanerId_2"/>
  <path d="m33.82 7.512 3.664-5.297c0.367-0.52 1.113-1.59 3.145-1.617v-0.598c-0.567 0.046997-1.508 0.046997-2.102 0.046997-0.816 0-1.832 0-2.449-0.046997v0.59802c0.793 0.073975 0.988 0.57001 0.988 0.969 0 0.29602-0.121 0.49603-0.297 0.742l-3.269 4.742-3.664-5.363c-0.172-0.27-0.196-0.348-0.196-0.422 0-0.22302 0.27-0.64502 1.09-0.66803v-0.59797c-0.793 0.046997-2.004 0.046997-2.82 0.046997-0.641 0-1.879 0-2.477-0.046997v0.59802c1.36 0 1.805 0.051026 2.352 0.82001l4.777 7.016-4.308 6.2931c-1.063 1.539-2.672 1.5659-3.145 1.5659v0.5981c0.566-0.047 1.508-0.047 2.102-0.047 0.668 0 1.832 0 2.449 0.047v-0.5981c-0.766-0.0739-0.988-0.57-0.988-0.969 0-0.32 0.121-0.496 0.246-0.672l3.961-5.781 4.308 6.332c0.195 0.2741 0.195 0.348 0.195 0.422 0 0.195-0.222 0.621-1.089 0.672v0.598c0.793-0.047 2.004-0.047 2.82-0.047 0.641 0 1.879 0 2.48 0.047v-0.598c-1.586 0-1.836-0.121-2.328-0.8199" id="SVGCleanerId_3"/>
 </defs>
 <path d="m16.059 3.1081c-7.049 0-12.719 5.6697-12.719 12.719v64.531c0 7.049 5.6697 12.719 12.719 12.719h64.188c7.049 0 12.719-5.6697 12.719-12.719v-35.013c-0.0367-3.8222-0.0417-6.3452-1.8012-9.5856l-16.206-29.842c-1.0788-1.8835-2.0313-2.8088-5.1346-2.8088z" fill-opacity="0.02"/>
 <path d="m16.497 3.7018c-6.9538 0-12.531 5.6087-12.531 12.562v63.656c0 6.9538 5.5775 12.531 12.531 12.531h63.312c6.9538 0 12.562-5.5775 12.562-12.531v-34.607c-0.0741-3.7145-0.0646-6.1373-1.775-9.2846l-16.222-29.849c-0.90306-1.708-1.7952-2.4773-4.5338-2.4773z" fill-opacity="0.039"/>
 <path d="m16.934 4.3268c-6.8585 0-12.375 5.5165-12.375 12.375v62.781c0 6.8585 5.5165 12.375 12.375 12.375h62.438c6.8585 0 12.375-5.5165 12.375-12.375v-34.169c-0.0596-3.6037-0.0554-5.964-1.7158-9.0186l-16.222-29.842c-0.57824-1.2184-1.5501-2.1266-3.906-2.1266z" fill-opacity="0.078"/>
 <path d="m17.372 4.9206c-6.7632 0-12.219 5.4555-12.219 12.219v61.906c0 6.7632 5.4555 12.219 12.219 12.219h61.562c6.7632 0 12.219-5.4555 12.219-12.219v-33.794c-0.0346-3.5165-0.0841-5.7358-1.6885-8.6896l-16.237-29.895c-0.43675-0.77203-1.3586-1.7467-3.3394-1.7467z" fill-opacity="0.157"/>
 <path d="m17.747 5.5143c-6.6418 0-11.969 5.3946-11.969 12.062v61.031c0 6.668 5.327 12.031 11.969 12.031h60.813c6.6418 0 11.969-5.3632 11.969-12.031l-0.06245-33.438c-0.0731-3.3855-0.11339-5.4702-1.6562-8.3125l-16.283-29.967c-0.544-0.7689-1.558-1.3403-2.625-1.3747z" fill="url(#linearGradient8339)"/>
 <path d="m5.7709 77.595v1.0133c0 6.668 5.3434 12.032 11.985 12.032h60.809c6.6418 0 11.985-5.3645 11.985-12.032v-1.0133c0 6.6681-5.3434 12.032-11.985 12.032h-60.809c-6.6418 0-11.985-5.3644-11.985-12.032z" fill-opacity="0.098"/>
 <path d="m57.817 5.6171v85.125h20.906c6.6418 0 11.969-5.3632 11.969-12.031v-61.031c0-0.92374-0.1187-1.7923-0.3125-2.6562 0.15863 0.78565 0.25 1.604 0.25 2.4375v27.812c-0.0731-3.3855-0.11339-5.4702-1.6562-8.3125l-16.282-29.968c-0.53945-0.76243-1.3896-1.1622-2.5938-1.375h-12.281z" fill="url(#linearGradient8419)"/>
 <path d="m71.473 4.4296c-7.4721 3.35-12.688 10.913-12.688 19.719 0 11.911 9.5167 21.562 21.281 21.562 4.3866 0 8.4555-1.3551 11.844-3.6562l-20.437-37.625z" stroke-width="0.1" fill="url(#radialGradient8416)"/>
 <path d="m72.4 6.5777c-0.341-0.3041-0.564-0.3884-0.564-0.3884s0.83487 0.58215-0.16423 2.3199c-3.6996 5.3693-2.6956 12.724 2.4663 16.827l13.888 11.014c0.78033 0.57546 0.96083 0.84746 1.2481 1.2895z" fill="#ccc"/>
 <path d="m72.648 6.9456c-0.26811-0.37128-0.48292-0.5133-0.48292-0.5133s0.74441 0.70007-0.21905 2.3758c-3.5676 5.1777-2.5994 12.27 2.3783 16.227l13.393 10.621c0.75249 0.55493 0.92655 0.81722 1.2036 1.2435z" fill="#fff"/>
 <g transform="matrix(1 0 0 1 -106.54 97.59)">
  <path d="m169.96-65.405c-0.96184 0.06091-1.9106 0.26236-2.625 0.125a0.31302 0.31302 0 0 0 -0.0625 0c-1.8222 0.02946-3.6673-0.03786-5.5-0.09375a0.31302 0.31302 0 0 0 -0.0313 0c-1.0392 0.13961-1.6712 0.93175-1.875 1.8125-0.20382 0.88075-0.069 1.8707 0.375 2.5938 0.27857 0.45092 0.6999 0.70886 1.125 0.8125s0.8765 0.08982 1.2812 0.09375c0.40475 0.0039 0.78315 0.02894 1.0625 0.125s0.4756 0.23313 0.625 0.59375a0.31302 0.31302 0 0 0 0.0313 0.0625l7.0312 10.25c-2.3554 3.352-4.5559 6.83-7 10.062-0.47179 0.60417-1.0777 0.76748-1.8125 0.875-0.73481 0.10752-1.5561 0.12337-2.3125 0.5a0.31302 0.31302 0 0 0 -0.0625 0.03125c-0.62725 0.47337-0.91318 1.2164-0.96875 1.9688-0.0556 0.75235 0.0925 1.5205 0.46875 2.125a0.31302 0.31302 0 0 0 0.0313 0.03125c0.36317 0.45277 0.92498 0.69086 1.5 0.75-0.12317 1.4393-0.85773 2.4553-1.9375 3.0938-1.145 0.67709-2.6788 0.90545-4.0938 0.71875a0.31302 0.31302 0 0 0 -0.0313 0h-5.2188v-8.9688c0.66305 0.03315 1.3608-0.02667 2-0.03125 0.71001-0.0051 1.2812 0.12491 1.6875 0.5 0.15309 0.59316 0.15198 1.4341 0.25 2.25 0.0512 0.42636 0.12323 0.84561 0.34375 1.2188 0.2164 0.36617 0.57794 0.66928 1.0625 0.84375 0.009 0.0033 0.0219-0.0032 0.0313 0 0.76754 0.29657 1.669 0.24667 2.375-0.125 0.70689-0.37214 1.2249-1.1009 1.1562-2.0312-0.00078-0.0106 0.00094-0.02059 0-0.03125-0.0425-3.6701 0.0864-7.384-0.0625-11.062a0.31302 0.31302 0 0 0 0 -0.0625c-0.14044-0.61912-0.54-1.0722-1.0312-1.3438-0.49125-0.27159-1.0927-0.39408-1.6562-0.34375-0.56356 0.05033-1.1087 0.25966-1.5312 0.625-0.42258 0.36534-0.69719 0.90662-0.6875 1.5625a0.31302 0.31302 0 0 0 0 0.09375c0.17806 0.64303 0.17801 1.1346 0.0625 1.5-0.11551 0.36543-0.34033 0.61864-0.65625 0.8125-0.63184 0.38772-1.654 0.45567-2.6875 0.28125a0.31302 0.31302 0 0 0 -0.15625 0c-0.32331 0.0977-0.40796 0.05571-0.4375 0.03125-0.0295-0.02446-0.0855-0.13193-0.0937-0.34375-0.016-0.4085 0.12125-1.0188 0.0313-1.5625v-0.0625-5.6875c3.0246 0.09986 6.0446-0.31701 8.8438 0.53125 0.01 0.003 0.0214-0.003 0.0313 0 1.0453 0.60232 1.4148 1.6001 1.625 2.7812 0.2145 1.2056 0.23906 2.5634 0.71875 3.7188a0.31302 0.31302 0 0 0 0.0313 0.03125c0.58433 0.91874 1.7581 1.2292 2.7812 1.0312 0.51159-0.09899 0.97978-0.32484 1.3438-0.6875 0.36397-0.36266 0.60602-0.87067 0.59375-1.4688a0.31302 0.31302 0 0 0 0 -0.03125c-0.35732-3.2821-0.61004-6.6284-1.125-9.9062a0.31302 0.31302 0 0 0 -0.0313 -0.0625c-0.2066-0.50304-0.51756-0.84816-0.90625-1.0625s-0.84285-0.28338-1.2812-0.3125c-0.8768-0.05824-1.7923 0.07103-2.4688 0a0.31302 0.31302 0 0 0 -0.0313 0h-13.438c-0.24764-2.526-0.23473-5.153-0.6875-7.6875a0.31302 0.31302 0 0 0 -0.0313 -0.0625c-0.19098-0.45973-0.48346-0.79564-0.84375-1s-0.78026-0.27602-1.1875-0.3125c-0.81448-0.07297-1.6524 0.04481-2.2812 0a0.31302 0.31302 0 0 0 -0.0313 0c-7.3434 0.02106-14.69-0.04203-22.031 0.03125a0.31302 0.31302 0 0 0 -0.0625 0c-0.861 0.1472-1.3507 0.76049-1.5938 1.4375-0.23926 0.66644-0.28197 1.4107-0.28125 2.0312 0.00001 0.0098-0.00003 0.02147 0 0.03125-0.1653 2.6992-0.51102 5.4587-0.5625 8.1875a0.31302 0.31302 0 0 0 0 0.0625c0.4587 2.4489 4.6654 2.3807 5-0.09375 0.17932-1.2784 0.18695-2.9822 0.59375-4.2812 0.2034-0.64952 0.50733-1.1905 0.9375-1.5312 0.42403-0.33586 0.9951-0.49957 1.8438-0.40625 0.01 0.0022 0.0214-0.002 0.0313 0 0.35323 0.07135 0.72186 0.04395 1.125 0 0.41434-0.04518 0.84243-0.12103 1.1875-0.125 0.34506-0.004 0.60177 0.07422 0.6875 0.15625 0.0429 0.04102 0.0493 0.0802 0.0625 0.1875s0.004 0.26826-0.0625 0.5a0.31302 0.31302 0 0 0 0 0.09375v21c-0.62254 0.0998-1.4282 0.007-2.25 0.03125-0.45538 0.01346-0.89695 0.06427-1.3125 0.25s-0.79545 0.53733-1.0312 1.0312c-0.26531 0.70164-0.36991 1.5892-0.15625 2.375 0.21366 0.78585 0.77801 1.5055 1.7188 1.6562a0.31302 0.31302 0 0 0 0.0625 0c4.3324-0.05603 8.7252 0.02641 13.062-0.03125a0.31302 0.31302 0 0 0 0.0937 0c0.91888-0.2742 1.4148-1.0983 1.5625-1.9375 0.14775-0.8392-0.00039-1.7277-0.40625-2.4062a0.31302 0.31302 0 0 0 -0.0313 -0.03125c-0.58615-0.78291-1.4835-0.91377-2.3125-0.90625-0.73789 0.0067-1.4525 0.08721-2-0.03125v-21.875c0.95047 0.03855 1.9783-0.05669 2.9062 0 1.0215 0.06241 1.8747 0.3116 2.4688 1.0625 0.1323 0.67989 0.44053 1.4375 0.53125 2 0.0475 0.29463 0.0438 0.50342-0.0313 0.625s-0.22974 0.21821-0.625 0.25a0.31302 0.31302 0 0 0 -0.125 0.03125c-0.69087 0.40583-1.0151 1.1211-1.0938 1.8438-0.0787 0.72269 0.0488 1.4834 0.25 2.0938a0.31302 0.31302 0 0 0 0.0313 0.0625c0.34709 0.67229 0.98671 0.97487 1.625 1.0938 0.53023 0.09875 1.0494 0.07407 1.5312 0.0625v21.875c-0.60286-0.04742-1.2606-0.05097-1.875 0.15625-0.72054 0.243-1.3695 0.79702-1.5 1.6875-0.001 0.01033 0.001 0.02083 0 0.03125-0.13828 0.67432-0.12152 1.452 0.15625 2.125 0.2819 0.68298 0.87449 1.259 1.75 1.3125a0.31302 0.31302 0 0 0 0.0313 0c7.3861 0.05204 14.798 0.0522 22.188 0a0.31302 0.31302 0 0 0 0.0625 0c0.51287-0.09298 0.9093-0.31218 1.1875-0.625s0.42858-0.69883 0.53125-1.0938c0.20535-0.78984 0.2121-1.6725 0.34375-2.3125a0.31302 0.31302 0 0 0 0 -0.03125l0.71875-5.0312c0.64331-0.01506 1.4375 0.12079 2.25 0.09375 0.4513-0.01502 0.9073-0.07975 1.3125-0.28125s0.74765-0.56052 0.96875-1.0625a0.31302 0.31302 0 0 0 0 -0.03125c0.25596-0.72537 0.32727-1.5752 0.0937-2.3438-0.19066-0.62752-0.62667-1.209-1.25-1.5l4.5938-6.6562c1.5464 2.3206 3.2475 4.6514 4.625 6.9062-0.59421 0.39339-0.93813 1.0434-1.0312 1.7188-0.10927 0.79245 0.0581 1.6339 0.40625 2.2812a0.31302 0.31302 0 0 0 0.0313 0.03125c0.6873 0.86824 1.7027 0.99154 2.6562 0.9375 0.95352-0.05404 1.9141-0.23754 2.625-0.09375a0.31302 0.31302 0 0 0 0.0937 0c1.9229-0.18048 4.0164 0.35338 6.0625-0.09375a0.31302 0.31302 0 0 0 0.0625 -0.03125c0.81843-0.35397 1.2385-1.1354 1.3438-1.9375 0.10529-0.80208-0.0622-1.6414-0.4375-2.2812a0.31302 0.31302 0 0 0 -0.0313 -0.03125c-0.46638-0.67468-1.1929-0.82961-1.875-0.875-0.65915-0.04386-1.2948-0.03494-1.7812-0.15625-2.8684-4.1339-5.7052-8.2927-8.5625-12.438 2.0532-2.898 3.9885-5.887 6.125-8.6875 0.24576-0.31836 0.55334-0.48681 0.9375-0.59375s0.82037-0.14286 1.2812-0.1875c0.46088-0.04464 0.93549-0.10112 1.375-0.28125s0.85177-0.50352 1.0938-1.0312c0.26345-0.70308 0.36896-1.5879 0.15625-2.375-0.21271-0.78706-0.77509-1.5129-1.7188-1.6562a0.31302 0.31302 0 0 0 -0.0625 0c-2.7534 0.05634-5.5638 0.06784-8.3125 0a0.31302 0.31302 0 0 0 -0.0625 0c-0.9669 0.18824-1.5296 0.95359-1.7188 1.7812-0.18914 0.82766-0.0573 1.734 0.28125 2.4375a0.31302 0.31302 0 0 0 0.0937 0.125c0.51896 0.38428 0.83256 0.64886 0.875 0.78125 0.0212 0.0662 0.0119 0.14147-0.0625 0.28125s-0.23245 0.33631-0.5 0.59375a0.31302 0.31302 0 0 0 -0.0313 0.03125l-2.875 4.1562c-1.1868-1.7535-2.4519-3.5128-3.5625-5.2188 0.63485-0.38332 0.95842-1.0571 1.0625-1.75 0.12041-0.80163-0.0203-1.6529-0.375-2.3125a0.31302 0.31302 0 0 0 -0.0313 -0.03125c-0.69233-0.87266-1.7267-0.99834-2.6875-0.9375z" opacity="0.04"/>
  <path d="m161.87-64.186a0.96402 0.96402 0 0 0 -0.84375 0.96875v1a0.96402 0.96402 0 0 0 0.96875 0.96875c1.1287 0 1.8103 0.0335 2.1875 0.15625 0.37719 0.12275 0.57041 0.28376 0.96875 0.84375l7.6875 11.219-6.875 10.031v0.03125c-1.5326 2.1989-3.7909 2.2188-4.5312 2.2188a0.96402 0.96402 0 0 0 -0.96875 0.96875v1a0.96402 0.96402 0 0 0 1.0625 0.96875c0.29845-0.02478 0.77262-0.02326 1.1875-0.03125-0.36501 1.9345-0.79553 3.4885-1.5938 4.4062-0.96513 1.1097-2.5466 1.75-5.7812 1.75h-5.7812c-0.36713 0-0.60251-0.01107-0.75-0.03125-0.0135-0.12804-0.0313-0.32153-0.0313-0.625v-10.688h2.9688c1.8496 0 2.5107 0.2989 2.8438 0.75 0.33303 0.4511 0.5 1.4948 0.5 3.2188a0.96402 0.96402 0 0 0 0.96875 0.96875h0.65625a0.96402 0.96402 0 0 0 0.96875 -0.96875v-10.812a0.96402 0.96402 0 0 0 -0.96875 -0.96875h-0.65625a0.96402 0.96402 0 0 0 -0.96875 0.96875c0 1.6939-0.14094 2.6899-0.46875 3.125-0.32781 0.43505-1.0225 0.75-2.875 0.75h-2.9688v-9.3438c0-0.31095 0.0167-0.50228 0.0313-0.625 0.14527-0.02102 0.38527-0.03125 0.75-0.03125h5.6875c3.0958 0 4.513 0.58502 5.3438 1.625 0.83075 1.04 1.1796 2.8659 1.4688 5.5938a0.96402 0.96402 0 0 0 0.96875 0.875h0.75a0.96402 0.96402 0 0 0 0.96875 -1.0625l-1-9.2188a0.96402 0.96402 0 0 0 -0.96875 -0.875h-17.219l-0.625-8.1562a0.96402 0.96402 0 0 0 -0.96875 -0.90625h-24.062a0.96402 0.96402 0 0 0 -0.96875 0.90625l-0.71875 9.2188a0.96402 0.96402 0 0 0 0.96875 1.0312h0.75a0.96402 0.96402 0 0 0 0.96875 -0.90625c0.26749-3.4288 0.62733-5.2758 1.3438-6.0938 0.35821-0.40897 0.81146-0.65063 1.6562-0.84375 0.84479-0.19312 2.0397-0.28125 3.625-0.28125h2.0938c0.007 0.08694 0.0313 0.23716 0.0313 0.625v22.688c0 0.36437-0.008 0.63027-0.0313 0.71875-0.0227 0.08848 0.0106 0.004-0.0313 0.03125-0.0837 0.05444-0.88074 0.25-2.5938 0.25h-1.1875a0.96402 0.96402 0 0 0 -0.96875 0.96875v1a0.96402 0.96402 0 0 0 1 0.96875c1.994-0.03878 4.0564-0.0625 6.0938-0.0625 2.0306 0 4.1015 0.02373 6.0938 0.0625a0.96402 0.96402 0 0 0 1 -0.96875v-1a0.96402 0.96402 0 0 0 -0.96875 -0.96875h-1.1562c-1.6863 0-2.4774-0.1945-2.5625-0.25-0.0426-0.02775-0.008 0.02632-0.0313-0.0625-0.0232-0.08882-0.0313-0.32536-0.0313-0.6875v-22.688c0-0.38388 0.0224-0.54603 0.0313-0.625h2.0312c1.5503 0 2.725 0.09095 3.5625 0.28125 0.83749 0.1903 1.3246 0.44076 1.6875 0.84375 0.63012 0.69969 0.95953 2.345 1.2188 4.9062h-1.125a0.96402 0.96402 0 0 0 -0.96875 0.96875v1.125a0.96402 0.96402 0 0 0 0.96875 0.96875c1.4758 0 2.293 0.08513 2.375 0.125 0.0259 0.07709 0.0625 0.35194 0.0625 0.78125v22.5c0 0.42995-0.0366 0.70391-0.0625 0.78125-0.0801 0.03902-0.89585 0.125-2.375 0.125a0.96402 0.96402 0 0 0 -0.96875 0.96875v1a0.96402 0.96402 0 0 0 0.96875 0.96875h21.688a0.96402 0.96402 0 0 0 0.96875 -0.84375l1.1875-8.3125c1.1364 0.0049 2.6766 0.03103 3.5 0.09375a0.96402 0.96402 0 0 0 1.0312 -0.96875v-1a0.96402 0.96402 0 0 0 -0.875 -0.96875c-0.44181-0.04262-0.57136-0.14442-0.65625-0.25-0.0849-0.10558-0.125-0.2774-0.125-0.4375 0-0.30483 0.017-0.27836 0.21875-0.5625a0.96402 0.96402 0 0 0 0 -0.03125l5.875-8.5625 6.4688 9.5a0.96402 0.96402 0 0 0 0.0313 0.03125c0.0514 0.07225 0.0381 0.05281 0.0625 0.09375-0.0963 0.07854-0.30756 0.18721-0.84375 0.21875a0.96402 0.96402 0 0 0 -0.90625 0.96875v1a0.96402 0.96402 0 0 0 1.0312 0.96875c1.2696-0.07525 3.2752-0.0625 4.6562-0.0625 1.0887 0 3.2272-0.0077 4.125 0.0625a0.96402 0.96402 0 0 0 1.0312 -0.96875v-1a0.96402 0.96402 0 0 0 -0.96875 -0.96875c-1.3107 0-2.0012-0.07399-2.3125-0.1875-0.31126-0.11351-0.42678-0.23333-0.8125-0.78125l-8.8125-12.812 5.8125-8.375c0.63102-0.89412 1.4208-2.3029 4.5-2.3438a0.96402 0.96402 0 0 0 0.96875 -0.96875v-1a0.96402 0.96402 0 0 0 -1.0625 -0.96875c-0.87686 0.07268-2.4472 0.09375-3.4375 0.09375-1.3664 0-3.0952-0.02006-4.0625-0.09375a0.96402 0.96402 0 0 0 -1.0312 0.96875v1a0.96402 0.96402 0 0 0 0.875 0.96875c0.46999 0.04384 0.58113 0.15442 0.65625 0.25 0.0751 0.09558 0.125 0.25566 0.125 0.4375 0 0.23532-0.039 0.30522-0.3125 0.6875l-4.7188 6.8438-5.375-7.875h0.0313c-0.0462-0.07249-0.0313-0.0728-0.0625-0.125 0.10735-0.08905 0.29479-0.2051 0.78125-0.21875a0.96402 0.96402 0 0 0 0.9375 -0.96875v-1a0.96402 0.96402 0 0 0 -1.0312 -0.96875c-1.2836 0.07608-3.321 0.09375-4.6875 0.09375-1.0701 0-3.181-0.02201-4.0938-0.09375a0.96402 0.96402 0 0 0 -0.1875 0z" opacity="0.06"/>
  <g opacity="0.12" transform="matrix(1.683 0 0 1.683 119.18 -63.21)">
   <use xlink:href="#SVGCleanerId_1"/>
   <use xlink:href="#SVGCleanerId_2"/>
   <use xlink:href="#SVGCleanerId_3"/>
  </g>
  <g fill="#333" transform="matrix(1.683 0 0 1.683 119.18 -64.21)">
   <use xlink:href="#SVGCleanerId_1"/>
   <use xlink:href="#SVGCleanerId_2"/>
   <use xlink:href="#SVGCleanerId_3"/>
  </g>
 </g>
</svg>
