<svg height="96" width="96" xmlns="http://www.w3.org/2000/svg" xmlns:xlink="http://www.w3.org/1999/xlink">
 <defs>
  <linearGradient id="linearGradient15916">
   <stop stop-color="#b4b4b4"/>
   <stop stop-color="#b4b4b4" stop-opacity="0" offset="1"/>
  </linearGradient>
  <radialGradient cy="360.77" r="21.302" xlink:href="#linearGradient15916" gradientUnits="userSpaceOnUse" id="radialGradient8416" cx="303.16" gradientTransform="matrix(0.44073 -0.24657 0.39119 0.69922 -196.61 -156.38)"/>
  <linearGradient x1="320.6" x2="293.81" xlink:href="#linearGradient15916" y1="345.4" y2="361.49" gradientUnits="userSpaceOnUse" id="linearGradient8419" gradientTransform="matrix(1 0 0 1 -224.68 -343.18)"/>
  <filter color-interpolation-filters="sRGB" id="filter3798">
   <feGaussianBlur stdDeviation="1.76445"/>
  </filter>
  <clipPath id="clipPath3794">
   <path d="m-98 6c-3.324 0-6 2.676-6 6v72c0 3.324 2.676 6 6 6h72c3.324 0 6-2.676 6-6v-72c0-3.324-2.676-6-6-6h-72zm46.031 12.5c2.8049 0.26798 4.1687 1.9943 5.6562 4.375l2.2188 4.2188 3.5-2.3438-6.5625 12.375-14.062 0.03125 4.4062-2.5625c-1.242-3.116-2.8936-6.6821-4.9688-9.7812-1.8579-2.7746-4.1119-5.1997-5.8125-6.2812l15.625-0.031zm-20.343 1.5c4.134 0.08768 6.7522 3.9378 8.5312 6.5625l-5.4375 11.156-12-8.0312 5.8125-9.0938c1.124-0.444 2.141-0.613 3.095-0.593zm33.968 16.156 5.469 11.844c0.1771 2.9846-4.3458 7.1261-7.1562 7.0938l-4.8125-0.03125-5.5938-11.125 12.094-7.7812zm-40.094 3.032 7.469 11.624-3.781-1.968-6.031 12.906c-0.85055 2.4291-0.90889 4.9375 0.0625 7.2812-6.7978-9.441-12.538-14.172-8-23.875l1.406-2.968-4.188-2.282 13.062-0.718zm25.656 13.906 0.03125 4.4688 13.562-0.03125c2.4224-0.27324 4.5558-1.3107 6.0938-3.2812-4.9086 10.685-6.3156 18.245-16.5 18.25h-3.1562l-0.03125 5-6.4375-12.125 6.4375-12.281zm-10.156 4-0.09375 15h-12.344c-2.5892-1.1624-4.0619-7.3374-2.7812-10l2.1875-4.5312 13.031-0.46875z"/>
  </clipPath>
  <linearGradient x2="0" y1="90" y2="5.988" gradientUnits="userSpaceOnUse" id="linearGradient8338" gradientTransform="matrix(1.0823 0 0 1.0969 -2.63 -3.427)">
   <stop stop-color="#e5e6b5"/>
   <stop stop-color="#f6f6dc" offset="1"/>
  </linearGradient>
  <linearGradient x2="0" y1="103.96" y2="24.04" gradientUnits="userSpaceOnUse" id="linearGradient8354" gradientTransform="matrix(0.75256 0 0 0.80087 -103.81 -43.932)">
   <stop stop-color="#4f821e"/>
   <stop stop-color="#639632" offset="1"/>
  </linearGradient>
 </defs>
 <path d="m16.059 3.1081c-7.049 0-12.719 5.6697-12.719 12.719v64.531c0 7.049 5.6697 12.719 12.719 12.719h64.188c7.049 0 12.719-5.6697 12.719-12.719v-35.013c-0.0367-3.8222-0.0417-6.3452-1.8012-9.5856l-16.206-29.842c-1.0788-1.8835-2.0313-2.8088-5.1346-2.8088z" fill-opacity="0.02"/>
 <path d="m16.497 3.7018c-6.9538 0-12.531 5.6087-12.531 12.562v63.656c0 6.9538 5.5775 12.531 12.531 12.531h63.312c6.9538 0 12.562-5.5775 12.562-12.531v-34.607c-0.0741-3.7145-0.0646-6.1373-1.775-9.2846l-16.222-29.849c-0.90306-1.708-1.7952-2.4773-4.5338-2.4773z" fill-opacity="0.039"/>
 <path d="m16.934 4.3268c-6.8585 0-12.375 5.5165-12.375 12.375v62.781c0 6.8585 5.5165 12.375 12.375 12.375h62.438c6.8585 0 12.375-5.5165 12.375-12.375v-34.169c-0.0596-3.6037-0.0554-5.964-1.7158-9.0186l-16.222-29.842c-0.57824-1.2184-1.5501-2.1266-3.906-2.1266z" fill-opacity="0.078"/>
 <path d="m17.372 4.9206c-6.7632 0-12.219 5.4555-12.219 12.219v61.906c0 6.7632 5.4555 12.219 12.219 12.219h61.562c6.7632 0 12.219-5.4555 12.219-12.219v-33.794c-0.0346-3.5165-0.0841-5.7358-1.6885-8.6896l-16.237-29.895c-0.43675-0.77203-1.3586-1.7467-3.3394-1.7467z" fill-opacity="0.157"/>
 <path d="m17.75 5.5c-6.642 0-11.969 5.395-11.969 12.062l0.0002 61.032c0 6.668 5.3268 12.031 11.969 12.031h60.812c6.642 0 11.969-5.363 11.969-12.031l-0.062-33.438c-0.073-3.385-0.114-5.47-1.657-8.312l-16.281-29.969c-0.544-0.7692-1.558-1.3406-2.625-1.375h-52.156z" fill="url(#linearGradient8338)"/>
 <path d="m5.7709 77.595v1.0133c0 6.668 5.3434 12.032 11.985 12.032h60.809c6.6418 0 11.985-5.3645 11.985-12.032v-1.0133c0 6.6681-5.3434 12.032-11.985 12.032h-60.809c-6.6418 0-11.985-5.3644-11.985-12.032z" fill-opacity="0.098"/>
 <path d="m57.817 5.6171v85.125h20.906c6.6418 0 11.969-5.3632 11.969-12.031v-61.031c0-0.92374-0.1187-1.7923-0.3125-2.6562 0.15863 0.78565 0.25 1.604 0.25 2.4375v27.812c-0.0731-3.3855-0.11339-5.4702-1.6562-8.3125l-16.282-29.968c-0.53945-0.76243-1.3896-1.1622-2.5938-1.375h-12.281z" fill="url(#linearGradient8419)"/>
 <path d="m71.473 4.4296c-7.4721 3.35-12.688 10.913-12.688 19.719 0 11.911 9.5167 21.562 21.281 21.562 4.3866 0 8.4555-1.3551 11.844-3.6562l-20.437-37.625z" stroke-width="0.1" fill="url(#radialGradient8416)"/>
 <path d="m72.4 6.5777c-0.341-0.3041-0.564-0.3884-0.564-0.3884s0.83487 0.58215-0.16423 2.3199c-3.6996 5.3693-2.6956 12.724 2.4663 16.827l13.888 11.014c0.78033 0.57546 0.96083 0.84746 1.2481 1.2895z" fill="#ccc"/>
 <path d="m72.648 6.9456c-0.26811-0.37128-0.48292-0.5133-0.48292-0.5133s0.74441 0.70007-0.21905 2.3758c-3.5676 5.1777-2.5994 12.27 2.3783 16.227l13.393 10.621c0.75249 0.55493 0.92655 0.81722 1.2036 1.2435z" fill="#fff"/>
 <g transform="matrix(1 0 0 1 105.76 41.09)">
  <path d="m-51.969 18.5-15.625 0.03125c1.7006 1.0815 3.9546 3.5067 5.8125 6.2812 2.0752 3.0991 3.7267 6.6652 4.9688 9.7812l-4.4062 2.5625 14.062-0.03125 6.5625-12.375-3.5 2.3438-2.2188-4.2188c-1.4876-2.3807-2.8513-4.107-5.6562-4.375zm-20.343 1.5c-0.954-0.02023-1.9707 0.14865-3.0938 0.59375l-5.8125 9.0938 12 8.0312 5.4375-11.156c-1.779-2.625-4.398-6.475-8.531-6.563zm33.969 16.156-12.094 7.7812 5.5938 11.125 4.8125 0.03125c2.809 0.033 7.332-4.108 7.155-7.093l-5.469-11.844zm-40.095 3.032-13.062 0.718l4.1875 2.2812-1.4062 2.9688c-4.5383 9.7026 1.2022 14.434 8 23.875-0.97139-2.3438-0.91305-4.8521-0.0625-7.2812l6.0312-12.906 3.7812 1.9688-7.4688-11.625zm25.656 13.906-6.4375 12.281 6.4375 12.125 0.03125-5h3.1562c10.184-0.0046 11.591-7.5645 16.5-18.25-1.538 1.9706-3.6714 3.008-6.0938 3.2812l-13.561 0.031-0.031-4.468zm-10.156 4-13.031 0.46875-2.1875 4.5312c-1.2806 2.6626 0.19208 8.8376 2.7812 10h12.344l0.09375-15z" stroke-width="2" clip-path="url(#clipPath3794)" fill="none" stroke="#fff" filter="url(#filter3798)" opacity="0.6" transform="matrix(1 0 0 1 4.949 -40.676)"/>
  <path d="m-47.02-22.176-15.625 0.03125c1.7006 1.0815 3.9546 3.5067 5.8125 6.2812 2.0752 3.0991 3.7267 6.6652 4.9688 9.7812l-4.4062 2.5625 14.062-0.03125 6.5625-12.375-3.5 2.3438-2.2188-4.2188c-1.4876-2.3807-2.8513-4.107-5.6562-4.375zm-19.344 0.5c-0.954-0.02023-1.9708 0.14865-3.0938 0.59375l-6.8125 10.094 12 8.0312 6.4375-12.156c-1.7791-2.6247-4.3973-6.4748-8.5312-6.5625zm32.969 17.156-12.094 7.7812 5.5938 12.125 4.8125 0.03125c2.8105 0.03231 7.3334-4.1092 7.1562-7.0938l-5.4688-12.844zm-40.094 3.0312-13.062 0.71875 4.1875 2.2813-1.4062 2.9688c-4.5383 9.7026 1.2022 14.434 8 23.875-0.97139-2.3438-0.91305-4.8521-0.0625-7.2812l6.0312-12.906 3.7812 1.9688-7.4688-11.625zm25.656 13.906-6.4375 12.281 6.4375 12.125 0.0313-5h3.1562c10.184-0.0046 11.591-7.5645 16.5-18.25-1.538 1.9706-3.6714 3.008-6.0938 3.2812l-13.562 0.03125-0.0313-4.4688zm-10.156 4-14.031 0.46875-2.1875 4.5312c-1.2806 2.6626 0.19209 8.8376 2.7812 10h13.344l0.0937-15z" fill="url(#linearGradient8354)"/>
  <path d="m-47.02-22.176-15.625 0.03125c0.39959 0.25413 0.83287 0.6104 1.2812 1l14.344-0.03125c2.8049 0.26798 4.1687 1.9943 5.6562 4.375l2.2188 4.2188 2.6875-1.7812 0.8125-1.5625-3.5 2.3438-2.2188-4.2188c-1.4876-2.3807-2.8513-4.107-5.6562-4.375zm-19.344 0.5c-0.954-0.02023-1.9708 0.14865-3.0938 0.59375l-6.8125 10.094 0.46875 0.3125 6.3438-9.4062c1.123-0.4451 2.1398-0.61398 3.0938-0.59375 3.913 0.08299 6.448 3.5301 8.2188 6.125l0.3125-0.5625c-1.7791-2.6247-4.3973-6.4748-8.5312-6.5625zm14.156 15.781-4.0625 2.375h1.7188l2.6875-1.5625c-0.10512-0.26374-0.23275-0.54287-0.34375-0.8125zm18.812 1.375-12.094 7.7812 0.34375 0.78125 11.75-7.5625 5.375 12.656c0.0542-0.28028 0.10952-0.5468 0.0937-0.8125l-5.4688-12.844zm-40.094 3.0312-13.062 0.71875 1.6562 0.90625 11.406-0.625 6.5 10.125 0.96875 0.5-7.4688-11.625zm-9.25 3.7812-1.0312 2.1875c-1.2332 2.6365-1.6935 4.9034-1.5938 7 0.0714-1.8179 0.55372-3.7765 1.5938-6l1.4062-2.9688-0.375-0.21875zm34.906 10.125-6.4375 12.281 0.25 0.5 6.1875-11.781v-1zm19.688 1.1562c-1.538 1.9706-3.6714 3.008-6.0938 3.2812l-13.562 0.03125v1l13.562-0.03125c2.0015-0.22576 3.8159-0.97928 5.25-2.3438 0.28421-0.64654 0.53487-1.2651 0.84375-1.9375zm-29.844 2.8438-14.031 0.46875-2.1875 4.5312c-0.37588 0.7815-0.49463 1.8601-0.4375 3.0312 0.0441-0.77425 0.17307-1.4815 0.4375-2.0312l2.1875-4.5312 14.031-0.46875v-1zm-18.469 8.6562c-0.0582 0.87064 0.0111 1.7391 0.1875 2.5938 0.17225 0.23537 0.32621 0.44614 0.5 0.6875-0.44374-1.0707-0.65087-2.1652-0.6875-3.2812z" opacity="0.3"/>
  <path d="m-62.645-21.145c1.7006 1.0815 3.9546 3.5067 5.8125 6.2812 1.8995 2.8368 3.4246 6.0527 4.625 8.9688l0.34375-0.1875c-1.242-3.116-2.8936-6.6821-4.9688-9.7812-1.4213-2.1226-3.0714-4.0128-4.5312-5.2812h-1.2812zm27 6.2188-0.8125 0.5625-5.75 10.812-12.344 0.03125-1.7188 1 14.062-0.03125 6.5625-12.375zm-22.5 0.375-6.125 11.594-11.531-7.7188-0.46875 0.6875 12 8.0312 6.4375-12.156c-0.0951-0.14032-0.21249-0.29094-0.3125-0.4375zm-26.75 14.687-1.6562 0.09375 3.8125 2.0625 0.375-0.78125-2.5312-1.375zm39.75 3.9063-0.34375 0.21875 5.5938 12.125 4.8125 0.03125c2.8105 0.03231 7.3334-4.1092 7.1562-7.0938l-0.0937-0.1875c-0.5547 2.868-4.5022 6.3107-7.0625 6.2812l-4.8125-0.03125-5.25-11.344zm-24.656 4.125-6.0312 12.906c-0.46201 1.3195-0.66855 2.6728-0.625 4 0.067-1.0016 0.27772-2.0082 0.625-3l6.0312-12.906 3.7812 1.9688-0.96875-1.5-2.8125-1.4688zm-15.562 3.3125c-0.24009 6.1147 4.3538 10.598 9.5938 17.875-0.23002-0.555-0.3823-1.1173-0.5-1.6875-4.7346-6.4694-8.8358-10.766-9.0938-16.188zm57.219 3.0938c-0.26723 0.34239-0.54218 0.65057-0.84375 0.9375-4.2323 9.628-6.1128 16.308-15.656 16.312h-3.1562v1h3.1562c10.184-0.0046 11.591-7.5645 16.5-18.25zm-46.5 9.875c-0.16931 2.9754 1.1642 7.0464 3.2188 7.9688h13.344v-1h-13.344c-1.8292-0.82123-3.0812-4.1498-3.2188-6.9688zm20.625 0.75-0.25 0.5 6.4375 12.125v-1l-6.1875-11.625z" fill="#fff" opacity="0.6"/>
 </g>
</svg>
