<svg height="96" width="96" xmlns="http://www.w3.org/2000/svg">
 <defs>
  <linearGradient x2="0" y1="90" y2="5.988" gradientUnits="userSpaceOnUse" id="linearGradient8339" gradientTransform="matrix(1.0959 0 0 1.0685 -4.442 -3.204)">
   <stop stop-color="#ebebeb"/>
   <stop stop-color="#fafafa" offset="1"/>
  </linearGradient>
  <radialGradient cy="360.77" r="21.302" gradientUnits="userSpaceOnUse" id="radialGradient8416" cx="303.16" gradientTransform="matrix(0.44073 -0.24657 0.39119 0.69922 -196.61 -156.38)">
   <stop stop-color="#b4b4b4"/>
   <stop stop-color="#b4b4b4" stop-opacity="0" offset="1"/>
  </radialGradient>
  <radialGradient cy="90.17" r="42" gradientUnits="userSpaceOnUse" id="radialGradient22971" cx="48" gradientTransform="matrix(1.1573 0 0 0.99591 217.41 -166.15)">
   <stop stop-color="#fff"/>
   <stop stop-color="#fff" stop-opacity="0" offset="1"/>
  </radialGradient>
  <linearGradient x2="0" y1="62.02" y2="26.414" gradientUnits="userSpaceOnUse" id="linearGradient22227" gradientTransform="matrix(1.3333 0 0 1.3333 -123.07 -124.09)">
   <stop stop-color="#bababa"/>
   <stop stop-color="#d2d2d2" offset="1"/>
  </linearGradient>
 </defs>
 <path d="m16.059 3.1081c-7.049 0-12.719 5.6697-12.719 12.719v64.531c0 7.049 5.6697 12.719 12.719 12.719h64.188c7.049 0 12.719-5.6697 12.719-12.719v-35.013c-0.0367-3.8222-0.0417-6.3452-1.8012-9.5856l-16.206-29.842c-1.0788-1.8835-2.0313-2.8088-5.1346-2.8088z" fill-opacity="0.02"/>
 <path d="m16.497 3.7018c-6.9538 0-12.531 5.6087-12.531 12.562v63.656c0 6.9538 5.5775 12.531 12.531 12.531h63.312c6.9538 0 12.562-5.5775 12.562-12.531v-34.607c-0.0741-3.7145-0.0646-6.1373-1.775-9.2846l-16.222-29.849c-0.90306-1.708-1.7952-2.4773-4.5338-2.4773z" fill-opacity="0.039"/>
 <path d="m16.934 4.3268c-6.8585 0-12.375 5.5165-12.375 12.375v62.781c0 6.8585 5.5165 12.375 12.375 12.375h62.438c6.8585 0 12.375-5.5165 12.375-12.375v-34.169c-0.0596-3.6037-0.0554-5.964-1.7158-9.0186l-16.222-29.842c-0.57824-1.2184-1.5501-2.1266-3.906-2.1266z" fill-opacity="0.078"/>
 <path d="m17.372 4.9206c-6.7632 0-12.219 5.4555-12.219 12.219v61.906c0 6.7632 5.4555 12.219 12.219 12.219h61.562c6.7632 0 12.219-5.4555 12.219-12.219v-33.794c-0.0346-3.5165-0.0841-5.7358-1.6885-8.6896l-16.237-29.895c-0.43675-0.77203-1.3586-1.7467-3.3394-1.7467z" fill-opacity="0.157"/>
 <path d="m17.747 5.5143c-6.6418 0-11.969 5.3946-11.969 12.062v61.031c0 6.668 5.327 12.031 11.969 12.031h60.813c6.6418 0 11.969-5.3632 11.969-12.031l-0.06245-33.438c-0.0731-3.3855-0.11339-5.4702-1.6562-8.3125l-16.283-29.967c-0.544-0.7689-1.558-1.3403-2.625-1.3747z" fill="url(#linearGradient8339)"/>
 <path d="m236.96-76.351c-3.324 0-6-2.676-6-6v-2-68-2c0-0.33472 0.0413-0.6507 0.0937-0.96875 0.0487-0.2956 0.097-0.59691 0.1875-0.875 0.01-0.0304 0.0209-0.0636 0.0313-0.0937 0.0989-0.28777 0.23488-0.54745 0.375-0.8125 0.14459-0.27351 0.31562-0.53562 0.5-0.78125s0.37378-0.47347 0.59375-0.6875c0.43995-0.42806 0.94291-0.81453 1.5-1.0938 0.27854-0.13961 0.57347-0.24695 0.875-0.34375-0.2562 0.10022-0.48671 0.23627-0.71875 0.375-0.007 0.004-0.0239-0.004-0.0313 0-0.0319 0.0193-0.0623 0.0425-0.0937 0.0625-0.1204 0.0767-0.23102 0.16351-0.34375 0.25-0.10617 0.0808-0.21328 0.16111-0.3125 0.25-0.17793 0.16143-0.34746 0.34539-0.5 0.53125-0.10758 0.13026-0.21839 0.26529-0.3125 0.40625-0.0251 0.0384-0.0385 0.0859-0.0625 0.125-0.0648 0.10303-0.13023 0.20452-0.1875 0.3125-0.10101 0.19471-0.20567 0.4157-0.28125 0.625-0.008 0.0218-0.0236 0.0406-0.0313 0.0625-0.0318 0.092-0.0358 0.18683-0.0625 0.28125-0.0303 0.10662-0.0704 0.20303-0.0937 0.3125-0.0729 0.34151-0.125 0.69821-0.125 1.0625v2 68 2c0 2.7818 2.2182 5 5 5h2 68 2c2.7818 0 5-2.2182 5-5v-2-68-2c0-0.36429-0.0521-0.72099-0.125-1.0625-0.0442-0.20689-0.0884-0.39766-0.15625-0.59375-0.008-0.0219-0.0233-0.0407-0.0313-0.0625-0.0627-0.17374-0.13838-0.36745-0.21875-0.53125-0.0416-0.0828-0.079-0.16995-0.125-0.25-0.0546-0.0972-0.12677-0.18835-0.1875-0.28125-0.0941-0.14096-0.20492-0.27599-0.3125-0.40625-0.14317-0.17445-0.30314-0.347-0.46875-0.5-0.0112-0.0102-0.02-0.0211-0.0313-0.0313-0.13839-0.12556-0.28509-0.23444-0.4375-0.34375-0.10257-0.0731-0.20432-0.15336-0.3125-0.21875-0.007-0.004-0.0238 0.004-0.0313 0-0.23204-0.13873-0.46255-0.27478-0.71875-0.375 0.30153 0.0968 0.59645 0.20414 0.875 0.34375 0.55709 0.27922 1.06 0.66569 1.5 1.0938 0.21997 0.21403 0.40937 0.44187 0.59375 0.6875s0.35541 0.50774 0.5 0.78125c0.14012 0.26505 0.27613 0.52473 0.375 0.8125 0.0104 0.0308 0.0213 0.0627 0.0313 0.0937 0.0905 0.27809 0.1388 0.5794 0.1875 0.875 0.0524 0.31805 0.0937 0.63403 0.0937 0.96875v2 68 2c0 3.324-2.676 6-6 6h-72z" fill="url(#radialGradient22971)" opacity="0.4"/>
 <path d="m71.473 4.4296c-7.4721 3.35-12.688 10.913-12.688 19.719 0 11.911 9.5167 21.562 21.281 21.562 4.3866 0 8.4555-1.3551 11.844-3.6562l-20.437-37.625z" stroke-width="0.1" fill="url(#radialGradient8416)"/>
 <path d="m72.4 6.5777c-0.341-0.3041-0.564-0.3884-0.564-0.3884s0.83487 0.58215-0.16423 2.3199c-3.6996 5.3693-2.6956 12.724 2.4663 16.827l13.888 11.014c0.78033 0.57546 0.96083 0.84746 1.2481 1.2895z" fill="#ccc"/>
 <path d="m72.648 6.9456c-0.26811-0.37128-0.48292-0.5133-0.48292-0.5133s0.74441 0.70007-0.21905 2.3758c-3.5676 5.1777-2.5994 12.27 2.3783 16.227l13.393 10.621c0.75249 0.55493 0.92655 0.81722 1.2036 1.2435z" fill="#fff"/>
 <g transform="matrix(1 0 0 1 72.03 114.71)">
  <path d="m-22.021-88.958c-1.6457 0.000047-3.0716 0.56957-4.25 1.6667-1.1784 1.0972-1.75 2.4142-1.75 3.9583-0.000011 1.5442 0.57158 2.8612 1.75 3.9583 1.1784 1.0769 2.6043 1.625 4.25 1.625 1.6457 0.000035 3.0502-0.54814 4.2083-1.625 1.1784-1.0971 1.75-2.4142 1.75-3.9583-0.00002-1.5441-0.57161-2.8611-1.75-3.9583-1.1581-1.0971-2.5626-1.6666-4.2083-1.6667zm-5.5833 16.25c-1.341 0.000031-2.7465 0.26241-4.25 0.75-1.5035 0.46733-3.1043 1.0379-4.75 1.7083l-0.66667 2.75c0.48762-0.18283 1.0795-0.38013 1.75-0.58333 0.69079-0.20314 1.3498-0.33331 2-0.33333 1.3206 0.000026 2.1994 0.26137 2.6667 0.70833 0.46729 0.44701 0.70833 1.2372 0.70833 2.375-0.000007 0.62986-0.08747 1.3113-0.25 2.0833-0.14223 0.75177-0.31818 1.5634-0.54167 2.4167l-2.5 8.875c-0.2235 0.93462-0.35675 1.7899-0.45833 2.5417-0.1016 0.73144-0.16667 1.4556-0.16667 2.1667-0.000004 1.8286 0.65904 3.3429 2 4.5417 1.3613 1.1784 3.2702 1.75 5.7083 1.75 1.5847 0 2.9679-0.19833 4.1667-0.625 1.1987-0.40635 2.8219-0.99929 4.8333-1.7917l0.66667-2.75c-0.34542 0.16255-0.89462 0.35984-1.6667 0.58333-0.77208 0.2032-1.4738 0.29167-2.0833 0.29167-1.3003 0-2.2218-0.19833-2.75-0.625-0.52827-0.42666-0.79168-1.2382-0.79167-2.4167-0.000015-0.4673 0.08744-1.169 0.25-2.0833 0.16252-0.91428 0.33848-1.7055 0.54167-2.4167l2.5-8.875c0.24379-0.81268 0.41872-1.6914 0.5-2.6667 0.10157-0.97522 0.12497-1.6556 0.125-2.0417-0.00002-1.8692-0.63772-3.3835-1.9583-4.5417-1.3003-1.1784-3.1656-1.7916-5.5833-1.7917z" fill="url(#linearGradient22227)"/>
  <path d="m-22.01-88.958c-1.6457 0.000047-3.0716 0.55915-4.25 1.6562-1.1784 1.0972-1.75 2.4247-1.75 3.9688-0.000001 0.15026 0.02039 0.29154 0.03125 0.4375 0.12551-1.3015 0.68763-2.4462 1.7188-3.4062 1.1784-1.0971 2.6043-1.6562 4.25-1.6562 1.6457 0.000047 3.0294 0.55915 4.1875 1.6562 1.0311 0.96004 1.5932 2.1047 1.7188 3.4062 0.01086-0.14596 0.03125-0.28724 0.03125-0.4375-0.00002-1.5441-0.57161-2.8716-1.75-3.9688-1.1581-1.0971-2.5418-1.6562-4.1875-1.6562zm-5.5938 16.25c-1.341 0.000031-2.7465 0.26241-4.25 0.75-1.5035 0.46733-3.1043 1.0483-4.75 1.7188l-0.65625 2.75c0.07042-0.0264 0.17531-0.06677 0.25-0.09375l0.40625-1.6562c1.6457-0.67045 3.2465-1.2514 4.75-1.7188 1.5035-0.48759 2.909-0.74997 4.25-0.75 2.4178 0.000031 4.2934 0.60287 5.5938 1.7812 1.2682 1.1122 1.8888 2.5758 1.9375 4.3438 0.01855-0.34026-0.000013-0.58822 0-0.78125-0.00002-1.8692-0.61688-3.4044-1.9375-4.5625-1.3003-1.1784-3.176-1.7812-5.5938-1.7812zm-2.5625 7.9375c-0.03465 0.47585-0.10191 0.97625-0.21875 1.5312-0.14223 0.75177-0.33902 1.5529-0.5625 2.4062l-2.5 8.875c-0.2235 0.93462-0.33591 1.7795-0.4375 2.5312-0.1016 0.73144-0.1875 1.4764-0.1875 2.1875 0 0.18513 0.01772 0.35256 0.03125 0.53125 0.02089-0.56282 0.07643-1.1441 0.15625-1.7188 0.10159-0.75173 0.214-1.5966 0.4375-2.5312l2.5-8.875c0.22348-0.85331 0.42027-1.6545 0.5625-2.4062 0.16253-0.77204 0.24999-1.4639 0.25-2.0938-0.000001-0.15918-0.02185-0.29192-0.03125-0.4375zm6.2188 16.938c-0.01574 0.18425-0.03126 0.38952-0.03125 0.53125-0.000015 1.1784 0.25298 2.0108 0.78125 2.4375 0.52824 0.42667 1.4497 0.625 2.75 0.625 0.60951 0 1.3217-0.1093 2.0938-0.3125 0.62528-0.18101 1.0632-0.32665 1.4062-0.46875l0.25-1.0938c-0.34542 0.16255-0.88421 0.339-1.6562 0.5625-0.77208 0.2032-1.4842 0.3125-2.0938 0.3125-1.3003 0-2.2218-0.19833-2.75-0.625-0.45214-0.36517-0.685-1.051-0.75-1.9688z" opacity="0.2"/>
  <path d="m-27.979-82.77c-0.01086 0.14596-0.03125 0.28725-0.03125 0.4375-0.000011 1.5442 0.57158 2.8716 1.75 3.9688 1.1784 1.0769 2.6043 1.625 4.25 1.625 1.6457 0.000035 3.0294-0.54814 4.1875-1.625 1.1784-1.0971 1.75-2.4246 1.75-3.9688-0.000002-0.15025-0.02039-0.29154-0.03125-0.4375-0.12553 1.3016-0.68766 2.4463-1.7188 3.4062-1.1581 1.0769-2.5418 1.625-4.1875 1.625-1.6457 0.000035-3.0716-0.54814-4.25-1.625-1.0311-0.95997-1.5932-2.1047-1.7188-3.4062zm-5.5312 14.344c-0.65016 0.000026-1.3092 0.14062-2 0.34375-0.57365 0.17386-1.0575 0.34015-1.5 0.5l-0.25 1.0938c0.48762-0.18283 1.0795-0.39055 1.75-0.59375 0.69079-0.20314 1.3498-0.34372 2-0.34375 1.3206 0.000026 2.1889 0.27179 2.6562 0.71875 0.40192 0.38447 0.62974 1.0425 0.6875 1.9375 0.01355-0.18609 0.03125-0.38543 0.03125-0.5625-0.000008-1.1378-0.25146-1.928-0.71875-2.375-0.46731-0.44696-1.3356-0.71872-2.6562-0.71875zm13.438 2.9062c-0.01884 0.33034-0.07673 0.72403-0.125 1.1875-0.08128 0.97526-0.25621 1.8436-0.5 2.6562l-2.5 8.875c-0.20319 0.71112-0.36872 1.5232-0.53125 2.4375-0.16256 0.91429-0.25002 1.5952-0.25 2.0625-0.000002 0.16983 0.02031 0.31421 0.03125 0.46875 0.03616-0.42324 0.10549-0.89426 0.21875-1.5312 0.16252-0.91428 0.32806-1.7264 0.53125-2.4375l2.5-8.875c0.24379-0.81268 0.41872-1.681 0.5-2.6562 0.10157-0.97522 0.12497-1.6452 0.125-2.0312-0.000001-0.05299 0.001-0.10383 0-0.15625zm-13.969 18.938c-0.0031 0.11258-0.03125 0.23179-0.03125 0.34375-0.000004 1.8286 0.65904 3.3325 2 4.5312 1.3613 1.1784 3.2806 1.75 5.7188 1.75 1.5847 0 2.9575-0.19833 4.1562-0.625 1.1987-0.40635 2.8323-0.98888 4.8438-1.7812l0.65625-2.75c-0.06566 0.0309-0.16948 0.0604-0.25 0.09375l-0.40625 1.6562c-2.0114 0.79238-3.645 1.3749-4.8438 1.7812-1.1987 0.42667-2.5715 0.625-4.1562 0.625-2.4381 0-4.3575-0.57159-5.7188-1.75-1.1733-1.0489-1.8243-2.3438-1.9688-3.875z" fill="#fff"/>
 </g>
</svg>
