<svg height="96" width="96" xmlns="http://www.w3.org/2000/svg" xmlns:xlink="http://www.w3.org/1999/xlink">
 <defs>
  <linearGradient id="linearGradient15916">
   <stop stop-color="#b4b4b4"/>
   <stop stop-color="#b4b4b4" stop-opacity="0" offset="1"/>
  </linearGradient>
  <linearGradient x2="0" y1="90" y2="5.988" gradientUnits="userSpaceOnUse" id="linearGradient8339" gradientTransform="matrix(1.0959 0 0 1.0685 -4.442 -3.204)">
   <stop stop-color="#ebebeb"/>
   <stop stop-color="#fafafa" offset="1"/>
  </linearGradient>
  <radialGradient cy="360.77" r="21.302" xlink:href="#linearGradient15916" gradientUnits="userSpaceOnUse" id="radialGradient8416" cx="303.16" gradientTransform="matrix(0.44073 -0.24657 0.39119 0.69922 -196.61 -156.38)"/>
  <linearGradient x1="320.6" x2="293.81" xlink:href="#linearGradient15916" y1="345.4" y2="361.49" gradientUnits="userSpaceOnUse" id="linearGradient8419" gradientTransform="matrix(1 0 0 1 -224.68 -343.18)"/>
  <filter x="-0.191" y="-0.115" height="1.231" color-interpolation-filters="sRGB" id="filter3778" width="1.383">
   <feGaussianBlur stdDeviation="2.30812"/>
  </filter>
  <clipPath id="clipPath3774">
   <path d="m-88 6c-3.324 0-6 2.676-6 6v72c0 3.324 2.676 6 6 6h72c3.324 0 6-2.676 6-6v-72c0-3.324-2.676-6-6-6h-72zm35.906 18c8.9362 0 14.562 4.4176 14.562 11.375 0 3.0638-1.2972 5.9914-3.5312 7.9062-0.44681 0.38298-1.0226 0.8278-5.9375 4.5938-3.9574 3.0638-4.5273 4.1569-4.7188 8.625h-3.4375c-0.12766-1.0213-0.1875-2.0492-0.1875-2.6875 0-2.8723 0.48936-4.1509 4-10.406 1.5957-2.8723 2.5625-6.133 2.5625-8.75 0-4.4681-2.1702-7.0312-6-7.0312-1.9787 0-3.375 0.70013-3.375 1.5938 0 0.44681 0.06981 0.51263 1.2188 1.4062 1.3404 1.0213 2.0312 2.4328 2.0312 4.1562 0 3-2.2447 5.125-5.5 5.125-3.5106 0-6.0625-2.4907-6.0625-5.9375 0-5.8723 5.9495-9.9688 14.375-9.9688zm-1.2188 36c3.3191 0 6 2.6809 6 6s-2.6795 6-6.0625 6c-3.2553 0-5.9375-2.7447-5.9375-6 0-3.3191 2.6809-6 6-6z"/>
  </clipPath>
  <linearGradient x2="0" y1="53.904" y2="17.808" gradientUnits="userSpaceOnUse" id="linearGradient8359" gradientTransform="matrix(1.3298 0 0 1.3298 199.17 -115.6)">
   <stop stop-color="#bababa"/>
   <stop stop-color="#d2d2d2" offset="1"/>
  </linearGradient>
 </defs>
 <path d="m16.059 3.1081c-7.049 0-12.719 5.6697-12.719 12.719v64.531c0 7.049 5.6697 12.719 12.719 12.719h64.188c7.049 0 12.719-5.6697 12.719-12.719v-35.013c-0.0367-3.8222-0.0417-6.3452-1.8012-9.5856l-16.206-29.842c-1.0788-1.8835-2.0313-2.8088-5.1346-2.8088z" fill-opacity="0.02"/>
 <path d="m16.497 3.7018c-6.9538 0-12.531 5.6087-12.531 12.562v63.656c0 6.9538 5.5775 12.531 12.531 12.531h63.312c6.9538 0 12.562-5.5775 12.562-12.531v-34.607c-0.0741-3.7145-0.0646-6.1373-1.775-9.2846l-16.222-29.849c-0.90306-1.708-1.7952-2.4773-4.5338-2.4773z" fill-opacity="0.039"/>
 <path d="m16.934 4.3268c-6.8585 0-12.375 5.5165-12.375 12.375v62.781c0 6.8585 5.5165 12.375 12.375 12.375h62.438c6.8585 0 12.375-5.5165 12.375-12.375v-34.169c-0.0596-3.6037-0.0554-5.964-1.7158-9.0186l-16.222-29.842c-0.57824-1.2184-1.5501-2.1266-3.906-2.1266z" fill-opacity="0.078"/>
 <path d="m17.372 4.9206c-6.7632 0-12.219 5.4555-12.219 12.219v61.906c0 6.7632 5.4555 12.219 12.219 12.219h61.562c6.7632 0 12.219-5.4555 12.219-12.219v-33.794c-0.0346-3.5165-0.0841-5.7358-1.6885-8.6896l-16.237-29.895c-0.43675-0.77203-1.3586-1.7467-3.3394-1.7467z" fill-opacity="0.157"/>
 <path d="m17.747 5.5143c-6.6418 0-11.969 5.3946-11.969 12.062v61.031c0 6.668 5.327 12.031 11.969 12.031h60.813c6.6418 0 11.969-5.3632 11.969-12.031l-0.06245-33.438c-0.0731-3.3855-0.11339-5.4702-1.6562-8.3125l-16.283-29.967c-0.544-0.7689-1.558-1.3403-2.625-1.3747z" fill="url(#linearGradient8339)"/>
 <path d="m5.7709 77.595v1.0133c0 6.668 5.3434 12.032 11.985 12.032h60.809c6.6418 0 11.985-5.3645 11.985-12.032v-1.0133c0 6.6681-5.3434 12.032-11.985 12.032h-60.809c-6.6418 0-11.985-5.3644-11.985-12.032z" fill-opacity="0.098"/>
 <path d="m57.817 5.6171v85.125h20.906c6.6418 0 11.969-5.3632 11.969-12.031v-61.031c0-0.92374-0.1187-1.7923-0.3125-2.6562 0.15863 0.78565 0.25 1.604 0.25 2.4375v27.812c-0.0731-3.3855-0.11339-5.4702-1.6562-8.3125l-16.282-29.968c-0.53945-0.76243-1.3896-1.1622-2.5938-1.375h-12.281z" fill="url(#linearGradient8419)"/>
 <path d="m71.473 4.4296c-7.4721 3.35-12.688 10.913-12.688 19.719 0 11.911 9.5167 21.562 21.281 21.562 4.3866 0 8.4555-1.3551 11.844-3.6562l-20.437-37.625z" stroke-width="0.1" fill="url(#radialGradient8416)"/>
 <path d="m72.4 6.5777c-0.341-0.3041-0.564-0.3884-0.564-0.3884s0.83487 0.58215-0.16423 2.3199c-3.6996 5.3693-2.6956 12.724 2.4663 16.827l13.888 11.014c0.78033 0.57546 0.96083 0.84746 1.2481 1.2895z" fill="#ccc"/>
 <path d="m72.648 6.9456c-0.26811-0.37128-0.48292-0.5133-0.48292-0.5133s0.74441 0.70007-0.21905 2.3758c-3.5676 5.1777-2.5994 12.27 2.3783 16.227l13.393 10.621c0.75249 0.55493 0.92655 0.81722 1.2036 1.2435z" fill="#fff"/>
 <g transform="matrix(1 0 0 1 -85.83 117.15)">
  <path d="m133.34-92.311c-8.4255 0-14.375 4.0964-14.375 9.9688 0 3.4468 2.5519 5.9375 6.0625 5.9375 3.2553 0 5.5-2.125 5.5-5.125 0-1.7234-0.69082-3.135-2.0312-4.1562-1.1489-0.89362-1.2188-0.95944-1.2188-1.4062 0-0.89362 1.3963-1.5938 3.375-1.5938 3.8298 0 6 2.5632 6 7.0312 0 2.617-0.96675 5.8777-2.5625 8.75-3.5106 6.2553-4 7.5339-4 10.406 0 0.6383 0.0598 1.6662 0.1875 2.6875h3.4375c0.19149-4.4681 0.76131-5.5612 4.7188-8.625 4.9149-3.766 5.4907-4.2108 5.9375-4.5938 2.234-1.9149 3.5312-4.8424 3.5312-7.9062 0-6.9574-5.6263-11.375-14.562-11.375zm-1.2188 36c-3.3191 0-6 2.6809-6 6 0 3.2553 2.6822 6 5.9375 6 3.383 0 6.0625-2.6809 6.0625-6s-2.6808-6-6-6z" fill="url(#linearGradient8359)"/>
  <path d="m133.34-92.311c-8.4255 0-14.375 4.0964-14.375 9.9688 0 0.18319 0.0171 0.35369 0.0313 0.53125 0.30792-5.6207 6.144-9.5 14.344-9.5 8.7045 0 14.249 4.1962 14.531 10.844 0.007-0.15455 0.0313-0.31338 0.0313-0.46875 0-6.9574-5.6263-11.375-14.562-11.375zm-5.9062 5.7188c-0.10184 0.15694-0.15625 0.32423-0.15625 0.5 0 0.44681 0.0698 0.51263 1.2188 1.4062 1.1729 0.89362 1.8494 2.0926 2 3.5312 0.008-0.12205 0.0313-0.24981 0.0313-0.375 0-1.7234-0.69082-3.135-2.0312-4.1562-0.61642-0.47944-0.91145-0.71669-1.0625-0.90625zm9.1875 5.5c-0.12492 2.5123-1.0478 5.5173-2.5312 8.1875-3.5106 6.2553-4 7.5339-4 10.406 0 0.14268-0.006 0.35406 0 0.53125 0.0621-2.5497 0.69487-4.0484 4-9.9375 1.5958-2.8723 2.5625-6.133 2.5625-8.75 0-0.15056-0.0263-0.29129-0.0313-0.4375zm-4.5 24.781c-3.3191 0-6 2.6809-6 6 0 0.12871 0.023 0.24803 0.0313 0.375 0.30669-3.0294 2.857-5.375 5.9688-5.375 3.1117 0 5.6621 2.3456 5.9688 5.375 0.007-0.12276 0.0313-0.25032 0.0313-0.375 0-3.3191-2.6808-6-6-6z" opacity="0.2"/>
  <path d="m130.65-88.686c-1.9787 0-3.375 0.70013-3.375 1.5938 0 0.20709 0.0258 0.33624 0.15625 0.5 0.41595-0.64096 1.6292-1.0938 3.2188-1.0938 3.7007 0 5.828 2.401 5.9688 6.5938 0.01-0.19016 0.0313-0.37835 0.0313-0.5625 0-4.4681-2.1702-7.0312-6-7.0312zm-11.656 6.9688c-0.005 0.12436-0.0313 0.24898-0.0313 0.375 0 3.4468 2.5519 5.9375 6.0625 5.9375 3.2553 0 5.5-2.125 5.5-5.125 0-0.15096-0.0207-0.29138-0.0313-0.4375-0.25853 2.7054-2.4169 4.5625-5.4688 4.5625-3.2912 0-5.738-2.1988-6.0312-5.3125zm28.875 1.25c-0.12401 2.8932-1.3792 5.6197-3.5 7.4375-0.44681 0.38298-1.0226 0.8278-5.9375 4.5938-3.9574 3.0638-4.5273 4.1569-4.7188 8.625h-3.4375c-0.0991-0.79299-0.16641-1.5408-0.1875-2.1562-0.004 0.15853 0 0.30061 0 0.46875 0 0.6383 0.0598 1.6662 0.1875 2.6875h3.4375c0.19149-4.4681 0.76131-5.5612 4.7188-8.625 4.9149-3.766 5.4907-4.2108 5.9375-4.5938 2.234-1.9149 3.5312-4.8424 3.5312-7.9062 0-0.18039-0.0237-0.35431-0.0313-0.53125zm-21.719 30.75c-0.009 0.13277-0.0313 0.27123-0.0313 0.40625 0 3.2553 2.6822 6 5.9375 6 3.383 0 6.0625-2.6809 6.0625-6 0-0.12468-0.0238-0.25223-0.0313-0.375-0.30677 3.0294-2.8597 5.375-6.0312 5.375-3.0519 0-5.5996-2.4224-5.9062-5.4062z" fill="#fff"/>
  <path d="m-52.094 24c-8.4255 0-14.375 4.0964-14.375 9.9688 0 3.4468 2.5519 5.9375 6.0625 5.9375 3.2553 0 5.5-2.125 5.5-5.125 0-1.7234-0.69083-3.135-2.0312-4.1562-1.1489-0.89362-1.2188-0.95944-1.2188-1.4062 0-0.89362 1.3963-1.5938 3.375-1.5938 3.8298 0 6 2.5632 6 7.0312 0 2.617-0.96676 5.8777-2.5625 8.75-3.5106 6.2553-4 7.5339-4 10.406 0 0.6383 0.05984 1.6662 0.1875 2.6875h3.4375c0.19149-4.4681 0.76131-5.5612 4.7188-8.625 4.9149-3.766 5.4907-4.2108 5.9375-4.5938 2.234-1.9149 3.5312-4.8424 3.5312-7.9062 0-6.9574-5.6263-11.375-14.562-11.375zm-1.2188 36c-3.3191 0-6 2.6809-6 6 0 3.2553 2.6822 6 5.9375 6 3.383 0 6.0625-2.6809 6.0625-6s-2.6809-6-6-6z" stroke-width="2" clip-path="url(#clipPath3774)" fill="none" stroke="#fff" filter="url(#filter3778)" opacity="0.6" transform="matrix(1 0 0 1 185.44 -116.31)"/>
 </g>
</svg>
