<svg height="96" width="96" xmlns="http://www.w3.org/2000/svg" xmlns:xlink="http://www.w3.org/1999/xlink">
 <defs>
  <linearGradient x2="0" y1="20.221" y2="138.66" gradientUnits="userSpaceOnUse" id="linearGradient11029">
   <stop stop-color="#fff"/>
   <stop stop-color="#fff" stop-opacity="0" offset="1"/>
  </linearGradient>
  <linearGradient x2="0" y1="90" y2="5.988" gradientUnits="userSpaceOnUse" id="linearGradient8339" gradientTransform="matrix(1.0959 0 0 1.0685 -4.442 -3.204)">
   <stop stop-color="#ebebeb"/>
   <stop stop-color="#fafafa" offset="1"/>
  </linearGradient>
  <radialGradient cy="360.77" r="21.302" gradientUnits="userSpaceOnUse" id="radialGradient8416" cx="303.16" gradientTransform="matrix(0.44073 -0.24657 0.39119 0.69922 -196.61 -156.38)">
   <stop stop-color="#b4b4b4"/>
   <stop stop-color="#b4b4b4" stop-opacity="0" offset="1"/>
  </radialGradient>
  <radialGradient cy="90.17" r="42" xlink:href="#linearGradient11029" gradientUnits="userSpaceOnUse" id="radialGradient35373" cx="48" gradientTransform="matrix(1.1573 0 0 0.99591 194.69 -74.973)"/>
  <linearGradient x2="0" xlink:href="#linearGradient11029" y1="6" y2="63.893" gradientUnits="userSpaceOnUse" id="linearGradient35376" gradientTransform="matrix(1 0 0 1 202.24 -75.17)"/>
  <linearGradient x2="0" y1="36.03" y2="6.072" gradientUnits="userSpaceOnUse" id="linearGradient10559" gradientTransform="matrix(1.1952 0 0 1.7383 -11.19 -31.389)">
   <stop stop-color="#c53636"/>
   <stop stop-color="#d42b2b" offset="1"/>
  </linearGradient>
  <path d="m64.128 24.098c0.1888 0.04037 0.33594 0.12435 0.44141 0.25195 0.10677 0.1276 0.16015 0.28516 0.16016 0.47266-0.000002 0.28776-0.09896 0.51042-0.29688 0.66797s-0.47917 0.23633-0.84375 0.23633c-0.1224 0-0.2487-0.01237-0.37891-0.03711-0.12891-0.02344-0.26237-0.05924-0.40039-0.10742v-0.38086c0.10937 0.0638 0.22917 0.11198 0.35938 0.14453s0.26628 0.04883 0.4082 0.04883c0.24739 0.000001 0.43554-0.04883 0.56445-0.14648 0.13021-0.09766 0.19531-0.23958 0.19531-0.42578-0.000002-0.17187-0.06055-0.30599-0.18164-0.40234-0.11979-0.09765-0.28711-0.14648-0.50195-0.14648h-0.33984v-0.32422h0.35547c0.19401 0.000002 0.34245-0.03841 0.44531-0.11523 0.10286-0.07812 0.1543-0.1901 0.1543-0.33594-0.000002-0.14974-0.05339-0.26432-0.16016-0.34375-0.10547-0.08073-0.25716-0.12109-0.45508-0.12109-0.10807 0.000003-0.22396 0.01172-0.34766 0.03516s-0.25977 0.0599-0.4082 0.10938v-0.35156c0.14974-0.04166 0.28971-0.07291 0.41992-0.09375 0.13151-0.02083 0.25521-0.03125 0.37109-0.03125 0.29948 0.000003 0.53646 0.06836 0.71094 0.20508 0.17448 0.13542 0.26172 0.31901 0.26172 0.55078-0.000002 0.16146-0.04623 0.29818-0.13867 0.41016-0.09245 0.11068-0.22396 0.1875-0.39453 0.23047m-2.4004 6.0402h0.64453v-2.2246l-0.70117 0.14062v-0.35938l0.69726-0.14062h0.39453v2.584h0.64453v0.33203h-1.6797v-0.33203m3.3223-2.3242c-0.20313 0.000003-0.35612 0.10026-0.45898 0.30078-0.10156 0.19922-0.15234 0.49935-0.15234 0.90039-0.000001 0.39974 0.05078 0.69987 0.15234 0.90039 0.10286 0.19922 0.25586 0.29883 0.45898 0.29883 0.20442 0 0.35742-0.09961 0.45898-0.29883 0.10286-0.20052 0.1543-0.50065 0.1543-0.90039-0.000002-0.40104-0.05143-0.70117-0.1543-0.90039-0.10156-0.20052-0.25456-0.30078-0.45898-0.30078m0-0.3125c0.32682 0.000003 0.57617 0.12956 0.74805 0.38867 0.17318 0.25782 0.25976 0.63282 0.25976 1.125-0.000002 0.49089-0.08659 0.86589-0.25976 1.125-0.17188 0.25781-0.42123 0.38672-0.74805 0.38672s-0.57682-0.12891-0.75-0.38672c-0.17188-0.25911-0.25781-0.63411-0.25781-1.125 0-0.49218 0.08594-0.86718 0.25781-1.125 0.17318-0.25911 0.42318-0.38867 0.75-0.38867m-3.3223 7.4367h0.64453v-2.2246l-0.70117 0.14062v-0.35938l0.69726-0.14062h0.39453v2.584h0.64453v0.33203h-1.6797v-0.33203m2.3789-2.584h1.875v0.16797l-1.0586 2.748h-0.41211l0.99609-2.584h-1.4004v-0.33203m-2.1074 7.384h1.377v0.33203h-1.8516v-0.33203c0.14974-0.15495 0.35352-0.36263 0.61133-0.62305 0.25911-0.26172 0.42187-0.43034 0.48828-0.50586 0.1263-0.14192 0.21419-0.26172 0.26367-0.35938 0.05078-0.09896 0.07617-0.19596 0.07617-0.29102-0.000001-0.15495-0.05469-0.28125-0.16406-0.37891-0.10807-0.09765-0.24935-0.14648-0.42383-0.14648-0.1237 0.000003-0.25456 0.02149-0.39258 0.06445-0.13672 0.04297-0.2832 0.10808-0.43945 0.19531v-0.39844c0.15885-0.0638 0.30729-0.11198 0.44531-0.14453s0.26432-0.04883 0.37891-0.04883c0.30208 0.000003 0.54297 0.07552 0.72266 0.22656 0.17968 0.15104 0.26953 0.35287 0.26953 0.60547-0.000002 0.11979-0.02279 0.23373-0.06836 0.3418-0.04427 0.10677-0.12565 0.23307-0.24414 0.37891-0.03255 0.03776-0.13607 0.14714-0.31055 0.32812-0.17448 0.17969-0.42057 0.43164-0.73828 0.75586m3.291-2.2402-0.99609 1.5566h0.99609v-1.5566m-0.10352-0.34375h0.49609v1.9004h0.41602v0.32812h-0.41602v0.6875h-0.39258v-0.6875h-1.3164v-0.38086l1.2129-1.8477" id="SVGCleanerId_0"/>
  <path d="m71.694 23.041-0.99609 1.5566h0.99609v-1.5566m-0.10352-0.34375h0.49609v1.9004h0.41602v0.32812h-0.41602v0.6875h-0.39258v-0.6875h-1.3164v-0.38086l1.2129-1.8477m-2.1855 7.384h0.64453v-2.2246l-0.70117 0.14062v-0.35938l0.69727-0.14062h0.39453v2.584h0.64453v0.33203h-1.6797v-0.33203m2.5469 0h0.64453v-2.2246l-0.70117 0.14062v-0.35938l0.69727-0.14062h0.39453v2.584h0.64453v0.33203h-1.6797v-0.33203m-2.5469 4.8h0.64453v-2.2246l-0.70117 0.14062v-0.35938l0.69727-0.14062h0.39453v2.584h0.64453v0.33203h-1.6797v-0.33203m3.3223-1.0527c-0.1875 0.000002-0.33529 0.05013-0.44336 0.15039-0.10677 0.10026-0.16016 0.23828-0.16016 0.41406-0.000001 0.17578 0.05339 0.3138 0.16016 0.41406 0.10807 0.10026 0.25586 0.15039 0.44336 0.15039 0.1875 0.000001 0.33528-0.05013 0.44336-0.15039 0.10807-0.10156 0.16211-0.23958 0.16211-0.41406-0.000002-0.17578-0.05404-0.3138-0.16211-0.41406-0.10677-0.10026-0.25456-0.15039-0.44336-0.15039m-0.39453-0.16797c-0.16927-0.04167-0.30143-0.12044-0.39648-0.23633-0.09375-0.11588-0.14062-0.25716-0.14062-0.42383 0-0.23307 0.08268-0.41732 0.24805-0.55273 0.16667-0.13541 0.39453-0.20312 0.68359-0.20312 0.29036 0.000003 0.51823 0.06771 0.68359 0.20312 0.16536 0.13542 0.24804 0.31966 0.24805 0.55273-0.000002 0.16667-0.04753 0.30794-0.14258 0.42383-0.09375 0.11589-0.22461 0.19466-0.39258 0.23633 0.1901 0.04427 0.33789 0.13086 0.44336 0.25977 0.10677 0.12891 0.16015 0.28646 0.16016 0.47266-0.000002 0.28255-0.08659 0.49935-0.25976 0.65039-0.173 0.153-0.42 0.229-0.741 0.229-0.32162 0-0.56901-0.07552-0.74219-0.22656-0.17188-0.15104-0.25781-0.36784-0.25781-0.65039 0-0.1862 0.05339-0.34375 0.16016-0.47266 0.10677-0.1289 0.25521-0.21549 0.44531-0.25977m-0.144-0.623c-0.000001 0.15104 0.04687 0.26888 0.14062 0.35352 0.09505 0.08464 0.22786 0.12696 0.39844 0.12695 0.16927 0.000002 0.30143-0.04232 0.39648-0.12695 0.09635-0.08463 0.14453-0.20247 0.14453-0.35352-0.000002-0.15104-0.04818-0.26888-0.14453-0.35352-0.09505-0.08463-0.22722-0.12695-0.39648-0.12695-0.17057 0.000002-0.30339 0.04232-0.39844 0.12695-0.09375 0.08464-0.14063 0.20248-0.14062 0.35352m-2.5117 6.6438h1.377v0.33203h-1.8516v-0.33203c0.14974-0.15495 0.35352-0.36263 0.61133-0.62305 0.25911-0.26172 0.42187-0.43034 0.48828-0.50586 0.1263-0.14193 0.21419-0.26172 0.26367-0.35938 0.05078-0.09896 0.07617-0.19596 0.07617-0.29102-0.000002-0.15495-0.05469-0.28125-0.16406-0.37891-0.10807-0.09765-0.24935-0.14648-0.42383-0.14648-0.1237 0.000003-0.25456 0.02149-0.39258 0.06445-0.13672 0.04297-0.2832 0.10808-0.43945 0.19531v-0.39844c0.15885-0.0638 0.30729-0.11198 0.44531-0.14453s0.26432-0.04883 0.37891-0.04883c0.30208 0.000003 0.54297 0.07552 0.72266 0.22656s0.26953 0.35287 0.26953 0.60547c-0.000002 0.11979-0.02279 0.23373-0.06836 0.3418-0.04427 0.10677-0.12565 0.23308-0.24414 0.37891-0.03255 0.03776-0.13607 0.14714-0.31055 0.32812-0.17448 0.17969-0.42057 0.43164-0.73828 0.75586m2.2109-2.584h1.5488v0.33203h-1.1875v0.71484c0.05729-0.01953 0.11458-0.03385 0.17188-0.04297 0.05729-0.01041 0.11458-0.01562 0.17188-0.01563 0.32552 0.000002 0.58333 0.08919 0.77344 0.26758 0.1901 0.17839 0.28515 0.41992 0.28516 0.72461-0.000003 0.3138-0.09766 0.55794-0.29297 0.73242-0.19531 0.17318-0.4707 0.25977-0.82617 0.25977-0.1224 0-0.2474-0.01042-0.375-0.03125-0.1263-0.02083-0.25716-0.05208-0.39258-0.09375v-0.39648c0.11719 0.0638 0.23828 0.11133 0.36328 0.14258s0.25716 0.04688 0.39648 0.04687c0.22526 0.000001 0.40364-0.05924 0.53516-0.17773 0.13151-0.11849 0.19726-0.2793 0.19726-0.48242-0.000001-0.20312-0.06576-0.36393-0.19726-0.48242-0.13151-0.11849-0.3099-0.17773-0.53516-0.17773-0.10547 0.000001-0.21094 0.01172-0.31641 0.03516-0.10417 0.02344-0.21094 0.0599-0.32031 0.10938v-1.4648" id="SVGCleanerId_1"/>
  <path d="m78.257 22.697h1.5488v0.33203h-1.1875v0.71484c0.05729-0.01953 0.11458-0.03385 0.17188-0.04297 0.05729-0.01042 0.11458-0.01562 0.17188-0.01563 0.32552 0.000002 0.58333 0.08919 0.77344 0.26758 0.1901 0.17839 0.28515 0.41992 0.28516 0.72461-0.000002 0.3138-0.09766 0.55794-0.29297 0.73242-0.194 0.173-0.47 0.26-0.825 0.26-0.1224 0-0.2474-0.01042-0.375-0.03125-0.1263-0.02083-0.25716-0.05208-0.39258-0.09375v-0.39648c0.11719 0.0638 0.23828 0.11133 0.36328 0.14258s0.25716 0.04687 0.39648 0.04687c0.22526 0 0.40364-0.05925 0.53516-0.17774 0.13151-0.11849 0.19726-0.2793 0.19727-0.48242-0.000002-0.20312-0.06576-0.36393-0.19727-0.48242s-0.3099-0.17773-0.53516-0.17774c-0.10547 0.000002-0.21094 0.01172-0.31641 0.03516-0.10417 0.02344-0.21094 0.0599-0.32031 0.10938v-1.4648m-1.209 7.384h0.64453v-2.2246l-0.70117 0.14062v-0.35938l0.69727-0.14062h0.39453v2.584h0.64453v0.33203h-1.6797v-0.33203m2.8184 0h1.377v0.33203h-1.8516v-0.33203c0.14974-0.15495 0.35352-0.36263 0.61133-0.62305 0.25911-0.26172 0.42187-0.43034 0.48828-0.50586 0.1263-0.14192 0.21419-0.26172 0.26367-0.35938 0.05078-0.09896 0.07617-0.19596 0.07617-0.29102-0.000002-0.15495-0.05469-0.28125-0.16406-0.37891-0.10808-0.09765-0.24935-0.14648-0.42383-0.14648-0.1237 0.000003-0.25456 0.02149-0.39258 0.06445-0.13672 0.04297-0.2832 0.10808-0.43945 0.19531v-0.39844c0.15885-0.0638 0.30729-0.11198 0.44531-0.14453s0.26432-0.04883 0.37891-0.04883c0.30208 0.000003 0.54297 0.07552 0.72266 0.22656s0.26953 0.35287 0.26953 0.60547c-0.000002 0.11979-0.02279 0.23373-0.06836 0.3418-0.04427 0.10677-0.12565 0.23307-0.24414 0.37891-0.03255 0.03776-0.13607 0.14714-0.31055 0.32812-0.17448 0.17969-0.42057 0.43164-0.73828 0.75586m-2.8184 4.8h0.64453v-2.2246l-0.70117 0.14062v-0.35938l0.69727-0.14062h0.39453v2.584h0.64453v0.33203h-1.6797v-0.33203m2.4902 0.27148v-0.35938c0.09896 0.04687 0.19922 0.08268 0.30078 0.10742s0.20117 0.03711 0.29883 0.03711c0.26042 0 0.45898-0.08724 0.5957-0.26172 0.13802-0.17578 0.2168-0.44206 0.23633-0.79883-0.07552 0.11198-0.17123 0.19792-0.28711 0.25781-0.11589 0.0599-0.24414 0.08984-0.38477 0.08984-0.29167 0.000001-0.52279-0.08789-0.69336-0.26367-0.16927-0.17708-0.25391-0.41862-0.25391-0.72461 0-0.29948 0.08854-0.53971 0.26562-0.7207s0.41276-0.27148 0.70703-0.27148c0.33724 0.000003 0.5944 0.12956 0.77148 0.38867 0.17838 0.25782 0.26758 0.63281 0.26758 1.125-0.000002 0.45964-0.10938 0.82682-0.32812 1.1016-0.219 0.273-0.512 0.41-0.88 0.41-0.09896 0-0.19922-0.0098-0.30078-0.0293-0.10156-0.01953-0.20703-0.04883-0.31641-0.08789m0.78516-1.2363c0.17708 0.000001 0.31706-0.06055 0.41992-0.18164 0.10416-0.12109 0.15625-0.28711 0.15625-0.49805-0.000001-0.20963-0.05209-0.375-0.15625-0.49609-0.10287-0.12239-0.24284-0.18359-0.41992-0.18359-0.17708 0.000002-0.31771 0.0612-0.42188 0.18359-0.10287 0.1211-0.1543 0.28646-0.1543 0.49609-0.000001 0.21094 0.05143 0.37696 0.1543 0.49805 0.10416 0.1211 0.24479 0.18164 0.42188 0.18164m-3.0039 5.7648h1.377v0.33203h-1.8516v-0.33203c0.14974-0.15495 0.35352-0.36263 0.61133-0.62305 0.25911-0.26172 0.42187-0.43034 0.48828-0.50586 0.1263-0.14193 0.21419-0.26172 0.26367-0.35938 0.05078-0.09896 0.07617-0.19596 0.07617-0.29102-0.000002-0.15495-0.05469-0.28125-0.16406-0.37891-0.10808-0.09765-0.24935-0.14648-0.42383-0.14648-0.1237 0.000003-0.25456 0.02149-0.39258 0.06445-0.13672 0.04297-0.2832 0.10808-0.43945 0.19531v-0.39844c0.15885-0.0638 0.30729-0.11198 0.44531-0.14453s0.26432-0.04883 0.37891-0.04883c0.30208 0.000003 0.54297 0.07552 0.72266 0.22656s0.26953 0.35287 0.26953 0.60547c-0.000002 0.11979-0.02279 0.23373-0.06836 0.3418-0.04427 0.10677-0.12565 0.23308-0.24414 0.37891-0.03255 0.03776-0.13607 0.14714-0.31055 0.32812-0.17448 0.17969-0.42057 0.43164-0.73828 0.75586m3.0996-1.2832c-0.17708 0.000001-0.31771 0.06055-0.42188 0.18164-0.10287 0.1211-0.1543 0.28711-0.1543 0.49805-0.000001 0.20964 0.05143 0.37565 0.1543 0.49805 0.10416 0.12109 0.24479 0.18164 0.42188 0.18164 0.17708 0 0.31706-0.06055 0.41992-0.18164 0.10416-0.1224 0.15625-0.28841 0.15625-0.49805-0.000002-0.21094-0.05209-0.37695-0.15625-0.49805-0.10287-0.12109-0.24284-0.18164-0.41992-0.18164m0.7832-1.2363v0.35938c-0.09896-0.04687-0.19922-0.08268-0.30078-0.10742-0.10026-0.02474-0.19987-0.03711-0.29883-0.03711-0.26042 0.000003-0.45964 0.08789-0.59766 0.26367-0.13672 0.17578-0.21484 0.44141-0.23438 0.79688 0.07682-0.11328 0.17318-0.19987 0.28906-0.25976 0.11588-0.0612 0.24349-0.09179 0.38281-0.0918 0.29297 0.000002 0.52409 0.08919 0.69336 0.26758 0.17057 0.17708 0.25586 0.41862 0.25586 0.72461-0.000002 0.29948-0.08854 0.53971-0.26562 0.7207s-0.41276 0.27148-0.70703 0.27148c-0.33724 0-0.59505-0.12891-0.77344-0.38672-0.17839-0.25911-0.26758-0.63411-0.26758-1.125 0-0.46094 0.10938-0.82812 0.32812-1.1016 0.21875-0.27474 0.51237-0.41211 0.88086-0.41211 0.09896 0.000003 0.19857 0.0098 0.29883 0.0293 0.10156 0.01953 0.20703 0.04883 0.31641 0.08789" id="SVGCleanerId_2"/>
  <path d="m86.807 24.055c-0.17708 0.000001-0.31771 0.06055-0.42188 0.18164-0.10286 0.1211-0.1543 0.28711-0.1543 0.49805-0.000001 0.20964 0.05143 0.37565 0.1543 0.49805 0.10417 0.12109 0.24479 0.18164 0.42188 0.18164 0.17708 0 0.31706-0.06055 0.41992-0.18164 0.10416-0.1224 0.15625-0.28841 0.15625-0.49805-0.000002-0.21094-0.05209-0.37695-0.15625-0.49805-0.10287-0.12109-0.24284-0.18164-0.41992-0.18164m0.7832-1.2363v0.35938c-0.09896-0.04687-0.19922-0.08268-0.30078-0.10742-0.10026-0.02474-0.19987-0.03711-0.29883-0.03711-0.26042 0.000003-0.45964 0.08789-0.59766 0.26367-0.13672 0.17578-0.21484 0.44141-0.23438 0.79688 0.07682-0.11328 0.17318-0.19987 0.28906-0.25976 0.11588-0.0612 0.24349-0.0918 0.38281-0.0918 0.29297 0.000002 0.52409 0.08919 0.69336 0.26758 0.17057 0.17708 0.25586 0.41862 0.25586 0.72461-0.000002 0.29948-0.08854 0.53971-0.26562 0.7207s-0.41276 0.27148-0.70703 0.27148c-0.33724 0-0.59505-0.12891-0.77344-0.38672-0.17838-0.25911-0.26758-0.63411-0.26758-1.125 0-0.46094 0.10938-0.82812 0.32812-1.1016 0.21875-0.27474 0.51237-0.41211 0.88086-0.41211 0.09896 0.000003 0.19857 0.0098 0.29883 0.0293 0.10156 0.01953 0.20703 0.04883 0.31641 0.08789m-2.8809 7.3195h0.64453v-2.2246l-0.70117 0.14062v-0.35938l0.69727-0.14062h0.39453v2.584h0.64453v0.33203h-1.6797v-0.33203m3.6738-1.2402c0.1888 0.04037 0.33594 0.12435 0.44141 0.25195 0.10677 0.1276 0.16015 0.28516 0.16016 0.47266-0.000002 0.28776-0.09896 0.51042-0.29688 0.66797s-0.47917 0.23633-0.84375 0.23633c-0.1224 0-0.2487-0.01237-0.37891-0.03711-0.12891-0.02344-0.26237-0.05925-0.40039-0.10742v-0.38086c0.10938 0.0638 0.22917 0.11198 0.35938 0.14453s0.26628 0.04883 0.4082 0.04883c0.24739 0 0.43554-0.04883 0.56445-0.14648 0.13021-0.09765 0.19531-0.23958 0.19531-0.42578-0.000002-0.17187-0.06055-0.30599-0.18164-0.40234-0.11979-0.09765-0.28711-0.14648-0.50195-0.14648h-0.33984v-0.32422h0.35547c0.19401 0.000002 0.34245-0.03841 0.44531-0.11523 0.10286-0.07812 0.1543-0.1901 0.1543-0.33594-0.000002-0.14974-0.05339-0.26432-0.16016-0.34375-0.10547-0.08073-0.25716-0.12109-0.45508-0.12109-0.10807 0.000002-0.22396 0.01172-0.34766 0.03516s-0.25977 0.0599-0.4082 0.10938v-0.35156c0.14974-0.04166 0.28971-0.07291 0.41992-0.09375 0.13151-0.02083 0.25521-0.03125 0.37109-0.03125 0.29948 0.000003 0.53646 0.06836 0.71094 0.20508 0.17448 0.13542 0.26172 0.31901 0.26172 0.55078-0.000002 0.16146-0.04623 0.29818-0.13867 0.41016-0.09245 0.11068-0.22396 0.1875-0.39453 0.23047m-3.4023 6.0402h1.377v0.33203h-1.8516v-0.33203c0.14974-0.15495 0.35352-0.36263 0.61133-0.62305 0.25911-0.26172 0.42187-0.43034 0.48828-0.50586 0.1263-0.14193 0.21419-0.26172 0.26367-0.35938 0.05078-0.09896 0.07617-0.19596 0.07617-0.29102-0.000002-0.15494-0.05469-0.28125-0.16406-0.37891-0.10807-0.09765-0.24935-0.14648-0.42383-0.14648-0.1237 0.000002-0.25456 0.02149-0.39258 0.06445-0.13672 0.04297-0.2832 0.10808-0.43945 0.19531v-0.39844c0.15885-0.0638 0.30729-0.11198 0.44531-0.14453s0.26432-0.04883 0.37891-0.04883c0.30208 0.000003 0.54297 0.07552 0.72266 0.22656 0.17968 0.15104 0.26953 0.35287 0.26953 0.60547-0.000002 0.11979-0.02279 0.23373-0.06836 0.3418-0.04427 0.10677-0.12565 0.23307-0.24414 0.37891-0.03255 0.03776-0.13607 0.14714-0.31055 0.32812-0.17448 0.17969-0.42057 0.43164-0.73828 0.75586m3.0508-2.3242c-0.20313 0.000003-0.35612 0.10026-0.45898 0.30078-0.10156 0.19922-0.15234 0.49935-0.15234 0.90039-0.000001 0.39974 0.05078 0.69987 0.15234 0.90039 0.10286 0.19922 0.25586 0.29883 0.45898 0.29883 0.20443 0 0.35742-0.09961 0.45898-0.29883 0.10286-0.20052 0.1543-0.50065 0.1543-0.90039-0.000002-0.40104-0.05143-0.70117-0.1543-0.90039-0.10156-0.20052-0.25456-0.30078-0.45898-0.30078m0-0.3125c0.32682 0.000003 0.57617 0.12956 0.74805 0.38867 0.17318 0.25782 0.25976 0.63282 0.25977 1.125-0.000003 0.49089-0.08659 0.86589-0.25977 1.125-0.17188 0.25781-0.42122 0.38672-0.74805 0.38672-0.32682 0-0.57682-0.12891-0.75-0.38672-0.17188-0.25911-0.25781-0.63411-0.25781-1.125-0.000001-0.49218 0.08594-0.86718 0.25781-1.125 0.17318-0.25911 0.42318-0.38867 0.75-0.38867m-3.0508 7.4367h1.377v0.33203h-1.8516v-0.33203c0.14974-0.15495 0.35352-0.36263 0.61133-0.62305 0.25911-0.26172 0.42187-0.43034 0.48828-0.50586 0.1263-0.14192 0.21419-0.26172 0.26367-0.35938 0.05078-0.09896 0.07617-0.19596 0.07617-0.29102-0.000002-0.15495-0.05469-0.28125-0.16406-0.37891-0.10807-0.09765-0.24935-0.14648-0.42383-0.14648-0.1237 0.000003-0.25456 0.02149-0.39258 0.06445-0.13672 0.04297-0.2832 0.10808-0.43945 0.19531v-0.39844c0.15885-0.0638 0.30729-0.11198 0.44531-0.14453s0.26432-0.04883 0.37891-0.04883c0.30208 0.000003 0.54297 0.07552 0.72266 0.22656 0.17968 0.15104 0.26953 0.35287 0.26953 0.60547-0.000002 0.11979-0.02279 0.23373-0.06836 0.3418-0.04427 0.10677-0.12565 0.23307-0.24414 0.37891-0.03255 0.03776-0.13607 0.14714-0.31055 0.32812-0.17448 0.17969-0.42057 0.43164-0.73828 0.75586m2.1074-2.584h1.875v0.16797l-1.0586 2.748h-0.41211l0.99609-2.584h-1.4004v-0.33203" id="SVGCleanerId_3"/>
  <path d="m93.448 22.697h1.875v0.16797l-1.0586 2.748h-0.41211l0.99609-2.584h-1.4004v-0.33203m-1.1055 7.384h0.64453v-2.2246l-0.70117 0.14062v-0.35938l0.69727-0.14062h0.39453v2.584h0.64453v0.33203h-1.6797v-0.33203m3.5625-2.2402-0.99609 1.5566h0.99609v-1.5566m-0.10352-0.34375h0.49609v1.9004h0.41602v0.32812h-0.41602v0.6875h-0.39258v-0.6875h-1.3164v-0.38086l1.2129-1.8477m-3.1875 7.384h1.377v0.33203h-1.8516v-0.33203c0.14974-0.15495 0.35352-0.36263 0.61133-0.62305 0.25911-0.26172 0.42187-0.43034 0.48828-0.50586 0.1263-0.14192 0.21419-0.26172 0.26367-0.35938 0.05078-0.09896 0.07617-0.19596 0.07617-0.29102-0.000002-0.15495-0.05469-0.28125-0.16406-0.37891-0.10807-0.09765-0.24935-0.14648-0.42383-0.14648-0.1237 0.000003-0.25456 0.02149-0.39258 0.06445-0.13672 0.04297-0.2832 0.10808-0.43945 0.19531v-0.39844c0.15885-0.0638 0.30729-0.11198 0.44531-0.14453s0.26432-0.04883 0.37891-0.04883c0.30208 0.000003 0.54297 0.07552 0.72266 0.22656 0.17968 0.15104 0.26953 0.35287 0.26953 0.60547-0.000002 0.11979-0.02279 0.23373-0.06836 0.3418-0.04427 0.10677-0.12565 0.23307-0.24414 0.37891-0.03255 0.03776-0.13607 0.14714-0.31055 0.32812-0.17448 0.17969-0.42057 0.43164-0.73828 0.75586m2.2754 0h0.64453v-2.2246l-0.70117 0.14062v-0.35938l0.69727-0.14062h0.39453v2.584h0.64453v0.33203h-1.6797v-0.33203m-2.2754 4.8h1.377v0.33203h-1.8516v-0.33203c0.14974-0.15495 0.35352-0.36263 0.61133-0.62305 0.25911-0.26172 0.42187-0.43034 0.48828-0.50586 0.1263-0.14193 0.21419-0.26172 0.26367-0.35938 0.05078-0.09896 0.07617-0.19596 0.07617-0.29102-0.000002-0.15495-0.05469-0.28125-0.16406-0.37891-0.10807-0.09765-0.24935-0.14648-0.42383-0.14648-0.1237 0.000003-0.25456 0.02149-0.39258 0.06445-0.13672 0.04297-0.2832 0.10808-0.43945 0.19531v-0.39844c0.15885-0.0638 0.30729-0.11198 0.44531-0.14453s0.26432-0.04883 0.37891-0.04883c0.30208 0.000003 0.54297 0.07552 0.72266 0.22656 0.17968 0.15104 0.26953 0.35287 0.26953 0.60547-0.000002 0.11979-0.02279 0.23373-0.06836 0.3418-0.04427 0.10677-0.12565 0.23308-0.24414 0.37891-0.03255 0.03776-0.13607 0.14714-0.31055 0.32812-0.17448 0.17969-0.42057 0.43164-0.73828 0.75586m3.0508-1.0527c-0.1875 0.000002-0.33529 0.05013-0.44336 0.15039-0.10677 0.10026-0.16016 0.23828-0.16016 0.41406-0.000001 0.17578 0.05338 0.3138 0.16016 0.41406 0.10807 0.10026 0.25586 0.15039 0.44336 0.15039s0.33528-0.05013 0.44336-0.15039c0.10807-0.10156 0.16211-0.23958 0.16211-0.41406-0.000002-0.17578-0.05404-0.3138-0.16211-0.41406-0.10677-0.10026-0.25456-0.15039-0.44336-0.15039m-0.39453-0.16797c-0.16927-0.04166-0.30143-0.12044-0.39648-0.23633-0.09375-0.11588-0.14063-0.25716-0.14062-0.42383-0.000001-0.23307 0.08268-0.41732 0.24805-0.55273 0.16667-0.13541 0.39453-0.20312 0.68359-0.20312 0.29036 0.000003 0.51823 0.06771 0.68359 0.20312 0.16536 0.13542 0.24804 0.31966 0.24805 0.55273-0.000002 0.16667-0.04753 0.30794-0.14258 0.42383-0.09375 0.11589-0.22461 0.19466-0.39258 0.23633 0.1901 0.04427 0.33789 0.13086 0.44336 0.25976 0.10677 0.12891 0.16015 0.28646 0.16016 0.47266-0.000002 0.28255-0.08659 0.49935-0.25976 0.65039-0.17188 0.15104-0.41862 0.22656-0.74024 0.22656s-0.56901-0.07552-0.74219-0.22656c-0.17188-0.15104-0.25781-0.36784-0.25781-0.65039 0-0.1862 0.05339-0.34375 0.16016-0.47266 0.10677-0.1289 0.25521-0.21549 0.44531-0.25976m-0.14453-0.62305c-0.000001 0.15104 0.04687 0.26888 0.14062 0.35352 0.09505 0.08464 0.22786 0.12696 0.39844 0.12695 0.16927 0.000001 0.30143-0.04232 0.39648-0.12695 0.09635-0.08463 0.14453-0.20247 0.14453-0.35352-0.000002-0.15104-0.04818-0.26888-0.14453-0.35352-0.09505-0.08463-0.22722-0.12695-0.39648-0.12695-0.17057 0.000003-0.30339 0.04232-0.39844 0.12695-0.09375 0.08464-0.14063 0.20248-0.14062 0.35352" id="SVGCleanerId_4"/>
  <path d="m101.3 20.481h0.64453v-2.2246l-0.70117 0.14062v-0.35938l0.69727-0.14062h0.39453v2.584h0.64453v0.33203h-1.6797v-0.33203m0.77539 3.7473c-0.1875 0.000001-0.33528 0.05013-0.44336 0.15039-0.10677 0.10026-0.16015 0.23828-0.16015 0.41406s0.0534 0.3138 0.16015 0.41406c0.10808 0.10026 0.25586 0.15039 0.44336 0.15039s0.33529-0.05013 0.44336-0.15039c0.10807-0.10156 0.16211-0.23958 0.16211-0.41406 0-0.17578-0.054-0.3138-0.16211-0.41406-0.10677-0.10026-0.25456-0.15039-0.44336-0.15039m-0.39453-0.16797c-0.16927-0.04167-0.30143-0.12044-0.39648-0.23633-0.0937-0.11588-0.14063-0.25716-0.14063-0.42383 0-0.23307 0.0827-0.41732 0.24805-0.55274 0.16667-0.13541 0.39453-0.20312 0.68359-0.20312 0.29037 0.000003 0.51823 0.06771 0.6836 0.20312 0.16536 0.13542 0.24804 0.31966 0.24804 0.55274 0 0.16667-0.0475 0.30794-0.14257 0.42383-0.0938 0.11589-0.22461 0.19466-0.39258 0.23633 0.1901 0.04427 0.33789 0.13086 0.44336 0.25977 0.10677 0.12891 0.16015 0.28646 0.16015 0.47266 0 0.28255-0.0866 0.49935-0.25976 0.65039-0.17188 0.15104-0.41862 0.22656-0.74024 0.22656-0.32161 0-0.56901-0.07552-0.74218-0.22656-0.17188-0.15104-0.25782-0.36784-0.25782-0.65039 0-0.1862 0.0534-0.34375 0.16016-0.47266 0.10677-0.1289 0.25521-0.21549 0.44531-0.25977m-0.14453-0.62305c0 0.15104 0.0469 0.26888 0.14063 0.35352 0.0951 0.08464 0.22786 0.12696 0.39843 0.12695 0.16927 0.000002 0.30143-0.04232 0.39649-0.12695 0.0964-0.08463 0.14453-0.20247 0.14453-0.35352 0-0.15104-0.0482-0.26888-0.14453-0.35352-0.0951-0.08463-0.22722-0.12695-0.39649-0.12695-0.17057 0.000003-0.30338 0.04232-0.39843 0.12695-0.0937 0.08464-0.14063 0.20248-0.14063 0.35352m-1.5098 6.6438h0.64453v-2.2246l-0.70118 0.14062v-0.35938l0.69726-0.14062h0.39453v2.584h0.64453v0.33203h-1.6797v-0.33203m2.4824-2.584h1.5488v0.33203h-1.1875v0.71484c0.0573-0.01953 0.11458-0.03385 0.17187-0.04297 0.0573-0.01041 0.11458-0.01562 0.17188-0.01563 0.32552 0.000002 0.58333 0.0892 0.77343 0.26758 0.19011 0.17839 0.28516 0.41992 0.28516 0.72461 0 0.3138-0.0977 0.55794-0.29297 0.73242-0.19531 0.17318-0.4707 0.25976-0.82617 0.25976-0.1224 0-0.2474-0.01042-0.375-0.03125-0.1263-0.02083-0.25716-0.05208-0.39258-0.09375v-0.39648c0.11719 0.0638 0.23828 0.11133 0.36328 0.14258s0.25716 0.04687 0.39649 0.04687c0.22526 0 0.40364-0.05924 0.53515-0.17773s0.19727-0.2793 0.19727-0.48242-0.0658-0.36393-0.19727-0.48242c-0.13151-0.11849-0.30989-0.17773-0.53515-0.17773-0.10547 0.000001-0.21094 0.01172-0.31641 0.03516-0.10417 0.02344-0.21094 0.0599-0.32031 0.10938v-1.4648m-2.2109 7.384h1.377v0.33203h-1.8516v-0.33203c0.14974-0.15495 0.35352-0.36263 0.61133-0.62305 0.25911-0.26172 0.42187-0.43034 0.48828-0.50586 0.1263-0.14192 0.21419-0.26172 0.26367-0.35938 0.0508-0.09896 0.0762-0.19596 0.0762-0.29102 0-0.15495-0.0547-0.28125-0.16406-0.37891-0.10807-0.09765-0.24935-0.14648-0.42383-0.14648-0.1237 0.000003-0.25455 0.02149-0.39257 0.06445-0.13672 0.04297-0.28321 0.10808-0.43946 0.19531v-0.39844c0.15885-0.0638 0.30729-0.11198 0.44531-0.14453s0.26433-0.04883 0.37891-0.04883c0.30208 0.000003 0.54297 0.07552 0.72266 0.22656 0.17968 0.15104 0.26953 0.35287 0.26953 0.60547 0 0.11979-0.0228 0.23373-0.0684 0.3418-0.0443 0.10677-0.12565 0.23307-0.24414 0.37891-0.0326 0.03776-0.13607 0.14714-0.31055 0.32812-0.17448 0.17969-0.42057 0.43164-0.73828 0.75586m2.5469 0h1.377v0.33203h-1.8516v-0.33203c0.14974-0.15495 0.35351-0.36263 0.61132-0.62305 0.25912-0.26172 0.42188-0.43034 0.48829-0.50586 0.1263-0.14192 0.21419-0.26172 0.26367-0.35938 0.0508-0.09896 0.0762-0.19596 0.0762-0.29102 0-0.15495-0.0547-0.28125-0.16406-0.37891-0.10808-0.09765-0.24935-0.14648-0.42383-0.14648-0.1237 0.000003-0.25456 0.02149-0.39258 0.06445-0.13672 0.04297-0.2832 0.10808-0.43945 0.19531v-0.39844c0.15885-0.0638 0.30729-0.11198 0.44531-0.14453s0.26432-0.04883 0.37891-0.04883c0.30208 0.000003 0.54296 0.07552 0.72265 0.22656s0.26953 0.35287 0.26953 0.60547c0 0.11979-0.0228 0.23373-0.0684 0.3418-0.0443 0.10677-0.12565 0.23307-0.24414 0.37891-0.0326 0.03776-0.13607 0.14714-0.31054 0.32812-0.17448 0.17969-0.42058 0.43164-0.73828 0.75586m-2.5469 4.8h1.377v0.33203h-1.8516v-0.33203c0.14974-0.15495 0.35352-0.36263 0.61133-0.62305 0.25911-0.26172 0.42187-0.43034 0.48828-0.50586 0.1263-0.14193 0.21419-0.26172 0.26367-0.35938 0.0508-0.09896 0.0762-0.19596 0.0762-0.29102 0-0.15495-0.0547-0.28125-0.16406-0.37891-0.10807-0.09765-0.24935-0.14648-0.42383-0.14648-0.1237 0.000003-0.25455 0.02149-0.39257 0.06445-0.13672 0.04297-0.28321 0.10808-0.43946 0.19531v-0.39844c0.15885-0.0638 0.30729-0.11198 0.44531-0.14453s0.26433-0.04883 0.37891-0.04883c0.30208 0.000003 0.54297 0.07552 0.72266 0.22656 0.17968 0.15104 0.26953 0.35287 0.26953 0.60547 0 0.11979-0.0228 0.23373-0.0684 0.3418-0.0443 0.10677-0.12565 0.23308-0.24414 0.37891-0.0326 0.03776-0.13607 0.14714-0.31055 0.32812-0.17448 0.17969-0.42057 0.43164-0.73828 0.75586m2.2188 0.27148v-0.35938c0.099 0.04688 0.19922 0.08268 0.30078 0.10742s0.20117 0.03711 0.29883 0.03711c0.26042 0.000001 0.45898-0.08724 0.5957-0.26172 0.13802-0.17578 0.2168-0.44206 0.23633-0.79883-0.0755 0.11198-0.17122 0.19792-0.28711 0.25781-0.11589 0.0599-0.24414 0.08984-0.38476 0.08984-0.29167 0.000001-0.52279-0.08789-0.69336-0.26367-0.16927-0.17708-0.25391-0.41862-0.25391-0.72461 0-0.29948 0.0885-0.53971 0.26563-0.7207 0.17708-0.18099 0.41275-0.27148 0.70703-0.27148 0.33723 0.000003 0.5944 0.12956 0.77148 0.38867 0.17838 0.25782 0.26758 0.63281 0.26758 1.125 0 0.45964-0.10938 0.82682-0.32813 1.1016-0.21745 0.27344-0.51041 0.41016-0.8789 0.41016-0.099 0-0.19922-0.0098-0.30078-0.0293-0.10157-0.01953-0.20704-0.04883-0.31641-0.08789m0.78516-1.2363c0.17708 0.000001 0.31705-0.06055 0.41992-0.18164 0.10416-0.12109 0.15625-0.28711 0.15625-0.49805 0-0.20963-0.0521-0.375-0.15625-0.49609-0.10287-0.12239-0.24284-0.18359-0.41992-0.18359-0.17709 0.000003-0.31771 0.0612-0.42188 0.18359-0.10286 0.1211-0.1543 0.28646-0.1543 0.49609 0 0.21094 0.0514 0.37695 0.1543 0.49805 0.10417 0.1211 0.24479 0.18164 0.42188 0.18164" id="SVGCleanerId_5"/>
  <path d="m109.21 20.481h1.377v0.33203h-1.8516v-0.33203c0.14974-0.15495 0.35352-0.36263 0.61133-0.62305 0.25911-0.26172 0.42187-0.43034 0.48828-0.50586 0.1263-0.14193 0.21419-0.26172 0.26367-0.35938 0.0508-0.09896 0.0762-0.19596 0.0762-0.29102 0-0.15494-0.0547-0.28125-0.16406-0.37891-0.10807-0.09765-0.24935-0.14648-0.42383-0.14648-0.1237 0.000002-0.25455 0.02149-0.39257 0.06445-0.13672 0.04297-0.28321 0.10808-0.43946 0.19531v-0.39844c0.15886-0.0638 0.30729-0.11198 0.44531-0.14453s0.26433-0.04883 0.37891-0.04883c0.30208 0.000003 0.54297 0.07552 0.72266 0.22656 0.17968 0.15104 0.26953 0.35287 0.26953 0.60547 0 0.11979-0.0228 0.23372-0.0684 0.3418-0.0443 0.10677-0.12565 0.23308-0.24414 0.37891-0.0326 0.03776-0.13607 0.14714-0.31055 0.32812-0.17448 0.17969-0.42057 0.43164-0.73828 0.75586m-0.32812 5.0715v-0.35938c0.099 0.04687 0.19921 0.08268 0.30078 0.10742 0.10156 0.02474 0.20117 0.03711 0.29882 0.03711 0.26042 0 0.45899-0.08724 0.59571-0.26172 0.13802-0.17578 0.21679-0.44206 0.23633-0.79883-0.0755 0.11198-0.17123 0.19792-0.28711 0.25781-0.11589 0.0599-0.24415 0.08984-0.38477 0.08984-0.29167 0.000001-0.52279-0.08789-0.69336-0.26367-0.16927-0.17708-0.2539-0.41862-0.2539-0.72461 0-0.29948 0.0885-0.53971 0.26562-0.7207 0.17708-0.18099 0.41276-0.27148 0.70703-0.27148 0.33724 0.000003 0.5944 0.12956 0.77149 0.38867 0.17838 0.25782 0.26757 0.63282 0.26757 1.125 0 0.45964-0.10937 0.82682-0.32812 1.1016-0.21745 0.27344-0.51042 0.41016-0.87891 0.41016-0.099 0-0.19922-0.0098-0.30078-0.0293-0.10156-0.01953-0.20703-0.04883-0.3164-0.08789m0.78515-1.2363c0.17708 0.000002 0.31706-0.06055 0.41992-0.18164 0.10417-0.12109 0.15625-0.28711 0.15625-0.49805 0-0.20963-0.0521-0.375-0.15625-0.49609-0.10286-0.12239-0.24284-0.18359-0.41992-0.18359-0.17708 0.000003-0.31771 0.0612-0.42187 0.18359-0.10287 0.1211-0.1543 0.28646-0.1543 0.49609 0 0.21094 0.0514 0.37696 0.1543 0.49805 0.10416 0.1211 0.24479 0.18164 0.42187 0.18164m-2.002 5.7648h0.64453v-2.2246l-0.70117 0.14062v-0.35938l0.69726-0.14062h0.39453v2.584h0.64454v0.33203h-1.6797v-0.33203m3.3711-1.2832c-0.17708 0.000002-0.31771 0.06055-0.42187 0.18164-0.10287 0.1211-0.1543 0.28711-0.1543 0.49805 0 0.20964 0.0514 0.37565 0.1543 0.49805 0.10416 0.12109 0.24479 0.18164 0.42187 0.18164 0.17708 0.000001 0.31706-0.06055 0.41992-0.18164 0.10417-0.1224 0.15625-0.28841 0.15625-0.49805 0-0.21094-0.0521-0.37695-0.15625-0.49805-0.10286-0.12109-0.24284-0.18164-0.41992-0.18164m0.78321-1.2363v0.35938c-0.099-0.04687-0.19923-0.08268-0.30079-0.10742-0.10026-0.02474-0.19987-0.03711-0.29882-0.03711-0.26042 0.000003-0.45964 0.08789-0.59766 0.26367-0.13672 0.17578-0.21484 0.44141-0.23438 0.79688 0.0768-0.11328 0.17318-0.19987 0.28907-0.25977 0.11588-0.0612 0.24349-0.0918 0.38281-0.0918 0.29297 0.000002 0.52409 0.0892 0.69336 0.26758 0.17057 0.17708 0.25586 0.41862 0.25586 0.72461 0 0.29948-0.0885 0.53971-0.26563 0.7207-0.17708 0.18099-0.41276 0.27148-0.70703 0.27148-0.33724 0-0.59505-0.12891-0.77344-0.38672-0.17838-0.25911-0.26757-0.63411-0.26757-1.125 0-0.46094 0.10937-0.82812 0.32812-1.1016 0.21875-0.27474 0.51237-0.41211 0.88086-0.41211 0.099 0.000003 0.19857 0.0098 0.29883 0.0293 0.10156 0.01953 0.20703 0.04883 0.31641 0.08789m-3.8828 7.3195h1.377v0.33203h-1.8516v-0.33203c0.14974-0.15495 0.35352-0.36263 0.61133-0.62305 0.25911-0.26172 0.42188-0.43034 0.48828-0.50586 0.1263-0.14192 0.21419-0.26172 0.26367-0.35938 0.0508-0.09896 0.0762-0.19596 0.0762-0.29102-0.00001-0.15495-0.0547-0.28125-0.16407-0.37891-0.10807-0.09765-0.24935-0.14648-0.42382-0.14648-0.1237 0.000003-0.25456 0.02149-0.39258 0.06445-0.13672 0.04297-0.28321 0.10808-0.43946 0.19531v-0.39844c0.15886-0.0638 0.3073-0.11198 0.44532-0.14453s0.26432-0.04883 0.3789-0.04883c0.30209 0.000003 0.54297 0.07552 0.72266 0.22656s0.26953 0.35287 0.26953 0.60547c0 0.11979-0.0228 0.23373-0.0684 0.3418-0.0443 0.10677-0.12565 0.23307-0.24414 0.37891-0.0326 0.03776-0.13607 0.14714-0.31055 0.32812-0.17448 0.17969-0.42057 0.43164-0.73828 0.75586m3.4024-1.2402c0.1888 0.04037 0.33593 0.12435 0.4414 0.25195 0.10677 0.12761 0.16016 0.28516 0.16016 0.47266 0 0.28776-0.099 0.51042-0.29688 0.66797-0.19791 0.15755-0.47916 0.23633-0.84375 0.23633-0.12239-0.000001-0.24869-0.01237-0.3789-0.03711-0.12891-0.02344-0.26237-0.05924-0.40039-0.10742v-0.38086c0.10937 0.0638 0.22916 0.11198 0.35937 0.14453s0.26628 0.04883 0.40821 0.04883c0.24739 0.000001 0.43554-0.04883 0.56445-0.14648 0.13021-0.09766 0.19531-0.23958 0.19531-0.42578 0-0.17187-0.0606-0.30599-0.18164-0.40234-0.11979-0.09765-0.28711-0.14648-0.50195-0.14648h-0.33985v-0.32422h0.35547c0.19401 0.000001 0.34245-0.03841 0.44531-0.11524 0.10287-0.07812 0.1543-0.1901 0.1543-0.33594 0-0.14974-0.0534-0.26432-0.16015-0.34375-0.10547-0.08073-0.25717-0.12109-0.45508-0.12109-0.10808 0.000003-0.22396 0.01172-0.34766 0.03516s-0.25977 0.0599-0.4082 0.10938v-0.35156c0.14974-0.04166 0.28971-0.07291 0.41992-0.09375 0.13151-0.02083 0.25521-0.03125 0.37109-0.03125 0.29948 0.000003 0.53646 0.06836 0.71094 0.20508 0.17448 0.13542 0.26172 0.31901 0.26172 0.55078 0 0.16146-0.0462 0.29818-0.13867 0.41016-0.0925 0.11068-0.22396 0.1875-0.39453 0.23047m-2.5469 4.8c0.1888 0.04037 0.33594 0.12435 0.44141 0.25195 0.10677 0.1276 0.16015 0.28516 0.16015 0.47266 0 0.28776-0.099 0.51042-0.29687 0.66797-0.19792 0.15755-0.47917 0.23633-0.84375 0.23633-0.1224 0-0.2487-0.01237-0.37891-0.03711-0.1289-0.02344-0.26237-0.05924-0.40039-0.10742v-0.38086c0.10938 0.0638 0.22917 0.11198 0.35938 0.14453 0.1302 0.03255 0.26627 0.04883 0.4082 0.04883 0.24739 0.000001 0.43555-0.04883 0.56445-0.14648 0.13021-0.09766 0.19531-0.23958 0.19532-0.42578-0.00001-0.17187-0.0606-0.30599-0.18164-0.40234-0.1198-0.09766-0.28712-0.14648-0.50196-0.14648h-0.33984v-0.32422h0.35547c0.19401 0.000002 0.34244-0.03841 0.44531-0.11523 0.10286-0.07812 0.15429-0.1901 0.1543-0.33594-0.00001-0.14974-0.0534-0.26432-0.16016-0.34375-0.10547-0.08073-0.25716-0.12109-0.45508-0.12109-0.10807 0.000003-0.22396 0.01172-0.34765 0.03516-0.1237 0.02344-0.25977 0.0599-0.40821 0.10938v-0.35156c0.14974-0.04166 0.28972-0.07291 0.41992-0.09375 0.13151-0.02083 0.25521-0.03125 0.3711-0.03125 0.29948 0.000003 0.53646 0.06836 0.71094 0.20508 0.17447 0.13542 0.26171 0.31901 0.26171 0.55078 0 0.16146-0.0462 0.29818-0.13867 0.41016-0.0924 0.11068-0.22396 0.1875-0.39453 0.23047m2.1953-1.084c-0.20312 0.000003-0.35612 0.10026-0.45898 0.30078-0.10156 0.19922-0.15234 0.49935-0.15234 0.90039 0 0.39974 0.0508 0.69987 0.15234 0.90039 0.10286 0.19922 0.25586 0.29883 0.45898 0.29883 0.20443 0 0.35742-0.09961 0.45899-0.29883 0.10286-0.20052 0.15429-0.50065 0.1543-0.90039-0.00001-0.40104-0.0514-0.70117-0.1543-0.90039-0.10157-0.20052-0.25456-0.30078-0.45899-0.30078m0-0.3125c0.32683 0.000003 0.57617 0.12956 0.74805 0.38867 0.17318 0.25782 0.25976 0.63281 0.25977 1.125-0.00001 0.49089-0.0866 0.86589-0.25977 1.125-0.17188 0.25781-0.42122 0.38672-0.74805 0.38672-0.32682 0-0.57682-0.12891-0.75-0.38672-0.17187-0.25911-0.25781-0.63411-0.25781-1.125 0-0.49219 0.0859-0.86718 0.25781-1.125 0.17318-0.25911 0.42318-0.38867 0.75-0.38867" id="SVGCleanerId_6"/>
  <path d="m15.79 26.17c-0.39985 0-0.75632-0.04149-1.0694-0.12448-0.31309-0.08299-0.58469-0.21501-0.81479-0.39608-0.2301-0.18106-0.4206-0.41494-0.57148-0.70162-0.147-0.29-0.259-0.641-0.334-1.052l1.6579-0.24331c0.03773 0.22256 0.09053 0.41117 0.15843 0.56583 0.0679 0.15089 0.149 0.27537 0.2433 0.37344 0.09807 0.09431 0.20935 0.16409 0.33384 0.20936 0.12448 0.04151 0.26028 0.06224 0.4074 0.06224 0.33195 0.000001 0.5828-0.11128 0.75255-0.33384 0.17352-0.22256 0.26028-0.5413 0.26028-0.95625v-4.1815h-1.59v-1.3071h3.2535v5.4489c-0.000005 0.40362-0.05847 0.76952-0.1754 1.0977-0.11694 0.32441-0.29046 0.60166-0.52056 0.83176-0.22633 0.22633-0.50736 0.40174-0.84308 0.52622-0.33195 0.12071-0.71483 0.18106-1.1486 0.18106" id="SVGCleanerId_7"/>
  <path d="m25.685 26.06-0.69205-1.9931h-2.973l-0.69205 1.9931h-1.6332l2.8457-7.8008h1.9267l2.8346 7.8008h-1.6166m-1.827-5.4644c-0.04429-0.12918-0.08859-0.25836-0.13287-0.38755-0.0406-0.13287-0.07751-0.25282-0.11073-0.35987-0.02953-0.11072-0.05537-0.20115-0.07751-0.27128-0.01846-0.07012-0.02953-0.10888-0.03322-0.11626-0.0037 0.01108-0.01477 0.05168-0.03322 0.1218-0.01845 0.07013-0.04429 0.15872-0.07751 0.26575-0.02953 0.10704-0.06644 0.227-0.11073 0.35987-0.0406 0.12919-0.08305 0.25837-0.12734 0.38755l-0.76956 2.2422h2.2422l-0.76956-2.2422" id="SVGCleanerId_8"/>
  <path d="m33.419 26.06-3.7243-6.007c0.02021 0.16241 0.03841 0.32481 0.0546 0.4872 0.01618 0.14026 0.02831 0.29159 0.03639 0.45398 0.01213 0.16241 0.0182 0.31743 0.0182 0.46506v4.6007h-1.5892v-7.8008h2.0441l3.7788 6.0568c-0.021-0.155-0.039-0.318-0.055-0.488-0.016-0.144-0.031-0.306-0.043-0.487-0.008-0.181-0.012-0.363-0.012-0.548v-4.5343h1.5892v7.8008h-2.0987" id="SVGCleanerId_9"/>
 </defs>
 <path d="m16.059 3.1081c-7.049 0-12.719 5.6697-12.719 12.719v64.531c0 7.049 5.6697 12.719 12.719 12.719h64.188c7.049 0 12.719-5.6697 12.719-12.719v-35.013c-0.0367-3.8222-0.0417-6.3452-1.8012-9.5856l-16.206-29.842c-1.0788-1.8835-2.0313-2.8088-5.1346-2.8088z" fill-opacity="0.02"/>
 <path d="m16.497 3.7018c-6.9538 0-12.531 5.6087-12.531 12.562v63.656c0 6.9538 5.5775 12.531 12.531 12.531h63.312c6.9538 0 12.562-5.5775 12.562-12.531v-34.607c-0.0741-3.7145-0.0646-6.1373-1.775-9.2846l-16.222-29.849c-0.90306-1.708-1.7952-2.4773-4.5338-2.4773z" fill-opacity="0.039"/>
 <path d="m16.934 4.3268c-6.8585 0-12.375 5.5165-12.375 12.375v62.781c0 6.8585 5.5165 12.375 12.375 12.375h62.438c6.8585 0 12.375-5.5165 12.375-12.375v-34.169c-0.0596-3.6037-0.0554-5.964-1.7158-9.0186l-16.222-29.842c-0.57824-1.2184-1.5501-2.1266-3.906-2.1266z" fill-opacity="0.078"/>
 <path d="m17.372 4.9206c-6.7632 0-12.219 5.4555-12.219 12.219v61.906c0 6.7632 5.4555 12.219 12.219 12.219h61.562c6.7632 0 12.219-5.4555 12.219-12.219v-33.794c-0.0346-3.5165-0.0841-5.7358-1.6885-8.6896l-16.237-29.895c-0.43675-0.77203-1.3586-1.7467-3.3394-1.7467z" fill-opacity="0.157"/>
 <path d="m17.747 5.5143c-6.6418 0-11.969 5.3946-11.969 12.062v61.031c0 6.668 5.327 12.031 11.969 12.031h60.813c6.6418 0 11.969-5.3632 11.969-12.031l-0.06245-33.438c-0.0731-3.3855-0.11339-5.4702-1.6562-8.3125l-16.283-29.967c-0.544-0.7689-1.558-1.3403-2.625-1.3747z" fill="url(#linearGradient8339)"/>
 <path d="m214.24-69.17c-3.324 0-6 2.676-6 6v2 68 2c0 0.33472 0.0413 0.6507 0.0937 0.96875 0.0487 0.2956 0.097 0.59692 0.1875 0.875 0.01 0.03038 0.0209 0.0636 0.0313 0.09375 0.0989 0.28777 0.23488 0.54745 0.375 0.8125 0.14459 0.27351 0.31562 0.53562 0.5 0.78125 0.18438 0.24564 0.37378 0.47347 0.59375 0.6875 0.43995 0.42806 0.94291 0.81453 1.5 1.0938 0.27855 0.13961 0.57347 0.24695 0.875 0.34375-0.2562-0.10022-0.48671-0.23627-0.71875-0.375-0.007-0.0044-0.0239 0.0045-0.0313 0-0.0319-0.0193-0.0623-0.04251-0.0937-0.0625-0.1204-0.0767-0.23102-0.16351-0.34375-0.25-0.10617-0.0808-0.21328-0.16111-0.3125-0.25-0.17793-0.16143-0.34746-0.34539-0.5-0.53125-0.10758-0.13026-0.21839-0.26528-0.3125-0.40625-0.0251-0.03838-0.0385-0.08587-0.0625-0.125-0.0648-0.10303-0.13023-0.20452-0.1875-0.3125-0.10101-0.19471-0.20568-0.4157-0.28125-0.625-0.008-0.02181-0.0236-0.04055-0.0313-0.0625-0.0318-0.09195-0.0358-0.18683-0.0625-0.28125-0.0303-0.10662-0.0704-0.20303-0.0937-0.3125-0.0729-0.34151-0.125-0.6982-0.125-1.0625v-2-68-2c0-2.7818 2.2182-5 5-5h2 68 2c2.7818 0 5 2.2182 5 5v2 68 2c0 0.3643-0.0521 0.72099-0.125 1.0625-0.0442 0.20689-0.0884 0.39766-0.15625 0.59375-0.008 0.02195-0.0233 0.04069-0.0313 0.0625-0.0627 0.17374-0.13838 0.36745-0.21875 0.53125-0.0416 0.0828-0.079 0.16995-0.125 0.25-0.0546 0.09721-0.12677 0.18835-0.1875 0.28125-0.0941 0.14096-0.20492 0.276-0.3125 0.40625-0.14317 0.17445-0.30314 0.347-0.46875 0.5-0.0112 0.0102-0.02 0.02115-0.0313 0.03125-0.13839 0.12556-0.28509 0.23444-0.4375 0.34375-0.10257 0.07315-0.20432 0.15336-0.3125 0.21875-0.007 0.0045-0.0238-0.0044-0.0313 0-0.23204 0.13873-0.46255 0.27478-0.71875 0.375 0.30153-0.0968 0.59646-0.20414 0.875-0.34375 0.55709-0.27922 1.06-0.66569 1.5-1.0938 0.21997-0.21403 0.40937-0.44186 0.59375-0.6875s0.35541-0.50774 0.5-0.78125c0.14012-0.26505 0.27613-0.52473 0.375-0.8125 0.0104-0.03078 0.0213-0.06274 0.0313-0.09375 0.0905-0.27808 0.1388-0.5794 0.1875-0.875 0.0524-0.31805 0.0937-0.63403 0.0937-0.96875v-2-68-2c0-3.324-2.676-6-6-6h-72z" fill="url(#linearGradient35376)" opacity="0.5"/>
 <path d="m214.24 14.83c-3.324 0-6-2.676-6-6v-2-68-2c0-0.33472 0.0413-0.6507 0.0937-0.96875 0.0487-0.2956 0.097-0.59692 0.1875-0.875 0.01-0.03038 0.0209-0.0636 0.0313-0.09375 0.0989-0.28777 0.23488-0.54745 0.375-0.8125 0.14459-0.27351 0.31562-0.53562 0.5-0.78125 0.18438-0.24564 0.37378-0.47347 0.59375-0.6875 0.43995-0.42806 0.94291-0.81453 1.5-1.0938 0.27855-0.13961 0.57347-0.24695 0.875-0.34375-0.2562 0.10022-0.48671 0.23627-0.71875 0.375-0.007 0.0044-0.0239-0.0045-0.0313 0-0.0319 0.0193-0.0623 0.04251-0.0937 0.0625-0.1204 0.0767-0.23102 0.16351-0.34375 0.25-0.10617 0.0808-0.21328 0.16111-0.3125 0.25-0.17793 0.16143-0.34746 0.34539-0.5 0.53125-0.10758 0.13026-0.21839 0.26528-0.3125 0.40625-0.0251 0.03838-0.0385 0.08587-0.0625 0.125-0.0648 0.10303-0.13023 0.20452-0.1875 0.3125-0.10101 0.19471-0.20567 0.4157-0.28125 0.625-0.008 0.02181-0.0236 0.04055-0.0313 0.0625-0.0318 0.09195-0.0358 0.18683-0.0625 0.28125-0.0303 0.10662-0.0704 0.20303-0.0937 0.3125-0.0729 0.34151-0.125 0.6982-0.125 1.0625v2 68 2c0 2.7818 2.2182 5 5 5h2 68 2c2.7818 0 5-2.2182 5-5v-2-68-2c0-0.3643-0.0521-0.72099-0.125-1.0625-0.0442-0.20689-0.0884-0.39766-0.15625-0.59375-0.008-0.02195-0.0233-0.04069-0.0313-0.0625-0.0627-0.17374-0.13838-0.36745-0.21875-0.53125-0.0416-0.0828-0.079-0.16995-0.125-0.25-0.0546-0.09721-0.12677-0.18835-0.1875-0.28125-0.0941-0.14096-0.20492-0.276-0.3125-0.40625-0.14317-0.17445-0.30314-0.347-0.46875-0.5-0.0112-0.0102-0.02-0.02115-0.0313-0.03125-0.13839-0.12556-0.28509-0.23444-0.4375-0.34375-0.10257-0.07315-0.20432-0.15336-0.3125-0.21875-0.007-0.0045-0.0238 0.0044-0.0313 0-0.23204-0.13873-0.46255-0.27478-0.71875-0.375 0.30153 0.0968 0.59646 0.20414 0.875 0.34375 0.55709 0.27922 1.06 0.66569 1.5 1.0938 0.21997 0.21403 0.40937 0.44186 0.59375 0.6875s0.35541 0.50774 0.5 0.78125c0.14012 0.26505 0.27613 0.52473 0.375 0.8125 0.0104 0.03078 0.0213 0.06274 0.0313 0.09375 0.0905 0.27808 0.1388 0.5794 0.1875 0.875 0.0524 0.31805 0.0937 0.63403 0.0937 0.96875v2 68 2c0 3.324-2.676 6-6 6h-72z" fill="url(#radialGradient35373)" opacity="0.4"/>
 <path d="m17.75 5.5c-6.642 0-11.969 5.395-11.969 12.062l0.0002 13.626h79.969l-13.219-24.313c-0.544-0.7692-1.558-1.3406-2.625-1.375h-52.156z" fill="url(#linearGradient10559)"/>
 <g fill="#fff" transform="matrix(0.35049 0 0 0.35383 153.61 41.908)">
  <use xlink:href="#SVGCleanerId_0"/>
  <use xlink:href="#SVGCleanerId_1"/>
  <use xlink:href="#SVGCleanerId_2"/>
  <use xlink:href="#SVGCleanerId_3"/>
  <use xlink:href="#SVGCleanerId_4"/>
  <use xlink:href="#SVGCleanerId_5"/>
  <use xlink:href="#SVGCleanerId_6"/>
 </g>
 <g fill="#fff" transform="matrix(1 0 0 1 110.87 30.09)">
  <use xlink:href="#SVGCleanerId_7"/>
  <use xlink:href="#SVGCleanerId_8"/>
  <use xlink:href="#SVGCleanerId_9"/>
 </g>
 <path d="m45.723 56.898c-0.00003 2.7862-0.2552 5.1379-0.76552 7.0552-0.51036 1.9035-1.2207 3.4483-2.131 4.6345-0.89658 1.1724-1.9655 2.0207-3.2069 2.5448-1.2276 0.51035-2.5724 0.76552-4.0345 0.76552s-2.8069-0.25517-4.0345-0.76552c-1.2276-0.51034-2.2828-1.3517-3.1655-2.5241-0.88276-1.1862-1.5724-2.731-2.069-4.6345-0.49655-1.9172-0.74483-4.2758-0.74483-7.0759 0-2.9379 0.24138-5.3655 0.72415-7.2828 0.49654-1.931 1.1931-3.4689 2.0896-4.6138 0.89655-1.1448 1.9655-1.9448 3.2069-2.4 1.2552-0.46894 2.6414-0.70342 4.1586-0.70345 1.4207 0.00003 2.7379 0.23451 3.9517 0.70345 1.2276 0.4552 2.2827 1.2552 3.1655 2.4 0.89654 1.1448 1.5931 2.6828 2.0897 4.6138 0.51032 1.9173 0.76549 4.3448 0.76552 7.2828m-5.8345 0c-0.00002-2.0552-0.0759-3.7517-0.22759-5.0896-0.15174-1.3517-0.39312-2.4207-0.72414-3.2069-0.33105-0.79998-0.76553-1.3586-1.3034-1.6759-0.52415-0.31722-1.1655-0.47584-1.9241-0.47586-0.81381 0.00002-1.4966 0.16554-2.0483 0.49655-0.55173 0.31726-1 0.87588-1.3448 1.6759-0.33104 0.80002-0.57242 1.8759-0.72413 3.2276-0.13795 1.338-0.20691 3.0207-0.2069 5.0483-0.00001 2 0.0758 3.669 0.22758 5.0069 0.15172 1.3379 0.3931 2.4138 0.72414 3.2276 0.33103 0.80001 0.76551 1.3655 1.3034 1.6966 0.53792 0.33104 1.2 0.49656 1.9862 0.49656 0.75861 0 1.4069-0.16552 1.9448-0.49656 0.53792-0.33103 0.9793-0.89654 1.3241-1.6966 0.34481-0.81378 0.59309-1.8896 0.74483-3.2276 0.1655-1.3379 0.24826-3.0069 0.24828-5.0069" opacity="0.8"/>
 <path d="m52.857 71.898v-4.45h5.7156v-19.604l-5.4814 4.4925v-5.563l5.8008-4.8758h5.6636v25.55h5.1621v4.45h-16.861" opacity="0.8"/>
 <g fill="#fff" transform="matrix(1 0 0 1 29.769 -127.03)">
  <g transform="matrix(0.35049 0 0 0.35383 10.199 140.8)">
   <use xlink:href="#SVGCleanerId_0"/>
   <use xlink:href="#SVGCleanerId_1"/>
   <use xlink:href="#SVGCleanerId_2"/>
   <use xlink:href="#SVGCleanerId_3"/>
   <use xlink:href="#SVGCleanerId_4"/>
   <use xlink:href="#SVGCleanerId_5"/>
   <use xlink:href="#SVGCleanerId_6"/>
  </g>
  <g transform="matrix(1 0 0 1 -32.54 128.97)">
   <use xlink:href="#SVGCleanerId_7"/>
   <use xlink:href="#SVGCleanerId_8"/>
   <use xlink:href="#SVGCleanerId_9"/>
  </g>
 </g>
 <g fill="#4d4d4d" transform="matrix(1 0 0 1 -0.955 -5.368)">
  <path d="m14 41.959v-2.8958h0.39255v2.5752h1.4633v0.32062h-1.8559"/>
  <path d="m17.5 42c-0.15894 0-0.30966-0.02124-0.45215-0.06371-0.1425-0.04248-0.26787-0.10824-0.37611-0.1973-0.10687-0.09043-0.19182-0.20415-0.25485-0.34117-0.06303-0.13838-0.09454-0.30212-0.09454-0.4912v-1.8435h0.39255v1.8107c-0.000001 0.14661 0.01918 0.27129 0.05755 0.37405 0.03973 0.10139 0.09454 0.18429 0.16442 0.24868 0.06988 0.0644 0.15209 0.11167 0.24663 0.14181 0.09591 0.02877 0.20073 0.04316 0.31445 0.04316 0.11235 0 0.21854-0.01507 0.31856-0.04521s0.18771-0.0781 0.26307-0.14387 0.13427-0.1514 0.17675-0.2569c0.04384-0.10687 0.06576-0.23635 0.06577-0.38844v-1.7839h0.39049v1.8066c-0.000003 0.19319-0.0322 0.36104-0.0966 0.50353-0.06303 0.14113-0.14935 0.25828-0.25896 0.35144-0.10962 0.09317-0.23841 0.16236-0.38638 0.20758-0.14661 0.04521-0.30349 0.06782-0.47065 0.06782"/>
  <path d="m21.263 41.959-1.5496-2.4663c0.0027 0.06714 0.0062 0.13359 0.01028 0.19936 0.0027 0.05618 0.0048 0.11578 0.0062 0.1788 0.0027 0.06166 0.0041 0.11647 0.0041 0.16442v1.9237h-0.34939v-2.8958h0.45626l1.5661 2.4827c-0.0041-0.06714-0.0082-0.13428-0.01233-0.20141-0.0027-0.05755-0.0055-0.11989-0.0082-0.18703-0.0027-0.06851-0.0041-0.13359-0.0041-0.19525v-1.899h0.3535v2.8958h-0.4727"/>
  <path d="m24.919 40.481c-0.000003 0.24115-0.03631 0.45421-0.10893 0.63918-0.07262 0.1836-0.17196 0.33774-0.29801 0.46243-0.12606 0.12331-0.2754 0.21717-0.44804 0.28157-0.17127 0.06303-0.35624 0.09454-0.55491 0.09454h-1.0831v-2.8958h0.95774c0.22333 0.000002 0.42886 0.02809 0.61657 0.08426 0.18908 0.05481 0.35144 0.14044 0.48709 0.2569 0.13564 0.1151 0.24114 0.2617 0.31651 0.43982 0.07673 0.17812 0.11509 0.3905 0.11509 0.63712m-0.3946 0c-0.000002-0.19593-0.02809-0.36309-0.08426-0.50148-0.05618-0.13975-0.13496-0.25416-0.23635-0.34322s-0.22265-0.15414-0.36378-0.19525c-0.14113-0.04247-0.29596-0.06371-0.46448-0.06371h-0.55697v2.2669h0.64534c0.15209 0 0.29253-0.02466 0.42132-0.07399 0.13016-0.04932 0.24252-0.12263 0.33706-0.21991s0.16853-0.21854 0.22196-0.36378 0.08015-0.31376 0.08015-0.50559"/>
  <path d="m25.511 41.959v-2.8958h0.39255v2.8958h-0.39255"/>
 </g>
 <path d="m71.473 4.4296c-7.4721 3.35-12.688 10.913-12.688 19.719 0 11.911 9.5167 21.562 21.281 21.562 4.3866 0 8.4555-1.3551 11.844-3.6562l-20.437-37.625z" stroke-width="0.1" fill="url(#radialGradient8416)"/>
 <path d="m72.4 6.5777c-0.341-0.3041-0.564-0.3884-0.564-0.3884s0.83487 0.58215-0.16423 2.3199c-3.6996 5.3693-2.6956 12.724 2.4663 16.827l13.888 11.014c0.78033 0.57546 0.96083 0.84746 1.2481 1.2895z" fill="#ccc"/>
 <path d="m72.648 6.9456c-0.26811-0.37128-0.48292-0.5133-0.48292-0.5133s0.74441 0.70007-0.21905 2.3758c-3.5676 5.1777-2.5994 12.27 2.3783 16.227l13.393 10.621c0.75249 0.55493 0.92655 0.81722 1.2036 1.2435z" fill="#fff"/>
</svg>
