<svg height="96" width="96" xmlns="http://www.w3.org/2000/svg" xmlns:xlink="http://www.w3.org/1999/xlink" xmlns:sodipodi="http://sodipodi.sourceforge.net/DTD/sodipodi-0.dtd" xmlns:inkscape="http://www.inkscape.org/namespaces/inkscape">
 <defs>
  <linearGradient id="linearGradient15916">
   <stop stop-color="#b4b4b4"/>
   <stop stop-color="#b4b4b4" stop-opacity="0" offset="1"/>
  </linearGradient>
  <linearGradient x1="320.6" x2="293.81" xlink:href="#linearGradient15916" y1="345.4" y2="361.49" gradientUnits="userSpaceOnUse" id="linearGradient16007" gradientTransform="matrix(1 0 0 1 -224.93 -343.08)"/>
  <radialGradient cy="360.77" r="21.302" xlink:href="#linearGradient15916" gradientUnits="userSpaceOnUse" id="radialGradient16049" cx="303.16" gradientTransform="matrix(0.44073 -0.24657 0.39119 0.69922 -196.87 -156.28)"/>
  <linearGradient x2="0" y1="90" y2="5.988" gradientUnits="userSpaceOnUse" id="linearGradient28823" gradientTransform="matrix(1.0959 0 0 1.0685 -4.442 -3.204)">
   <stop stop-color="#ebebeb"/>
   <stop stop-color="#fafafa" offset="1"/>
  </linearGradient>
  <clipPath clipPathUnits="userSpaceOnUse" id="clipPath34459">
   <path d="m14.526 5.5143c-6.6418 0-11.969 5.3946-11.969 12.062v61.031c0 6.668 5.327 12.031 11.969 12.031h60.812c6.6418 0 11.969-5.3633 11.969-12.031l-0.06253-33.437c-0.07313-3.3855-0.11339-5.4702-1.6563-8.3125l-16.28-29.969c-0.545-0.7689-1.559-1.3403-2.625-1.3747z"/>
  </clipPath>
  <radialGradient cy="50.24" r="42.39" gradientUnits="userSpaceOnUse" id="radialGradient9183" cx="44.36" gradientTransform="matrix(1 0 0 1.7445 0 -37.41)">
   <stop stop-color="#e9e9e9"/>
   <stop stop-color="#828282" offset="1"/>
  </radialGradient>
 </defs>
 <path d="m16.059 3.1081c-7.049 0-12.719 5.6697-12.719 12.719v64.531c0 7.049 5.6697 12.719 12.719 12.719h64.188c7.049 0 12.719-5.6697 12.719-12.719v-35.013c-0.0367-3.8222-0.0417-6.3452-1.8012-9.5856l-16.206-29.842c-1.0788-1.8835-2.0313-2.8088-5.1346-2.8088z" fill-opacity="0.02"/>
 <path d="m16.497 3.7018c-6.9538 0-12.531 5.6087-12.531 12.562v63.656c0 6.9538 5.5775 12.531 12.531 12.531h63.312c6.9538 0 12.562-5.5775 12.562-12.531v-34.607c-0.0741-3.7145-0.0646-6.1373-1.775-9.2846l-16.222-29.849c-0.90306-1.708-1.7952-2.4773-4.5338-2.4773z" fill-opacity="0.039"/>
 <path d="m16.934 4.3268c-6.8585 0-12.375 5.5165-12.375 12.375v62.781c0 6.8585 5.5165 12.375 12.375 12.375h62.438c6.8585 0 12.375-5.5165 12.375-12.375v-34.169c-0.0596-3.6037-0.0554-5.964-1.7158-9.0186l-16.222-29.842c-0.57824-1.2184-1.5501-2.1266-3.906-2.1266z" fill-opacity="0.078"/>
 <path d="m17.372 4.9206c-6.7632 0-12.219 5.4555-12.219 12.219v61.906c0 6.7632 5.4555 12.219 12.219 12.219h61.562c6.7632 0 12.219-5.4555 12.219-12.219v-33.794c-0.0346-3.5165-0.0841-5.7358-1.6885-8.6896l-16.237-29.895c-0.43675-0.77203-1.3586-1.7467-3.3394-1.7467z" fill-opacity="0.157"/>
 <path d="m17.747 5.5143c-6.6418 0-11.969 5.3946-11.969 12.062v61.031c0 6.668 5.327 12.031 11.969 12.031h60.812c6.6418 0 11.969-5.3633 11.969-12.031l-0.06253-33.437c-0.07313-3.3855-0.11339-5.4702-1.6563-8.3125l-16.281-29.969c-0.544-0.7689-1.558-1.3403-2.625-1.3747z" fill="url(#linearGradient28823)"/>
 <path d="m5.7709 77.595v1.0133c0 6.668 5.3434 12.032 11.985 12.032h60.809c6.6418 0 11.985-5.3645 11.985-12.032v-1.0133c0 6.6681-5.3434 12.032-11.985 12.032h-60.809c-6.6418 0-11.985-5.3644-11.985-12.032z" fill-opacity="0.098"/>
 <g clip-path="url(#clipPath34459)" transform="matrix(1 0 0 1 3.22 0)">
  <path d="m8.0508-23.697c-3.3544 0-6.078 2.6779-6.078 6.0323v65.944 3.9301 65.944c0 3.3544 2.7236 6.0323 6.078 6.0323h72.616c3.3544 0 6.078-2.6779 6.078-6.0323v-65.944-3.9301-65.944c0-3.3544-2.7236-6.0323-6.078-6.0323h-72.616zm-2.0564 4.0215h6.078v4.0672h-6.078v-4.0672zm70.651 0h6.078v4.0672h-6.078v-4.0672zm-70.651 8.0887h6.078v4.0215h-6.078v-4.0215zm70.651 0h6.078v4.0215h-6.078v-4.0215zm-70.651 8.0887h6.078v4.0215h-6.078v-4.0215zm70.651 0h6.078v4.0215h-6.078v-4.0215zm-70.651 8.043h6.078v4.0672h-6.078v-4.0672zm70.651 0h6.078v4.0672h-6.078v-4.0672zm-70.651 8.0887h6.078v4.0215h-6.078v-4.0215zm70.651 0h6.078v4.0215h-6.078v-4.0215zm-70.651 8.0887h6.078v4.0215h-6.078v-4.0215zm70.651 0h6.078v4.0215h-6.078v-4.0215zm-70.651 8.043h6.078v4.0672h-6.078v-4.0672zm70.651 0h6.078v4.0672h-6.078v-4.0672zm-70.651 8.0887h6.078v4.0215h-6.078v-4.0215zm70.651 0h6.078v4.0215h-6.078v-4.0215zm-70.651 8.0887h6.078v3.336h-6.078v-3.336zm70.651 0h6.078v3.336h-6.078v-3.336zm-70.651 7.2661h6.078v3.336h-6.078v-3.336zm70.651 0h6.078v3.336h-6.078v-3.336zm-70.651 7.4032h6.078v4.0215h-6.078v-4.0215zm70.651 0h6.078v4.0215h-6.078v-4.0215zm-70.651 8.043h6.078v4.0672h-6.078v-4.0672zm70.651 0h6.078v4.0672h-6.078v-4.0672zm-70.651 8.0887h6.078v4.0215h-6.078v-4.0215zm70.651 0h6.078v4.0215h-6.078v-4.0215zm-70.651 8.0887h6.078v4.0215h-6.078v-4.0215zm70.651 0h6.078v4.0215h-6.078v-4.0215zm-70.651 8.043h6.078v4.0672h-6.078v-4.0672zm70.651 0h6.078v4.0672h-6.078v-4.0672zm-70.651 8.0887h6.078v4.0215h-6.078v-4.0215zm70.651 0h6.078v4.0215h-6.078v-4.0215zm-70.651 8.0887h6.078v4.0215h-6.078v-4.0215zm70.651 0h6.078v4.0215h-6.078v-4.0215zm-70.651 8.043h6.078v4.0672h-6.078v-4.0672zm70.651 0h6.078v4.0672h-6.078v-4.0672z" fill="url(#radialGradient9183)"/>
  <rect x="16.1" rx="2.02" ry="2.119" y="23.931" fill="#e6e6e6" height="48.44" width="56.51"/>
  <rect x="16.1" rx="2.02" ry="2.119" y="77.54" fill="#e6e6e6" height="48.44" width="56.51"/>
  <rect x="16.1" rx="2.02" ry="2.119" y="-28.763" fill="#e6e6e6" height="48.44" width="56.51"/>
  <rect x="24.12" stroke-width="0.1" rx="8.545" ry="8.72" y="30.588" fill="#ffb380" height="34.746" width="39.841"/>
 </g>
 <path d="m57.562 5.7188v85.125h20.907c6.642 0 11.969-5.364 11.969-12.032v-61.031c0-0.923-0.119-1.792-0.313-2.656 0.159 0.786 0.25 1.604 0.25 2.437v27.813c-0.073-3.385-0.113-5.47-1.656-8.313l-16.281-29.968c-0.54-0.7627-1.39-1.1624-2.594-1.3752h-12.282z" fill="url(#linearGradient16007)"/>
 <path d="m71.219 4.5312c-7.472 3.35-12.688 10.913-12.688 19.719 0 11.911 9.517 21.562 21.281 21.562 4.387 0 8.456-1.355 11.844-3.656l-20.437-37.625z" stroke-width="0.1" fill="url(#radialGradient16049)"/>
 <path d="m72.145 6.6794c-0.27803-0.38501-0.50079-0.53229-0.50079-0.53229s0.77195 0.72597-0.22715 2.4637c-3.6996 5.3693-2.6956 12.724 2.4663 16.827l13.888 11.014c0.78033 0.57546 0.96083 0.84746 1.2481 1.2895z" fill="#ccc"/>
 <path d="m72.394 7.0473c-0.26811-0.37128-0.48292-0.5133-0.48292-0.5133s0.74441 0.70007-0.21905 2.3758c-3.5676 5.1777-2.5994 12.27 2.3783 16.227l13.393 10.621c0.75249 0.55493 0.92655 0.81722 1.2036 1.2435z" fill="#fff"/>
 <g fill="#f60" transform="matrix(1.4592 0 0 1.3839 -18.822 -24.297)">
  <path d="m40.768 44.321v16.562l13.816-8.2809-13.816-8.2809z"/>
  <path d="m40.66 43.674a0.65664 0.65664 0 0 0 -0.53912 0.64694v16.562a0.65664 0.65664 0 0 0 0.99198 0.56068l13.823-8.2809a0.65664 0.65664 0 0 0 0 -1.1214l-13.823-8.282a0.65664 0.65664 0 0 0 -0.45286 -0.08626z" opacity="0.2"/>
  <path d="m40.789 42.898c-0.87081-0.02335-1.5466 0.83731-1.4233 1.6788v16.5c0.11683 0.96306 1.312 1.5488 2.1349 1.0135 4.6376-2.7725 9.2658-5.5622 13.909-8.324 0.65209-0.46291 0.82176-1.473 0.25878-2.0702-0.5072-0.49518-1.2002-0.77226-1.7918-1.1686-4.1613-2.493-8.3228-4.9857-12.484-7.4788-0.18923-0.09378-0.39931-0.11302-0.60381-0.15095z" opacity="0.05"/>
 </g>
</svg>
