<svg height="96" width="96" xmlns="http://www.w3.org/2000/svg" xmlns:xlink="http://www.w3.org/1999/xlink">
 <defs>
  <linearGradient id="linearGradient15916">
   <stop stop-color="#b4b4b4"/>
   <stop stop-color="#b4b4b4" stop-opacity="0" offset="1"/>
  </linearGradient>
  <radialGradient cy="360.77" r="21.302" xlink:href="#linearGradient15916" gradientUnits="userSpaceOnUse" id="radialGradient9011" cx="303.16" gradientTransform="matrix(0.44073 -0.24657 0.39119 0.69922 -196.61 -156.38)"/>
  <linearGradient x1="320.6" x2="293.81" xlink:href="#linearGradient15916" y1="345.4" y2="361.49" gradientUnits="userSpaceOnUse" id="linearGradient9020" gradientTransform="matrix(1 0 0 1 -224.68 -343.18)"/>
  <linearGradient x2="0" y1="80" y2="16" gradientUnits="userSpaceOnUse" id="linearGradient8294" gradientTransform="matrix(1 0 0 1 90.88 -1.376)">
   <stop stop-color="#d5d5d5"/>
   <stop stop-color="#e3e3e3" offset="1"/>
  </linearGradient>
  <linearGradient x2="0" y1="90" y2="5.988" gradientUnits="userSpaceOnUse" id="linearGradient9084" gradientTransform="matrix(1.0959 0 0 1.0685 -4.442 -3.204)">
   <stop stop-color="#ebebeb"/>
   <stop stop-color="#fafafa" offset="1"/>
  </linearGradient>
  <linearGradient x2="0" y1="89.64" y2="6.507" gradientUnits="userSpaceOnUse" id="linearGradient8270" gradientTransform="matrix(1.5099 0 0 1.1775 -7.968 -5.04)">
   <stop stop-color="#7dbb33"/>
   <stop stop-color="#9ed35f" offset="1"/>
  </linearGradient>
 </defs>
 <path d="m16.059 3.1081c-7.049 0-12.719 5.6697-12.719 12.719v64.531c0 7.049 5.6697 12.719 12.719 12.719h64.188c7.049 0 12.719-5.6697 12.719-12.719v-35.013c-0.0367-3.8222-0.0417-6.3452-1.8012-9.5856l-16.206-29.842c-1.0788-1.8835-2.0313-2.8088-5.1346-2.8088z" fill-opacity="0.02"/>
 <path d="m16.497 3.7018c-6.9538 0-12.531 5.6087-12.531 12.562v63.656c0 6.9538 5.5775 12.531 12.531 12.531h63.312c6.9538 0 12.562-5.5775 12.562-12.531v-34.607c-0.0741-3.7145-0.0646-6.1373-1.775-9.2846l-16.222-29.849c-0.90306-1.708-1.7952-2.4773-4.5338-2.4773z" fill-opacity="0.039"/>
 <path d="m16.934 4.3268c-6.8585 0-12.375 5.5165-12.375 12.375v62.781c0 6.8585 5.5165 12.375 12.375 12.375h62.438c6.8585 0 12.375-5.5165 12.375-12.375v-34.169c-0.0596-3.6037-0.0554-5.964-1.7158-9.0186l-16.222-29.842c-0.57824-1.2184-1.5501-2.1266-3.906-2.1266z" fill-opacity="0.078"/>
 <path d="m17.372 4.9206c-6.7632 0-12.219 5.4555-12.219 12.219v61.906c0 6.7632 5.4555 12.219 12.219 12.219h61.562c6.7632 0 12.219-5.4555 12.219-12.219v-33.794c-0.0346-3.5165-0.0841-5.7358-1.6885-8.6896l-16.237-29.895c-0.43675-0.77203-1.3586-1.7467-3.3394-1.7467z" fill-opacity="0.157"/>
 <path d="m23.375 90.625h55.187c6.642 0 11.969-5.363 11.969-12.031l-0.062-33.438c-0.073-3.385-0.114-5.47-1.657-8.312l-16.281-29.969c-0.544-0.7692-1.558-1.3406-2.625-1.375h-46.531v85.125z" fill="url(#linearGradient9084)"/>
 <path d="m17.75 5.5c-6.642 0-11.969 5.344-11.969 11.938l0.0002 60.343c0 6.593 5.3268 11.875 11.969 11.875h5.625v-84.156h-5.625z" fill="url(#linearGradient8270)" color="#000000"/>
 <path d="m5.7709 77.595v1.0133c0 6.668 5.3434 12.032 11.985 12.032h60.809c6.6418 0 11.985-5.3645 11.985-12.032v-1.0133c0 6.6681-5.3434 12.032-11.985 12.032h-60.809c-6.6418 0-11.985-5.3644-11.985-12.032z" fill-opacity="0.098"/>
 <g transform="matrix(0.90027 0 0 0.90027 -77.25 5.946)">
  <path d="m123.88 14.624v7 57h8v-56h40v-8h-41-7z" fill="url(#linearGradient8294)" color="#000000"/>
  <rect x="150.88" y="37.624" fill="#80d818" color="#000000" height="9" opacity="0.5" width="21"/>
  <rect x="150.88" y="22.624" fill="#80d818" color="#000000" height="15" opacity="0.2" width="21"/>
  <rect x="131.88" y="37.624" fill="#80d818" color="#000000" height="9" opacity="0.2" width="19"/>
  <path d="m130.88 13.624v8h-8v1h8v7h-8v1h8v7h-8v1h8v7h-8v1h8v7h-8v1h8v7h-8v1h8v7h-8v1h8v9h1v-9h19v9h1v-9h21v-1h-21v-7h21v-1h-21v-7h21v-1h-21v-7h21v-1h-21v-7h21v-1h-21v-7h21v-1h-21v-7h21v-1h-21v-8h-1v8h-19v-8h-1zm1 9h19v7h-19v-7zm0 8h19v7h-19v-7zm0 8h19v7h-19v-7zm0 8h19v7h-19v-7zm0 8h19v7h-19v-7zm0 8h19v7h-19v-7z" color="#000000" opacity="0.2"/>
  <path d="m122.88 13.624v0.5 65 0.5h0.5 49 0.5v-0.5-65-0.5h-0.5-49-0.5zm1 1h48v64h-48v-64z" fill="#808080" color="#000000"/>
  <rect x="123.88" y="37.624" fill="#6e6e6e" color="#000000" height="9" opacity="0.2" width="8"/>
  <rect x="150.88" y="13.624" fill="#6e6e6e" color="#000000" height="9" opacity="0.2" width="21"/>
  <path d="m51.213 21-0.24414-0.70312h-1.0488l-0.244 0.703h-0.57617l1.0039-2.752h0.67969l1 2.752h-0.57031m-0.64453-1.9277c-0.01563-0.04557-0.03125-0.09114-0.04687-0.13672-0.01432-0.04687-0.02735-0.08919-0.03906-0.12695-0.01042-0.03906-0.01953-0.07096-0.02734-0.0957-0.0065-0.02474-0.01042-0.03841-0.01172-0.04102-0.0013 0.0039-0.0052 0.01823-0.01172 0.04297-0.0065 0.02474-0.01563 0.05599-0.02734 0.09375-0.01042 0.03776-0.02344 0.08008-0.03906 0.12695-0.01432 0.04557-0.0293 0.09115-0.04492 0.13672l-0.27148 0.79102h0.79102l-0.27148-0.79102" fill="#4d4d4d" transform="matrix(1 0 0 1 90.88 -1.376)"/>
  <path d="m71.707 20.215c-0.000002 0.13932-0.028 0.25912-0.08398 0.35938-0.05599 0.09896-0.13282 0.18034-0.23047 0.24414-0.09636 0.0625-0.20899 0.10872-0.33789 0.13867-0.129 0.029-0.266 0.043-0.41 0.043h-1.377v-2.752h1.2598c0.16276 0.000003 0.30729 0.01433 0.43359 0.04297 0.1276 0.02735 0.23502 0.06966 0.32227 0.12695 0.08724 0.05729 0.15299 0.12956 0.19727 0.2168 0.04557 0.08594 0.06836 0.1875 0.06836 0.30469-0.000002 0.15625-0.04362 0.28841-0.13086 0.39648-0.08594 0.10677-0.21745 0.17904-0.39453 0.2168 0.22266 0.02604 0.39192 0.09636 0.50781 0.21094 0.11718 0.11328 0.17578 0.26367 0.17578 0.45117m-0.739-1.197c-0.000002-0.1237-0.03972-0.21159-0.11914-0.26367-0.07813-0.05208-0.19466-0.07812-0.34961-0.07813h-0.65625v0.68164h0.66016c0.16276 0.000002 0.2806-0.02799 0.35352-0.08398 0.07422-0.05729 0.11133-0.14258 0.11133-0.25586m0.16016 1.1523c-0.000002-0.07292-0.01432-0.13411-0.04297-0.18359s-0.06836-0.08919-0.11914-0.11914c-0.04948-0.02995-0.10808-0.05143-0.17578-0.06445-0.06641-0.01302-0.13867-0.01953-0.2168-0.01953h-0.73047v0.78906h0.75195c0.07552 0 0.14583-0.0059 0.21094-0.01758 0.0651-0.01302 0.12109-0.0345 0.16797-0.06445 0.04818-0.03125 0.08594-0.07292 0.11328-0.125s0.04101-0.11719 0.04102-0.19531" fill="#4d4d4d" transform="matrix(1 0 0 1 90.88 -1.376)"/>
  <path d="m35.584 29v-0.4082h0.68164v-1.877l-0.66016 0.41211v-0.43164l0.68945-0.44726h0.51953v2.3438h0.63086v0.4082h-1.8613" fill="#4d4d4d" transform="matrix(1 0 0 1 90.88 -1.376)"/>
  <path d="m35.471 37v-0.38086c0.0625-0.13672 0.13867-0.25976 0.22852-0.36914 0.08984-0.11068 0.18359-0.21159 0.28125-0.30273 0.09896-0.09245 0.19661-0.17773 0.29297-0.25586 0.09766-0.07943 0.1849-0.1556 0.26172-0.22852 0.07812-0.07422 0.14128-0.14844 0.18945-0.22266 0.04818-0.07422 0.07227-0.15299 0.07227-0.23633-0.000001-0.12239-0.0306-0.21289-0.0918-0.27148s-0.15104-0.08789-0.26953-0.08789c-0.11719 0.000003-0.20703 0.0319-0.26953 0.0957-0.0612 0.0625-0.10091 0.1569-0.11914 0.2832l-0.55273-0.03125c0.01302-0.10807 0.03971-0.20963 0.08008-0.30469 0.04036-0.09505 0.09766-0.17838 0.17188-0.25 0.07552-0.07161 0.16927-0.1276 0.28125-0.16797 0.11328-0.04166 0.24805-0.0625 0.4043-0.0625 0.14844 0.000003 0.27995 0.01758 0.39453 0.05273 0.11458 0.03386 0.21094 0.08399 0.28906 0.15039 0.07812 0.06641 0.13737 0.14779 0.17774 0.24414 0.04036 0.09505 0.06054 0.20378 0.06055 0.32617-0.000002 0.12891-0.02539 0.24544-0.07617 0.34961s-0.11589 0.20052-0.19531 0.28906c-0.07943 0.08724-0.16797 0.16927-0.26562 0.24609-0.09636 0.07682-0.1901 0.15169-0.28125 0.22461s-0.17448 0.14648-0.25 0.2207c-0.07422 0.07422-0.12956 0.15365-0.16602 0.23828h1.2773v0.45117h-1.9258" fill="#4d4d4d" transform="matrix(1 0 0 1 90.88 -1.376)"/>
  <path d="m37.412 44.236c-0.000002 0.125-0.02083 0.23763-0.0625 0.33789-0.04037 0.09896-0.10156 0.18359-0.18359 0.25391-0.08203 0.07031-0.18425 0.12435-0.30664 0.16211-0.1211 0.03646-0.26237 0.05469-0.42383 0.05469-0.17969 0-0.33138-0.02279-0.45508-0.06836-0.1224-0.04557-0.22331-0.10547-0.30274-0.17969-0.07813-0.07552-0.13737-0.16081-0.17773-0.25586-0.03906-0.09505-0.06445-0.19141-0.07617-0.28906l0.55859-0.04883c0.0078 0.05859 0.02213 0.11263 0.04297 0.16211 0.02213 0.04818 0.05143 0.08984 0.08789 0.125s0.08073 0.0625 0.13281 0.08203c0.05338 0.01823 0.11588 0.02734 0.1875 0.02734 0.13151 0.000001 0.23372-0.03255 0.30664-0.09766 0.07292-0.0651 0.10937-0.16471 0.10938-0.29883-0.000001-0.08203-0.01758-0.14779-0.05273-0.19727-0.03386-0.04948-0.07747-0.08724-0.13086-0.11328-0.05208-0.02734-0.10873-0.04557-0.16992-0.05469-0.0612-0.0091-0.11914-0.01367-0.17383-0.01367h-0.19141v-0.44336h0.17969c0.05469 0.000002 0.11002-0.0052 0.16602-0.01563 0.05729-0.01042 0.10872-0.02929 0.1543-0.05664 0.04557-0.02734 0.08268-0.0651 0.11133-0.11328 0.02864-0.04948 0.04297-0.11198 0.04297-0.1875-0.000001-0.11328-0.0319-0.20182-0.0957-0.26562-0.0625-0.0651-0.1543-0.09765-0.27539-0.09766-0.11328 0.000003-0.20508 0.03125-0.27539 0.09375-0.06901 0.0625-0.10872 0.15104-0.11914 0.26562l-0.54883-0.03906c0.01563-0.1289 0.05078-0.24088 0.10547-0.33594 0.05599-0.09505 0.12565-0.17382 0.20898-0.23633 0.08463-0.0625 0.18164-0.10872 0.29102-0.13867 0.10937-0.03125 0.22526-0.04687 0.34766-0.04687 0.16146 0.000003 0.30013 0.01953 0.41602 0.05859 0.11588 0.03907 0.21094 0.0918 0.28516 0.1582 0.07422 0.06641 0.1289 0.14388 0.16406 0.23242 0.03515 0.08854 0.05273 0.18294 0.05273 0.2832-0.000002 0.08073-0.01172 0.15625-0.03516 0.22656-0.02344 0.06901-0.05925 0.13151-0.10742 0.1875-0.04688 0.05469-0.10742 0.10222-0.18164 0.14258-0.07422 0.03906-0.16211 0.06836-0.26367 0.08789v0.0078c0.11328 0.01302 0.21159 0.03906 0.29492 0.07813 0.08333 0.03776 0.15169 0.08529 0.20508 0.14258 0.05338 0.05729 0.0931 0.1224 0.11914 0.19531 0.02604 0.07162 0.03906 0.14779 0.03906 0.22852" fill="#4d4d4d" transform="matrix(1 0 0 1 90.88 -1.376)"/>
  <path d="m37.168 52.439v0.56055h-0.52344v-0.56055h-1.252v-0.41211l1.1621-1.7793h0.61328v1.7832h0.36719v0.4082h-0.36719m-0.52344-1.3086c-0.000001-0.02213-0.000001-0.05078 0-0.08594 0.0013-0.03646 0.0026-0.07357 0.0039-0.11133 0.0026-0.03776 0.0046-0.07357 0.0059-0.10742 0.0026-0.03515 0.0052-0.0625 0.0078-0.08203-0.0065 0.01432-0.01693 0.03516-0.03125 0.0625-0.01432 0.02604-0.0306 0.05469-0.04883 0.08594-0.01693 0.02995-0.03516 0.0599-0.05469 0.08984-0.01823 0.02995-0.03451 0.05599-0.04883 0.07813l-0.63867 0.9707h0.80469v-0.90039" fill="#4d4d4d" transform="matrix(1 0 0 1 90.88 -1.376)"/>
  <path d="m37.445 60.084c-0.000002 0.13802-0.02214 0.26563-0.06641 0.38281-0.04297 0.11589-0.10742 0.2168-0.19336 0.30273-0.08594 0.08464-0.19271 0.15104-0.32031 0.19922-0.1263 0.04687-0.27279 0.07031-0.43945 0.07031-0.15365 0-0.28776-0.01823-0.40234-0.05469-0.11458-0.03776-0.21159-0.08919-0.29102-0.1543-0.07813-0.06641-0.13997-0.14388-0.18555-0.23242-0.04427-0.08854-0.07487-0.18359-0.0918-0.28516l0.54883-0.04492c0.01042 0.04297 0.02474 0.08464 0.04297 0.125 0.01953 0.04037 0.04622 0.07617 0.08008 0.10742 0.03385 0.03125 0.07552 0.05664 0.125 0.07617 0.04948 0.01823 0.10937 0.02734 0.17969 0.02734 0.13672 0 0.24544-0.04362 0.32617-0.13086 0.08203-0.08724 0.12305-0.21289 0.12305-0.37695-0.000001-0.07292-0.01042-0.13867-0.03125-0.19727-0.01953-0.05859-0.04818-0.10872-0.08594-0.15039-0.03646-0.04167-0.08203-0.07357-0.13672-0.0957-0.05339-0.02213-0.11458-0.0332-0.18359-0.0332-0.09115 0.000001-0.16602 0.01758-0.22461 0.05273-0.05859 0.03386-0.10807 0.07552-0.14844 0.125h-0.53516l0.0957-1.5488h1.6543v0.4082h-1.1562l-0.04492 0.69531c0.05469-0.04818 0.1237-0.08919 0.20703-0.12305 0.08333-0.03515 0.18034-0.05273 0.29102-0.05273 0.13542 0.000002 0.25651 0.02214 0.36328 0.06641s0.19726 0.10612 0.27148 0.18555 0.13086 0.17513 0.16992 0.28711c0.03906 0.11068 0.05859 0.23372 0.05859 0.36914" fill="#4d4d4d" transform="matrix(1 0 0 1 90.88 -1.376)"/>
  <path d="m37.412 68.1c-0.000002 0.13802-0.01953 0.26498-0.05859 0.38086-0.03907 0.11458-0.09766 0.21354-0.17578 0.29688-0.07682 0.08203-0.17318 0.14648-0.28906 0.19336-0.11589 0.04557-0.25 0.06836-0.40234 0.06836-0.32422 0-0.57357-0.11328-0.74805-0.33984-0.17318-0.22786-0.25977-0.5651-0.25976-1.0117-0.000001-0.49088 0.08789-0.86002 0.26367-1.1074 0.17708-0.2487 0.42969-0.37304 0.75781-0.37305 0.10937 0.000003 0.20898 0.01172 0.29883 0.03516 0.08984 0.02214 0.16992 0.0586 0.24023 0.10938s0.13021 0.11654 0.17969 0.19727c0.04948 0.07943 0.08919 0.17644 0.11914 0.29102l-0.51758 0.07227c-0.02604-0.09635-0.06836-0.16536-0.12695-0.20703-0.0586-0.04297-0.12695-0.06445-0.20508-0.06445-0.14714 0.000002-0.26302 0.07357-0.34766 0.2207-0.08333 0.14714-0.125 0.37044-0.125 0.66992 0.05859-0.09766 0.13997-0.17252 0.24414-0.22461 0.10416-0.05208 0.222-0.07812 0.35352-0.07813 0.12109 0.000001 0.23047 0.02018 0.32812 0.06055 0.09896 0.03906 0.18294 0.09636 0.25195 0.17188 0.07031 0.07422 0.12435 0.16537 0.16211 0.27344s0.05664 0.22982 0.05664 0.36523m-0.55078 0.01563c-0.000001-0.07422-0.0085-0.14062-0.02539-0.19922-0.01693-0.05989-0.04297-0.11068-0.07813-0.15234-0.03386-0.04167-0.07617-0.07357-0.12695-0.0957-0.05078-0.02344-0.10938-0.03516-0.17578-0.03516-0.04818 0.000002-0.09636 0.0078-0.14453 0.02344-0.04818 0.01563-0.09115 0.04102-0.12891 0.07617-0.03776 0.03386-0.06836 0.07748-0.0918 0.13086-0.02344 0.05339-0.03516 0.11784-0.03516 0.19336 0 0.07813 0.0098 0.15104 0.0293 0.21875 0.01953 0.06771 0.04687 0.12695 0.08203 0.17773 0.03646 0.04948 0.08008 0.08854 0.13086 0.11719 0.05078 0.02734 0.10807 0.04102 0.17188 0.04102 0.1237 0.000001 0.22005-0.04362 0.28906-0.13086 0.06901-0.08854 0.10352-0.21029 0.10352-0.36524" fill="#4d4d4d" transform="matrix(1 0 0 1 90.88 -1.376)"/>
  <path d="m37.381 74.684c-0.1237 0.19531-0.24089 0.38477-0.35156 0.56836-0.10938 0.1836-0.20508 0.36849-0.28711 0.55469-0.08203 0.1849-0.14714 0.37565-0.19531 0.57226-0.047 0.195-0.07 0.402-0.07 0.621h-0.573c-0.000001-0.21745 0.02539-0.42383 0.07617-0.61914 0.05208-0.19661 0.1224-0.38802 0.21094-0.57422s0.1914-0.36979 0.30859-0.55078c0.11719-0.18229 0.24088-0.36784 0.37109-0.55664h-1.3672v-0.45117h1.877v0.43555" fill="#4d4d4d" transform="matrix(1 0 0 1 90.88 -1.376)"/>
  <path d="m150.88 37.624v9h22v-9h-22zm1 1h20v7h-20v-7z" fill="#569110" color="#000000" opacity="0.5"/>
 </g>
 <path d="m57.817 5.6171v85.125h20.906c6.6418 0 11.969-5.3632 11.969-12.031v-61.031c0-0.92374-0.1187-1.7923-0.3125-2.6562 0.15863 0.78565 0.25 1.604 0.25 2.4375v27.812c-0.0731-3.3855-0.11339-5.4702-1.6562-8.3125l-16.282-29.968c-0.53945-0.76243-1.3896-1.1622-2.5938-1.375h-12.281z" fill="url(#linearGradient9020)"/>
 <path d="m71.473 4.4296c-7.4721 3.35-12.688 10.913-12.688 19.719 0 11.911 9.5167 21.562 21.281 21.562 4.3866 0 8.4555-1.3551 11.844-3.6562l-20.437-37.625z" stroke-width="0.1" fill="url(#radialGradient9011)"/>
 <path d="m72.4 6.5777c-0.341-0.3041-0.564-0.3884-0.564-0.3884s0.83487 0.58215-0.16423 2.3199c-3.6996 5.3693-2.6956 12.724 2.4663 16.827l13.888 11.014c0.78033 0.57546 0.96083 0.84746 1.2481 1.2895z" fill="#ccc"/>
 <path d="m72.648 6.9456c-0.26811-0.37128-0.48292-0.5133-0.48292-0.5133s0.74441 0.70007-0.21905 2.3758c-3.5676 5.1777-2.5994 12.27 2.3783 16.227l13.393 10.621c0.75249 0.55493 0.92655 0.81722 1.2036 1.2435z" fill="#fff"/>
 <path d="m17.75 5.5c-6.642 0-11.969 5.344-11.969 11.938v60.344c0 6.5932 5.327 11.875 11.969 11.875h5.625v-84.156h-5.625z" fill="#fff" color="#000000" opacity="0.276"/>
</svg>
