<svg height="96" width="96" xmlns="http://www.w3.org/2000/svg" xmlns:xlink="http://www.w3.org/1999/xlink">
 <defs>
  <filter x="-0.192" y="-0.192" height="1.384" color-interpolation-filters="sRGB" id="filter3794-58" width="1.384">
   <feGaussianBlur stdDeviation="5.28"/>
  </filter>
  <linearGradient x2="0" y1="20.221" y2="138.66" gradientUnits="userSpaceOnUse" id="linearGradient11029">
   <stop stop-color="#fff"/>
   <stop stop-color="#fff" stop-opacity="0" offset="1"/>
  </linearGradient>
  <linearGradient id="linearGradient15916">
   <stop stop-color="#b4b4b4"/>
   <stop stop-color="#b4b4b4" stop-opacity="0" offset="1"/>
  </linearGradient>
  <radialGradient cy="360.77" r="21.302" xlink:href="#linearGradient15916" gradientUnits="userSpaceOnUse" id="radialGradient8416" cx="303.16" gradientTransform="matrix(0.44073 -0.24657 0.39119 0.69922 -196.61 -156.38)"/>
  <linearGradient x1="320.6" x2="293.81" xlink:href="#linearGradient15916" y1="345.4" y2="361.49" gradientUnits="userSpaceOnUse" id="linearGradient8419" gradientTransform="matrix(1 0 0 1 -224.68 -343.18)"/>
  <filter color-interpolation-filters="sRGB" id="filter3669">
   <feGaussianBlur stdDeviation="0.52555"/>
  </filter>
  <clipPath id="clipPath3724">
   <path d="m32 24v48h48v-48h-48zm25.375 6c2.2773 0.000032 4.3688 0.38051 6.2812 1.125 1.9124 0.72996 3.5819 1.7694 4.9688 3.1562 1.4014 1.3723 2.4762 3.0771 3.25 5.0625 0.77369 1.9708 1.1562 4.1745 1.1562 6.6562-0.000037 0.90512-0.0728 1.8303-0.21875 2.75-0.13142 0.90512-0.31641 1.7616-0.59375 2.5938-0.26281 0.81753-0.60793 1.5972-1.0312 2.3125-0.40879 0.70074-0.91404 1.3182-1.4688 1.8438-0.55478 0.52555-1.191 0.94344-1.9062 1.25-0.70076 0.29198-1.4658 0.4375-2.3125 0.4375-0.65696 0.000005-1.2411-0.12477-1.7812-0.34375-0.52557-0.21897-0.99546-0.51003-1.375-0.875-0.37959-0.36496-0.68935-0.78284-0.9375-1.25-0.2336-0.48174-0.38118-0.98904-0.46875-1.5h-0.09375c-0.2628 0.54015-0.60586 1.0808-1 1.5625-0.39418 0.48176-0.84948 0.88504-1.375 1.25-0.51097 0.35037-1.0931 0.63938-1.75 0.84375-0.64236 0.20438-1.3513 0.3125-2.125 0.3125-1.1241 0.000005-2.1241-0.21624-3-0.625-0.86133-0.40875-1.589-0.98882-2.1875-1.7188-0.59855-0.74452-1.0538-1.6197-1.375-2.6562-0.30658-1.0365-0.46876-2.182-0.46875-3.4375-0.000011-1.4744 0.23288-2.8362 0.65625-4.0625 0.43794-1.2263 1.0408-2.2657 1.8438-3.1562 0.8175-0.89049 1.8154-1.5974 2.9688-2.0938 1.1533-0.49633 2.4443-0.74998 3.875-0.75 0.65691 0.000023 1.3118 0.03538 1.9688 0.09375 0.65691 0.05842 1.2764 0.14783 1.875 0.25 0.59852 0.10221 1.1599 0.21239 1.6562 0.34375 0.51092 0.11681 0.91421 0.22698 1.25 0.34375l-0.5 9.125c-0.01463 0.32118-0.01667 0.57688-0.03125 0.78125-0.000026 0.18979-0.000026 0.35197 0 0.46875-0.000026 0.1168-0.000026 0.19162 0 0.25-0.000026 0.05841-0.000026 0.11247 0 0.15625-0.000026 0.77373 0.07274 1.4099 0.21875 1.9062 0.16056 0.49636 0.34555 0.89554 0.59375 1.1875 0.24815 0.29198 0.53715 0.47697 0.84375 0.59375 0.32114 0.1022 0.6642 0.15626 1 0.15625 0.6715 0.000008 1.239-0.21829 1.75-0.65625 0.51092-0.45255 0.94545-1.0534 1.2812-1.8125 0.35033-0.75911 0.60603-1.6343 0.78125-2.6562 0.17515-1.0219 0.28122-2.1113 0.28125-3.25-0.000033-2.073-0.34105-3.9254-0.96875-5.5312-0.62777-1.6204-1.4843-2.9842-2.5938-4.0938-1.1095-1.1095-2.4359-1.9306-3.9688-2.5-1.5183-0.58391-3.1732-0.87497-4.9688-0.875-2.4672 0.000029-4.6481 0.40126-6.5312 1.2188-1.8832 0.80295-3.4653 1.9152-4.75 3.375-1.2701 1.4453-2.2181 3.1875-2.875 5.1875-0.65694 1.9854-1 4.1663-1 6.5312-0.000006 2.2044 0.30565 4.1357 0.875 5.8438 0.58394 1.708 1.4218 3.1446 2.5312 4.3125 1.1241 1.1679 2.5066 2.0577 4.1562 2.6562 1.666 0.598 3.575 0.906 5.721 0.906 0.89049 0 1.7637-0.0541 2.625-0.15625 0.87589-0.10219 1.7283-0.23107 2.5312-0.40625 0.81749-0.17519 1.5825-0.37478 2.3125-0.59375 0.73-0.234 1.403-0.471 2.031-0.719v3.0938c-1.2555 0.55474-2.6734 0.99133-4.25 1.3125-1.577 0.32-3.321 0.468-5.219 0.468-2.6132 0-4.9416-0.38048-7-1.125-2.0438-0.74453-3.7881-1.8027-5.2188-3.2188-1.4161-1.4307-2.4742-3.175-3.2188-5.2188-0.74453-2.0584-1.125-4.3869-1.125-7-0.000002-2.7445 0.41993-5.3225 1.2812-7.6875 0.86131-2.3795 2.0963-4.419 3.6875-6.1562 1.6058-1.7372 3.5497-3.101 5.8125-4.0938 2.2774-0.99267 4.8075-1.5 7.625-1.5zm-0.46875 11.531c-1.0803 0.000021-2.0055 0.20166-2.75 0.625-0.72994 0.42338-1.3141 0.97014-1.7812 1.6562-0.45257 0.68615-0.79564 1.4679-1 2.3438-0.20439 0.87593-0.31252 1.7824-0.3125 2.6875-0.000015 1.9416 0.36381 3.3428 1.0938 4.2188 0.74451 0.86132 1.7591 1.2813 3 1.2812 0.8029 0.000008 1.4931-0.14758 2.0625-0.46875 0.56932-0.33576 1.01-0.8077 1.375-1.4062 0.36494-0.61313 0.65395-1.3241 0.84375-2.1562 0.18976-0.8467 0.31658-1.7739 0.375-2.7812l0.3125-5.5625c-0.40878-0.11677-0.89943-0.22489-1.4688-0.3125-0.55477-0.10217-1.1369-0.12498-1.75-0.125z"/>
  </clipPath>
  <clipPath id="clipPath3674">
   <use xlink:href="#SVGCleanerId_1" transform="matrix(1 0 0 1 0 -0.5)"/>
  </clipPath>
  <clipPath id="clipPath3613-53">
   <use xlink:href="#SVGCleanerId_0"/>
  </clipPath>
  <linearGradient x2="0" y1="90" y2="5.979" gradientUnits="userSpaceOnUse" id="linearGradient10029" gradientTransform="matrix(1 0 0 1 -98.05 -9.01)">
   <stop stop-color="#5f101a"/>
   <stop stop-color="#811524" offset="1"/>
  </linearGradient>
  <linearGradient x2="0" y1="88" y2="8" gradientUnits="userSpaceOnUse" id="linearGradient10031" gradientTransform="matrix(1 0 0 1 -98.05 -9.01)">
   <stop stop-color="#1a1a1a"/>
   <stop stop-color="#2a2a2a" offset="1"/>
  </linearGradient>
  <clipPath clipPathUnits="userSpaceOnUse" id="clipPath10035">
   <path d="m-76.204-1.5033c-6.0287 0-10.864 5.0521-10.864 11.297v57.156c0 6.2446 4.8352 11.267 10.864 11.267h55.199c6.0287 0 10.864-5.0227 10.864-11.267l-0.05668-31.314c-0.06635-3.1705-0.10292-5.1229-1.5034-7.7847l-14.778-28.067c-0.49399-0.72034-1.4144-1.2555-2.3827-1.2877z"/>
  </clipPath>
  <rect x="6" rx="6" y="6" height="84" id="SVGCleanerId_0" width="84"/>
  <path d="m73.036 46.007c-0.000037 0.90512-0.07303 1.8175-0.21898 2.7372-0.13142 0.90512-0.3358 1.7737-0.61314 2.6058-0.26281 0.81753-0.60587 1.584-1.0292 2.2993-0.40879 0.70074-0.89054 1.3139-1.4453 1.8394-0.55478 0.52555-1.1898 0.94161-1.9051 1.2482-0.70076 0.29198-1.4745 0.43796-2.3212 0.43796-0.65696 0.000005-1.2555-0.10948-1.7956-0.32847-0.52557-0.21897-0.97813-0.51094-1.3577-0.87591-0.37959-0.36496-0.69346-0.78102-0.94161-1.2482-0.2336-0.48174-0.39418-0.97809-0.48175-1.4891h-0.08759c-0.2628 0.54015-0.59126 1.0511-0.9854 1.5328-0.39418 0.48176-0.85404 0.90512-1.3796 1.2701-0.51097 0.35037-1.0949 0.62774-1.7518 0.83212-0.64236 0.20438-1.3504 0.30657-2.1241 0.30657-1.1241 0.000005-2.1241-0.20438-3-0.61314-0.86133-0.40875-1.5913-0.9781-2.1898-1.708-0.59855-0.74452-1.0584-1.635-1.3796-2.6715-0.30658-1.0365-0.45986-2.1825-0.45985-3.438-0.000011-1.4744 0.21167-2.8248 0.63504-4.0511 0.43794-1.2263 1.0584-2.2847 1.8613-3.1752 0.82-0.891 1.806-1.585 2.959-2.081 1.1533-0.49633 2.4452-0.7445 3.8759-0.74452 0.65691 0.000023 1.3138 0.02922 1.9708 0.08759 0.65691 0.05842 1.2846 0.13871 1.8832 0.24088 0.59852 0.10221 1.146 0.219 1.6423 0.35036 0.51092 0.11681 0.93428 0.2336 1.2701 0.35036l-0.50365 9.1095c-0.01463 0.32118-0.02922 0.58396-0.0438 0.78832-0.000026 0.18979-0.000026 0.34308 0 0.45985-0.000026 0.1168-0.000026 0.20439 0 0.26277-0.000026 0.05841-0.000026 0.1095 0 0.15328-0.000026 0.77373 0.07297 1.4088 0.21898 1.9051 0.16056 0.49636 0.36494 0.89052 0.61314 1.1825 0.24815 0.29198 0.52552 0.49636 0.83212 0.61314 0.32114 0.1022 0.64961 0.15329 0.9854 0.15328 0.6715 0.000008 1.2627-0.21897 1.7737-0.65693 0.51092-0.45255 0.93427-1.0584 1.2701-1.8175 0.35033-0.75911 0.6131-1.6496 0.78832-2.6715 0.17515-1.0219 0.26274-2.1022 0.26277-3.2409-0.000033-2.073-0.3139-3.9124-0.9416-5.5182-0.62777-1.6204-1.4964-2.9854-2.6058-4.0949-1.1095-1.1095-2.4307-1.9489-3.9635-2.5182-1.5183-0.58391-3.1752-0.87588-4.9708-0.87591-2.4672 0.000029-4.6424 0.40879-6.5255 1.2263-1.8832 0.80295-3.4672 1.9343-4.7518 3.3942-1.2701 1.4453-2.2336 3.1679-2.8905 5.1679-0.65694 1.9854-0.98541 4.1606-0.9854 6.5255-0.000006 2.2044 0.28466 4.1606 0.85401 5.8686 0.58394 1.708 1.4306 3.146 2.5401 4.3139 1.1241 1.1679 2.5109 2.0511 4.1606 2.6496 1.6642 0.59854 3.5693 0.89781 5.7153 0.89781 0.89049-0.000001 1.7664-0.0511 2.6277-0.15328 0.87589-0.10219 1.7153-0.24088 2.5182-0.41606 0.81749-0.17518 1.5912-0.37226 2.3212-0.59124 0.7299-0.23358 1.4087-0.47445 2.0365-0.72263v3.0876c-1.2555 0.55474-2.6716 0.9927-4.2482 1.3139-1.5767 0.32116-3.3139 0.48175-5.2117 0.48175-2.6132-0.000004-4.9489-0.37227-7.0073-1.1168-2.0438-0.74453-3.781-1.8248-5.2117-3.2409-1.4161-1.4307-2.4964-3.1679-3.2409-5.2117-0.74453-2.0584-1.1168-4.3942-1.1168-7.0073-0.000002-2.7445 0.43065-5.2993 1.292-7.6642 0.86131-2.3795 2.0876-4.4379 3.6788-6.1752 1.6058-1.7372 3.5401-3.1022 5.8029-4.0949 2.2774-0.99267 4.8248-1.489 7.6423-1.4891 2.2773 0.000032 4.3722 0.3723 6.2847 1.1168 1.9124 0.72996 3.562 1.7884 4.9489 3.1752 1.4014 1.3723 2.489 3.0511 3.2628 5.0365 0.77369 1.9708 1.1605 4.1971 1.1606 6.6788m-21.964 2.8248c-0.000015 1.9416 0.36495 3.3504 1.0949 4.2263 0.74451 0.86132 1.7372 1.292 2.9781 1.292 0.8029 0.000008 1.489-0.16058 2.0584-0.48175 0.56932-0.33576 1.0365-0.80291 1.4015-1.4015 0.36494-0.61313 0.64231-1.3358 0.83212-2.1679 0.18976-0.8467 0.31385-1.7737 0.37226-2.781l0.30657-5.5401c-0.40878-0.11677-0.89783-0.21896-1.4672-0.30657-0.55477-0.10217-1.1387-0.15326-1.7518-0.15328-1.0803 0.000021-1.9927 0.2117-2.7372 0.63504-0.72994 0.42338-1.3285 0.97812-1.7956 1.6642-0.45257 0.68615-0.78104 1.4672-0.9854 2.3431-0.20439 0.87593-0.30658 1.7664-0.30657 2.6715" id="SVGCleanerId_1"/>
 </defs>
 <path d="m16.059 3.1081c-7.049 0-12.719 5.6697-12.719 12.719v64.531c0 7.049 5.6697 12.719 12.719 12.719h64.188c7.049 0 12.719-5.6697 12.719-12.719v-35.013c-0.0367-3.8222-0.0417-6.3452-1.8012-9.5856l-16.206-29.842c-1.0788-1.8835-2.0313-2.8088-5.1346-2.8088z" fill-opacity="0.02"/>
 <path d="m16.497 3.7018c-6.9538 0-12.531 5.6087-12.531 12.562v63.656c0 6.9538 5.5775 12.531 12.531 12.531h63.312c6.9538 0 12.562-5.5775 12.562-12.531v-34.607c-0.0741-3.7145-0.0646-6.1373-1.775-9.2846l-16.222-29.849c-0.90306-1.708-1.7952-2.4773-4.5338-2.4773z" fill-opacity="0.039"/>
 <path d="m16.934 4.3268c-6.8585 0-12.375 5.5165-12.375 12.375v62.781c0 6.8585 5.5165 12.375 12.375 12.375h62.438c6.8585 0 12.375-5.5165 12.375-12.375v-34.169c-0.0596-3.6037-0.0554-5.964-1.7158-9.0186l-16.222-29.842c-0.57824-1.2184-1.5501-2.1266-3.906-2.1266z" fill-opacity="0.078"/>
 <path d="m17.372 4.9206c-6.7632 0-12.219 5.4555-12.219 12.219v61.906c0 6.7632 5.4555 12.219 12.219 12.219h61.562c6.7632 0 12.219-5.4555 12.219-12.219v-33.794c-0.0346-3.5165-0.0841-5.7358-1.6885-8.6896l-16.237-29.895c-0.43675-0.77203-1.3586-1.7467-3.3394-1.7467z" fill-opacity="0.157"/>
 <g clip-path="url(#clipPath10035)" transform="matrix(1.1017 0 0 1.0678 101.7 7.12)">
  <rect x="-92.05" rx="6" y="-3.01" fill="url(#linearGradient10029)" height="84" width="84"/>
  <rect x="-74.05" y="-3.01" fill="#fff" height="84" opacity="0.15" width="1"/>
  <path d="m-86.049-3.0139c-3.324 0-6 2.676-6 6v72c0 3.324 2.676 6 6 6h12v-84h-12z" fill="url(#linearGradient10031)"/>
  <rect x="-75.05" y="-3.01" height="84" opacity="0.4" width="1"/>
  <rect x="15" stroke-width="0.5" rx="12" y="15" clip-path="url(#clipPath3613-53)" fill="url(#linearGradient11029)" stroke="#fff" height="66" filter="url(#filter3794-58)" opacity="0.1" stroke-linecap="round" width="66" transform="matrix(1 0 0 1 -98.05 -9.01)"/>
  <g transform="matrix(1 0 0 1 -98.05 -9.01)">
   <g stroke-width="1.5" clip-path="url(#clipPath3724)" fill="none" stroke="#de8787" filter="url(#filter3669)" opacity="0.5">
    <use xlink:href="#SVGCleanerId_1"/>
   </g>
   <use xlink:href="#SVGCleanerId_1" fill="#fff"/>
   <g clip-path="url(#clipPath3674)" fill="none" stroke="#000" opacity="0.25" transform="matrix(1 0 0 1 0 0.5)">
    <use xlink:href="#SVGCleanerId_1"/>
   </g>
   <path d="m57.375 29c-2.8175 0.000032-5.3476 0.50733-7.625 1.5-2.2628 0.99273-4.2067 2.3566-5.8125 4.0938-1.5912 1.7373-2.8262 3.7767-3.6875 6.1562-0.86132 2.365-1.2813 4.943-1.2812 7.6875 0 0.16082 0.02843 0.31003 0.03125 0.46875 0.05268-2.5417 0.44505-4.946 1.25-7.1562 0.86131-2.3795 2.0963-4.419 3.6875-6.1562 1.6058-1.7372 3.5497-3.101 5.8125-4.0938 2.2774-0.99267 4.8075-1.5 7.625-1.5 2.2773 0.000032 4.3688 0.38051 6.2812 1.125 1.9124 0.72996 3.5819 1.7694 4.9688 3.1562 1.4014 1.3723 2.4762 3.0771 3.25 5.0625 0.71362 1.8178 1.0696 3.8413 1.125 6.0938 0.004-0.146 0.031-0.295 0.031-0.439 0-2.482-0.382-4.685-1.156-6.656-0.774-1.986-1.849-3.69-3.25-5.063-1.387-1.387-3.056-2.426-4.969-3.156-1.912-0.744-4.004-1.125-6.281-1.125zm-0.46875 8.6875c-1.4307 0.000023-2.7217 0.25367-3.875 0.75-1.1533 0.49637-2.1512 1.2033-2.9688 2.0938-0.80293 0.89053-1.4058 1.93-1.8438 3.1562-0.42337 1.2263-0.65626 2.5881-0.65625 4.0625-0.000001 0.15134-0.0045 0.28934 0 0.4375 0.04739-1.2572 0.28727-2.4312 0.65625-3.5 0.43794-1.2263 1.0408-2.2657 1.8438-3.1562 0.8175-0.89049 1.8154-1.5974 2.9688-2.0938 1.1533-0.49633 2.4443-0.74998 3.875-0.75 0.65691 0.000023 1.3118 0.03538 1.9688 0.09375 0.65691 0.05842 1.2764 0.14783 1.875 0.25 0.59852 0.10221 1.1599 0.21239 1.6562 0.34375 0.48717 0.11138 0.85955 0.23241 1.1875 0.34375l0.0625-1c-0.33579-0.11677-0.73908-0.22694-1.25-0.34375-0.49638-0.13136-1.0577-0.24154-1.6562-0.34375-0.59856-0.10217-1.2181-0.19158-1.875-0.25-0.65696-0.05837-1.3118-0.09373-1.9688-0.09375zm3.1562 4.2812-0.25 4.5625c-0.05842 1.0073-0.18524 1.9345-0.375 2.7812-0.1898 0.83213-0.47881 1.5431-0.84375 2.1562-0.36498 0.59855-0.80568 1.0705-1.375 1.4062-0.56936 0.32118-1.2596 0.46876-2.0625 0.46875-1.2409 0.000008-2.2555-0.41993-3-1.2812-0.66208-0.79446-1.001-2.0475-1.0625-3.7188-0.0071 0.1673-0.03125 0.3317-0.03125 0.5-0.000015 1.9416 0.36381 3.3428 1.0938 4.2188 0.74451 0.86132 1.7591 1.2813 3 1.2812 0.8029 0.000008 1.4931-0.14758 2.0625-0.46875 0.56932-0.33576 1.01-0.8077 1.375-1.4062 0.36494-0.61313 0.65395-1.3241 0.84375-2.1562 0.18976-0.8467 0.31658-1.7739 0.375-2.7812l0.3125-5.5625c-0.01664-0.0048-0.04559 0.0047-0.0625 0zm9.7812 3.4062c-0.01889 0.98631-0.09636 1.9473-0.25 2.8438-0.17522 1.0219-0.43092 1.8971-0.78125 2.6562-0.3358 0.75913-0.77033 1.36-1.2812 1.8125-0.51098 0.43796-1.0785 0.65626-1.75 0.65625-0.3358 0.000008-0.67886-0.05405-1-0.15625-0.3066-0.11678-0.5956-0.30177-0.84375-0.59375-0.2482-0.29196-0.43319-0.69114-0.59375-1.1875-0.13743-0.46717-0.2107-1.0683-0.21875-1.7812-0.000026 0.18979-0.000026 0.35197 0 0.46875-0.000026 0.1168-0.000026 0.19162 0 0.25-0.000026 0.05841-0.000026 0.11247 0 0.15625-0.000026 0.77373 0.07274 1.4099 0.21875 1.9062 0.16056 0.49636 0.34555 0.89554 0.59375 1.1875 0.24815 0.29198 0.53715 0.47697 0.84375 0.59375 0.32114 0.1022 0.6642 0.15626 1 0.15625 0.6715 0.000008 1.239-0.21829 1.75-0.65625 0.51092-0.45255 0.94545-1.0534 1.2812-1.8125 0.35033-0.75911 0.60603-1.6343 0.78125-2.6562 0.17515-1.0219 0.28122-2.1113 0.28125-3.25-0.000003-0.20105-0.02534-0.3971-0.03125-0.59375zm-27.593 3.375c-0.0038 0.17744-0.03125 0.35162-0.03125 0.53125-0.000006 2.2044 0.30565 4.1357 0.875 5.8438 0.58394 1.708 1.4218 3.1446 2.5312 4.3125 1.1241 1.1679 2.5066 2.0577 4.1562 2.6562 1.6642 0.59854 3.5727 0.90625 5.7188 0.90625 0.89049-0.000001 1.7637-0.05407 2.625-0.15625 0.87589-0.10219 1.7283-0.23107 2.5312-0.40625 0.81749-0.17518 1.5825-0.37477 2.3125-0.59375 0.731-0.234 1.404-0.471 2.032-0.719v-1c-0.62776 0.24818-1.3014 0.48517-2.0312 0.71875-0.72995 0.21898-1.495 0.41857-2.3125 0.59375-0.80294 0.17518-1.6554 0.30406-2.5312 0.40625-0.861 0.102-1.735 0.156-2.625 0.156-2.146 0-4.055-0.308-5.719-0.906-1.649-0.599-3.032-1.489-4.156-2.656-1.109-1.168-1.947-2.605-2.531-4.313-0.528-1.582-0.805-3.367-0.844-5.375z" fill="#500"/>
  </g>
 </g>
 <path d="m5.7709 77.595v1.0133c0 6.668 5.3434 12.032 11.985 12.032h60.809c6.6418 0 11.985-5.3645 11.985-12.032v-1.0133c0 6.6681-5.3434 12.032-11.985 12.032h-60.809c-6.6418 0-11.985-5.3644-11.985-12.032z" fill-opacity="0.098"/>
 <path d="m57.817 5.6171v85.125h20.906c6.6418 0 11.969-5.3632 11.969-12.031v-61.031c0-0.92374-0.1187-1.7923-0.3125-2.6562 0.15863 0.78565 0.25 1.604 0.25 2.4375v27.812c-0.0731-3.3855-0.11339-5.4702-1.6562-8.3125l-16.282-29.968c-0.53945-0.76243-1.3896-1.1622-2.5938-1.375h-12.281z" fill="url(#linearGradient8419)"/>
 <path d="m71.473 4.4296c-7.4721 3.35-12.688 10.913-12.688 19.719 0 11.911 9.5167 21.562 21.281 21.562 4.3866 0 8.4555-1.3551 11.844-3.6562l-20.437-37.625z" stroke-width="0.1" fill="url(#radialGradient8416)"/>
 <path d="m72.4 6.5777c-0.341-0.3041-0.564-0.3884-0.564-0.3884s0.83487 0.58215-0.16423 2.3199c-3.6996 5.3693-2.6956 12.724 2.4663 16.827l13.888 11.014c0.78033 0.57546 0.96083 0.84746 1.2481 1.2895z" fill="#ccc"/>
 <path d="m72.648 6.9456c-0.26811-0.37128-0.48292-0.5133-0.48292-0.5133s0.74441 0.70007-0.21905 2.3758c-3.5676 5.1777-2.5994 12.27 2.3783 16.227l13.393 10.621c0.75249 0.55493 0.92655 0.81722 1.2036 1.2435z" fill="#fff"/>
</svg>
