<?xml version="1.0" encoding="UTF-8" standalone="no"?>
<!-- Created with Inkscape (http://www.inkscape.org/) -->

<svg
   xmlns:dc="http://purl.org/dc/elements/1.1/"
   xmlns:cc="http://creativecommons.org/ns#"
   xmlns:rdf="http://www.w3.org/1999/02/22-rdf-syntax-ns#"
   xmlns:svg="http://www.w3.org/2000/svg"
   xmlns="http://www.w3.org/2000/svg"
   xmlns:sodipodi="http://sodipodi.sourceforge.net/DTD/sodipodi-0.dtd"
   xmlns:inkscape="http://www.inkscape.org/namespaces/inkscape"
   id="svg3814"
   height="24"
   width="24"
   version="1.1"
   inkscape:version="0.91 r13725"
   sodipodi:docname="audio-output-none.svg">
  <defs
     id="defs11" />
  <sodipodi:namedview
     pagecolor="#ffffff"
     bordercolor="#666666"
     borderopacity="1"
     objecttolerance="10"
     gridtolerance="10"
     guidetolerance="10"
     inkscape:pageopacity="0"
     inkscape:pageshadow="2"
     inkscape:window-width="662"
     inkscape:window-height="480"
     id="namedview9"
     showgrid="false"
     inkscape:zoom="9.8333333"
     inkscape:cx="12"
     inkscape:cy="12"
     inkscape:window-x="0"
     inkscape:window-y="24"
     inkscape:window-maximized="0"
     inkscape:current-layer="svg3814" />
  <metadata
     id="metadata3819">
    <rdf:RDF>
      <cc:Work
         rdf:about="">
        <dc:format>image/svg+xml</dc:format>
        <dc:type
           rdf:resource="http://purl.org/dc/dcmitype/StillImage" />
        <dc:title />
      </cc:Work>
    </rdf:RDF>
  </metadata>
  <path
     inkscape:connector-curvature="0"
     d="M 8.0134,8 C 7.70818,8 7.44687,8.12796 7.2634,8.34375 l -2.25,2.6562 -2,0 c -0.552,0 -1,0.448 -1,1 -0.00627,0.99607 0.00222,2.0145 0,3 0,0.552 0.448,1 1,1 l 2,0 2.1562,2.4688 c 0.1714,0.305 0.4693,0.531 0.8438,0.531 0.552,0 1,-0.448 1,-1 l 0,-9 c 0,-0.552 -0.448,-1 -1,-1 z"
     style="opacity:0.3;fill-rule:evenodd"
     id="rect3180-0" />
  <path
     inkscape:connector-curvature="0"
     d="M 8.0134,7 C 7.70818,7 7.44687,7.12796 7.2634,7.34375 l -2.25,2.6562 -2,0 c -0.552,0 -1,0.448 -1,1 -0.00627,0.99607 0.00222,2.0145 0,3 0,0.552 0.448,1 1,1 l 2,0 2.1562,2.4688 c 0.1714,0.3049 0.4693,0.5312 0.8438,0.5312 0.552,0 1,-0.448 1,-1 l 0,-9 c 0,-0.552 -0.448,-1 -1,-1 z"
     style="fill:#bebebe;fill-rule:evenodd;fill-opacity:1"
     id="rect3180" />
  <path
     inkscape:connector-curvature="0"
     d="m 11.512,12.4937 2.0005,0 m 1.9995,0 2.0005,0 m 1.9995,0 2.0005,0"
     style="fill:none;stroke:#dfd8c8;stroke-width:1px;stroke-linecap:round"
     id="path3200" />
  <path
     inkscape:connector-curvature="0"
     d="m 11.512,13.5 2.0005,0 m 1.9995,0 2.0005,0 m 1.9995,0 2.0005,0"
     style="opacity:0.3;fill:none;stroke:#000000;stroke-width:1px;stroke-linecap:round"
     id="path3200-7" />
</svg>
