<?xml version="1.0" encoding="UTF-8" standalone="no"?>
<!-- Created with Inkscape (http://www.inkscape.org/) -->

<svg
   xmlns:dc="http://purl.org/dc/elements/1.1/"
   xmlns:cc="http://creativecommons.org/ns#"
   xmlns:rdf="http://www.w3.org/1999/02/22-rdf-syntax-ns#"
   xmlns:svg="http://www.w3.org/2000/svg"
   xmlns="http://www.w3.org/2000/svg"
   xmlns:sodipodi="http://sodipodi.sourceforge.net/DTD/sodipodi-0.dtd"
   xmlns:inkscape="http://www.inkscape.org/namespaces/inkscape"
   id="svg3830"
   height="24"
   width="24"
   version="1.1"
   inkscape:version="0.91 r13725"
   sodipodi:docname="audio-volume-muted.svg">
  <defs
     id="defs10" />
  <sodipodi:namedview
     pagecolor="#ffffff"
     bordercolor="#666666"
     borderopacity="1"
     objecttolerance="10"
     gridtolerance="10"
     guidetolerance="10"
     inkscape:pageopacity="0"
     inkscape:pageshadow="2"
     inkscape:window-width="662"
     inkscape:window-height="480"
     id="namedview8"
     showgrid="false"
     inkscape:zoom="9.8333333"
     inkscape:cx="12"
     inkscape:cy="12"
     inkscape:window-x="0"
     inkscape:window-y="24"
     inkscape:window-maximized="0"
     inkscape:current-layer="svg3830" />
  <metadata
     id="metadata3835">
    <rdf:RDF>
      <cc:Work
         rdf:about="">
        <dc:format>image/svg+xml</dc:format>
        <dc:type
           rdf:resource="http://purl.org/dc/dcmitype/StillImage" />
        <dc:title />
      </cc:Work>
    </rdf:RDF>
  </metadata>
  <path
     id="path2396-0"
     style="opacity:0.12000002"
     d="M 8.0024,8 C 7.6972,8 7.4359,8.128 7.2524,8.3438 L 5.0024,11 l -2,0 c -0.552,0 -1,0.448 -1,1 -0.00627,0.99607 0.00222,2.0145 0,3 0,0.552 0.448,1 1,1 l 2,0 2.1562,2.4688 c 0.1714,0.305 0.4694,0.531 0.8438,0.531 0.552,0 1,-0.448 1,-1 l 0,-9 c 0,-0.552 -0.448,-1 -1,-1 z m 9.688,2 -2.188,2.25 -2.25,-2.2188 -1.25,1.2808 2.25,2.188 -2.219,2.25 1.281,1.25 2.188,-2.25 2.25,2.219 1.25,-1.281 -2.25,-2.188 2.219,-2.25 -1.281,-1.25 z"
     inkscape:connector-curvature="0" />
  <path
     id="rect3180"
     style="fill:#bebebe;fill-rule:evenodd;fill-opacity:1"
     d="M 8.0024,7 C 7.6972,7 7.4359,7.128 7.2524,7.3438 L 5.0024,10 l -2,0 c -0.552,0 -1,0.448 -1,1 -0.00627,0.99607 0.00222,2.0145 0,3 0,0.552 0.448,1 1,1 l 2,0 2.1562,2.4688 c 0.1714,0.305 0.4694,0.531 0.8438,0.531 0.552,0 1,-0.448 1,-1 l 0,-9 c 0,-0.552 -0.448,-1 -1,-1 z m 9.688,2 -2.188,2.25 -2.25,-2.2188 -1.25,1.2813 2.25,2.1875 -2.219,2.25 1.281,1.25 2.188,-2.25 2.25,2.219 1.25,-1.281 -2.25,-2.188 2.219,-2.25 L 17.6904,9 Z"
     inkscape:connector-curvature="0" />
</svg>
