<?xml version="1.0" encoding="UTF-8" standalone="no"?>
<!-- Created with Inkscape (http://www.inkscape.org/) -->

<svg
   xmlns:dc="http://purl.org/dc/elements/1.1/"
   xmlns:cc="http://creativecommons.org/ns#"
   xmlns:rdf="http://www.w3.org/1999/02/22-rdf-syntax-ns#"
   xmlns:svg="http://www.w3.org/2000/svg"
   xmlns="http://www.w3.org/2000/svg"
   xmlns:sodipodi="http://sodipodi.sourceforge.net/DTD/sodipodi-0.dtd"
   xmlns:inkscape="http://www.inkscape.org/namespaces/inkscape"
   id="svg3814"
   height="24"
   width="24"
   version="1.1"
   inkscape:version="0.91 r13725"
   sodipodi:docname="audio-volume-low.svg">
  <defs
     id="defs17" />
  <sodipodi:namedview
     pagecolor="#ffffff"
     bordercolor="#666666"
     borderopacity="1"
     objecttolerance="10"
     gridtolerance="10"
     guidetolerance="10"
     inkscape:pageopacity="0"
     inkscape:pageshadow="2"
     inkscape:window-width="662"
     inkscape:window-height="480"
     id="namedview15"
     showgrid="false"
     inkscape:zoom="9.8333333"
     inkscape:cx="12"
     inkscape:cy="12"
     inkscape:window-x="0"
     inkscape:window-y="24"
     inkscape:window-maximized="0"
     inkscape:current-layer="svg3814" />
  <metadata
     id="metadata3819">
    <rdf:RDF>
      <cc:Work
         rdf:about="">
        <dc:format>image/svg+xml</dc:format>
        <dc:type
           rdf:resource="http://purl.org/dc/dcmitype/StillImage" />
        <dc:title />
      </cc:Work>
    </rdf:RDF>
  </metadata>
  <path
     inkscape:connector-curvature="0"
     d="M 8.00232,8 C 7.6971,8 7.43579,8.12796 7.25232,8.34375 l -2.25,2.6562 -2,0 c -0.552,0 -1,0.448 -1,1 -0.00627,0.99607 0.00222,2.0145 0,3 0,0.552 0.448,1 1,1 l 2,0 2.1562,2.4688 c 0.1714,0.305 0.4694,0.531 0.8438,0.531 0.552,0 1,-0.448 1,-1 l 0,-9 c 0,-0.552 -0.448,-1 -1,-1 z"
     style="opacity:0.3;fill-rule:evenodd"
     id="rect3180-0" />
  <path
     inkscape:connector-curvature="0"
     d="m 11.85242,10.2219 c 0,0 0.98347,0.79498 1.0085,3.2306 0.02476,2.4053 -1.0085,3.3256 -1.0085,3.3256"
     style="opacity:0.3;fill:none;stroke:#000000;stroke-width:1.70000005;stroke-linecap:round"
     id="path3209-4" />
  <g
     style="opacity:0.4"
     id="g3766"
     transform="translate(0.98942,7)">
    <path
       inkscape:connector-curvature="0"
       d="m 16.867,-1.15 c 0,0 2.6135,2.4227 2.6135,7.6349 0,5.1866 -2.618,7.6651 -2.618,7.6651"
       style="opacity:0.3;fill:none;stroke:#000000;stroke-width:1.70000005;stroke-linecap:round"
       id="path2996" />
    <path
       inkscape:connector-curvature="0"
       d="m 16.867,-2.15 c 0,0 2.6135,2.4227 2.6135,7.6349 0,5.1866 -2.618,7.6651 -2.618,7.6651"
       style="fill:none;stroke:#dfdbd2;stroke-width:1.70000005;stroke-linecap:round"
       id="path2990" />
  </g>
  <g
     style="opacity:0.4"
     id="g3789"
     transform="translate(0.98942,7)">
    <path
       inkscape:connector-curvature="0"
       d="m 13.893,1.0955 c 0,0 1.8454,1.7448 1.7797,5.4045 -0.0662,3.6901 -1.8093,5.4045 -1.8093,5.4045"
       style="opacity:0.3;fill:none;stroke:#000000;stroke-width:1.70000005;stroke-linecap:round"
       id="path2994" />
    <path
       inkscape:connector-curvature="0"
       d="m 13.893,0.095476 c 0,0 1.8454,1.7448 1.7797,5.4045 -0.0662,3.6901 -1.8093,5.4045 -1.8093,5.4045"
       style="fill:none;stroke:#dfdbd2;stroke-width:1.70000005;stroke-linecap:round"
       id="path2988" />
  </g>
  <path
     inkscape:connector-curvature="0"
     d="m 11.85242,9.2219 c 0,0 0.98347,0.79498 1.0085,3.2306 0.02476,2.4053 -1.0085,3.3256 -1.0085,3.3256"
     style="fill:none;stroke:#bebebe;stroke-width:1.70000005;stroke-linecap:round;stroke-opacity:1"
     id="path3209" />
  <path
     inkscape:connector-curvature="0"
     d="M 8.00232,7 C 7.6971,7 7.43579,7.12796 7.25232,7.34375 l -2.25,2.6562 -2,0 c -0.552,0 -1,0.448 -1,1 -0.00627,0.99607 0.00222,2.0145 0,3 0,0.552 0.448,1 1,1 l 2,0 2.1562,2.4688 c 0.1714,0.305 0.4694,0.531 0.8438,0.531 0.552,0 1,-0.448 1,-1 l 0,-9 c 0,-0.552 -0.448,-1 -1,-1 z"
     style="fill:#bebebe;fill-rule:evenodd;fill-opacity:1"
     id="rect3180" />
</svg>
