<?xml version="1.0" encoding="UTF-8" standalone="no"?>
<svg
   xmlns:dc="http://purl.org/dc/elements/1.1/"
   xmlns:cc="http://creativecommons.org/ns#"
   xmlns:rdf="http://www.w3.org/1999/02/22-rdf-syntax-ns#"
   xmlns:svg="http://www.w3.org/2000/svg"
   xmlns="http://www.w3.org/2000/svg"
   xmlns:sodipodi="http://sodipodi.sourceforge.net/DTD/sodipodi-0.dtd"
   xmlns:inkscape="http://www.inkscape.org/namespaces/inkscape"
   width="76pt"
   height="76pt"
   viewBox="0 0 76 76"
   version="1.1"
   id="svg4164"
   inkscape:version="0.91 r13725"
   sodipodi:docname="battery-empty.svg">
  <metadata
     id="metadata4177">
    <rdf:RDF>
      <cc:Work
         rdf:about="">
        <dc:format>image/svg+xml</dc:format>
        <dc:type
           rdf:resource="http://purl.org/dc/dcmitype/StillImage" />
      </cc:Work>
    </rdf:RDF>
  </metadata>
  <defs
     id="defs4175" />
  <sodipodi:namedview
     pagecolor="#ffffff"
     bordercolor="#666666"
     borderopacity="1"
     objecttolerance="10"
     gridtolerance="10"
     guidetolerance="10"
     inkscape:pageopacity="0"
     inkscape:pageshadow="2"
     inkscape:window-width="725"
     inkscape:window-height="480"
     id="namedview4173"
     showgrid="false"
     inkscape:zoom="2.4842105"
     inkscape:cx="47.5"
     inkscape:cy="47.5"
     inkscape:window-x="70"
     inkscape:window-y="96"
     inkscape:window-maximized="0"
     inkscape:current-layer="svg4164" />
  <g
     id="surface1"
     transform="matrix(0,1,-1,0,76,0)"
     style="fill:#cccccc">
    <path
       style="fill:#cccccc;fill-opacity:1;fill-rule:nonzero;stroke:none"
       d="m 33.777344,4.222656 c -2.339844,0 -4.222656,1.882813 -4.222656,4.222656 l 0,4.222657 -8.445313,0 c -2.335937,0 -4.21875,1.882812 -4.21875,4.222656 l 0,50.664063 c 0,2.339843 1.882813,4.222656 4.21875,4.222656 l 33.78125,0 c 2.335937,0 4.21875,-1.882813 4.21875,-4.222656 l 0,-50.664063 c 0,-2.339844 -1.882813,-4.222656 -4.21875,-4.222656 l -8.445313,0 0,-4.222657 c 0,-2.339843 -1.882812,-4.222656 -4.222656,-4.222656 z m 2.113281,4.222656 4.21875,0 c 1.171875,0 2.113281,0.941407 2.113281,2.109376 l 0,2.113281 -8.445312,0 0,-2.113281 c 0,-1.167969 0.941406,-2.109376 2.113281,-2.109376 z m -12.667969,8.445313 29.554688,0 c 1.171875,0 2.113281,0.941406 2.113281,2.109375 l 0,46.445312 c 0,1.167969 -0.941406,2.109376 -2.113281,2.109376 l -29.554688,0 c -1.171875,0 -2.113281,-0.941407 -2.113281,-2.109376 l 0,-46.445312 c 0,-1.167969 0.941406,-2.109375 2.113281,-2.109375 z m 0,0"
       id="path4167"
       inkscape:connector-curvature="0" />
    <path
       style="fill:#cccccc;fill-opacity:1;fill-rule:nonzero;stroke:none"
       d="m 38,21.109375 c 2.339844,0 4.222656,1.617187 4.222656,3.621094 l 0,18.09375 c 0,2.007812 -1.882812,3.621093 -4.222656,3.621093 -2.339844,0 -4.222656,-1.613281 -4.222656,-3.621093 l 0,-18.09375 c 0,-2.003907 1.882812,-3.621094 4.222656,-3.621094 z m 0,0"
       id="path4169"
       inkscape:connector-curvature="0" />
    <path
       style="fill:#cccccc;fill-opacity:1;fill-rule:nonzero;stroke:none"
       d="m 36.945312,50.667969 2.109376,0 c 1.753906,0 3.167968,1.410156 3.167968,3.164062 l 0,2.113281 c 0,1.753907 -1.414062,3.164063 -3.167968,3.164063 l -2.109376,0 c -1.753906,0 -3.167968,-1.410156 -3.167968,-3.164063 l 0,-2.113281 c 0,-1.753906 1.414062,-3.164062 3.167968,-3.164062 z m 0,0"
       id="path4171"
       inkscape:connector-curvature="0" />
  </g>
</svg>
