<?xml version="1.0" encoding="UTF-8" standalone="no"?>
<svg
   xmlns:dc="http://purl.org/dc/elements/1.1/"
   xmlns:cc="http://creativecommons.org/ns#"
   xmlns:rdf="http://www.w3.org/1999/02/22-rdf-syntax-ns#"
   xmlns:svg="http://www.w3.org/2000/svg"
   xmlns="http://www.w3.org/2000/svg"
   xmlns:sodipodi="http://sodipodi.sourceforge.net/DTD/sodipodi-0.dtd"
   xmlns:inkscape="http://www.inkscape.org/namespaces/inkscape"
   width="76pt"
   height="76pt"
   viewBox="0 0 76 76"
   version="1.1"
   id="svg15"
   inkscape:version="0.91 r13725"
   sodipodi:docname="battery-040-charging.svg">
  <metadata
     id="metadata28">
    <rdf:RDF>
      <cc:Work
         rdf:about="">
        <dc:format>image/svg+xml</dc:format>
        <dc:type
           rdf:resource="http://purl.org/dc/dcmitype/StillImage" />
      </cc:Work>
    </rdf:RDF>
  </metadata>
  <defs
     id="defs26" />
  <sodipodi:namedview
     pagecolor="#ffffff"
     bordercolor="#666666"
     borderopacity="1"
     objecttolerance="10"
     gridtolerance="10"
     guidetolerance="10"
     inkscape:pageopacity="0"
     inkscape:pageshadow="2"
     inkscape:window-width="1366"
     inkscape:window-height="708"
     id="namedview24"
     showgrid="false"
     inkscape:zoom="2.4842105"
     inkscape:cx="47.5"
     inkscape:cy="47.5"
     inkscape:window-x="0"
     inkscape:window-y="24"
     inkscape:window-maximized="1"
     inkscape:current-layer="svg15" />
  <path
     inkscape:connector-curvature="0"
     id="path18"
     d="m 29.554688,26.390625 0,23.21875 c 0,0.585937 -0.472657,1.058594 -1.054688,1.058594 l -14.777344,0 c -0.582031,0 -1.054687,-0.472657 -1.054687,-1.058594 l 0,-23.21875 c 0,-0.585937 0.472656,-1.058594 1.054687,-1.058594 l 14.777344,0 c 0.582031,0 1.054688,0.472657 1.054688,1.058594 z m 0,0"
     style="fill:#cccccc;fill-opacity:0.29803898;fill-rule:nonzero;stroke:none" />
  <path
     inkscape:connector-curvature="0"
     id="path20"
     d="m 71.777344,33.777344 c 0,-2.339844 -1.882813,-4.222656 -4.222656,-4.222656 l -4.222657,0 0,-8.445313 c 0,-2.335937 -1.882812,-4.21875 -4.222656,-4.21875 l -50.664063,0 c -2.339843,0 -4.222656,1.882813 -4.222656,4.21875 l 0,33.78125 c 0,2.335937 1.882813,4.21875 4.222656,4.21875 l 50.664063,0 c 2.339844,0 4.222656,-1.882813 4.222656,-4.21875 l 0,-8.445313 4.222657,0 c 2.339843,0 4.222656,-1.882812 4.222656,-4.222656 z m -4.222656,2.113281 0,4.21875 c 0,1.171875 -0.941407,2.113281 -2.109376,2.113281 l -2.113281,0 0,-8.445312 2.113281,0 c 1.167969,0 2.109376,0.941406 2.109376,2.113281 z m -8.445313,-12.667969 0,29.554688 c 0,1.171875 -0.941406,2.113281 -2.109375,2.113281 l -46.445312,0 c -1.167969,0 -2.109376,-0.941406 -2.109376,-2.113281 l 0,-29.554688 c 0,-1.171875 0.941407,-2.113281 2.109376,-2.113281 l 46.445312,0 c 1.167969,0 2.109375,0.941406 2.109375,2.113281 z m 0,0"
     style="fill:#cccccc;fill-opacity:1;fill-rule:nonzero;stroke:none" />
  <path
     inkscape:connector-curvature="0"
     id="path22"
     d="M 59.109375,46.445312 29.554688,25.332031 29.554688,38 8.445312,29.554688 38,50.667969 l 0,-9.5 z m 0,0"
     style="fill:#cccccc;fill-opacity:1;fill-rule:nonzero;stroke:none" />
</svg>
