<svg height="16" width="16" xmlns="http://www.w3.org/2000/svg" xmlns:sodipodi="http://sodipodi.sourceforge.net/DTD/sodipodi-0.dtd" xmlns:inkscape="http://www.inkscape.org/namespaces/inkscape">
 <path d="M 6 1 C 5.446 1 5 1.446 5 2 L 5 4 L 7 4 L 7 3 L 9 3 L 9 6 L 8 6 L 7 6 L 5 6 L 4 6 C 3.446 6 3 6.446 3 7 L 3 13 C 3 13.554 3.446 14 4 14 L 12 14 C 12.554 14 13 13.554 13 13 L 13 7 C 13 6.446 12.554 6 12 6 L 11 6 L 11 2 C 11 1.446 10.554 1 10 1 L 6 1 z " stroke-width="1" display="inline" fill="#cccccc" color="#000000" fill-opacity="1" stroke="none" visibility="visible" inkscape:label="Calque 1" inkscape:groupmode="layer"/>
</svg>
