<?xml version="1.0" encoding="UTF-8" standalone="no"?>
<svg
   xmlns:dc="http://purl.org/dc/elements/1.1/"
   xmlns:cc="http://creativecommons.org/ns#"
   xmlns:rdf="http://www.w3.org/1999/02/22-rdf-syntax-ns#"
   xmlns:svg="http://www.w3.org/2000/svg"
   xmlns="http://www.w3.org/2000/svg"
   xmlns:xlink="http://www.w3.org/1999/xlink"
   xmlns:sodipodi="http://sodipodi.sourceforge.net/DTD/sodipodi-0.dtd"
   xmlns:inkscape="http://www.inkscape.org/namespaces/inkscape"
   height="96"
   width="96"
   id="svg2"
   version="1.1"
   inkscape:version="0.91 r13725"
   sodipodi:docname="gnome-netstatus-rx.svg">
  <metadata
     id="metadata70">
    <rdf:RDF>
      <cc:Work
         rdf:about="">
        <dc:format>image/svg+xml</dc:format>
        <dc:type
           rdf:resource="http://purl.org/dc/dcmitype/StillImage" />
      </cc:Work>
    </rdf:RDF>
  </metadata>
  <sodipodi:namedview
     pagecolor="#ffffff"
     bordercolor="#666666"
     borderopacity="1"
     objecttolerance="10"
     gridtolerance="10"
     guidetolerance="10"
     inkscape:pageopacity="0"
     inkscape:pageshadow="2"
     inkscape:window-width="760"
     inkscape:window-height="480"
     id="namedview68"
     showgrid="false"
     inkscape:zoom="2.4583333"
     inkscape:cx="-59.139505"
     inkscape:cy="48"
     inkscape:window-x="100"
     inkscape:window-y="125"
     inkscape:window-maximized="0"
     inkscape:current-layer="svg2" />
  <defs
     id="defs4">
    <radialGradient
       cy="90.17"
       r="42"
       gradientUnits="userSpaceOnUse"
       id="radialGradient3619"
       cx="48"
       gradientTransform="matrix(1.15731 0 0 0.99591 -7.551 0.197)">
      <stop
         stop-color="#ffffff"
         stop-opacity="1"
         id="stop7" />
      <stop
         stop-color="#ffffff"
         stop-opacity="0"
         offset="1"
         id="stop9" />
    </radialGradient>
    <linearGradient
       x2="0"
       y1="92.54"
       y2="7.02"
       gradientUnits="userSpaceOnUse"
       id="ButtonShadow-0"
       gradientTransform="matrix(1.0059 0 0 0.99417 100 0)">
      <stop
         stop-color="#000000"
         stop-opacity="1"
         id="stop12" />
      <stop
         stop-color="#000000"
         stop-opacity="0.588"
         offset="1"
         id="stop14" />
    </linearGradient>
    <linearGradient
       x2="0"
       xlink:href="#ButtonShadow-0"
       y1="6.132"
       y2="90.24"
       gradientUnits="userSpaceOnUse"
       id="linearGradient3780"
       gradientTransform="matrix(1.02381 0 0 -1.0119 -1.143 98.07)" />
    <linearGradient
       x2="0"
       xlink:href="#ButtonShadow-0"
       y1="6.132"
       y2="90.24"
       gradientUnits="userSpaceOnUse"
       id="linearGradient3721"
       gradientTransform="matrix(1 0 0 -1 0 97)" />
    <linearGradient
       x2="0"
       y1="79.81"
       y2="10.985"
       gradientUnits="userSpaceOnUse"
       id="linearGradient3832"
       gradientTransform="matrix(0.9009 0 0 0.9009 3.419 6.095)">
      <stop
         stop-color="#aaaaaa"
         stop-opacity="1"
         id="stop19" />
      <stop
         stop-color="#f0f0f0"
         stop-opacity="1"
         offset="1"
         id="stop21" />
    </linearGradient>
    <rect
       x="6"
       rx="6"
       y="6"
       fill="#000000"
       fill-opacity="1"
       stroke="none"
       fill-rule="nonzero"
       height="84"
       id="SVGCleanerId_0"
       opacity="0.6"
       width="84" />
  </defs>
  <path
     d="m 72.75,15.96875 c -1.012029,0 -1.998275,0.421391 -2.84375,1.09375 -0.06006,0.04776 -0.129385,0.07382 -0.1875,0.125 -0.127578,0.0728 -0.225117,0.141872 -0.25,0.15625 -0.0023,0.0013 -0.03121,-3.9e-5 -0.03125,0 L 58.125,28.6875 l -4.375,0 c -1.205044,-0.0098 -2.401437,0.465346 -3.3125,1.375 l -8.09375,8.0625 a 1.0236899,1.0236899 0 0 0 0,0.03125 1.0236899,1.0236899 0 0 0 -0.21875,0.3125 1.0236899,1.0236899 0 0 0 -0.03125,0.09375 c -1.379208,1.697031 -1.391854,4.073821 -0.03125,5.78125 0.110755,0.138987 0.152341,0.309417 0.28125,0.4375 0.0013,0.0023 -4e-5,0.03121 0,0.03125 l 9.90625,9.875 c 0.837726,0.837034 1.937025,1.301618 3.09375,1.34375 0.02083,7.59e-4 0.04164,-4.74e-4 0.0625,0 5.8e-5,7e-6 0.08447,0.03077 0.09375,0.03125 0.0209,1.8e-5 0.04158,2.69e-4 0.0625,0 a 1.0236899,1.0236899 0 0 0 0.09375,0 c 0.04322,-7.98e-4 0.0818,-0.02924 0.125,-0.03125 A 1.0236899,1.0236899 0 0 0 55.875,56 c 1.082757,-0.0735 2.142807,-0.487828 2.96875,-1.3125 l 8.125,-8.125 c 0.872497,-0.87385 1.384887,-2.043412 1.375,-3.28125 l 0,-4.40625 11.3125,-11.28125 a 1.0236899,1.0236899 0 0 0 0,-0.03125 1.0236899,1.0236899 0 0 0 0.21875,-0.3125 1.0236899,1.0236899 0 0 0 0.03125,-0.09375 c 1.491477,-1.835171 1.462537,-4.517192 -0.25,-6.21875 l -3.5625,-3.59375 -0.03125,0 c -0.09603,-0.0965 -0.210863,-0.133145 -0.3125,-0.21875 -0.04688,-0.02688 -0.124712,-0.06243 -0.125,-0.0625 -0.874965,-0.690821 -1.890029,-1.09375 -2.875,-1.09375 z"
     fill="#000000"
     fill-opacity="1"
     stroke="none"
     opacity="0.05"
     id="path42" />
  <path
     d="m 72.75,17 c -0.913619,0 -1.857634,0.353853 -2.5625,1.0625 -0.0063,0.0063 -0.02498,-0.0064 -0.03125,0 l -11.625,11.65625 -4.78125,0 c -0.941291,-0.0076 -1.878786,0.348642 -2.59375,1.0625 l -8.09375,8.0625 0,0.03125 c -1.432848,1.423662 -1.432848,3.763838 0,5.1875 0.0064,0.0064 -0.0065,0.02491 0,0.03125 l 9.90625,9.875 c 0.70104,0.700461 1.630388,1.074891 2.59375,1.0625 -0.01189,9.8e-5 0.02369,7.16e-4 0.0625,0 0.908047,-0.01677 1.805261,-0.36883 2.5,-1.0625 l 8.125,-8.125 c 0.686249,-0.687313 1.070165,-1.602824 1.0625,-2.5625 l 0,-4.8125 11.625,-11.59375 0,-0.03125 c 1.432848,-1.423662 1.432848,-3.763838 0,-5.1875 L 75.375,18.0625 c -0.0064,-0.0066 -0.02476,0.0065 -0.03125,0 C 74.612049,17.32723 73.6441,17 72.75,17 z"
     fill="#000000"
     fill-opacity="1"
     stroke="none"
     opacity="0.1"
     id="path44" />
  <path
     d="m 72.75,17.90625 c -0.710373,0 -1.417375,0.250005 -1.9375,0.78125 L 58.875,30.625 l -5.125,0 c -0.728573,-0.0059 -1.433067,0.246396 -1.96875,0.78125 L 43.6875,39.5 c -1.111079,1.087823 -1.111079,2.849677 0,3.9375 l 9.90625,9.90625 c 0.518965,0.518537 1.236014,0.790675 1.96875,0.78125 0.0099,-8.2e-5 0.02138,1.82e-4 0.03125,0 0.701873,-0.01296 1.390889,-0.266682 1.90625,-0.78125 l 8.125,-8.125 c 0.511925,-0.512719 0.787065,-1.209418 0.78125,-1.9375 l 0,-5.15625 11.90625,-11.90625 c 1.111079,-1.087823 1.111079,-2.849677 0,-3.9375 L 74.71875,18.6875 C 74.175733,18.132873 73.460373,17.90625 72.75,17.90625 z"
     fill="#000000"
     fill-opacity="1"
     stroke="none"
     opacity="0.15"
     inkscape:connector-curvature="0"
     id="path46" />
  <path
     d="m 72.75,18.90625 c -0.458475,0 -0.896962,0.171332 -1.21875,0.5 L 59.3125,31.625 l -5.5625,0 c -0.45801,-0.0037 -0.925877,0.176379 -1.25,0.5 l -8.09375,8.09375 c -0.657336,0.643577 -0.657336,1.856423 0,2.5 L 54.3125,52.625 c 0.330688,0.330415 0.782663,0.511205 1.25,0.5 0.448625,-0.0037 0.901269,-0.183008 1.21875,-0.5 l 8.125,-8.125 c 0.323621,-0.324123 0.503658,-0.76074 0.5,-1.21875 l 0,-5.59375 L 77.59375,25.5 c 0.657336,-0.643577 0.657336,-1.856423 0,-2.5 L 74,19.40625 c -0.321788,-0.328668 -0.791525,-0.5 -1.25,-0.5 z"
     fill="#000000"
     fill-opacity="1"
     stroke="none"
     opacity="0.3"
     inkscape:connector-curvature="0"
     id="path48" />
  <path
     d="m 72.75,17.90625 c -0.458475,0 -0.896962,0.171332 -1.21875,0.5 L 59.3125,30.625 l -5.5625,0 c -0.45801,-0.0037 -0.925877,0.176379 -1.25,0.5 l -8.09375,8.09375 c -0.657336,0.643577 -0.657336,1.856423 0,2.5 L 54.3125,51.625 c 0.330688,0.330415 0.782663,0.511205 1.25,0.5 0.448625,-0.0037 0.901269,-0.183008 1.21875,-0.5 l 8.125,-8.125 c 0.323621,-0.324123 0.503658,-0.76074 0.5,-1.21875 l 0,-5.59375 L 77.59375,24.5 c 0.657336,-0.643577 0.657336,-1.856423 0,-2.5 L 74,18.40625 c -0.321788,-0.328668 -0.791525,-0.5 -1.25,-0.5 z"
     fill="url(#linearGradient3832)"
     fill-opacity="1"
     stroke="none"
     inkscape:connector-curvature="0"
     id="path60" />
  <path
     d="m 40.4375,43.875 c -0.448625,0.0037 -0.901269,0.214258 -1.21875,0.53125 L 31.09375,52.5 c -0.323621,0.324123 -0.503658,0.79199 -0.5,1.25 l 0,5.5625 -12.1875,12.21875 c -0.657336,0.643577 -0.657336,1.825173 0,2.46875 L 22,77.59375 c 0.643577,0.657336 1.825173,0.657336 2.46875,0 l 12.21875,-12.1875 5.5625,0 c 0.45801,0.0037 0.925877,-0.176379 1.25,-0.5 l 8.09375,-8.125 c 0.657336,-0.643577 0.657336,-1.825173 0,-2.46875 L 41.6875,44.40625 c -0.330688,-0.330415 -0.782663,-0.542455 -1.25,-0.53125 z"
     fill="#ffffff"
     fill-opacity="1"
     stroke="none"
     opacity="0.2"
     inkscape:connector-curvature="0"
     id="path62" />
  <path
     d="m 72.75,17.90625 c -0.458475,0 -0.896962,0.171332 -1.21875,0.5 L 59.3125,30.625 l -5.5625,0 c -0.45801,-0.0037 -0.925877,0.176379 -1.25,0.5 l -8.09375,8.09375 c -0.447494,0.438127 -0.599286,1.14343 -0.4375,1.75 0.07587,-0.284437 0.227658,-0.54455 0.4375,-0.75 L 52.5,32.125 c 0.324123,-0.323621 0.79199,-0.5037 1.25,-0.5 l 5.5625,0 12.21875,-12.21875 c 0.321788,-0.328668 0.760275,-0.5 1.21875,-0.5 0.458475,0 0.928212,0.171332 1.25,0.5 L 77.59375,23 c 0.209842,0.20545 0.361634,0.465563 0.4375,0.75 0.161786,-0.60657 0.01,-1.311873 -0.4375,-1.75 L 74,18.40625 c -0.321788,-0.328668 -0.791525,-0.5 -1.25,-0.5 z"
     fill="#ffffff"
     fill-opacity="1"
     stroke="none"
     opacity="0.75"
     inkscape:connector-curvature="0"
     id="path64" />
  <path
     d="m 78.03125,22.75 c -0.07587,0.284437 -0.227658,0.54455 -0.4375,0.75 l -12.1875,12.1875 0,1 L 77.59375,24.5 c 0.447494,-0.438127 0.599286,-1.14343 0.4375,-1.75 z m -34.0625,17.21875 c -0.161786,0.60657 -0.01,1.311873 0.4375,1.75 L 54.3125,51.625 c 0.330688,0.330415 0.782663,0.511205 1.25,0.5 0.448625,-0.0037 0.901269,-0.183008 1.21875,-0.5 l 8.125,-8.125 c 0.323621,-0.324123 0.503658,-0.76074 0.5,-1.21875 l 0,-1 c 0.0037,0.45801 -0.176379,0.894627 -0.5,1.21875 l -8.125,8.125 c -0.317481,0.316992 -0.770125,0.4963 -1.21875,0.5 -0.467337,0.0112 -0.919312,-0.169585 -1.25,-0.5 l -9.90625,-9.90625 c -0.209842,-0.20545 -0.361634,-0.465563 -0.4375,-0.75 z"
     fill="#000000"
     fill-opacity="1"
     stroke="none"
     opacity="0.14"
     inkscape:connector-curvature="0"
     id="path66" />
</svg>
