<?xml version="1.0" encoding="UTF-8" standalone="no"?>
<svg
   xmlns:dc="http://purl.org/dc/elements/1.1/"
   xmlns:cc="http://creativecommons.org/ns#"
   xmlns:rdf="http://www.w3.org/1999/02/22-rdf-syntax-ns#"
   xmlns:svg="http://www.w3.org/2000/svg"
   xmlns="http://www.w3.org/2000/svg"
   xmlns:xlink="http://www.w3.org/1999/xlink"
   xmlns:sodipodi="http://sodipodi.sourceforge.net/DTD/sodipodi-0.dtd"
   xmlns:inkscape="http://www.inkscape.org/namespaces/inkscape"
   height="96"
   width="96"
   id="svg2"
   version="1.1"
   inkscape:version="0.91 r13725"
   sodipodi:docname="gnome-netstatus-0-24.svg">
  <metadata
     id="metadata66">
    <rdf:RDF>
      <cc:Work
         rdf:about="">
        <dc:format>image/svg+xml</dc:format>
        <dc:type
           rdf:resource="http://purl.org/dc/dcmitype/StillImage" />
      </cc:Work>
    </rdf:RDF>
  </metadata>
  <sodipodi:namedview
     pagecolor="#ffffff"
     bordercolor="#666666"
     borderopacity="1"
     objecttolerance="10"
     gridtolerance="10"
     guidetolerance="10"
     inkscape:pageopacity="0"
     inkscape:pageshadow="2"
     inkscape:window-width="1366"
     inkscape:window-height="719"
     id="namedview64"
     showgrid="false"
     inkscape:zoom="2.4583333"
     inkscape:cx="2.0338983"
     inkscape:cy="48"
     inkscape:window-x="0"
     inkscape:window-y="24"
     inkscape:window-maximized="1"
     inkscape:current-layer="svg2" />
  <defs
     id="defs4">
    <linearGradient
       id="linearGradient3807">
      <stop
         stop-color="#ffffff"
         stop-opacity="1"
         id="stop7" />
      <stop
         stop-color="#ffffff"
         stop-opacity="0"
         offset="1"
         id="stop9" />
    </linearGradient>
    <radialGradient
       cy="90.17"
       r="42"
       xlink:href="#linearGradient3807"
       gradientUnits="userSpaceOnUse"
       id="radialGradient3619"
       cx="48"
       gradientTransform="matrix(1.15731 0 0 0.99591 -7.551 0.197)" />
    <linearGradient
       x2="0"
       y1="-2"
       y2="-34"
       gradientUnits="userSpaceOnUse"
       id="linearGradient3695"
       gradientTransform="matrix(0.75 0 0 0.78947 4.5 79.58)">
      <stop
         stop-color="#aaaaaa"
         stop-opacity="1"
         id="stop13" />
      <stop
         stop-color="#f0f0f0"
         stop-opacity="1"
         offset="1"
         id="stop15" />
    </linearGradient>
    <linearGradient
       x2="0"
       xlink:href="#linearGradient3807"
       y1="54"
       y2="74"
       gradientUnits="userSpaceOnUse"
       id="linearGradient3813" />
    <linearGradient
       x2="0"
       y1="92.54"
       y2="7.02"
       gradientUnits="userSpaceOnUse"
       id="ButtonShadow-0"
       gradientTransform="matrix(1.0059 0 0 0.99417 100 0)">
      <stop
         stop-color="#000000"
         stop-opacity="1"
         id="stop19" />
      <stop
         stop-color="#000000"
         stop-opacity="0.588"
         offset="1"
         id="stop21" />
    </linearGradient>
    <linearGradient
       x2="0"
       xlink:href="#ButtonShadow-0"
       y1="6.132"
       y2="90.24"
       gradientUnits="userSpaceOnUse"
       id="linearGradient3780"
       gradientTransform="matrix(1.02381 0 0 -1.0119 -1.143 98.07)" />
    <linearGradient
       x2="0"
       xlink:href="#ButtonShadow-0"
       y1="6.132"
       y2="90.24"
       gradientUnits="userSpaceOnUse"
       id="linearGradient3721"
       gradientTransform="matrix(1 0 0 -1 0 97)" />
    <rect
       x="6"
       rx="6"
       y="6"
       fill="#000000"
       fill-opacity="1"
       stroke="none"
       fill-rule="nonzero"
       height="84"
       id="SVGCleanerId_0"
       opacity="0.6"
       width="84" />
  </defs>
  <g
     display="inline"
     id="g44">
    <path
       d="m 21,52.03125 c -3.352811,0 -5.96875,2.821515 -5.96875,6.125 l 0,17.6875 c 0,3.303485 2.615939,6.125 5.96875,6.125 l 6,0 c 3.303079,0 5.894077,-2.727081 5.96875,-5.96875 a 0.97587634,0.97587634 0 0 0 0,-0.03125 l 0,-17.8125 c 0,-3.303485 -2.615939,-6.125 -5.96875,-6.125 l -6,0 z"
       fill="#000000"
       fill-opacity="1"
       stroke="none"
       opacity="0.08"
       id="path46" />
    <path
       d="m 21,53 c -2.804358,0 -5,2.364356 -5,5.15625 l 0,17.6875 C 16,78.635644 18.195642,81 21,81 l 6,0 c 2.76326,0 4.936924,-2.293029 5,-5.03125 l 0,-17.8125 C 32,55.364356 29.804358,53 27,53 l -6,0 z"
       fill="#000000"
       fill-opacity="1"
       stroke="none"
       opacity="0.1"
       inkscape:connector-curvature="0"
       id="path48" />
    <path
       d="m 21,54.0625 c -2.195057,0 -3.9375,1.862629 -3.9375,4.09375 l 0,17.6875 c 0,2.231121 1.742443,4.09375 3.9375,4.09375 l 6,0 c 2.195057,0 3.9375,-1.862629 3.9375,-4.09375 l 0,-17.6875 C 30.9375,55.925129 29.195057,54.0625 27,54.0625 l -6,0 z"
       fill="#000000"
       fill-opacity="1"
       stroke="none"
       opacity="0.15"
       inkscape:connector-curvature="0"
       id="path50" />
    <path
       d="m 21,55 c -1.662,0 -3,1.406776 -3,3.15625 l 0,17.6875 C 18,77.593224 19.338,79 21,79 l 6,0 c 1.662,0 3,-1.406776 3,-3.15625 l 0,-17.6875 C 30,56.406776 28.662,55 27,55 l -6,0 z"
       fill="#000000"
       fill-opacity="1"
       stroke="none"
       opacity="0.3"
       inkscape:connector-curvature="0"
       id="path52" />
    <rect
       x="66"
       rx="3"
       y="18"
       fill="#ffffff"
       fill-opacity="1"
       stroke="none"
       height="60"
       opacity="0.2"
       width="12"
       id="rect54" />
    <rect
       x="50"
       rx="3"
       ry="2.961"
       y="30"
       fill="#ffffff"
       fill-opacity="1"
       stroke="none"
       height="48"
       opacity="0.2"
       width="12.11"
       id="rect56" />
    <rect
       x="34"
       rx="3"
       ry="3.03"
       y="42"
       fill="#ffffff"
       fill-opacity="1"
       stroke="none"
       height="36"
       opacity="0.2"
       width="12"
       id="rect58" />
    <rect
       x="18"
       rx="3"
       ry="3.158"
       y="54"
       fill="url(#linearGradient3695)"
       fill-opacity="1"
       stroke="none"
       height="24"
       width="12"
       id="rect60" />
    <path
       d="m 21,54 c -1.662,0 -3,1.406776 -3,3.15625 l 0,17.6875 C 18,76.593224 19.338,78 21,78 l 6,0 c 1.662,0 3,-1.406776 3,-3.15625 l 0,-17.6875 C 30,55.406776 28.662,54 27,54 l -6,0 z m 0,1.0625 6,0 c 1.054221,0 1.9375,0.893438 1.9375,2.09375 l 0,17.6875 c 0,1.200312 -0.883279,2.09375 -1.9375,2.09375 l -6,0 c -1.054221,0 -1.9375,-0.893438 -1.9375,-2.09375 l 0,-17.6875 c 0,-1.200312 0.883279,-2.09375 1.9375,-2.09375 z"
       fill="url(#linearGradient3813)"
       fill-opacity="1"
       stroke="none"
       opacity="0.6"
       inkscape:connector-curvature="0"
       id="path62" />
  </g>
</svg>
