<svg display="inline" height="96" width="96" xmlns="http://www.w3.org/2000/svg" xmlns:xlink="http://www.w3.org/1999/xlink" xmlns:sodipodi="http://sodipodi.sourceforge.net/DTD/sodipodi-0.dtd" xmlns:inkscape="http://www.inkscape.org/namespaces/inkscape">
 <defs>
  <linearGradient id="linearGradient3713">
   <stop stop-color="#ffffff" stop-opacity="1"/>
   <stop stop-color="#ffffff" stop-opacity="0" offset="1"/>
  </linearGradient>
  <linearGradient id="linearGradient4081">
   <stop stop-color="#aaaaaa" stop-opacity="1"/>
   <stop stop-color="#f0f0f0" stop-opacity="1" offset="1"/>
  </linearGradient>
  <linearGradient x2="0" xlink:href="#linearGradient4081" y1="-2" y2="-50" gradientUnits="userSpaceOnUse" id="linearGradient3693" gradientTransform="matrix(1 0 0 1 -12 16)"/>
  <linearGradient x2="0" xlink:href="#linearGradient4081" y1="-2" y2="-34" gradientUnits="userSpaceOnUse" id="linearGradient3695" gradientTransform="matrix(1 0 0 1 -8 16)"/>
  <linearGradient x2="0" xlink:href="#linearGradient3713" y1="-18" y2="14.14" gradientUnits="userSpaceOnUse" id="linearGradient3727"/>
  <linearGradient x2="0" xlink:href="#linearGradient3713" y1="-34" y2="14.01" gradientUnits="userSpaceOnUse" id="linearGradient3729"/>
 </defs>
 <g transform="matrix(1 0 0 1 0 74)">
  <path d="m 34,37.96875 c -3.860482,0 -7.03125,3.170768 -7.03125,7.03125 l 0,11.03125 C 25.694435,54.756935 23.930241,53.96875 22,53.96875 l -8,0 c -3.860482,0 -7.03125,3.170768 -7.03125,7.03125 l 0,24 c 0,3.860482 3.170768,7.03125 7.03125,7.03125 l 8,0 c 2.589121,0 4.78092,-1.490884 6,-3.59375 1.21908,2.102866 3.410879,3.59375 6,3.59375 l 8,0 c 3.860482,0 7.03125,-3.170768 7.03125,-7.03125 l 0,-40 c 0,-3.860482 -3.170768,-7.03125 -7.03125,-7.03125 l -8,0 z" fill="#000000" fill-opacity="1" stroke="none" opacity="0.08" transform="matrix(1 0 0 1 0 -74)"/>
  <path d="m 34,39.03125 c -3.283091,0 -5.96875,2.685659 -5.96875,5.96875 l 0,40 c 0,3.283091 2.685659,5.96875 5.96875,5.96875 l 8,0 c 3.283091,0 5.96875,-2.685659 5.96875,-5.96875 l 0,-40 c 0,-3.283091 -2.685659,-5.96875 -5.96875,-5.96875 l -8,0 z m -20,16 c -3.283091,0 -5.96875,2.685659 -5.96875,5.96875 l 0,24 c 0,3.283091 2.685659,5.96875 5.96875,5.96875 l 8,0 c 3.283091,0 5.96875,-2.685659 5.96875,-5.96875 l 0,-24 c 0,-3.283091 -2.685659,-5.96875 -5.96875,-5.96875 l -8,0 z" fill="#000000" fill-opacity="1" stroke="none" opacity="0.1" inkscape:connector-curvature="0" transform="matrix(1 0 0 1 0 -74)"/>
  <path d="m 34,39.96875 c -2.763365,0 -5.03125,2.267885 -5.03125,5.03125 l 0,40 c 0,2.763365 2.267885,5.03125 5.03125,5.03125 l 8,0 c 2.763365,0 5.03125,-2.267885 5.03125,-5.03125 l 0,-40 c 0,-2.763365 -2.267885,-5.03125 -5.03125,-5.03125 l -8,0 z m -20,16 c -2.763365,0 -5.03125,2.267885 -5.03125,5.03125 l 0,24 c 0,2.763365 2.267885,5.03125 5.03125,5.03125 l 8,0 c 2.763365,0 5.03125,-2.267885 5.03125,-5.03125 l 0,-24 c 0,-2.763365 -2.267885,-5.03125 -5.03125,-5.03125 l -8,0 z" fill="#000000" fill-opacity="1" stroke="none" opacity="0.15" inkscape:connector-curvature="0" transform="matrix(1 0 0 1 0 -74)"/>
  <path d="m 34,41 c -2.216,0 -4,1.784 -4,4 l 0,40 c 0,2.216 1.784,4 4,4 l 8,0 c 2.216,0 4,-1.784 4,-4 l 0,-40 c 0,-2.216 -1.784,-4 -4,-4 l -8,0 z M 14,57 c -2.216,0 -4,1.784 -4,4 l 0,24 c 0,2.216 1.784,4 4,4 l 8,0 c 2.216,0 4,-1.784 4,-4 l 0,-24 c 0,-2.216 -1.784,-4 -4,-4 l -8,0 z" fill="#000000" fill-opacity="1" stroke="none" opacity="0.3" inkscape:connector-curvature="0" transform="matrix(1 0 0 1 0 -74)"/>
  <rect x="70" rx="4" y="-66" fill="#ffffff" fill-opacity="1" stroke="none" height="80" opacity="0.2" width="16"/>
  <rect x="50" rx="4" y="-50" fill="#ffffff" fill-opacity="1" stroke="none" height="64" opacity="0.2" width="16"/>
  <rect x="30" rx="4" y="-34" fill="url(#linearGradient3693)" fill-opacity="1" stroke="none" height="48" width="16"/>
  <rect x="10" rx="4" y="-18" fill="url(#linearGradient3695)" fill-opacity="1" stroke="none" height="32" width="16"/>
  <path d="m 34,-34 c -2.216,0 -4,1.784 -4,4 l 0,40 c 0,1.798949 1.184428,3.275003 2.8125,3.78125 C 31.72124,13.326579 30.96875,12.273179 30.96875,11 l 0,-40 c 0,-1.697572 1.333678,-3.03125 3.03125,-3.03125 l 8,0 c 1.697572,0 3.03125,1.333678 3.03125,3.03125 l 0,40 c 0,1.273179 -0.75249,2.326579 -1.84375,2.78125 C 44.815572,13.275003 46,11.798949 46,10 l 0,-40 c 0,-2.216 -1.784,-4 -4,-4 l -8,0 z" fill="url(#linearGradient3729)" fill-opacity="1" stroke="none" opacity="0.6" inkscape:connector-curvature="0"/>
  <path d="m 14,-18 c -2.216,0 -4,1.784 -4,4 l 0,24 c 0,1.798949 1.184428,3.275003 2.8125,3.78125 C 11.72124,13.326579 10.96875,12.273179 10.96875,11 l 0,-24 c 0,-1.697572 1.333678,-3.03125 3.03125,-3.03125 l 8,0 c 1.697572,0 3.03125,1.333678 3.03125,3.03125 l 0,24 c 0,1.273179 -0.75249,2.326579 -1.84375,2.78125 C 24.815572,13.275003 26,11.798949 26,10 l 0,-24 c 0,-2.216 -1.784,-4 -4,-4 l -8,0 z" fill="url(#linearGradient3727)" fill-opacity="1" stroke="none" opacity="0.6" inkscape:connector-curvature="0"/>
 </g>
</svg>
