<svg display="inline" height="16" width="16" xmlns="http://www.w3.org/2000/svg" xmlns:sodipodi="http://sodipodi.sourceforge.net/DTD/sodipodi-0.dtd" xmlns:inkscape="http://www.inkscape.org/namespaces/inkscape">
 <g inkscape:label="Calque 1" inkscape:groupmode="layer">
  <path d="M -15.5,1 C -16.331,1 -17,1.669 -17,2.5 l 0,1.0625 0,3.46875 -0.53125,0 c -0.831,0 -1.5,0.669 -1.5,1.5 l 0,3.03125 c 0,0.831 0.669,1.5 1.5,1.5 l 0.53125,0 0,0.125 0,0.3125 c 0,0.831 0.669,1.5 1.5,1.5 l 7,0 c 0.831,0 1.5,-0.669 1.5,-1.5 l 0,-0.3125 0,-0.125 0.53125,0 c 0.831,0 1.5,-0.669 1.5,-1.5 l 0,-3.0625 c 0,-0.8310001 -0.669,-1.5 -1.5,-1.5 L -7,7 -7,5.6875 -7,2.5 C -7,1.669 -7.669,1 -8.5,1 l -7,0 z m 1,2 5,0 C -9.223,3 -9,3.223 -9,3.5 l 0,4.5 -6,0 0,-4.5 C -15,3.223 -14.777,3 -14.5,3 z m 0.5,1 0,1 4.010835,0 0,-1 L -14,4 z m 0,2 0,1 3,0 0,-1 -3,0 z m 7.5,3 c 0.276,-2e-7 0.5,0.224 0.5,0.5 C -6,9.7759998 -6.224,10 -6.5,10 -6.776,9.9999998 -7,9.776 -7,9.5 -7,9.2239998 -6.776,9 -6.5,9 z m -8.5,3 6,0 0,0.5 c 0,0.277 -0.223,0.5 -0.5,0.5 l -5,0 c -0.277,0 -0.5,-0.223 -0.5,-0.5 l 0,-0.5 z" fill="#cccccc" fill-opacity="1" stroke="none" sodipodi:nodetypes="cccccccccccccccccccccccccccccccccccccccccccssscccccccc" inkscape:connector-curvature="0"/>
  <path d="M 3.5 0 C 2.669 0 2 0.669 2 1.5 L 2 6 L 1.5 6 C 0.669 6 0 6.669 0 7.5 L 0 11.5 C 0 12.331 0.669 13 1.5 13 L 2 13 L 2 14.5 C 2 15.331 2.669 16 3.5 16 L 10.0625 16 L 9.28125 15.21875 A 0.99718534 0.99718534 0 0 1 9.125 14 L 4.5 14 C 4.223 14 4 13.777 4 13.5 L 4 13 L 4 12 L 9.125 12 A 0.99718534 0.99718534 0 0 1 9.28125 10.78125 L 10.78125 9.28125 A 0.99718534 0.99718534 0 0 1 11.375 9 A 0.99718534 0.99718534 0 0 1 11.40625 9 A 0.99718534 0.99718534 0 0 1 11.59375 9 A 0.99718534 0.99718534 0 0 1 12.21875 9.28125 L 13 10.0625 L 13.1875 9.875 C 13.07895 9.7832589 13 9.6531463 13 9.5 C 13.000001 9.224 13.224 9 13.5 9 C 13.661562 9 13.783574 9.0997407 13.875 9.21875 A 0.99718534 0.99718534 0 0 1 15.21875 9.28125 L 16 10.0625 L 16 7.5 C 16 6.669001 15.331 6 14.5 6 L 14.03125 6 L 14 6 L 14 1.5 C 14 0.669 13.331 0 12.5 0 L 3.5 0 z M 4.5 2 L 11.5 2 C 11.777 2 12 2.223 12 2.5 L 12 6 L 12 7 L 4 7 L 4 6 L 4 2.5 C 4 2.223 4.223 2 4.5 2 z M 5 3 L 5 4 L 11.03125 4 L 11.03125 3 L 5 3 z M 5 5 L 5 6 L 9 6 L 9 5 L 5 5 z " fill="#cccccc" fill-opacity="1" stroke="none"/>
  <path d="m 10.006337,11.504753 1.498416,-1.498416 1.498416,1.498416 1.498415,-1.498416 L 16,11.504753 14.501584,13.003168 16,14.501584 14.501584,16 13.003169,14.501584 11.504753,16 10.006337,14.501584 11.504753,13.003168 10.006337,11.504753 z" fill="#d40000" fill-opacity="1" stroke="none" inkscape:connector-curvature="0"/>
  <path d="M 3.5,-20 C 2.669,-20 2,-19.331 2,-18.5 l 0,4.5 -0.5,0 C 0.669,-14 0,-13.331 0,-12.5 l 0,4 C 0,-7.669 0.669,-7 1.5,-7 L 2,-7 2,-5.5 C 2,-4.669 2.669,-4 3.5,-4 l 9,0 c 0.831,0 1.5,-0.669 1.5,-1.5 l 0,-1.5 0.5,0 c 0.831,0 1.5,-0.669 1.5,-1.5 l 0,-4 c 0,-0.830999 -0.669,-1.5 -1.5,-1.5 l -0.46875,0 -0.03125,0 0,-4.5 c 0,-0.831 -0.669,-1.5 -1.5,-1.5 z m 1,2 7,0 c 0.277,0 0.5,0.223 0.5,0.5 l 0,3.5 0,1 -8,0 0,-1 0,-3.5 C 4,-17.777 4.223,-18 4.5,-18 z m 0.5,1 0,1 6.03125,0 0,-1 z m 0,2 0,1 4,0 0,-1 z m 6.5,4 c 0.276,0 0.5,0.224 0.5,0.5 10e-7,0.276 -0.224,0.5 -0.5,0.5 -0.276,0 -0.5,-0.224 -0.5,-0.5 0,-0.276 0.224,-0.5 0.5,-0.5 z m 2,0 c 0.276001,0 0.5,0.224 0.5,0.5 10e-7,0.276 -0.224,0.5 -0.5,0.5 -0.275999,0 -0.5,-0.224 -0.5,-0.5 10e-7,-0.276 0.224,-0.5 0.5,-0.5 z m -9.5,3 8,0 0,1 0,0.5 c 0,0.277 -0.223,0.5 -0.5,0.5 l -7,0 C 4.223,-6 4,-6.223 4,-6.5 L 4,-7 z" fill="#cccccc" fill-opacity="1" stroke="none" sodipodi:nodetypes="sscsssscsssscssssccssssssccccssccccccccccsssssssssscccsssscc" inkscape:connector-curvature="0"/>
 </g>
</svg>
