<?xml version="1.0" encoding="UTF-8" standalone="no"?>
<svg
   xmlns:dc="http://purl.org/dc/elements/1.1/"
   xmlns:cc="http://creativecommons.org/ns#"
   xmlns:rdf="http://www.w3.org/1999/02/22-rdf-syntax-ns#"
   xmlns:svg="http://www.w3.org/2000/svg"
   xmlns="http://www.w3.org/2000/svg"
   xmlns:sodipodi="http://sodipodi.sourceforge.net/DTD/sodipodi-0.dtd"
   xmlns:inkscape="http://www.inkscape.org/namespaces/inkscape"
   height="16"
   width="16"
   id="svg3087"
   version="1.1"
   inkscape:version="0.48.4 r9939"
   sodipodi:docname="folder-symbolic.svg">
  <metadata
     id="metadata3095">
    <rdf:RDF>
      <cc:Work
         rdf:about="">
        <dc:format>image/svg+xml</dc:format>
        <dc:type
           rdf:resource="http://purl.org/dc/dcmitype/StillImage" />
      </cc:Work>
    </rdf:RDF>
  </metadata>
  <defs
     id="defs3093" />
  <sodipodi:namedview
     pagecolor="#ffffff"
     bordercolor="#cccccc"
     borderopacity="1"
     objecttolerance="10"
     gridtolerance="10"
     guidetolerance="10"
     inkscape:pageopacity="0"
     inkscape:pageshadow="2"
     inkscape:window-width="640"
     inkscape:window-height="480"
     id="namedview3091"
     showgrid="false"
     inkscape:zoom="14.75"
     inkscape:cx="8"
     inkscape:cy="8"
     inkscape:window-x="0"
     inkscape:window-y="24"
     inkscape:window-maximized="0"
     inkscape:current-layer="svg3087" />
  <path
     d="M 2.5,2 C 2.223,2 2,2.223 2,2.5 L 2,3 1.5,3 C 1.223,3 1,3.223 1,3.5 l 0,2 C 1,5.223 1.223,5 1.5,5 l 13,0 C 14.777,5 15,5.223 15,5.5 l 0,-2 C 15,3.223 14.777,3 14.5,3 L 8,3 8,2.5 C 8,2.223 7.777,2 7.5,2 l -5,0 z m -1,4 C 1.223,6 1,6.223 1,6.5 l 0,7 C 1,13.777 1.223,14 1.5,14 l 13,0 c 0.277,0 0.5,-0.223 0.5,-0.5 l 0,-7 C 15,6.223 14.777,6 14.5,6 l -13,0 z"
     stroke-width="1"
     display="inline"
     fill="#bebebe"
     color="#bebebe"
     fill-opacity="1"
     fill-rule="nonzero"
     stroke="none"
     visibility="visible"
     inkscape:label="Layer 1"
     inkscape:groupmode="layer"
     inkscape:connector-curvature="0"
     id="path3089"
     style="fill:#cccccc" />
</svg>
