<?xml version="1.0" encoding="UTF-8" standalone="no"?>
<svg
   xmlns:dc="http://purl.org/dc/elements/1.1/"
   xmlns:cc="http://creativecommons.org/ns#"
   xmlns:rdf="http://www.w3.org/1999/02/22-rdf-syntax-ns#"
   xmlns:svg="http://www.w3.org/2000/svg"
   xmlns="http://www.w3.org/2000/svg"
   xmlns:sodipodi="http://sodipodi.sourceforge.net/DTD/sodipodi-0.dtd"
   xmlns:inkscape="http://www.inkscape.org/namespaces/inkscape"
   height="16"
   width="16"
   id="svg3077"
   version="1.1"
   inkscape:version="0.48.4 r9939"
   sodipodi:docname="folder-remote-symbolic.svg">
  <metadata
     id="metadata3085">
    <rdf:RDF>
      <cc:Work
         rdf:about="">
        <dc:format>image/svg+xml</dc:format>
        <dc:type
           rdf:resource="http://purl.org/dc/dcmitype/StillImage" />
      </cc:Work>
    </rdf:RDF>
  </metadata>
  <defs
     id="defs3083" />
  <sodipodi:namedview
     pagecolor="#ffffff"
     bordercolor="#cccccc"
     borderopacity="1"
     objecttolerance="10"
     gridtolerance="10"
     guidetolerance="10"
     inkscape:pageopacity="0"
     inkscape:pageshadow="2"
     inkscape:window-width="640"
     inkscape:window-height="480"
     id="namedview3081"
     showgrid="false"
     inkscape:zoom="14.75"
     inkscape:cx="8"
     inkscape:cy="8"
     inkscape:window-x="0"
     inkscape:window-y="24"
     inkscape:window-maximized="0"
     inkscape:current-layer="svg3077" />
  <path
     d="m 8.0286738,10.786738 c -0.8837844,0 -1.7582785,0.463138 -2.1184755,0.860829 l 2.1184755,2.303665 2.1390372,-2.283103 C 9.8075138,11.249876 8.9124582,10.786738 8.0286738,10.786738 z m 0,-3.9999996 c -1.847888,0 -3.5041267,0.736481 -4.8649357,1.861156 l 1.3245282,1.4137196 c 0.90637,-0.6491716 2.3168195,-1.2748756 3.4869315,-1.2748756 1.198417,0 2.6760272,0.639835 3.5952572,1.3180686 L 12.935091,8.6271534 C 11.574282,7.5024784 9.8765618,6.7867384 8.0286738,6.7867384 z m 0,-3.999999 c -2.853422,0 -5.468321,1.09634 -7.49999996,2.922777 l 1.29591676,1.459363 c 1.8117159,-1.588448 3.7176605,-2.382141 6.2040832,-2.382141 2.4864232,0 4.3343812,0.747499 6.2328602,2.414286 l 1.26714,-1.491508 C 13.496995,3.8830794 10.882095,2.7867394 8.0286738,2.7867394 z"
     stroke-width="1"
     display="inline"
     fill="#bebebe"
     color="#bebebe"
     fill-opacity="1"
     fill-rule="nonzero"
     stroke="none"
     opacity="0.9"
     visibility="visible"
     transform="matrix(1 0 0 1 -0.029 -0.787)"
     id="path3079"
     style="fill:#cccccc;opacity:1" />
</svg>
