<?xml version="1.0" encoding="UTF-8" standalone="no"?>
<svg
   xmlns:dc="http://purl.org/dc/elements/1.1/"
   xmlns:cc="http://creativecommons.org/ns#"
   xmlns:rdf="http://www.w3.org/1999/02/22-rdf-syntax-ns#"
   xmlns:svg="http://www.w3.org/2000/svg"
   xmlns="http://www.w3.org/2000/svg"
   xmlns:sodipodi="http://sodipodi.sourceforge.net/DTD/sodipodi-0.dtd"
   xmlns:inkscape="http://www.inkscape.org/namespaces/inkscape"
   height="16"
   width="16"
   id="svg3107"
   version="1.1"
   inkscape:version="0.48.4 r9939"
   sodipodi:docname="network-server-symbolic.svg">
  <metadata
     id="metadata3115">
    <rdf:RDF>
      <cc:Work
         rdf:about="">
        <dc:format>image/svg+xml</dc:format>
        <dc:type
           rdf:resource="http://purl.org/dc/dcmitype/StillImage" />
      </cc:Work>
    </rdf:RDF>
  </metadata>
  <defs
     id="defs3113" />
  <sodipodi:namedview
     pagecolor="#ffffff"
     bordercolor="#666666"
     borderopacity="1"
     objecttolerance="10"
     gridtolerance="10"
     guidetolerance="10"
     inkscape:pageopacity="0"
     inkscape:pageshadow="2"
     inkscape:window-width="640"
     inkscape:window-height="480"
     id="namedview3111"
     showgrid="false"
     inkscape:zoom="14.75"
     inkscape:cx="8"
     inkscape:cy="8"
     inkscape:window-x="0"
     inkscape:window-y="24"
     inkscape:window-maximized="0"
     inkscape:current-layer="svg3107" />
  <path
     d="M 3 2 L 3 5 L 3 6 L 3 7 L 13 7 L 13 6 L 13 5 L 13 2 L 3 2 z M 4 3 L 6 3 L 6 5 L 6 6 L 4 6 L 4 5 L 4 3 z M 7 3 L 12 3 L 12 5 L 12 6 L 7 6 L 7 5 L 7 3 z M 10 4 L 10 5 L 11 5 L 11 4 L 10 4 z M 3 9 L 3 12 L 3 13 L 3 14 L 13 14 L 13 13 L 13 12 L 13 9 L 3 9 z M 4 10 L 6 10 L 6 12 L 6 13 L 4 13 L 4 12 L 4 10 z M 7 10 L 12 10 L 12 12 L 12 13 L 7 13 L 7 12 L 7 10 z M 10 11 L 10 12 L 11 12 L 11 11 L 10 11 z "
     fill="#bebebe"
     fill-opacity="1"
     stroke="none"
     opacity="1"
     inkscape:label="Layer 1"
     inkscape:groupmode="layer"
     transform="matrix(1 0 0 1 0 0)"
     id="path3109"
     style="fill:#666666" />
</svg>
