<?xml version="1.0" encoding="UTF-8" standalone="no"?>
<svg
   xmlns:dc="http://purl.org/dc/elements/1.1/"
   xmlns:cc="http://creativecommons.org/ns#"
   xmlns:rdf="http://www.w3.org/1999/02/22-rdf-syntax-ns#"
   xmlns:svg="http://www.w3.org/2000/svg"
   xmlns="http://www.w3.org/2000/svg"
   xmlns:sodipodi="http://sodipodi.sourceforge.net/DTD/sodipodi-0.dtd"
   xmlns:inkscape="http://www.inkscape.org/namespaces/inkscape"
   height="16"
   width="16"
   id="svg3212"
   version="1.1"
   inkscape:version="0.48.4 r9939"
   sodipodi:docname="start-here-gnome-symbolic.svg">
  <metadata
     id="metadata3224">
    <rdf:RDF>
      <cc:Work
         rdf:about="">
        <dc:format>image/svg+xml</dc:format>
        <dc:type
           rdf:resource="http://purl.org/dc/dcmitype/StillImage" />
      </cc:Work>
    </rdf:RDF>
  </metadata>
  <defs
     id="defs3222" />
  <sodipodi:namedview
     pagecolor="#ffffff"
     bordercolor="#cccccc"
     borderopacity="1"
     objecttolerance="10"
     gridtolerance="10"
     guidetolerance="10"
     inkscape:pageopacity="0"
     inkscape:pageshadow="2"
     inkscape:window-width="640"
     inkscape:window-height="480"
     id="namedview3220"
     showgrid="false"
     inkscape:zoom="3.6875"
     inkscape:cx="12.342975"
     inkscape:cy="-0.60907341"
     inkscape:window-x="0"
     inkscape:window-y="24"
     inkscape:window-maximized="0"
     inkscape:current-layer="svg3212" />
  <path
     style="fill:#cccccc"
     inkscape:connector-curvature="0"
     id="path3218"
     d="m 12.992,0.0144 c -0.614,0.041 -1.319,0.3111 -1.887,0.7771 -0.696,0.571 -1.2617,2.0225 -1.1102,2.831 0.07813,0.41684 0.39269,0.92405 0.69386,1.0824 0.56085,0.29494 1.5831,-0.1943 2.5257,-1.1934 1.0182,-1.0793 1.4859,-2.2686 1.1379,-2.942 -0.214,-0.4139 -0.745,-0.5961 -1.36,-0.5551 z M 7.9688,0.6527 c -0.85525,7.691e-4 -1.3077,0.60212 -1.3045,1.7485 0.00225,0.78505 0.27818,1.4913 0.63835,1.6653 0.26779,0.12934 0.27448,0.11727 0.6106,0 C 8.47005,3.8728 8.99315,2.5762 8.88475,1.7079 8.79595,0.9973 8.49055,0.6528 7.96885,0.6532 z M 4.5827,1.8184 C 4.4227,1.8416 4.2622,1.9446 4.1109,2.096 3.8059,2.4012 3.8019,2.5675 3.8056,3.1506 c 0.00439,0.68769 0.17221,1.0626 0.63835,1.5543 0.34869,0.36773 0.60013,0.38972 0.9159,0.05551 0.3421,-0.362 0.4483,-0.9301 0.3331,-1.5538 -0.1757,-0.9513 -0.6301,-1.4572 -1.1102,-1.3878 z M 2.1958,3.9 C 2.0298,3.927 1.8801,4.021 1.724,4.178 1.3143,4.588 1.6008,5.715 2.2513,6.287 3.0277,6.969 3.6547,6.344 3.3893,5.149 3.2004,4.298 2.6939,3.819 2.1958,3.9 z M 9.3287,5.3987 C 8.77888,5.3892 8.1627,5.43509 7.5247,5.56523 5.881,5.90048 4.5657,6.52038 3.7223,7.36923 3.23658,7.85812 2.95867,8.31071 2.72314,9.00673 c -0.57012,1.6848 0.48572,4.0816 2.4979,5.7174 0.74967,0.60945 1.2071,0.8822 1.9706,1.1379 0.39588,0.13261 0.70977,0.16341 1.4432,0.13877 0.84082,-0.02825 1.0118,-0.06579 1.5543,-0.33305 0.79492,-0.39166 1.696,-1.2976 2.0816,-2.0816 0.23526,-0.47827 0.27295,-0.68265 0.24979,-1.0824 -0.03954,-0.68261 -0.30433,-0.86839 -1.1657,-0.86039 -1.2297,0.01141 -1.7459,0.29658 -1.9983,1.1657 -0.19068,0.65644 -0.40148,0.88814 -0.83264,0.88814 -0.68331,0 -1.3877,-0.54336 -1.3877,-1.1102 0,-0.39433 0.6353,-0.98208 2.2204,-2.0538 2.2329,-1.5098 3.0006,-2.4283 2.8865,-3.4416 -0.11788,-1.0467 -1.2648,-1.6646 -2.9142,-1.693 z" />
</svg>
