<?xml version="1.0" encoding="UTF-8"?>
<svg xmlns="http://www.w3.org/2000/svg" xmlns:xlink="http://www.w3.org/1999/xlink" width="19pt" height="19pt" viewBox="0 0 19 19" version="1.1">
<g id="surface1">
<path style=" stroke:none;fill-rule:nonzero;fill:rgb(100%,100%,100%);fill-opacity:1;" d="M 4.503906 5.605469 C 4.640625 5.433594 4.886719 5.402344 5.058594 5.539062 L 7.558594 7.484375 C 7.730469 7.617188 7.761719 7.867188 7.625 8.039062 C 7.492188 8.210938 7.242188 8.242188 7.070312 8.109375 L 4.574219 6.160156 C 4.402344 6.027344 4.371094 5.777344 4.503906 5.605469 Z M 4.503906 5.605469 "/>
<path style=" stroke:none;fill-rule:nonzero;fill:rgb(100%,100%,100%);fill-opacity:0.576471;" d="M 5.605469 14.496094 C 5.433594 14.359375 5.402344 14.113281 5.539062 13.941406 L 7.484375 11.441406 C 7.617188 11.269531 7.867188 11.238281 8.039062 11.375 C 8.210938 11.507812 8.242188 11.757812 8.109375 11.929688 L 6.160156 14.425781 C 6.027344 14.597656 5.777344 14.628906 5.605469 14.496094 Z M 5.605469 14.496094 "/>
<path style=" stroke:none;fill-rule:nonzero;fill:rgb(100%,100%,100%);fill-opacity:0.333333;" d="M 14.496094 13.394531 C 14.359375 13.566406 14.113281 13.597656 13.941406 13.460938 L 11.441406 11.515625 C 11.269531 11.382812 11.238281 11.132812 11.375 10.960938 C 11.507812 10.789062 11.757812 10.757812 11.929688 10.890625 L 14.425781 12.839844 C 14.597656 12.972656 14.628906 13.222656 14.496094 13.394531 Z M 14.496094 13.394531 "/>
<path style=" stroke:none;fill-rule:nonzero;fill:rgb(100%,100%,100%);fill-opacity:0.188235;" d="M 13.394531 4.503906 C 13.566406 4.640625 13.597656 4.886719 13.460938 5.058594 L 11.515625 7.558594 C 11.382812 7.730469 11.132812 7.761719 10.960938 7.625 C 10.789062 7.492188 10.757812 7.242188 10.890625 7.070312 L 12.839844 4.574219 C 12.972656 4.402344 13.222656 4.371094 13.394531 4.503906 Z M 13.394531 4.503906 "/>
<path style=" stroke:none;fill-rule:nonzero;fill:rgb(100%,100%,100%);fill-opacity:0.831373;" d="M 3.226562 8.625 C 3.257812 8.410156 3.457031 8.257812 3.675781 8.289062 L 6.808594 8.726562 C 7.027344 8.753906 7.179688 8.957031 7.148438 9.171875 C 7.117188 9.386719 6.917969 9.539062 6.699219 9.507812 L 3.566406 9.070312 C 3.347656 9.042969 3.195312 8.84375 3.226562 8.625 Z M 3.226562 8.625 "/>
<path style=" stroke:none;fill-rule:nonzero;fill:rgb(100%,100%,100%);fill-opacity:0.694118;" d="M 3.628906 11.878906 C 3.546875 11.675781 3.644531 11.445312 3.847656 11.363281 L 6.785156 10.175781 C 6.984375 10.09375 7.21875 10.191406 7.300781 10.390625 C 7.382812 10.59375 7.285156 10.824219 7.082031 10.90625 L 4.144531 12.097656 C 3.945312 12.179688 3.710938 12.082031 3.628906 11.878906 Z M 3.628906 11.878906 "/>
<path style=" stroke:none;fill-rule:nonzero;fill:rgb(100%,100%,100%);fill-opacity:0.482353;" d="M 8.625 15.773438 C 8.410156 15.742188 8.257812 15.542969 8.289062 15.324219 L 8.726562 12.191406 C 8.753906 11.972656 8.957031 11.820312 9.171875 11.851562 C 9.386719 11.882812 9.539062 12.082031 9.507812 12.300781 L 9.070312 15.433594 C 9.042969 15.652344 8.84375 15.804688 8.625 15.773438 Z M 8.625 15.773438 "/>
<path style=" stroke:none;fill-rule:nonzero;fill:rgb(100%,100%,100%);fill-opacity:0.403922;" d="M 11.878906 15.371094 C 11.675781 15.453125 11.445312 15.355469 11.363281 15.152344 L 10.175781 12.214844 C 10.09375 12.015625 10.191406 11.78125 10.390625 11.699219 C 10.59375 11.617188 10.824219 11.714844 10.90625 11.917969 L 12.097656 14.855469 C 12.179688 15.054688 12.082031 15.289062 11.878906 15.371094 Z M 11.878906 15.371094 "/>
<path style=" stroke:none;fill-rule:nonzero;fill:rgb(100%,100%,100%);fill-opacity:0.278431;" d="M 15.773438 10.375 C 15.742188 10.589844 15.542969 10.742188 15.324219 10.710938 L 12.191406 10.273438 C 11.972656 10.246094 11.820312 10.042969 11.851562 9.828125 C 11.882812 9.613281 12.082031 9.460938 12.300781 9.492188 L 15.433594 9.929688 C 15.652344 9.957031 15.804688 10.15625 15.773438 10.375 Z M 15.773438 10.375 "/>
<path style=" stroke:none;fill-rule:nonzero;fill:rgb(100%,100%,100%);fill-opacity:0.231373;" d="M 15.371094 7.121094 C 15.453125 7.324219 15.355469 7.554688 15.152344 7.636719 L 12.214844 8.824219 C 12.015625 8.90625 11.78125 8.808594 11.699219 8.609375 C 11.617188 8.40625 11.714844 8.175781 11.917969 8.09375 L 14.855469 6.902344 C 15.054688 6.820312 15.289062 6.917969 15.371094 7.121094 Z M 15.371094 7.121094 "/>
<path style=" stroke:none;fill-rule:nonzero;fill:rgb(100%,100%,100%);fill-opacity:0.160784;" d="M 10.375 3.226562 C 10.589844 3.257812 10.742188 3.457031 10.710938 3.675781 L 10.273438 6.808594 C 10.246094 7.027344 10.042969 7.179688 9.828125 7.148438 C 9.613281 7.117188 9.460938 6.917969 9.492188 6.699219 L 9.929688 3.566406 C 9.957031 3.347656 10.15625 3.195312 10.375 3.226562 Z M 10.375 3.226562 "/>
<path style=" stroke:none;fill-rule:nonzero;fill:rgb(100%,100%,100%);fill-opacity:0.129412;" d="M 7.121094 3.628906 C 7.324219 3.546875 7.554688 3.644531 7.636719 3.847656 L 8.824219 6.785156 C 8.90625 6.984375 8.808594 7.21875 8.609375 7.300781 C 8.40625 7.382812 8.175781 7.285156 8.09375 7.082031 L 6.902344 4.144531 C 6.820312 3.945312 6.917969 3.710938 7.121094 3.628906 Z M 7.121094 3.628906 "/>
</g>
</svg>
