<?xml version="1.0" encoding="UTF-8"?>
<svg xmlns="http://www.w3.org/2000/svg" xmlns:xlink="http://www.w3.org/1999/xlink" width="19pt" height="19pt" viewBox="0 0 19 19" version="1.1">
<g id="surface1">
<path style=" stroke:none;fill-rule:nonzero;fill:rgb(100%,100%,100%);fill-opacity:1;" d="M 9.335938 3.167969 C 9.554688 3.164062 9.734375 3.335938 9.742188 3.554688 L 9.824219 6.71875 C 9.828125 6.9375 9.65625 7.121094 9.4375 7.125 C 9.21875 7.132812 9.039062 6.960938 9.03125 6.742188 L 8.949219 3.574219 C 8.941406 3.355469 9.117188 3.175781 9.335938 3.167969 Z M 9.335938 3.167969 "/>
<path style=" stroke:none;fill-rule:nonzero;fill:rgb(100%,100%,100%);fill-opacity:0.576471;" d="M 3.167969 9.664062 C 3.164062 9.445312 3.335938 9.265625 3.554688 9.257812 L 6.71875 9.175781 C 6.9375 9.171875 7.121094 9.34375 7.125 9.5625 C 7.132812 9.78125 6.960938 9.960938 6.742188 9.96875 L 3.574219 10.050781 C 3.355469 10.058594 3.175781 9.882812 3.167969 9.664062 Z M 3.167969 9.664062 "/>
<path style=" stroke:none;fill-rule:nonzero;fill:rgb(100%,100%,100%);fill-opacity:0.333333;" d="M 9.664062 15.832031 C 9.445312 15.835938 9.265625 15.664062 9.257812 15.445312 L 9.175781 12.28125 C 9.171875 12.0625 9.34375 11.878906 9.5625 11.875 C 9.78125 11.867188 9.960938 12.039062 9.96875 12.257812 L 10.050781 15.425781 C 10.058594 15.644531 9.882812 15.824219 9.664062 15.832031 Z M 9.664062 15.832031 "/>
<path style=" stroke:none;fill-rule:nonzero;fill:rgb(100%,100%,100%);fill-opacity:0.188235;" d="M 15.832031 9.335938 C 15.835938 9.554688 15.664062 9.734375 15.445312 9.742188 L 12.28125 9.824219 C 12.0625 9.828125 11.878906 9.65625 11.875 9.4375 C 11.867188 9.21875 12.039062 9.039062 12.257812 9.03125 L 15.425781 8.949219 C 15.644531 8.941406 15.824219 9.117188 15.832031 9.335938 Z M 15.832031 9.335938 "/>
<path style=" stroke:none;fill-rule:nonzero;fill:rgb(100%,100%,100%);fill-opacity:0.831373;" d="M 6.191406 4.101562 C 6.378906 3.984375 6.621094 4.042969 6.734375 4.230469 L 8.390625 6.929688 C 8.503906 7.117188 8.445312 7.359375 8.257812 7.476562 C 8.074219 7.589844 7.828125 7.53125 7.714844 7.34375 L 6.058594 4.644531 C 5.945312 4.457031 6.003906 4.214844 6.191406 4.101562 Z M 6.191406 4.101562 "/>
<path style=" stroke:none;fill-rule:nonzero;fill:rgb(100%,100%,100%);fill-opacity:0.694118;" d="M 3.933594 6.476562 C 4.039062 6.285156 4.277344 6.214844 4.472656 6.320312 L 7.253906 7.828125 C 7.445312 7.933594 7.515625 8.175781 7.414062 8.367188 C 7.308594 8.558594 7.066406 8.628906 6.875 8.527344 L 4.09375 7.015625 C 3.902344 6.910156 3.828125 6.671875 3.933594 6.476562 Z M 3.933594 6.476562 "/>
<path style=" stroke:none;fill-rule:nonzero;fill:rgb(100%,100%,100%);fill-opacity:0.482353;" d="M 4.101562 12.808594 C 3.984375 12.621094 4.042969 12.378906 4.230469 12.265625 L 6.929688 10.609375 C 7.117188 10.496094 7.359375 10.554688 7.476562 10.742188 C 7.589844 10.925781 7.53125 11.171875 7.34375 11.285156 L 4.644531 12.941406 C 4.457031 13.054688 4.214844 12.996094 4.101562 12.808594 Z M 4.101562 12.808594 "/>
<path style=" stroke:none;fill-rule:nonzero;fill:rgb(100%,100%,100%);fill-opacity:0.403922;" d="M 6.476562 15.066406 C 6.285156 14.960938 6.214844 14.722656 6.320312 14.527344 L 7.828125 11.746094 C 7.933594 11.554688 8.175781 11.484375 8.367188 11.585938 C 8.558594 11.691406 8.628906 11.933594 8.527344 12.125 L 7.015625 14.90625 C 6.910156 15.097656 6.671875 15.171875 6.476562 15.066406 Z M 6.476562 15.066406 "/>
<path style=" stroke:none;fill-rule:nonzero;fill:rgb(100%,100%,100%);fill-opacity:0.278431;" d="M 12.808594 14.898438 C 12.621094 15.015625 12.378906 14.957031 12.265625 14.769531 L 10.609375 12.070312 C 10.496094 11.882812 10.554688 11.640625 10.742188 11.523438 C 10.925781 11.410156 11.171875 11.46875 11.285156 11.65625 L 12.941406 14.355469 C 13.054688 14.542969 12.996094 14.785156 12.808594 14.898438 Z M 12.808594 14.898438 "/>
<path style=" stroke:none;fill-rule:nonzero;fill:rgb(100%,100%,100%);fill-opacity:0.231373;" d="M 15.066406 12.523438 C 14.960938 12.714844 14.722656 12.785156 14.527344 12.679688 L 11.746094 11.171875 C 11.554688 11.066406 11.484375 10.824219 11.585938 10.632812 C 11.691406 10.441406 11.933594 10.371094 12.125 10.472656 L 14.90625 11.984375 C 15.097656 12.089844 15.171875 12.328125 15.066406 12.523438 Z M 15.066406 12.523438 "/>
<path style=" stroke:none;fill-rule:nonzero;fill:rgb(100%,100%,100%);fill-opacity:0.160784;" d="M 14.898438 6.191406 C 15.015625 6.378906 14.957031 6.621094 14.769531 6.734375 L 12.070312 8.390625 C 11.882812 8.503906 11.640625 8.445312 11.523438 8.257812 C 11.410156 8.074219 11.46875 7.828125 11.65625 7.714844 L 14.355469 6.058594 C 14.542969 5.945312 14.785156 6.003906 14.898438 6.191406 Z M 14.898438 6.191406 "/>
<path style=" stroke:none;fill-rule:nonzero;fill:rgb(100%,100%,100%);fill-opacity:0.129412;" d="M 12.523438 3.933594 C 12.714844 4.039062 12.785156 4.277344 12.679688 4.472656 L 11.171875 7.253906 C 11.066406 7.445312 10.824219 7.515625 10.632812 7.414062 C 10.441406 7.308594 10.371094 7.066406 10.472656 6.875 L 11.984375 4.09375 C 12.089844 3.902344 12.328125 3.828125 12.523438 3.933594 Z M 12.523438 3.933594 "/>
<path style=" stroke:none;fill-rule:nonzero;fill:rgb(100%,100%,100%);fill-opacity:1;" d="M 17.417969 15.832031 C 17.417969 16.707031 16.707031 17.417969 15.832031 17.417969 C 14.957031 17.417969 14.25 16.707031 14.25 15.832031 C 14.25 14.957031 14.957031 14.25 15.832031 14.25 C 16.707031 14.25 17.417969 14.957031 17.417969 15.832031 Z M 17.417969 15.832031 "/>
</g>
</svg>
