<?xml version="1.0" encoding="UTF-8"?>
<svg xmlns="http://www.w3.org/2000/svg" xmlns:xlink="http://www.w3.org/1999/xlink" width="19pt" height="19pt" viewBox="0 0 19 19" version="1.1">
<g id="surface1">
<path style=" stroke:none;fill-rule:nonzero;fill:rgb(100%,100%,100%);fill-opacity:1;" d="M 10.410156 15.769531 C 10.191406 15.800781 9.992188 15.648438 9.960938 15.433594 L 9.507812 12.300781 C 9.476562 12.082031 9.625 11.882812 9.839844 11.851562 C 10.058594 11.820312 10.257812 11.96875 10.289062 12.183594 L 10.746094 15.320312 C 10.777344 15.535156 10.625 15.734375 10.410156 15.769531 Z M 10.410156 15.769531 "/>
<path style=" stroke:none;fill-rule:nonzero;fill:rgb(100%,100%,100%);fill-opacity:0.576471;" d="M 15.769531 8.589844 C 15.800781 8.808594 15.648438 9.007812 15.433594 9.039062 L 12.300781 9.492188 C 12.082031 9.523438 11.882812 9.375 11.851562 9.160156 C 11.820312 8.941406 11.96875 8.742188 12.183594 8.710938 L 15.320312 8.253906 C 15.535156 8.222656 15.734375 8.375 15.769531 8.589844 Z M 15.769531 8.589844 "/>
<path style=" stroke:none;fill-rule:nonzero;fill:rgb(100%,100%,100%);fill-opacity:0.333333;" d="M 8.589844 3.230469 C 8.808594 3.199219 9.007812 3.351562 9.039062 3.566406 L 9.492188 6.699219 C 9.523438 6.917969 9.375 7.117188 9.160156 7.148438 C 8.941406 7.179688 8.742188 7.03125 8.710938 6.816406 L 8.253906 3.679688 C 8.222656 3.464844 8.375 3.265625 8.589844 3.230469 Z M 8.589844 3.230469 "/>
<path style=" stroke:none;fill-rule:nonzero;fill:rgb(100%,100%,100%);fill-opacity:0.188235;" d="M 3.230469 10.410156 C 3.199219 10.191406 3.351562 9.992188 3.566406 9.960938 L 6.699219 9.507812 C 6.917969 9.476562 7.117188 9.625 7.148438 9.839844 C 7.179688 10.058594 7.03125 10.257812 6.816406 10.289062 L 3.679688 10.746094 C 3.464844 10.777344 3.265625 10.625 3.230469 10.410156 Z M 3.230469 10.410156 "/>
<path style=" stroke:none;fill-rule:nonzero;fill:rgb(100%,100%,100%);fill-opacity:0.831373;" d="M 13.421875 14.472656 C 13.25 14.609375 13 14.578125 12.867188 14.40625 L 10.90625 11.921875 C 10.769531 11.75 10.800781 11.5 10.96875 11.363281 C 11.140625 11.230469 11.390625 11.257812 11.527344 11.429688 L 13.488281 13.917969 C 13.621094 14.089844 13.59375 14.339844 13.421875 14.472656 Z M 13.421875 14.472656 "/>
<path style=" stroke:none;fill-rule:nonzero;fill:rgb(100%,100%,100%);fill-opacity:0.694118;" d="M 15.382812 11.847656 C 15.300781 12.050781 15.070312 12.148438 14.867188 12.066406 L 11.925781 10.894531 C 11.722656 10.8125 11.625 10.582031 11.707031 10.378906 C 11.785156 10.175781 12.015625 10.078125 12.21875 10.160156 L 15.160156 11.332031 C 15.363281 11.414062 15.464844 11.644531 15.382812 11.847656 Z M 15.382812 11.847656 "/>
<path style=" stroke:none;fill-rule:nonzero;fill:rgb(100%,100%,100%);fill-opacity:0.482353;" d="M 14.472656 5.578125 C 14.609375 5.75 14.578125 6 14.40625 6.132812 L 11.921875 8.09375 C 11.75 8.230469 11.5 8.199219 11.363281 8.03125 C 11.230469 7.859375 11.257812 7.609375 11.429688 7.472656 L 13.917969 5.511719 C 14.089844 5.378906 14.339844 5.40625 14.472656 5.578125 Z M 14.472656 5.578125 "/>
<path style=" stroke:none;fill-rule:nonzero;fill:rgb(100%,100%,100%);fill-opacity:0.403922;" d="M 11.847656 3.617188 C 12.050781 3.699219 12.148438 3.929688 12.066406 4.132812 L 10.894531 7.074219 C 10.8125 7.277344 10.582031 7.375 10.378906 7.292969 C 10.175781 7.214844 10.078125 6.984375 10.160156 6.78125 L 11.332031 3.839844 C 11.414062 3.636719 11.644531 3.535156 11.847656 3.617188 Z M 11.847656 3.617188 "/>
<path style=" stroke:none;fill-rule:nonzero;fill:rgb(100%,100%,100%);fill-opacity:0.278431;" d="M 5.578125 4.527344 C 5.75 4.390625 6 4.421875 6.132812 4.59375 L 8.09375 7.078125 C 8.230469 7.25 8.199219 7.5 8.03125 7.636719 C 7.859375 7.769531 7.609375 7.742188 7.472656 7.570312 L 5.511719 5.082031 C 5.378906 4.910156 5.40625 4.660156 5.578125 4.527344 Z M 5.578125 4.527344 "/>
<path style=" stroke:none;fill-rule:nonzero;fill:rgb(100%,100%,100%);fill-opacity:0.231373;" d="M 3.617188 7.152344 C 3.699219 6.949219 3.929688 6.851562 4.132812 6.933594 L 7.074219 8.105469 C 7.277344 8.1875 7.375 8.417969 7.292969 8.621094 C 7.214844 8.824219 6.984375 8.921875 6.78125 8.839844 L 3.839844 7.667969 C 3.636719 7.585938 3.535156 7.355469 3.617188 7.152344 Z M 3.617188 7.152344 "/>
<path style=" stroke:none;fill-rule:nonzero;fill:rgb(100%,100%,100%);fill-opacity:0.160784;" d="M 4.527344 13.421875 C 4.390625 13.25 4.421875 13 4.59375 12.867188 L 7.078125 10.90625 C 7.25 10.769531 7.5 10.800781 7.636719 10.96875 C 7.769531 11.140625 7.742188 11.390625 7.570312 11.527344 L 5.082031 13.488281 C 4.910156 13.621094 4.660156 13.59375 4.527344 13.421875 Z M 4.527344 13.421875 "/>
<path style=" stroke:none;fill-rule:nonzero;fill:rgb(100%,100%,100%);fill-opacity:0.129412;" d="M 7.152344 15.382812 C 6.949219 15.300781 6.851562 15.070312 6.933594 14.867188 L 8.105469 11.925781 C 8.1875 11.722656 8.417969 11.625 8.621094 11.707031 C 8.824219 11.785156 8.921875 12.015625 8.839844 12.21875 L 7.667969 15.160156 C 7.585938 15.363281 7.355469 15.464844 7.152344 15.382812 Z M 7.152344 15.382812 "/>
<path style=" stroke:none;fill-rule:nonzero;fill:rgb(100%,100%,100%);fill-opacity:1;" d="M 17.417969 15.832031 C 17.417969 16.707031 16.707031 17.417969 15.832031 17.417969 C 14.957031 17.417969 14.25 16.707031 14.25 15.832031 C 14.25 14.957031 14.957031 14.25 15.832031 14.25 C 16.707031 14.25 17.417969 14.957031 17.417969 15.832031 Z M 17.417969 15.832031 "/>
</g>
</svg>
