<?xml version="1.0" encoding="UTF-8"?>
<svg xmlns="http://www.w3.org/2000/svg" xmlns:xlink="http://www.w3.org/1999/xlink" width="19pt" height="19pt" viewBox="0 0 19 19" version="1.1">
<g id="surface1">
<path style=" stroke:none;fill-rule:nonzero;fill:rgb(100%,100%,100%);fill-opacity:1;" d="M 15.746094 10.550781 C 15.710938 10.765625 15.503906 10.910156 15.289062 10.875 L 12.167969 10.347656 C 11.953125 10.3125 11.804688 10.109375 11.84375 9.894531 C 11.878906 9.679688 12.082031 9.53125 12.296875 9.570312 L 15.421875 10.09375 C 15.636719 10.128906 15.78125 10.332031 15.746094 10.550781 Z M 15.746094 10.550781 "/>
<path style=" stroke:none;fill-rule:nonzero;fill:rgb(100%,100%,100%);fill-opacity:0.576471;" d="M 10.550781 3.253906 C 10.765625 3.289062 10.910156 3.496094 10.875 3.710938 L 10.347656 6.832031 C 10.3125 7.046875 10.109375 7.195312 9.894531 7.15625 C 9.679688 7.121094 9.53125 6.917969 9.570312 6.703125 L 10.09375 3.578125 C 10.128906 3.363281 10.332031 3.21875 10.550781 3.253906 Z M 10.550781 3.253906 "/>
<path style=" stroke:none;fill-rule:nonzero;fill:rgb(100%,100%,100%);fill-opacity:0.333333;" d="M 3.253906 8.449219 C 3.289062 8.234375 3.496094 8.089844 3.710938 8.125 L 6.832031 8.652344 C 7.046875 8.6875 7.195312 8.890625 7.15625 9.105469 C 7.121094 9.320312 6.917969 9.46875 6.703125 9.429688 L 3.578125 8.90625 C 3.363281 8.871094 3.21875 8.667969 3.253906 8.449219 Z M 3.253906 8.449219 "/>
<path style=" stroke:none;fill-rule:nonzero;fill:rgb(100%,100%,100%);fill-opacity:0.188235;" d="M 8.449219 15.746094 C 8.234375 15.710938 8.089844 15.503906 8.125 15.289062 L 8.652344 12.167969 C 8.6875 11.953125 8.890625 11.804688 9.105469 11.84375 C 9.320312 11.878906 9.46875 12.082031 9.429688 12.296875 L 8.90625 15.421875 C 8.871094 15.636719 8.667969 15.78125 8.449219 15.746094 Z M 8.449219 15.746094 "/>
<path style=" stroke:none;fill-rule:nonzero;fill:rgb(100%,100%,100%);fill-opacity:0.831373;" d="M 15.433594 7.285156 C 15.511719 7.492188 15.40625 7.71875 15.203125 7.796875 L 12.234375 8.902344 C 12.03125 8.980469 11.800781 8.875 11.726562 8.667969 C 11.648438 8.464844 11.753906 8.238281 11.957031 8.160156 L 14.925781 7.054688 C 15.128906 6.976562 15.355469 7.082031 15.433594 7.285156 Z M 15.433594 7.285156 "/>
<path style=" stroke:none;fill-rule:nonzero;fill:rgb(100%,100%,100%);fill-opacity:0.694118;" d="M 13.53125 4.617188 C 13.699219 4.753906 13.722656 5.003906 13.585938 5.171875 L 11.570312 7.613281 C 11.429688 7.785156 11.179688 7.808594 11.011719 7.667969 C 10.84375 7.527344 10.820312 7.28125 10.957031 7.109375 L 12.972656 4.667969 C 13.113281 4.5 13.363281 4.476562 13.53125 4.617188 Z M 13.53125 4.617188 "/>
<path style=" stroke:none;fill-rule:nonzero;fill:rgb(100%,100%,100%);fill-opacity:0.482353;" d="M 7.285156 3.566406 C 7.492188 3.488281 7.71875 3.59375 7.796875 3.796875 L 8.902344 6.765625 C 8.980469 6.96875 8.875 7.199219 8.667969 7.273438 C 8.464844 7.351562 8.238281 7.246094 8.160156 7.042969 L 7.054688 4.074219 C 6.976562 3.871094 7.082031 3.644531 7.285156 3.566406 Z M 7.285156 3.566406 "/>
<path style=" stroke:none;fill-rule:nonzero;fill:rgb(100%,100%,100%);fill-opacity:0.403922;" d="M 4.617188 5.46875 C 4.753906 5.300781 5.003906 5.277344 5.171875 5.414062 L 7.613281 7.429688 C 7.785156 7.570312 7.808594 7.820312 7.667969 7.988281 C 7.527344 8.15625 7.28125 8.179688 7.109375 8.042969 L 4.667969 6.027344 C 4.5 5.886719 4.476562 5.636719 4.617188 5.46875 Z M 4.617188 5.46875 "/>
<path style=" stroke:none;fill-rule:nonzero;fill:rgb(100%,100%,100%);fill-opacity:0.278431;" d="M 3.566406 11.714844 C 3.488281 11.507812 3.59375 11.28125 3.796875 11.203125 L 6.765625 10.097656 C 6.96875 10.019531 7.199219 10.125 7.273438 10.332031 C 7.351562 10.535156 7.246094 10.761719 7.042969 10.839844 L 4.074219 11.945312 C 3.871094 12.023438 3.644531 11.917969 3.566406 11.714844 Z M 3.566406 11.714844 "/>
<path style=" stroke:none;fill-rule:nonzero;fill:rgb(100%,100%,100%);fill-opacity:0.231373;" d="M 5.46875 14.382812 C 5.300781 14.246094 5.277344 13.996094 5.414062 13.828125 L 7.429688 11.386719 C 7.570312 11.214844 7.820312 11.191406 7.988281 11.332031 C 8.15625 11.472656 8.179688 11.71875 8.042969 11.890625 L 6.027344 14.332031 C 5.886719 14.5 5.636719 14.523438 5.46875 14.382812 Z M 5.46875 14.382812 "/>
<path style=" stroke:none;fill-rule:nonzero;fill:rgb(100%,100%,100%);fill-opacity:0.160784;" d="M 11.714844 15.433594 C 11.507812 15.511719 11.28125 15.40625 11.203125 15.203125 L 10.097656 12.234375 C 10.019531 12.03125 10.125 11.800781 10.332031 11.726562 C 10.535156 11.648438 10.761719 11.753906 10.839844 11.957031 L 11.945312 14.925781 C 12.023438 15.128906 11.917969 15.355469 11.714844 15.433594 Z M 11.714844 15.433594 "/>
<path style=" stroke:none;fill-rule:nonzero;fill:rgb(100%,100%,100%);fill-opacity:0.129412;" d="M 14.382812 13.53125 C 14.246094 13.699219 13.996094 13.722656 13.828125 13.585938 L 11.386719 11.570312 C 11.214844 11.429688 11.191406 11.179688 11.332031 11.011719 C 11.472656 10.84375 11.71875 10.820312 11.890625 10.957031 L 14.332031 12.972656 C 14.5 13.113281 14.523438 13.363281 14.382812 13.53125 Z M 14.382812 13.53125 "/>
<path style=" stroke:none;fill-rule:nonzero;fill:rgb(100%,100%,100%);fill-opacity:1;" d="M 17.417969 15.832031 C 17.417969 16.707031 16.707031 17.417969 15.832031 17.417969 C 14.957031 17.417969 14.25 16.707031 14.25 15.832031 C 14.25 14.957031 14.957031 14.25 15.832031 14.25 C 16.707031 14.25 17.417969 14.957031 17.417969 15.832031 Z M 17.417969 15.832031 "/>
</g>
</svg>
