<?xml version="1.0" encoding="UTF-8"?>
<svg xmlns="http://www.w3.org/2000/svg" xmlns:xlink="http://www.w3.org/1999/xlink" width="19pt" height="19pt" viewBox="0 0 19 19" version="1.1">
<g id="surface1">
<path style=" stroke:none;fill-rule:nonzero;fill:rgb(100%,100%,100%);fill-opacity:1;" d="M 15.660156 8.023438 C 15.710938 8.234375 15.578125 8.449219 15.367188 8.5 L 12.285156 9.238281 C 12.074219 9.289062 11.859375 9.15625 11.808594 8.945312 C 11.757812 8.734375 11.890625 8.519531 12.101562 8.46875 L 15.179688 7.730469 C 15.394531 7.679688 15.605469 7.808594 15.660156 8.023438 Z M 15.660156 8.023438 "/>
<path style=" stroke:none;fill-rule:nonzero;fill:rgb(100%,100%,100%);fill-opacity:0.576471;" d="M 8.023438 3.339844 C 8.234375 3.289062 8.449219 3.421875 8.5 3.632812 L 9.238281 6.714844 C 9.289062 6.925781 9.15625 7.140625 8.945312 7.191406 C 8.734375 7.242188 8.519531 7.109375 8.46875 6.898438 L 7.730469 3.820312 C 7.679688 3.605469 7.808594 3.394531 8.023438 3.339844 Z M 8.023438 3.339844 "/>
<path style=" stroke:none;fill-rule:nonzero;fill:rgb(100%,100%,100%);fill-opacity:0.333333;" d="M 3.339844 10.976562 C 3.289062 10.765625 3.421875 10.550781 3.632812 10.5 L 6.714844 9.761719 C 6.925781 9.710938 7.140625 9.84375 7.191406 10.054688 C 7.242188 10.265625 7.109375 10.480469 6.898438 10.53125 L 3.820312 11.269531 C 3.605469 11.320312 3.394531 11.191406 3.339844 10.976562 Z M 3.339844 10.976562 "/>
<path style=" stroke:none;fill-rule:nonzero;fill:rgb(100%,100%,100%);fill-opacity:0.188235;" d="M 10.976562 15.660156 C 10.765625 15.710938 10.550781 15.578125 10.5 15.367188 L 9.761719 12.285156 C 9.710938 12.074219 9.84375 11.859375 10.054688 11.808594 C 10.265625 11.757812 10.480469 11.890625 10.53125 12.101562 L 11.269531 15.179688 C 11.320312 15.394531 11.191406 15.605469 10.976562 15.660156 Z M 10.976562 15.660156 "/>
<path style=" stroke:none;fill-rule:nonzero;fill:rgb(100%,100%,100%);fill-opacity:0.831373;" d="M 14.09375 5.140625 C 14.246094 5.300781 14.238281 5.550781 14.078125 5.699219 L 11.78125 7.878906 C 11.625 8.03125 11.375 8.023438 11.222656 7.863281 C 11.074219 7.707031 11.078125 7.457031 11.238281 7.304688 L 13.535156 5.125 C 13.691406 4.976562 13.945312 4.980469 14.09375 5.140625 Z M 14.09375 5.140625 "/>
<path style=" stroke:none;fill-rule:nonzero;fill:rgb(100%,100%,100%);fill-opacity:0.694118;" d="M 11.296875 3.425781 C 11.507812 3.488281 11.628906 3.710938 11.566406 3.917969 L 10.667969 6.957031 C 10.605469 7.164062 10.382812 7.285156 10.175781 7.222656 C 9.964844 7.160156 9.84375 6.941406 9.90625 6.730469 L 10.808594 3.695312 C 10.867188 3.484375 11.089844 3.367188 11.296875 3.425781 Z M 11.296875 3.425781 "/>
<path style=" stroke:none;fill-rule:nonzero;fill:rgb(100%,100%,100%);fill-opacity:0.482353;" d="M 5.140625 4.90625 C 5.300781 4.753906 5.550781 4.761719 5.699219 4.921875 L 7.878906 7.21875 C 8.03125 7.375 8.023438 7.625 7.863281 7.777344 C 7.707031 7.925781 7.457031 7.921875 7.304688 7.761719 L 5.125 5.464844 C 4.976562 5.308594 4.980469 5.054688 5.140625 4.90625 Z M 5.140625 4.90625 "/>
<path style=" stroke:none;fill-rule:nonzero;fill:rgb(100%,100%,100%);fill-opacity:0.403922;" d="M 3.425781 7.703125 C 3.488281 7.492188 3.710938 7.371094 3.917969 7.433594 L 6.957031 8.332031 C 7.164062 8.394531 7.285156 8.617188 7.222656 8.824219 C 7.160156 9.035156 6.941406 9.15625 6.730469 9.09375 L 3.695312 8.191406 C 3.484375 8.132812 3.367188 7.910156 3.425781 7.703125 Z M 3.425781 7.703125 "/>
<path style=" stroke:none;fill-rule:nonzero;fill:rgb(100%,100%,100%);fill-opacity:0.278431;" d="M 4.90625 13.859375 C 4.753906 13.699219 4.761719 13.449219 4.921875 13.300781 L 7.21875 11.121094 C 7.375 10.96875 7.625 10.976562 7.777344 11.136719 C 7.925781 11.292969 7.921875 11.542969 7.761719 11.695312 L 5.464844 13.875 C 5.308594 14.023438 5.054688 14.019531 4.90625 13.859375 Z M 4.90625 13.859375 "/>
<path style=" stroke:none;fill-rule:nonzero;fill:rgb(100%,100%,100%);fill-opacity:0.231373;" d="M 7.703125 15.574219 C 7.492188 15.511719 7.371094 15.289062 7.433594 15.082031 L 8.332031 12.042969 C 8.394531 11.835938 8.617188 11.714844 8.824219 11.777344 C 9.035156 11.839844 9.15625 12.058594 9.09375 12.269531 L 8.191406 15.304688 C 8.132812 15.515625 7.910156 15.632812 7.703125 15.574219 Z M 7.703125 15.574219 "/>
<path style=" stroke:none;fill-rule:nonzero;fill:rgb(100%,100%,100%);fill-opacity:0.160784;" d="M 13.859375 14.09375 C 13.699219 14.246094 13.449219 14.238281 13.300781 14.078125 L 11.121094 11.78125 C 10.96875 11.625 10.976562 11.375 11.136719 11.222656 C 11.292969 11.074219 11.542969 11.078125 11.695312 11.238281 L 13.875 13.535156 C 14.023438 13.691406 14.019531 13.945312 13.859375 14.09375 Z M 13.859375 14.09375 "/>
<path style=" stroke:none;fill-rule:nonzero;fill:rgb(100%,100%,100%);fill-opacity:0.129412;" d="M 15.574219 11.296875 C 15.511719 11.507812 15.289062 11.628906 15.082031 11.566406 L 12.042969 10.667969 C 11.835938 10.605469 11.714844 10.382812 11.777344 10.175781 C 11.839844 9.964844 12.058594 9.84375 12.269531 9.90625 L 15.304688 10.808594 C 15.515625 10.867188 15.632812 11.089844 15.574219 11.296875 Z M 15.574219 11.296875 "/>
<path style=" stroke:none;fill-rule:nonzero;fill:rgb(100%,100%,100%);fill-opacity:0.25098;" d="M 16.625 11.082031 C 17.503906 11.082031 18.207031 11.804688 18.207031 12.691406 L 17.417969 12.667969 C 17.417969 12.226562 17.0625 11.875 16.625 11.875 C 16.1875 11.875 15.832031 12.226562 15.832031 12.667969 L 15.832031 14.25 L 18.207031 14.25 C 18.648438 14.25 19 14.601562 19 15.042969 L 19 17.417969 C 19 17.855469 18.648438 18.207031 18.207031 18.207031 L 15.042969 18.207031 C 14.601562 18.207031 14.25 17.855469 14.25 17.417969 L 14.25 15.042969 C 14.25 14.601562 14.601562 14.25 15.042969 14.25 L 15.042969 12.691406 C 15.042969 11.804688 15.746094 11.082031 16.625 11.082031 Z M 16.625 11.082031 "/>
</g>
</svg>
