<?xml version="1.0" encoding="UTF-8"?>
<svg xmlns="http://www.w3.org/2000/svg" xmlns:xlink="http://www.w3.org/1999/xlink" width="19pt" height="19pt" viewBox="0 0 19 19" version="1.1">
<g id="surface1">
<path style=" stroke:none;fill-rule:nonzero;fill:rgb(100%,100%,100%);fill-opacity:1;" d="M 6.476562 3.933594 C 6.671875 3.828125 6.910156 3.902344 7.015625 4.09375 L 8.527344 6.875 C 8.628906 7.066406 8.558594 7.308594 8.367188 7.414062 C 8.175781 7.515625 7.933594 7.445312 7.828125 7.253906 L 6.320312 4.472656 C 6.214844 4.277344 6.285156 4.039062 6.476562 3.933594 Z M 6.476562 3.933594 "/>
<path style=" stroke:none;fill-rule:nonzero;fill:rgb(100%,100%,100%);fill-opacity:0.576471;" d="M 3.933594 12.523438 C 3.828125 12.328125 3.902344 12.089844 4.09375 11.984375 L 6.875 10.472656 C 7.066406 10.371094 7.308594 10.441406 7.414062 10.632812 C 7.515625 10.824219 7.445312 11.066406 7.253906 11.171875 L 4.472656 12.679688 C 4.277344 12.785156 4.039062 12.714844 3.933594 12.523438 Z M 3.933594 12.523438 "/>
<path style=" stroke:none;fill-rule:nonzero;fill:rgb(100%,100%,100%);fill-opacity:0.333333;" d="M 12.523438 15.066406 C 12.328125 15.171875 12.089844 15.097656 11.984375 14.90625 L 10.472656 12.125 C 10.371094 11.933594 10.441406 11.691406 10.632812 11.585938 C 10.824219 11.484375 11.066406 11.554688 11.171875 11.746094 L 12.679688 14.527344 C 12.785156 14.722656 12.714844 14.960938 12.523438 15.066406 Z M 12.523438 15.066406 "/>
<path style=" stroke:none;fill-rule:nonzero;fill:rgb(100%,100%,100%);fill-opacity:0.188235;" d="M 15.066406 6.476562 C 15.171875 6.671875 15.097656 6.910156 14.90625 7.015625 L 12.125 8.527344 C 11.933594 8.628906 11.691406 8.558594 11.585938 8.367188 C 11.484375 8.175781 11.554688 7.933594 11.746094 7.828125 L 14.527344 6.320312 C 14.722656 6.214844 14.960938 6.285156 15.066406 6.476562 Z M 15.066406 6.476562 "/>
<path style=" stroke:none;fill-rule:nonzero;fill:rgb(100%,100%,100%);fill-opacity:0.831373;" d="M 4.101562 6.191406 C 4.214844 6.003906 4.457031 5.945312 4.644531 6.058594 L 7.34375 7.714844 C 7.53125 7.828125 7.589844 8.074219 7.476562 8.257812 C 7.359375 8.445312 7.117188 8.503906 6.929688 8.390625 L 4.230469 6.734375 C 4.042969 6.621094 3.984375 6.378906 4.101562 6.191406 Z M 4.101562 6.191406 "/>
<path style=" stroke:none;fill-rule:nonzero;fill:rgb(100%,100%,100%);fill-opacity:0.694118;" d="M 3.167969 9.335938 C 3.175781 9.117188 3.355469 8.941406 3.574219 8.949219 L 6.742188 9.03125 C 6.960938 9.039062 7.132812 9.21875 7.125 9.4375 C 7.121094 9.65625 6.9375 9.828125 6.71875 9.824219 L 3.554688 9.742188 C 3.335938 9.734375 3.164062 9.554688 3.167969 9.335938 Z M 3.167969 9.335938 "/>
<path style=" stroke:none;fill-rule:nonzero;fill:rgb(100%,100%,100%);fill-opacity:0.482353;" d="M 6.191406 14.898438 C 6.003906 14.785156 5.945312 14.542969 6.058594 14.355469 L 7.714844 11.65625 C 7.828125 11.46875 8.074219 11.410156 8.257812 11.523438 C 8.445312 11.640625 8.503906 11.882812 8.390625 12.070312 L 6.734375 14.769531 C 6.621094 14.957031 6.378906 15.015625 6.191406 14.898438 Z M 6.191406 14.898438 "/>
<path style=" stroke:none;fill-rule:nonzero;fill:rgb(100%,100%,100%);fill-opacity:0.403922;" d="M 9.335938 15.832031 C 9.117188 15.824219 8.941406 15.644531 8.949219 15.425781 L 9.03125 12.257812 C 9.039062 12.039062 9.21875 11.867188 9.4375 11.875 C 9.65625 11.878906 9.828125 12.0625 9.824219 12.28125 L 9.742188 15.445312 C 9.734375 15.664062 9.554688 15.835938 9.335938 15.832031 Z M 9.335938 15.832031 "/>
<path style=" stroke:none;fill-rule:nonzero;fill:rgb(100%,100%,100%);fill-opacity:0.278431;" d="M 14.898438 12.808594 C 14.785156 12.996094 14.542969 13.054688 14.355469 12.941406 L 11.65625 11.285156 C 11.46875 11.171875 11.410156 10.925781 11.523438 10.742188 C 11.640625 10.554688 11.882812 10.496094 12.070312 10.609375 L 14.769531 12.265625 C 14.957031 12.378906 15.015625 12.621094 14.898438 12.808594 Z M 14.898438 12.808594 "/>
<path style=" stroke:none;fill-rule:nonzero;fill:rgb(100%,100%,100%);fill-opacity:0.231373;" d="M 15.832031 9.664062 C 15.824219 9.882812 15.644531 10.058594 15.425781 10.050781 L 12.257812 9.96875 C 12.039062 9.960938 11.867188 9.78125 11.875 9.5625 C 11.878906 9.34375 12.0625 9.171875 12.28125 9.175781 L 15.445312 9.257812 C 15.664062 9.265625 15.835938 9.445312 15.832031 9.664062 Z M 15.832031 9.664062 "/>
<path style=" stroke:none;fill-rule:nonzero;fill:rgb(100%,100%,100%);fill-opacity:0.160784;" d="M 12.808594 4.101562 C 12.996094 4.214844 13.054688 4.457031 12.941406 4.644531 L 11.285156 7.34375 C 11.171875 7.53125 10.925781 7.589844 10.742188 7.476562 C 10.554688 7.359375 10.496094 7.117188 10.609375 6.929688 L 12.265625 4.230469 C 12.378906 4.042969 12.621094 3.984375 12.808594 4.101562 Z M 12.808594 4.101562 "/>
<path style=" stroke:none;fill-rule:nonzero;fill:rgb(100%,100%,100%);fill-opacity:0.129412;" d="M 9.664062 3.167969 C 9.882812 3.175781 10.058594 3.355469 10.050781 3.574219 L 9.96875 6.742188 C 9.960938 6.960938 9.78125 7.132812 9.5625 7.125 C 9.34375 7.121094 9.171875 6.9375 9.175781 6.71875 L 9.257812 3.554688 C 9.265625 3.335938 9.445312 3.164062 9.664062 3.167969 Z M 9.664062 3.167969 "/>
<path style=" stroke:none;fill-rule:nonzero;fill:rgb(100%,100%,100%);fill-opacity:0.0509804;" d="M 16.625 11.082031 C 17.503906 11.082031 18.207031 11.804688 18.207031 12.691406 L 17.417969 12.667969 C 17.417969 12.226562 17.0625 11.875 16.625 11.875 C 16.1875 11.875 15.832031 12.226562 15.832031 12.667969 L 15.832031 14.25 L 18.207031 14.25 C 18.648438 14.25 19 14.601562 19 15.042969 L 19 17.417969 C 19 17.855469 18.648438 18.207031 18.207031 18.207031 L 15.042969 18.207031 C 14.601562 18.207031 14.25 17.855469 14.25 17.417969 L 14.25 15.042969 C 14.25 14.601562 14.601562 14.25 15.042969 14.25 L 15.042969 12.691406 C 15.042969 11.804688 15.746094 11.082031 16.625 11.082031 Z M 16.625 11.082031 "/>
</g>
</svg>
