<?xml version="1.0" encoding="UTF-8"?>
<svg xmlns="http://www.w3.org/2000/svg" xmlns:xlink="http://www.w3.org/1999/xlink" width="19pt" height="19pt" viewBox="0 0 19 19" version="1.1">
<g id="surface1">
<path style=" stroke:none;fill-rule:nonzero;fill:rgb(100%,100%,100%);fill-opacity:1;" d="M 3.222656 8.671875 C 3.25 8.457031 3.449219 8.304688 3.664062 8.332031 L 6.804688 8.746094 C 7.019531 8.773438 7.175781 8.972656 7.144531 9.191406 C 7.117188 9.40625 6.917969 9.558594 6.703125 9.53125 L 3.5625 9.117188 C 3.34375 9.089844 3.191406 8.890625 3.222656 8.671875 Z M 3.222656 8.671875 "/>
<path style=" stroke:none;fill-rule:nonzero;fill:rgb(100%,100%,100%);fill-opacity:0.576471;" d="M 8.671875 15.777344 C 8.457031 15.75 8.304688 15.550781 8.332031 15.335938 L 8.746094 12.195312 C 8.773438 11.980469 8.972656 11.824219 9.191406 11.855469 C 9.40625 11.882812 9.558594 12.082031 9.53125 12.296875 L 9.117188 15.4375 C 9.089844 15.65625 8.890625 15.808594 8.671875 15.777344 Z M 8.671875 15.777344 "/>
<path style=" stroke:none;fill-rule:nonzero;fill:rgb(100%,100%,100%);fill-opacity:0.333333;" d="M 15.777344 10.328125 C 15.75 10.542969 15.550781 10.695312 15.335938 10.667969 L 12.195312 10.253906 C 11.980469 10.226562 11.824219 10.027344 11.855469 9.808594 C 11.882812 9.59375 12.082031 9.441406 12.296875 9.46875 L 15.4375 9.882812 C 15.65625 9.910156 15.808594 10.109375 15.777344 10.328125 Z M 15.777344 10.328125 "/>
<path style=" stroke:none;fill-rule:nonzero;fill:rgb(100%,100%,100%);fill-opacity:0.188235;" d="M 10.328125 3.222656 C 10.542969 3.25 10.695312 3.449219 10.667969 3.664062 L 10.253906 6.804688 C 10.226562 7.019531 10.027344 7.175781 9.808594 7.144531 C 9.59375 7.117188 9.441406 6.917969 9.46875 6.703125 L 9.882812 3.5625 C 9.910156 3.34375 10.109375 3.191406 10.328125 3.222656 Z M 10.328125 3.222656 "/>
<path style=" stroke:none;fill-rule:nonzero;fill:rgb(100%,100%,100%);fill-opacity:0.831373;" d="M 3.648438 11.921875 C 3.566406 11.722656 3.660156 11.488281 3.863281 11.40625 L 6.789062 10.195312 C 6.992188 10.109375 7.222656 10.207031 7.304688 10.410156 C 7.390625 10.609375 7.292969 10.84375 7.089844 10.925781 L 4.164062 12.136719 C 3.964844 12.222656 3.734375 12.125 3.648438 11.921875 Z M 3.648438 11.921875 "/>
<path style=" stroke:none;fill-rule:nonzero;fill:rgb(100%,100%,100%);fill-opacity:0.694118;" d="M 5.644531 14.523438 C 5.472656 14.390625 5.4375 14.144531 5.570312 13.96875 L 7.5 11.457031 C 7.632812 11.285156 7.878906 11.25 8.054688 11.382812 C 8.226562 11.515625 8.261719 11.765625 8.128906 11.9375 L 6.199219 14.453125 C 6.066406 14.625 5.816406 14.65625 5.644531 14.523438 Z M 5.644531 14.523438 "/>
<path style=" stroke:none;fill-rule:nonzero;fill:rgb(100%,100%,100%);fill-opacity:0.482353;" d="M 11.921875 15.351562 C 11.722656 15.433594 11.488281 15.339844 11.40625 15.136719 L 10.195312 12.210938 C 10.109375 12.007812 10.207031 11.777344 10.410156 11.695312 C 10.609375 11.609375 10.84375 11.707031 10.925781 11.910156 L 12.136719 14.835938 C 12.222656 15.035156 12.125 15.265625 11.921875 15.351562 Z M 11.921875 15.351562 "/>
<path style=" stroke:none;fill-rule:nonzero;fill:rgb(100%,100%,100%);fill-opacity:0.403922;" d="M 14.523438 13.355469 C 14.390625 13.527344 14.144531 13.5625 13.96875 13.429688 L 11.457031 11.5 C 11.285156 11.367188 11.25 11.121094 11.382812 10.945312 C 11.515625 10.773438 11.765625 10.738281 11.9375 10.871094 L 14.453125 12.800781 C 14.625 12.933594 14.65625 13.183594 14.523438 13.355469 Z M 14.523438 13.355469 "/>
<path style=" stroke:none;fill-rule:nonzero;fill:rgb(100%,100%,100%);fill-opacity:0.278431;" d="M 15.351562 7.078125 C 15.433594 7.277344 15.339844 7.511719 15.136719 7.59375 L 12.210938 8.804688 C 12.007812 8.890625 11.777344 8.792969 11.695312 8.589844 C 11.609375 8.390625 11.707031 8.15625 11.910156 8.074219 L 14.835938 6.863281 C 15.035156 6.777344 15.265625 6.875 15.351562 7.078125 Z M 15.351562 7.078125 "/>
<path style=" stroke:none;fill-rule:nonzero;fill:rgb(100%,100%,100%);fill-opacity:0.231373;" d="M 13.355469 4.476562 C 13.527344 4.609375 13.5625 4.855469 13.429688 5.03125 L 11.5 7.542969 C 11.367188 7.714844 11.121094 7.75 10.945312 7.617188 C 10.773438 7.484375 10.738281 7.234375 10.871094 7.0625 L 12.800781 4.546875 C 12.933594 4.375 13.183594 4.34375 13.355469 4.476562 Z M 13.355469 4.476562 "/>
<path style=" stroke:none;fill-rule:nonzero;fill:rgb(100%,100%,100%);fill-opacity:0.160784;" d="M 7.078125 3.648438 C 7.277344 3.566406 7.511719 3.660156 7.59375 3.863281 L 8.804688 6.789062 C 8.890625 6.992188 8.792969 7.222656 8.589844 7.304688 C 8.390625 7.390625 8.15625 7.292969 8.074219 7.089844 L 6.863281 4.164062 C 6.777344 3.964844 6.875 3.734375 7.078125 3.648438 Z M 7.078125 3.648438 "/>
<path style=" stroke:none;fill-rule:nonzero;fill:rgb(100%,100%,100%);fill-opacity:0.129412;" d="M 4.476562 5.644531 C 4.609375 5.472656 4.855469 5.4375 5.03125 5.570312 L 7.542969 7.5 C 7.714844 7.632812 7.75 7.878906 7.617188 8.054688 C 7.484375 8.226562 7.234375 8.261719 7.0625 8.128906 L 4.546875 6.199219 C 4.375 6.066406 4.34375 5.816406 4.476562 5.644531 Z M 4.476562 5.644531 "/>
<path style=" stroke:none;fill-rule:nonzero;fill:rgb(100%,100%,100%);fill-opacity:0.14902;" d="M 16.625 11.082031 C 17.503906 11.082031 18.207031 11.804688 18.207031 12.691406 L 17.417969 12.667969 C 17.417969 12.226562 17.0625 11.875 16.625 11.875 C 16.1875 11.875 15.832031 12.226562 15.832031 12.667969 L 15.832031 14.25 L 18.207031 14.25 C 18.648438 14.25 19 14.601562 19 15.042969 L 19 17.417969 C 19 17.855469 18.648438 18.207031 18.207031 18.207031 L 15.042969 18.207031 C 14.601562 18.207031 14.25 17.855469 14.25 17.417969 L 14.25 15.042969 C 14.25 14.601562 14.601562 14.25 15.042969 14.25 L 15.042969 12.691406 C 15.042969 11.804688 15.746094 11.082031 16.625 11.082031 Z M 16.625 11.082031 "/>
</g>
</svg>
