<?xml version="1.0" encoding="UTF-8"?>
<svg xmlns="http://www.w3.org/2000/svg" xmlns:xlink="http://www.w3.org/1999/xlink" width="19pt" height="19pt" viewBox="0 0 19 19" version="1.1">
<g id="surface1">
<path style=" stroke:none;fill-rule:nonzero;fill:rgb(100%,100%,100%);fill-opacity:1;" d="M 14.316406 5.386719 C 14.457031 5.554688 14.4375 5.804688 14.273438 5.945312 L 11.863281 8 C 11.699219 8.144531 11.449219 8.125 11.304688 7.957031 C 11.164062 7.792969 11.183594 7.542969 11.351562 7.398438 L 13.757812 5.34375 C 13.925781 5.199219 14.175781 5.21875 14.316406 5.386719 Z M 14.316406 5.386719 "/>
<path style=" stroke:none;fill-rule:nonzero;fill:rgb(100%,100%,100%);fill-opacity:0.576471;" d="M 5.386719 4.683594 C 5.554688 4.542969 5.804688 4.5625 5.945312 4.726562 L 8 7.136719 C 8.144531 7.300781 8.125 7.550781 7.957031 7.695312 C 7.792969 7.835938 7.542969 7.816406 7.398438 7.648438 L 5.34375 5.242188 C 5.199219 5.074219 5.21875 4.824219 5.386719 4.683594 Z M 5.386719 4.683594 "/>
<path style=" stroke:none;fill-rule:nonzero;fill:rgb(100%,100%,100%);fill-opacity:0.333333;" d="M 4.683594 13.613281 C 4.542969 13.445312 4.5625 13.195312 4.726562 13.054688 L 7.136719 11 C 7.300781 10.855469 7.550781 10.875 7.695312 11.042969 C 7.835938 11.207031 7.816406 11.457031 7.648438 11.601562 L 5.242188 13.65625 C 5.074219 13.800781 4.824219 13.78125 4.683594 13.613281 Z M 4.683594 13.613281 "/>
<path style=" stroke:none;fill-rule:nonzero;fill:rgb(100%,100%,100%);fill-opacity:0.188235;" d="M 13.613281 14.316406 C 13.445312 14.457031 13.195312 14.4375 13.054688 14.273438 L 11 11.863281 C 10.855469 11.699219 10.875 11.449219 11.042969 11.304688 C 11.207031 11.164062 11.457031 11.183594 11.601562 11.351562 L 13.65625 13.757812 C 13.800781 13.925781 13.78125 14.175781 13.613281 14.316406 Z M 13.613281 14.316406 "/>
<path style=" stroke:none;fill-rule:nonzero;fill:rgb(100%,100%,100%);fill-opacity:0.831373;" d="M 11.613281 3.53125 C 11.820312 3.601562 11.929688 3.828125 11.855469 4.035156 L 10.796875 7.019531 C 10.726562 7.226562 10.5 7.335938 10.292969 7.261719 C 10.085938 7.1875 9.980469 6.960938 10.050781 6.757812 L 11.109375 3.769531 C 11.183594 3.566406 11.40625 3.457031 11.613281 3.53125 Z M 11.613281 3.53125 "/>
<path style=" stroke:none;fill-rule:nonzero;fill:rgb(100%,100%,100%);fill-opacity:0.694118;" d="M 8.347656 3.273438 C 8.5625 3.234375 8.765625 3.375 8.808594 3.589844 L 9.382812 6.703125 C 9.425781 6.917969 9.28125 7.125 9.066406 7.164062 C 8.851562 7.203125 8.644531 7.0625 8.605469 6.847656 L 8.027344 3.734375 C 7.988281 3.519531 8.132812 3.3125 8.347656 3.273438 Z M 8.347656 3.273438 "/>
<path style=" stroke:none;fill-rule:nonzero;fill:rgb(100%,100%,100%);fill-opacity:0.482353;" d="M 3.53125 7.386719 C 3.601562 7.179688 3.828125 7.070312 4.035156 7.144531 L 7.019531 8.203125 C 7.226562 8.273438 7.335938 8.5 7.261719 8.707031 C 7.1875 8.914062 6.960938 9.019531 6.757812 8.949219 L 3.769531 7.890625 C 3.566406 7.816406 3.457031 7.59375 3.53125 7.386719 Z M 3.53125 7.386719 "/>
<path style=" stroke:none;fill-rule:nonzero;fill:rgb(100%,100%,100%);fill-opacity:0.403922;" d="M 3.273438 10.652344 C 3.234375 10.4375 3.375 10.234375 3.589844 10.191406 L 6.703125 9.617188 C 6.917969 9.574219 7.125 9.71875 7.164062 9.933594 C 7.203125 10.148438 7.0625 10.355469 6.847656 10.394531 L 3.734375 10.972656 C 3.519531 11.011719 3.3125 10.867188 3.273438 10.652344 Z M 3.273438 10.652344 "/>
<path style=" stroke:none;fill-rule:nonzero;fill:rgb(100%,100%,100%);fill-opacity:0.278431;" d="M 7.386719 15.46875 C 7.179688 15.398438 7.070312 15.171875 7.144531 14.964844 L 8.203125 11.980469 C 8.273438 11.773438 8.5 11.664062 8.707031 11.738281 C 8.914062 11.8125 9.019531 12.039062 8.949219 12.242188 L 7.890625 15.230469 C 7.816406 15.433594 7.59375 15.542969 7.386719 15.46875 Z M 7.386719 15.46875 "/>
<path style=" stroke:none;fill-rule:nonzero;fill:rgb(100%,100%,100%);fill-opacity:0.231373;" d="M 10.652344 15.726562 C 10.4375 15.765625 10.234375 15.625 10.191406 15.410156 L 9.617188 12.296875 C 9.574219 12.082031 9.71875 11.875 9.933594 11.835938 C 10.148438 11.796875 10.355469 11.9375 10.394531 12.152344 L 10.972656 15.265625 C 11.011719 15.480469 10.867188 15.6875 10.652344 15.726562 Z M 10.652344 15.726562 "/>
<path style=" stroke:none;fill-rule:nonzero;fill:rgb(100%,100%,100%);fill-opacity:0.160784;" d="M 15.46875 11.613281 C 15.398438 11.820312 15.171875 11.929688 14.964844 11.855469 L 11.980469 10.796875 C 11.773438 10.726562 11.664062 10.5 11.738281 10.292969 C 11.8125 10.085938 12.039062 9.980469 12.242188 10.050781 L 15.230469 11.109375 C 15.433594 11.183594 15.542969 11.40625 15.46875 11.613281 Z M 15.46875 11.613281 "/>
<path style=" stroke:none;fill-rule:nonzero;fill:rgb(100%,100%,100%);fill-opacity:0.129412;" d="M 15.726562 8.347656 C 15.765625 8.5625 15.625 8.765625 15.410156 8.808594 L 12.296875 9.382812 C 12.082031 9.425781 11.875 9.28125 11.835938 9.066406 C 11.796875 8.851562 11.9375 8.644531 12.152344 8.605469 L 15.265625 8.027344 C 15.480469 7.988281 15.6875 8.132812 15.726562 8.347656 Z M 15.726562 8.347656 "/>
<path style=" stroke:none;fill-rule:nonzero;fill:rgb(100%,100%,100%);fill-opacity:0.2;" d="M 16.625 11.082031 C 17.503906 11.082031 18.207031 11.804688 18.207031 12.691406 L 17.417969 12.667969 C 17.417969 12.226562 17.0625 11.875 16.625 11.875 C 16.1875 11.875 15.832031 12.226562 15.832031 12.667969 L 15.832031 14.25 L 18.207031 14.25 C 18.648438 14.25 19 14.601562 19 15.042969 L 19 17.417969 C 19 17.855469 18.648438 18.207031 18.207031 18.207031 L 15.042969 18.207031 C 14.601562 18.207031 14.25 17.855469 14.25 17.417969 L 14.25 15.042969 C 14.25 14.601562 14.601562 14.25 15.042969 14.25 L 15.042969 12.691406 C 15.042969 11.804688 15.746094 11.082031 16.625 11.082031 Z M 16.625 11.082031 "/>
</g>
</svg>
