<?xml version="1.0" encoding="UTF-8"?>
<svg xmlns="http://www.w3.org/2000/svg" xmlns:xlink="http://www.w3.org/1999/xlink" width="19pt" height="19pt" viewBox="0 0 19 19" version="1.1">
<g id="surface1">
<path style=" stroke:none;fill-rule:nonzero;fill:rgb(100%,100%,100%);fill-opacity:1;" d="M 6.925781 15.285156 C 6.722656 15.195312 6.632812 14.960938 6.722656 14.761719 L 8.011719 11.871094 C 8.101562 11.671875 8.335938 11.582031 8.535156 11.667969 C 8.734375 11.757812 8.824219 11.992188 8.734375 12.191406 L 7.445312 15.085938 C 7.359375 15.285156 7.125 15.375 6.925781 15.285156 Z M 6.925781 15.285156 "/>
<path style=" stroke:none;fill-rule:nonzero;fill:rgb(100%,100%,100%);fill-opacity:0.576471;" d="M 15.285156 12.074219 C 15.195312 12.277344 14.960938 12.367188 14.761719 12.277344 L 11.871094 10.988281 C 11.671875 10.898438 11.582031 10.664062 11.667969 10.464844 C 11.757812 10.265625 11.992188 10.175781 12.191406 10.265625 L 15.085938 11.554688 C 15.285156 11.640625 15.375 11.875 15.285156 12.074219 Z M 15.285156 12.074219 "/>
<path style=" stroke:none;fill-rule:nonzero;fill:rgb(100%,100%,100%);fill-opacity:0.333333;" d="M 12.074219 3.714844 C 12.277344 3.804688 12.367188 4.039062 12.277344 4.238281 L 10.988281 7.128906 C 10.898438 7.328125 10.664062 7.417969 10.464844 7.332031 C 10.265625 7.242188 10.175781 7.007812 10.265625 6.808594 L 11.554688 3.914062 C 11.640625 3.714844 11.875 3.625 12.074219 3.714844 Z M 12.074219 3.714844 "/>
<path style=" stroke:none;fill-rule:nonzero;fill:rgb(100%,100%,100%);fill-opacity:0.188235;" d="M 3.714844 6.925781 C 3.804688 6.722656 4.039062 6.632812 4.238281 6.722656 L 7.128906 8.011719 C 7.328125 8.101562 7.417969 8.335938 7.332031 8.535156 C 7.242188 8.734375 7.007812 8.824219 6.808594 8.734375 L 3.914062 7.445312 C 3.714844 7.359375 3.625 7.125 3.714844 6.925781 Z M 3.714844 6.925781 "/>
<path style=" stroke:none;fill-rule:nonzero;fill:rgb(100%,100%,100%);fill-opacity:0.831373;" d="M 10.160156 15.796875 C 9.945312 15.820312 9.75 15.664062 9.726562 15.445312 L 9.394531 12.296875 C 9.375 12.078125 9.53125 11.886719 9.75 11.863281 C 9.964844 11.839844 10.160156 11.996094 10.183594 12.214844 L 10.515625 15.363281 C 10.539062 15.582031 10.378906 15.777344 10.160156 15.796875 Z M 10.160156 15.796875 "/>
<path style=" stroke:none;fill-rule:nonzero;fill:rgb(100%,100%,100%);fill-opacity:0.694118;" d="M 13.222656 14.625 C 13.046875 14.753906 12.796875 14.714844 12.667969 14.535156 L 10.808594 11.972656 C 10.679688 11.796875 10.71875 11.550781 10.894531 11.421875 C 11.074219 11.292969 11.320312 11.332031 11.449219 11.507812 L 13.308594 14.070312 C 13.4375 14.246094 13.398438 14.496094 13.222656 14.625 Z M 13.222656 14.625 "/>
<path style=" stroke:none;fill-rule:nonzero;fill:rgb(100%,100%,100%);fill-opacity:0.482353;" d="M 15.796875 8.839844 C 15.820312 9.054688 15.664062 9.25 15.445312 9.273438 L 12.296875 9.605469 C 12.078125 9.625 11.886719 9.46875 11.863281 9.25 C 11.839844 9.035156 11.996094 8.839844 12.214844 8.816406 L 15.363281 8.484375 C 15.582031 8.460938 15.777344 8.621094 15.796875 8.839844 Z M 15.796875 8.839844 "/>
<path style=" stroke:none;fill-rule:nonzero;fill:rgb(100%,100%,100%);fill-opacity:0.403922;" d="M 14.625 5.777344 C 14.753906 5.953125 14.714844 6.203125 14.535156 6.332031 L 11.972656 8.191406 C 11.796875 8.320312 11.550781 8.28125 11.421875 8.105469 C 11.292969 7.925781 11.332031 7.679688 11.507812 7.550781 L 14.070312 5.691406 C 14.246094 5.5625 14.496094 5.601562 14.625 5.777344 Z M 14.625 5.777344 "/>
<path style=" stroke:none;fill-rule:nonzero;fill:rgb(100%,100%,100%);fill-opacity:0.278431;" d="M 8.839844 3.203125 C 9.054688 3.179688 9.25 3.335938 9.273438 3.554688 L 9.605469 6.703125 C 9.625 6.921875 9.46875 7.113281 9.25 7.136719 C 9.035156 7.160156 8.839844 7.003906 8.816406 6.785156 L 8.484375 3.636719 C 8.460938 3.417969 8.621094 3.222656 8.839844 3.203125 Z M 8.839844 3.203125 "/>
<path style=" stroke:none;fill-rule:nonzero;fill:rgb(100%,100%,100%);fill-opacity:0.231373;" d="M 5.777344 4.375 C 5.953125 4.246094 6.203125 4.285156 6.332031 4.464844 L 8.191406 7.027344 C 8.320312 7.203125 8.28125 7.449219 8.105469 7.578125 C 7.925781 7.707031 7.679688 7.667969 7.550781 7.492188 L 5.691406 4.929688 C 5.5625 4.753906 5.601562 4.503906 5.777344 4.375 Z M 5.777344 4.375 "/>
<path style=" stroke:none;fill-rule:nonzero;fill:rgb(100%,100%,100%);fill-opacity:0.160784;" d="M 3.203125 10.160156 C 3.179688 9.945312 3.335938 9.75 3.554688 9.726562 L 6.703125 9.394531 C 6.921875 9.375 7.113281 9.53125 7.136719 9.75 C 7.160156 9.964844 7.003906 10.160156 6.785156 10.183594 L 3.636719 10.515625 C 3.417969 10.539062 3.222656 10.378906 3.203125 10.160156 Z M 3.203125 10.160156 "/>
<path style=" stroke:none;fill-rule:nonzero;fill:rgb(100%,100%,100%);fill-opacity:0.129412;" d="M 4.375 13.222656 C 4.246094 13.046875 4.285156 12.796875 4.464844 12.667969 L 7.027344 10.808594 C 7.203125 10.679688 7.449219 10.71875 7.578125 10.894531 C 7.707031 11.074219 7.667969 11.320312 7.492188 11.449219 L 4.929688 13.308594 C 4.753906 13.4375 4.503906 13.398438 4.375 13.222656 Z M 4.375 13.222656 "/>
<path style=" stroke:none;fill-rule:nonzero;fill:rgb(100%,100%,100%);fill-opacity:0.298039;" d="M 16.625 11.082031 C 17.503906 11.082031 18.207031 11.804688 18.207031 12.691406 L 17.417969 12.667969 C 17.417969 12.226562 17.0625 11.875 16.625 11.875 C 16.1875 11.875 15.832031 12.226562 15.832031 12.667969 L 15.832031 14.25 L 18.207031 14.25 C 18.648438 14.25 19 14.601562 19 15.042969 L 19 17.417969 C 19 17.855469 18.648438 18.207031 18.207031 18.207031 L 15.042969 18.207031 C 14.601562 18.207031 14.25 17.855469 14.25 17.417969 L 14.25 15.042969 C 14.25 14.601562 14.601562 14.25 15.042969 14.25 L 15.042969 12.691406 C 15.042969 11.804688 15.746094 11.082031 16.625 11.082031 Z M 16.625 11.082031 "/>
</g>
</svg>
