<?xml version="1.0" encoding="UTF-8"?>
<svg xmlns="http://www.w3.org/2000/svg" xmlns:xlink="http://www.w3.org/1999/xlink" width="19pt" height="19pt" viewBox="0 0 19 19" version="1.1">
<g id="surface1">
<path style=" stroke:none;fill-rule:nonzero;fill:rgb(100%,100%,100%);fill-opacity:1;" d="M 15.695312 10.816406 C 15.648438 11.03125 15.4375 11.167969 15.226562 11.121094 L 12.128906 10.464844 C 11.914062 10.417969 11.777344 10.207031 11.824219 9.992188 C 11.867188 9.78125 12.078125 9.644531 12.292969 9.6875 L 15.390625 10.347656 C 15.605469 10.394531 15.742188 10.601562 15.695312 10.816406 Z M 15.695312 10.816406 "/>
<path style=" stroke:none;fill-rule:nonzero;fill:rgb(100%,100%,100%);fill-opacity:0.576471;" d="M 10.816406 3.304688 C 11.03125 3.351562 11.167969 3.5625 11.121094 3.773438 L 10.464844 6.871094 C 10.417969 7.085938 10.207031 7.222656 9.992188 7.175781 C 9.78125 7.132812 9.644531 6.921875 9.6875 6.707031 L 10.347656 3.609375 C 10.394531 3.394531 10.601562 3.257812 10.816406 3.304688 Z M 10.816406 3.304688 "/>
<path style=" stroke:none;fill-rule:nonzero;fill:rgb(100%,100%,100%);fill-opacity:0.333333;" d="M 3.304688 8.183594 C 3.351562 7.96875 3.5625 7.832031 3.773438 7.878906 L 6.871094 8.535156 C 7.085938 8.582031 7.222656 8.792969 7.175781 9.007812 C 7.132812 9.21875 6.921875 9.355469 6.707031 9.3125 L 3.609375 8.652344 C 3.394531 8.605469 3.257812 8.398438 3.304688 8.183594 Z M 3.304688 8.183594 "/>
<path style=" stroke:none;fill-rule:nonzero;fill:rgb(100%,100%,100%);fill-opacity:0.188235;" d="M 8.183594 15.695312 C 7.96875 15.648438 7.832031 15.4375 7.878906 15.226562 L 8.535156 12.128906 C 8.582031 11.914062 8.792969 11.777344 9.007812 11.824219 C 9.21875 11.867188 9.355469 12.078125 9.3125 12.292969 L 8.652344 15.390625 C 8.605469 15.605469 8.398438 15.742188 8.183594 15.695312 Z M 8.183594 15.695312 "/>
<path style=" stroke:none;fill-rule:nonzero;fill:rgb(100%,100%,100%);fill-opacity:0.831373;" d="M 15.523438 7.542969 C 15.589844 7.75 15.476562 7.972656 15.269531 8.042969 L 12.257812 9.019531 C 12.050781 9.085938 11.828125 8.972656 11.757812 8.765625 C 11.691406 8.558594 11.804688 8.335938 12.011719 8.265625 L 15.023438 7.289062 C 15.234375 7.222656 15.457031 7.335938 15.523438 7.542969 Z M 15.523438 7.542969 "/>
<path style=" stroke:none;fill-rule:nonzero;fill:rgb(100%,100%,100%);fill-opacity:0.694118;" d="M 13.738281 4.792969 C 13.898438 4.941406 13.914062 5.191406 13.765625 5.351562 L 11.648438 7.707031 C 11.5 7.867188 11.25 7.882812 11.089844 7.734375 C 10.925781 7.589844 10.914062 7.339844 11.058594 7.175781 L 13.179688 4.824219 C 13.324219 4.660156 13.574219 4.648438 13.738281 4.792969 Z M 13.738281 4.792969 "/>
<path style=" stroke:none;fill-rule:nonzero;fill:rgb(100%,100%,100%);fill-opacity:0.482353;" d="M 7.542969 3.476562 C 7.75 3.410156 7.972656 3.523438 8.042969 3.730469 L 9.019531 6.742188 C 9.085938 6.949219 8.972656 7.171875 8.765625 7.242188 C 8.558594 7.308594 8.335938 7.195312 8.265625 6.988281 L 7.289062 3.976562 C 7.222656 3.765625 7.335938 3.542969 7.542969 3.476562 Z M 7.542969 3.476562 "/>
<path style=" stroke:none;fill-rule:nonzero;fill:rgb(100%,100%,100%);fill-opacity:0.403922;" d="M 4.792969 5.261719 C 4.941406 5.101562 5.191406 5.085938 5.351562 5.234375 L 7.707031 7.351562 C 7.867188 7.5 7.882812 7.75 7.734375 7.910156 C 7.589844 8.074219 7.339844 8.085938 7.175781 7.941406 L 4.824219 5.820312 C 4.660156 5.675781 4.648438 5.425781 4.792969 5.261719 Z M 4.792969 5.261719 "/>
<path style=" stroke:none;fill-rule:nonzero;fill:rgb(100%,100%,100%);fill-opacity:0.278431;" d="M 3.476562 11.457031 C 3.410156 11.25 3.523438 11.027344 3.730469 10.957031 L 6.742188 9.980469 C 6.949219 9.914062 7.171875 10.027344 7.242188 10.234375 C 7.308594 10.441406 7.195312 10.664062 6.988281 10.734375 L 3.976562 11.710938 C 3.765625 11.777344 3.542969 11.664062 3.476562 11.457031 Z M 3.476562 11.457031 "/>
<path style=" stroke:none;fill-rule:nonzero;fill:rgb(100%,100%,100%);fill-opacity:0.231373;" d="M 5.261719 14.207031 C 5.101562 14.058594 5.085938 13.808594 5.234375 13.648438 L 7.351562 11.292969 C 7.5 11.132812 7.75 11.117188 7.910156 11.265625 C 8.074219 11.410156 8.085938 11.660156 7.941406 11.824219 L 5.820312 14.175781 C 5.675781 14.339844 5.425781 14.351562 5.261719 14.207031 Z M 5.261719 14.207031 "/>
<path style=" stroke:none;fill-rule:nonzero;fill:rgb(100%,100%,100%);fill-opacity:0.160784;" d="M 11.457031 15.523438 C 11.25 15.589844 11.027344 15.476562 10.957031 15.269531 L 9.980469 12.257812 C 9.914062 12.050781 10.027344 11.828125 10.234375 11.757812 C 10.441406 11.691406 10.664062 11.804688 10.734375 12.011719 L 11.710938 15.023438 C 11.777344 15.234375 11.664062 15.457031 11.457031 15.523438 Z M 11.457031 15.523438 "/>
<path style=" stroke:none;fill-rule:nonzero;fill:rgb(100%,100%,100%);fill-opacity:0.129412;" d="M 14.207031 13.738281 C 14.058594 13.898438 13.808594 13.914062 13.648438 13.765625 L 11.292969 11.648438 C 11.132812 11.5 11.117188 11.25 11.265625 11.089844 C 11.410156 10.925781 11.660156 10.914062 11.824219 11.058594 L 14.175781 13.179688 C 14.339844 13.324219 14.351562 13.574219 14.207031 13.738281 Z M 14.207031 13.738281 "/>
<path style=" stroke:none;fill-rule:nonzero;fill:rgb(100%,100%,100%);fill-opacity:0.298039;" d="M 16.625 11.082031 C 17.503906 11.082031 18.207031 11.804688 18.207031 12.691406 L 17.417969 12.667969 C 17.417969 12.226562 17.0625 11.875 16.625 11.875 C 16.1875 11.875 15.832031 12.226562 15.832031 12.667969 L 15.832031 14.25 L 18.207031 14.25 C 18.648438 14.25 19 14.601562 19 15.042969 L 19 17.417969 C 19 17.855469 18.648438 18.207031 18.207031 18.207031 L 15.042969 18.207031 C 14.601562 18.207031 14.25 17.855469 14.25 17.417969 L 14.25 15.042969 C 14.25 14.601562 14.601562 14.25 15.042969 14.25 L 15.042969 12.691406 C 15.042969 11.804688 15.746094 11.082031 16.625 11.082031 Z M 16.625 11.082031 "/>
</g>
</svg>
