<?xml version="1.0" encoding="UTF-8"?>
<svg xmlns="http://www.w3.org/2000/svg" xmlns:xlink="http://www.w3.org/1999/xlink" width="19pt" height="19pt" viewBox="0 0 19 19" version="1.1">
<g id="surface1">
<path style=" stroke:none;fill-rule:nonzero;fill:rgb(100%,100%,100%);fill-opacity:1;" d="M 4.578125 5.515625 C 4.714844 5.34375 4.964844 5.316406 5.136719 5.457031 L 7.597656 7.449219 C 7.765625 7.585938 7.792969 7.835938 7.652344 8.003906 C 7.515625 8.175781 7.265625 8.203125 7.097656 8.0625 L 4.636719 6.070312 C 4.464844 5.933594 4.441406 5.683594 4.578125 5.515625 Z M 4.578125 5.515625 "/>
<path style=" stroke:none;fill-rule:nonzero;fill:rgb(100%,100%,100%);fill-opacity:0.576471;" d="M 5.515625 14.421875 C 5.34375 14.285156 5.316406 14.035156 5.457031 13.863281 L 7.449219 11.402344 C 7.585938 11.234375 7.835938 11.207031 8.003906 11.347656 C 8.175781 11.484375 8.203125 11.734375 8.0625 11.902344 L 6.070312 14.363281 C 5.933594 14.535156 5.683594 14.558594 5.515625 14.421875 Z M 5.515625 14.421875 "/>
<path style=" stroke:none;fill-rule:nonzero;fill:rgb(100%,100%,100%);fill-opacity:0.333333;" d="M 14.421875 13.484375 C 14.285156 13.65625 14.035156 13.683594 13.863281 13.542969 L 11.402344 11.550781 C 11.234375 11.414062 11.207031 11.164062 11.347656 10.996094 C 11.484375 10.824219 11.734375 10.796875 11.902344 10.9375 L 14.363281 12.929688 C 14.535156 13.066406 14.558594 13.316406 14.421875 13.484375 Z M 14.421875 13.484375 "/>
<path style=" stroke:none;fill-rule:nonzero;fill:rgb(100%,100%,100%);fill-opacity:0.188235;" d="M 13.484375 4.578125 C 13.65625 4.714844 13.683594 4.964844 13.542969 5.136719 L 11.550781 7.597656 C 11.414062 7.765625 11.164062 7.792969 10.996094 7.652344 C 10.824219 7.515625 10.796875 7.265625 10.9375 7.097656 L 12.929688 4.636719 C 13.066406 4.464844 13.316406 4.441406 13.484375 4.578125 Z M 13.484375 4.578125 "/>
<path style=" stroke:none;fill-rule:nonzero;fill:rgb(100%,100%,100%);fill-opacity:0.831373;" d="M 3.246094 8.507812 C 3.277344 8.292969 3.480469 8.144531 3.699219 8.179688 L 6.824219 8.675781 C 7.042969 8.710938 7.1875 8.914062 7.152344 9.128906 C 7.121094 9.34375 6.917969 9.492188 6.703125 9.457031 L 3.574219 8.960938 C 3.359375 8.929688 3.210938 8.726562 3.246094 8.507812 Z M 3.246094 8.507812 "/>
<path style=" stroke:none;fill-rule:nonzero;fill:rgb(100%,100%,100%);fill-opacity:0.694118;" d="M 3.585938 11.769531 C 3.507812 11.566406 3.609375 11.335938 3.816406 11.257812 L 6.769531 10.125 C 6.976562 10.046875 7.203125 10.148438 7.28125 10.351562 C 7.359375 10.554688 7.257812 10.785156 7.054688 10.863281 L 4.097656 11.996094 C 3.894531 12.074219 3.664062 11.972656 3.585938 11.769531 Z M 3.585938 11.769531 "/>
<path style=" stroke:none;fill-rule:nonzero;fill:rgb(100%,100%,100%);fill-opacity:0.482353;" d="M 8.507812 15.753906 C 8.292969 15.722656 8.144531 15.519531 8.179688 15.300781 L 8.675781 12.175781 C 8.710938 11.957031 8.914062 11.8125 9.128906 11.847656 C 9.34375 11.878906 9.492188 12.082031 9.457031 12.296875 L 8.960938 15.425781 C 8.929688 15.640625 8.726562 15.789062 8.507812 15.753906 Z M 8.507812 15.753906 "/>
<path style=" stroke:none;fill-rule:nonzero;fill:rgb(100%,100%,100%);fill-opacity:0.403922;" d="M 11.769531 15.414062 C 11.566406 15.492188 11.335938 15.390625 11.257812 15.183594 L 10.125 12.230469 C 10.046875 12.023438 10.148438 11.796875 10.351562 11.71875 C 10.554688 11.640625 10.785156 11.742188 10.863281 11.945312 L 11.996094 14.902344 C 12.074219 15.105469 11.972656 15.335938 11.769531 15.414062 Z M 11.769531 15.414062 "/>
<path style=" stroke:none;fill-rule:nonzero;fill:rgb(100%,100%,100%);fill-opacity:0.278431;" d="M 15.753906 10.492188 C 15.722656 10.707031 15.519531 10.855469 15.300781 10.820312 L 12.175781 10.324219 C 11.957031 10.289062 11.8125 10.085938 11.847656 9.871094 C 11.878906 9.65625 12.082031 9.507812 12.296875 9.542969 L 15.425781 10.039062 C 15.640625 10.070312 15.789062 10.273438 15.753906 10.492188 Z M 15.753906 10.492188 "/>
<path style=" stroke:none;fill-rule:nonzero;fill:rgb(100%,100%,100%);fill-opacity:0.231373;" d="M 15.414062 7.230469 C 15.492188 7.433594 15.390625 7.664062 15.183594 7.742188 L 12.230469 8.875 C 12.023438 8.953125 11.796875 8.851562 11.71875 8.648438 C 11.640625 8.445312 11.742188 8.214844 11.945312 8.136719 L 14.902344 7.003906 C 15.105469 6.925781 15.335938 7.027344 15.414062 7.230469 Z M 15.414062 7.230469 "/>
<path style=" stroke:none;fill-rule:nonzero;fill:rgb(100%,100%,100%);fill-opacity:0.160784;" d="M 10.492188 3.246094 C 10.707031 3.277344 10.855469 3.480469 10.820312 3.699219 L 10.324219 6.824219 C 10.289062 7.042969 10.085938 7.1875 9.871094 7.152344 C 9.65625 7.121094 9.507812 6.917969 9.542969 6.703125 L 10.039062 3.574219 C 10.070312 3.359375 10.273438 3.210938 10.492188 3.246094 Z M 10.492188 3.246094 "/>
<path style=" stroke:none;fill-rule:nonzero;fill:rgb(100%,100%,100%);fill-opacity:0.129412;" d="M 7.230469 3.585938 C 7.433594 3.507812 7.664062 3.609375 7.742188 3.816406 L 8.875 6.769531 C 8.953125 6.976562 8.851562 7.203125 8.648438 7.28125 C 8.445312 7.359375 8.214844 7.257812 8.136719 7.054688 L 7.003906 4.097656 C 6.925781 3.894531 7.027344 3.664062 7.230469 3.585938 Z M 7.230469 3.585938 "/>
<path style=" stroke:none;fill-rule:nonzero;fill:rgb(100%,100%,100%);fill-opacity:0.101961;" d="M 16.625 11.082031 C 17.503906 11.082031 18.207031 11.804688 18.207031 12.691406 L 17.417969 12.667969 C 17.417969 12.226562 17.0625 11.875 16.625 11.875 C 16.1875 11.875 15.832031 12.226562 15.832031 12.667969 L 15.832031 14.25 L 18.207031 14.25 C 18.648438 14.25 19 14.601562 19 15.042969 L 19 17.417969 C 19 17.855469 18.648438 18.207031 18.207031 18.207031 L 15.042969 18.207031 C 14.601562 18.207031 14.25 17.855469 14.25 17.417969 L 14.25 15.042969 C 14.25 14.601562 14.601562 14.25 15.042969 14.25 L 15.042969 12.691406 C 15.042969 11.804688 15.746094 11.082031 16.625 11.082031 Z M 16.625 11.082031 "/>
</g>
</svg>
