<?xml version="1.0" encoding="UTF-8"?>
<svg xmlns="http://www.w3.org/2000/svg" xmlns:xlink="http://www.w3.org/1999/xlink" width="19pt" height="19pt" viewBox="0 0 19 19" version="1.1">
<g id="surface1">
<path style=" stroke:none;fill-rule:nonzero;fill:rgb(100%,100%,100%);fill-opacity:1;" d="M 12.375 15.144531 C 12.179688 15.242188 11.941406 15.164062 11.84375 14.96875 L 10.40625 12.148438 C 10.304688 11.953125 10.382812 11.714844 10.578125 11.617188 C 10.773438 11.515625 11.011719 11.59375 11.109375 11.789062 L 12.546875 14.609375 C 12.648438 14.804688 12.570312 15.042969 12.375 15.144531 Z M 12.375 15.144531 "/>
<path style=" stroke:none;fill-rule:nonzero;fill:rgb(100%,100%,100%);fill-opacity:0.576471;" d="M 15.144531 6.625 C 15.242188 6.820312 15.164062 7.058594 14.96875 7.15625 L 12.148438 8.59375 C 11.953125 8.695312 11.714844 8.617188 11.617188 8.421875 C 11.515625 8.226562 11.59375 7.988281 11.789062 7.890625 L 14.609375 6.453125 C 14.804688 6.351562 15.042969 6.429688 15.144531 6.625 Z M 15.144531 6.625 "/>
<path style=" stroke:none;fill-rule:nonzero;fill:rgb(100%,100%,100%);fill-opacity:0.333333;" d="M 6.625 3.855469 C 6.820312 3.757812 7.058594 3.835938 7.15625 4.03125 L 8.59375 6.851562 C 8.695312 7.046875 8.617188 7.285156 8.421875 7.382812 C 8.226562 7.484375 7.988281 7.40625 7.890625 7.210938 L 6.453125 4.390625 C 6.351562 4.195312 6.429688 3.957031 6.625 3.855469 Z M 6.625 3.855469 "/>
<path style=" stroke:none;fill-rule:nonzero;fill:rgb(100%,100%,100%);fill-opacity:0.188235;" d="M 3.855469 12.375 C 3.757812 12.179688 3.835938 11.941406 4.03125 11.84375 L 6.851562 10.40625 C 7.046875 10.304688 7.285156 10.382812 7.382812 10.578125 C 7.484375 10.773438 7.40625 11.011719 7.210938 11.109375 L 4.390625 12.546875 C 4.195312 12.648438 3.957031 12.570312 3.855469 12.375 Z M 3.855469 12.375 "/>
<path style=" stroke:none;fill-rule:nonzero;fill:rgb(100%,100%,100%);fill-opacity:0.831373;" d="M 14.8125 12.949219 C 14.691406 13.132812 14.449219 13.183594 14.265625 13.066406 L 11.609375 11.339844 C 11.425781 11.222656 11.371094 10.976562 11.492188 10.792969 C 11.609375 10.609375 11.855469 10.558594 12.039062 10.675781 L 14.695312 12.402344 C 14.878906 12.519531 14.929688 12.765625 14.8125 12.949219 Z M 14.8125 12.949219 "/>
<path style=" stroke:none;fill-rule:nonzero;fill:rgb(100%,100%,100%);fill-opacity:0.694118;" d="M 15.824219 9.832031 C 15.8125 10.050781 15.628906 10.21875 15.410156 10.207031 L 12.246094 10.039062 C 12.027344 10.027344 11.859375 9.84375 11.871094 9.625 C 11.882812 9.40625 12.070312 9.238281 12.289062 9.25 L 15.449219 9.414062 C 15.667969 9.425781 15.835938 9.613281 15.824219 9.832031 Z M 15.824219 9.832031 "/>
<path style=" stroke:none;fill-rule:nonzero;fill:rgb(100%,100%,100%);fill-opacity:0.482353;" d="M 12.949219 4.1875 C 13.132812 4.308594 13.183594 4.550781 13.066406 4.734375 L 11.339844 7.390625 C 11.222656 7.574219 10.976562 7.628906 10.792969 7.507812 C 10.609375 7.390625 10.558594 7.144531 10.675781 6.960938 L 12.402344 4.304688 C 12.519531 4.121094 12.765625 4.070312 12.949219 4.1875 Z M 12.949219 4.1875 "/>
<path style=" stroke:none;fill-rule:nonzero;fill:rgb(100%,100%,100%);fill-opacity:0.403922;" d="M 9.832031 3.175781 C 10.050781 3.1875 10.21875 3.371094 10.207031 3.589844 L 10.039062 6.753906 C 10.027344 6.972656 9.84375 7.140625 9.625 7.128906 C 9.40625 7.117188 9.238281 6.929688 9.25 6.710938 L 9.414062 3.550781 C 9.425781 3.332031 9.613281 3.164062 9.832031 3.175781 Z M 9.832031 3.175781 "/>
<path style=" stroke:none;fill-rule:nonzero;fill:rgb(100%,100%,100%);fill-opacity:0.278431;" d="M 4.1875 6.050781 C 4.308594 5.867188 4.550781 5.816406 4.734375 5.933594 L 7.390625 7.660156 C 7.574219 7.777344 7.628906 8.023438 7.507812 8.207031 C 7.390625 8.390625 7.144531 8.441406 6.960938 8.324219 L 4.304688 6.597656 C 4.121094 6.480469 4.070312 6.234375 4.1875 6.050781 Z M 4.1875 6.050781 "/>
<path style=" stroke:none;fill-rule:nonzero;fill:rgb(100%,100%,100%);fill-opacity:0.231373;" d="M 3.175781 9.167969 C 3.1875 8.949219 3.371094 8.78125 3.589844 8.792969 L 6.753906 8.960938 C 6.972656 8.972656 7.140625 9.15625 7.128906 9.375 C 7.117188 9.59375 6.929688 9.761719 6.710938 9.75 L 3.550781 9.585938 C 3.332031 9.574219 3.164062 9.386719 3.175781 9.167969 Z M 3.175781 9.167969 "/>
<path style=" stroke:none;fill-rule:nonzero;fill:rgb(100%,100%,100%);fill-opacity:0.160784;" d="M 6.050781 14.8125 C 5.867188 14.691406 5.816406 14.449219 5.933594 14.265625 L 7.660156 11.609375 C 7.777344 11.425781 8.023438 11.371094 8.207031 11.492188 C 8.390625 11.609375 8.441406 11.855469 8.324219 12.039062 L 6.597656 14.695312 C 6.480469 14.878906 6.234375 14.929688 6.050781 14.8125 Z M 6.050781 14.8125 "/>
<path style=" stroke:none;fill-rule:nonzero;fill:rgb(100%,100%,100%);fill-opacity:0.129412;" d="M 9.167969 15.824219 C 8.949219 15.8125 8.78125 15.628906 8.792969 15.410156 L 8.960938 12.246094 C 8.972656 12.027344 9.15625 11.859375 9.375 11.871094 C 9.59375 11.882812 9.761719 12.070312 9.75 12.289062 L 9.585938 15.449219 C 9.574219 15.667969 9.386719 15.835938 9.167969 15.824219 Z M 9.167969 15.824219 "/>
<path style=" stroke:none;fill-rule:nonzero;fill:rgb(100%,100%,100%);fill-opacity:0.4;" d="M 16.625 11.082031 C 17.503906 11.082031 18.207031 11.804688 18.207031 12.691406 L 17.417969 12.667969 C 17.417969 12.226562 17.0625 11.875 16.625 11.875 C 16.1875 11.875 15.832031 12.226562 15.832031 12.667969 L 15.832031 14.25 L 18.207031 14.25 C 18.648438 14.25 19 14.601562 19 15.042969 L 19 17.417969 C 19 17.855469 18.648438 18.207031 18.207031 18.207031 L 15.042969 18.207031 C 14.601562 18.207031 14.25 17.855469 14.25 17.417969 L 14.25 15.042969 C 14.25 14.601562 14.601562 14.25 15.042969 14.25 L 15.042969 12.691406 C 15.042969 11.804688 15.746094 11.082031 16.625 11.082031 Z M 16.625 11.082031 "/>
</g>
</svg>
