<?xml version="1.0" encoding="UTF-8"?>
<svg xmlns="http://www.w3.org/2000/svg" xmlns:xlink="http://www.w3.org/1999/xlink" width="17pt" height="17pt" viewBox="0 0 17 17" version="1.1">
<g id="surface1">
<path style=" stroke:none;fill-rule:evenodd;fill:rgb(100%,100%,100%);fill-opacity:0.298039;" d="M 8.5 3.089844 C 4.746094 3.089844 1.699219 5.859375 1.699219 9.273438 C 1.699219 12.683594 4.746094 15.453125 8.5 15.453125 C 12.253906 15.453125 15.300781 12.683594 15.300781 9.273438 C 15.300781 5.859375 12.253906 3.089844 8.5 3.089844 Z M 8.5 6.953125 C 9.90625 6.953125 11.050781 7.992188 11.050781 9.273438 C 11.050781 10.550781 9.90625 11.589844 8.5 11.589844 C 7.09375 11.589844 5.949219 10.550781 5.949219 9.273438 C 5.949219 7.992188 7.09375 6.953125 8.5 6.953125 Z M 8.5 6.953125 "/>
<path style=" stroke:none;fill-rule:evenodd;fill:rgb(23.529412%,23.529412%,23.529412%);fill-opacity:0.4;" d="M 8.5 2.316406 C 4.746094 2.316406 1.699219 5.085938 1.699219 8.5 C 1.699219 11.914062 4.746094 14.683594 8.5 14.683594 C 12.253906 14.683594 15.300781 11.914062 15.300781 8.5 C 15.300781 5.085938 12.253906 2.316406 8.5 2.316406 Z M 8.5 6.183594 C 9.90625 6.183594 11.050781 7.21875 11.050781 8.5 C 11.050781 9.78125 9.90625 10.816406 8.5 10.816406 C 7.09375 10.816406 5.949219 9.78125 5.949219 8.5 C 5.949219 7.21875 7.09375 6.183594 8.5 6.183594 Z M 8.5 6.183594 "/>
<path style=" stroke:none;fill-rule:nonzero;fill:rgb(23.529412%,23.529412%,23.529412%);fill-opacity:1;" d="M 8.5 2.316406 L 8.5 6.183594 C 9.90625 6.183594 11.050781 7.21875 11.050781 8.5 C 11.050781 9.78125 9.90625 10.816406 8.5 10.816406 C 7.09375 10.816406 5.949219 9.78125 5.949219 8.5 C 5.949219 7.738281 6.359375 7.0625 6.984375 6.640625 C 7.1875 6.503906 7.398438 6.402344 7.625 6.328125 L 6.320312 2.632812 C 5.671875 2.832031 5.042969 3.132812 4.460938 3.527344 C 2.789062 4.652344 1.699219 6.460938 1.699219 8.5 C 1.699219 11.914062 4.746094 14.683594 8.5 14.683594 C 12.253906 14.683594 15.300781 11.914062 15.300781 8.5 C 15.300781 5.085938 12.253906 2.316406 8.5 2.316406 Z M 8.5 2.316406 "/>
</g>
</svg>
