<?xml version="1.0" encoding="UTF-8"?>
<svg xmlns="http://www.w3.org/2000/svg" xmlns:xlink="http://www.w3.org/1999/xlink" width="17pt" height="17pt" viewBox="0 0 17 17" version="1.1">
<g id="surface1">
<path style=" stroke:none;fill-rule:nonzero;fill:rgb(100%,100%,100%);fill-opacity:1;" d="M 5.804688 3.515625 C 5.976562 3.421875 6.191406 3.484375 6.285156 3.660156 L 7.632812 6.152344 C 7.726562 6.324219 7.660156 6.539062 7.488281 6.628906 C 7.316406 6.722656 7.101562 6.660156 7.007812 6.488281 L 5.660156 3.996094 C 5.570312 3.824219 5.632812 3.609375 5.804688 3.515625 Z M 5.804688 3.515625 "/>
<path style=" stroke:none;fill-rule:nonzero;fill:rgb(100%,100%,100%);fill-opacity:0.576471;" d="M 3.515625 11.195312 C 3.421875 11.023438 3.484375 10.808594 3.660156 10.714844 L 6.152344 9.367188 C 6.324219 9.273438 6.539062 9.339844 6.628906 9.511719 C 6.722656 9.683594 6.660156 9.898438 6.488281 9.992188 L 3.996094 11.339844 C 3.824219 11.429688 3.609375 11.367188 3.515625 11.195312 Z M 3.515625 11.195312 "/>
<path style=" stroke:none;fill-rule:nonzero;fill:rgb(100%,100%,100%);fill-opacity:0.333333;" d="M 11.195312 13.484375 C 11.023438 13.578125 10.808594 13.515625 10.714844 13.339844 L 9.367188 10.847656 C 9.273438 10.675781 9.339844 10.460938 9.511719 10.371094 C 9.683594 10.277344 9.898438 10.339844 9.992188 10.511719 L 11.339844 13.003906 C 11.429688 13.175781 11.367188 13.390625 11.195312 13.484375 Z M 11.195312 13.484375 "/>
<path style=" stroke:none;fill-rule:nonzero;fill:rgb(100%,100%,100%);fill-opacity:0.188235;" d="M 13.484375 5.804688 C 13.578125 5.976562 13.515625 6.191406 13.339844 6.285156 L 10.847656 7.632812 C 10.675781 7.726562 10.460938 7.660156 10.371094 7.488281 C 10.277344 7.316406 10.339844 7.101562 10.511719 7.007812 L 13.003906 5.660156 C 13.175781 5.570312 13.390625 5.632812 13.484375 5.804688 Z M 13.484375 5.804688 "/>
<path style=" stroke:none;fill-rule:nonzero;fill:rgb(100%,100%,100%);fill-opacity:0.831373;" d="M 3.671875 5.53125 C 3.777344 5.363281 3.996094 5.3125 4.160156 5.414062 L 6.574219 6.898438 C 6.742188 7 6.792969 7.21875 6.691406 7.386719 C 6.585938 7.554688 6.371094 7.605469 6.203125 7.503906 L 3.789062 6.019531 C 3.625 5.914062 3.570312 5.695312 3.671875 5.53125 Z M 3.671875 5.53125 "/>
<path style=" stroke:none;fill-rule:nonzero;fill:rgb(100%,100%,100%);fill-opacity:0.694118;" d="M 2.835938 8.339844 C 2.839844 8.144531 3.003906 7.992188 3.199219 7.996094 L 6.03125 8.078125 C 6.226562 8.082031 6.382812 8.246094 6.375 8.441406 C 6.371094 8.636719 6.207031 8.789062 6.011719 8.785156 L 3.179688 8.707031 C 2.984375 8.699219 2.832031 8.535156 2.835938 8.339844 Z M 2.835938 8.339844 "/>
<path style=" stroke:none;fill-rule:nonzero;fill:rgb(100%,100%,100%);fill-opacity:0.482353;" d="M 5.53125 13.328125 C 5.363281 13.222656 5.3125 13.003906 5.414062 12.839844 L 6.898438 10.425781 C 7 10.257812 7.21875 10.207031 7.386719 10.308594 C 7.554688 10.414062 7.605469 10.628906 7.503906 10.796875 L 6.019531 13.210938 C 5.914062 13.375 5.695312 13.429688 5.53125 13.328125 Z M 5.53125 13.328125 "/>
<path style=" stroke:none;fill-rule:nonzero;fill:rgb(100%,100%,100%);fill-opacity:0.403922;" d="M 8.339844 14.164062 C 8.144531 14.160156 7.992188 13.996094 7.996094 13.800781 L 8.078125 10.96875 C 8.082031 10.773438 8.246094 10.617188 8.441406 10.625 C 8.636719 10.628906 8.789062 10.792969 8.785156 10.988281 L 8.707031 13.820312 C 8.699219 14.015625 8.535156 14.167969 8.339844 14.164062 Z M 8.339844 14.164062 "/>
<path style=" stroke:none;fill-rule:nonzero;fill:rgb(100%,100%,100%);fill-opacity:0.278431;" d="M 13.328125 11.46875 C 13.222656 11.636719 13.003906 11.6875 12.839844 11.585938 L 10.425781 10.101562 C 10.257812 10 10.207031 9.78125 10.308594 9.613281 C 10.414062 9.445312 10.628906 9.394531 10.796875 9.496094 L 13.210938 10.980469 C 13.375 11.085938 13.429688 11.304688 13.328125 11.46875 Z M 13.328125 11.46875 "/>
<path style=" stroke:none;fill-rule:nonzero;fill:rgb(100%,100%,100%);fill-opacity:0.231373;" d="M 14.164062 8.660156 C 14.160156 8.855469 13.996094 9.007812 13.800781 9.003906 L 10.96875 8.921875 C 10.773438 8.917969 10.617188 8.753906 10.625 8.558594 C 10.628906 8.363281 10.792969 8.210938 10.988281 8.214844 L 13.820312 8.292969 C 14.015625 8.300781 14.167969 8.464844 14.164062 8.660156 Z M 14.164062 8.660156 "/>
<path style=" stroke:none;fill-rule:nonzero;fill:rgb(100%,100%,100%);fill-opacity:0.160784;" d="M 11.46875 3.671875 C 11.636719 3.777344 11.6875 3.996094 11.585938 4.160156 L 10.101562 6.574219 C 10 6.742188 9.78125 6.792969 9.613281 6.691406 C 9.445312 6.585938 9.394531 6.371094 9.496094 6.203125 L 10.980469 3.789062 C 11.085938 3.625 11.304688 3.570312 11.46875 3.671875 Z M 11.46875 3.671875 "/>
<path style=" stroke:none;fill-rule:nonzero;fill:rgb(100%,100%,100%);fill-opacity:0.129412;" d="M 8.660156 2.835938 C 8.855469 2.839844 9.007812 3.003906 9.003906 3.199219 L 8.921875 6.03125 C 8.917969 6.226562 8.753906 6.382812 8.558594 6.375 C 8.363281 6.371094 8.210938 6.207031 8.214844 6.011719 L 8.292969 3.179688 C 8.300781 2.984375 8.464844 2.832031 8.660156 2.835938 Z M 8.660156 2.835938 "/>
<path style=" stroke:none;fill-rule:nonzero;fill:rgb(100%,100%,100%);fill-opacity:0.101961;" d="M 15.582031 14.167969 C 15.582031 14.949219 14.949219 15.585938 14.167969 15.585938 C 13.382812 15.585938 12.75 14.949219 12.75 14.167969 C 12.75 13.382812 13.382812 12.75 14.167969 12.75 C 14.949219 12.75 15.582031 13.382812 15.582031 14.167969 Z M 15.582031 14.167969 "/>
</g>
</svg>
