<?xml version="1.0" encoding="UTF-8"?>
<svg xmlns="http://www.w3.org/2000/svg" xmlns:xlink="http://www.w3.org/1999/xlink" width="17pt" height="17pt" viewBox="0 0 17 17" version="1.1">
<g id="surface1">
<path style=" stroke:none;fill-rule:nonzero;fill:rgb(100%,100%,100%);fill-opacity:1;" d="M 12.546875 12.464844 C 12.410156 12.605469 12.1875 12.605469 12.046875 12.46875 L 10.023438 10.488281 C 9.882812 10.351562 9.882812 10.125 10.019531 9.988281 C 10.15625 9.847656 10.378906 9.84375 10.519531 9.980469 L 12.542969 11.964844 C 12.683594 12.101562 12.6875 12.324219 12.546875 12.464844 Z M 12.546875 12.464844 "/>
<path style=" stroke:none;fill-rule:nonzero;fill:rgb(100%,100%,100%);fill-opacity:0.576471;" d="M 12.464844 4.453125 C 12.605469 4.589844 12.605469 4.8125 12.46875 4.953125 L 10.488281 6.976562 C 10.351562 7.117188 10.125 7.117188 9.988281 6.980469 C 9.847656 6.84375 9.84375 6.621094 9.980469 6.480469 L 11.964844 4.457031 C 12.101562 4.316406 12.324219 4.3125 12.464844 4.453125 Z M 12.464844 4.453125 "/>
<path style=" stroke:none;fill-rule:nonzero;fill:rgb(100%,100%,100%);fill-opacity:0.333333;" d="M 4.453125 4.535156 C 4.589844 4.394531 4.8125 4.394531 4.953125 4.53125 L 6.976562 6.511719 C 7.117188 6.648438 7.117188 6.875 6.980469 7.011719 C 6.84375 7.152344 6.621094 7.15625 6.480469 7.019531 L 4.457031 5.035156 C 4.316406 4.898438 4.3125 4.675781 4.453125 4.535156 Z M 4.453125 4.535156 "/>
<path style=" stroke:none;fill-rule:nonzero;fill:rgb(100%,100%,100%);fill-opacity:0.188235;" d="M 4.535156 12.546875 C 4.394531 12.410156 4.394531 12.1875 4.53125 12.046875 L 6.511719 10.023438 C 6.648438 9.882812 6.875 9.882812 7.011719 10.019531 C 7.152344 10.15625 7.15625 10.378906 7.019531 10.519531 L 5.035156 12.542969 C 4.898438 12.683594 4.675781 12.6875 4.535156 12.546875 Z M 4.535156 12.546875 "/>
<path style=" stroke:none;fill-rule:nonzero;fill:rgb(100%,100%,100%);fill-opacity:0.831373;" d="M 13.988281 9.910156 C 13.941406 10.097656 13.746094 10.210938 13.558594 10.164062 L 10.8125 9.460938 C 10.625 9.410156 10.507812 9.21875 10.558594 9.027344 C 10.605469 8.839844 10.800781 8.726562 10.988281 8.773438 L 13.734375 9.476562 C 13.921875 9.527344 14.039062 9.71875 13.988281 9.910156 Z M 13.988281 9.910156 "/>
<path style=" stroke:none;fill-rule:nonzero;fill:rgb(100%,100%,100%);fill-opacity:0.694118;" d="M 13.957031 6.976562 C 14.011719 7.164062 13.902344 7.359375 13.710938 7.414062 L 10.984375 8.175781 C 10.792969 8.226562 10.597656 8.117188 10.546875 7.929688 C 10.492188 7.738281 10.605469 7.542969 10.792969 7.492188 L 13.523438 6.730469 C 13.710938 6.675781 13.90625 6.789062 13.957031 6.976562 Z M 13.957031 6.976562 "/>
<path style=" stroke:none;fill-rule:nonzero;fill:rgb(100%,100%,100%);fill-opacity:0.482353;" d="M 9.910156 3.011719 C 10.097656 3.058594 10.210938 3.253906 10.164062 3.441406 L 9.460938 6.1875 C 9.410156 6.375 9.21875 6.492188 9.027344 6.441406 C 8.839844 6.394531 8.726562 6.199219 8.773438 6.011719 L 9.476562 3.265625 C 9.527344 3.078125 9.71875 2.960938 9.910156 3.011719 Z M 9.910156 3.011719 "/>
<path style=" stroke:none;fill-rule:nonzero;fill:rgb(100%,100%,100%);fill-opacity:0.403922;" d="M 6.976562 3.042969 C 7.164062 2.988281 7.359375 3.097656 7.414062 3.289062 L 8.175781 6.015625 C 8.226562 6.207031 8.117188 6.402344 7.929688 6.453125 C 7.738281 6.507812 7.542969 6.394531 7.492188 6.207031 L 6.730469 3.476562 C 6.675781 3.289062 6.789062 3.09375 6.976562 3.042969 Z M 6.976562 3.042969 "/>
<path style=" stroke:none;fill-rule:nonzero;fill:rgb(100%,100%,100%);fill-opacity:0.278431;" d="M 3.011719 7.089844 C 3.058594 6.902344 3.253906 6.789062 3.441406 6.835938 L 6.1875 7.539062 C 6.375 7.589844 6.492188 7.78125 6.441406 7.972656 C 6.394531 8.160156 6.199219 8.273438 6.011719 8.226562 L 3.265625 7.523438 C 3.078125 7.472656 2.960938 7.28125 3.011719 7.089844 Z M 3.011719 7.089844 "/>
<path style=" stroke:none;fill-rule:nonzero;fill:rgb(100%,100%,100%);fill-opacity:0.231373;" d="M 3.042969 10.023438 C 2.988281 9.835938 3.097656 9.640625 3.289062 9.585938 L 6.015625 8.824219 C 6.207031 8.773438 6.402344 8.882812 6.453125 9.070312 C 6.507812 9.261719 6.394531 9.457031 6.207031 9.507812 L 3.476562 10.269531 C 3.289062 10.324219 3.09375 10.210938 3.042969 10.023438 Z M 3.042969 10.023438 "/>
<path style=" stroke:none;fill-rule:nonzero;fill:rgb(100%,100%,100%);fill-opacity:0.160784;" d="M 7.089844 13.988281 C 6.902344 13.941406 6.789062 13.746094 6.835938 13.558594 L 7.539062 10.8125 C 7.589844 10.625 7.78125 10.507812 7.972656 10.558594 C 8.160156 10.605469 8.273438 10.800781 8.226562 10.988281 L 7.523438 13.734375 C 7.472656 13.921875 7.28125 14.039062 7.089844 13.988281 Z M 7.089844 13.988281 "/>
<path style=" stroke:none;fill-rule:nonzero;fill:rgb(100%,100%,100%);fill-opacity:0.129412;" d="M 10.023438 13.957031 C 9.835938 14.011719 9.640625 13.902344 9.585938 13.710938 L 8.824219 10.984375 C 8.773438 10.792969 8.882812 10.597656 9.070312 10.546875 C 9.261719 10.492188 9.457031 10.605469 9.507812 10.792969 L 10.269531 13.523438 C 10.324219 13.710938 10.210938 13.90625 10.023438 13.957031 Z M 10.023438 13.957031 "/>
</g>
</svg>
