<?xml version="1.0" encoding="UTF-8"?>
<svg xmlns="http://www.w3.org/2000/svg" xmlns:xlink="http://www.w3.org/1999/xlink" width="17pt" height="17pt" viewBox="0 0 17 17" version="1.1">
<g id="surface1">
<path style=" stroke:none;fill-rule:nonzero;fill:rgb(100%,100%,100%);fill-opacity:1;" d="M 11.429688 3.648438 C 11.597656 3.75 11.648438 3.96875 11.550781 4.136719 L 10.085938 6.5625 C 9.984375 6.726562 9.765625 6.78125 9.597656 6.679688 C 9.429688 6.578125 9.378906 6.363281 9.476562 6.195312 L 10.941406 3.769531 C 11.042969 3.601562 11.261719 3.546875 11.429688 3.648438 Z M 11.429688 3.648438 "/>
<path style=" stroke:none;fill-rule:nonzero;fill:rgb(100%,100%,100%);fill-opacity:0.576471;" d="M 3.648438 5.570312 C 3.75 5.402344 3.96875 5.351562 4.136719 5.449219 L 6.5625 6.914062 C 6.726562 7.015625 6.78125 7.234375 6.679688 7.402344 C 6.578125 7.570312 6.363281 7.621094 6.195312 7.523438 L 3.769531 6.058594 C 3.601562 5.957031 3.546875 5.738281 3.648438 5.570312 Z M 3.648438 5.570312 "/>
<path style=" stroke:none;fill-rule:nonzero;fill:rgb(100%,100%,100%);fill-opacity:0.333333;" d="M 5.570312 13.351562 C 5.402344 13.25 5.351562 13.03125 5.449219 12.863281 L 6.914062 10.4375 C 7.015625 10.273438 7.234375 10.21875 7.402344 10.320312 C 7.570312 10.421875 7.621094 10.636719 7.523438 10.804688 L 6.058594 13.230469 C 5.957031 13.398438 5.738281 13.453125 5.570312 13.351562 Z M 5.570312 13.351562 "/>
<path style=" stroke:none;fill-rule:nonzero;fill:rgb(100%,100%,100%);fill-opacity:0.188235;" d="M 13.351562 11.429688 C 13.25 11.597656 13.03125 11.648438 12.863281 11.550781 L 10.4375 10.085938 C 10.273438 9.984375 10.21875 9.765625 10.320312 9.597656 C 10.421875 9.429688 10.636719 9.378906 10.804688 9.476562 L 13.230469 10.941406 C 13.398438 11.042969 13.453125 11.261719 13.351562 11.429688 Z M 13.351562 11.429688 "/>
<path style=" stroke:none;fill-rule:nonzero;fill:rgb(100%,100%,100%);fill-opacity:0.831373;" d="M 8.609375 2.835938 C 8.808594 2.839844 8.960938 3 8.957031 3.195312 L 8.902344 6.027344 C 8.898438 6.222656 8.738281 6.378906 8.542969 6.375 C 8.347656 6.371094 8.191406 6.210938 8.195312 6.015625 L 8.25 3.179688 C 8.253906 2.984375 8.414062 2.832031 8.609375 2.835938 Z M 8.609375 2.835938 "/>
<path style=" stroke:none;fill-rule:nonzero;fill:rgb(100%,100%,100%);fill-opacity:0.694118;" d="M 5.761719 3.539062 C 5.933594 3.445312 6.148438 3.503906 6.246094 3.675781 L 7.613281 6.15625 C 7.707031 6.328125 7.644531 6.542969 7.472656 6.640625 C 7.300781 6.734375 7.085938 6.671875 6.992188 6.5 L 5.625 4.019531 C 5.53125 3.847656 5.59375 3.632812 5.761719 3.539062 Z M 5.761719 3.539062 "/>
<path style=" stroke:none;fill-rule:nonzero;fill:rgb(100%,100%,100%);fill-opacity:0.482353;" d="M 2.835938 8.390625 C 2.839844 8.191406 3 8.039062 3.195312 8.042969 L 6.027344 8.097656 C 6.222656 8.101562 6.378906 8.261719 6.375 8.457031 C 6.371094 8.652344 6.210938 8.808594 6.015625 8.804688 L 3.179688 8.75 C 2.984375 8.746094 2.832031 8.585938 2.835938 8.390625 Z M 2.835938 8.390625 "/>
<path style=" stroke:none;fill-rule:nonzero;fill:rgb(100%,100%,100%);fill-opacity:0.403922;" d="M 3.539062 11.238281 C 3.445312 11.066406 3.503906 10.851562 3.675781 10.753906 L 6.15625 9.386719 C 6.328125 9.292969 6.542969 9.355469 6.640625 9.527344 C 6.734375 9.699219 6.671875 9.914062 6.5 10.007812 L 4.019531 11.375 C 3.847656 11.46875 3.632812 11.40625 3.539062 11.238281 Z M 3.539062 11.238281 "/>
<path style=" stroke:none;fill-rule:nonzero;fill:rgb(100%,100%,100%);fill-opacity:0.278431;" d="M 8.390625 14.164062 C 8.191406 14.160156 8.039062 14 8.042969 13.804688 L 8.097656 10.972656 C 8.101562 10.777344 8.261719 10.621094 8.457031 10.625 C 8.652344 10.628906 8.808594 10.789062 8.804688 10.984375 L 8.75 13.820312 C 8.746094 14.015625 8.585938 14.167969 8.390625 14.164062 Z M 8.390625 14.164062 "/>
<path style=" stroke:none;fill-rule:nonzero;fill:rgb(100%,100%,100%);fill-opacity:0.231373;" d="M 11.238281 13.460938 C 11.066406 13.554688 10.851562 13.496094 10.753906 13.324219 L 9.386719 10.84375 C 9.292969 10.671875 9.355469 10.457031 9.527344 10.359375 C 9.699219 10.265625 9.914062 10.328125 10.007812 10.5 L 11.375 12.980469 C 11.46875 13.152344 11.40625 13.367188 11.238281 13.460938 Z M 11.238281 13.460938 "/>
<path style=" stroke:none;fill-rule:nonzero;fill:rgb(100%,100%,100%);fill-opacity:0.160784;" d="M 14.164062 8.609375 C 14.160156 8.808594 14 8.960938 13.804688 8.957031 L 10.972656 8.902344 C 10.777344 8.898438 10.621094 8.738281 10.625 8.542969 C 10.628906 8.347656 10.789062 8.191406 10.984375 8.195312 L 13.820312 8.25 C 14.015625 8.253906 14.167969 8.414062 14.164062 8.609375 Z M 14.164062 8.609375 "/>
<path style=" stroke:none;fill-rule:nonzero;fill:rgb(100%,100%,100%);fill-opacity:0.129412;" d="M 13.460938 5.761719 C 13.554688 5.933594 13.496094 6.148438 13.324219 6.246094 L 10.84375 7.613281 C 10.671875 7.707031 10.457031 7.644531 10.359375 7.472656 C 10.265625 7.300781 10.328125 7.085938 10.5 6.992188 L 12.980469 5.625 C 13.152344 5.53125 13.367188 5.59375 13.460938 5.761719 Z M 13.460938 5.761719 "/>
</g>
</svg>
