<?xml version="1.0" encoding="UTF-8"?>
<svg xmlns="http://www.w3.org/2000/svg" xmlns:xlink="http://www.w3.org/1999/xlink" width="17pt" height="17pt" viewBox="0 0 17 17" version="1.1">
<g id="surface1">
<path style=" stroke:none;fill-rule:nonzero;fill:rgb(100%,100%,100%);fill-opacity:1;" d="M 13.78125 6.449219 C 13.851562 6.628906 13.761719 6.835938 13.582031 6.90625 L 10.9375 7.933594 C 10.757812 8.003906 10.550781 7.914062 10.480469 7.730469 C 10.410156 7.546875 10.5 7.34375 10.683594 7.273438 L 13.324219 6.246094 C 13.507812 6.175781 13.710938 6.265625 13.78125 6.449219 Z M 13.78125 6.449219 "/>
<path style=" stroke:none;fill-rule:nonzero;fill:rgb(100%,100%,100%);fill-opacity:0.576471;" d="M 6.449219 3.21875 C 6.628906 3.148438 6.835938 3.238281 6.90625 3.417969 L 7.933594 6.0625 C 8.003906 6.242188 7.914062 6.449219 7.730469 6.519531 C 7.546875 6.589844 7.34375 6.5 7.273438 6.316406 L 6.246094 3.675781 C 6.175781 3.492188 6.265625 3.289062 6.449219 3.21875 Z M 6.449219 3.21875 "/>
<path style=" stroke:none;fill-rule:nonzero;fill:rgb(100%,100%,100%);fill-opacity:0.333333;" d="M 3.21875 10.550781 C 3.148438 10.371094 3.238281 10.164062 3.417969 10.09375 L 6.0625 9.066406 C 6.242188 8.996094 6.449219 9.085938 6.519531 9.269531 C 6.589844 9.453125 6.5 9.65625 6.316406 9.726562 L 3.675781 10.753906 C 3.492188 10.824219 3.289062 10.734375 3.21875 10.550781 Z M 3.21875 10.550781 "/>
<path style=" stroke:none;fill-rule:nonzero;fill:rgb(100%,100%,100%);fill-opacity:0.188235;" d="M 10.550781 13.78125 C 10.371094 13.851562 10.164062 13.761719 10.09375 13.582031 L 9.066406 10.9375 C 8.996094 10.757812 9.085938 10.550781 9.269531 10.480469 C 9.453125 10.410156 9.65625 10.5 9.726562 10.683594 L 10.753906 13.324219 C 10.824219 13.507812 10.734375 13.710938 10.550781 13.78125 Z M 10.550781 13.78125 "/>
<path style=" stroke:none;fill-rule:nonzero;fill:rgb(100%,100%,100%);fill-opacity:0.831373;" d="M 12.046875 4.082031 C 12.203125 4.203125 12.226562 4.425781 12.101562 4.578125 L 10.328125 6.789062 C 10.207031 6.941406 9.984375 6.964844 9.832031 6.84375 C 9.679688 6.722656 9.652344 6.496094 9.777344 6.34375 L 11.550781 4.136719 C 11.671875 3.984375 11.894531 3.960938 12.046875 4.082031 Z M 12.046875 4.082031 "/>
<path style=" stroke:none;fill-rule:nonzero;fill:rgb(100%,100%,100%);fill-opacity:0.694118;" d="M 9.363281 2.898438 C 9.558594 2.929688 9.691406 3.109375 9.660156 3.304688 L 9.226562 6.105469 C 9.199219 6.296875 9.015625 6.429688 8.824219 6.398438 C 8.628906 6.371094 8.5 6.1875 8.527344 5.996094 L 8.960938 3.195312 C 8.988281 3.003906 9.171875 2.871094 9.363281 2.898438 Z M 9.363281 2.898438 "/>
<path style=" stroke:none;fill-rule:nonzero;fill:rgb(100%,100%,100%);fill-opacity:0.482353;" d="M 4.082031 4.953125 C 4.203125 4.796875 4.425781 4.773438 4.578125 4.898438 L 6.789062 6.671875 C 6.941406 6.792969 6.964844 7.015625 6.84375 7.167969 C 6.722656 7.320312 6.496094 7.347656 6.34375 7.222656 L 4.136719 5.449219 C 3.984375 5.328125 3.960938 5.105469 4.082031 4.953125 Z M 4.082031 4.953125 "/>
<path style=" stroke:none;fill-rule:nonzero;fill:rgb(100%,100%,100%);fill-opacity:0.403922;" d="M 2.898438 7.636719 C 2.929688 7.441406 3.109375 7.308594 3.304688 7.339844 L 6.105469 7.773438 C 6.296875 7.800781 6.429688 7.984375 6.398438 8.175781 C 6.371094 8.371094 6.1875 8.5 5.996094 8.472656 L 3.195312 8.039062 C 3.003906 8.011719 2.871094 7.828125 2.898438 7.636719 Z M 2.898438 7.636719 "/>
<path style=" stroke:none;fill-rule:nonzero;fill:rgb(100%,100%,100%);fill-opacity:0.278431;" d="M 4.953125 12.917969 C 4.796875 12.796875 4.773438 12.574219 4.898438 12.421875 L 6.671875 10.210938 C 6.792969 10.058594 7.015625 10.035156 7.167969 10.15625 C 7.320312 10.277344 7.347656 10.503906 7.222656 10.65625 L 5.449219 12.863281 C 5.328125 13.015625 5.105469 13.039062 4.953125 12.917969 Z M 4.953125 12.917969 "/>
<path style=" stroke:none;fill-rule:nonzero;fill:rgb(100%,100%,100%);fill-opacity:0.231373;" d="M 7.636719 14.101562 C 7.441406 14.070312 7.308594 13.890625 7.339844 13.695312 L 7.773438 10.894531 C 7.800781 10.703125 7.984375 10.570312 8.175781 10.601562 C 8.371094 10.628906 8.5 10.8125 8.472656 11.003906 L 8.039062 13.804688 C 8.011719 13.996094 7.828125 14.128906 7.636719 14.101562 Z M 7.636719 14.101562 "/>
<path style=" stroke:none;fill-rule:nonzero;fill:rgb(100%,100%,100%);fill-opacity:0.160784;" d="M 12.917969 12.046875 C 12.796875 12.203125 12.574219 12.226562 12.421875 12.101562 L 10.210938 10.328125 C 10.058594 10.207031 10.035156 9.984375 10.15625 9.832031 C 10.277344 9.679688 10.503906 9.652344 10.65625 9.777344 L 12.863281 11.550781 C 13.015625 11.671875 13.039062 11.894531 12.917969 12.046875 Z M 12.917969 12.046875 "/>
<path style=" stroke:none;fill-rule:nonzero;fill:rgb(100%,100%,100%);fill-opacity:0.129412;" d="M 14.101562 9.363281 C 14.070312 9.558594 13.890625 9.691406 13.695312 9.660156 L 10.894531 9.226562 C 10.703125 9.199219 10.570312 9.015625 10.601562 8.824219 C 10.628906 8.628906 10.8125 8.5 11.003906 8.527344 L 13.804688 8.960938 C 13.996094 8.988281 14.128906 9.171875 14.101562 9.363281 Z M 14.101562 9.363281 "/>
</g>
</svg>
