<?xml version="1.0" encoding="UTF-8"?>
<svg xmlns="http://www.w3.org/2000/svg" xmlns:xlink="http://www.w3.org/1999/xlink" width="17pt" height="17pt" viewBox="0 0 17 17" version="1.1">
<g id="surface1">
<path style=" stroke:none;fill-rule:nonzero;fill:rgb(100%,100%,100%);fill-opacity:1;" d="M 8.351562 2.835938 C 8.546875 2.832031 8.710938 2.984375 8.714844 3.179688 L 8.789062 6.011719 C 8.792969 6.207031 8.640625 6.371094 8.445312 6.375 C 8.25 6.378906 8.085938 6.226562 8.082031 6.03125 L 8.007812 3.199219 C 8 3.003906 8.15625 2.839844 8.351562 2.835938 Z M 8.351562 2.835938 "/>
<path style=" stroke:none;fill-rule:nonzero;fill:rgb(100%,100%,100%);fill-opacity:0.576471;" d="M 2.835938 8.648438 C 2.832031 8.453125 2.984375 8.289062 3.179688 8.285156 L 6.011719 8.210938 C 6.207031 8.207031 6.371094 8.359375 6.375 8.554688 C 6.378906 8.75 6.226562 8.914062 6.03125 8.917969 L 3.199219 8.992188 C 3.003906 9 2.839844 8.84375 2.835938 8.648438 Z M 2.835938 8.648438 "/>
<path style=" stroke:none;fill-rule:nonzero;fill:rgb(100%,100%,100%);fill-opacity:0.333333;" d="M 8.648438 14.164062 C 8.453125 14.167969 8.289062 14.015625 8.285156 13.820312 L 8.210938 10.988281 C 8.207031 10.792969 8.359375 10.628906 8.554688 10.625 C 8.75 10.621094 8.914062 10.773438 8.917969 10.96875 L 8.992188 13.800781 C 9 13.996094 8.84375 14.160156 8.648438 14.164062 Z M 8.648438 14.164062 "/>
<path style=" stroke:none;fill-rule:nonzero;fill:rgb(100%,100%,100%);fill-opacity:0.188235;" d="M 14.164062 8.351562 C 14.167969 8.546875 14.015625 8.710938 13.820312 8.714844 L 10.988281 8.789062 C 10.792969 8.792969 10.628906 8.640625 10.625 8.445312 C 10.621094 8.25 10.773438 8.085938 10.96875 8.082031 L 13.800781 8.007812 C 13.996094 8 14.160156 8.15625 14.164062 8.351562 Z M 14.164062 8.351562 "/>
<path style=" stroke:none;fill-rule:nonzero;fill:rgb(100%,100%,100%);fill-opacity:0.831373;" d="M 5.539062 3.667969 C 5.707031 3.566406 5.925781 3.617188 6.027344 3.785156 L 7.507812 6.199219 C 7.609375 6.367188 7.554688 6.585938 7.390625 6.6875 C 7.222656 6.789062 7.003906 6.738281 6.902344 6.570312 L 5.421875 4.15625 C 5.320312 3.988281 5.371094 3.769531 5.539062 3.667969 Z M 5.539062 3.667969 "/>
<path style=" stroke:none;fill-rule:nonzero;fill:rgb(100%,100%,100%);fill-opacity:0.694118;" d="M 3.519531 5.796875 C 3.613281 5.625 3.828125 5.558594 4 5.652344 L 6.492188 7.003906 C 6.664062 7.097656 6.726562 7.3125 6.632812 7.484375 C 6.539062 7.65625 6.324219 7.722656 6.152344 7.628906 L 3.664062 6.277344 C 3.492188 6.183594 3.425781 5.96875 3.519531 5.796875 Z M 3.519531 5.796875 "/>
<path style=" stroke:none;fill-rule:nonzero;fill:rgb(100%,100%,100%);fill-opacity:0.482353;" d="M 3.667969 11.460938 C 3.566406 11.292969 3.617188 11.074219 3.785156 10.972656 L 6.199219 9.492188 C 6.367188 9.390625 6.585938 9.445312 6.6875 9.609375 C 6.789062 9.777344 6.738281 9.996094 6.570312 10.097656 L 4.15625 11.578125 C 3.988281 11.679688 3.769531 11.628906 3.667969 11.460938 Z M 3.667969 11.460938 "/>
<path style=" stroke:none;fill-rule:nonzero;fill:rgb(100%,100%,100%);fill-opacity:0.403922;" d="M 5.796875 13.480469 C 5.625 13.386719 5.558594 13.171875 5.652344 13 L 7.003906 10.507812 C 7.097656 10.335938 7.3125 10.273438 7.484375 10.367188 C 7.65625 10.460938 7.722656 10.675781 7.628906 10.847656 L 6.277344 13.335938 C 6.183594 13.507812 5.96875 13.574219 5.796875 13.480469 Z M 5.796875 13.480469 "/>
<path style=" stroke:none;fill-rule:nonzero;fill:rgb(100%,100%,100%);fill-opacity:0.278431;" d="M 11.460938 13.332031 C 11.292969 13.433594 11.074219 13.382812 10.972656 13.214844 L 9.492188 10.800781 C 9.390625 10.632812 9.445312 10.414062 9.609375 10.3125 C 9.777344 10.210938 9.996094 10.261719 10.097656 10.429688 L 11.578125 12.84375 C 11.679688 13.011719 11.628906 13.230469 11.460938 13.332031 Z M 11.460938 13.332031 "/>
<path style=" stroke:none;fill-rule:nonzero;fill:rgb(100%,100%,100%);fill-opacity:0.231373;" d="M 13.480469 11.203125 C 13.386719 11.375 13.171875 11.441406 13 11.347656 L 10.507812 9.996094 C 10.335938 9.902344 10.273438 9.6875 10.367188 9.515625 C 10.460938 9.34375 10.675781 9.277344 10.847656 9.371094 L 13.335938 10.722656 C 13.507812 10.816406 13.574219 11.03125 13.480469 11.203125 Z M 13.480469 11.203125 "/>
<path style=" stroke:none;fill-rule:nonzero;fill:rgb(100%,100%,100%);fill-opacity:0.160784;" d="M 13.332031 5.539062 C 13.433594 5.707031 13.382812 5.925781 13.214844 6.027344 L 10.800781 7.507812 C 10.632812 7.609375 10.414062 7.554688 10.3125 7.390625 C 10.210938 7.222656 10.261719 7.003906 10.429688 6.902344 L 12.84375 5.421875 C 13.011719 5.320312 13.230469 5.371094 13.332031 5.539062 Z M 13.332031 5.539062 "/>
<path style=" stroke:none;fill-rule:nonzero;fill:rgb(100%,100%,100%);fill-opacity:0.129412;" d="M 11.203125 3.519531 C 11.375 3.613281 11.441406 3.828125 11.347656 4 L 9.996094 6.492188 C 9.902344 6.664062 9.6875 6.726562 9.515625 6.632812 C 9.34375 6.539062 9.277344 6.324219 9.371094 6.152344 L 10.722656 3.664062 C 10.816406 3.492188 11.03125 3.425781 11.203125 3.519531 Z M 11.203125 3.519531 "/>
<path style=" stroke:none;fill-rule:nonzero;fill:rgb(100%,100%,100%);fill-opacity:0.101961;" d="M 15.582031 14.167969 C 15.582031 14.949219 14.949219 15.585938 14.167969 15.585938 C 13.382812 15.585938 12.75 14.949219 12.75 14.167969 C 12.75 13.382812 13.382812 12.75 14.167969 12.75 C 14.949219 12.75 15.582031 13.382812 15.582031 14.167969 Z M 15.582031 14.167969 "/>
</g>
</svg>
