<?xml version="1.0" encoding="UTF-8"?>
<svg xmlns="http://www.w3.org/2000/svg" xmlns:xlink="http://www.w3.org/1999/xlink" width="17pt" height="17pt" viewBox="0 0 17 17" version="1.1">
<g id="surface1">
<path style=" stroke:none;fill-rule:nonzero;fill:rgb(100%,100%,100%);fill-opacity:1;" d="M 2.835938 8.382812 C 2.839844 8.1875 3 8.03125 3.195312 8.035156 L 6.027344 8.09375 C 6.222656 8.097656 6.378906 8.261719 6.375 8.457031 C 6.371094 8.652344 6.210938 8.808594 6.015625 8.804688 L 3.179688 8.746094 C 2.984375 8.742188 2.832031 8.578125 2.835938 8.382812 Z M 2.835938 8.382812 "/>
<path style=" stroke:none;fill-rule:nonzero;fill:rgb(100%,100%,100%);fill-opacity:0.576471;" d="M 8.382812 14.164062 C 8.1875 14.160156 8.03125 14 8.035156 13.804688 L 8.09375 10.972656 C 8.097656 10.777344 8.261719 10.621094 8.457031 10.625 C 8.652344 10.628906 8.808594 10.789062 8.804688 10.984375 L 8.746094 13.820312 C 8.742188 14.015625 8.578125 14.167969 8.382812 14.164062 Z M 8.382812 14.164062 "/>
<path style=" stroke:none;fill-rule:nonzero;fill:rgb(100%,100%,100%);fill-opacity:0.333333;" d="M 14.164062 8.617188 C 14.160156 8.8125 14 8.96875 13.804688 8.964844 L 10.972656 8.90625 C 10.777344 8.902344 10.621094 8.738281 10.625 8.542969 C 10.628906 8.347656 10.789062 8.191406 10.984375 8.195312 L 13.820312 8.253906 C 14.015625 8.257812 14.167969 8.421875 14.164062 8.617188 Z M 14.164062 8.617188 "/>
<path style=" stroke:none;fill-rule:nonzero;fill:rgb(100%,100%,100%);fill-opacity:0.188235;" d="M 8.617188 2.835938 C 8.8125 2.839844 8.96875 3 8.964844 3.195312 L 8.90625 6.027344 C 8.902344 6.222656 8.738281 6.378906 8.542969 6.375 C 8.347656 6.371094 8.191406 6.210938 8.195312 6.015625 L 8.253906 3.179688 C 8.257812 2.984375 8.421875 2.832031 8.617188 2.835938 Z M 8.617188 2.835938 "/>
<path style=" stroke:none;fill-rule:nonzero;fill:rgb(100%,100%,100%);fill-opacity:0.831373;" d="M 3.535156 11.230469 C 3.441406 11.058594 3.503906 10.84375 3.675781 10.75 L 6.15625 9.382812 C 6.328125 9.289062 6.542969 9.351562 6.636719 9.523438 C 6.730469 9.695312 6.667969 9.910156 6.5 10.003906 L 4.015625 11.371094 C 3.84375 11.464844 3.628906 11.402344 3.535156 11.230469 Z M 3.535156 11.230469 "/>
<path style=" stroke:none;fill-rule:nonzero;fill:rgb(100%,100%,100%);fill-opacity:0.694118;" d="M 5.566406 13.347656 C 5.398438 13.246094 5.34375 13.027344 5.445312 12.863281 L 6.914062 10.4375 C 7.015625 10.269531 7.230469 10.214844 7.398438 10.316406 C 7.566406 10.417969 7.621094 10.636719 7.519531 10.804688 L 6.050781 13.226562 C 5.949219 13.394531 5.734375 13.449219 5.566406 13.347656 Z M 5.566406 13.347656 "/>
<path style=" stroke:none;fill-rule:nonzero;fill:rgb(100%,100%,100%);fill-opacity:0.482353;" d="M 11.230469 13.464844 C 11.058594 13.558594 10.84375 13.496094 10.75 13.324219 L 9.382812 10.84375 C 9.289062 10.671875 9.351562 10.457031 9.523438 10.363281 C 9.695312 10.269531 9.910156 10.332031 10.003906 10.5 L 11.371094 12.984375 C 11.464844 13.15625 11.402344 13.371094 11.230469 13.464844 Z M 11.230469 13.464844 "/>
<path style=" stroke:none;fill-rule:nonzero;fill:rgb(100%,100%,100%);fill-opacity:0.403922;" d="M 13.347656 11.433594 C 13.246094 11.601562 13.027344 11.65625 12.863281 11.554688 L 10.4375 10.085938 C 10.269531 9.984375 10.214844 9.769531 10.316406 9.601562 C 10.417969 9.433594 10.636719 9.378906 10.804688 9.480469 L 13.226562 10.949219 C 13.394531 11.050781 13.449219 11.265625 13.347656 11.433594 Z M 13.347656 11.433594 "/>
<path style=" stroke:none;fill-rule:nonzero;fill:rgb(100%,100%,100%);fill-opacity:0.278431;" d="M 13.464844 5.769531 C 13.558594 5.941406 13.496094 6.15625 13.324219 6.25 L 10.84375 7.617188 C 10.671875 7.710938 10.457031 7.648438 10.363281 7.476562 C 10.269531 7.304688 10.332031 7.089844 10.5 6.996094 L 12.984375 5.628906 C 13.15625 5.535156 13.371094 5.597656 13.464844 5.769531 Z M 13.464844 5.769531 "/>
<path style=" stroke:none;fill-rule:nonzero;fill:rgb(100%,100%,100%);fill-opacity:0.231373;" d="M 11.433594 3.652344 C 11.601562 3.753906 11.65625 3.972656 11.554688 4.136719 L 10.085938 6.5625 C 9.984375 6.730469 9.769531 6.785156 9.601562 6.683594 C 9.433594 6.582031 9.378906 6.363281 9.480469 6.195312 L 10.949219 3.773438 C 11.050781 3.605469 11.265625 3.550781 11.433594 3.652344 Z M 11.433594 3.652344 "/>
<path style=" stroke:none;fill-rule:nonzero;fill:rgb(100%,100%,100%);fill-opacity:0.160784;" d="M 5.769531 3.535156 C 5.941406 3.441406 6.15625 3.503906 6.25 3.675781 L 7.617188 6.15625 C 7.710938 6.328125 7.648438 6.542969 7.476562 6.636719 C 7.304688 6.730469 7.089844 6.667969 6.996094 6.5 L 5.628906 4.015625 C 5.535156 3.84375 5.597656 3.628906 5.769531 3.535156 Z M 5.769531 3.535156 "/>
<path style=" stroke:none;fill-rule:nonzero;fill:rgb(100%,100%,100%);fill-opacity:0.129412;" d="M 3.652344 5.566406 C 3.753906 5.398438 3.972656 5.34375 4.136719 5.445312 L 6.5625 6.914062 C 6.730469 7.015625 6.785156 7.230469 6.683594 7.398438 C 6.582031 7.566406 6.363281 7.621094 6.195312 7.519531 L 3.773438 6.050781 C 3.605469 5.949219 3.550781 5.734375 3.652344 5.566406 Z M 3.652344 5.566406 "/>
<path style=" stroke:none;fill-rule:nonzero;fill:rgb(100%,100%,100%);fill-opacity:0.239216;" d="M 15.582031 14.167969 C 15.582031 14.949219 14.949219 15.585938 14.167969 15.585938 C 13.382812 15.585938 12.75 14.949219 12.75 14.167969 C 12.75 13.382812 13.382812 12.75 14.167969 12.75 C 14.949219 12.75 15.582031 13.382812 15.582031 14.167969 Z M 15.582031 14.167969 "/>
</g>
</svg>
