<?xml version="1.0" encoding="UTF-8"?>
<svg xmlns="http://www.w3.org/2000/svg" xmlns:xlink="http://www.w3.org/1999/xlink" width="17pt" height="17pt" viewBox="0 0 17 17" version="1.1">
<g id="surface1">
<path style=" stroke:none;fill-rule:nonzero;fill:rgb(100%,100%,100%);fill-opacity:1;" d="M 4.03125 5.015625 C 4.152344 4.863281 4.375 4.835938 4.527344 4.953125 L 6.761719 6.695312 C 6.917969 6.816406 6.945312 7.039062 6.824219 7.195312 C 6.703125 7.347656 6.480469 7.375 6.328125 7.253906 L 4.09375 5.511719 C 3.9375 5.394531 3.910156 5.171875 4.03125 5.015625 Z M 4.03125 5.015625 "/>
<path style=" stroke:none;fill-rule:nonzero;fill:rgb(100%,100%,100%);fill-opacity:0.576471;" d="M 5.015625 12.96875 C 4.863281 12.847656 4.835938 12.625 4.953125 12.472656 L 6.695312 10.238281 C 6.816406 10.082031 7.039062 10.054688 7.195312 10.175781 C 7.347656 10.296875 7.375 10.519531 7.253906 10.671875 L 5.511719 12.90625 C 5.394531 13.0625 5.171875 13.089844 5.015625 12.96875 Z M 5.015625 12.96875 "/>
<path style=" stroke:none;fill-rule:nonzero;fill:rgb(100%,100%,100%);fill-opacity:0.333333;" d="M 12.96875 11.984375 C 12.847656 12.136719 12.625 12.164062 12.472656 12.046875 L 10.238281 10.304688 C 10.082031 10.183594 10.054688 9.960938 10.175781 9.804688 C 10.296875 9.652344 10.519531 9.625 10.671875 9.746094 L 12.90625 11.488281 C 13.0625 11.605469 13.089844 11.828125 12.96875 11.984375 Z M 12.96875 11.984375 "/>
<path style=" stroke:none;fill-rule:nonzero;fill:rgb(100%,100%,100%);fill-opacity:0.188235;" d="M 11.984375 4.03125 C 12.136719 4.152344 12.164062 4.375 12.046875 4.527344 L 10.304688 6.761719 C 10.183594 6.917969 9.960938 6.945312 9.804688 6.824219 C 9.652344 6.703125 9.625 6.480469 9.746094 6.328125 L 11.488281 4.09375 C 11.605469 3.9375 11.828125 3.910156 11.984375 4.03125 Z M 11.984375 4.03125 "/>
<path style=" stroke:none;fill-rule:nonzero;fill:rgb(100%,100%,100%);fill-opacity:0.831373;" d="M 2.886719 7.71875 C 2.914062 7.523438 3.09375 7.390625 3.289062 7.414062 L 6.09375 7.808594 C 6.289062 7.832031 6.421875 8.011719 6.394531 8.207031 C 6.367188 8.398438 6.1875 8.535156 5.996094 8.507812 L 3.191406 8.117188 C 2.996094 8.089844 2.859375 7.910156 2.886719 7.71875 Z M 2.886719 7.71875 "/>
<path style=" stroke:none;fill-rule:nonzero;fill:rgb(100%,100%,100%);fill-opacity:0.694118;" d="M 3.25 10.628906 C 3.175781 10.449219 3.261719 10.242188 3.445312 10.167969 L 6.070312 9.101562 C 6.25 9.03125 6.457031 9.117188 6.53125 9.296875 C 6.605469 9.480469 6.515625 9.6875 6.335938 9.757812 L 3.710938 10.824219 C 3.527344 10.898438 3.320312 10.808594 3.25 10.628906 Z M 3.25 10.628906 "/>
<path style=" stroke:none;fill-rule:nonzero;fill:rgb(100%,100%,100%);fill-opacity:0.482353;" d="M 7.71875 14.113281 C 7.523438 14.085938 7.390625 13.90625 7.414062 13.710938 L 7.808594 10.90625 C 7.832031 10.710938 8.011719 10.578125 8.207031 10.605469 C 8.398438 10.632812 8.535156 10.8125 8.507812 11.003906 L 8.117188 13.808594 C 8.089844 14.003906 7.910156 14.140625 7.71875 14.113281 Z M 7.71875 14.113281 "/>
<path style=" stroke:none;fill-rule:nonzero;fill:rgb(100%,100%,100%);fill-opacity:0.403922;" d="M 10.628906 13.75 C 10.449219 13.824219 10.242188 13.738281 10.167969 13.554688 L 9.101562 10.929688 C 9.03125 10.75 9.117188 10.542969 9.296875 10.46875 C 9.480469 10.394531 9.6875 10.484375 9.757812 10.664062 L 10.824219 13.289062 C 10.898438 13.472656 10.808594 13.679688 10.628906 13.75 Z M 10.628906 13.75 "/>
<path style=" stroke:none;fill-rule:nonzero;fill:rgb(100%,100%,100%);fill-opacity:0.278431;" d="M 14.113281 9.28125 C 14.085938 9.476562 13.90625 9.609375 13.710938 9.585938 L 10.90625 9.191406 C 10.710938 9.167969 10.578125 8.988281 10.605469 8.792969 C 10.632812 8.601562 10.8125 8.464844 11.003906 8.492188 L 13.808594 8.882812 C 14.003906 8.910156 14.140625 9.089844 14.113281 9.28125 Z M 14.113281 9.28125 "/>
<path style=" stroke:none;fill-rule:nonzero;fill:rgb(100%,100%,100%);fill-opacity:0.231373;" d="M 13.75 6.371094 C 13.824219 6.550781 13.738281 6.757812 13.554688 6.832031 L 10.929688 7.898438 C 10.75 7.96875 10.542969 7.882812 10.46875 7.703125 C 10.394531 7.519531 10.484375 7.3125 10.664062 7.242188 L 13.289062 6.175781 C 13.472656 6.101562 13.679688 6.191406 13.75 6.371094 Z M 13.75 6.371094 "/>
<path style=" stroke:none;fill-rule:nonzero;fill:rgb(100%,100%,100%);fill-opacity:0.160784;" d="M 9.28125 2.886719 C 9.476562 2.914062 9.609375 3.09375 9.585938 3.289062 L 9.191406 6.09375 C 9.167969 6.289062 8.988281 6.421875 8.792969 6.394531 C 8.601562 6.367188 8.464844 6.1875 8.492188 5.996094 L 8.882812 3.191406 C 8.910156 2.996094 9.089844 2.859375 9.28125 2.886719 Z M 9.28125 2.886719 "/>
<path style=" stroke:none;fill-rule:nonzero;fill:rgb(100%,100%,100%);fill-opacity:0.129412;" d="M 6.371094 3.25 C 6.550781 3.175781 6.757812 3.261719 6.832031 3.445312 L 7.898438 6.070312 C 7.96875 6.25 7.882812 6.457031 7.703125 6.53125 C 7.519531 6.605469 7.3125 6.515625 7.242188 6.335938 L 6.175781 3.710938 C 6.101562 3.527344 6.191406 3.320312 6.371094 3.25 Z M 6.371094 3.25 "/>
<path style=" stroke:none;fill-rule:nonzero;fill:rgb(100%,100%,100%);fill-opacity:1;" d="M 15.582031 14.167969 C 15.582031 14.949219 14.949219 15.585938 14.167969 15.585938 C 13.382812 15.585938 12.75 14.949219 12.75 14.167969 C 12.75 13.382812 13.382812 12.75 14.167969 12.75 C 14.949219 12.75 15.582031 13.382812 15.582031 14.167969 Z M 15.582031 14.167969 "/>
</g>
</svg>
