<?xml version="1.0" encoding="UTF-8"?>
<svg xmlns="http://www.w3.org/2000/svg" xmlns:xlink="http://www.w3.org/1999/xlink" width="17pt" height="17pt" viewBox="0 0 17 17" version="1.1">
<g id="surface1">
<path style=" stroke:none;fill-rule:nonzero;fill:rgb(100%,100%,100%);fill-opacity:1;" d="M 3.722656 11.546875 C 3.617188 11.382812 3.664062 11.164062 3.832031 11.058594 L 6.21875 9.535156 C 6.382812 9.429688 6.601562 9.476562 6.707031 9.644531 C 6.8125 9.808594 6.765625 10.027344 6.601562 10.132812 L 4.210938 11.65625 C 4.046875 11.761719 3.828125 11.710938 3.722656 11.546875 Z M 3.722656 11.546875 "/>
<path style=" stroke:none;fill-rule:nonzero;fill:rgb(100%,100%,100%);fill-opacity:0.576471;" d="M 11.546875 13.277344 C 11.382812 13.382812 11.164062 13.335938 11.058594 13.167969 L 9.535156 10.78125 C 9.429688 10.617188 9.476562 10.398438 9.644531 10.292969 C 9.808594 10.1875 10.027344 10.234375 10.132812 10.398438 L 11.65625 12.789062 C 11.761719 12.953125 11.710938 13.171875 11.546875 13.277344 Z M 11.546875 13.277344 "/>
<path style=" stroke:none;fill-rule:nonzero;fill:rgb(100%,100%,100%);fill-opacity:0.333333;" d="M 13.277344 5.453125 C 13.382812 5.617188 13.335938 5.835938 13.167969 5.941406 L 10.78125 7.464844 C 10.617188 7.570312 10.398438 7.523438 10.292969 7.355469 C 10.1875 7.191406 10.234375 6.972656 10.398438 6.867188 L 12.789062 5.34375 C 12.953125 5.238281 13.171875 5.289062 13.277344 5.453125 Z M 13.277344 5.453125 "/>
<path style=" stroke:none;fill-rule:nonzero;fill:rgb(100%,100%,100%);fill-opacity:0.188235;" d="M 5.453125 3.722656 C 5.617188 3.617188 5.835938 3.664062 5.941406 3.832031 L 7.464844 6.21875 C 7.570312 6.382812 7.523438 6.601562 7.355469 6.707031 C 7.191406 6.8125 6.972656 6.765625 6.867188 6.601562 L 5.34375 4.210938 C 5.238281 4.046875 5.289062 3.828125 5.453125 3.722656 Z M 5.453125 3.722656 "/>
<path style=" stroke:none;fill-rule:nonzero;fill:rgb(100%,100%,100%);fill-opacity:0.831373;" d="M 5.886719 13.527344 C 5.710938 13.4375 5.644531 13.222656 5.734375 13.050781 L 7.042969 10.535156 C 7.132812 10.363281 7.347656 10.296875 7.519531 10.386719 C 7.691406 10.476562 7.761719 10.691406 7.671875 10.863281 L 6.363281 13.375 C 6.273438 13.550781 6.058594 13.617188 5.886719 13.527344 Z M 5.886719 13.527344 "/>
<path style=" stroke:none;fill-rule:nonzero;fill:rgb(100%,100%,100%);fill-opacity:0.694118;" d="M 8.75 14.160156 C 8.554688 14.167969 8.390625 14.019531 8.378906 13.824219 L 8.253906 10.992188 C 8.246094 10.796875 8.398438 10.632812 8.59375 10.621094 C 8.789062 10.613281 8.953125 10.765625 8.964844 10.960938 L 9.089844 13.792969 C 9.097656 13.988281 8.945312 14.152344 8.75 14.160156 Z M 8.75 14.160156 "/>
<path style=" stroke:none;fill-rule:nonzero;fill:rgb(100%,100%,100%);fill-opacity:0.482353;" d="M 13.527344 11.113281 C 13.4375 11.289062 13.222656 11.355469 13.050781 11.265625 L 10.535156 9.957031 C 10.363281 9.867188 10.296875 9.652344 10.386719 9.480469 C 10.476562 9.308594 10.691406 9.238281 10.863281 9.328125 L 13.375 10.636719 C 13.550781 10.726562 13.617188 10.941406 13.527344 11.113281 Z M 13.527344 11.113281 "/>
<path style=" stroke:none;fill-rule:nonzero;fill:rgb(100%,100%,100%);fill-opacity:0.403922;" d="M 14.160156 8.25 C 14.167969 8.445312 14.019531 8.609375 13.824219 8.621094 L 10.992188 8.746094 C 10.796875 8.753906 10.632812 8.601562 10.621094 8.40625 C 10.613281 8.210938 10.765625 8.046875 10.960938 8.035156 L 13.792969 7.910156 C 13.988281 7.902344 14.152344 8.054688 14.160156 8.25 Z M 14.160156 8.25 "/>
<path style=" stroke:none;fill-rule:nonzero;fill:rgb(100%,100%,100%);fill-opacity:0.278431;" d="M 11.113281 3.472656 C 11.289062 3.5625 11.355469 3.777344 11.265625 3.949219 L 9.957031 6.464844 C 9.867188 6.636719 9.652344 6.703125 9.480469 6.613281 C 9.308594 6.523438 9.238281 6.308594 9.328125 6.136719 L 10.636719 3.625 C 10.726562 3.449219 10.941406 3.382812 11.113281 3.472656 Z M 11.113281 3.472656 "/>
<path style=" stroke:none;fill-rule:nonzero;fill:rgb(100%,100%,100%);fill-opacity:0.231373;" d="M 8.25 2.839844 C 8.445312 2.832031 8.609375 2.980469 8.621094 3.175781 L 8.746094 6.007812 C 8.753906 6.203125 8.601562 6.367188 8.40625 6.378906 C 8.210938 6.386719 8.046875 6.234375 8.035156 6.039062 L 7.910156 3.207031 C 7.902344 3.011719 8.054688 2.847656 8.25 2.839844 Z M 8.25 2.839844 "/>
<path style=" stroke:none;fill-rule:nonzero;fill:rgb(100%,100%,100%);fill-opacity:0.160784;" d="M 3.472656 5.886719 C 3.5625 5.710938 3.777344 5.644531 3.949219 5.734375 L 6.464844 7.042969 C 6.636719 7.132812 6.703125 7.347656 6.613281 7.519531 C 6.523438 7.691406 6.308594 7.761719 6.136719 7.671875 L 3.625 6.363281 C 3.449219 6.273438 3.382812 6.058594 3.472656 5.886719 Z M 3.472656 5.886719 "/>
<path style=" stroke:none;fill-rule:nonzero;fill:rgb(100%,100%,100%);fill-opacity:0.129412;" d="M 2.839844 8.75 C 2.832031 8.554688 2.980469 8.390625 3.175781 8.378906 L 6.007812 8.253906 C 6.203125 8.246094 6.367188 8.398438 6.378906 8.59375 C 6.386719 8.789062 6.234375 8.953125 6.039062 8.964844 L 3.207031 9.089844 C 3.011719 9.097656 2.847656 8.945312 2.839844 8.75 Z M 2.839844 8.75 "/>
<path style=" stroke:none;fill-rule:nonzero;fill:rgb(100%,100%,100%);fill-opacity:0.309804;" d="M 15.582031 14.167969 C 15.582031 14.949219 14.949219 15.585938 14.167969 15.585938 C 13.382812 15.585938 12.75 14.949219 12.75 14.167969 C 12.75 13.382812 13.382812 12.75 14.167969 12.75 C 14.949219 12.75 15.582031 13.382812 15.582031 14.167969 Z M 15.582031 14.167969 "/>
</g>
</svg>
