<?xml version="1.0" encoding="UTF-8"?>
<svg xmlns="http://www.w3.org/2000/svg" xmlns:xlink="http://www.w3.org/1999/xlink" width="17pt" height="17pt" viewBox="0 0 17 17" version="1.1">
<g id="surface1">
<path style=" stroke:none;fill-rule:nonzero;fill:rgb(100%,100%,100%);fill-opacity:1;" d="M 12.808594 4.820312 C 12.9375 4.96875 12.917969 5.191406 12.769531 5.320312 L 10.613281 7.160156 C 10.464844 7.285156 10.242188 7.269531 10.117188 7.121094 C 9.988281 6.972656 10.007812 6.746094 10.15625 6.621094 L 12.308594 4.78125 C 12.457031 4.652344 12.683594 4.671875 12.808594 4.820312 Z M 12.808594 4.820312 "/>
<path style=" stroke:none;fill-rule:nonzero;fill:rgb(100%,100%,100%);fill-opacity:0.576471;" d="M 4.820312 4.191406 C 4.96875 4.0625 5.191406 4.082031 5.320312 4.230469 L 7.160156 6.386719 C 7.285156 6.535156 7.269531 6.757812 7.121094 6.882812 C 6.972656 7.011719 6.746094 6.992188 6.621094 6.84375 L 4.78125 4.691406 C 4.652344 4.542969 4.671875 4.316406 4.820312 4.191406 Z M 4.820312 4.191406 "/>
<path style=" stroke:none;fill-rule:nonzero;fill:rgb(100%,100%,100%);fill-opacity:0.333333;" d="M 4.191406 12.179688 C 4.0625 12.03125 4.082031 11.808594 4.230469 11.679688 L 6.386719 9.839844 C 6.535156 9.714844 6.757812 9.730469 6.882812 9.878906 C 7.011719 10.027344 6.992188 10.253906 6.84375 10.378906 L 4.691406 12.21875 C 4.542969 12.347656 4.316406 12.328125 4.191406 12.179688 Z M 4.191406 12.179688 "/>
<path style=" stroke:none;fill-rule:nonzero;fill:rgb(100%,100%,100%);fill-opacity:0.188235;" d="M 12.179688 12.808594 C 12.03125 12.9375 11.808594 12.917969 11.679688 12.769531 L 9.839844 10.613281 C 9.714844 10.464844 9.730469 10.242188 9.878906 10.117188 C 10.027344 9.988281 10.253906 10.007812 10.378906 10.15625 L 12.21875 12.308594 C 12.347656 12.457031 12.328125 12.683594 12.179688 12.808594 Z M 12.179688 12.808594 "/>
<path style=" stroke:none;fill-rule:nonzero;fill:rgb(100%,100%,100%);fill-opacity:0.831373;" d="M 10.390625 3.160156 C 10.574219 3.222656 10.671875 3.425781 10.605469 3.609375 L 9.660156 6.28125 C 9.597656 6.464844 9.394531 6.5625 9.210938 6.496094 C 9.023438 6.429688 8.929688 6.230469 8.992188 6.042969 L 9.941406 3.375 C 10.003906 3.191406 10.207031 3.09375 10.390625 3.160156 Z M 10.390625 3.160156 "/>
<path style=" stroke:none;fill-rule:nonzero;fill:rgb(100%,100%,100%);fill-opacity:0.694118;" d="M 7.46875 2.929688 C 7.660156 2.890625 7.84375 3.019531 7.878906 3.210938 L 8.394531 5.996094 C 8.433594 6.191406 8.304688 6.375 8.113281 6.410156 C 7.921875 6.445312 7.734375 6.320312 7.699219 6.125 L 7.183594 3.339844 C 7.148438 3.148438 7.273438 2.964844 7.46875 2.929688 Z M 7.46875 2.929688 "/>
<path style=" stroke:none;fill-rule:nonzero;fill:rgb(100%,100%,100%);fill-opacity:0.482353;" d="M 3.160156 6.609375 C 3.222656 6.425781 3.425781 6.328125 3.609375 6.394531 L 6.28125 7.339844 C 6.464844 7.402344 6.5625 7.605469 6.496094 7.789062 C 6.429688 7.976562 6.230469 8.070312 6.042969 8.007812 L 3.375 7.058594 C 3.191406 6.996094 3.09375 6.792969 3.160156 6.609375 Z M 3.160156 6.609375 "/>
<path style=" stroke:none;fill-rule:nonzero;fill:rgb(100%,100%,100%);fill-opacity:0.403922;" d="M 2.929688 9.53125 C 2.890625 9.339844 3.019531 9.15625 3.210938 9.121094 L 5.996094 8.605469 C 6.191406 8.566406 6.375 8.695312 6.410156 8.886719 C 6.445312 9.078125 6.320312 9.265625 6.125 9.300781 L 3.339844 9.816406 C 3.148438 9.851562 2.964844 9.726562 2.929688 9.53125 Z M 2.929688 9.53125 "/>
<path style=" stroke:none;fill-rule:nonzero;fill:rgb(100%,100%,100%);fill-opacity:0.278431;" d="M 6.609375 13.839844 C 6.425781 13.777344 6.328125 13.574219 6.394531 13.390625 L 7.339844 10.71875 C 7.402344 10.535156 7.605469 10.4375 7.789062 10.503906 C 7.976562 10.570312 8.070312 10.769531 8.007812 10.957031 L 7.058594 13.625 C 6.996094 13.808594 6.792969 13.90625 6.609375 13.839844 Z M 6.609375 13.839844 "/>
<path style=" stroke:none;fill-rule:nonzero;fill:rgb(100%,100%,100%);fill-opacity:0.231373;" d="M 9.53125 14.070312 C 9.339844 14.109375 9.15625 13.980469 9.121094 13.789062 L 8.605469 11.003906 C 8.566406 10.808594 8.695312 10.625 8.886719 10.589844 C 9.078125 10.554688 9.265625 10.679688 9.300781 10.875 L 9.816406 13.660156 C 9.851562 13.851562 9.726562 14.035156 9.53125 14.070312 Z M 9.53125 14.070312 "/>
<path style=" stroke:none;fill-rule:nonzero;fill:rgb(100%,100%,100%);fill-opacity:0.160784;" d="M 13.839844 10.390625 C 13.777344 10.574219 13.574219 10.671875 13.390625 10.605469 L 10.71875 9.660156 C 10.535156 9.597656 10.4375 9.394531 10.503906 9.210938 C 10.570312 9.023438 10.769531 8.929688 10.957031 8.992188 L 13.625 9.941406 C 13.808594 10.003906 13.90625 10.207031 13.839844 10.390625 Z M 13.839844 10.390625 "/>
<path style=" stroke:none;fill-rule:nonzero;fill:rgb(100%,100%,100%);fill-opacity:0.129412;" d="M 14.070312 7.46875 C 14.109375 7.660156 13.980469 7.84375 13.789062 7.878906 L 11.003906 8.394531 C 10.808594 8.433594 10.625 8.304688 10.589844 8.113281 C 10.554688 7.921875 10.679688 7.734375 10.875 7.699219 L 13.660156 7.183594 C 13.851562 7.148438 14.035156 7.273438 14.070312 7.46875 Z M 14.070312 7.46875 "/>
<path style=" stroke:none;fill-rule:nonzero;fill:rgb(100%,100%,100%);fill-opacity:0.2;" d="M 14.875 9.917969 C 15.660156 9.917969 16.292969 10.5625 16.292969 11.355469 L 15.582031 11.332031 C 15.582031 10.9375 15.265625 10.625 14.875 10.625 C 14.484375 10.625 14.167969 10.9375 14.167969 11.332031 L 14.167969 12.75 L 16.292969 12.75 C 16.683594 12.75 17 13.066406 17 13.457031 L 17 15.582031 C 17 15.976562 16.683594 16.292969 16.292969 16.292969 L 13.457031 16.292969 C 13.066406 16.292969 12.75 15.976562 12.75 15.582031 L 12.75 13.457031 C 12.75 13.066406 13.066406 12.75 13.457031 12.75 L 13.457031 11.355469 C 13.457031 10.5625 14.089844 9.917969 14.875 9.917969 Z M 14.875 9.917969 "/>
</g>
</svg>
