<?xml version="1.0" encoding="UTF-8"?>
<svg xmlns="http://www.w3.org/2000/svg" xmlns:xlink="http://www.w3.org/1999/xlink" width="17pt" height="17pt" viewBox="0 0 17 17" version="1.1">
<g id="surface1">
<path style=" stroke:none;fill-rule:nonzero;fill:rgb(100%,100%,100%);fill-opacity:1;" d="M 14.011719 7.175781 C 14.054688 7.367188 13.9375 7.558594 13.75 7.605469 L 10.992188 8.265625 C 10.804688 8.3125 10.613281 8.195312 10.566406 8.003906 C 10.519531 7.8125 10.636719 7.621094 10.828125 7.578125 L 13.582031 6.914062 C 13.773438 6.871094 13.964844 6.988281 14.011719 7.175781 Z M 14.011719 7.175781 "/>
<path style=" stroke:none;fill-rule:nonzero;fill:rgb(100%,100%,100%);fill-opacity:0.576471;" d="M 7.175781 2.988281 C 7.367188 2.945312 7.558594 3.0625 7.605469 3.25 L 8.265625 6.007812 C 8.3125 6.195312 8.195312 6.386719 8.003906 6.433594 C 7.8125 6.480469 7.621094 6.363281 7.578125 6.171875 L 6.914062 3.417969 C 6.871094 3.226562 6.988281 3.035156 7.175781 2.988281 Z M 7.175781 2.988281 "/>
<path style=" stroke:none;fill-rule:nonzero;fill:rgb(100%,100%,100%);fill-opacity:0.333333;" d="M 2.988281 9.824219 C 2.945312 9.632812 3.0625 9.441406 3.25 9.394531 L 6.007812 8.734375 C 6.195312 8.6875 6.386719 8.804688 6.433594 8.996094 C 6.480469 9.1875 6.363281 9.378906 6.171875 9.421875 L 3.417969 10.085938 C 3.226562 10.128906 3.035156 10.011719 2.988281 9.824219 Z M 2.988281 9.824219 "/>
<path style=" stroke:none;fill-rule:nonzero;fill:rgb(100%,100%,100%);fill-opacity:0.188235;" d="M 9.824219 14.011719 C 9.632812 14.054688 9.441406 13.9375 9.394531 13.75 L 8.734375 10.992188 C 8.6875 10.804688 8.804688 10.613281 8.996094 10.566406 C 9.1875 10.519531 9.378906 10.636719 9.421875 10.828125 L 10.085938 13.582031 C 10.128906 13.773438 10.011719 13.964844 9.824219 14.011719 Z M 9.824219 14.011719 "/>
<path style=" stroke:none;fill-rule:nonzero;fill:rgb(100%,100%,100%);fill-opacity:0.831373;" d="M 12.609375 4.597656 C 12.746094 4.742188 12.738281 4.964844 12.597656 5.101562 L 10.542969 7.050781 C 10.398438 7.183594 10.175781 7.179688 10.042969 7.039062 C 9.90625 6.894531 9.914062 6.671875 10.054688 6.535156 L 12.109375 4.585938 C 12.25 4.453125 12.476562 4.457031 12.609375 4.597656 Z M 12.609375 4.597656 "/>
<path style=" stroke:none;fill-rule:nonzero;fill:rgb(100%,100%,100%);fill-opacity:0.694118;" d="M 10.109375 3.066406 C 10.296875 3.121094 10.402344 3.320312 10.347656 3.507812 L 9.542969 6.222656 C 9.488281 6.410156 9.292969 6.519531 9.105469 6.460938 C 8.914062 6.40625 8.808594 6.210938 8.863281 6.023438 L 9.667969 3.304688 C 9.726562 3.117188 9.921875 3.011719 10.109375 3.066406 Z M 10.109375 3.066406 "/>
<path style=" stroke:none;fill-rule:nonzero;fill:rgb(100%,100%,100%);fill-opacity:0.482353;" d="M 4.597656 4.390625 C 4.742188 4.253906 4.964844 4.261719 5.101562 4.402344 L 7.050781 6.457031 C 7.183594 6.601562 7.179688 6.824219 7.039062 6.957031 C 6.894531 7.09375 6.671875 7.085938 6.535156 6.945312 L 4.585938 4.890625 C 4.453125 4.75 4.457031 4.523438 4.597656 4.390625 Z M 4.597656 4.390625 "/>
<path style=" stroke:none;fill-rule:nonzero;fill:rgb(100%,100%,100%);fill-opacity:0.403922;" d="M 3.066406 6.890625 C 3.121094 6.703125 3.320312 6.597656 3.507812 6.652344 L 6.222656 7.457031 C 6.410156 7.511719 6.519531 7.707031 6.460938 7.894531 C 6.40625 8.085938 6.210938 8.191406 6.023438 8.136719 L 3.304688 7.332031 C 3.117188 7.273438 3.011719 7.078125 3.066406 6.890625 Z M 3.066406 6.890625 "/>
<path style=" stroke:none;fill-rule:nonzero;fill:rgb(100%,100%,100%);fill-opacity:0.278431;" d="M 4.390625 12.402344 C 4.253906 12.257812 4.261719 12.035156 4.402344 11.898438 L 6.457031 9.949219 C 6.601562 9.816406 6.824219 9.820312 6.957031 9.960938 C 7.09375 10.105469 7.085938 10.328125 6.945312 10.464844 L 4.890625 12.414062 C 4.75 12.546875 4.523438 12.542969 4.390625 12.402344 Z M 4.390625 12.402344 "/>
<path style=" stroke:none;fill-rule:nonzero;fill:rgb(100%,100%,100%);fill-opacity:0.231373;" d="M 6.890625 13.933594 C 6.703125 13.878906 6.597656 13.679688 6.652344 13.492188 L 7.457031 10.777344 C 7.511719 10.589844 7.707031 10.480469 7.894531 10.539062 C 8.085938 10.59375 8.191406 10.789062 8.136719 10.976562 L 7.332031 13.695312 C 7.273438 13.882812 7.078125 13.988281 6.890625 13.933594 Z M 6.890625 13.933594 "/>
<path style=" stroke:none;fill-rule:nonzero;fill:rgb(100%,100%,100%);fill-opacity:0.160784;" d="M 12.402344 12.609375 C 12.257812 12.746094 12.035156 12.738281 11.898438 12.597656 L 9.949219 10.542969 C 9.816406 10.398438 9.820312 10.175781 9.960938 10.042969 C 10.105469 9.90625 10.328125 9.914062 10.464844 10.054688 L 12.414062 12.109375 C 12.546875 12.25 12.542969 12.476562 12.402344 12.609375 Z M 12.402344 12.609375 "/>
<path style=" stroke:none;fill-rule:nonzero;fill:rgb(100%,100%,100%);fill-opacity:0.129412;" d="M 13.933594 10.109375 C 13.878906 10.296875 13.679688 10.402344 13.492188 10.347656 L 10.777344 9.542969 C 10.589844 9.488281 10.480469 9.292969 10.539062 9.105469 C 10.59375 8.914062 10.789062 8.808594 10.976562 8.863281 L 13.695312 9.667969 C 13.882812 9.726562 13.988281 9.921875 13.933594 10.109375 Z M 13.933594 10.109375 "/>
<path style=" stroke:none;fill-rule:nonzero;fill:rgb(100%,100%,100%);fill-opacity:0.25098;" d="M 14.875 9.917969 C 15.660156 9.917969 16.292969 10.5625 16.292969 11.355469 L 15.582031 11.332031 C 15.582031 10.9375 15.265625 10.625 14.875 10.625 C 14.484375 10.625 14.167969 10.9375 14.167969 11.332031 L 14.167969 12.75 L 16.292969 12.75 C 16.683594 12.75 17 13.066406 17 13.457031 L 17 15.582031 C 17 15.976562 16.683594 16.292969 16.292969 16.292969 L 13.457031 16.292969 C 13.066406 16.292969 12.75 15.976562 12.75 15.582031 L 12.75 13.457031 C 12.75 13.066406 13.066406 12.75 13.457031 12.75 L 13.457031 11.355469 C 13.457031 10.5625 14.089844 9.917969 14.875 9.917969 Z M 14.875 9.917969 "/>
</g>
</svg>
