<?xml version="1.0" encoding="UTF-8"?>
<svg xmlns="http://www.w3.org/2000/svg" xmlns:xlink="http://www.w3.org/1999/xlink" width="17pt" height="17pt" viewBox="0 0 17 17" version="1.1">
<g id="surface1">
<path style=" stroke:none;fill-rule:nonzero;fill:rgb(100%,100%,100%);fill-opacity:1;" d="M 3.027344 9.964844 C 2.976562 9.777344 3.089844 9.582031 3.277344 9.53125 L 6.011719 8.800781 C 6.203125 8.75 6.398438 8.859375 6.449219 9.050781 C 6.496094 9.238281 6.386719 9.433594 6.195312 9.484375 L 3.460938 10.21875 C 3.269531 10.269531 3.078125 10.15625 3.027344 9.964844 Z M 3.027344 9.964844 "/>
<path style=" stroke:none;fill-rule:nonzero;fill:rgb(100%,100%,100%);fill-opacity:0.576471;" d="M 9.964844 13.972656 C 9.777344 14.023438 9.582031 13.910156 9.53125 13.722656 L 8.800781 10.988281 C 8.75 10.796875 8.859375 10.601562 9.050781 10.550781 C 9.238281 10.503906 9.433594 10.613281 9.484375 10.804688 L 10.21875 13.539062 C 10.269531 13.730469 10.15625 13.921875 9.964844 13.972656 Z M 9.964844 13.972656 "/>
<path style=" stroke:none;fill-rule:nonzero;fill:rgb(100%,100%,100%);fill-opacity:0.333333;" d="M 13.972656 7.035156 C 14.023438 7.222656 13.910156 7.417969 13.722656 7.46875 L 10.988281 8.199219 C 10.796875 8.25 10.601562 8.140625 10.550781 7.949219 C 10.503906 7.761719 10.613281 7.566406 10.804688 7.515625 L 13.539062 6.78125 C 13.730469 6.730469 13.921875 6.84375 13.972656 7.035156 Z M 13.972656 7.035156 "/>
<path style=" stroke:none;fill-rule:nonzero;fill:rgb(100%,100%,100%);fill-opacity:0.188235;" d="M 7.035156 3.027344 C 7.222656 2.976562 7.417969 3.089844 7.46875 3.277344 L 8.199219 6.011719 C 8.25 6.203125 8.140625 6.398438 7.949219 6.449219 C 7.761719 6.496094 7.566406 6.386719 7.515625 6.195312 L 6.78125 3.460938 C 6.730469 3.269531 6.84375 3.078125 7.035156 3.027344 Z M 7.035156 3.027344 "/>
<path style=" stroke:none;fill-rule:nonzero;fill:rgb(100%,100%,100%);fill-opacity:0.831373;" d="M 4.492188 12.507812 C 4.355469 12.367188 4.355469 12.144531 4.492188 12.007812 L 6.496094 10.003906 C 6.636719 9.863281 6.859375 9.863281 6.996094 10.003906 C 7.136719 10.140625 7.136719 10.363281 6.996094 10.503906 L 4.992188 12.507812 C 4.855469 12.644531 4.632812 12.644531 4.492188 12.507812 Z M 4.492188 12.507812 "/>
<path style=" stroke:none;fill-rule:nonzero;fill:rgb(100%,100%,100%);fill-opacity:0.694118;" d="M 7.035156 13.972656 C 6.84375 13.921875 6.730469 13.730469 6.78125 13.539062 L 7.515625 10.804688 C 7.566406 10.613281 7.761719 10.503906 7.949219 10.550781 C 8.140625 10.601562 8.25 10.796875 8.199219 10.988281 L 7.46875 13.722656 C 7.417969 13.910156 7.222656 14.023438 7.035156 13.972656 Z M 7.035156 13.972656 "/>
<path style=" stroke:none;fill-rule:nonzero;fill:rgb(100%,100%,100%);fill-opacity:0.482353;" d="M 12.507812 12.507812 C 12.367188 12.644531 12.144531 12.644531 12.007812 12.507812 L 10.003906 10.503906 C 9.863281 10.363281 9.863281 10.140625 10.003906 10.003906 C 10.140625 9.863281 10.363281 9.863281 10.503906 10.003906 L 12.507812 12.007812 C 12.644531 12.144531 12.644531 12.367188 12.507812 12.507812 Z M 12.507812 12.507812 "/>
<path style=" stroke:none;fill-rule:nonzero;fill:rgb(100%,100%,100%);fill-opacity:0.403922;" d="M 13.972656 9.964844 C 13.921875 10.15625 13.730469 10.269531 13.539062 10.21875 L 10.804688 9.484375 C 10.613281 9.433594 10.503906 9.238281 10.550781 9.050781 C 10.601562 8.859375 10.796875 8.75 10.988281 8.800781 L 13.722656 9.53125 C 13.910156 9.582031 14.023438 9.777344 13.972656 9.964844 Z M 13.972656 9.964844 "/>
<path style=" stroke:none;fill-rule:nonzero;fill:rgb(100%,100%,100%);fill-opacity:0.278431;" d="M 12.507812 4.492188 C 12.644531 4.632812 12.644531 4.855469 12.507812 4.992188 L 10.503906 6.996094 C 10.363281 7.136719 10.140625 7.136719 10.003906 6.996094 C 9.863281 6.859375 9.863281 6.636719 10.003906 6.496094 L 12.007812 4.492188 C 12.144531 4.355469 12.367188 4.355469 12.507812 4.492188 Z M 12.507812 4.492188 "/>
<path style=" stroke:none;fill-rule:nonzero;fill:rgb(100%,100%,100%);fill-opacity:0.231373;" d="M 9.964844 3.027344 C 10.15625 3.078125 10.269531 3.269531 10.21875 3.460938 L 9.484375 6.195312 C 9.433594 6.386719 9.238281 6.496094 9.050781 6.449219 C 8.859375 6.398438 8.75 6.203125 8.800781 6.011719 L 9.53125 3.277344 C 9.582031 3.089844 9.777344 2.976562 9.964844 3.027344 Z M 9.964844 3.027344 "/>
<path style=" stroke:none;fill-rule:nonzero;fill:rgb(100%,100%,100%);fill-opacity:0.160784;" d="M 4.492188 4.492188 C 4.632812 4.355469 4.855469 4.355469 4.992188 4.492188 L 6.996094 6.496094 C 7.136719 6.636719 7.136719 6.859375 6.996094 6.996094 C 6.859375 7.136719 6.636719 7.136719 6.496094 6.996094 L 4.492188 4.992188 C 4.355469 4.855469 4.355469 4.632812 4.492188 4.492188 Z M 4.492188 4.492188 "/>
<path style=" stroke:none;fill-rule:nonzero;fill:rgb(100%,100%,100%);fill-opacity:0.129412;" d="M 3.027344 7.035156 C 3.078125 6.84375 3.269531 6.730469 3.460938 6.78125 L 6.195312 7.515625 C 6.386719 7.566406 6.496094 7.761719 6.449219 7.949219 C 6.398438 8.140625 6.203125 8.25 6.011719 8.199219 L 3.277344 7.46875 C 3.089844 7.417969 2.976562 7.222656 3.027344 7.035156 Z M 3.027344 7.035156 "/>
<path style=" stroke:none;fill-rule:nonzero;fill:rgb(100%,100%,100%);fill-opacity:0.2;" d="M 14.875 9.917969 C 15.660156 9.917969 16.292969 10.5625 16.292969 11.355469 L 15.582031 11.332031 C 15.582031 10.9375 15.265625 10.625 14.875 10.625 C 14.484375 10.625 14.167969 10.9375 14.167969 11.332031 L 14.167969 12.75 L 16.292969 12.75 C 16.683594 12.75 17 13.066406 17 13.457031 L 17 15.582031 C 17 15.976562 16.683594 16.292969 16.292969 16.292969 L 13.457031 16.292969 C 13.066406 16.292969 12.75 15.976562 12.75 15.582031 L 12.75 13.457031 C 12.75 13.066406 13.066406 12.75 13.457031 12.75 L 13.457031 11.355469 C 13.457031 10.5625 14.089844 9.917969 14.875 9.917969 Z M 14.875 9.917969 "/>
</g>
</svg>
