<?xml version="1.0" encoding="UTF-8"?>
<svg xmlns="http://www.w3.org/2000/svg" xmlns:xlink="http://www.w3.org/1999/xlink" width="17pt" height="17pt" viewBox="0 0 17 17" version="1.1">
<g id="surface1">
<path style=" stroke:none;fill-rule:nonzero;fill:rgb(100%,100%,100%);fill-opacity:1;" d="M 10.804688 3.324219 C 10.984375 3.402344 11.0625 3.613281 10.984375 3.789062 L 9.832031 6.378906 C 9.753906 6.558594 9.542969 6.636719 9.363281 6.558594 C 9.1875 6.480469 9.105469 6.269531 9.183594 6.089844 L 10.335938 3.503906 C 10.417969 3.324219 10.625 3.242188 10.804688 3.324219 Z M 10.804688 3.324219 "/>
<path style=" stroke:none;fill-rule:nonzero;fill:rgb(100%,100%,100%);fill-opacity:0.576471;" d="M 3.324219 6.195312 C 3.402344 6.015625 3.613281 5.9375 3.789062 6.015625 L 6.378906 7.167969 C 6.558594 7.246094 6.636719 7.457031 6.558594 7.636719 C 6.480469 7.8125 6.269531 7.894531 6.089844 7.816406 L 3.503906 6.664062 C 3.324219 6.582031 3.242188 6.375 3.324219 6.195312 Z M 3.324219 6.195312 "/>
<path style=" stroke:none;fill-rule:nonzero;fill:rgb(100%,100%,100%);fill-opacity:0.333333;" d="M 6.195312 13.675781 C 6.015625 13.597656 5.9375 13.386719 6.015625 13.210938 L 7.167969 10.621094 C 7.246094 10.441406 7.457031 10.363281 7.636719 10.441406 C 7.8125 10.519531 7.894531 10.730469 7.816406 10.910156 L 6.664062 13.496094 C 6.582031 13.675781 6.375 13.757812 6.195312 13.675781 Z M 6.195312 13.675781 "/>
<path style=" stroke:none;fill-rule:nonzero;fill:rgb(100%,100%,100%);fill-opacity:0.188235;" d="M 13.675781 10.804688 C 13.597656 10.984375 13.386719 11.0625 13.210938 10.984375 L 10.621094 9.832031 C 10.441406 9.753906 10.363281 9.542969 10.441406 9.363281 C 10.519531 9.1875 10.730469 9.105469 10.910156 9.183594 L 13.496094 10.335938 C 13.675781 10.417969 13.757812 10.625 13.675781 10.804688 Z M 13.675781 10.804688 "/>
<path style=" stroke:none;fill-rule:nonzero;fill:rgb(100%,100%,100%);fill-opacity:0.831373;" d="M 7.90625 2.863281 C 8.101562 2.84375 8.277344 2.984375 8.296875 3.179688 L 8.59375 5.996094 C 8.613281 6.191406 8.472656 6.367188 8.277344 6.386719 C 8.082031 6.40625 7.910156 6.265625 7.886719 6.070312 L 7.59375 3.253906 C 7.570312 3.058594 7.714844 2.886719 7.90625 2.863281 Z M 7.90625 2.863281 "/>
<path style=" stroke:none;fill-rule:nonzero;fill:rgb(100%,100%,100%);fill-opacity:0.694118;" d="M 5.167969 3.914062 C 5.328125 3.800781 5.550781 3.835938 5.664062 3.992188 L 7.328125 6.285156 C 7.445312 6.445312 7.410156 6.664062 7.25 6.78125 C 7.09375 6.894531 6.871094 6.859375 6.757812 6.703125 L 5.089844 4.410156 C 4.976562 4.253906 5.011719 4.03125 5.167969 3.914062 Z M 5.167969 3.914062 "/>
<path style=" stroke:none;fill-rule:nonzero;fill:rgb(100%,100%,100%);fill-opacity:0.482353;" d="M 2.863281 9.09375 C 2.84375 8.898438 2.984375 8.722656 3.179688 8.703125 L 5.996094 8.40625 C 6.191406 8.386719 6.367188 8.527344 6.386719 8.722656 C 6.40625 8.917969 6.265625 9.089844 6.070312 9.113281 L 3.253906 9.40625 C 3.058594 9.429688 2.886719 9.285156 2.863281 9.09375 Z M 2.863281 9.09375 "/>
<path style=" stroke:none;fill-rule:nonzero;fill:rgb(100%,100%,100%);fill-opacity:0.403922;" d="M 3.914062 11.832031 C 3.800781 11.671875 3.835938 11.449219 3.992188 11.335938 L 6.285156 9.671875 C 6.445312 9.554688 6.664062 9.589844 6.78125 9.75 C 6.894531 9.90625 6.859375 10.128906 6.703125 10.242188 L 4.410156 11.910156 C 4.253906 12.023438 4.03125 11.988281 3.914062 11.832031 Z M 3.914062 11.832031 "/>
<path style=" stroke:none;fill-rule:nonzero;fill:rgb(100%,100%,100%);fill-opacity:0.278431;" d="M 9.09375 14.136719 C 8.898438 14.15625 8.722656 14.015625 8.703125 13.820312 L 8.40625 11.003906 C 8.386719 10.808594 8.527344 10.632812 8.722656 10.613281 C 8.917969 10.59375 9.089844 10.734375 9.113281 10.929688 L 9.40625 13.746094 C 9.429688 13.941406 9.285156 14.113281 9.09375 14.136719 Z M 9.09375 14.136719 "/>
<path style=" stroke:none;fill-rule:nonzero;fill:rgb(100%,100%,100%);fill-opacity:0.231373;" d="M 11.832031 13.085938 C 11.671875 13.199219 11.449219 13.164062 11.335938 13.007812 L 9.671875 10.714844 C 9.554688 10.554688 9.589844 10.335938 9.75 10.21875 C 9.90625 10.105469 10.128906 10.140625 10.242188 10.296875 L 11.910156 12.589844 C 12.023438 12.746094 11.988281 12.96875 11.832031 13.085938 Z M 11.832031 13.085938 "/>
<path style=" stroke:none;fill-rule:nonzero;fill:rgb(100%,100%,100%);fill-opacity:0.160784;" d="M 14.136719 7.90625 C 14.15625 8.101562 14.015625 8.277344 13.820312 8.296875 L 11.003906 8.59375 C 10.808594 8.613281 10.632812 8.472656 10.613281 8.277344 C 10.59375 8.082031 10.734375 7.910156 10.929688 7.886719 L 13.746094 7.59375 C 13.941406 7.570312 14.113281 7.714844 14.136719 7.90625 Z M 14.136719 7.90625 "/>
<path style=" stroke:none;fill-rule:nonzero;fill:rgb(100%,100%,100%);fill-opacity:0.129412;" d="M 13.085938 5.167969 C 13.199219 5.328125 13.164062 5.550781 13.007812 5.664062 L 10.714844 7.328125 C 10.554688 7.445312 10.335938 7.410156 10.21875 7.25 C 10.105469 7.09375 10.140625 6.871094 10.296875 6.757812 L 12.589844 5.089844 C 12.746094 4.976562 12.96875 5.011719 13.085938 5.167969 Z M 13.085938 5.167969 "/>
<path style=" stroke:none;fill-rule:nonzero;fill:rgb(100%,100%,100%);fill-opacity:0.14902;" d="M 14.875 9.917969 C 15.660156 9.917969 16.292969 10.5625 16.292969 11.355469 L 15.582031 11.332031 C 15.582031 10.9375 15.265625 10.625 14.875 10.625 C 14.484375 10.625 14.167969 10.9375 14.167969 11.332031 L 14.167969 12.75 L 16.292969 12.75 C 16.683594 12.75 17 13.066406 17 13.457031 L 17 15.582031 C 17 15.976562 16.683594 16.292969 16.292969 16.292969 L 13.457031 16.292969 C 13.066406 16.292969 12.75 15.976562 12.75 15.582031 L 12.75 13.457031 C 12.75 13.066406 13.066406 12.75 13.457031 12.75 L 13.457031 11.355469 C 13.457031 10.5625 14.089844 9.917969 14.875 9.917969 Z M 14.875 9.917969 "/>
</g>
</svg>
