<?xml version="1.0" encoding="UTF-8"?>
<svg xmlns="http://www.w3.org/2000/svg" xmlns:xlink="http://www.w3.org/1999/xlink" width="17pt" height="17pt" viewBox="0 0 17 17" version="1.1">
<g id="surface1">
<path style=" stroke:none;fill-rule:nonzero;fill:rgb(100%,100%,100%);fill-opacity:1;" d="M 12.996094 11.949219 C 12.875 12.105469 12.652344 12.132812 12.5 12.015625 L 10.25 10.289062 C 10.097656 10.171875 10.066406 9.949219 10.1875 9.792969 C 10.304688 9.636719 10.527344 9.609375 10.683594 9.726562 L 12.929688 11.453125 C 13.085938 11.570312 13.113281 11.792969 12.996094 11.949219 Z M 12.996094 11.949219 "/>
<path style=" stroke:none;fill-rule:nonzero;fill:rgb(100%,100%,100%);fill-opacity:0.576471;" d="M 11.949219 4.003906 C 12.105469 4.125 12.132812 4.347656 12.015625 4.5 L 10.289062 6.75 C 10.171875 6.902344 9.949219 6.933594 9.792969 6.8125 C 9.636719 6.695312 9.609375 6.472656 9.726562 6.316406 L 11.453125 4.070312 C 11.570312 3.914062 11.792969 3.886719 11.949219 4.003906 Z M 11.949219 4.003906 "/>
<path style=" stroke:none;fill-rule:nonzero;fill:rgb(100%,100%,100%);fill-opacity:0.333333;" d="M 4.003906 5.050781 C 4.125 4.894531 4.347656 4.867188 4.5 4.984375 L 6.75 6.710938 C 6.902344 6.828125 6.933594 7.050781 6.8125 7.207031 C 6.695312 7.363281 6.472656 7.390625 6.316406 7.273438 L 4.070312 5.546875 C 3.914062 5.429688 3.886719 5.207031 4.003906 5.050781 Z M 4.003906 5.050781 "/>
<path style=" stroke:none;fill-rule:nonzero;fill:rgb(100%,100%,100%);fill-opacity:0.188235;" d="M 5.050781 12.996094 C 4.894531 12.875 4.867188 12.652344 4.984375 12.5 L 6.710938 10.25 C 6.828125 10.097656 7.050781 10.066406 7.207031 10.1875 C 7.363281 10.304688 7.390625 10.527344 7.273438 10.683594 L 5.546875 12.929688 C 5.429688 13.085938 5.207031 13.113281 5.050781 12.996094 Z M 5.050781 12.996094 "/>
<path style=" stroke:none;fill-rule:nonzero;fill:rgb(100%,100%,100%);fill-opacity:0.831373;" d="M 14.117188 9.238281 C 14.09375 9.433594 13.914062 9.570312 13.722656 9.542969 L 10.910156 9.175781 C 10.71875 9.148438 10.582031 8.972656 10.605469 8.777344 C 10.632812 8.582031 10.808594 8.445312 11.003906 8.472656 L 13.8125 8.84375 C 14.007812 8.867188 14.144531 9.046875 14.117188 9.238281 Z M 14.117188 9.238281 "/>
<path style=" stroke:none;fill-rule:nonzero;fill:rgb(100%,100%,100%);fill-opacity:0.694118;" d="M 13.734375 6.332031 C 13.808594 6.511719 13.722656 6.71875 13.542969 6.792969 L 10.925781 7.878906 C 10.746094 7.953125 10.539062 7.867188 10.464844 7.6875 C 10.386719 7.507812 10.472656 7.300781 10.65625 7.222656 L 13.273438 6.140625 C 13.453125 6.066406 13.660156 6.152344 13.734375 6.332031 Z M 13.734375 6.332031 "/>
<path style=" stroke:none;fill-rule:nonzero;fill:rgb(100%,100%,100%);fill-opacity:0.482353;" d="M 9.238281 2.882812 C 9.433594 2.90625 9.570312 3.085938 9.542969 3.277344 L 9.175781 6.089844 C 9.148438 6.28125 8.972656 6.417969 8.777344 6.394531 C 8.582031 6.367188 8.445312 6.191406 8.472656 5.996094 L 8.84375 3.1875 C 8.867188 2.992188 9.046875 2.855469 9.238281 2.882812 Z M 9.238281 2.882812 "/>
<path style=" stroke:none;fill-rule:nonzero;fill:rgb(100%,100%,100%);fill-opacity:0.403922;" d="M 6.332031 3.265625 C 6.511719 3.191406 6.71875 3.277344 6.792969 3.457031 L 7.878906 6.074219 C 7.953125 6.253906 7.867188 6.460938 7.6875 6.535156 C 7.507812 6.613281 7.300781 6.527344 7.222656 6.34375 L 6.140625 3.726562 C 6.066406 3.546875 6.152344 3.339844 6.332031 3.265625 Z M 6.332031 3.265625 "/>
<path style=" stroke:none;fill-rule:nonzero;fill:rgb(100%,100%,100%);fill-opacity:0.278431;" d="M 2.882812 7.761719 C 2.90625 7.566406 3.085938 7.429688 3.277344 7.457031 L 6.089844 7.824219 C 6.28125 7.851562 6.417969 8.027344 6.394531 8.222656 C 6.367188 8.417969 6.191406 8.554688 5.996094 8.527344 L 3.1875 8.15625 C 2.992188 8.132812 2.855469 7.953125 2.882812 7.761719 Z M 2.882812 7.761719 "/>
<path style=" stroke:none;fill-rule:nonzero;fill:rgb(100%,100%,100%);fill-opacity:0.231373;" d="M 3.265625 10.667969 C 3.191406 10.488281 3.277344 10.28125 3.457031 10.207031 L 6.074219 9.121094 C 6.253906 9.046875 6.460938 9.132812 6.535156 9.3125 C 6.613281 9.492188 6.527344 9.699219 6.34375 9.777344 L 3.726562 10.859375 C 3.546875 10.933594 3.339844 10.847656 3.265625 10.667969 Z M 3.265625 10.667969 "/>
<path style=" stroke:none;fill-rule:nonzero;fill:rgb(100%,100%,100%);fill-opacity:0.160784;" d="M 7.761719 14.117188 C 7.566406 14.09375 7.429688 13.914062 7.457031 13.722656 L 7.824219 10.910156 C 7.851562 10.71875 8.027344 10.582031 8.222656 10.605469 C 8.417969 10.632812 8.554688 10.808594 8.527344 11.003906 L 8.15625 13.8125 C 8.132812 14.007812 7.953125 14.144531 7.761719 14.117188 Z M 7.761719 14.117188 "/>
<path style=" stroke:none;fill-rule:nonzero;fill:rgb(100%,100%,100%);fill-opacity:0.129412;" d="M 10.667969 13.734375 C 10.488281 13.808594 10.28125 13.722656 10.207031 13.542969 L 9.121094 10.925781 C 9.046875 10.746094 9.132812 10.539062 9.3125 10.464844 C 9.492188 10.386719 9.699219 10.472656 9.777344 10.65625 L 10.859375 13.273438 C 10.933594 13.453125 10.847656 13.660156 10.667969 13.734375 Z M 10.667969 13.734375 "/>
<path style=" stroke:none;fill-rule:nonzero;fill:rgb(100%,100%,100%);fill-opacity:0.34902;" d="M 14.875 9.917969 C 15.660156 9.917969 16.292969 10.5625 16.292969 11.355469 L 15.582031 11.332031 C 15.582031 10.9375 15.265625 10.625 14.875 10.625 C 14.484375 10.625 14.167969 10.9375 14.167969 11.332031 L 14.167969 12.75 L 16.292969 12.75 C 16.683594 12.75 17 13.066406 17 13.457031 L 17 15.582031 C 17 15.976562 16.683594 16.292969 16.292969 16.292969 L 13.457031 16.292969 C 13.066406 16.292969 12.75 15.976562 12.75 15.582031 L 12.75 13.457031 C 12.75 13.066406 13.066406 12.75 13.457031 12.75 L 13.457031 11.355469 C 13.457031 10.5625 14.089844 9.917969 14.875 9.917969 Z M 14.875 9.917969 "/>
</g>
</svg>
