<?xml version="1.0" encoding="UTF-8"?>
<svg xmlns="http://www.w3.org/2000/svg" xmlns:xlink="http://www.w3.org/1999/xlink" width="19pt" height="19pt" viewBox="0 0 19 19" version="1.1">
<defs>
<linearGradient id="linear0" gradientUnits="userSpaceOnUse" x1="0" y1="6.132" x2="0" y2="90.24" gradientTransform="matrix(0.202629,0,0,-0.200272,-0.226219,19.409688)">
<stop offset="0" style="stop-color:rgb(0%,0%,0%);stop-opacity:0.0784314;"/>
<stop offset="1" style="stop-color:rgb(0%,0%,0%);stop-opacity:0.0470588;"/>
</linearGradient>
<linearGradient id="linear1" gradientUnits="userSpaceOnUse" x1="0" y1="6.132" x2="0" y2="90.24" gradientTransform="matrix(0.202629,0,0,-0.200272,-0.226219,19.409688)">
<stop offset="0" style="stop-color:rgb(0%,0%,0%);stop-opacity:0.101961;"/>
<stop offset="1" style="stop-color:rgb(0%,0%,0%);stop-opacity:0.0588235;"/>
</linearGradient>
<linearGradient id="linear2" gradientUnits="userSpaceOnUse" x1="0" y1="6.132" x2="0" y2="90.24" gradientTransform="matrix(0.202629,0,0,-0.200272,-0.226219,19.409688)">
<stop offset="0" style="stop-color:rgb(0%,0%,0%);stop-opacity:0.2;"/>
<stop offset="1" style="stop-color:rgb(0%,0%,0%);stop-opacity:0.117647;"/>
</linearGradient>
<linearGradient id="linear3" gradientUnits="userSpaceOnUse" x1="0" y1="6.132" x2="0" y2="90.24" gradientTransform="matrix(0.202629,0,0,-0.200272,-0.226219,19.409688)">
<stop offset="0" style="stop-color:rgb(0%,0%,0%);stop-opacity:0.298039;"/>
<stop offset="1" style="stop-color:rgb(0%,0%,0%);stop-opacity:0.176471;"/>
</linearGradient>
<linearGradient id="linear4" gradientUnits="userSpaceOnUse" x1="0" y1="6.132" x2="0" y2="90.24" gradientTransform="matrix(0.197917,0,0,-0.197917,0,19.197917)">
<stop offset="0" style="stop-color:rgb(0%,0%,0%);stop-opacity:0.45098;"/>
<stop offset="1" style="stop-color:rgb(0%,0%,0%);stop-opacity:0.266667;"/>
</linearGradient>
<linearGradient id="linear5" gradientUnits="userSpaceOnUse" x1="0" y1="90" x2="0" y2="5.988" gradientTransform="matrix(0.197917,0,0,0.197917,0,0)">
<stop offset="0" style="stop-color:rgb(66.27451%,4.705882%,4.705882%);stop-opacity:1;"/>
<stop offset="1" style="stop-color:rgb(94.117647%,33.333333%,18.823529%);stop-opacity:1;"/>
</linearGradient>
<linearGradient id="linear6" gradientUnits="userSpaceOnUse" x1="0" y1="6" x2="0" y2="63.893" gradientTransform="matrix(0.197917,0,0,0.197917,0,0)">
<stop offset="0" style="stop-color:rgb(100%,100%,100%);stop-opacity:0.4;"/>
<stop offset="1" style="stop-color:rgb(100%,100%,100%);stop-opacity:0;"/>
</linearGradient>
<radialGradient id="radial0" gradientUnits="userSpaceOnUse" cx="48" cy="90.17" fx="48" fy="90.17" r="42" gradientTransform="matrix(0.229051,0,0,0.197107,-1.494469,0.0389895)">
<stop offset="0" style="stop-color:rgb(100%,100%,100%);stop-opacity:0.2;"/>
<stop offset="1" style="stop-color:rgb(100%,100%,100%);stop-opacity:0;"/>
</radialGradient>
<linearGradient id="linear7" gradientUnits="userSpaceOnUse" x1="0" y1="16.385" x2="0" y2="1.092" gradientTransform="matrix(-0.891771,0,0,0.768766,16.056979,2.782708)">
<stop offset="0" style="stop-color:rgb(86.27451%,86.27451%,86.27451%);stop-opacity:1;"/>
<stop offset="0.307" style="stop-color:rgb(92.156863%,92.156863%,92.156863%);stop-opacity:1;"/>
<stop offset="0.707" style="stop-color:rgb(100%,100%,100%);stop-opacity:1;"/>
<stop offset="0.845" style="stop-color:rgb(98.039216%,98.039216%,98.039216%);stop-opacity:1;"/>
<stop offset="1" style="stop-color:rgb(94.117647%,94.117647%,94.117647%);stop-opacity:1;"/>
</linearGradient>
</defs>
<g id="surface1">
<path style=" stroke:none;fill-rule:nonzero;fill:url(#linear0);" d="M 2.375 18.808594 C 1.285156 18.808594 0.390625 17.914062 0.390625 16.824219 L 0.390625 2.769531 C 0.390625 1.679688 1.285156 0.785156 2.375 0.785156 L 16.625 0.785156 C 17.714844 0.785156 18.609375 1.679688 18.609375 2.769531 L 18.609375 16.824219 C 18.609375 17.914062 17.714844 18.808594 16.625 18.808594 Z M 2.375 18.808594 "/>
<path style=" stroke:none;fill-rule:nonzero;fill:url(#linear1);" d="M 2.375 18.609375 C 1.390625 18.609375 0.585938 17.804688 0.585938 16.824219 L 0.585938 2.769531 C 0.585938 1.789062 1.390625 0.984375 2.375 0.984375 L 16.625 0.984375 C 17.609375 0.984375 18.414062 1.789062 18.414062 2.769531 L 18.414062 16.824219 C 18.414062 17.804688 17.609375 18.609375 16.625 18.609375 Z M 2.375 18.609375 "/>
<path style=" stroke:none;fill-rule:nonzero;fill:url(#linear2);" d="M 2.375 18.40625 C 1.5 18.40625 0.792969 17.695312 0.792969 16.824219 L 0.792969 2.769531 C 0.792969 1.898438 1.5 1.1875 2.375 1.1875 L 16.625 1.1875 C 17.5 1.1875 18.207031 1.898438 18.207031 2.769531 L 18.207031 16.824219 C 18.207031 17.695312 17.5 18.40625 16.625 18.40625 Z M 2.375 18.40625 "/>
<path style=" stroke:none;fill-rule:nonzero;fill:url(#linear3);" d="M 2.375 18.207031 L 16.625 18.207031 C 17.390625 18.207031 18.011719 17.585938 18.011719 16.824219 L 18.011719 2.769531 C 18.011719 2.007812 17.390625 1.386719 16.625 1.386719 L 2.375 1.386719 C 1.609375 1.386719 0.988281 2.007812 0.988281 2.769531 L 0.988281 16.824219 C 0.988281 17.585938 1.609375 18.207031 2.375 18.207031 Z M 2.375 18.207031 "/>
<path style=" stroke:none;fill-rule:nonzero;fill:url(#linear4);" d="M 2.375 18.011719 L 16.625 18.011719 C 17.28125 18.011719 17.8125 17.476562 17.8125 16.824219 L 17.8125 2.574219 C 17.8125 1.917969 17.28125 1.386719 16.625 1.386719 L 2.375 1.386719 C 1.71875 1.386719 1.1875 1.917969 1.1875 2.574219 L 1.1875 16.824219 C 1.1875 17.476562 1.71875 18.011719 2.375 18.011719 Z M 2.375 18.011719 "/>
<path style=" stroke:none;fill-rule:nonzero;fill:url(#linear5);" d="M 2.375 1.1875 L 16.625 1.1875 C 17.28125 1.1875 17.8125 1.71875 17.8125 2.375 L 17.8125 16.625 C 17.8125 17.28125 17.28125 17.8125 16.625 17.8125 L 2.375 17.8125 C 1.71875 17.8125 1.1875 17.28125 1.1875 16.625 L 1.1875 2.375 C 1.1875 1.71875 1.71875 1.1875 2.375 1.1875 Z M 2.375 1.1875 "/>
<path style=" stroke:none;fill-rule:nonzero;fill:url(#linear6);" d="M 2.375 1.1875 C 1.71875 1.1875 1.1875 1.71875 1.1875 2.375 L 1.1875 16.625 C 1.1875 16.691406 1.195312 16.753906 1.207031 16.816406 C 1.214844 16.875 1.226562 16.933594 1.242188 16.992188 C 1.246094 16.996094 1.246094 17.003906 1.25 17.007812 C 1.269531 17.066406 1.296875 17.117188 1.324219 17.167969 C 1.351562 17.222656 1.386719 17.273438 1.421875 17.324219 C 1.460938 17.371094 1.496094 17.417969 1.539062 17.460938 C 1.625 17.546875 1.726562 17.621094 1.835938 17.675781 C 1.890625 17.703125 1.949219 17.726562 2.007812 17.742188 C 1.960938 17.726562 1.914062 17.695312 1.867188 17.671875 C 1.867188 17.667969 1.863281 17.671875 1.859375 17.671875 C 1.855469 17.664062 1.851562 17.664062 1.84375 17.65625 C 1.820312 17.640625 1.796875 17.625 1.773438 17.609375 C 1.753906 17.59375 1.734375 17.578125 1.710938 17.558594 C 1.679688 17.527344 1.644531 17.492188 1.613281 17.453125 C 1.59375 17.429688 1.570312 17.402344 1.554688 17.375 C 1.546875 17.367188 1.546875 17.355469 1.539062 17.347656 C 1.527344 17.328125 1.515625 17.308594 1.503906 17.289062 C 1.484375 17.25 1.460938 17.203125 1.445312 17.164062 C 1.445312 17.160156 1.441406 17.15625 1.441406 17.148438 C 1.433594 17.132812 1.433594 17.113281 1.429688 17.09375 C 1.421875 17.074219 1.414062 17.054688 1.410156 17.03125 C 1.394531 16.964844 1.386719 16.894531 1.386719 16.824219 L 1.386719 2.574219 C 1.386719 2.023438 1.824219 1.582031 2.375 1.582031 L 16.625 1.582031 C 17.175781 1.582031 17.613281 2.023438 17.613281 2.574219 L 17.613281 16.824219 C 17.613281 16.894531 17.605469 16.964844 17.589844 17.03125 C 17.582031 17.074219 17.570312 17.113281 17.558594 17.148438 C 17.558594 17.15625 17.554688 17.160156 17.554688 17.164062 C 17.539062 17.195312 17.523438 17.234375 17.507812 17.269531 C 17.5 17.285156 17.492188 17.300781 17.484375 17.316406 C 17.472656 17.335938 17.460938 17.355469 17.445312 17.375 C 17.429688 17.402344 17.40625 17.429688 17.386719 17.453125 C 17.359375 17.488281 17.328125 17.523438 17.292969 17.554688 C 17.289062 17.554688 17.289062 17.554688 17.289062 17.558594 C 17.257812 17.585938 17.230469 17.605469 17.199219 17.625 C 17.179688 17.640625 17.160156 17.65625 17.140625 17.671875 C 17.136719 17.671875 17.132812 17.667969 17.132812 17.671875 C 17.085938 17.695312 17.039062 17.726562 16.992188 17.742188 C 17.050781 17.726562 17.109375 17.703125 17.164062 17.675781 C 17.273438 17.621094 17.375 17.546875 17.460938 17.460938 C 17.503906 17.417969 17.539062 17.371094 17.578125 17.324219 C 17.613281 17.273438 17.648438 17.222656 17.675781 17.167969 C 17.703125 17.117188 17.730469 17.066406 17.75 17.007812 C 17.753906 17 17.753906 16.996094 17.757812 16.992188 C 17.773438 16.933594 17.785156 16.875 17.792969 16.816406 C 17.804688 16.753906 17.8125 16.691406 17.8125 16.625 L 17.8125 2.375 C 17.8125 1.71875 17.28125 1.1875 16.625 1.1875 Z M 2.375 1.1875 "/>
<path style=" stroke:none;fill-rule:nonzero;fill:url(#radial0);" d="M 2.375 17.8125 C 1.71875 17.8125 1.1875 17.28125 1.1875 16.625 L 1.1875 2.375 C 1.1875 2.308594 1.195312 2.246094 1.207031 2.183594 C 1.214844 2.125 1.226562 2.066406 1.242188 2.007812 C 1.246094 2.003906 1.246094 1.996094 1.25 1.992188 C 1.269531 1.933594 1.296875 1.882812 1.324219 1.832031 C 1.351562 1.777344 1.386719 1.726562 1.421875 1.675781 C 1.460938 1.628906 1.496094 1.582031 1.539062 1.539062 C 1.625 1.453125 1.726562 1.378906 1.835938 1.324219 C 1.890625 1.296875 1.949219 1.273438 2.007812 1.257812 C 1.960938 1.273438 1.914062 1.304688 1.867188 1.328125 C 1.867188 1.332031 1.863281 1.328125 1.859375 1.328125 C 1.855469 1.335938 1.851562 1.335938 1.84375 1.34375 C 1.820312 1.359375 1.796875 1.375 1.773438 1.390625 C 1.753906 1.40625 1.734375 1.421875 1.710938 1.441406 C 1.679688 1.472656 1.644531 1.507812 1.613281 1.546875 C 1.59375 1.570312 1.570312 1.597656 1.554688 1.625 C 1.546875 1.632812 1.546875 1.644531 1.539062 1.652344 C 1.527344 1.671875 1.515625 1.691406 1.503906 1.710938 C 1.484375 1.75 1.460938 1.796875 1.445312 1.835938 C 1.445312 1.839844 1.441406 1.84375 1.441406 1.851562 C 1.433594 1.867188 1.433594 1.886719 1.429688 1.90625 C 1.421875 1.925781 1.414062 1.945312 1.410156 1.96875 C 1.394531 2.035156 1.386719 2.105469 1.386719 2.175781 L 1.386719 16.425781 C 1.386719 16.976562 1.824219 17.417969 2.375 17.417969 L 16.625 17.417969 C 17.175781 17.417969 17.613281 16.976562 17.613281 16.425781 L 17.613281 2.175781 C 17.613281 2.105469 17.605469 2.035156 17.589844 1.96875 C 17.582031 1.925781 17.570312 1.886719 17.558594 1.851562 C 17.558594 1.84375 17.554688 1.839844 17.554688 1.835938 C 17.539062 1.804688 17.523438 1.765625 17.507812 1.730469 C 17.5 1.714844 17.492188 1.699219 17.484375 1.683594 C 17.472656 1.664062 17.460938 1.644531 17.445312 1.625 C 17.429688 1.597656 17.40625 1.570312 17.386719 1.546875 C 17.359375 1.511719 17.328125 1.476562 17.292969 1.445312 C 17.289062 1.445312 17.289062 1.445312 17.289062 1.441406 C 17.257812 1.414062 17.230469 1.394531 17.199219 1.375 C 17.179688 1.359375 17.160156 1.34375 17.140625 1.328125 C 17.136719 1.328125 17.132812 1.332031 17.132812 1.328125 C 17.085938 1.304688 17.039062 1.273438 16.992188 1.257812 C 17.050781 1.273438 17.109375 1.296875 17.164062 1.324219 C 17.273438 1.378906 17.375 1.453125 17.460938 1.539062 C 17.503906 1.582031 17.539062 1.628906 17.578125 1.675781 C 17.613281 1.726562 17.648438 1.777344 17.675781 1.832031 C 17.703125 1.882812 17.730469 1.933594 17.75 1.992188 C 17.753906 2 17.753906 2.003906 17.757812 2.007812 C 17.773438 2.066406 17.785156 2.125 17.792969 2.183594 C 17.804688 2.246094 17.8125 2.308594 17.8125 2.375 L 17.8125 16.625 C 17.8125 17.28125 17.28125 17.8125 16.625 17.8125 Z M 2.375 17.8125 "/>
<path style=" stroke:none;fill-rule:nonzero;fill:rgb(33.333333%,0%,0%);fill-opacity:0.0784314;" d="M 8.40625 3.425781 C 8 3.5 8.039062 3.996094 7.914062 4.296875 C 7.695312 5.078125 7.476562 5.851562 7.253906 6.628906 C 6.035156 6.4375 4.8125 6.203125 3.59375 6.035156 C 3.222656 6.039062 3.101562 6.574219 3.398438 6.769531 C 4.109375 7.476562 4.820312 8.1875 5.53125 8.894531 C 4.601562 9.277344 3.652344 9.628906 2.734375 10.03125 C 2.402344 10.238281 2.609375 10.785156 2.988281 10.761719 C 3.882812 10.910156 4.777344 11.058594 5.671875 11.207031 C 4.871094 12.179688 4.03125 13.132812 3.253906 14.121094 C 3.101562 14.453125 3.5 14.792969 3.8125 14.632812 C 4.953125 14.308594 6.09375 13.984375 7.230469 13.664062 C 7.445312 14.367188 7.617188 15.089844 7.855469 15.785156 C 8.019531 16.0625 8.429688 16 8.585938 15.746094 C 9.128906 15.203125 9.671875 14.65625 10.21875 14.113281 C 11.242188 14.722656 12.269531 15.359375 13.296875 15.953125 C 13.628906 16.078125 13.933594 15.679688 13.78125 15.375 C 13.5625 14.34375 13.34375 13.3125 13.125 12.28125 C 14.132812 12.195312 15.144531 12.140625 16.148438 12.035156 C 16.507812 11.933594 16.5 11.40625 16.167969 11.273438 C 15.414062 10.730469 14.65625 10.1875 13.898438 9.648438 C 14.429688 9.3125 15.011719 9.003906 15.511719 8.660156 C 15.773438 8.394531 15.507812 7.941406 15.152344 7.984375 C 14.683594 7.929688 14.21875 7.875 13.75 7.824219 C 14.414062 6.75 15.101562 5.683594 15.753906 4.601562 C 15.882812 4.25 15.4375 3.929688 15.140625 4.144531 C 13.632812 4.835938 12.121094 5.523438 10.613281 6.214844 C 9.984375 5.324219 9.375 4.410156 8.734375 3.53125 C 8.648438 3.441406 8.523438 3.417969 8.40625 3.425781 Z M 9.105469 8.113281 C 9.367188 8.113281 9.632812 8.113281 9.894531 8.113281 C 9.894531 8.773438 9.894531 9.433594 9.894531 10.09375 C 9.632812 10.09375 9.367188 10.09375 9.105469 10.09375 C 9.105469 9.433594 9.105469 8.773438 9.105469 8.113281 Z M 9.105469 11.28125 C 9.367188 11.28125 9.632812 11.28125 9.894531 11.28125 C 9.894531 11.546875 9.894531 11.808594 9.894531 12.074219 C 9.632812 12.074219 9.367188 12.074219 9.105469 12.074219 C 9.105469 11.808594 9.105469 11.546875 9.105469 11.28125 Z M 9.105469 11.28125 "/>
<path style=" stroke:none;fill-rule:nonzero;fill:rgb(33.333333%,0%,0%);fill-opacity:0.14902;" d="M 8.4375 3.632812 C 8.359375 3.640625 8.296875 3.695312 8.273438 3.773438 L 7.402344 6.867188 L 3.65625 6.242188 C 3.570312 6.226562 3.492188 6.269531 3.453125 6.34375 C 3.414062 6.417969 3.429688 6.507812 3.488281 6.570312 L 5.886719 8.96875 L 2.894531 10.171875 C 2.8125 10.207031 2.761719 10.289062 2.773438 10.375 C 2.78125 10.464844 2.851562 10.53125 2.9375 10.546875 L 6.054688 11.058594 L 3.476562 14.144531 C 3.421875 14.210938 3.414062 14.304688 3.460938 14.375 C 3.507812 14.449219 3.597656 14.480469 3.679688 14.453125 L 7.371094 13.410156 L 8.007812 15.628906 C 8.03125 15.695312 8.082031 15.742188 8.148438 15.761719 C 8.210938 15.777344 8.28125 15.757812 8.332031 15.710938 L 10.1875 13.859375 L 13.320312 15.742188 C 13.390625 15.78125 13.472656 15.773438 13.53125 15.726562 C 13.59375 15.683594 13.625 15.605469 13.605469 15.53125 L 12.875 12.097656 L 16.042969 11.851562 C 16.125 11.84375 16.191406 11.789062 16.210938 11.710938 C 16.234375 11.632812 16.207031 11.550781 16.140625 11.503906 L 13.527344 9.636719 L 15.3125 8.558594 C 15.386719 8.519531 15.421875 8.4375 15.40625 8.351562 C 15.390625 8.273438 15.320312 8.210938 15.238281 8.203125 L 13.402344 7.992188 L 15.535156 4.578125 C 15.582031 4.503906 15.574219 4.414062 15.519531 4.347656 C 15.460938 4.285156 15.375 4.265625 15.296875 4.296875 L 10.546875 6.476562 L 8.621094 3.710938 C 8.578125 3.652344 8.507812 3.621094 8.4375 3.632812 Z M 8.90625 7.910156 L 10.09375 7.910156 C 10.101562 7.910156 10.101562 7.910156 10.101562 7.917969 L 10.101562 10.292969 C 10.101562 10.296875 10.101562 10.296875 10.09375 10.296875 L 8.90625 10.296875 C 8.898438 10.296875 8.898438 10.296875 8.898438 10.292969 L 8.898438 7.917969 C 8.898438 7.910156 8.898438 7.910156 8.90625 7.910156 Z M 8.90625 11.078125 L 10.09375 11.078125 C 10.101562 11.078125 10.101562 11.078125 10.101562 11.082031 L 10.101562 12.269531 C 10.101562 12.277344 10.101562 12.277344 10.09375 12.277344 L 8.90625 12.277344 C 8.898438 12.277344 8.898438 12.277344 8.898438 12.269531 L 8.898438 11.082031 C 8.898438 11.078125 8.898438 11.078125 8.90625 11.078125 Z M 8.90625 11.078125 "/>
<path style=" stroke:none;fill-rule:nonzero;fill:rgb(33.333333%,0%,0%);fill-opacity:0.298039;" d="M 8.460938 3.820312 L 7.539062 7.085938 L 3.625 6.433594 L 6.234375 9.042969 L 2.96875 10.351562 L 6.421875 10.921875 L 3.625 14.269531 L 7.5 13.167969 L 8.195312 15.574219 L 10.15625 13.617188 L 13.421875 15.574219 L 12.640625 11.925781 L 16.03125 11.65625 L 13.171875 9.617188 L 15.214844 8.390625 L 13.074219 8.144531 L 15.375 4.472656 L 10.476562 6.71875 Z M 8.90625 7.71875 L 10.09375 7.71875 C 10.203125 7.71875 10.292969 7.804688 10.292969 7.917969 L 10.292969 10.292969 C 10.292969 10.402344 10.203125 10.488281 10.09375 10.488281 L 8.90625 10.488281 C 8.796875 10.488281 8.707031 10.402344 8.707031 10.292969 L 8.707031 7.917969 C 8.707031 7.804688 8.796875 7.71875 8.90625 7.71875 Z M 8.90625 10.886719 L 10.09375 10.886719 C 10.203125 10.886719 10.292969 10.972656 10.292969 11.082031 L 10.292969 12.269531 C 10.292969 12.382812 10.203125 12.46875 10.09375 12.46875 L 8.90625 12.46875 C 8.796875 12.46875 8.707031 12.382812 8.707031 12.269531 L 8.707031 11.082031 C 8.707031 10.972656 8.796875 10.886719 8.90625 10.886719 Z M 8.90625 10.886719 "/>
<path style=" stroke:none;fill-rule:nonzero;fill:url(#linear7);" d="M 8.460938 3.625 L 7.539062 6.890625 L 3.625 6.234375 L 6.234375 8.84375 L 2.96875 10.15625 L 6.421875 10.726562 L 3.625 14.070312 L 7.5 12.96875 L 8.195312 15.375 L 10.15625 13.421875 L 13.421875 15.375 L 12.640625 11.726562 L 16.03125 11.460938 L 13.171875 9.421875 L 15.214844 8.195312 L 13.074219 7.945312 L 15.375 4.273438 L 10.476562 6.519531 Z M 8.90625 7.519531 L 10.09375 7.519531 C 10.203125 7.519531 10.292969 7.609375 10.292969 7.71875 L 10.292969 10.09375 C 10.292969 10.203125 10.203125 10.292969 10.09375 10.292969 L 8.90625 10.292969 C 8.796875 10.292969 8.707031 10.203125 8.707031 10.09375 L 8.707031 7.71875 C 8.707031 7.609375 8.796875 7.519531 8.90625 7.519531 Z M 8.90625 10.6875 L 10.09375 10.6875 C 10.203125 10.6875 10.292969 10.773438 10.292969 10.886719 L 10.292969 12.074219 C 10.292969 12.183594 10.203125 12.269531 10.09375 12.269531 L 8.90625 12.269531 C 8.796875 12.269531 8.707031 12.183594 8.707031 12.074219 L 8.707031 10.886719 C 8.707031 10.773438 8.796875 10.6875 8.90625 10.6875 Z M 8.90625 10.6875 "/>
<path style=" stroke:none;fill-rule:nonzero;fill:rgb(100%,100%,100%);fill-opacity:0.4;" d="M 8.460938 3.625 L 7.539062 6.890625 L 3.625 6.234375 L 4.101562 6.710938 L 7.539062 7.285156 L 8.460938 4.019531 L 10.476562 6.914062 L 15.03125 4.828125 L 15.375 4.273438 L 10.476562 6.519531 Z M 13.304688 7.972656 L 13.074219 8.34375 L 14.664062 8.53125 L 15.214844 8.195312 Z M 5.949219 8.957031 L 2.96875 10.15625 L 3.667969 10.273438 L 6.234375 9.242188 Z M 13.476562 9.636719 L 13.171875 9.816406 L 15.53125 11.5 L 16.03125 11.460938 Z M 8.707031 10.09375 L 8.707031 10.488281 C 8.707031 10.601562 8.796875 10.6875 8.90625 10.6875 L 10.09375 10.6875 C 10.203125 10.6875 10.292969 10.601562 10.292969 10.488281 L 10.292969 10.09375 C 10.292969 10.203125 10.203125 10.292969 10.09375 10.292969 L 8.90625 10.292969 C 8.796875 10.292969 8.707031 10.203125 8.707031 10.09375 Z M 6.128906 11.070312 L 3.625 14.070312 L 4.058594 13.945312 L 6.421875 11.121094 Z M 8.707031 12.074219 L 8.707031 12.46875 C 8.707031 12.578125 8.796875 12.667969 8.90625 12.667969 L 10.09375 12.667969 C 10.203125 12.667969 10.292969 12.578125 10.292969 12.46875 L 10.292969 12.074219 C 10.292969 12.183594 10.203125 12.269531 10.09375 12.269531 L 8.90625 12.269531 C 8.796875 12.269531 8.707031 12.183594 8.707031 12.074219 Z M 12.722656 12.117188 L 12.640625 12.121094 L 13.320312 15.320312 L 13.421875 15.375 Z M 12.722656 12.117188 "/>
<path style=" stroke:none;fill-rule:nonzero;fill:rgb(100%,100%,100%);fill-opacity:0.8;" d="M 8.460938 3.625 L 7.539062 6.890625 L 3.625 6.234375 L 3.859375 6.46875 L 7.539062 7.085938 L 8.460938 3.820312 L 10.476562 6.71875 L 15.203125 4.550781 L 15.375 4.273438 L 10.476562 6.519531 Z M 13.191406 7.960938 L 13.074219 8.144531 L 14.9375 8.363281 L 15.214844 8.195312 Z M 6.09375 8.898438 L 2.96875 10.15625 L 3.316406 10.210938 L 6.234375 9.042969 Z M 13.320312 9.523438 L 13.171875 9.617188 L 15.785156 11.480469 L 16.03125 11.460938 Z M 8.707031 10.09375 L 8.707031 10.292969 C 8.707031 10.402344 8.796875 10.488281 8.90625 10.488281 L 10.09375 10.488281 C 10.203125 10.488281 10.292969 10.402344 10.292969 10.292969 L 10.292969 10.09375 C 10.292969 10.203125 10.203125 10.292969 10.09375 10.292969 L 8.90625 10.292969 C 8.796875 10.292969 8.707031 10.203125 8.707031 10.09375 Z M 6.277344 10.898438 L 3.625 14.070312 L 3.839844 14.007812 L 6.421875 10.921875 Z M 12.6875 11.917969 L 12.640625 11.925781 L 13.371094 15.34375 L 13.421875 15.375 Z M 8.707031 12.074219 L 8.707031 12.269531 C 8.707031 12.382812 8.796875 12.46875 8.90625 12.46875 L 10.09375 12.46875 C 10.203125 12.46875 10.292969 12.382812 10.292969 12.269531 L 10.292969 12.074219 C 10.292969 12.183594 10.203125 12.269531 10.09375 12.269531 L 8.90625 12.269531 C 8.796875 12.269531 8.707031 12.183594 8.707031 12.074219 Z M 8.707031 12.074219 "/>
</g>
</svg>
