<?xml version="1.0" encoding="UTF-8"?>
<svg xmlns="http://www.w3.org/2000/svg" xmlns:xlink="http://www.w3.org/1999/xlink" width="19pt" height="19pt" viewBox="0 0 19 19" version="1.1">
<g id="surface1">
<path style=" stroke:none;fill-rule:nonzero;fill:rgb(80%,80%,80%);fill-opacity:1;" d="M 15.4375 9.5 C 15.4375 6.945312 14.484375 4.765625 13.105469 3.761719 L 12.191406 4.582031 C 13.378906 5.425781 14.203125 7.316406 14.203125 9.5 C 14.203125 11.683594 13.378906 13.574219 12.191406 14.417969 L 13.105469 15.238281 C 14.484375 14.234375 15.4375 12.054688 15.4375 9.5 Z M 15.4375 9.5 "/>
<path style=" stroke:none;fill-rule:nonzero;fill:rgb(80%,80%,80%);fill-opacity:1;" d="M 13.015625 9.5 C 13.015625 7.773438 12.359375 6.265625 11.367188 5.316406 L 10.519531 6.070312 C 11.285156 6.882812 11.777344 8.113281 11.777344 9.5 C 11.777344 10.886719 11.285156 12.117188 10.519531 12.929688 L 11.367188 13.683594 C 12.359375 12.734375 13.015625 11.226562 13.015625 9.5 Z M 13.015625 9.5 "/>
<path style=" stroke:none;fill-rule:nonzero;fill:rgb(80%,80%,80%);fill-opacity:1;" d="M 10.679688 9.5 C 10.679688 8.449219 10.332031 7.488281 9.765625 6.734375 L 8.898438 7.511719 C 9.242188 8.082031 9.445312 8.769531 9.445312 9.5 C 9.445312 10.230469 9.242188 10.917969 8.898438 11.488281 L 9.765625 12.265625 C 10.332031 11.511719 10.679688 10.550781 10.679688 9.5 Z M 10.679688 9.5 "/>
<path style=" stroke:none;fill-rule:nonzero;fill:rgb(80%,80%,80%);fill-opacity:1;" d="M 3.5625 7.917969 L 3.5625 11.082031 L 4.871094 11.082031 L 7.519531 13.75 L 7.519531 5.25 L 4.871094 7.917969 Z M 3.5625 7.917969 "/>
</g>
</svg>
