<?xml version="1.0" encoding="UTF-8"?>
<svg xmlns="http://www.w3.org/2000/svg" xmlns:xlink="http://www.w3.org/1999/xlink" width="19pt" height="19pt" viewBox="0 0 19 19" version="1.1">
<g id="surface1">
<path style=" stroke:none;fill-rule:nonzero;fill:rgb(93.333333%,93.333333%,93.333333%);fill-opacity:1;" d="M 9.457031 4.496094 L 6.328125 7.625 L 4.082031 7.625 L 4.082031 11.375 L 6.328125 11.375 L 9.457031 14.503906 L 9.460938 14.5 L 9.460938 14.503906 L 10.960938 14.503906 L 10.960938 4.496094 L 9.460938 4.496094 L 9.460938 4.5 Z M 9.714844 5.121094 L 10.335938 5.121094 L 10.335938 13.878906 L 9.714844 13.878906 L 6.585938 10.75 L 6.582031 10.757812 L 6.582031 8.246094 L 6.585938 8.25 Z M 4.707031 8.25 L 5.332031 8.25 L 5.332031 10.75 L 4.707031 10.75 Z M 4.707031 8.25 "/>
<path style=" stroke:none;fill-rule:nonzero;fill:rgb(93.333333%,93.333333%,93.333333%);fill-opacity:1;" d="M 12.863281 6.136719 L 12.300781 6.699219 C 13.015625 7.414062 13.457031 8.402344 13.457031 9.5 C 13.457031 10.597656 13.015625 11.585938 12.300781 12.300781 L 12.863281 12.863281 C 13.71875 12.003906 14.25 10.816406 14.25 9.5 C 14.25 8.183594 13.71875 6.996094 12.863281 6.136719 Z M 12.863281 6.136719 "/>
<path style=" stroke:none;fill-rule:nonzero;fill:rgb(93.333333%,93.333333%,93.333333%);fill-opacity:1;" d="M 13.984375 5.015625 L 13.421875 5.578125 C 14.425781 6.578125 15.042969 7.964844 15.042969 9.5 C 15.042969 11.035156 14.425781 12.421875 13.421875 13.421875 L 13.984375 13.984375 C 15.128906 12.835938 15.832031 11.253906 15.832031 9.5 C 15.832031 7.746094 15.128906 6.164062 13.984375 5.015625 Z M 13.984375 5.015625 "/>
</g>
</svg>
