<?xml version="1.0" encoding="UTF-8"?>
<svg xmlns="http://www.w3.org/2000/svg" xmlns:xlink="http://www.w3.org/1999/xlink" width="19pt" height="19pt" viewBox="0 0 19 19" version="1.1">
<g id="surface1">
<path style=" stroke:none;fill-rule:nonzero;fill:rgb(80%,80%,80%);fill-opacity:1;" d="M 11.75 14.027344 C 10.203125 14.019531 8.660156 14.011719 7.113281 14.003906 C 7.644531 15.015625 8.527344 15.53125 9.417969 15.539062 C 10.304688 15.53125 11.199219 15.035156 11.75 14.027344 Z M 11.75 14.027344 "/>
<path style="fill:none;stroke-width:1.3;stroke-linecap:butt;stroke-linejoin:miter;stroke:rgb(80%,80%,80%);stroke-opacity:1;stroke-miterlimit:4;" d="M 15.389803 1036.138516 C 14.856908 1035.551345 14.141447 1035.122068 13.258224 1034.850687 C 13.070724 1034.796411 12.996711 1034.717463 13.011513 1034.520095 C 13.026316 1034.347397 13.026316 1034.159897 12.976974 1033.992134 C 12.863487 1033.617134 12.527961 1033.385226 12.138158 1033.380292 C 11.748355 1033.390161 11.407895 1033.607266 11.284539 1033.982266 C 11.235197 1034.150029 11.230263 1034.337529 11.240132 1034.510226 C 11.25 1034.707595 11.175987 1034.786542 10.988487 1034.840818 C 9.207237 1035.363845 8.087171 1036.528318 7.746711 1038.353976 C 7.613487 1039.069437 7.662829 1039.814503 7.628289 1040.5497 C 7.603618 1040.998713 7.574013 1041.447726 7.549342 1041.896739 C 7.5 1042.70595 7.129934 1043.367134 6.463816 1043.791476 C 5.916118 1044.146739 5.797697 1045.113845 5.797697 1045.192792 L 5.787829 1046.090818 C 9.927632 1046.110555 14.067434 1046.130292 18.207237 1046.150029 L 18.217105 1045.247068 C 18.222039 1045.168121 18.123355 1044.201016 17.585526 1043.845753 C 16.929276 1043.411542 16.574013 1042.750358 16.539474 1041.941147 C 16.524671 1041.492134 16.504934 1041.038187 16.490132 1040.589174 C 16.470395 1039.858911 16.539474 1039.108911 16.421053 1038.39345 C 16.273026 1037.480621 15.922697 1036.730621 15.389803 1036.138516 Z M 15.389803 1036.138516 " transform="matrix(0.791667,0,0,0.791667,0,-814.120075)"/>
<path style=" stroke:none;fill-rule:nonzero;fill:rgb(80%,80%,80%);fill-opacity:1;" d="M 9.609375 3.972656 C 9.300781 3.980469 9.03125 4.15625 8.9375 4.453125 C 8.894531 4.582031 8.890625 4.730469 8.898438 4.867188 C 8.90625 5.023438 8.84375 5.085938 8.699219 5.128906 C 7.289062 5.542969 6.402344 6.464844 6.132812 7.910156 C 6.027344 8.476562 6.066406 9.066406 6.039062 9.648438 C 6.027344 9.878906 6.011719 10.109375 5.996094 10.34375 L 13.078125 10.34375 C 13.070312 10.121094 13.0625 9.902344 13.054688 9.679688 C 13.039062 9.097656 13.09375 8.507812 13 7.941406 C 12.882812 7.21875 12.605469 6.625 12.183594 6.15625 C 11.761719 5.691406 11.195312 5.351562 10.496094 5.136719 C 10.347656 5.09375 10.289062 5.03125 10.300781 4.875 C 10.3125 4.738281 10.3125 4.589844 10.273438 4.457031 C 10.183594 4.160156 9.917969 3.976562 9.609375 3.972656 Z M 9.609375 3.972656 "/>
</g>
</svg>
