<?xml version="1.0" encoding="UTF-8"?>
<svg xmlns="http://www.w3.org/2000/svg" xmlns:xlink="http://www.w3.org/1999/xlink" width="19pt" height="19pt" viewBox="0 0 19 19" version="1.1">
<g id="surface1">
<path style=" stroke:none;fill-rule:evenodd;fill:rgb(80%,80%,80%);fill-opacity:1;" d="M 6.660156 4.78125 C 6.402344 4.78125 6.179688 4.886719 6.027344 5.070312 L 4.121094 7.316406 L 2.429688 7.316406 C 1.964844 7.316406 1.585938 7.695312 1.585938 8.164062 C 1.578125 9.003906 1.585938 9.867188 1.585938 10.699219 C 1.585938 11.167969 1.964844 11.546875 2.429688 11.546875 L 4.121094 11.546875 L 5.945312 13.632812 C 6.089844 13.890625 6.34375 14.082031 6.660156 14.082031 C 7.128906 14.082031 7.507812 13.703125 7.507812 13.238281 L 7.507812 5.625 C 7.507812 5.160156 7.128906 4.78125 6.660156 4.78125 Z M 6.660156 4.78125 "/>
<path style=" stroke:none;fill-rule:nonzero;fill:rgb(80%,80%,80%);fill-opacity:0.298039;" d="M 14.816406 3.15625 L 13.777344 3.746094 C 15.785156 5.96875 16.636719 8.828125 15.8125 11.589844 C 15.402344 12.957031 14.628906 14.179688 13.59375 15.222656 L 14.636719 15.84375 C 15.769531 14.695312 16.621094 13.347656 17.070312 11.84375 C 17.984375 8.78125 17.042969 5.613281 14.816406 3.15625 Z M 14.816406 3.15625 "/>
<path style=" stroke:none;fill-rule:nonzero;fill:rgb(80%,80%,80%);fill-opacity:1;" d="M 12.730469 4.34375 L 11.6875 4.933594 C 13.242188 6.660156 13.910156 8.882812 13.292969 11.027344 C 12.972656 12.140625 12.34375 13.128906 11.5 13.976562 L 12.539062 14.597656 C 13.484375 13.644531 14.191406 12.527344 14.550781 11.273438 C 15.253906 8.828125 14.5 6.304688 12.730469 4.34375 Z M 12.730469 4.34375 "/>
<path style=" stroke:none;fill-rule:nonzero;fill:rgb(80%,80%,80%);fill-opacity:1;" d="M 10.640625 5.527344 L 9.601562 6.117188 C 10.703125 7.355469 11.183594 8.933594 10.769531 10.46875 C 10.539062 11.320312 10.058594 12.082031 9.410156 12.726562 L 10.449219 13.347656 C 11.203125 12.59375 11.761719 11.703125 12.035156 10.699219 C 12.527344 8.871094 11.957031 6.996094 10.640625 5.527344 Z M 10.640625 5.527344 "/>
<path style=" stroke:none;fill-rule:nonzero;fill:rgb(80%,80%,80%);fill-opacity:1;" d="M 8.5625 6.710938 L 7.515625 7.304688 C 8.167969 8.050781 8.464844 8.992188 8.25 9.914062 C 8.109375 10.511719 7.777344 11.039062 7.320312 11.484375 L 8.359375 12.101562 C 8.925781 11.542969 9.339844 10.875 9.519531 10.117188 C 9.800781 8.914062 9.417969 7.679688 8.5625 6.710938 Z M 8.5625 6.710938 "/>
</g>
</svg>
