<?xml version="1.0" encoding="UTF-8"?>
<svg xmlns="http://www.w3.org/2000/svg" xmlns:xlink="http://www.w3.org/1999/xlink" width="19pt" height="19pt" viewBox="0 0 19 19" version="1.1">
<g id="surface1">
<path style=" stroke:none;fill-rule:nonzero;fill:rgb(80%,80%,80%);fill-opacity:1;" d="M 9.402344 2.625 C 7.390625 2.625 5.78125 4.136719 5.78125 6.011719 C 5.785156 6.210938 5.800781 6.5 5.816406 6.742188 C 5.476562 6.890625 5.453125 7.558594 5.742188 8.246094 C 5.859375 8.519531 6.003906 8.726562 6.167969 8.898438 C 6.203125 9.09375 6.195312 9.179688 6.242188 9.398438 C 6.378906 9.804688 6.90625 10.59375 7.398438 11.25 C 7.445312 11.753906 7.496094 12.257812 7.398438 12.828125 C 5.984375 14 2.347656 14.503906 2.351562 15.714844 L 2.277344 16.179688 L 16.527344 16.179688 L 16.449219 15.714844 C 16.445312 14.679688 12.800781 14.039062 11.40625 12.828125 C 11.347656 12.363281 11.335938 11.898438 11.363281 11.441406 C 11.8125 10.753906 12.410156 9.851562 12.558594 9.398438 C 12.613281 9.175781 12.632812 9.019531 12.671875 8.824219 C 12.808594 8.660156 12.921875 8.476562 13.023438 8.246094 C 13.296875 7.59375 13.28125 6.96875 12.984375 6.78125 C 13 6.519531 13.011719 6.238281 13.023438 6.011719 C 13.023438 4.136719 11.410156 2.625 9.402344 2.625 Z M 9.402344 2.625 "/>
</g>
</svg>
