<?xml version="1.0" encoding="UTF-8"?>
<svg xmlns="http://www.w3.org/2000/svg" xmlns:xlink="http://www.w3.org/1999/xlink" width="19pt" height="19pt" viewBox="0 0 19 19" version="1.1">
<g id="surface1">
<path style=" stroke:none;fill-rule:evenodd;fill:rgb(80%,80%,80%);fill-opacity:1;" d="M 2.289062 6.148438 L 2.289062 12.851562 L 15.242188 12.851562 L 15.242188 6.148438 Z M 2.289062 6.148438 "/>
<path style="fill:none;stroke-width:1.233288;stroke-linecap:round;stroke-linejoin:round;stroke:rgb(80%,80%,80%);stroke-opacity:1;stroke-miterlimit:4;" d="M 2.000126 1035.867143 L 2.000126 1044.867143 L 19.55939 1044.867143 L 19.55939 1035.867143 L 2.000126 1035.867143 " transform="matrix(0.761929,0,0,0.791667,0.554172,-814.120082)"/>
<path style=" stroke:none;fill-rule:evenodd;fill:rgb(80%,80%,80%);fill-opacity:1;" d="M 15.746094 7.917969 L 15.746094 11.082031 L 16.507812 11.082031 C 16.792969 10.960938 17.105469 10.703125 17.269531 10.28125 C 17.4375 9.855469 17.445312 9.074219 17.269531 8.660156 C 17.097656 8.246094 16.660156 7.917969 16.507812 7.917969 C 16.359375 7.917969 15.746094 7.917969 15.746094 7.917969 Z M 15.746094 7.917969 "/>
</g>
</svg>
