<?xml version="1.0" encoding="UTF-8"?>
<svg xmlns="http://www.w3.org/2000/svg" xmlns:xlink="http://www.w3.org/1999/xlink" width="19pt" height="19pt" viewBox="0 0 19 19" version="1.1">
<defs>
<linearGradient id="linear0" gradientUnits="userSpaceOnUse" x1="0" y1="6.132" x2="0" y2="90.24" gradientTransform="matrix(0.202629,0,0,-0.200272,-0.226219,19.409688)">
<stop offset="0" style="stop-color:rgb(0%,0%,0%);stop-opacity:0.0784314;"/>
<stop offset="1" style="stop-color:rgb(0%,0%,0%);stop-opacity:0.0470588;"/>
</linearGradient>
<linearGradient id="linear1" gradientUnits="userSpaceOnUse" x1="0" y1="6.132" x2="0" y2="90.24" gradientTransform="matrix(0.202629,0,0,-0.200272,-0.226219,19.409688)">
<stop offset="0" style="stop-color:rgb(0%,0%,0%);stop-opacity:0.101961;"/>
<stop offset="1" style="stop-color:rgb(0%,0%,0%);stop-opacity:0.0588235;"/>
</linearGradient>
<linearGradient id="linear2" gradientUnits="userSpaceOnUse" x1="0" y1="6.132" x2="0" y2="90.24" gradientTransform="matrix(0.202629,0,0,-0.200272,-0.226219,19.409688)">
<stop offset="0" style="stop-color:rgb(0%,0%,0%);stop-opacity:0.2;"/>
<stop offset="1" style="stop-color:rgb(0%,0%,0%);stop-opacity:0.117647;"/>
</linearGradient>
<linearGradient id="linear3" gradientUnits="userSpaceOnUse" x1="0" y1="6.132" x2="0" y2="90.24" gradientTransform="matrix(0.202629,0,0,-0.200272,-0.226219,19.409688)">
<stop offset="0" style="stop-color:rgb(0%,0%,0%);stop-opacity:0.298039;"/>
<stop offset="1" style="stop-color:rgb(0%,0%,0%);stop-opacity:0.176471;"/>
</linearGradient>
<linearGradient id="linear4" gradientUnits="userSpaceOnUse" x1="0" y1="6.132" x2="0" y2="90.24" gradientTransform="matrix(0.197917,0,0,-0.197917,0,19.197917)">
<stop offset="0" style="stop-color:rgb(0%,0%,0%);stop-opacity:0.45098;"/>
<stop offset="1" style="stop-color:rgb(0%,0%,0%);stop-opacity:0.266667;"/>
</linearGradient>
<linearGradient id="linear5" gradientUnits="userSpaceOnUse" x1="0" y1="90" x2="0" y2="5.988" gradientTransform="matrix(0.197917,0,0,0.197917,0,0)">
<stop offset="0" style="stop-color:rgb(90.196078%,90.196078%,90.196078%);stop-opacity:1;"/>
<stop offset="1" style="stop-color:rgb(96.078431%,96.078431%,96.078431%);stop-opacity:1;"/>
</linearGradient>
<linearGradient id="linear6" gradientUnits="userSpaceOnUse" x1="0" y1="6" x2="0" y2="63.893" gradientTransform="matrix(0.197917,0,0,0.197917,0,0)">
<stop offset="0" style="stop-color:rgb(100%,100%,100%);stop-opacity:0.501961;"/>
<stop offset="1" style="stop-color:rgb(100%,100%,100%);stop-opacity:0;"/>
</linearGradient>
<radialGradient id="radial0" gradientUnits="userSpaceOnUse" cx="48" cy="90.17" fx="48" fy="90.17" r="42" gradientTransform="matrix(0.229051,0,0,0.197107,-1.494469,0.0389895)">
<stop offset="0" style="stop-color:rgb(100%,100%,100%);stop-opacity:0.4;"/>
<stop offset="1" style="stop-color:rgb(100%,100%,100%);stop-opacity:0;"/>
</radialGradient>
<clipPath id="clip1">
  <path d="M 2.25 3.75 L 16.75 3.75 L 16.75 15.25 L 2.25 15.25 Z M 2.25 3.75 "/>
</clipPath>
<clipPath id="clip2">
  <path d="M 2.96875 3.957031 L 16.03125 3.957031 C 16.359375 3.957031 16.625 4.226562 16.625 4.550781 L 16.625 14.449219 C 16.625 14.773438 16.359375 15.042969 16.03125 15.042969 L 2.96875 15.042969 C 2.640625 15.042969 2.375 14.773438 2.375 14.449219 L 2.375 4.550781 C 2.375 4.226562 2.640625 3.957031 2.96875 3.957031 Z M 2.96875 3.957031 "/>
</clipPath>
<linearGradient id="linear7" gradientUnits="userSpaceOnUse" x1="0" y1="48" x2="0" y2="72" spreadMethod="reflect" gradientTransform="matrix(0.197917,0,0,0.197917,0,0)">
<stop offset="0" style="stop-color:rgb(6.27451%,6.27451%,6.27451%);stop-opacity:1;"/>
<stop offset="1" style="stop-color:rgb(27.058824%,27.058824%,27.058824%);stop-opacity:1;"/>
</linearGradient>
<linearGradient id="linear8" gradientUnits="userSpaceOnUse" x1="0" y1="56" x2="0" y2="0" gradientTransform="matrix(0.197917,0,0,0.197917,0,0)">
<stop offset="0" style="stop-color:rgb(100%,100%,100%);stop-opacity:0.2;"/>
<stop offset="1" style="stop-color:rgb(100%,100%,100%);stop-opacity:0;"/>
</linearGradient>
<linearGradient id="linear9" gradientUnits="userSpaceOnUse" x1="0" y1="80" x2="0" y2="-40.07" gradientTransform="matrix(0.197917,0,0,0.197917,-3.958333,0)">
<stop offset="0" style="stop-color:rgb(0%,0%,0%);stop-opacity:0.298039;"/>
<stop offset="1" style="stop-color:rgb(0%,0%,0%);stop-opacity:0;"/>
</linearGradient>
<linearGradient id="linear10" gradientUnits="userSpaceOnUse" x1="0" y1="121.37" x2="0" y2="6.634" gradientTransform="matrix(0.36607,0,0,0.36607,24.571,24.571)">
<stop offset="0" style="stop-color:rgb(72.941176%,0%,0%);stop-opacity:1;"/>
<stop offset="1" style="stop-color:rgb(100%,20%,11.764706%);stop-opacity:1;"/>
</linearGradient>
<linearGradient id="linear11" gradientUnits="userSpaceOnUse" x1="0" y1="28" x2="0" y2="91.01" gradientTransform="matrix(0.197917,0,0,0.197917,0,0)">
<stop offset="0" style="stop-color:rgb(100%,96.470588%,83.529412%);stop-opacity:0.501961;"/>
<stop offset="1" style="stop-color:rgb(100%,96.470588%,83.529412%);stop-opacity:0;"/>
</linearGradient>
</defs>
<g id="surface1">
<path style=" stroke:none;fill-rule:nonzero;fill:url(#linear0);" d="M 2.375 18.808594 C 1.285156 18.808594 0.390625 17.914062 0.390625 16.824219 L 0.390625 2.769531 C 0.390625 1.679688 1.285156 0.785156 2.375 0.785156 L 16.625 0.785156 C 17.714844 0.785156 18.609375 1.679688 18.609375 2.769531 L 18.609375 16.824219 C 18.609375 17.914062 17.714844 18.808594 16.625 18.808594 Z M 2.375 18.808594 "/>
<path style=" stroke:none;fill-rule:nonzero;fill:url(#linear1);" d="M 2.375 18.609375 C 1.390625 18.609375 0.585938 17.804688 0.585938 16.824219 L 0.585938 2.769531 C 0.585938 1.789062 1.390625 0.984375 2.375 0.984375 L 16.625 0.984375 C 17.609375 0.984375 18.414062 1.789062 18.414062 2.769531 L 18.414062 16.824219 C 18.414062 17.804688 17.609375 18.609375 16.625 18.609375 Z M 2.375 18.609375 "/>
<path style=" stroke:none;fill-rule:nonzero;fill:url(#linear2);" d="M 2.375 18.40625 C 1.5 18.40625 0.792969 17.695312 0.792969 16.824219 L 0.792969 2.769531 C 0.792969 1.898438 1.5 1.1875 2.375 1.1875 L 16.625 1.1875 C 17.5 1.1875 18.207031 1.898438 18.207031 2.769531 L 18.207031 16.824219 C 18.207031 17.695312 17.5 18.40625 16.625 18.40625 Z M 2.375 18.40625 "/>
<path style=" stroke:none;fill-rule:nonzero;fill:url(#linear3);" d="M 2.375 18.207031 L 16.625 18.207031 C 17.390625 18.207031 18.011719 17.585938 18.011719 16.824219 L 18.011719 2.769531 C 18.011719 2.007812 17.390625 1.386719 16.625 1.386719 L 2.375 1.386719 C 1.609375 1.386719 0.988281 2.007812 0.988281 2.769531 L 0.988281 16.824219 C 0.988281 17.585938 1.609375 18.207031 2.375 18.207031 Z M 2.375 18.207031 "/>
<path style=" stroke:none;fill-rule:nonzero;fill:url(#linear4);" d="M 2.375 18.011719 L 16.625 18.011719 C 17.28125 18.011719 17.8125 17.476562 17.8125 16.824219 L 17.8125 2.574219 C 17.8125 1.917969 17.28125 1.386719 16.625 1.386719 L 2.375 1.386719 C 1.71875 1.386719 1.1875 1.917969 1.1875 2.574219 L 1.1875 16.824219 C 1.1875 17.476562 1.71875 18.011719 2.375 18.011719 Z M 2.375 18.011719 "/>
<path style=" stroke:none;fill-rule:nonzero;fill:url(#linear5);" d="M 2.375 1.1875 L 16.625 1.1875 C 17.28125 1.1875 17.8125 1.71875 17.8125 2.375 L 17.8125 16.625 C 17.8125 17.28125 17.28125 17.8125 16.625 17.8125 L 2.375 17.8125 C 1.71875 17.8125 1.1875 17.28125 1.1875 16.625 L 1.1875 2.375 C 1.1875 1.71875 1.71875 1.1875 2.375 1.1875 Z M 2.375 1.1875 "/>
<path style=" stroke:none;fill-rule:nonzero;fill:url(#linear6);" d="M 2.375 1.1875 C 1.71875 1.1875 1.1875 1.71875 1.1875 2.375 L 1.1875 16.625 C 1.1875 16.691406 1.195312 16.753906 1.207031 16.816406 C 1.214844 16.875 1.226562 16.933594 1.242188 16.992188 C 1.246094 16.996094 1.246094 17.003906 1.25 17.007812 C 1.269531 17.066406 1.296875 17.117188 1.324219 17.167969 C 1.351562 17.222656 1.386719 17.273438 1.421875 17.324219 C 1.460938 17.371094 1.496094 17.417969 1.539062 17.460938 C 1.625 17.546875 1.726562 17.621094 1.835938 17.675781 C 1.890625 17.703125 1.949219 17.726562 2.007812 17.742188 C 1.960938 17.726562 1.914062 17.695312 1.867188 17.671875 C 1.867188 17.667969 1.863281 17.671875 1.859375 17.671875 C 1.855469 17.664062 1.851562 17.664062 1.84375 17.65625 C 1.820312 17.640625 1.796875 17.625 1.773438 17.609375 C 1.753906 17.59375 1.734375 17.578125 1.710938 17.558594 C 1.679688 17.527344 1.644531 17.492188 1.613281 17.453125 C 1.59375 17.429688 1.570312 17.402344 1.554688 17.375 C 1.546875 17.367188 1.546875 17.355469 1.539062 17.347656 C 1.527344 17.328125 1.515625 17.308594 1.503906 17.289062 C 1.484375 17.25 1.460938 17.203125 1.445312 17.164062 C 1.445312 17.160156 1.441406 17.15625 1.441406 17.148438 C 1.433594 17.132812 1.433594 17.113281 1.429688 17.09375 C 1.421875 17.074219 1.414062 17.054688 1.410156 17.03125 C 1.394531 16.964844 1.386719 16.894531 1.386719 16.824219 L 1.386719 2.574219 C 1.386719 2.023438 1.824219 1.582031 2.375 1.582031 L 16.625 1.582031 C 17.175781 1.582031 17.613281 2.023438 17.613281 2.574219 L 17.613281 16.824219 C 17.613281 16.894531 17.605469 16.964844 17.589844 17.03125 C 17.582031 17.074219 17.570312 17.113281 17.558594 17.148438 C 17.558594 17.15625 17.554688 17.160156 17.554688 17.164062 C 17.539062 17.195312 17.523438 17.234375 17.507812 17.269531 C 17.5 17.285156 17.492188 17.300781 17.484375 17.316406 C 17.472656 17.335938 17.460938 17.355469 17.445312 17.375 C 17.429688 17.402344 17.40625 17.429688 17.386719 17.453125 C 17.359375 17.488281 17.328125 17.523438 17.292969 17.554688 C 17.289062 17.554688 17.289062 17.554688 17.289062 17.558594 C 17.257812 17.585938 17.230469 17.605469 17.199219 17.625 C 17.179688 17.640625 17.160156 17.65625 17.140625 17.671875 C 17.136719 17.671875 17.132812 17.667969 17.132812 17.671875 C 17.085938 17.695312 17.039062 17.726562 16.992188 17.742188 C 17.050781 17.726562 17.109375 17.703125 17.164062 17.675781 C 17.273438 17.621094 17.375 17.546875 17.460938 17.460938 C 17.503906 17.417969 17.539062 17.371094 17.578125 17.324219 C 17.613281 17.273438 17.648438 17.222656 17.675781 17.167969 C 17.703125 17.117188 17.730469 17.066406 17.75 17.007812 C 17.753906 17 17.753906 16.996094 17.757812 16.992188 C 17.773438 16.933594 17.785156 16.875 17.792969 16.816406 C 17.804688 16.753906 17.8125 16.691406 17.8125 16.625 L 17.8125 2.375 C 17.8125 1.71875 17.28125 1.1875 16.625 1.1875 Z M 2.375 1.1875 "/>
<path style=" stroke:none;fill-rule:nonzero;fill:url(#radial0);" d="M 2.375 17.8125 C 1.71875 17.8125 1.1875 17.28125 1.1875 16.625 L 1.1875 2.375 C 1.1875 2.308594 1.195312 2.246094 1.207031 2.183594 C 1.214844 2.125 1.226562 2.066406 1.242188 2.007812 C 1.246094 2.003906 1.246094 1.996094 1.25 1.992188 C 1.269531 1.933594 1.296875 1.882812 1.324219 1.832031 C 1.351562 1.777344 1.386719 1.726562 1.421875 1.675781 C 1.460938 1.628906 1.496094 1.582031 1.539062 1.539062 C 1.625 1.453125 1.726562 1.378906 1.835938 1.324219 C 1.890625 1.296875 1.949219 1.273438 2.007812 1.257812 C 1.960938 1.273438 1.914062 1.304688 1.867188 1.328125 C 1.867188 1.332031 1.863281 1.328125 1.859375 1.328125 C 1.855469 1.335938 1.851562 1.335938 1.84375 1.34375 C 1.820312 1.359375 1.796875 1.375 1.773438 1.390625 C 1.753906 1.40625 1.734375 1.421875 1.710938 1.441406 C 1.679688 1.472656 1.644531 1.507812 1.613281 1.546875 C 1.59375 1.570312 1.570312 1.597656 1.554688 1.625 C 1.546875 1.632812 1.546875 1.644531 1.539062 1.652344 C 1.527344 1.671875 1.515625 1.691406 1.503906 1.710938 C 1.484375 1.75 1.460938 1.796875 1.445312 1.835938 C 1.445312 1.839844 1.441406 1.84375 1.441406 1.851562 C 1.433594 1.867188 1.433594 1.886719 1.429688 1.90625 C 1.421875 1.925781 1.414062 1.945312 1.410156 1.96875 C 1.394531 2.035156 1.386719 2.105469 1.386719 2.175781 L 1.386719 16.425781 C 1.386719 16.976562 1.824219 17.417969 2.375 17.417969 L 16.625 17.417969 C 17.175781 17.417969 17.613281 16.976562 17.613281 16.425781 L 17.613281 2.175781 C 17.613281 2.105469 17.605469 2.035156 17.589844 1.96875 C 17.582031 1.925781 17.570312 1.886719 17.558594 1.851562 C 17.558594 1.84375 17.554688 1.839844 17.554688 1.835938 C 17.539062 1.804688 17.523438 1.765625 17.507812 1.730469 C 17.5 1.714844 17.492188 1.699219 17.484375 1.683594 C 17.472656 1.664062 17.460938 1.644531 17.445312 1.625 C 17.429688 1.597656 17.40625 1.570312 17.386719 1.546875 C 17.359375 1.511719 17.328125 1.476562 17.292969 1.445312 C 17.289062 1.445312 17.289062 1.445312 17.289062 1.441406 C 17.257812 1.414062 17.230469 1.394531 17.199219 1.375 C 17.179688 1.359375 17.160156 1.34375 17.140625 1.328125 C 17.136719 1.328125 17.132812 1.332031 17.132812 1.328125 C 17.085938 1.304688 17.039062 1.273438 16.992188 1.257812 C 17.050781 1.273438 17.109375 1.296875 17.164062 1.324219 C 17.273438 1.378906 17.375 1.453125 17.460938 1.539062 C 17.503906 1.582031 17.539062 1.628906 17.578125 1.675781 C 17.613281 1.726562 17.648438 1.777344 17.675781 1.832031 C 17.703125 1.882812 17.730469 1.933594 17.75 1.992188 C 17.753906 2 17.753906 2.003906 17.757812 2.007812 C 17.773438 2.066406 17.785156 2.125 17.792969 2.183594 C 17.804688 2.246094 17.8125 2.308594 17.8125 2.375 L 17.8125 16.625 C 17.8125 17.28125 17.28125 17.8125 16.625 17.8125 Z M 2.375 17.8125 "/>
<g clip-path="url(#clip1)" clip-rule="nonzero">
<g clip-path="url(#clip2)" clip-rule="nonzero">
<path style=" stroke:none;fill-rule:nonzero;fill:url(#linear7);" d="M 2.375 3.957031 L 16.625 3.957031 L 16.625 15.042969 L 2.375 15.042969 Z M 2.375 3.957031 "/>
</g>
</g>
<path style=" stroke:none;fill-rule:nonzero;fill:rgb(0%,0%,0%);fill-opacity:0.101961;" d="M 9.5 5.175781 C 7.007812 5.175781 4.976562 7.207031 4.976562 9.699219 C 4.976562 12.1875 7.007812 14.21875 9.5 14.21875 C 11.992188 14.21875 14.023438 12.1875 14.023438 9.699219 C 14.023438 7.207031 11.992188 5.175781 9.5 5.175781 Z M 9.5 7.550781 C 10.6875 7.550781 11.648438 8.507812 11.648438 9.699219 C 11.648438 9.75 11.621094 9.8125 11.609375 9.867188 L 9.332031 7.589844 C 9.386719 7.578125 9.449219 7.550781 9.5 7.550781 Z M 7.398438 9.429688 L 9.765625 11.800781 C 9.679688 11.816406 9.589844 11.84375 9.5 11.84375 C 8.3125 11.84375 7.351562 10.886719 7.351562 9.699219 C 7.351562 9.609375 7.382812 9.519531 7.398438 9.429688 Z M 7.398438 9.429688 "/>
<path style=" stroke:none;fill-rule:nonzero;fill:rgb(0%,0%,0%);fill-opacity:0.14902;" d="M 9.5 5.335938 C 7.09375 5.335938 5.140625 7.292969 5.140625 9.699219 C 5.140625 12.101562 7.09375 14.058594 9.5 14.058594 C 11.90625 14.058594 13.859375 12.101562 13.859375 9.699219 C 13.859375 7.292969 11.90625 5.335938 9.5 5.335938 Z M 9.5 7.390625 C 10.773438 7.390625 11.804688 8.421875 11.804688 9.699219 C 11.804688 9.871094 11.746094 10.023438 11.707031 10.1875 L 9.011719 7.492188 C 9.171875 7.449219 9.328125 7.390625 9.5 7.390625 Z M 7.292969 9.105469 L 10.09375 11.90625 C 9.902344 11.960938 9.707031 12.003906 9.5 12.003906 C 8.226562 12.003906 7.195312 10.972656 7.195312 9.699219 C 7.195312 9.492188 7.234375 9.296875 7.292969 9.105469 Z M 7.292969 9.105469 "/>
<path style=" stroke:none;fill-rule:nonzero;fill:url(#linear8);" d="M 2.375 1.1875 C 1.71875 1.1875 1.1875 1.71875 1.1875 2.375 L 1.1875 12.9375 C 4.289062 10.75 9.683594 9.300781 15.832031 9.300781 C 16.503906 9.300781 17.164062 9.324219 17.8125 9.359375 L 17.8125 2.375 C 17.8125 1.71875 17.28125 1.1875 16.625 1.1875 Z M 2.375 1.1875 "/>
<path style=" stroke:none;fill-rule:nonzero;fill:rgb(0%,0%,0%);fill-opacity:0.298039;" d="M 9.5 5.53125 C 7.199219 5.53125 5.332031 7.398438 5.332031 9.699219 C 5.332031 12 7.199219 13.867188 9.5 13.867188 C 11.800781 13.867188 13.667969 12 13.667969 9.699219 C 13.667969 7.398438 11.800781 5.53125 9.5 5.53125 Z M 9.5 7.199219 C 10.878906 7.199219 12 8.320312 12 9.699219 C 12 10.007812 11.929688 10.300781 11.824219 10.578125 L 8.621094 7.371094 C 8.898438 7.265625 9.1875 7.199219 9.5 7.199219 Z M 7.203125 8.746094 L 10.453125 11.992188 C 10.15625 12.117188 9.839844 12.195312 9.5 12.195312 C 8.121094 12.195312 7 11.078125 7 9.699219 C 7 9.359375 7.082031 9.039062 7.203125 8.746094 Z M 7.203125 8.746094 "/>
<path style=" stroke:none;fill-rule:nonzero;fill:url(#linear9);" d="M 2.96875 3.957031 C 2.640625 3.957031 2.375 4.222656 2.375 4.550781 L 2.375 14.449219 C 2.375 14.777344 2.640625 15.042969 2.96875 15.042969 L 16.03125 15.042969 C 16.359375 15.042969 16.625 14.777344 16.625 14.449219 L 16.625 4.550781 C 16.625 4.222656 16.359375 3.957031 16.03125 3.957031 Z M 2.96875 4.148438 L 16.03125 4.148438 C 16.257812 4.148438 16.433594 4.324219 16.433594 4.550781 L 16.433594 14.449219 C 16.433594 14.675781 16.257812 14.851562 16.03125 14.851562 L 2.96875 14.851562 C 2.742188 14.851562 2.566406 14.675781 2.566406 14.449219 L 2.566406 4.550781 C 2.566406 4.324219 2.742188 4.148438 2.96875 4.148438 Z M 2.96875 4.148438 "/>
<path style=" stroke:none;fill-rule:nonzero;fill:rgb(100%,100%,100%);fill-opacity:0.698039;" d="M 2.375 14.449219 L 2.375 14.644531 C 2.375 14.976562 2.640625 15.238281 2.96875 15.238281 L 16.03125 15.238281 C 16.359375 15.238281 16.625 14.976562 16.625 14.644531 L 16.625 14.449219 C 16.625 14.777344 16.359375 15.042969 16.03125 15.042969 L 2.96875 15.042969 C 2.640625 15.042969 2.375 14.777344 2.375 14.449219 Z M 2.375 14.449219 "/>
<path style="fill-rule:nonzero;fill:url(#linear10);stroke-width:1;stroke-linecap:round;stroke-linejoin:miter;stroke:rgb(62.745098%,0%,0%);stroke-opacity:1;stroke-miterlimit:4;" d="M 47.99998 27.493409 C 36.690774 27.493409 27.493409 36.690774 27.493409 47.99998 C 27.493409 59.309186 36.690774 68.50655 47.99998 68.50655 C 59.309186 68.50655 68.50655 59.309186 68.50655 47.99998 C 68.50655 36.690774 59.309186 27.493409 47.99998 27.493409 Z M 47.99998 34.815775 C 55.282871 34.815775 61.184185 40.736825 61.184185 47.99998 C 61.184185 49.973663 60.749974 51.828926 59.960501 53.506556 L 42.493403 36.039459 C 44.171034 35.269722 46.026296 34.815775 47.99998 34.815775 Z M 36.197353 42.177614 L 53.842083 59.802606 C 52.085504 60.690764 50.111821 61.184185 47.99998 61.184185 C 40.736825 61.184185 34.815775 55.282871 34.815775 47.99998 C 34.815775 45.907875 35.328932 43.934192 36.197353 42.177614 Z M 36.197353 42.177614 " transform="matrix(0.197917,0,0,0.197917,0,0)"/>
<path style=" stroke:none;fill-rule:nonzero;fill:url(#linear11);" d="M 9.5 5.441406 C 7.261719 5.441406 5.441406 7.261719 5.441406 9.5 C 5.441406 9.53125 5.441406 9.566406 5.441406 9.597656 C 5.496094 7.40625 7.292969 5.640625 9.5 5.640625 C 11.707031 5.640625 13.503906 7.40625 13.558594 9.597656 C 13.558594 9.566406 13.558594 9.53125 13.558594 9.5 C 13.558594 7.261719 11.738281 5.441406 9.5 5.441406 Z M 8.554688 7.273438 C 8.507812 7.292969 8.457031 7.308594 8.410156 7.328125 L 11.867188 10.785156 C 12.023438 10.453125 12.109375 10.085938 12.109375 9.699219 C 12.109375 9.65625 12.105469 9.621094 12.101562 9.578125 C 12.09375 9.9375 12.011719 10.28125 11.867188 10.589844 Z M 6.898438 9.609375 C 6.894531 9.640625 6.890625 9.667969 6.890625 9.699219 C 6.890625 11.136719 8.0625 12.308594 9.5 12.308594 C 9.914062 12.308594 10.308594 12.210938 10.65625 12.035156 L 10.515625 11.894531 C 10.203125 12.027344 9.859375 12.109375 9.5 12.109375 C 8.097656 12.109375 6.953125 11 6.898438 9.609375 Z M 6.898438 9.609375 "/>
</g>
</svg>
