<?xml version="1.0" encoding="UTF-8"?>
<svg xmlns="http://www.w3.org/2000/svg" xmlns:xlink="http://www.w3.org/1999/xlink" width="19pt" height="19pt" viewBox="0 0 19 19" version="1.1">
<g id="surface1">
<path style=" stroke:none;fill-rule:nonzero;fill:rgb(80%,80%,80%);fill-opacity:1;" d="M 3.265625 4.15625 C 2.773438 4.15625 2.375 4.554688 2.375 5.046875 L 2.375 13.953125 C 2.375 14.445312 2.773438 14.84375 3.265625 14.84375 L 15.734375 14.84375 C 16.226562 14.84375 16.625 14.445312 16.625 13.953125 L 16.625 5.046875 C 16.625 4.554688 16.226562 4.15625 15.734375 4.15625 Z M 4.15625 5.9375 L 5.9375 5.9375 L 5.9375 7.71875 L 4.15625 7.71875 Z M 6.828125 5.9375 L 8.609375 5.9375 L 8.609375 7.71875 L 6.828125 7.71875 Z M 9.5 5.9375 L 11.28125 5.9375 L 11.28125 7.71875 L 9.5 7.71875 Z M 12.171875 5.9375 L 13.953125 5.9375 L 13.953125 7.71875 L 12.171875 7.71875 Z M 5.046875 8.609375 L 6.828125 8.609375 L 6.828125 10.390625 L 5.046875 10.390625 Z M 7.71875 8.609375 L 9.5 8.609375 L 9.5 10.390625 L 7.71875 10.390625 Z M 10.390625 8.609375 L 12.171875 8.609375 L 12.171875 10.390625 L 10.390625 10.390625 Z M 13.0625 8.609375 L 14.84375 8.609375 L 14.84375 10.390625 L 13.0625 10.390625 Z M 4.15625 11.28125 L 5.9375 11.28125 L 5.9375 13.0625 L 4.15625 13.0625 Z M 6.828125 11.28125 L 12.171875 11.28125 L 12.171875 13.0625 L 6.828125 13.0625 Z M 13.0625 11.28125 L 15.734375 11.28125 L 15.734375 13.0625 L 13.0625 13.0625 Z M 13.0625 11.28125 "/>
</g>
</svg>
