<?xml version="1.0" encoding="UTF-8"?>
<svg xmlns="http://www.w3.org/2000/svg" xmlns:xlink="http://www.w3.org/1999/xlink" width="19pt" height="19pt" viewBox="0 0 19 19" version="1.1">
<g id="surface1">
<path style=" stroke:none;fill-rule:nonzero;fill:rgb(80%,80%,80%);fill-opacity:1;" d="M 5.394531 2.277344 C 5.394531 2.277344 4.949219 2.476562 4.949219 2.722656 L 4.949219 15.636719 C 4.949219 16.128906 5.347656 16.527344 5.839844 16.527344 L 12.964844 16.527344 C 13.457031 16.527344 13.855469 16.128906 13.855469 15.636719 L 13.855469 4.949219 C 13.855469 4.457031 13.457031 4.058594 12.964844 4.058594 L 6.730469 4.058594 L 6.730469 2.722656 C 6.730469 2.476562 6.285156 2.277344 6.285156 2.277344 Z M 6.285156 5.839844 L 12.519531 5.839844 C 12.765625 5.839844 12.964844 6.039062 12.964844 6.285156 L 12.964844 8.957031 C 12.964844 9.203125 12.765625 9.402344 12.519531 9.402344 L 6.285156 9.402344 C 6.039062 9.402344 5.839844 9.203125 5.839844 8.957031 L 5.839844 6.285156 C 5.839844 6.039062 6.039062 5.839844 6.285156 5.839844 Z M 5.839844 10.292969 L 7.621094 10.292969 L 7.621094 11.183594 L 5.839844 11.183594 Z M 8.511719 10.292969 L 10.292969 10.292969 L 10.292969 11.183594 L 8.511719 11.183594 Z M 11.183594 10.292969 L 12.964844 10.292969 L 12.964844 11.183594 L 11.183594 11.183594 Z M 5.839844 12.074219 L 7.621094 12.074219 L 7.621094 12.964844 L 5.839844 12.964844 Z M 8.511719 12.074219 L 10.292969 12.074219 L 10.292969 12.964844 L 8.511719 12.964844 Z M 11.183594 12.074219 L 12.964844 12.074219 L 12.964844 12.964844 L 11.183594 12.964844 Z M 5.839844 13.855469 L 7.621094 13.855469 L 7.621094 14.746094 L 5.839844 14.746094 Z M 8.511719 13.855469 L 10.292969 13.855469 L 10.292969 14.746094 L 8.511719 14.746094 Z M 11.183594 13.855469 L 12.964844 13.855469 L 12.964844 14.746094 L 11.183594 14.746094 Z M 11.183594 13.855469 "/>
</g>
</svg>
