<?xml version="1.0" encoding="UTF-8"?>
<svg xmlns="http://www.w3.org/2000/svg" xmlns:xlink="http://www.w3.org/1999/xlink" width="19pt" height="19pt" viewBox="0 0 19 19" version="1.1">
<g id="surface1">
<path style=" stroke:none;fill-rule:nonzero;fill:rgb(80%,80%,80%);fill-opacity:0.45098;" d="M 14.625 1.800781 L 15.574219 1.800781 C 16.101562 1.800781 16.527344 2.226562 16.527344 2.75 L 16.527344 13.199219 C 16.527344 13.726562 16.101562 14.152344 15.574219 14.152344 L 14.625 14.152344 C 14.101562 14.152344 13.675781 13.726562 13.675781 13.199219 L 13.675781 2.75 C 13.675781 2.226562 14.101562 1.800781 14.625 1.800781 Z M 14.625 1.800781 "/>
<path style=" stroke:none;fill-rule:nonzero;fill:rgb(80%,80%,80%);fill-opacity:0.45098;" d="M 10.824219 4.652344 L 11.777344 4.652344 C 12.300781 4.652344 12.726562 5.074219 12.726562 5.601562 L 12.726562 13.199219 C 12.726562 13.726562 12.300781 14.152344 11.777344 14.152344 L 10.824219 14.152344 C 10.300781 14.152344 9.875 13.726562 9.875 13.199219 L 9.875 5.601562 C 9.875 5.074219 10.300781 4.652344 10.824219 4.652344 Z M 10.824219 4.652344 "/>
<path style=" stroke:none;fill-rule:nonzero;fill:rgb(80%,80%,80%);fill-opacity:0.45098;" d="M 7.027344 7.5 L 7.976562 7.5 C 8.5 7.5 8.925781 7.925781 8.925781 8.449219 L 8.925781 13.199219 C 8.925781 13.726562 8.5 14.152344 7.976562 14.152344 L 7.027344 14.152344 C 6.5 14.152344 6.074219 13.726562 6.074219 13.199219 L 6.074219 8.449219 C 6.074219 7.925781 6.5 7.5 7.027344 7.5 Z M 7.027344 7.5 "/>
<path style=" stroke:none;fill-rule:nonzero;fill:rgb(80%,80%,80%);fill-opacity:0.45098;" d="M 3.226562 10.351562 L 4.175781 10.351562 C 4.699219 10.351562 5.125 10.777344 5.125 11.300781 L 5.125 13.199219 C 5.125 13.726562 4.699219 14.152344 4.175781 14.152344 L 3.226562 14.152344 C 2.699219 14.152344 2.277344 13.726562 2.277344 13.199219 L 2.277344 11.300781 C 2.277344 10.777344 2.699219 10.351562 3.226562 10.351562 Z M 3.226562 10.351562 "/>
<path style=" stroke:none;fill-rule:nonzero;fill:rgb(80%,80%,80%);fill-opacity:1;" d="M 10.824219 16.050781 C 10.824219 16.574219 10.402344 17 9.875 17 C 9.351562 17 8.925781 16.574219 8.925781 16.050781 C 8.925781 15.527344 9.351562 15.101562 9.875 15.101562 C 10.402344 15.101562 10.824219 15.527344 10.824219 16.050781 Z M 10.824219 16.050781 "/>
<path style=" stroke:none;fill-rule:nonzero;fill:rgb(80%,80%,80%);fill-opacity:1;" d="M 13.675781 16.050781 C 13.675781 16.574219 13.25 17 12.726562 17 C 12.199219 17 11.777344 16.574219 11.777344 16.050781 C 11.777344 15.527344 12.199219 15.101562 12.726562 15.101562 C 13.25 15.101562 13.675781 15.527344 13.675781 16.050781 Z M 13.675781 16.050781 "/>
<path style=" stroke:none;fill-rule:nonzero;fill:rgb(80%,80%,80%);fill-opacity:1;" d="M 7.976562 16.050781 C 7.976562 16.574219 7.550781 17 7.027344 17 C 6.5 17 6.074219 16.574219 6.074219 16.050781 C 6.074219 15.527344 6.5 15.101562 7.027344 15.101562 C 7.550781 15.101562 7.976562 15.527344 7.976562 16.050781 Z M 7.976562 16.050781 "/>
</g>
</svg>
