<?xml version="1.0" encoding="UTF-8"?>
<svg xmlns="http://www.w3.org/2000/svg" xmlns:xlink="http://www.w3.org/1999/xlink" width="19pt" height="19pt" viewBox="0 0 19 19" version="1.1">
<g id="surface1">
<path style=" stroke:none;fill-rule:nonzero;fill:rgb(80%,80%,80%);fill-opacity:1;" d="M 4.351562 3.066406 C 3.640625 3.066406 3.066406 3.640625 3.066406 4.351562 L 3.066406 14.449219 C 3.066406 15.160156 3.640625 15.734375 4.351562 15.734375 L 14.449219 15.734375 C 15.160156 15.734375 15.734375 15.160156 15.734375 14.449219 L 15.734375 4.351562 C 15.734375 3.640625 15.160156 3.066406 14.449219 3.066406 Z M 8.3125 8.046875 L 10.488281 8.046875 L 10.507812 8.097656 C 10.519531 8.125 10.527344 8.273438 10.527344 8.429688 C 10.527344 8.6875 10.53125 8.710938 10.566406 8.730469 C 10.585938 8.742188 10.71875 8.75 10.863281 8.75 C 11.039062 8.75 11.128906 8.757812 11.144531 8.773438 C 11.160156 8.792969 11.167969 8.917969 11.167969 9.222656 C 11.167969 9.527344 11.175781 9.652344 11.191406 9.671875 C 11.207031 9.6875 11.378906 9.691406 11.839844 9.691406 C 12.203125 9.691406 12.488281 9.703125 12.519531 9.714844 L 12.566406 9.734375 L 12.5625 11.644531 L 12.558594 13.550781 L 6.242188 13.550781 L 6.242188 11.644531 L 6.234375 9.734375 L 6.285156 9.714844 C 6.3125 9.703125 6.601562 9.691406 6.960938 9.691406 C 7.421875 9.691406 7.59375 9.6875 7.609375 9.671875 C 7.628906 9.652344 7.632812 9.527344 7.632812 9.222656 C 7.632812 8.917969 7.640625 8.792969 7.65625 8.773438 C 7.671875 8.757812 7.765625 8.75 7.941406 8.75 C 8.082031 8.75 8.214844 8.742188 8.238281 8.730469 C 8.269531 8.710938 8.273438 8.6875 8.273438 8.429688 C 8.273438 8.273438 8.285156 8.125 8.292969 8.097656 Z M 8.3125 8.046875 "/>
</g>
</svg>
