<?xml version="1.0" encoding="UTF-8"?>
<svg xmlns="http://www.w3.org/2000/svg" xmlns:xlink="http://www.w3.org/1999/xlink" width="19pt" height="19pt" viewBox="0 0 19 19" version="1.1">
<g id="surface1">
<path style=" stroke:none;fill-rule:nonzero;fill:rgb(80%,80%,80%);fill-opacity:0.45098;" d="M 15.800781 2.269531 C 15.621094 2.269531 15.441406 2.324219 15.300781 2.464844 L 12.847656 4.914062 L 11.179688 4.914062 C 11.03125 4.921875 10.890625 4.980469 10.789062 5.085938 L 8.671875 7.203125 C 8.460938 7.417969 8.460938 7.761719 8.671875 7.980469 L 10.789062 10.097656 C 10.921875 10.242188 11.121094 10.304688 11.320312 10.261719 C 11.414062 10.234375 11.5 10.175781 11.566406 10.097656 L 13.683594 7.980469 C 13.789062 7.875 13.847656 7.738281 13.851562 7.589844 L 13.851562 5.917969 L 16.304688 3.464844 C 16.585938 3.1875 16.585938 2.746094 16.304688 2.464844 C 16.164062 2.324219 15.984375 2.269531 15.800781 2.269531 Z M 7.472656 8.507812 C 7.375 8.542969 7.289062 8.601562 7.222656 8.675781 L 5.105469 10.792969 C 5 10.894531 4.941406 11.039062 4.9375 11.183594 L 4.9375 12.855469 L 2.488281 15.304688 C 2.207031 15.585938 2.207031 16.027344 2.488281 16.308594 C 2.769531 16.589844 3.207031 16.589844 3.488281 16.308594 L 5.941406 13.859375 L 7.613281 13.859375 C 7.757812 13.855469 7.898438 13.796875 8.003906 13.691406 L 10.121094 11.574219 C 10.332031 11.355469 10.332031 11.011719 10.121094 10.792969 L 8.003906 8.675781 C 7.867188 8.53125 7.667969 8.46875 7.472656 8.507812 Z M 7.472656 8.507812 "/>
<path style=" stroke:none;fill-rule:nonzero;fill:rgb(80%,80%,80%);fill-opacity:1;" d="M 12.625 10.292969 C 12.320312 10.292969 12.070312 10.542969 12.070312 10.847656 L 12.070312 12.964844 L 11.734375 12.964844 C 11.425781 12.964844 11.179688 13.214844 11.179688 13.523438 L 11.179688 15.976562 C 11.179688 16.28125 11.425781 16.53125 11.734375 16.53125 L 15.96875 16.53125 C 16.277344 16.53125 16.527344 16.28125 16.527344 15.976562 L 16.527344 13.523438 C 16.527344 13.214844 16.277344 12.964844 15.96875 12.964844 L 15.632812 12.964844 L 15.632812 10.847656 C 15.632812 10.542969 15.386719 10.292969 15.078125 10.292969 Z M 12.960938 11.183594 L 14.742188 11.183594 L 14.742188 12.964844 L 12.960938 12.964844 Z M 12.960938 11.183594 "/>
<path style=" stroke:none;fill-rule:nonzero;fill:rgb(80%,80%,80%);fill-opacity:1;" d="M 10.285156 15.640625 C 10.285156 16.132812 9.886719 16.53125 9.394531 16.53125 C 8.902344 16.53125 8.503906 16.132812 8.503906 15.640625 C 8.503906 15.148438 8.902344 14.75 9.394531 14.75 C 9.886719 14.75 10.285156 15.148438 10.285156 15.640625 Z M 10.285156 15.640625 "/>
<path style=" stroke:none;fill-rule:nonzero;fill:rgb(80%,80%,80%);fill-opacity:1;" d="M 7.613281 15.640625 C 7.613281 16.132812 7.214844 16.53125 6.722656 16.53125 C 6.226562 16.53125 5.828125 16.132812 5.828125 15.640625 C 5.828125 15.148438 6.226562 14.75 6.722656 14.75 C 7.214844 14.75 7.613281 15.148438 7.613281 15.640625 Z M 7.613281 15.640625 "/>
</g>
</svg>
