<?xml version="1.0" encoding="UTF-8"?>
<svg xmlns="http://www.w3.org/2000/svg" xmlns:xlink="http://www.w3.org/1999/xlink" width="19pt" height="19pt" viewBox="0 0 19 19" version="1.1">
<g id="surface1">
<path style=" stroke:none;fill-rule:nonzero;fill:rgb(80%,80%,80%);fill-opacity:0.45098;" d="M 9.402344 2.722656 C 6.625 2.722656 4.09375 3.90625 2.277344 5.839844 L 3.480469 7.117188 C 4.996094 5.507812 7.085938 4.503906 9.402344 4.503906 C 11.714844 4.503906 13.804688 5.507812 15.320312 7.117188 L 16.527344 5.839844 C 14.707031 3.90625 12.179688 2.722656 9.402344 2.722656 Z M 9.402344 5.394531 C 7.316406 5.394531 5.421875 6.28125 4.058594 7.730469 L 5.261719 9.011719 C 6.324219 7.882812 7.78125 7.175781 9.402344 7.175781 C 11.019531 7.175781 12.476562 7.882812 13.539062 9.011719 L 14.746094 7.730469 C 13.378906 6.28125 11.484375 5.394531 9.402344 5.394531 Z M 9.402344 8.066406 C 8.011719 8.066406 6.75 8.65625 5.839844 9.625 L 7.015625 10.878906 C 7.621094 10.230469 8.476562 9.847656 9.402344 9.847656 C 10.328125 9.847656 11.179688 10.230469 11.785156 10.878906 L 12.964844 9.625 C 12.050781 8.65625 10.789062 8.066406 9.402344 8.066406 Z M 9.402344 10.738281 C 8.707031 10.738281 8.074219 11.03125 7.621094 11.515625 L 9.402344 13.410156 L 11.183594 11.515625 C 10.726562 11.03125 10.09375 10.738281 9.402344 10.738281 Z M 9.402344 10.738281 "/>
<path style=" stroke:none;fill-rule:nonzero;fill:rgb(80%,80%,80%);fill-opacity:1;" d="M 12.972656 15.191406 C 12.972656 15.683594 12.574219 16.082031 12.082031 16.082031 C 11.589844 16.082031 11.191406 15.683594 11.191406 15.191406 C 11.191406 14.699219 11.589844 14.300781 12.082031 14.300781 C 12.574219 14.300781 12.972656 14.699219 12.972656 15.191406 Z M 12.972656 15.191406 "/>
<path style=" stroke:none;fill-rule:nonzero;fill:rgb(80%,80%,80%);fill-opacity:1;" d="M 10.300781 15.191406 C 10.300781 15.683594 9.902344 16.082031 9.410156 16.082031 C 8.917969 16.082031 8.519531 15.683594 8.519531 15.191406 C 8.519531 14.699219 8.917969 14.300781 9.410156 14.300781 C 9.902344 14.300781 10.300781 14.699219 10.300781 15.191406 Z M 10.300781 15.191406 "/>
<path style=" stroke:none;fill-rule:nonzero;fill:rgb(80%,80%,80%);fill-opacity:1;" d="M 7.628906 15.191406 C 7.628906 15.683594 7.230469 16.082031 6.738281 16.082031 C 6.246094 16.082031 5.847656 15.683594 5.847656 15.191406 C 5.847656 14.699219 6.246094 14.300781 6.738281 14.300781 C 7.230469 14.300781 7.628906 14.699219 7.628906 15.191406 Z M 7.628906 15.191406 "/>
</g>
</svg>
