<?xml version="1.0" encoding="UTF-8"?>
<svg xmlns="http://www.w3.org/2000/svg" xmlns:xlink="http://www.w3.org/1999/xlink" width="19pt" height="19pt" viewBox="0 0 19 19" version="1.1">
<g id="surface1">
<path style=" stroke:none;fill-rule:nonzero;fill:rgb(80%,80%,80%);fill-opacity:1;" d="M 14.625 3.226562 L 15.574219 3.226562 C 16.101562 3.226562 16.527344 3.652344 16.527344 4.175781 L 16.527344 14.625 C 16.527344 15.152344 16.101562 15.574219 15.574219 15.574219 L 14.625 15.574219 C 14.101562 15.574219 13.675781 15.152344 13.675781 14.625 L 13.675781 4.175781 C 13.675781 3.652344 14.101562 3.226562 14.625 3.226562 Z M 14.625 3.226562 "/>
<path style=" stroke:none;fill-rule:nonzero;fill:rgb(80%,80%,80%);fill-opacity:1;" d="M 10.824219 6.074219 L 11.777344 6.074219 C 12.300781 6.074219 12.726562 6.5 12.726562 7.027344 L 12.726562 14.625 C 12.726562 15.152344 12.300781 15.574219 11.777344 15.574219 L 10.824219 15.574219 C 10.300781 15.574219 9.875 15.152344 9.875 14.625 L 9.875 7.027344 C 9.875 6.5 10.300781 6.074219 10.824219 6.074219 Z M 10.824219 6.074219 "/>
<path style=" stroke:none;fill-rule:nonzero;fill:rgb(80%,80%,80%);fill-opacity:1;" d="M 7.027344 8.925781 L 7.976562 8.925781 C 8.5 8.925781 8.925781 9.351562 8.925781 9.875 L 8.925781 14.625 C 8.925781 15.152344 8.5 15.574219 7.976562 15.574219 L 7.027344 15.574219 C 6.5 15.574219 6.074219 15.152344 6.074219 14.625 L 6.074219 9.875 C 6.074219 9.351562 6.5 8.925781 7.027344 8.925781 Z M 7.027344 8.925781 "/>
<path style=" stroke:none;fill-rule:nonzero;fill:rgb(80%,80%,80%);fill-opacity:1;" d="M 3.226562 11.777344 L 4.175781 11.777344 C 4.699219 11.777344 5.125 12.199219 5.125 12.726562 L 5.125 14.625 C 5.125 15.152344 4.699219 15.574219 4.175781 15.574219 L 3.226562 15.574219 C 2.699219 15.574219 2.277344 15.152344 2.277344 14.625 L 2.277344 12.726562 C 2.277344 12.199219 2.699219 11.777344 3.226562 11.777344 Z M 3.226562 11.777344 "/>
</g>
</svg>
