<?xml version="1.0" encoding="UTF-8"?>
<svg xmlns="http://www.w3.org/2000/svg" xmlns:xlink="http://www.w3.org/1999/xlink" width="19pt" height="19pt" viewBox="0 0 19 19" version="1.1">
<g id="surface1">
<path style=" stroke:none;fill-rule:nonzero;fill:rgb(80%,80%,80%);fill-opacity:1;" d="M 12.972656 15.191406 C 12.972656 15.683594 12.574219 16.082031 12.082031 16.082031 C 11.589844 16.082031 11.191406 15.683594 11.191406 15.191406 C 11.191406 14.699219 11.589844 14.300781 12.082031 14.300781 C 12.574219 14.300781 12.972656 14.699219 12.972656 15.191406 Z M 12.972656 15.191406 "/>
<path style=" stroke:none;fill-rule:nonzero;fill:rgb(80%,80%,80%);fill-opacity:1;" d="M 10.300781 15.191406 C 10.300781 15.683594 9.902344 16.082031 9.410156 16.082031 C 8.917969 16.082031 8.519531 15.683594 8.519531 15.191406 C 8.519531 14.699219 8.917969 14.300781 9.410156 14.300781 C 9.902344 14.300781 10.300781 14.699219 10.300781 15.191406 Z M 10.300781 15.191406 "/>
<path style=" stroke:none;fill-rule:nonzero;fill:rgb(80%,80%,80%);fill-opacity:1;" d="M 7.628906 15.191406 C 7.628906 15.683594 7.230469 16.082031 6.738281 16.082031 C 6.246094 16.082031 5.847656 15.683594 5.847656 15.191406 C 5.847656 14.699219 6.246094 14.300781 6.738281 14.300781 C 7.230469 14.300781 7.628906 14.699219 7.628906 15.191406 Z M 7.628906 15.191406 "/>
<path style=" stroke:none;fill-rule:nonzero;fill:rgb(80%,80%,80%);fill-opacity:0.501961;" d="M 9.402344 2.980469 C 4.574219 2.980469 2.277344 5.652344 2.277344 5.652344 L 9.402344 13.667969 L 16.527344 5.652344 C 16.527344 5.652344 14.285156 2.980469 9.402344 2.980469 Z M 9.402344 2.980469 "/>
</g>
</svg>
