<?xml version="1.0" encoding="UTF-8"?>
<svg xmlns="http://www.w3.org/2000/svg" xmlns:xlink="http://www.w3.org/1999/xlink" width="19pt" height="19pt" viewBox="0 0 19 19" version="1.1">
<g id="surface1">
<path style=" stroke:none;fill-rule:nonzero;fill:rgb(80%,80%,80%);fill-opacity:1;" d="M 4.398438 4.398438 L 4.398438 11.277344 L 7.527344 11.277344 L 8.152344 11.902344 L 10.027344 11.902344 L 10.652344 11.277344 L 10.652344 10.652344 L 5.023438 10.652344 L 5.023438 5.023438 L 13.78125 5.023438 L 13.78125 10.027344 L 14.40625 10.027344 L 14.40625 4.398438 Z M 11.277344 11.277344 L 11.277344 12.527344 L 4.398438 12.527344 L 4.398438 13.15625 L 11.277344 13.15625 L 11.277344 14.40625 L 13.78125 14.40625 L 13.78125 13.78125 L 11.902344 13.78125 L 11.902344 11.902344 L 13.78125 11.902344 L 13.78125 11.277344 Z M 12.527344 12.527344 L 12.527344 13.15625 L 14.40625 13.15625 L 14.40625 12.527344 Z M 8.152344 13.78125 C 7.804688 13.78125 7.527344 14.058594 7.527344 14.40625 L 10.652344 14.40625 C 10.652344 14.058594 10.375 13.78125 10.027344 13.78125 Z M 8.152344 13.78125 "/>
<path style=" stroke:none;fill-rule:nonzero;fill:rgb(80%,80%,80%);fill-opacity:1;" d="M 9.402344 8.777344 C 9.746094 8.777344 10.027344 9.054688 10.027344 9.402344 C 10.027344 9.746094 9.746094 10.027344 9.402344 10.027344 C 9.054688 10.027344 8.777344 9.746094 8.777344 9.402344 C 8.777344 9.054688 9.054688 8.777344 9.402344 8.777344 Z M 9.402344 8.777344 "/>
<path style=" stroke:none;fill-rule:nonzero;fill:rgb(80%,80%,80%);fill-opacity:1;" d="M 9.402344 6.902344 C 8.707031 6.902344 8.082031 7.179688 7.628906 7.628906 L 8.074219 8.074219 C 8.410156 7.734375 8.878906 7.527344 9.402344 7.527344 C 9.921875 7.527344 10.390625 7.734375 10.726562 8.074219 L 11.171875 7.628906 C 10.71875 7.179688 10.09375 6.902344 9.402344 6.902344 Z M 9.402344 6.902344 "/>
<path style=" stroke:none;fill-rule:nonzero;fill:rgb(80%,80%,80%);fill-opacity:1;" d="M 9.402344 5.648438 C 8.363281 5.648438 7.425781 6.066406 6.746094 6.746094 L 7.1875 7.1875 C 7.753906 6.625 8.535156 6.277344 9.402344 6.277344 C 10.265625 6.277344 11.050781 6.625 11.613281 7.1875 L 12.058594 6.746094 C 11.378906 6.066406 10.4375 5.648438 9.402344 5.648438 Z M 9.402344 5.648438 "/>
</g>
</svg>
