<?xml version="1.0" encoding="UTF-8"?>
<svg xmlns="http://www.w3.org/2000/svg" xmlns:xlink="http://www.w3.org/1999/xlink" width="19pt" height="19pt" viewBox="0 0 19 19" version="1.1">
<g id="surface1">
<path style=" stroke:none;fill-rule:nonzero;fill:rgb(80%,80%,80%);fill-opacity:1;" d="M 4.398438 4.398438 L 4.398438 11.277344 L 7.527344 11.277344 L 8.152344 11.902344 L 10.027344 11.902344 L 10.652344 11.277344 L 10.652344 10.652344 L 5.023438 10.652344 L 5.023438 5.023438 L 13.78125 5.023438 L 13.78125 10.027344 L 14.40625 10.027344 L 14.40625 4.398438 Z M 11.277344 11.277344 L 11.277344 12.527344 L 4.398438 12.527344 L 4.398438 13.15625 L 11.277344 13.15625 L 11.277344 14.40625 L 13.78125 14.40625 L 13.78125 13.78125 L 11.902344 13.78125 L 11.902344 11.902344 L 13.78125 11.902344 L 13.78125 11.277344 Z M 12.527344 12.527344 L 12.527344 13.15625 L 14.40625 13.15625 L 14.40625 12.527344 Z M 8.152344 13.78125 C 7.804688 13.78125 7.527344 14.058594 7.527344 14.40625 L 10.652344 14.40625 C 10.652344 14.058594 10.375 13.78125 10.027344 13.78125 Z M 8.152344 13.78125 "/>
<path style=" stroke:none;fill-rule:nonzero;fill:rgb(97.254902%,50.980392%,16.862745%);fill-opacity:1;" d="M 9.402344 5.648438 C 8.707031 5.648438 8.152344 6.207031 8.152344 6.902344 L 8.152344 8.152344 L 7.527344 8.152344 L 7.527344 10.027344 L 11.277344 10.027344 L 11.277344 8.152344 L 10.652344 8.152344 L 10.652344 6.902344 C 10.652344 6.207031 10.09375 5.648438 9.402344 5.648438 Z M 9.402344 6.277344 C 9.746094 6.277344 10.027344 6.550781 10.027344 6.902344 L 10.027344 8.152344 L 8.777344 8.152344 L 8.777344 6.902344 C 8.777344 6.550781 9.054688 6.277344 9.402344 6.277344 Z M 8.152344 8.777344 L 10.652344 8.777344 L 10.652344 9.402344 L 8.152344 9.402344 Z M 8.152344 8.777344 "/>
</g>
</svg>
