<?xml version="1.0" encoding="UTF-8"?>
<svg xmlns="http://www.w3.org/2000/svg" xmlns:xlink="http://www.w3.org/1999/xlink" width="19pt" height="19pt" viewBox="0 0 19 19" version="1.1">
<g id="surface1">
<path style=" stroke:none;fill-rule:nonzero;fill:rgb(80%,80%,80%);fill-opacity:1;" d="M 9.402344 11.902344 C 8.707031 11.902344 8.152344 12.460938 8.152344 13.15625 C 8.152344 13.847656 8.707031 14.40625 9.402344 14.40625 C 10.09375 14.40625 10.652344 13.847656 10.652344 13.15625 C 10.652344 12.460938 10.09375 11.902344 9.402344 11.902344 Z M 9.402344 12.527344 C 9.746094 12.527344 10.027344 12.804688 10.027344 13.15625 C 10.027344 13.5 9.746094 13.78125 9.402344 13.78125 C 9.054688 13.78125 8.777344 13.5 8.777344 13.15625 C 8.777344 12.804688 9.054688 12.527344 9.402344 12.527344 Z M 9.402344 12.527344 "/>
<path style=" stroke:none;fill-rule:nonzero;fill:rgb(80%,80%,80%);fill-opacity:0.501961;" d="M 9.402344 4.398438 C 6.800781 4.398438 4.457031 5.445312 2.761719 7.136719 L 3.203125 7.582031 C 4.789062 6 6.976562 5.023438 9.402344 5.023438 C 11.824219 5.023438 14.015625 6 15.597656 7.582031 L 16.039062 7.136719 C 14.34375 5.445312 12 4.398438 9.402344 4.398438 Z M 9.402344 4.398438 "/>
<path style=" stroke:none;fill-rule:nonzero;fill:rgb(80%,80%,80%);fill-opacity:1;" d="M 9.402344 6.277344 C 7.320312 6.277344 5.445312 7.113281 4.089844 8.46875 L 4.53125 8.910156 C 5.773438 7.667969 7.496094 6.902344 9.402344 6.902344 C 11.308594 6.902344 13.027344 7.667969 14.269531 8.910156 L 14.714844 8.46875 C 13.355469 7.113281 11.480469 6.277344 9.402344 6.277344 Z M 9.402344 6.277344 "/>
<path style=" stroke:none;fill-rule:nonzero;fill:rgb(80%,80%,80%);fill-opacity:1;" d="M 9.402344 8.152344 C 7.84375 8.152344 6.4375 8.777344 5.417969 9.792969 L 5.859375 10.238281 C 6.765625 9.332031 8.015625 8.777344 9.402344 8.777344 C 10.785156 8.777344 12.039062 9.332031 12.941406 10.238281 L 13.382812 9.792969 C 12.367188 8.777344 10.960938 8.152344 9.402344 8.152344 Z M 9.402344 8.152344 "/>
<path style=" stroke:none;fill-rule:nonzero;fill:rgb(80%,80%,80%);fill-opacity:1;" d="M 9.402344 10.027344 C 8.363281 10.027344 7.425781 10.445312 6.746094 11.125 L 7.1875 11.566406 C 7.753906 11 8.535156 10.652344 9.402344 10.652344 C 10.265625 10.652344 11.050781 11 11.613281 11.566406 L 12.058594 11.125 C 11.378906 10.445312 10.4375 10.027344 9.402344 10.027344 Z M 9.402344 10.027344 "/>
</g>
</svg>
