<?xml version="1.0" encoding="UTF-8"?>
<svg xmlns="http://www.w3.org/2000/svg" xmlns:xlink="http://www.w3.org/1999/xlink" width="19pt" height="19pt" viewBox="0 0 19 19" version="1.1">
<g id="surface1">
<path style=" stroke:none;fill-rule:nonzero;fill:rgb(97.254902%,50.980392%,16.862745%);fill-opacity:1;" d="M 15.15625 11.449219 C 14.460938 11.449219 13.90625 12.003906 13.90625 12.699219 L 13.90625 13.949219 L 13.28125 13.949219 L 13.28125 16.453125 L 17.035156 16.453125 L 17.035156 13.949219 L 16.410156 13.949219 L 16.410156 12.699219 C 16.410156 12.003906 15.847656 11.449219 15.15625 11.449219 Z M 15.15625 12.074219 C 15.503906 12.074219 15.785156 12.351562 15.785156 12.699219 L 15.785156 13.949219 L 14.53125 13.949219 L 14.53125 12.699219 C 14.53125 12.351562 14.8125 12.074219 15.15625 12.074219 Z M 13.90625 14.574219 L 16.410156 14.574219 L 16.410156 15.828125 L 13.90625 15.828125 Z M 13.90625 14.574219 "/>
<path style=" stroke:none;fill-rule:nonzero;fill:rgb(20%,20%,20%);fill-opacity:0.901961;" d="M 9.402344 3.949219 C 6.230469 3.949219 3.519531 5.132812 2.277344 6.847656 L 3.296875 7.980469 C 4.339844 6.507812 6.691406 5.484375 9.402344 5.484375 C 12.113281 5.484375 14.460938 6.507812 15.503906 7.980469 L 16.527344 6.847656 C 15.28125 5.132812 12.570312 3.949219 9.402344 3.949219 Z M 9.402344 6.960938 C 7.257812 6.960938 5.382812 7.773438 4.207031 9.003906 L 5.140625 10.050781 C 6.152344 9.105469 7.683594 8.492188 9.402344 8.492188 C 11.121094 8.492188 12.648438 9.105469 13.660156 10.050781 L 14.59375 9.003906 C 13.417969 7.773438 11.542969 6.960938 9.402344 6.960938 Z M 9.402344 9.855469 C 8.097656 9.855469 6.902344 10.289062 5.964844 10.992188 L 6.933594 12.070312 C 7.640625 11.644531 8.492188 11.386719 9.402344 11.386719 C 10.308594 11.386719 11.160156 11.644531 11.871094 12.070312 L 12.839844 10.992188 C 11.898438 10.289062 10.703125 9.855469 9.402344 9.855469 Z M 9.402344 12.839844 C 8.449219 12.832031 8.074219 13.132812 7.980469 13.207031 C 8.03125 13.25 9.402344 14.851562 9.402344 14.851562 C 9.402344 14.851562 10.757812 13.265625 10.820312 13.207031 C 10.75 13.132812 10.339844 12.839844 9.402344 12.839844 Z M 9.402344 12.839844 "/>
</g>
</svg>
