<?xml version="1.0" encoding="UTF-8"?>
<svg xmlns="http://www.w3.org/2000/svg" xmlns:xlink="http://www.w3.org/1999/xlink" width="19pt" height="19pt" viewBox="0 0 19 19" version="1.1">
<g id="surface1">
<path style=" stroke:none;fill-rule:nonzero;fill:rgb(80%,80%,80%);fill-opacity:1;" d="M 9.402344 3.066406 C 5.890625 3.066406 3.066406 5.890625 3.066406 9.402344 C 3.066406 11.15625 3.773438 12.738281 4.917969 13.882812 L 5.476562 13.324219 C 4.476562 12.324219 3.859375 10.9375 3.859375 9.402344 C 3.859375 6.332031 6.332031 3.859375 9.402344 3.859375 C 12.46875 3.859375 14.941406 6.332031 14.941406 9.402344 C 14.941406 10.9375 14.324219 12.324219 13.324219 13.324219 L 13.882812 13.882812 C 15.027344 12.738281 15.734375 11.15625 15.734375 9.402344 C 15.734375 5.890625 12.910156 3.066406 9.402344 3.066406 Z M 9.402344 4.648438 C 6.769531 4.648438 4.648438 6.769531 4.648438 9.402344 C 4.648438 10.714844 5.179688 11.902344 6.039062 12.761719 L 6.601562 12.199219 C 5.886719 11.488281 5.445312 10.496094 5.445312 9.402344 C 5.445312 7.210938 7.210938 5.445312 9.402344 5.445312 C 11.59375 5.445312 13.355469 7.210938 13.355469 9.402344 C 13.355469 10.496094 12.917969 11.488281 12.199219 12.199219 L 12.761719 12.761719 C 13.621094 11.902344 14.152344 10.714844 14.152344 9.402344 C 14.152344 6.769531 12.03125 4.648438 9.402344 4.648438 Z M 9.402344 6.234375 C 7.648438 6.234375 6.234375 7.648438 6.234375 9.402344 C 6.234375 10.277344 6.585938 11.070312 7.160156 11.640625 L 7.722656 11.082031 C 7.292969 10.652344 7.027344 10.058594 7.027344 9.402344 C 7.027344 8.085938 8.085938 7.027344 9.402344 7.027344 C 10.714844 7.027344 11.773438 8.085938 11.773438 9.402344 C 11.773438 10.058594 11.507812 10.652344 11.082031 11.082031 L 11.640625 11.640625 C 12.214844 11.070312 12.566406 10.277344 12.566406 9.402344 C 12.566406 7.648438 11.15625 6.234375 9.402344 6.234375 Z M 9.402344 8.609375 C 8.964844 8.609375 8.609375 8.964844 8.609375 9.402344 C 8.609375 9.421875 8.621094 9.4375 8.621094 9.457031 L 6.914062 15.734375 L 7.734375 15.734375 L 7.820312 15.414062 L 7.835938 15.433594 L 9.402344 13.867188 L 10.964844 15.433594 L 10.984375 15.414062 L 11.070312 15.734375 L 11.890625 15.734375 L 10.179688 9.457031 C 10.179688 9.4375 10.191406 9.421875 10.191406 9.402344 C 10.191406 8.964844 9.835938 8.609375 9.402344 8.609375 Z M 9.25 10.160156 C 9.300781 10.171875 9.347656 10.191406 9.402344 10.191406 C 9.453125 10.191406 9.5 10.171875 9.550781 10.160156 L 10.074219 12.074219 L 9.402344 12.75 L 8.726562 12.074219 Z M 10.3125 12.957031 L 10.578125 13.925781 L 9.960938 13.3125 Z M 8.488281 12.957031 L 8.84375 13.3125 L 8.222656 13.925781 Z M 8.488281 12.957031 "/>
</g>
</svg>
