<?xml version="1.0" encoding="UTF-8"?>
<svg xmlns="http://www.w3.org/2000/svg" xmlns:xlink="http://www.w3.org/1999/xlink" width="19pt" height="19pt" viewBox="0 0 19 19" version="1.1">
<g id="surface1">
<path style=" stroke:none;fill-rule:nonzero;fill:rgb(80%,80%,80%);fill-opacity:1;" d="M 9.402344 4.398438 C 6.628906 4.398438 4.398438 6.628906 4.398438 9.402344 C 4.398438 10.785156 4.953125 12.039062 5.859375 12.941406 L 6.300781 12.5 C 5.511719 11.710938 5.023438 10.613281 5.023438 9.402344 C 5.023438 6.976562 6.976562 5.023438 9.402344 5.023438 C 11.824219 5.023438 13.78125 6.976562 13.78125 9.402344 C 13.78125 10.613281 13.289062 11.710938 12.5 12.5 L 12.941406 12.941406 C 13.847656 12.039062 14.40625 10.785156 14.40625 9.402344 C 14.40625 6.628906 12.171875 4.398438 9.402344 4.398438 Z M 9.402344 5.648438 C 7.320312 5.648438 5.648438 7.320312 5.648438 9.402344 C 5.648438 10.4375 6.066406 11.378906 6.746094 12.058594 L 7.1875 11.613281 C 6.625 11.050781 6.277344 10.265625 6.277344 9.402344 C 6.277344 7.671875 7.671875 6.277344 9.402344 6.277344 C 11.132812 6.277344 12.527344 7.671875 12.527344 9.402344 C 12.527344 10.265625 12.179688 11.050781 11.613281 11.613281 L 12.058594 12.058594 C 12.734375 11.378906 13.15625 10.4375 13.15625 9.402344 C 13.15625 7.320312 11.480469 5.648438 9.402344 5.648438 Z M 9.402344 6.902344 C 8.015625 6.902344 6.902344 8.015625 6.902344 9.402344 C 6.902344 10.09375 7.179688 10.71875 7.628906 11.171875 L 8.074219 10.726562 C 7.734375 10.390625 7.527344 9.921875 7.527344 9.402344 C 7.527344 8.363281 8.363281 7.527344 9.402344 7.527344 C 10.4375 7.527344 11.277344 8.363281 11.277344 9.402344 C 11.277344 9.921875 11.066406 10.390625 10.726562 10.726562 L 11.171875 11.171875 C 11.625 10.71875 11.902344 10.09375 11.902344 9.402344 C 11.902344 8.015625 10.785156 6.902344 9.402344 6.902344 Z M 9.402344 8.777344 C 9.054688 8.777344 8.777344 9.054688 8.777344 9.402344 C 8.777344 9.417969 8.785156 9.429688 8.785156 9.445312 L 7.433594 14.40625 L 8.082031 14.40625 L 8.152344 14.152344 L 8.164062 14.167969 L 9.402344 12.929688 L 10.636719 14.167969 L 10.652344 14.152344 L 10.71875 14.40625 L 11.367188 14.40625 L 10.019531 9.445312 C 10.019531 9.429688 10.027344 9.417969 10.027344 9.402344 C 10.027344 9.054688 9.746094 8.777344 9.402344 8.777344 Z M 9.28125 10 C 9.320312 10.007812 9.359375 10.027344 9.402344 10.027344 C 9.445312 10.027344 9.480469 10.007812 9.519531 10 L 9.933594 11.515625 L 9.402344 12.046875 L 8.871094 11.515625 Z M 10.121094 12.210938 L 10.332031 12.976562 L 9.84375 12.488281 Z M 8.679688 12.210938 L 8.960938 12.488281 L 8.46875 12.976562 Z M 8.679688 12.210938 "/>
</g>
</svg>
