<?xml version="1.0" encoding="UTF-8"?>
<svg xmlns="http://www.w3.org/2000/svg" xmlns:xlink="http://www.w3.org/1999/xlink" width="19pt" height="19pt" viewBox="0 0 19 19" version="1.1">
<defs>
<linearGradient id="linear0" gradientUnits="userSpaceOnUse" x1="11" y1="0" x2="19" y2="0" gradientTransform="matrix(0,-0.59375,0.586873,0,8.973542,24.34375)">
<stop offset="0" style="stop-color:rgb(78.431373%,0%,0%);stop-opacity:1;"/>
<stop offset="1" style="stop-color:rgb(95.294118%,37.647059%,30.196078%);stop-opacity:1;"/>
</linearGradient>
</defs>
<g id="surface1">
<path style=" stroke:none;fill-rule:nonzero;fill:rgb(100%,100%,100%);fill-opacity:0.2;" d="M 14.644531 1.582031 L 16.230469 1.582031 C 16.664062 1.582031 17.019531 1.9375 17.019531 2.375 L 17.019531 16.625 C 17.019531 17.0625 16.664062 17.417969 16.230469 17.417969 L 14.644531 17.417969 C 14.210938 17.417969 13.855469 17.0625 13.855469 16.625 L 13.855469 2.375 C 13.855469 1.9375 14.210938 1.582031 14.644531 1.582031 Z M 14.644531 1.582031 "/>
<path style=" stroke:none;fill-rule:nonzero;fill:rgb(100%,100%,100%);fill-opacity:0.2;" d="M 10.6875 4.75 L 12.269531 4.75 C 12.707031 4.75 13.0625 5.105469 13.0625 5.542969 L 13.0625 16.625 C 13.0625 17.0625 12.707031 17.417969 12.269531 17.417969 L 10.6875 17.417969 C 10.25 17.417969 9.894531 17.0625 9.894531 16.625 L 9.894531 5.542969 C 9.894531 5.105469 10.25 4.75 10.6875 4.75 Z M 10.6875 4.75 "/>
<path style=" stroke:none;fill-rule:nonzero;fill:rgb(100%,100%,100%);fill-opacity:0.2;" d="M 6.730469 7.917969 L 8.3125 7.917969 C 8.75 7.917969 9.105469 8.273438 9.105469 8.707031 L 9.105469 16.625 C 9.105469 17.0625 8.75 17.417969 8.3125 17.417969 L 6.730469 17.417969 C 6.292969 17.417969 5.9375 17.0625 5.9375 16.625 L 5.9375 8.707031 C 5.9375 8.273438 6.292969 7.917969 6.730469 7.917969 Z M 6.730469 7.917969 "/>
<path style=" stroke:none;fill-rule:nonzero;fill:rgb(100%,100%,100%);fill-opacity:0.2;" d="M 2.769531 11.082031 L 4.355469 11.082031 C 4.789062 11.082031 5.144531 11.4375 5.144531 11.875 L 5.144531 16.625 C 5.144531 17.0625 4.789062 17.417969 4.355469 17.417969 L 2.769531 17.417969 C 2.335938 17.417969 1.980469 17.0625 1.980469 16.625 L 1.980469 11.875 C 1.980469 11.4375 2.335938 11.082031 2.769531 11.082031 Z M 2.769531 11.082031 "/>
<path style=" stroke:none;fill-rule:evenodd;fill:rgb(0%,0%,0%);fill-opacity:0.101961;" d="M 14.21875 12.871094 C 14.21875 12.871094 14.199219 12.875 14.199219 12.875 C 14.199219 12.875 14.179688 12.875 14.179688 12.875 C 14.179688 12.875 14.164062 12.882812 14.164062 12.882812 C 14.164062 12.882812 14.140625 12.890625 14.140625 12.890625 C 14.140625 12.890625 14.113281 12.902344 14.113281 12.902344 C 14.113281 12.902344 14.082031 12.914062 14.082031 12.914062 C 14.082031 12.914062 14.058594 12.925781 14.058594 12.925781 C 14.058594 12.925781 14.039062 12.945312 14.039062 12.945312 C 14.039062 12.945312 14.015625 12.957031 14.015625 12.957031 C 14.015625 12.957031 13.996094 12.976562 13.996094 12.976562 C 13.996094 12.976562 13.984375 12.988281 13.976562 12.992188 C 13.976562 12.996094 13.972656 13 13.972656 13 L 12.785156 14.199219 C 12.785156 14.199219 12.757812 14.230469 12.757812 14.230469 C 12.757812 14.230469 12.742188 14.257812 12.742188 14.257812 C 12.742188 14.257812 12.722656 14.289062 12.722656 14.289062 C 12.722656 14.289062 12.703125 14.324219 12.703125 14.324219 C 12.703125 14.324219 12.691406 14.355469 12.691406 14.355469 C 12.691406 14.355469 12.6875 14.390625 12.6875 14.390625 C 12.6875 14.390625 12.679688 14.429688 12.679688 14.429688 C 12.679688 14.429688 12.679688 14.46875 12.679688 14.46875 C 12.679688 14.464844 12.679688 14.503906 12.679688 14.503906 C 12.679688 14.503906 12.6875 14.539062 12.6875 14.539062 C 12.6875 14.539062 12.691406 14.578125 12.691406 14.578125 C 12.691406 14.578125 12.703125 14.609375 12.703125 14.609375 C 12.703125 14.609375 12.722656 14.648438 12.722656 14.644531 C 12.722656 14.644531 12.742188 14.675781 12.742188 14.675781 C 12.742188 14.675781 12.757812 14.703125 12.757812 14.703125 C 12.757812 14.703125 12.785156 14.734375 12.785156 14.734375 L 13.675781 15.636719 L 12.785156 16.539062 C 12.785156 16.539062 12.757812 16.570312 12.757812 16.570312 C 12.757812 16.570312 12.742188 16.59375 12.742188 16.59375 C 12.742188 16.59375 12.722656 16.625 12.722656 16.625 C 12.722656 16.625 12.703125 16.664062 12.703125 16.664062 C 12.703125 16.664062 12.691406 16.695312 12.691406 16.695312 C 12.691406 16.691406 12.6875 16.730469 12.6875 16.730469 C 12.6875 16.730469 12.679688 16.765625 12.679688 16.765625 C 12.679688 16.765625 12.679688 16.804688 12.679688 16.804688 C 12.679688 16.804688 12.679688 16.84375 12.679688 16.84375 C 12.679688 16.839844 12.6875 16.878906 12.6875 16.878906 C 12.6875 16.878906 12.691406 16.914062 12.691406 16.914062 C 12.691406 16.914062 12.703125 16.945312 12.703125 16.945312 C 12.703125 16.945312 12.722656 16.984375 12.722656 16.984375 C 12.722656 16.984375 12.742188 17.015625 12.742188 17.015625 C 12.742188 17.015625 12.757812 17.039062 12.757812 17.039062 C 12.757812 17.039062 12.785156 17.070312 12.785156 17.070312 L 13.976562 18.277344 C 13.976562 18.277344 14.003906 18.300781 14.003906 18.300781 C 14 18.300781 14.035156 18.328125 14.03125 18.328125 C 14.03125 18.328125 14.0625 18.34375 14.0625 18.34375 C 14.0625 18.34375 14.101562 18.363281 14.101562 18.363281 C 14.101562 18.363281 14.140625 18.375 14.140625 18.375 C 14.140625 18.375 14.171875 18.386719 14.171875 18.386719 C 14.167969 18.386719 14.207031 18.394531 14.207031 18.394531 C 14.207031 18.394531 14.25 18.394531 14.25 18.394531 C 14.25 18.394531 14.289062 18.394531 14.289062 18.394531 C 14.289062 18.394531 14.324219 18.386719 14.324219 18.386719 C 14.324219 18.386719 14.359375 18.382812 14.359375 18.382812 C 14.359375 18.382812 14.390625 18.367188 14.390625 18.367188 C 14.390625 18.367188 14.429688 18.355469 14.429688 18.355469 C 14.429688 18.355469 14.460938 18.335938 14.460938 18.335938 C 14.460938 18.335938 14.492188 18.3125 14.492188 18.3125 C 14.492188 18.3125 14.523438 18.289062 14.523438 18.289062 L 15.429688 17.386719 L 16.304688 18.277344 C 16.304688 18.277344 16.316406 18.289062 16.316406 18.289062 C 16.316406 18.289062 16.335938 18.300781 16.335938 18.300781 C 16.335938 18.300781 16.347656 18.3125 16.347656 18.3125 C 16.347656 18.3125 16.367188 18.328125 16.367188 18.328125 C 16.367188 18.328125 16.378906 18.335938 16.378906 18.335938 C 16.378906 18.335938 16.398438 18.351562 16.398438 18.351562 C 16.398438 18.351562 16.414062 18.355469 16.414062 18.355469 C 16.414062 18.355469 16.433594 18.363281 16.433594 18.363281 C 16.433594 18.363281 16.445312 18.367188 16.445312 18.367188 C 16.445312 18.367188 16.464844 18.375 16.464844 18.375 C 16.464844 18.375 16.484375 18.382812 16.484375 18.382812 C 16.484375 18.382812 16.507812 18.386719 16.507812 18.386719 C 16.507812 18.386719 16.527344 18.394531 16.527344 18.394531 C 16.527344 18.394531 16.546875 18.394531 16.546875 18.394531 C 16.546875 18.394531 16.5625 18.394531 16.5625 18.394531 C 16.5625 18.394531 16.582031 18.394531 16.582031 18.394531 C 16.582031 18.394531 16.601562 18.394531 16.601562 18.394531 C 16.601562 18.394531 16.617188 18.394531 16.617188 18.394531 C 16.617188 18.394531 16.636719 18.394531 16.636719 18.394531 C 16.636719 18.394531 16.65625 18.386719 16.65625 18.386719 C 16.65625 18.386719 16.679688 18.382812 16.679688 18.382812 C 16.679688 18.382812 16.699219 18.375 16.699219 18.375 C 16.699219 18.375 16.71875 18.367188 16.71875 18.367188 C 16.71875 18.367188 16.730469 18.363281 16.730469 18.363281 C 16.730469 18.363281 16.75 18.355469 16.75 18.355469 C 16.75 18.355469 16.765625 18.351562 16.765625 18.351562 C 16.765625 18.351562 16.785156 18.335938 16.785156 18.335938 C 16.785156 18.335938 16.796875 18.328125 16.796875 18.328125 C 16.796875 18.328125 16.816406 18.3125 16.816406 18.3125 C 16.816406 18.3125 16.828125 18.300781 16.828125 18.300781 C 16.828125 18.300781 16.847656 18.289062 16.847656 18.289062 C 16.847656 18.289062 16.859375 18.277344 16.859375 18.277344 L 18.089844 17.03125 C 18.089844 17.03125 18.117188 17 18.117188 17 C 18.117188 17.003906 18.140625 16.96875 18.140625 16.972656 C 18.140625 16.972656 18.160156 16.941406 18.160156 16.941406 C 18.160156 16.941406 18.171875 16.902344 18.171875 16.902344 C 18.171875 16.902344 18.183594 16.871094 18.183594 16.871094 C 18.183594 16.875 18.1875 16.835938 18.1875 16.835938 C 18.1875 16.835938 18.195312 16.796875 18.195312 16.796875 C 18.195312 16.796875 18.195312 16.761719 18.195312 16.761719 C 18.195312 16.761719 18.195312 16.71875 18.195312 16.71875 C 18.195312 16.71875 18.1875 16.679688 18.1875 16.679688 C 18.1875 16.679688 18.179688 16.648438 18.179688 16.648438 C 18.179688 16.648438 18.164062 16.613281 18.164062 16.613281 C 18.164062 16.613281 18.148438 16.574219 18.148438 16.574219 C 18.148438 16.578125 18.128906 16.542969 18.128906 16.546875 C 18.128906 16.546875 18.101562 16.515625 18.101562 16.515625 C 18.101562 16.515625 18.078125 16.488281 18.078125 16.488281 L 17.207031 15.636719 L 18.078125 14.78125 C 18.078125 14.78125 18.101562 14.757812 18.101562 14.757812 C 18.101562 14.757812 18.128906 14.726562 18.128906 14.726562 C 18.128906 14.726562 18.148438 14.695312 18.148438 14.695312 C 18.148438 14.695312 18.164062 14.65625 18.164062 14.65625 C 18.164062 14.65625 18.179688 14.621094 18.179688 14.621094 C 18.179688 14.621094 18.1875 14.589844 18.1875 14.589844 C 18.1875 14.589844 18.195312 14.554688 18.195312 14.554688 C 18.195312 14.554688 18.195312 14.507812 18.195312 14.507812 C 18.195312 14.507812 18.195312 14.472656 18.195312 14.472656 C 18.195312 14.472656 18.1875 14.4375 18.1875 14.4375 C 18.1875 14.4375 18.183594 14.398438 18.183594 14.398438 C 18.183594 14.398438 18.171875 14.367188 18.171875 14.367188 C 18.171875 14.367188 18.160156 14.328125 18.160156 14.328125 C 18.160156 14.332031 18.140625 14.296875 18.140625 14.300781 C 18.140625 14.300781 18.117188 14.269531 18.117188 14.269531 C 18.117188 14.269531 18.089844 14.238281 18.089844 14.238281 L 16.859375 12.992188 C 16.859375 12.992188 16.847656 12.984375 16.847656 12.984375 C 16.847656 12.984375 16.828125 12.96875 16.828125 12.96875 C 16.828125 12.96875 16.816406 12.957031 16.816406 12.957031 C 16.816406 12.957031 16.796875 12.945312 16.796875 12.945312 C 16.796875 12.945312 16.785156 12.933594 16.785156 12.933594 C 16.785156 12.933594 16.765625 12.921875 16.765625 12.921875 C 16.765625 12.921875 16.75 12.914062 16.75 12.914062 C 16.75 12.914062 16.730469 12.90625 16.730469 12.90625 C 16.730469 12.90625 16.71875 12.902344 16.71875 12.902344 C 16.71875 12.902344 16.699219 12.894531 16.699219 12.894531 C 16.699219 12.894531 16.679688 12.890625 16.679688 12.890625 C 16.679688 12.890625 16.65625 12.882812 16.65625 12.882812 C 16.65625 12.882812 16.636719 12.875 16.636719 12.875 C 16.636719 12.875 16.617188 12.875 16.617188 12.875 C 16.617188 12.875 16.601562 12.875 16.601562 12.875 C 16.601562 12.875 16.582031 12.875 16.582031 12.875 C 16.582031 12.875 16.5625 12.875 16.5625 12.875 C 16.5625 12.875 16.546875 12.875 16.546875 12.875 C 16.546875 12.875 16.527344 12.875 16.527344 12.875 C 16.527344 12.875 16.507812 12.882812 16.507812 12.882812 C 16.507812 12.882812 16.484375 12.890625 16.484375 12.890625 C 16.484375 12.890625 16.464844 12.894531 16.464844 12.894531 C 16.464844 12.894531 16.445312 12.902344 16.445312 12.902344 C 16.445312 12.902344 16.433594 12.90625 16.433594 12.90625 C 16.433594 12.90625 16.414062 12.914062 16.414062 12.914062 C 16.414062 12.914062 16.398438 12.921875 16.398438 12.921875 C 16.398438 12.921875 16.378906 12.933594 16.378906 12.933594 C 16.378906 12.933594 16.367188 12.945312 16.367188 12.945312 C 16.367188 12.945312 16.347656 12.957031 16.347656 12.957031 C 16.347656 12.957031 16.335938 12.96875 16.335938 12.96875 C 16.335938 12.96875 16.316406 12.984375 16.316406 12.984375 C 16.316406 12.984375 16.304688 12.992188 16.304688 12.992188 L 15.429688 13.882812 L 14.527344 12.988281 C 14.527344 12.988281 14.523438 12.984375 14.523438 12.984375 C 14.515625 12.976562 14.507812 12.96875 14.507812 12.96875 C 14.507812 12.96875 14.496094 12.957031 14.496094 12.957031 C 14.496094 12.957031 14.484375 12.945312 14.484375 12.945312 C 14.484375 12.945312 14.46875 12.9375 14.46875 12.9375 C 14.46875 12.9375 14.449219 12.925781 14.449219 12.925781 C 14.449219 12.925781 14.4375 12.914062 14.4375 12.914062 C 14.4375 12.914062 14.417969 12.90625 14.417969 12.90625 C 14.417969 12.90625 14.398438 12.902344 14.398438 12.902344 C 14.398438 12.902344 14.378906 12.894531 14.378906 12.894531 C 14.378906 12.894531 14.359375 12.890625 14.359375 12.890625 C 14.359375 12.890625 14.34375 12.882812 14.34375 12.882812 C 14.34375 12.882812 14.324219 12.875 14.324219 12.875 C 14.324219 12.875 14.304688 12.875 14.304688 12.875 C 14.304688 12.875 14.289062 12.871094 14.289062 12.871094 C 14.289062 12.871094 14.269531 12.871094 14.269531 12.871094 C 14.269531 12.871094 14.25 12.871094 14.25 12.871094 C 14.246094 12.871094 14.242188 12.871094 14.238281 12.871094 C 14.238281 12.871094 14.21875 12.871094 14.21875 12.871094 Z M 14.21875 12.871094 "/>
<path style=" stroke:none;fill-rule:evenodd;fill:rgb(0%,0%,0%);fill-opacity:0.14902;" d="M 14.210938 13.074219 C 14.175781 13.085938 14.144531 13.101562 14.121094 13.132812 L 12.925781 14.335938 C 12.859375 14.410156 12.859375 14.523438 12.925781 14.597656 L 13.953125 15.636719 L 12.925781 16.675781 C 12.859375 16.746094 12.859375 16.859375 12.925781 16.933594 L 14.121094 18.140625 C 14.191406 18.214844 14.3125 18.21875 14.386719 18.148438 L 15.429688 17.109375 L 16.445312 18.140625 C 16.480469 18.179688 16.53125 18.199219 16.582031 18.199219 C 16.632812 18.199219 16.683594 18.179688 16.71875 18.140625 L 17.949219 16.898438 C 18.019531 16.820312 18.015625 16.703125 17.941406 16.632812 L 16.921875 15.636719 L 17.941406 14.640625 C 18.015625 14.566406 18.019531 14.449219 17.949219 14.375 L 16.71875 13.132812 C 16.683594 13.09375 16.632812 13.070312 16.582031 13.070312 C 16.53125 13.070312 16.480469 13.09375 16.445312 13.132812 L 15.429688 14.164062 L 14.386719 13.125 C 14.339844 13.078125 14.273438 13.0625 14.210938 13.074219 Z M 14.210938 13.074219 "/>
<path style=" stroke:none;fill-rule:evenodd;fill:rgb(0%,0%,0%);fill-opacity:0.298039;" d="M 13.0625 16.804688 L 14.253906 18.011719 L 15.429688 16.84375 L 16.585938 18.011719 L 17.8125 16.765625 L 16.65625 15.636719 L 17.8125 14.503906 L 16.585938 13.261719 L 15.429688 14.429688 L 14.253906 13.261719 L 13.0625 14.46875 L 14.21875 15.636719 Z M 13.0625 16.804688 "/>
<path style=" stroke:none;fill-rule:evenodd;fill:url(#linear0);" d="M 13.0625 16.605469 L 14.253906 17.8125 L 15.429688 16.644531 L 16.585938 17.8125 L 17.8125 16.570312 L 16.65625 15.4375 L 17.8125 14.304688 L 16.585938 13.0625 L 15.429688 14.230469 L 14.253906 13.0625 L 13.0625 14.269531 L 14.21875 15.4375 Z M 13.0625 16.605469 "/>
<path style=" stroke:none;fill-rule:evenodd;fill:rgb(100%,100%,100%);fill-opacity:0.2;" d="M 14.257812 13.0625 L 13.0625 14.269531 L 13.261719 14.46875 L 14.257812 13.457031 L 15.429688 14.625 L 16.582031 13.457031 L 17.613281 14.496094 L 17.8125 14.304688 L 16.582031 13.0625 L 15.429688 14.230469 Z M 14.21875 15.433594 L 13.0625 16.605469 L 13.261719 16.804688 L 14.21875 15.832031 Z M 16.660156 15.441406 L 16.65625 15.832031 L 17.613281 16.773438 L 17.8125 16.570312 Z M 16.660156 15.441406 "/>
</g>
</svg>
