<?xml version="1.0" encoding="UTF-8"?>
<svg xmlns="http://www.w3.org/2000/svg" xmlns:xlink="http://www.w3.org/1999/xlink" width="19pt" height="19pt" viewBox="0 0 19 19" version="1.1">
<defs>
<linearGradient id="linear0" gradientUnits="userSpaceOnUse" x1="0" y1="-2" x2="0" y2="-66" gradientTransform="matrix(0.197917,0,0,0.197917,-3.166667,17.8125)">
<stop offset="0" style="stop-color:rgb(66.666667%,66.666667%,66.666667%);stop-opacity:1;"/>
<stop offset="1" style="stop-color:rgb(94.117647%,94.117647%,94.117647%);stop-opacity:1;"/>
</linearGradient>
<linearGradient id="linear1" gradientUnits="userSpaceOnUse" x1="0" y1="-2" x2="0" y2="-50" gradientTransform="matrix(0.197917,0,0,0.197917,-2.375,17.8125)">
<stop offset="0" style="stop-color:rgb(66.666667%,66.666667%,66.666667%);stop-opacity:1;"/>
<stop offset="1" style="stop-color:rgb(94.117647%,94.117647%,94.117647%);stop-opacity:1;"/>
</linearGradient>
<linearGradient id="linear2" gradientUnits="userSpaceOnUse" x1="0" y1="-2" x2="0" y2="-34" gradientTransform="matrix(0.197917,0,0,0.197917,-1.583333,17.8125)">
<stop offset="0" style="stop-color:rgb(66.666667%,66.666667%,66.666667%);stop-opacity:1;"/>
<stop offset="1" style="stop-color:rgb(94.117647%,94.117647%,94.117647%);stop-opacity:1;"/>
</linearGradient>
<linearGradient id="linear3" gradientUnits="userSpaceOnUse" x1="0" y1="-50" x2="0" y2="14.01" gradientTransform="matrix(0.197917,0,0,0.197917,0,14.645833)">
<stop offset="0" style="stop-color:rgb(100%,100%,100%);stop-opacity:0.6;"/>
<stop offset="1" style="stop-color:rgb(100%,100%,100%);stop-opacity:0;"/>
</linearGradient>
<linearGradient id="linear4" gradientUnits="userSpaceOnUse" x1="0" y1="-34" x2="0" y2="14.01" gradientTransform="matrix(0.197917,0,0,0.197917,0,14.645833)">
<stop offset="0" style="stop-color:rgb(100%,100%,100%);stop-opacity:0.6;"/>
<stop offset="1" style="stop-color:rgb(100%,100%,100%);stop-opacity:0;"/>
</linearGradient>
<linearGradient id="linear5" gradientUnits="userSpaceOnUse" x1="0" y1="-18" x2="0" y2="14.14" gradientTransform="matrix(0.197917,0,0,0.197917,0,14.645833)">
<stop offset="0" style="stop-color:rgb(100%,100%,100%);stop-opacity:0.6;"/>
<stop offset="1" style="stop-color:rgb(100%,100%,100%);stop-opacity:0;"/>
</linearGradient>
</defs>
<g id="surface1">
<path style=" stroke:none;fill-rule:nonzero;fill:rgb(0%,0%,0%);fill-opacity:0.0784314;" d="M 10.6875 4.34375 C 9.917969 4.34375 9.289062 4.972656 9.289062 5.738281 L 9.289062 7.910156 C 9.039062 7.664062 8.691406 7.507812 8.3125 7.507812 L 6.730469 7.507812 C 5.960938 7.507812 5.332031 8.136719 5.332031 8.90625 L 5.332031 11.078125 C 5.078125 10.828125 4.734375 10.675781 4.355469 10.675781 L 2.769531 10.675781 C 2.003906 10.675781 1.375 11.304688 1.375 12.074219 L 1.375 16.824219 C 1.375 17.589844 2.003906 18.21875 2.769531 18.21875 L 4.355469 18.21875 C 4.867188 18.21875 5.296875 17.929688 5.542969 17.515625 C 5.785156 17.929688 6.21875 18.21875 6.730469 18.21875 L 8.3125 18.21875 C 8.824219 18.21875 9.257812 17.929688 9.5 17.515625 C 9.742188 17.929688 10.175781 18.21875 10.6875 18.21875 L 12.269531 18.21875 C 13.039062 18.21875 13.667969 17.589844 13.667969 16.824219 L 13.667969 5.738281 C 13.667969 4.972656 13.039062 4.34375 12.269531 4.34375 Z M 10.6875 4.34375 "/>
<path style=" stroke:none;fill-rule:nonzero;fill:rgb(0%,0%,0%);fill-opacity:0.101961;" d="M 10.6875 4.558594 C 10.039062 4.558594 9.507812 5.089844 9.507812 5.738281 L 9.507812 16.824219 C 9.507812 17.472656 10.039062 18.003906 10.6875 18.003906 L 12.269531 18.003906 C 12.921875 18.003906 13.453125 17.472656 13.453125 16.824219 L 13.453125 5.738281 C 13.453125 5.089844 12.921875 4.558594 12.269531 4.558594 Z M 6.730469 7.726562 C 6.078125 7.726562 5.546875 8.257812 5.546875 8.90625 L 5.546875 16.824219 C 5.546875 17.472656 6.078125 18.003906 6.730469 18.003906 L 8.3125 18.003906 C 8.960938 18.003906 9.492188 17.472656 9.492188 16.824219 L 9.492188 8.90625 C 9.492188 8.257812 8.960938 7.726562 8.3125 7.726562 Z M 2.769531 10.890625 C 2.121094 10.890625 1.589844 11.421875 1.589844 12.074219 L 1.589844 16.824219 C 1.589844 17.472656 2.121094 18.003906 2.769531 18.003906 L 4.355469 18.003906 C 5.003906 18.003906 5.535156 17.472656 5.535156 16.824219 L 5.535156 12.074219 C 5.535156 11.421875 5.003906 10.890625 4.355469 10.890625 Z M 2.769531 10.890625 "/>
<path style=" stroke:none;fill-rule:nonzero;fill:rgb(0%,0%,0%);fill-opacity:0.14902;" d="M 10.6875 4.742188 C 10.140625 4.742188 9.691406 5.191406 9.691406 5.738281 L 9.691406 16.824219 C 9.691406 17.371094 10.140625 17.820312 10.6875 17.820312 L 12.269531 17.820312 C 12.816406 17.820312 13.265625 17.371094 13.265625 16.824219 L 13.265625 5.738281 C 13.265625 5.191406 12.816406 4.742188 12.269531 4.742188 Z M 6.730469 7.910156 C 6.183594 7.910156 5.734375 8.359375 5.734375 8.90625 L 5.734375 16.824219 C 5.734375 17.371094 6.183594 17.820312 6.730469 17.820312 L 8.3125 17.820312 C 8.859375 17.820312 9.308594 17.371094 9.308594 16.824219 L 9.308594 8.90625 C 9.308594 8.359375 8.859375 7.910156 8.3125 7.910156 Z M 2.769531 11.078125 C 2.222656 11.078125 1.773438 11.527344 1.773438 12.074219 L 1.773438 16.824219 C 1.773438 17.371094 2.222656 17.820312 2.769531 17.820312 L 4.355469 17.820312 C 4.902344 17.820312 5.351562 17.371094 5.351562 16.824219 L 5.351562 12.074219 C 5.351562 11.527344 4.902344 11.078125 4.355469 11.078125 Z M 2.769531 11.078125 "/>
<path style=" stroke:none;fill-rule:nonzero;fill:rgb(0%,0%,0%);fill-opacity:0.298039;" d="M 10.6875 4.949219 C 10.25 4.949219 9.894531 5.300781 9.894531 5.738281 L 9.894531 16.824219 C 9.894531 17.261719 10.25 17.613281 10.6875 17.613281 L 12.269531 17.613281 C 12.710938 17.613281 13.0625 17.261719 13.0625 16.824219 L 13.0625 5.738281 C 13.0625 5.300781 12.710938 4.949219 12.269531 4.949219 Z M 6.730469 8.113281 C 6.289062 8.113281 5.9375 8.46875 5.9375 8.90625 L 5.9375 16.824219 C 5.9375 17.261719 6.289062 17.613281 6.730469 17.613281 L 8.3125 17.613281 C 8.75 17.613281 9.105469 17.261719 9.105469 16.824219 L 9.105469 8.90625 C 9.105469 8.46875 8.75 8.113281 8.3125 8.113281 Z M 2.769531 11.28125 C 2.332031 11.28125 1.980469 11.632812 1.980469 12.074219 L 1.980469 16.824219 C 1.980469 17.261719 2.332031 17.613281 2.769531 17.613281 L 4.355469 17.613281 C 4.792969 17.613281 5.144531 17.261719 5.144531 16.824219 L 5.144531 12.074219 C 5.144531 11.632812 4.792969 11.28125 4.355469 11.28125 Z M 2.769531 11.28125 "/>
<path style=" stroke:none;fill-rule:nonzero;fill:rgb(100%,100%,100%);fill-opacity:0.2;" d="M 14.644531 1.582031 L 16.230469 1.582031 C 16.664062 1.582031 17.019531 1.9375 17.019531 2.375 L 17.019531 16.625 C 17.019531 17.0625 16.664062 17.417969 16.230469 17.417969 L 14.644531 17.417969 C 14.210938 17.417969 13.855469 17.0625 13.855469 16.625 L 13.855469 2.375 C 13.855469 1.9375 14.210938 1.582031 14.644531 1.582031 Z M 14.644531 1.582031 "/>
<path style=" stroke:none;fill-rule:nonzero;fill:url(#linear0);" d="M 10.6875 4.75 L 12.269531 4.75 C 12.707031 4.75 13.0625 5.105469 13.0625 5.542969 L 13.0625 16.625 C 13.0625 17.0625 12.707031 17.417969 12.269531 17.417969 L 10.6875 17.417969 C 10.25 17.417969 9.894531 17.0625 9.894531 16.625 L 9.894531 5.542969 C 9.894531 5.105469 10.25 4.75 10.6875 4.75 Z M 10.6875 4.75 "/>
<path style=" stroke:none;fill-rule:nonzero;fill:url(#linear1);" d="M 6.730469 7.917969 L 8.3125 7.917969 C 8.75 7.917969 9.105469 8.273438 9.105469 8.707031 L 9.105469 16.625 C 9.105469 17.0625 8.75 17.417969 8.3125 17.417969 L 6.730469 17.417969 C 6.292969 17.417969 5.9375 17.0625 5.9375 16.625 L 5.9375 8.707031 C 5.9375 8.273438 6.292969 7.917969 6.730469 7.917969 Z M 6.730469 7.917969 "/>
<path style=" stroke:none;fill-rule:nonzero;fill:url(#linear2);" d="M 2.769531 11.082031 L 4.355469 11.082031 C 4.789062 11.082031 5.144531 11.4375 5.144531 11.875 L 5.144531 16.625 C 5.144531 17.0625 4.789062 17.417969 4.355469 17.417969 L 2.769531 17.417969 C 2.335938 17.417969 1.980469 17.0625 1.980469 16.625 L 1.980469 11.875 C 1.980469 11.4375 2.335938 11.082031 2.769531 11.082031 Z M 2.769531 11.082031 "/>
<path style=" stroke:none;fill-rule:nonzero;fill:url(#linear3);" d="M 10.6875 4.75 C 10.25 4.75 9.894531 5.101562 9.894531 5.542969 L 9.894531 16.625 C 9.894531 16.980469 10.128906 17.273438 10.453125 17.375 C 10.234375 17.28125 10.085938 17.074219 10.085938 16.824219 L 10.085938 5.738281 C 10.085938 5.402344 10.351562 5.140625 10.6875 5.140625 L 12.269531 5.140625 C 12.605469 5.140625 12.871094 5.402344 12.871094 5.738281 L 12.871094 16.824219 C 12.871094 17.074219 12.722656 17.28125 12.507812 17.375 C 12.828125 17.273438 13.0625 16.980469 13.0625 16.625 L 13.0625 5.542969 C 13.0625 5.101562 12.710938 4.75 12.269531 4.75 Z M 10.6875 4.75 "/>
<path style=" stroke:none;fill-rule:nonzero;fill:url(#linear4);" d="M 6.730469 7.917969 C 6.289062 7.917969 5.9375 8.269531 5.9375 8.707031 L 5.9375 16.625 C 5.9375 16.980469 6.171875 17.273438 6.492188 17.375 C 6.277344 17.28125 6.128906 17.074219 6.128906 16.824219 L 6.128906 8.90625 C 6.128906 8.570312 6.394531 8.304688 6.730469 8.304688 L 8.3125 8.304688 C 8.648438 8.304688 8.914062 8.570312 8.914062 8.90625 L 8.914062 16.824219 C 8.914062 17.074219 8.765625 17.28125 8.546875 17.375 C 8.871094 17.273438 9.105469 16.980469 9.105469 16.625 L 9.105469 8.707031 C 9.105469 8.269531 8.75 7.917969 8.3125 7.917969 Z M 6.730469 7.917969 "/>
<path style=" stroke:none;fill-rule:nonzero;fill:url(#linear5);" d="M 2.769531 11.082031 C 2.332031 11.082031 1.980469 11.4375 1.980469 11.875 L 1.980469 16.625 C 1.980469 16.980469 2.214844 17.273438 2.535156 17.375 C 2.320312 17.28125 2.171875 17.074219 2.171875 16.824219 L 2.171875 12.074219 C 2.171875 11.738281 2.433594 11.472656 2.769531 11.472656 L 4.355469 11.472656 C 4.691406 11.472656 4.953125 11.738281 4.953125 12.074219 L 4.953125 16.824219 C 4.953125 17.074219 4.804688 17.28125 4.589844 17.375 C 4.910156 17.273438 5.144531 16.980469 5.144531 16.625 L 5.144531 11.875 C 5.144531 11.4375 4.792969 11.082031 4.355469 11.082031 Z M 2.769531 11.082031 "/>
</g>
</svg>
