<?xml version="1.0" encoding="UTF-8"?>
<svg xmlns="http://www.w3.org/2000/svg" xmlns:xlink="http://www.w3.org/1999/xlink" width="19pt" height="19pt" viewBox="0 0 19 19" version="1.1">
<g id="surface3">
<path style=" stroke:none;fill-rule:nonzero;fill:rgb(80%,80%,80%);fill-opacity:1;" d="M 5.429688 2.929688 L 5.429688 4.964844 L 13.570312 4.964844 L 13.570312 2.929688 Z M 3.390625 5.980469 C 2.882812 5.980469 2.375 6.492188 2.375 7 L 2.375 11.070312 C 2.375 11.578125 2.882812 12.089844 3.390625 12.089844 L 4.410156 12.089844 L 4.410156 10.054688 L 11.535156 10.054688 L 11.535156 8.015625 L 15.605469 8.015625 L 15.605469 12.089844 C 16.117188 12.089844 16.625 11.578125 16.625 11.070312 L 16.625 7 C 16.625 6.492188 16.117188 5.980469 15.605469 5.980469 Z M 5.429688 11.070312 L 5.429688 16.160156 L 11.535156 16.160156 L 11.535156 11.070312 Z M 5.429688 11.070312 "/>
<path style=" stroke:none;fill-rule:nonzero;fill:rgb(90.588235%,29.803922%,23.529412%);fill-opacity:1;" d="M 12.554688 9.035156 L 12.554688 13.121094 L 12.808594 15.140625 L 14.335938 15.140625 L 14.589844 13.105469 L 14.589844 9.035156 Z M 12.554688 16.160156 L 12.554688 18.195312 L 14.589844 18.195312 L 14.589844 16.160156 Z M 12.554688 16.160156 "/>
</g>
</svg>
