<?xml version="1.0" encoding="UTF-8"?>
<svg xmlns="http://www.w3.org/2000/svg" xmlns:xlink="http://www.w3.org/1999/xlink" width="19pt" height="19pt" viewBox="0 0 19 19" version="1.1">
<g id="surface4">
<path style=" stroke:none;fill-rule:nonzero;fill:rgb(80%,80%,80%);fill-opacity:1;" d="M 3.394531 5.9375 C 2.882812 5.9375 2.375 6.445312 2.375 6.957031 L 2.375 11.027344 C 2.375 11.535156 2.882812 12.042969 3.394531 12.042969 L 4.410156 12.042969 L 4.410156 10.007812 L 14.589844 10.007812 L 14.589844 12.042969 L 15.605469 12.042969 C 16.117188 12.042969 16.625 11.535156 16.625 11.027344 L 16.625 6.957031 C 16.625 6.445312 16.117188 5.9375 15.605469 5.9375 Z M 3.394531 5.9375 "/>
<path style=" stroke:none;fill-rule:nonzero;fill:rgb(80%,80%,80%);fill-opacity:1;" d="M 5.429688 2.882812 L 5.429688 4.917969 L 13.570312 4.917969 L 13.570312 2.882812 Z M 5.429688 2.882812 "/>
<path style=" stroke:none;fill-rule:nonzero;fill:rgb(80%,80%,80%);fill-opacity:1;" d="M 5.429688 11.027344 L 5.429688 16.117188 L 13.570312 16.117188 L 13.570312 11.027344 Z M 5.429688 11.027344 "/>
</g>
</svg>
