<?xml version="1.0" encoding="UTF-8"?>
<svg xmlns="http://www.w3.org/2000/svg" xmlns:xlink="http://www.w3.org/1999/xlink" width="19pt" height="19pt" viewBox="0 0 19 19" version="1.1">
<defs>
<linearGradient id="linear0" gradientUnits="userSpaceOnUse" x1="8" y1="0" x2="88" y2="0" gradientTransform="matrix(0,-0.197917,0.197917,0,0,19)">
<stop offset="0" style="stop-color:rgb(66.666667%,66.666667%,66.666667%);stop-opacity:1;"/>
<stop offset="1" style="stop-color:rgb(94.117647%,94.117647%,94.117647%);stop-opacity:1;"/>
</linearGradient>
</defs>
<g id="surface1">
<path style=" stroke:none;fill-rule:nonzero;fill:rgb(100%,100%,100%);fill-opacity:0.298039;" d="M 15.832031 9.5 C 15.832031 13 13 15.832031 9.5 15.832031 C 6 15.832031 3.167969 13 3.167969 9.5 C 3.167969 6 6 3.167969 9.5 3.167969 L 9.5 9.5 Z M 15.832031 9.5 "/>
<path style=" stroke:none;fill-rule:nonzero;fill:rgb(0%,0%,0%);fill-opacity:0.0784314;" d="M 9.5 0.792969 C 4.589844 0.792969 0.59375 4.785156 0.59375 9.699219 C 0.59375 14.609375 4.589844 18.605469 9.5 18.605469 C 14.410156 18.605469 18.40625 14.609375 18.40625 9.699219 C 18.40625 4.785156 14.410156 0.792969 9.5 0.792969 Z M 8.460938 4.0625 C 8.253906 4.304688 8.113281 4.609375 8.113281 4.949219 L 8.113281 8.660156 C 7.890625 8.9375 7.710938 9.289062 7.710938 9.703125 C 7.710938 10.683594 8.523438 11.480469 9.5 11.480469 C 9.910156 11.480469 10.257812 11.300781 10.539062 11.082031 L 13.457031 11.082031 C 14.21875 11.082031 14.84375 10.457031 14.84375 9.699219 C 14.84375 8.9375 14.21875 8.3125 13.457031 8.3125 L 10.886719 8.3125 L 10.886719 4.949219 C 10.886719 4.609375 10.746094 4.304688 10.539062 4.0625 C 13.214844 4.554688 15.238281 6.875 15.238281 9.699219 C 15.238281 12.875 12.679688 15.4375 9.5 15.4375 C 6.320312 15.4375 3.761719 12.875 3.761719 9.699219 C 3.761719 9.59375 3.761719 9.5 3.765625 9.40625 C 3.902344 6.71875 5.875 4.535156 8.460938 4.0625 Z M 8.460938 4.0625 "/>
<path style=" stroke:none;fill-rule:nonzero;fill:rgb(0%,0%,0%);fill-opacity:0.101961;" d="M 9.5 0.988281 C 4.695312 0.988281 0.792969 4.894531 0.792969 9.699219 C 0.792969 14.5 4.695312 18.40625 9.5 18.40625 C 14.304688 18.40625 18.207031 14.5 18.207031 9.699219 C 18.207031 4.894531 14.304688 0.988281 9.5 0.988281 Z M 9.5 3.761719 C 12.785156 3.761719 15.4375 6.414062 15.4375 9.699219 C 15.4375 12.984375 12.785156 15.636719 9.5 15.636719 C 6.214844 15.636719 3.5625 12.984375 3.5625 9.699219 C 3.5625 9.589844 3.5625 9.492188 3.570312 9.394531 C 3.726562 6.253906 6.320312 3.761719 9.5 3.761719 Z M 9.5 3.761719 C 8.847656 3.761719 8.3125 4.296875 8.3125 4.949219 L 8.3125 8.714844 C 8.082031 8.980469 7.910156 9.3125 7.910156 9.703125 C 7.910156 10.574219 8.628906 11.28125 9.5 11.28125 C 9.890625 11.28125 10.222656 11.109375 10.488281 10.886719 L 13.457031 10.886719 C 14.109375 10.886719 14.644531 10.351562 14.644531 9.699219 C 14.644531 9.046875 14.109375 8.511719 13.457031 8.511719 L 10.6875 8.511719 L 10.6875 4.949219 C 10.6875 4.296875 10.152344 3.761719 9.5 3.761719 Z M 9.5 3.761719 "/>
<path style=" stroke:none;fill-rule:nonzero;fill:rgb(0%,0%,0%);fill-opacity:0.14902;" d="M 9.5 1.1875 C 4.804688 1.1875 0.988281 5 0.988281 9.699219 C 0.988281 14.394531 4.804688 18.207031 9.5 18.207031 C 14.195312 18.207031 18.011719 14.394531 18.011719 9.699219 C 18.011719 5 14.195312 1.1875 9.5 1.1875 Z M 9.5 3.5625 C 12.890625 3.5625 15.636719 6.304688 15.636719 9.699219 C 15.636719 13.089844 12.890625 15.832031 9.5 15.832031 C 6.109375 15.832031 3.363281 13.089844 3.363281 9.699219 C 3.363281 9.589844 3.367188 9.484375 3.371094 9.382812 C 3.535156 6.140625 6.214844 3.5625 9.5 3.5625 Z M 9.5 3.957031 C 8.953125 3.957031 8.511719 4.402344 8.511719 4.949219 L 8.511719 8.769531 C 8.273438 9.015625 8.109375 9.335938 8.109375 9.703125 C 8.109375 10.464844 8.738281 11.082031 9.5 11.082031 C 9.867188 11.082031 10.191406 10.921875 10.441406 10.6875 L 13.457031 10.6875 C 14.003906 10.6875 14.449219 10.242188 14.449219 9.699219 C 14.449219 9.152344 14.003906 8.707031 13.457031 8.707031 L 10.488281 8.707031 L 10.488281 4.949219 C 10.488281 4.402344 10.046875 3.957031 9.5 3.957031 Z M 9.5 9.5 C 9.613281 9.5 9.699219 9.585938 9.699219 9.699219 C 9.699219 9.808594 9.613281 9.894531 9.5 9.894531 C 9.386719 9.894531 9.300781 9.808594 9.300781 9.699219 C 9.300781 9.585938 9.386719 9.5 9.5 9.5 Z M 9.5 9.5 "/>
<path style=" stroke:none;fill-rule:nonzero;fill:rgb(0%,0%,0%);fill-opacity:0.298039;" d="M 9.5 1.386719 C 4.910156 1.386719 1.1875 5.109375 1.1875 9.699219 C 1.1875 14.289062 4.910156 18.011719 9.5 18.011719 C 14.089844 18.011719 17.8125 14.289062 17.8125 9.699219 C 17.8125 5.109375 14.089844 1.386719 9.5 1.386719 Z M 9.5 3.363281 C 13 3.363281 15.832031 6.199219 15.832031 9.699219 C 15.832031 13.195312 13 16.03125 9.5 16.03125 C 6 16.03125 3.167969 13.195312 3.167969 9.699219 C 3.167969 9.589844 3.167969 9.476562 3.171875 9.371094 C 3.34375 6.023438 6.109375 3.363281 9.5 3.363281 Z M 9.5 4.15625 C 9.0625 4.15625 8.707031 4.507812 8.707031 4.949219 L 8.707031 8.828125 C 8.460938 9.042969 8.304688 9.351562 8.304688 9.703125 C 8.304688 10.355469 8.84375 10.886719 9.5 10.886719 C 9.851562 10.886719 10.167969 10.730469 10.382812 10.488281 L 13.457031 10.488281 C 13.898438 10.488281 14.25 10.136719 14.25 9.699219 C 14.25 9.257812 13.898438 8.90625 13.457031 8.90625 L 10.371094 8.90625 C 10.347656 8.878906 10.320312 8.851562 10.292969 8.828125 L 10.292969 4.949219 C 10.292969 4.507812 9.9375 4.15625 9.5 4.15625 Z M 9.5 9.300781 C 9.71875 9.300781 9.894531 9.480469 9.894531 9.699219 C 9.894531 9.917969 9.71875 10.09375 9.5 10.09375 C 9.28125 10.09375 9.105469 9.917969 9.105469 9.699219 C 9.105469 9.480469 9.28125 9.300781 9.5 9.300781 Z M 9.5 9.300781 "/>
<path style=" stroke:none;fill-rule:nonzero;fill:url(#linear0);" d="M 9.5 1.1875 C 4.910156 1.1875 1.1875 4.910156 1.1875 9.5 C 1.1875 14.089844 4.910156 17.8125 9.5 17.8125 C 14.089844 17.8125 17.8125 14.089844 17.8125 9.5 C 17.8125 4.910156 14.089844 1.1875 9.5 1.1875 Z M 9.5 3.167969 C 13 3.167969 15.832031 6 15.832031 9.5 C 15.832031 13 13 15.832031 9.5 15.832031 C 6 15.832031 3.167969 13 3.167969 9.5 C 3.167969 9.390625 3.167969 9.28125 3.171875 9.171875 C 3.34375 5.828125 6.109375 3.167969 9.5 3.167969 Z M 9.5 3.957031 C 9.0625 3.957031 8.707031 4.3125 8.707031 4.75 L 8.707031 8.628906 C 8.460938 8.84375 8.304688 9.15625 8.304688 9.507812 C 8.304688 10.15625 8.84375 10.6875 9.5 10.6875 C 9.851562 10.6875 10.167969 10.53125 10.382812 10.292969 L 13.457031 10.292969 C 13.898438 10.292969 14.25 9.9375 14.25 9.5 C 14.25 9.0625 13.898438 8.707031 13.457031 8.707031 L 10.371094 8.707031 C 10.347656 8.679688 10.320312 8.652344 10.292969 8.628906 L 10.292969 4.75 C 10.292969 4.3125 9.9375 3.957031 9.5 3.957031 Z M 9.5 9.105469 C 9.71875 9.105469 9.894531 9.28125 9.894531 9.5 C 9.894531 9.71875 9.71875 9.894531 9.5 9.894531 C 9.28125 9.894531 9.105469 9.71875 9.105469 9.5 C 9.105469 9.28125 9.28125 9.105469 9.5 9.105469 Z M 9.5 9.105469 "/>
<path style=" stroke:none;fill-rule:nonzero;fill:rgb(100%,100%,100%);fill-opacity:0.6;" d="M 9.5 1.1875 C 4.910156 1.1875 1.1875 4.910156 1.1875 9.5 C 1.1875 9.566406 1.191406 9.632812 1.195312 9.699219 C 1.300781 5.199219 4.976562 1.582031 9.5 1.582031 C 14.023438 1.582031 17.699219 5.199219 17.804688 9.699219 C 17.808594 9.632812 17.8125 9.566406 17.8125 9.5 C 17.8125 4.910156 14.089844 1.1875 9.5 1.1875 Z M 9.5 3.957031 C 9.0625 3.957031 8.707031 4.3125 8.707031 4.75 L 8.707031 5.144531 C 8.707031 4.707031 9.0625 4.355469 9.5 4.355469 C 9.9375 4.355469 10.292969 4.707031 10.292969 5.144531 L 10.292969 4.75 C 10.292969 4.3125 9.9375 3.957031 9.5 3.957031 Z M 8.707031 8.628906 C 8.460938 8.84375 8.304688 9.15625 8.304688 9.507812 C 8.304688 9.578125 8.3125 9.644531 8.324219 9.710938 C 8.371094 9.4375 8.507812 9.199219 8.707031 9.023438 Z M 10.292969 8.628906 L 10.292969 9.023438 C 10.320312 9.046875 10.347656 9.078125 10.371094 9.105469 L 13.457031 9.105469 C 13.828125 9.105469 14.132812 9.355469 14.21875 9.699219 C 14.234375 9.632812 14.25 9.570312 14.25 9.5 C 14.25 9.0625 13.898438 8.707031 13.457031 8.707031 L 10.371094 8.707031 C 10.347656 8.679688 10.320312 8.652344 10.292969 8.628906 Z M 3.171875 9.699219 C 3.171875 9.765625 3.167969 9.828125 3.167969 9.894531 C 3.167969 13.394531 6 16.230469 9.5 16.230469 C 13 16.230469 15.832031 13.394531 15.832031 9.894531 C 15.832031 9.828125 15.828125 9.765625 15.828125 9.699219 C 15.722656 13.105469 12.929688 15.832031 9.5 15.832031 C 6.070312 15.832031 3.277344 13.105469 3.171875 9.699219 Z M 9.160156 9.699219 C 9.125 9.757812 9.105469 9.824219 9.105469 9.894531 C 9.105469 10.113281 9.28125 10.292969 9.5 10.292969 C 9.71875 10.292969 9.894531 10.113281 9.894531 9.894531 C 9.894531 9.824219 9.875 9.757812 9.839844 9.699219 C 9.773438 9.816406 9.648438 9.894531 9.5 9.894531 C 9.351562 9.894531 9.226562 9.816406 9.160156 9.699219 Z M 9.160156 9.699219 "/>
</g>
</svg>
