<?xml version="1.0" encoding="UTF-8"?>
<svg xmlns="http://www.w3.org/2000/svg" xmlns:xlink="http://www.w3.org/1999/xlink" width="19pt" height="19pt" viewBox="0 0 19 19" version="1.1">
<g id="surface1">
<path style=" stroke:none;fill-rule:nonzero;fill:rgb(74.509804%,74.509804%,74.509804%);fill-opacity:1;" d="M 3.957031 5.542969 C 3.519531 5.542969 3.167969 5.894531 3.167969 6.332031 L 3.167969 12.667969 C 3.167969 13.105469 3.519531 13.457031 3.957031 13.457031 L 13.457031 13.457031 C 13.898438 13.457031 14.25 13.105469 14.25 12.667969 L 14.25 11.082031 L 15.042969 11.082031 C 15.480469 11.082031 15.832031 10.730469 15.832031 10.292969 L 15.832031 8.707031 C 15.832031 8.269531 15.480469 7.917969 15.042969 7.917969 L 14.25 7.917969 L 14.25 6.332031 C 14.25 5.894531 13.898438 5.542969 13.457031 5.542969 Z M 4.355469 6.332031 L 13.0625 6.332031 C 13.28125 6.332031 13.457031 6.511719 13.457031 6.730469 L 13.457031 12.269531 C 13.457031 12.488281 13.28125 12.667969 13.0625 12.667969 L 4.355469 12.667969 C 4.136719 12.667969 3.957031 12.488281 3.957031 12.269531 L 3.957031 6.730469 C 3.957031 6.511719 4.136719 6.332031 4.355469 6.332031 Z M 14.25 8.707031 L 14.644531 8.707031 C 14.863281 8.707031 15.042969 8.886719 15.042969 9.105469 L 15.042969 9.894531 C 15.042969 10.113281 14.863281 10.292969 14.644531 10.292969 L 14.25 10.292969 Z M 14.25 8.707031 "/>
<path style=" stroke:none;fill-rule:nonzero;fill:rgb(74.509804%,74.509804%,74.509804%);fill-opacity:0.298039;" d="M 4.949219 7.125 C 4.839844 7.125 4.75 7.214844 4.75 7.324219 L 4.75 7.917969 L 7.917969 10.292969 L 7.964844 7.917969 C 9.515625 8.996094 12.667969 11.082031 12.667969 11.082031 L 12.667969 7.324219 C 12.667969 7.214844 12.578125 7.125 12.46875 7.125 Z M 12.59375 11.824219 L 9.5 10.292969 L 9.5 11.875 L 12.46875 11.875 C 12.515625 11.875 12.558594 11.851562 12.59375 11.824219 Z M 4.75 8.707031 L 4.75 11.675781 C 4.75 11.785156 4.839844 11.875 4.949219 11.875 L 8.558594 11.875 Z M 4.75 8.707031 "/>
<path style=" stroke:none;fill-rule:nonzero;fill:rgb(74.509804%,74.509804%,74.509804%);fill-opacity:1;" d="M 12.667969 11.082031 L 7.953125 7.125 L 7.917969 9.5 L 4.75 7.917969 L 9.5 11.875 L 9.5 9.5 Z M 12.667969 11.082031 "/>
</g>
</svg>
