<?xml version="1.0" encoding="UTF-8"?>
<svg xmlns="http://www.w3.org/2000/svg" xmlns:xlink="http://www.w3.org/1999/xlink" width="76pt" height="76pt" viewBox="0 0 76 76" version="1.1">
<defs>
<linearGradient id="linear0" gradientUnits="userSpaceOnUse" x1="8" y1="0" x2="88" y2="0" gradientTransform="matrix(0,-0.791667,0.791667,0,0,76)">
<stop offset="0" style="stop-color:rgb(66.666667%,66.666667%,66.666667%);stop-opacity:1;"/>
<stop offset="1" style="stop-color:rgb(94.117647%,94.117647%,94.117647%);stop-opacity:1;"/>
</linearGradient>
</defs>
<g id="surface1">
<path style=" stroke:none;fill-rule:nonzero;fill:rgb(100%,100%,100%);fill-opacity:0.298039;" d="M 63.332031 38 C 63.332031 51.992188 51.992188 63.332031 38 63.332031 C 24.007812 63.332031 12.667969 51.992188 12.667969 38 C 12.667969 24.007812 24.007812 12.667969 38 12.667969 L 38 38 Z M 63.332031 38 "/>
<path style=" stroke:none;fill-rule:nonzero;fill:rgb(0%,0%,0%);fill-opacity:0.0784314;" d="M 38 3.167969 C 18.355469 3.167969 2.375 19.144531 2.375 38.792969 C 2.375 58.4375 18.355469 74.417969 38 74.417969 C 57.644531 74.417969 73.625 58.4375 73.625 38.792969 C 73.625 19.144531 57.644531 3.167969 38 3.167969 Z M 33.84375 16.253906 C 33.019531 17.222656 32.457031 18.429688 32.457031 19.792969 L 32.457031 34.636719 C 31.558594 35.757812 30.851562 37.15625 30.851562 38.816406 C 30.851562 42.730469 34.09375 45.917969 38 45.917969 C 39.644531 45.917969 41.03125 45.207031 42.15625 44.332031 L 53.832031 44.332031 C 56.875 44.332031 59.375 41.832031 59.375 38.792969 C 59.375 35.75 56.875 33.25 53.832031 33.25 L 43.542969 33.25 L 43.542969 19.792969 C 43.542969 18.429688 42.980469 17.222656 42.15625 16.253906 C 52.863281 18.210938 60.957031 27.507812 60.957031 38.792969 C 60.957031 51.503906 50.710938 61.75 38 61.75 C 25.289062 61.75 15.042969 51.503906 15.042969 38.792969 C 15.042969 38.371094 15.046875 37.996094 15.066406 37.628906 C 15.609375 26.882812 23.503906 18.136719 33.84375 16.253906 Z M 33.84375 16.253906 "/>
<path style=" stroke:none;fill-rule:nonzero;fill:rgb(0%,0%,0%);fill-opacity:0.101961;" d="M 38 3.957031 C 18.78125 3.957031 3.167969 19.574219 3.167969 38.792969 C 3.167969 58.007812 18.78125 73.625 38 73.625 C 57.21875 73.625 72.832031 58.007812 72.832031 38.792969 C 72.832031 19.574219 57.21875 3.957031 38 3.957031 Z M 38 15.042969 C 51.136719 15.042969 61.75 25.652344 61.75 38.792969 C 61.75 51.929688 51.136719 62.542969 38 62.542969 C 24.863281 62.542969 14.25 51.929688 14.25 38.792969 C 14.25 38.363281 14.253906 37.964844 14.273438 37.578125 C 14.910156 25.019531 25.273438 15.042969 38 15.042969 Z M 38 15.042969 C 35.390625 15.042969 33.25 17.183594 33.25 19.792969 L 33.25 34.859375 C 32.328125 35.921875 31.640625 37.253906 31.640625 38.816406 C 31.640625 42.292969 34.519531 45.125 38 45.125 C 39.554688 45.125 40.886719 44.445312 41.957031 43.542969 L 53.832031 43.542969 C 56.441406 43.542969 58.582031 41.402344 58.582031 38.792969 C 58.582031 36.183594 56.441406 34.042969 53.832031 34.042969 L 42.75 34.042969 L 42.75 19.792969 C 42.75 17.183594 40.609375 15.042969 38 15.042969 Z M 38 15.042969 "/>
<path style=" stroke:none;fill-rule:nonzero;fill:rgb(0%,0%,0%);fill-opacity:0.14902;" d="M 38 4.75 C 19.210938 4.75 3.957031 20 3.957031 38.792969 C 3.957031 57.582031 19.210938 72.832031 38 72.832031 C 56.789062 72.832031 72.042969 57.582031 72.042969 38.792969 C 72.042969 20 56.789062 4.75 38 4.75 Z M 38 14.25 C 51.5625 14.25 62.542969 25.226562 62.542969 38.792969 C 62.542969 52.355469 51.5625 63.332031 38 63.332031 C 24.4375 63.332031 13.457031 52.355469 13.457031 38.792969 C 13.457031 38.359375 13.460938 37.9375 13.484375 37.53125 C 14.140625 24.558594 24.859375 14.25 38 14.25 Z M 38 15.832031 C 35.820312 15.832031 34.042969 17.613281 34.042969 19.792969 L 34.042969 35.082031 C 33.09375 36.0625 32.433594 37.34375 32.433594 38.816406 C 32.433594 41.859375 34.949219 44.332031 38 44.332031 C 39.472656 44.332031 40.769531 43.683594 41.761719 42.75 L 53.832031 42.75 C 56.011719 42.75 57.792969 40.96875 57.792969 38.792969 C 57.792969 36.613281 56.011719 34.832031 53.832031 34.832031 L 41.957031 34.832031 L 41.957031 19.792969 C 41.957031 17.613281 40.179688 15.832031 38 15.832031 Z M 38 38 C 38.449219 38 38.792969 38.34375 38.792969 38.792969 C 38.792969 39.238281 38.449219 39.582031 38 39.582031 C 37.550781 39.582031 37.207031 39.238281 37.207031 38.792969 C 37.207031 38.34375 37.550781 38 38 38 Z M 38 38 "/>
<path style=" stroke:none;fill-rule:nonzero;fill:rgb(0%,0%,0%);fill-opacity:0.298039;" d="M 38 5.542969 C 19.636719 5.542969 4.75 20.429688 4.75 38.792969 C 4.75 57.15625 19.636719 72.042969 38 72.042969 C 56.363281 72.042969 71.25 57.15625 71.25 38.792969 C 71.25 20.429688 56.363281 5.542969 38 5.542969 Z M 38 13.457031 C 51.992188 13.457031 63.332031 24.800781 63.332031 38.792969 C 63.332031 52.78125 51.992188 64.125 38 64.125 C 24.007812 64.125 12.667969 52.78125 12.667969 38.792969 C 12.667969 38.355469 12.667969 37.914062 12.691406 37.480469 C 13.371094 24.09375 24.445312 13.457031 38 13.457031 Z M 38 16.625 C 36.246094 16.625 34.832031 18.039062 34.832031 19.792969 L 34.832031 35.304688 C 33.851562 36.167969 33.226562 37.414062 33.226562 38.816406 C 33.226562 41.425781 35.371094 43.542969 38 43.542969 C 39.410156 43.542969 40.667969 42.925781 41.539062 41.957031 L 53.832031 41.957031 C 55.585938 41.957031 57 40.546875 57 38.792969 C 57 37.039062 55.585938 35.625 53.832031 35.625 L 41.488281 35.625 C 41.386719 35.515625 41.28125 35.402344 41.167969 35.304688 L 41.167969 19.792969 C 41.167969 18.039062 39.753906 16.625 38 16.625 Z M 38 37.207031 C 38.875 37.207031 39.582031 37.917969 39.582031 38.792969 C 39.582031 39.667969 38.875 40.375 38 40.375 C 37.125 40.375 36.417969 39.667969 36.417969 38.792969 C 36.417969 37.917969 37.125 37.207031 38 37.207031 Z M 38 37.207031 "/>
<path style=" stroke:none;fill-rule:nonzero;fill:url(#linear0);" d="M 38 4.75 C 19.636719 4.75 4.75 19.636719 4.75 38 C 4.75 56.363281 19.636719 71.25 38 71.25 C 56.363281 71.25 71.25 56.363281 71.25 38 C 71.25 19.636719 56.363281 4.75 38 4.75 Z M 38 12.667969 C 51.992188 12.667969 63.332031 24.007812 63.332031 38 C 63.332031 51.992188 51.992188 63.332031 38 63.332031 C 24.007812 63.332031 12.667969 51.992188 12.667969 38 C 12.667969 37.5625 12.667969 37.121094 12.691406 36.6875 C 13.371094 23.304688 24.445312 12.667969 38 12.667969 Z M 38 15.832031 C 36.246094 15.832031 34.832031 17.246094 34.832031 19 L 34.832031 34.511719 C 33.851562 35.378906 33.226562 36.621094 33.226562 38.023438 C 33.226562 40.632812 35.371094 42.75 38 42.75 C 39.410156 42.75 40.667969 42.132812 41.539062 41.167969 L 53.832031 41.167969 C 55.585938 41.167969 57 39.753906 57 38 C 57 36.246094 55.585938 34.832031 53.832031 34.832031 L 41.488281 34.832031 C 41.386719 34.722656 41.28125 34.613281 41.167969 34.511719 L 41.167969 19 C 41.167969 17.246094 39.753906 15.832031 38 15.832031 Z M 38 36.417969 C 38.875 36.417969 39.582031 37.125 39.582031 38 C 39.582031 38.875 38.875 39.582031 38 39.582031 C 37.125 39.582031 36.417969 38.875 36.417969 38 C 36.417969 37.125 37.125 36.417969 38 36.417969 Z M 38 36.417969 "/>
<path style=" stroke:none;fill-rule:nonzero;fill:rgb(100%,100%,100%);fill-opacity:0.6;" d="M 38 4.75 C 19.636719 4.75 4.75 19.636719 4.75 38 C 4.75 38.265625 4.769531 38.527344 4.773438 38.792969 C 5.199219 20.796875 19.902344 6.332031 38 6.332031 C 56.097656 6.332031 70.800781 20.796875 71.226562 38.792969 C 71.230469 38.527344 71.25 38.265625 71.25 38 C 71.25 19.636719 56.363281 4.75 38 4.75 Z M 38 15.832031 C 36.246094 15.832031 34.832031 17.246094 34.832031 19 L 34.832031 20.582031 C 34.832031 18.828125 36.246094 17.417969 38 17.417969 C 39.753906 17.417969 41.167969 18.828125 41.167969 20.582031 L 41.167969 19 C 41.167969 17.246094 39.753906 15.832031 38 15.832031 Z M 34.832031 34.511719 C 33.851562 35.378906 33.226562 36.621094 33.226562 38.023438 C 33.226562 38.304688 33.25 38.574219 33.300781 38.839844 C 33.484375 37.757812 34.035156 36.796875 34.832031 36.09375 Z M 41.167969 34.511719 L 41.167969 36.09375 C 41.28125 36.195312 41.386719 36.304688 41.488281 36.417969 L 53.832031 36.417969 C 55.3125 36.417969 56.523438 37.425781 56.875 38.792969 C 56.941406 38.539062 57 38.273438 57 38 C 57 36.246094 55.585938 34.832031 53.832031 34.832031 L 41.488281 34.832031 C 41.386719 34.722656 41.28125 34.613281 41.167969 34.511719 Z M 12.691406 38.792969 C 12.6875 39.054688 12.667969 39.320312 12.667969 39.582031 C 12.667969 53.574219 24.007812 64.917969 38 64.917969 C 51.992188 64.917969 63.332031 53.574219 63.332031 39.582031 C 63.332031 39.320312 63.316406 39.054688 63.308594 38.792969 C 62.890625 52.417969 51.726562 63.332031 38 63.332031 C 24.273438 63.332031 13.109375 52.417969 12.691406 38.792969 Z M 36.640625 38.792969 C 36.503906 39.023438 36.417969 39.292969 36.417969 39.582031 C 36.417969 40.457031 37.125 41.167969 38 41.167969 C 38.875 41.167969 39.582031 40.457031 39.582031 39.582031 C 39.582031 39.292969 39.496094 39.023438 39.359375 38.792969 C 39.085938 39.265625 38.585938 39.582031 38 39.582031 C 37.414062 39.582031 36.914062 39.265625 36.640625 38.792969 Z M 36.640625 38.792969 "/>
</g>
</svg>
