<svg display="inline" height="16" width="16" xmlns="http://www.w3.org/2000/svg" xmlns:sodipodi="http://sodipodi.sourceforge.net/DTD/sodipodi-0.dtd" xmlns:inkscape="http://www.inkscape.org/namespaces/inkscape">
 <path d="M 12.5,6 11.125,7.34375 C 12.901382,9.038647 14,11.414449 14,14 c 0,2.61547 -1.124759,4.988178 -2.9375,6.6875 L 12.46875,22 C 14.643626,19.955049 16.000001,17.14133 16,14 16,10.873606 14.656704,8.042764 12.5,6 z M 10.375,8 8.9375,9.34375 C 10.2045,10.534033 11,12.184984 11,14 c 0,1.829639 -0.808718,3.463767 -2.09375,4.65625 L 10.3125,20 C 11.969729,18.46622 13,16.356471 13,14 13,11.666407 12.004,9.530363 10.375,8 z M 5.25,9 C 5.1263114,8.999914 5.0181822,9.05771 4.90625,9.15625 L 2.96875,11 l -2,0 C 0.42616521,11.010553 0,11.462311 0,12.03125 L 0,16 c 0,0.568939 0.4260625,1 0.96875,1 l 1.96875,0 1.96875,1.84375 c 0.061891,0.05821 0.148214,0.09732 0.21875,0.125 C 5.179047,18.98773 5.195595,19.000008 5.25,19 5.4132157,18.999975 5.5891835,18.908145 5.71875,18.75 5.8915051,18.53914 6.00323,18.210861 6,17.875 l 0,-1.75 0,-4.25 0,-1.75 C 6.00145,9.73304 5.849127,9.35264 5.625,9.15625 5.5129367,9.058056 5.3736886,9.000086 5.25,9 z m 3,1 -1.4375,1.34375 C 7.5365,12.02391 8,12.962848 8,14 8,15.052352 7.524031,15.973868 6.78125,16.65625 L 8.21875,18 C 9.323097,16.977533 10,15.570599 10,14 10,12.444272 9.336,11.020241 8.25,10 z" fill="#bebebe" fill-opacity="1" fill-rule="nonzero" stroke="none" opacity="0.45" inkscape:label="Icon" inkscape:groupmode="layer" inkscape:connector-curvature="0" transform="matrix(1 0 0 1 0 -6)"/>
</svg>
