<?xml version="1.0" encoding="UTF-8"?>
<svg xmlns="http://www.w3.org/2000/svg" xmlns:xlink="http://www.w3.org/1999/xlink" width="76pt" height="76pt" viewBox="0 0 76 76" version="1.1">
<g id="surface1">
<path style=" stroke:none;fill-rule:nonzero;fill:rgb(100%,100%,100%);fill-opacity:0.298039;" d="M 25.339844 25.332031 C 24.375 25.332031 23.546875 25.738281 22.964844 26.421875 L 15.839844 34.832031 L 9.507812 34.832031 C 7.757812 34.832031 6.339844 36.25 6.339844 38 C 6.320312 41.152344 6.347656 44.378906 6.339844 47.5 C 6.339844 49.246094 7.757812 50.667969 9.507812 50.667969 L 15.839844 50.667969 L 22.667969 58.484375 C 23.210938 59.449219 24.15625 60.164062 25.339844 60.164062 C 27.089844 60.164062 28.507812 58.746094 28.507812 57 L 28.507812 28.5 C 28.507812 26.75 27.089844 25.332031 25.339844 25.332031 Z M 56.019531 31.667969 L 49.089844 38.792969 L 41.964844 31.765625 L 38.007812 35.824219 L 45.132812 42.75 L 38.105469 49.875 L 42.164062 53.832031 L 49.089844 46.707031 L 56.214844 53.734375 L 60.175781 49.675781 L 53.050781 42.75 L 60.074219 35.625 Z M 56.019531 31.667969 "/>
<path style=" stroke:none;fill-rule:evenodd;fill:rgb(87.45098%,21.960784%,17.254902%);fill-opacity:1;" d="M 25.339844 22.167969 C 24.375 22.167969 23.546875 22.570312 22.964844 23.253906 L 15.839844 31.667969 L 9.507812 31.667969 C 7.757812 31.667969 6.339844 33.085938 6.339844 34.832031 C 6.320312 37.988281 6.347656 41.210938 6.339844 44.332031 C 6.339844 46.082031 7.757812 47.5 9.507812 47.5 L 15.839844 47.5 L 22.667969 55.316406 C 23.210938 56.285156 24.15625 57 25.339844 57 C 27.089844 57 28.507812 55.582031 28.507812 53.832031 L 28.507812 25.332031 C 28.507812 23.585938 27.089844 22.164062 25.339844 22.164062 Z M 56.019531 28.5 L 49.089844 35.625 L 41.964844 28.597656 L 38.007812 32.65625 L 45.132812 39.582031 L 38.105469 46.707031 L 42.164062 50.667969 L 49.089844 43.542969 L 56.214844 50.566406 L 60.175781 46.511719 L 53.050781 39.582031 L 60.074219 32.457031 Z M 56.019531 28.5 "/>
</g>
</svg>
