<?xml version="1.0" encoding="UTF-8"?>
<svg xmlns="http://www.w3.org/2000/svg" xmlns:xlink="http://www.w3.org/1999/xlink" width="76pt" height="76pt" viewBox="0 0 76 76" version="1.1">
<defs>
<filter id="alpha" filterUnits="objectBoundingBox" x="0%" y="0%" width="100%" height="100%">
  <feColorMatrix type="matrix" in="SourceGraphic" values="0 0 0 0 1 0 0 0 0 1 0 0 0 0 1 0 0 0 1 0"/>
</filter>
<mask id="mask0">
  <g filter="url(#alpha)">
<rect x="0" y="0" width="76" height="76" style="fill:rgb(0%,0%,0%);fill-opacity:0.4;stroke:none;"/>
  </g>
</mask>
<clipPath id="clip1">
  <rect width="76" height="76"/>
</clipPath>
<g id="surface6" clip-path="url(#clip1)">
<path style="fill:none;stroke-width:1.7;stroke-linecap:round;stroke-linejoin:miter;stroke:rgb(0%,0%,0%);stroke-opacity:0.298039;stroke-miterlimit:4;" d="M 17.119655 0.0953947 C 17.119655 0.0953947 15.27426 1.840872 15.340872 5.499589 C 15.40625 9.190378 17.14926 10.905016 17.14926 10.905016 M 20.14926 2.222039 C 20.14926 2.222039 19.166118 3.016447 19.141447 5.452714 C 19.116776 7.858141 20.14926 8.778372 20.14926 8.778372 " transform="matrix(3.166667,0,0,3.166667,3.166667,22.166667)"/>
<path style="fill:none;stroke-width:1.7;stroke-linecap:round;stroke-linejoin:miter;stroke:rgb(87.45098%,85.882353%,82.352941%);stroke-opacity:1;stroke-miterlimit:4;" d="M 17.119655 -0.905016 C 17.119655 -0.905016 15.27426 0.840461 15.340872 4.500411 C 15.40625 8.189967 17.14926 9.904605 17.14926 9.904605 M 20.14926 1.221628 C 20.14926 1.221628 19.166118 2.01727 19.141447 4.452303 C 19.116776 6.85773 20.14926 7.777961 20.14926 7.777961 " transform="matrix(3.166667,0,0,3.166667,3.166667,22.166667)"/>
</g>
</defs>
<g id="surface1">
<path style=" stroke:none;fill-rule:nonzero;fill:rgb(0%,0%,0%);fill-opacity:0.298039;" d="M 25.332031 9.5 C 20.070312 9.5 15.832031 13.738281 15.832031 19 L 15.832031 44.332031 C 15.832031 49.597656 20.070312 53.832031 25.332031 53.832031 C 30.597656 53.832031 34.832031 49.597656 34.832031 44.332031 L 34.832031 19 C 34.832031 13.738281 30.597656 9.5 25.332031 9.5 Z M 6.332031 31.667969 L 6.332031 34.832031 L 9.5 34.832031 L 9.5 44.332031 C 9.5 52.007812 14.9375 58.398438 22.167969 59.871094 L 22.167969 66.5 L 19 66.5 L 19 69.667969 L 31.667969 69.667969 L 31.667969 66.5 L 28.5 66.5 L 28.5 59.871094 C 35.730469 58.402344 41.167969 52.011719 41.167969 44.335938 L 41.167969 34.835938 L 44.332031 34.835938 L 44.332031 31.667969 L 38 31.667969 L 38 44.335938 C 38 51.351562 32.351562 57 25.332031 57 C 18.316406 57 12.667969 51.351562 12.667969 44.335938 L 12.667969 31.667969 Z M 6.332031 31.667969 "/>
<path style=" stroke:none;fill-rule:nonzero;fill:rgb(87.45098%,85.882353%,82.352941%);fill-opacity:1;" d="M 25.332031 6.332031 C 20.070312 6.332031 15.832031 10.570312 15.832031 15.832031 L 15.832031 41.167969 C 15.832031 46.429688 20.070312 50.667969 25.332031 50.667969 C 30.597656 50.667969 34.832031 46.429688 34.832031 41.167969 L 34.832031 15.832031 C 34.832031 10.570312 30.597656 6.332031 25.332031 6.332031 Z M 6.332031 28.5 L 6.332031 31.667969 L 9.5 31.667969 L 9.5 41.167969 C 9.5 48.84375 14.9375 55.230469 22.167969 56.703125 L 22.167969 63.332031 L 19 63.332031 L 19 66.5 L 31.667969 66.5 L 31.667969 63.332031 L 28.5 63.332031 L 28.5 56.703125 C 35.730469 55.230469 41.167969 48.84375 41.167969 41.167969 L 41.167969 31.667969 L 44.332031 31.667969 L 44.332031 28.5 L 38 28.5 L 38 41.167969 C 38 48.183594 32.351562 53.832031 25.332031 53.832031 C 18.316406 53.832031 12.667969 48.183594 12.667969 41.167969 L 12.667969 28.5 Z M 6.332031 28.5 "/>
<use xlink:href="#surface6" mask="url(#mask0)"/>
</g>
</svg>
