<?xml version="1.0" encoding="UTF-8"?>
<svg xmlns="http://www.w3.org/2000/svg" xmlns:xlink="http://www.w3.org/1999/xlink" width="76pt" height="76pt" viewBox="0 0 76 76" version="1.1">
<g id="surface1">
<path style=" stroke:none;fill-rule:evenodd;fill:rgb(0%,0%,0%);fill-opacity:0.298039;" d="M 25.375 25.332031 C 24.410156 25.332031 23.582031 25.738281 23 26.421875 L 15.875 34.832031 L 9.542969 34.832031 C 7.792969 34.832031 6.375 36.25 6.375 38 C 6.355469 41.152344 6.382812 44.378906 6.375 47.5 C 6.375 49.246094 7.792969 50.667969 9.542969 50.667969 L 15.875 50.667969 L 22.703125 58.484375 C 23.246094 59.449219 24.191406 60.164062 25.375 60.164062 C 27.125 60.164062 28.542969 58.746094 28.542969 57 L 28.542969 28.5 C 28.542969 26.75 27.125 25.332031 25.375 25.332031 Z M 25.375 25.332031 "/>
<path style=" stroke:none;fill-rule:evenodd;fill:rgb(74.509804%,74.509804%,74.509804%);fill-opacity:1;" d="M 25.375 22.167969 C 24.410156 22.167969 23.582031 22.570312 23 23.253906 L 15.875 31.667969 L 9.542969 31.667969 C 7.792969 31.667969 6.375 33.085938 6.375 34.832031 C 6.355469 37.988281 6.382812 41.210938 6.375 44.332031 C 6.375 46.082031 7.792969 47.5 9.542969 47.5 L 15.875 47.5 L 22.703125 55.316406 C 23.246094 56.285156 24.191406 57 25.375 57 C 27.125 57 28.542969 55.582031 28.542969 53.832031 L 28.542969 25.332031 C 28.542969 23.585938 27.125 22.167969 25.375 22.167969 Z M 25.375 22.167969 "/>
<path style="fill:none;stroke-width:1;stroke-linecap:round;stroke-linejoin:miter;stroke:rgb(87.45098%,84.705882%,78.431373%);stroke-opacity:1;stroke-miterlimit:4;" d="M 11.511513 12.493421 L 13.512336 12.493421 M 15.511924 12.493421 L 17.512747 12.493421 M 19.512336 12.493421 L 21.511924 12.493421 " transform="matrix(3.166667,0,0,3.166667,0,0)"/>
<path style="fill:none;stroke-width:1;stroke-linecap:round;stroke-linejoin:miter;stroke:rgb(0%,0%,0%);stroke-opacity:0.298039;stroke-miterlimit:4;" d="M 11.511513 13.5 L 13.512336 13.5 M 15.511924 13.5 L 17.512747 13.5 M 19.512336 13.5 L 21.511924 13.5 " transform="matrix(3.166667,0,0,3.166667,0,0)"/>
</g>
</svg>
