<?xml version="1.0" encoding="UTF-8"?>
<svg xmlns="http://www.w3.org/2000/svg" xmlns:xlink="http://www.w3.org/1999/xlink" width="76pt" height="76pt" viewBox="0 0 76 76" version="1.1">
<defs>
<linearGradient id="linear0" gradientUnits="userSpaceOnUse" x1="0" y1="-33.968" x2="0" y2="-43.829" gradientTransform="matrix(3.518515,0,0,3.518515,2.815167,174.99)">
<stop offset="0" style="stop-color:rgb(66.666667%,66.666667%,66.666667%);stop-opacity:1;"/>
<stop offset="1" style="stop-color:rgb(94.117647%,94.117647%,94.117647%);stop-opacity:1;"/>
</linearGradient>
</defs>
<g id="surface1">
<path style=" stroke:none;fill-rule:nonzero;fill:rgb(0%,0%,0%);fill-opacity:0.0784314;" d="M 24.171875 19.050781 C 22.75 19.210938 21.664062 19.980469 20.757812 20.804688 C 19.847656 21.632812 19.082031 22.527344 18.28125 23.132812 C 17.246094 23.949219 16.457031 24.933594 15.683594 25.382812 C 13.152344 25.480469 10.371094 25.011719 7.59375 25.804688 C 7.578125 25.8125 7.5625 25.820312 7.546875 25.828125 C 6.011719 26.414062 5.023438 27.613281 4.503906 28.945312 C 3.992188 30.253906 3.894531 31.699219 4.007812 33.027344 C 4.007812 33.050781 4.007812 33.078125 4.007812 33.101562 C 4.066406 37.800781 3.882812 42.542969 4.105469 47.300781 C 4.105469 47.335938 4.105469 47.367188 4.105469 47.402344 C 4.625 50.722656 7.949219 52.566406 11.035156 52.175781 C 11.066406 52.171875 11.101562 52.179688 11.132812 52.175781 L 15.90625 52.175781 C 17.925781 54.023438 19.847656 56.035156 22.019531 57.839844 C 22.050781 57.867188 22.082031 57.894531 22.117188 57.914062 C 23.144531 58.511719 24.226562 58.664062 25.183594 58.433594 C 26.144531 58.207031 26.964844 57.628906 27.609375 56.902344 C 28.871094 55.480469 29.535156 53.453125 29.242188 51.582031 C 29.234375 51.535156 29.25 51.480469 29.242188 51.433594 C 29.230469 42.535156 29.257812 33.644531 29.21875 24.738281 C 29.21875 24.722656 29.21875 24.707031 29.21875 24.691406 C 29.144531 23.398438 28.703125 22.066406 27.882812 20.980469 C 27.058594 19.890625 25.800781 19.066406 24.269531 19.050781 C 24.238281 19.046875 24.203125 19.046875 24.171875 19.050781 Z M 24.171875 19.050781 "/>
<path style=" stroke:none;fill-rule:nonzero;fill:rgb(0%,0%,0%);fill-opacity:0.0784314;" d="M 57.964844 26.84375 C 60.890625 34.582031 60.84375 43.433594 57.765625 51.113281 C 60.746094 43.402344 60.839844 34.609375 57.964844 26.84375 Z M 57.964844 26.84375 "/>
<path style=" stroke:none;fill-rule:nonzero;fill:rgb(0%,0%,0%);fill-opacity:0.0784314;" d="M 46.511719 29.859375 C 48.558594 34.476562 48.839844 39.78125 47.5 44.65625 C 47.210938 45.707031 46.875 46.75 46.4375 47.746094 C 46.851562 46.738281 47.234375 45.710938 47.5 44.65625 C 48.734375 39.78125 48.382812 34.519531 46.511719 29.859375 Z M 46.511719 29.859375 "/>
<path style=" stroke:none;fill-rule:nonzero;fill:rgb(0%,0%,0%);fill-opacity:0.0784314;" d="M 57.691406 51.285156 C 57.359375 52.105469 56.960938 52.894531 56.554688 53.683594 C 56.945312 52.890625 57.367188 52.109375 57.691406 51.285156 Z M 57.691406 51.285156 "/>
<path style=" stroke:none;fill-rule:nonzero;fill:rgb(0%,0%,0%);fill-opacity:0.101961;" d="M 24.269531 19.816406 C 21.894531 20.085938 20.539062 22.398438 18.753906 23.75 C 17.800781 24.503906 16.992188 25.605469 15.957031 26.148438 C 13.246094 26.292969 10.445312 25.796875 7.816406 26.546875 C 5.183594 27.554688 4.542969 30.515625 4.773438 33.027344 C 4.835938 37.777344 4.648438 42.539062 4.875 47.277344 C 5.324219 50.164062 8.296875 51.800781 11.035156 51.410156 L 16.203125 51.410156 C 18.328125 53.335938 20.3125 55.417969 22.511719 57.246094 C 26.027344 59.289062 29.070312 54.8125 28.476562 51.582031 C 28.464844 42.632812 28.492188 33.6875 28.449219 24.738281 C 28.324219 22.472656 26.792969 19.839844 24.269531 19.816406 Z M 24.269531 19.816406 "/>
<path style=" stroke:none;fill-rule:nonzero;fill:rgb(0%,0%,0%);fill-opacity:0.14902;" d="M 24.269531 20.65625 C 23.996094 20.65625 23.769531 20.75 23.601562 20.804688 C 23.59375 20.804688 23.585938 20.804688 23.578125 20.804688 C 23.28125 20.921875 22.894531 21.09375 22.5625 21.398438 L 16.453125 26.992188 L 9.746094 26.992188 C 7.453125 26.992188 5.617188 28.851562 5.617188 31.195312 L 5.617188 46.261719 C 5.617188 48.605469 7.429688 50.566406 9.746094 50.566406 L 16.550781 50.566406 L 22.5625 56.207031 C 22.570312 56.214844 22.578125 56.226562 22.585938 56.234375 C 23.089844 56.667969 23.695312 56.925781 24.320312 56.925781 C 24.941406 56.925781 25.550781 56.667969 26.050781 56.234375 C 27.0625 55.359375 27.640625 53.882812 27.632812 52.324219 L 27.632812 25.308594 C 27.648438 23.972656 27.222656 22.699219 26.472656 21.796875 C 25.894531 21.101562 25.105469 20.65625 24.269531 20.65625 Z M 24.269531 20.65625 "/>
<path style=" stroke:none;fill-rule:nonzero;fill:rgb(0%,0%,0%);fill-opacity:0.298039;" d="M 24.269531 21.375 C 24.078125 21.375 24.015625 21.40625 23.824219 21.472656 C 23.574219 21.570312 23.277344 21.714844 23.058594 21.917969 L 16.722656 27.707031 L 9.746094 27.707031 C 7.828125 27.707031 6.332031 29.214844 6.332031 31.195312 L 6.332031 46.261719 C 6.332031 48.246094 7.828125 49.851562 9.746094 49.851562 L 16.824219 49.851562 L 23.058594 55.6875 C 23.847656 56.375 24.789062 56.375 25.582031 55.6875 C 26.375 55.003906 26.921875 53.691406 26.917969 52.324219 L 26.917969 25.308594 C 26.929688 24.136719 26.539062 22.976562 25.925781 22.242188 C 25.46875 21.691406 24.847656 21.375 24.269531 21.375 Z M 24.269531 21.375 "/>
<path style=" stroke:none;fill-rule:nonzero;fill:rgb(100%,100%,100%);fill-opacity:0.298039;" d="M 57.125 8.039062 L 52.300781 13.085938 C 58.648438 19.433594 62.515625 28.265625 62.515625 37.949219 C 62.515625 47.746094 58.554688 56.648438 52.078125 63.011719 L 57.023438 67.960938 C 64.796875 60.300781 69.667969 49.714844 69.667969 37.949219 C 69.667969 26.242188 64.832031 15.691406 57.125 8.039062 Z M 57.125 8.039062 "/>
<path style=" stroke:none;fill-rule:nonzero;fill:rgb(100%,100%,100%);fill-opacity:0.298039;" d="M 49.058594 16.105469 L 44.011719 21.152344 C 48.136719 25.554688 50.714844 31.421875 50.714844 37.925781 C 50.714844 44.480469 48.097656 50.410156 43.914062 54.824219 L 48.910156 59.820312 C 54.375 54.128906 57.742188 46.433594 57.742188 37.925781 C 57.742188 29.476562 54.453125 21.789062 49.058594 16.105469 Z M 49.058594 16.105469 "/>
<path style=" stroke:none;fill-rule:nonzero;fill:url(#linear0);" d="M 24.269531 20.582031 C 24.078125 20.582031 24.015625 20.617188 23.824219 20.683594 C 23.574219 20.777344 23.277344 20.925781 23.058594 21.128906 L 16.722656 26.917969 L 9.746094 26.917969 C 7.828125 26.917969 6.332031 28.421875 6.332031 30.40625 L 6.332031 45.472656 C 6.332031 47.453125 7.828125 49.058594 9.746094 49.058594 L 16.824219 49.058594 L 23.058594 54.898438 C 23.847656 55.585938 24.789062 55.582031 25.582031 54.898438 C 26.375 54.210938 26.921875 52.898438 26.917969 51.53125 L 26.917969 24.515625 C 26.929688 23.347656 26.539062 22.183594 25.925781 21.449219 C 25.46875 20.898438 24.847656 20.582031 24.269531 20.582031 Z M 24.269531 20.582031 "/>
<path style=" stroke:none;fill-rule:nonzero;fill:rgb(100%,100%,100%);fill-opacity:0.298039;" d="M 40.894531 24.269531 L 35.796875 29.367188 C 37.671875 31.738281 38.839844 34.691406 38.839844 37.949219 C 38.839844 41.261719 37.671875 44.269531 35.75 46.660156 L 40.796875 51.730469 C 43.972656 48.027344 45.890625 43.207031 45.890625 37.949219 C 45.890625 32.746094 44.015625 27.957031 40.894531 24.269531 Z M 40.894531 24.269531 "/>
<path style=" stroke:none;fill-rule:nonzero;fill:rgb(100%,100%,100%);fill-opacity:0.6;" d="M 24.269531 20.582031 C 24.078125 20.582031 24.015625 20.617188 23.824219 20.683594 C 23.574219 20.777344 23.277344 20.925781 23.058594 21.128906 L 16.722656 26.917969 L 9.746094 26.917969 C 7.828125 26.917969 6.332031 28.421875 6.332031 30.40625 L 6.332031 31.988281 C 6.332031 30.003906 7.828125 28.5 9.746094 28.5 L 16.722656 28.5 L 23.058594 22.710938 C 23.277344 22.507812 23.574219 22.363281 23.824219 22.265625 C 24.015625 22.199219 24.078125 22.167969 24.269531 22.167969 C 24.847656 22.167969 25.46875 22.480469 25.925781 23.03125 C 26.539062 23.769531 26.929688 24.929688 26.917969 26.101562 L 26.917969 24.515625 C 26.929688 23.347656 26.539062 22.183594 25.925781 21.449219 C 25.46875 20.898438 24.847656 20.582031 24.269531 20.582031 Z M 24.269531 20.582031 "/>
</g>
</svg>
