<?xml version="1.0" encoding="UTF-8" standalone="no"?>
<svg
   xmlns:dc="http://purl.org/dc/elements/1.1/"
   xmlns:cc="http://creativecommons.org/ns#"
   xmlns:rdf="http://www.w3.org/1999/02/22-rdf-syntax-ns#"
   xmlns:svg="http://www.w3.org/2000/svg"
   xmlns="http://www.w3.org/2000/svg"
   xmlns:sodipodi="http://sodipodi.sourceforge.net/DTD/sodipodi-0.dtd"
   xmlns:inkscape="http://www.inkscape.org/namespaces/inkscape"
   width="19pt"
   height="19pt"
   viewBox="0 0 19 19"
   version="1.1"
   id="svg86"
   inkscape:version="0.91 r13725"
   sodipodi:docname="avatar-default.svg">
  <metadata
     id="metadata95">
    <rdf:RDF>
      <cc:Work
         rdf:about="">
        <dc:format>image/svg+xml</dc:format>
        <dc:type
           rdf:resource="http://purl.org/dc/dcmitype/StillImage" />
      </cc:Work>
    </rdf:RDF>
  </metadata>
  <defs
     id="defs93" />
  <sodipodi:namedview
     pagecolor="#ffffff"
     bordercolor="#666666"
     borderopacity="1"
     objecttolerance="10"
     gridtolerance="10"
     guidetolerance="10"
     inkscape:pageopacity="0"
     inkscape:pageshadow="2"
     inkscape:window-width="1366"
     inkscape:window-height="708"
     id="namedview91"
     showgrid="false"
     inkscape:zoom="9.9368421"
     inkscape:cx="-3.8241525"
     inkscape:cy="11.875"
     inkscape:window-x="0"
     inkscape:window-y="24"
     inkscape:window-maximized="1"
     inkscape:current-layer="svg86" />
  <g
     id="surface1"
     transform="matrix(0.75789474,0,0,0.75789474,2.3,1.9491777)"
     style="fill:#cccccc">
    <path
       style="fill:#cccccc;fill-opacity:1;fill-rule:nonzero;stroke:none"
       d="m 9.5,0.925781 c -2.679688,0 -4.828125,2.015625 -4.828125,4.515625 C 4.679688,5.710938 4.699219,6.09375 4.722656,6.417969 4.265625,6.613281 4.234375,7.503906 4.621094,8.421875 4.777344,8.785156 4.972656,9.0625 5.1875,9.292969 c 0.050781,0.257812 0.039062,0.375 0.101562,0.667969 0.179688,0.539062 0.886719,1.59375 1.539063,2.464843 0.066406,0.671875 0.132813,1.34375 0,2.105469 -1.882813,1.5625 -6.734375,2.234375 -6.726563,3.851562 L 0,19 19,19 18.898438,18.382812 C 18.890625,17 14.03125,16.148438 12.171875,14.53125 c -0.07813,-0.617188 -0.08984,-1.238281 -0.05469,-1.847656 0.597656,-0.917969 1.394531,-2.121094 1.59375,-2.722656 0.07031,-0.300782 0.09766,-0.507813 0.152343,-0.769532 0.179688,-0.214844 0.332031,-0.460937 0.464844,-0.769531 0.367187,-0.871094 0.34375,-1.703125 -0.05078,-1.953125 0.02344,-0.347656 0.03906,-0.722656 0.05078,-1.027344 0,-2.5 -2.148437,-4.515625 -4.828125,-4.515625 z m 0,0"
       id="path89"
       inkscape:connector-curvature="0" />
  </g>
</svg>
