<?xml version="1.0" encoding="UTF-8" standalone="no"?>
<svg
   xmlns:dc="http://purl.org/dc/elements/1.1/"
   xmlns:cc="http://creativecommons.org/ns#"
   xmlns:rdf="http://www.w3.org/1999/02/22-rdf-syntax-ns#"
   xmlns:svg="http://www.w3.org/2000/svg"
   xmlns="http://www.w3.org/2000/svg"
   xmlns:sodipodi="http://sodipodi.sourceforge.net/DTD/sodipodi-0.dtd"
   xmlns:inkscape="http://www.inkscape.org/namespaces/inkscape"
   width="76pt"
   height="76pt"
   viewBox="0 0 76 76"
   version="1.1"
   id="svg73"
   inkscape:version="0.91 r13725"
   sodipodi:docname="battery-100.svg">
  <metadata
     id="metadata84">
    <rdf:RDF>
      <cc:Work
         rdf:about="">
        <dc:format>image/svg+xml</dc:format>
        <dc:type
           rdf:resource="http://purl.org/dc/dcmitype/StillImage" />
      </cc:Work>
    </rdf:RDF>
  </metadata>
  <defs
     id="defs82" />
  <sodipodi:namedview
     pagecolor="#ffffff"
     bordercolor="#666666"
     borderopacity="1"
     objecttolerance="10"
     gridtolerance="10"
     guidetolerance="10"
     inkscape:pageopacity="0"
     inkscape:pageshadow="2"
     inkscape:window-width="640"
     inkscape:window-height="480"
     id="namedview80"
     showgrid="false"
     inkscape:zoom="2.4842105"
     inkscape:cx="47.5"
     inkscape:cy="47.5"
     inkscape:window-x="270"
     inkscape:window-y="252"
     inkscape:window-maximized="0"
     inkscape:current-layer="svg73" />
  <g
     id="surface1"
     style="stroke:#cccccc">
    <path
       style="stroke:#cccccc;fill-rule:nonzero;fill:rgb(80%, 80%, 80%);fill-opacity:1"
       d="M 54.890625 26.390625 L 54.890625 49.609375 C 54.890625 50.195312 54.417969 50.667969 53.832031 50.667969 L 13.722656 50.667969 C 13.140625 50.667969 12.667969 50.195312 12.667969 49.609375 L 12.667969 26.390625 C 12.667969 25.804688 13.140625 25.332031 13.722656 25.332031 L 53.832031 25.332031 C 54.417969 25.332031 54.890625 25.804688 54.890625 26.390625 Z M 54.890625 26.390625 "
       id="path76" />
    <path
       style="stroke:#cccccc;fill-rule:nonzero;fill:rgb(80%, 80%, 80%);fill-opacity:1"
       d="M 71.777344 33.777344 C 71.777344 31.4375 69.894531 29.554688 67.554688 29.554688 L 63.332031 29.554688 L 63.332031 21.109375 C 63.332031 18.773438 61.449219 16.890625 59.109375 16.890625 L 8.445312 16.890625 C 6.105469 16.890625 4.222656 18.773438 4.222656 21.109375 L 4.222656 54.890625 C 4.222656 57.226562 6.105469 59.109375 8.445312 59.109375 L 59.109375 59.109375 C 61.449219 59.109375 63.332031 57.226562 63.332031 54.890625 L 63.332031 46.445312 L 67.554688 46.445312 C 69.894531 46.445312 71.777344 44.5625 71.777344 42.222656 Z M 67.554688 35.890625 L 67.554688 40.109375 C 67.554688 41.28125 66.613281 42.222656 65.445312 42.222656 L 63.332031 42.222656 L 63.332031 33.777344 L 65.445312 33.777344 C 66.613281 33.777344 67.554688 34.71875 67.554688 35.890625 Z M 59.109375 23.222656 L 59.109375 52.777344 C 59.109375 53.949219 58.167969 54.890625 57 54.890625 L 10.554688 54.890625 C 9.386719 54.890625 8.445312 53.949219 8.445312 52.777344 L 8.445312 23.222656 C 8.445312 22.050781 9.386719 21.109375 10.554688 21.109375 L 57 21.109375 C 58.167969 21.109375 59.109375 22.050781 59.109375 23.222656 Z M 59.109375 23.222656 "
       id="path78" />
  </g>
</svg>
