<svg display="inline" height="96" width="96" xmlns="http://www.w3.org/2000/svg" xmlns:xlink="http://www.w3.org/1999/xlink" xmlns:sodipodi="http://sodipodi.sourceforge.net/DTD/sodipodi-0.dtd" xmlns:inkscape="http://www.inkscape.org/namespaces/inkscape">
 <defs>
  <linearGradient id="linearGradient3737">
   <stop stop-color="#ffffff" stop-opacity="1"/>
   <stop stop-color="#ffffff" stop-opacity="0" offset="1"/>
  </linearGradient>
  <linearGradient x2="0" y1="90" y2="5.988" gradientUnits="userSpaceOnUse" id="linearGradient3706">
   <stop stop-color="#e6e6e6" stop-opacity="1"/>
   <stop stop-color="#f5f5f5" stop-opacity="1" offset="1"/>
  </linearGradient>
  <linearGradient x2="0" y1="92.54" y2="7.02" gradientUnits="userSpaceOnUse" id="ButtonShadow-0" gradientTransform="matrix(1.0059 0 0 0.99417 100 0)">
   <stop stop-color="#000000" stop-opacity="1"/>
   <stop stop-color="#000000" stop-opacity="0.588" offset="1"/>
  </linearGradient>
  <linearGradient x2="0" xlink:href="#ButtonShadow-0" y1="6.132" y2="90.24" gradientUnits="userSpaceOnUse" id="linearGradient3780" gradientTransform="matrix(1.02381 0 0 1.0119 -1.143 -98.07)"/>
  <linearGradient x2="0" xlink:href="#ButtonShadow-0" y1="6.132" y2="90.24" gradientUnits="userSpaceOnUse" id="linearGradient3721" gradientTransform="matrix(1 0 0 1 0 -97)"/>
  <radialGradient cy="90.17" r="42" xlink:href="#linearGradient3737" gradientUnits="userSpaceOnUse" id="radialGradient2886" cx="48" gradientTransform="matrix(1.15731 0 0 0.99591 -7.551 0.197)"/>
  <linearGradient x2="0" xlink:href="#linearGradient3737" y1="6" y2="63.893" gradientUnits="userSpaceOnUse" id="linearGradient3923"/>
  <linearGradient x2="0" xlink:href="#linearGradient3737" y1="56" y2="0" gradientUnits="userSpaceOnUse" id="linearGradient3982"/>
  <linearGradient x2="0" y1="48" y2="72" spreadMethod="reflect" gradientUnits="userSpaceOnUse" id="linearGradient3938">
   <stop stop-color="#101010" stop-opacity="1"/>
   <stop stop-color="#454545" stop-opacity="1" offset="1"/>
  </linearGradient>
  <clipPath id="clipPath2952">
   <rect x="12" rx="3" y="20" height="56" width="72"/>
  </clipPath>
  <linearGradient x2="0" y1="80" y2="-40.07" gradientUnits="userSpaceOnUse" id="linearGradient3748" gradientTransform="matrix(1 0 0 1 -20 0)">
   <stop stop-color="#000000" stop-opacity="1"/>
   <stop stop-color="#000000" stop-opacity="0" offset="1"/>
  </linearGradient>
  <linearGradient x2="0" xlink:href="#linearGradient3737" y1="119.02" y2="50.721" gradientUnits="userSpaceOnUse" id="linearGradient3327" gradientTransform="matrix(0.36937 0 0 -0.36937 -55.64 71.64)"/>
  <linearGradient x2="0" y1="121.37" y2="6.634" gradientUnits="userSpaceOnUse" id="linearGradient3330" gradientTransform="matrix(0.36607 0 0 0.36607 24.571 24.571)">
   <stop stop-color="#ba0000" stop-opacity="1"/>
   <stop stop-color="#ff331e" stop-opacity="1" offset="1"/>
  </linearGradient>
  <linearGradient x2="0" y1="28" y2="91.01" gradientUnits="userSpaceOnUse" id="linearGradient3812">
   <stop stop-color="#fff6d5" stop-opacity="1"/>
   <stop stop-color="#fff6d5" stop-opacity="0" offset="1"/>
  </linearGradient>
 </defs>
 <path d="m 12,-95.03125 c -5.5110903,0 -10.03125,4.52016 -10.03125,10.03125 l 0,71 c 0,5.5110902 4.5201598,10.03125 10.03125,10.03125 l 72,0 c 5.51109,0 10.03125,-4.5201597 10.03125,-10.03125 l 0,-71 c 0,-5.51109 -4.52016,-10.03125 -10.03125,-10.03125 l -72,0 z" fill="url(#linearGradient3780)" fill-opacity="1" fill-rule="nonzero" stroke="none" opacity="0.08" transform="matrix(1 0 0 -1 0 0)"/>
 <path d="m 12,-94.03125 c -4.971633,0 -9.03125,4.059617 -9.03125,9.03125 l 0,71 c 0,4.9716329 4.0596171,9.03125 9.03125,9.03125 l 72,0 c 4.971633,0 9.03125,-4.059617 9.03125,-9.03125 l 0,-71 c 0,-4.971633 -4.059617,-9.03125 -9.03125,-9.03125 l -72,0 z" fill="url(#linearGradient3780)" fill-opacity="1" fill-rule="nonzero" stroke="none" opacity="0.1" transform="matrix(1 0 0 -1 0 0)"/>
 <path d="m 12,-93 c -4.4091333,0 -8,3.590867 -8,8 l 0,71 c 0,4.4091333 3.5908667,8 8,8 l 72,0 c 4.409133,0 8,-3.5908667 8,-8 l 0,-71 c 0,-4.409133 -3.590867,-8 -8,-8 l -72,0 z" fill="url(#linearGradient3780)" fill-opacity="1" fill-rule="nonzero" stroke="none" opacity="0.2" transform="matrix(1 0 0 -1 0 0)"/>
 <rect x="5" rx="7" y="-92" fill="url(#linearGradient3780)" fill-opacity="1" fill-rule="nonzero" stroke="none" height="85" opacity="0.3" width="86" transform="matrix(1 0 0 -1 0 0)"/>
 <rect x="6" rx="6" y="-91" fill="url(#linearGradient3721)" fill-opacity="1" fill-rule="nonzero" stroke="none" height="84" opacity="0.45" width="84" transform="matrix(1 0 0 -1 0 0)"/>
 <rect x="6" rx="6" y="6" fill="url(#linearGradient3706)" fill-opacity="1" fill-rule="nonzero" stroke="none" height="84" width="84"/>
 <path d="M 12,6 C 8.676,6 6,8.676 6,12 l 0,2 0,68 0,2 c 0,0.334721 0.04135,0.6507 0.09375,0.96875 0.0487,0.295596 0.09704,0.596915 0.1875,0.875 0.0099,0.03038 0.02089,0.0636 0.03125,0.09375 0.09886,0.287771 0.23488,0.547452 0.375,0.8125 0.144592,0.273507 0.315616,0.535615 0.5,0.78125 0.184384,0.245635 0.373776,0.473472 0.59375,0.6875 0.439947,0.428056 0.94291,0.814526 1.5,1.09375 0.278545,0.139612 0.573473,0.246947 0.875,0.34375 -0.256202,-0.100222 -0.486711,-0.236272 -0.71875,-0.375 -0.0074,-0.0044 -0.02387,0.0045 -0.03125,0 -0.03193,-0.0193 -0.06229,-0.04251 -0.09375,-0.0625 -0.120395,-0.0767 -0.231023,-0.163513 -0.34375,-0.25 -0.106173,-0.0808 -0.213281,-0.161112 -0.3125,-0.25 C 8.47832,88.557317 8.30879,88.373362 8.15625,88.1875 8.048671,88.057245 7.937856,87.922215 7.84375,87.78125 7.81866,87.74287 7.8053,87.69538 7.78125,87.65625 7.71649,87.553218 7.651022,87.451733 7.59375,87.34375 7.492742,87.149044 7.388075,86.928049 7.3125,86.71875 7.3045,86.69694 7.28891,86.6782 7.28125,86.65625 7.24942,86.5643 7.24545,86.469419 7.21875,86.375 7.188418,86.268382 7.148361,86.171969 7.125,86.0625 7.052121,85.720988 7,85.364295 7,85 L 7,83 7,15 7,13 C 7,10.218152 9.218152,8 12,8 l 2,0 68,0 2,0 c 2.781848,0 5,2.218152 5,5 l 0,2 0,68 0,2 c 0,0.364295 -0.05212,0.720988 -0.125,1.0625 -0.04415,0.206893 -0.08838,0.397658 -0.15625,0.59375 -0.0077,0.02195 -0.0233,0.04069 -0.03125,0.0625 -0.06274,0.173739 -0.138383,0.367449 -0.21875,0.53125 -0.04158,0.0828 -0.07904,0.169954 -0.125,0.25 -0.0546,0.09721 -0.126774,0.18835 -0.1875,0.28125 -0.09411,0.140965 -0.204921,0.275995 -0.3125,0.40625 -0.143174,0.17445 -0.303141,0.346998 -0.46875,0.5 -0.01117,0.0102 -0.01998,0.02115 -0.03125,0.03125 -0.138386,0.125556 -0.285091,0.234436 -0.4375,0.34375 -0.102571,0.07315 -0.204318,0.153364 -0.3125,0.21875 -0.0074,0.0045 -0.02384,-0.0044 -0.03125,0 -0.232039,0.138728 -0.462548,0.274778 -0.71875,0.375 0.301527,-0.0968 0.596455,-0.204138 0.875,-0.34375 0.55709,-0.279224 1.060053,-0.665694 1.5,-1.09375 0.219973,-0.214028 0.409366,-0.441865 0.59375,-0.6875 0.184384,-0.245635 0.355408,-0.507743 0.5,-0.78125 0.14012,-0.265048 0.276135,-0.524729 0.375,-0.8125 0.01041,-0.03078 0.02133,-0.06274 0.03125,-0.09375 0.09046,-0.278085 0.1388,-0.579404 0.1875,-0.875 C 89.95865,84.6507 90,84.334721 90,84 l 0,-2 0,-68 0,-2 C 90,8.676 87.324,6 84,6 L 12,6 z" fill="url(#linearGradient3923)" fill-opacity="1" fill-rule="nonzero" stroke="none" opacity="0.5" inkscape:connector-curvature="0"/>
 <path d="M 12,90 C 8.676,90 6,87.324 6,84 L 6,82 6,14 6,12 c 0,-0.334721 0.04135,-0.6507 0.09375,-0.96875 0.0487,-0.295596 0.09704,-0.596915 0.1875,-0.875 C 6.29113,10.12587 6.302142,10.09265 6.3125,10.0625 6.411365,9.774729 6.5473802,9.515048 6.6875,9.25 6.8320918,8.976493 7.0031161,8.714385 7.1875,8.46875 7.3718839,8.223115 7.5612765,7.995278 7.78125,7.78125 8.221197,7.353194 8.72416,6.966724 9.28125,6.6875 9.559795,6.547888 9.8547231,6.440553 10.15625,6.34375 9.9000482,6.443972 9.6695391,6.580022 9.4375,6.71875 c -0.00741,0.0044 -0.023866,-0.0045 -0.03125,0 -0.031933,0.0193 -0.062293,0.04251 -0.09375,0.0625 -0.120395,0.0767 -0.2310226,0.163513 -0.34375,0.25 -0.1061728,0.0808 -0.2132809,0.161112 -0.3125,0.25 C 8.4783201,7.442683 8.3087904,7.626638 8.15625,7.8125 8.0486711,7.942755 7.9378561,8.077785 7.84375,8.21875 7.818661,8.25713 7.805304,8.30462 7.78125,8.34375 7.716487,8.446782 7.6510225,8.548267 7.59375,8.65625 7.4927417,8.850956 7.3880752,9.071951 7.3125,9.28125 7.30454,9.30306 7.288911,9.3218 7.28125,9.34375 7.2494249,9.4357 7.2454455,9.530581 7.21875,9.625 7.1884177,9.731618 7.1483606,9.828031 7.125,9.9375 7.0521214,10.279012 7,10.635705 7,11 l 0,2 0,68 0,2 c 0,2.781848 2.2181517,5 5,5 l 2,0 68,0 2,0 c 2.781848,0 5,-2.218152 5,-5 l 0,-2 0,-68 0,-2 C 89,10.635705 88.94788,10.279012 88.875,9.9375 88.83085,9.730607 88.78662,9.539842 88.71875,9.34375 88.71105,9.3218 88.69545,9.30306 88.6875,9.28125 88.62476,9.107511 88.549117,8.913801 88.46875,8.75 88.42717,8.6672 88.38971,8.580046 88.34375,8.5 88.28915,8.40279 88.216976,8.31165 88.15625,8.21875 88.06214,8.077785 87.951329,7.942755 87.84375,7.8125 87.700576,7.63805 87.540609,7.465502 87.375,7.3125 87.36383,7.3023 87.35502,7.29135 87.34375,7.28125 87.205364,7.155694 87.058659,7.046814 86.90625,6.9375 86.803679,6.86435 86.701932,6.784136 86.59375,6.71875 c -0.0074,-0.0045 -0.02384,0.0044 -0.03125,0 -0.232039,-0.138728 -0.462548,-0.274778 -0.71875,-0.375 0.301527,0.0968 0.596455,0.204138 0.875,0.34375 0.55709,0.279224 1.060053,0.665694 1.5,1.09375 0.219973,0.214028 0.409366,0.441865 0.59375,0.6875 0.184384,0.245635 0.355408,0.507743 0.5,0.78125 0.14012,0.265048 0.276135,0.524729 0.375,0.8125 0.01041,0.03078 0.02133,0.06274 0.03125,0.09375 0.09046,0.278085 0.1388,0.579404 0.1875,0.875 C 89.95865,11.3493 90,11.665279 90,12 l 0,2 0,68 0,2 c 0,3.324 -2.676,6 -6,6 l -72,0 z" fill="url(#radialGradient2886)" fill-opacity="1" fill-rule="nonzero" stroke="none" opacity="0.4" inkscape:connector-curvature="0"/>
 <text x="131.39" font-size="4" font-stretch="normal" font-style="normal" font-variant="normal" y="11.969" font-weight="normal" text-anchor="start" line-height="125%" fill="#000000" fill-opacity="1" stroke="none" writing-mode="lr-tb" font-family="Liberation Sans"><tspan x="131.39" y="11.969">Width: 2px</tspan><tspan x="131.39" y="16.969">Blur: 12</tspan><tspan x="131.39" y="21.969">Opacity: 60</tspan>
 </text>
 <g clip-path="url(#clipPath2952)">
  <rect x="12" stroke-width="1" y="20" fill="url(#linearGradient3938)" color="#000000" fill-opacity="1" fill-rule="nonzero" stroke="none" height="56" visibility="visible" width="72"/>
 </g>
 <path d="M 48,26.15625 C 35.411072,26.15625 25.15625,36.411073 25.15625,49 25.15625,61.588926 35.411071,71.84375 48,71.84375 60.588928,71.84375 70.84375,61.588926 70.84375,49 70.84375,36.411073 60.588927,26.15625 48,26.15625 z m 0,12 c 6.003788,0 10.84375,4.839963 10.84375,10.84375 0,0.252184 -0.131302,0.574979 -0.1875,0.84375 l -11.5,-11.5 c 0.268749,-0.0562 0.590398,-0.1875 0.84375,-0.1875 z m -10.625,9.5 L 49.34375,59.625 C 48.900056,59.702453 48.450173,59.84375 48,59.84375 41.996213,59.84375 37.15625,55.003785 37.15625,49 c 0,-0.448616 0.141288,-0.899778 0.21875,-1.34375 z" fill="#000000" fill-opacity="1" stroke="none" opacity="0.1"/>
 <path d="M 48,26.96875 C 35.85329,26.96875 25.96875,36.853291 25.96875,49 25.96875,61.146707 35.85329,71.03125 48,71.03125 60.146709,71.03125 70.03125,61.146707 70.03125,49 70.03125,36.853291 60.146709,26.96875 48,26.96875 z m 0,10.375 c 6.443426,0 11.65625,5.212825 11.65625,11.65625 0,0.867734 -0.30043,1.656275 -0.5,2.46875 l -13.625,-13.625 c 0.811488,-0.199455 1.59837,-0.5 2.46875,-0.5 z M 36.84375,46 51,60.15625 c -0.968257,0.283886 -1.954985,0.5 -3,0.5 -6.443425,0 -11.65625,-5.212827 -11.65625,-11.65625 0,-1.042072 0.216046,-2.030598 0.5,-3 z" fill="#000000" fill-opacity="1" stroke="none" opacity="0.15"/>
 <path d="M 12,6 C 8.676,6 6,8.676 6,12 L 6,65.375 C 21.659672,54.324822 48.932917,47 80,47 c 3.382367,0 6.716951,0.1124 10,0.28125 L 90,12 C 90,8.676 87.324,6 84,6 L 12,6 z" fill="url(#linearGradient3982)" fill-opacity="1" fill-rule="nonzero" stroke="none" opacity="0.2" inkscape:connector-curvature="0"/>
 <path d="M 48,27.9375 C 36.376978,27.9375 26.9375,37.376979 26.9375,49 26.9375,60.623019 36.376978,70.0625 48,70.0625 59.623021,70.0625 69.0625,60.623019 69.0625,49 69.0625,37.376979 59.623021,27.9375 48,27.9375 z m 0,8.4375 c 6.967085,0 12.625,5.657916 12.625,12.625 0,1.577229 -0.341074,3.045362 -0.875,4.4375 L 43.5625,37.25 C 44.954494,36.715161 46.419083,36.375 48,36.375 z M 36.40625,44.1875 52.8125,60.59375 C 51.320395,61.218498 49.718363,61.625 48,61.625 41.032916,61.625 35.375,55.967082 35.375,49 c 0,-1.714686 0.407579,-3.320374 1.03125,-4.8125 z" fill="#000000" fill-opacity="1" stroke="none" opacity="0.3"/>
 <path d="m 15,20 c -1.662,0 -3,1.338 -3,3 l 0,50 c 0,1.662 1.338,3 3,3 l 66,0 c 1.662,0 3,-1.338 3,-3 l 0,-50 c 0,-1.662 -1.338,-3 -3,-3 l -66,0 z m 0,0.96875 66,0 c 1.14652,0 2.03125,0.884731 2.03125,2.03125 l 0,50 c 0,1.146519 -0.88473,2.03125 -2.03125,2.03125 l -66,0 c -1.146519,0 -2.03125,-0.884731 -2.03125,-2.03125 l 0,-50 c 0,-1.146519 0.884731,-2.03125 2.03125,-2.03125 z" stroke-width="0.5" fill="url(#linearGradient3748)" color="#000000" fill-opacity="1" fill-rule="nonzero" stroke="none" opacity="0.3" visibility="visible" inkscape:connector-curvature="0"/>
 <path d="m 12,73 0,1 c 0,1.662 1.338,3 3,3 l 66,0 c 1.662,0 3,-1.338 3,-3 l 0,-1 c 0,1.662 -1.338,3 -3,3 l -66,0 c -1.662,0 -3,-1.338 -3,-3 z" stroke-width="0.5" fill="#ffffff" color="#000000" fill-opacity="1" fill-rule="nonzero" stroke="none" opacity="0.7" visibility="visible" inkscape:connector-curvature="0"/>
 <path stroke-opacity="1" d="M 48,27.500001 C 36.683999,27.500001 27.500001,36.684 27.500001,48 27.500001,59.315998 36.683999,68.499999 48,68.499999 59.316,68.499999 68.5,59.315998 68.5,48 68.5,36.684 59.316,27.500001 48,27.500001 z m 0,7.321432 c 7.27457,0 13.178571,5.903998 13.178571,13.178567 0,1.965932 -0.439706,3.82625 -1.212613,5.502513 L 42.486047,36.034036 C 44.164754,35.258386 46.03036,34.821432 48,34.821432 z M 36.194198,42.165734 53.845703,59.805801 C 52.082858,60.681168 50.100532,61.178566 48,61.178566 c -7.274569,0 -13.178569,-5.904 -13.178569,-13.178567 0,-2.096897 0.500235,-4.073699 1.372767,-5.834265 z" stroke-width="1" fill="url(#linearGradient3330)" fill-opacity="1" stroke="#a00000" stroke-dasharray="none" stroke-linecap="round" stroke-linejoin="miter" stroke-miterlimit="4" inkscape:connector-curvature="0"/>
 <path d="m -32.000001,68.315315 c -11.214058,0 -20.315315,-9.101258 -20.315315,-20.315315 0,-11.214058 9.101257,-20.315314 20.315315,-20.315314 11.214054,0 20.315314,9.101256 20.315314,20.315314 0,11.214058 -9.10126,20.315315 -20.315314,20.315315 z m 0,-1.108106 c 10.602378,0 19.207207,-8.604827 19.207207,-19.207209 0,-10.602381 -8.604827,-19.207209 -19.207206,-19.207209 -10.602382,0 -19.207208,8.604827 -19.207208,19.207208 0,10.602381 8.604826,19.207209 19.207208,19.207209 z" fill="url(#linearGradient3327)" fill-opacity="1" stroke="none" opacity="0.5" inkscape:connector-curvature="0"/>
 <path d="m 48,27.5 c -11.316001,0 -20.5,9.184 -20.5,20.5 0,0.166268 -0.0039,0.334675 0,0.5 0.264419,-11.086501 9.350267,-20 20.5,-20 11.149732,0 20.235581,8.913499 20.5,20 0.0039,-0.165325 0,-0.333732 0,-0.5 C 68.5,36.684 59.316,27.5 48,27.5 z m -4.78125,9.25 C 42.976109,36.845215 42.735513,36.922431 42.5,37.03125 L 59.96875,54.5 c 0.772907,-1.676263 1.21875,-3.534068 1.21875,-5.5 0,-0.200954 -0.02233,-0.394984 -0.03125,-0.59375 -0.05617,1.81592 -0.468083,3.533495 -1.1875,5.09375 l -16.75,-16.75 z m -8.375,11.8125 c -0.0049,0.145671 -0.03125,0.290617 -0.03125,0.4375 0,7.274567 5.912931,13.1875 13.1875,13.1875 2.100532,0 4.080905,-0.499633 5.84375,-1.375 L 53.125,60.09375 C 51.542974,60.768261 49.827742,61.1875 48,61.1875 c -7.084166,0 -12.858304,-5.613728 -13.15625,-12.625 z" fill="url(#linearGradient3812)" fill-opacity="1" stroke="none" opacity="0.5" inkscape:connector-curvature="0"/>
</svg>
