<?xml version="1.0" encoding="UTF-8" standalone="no"?>
<!-- Created with Inkscape (http://www.inkscape.org/) -->

<svg
   xmlns:dc="http://purl.org/dc/elements/1.1/"
   xmlns:cc="http://creativecommons.org/ns#"
   xmlns:rdf="http://www.w3.org/1999/02/22-rdf-syntax-ns#"
   xmlns:svg="http://www.w3.org/2000/svg"
   xmlns="http://www.w3.org/2000/svg"
   xmlns:sodipodi="http://sodipodi.sourceforge.net/DTD/sodipodi-0.dtd"
   xmlns:inkscape="http://www.inkscape.org/namespaces/inkscape"
   width="16"
   height="16"
   id="svg2"
   sodipodi:version="0.32"
   inkscape:version="0.48.5 r10040"
   version="1.0"
   sodipodi:docname="network-receive-symbolic.svg"
   inkscape:output_extension="org.inkscape.output.svg.inkscape">
  <defs
     id="defs4" />
  <sodipodi:namedview
     id="base"
     pagecolor="#ffffff"
     bordercolor="#e7e7e7"
     borderopacity="1"
     inkscape:pageopacity="0.0"
     inkscape:pageshadow="2"
     inkscape:zoom="13.297528"
     inkscape:cx="-32.560872"
     inkscape:cy="13.618842"
     inkscape:document-units="px"
     inkscape:current-layer="layer1"
     showgrid="true"
     inkscape:showpageshadow="false"
     showguides="true"
     inkscape:guide-bbox="true"
     inkscape:window-width="1920"
     inkscape:window-height="1028"
     inkscape:window-x="0"
     inkscape:window-y="25"
     inkscape:window-maximized="1"
     inkscape:snap-global="false">
    <sodipodi:guide
       orientation="1,0"
       position="0,112"
       id="guide2383" />
    <sodipodi:guide
       orientation="0,1"
       position="78.156291,0"
       id="guide2389" />
    <inkscape:grid
       type="xygrid"
       id="grid3672"
       visible="true"
       enabled="true" />
    <sodipodi:guide
       orientation="1,0"
       position="22.008699,4.1542523"
       id="guide2950" />
    <sodipodi:guide
       orientation="0,1"
       position="11.22532,22.008699"
       id="guide2952" />
  </sodipodi:namedview>
  <metadata
     id="metadata7">
    <rdf:RDF>
      <cc:Work
         rdf:about="">
        <dc:format>image/svg+xml</dc:format>
        <dc:type
           rdf:resource="http://purl.org/dc/dcmitype/StillImage" />
        <dc:title />
      </cc:Work>
    </rdf:RDF>
  </metadata>
  <g
     inkscape:label="Calque 1"
     inkscape:groupmode="layer"
     id="layer1">
    <path
       id="path3701"
       d="m 5.7287846,19.142522 -5.49297094,5.46789 c -0.31441823,0.314417 -0.31441823,0.839356 0,1.153774 0.31441825,0.314419 0.83935644,0.314419 1.15377474,0 L 6.9828875,20.170887 C 6.5328111,19.864611 6.1247055,19.513599 5.7287846,19.142522 z"
       style="opacity:0.2;fill:#ff0000;fill-opacity:1;stroke:none;display:inline"
       sodipodi:nodetypes="ccsccc" />
    <path
       transform="matrix(1.0869353,0,0,1.0839124,-6.2049829,8.3333105)"
       d="M 10.875,8.46875 A 0.53394727,0.53394727 0 0 0 10.625,8.625 l -2,2 A 0.53394727,0.53394727 0 0 0 8.46875,11 l 0,2 A 0.53394727,0.53394727 0 0 0 9,13.53125 l 2,0 A 0.53394727,0.53394727 0 0 0 11.375,13.375 l 2,-2 a 0.53394727,0.53394727 0 0 0 0,-0.75 l -2,-2 a 0.53394727,0.53394727 0 0 0 -0.5,-0.15625 z"
       id="path3703"
       style="opacity:0.2;fill:#ff0000;stroke:none;display:inline"
       inkscape:original="M 11 9 L 9 11 L 9 13 L 11 13 L 13 11 L 11 9 z "
       inkscape:radius="0.53389388"
       sodipodi:type="inkscape:offset" />
    <path
       style="fill:#bebebe;fill-opacity:1;stroke:none;display:inline"
       d="m 10.159583,8.9722663 a 0.63312664,0.63136584 0 0 0 0.28125,-0.1875 l 2.375,-2.375 a 0.63312664,0.63136584 0 0 0 0.1875,-0.4375 l 0,-1.875 2.75,-2.75 c 0.314418,-0.314417 0.314418,-0.810582 0,-1.125 -0.314418,-0.314419 -0.810582,-0.314419 -1.125,0 l -2.75,2.75 -1.875,0 a 0.63312664,0.63136584 0 0 0 -0.4375002,0.1875 l -2.375,2.375 a 0.63312664,0.63136584 0 0 0 0,0.875 l 2.375,2.375 a 0.63312664,0.63136584 0 0 0 0.5937502,0.1875 z"
       id="path3708"
       inkscape:connector-curvature="0" />
    <path
       id="path3713"
       d="m 5.8437498,7.0000003 a 0.63312664,0.63136584 0 0 0 -0.28125,0.1875 l -2.375,2.375 A 0.63312664,0.63136584 0 0 0 2.9999998,10 l 0,1.875 -2.74999997,2.75 c -0.314418,0.314417 -0.314418,0.810582 0,1.125 0.314418,0.314419 0.81058197,0.314419 1.12499997,0 l 2.75,-2.75 1.875,0 a 0.63312664,0.63136584 0 0 0 0.4375,-0.1875 l 2.375,-2.375 a 0.63312664,0.63136584 0 0 0 0,-0.8749997 l -2.375,-2.375 a 0.63312664,0.63136584 0 0 0 -0.59375,-0.1875 z"
       style="opacity:0.45;fill:#bebebe;fill-opacity:1;stroke:none;display:inline"
       inkscape:connector-curvature="0" />
  </g>
</svg>
