<svg display="inline" height="16" width="16" xmlns="http://www.w3.org/2000/svg" xmlns:sodipodi="http://sodipodi.sourceforge.net/DTD/sodipodi-0.dtd" xmlns:inkscape="http://www.inkscape.org/namespaces/inkscape">
 <g inkscape:label="Icon" inkscape:groupmode="layer" transform="matrix(1 0 0 1 0 -6)">
  <path d="m -11.5,10 c -0.277,0 -0.5,0.223 -0.5,0.5 l 0,7 c 0,0.277 0.223,0.5 0.5,0.5 l 5,0 c 0.277,0 0.5,-0.223 0.5,-0.5 l 0,-4.5 -3,0 0,2 1,0 0,1 -2,0 0,-1 0,-2 0,-1 4,0 0,-1.5 C -6,10.223 -6.223,10 -6.5,10 l -5,0 z" stroke-width="0.8" fill="#ffffff" color="#000000" fill-opacity="1" fill-rule="nonzero" stroke="none" visibility="visible" inkscape:connector-curvature="0"/>
  <path d="m -17,10 c -0.554,0 -1,0.446 -1,1 l 0,4 3,0 0,3 1,0 c 0.554,0 1,-0.446 1,-1 l 0,-4 -3,0 0,-3 z" stroke-width="0.8" fill="#ffffff" color="#000000" fill-opacity="1" fill-rule="nonzero" stroke="none" visibility="visible" sodipodi:nodetypes="sscccsscccs" inkscape:connector-curvature="0"/>
  <path d="M 2,8 C 1.446,8 1,8.446 1,9 l 0,10 c 0,0.554 0.446,1 1,1 l 12,0 c 0.554,0 1,-0.446 1,-1 L 15,9 C 15,8.446 14.554,8 14,8 L 2,8 z m 3.5,2 5,0 c 0.277,0 0.5,0.223 0.5,0.5 l 0,1.5 -4,0 0,1 0,2 0,1 2,0 0,-1 -1,0 0,-2 3,0 0,4.5 c 0,0.277 -0.223,0.5 -0.5,0.5 l -5,0 C 5.223,18 5,17.777 5,17.5 l 0,-7 C 5,10.223 5.223,10 5.5,10 z" stroke-width="0.8" fill="#666666" color="#000000" fill-opacity="1" fill-rule="nonzero" stroke="none" visibility="visible" inkscape:connector-curvature="0"/>
 </g>
</svg>
