<?xml version="1.0" encoding="UTF-8" standalone="no"?>
<svg
   xmlns:dc="http://purl.org/dc/elements/1.1/"
   xmlns:cc="http://creativecommons.org/ns#"
   xmlns:rdf="http://www.w3.org/1999/02/22-rdf-syntax-ns#"
   xmlns:svg="http://www.w3.org/2000/svg"
   xmlns="http://www.w3.org/2000/svg"
   xmlns:sodipodi="http://sodipodi.sourceforge.net/DTD/sodipodi-0.dtd"
   xmlns:inkscape="http://www.inkscape.org/namespaces/inkscape"
   width="23.75"
   height="23.75"
   viewBox="0 0 19 19"
   version="1.1"
   id="svg4193"
   inkscape:version="0.91 r13725"
   sodipodi:docname="network-wireless-signal-weak.svg">
  <metadata
     id="metadata4208">
    <rdf:RDF>
      <cc:Work
         rdf:about="">
        <dc:format>image/svg+xml</dc:format>
        <dc:type
           rdf:resource="http://purl.org/dc/dcmitype/StillImage" />
        <dc:title></dc:title>
      </cc:Work>
    </rdf:RDF>
  </metadata>
  <defs
     id="defs4206" />
  <sodipodi:namedview
     pagecolor="#ffffff"
     bordercolor="#666666"
     borderopacity="1"
     objecttolerance="10"
     gridtolerance="10"
     guidetolerance="10"
     inkscape:pageopacity="0"
     inkscape:pageshadow="2"
     inkscape:window-width="1366"
     inkscape:window-height="708"
     id="namedview4204"
     showgrid="false"
     inkscape:zoom="19.873684"
     inkscape:cx="12.516519"
     inkscape:cy="11.224909"
     inkscape:window-x="0"
     inkscape:window-y="24"
     inkscape:window-maximized="1"
     inkscape:current-layer="svg4193"
     units="px" />
  <g
     id="g6326"
     transform="matrix(0.77317607,0,0,0.77317607,-19.099208,2.1546727)">
    <path
       style="fill:#cccccc;fill-opacity:0.50196078;fill-rule:nonzero;stroke:none"
       d="M 9.4997386,2.3754 C 5.3553239,2.3754 1.8124544,3.9222316 0.1875,6.1604498 L 1.5234005,7.6447831 C 2.8866432,5.7190561 5.956869,4.3792498 9.4997386,4.3792498 c 3.5428694,0 6.6130954,1.3398063 7.9763384,3.2655333 l 1.3359,-1.4843333 C 17.187023,3.9222316 13.644153,2.3754 9.4997386,2.3754 Z m 0,0"
       id="path4196"
       inkscape:connector-curvature="0" />
    <path
       style="fill:#cccccc;fill-opacity:0.50196078;fill-rule:nonzero;stroke:none"
       d="m 9.4997386,6.3088836 c -2.8007024,0 -5.2498526,1.0663761 -6.7888714,2.6718 l 1.2226216,1.3710544 c 1.320275,-1.2382461 3.3202188,-2.0390047 5.5662498,-2.0390047 2.2460314,0 4.2459744,0.8007586 5.5662494,2.0390047 L 16.28861,8.9806836 c -1.539019,-1.6054239 -3.988169,-2.6718 -6.7888714,-2.6718 z m 0,0"
       id="path4198"
       inkscape:connector-curvature="0" />
    <path
       style="fill:#cccccc;fill-opacity:0.50196078;fill-rule:nonzero;stroke:none"
       d="m 9.4997386,10.093933 c -1.7030772,0 -3.2655333,0.56639 -4.4920619,1.484334 l 1.2655905,1.410116 c 0.925755,-0.554671 2.0390047,-0.8906 3.2264714,-0.8906 1.1874664,0 2.3007164,0.335929 3.2264714,0.8906 l 1.265591,-1.410116 C 12.765272,10.660323 11.202816,10.093933 9.4997386,10.093933 Z m 0,0"
       id="path4200"
       inkscape:connector-curvature="0" />
    <path
       style="fill:#cccccc;fill-opacity:0.90196102;fill-rule:nonzero;stroke:none"
       d="m 9.4997386,13.992262 c -1.246059,-0.0078 -1.7343263,0.382801 -1.8554169,0.480454 0.066405,0.05859 1.8554169,2.152284 1.8554169,2.152284 0,0 1.7733884,-2.074161 1.8554174,-2.152284 -0.09375,-0.09375 -0.62889,-0.476548 -1.8554174,-0.480454 z m 0,0"
       id="path4202"
       inkscape:connector-curvature="0" />
  </g>
  <path
     style="fill:#cccccc;fill-rule:evenodd;stroke:none;stroke-width:0.80000001px;stroke-linecap:butt;stroke-linejoin:miter;stroke-opacity:1"
     d="m 7.1638299,11.836729 2.2556618,2.456697 2.4166783,-2.456697 c -1.35138,-1.012933 -3.0635334,-0.956601 -4.6723401,0 z"
     id="path13333"
     inkscape:connector-curvature="0"
     sodipodi:nodetypes="cccc" />
  <path
     style="fill:#cccccc;fill-opacity:1;fill-rule:nonzero;stroke:none"
     d="M 9.5,4.1 C 4.624013,4.1 2.3,6.8000005 2.3,6.8000005 L 9.5,14.9 16.7,6.8000005 C 16.7,6.8000005 14.435198,4.1 9.5,4.1 Z m 0,0.9000005 c 3.907895,0 5.85,2.025 5.85,2.025 L 9.5,13.55 3.65,7.0250005 c 0,0 1.9894737,-2.025 5.85,-2.025 z m 0,0"
     id="path4168"
     inkscape:connector-curvature="0" />
</svg>
