<?xml version="1.0" encoding="UTF-8" standalone="no"?>
<svg
   xmlns:dc="http://purl.org/dc/elements/1.1/"
   xmlns:cc="http://creativecommons.org/ns#"
   xmlns:rdf="http://www.w3.org/1999/02/22-rdf-syntax-ns#"
   xmlns:svg="http://www.w3.org/2000/svg"
   xmlns="http://www.w3.org/2000/svg"
   xmlns:sodipodi="http://sodipodi.sourceforge.net/DTD/sodipodi-0.dtd"
   xmlns:inkscape="http://www.inkscape.org/namespaces/inkscape"
   width="19pt"
   height="19pt"
   viewBox="0 0 19 19"
   version="1.1"
   id="svg112"
   inkscape:version="0.91 r13725"
   sodipodi:docname="network-vpn.svg">
  <metadata
     id="metadata125">
    <rdf:RDF>
      <cc:Work
         rdf:about="">
        <dc:format>image/svg+xml</dc:format>
        <dc:type
           rdf:resource="http://purl.org/dc/dcmitype/StillImage" />
      </cc:Work>
    </rdf:RDF>
  </metadata>
  <defs
     id="defs123" />
  <sodipodi:namedview
     pagecolor="#ffffff"
     bordercolor="#666666"
     borderopacity="1"
     objecttolerance="10"
     gridtolerance="10"
     guidetolerance="10"
     inkscape:pageopacity="0"
     inkscape:pageshadow="2"
     inkscape:window-width="1366"
     inkscape:window-height="708"
     id="namedview121"
     showgrid="false"
     inkscape:zoom="9.9368421"
     inkscape:cx="11.875"
     inkscape:cy="11.875"
     inkscape:window-x="0"
     inkscape:window-y="24"
     inkscape:window-maximized="1"
     inkscape:current-layer="svg112" />
  <g
     id="surface1"
     transform="matrix(0.75851852,0,0,0.75851852,2.2881481,2.3)"
     style="fill:#cccccc">
    <path
       style="fill:#cccccc;fill-opacity:1;fill-rule:nonzero;stroke:none"
       d="M 6.9375,8.3125 C 6.808594,8.355469 6.695312,8.433594 6.605469,8.535156 L 3.785156,11.355469 C 3.644531,11.492188 3.566406,11.679688 3.5625,11.875 l 0,2.226562 -3.265625,3.265626 c -0.375,0.375 -0.375,0.960937 0,1.335937 0.375,0.375 0.960937,0.375 1.335937,0 l 3.265626,-3.265625 2.226562,0 c 0.195312,-0.0039 0.382812,-0.08203 0.519531,-0.222656 l 2.820313,-2.820313 c 0.28125,-0.289062 0.28125,-0.75 0,-1.039062 L 7.644531,8.535156 C 7.464844,8.34375 7.199219,8.257812 6.9375,8.3125 Z m 0,0"
       id="path115"
       inkscape:connector-curvature="0" />
    <path
       style="fill:#cccccc;fill-opacity:1;fill-rule:nonzero;stroke:none"
       d="m 12.066406,10.65625 c 0.128906,-0.04297 0.242188,-0.121094 0.332032,-0.222656 L 15.21875,7.613281 C 15.359375,7.472656 15.4375,7.289062 15.441406,7.09375 l 0,-2.226562 3.265625,-3.265626 c 0.375,-0.375 0.375,-0.964843 0,-1.335937 -0.375,-0.375 -0.960937,-0.375 -1.335937,0 l -3.265625,3.265625 -2.226563,0 C 11.683594,3.53516 11.496094,3.613281 11.359375,3.753906 L 8.539062,6.574219 c -0.28125,0.289062 -0.28125,0.746093 0,1.039062 l 2.820313,2.820313 c 0.179687,0.191406 0.445313,0.273437 0.707031,0.222656 z m 0,0"
       id="path117"
       inkscape:connector-curvature="0" />
    <path
       style="fill:#cccccc;fill-opacity:1;fill-rule:nonzero;stroke:none"
       d="m 13.804688,10.6875 c -0.410157,0 -0.902344,0.363281 -0.742188,0.742188 l 0,2.820312 -0.445312,0 c -0.410157,0 -0.742188,0.332031 -0.742188,0.742188 l 0,3.265624 C 11.875,18.667969 12.207031,19 12.617188,19 l 5.640624,0 C 18.667969,19 19,18.667969 19,18.257812 l 0,-3.265624 C 19,14.582031 18.667969,14.25 18.257812,14.25 l -0.445312,0 0,-2.820312 c 0,-0.410157 -0.332031,-0.742188 -0.742188,-0.742188 z M 14.25,11.875 l 2.375,0 0,2.375 -2.375,0 z m 0,0"
       id="path119"
       inkscape:connector-curvature="0" />
  </g>
</svg>
