<svg height="96" width="96" xmlns="http://www.w3.org/2000/svg" xmlns:xlink="http://www.w3.org/1999/xlink" xmlns:sodipodi="http://sodipodi.sourceforge.net/DTD/sodipodi-0.dtd" xmlns:inkscape="http://www.inkscape.org/namespaces/inkscape">
 <defs>
  <radialGradient cy="90.17" r="42" gradientUnits="userSpaceOnUse" id="radialGradient3619" cx="48" gradientTransform="matrix(1.15731 0 0 0.99591 -7.551 0.197)">
   <stop stop-color="#ffffff" stop-opacity="1"/>
   <stop stop-color="#ffffff" stop-opacity="0" offset="1"/>
  </radialGradient>
  <linearGradient x2="0" y1="92.54" y2="7.02" gradientUnits="userSpaceOnUse" id="ButtonShadow-0" gradientTransform="matrix(1.0059 0 0 0.99417 100 0)">
   <stop stop-color="#000000" stop-opacity="1"/>
   <stop stop-color="#000000" stop-opacity="0.588" offset="1"/>
  </linearGradient>
  <linearGradient x2="0" xlink:href="#ButtonShadow-0" y1="6.132" y2="90.24" gradientUnits="userSpaceOnUse" id="linearGradient3780" gradientTransform="matrix(1.02381 0 0 -1.0119 -1.143 98.07)"/>
  <linearGradient x2="0" xlink:href="#ButtonShadow-0" y1="6.132" y2="90.24" gradientUnits="userSpaceOnUse" id="linearGradient3721" gradientTransform="matrix(1 0 0 -1 0 97)"/>
  <linearGradient x2="0" y1="79.81" y2="10.985" gradientUnits="userSpaceOnUse" id="linearGradient3832" gradientTransform="matrix(0.9009 0 0 0.9009 3.419 6.095)">
   <stop stop-color="#aaaaaa" stop-opacity="1"/>
   <stop stop-color="#f0f0f0" stop-opacity="1" offset="1"/>
  </linearGradient>
  <rect x="6" rx="6" y="6" fill="#000000" fill-opacity="1" stroke="none" fill-rule="nonzero" height="84" id="SVGCleanerId_0" opacity="0.6" width="84"/>
 </defs>
 <g display="inline">
  <path d="M 12,3.96875 C 6.4889098,3.96875 1.96875,8.4889098 1.96875,14 l 0,71 c 0,5.51109 4.5201597,10.03125 10.03125,10.03125 l 72,0 c 5.51109,0 10.03125,-4.52016 10.03125,-10.03125 l 0,-71 C 94.03125,8.4889097 89.51109,3.96875 84,3.96875 l -72,0 z M 12,6 84,6 c 3.324,0 6,2.676 6,6 l 0,72 c 0,3.324 -2.676,6 -6,6 L 12,90 C 8.676,90 6,87.324 6,84 L 6,12 C 6,8.676 8.676,6 12,6 z" fill="url(#linearGradient3780)" fill-opacity="1" fill-rule="nonzero" stroke="none" opacity="0.08" inkscape:connector-curvature="0"/>
  <path d="M 12,4.96875 C 7.0283671,4.96875 2.96875,9.0283671 2.96875,14 l 0,71 c 0,4.971633 4.059617,9.03125 9.03125,9.03125 l 72,0 c 4.971633,0 9.03125,-4.059617 9.03125,-9.03125 l 0,-71 C 93.03125,9.028367 88.971633,4.96875 84,4.96875 l -72,0 z M 12,6 84,6 c 3.324,0 6,2.676 6,6 l 0,72 c 0,3.324 -2.676,6 -6,6 L 12,90 C 8.676,90 6,87.324 6,84 L 6,12 C 6,8.676 8.676,6 12,6 z" fill="url(#linearGradient3780)" fill-opacity="1" fill-rule="nonzero" stroke="none" opacity="0.1" inkscape:connector-curvature="0"/>
  <path d="M 11.1875,6.03125 C 7.159982,6.4419011 4,9.8664375 4,14 l 0,71 c 0,4.409133 3.590867,8 8,8 l 72,0 c 4.409133,0 8,-3.590867 8,-8 L 92,14 C 92,9.8029382 88.741028,6.3539584 84.625,6.03125 87.657886,6.337417 90,8.88375 90,12 l 0,72 c 0,3.324 -2.676,6 -6,6 L 12,90 C 8.676,90 6,87.324 6,84 L 6,12 c 0,-3.11625 2.342114,-5.662583 5.375,-5.96875 -0.06227,0.00488 -0.12563,-0.00631 -0.1875,0 z" fill="url(#linearGradient3780)" fill-opacity="1" fill-rule="nonzero" stroke="none" opacity="0.2" inkscape:connector-curvature="0"/>
  <path d="M 6.4375,9.75 C 5.5380109,10.927446 5,12.397277 5,14 l 0,71 c 0,3.878 3.122,7 7,7 l 72,0 c 3.878,0 7,-3.122 7,-7 L 91,14 C 91,12.397277 90.461989,10.927446 89.5625,9.75 89.841816,10.444095 90,11.203625 90,12 l 0,72 c 0,3.324 -2.676,6 -6,6 L 12,90 C 8.676,90 6,87.324 6,84 L 6,12 C 6,11.203625 6.1581836,10.444095 6.4375,9.75 z" fill="url(#linearGradient3780)" fill-opacity="1" fill-rule="nonzero" stroke="none" opacity="0.3" inkscape:connector-curvature="0"/>
  <path d="m 6,84 0,1 c 0,3.324 2.676,6 6,6 l 72,0 c 3.324,0 6,-2.676 6,-6 l 0,-1 c 0,3.324 -2.676,6 -6,6 L 12,90 C 8.676,90 6,87.324 6,84 z" fill="url(#linearGradient3721)" fill-opacity="1" fill-rule="nonzero" stroke="none" opacity="0.45" inkscape:connector-curvature="0"/>
 </g>
 <g display="inline">
  <use xlink:href="#SVGCleanerId_0"/>
  <path d="M 12,90 C 8.676,90 6,87.324 6,84 L 6,82 6,14 6,12 c 0,-0.334721 0.04135,-0.6507 0.09375,-0.96875 0.0487,-0.295596 0.09704,-0.596915 0.1875,-0.875 C 6.29113,10.12587 6.302142,10.09265 6.3125,10.0625 6.411365,9.774729 6.5473802,9.515048 6.6875,9.25 6.8320918,8.976493 7.0031161,8.714385 7.1875,8.46875 7.3718839,8.223115 7.5612765,7.995278 7.78125,7.78125 8.221197,7.353194 8.72416,6.966724 9.28125,6.6875 9.559795,6.547888 9.8547231,6.440553 10.15625,6.34375 9.9000482,6.443972 9.6695391,6.580022 9.4375,6.71875 c -0.00741,0.0044 -0.023866,-0.0045 -0.03125,0 -0.031933,0.0193 -0.062293,0.04251 -0.09375,0.0625 -0.120395,0.0767 -0.2310226,0.163513 -0.34375,0.25 -0.1061728,0.0808 -0.2132809,0.161112 -0.3125,0.25 C 8.4783201,7.442683 8.3087904,7.626638 8.15625,7.8125 8.0486711,7.942755 7.9378561,8.077785 7.84375,8.21875 7.818661,8.25713 7.805304,8.30462 7.78125,8.34375 7.716487,8.446782 7.6510225,8.548267 7.59375,8.65625 7.4927417,8.850956 7.3880752,9.071951 7.3125,9.28125 7.30454,9.30306 7.288911,9.3218 7.28125,9.34375 7.2494249,9.4357 7.2454455,9.530581 7.21875,9.625 7.1884177,9.731618 7.1483606,9.828031 7.125,9.9375 7.0521214,10.279012 7,10.635705 7,11 l 0,2 0,68 0,2 c 0,2.781848 2.2181517,5 5,5 l 2,0 68,0 2,0 c 2.781848,0 5,-2.218152 5,-5 l 0,-2 0,-68 0,-2 C 89,10.635705 88.94788,10.279012 88.875,9.9375 88.83085,9.730607 88.78662,9.539842 88.71875,9.34375 88.71105,9.3218 88.69545,9.30306 88.6875,9.28125 88.62476,9.107511 88.549117,8.913801 88.46875,8.75 88.42717,8.6672 88.38971,8.580046 88.34375,8.5 88.28915,8.40279 88.216976,8.31165 88.15625,8.21875 88.06214,8.077785 87.951329,7.942755 87.84375,7.8125 87.700576,7.63805 87.540609,7.465502 87.375,7.3125 87.36383,7.3023 87.35502,7.29135 87.34375,7.28125 87.205364,7.155694 87.058659,7.046814 86.90625,6.9375 86.803679,6.86435 86.701932,6.784136 86.59375,6.71875 c -0.0074,-0.0045 -0.02384,0.0044 -0.03125,0 -0.232039,-0.138728 -0.462548,-0.274778 -0.71875,-0.375 0.301527,0.0968 0.596455,0.204138 0.875,0.34375 0.55709,0.279224 1.060053,0.665694 1.5,1.09375 0.219973,0.214028 0.409366,0.441865 0.59375,0.6875 0.184384,0.245635 0.355408,0.507743 0.5,0.78125 0.14012,0.265048 0.276135,0.524729 0.375,0.8125 0.01041,0.03078 0.02133,0.06274 0.03125,0.09375 0.09046,0.278085 0.1388,0.579404 0.1875,0.875 C 89.95865,11.3493 90,11.665279 90,12 l 0,2 0,68 0,2 c 0,3.324 -2.676,6 -6,6 l -72,0 z" fill="url(#radialGradient3619)" fill-opacity="1" fill-rule="nonzero" stroke="none" opacity="0.15" inkscape:connector-curvature="0"/>
 </g>
 <path d="m 72.75,15.96875 c -1.012029,0 -1.998275,0.421391 -2.84375,1.09375 -0.06006,0.04776 -0.129385,0.07382 -0.1875,0.125 -0.127578,0.0728 -0.225117,0.141872 -0.25,0.15625 -0.0023,0.0013 -0.03121,-3.9e-5 -0.03125,0 L 58.125,28.6875 l -4.375,0 c -1.205044,-0.0098 -2.401437,0.465346 -3.3125,1.375 l -8.09375,8.0625 a 1.0236899,1.0236899 0 0 0 0,0.03125 1.0236899,1.0236899 0 0 0 -0.21875,0.3125 1.0236899,1.0236899 0 0 0 -0.03125,0.09375 c -1.379208,1.697031 -1.391854,4.073821 -0.03125,5.78125 0.110755,0.138987 0.152341,0.309417 0.28125,0.4375 0.0013,0.0023 -4e-5,0.03121 0,0.03125 l 9.90625,9.875 c 0.837726,0.837034 1.937025,1.301618 3.09375,1.34375 0.02083,7.59e-4 0.04164,-4.74e-4 0.0625,0 5.8e-5,7e-6 0.08447,0.03077 0.09375,0.03125 0.0209,1.8e-5 0.04158,2.69e-4 0.0625,0 a 1.0236899,1.0236899 0 0 0 0.09375,0 c 0.04322,-7.98e-4 0.0818,-0.02924 0.125,-0.03125 A 1.0236899,1.0236899 0 0 0 55.875,56 c 1.082757,-0.0735 2.142807,-0.487828 2.96875,-1.3125 l 8.125,-8.125 c 0.872497,-0.87385 1.384887,-2.043412 1.375,-3.28125 l 0,-4.40625 11.3125,-11.28125 a 1.0236899,1.0236899 0 0 0 0,-0.03125 1.0236899,1.0236899 0 0 0 0.21875,-0.3125 1.0236899,1.0236899 0 0 0 0.03125,-0.09375 c 1.491477,-1.835171 1.462537,-4.517192 -0.25,-6.21875 l -3.5625,-3.59375 -0.03125,0 c -0.09603,-0.0965 -0.210863,-0.133145 -0.3125,-0.21875 -0.04688,-0.02688 -0.124712,-0.06243 -0.125,-0.0625 -0.874965,-0.690821 -1.890029,-1.09375 -2.875,-1.09375 z" fill="#000000" fill-opacity="1" stroke="none" opacity="0.05"/>
 <path d="m 72.75,17 c -0.913619,0 -1.857634,0.353853 -2.5625,1.0625 -0.0063,0.0063 -0.02498,-0.0064 -0.03125,0 l -11.625,11.65625 -4.78125,0 c -0.941291,-0.0076 -1.878786,0.348642 -2.59375,1.0625 l -8.09375,8.0625 0,0.03125 c -1.432848,1.423662 -1.432848,3.763838 0,5.1875 0.0064,0.0064 -0.0065,0.02491 0,0.03125 l 9.90625,9.875 c 0.70104,0.700461 1.630388,1.074891 2.59375,1.0625 -0.01189,9.8e-5 0.02369,7.16e-4 0.0625,0 0.908047,-0.01677 1.805261,-0.36883 2.5,-1.0625 l 8.125,-8.125 c 0.686249,-0.687313 1.070165,-1.602824 1.0625,-2.5625 l 0,-4.8125 11.625,-11.59375 0,-0.03125 c 1.432848,-1.423662 1.432848,-3.763838 0,-5.1875 L 75.375,18.0625 c -0.0064,-0.0066 -0.02476,0.0065 -0.03125,0 C 74.612049,17.32723 73.6441,17 72.75,17 z" fill="#000000" fill-opacity="1" stroke="none" opacity="0.1"/>
 <path d="m 72.75,17.90625 c -0.710373,0 -1.417375,0.250005 -1.9375,0.78125 L 58.875,30.625 l -5.125,0 c -0.728573,-0.0059 -1.433067,0.246396 -1.96875,0.78125 L 43.6875,39.5 c -1.111079,1.087823 -1.111079,2.849677 0,3.9375 l 9.90625,9.90625 c 0.518965,0.518537 1.236014,0.790675 1.96875,0.78125 0.0099,-8.2e-5 0.02138,1.82e-4 0.03125,0 0.701873,-0.01296 1.390889,-0.266682 1.90625,-0.78125 l 8.125,-8.125 c 0.511925,-0.512719 0.787065,-1.209418 0.78125,-1.9375 l 0,-5.15625 11.90625,-11.90625 c 1.111079,-1.087823 1.111079,-2.849677 0,-3.9375 L 74.71875,18.6875 C 74.175733,18.132873 73.460373,17.90625 72.75,17.90625 z" fill="#000000" fill-opacity="1" stroke="none" opacity="0.15" inkscape:connector-curvature="0"/>
 <path d="m 72.75,18.90625 c -0.458475,0 -0.896962,0.171332 -1.21875,0.5 L 59.3125,31.625 l -5.5625,0 c -0.45801,-0.0037 -0.925877,0.176379 -1.25,0.5 l -8.09375,8.09375 c -0.657336,0.643577 -0.657336,1.856423 0,2.5 L 54.3125,52.625 c 0.330688,0.330415 0.782663,0.511205 1.25,0.5 0.448625,-0.0037 0.901269,-0.183008 1.21875,-0.5 l 8.125,-8.125 c 0.323621,-0.324123 0.503658,-0.76074 0.5,-1.21875 l 0,-5.59375 L 77.59375,25.5 c 0.657336,-0.643577 0.657336,-1.856423 0,-2.5 L 74,19.40625 c -0.321788,-0.328668 -0.791525,-0.5 -1.25,-0.5 z" fill="#000000" fill-opacity="1" stroke="none" opacity="0.3" inkscape:connector-curvature="0"/>
 <path d="m -74,16.9375 c -3.316401,0 -6.0625,2.746099 -6.0625,6.0625 l 0,50 c 0,3.316401 2.746099,6.0625 6.0625,6.0625 l 50,0 c 3.316401,0 6.0625,-2.746099 6.0625,-6.0625 l 0,-50 c 0,-3.316401 -2.746099,-6.0625 -6.0625,-6.0625 l -50,0 z" stroke-width="1" display="inline" fill="#000000" color="#000000" fill-opacity="1" fill-rule="nonzero" stroke="none" opacity="0.08" visibility="visible" transform="matrix(0 -1 1 0 -90 0)"/>
 <path d="m -74,17.9375 c -2.773313,0 -5.0625,2.289187 -5.0625,5.0625 l 0,50 c 0,2.773313 2.289187,5.0625 5.0625,5.0625 l 50,0 c 2.773313,0 5.0625,-2.289187 5.0625,-5.0625 l 0,-50 c 0,-2.773313 -2.289187,-5.0625 -5.0625,-5.0625 l -50,0 z" stroke-width="1" display="inline" fill="#000000" color="#000000" fill-opacity="1" fill-rule="nonzero" stroke="none" opacity="0.1" visibility="visible" transform="matrix(0 -1 1 0 -90 0)"/>
 <path d="m -74,19 c -2.191679,0 -4,1.808321 -4,4 l 0,50 c 0,2.191679 1.808321,4 4,4 l 50,0 c 2.191679,0 4,-1.808321 4,-4 l 0,-50 c 0,-2.191679 -1.808321,-4 -4,-4 l -50,0 z" stroke-width="1" display="inline" fill="#000000" color="#000000" fill-opacity="1" fill-rule="nonzero" stroke="none" opacity="0.15" visibility="visible" transform="matrix(0 -1 1 0 -90 0)"/>
 <path d="m -49.794671,45.02716 c -0.970839,0.137402 -1.8902,0.61226 -2.562356,1.323458 l -6.073728,6.050096 c -0.81477,0.784822 -1.302958,1.896342 -1.328631,3.025049 l 0,6.050097 c -3.43e-4,0.0315 -3.43e-4,0.06303 0,0.09453 l -11.360928,11.204887 c -1.189652,1.185024 -1.189652,3.163485 0,4.348509 1.189655,1.185021 3.175842,1.185021 4.365494,0 l 11.360927,-11.299424 6.073731,0 c 1.133116,-0.0255 2.24898,-0.51186 3.036866,-1.323457 l 6.073731,-6.050097 c 1.559152,-1.601306 1.559152,-4.448791 0,-6.050097 l -6.073731,-6.050093 c -0.895174,-0.930345 -2.222147,-1.43049 -3.511375,-1.323458 z" display="inline" fill="#ffffff" fill-opacity="1" stroke="none" opacity="0.3" inkscape:connector-curvature="0"/>
 <path d="m -34.230434,50.997945 c 0.970836,-0.137402 1.890199,-0.61226 2.562353,-1.323457 l 6.073731,-6.050097 c 0.814769,-0.784822 1.302958,-1.896342 1.328628,-3.025049 l 0,-6.050096 c 3.45e-4,-0.0315 3.45e-4,-0.06303 0,-0.09453 l 11.36093,-11.204888 c 1.189652,-1.185024 1.189652,-3.163485 0,-4.348509 -1.189655,-1.185023 -3.175841,-1.185023 -4.365493,0 l -11.360931,11.299424 -6.073728,0 c -1.133119,0.0255 -2.248979,0.51186 -3.036865,1.323457 l -6.073731,6.050097 c -1.559153,1.601306 -1.559153,4.448791 0,6.050097 l 6.073731,6.050094 c 0.895174,0.930344 2.222147,1.430486 3.511375,1.323457 z" display="inline" fill="#ffffff" fill-opacity="1" stroke="none" opacity="0.3" inkscape:connector-curvature="0"/>
 <path d="m 72.75,17.90625 c -0.458475,0 -0.896962,0.171332 -1.21875,0.5 L 59.3125,30.625 l -5.5625,0 c -0.45801,-0.0037 -0.925877,0.176379 -1.25,0.5 l -8.09375,8.09375 c -0.657336,0.643577 -0.657336,1.856423 0,2.5 L 54.3125,51.625 c 0.330688,0.330415 0.782663,0.511205 1.25,0.5 0.448625,-0.0037 0.901269,-0.183008 1.21875,-0.5 l 8.125,-8.125 c 0.323621,-0.324123 0.503658,-0.76074 0.5,-1.21875 l 0,-5.59375 L 77.59375,24.5 c 0.657336,-0.643577 0.657336,-1.856423 0,-2.5 L 74,18.40625 c -0.321788,-0.328668 -0.791525,-0.5 -1.25,-0.5 z" fill="url(#linearGradient3832)" fill-opacity="1" stroke="none" inkscape:connector-curvature="0"/>
 <path d="m 40.4375,43.875 c -0.448625,0.0037 -0.901269,0.214258 -1.21875,0.53125 L 31.09375,52.5 c -0.323621,0.324123 -0.503658,0.79199 -0.5,1.25 l 0,5.5625 -12.1875,12.21875 c -0.657336,0.643577 -0.657336,1.825173 0,2.46875 L 22,77.59375 c 0.643577,0.657336 1.825173,0.657336 2.46875,0 l 12.21875,-12.1875 5.5625,0 c 0.45801,0.0037 0.925877,-0.176379 1.25,-0.5 l 8.09375,-8.125 c 0.657336,-0.643577 0.657336,-1.825173 0,-2.46875 L 41.6875,44.40625 c -0.330688,-0.330415 -0.782663,-0.542455 -1.25,-0.53125 z" fill="#ffffff" fill-opacity="1" stroke="none" opacity="0.2" inkscape:connector-curvature="0"/>
 <path d="m 72.75,17.90625 c -0.458475,0 -0.896962,0.171332 -1.21875,0.5 L 59.3125,30.625 l -5.5625,0 c -0.45801,-0.0037 -0.925877,0.176379 -1.25,0.5 l -8.09375,8.09375 c -0.447494,0.438127 -0.599286,1.14343 -0.4375,1.75 0.07587,-0.284437 0.227658,-0.54455 0.4375,-0.75 L 52.5,32.125 c 0.324123,-0.323621 0.79199,-0.5037 1.25,-0.5 l 5.5625,0 12.21875,-12.21875 c 0.321788,-0.328668 0.760275,-0.5 1.21875,-0.5 0.458475,0 0.928212,0.171332 1.25,0.5 L 77.59375,23 c 0.209842,0.20545 0.361634,0.465563 0.4375,0.75 0.161786,-0.60657 0.01,-1.311873 -0.4375,-1.75 L 74,18.40625 c -0.321788,-0.328668 -0.791525,-0.5 -1.25,-0.5 z" fill="#ffffff" fill-opacity="1" stroke="none" opacity="0.75" inkscape:connector-curvature="0"/>
 <path d="m 78.03125,22.75 c -0.07587,0.284437 -0.227658,0.54455 -0.4375,0.75 l -12.1875,12.1875 0,1 L 77.59375,24.5 c 0.447494,-0.438127 0.599286,-1.14343 0.4375,-1.75 z m -34.0625,17.21875 c -0.161786,0.60657 -0.01,1.311873 0.4375,1.75 L 54.3125,51.625 c 0.330688,0.330415 0.782663,0.511205 1.25,0.5 0.448625,-0.0037 0.901269,-0.183008 1.21875,-0.5 l 8.125,-8.125 c 0.323621,-0.324123 0.503658,-0.76074 0.5,-1.21875 l 0,-1 c 0.0037,0.45801 -0.176379,0.894627 -0.5,1.21875 l -8.125,8.125 c -0.317481,0.316992 -0.770125,0.4963 -1.21875,0.5 -0.467337,0.0112 -0.919312,-0.169585 -1.25,-0.5 l -9.90625,-9.90625 c -0.209842,-0.20545 -0.361634,-0.465563 -0.4375,-0.75 z" fill="#000000" fill-opacity="1" stroke="none" opacity="0.14" inkscape:connector-curvature="0"/>
</svg>
