<svg display="inline" height="16" width="16" xmlns="http://www.w3.org/2000/svg" xmlns:sodipodi="http://sodipodi.sourceforge.net/DTD/sodipodi-0.dtd" xmlns:inkscape="http://www.inkscape.org/namespaces/inkscape">
 <path d="M 3.5,6 C 3.5,6 3,6.223 3,6.5 L 3,21 c 0,0.554 0.446,1 1,1 l 8,0 c 0.554,0 1,-0.446 1,-1 L 13,9 C 13,8.446 12.554,8 12,8 L 5,8 5,6.5 C 5,6.223 4.5,6 4.5,6 z m 1,4 7,0 c 0.277,0 0.5,0.223 0.5,0.5 l 0,3 c 0,0.277 -0.223,0.5 -0.5,0.5 l -7,0 C 4.223,14 4,13.777 4,13.5 l 0,-3 C 4,10.223 4.223,10 4.5,10 z m -0.5,5 2,0 0,1 -2,0 z m 3,0 2,0 0,1 -2,0 z m 3,0 2,0 0,1 -2,0 z m -6,2 2,0 0,1 -2,0 z m 3,0 2,0 0,1 -2,0 z m 3,0 2,0 0,1 -2,0 z m -6,2 2,0 0,1 -2,0 z m 3,0 2,0 0,1 -2,0 z m 3,0 2,0 0,1 -2,0 z" stroke-width="0.8" fill="#666666" color="#000000" fill-opacity="1" fill-rule="nonzero" stroke="none" visibility="visible" sodipodi:nodetypes="sccssssscssssssssssssccccccccccccccccccccccccccccccccccccccccccccc" inkscape:label="Icon" inkscape:groupmode="layer" inkscape:connector-curvature="0" transform="matrix(1 0 0 1 0 -6)"/>
</svg>
