<?xml version="1.0" encoding="UTF-8" standalone="no"?>
<!-- Created with Inkscape (http://www.inkscape.org/) -->

<svg
   xmlns:dc="http://purl.org/dc/elements/1.1/"
   xmlns:cc="http://creativecommons.org/ns#"
   xmlns:rdf="http://www.w3.org/1999/02/22-rdf-syntax-ns#"
   xmlns:svg="http://www.w3.org/2000/svg"
   xmlns="http://www.w3.org/2000/svg"
   xmlns:sodipodi="http://sodipodi.sourceforge.net/DTD/sodipodi-0.dtd"
   xmlns:inkscape="http://www.inkscape.org/namespaces/inkscape"
   width="16"
   height="16"
   id="svg2"
   sodipodi:version="0.32"
   inkscape:version="0.48.5 r10040"
   version="1.0"
   sodipodi:docname="network-vpn-acquiring-symbolic.svg"
   inkscape:output_extension="org.inkscape.output.svg.inkscape">
  <defs
     id="defs4" />
  <sodipodi:namedview
     id="base"
     pagecolor="#ffffff"
     bordercolor="#e7e7e7"
     borderopacity="1"
     inkscape:pageopacity="0.0"
     inkscape:pageshadow="2"
     inkscape:zoom="13.297528"
     inkscape:cx="-32.560872"
     inkscape:cy="13.618842"
     inkscape:document-units="px"
     inkscape:current-layer="layer1"
     showgrid="true"
     inkscape:showpageshadow="false"
     showguides="true"
     inkscape:guide-bbox="true"
     inkscape:window-width="1920"
     inkscape:window-height="1028"
     inkscape:window-x="0"
     inkscape:window-y="25"
     inkscape:window-maximized="1"
     inkscape:snap-global="true">
    <sodipodi:guide
       orientation="1,0"
       position="0,112"
       id="guide2383" />
    <sodipodi:guide
       orientation="0,1"
       position="78.156291,0"
       id="guide2389" />
    <inkscape:grid
       type="xygrid"
       id="grid3672"
       visible="true"
       enabled="true" />
    <sodipodi:guide
       orientation="1,0"
       position="22.008699,4.1542523"
       id="guide2950" />
    <sodipodi:guide
       orientation="0,1"
       position="11.22532,22.008699"
       id="guide2952" />
  </sodipodi:namedview>
  <metadata
     id="metadata7">
    <rdf:RDF>
      <cc:Work
         rdf:about="">
        <dc:format>image/svg+xml</dc:format>
        <dc:type
           rdf:resource="http://purl.org/dc/dcmitype/StillImage" />
        <dc:title />
      </cc:Work>
    </rdf:RDF>
  </metadata>
  <g
     inkscape:label="Calque 1"
     inkscape:groupmode="layer"
     id="layer1">
    <path
       style="opacity:0.45;fill:#bebebe;fill-opacity:1;stroke:none;display:inline"
       d="M 15.1875 0 C 14.984855 0 14.782209 0.0615405 14.625 0.21875 L 11.875 2.96875 L 10 2.96875 A 0.63312664 0.63136584 0 0 0 9.5625 3.15625 L 7.1875 5.53125 A 0.63312664 0.63136584 0 0 0 7.1875 6.40625 L 9.5625 8.78125 A 0.63312664 0.63136584 0 0 0 10.15625 8.96875 A 0.63312664 0.63136584 0 0 0 10.4375 8.78125 L 12.8125 6.40625 A 0.63312664 0.63136584 0 0 0 13 5.96875 L 13 4.09375 L 15.75 1.34375 C 16.064418 1.029333 16.064418 0.533168 15.75 0.21875 C 15.592791 0.0615405 15.390145 0 15.1875 0 z M 5.84375 7 A 0.63312664 0.63136584 0 0 0 5.5625 7.1875 L 3.1875 9.5625 A 0.63312664 0.63136584 0 0 0 3 10 L 3 11.875 L 0.25 14.625 C -0.06441823 14.939417 -0.06441823 15.435582 0.25 15.75 C 0.56441825 16.064419 1.0605817 16.064419 1.375 15.75 L 4.125 13 L 6 13 A 0.63312664 0.63136584 0 0 0 6.4375 12.8125 L 8.8125 10.4375 A 0.63312664 0.63136584 0 0 0 8.8125 9.5625 L 6.4375 7.1875 A 0.63312664 0.63136584 0 0 0 5.84375 7 z "
       id="path3708" />
    <path
       inkscape:connector-curvature="0"
       style="color:#000000;fill:#bebebe;fill-opacity:1;fill-rule:nonzero;stroke:none;stroke-width:1;marker:none;visibility:visible;display:inline;overflow:visible;enable-background:accumulate"
       d="M 11.625,9 C 11.27875,9 11,9.27875 11,9.625 L 11,12 10.625,12 C 10.27875,12 10,12.27875 10,12.625 l 0,2.75 C 10,15.72125 10.27875,16 10.625,16 l 4.75,0 C 15.72125,16 16,15.72125 16,15.375 l 0,-2.75 C 16,12.27875 15.72125,12 15.375,12 L 15,12 15,9.625 C 15,9.27875 14.72125,9 14.375,9 z m 0.375,1 2,0 0,2 -2,0 z"
       id="rect3648"
       sodipodi:nodetypes="sscsssssssscsssccccc" />
    <path
       sodipodi:type="arc"
       style="color:#000000;fill:#bebebe;fill-opacity:1;fill-rule:nonzero;stroke:none;stroke-width:1.5;marker:none;visibility:visible;display:inline;overflow:visible;enable-background:accumulate"
       id="path3876"
       sodipodi:cx="9"
       sodipodi:cy="15"
       sodipodi:rx="1"
       sodipodi:ry="1"
       d="m 10,15 a 1,1 0 1 1 -2,0 1,1 0 1 1 2,0 z"
       transform="translate(-1,0)" />
    <path
       d="m 10,15 a 1,1 0 1 1 -2,0 1,1 0 1 1 2,0 z"
       sodipodi:ry="1"
       sodipodi:rx="1"
       sodipodi:cy="15"
       sodipodi:cx="9"
       id="path3878"
       style="color:#000000;fill:#bebebe;fill-opacity:1;fill-rule:nonzero;stroke:none;stroke-width:1.5;marker:none;visibility:visible;display:inline;overflow:visible;enable-background:accumulate"
       sodipodi:type="arc"
       transform="translate(-4,0)" />
  </g>
</svg>
