<svg display="inline" height="16" width="16" xmlns="http://www.w3.org/2000/svg" xmlns:sodipodi="http://sodipodi.sourceforge.net/DTD/sodipodi-0.dtd" xmlns:inkscape="http://www.inkscape.org/namespaces/inkscape">
 <g inkscape:label="Icon" inkscape:groupmode="layer" transform="matrix(1 0 0 1 0 -6)">
  <path d="M 1 2 C 0.446 2 0 2.446 0 3 L 0 13 C 0 13.554 0.446 14 1 14 L 15 14 C 15.554 14 16 13.554 16 13 L 16 3 C 16 2.446 15.554 2 15 2 L 1 2 z M 3 4 L 4 4 L 4 7 L 7 7 L 7 11 C 7 11.554 6.554 12 6 12 L 5 12 L 5 9 L 2 9 L 2 5 C 2 4.446 2.446 4 3 4 z M 8.5 4 L 13.5 4 C 13.777 4 14 4.223 14 4.5 L 14 6 L 10 6 L 10 7 L 10 9 L 10 10 L 12 10 L 12 9 L 11 9 L 11 7 L 14 7 L 14 11.5 C 14 11.777 13.777 12 13.5 12 L 8.5 12 C 8.223 12 8 11.777 8 11.5 L 8 4.5 C 8 4.223 8.223 4 8.5 4 z " stroke-width="0.8" fill="#bebebe" color="#000000" fill-opacity="1" fill-rule="nonzero" stroke="none" visibility="visible" transform="matrix(1 0 0 1 0 6)"/>
  <path d="m -11.5,10 c -0.277,0 -0.5,0.223 -0.5,0.5 l 0,7 c 0,0.277 0.223,0.5 0.5,0.5 l 5,0 c 0.277,0 0.5,-0.223 0.5,-0.5 l 0,-4.5 -3,0 0,2 1,0 0,1 -2,0 0,-1 0,-2 0,-1 4,0 0,-1.5 C -6,10.223 -6.223,10 -6.5,10 l -5,0 z" stroke-width="0.8" fill="#ffffff" color="#000000" fill-opacity="1" fill-rule="nonzero" stroke="none" visibility="visible" inkscape:connector-curvature="0"/>
  <path d="m -17,10 c -0.554,0 -1,0.446 -1,1 l 0,4 3,0 0,3 1,0 c 0.554,0 1,-0.446 1,-1 l 0,-4 -3,0 0,-3 z" stroke-width="0.8" fill="#ffffff" color="#000000" fill-opacity="1" fill-rule="nonzero" stroke="none" visibility="visible" sodipodi:nodetypes="sscccsscccs" inkscape:connector-curvature="0"/>
 </g>
</svg>
