<?xml version="1.0" encoding="UTF-8" standalone="no"?>
<svg
   xmlns:dc="http://purl.org/dc/elements/1.1/"
   xmlns:cc="http://creativecommons.org/ns#"
   xmlns:rdf="http://www.w3.org/1999/02/22-rdf-syntax-ns#"
   xmlns:svg="http://www.w3.org/2000/svg"
   xmlns="http://www.w3.org/2000/svg"
   xmlns:sodipodi="http://sodipodi.sourceforge.net/DTD/sodipodi-0.dtd"
   xmlns:inkscape="http://www.inkscape.org/namespaces/inkscape"
   width="19pt"
   height="19pt"
   viewBox="0 0 19 19"
   version="1.1"
   id="svg61"
   inkscape:version="0.91 r13725"
   sodipodi:docname="network-wired.svg">
  <metadata
     id="metadata70">
    <rdf:RDF>
      <cc:Work
         rdf:about="">
        <dc:format>image/svg+xml</dc:format>
        <dc:type
           rdf:resource="http://purl.org/dc/dcmitype/StillImage" />
      </cc:Work>
    </rdf:RDF>
  </metadata>
  <defs
     id="defs68" />
  <sodipodi:namedview
     pagecolor="#ffffff"
     bordercolor="#666666"
     borderopacity="1"
     objecttolerance="10"
     gridtolerance="10"
     guidetolerance="10"
     inkscape:pageopacity="0"
     inkscape:pageshadow="2"
     inkscape:window-width="1366"
     inkscape:window-height="708"
     id="namedview66"
     showgrid="false"
     inkscape:zoom="9.9368421"
     inkscape:cx="-19.523305"
     inkscape:cy="11.875"
     inkscape:window-x="0"
     inkscape:window-y="24"
     inkscape:window-maximized="1"
     inkscape:current-layer="svg61" />
  <g
     id="surface1"
     transform="matrix(0.73173457,0,0,0.73173457,2.5485216,2.5485216)"
     style="fill:#cccccc">
    <path
       style="fill:#cccccc;fill-opacity:1;fill-rule:nonzero;stroke:none"
       d="m 2.589844,2.589844 0,9.5 4.320312,0 0.863282,0.863281 2.589843,0 0.863281,-0.863281 0,-0.863282 -7.773437,0 0,-7.773437 12.09375,0 0,6.910156 0.863281,0 0,-7.773437 z m 9.5,9.5 0,1.726562 -9.5,0 0,0.867188 9.5,0 0,1.726562 3.457031,0 0,-0.863281 -2.59375,0 0,-2.59375 2.59375,0 0,-0.863281 z m 1.726562,1.726562 0,0.867188 2.59375,0 0,-0.867188 z m -6.042968,1.730469 c -0.480469,0 -0.863282,0.382813 -0.863282,0.863281 l 4.316406,0 c 0,-0.480468 -0.382812,-0.863281 -0.863281,-0.863281 z m 0,0"
       id="path64"
       inkscape:connector-curvature="0" />
  </g>
</svg>
