<?xml version="1.0" encoding="UTF-8" standalone="no"?>
<svg
   xmlns:dc="http://purl.org/dc/elements/1.1/"
   xmlns:cc="http://creativecommons.org/ns#"
   xmlns:rdf="http://www.w3.org/1999/02/22-rdf-syntax-ns#"
   xmlns:svg="http://www.w3.org/2000/svg"
   xmlns="http://www.w3.org/2000/svg"
   xmlns:sodipodi="http://sodipodi.sourceforge.net/DTD/sodipodi-0.dtd"
   xmlns:inkscape="http://www.inkscape.org/namespaces/inkscape"
   width="19pt"
   height="19pt"
   viewBox="0 0 19 19"
   version="1.1"
   id="svg2"
   inkscape:version="0.91 r13725"
   sodipodi:docname="network-cellular-3g.svg">
  <metadata
     id="metadata11">
    <rdf:RDF>
      <cc:Work
         rdf:about="">
        <dc:format>image/svg+xml</dc:format>
        <dc:type
           rdf:resource="http://purl.org/dc/dcmitype/StillImage" />
      </cc:Work>
    </rdf:RDF>
  </metadata>
  <defs
     id="defs9" />
  <sodipodi:namedview
     pagecolor="#ffffff"
     bordercolor="#666666"
     borderopacity="1"
     objecttolerance="10"
     gridtolerance="10"
     guidetolerance="10"
     inkscape:pageopacity="0"
     inkscape:pageshadow="2"
     inkscape:window-width="1366"
     inkscape:window-height="708"
     id="namedview7"
     showgrid="false"
     inkscape:zoom="9.9368421"
     inkscape:cx="-3.8241525"
     inkscape:cy="11.875"
     inkscape:window-x="0"
     inkscape:window-y="24"
     inkscape:window-maximized="1"
     inkscape:current-layer="svg2" />
  <g
     id="surface1"
     style="fill:#cccccc"
     transform="matrix(0.75789474,0,0,0.75789474,2.3,2.3)">
    <path
       style="fill:#cccccc;fill-opacity:1;fill-rule:nonzero;stroke:none"
       d="M 1.1875,2.375 C 0.53125,2.375 0,2.90625 0,3.5625 l 0,11.875 c 0,0.65625 0.53125,1.1875 1.1875,1.1875 l 16.625,0 C 18.46875,16.625 19,16.09375 19,15.4375 L 19,3.5625 C 19,2.90625 18.46875,2.375 17.8125,2.375 Z m 1.78125,2.375 4.75,0 c 0.328125,0 0.59375,0.265625 0.59375,0.59375 l 0,8.3125 c 0,0.328125 -0.265625,0.59375 -0.59375,0.59375 l -4.75,0 C 2.640625,14.25 2.375,13.984375 2.375,13.65625 l 0,-1.78125 3.5625,0 0,-1.1875 -2.375,0 0,-2.375 2.375,0 0,-1.1875 -3.5625,0 0,-1.78125 C 2.375,5.015625 2.640625,4.75 2.96875,4.75 Z m 7.125,0 5.9375,0 c 0.328125,0 0.59375,0.265625 0.59375,0.59375 l 0,1.78125 -4.75,0 0,4.75 2.375,0 0,-1.1875 -1.1875,0 0,-2.375 3.5625,0 0,5.34375 c 0,0.328125 -0.265625,0.59375 -0.59375,0.59375 l -5.9375,0 C 9.765625,14.25 9.5,13.984375 9.5,13.65625 l 0,-8.3125 C 9.5,5.015625 9.765625,4.75 10.09375,4.75 Z m 0,0"
       id="path5"
       inkscape:connector-curvature="0" />
  </g>
</svg>
