<?xml version="1.0" encoding="UTF-8" standalone="no"?>
<svg
   xmlns:dc="http://purl.org/dc/elements/1.1/"
   xmlns:cc="http://creativecommons.org/ns#"
   xmlns:rdf="http://www.w3.org/1999/02/22-rdf-syntax-ns#"
   xmlns:svg="http://www.w3.org/2000/svg"
   xmlns="http://www.w3.org/2000/svg"
   xmlns:sodipodi="http://sodipodi.sourceforge.net/DTD/sodipodi-0.dtd"
   xmlns:inkscape="http://www.inkscape.org/namespaces/inkscape"
   width="19pt"
   height="19pt"
   viewBox="0 0 19 19"
   version="1.1"
   id="svg19"
   inkscape:version="0.91 r13725"
   sodipodi:docname="network-cellular-signal-weak.svg">
  <metadata
     id="metadata34">
    <rdf:RDF>
      <cc:Work
         rdf:about="">
        <dc:format>image/svg+xml</dc:format>
        <dc:type
           rdf:resource="http://purl.org/dc/dcmitype/StillImage" />
      </cc:Work>
    </rdf:RDF>
  </metadata>
  <defs
     id="defs32" />
  <sodipodi:namedview
     pagecolor="#ffffff"
     bordercolor="#666666"
     borderopacity="1"
     objecttolerance="10"
     gridtolerance="10"
     guidetolerance="10"
     inkscape:pageopacity="0"
     inkscape:pageshadow="2"
     inkscape:window-width="1366"
     inkscape:window-height="708"
     id="namedview30"
     showgrid="false"
     inkscape:zoom="9.9368421"
     inkscape:cx="-3.8241525"
     inkscape:cy="11.875"
     inkscape:window-x="0"
     inkscape:window-y="24"
     inkscape:window-maximized="1"
     inkscape:current-layer="svg19" />
  <g
     id="surface1"
     transform="matrix(0.80842105,0,0,0.80842105,2.3,2.3)"
     style="fill:#cccccc">
    <path
       style="fill:#cccccc;fill-opacity:0.45098003;fill-rule:nonzero;stroke:none"
       d="m 15.4375,1.1875 1.1875,0 c 0.65625,0 1.1875,0.53125 1.1875,1.1875 l 0,13.0625 c 0,0.65625 -0.53125,1.1875 -1.1875,1.1875 l -1.1875,0 c -0.65625,0 -1.1875,-0.53125 -1.1875,-1.1875 l 0,-13.0625 c 0,-0.65625 0.53125,-1.1875 1.1875,-1.1875 z m 0,0"
       id="path22"
       inkscape:connector-curvature="0" />
    <path
       style="fill:#cccccc;fill-opacity:0.45098003;fill-rule:nonzero;stroke:none"
       d="m 10.6875,4.75 1.1875,0 c 0.65625,0 1.1875,0.53125 1.1875,1.1875 l 0,9.5 c 0,0.65625 -0.53125,1.1875 -1.1875,1.1875 l -1.1875,0 C 10.03125,16.625 9.5,16.09375 9.5,15.4375 l 0,-9.5 C 9.5,5.28125 10.03125,4.75 10.6875,4.75 Z m 0,0"
       id="path24"
       inkscape:connector-curvature="0" />
    <path
       style="fill:#cccccc;fill-opacity:0.45098003;fill-rule:nonzero;stroke:none"
       d="m 5.9375,8.3125 1.1875,0 c 0.65625,0 1.1875,0.53125 1.1875,1.1875 l 0,5.9375 c 0,0.65625 -0.53125,1.1875 -1.1875,1.1875 l -1.1875,0 C 5.28125,16.625 4.75,16.09375 4.75,15.4375 L 4.75,9.5 c 0,-0.65625 0.53125,-1.1875 1.1875,-1.1875 z m 0,0"
       id="path26"
       inkscape:connector-curvature="0" />
    <path
       style="fill:#cccccc;fill-opacity:1;fill-rule:nonzero;stroke:none"
       d="m 1.1875,11.875 1.1875,0 c 0.65625,0 1.1875,0.53125 1.1875,1.1875 l 0,2.375 c 0,0.65625 -0.53125,1.1875 -1.1875,1.1875 l -1.1875,0 C 0.53125,16.625 0,16.09375 0,15.4375 l 0,-2.375 C 0,12.40625 0.53125,11.875 1.1875,11.875 Z m 0,0"
       id="path28"
       inkscape:connector-curvature="0" />
  </g>
</svg>
