<svg height="16" width="16" xmlns="http://www.w3.org/2000/svg" xmlns:sodipodi="http://sodipodi.sourceforge.net/DTD/sodipodi-0.dtd" xmlns:inkscape="http://www.inkscape.org/namespaces/inkscape">
 <g inkscape:label="Calque 1" inkscape:groupmode="layer">
  <path d="M 15.1875,0 C 14.984855,0 14.782209,0.0615405 14.625,0.21875 l -2.75,2.75 -1.875,0 a 0.63312664,0.63136584 0 0 0 -0.4375,0.1875 l -2.375,2.375 a 0.63312664,0.63136584 0 0 0 0,0.875 l 2.375,2.375 a 0.63312664,0.63136584 0 0 0 0.59375,0.1875 0.63312664,0.63136584 0 0 0 0.28125,-0.1875 l 2.375,-2.375 A 0.63312664,0.63136584 0 0 0 13,5.96875 l 0,-1.875 2.75,-2.75 c 0.314418,-0.314417 0.314418,-0.810582 0,-1.125 C 15.592791,0.0615405 15.390145,0 15.1875,0 z M 5.84375,7 A 0.63312664,0.63136584 0 0 0 5.5625,7.1875 l -2.375,2.375 A 0.63312664,0.63136584 0 0 0 3,10 l 0,1.875 -2.75,2.75 c -0.31441823,0.314417 -0.31441823,0.810582 0,1.125 0.31441825,0.314419 0.8105817,0.314419 1.125,0 L 4.125,13 6,13 a 0.63312664,0.63136584 0 0 0 0.4375,-0.1875 l 2.375,-2.375 a 0.63312664,0.63136584 0 0 0 0,-0.875 L 6.4375,7.1875 A 0.63312664,0.63136584 0 0 0 5.84375,7 z" display="inline" fill="#bebebe" fill-opacity="1" stroke="none" opacity="0.45" inkscape:connector-curvature="0"/>
  <path d="m 10.006337,11.504753 1.498416,-1.498416 1.498416,1.498416 1.498415,-1.498416 L 16,11.504753 14.501584,13.003168 16,14.501584 14.501584,16 13.003169,14.501584 11.504753,16 10.006337,14.501584 11.504753,13.003168 10.006337,11.504753 z" fill="#d40000" fill-opacity="1" stroke="none" inkscape:connector-curvature="0"/>
 </g>
</svg>
