<svg height="16" width="16" xmlns="http://www.w3.org/2000/svg" xmlns:xlink="http://www.w3.org/1999/xlink" xmlns:sodipodi="http://sodipodi.sourceforge.net/DTD/sodipodi-0.dtd" xmlns:inkscape="http://www.inkscape.org/namespaces/inkscape">
 <defs>
  <path d="m 22.008699,15 a 1,1 0 1 1 -2,0 1,1 0 1 1 2,0 z" stroke-width="1.5" display="inline" fill="#bebebe" color="#000000" fill-opacity="1" stroke="none" fill-rule="nonzero" id="SVGCleanerId_0" visibility="visible"/>
 </defs>
 <g inkscape:label="Calque 1" inkscape:groupmode="layer">
  <path d="M 8,1 C 4.8812155,1 2.0438333,2.3284272 0,4.5 L 1.3529412,5.9375 C 3.0561357,4.1278558 5.4010136,3 8,3 c 2.598986,0 4.943864,1.1278558 6.647059,2.9375 L 16,4.5 C 13.956167,2.3284272 11.118784,1 8,1 z M 8,4 C 5.6609119,4 3.532875,4.9963203 2,6.625 L 3.3529412,8.0625 C 4.5451773,6.7957491 6.1807092,6 8,6 9.8192908,6 11.454823,6.7957491 12.647059,8.0625 L 14,6.625 C 12.467125,4.9963203 10.339088,4 8,4 z M 8,7 C 6.4406076,7 5.0219166,7.6642136 4,8.75 l 1.3235294,1.40625 C 6.0048072,9.432392 6.9604053,9 8,9 9.0395948,9 9.9951925,9.432392 10.676471,10.15625 L 12,8.75 C 10.978084,7.6642136 9.5593925,7 8,7 z m 0,3 C 7.2203039,10 6.5109583,10.332107 6,10.875 L 8,13 10,10.875 C 9.4890417,10.332107 8.7796961,10 8,10 z" stroke-width="1.5" display="inline" fill="#bebebe" color="#000000" fill-opacity="1" fill-rule="nonzero" stroke="none" opacity="0.45" visibility="visible" inkscape:connector-curvature="0"/>
  <use xlink:href="#SVGCleanerId_0" sodipodi:type="arc" sodipodi:cx="21.008699" sodipodi:cy="15" sodipodi:rx="1" sodipodi:ry="1" transform="matrix(1 0 0 1 -10 0)"/>
  <use xlink:href="#SVGCleanerId_0" sodipodi:type="arc" sodipodi:cx="21.008699" sodipodi:cy="15" sodipodi:rx="1" sodipodi:ry="1" transform="matrix(1 0 0 1 -13 0)"/>
  <use xlink:href="#SVGCleanerId_0" sodipodi:type="arc" sodipodi:cx="21.008699" sodipodi:cy="15" sodipodi:rx="1" sodipodi:ry="1" transform="matrix(1 0 0 1 -16 0)"/>
 </g>
</svg>
