<?xml version="1.0" encoding="UTF-8" standalone="no"?>
<svg
   xmlns:dc="http://purl.org/dc/elements/1.1/"
   xmlns:cc="http://creativecommons.org/ns#"
   xmlns:rdf="http://www.w3.org/1999/02/22-rdf-syntax-ns#"
   xmlns:svg="http://www.w3.org/2000/svg"
   xmlns="http://www.w3.org/2000/svg"
   xmlns:sodipodi="http://sodipodi.sourceforge.net/DTD/sodipodi-0.dtd"
   xmlns:inkscape="http://www.inkscape.org/namespaces/inkscape"
   width="19pt"
   height="19pt"
   viewBox="0 0 19 19"
   version="1.1"
   id="svg4176"
   inkscape:version="0.91 r13725"
   sodipodi:docname="network-wireless-signal-ok.svg">
  <metadata
     id="metadata4191">
    <rdf:RDF>
      <cc:Work
         rdf:about="">
        <dc:format>image/svg+xml</dc:format>
        <dc:type
           rdf:resource="http://purl.org/dc/dcmitype/StillImage" />
      </cc:Work>
    </rdf:RDF>
  </metadata>
  <defs
     id="defs4189" />
  <sodipodi:namedview
     pagecolor="#ffffff"
     bordercolor="#666666"
     borderopacity="1"
     objecttolerance="10"
     gridtolerance="10"
     guidetolerance="10"
     inkscape:pageopacity="0"
     inkscape:pageshadow="2"
     inkscape:window-width="640"
     inkscape:window-height="480"
     id="namedview4187"
     showgrid="false"
     inkscape:zoom="9.9368421"
     inkscape:cx="11.875"
     inkscape:cy="11.875"
     inkscape:window-x="603"
     inkscape:window-y="201"
     inkscape:window-maximized="0"
     inkscape:current-layer="svg4176" />
  <g
     id="surface1"
     style="fill:#cccccc">
    <path
       style="stroke:none;fill-rule:nonzero;fill:#cccccc;fill-opacity:0.501961"
       d="M 9.5 2.375 C 5.355469 2.375 1.8125 3.921875 0.1875 6.160156 L 1.523438 7.644531 C 2.886719 5.71875 5.957031 4.378906 9.5 4.378906 C 13.042969 4.378906 16.113281 5.71875 17.476562 7.644531 L 18.8125 6.160156 C 17.1875 3.921875 13.644531 2.375 9.5 2.375 Z M 9.5 2.375 "
       id="path4179" />
    <path
       style="stroke:none;fill-rule:nonzero;fill:#cccccc;fill-opacity:0.501961"
       d="M 9.5 6.308594 C 6.699219 6.308594 4.25 7.375 2.710938 8.980469 L 3.933594 10.351562 C 5.253906 9.113281 7.253906 8.3125 9.5 8.3125 C 11.746094 8.3125 13.746094 9.113281 15.066406 10.351562 L 16.289062 8.980469 C 14.75 7.375 12.300781 6.308594 9.5 6.308594 Z M 9.5 6.308594 "
       id="path4181" />
    <path
       style="stroke:none;fill-rule:nonzero;fill:#cccccc;fill-opacity:0.901961"
       d="M 9.5 10.09375 C 7.796875 10.09375 6.234375 10.660156 5.007812 11.578125 L 6.273438 12.988281 C 7.199219 12.433594 8.3125 12.097656 9.5 12.097656 C 10.6875 12.097656 11.800781 12.433594 12.726562 12.988281 L 13.992188 11.578125 C 12.765625 10.660156 11.203125 10.09375 9.5 10.09375 Z M 9.5 10.09375 "
       id="path4183" />
    <path
       style="stroke:none;fill-rule:nonzero;fill:#cccccc;fill-opacity:0.901961"
       d="M 9.5 13.992188 C 8.253906 13.984375 7.765625 14.375 7.644531 14.472656 C 7.710938 14.53125 9.5 16.625 9.5 16.625 C 9.5 16.625 11.273438 14.550781 11.355469 14.472656 C 11.261719 14.378906 10.726562 13.996094 9.5 13.992188 Z M 9.5 13.992188 "
       id="path4185" />
  </g>
</svg>
