<svg height="16" width="16" xmlns="http://www.w3.org/2000/svg" xmlns:sodipodi="http://sodipodi.sourceforge.net/DTD/sodipodi-0.dtd" xmlns:inkscape="http://www.inkscape.org/namespaces/inkscape">
 <g inkscape:label="Calque 1" inkscape:groupmode="layer">
  <path d="m 5.7287846,19.142522 -5.49297094,5.46789 c -0.31441823,0.314417 -0.31441823,0.839356 0,1.153774 0.31441825,0.314419 0.83935644,0.314419 1.15377474,0 L 6.9828875,20.170887 C 6.5328111,19.864611 6.1247055,19.513599 5.7287846,19.142522 z" display="inline" fill="#ff0000" fill-opacity="1" stroke="none" opacity="0.2" sodipodi:nodetypes="ccsccc"/>
  <path d="M 10.875,8.46875 A 0.53394727,0.53394727 0 0 0 10.625,8.625 l -2,2 A 0.53394727,0.53394727 0 0 0 8.46875,11 l 0,2 A 0.53394727,0.53394727 0 0 0 9,13.53125 l 2,0 A 0.53394727,0.53394727 0 0 0 11.375,13.375 l 2,-2 a 0.53394727,0.53394727 0 0 0 0,-0.75 l -2,-2 a 0.53394727,0.53394727 0 0 0 -0.5,-0.15625 z" display="inline" fill="#ff0000" stroke="none" opacity="0.2" sodipodi:type="inkscape:offset" inkscape:original="M 11 9 L 9 11 L 9 13 L 11 13 L 13 11 L 11 9 z " inkscape:radius="0.53389388" transform="matrix(1.08694 0 0 1.08391 -6.205 8.333)"/>
  <path d="M 5.84375 7 A 0.63312664 0.63136584 0 0 0 5.5625 7.1875 L 3.1875 9.5625 A 0.63312664 0.63136584 0 0 0 3 10 L 3 11.875 L 0.25 14.625 C -0.06441823 14.939417 -0.06441823 15.435582 0.25 15.75 C 0.56441825 16.064419 1.0605817 16.064419 1.375 15.75 L 4.125 13 L 6 13 A 0.63312664 0.63136584 0 0 0 6.4375 12.8125 L 8.8125 10.4375 A 0.63312664 0.63136584 0 0 0 8.8125 9.5625 L 6.4375 7.1875 A 0.63312664 0.63136584 0 0 0 5.84375 7 z " display="inline" fill="#666666" fill-opacity="1" stroke="none" opacity="1"/>
  <path d="m 10.159583,8.972266 a 0.63312664,0.63136584 0 0 0 0.28125,-0.1875 l 2.375,-2.375 a 0.63312664,0.63136584 0 0 0 0.1875,-0.4375 l 0,-1.875 2.75,-2.7499997 c 0.314418,-0.314417 0.314418,-0.810582 0,-1.125 -0.314418,-0.314419 -0.810582,-0.314419 -1.125,0 l -2.75,2.75 -1.875,0 a 0.63312664,0.63136584 0 0 0 -0.4375,0.1874997 l -2.375,2.375 a 0.63312664,0.63136584 0 0 0 0,0.875 l 2.375,2.375 a 0.63312664,0.63136584 0 0 0 0.59375,0.1875 z" display="inline" fill="#666666" fill-opacity="1" stroke="none" opacity="0.45"/>
 </g>
</svg>
