<?xml version="1.0" encoding="UTF-8" standalone="no"?>
<svg
   xmlns:dc="http://purl.org/dc/elements/1.1/"
   xmlns:cc="http://creativecommons.org/ns#"
   xmlns:rdf="http://www.w3.org/1999/02/22-rdf-syntax-ns#"
   xmlns:svg="http://www.w3.org/2000/svg"
   xmlns="http://www.w3.org/2000/svg"
   xmlns:sodipodi="http://sodipodi.sourceforge.net/DTD/sodipodi-0.dtd"
   xmlns:inkscape="http://www.inkscape.org/namespaces/inkscape"
   width="19pt"
   height="19pt"
   viewBox="0 0 19 19"
   version="1.1"
   id="svg64"
   inkscape:version="0.91 r13725"
   sodipodi:docname="network-wireless-acquiring.svg">
  <metadata
     id="metadata79">
    <rdf:RDF>
      <cc:Work
         rdf:about="">
        <dc:format>image/svg+xml</dc:format>
        <dc:type
           rdf:resource="http://purl.org/dc/dcmitype/StillImage" />
      </cc:Work>
    </rdf:RDF>
  </metadata>
  <defs
     id="defs77" />
  <sodipodi:namedview
     pagecolor="#ffffff"
     bordercolor="#666666"
     borderopacity="1"
     objecttolerance="10"
     gridtolerance="10"
     guidetolerance="10"
     inkscape:pageopacity="0"
     inkscape:pageshadow="2"
     inkscape:window-width="1366"
     inkscape:window-height="708"
     id="namedview75"
     showgrid="false"
     inkscape:zoom="19.873684"
     inkscape:cx="7.6721099"
     inkscape:cy="10.126805"
     inkscape:window-x="0"
     inkscape:window-y="24"
     inkscape:window-maximized="1"
     inkscape:current-layer="svg64" />
  <path
     inkscape:connector-curvature="0"
     id="path69"
     d="m 13.108882,15.35 c 0,0.497368 -0.402632,0.9 -0.9,0.9 -0.497369,0 -0.9,-0.402632 -0.9,-0.9 0,-0.497368 0.402631,-0.9 0.9,-0.9 0.497368,0 0.9,0.402632 0.9,0.9 z m 0,0"
     style="fill:#cccccc;fill-opacity:1;fill-rule:nonzero;stroke:none" />
  <path
     inkscape:connector-curvature="0"
     id="path71"
     d="m 10.408882,15.35 c 0,0.497368 -0.402632,0.9 -0.9000002,0.9 -0.4973684,0 -0.9,-0.402632 -0.9,-0.9 0,-0.497368 0.4026316,-0.9 0.9,-0.9 0.4973682,0 0.9000002,0.402632 0.9000002,0.9 z m 0,0"
     style="fill:#cccccc;fill-opacity:1;fill-rule:nonzero;stroke:none" />
  <path
     inkscape:connector-curvature="0"
     id="path73"
     d="m 7.7088818,15.35 c 0,0.497368 -0.4026316,0.9 -0.9,0.9 -0.4973684,0 -0.9,-0.402632 -0.9,-0.9 0,-0.497368 0.4026316,-0.9 0.9,-0.9 0.4973684,0 0.9,0.402632 0.9,0.9 z m 0,0"
     style="fill:#cccccc;fill-opacity:1;fill-rule:nonzero;stroke:none" />
  <path
     style="fill:#cccccc;fill-opacity:1;fill-rule:nonzero;stroke:none;opacity:0.5"
     d="M 11.875 3.765625 C 5.7800162 3.765625 2.875 7.140625 2.875 7.140625 L 11.875 17.265625 L 20.875 7.140625 C 20.875 7.140625 18.043997 3.765625 11.875 3.765625 z "
     transform="scale(0.8,0.8)"
     id="path4168" />
</svg>
