<?xml version="1.0" encoding="UTF-8" standalone="no"?>
<svg
   xmlns:dc="http://purl.org/dc/elements/1.1/"
   xmlns:cc="http://creativecommons.org/ns#"
   xmlns:rdf="http://www.w3.org/1999/02/22-rdf-syntax-ns#"
   xmlns:svg="http://www.w3.org/2000/svg"
   xmlns="http://www.w3.org/2000/svg"
   xmlns:sodipodi="http://sodipodi.sourceforge.net/DTD/sodipodi-0.dtd"
   xmlns:inkscape="http://www.inkscape.org/namespaces/inkscape"
   width="19pt"
   height="19pt"
   viewBox="0 0 19 19"
   version="1.1"
   id="svg32"
   inkscape:version="0.91 r13725"
   sodipodi:docname="network-wired-acquiring.svg">
  <metadata
     id="metadata49">
    <rdf:RDF>
      <cc:Work
         rdf:about="">
        <dc:format>image/svg+xml</dc:format>
        <dc:type
           rdf:resource="http://purl.org/dc/dcmitype/StillImage" />
      </cc:Work>
    </rdf:RDF>
  </metadata>
  <defs
     id="defs47" />
  <sodipodi:namedview
     pagecolor="#ffffff"
     bordercolor="#666666"
     borderopacity="1"
     objecttolerance="10"
     gridtolerance="10"
     guidetolerance="10"
     inkscape:pageopacity="0"
     inkscape:pageshadow="2"
     inkscape:window-width="1366"
     inkscape:window-height="708"
     id="namedview45"
     showgrid="false"
     inkscape:zoom="14.052817"
     inkscape:cx="-1.9164762"
     inkscape:cy="0.93708066"
     inkscape:window-x="0"
     inkscape:window-y="24"
     inkscape:window-maximized="1"
     inkscape:current-layer="svg32" />
  <path
     style="opacity:1;fill:#cccccc;fill-opacity:1;stroke:none;stroke-width:1.39999998;stroke-miterlimit:4;stroke-dasharray:none;stroke-opacity:1"
     d="M 5.4980469 3.875 C 4.5986324 3.875 3.875 4.5986324 3.875 5.4980469 L 3.875 18.251953 C 3.875 19.151368 4.5986324 19.875 5.4980469 19.875 L 18.251953 19.875 C 19.151368 19.875 19.875 19.151368 19.875 18.251953 L 19.875 5.4980469 C 19.875 4.5986324 19.151368 3.875 18.251953 3.875 L 5.4980469 3.875 z M 10.5 10.162109 L 11.875 10.162109 L 13.25 10.162109 L 13.275391 10.226562 C 13.288516 10.261503 13.298828 10.450102 13.298828 10.646484 C 13.298828 10.974234 13.302078 11.005741 13.345703 11.029297 C 13.371803 11.043437 13.540319 11.054688 13.720703 11.054688 C 13.943071 11.054688 14.05815 11.063584 14.078125 11.083984 C 14.0992 11.105264 14.107422 11.266891 14.107422 11.650391 C 14.107422 12.03389 14.115669 12.193643 14.136719 12.214844 C 14.158394 12.236824 14.37454 12.244141 14.957031 12.244141 C 15.412625 12.244141 15.776175 12.255404 15.8125 12.269531 L 15.875 12.294922 L 15.869141 14.707031 L 15.863281 17.119141 L 11.875 17.119141 L 7.8867188 17.119141 L 7.8828125 14.707031 L 7.875 12.294922 L 7.9375 12.269531 C 7.9738238 12.255391 8.3373745 12.244141 8.7929688 12.244141 C 9.3754574 12.244141 9.5916014 12.236844 9.6132812 12.214844 C 9.6344112 12.193564 9.6425781 12.03389 9.6425781 11.650391 C 9.6425781 11.266891 9.6508025 11.105186 9.671875 11.083984 C 9.6918388 11.063574 9.806928 11.054688 10.029297 11.054688 C 10.20968 11.054688 10.378197 11.043424 10.404297 11.029297 C 10.447817 11.005737 10.451172 10.974157 10.451172 10.646484 C 10.451172 10.450102 10.463397 10.261112 10.476562 10.226562 L 10.5 10.162109 z M 9.625 17.679688 C 10.039474 17.679688 10.375 18.015214 10.375 18.429688 C 10.375 18.844163 10.039474 19.179688 9.625 19.179688 C 9.2105265 19.179688 8.875 18.844162 8.875 18.429688 C 8.875 18.015214 9.2105265 17.679688 9.625 17.679688 z M 11.875 17.679688 C 12.289473 17.679688 12.625 18.015214 12.625 18.429688 C 12.625 18.844163 12.289473 19.179688 11.875 19.179688 C 11.460526 19.179688 11.125 18.844162 11.125 18.429688 C 11.125 18.015214 11.460526 17.679688 11.875 17.679688 z M 14.125 17.679688 C 14.539474 17.679688 14.875 18.015214 14.875 18.429688 C 14.875 18.844163 14.539474 19.179688 14.125 19.179688 C 13.710526 19.179688 13.375 18.844162 13.375 18.429688 C 13.375 18.015214 13.710526 17.679688 14.125 17.679688 z "
     transform="scale(0.8,0.8)"
     id="rect6619" />
  <g
     transform="matrix(0.88760962,0,0,0.88760962,-12.80213,6.595133)"
     style="fill:#cccccc"
     id="g6649">
    <path
       inkscape:connector-curvature="0"
       id="path6651"
       d="m 28.731245,17.505687 c 0,0.498086 -0.403212,0.901297 -0.901297,0.901297 -0.498086,0 -0.901298,-0.403211 -0.901298,-0.901297 0,-0.498085 0.403212,-0.901297 0.901298,-0.901297 0.498085,0 0.901297,0.403212 0.901297,0.901297 z m 0,0"
       style="fill:#cccccc;fill-opacity:1;fill-rule:nonzero;stroke:none" />
    <path
       inkscape:connector-curvature="0"
       id="path6653"
       d="m 26.027353,17.505687 c 0,0.498086 -0.403212,0.901297 -0.901297,0.901297 -0.498085,0 -0.901297,-0.403211 -0.901297,-0.901297 0,-0.498085 0.403212,-0.901297 0.901297,-0.901297 0.498085,0 0.901297,0.403212 0.901297,0.901297 z m 0,0"
       style="fill:#cccccc;fill-opacity:1;fill-rule:nonzero;stroke:none" />
    <path
       inkscape:connector-curvature="0"
       id="path6655"
       d="m 23.323462,17.505687 c 0,0.498086 -0.403212,0.901297 -0.901297,0.901297 -0.498085,0 -0.901297,-0.403211 -0.901297,-0.901297 0,-0.498085 0.403212,-0.901297 0.901297,-0.901297 0.498085,0 0.901297,0.403212 0.901297,0.901297 z m 0,0"
       style="fill:#cccccc;fill-opacity:1;fill-rule:nonzero;stroke:none" />
  </g>
</svg>
