<?xml version="1.0" encoding="UTF-8" standalone="no"?>
<svg
   xmlns:dc="http://purl.org/dc/elements/1.1/"
   xmlns:cc="http://creativecommons.org/ns#"
   xmlns:rdf="http://www.w3.org/1999/02/22-rdf-syntax-ns#"
   xmlns:svg="http://www.w3.org/2000/svg"
   xmlns="http://www.w3.org/2000/svg"
   xmlns:sodipodi="http://sodipodi.sourceforge.net/DTD/sodipodi-0.dtd"
   xmlns:inkscape="http://www.inkscape.org/namespaces/inkscape"
   width="19pt"
   height="19pt"
   viewBox="0 0 19 19"
   version="1.1"
   id="svg83"
   inkscape:version="0.91 r13725"
   sodipodi:docname="nm-adhoc.svg">
  <metadata
     id="metadata98">
    <rdf:RDF>
      <cc:Work
         rdf:about="">
        <dc:format>image/svg+xml</dc:format>
        <dc:type
           rdf:resource="http://purl.org/dc/dcmitype/StillImage" />
      </cc:Work>
    </rdf:RDF>
  </metadata>
  <defs
     id="defs96" />
  <sodipodi:namedview
     pagecolor="#ffffff"
     bordercolor="#666666"
     borderopacity="1"
     objecttolerance="10"
     gridtolerance="10"
     guidetolerance="10"
     inkscape:pageopacity="0"
     inkscape:pageshadow="2"
     inkscape:window-width="1366"
     inkscape:window-height="708"
     id="namedview94"
     showgrid="false"
     inkscape:zoom="9.9368421"
     inkscape:cx="-19.523305"
     inkscape:cy="11.875"
     inkscape:window-x="0"
     inkscape:window-y="24"
     inkscape:window-maximized="1"
     inkscape:current-layer="svg83" />
  <g
     id="surface1"
     transform="matrix(0.73173457,0,0,0.73173457,2.5485216,2.5485216)"
     style="fill:#cccccc">
    <path
       style="fill:#cccccc;fill-opacity:1;fill-rule:nonzero;stroke:none"
       d="m 2.589844,2.589844 0,9.5 4.320312,0 0.863282,0.863281 2.589843,0 0.863281,-0.863281 0,-0.863282 -7.773437,0 0,-7.773437 12.09375,0 0,6.910156 0.863281,0 0,-7.773437 z m 9.5,9.5 0,1.726562 -9.5,0 0,0.867188 9.5,0 0,1.726562 3.457031,0 0,-0.863281 -2.59375,0 0,-2.59375 2.59375,0 0,-0.863281 z m 1.726562,1.726562 0,0.867188 2.59375,0 0,-0.867188 z m -6.042968,1.730469 c -0.480469,0 -0.863282,0.382813 -0.863282,0.863281 l 4.316406,0 c 0,-0.480468 -0.382812,-0.863281 -0.863281,-0.863281 z m 0,0"
       id="path86"
       inkscape:connector-curvature="0" />
    <path
       style="fill:#cccccc;fill-opacity:1;fill-rule:nonzero;stroke:none"
       d="m 9.5,8.636719 c 0.476562,0 0.863281,0.386719 0.863281,0.863281 0,0.476562 -0.386719,0.863281 -0.863281,0.863281 C 9.023438,10.363281 8.636719,9.976562 8.636719,9.5 8.636719,9.023438 9.023438,8.636719 9.5,8.636719 Z m 0,0"
       id="path88"
       inkscape:connector-curvature="0" />
    <path
       style="fill:#cccccc;fill-opacity:1;fill-rule:nonzero;stroke:none"
       d="m 9.5,6.046875 c -0.957031,0 -1.820312,0.382813 -2.445312,1.007813 L 7.667969,7.667969 C 8.132812,7.199219 8.78125,6.910156 9.5,6.910156 c 0.71875,0 1.367188,0.289063 1.832031,0.757813 L 11.945312,7.054688 C 11.320312,6.429688 10.457031,6.046875 9.5,6.046875 Z m 0,0"
       id="path90"
       inkscape:connector-curvature="0" />
    <path
       style="fill:#cccccc;fill-opacity:1;fill-rule:nonzero;stroke:none"
       d="m 9.5,4.316406 c -1.433594,0 -2.730469,0.578125 -3.667969,1.515625 L 6.445312,6.445312 C 7.222656,5.664062 8.304688,5.183594 9.5,5.183594 c 1.195312,0 2.277344,0.480468 3.054688,1.261718 L 13.167969,5.832031 C 12.230469,4.894531 10.933594,4.316406 9.5,4.316406 Z m 0,0"
       id="path92"
       inkscape:connector-curvature="0" />
  </g>
</svg>
