<svg height="96" width="96" xmlns="http://www.w3.org/2000/svg" xmlns:xlink="http://www.w3.org/1999/xlink" xmlns:sodipodi="http://sodipodi.sourceforge.net/DTD/sodipodi-0.dtd" xmlns:inkscape="http://www.inkscape.org/namespaces/inkscape">
 <defs>
  <radialGradient cy="90.17" r="42" gradientUnits="userSpaceOnUse" id="radialGradient3619" cx="48" gradientTransform="matrix(1.15731 0 0 0.99591 -7.551 0.197)">
   <stop stop-color="#ffffff" stop-opacity="1"/>
   <stop stop-color="#ffffff" stop-opacity="0" offset="1"/>
  </radialGradient>
  <linearGradient x2="0" y1="92.54" y2="7.02" gradientUnits="userSpaceOnUse" id="ButtonShadow-0" gradientTransform="matrix(1.0059 0 0 0.99417 100 0)">
   <stop stop-color="#000000" stop-opacity="1"/>
   <stop stop-color="#000000" stop-opacity="0.588" offset="1"/>
  </linearGradient>
  <linearGradient x2="0" xlink:href="#ButtonShadow-0" y1="6.132" y2="90.24" gradientUnits="userSpaceOnUse" id="linearGradient3780" gradientTransform="matrix(1.02381 0 0 -1.0119 -1.143 98.07)"/>
  <linearGradient x2="0" xlink:href="#ButtonShadow-0" y1="6.132" y2="90.24" gradientUnits="userSpaceOnUse" id="linearGradient3721" gradientTransform="matrix(1 0 0 -1 0 97)"/>
  <linearGradient x2="0" y1="79.81" y2="10.985" gradientUnits="userSpaceOnUse" id="linearGradient3832" gradientTransform="matrix(0.9009 0 0 0.9009 3.419 6.095)">
   <stop stop-color="#aaaaaa" stop-opacity="1"/>
   <stop stop-color="#f0f0f0" stop-opacity="1" offset="1"/>
  </linearGradient>
  <rect x="6" rx="6" y="6" fill="#000000" fill-opacity="1" stroke="none" fill-rule="nonzero" height="84" id="SVGCleanerId_0" opacity="0.6" width="84"/>
 </defs>
 <g display="inline">
  <path d="M 12,3.96875 C 6.4889098,3.96875 1.96875,8.4889098 1.96875,14 l 0,71 c 0,5.51109 4.5201597,10.03125 10.03125,10.03125 l 72,0 c 5.51109,0 10.03125,-4.52016 10.03125,-10.03125 l 0,-71 C 94.03125,8.4889097 89.51109,3.96875 84,3.96875 l -72,0 z M 12,6 84,6 c 3.324,0 6,2.676 6,6 l 0,72 c 0,3.324 -2.676,6 -6,6 L 12,90 C 8.676,90 6,87.324 6,84 L 6,12 C 6,8.676 8.676,6 12,6 z" fill="url(#linearGradient3780)" fill-opacity="1" fill-rule="nonzero" stroke="none" opacity="0.08" inkscape:connector-curvature="0"/>
  <path d="M 12,4.96875 C 7.0283671,4.96875 2.96875,9.0283671 2.96875,14 l 0,71 c 0,4.971633 4.059617,9.03125 9.03125,9.03125 l 72,0 c 4.971633,0 9.03125,-4.059617 9.03125,-9.03125 l 0,-71 C 93.03125,9.028367 88.971633,4.96875 84,4.96875 l -72,0 z M 12,6 84,6 c 3.324,0 6,2.676 6,6 l 0,72 c 0,3.324 -2.676,6 -6,6 L 12,90 C 8.676,90 6,87.324 6,84 L 6,12 C 6,8.676 8.676,6 12,6 z" fill="url(#linearGradient3780)" fill-opacity="1" fill-rule="nonzero" stroke="none" opacity="0.1" inkscape:connector-curvature="0"/>
  <path d="M 11.1875,6.03125 C 7.159982,6.4419011 4,9.8664375 4,14 l 0,71 c 0,4.409133 3.590867,8 8,8 l 72,0 c 4.409133,0 8,-3.590867 8,-8 L 92,14 C 92,9.8029382 88.741028,6.3539584 84.625,6.03125 87.657886,6.337417 90,8.88375 90,12 l 0,72 c 0,3.324 -2.676,6 -6,6 L 12,90 C 8.676,90 6,87.324 6,84 L 6,12 c 0,-3.11625 2.342114,-5.662583 5.375,-5.96875 -0.06227,0.00488 -0.12563,-0.00631 -0.1875,0 z" fill="url(#linearGradient3780)" fill-opacity="1" fill-rule="nonzero" stroke="none" opacity="0.2" inkscape:connector-curvature="0"/>
  <path d="M 6.4375,9.75 C 5.5380109,10.927446 5,12.397277 5,14 l 0,71 c 0,3.878 3.122,7 7,7 l 72,0 c 3.878,0 7,-3.122 7,-7 L 91,14 C 91,12.397277 90.461989,10.927446 89.5625,9.75 89.841816,10.444095 90,11.203625 90,12 l 0,72 c 0,3.324 -2.676,6 -6,6 L 12,90 C 8.676,90 6,87.324 6,84 L 6,12 C 6,11.203625 6.1581836,10.444095 6.4375,9.75 z" fill="url(#linearGradient3780)" fill-opacity="1" fill-rule="nonzero" stroke="none" opacity="0.3" inkscape:connector-curvature="0"/>
  <path d="m 6,84 0,1 c 0,3.324 2.676,6 6,6 l 72,0 c 3.324,0 6,-2.676 6,-6 l 0,-1 c 0,3.324 -2.676,6 -6,6 L 12,90 C 8.676,90 6,87.324 6,84 z" fill="url(#linearGradient3721)" fill-opacity="1" fill-rule="nonzero" stroke="none" opacity="0.45" inkscape:connector-curvature="0"/>
 </g>
 <g display="inline">
  <use xlink:href="#SVGCleanerId_0"/>
  <path d="M 12,90 C 8.676,90 6,87.324 6,84 L 6,82 6,14 6,12 c 0,-0.334721 0.04135,-0.6507 0.09375,-0.96875 0.0487,-0.295596 0.09704,-0.596915 0.1875,-0.875 C 6.29113,10.12587 6.302142,10.09265 6.3125,10.0625 6.411365,9.774729 6.5473802,9.515048 6.6875,9.25 6.8320918,8.976493 7.0031161,8.714385 7.1875,8.46875 7.3718839,8.223115 7.5612765,7.995278 7.78125,7.78125 8.221197,7.353194 8.72416,6.966724 9.28125,6.6875 9.559795,6.547888 9.8547231,6.440553 10.15625,6.34375 9.9000482,6.443972 9.6695391,6.580022 9.4375,6.71875 c -0.00741,0.0044 -0.023866,-0.0045 -0.03125,0 -0.031933,0.0193 -0.062293,0.04251 -0.09375,0.0625 -0.120395,0.0767 -0.2310226,0.163513 -0.34375,0.25 -0.1061728,0.0808 -0.2132809,0.161112 -0.3125,0.25 C 8.4783201,7.442683 8.3087904,7.626638 8.15625,7.8125 8.0486711,7.942755 7.9378561,8.077785 7.84375,8.21875 7.818661,8.25713 7.805304,8.30462 7.78125,8.34375 7.716487,8.446782 7.6510225,8.548267 7.59375,8.65625 7.4927417,8.850956 7.3880752,9.071951 7.3125,9.28125 7.30454,9.30306 7.288911,9.3218 7.28125,9.34375 7.2494249,9.4357 7.2454455,9.530581 7.21875,9.625 7.1884177,9.731618 7.1483606,9.828031 7.125,9.9375 7.0521214,10.279012 7,10.635705 7,11 l 0,2 0,68 0,2 c 0,2.781848 2.2181517,5 5,5 l 2,0 68,0 2,0 c 2.781848,0 5,-2.218152 5,-5 l 0,-2 0,-68 0,-2 C 89,10.635705 88.94788,10.279012 88.875,9.9375 88.83085,9.730607 88.78662,9.539842 88.71875,9.34375 88.71105,9.3218 88.69545,9.30306 88.6875,9.28125 88.62476,9.107511 88.549117,8.913801 88.46875,8.75 88.42717,8.6672 88.38971,8.580046 88.34375,8.5 88.28915,8.40279 88.216976,8.31165 88.15625,8.21875 88.06214,8.077785 87.951329,7.942755 87.84375,7.8125 87.700576,7.63805 87.540609,7.465502 87.375,7.3125 87.36383,7.3023 87.35502,7.29135 87.34375,7.28125 87.205364,7.155694 87.058659,7.046814 86.90625,6.9375 86.803679,6.86435 86.701932,6.784136 86.59375,6.71875 c -0.0074,-0.0045 -0.02384,0.0044 -0.03125,0 -0.232039,-0.138728 -0.462548,-0.274778 -0.71875,-0.375 0.301527,0.0968 0.596455,0.204138 0.875,0.34375 0.55709,0.279224 1.060053,0.665694 1.5,1.09375 0.219973,0.214028 0.409366,0.441865 0.59375,0.6875 0.184384,0.245635 0.355408,0.507743 0.5,0.78125 0.14012,0.265048 0.276135,0.524729 0.375,0.8125 0.01041,0.03078 0.02133,0.06274 0.03125,0.09375 0.09046,0.278085 0.1388,0.579404 0.1875,0.875 C 89.95865,11.3493 90,11.665279 90,12 l 0,2 0,68 0,2 c 0,3.324 -2.676,6 -6,6 l -72,0 z" fill="url(#radialGradient3619)" fill-opacity="1" fill-rule="nonzero" stroke="none" opacity="0.15" inkscape:connector-curvature="0"/>
 </g>
 <path d="m 72.75,16 c -3.012797,0.03323 -4.548085,2.917441 -6.610559,4.673059 -2.681897,2.681897 -5.363794,5.363794 -8.045691,8.045691 -2.739339,0.167435 -6.059996,-0.725357 -8.052782,1.738751 -2.596988,2.652658 -5.353279,5.203016 -7.853468,7.917499 -1.627173,1.413875 -0.132647,4.290641 -2.759782,3.705505 -2.552099,0.800343 -4.013236,3.271524 -5.972404,4.949947 -1.795043,1.996059 -4.11394,3.59959 -5.438992,5.953846 -0.717856,1.98609 -0.02579,4.280457 -0.460744,6.241374 -3.769883,3.833082 -7.693869,7.567927 -11.368078,11.461828 -1.835359,2.099907 -1.36774,5.437718 0.847112,7.065862 1.975741,1.764552 3.702913,4.706294 6.778013,4.167952 3.028602,-0.590133 4.637382,-3.466453 6.839468,-5.354657 2.418052,-2.418052 4.836105,-4.836105 7.254157,-7.254157 2.738935,-0.16784 6.060905,0.726268 8.052017,-1.739517 2.605858,-2.697873 5.429632,-5.248575 7.903784,-8.034797 1.503916,-1.600238 0.197425,-4.047827 2.815668,-3.685166 2.467042,-0.722064 3.850175,-3.123676 5.727935,-4.727424 1.834274,-2.036463 4.171747,-3.692747 5.564205,-6.068018 0.741837,-1.995318 0.0363,-4.308308 0.474745,-6.283068 3.769633,-3.822883 7.694459,-7.546545 11.367896,-11.43076 1.822191,-2.087009 1.405645,-5.437931 -0.815862,-7.065862 C 77.083469,18.617901 75.600807,15.942864 72.75,16 z m 3.3125,1.34375 c 0.03251,0.103643 0.05766,-0.04293 0,0 z m -6.625,0.03125 c 0.103643,-0.03251 -0.04293,-0.05766 0,0 z" fill="#000000" fill-opacity="1" stroke="none" opacity="0.08" inkscape:connector-curvature="0"/>
 <path d="m 72.75,17 c -0.913336,0 -1.857885,0.354105 -2.5625,1.0625 -0.0063,0.0063 -0.02498,-0.0064 -0.03125,0 l -11.625,11.65625 -4.78125,0 c -0.940982,-0.0076 -1.879022,0.348878 -2.59375,1.0625 l -8.09375,8.0625 0,0.03125 c -1.428112,1.418955 -1.450836,3.76311 -0.03125,5.1875 -0.655239,-0.654697 -1.560348,-1.105906 -2.59375,-1.09375 0.01775,-2.09e-4 -0.0167,-0.0011 -0.0625,0 -0.981903,0.01934 -1.852151,0.446899 -2.5,1.09375 l -8.125,8.09375 c -0.713719,0.714825 -1.070014,1.65299 -1.0625,2.59375 l 0,4.78125 -11.625,11.625 0,0.03125 c -1.422895,1.4138 -1.422895,3.74245 0,5.15625 0.0064,0.0063 -0.0064,0.02496 0,0.03125 l 3.59375,3.5625 c 1.4138,1.422895 3.74245,1.422895 5.15625,0 l 0.03125,0 11.625,-11.625 4.78125,0 c 0.940982,0.0076 1.879022,-0.348878 2.59375,-1.0625 l 8.09375,-8.09375 0,-0.03125 c 1.418648,-1.40958 1.441428,-3.741251 0.03125,-5.15625 0.700794,0.700216 1.630699,1.074887 2.59375,1.0625 -0.01193,9.9e-5 0.02373,7.15e-4 0.0625,0 0.907768,-0.01676 1.805503,-0.369071 2.5,-1.0625 l 8.125,-8.125 c 0.686013,-0.687077 1.070162,-1.603137 1.0625,-2.5625 l 0,-4.8125 11.625,-11.59375 0,-0.03125 c 1.432388,-1.423204 1.432388,-3.764296 0,-5.1875 L 75.375,18.0625 c -0.0064,-0.0066 -0.02477,0.0065 -0.03125,0 C 74.612306,17.327488 73.643844,17 72.75,17 z" fill="#000000" fill-opacity="1" stroke="none" opacity="0.1" inkscape:connector-curvature="0"/>
 <path d="m 72.75,17.90625 c -0.710373,0 -1.417375,0.250005 -1.9375,0.78125 L 58.875,30.625 l -5.125,0 c -0.728573,-0.0059 -1.433067,0.246396 -1.96875,0.78125 L 43.6875,39.5 c -1.111079,1.087823 -1.111079,2.849677 0,3.9375 l 9.90625,9.90625 c 0.518965,0.518537 1.236014,0.790675 1.96875,0.78125 0.0099,-8.2e-5 0.02138,1.82e-4 0.03125,0 0.701873,-0.01296 1.390889,-0.266682 1.90625,-0.78125 l 8.125,-8.125 c 0.511925,-0.512719 0.787065,-1.209418 0.78125,-1.9375 l 0,-5.15625 11.90625,-11.90625 c 1.111079,-1.087823 1.111079,-2.849677 0,-3.9375 L 74.71875,18.6875 C 74.175733,18.132873 73.460373,17.90625 72.75,17.90625 z M 40.40625,43.875 C 39.659845,43.8897 38.992253,44.196005 38.5,44.6875 l -8.125,8.09375 c -0.534885,0.535714 -0.787068,1.240301 -0.78125,1.96875 l 0,5.125 -11.90625,11.9375 c -1.099388,1.076376 -1.099388,2.829874 0,3.90625 l 3.59375,3.59375 c 1.076376,1.099388 2.829874,1.099388 3.90625,0 l 11.9375,-11.90625 5.125,0 c 0.728573,0.0059 1.433067,-0.246396 1.96875,-0.78125 L 52.3125,58.5 c 1.099388,-1.076376 1.099388,-2.829874 0,-3.90625 L 42.40625,44.6875 c -0.496795,-0.496384 -1.193243,-0.821622 -1.96875,-0.8125 -0.01054,1.24e-4 -0.02067,-2.54e-4 -0.03125,0 z" fill="#000000" fill-opacity="1" stroke="none" opacity="0.15"/>
 <path d="m 72.75,18.90625 c -0.458475,0 -0.896962,0.171332 -1.21875,0.5 L 59.3125,31.625 l -5.5625,0 c -0.45801,-0.0037 -0.925877,0.176379 -1.25,0.5 l -8.09375,8.09375 c -0.657336,0.643577 -0.657336,1.856423 0,2.5 L 54.3125,52.625 c 0.330688,0.330415 0.782663,0.511205 1.25,0.5 0.448625,-0.0037 0.901269,-0.183008 1.21875,-0.5 l 8.125,-8.125 c 0.323621,-0.324123 0.503658,-0.76074 0.5,-1.21875 l 0,-5.59375 L 77.59375,25.5 c 0.657336,-0.643577 0.657336,-1.856423 0,-2.5 L 74,19.40625 c -0.321788,-0.328668 -0.791525,-0.5 -1.25,-0.5 z M 40.4375,44.875 c -0.448625,0.0037 -0.901269,0.214258 -1.21875,0.53125 L 31.09375,53.5 c -0.323621,0.324123 -0.503658,0.79199 -0.5,1.25 l 0,5.5625 -12.1875,12.21875 c -0.657336,0.643577 -0.657336,1.825173 0,2.46875 L 22,78.59375 c 0.643577,0.657336 1.825173,0.657336 2.46875,0 l 12.21875,-12.1875 5.5625,0 c 0.45801,0.0037 0.925877,-0.176379 1.25,-0.5 l 8.09375,-8.125 c 0.657336,-0.643577 0.657336,-1.825173 0,-2.46875 L 41.6875,45.40625 c -0.330688,-0.330415 -0.782663,-0.542455 -1.25,-0.53125 z" fill="#000000" fill-opacity="1" stroke="none" opacity="0.3" inkscape:connector-curvature="0"/>
 <path d="m -74,16.9375 c -3.316401,0 -6.0625,2.746099 -6.0625,6.0625 l 0,50 c 0,3.316401 2.746099,6.0625 6.0625,6.0625 l 50,0 c 3.316401,0 6.0625,-2.746099 6.0625,-6.0625 l 0,-50 c 0,-3.316401 -2.746099,-6.0625 -6.0625,-6.0625 l -50,0 z" stroke-width="1" display="inline" fill="#000000" color="#000000" fill-opacity="1" fill-rule="nonzero" stroke="none" opacity="0.08" visibility="visible" transform="matrix(0 -1 1 0 -90 0)"/>
 <path d="m -74,17.9375 c -2.773313,0 -5.0625,2.289187 -5.0625,5.0625 l 0,50 c 0,2.773313 2.289187,5.0625 5.0625,5.0625 l 50,0 c 2.773313,0 5.0625,-2.289187 5.0625,-5.0625 l 0,-50 c 0,-2.773313 -2.289187,-5.0625 -5.0625,-5.0625 l -50,0 z" stroke-width="1" display="inline" fill="#000000" color="#000000" fill-opacity="1" fill-rule="nonzero" stroke="none" opacity="0.1" visibility="visible" transform="matrix(0 -1 1 0 -90 0)"/>
 <path d="m -74,19 c -2.191679,0 -4,1.808321 -4,4 l 0,50 c 0,2.191679 1.808321,4 4,4 l 50,0 c 2.191679,0 4,-1.808321 4,-4 l 0,-50 c 0,-2.191679 -1.808321,-4 -4,-4 l -50,0 z" stroke-width="1" display="inline" fill="#000000" color="#000000" fill-opacity="1" fill-rule="nonzero" stroke="none" opacity="0.15" visibility="visible" transform="matrix(0 -1 1 0 -90 0)"/>
 <path d="m -49.794671,45.02716 c -0.970839,0.137402 -1.8902,0.61226 -2.562356,1.323458 l -6.073728,6.050096 c -0.81477,0.784822 -1.302958,1.896342 -1.328631,3.025049 l 0,6.050097 c -3.43e-4,0.0315 -3.43e-4,0.06303 0,0.09453 l -11.360928,11.204887 c -1.189652,1.185024 -1.189652,3.163485 0,4.348509 1.189655,1.185021 3.175842,1.185021 4.365494,0 l 11.360927,-11.299424 6.073731,0 c 1.133116,-0.0255 2.24898,-0.51186 3.036866,-1.323457 l 6.073731,-6.050097 c 1.559152,-1.601306 1.559152,-4.448791 0,-6.050097 l -6.073731,-6.050093 c -0.895174,-0.930345 -2.222147,-1.43049 -3.511375,-1.323458 z" display="inline" fill="#ffffff" fill-opacity="1" stroke="none" opacity="0.3" inkscape:connector-curvature="0"/>
 <path d="m -34.230434,50.997945 c 0.970836,-0.137402 1.890199,-0.61226 2.562353,-1.323457 l 6.073731,-6.050097 c 0.814769,-0.784822 1.302958,-1.896342 1.328628,-3.025049 l 0,-6.050096 c 3.45e-4,-0.0315 3.45e-4,-0.06303 0,-0.09453 l 11.36093,-11.204888 c 1.189652,-1.185024 1.189652,-3.163485 0,-4.348509 -1.189655,-1.185023 -3.175841,-1.185023 -4.365493,0 l -11.360931,11.299424 -6.073728,0 c -1.133119,0.0255 -2.248979,0.51186 -3.036865,1.323457 l -6.073731,6.050097 c -1.559153,1.601306 -1.559153,4.448791 0,6.050097 l 6.073731,6.050094 c 0.895174,0.930344 2.222147,1.430486 3.511375,1.323457 z" display="inline" fill="#ffffff" fill-opacity="1" stroke="none" opacity="0.3" inkscape:connector-curvature="0"/>
 <path d="m 72.75,17.90625 c -0.458475,0 -0.896962,0.171332 -1.21875,0.5 L 59.3125,30.625 l -5.5625,0 c -0.45801,-0.0037 -0.925877,0.176379 -1.25,0.5 l -8.09375,8.09375 c -0.657336,0.643577 -0.657336,1.856423 0,2.5 L 54.3125,51.625 c 0.330688,0.330415 0.782663,0.511205 1.25,0.5 0.448625,-0.0037 0.901269,-0.183008 1.21875,-0.5 l 8.125,-8.125 c 0.323621,-0.324123 0.503658,-0.76074 0.5,-1.21875 l 0,-5.59375 L 77.59375,24.5 c 0.657336,-0.643577 0.657336,-1.856423 0,-2.5 L 74,18.40625 c -0.321788,-0.328668 -0.791525,-0.5 -1.25,-0.5 z M 40.4375,43.875 c -0.448625,0.0037 -0.901269,0.214258 -1.21875,0.53125 L 31.09375,52.5 c -0.323621,0.324123 -0.503658,0.79199 -0.5,1.25 l 0,5.5625 -12.1875,12.21875 c -0.657336,0.643577 -0.657336,1.825173 0,2.46875 L 22,77.59375 c 0.643577,0.657336 1.825173,0.657336 2.46875,0 l 12.21875,-12.1875 5.5625,0 c 0.45801,0.0037 0.925877,-0.176379 1.25,-0.5 l 8.09375,-8.125 c 0.657336,-0.643577 0.657336,-1.825173 0,-2.46875 L 41.6875,44.40625 c -0.330688,-0.330415 -0.782663,-0.542455 -1.25,-0.53125 z" fill="url(#linearGradient3832)" fill-opacity="1" stroke="none" inkscape:connector-curvature="0"/>
 <path d="m 72.75,17.90625 c -0.458475,0 -0.896962,0.171332 -1.21875,0.5 L 59.3125,30.625 l -5.5625,0 c -0.45801,-0.0037 -0.925877,0.176379 -1.25,0.5 l -8.09375,8.09375 c -0.447494,0.438127 -0.599286,1.14343 -0.4375,1.75 0.07587,-0.284437 0.227658,-0.54455 0.4375,-0.75 L 52.5,32.125 c 0.324123,-0.323621 0.79199,-0.5037 1.25,-0.5 l 5.5625,0 12.21875,-12.21875 c 0.321788,-0.328668 0.760275,-0.5 1.21875,-0.5 0.458475,0 0.928212,0.171332 1.25,0.5 L 77.59375,23 c 0.209842,0.20545 0.361634,0.465563 0.4375,0.75 0.161786,-0.60657 0.01,-1.311873 -0.4375,-1.75 L 74,18.40625 c -0.321788,-0.328668 -0.791525,-0.5 -1.25,-0.5 z M 40.4375,43.875 c -0.448625,0.0037 -0.901269,0.214258 -1.21875,0.53125 L 31.09375,52.5 c -0.323621,0.324123 -0.503658,0.79199 -0.5,1.25 l 0,1 c -0.0037,-0.45801 0.176379,-0.925877 0.5,-1.25 l 8.125,-8.09375 c 0.317481,-0.316992 0.770125,-0.52755 1.21875,-0.53125 0.467337,-0.0112 0.919312,0.200835 1.25,0.53125 l 9.90625,9.90625 c 0.207946,0.203593 0.32987,0.472788 0.40625,0.75 0.177272,-0.605364 0.05009,-1.303209 -0.40625,-1.75 L 41.6875,44.40625 C 41.356812,44.075835 40.904837,43.863795 40.4375,43.875 z M 30.59375,59.3125 18.40625,71.53125 C 17.95686,71.971234 17.834935,72.650919 18,73.25 c 0.07808,-0.266628 0.205257,-0.521964 0.40625,-0.71875 l 12.1875,-12.21875 0,-1 z" fill="#ffffff" fill-opacity="1" stroke="none" opacity="0.75" inkscape:connector-curvature="0"/>
 <path d="m 78.03125,22.75 c -0.07587,0.284437 -0.227658,0.54455 -0.4375,0.75 l -12.1875,12.1875 0,1 L 77.59375,24.5 c 0.447494,-0.438127 0.599286,-1.14343 0.4375,-1.75 z m -34.0625,17.21875 c -0.161786,0.60657 -0.01,1.311873 0.4375,1.75 L 54.3125,51.625 c 0.330688,0.330415 0.782663,0.511205 1.25,0.5 0.448625,-0.0037 0.901269,-0.183008 1.21875,-0.5 l 8.125,-8.125 c 0.323621,-0.324123 0.503658,-0.76074 0.5,-1.21875 l 0,-1 c 0.0037,0.45801 -0.176379,0.894627 -0.5,1.21875 l -8.125,8.125 c -0.317481,0.316992 -0.770125,0.4963 -1.21875,0.5 -0.467337,0.0112 -0.919312,-0.169585 -1.25,-0.5 l -9.90625,-9.90625 c -0.209842,-0.20545 -0.361634,-0.465563 -0.4375,-0.75 z M 52,55.0625 c -0.07808,0.266628 -0.205257,0.521964 -0.40625,0.71875 L 43.5,63.90625 c -0.324123,0.323621 -0.79199,0.5037 -1.25,0.5 l -5.5625,0 -12.21875,12.1875 c -0.643577,0.657336 -1.825173,0.657336 -2.46875,0 L 18.40625,73 C 18.198304,72.796407 18.07638,72.527212 18,72.25 17.822728,72.855364 17.949907,73.553209 18.40625,74 L 22,77.59375 c 0.643577,0.657336 1.825173,0.657336 2.46875,0 l 12.21875,-12.1875 5.5625,0 c 0.45801,0.0037 0.925877,-0.176379 1.25,-0.5 l 8.09375,-8.125 C 52.04314,56.341266 52.165065,55.661581 52,55.0625 z" fill="#000000" fill-opacity="1" stroke="none" opacity="0.14" inkscape:connector-curvature="0"/>
</svg>
