<?xml version="1.0" encoding="UTF-8" standalone="no"?>
<svg
   xmlns:dc="http://purl.org/dc/elements/1.1/"
   xmlns:cc="http://creativecommons.org/ns#"
   xmlns:rdf="http://www.w3.org/1999/02/22-rdf-syntax-ns#"
   xmlns:svg="http://www.w3.org/2000/svg"
   xmlns="http://www.w3.org/2000/svg"
   xmlns:sodipodi="http://sodipodi.sourceforge.net/DTD/sodipodi-0.dtd"
   xmlns:inkscape="http://www.inkscape.org/namespaces/inkscape"
   width="19pt"
   height="19pt"
   viewBox="0 0 19 19"
   version="1.1"
   id="svg193"
   inkscape:version="0.91 r13725"
   sodipodi:docname="nm-signal-50-secure.svg">
  <metadata
     id="metadata212">
    <rdf:RDF>
      <cc:Work
         rdf:about="">
        <dc:format>image/svg+xml</dc:format>
        <dc:type
           rdf:resource="http://purl.org/dc/dcmitype/StillImage" />
      </cc:Work>
    </rdf:RDF>
  </metadata>
  <defs
     id="defs210" />
  <sodipodi:namedview
     pagecolor="#ffffff"
     bordercolor="#666666"
     borderopacity="1"
     objecttolerance="10"
     gridtolerance="10"
     guidetolerance="10"
     inkscape:pageopacity="0"
     inkscape:pageshadow="2"
     inkscape:window-width="1366"
     inkscape:window-height="708"
     id="namedview208"
     showgrid="false"
     inkscape:zoom="9.9368421"
     inkscape:cx="-19.523305"
     inkscape:cy="11.875"
     inkscape:window-x="0"
     inkscape:window-y="24"
     inkscape:window-maximized="1"
     inkscape:current-layer="svg193" />
  <path
     inkscape:connector-curvature="0"
     id="path196"
     d="m 9.5,12.026771 c -0.7002927,0 -1.2633851,0.565951 -1.2633851,1.266244 0,0.700293 0.5630924,1.263385 1.2633851,1.263385 0.700293,0 1.263385,-0.563092 1.263385,-1.263385 0,-0.700293 -0.563092,-1.266244 -1.263385,-1.266244 z m 0,0.631693 c 0.3487169,0 0.631693,0.282975 0.631693,0.634551 0,0.348717 -0.2829761,0.631692 -0.631693,0.631692 -0.3487169,0 -0.6316925,-0.282975 -0.6316925,-0.631692 0,-0.351576 0.2829756,-0.634551 0.6316925,-0.634551 z m 0,0"
     style="fill:#cccccc;fill-opacity:1;fill-rule:nonzero;stroke:none" />
  <path
     inkscape:connector-curvature="0"
     id="path198"
     d="m 9.5,4.4436 c -2.6268129,0 -4.9963751,1.0575847 -6.7085198,2.7697295 L 3.2373809,7.6620884 C 4.8380503,6.0642779 7.0504044,5.0752925 9.5,5.0752925 c 2.449596,0 4.66195,0.9889854 6.262619,2.5867959 L 16.20852,7.2133295 C 14.496375,5.5011847 12.126813,4.4436 9.5,4.4436 Z m 0,0"
     style="fill:#cccccc;fill-opacity:0.50196078;fill-rule:nonzero;stroke:none" />
  <path
     inkscape:connector-curvature="0"
     id="path200"
     d="m 9.5,6.3415365 c -2.1008787,0 -3.9959571,0.8460681 -5.3679594,2.2152123 l 0.4487596,0.4459 C 5.8356109,7.7478389 7.5734805,6.9732291 9.5,6.9732291 c 1.92652,0 3.664389,0.7746098 4.9192,2.0294197 l 0.448759,-0.4459 C 13.495957,7.1876046 11.600879,6.3415365 9.5,6.3415365 Z m 0,0"
     style="fill:#cccccc;fill-opacity:0.50196078;fill-rule:nonzero;stroke:none" />
  <path
     inkscape:connector-curvature="0"
     id="path202"
     d="m 9.5,8.2366149 c -1.5749445,0 -2.9955384,0.6345507 -4.0245401,1.6606943 L 5.9213606,10.346068 C 6.8360288,9.4313999 8.0994147,8.8683075 9.5,8.8683075 c 1.311977,0 2.498187,0.4973504 3.395706,1.3119775 0.08003,0.03144 0.151491,0.07717 0.211517,0.1372 L 13.52454,9.8973092 C 12.495538,8.8711656 11.074945,8.2366149 9.5,8.2366149 Z m 0,0"
     style="fill:#cccccc;fill-opacity:1;fill-rule:nonzero;stroke:none" />
  <path
     inkscape:connector-curvature="0"
     id="path204"
     d="m 9.5,10.131693 c -1.0490103,0 -1.9979785,0.423034 -2.6839797,1.109035 l 0.4487589,0.445901 C 7.8335887,11.114961 8.6253489,10.763385 9.5,10.763385 c 0.874651,0 1.666411,0.351576 2.235221,0.923244 l 0.29155,-0.291551 0,-0.294409 C 11.357919,10.500419 10.474693,10.131693 9.5,10.131693 Z m 0,0"
     style="fill:#cccccc;fill-opacity:1;fill-rule:nonzero;stroke:none" />
  <path
     inkscape:connector-curvature="0"
     id="path206"
     d="m 12.658464,9.5 c -0.700293,0 -1.263386,0.563092 -1.263386,1.263385 l 0,1.263386 -0.631693,0 0,2.529629 3.793015,0 0,-2.529629 -0.631693,0 0,-1.263386 C 13.924707,10.063092 13.358757,9.5 12.658464,9.5 Z m 0,0.631693 c 0.351575,0 0.634551,0.282975 0.634551,0.631692 l 0,1.263386 -1.266244,0 0,-1.263386 c 0,-0.348717 0.282976,-0.631692 0.631693,-0.631692 z m -1.263386,2.526771 2.529629,0 0,1.266243 -2.529629,0 z m 0,0"
     style="fill:#f8822b;fill-opacity:1;fill-rule:nonzero;stroke:none" />
</svg>
