<?xml version="1.0" encoding="UTF-8" standalone="no"?>
<svg
   xmlns:dc="http://purl.org/dc/elements/1.1/"
   xmlns:cc="http://creativecommons.org/ns#"
   xmlns:rdf="http://www.w3.org/1999/02/22-rdf-syntax-ns#"
   xmlns:svg="http://www.w3.org/2000/svg"
   xmlns="http://www.w3.org/2000/svg"
   xmlns:sodipodi="http://sodipodi.sourceforge.net/DTD/sodipodi-0.dtd"
   xmlns:inkscape="http://www.inkscape.org/namespaces/inkscape"
   width="19pt"
   height="19pt"
   viewBox="0 0 19 19"
   version="1.1"
   id="svg254"
   inkscape:version="0.91 r13725"
   sodipodi:docname="nm-signal-100.svg">
  <metadata
     id="metadata271">
    <rdf:RDF>
      <cc:Work
         rdf:about="">
        <dc:format>image/svg+xml</dc:format>
        <dc:type
           rdf:resource="http://purl.org/dc/dcmitype/StillImage" />
      </cc:Work>
    </rdf:RDF>
  </metadata>
  <defs
     id="defs269" />
  <sodipodi:namedview
     pagecolor="#ffffff"
     bordercolor="#666666"
     borderopacity="1"
     objecttolerance="10"
     gridtolerance="10"
     guidetolerance="10"
     inkscape:pageopacity="0"
     inkscape:pageshadow="2"
     inkscape:window-width="1366"
     inkscape:window-height="708"
     id="namedview267"
     showgrid="false"
     inkscape:zoom="17.699999"
     inkscape:cx="-0.03884762"
     inkscape:cy="8.5698086"
     inkscape:window-x="0"
     inkscape:window-y="24"
     inkscape:window-maximized="1"
     inkscape:current-layer="svg254" />
  <g
     id="g14702"
     transform="matrix(0.73173457,0,0,0.73173457,2.5485216,2.5485216)"
     style="fill:#cccccc">
    <g
       id="surface1"
       style="fill:#cccccc">
      <path
         id="path257"
         d="m 9.5,12.953125 c -0.957031,0 -1.726562,0.773437 -1.726562,1.730469 0,0.957031 0.769531,1.726562 1.726562,1.726562 0.957031,0 1.726562,-0.769531 1.726562,-1.726562 0,-0.957032 -0.769531,-1.730469 -1.726562,-1.730469 z m 0,0.863281 c 0.476562,0 0.863281,0.386719 0.863281,0.867188 0,0.476562 -0.386719,0.863281 -0.863281,0.863281 -0.476562,0 -0.863281,-0.386719 -0.863281,-0.863281 0,-0.480469 0.386719,-0.867188 0.863281,-0.867188 z m 0,0"
         style="fill:#cccccc;fill-opacity:1;fill-rule:nonzero;stroke:none"
         inkscape:connector-curvature="0" />
      <path
         id="path259"
         d="m 9.5,2.589844 c -3.589844,0 -6.828125,1.445312 -9.167969,3.785156 L 0.941406,6.988281 C 3.128906,4.804688 6.152344,3.453125 9.5,3.453125 c 3.347656,0 6.371094,1.351563 8.558594,3.535156 L 18.667969,6.375 C 16.328125,4.035156 13.089844,2.589844 9.5,2.589844 Z m 0,0"
         style="fill:#cccccc;fill-opacity:1;fill-rule:nonzero;stroke:none"
         inkscape:connector-curvature="0" />
      <path
         id="path261"
         d="m 9.5,5.183594 c -2.871094,0 -5.460938,1.15625 -7.335938,3.027344 L 2.777344,8.820312 C 4.492188,7.105469 6.867188,6.046875 9.5,6.046875 c 2.632812,0 5.007812,1.058594 6.722656,2.773437 L 16.835938,8.210938 C 14.960938,6.339844 12.371094,5.183594 9.5,5.183594 Z m 0,0"
         style="fill:#cccccc;fill-opacity:1;fill-rule:nonzero;stroke:none"
         inkscape:connector-curvature="0" />
      <path
         id="path263"
         d="m 9.5,7.773438 c -2.152344,0 -4.09375,0.867187 -5.5,2.269531 l 0.609375,0.613281 c 1.25,-1.25 2.976563,-2.019531 4.890625,-2.019531 1.914062,0 3.640625,0.769531 4.890625,2.019531 L 15,10.042969 C 13.59375,8.640625 11.652344,7.773438 9.5,7.773438 Z m 0,0"
         style="fill:#cccccc;fill-opacity:1;fill-rule:nonzero;stroke:none"
         inkscape:connector-curvature="0" />
      <path
         id="path265"
         d="m 9.5,10.363281 c -1.433594,0 -2.730469,0.578125 -3.667969,1.515625 l 0.613281,0.609375 C 7.222656,11.707031 8.304688,11.226562 9.5,11.226562 c 1.195312,0 2.277344,0.480469 3.054688,1.261719 l 0.613281,-0.609375 C 12.230469,10.941406 10.933594,10.363281 9.5,10.363281 Z m 0,0"
         style="fill:#cccccc;fill-opacity:1;fill-rule:nonzero;stroke:none"
         inkscape:connector-curvature="0" />
    </g>
  </g>
</svg>
