<?xml version="1.0" encoding="UTF-8" standalone="no"?>
<svg
   xmlns:dc="http://purl.org/dc/elements/1.1/"
   xmlns:cc="http://creativecommons.org/ns#"
   xmlns:rdf="http://www.w3.org/1999/02/22-rdf-syntax-ns#"
   xmlns:svg="http://www.w3.org/2000/svg"
   xmlns="http://www.w3.org/2000/svg"
   xmlns:sodipodi="http://sodipodi.sourceforge.net/DTD/sodipodi-0.dtd"
   xmlns:inkscape="http://www.inkscape.org/namespaces/inkscape"
   width="19pt"
   height="19pt"
   viewBox="0 0 19 19"
   version="1.1"
   id="svg273"
   inkscape:version="0.91 r13725"
   sodipodi:docname="nm-signal-100-secure.svg">
  <metadata
     id="metadata292">
    <rdf:RDF>
      <cc:Work
         rdf:about="">
        <dc:format>image/svg+xml</dc:format>
        <dc:type
           rdf:resource="http://purl.org/dc/dcmitype/StillImage" />
      </cc:Work>
    </rdf:RDF>
  </metadata>
  <defs
     id="defs290" />
  <sodipodi:namedview
     pagecolor="#ffffff"
     bordercolor="#666666"
     borderopacity="1"
     objecttolerance="10"
     gridtolerance="10"
     guidetolerance="10"
     inkscape:pageopacity="0"
     inkscape:pageshadow="2"
     inkscape:window-width="1366"
     inkscape:window-height="708"
     id="namedview288"
     showgrid="false"
     inkscape:zoom="9.9368421"
     inkscape:cx="-2.6165251"
     inkscape:cy="11.069915"
     inkscape:window-x="0"
     inkscape:window-y="24"
     inkscape:window-maximized="1"
     inkscape:current-layer="svg273" />
  <path
     inkscape:connector-curvature="0"
     id="path246"
     d="m 15.315244,11.5686 c -0.700293,0 -1.263386,0.563092 -1.263386,1.263385 l 0,1.263386 -0.631693,0 0,2.529629 3.793015,0 0,-2.529629 -0.631693,0 0,-1.263386 c 0,-0.700293 -0.56595,-1.263385 -1.266243,-1.263385 z m 0,0.631693 c 0.351575,0 0.634551,0.282975 0.634551,0.631692 l 0,1.263386 -1.266244,0 0,-1.263386 c 0,-0.348717 0.282976,-0.631692 0.631693,-0.631692 z m -1.263386,2.526771 2.529629,0 0,1.266243 -2.529629,0 z m 0,0"
     style="fill:#f8822b;fill-opacity:1;fill-rule:nonzero;stroke:none" />
  <path
     inkscape:connector-curvature="0"
     style="fill:#cccccc;fill-opacity:0.90196102;fill-rule:nonzero;stroke:none"
     d="m 9.5,3.9912751 c -3.2043622,0 -5.9436242,1.1959732 -7.2,2.9265099 L 3.3328863,8.065436 C 4.3869129,6.57651 6.7607381,5.5406038 9.5,5.5406038 c 2.739262,0 5.113087,1.0359062 6.167114,2.5248322 L 16.7,6.917785 C 15.443624,5.1872483 12.704362,3.9912751 9.5,3.9912751 Z m 0,3.0412754 c -2.165436,0 -4.0590604,0.8244964 -5.2489929,2.0657723 L 5.1963089,10.158389 C 6.2171139,9.2010068 7.7634226,8.5818788 9.5,8.5818788 c 1.736577,0 3.282886,0.619128 4.303691,1.5765102 L 14.748993,9.0983228 C 13.55906,7.8570469 11.665436,7.0325505 9.5,7.0325505 Z m 0,2.9265103 c -1.3167785,0 -2.5248322,0.4379192 -3.4731547,1.1476512 L 7.0053695,12.19698 C 7.7211411,11.768121 8.5818792,11.508389 9.5,11.508389 c 0.918121,0 1.778859,0.259732 2.494631,0.688591 l 0.978524,-1.090268 C 12.024832,10.39698 10.816778,9.9590608 9.5,9.9590608 Z m 0,3.0140942 C 8.536577,12.967155 8.1590604,13.269128 8.065436,13.344631 8.116779,13.389931 9.5,15.008725 9.5,15.008725 c 0,0 1.371141,-1.603691 1.434564,-1.664094 C 10.862081,13.272148 10.448322,12.976175 9.5,12.973155 Z m 0,0"
     id="path4140" />
</svg>
