<?xml version="1.0" encoding="UTF-8" standalone="no"?>
<svg
   xmlns:dc="http://purl.org/dc/elements/1.1/"
   xmlns:cc="http://creativecommons.org/ns#"
   xmlns:rdf="http://www.w3.org/1999/02/22-rdf-syntax-ns#"
   xmlns:svg="http://www.w3.org/2000/svg"
   xmlns="http://www.w3.org/2000/svg"
   xmlns:sodipodi="http://sodipodi.sourceforge.net/DTD/sodipodi-0.dtd"
   xmlns:inkscape="http://www.inkscape.org/namespaces/inkscape"
   width="19pt"
   height="19pt"
   viewBox="0 0 19 19"
   version="1.1"
   id="svg294"
   inkscape:version="0.91 r13725"
   sodipodi:docname="nm-vpn-lock.svg">
  <metadata
     id="metadata303">
    <rdf:RDF>
      <cc:Work
         rdf:about="">
        <dc:format>image/svg+xml</dc:format>
        <dc:type
           rdf:resource="http://purl.org/dc/dcmitype/StillImage" />
      </cc:Work>
    </rdf:RDF>
  </metadata>
  <defs
     id="defs301" />
  <sodipodi:namedview
     pagecolor="#ffffff"
     bordercolor="#666666"
     borderopacity="1"
     objecttolerance="10"
     gridtolerance="10"
     guidetolerance="10"
     inkscape:pageopacity="0"
     inkscape:pageshadow="2"
     inkscape:window-width="1366"
     inkscape:window-height="708"
     id="namedview299"
     showgrid="false"
     inkscape:zoom="9.9368421"
     inkscape:cx="-19.523305"
     inkscape:cy="11.875"
     inkscape:window-x="0"
     inkscape:window-y="24"
     inkscape:window-maximized="1"
     inkscape:current-layer="svg294" />
  <path
     inkscape:connector-curvature="0"
     id="path116"
     d="m 9.4999999,12.026771 c -0.7002927,0 -1.2633851,0.565951 -1.2633851,1.266244 0,0.700293 0.5630924,1.263385 1.2633851,1.263385 0.7002921,0 1.2633851,-0.563092 1.2633851,-1.263385 0,-0.700293 -0.563093,-1.266244 -1.2633851,-1.266244 z m 0,0.631693 c 0.3487168,0 0.6316921,0.282975 0.6316921,0.634551 0,0.348717 -0.2829753,0.631692 -0.6316921,0.631692 -0.3487169,0 -0.6316926,-0.282975 -0.6316926,-0.631692 0,-0.351576 0.2829757,-0.634551 0.6316926,-0.634551 z m 0,0"
     style="fill:#cccccc;fill-opacity:0.50196078;fill-rule:nonzero;stroke:none" />
  <path
     inkscape:connector-curvature="0"
     id="path118"
     d="m 9.4999999,4.4436 c -2.626813,0 -4.9963752,1.0575847 -6.7085199,2.7697295 L 3.2373808,7.6620884 C 4.8380501,6.0642779 7.0504042,5.0752925 9.4999999,5.0752925 c 2.4495961,0 4.6619501,0.9889854 6.2626191,2.5867959 L 16.20852,7.2133295 C 14.496375,5.5011847 12.126813,4.4436 9.4999999,4.4436 Z m 0,0"
     style="fill:#cccccc;fill-opacity:0.50196078;fill-rule:nonzero;stroke:none" />
  <path
     inkscape:connector-curvature="0"
     id="path120"
     d="m 9.4999999,6.3415365 c -2.1008788,0 -3.9959572,0.8460681 -5.3679595,2.2152125 l 0.4487597,0.4459 C 5.8356107,7.7478389 7.5734803,6.9732291 9.4999999,6.9732291 c 1.9265191,0 3.6643891,0.7746098 4.9192001,2.0294199 l 0.448759,-0.4459 C 13.495957,7.1876046 11.600879,6.3415365 9.4999999,6.3415365 Z m 0,0"
     style="fill:#cccccc;fill-opacity:0.50196078;fill-rule:nonzero;stroke:none" />
  <path
     inkscape:connector-curvature="0"
     id="path122"
     d="m 9.4999999,8.236615 c -1.5749446,0 -2.9955384,0.634551 -4.0245402,1.660694 l 0.4459008,0.448759 C 6.8360287,9.4314 8.0994145,8.868307 9.4999999,8.868307 c 1.3119771,0 2.4981871,0.497351 3.3957061,1.311978 0.08003,0.03144 0.151491,0.07717 0.211517,0.1372 L 13.52454,9.897309 C 12.495538,8.871166 11.074944,8.236615 9.4999999,8.236615 Z m 0,0"
     style="fill:#cccccc;fill-opacity:0.50196078;fill-rule:nonzero;stroke:none" />
  <path
     inkscape:connector-curvature="0"
     id="path124"
     d="m 9.4999999,10.131693 c -1.0490103,0 -1.9979786,0.423034 -2.6839798,1.109035 l 0.4487589,0.445901 c 0.5688095,-0.571668 1.3605697,-0.923244 2.2352209,-0.923244 0.8746511,0 1.6664111,0.351576 2.2352211,0.923244 l 0.29155,-0.291551 0,-0.294409 c -0.668852,-0.60025 -1.552078,-0.968976 -2.5267711,-0.968976 z m 0,0"
     style="fill:#cccccc;fill-opacity:0.50196078;fill-rule:nonzero;stroke:none" />
  <path
     inkscape:connector-curvature="0"
     id="path126"
     d="m 12.658463,9.5 c -0.700292,0 -1.263385,0.563092 -1.263385,1.263385 l 0,1.263386 -0.631693,0 0,2.529629 3.793015,0 0,-2.529629 -0.631693,0 0,-1.263386 C 13.924707,10.063092 13.358757,9.5 12.658463,9.5 Z m 0,0.631693 c 0.351576,0 0.634552,0.282975 0.634552,0.631692 l 0,1.263386 -1.266244,0 0,-1.263386 c 0,-0.348717 0.282975,-0.631692 0.631692,-0.631692 z m -1.263385,2.526771 2.529629,0 0,1.266243 -2.529629,0 z m 0,0"
     style="fill:#f8822b;fill-opacity:1;fill-rule:nonzero;stroke:none" />
</svg>
