<svg height="96" width="96" xmlns="http://www.w3.org/2000/svg" xmlns:xlink="http://www.w3.org/1999/xlink" xmlns:sodipodi="http://sodipodi.sourceforge.net/DTD/sodipodi-0.dtd" xmlns:inkscape="http://www.inkscape.org/namespaces/inkscape">
 <defs>
  <linearGradient id="linearGradient4236">
   <stop stop-color="#ffdf39" stop-opacity="1"/>
   <stop stop-color="#eb9c00" stop-opacity="0" offset="1"/>
  </linearGradient>
  <linearGradient id="linearGradient4192">
   <stop stop-color="#ffffff" stop-opacity="1"/>
   <stop stop-color="#ffffff" stop-opacity="0" offset="1"/>
  </linearGradient>
  <clipPath id="clipPath3613">
   <rect x="6" rx="6" y="6" height="84" width="84"/>
  </clipPath>
  <filter x="-0.192" y="-0.192" height="1.384" color-interpolation-filters="sRGB" id="filter3794" width="1.384">
   <feGaussianBlur stdDeviation="5.28"/>
  </filter>
  <linearGradient x2="0" xlink:href="#linearGradient4192" y1="20.221" y2="138.66" gradientUnits="userSpaceOnUse" id="linearGradient2885"/>
  <linearGradient x2="0" y1="24" y2="72" gradientUnits="userSpaceOnUse" id="linearGradient4182">
   <stop stop-color="#000000" stop-opacity="1"/>
   <stop stop-color="#393939" stop-opacity="1" offset="1"/>
  </linearGradient>
  <linearGradient x2="0" xlink:href="#linearGradient4192" y1="74" y2="32.988" gradientUnits="userSpaceOnUse" id="linearGradient4198"/>
  <linearGradient x2="0" xlink:href="#linearGradient4192" y1="72" y2="24" gradientUnits="userSpaceOnUse" id="linearGradient4222"/>
  <radialGradient cy="70" r="16" xlink:href="#linearGradient4192" gradientUnits="userSpaceOnUse" id="radialGradient4232" cx="48" gradientTransform="matrix(1.1875 0 0 0.5625 -9 27)"/>
  <linearGradient x2="0" xlink:href="#linearGradient4236" y1="68" y2="61" gradientUnits="userSpaceOnUse" id="linearGradient4242" gradientTransform="matrix(0.5 0 0 1 18 0)"/>
  <linearGradient x2="0" xlink:href="#linearGradient4236" y1="68" y2="61" gradientUnits="userSpaceOnUse" id="linearGradient4316" gradientTransform="matrix(0.5 0 0 1 22 0)"/>
  <linearGradient x2="0" xlink:href="#linearGradient4236" y1="68" y2="61" gradientUnits="userSpaceOnUse" id="linearGradient4320" gradientTransform="matrix(0.5 0 0 1 26 0)"/>
  <linearGradient x2="0" xlink:href="#linearGradient4236" y1="68" y2="61" gradientUnits="userSpaceOnUse" id="linearGradient4324" gradientTransform="matrix(0.5 0 0 1 30 0)"/>
  <linearGradient x2="0" xlink:href="#linearGradient4236" y1="68" y2="61" gradientUnits="userSpaceOnUse" id="linearGradient4328" gradientTransform="matrix(0.5 0 0 1 34 0)"/>
  <linearGradient x2="0" xlink:href="#linearGradient4236" y1="68" y2="61" gradientUnits="userSpaceOnUse" id="linearGradient4332" gradientTransform="matrix(0.5 0 0 1 38 0)"/>
  <linearGradient x2="0" xlink:href="#linearGradient4236" y1="68" y2="61" gradientUnits="userSpaceOnUse" id="linearGradient4336" gradientTransform="matrix(0.5 0 0 1 42 0)"/>
  <linearGradient x2="0" xlink:href="#linearGradient4236" y1="68" y2="61" gradientUnits="userSpaceOnUse" id="linearGradient4340" gradientTransform="matrix(0.5 0 0 1 46 0)"/>
  <linearGradient x1="11" x2="19" gradientUnits="userSpaceOnUse" id="linearGradient2927-4" gradientTransform="matrix(0 -3 2.96525 0 45.34 123)">
   <stop stop-color="#c80000" stop-opacity="1"/>
   <stop stop-color="#f3604d" stop-opacity="1" offset="1"/>
  </linearGradient>
  <linearGradient x2="0" xlink:href="#linearGradient4192" y1="8" y2="80" gradientUnits="userSpaceOnUse" id="linearGradient3892" gradientTransform="matrix(1 0 0 1 -110 0)"/>
 </defs>
 <path d="m -98,6.03125 c -3.8292,0 -6.96875,3.1395505 -6.96875,6.96875 l 0,72 c 0,3.829199 3.13955,6.96875 6.96875,6.96875 l 72,0 c 3.829199,0 6.96875,-3.139551 6.96875,-6.96875 l 0,-72 c 0,-3.8291997 -3.139551,-6.96875 -6.96875,-6.96875 l -72,0 z" fill="#000000" fill-opacity="1" fill-rule="nonzero" stroke="none" opacity="0.08" inkscape:connector-curvature="0"/>
 <path d="M 12,7 C 8.6967743,7 6,9.6967746 6,13 l 0,72 c 0,3.303225 2.6967743,6 6,6 l 72,0 c 3.303225,0 6,-2.696775 6,-6 L 90,13 C 90,9.6967745 87.303225,7 84,7 L 12,7 z" fill="#000000" fill-opacity="1" fill-rule="nonzero" stroke="none" opacity="0.1" transform="matrix(1 0 0 1 -110 0)"/>
 <path d="M 12,8 C 9.2415817,8 7,10.241582 7,13 l 0,72 c 0,2.758418 2.2415817,5 5,5 l 72,0 c 2.758418,0 5,-2.241582 5,-5 L 89,13 C 89,10.241582 86.758418,8 84,8 L 12,8 z" fill="#000000" fill-opacity="1" fill-rule="nonzero" stroke="none" opacity="0.15" transform="matrix(1 0 0 1 -110 0)"/>
 <rect x="8" rx="4" y="8" fill="#ffffff" fill-opacity="1" fill-rule="nonzero" stroke="none" height="80" opacity="0.2" width="80"/>
 <path d="m -98,8 c -2.216,0 -4,1.784 -4,4 l 0,72 c 0,1.798949 1.18443,3.275003 2.8125,3.78125 C -100.26751,87.331274 -101,86.260076 -101,85 l 0,-72 c 0,-1.680101 1.319899,-3 3,-3 l 72,0 c 1.680101,0 3,1.319899 3,3 l 0,72 c 0,1.260076 -0.732486,2.331274 -1.8125,2.78125 C -23.184428,87.275003 -22,85.798949 -22,84 l 0,-72 c 0,-2.216 -1.784,-4 -4,-4 l -72,0 z m 73.1875,79.78125 c -0.158856,0.06619 -0.327826,0.08639 -0.5,0.125 0.17333,-0.02984 0.335191,-0.07375 0.5,-0.125 z m -74.375,0 c 0.164809,0.05125 0.32667,0.09516 0.5,0.125 -0.172174,-0.03861 -0.341144,-0.05881 -0.5,-0.125 z" fill="url(#linearGradient3892)" fill-opacity="1" fill-rule="nonzero" stroke="none" opacity="0.6" inkscape:connector-curvature="0"/>
 <rect stroke="#ffffff" stroke-dasharray="none" clip-path="url(#clipPath3613)" stroke-dashoffset="0" stroke-linecap="round" height="66" stroke-linejoin="miter" stroke-miterlimit="4" stroke-opacity="1" stroke-width="0.5" width="66" fill="url(#linearGradient2885)" fill-opacity="1" opacity="0.15" x="15" fill-rule="nonzero" filter="url(#filter3794)" y="15" rx="12"/>
 <path d="M 39.8125,22.03125 A 1.9843903,1.9843903 0 0 0 38.03125,24 l 0,2.03125 -2.03125,0 A 1.9843903,1.9843903 0 0 0 34.03125,28 l 0,2.03125 -7.03125,0 c -2.726921,0 -4.96875,2.241829 -4.96875,4.96875 l 0,34 c 0,2.726921 2.241829,4.96875 4.96875,4.96875 l 42,0 c 2.726921,0 4.96875,-2.241829 4.96875,-4.96875 l 0,-34 c 0,-2.726921 -2.241829,-4.96875 -4.96875,-4.96875 l -7.03125,0 0,-2.03125 A 1.9843903,1.9843903 0 0 0 60,26.03125 l -2.03125,0 0,-2.03125 A 1.9843903,1.9843903 0 0 0 56,22.03125 l -16,0 a 1.9843903,1.9843903 0 0 0 -0.1875,0 z" stroke-width="1" display="inline" fill="url(#linearGradient4198)" color="#000000" fill-opacity="1" fill-rule="nonzero" stroke="none" opacity="0.4" visibility="visible"/>
 <path d="m 40,24 0,4 -4,0 0,4 -9,0 c -1.662,0 -3,1.338 -3,3 l 0,34 c 0,1.662 1.338,3 3,3 l 42,0 c 1.662,0 3,-1.338 3,-3 l 0,-34 c 0,-1.662 -1.338,-3 -3,-3 l -9,0 0,-4 -4,0 0,-4 -16,0 z" stroke-width="1" display="inline" fill="url(#linearGradient4182)" color="#000000" fill-opacity="1" fill-rule="nonzero" stroke="none" visibility="visible" inkscape:connector-curvature="0"/>
 <path d="m 130,24 0,4 -4,0 0,4 -9,0 c -1.662,0 -3,1.338 -3,3 l 0,34 c 0,1.662 1.338,3 3,3 l 42,0 c 1.662,0 3,-1.338 3,-3 l 0,-34 c 0,-1.662 -1.338,-3 -3,-3 l -9,0 0,-4 -4,0 0,-4 -16,0 z" stroke-width="1" display="inline" fill="#000000" color="#000000" fill-opacity="1" fill-rule="nonzero" stroke="none" visibility="visible" inkscape:connector-curvature="0"/>
 <path d="m 40,22 0,2 16,0 0,-2 -16,0 z m -4,4 0,2 4,0 0,-2 -4,0 z m 20,0 0,2 4,0 0,-2 -4,0 z m -29,4 c -1.662,0 -3,1.338 -3,3 l 0,2 c 0,-1.662 1.338,-3 3,-3 l 9,0 0,-2 -9,0 z m 33,0 0,2 9,0 c 1.662,0 3,1.338 3,3 l 0,-2 c 0,-1.662 -1.338,-3 -3,-3 l -9,0 z" stroke-width="1" display="inline" fill="#000000" color="#000000" fill-opacity="1" fill-rule="nonzero" stroke="none" opacity="0.15" visibility="visible" inkscape:connector-curvature="0"/>
 <path d="m 40,24 0,4 -4,0 0,4 -9,0 c -1.662,0 -3,1.338 -3,3 l 0,34 c 0,1.662 1.338,3 3,3 l 42,0 c 1.662,0 3,-1.338 3,-3 l 0,-34 c 0,-1.662 -1.338,-3 -3,-3 l -9,0 0,-4 -4,0 0,-4 -16,0 z m 1.96875,1.96875 12.0625,0 0,2.03125 A 1.9749666,1.9749666 0 0 0 56,29.96875 l 2.03125,0 0,2.03125 A 1.9749666,1.9749666 0 0 0 60,33.96875 l 9,0 c 0.602136,0 1.03125,0.429114 1.03125,1.03125 l 0,34 c 0,0.602136 -0.429114,1.03125 -1.03125,1.03125 l -42,0 c -0.602136,0 -1.03125,-0.429114 -1.03125,-1.03125 l 0,-34 c 0,-0.602136 0.429114,-1.03125 1.03125,-1.03125 l 9,0 A 1.9749666,1.9749666 0 0 0 37.96875,32 l 0,-2.03125 2.03125,0 A 1.9749666,1.9749666 0 0 0 41.96875,28 l 0,-2.03125 z" stroke-width="1" display="inline" fill="url(#linearGradient4222)" color="#000000" fill-opacity="1" fill-rule="nonzero" stroke="none" opacity="0.2" visibility="visible" inkscape:connector-curvature="0"/>
 <rect x="29" stroke-width="1" display="inline" y="54" fill="url(#radialGradient4232)" color="#000000" fill-opacity="1" stroke="none" fill-rule="nonzero" height="18" visibility="visible" opacity="0.2" width="38"/>
 <rect x="34" stroke-width="1" display="inline" y="61" fill="url(#linearGradient4242)" color="#000000" fill-opacity="1" fill-rule="nonzero" stroke="none" height="7" visibility="visible" width="1"/>
 <path d="m 40,23 0,1 16,0 0,-1 -16,0 z m -4,4 0,1 4,0 0,-1 -4,0 z m 20,0 0,1 4,0 0,-1 -4,0 z m -29,4 c -1.662,0 -3,1.338 -3,3 l 0,1 c 0,-1.662 1.338,-3 3,-3 l 9,0 0,-1 -9,0 z m 33,0 0,1 9,0 c 1.662,0 3,1.338 3,3 l 0,-1 c 0,-1.662 -1.338,-3 -3,-3 l -9,0 z" stroke-width="1" display="inline" fill="#000000" color="#000000" fill-opacity="1" fill-rule="nonzero" stroke="none" opacity="0.3" visibility="visible" inkscape:connector-curvature="0"/>
 <rect x="38" stroke-width="1" display="inline" y="61" fill="url(#linearGradient4316)" color="#000000" fill-opacity="1" fill-rule="nonzero" stroke="none" height="7" visibility="visible" width="1"/>
 <rect x="42" stroke-width="1" display="inline" y="61" fill="url(#linearGradient4320)" color="#000000" fill-opacity="1" fill-rule="nonzero" stroke="none" height="7" visibility="visible" width="1"/>
 <rect x="46" stroke-width="1" display="inline" y="61" fill="url(#linearGradient4324)" color="#000000" fill-opacity="1" fill-rule="nonzero" stroke="none" height="7" visibility="visible" width="1"/>
 <rect x="50" stroke-width="1" display="inline" y="61" fill="url(#linearGradient4328)" color="#000000" fill-opacity="1" fill-rule="nonzero" stroke="none" height="7" visibility="visible" width="1"/>
 <rect x="54" stroke-width="1" display="inline" y="61" fill="url(#linearGradient4332)" color="#000000" fill-opacity="1" fill-rule="nonzero" stroke="none" height="7" visibility="visible" width="1"/>
 <rect x="58" stroke-width="1" display="inline" y="61" fill="url(#linearGradient4336)" color="#000000" fill-opacity="1" fill-rule="nonzero" stroke="none" height="7" visibility="visible" width="1"/>
 <rect x="62" stroke-width="1" display="inline" y="61" fill="url(#linearGradient4340)" color="#000000" fill-opacity="1" fill-rule="nonzero" stroke="none" height="7" visibility="visible" width="1"/>
 <path d="m 53.84375,-38.96875 c 7.23e-4,-8.4e-5 -0.09447,0.03137 -0.09375,0.03125 7.18e-4,-1.2e-4 -0.09446,1.55e-4 -0.09375,0 7.11e-4,-1.55e-4 -0.09445,0.03144 -0.09375,0.03125 0.001,-2.62e-4 -0.126005,0.03158 -0.125,0.03125 0.001,-3.35e-4 -0.125978,0.06291 -0.125,0.0625 9.78e-4,-4.08e-4 -0.157196,0.06298 -0.15625,0.0625 9.46e-4,-4.78e-4 -0.125908,0.06305 -0.125,0.0625 9.08e-4,-5.45e-4 -0.09462,0.09436 -0.09375,0.09375 8.66e-4,-6.1e-4 -0.12582,0.06317 -0.125,0.0625 8.2e-4,-6.71e-4 -0.09452,0.09448 -0.09375,0.09375 5.77e-4,-5.47e-4 -0.06575,0.06523 -0.09375,0.09375 -0.0093,0.0095 -0.03143,0.03145 -0.03125,0.03125 l -6,6.0625 c 9.53e-4,-0.001 -0.125853,0.157339 -0.125,0.15625 8.53e-4,-0.0011 -0.0945,0.126165 -0.09375,0.125 7.46e-4,-0.0012 -0.09438,0.15748 -0.09375,0.15625 6.32e-4,-0.0012 -0.09426,0.188785 -0.09375,0.1875 5.13e-4,-0.0013 -0.06289,0.157577 -0.0625,0.15625 3.89e-4,-0.0013 -0.03151,0.188858 -0.03125,0.1875 2.61e-4,-0.0014 -0.03138,0.188877 -0.03125,0.1875 1.31e-4,-0.0014 0,0.188883 0,0.1875 0,-0.0014 1.31e-4,0.188877 0,0.1875 -1.31e-4,-0.0014 0.03151,0.188858 0.03125,0.1875 -2.61e-4,-0.0014 0.03164,0.188827 0.03125,0.1875 -3.89e-4,-0.0013 0.06301,0.157535 0.0625,0.15625 -5.13e-4,-0.0013 0.09438,0.18873 0.09375,0.1875 -6.32e-4,-0.0012 0.0945,0.157415 0.09375,0.15625 -7.46e-4,-0.0012 0.0946,0.126089 0.09375,0.125 -8.53e-4,-0.0011 0.125953,0.157253 0.125,0.15625 l 4.5,4.5625 -4.5,4.5625 c 9.53e-4,-0.001 -0.125853,0.157339 -0.125,0.15625 8.53e-4,-0.0011 -0.0945,0.126165 -0.09375,0.125 7.46e-4,-0.0012 -0.09438,0.15748 -0.09375,0.15625 6.32e-4,-0.0012 -0.09426,0.188785 -0.09375,0.1875 5.13e-4,-0.0013 -0.06289,0.157577 -0.0625,0.15625 3.89e-4,-0.0013 -0.03151,0.188858 -0.03125,0.1875 2.61e-4,-0.0014 -0.03138,0.188877 -0.03125,0.1875 1.31e-4,-0.0014 0,0.188883 0,0.1875 0,-0.0014 1.31e-4,0.188877 0,0.1875 -1.31e-4,-0.0014 0.03151,0.188858 0.03125,0.1875 -2.61e-4,-0.0014 0.03164,0.188827 0.03125,0.1875 -3.89e-4,-0.0013 0.06301,0.157535 0.0625,0.15625 -5.13e-4,-0.0013 0.09438,0.18873 0.09375,0.1875 -6.32e-4,-0.0012 0.0945,0.157415 0.09375,0.15625 -7.46e-4,-0.0012 0.0946,0.126089 0.09375,0.125 -8.53e-4,-0.0011 0.125953,0.157253 0.125,0.15625 l 6.03125,6.09375 c -9.87e-4,-0.001 0.126082,0.125927 0.125,0.125 -0.0011,-9.27e-4 0.157418,0.125817 0.15625,0.125 -0.0012,-8.17e-4 0.157492,0.09445 0.15625,0.09375 -0.0012,-6.99e-4 0.188805,0.09432 0.1875,0.09375 -0.0013,-5.74e-4 0.188854,0.06294 0.1875,0.0625 -0.0014,-4.44e-4 0.157641,0.06281 0.15625,0.0625 -0.0014,-3.1e-4 0.188915,0.03142 0.1875,0.03125 -0.0014,-1.72e-4 0.220175,3.3e-5 0.21875,0 -0.0014,-3.3e-5 0.188921,-1.06e-4 0.1875,0 -0.0014,1.06e-4 0.188904,-0.03149 0.1875,-0.03125 -0.0014,2.45e-4 0.188874,-0.03163 0.1875,-0.03125 -0.0014,3.81e-4 0.15758,-0.06301 0.15625,-0.0625 -0.0013,5.13e-4 0.188773,-0.06314 0.1875,-0.0625 -0.0013,6.41e-4 0.157455,-0.09451 0.15625,-0.09375 -0.0012,7.62e-4 0.157374,-0.125876 0.15625,-0.125 -0.0011,8.76e-4 0.157283,-0.125982 0.15625,-0.125 l 4.59375,-4.5625 4.40625,4.5 c -5.08e-4,-5.29e-4 0.06303,0.063 0.0625,0.0625 -5.34e-4,-5.03e-4 0.09431,0.06298 0.09375,0.0625 -5.59e-4,-4.76e-4 0.06308,0.06295 0.0625,0.0625 -5.82e-4,-4.47e-4 0.09435,0.06292 0.09375,0.0625 -6.04e-4,-4.17e-4 0.06312,0.06289 0.0625,0.0625 -6.24e-4,-3.86e-4 0.09439,0.06285 0.09375,0.0625 -6.43e-4,-3.54e-4 0.09441,0.03157 0.09375,0.03125 -6.6e-4,-3.21e-4 0.09443,0.03154 0.09375,0.03125 -6.75e-4,-2.88e-4 0.06319,0.0315 0.0625,0.03125 -6.89e-4,-2.53e-4 0.09445,0.03147 0.09375,0.03125 -7e-4,-2.18e-4 0.09446,0.03143 0.09375,0.03125 -7.11e-4,-1.83e-4 0.125719,0.0314 0.125,0.03125 -7.19e-4,-1.47e-4 0.09448,0.03136 0.09375,0.03125 -7.25e-4,-1.1e-4 0.09448,7.4e-5 0.09375,0 -7.3e-4,-7.4e-5 0.09448,3.7e-5 0.09375,0 -7.33e-4,-3.7e-5 0.09448,0 0.09375,0 -7.34e-4,0 0.09448,-3.7e-5 0.09375,0 -7.33e-4,3.7e-5 0.09448,-7.4e-5 0.09375,0 -7.3e-4,7.4e-5 0.09448,-1.1e-4 0.09375,0 -7.25e-4,1.1e-4 0.09447,-0.0314 0.09375,-0.03125 -7.19e-4,1.47e-4 0.125711,-0.03143 0.125,-0.03125 -7.11e-4,1.83e-4 0.09445,-0.03147 0.09375,-0.03125 -7e-4,2.18e-4 0.09444,-0.0315 0.09375,-0.03125 -6.89e-4,2.53e-4 0.06318,-0.03154 0.0625,-0.03125 -6.75e-4,2.88e-4 0.09441,-0.03157 0.09375,-0.03125 -6.6e-4,3.21e-4 0.09439,-0.0316 0.09375,-0.03125 -6.43e-4,3.54e-4 0.09437,-0.06289 0.09375,-0.0625 -6.24e-4,3.86e-4 0.0631,-0.06292 0.0625,-0.0625 -6.04e-4,4.17e-4 0.09433,-0.06295 0.09375,-0.0625 -5.82e-4,4.47e-4 0.06306,-0.06298 0.0625,-0.0625 -5.59e-4,4.76e-4 0.09428,-0.063 0.09375,-0.0625 -5.34e-4,5.03e-4 0.06301,-0.06303 0.0625,-0.0625 l 6.21875,-6.28125 c -9.82e-4,0.001 0.125876,-0.157374 0.125,-0.15625 -8.76e-4,0.0011 0.125762,-0.157455 0.125,-0.15625 -7.62e-4,0.0012 0.09439,-0.157523 0.09375,-0.15625 -6.41e-4,0.0013 0.06301,-0.18883 0.0625,-0.1875 -5.13e-4,0.0013 0.06288,-0.157624 0.0625,-0.15625 -3.81e-4,0.0014 0.0315,-0.188904 0.03125,-0.1875 -2.45e-4,0.0014 0.03136,-0.188921 0.03125,-0.1875 -1.06e-4,0.0014 -3.3e-5,-0.188925 0,-0.1875 3.3e-5,0.0014 -1.72e-4,-0.220165 0,-0.21875 1.72e-4,0.0014 -0.03156,-0.188891 -0.03125,-0.1875 3.1e-4,0.0014 -0.06294,-0.157604 -0.0625,-0.15625 4.44e-4,0.0014 -0.06307,-0.188805 -0.0625,-0.1875 5.74e-4,0.0013 -0.09445,-0.188742 -0.09375,-0.1875 6.99e-4,0.0012 -0.09457,-0.157418 -0.09375,-0.15625 8.17e-4,0.0012 -0.125927,-0.157332 -0.125,-0.15625 9.27e-4,0.0011 -0.126029,-0.125987 -0.125,-0.125 L 68.9375,-25 l 4.40625,-4.3125 c -0.001,9.87e-4 0.125927,-0.126082 0.125,-0.125 -9.27e-4,0.0011 0.125817,-0.157418 0.125,-0.15625 -8.17e-4,0.0012 0.09445,-0.157492 0.09375,-0.15625 -6.99e-4,0.0012 0.09432,-0.188805 0.09375,-0.1875 -5.74e-4,0.0013 0.06294,-0.188854 0.0625,-0.1875 -4.44e-4,0.0014 0.06281,-0.157641 0.0625,-0.15625 -3.1e-4,0.0014 0.03142,-0.188915 0.03125,-0.1875 -1.72e-4,0.0014 3.3e-5,-0.220175 0,-0.21875 -3.3e-5,0.0014 -1.06e-4,-0.188921 0,-0.1875 1.06e-4,0.0014 -0.0315,-0.188904 -0.03125,-0.1875 2.45e-4,0.0014 -0.03163,-0.188874 -0.03125,-0.1875 3.81e-4,0.0014 -0.06301,-0.15758 -0.0625,-0.15625 5.13e-4,0.0013 -0.06314,-0.188773 -0.0625,-0.1875 6.41e-4,0.0013 -0.09451,-0.157455 -0.09375,-0.15625 7.62e-4,0.0012 -0.125876,-0.157374 -0.125,-0.15625 8.76e-4,0.0011 -0.125982,-0.157283 -0.125,-0.15625 l -6.21875,-6.28125 c 5.08e-4,5.29e-4 -0.06303,-0.063 -0.0625,-0.0625 5.34e-4,5.03e-4 -0.09431,-0.06298 -0.09375,-0.0625 5.59e-4,4.76e-4 -0.06308,-0.06295 -0.0625,-0.0625 5.82e-4,4.47e-4 -0.09435,-0.06292 -0.09375,-0.0625 6.04e-4,4.17e-4 -0.06312,-0.06289 -0.0625,-0.0625 6.24e-4,3.86e-4 -0.09439,-0.06285 -0.09375,-0.0625 6.43e-4,3.54e-4 -0.09441,-0.03157 -0.09375,-0.03125 6.6e-4,3.21e-4 -0.09443,-0.03154 -0.09375,-0.03125 6.75e-4,2.88e-4 -0.06319,-0.0315 -0.0625,-0.03125 6.89e-4,2.53e-4 -0.09445,-0.03147 -0.09375,-0.03125 7e-4,2.18e-4 -0.09446,-0.03143 -0.09375,-0.03125 7.11e-4,1.83e-4 -0.125719,-0.0314 -0.125,-0.03125 7.19e-4,1.47e-4 -0.09448,-0.03136 -0.09375,-0.03125 7.25e-4,1.1e-4 -0.09448,-7.4e-5 -0.09375,0 7.3e-4,7.4e-5 -0.09448,-3.7e-5 -0.09375,0 7.33e-4,3.7e-5 -0.09448,0 -0.09375,0 7.34e-4,0 -0.09448,3.7e-5 -0.09375,0 7.33e-4,-3.7e-5 -0.09448,7.4e-5 -0.09375,0 7.3e-4,-7.4e-5 -0.09448,1.1e-4 -0.09375,0 7.25e-4,-1.1e-4 -0.09447,0.0314 -0.09375,0.03125 7.19e-4,-1.47e-4 -0.125711,0.03143 -0.125,0.03125 7.11e-4,-1.83e-4 -0.09445,0.03147 -0.09375,0.03125 7e-4,-2.18e-4 -0.09444,0.0315 -0.09375,0.03125 6.89e-4,-2.53e-4 -0.06318,0.03154 -0.0625,0.03125 6.75e-4,-2.88e-4 -0.09441,0.03157 -0.09375,0.03125 6.6e-4,-3.21e-4 -0.09439,0.0316 -0.09375,0.03125 6.43e-4,-3.54e-4 -0.09437,0.06289 -0.09375,0.0625 6.24e-4,-3.86e-4 -0.0631,0.06292 -0.0625,0.0625 6.04e-4,-4.17e-4 -0.09433,0.06295 -0.09375,0.0625 5.82e-4,-4.47e-4 -0.06306,0.06298 -0.0625,0.0625 5.59e-4,-4.76e-4 -0.09428,0.063 -0.09375,0.0625 5.34e-4,-5.03e-4 -0.06301,0.06303 -0.0625,0.0625 l -4.40625,4.5 -4.5625,-4.53125 c 1.71e-4,1.72e-4 -0.02075,-0.0212 -0.03125,-0.03125 -0.021,-0.0201 -0.06286,-0.06283 -0.0625,-0.0625 5.39e-4,4.91e-4 -0.06306,-0.06296 -0.0625,-0.0625 5.63e-4,4.63e-4 -0.06309,-0.06294 -0.0625,-0.0625 5.85e-4,4.35e-4 -0.09436,-0.03166 -0.09375,-0.03125 6.06e-4,4.05e-4 -0.09438,-0.06287 -0.09375,-0.0625 6.26e-4,3.74e-4 -0.06314,-0.06284 -0.0625,-0.0625 6.44e-4,3.42e-4 -0.09441,-0.03156 -0.09375,-0.03125 6.6e-4,3.09e-4 -0.09443,-0.03153 -0.09375,-0.03125 6.75e-4,2.76e-4 -0.09444,-0.03149 -0.09375,-0.03125 6.88e-4,2.42e-4 -0.09445,-0.03146 -0.09375,-0.03125 6.99e-4,2.07e-4 -0.09446,-0.03142 -0.09375,-0.03125 7.08e-4,1.72e-4 -0.09447,-0.03139 -0.09375,-0.03125 7.16e-4,1.36e-4 -0.09447,-1e-4 -0.09375,0 7.22e-4,1e-4 -0.09448,-0.03131 -0.09375,-0.03125 7.26e-4,6.4e-5 -0.09448,-2.8e-5 -0.09375,0 7.28e-4,2.8e-5 -0.09448,9e-6 -0.09375,0 a 0.9965754,0.9965754 0 0 0 -0.0625,0 c 7.26e-4,-4.7e-5 -0.09447,8.4e-5 -0.09375,0 z" display="inline" fill="#000000" fill-opacity="1" fill-rule="evenodd" stroke="none" opacity="0.1" transform="matrix(1 0 0 1 18 104)"/>
 <path d="m 53.8125,-37.9375 a 0.95278301,0.95278301 0 0 0 -0.46875,0.28125 l -6.03125,6.09375 a 0.95278301,0.95278301 0 0 0 0,1.3125 L 52.5,-25 l -5.1875,5.25 a 0.95278301,0.95278301 0 0 0 0,1.3125 l 6.03125,6.09375 a 0.95278301,0.95278301 0 0 0 1.34375,0.03125 l 5.28125,-5.25 5.125,5.21875 a 0.95278301,0.95278301 0 0 0 1.375,0 L 72.6875,-18.625 a 0.95278301,0.95278301 0 0 0 -0.03125,-1.34375 L 67.5,-25 72.65625,-30.03125 A 0.95278301,0.95278301 0 0 0 72.6875,-31.375 l -6.21875,-6.28125 a 0.95278301,0.95278301 0 0 0 -1.375,0 l -5.125,5.21875 -5.28125,-5.25 a 0.95278301,0.95278301 0 0 0 -0.875,-0.25 z" display="inline" fill="#000000" fill-opacity="1" fill-rule="evenodd" stroke="none" opacity="0.15" transform="matrix(1 0 0 1 18 104)"/>
 <path d="M 66.000004,84.906252 72.023169,91 77.953669,85.093752 83.791502,91 90,84.718752 84.16216,79.000002 90,73.281252 83.791502,67 77.953669,72.90625 72.023169,67 l -6.023165,6.093751 5.837841,5.906251 -5.837841,5.90625 z" display="inline" fill="#000000" fill-opacity="1" fill-rule="evenodd" stroke="none" opacity="0.3" inkscape:connector-curvature="0"/>
 <path d="M 66.000004,83.906252 72.023169,90 77.953669,84.093752 83.791502,90 90,83.718752 84.16216,78.000002 90,72.281252 83.791502,66 77.953669,71.90625 72.023169,66 l -6.023165,6.093751 5.837841,5.906251 -5.837841,5.90625 z" display="inline" fill="url(#linearGradient2927-4)" fill-opacity="1" fill-rule="evenodd" stroke="none" inkscape:connector-curvature="0"/>
 <path d="m 72.031254,66 -6.03125,6.09375 1,1 L 72.031254,68 77.96875,73.90625 83.78125,68 89,73.25 90,72.28125 83.78125,66 77.96875,71.90625 72.031254,66 z m -0.194826,11.975812 -5.836424,5.930438 1,1 L 71.843754,80 71.836454,77.975812 z M 84.179069,78.023082 84.156249,80 l 4.84375,4.75 1,-1.03125 -5.820931,-5.695668 z" display="inline" fill="#ffffff" fill-opacity="1" fill-rule="evenodd" stroke="none" opacity="0.2" inkscape:connector-curvature="0"/>
</svg>
