<?xml version="1.0" encoding="UTF-8"?>
<svg xmlns="http://www.w3.org/2000/svg" xmlns:xlink="http://www.w3.org/1999/xlink" width="76pt" height="76pt" viewBox="0 0 76 76" version="1.1">
<defs>
<linearGradient id="linear0" gradientUnits="userSpaceOnUse" x1="0" y1="-2" x2="0" y2="-66" gradientTransform="matrix(0.791667,0,0,0.791667,-12.666667,71.25)">
<stop offset="0" style="stop-color:rgb(66.666667%,66.666667%,66.666667%);stop-opacity:1;"/>
<stop offset="1" style="stop-color:rgb(94.117647%,94.117647%,94.117647%);stop-opacity:1;"/>
</linearGradient>
<linearGradient id="linear1" gradientUnits="userSpaceOnUse" x1="0" y1="-2" x2="0" y2="-50" gradientTransform="matrix(0.791667,0,0,0.791667,-9.5,71.25)">
<stop offset="0" style="stop-color:rgb(66.666667%,66.666667%,66.666667%);stop-opacity:1;"/>
<stop offset="1" style="stop-color:rgb(94.117647%,94.117647%,94.117647%);stop-opacity:1;"/>
</linearGradient>
<linearGradient id="linear2" gradientUnits="userSpaceOnUse" x1="0" y1="-2" x2="0" y2="-34" gradientTransform="matrix(0.791667,0,0,0.791667,-6.333333,71.25)">
<stop offset="0" style="stop-color:rgb(66.666667%,66.666667%,66.666667%);stop-opacity:1;"/>
<stop offset="1" style="stop-color:rgb(94.117647%,94.117647%,94.117647%);stop-opacity:1;"/>
</linearGradient>
<linearGradient id="linear3" gradientUnits="userSpaceOnUse" x1="0" y1="-50" x2="0" y2="14.01" gradientTransform="matrix(0.791667,0,0,0.791667,0,58.583333)">
<stop offset="0" style="stop-color:rgb(100%,100%,100%);stop-opacity:0.6;"/>
<stop offset="1" style="stop-color:rgb(100%,100%,100%);stop-opacity:0;"/>
</linearGradient>
<linearGradient id="linear4" gradientUnits="userSpaceOnUse" x1="0" y1="-34" x2="0" y2="14.01" gradientTransform="matrix(0.791667,0,0,0.791667,0,58.583333)">
<stop offset="0" style="stop-color:rgb(100%,100%,100%);stop-opacity:0.6;"/>
<stop offset="1" style="stop-color:rgb(100%,100%,100%);stop-opacity:0;"/>
</linearGradient>
<linearGradient id="linear5" gradientUnits="userSpaceOnUse" x1="0" y1="-18" x2="0" y2="14.14" gradientTransform="matrix(0.791667,0,0,0.791667,0,58.583333)">
<stop offset="0" style="stop-color:rgb(100%,100%,100%);stop-opacity:0.6;"/>
<stop offset="1" style="stop-color:rgb(100%,100%,100%);stop-opacity:0;"/>
</linearGradient>
</defs>
<g id="surface1">
<path style=" stroke:none;fill-rule:nonzero;fill:rgb(0%,0%,0%);fill-opacity:0.0784314;" d="M 42.75 17.367188 C 39.675781 17.367188 37.160156 19.886719 37.160156 22.957031 L 37.160156 31.640625 C 36.148438 30.648438 34.765625 30.035156 33.25 30.035156 L 26.917969 30.035156 C 23.84375 30.035156 21.324219 32.550781 21.324219 35.625 L 21.324219 44.308594 C 20.3125 43.316406 18.933594 42.699219 17.417969 42.699219 L 11.082031 42.699219 C 8.011719 42.699219 5.492188 45.21875 5.492188 48.292969 L 5.492188 67.292969 C 5.492188 70.363281 8.011719 72.882812 11.082031 72.882812 L 17.417969 72.882812 C 19.464844 72.882812 21.191406 71.71875 22.167969 70.0625 C 23.140625 71.71875 24.867188 72.882812 26.917969 72.882812 L 33.25 72.882812 C 35.296875 72.882812 37.023438 71.71875 38 70.0625 C 38.976562 71.71875 40.703125 72.882812 42.75 72.882812 L 49.082031 72.882812 C 52.15625 72.882812 54.675781 70.363281 54.675781 67.292969 L 54.675781 22.957031 C 54.675781 19.886719 52.15625 17.367188 49.082031 17.367188 Z M 42.75 17.367188 "/>
<path style=" stroke:none;fill-rule:nonzero;fill:rgb(0%,0%,0%);fill-opacity:0.101961;" d="M 42.75 18.234375 C 40.152344 18.234375 38.023438 20.359375 38.023438 22.957031 L 38.023438 67.292969 C 38.023438 69.890625 40.152344 72.015625 42.75 72.015625 L 49.082031 72.015625 C 51.683594 72.015625 53.808594 69.890625 53.808594 67.292969 L 53.808594 22.957031 C 53.808594 20.359375 51.683594 18.234375 49.082031 18.234375 Z M 26.917969 30.898438 C 24.316406 30.898438 22.191406 33.027344 22.191406 35.625 L 22.191406 67.292969 C 22.191406 69.890625 24.316406 72.015625 26.917969 72.015625 L 33.25 72.015625 C 35.847656 72.015625 37.976562 69.890625 37.976562 67.292969 L 37.976562 35.625 C 37.976562 33.027344 35.847656 30.898438 33.25 30.898438 Z M 11.082031 43.566406 C 8.484375 43.566406 6.359375 45.691406 6.359375 48.292969 L 6.359375 67.292969 C 6.359375 69.890625 8.484375 72.015625 11.082031 72.015625 L 17.417969 72.015625 C 20.015625 72.015625 22.140625 69.890625 22.140625 67.292969 L 22.140625 48.292969 C 22.140625 45.691406 20.015625 43.566406 17.417969 43.566406 Z M 11.082031 43.566406 "/>
<path style=" stroke:none;fill-rule:nonzero;fill:rgb(0%,0%,0%);fill-opacity:0.14902;" d="M 42.75 18.976562 C 40.5625 18.976562 38.765625 20.769531 38.765625 22.957031 L 38.765625 67.292969 C 38.765625 69.480469 40.5625 71.273438 42.75 71.273438 L 49.082031 71.273438 C 51.269531 71.273438 53.066406 69.480469 53.066406 67.292969 L 53.066406 22.957031 C 53.066406 20.769531 51.269531 18.976562 49.082031 18.976562 Z M 26.917969 31.640625 C 24.730469 31.640625 22.933594 33.4375 22.933594 35.625 L 22.933594 67.292969 C 22.933594 69.480469 24.730469 71.273438 26.917969 71.273438 L 33.25 71.273438 C 35.4375 71.273438 37.234375 69.480469 37.234375 67.292969 L 37.234375 35.625 C 37.234375 33.4375 35.4375 31.640625 33.25 31.640625 Z M 11.082031 44.308594 C 8.894531 44.308594 7.101562 46.105469 7.101562 48.292969 L 7.101562 67.292969 C 7.101562 69.480469 8.894531 71.273438 11.082031 71.273438 L 17.417969 71.273438 C 19.605469 71.273438 21.398438 69.480469 21.398438 67.292969 L 21.398438 48.292969 C 21.398438 46.105469 19.605469 44.308594 17.417969 44.308594 Z M 11.082031 44.308594 "/>
<path style=" stroke:none;fill-rule:nonzero;fill:rgb(0%,0%,0%);fill-opacity:0.298039;" d="M 42.75 19.792969 C 40.996094 19.792969 39.582031 21.203125 39.582031 22.957031 L 39.582031 67.292969 C 39.582031 69.046875 40.996094 70.457031 42.75 70.457031 L 49.082031 70.457031 C 50.835938 70.457031 52.25 69.046875 52.25 67.292969 L 52.25 22.957031 C 52.25 21.203125 50.835938 19.792969 49.082031 19.792969 Z M 26.917969 32.457031 C 25.164062 32.457031 23.75 33.871094 23.75 35.625 L 23.75 67.292969 C 23.75 69.046875 25.164062 70.457031 26.917969 70.457031 L 33.25 70.457031 C 35.003906 70.457031 36.417969 69.046875 36.417969 67.292969 L 36.417969 35.625 C 36.417969 33.871094 35.003906 32.457031 33.25 32.457031 Z M 11.082031 45.125 C 9.328125 45.125 7.917969 46.539062 7.917969 48.292969 L 7.917969 67.292969 C 7.917969 69.046875 9.328125 70.457031 11.082031 70.457031 L 17.417969 70.457031 C 19.171875 70.457031 20.582031 69.046875 20.582031 67.292969 L 20.582031 48.292969 C 20.582031 46.539062 19.171875 45.125 17.417969 45.125 Z M 11.082031 45.125 "/>
<path style=" stroke:none;fill-rule:nonzero;fill:rgb(100%,100%,100%);fill-opacity:0.2;" d="M 58.582031 6.332031 L 64.917969 6.332031 C 66.664062 6.332031 68.082031 7.75 68.082031 9.5 L 68.082031 66.5 C 68.082031 68.25 66.664062 69.667969 64.917969 69.667969 L 58.582031 69.667969 C 56.835938 69.667969 55.417969 68.25 55.417969 66.5 L 55.417969 9.5 C 55.417969 7.75 56.835938 6.332031 58.582031 6.332031 Z M 58.582031 6.332031 "/>
<path style=" stroke:none;fill-rule:nonzero;fill:url(#linear0);" d="M 42.75 19 L 49.082031 19 C 50.832031 19 52.25 20.417969 52.25 22.167969 L 52.25 66.5 C 52.25 68.25 50.832031 69.667969 49.082031 69.667969 L 42.75 69.667969 C 41 69.667969 39.582031 68.25 39.582031 66.5 L 39.582031 22.167969 C 39.582031 20.417969 41 19 42.75 19 Z M 42.75 19 "/>
<path style=" stroke:none;fill-rule:nonzero;fill:url(#linear1);" d="M 26.917969 31.667969 L 33.25 31.667969 C 35 31.667969 36.417969 33.085938 36.417969 34.832031 L 36.417969 66.5 C 36.417969 68.25 35 69.667969 33.25 69.667969 L 26.917969 69.667969 C 25.167969 69.667969 23.75 68.25 23.75 66.5 L 23.75 34.832031 C 23.75 33.085938 25.167969 31.667969 26.917969 31.667969 Z M 26.917969 31.667969 "/>
<path style=" stroke:none;fill-rule:nonzero;fill:url(#linear2);" d="M 11.082031 44.332031 L 17.417969 44.332031 C 19.164062 44.332031 20.582031 45.75 20.582031 47.5 L 20.582031 66.5 C 20.582031 68.25 19.164062 69.667969 17.417969 69.667969 L 11.082031 69.667969 C 9.335938 69.667969 7.917969 68.25 7.917969 66.5 L 7.917969 47.5 C 7.917969 45.75 9.335938 44.332031 11.082031 44.332031 Z M 11.082031 44.332031 "/>
<path style=" stroke:none;fill-rule:nonzero;fill:url(#linear3);" d="M 42.75 19 C 40.996094 19 39.582031 20.414062 39.582031 22.167969 L 39.582031 66.5 C 39.582031 67.925781 40.519531 69.09375 41.808594 69.492188 C 40.945312 69.132812 40.351562 68.300781 40.351562 67.292969 L 40.351562 22.957031 C 40.351562 21.613281 41.40625 20.558594 42.75 20.558594 L 49.082031 20.558594 C 50.425781 20.558594 51.484375 21.613281 51.484375 22.957031 L 51.484375 67.292969 C 51.484375 68.300781 50.886719 69.132812 50.023438 69.492188 C 51.3125 69.09375 52.25 67.925781 52.25 66.5 L 52.25 22.167969 C 52.25 20.414062 50.835938 19 49.082031 19 Z M 42.75 19 "/>
<path style=" stroke:none;fill-rule:nonzero;fill:url(#linear4);" d="M 26.917969 31.667969 C 25.164062 31.667969 23.75 33.078125 23.75 34.832031 L 23.75 66.5 C 23.75 67.925781 24.6875 69.09375 25.976562 69.492188 C 25.113281 69.132812 24.515625 68.300781 24.515625 67.292969 L 24.515625 35.625 C 24.515625 34.28125 25.574219 33.226562 26.917969 33.226562 L 33.25 33.226562 C 34.59375 33.226562 35.648438 34.28125 35.648438 35.625 L 35.648438 67.292969 C 35.648438 68.300781 35.054688 69.132812 34.191406 69.492188 C 35.480469 69.09375 36.417969 67.925781 36.417969 66.5 L 36.417969 34.832031 C 36.417969 33.078125 35.003906 31.667969 33.25 31.667969 Z M 26.917969 31.667969 "/>
<path style=" stroke:none;fill-rule:nonzero;fill:url(#linear5);" d="M 11.082031 44.332031 C 9.328125 44.332031 7.917969 45.746094 7.917969 47.5 L 7.917969 66.5 C 7.917969 67.925781 8.855469 69.09375 10.144531 69.492188 C 9.28125 69.132812 8.683594 68.300781 8.683594 67.292969 L 8.683594 48.292969 C 8.683594 46.949219 9.738281 45.890625 11.082031 45.890625 L 17.417969 45.890625 C 18.761719 45.890625 19.816406 46.949219 19.816406 48.292969 L 19.816406 67.292969 C 19.816406 68.300781 19.21875 69.132812 18.355469 69.492188 C 19.644531 69.09375 20.582031 67.925781 20.582031 66.5 L 20.582031 47.5 C 20.582031 45.746094 19.171875 44.332031 17.417969 44.332031 Z M 11.082031 44.332031 "/>
</g>
</svg>
