<svg height="96" width="96" xmlns="http://www.w3.org/2000/svg" xmlns:xlink="http://www.w3.org/1999/xlink" xmlns:sodipodi="http://sodipodi.sourceforge.net/DTD/sodipodi-0.dtd" xmlns:inkscape="http://www.inkscape.org/namespaces/inkscape">
 <defs>
  <filter color-interpolation-filters="sRGB" id="filter5122">
   <feGaussianBlur stdDeviation="0.59217"/>
  </filter>
  <linearGradient id="linearGradient5044">
   <stop stop-color="#dcdcdc" stop-opacity="1"/>
   <stop stop-color="#a5a5a5" stop-opacity="1" offset="1"/>
  </linearGradient>
  <filter color-interpolation-filters="sRGB" id="filter5114">
   <feGaussianBlur stdDeviation="0.66463"/>
  </filter>
  <filter color-interpolation-filters="sRGB" id="filter3276">
   <feGaussianBlur stdDeviation="0.56242"/>
  </filter>
  <linearGradient id="linearGradient4368">
   <stop stop-color="#828282" stop-opacity="1"/>
   <stop stop-color="#5a5a5a" stop-opacity="1" offset="1"/>
  </linearGradient>
  <linearGradient id="linearGradient4360">
   <stop stop-color="#6e6e6e" stop-opacity="1"/>
   <stop stop-color="#8c8c8c" stop-opacity="1" offset="1"/>
  </linearGradient>
  <radialGradient cy="32.812" r="51.41" gradientUnits="userSpaceOnUse" id="radialGradient3354" cx="65.55" gradientTransform="matrix(0.45865 0 0 0.28169 17.666 21.19)">
   <stop stop-color="#515151" stop-opacity="1"/>
   <stop stop-color="#272727" stop-opacity="1" offset="1"/>
  </radialGradient>
  <linearGradient id="linearGradient7175">
   <stop stop-color="#000000" stop-opacity="1"/>
   <stop stop-color="#000000" stop-opacity="0" offset="1"/>
  </linearGradient>
  <linearGradient id="linearGradient7155">
   <stop stop-color="#ffffff" stop-opacity="1"/>
   <stop stop-color="#ffffff" stop-opacity="0" offset="1"/>
  </linearGradient>
  <linearGradient x2="0" y1="90" y2="5.988" gradientUnits="userSpaceOnUse" id="linearGradient3706" gradientTransform="matrix(0 1 -1 0 96 0)">
   <stop stop-color="#a0a0a0" stop-opacity="1"/>
   <stop stop-color="#dcdcdc" stop-opacity="1" offset="0.136"/>
   <stop stop-color="#f5f5f5" stop-opacity="1" offset="0.302"/>
   <stop stop-color="#dcdcdc" stop-opacity="1" offset="0.612"/>
   <stop stop-color="#b4b4b4" stop-opacity="1" offset="1"/>
  </linearGradient>
  <filter x="-0.295" y="-0.462" height="1.923" color-interpolation-filters="sRGB" id="filter3179" width="1.59">
   <feGaussianBlur stdDeviation="6.69643"/>
  </filter>
  <linearGradient x2="0" xlink:href="#linearGradient7155" y1="6" y2="63.893" gradientUnits="userSpaceOnUse" id="linearGradient3188"/>
  <linearGradient x2="0" y1="90" y2="5.988" gradientUnits="userSpaceOnUse" id="linearGradient3536">
   <stop stop-color="#000000" stop-opacity="0.156"/>
   <stop stop-color="#ffffff" stop-opacity="0" offset="1"/>
  </linearGradient>
  <linearGradient x1="87.23" x2="69.921" xlink:href="#linearGradient4360" gradientUnits="userSpaceOnUse" id="linearGradient3659"/>
  <linearGradient x1="82.86" x2="86.75" xlink:href="#linearGradient4368" y1="87.43" y2="97.97" gradientUnits="userSpaceOnUse" id="linearGradient3661"/>
  <linearGradient x1="52.11" x2="61.13" xlink:href="#linearGradient4368" y1="76.54" y2="68.3" gradientUnits="userSpaceOnUse" id="linearGradient3663"/>
  <linearGradient x1="66.74" x2="75.28" xlink:href="#linearGradient4360" y1="63.59" y2="80.81" gradientUnits="userSpaceOnUse" id="linearGradient3665"/>
  <linearGradient x1="43.25" x2="48.19" xlink:href="#linearGradient4360" y1="104.22" y2="93.47" gradientUnits="userSpaceOnUse" id="linearGradient3667"/>
  <linearGradient x1="60.41" x2="46.921" xlink:href="#linearGradient4368" y1="106.16" y2="110.66" gradientUnits="userSpaceOnUse" id="linearGradient3669"/>
  <linearGradient x2="0" y1="13.313" y2="47.795" gradientUnits="userSpaceOnUse" id="linearGradient3273">
   <stop stop-color="#919191" stop-opacity="1"/>
   <stop stop-color="#ffffff" stop-opacity="1" offset="1"/>
  </linearGradient>
  <linearGradient x2="0" xlink:href="#linearGradient7155" y1="5" y2="110.67" gradientUnits="userSpaceOnUse" id="linearGradient3282" gradientTransform="matrix(0.08902 0 0 0.70974 11.943 2.451)"/>
  <linearGradient x2="0" xlink:href="#linearGradient7175" y1="5" y2="176.65" gradientUnits="userSpaceOnUse" id="linearGradient3285" gradientTransform="matrix(0.28082 0 0 0.70974 70.1 2.702)"/>
  <linearGradient x2="0" xlink:href="#linearGradient7155" y1="5" y2="68.7" gradientUnits="userSpaceOnUse" id="linearGradient3288" gradientTransform="matrix(0.14184 0 0 0.70974 78.15 2.451)"/>
  <linearGradient x2="0" xlink:href="#linearGradient7175" y1="5" y2="120.64" gradientUnits="userSpaceOnUse" id="linearGradient3291" gradientTransform="matrix(0.77577 0 0 0.70974 33.24 -93.55)"/>
  <linearGradient x2="0" xlink:href="#linearGradient7175" y1="5" y2="70.17" gradientUnits="userSpaceOnUse" id="linearGradient3294" gradientTransform="matrix(0.96067 0 0 0.70974 6.679 -93.3)"/>
  <linearGradient x2="0" xlink:href="#linearGradient7155" y1="5" y2="68.7" gradientUnits="userSpaceOnUse" id="linearGradient3297" gradientTransform="matrix(0.35315 0 0 -0.70974 10.754 93.3)"/>
  <linearGradient x2="0" xlink:href="#linearGradient7155" y1="54.3" y2="96.04" spreadMethod="reflect" gradientUnits="userSpaceOnUse" id="linearGradient3301" gradientTransform="matrix(0.28712 0 0 -0.70974 36.517 93.3)"/>
  <linearGradient x2="0" xlink:href="#linearGradient7155" y1="5" y2="110.74" gradientUnits="userSpaceOnUse" id="linearGradient3304" gradientTransform="matrix(0.70974 0 0 0.70974 49.19 2.451)"/>
  <linearGradient x2="0" y1="23.558" y2="48.33" gradientUnits="userSpaceOnUse" id="linearGradient3090" gradientTransform="matrix(1.16667 0 0 1.16814 -10.536 -6.86)">
   <stop stop-color="#a2a2a2" stop-opacity="1"/>
   <stop stop-color="#838383" stop-opacity="1" offset="1"/>
  </linearGradient>
  <linearGradient x2="0" xlink:href="#linearGradient5044" y1="27.05" y2="45.45" gradientUnits="userSpaceOnUse" id="linearGradient3092" gradientTransform="matrix(1 0 0 1 -0.25 0.999)"/>
  <linearGradient x1="80.3" x2="83.1" xlink:href="#linearGradient5044" y1="34.651" y2="45.09" gradientUnits="userSpaceOnUse" id="linearGradient3094"/>
  <radialGradient cy="90.17" r="42" xlink:href="#linearGradient7155" gradientUnits="userSpaceOnUse" id="radialGradient2893" cx="48" gradientTransform="matrix(1.15731 0 0 0.99591 -7.551 0.197)"/>
  <linearGradient x2="0" y1="92.54" y2="7.02" gradientUnits="userSpaceOnUse" id="ButtonShadow-0" gradientTransform="matrix(1.0059 0 0 0.99417 100 0)">
   <stop stop-color="#000000" stop-opacity="1"/>
   <stop stop-color="#000000" stop-opacity="0.588" offset="1"/>
  </linearGradient>
  <linearGradient x2="0" xlink:href="#ButtonShadow-0" y1="6.132" y2="90.24" gradientUnits="userSpaceOnUse" id="linearGradient3780" gradientTransform="matrix(1.02381 0 0 1.0119 -1.143 -98.07)"/>
  <linearGradient x2="0" xlink:href="#ButtonShadow-0" y1="6.132" y2="90.24" gradientUnits="userSpaceOnUse" id="linearGradient3721" gradientTransform="matrix(1 0 0 1 0 -97)"/>
  <path d="M 12,6 C 8.676,6 6,8.676 6,12 l 0,72 c 0,3.324 2.676,6 6,6 l 72,0 c 3.324,0 6,-2.676 6,-6 L 90,12 C 90,8.676 87.324,6 84,6 L 12,6 z m 36,7 c 17.112,0 31,5.824 31,13 10e-7,7.176 -13.887999,13 -31,13 -17.112001,0 -31,-5.824 -31,-13 1e-6,-7.176001 13.887999,-13 31,-13 z" fill-opacity="1" stroke="none" fill-rule="nonzero" id="SVGCleanerId_0"/>
 </defs>
 <g display="inline">
  <path d="m 12,-95.03125 c -5.5110903,0 -10.03125,4.52016 -10.03125,10.03125 l 0,71 c 0,5.5110902 4.5201598,10.03125 10.03125,10.03125 l 72,0 c 5.51109,0 10.03125,-4.5201597 10.03125,-10.03125 l 0,-71 c 0,-5.51109 -4.52016,-10.03125 -10.03125,-10.03125 l -72,0 z" fill="url(#linearGradient3780)" fill-opacity="1" fill-rule="nonzero" stroke="none" opacity="0.08" transform="matrix(1 0 0 -1 0 0)"/>
  <path d="m 12,-94.03125 c -4.971633,0 -9.03125,4.059617 -9.03125,9.03125 l 0,71 c 0,4.9716329 4.0596171,9.03125 9.03125,9.03125 l 72,0 c 4.971633,0 9.03125,-4.059617 9.03125,-9.03125 l 0,-71 c 0,-4.971633 -4.059617,-9.03125 -9.03125,-9.03125 l -72,0 z" fill="url(#linearGradient3780)" fill-opacity="1" fill-rule="nonzero" stroke="none" opacity="0.1" transform="matrix(1 0 0 -1 0 0)"/>
  <path d="m 12,-93 c -4.4091333,0 -8,3.590867 -8,8 l 0,71 c 0,4.4091333 3.5908667,8 8,8 l 72,0 c 4.409133,0 8,-3.5908667 8,-8 l 0,-71 c 0,-4.409133 -3.590867,-8 -8,-8 l -72,0 z" fill="url(#linearGradient3780)" fill-opacity="1" fill-rule="nonzero" stroke="none" opacity="0.2" transform="matrix(1 0 0 -1 0 0)"/>
  <rect x="5" rx="7" y="-92" fill="url(#linearGradient3780)" fill-opacity="1" fill-rule="nonzero" stroke="none" height="85" opacity="0.3" width="86" transform="matrix(1 0 0 -1 0 0)"/>
  <rect x="6" rx="6" y="-91" fill="url(#linearGradient3721)" fill-opacity="1" fill-rule="nonzero" stroke="none" height="84" opacity="0.45" width="84" transform="matrix(1 0 0 -1 0 0)"/>
 </g>
 <rect x="10.637" display="inline" y="8" fill="url(#radialGradient3354)" fill-opacity="1" fill-rule="evenodd" stroke="none" height="51.12" width="74.18"/>
 <g transform="matrix(1 0 0 1 0 2.11)">
  <g display="inline" transform="matrix(0.73519 0 0 0.73519 1.846 1.518)">
   <path d="m 35.813418,50.722162 -0.583009,-16.052994 5.247082,0.875618 -2.332037,-6.71307 12.826202,-7.588689 -7.287615,7.880562 4.955578,1.459362 4.372569,-2.33498 6.996109,4.086216 3.78956,-3.794344 4.372569,-0.291872 2.040531,2.043108 5.10133,-7.588688 -0.145752,10.215541 3.498055,-0.583745 -0.874513,-2.334981 6.121596,1.16749 -1.457524,2.918727 8.745137,4.961835 -3.498055,17.804229 -27.984438,3.502471 -23.903375,-9.631796 z" fill="url(#linearGradient3090)" fill-opacity="1" fill-rule="evenodd" stroke="none" inkscape:connector-curvature="0"/>
   <path d="m 53.091873,28.618375 3.180212,12.190813 4.151943,-7.685513 3.268551,8.03887 0,-12.279152 -3.445229,3.533568 -7.155477,-3.798586 z" fill="#6c6c6c" fill-opacity="1" fill-rule="evenodd" stroke="none" inkscape:connector-curvature="0"/>
   <path d="m 48.144876,31.621908 -7.067138,3.710248 5.565371,-1.14841 c 0,0 -0.441696,17.314488 -0.530035,16.696113 -0.08834,-0.618375 2.120141,-19.257951 2.031802,-19.257951 z" fill="#696969" fill-opacity="1" fill-rule="evenodd" stroke="none" inkscape:connector-curvature="0"/>
   <path d="m 77.915194,30.031802 4.770318,3.621909 -5.388692,0.795053 -0.618375,-1.634276 2.075972,-0.397527 -0.839223,-2.385159 z" fill="#6b6b6b" fill-opacity="1" fill-rule="evenodd" stroke="none" inkscape:connector-curvature="0"/>
   <path d="m 49.823321,21.992933 -11.484099,6.89046 3.533569,0.176678 -2.473498,2.120141 8.657244,0 -5.830389,-1.236749 7.597173,-7.95053 z" fill="#bdbdbd" fill-opacity="1" fill-rule="evenodd" stroke="none" inkscape:connector-curvature="0"/>
  </g>
  <g display="inline" transform="matrix(0.73519 0 0 0.73519 1.846 1.518)">
   <path d="m 54.15625,29.9375 -4,0.25 a 0.88348055,0.88348055 0 0 0 -0.75,0.5 l -2.75,5.90625 -1.59375,-1.4375 a 0.88348055,0.88348055 0 0 0 -1.40625,0.3125 l -1.1875,2.75 -4.09375,-4.5 a 0.88348055,0.88348055 0 0 0 -1.53125,0.59375 l 0,4.25 -0.875,0.5625 -1.78125,-2.5625 a 0.88348055,0.88348055 0 0 0 -1.15625,-0.28125 l -6.71875,3.75 a 0.88348055,0.88348055 0 0 0 -0.28125,1.3125 L 30.75,47.8125 a 0.88348055,0.88348055 0 0 0 0.59375,0.34375 l 31.5,4.75 a 0.88348055,0.88348055 0 0 0 0.96875,-0.625 l 1.75,-6 A 0.88348055,0.88348055 0 0 0 65.5,45.625 l -3,-5.96875 a 0.88348055,0.88348055 0 0 0 -0.34375,-0.375 L 57.75,36.75 58.9375,35.0625 a 0.88348055,0.88348055 0 0 0 -0.125,-1.15625 l -4,-3.75 A 0.88348055,0.88348055 0 0 0 54.15625,29.9375 z" fill="#000000" fill-opacity="1" fill-rule="evenodd" stroke="none" filter="url(#filter5122)" opacity="0.3"/>
   <path d="m 31.482493,47.29488 -4.74736,-6.496387 6.746248,-3.747916 2.24875,3.248194 1.998888,-1.249306 0,-4.74736 4.997221,5.496943 1.749028,-3.997776 2.49861,2.248749 3.248194,-6.996109 3.997777,-0.249861 3.997777,3.747915 -1.749028,2.498611 5.247082,2.998332 2.998333,5.996666 -1.749027,5.996665 -31.482493,-4.74736 z" fill="url(#linearGradient3092)" fill-opacity="1" fill-rule="evenodd" stroke="none" inkscape:connector-curvature="0"/>
   <path d="m 44.611307,37.09894 1.325089,9.187279 0.795053,-7.243816 -2.120142,-1.943463 z" fill="#a6a6a6" fill-opacity="1" fill-rule="evenodd" stroke="none" inkscape:connector-curvature="0"/>
   <path d="m 50.530035,31.975265 3.268551,-0.618374 -2.385159,3.710247 4.151944,1.766785 -7.773852,4.770318 5.123675,-4.681979 -3.621908,-2.031802 1.236749,-2.915195 z" fill="#f9f9f9" fill-opacity="1" fill-rule="evenodd" stroke="none" inkscape:connector-curvature="0"/>
   <path d="m 38.162544,35.862191 -0.08834,6.89046 4.416961,-1.855124 -4.328622,-5.035336 z" fill="#e6e6e6" fill-opacity="1" fill-rule="evenodd" stroke="none" inkscape:connector-curvature="0"/>
  </g>
  <g display="inline" transform="matrix(0.73519 0 0 0.73519 1.846 1.518)">
   <path d="m 62.3125,26.1875 a 0.88348055,0.88348055 0 0 0 -0.34375,1.59375 l 5.71875,4.03125 -2.59375,1.84375 a 0.88348055,0.88348055 0 0 0 -0.28125,1.125 l 0.96875,1.8125 -4.03125,1 A 0.88348055,0.88348055 0 0 0 61.1875,38 l -3.25,5.96875 A 0.88348055,0.88348055 0 0 0 58,44.90625 l 4,5.625 a 0.88348055,0.88348055 0 0 0 0.625,0.375 l 20.5,2.5 a 0.88348055,0.88348055 0 0 0 0.46875,-0.09375 l 16.46875,-8 a 0.88348055,0.88348055 0 0 0 0.3125,-1.34375 L 95.8125,38.625 98.875,37.9375 A 0.88348055,0.88348055 0 0 0 99.25,36.375 L 95.375,33.25 95.3125,33.1875 95.25,33.125 93.125,30.5 a 0.88348055,0.88348055 0 0 0 -1.21875,-0.15625 l -3.75,2.75 a 0.88348055,0.88348055 0 0 0 -0.34375,0.625 l -0.21875,2 -1.625,-2.84375 A 0.88348055,0.88348055 0 0 0 85.3125,32.4375 l -3.96875,-0.5 A 0.88348055,0.88348055 0 0 0 80.5625,32.21875 L 78.9375,34 l -1.96875,-3.875 1,-1.59375 A 0.88348055,0.88348055 0 0 0 77.1875,27.1875 c 0,0 -1.432745,0.03127 -3.09375,0.03125 -1.661005,-1.7e-5 -3.574479,-0.04951 -4.375,-0.15625 -2.018317,-0.26911 -7.15625,-0.875 -7.15625,-0.875 a 0.88348055,0.88348055 0 0 0 -0.25,0 z" fill="#000000" fill-opacity="1" fill-rule="evenodd" stroke="none" filter="url(#filter5114)" opacity="0.3"/>
   <path d="m 62.715124,50.043352 -3.997777,-5.621874 3.248193,-5.996666 5.122152,-1.249304 -1.499167,-2.810937 3.622987,-2.561076 -6.746249,-4.74736 c 0,0 5.124267,0.608276 7.12104,0.874513 1.873957,0.249862 7.620762,0.124931 7.620762,0.124931 l -1.249306,1.998889 2.748472,5.496943 2.498609,-2.748472 3.99778,0.499722 2.99833,5.247082 0.49972,-4.74736 3.74792,-2.748471 2.24875,2.748471 3.99778,3.248194 -4.4975,0.999444 5.49694,6.496388 -16.49083,7.995553 -20.488606,-2.49861 z" fill="url(#linearGradient3094)" fill-opacity="1" fill-rule="evenodd" stroke="none" inkscape:connector-curvature="0"/>
   <path d="m 75.088339,30.29682 -4.946997,1.590106 5.830389,2.120142 -4.416961,2.650176 8.833922,7.597173 -6.007067,-7.067137 2.473498,-3.180212 -3.533569,-2.120142 1.766785,-1.590106 z" fill="#b3b3b3" fill-opacity="1" fill-rule="evenodd" stroke="none" inkscape:connector-curvature="0"/>
   <path d="m 66.607774,34.537103 3.445229,-2.385159 5.477032,1.766784 -8.922261,0.618375 z" fill="#ffffff" fill-opacity="1" fill-rule="evenodd" stroke="none" inkscape:connector-curvature="0"/>
   <path d="m 81.537102,33.918728 -2.738516,2.826855 3.621908,7.773852 -0.883392,-10.600707 z" fill="#f7f7f7" fill-opacity="1" fill-rule="evenodd" stroke="none" inkscape:connector-curvature="0"/>
   <path d="m 82.86219,34.625442 3.975265,9.09894 3.621909,-3.35689 -0.706714,-5.918728 3.268551,6.80212 -6.272085,7.508834 -3.886926,-14.134276 z" fill="#909090" fill-opacity="1" fill-rule="evenodd" stroke="none" inkscape:connector-curvature="0"/>
  </g>
  <g display="inline" transform="matrix(0.73519 0 0 0.73519 4.786 1.518)">
   <path d="m 55.5,37.6875 a 0.88788697,0.88788697 0 0 0 -0.28125,0.15625 l -4,2.75 A 0.88788697,0.88788697 0 0 0 51.03125,40.75 L 49.21875,42.9375 47.09375,42 a 0.88788697,0.88788697 0 0 0 -0.8125,0.03125 L 41.03125,45 a 0.88788697,0.88788697 0 0 0 -0.3125,1.25 l 3.5,5.5 a 0.88788697,0.88788697 0 0 0 0.34375,0.3125 l 13.5,7 A 0.88788697,0.88788697 0 0 0 58.75,59.125 l 22.5,-7.25 a 0.88788697,0.88788697 0 0 0 0.4375,-1.34375 l -7.5,-10.96875 a 0.88788697,0.88788697 0 0 0 -0.59375,-0.375 l -5.5,-0.75 a 0.88788697,0.88788697 0 0 0 -0.8125,0.3125 l -3.46875,4.1875 -0.75,-2.40625 a 0.88788697,0.88788697 0 0 0 -1.375,-0.4375 L 59.59375,41.625 56.375,37.96875 A 0.88788697,0.88788697 0 0 0 55.5,37.6875 z" fill="#000000" fill-opacity="1" fill-rule="evenodd" stroke="none" filter="url(#filter5122)" opacity="0.3"/>
   <path d="m 44.974989,51.292657 -3.498054,-5.496943 5.247082,-2.998333 2.748471,1.249305 2.24875,-2.748471 3.997777,-2.748472 3.747915,4.247638 2.748472,-1.998888 1.249305,3.997777 4.497499,-5.496944 5.496943,0.749584 7.495832,10.993886 -22.487495,7.24597 -13.492497,-6.996109 z" fill="#f2f2f2" fill-opacity="1" fill-rule="evenodd" stroke="none" inkscape:connector-curvature="0"/>
   <path d="m 55.56537,39.4841 0.971732,12.985865 2.208481,-9.363958 C 59.224454,43.437646 56.625441,40.691402 55.56537,39.4841 z" fill="#c9c9c9" fill-opacity="1" fill-rule="evenodd" stroke="none" inkscape:connector-curvature="0"/>
   <path d="m 61.749116,41.69258 c 0,0 -0.441696,10.865724 -0.353357,10.070671 0.08834,-0.795053 1.678446,-6.272085 1.678446,-6.272085 L 61.749116,41.69258 z" fill="#c9c9c9" fill-opacity="1" fill-rule="evenodd" stroke="none" inkscape:connector-curvature="0"/>
   <path d="m 68.286219,39.925795 1.766784,6.625442 3.180212,-5.918727 -4.946996,-0.706715 z" fill="#dbdbdb" fill-opacity="1" fill-rule="evenodd" stroke="none" inkscape:connector-curvature="0"/>
  </g>
 </g>
 <path d="M 48,13.5 C 30.879172,13.5 17,19.09644 17,26 17,32.90356 30.879172,38.5 48,38.5 65.120828,38.5 79,32.90356 79,26 79,19.09644 65.120828,13.5 48,13.5 z m 0,3.5 c 7.923307,0 15.092909,1.23594 20.09375,3.1875 2.499739,0.975514 4.436762,2.125103 5.65625,3.25 1.226517,1.131377 1.6875,2.142725 1.6875,3.0625 0,0.919645 -0.457738,1.898584 -1.6875,3.03125 -1.220379,1.124023 -3.158057,2.277678 -5.65625,3.25 C 63.091644,34.728119 55.923331,36 48,36 40.076669,36 32.908356,34.728119 27.90625,32.78125 25.408057,31.808928 23.470379,30.655273 22.25,29.53125 21.020236,28.398585 20.5625,27.419646 20.5625,26.5 c 0,-0.919773 0.460985,-1.931122 1.6875,-3.0625 1.219488,-1.124897 3.156511,-2.274486 5.65625,-3.25 C 32.907091,18.23594 40.076693,17 48,17 z" display="inline" fill="#000000" stroke="none" opacity="0.1" inkscape:connector-curvature="0"/>
 <path d="M 48,13.5 C 30.879172,13.5 17,19.09644 17,26 17,32.90356 30.879172,38.5 48,38.5 65.120828,38.5 79,32.90356 79,26 79,19.09644 65.120828,13.5 48,13.5 z m 0,2.5 c 8.034344,0 15.300062,1.264188 20.46875,3.28125 2.584344,1.008531 4.643714,2.217666 6,3.46875 1.35629,1.251084 2,2.499129 2,3.75 0,1.250871 -0.643965,2.501031 -2,3.75 -1.356038,1.248969 -3.415638,2.431641 -6,3.4375 C 63.300024,35.699219 56.034824,37 48,37 39.965176,37 32.699976,35.699219 27.53125,33.6875 c -2.584362,-1.005859 -4.643962,-2.188531 -6,-3.4375 -1.356038,-1.248969 -2,-2.499129 -2,-3.75 0,-1.250871 0.643714,-2.498916 2,-3.75 1.356286,-1.251084 3.415656,-2.460219 6,-3.46875 C 32.699938,17.264188 39.965656,16 48,16 z" display="inline" fill="#000000" stroke="none" opacity="0.15" inkscape:connector-curvature="0"/>
 <path d="M 48,13.5 C 30.879172,13.5 17,19.09644 17,26 17,32.90356 30.879172,38.5 48,38.5 65.120828,38.5 79,32.90356 79,26 79,19.09644 65.120828,13.5 48,13.5 z M 48,15 C 64.2924,15 77.5,20.148725 77.5,26.5 77.5,32.851275 64.2924,38 48,38 31.7076,38 18.5,32.851275 18.5,26.5 18.5,20.148725 31.7076,15 48,15 z" display="inline" fill="#000000" stroke="none" opacity="0.3" inkscape:connector-curvature="0"/>
 <use xlink:href="#SVGCleanerId_0" fill="url(#linearGradient3706)" inkscape:connector-curvature="0"/>
 <use xlink:href="#SVGCleanerId_0" fill="url(#linearGradient3536)" inkscape:connector-curvature="0"/>
 <g display="inline" transform="matrix(0.71186 0 0 0.71186 2.441 5.3)">
  <path d="M 123,42.75 C 109.48996,50.356013 87.9119,55.28125 63.59375,55.28125 39.759917,55.28125 18.554464,50.536617 5,43.1875 l 0,2 C 18.554464,52.536617 39.759917,57.28125 63.59375,57.28125 87.9119,57.28125 109.48996,52.356013 123,44.75 l 0,-2 z" fill="#a4a4a4" fill-opacity="1" fill-rule="evenodd" stroke="none" inkscape:connector-curvature="0"/>
  <path d="M 123,44.75 C 109.48996,52.356013 87.9119,57.28125 63.59375,57.28125 39.759917,57.28125 18.554464,52.536617 5,45.1875 l 0,2 C 18.554464,54.536617 39.759917,59.28125 63.59375,59.28125 87.9119,59.28125 109.48996,54.356013 123,46.75 l 0,-2 z" fill="#e8e8e8" fill-opacity="1" fill-rule="evenodd" stroke="none" inkscape:connector-curvature="0"/>
 </g>
 <path d="m 23.09375,13.875 c -5.425259,0 -9.78125,4.445256 -9.78125,9.9375 l 0,18.53125 c 0,5.492245 4.355991,9.906249 9.78125,9.90625 l 39.6875,0 c 5.425259,0 9.781247,-4.414006 9.78125,-9.90625 l 0,-8.4375 C 66.894038,37.000058 58.01596,39 48,39 30.887999,39 17,33.176 17,26 c 1e-6,-5.539772 8.290285,-10.254164 19.9375,-12.125 l -13.84375,0 z m 35.96875,0 c 3.984439,0.640001 7.563364,1.615969 10.5625,2.84375 C 67.861384,14.973043 65.454095,13.875 62.78125,13.875 l -3.71875,0 z" fill="#ffffff" fill-opacity="1" fill-rule="nonzero" stroke="none" filter="url(#filter3179)" opacity="0.15" inkscape:connector-curvature="0"/>
 <path d="m 61.59375,6 0,7.96875 c 3.136004,0.638826 5.987972,1.471682 8.4375,2.5 1.957777,0.821879 3.663444,1.757545 5.0625,2.78125 l 0,-13.25 -13.5,0 z m 13.5,26.71875 c -1.399673,1.025291 -3.103202,1.960916 -5.0625,2.78125 -2.449524,1.025584 -5.301475,1.860713 -8.4375,2.5 l 0,51.75 13.5,0 0,-57.03125 z" fill="url(#linearGradient3304)" fill-opacity="1" fill-rule="evenodd" stroke="none" opacity="0.6" inkscape:connector-curvature="0"/>
 <path d="m 41.53125,6 0,6.9375 C 43.300398,12.781572 45.134826,12.712186 47,12.6875 L 47,6 41.53125,6 z m 0,33.03125 0,50.71875 5.46875,0 0,-50.4375 c -1.865145,-0.02479 -3.699607,-0.124884 -5.46875,-0.28125 z" fill="url(#linearGradient3301)" fill-opacity="1" fill-rule="evenodd" stroke="none" opacity="0.3" inkscape:connector-curvature="0"/>
 <path d="m 16.9375,6 0,18.3125 c 0.373958,-1.287748 1.153784,-2.506837 2.28125,-3.625 1.139864,-1.130458 2.635044,-2.163267 4.40625,-3.09375 L 23.625,6 16.9375,6 z m 0,21.6875 0,62.0625 6.6875,0 0,-55.34375 C 21.853813,33.475413 20.358672,32.441312 19.21875,31.3125 18.091226,30.195965 17.311439,28.968426 16.9375,27.6875 z" fill="url(#linearGradient3297)" fill-opacity="1" fill-rule="evenodd" stroke="none" opacity="0.4" inkscape:connector-curvature="0"/>
 <rect x="23.481" y="-89.75" fill="url(#linearGradient3294)" fill-opacity="1" fill-rule="evenodd" stroke="none" height="83.75" opacity="0.15" width="18.243" transform="matrix(1 0 0 -1 0 0)"/>
 <rect x="46.805" y="-90" fill="url(#linearGradient3291)" fill-opacity="1" fill-rule="evenodd" stroke="none" height="83.75" opacity="0.1" width="14.732" transform="matrix(1 0 0 -1 0 0)"/>
 <rect x="80.63" y="6" fill="url(#linearGradient3288)" fill-opacity="1" fill-rule="evenodd" stroke="none" height="83.75" opacity="0.4" width="2.694"/>
 <rect x="75.01" y="6.251" fill="url(#linearGradient3285)" fill-opacity="1" fill-rule="evenodd" stroke="none" height="83.75" opacity="0.1" width="5.333"/>
 <rect x="13.5" y="6" fill="url(#linearGradient3282)" fill-opacity="1" fill-rule="evenodd" stroke="none" height="83.75" opacity="0.4" width="1.69"/>
 <path d="M 12,6 C 8.676,6 6,8.676 6,12 l 0,2 0,68 0,2 c 0,0.334721 0.04135,0.6507 0.09375,0.96875 0.0487,0.295596 0.09704,0.596915 0.1875,0.875 0.00988,0.03038 0.020892,0.0636 0.03125,0.09375 0.098865,0.287771 0.2348802,0.547452 0.375,0.8125 0.1445918,0.273507 0.3156161,0.535615 0.5,0.78125 0.1843839,0.245635 0.3737765,0.473472 0.59375,0.6875 0.439947,0.428056 0.94291,0.814526 1.5,1.09375 0.278545,0.139612 0.5734731,0.246947 0.875,0.34375 -0.2562018,-0.100222 -0.4867109,-0.236272 -0.71875,-0.375 -0.00741,-0.0044 -0.023866,0.0045 -0.03125,0 -0.031933,-0.0193 -0.062293,-0.04251 -0.09375,-0.0625 -0.120395,-0.0767 -0.2310226,-0.163513 -0.34375,-0.25 -0.1061728,-0.0808 -0.2132809,-0.161112 -0.3125,-0.25 C 8.4783201,88.557317 8.3087904,88.373362 8.15625,88.1875 8.0486711,88.057245 7.9378561,87.922215 7.84375,87.78125 7.818661,87.74287 7.805304,87.69538 7.78125,87.65625 7.716487,87.553218 7.6510225,87.451733 7.59375,87.34375 7.4927417,87.149044 7.3880752,86.928049 7.3125,86.71875 7.30454,86.69694 7.288911,86.6782 7.28125,86.65625 7.2494249,86.5643 7.2454455,86.469419 7.21875,86.375 7.1884177,86.268382 7.1483606,86.171969 7.125,86.0625 7.0521214,85.720988 7,85.364295 7,85 L 7,83 7,15 7,13 C 7,10.218152 9.2181517,8 12,8 l 2,0 68,0 2,0 c 2.781848,0 5,2.218152 5,5 l 0,2 0,68 0,2 c 0,0.364295 -0.05212,0.720988 -0.125,1.0625 -0.04415,0.206893 -0.08838,0.397658 -0.15625,0.59375 -0.0077,0.02195 -0.0233,0.04069 -0.03125,0.0625 -0.06274,0.173739 -0.138383,0.367449 -0.21875,0.53125 -0.04158,0.0828 -0.07904,0.169954 -0.125,0.25 -0.0546,0.09721 -0.126774,0.18835 -0.1875,0.28125 -0.09411,0.140965 -0.204921,0.275995 -0.3125,0.40625 -0.143174,0.17445 -0.303141,0.346998 -0.46875,0.5 -0.01117,0.0102 -0.01998,0.02115 -0.03125,0.03125 -0.138386,0.125556 -0.285091,0.234436 -0.4375,0.34375 -0.102571,0.07315 -0.204318,0.153364 -0.3125,0.21875 -0.0074,0.0045 -0.02384,-0.0044 -0.03125,0 -0.232039,0.138728 -0.462548,0.274778 -0.71875,0.375 0.301527,-0.0968 0.596455,-0.204138 0.875,-0.34375 0.55709,-0.279224 1.060053,-0.665694 1.5,-1.09375 0.219973,-0.214028 0.409366,-0.441865 0.59375,-0.6875 0.184384,-0.245635 0.355408,-0.507743 0.5,-0.78125 0.14012,-0.265048 0.276135,-0.524729 0.375,-0.8125 0.01041,-0.03078 0.02133,-0.06274 0.03125,-0.09375 0.09046,-0.278085 0.1388,-0.579404 0.1875,-0.875 C 89.95865,84.6507 90,84.334721 90,84 l 0,-2 0,-68 0,-2 C 90,8.676 87.324,6 84,6 L 12,6 z" fill="url(#linearGradient3188)" fill-opacity="1" fill-rule="nonzero" stroke="none" opacity="0.5" inkscape:connector-curvature="0"/>
 <path stroke-opacity="1" d="m 103.44247,30.55419 a 40.477489,16.240969 0 1 1 -80.954975,0 40.477489,16.240969 0 1 1 80.954975,0 z" stroke-width="1.916" display="inline" fill="none" stroke="url(#linearGradient3273)" stroke-dasharray="none" stroke-dashoffset="0" stroke-linecap="round" stroke-linejoin="round" stroke-miterlimit="4" transform="matrix(0.76586 0 0 0.80044 -0.222 1.543)"/>
 <path d="M 12,90 C 8.676,90 6,87.324 6,84 L 6,82 6,14 6,12 c 0,-0.334721 0.04135,-0.6507 0.09375,-0.96875 0.0487,-0.295596 0.09704,-0.596915 0.1875,-0.875 C 6.29113,10.12587 6.302142,10.09265 6.3125,10.0625 6.411365,9.774729 6.5473802,9.515048 6.6875,9.25 6.8320918,8.976493 7.0031161,8.714385 7.1875,8.46875 7.3718839,8.223115 7.5612765,7.995278 7.78125,7.78125 8.221197,7.353194 8.72416,6.966724 9.28125,6.6875 9.559795,6.547888 9.8547231,6.440553 10.15625,6.34375 9.9000482,6.443972 9.6695391,6.580022 9.4375,6.71875 c -0.00741,0.0044 -0.023866,-0.0045 -0.03125,0 -0.031933,0.0193 -0.062293,0.04251 -0.09375,0.0625 -0.120395,0.0767 -0.2310226,0.163513 -0.34375,0.25 -0.1061728,0.0808 -0.2132809,0.161112 -0.3125,0.25 C 8.4783201,7.442683 8.3087904,7.626638 8.15625,7.8125 8.0486711,7.942755 7.9378561,8.077785 7.84375,8.21875 7.818661,8.25713 7.805304,8.30462 7.78125,8.34375 7.716487,8.446782 7.6510225,8.548267 7.59375,8.65625 7.4927417,8.850956 7.3880752,9.071951 7.3125,9.28125 7.30454,9.30306 7.288911,9.3218 7.28125,9.34375 7.2494249,9.4357 7.2454455,9.530581 7.21875,9.625 7.1884177,9.731618 7.1483606,9.828031 7.125,9.9375 7.0521214,10.279012 7,10.635705 7,11 l 0,2 0,68 0,2 c 0,2.781848 2.2181517,5 5,5 l 2,0 68,0 2,0 c 2.781848,0 5,-2.218152 5,-5 l 0,-2 0,-68 0,-2 C 89,10.635705 88.94788,10.279012 88.875,9.9375 88.83085,9.730607 88.78662,9.539842 88.71875,9.34375 88.71105,9.3218 88.69545,9.30306 88.6875,9.28125 88.62476,9.107511 88.549117,8.913801 88.46875,8.75 88.42717,8.6672 88.38971,8.580046 88.34375,8.5 88.28915,8.40279 88.216976,8.31165 88.15625,8.21875 88.06214,8.077785 87.951329,7.942755 87.84375,7.8125 87.700576,7.63805 87.540609,7.465502 87.375,7.3125 87.36383,7.3023 87.35502,7.29135 87.34375,7.28125 87.205364,7.155694 87.058659,7.046814 86.90625,6.9375 86.803679,6.86435 86.701932,6.784136 86.59375,6.71875 c -0.0074,-0.0045 -0.02384,0.0044 -0.03125,0 -0.232039,-0.138728 -0.462548,-0.274778 -0.71875,-0.375 0.301527,0.0968 0.596455,0.204138 0.875,0.34375 0.55709,0.279224 1.060053,0.665694 1.5,1.09375 0.219973,0.214028 0.409366,0.441865 0.59375,0.6875 0.184384,0.245635 0.355408,0.507743 0.5,0.78125 0.14012,0.265048 0.276135,0.524729 0.375,0.8125 0.01041,0.03078 0.02133,0.06274 0.03125,0.09375 0.09046,0.278085 0.1388,0.579404 0.1875,0.875 C 89.95865,11.3493 90,11.665279 90,12 l 0,2 0,68 0,2 c 0,3.324 -2.676,6 -6,6 l -72,0 z" fill="url(#radialGradient2893)" fill-opacity="1" fill-rule="nonzero" stroke="none" opacity="0.4" inkscape:connector-curvature="0"/>
 <g transform="matrix(1 0 0 1 0 -1)">
  <path d="m 75.778112,90.690282 6.331728,-11.357102 0.0301,4.153571 13.32572,-0.03009 c 2.381109,-0.252345 4.468715,-1.220077 5.980519,-3.03994 -4.824989,9.868303 -6.214718,16.850853 -16.225667,16.855073 l -3.080572,0 -0.0301,4.615068 -6.331728,-11.196578 z m 14.50003,-8.958701 -5.880177,-10.835396 11.880769,-7.193494 5.749716,11.517614 c 0.17409,2.756344 -4.276921,6.591993 -7.03956,6.562155 l -4.710748,-0.05088 z M 54.147459,57.72989 60.217483,48.634238 c 5.887367,-2.192329 9.297705,2.540579 11.45008,5.523983 L 65.947946,65.134073 54.147459,57.72989 z m 23.98171,4.527497 C 76.908304,59.379646 75.277084,56.0879 73.237247,53.225804 71.411006,50.663411 69.204438,48.427773 67.532818,47.428945 l 15.352678,-0.03009 c 2.757154,0.247485 4.096834,1.8546 5.559059,4.053238 l 2.207565,3.882684 3.411713,-2.177108 -6.422024,11.437374 -13.84751,0.03009 4.33487,-2.367748 z m -21.24424,4.246398 7.342774,10.731394 -3.73163,-1.825529 -5.916252,11.938462 c -0.836067,2.24336 -0.900829,4.54314 0.05403,6.70769 C 47.951828,85.336772 42.32097,80.97894 46.782024,72.018375 l 1.373917,-2.756768 -4.117916,-2.085235 12.846904,-0.672587 z m 1.682452,16.972943 13.538353,-0.429582 -0.07542,13.840216 -12.87471,0.0086 c -2.545077,-1.07352 -3.993562,-6.76734 -2.734733,-9.22628 l 2.146512,-4.192914 z" display="inline" fill="#000000" fill-opacity="1" stroke="none" filter="url(#filter3276)" opacity="0.8" inkscape:connector-curvature="0" transform="matrix(0.62074 0 0 0.62074 2.664 22.255)"/>
  <path d="m 75.778112,92.690282 6.331728,-11.357102 0.0301,4.153572 13.32572,-0.03009 c 2.381109,-0.25235 4.468715,-1.22008 5.980519,-3.039943 -4.824989,9.868303 -6.214718,16.850853 -16.225667,16.855073 l -3.080572,0 -0.0301,4.615068 -6.331728,-11.196578 z m 14.50003,-8.958701 -5.880177,-10.835396 11.880769,-7.193494 5.749716,11.517614 c 0.17409,2.756344 -4.276921,6.591993 -7.03956,6.562155 l -4.710748,-0.05088 z M 54.147459,59.72989 60.217483,50.634238 c 5.887367,-2.192329 9.297705,2.540579 11.45008,5.523983 L 65.947946,67.134073 54.147459,59.72989 z m 23.98171,4.527497 C 76.908304,61.379646 75.277084,58.0879 73.237247,55.225804 71.411006,52.663411 69.204438,50.427773 67.532818,49.428945 l 15.352678,-0.03009 c 2.757154,0.247485 4.096834,1.8546 5.559059,4.053238 l 2.207565,3.882684 3.411713,-2.177108 -6.422024,11.437374 -13.84751,0.03009 4.33487,-2.367748 z m -21.24424,4.246398 7.342774,10.731394 -3.73163,-1.825529 -5.916252,11.938462 c -0.836067,2.24336 -0.900829,4.54314 0.05403,6.70769 C 47.951828,87.336772 42.32097,82.97894 46.782024,74.018375 l 1.373917,-2.756768 -4.117916,-2.085235 12.846904,-0.672587 z m 1.682452,16.972947 13.538353,-0.42959 -0.07542,13.84022 -12.87471,0.0086 c -2.545077,-1.07352 -3.993562,-6.76734 -2.734733,-9.22628 l 2.146512,-4.19291 z" display="inline" fill="#ffffff" fill-opacity="1" stroke="none" filter="url(#filter3276)" opacity="0.8" inkscape:connector-curvature="0" transform="matrix(0.62074 0 0 0.62074 2.664 22.01)"/>
  <g display="inline" transform="matrix(0.62074 0 0 0.62074 8.274 12.705)">
   <path d="m 66.740086,106.88012 6.331728,-11.357102 0.0301,4.153571 13.32572,-0.03009 c 2.381109,-0.252345 4.468715,-1.220077 5.98052,-3.03994 -4.82499,9.868303 -6.214719,16.850853 -16.225668,16.855073 l -3.080572,0 -0.0301,4.61507 -6.331728,-11.19658 z" fill="url(#linearGradient3659)" fill-opacity="1" stroke="none" inkscape:connector-curvature="0"/>
   <path d="M 81.240116,97.921419 75.359939,87.086023 87.240708,79.892529 92.99042,91.410143 c 0.174089,2.756344 -4.276917,6.591993 -7.039556,6.562155 l -4.710748,-0.05088 z" fill="url(#linearGradient3661)" fill-opacity="1" stroke="none" inkscape:connector-curvature="0"/>
   <path d="m 45.109433,73.919728 6.070024,-9.095652 c 5.887367,-2.192329 9.297705,2.540579 11.45008,5.523983 L 56.90992,81.323911 45.109433,73.919728 z" fill="url(#linearGradient3663)" fill-opacity="1" stroke="none" inkscape:connector-curvature="0"/>
   <path d="M 69.091143,78.447225 C 67.870278,75.569484 66.239058,72.277738 64.199221,69.415642 62.37298,66.853249 60.166412,64.617611 58.494792,63.618783 l 15.352678,-0.03009 c 2.757154,0.247485 4.096834,1.8546 5.559059,4.053238 l 2.207565,3.882684 3.411713,-2.177108 -6.422024,11.437374 -13.84751,0.03009 4.33487,-2.367748 z" fill="url(#linearGradient3665)" fill-opacity="1" stroke="none" inkscape:connector-curvature="0"/>
   <path d="m 47.846903,82.693623 7.342774,10.731394 -3.73163,-1.825529 -5.916252,11.938462 c -0.836067,2.24336 -0.900829,4.54314 0.05403,6.70769 -6.682019,-8.71903 -12.312877,-13.076862 -7.851823,-22.037427 l 1.373917,-2.756768 -4.117916,-2.085235 12.846904,-0.672587 z" fill="url(#linearGradient3667)" fill-opacity="1" stroke="none" inkscape:connector-curvature="0"/>
   <path d="m 49.529355,99.666566 13.538353,-0.429582 -0.07542,13.840216 -12.87471,0.009 c -2.545077,-1.07352 -3.993562,-6.76734 -2.734733,-9.22628 l 2.146512,-4.192914 z" fill="url(#linearGradient3669)" fill-opacity="1" stroke="none" inkscape:connector-curvature="0"/>
  </g>
 </g>
</svg>
