<?xml version="1.0" encoding="UTF-8" standalone="no"?>
<svg
   xmlns:dc="http://purl.org/dc/elements/1.1/"
   xmlns:cc="http://creativecommons.org/ns#"
   xmlns:rdf="http://www.w3.org/1999/02/22-rdf-syntax-ns#"
   xmlns:svg="http://www.w3.org/2000/svg"
   xmlns="http://www.w3.org/2000/svg"
   xmlns:xlink="http://www.w3.org/1999/xlink"
   xmlns:sodipodi="http://sodipodi.sourceforge.net/DTD/sodipodi-0.dtd"
   xmlns:inkscape="http://www.inkscape.org/namespaces/inkscape"
   display="inline"
   height="96"
   width="96"
   id="svg2"
   version="1.1"
   inkscape:version="0.48.5 r10040"
   sodipodi:docname="battery.svg">
  <metadata
     id="metadata117">
    <rdf:RDF>
      <cc:Work
         rdf:about="">
        <dc:format>image/svg+xml</dc:format>
        <dc:type
           rdf:resource="http://purl.org/dc/dcmitype/StillImage" />
      </cc:Work>
    </rdf:RDF>
  </metadata>
  <sodipodi:namedview
     pagecolor="#ffffff"
     bordercolor="#666666"
     borderopacity="1"
     objecttolerance="10"
     gridtolerance="10"
     guidetolerance="10"
     inkscape:pageopacity="0"
     inkscape:pageshadow="2"
     inkscape:window-width="1366"
     inkscape:window-height="719"
     id="namedview115"
     showgrid="false"
     inkscape:zoom="3.4766083"
     inkscape:cx="49.113347"
     inkscape:cy="58.539248"
     inkscape:window-x="0"
     inkscape:window-y="24"
     inkscape:window-maximized="1"
     inkscape:current-layer="svg2" />
  <defs
     id="defs4">
    <linearGradient
       id="linearGradient3833">
      <stop
         stop-color="#ffffff"
         stop-opacity="1"
         id="stop7" />
      <stop
         stop-color="#ffffff"
         stop-opacity="0"
         offset="1"
         id="stop9" />
    </linearGradient>
    <linearGradient
       x2="0"
       y1="92.54"
       y2="7.02"
       gradientUnits="userSpaceOnUse"
       id="ButtonShadow"
       gradientTransform="matrix(1.0059 0 0 0.99417 0 0)">
      <stop
         stop-color="#000000"
         stop-opacity="1"
         id="stop12" />
      <stop
         stop-color="#000000"
         stop-opacity="0.588"
         offset="1"
         id="stop14" />
    </linearGradient>
    <linearGradient
       x2="0"
       xlink:href="#linearGradient3833"
       y1="6"
       y2="63.893"
       gradientUnits="userSpaceOnUse"
       id="linearGradient3188" />
    <radialGradient
       cy="90.17"
       r="42"
       xlink:href="#linearGradient3833"
       gradientUnits="userSpaceOnUse"
       id="radialGradient3619"
       cx="48"
       gradientTransform="matrix(1.15731 0 0 0.99591 -7.551 0.197)" />
    <linearGradient
       x2="0"
       y1="8"
       y2="88"
       gradientUnits="userSpaceOnUse"
       id="linearGradient3761"
       gradientTransform="matrix(0 -1 1 0 0 0)">
      <stop
         stop-color="#666666"
         stop-opacity="1"
         id="stop19" />
      <stop
         stop-color="#e6e6e6"
         stop-opacity="1"
         offset="0.25"
         id="stop21" />
      <stop
         stop-color="#808080"
         stop-opacity="1"
         offset="0.513"
         id="stop23" />
      <stop
         stop-color="#474747"
         stop-opacity="1"
         offset="1"
         id="stop25" />
    </linearGradient>
    <linearGradient
       x1="32"
       x2="64"
       gradientUnits="userSpaceOnUse"
       id="linearGradient3777">
      <stop
         stop-color="#d9d9d9"
         stop-opacity="1"
         id="stop28" />
      <stop
         stop-color="#c6c6c6"
         stop-opacity="1"
         offset="0.25"
         id="stop30" />
      <stop
         stop-color="#696969"
         stop-opacity="1"
         offset="1"
         id="stop32" />
    </linearGradient>
    <linearGradient
       x2="0"
       xlink:href="#linearGradient3833"
       y1="6"
       y2="120.02"
       gradientUnits="userSpaceOnUse"
       id="linearGradient3839"
       gradientTransform="matrix(1 0 0 1 -2 0)" />
    <linearGradient
       x2="0"
       xlink:href="#linearGradient3833"
       y1="6"
       y2="72.02"
       gradientUnits="userSpaceOnUse"
       id="linearGradient3843"
       gradientTransform="matrix(0.57143 0 0 1 50.857 0)" />
    <linearGradient
       x2="0"
       xlink:href="#linearGradient3833"
       y1="6"
       y2="72.02"
       gradientUnits="userSpaceOnUse"
       id="linearGradient3873"
       gradientTransform="matrix(0.2381 0 0 1 47.19 -96)" />
    <linearGradient
       x1="6"
       x2="32.02"
       gradientUnits="userSpaceOnUse"
       id="linearGradient3897"
       gradientTransform="matrix(-1 0 0 1 96 0)">
      <stop
         stop-color="#225500"
         stop-opacity="1"
         id="stop38" />
      <stop
         stop-color="#225500"
         stop-opacity="0"
         offset="1"
         id="stop40" />
    </linearGradient>
    <radialGradient
       cy="90.2"
       r="42"
       gradientUnits="userSpaceOnUse"
       id="radialGradient3901"
       cx="48"
       gradientTransform="matrix(1.33333 0 0 0.95238 -16 -5.905)">
      <stop
         stop-color="#88ff02"
         stop-opacity="1"
         id="stop43" />
      <stop
         stop-color="#1f8000"
         stop-opacity="1"
         offset="1"
         id="stop45" />
    </radialGradient>
    <linearGradient
       x1="-90"
       x2="-6"
       gradientUnits="userSpaceOnUse"
       id="linearGradient3925"
       gradientTransform="matrix(1 0 0 -1 96 96)">
      <stop
         stop-color="#ffffff"
         stop-opacity="0.481"
         id="stop48" />
      <stop
         stop-color="#ffffff"
         stop-opacity="0.124"
         offset="1"
         id="stop50" />
    </linearGradient>
    <linearGradient
       x2="0"
       xlink:href="#ButtonShadow"
       y1="92.54"
       y2="7.02"
       gradientUnits="userSpaceOnUse"
       id="linearGradient3938"
       gradientTransform="matrix(1.0059 0 0 0.99417 0 0)" />
    <linearGradient
       x1="64"
       x2="82.84"
       xlink:href="#linearGradient3833"
       gradientUnits="userSpaceOnUse"
       id="linearGradient3976"
       gradientTransform="matrix(1 0 0 1 4 0)" />
    <linearGradient
       x2="0"
       xlink:href="#ButtonShadow"
       y1="91"
       y2="3.307"
       gradientUnits="userSpaceOnUse"
       id="linearGradient3794" />
    <linearGradient
       gradientTransform="matrix(1.0729,0,0,1.0417,-5.127,-2.459)"
       id="linearGradient251977"
       gradientUnits="userSpaceOnUse"
       y2="5.988"
       y1="90"
       x2="0">
      <stop
         id="stop3143"
         stop-color="#1d5282" />
      <stop
         id="stop3145"
         offset="1"
         stop-color="#568ec2" />
    </linearGradient>
    <linearGradient
       inkscape:collect="always"
       xlink:href="#linearGradient251977"
       id="linearGradient3201"
       gradientUnits="userSpaceOnUse"
       gradientTransform="matrix(1.0729,0,0,1.0417,-5.2900013,-2.43898)"
       y1="90"
       x2="0"
       y2="5.988" />
  </defs>
  <rect
     style="fill-opacity:0.02000002"
     x="3.1899986"
     rx="12.724"
     y="3.0099957"
     height="89.980003"
     width="89.620003"
     id="rect3149" />
  <rect
     style="fill-opacity:0.03900003"
     x="3.7959988"
     rx="12.552"
     y="3.6200421"
     height="88.760002"
     width="88.410004"
     id="rect3151" />
  <rect
     style="fill-opacity:0.078"
     x="4.4009986"
     rx="12.38"
     y="4.2300272"
     height="87.550003"
     width="87.199997"
     id="rect3153" />
  <rect
     style="fill-opacity:0.15700001"
     x="5.0069985"
     rx="12.208"
     y="4.8400126"
     height="86.330002"
     width="85.990997"
     id="rect3155" />
  <path
     style="fill:url(#linearGradient3201)"
     inkscape:connector-curvature="0"
     d="m 17.586999,5.42622 c -6.642,0 -11.9690003,5.3948 -11.9690003,12.063 l 2e-4,61.031 c 0,6.668 5.3268003,12.031 11.9690003,12.031 h 60.812 c 6.642,0 11.969,-5.363 11.969,-12.031 v -61.031 c 0,-6.668 -5.327,-12.063 -11.969,-12.063 l -60.812,2e-4 z"
     id="path3157" />
  <path
     style="fill-opacity:0.09800002"
     inkscape:connector-curvature="0"
     d="m 5.6125987,77.56002 v 1.0133 c 0,6.668 5.3434003,12.032 11.9850003,12.032 h 60.809 c 6.6418,0 11.985,-5.3645 11.985,-12.032 v -1.0133 c 0,6.6681 -5.3434,12.032 -11.985,12.032 h -60.809 c -6.6418,0 -11.9850003,-5.3644 -11.9850003,-12.032 z"
     id="path3159" />
  <path
     style="fill-opacity:0.23500001"
     inkscape:connector-curvature="0"
     d="m 5.6125987,73.46002 v 5.0663 c 0,6.668 5.3434003,12.032 11.9850003,12.032 h 60.809 c 6.6418,0 11.985,-5.3645 11.985,-12.032 v -5.0663 c 0,6.6681 -5.3434,12.032 -11.985,12.032 h -60.809 c -6.6418,0 -11.9850003,-5.3643 -11.9850003,-12.032 z"
     id="path3161" />
  <g
     id="g3281"
     transform="translate(0,-1.4915255)">
    <g
       style="opacity:0.15;fill:black"
       id="g3257"
       transform="translate(0.140625,3.6833138)">
      <path
         inkscape:connector-curvature="0"
         id="path3259"
         d="m 36.96875,25.0625 c -2.361592,0 -4.25,1.985829 -4.25,4.34375 l 0,36.71875 c 0,2.357921 1.888408,4.375 4.25,4.375 l 21.8125,0 C 61.142842,70.5 63,68.48292 63,66.125 L 63,29.40625 C 63,27.04833 61.142842,25.0625 58.78125,25.0625 l -21.8125,0 z m 0,3.03125 21.8125,0 c 0.660226,0 1.21875,0.509262 1.21875,1.3125 L 60,66.125 c 0,0.803238 -0.558524,1.34375 -1.21875,1.34375 l -21.8125,0 C 36.308524,67.46875 35.75,66.928237 35.75,66.125 l 0,-36.71875 c 0,-0.803237 0.558524,-1.3125 1.21875,-1.3125 z"
         style="font-size:medium;font-style:normal;font-variant:normal;font-weight:normal;font-stretch:normal;text-indent:0;text-align:start;text-decoration:none;line-height:normal;letter-spacing:normal;word-spacing:normal;text-transform:none;direction:ltr;block-progression:tb;writing-mode:lr-tb;text-anchor:start;baseline-shift:baseline;color:black;fill:black;fill-opacity:1;stroke:none;stroke-width:3.030303;marker:none;visibility:visible;display:inline;overflow:visible;enable-background:accumulate;font-family:Sans;-inkscape-font-specification:Sans" />
      <path
         id="path3261"
         d="m 41.802772,20.506254 12.121212,0 c 0.839394,0 1.515152,0.675758 1.515152,1.515152 l 0,2.592424 c 0,0.839394 -0.675758,1.515152 -1.515152,1.515152 l -12.121212,0 c -0.839394,0 -1.515151,-0.675758 -1.515151,-1.515152 l 0,-2.592424 c 0,-0.839394 0.675757,-1.515152 1.515151,-1.515152 z"
         style="fill:black"
         inkscape:connector-curvature="0" />
      <path
         id="path3263"
         d="m 37.25732,65.964154 21.212121,0 0,-25.757576 -21.212121,15.151516 z"
         inkscape:connector-curvature="0"
         style="fill:black" />
    </g>
    <g
       transform="translate(0.140625,4.496873)"
       id="g3265"
       style="opacity:0.15;fill:black">
      <path
         style="font-size:medium;font-style:normal;font-variant:normal;font-weight:normal;font-stretch:normal;text-indent:0;text-align:start;text-decoration:none;line-height:normal;letter-spacing:normal;word-spacing:normal;text-transform:none;direction:ltr;block-progression:tb;writing-mode:lr-tb;text-anchor:start;baseline-shift:baseline;color:black;fill:black;fill-opacity:1;stroke:none;stroke-width:3.030303;marker:none;visibility:visible;display:inline;overflow:visible;enable-background:accumulate;font-family:Sans;-inkscape-font-specification:Sans"
         d="m 36.96875,25.0625 c -2.361592,0 -4.25,1.985829 -4.25,4.34375 l 0,36.71875 c 0,2.357921 1.888408,4.375 4.25,4.375 l 21.8125,0 C 61.142842,70.5 63,68.48292 63,66.125 L 63,29.40625 C 63,27.04833 61.142842,25.0625 58.78125,25.0625 l -21.8125,0 z m 0,3.03125 21.8125,0 c 0.660226,0 1.21875,0.509262 1.21875,1.3125 L 60,66.125 c 0,0.803238 -0.558524,1.34375 -1.21875,1.34375 l -21.8125,0 C 36.308524,67.46875 35.75,66.928237 35.75,66.125 l 0,-36.71875 c 0,-0.803237 0.558524,-1.3125 1.21875,-1.3125 z"
         id="path3267"
         inkscape:connector-curvature="0" />
      <path
         inkscape:connector-curvature="0"
         style="fill:black"
         d="m 41.802772,20.506254 12.121212,0 c 0.839394,0 1.515152,0.675758 1.515152,1.515152 l 0,2.592424 c 0,0.839394 -0.675758,1.515152 -1.515152,1.515152 l -12.121212,0 c -0.839394,0 -1.515151,-0.675758 -1.515151,-1.515152 l 0,-2.592424 c 0,-0.839394 0.675757,-1.515152 1.515151,-1.515152 z"
         id="path3269" />
      <path
         style="fill:black"
         inkscape:connector-curvature="0"
         d="m 37.25732,65.964154 21.212121,0 0,-25.757576 -21.212121,15.151516 z"
         id="path3271" />
    </g>
    <g
       style="opacity:0.15;fill:black"
       id="g3273"
       transform="translate(0.140625,5.479924)">
      <path
         inkscape:connector-curvature="0"
         id="path3275"
         d="m 36.96875,25.0625 c -2.361592,0 -4.25,1.985829 -4.25,4.34375 l 0,36.71875 c 0,2.357921 1.888408,4.375 4.25,4.375 l 21.8125,0 C 61.142842,70.5 63,68.48292 63,66.125 L 63,29.40625 C 63,27.04833 61.142842,25.0625 58.78125,25.0625 l -21.8125,0 z m 0,3.03125 21.8125,0 c 0.660226,0 1.21875,0.509262 1.21875,1.3125 L 60,66.125 c 0,0.803238 -0.558524,1.34375 -1.21875,1.34375 l -21.8125,0 C 36.308524,67.46875 35.75,66.928237 35.75,66.125 l 0,-36.71875 c 0,-0.803237 0.558524,-1.3125 1.21875,-1.3125 z"
         style="font-size:medium;font-style:normal;font-variant:normal;font-weight:normal;font-stretch:normal;text-indent:0;text-align:start;text-decoration:none;line-height:normal;letter-spacing:normal;word-spacing:normal;text-transform:none;direction:ltr;block-progression:tb;writing-mode:lr-tb;text-anchor:start;baseline-shift:baseline;color:black;fill:black;fill-opacity:1;stroke:none;stroke-width:3.030303;marker:none;visibility:visible;display:inline;overflow:visible;enable-background:accumulate;font-family:Sans;-inkscape-font-specification:Sans" />
      <path
         id="path3277"
         d="m 41.802772,20.506254 12.121212,0 c 0.839394,0 1.515152,0.675758 1.515152,1.515152 l 0,2.592424 c 0,0.839394 -0.675758,1.515152 -1.515152,1.515152 l -12.121212,0 c -0.839394,0 -1.515151,-0.675758 -1.515151,-1.515152 l 0,-2.592424 c 0,-0.839394 0.675757,-1.515152 1.515151,-1.515152 z"
         style="fill:black"
         inkscape:connector-curvature="0" />
      <path
         id="path3279"
         d="m 37.25732,65.964154 21.212121,0 0,-25.757576 -21.212121,15.151516 z"
         inkscape:connector-curvature="0"
         style="fill:black" />
    </g>
    <g
       transform="translate(0.140625,2.496873)"
       id="g3228">
      <path
         style="font-size:medium;font-style:normal;font-variant:normal;font-weight:normal;font-stretch:normal;text-indent:0;text-align:start;text-decoration:none;line-height:normal;letter-spacing:normal;word-spacing:normal;text-transform:none;direction:ltr;block-progression:tb;writing-mode:lr-tb;text-anchor:start;baseline-shift:baseline;color:black;fill:white;fill-opacity:1;stroke:none;stroke-width:3.030303;marker:none;visibility:visible;display:inline;overflow:visible;enable-background:accumulate;font-family:Sans;-inkscape-font-specification:Sans"
         d="m 36.96875,25.0625 c -2.361592,0 -4.25,1.985829 -4.25,4.34375 l 0,36.71875 c 0,2.357921 1.888408,4.375 4.25,4.375 l 21.8125,0 C 61.142842,70.5 63,68.48292 63,66.125 L 63,29.40625 C 63,27.04833 61.142842,25.0625 58.78125,25.0625 l -21.8125,0 z m 0,3.03125 21.8125,0 c 0.660226,0 1.21875,0.509262 1.21875,1.3125 L 60,66.125 c 0,0.803238 -0.558524,1.34375 -1.21875,1.34375 l -21.8125,0 C 36.308524,67.46875 35.75,66.928237 35.75,66.125 l 0,-36.71875 c 0,-0.803237 0.558524,-1.3125 1.21875,-1.3125 z"
         id="rect3114"
         inkscape:connector-curvature="0" />
      <path
         inkscape:connector-curvature="0"
         style="fill:white"
         d="m 41.802772,20.506254 12.121212,0 c 0.839394,0 1.515152,0.675758 1.515152,1.515152 l 0,2.592424 c 0,0.839394 -0.675758,1.515152 -1.515152,1.515152 l -12.121212,0 c -0.839394,0 -1.515151,-0.675758 -1.515151,-1.515152 l 0,-2.592424 c 0,-0.839394 0.675757,-1.515152 1.515151,-1.515152 z"
         id="rect3116" />
      <path
         style="fill:white"
         inkscape:connector-curvature="0"
         d="m 37.25732,65.964154 21.212121,0 0,-25.757576 -21.212121,15.151516 z"
         id="path3118" />
    </g>
  </g>
</svg>
