<svg height="96" width="96" xmlns="http://www.w3.org/2000/svg" xmlns:xlink="http://www.w3.org/1999/xlink" xmlns:sodipodi="http://sodipodi.sourceforge.net/DTD/sodipodi-0.dtd" xmlns:inkscape="http://www.inkscape.org/namespaces/inkscape">
 <defs>
  <linearGradient id="linearGradient4074">
   <stop stop-color="#8c8c8c" stop-opacity="1"/>
   <stop stop-color="#f5f5f5" stop-opacity="1" offset="1"/>
  </linearGradient>
  <linearGradient id="linearGradient3761">
   <stop stop-color="#ffffff" stop-opacity="1"/>
   <stop stop-color="#ffffff" stop-opacity="0" offset="1"/>
  </linearGradient>
  <linearGradient x2="0" xlink:href="#linearGradient3761" y1="6" y2="63.893" gradientUnits="userSpaceOnUse" id="linearGradient3188"/>
  <radialGradient cy="90.17" r="42" xlink:href="#linearGradient3761" gradientUnits="userSpaceOnUse" id="radialGradient3619" cx="48" gradientTransform="matrix(1.15731 0 0 0.99591 -7.551 0.197)"/>
  <linearGradient x2="0" xlink:href="#linearGradient4074" y1="90" y2="5.988" gradientUnits="userSpaceOnUse" id="linearGradient3617"/>
  <linearGradient x1="16.16" x2="76.77" gradientUnits="userSpaceOnUse" id="linearGradient3674">
   <stop stop-color="#4b4b4b" stop-opacity="1"/>
   <stop stop-color="#232323" stop-opacity="1" offset="0.374"/>
   <stop stop-color="#5c5c5c" stop-opacity="1" offset="1"/>
  </linearGradient>
  <linearGradient x1="16.16" x2="76.77" gradientUnits="userSpaceOnUse" id="linearGradient3707">
   <stop stop-color="#a4a4a4" stop-opacity="1"/>
   <stop stop-color="#bfbfbf" stop-opacity="1" offset="1"/>
  </linearGradient>
  <radialGradient cy="48" r="27" gradientUnits="userSpaceOnUse" id="radialGradient3738" cx="48" gradientTransform="matrix(0.85179 0 0 0.85179 97.11 7.113)">
   <stop stop-color="#000000" stop-opacity="0"/>
   <stop stop-color="#000000" stop-opacity="0" offset="0.95"/>
   <stop stop-color="#000000" stop-opacity="1" offset="1"/>
  </radialGradient>
  <linearGradient x1="16.16" x2="76.77" gradientUnits="userSpaceOnUse" id="linearGradient3744">
   <stop stop-color="#4c4c4c" stop-opacity="1"/>
   <stop stop-color="#0a0a0a" stop-opacity="1" offset="0.6"/>
   <stop stop-color="#4e4e4e" stop-opacity="1" offset="1"/>
  </linearGradient>
  <radialGradient cy="45.997" r="13.637" gradientUnits="userSpaceOnUse" id="radialGradient3687" cx="47.73">
   <stop stop-color="#ffffff" stop-opacity="0.185"/>
   <stop stop-color="#ffffff" stop-opacity="0.109" offset="0.309"/>
   <stop stop-color="#000000" stop-opacity="0" offset="0.436"/>
   <stop stop-color="#000000" stop-opacity="0" offset="0.545"/>
   <stop stop-color="#ffffff" stop-opacity="0" offset="0.583"/>
   <stop stop-color="#000000" stop-opacity="0.181" offset="0.615"/>
   <stop stop-color="#000000" stop-opacity="0.431" offset="0.691"/>
   <stop stop-color="#ffffff" stop-opacity="0.081" offset="0.781"/>
   <stop stop-color="#000000" stop-opacity="0" offset="0.876"/>
   <stop stop-color="#ffffff" stop-opacity="0" offset="1"/>
  </radialGradient>
  <linearGradient x1="33.2" x2="67.957" xlink:href="#linearGradient3761" gradientUnits="userSpaceOnUse" id="linearGradient3733"/>
  <linearGradient x1="40.07" x2="31.794" xlink:href="#linearGradient3761" y1="58.18" y2="49.665" gradientUnits="userSpaceOnUse" id="linearGradient3767"/>
  <linearGradient x2="0" xlink:href="#linearGradient3761" y1="58.18" y2="41.697" gradientUnits="userSpaceOnUse" id="linearGradient3771"/>
  <radialGradient cy="52" r="9.708" gradientUnits="userSpaceOnUse" id="radialGradient3803" cx="41" gradientTransform="matrix(1 0 0 0.61803 0 19.862)">
   <stop stop-color="#ffffff" stop-opacity="1"/>
   <stop stop-color="#ffffff" stop-opacity="1" offset="0.5"/>
   <stop stop-color="#ffffff" stop-opacity="0" offset="1"/>
  </radialGradient>
  <filter color-interpolation-filters="sRGB" id="filter3774">
   <feGaussianBlur stdDeviation="0.27274"/>
  </filter>
  <linearGradient x2="0" y1="92.54" y2="7.02" gradientUnits="userSpaceOnUse" id="ButtonShadow-0" gradientTransform="matrix(1.0059 0 0 0.99417 100 0)">
   <stop stop-color="#000000" stop-opacity="1"/>
   <stop stop-color="#000000" stop-opacity="0.588" offset="1"/>
  </linearGradient>
  <linearGradient x2="0" xlink:href="#ButtonShadow-0" y1="6.132" y2="90.24" gradientUnits="userSpaceOnUse" id="linearGradient3780" gradientTransform="matrix(1.02381 0 0 1.0119 -1.143 -98.07)"/>
  <linearGradient x2="0" xlink:href="#ButtonShadow-0" y1="6.132" y2="90.24" gradientUnits="userSpaceOnUse" id="linearGradient3721" gradientTransform="matrix(1 0 0 1 0 -97)"/>
  <linearGradient x2="0" y1="80" y2="5.988" gradientUnits="userSpaceOnUse" id="linearGradient4065">
   <stop stop-color="#0c0c0c" stop-opacity="1"/>
   <stop stop-color="#373737" stop-opacity="1" offset="1"/>
  </linearGradient>
  <linearGradient x1="16.16" x2="76.838" gradientUnits="userSpaceOnUse" id="linearGradient4080">
   <stop stop-color="#000000" stop-opacity="0.42"/>
   <stop stop-color="#000000" stop-opacity="0" offset="0.5"/>
   <stop stop-color="#ffffff" stop-opacity="0.217" offset="1"/>
  </linearGradient>
  <linearGradient x1="15.343" x2="77.59" gradientUnits="userSpaceOnUse" id="linearGradient4139">
   <stop stop-color="#1a1a1a" stop-opacity="1"/>
   <stop stop-color="#292929" stop-opacity="1" offset="1"/>
  </linearGradient>
  <linearGradient x1="64.07" x2="46.605" xlink:href="#linearGradient3761" y1="64.04" y2="46.569" gradientUnits="userSpaceOnUse" id="linearGradient4192"/>
  <linearGradient x2="0" xlink:href="#linearGradient4074" y1="22" y2="6" gradientUnits="userSpaceOnUse" id="linearGradient4206" gradientTransform="matrix(1 0 0 1 0 -20)"/>
  <linearGradient x2="0" y1="23" y2="17" gradientUnits="userSpaceOnUse" id="linearGradient4241" gradientTransform="matrix(1 0 0 1 0 -2)">
   <stop stop-color="#5dbc1e" stop-opacity="1"/>
   <stop stop-color="#acc837" stop-opacity="1" offset="1"/>
  </linearGradient>
  <rect x="6" rx="6" y="6" fill="url(#linearGradient3617)" fill-opacity="1" stroke="none" fill-rule="nonzero" height="84" id="SVGCleanerId_0" width="84"/>
  <path d="m 76.771595,44.48222 a 30.304577,30.304577 0 1 1 -60.609154,0 30.304577,30.304577 0 1 1 60.609154,0 z" id="SVGCleanerId_1"/>
  <path d="m 61.366765,45.997448 a 13.637059,13.637059 0 1 1 -27.274118,0 13.637059,13.637059 0 1 1 27.274118,0 z" id="SVGCleanerId_2"/>
  <path d="m 50.708204,52 a 9.7082043,6 0 1 1 -19.416408,0 9.7082043,6 0 1 1 19.416408,0 z" fill-opacity="1" stroke="none" id="SVGCleanerId_3"/>
 </defs>
 <path d="m 12,-95.03125 c -5.5110903,0 -10.03125,4.52016 -10.03125,10.03125 l 0,71 c 0,5.5110902 4.5201598,10.03125 10.03125,10.03125 l 72,0 c 5.51109,0 10.03125,-4.5201597 10.03125,-10.03125 l 0,-71 c 0,-5.51109 -4.52016,-10.03125 -10.03125,-10.03125 l -72,0 z" display="inline" fill="url(#linearGradient3780)" fill-opacity="1" fill-rule="nonzero" stroke="none" opacity="0.08" transform="matrix(1 0 0 -1 0 0)"/>
 <path d="m 12,-94.03125 c -4.971633,0 -9.03125,4.059617 -9.03125,9.03125 l 0,71 c 0,4.9716329 4.0596171,9.03125 9.03125,9.03125 l 72,0 c 4.971633,0 9.03125,-4.059617 9.03125,-9.03125 l 0,-71 c 0,-4.971633 -4.059617,-9.03125 -9.03125,-9.03125 l -72,0 z" display="inline" fill="url(#linearGradient3780)" fill-opacity="1" fill-rule="nonzero" stroke="none" opacity="0.1" transform="matrix(1 0 0 -1 0 0)"/>
 <path d="m 12,-93 c -4.4091333,0 -8,3.590867 -8,8 l 0,71 c 0,4.4091333 3.5908667,8 8,8 l 72,0 c 4.409133,0 8,-3.5908667 8,-8 l 0,-71 c 0,-4.409133 -3.590867,-8 -8,-8 l -72,0 z" display="inline" fill="url(#linearGradient3780)" fill-opacity="1" fill-rule="nonzero" stroke="none" opacity="0.2" transform="matrix(1 0 0 -1 0 0)"/>
 <rect x="5" rx="7" display="inline" y="-92" fill="url(#linearGradient3780)" fill-opacity="1" fill-rule="nonzero" stroke="none" height="85" opacity="0.3" width="86" transform="matrix(1 0 0 -1 0 0)"/>
 <rect x="6" rx="6" display="inline" y="-91" fill="url(#linearGradient3721)" fill-opacity="1" fill-rule="nonzero" stroke="none" height="84" opacity="0.45" width="84" transform="matrix(1 0 0 -1 0 0)"/>
 <g display="inline">
  <use xlink:href="#SVGCleanerId_0"/>
  <path d="M 12,6 C 8.676,6 6,8.676 6,12 l 0,2 0,68 0,2 c 0,0.334721 0.04135,0.6507 0.09375,0.96875 0.0487,0.295596 0.09704,0.596915 0.1875,0.875 0.00988,0.03038 0.020892,0.0636 0.03125,0.09375 0.098865,0.287771 0.2348802,0.547452 0.375,0.8125 0.1445918,0.273507 0.3156161,0.535615 0.5,0.78125 0.1843839,0.245635 0.3737765,0.473472 0.59375,0.6875 0.439947,0.428056 0.94291,0.814526 1.5,1.09375 0.278545,0.139612 0.5734731,0.246947 0.875,0.34375 -0.2562018,-0.100222 -0.4867109,-0.236272 -0.71875,-0.375 -0.00741,-0.0044 -0.023866,0.0045 -0.03125,0 -0.031933,-0.0193 -0.062293,-0.04251 -0.09375,-0.0625 -0.120395,-0.0767 -0.2310226,-0.163513 -0.34375,-0.25 -0.1061728,-0.0808 -0.2132809,-0.161112 -0.3125,-0.25 C 8.4783201,88.557317 8.3087904,88.373362 8.15625,88.1875 8.0486711,88.057245 7.9378561,87.922215 7.84375,87.78125 7.818661,87.74287 7.805304,87.69538 7.78125,87.65625 7.716487,87.553218 7.6510225,87.451733 7.59375,87.34375 7.4927417,87.149044 7.3880752,86.928049 7.3125,86.71875 7.30454,86.69694 7.288911,86.6782 7.28125,86.65625 7.2494249,86.5643 7.2454455,86.469419 7.21875,86.375 7.1884177,86.268382 7.1483606,86.171969 7.125,86.0625 7.0521214,85.720988 7,85.364295 7,85 L 7,83 7,15 7,13 C 7,10.218152 9.2181517,8 12,8 l 2,0 68,0 2,0 c 2.781848,0 5,2.218152 5,5 l 0,2 0,68 0,2 c 0,0.364295 -0.05212,0.720988 -0.125,1.0625 -0.04415,0.206893 -0.08838,0.397658 -0.15625,0.59375 -0.0077,0.02195 -0.0233,0.04069 -0.03125,0.0625 -0.06274,0.173739 -0.138383,0.367449 -0.21875,0.53125 -0.04158,0.0828 -0.07904,0.169954 -0.125,0.25 -0.0546,0.09721 -0.126774,0.18835 -0.1875,0.28125 -0.09411,0.140965 -0.204921,0.275995 -0.3125,0.40625 -0.143174,0.17445 -0.303141,0.346998 -0.46875,0.5 -0.01117,0.0102 -0.01998,0.02115 -0.03125,0.03125 -0.138386,0.125556 -0.285091,0.234436 -0.4375,0.34375 -0.102571,0.07315 -0.204318,0.153364 -0.3125,0.21875 -0.0074,0.0045 -0.02384,-0.0044 -0.03125,0 -0.232039,0.138728 -0.462548,0.274778 -0.71875,0.375 0.301527,-0.0968 0.596455,-0.204138 0.875,-0.34375 0.55709,-0.279224 1.060053,-0.665694 1.5,-1.09375 0.219973,-0.214028 0.409366,-0.441865 0.59375,-0.6875 0.184384,-0.245635 0.355408,-0.507743 0.5,-0.78125 0.14012,-0.265048 0.276135,-0.524729 0.375,-0.8125 0.01041,-0.03078 0.02133,-0.06274 0.03125,-0.09375 0.09046,-0.278085 0.1388,-0.579404 0.1875,-0.875 C 89.95865,84.6507 90,84.334721 90,84 l 0,-2 0,-68 0,-2 C 90,8.676 87.324,6 84,6 L 12,6 z" fill="url(#linearGradient3188)" fill-opacity="1" fill-rule="nonzero" stroke="none" opacity="0.45" inkscape:connector-curvature="0"/>
  <path d="M 29.46875,6 C 28.866494,7.0420201 28.853249,8.5947213 28.25,9.59375 24.407746,18.599457 17.964348,26.435682 15.625,36.09375 12.921247,46.18406 13.189349,57.571781 18.90625,66.625 25.81459,78.365264 40.199375,84.963488 53.59375,82.5625 67.75379,80.399516 79.640145,68.373062 81.625,54.1875 83.246397,42.653573 79.770176,30.932552 73.8125,21.09375 71.052095,16.248623 68.041756,11.418168 66.5625,6 L 29.46875,6 z" fill="#000000" fill-opacity="1" fill-rule="nonzero" stroke="none" opacity="0.08" inkscape:connector-curvature="0"/>
  <path d="M 31.125,6.03125 A 0.9707779,0.9707779 0 0 0 30.28125,6.75 c -1.49798,5.805839 -5.074305,10.941167 -8.4375,17.125 -3.359481,6.177004 -6.462116,13.424481 -6.78125,23.40625 -3.53e-4,0.01104 3.46e-4,0.02021 0,0.03125 -0.02769,0.564157 -0.03125,1.141108 -0.03125,1.6875 0,18.197707 14.771043,32.96875 32.96875,32.96875 18.197707,0 32.96875,-14.771043 32.96875,-32.96875 0,-0.546392 -0.0036,-1.123343 -0.03125,-1.6875 -3.46e-4,-0.01104 3.53e-4,-0.02021 0,-0.03125 C 80.618366,37.299481 77.515731,30.052004 74.15625,23.875 70.793055,17.691167 67.21673,12.555839 65.71875,6.75 a 0.9707779,0.9707779 0 0 0 -0.9375,-0.71875 l -33.5625,0 a 0.9707779,0.9707779 0 0 0 -0.09375,0 z" fill="#000000" fill-opacity="1" fill-rule="nonzero" stroke="none" opacity="0.15"/>
  <path d="M 31.21875,7 C 28.106818,19.061157 16.646384,27.714381 16.03125,47.34375 16.003603,47.889164 16,48.447715 16,49 16,66.673112 30.326888,81 48,81 65.673112,81 80,66.673112 80,49 80,48.447715 79.996397,47.889164 79.96875,47.34375 79.353616,27.714381 67.893182,19.061157 64.78125,7 l -33.5625,0 z" fill="#000000" fill-opacity="1" fill-rule="nonzero" stroke="none" opacity="0.3" inkscape:connector-curvature="0"/>
  <path d="M 31.21875,6 C 28.106818,18.061157 16.646384,26.714381 16.03125,46.34375 16.003603,46.889164 16,47.447715 16,48 16,65.673112 30.326888,80 48,80 65.673112,80 80,65.673112 80,48 80,47.447715 79.996397,46.889164 79.96875,46.34375 79.353616,26.714381 67.893182,18.061157 64.78125,6 l -33.5625,0 z" fill="url(#linearGradient4065)" fill-opacity="1" fill-rule="nonzero" stroke="none" inkscape:connector-curvature="0"/>
  <path d="M 12,90 C 8.676,90 6,87.324 6,84 L 6,82 6,14 6,12 c 0,-0.334721 0.04135,-0.6507 0.09375,-0.96875 0.0487,-0.295596 0.09704,-0.596915 0.1875,-0.875 C 6.29113,10.12587 6.302142,10.09265 6.3125,10.0625 6.411365,9.774729 6.5473802,9.515048 6.6875,9.25 6.8320918,8.976493 7.0031161,8.714385 7.1875,8.46875 7.3718839,8.223115 7.5612765,7.995278 7.78125,7.78125 8.221197,7.353194 8.72416,6.966724 9.28125,6.6875 9.559795,6.547888 9.8547231,6.440553 10.15625,6.34375 9.9000482,6.443972 9.6695391,6.580022 9.4375,6.71875 c -0.00741,0.0044 -0.023866,-0.0045 -0.03125,0 -0.031933,0.0193 -0.062293,0.04251 -0.09375,0.0625 -0.120395,0.0767 -0.2310226,0.163513 -0.34375,0.25 -0.1061728,0.0808 -0.2132809,0.161112 -0.3125,0.25 C 8.4783201,7.442683 8.3087904,7.626638 8.15625,7.8125 8.0486711,7.942755 7.9378561,8.077785 7.84375,8.21875 7.818661,8.25713 7.805304,8.30462 7.78125,8.34375 7.716487,8.446782 7.6510225,8.548267 7.59375,8.65625 7.4927417,8.850956 7.3880752,9.071951 7.3125,9.28125 7.30454,9.30306 7.288911,9.3218 7.28125,9.34375 7.2494249,9.4357 7.2454455,9.530581 7.21875,9.625 7.1884177,9.731618 7.1483606,9.828031 7.125,9.9375 7.0521214,10.279012 7,10.635705 7,11 l 0,2 0,68 0,2 c 0,2.781848 2.2181517,5 5,5 l 2,0 68,0 2,0 c 2.781848,0 5,-2.218152 5,-5 l 0,-2 0,-68 0,-2 C 89,10.635705 88.94788,10.279012 88.875,9.9375 88.83085,9.730607 88.78662,9.539842 88.71875,9.34375 88.71105,9.3218 88.69545,9.30306 88.6875,9.28125 88.62476,9.107511 88.549117,8.913801 88.46875,8.75 88.42717,8.6672 88.38971,8.580046 88.34375,8.5 88.28915,8.40279 88.216976,8.31165 88.15625,8.21875 88.06214,8.077785 87.951329,7.942755 87.84375,7.8125 87.700576,7.63805 87.540609,7.465502 87.375,7.3125 87.36383,7.3023 87.35502,7.29135 87.34375,7.28125 87.205364,7.155694 87.058659,7.046814 86.90625,6.9375 86.803679,6.86435 86.701932,6.784136 86.59375,6.71875 c -0.0074,-0.0045 -0.02384,0.0044 -0.03125,0 -0.232039,-0.138728 -0.462548,-0.274778 -0.71875,-0.375 0.301527,0.0968 0.596455,0.204138 0.875,0.34375 0.55709,0.279224 1.060053,0.665694 1.5,1.09375 0.219973,0.214028 0.409366,0.441865 0.59375,0.6875 0.184384,0.245635 0.355408,0.507743 0.5,0.78125 0.14012,0.265048 0.276135,0.524729 0.375,0.8125 0.01041,0.03078 0.02133,0.06274 0.03125,0.09375 0.09046,0.278085 0.1388,0.579404 0.1875,0.875 C 89.95865,11.3493 90,11.665279 90,12 l 0,2 0,68 0,2 c 0,3.324 -2.676,6 -6,6 l -72,0 z" fill="url(#radialGradient3619)" fill-opacity="1" fill-rule="nonzero" stroke="none" opacity="0.15" inkscape:connector-curvature="0"/>
  <use xlink:href="#SVGCleanerId_1" fill="url(#linearGradient4080)" fill-opacity="1" stroke="none" transform="matrix(0 0.79196 -0.79196 0 173.23 11.2)"/>
  <path d="m 16,47.5 c -0.0012,0.167276 0,0.333332 0,0.5 0,17.673112 14.326888,32 32,32 17.673112,0 32,-14.326888 32,-32 0,-0.166668 0.0012,-0.332724 0,-0.5 C 79.733293,64.942958 65.506444,79 48,79 30.493556,79 16.266707,64.942958 16,47.5 z" fill="#000000" fill-opacity="1" fill-rule="nonzero" stroke="none" inkscape:connector-curvature="0"/>
  <path d="M 44,5.96875 A 1.0203942,1.0203942 0 0 0 42.96875,7 l 0,2 c 0,1.844531 0.487315,3.527847 1.34375,4.8125 0.856435,1.284653 2.168805,2.21875 3.6875,2.21875 1.518695,0 2.831065,-0.934097 3.6875,-2.21875 C 52.543935,12.527847 53.03125,10.844531 53.03125,9 l 0,-2 A 1.0203942,1.0203942 0 0 0 52,5.96875 l -8,0 z" stroke-width="2" fill="#000000" color="#000000" fill-opacity="1" fill-rule="nonzero" stroke="none" opacity="0.15" visibility="visible" transform="matrix(1 0 0 1 0 -20)"/>
  <path d="m 44,-13 0,2 c 0,3.324 1.784,6 4,6 2.216,0 4,-2.676 4,-6 l 0,-2 -8,0 z" stroke-width="2" fill="#000000" color="#000000" fill-opacity="1" fill-rule="nonzero" stroke="none" opacity="0.3" visibility="visible" inkscape:connector-curvature="0"/>
  <path d="m 44,-14 0,2 c 0,3.324 1.784,6 4,6 2.216,0 4,-2.676 4,-6 l 0,-2 -8,0 z" stroke-width="2" fill="url(#linearGradient4206)" color="#000000" fill-opacity="1" fill-rule="nonzero" stroke="none" visibility="visible" inkscape:connector-curvature="0"/>
  <path d="m 44,-13 0,1 c 0,3.324 1.784,6 4,6 2.216,0 4,-2.676 4,-6 l 0,-1 c 0,3.324 -1.784,6 -4,6 -2.216,0 -4,-2.676 -4,-6 z" stroke-width="2" fill="#000000" color="#000000" fill-opacity="1" fill-rule="nonzero" stroke="none" opacity="0.15" visibility="visible" inkscape:connector-curvature="0"/>
  <path d="m 31.21875,6 c -0.175451,0.6800091 -0.399914,1.3390787 -0.625,2 l 34.8125,0 C 65.181164,7.3390787 64.956701,6.6800091 64.78125,6 l -33.5625,0 z" fill="url(#linearGradient3188)" fill-opacity="1" fill-rule="nonzero" stroke="none" opacity="0.15" inkscape:connector-curvature="0"/>
  <path d="m 42,21 6,-2 6,2 -6,-6 z" fill="url(#linearGradient4241)" fill-opacity="1" stroke="none" inkscape:connector-curvature="0"/>
  <path d="M 48,14 42,20 43.5,19.5 48,15 52.5,19.5 54,20 48,14 z" fill="#000000" fill-opacity="1" stroke="none" opacity="0.4" inkscape:connector-curvature="0"/>
  <path d="M 48,15 42,21 43.5,20.5 48,16 52.5,20.5 54,21 48,15 z" fill="#ffffff" fill-opacity="1" stroke="none" opacity="0.3" inkscape:connector-curvature="0"/>
 </g>
 <g display="inline">
  <path d="m 46.46875,10.375 c -18.81247,0 -34.125,15.276639 -34.125,34.09375 0,18.816893 15.308107,34.125 34.125,34.125 18.816893,0 34.125,-15.308107 34.125,-34.125 0,-18.817111 -15.31253,-34.09375 -34.125,-34.09375 z" fill="#000000" fill-opacity="1" stroke="none" opacity="0.05" transform="matrix(0 -0.75896 -0.75896 0 81.76 84.27)"/>
  <path d="m 46.46875,11.75 c -18.061089,0 -32.75,14.654652 -32.75,32.71875 0,18.064028 14.685972,32.75 32.75,32.75 18.064028,0 32.75,-14.685972 32.75,-32.75 0,-18.064098 -14.688911,-32.71875 -32.75,-32.71875 z" fill="#000000" fill-opacity="1" stroke="none" opacity="0.08" transform="matrix(0 -0.75896 -0.75896 0 81.76 84.27)"/>
  <path d="m 46.46875,12.8125 c -17.480704,0 -31.6875,14.17383 -31.6875,31.65625 0,17.48242 14.20508,31.6875 31.6875,31.6875 17.48242,0 31.6875,-14.20508 31.6875,-31.6875 0,-17.48242 -14.206796,-31.65625 -31.6875,-31.65625 z" fill="#000000" fill-opacity="1" stroke="none" opacity="0.15" transform="matrix(0 -0.75896 -0.75896 0 81.76 84.27)"/>
  <use xlink:href="#SVGCleanerId_1" fill="#000000" fill-opacity="1" stroke="none" opacity="0.3" transform="matrix(0 -0.75896 -0.75896 0 81.76 84.27)"/>
  <use xlink:href="#SVGCleanerId_1" fill="url(#linearGradient3674)" fill-opacity="1" stroke="none" transform="matrix(0.65333 0.65333 -0.65333 0.65333 136.7 -11.42)"/>
  <use stroke-width="0.449" xlink:href="#SVGCleanerId_1" fill="none" stroke="#000000" stroke-dasharray="none" stroke-miterlimit="4" transform="matrix(0 1.11369 -1.11369 0 187.54 -3.75)"/>
  <use xlink:href="#SVGCleanerId_1" fill="url(#linearGradient3707)" fill-opacity="1" stroke="none" transform="matrix(0 -0.75896 -0.75896 0 81.76 83.27)"/>
  <path d="m 138,25 c -5.88581,0 -11.7732,2.243847 -16.26392,6.73472 -8.98144,8.981749 -8.98144,23.547221 0,32.528968 8.98144,8.981749 23.5464,8.981749 32.52784,0 8.98144,-8.981747 8.98144,-23.547219 0,-32.528968 C 149.7732,27.243847 143.88581,25 138,25 z m 0,2.129556 c 5.34082,0 10.67175,2.047421 14.74667,6.122474 8.14982,8.150104 8.14982,21.344247 0,29.49435 -8.14983,8.150106 -21.34351,8.150106 -29.49334,0 -8.14982,-8.150103 -8.14982,-21.344246 0,-29.49435 4.07492,-4.075053 9.40585,-6.122474 14.74667,-6.122474 z" fill="url(#radialGradient3738)" fill-opacity="1" stroke="none" opacity="0.6" inkscape:connector-curvature="0"/>
  <use stroke-width="1.638" xlink:href="#SVGCleanerId_1" fill="url(#linearGradient3744)" fill-opacity="1" stroke="url(#linearGradient4139)" stroke-dasharray="none" stroke-miterlimit="4" transform="matrix(0 0.61047 -0.61047 0 75.16 19.633)"/>
  <path d="m 48,25 c -12.702549,0 -23,10.297451 -23,23 0,0.167023 -0.0035,0.333826 0,0.5 C 25.265891,36.028237 35.464474,26 48,26 60.535526,26 70.734109,36.028237 71,48.5 71.003543,48.333826 71,48.167023 71,48 71,35.297451 60.702549,25 48,25 z M 29.03125,48.5 C 29.026845,48.668301 29,48.830636 29,49 29,59.49341 37.50659,68 48,68 58.49341,68 67,59.49341 67,49 67,48.830636 66.973155,48.668301 66.96875,48.5 66.70026,58.759276 58.324046,67 48,67 37.675954,67 29.29974,58.759276 29.03125,48.5 z" fill="#ffffff" fill-opacity="1" stroke="none" opacity="0.3" inkscape:connector-curvature="0"/>
 </g>
 <g display="inline">
  <use xlink:href="#SVGCleanerId_2" fill="#000000" fill-opacity="1" stroke="none" transform="matrix(1.02661 0 0 1.02661 -1 0.778)"/>
  <path d="M 47.5,33 C 39.491871,33 33,39.491871 33,47.5 33,55.508129 39.491871,62 47.5,62 c 0.08504,0 0.165309,0.0015 0.25,0 C 40.133878,61.866031 34,55.648102 34,48 c 0,-7.731986 6.268014,-14 14,-14 7.648102,0 13.866031,6.133878 14,13.75 0.0015,-0.08469 0,-0.164961 0,-0.25 C 62,39.491871 55.508129,33 47.5,33 z" fill="#000000" fill-opacity="1" stroke="none" opacity="0.6" inkscape:connector-curvature="0"/>
  <use xlink:href="#SVGCleanerId_2" fill="url(#radialGradient3687)" fill-opacity="1" stroke="none" transform="matrix(1.02661 0 0 1.02661 -1 0.778)"/>
  <use stroke-opacity="1" stroke-width="0.515" xlink:href="#SVGCleanerId_2" fill="none" stroke="url(#linearGradient3733)" stroke-dasharray="none" filter="url(#filter3774)" stroke-miterlimit="4" transform="matrix(0 0.97162 -0.97162 0 92.69 1.625)"/>
  <path d="m 41.34375,47.375 c 0.07082,-0.767299 0.285421,-1.486362 0.59375,-2.15625 L 37.34375,42.8125 c -0.603997,1.243084 -1.018186,2.621977 -1.15625,4.0625 l 5.15625,0.5 z m 1.375,-3.4375 c 1.071033,-1.389071 2.667628,-2.34897 4.5,-2.5625 L 46.625,36.21875 c -3.598468,0.417087 -6.654118,2.435762 -8.53125,5.3125 l 4.625,2.40625 z" fill="#ffffff" fill-opacity="1" stroke="none" opacity="0.6" inkscape:connector-curvature="0"/>
  <use xlink:href="#SVGCleanerId_3" fill="url(#linearGradient3767)" opacity="0.431" transform="matrix(0.58269 -0.58269 0.58269 0.58269 -0.744 46.936)"/>
  <use xlink:href="#SVGCleanerId_3" fill="url(#linearGradient3771)" opacity="0.3" transform="matrix(0.15077 -0.15077 0.15077 0.15077 37.39 49.65)"/>
  <use xlink:href="#SVGCleanerId_3" fill="url(#linearGradient3771)" opacity="0.3" transform="matrix(-0.10758 0.10758 -0.10758 -0.10758 55.999 47.08)"/>
  <use xlink:href="#SVGCleanerId_3" fill="url(#linearGradient3771)" opacity="0.431" transform="matrix(-0.19359 0.19359 -0.19359 -0.19359 59.19 43.22)"/>
  <use xlink:href="#SVGCleanerId_3" fill="url(#linearGradient3771)" opacity="0.6" transform="matrix(0.08969 -0.08969 0.08969 0.08969 40.497 47.751)"/>
  <use xlink:href="#SVGCleanerId_2" fill="#ff00ff" fill-opacity="1" stroke="none" opacity="0.6" transform="matrix(1.02661 0 0 1.02661 69 0.778)"/>
  <path d="m 48,32 c -8.836556,0 -16,7.163444 -16,16 0,8.836556 7.163444,16 16,16 8.836556,0 16,-7.163444 16,-16 0,-8.836556 -7.163444,-16 -16,-16 z m 0,1 c 8.284271,0 15,6.715729 15,15 0,8.284271 -6.715729,15 -15,15 -8.284271,0 -15,-6.715729 -15,-15 0,-8.284271 6.715729,-15 15,-15 z" fill="url(#linearGradient4192)" fill-opacity="1" stroke="none" opacity="0.5" inkscape:connector-curvature="0"/>
 </g>
 <g display="inline">
  <use xlink:href="#SVGCleanerId_3" fill="url(#radialGradient3803)" transform="matrix(0.23288 -0.23288 0.23288 0.23288 33.27 52.14)"/>
  <use xlink:href="#SVGCleanerId_2" fill="#5f8dd3" fill-opacity="1" stroke="none" opacity="0.3" transform="matrix(1.02661 0 0 1.02661 -1 0.778)"/>
 </g>
</svg>
