<svg height="16" width="16" xmlns="http://www.w3.org/2000/svg" xmlns:sodipodi="http://sodipodi.sourceforge.net/DTD/sodipodi-0.dtd" xmlns:inkscape="http://www.inkscape.org/namespaces/inkscape">
 <path d="M 5.4999998,2 C 4.0466972,2.5019 4.2468292,3.37659 3.0000002,4 l -1,0 c -1.108,0 -2,0.892 -2,2 l 0,6 c 0,1.108 0.892,2 2,2 L 14,14 c 1.108,0 2,-0.892 2,-2 L 16,6 C 16,4.892 15.108,4 14,4 L 13,4 C 11.753171,3.37659 11.953303,2.5019 10.5,2 L 5.4999998,2 z m 2.5,3.5 C 9.6568538,5.5 11,6.84315 11,8.5 c 0,1.65685 -1.3431462,3 -3.0000002,3 -1.656854,0 -3,-1.34315 -3,-3 0,-1.65685 1.343146,-3 3,-3 z" stroke-width="1" display="inline" fill="#666666" color="#000000" fill-opacity="1" fill-rule="nonzero" stroke="none" visibility="visible" inkscape:connector-curvature="0"/>
</svg>
