<?xml version="1.0" encoding="UTF-8" standalone="no"?>
<svg
   xmlns:dc="http://purl.org/dc/elements/1.1/"
   xmlns:cc="http://creativecommons.org/ns#"
   xmlns:rdf="http://www.w3.org/1999/02/22-rdf-syntax-ns#"
   xmlns:svg="http://www.w3.org/2000/svg"
   xmlns="http://www.w3.org/2000/svg"
   xmlns:xlink="http://www.w3.org/1999/xlink"
   xmlns:sodipodi="http://sodipodi.sourceforge.net/DTD/sodipodi-0.dtd"
   xmlns:inkscape="http://www.inkscape.org/namespaces/inkscape"
   height="96"
   width="96"
   id="svg2"
   version="1.1"
   inkscape:version="0.91 r13725"
   sodipodi:docname="computer.svg">
  <metadata
     id="metadata88">
    <rdf:RDF>
      <cc:Work
         rdf:about="">
        <dc:format>image/svg+xml</dc:format>
        <dc:type
           rdf:resource="http://purl.org/dc/dcmitype/StillImage" />
      </cc:Work>
    </rdf:RDF>
  </metadata>
  <sodipodi:namedview
     pagecolor="#ffffff"
     bordercolor="#666666"
     borderopacity="1"
     objecttolerance="10"
     gridtolerance="10"
     guidetolerance="10"
     inkscape:pageopacity="0"
     inkscape:pageshadow="2"
     inkscape:window-width="640"
     inkscape:window-height="480"
     id="namedview86"
     showgrid="false"
     inkscape:zoom="3.4766083"
     inkscape:cx="34.9811"
     inkscape:cy="42.501211"
     inkscape:current-layer="svg2" />
  <defs
     id="defs4">
    <linearGradient
       inkscape:collect="always"
       id="linearGradient4212">
      <stop
         style="stop-color:#b5b5b5;stop-opacity:1;"
         offset="0"
         id="stop4214" />
      <stop
         style="stop-color:#f1f1f1;stop-opacity:1"
         offset="1"
         id="stop4216" />
    </linearGradient>
    <linearGradient
       gradientTransform="matrix(1.0729,0,0,1.0417,-5.127,-2.459)"
       id="linearGradient251977"
       gradientUnits="userSpaceOnUse"
       y2="5.988"
       y1="90"
       x2="0">
      <stop
         style="stop-color:#a8a8a8;stop-opacity:1"
         id="stop4206"
         stop-color="#1d5282" />
      <stop
         style="stop-color:#f9f9f9;stop-opacity:1"
         id="stop4208"
         offset="1"
         stop-color="#568ec2" />
    </linearGradient>
    <linearGradient
       x2="0"
       xlink:href="#linearGradient3687"
       y1="16.13"
       y2="69.69"
       gradientUnits="userSpaceOnUse"
       id="linearGradient2675" />
    <linearGradient
       id="linearGradient3687">
      <stop
         stop-color="#ffffff"
         stop-opacity="1"
         id="stop8" />
      <stop
         stop-color="#ffffff"
         stop-opacity="0"
         offset="1"
         id="stop10" />
    </linearGradient>
    <radialGradient
       cy="-15.894"
       r="35.938"
       gradientUnits="userSpaceOnUse"
       id="radialGradient3465"
       cx="48"
       gradientTransform="matrix(0.0044146,-1.2540342,1.2054132,0.00590808,67.117286,127.47946)">
      <stop
         stop-color="#55a6eb"
         stop-opacity="1"
         id="stop13" />
      <stop
         stop-color="#1754c4"
         stop-opacity="1"
         offset="1"
         id="stop15" />
    </radialGradient>
    <linearGradient
       x2="0"
       xlink:href="#linearGradient3687"
       y1="6"
       y2="63.893"
       gradientUnits="userSpaceOnUse"
       id="linearGradient3188"
       gradientTransform="matrix(0.83675757,0,0,0.83675757,7.8356999,3.9794545)" />
    <filter
       x="-0.168"
       y="-0.42"
       height="1.84"
       color-interpolation-filters="sRGB"
       id="filter3531"
       width="1.336">
      <feGaussianBlur
         stdDeviation="0.55"
         id="feGaussianBlur19" />
    </filter>
    <linearGradient
       x1="10.899"
       x2="67.26"
       xlink:href="#linearGradient3687"
       y1="20.867"
       y2="64.56"
       gradientUnits="userSpaceOnUse"
       id="linearGradient3701"
       gradientTransform="translate(-80,0)" />
    <linearGradient
       x2="0"
       y1="90"
       y2="5.988"
       gradientUnits="userSpaceOnUse"
       id="linearGradient3735"
       gradientTransform="translate(114.30509,1.6271187)">
      <stop
         stop-color="#dcdcdc"
         stop-opacity="1"
         id="stop23" />
      <stop
         stop-color="#f0f0f0"
         stop-opacity="1"
         offset="1"
         id="stop25" />
    </linearGradient>
    <linearGradient
       x2="0"
       xlink:href="#linearGradient3687"
       y1="16.13"
       y2="64.19"
       gradientUnits="userSpaceOnUse"
       id="linearGradient4126"
       gradientTransform="translate(-80,0)" />
    <linearGradient
       x2="0"
       xlink:href="#linearGradient3687"
       y1="9.06"
       y2="87.87"
       gradientUnits="userSpaceOnUse"
       id="linearGradient4151" />
    <filter
       color-interpolation-filters="sRGB"
       id="filter4161">
      <feGaussianBlur
         stdDeviation="0.50332"
         id="feGaussianBlur30" />
    </filter>
    <radialGradient
       cy="90.17"
       r="42"
       xlink:href="#linearGradient3687"
       gradientUnits="userSpaceOnUse"
       id="radialGradient2874"
       cx="48"
       gradientTransform="matrix(1.15731,0,0,0.99591,105.94053,4.2647967)" />
    <linearGradient
       x2="0"
       y1="92.54"
       y2="7.02"
       gradientUnits="userSpaceOnUse"
       id="ButtonShadow-0"
       gradientTransform="matrix(1.0059 0 0 0.99417 100 0)">
      <stop
         stop-color="#000000"
         stop-opacity="1"
         id="stop34" />
      <stop
         stop-color="#000000"
         stop-opacity="0.588"
         offset="1"
         id="stop36" />
    </linearGradient>
    <linearGradient
       x2="0"
       xlink:href="#ButtonShadow-0"
       y1="6.132"
       y2="90.24"
       gradientUnits="userSpaceOnUse"
       id="linearGradient3780"
       gradientTransform="matrix(1.02381,0,0,1.0119,-1.143,-98.07)" />
    <linearGradient
       x2="0"
       xlink:href="#ButtonShadow-0"
       y1="6.132"
       y2="90.24"
       gradientUnits="userSpaceOnUse"
       id="linearGradient3721"
       gradientTransform="translate(0,-97)" />
    <linearGradient
       gradientTransform="matrix(1.0059 0 0 0.99417 0 0)"
       id="ButtonShadow"
       gradientUnits="userSpaceOnUse"
       y2="7.02"
       y1="92.54"
       x2="0">
      <stop
         id="stop12"
         stop-opacity="1"
         stop-color="#000000" />
      <stop
         id="stop14"
         offset="1"
         stop-opacity="0.588"
         stop-color="#000000" />
    </linearGradient>
    <linearGradient
       id="linearGradient3188-2"
       gradientUnits="userSpaceOnUse"
       y2="63.893"
       y1="6"
       xlink:href="#linearGradient3687"
       x2="0" />
    <radialGradient
       gradientTransform="matrix(1.15731 0 0 0.99591 -7.551 0.197)"
       cx="48"
       id="radialGradient3619"
       gradientUnits="userSpaceOnUse"
       xlink:href="#linearGradient3687"
       r="42"
       cy="90.17" />
    <linearGradient
       gradientTransform="matrix(0 -1 1 0 0 0)"
       id="linearGradient3761"
       gradientUnits="userSpaceOnUse"
       y2="88"
       y1="8"
       x2="0">
      <stop
         id="stop19"
         stop-opacity="1"
         stop-color="#666666" />
      <stop
         id="stop21"
         offset="0.25"
         stop-opacity="1"
         stop-color="#e6e6e6" />
      <stop
         id="stop23-3"
         offset="0.513"
         stop-opacity="1"
         stop-color="#808080" />
      <stop
         id="stop25-0"
         offset="1"
         stop-opacity="1"
         stop-color="#474747" />
    </linearGradient>
    <linearGradient
       id="linearGradient3777"
       gradientUnits="userSpaceOnUse"
       x2="64"
       x1="32">
      <stop
         id="stop28"
         stop-opacity="1"
         stop-color="#d9d9d9" />
      <stop
         id="stop30"
         offset="0.25"
         stop-opacity="1"
         stop-color="#c6c6c6" />
      <stop
         id="stop32"
         offset="1"
         stop-opacity="1"
         stop-color="#696969" />
    </linearGradient>
    <linearGradient
       gradientTransform="matrix(1 0 0 1 -2 0)"
       id="linearGradient3839"
       gradientUnits="userSpaceOnUse"
       y2="120.02"
       y1="6"
       xlink:href="#linearGradient3687"
       x2="0" />
    <linearGradient
       gradientTransform="matrix(0.57143 0 0 1 50.857 0)"
       id="linearGradient3843"
       gradientUnits="userSpaceOnUse"
       y2="72.02"
       y1="6"
       xlink:href="#linearGradient3687"
       x2="0" />
    <linearGradient
       gradientTransform="matrix(0.2381 0 0 1 47.19 -96)"
       id="linearGradient3873"
       gradientUnits="userSpaceOnUse"
       y2="72.02"
       y1="6"
       xlink:href="#linearGradient3687"
       x2="0" />
    <linearGradient
       gradientTransform="matrix(-1 0 0 1 96 0)"
       id="linearGradient3897"
       gradientUnits="userSpaceOnUse"
       x2="32.02"
       x1="6">
      <stop
         id="stop38"
         stop-opacity="1"
         stop-color="#225500" />
      <stop
         id="stop40"
         offset="1"
         stop-opacity="0"
         stop-color="#225500" />
    </linearGradient>
    <radialGradient
       gradientTransform="matrix(1.33333 0 0 0.95238 -16 -5.905)"
       cx="48"
       id="radialGradient3901"
       gradientUnits="userSpaceOnUse"
       r="42"
       cy="90.2">
      <stop
         id="stop43"
         stop-opacity="1"
         stop-color="#88ff02" />
      <stop
         id="stop45"
         offset="1"
         stop-opacity="1"
         stop-color="#1f8000" />
    </radialGradient>
    <linearGradient
       gradientTransform="matrix(1 0 0 -1 96 96)"
       id="linearGradient3925"
       gradientUnits="userSpaceOnUse"
       x2="-6"
       x1="-90">
      <stop
         id="stop48"
         stop-opacity="0.481"
         stop-color="#ffffff" />
      <stop
         id="stop50"
         offset="1"
         stop-opacity="0.124"
         stop-color="#ffffff" />
    </linearGradient>
    <linearGradient
       gradientTransform="matrix(1.0059 0 0 0.99417 0 0)"
       id="linearGradient3938"
       gradientUnits="userSpaceOnUse"
       y2="7.02"
       y1="92.54"
       xlink:href="#ButtonShadow"
       x2="0" />
    <linearGradient
       gradientTransform="matrix(1 0 0 1 4 0)"
       id="linearGradient3976"
       gradientUnits="userSpaceOnUse"
       xlink:href="#linearGradient3687"
       x2="82.84"
       x1="64" />
    <linearGradient
       id="linearGradient3794"
       gradientUnits="userSpaceOnUse"
       y2="3.307"
       y1="91"
       xlink:href="#ButtonShadow"
       x2="0" />
    <linearGradient
       x2="0"
       y1="90"
       y2="5.988"
       gradientUnits="userSpaceOnUse"
       id="linearGradient4210"
       gradientTransform="matrix(1.0729,0,0,1.0417,-5.127,-2.459)">
      <stop
         stop-color="#1d5282"
         id="stop3143"
         style="stop-color:#a8a8a8;stop-opacity:1" />
      <stop
         stop-color="#568ec2"
         offset="1"
         id="stop3145"
         style="stop-color:#f9f9f9;stop-opacity:1" />
    </linearGradient>
    <linearGradient
       inkscape:collect="always"
       xlink:href="#linearGradient4212"
       id="linearGradient4218"
       x1="53.65332"
       y1="86.819672"
       x2="50.674343"
       y2="12.034142"
       gradientUnits="userSpaceOnUse" />
    <linearGradient
       inkscape:collect="always"
       xlink:href="#linearGradient14231"
       id="linearGradient14237"
       x1="50.707542"
       y1="81.682442"
       x2="50.707542"
       y2="96.539803"
       gradientUnits="userSpaceOnUse" />
    <linearGradient
       inkscape:collect="always"
       id="linearGradient14231">
      <stop
         style="stop-color:#000000;stop-opacity:1;"
         offset="0"
         id="stop14233" />
      <stop
         style="stop-color:#000000;stop-opacity:0;"
         offset="1"
         id="stop14235" />
    </linearGradient>
    <linearGradient
       inkscape:collect="always"
       xlink:href="#linearGradient3687"
       id="linearGradient14245"
       x1="49.876652"
       y1="87.937508"
       x2="49.876652"
       y2="76.719681"
       gradientUnits="userSpaceOnUse" />
  </defs>
  <rect
     style="fill-opacity:0.02000002"
     x="3.1899986"
     rx="12.724"
     y="3.0099983"
     height="89.980003"
     width="89.620003"
     id="rect3149" />
  <rect
     style="fill-opacity:0.03900003"
     x="3.7959988"
     rx="12.552"
     y="3.6200447"
     height="88.760002"
     width="88.410004"
     id="rect3151" />
  <rect
     style="fill-opacity:0.078"
     x="4.4009986"
     rx="12.38"
     y="4.2300301"
     height="87.550003"
     width="87.199997"
     id="rect3153" />
  <rect
     style="fill-opacity:0.15700001"
     x="5.0069985"
     rx="12.208"
     y="4.8400154"
     height="86.330002"
     width="85.990997"
     id="rect3155" />
  <path
     style="fill:url(#linearGradient4218);fill-opacity:1"
     inkscape:connector-curvature="0"
     d="m 17.586999,5.4262226 c -6.642,0 -11.9690003,5.3948004 -11.9690003,12.0630004 l 2e-4,61.031 c 0,6.668 5.3268003,12.031 11.9690003,12.031 l 60.812,0 c 6.642,0 11.969,-5.363 11.969,-12.031 l 0,-61.031 c 0,-6.668 -5.327,-12.0630004 -11.969,-12.0630004 l -60.812,2e-4 z"
     id="path3157" />
  <path
     d="m 79.462068,66.955525 0,-55.356164 -62.583756,0 0,55.356164 62.583756,0 z"
     id="path52"
     style="fill:#06f;fill-opacity:1;fill-rule:nonzero;stroke:none"
     inkscape:connector-curvature="0" />
  <path
     style="fill:url(#linearGradient3188);fill-opacity:1;fill-rule:nonzero;stroke:none"
     id="path60"
     inkscape:connector-curvature="0"
     d="m 17.876791,8.9999999 c -2.781382,0 -5.020546,2.2391631 -5.020546,5.0205451 l 0,1.673515 0,56.899515 0,1.673515 c 0,0.28008 0.03464,0.544478 0.0784,0.810609 0.04075,0.247342 0.08117,0.499473 0.156893,0.732163 0.0084,0.02542 0.01749,0.05322 0.02619,0.07845 0.08276,0.240794 0.196538,0.458084 0.313784,0.679865 0.120987,0.228859 0.264098,0.44818 0.418379,0.653717 0.154281,0.205537 0.312763,0.396181 0.496825,0.575271 0.368131,0.358179 0.788987,0.681561 1.255136,0.915204 0.233071,0.116821 0.479855,0.206634 0.732163,0.287635 -0.214377,-0.08386 -0.407258,-0.197702 -0.60142,-0.313784 -0.0059,-0.0037 -0.02,0.0038 -0.02619,0 -0.02669,-0.01615 -0.05213,-0.03557 -0.0784,-0.0523 -0.100746,-0.06418 -0.193308,-0.136821 -0.287636,-0.20919 -0.08884,-0.06761 -0.178463,-0.134811 -0.261486,-0.209189 -0.148885,-0.13508 -0.29074,-0.289006 -0.418379,-0.444528 -0.09002,-0.108991 -0.18274,-0.221979 -0.261487,-0.339932 -0.021,-0.03211 -0.03213,-0.07185 -0.0523,-0.104595 -0.05422,-0.08621 -0.108971,-0.171131 -0.156892,-0.261487 -0.08452,-0.162922 -0.172096,-0.347841 -0.235338,-0.522973 -0.0067,-0.01825 -0.01975,-0.03393 -0.02619,-0.0523 -0.02661,-0.07694 -0.02996,-0.156332 -0.0523,-0.235338 -0.02535,-0.08921 -0.05891,-0.169887 -0.0784,-0.261486 -0.061,-0.285763 -0.104595,-0.584229 -0.104595,-0.889055 l 0,-1.673516 0,-56.899514 0,-1.673515 c 0,-2.327732 1.856054,-4.183788 4.183788,-4.183788 l 1.673515,0 56.899515,0 1.673515,0 c 2.327734,0 4.183788,1.856056 4.183788,4.183788 l 0,1.673515 0,56.899514 0,1.673516 c 0,0.304826 -0.04359,0.603292 -0.104595,0.889055 -0.03699,0.173119 -0.07397,0.332743 -0.130743,0.496824 -0.0067,0.01837 -0.0195,0.03405 -0.02619,0.0523 -0.05247,0.145377 -0.115791,0.307465 -0.183041,0.444527 -0.03481,0.06928 -0.0661,0.14221 -0.104594,0.20919 -0.04569,0.08134 -0.106076,0.157603 -0.156892,0.235338 -0.07874,0.117953 -0.171469,0.230941 -0.261487,0.339932 -0.119799,0.145973 -0.253655,0.290354 -0.39223,0.418379 -0.0094,0.0085 -0.01673,0.0177 -0.02619,0.02615 -0.115799,0.10506 -0.238551,0.196166 -0.366081,0.287635 -0.08583,0.06121 -0.170967,0.128329 -0.261487,0.183041 -0.0059,0.0038 -0.01991,-0.0037 -0.02619,0 C 80.07324,78.802298 79.880359,78.916139 79.665982,79 c 0.252308,-0.081 0.499092,-0.170814 0.732163,-0.287635 0.466149,-0.233643 0.887005,-0.557025 1.255136,-0.915204 0.184062,-0.17909 0.342544,-0.369734 0.496825,-0.575271 0.154281,-0.205537 0.297392,-0.424858 0.418379,-0.653717 0.117246,-0.221781 0.231054,-0.439071 0.313784,-0.679865 0.0087,-0.02576 0.01782,-0.0525 0.02619,-0.07845 0.07573,-0.23269 0.116142,-0.484821 0.156892,-0.732163 0.04385,-0.266131 0.0784,-0.530529 0.0784,-0.810609 l 0,-1.673515 0,-56.899515 0,-1.673515 c 0,-2.781382 -2.239164,-5.0205451 -5.020546,-5.0205451 l -60.246545,0 z" />
  <path
     style="fill:black;fill-opacity:1;fill-rule:nonzero;stroke:none"
     id="path62"
     inkscape:connector-curvature="0"
     d="m 17.30152,10.673515 c -1.576376,0 -2.77176,1.196041 -2.77176,2.77176 l 0,53.02951 c 0,1.575718 1.195384,2.77176 2.77176,2.77176 l 61.397087,0 c 1.576376,0 2.771759,-1.196042 2.771759,-2.77176 l 0,-53.02951 c 0,-1.575719 -1.195383,-2.77176 -2.771759,-2.77176 l -61.397087,0 z m 2.248786,5.020545 56.899515,0 0,48.531939 -56.899515,0 0,-48.531939 z" />
  <path
     style="fill:black;fill-opacity:1;fill-rule:nonzero;stroke:none"
     id="path64"
     inkscape:connector-curvature="0"
     d="m 35.4487,65.899514 c -1.390691,0 -2.510273,1.119582 -2.510273,2.510273 l -2.510273,0 0,0.836758 c 1.385671,0 2.510273,1.124602 2.510273,2.510272 l 0,1.673515 c 0,1.390692 1.119582,2.510273 2.510273,2.510273 l 25.102727,0 c 1.390691,0 2.510272,-1.119581 2.510272,-2.510273 l 0,-1.673515 c 0,-1.38567 1.124603,-2.510272 2.510273,-2.510272 l 0,-0.836758 -2.510273,0 c 0,-1.390691 -1.119581,-2.510273 -2.510272,-2.510273 l -25.102727,0 z" />
  <path
     style="fill:#7f7f7f;fill-opacity:1;fill-rule:nonzero;stroke:none"
     id="path66"
     inkscape:connector-curvature="0"
     d="m 19.550306,64.225999 56.899515,0 0,0.836758 -56.899515,0 0,-0.836758 z" />
  <rect
     style="opacity:0.24299999;fill:#cf0;fill-opacity:1;fill-rule:nonzero;stroke:none;filter:url(#filter3531)"
     id="rect68"
     transform="matrix(1.0079163,0,0,1.1797194,1.8545567,-23.834367)"
     width="7.8569999"
     height="3.1429999"
     y="79.540001"
     rx="1.571"
     x="50.570999" />
  <rect
     style="fill:#7fff2a;fill-opacity:1;fill-rule:nonzero;stroke:none"
     id="rect70"
     width="4.1837878"
     height="1.6735151"
     y="71.0121"
     rx="0.83675754"
     x="54.694126" />
  <path
     style="fill:white;fill-opacity:1;fill-rule:nonzero;stroke:none"
     id="path72"
     inkscape:connector-curvature="0"
     d="m 14.52976,66.474785 0,0.836758 c 0,1.575718 1.195384,2.771759 2.77176,2.771759 l 13.126634,0 c 1.385671,0 2.510273,1.124602 2.510273,2.510273 l 0,-0.836758 c 0,-1.38567 -1.124602,-2.510272 -2.510273,-2.510272 l -13.126634,0 c -1.576376,0 -2.77176,-1.196042 -2.77176,-2.77176 z m 66.940606,0 c 0,1.575718 -1.195383,2.77176 -2.771759,2.77176 l -13.126635,0 c -1.38567,0 -2.510273,1.124602 -2.510273,2.510272 l 0,0.836758 c 0,-1.385671 1.124603,-2.510273 2.510273,-2.510273 l 13.126635,0 c 1.576376,0 2.771759,-1.196041 2.771759,-2.771759 l 0,-0.836758 z m -48.531939,6.955547 0,0.836758 c 0,1.390691 1.119582,2.510273 2.510273,2.510273 l 25.102727,0 c 1.390691,0 2.510272,-1.119582 2.510272,-2.510273 l 0,-0.836758 c 0,1.390692 -1.119581,2.510273 -2.510272,2.510273 l -25.102727,0 c -1.390691,0 -2.510273,-1.119581 -2.510273,-2.510273 z" />
  <g
     id="g14291">
    <path
       d="m 5.2922679,73.685059 0,5.0663 c 0,6.668 5.3645011,12.032 12.0320011,12.032 l 61.049,0 c 6.668,0 12.032,-5.3645 12.032,-12.032 l 0,-5.0663 c 0,6.6681 -5.3645,12.032 -12.032,12.032 l -61.049,0 c -6.668,0 -12.0320011,-5.3643 -12.0320011,-12.032 z"
       id="path64-8"
       inkscape:connector-curvature="0"
       style="opacity:0.4;fill:url(#linearGradient14237);fill-opacity:1" />
    <path
       inkscape:connector-curvature="0"
       id="path14214"
       d="m 5.2929688,72.717592 0,1.15039 c 0,6.667718 5.3632502,12.031248 12.0312502,12.031248 l 61.048828,0 c 6.6675,0 12.03125,-5.36313 12.03125,-12.031248 l 0,-1.15039 c 0,6.668098 -5.36375,12.031248 -12.03125,12.031248 l -61.048828,0 c -6.668,0 -12.0312502,-5.36355 -12.0312502,-12.031248 z"
       style="opacity:0.5;fill:url(#linearGradient14245);fill-opacity:1" />
  </g>
</svg>
