<svg height="96" width="96" xmlns="http://www.w3.org/2000/svg" xmlns:xlink="http://www.w3.org/1999/xlink" xmlns:sodipodi="http://sodipodi.sourceforge.net/DTD/sodipodi-0.dtd" xmlns:inkscape="http://www.inkscape.org/namespaces/inkscape">
 <defs>
  <linearGradient x1="85" x2="16.92" gradientUnits="userSpaceOnUse" id="linearGradient3421" gradientTransform="matrix(0 0.70588 -0.8125 0 101.62 4)">
   <stop stop-color="#4d4d4d" stop-opacity="0.707"/>
   <stop stop-color="#4d4d4d" stop-opacity="0.252" offset="1"/>
  </linearGradient>
  <linearGradient id="linearGradient3448">
   <stop stop-color="#000000" stop-opacity="1"/>
   <stop stop-color="#000000" stop-opacity="0" offset="1"/>
  </linearGradient>
  <linearGradient id="linearGradient3220">
   <stop stop-color="#ffffff" stop-opacity="1"/>
   <stop stop-color="#bfbfbf" stop-opacity="0" offset="1"/>
  </linearGradient>
  <linearGradient x2="0" y1="6" y2="63.893" gradientUnits="userSpaceOnUse" id="linearGradient3188">
   <stop stop-color="#ffffff" stop-opacity="1"/>
   <stop stop-color="#ffffff" stop-opacity="0" offset="1"/>
  </linearGradient>
  <linearGradient x2="0" y1="6" y2="78" gradientUnits="userSpaceOnUse" id="linearGradient3179">
   <stop stop-color="#f0f0f0" stop-opacity="1"/>
   <stop stop-color="#b4b4b4" stop-opacity="1" offset="1"/>
  </linearGradient>
  <linearGradient x1="6" x2="32" gradientUnits="userSpaceOnUse" id="linearGradient3279">
   <stop stop-color="#7a7a7a" stop-opacity="1"/>
   <stop stop-color="#f9f9f9" stop-opacity="1" offset="0.203"/>
   <stop stop-color="#c9c9c9" stop-opacity="1" offset="0.43"/>
   <stop stop-color="#dedede" stop-opacity="0" offset="1"/>
  </linearGradient>
  <linearGradient x1="6" x2="32.03" gradientUnits="userSpaceOnUse" id="linearGradient3287" gradientTransform="matrix(-1 0 0 1 96.03 0)">
   <stop stop-color="#7a7a7a" stop-opacity="1"/>
   <stop stop-color="#f9f9f9" stop-opacity="1" offset="0.146"/>
   <stop stop-color="#c9c9c9" stop-opacity="1" offset="0.373"/>
   <stop stop-color="#dedede" stop-opacity="0" offset="1"/>
  </linearGradient>
  <linearGradient x1="6" x2="45.22" xlink:href="#linearGradient3448" gradientUnits="userSpaceOnUse" id="linearGradient3454" gradientTransform="matrix(-1 0 0 1 96 -2)"/>
  <linearGradient x2="0" xlink:href="#linearGradient3448" y1="77.09" y2="90" gradientUnits="userSpaceOnUse" id="linearGradient3460"/>
  <linearGradient x1="18.743" x2="109.19" xlink:href="#linearGradient3220" y1="8.05" y2="68.52" gradientUnits="userSpaceOnUse" id="linearGradient3551" gradientTransform="matrix(1 0 0 -1 0 84)"/>
  <linearGradient x1="15.656" x2="46.595" xlink:href="#linearGradient3220" y1="69.39" y2="39.821" gradientUnits="userSpaceOnUse" id="linearGradient3781" gradientTransform="matrix(1.11656 0 0 1.11656 0.805 -5.676)"/>
  <clipPath id="clipPath3785">
   <rect x="6" rx="6" y="6" height="72" width="84"/>
  </clipPath>
  <filter x="-0.123" y="-0.18" height="1.36" color-interpolation-filters="sRGB" id="filter3829" width="1.245">
   <feGaussianBlur stdDeviation="3.54877"/>
  </filter>
  <linearGradient x2="0" xlink:href="#linearGradient3448" y1="80.14" y2="82" gradientUnits="userSpaceOnUse" id="linearGradient4196"/>
  <clipPath id="clipPath3532">
   <path d="m 12,-14 c -3.324,0 -6,2.676 -6,6 l 0,58 c 0,3.324 2.676,6 6,6 l 72,0 c 3.324,0 6,-2.676 6,-6 l 0,-58 c 0,-3.324 -2.676,-6 -6,-6 l -72,0 z M 65.28125,-4 74,3.5625 63.0625,12.90625 54.34375,5.4375 65.28125,-4 z m -33.3125,0.375 3.34375,2.8125 -10,8.65625 L 22,4.96875 31.96875,-3.625 z M 38.625,2.0625 41.9375,4.90625 31.96875,13.5 28.65625,10.65625 38.625,2.0625 z m 9.21875,7.3125 c 5.900686,-10e-7 10.6875,4.133876 10.6875,9.21875 -2e-6,5.084874 -4.78613,9.1875 -10.6875,9.1875 -5.901368,-5.9e-4 -10.6875,-4.103216 -10.6875,-9.1875 0,-5.084285 4.786131,-9.21875 10.6875,-9.21875 z m 0,4.0625 c -3.304793,-2e-6 -6,2.30988 -6,5.15625 -6.84e-4,2.848144 2.695206,5.15625 6,5.15625 3.306164,-1e-6 5.96875,-2.308106 5.96875,-5.15625 -2e-6,-2.84637 -2.662587,-5.15625 -5.96875,-5.15625 z m -7.0625,18.40625 14.125,0 0,4.0625 -14.125,0 0,-4.0625 z m 0,8.09375 14.125,0 0,4.0625 -14.125,0 0,-4.0625 z" inkscape:connector-curvature="0"/>
  </clipPath>
  <filter x="-0.116" y="-0.125" height="1.25" color-interpolation-filters="sRGB" id="filter3548" width="1.231">
   <feGaussianBlur stdDeviation="2.6"/>
  </filter>
  <linearGradient x2="0" y1="92.54" y2="7.02" gradientUnits="userSpaceOnUse" id="ButtonShadow-0" gradientTransform="matrix(1.0059 0 0 0.99417 100 0)">
   <stop stop-color="#000000" stop-opacity="1"/>
   <stop stop-color="#000000" stop-opacity="0.588" offset="1"/>
  </linearGradient>
  <linearGradient x2="0" xlink:href="#ButtonShadow-0" y1="6.132" y2="90.24" gradientUnits="userSpaceOnUse" id="linearGradient3780" gradientTransform="matrix(1.02381 0 0 1.0119 -1.143 -98.07)"/>
  <linearGradient x2="0" xlink:href="#ButtonShadow-0" y1="6.132" y2="90.24" gradientUnits="userSpaceOnUse" id="linearGradient3721" gradientTransform="matrix(1 0 0 1 0 -97)"/>
  <path d="M 90,64.1875 90,84 c 0,3.324 -2.676,6 -6,6 L 12,90 C 8.676,90 6,87.324 6,84 l 0,-19.8125 84,0 z" fill-opacity="1" stroke="none" fill-rule="nonzero" id="SVGCleanerId_0"/>
 </defs>
 <path d="m 12,-95.03125 c -5.5110903,0 -10.03125,4.52016 -10.03125,10.03125 l 0,71 c 0,5.5110902 4.5201598,10.03125 10.03125,10.03125 l 72,0 c 5.51109,0 10.03125,-4.5201597 10.03125,-10.03125 l 0,-71 c 0,-5.51109 -4.52016,-10.03125 -10.03125,-10.03125 l -72,0 z" display="inline" fill="url(#linearGradient3780)" fill-opacity="1" fill-rule="nonzero" stroke="none" opacity="0.08" transform="matrix(1 0 0 -1 0 0)"/>
 <path d="m 12,-94.03125 c -4.971633,0 -9.03125,4.059617 -9.03125,9.03125 l 0,71 c 0,4.9716329 4.0596171,9.03125 9.03125,9.03125 l 72,0 c 4.971633,0 9.03125,-4.059617 9.03125,-9.03125 l 0,-71 c 0,-4.971633 -4.059617,-9.03125 -9.03125,-9.03125 l -72,0 z" display="inline" fill="url(#linearGradient3780)" fill-opacity="1" fill-rule="nonzero" stroke="none" opacity="0.1" transform="matrix(1 0 0 -1 0 0)"/>
 <path d="m 12,-93 c -4.4091333,0 -8,3.590867 -8,8 l 0,71 c 0,4.4091333 3.5908667,8 8,8 l 72,0 c 4.409133,0 8,-3.5908667 8,-8 l 0,-71 c 0,-4.409133 -3.590867,-8 -8,-8 l -72,0 z" display="inline" fill="url(#linearGradient3780)" fill-opacity="1" fill-rule="nonzero" stroke="none" opacity="0.2" transform="matrix(1 0 0 -1 0 0)"/>
 <rect x="5" rx="7" display="inline" y="-92" fill="url(#linearGradient3780)" fill-opacity="1" fill-rule="nonzero" stroke="none" height="85" opacity="0.3" width="86" transform="matrix(1 0 0 -1 0 0)"/>
 <rect x="6" rx="6" display="inline" y="-91" fill="url(#linearGradient3721)" fill-opacity="1" fill-rule="nonzero" stroke="none" height="84" opacity="0.45" width="84" transform="matrix(1 0 0 -1 0 0)"/>
 <path d="M 12,6 C 8.676,6 6,8.676 6,12 l 0,2 0,68 0,2 c 0,0.334721 0.04135,0.6507 0.09375,0.96875 0.0487,0.295596 0.09704,0.596915 0.1875,0.875 0.00988,0.03038 0.020892,0.0636 0.03125,0.09375 0.098865,0.287771 0.2348802,0.547452 0.375,0.8125 0.1445918,0.273507 0.3156161,0.535615 0.5,0.78125 0.1843839,0.245635 0.3737765,0.473472 0.59375,0.6875 0.439947,0.428056 0.94291,0.814526 1.5,1.09375 0.278545,0.139612 0.5734731,0.246947 0.875,0.34375 -0.2562018,-0.100222 -0.4867109,-0.236272 -0.71875,-0.375 -0.00741,-0.0044 -0.023866,0.0045 -0.03125,0 -0.031933,-0.0193 -0.062293,-0.04251 -0.09375,-0.0625 -0.120395,-0.0767 -0.2310226,-0.163513 -0.34375,-0.25 -0.1061728,-0.0808 -0.2132809,-0.161112 -0.3125,-0.25 -0.1779299,-0.161433 -0.3474596,-0.345388 -0.5,-0.53125 -0.1075789,-0.130255 -0.2183939,-0.265285 -0.3125,-0.40625 -0.025089,-0.03838 -0.038446,-0.08587 -0.0625,-0.125 -0.064763,-0.103032 -0.1302275,-0.204517 -0.1875,-0.3125 -0.1010083,-0.194706 -0.2056748,-0.415701 -0.28125,-0.625 -0.00796,-0.02181 -0.023589,-0.04055 -0.03125,-0.0625 C 7.2494249,86.5643 7.2454455,86.469419 7.21875,86.375 7.1884177,86.268382 7.1483606,86.171969 7.125,86.0625 7.0521214,85.720988 7,85.364295 7,85 L 7,83 7,15 7,13 C 7,10.218152 9.2181517,8 12,8 l 2,0 68,0 2,0 c 2.781848,0 5,2.218152 5,5 l 0,2 0,68 0,2 c 0,0.364295 -0.05212,0.720988 -0.125,1.0625 -0.04415,0.206893 -0.08838,0.397658 -0.15625,0.59375 -0.0077,0.02195 -0.0233,0.04069 -0.03125,0.0625 -0.06274,0.173739 -0.138383,0.367449 -0.21875,0.53125 -0.04158,0.0828 -0.07904,0.169954 -0.125,0.25 -0.0546,0.09721 -0.126774,0.18835 -0.1875,0.28125 -0.09411,0.140965 -0.204921,0.275995 -0.3125,0.40625 -0.143174,0.17445 -0.303141,0.346998 -0.46875,0.5 -0.01117,0.0102 -0.01998,0.02115 -0.03125,0.03125 -0.138386,0.125556 -0.285091,0.234436 -0.4375,0.34375 -0.102571,0.07315 -0.204318,0.153364 -0.3125,0.21875 -0.0074,0.0045 -0.02384,-0.0044 -0.03125,0 -0.232039,0.138728 -0.462548,0.274778 -0.71875,0.375 0.301527,-0.0968 0.596455,-0.204138 0.875,-0.34375 0.55709,-0.279224 1.060053,-0.665694 1.5,-1.09375 0.219973,-0.214028 0.409366,-0.441865 0.59375,-0.6875 0.184384,-0.245635 0.355408,-0.507743 0.5,-0.78125 0.14012,-0.265048 0.276135,-0.524729 0.375,-0.8125 0.01041,-0.03078 0.02133,-0.06274 0.03125,-0.09375 0.09046,-0.278085 0.1388,-0.579404 0.1875,-0.875 C 89.95865,84.6507 90,84.334721 90,84 l 0,-2 0,-68 0,-2 C 90,8.676 87.324,6 84,6 L 12,6 z" fill="url(#linearGradient3188)" fill-opacity="1" fill-rule="nonzero" stroke="none" opacity="0.5" inkscape:connector-curvature="0"/>
 <use xlink:href="#SVGCleanerId_0" fill="#cacaca" inkscape:connector-curvature="0"/>
 <path d="m 6,73 0,1 c 0,3.324 2.676,6 6,6 l 72,0 c 3.324,0 6,-2.676 6,-6 l 0,-1 c 0,3.324 -2.676,6 -6,6 L 12,79 C 8.676,79 6,76.324 6,73 z" fill="#999999" fill-opacity="1" fill-rule="nonzero" stroke="none" inkscape:connector-curvature="0"/>
 <path d="m 90.030615,64.1875 0,19.8125 c 0,3.324 -2.676,6 -6,6 L 64,90 l 0,-25.8125 26.030615,0 z" fill="url(#linearGradient3287)" fill-opacity="1" fill-rule="nonzero" stroke="none" opacity="0.8" inkscape:connector-curvature="0"/>
 <path d="M 6,64.1875 6,84 c 0,3.324 2.676,6 6,6 l 20,0 0,-25.8125 -26,0 z" fill="url(#linearGradient3279)" fill-opacity="1" fill-rule="nonzero" stroke="none" opacity="0.8" inkscape:connector-curvature="0"/>
 <use xlink:href="#SVGCleanerId_0" fill="url(#linearGradient3460)" opacity="0.2" inkscape:connector-curvature="0"/>
 <path d="m 6,74 0,6 c 0,3.324 2.676,6 6,6 l 72,0 c 3.324,0 6,-2.676 6,-6 l 0,-6 c 0,3.324 -2.676,6 -6,6 L 12,80 C 8.676,80 6,77.324 6,74 z" fill="#252525" fill-opacity="1" fill-rule="nonzero" stroke="none" inkscape:connector-curvature="0"/>
 <path d="m 6,80 0,1 c 0,3.324 2.676,6 6,6 l 72,0 c 3.324,0 6,-2.676 6,-6 l 0,-1 c 0,3.324 -2.676,6 -6,6 L 12,86 C 8.676,86 6,83.324 6,80 z" fill="#ececec" fill-opacity="1" fill-rule="nonzero" stroke="none" inkscape:connector-curvature="0"/>
 <path d="m 6,74 0,2 c 0,3.324 2.676,6 6,6 l 72,0 c 3.324,0 6,-2.676 6,-6 l 0,-2 c 0,3.324 -2.676,6 -6,6 L 12,80 C 8.676,80 6,77.324 6,74 z" fill="url(#linearGradient4196)" fill-opacity="1" fill-rule="nonzero" stroke="none" inkscape:connector-curvature="0"/>
 <g display="inline">
  <rect x="6" rx="6" y="6" fill="url(#linearGradient3179)" fill-opacity="1" fill-rule="nonzero" stroke="none" height="70" width="84"/>
  <path d="M 12,76 C 8.676,76 6,73.324 6,70 L 6,12 C 6,8.676 8.676,6 12,6 l 72,0 c 3.324,0 6,2.676 6,6 l 0,58 c 0,3.324 -2.676,6 -6,6 l -72,0 z m 0,-2 72,0 c 2.781848,0 5,-2.195392 5,-4.9375 l 0,-57.125 C 89,9.195393 86.781848,6.999999 84,7 L 12,7 C 9.2181517,7 7,9.195389 7,11.9375 l 0,57.125 C 7,71.804608 9.2181517,74 12,74 z" fill="url(#linearGradient3551)" fill-opacity="1" fill-rule="nonzero" stroke="none" opacity="0.7" inkscape:connector-curvature="0"/>
  <path d="m 90,70 0,1 c 0,3.324 -2.676,6 -6,6 L 12,77 C 8.676,77 6,74.324 6,71 l 0,-1 c 0,2.984862 2.152831,5.43487 5,5.90625 C 11.326884,75.971636 11.652269,76 12,76 l 72,0 c 0.166304,0 0.337194,-0.01811 0.5,-0.03125 0.04161,-0.0041 0.08371,0.0051 0.125,0 0.127873,-0.01291 0.249673,-0.04175 0.375,-0.0625 C 87.847169,75.43487 90,72.984862 90,70 z" fill="url(#linearGradient3454)" fill-opacity="1" fill-rule="nonzero" stroke="none" opacity="0.1" inkscape:connector-curvature="0"/>
  <path d="M 72.785673,73.316552 C 37.497632,71.660468 32.655921,60.569503 56.214438,35.565764 29.558784,43.997531 16.947902,55.85465 7.5798689,63.939487 -2.370079,72.601777 6.9889853,83.779979 17.934257,82.851623 c 11.343001,-0.0075 45.801874,-2.097861 54.851416,-9.535071 z" clip-path="url(#clipPath3785)" fill="url(#linearGradient3781)" fill-opacity="1" fill-rule="evenodd" stroke="none" filter="url(#filter3829)" opacity="0.3" inkscape:connector-curvature="0" transform="matrix(1 0 0 1 0 -2)"/>
 </g>
 <path d="m 37.156166,38.587437 c 0,-5.084285 4.784244,-9.207185 10.685613,-9.207185 5.900685,0 10.68493,4.122311 10.68493,9.207185 0,5.084874 -4.78356,9.208956 -10.68493,9.208956 -5.901369,-5.89e-4 -10.685613,-4.124672 -10.685613,-9.208956 m 10.685613,5.156874 c 3.306163,0 5.98219,-2.30873 5.98219,-5.156874 0,-2.84637 -2.676027,-5.157465 -5.98219,-5.157465 -3.304794,0 -5.982876,2.311095 -5.982876,5.157465 -6.85e-4,2.848144 2.678082,5.156874 5.982876,5.156874 z m -7.054108,8.102395 14.103422,0 0,4.049723 -14.103422,0 0,-4.049723 z m 0,8.100026 14.103422,0 0,4.053268 -14.103422,0 0,-4.053268 z m -12.139724,-29.302346 3.325342,2.86762 9.974657,-8.595183 -3.324657,-2.867028 -9.975342,8.594591 M 22,24.962856 25.323291,27.829883 35.298631,19.186307 31.973289,16.367674 22,24.962856 M 65.29041,16 54.338355,25.436169 63.047943,32.8941 74,23.552359 65.29041,16" display="inline" fill="url(#linearGradient3421)" fill-opacity="1" inkscape:connector-curvature="0"/>
 <path d="m 65.28125,16 -10.9375,9.4375 0.59375,0.5 L 65.28125,17 73.40625,24.0625 74,23.5625 65.28125,16 z M 31.96875,16.375 22,24.96875 l 0.5625,0.5 9.40625,-8.09375 2.75,2.3125 0.59375,-0.5 -3.34375,-2.8125 z m 6.65625,5.6875 -9.96875,8.59375 0.59375,0.5 9.375,-8.09375 2.71875,2.34375 0.59375,-0.5 -3.3125,-2.84375 z m 9.21875,7.3125 c -5.901369,0 -10.6875,4.134465 -10.6875,9.21875 0,0.169429 0.02076,0.33282 0.03125,0.5 0.304299,-4.849522 4.951539,-8.71875 10.65625,-8.71875 5.704051,-1e-6 10.351952,3.868732 10.65625,8.71875 0.01049,-0.167198 0.03125,-0.330551 0.03125,-0.5 0,-5.084874 -4.786814,-9.218751 -10.6875,-9.21875 z m -5.96875,9.75 c -0.01596,0.153484 -0.03125,0.311709 -0.03125,0.46875 -6.84e-4,2.848144 2.695206,5.15625 6,5.15625 3.306164,-10e-7 5.96875,-2.308106 5.96875,-5.15625 0,-0.157041 -0.0153,-0.315266 -0.03125,-0.46875 -0.306105,2.600443 -2.837971,4.624999 -5.9375,4.625 -3.098244,0 -5.662913,-2.024557 -5.96875,-4.625 z m -1.09375,12.71875 0,1 14.125,0 0,-1 -14.125,0 z m 0,8.09375 0,1 14.125,0 0,-1 -14.125,0 z" display="inline" fill="#000000" fill-opacity="1" opacity="0.4" inkscape:connector-curvature="0"/>
 <path stroke-opacity="1" d="m 37.156166,18.587437 c 0,-5.084285 4.784244,-9.207185 10.685613,-9.207185 5.900685,0 10.68493,4.122311 10.68493,9.207185 0,5.084874 -4.78356,9.208956 -10.68493,9.208956 -5.901369,-5.89e-4 -10.685613,-4.124672 -10.685613,-9.208956 m 10.685613,5.156874 c 3.306163,0 5.98219,-2.30873 5.98219,-5.156874 0,-2.84637 -2.676027,-5.157465 -5.98219,-5.157465 -3.304794,0 -5.982876,2.311095 -5.982876,5.157465 -6.85e-4,2.848144 2.678082,5.156874 5.982876,5.156874 z m -7.054108,8.102395 14.103422,0 0,4.049723 -14.103422,0 0,-4.049723 z m 0,8.100026 14.103422,0 0,4.053268 -14.103422,0 0,-4.053268 z m -12.139724,-29.302346 3.325342,2.86762 9.974657,-8.595183 -3.324657,-2.867028 -9.975342,8.594591 M 22,4.962856 25.323291,7.829883 35.298631,-0.813693 31.973289,-3.632326 22,4.962856 M 65.29041,-4 54.338355,5.436169 63.047943,12.8941 74,3.552359 65.29041,-4" stroke-width="2" display="inline" clip-path="url(#clipPath3532)" fill="none" stroke="#ffffff" stroke-dasharray="none" filter="url(#filter3548)" opacity="0.8" stroke-miterlimit="4" inkscape:connector-curvature="0" transform="matrix(1 0 0 1 0 20)"/>
</svg>
