<?xml version="1.0" encoding="UTF-8" standalone="no"?>
<svg
   xmlns:dc="http://purl.org/dc/elements/1.1/"
   xmlns:cc="http://creativecommons.org/ns#"
   xmlns:rdf="http://www.w3.org/1999/02/22-rdf-syntax-ns#"
   xmlns:svg="http://www.w3.org/2000/svg"
   xmlns="http://www.w3.org/2000/svg"
   xmlns:xlink="http://www.w3.org/1999/xlink"
   xmlns:sodipodi="http://sodipodi.sourceforge.net/DTD/sodipodi-0.dtd"
   xmlns:inkscape="http://www.inkscape.org/namespaces/inkscape"
   width="76pt"
   height="76pt"
   viewBox="0 0 76 76"
   version="1.1"
   id="svg2"
   inkscape:version="0.91 r13725"
   sodipodi:docname="drive-harddisk.svg">
  <metadata
     id="metadata88">
    <rdf:RDF>
      <cc:Work
         rdf:about="">
        <dc:format>image/svg+xml</dc:format>
        <dc:type
           rdf:resource="http://purl.org/dc/dcmitype/StillImage" />
      </cc:Work>
    </rdf:RDF>
  </metadata>
  <sodipodi:namedview
     pagecolor="#ffffff"
     bordercolor="#666666"
     borderopacity="1"
     objecttolerance="10"
     gridtolerance="10"
     guidetolerance="10"
     inkscape:pageopacity="0"
     inkscape:pageshadow="2"
     inkscape:window-width="640"
     inkscape:window-height="480"
     id="namedview86"
     showgrid="false"
     inkscape:zoom="7.0264084"
     inkscape:cx="56.062789"
     inkscape:cy="7.0668767"
     inkscape:current-layer="svg2" />
  <defs
     id="defs4">
    <filter
       id="alpha"
       filterUnits="objectBoundingBox"
       x="0%"
       y="0%"
       width="100%"
       height="100%">
      <feColorMatrix
         type="matrix"
         in="SourceGraphic"
         values="0 0 0 0 1 0 0 0 0 1 0 0 0 0 1 0 0 0 1 0"
         id="feColorMatrix7" />
    </filter>
    <mask
       id="mask0">
      <g
         filter="url(#alpha)"
         id="g10">
        <rect
           x="0"
           y="0"
           width="76"
           height="76"
           style="fill:rgb(0%,0%,0%);fill-opacity:0.529412;stroke:none;"
           id="rect12" />
      </g>
    </mask>
    <clipPath
       id="clip1">
      <rect
         width="76"
         height="76"
         id="rect15" />
    </clipPath>
    <g
       id="surface6"
       clip-path="url(#clip1)">
      <path
         style="fill-rule:nonzero;fill:rgb(20%,20%,20%);fill-opacity:1;stroke-width:1;stroke-linecap:butt;stroke-linejoin:miter;stroke:rgb(0%,0%,0%);stroke-opacity:1;stroke-miterlimit:4;"
         d="M 13.157072 -46.112664 L 35.632401 -46.112664 C 41.491776 -46.112664 46.238487 -41.363487 46.238487 -35.504112 L 46.238487 -13.028783 C 46.238487 -7.171875 41.491776 -2.422697 35.632401 -2.422697 L 13.157072 -2.422697 C 7.300164 -2.422697 2.550987 -7.171875 2.550987 -13.028783 L 2.550987 -35.504112 C 2.550987 -41.363487 7.300164 -46.112664 13.157072 -46.112664 Z M 13.157072 -46.112664 "
         transform="matrix(1.583333,0,0,-1.583333,0,0)"
         id="path18" />
    </g>
    <linearGradient
       id="linear0"
       gradientUnits="userSpaceOnUse"
       x1="2"
       y1="-23.714"
       x2="46.689"
       y2="-23.714"
       gradientTransform="matrix(1.583333,0,0,-1.583333,-107.88136,-14.169492)">
      <stop
         offset="0"
         style="stop-color:rgb(94.117647%,94.117647%,94.117647%);stop-opacity:1;"
         id="stop21" />
      <stop
         offset="1"
         style="stop-color:rgb(70.588235%,70.588235%,70.588235%);stop-opacity:1;"
         id="stop23" />
    </linearGradient>
    <linearGradient
       id="linear1"
       gradientUnits="userSpaceOnUse"
       x1="2"
       y1="-23.714"
       x2="46.689"
       y2="-23.714"
       gradientTransform="matrix(1.583333,0,0,-1.583333,-107.88136,-14.169492)">
      <stop
         offset="0"
         style="stop-color:rgb(94.117647%,94.117647%,94.117647%);stop-opacity:1;"
         id="stop26" />
      <stop
         offset="1"
         style="stop-color:rgb(70.588235%,70.588235%,70.588235%);stop-opacity:1;"
         id="stop28" />
    </linearGradient>
    <linearGradient
       id="linear2"
       gradientUnits="userSpaceOnUse"
       x1="2"
       y1="-23.714"
       x2="46.689"
       y2="-23.714"
       gradientTransform="matrix(1.583333,0,0,-1.583333,-107.82255,-9.8718512)">
      <stop
         offset="0"
         style="stop-color:rgb(36.862745%,53.72549%,84.705882%);stop-opacity:0.607843;"
         id="stop31" />
      <stop
         offset="1"
         style="stop-color:rgb(36.862745%,53.72549%,84.705882%);stop-opacity:1;"
         id="stop33" />
    </linearGradient>
    <linearGradient
       id="linear3"
       gradientUnits="userSpaceOnUse"
       x1="1.5305"
       y1="-24.285999"
       x2="46.327"
       y2="-24.285999"
       gradientTransform="matrix(1.583333,0,0,-1.583333,-107.24874,-14.169492)">
      <stop
         offset="0"
         style="stop-color:rgb(50.196078%,60%,78.431373%);stop-opacity:1;"
         id="stop36" />
      <stop
         offset="1"
         style="stop-color:rgb(18.039216%,26.666667%,42.745098%);stop-opacity:1;"
         id="stop38" />
    </linearGradient>
    <linearGradient
       id="linear4"
       gradientUnits="userSpaceOnUse"
       x1="2"
       y1="-23.714"
       x2="46.689"
       y2="-23.714"
       gradientTransform="matrix(1.583333,0,0,-1.583333,-107.31651,-15.155433)">
      <stop
         offset="0"
         style="stop-color:rgb(94.117647%,94.117647%,94.117647%);stop-opacity:1;"
         id="stop41" />
      <stop
         offset="1"
         style="stop-color:rgb(70.588235%,70.588235%,70.588235%);stop-opacity:1;"
         id="stop43" />
    </linearGradient>
    <linearGradient
       id="linear5"
       gradientUnits="userSpaceOnUse"
       x1="2.7547"
       y1="-19.535"
       x2="47.046"
       y2="-19.535"
       gradientTransform="matrix(1.583333,0,0,-1.583333,-107.88136,-14.169492)">
      <stop
         offset="0"
         style="stop-color:rgb(86.27451%,86.27451%,86.27451%);stop-opacity:1;"
         id="stop46" />
      <stop
         offset="1"
         style="stop-color:rgb(96.078431%,96.078431%,96.078431%);stop-opacity:1;"
         id="stop48" />
    </linearGradient>
    <linearGradient
       id="linear6"
       gradientUnits="userSpaceOnUse"
       x1="2"
       y1="-23.714"
       x2="46.689"
       y2="-23.714"
       gradientTransform="matrix(1.583333,0,0,-1.583333,-107.74833,-14.349723)">
      <stop
         offset="0"
         style="stop-color:rgb(94.117647%,94.117647%,94.117647%);stop-opacity:1;"
         id="stop51" />
      <stop
         offset="1"
         style="stop-color:rgb(70.588235%,70.588235%,70.588235%);stop-opacity:1;"
         id="stop53" />
    </linearGradient>
    <linearGradient
       id="linear7"
       gradientUnits="userSpaceOnUse"
       x1="1.9769"
       y1="-21.458"
       x2="46.773"
       y2="-21.458"
       gradientTransform="matrix(1.583333,0,0,-1.583333,-107.88136,-14.169492)">
      <stop
         offset="0"
         style="stop-color:rgb(94.117647%,94.117647%,94.117647%);stop-opacity:1;"
         id="stop56" />
      <stop
         offset="1"
         style="stop-color:rgb(70.588235%,70.588235%,70.588235%);stop-opacity:1;"
         id="stop58" />
    </linearGradient>
    <linearGradient
       id="linear8"
       gradientUnits="userSpaceOnUse"
       x1="56"
       y1="64"
       x2="56"
       y2="24"
       gradientTransform="matrix(0.790153,0,0,0.790153,-107.2829,-14.98459)">
      <stop
         offset="0"
         style="stop-color:rgb(30.196078%,30.196078%,30.196078%);stop-opacity:0.492734;"
         id="stop61" />
      <stop
         offset="1"
         style="stop-color:rgb(30.196078%,30.196078%,30.196078%);stop-opacity:0.218993;"
         id="stop63" />
    </linearGradient>
    <linearGradient
       gradientUnits="userSpaceOnUse"
       y2="94.01059"
       x2="36.726963"
       y1="64.902359"
       x1="37.144176"
       id="linearGradient4218"
       xlink:href="#radialGradient3465"
       inkscape:collect="always"
       gradientTransform="matrix(0.8,0,0,0.8,-0.40000004,-0.4000003)" />
    <radialGradient
       gradientTransform="matrix(0.0044146,-1.2540342,1.2054132,0.00590808,67.117286,127.47946)"
       cx="48"
       id="radialGradient3465"
       gradientUnits="userSpaceOnUse"
       r="35.938"
       cy="-15.894">
      <stop
         id="stop13"
         stop-opacity="1"
         stop-color="#55a6eb" />
      <stop
         id="stop15"
         offset="1"
         stop-opacity="1"
         stop-color="#1754c4" />
    </radialGradient>
    <linearGradient
       id="linear7-6"
       gradientUnits="userSpaceOnUse"
       x1="46.178001"
       y1="80"
       x2="46.178001"
       y2="84.028999"
       gradientTransform="matrix(0.68917,0,0,0.791667,5.455532,0.0262194)">
      <stop
         offset="0"
         style="stop-color:rgb(0%,0%,0%);stop-opacity:1;"
         id="stop68" />
      <stop
         offset="1"
         style="stop-color:rgb(28.235294%,28.235294%,28.235294%);stop-opacity:1;"
         id="stop70" />
    </linearGradient>
    <linearGradient
       id="linear8-4"
       gradientUnits="userSpaceOnUse"
       x1="71.671997"
       y1="89"
       x2="71.671997"
       y2="85.982002"
       gradientTransform="matrix(0.791667,0,0,0.791667,-3.535067,0.6588723)">
      <stop
         offset="0"
         style="stop-color:rgb(0%,0%,0%);stop-opacity:0.501961;"
         id="stop73" />
      <stop
         offset="1"
         style="stop-color:rgb(0%,0%,0%);stop-opacity:0;"
         id="stop75" />
    </linearGradient>
    <linearGradient
       inkscape:collect="always"
       xlink:href="#linearGradient4212"
       id="linearGradient4441"
       gradientUnits="userSpaceOnUse"
       gradientTransform="matrix(0.76268796,0,0,0.69761443,1.3907246,1.5217955)"
       x1="53.65332"
       y1="86.819672"
       x2="50.674343"
       y2="12.034142" />
    <linearGradient
       id="linearGradient4212"
       inkscape:collect="always">
      <stop
         id="stop4214"
         offset="0"
         style="stop-color:#b5b5b5;stop-opacity:1;" />
      <stop
         id="stop4216"
         offset="1"
         style="stop-color:#f1f1f1;stop-opacity:1" />
    </linearGradient>
    <linearGradient
       id="linear6-8"
       gradientUnits="userSpaceOnUse"
       x1="52.929001"
       y1="60"
       x2="52.929001"
       y2="19.987"
       gradientTransform="matrix(0.791667,0,0,0.791667,-93.720406,-4.0221537)">
      <stop
         offset="0"
         style="stop-color:rgb(30.196078%,30.196078%,30.196078%);stop-opacity:0.705882;"
         id="stop51-3" />
      <stop
         offset="1"
         style="stop-color:rgb(30.196078%,30.196078%,30.196078%);stop-opacity:0.25098;"
         id="stop53-6" />
    </linearGradient>
  </defs>
  <path
     style="fill:#e6e6e6;fill-opacity:1"
     inkscape:connector-curvature="0"
     d="m 13.67512,3.9499997 c -5.3136,0 -9.5752,4.31584 -9.5752,9.6504003 l 1.6e-4,48.8248 c 0,5.3344 4.26144,9.6248 9.5752,9.6248 l 48.6496,0 c 5.3136,0 9.5752,-4.2904 9.5752,-9.6248 l 0,-48.8248 c 0,-5.3344003 -4.2616,-9.6504003 -9.5752,-9.6504003 l -48.6496,1.6e-4 z"
     id="path3157-7" />
  <rect
     style="fill-opacity:0.02000002"
     x="2.151999"
     rx="10.1792"
     y="2.0079985"
     height="71.984001"
     width="71.695999"
     id="rect3149" />
  <rect
     style="fill-opacity:0.03900003"
     x="2.6367991"
     rx="10.0416"
     y="2.4960356"
     height="71.008003"
     width="70.728004"
     id="rect3151" />
  <rect
     style="fill-opacity:0.078"
     x="3.1207988"
     rx="9.9040003"
     y="2.9840238"
     height="70.040001"
     width="69.759995"
     id="rect3153" />
  <rect
     style="fill-opacity:0.15700001"
     x="3.6055989"
     rx="9.7664003"
     y="3.472012"
     height="69.064003"
     width="68.792801"
     id="rect3155" />
  <path
     inkscape:connector-curvature="0"
     style="fill:url(#linearGradient4218);fill-opacity:1"
     d="m 13.670313,3.9406246 c -5.3136002,0 -9.576563,4.3154407 -9.576563,9.6499994 l 0.00156,44.870313 c 0.049562,5.290758 4.3004268,9.532813 9.582812,9.532813 l 48.646875,0 c 5.195395,0 9.386393,-4.10571 9.570313,-9.275 l 0,-45.128126 c 0,-5.3343987 -4.262962,-9.6499994 -9.576562,-9.6499994 l -48.648438,0 z"
     id="path3157" />
  <path
     style="fill-opacity:0.09800002"
     inkscape:connector-curvature="0"
     d="m 4.090079,61.648017 0,0.81064 c 0,5.3344 4.2747202,9.6256 9.588,9.6256 l 48.6472,0 c 5.31344,0 9.588,-4.2916 9.588,-9.6256 l 0,-0.81064 c 0,5.33448 -4.27472,9.6256 -9.588,9.6256 l -48.6472,0 c -5.3134398,0 -9.588,-4.29152 -9.588,-9.6256 z"
     id="path3159" />
  <path
     style="fill-opacity:0.23500001"
     inkscape:connector-curvature="0"
     d="m 4.090079,58.368017 0,4.05304 c 0,5.3344 4.2747202,9.6256 9.588,9.6256 l 48.6472,0 c 5.31344,0 9.588,-4.2916 9.588,-9.6256 l 0,-4.05304 c 0,5.33448 -4.27472,9.6256 -9.588,9.6256 l -48.6472,0 c -5.3134398,0 -9.588,-4.29144 -9.588,-9.6256 z"
     id="path3161" />
  <path
     style="fill:#e6e6e6;fill-opacity:1"
     d="m 13.670313,3.9406247 c -5.3136002,0 -9.576563,3.9472416 -9.576563,8.8266483 l 0.00156,41.041919 c 0.049562,4.839344 4.3004267,8.719461 9.582812,8.719461 l 48.646876,0 c 5.195394,0 9.386393,-3.755405 9.570313,-8.483645 l 0,-41.277735 c 0,-4.8792604 -4.262963,-8.8266483 -9.576563,-8.8266483 l -48.648437,0 z"
     id="path4427"
     inkscape:connector-curvature="0" />
  <path
     inkscape:connector-curvature="0"
     id="path4437"
     d="m 14.804798,5.3068988 c -5.0657741,0 -9.1299121,3.7631421 -9.1299121,8.4149732 l 0.00149,39.127722 c 0.04725,4.613636 4.0998546,8.312786 9.1358701,8.312786 l 46.377982,0 c 4.953081,0 8.948612,-3.580255 9.123954,-8.087968 l 0,-39.35254 c 0,-4.6516916 -4.064139,-8.4149732 -9.129912,-8.4149732 l -46.379472,0 z"
     style="fill:url(#linearGradient4441);fill-opacity:1" />
  <g
     id="g4298"
     transform="translate(107.35051,13.054066)">
    <path
       style="fill:white;fill-opacity:0.12156899;fill-rule:nonzero;stroke:none"
       d="m -69.354016,2.471133 c -11.164063,0 -20.472656,7.644531 -20.472656,17.386719 0,4.140625 1.722656,7.9375 4.519531,10.886718 0,0.0039 0.07422,0.07422 0.07422,0.07422 0,0 0.07422,0.07422 0.07422,0.07422 0,0 0.09766,0.07422 0.09766,0.07422 0.0039,0 0.09766,0.05078 0.101563,0.05078 0,0 0.09375,0.04687 0.09766,0.04687 0,0.0039 0.02344,0.01563 0.05078,0.02734 -1.289072,0.382819 -2.371103,1.332038 -2.621103,2.738288 -0.355469,2.042969 1.304687,3.78125 3.3125,4.027344 1.980469,0.242187 4.039062,-0.898438 4.394531,-2.914063 0.355469,-2.039062 -1.304688,-3.777343 -3.308594,-4.027343 l 11.753906,-4.097657 -6.472656,6.617188 c -0.0078,0.0078 -0.01563,0.01563 -0.02344,0.02734 0,0 -0.04687,0.07031 -0.05078,0.07422 0,0 -0.04688,0.07031 -0.04688,0.07422 0,0 -0.05078,0.07031 -0.05078,0.07031 0,0.0039 -0.04687,0.07422 -0.04687,0.07422 -0.0039,0.0039 -0.05078,0.07422 -0.05078,0.07422 0,0.0039 -0.05078,0.09766 -0.05078,0.101562 0,0 -0.02344,0.07031 -0.02344,0.07422 0,0 -0.02344,0.09766 -0.02344,0.09766 -0.0039,0 -0.02734,0.09766 -0.02734,0.09766 0,0.0039 0,0.07422 0,0.07422 0,0.0039 -0.02344,0.09766 -0.02344,0.09766 0,0.0039 0,0.09766 0,0.101562 0,0 0,0.09766 0,0.09766 0,0 0,0.07422 0,0.07422 0,0 0.02344,0.09766 0.02344,0.09766 0,0.0039 0.02344,0.09766 0.02734,0.101563 0,0 0.02344,0.07031 0.02344,0.07422 0,0 0.02344,0.09375 0.02344,0.09766 0,0 0.02344,0.07031 0.02734,0.07422 0,0 0.04687,0.09766 0.04687,0.09766 0,0 0.05078,0.07422 0.05078,0.07422 0,0 0.04687,0.07422 0.04687,0.07422 0.0039,0 0.05078,0.07422 0.05078,0.07422 0,0 0.05078,0.07422 0.05078,0.07422 0,0 0.07031,0.07422 0.07422,0.07422 0,0 0.04687,0.07422 0.04687,0.07422 0.0039,0 0.07422,0.04687 0.07422,0.04687 0.0039,0.0039 0.07422,0.05078 0.07422,0.05078 0.0039,0 0.07422,0.05078 0.07422,0.05078 0.0039,0 0.09766,0.04687 0.101563,0.04687 0,0.0039 0.07031,0.05078 0.07031,0.05078 0.0039,0 0.07422,0.02344 0.07422,0.02344 0.01172,0.01172 0.01953,0.01953 0.02734,0.02734 2.414062,0.84375 5.070312,1.28125 7.828125,1.28125 11.160156,0 20.46875,-7.613281 20.46875,-17.355468 0,-9.742188 -9.308594,-17.386719 -20.46875,-17.386719 z m 0,0"
       id="path76"
       inkscape:connector-curvature="0" />
    <path
       style="fill:white;fill-opacity:0.2;fill-rule:nonzero;stroke:none"
       d="m -69.354016,3.189883 c -10.835938,0 -19.753906,7.390625 -19.753906,16.667969 0,3.9375 1.636718,7.558594 4.320312,10.394531 0.214844,0.222656 0.542969,0.300781 0.839844,0.195313 l 15.011718,-5.234376 c 0.351563,-0.144531 0.550782,-0.515624 0.480469,-0.886718 -0.07422,-0.371094 -0.398437,-0.640625 -0.777343,-0.644532 -0.02734,0.0039 -0.0625,0 -0.121094,0 -2.699219,0 -4.742188,-1.785156 -4.742188,-3.824218 0,-2.042969 2.046875,-3.855469 4.742188,-3.855469 2.691406,0 4.738281,1.8125 4.738281,3.855469 0,1.117187 -0.613281,2.132812 -1.628906,2.863281 0.0078,-0.0039 0.0039,-0.01172 -0.05078,0.02344 -0.04297,0.03906 -0.08594,0.07813 -0.121094,0.125 l -10.816407,11.085935 c -0.179688,0.191406 -0.25,0.464844 -0.191407,0.71875 0.05859,0.257812 0.242188,0.46875 0.488281,0.566406 2.335938,0.816406 4.902344,1.257813 7.582032,1.257813 10.832031,0 19.753906,-7.363281 19.753906,-16.640625 0,-9.277344 -8.921875,-16.667969 -19.753906,-16.667969 z m 0,13.234375 c -2.105469,0 -3.953125,1.457031 -3.953125,3.433594 0,1.972656 1.847656,3.429687 3.953125,3.429687 2.101562,0 3.949218,-1.457031 3.949218,-3.429687 0,-1.976563 -1.847656,-3.433594 -3.949218,-3.433594 z m -14.398438,15.183594 c -1.414062,0.07031 -2.71875,0.957031 -2.960937,2.347656 -0.277344,1.585938 1.039062,2.980469 2.691406,3.183594 1.65625,0.207031 3.300781,-0.734375 3.578125,-2.320313 0.28125,-1.582031 -1.035156,-2.980469 -2.691406,-3.183593 -0.179688,-0.02344 -0.394532,-0.03516 -0.617188,-0.02734 z m 0,0"
       id="path78"
       inkscape:connector-curvature="0" />
    <path
       style="fill:url(#linear8);fill-rule:nonzero;stroke:none"
       d="m -69.354016,3.978946 c -10.476563,0 -18.964844,7.113281 -18.964844,15.878906 0,3.71875 1.535156,7.144531 4.097656,9.851562 l 15.015625,-5.234375 c -0.05078,0 -0.101562,0 -0.148437,0 -3.054688,0 -5.53125,-2.0625 -5.53125,-4.617187 0,-2.558594 2.476562,-4.644532 5.53125,-4.644532 3.054687,0 5.53125,2.085938 5.53125,4.644532 0,1.40625 -0.769532,2.65625 -1.953125,3.503906 -0.02344,0.01953 -0.04687,0.03125 -0.07422,0.05078 l -10.8125,11.085938 c 2.246094,0.789062 4.714844,1.210937 7.308594,1.210937 10.472656,0 18.960937,-7.089844 18.960937,-15.851562 0,-8.765625 -8.488281,-15.878906 -18.960937,-15.878906 z m 0,13.234374 c -1.746094,0 -3.164063,1.183594 -3.164063,2.644532 0,1.457031 1.417969,2.640625 3.164063,2.640625 1.742187,0 3.160156,-1.183594 3.160156,-2.640625 0,-1.460938 -1.417969,-2.644532 -3.160156,-2.644532 z m -14.347656,15.1875 c -1.101563,0.05078 -2.054688,0.753907 -2.222657,1.703126 -0.191406,1.082031 0.703125,2.085937 2,2.246093 1.296875,0.160157 2.5,-0.59375 2.691407,-1.679687 0.191406,-1.082032 -0.703126,-2.085938 -2,-2.246094 -0.160157,-0.01953 -0.3125,-0.03125 -0.46875,-0.02344 z m 0,0"
       id="path80"
       inkscape:connector-curvature="0" />
    <path
       style="fill:black;fill-opacity:0.05098039;fill-rule:nonzero;stroke:none"
       d="m -69.354016,3.978946 c -10.476563,0 -18.964844,7.113281 -18.964844,15.878906 0,3.71875 1.535156,7.144531 4.097656,9.851562 l 15.015625,-5.234375 c -0.05078,0 -0.101562,0 -0.148437,0 -3.054688,0 -5.53125,-2.0625 -5.53125,-4.617187 0,-2.558594 2.476562,-4.644532 5.53125,-4.644532 3.054687,0 5.53125,2.085938 5.53125,4.644532 0,1.40625 -0.769532,2.65625 -1.953125,3.503906 -0.02344,0.01953 -0.04687,0.03125 -0.07422,0.05078 l -10.8125,11.085938 c 2.246094,0.789062 4.714844,1.210937 7.308594,1.210937 10.472656,0 18.960937,-7.089844 18.960937,-15.851562 0,-8.765625 -8.488281,-15.878906 -18.960937,-15.878906 z m 0,0.863281 c 10.082031,0 18.097656,6.804687 18.097656,15.015625 0,8.207031 -8.015625,14.988281 -18.097656,14.988281 -1.992188,0 -3.871094,-0.328125 -5.65625,-0.816406 l 9.65625,-9.902344 c -0.0039,0.0039 0.01172,-0.02734 0.07422,-0.07422 0.01953,-0.01172 0.02734,-0.03516 0.04688,-0.04687 1.335937,-0.980469 2.273437,-2.453125 2.273437,-4.148437 0,-3.113282 -2.949219,-5.507813 -6.394531,-5.507813 -3.449219,0 -6.398438,2.394531 -6.398438,5.507813 0,2.144531 1.457032,3.882812 3.457032,4.789062 L -83.924323,28.6977 c -2.210937,-2.5 -3.53125,-5.53125 -3.53125,-8.839844 0,-8.210938 8.015625,-15.015625 18.101563,-15.015625 z m 0,12.371093 c -1.746094,0 -3.164063,1.183594 -3.164063,2.644532 0,1.457031 1.417969,2.640625 3.164063,2.640625 1.742187,0 3.160156,-1.183594 3.160156,-2.640625 0,-1.460938 -1.417969,-2.644532 -3.160156,-2.644532 z m 0,0.863282 c 1.355468,0 2.292968,0.875 2.292968,1.78125 0,0.902344 -0.9375,1.777344 -2.292968,1.777344 -1.359375,0 -2.296875,-0.875 -2.296875,-1.777344 0,-0.90625 0.9375,-1.78125 2.296875,-1.78125 z M -83.701672,32.40082 c -1.101563,0.05078 -2.054688,0.753907 -2.222657,1.703126 -0.191406,1.082031 0.703125,2.085937 2,2.246093 1.296875,0.160157 2.5,-0.59375 2.691407,-1.679687 0.191406,-1.082032 -0.703126,-2.085938 -2,-2.246094 -0.160157,-0.01953 -0.3125,-0.03125 -0.46875,-0.02344 z m 0.05078,0.863282 c 0.08594,-0.0039 0.179687,0.0078 0.320312,0.02344 0.90625,0.113281 1.355469,0.695313 1.257813,1.234375 -0.09375,0.542969 -0.847656,1.074219 -1.753906,0.964844 -0.90625,-0.113281 -1.351563,-0.691406 -1.257813,-1.234375 0.08203,-0.46875 0.671875,-0.953125 1.433594,-0.988281 z m 0,0"
       id="path82"
       inkscape:connector-curvature="0" />
    <path
       style="fill:black;fill-opacity:0.2;fill-rule:nonzero;stroke:none"
       d="m -69.354016,3.978946 c -10.476563,0 -18.964844,7.113281 -18.964844,15.878906 0,0.09766 0.02344,0.195312 0.02344,0.292968 0.312498,-8.53125 8.66406,-15.382812 18.941404,-15.382812 10.3125,0 18.710937,6.902344 18.960937,15.484375 0.0039,-0.132813 0,-0.261719 0,-0.394531 0,-8.765625 -8.488281,-15.878906 -18.960937,-15.878906 z m 0,13.234374 c -1.746094,0 -3.164063,1.183594 -3.164063,2.644532 0,0.132812 0.02734,0.265625 0.05078,0.394531 0.226563,-1.277344 1.523438,-2.25 3.113282,-2.25 1.585937,0 2.882812,0.972656 3.109375,2.25 0.02344,-0.128906 0.05078,-0.261719 0.05078,-0.394531 0,-1.460938 -1.417969,-2.644532 -3.160156,-2.644532 z m -5.507813,3.113282 c -0.0078,0.105468 -0.02344,0.210937 -0.02344,0.320312 0,2.097656 1.664062,3.855469 3.949218,4.417969 l 1.730469,-0.589844 c -0.05078,0 -0.101562,0 -0.148437,0 -2.867188,0 -5.226563,-1.816406 -5.507813,-4.148437 z m 11.011719,0.04687 c -0.160156,1.195312 -0.890625,2.246093 -1.925781,2.988281 -0.02344,0.01953 -0.04687,0.03125 -0.07422,0.05078 l -10.8125,11.085938 c 0.191406,0.06641 0.394531,0.109375 0.589844,0.171875 L -65.85011,24.201602 c 0.02734,-0.01953 0.05078,-0.03125 0.07422,-0.05078 1.183593,-0.847656 1.953125,-2.097656 1.953125,-3.503906 0,-0.09375 -0.01953,-0.179687 -0.02734,-0.273437 z M -83.701672,32.40082 c -1.101563,0.05078 -2.054688,0.753907 -2.222657,1.703126 -0.04297,0.238281 -0.03125,0.46875 0.02344,0.691406 0.214843,-0.898438 1.136719,-1.554688 2.199219,-1.605469 0.15625,-0.0078 0.308593,0.0039 0.46875,0.02344 1.011718,0.125 1.78125,0.765626 1.976562,1.558594 0.0078,-0.03516 0.01953,-0.06641 0.02344,-0.101562 0.191406,-1.082032 -0.703126,-2.085938 -2,-2.246094 -0.160157,-0.01953 -0.3125,-0.03125 -0.46875,-0.02344 z m 0,0"
       id="path84"
       inkscape:connector-curvature="0" />
  </g>
</svg>
