<svg height="96" width="96" xmlns="http://www.w3.org/2000/svg" xmlns:xlink="http://www.w3.org/1999/xlink" xmlns:sodipodi="http://sodipodi.sourceforge.net/DTD/sodipodi-0.dtd" xmlns:inkscape="http://www.inkscape.org/namespaces/inkscape">
 <defs>
  <filter x="-0.225" y="-0.257" height="1.514" color-interpolation-filters="sRGB" id="filter3810" width="1.45">
   <feGaussianBlur stdDeviation="4.5"/>
  </filter>
  <clipPath id="clipPath3824">
   <path d="m 16,12 c -2.216,0 -4,1.784 -4,4 l 0,52 c 0,2.216 1.784,4 4,4 l 64,0 c 2.216,0 4,-1.784 4,-4 l 0,-52 c 0,-2.216 -1.784,-4 -4,-4 l -64,0 z m 32,8 2.65625,2.25 18.6875,15.625 L 72,40.125 69.34375,42.34375 55.375,54.0625 l 0,-8.875 L 61.40625,40.125 48,28.875 l -13.40625,11.25 6.03125,5.0625 0,8.875 L 26.65625,42.34375 24,40.125 26.65625,37.875 45.34375,22.25 48,20 z m -3.75,20.03125 7.5,0 0,21.96875 -7.5,0 0,-21.96875 z" inkscape:connector-curvature="0"/>
  </clipPath>
  <linearGradient x2="0" y1="62" y2="21.555" gradientUnits="userSpaceOnUse" id="linearGradient3773" gradientTransform="matrix(1 0 0 1 0 -1)">
   <stop stop-color="#4d4d4d" stop-opacity="0.707"/>
   <stop stop-color="#4d4d4d" stop-opacity="0.252" offset="1"/>
  </linearGradient>
  <linearGradient id="linearGradient3448">
   <stop stop-color="#000000" stop-opacity="1"/>
   <stop stop-color="#000000" stop-opacity="0" offset="1"/>
  </linearGradient>
  <linearGradient id="linearGradient3220">
   <stop stop-color="#ffffff" stop-opacity="1"/>
   <stop stop-color="#bfbfbf" stop-opacity="0" offset="1"/>
  </linearGradient>
  <linearGradient x2="0" y1="6" y2="63.893" gradientUnits="userSpaceOnUse" id="linearGradient3188">
   <stop stop-color="#ffffff" stop-opacity="1"/>
   <stop stop-color="#ffffff" stop-opacity="0" offset="1"/>
  </linearGradient>
  <linearGradient x2="0" y1="6" y2="78" gradientUnits="userSpaceOnUse" id="linearGradient3179">
   <stop stop-color="#f0f0f0" stop-opacity="1"/>
   <stop stop-color="#b4b4b4" stop-opacity="1" offset="1"/>
  </linearGradient>
  <linearGradient x1="6" x2="32" gradientUnits="userSpaceOnUse" id="linearGradient3279">
   <stop stop-color="#7a7a7a" stop-opacity="1"/>
   <stop stop-color="#f9f9f9" stop-opacity="1" offset="0.203"/>
   <stop stop-color="#c9c9c9" stop-opacity="1" offset="0.43"/>
   <stop stop-color="#dedede" stop-opacity="0" offset="1"/>
  </linearGradient>
  <linearGradient x1="6" x2="32.03" gradientUnits="userSpaceOnUse" id="linearGradient3287" gradientTransform="matrix(-1 0 0 1 96.03 0)">
   <stop stop-color="#7a7a7a" stop-opacity="1"/>
   <stop stop-color="#f9f9f9" stop-opacity="1" offset="0.146"/>
   <stop stop-color="#c9c9c9" stop-opacity="1" offset="0.373"/>
   <stop stop-color="#dedede" stop-opacity="0" offset="1"/>
  </linearGradient>
  <linearGradient x1="6" x2="45.22" xlink:href="#linearGradient3448" gradientUnits="userSpaceOnUse" id="linearGradient3454" gradientTransform="matrix(-1 0 0 1 96 -2)"/>
  <linearGradient x2="0" xlink:href="#linearGradient3448" y1="77.09" y2="90" gradientUnits="userSpaceOnUse" id="linearGradient3460"/>
  <linearGradient x1="18.743" x2="109.19" xlink:href="#linearGradient3220" y1="8.05" y2="68.52" gradientUnits="userSpaceOnUse" id="linearGradient3551" gradientTransform="matrix(1 0 0 -1 0 84)"/>
  <linearGradient x1="15.656" x2="46.595" xlink:href="#linearGradient3220" y1="69.39" y2="39.821" gradientUnits="userSpaceOnUse" id="linearGradient3781" gradientTransform="matrix(1.11656 0 0 1.11656 0.805 -5.676)"/>
  <clipPath id="clipPath3785">
   <rect x="6" rx="6" y="6" height="72" width="84"/>
  </clipPath>
  <filter x="-0.123" y="-0.18" height="1.36" color-interpolation-filters="sRGB" id="filter3829" width="1.245">
   <feGaussianBlur stdDeviation="3.54877"/>
  </filter>
  <linearGradient x2="0" xlink:href="#linearGradient3448" y1="80.14" y2="82" gradientUnits="userSpaceOnUse" id="linearGradient4196"/>
  <linearGradient x2="0" y1="92.54" y2="7.02" gradientUnits="userSpaceOnUse" id="ButtonShadow-0" gradientTransform="matrix(1.0059 0 0 0.99417 100 0)">
   <stop stop-color="#000000" stop-opacity="1"/>
   <stop stop-color="#000000" stop-opacity="0.588" offset="1"/>
  </linearGradient>
  <linearGradient x2="0" xlink:href="#ButtonShadow-0" y1="6.132" y2="90.24" gradientUnits="userSpaceOnUse" id="linearGradient3780" gradientTransform="matrix(1.02381 0 0 1.0119 -1.143 -98.07)"/>
  <linearGradient x2="0" xlink:href="#ButtonShadow-0" y1="6.132" y2="90.24" gradientUnits="userSpaceOnUse" id="linearGradient3721" gradientTransform="matrix(1 0 0 1 0 -97)"/>
  <path d="M 90,64.1875 90,84 c 0,3.324 -2.676,6 -6,6 L 12,90 C 8.676,90 6,87.324 6,84 l 0,-19.8125 84,0 z" fill-opacity="1" stroke="none" fill-rule="nonzero" id="SVGCleanerId_0"/>
 </defs>
 <g display="inline">
  <path d="m 12,-95.03125 c -5.5110903,0 -10.03125,4.52016 -10.03125,10.03125 l 0,71 c 0,5.5110902 4.5201598,10.03125 10.03125,10.03125 l 72,0 c 5.51109,0 10.03125,-4.5201597 10.03125,-10.03125 l 0,-71 c 0,-5.51109 -4.52016,-10.03125 -10.03125,-10.03125 l -72,0 z" fill="url(#linearGradient3780)" fill-opacity="1" fill-rule="nonzero" stroke="none" opacity="0.08" transform="matrix(1 0 0 -1 0 0)"/>
  <path d="m 12,-94.03125 c -4.971633,0 -9.03125,4.059617 -9.03125,9.03125 l 0,71 c 0,4.9716329 4.0596171,9.03125 9.03125,9.03125 l 72,0 c 4.971633,0 9.03125,-4.059617 9.03125,-9.03125 l 0,-71 c 0,-4.971633 -4.059617,-9.03125 -9.03125,-9.03125 l -72,0 z" fill="url(#linearGradient3780)" fill-opacity="1" fill-rule="nonzero" stroke="none" opacity="0.1" transform="matrix(1 0 0 -1 0 0)"/>
  <path d="m 12,-93 c -4.4091333,0 -8,3.590867 -8,8 l 0,71 c 0,4.4091333 3.5908667,8 8,8 l 72,0 c 4.409133,0 8,-3.5908667 8,-8 l 0,-71 c 0,-4.409133 -3.590867,-8 -8,-8 l -72,0 z" fill="url(#linearGradient3780)" fill-opacity="1" fill-rule="nonzero" stroke="none" opacity="0.2" transform="matrix(1 0 0 -1 0 0)"/>
  <rect x="5" rx="7" y="-92" fill="url(#linearGradient3780)" fill-opacity="1" fill-rule="nonzero" stroke="none" height="85" opacity="0.3" width="86" transform="matrix(1 0 0 -1 0 0)"/>
  <rect x="6" rx="6" y="-91" fill="url(#linearGradient3721)" fill-opacity="1" fill-rule="nonzero" stroke="none" height="84" opacity="0.45" width="84" transform="matrix(1 0 0 -1 0 0)"/>
 </g>
 <path d="M 12,6 C 8.676,6 6,8.676 6,12 l 0,2 0,68 0,2 c 0,0.334721 0.04135,0.6507 0.09375,0.96875 0.0487,0.295596 0.09704,0.596915 0.1875,0.875 0.00988,0.03038 0.020892,0.0636 0.03125,0.09375 0.098865,0.287771 0.2348802,0.547452 0.375,0.8125 0.1445918,0.273507 0.3156161,0.535615 0.5,0.78125 0.1843839,0.245635 0.3737765,0.473472 0.59375,0.6875 0.439947,0.428056 0.94291,0.814526 1.5,1.09375 0.278545,0.139612 0.5734731,0.246947 0.875,0.34375 -0.2562018,-0.100222 -0.4867109,-0.236272 -0.71875,-0.375 -0.00741,-0.0044 -0.023866,0.0045 -0.03125,0 -0.031933,-0.0193 -0.062293,-0.04251 -0.09375,-0.0625 -0.120395,-0.0767 -0.2310226,-0.163513 -0.34375,-0.25 -0.1061728,-0.0808 -0.2132809,-0.161112 -0.3125,-0.25 -0.1779299,-0.161433 -0.3474596,-0.345388 -0.5,-0.53125 -0.1075789,-0.130255 -0.2183939,-0.265285 -0.3125,-0.40625 -0.025089,-0.03838 -0.038446,-0.08587 -0.0625,-0.125 -0.064763,-0.103032 -0.1302275,-0.204517 -0.1875,-0.3125 -0.1010083,-0.194706 -0.2056748,-0.415701 -0.28125,-0.625 -0.00796,-0.02181 -0.023589,-0.04055 -0.03125,-0.0625 C 7.2494249,86.5643 7.2454455,86.469419 7.21875,86.375 7.1884177,86.268382 7.1483606,86.171969 7.125,86.0625 7.0521214,85.720988 7,85.364295 7,85 L 7,83 7,15 7,13 C 7,10.218152 9.2181517,8 12,8 l 2,0 68,0 2,0 c 2.781848,0 5,2.218152 5,5 l 0,2 0,68 0,2 c 0,0.364295 -0.05212,0.720988 -0.125,1.0625 -0.04415,0.206893 -0.08838,0.397658 -0.15625,0.59375 -0.0077,0.02195 -0.0233,0.04069 -0.03125,0.0625 -0.06274,0.173739 -0.138383,0.367449 -0.21875,0.53125 -0.04158,0.0828 -0.07904,0.169954 -0.125,0.25 -0.0546,0.09721 -0.126774,0.18835 -0.1875,0.28125 -0.09411,0.140965 -0.204921,0.275995 -0.3125,0.40625 -0.143174,0.17445 -0.303141,0.346998 -0.46875,0.5 -0.01117,0.0102 -0.01998,0.02115 -0.03125,0.03125 -0.138386,0.125556 -0.285091,0.234436 -0.4375,0.34375 -0.102571,0.07315 -0.204318,0.153364 -0.3125,0.21875 -0.0074,0.0045 -0.02384,-0.0044 -0.03125,0 -0.232039,0.138728 -0.462548,0.274778 -0.71875,0.375 0.301527,-0.0968 0.596455,-0.204138 0.875,-0.34375 0.55709,-0.279224 1.060053,-0.665694 1.5,-1.09375 0.219973,-0.214028 0.409366,-0.441865 0.59375,-0.6875 0.184384,-0.245635 0.355408,-0.507743 0.5,-0.78125 0.14012,-0.265048 0.276135,-0.524729 0.375,-0.8125 0.01041,-0.03078 0.02133,-0.06274 0.03125,-0.09375 0.09046,-0.278085 0.1388,-0.579404 0.1875,-0.875 C 89.95865,84.6507 90,84.334721 90,84 l 0,-2 0,-68 0,-2 C 90,8.676 87.324,6 84,6 L 12,6 z" fill="url(#linearGradient3188)" fill-opacity="1" fill-rule="nonzero" stroke="none" opacity="0.5" inkscape:connector-curvature="0"/>
 <use xlink:href="#SVGCleanerId_0" fill="#cacaca" inkscape:connector-curvature="0"/>
 <path d="m 6,73 0,1 c 0,3.324 2.676,6 6,6 l 72,0 c 3.324,0 6,-2.676 6,-6 l 0,-1 c 0,3.324 -2.676,6 -6,6 L 12,79 C 8.676,79 6,76.324 6,73 z" fill="#999999" fill-opacity="1" fill-rule="nonzero" stroke="none" inkscape:connector-curvature="0"/>
 <path d="m 90.030615,64.1875 0,19.8125 c 0,3.324 -2.676,6 -6,6 L 64,90 l 0,-25.8125 26.030615,0 z" fill="url(#linearGradient3287)" fill-opacity="1" fill-rule="nonzero" stroke="none" opacity="0.8" inkscape:connector-curvature="0"/>
 <path d="M 6,64.1875 6,84 c 0,3.324 2.676,6 6,6 l 20,0 0,-25.8125 -26,0 z" fill="url(#linearGradient3279)" fill-opacity="1" fill-rule="nonzero" stroke="none" opacity="0.8" inkscape:connector-curvature="0"/>
 <use xlink:href="#SVGCleanerId_0" fill="url(#linearGradient3460)" opacity="0.2" inkscape:connector-curvature="0"/>
 <path d="m 6,74 0,6 c 0,3.324 2.676,6 6,6 l 72,0 c 3.324,0 6,-2.676 6,-6 l 0,-6 c 0,3.324 -2.676,6 -6,6 L 12,80 C 8.676,80 6,77.324 6,74 z" fill="#252525" fill-opacity="1" fill-rule="nonzero" stroke="none" inkscape:connector-curvature="0"/>
 <path d="m 6,80 0,1 c 0,3.324 2.676,6 6,6 l 72,0 c 3.324,0 6,-2.676 6,-6 l 0,-1 c 0,3.324 -2.676,6 -6,6 L 12,86 C 8.676,86 6,83.324 6,80 z" fill="#ececec" fill-opacity="1" fill-rule="nonzero" stroke="none" inkscape:connector-curvature="0"/>
 <path d="m 6,74 0,2 c 0,3.324 2.676,6 6,6 l 72,0 c 3.324,0 6,-2.676 6,-6 l 0,-2 c 0,3.324 -2.676,6 -6,6 L 12,80 C 8.676,80 6,77.324 6,74 z" fill="url(#linearGradient4196)" fill-opacity="1" fill-rule="nonzero" stroke="none" inkscape:connector-curvature="0"/>
 <g display="inline">
  <rect x="6" rx="6" y="6" fill="url(#linearGradient3179)" fill-opacity="1" fill-rule="nonzero" stroke="none" height="70" width="84"/>
  <path d="M 12,76 C 8.676,76 6,73.324 6,70 L 6,12 C 6,8.676 8.676,6 12,6 l 72,0 c 3.324,0 6,2.676 6,6 l 0,58 c 0,3.324 -2.676,6 -6,6 l -72,0 z m 0,-2 72,0 c 2.781848,0 5,-2.195392 5,-4.9375 l 0,-57.125 C 89,9.195393 86.781848,6.999999 84,7 L 12,7 C 9.2181517,7 7,9.195389 7,11.9375 l 0,57.125 C 7,71.804608 9.2181517,74 12,74 z" fill="url(#linearGradient3551)" fill-opacity="1" fill-rule="nonzero" stroke="none" opacity="0.7" inkscape:connector-curvature="0"/>
  <path d="m 90,70 0,1 c 0,3.324 -2.676,6 -6,6 L 12,77 C 8.676,77 6,74.324 6,71 l 0,-1 c 0,2.984862 2.152831,5.43487 5,5.90625 C 11.326884,75.971636 11.652269,76 12,76 l 72,0 c 0.166304,0 0.337194,-0.01811 0.5,-0.03125 0.04161,-0.0041 0.08371,0.0051 0.125,0 0.127873,-0.01291 0.249673,-0.04175 0.375,-0.0625 C 87.847169,75.43487 90,72.984862 90,70 z" fill="url(#linearGradient3454)" fill-opacity="1" fill-rule="nonzero" stroke="none" opacity="0.1" inkscape:connector-curvature="0"/>
  <path d="M 72.785673,73.316552 C 37.497632,71.660468 32.655921,60.569503 56.214438,35.565764 29.558784,43.997531 16.947902,55.85465 7.5798689,63.939487 -2.370079,72.601777 6.9889853,83.779979 17.934257,82.851623 c 11.343001,-0.0075 45.801874,-2.097861 54.851416,-9.535071 z" clip-path="url(#clipPath3785)" fill="url(#linearGradient3781)" fill-opacity="1" fill-rule="evenodd" stroke="none" filter="url(#filter3829)" opacity="0.3" inkscape:connector-curvature="0" transform="matrix(1 0 0 1 0 -2)"/>
 </g>
 <path d="m 47.9375,19.28125 a 0.71435716,0.71435716 0 0 0 -0.40625,0.1875 l -2.65625,2.25 0,-0.03125 -18.6875,15.625 a 0.71435716,0.71435716 0 0 0 0,0.03125 l -2.65625,2.25 a 0.71435716,0.71435716 0 0 0 0,1.09375 L 26.1875,42.90625 40.15625,54.625 a 0.71435716,0.71435716 0 0 0 1.1875,-0.5625 l 0,-8.875 a 0.71435716,0.71435716 0 0 0 -0.25,-0.5625 l -5.375,-4.5 L 48,29.84375 60.28125,40.125 l -5.375,4.5 a 0.71435716,0.71435716 0 0 0 -0.25,0.5625 l 0,8.875 a 0.71435716,0.71435716 0 0 0 1.1875,0.5625 L 69.8125,42.90625 72.46875,40.6875 a 0.71435716,0.71435716 0 0 0 0,-1.09375 l -2.65625,-2.25 a 0.71435716,0.71435716 0 0 0 0,-0.03125 l -18.6875,-15.625 0,0.03125 -2.65625,-2.25 a 0.71435716,0.71435716 0 0 0 -0.53125,-0.1875 z m -3.75,20.03125 a 0.71435716,0.71435716 0 0 0 -0.65625,0.71875 l 0,21.96875 A 0.71435716,0.71435716 0 0 0 44.25,62.71875 l 7.5,0 A 0.71435716,0.71435716 0 0 0 52.46875,62 l 0,-21.96875 A 0.71435716,0.71435716 0 0 0 51.75,39.3125 l -7.5,0 a 0.71435716,0.71435716 0 0 0 -0.0625,0 z" display="inline" clip-path="url(#clipPath3824)" fill="#ffffff" fill-opacity="1" fill-rule="evenodd" stroke="none" filter="url(#filter3810)" opacity="0.8" transform="matrix(1 0 0 1 0 -1)"/>
 <path d="M 72,39.124998 69.346154,36.888887 50.65384,21.23611 48,19 45.346152,21.23611 26.65384,36.888887 24,39.124998 l 2.65384,2.211809 13.961547,11.715279 0,-8.871533 L 34.586534,39.124998 48,27.871527 l 13.413461,11.253471 -6.028847,5.055555 0,8.871533 L 69.346154,41.336807 72,39.124998 z m -20.258222,-0.08494 0,21.959947 -7.483555,0 0,-21.959947 7.483555,0 z" display="inline" fill="url(#linearGradient3773)" fill-opacity="1" fill-rule="evenodd" stroke="none" inkscape:connector-curvature="0"/>
 <path d="M 48,19 45.34375,21.25 26.65625,36.875 24,39.125 l 0.59375,0.5 2.0625,-1.75 L 45.34375,22.25 48,20 l 2.65625,2.25 18.6875,15.625 2.0625,1.75 L 72,39.125 69.34375,36.875 50.65625,21.25 48,19 z m -3.75,20.03125 0,1 7.5,0 0,-1 -7.5,0 z m -9.0625,0.59375 -0.59375,0.5 6.03125,5.0625 0,-1 -5.4375,-4.5625 z m 25.625,0 -5.4375,4.5625 0,1 6.03125,-5.0625 -0.59375,-0.5 z" display="inline" fill="#000000" fill-opacity="1" fill-rule="evenodd" stroke="none" opacity="0.4" inkscape:connector-curvature="0"/>
</svg>
