<svg height="96" width="96" xmlns="http://www.w3.org/2000/svg" xmlns:xlink="http://www.w3.org/1999/xlink" xmlns:sodipodi="http://sodipodi.sourceforge.net/DTD/sodipodi-0.dtd" xmlns:inkscape="http://www.inkscape.org/namespaces/inkscape">
 <defs>
  <linearGradient id="linearGradient3448">
   <stop stop-color="#000000" stop-opacity="1"/>
   <stop stop-color="#000000" stop-opacity="0" offset="1"/>
  </linearGradient>
  <linearGradient id="linearGradient3220">
   <stop stop-color="#ffffff" stop-opacity="1"/>
   <stop stop-color="#bfbfbf" stop-opacity="0" offset="1"/>
  </linearGradient>
  <linearGradient id="linearGradient3737">
   <stop stop-color="#ffffff" stop-opacity="1"/>
   <stop stop-color="#ffffff" stop-opacity="0" offset="1"/>
  </linearGradient>
  <filter x="-0.295" y="-0.462" height="1.923" color-interpolation-filters="sRGB" id="filter3179" width="1.59">
   <feGaussianBlur stdDeviation="6.69643"/>
  </filter>
  <linearGradient x2="0" xlink:href="#linearGradient3737" y1="6" y2="63.893" gradientUnits="userSpaceOnUse" id="linearGradient3188"/>
  <linearGradient x1="-1.857" x2="88" y1="86.21" y2="8.607" gradientUnits="userSpaceOnUse" id="linearGradient3179">
   <stop stop-color="#e6e6e6" stop-opacity="1"/>
   <stop stop-color="#c3c3c3" stop-opacity="1" offset="0.26"/>
   <stop stop-color="#b9b9b9" stop-opacity="1" offset="0.492"/>
   <stop stop-color="#c8c8c8" stop-opacity="1" offset="0.759"/>
   <stop stop-color="#e6e6e6" stop-opacity="1" offset="1"/>
  </linearGradient>
  <linearGradient x1="6" x2="32" gradientUnits="userSpaceOnUse" id="linearGradient3279">
   <stop stop-color="#7a7a7a" stop-opacity="1"/>
   <stop stop-color="#f9f9f9" stop-opacity="1" offset="0.203"/>
   <stop stop-color="#c9c9c9" stop-opacity="1" offset="0.43"/>
   <stop stop-color="#dedede" stop-opacity="0" offset="1"/>
  </linearGradient>
  <linearGradient x1="6" x2="32.03" gradientUnits="userSpaceOnUse" id="linearGradient3287" gradientTransform="matrix(-1 0 0 1 96.03 0)">
   <stop stop-color="#7a7a7a" stop-opacity="1"/>
   <stop stop-color="#f9f9f9" stop-opacity="1" offset="0.146"/>
   <stop stop-color="#c9c9c9" stop-opacity="1" offset="0.373"/>
   <stop stop-color="#dedede" stop-opacity="0" offset="1"/>
  </linearGradient>
  <linearGradient x1="6" x2="45.22" xlink:href="#linearGradient3448" gradientUnits="userSpaceOnUse" id="linearGradient3454" gradientTransform="matrix(-1 0 0 1 96 0)"/>
  <linearGradient x2="0" xlink:href="#linearGradient3448" y1="77.09" y2="90" gradientUnits="userSpaceOnUse" id="linearGradient3460"/>
  <linearGradient x1="41.04" x2="48" xlink:href="#linearGradient3737" y1="72" y2="19.16" gradientUnits="userSpaceOnUse" id="linearGradient3517"/>
  <linearGradient x2="0" xlink:href="#linearGradient3448" y1="73" y2="-60.3" gradientUnits="userSpaceOnUse" id="linearGradient3527" gradientTransform="matrix(1.02778 0 0 1.05 -0.306 -2.65)"/>
  <linearGradient x2="0" y1="12" y2="72.11" gradientUnits="userSpaceOnUse" id="linearGradient3547">
   <stop stop-color="#f0f0f0" stop-opacity="1"/>
   <stop stop-color="#b4b4b4" stop-opacity="1" offset="1"/>
  </linearGradient>
  <linearGradient x1="18.743" x2="109.19" xlink:href="#linearGradient3220" y1="8.05" y2="68.52" gradientUnits="userSpaceOnUse" id="linearGradient3551" gradientTransform="matrix(1 0 0 -1 0 84)"/>
  <linearGradient x1="16" x2="20.18" gradientUnits="userSpaceOnUse" id="linearGradient3556">
   <stop stop-color="#767676" stop-opacity="1"/>
   <stop stop-color="#fdfdfd" stop-opacity="1" offset="1"/>
  </linearGradient>
  <radialGradient cy="85.06" r="2.089" gradientUnits="userSpaceOnUse" id="radialGradient3558" cx="18.09" gradientTransform="matrix(1 0 0 1.0043 0 -0.364)">
   <stop stop-color="#c1ff97" stop-opacity="1"/>
   <stop stop-color="#30c700" stop-opacity="1" offset="1"/>
  </radialGradient>
  <linearGradient x2="0" y1="80" y2="88.01" gradientUnits="userSpaceOnUse" id="linearGradient4231" gradientTransform="matrix(1 0 0 1 -2 0)">
   <stop stop-color="#000000" stop-opacity="1"/>
   <stop stop-color="#484848" stop-opacity="1" offset="1"/>
  </linearGradient>
  <linearGradient x2="0" xlink:href="#linearGradient3737" y1="80" y2="88.01" gradientUnits="userSpaceOnUse" id="linearGradient4239"/>
  <clipPath id="clipPath3306">
   <use xlink:href="#SVGCleanerId_2"/>
  </clipPath>
  <linearGradient x1="15.656" x2="46.595" xlink:href="#linearGradient3220" y1="69.39" y2="39.821" gradientUnits="userSpaceOnUse" id="linearGradient3540"/>
  <filter x="-0.123" y="-0.18" height="1.36" color-interpolation-filters="sRGB" id="filter3642" width="1.245">
   <feGaussianBlur stdDeviation="3.1783"/>
  </filter>
  <linearGradient x2="0" y1="92.54" y2="7.02" gradientUnits="userSpaceOnUse" id="ButtonShadow-0" gradientTransform="matrix(1.0059 0 0 0.99417 100 0)">
   <stop stop-color="#000000" stop-opacity="1"/>
   <stop stop-color="#000000" stop-opacity="0.588" offset="1"/>
  </linearGradient>
  <linearGradient x2="0" xlink:href="#ButtonShadow-0" y1="6.132" y2="90.24" gradientUnits="userSpaceOnUse" id="linearGradient3780" gradientTransform="matrix(1.02381 0 0 1.0119 -1.143 -98.07)"/>
  <linearGradient x2="0" xlink:href="#ButtonShadow-0" y1="6.132" y2="90.24" gradientUnits="userSpaceOnUse" id="linearGradient3721" gradientTransform="matrix(1 0 0 1 0 -97)"/>
  <path d="M 90,64.1875 90,84 c 0,3.324 -2.676,6 -6,6 L 12,90 C 8.676,90 6,87.324 6,84 l 0,-19.8125 84,0 z" fill-opacity="1" stroke="none" fill-rule="nonzero" id="SVGCleanerId_0"/>
  <path d="m 20.178571,85.0625 a 2.0892856,2.0982144 0 1 1 -4.178572,0 2.0892856,2.0982144 0 1 1 4.178572,0 z" fill-opacity="1" fill-rule="nonzero" id="SVGCleanerId_1"/>
  <rect x="12" rx="4" y="12" height="60" id="SVGCleanerId_2" width="72"/>
 </defs>
 <path d="m 12,-95.03125 c -5.5110903,0 -10.03125,4.52016 -10.03125,10.03125 l 0,71 c 0,5.5110902 4.5201598,10.03125 10.03125,10.03125 l 72,0 c 5.51109,0 10.03125,-4.5201597 10.03125,-10.03125 l 0,-71 c 0,-5.51109 -4.52016,-10.03125 -10.03125,-10.03125 l -72,0 z" display="inline" fill="url(#linearGradient3780)" fill-opacity="1" fill-rule="nonzero" stroke="none" opacity="0.08" transform="matrix(1 0 0 -1 0 0)"/>
 <path d="m 12,-94.03125 c -4.971633,0 -9.03125,4.059617 -9.03125,9.03125 l 0,71 c 0,4.9716329 4.0596171,9.03125 9.03125,9.03125 l 72,0 c 4.971633,0 9.03125,-4.059617 9.03125,-9.03125 l 0,-71 c 0,-4.971633 -4.059617,-9.03125 -9.03125,-9.03125 l -72,0 z" display="inline" fill="url(#linearGradient3780)" fill-opacity="1" fill-rule="nonzero" stroke="none" opacity="0.1" transform="matrix(1 0 0 -1 0 0)"/>
 <path d="m 12,-93 c -4.4091333,0 -8,3.590867 -8,8 l 0,71 c 0,4.4091333 3.5908667,8 8,8 l 72,0 c 4.409133,0 8,-3.5908667 8,-8 l 0,-71 c 0,-4.409133 -3.590867,-8 -8,-8 l -72,0 z" display="inline" fill="url(#linearGradient3780)" fill-opacity="1" fill-rule="nonzero" stroke="none" opacity="0.2" transform="matrix(1 0 0 -1 0 0)"/>
 <rect x="5" rx="7" display="inline" y="-92" fill="url(#linearGradient3780)" fill-opacity="1" fill-rule="nonzero" stroke="none" height="85" opacity="0.3" width="86" transform="matrix(1 0 0 -1 0 0)"/>
 <rect x="6" rx="6" display="inline" y="-91" fill="url(#linearGradient3721)" fill-opacity="1" fill-rule="nonzero" stroke="none" height="84" opacity="0.45" width="84" transform="matrix(1 0 0 -1 0 0)"/>
 <path d="M 12,6 C 8.676,6 6,8.676 6,12 l 0,2 0,68 0,2 c 0,0.334721 0.04135,0.6507 0.09375,0.96875 0.0487,0.295596 0.09704,0.596915 0.1875,0.875 0.00988,0.03038 0.020892,0.0636 0.03125,0.09375 0.098865,0.287771 0.2348802,0.547452 0.375,0.8125 0.1445918,0.273507 0.3156161,0.535615 0.5,0.78125 0.1843839,0.245635 0.3737765,0.473472 0.59375,0.6875 0.439947,0.428056 0.94291,0.814526 1.5,1.09375 0.278545,0.139612 0.5734731,0.246947 0.875,0.34375 -0.2562018,-0.100222 -0.4867109,-0.236272 -0.71875,-0.375 -0.00741,-0.0044 -0.023866,0.0045 -0.03125,0 -0.031933,-0.0193 -0.062293,-0.04251 -0.09375,-0.0625 -0.120395,-0.0767 -0.2310226,-0.163513 -0.34375,-0.25 -0.1061728,-0.0808 -0.2132809,-0.161112 -0.3125,-0.25 -0.1779299,-0.161433 -0.3474596,-0.345388 -0.5,-0.53125 -0.1075789,-0.130255 -0.2183939,-0.265285 -0.3125,-0.40625 -0.025089,-0.03838 -0.038446,-0.08587 -0.0625,-0.125 -0.064763,-0.103032 -0.1302275,-0.204517 -0.1875,-0.3125 -0.1010083,-0.194706 -0.2056748,-0.415701 -0.28125,-0.625 -0.00796,-0.02181 -0.023589,-0.04055 -0.03125,-0.0625 C 7.2494249,86.5643 7.2454455,86.469419 7.21875,86.375 7.1884177,86.268382 7.1483606,86.171969 7.125,86.0625 7.0521214,85.720988 7,85.364295 7,85 L 7,83 7,15 7,13 C 7,10.218152 9.2181517,8 12,8 l 2,0 68,0 2,0 c 2.781848,0 5,2.218152 5,5 l 0,2 0,68 0,2 c 0,0.364295 -0.05212,0.720988 -0.125,1.0625 -0.04415,0.206893 -0.08838,0.397658 -0.15625,0.59375 -0.0077,0.02195 -0.0233,0.04069 -0.03125,0.0625 -0.06274,0.173739 -0.138383,0.367449 -0.21875,0.53125 -0.04158,0.0828 -0.07904,0.169954 -0.125,0.25 -0.0546,0.09721 -0.126774,0.18835 -0.1875,0.28125 -0.09411,0.140965 -0.204921,0.275995 -0.3125,0.40625 -0.143174,0.17445 -0.303141,0.346998 -0.46875,0.5 -0.01117,0.0102 -0.01998,0.02115 -0.03125,0.03125 -0.138386,0.125556 -0.285091,0.234436 -0.4375,0.34375 -0.102571,0.07315 -0.204318,0.153364 -0.3125,0.21875 -0.0074,0.0045 -0.02384,-0.0044 -0.03125,0 -0.232039,0.138728 -0.462548,0.274778 -0.71875,0.375 0.301527,-0.0968 0.596455,-0.204138 0.875,-0.34375 0.55709,-0.279224 1.060053,-0.665694 1.5,-1.09375 0.219973,-0.214028 0.409366,-0.441865 0.59375,-0.6875 0.184384,-0.245635 0.355408,-0.507743 0.5,-0.78125 0.14012,-0.265048 0.276135,-0.524729 0.375,-0.8125 0.01041,-0.03078 0.02133,-0.06274 0.03125,-0.09375 0.09046,-0.278085 0.1388,-0.579404 0.1875,-0.875 C 89.95865,84.6507 90,84.334721 90,84 l 0,-2 0,-68 0,-2 C 90,8.676 87.324,6 84,6 L 12,6 z" fill="url(#linearGradient3188)" fill-opacity="1" fill-rule="nonzero" stroke="none" opacity="0.5" inkscape:connector-curvature="0"/>
 <use xlink:href="#SVGCleanerId_0" fill="#cacaca" inkscape:connector-curvature="0"/>
 <path d="m 90.030615,64.1875 0,19.8125 c 0,3.324 -2.676,6 -6,6 L 64,90 l 0,-25.8125 26.030615,0 z" fill="url(#linearGradient3287)" fill-opacity="1" fill-rule="nonzero" stroke="none" opacity="0.8" inkscape:connector-curvature="0"/>
 <path d="M 6,64.1875 6,84 c 0,3.324 2.676,6 6,6 l 20,0 0,-25.8125 -26,0 z" fill="url(#linearGradient3279)" fill-opacity="1" fill-rule="nonzero" stroke="none" opacity="0.8" inkscape:connector-curvature="0"/>
 <use xlink:href="#SVGCleanerId_0" fill="url(#linearGradient3460)" opacity="0.2" inkscape:connector-curvature="0"/>
 <use xlink:href="#SVGCleanerId_1" fill="url(#linearGradient3556)" stroke="none" transform="matrix(0 1.67094 1.66383 0 -122.04 53.28)"/>
 <use stroke-opacity="0.532" stroke-width="0.84" xlink:href="#SVGCleanerId_1" fill="url(#radialGradient3558)" stroke="#000000" stroke-dasharray="none" stroke-dashoffset="0" stroke-linecap="square" stroke-linejoin="miter" stroke-miterlimit="4" transform="matrix(1.19231 0 0 1.18723 -2.077 -17.48)"/>
 <path d="m 57,79.5 c -0.817559,0 -1.5,0.682441 -1.5,1.5 l 0,6 c 0,0.817559 0.682441,1.5 1.5,1.5 0.817559,0 1.5,-0.682441 1.5,-1.5 l 0,-6 c 0,-0.817559 -0.682441,-1.5 -1.5,-1.5 z m 4,0 c -0.817559,0 -1.5,0.682441 -1.5,1.5 l 0,6 c 0,0.817559 0.682441,1.5 1.5,1.5 0.817559,0 1.5,-0.682441 1.5,-1.5 l 0,-6 c 0,-0.817559 -0.682441,-1.5 -1.5,-1.5 z m 4,0 c -0.817559,0 -1.5,0.682441 -1.5,1.5 l 0,6 c 0,0.817559 0.682441,1.5 1.5,1.5 0.817559,0 1.5,-0.682441 1.5,-1.5 l 0,-6 c 0,-0.817559 -0.682441,-1.5 -1.5,-1.5 z m 4,0 c -0.817559,0 -1.5,0.682441 -1.5,1.5 l 0,6 c 0,0.817559 0.682441,1.5 1.5,1.5 0.817559,0 1.5,-0.682441 1.5,-1.5 l 0,-6 c 0,-0.817559 -0.682441,-1.5 -1.5,-1.5 z m 4,0 c -0.817559,0 -1.5,0.682441 -1.5,1.5 l 0,6 c 0,0.817559 0.682441,1.5 1.5,1.5 0.817559,0 1.5,-0.682441 1.5,-1.5 l 0,-6 c 0,-0.817559 -0.682441,-1.5 -1.5,-1.5 z m 4,0 c -0.817559,0 -1.5,0.682441 -1.5,1.5 l 0,6 c 0,0.817559 0.682441,1.5 1.5,1.5 0.817559,0 1.5,-0.682441 1.5,-1.5 l 0,-6 c 0,-0.817559 -0.682441,-1.5 -1.5,-1.5 z m 4,0 c -0.817559,0 -1.5,0.682441 -1.5,1.5 l 0,6 c 0,0.817559 0.682441,1.5 1.5,1.5 0.817559,0 1.5,-0.682441 1.5,-1.5 l 0,-6 c 0,-0.817559 -0.682441,-1.5 -1.5,-1.5 z" fill="url(#linearGradient4239)" fill-opacity="1" fill-rule="nonzero" stroke="none" transform="matrix(1 0 0 -1 -2 168)"/>
 <path d="m 55,80 c -0.554,0 -1,0.446 -1,1 l 0,6 c 0,0.554 0.446,1 1,1 0.554,0 1,-0.446 1,-1 l 0,-6 c 0,-0.554 -0.446,-1 -1,-1 z m 4,0 c -0.554,0 -1,0.446 -1,1 l 0,6 c 0,0.554 0.446,1 1,1 0.554,0 1,-0.446 1,-1 l 0,-6 c 0,-0.554 -0.446,-1 -1,-1 z m 4,0 c -0.554,0 -1,0.446 -1,1 l 0,6 c 0,0.554 0.446,1 1,1 0.554,0 1,-0.446 1,-1 l 0,-6 c 0,-0.554 -0.446,-1 -1,-1 z m 4,0 c -0.554,0 -1,0.446 -1,1 l 0,6 c 0,0.554 0.446,1 1,1 0.554,0 1,-0.446 1,-1 l 0,-6 c 0,-0.554 -0.446,-1 -1,-1 z m 4,0 c -0.554,0 -1,0.446 -1,1 l 0,6 c 0,0.554 0.446,1 1,1 0.554,0 1,-0.446 1,-1 l 0,-6 c 0,-0.554 -0.446,-1 -1,-1 z m 4,0 c -0.554,0 -1,0.446 -1,1 l 0,6 c 0,0.554 0.446,1 1,1 0.554,0 1,-0.446 1,-1 l 0,-6 c 0,-0.554 -0.446,-1 -1,-1 z m 4,0 c -0.554,0 -1,0.446 -1,1 l 0,6 c 0,0.554 0.446,1 1,1 0.554,0 1,-0.446 1,-1 l 0,-6 c 0,-0.554 -0.446,-1 -1,-1 z" fill="url(#linearGradient4231)" fill-opacity="1" fill-rule="nonzero" stroke="none" inkscape:connector-curvature="0"/>
 <g display="inline">
  <rect x="6" rx="6" y="6" fill="url(#linearGradient3179)" fill-opacity="1" fill-rule="nonzero" stroke="none" height="72" width="84"/>
  <path d="M 12,78 C 8.676,78 6,75.324 6,72 L 6,12 C 6,8.676 8.676,6 12,6 l 72,0 c 3.324,0 6,2.676 6,6 l 0,60 c 0,3.324 -2.676,6 -6,6 l -72,0 z m 0,-2 72,0 c 2.781848,0 5,-2.195392 5,-4.9375 l 0,-59.125 C 89,9.195393 86.781848,6.999999 84,7 L 12,7 C 9.2181517,7 7,9.195389 7,11.9375 l 0,59.125 C 7,73.804608 9.2181517,76 12,76 z" fill="url(#linearGradient3551)" fill-opacity="1" fill-rule="nonzero" stroke="none" opacity="0.7" inkscape:connector-curvature="0"/>
  <path d="m 90,72 0,1 c 0,3.324 -2.676,6 -6,6 L 12,79 C 8.676,79 6,76.324 6,73 l 0,-1 c 0,2.984862 2.152831,5.43487 5,5.90625 C 11.326884,77.971636 11.652269,78 12,78 l 72,0 c 0.166304,0 0.337194,-0.01811 0.5,-0.03125 0.04161,-0.0041 0.08371,0.0051 0.125,0 C 84.752873,77.95584 84.874673,77.927 85,77.90625 87.847169,77.43487 90,74.984862 90,72 z" fill="url(#linearGradient3454)" fill-opacity="1" fill-rule="nonzero" stroke="none" opacity="0.1" inkscape:connector-curvature="0"/>
  <rect x="13.306" rx="9" y="13.888" fill="#ffffff" fill-opacity="1" fill-rule="nonzero" stroke="none" height="34.821" filter="url(#filter3179)" opacity="0.15" width="54.46" transform="matrix(1.0881 0 0 1.10153 -1.172 -1.41)"/>
  <rect x="11" rx="4.111" ry="4.2" y="11" fill="url(#linearGradient3527)" fill-opacity="1" fill-rule="nonzero" stroke="none" height="63" opacity="0.6" width="74"/>
  <use xlink:href="#SVGCleanerId_2" fill="url(#linearGradient3547)" fill-opacity="1" fill-rule="nonzero" stroke="none"/>
  <path d="m 16,12 c -2.216,0 -4,1.784 -4,4 l 0,52 c 0,2.216 1.784,4 4,4 l 64,0 c 2.216,0 4,-1.784 4,-4 l 0,-52 c 0,-2.216 -1.784,-4 -4,-4 l -64,0 z m 0,0.125 64,0 c 1.639964,0 2.9375,1.297536 2.9375,2.9375 l 0,52 C 82.9375,68.702464 81.639964,70 80,70 l -64,0 c -1.639964,0 -2.9375,-1.297536 -2.9375,-2.9375 l 0,-52 c 0,-1.639964 1.297536,-2.9375 2.9375,-2.9375 z" fill="url(#linearGradient3517)" fill-opacity="1" fill-rule="nonzero" stroke="none" opacity="0.5" inkscape:connector-curvature="0"/>
  <path d="M 64.466651,70.746186 C 32.862441,69.262986 28.526172,59.329842 49.62534,36.936323 25.752355,44.487871 14.457963,55.107187 6.0678887,62.348022 -2.8433524,70.106028 5.5386893,80.117302 15.341349,79.28586 25.500218,79.279131 56.36182,77.407002 64.466651,70.746186 z" clip-path="url(#clipPath3306)" fill="url(#linearGradient3540)" fill-opacity="1" fill-rule="evenodd" stroke="none" filter="url(#filter3642)" opacity="0.4" inkscape:connector-curvature="0" transform="matrix(1.11656 0 0 1.11656 -0.267 -9.247)"/>
 </g>
</svg>
