<svg height="96" width="96" xmlns="http://www.w3.org/2000/svg" xmlns:xlink="http://www.w3.org/1999/xlink" xmlns:sodipodi="http://sodipodi.sourceforge.net/DTD/sodipodi-0.dtd" xmlns:inkscape="http://www.inkscape.org/namespaces/inkscape">
 <defs>
  <linearGradient id="linearGradient4101">
   <stop stop-color="#000000" stop-opacity="1"/>
   <stop stop-color="#000000" stop-opacity="0" offset="1"/>
  </linearGradient>
  <linearGradient id="linearGradient4038">
   <stop stop-color="#60607c" stop-opacity="1"/>
   <stop stop-color="#9d9db2" stop-opacity="1" offset="0.4"/>
   <stop stop-color="#60607c" stop-opacity="1" offset="0.6"/>
   <stop stop-color="#3d3d4f" stop-opacity="1" offset="1"/>
  </linearGradient>
  <linearGradient id="linearGradient3737">
   <stop stop-color="#ffffff" stop-opacity="1"/>
   <stop stop-color="#ffffff" stop-opacity="0" offset="1"/>
  </linearGradient>
  <filter x="-0.192" y="-0.192" height="1.384" color-interpolation-filters="sRGB" id="filter3794" width="1.384">
   <feGaussianBlur stdDeviation="5.28"/>
  </filter>
  <linearGradient x2="0" xlink:href="#linearGradient3737" y1="20.221" y2="138.66" gradientUnits="userSpaceOnUse" id="linearGradient3613"/>
  <clipPath id="clipPath3613">
   <rect x="6" rx="6" y="6" height="84" width="84"/>
  </clipPath>
  <linearGradient x2="0" y1="90" y2="5.988" gradientUnits="userSpaceOnUse" id="linearGradient3617">
   <stop stop-color="#bebebe" stop-opacity="1"/>
   <stop stop-color="#e6e6e6" stop-opacity="1" offset="1"/>
  </linearGradient>
  <linearGradient x2="0" y1="92.54" y2="7.02" gradientUnits="userSpaceOnUse" id="ButtonShadow-0" gradientTransform="matrix(1.0059 0 0 0.99417 100 0)">
   <stop stop-color="#000000" stop-opacity="1"/>
   <stop stop-color="#000000" stop-opacity="0.588" offset="1"/>
  </linearGradient>
  <linearGradient x2="0" xlink:href="#ButtonShadow-0" y1="6.132" y2="90.24" gradientUnits="userSpaceOnUse" id="linearGradient3780" gradientTransform="matrix(1.02381 0 0 1.0119 -1.143 -98.07)"/>
  <linearGradient x2="0" xlink:href="#linearGradient3737" y1="6" y2="64" gradientUnits="userSpaceOnUse" id="linearGradient3836"/>
  <radialGradient cy="90.06" r="42" xlink:href="#linearGradient3737" gradientUnits="userSpaceOnUse" id="radialGradient3842" cx="48" gradientTransform="matrix(1.14286 0 0 0.99851 -6.857 0.072)"/>
  <linearGradient x2="0" xlink:href="#ButtonShadow-0" y1="90" y2="5.988" gradientUnits="userSpaceOnUse" id="linearGradient3882" gradientTransform="matrix(1 0 0 1 0 1)"/>
  <linearGradient x2="0" xlink:href="#ButtonShadow-0" y1="6.132" y2="90.24" gradientUnits="userSpaceOnUse" id="linearGradient3905" gradientTransform="matrix(1.02381 0 0 -1.0119 -1.143 98.07)"/>
  <linearGradient x2="0" y1="88" y2="-96" gradientUnits="userSpaceOnUse" id="linearGradient3945">
   <stop stop-color="#6f6f91" stop-opacity="1"/>
   <stop stop-color="#6f6f91" stop-opacity="0" offset="1"/>
  </linearGradient>
  <linearGradient x1="48" x2="96" xlink:href="#linearGradient3737" spreadMethod="reflect" gradientUnits="userSpaceOnUse" id="linearGradient3964"/>
  <linearGradient x2="0" xlink:href="#linearGradient4101" y1="48" y2="90" spreadMethod="reflect" gradientUnits="userSpaceOnUse" id="linearGradient3993"/>
  <linearGradient x1="33" x2="35" xlink:href="#linearGradient4038" gradientUnits="userSpaceOnUse" id="linearGradient4063"/>
  <linearGradient x1="32" x2="36" gradientUnits="userSpaceOnUse" id="linearGradient4065">
   <stop stop-color="#d4d4d4" stop-opacity="1"/>
   <stop stop-color="#ffffff" stop-opacity="1" offset="0.4"/>
   <stop stop-color="#e0e0e0" stop-opacity="1" offset="0.6"/>
   <stop stop-color="#868686" stop-opacity="1" offset="1"/>
  </linearGradient>
  <linearGradient x1="31.5" x2="36.5" xlink:href="#linearGradient4038" gradientUnits="userSpaceOnUse" id="linearGradient4067"/>
  <linearGradient x1="40" x2="72.33" xlink:href="#linearGradient4101" y1="64" y2="8" gradientUnits="userSpaceOnUse" id="linearGradient4107" gradientTransform="matrix(0.99144 0.13053 -0.13053 0.99144 8.678 -4.694)"/>
  <linearGradient x1="40" x2="66.01" xlink:href="#linearGradient4101" y1="64" y2="18.951" gradientUnits="userSpaceOnUse" id="linearGradient4111" gradientTransform="matrix(0.79335 0.60876 -0.60876 0.79335 47.17 -11.243)"/>
  <filter color-interpolation-filters="sRGB" id="filter4117">
   <feGaussianBlur stdDeviation="0.24926"/>
  </filter>
  <filter color-interpolation-filters="sRGB" id="filter4121">
   <feGaussianBlur stdDeviation="0.46576"/>
  </filter>
 </defs>
 <path d="M 12,4 C 6.5050093,4 2,8.5050093 2,14 c 0,2.053295 1.099406,3.533874 1.59375,4.25 0.2500961,0.362299 0.4028603,0.591319 0.46875,0.71875 0.06589,0.127431 0.03125,0.09423 0.03125,0.09375 l 0,58.875 c 0,-4.8e-4 0.03464,-0.03368 -0.03125,0.09375 C 3.9966103,78.158681 3.8438461,78.387701 3.59375,78.75 3.099406,79.466126 2,80.946705 2,83 l 0,2 c 0,5.494991 4.5050092,10 10,10 l 72,0 c 5.494991,0 10,-4.505009 10,-10 l 0,-2 c 0,-2.053295 -1.099407,-3.533875 -1.59375,-4.25 -0.250096,-0.362299 -0.40286,-0.591319 -0.46875,-0.71875 -0.06589,-0.127431 -0.03125,-0.09423 -0.03125,-0.09375 l 0,-58.875 c 0,4.82e-4 -0.03464,0.03368 0.03125,-0.09375 C 92.00339,18.841319 92.156154,18.612299 92.40625,18.25 92.900593,17.533875 94,16.053295 94,14 94,8.5050092 89.494991,4 84,4 L 12,4 z" display="inline" fill="url(#linearGradient3905)" fill-opacity="1" fill-rule="nonzero" stroke="none" opacity="0.08"/>
 <path d="m 12,4.96875 c -4.9674861,0 -9.03125,4.0637639 -9.03125,9.03125 0,1.716493 0.8965646,2.94915 1.40625,3.6875 0.5096856,0.738351 0.6875,1.036869 0.6875,1.375 l 0,58.875 c 0,0.338131 -0.1778144,0.636649 -0.6875,1.375 C 3.8653146,80.05085 2.96875,81.283507 2.96875,83 l 0,2 c 0,4.967486 4.0637638,9.03125 9.03125,9.03125 l 72,0 c 4.967486,0 9.03125,-4.063764 9.03125,-9.03125 l 0,-2 c 0,-1.716493 -0.896565,-2.94915 -1.40625,-3.6875 -0.509685,-0.738351 -0.6875,-1.03687 -0.6875,-1.375 l 0,-58.875 c 0,-0.33813 0.177815,-0.636649 0.6875,-1.375 C 92.134685,16.94915 93.03125,15.716493 93.03125,14 93.03125,9.0325138 88.967486,4.96875 84,4.96875 l -72,0 z" display="inline" fill="url(#linearGradient3905)" fill-opacity="1" fill-rule="nonzero" stroke="none" opacity="0.1"/>
 <path d="m 12,5.9375 c -4.4402022,0 -8.0625,3.6222978 -8.0625,8.0625 0,1.374946 0.7265625,2.366728 1.25,3.125 0.5234375,0.758272 0.84375,1.283033 0.84375,1.9375 l 0,58.875 c 0,0.654467 -0.3203125,1.179228 -0.84375,1.9375 -0.5234375,0.758272 -1.25,1.750054 -1.25,3.125 l 0,2 c 0,4.440202 3.6222978,8.0625 8.0625,8.0625 l 72,0 c 4.440202,0 8.0625,-3.622298 8.0625,-8.0625 l 0,-2 c 0,-1.374946 -0.726563,-2.366728 -1.25,-3.125 -0.523437,-0.758272 -0.84375,-1.283033 -0.84375,-1.9375 l 0,-58.875 c 0,-0.654467 0.320313,-1.179228 0.84375,-1.9375 0.523437,-0.758272 1.25,-1.750054 1.25,-3.125 0,-4.4402022 -3.622298,-8.0625 -8.0625,-8.0625 l -72,0 z" display="inline" fill="url(#linearGradient3905)" fill-opacity="1" fill-rule="nonzero" stroke="none" opacity="0.2"/>
 <path d="m 12,7 c -3.878,0 -7,3.122 -7,7 0,2.029412 2.09375,3.033087 2.09375,5.0625 l 0,58.875 C 7.09375,79.966913 5,80.970588 5,83 l 0,2 c 0,3.878 3.122,7 7,7 l 72,0 c 3.878,0 7,-3.122 7,-7 l 0,-2 c 0,-2.029412 -2.09375,-3.033087 -2.09375,-5.0625 l 0,-58.875 C 88.90625,17.033087 91,16.029412 91,14 91,10.122 87.878,7 84,7 L 12,7 z" display="inline" fill="url(#linearGradient3905)" fill-opacity="1" fill-rule="nonzero" stroke="none" opacity="0.3" inkscape:connector-curvature="0"/>
 <path d="m 12,-95.03125 c -5.5110903,0 -10.03125,4.52016 -10.03125,10.03125 l 0,71 c 0,5.5110902 4.5201598,10.03125 10.03125,10.03125 l 72,0 c 5.51109,0 10.03125,-4.5201597 10.03125,-10.03125 l 0,-71 c 0,-5.51109 -4.52016,-10.03125 -10.03125,-10.03125 l -72,0 z" display="inline" fill="url(#linearGradient3780)" fill-opacity="1" fill-rule="nonzero" stroke="none" opacity="0.08" transform="matrix(1 0 0 -1 -110 0)"/>
 <path d="m 12,-94.03125 c -4.971633,0 -9.03125,4.059617 -9.03125,9.03125 l 0,71 c 0,4.9716329 4.0596171,9.03125 9.03125,9.03125 l 72,0 c 4.971633,0 9.03125,-4.059617 9.03125,-9.03125 l 0,-71 c 0,-4.971633 -4.059617,-9.03125 -9.03125,-9.03125 l -72,0 z" display="inline" fill="url(#linearGradient3780)" fill-opacity="1" fill-rule="nonzero" stroke="none" opacity="0.1" transform="matrix(1 0 0 -1 -110 0)"/>
 <path d="m 12,-93 c -4.4091333,0 -8,3.590867 -8,8 l 0,71 c 0,4.4091333 3.5908667,8 8,8 l 72,0 c 4.409133,0 8,-3.5908667 8,-8 l 0,-71 c 0,-4.409133 -3.590867,-8 -8,-8 l -72,0 z" display="inline" fill="url(#linearGradient3780)" fill-opacity="1" fill-rule="nonzero" stroke="none" opacity="0.2" transform="matrix(1 0 0 -1 -110 0)"/>
 <path d="M 12,7 C 8.676,7 6,9.676 6,13 l 0,2 c 0,2 2,3 2,5 l 0,58 c 0,2 -2,3 -2,5 l 0,2 c 0,3.324 2.676,6 6,6 l 72,0 c 3.324,0 6,-2.676 6,-6 l 0,-2 c 0,-2 -2,-3 -2,-5 l 0,-58 c 0,-2 2,-3 2,-5 l 0,-2 C 90,9.676 87.324,7 84,7 L 12,7 z" fill="url(#linearGradient3882)" fill-opacity="1" fill-rule="nonzero" stroke="none" opacity="0.45" inkscape:connector-curvature="0"/>
 <path d="M 12,6 C 8.676,6 6,8.676 6,12 l 0,2 c 0,2 2,3 2,5 l 0,58 c 0,2 -2,3 -2,5 l 0,2 c 0,3.324 2.676,6 6,6 l 72,0 c 3.324,0 6,-2.676 6,-6 l 0,-2 c 0,-2 -2,-3 -2,-5 l 0,-58 c 0,-2 2,-3 2,-5 l 0,-2 C 90,8.676 87.324,6 84,6 L 12,6 z" fill="url(#linearGradient3617)" fill-opacity="1" fill-rule="nonzero" stroke="none" inkscape:connector-curvature="0"/>
 <path d="m 106,14 0,68 c 0,-2 2,-3 2,-5 l 0,-58 c 0,-2 -2,-3 -2,-5 z m 84,0 c 0,2 -2,3 -2,5 l 0,58 c 0,2 2,3 2,5 l 0,-68 z" fill="#ff00ff" stroke="none" inkscape:connector-curvature="0"/>
 <path d="M 12,6 C 8.676,6 6,8.676 6,12 l 0,2 c 0,2 2,3 2,5 l 0,58 c 0,2 -2,3 -2,5 l 0,2 c 0,2.9085 2.0422266,5.317352 4.78125,5.875 C 8.573881,89.339913 6.96875,87.388974 6.96875,85 l 0,-2 c 0,-0.681113 0.3125,-1.21875 0.8125,-1.96875 0.5,-0.75 1.1875,-1.712363 1.1875,-3.03125 l 0,-58 c 0,-1.318887 -0.6875,-2.28125 -1.1875,-3.03125 -0.5,-0.75 -0.8125,-1.287637 -0.8125,-1.96875 l 0,-2 C 6.96875,10.189442 9.1894418,7.96875 12,7.96875 l 72,0 c 2.810558,0 5.03125,2.220692 5.03125,5.03125 l 0,2 c 0,0.681113 -0.3125,1.21875 -0.8125,1.96875 -0.5,0.75 -1.1875,1.712363 -1.1875,3.03125 l 0,58 c 0,1.318887 0.6875,2.28125 1.1875,3.03125 0.5,0.75 0.8125,1.287637 0.8125,1.96875 l 0,2 c 0,2.388974 -1.605131,4.339913 -3.8125,4.875 C 87.957773,89.317352 90,86.9085 90,84 l 0,-2 c 0,-2 -2,-3 -2,-5 l 0,-58 c 0,-2 2,-3 2,-5 l 0,-2 C 90,8.676 87.324,6 84,6 L 12,6 z" fill="url(#linearGradient3836)" fill-opacity="1" fill-rule="nonzero" stroke="none" opacity="0.5" inkscape:connector-curvature="0"/>
 <path d="M 12,90 C 8.676,90 6,87.324 6,84 L 6,82 C 6,80 8,79 8,77 L 8,19 C 8,17 6,16 6,14 L 6,12 C 6,9.0915 8.0422266,6.682648 10.78125,6.125 8.573881,6.660087 6.96875,8.611026 6.96875,11 l 0,2 c 0,0.681113 0.3125,1.21875 0.8125,1.96875 0.5,0.75 1.1875,1.712363 1.1875,3.03125 l 0,58 c 0,1.318887 -0.6875,2.28125 -1.1875,3.03125 -0.5,0.75 -0.8125,1.287637 -0.8125,1.96875 l 0,2 c 0,2.810558 2.2206918,5.03125 5.03125,5.03125 l 72,0 c 2.810558,0 5.03125,-2.220692 5.03125,-5.03125 l 0,-2 c 0,-0.681113 -0.3125,-1.21875 -0.8125,-1.96875 -0.5,-0.75 -1.1875,-1.712363 -1.1875,-3.03125 l 0,-58 c 0,-1.318887 0.6875,-2.28125 1.1875,-3.03125 0.5,-0.75 0.8125,-1.287637 0.8125,-1.96875 l 0,-2 c 0,-2.388974 -1.605131,-4.339913 -3.8125,-4.875 C 87.957773,6.682648 90,9.0915 90,12 l 0,2 c 0,2 -2,3 -2,5 l 0,58 c 0,2 2,3 2,5 l 0,2 c 0,3.324 -2.676,6 -6,6 l -72,0 z" fill="url(#radialGradient3842)" fill-opacity="1" fill-rule="nonzero" stroke="none" opacity="0.2" inkscape:connector-curvature="0"/>
 <rect x="12" stroke-width="1.5" display="inline" y="6" fill="url(#linearGradient3945)" color="#000000" fill-opacity="1" fill-rule="nonzero" stroke="none" height="84" visibility="visible" width="72"/>
 <path d="m 12,6 0,2 72,0 0,-2 z" stroke-width="1.5" display="inline" fill="#ffffff" color="#000000" fill-opacity="1" fill-rule="nonzero" stroke="none" opacity="0.2" visibility="visible" inkscape:connector-curvature="0"/>
 <path d="m 12,88 0,2 72,0 0,-2 z" stroke-width="1.5" display="inline" fill="url(#linearGradient3964)" color="#000000" fill-opacity="1" fill-rule="nonzero" stroke="none" opacity="0.1" visibility="visible" inkscape:connector-curvature="0"/>
 <rect x="12" stroke-width="1.5" display="inline" y="6" fill="url(#linearGradient3993)" color="#000000" fill-opacity="1" stroke="none" fill-rule="nonzero" height="84" visibility="visible" opacity="0.2" width="1"/>
 <rect x="83" stroke-width="1.5" display="inline" y="6" fill="url(#linearGradient3993)" color="#000000" fill-opacity="1" stroke="none" fill-rule="nonzero" height="84" visibility="visible" opacity="0.2" width="1"/>
 <path d="m 20,24 0,48 56,0 0,-48 -56,0 z m 1,1 54,0 0,46 -54,0 0,-46 z" stroke-width="1.5" display="inline" fill="#ffffff" color="#000000" fill-opacity="1" fill-rule="nonzero" stroke="none" opacity="0.3" visibility="visible" inkscape:connector-curvature="0"/>
 <rect x="21" stroke-width="1.5" display="inline" y="25" fill="#54547e" color="#000000" fill-opacity="1" stroke="none" fill-rule="nonzero" height="46" visibility="visible" opacity="0.1" width="54"/>
 <path d="m 40,76 0,4 16,0 0,-4 -16,0 z m 5.40625,0.90625 0.21875,0 L 46.78125,79 46.21875,79 46,78.59375 l -0.96875,0 -0.1875,0.40625 -0.5625,0 1.125,-2.09375 z m 2.84375,0 c 0.326641,2e-6 0.585522,0.02755 0.78125,0.125 l -0.21875,0.3125 c -0.112771,-0.08231 -0.281085,-0.124998 -0.53125,-0.125 -0.237206,2e-6 -0.442096,0.07305 -0.59375,0.21875 -0.151656,0.144754 -0.218751,0.340169 -0.21875,0.5625 -10e-7,0.222333 0.07876,0.40069 0.21875,0.53125 0.141285,0.130561 0.327886,0.1875 0.5625,0.1875 0.268312,0 0.473343,-0.07873 0.625,-0.21875 l 0.21875,0.3125 c -0.206098,0.15989 -0.508318,0.21875 -0.90625,0.21875 -0.397935,0 -0.685897,-0.09014 -0.90625,-0.28125 -0.220354,-0.191111 -0.34375,-0.451063 -0.34375,-0.78125 0,-0.307479 0.131314,-0.54375 0.375,-0.75 0.244981,-0.207193 0.556416,-0.312498 0.9375,-0.3125 z m 2.34375,0 c 0.409598,2e-6 0.721032,0.09582 0.9375,0.28125 0.216463,0.185436 0.343747,0.446334 0.34375,0.78125 -3e-6,0.334918 -0.116917,0.584463 -0.34375,0.78125 -0.225541,0.196788 -0.552671,0.28125 -0.96875,0.28125 -0.38238,0 -0.670201,-0.08635 -0.875,-0.28125 -0.203504,-0.194895 -0.3125,-0.442548 -0.3125,-0.78125 0,-0.296126 0.122099,-0.545642 0.34375,-0.75 0.222946,-0.2053 0.502989,-0.312498 0.875,-0.3125 z m -9.625,0.03125 0.53125,0 0.53125,1.25 0.5625,-1.25 0.21875,0 0.59375,1.25 0.53125,-1.25 0.53125,0 -0.9375,2.09375 -0.1875,0 -0.625,-1.3125 -0.59375,1.3125 -0.21875,0 -0.9375,-2.09375 z m 11.65625,0 0.28125,0 0.59375,1.40625 0.625,-1.40625 0.25,0 0.59375,2.0625 -0.5,0 -0.28125,-1.09375 -0.59375,1.125 -0.15625,0 -0.59375,-1.125 L 52.53125,79 52.0625,79 52.625,76.9375 z m -2.03125,0.28125 c -0.22554,2e-6 -0.379454,0.05505 -0.5,0.1875 -0.120547,0.131509 -0.187501,0.339223 -0.1875,0.5625 -10e-7,0.243147 0.04348,0.429101 0.15625,0.5625 0.112769,0.1334 0.28483,0.1875 0.5,0.1875 0.252758,0 0.430286,-0.05694 0.5625,-0.1875 0.133507,-0.13056 0.218748,-0.313676 0.21875,-0.5625 -2e-6,-0.487237 -0.257446,-0.749998 -0.75,-0.75 z m -5.0625,0.3125 -0.34375,0.78125 0.6875,0 -0.34375,-0.78125 z" stroke-width="1.5" display="inline" fill="#ffffff" color="#000000" fill-opacity="1" fill-rule="nonzero" stroke="none" opacity="0.4" visibility="visible" inkscape:connector-curvature="0"/>
 <rect stroke="#ffffff" stroke-dasharray="none" clip-path="url(#clipPath3613)" stroke-dashoffset="0" stroke-linecap="round" height="66" stroke-linejoin="miter" stroke-miterlimit="4" stroke-opacity="1" stroke-width="0.5" display="inline" width="66" fill="url(#linearGradient3613)" fill-opacity="1" opacity="0.1" x="15" fill-rule="nonzero" filter="url(#filter3794)" y="15" rx="12"/>
 <g display="inline">
  <path d="M 81.991846,7.763541 C 81.824486,7.785575 81.65964,7.8752174 81.548282,8.0203412 L 80.219153,9.7365373 C 79.77794,9.6892677 79.317088,9.8642411 79.01812,10.240331 l -23.008563,28.963315 -0.0269,-0.03506 c -0.290247,-0.222716 -0.708413,-0.160672 -0.931128,0.129571 0,0 -4.687031,7.205946 -7.099105,10.349422 -1.34004,1.746375 -4.164258,4.337312 -4.164258,4.337312 -0.222714,0.290248 -0.156592,0.677432 0.133651,0.900145 0,0 -4.591128,8.153867 -3.543303,8.957892 1.047825,0.804025 7.72006,-5.72884 7.72006,-5.72884 0.290247,0.222714 0.708414,0.160671 0.931128,-0.129572 0,0 1.759438,-3.36151 3.099479,-5.107886 2.412074,-3.143475 8.159805,-9.547865 8.159805,-9.547865 0.222714,-0.290247 0.160671,-0.708414 -0.129572,-0.931128 l -0.03098,-0.0041 22.04081,-29.752635 c 0.289236,-0.390632 0.303066,-0.8573 0.136254,-1.274368 L 83.6387,9.6193755 C 83.861416,9.3291279 83.795293,8.9419438 83.50505,8.7192297 L 82.479411,7.8907694 C 82.334287,7.7794123 82.159207,7.7415074 81.991846,7.763541 z" stroke-width="1.5" fill="url(#linearGradient4107)" color="#000000" fill-opacity="1" fill-rule="nonzero" stroke="none" filter="url(#filter4117)" opacity="0.15" visibility="visible" inkscape:connector-curvature="0"/>
  <path d="m 104.43086,36.201907 c -0.15596,-0.0646 -0.34354,-0.06939 -0.51254,6.14e-4 l -2.00916,0.821704 c -0.35847,-0.261543 -0.84506,-0.340437 -1.29202,-0.164218 l -34.407658,13.578685 -0.0058,-0.04381 c -0.140003,-0.338001 -0.533168,-0.493352 -0.871166,-0.353352 0,0 -7.662061,3.897017 -11.322716,5.41331 -2.033697,0.842385 -5.77501,1.674093 -5.77501,1.674093 -0.338,0.140006 -0.474328,0.508378 -0.334327,0.846374 0,0 -8.052967,4.765892 -7.547536,5.986111 0.50543,1.220218 9.550188,-1.101291 9.550188,-1.101291 0.140004,0.337999 0.533169,0.493352 0.871166,0.353351 0,0 3.204473,-2.031434 5.238171,-2.873819 3.660655,-1.516293 11.840531,-4.188791 11.840531,-4.188791 0.337999,-0.140005 0.493352,-0.533169 0.353351,-0.871167 l -0.02478,-0.01904 33.964226,-14.746132 c 0.4458,-0.19368 0.69111,-0.590911 0.75518,-1.035508 l 2.02817,-0.846483 c 0.338,-0.140004 0.47433,-0.508377 0.33433,-0.846374 l -0.474,-1.230287 c -0.07,-0.169 -0.20268,-0.289367 -0.35863,-0.353966 z" stroke-width="1.5" fill="url(#linearGradient4111)" color="#000000" fill-opacity="1" fill-rule="nonzero" stroke="none" filter="url(#filter4121)" opacity="0.2" visibility="visible" inkscape:connector-curvature="0"/>
  <g transform="matrix(1.14381 0.66038 -0.66038 1.14381 45.737 -35.28)">
   <rect x="33" stroke-width="1.5" rx="0.5" y="14" fill="url(#linearGradient4063)" color="#000000" fill-opacity="1" stroke="none" fill-rule="nonzero" height="3" visibility="visible" width="2"/>
   <path stroke-opacity="1" d="m 33.5,16 c -0.554,0 -0.9905,0.446082 -1,1 L 32,46 c -0.0096,0.553918 0.446,1 1,1 l 2,0 c 0.554,0 1.0095,-0.446082 1,-1 L 35.5,17 c -0.0095,-0.553918 -0.446,-1 -1,-1 l -1,0 z M 32,60 c 0,0 1,7 2,7 1,0 2,-7 2,-7 l -4,0 z" stroke-width="0.227" fill="url(#linearGradient4065)" color="#000000" fill-opacity="1" fill-rule="nonzero" stroke="#8f8f8f" stroke-dasharray="none" visibility="visible" stroke-miterlimit="4" inkscape:connector-curvature="0"/>
   <path stroke-opacity="1" d="m 32,45 4,0 c 0.277,0 0.5,0.223 0.5,0.5 0,0 -0.5,6.5 -0.5,9.5 0,1.666667 0.5,4.5 0.5,4.5 0,0.277 -0.223,0.5 -0.5,0.5 l -4,0 c -0.277,0 -0.5,-0.223 -0.5,-0.5 0,0 0.5,-2.833333 0.5,-4.5 0,-3 -0.5,-9.5 -0.5,-9.5 0,-0.277 0.223,-0.5 0.5,-0.5 z" stroke-width="0.227" fill="url(#linearGradient4067)" color="#000000" fill-opacity="1" fill-rule="nonzero" stroke="#424255" stroke-dasharray="none" visibility="visible" stroke-miterlimit="4" inkscape:connector-curvature="0"/>
  </g>
 </g>
</svg>
