<?xml version="1.0" encoding="UTF-8"?>
<svg xmlns="http://www.w3.org/2000/svg" xmlns:xlink="http://www.w3.org/1999/xlink" width="76pt" height="76pt" viewBox="0 0 76 76" version="1.1">
<defs>
<linearGradient id="linear0" gradientUnits="userSpaceOnUse" x1="76.558" y1="13.164" x2="76.558" y2="50.369" gradientTransform="matrix(0.96826,0,0,0.97948,3.2423,-129.19)">
<stop offset="0" style="stop-color:rgb(25.882353%,36.862745%,48.235294%);stop-opacity:1;"/>
<stop offset="1" style="stop-color:rgb(47.843137%,56.862745%,65.490196%);stop-opacity:1;"/>
</linearGradient>
<linearGradient id="linear1" gradientUnits="userSpaceOnUse" x1="60.395" y1="-123.72" x2="60.217" y2="-8.7399" gradientTransform="matrix(0.96826,0,0,0.97948,2.179,0.16587)">
<stop offset="0" style="stop-color:rgb(25.882353%,36.862745%,48.235294%);stop-opacity:1;"/>
<stop offset="1" style="stop-color:rgb(47.843137%,56.862745%,65.490196%);stop-opacity:1;"/>
</linearGradient>
<linearGradient id="linear2" gradientUnits="userSpaceOnUse" x1="67.952" y1="-42.638" x2="66.492" y2="-9.1034" gradientTransform="matrix(0.96826,0,0,0.97948,2.179,0.16587)">
<stop offset="0" style="stop-color:rgb(21.568627%,25.490196%,29.411765%);stop-opacity:1;"/>
<stop offset="1" style="stop-color:rgb(21.568627%,25.490196%,29.411765%);stop-opacity:0;"/>
</linearGradient>
<linearGradient id="linear3" gradientUnits="userSpaceOnUse" x1="57.173" y1="-118.55" x2="58.98" y2="-11.847" gradientTransform="matrix(0.96826,0,0,0.97948,2.179,0.16587)">
<stop offset="0" style="stop-color:rgb(0%,0%,0%);stop-opacity:1;"/>
<stop offset="1" style="stop-color:rgb(0%,0%,0%);stop-opacity:0;"/>
</linearGradient>
<radialGradient id="radial0" gradientUnits="userSpaceOnUse" cx="42.148" cy="45.647" fx="42.148" fy="45.647" r="58.984" gradientTransform="matrix(0.562222,0,0,0.688959,2.134769,-18.1579)">
<stop offset="0" style="stop-color:rgb(91.372549%,91.372549%,91.372549%);stop-opacity:1;"/>
<stop offset="1" style="stop-color:rgb(72.156863%,72.156863%,72.156863%);stop-opacity:1;"/>
</radialGradient>
<linearGradient id="linear4" gradientUnits="userSpaceOnUse" x1="0.381347" y1="0.389422" x2="51.829521" y2="44.685467" gradientTransform="matrix(0.59375,0,0,0.59375,0,0)">
<stop offset="0" style="stop-color:rgb(100%,100%,100%);stop-opacity:0.388235;"/>
<stop offset="1" style="stop-color:rgb(100%,100%,100%);stop-opacity:0;"/>
</linearGradient>
<linearGradient id="linear5" gradientUnits="userSpaceOnUse" x1="1785.391" y1="163.2874" x2="1785.8656" y2="104.80361" gradientTransform="matrix(0.13903,0,0,0.148438,-210.611437,47.896053)">
<stop offset="0" style="stop-color:rgb(21.960784%,21.960784%,21.960784%);stop-opacity:0.6;"/>
<stop offset="1" style="stop-color:rgb(29.019608%,29.019608%,29.019608%);stop-opacity:0;"/>
</linearGradient>
<linearGradient id="linear6" gradientUnits="userSpaceOnUse" x1="109.88679" y1="73.573746" x2="181.88678" y2="72.944244" gradientTransform="matrix(0.834077,0,0,0.834077,-83.648634,2.129548)">
<stop offset="0" style="stop-color:rgb(100%,100%,100%);stop-opacity:0;"/>
<stop offset="0.3" style="stop-color:rgb(100%,100%,100%);stop-opacity:0.101961;"/>
<stop offset="0.7" style="stop-color:rgb(100%,100%,100%);stop-opacity:0.101961;"/>
<stop offset="1" style="stop-color:rgb(100%,100%,100%);stop-opacity:0;"/>
</linearGradient>
<linearGradient id="linear7" gradientUnits="userSpaceOnUse" x1="66.602165" y1="48" x2="78.995483" y2="48" gradientTransform="matrix(-0.589782,0.589782,0.196594,0.196594,60.94594,-7.678779)">
<stop offset="0" style="stop-color:rgb(100%,100%,100%);stop-opacity:0.121569;"/>
<stop offset="1" style="stop-color:rgb(100%,100%,100%);stop-opacity:0;"/>
</linearGradient>
</defs>
<g id="surface1">
<path style="fill-rule:nonzero;fill:url(#linear0);stroke-width:0.97385;stroke-linecap:butt;stroke-linejoin:miter;stroke:url(#linear1);stroke-miterlimit:4;" d="M 36.335526 -122.25 L 91.960526 -122.25 C 108.144737 -122.25 121.256579 -109.131579 121.256579 -92.953947 L 121.256579 -36.006579 C 121.256579 -19.828947 108.144737 -6.710526 91.960526 -6.710526 L 36.335526 -6.710526 C 20.157895 -6.710526 7.039474 -19.828947 7.039474 -36.006579 L 7.039474 -92.953947 C 7.039474 -109.131579 20.157895 -122.25 36.335526 -122.25 Z M 36.335526 -122.25 " transform="matrix(0.59375,0,0,-0.59375,0,0)"/>
<path style="fill-rule:nonzero;fill:url(#linear2);stroke-width:0.97385;stroke-linecap:butt;stroke-linejoin:miter;stroke:url(#linear3);stroke-miterlimit:4;" d="M 36.052632 -121.460526 L 92.289474 -121.460526 C 108.296053 -121.460526 121.282895 -108.480263 121.282895 -92.467105 L 121.282895 -36.105263 C 121.282895 -20.092105 108.296053 -7.111842 92.289474 -7.111842 L 36.052632 -7.111842 C 20.039474 -7.111842 7.059211 -20.092105 7.059211 -36.105263 L 7.059211 -92.467105 C 7.059211 -108.480263 20.039474 -121.460526 36.052632 -121.460526 Z M 36.052632 -121.460526 " transform="matrix(0.59375,0,0,-0.59375,0,0)"/>
<path style=" stroke:none;fill-rule:nonzero;fill:url(#radial0);" d="M 18.152344 4.164062 C 10.355469 4.730469 4.761719 13.261719 4.390625 18.25 C 4.363281 18.839844 4.339844 19.4375 4.339844 20.039062 L 4.339844 55.375 C 4.339844 64.585938 13.546875 72.226562 17.589844 72.226562 L 57.394531 72.226562 C 66.054688 72.226562 71.832031 62.277344 71.832031 56.582031 L 71.832031 17.859375 C 71.539062 13.589844 65.277344 4.917969 56.441406 4.179688 C 28.03125 4.703125 44.269531 4.164062 18.152344 4.164062 Z M 18.152344 4.164062 "/>
<path style=" stroke:none;fill-rule:nonzero;fill:rgb(0%,0%,0%);fill-opacity:0.431373;" d="M 22.71875 9.332031 L 22.71875 16.972656 L 53.28125 16.972656 L 53.28125 9.332031 Z M 33.046875 11.0625 L 33.464844 11.0625 L 35.671875 15.0625 L 34.597656 15.0625 L 34.179688 14.285156 L 32.328125 14.285156 L 31.972656 15.0625 L 30.898438 15.0625 Z M 38.476562 11.0625 C 39.101562 11.0625 39.597656 11.113281 39.96875 11.300781 L 39.550781 11.898438 C 39.335938 11.742188 39.015625 11.660156 38.539062 11.660156 C 38.085938 11.660156 37.691406 11.796875 37.402344 12.078125 C 37.113281 12.351562 36.984375 12.726562 36.984375 13.152344 C 36.984375 13.574219 37.136719 13.917969 37.402344 14.167969 C 37.671875 14.414062 38.03125 14.523438 38.476562 14.523438 C 38.988281 14.523438 39.382812 14.375 39.671875 14.105469 L 40.089844 14.703125 C 39.695312 15.007812 39.117188 15.121094 38.359375 15.121094 C 37.597656 15.121094 37.046875 14.949219 36.628906 14.582031 C 36.207031 14.21875 35.96875 13.722656 35.96875 13.089844 C 35.96875 12.503906 36.222656 12.054688 36.6875 11.660156 C 37.15625 11.261719 37.75 11.0625 38.476562 11.0625 Z M 42.953125 11.0625 C 43.738281 11.0625 44.332031 11.246094 44.746094 11.597656 C 45.160156 11.953125 45.402344 12.453125 45.402344 13.089844 C 45.402344 13.730469 45.179688 14.207031 44.746094 14.582031 C 44.3125 14.960938 43.691406 15.121094 42.894531 15.121094 C 42.164062 15.121094 41.613281 14.957031 41.222656 14.582031 C 40.835938 14.210938 40.625 13.738281 40.625 13.089844 C 40.625 12.527344 40.859375 12.050781 41.28125 11.660156 C 41.707031 11.265625 42.242188 11.0625 42.953125 11.0625 Z M 24.570312 11.121094 L 25.585938 11.121094 L 26.597656 13.507812 L 27.671875 11.121094 L 28.089844 11.121094 L 29.226562 13.507812 L 30.242188 11.121094 L 31.253906 11.121094 L 29.464844 15.121094 L 29.105469 15.121094 L 27.914062 12.613281 L 26.777344 15.121094 L 26.359375 15.121094 Z M 46.835938 11.121094 L 47.371094 11.121094 L 48.503906 13.808594 L 49.699219 11.121094 L 50.175781 11.121094 L 51.3125 15.0625 L 50.355469 15.0625 L 49.820312 12.972656 L 48.683594 15.121094 L 48.386719 15.121094 L 47.253906 12.972656 L 46.65625 15.0625 L 45.761719 15.0625 Z M 42.953125 11.660156 C 42.523438 11.660156 42.230469 11.765625 42 12.015625 C 41.769531 12.269531 41.640625 12.664062 41.640625 13.089844 C 41.640625 13.554688 41.722656 13.910156 41.941406 14.167969 C 42.15625 14.421875 42.484375 14.523438 42.894531 14.523438 C 43.378906 14.523438 43.714844 14.414062 43.96875 14.167969 C 44.222656 13.917969 44.386719 13.566406 44.386719 13.089844 C 44.386719 12.160156 43.894531 11.660156 42.953125 11.660156 Z M 33.285156 12.257812 L 32.628906 13.75 L 33.941406 13.75 Z M 33.285156 12.257812 "/>
<path style=" stroke:none;fill-rule:nonzero;fill:url(#linear4);" d="M 20.839844 4.1875 C 8.980469 3.949219 4.566406 14.65625 4.257812 19.796875 C 4.230469 20.222656 4.210938 20.65625 4.210938 21.089844 L 4.210938 27.476562 C 19.589844 12.269531 43.847656 6.410156 57.871094 4.214844 C 57.738281 4.199219 57.597656 4.195312 57.460938 4.195312 C 32.777344 4.425781 43.417969 4.183594 20.839844 4.183594 Z M 20.839844 4.1875 "/>
<path style="fill:none;stroke-width:4.8445;stroke-linecap:butt;stroke-linejoin:miter;stroke:rgb(0%,0%,0%);stroke-opacity:0.160784;stroke-miterlimit:4;" d="M 35.861842 -121.157895 L 92.092105 -121.157895 C 108.105263 -121.157895 121.085526 -108.177632 121.085526 -92.164474 L 121.085526 -35.802632 C 121.085526 -19.789474 108.105263 -6.809211 92.092105 -6.809211 L 35.861842 -6.809211 C 19.848684 -6.809211 6.868421 -19.789474 6.868421 -35.802632 L 6.868421 -92.164474 C 6.868421 -108.177632 19.848684 -121.157895 35.861842 -121.157895 Z M 35.861842 -121.157895 " transform="matrix(0.59375,0,0,-0.59375,0,0)"/>
<path style=" stroke:none;fill-rule:nonzero;fill:url(#linear5);" d="M 18.855469 71.882812 C 11.285156 71.882812 5.1875 65.375 5.1875 57.289062 L 5.882812 56.109375 C 5.882812 64.023438 11.851562 70.398438 19.265625 70.398438 L 56.734375 70.398438 C 64.148438 70.398438 70.117188 64.023438 70.117188 56.109375 L 70.8125 57.289062 C 70.8125 65.375 64.710938 71.882812 57.136719 71.882812 Z M 18.855469 71.882812 "/>
<path style="fill:none;stroke-width:7.7512;stroke-linecap:butt;stroke-linejoin:miter;stroke:rgb(0%,0%,0%);stroke-opacity:0.160784;stroke-miterlimit:4;" d="M 35.861842 -121.157895 L 92.098684 -121.157895 C 108.105263 -121.157895 121.085526 -108.177632 121.085526 -92.164474 L 121.085526 -35.802632 C 121.085526 -19.789474 108.105263 -6.809211 92.098684 -6.809211 L 35.861842 -6.809211 C 19.848684 -6.809211 6.868421 -19.789474 6.868421 -35.802632 L 6.868421 -92.164474 C 6.868421 -108.177632 19.848684 -121.157895 35.861842 -121.157895 Z M 35.861842 -121.157895 " transform="matrix(0.59375,0,0,-0.59375,0,0)"/>
<path style="fill:none;stroke-width:1.262219;stroke-linecap:butt;stroke-linejoin:miter;stroke:rgb(0%,0%,0%);stroke-opacity:1;stroke-miterlimit:4;" d="M 35.756579 -122 L 92.513158 -122 C 108.355263 -122 121.197368 -109.157895 121.197368 -93.315789 L 121.197368 -35.493421 C 121.197368 -19.651316 108.355263 -6.809211 92.513158 -6.809211 L 35.756579 -6.809211 C 19.914474 -6.809211 7.072368 -19.651316 7.072368 -35.493421 L 7.072368 -93.315789 C 7.072368 -109.157895 19.914474 -122 35.756579 -122 Z M 35.756579 -122 " transform="matrix(0.59375,0,0,-0.59375,0,0)"/>
<path style=" stroke:none;fill-rule:nonzero;fill:rgb(0%,0%,0%);fill-opacity:0.2;" d="M 20.59375 20.039062 C 13.707031 20.039062 8.164062 25.582031 8.164062 32.46875 L 8.164062 33.953125 C 8.164062 27.066406 13.707031 21.523438 20.59375 21.523438 L 55.40625 21.523438 C 62.292969 21.523438 67.835938 27.066406 67.835938 33.953125 L 67.835938 32.46875 C 67.835938 25.582031 62.292969 20.039062 55.40625 20.039062 Z M 20.59375 20.039062 "/>
<path style=" stroke:none;fill-rule:nonzero;fill:rgb(0%,0%,0%);fill-opacity:0.462745;" d="M 20.597656 20.039062 C 13.710938 20.039062 8.164062 25.585938 8.164062 32.472656 C 8.164062 40.117188 8.164062 47.757812 8.164062 55.402344 C 8.164062 62.289062 13.710938 67.835938 20.597656 67.835938 L 55.402344 67.835938 C 62.289062 67.835938 67.835938 62.289062 67.835938 55.402344 C 67.835938 47.757812 67.835938 40.117188 67.835938 32.472656 C 67.835938 25.585938 62.289062 20.039062 55.402344 20.039062 Z M 20.597656 20.039062 "/>
<path style=" stroke:none;fill-rule:nonzero;fill:rgb(100%,100%,100%);fill-opacity:0.0509804;" d="M 14.761719 25.207031 L 14.761719 27.367188 L 12.59375 27.367188 L 12.59375 28.203125 L 14.761719 28.203125 L 14.761719 37.039062 L 15.59375 37.039062 L 15.59375 28.203125 L 24.425781 28.203125 L 24.425781 27.367188 L 15.59375 27.367188 L 15.59375 25.207031 Z M 60.40625 25.207031 L 60.40625 27.367188 L 51.574219 27.367188 L 51.574219 28.203125 L 60.40625 28.203125 L 60.40625 37.039062 L 61.238281 37.039062 L 61.238281 28.203125 L 63.40625 28.203125 L 63.40625 27.367188 L 61.238281 27.367188 L 61.238281 25.207031 Z M 14.761719 50.835938 L 14.761719 59.671875 L 12.59375 59.671875 L 12.59375 60.507812 L 14.761719 60.507812 L 14.761719 62.667969 L 15.59375 62.667969 L 15.59375 60.507812 L 24.425781 60.507812 L 24.425781 59.671875 L 15.59375 59.671875 L 15.59375 50.835938 Z M 60.40625 50.835938 L 60.40625 59.671875 L 51.574219 59.671875 L 51.574219 60.507812 L 60.40625 60.507812 L 60.40625 62.667969 L 61.238281 62.667969 L 61.238281 60.507812 L 63.40625 60.507812 L 63.40625 59.671875 L 61.238281 59.671875 L 61.238281 50.835938 Z M 60.40625 50.835938 "/>
<path style=" stroke:none;fill-rule:nonzero;fill:url(#linear6);" d="M 20.59375 67.835938 C 13.707031 67.835938 8.164062 62.292969 8.164062 55.402344 L 8.164062 53.917969 C 8.164062 60.808594 13.707031 66.351562 20.59375 66.351562 L 55.40625 66.351562 C 62.292969 66.351562 67.835938 60.808594 67.835938 53.917969 L 67.835938 55.402344 C 67.835938 62.292969 62.292969 67.835938 55.40625 67.835938 Z M 20.59375 67.835938 "/>
<path style=" stroke:none;fill-rule:nonzero;fill:rgb(0%,0%,0%);fill-opacity:0.235294;" d="M 57.757812 12.40625 C 57.503906 12.414062 57.289062 12.496094 57.132812 12.652344 C 57.125 12.660156 57.121094 12.664062 57.113281 12.671875 L 28.210938 41.570312 L 26.917969 46.40625 L 26.296875 47.023438 C 26.132812 47.1875 26.132812 47.453125 26.296875 47.613281 L 50.917969 72.226562 L 57.445312 72.226562 C 63.597656 72.226562 72.042969 64.507812 72.042969 57.628906 L 72.042969 25.5 L 60.226562 13.683594 C 59.441406 12.898438 58.542969 12.433594 57.871094 12.40625 C 57.832031 12.40625 57.796875 12.40625 57.757812 12.40625 Z M 57.757812 12.40625 "/>
<path style=" stroke:none;fill-rule:nonzero;fill:rgb(0%,0%,0%);fill-opacity:1;" d="M 57.128906 12.648438 C 57.699219 12.082031 59.085938 12.542969 60.226562 13.683594 C 61.367188 14.824219 61.828125 16.207031 61.257812 16.777344 C 61.253906 16.785156 61.246094 16.792969 61.242188 16.796875 L 32.339844 45.695312 L 26.703125 47.207031 L 28.214844 41.566406 L 57.113281 12.667969 C 57.117188 12.664062 57.125 12.65625 57.128906 12.648438 Z M 57.128906 12.648438 "/>
<path style=" stroke:none;fill-rule:nonzero;fill:rgb(87.058824%,87.058824%,87.058824%);fill-opacity:0.168627;" d="M 58.015625 13.535156 L 59.785156 15.304688 L 30.867188 44.222656 L 29.097656 42.453125 Z M 58.015625 13.535156 "/>
<path style=" stroke:none;fill-rule:nonzero;fill:url(#linear7);" d="M 29.097656 42.453125 L 26.703125 47.207031 L 30.867188 44.222656 L 30.273438 43.632812 L 29.6875 43.039062 Z M 29.097656 42.453125 "/>
<path style=" stroke:none;fill-rule:nonzero;fill:rgb(87.058824%,87.058824%,87.058824%);fill-opacity:1;" d="M 26.925781 46.398438 C 26.921875 46.402344 27.515625 46.988281 27.515625 46.988281 L 26.886719 47.613281 C 26.722656 47.773438 26.460938 47.777344 26.296875 47.613281 C 26.132812 47.449219 26.132812 47.183594 26.296875 47.023438 Z M 26.925781 46.398438 "/>
<path style=" stroke:none;fill-rule:nonzero;fill:rgb(0%,0%,0%);fill-opacity:1;" d="M 36.734375 35.40625 C 37.058594 35.082031 37.585938 35.082031 37.914062 35.40625 C 38.238281 35.734375 38.238281 36.261719 37.914062 36.585938 L 32.289062 42.207031 C 31.964844 42.535156 31.4375 42.535156 31.113281 42.207031 C 30.785156 41.882812 30.785156 41.355469 31.113281 41.027344 Z M 36.734375 35.40625 "/>
<path style=" stroke:none;fill-rule:nonzero;fill:rgb(58.431373%,58.431373%,58.431373%);fill-opacity:1;" d="M 36.609375 36.121094 C 36.773438 35.957031 37.039062 35.957031 37.199219 36.121094 C 37.363281 36.28125 37.363281 36.546875 37.199219 36.710938 C 37.195312 36.714844 37.1875 36.722656 37.183594 36.726562 L 35.449219 38.460938 C 35.441406 38.46875 35.4375 38.472656 35.429688 38.476562 C 35.269531 38.640625 35.003906 38.640625 34.839844 38.476562 C 34.679688 38.316406 34.679688 38.050781 34.839844 37.890625 C 34.847656 37.882812 34.851562 37.875 34.859375 37.871094 L 36.59375 36.136719 C 36.597656 36.132812 36.605469 36.125 36.609375 36.121094 Z M 36.609375 36.121094 "/>
<path style=" stroke:none;fill-rule:nonzero;fill:rgb(95.686275%,95.686275%,95.686275%);fill-opacity:1;" d="M 36.488281 36.414062 C 36.488281 36.644531 36.675781 36.832031 36.90625 36.832031 C 37.136719 36.832031 37.324219 36.644531 37.324219 36.414062 C 37.324219 36.183594 37.136719 35.996094 36.90625 35.996094 C 36.675781 35.996094 36.488281 36.183594 36.488281 36.414062 Z M 36.488281 36.414062 "/>
</g>
</svg>
