<svg height="96" width="96" xmlns="http://www.w3.org/2000/svg" xmlns:xlink="http://www.w3.org/1999/xlink" xmlns:sodipodi="http://sodipodi.sourceforge.net/DTD/sodipodi-0.dtd" xmlns:inkscape="http://www.inkscape.org/namespaces/inkscape">
 <defs>
  <linearGradient id="linearGradient3737">
   <stop stop-color="#ffffff" stop-opacity="1"/>
   <stop stop-color="#ffffff" stop-opacity="0" offset="1"/>
  </linearGradient>
  <filter x="-0.192" y="-0.192" height="1.384" color-interpolation-filters="sRGB" id="filter3794" width="1.384">
   <feGaussianBlur stdDeviation="5.28"/>
  </filter>
  <linearGradient x2="0" xlink:href="#linearGradient3737" y1="20.221" y2="138.66" gradientUnits="userSpaceOnUse" id="linearGradient3613"/>
  <radialGradient cy="90.17" r="42" xlink:href="#linearGradient3737" gradientUnits="userSpaceOnUse" id="radialGradient3619" cx="48" gradientTransform="matrix(1.15731 0 0 0.99591 -7.551 0.197)"/>
  <clipPath id="clipPath3613">
   <rect x="6" rx="6" y="6" height="84" width="84"/>
  </clipPath>
  <linearGradient x2="0" y1="90" y2="5.988" gradientUnits="userSpaceOnUse" id="linearGradient3617">
   <stop stop-color="#1e1e1e" stop-opacity="1"/>
   <stop stop-color="#434343" stop-opacity="1" offset="1"/>
  </linearGradient>
  <linearGradient x2="0" y1="92.54" y2="7.02" gradientUnits="userSpaceOnUse" id="ButtonShadow-0" gradientTransform="matrix(1.0059 0 0 0.99417 100 0)">
   <stop stop-color="#000000" stop-opacity="1"/>
   <stop stop-color="#000000" stop-opacity="0.588" offset="1"/>
  </linearGradient>
  <linearGradient x2="0" y1="40" y2="88" gradientUnits="userSpaceOnUse" id="linearGradient3688" gradientTransform="matrix(0.93601 0 0 0.95793 3.18 3.786)">
   <stop stop-color="#ffffff" stop-opacity="1"/>
   <stop stop-color="#dddddd" stop-opacity="1" offset="1"/>
  </linearGradient>
  <linearGradient x2="0" y1="90" y2="84" gradientUnits="userSpaceOnUse" id="linearGradient3710" gradientTransform="matrix(1 0 0 0.66667 0 30)">
   <stop stop-color="#ff3300" stop-opacity="1"/>
   <stop stop-color="#ff481a" stop-opacity="1" offset="1"/>
  </linearGradient>
  <linearGradient x2="0" xlink:href="#linearGradient3737" y1="37" y2="5.936" gradientUnits="userSpaceOnUse" id="linearGradient3733"/>
  <linearGradient x1="48" x2="47.801" y1="36" y2="6.06" gradientUnits="userSpaceOnUse" id="linearGradient3760">
   <stop stop-color="#a4a4a4" stop-opacity="1"/>
   <stop stop-color="#cecece" stop-opacity="1" offset="1"/>
  </linearGradient>
  <linearGradient x1="51" x2="75" xlink:href="#linearGradient3737" y1="23" y2="30" spreadMethod="reflect" gradientUnits="userSpaceOnUse" id="linearGradient3796"/>
  <linearGradient x2="0" y1="79" y2="85" gradientUnits="userSpaceOnUse" id="linearGradient3835">
   <stop stop-color="#000000" stop-opacity="0.341"/>
   <stop stop-color="#7f7f7f" stop-opacity="0" offset="0.5"/>
   <stop stop-color="#ffffff" stop-opacity="0.202" offset="1"/>
  </linearGradient>
  <linearGradient x2="0" xlink:href="#linearGradient3737" y1="5.848" y2="72.53" gradientUnits="userSpaceOnUse" id="linearGradient3896"/>
  <linearGradient x2="0" xlink:href="#ButtonShadow-0" y1="90" y2="5.988" gradientUnits="userSpaceOnUse" id="linearGradient3903" gradientTransform="matrix(1 0 0 1 0 1)"/>
  <linearGradient x2="0" xlink:href="#ButtonShadow-0" y1="90" y2="5.988" gradientUnits="userSpaceOnUse" id="linearGradient3912" gradientTransform="matrix(1.02381 0 0 1.0119 -1.143 0.929)"/>
  <path d="m 32,6 0,26 c 0,2.216 1.784,4 4,4 l 38,0 c 2.216,0 4,-1.784 4,-4 L 78,6 32,6 z m 24,6 12,0 0,20 -12,0 0,-20 z" stroke-width="0.5" display="inline" color="#000000" fill-opacity="1" stroke="none" fill-rule="nonzero" id="SVGCleanerId_0" visibility="visible"/>
 </defs>
 <g display="inline">
  <path d="M 12,4.0625 C 6.5303692,4.0625 2.0625,8.5303692 2.0625,14 l 0,71 c 0,5.469631 4.4678692,9.9375 9.9375,9.9375 l 72,0 c 5.469631,0 9.9375,-4.467869 9.9375,-9.9375 l 0,-67.875 c 0,-0.184187 0.01586,-0.4423 0,-0.8125 -0.05225,-1.214268 -0.457551,-2.534084 -1.375,-3.65625 C 91.760099,11.674802 90.737825,10.764951 89,9 86.943981,6.9118883 86.002803,5.8173534 84.75,5 84.018184,4.5225486 83.228872,4.2952791 82.53125,4.1875 81.89833,4.089717 81.400532,4.0872343 80.875,4.0625 a 0.91790574,0.91790574 0 0 0 -0.03125,0 c -0.0016,-2.31e-5 -0.02965,-2.31e-5 -0.03125,0 a 0.91790574,0.91790574 0 0 0 -0.0625,0 l -0.03125,0 -0.09375,0 -68.625,0 z" fill="url(#linearGradient3912)" fill-opacity="1" fill-rule="nonzero" stroke="none" opacity="0.08"/>
  <path d="M 12,4.96875 C 7.0304708,4.96875 2.96875,9.0304708 2.96875,14 l 0,71 c 0,4.969529 4.0617208,9.03125 9.03125,9.03125 l 72,0 c 4.969529,0 9.03125,-4.061721 9.03125,-9.03125 l 0,-67.875 c 0,-0.222512 0.01394,-0.455955 0,-0.78125 -0.04437,-1.031182 -0.401139,-2.131922 -1.1875,-3.09375 -0.733959,-0.897734 -1.748517,-1.814927 -3.5,-3.59375 C 86.275586,7.5558039 85.355503,6.5025021 84.25,5.78125 83.649414,5.3894159 83.000989,5.1856342 82.40625,5.09375 c -0.572327,-0.088422 -1.025582,-0.09973 -1.5625,-0.125 a 1.0847976,1.0847976 0 0 0 -0.03125,0 c 0.0011,1.76e-5 -0.04222,5.9e-6 -0.0625,0 l -0.03125,0 -68.71875,0 z" fill="url(#linearGradient3912)" fill-opacity="1" fill-rule="nonzero" stroke="none" opacity="0.1"/>
  <path d="M 12,6.0625 C 7.616868,6.0625 4.0625,9.616868 4.0625,14 l 0,71 c 0,4.383132 3.554368,7.9375 7.9375,7.9375 l 72,0 c 4.383132,0 7.9375,-3.554368 7.9375,-7.9375 l 0,-67.875 c 0,-0.255097 0.01149,-0.481693 0,-0.75 C 91.901216,15.531726 91.646929,14.728784 91,13.9375 90.353071,13.146216 89.327309,12.198607 87.5625,10.40625 85.484392,8.2957048 84.56821,7.282481 83.65625,6.6875 83.20027,6.3900095 82.713924,6.2279239 82.25,6.15625 81.786076,6.0845761 81.350116,6.0892739 80.78125,6.0625 a 0.94127059,0.94127059 0 0 0 -0.03125,0 l -68.75,0 z m -1.96875,76.75 4.28125,0 0,2.1875 -4.28125,0 0,-2.1875 z m 71.65625,0 4.28125,0 0,2.1875 -4.28125,0 0,-2.1875 z" fill="url(#linearGradient3912)" fill-opacity="1" fill-rule="nonzero" stroke="none" opacity="0.2"/>
  <path d="M 12,7 C 8.122,7 5,10.122 5,14 l 0,71 c 0,3.878 3.122,7 7,7 l 72,0 c 3.878,0 7,-3.122 7,-7 l 0,-67.875 c 0,-0.2758 0.0091,-0.506352 0,-0.71875 C 90.936027,14.919463 90.450281,14.661852 86.90625,11.0625 82.745847,6.8371566 83.093972,7.1103199 80.75,7 L 12,7 z m -2.90625,74.875 6.15625,0 0,4.0625 -6.15625,0 0,-4.0625 z m 71.65625,0 6.15625,0 0,4.0625 -6.15625,0 0,-4.0625 z" fill="url(#linearGradient3912)" fill-opacity="1" fill-rule="nonzero" stroke="none" opacity="0.3" inkscape:connector-curvature="0"/>
  <path d="M 12,7 C 8.676,7 6,9.676 6,13 l 0,72 c 0,3.324 2.676,6 6,6 l 72,0 c 3.324,0 6,-2.676 6,-6 L 90,17 C 90,14.819561 89.956128,15.06515 86,11 81.936351,6.8243665 82.289461,7.109022 80,7 L 12,7 z m -2,74 6,0 0,4 -6,0 0,-4 z m 70,0 6,0 0,4 -6,0 0,-4 z" fill="url(#linearGradient3903)" fill-opacity="1" fill-rule="nonzero" stroke="none" opacity="0.45" inkscape:connector-curvature="0"/>
 </g>
 <path d="M 12,6 C 8.676,6 6,8.676 6,12 l 0,72 c 0,3.324 2.676,6 6,6 l 72,0 c 3.324,0 6,-2.676 6,-6 L 90,16 C 90,13.819561 89.956128,14.06515 86,10 81.936351,5.8243665 82.289461,6.109022 80,6 L 12,6 z m -2,74 6,0 0,4 -6,0 0,-4 z m 70,0 6,0 0,4 -6,0 0,-4 z" fill="url(#linearGradient3617)" fill-opacity="1" fill-rule="nonzero" stroke="none" inkscape:connector-curvature="0"/>
 <path d="m 18,6 0,26 c 0,2.216 1.784,4 4,4 l 52,0 c 2.216,0 4,-1.784 4,-4 L 78,6 18,6 z m 0.96875,0.96875 58.0625,0 0,25.03125 c 0,1.689388 -1.341862,3.03125 -3.03125,3.03125 l -52,0 c -1.689388,0 -3.03125,-1.341862 -3.03125,-3.03125 l 0,-25.03125 z" stroke-width="0.5" display="inline" fill="#000000" color="#000000" fill-opacity="1" fill-rule="nonzero" stroke="none" opacity="0.1" visibility="visible" inkscape:connector-curvature="0"/>
 <path d="m 18,6 0,26 c 0,2.216 1.784,4 4,4 l 52,0 c 2.216,0 4,-1.784 4,-4 L 78,6 18,6 z" stroke-width="0.5" display="inline" fill="#000000" color="#000000" fill-opacity="1" fill-rule="nonzero" stroke="none" opacity="0.1" visibility="visible" inkscape:connector-curvature="0"/>
 <rect x="18" stroke-width="0.5" display="inline" y="42" fill="url(#linearGradient3688)" color="#000000" fill-opacity="1" fill-rule="nonzero" stroke="none" height="48" visibility="visible" width="60"/>
 <rect x="22" stroke-width="0.5" display="inline" y="86" fill="url(#linearGradient3710)" color="#000000" fill-opacity="1" fill-rule="nonzero" stroke="none" height="4" visibility="visible" width="52"/>
 <path d="M 12,90 C 8.676,90 6,87.324 6,84 L 6,82 6,14 6,12 c 0,-0.334721 0.04135,-0.6507 0.09375,-0.96875 0.0487,-0.295596 0.09704,-0.596915 0.1875,-0.875 C 6.29115,10.12587 6.30214,10.09265 6.3125,10.0625 6.41136,9.774729 6.54738,9.515048 6.6875,9.25 6.832092,8.976493 7.003116,8.714385 7.1875,8.46875 7.371884,8.223115 7.561276,7.995278 7.78125,7.78125 8.221197,7.353194 8.72416,6.966724 9.28125,6.6875 9.559795,6.547888 9.854723,6.440553 10.15625,6.34375 9.900048,6.443972 9.669539,6.580022 9.4375,6.71875 c -0.0074,0.0044 -0.02387,-0.0045 -0.03125,0 -0.03193,0.0193 -0.06229,0.04251 -0.09375,0.0625 -0.120395,0.0767 -0.231023,0.163513 -0.34375,0.25 -0.106173,0.0808 -0.213281,0.161112 -0.3125,0.25 C 8.47832,7.442683 8.30879,7.626638 8.15625,7.8125 8.048671,7.942755 7.937856,8.077785 7.84375,8.21875 7.81866,8.25713 7.8053,8.30462 7.78125,8.34375 7.71649,8.446782 7.651022,8.548267 7.59375,8.65625 7.492742,8.850956 7.388075,9.071951 7.3125,9.28125 7.3045,9.30306 7.28891,9.3218 7.28125,9.34375 7.24943,9.4357 7.24545,9.530581 7.21875,9.625 7.18842,9.731618 7.14836,9.828031 7.125,9.9375 7.052121,10.279012 7,10.635705 7,11 l 0,2 0,68 0,2 c 0,2.781848 2.218152,5 5,5 l 2,0 68,0 2,0 c 2.781848,0 5,-2.218152 5,-5 l 0,-2 0,-68 0,-2 C 89,10.635705 88.94788,10.279012 88.875,9.9375 88.83085,9.730607 88.78662,9.539842 88.71875,9.34375 88.71105,9.3218 88.69545,9.30306 88.6875,9.28125 88.62476,9.107511 88.549117,8.913801 88.46875,8.75 88.42717,8.6672 88.38971,8.580046 88.34375,8.5 88.28915,8.40279 88.216976,8.31165 88.15625,8.21875 88.06214,8.077785 87.951329,7.942755 87.84375,7.8125 87.700576,7.63805 87.540609,7.465502 87.375,7.3125 87.36383,7.3023 87.35502,7.29135 87.34375,7.28125 87.205364,7.155694 87.058659,7.046814 86.90625,6.9375 86.803679,6.86435 86.701932,6.784136 86.59375,6.71875 c -0.0074,-0.0045 -0.02384,0.0044 -0.03125,0 -0.232039,-0.138728 -0.462548,-0.274778 -0.71875,-0.375 0.301527,0.0968 0.596455,0.204138 0.875,0.34375 0.55709,0.279224 1.060053,0.665694 1.5,1.09375 0.219973,0.214028 0.409366,0.441865 0.59375,0.6875 0.184384,0.245635 0.355408,0.507743 0.5,0.78125 0.14012,0.265048 0.276135,0.524729 0.375,0.8125 0.01041,0.03078 0.02133,0.06274 0.03125,0.09375 0.09046,0.278085 0.1388,0.579404 0.1875,0.875 C 89.95865,11.3493 90,11.665279 90,12 l 0,2 0,68 0,2 c 0,3.324 -2.676,6 -6,6 l -72,0 z" fill="url(#radialGradient3619)" fill-opacity="1" fill-rule="nonzero" stroke="none" opacity="0.15" inkscape:connector-curvature="0"/>
 <use xlink:href="#SVGCleanerId_0" fill="url(#linearGradient3760)" inkscape:connector-curvature="0"/>
 <path d="m 31,6 0,26 c 0,2.216 1.784,4 4,4 l 1,0 c -2.216,0 -4,-1.784 -4,-4 L 32,6 31,6 z" stroke-width="0.5" display="inline" fill="#000000" color="#000000" fill-opacity="1" fill-rule="nonzero" stroke="none" opacity="0.2" visibility="visible" inkscape:connector-curvature="0"/>
 <use xlink:href="#SVGCleanerId_0" fill="url(#linearGradient3796)" opacity="0.5" inkscape:connector-curvature="0"/>
 <rect x="22" stroke-width="0.5" display="inline" y="80" fill="#ff3300" color="#000000" fill-opacity="1" stroke="none" fill-rule="nonzero" height="1" visibility="visible" opacity="0.2" width="52"/>
 <rect x="22" stroke-width="0.5" display="inline" y="72" fill="#ff3300" color="#000000" fill-opacity="1" stroke="none" fill-rule="nonzero" height="1" visibility="visible" opacity="0.2" width="52"/>
 <rect x="22" stroke-width="0.5" display="inline" y="64" fill="#ff3300" color="#000000" fill-opacity="1" stroke="none" fill-rule="nonzero" height="1" visibility="visible" opacity="0.2" width="52"/>
 <rect x="22" stroke-width="0.5" display="inline" y="56" fill="#ff3300" color="#000000" fill-opacity="1" stroke="none" fill-rule="nonzero" height="1" visibility="visible" opacity="0.2" width="52"/>
 <rect x="22" stroke-width="0.5" display="inline" y="48" fill="#ff3300" color="#000000" fill-opacity="1" stroke="none" fill-rule="nonzero" height="1" visibility="visible" opacity="0.2" width="52"/>
 <path d="m 32,6 0,1 46,0 0,-1 -46,0 z m 24,26 0,1 12,0 0,-1 -12,0 z" stroke-width="0.5" display="inline" fill="#ffffff" color="#000000" fill-opacity="1" fill-rule="nonzero" stroke="none" opacity="0.6" visibility="visible" inkscape:connector-curvature="0"/>
 <path d="m 17,6 0,26 c 0,2.755476 2.244524,5 5,5 l 52,0 c 2.755476,0 5,-2.244524 5,-5 l 0,-26 -1,0 0,26 c 0,2.216 -1.784,4 -4,4 l -52,0 c -2.216,0 -4,-1.784 -4,-4 L 18,6 17,6 z" stroke-width="0.5" display="inline" fill="url(#linearGradient3733)" color="#000000" fill-opacity="1" fill-rule="nonzero" stroke="none" opacity="0.1" visibility="visible" inkscape:connector-curvature="0"/>
 <path d="m 56,12 0,20 1,0 0,-19 10,0 0,19 1,0 0,-20 -12,0 z" stroke-width="0.5" display="inline" fill="#000000" color="#000000" fill-opacity="1" fill-rule="nonzero" stroke="none" opacity="0.3" visibility="visible" inkscape:connector-curvature="0"/>
 <path d="m 13,13 -3,5 2,0 0,6 2,0 0,-6 2,0 -3,-5 z" fill="#313131" fill-opacity="1" stroke="none" inkscape:connector-curvature="0"/>
 <path d="m 13,13 -3,5 0.59375,0 L 13,14 15.40625,18 16,18 13,13 z" fill="#000000" fill-opacity="1" stroke="none" opacity="0.2" inkscape:connector-curvature="0"/>
 <path d="M 10.59375,18 10,19 l 2,0 0,-1 -1.40625,0 z M 14,18 14,19 16,19 15.40625,18 14,18 z m -2,6 0,1 2,0 0,-1 -2,0 z" fill="#ffffff" fill-opacity="1" stroke="none" opacity="0.15" inkscape:connector-curvature="0"/>
 <path d="m 122,6 c -3.324,0 -6,2.676 -6,6 l 0,72 c 0,3.324 2.676,6 6,6 l 72,0 c 3.324,0 6,-2.676 6,-6 l 0,-66 c 0,-2.180439 -1.04387,-2.93485 -5,-7 -4.06365,-4.1756335 -4.71054,-4.890978 -7,-5 l -66,0 z" fill="url(#linearGradient3617)" fill-opacity="1" fill-rule="nonzero" stroke="none" inkscape:connector-curvature="0"/>
 <path d="m 9,79 0,6 8,0 0,-6 -8,0 z m 1,1 6,0 0,4 -6,0 0,-4 z" stroke-width="0.5" display="inline" fill="url(#linearGradient3835)" color="#000000" fill-opacity="1" fill-rule="nonzero" stroke="none" visibility="visible" inkscape:connector-curvature="0"/>
 <path d="m 79,79 0,6 8,0 0,-6 -8,0 z m 1,1 6,0 0,4 -6,0 0,-4 z" stroke-width="0.5" display="inline" fill="url(#linearGradient3835)" color="#000000" fill-opacity="1" fill-rule="nonzero" stroke="none" visibility="visible" inkscape:connector-curvature="0"/>
 <path d="M 12,6 C 8.676,6 6,8.676 6,12 l 0,72 c 0,3.324 2.676,6 6,6 l 72,0 c 3.324,0 6,-2.676 6,-6 L 90,16 C 90,13.819561 89.956128,14.06515 86,10 81.936351,5.8243665 82.289461,6.109022 80,6 L 12,6 z m 0,2.09375 67.9375,0 0.0625,0 c 0.543723,0.025018 0.934657,0.028609 1.15625,0.0625 0.233538,0.035718 0.349601,0.058113 0.59375,0.21875 0.488298,0.3212734 1.434554,1.2847459 3.46875,3.375 1.987122,2.041883 2.997451,3.056499 3.375,3.59375 0.188775,0.268625 0.24247,0.358318 0.28125,0.5625 0.03878,0.204182 0.03125,0.552296 0.03125,1.09375 l 0,68 c 0,2.738876 -2.167374,4.90625 -4.90625,4.90625 l -72,0 C 9.2611239,89.90625 7.09375,87.738876 7.09375,85 l 0,-72 C 7.09375,10.261124 9.2611239,8.09375 12,8.09375 z" fill="url(#linearGradient3896)" fill-opacity="1" fill-rule="nonzero" stroke="none" opacity="0.3" inkscape:connector-curvature="0"/>
 <rect stroke="#ffffff" stroke-dasharray="none" clip-path="url(#clipPath3613)" stroke-dashoffset="0" stroke-linecap="round" height="66" stroke-linejoin="miter" stroke-miterlimit="4" stroke-opacity="1" stroke-width="0.5" width="66" fill="url(#linearGradient3613)" fill-opacity="1" opacity="0.1" x="15" fill-rule="nonzero" filter="url(#filter3794)" y="15" rx="12"/>
</svg>
