<?xml version="1.0" encoding="UTF-8" standalone="no"?>
<svg xmlns="http://www.w3.org/2000/svg" height="96" width="96" xmlns:xlink="http://www.w3.org/1999/xlink">
 <defs>
  <linearGradient id="linearGradient3737">
   <stop stop-color="#fff" offset="0"/>
   <stop stop-color="#fff" stop-opacity="0" offset="1"/>
  </linearGradient>
  <linearGradient id="linearGradient3188" xlink:href="#linearGradient3737" gradientUnits="userSpaceOnUse" y1="6" x2="0" y2="63.893"/>
  <radialGradient id="radialGradient3619" cx="48" xlink:href="#linearGradient3737" gradientUnits="userSpaceOnUse" cy="90.17" r="42" gradientTransform="matrix(1.1573 0 0 .99591 -7.551 .197)"/>
  <linearGradient id="linearGradient3645" y2="63.18" gradientUnits="userSpaceOnUse" y1="7.409" x2="48.25" x1="48">
   <stop stop-color="#fff" stop-opacity="0" offset="0"/>
   <stop stop-color="#fff" stop-opacity=".234" offset="1"/>
  </linearGradient>
  <linearGradient id="linearGradient4004" x2="94.57" gradientUnits="userSpaceOnUse" x1="25.22">
   <stop stop-color="#4d4d4d" offset="0"/>
   <stop stop-color="#fff" offset="1"/>
  </linearGradient>
  <radialGradient id="radialGradient4012" gradientUnits="userSpaceOnUse" cy="61.922" cx="59.894" gradientTransform="matrix(1 0 0 .83754 0 10.06)" r="33.714">
   <stop stop-opacity="0" offset="0"/>
   <stop stop-opacity="0" offset=".85"/>
   <stop offset="1"/>
  </radialGradient>
  <linearGradient id="linearGradient4014" x2="93.61" gradientUnits="userSpaceOnUse" x1="26.18">
   <stop stop-color="#fff" stop-opacity=".203" offset="0"/>
   <stop stop-color="#fff" stop-opacity=".68" offset="1"/>
  </linearGradient>
  <clipPath id="clipPath4031">
   <path d="m48 32c-19.882 0-36 16.118-36 36s16.118 36 36 36 36-16.118 36-36-16.118-36-36-36zm0 24c6.6274 0 12 5.3726 12 12s-5.3726 12-12 12-12-5.3726-12-12 5.3726-12 12-12z"/>
  </clipPath>
  <filter id="filter4035" color-interpolation-filters="sRGB" width="1.381" y="-.171" x="-.19" height="1.341">
   <feGaussianBlur stdDeviation="4.94766"/>
  </filter>
  <clipPath id="clipPath4187">
   <path d="m48 102c-19.882 0-36 16.118-36 36s16.118 36 36 36 36-16.118 36-36-16.118-36-36-36zm0 24c6.6274 0 12 5.3726 12 12s-5.3726 12-12 12-12-5.3726-12-12 5.3726-12 12-12z"/>
  </clipPath>
  <filter id="filter4195" color-interpolation-filters="sRGB" width="1.36" y="-.18" x="-.18" height="1.36">
   <feGaussianBlur stdDeviation="5.216"/>
  </filter>
  <linearGradient id="linearGradient4574" gradientUnits="userSpaceOnUse" y1="90" gradientTransform="translate(110)" x2="0" y2="6">
   <stop stop-color="#dcdcdc" stop-opacity=".471" offset="0"/>
   <stop stop-color="#dcdcdc" stop-opacity=".235" offset="1"/>
  </linearGradient>
  <linearGradient id="linearGradient4584" x2="0" y1="89.67" y2="4.788" gradientUnits="userSpaceOnUse">
   <stop stop-color="#a0a0a0" stop-opacity=".541" offset="0"/>
   <stop stop-color="#a0a0a0" stop-opacity=".345" offset="1"/>
  </linearGradient>
  <clipPath id="clipPath4592">
   <use xlink:href="#SVGCleanerId_4"/>
  </clipPath>
  <linearGradient id="linearGradient4624" x2="88.14" gradientUnits="userSpaceOnUse" x1="6.812">
   <stop stop-color="#fff" stop-opacity="0" offset="0"/>
   <stop stop-color="#fff" stop-opacity="0" offset=".25"/>
   <stop stop-color="#fff" stop-opacity=".702" offset=".5"/>
   <stop stop-color="#fff" stop-opacity="0" offset=".75"/>
   <stop stop-color="#fff" stop-opacity="0" offset="1"/>
  </linearGradient>
  <radialGradient id="radialGradient4646" gradientUnits="userSpaceOnUse" cx="46.47" cy="47.765" r="35.86">
   <stop stop-opacity="0" offset="0"/>
   <stop stop-opacity="0" offset=".93"/>
   <stop offset="1"/>
  </radialGradient>
  <filter id="filter4662" color-interpolation-filters="sRGB" width="1.24" y="-.12" x="-.12" height="1.24">
   <feGaussianBlur stdDeviation="4.2"/>
  </filter>
  <filter id="filter3751" color-interpolation-filters="sRGB">
   <feGaussianBlur stdDeviation="1.44"/>
  </filter>
  <clipPath id="clipPath3721">
   <path d="m76.014 47.513a28.284 28.284 0 1 1 -56.569 0 28.284 28.284 0 1 1 56.569 0z" transform="matrix(1.3435 0 0 1.3435 -16.12 74.17)"/>
  </clipPath>
  <linearGradient id="ButtonShadow-0" gradientUnits="userSpaceOnUse" y1="92.54" gradientTransform="matrix(1.0059 0 0 .99417 100 0)" x2="0" y2="7.02">
   <stop offset="0"/>
   <stop stop-opacity=".588" offset="1"/>
  </linearGradient>
  <linearGradient id="linearGradient3780" xlink:href="#ButtonShadow-0" gradientUnits="userSpaceOnUse" y1="6.132" gradientTransform="matrix(1.0238 0 0 -1.0119 -1.143 98.07)" x2="0" y2="90.24"/>
  <linearGradient id="linearGradient3721" xlink:href="#ButtonShadow-0" gradientUnits="userSpaceOnUse" y1="6.132" gradientTransform="matrix(1 0 0 -1 0 97)" x2="0" y2="90.24"/>
  <rect id="SVGCleanerId_0" rx="6" height="84" width="84" y="6" x="6" fill="url(#linearGradient4584)"/>
  <path id="SVGCleanerId_1" d="m81.071 48.5a34.643 34.643 0 1 1 -69.286 0 34.643 34.643 0 1 1 69.286 0z"/>
  <path id="SVGCleanerId_2" d="m92.58 61.922a32.686 27.208 0 1 1 -65.371 0 32.686 27.208 0 1 1 65.371 0z" stroke-linecap="round"/>
  <path id="SVGCleanerId_3" opacity=".3" d="m64.397 47.386a20.708 18.814 0 0 1 -6.0653 13.304l-14.643-13.304z" fill="#fff"/>
  <path id="SVGCleanerId_4" d="m12 6c-3.324 0-6 2.676-6 6v72c0 3.324 2.676 6 6 6h72c3.324 0 6-2.676 6-6v-72c0-3.324-2.676-6-6-6h-72zm36 4c20.987 0 38 17.013 38 38s-17.013 38-38 38-38-17.013-38-38 17.013-38 38-38z"/>
  <path id="SVGCleanerId_5" d="m87.126 49.028a39.648 39.648 0 1 1 -79.297 0 39.648 39.648 0 1 1 79.297 0z" stroke="url(#linearGradient4624)" stroke-linecap="round" stroke-width="2.033" fill="none"/>
  <path id="SVGCleanerId_6" d="m60.947 57.784a20.708 18.814 0 0 1 -2.6155 2.9059l-14.643-13.304z" fill="#7137c8"/>
  <path id="SVGCleanerId_7" d="m60.779 58.011a20.708 18.814 0 0 1 -3.384 3.4788l-13.706-14.104z" fill="#0cf"/>
  <path id="SVGCleanerId_8" d="m62.724 54.796a20.708 18.814 0 0 1 -2.2597 3.6221l-16.775-11.032z" fill="#fc0"/>
  <path id="SVGCleanerId_9" d="m61.623 56.793a20.708 18.814 0 0 1 -1.6993 2.2728l-16.235-11.68z" fill="#f00"/>
  <path id="SVGCleanerId_10" d="m63.123 53.883a20.708 18.814 0 0 1 -2.37 4.1619l-17.064-10.659z" fill="#0f0"/>
 </defs>
 <path opacity=".08" d="m12 3.9688c-5.5111 0-10.031 4.5201-10.031 10.031v71c0 5.5111 4.5202 10.031 10.031 10.031h72c5.5111 0 10.031-4.5202 10.031-10.031v-71c0-5.5111-4.52-10.031-10.031-10.031h-72zm0 2.0312h72c3.324 0 6 2.676 6 6v72c0 3.324-2.676 6-6 6h-72c-3.324 0-6-2.676-6-6v-72c0-3.324 2.676-6 6-6z" fill="url(#linearGradient3780)"/>
 <path opacity=".1" d="m12 4.9688c-4.9716 0-9.0312 4.0596-9.0312 9.0312v71c0 4.9716 4.0596 9.0312 9.0312 9.0312h72c4.9716 0 9.0312-4.0596 9.0312-9.0312v-71c0-4.9716-4.059-9.0312-9.031-9.0312h-72zm0 1.0312h72c3.324 0 6 2.676 6 6v72c0 3.324-2.676 6-6 6h-72c-3.324 0-6-2.676-6-6v-72c0-3.324 2.676-6 6-6z" fill="url(#linearGradient3780)"/>
 <path opacity=".2" d="m11.188 6.0312c-4.028 0.4107-7.188 3.8352-7.188 7.9688v71c0 4.4091 3.5909 8 8 8h72c4.4091 0 8-3.5909 8-8v-71c0-4.1971-3.259-7.646-7.375-7.9688 3.033 0.3062 5.375 2.8526 5.375 5.9688v72c0 3.324-2.676 6-6 6h-72c-3.324 0-6-2.676-6-6v-72c0-3.1162 2.3421-5.6626 5.375-5.9688-0.06227 0.00488-0.12563-0.00631-0.1875 0z" fill="url(#linearGradient3780)"/>
 <path opacity=".3" d="m6.4375 9.75c-0.8995 1.177-1.4375 2.647-1.4375 4.25v71c0 3.878 3.122 7 7 7h72c3.878 0 7-3.122 7-7v-71c0-1.603-0.538-3.073-1.438-4.25 0.28 0.694 0.438 1.454 0.438 2.25v72c0 3.324-2.676 6-6 6h-72c-3.324 0-6-2.676-6-6v-72c0-0.796 0.1582-1.556 0.4375-2.25z" fill="url(#linearGradient3780)"/>
 <path opacity=".45" d="m6 84v1c0 3.324 2.676 6 6 6h72c3.324 0 6-2.676 6-6v-1c0 3.324-2.676 6-6 6h-72c-3.324 0-6-2.676-6-6z" fill="url(#linearGradient3721)"/>
 <use xlink:href="#SVGCleanerId_0"/>
 <path opacity=".42" d="m-94.857 8.6027c-20.944 0-37.969 17.025-37.969 37.969s17.025 37.969 37.969 37.969 37.969-17.025 37.969-37.969-17.025-37.969-37.969-37.969zm0 25.969c6.6274 0 12 5.3726 12 12s-5.3726 12-12 12-12-5.3726-12-12 5.3726-12 12-12z"/>
 <path opacity=".4" d="m82.327 47.765a35.86 35.86 0 1 1 -71.721 0 35.86 35.86 0 1 1 71.721 0z" transform="matrix(1.0597 0 0 1.0597 -1.239 -2.615)" fill="url(#radialGradient4646)"/>
 <path opacity=".8" d="m48 102c-19.882 0-36 16.118-36 36s16.118 36 36 36 36-16.118 36-36-16.118-36-36-36zm0 24c6.6274 0 12 5.3726 12 12s-5.3726 12-12 12-12-5.3726-12-12 5.3726-12 12-12z" clip-path="url(#clipPath3721)" transform="translate(0 -90)" filter="url(#filter3751)"/>
 <path d="m48 12c-19.882 0-36 16.118-36 36s16.118 36 36 36 36-16.118 36-36-16.118-36-36-36zm0 24c6.6274 0 12 5.3726 12 12s-5.3726 12-12 12-12-5.3726-12-12 5.3726-12 12-12z" fill="#ccbb98"/>
 <use xlink:href="#SVGCleanerId_1" transform="matrix(1.0392 0 0 1.0392 89.75 -2.4)" fill="#c8c0cb"/>
 <use xlink:href="#SVGCleanerId_1" transform="matrix(.34639 0 0 .34639 121.92 31.2)" fill="#ff0000"/>
 <path opacity=".3" d="m48 36c-6.6274 0-12 5.3726-12 12s5.3726 12 12 12 12-5.3726 12-12-5.3726-12-12-12zm0 7c2.7614 0 5 2.2386 5 5s-2.2386 5-5 5-5-2.2386-5-5 2.2386-5 5-5z" fill="#fff"/>
 <use opacity=".6" xlink:href="#SVGCleanerId_2" transform="matrix(0 .16827 -.20214 0 60.52 37.922)" stroke="url(#linearGradient4004)" stroke-width="5.422" fill="none"/>
 <use opacity=".5" fill-rule="evenodd" xlink:href="#SVGCleanerId_2" transform="matrix(0 .29065 -.34916 0 69.62 30.592)" stroke="url(#linearGradient4014)" stroke-width="3.139" fill="url(#radialGradient4012)"/>
 <path opacity=".8" d="m57.312 33.219-9.312 34.781 31.188-18c-4.774-8.269-12.653-14.31-21.876-16.781zm-9.312 34.781-31.188 18c4.7739 8.2686 12.653 14.31 21.875 16.781l9.313-34.78z" clip-path="url(#clipPath4031)" transform="translate(0 -20)" filter="url(#filter4035)" fill="#fff"/>
 <use xlink:href="#SVGCleanerId_3" transform="matrix(.44994 -1.6792 1.8483 .49524 -59.24 7.896)"/>
 <use xlink:href="#SVGCleanerId_3" transform="matrix(-.44994 1.6792 -1.8483 -.49524 155.24 -91.9)"/>
 <g filter="url(#filter4195)" opacity=".6" transform="translate(0 -90)" clip-path="url(#clipPath4187)">
  <use xlink:href="#SVGCleanerId_6" transform="matrix(1.5055 .86922 -.95673 1.6571 27.56 21.5)"/>
  <use xlink:href="#SVGCleanerId_7" transform="matrix(1.6792 .44994 -.49524 1.8483 -1.896 30.76)"/>
  <use xlink:href="#SVGCleanerId_8" transform="matrix(1.7384 0 0 1.9135 -27.951 47.33)"/>
  <use xlink:href="#SVGCleanerId_9" transform="matrix(1.6792 -.44994 .49524 1.8483 -48.831 70.08)"/>
  <use xlink:href="#SVGCleanerId_10" transform="matrix(1.6792 .44994 -.49524 1.8483 -1.896 30.76)"/>
  <use xlink:href="#SVGCleanerId_6" transform="matrix(-1.5055 -.86922 .95673 -1.6571 68.44 254.5)"/>
  <use xlink:href="#SVGCleanerId_7" transform="matrix(-1.6792 -.44994 .49524 -1.8483 97.9 245.24)"/>
  <use xlink:href="#SVGCleanerId_8" transform="matrix(-1.7384 0 0 -1.9135 123.95 228.67)"/>
  <use xlink:href="#SVGCleanerId_9" transform="matrix(-1.6792 .44994 -.49524 -1.8483 144.83 205.92)"/>
  <use xlink:href="#SVGCleanerId_10" transform="matrix(-1.6792 -.44994 .49524 -1.8483 97.9 245.24)"/>
 </g>
 <path opacity=".2" d="m48 33.5c-8.0081 0-14.5 6.4919-14.5 14.5s6.4919 14.5 14.5 14.5 14.5-6.4919 14.5-14.5-6.4919-14.5-14.5-14.5zm0 2.5c6.6274 0 12 5.3726 12 12s-5.3726 12-12 12-12-5.3726-12-12 5.3726-12 12-12z"/>
 <path opacity=".4" d="m48 12c-19.882 0-36 16.118-36 36 0 0.33707 0.022 0.66516 0.0312 1 0.534-19.416 16.424-35 35.969-35s35.435 15.584 35.969 35c0.009-0.335 0.031-0.663 0.031-1 0-19.882-16.118-36-36-36z" fill="#fff"/>
 <path opacity=".6" d="m44.649 66.418-4.9147 0.01107h-3.6971l-0.37636 1.5663 2.8005 0.01107h0.64755c1.7977 0 2.8962 0.72594 2.5902 1.998-0.33024 1.394-1.9071 2.0035-3.5698 2.0035h-0.61988l0.80252-3.4259h-2.7839l-1.1899 5.0033h3.9628c2.9714 0 5.8091-1.5633 6.2984-3.5809 0.09761-0.36713 0.08873-1.2875-0.1439-1.8375 0-0.02455-0.01555-0.0341-0.02767-0.08302-0.01254-0.01214-0.02124-0.09878 0.02767-0.11069 0.02466-0.01235 0.07089 0.03748 0.08302 0.04981 0.02425 0.06114 0.03874 0.10516 0.03874 0.10516l2.5183 7.1175 6.4202-7.2393h2.712 0.65308c1.7977 0 2.8951 0.72594 2.6013 1.998-0.34237 1.394-1.918 2.0035-3.5809 2.0035h-0.62541l0.80806-3.4259h-2.7895l-1.1844 5.0033h3.9628c2.9718 0 5.8216-1.5633 6.2984-3.5809 0.4891-2.0056-1.6154-3.5754-4.5993-3.5754h-5.9054s-1.566 1.8481-1.8596 2.2028c-1.5528 1.8707-1.838 2.3726-1.8873 2.5072 0.01233-0.1346-0.04815-0.63377-0.70843-2.5293-0.1831-0.51366-0.74164-2.1806-0.74164-2.1806h-2.0201v-0.01107zm2.5459 8.8554c-7.5331 0-13.637 0.8679-13.637 1.9316 0 1.0762 6.1042 1.9316 13.637 1.9316 7.5329 0 13.643-0.85537 13.643-1.9316 0-1.0637-6.1099-1.9316-13.643-1.9316zm-0.49258 1.3338c1.7244 0 3.1215 0.28219 3.1215 0.63648 0 0.3547-1.3972 0.64755-3.1215 0.64755-1.7246 0-3.116-0.29285-3.116-0.64755 0-0.35429 1.3914-0.63648 3.116-0.63648z" fill-rule="evenodd"/>
 <path opacity=".6" d="m12 6c-3.324 0-6 2.676-6 6v2 68 2c0 0.33472 0.04135 0.6507 0.09375 0.96875 0.0487 0.2956 0.09704 0.59692 0.1875 0.875 0.00988 0.03038 0.020892 0.0636 0.03125 0.09375 0.098865 0.28777 0.23488 0.54745 0.375 0.8125 0.14459 0.27351 0.31562 0.53562 0.5 0.78125 0.18438 0.24564 0.37378 0.47347 0.59375 0.6875 0.43995 0.42806 0.94291 0.81453 1.5 1.0938 0.27854 0.13961 0.57347 0.24695 0.875 0.34375-0.2562-0.10022-0.48671-0.23627-0.71875-0.375-0.00741-0.0044-0.023866 0.0045-0.03125 0-0.031933-0.0193-0.062293-0.04251-0.09375-0.0625-0.1204-0.0767-0.23102-0.16351-0.34375-0.25-0.10617-0.0808-0.21328-0.16111-0.3125-0.25-0.1778-0.162-0.3473-0.346-0.4999-0.531-0.1075-0.131-0.2183-0.266-0.3124-0.407-0.0251-0.038-0.0385-0.086-0.0626-0.125-0.0647-0.103-0.1302-0.204-0.1874-0.312-0.1011-0.195-0.2057-0.416-0.2813-0.625-0.008-0.022-0.0236-0.041-0.0313-0.063-0.0318-0.092-0.0358-0.187-0.0624-0.281-0.0304-0.107-0.0704-0.203-0.0938-0.313-0.0729-0.341-0.125-0.698-0.125-1.062v-2-68-2c0-2.782 2.2182-5 5-5h2 68 2c2.7818 0 5 2.2182 5 5v2 68 2c0 0.3643-0.05212 0.72099-0.125 1.0625-0.04415 0.20689-0.08838 0.39766-0.15625 0.59375-0.0077 0.02195-0.0233 0.04069-0.03125 0.0625-0.06274 0.17374-0.13838 0.36745-0.21875 0.53125-0.04158 0.0828-0.07904 0.16995-0.125 0.25-0.0546 0.09721-0.12677 0.18835-0.1875 0.28125-0.09411 0.14096-0.20492 0.276-0.3125 0.40625-0.14317 0.17445-0.30314 0.347-0.46875 0.5-0.01117 0.0102-0.01998 0.02115-0.03125 0.03125-0.13839 0.12556-0.28509 0.23444-0.4375 0.34375-0.10257 0.07315-0.20432 0.15336-0.3125 0.21875-0.0074 0.0045-0.02384-0.0044-0.03125 0-0.23204 0.13873-0.46255 0.27478-0.71875 0.375 0.30153-0.0968 0.59646-0.20414 0.875-0.34375 0.55709-0.27922 1.0601-0.66569 1.5-1.0938 0.21997-0.21403 0.40937-0.44186 0.59375-0.6875s0.35541-0.50774 0.5-0.78125c0.14012-0.26505 0.27614-0.52473 0.375-0.8125 0.01041-0.03078 0.02133-0.06274 0.03125-0.09375 0.09046-0.27808 0.1388-0.5794 0.1875-0.875 0.053-0.318 0.094-0.634 0.094-0.969v-2-68-2c0-3.324-2.676-6-6-6h-72z" fill="url(#linearGradient3188)"/>
 <path opacity=".3" d="m12 90c-3.324 0-6-2.676-6-6v-2-68-2c0-0.33472 0.04135-0.6507 0.09375-0.96875 0.0487-0.2956 0.09704-0.59692 0.1875-0.875 0.0099-0.03 0.0209-0.063 0.0313-0.094 0.0989-0.2873 0.2349-0.547 0.375-0.812 0.1446-0.2735 0.3156-0.5356 0.5-0.7812 0.1844-0.2457 0.3738-0.4735 0.5937-0.6876 0.44-0.428 0.943-0.8145 1.5-1.0937 0.2786-0.1396 0.5735-0.2469 0.8748-0.3437-0.256 0.1002-0.4865 0.2362-0.7185 0.375-0.00741 0.0044-0.023866-0.0045-0.03125 0-0.031933 0.0193-0.062293 0.04251-0.09375 0.0625-0.1204 0.0767-0.23102 0.16351-0.34375 0.25-0.10617 0.0808-0.21328 0.16111-0.3125 0.25-0.1779 0.1614-0.3474 0.3453-0.5 0.5312-0.1075 0.1303-0.2183 0.2653-0.3124 0.4063-0.0251 0.0383-0.0385 0.0858-0.0626 0.125-0.0647 0.103-0.1302 0.2045-0.1874 0.3124-0.1011 0.1948-0.2057 0.4158-0.2813 0.625-0.008 0.0219-0.0236 0.0406-0.0313 0.0626-0.0318 0.0919-0.0358 0.1868-0.0624 0.2812-0.0304 0.1066-0.0704 0.203-0.0938 0.3125-0.0729 0.3415-0.125 0.6985-0.125 1.0625v2 68 2c0 2.7818 2.2182 5 5 5h2 68 2c2.7818 0 5-2.2182 5-5v-2-68-2c0-0.364-0.052-0.721-0.125-1.0625-0.044-0.2069-0.088-0.3977-0.156-0.5937-0.008-0.022-0.024-0.0407-0.031-0.0626-0.063-0.1737-0.139-0.3674-0.219-0.5312-0.042-0.0828-0.079-0.17-0.125-0.25-0.055-0.0972-0.127-0.1884-0.188-0.2812-0.094-0.141-0.205-0.276-0.312-0.4063-0.143-0.1745-0.303-0.347-0.469-0.5-0.011-0.0102-0.02-0.0211-0.031-0.0313-0.139-0.1255-0.285-0.2344-0.438-0.3437-0.102-0.0731-0.204-0.1534-0.312-0.2187-0.0074-0.0045-0.02384 0.0044-0.03125 0-0.23204-0.13873-0.46255-0.27478-0.71875-0.375 0.30153 0.0968 0.59646 0.20414 0.875 0.34375 0.55709 0.27922 1.0601 0.66569 1.5 1.0938 0.21997 0.21403 0.40937 0.44186 0.59375 0.6875s0.35541 0.50774 0.5 0.78125c0.14012 0.26505 0.27614 0.52473 0.375 0.8125 0.01041 0.03078 0.02133 0.06274 0.03125 0.09375 0.09046 0.27808 0.1388 0.5794 0.1875 0.875 0.053 0.318 0.094 0.634 0.094 0.969v2 68 2c0 3.324-2.676 6-6 6h-72z" fill="url(#radialGradient3619)"/>
 <path opacity=".8" d="m12 6c-3.324 0-6 2.676-6 6v43.656c18.407-8.8738 43.001-14.312 70.062-14.312 4.7286 0 9.3777 0.17935 13.938 0.5v-29.844c0-3.324-2.676-6-6-6h-72z" fill="url(#linearGradient3645)"/>
 <path d="m122 6c-3.324 0-6 2.676-6 6v72c0 3.324 2.676 6 6 6h72c3.324 0 6-2.676 6-6v-72c0-3.324-2.676-6-6-6h-72zm36 4c20.987 0 38 17.013 38 38s-17.013 38-38 38-38-17.013-38-38 17.013-38 38-38z" fill="url(#linearGradient4574)"/>
 <use opacity=".8" clip-path="url(#clipPath4592)" xlink:href="#SVGCleanerId_4" filter="url(#filter4662)" stroke="#ffffff" stroke-width="2" fill="none"/>
 <use xlink:href="#SVGCleanerId_5" transform="matrix(.69554 -.69554 .69554 .69554 -19.12 46.921)"/>
 <use opacity=".4" xlink:href="#SVGCleanerId_5" transform="matrix(-.69554 -.69554 -.69554 .69554 115.12 46.921)"/>
</svg>
