<?xml version="1.0" encoding="UTF-8" standalone="no"?>
<svg
   xmlns:dc="http://purl.org/dc/elements/1.1/"
   xmlns:cc="http://creativecommons.org/ns#"
   xmlns:rdf="http://www.w3.org/1999/02/22-rdf-syntax-ns#"
   xmlns:svg="http://www.w3.org/2000/svg"
   xmlns="http://www.w3.org/2000/svg"
   xmlns:xlink="http://www.w3.org/1999/xlink"
   xmlns:sodipodi="http://sodipodi.sourceforge.net/DTD/sodipodi-0.dtd"
   xmlns:inkscape="http://www.inkscape.org/namespaces/inkscape"
   height="96"
   width="96"
   id="svg6222"
   version="1.1"
   inkscape:version="0.91 r13725"
   sodipodi:docname="multimedia-player-ipod-pink.svg">
  <metadata
     id="metadata6332">
    <rdf:RDF>
      <cc:Work
         rdf:about="">
        <dc:format>image/svg+xml</dc:format>
        <dc:type
           rdf:resource="http://purl.org/dc/dcmitype/StillImage" />
      </cc:Work>
    </rdf:RDF>
  </metadata>
  <sodipodi:namedview
     pagecolor="#ffffff"
     bordercolor="#666666"
     borderopacity="1"
     objecttolerance="10"
     gridtolerance="10"
     guidetolerance="10"
     inkscape:pageopacity="0"
     inkscape:pageshadow="2"
     inkscape:window-width="640"
     inkscape:window-height="480"
     id="namedview6330"
     showgrid="false"
     inkscape:zoom="2.4583333"
     inkscape:cx="40.271186"
     inkscape:cy="48"
     inkscape:current-layer="svg6222" />
  <defs
     id="defs6224">
    <linearGradient
       id="linearGradient3737">
      <stop
         stop-color="#ffffff"
         stop-opacity="1"
         id="stop6227" />
      <stop
         stop-color="#ffffff"
         stop-opacity="0"
         offset="1"
         id="stop6229" />
    </linearGradient>
    <linearGradient
       x2="0"
       xlink:href="#linearGradient3737"
       y1="6"
       y2="63.893"
       gradientUnits="userSpaceOnUse"
       id="linearGradient3188"
       gradientTransform="translate(-118.37288,-27.661017)" />
    <filter
       x="-0.192"
       y="-0.192"
       height="1.384"
       color-interpolation-filters="sRGB"
       id="filter3794"
       width="1.384">
      <feGaussianBlur
         stdDeviation="5.28"
         id="feGaussianBlur6233" />
    </filter>
    <linearGradient
       x2="0"
       xlink:href="#linearGradient3737"
       y1="20.221"
       y2="138.66"
       gradientUnits="userSpaceOnUse"
       id="linearGradient3613" />
    <radialGradient
       cy="90.17"
       r="42"
       xlink:href="#linearGradient3737"
       gradientUnits="userSpaceOnUse"
       id="radialGradient3619"
       cx="48"
       gradientTransform="matrix(1.15731,0,0,0.99591,-125.92388,-27.464017)" />
    <clipPath
       id="clipPath3613">
      <use
         xlink:href="#SVGCleanerId_0"
         id="use6238" />
    </clipPath>
    <linearGradient
       x2="0"
       y1="90"
       y2="5.988"
       gradientUnits="userSpaceOnUse"
       id="linearGradient3617">
      <stop
         stop-color="#d22785"
         stop-opacity="1"
         id="stop6241" />
      <stop
         stop-color="#f658b0"
         stop-opacity="1"
         offset="1"
         id="stop6243" />
    </linearGradient>
    <linearGradient
       x2="0"
       y1="92.54"
       y2="7.02"
       gradientUnits="userSpaceOnUse"
       id="ButtonShadow-0"
       gradientTransform="matrix(1.0059 0 0 0.99417 100 0)">
      <stop
         stop-color="#000000"
         stop-opacity="1"
         id="stop6246" />
      <stop
         stop-color="#000000"
         stop-opacity="0.588"
         offset="1"
         id="stop6248" />
    </linearGradient>
    <linearGradient
       x2="0"
       xlink:href="#ButtonShadow-0"
       y1="6.132"
       y2="90.24"
       gradientUnits="userSpaceOnUse"
       id="linearGradient3780"
       gradientTransform="matrix(1.02381,0,0,-1.0119,-119.51588,70.408983)" />
    <linearGradient
       x2="0"
       xlink:href="#ButtonShadow-0"
       y1="6.132"
       y2="90.24"
       gradientUnits="userSpaceOnUse"
       id="linearGradient3721"
       gradientTransform="translate(-118.37288,-69.338983)" />
    <linearGradient
       x1="-41"
       x2="72"
       xlink:href="#linearGradient4086"
       gradientUnits="userSpaceOnUse"
       id="linearGradient4111"
       gradientTransform="matrix(0,1,-1,0,-21.372881,-26.661017)" />
    <linearGradient
       id="linearGradient4086">
      <stop
         stop-color="#bebebe"
         stop-opacity="1"
         id="stop6254" />
      <stop
         stop-color="#ebebeb"
         stop-opacity="1"
         offset="1"
         id="stop6256" />
    </linearGradient>
    <radialGradient
       cy="44"
       r="16"
       gradientUnits="userSpaceOnUse"
       id="radialGradient3847-4"
       cx="48"
       gradientTransform="translate(-118.37288,-26.661017)">
      <stop
         stop-color="#ffffff"
         stop-opacity="1"
         id="stop6259" />
      <stop
         stop-color="#ffffff"
         stop-opacity="0.336"
         offset="0.5"
         id="stop6261" />
      <stop
         stop-color="#000000"
         stop-opacity="0.168"
         offset="1"
         id="stop6263" />
    </radialGradient>
    <linearGradient
       x1="15"
       x2="120"
       gradientUnits="userSpaceOnUse"
       id="linearGradient3857-3"
       gradientTransform="matrix(0,-1,1,0,-118.37288,69.338983)">
      <stop
         stop-color="#000000"
         stop-opacity="1"
         id="stop6266" />
      <stop
         stop-color="#000000"
         stop-opacity="0"
         offset="1"
         id="stop6268" />
    </linearGradient>
    <linearGradient
       x1="16"
       x2="80"
       xlink:href="#linearGradient4086"
       gradientUnits="userSpaceOnUse"
       id="linearGradient4223"
       gradientTransform="matrix(0,-1,1,0,-119.37288,69.338983)" />
    <rect
       x="6"
       rx="6"
       y="6"
       height="84"
       id="SVGCleanerId_0"
       width="84" />
    <linearGradient
       inkscape:collect="always"
       xlink:href="#linearGradient3617"
       id="linearGradient5009"
       x1="20.262066"
       y1="8.5310926"
       x2="79.791931"
       y2="78.497192"
       gradientUnits="userSpaceOnUse"
       gradientTransform="translate(0.0069012,0)" />
    <linearGradient
       id="linearGradient3727"
       gradientUnits="userSpaceOnUse"
       y2="42"
       y1="14"
       x2="0">
      <stop
         id="stop25"
         stop-opacity="1"
         stop-color="#949494" />
      <stop
         id="stop27"
         offset="0.195"
         stop-opacity="1"
         stop-color="#aeaeae" />
      <stop
         id="stop29"
         offset="0.53427899"
         stop-opacity="1"
         stop-color="#828282" />
      <stop
         id="stop31-8"
         offset="1"
         stop-opacity="1"
         stop-color="#4d4d4d" />
    </linearGradient>
    <radialGradient
       cy="62.769001"
       r="24"
       gradientUnits="userSpaceOnUse"
       id="radialGradient3914"
       cx="55.380001"
       gradientTransform="matrix(1.53846,0,0,1.84615,-29.822,-53.11)">
      <stop
         stop-color="#15deff"
         stop-opacity="1"
         id="stop45" />
      <stop
         stop-color="#014177"
         stop-opacity="1"
         offset="1"
         id="stop47" />
    </radialGradient>
    <linearGradient
       x1="16"
       x2="80"
       xlink:href="#linearGradient3836"
       gradientUnits="userSpaceOnUse"
       id="linearGradient3842"
       gradientTransform="matrix(0,-1,1,0,0,96)" />
    <linearGradient
       id="linearGradient3836">
      <stop
         stop-color="#b4b4b4"
         stop-opacity="1"
         id="stop12" />
      <stop
         stop-color="#ebebeb"
         stop-opacity="1"
         offset="1"
         id="stop14" />
    </linearGradient>
    <radialGradient
       cy="56"
       r="16"
       gradientUnits="userSpaceOnUse"
       id="radialGradient3863"
       cx="48">
      <stop
         stop-color="#414141"
         stop-opacity="1"
         id="stop39" />
      <stop
         stop-color="#000000"
         stop-opacity="1"
         offset="1"
         id="stop41" />
    </radialGradient>
    <radialGradient
       cy="56"
       r="16"
       gradientUnits="userSpaceOnUse"
       id="radialGradient5035"
       cx="48">
      <stop
         stop-color="#414141"
         stop-opacity="1"
         id="stop5037" />
      <stop
         stop-color="#000000"
         stop-opacity="1"
         offset="1"
         id="stop5039" />
    </radialGradient>
    <linearGradient
       x2="0"
       xlink:href="#linearGradient3737"
       y1="32.608002"
       y2="69.905998"
       gradientUnits="userSpaceOnUse"
       id="linearGradient3875" />
    <linearGradient
       x2="0"
       xlink:href="#linearGradient3737"
       y1="32.608002"
       y2="69.905998"
       gradientUnits="userSpaceOnUse"
       id="linearGradient5045" />
    <linearGradient
       x2="0"
       xlink:href="#linearGradient3737"
       y1="20.365999"
       y2="98.870003"
       gradientUnits="userSpaceOnUse"
       id="linearGradient4100" />
    <linearGradient
       x2="0"
       xlink:href="#linearGradient3737"
       y1="20.365999"
       y2="98.870003"
       gradientUnits="userSpaceOnUse"
       id="linearGradient5060" />
    <linearGradient
       x1="22"
       x2="74"
       xlink:href="#linearGradient3836"
       gradientUnits="userSpaceOnUse"
       id="linearGradient3985"
       gradientTransform="matrix(0,1,-1,0,96,0)" />
    <clipPath
       id="clipPath4014">
      <path
         d="m 16.5,143.11764 c 0,68.61326 14.326888,124.2353 32,124.2353 17.673112,0 32,-55.62204 32,-124.2353 0,-68.613253 -14.326888,-124.235289 -32,-124.235289 -17.673112,0 -32,55.622036 -32,124.235289 z m 8,0 c 0,-51.459939 10.745166,-93.176465 24,-93.176465 13.254834,0 24,41.716526 24,93.176465 0,51.45995 -10.745166,93.17647 -24,93.17647 -13.254834,0 -24,-41.71652 -24,-93.17647 z"
         inkscape:connector-curvature="0"
         id="path51" />
    </clipPath>
    <clipPath
       id="clipPath5077">
      <path
         d="m 16.5,143.11764 c 0,68.61326 14.326888,124.2353 32,124.2353 17.673112,0 32,-55.62204 32,-124.2353 0,-68.613253 -14.326888,-124.235289 -32,-124.235289 -17.673112,0 -32,55.622036 -32,124.235289 z m 8,0 c 0,-51.459939 10.745166,-93.176465 24,-93.176465 13.254834,0 24,41.716526 24,93.176465 0,51.45995 -10.745166,93.17647 -24,93.17647 -13.254834,0 -24,-41.71652 -24,-93.17647 z"
         inkscape:connector-curvature="0"
         id="path5079" />
    </clipPath>
    <clipPath
       id="clipPath5081">
      <path
         d="m 16.5,143.11764 c 0,68.61326 14.326888,124.2353 32,124.2353 17.673112,0 32,-55.62204 32,-124.2353 0,-68.613253 -14.326888,-124.235289 -32,-124.235289 -17.673112,0 -32,55.622036 -32,124.235289 z m 8,0 c 0,-51.459939 10.745166,-93.176465 24,-93.176465 13.254834,0 24,41.716526 24,93.176465 0,51.45995 -10.745166,93.17647 -24,93.17647 -13.254834,0 -24,-41.71652 -24,-93.17647 z"
         inkscape:connector-curvature="0"
         id="path5083" />
    </clipPath>
    <clipPath
       id="clipPath5085">
      <path
         d="m 16.5,143.11764 c 0,68.61326 14.326888,124.2353 32,124.2353 17.673112,0 32,-55.62204 32,-124.2353 0,-68.613253 -14.326888,-124.235289 -32,-124.235289 -17.673112,0 -32,55.622036 -32,124.235289 z m 8,0 c 0,-51.459939 10.745166,-93.176465 24,-93.176465 13.254834,0 24,41.716526 24,93.176465 0,51.45995 -10.745166,93.17647 -24,93.17647 -13.254834,0 -24,-41.71652 -24,-93.17647 z"
         inkscape:connector-curvature="0"
         id="path5087" />
    </clipPath>
  </defs>
  <rect
     style="fill-opacity:0.02000002"
     rx="12.724"
     height="89.980003"
     width="89.620003"
     y="3.0099959"
     x="3.1899986"
     id="rect4864" />
  <rect
     style="fill-opacity:0.03900003"
     rx="12.552"
     height="88.760002"
     width="88.410004"
     y="3.6200423"
     x="3.7959988"
     id="rect4866" />
  <rect
     style="fill-opacity:0.078"
     rx="12.38"
     height="87.550003"
     width="87.199997"
     y="4.2300277"
     x="4.4009986"
     id="rect4868" />
  <rect
     style="fill-opacity:0.15700001"
     rx="12.208"
     height="86.330002"
     width="85.990997"
     y="4.840013"
     x="5.0069985"
     id="rect4870" />
  <path
     style="fill:url(#linearGradient5009);fill-opacity:1.0"
     inkscape:connector-curvature="0"
     d="m 17.5939,5.4262203 c -6.642,0 -11.969,5.3947997 -11.969,12.0629997 l 2e-4,61.031 c 0,6.668 5.3268,12.031 11.969,12.031 l 60.812,0 c 6.642,0 11.969,-5.363 11.969,-12.031 l 0,-61.031 c 0,-6.668 -5.327,-12.0629997 -11.969,-12.0629997 l -60.812,2e-4 z"
     id="path4872" />
  <path
     style="opacity:0.4;fill:black;fill-opacity:1"
     inkscape:connector-curvature="0"
     d="m 5.6125987,73.46002 0,5.0663 c 0,6.668 5.3434003,12.032 11.9850003,12.032 l 60.809,0 c 6.6418,0 11.985,-5.3645 11.985,-12.032 l 0,-5.0663 c 0,6.6681 -5.3434,12.032 -11.985,12.032 l -60.809,0 c -6.6418,0 -11.9850003,-5.3643 -11.9850003,-12.032 z"
     id="path4874" />
  <path
     style="fill-opacity:0.09800002"
     inkscape:connector-curvature="0"
     d="m 5.6125987,77.56002 0,1.0133 c 0,6.668 5.3434003,12.032 11.9850003,12.032 l 60.809,0 c 6.6418,0 11.985,-5.3645 11.985,-12.032 l 0,-1.0133 c 0,6.6681 -5.3434,12.032 -11.985,12.032 l -60.809,0 c -6.6418,0 -11.9850003,-5.3644 -11.9850003,-12.032 z"
     id="path4876" />
  <g
     id="g7085"
     transform="translate(118.37281,23.59322)">
    <path
       style="color:black;display:inline;visibility:visible;fill:url(#linearGradient4223);fill-opacity:1;fill-rule:nonzero;stroke:none;stroke-width:2"
       id="path6290"
       inkscape:connector-curvature="0"
       visibility="visible"
       display="inline"
       d="m -102.37288,21.338983 c 0,17.673112 14.326887,32 31.999999,32 17.673112,0 32,-14.326888 32,-32 0,-17.6731119 -14.326888,-32 -32,-32 -17.673112,0 -31.999999,14.3268881 -31.999999,32 z m 15.999999,0 c 0,-8.836556 7.163444,-15.9999999 16,-15.9999999 8.836556,0 16,7.1634439 16,15.9999999 0,8.836556 -7.163444,16 -16,16 -8.836556,0 -16,-7.163444 -16,-16 z" />
    <path
       style="color:black;display:inline;visibility:visible;opacity:0.35;fill:url(#linearGradient3857-3);fill-opacity:1;fill-rule:nonzero;stroke:none;stroke-width:2"
       id="path6292"
       inkscape:connector-curvature="0"
       visibility="visible"
       display="inline"
       d="m -103.37288,21.338983 c 0,18.21297 14.787029,33 32.999999,33 18.21297,0 33,-14.78703 33,-33 0,-18.2129699 -14.78703,-33 -33,-33 -18.21297,0 -32.999999,14.7870301 -32.999999,33 z m 1,0 c 0,-17.6731119 14.326887,-32 31.999999,-32 17.673112,0 32,14.3268881 32,32 0,17.673112 -14.326888,32 -32,32 -17.673112,0 -31.999999,-14.326888 -31.999999,-32 z m 15.999999,0 c 0,8.836556 7.163444,16 16,16 8.836556,0 16,-7.163444 16,-16 0,-8.836556 -7.163444,-15.9999999 -16,-15.9999999 -8.836556,0 -16,7.1634439 -16,15.9999999 z m 1,0 c 0,-8.296698 6.703302,-14.9999999 15,-14.9999999 8.296698,0 15,6.7033019 15,14.9999999 0,8.296698 -6.703302,15 -15,15 -8.296698,0 -15,-6.703302 -15,-15 z" />
    <path
       inkscape:connector-curvature="0"
       style="color:black;display:inline;visibility:visible;opacity:0.25;fill:url(#radialGradient3847-4);fill-opacity:1;fill-rule:nonzero;stroke:none;stroke-width:2"
       id="path6294"
       visibility="visible"
       display="inline"
       d="m -54.372881,21.338983 a 16,16 0 0 1 -32,0 16,16 0 1 1 32,0 z" />
    <path
       style="color:black;display:inline;visibility:visible;opacity:0.6;fill:white;fill-opacity:1;fill-rule:nonzero;stroke:none;stroke-width:2"
       id="path6296"
       inkscape:connector-curvature="0"
       visibility="visible"
       display="inline"
       d="m -70.372881,-10.661017 c -17.673112,0 -31.999999,14.3268881 -31.999999,32 0,0.166668 -0.003,0.333936 0,0.5 0.26671,-17.4429579 14.493555,-31.4999999 31.999999,-31.4999999 17.506444,0 31.733293,14.057042 32,31.4999999 0.0025,-0.166064 0,-0.333332 0,-0.5 0,-17.6731119 -14.326888,-32 -32,-32 z m -15.96875,32.5 c -0.0053,0.168703 -0.03125,0.330019 -0.03125,0.5 0,8.836556 7.163444,16 16,16 8.836556,0 16,-7.163444 16,-16 0,-0.169981 -0.02599,-0.331297 -0.03125,-0.5 -0.268299,8.601453 -7.302175,15.5 -15.96875,15.5 -8.666575,0 -15.700451,-6.898547 -15.96875,-15.5 z" />
    <path
       style="color:black;display:inline;visibility:visible;opacity:0.1;fill:black;fill-opacity:1;fill-rule:nonzero;stroke:none;stroke-width:2"
       id="path6298"
       inkscape:connector-curvature="0"
       visibility="visible"
       display="inline"
       d="m -70.372881,4.3389831 c -8.836556,0 -16,7.1634439 -16,15.9999999 0,0.169981 0.02599,0.331297 0.03125,0.5 0.268299,-8.601453 7.302175,-15.4999999 15.96875,-15.4999999 8.666575,0 15.700451,6.8985469 15.96875,15.4999999 0.0053,-0.168703 0.03125,-0.330019 0.03125,-0.5 0,-8.836556 -7.163444,-15.9999999 -16,-15.9999999 z M -102.37288,20.838983 c -0.003,0.166064 0,0.333332 0,0.5 0,17.673112 14.326887,32 31.999999,32 17.673112,0 32,-14.326888 32,-32 0,-0.166668 0.0025,-0.333936 0,-0.5 -0.266707,17.442958 -14.493556,31.5 -32,31.5 -17.506444,0 -31.733289,-14.057042 -31.999999,-31.5 z" />
    <path
       style="color:black;display:inline;visibility:visible;opacity:0.3;fill:white;fill-opacity:1;fill-rule:nonzero;stroke:none;stroke-width:2"
       id="path6300"
       inkscape:connector-curvature="0"
       visibility="visible"
       display="inline"
       d="m -70.372881,6.3389831 c -8.284271,0 -15,6.7157289 -15,14.9999999 0,0.169216 0.02569,0.332137 0.03125,0.5 0.266646,-8.050182 6.853695,-14.4999999 14.96875,-14.4999999 8.115055,0 14.702104,6.4498179 14.96875,14.4999999 0.0056,-0.167863 0.03125,-0.330784 0.03125,-0.5 0,-8.284271 -6.715729,-14.9999999 -15,-14.9999999 z" />
    <path
       style="color:black;display:inline;visibility:visible;opacity:0.3;fill:white;fill-opacity:1;fill-rule:nonzero;stroke:none;stroke-width:2"
       id="path6302"
       inkscape:connector-curvature="0"
       visibility="visible"
       display="inline"
       d="m -103.37288,20.838983 c -0.002,0.167161 0,0.332264 0,0.5 0,18.792408 14.774602,34.03125 32.999999,34.03125 18.225397,0 33,-15.238842 33,-34.03125 0,-0.167736 0.0023,-0.332839 0,-0.5 -0.2605,18.560799 -14.937278,33.53125 -33,33.53125 -18.062722,0 -32.739499,-14.970451 -32.999999,-33.53125 z" />
    <path
       style="color:black;display:inline;visibility:visible;fill:url(#linearGradient4111);fill-opacity:1;fill-rule:nonzero;stroke:none;stroke-width:2"
       id="path6304"
       inkscape:connector-curvature="0"
       visibility="visible"
       display="inline"
       d="m -46.372881,21.338983 c 0,-13.2548339 -10.745166,-23.9999999 -24,-23.9999999 -13.254834,0 -24,10.745166 -24,23.9999999 0,13.254834 10.745166,24 24,24 13.254834,0 24,-10.745166 24,-24 z m -8,0 c 0,8.836556 -7.163444,16 -16,16 -8.836556,0 -16,-7.163444 -16,-16 0,-8.836556 7.163444,-15.9999999 16,-15.9999999 8.836556,0 16,7.1634439 16,15.9999999 z" />
    <path
       style="color:black;display:inline;visibility:visible;opacity:0.12000002;fill:#eee;fill-opacity:1;fill-rule:nonzero;stroke:none;stroke-width:2"
       inkscape:connector-curvature="0"
       id="path6306"
       visibility="visible"
       display="inline"
       d="m -70.372881,-9.6610169 c -17.073447,0 -30.999999,13.926553 -30.999999,30.9999999 0,17.073447 13.926552,31 30.999999,31 17.073447,0 31,-13.926553 31,-31 0,-17.0734469 -13.926553,-30.9999999 -31,-30.9999999 z m 0,13 c 9.988507,0 18,8.0114929 18,17.9999999 0,9.988507 -8.011493,18 -18,18 -9.988507,0 -18,-8.011493 -18,-18 0,-9.988507 8.011493,-17.9999999 18,-17.9999999 z" />
    <path
       style="color:black;display:inline;visibility:visible;opacity:0.25;fill:#eee;fill-opacity:1;fill-rule:nonzero;stroke:none;stroke-width:2"
       inkscape:connector-curvature="0"
       id="path6308"
       visibility="visible"
       display="inline"
       d="m -70.372881,-8.6297669 c -16.528012,0 -29.968749,13.440738 -29.968749,29.9687499 0,16.528012 13.440737,29.96875 29.968749,29.96875 16.528012,0 29.96875,-13.440738 29.96875,-29.96875 0,-16.5280119 -13.440738,-29.9687499 -29.96875,-29.9687499 z m 0,10.9375 c 10.538603,0 19.03125,8.4926469 19.03125,19.0312499 0,10.538603 -8.492647,19.03125 -19.03125,19.03125 -10.538603,0 -19.03125,-8.492647 -19.03125,-19.03125 0,-10.538603 8.492647,-19.0312499 19.03125,-19.0312499 z" />
    <path
       style="color:black;display:inline;visibility:visible;opacity:0.4;fill:#eee;fill-opacity:1;fill-rule:nonzero;stroke:none;stroke-width:2"
       inkscape:connector-curvature="0"
       id="path6310"
       visibility="visible"
       display="inline"
       d="m -70.372881,-7.6297669 c -15.982345,0 -28.96875,12.986405 -28.96875,28.9687499 0,15.982345 12.986405,28.96875 28.96875,28.96875 15.982345,0 28.96875,-12.986405 28.96875,-28.96875 0,-15.9823449 -12.986405,-28.9687499 -28.96875,-28.9687499 z m 0,8.9375 c 11.081021,0 20.03125,8.9502289 20.03125,20.0312499 0,11.081021 -8.950229,20.03125 -20.03125,20.03125 -11.081021,0 -20.03125,-8.950229 -20.03125,-20.03125 0,-11.081021 8.950229,-20.0312499 20.03125,-20.0312499 z" />
    <path
       style="color:black;display:inline;visibility:visible;opacity:0.6;fill:#eee;fill-opacity:1;fill-rule:nonzero;stroke:none;stroke-width:2"
       inkscape:connector-curvature="0"
       id="path6312"
       visibility="visible"
       display="inline"
       d="m -70.372881,-6.7235169 c -15.489968,0 -28.0625,12.572532 -28.0625,28.0624999 0,15.489968 12.572532,28.0625 28.0625,28.0625 15.489968,0 28.0625,-12.572532 28.0625,-28.0625 0,-15.4899679 -12.572532,-28.0624999 -28.0625,-28.0624999 z m 0,7.12499995 c 11.571985,0 20.9375,9.36551505 20.9375,20.93749995 0,11.571985 -9.365515,20.9375 -20.9375,20.9375 -11.571985,0 -20.9375,-9.365515 -20.9375,-20.9375 0,-11.5719849 9.365515,-20.93749995 20.9375,-20.93749995 z" />
    <path
       style="color:black;display:inline;visibility:visible;fill:#eee;fill-opacity:1;fill-rule:nonzero;stroke:none;stroke-width:2"
       id="path6314"
       inkscape:connector-curvature="0"
       visibility="visible"
       display="inline"
       d="m -70.372881,-5.6610169 c -14.911688,0 -27,12.088312 -27,26.9999999 0,14.911688 12.088312,27 27,27 14.911688,0 27,-12.088312 27,-27 0,-14.9116879 -12.088312,-26.9999999 -27,-26.9999999 z m 0,4.99999995 c 12.150265,0 22,9.84973505 22,21.99999995 0,12.150265 -9.849735,22 -22,22 -12.150265,0 -22,-9.849735 -22,-22 0,-12.1502649 9.849735,-21.99999995 22,-21.99999995 z" />
    <path
       style="color:black;display:inline;visibility:visible;fill:#b3b3b3;fill-opacity:1;fill-rule:nonzero;stroke:none;stroke-width:2"
       id="path6316"
       inkscape:connector-curvature="0"
       visibility="visible"
       display="inline"
       d="m -51.372881,18.276483 0,3 0,3 2.5,-1.5 2.5,-1.5 -2.5,-1.5 -2.5,-1.5 z m 5,3 0,3 2.5,-1.5 2.5,-1.5 -2.5,-1.5 -2.5,-1.5 0,3 z m 5,0 0,3.0625 1,0 0,-6 -1,0 0,2.9375 z" />
    <path
       style="color:black;display:inline;visibility:visible;fill:#b3b3b3;fill-opacity:1;fill-rule:nonzero;stroke:none;stroke-width:2"
       id="path6318"
       inkscape:connector-curvature="0"
       visibility="visible"
       display="inline"
       d="m -89.372881,18.276483 0,3 0,3 -2.5,-1.5 -2.5,-1.5 2.5,-1.5 2.5,-1.5 z m -5,3 0,3 -2.5,-1.5 -2.5,-1.5 2.5,-1.5 2.5,-1.5 0,3 z m -5,0 0,3.0625 -0.999999,0 0,-6 0.999999,0 0,2.9375 z" />
    <rect
       style="color:black;display:inline;visibility:visible;fill:#b3b3b3;fill-opacity:1;fill-rule:nonzero;stroke:none;stroke-width:2"
       id="rect6320"
       width="8"
       visibility="visible"
       height="2"
       y="44.338982"
       display="inline"
       x="-74.372879" />
    <path
       style="color:black;display:inline;visibility:visible;fill:#b3b3b3;fill-opacity:1;fill-rule:nonzero;stroke:none;stroke-width:2"
       id="path6322"
       inkscape:connector-curvature="0"
       visibility="visible"
       display="inline"
       d="m -71.372881,-6.6610169 0,3 -3,0 0,2 3,0 0,3 2,0 0,-3 3,0 0,-2 -3,0 0,-3 -2,0 z" />
    <path
       style="color:black;display:inline;visibility:visible;fill:#f2f2f2;fill-opacity:1;fill-rule:nonzero;stroke:none;stroke-width:2"
       id="path6324"
       inkscape:connector-curvature="0"
       visibility="visible"
       display="inline"
       d="m -78.372881,17.338983 0,4 0,4 3.5,-2 3.5,-2 -3.5,-2 -3.5,-2 z m 10,0 0,8 2,0 0,-8 -2,0 z m 4,0 0,8 2,0 0,-8 -2,0 z" />
    <path
       style="color:black;display:inline;visibility:visible;opacity:0.2;fill:#f2f2f2;fill-opacity:1;fill-rule:nonzero;stroke:none;stroke-width:2"
       id="path6326"
       inkscape:connector-curvature="0"
       visibility="visible"
       display="inline"
       d="m -72.247881,21.838983 -2.625,1.5 -3.5,2 0,1 3.5,-2 3.5,-2 -0.875,-0.5 z m 3.875,3.5 0,1 2,0 0,-1 -2,0 z m 4,0 0,1 2,0 0,-1 -2,0 z" />
    <path
       style="color:black;display:inline;visibility:visible;opacity:0.1;fill:black;fill-opacity:1;fill-rule:nonzero;stroke:none;stroke-width:2"
       id="path6328"
       inkscape:connector-curvature="0"
       visibility="visible"
       display="inline"
       d="m -78.372881,16.338983 0,1 3.5,2 2.625,1.5 0.875,-0.5 -3.5,-2 -3.5,-2 z m 10,0 0,1 2,0 0,-1 -2,0 z m 4,0 0,1 2,0 0,-1 -2,0 z" />
  </g>
</svg>
