<svg height="96" width="96" xmlns="http://www.w3.org/2000/svg" xmlns:xlink="http://www.w3.org/1999/xlink" xmlns:sodipodi="http://sodipodi.sourceforge.net/DTD/sodipodi-0.dtd" xmlns:inkscape="http://www.inkscape.org/namespaces/inkscape">
 <defs>
  <linearGradient id="linearGradient4034">
   <stop stop-color="#ffffff" stop-opacity="1"/>
   <stop stop-color="#ffffff" stop-opacity="0" offset="1"/>
  </linearGradient>
  <linearGradient x2="0" xlink:href="#linearGradient4034" y1="6" y2="63.893" gradientUnits="userSpaceOnUse" id="linearGradient3188"/>
  <radialGradient cy="90.17" r="42" xlink:href="#linearGradient4034" gradientUnits="userSpaceOnUse" id="radialGradient3619" cx="48" gradientTransform="matrix(1.15731 0 0 0.99591 -7.551 0.197)"/>
  <linearGradient x2="0" y1="90" y2="5.988" gradientUnits="userSpaceOnUse" id="linearGradient3617">
   <stop stop-color="#141414" stop-opacity="1"/>
   <stop stop-color="#323232" stop-opacity="1" offset="1"/>
  </linearGradient>
  <linearGradient x2="0" y1="92.54" y2="7.02" gradientUnits="userSpaceOnUse" id="ButtonShadow-0" gradientTransform="matrix(1.0059 0 0 0.99417 100 0)">
   <stop stop-color="#000000" stop-opacity="1"/>
   <stop stop-color="#000000" stop-opacity="0.588" offset="1"/>
  </linearGradient>
  <linearGradient x2="0" xlink:href="#ButtonShadow-0" y1="6.132" y2="90.24" gradientUnits="userSpaceOnUse" id="linearGradient3780" gradientTransform="matrix(1.02381 0 0 1.0119 -1.143 -98.07)"/>
  <linearGradient x2="0" xlink:href="#ButtonShadow-0" y1="6.132" y2="90.24" gradientUnits="userSpaceOnUse" id="linearGradient3721" gradientTransform="matrix(1 0 0 1 0 -97)"/>
  <linearGradient x2="0" y1="90" y2="5.988" gradientUnits="userSpaceOnUse" id="linearGradient3963">
   <stop stop-color="#b4b4b4" stop-opacity="1"/>
   <stop stop-color="#dcdcdc" stop-opacity="1" offset="1"/>
  </linearGradient>
  <linearGradient x2="0" xlink:href="#linearGradient4034" y1="16.13" y2="69.69" gradientUnits="userSpaceOnUse" id="linearGradient2675" gradientTransform="matrix(1.16078 0 0 1.16078 -8.733 -6.718)"/>
  <linearGradient x2="0" xlink:href="#linearGradient4034" y1="16.13" y2="64.19" gradientUnits="userSpaceOnUse" id="linearGradient3104" gradientTransform="matrix(1.16078 0 0 1.16078 -101.6 -6.718)"/>
  <linearGradient x2="0" xlink:href="#linearGradient4034" y1="62" y2="75" gradientUnits="userSpaceOnUse" id="linearGradient4040"/>
  <linearGradient x1="18" x2="30" gradientUnits="userSpaceOnUse" id="linearGradient4048" gradientTransform="matrix(1 0 0 1 -96 -48)">
   <stop stop-color="#ff9800" stop-opacity="1"/>
   <stop stop-color="#ff4600" stop-opacity="1" offset="1"/>
  </linearGradient>
  <linearGradient x1="18" x2="30" gradientUnits="userSpaceOnUse" id="linearGradient4136" gradientTransform="matrix(1 0 0 1 -96 -48)">
   <stop stop-color="#008eca" stop-opacity="1"/>
   <stop stop-color="#35c3ff" stop-opacity="1" offset="1"/>
  </linearGradient>
  <linearGradient x1="18" x2="32" gradientUnits="userSpaceOnUse" id="linearGradient4156" gradientTransform="matrix(1 0 0 1 -96 -48)">
   <stop stop-color="#ffdb5b" stop-opacity="1"/>
   <stop stop-color="#26a4bc" stop-opacity="1" offset="1"/>
  </linearGradient>
  <linearGradient x1="18" x2="30" gradientUnits="userSpaceOnUse" id="linearGradient4176" gradientTransform="matrix(1 0 0 1 -96 -48)">
   <stop stop-color="#a535c0" stop-opacity="1"/>
   <stop stop-color="#732586" stop-opacity="1" offset="1"/>
  </linearGradient>
  <linearGradient x1="18" x2="30" gradientUnits="userSpaceOnUse" id="linearGradient4262" gradientTransform="matrix(1 0 0 1 -96 -48)">
   <stop stop-color="#cccccc" stop-opacity="1"/>
   <stop stop-color="#1a1a1a" stop-opacity="1" offset="1"/>
  </linearGradient>
  <linearGradient x1="18" x2="30" gradientUnits="userSpaceOnUse" id="linearGradient4266" gradientTransform="matrix(1 0 0 1 -96 -48)">
   <stop stop-color="#71c837" stop-opacity="1"/>
   <stop stop-color="#447821" stop-opacity="1" offset="1"/>
  </linearGradient>
  <linearGradient x1="18" x2="30" gradientUnits="userSpaceOnUse" id="linearGradient4270" gradientTransform="matrix(1 0 0 1 -96 -48)">
   <stop stop-color="#2a7fff" stop-opacity="1"/>
   <stop stop-color="#003380" stop-opacity="1" offset="1"/>
  </linearGradient>
  <linearGradient x1="18" x2="30" gradientUnits="userSpaceOnUse" id="linearGradient4346" gradientTransform="matrix(1 0 0 1 -96 -48)">
   <stop stop-color="#deaa87" stop-opacity="1"/>
   <stop stop-color="#784421" stop-opacity="1" offset="1"/>
  </linearGradient>
  <linearGradient x2="0" y1="72" y2="84" gradientUnits="userSpaceOnUse" id="linearGradient4401">
   <stop stop-color="#808080" stop-opacity="1"/>
   <stop stop-color="#808080" stop-opacity="0" offset="1"/>
  </linearGradient>
  <rect x="6" rx="6" y="6" fill="url(#linearGradient3617)" fill-opacity="1" stroke="none" fill-rule="nonzero" height="84" id="SVGCleanerId_0" width="84"/>
  <path d="m -77,16.96875 c -1.666716,0 -3.03125,1.364534 -3.03125,3.03125 l 0,8 c 0,1.666716 1.364534,3.03125 3.03125,3.03125 l 8,0 c 1.666716,0 3.03125,-1.364534 3.03125,-3.03125 l 0,-8 c 0,-1.666716 -1.364534,-3.03125 -3.03125,-3.03125 l -8,0 z" stroke-width="2" display="inline" fill="#000000" color="#000000" fill-opacity="1" stroke="none" id="SVGCleanerId_1" visibility="visible" opacity="0.25"/>
  <rect x="-79" stroke-width="2" rx="2" display="inline" y="18" fill="#000000" color="#000000" fill-opacity="1" stroke="none" height="12" id="SVGCleanerId_2" visibility="visible" opacity="0.5" width="12"/>
  <rect x="-78" stroke-width="2" rx="2" display="inline" y="18" color="#000000" fill-opacity="1" stroke="none" height="12" id="SVGCleanerId_3" visibility="visible" width="12"/>
  <path d="m 20,66 c -1.108,0 -2,0.892 -2,2 l 0,2.625 c 1.466595,0.841182 3.592841,1.375 6,1.375 2.407159,0 4.533405,-0.533818 6,-1.375 L 30,68 c 0,-1.108 -0.892,-2 -2,-2 l -8,0 z" stroke-width="2" display="inline" fill="url(#linearGradient4040)" color="#000000" fill-opacity="1" stroke="none" fill-rule="nonzero" id="SVGCleanerId_4" visibility="visible"/>
  <path d="m 23.4375,67.96875 c -0.431808,0 -0.8125,0.376623 -0.8125,0.8125 l 0,0.21875 c -0.04203,0.01818 -0.08448,0.04317 -0.125,0.0625 l -0.15625,-0.15625 c -0.317664,-0.317662 -0.841284,-0.315 -1.15625,0 l -0.78125,0.78125 c -0.314985,0.31498 -0.317638,0.838572 0,1.15625 L 20.5625,71 c -0.01933,0.04052 -0.04432,0.08297 -0.0625,0.125 l -0.21875,0 c -0.435877,0 -0.8125,0.380694 -0.8125,0.8125 l 0,1.125 c 0,0.431807 0.376621,0.8125 0.8125,0.8125 l 0.21875,0 c 0.01818,0.04203 0.04317,0.08448 0.0625,0.125 l -0.15625,0.15625 c -0.31766,0.317663 -0.315007,0.841285 0,1.15625 l 0.78125,0.78125 c 0.314978,0.314978 0.838572,0.317638 1.15625,0 L 22.5,75.9375 c 0.04052,0.01933 0.08297,0.04432 0.125,0.0625 l 0,0.21875 c 0,0.435877 0.380694,0.8125 0.8125,0.8125 l 1.125,0 c 0.431807,0 0.8125,-0.376621 0.8125,-0.8125 L 25.375,76 c 0.04203,-0.01818 0.08448,-0.04317 0.125,-0.0625 l 0.15625,0.15625 c 0.317665,0.317665 0.841282,0.315008 1.15625,0 l 0.78125,-0.78125 c 0.314974,-0.314977 0.317637,-0.838574 0,-1.15625 L 27.4375,74 c 0.01933,-0.04052 0.04432,-0.08297 0.0625,-0.125 l 0.21875,0 c 0.43588,0 0.8125,-0.380695 0.8125,-0.8125 l 0,-1.125 c 0,-0.431806 -0.376623,-0.8125 -0.8125,-0.8125 l -0.21875,0 C 27.481822,71.082969 27.45683,71.04052 27.4375,71 l 0.15625,-0.15625 c 0.103626,-0.103626 0.247896,-0.313883 0.25,-0.5625 0.0023,-0.265408 -0.07854,-0.422307 -0.25,-0.59375 L 26.8125,68.90625 c -0.314977,-0.314974 -0.838574,-0.317637 -1.15625,0 L 25.5,69.0625 C 25.459484,69.043172 25.417029,69.018179 25.375,69 l 0,-0.21875 c -3e-6,-0.435873 -0.380692,-0.8125 -0.8125,-0.8125 l -1.125,0 z M 24,71.8125 c 0.373104,0 0.6875,0.314397 0.6875,0.6875 0,0.373107 -0.314394,0.6875 -0.6875,0.6875 -0.373105,0 -0.6875,-0.314394 -0.6875,-0.6875 0,-0.373102 0.314397,-0.6875 0.6875,-0.6875 z" stroke-width="1" display="block" fill="#000000" fill-opacity="1" stroke="none" fill-rule="nonzero" id="SVGCleanerId_5" opacity="0.15" visibility="visible"/>
  <path d="m 27.999967,71.947622 c 0,-0.15742 -0.130588,-0.284886 -0.290698,-0.284886 l -0.563953,0 c -0.07499,-0.281476 -0.188277,-0.550428 -0.331396,-0.79651 l 0.401163,-0.401163 c 0.05661,-0.05661 0.08659,-0.124418 0.08721,-0.197675 6.26e-4,-0.07326 -0.02574,-0.147831 -0.0814,-0.203487 l -0.784884,-0.784884 c -0.111313,-0.111312 -0.287948,-0.107401 -0.401163,0.0058 l -0.401163,0.401163 c -0.246076,-0.143078 -0.515028,-0.256357 -0.796506,-0.331356 l 0,-0.563953 c -1e-6,-0.160109 -0.127465,-0.290697 -0.284885,-0.290697 l -1.104651,0 c -0.15742,0 -0.284883,0.130588 -0.284883,0.290697 l 0,0.563953 c -0.281478,0.075 -0.550431,0.188278 -0.796512,0.331397 l -0.401163,-0.401164 c -0.113215,-0.113214 -0.28985,-0.117125 -0.401163,-0.0058 l -0.784883,0.784884 c -0.111313,0.111311 -0.107401,0.287947 0.0058,0.401162 l 0.401137,0.401163 c -0.143119,0.246082 -0.2564,0.515034 -0.331396,0.79651 l -0.563953,0 c -0.16011,0 -0.290698,0.127466 -0.290698,0.284886 l 0,1.10465 c 0,0.157419 0.130588,0.284884 0.290698,0.284884 l 0.563953,0 c 0.075,0.281477 0.188277,0.550428 0.331396,0.796511 l -0.401163,0.401163 c -0.113215,0.113216 -0.117127,0.289851 -0.0058,0.401163 l 0.784883,0.784883 c 0.111312,0.111312 0.287948,0.107401 0.401163,-0.0058 l 0.401162,-0.401162 c 0.246082,0.143119 0.515035,0.256398 0.796512,0.331395 l 0,0.563953 c 0,0.16011 0.127464,0.290698 0.284884,0.290698 l 1.104651,0 c 0.157419,0 0.284884,-0.130588 0.284884,-0.290698 l 0,-0.563953 c 0.281477,-0.07499 0.550429,-0.188276 0.796511,-0.331395 l 0.401163,0.401163 c 0.113214,0.113214 0.28985,0.117126 0.401162,0.0058 l 0.784885,-0.784884 c 0.111312,-0.111313 0.107401,-0.287948 -0.0058,-0.401163 l -0.401163,-0.401163 c 0.143119,-0.246083 0.2564,-0.515034 0.331395,-0.796511 l 0.563953,0 c 0.160111,0 0.290697,-0.127465 0.290697,-0.284883 l 0,-1.104652 z m -2.790697,0.552324 c 0,0.667536 -0.541768,1.209304 -1.209303,1.209304 -0.667534,0 -1.209302,-0.541768 -1.209302,-1.209304 0,-0.667533 0.541768,-1.209302 1.209302,-1.209302 0.667535,0 1.209303,0.541769 1.209303,1.209302 z" stroke-width="1" display="block" fill="#000000" fill-opacity="1" stroke="none" fill-rule="nonzero" id="SVGCleanerId_6" opacity="0.3" visibility="visible"/>
  <path d="m 27.999967,71.447668 c 0,-0.15742 -0.130588,-0.284886 -0.290698,-0.284886 l -0.563953,0 c -0.07499,-0.281476 -0.188277,-0.550428 -0.331396,-0.79651 l 0.401163,-0.401163 c 0.05661,-0.05661 0.08659,-0.124418 0.08721,-0.197675 6.26e-4,-0.07326 -0.02574,-0.147831 -0.0814,-0.203487 l -0.784884,-0.784884 c -0.111313,-0.111312 -0.287948,-0.107401 -0.401163,0.0058 l -0.401163,0.401163 C 25.387607,69.042948 25.118655,68.929669 24.837177,68.85467 l 0,-0.563953 c -1e-6,-0.160109 -0.127465,-0.290697 -0.284885,-0.290697 l -1.104651,0 c -0.15742,0 -0.284883,0.130588 -0.284883,0.290697 l 0,0.563953 c -0.281478,0.075 -0.550431,0.188278 -0.796512,0.331397 l -0.401163,-0.401164 c -0.113215,-0.113214 -0.28985,-0.117125 -0.401163,-0.0058 l -0.784883,0.784884 c -0.111313,0.111311 -0.107401,0.287947 0.0058,0.401162 l 0.401137,0.401163 c -0.143119,0.246082 -0.2564,0.515034 -0.331396,0.79651 l -0.563953,0 c -0.16011,0 -0.290698,0.127466 -0.290698,0.284886 l 0,1.10465 c 0,0.157419 0.130588,0.284884 0.290698,0.284884 l 0.563953,0 c 0.075,0.281477 0.188277,0.550428 0.331396,0.796511 l -0.401163,0.401163 c -0.113215,0.113216 -0.117127,0.289851 -0.0058,0.401163 l 0.784883,0.784883 c 0.111312,0.111312 0.287948,0.107401 0.401163,-0.0058 L 22.366219,74.814 c 0.246082,0.143119 0.515035,0.256398 0.796512,0.331395 l 0,0.563953 c 0,0.16011 0.127464,0.290698 0.284884,0.290698 l 1.104651,0 c 0.157419,0 0.284884,-0.130588 0.284884,-0.290698 l 0,-0.563953 c 0.281477,-0.07499 0.550429,-0.188276 0.796511,-0.331395 l 0.401163,0.401163 c 0.113214,0.113214 0.28985,0.117126 0.401162,0.0058 l 0.784885,-0.784884 c 0.111312,-0.111313 0.107401,-0.287948 -0.0058,-0.401163 l -0.401163,-0.401163 c 0.143119,-0.246083 0.2564,-0.515034 0.331395,-0.796511 l 0.563953,0 c 0.160111,0 0.290697,-0.127465 0.290697,-0.284883 l 0,-1.104652 z m -2.790697,0.552324 c 0,0.667536 -0.541768,1.209304 -1.209303,1.209304 -0.667534,0 -1.209302,-0.541768 -1.209302,-1.209304 0,-0.667533 0.541768,-1.209302 1.209302,-1.209302 0.667535,0 1.209303,0.541769 1.209303,1.209302 z" stroke-width="1" display="block" fill-opacity="1" stroke="none" fill-rule="nonzero" id="SVGCleanerId_7" visibility="visible"/>
 </defs>
 <path d="m 12,-95.03125 c -5.5110903,0 -10.03125,4.52016 -10.03125,10.03125 l 0,71 c 0,5.5110902 4.5201598,10.03125 10.03125,10.03125 l 72,0 c 5.51109,0 10.03125,-4.5201597 10.03125,-10.03125 l 0,-71 c 0,-5.51109 -4.52016,-10.03125 -10.03125,-10.03125 l -72,0 z" display="inline" fill="url(#linearGradient3780)" fill-opacity="1" fill-rule="nonzero" stroke="none" opacity="0.08" transform="matrix(1 0 0 -1 0 0)"/>
 <path d="m 12,-94.03125 c -4.971633,0 -9.03125,4.059617 -9.03125,9.03125 l 0,71 c 0,4.9716329 4.0596171,9.03125 9.03125,9.03125 l 72,0 c 4.971633,0 9.03125,-4.059617 9.03125,-9.03125 l 0,-71 c 0,-4.971633 -4.059617,-9.03125 -9.03125,-9.03125 l -72,0 z" display="inline" fill="url(#linearGradient3780)" fill-opacity="1" fill-rule="nonzero" stroke="none" opacity="0.1" transform="matrix(1 0 0 -1 0 0)"/>
 <path d="m 12,-93 c -4.4091333,0 -8,3.590867 -8,8 l 0,71 c 0,4.4091333 3.5908667,8 8,8 l 72,0 c 4.409133,0 8,-3.5908667 8,-8 l 0,-71 c 0,-4.409133 -3.590867,-8 -8,-8 l -72,0 z" display="inline" fill="url(#linearGradient3780)" fill-opacity="1" fill-rule="nonzero" stroke="none" opacity="0.2" transform="matrix(1 0 0 -1 0 0)"/>
 <rect x="5" rx="7" display="inline" y="-92" fill="url(#linearGradient3780)" fill-opacity="1" fill-rule="nonzero" stroke="none" height="85" opacity="0.3" width="86" transform="matrix(1 0 0 -1 0 0)"/>
 <rect x="6" rx="6" display="inline" y="-91" fill="url(#linearGradient3721)" fill-opacity="1" fill-rule="nonzero" stroke="none" height="84" opacity="0.45" width="84" transform="matrix(1 0 0 -1 0 0)"/>
 <use xlink:href="#SVGCleanerId_0"/>
 <path d="m 12,10 c -1.202502,0 -2,0.797498 -2,2 l 0,72 c 0,1.202502 0.797498,2 2,2 l 72,0 c 1.2025,0 2,-0.797498 2,-2 l 0,-72 c 0,-1.202502 -0.7975,-2 -2,-2 l -72,0 z" stroke-width="2" fill="none" stroke="#000000" stroke-dasharray="none" opacity="0.4" stroke-miterlimit="4" inkscape:connector-curvature="0"/>
 <path d="M 12,6 C 8.676,6 6,8.676 6,12 l 0,72 c 0,3.324 2.676,6 6,6 l 72,0 c 3.324,0 6,-2.676 6,-6 L 90,12 C 90,8.676 87.324,6 84,6 L 12,6 z m 0,4 72,0 c 1.202502,0 2,0.797498 2,2 l 0,72 c 0,1.202502 -0.797498,2 -2,2 l -72,0 c -1.202502,0 -2,-0.797498 -2,-2 l 0,-72 c 0,-1.202502 0.797498,-2 2,-2 z" fill="url(#linearGradient3963)" fill-opacity="1" fill-rule="nonzero" stroke="none" inkscape:connector-curvature="0"/>
 <path d="M 12,6 C 8.676,6 6,8.676 6,12 l 0,2 0,68 0,2 c 0,0.334721 0.04135,0.6507 0.09375,0.96875 0.0487,0.295596 0.09704,0.596915 0.1875,0.875 0.00988,0.03038 0.020892,0.0636 0.03125,0.09375 0.098865,0.287771 0.2348802,0.547452 0.375,0.8125 0.1445918,0.273507 0.3156161,0.535615 0.5,0.78125 0.1843839,0.245635 0.3737765,0.473472 0.59375,0.6875 0.439947,0.428056 0.94291,0.814526 1.5,1.09375 0.278545,0.139612 0.5734731,0.246947 0.875,0.34375 -0.2562018,-0.100222 -0.4867109,-0.236272 -0.71875,-0.375 -0.00741,-0.0044 -0.023866,0.0045 -0.03125,0 -0.031933,-0.0193 -0.062293,-0.04251 -0.09375,-0.0625 -0.120395,-0.0767 -0.2310226,-0.163513 -0.34375,-0.25 -0.1061728,-0.0808 -0.2132809,-0.161112 -0.3125,-0.25 C 8.4783201,88.557317 8.3087904,88.373362 8.15625,88.1875 8.0486711,88.057245 7.9378561,87.922215 7.84375,87.78125 7.818661,87.74287 7.805304,87.69538 7.78125,87.65625 7.716487,87.553218 7.6510225,87.451733 7.59375,87.34375 7.4927417,87.149044 7.3880752,86.928049 7.3125,86.71875 7.30454,86.69694 7.288911,86.6782 7.28125,86.65625 7.2494249,86.5643 7.2454455,86.469419 7.21875,86.375 7.1884177,86.268382 7.1483606,86.171969 7.125,86.0625 7.0521214,85.720988 7,85.364295 7,85 L 7,83 7,15 7,13 C 7,10.218152 9.2181517,8 12,8 l 2,0 68,0 2,0 c 2.781848,0 5,2.218152 5,5 l 0,2 0,68 0,2 c 0,0.364295 -0.05212,0.720988 -0.125,1.0625 -0.04415,0.206893 -0.08838,0.397658 -0.15625,0.59375 -0.0077,0.02195 -0.0233,0.04069 -0.03125,0.0625 -0.06274,0.173739 -0.138383,0.367449 -0.21875,0.53125 -0.04158,0.0828 -0.07904,0.169954 -0.125,0.25 -0.0546,0.09721 -0.126774,0.18835 -0.1875,0.28125 -0.09411,0.140965 -0.204921,0.275995 -0.3125,0.40625 -0.143174,0.17445 -0.303141,0.346998 -0.46875,0.5 -0.01117,0.0102 -0.01998,0.02115 -0.03125,0.03125 -0.138386,0.125556 -0.285091,0.234436 -0.4375,0.34375 -0.102571,0.07315 -0.204318,0.153364 -0.3125,0.21875 -0.0074,0.0045 -0.02384,-0.0044 -0.03125,0 -0.232039,0.138728 -0.462548,0.274778 -0.71875,0.375 0.301527,-0.0968 0.596455,-0.204138 0.875,-0.34375 0.55709,-0.279224 1.060053,-0.665694 1.5,-1.09375 0.219973,-0.214028 0.409366,-0.441865 0.59375,-0.6875 0.184384,-0.245635 0.355408,-0.507743 0.5,-0.78125 0.14012,-0.265048 0.276135,-0.524729 0.375,-0.8125 0.01041,-0.03078 0.02133,-0.06274 0.03125,-0.09375 0.09046,-0.278085 0.1388,-0.579404 0.1875,-0.875 C 89.95865,84.6507 90,84.334721 90,84 l 0,-2 0,-68 0,-2 C 90,8.676 87.324,6 84,6 L 12,6 z" fill="url(#linearGradient3188)" fill-opacity="1" fill-rule="nonzero" stroke="none" opacity="0.5" inkscape:connector-curvature="0"/>
 <path d="M 12,90 C 8.676,90 6,87.324 6,84 L 6,82 6,14 6,12 c 0,-0.334721 0.04135,-0.6507 0.09375,-0.96875 0.0487,-0.295596 0.09704,-0.596915 0.1875,-0.875 C 6.29113,10.12587 6.302142,10.09265 6.3125,10.0625 6.411365,9.774729 6.5473802,9.515048 6.6875,9.25 6.8320918,8.976493 7.0031161,8.714385 7.1875,8.46875 7.3718839,8.223115 7.5612765,7.995278 7.78125,7.78125 8.221197,7.353194 8.72416,6.966724 9.28125,6.6875 9.559795,6.547888 9.8547231,6.440553 10.15625,6.34375 9.9000482,6.443972 9.6695391,6.580022 9.4375,6.71875 c -0.00741,0.0044 -0.023866,-0.0045 -0.03125,0 -0.031933,0.0193 -0.062293,0.04251 -0.09375,0.0625 -0.120395,0.0767 -0.2310226,0.163513 -0.34375,0.25 -0.1061728,0.0808 -0.2132809,0.161112 -0.3125,0.25 C 8.4783201,7.442683 8.3087904,7.626638 8.15625,7.8125 8.0486711,7.942755 7.9378561,8.077785 7.84375,8.21875 7.818661,8.25713 7.805304,8.30462 7.78125,8.34375 7.716487,8.446782 7.6510225,8.548267 7.59375,8.65625 7.4927417,8.850956 7.3880752,9.071951 7.3125,9.28125 7.30454,9.30306 7.288911,9.3218 7.28125,9.34375 7.2494249,9.4357 7.2454455,9.530581 7.21875,9.625 7.1884177,9.731618 7.1483606,9.828031 7.125,9.9375 7.0521214,10.279012 7,10.635705 7,11 l 0,2 0,68 0,2 c 0,2.781848 2.2181517,5 5,5 l 2,0 68,0 2,0 c 2.781848,0 5,-2.218152 5,-5 l 0,-2 0,-68 0,-2 C 89,10.635705 88.94788,10.279012 88.875,9.9375 88.83085,9.730607 88.78662,9.539842 88.71875,9.34375 88.71105,9.3218 88.69545,9.30306 88.6875,9.28125 88.62476,9.107511 88.549117,8.913801 88.46875,8.75 88.42717,8.6672 88.38971,8.580046 88.34375,8.5 88.28915,8.40279 88.216976,8.31165 88.15625,8.21875 88.06214,8.077785 87.951329,7.942755 87.84375,7.8125 87.700576,7.63805 87.540609,7.465502 87.375,7.3125 87.36383,7.3023 87.35502,7.29135 87.34375,7.28125 87.205364,7.155694 87.058659,7.046814 86.90625,6.9375 86.803679,6.86435 86.701932,6.784136 86.59375,6.71875 c -0.0074,-0.0045 -0.02384,0.0044 -0.03125,0 -0.232039,-0.138728 -0.462548,-0.274778 -0.71875,-0.375 0.301527,0.0968 0.596455,0.204138 0.875,0.34375 0.55709,0.279224 1.060053,0.665694 1.5,1.09375 0.219973,0.214028 0.409366,0.441865 0.59375,0.6875 0.184384,0.245635 0.355408,0.507743 0.5,0.78125 0.14012,0.265048 0.276135,0.524729 0.375,0.8125 0.01041,0.03078 0.02133,0.06274 0.03125,0.09375 0.09046,0.278085 0.1388,0.579404 0.1875,0.875 C 89.95865,11.3493 90,11.665279 90,12 l 0,2 0,68 0,2 c 0,3.324 -2.676,6 -6,6 l -72,0 z" fill="url(#radialGradient3619)" fill-opacity="1" fill-rule="nonzero" stroke="none" opacity="0.4" inkscape:connector-curvature="0"/>
 <path d="m 14,72 0,8 c 0,1.108 0.892,2 2,2 l 64,0 c 1.108,0 2,-0.892 2,-2 l 0,-8 -68,0 z" stroke-width="2" display="inline" fill="url(#linearGradient4401)" color="#000000" fill-opacity="1" fill-rule="nonzero" stroke="none" opacity="0.8" visibility="visible" inkscape:connector-curvature="0"/>
 <use xlink:href="#SVGCleanerId_1" transform="matrix(0 -1 1 0 0 0)"/>
 <use xlink:href="#SVGCleanerId_2" transform="matrix(0 -1 1 0 0 0)"/>
 <use xlink:href="#SVGCleanerId_3" fill="url(#linearGradient4048)" transform="matrix(0 -1 1 0 0 0)"/>
 <use xlink:href="#SVGCleanerId_4" inkscape:connector-curvature="0"/>
 <use xlink:href="#SVGCleanerId_5"/>
 <use xlink:href="#SVGCleanerId_6" inkscape:connector-curvature="0"/>
 <use xlink:href="#SVGCleanerId_7" fill="#ffffff" inkscape:connector-curvature="0"/>
 <g transform="matrix(1 0 0 1 16 0)">
  <use xlink:href="#SVGCleanerId_1" transform="matrix(0 -1 1 0 0 0)"/>
  <use xlink:href="#SVGCleanerId_2" transform="matrix(0 -1 1 0 0 0)"/>
  <use xlink:href="#SVGCleanerId_3" fill="url(#linearGradient4136)" transform="matrix(0 -1 1 0 0 0)"/>
  <use xlink:href="#SVGCleanerId_4" inkscape:connector-curvature="0"/>
  <use xlink:href="#SVGCleanerId_5"/>
  <use xlink:href="#SVGCleanerId_6" inkscape:connector-curvature="0"/>
  <use xlink:href="#SVGCleanerId_7" fill="#ffffff" inkscape:connector-curvature="0"/>
 </g>
 <g transform="matrix(1 0 0 1 32 0)">
  <use xlink:href="#SVGCleanerId_1" transform="matrix(0 -1 1 0 0 0)"/>
  <use xlink:href="#SVGCleanerId_2" transform="matrix(0 -1 1 0 0 0)"/>
  <use xlink:href="#SVGCleanerId_3" fill="url(#linearGradient4156)" transform="matrix(0 -1 1 0 0 0)"/>
  <use xlink:href="#SVGCleanerId_4" inkscape:connector-curvature="0"/>
  <use xlink:href="#SVGCleanerId_5"/>
  <use xlink:href="#SVGCleanerId_6" inkscape:connector-curvature="0"/>
  <use xlink:href="#SVGCleanerId_7" fill="#ffffff" inkscape:connector-curvature="0"/>
 </g>
 <g transform="matrix(1 0 0 1 48 0)">
  <use xlink:href="#SVGCleanerId_1" transform="matrix(0 -1 1 0 0 0)"/>
  <use xlink:href="#SVGCleanerId_2" transform="matrix(0 -1 1 0 0 0)"/>
  <use xlink:href="#SVGCleanerId_3" fill="url(#linearGradient4176)" transform="matrix(0 -1 1 0 0 0)"/>
  <use xlink:href="#SVGCleanerId_4" inkscape:connector-curvature="0"/>
  <use xlink:href="#SVGCleanerId_5"/>
  <use xlink:href="#SVGCleanerId_6" inkscape:connector-curvature="0"/>
  <use xlink:href="#SVGCleanerId_7" fill="#ffffff" inkscape:connector-curvature="0"/>
 </g>
 <g transform="matrix(1 0 0 1 0 -48)">
  <use xlink:href="#SVGCleanerId_1" transform="matrix(0 -1 1 0 0 0)"/>
  <use xlink:href="#SVGCleanerId_2" transform="matrix(0 -1 1 0 0 0)"/>
  <use xlink:href="#SVGCleanerId_3" fill="url(#linearGradient4262)" transform="matrix(0 -1 1 0 0 0)"/>
  <use xlink:href="#SVGCleanerId_4" inkscape:connector-curvature="0"/>
  <use xlink:href="#SVGCleanerId_5"/>
  <use xlink:href="#SVGCleanerId_6" inkscape:connector-curvature="0"/>
  <use xlink:href="#SVGCleanerId_7" fill="#ececec" inkscape:connector-curvature="0"/>
 </g>
 <g transform="matrix(1 0 0 1 16 -48)">
  <use xlink:href="#SVGCleanerId_1" transform="matrix(0 -1 1 0 0 0)"/>
  <use xlink:href="#SVGCleanerId_2" transform="matrix(0 -1 1 0 0 0)"/>
  <use xlink:href="#SVGCleanerId_3" fill="url(#linearGradient4266)" transform="matrix(0 -1 1 0 0 0)"/>
  <use xlink:href="#SVGCleanerId_4" inkscape:connector-curvature="0"/>
  <use xlink:href="#SVGCleanerId_5"/>
  <use xlink:href="#SVGCleanerId_6" inkscape:connector-curvature="0"/>
  <use xlink:href="#SVGCleanerId_7" fill="#ffffff" inkscape:connector-curvature="0"/>
 </g>
 <g transform="matrix(1 0 0 1 32 -48)">
  <use xlink:href="#SVGCleanerId_1" transform="matrix(0 -1 1 0 0 0)"/>
  <use xlink:href="#SVGCleanerId_2" transform="matrix(0 -1 1 0 0 0)"/>
  <use xlink:href="#SVGCleanerId_3" fill="url(#linearGradient4270)" transform="matrix(0 -1 1 0 0 0)"/>
  <use xlink:href="#SVGCleanerId_4" inkscape:connector-curvature="0"/>
  <use xlink:href="#SVGCleanerId_5"/>
  <use xlink:href="#SVGCleanerId_6" inkscape:connector-curvature="0"/>
  <use xlink:href="#SVGCleanerId_7" fill="#ffffff" inkscape:connector-curvature="0"/>
 </g>
 <g transform="matrix(1 0 0 1 48 -48)">
  <use xlink:href="#SVGCleanerId_1" transform="matrix(0 -1 1 0 0 0)"/>
  <use xlink:href="#SVGCleanerId_2" transform="matrix(0 -1 1 0 0 0)"/>
  <use xlink:href="#SVGCleanerId_3" fill="url(#linearGradient4048)" transform="matrix(0 -1 1 0 0 0)"/>
  <use xlink:href="#SVGCleanerId_4" inkscape:connector-curvature="0"/>
  <use xlink:href="#SVGCleanerId_5"/>
  <use xlink:href="#SVGCleanerId_6" inkscape:connector-curvature="0"/>
  <use xlink:href="#SVGCleanerId_7" fill="#aa4400" inkscape:connector-curvature="0"/>
 </g>
 <g transform="matrix(1 0 0 1 0 -32)">
  <use xlink:href="#SVGCleanerId_1" transform="matrix(0 -1 1 0 0 0)"/>
  <use xlink:href="#SVGCleanerId_2" transform="matrix(0 -1 1 0 0 0)"/>
  <use xlink:href="#SVGCleanerId_3" fill="url(#linearGradient4136)" transform="matrix(0 -1 1 0 0 0)"/>
  <use xlink:href="#SVGCleanerId_4" inkscape:connector-curvature="0"/>
  <use xlink:href="#SVGCleanerId_5"/>
  <use xlink:href="#SVGCleanerId_6" inkscape:connector-curvature="0"/>
  <use xlink:href="#SVGCleanerId_7" fill="#ffffff" inkscape:connector-curvature="0"/>
 </g>
 <g transform="matrix(1 0 0 1 16 -32)">
  <use xlink:href="#SVGCleanerId_1" transform="matrix(0 -1 1 0 0 0)"/>
  <use xlink:href="#SVGCleanerId_2" transform="matrix(0 -1 1 0 0 0)"/>
  <use xlink:href="#SVGCleanerId_3" fill="url(#linearGradient4346)" transform="matrix(0 -1 1 0 0 0)"/>
  <use xlink:href="#SVGCleanerId_4" inkscape:connector-curvature="0"/>
  <use xlink:href="#SVGCleanerId_5"/>
  <use xlink:href="#SVGCleanerId_6" inkscape:connector-curvature="0"/>
  <use xlink:href="#SVGCleanerId_7" fill="#a0501c" inkscape:connector-curvature="0"/>
 </g>
 <g transform="matrix(1 0 0 1 32 -32)">
  <use xlink:href="#SVGCleanerId_1" transform="matrix(0 -1 1 0 0 0)"/>
  <use xlink:href="#SVGCleanerId_2" transform="matrix(0 -1 1 0 0 0)"/>
  <use xlink:href="#SVGCleanerId_3" fill="url(#linearGradient4262)" transform="matrix(0 -1 1 0 0 0)"/>
  <use xlink:href="#SVGCleanerId_4" inkscape:connector-curvature="0"/>
  <use xlink:href="#SVGCleanerId_5"/>
  <use xlink:href="#SVGCleanerId_6" inkscape:connector-curvature="0"/>
  <use xlink:href="#SVGCleanerId_7" fill="#ffffff" inkscape:connector-curvature="0"/>
 </g>
 <g display="inline">
  <path d="m 46.5853,12 25.57353,74 10.809803,0 c 0.625437,0 1.015687,-0.390252 1.015687,-1.015686 l 0,-71.968628 C 83.98432,12.39025 83.594071,12 82.968633,12 L 46.5853,12 z" fill="url(#linearGradient3104)" fill-opacity="1" fill-rule="evenodd" stroke="none" opacity="0.6" inkscape:connector-curvature="0"/>
  <path d="M 46.5853,12 72.15883,86 73.319614,86 47.746085,12 46.5853,12 z" fill="url(#linearGradient2675)" fill-opacity="1" fill-rule="evenodd" stroke="none" opacity="0.4" inkscape:connector-curvature="0"/>
 </g>
</svg>
