<?xml version="1.0" encoding="UTF-8" standalone="no"?>
<svg
   xmlns:dc="http://purl.org/dc/elements/1.1/"
   xmlns:cc="http://creativecommons.org/ns#"
   xmlns:rdf="http://www.w3.org/1999/02/22-rdf-syntax-ns#"
   xmlns:svg="http://www.w3.org/2000/svg"
   xmlns="http://www.w3.org/2000/svg"
   xmlns:xlink="http://www.w3.org/1999/xlink"
   xmlns:sodipodi="http://sodipodi.sourceforge.net/DTD/sodipodi-0.dtd"
   xmlns:inkscape="http://www.inkscape.org/namespaces/inkscape"
   display="inline"
   height="96"
   width="96"
   id="svg2"
   version="1.1"
   inkscape:version="0.91 r13725"
   sodipodi:docname="network-wireless.svg">
  <metadata
     id="metadata128">
    <rdf:RDF>
      <cc:Work
         rdf:about="">
        <dc:format>image/svg+xml</dc:format>
        <dc:type
           rdf:resource="http://purl.org/dc/dcmitype/StillImage" />
      </cc:Work>
    </rdf:RDF>
  </metadata>
  <sodipodi:namedview
     pagecolor="#ffffff"
     bordercolor="#666666"
     borderopacity="1"
     objecttolerance="10"
     gridtolerance="10"
     guidetolerance="10"
     inkscape:pageopacity="0"
     inkscape:pageshadow="2"
     inkscape:window-width="640"
     inkscape:window-height="480"
     id="namedview126"
     showgrid="false"
     inkscape:zoom="1.7383042"
     inkscape:cx="-6.1814929"
     inkscape:cy="24.157869"
     inkscape:current-layer="svg2" />
  <defs
     id="defs4">
    <linearGradient
       id="linearGradient3741">
      <stop
         stop-color="#5f5f5f"
         stop-opacity="1"
         id="stop7" />
      <stop
         stop-color="#3c3c3c"
         stop-opacity="1"
         offset="0.411"
         id="stop9" />
      <stop
         stop-color="#252525"
         stop-opacity="1"
         offset="1"
         id="stop11" />
    </linearGradient>
    <linearGradient
       id="linearGradient3737">
      <stop
         stop-color="#ffffff"
         stop-opacity="1"
         id="stop14" />
      <stop
         stop-color="#ffffff"
         stop-opacity="0"
         offset="1"
         id="stop16" />
    </linearGradient>
    <linearGradient
       x2="0"
       xlink:href="#linearGradient3737"
       y1="6"
       y2="63.893"
       gradientUnits="userSpaceOnUse"
       id="linearGradient3188"
       gradientTransform="translate(-144.81356,-5.6949153)" />
    <radialGradient
       cy="90.17"
       r="42"
       xlink:href="#linearGradient3737"
       gradientUnits="userSpaceOnUse"
       id="radialGradient3619"
       cx="48"
       gradientTransform="matrix(1.15731,0,0,0.99591,-152.36456,-5.4979153)" />
    <linearGradient
       x2="0"
       y1="90"
       y2="5.988"
       gradientUnits="userSpaceOnUse"
       id="linearGradient3617">
      <stop
         stop-color="#bed6f2"
         stop-opacity="1"
         id="stop21" />
      <stop
         stop-color="#deeaf7"
         stop-opacity="1"
         offset="1"
         id="stop23" />
    </linearGradient>
    <linearGradient
       x2="0"
       y1="92.54"
       y2="7.02"
       gradientUnits="userSpaceOnUse"
       id="ButtonShadow-0"
       gradientTransform="matrix(1.0059 0 0 0.99417 100 0)">
      <stop
         stop-color="#000000"
         stop-opacity="1"
         id="stop26" />
      <stop
         stop-color="#000000"
         stop-opacity="0.588"
         offset="1"
         id="stop28" />
    </linearGradient>
    <linearGradient
       x2="0"
       xlink:href="#ButtonShadow-0"
       y1="6.132"
       y2="90.24"
       gradientUnits="userSpaceOnUse"
       id="linearGradient3780"
       gradientTransform="matrix(1.02381,0,0,-1.0119,-145.95656,92.375085)" />
    <linearGradient
       x2="0"
       xlink:href="#ButtonShadow-0"
       y1="6.132"
       y2="90.24"
       gradientUnits="userSpaceOnUse"
       id="linearGradient3721"
       gradientTransform="translate(-144.81356,-91.305085)" />
    <linearGradient
       x2="0"
       y1="25"
       y2="56"
       gradientUnits="userSpaceOnUse"
       id="linearGradient3674"
       gradientTransform="translate(-174.81356,-5.6949153)">
      <stop
         stop-color="#3c628d"
         stop-opacity="1"
         id="stop33" />
      <stop
         stop-color="#3c628d"
         stop-opacity="0"
         offset="1"
         id="stop35" />
    </linearGradient>
    <linearGradient
       x2="0"
       y1="25"
       y2="56"
       gradientUnits="userSpaceOnUse"
       id="linearGradient3682"
       gradientTransform="translate(-144.81356,-5.6949153)">
      <stop
         stop-color="#78aae3"
         stop-opacity="1"
         id="stop38" />
      <stop
         stop-color="#81b0e5"
         stop-opacity="0"
         offset="1"
         id="stop40" />
    </linearGradient>
    <linearGradient
       x2="0"
       y1="37"
       y2="69.06"
       gradientUnits="userSpaceOnUse"
       id="linearGradient3705"
       gradientTransform="translate(-144.81356,-2.6949153)">
      <stop
         stop-color="#aeccee"
         stop-opacity="1"
         id="stop43" />
      <stop
         stop-color="#b7d2f0"
         stop-opacity="0"
         offset="1"
         id="stop45" />
    </linearGradient>
    <linearGradient
       x2="0"
       y1="31.991"
       y2="72.01"
       gradientUnits="userSpaceOnUse"
       id="linearGradient3713"
       gradientTransform="translate(-174.81356,-5.6949153)">
      <stop
         stop-color="#5f8ab9"
         stop-opacity="1"
         id="stop48" />
      <stop
         stop-color="#608ab8"
         stop-opacity="0"
         offset="1"
         id="stop50" />
    </linearGradient>
    <linearGradient
       x2="0"
       y1="13.405"
       y2="75.68"
       gradientUnits="userSpaceOnUse"
       id="linearGradient3728"
       gradientTransform="matrix(1.15625,0,0,1.15625,-152.31356,-13.194915)">
      <stop
         stop-color="#d7e5f5"
         stop-opacity="1"
         id="stop53" />
      <stop
         stop-color="#ffffff"
         stop-opacity="0"
         offset="1"
         id="stop55" />
    </linearGradient>
    <linearGradient
       x2="0"
       y1="32"
       y2="80"
       gradientUnits="userSpaceOnUse"
       id="linearGradient3736"
       gradientTransform="translate(-204.81356,-5.6949153)">
      <stop
         stop-color="#96b2d1"
         stop-opacity="1"
         id="stop58" />
      <stop
         stop-color="#97b2d0"
         stop-opacity="0"
         offset="1"
         id="stop60" />
    </linearGradient>
    <radialGradient
       cy="45"
       r="8"
       xlink:href="#linearGradient3741"
       gradientUnits="userSpaceOnUse"
       id="radialGradient3747"
       cx="48"
       gradientTransform="matrix(1.25,0,0,1,-12,0)" />
    <radialGradient
       cy="40"
       r="8"
       gradientUnits="userSpaceOnUse"
       id="radialGradient3761"
       cx="42"
       gradientTransform="matrix(2,0,0,1.5,-42,-20)">
      <stop
         stop-color="#d8d8d8"
         stop-opacity="1"
         id="stop64" />
      <stop
         stop-color="#6a6a6a"
         stop-opacity="0"
         offset="1"
         id="stop66" />
    </radialGradient>
    <radialGradient
       cy="83"
       r="8"
       gradientUnits="userSpaceOnUse"
       id="radialGradient3889"
       cx="48"
       gradientTransform="matrix(3,0,0,0.3125,-240.81356,49.867585)">
      <stop
         stop-color="#000000"
         stop-opacity="1"
         id="stop69" />
      <stop
         stop-color="#000000"
         stop-opacity="0"
         offset="1"
         id="stop71" />
    </radialGradient>
    <linearGradient
       x1="38"
       x2="41"
       xlink:href="#linearGradient3741"
       y1="59"
       y2="60"
       gradientUnits="userSpaceOnUse"
       id="linearGradient3894"
       gradientTransform="translate(-142.81356,-5.6949153)" />
    <linearGradient
       x1="40.549"
       x2="37.891"
       xlink:href="#linearGradient3741"
       y1="61.726"
       y2="61.1"
       gradientUnits="userSpaceOnUse"
       id="linearGradient3898"
       gradientTransform="matrix(-1,0,0,1,-50.813559,-5.6949153)" />
    <linearGradient
       x1="41.5"
       x2="54.5"
       xlink:href="#linearGradient3741"
       gradientUnits="userSpaceOnUse"
       id="linearGradient3908"
       gradientTransform="translate(-144.81356,-4.6949153)" />
    <linearGradient
       x1="41.5"
       x2="54.5"
       xlink:href="#linearGradient3741"
       gradientUnits="userSpaceOnUse"
       id="linearGradient3912"
       gradientTransform="matrix(1.5,0,0,1,-168.81356,7.3050847)" />
    <linearGradient
       x1="41.5"
       x2="54.5"
       xlink:href="#linearGradient3741"
       gradientUnits="userSpaceOnUse"
       id="linearGradient3916"
       gradientTransform="matrix(1.41421,-1.41421,0.70711,0.70711,-208.12356,85.765085)" />
    <rect
       x="6"
       rx="6"
       y="6"
       fill="url(#linearGradient3617)"
       fill-opacity="1"
       stroke="none"
       fill-rule="nonzero"
       height="84"
       id="SVGCleanerId_0"
       width="84" />
    <path
       d="m 56,40 a 8,8 0 1 1 -16,0 8,8 0 1 1 16,0 z"
       stroke-width="0.3"
       color="#000000"
       fill-opacity="1"
       stroke="none"
       fill-rule="nonzero"
       id="SVGCleanerId_1"
       visibility="visible" />
    <linearGradient
       id="linearGradient3188-1"
       gradientUnits="userSpaceOnUse"
       y2="63.893"
       y1="6"
       xlink:href="#linearGradient3737"
       x2="0" />
    <filter
       width="1.384"
       id="filter3794"
       color-interpolation-filters="sRGB"
       height="1.384"
       y="-0.192"
       x="-0.192">
      <feGaussianBlur
         id="feGaussianBlur13"
         stdDeviation="5.28" />
    </filter>
    <linearGradient
       id="linearGradient3613"
       gradientUnits="userSpaceOnUse"
       y2="138.66"
       y1="20.221"
       xlink:href="#linearGradient3737"
       x2="0" />
    <radialGradient
       gradientTransform="matrix(1.15731 0 0 0.99591 -7.551 0.197)"
       cx="48"
       id="radialGradient3619-7"
       gradientUnits="userSpaceOnUse"
       xlink:href="#linearGradient3737"
       r="42"
       cy="90.17" />
    <clipPath
       id="clipPath3613">
      <use
         id="use18"
         xlink:href="#SVGCleanerId_0-1" />
    </clipPath>
    <linearGradient
       id="linearGradient3617-4"
       gradientUnits="userSpaceOnUse"
       y2="5.988"
       y1="90"
       x2="0">
      <stop
         id="stop21-8"
         stop-opacity="1"
         stop-color="#a5aaaf" />
      <stop
         id="stop23-3"
         offset="1"
         stop-opacity="1"
         stop-color="#d4d7d9" />
    </linearGradient>
    <linearGradient
       gradientTransform="matrix(1.0059 0 0 0.99417 100 0)"
       id="ButtonShadow-0-7"
       gradientUnits="userSpaceOnUse"
       y2="7.02"
       y1="92.54"
       x2="0">
      <stop
         id="stop26-1"
         stop-opacity="1"
         stop-color="#000000" />
      <stop
         id="stop28-8"
         offset="1"
         stop-opacity="0.588"
         stop-color="#000000" />
    </linearGradient>
    <linearGradient
       gradientTransform="matrix(1.02381 0 0 1.0119 -1.143 -98.07)"
       id="linearGradient3780-2"
       gradientUnits="userSpaceOnUse"
       y2="90.24"
       y1="6.132"
       xlink:href="#ButtonShadow-0-7"
       x2="0" />
    <linearGradient
       gradientTransform="matrix(1 0 0 1 0 -97)"
       id="linearGradient3721-0"
       gradientUnits="userSpaceOnUse"
       y2="90.24"
       y1="6.132"
       xlink:href="#ButtonShadow-0-7"
       x2="0" />
    <linearGradient
       gradientTransform="matrix(0 1 -1 0 97 1)"
       id="linearGradient4111"
       gradientUnits="userSpaceOnUse"
       xlink:href="#linearGradient4086"
       x2="72"
       x1="-41" />
    <linearGradient
       id="linearGradient4086">
      <stop
         id="stop34"
         stop-opacity="1"
         stop-color="#bebebe" />
      <stop
         id="stop36"
         offset="1"
         stop-opacity="1"
         stop-color="#ebebeb" />
    </linearGradient>
    <radialGradient
       cx="48"
       id="radialGradient3847-1"
       gradientUnits="userSpaceOnUse"
       r="16"
       cy="44">
      <stop
         id="stop39"
         stop-opacity="1"
         stop-color="#ffffff" />
      <stop
         id="stop41"
         offset="0.5"
         stop-opacity="0.336"
         stop-color="#ffffff" />
      <stop
         id="stop43-2"
         offset="1"
         stop-opacity="0.168"
         stop-color="#000000" />
    </radialGradient>
    <linearGradient
       gradientTransform="matrix(0 -1 1 0 0 97)"
       id="linearGradient3857-9"
       gradientUnits="userSpaceOnUse"
       x2="120"
       x1="15">
      <stop
         id="stop46"
         stop-opacity="1"
         stop-color="#000000" />
      <stop
         id="stop48-9"
         offset="1"
         stop-opacity="0"
         stop-color="#000000" />
    </linearGradient>
    <linearGradient
       gradientTransform="matrix(0 -1 1 0 -1 97)"
       id="linearGradient4223"
       gradientUnits="userSpaceOnUse"
       xlink:href="#linearGradient4086"
       x2="80"
       x1="16" />
    <rect
       width="84"
       id="SVGCleanerId_0-1"
       height="84"
       y="6"
       rx="6"
       x="6" />
    <linearGradient
       gradientTransform="translate(0.0069012,0.01128008)"
       gradientUnits="userSpaceOnUse"
       y2="78.497192"
       x2="79.791931"
       y1="8.5310926"
       x1="20.262066"
       id="linearGradient5009"
       xlink:href="#linearGradient3617"
       inkscape:collect="always" />
    <linearGradient
       id="linearGradient3617-2"
       gradientUnits="userSpaceOnUse"
       y2="5.9879999"
       y1="90"
       x2="0">
      <stop
         id="stop6241"
         stop-opacity="1"
         stop-color="#d22785" />
      <stop
         id="stop6243"
         offset="1"
         stop-opacity="1"
         stop-color="#f658b0" />
    </linearGradient>
    <linearGradient
       gradientTransform="matrix(0,-1,1,0,-119.37288,69.338983)"
       id="linearGradient4223-7"
       gradientUnits="userSpaceOnUse"
       xlink:href="#linearGradient4086"
       x2="80"
       x1="16" />
    <linearGradient
       gradientTransform="matrix(0,-1,1,0,-118.37288,69.338983)"
       id="linearGradient3857-3"
       gradientUnits="userSpaceOnUse"
       x2="120"
       x1="15">
      <stop
         id="stop6266"
         stop-opacity="1"
         stop-color="#000000" />
      <stop
         id="stop6268"
         offset="1"
         stop-opacity="0"
         stop-color="#000000" />
    </linearGradient>
    <radialGradient
       gradientTransform="translate(-118.37288,-26.661017)"
       cx="48"
       id="radialGradient3847-4"
       gradientUnits="userSpaceOnUse"
       r="16"
       cy="44">
      <stop
         id="stop6259"
         stop-opacity="1"
         stop-color="#ffffff" />
      <stop
         id="stop6261"
         offset="0.5"
         stop-opacity="0.336"
         stop-color="#ffffff" />
      <stop
         id="stop6263"
         offset="1"
         stop-opacity="0.168"
         stop-color="#000000" />
    </radialGradient>
    <linearGradient
       gradientTransform="matrix(0,1,-1,0,-21.372881,-26.661017)"
       id="linearGradient4111-6"
       gradientUnits="userSpaceOnUse"
       xlink:href="#linearGradient4086"
       x2="72"
       x1="-41" />
  </defs>
  <rect
     style="fill-opacity:0.02000002"
     rx="12.724"
     height="89.980003"
     width="89.620003"
     y="3.0099983"
     x="3.1899986"
     id="rect4864" />
  <rect
     style="fill-opacity:0.03900003"
     rx="12.552"
     height="88.760002"
     width="88.410004"
     y="3.6200447"
     x="3.7959988"
     id="rect4866" />
  <rect
     style="fill-opacity:0.078"
     rx="12.38"
     height="87.550003"
     width="87.199997"
     y="4.2300301"
     x="4.4009986"
     id="rect4868" />
  <rect
     style="fill-opacity:0.15700001"
     rx="12.208"
     height="86.330002"
     width="85.990997"
     y="4.8400154"
     x="5.0069985"
     id="rect4870" />
  <path
     style="fill:url(#linearGradient5009);fill-opacity:1"
     inkscape:connector-curvature="0"
     d="m 17.5939,5.4375004 c -6.642,0 -11.969,5.3947996 -11.969,12.0629996 l 2e-4,61.031 c 0,6.668 5.3268,12.031 11.969,12.031 l 60.812,0 c 6.642,0 11.969,-5.363 11.969,-12.031 l 0,-61.031 c 0,-6.668 -5.327,-12.0629996 -11.969,-12.0629996 l -60.812,2e-4 z"
     id="path4872" />
  <path
     style="opacity:0.2;fill:black;fill-opacity:1"
     inkscape:connector-curvature="0"
     d="m 5.6125987,73.460022 0,5.0663 c 0,6.668 5.3434003,12.032 11.9850003,12.032 l 60.809,0 c 6.6418,0 11.985,-5.3645 11.985,-12.032 l 0,-5.0663 c 0,6.6681 -5.3434,12.032 -11.985,12.032 l -60.809,0 c -6.6418,0 -11.9850003,-5.3643 -11.9850003,-12.032 z"
     id="path4874" />
  <path
     style="fill-opacity:0.09800002;fill:black"
     inkscape:connector-curvature="0"
     d="m 5.6125987,77.560022 0,1.0133 c 0,6.668 5.3434003,12.032 11.9850003,12.032 l 60.809,0 c 6.6418,0 11.985,-5.3645 11.985,-12.032 l 0,-1.0133 c 0,6.6681 -5.3434,12.032 -11.985,12.032 l -60.809,0 c -6.6418,0 -11.9850003,-5.3644 -11.9850003,-12.032 z"
     id="path4876" />
  <g
     id="g4437"
     transform="translate(144.81356,3.6814581)">
    <path
       inkscape:connector-curvature="0"
       style="color:black;visibility:visible;fill:url(#linearGradient3728);fill-opacity:1;fill-rule:nonzero;stroke:none;stroke-width:0.30000001"
       id="path96"
       visibility="visible"
       d="m -59.813559,42.305085 a 37,37 0 0 1 -74.000001,0 37,37 0 1 1 74.000001,0 z" />
    <path
       style="color:black;visibility:visible;fill:url(#linearGradient3736);fill-opacity:1;fill-rule:nonzero;stroke:none;stroke-width:0.30000001"
       id="path98"
       inkscape:connector-curvature="0"
       visibility="visible"
       d="m -96.813559,5.3050847 c -20.434541,0 -37.000001,16.5654643 -37.000001,37.0000003 0,20.434536 16.56546,37 37.000001,37 20.43454,0 37,-16.565464 37,-37 0,-20.434536 -16.56546,-37.0000003 -37,-37.0000003 z m 0,3 c 19.32997,0 35,15.6700343 35,35.0000003 0,19.329966 -15.67003,35 -35,35 -19.329971,0 -35.000001,-15.670034 -35.000001,-35 0,-19.329966 15.67003,-35.0000003 35.000001,-35.0000003 z" />
    <path
       inkscape:connector-curvature="0"
       style="color:black;visibility:visible;fill:url(#linearGradient3705);fill-opacity:1;fill-rule:nonzero;stroke:none;stroke-width:0.30000001"
       id="path100"
       visibility="visible"
       d="m -71.813559,37.305085 a 25,25 0 0 1 -50.000001,0 25,25 0 1 1 50.000001,0 z" />
    <path
       style="color:black;visibility:visible;fill:url(#linearGradient3713);fill-opacity:1;fill-rule:nonzero;stroke:none;stroke-width:0.30000001"
       id="path102"
       inkscape:connector-curvature="0"
       visibility="visible"
       d="m -96.813559,12.305085 c -13.807121,0 -25.000001,11.192881 -25.000001,25 0,13.807119 11.19288,25 25.000001,25 13.807119,0 25,-11.192881 25,-25 0,-13.807119 -11.192881,-25 -25,-25 z m 0,3 c 12.702549,0 23,10.297451 23,23 0,12.702549 -10.297451,23 -23,23 -12.702551,0 -23.000001,-10.297451 -23.000001,-23 0,-12.702549 10.29745,-23 23.000001,-23 z" />
    <path
       inkscape:connector-curvature="0"
       style="color:black;visibility:visible;fill:url(#linearGradient3682);fill-opacity:1;fill-rule:nonzero;stroke:none;stroke-width:0.30000001"
       id="path104"
       visibility="visible"
       d="m -81.813559,34.305085 a 15,15 0 0 1 -30.000001,0 15,15 0 1 1 30.000001,0 z" />
    <path
       style="color:black;visibility:visible;fill:url(#linearGradient3674);fill-opacity:1;fill-rule:nonzero;stroke:none;stroke-width:0.30000001"
       id="path106"
       inkscape:connector-curvature="0"
       visibility="visible"
       d="m -96.813559,19.305085 c -8.284271,0 -15.000001,6.715729 -15.000001,15 0,8.284271 6.71573,15 15.000001,15 8.284271,0 15,-6.715729 15,-15 0,-8.284271 -6.715729,-15 -15,-15 z m 0,3 c 7.179702,0 13,5.820298 13,13 0,7.179702 -5.820298,13 -13,13 -7.179701,0 -13.000001,-5.820298 -13.000001,-13 0,-7.179702 5.8203,-13 13.000001,-13 z" />
    <path
       style="fill:url(#linearGradient3916);fill-opacity:1;stroke:#1e1e1e;stroke-width:1;stroke-linecap:butt;stroke-linejoin:miter;stroke-opacity:1"
       id="path108"
       inkscape:connector-curvature="0"
       d="m -106.00595,67.083259 13.970564,-11.970562 1.414214,1.414214 -13.970568,11.970562 z" />
    <path
       style="fill:url(#linearGradient3912);fill-opacity:1;stroke:#1e1e1e;stroke-width:1;stroke-linecap:butt;stroke-linejoin:miter;stroke-opacity:1"
       id="path110"
       inkscape:connector-curvature="0"
       d="m -105.81356,66.305085 18.000001,0 0,2 -18.000001,0 z" />
    <path
       style="fill:url(#linearGradient3908);fill-opacity:1;stroke:#1e1e1e;stroke-width:1;stroke-linecap:butt;stroke-linejoin:miter;stroke-opacity:1"
       id="path112"
       inkscape:connector-curvature="0"
       d="m -102.81356,54.305085 12.000001,0 0,2 -12.000001,0 z" />
    <path
       style="fill:url(#linearGradient3898);fill-opacity:1;stroke:#1e1e1e;stroke-opacity:1"
       id="path114"
       inkscape:connector-curvature="0"
       d="m -86.813559,74.305085 -10,-36 4,0 10,36 c -2,2 -4,0 -4,0 z" />
    <path
       style="fill:url(#linearGradient3894);fill-opacity:1;stroke:#1e1e1e;stroke-opacity:1"
       id="path116"
       inkscape:connector-curvature="0"
       d="m -106.81356,74.305085 10.000001,-36 -4.000001,0 -10,36 c 2,2 4,0 4,0 z" />
    <use
       height="100%"
       width="100%"
       y="0"
       x="0"
       transform="translate(-144.81356,-5.6949153)"
       style="fill:url(#radialGradient3747)"
       id="use118"
       xlink:href="#SVGCleanerId_1" />
    <use
       height="100%"
       width="100%"
       y="0"
       x="0"
       style="fill:url(#radialGradient3761)"
       id="use120"
       transform="matrix(0,0.5,-0.75,0,-66.813559,7.3050847)"
       xlink:href="#SVGCleanerId_1" />
    <path
       style="color:black;visibility:visible;fill:#1e1e1e;fill-opacity:1;fill-rule:nonzero;stroke:none;stroke-width:0.30000001"
       id="path122"
       inkscape:connector-curvature="0"
       visibility="visible"
       d="m -96.813559,26.305085 c -4.418281,0 -8.000001,3.581722 -8.000001,8 0,4.418278 3.58172,8 8.000001,8 4.418278,0 8,-3.581722 8,-8 0,-4.418278 -3.581722,-8 -8,-8 z m 0,1 c 3.865993,0 7,3.134007 7,7 0,3.865993 -3.134007,7 -7,7 -3.865991,0 -7.000001,-3.134007 -7.000001,-7 0,-3.865993 3.13401,-7 7.000001,-7 z" />
    <path
       inkscape:connector-curvature="0"
       style="color:black;visibility:visible;opacity:0.3;fill:url(#radialGradient3889);fill-opacity:1;fill-rule:nonzero;stroke:none;stroke-width:0.30000001"
       id="path124"
       visibility="visible"
       d="m -72.813559,75.805085 a 24,2.5000013 0 0 1 -48.000001,0 24,2.5000013 0 1 1 48.000001,0 z" />
  </g>
</svg>
