<svg height="16" width="16" xmlns="http://www.w3.org/2000/svg" xmlns:sodipodi="http://sodipodi.sourceforge.net/DTD/sodipodi-0.dtd" xmlns:inkscape="http://www.inkscape.org/namespaces/inkscape">
 <path d="m227.03 449c-0.57131 0-1.0312 0.45994-1.0312 1.0312l0.03 10.97c0 0.554 0.446 1 1 1h3.9688c0.554 0 1-0.446 1-1v-8c0-0.554-0.446-1-1-1h-2.9688v-1.9688c0-0.57131-0.42869-1.0312-1-1.0312zm0 4h3.9688v3.0312h-3.9688v-3.0312zm-0.0312 4h1v1h1v-1h1v1h1v1h-1v1h1v1h-1v-1h-1v1h-1v-1h-1v-1h1v-1h-1v-1zm1 2v1h1v-1h-1zm1 0h1v-1h-1v1z" fill="#bebebe" color="#000000" transform="matrix(1 0 0 1 -221 -448)"/>
</svg>
