<svg viewBox="0 0 16 16" height="16" width="16" xmlns="http://www.w3.org/2000/svg" xmlns:sodipodi="http://sodipodi.sourceforge.net/DTD/sodipodi-0.dtd" xmlns:inkscape="http://www.inkscape.org/namespaces/inkscape">
 <path stroke="none" stroke-dasharray="none" stroke-dashoffset="0" stroke-linecap="butt" stroke-linejoin="miter" color="#000000" stroke-miterlimit="4" stroke-opacity="1" color-interpolation="sRGB" image-rendering="auto" stroke-width="1" color-interpolation-filters="linearRGB" color-rendering="auto" d="M 3 2 L 3 14 L 13 14 L 13 7 L 13 6 L 13 2 L 3 2 z M 4 3 L 12 3 L 12 6 L 10 6 L 10 4 L 6 4 L 6 6 L 4 6 L 4 3 z M 4 7 L 5 7 L 5 8 L 5 9 L 11 9 L 11 8 L 11 7 L 12 7 L 12 10 L 4 10 L 4 7 z M 6 7 L 10 7 L 10 8 L 6 8 L 6 7 z M 4 11 L 10.5 11 L 12 11 L 12 13 L 4 13 L 4 11 z M 10.5 11 C 10.223 11 10 11.223 10 11.5 C 10 11.777 10.223 12 10.5 12 C 10.777 12 11 11.777 11 11.5 C 11 11.223 10.777 11 10.5 11 z " text-rendering="auto" display="inline" visibility="visible" fill="#bebebe" fill-opacity="1" opacity="1" fill-rule="nonzero" shape-rendering="auto"/>
</svg>
