<svg height="16" width="16" xmlns="http://www.w3.org/2000/svg" xmlns:sodipodi="http://sodipodi.sourceforge.net/DTD/sodipodi-0.dtd" xmlns:inkscape="http://www.inkscape.org/namespaces/inkscape">
 <g transform="matrix(1 0 0 1 -122 -338)">
  <path d="m124.19 338c-1.2 0-2.19 0.99-2.19 2.19v8.625c0 1.1999 0.9859 2.1875 2.1875 2.1875h11.625c1.2016 0 2.1875-0.98758 2.1875-2.1875v-8.625c-0.01-1.21-1-2.2-2.2-2.2h-11.625zm0 2h11.625c0.1238 0 0.1875 0.0566 0.1875 0.1875v8.625c0 0.1309-0.0637 0.1875-0.1875 0.1875h-11.625c-0.14-0.01-0.2-0.07-0.2-0.2v-8.625c0-0.12 0.06-0.18 0.19-0.18z" fill="#666666" color="#666666"/>
  <path d="m126.91 352a1.0011 1.0011 0 1 0 0.09 2h6a1.0001 1.0001 0 1 0 0 -2h-6a1.0001 1.0001 0 0 0 -0.0937 0z" fill="#666666" color="#666666"/>
 </g>
</svg>
