<?xml version="1.0" encoding="UTF-8" standalone="no"?>
<!-- Created with Inkscape (http://www.inkscape.org/) -->

<svg
   xmlns:dc="http://purl.org/dc/elements/1.1/"
   xmlns:cc="http://creativecommons.org/ns#"
   xmlns:rdf="http://www.w3.org/1999/02/22-rdf-syntax-ns#"
   xmlns:svg="http://www.w3.org/2000/svg"
   xmlns="http://www.w3.org/2000/svg"
   xmlns:xlink="http://www.w3.org/1999/xlink"
   xmlns:sodipodi="http://sodipodi.sourceforge.net/DTD/sodipodi-0.dtd"
   xmlns:inkscape="http://www.inkscape.org/namespaces/inkscape"
   id="svg2"
   height="96"
   width="96"
   version="1.1"
   inkscape:version="0.48.5 r10040"
   sodipodi:docname="2048.svg">
  <sodipodi:namedview
     pagecolor="#ffffff"
     bordercolor="#666666"
     borderopacity="1"
     objecttolerance="10"
     gridtolerance="10"
     guidetolerance="10"
     inkscape:pageopacity="0"
     inkscape:pageshadow="2"
     inkscape:window-width="1366"
     inkscape:window-height="716"
     id="namedview19"
     showgrid="false"
     inkscape:zoom="6.9532167"
     inkscape:cx="57.190271"
     inkscape:cy="40.145843"
     inkscape:window-x="0"
     inkscape:window-y="24"
     inkscape:window-maximized="1"
     inkscape:current-layer="svg2" />
  <defs
     id="defs4">
    <linearGradient
       id="linearGradient3878"
       y2="5.9877"
       gradientUnits="userSpaceOnUse"
       y1="90"
       gradientTransform="matrix(1.0631,0,0,1.0631,-2.975,-3.4394)"
       x2="48"
       x1="48">
      <stop
         id="stop3702-4"
         stop-color="#da8714"
         offset="0"
         style="stop-color:#da9614;stop-opacity:1;" />
      <stop
         id="stop3704-4"
         stop-color="#f4d468"
         offset="1"
         style="stop-color:#f0c12e;stop-opacity:1;" />
    </linearGradient>
    <linearGradient
       inkscape:collect="always"
       xlink:href="#linearGradient3878"
       id="linearGradient3002"
       gradientUnits="userSpaceOnUse"
       gradientTransform="matrix(1.0631,0,0,1.0631,-2.975,-3.4394)"
       x1="48"
       y1="90"
       x2="48"
       y2="5.9877" />
  </defs>
  <metadata
     id="metadata7">
    <rdf:RDF>
      <cc:Work
         rdf:about="">
        <dc:format>image/svg+xml</dc:format>
        <dc:type
           rdf:resource="http://purl.org/dc/dcmitype/StillImage" />
        <dc:title />
      </cc:Work>
    </rdf:RDF>
  </metadata>
  <rect
     style="fill-opacity:0.01960802"
     x="2.9998"
     y="2.9899757"
     width="89.977997"
     height="89.977997"
     ry="12.724"
     id="rect5263-0" />
  <rect
     style="fill-opacity:0.03921599"
     x="3.6078"
     y="3.6000221"
     width="88.762001"
     height="88.762001"
     ry="12.552"
     id="rect5261-6" />
  <rect
     style="fill-opacity:0.07843101"
     x="4.2157001"
     y="4.2100072"
     width="87.545998"
     height="87.545998"
     ry="12.38"
     id="rect5259-9" />
  <rect
     style="fill-opacity:0.15685999"
     x="4.8237"
     y="4.8199925"
     width="86.330002"
     height="86.330002"
     ry="12.208"
     id="rect5257-5" />
  <path
     inkscape:connector-curvature="0"
     style="fill:url(#linearGradient3002)"
     d="m 17.469,5.4062 c -6.668,0 -12.032,5.3948 -12.032,12.063 l 5e-4,61.031 c 0,6.668 5.3635,12.031 12.032,12.031 h 61.03 c 6.668,0 12.031,-5.363 12.031,-12.031 v -61.031 c 0,-6.668 -5.363,-12.063 -12.031,-12.063 l -61.031,2e-4 z"
     id="rect2419-7" />
  <path
     style="fill-opacity:0.11764999"
     inkscape:connector-curvature="0"
     d="m 5.4316,73.44 v 5.0663 c 0,6.668 5.3645,12.032 12.032,12.032 h 61.049 c 6.668,0 12.032,-5.3645 12.032,-12.032 V 73.44 c 0,6.6681 -5.3645,12.032 -12.032,12.032 h -61.049 c -6.668,0 -12.032,-5.3643 -12.032,-12.032 z"
     id="rect5265-0" />
  <path
     style="fill-opacity:0.09803898"
     inkscape:connector-curvature="0"
     d="m 5.4316,77.54 v 1.0133 c 0,6.668 5.3645,12.032 12.032,12.032 h 61.049 c 6.668,0 12.032,-5.3645 12.032,-12.032 V 77.54 c 0,6.6681 -5.3645,12.032 -12.032,12.032 h -61.049 c -6.668,0 -12.032,-5.3644 -12.032,-12.032 z"
     id="path5252-0" />
  <g
     style="font-size:38.48843384px;font-style:normal;font-variant:normal;font-weight:normal;font-stretch:normal;line-height:86.00000143%;letter-spacing:0px;word-spacing:0px;fill:black;fill-opacity:1;stroke:none;font-family:Comic Sans MS;-inkscape-font-specification:Comic Sans MS"
     id="text3795">
    <path
       d="m 23.798255,43.154305 0,-6.427268 c -2e-6,-2.468162 0.413447,-4.322421 1.24035,-5.562782 0.839424,-1.240336 2.593453,-2.518271 5.26209,-3.833809 0.463556,-0.225502 1.102524,-0.526192 1.916905,-0.902072 2.793906,-1.302976 4.190864,-2.631026 4.190879,-3.984155 -1.5e-5,-0.714119 -0.162889,-1.284178 -0.488623,-1.710179 -0.325762,-0.425956 -0.75174,-0.638945 -1.277936,-0.638968 -0.613923,2.3e-5 -1.083752,0.231805 -1.409489,0.695348 -0.31323,0.463587 -0.46984,1.133876 -0.469829,2.01087 l 0,1.916904 -8.400552,0 0,-7.74279 c 1.553566,-1.002276 3.194835,-1.741474 4.923814,-2.217595 1.741492,-0.488594 3.658394,-0.732905 5.750713,-0.732934 3.508043,2.9e-5 6.1015,0.732962 7.780377,2.198802 1.691363,1.465893 2.537055,3.733601 2.537079,6.803131 -2.4e-5,1.415772 -0.181691,2.606005 -0.545002,3.570704 -0.350829,0.964733 -0.927153,1.841747 -1.728973,2.631046 -0.651518,0.626452 -2.518305,1.716456 -5.600368,3.270013 -0.826915,0.41346 -1.465882,0.732944 -1.916904,0.958452 -1.378179,0.71415 -2.248929,1.290474 -2.612252,1.728973 -0.363346,0.425986 -0.545013,0.952195 -0.545002,1.578627 l 0,0.263105 1.465868,0 c 0.977232,6e-6 1.628728,-0.181661 1.95449,-0.545003 0.338263,-0.363327 0.526195,-1.115054 0.563796,-2.255181 l 8.381758,0 0,8.926761 -20.973189,0"
       style="font-weight:bold;font-stretch:condensed;line-height:86.00000143%;font-family:Aachen BT;-inkscape-font-specification:Aachen BT Bold Condensed"
       id="path3808" />
    <path
       d="m 61.967204,34.67858 0,-11.802117 c -1.5e-5,-1.052397 -0.137831,-1.791595 -0.41345,-2.217596 -0.275647,-0.425955 -0.726683,-0.638945 -1.353109,-0.638968 -0.626452,2.3e-5 -1.077488,0.213013 -1.353109,0.638968 -0.275645,0.426001 -0.413461,1.165199 -0.41345,2.217596 l 0,11.802117 c -1.1e-5,1.039897 0.131541,1.77283 0.394657,2.198802 0.275621,0.413456 0.732921,0.620181 1.371902,0.620175 0.626426,6e-6 1.077462,-0.212983 1.353109,-0.638968 0.275619,-0.438501 0.413435,-1.16517 0.41345,-2.180009 M 49.544911,24.379917 c -2e-6,-3.946545 0.776782,-6.665289 2.330355,-8.15624 1.553563,-1.490898 4.328687,-2.23636 8.325379,-2.236389 3.996666,2.9e-5 6.778054,0.745491 8.344172,2.236389 1.566076,1.490951 2.349124,4.209695 2.349148,8.15624 l 0,8.889175 c -2.4e-5,3.908987 -0.783072,6.615202 -2.349148,8.118654 -1.553589,1.490925 -4.334977,2.236388 -8.344172,2.236388 -3.996692,0 -6.771816,-0.745463 -8.325379,-2.236388 -1.553573,-1.490923 -2.330357,-4.197138 -2.330355,-8.118654 l 0,-8.889175"
       style="font-weight:bold;font-stretch:condensed;line-height:86.00000143%;font-family:Aachen BT;-inkscape-font-specification:Aachen BT Bold Condensed"
       id="path3810" />
    <path
       d="m 35.224509,63.399823 0,-7.310548 -4.811055,7.310548 4.811055,0 m -1.616214,12.854535 0,-5.074159 c 0.501139,-0.125282 0.864474,-0.325743 1.090005,-0.601381 0.225504,-0.275628 0.338263,-0.670284 0.338277,-1.183971 l 0,-0.150345 -11.632979,0 0,-6.878304 9.941593,-14.865406 10.22349,0 0,15.899031 1.935697,0 0,5.844679 -1.916904,0 c 0.01251,0.588859 0.100208,1.027366 0.263104,1.315522 0.175381,0.275639 0.469807,0.482364 0.88328,0.620175 l 0,5.074159 -11.125563,0"
       style="font-weight:bold;font-stretch:condensed;line-height:86.00000143%;font-family:Aachen BT;-inkscape-font-specification:Aachen BT Bold Condensed"
       id="path3812" />
    <path
       d="m 53.153202,61.238607 c -1.265412,-0.526194 -2.167484,-1.227805 -2.706218,-2.104836 -0.526212,-0.889526 -0.789316,-2.136139 -0.789314,-3.739843 -2e-6,-2.894126 0.833162,-4.99896 2.499493,-6.314509 1.678851,-1.328023 4.360009,-1.992048 8.043482,-1.992077 3.695975,2.9e-5 6.377133,0.65779 8.043481,1.973284 1.666306,1.315548 2.49947,3.426647 2.499493,6.333302 -2.3e-5,1.616232 -0.263128,2.862846 -0.789314,3.739843 -0.513702,0.877031 -1.403245,1.578642 -2.668631,2.104836 1.340559,0.513695 2.336596,1.321801 2.988116,2.42432 0.651473,1.090016 0.977221,2.518296 0.977245,4.284845 -2.4e-5,2.956799 -0.90836,5.161864 -2.725011,6.6152 -1.816694,1.440811 -4.591817,2.161215 -8.325379,2.161216 -3.733588,-10e-7 -6.508711,-0.720405 -8.325379,-2.161216 -1.816677,-1.453336 -2.725013,-3.658401 -2.725011,-6.6152 -2e-6,-1.766549 0.325746,-3.194829 0.977245,-4.284845 0.664022,-1.089991 1.672589,-1.898097 3.025702,-2.42432 m 5.280884,5.656747 0,0.88328 c -1.1e-5,1.039896 0.131541,1.77283 0.394657,2.198802 0.275621,0.413456 0.732921,0.62018 1.371902,0.620175 0.626426,5e-6 1.077462,-0.212984 1.353109,-0.638968 0.275619,-0.438501 0.413435,-1.16517 0.41345,-2.180009 l 0,-0.88328 c -1.5e-5,-1.014821 -0.137831,-1.735226 -0.41345,-2.161216 -0.275647,-0.425966 -0.726683,-0.638956 -1.353109,-0.638968 -0.626452,1.2e-5 -1.077488,0.213002 -1.353109,0.638968 -0.275645,0.42599 -0.413461,1.146395 -0.41345,2.161216 m 3.533118,-10.918838 c -1.5e-5,-1.027339 -0.137831,-1.760272 -0.41345,-2.198802 -0.275647,-0.438484 -0.726683,-0.657738 -1.353109,-0.657761 -0.626452,2.3e-5 -1.077488,0.213012 -1.353109,0.638968 -0.275645,0.426001 -0.413461,1.165199 -0.41345,2.217595 -1.1e-5,1.02738 0.131541,1.754049 0.394657,2.180009 0.275621,0.413468 0.732921,0.620193 1.371902,0.620175 0.638954,1.8e-5 1.08999,-0.206707 1.353109,-0.620175 0.275619,-0.413431 0.413435,-1.1401 0.41345,-2.180009"
       style="font-weight:bold;font-stretch:condensed;line-height:86.00000143%;font-family:Aachen BT;-inkscape-font-specification:Aachen BT Bold Condensed"
       id="path3814" />
  </g>
  <g
     id="g3836"
     style="font-size:38.48843384px;font-style:normal;font-variant:normal;font-weight:normal;font-stretch:normal;line-height:86.00000143%;letter-spacing:0px;word-spacing:0px;opacity:0.2;fill:black;fill-opacity:1;stroke:none;font-family:Comic Sans MS;-inkscape-font-specification:Comic Sans MS"
     transform="translate(0,1.0179472)">
    <path
       id="path3838"
       style="font-weight:bold;font-stretch:condensed;line-height:86.00000143%;font-family:Aachen BT;-inkscape-font-specification:Aachen BT Bold Condensed"
       d="m 23.798255,43.154305 0,-6.427268 c -2e-6,-2.468162 0.413447,-4.322421 1.24035,-5.562782 0.839424,-1.240336 2.593453,-2.518271 5.26209,-3.833809 0.463556,-0.225502 1.102524,-0.526192 1.916905,-0.902072 2.793906,-1.302976 4.190864,-2.631026 4.190879,-3.984155 -1.5e-5,-0.714119 -0.162889,-1.284178 -0.488623,-1.710179 -0.325762,-0.425956 -0.75174,-0.638945 -1.277936,-0.638968 -0.613923,2.3e-5 -1.083752,0.231805 -1.409489,0.695348 -0.31323,0.463587 -0.46984,1.133876 -0.469829,2.01087 l 0,1.916904 -8.400552,0 0,-7.74279 c 1.553566,-1.002276 3.194835,-1.741474 4.923814,-2.217595 1.741492,-0.488594 3.658394,-0.732905 5.750713,-0.732934 3.508043,2.9e-5 6.1015,0.732962 7.780377,2.198802 1.691363,1.465893 2.537055,3.733601 2.537079,6.803131 -2.4e-5,1.415772 -0.181691,2.606005 -0.545002,3.570704 -0.350829,0.964733 -0.927153,1.841747 -1.728973,2.631046 -0.651518,0.626452 -2.518305,1.716456 -5.600368,3.270013 -0.826915,0.41346 -1.465882,0.732944 -1.916904,0.958452 -1.378179,0.71415 -2.248929,1.290474 -2.612252,1.728973 -0.363346,0.425986 -0.545013,0.952195 -0.545002,1.578627 l 0,0.263105 1.465868,0 c 0.977232,6e-6 1.628728,-0.181661 1.95449,-0.545003 0.338263,-0.363327 0.526195,-1.115054 0.563796,-2.255181 l 8.381758,0 0,8.926761 -20.973189,0"
       inkscape:connector-curvature="0" />
    <path
       id="path3840"
       style="font-weight:bold;font-stretch:condensed;line-height:86.00000143%;font-family:Aachen BT;-inkscape-font-specification:Aachen BT Bold Condensed"
       d="m 61.967204,34.67858 0,-11.802117 c -1.5e-5,-1.052397 -0.137831,-1.791595 -0.41345,-2.217596 -0.275647,-0.425955 -0.726683,-0.638945 -1.353109,-0.638968 -0.626452,2.3e-5 -1.077488,0.213013 -1.353109,0.638968 -0.275645,0.426001 -0.413461,1.165199 -0.41345,2.217596 l 0,11.802117 c -1.1e-5,1.039897 0.131541,1.77283 0.394657,2.198802 0.275621,0.413456 0.732921,0.620181 1.371902,0.620175 0.626426,6e-6 1.077462,-0.212983 1.353109,-0.638968 0.275619,-0.438501 0.413435,-1.16517 0.41345,-2.180009 M 49.544911,24.379917 c -2e-6,-3.946545 0.776782,-6.665289 2.330355,-8.15624 1.553563,-1.490898 4.328687,-2.23636 8.325379,-2.236389 3.996666,2.9e-5 6.778054,0.745491 8.344172,2.236389 1.566076,1.490951 2.349124,4.209695 2.349148,8.15624 l 0,8.889175 c -2.4e-5,3.908987 -0.783072,6.615202 -2.349148,8.118654 -1.553589,1.490925 -4.334977,2.236388 -8.344172,2.236388 -3.996692,0 -6.771816,-0.745463 -8.325379,-2.236388 -1.553573,-1.490923 -2.330357,-4.197138 -2.330355,-8.118654 l 0,-8.889175"
       inkscape:connector-curvature="0" />
    <path
       id="path3842"
       style="font-weight:bold;font-stretch:condensed;line-height:86.00000143%;font-family:Aachen BT;-inkscape-font-specification:Aachen BT Bold Condensed"
       d="m 35.224509,63.399823 0,-7.310548 -4.811055,7.310548 4.811055,0 m -1.616214,12.854535 0,-5.074159 c 0.501139,-0.125282 0.864474,-0.325743 1.090005,-0.601381 0.225504,-0.275628 0.338263,-0.670284 0.338277,-1.183971 l 0,-0.150345 -11.632979,0 0,-6.878304 9.941593,-14.865406 10.22349,0 0,15.899031 1.935697,0 0,5.844679 -1.916904,0 c 0.01251,0.588859 0.100208,1.027366 0.263104,1.315522 0.175381,0.275639 0.469807,0.482364 0.88328,0.620175 l 0,5.074159 -11.125563,0"
       inkscape:connector-curvature="0" />
    <path
       id="path3844"
       style="font-weight:bold;font-stretch:condensed;line-height:86.00000143%;font-family:Aachen BT;-inkscape-font-specification:Aachen BT Bold Condensed"
       d="m 53.153202,61.238607 c -1.265412,-0.526194 -2.167484,-1.227805 -2.706218,-2.104836 -0.526212,-0.889526 -0.789316,-2.136139 -0.789314,-3.739843 -2e-6,-2.894126 0.833162,-4.99896 2.499493,-6.314509 1.678851,-1.328023 4.360009,-1.992048 8.043482,-1.992077 3.695975,2.9e-5 6.377133,0.65779 8.043481,1.973284 1.666306,1.315548 2.49947,3.426647 2.499493,6.333302 -2.3e-5,1.616232 -0.263128,2.862846 -0.789314,3.739843 -0.513702,0.877031 -1.403245,1.578642 -2.668631,2.104836 1.340559,0.513695 2.336596,1.321801 2.988116,2.42432 0.651473,1.090016 0.977221,2.518296 0.977245,4.284845 -2.4e-5,2.956799 -0.90836,5.161864 -2.725011,6.6152 -1.816694,1.440811 -4.591817,2.161215 -8.325379,2.161216 -3.733588,-10e-7 -6.508711,-0.720405 -8.325379,-2.161216 -1.816677,-1.453336 -2.725013,-3.658401 -2.725011,-6.6152 -2e-6,-1.766549 0.325746,-3.194829 0.977245,-4.284845 0.664022,-1.089991 1.672589,-1.898097 3.025702,-2.42432 m 5.280884,5.656747 0,0.88328 c -1.1e-5,1.039896 0.131541,1.77283 0.394657,2.198802 0.275621,0.413456 0.732921,0.62018 1.371902,0.620175 0.626426,5e-6 1.077462,-0.212984 1.353109,-0.638968 0.275619,-0.438501 0.413435,-1.16517 0.41345,-2.180009 l 0,-0.88328 c -1.5e-5,-1.014821 -0.137831,-1.735226 -0.41345,-2.161216 -0.275647,-0.425966 -0.726683,-0.638956 -1.353109,-0.638968 -0.626452,1.2e-5 -1.077488,0.213002 -1.353109,0.638968 -0.275645,0.42599 -0.413461,1.146395 -0.41345,2.161216 m 3.533118,-10.918838 c -1.5e-5,-1.027339 -0.137831,-1.760272 -0.41345,-2.198802 -0.275647,-0.438484 -0.726683,-0.657738 -1.353109,-0.657761 -0.626452,2.3e-5 -1.077488,0.213012 -1.353109,0.638968 -0.275645,0.426001 -0.413461,1.165199 -0.41345,2.217595 -1.1e-5,1.02738 0.131541,1.754049 0.394657,2.180009 0.275621,0.413468 0.732921,0.620193 1.371902,0.620175 0.638954,1.8e-5 1.08999,-0.206707 1.353109,-0.620175 0.275619,-0.413431 0.413435,-1.1401 0.41345,-2.180009"
       inkscape:connector-curvature="0" />
  </g>
  <g
     transform="translate(0,2.0246753)"
     style="font-size:38.48843383999999901px;font-style:normal;font-variant:normal;font-weight:normal;font-stretch:normal;line-height:86.00000142999999753%;letter-spacing:0px;word-spacing:0px;opacity:0.1;fill:black;fill-opacity:1;stroke:none;font-family:Comic Sans MS;-inkscape-font-specification:Comic Sans MS"
     id="g3856">
    <path
       inkscape:connector-curvature="0"
       d="m 23.798255,43.154305 0,-6.427268 c -2e-6,-2.468162 0.413447,-4.322421 1.24035,-5.562782 0.839424,-1.240336 2.593453,-2.518271 5.26209,-3.833809 0.463556,-0.225502 1.102524,-0.526192 1.916905,-0.902072 2.793906,-1.302976 4.190864,-2.631026 4.190879,-3.984155 -1.5e-5,-0.714119 -0.162889,-1.284178 -0.488623,-1.710179 -0.325762,-0.425956 -0.75174,-0.638945 -1.277936,-0.638968 -0.613923,2.3e-5 -1.083752,0.231805 -1.409489,0.695348 -0.31323,0.463587 -0.46984,1.133876 -0.469829,2.01087 l 0,1.916904 -8.400552,0 0,-7.74279 c 1.553566,-1.002276 3.194835,-1.741474 4.923814,-2.217595 1.741492,-0.488594 3.658394,-0.732905 5.750713,-0.732934 3.508043,2.9e-5 6.1015,0.732962 7.780377,2.198802 1.691363,1.465893 2.537055,3.733601 2.537079,6.803131 -2.4e-5,1.415772 -0.181691,2.606005 -0.545002,3.570704 -0.350829,0.964733 -0.927153,1.841747 -1.728973,2.631046 -0.651518,0.626452 -2.518305,1.716456 -5.600368,3.270013 -0.826915,0.41346 -1.465882,0.732944 -1.916904,0.958452 -1.378179,0.71415 -2.248929,1.290474 -2.612252,1.728973 -0.363346,0.425986 -0.545013,0.952195 -0.545002,1.578627 l 0,0.263105 1.465868,0 c 0.977232,6e-6 1.628728,-0.181661 1.95449,-0.545003 0.338263,-0.363327 0.526195,-1.115054 0.563796,-2.255181 l 8.381758,0 0,8.926761 -20.973189,0"
       style="font-weight:bold;font-stretch:condensed;line-height:86.00000142999999753%;font-family:Aachen BT;-inkscape-font-specification:Aachen BT Bold Condensed"
       id="path3858" />
    <path
       inkscape:connector-curvature="0"
       d="m 61.967204,34.67858 0,-11.802117 c -1.5e-5,-1.052397 -0.137831,-1.791595 -0.41345,-2.217596 -0.275647,-0.425955 -0.726683,-0.638945 -1.353109,-0.638968 -0.626452,2.3e-5 -1.077488,0.213013 -1.353109,0.638968 -0.275645,0.426001 -0.413461,1.165199 -0.41345,2.217596 l 0,11.802117 c -1.1e-5,1.039897 0.131541,1.77283 0.394657,2.198802 0.275621,0.413456 0.732921,0.620181 1.371902,0.620175 0.626426,6e-6 1.077462,-0.212983 1.353109,-0.638968 0.275619,-0.438501 0.413435,-1.16517 0.41345,-2.180009 M 49.544911,24.379917 c -2e-6,-3.946545 0.776782,-6.665289 2.330355,-8.15624 1.553563,-1.490898 4.328687,-2.23636 8.325379,-2.236389 3.996666,2.9e-5 6.778054,0.745491 8.344172,2.236389 1.566076,1.490951 2.349124,4.209695 2.349148,8.15624 l 0,8.889175 c -2.4e-5,3.908987 -0.783072,6.615202 -2.349148,8.118654 -1.553589,1.490925 -4.334977,2.236388 -8.344172,2.236388 -3.996692,0 -6.771816,-0.745463 -8.325379,-2.236388 -1.553573,-1.490923 -2.330357,-4.197138 -2.330355,-8.118654 l 0,-8.889175"
       style="font-weight:bold;font-stretch:condensed;line-height:86.00000142999999753%;font-family:Aachen BT;-inkscape-font-specification:Aachen BT Bold Condensed"
       id="path3860" />
    <path
       inkscape:connector-curvature="0"
       d="m 35.224509,63.399823 0,-7.310548 -4.811055,7.310548 4.811055,0 m -1.616214,12.854535 0,-5.074159 c 0.501139,-0.125282 0.864474,-0.325743 1.090005,-0.601381 0.225504,-0.275628 0.338263,-0.670284 0.338277,-1.183971 l 0,-0.150345 -11.632979,0 0,-6.878304 9.941593,-14.865406 10.22349,0 0,15.899031 1.935697,0 0,5.844679 -1.916904,0 c 0.01251,0.588859 0.100208,1.027366 0.263104,1.315522 0.175381,0.275639 0.469807,0.482364 0.88328,0.620175 l 0,5.074159 -11.125563,0"
       style="font-weight:bold;font-stretch:condensed;line-height:86.00000142999999753%;font-family:Aachen BT;-inkscape-font-specification:Aachen BT Bold Condensed"
       id="path3862" />
    <path
       inkscape:connector-curvature="0"
       d="m 53.153202,61.238607 c -1.265412,-0.526194 -2.167484,-1.227805 -2.706218,-2.104836 -0.526212,-0.889526 -0.789316,-2.136139 -0.789314,-3.739843 -2e-6,-2.894126 0.833162,-4.99896 2.499493,-6.314509 1.678851,-1.328023 4.360009,-1.992048 8.043482,-1.992077 3.695975,2.9e-5 6.377133,0.65779 8.043481,1.973284 1.666306,1.315548 2.49947,3.426647 2.499493,6.333302 -2.3e-5,1.616232 -0.263128,2.862846 -0.789314,3.739843 -0.513702,0.877031 -1.403245,1.578642 -2.668631,2.104836 1.340559,0.513695 2.336596,1.321801 2.988116,2.42432 0.651473,1.090016 0.977221,2.518296 0.977245,4.284845 -2.4e-5,2.956799 -0.90836,5.161864 -2.725011,6.6152 -1.816694,1.440811 -4.591817,2.161215 -8.325379,2.161216 -3.733588,-10e-7 -6.508711,-0.720405 -8.325379,-2.161216 -1.816677,-1.453336 -2.725013,-3.658401 -2.725011,-6.6152 -2e-6,-1.766549 0.325746,-3.194829 0.977245,-4.284845 0.664022,-1.089991 1.672589,-1.898097 3.025702,-2.42432 m 5.280884,5.656747 0,0.88328 c -1.1e-5,1.039896 0.131541,1.77283 0.394657,2.198802 0.275621,0.413456 0.732921,0.62018 1.371902,0.620175 0.626426,5e-6 1.077462,-0.212984 1.353109,-0.638968 0.275619,-0.438501 0.413435,-1.16517 0.41345,-2.180009 l 0,-0.88328 c -1.5e-5,-1.014821 -0.137831,-1.735226 -0.41345,-2.161216 -0.275647,-0.425966 -0.726683,-0.638956 -1.353109,-0.638968 -0.626452,1.2e-5 -1.077488,0.213002 -1.353109,0.638968 -0.275645,0.42599 -0.413461,1.146395 -0.41345,2.161216 m 3.533118,-10.918838 c -1.5e-5,-1.027339 -0.137831,-1.760272 -0.41345,-2.198802 -0.275647,-0.438484 -0.726683,-0.657738 -1.353109,-0.657761 -0.626452,2.3e-5 -1.077488,0.213012 -1.353109,0.638968 -0.275645,0.426001 -0.413461,1.165199 -0.41345,2.217595 -1.1e-5,1.02738 0.131541,1.754049 0.394657,2.180009 0.275621,0.413468 0.732921,0.620193 1.371902,0.620175 0.638954,1.8e-5 1.08999,-0.206707 1.353109,-0.620175 0.275619,-0.413431 0.413435,-1.1401 0.41345,-2.180009"
       style="font-weight:bold;font-stretch:condensed;line-height:86.00000142999999753%;font-family:Aachen BT;-inkscape-font-specification:Aachen BT Bold Condensed"
       id="path3864" />
  </g>
</svg>
