<svg height="96" width="96" xmlns="http://www.w3.org/2000/svg" xmlns:xlink="http://www.w3.org/1999/xlink" xmlns:sodipodi="http://sodipodi.sourceforge.net/DTD/sodipodi-0.dtd" xmlns:inkscape="http://www.inkscape.org/namespaces/inkscape">
 <defs>
  <linearGradient x1="62.03" x2="61.771" y1="9.877" y2="87.19" gradientUnits="userSpaceOnUse" id="linearGradient3375" gradientTransform="matrix(1.107 0 0 1.0698 -5.658 -5.03)">
   <stop stop-color="#f61414"/>
   <stop stop-color="#8d0000" offset="1"/>
  </linearGradient>
  <clipPath clipPathUnits="userSpaceOnUse" id="clipPath3841">
   <rect x="5.282" rx="5.56" ry="6.557" y="-98.03" height="91.8" width="77.84" transform="matrix(1 0 0 -1 0 0)"/>
  </clipPath>
  <linearGradient x1="23.904" x2="74.55" y1="78.35" y2="36.547" gradientUnits="userSpaceOnUse" id="linearGradient3861-9" gradientTransform="matrix(1.0791 0 0 0.91504 0.3 0.301)">
   <stop stop-color="#fff"/>
   <stop stop-color="#c6c6c6" offset="1"/>
  </linearGradient>
  <path d="m29.375 15.312-10.094 64.375h9.5312l1.8438-13.344h9.5938l1.8438 13.344h9.5312l-2.0625-13.25h0.15625l-0.15625-1h13.562v1 13.25h9.1562v-13.25-1h4.5938v-7.4375h-4.5938v-1-41.688h-9.9688l-14.249 41.688-6.531-41.688h-12.156zm5.8125 18.562h0.5625l0.25 1.6875 2.875 20.625h-0.125l0.125 1h-6.8438l0.125-1h-0.125l2.875-20.625 0.28125-1.6875zm27.406 0.71875h0.53125v1 0.96875 1 19.438 1h-6.9062l0.28125-1h-0.28125l5.8125-20.438 0.5625-1.9688z" id="SVGCleanerId_0"/>
 </defs>
 <g transform="matrix(1 0 0 1 0 -956.36)">
  <rect x="3.353" rx="12.724" y="959.35" fill-opacity="0.02" height="89.98" width="89.62"/>
  <rect x="3.959" rx="12.552" y="959.96" fill-opacity="0.039" height="88.76" width="88.41"/>
  <rect x="4.564" rx="12.38" y="960.57" fill-opacity="0.078" height="87.55" width="87.2"/>
  <rect x="5.17" rx="12.208" y="961.18" fill-opacity="0.157" height="86.33" width="85.991"/>
 </g>
 <path d="m17.75 5.41c-6.6418 0-11.969 5.3946-11.969 12.062v61.031c0 6.668 5.327 12.031 11.969 12.031h60.812c6.6418 0 11.969-5.3632 11.969-12.031v-61.031c0-6.668-5.327-12.062-11.969-12.062h-60.812z" fill="url(#linearGradient3375)"/>
 <path d="m5.7756 77.54v1.0133c0 6.668 5.3434 12.032 11.985 12.032h60.809c6.6418 0 11.985-5.3645 11.985-12.032v-1.013c0 6.6681-5.3434 12.032-11.985 12.032h-60.809c-6.6418 0-11.985-5.3644-11.985-12.032z" fill-opacity="0.098"/>
 <path d="m5.7756 73.44v5.0663c0 6.668 5.3434 12.032 11.985 12.032h60.809c6.6418 0 11.985-5.3645 11.985-12.032v-5.066c0 6.6681-5.3434 12.032-11.985 12.032h-60.809c-6.6418 0-11.985-5.3643-11.985-12.032z" fill-opacity="0.235"/>
 <g clip-path="url(#clipPath3841)" transform="matrix(1.0791 0 0 0.91504 0.335 -0.885)">
  <g stroke="#000">
   <use stroke-width="6" xlink:href="#SVGCleanerId_0" opacity="0.1" transform="matrix(0.92668 0 0 1.0928 -0.278 -0.329)"/>
   <use stroke-width="4" xlink:href="#SVGCleanerId_0" opacity="0.1" transform="matrix(0.92668 0 0 1.0928 -0.278 -0.329)"/>
   <use stroke-width="2" xlink:href="#SVGCleanerId_0" opacity="0.1" transform="matrix(0.92668 0 0 1.0928 -0.278 -0.329)"/>
  </g>
  <path d="m26.931 15.325-9.495 71.421h8.9823l1.7091-14.564h8.8873l1.7091 14.564h8.9823l-2.0699-15.557h12.59v15.557h8.4696v-15.557h4.2728v-9.2173h-4.2728v-46.646h-9.2292l-13.198 45.552-6.0578-45.552h-11.28zm5.3932 21.363h0.51273l0.24687 1.8587 2.6586 22.534h-6.3237l2.6396-22.534 0.26586-1.8587zm25.39 0.78932h0.51273v2.1388 22.356h-6.4186l5.3932-22.356 0.51273-2.1388z" fill="#666"/>
  <path d="m26.931 16.418-9.495 71.421h8.9823l1.7091-14.564h8.8873l1.7091 14.564h8.9823l-2.0699-15.557h12.59v15.557h8.4696v-15.557h4.2728v-9.2173h-4.2728v-46.646h-9.2292l-13.198 45.552-6.0578-45.552h-11.28zm5.3932 21.363h0.51273l0.24687 1.8587 2.6586 22.534h-6.3237l2.6396-22.534 0.26586-1.8587zm25.39 0.78932h0.51273v2.1388 22.356h-6.4186l5.3932-22.356 0.51273-2.1388z" fill="#b3b3b3"/>
  <use xlink:href="#SVGCleanerId_0" fill="url(#linearGradient3861-9)" transform="matrix(0.92668 0 0 1.0928 -0.278 -0.329)"/>
 </g>
</svg>
