<?xml version="1.0" encoding="UTF-8" standalone="no"?>
<svg
   xmlns:dc="http://purl.org/dc/elements/1.1/"
   xmlns:cc="http://creativecommons.org/ns#"
   xmlns:rdf="http://www.w3.org/1999/02/22-rdf-syntax-ns#"
   xmlns:svg="http://www.w3.org/2000/svg"
   xmlns="http://www.w3.org/2000/svg"
   xmlns:xlink="http://www.w3.org/1999/xlink"
   xmlns:sodipodi="http://sodipodi.sourceforge.net/DTD/sodipodi-0.dtd"
   xmlns:inkscape="http://www.inkscape.org/namespaces/inkscape"
   height="96"
   width="96"
   id="svg194"
   version="1.1"
   inkscape:version="0.91 r13725"
   sodipodi:docname="abiword.svg">
  <metadata
     id="metadata287">
    <rdf:RDF>
      <cc:Work
         rdf:about="">
        <dc:format>image/svg+xml</dc:format>
        <dc:type
           rdf:resource="http://purl.org/dc/dcmitype/StillImage" />
      </cc:Work>
    </rdf:RDF>
  </metadata>
  <sodipodi:namedview
     pagecolor="#ffffff"
     bordercolor="#666666"
     borderopacity="1"
     objecttolerance="10"
     gridtolerance="10"
     guidetolerance="10"
     inkscape:pageopacity="0"
     inkscape:pageshadow="2"
     inkscape:window-width="640"
     inkscape:window-height="480"
     id="namedview285"
     showgrid="false"
     inkscape:zoom="2.4583333"
     inkscape:cx="48"
     inkscape:cy="48"
     inkscape:current-layer="svg194" />
  <defs
     id="defs196">
    <linearGradient
       id="linearGradient11508-3">
      <stop
         id="stop199" />
      <stop
         stop-opacity="0"
         offset="1"
         id="stop201" />
    </linearGradient>
    <linearGradient
       x2="0"
       y1="90"
       y2="5.988"
       gradientUnits="userSpaceOnUse"
       id="linearGradient3844"
       gradientTransform="matrix(1.0536,0,0,-1.0536,-2.63,98.57)">
      <stop
         stop-color="#94b6db"
         id="stop204" />
      <stop
         stop-color="#3465a4"
         offset="1"
         id="stop206" />
    </linearGradient>
    <radialGradient
       cy="41.704"
       r="18.18"
       gradientUnits="userSpaceOnUse"
       id="radialGradient4326"
       cx="59.852"
       gradientTransform="matrix(0.37707 -0.72166 0.09021 0.04713 37.969 1038.5)">
      <stop
         stop-color="#fff"
         id="stop209" />
      <stop
         stop-color="#fff"
         stop-opacity="0"
         offset="1"
         id="stop211" />
    </radialGradient>
    <linearGradient
       x1="58.652"
       x2="47.45"
       xlink:href="#radialGradient4326"
       y1="68.17"
       y2="57.993"
       gradientUnits="userSpaceOnUse"
       id="linearGradient4329"
       gradientTransform="matrix(0.81423,0,0,0.81423,10.837,11.9)" />
    <linearGradient
       x1="24.25"
       x2="13.406"
       y1="77.5"
       y2="67.67"
       gradientUnits="userSpaceOnUse"
       id="linearGradient4334"
       gradientTransform="matrix(0.59072,-0.15822,0.15862,0.59174,32.21,26.78)">
      <stop
         stop-color="#c38125"
         id="stop215" />
      <stop
         stop-color="#c68d31"
         offset="0.63"
         id="stop217" />
      <stop
         stop-color="#fffce6"
         offset="1"
         id="stop219" />
    </linearGradient>
    <linearGradient
       x1="60.899"
       x2="68.22"
       y1="35.606"
       y2="39.534"
       gradientUnits="userSpaceOnUse"
       id="linearGradient4338"
       gradientTransform="matrix(0.81423,0,0,0.81423,10.837,11.9)">
      <stop
         stop-color="#1a1a1a"
         id="stop222" />
      <stop
         stop-color="#636363"
         offset="0.352"
         id="stop224" />
      <stop
         stop-color="#c7c7c7"
         offset="0.5"
         id="stop226" />
      <stop
         stop-color="#636363"
         offset="0.65"
         id="stop228" />
      <stop
         offset="1"
         id="stop230" />
    </linearGradient>
    <linearGradient
       x1="43.7"
       x2="87.73"
       xlink:href="#linearGradient11508-3"
       y1="82.47"
       y2="6.208"
       gradientUnits="userSpaceOnUse"
       id="linearGradient4341"
       gradientTransform="matrix(0.98634,0.12131,-0.15118,0.79144,16.05,8.65)" />
    <linearGradient
       x1="43.7"
       x2="77.924"
       xlink:href="#linearGradient11508-3"
       y1="82.47"
       y2="16.212"
       gradientUnits="userSpaceOnUse"
       id="linearGradient4344"
       gradientTransform="matrix(1.0122,0.18119,-0.32272,0.5683,29.17,24.66)" />
    <linearGradient
       x1="25.07"
       x2="35.09"
       y1="4.714"
       y2="44.5"
       gradientUnits="userSpaceOnUse"
       id="linearGradient4349"
       gradientTransform="matrix(1.5027,0,0,1.519,5.073,7.61)">
      <stop
         stop-color="#eaedf1"
         id="stop235" />
      <stop
         stop-color="#c1ccdb"
         offset="1"
         id="stop237" />
    </linearGradient>
    <radialGradient
       inkscape:collect="always"
       xlink:href="#radialGradient4326"
       id="radialGradient13606"
       gradientUnits="userSpaceOnUse"
       gradientTransform="matrix(0.37707,-0.72166,0.09021,0.04713,37.969,82.14)"
       cx="59.852"
       cy="41.704"
       r="18.18" />
    <linearGradient
       inkscape:collect="always"
       xlink:href="#linearGradient11508-3"
       id="linearGradient14237"
       x1="50.707542"
       y1="81.682442"
       x2="50.707542"
       y2="96.539803"
       gradientUnits="userSpaceOnUse" />
    <linearGradient
       inkscape:collect="always"
       xlink:href="#linearGradient14239"
       id="linearGradient14245"
       x1="49.876652"
       y1="87.937508"
       x2="49.876652"
       y2="76.719681"
       gradientUnits="userSpaceOnUse" />
    <linearGradient
       inkscape:collect="always"
       id="linearGradient14239">
      <stop
         style="stop-color:#ffffff;stop-opacity:1;"
         offset="0"
         id="stop14241" />
      <stop
         style="stop-color:#ffffff;stop-opacity:0;"
         offset="1"
         id="stop14243" />
    </linearGradient>
  </defs>
  <rect
     style="fill-opacity:0.02000002"
     id="rect241"
     width="89.980003"
     height="89.980003"
     y="2.9899757"
     rx="12.724"
     x="3" />
  <rect
     style="fill-opacity:0.03900003"
     id="rect243"
     width="88.760002"
     height="88.760002"
     y="3.6000221"
     rx="12.552"
     x="3.608" />
  <rect
     style="fill-opacity:0.078"
     id="rect245"
     width="87.550003"
     height="87.550003"
     y="4.2100072"
     rx="12.38"
     x="4.2160001" />
  <rect
     style="fill-opacity:0.15700001"
     id="rect247"
     width="86.330002"
     height="86.330002"
     y="4.8199925"
     rx="12.208"
     x="4.8239999" />
  <path
     inkscape:connector-curvature="0"
     style="fill:url(#linearGradient3844)"
     id="path249"
     d="m 17.469,5.4062 c -6.668,0 -12.032,5.3948 -12.032,12.063 l 5e-4,61.031 c 0,6.668 5.3635,12.031 12.032,12.031 l 61.03,0 c 6.668,0 12.031,-5.363 12.031,-12.031 l 0,-61.031 c 0,-6.668 -5.363,-12.063 -12.031,-12.063 l -61.031,2e-4 z" />
  <path
     style="opacity:0.05;fill-rule:evenodd"
     inkscape:connector-curvature="0"
     id="path255"
     d="m 42.348,13.48 c -1.882,0.0424 -3.5829,0.99159 -5.25,2.3125 -1.6714,1.3243 -3.376,3.1282 -5.0938,5.2812 -3.4361,4.3068 -6.9419,10.062 -10.188,16.25 -3.2459,6.1882 -6.2078,12.81 -8.3438,18.844 -2.13,6.0172 -3.5041,11.377 -3.5,15.438 9e-6,0.01 -2.2e-5,0.022 0,0.031 -4.7e-5,0.031 -9.4e-5,0.091 0,0.094 a 0.86422,0.86422 0 0 0 0,0.031 c 0.14849,2.6016 1.8975,4.3324 3.75,5 1.7682,0.6371 3.5692,0.6213 4.8125,0.6562 a 0.86422,0.86422 0 0 0 0.03125,0 c 0.0044,0 0.1206,3e-4 0.125,0 0.0044,-3e-4 0.08938,-0.031 0.09375,-0.031 0.0044,-6e-4 0.12066,8e-4 0.125,0 0.0033,-6e-4 0.06361,-0.025 0.09375,-0.031 l 0.03125,0 c 8.894,-1.8526 18.91,-6.5736 26.906,-10.969 4.002,-2.1998 7.4829,-4.3115 10.031,-5.9688 1.2817,-0.8336 2.3066,-1.5749 3.0625,-2.125 0.3607,-0.2625 0.70689,-0.4773 1,-0.7187 0.16563,-0.1365 0.3859,-0.3723 0.625,-0.6875 5.159,9.2573 9.5312,17.625 9.5312,17.625 0.003,0.01 0.09033,0.1196 0.09375,0.125 0.0034,0.01 0.08988,0.1511 0.09375,0.1562 0.0039,0.01 0.08947,0.1203 0.09375,0.125 0.0043,0 0.12033,0.089 0.125,0.094 0.0047,0 0.11998,0.121 0.125,0.125 0.005,0 0.11967,0.09 0.125,0.094 0.0053,0 0.15064,0.091 0.15625,0.094 0.0056,0 0.1504,0.06 0.15625,0.063 0.0059,0 0.11895,0.06 0.125,0.063 0.0061,0 0.15004,0.061 0.15625,0.063 0.0062,0 0.18118,0.03 0.1875,0.031 0.0063,0 0.14986,-5e-4 0.15625,0 0.0064,6e-4 0.14984,0 0.15625,0 0.0064,0 0.14986,6e-4 0.15625,0 0.0064,-5e-4 0.18118,0 0.1875,0 0.0063,0 0.15004,-0.03 0.15625,-0.031 0.0062,0 0.1502,-0.06 0.15625,-0.063 0.006,0 0.1504,-0.06 0.15625,-0.063 0.0059,0 0.11939,-0.059 0.125,-0.063 0.0056,0 0.15092,-0.09 0.15625,-0.094 0.0053,0 0.11998,-0.09 0.125,-0.094 0.005,0 0.12034,-0.1206 0.125,-0.125 0.0047,0 0.12072,-0.089 0.125,-0.094 0.0043,0 0.08989,-0.1199 0.09375,-0.125 0.0039,-0.01 0.09033,-0.1508 0.09375,-0.1562 0.0034,-0.01 0.09079,-0.1193 0.09375,-0.125 0.003,-0.01 0.06003,-0.1504 0.0625,-0.1563 0.0025,-0.01 0.06054,-0.1501 0.0625,-0.1562 0.002,-0.01 0.0298,-0.15 0.03125,-0.1563 0.0014,-0.01 0.03033,-0.1499 0.03125,-0.1562 9.16e-4,-0.01 0.03087,-0.1499 0.03125,-0.1563 3.82e-4,-0.01 1.56e-4,-0.1811 0,-0.1875 -0.24486,-11.234 -5.3233,-25.909 -11.531,-38 -3.1044,-6.0464 -6.5144,-11.428 -9.8438,-15.375 -3.3181,-3.934 -6.5731,-6.769 -10.188,-6.6875 z m 0.125,16.188 c 0.08788,0.0489 0.17773,0.0987 0.3125,0.1875 0.35282,0.23236 0.85822,0.61195 1.375,1.1562 1.0776,1.135 2.4242,2.9163 3.9062,5.0312 2.9599,4.224 6.4361,9.9187 9.7188,15.625 0.43789,0.7612 0.72624,1.3359 1.1562,2.0938 -0.04105,0 -0.09031,-5e-4 -0.09375,0 -0.0057,8e-4 -0.15059,0.03 -0.15625,0.031 -0.0057,0 -0.11946,0.061 -0.125,0.063 a 0.86422,0.86422 0 0 0 -0.03125,0 c 0,0 -8.6522,2.8035 -17.531,5.1875 -4.4393,1.192 -8.9421,2.2945 -12.344,2.8438 -1.7029,0.2749 -3.1265,0.3962 -4.0312,0.375 -0.146,0 -0.18746,-0.016 -0.3125,-0.031 0.01257,-0.2557 0.01914,-0.5026 0.09375,-0.8437 0.23349,-1.0677 0.72591,-2.5612 1.375,-4.2813 1.2959,-3.4341 3.2647,-7.8005 5.5,-12 2.2359,-4.2006 4.7464,-8.2759 6.9688,-11.219 1.108,-1.4672 2.154,-2.6365 3,-3.375 0.41073,-0.35856 0.76784,-0.61163 1.0312,-0.75 0.17923,-0.0942 0.16921,-0.0818 0.1875,-0.0937 z" />
  <path
     style="opacity:0.1;fill-rule:evenodd"
     inkscape:connector-curvature="0"
     id="path257"
     d="m 42.379,14.35 c -1.5976,0.036 -3.1539,0.86037 -4.75,2.125 -1.5961,1.26463 -3.2468,3.0059 -4.9375,5.125 -3.3813,4.2381 -6.8967,9.9704 -10.125,16.125 -3.2283,6.1546 -6.1626,12.734 -8.2812,18.719 -2.1187,5.9851 -3.4471,11.324 -3.4375,15.188 a 1.0931,1.0931 0 0 0 0,0.063 c 0.12861,2.2533 1.5792,3.6817 3.1562,4.25 1.577,0.5682 3.2928,0.5581 4.5625,0.5937 a 1.0931,1.0931 0 0 0 0.25,-0.031 c 8.74,-1.8151 18.754,-6.4972 26.719,-10.875 3.9822,-2.1889 7.4399,-4.2929 9.9688,-5.9375 1.2644,-0.8224 2.2811,-1.5479 3.0312,-2.0938 0.37505,-0.2729 0.69838,-0.4905 0.9375,-0.6875 0.23912,-0.197 0.35119,-0.2514 0.59375,-0.625 a 1.0931,1.0931 0 0 0 -1.25,-1.625 c 0,0 -8.6858,2.827 -17.594,5.2188 -4.454,1.1959 -8.9784,2.2852 -12.438,2.8437 -1.7296,0.2793 -3.1775,0.43 -4.1875,0.4063 -0.505,-0.012 -0.91989,-0.093 -1.125,-0.1563 -0.20511,-0.063 -0.13855,-0.08 -0.0625,0.063 0.06829,0.1282 -0.09431,-0.6981 0.15625,-1.8437 0.25056,-1.1457 0.74952,-2.6659 1.4062,-4.4063 1.3135,-3.4807 3.3105,-7.8628 5.5625,-12.094 2.252,-4.231 4.7652,-8.3432 7.0312,-11.344 1.133,-1.5003 2.2089,-2.7003 3.125,-3.5 0.91605,-0.79969 1.6623,-1.0993 1.9062,-1.0938 0.02708,6.3e-4 1.0513,0.45959 2.1875,1.6562 1.1362,1.1967 2.5064,2.9935 4,5.125 2.9872,4.2629 6.4601,9.9687 9.75,15.687 6.5797,11.438 12.438,22.875 12.438,22.875 a 1.0931,1.0931 0 0 0 2.0625,-0.5312 c -0.23948,-10.986 -5.2725,-25.618 -11.438,-37.625 -3.0826,-6.004 -6.4531,-11.347 -9.7188,-15.219 -3.2657,-3.8718 -6.3722,-6.4455 -9.5,-6.375 z" />
  <path
     style="opacity:0.3;fill-rule:evenodd"
     inkscape:connector-curvature="0"
     id="path259"
     d="m 11.942,71.64 c -0.03577,-14.394 20.79,-55.983 30.483,-56.202 4.8476,-0.10931 12.111,9.0949 18.22,20.994 6.1092,11.899 11.065,26.492 11.297,37.161 0,0 -23.453,-45.813 -29.302,-45.949 -5.9571,-0.13563 -22.126,32.277 -20.203,35.888 1.8784,3.5261 36.732,-7.8413 36.732,-7.8413 -0.75134,1.1573 -23.506,16.202 -40.572,19.746 -2.576,-0.072 -6.4401,-0.036 -6.6547,-3.7974 z" />
  <path
     inkscape:connector-curvature="0"
     style="fill:url(#linearGradient4349);fill-rule:evenodd"
     id="path261"
     d="m 11.942,70.64 c -0.03577,-14.394 20.79,-55.983 30.483,-56.202 4.8476,-0.10931 12.111,9.0949 18.22,20.994 6.1092,11.899 11.065,26.492 11.297,37.161 0,0 -23.453,-45.813 -29.302,-45.949 -5.9571,-0.13563 -22.126,32.277 -20.203,35.888 1.8784,3.5261 36.732,-7.8413 36.732,-7.8413 -0.75134,1.1573 -23.506,16.202 -40.572,19.746 -2.576,-0.072 -6.4401,-0.036 -6.6547,-3.7974 z" />
  <path
     style="opacity:0.6;fill:#ffffff;fill-rule:evenodd"
     inkscape:connector-curvature="0"
     id="path263"
     d="m 41.442,16.48 c -0.4901,0.0111 -1.533,0.4302 -2.8438,1.4688 -1.3108,1.0386 -2.844,2.6277 -4.4375,4.625 -3.1871,3.9947 -6.6511,9.5666 -9.8125,15.594 -3.1614,6.0271 -6.0359,12.53 -8.0938,18.344 -2.0423,5.7692 -3.2705,10.919 -3.2812,14.031 0.07029,1.1369 0.27903,1.1752 1.0938,1.4688 0.76826,0.2768 2.1028,0.3355 3.3438,0.375 0.12474,-0.027 0.2495,-0.066 0.375,-0.094 -0.66834,-0.053 -1.2892,-0.1264 -1.7188,-0.2812 -0.81472,-0.2936 -1.0235,-0.3319 -1.0938,-1.4688 0.01071,-3.1118 1.239,-8.262 3.2812,-14.031 2.0578,-5.8133 4.9323,-12.317 8.0938,-18.344 3.1614,-6.0271 6.6254,-11.599 9.8125,-15.594 1.5935,-1.9973 3.1267,-3.5864 4.4375,-4.625 0.7339,-0.58149 1.3591,-0.95728 1.875,-1.1875 -0.42752,-0.18224 -0.77464,-0.28704 -1.0312,-0.28125 z m 2.2188,8.1562 c -0.3753,-0.008 -0.73228,0.0215 -1.0625,0.0937 1.4562,0.32761 2.3282,1.3629 3.4375,2.5312 1.3234,1.3938 2.7686,3.2654 4.3125,5.4688 3.0878,4.4066 6.5917,10.176 9.9062,15.937 3.6404,6.3281 4.5359,8.2166 6.875,12.625 -0.6338,-2.6459 -1.439,-5.374 -2.3438,-8.125 -0.69428,-1.2545 -1.4801,-2.6727 -2.5312,-4.5 C 58.94,42.9053 55.4361,37.1359 52.3483,32.7299 50.8044,30.5266 49.3592,28.655 48.0358,27.2611 46.7124,25.8673 45.7397,24.6836 43.692,24.6361 a 2.0437,2.0437 0 0 0 -0.03125,0 z m 1.2188,36.125 c -1.8422,0.5319 -1.89,0.6316 -3.8438,1.1562 -4.507,1.2102 -9.0863,2.3147 -12.75,2.9063 -1.213,0.1958 -2.3083,0.3417 -3.3125,0.4062 0.17834,0.014 0.34468,0.027 0.53125,0.031 1.3613,0.032 2.9494,-0.1417 4.7812,-0.4375 3.614,-0.5836 8.1149,-1.6842 12.562,-2.875 0.04787,-0.026 0.10853,-0.036 0.15625,-0.063 0.75123,-0.413 1.1638,-0.7202 1.875,-1.125 z" />
  <path
     style="opacity:0.1;fill-rule:evenodd"
     inkscape:connector-curvature="0"
     id="path265"
     d="m 42.411,14.45 c -9.6934,0.21856 -30.505,41.794 -30.469,56.188 0.21467,3.7612 4.0802,3.7401 6.6562,3.8125 17.066,-3.5443 39.811,-18.593 40.562,-19.75 0,0 -34.84,11.37 -36.719,7.8437 -1.9233,-3.6105 14.23,-36.011 20.188,-35.875 5.8497,0.13562 29.312,45.937 29.312,45.937 -0.23256,-10.669 -5.2033,-25.258 -11.312,-37.156 -6.1092,-11.899 -13.371,-21.109 -18.219,-21 z m 0.03125,0.9375 c 1.8269,-0.0412 4.7895,1.9609 7.9062,5.6562 3.1168,3.6953 6.4379,8.9407 9.4688,14.844 5.1894,10.107 9.337,22.072 10.625,31.875 -2.1662,-4.1362 -5.5809,-10.578 -10.156,-18.531 -3.3057,-5.7464 -6.7918,-11.488 -9.8438,-15.844 -1.526,-2.1777 -2.9308,-4.0201 -4.1875,-5.3438 -1.2567,-1.3236 -2.2655,-2.2817 -3.5938,-2.3125 -1.1691,-0.0266 -2.2264,0.64564 -3.3125,1.5938 -1.0861,0.94811 -2.2214,2.2436 -3.4062,3.8125 -2.3696,3.1378 -4.8998,7.3271 -7.1875,11.625 -2.2877,4.2979 -4.3305,8.7164 -5.6875,12.313 -0.6785,1.798 -1.1836,3.3837 -1.4688,4.6875 -0.28514,1.3037 -0.47089,2.2761 0.03125,3.2187 0.2814,0.5283 0.76171,0.7871 1.25,0.9375 0.48829,0.1505 1.0381,0.2043 1.6562,0.2188 1.2362,0.029 2.7983,-0.1164 4.5938,-0.4063 3.5909,-0.5798 8.1369,-1.7012 12.625,-2.9062 6.3259,-1.6985 9.3581,-2.7041 12.469,-3.6875 -2.4716,1.6019 -5.8296,3.5981 -9.6875,5.7187 -7.8238,4.3006 -17.642,8.8972 -25.969,10.656 -1.2899,-0.036 -2.7988,-0.081 -3.875,-0.4688 -1.0749,-0.3873 -1.7062,-0.9026 -1.8125,-2.4062 -2e-5,-0.01 5e-6,-0.023 0,-0.031 -8.32e-4,-0.013 7.52e-4,-0.018 0,-0.031 0.0039,-3.3759 1.2431,-8.5916 3.3125,-14.438 2.0795,-5.8745 4.971,-12.396 8.1562,-18.469 3.1852,-6.0725 6.6813,-11.7 9.9375,-15.781 1.6281,-2.0407 3.1814,-3.6934 4.5938,-4.8125 1.4124,-1.119 2.678,-1.6676 3.5625,-1.6875 z" />
  <path
     inkscape:connector-curvature="0"
     style="opacity:0.3;fill:url(#linearGradient4344)"
     id="path267"
     d="m 90.618,50.04 c -4.3052,2.0006 -8.509,3.9883 -12.305,6.2085 -5.0986,2.9825 -8.6722,5.9688 -10.313,8.2441 -0.0075,0.01 -0.0223,0.015 -0.02971,0.026 -0.99898,0.5127 -8.1616,4.2124 -11.799,6.3612 -3.9714,2.3458 -10.67,8.3458 -10.67,8.3458 l 0.77275,0.4072 c 6.5828,-2.6277 19.824,-5.2417 19.824,-5.2417 l 0.44582,-0.1017 -0.11888,-0.2545 c 0,0 -0.05798,-0.1062 0,-0.4326 0.05799,-0.3263 0.25419,-0.8397 0.74303,-1.5266 1.0622,-1.4927 3.7458,-3.068 5.5578,-4.0203 4.1792,-0.8832 10.092,-3.2388 15.604,-6.463 0.7829,-0.458 1.5339,-0.9254 2.2885,-1.3995 l 0,-10.152 z" />
  <path
     inkscape:connector-curvature="0"
     style="opacity:0.2;fill:url(#linearGradient4341)"
     id="path269"
     d="m 90.618,24.62 c -6.8096,7.2724 -14.692,13.153 -20.745,20.127 -3.9525,4.5535 -6.4715,8.9528 -7.4006,12.163 -0.0042,0.015 -0.02555,0.036 -0.02973,0.051 -0.7931,0.7972 -6.4585,6.4943 -9.273,9.7708 -3.0727,3.577 -7.7275,12.315 -7.7275,12.315 l 0.83219,0.458 c 5.422,-4.2575 17,-9.2619 17,-9.2619 l 0.38638,-0.1781 -0.1486,-0.3308 c 0,0 -0.08757,-0.1456 -0.11888,-0.5852 -0.03133,-0.4396 -0.0069,-1.1437 0.26749,-2.1119 0.59615,-2.1039 2.6985,-4.5039 4.1312,-5.9795 3.647,-1.6622 8.5071,-5.4587 12.78,-10.382 3.6729,-4.2314 6.7353,-8.8272 10.046,-13.562 l 0,-12.493 z" />
  <path
     inkscape:connector-curvature="0"
     style="fill:url(#linearGradient4338);stroke:#000000"
     id="path271"
     d="m 69.007,46.04 c -4.0496,8.2509 -9.7641,14.119 -11.845,13.001 -2.2191,-1.1923 -1.1463,-8.7964 3.0089,-17.262 4.1542,-8.4641 10.627,-15.8 14.882,-25.25 0.81079,-1.801 2.3809,-4.4618 4.6101,-3.3316 2.3106,1.1714 1.6837,3.3635 0.46294,5.8534 -4.7142,9.6155 -7.0695,18.739 -11.119,26.99 z" />
  <path
     style="fill:none;stroke:#2e3436;stroke-width:1.96899998;stroke-linecap:round"
     inkscape:connector-curvature="0"
     id="path273"
     d="M 61.785,54.44 A 3.3364,2.6238 29.388 1 1 56.1358,55.9531 3.3364,2.6238 29.388 1 1 61.785,54.44 Z" />
  <path
     inkscape:connector-curvature="0"
     style="fill:url(#linearGradient4334);fill-rule:evenodd;stroke:#c17d11"
     id="path275"
     d="m 45.804,79.14 c 0,0 2.4075,-9.3899 4.2814,-13.255 1.8738,-3.8654 6.3041,-11.555 6.3041,-11.555 0,0 1.2782,-1.912 3.3416,-0.895 2.0634,1.017 1.4678,2.9703 1.4678,2.9703 0,0 -3.1117,4.6865 -3.3706,8.3025 -0.14923,2.0844 0.3394,2.9362 0.3394,2.9362 0,0 -8.5696,6.4436 -12.364,11.496 z" />
  <path
     style="fill-opacity:0.6;stroke:#c17d11;stroke-width:0.33500001;stroke-linecap:round"
     inkscape:connector-curvature="0"
     id="path277"
     d="m 52.077,65.84 a 0.54473045,1.2425467 27.633 1 1 -1.0039,-0.43 0.54473045,1.2425467 27.633 0 1 1.0039,0.43 z" />
  <path
     style="fill:#c17d11;fill-rule:evenodd;stroke:#c17d11;stroke-width:0.34299999"
     inkscape:connector-curvature="0"
     id="path279"
     d="m 45.852,78.94 c 1.6988,-4.3791 2.9113,-8.0673 5.0356,-12.112" />
  <path
     inkscape:connector-curvature="0"
     style="fill:url(#linearGradient4329);fill-rule:evenodd"
     id="path281"
     d="m 59.437,54.74 c -0.17821,0.1447 -0.29683,0.2952 -0.30534,0.3053 -5e-5,1e-4 -0.02539,-10e-5 -0.02544,0 -0.06143,0.1067 -4.405,7.679 -6.2085,11.399 -0.61451,1.2676 -1.3455,3.3136 -2.0101,5.4198 2.7494,-2.4748 5.1081,-4.2483 5.7505,-4.7328 -0.12267,-0.6032 -0.20766,-1.4464 -0.12722,-2.5699 0.15355,-2.1448 1.0634,-4.3076 1.9084,-6.005 0.76484,-1.5364 1.367,-2.4403 1.5012,-2.6462 0.009,-0.036 0.0442,-0.172 0,-0.4326 C 59.87953,55.236 59.83432,55 59.43705,54.7397 Z" />
  <path
     inkscape:connector-curvature="0"
     style="fill:url(#radialGradient13606)"
     id="path283"
     d="M 71.156,27.8 A 1.8506,14.805 27.587 1 1 57.443,54.04 1.8506,14.805 27.587 0 1 71.156,27.8 Z" />
  <g
     id="g14291">
    <path
       d="m 5.2922679,73.685059 0,5.0663 c 0,6.668 5.3645011,12.032 12.0320011,12.032 l 61.049,0 c 6.668,0 12.032,-5.3645 12.032,-12.032 l 0,-5.0663 c 0,6.6681 -5.3645,12.032 -12.032,12.032 l -61.049,0 c -6.668,0 -12.0320011,-5.3643 -12.0320011,-12.032 z"
       id="path64"
       inkscape:connector-curvature="0"
       style="opacity:0.4;fill:url(#linearGradient14237);fill-opacity:1" />
    <path
       inkscape:connector-curvature="0"
       id="path14214"
       d="m 5.2929688,72.717592 0,1.15039 c 0,6.667718 5.3632502,12.031248 12.0312502,12.031248 l 61.048828,0 c 6.6675,0 12.03125,-5.36313 12.03125,-12.031248 l 0,-1.15039 c 0,6.668098 -5.36375,12.031248 -12.03125,12.031248 l -61.048828,0 c -6.668,0 -12.0312502,-5.36355 -12.0312502,-12.031248 z"
       style="opacity:0.5;fill:url(#linearGradient14245);fill-opacity:1" />
  </g>
</svg>
