<svg height="96" width="96" xmlns="http://www.w3.org/2000/svg" xmlns:xlink="http://www.w3.org/1999/xlink" xmlns:sodipodi="http://sodipodi.sourceforge.net/DTD/sodipodi-0.dtd" xmlns:inkscape="http://www.inkscape.org/namespaces/inkscape">
 <defs>
  <linearGradient x2="0" y1="90" y2="5.988" gradientUnits="userSpaceOnUse" id="linearGradient9707" gradientTransform="matrix(1.0287 0 0 1.1307 103.05 -1068.3)">
   <stop stop-color="#cda060"/>
   <stop stop-color="#dbbb8e" offset="1"/>
  </linearGradient>
  <linearGradient x1="6" x2="24" gradientUnits="userSpaceOnUse" id="linearGradient9709" gradientTransform="matrix(1 0 0 1 0 -1)">
   <stop stop-color="#c4875e"/>
   <stop stop-color="#c4875e" stop-opacity="0" offset="1"/>
  </linearGradient>
  <linearGradient x1="6" x2="24" gradientUnits="userSpaceOnUse" id="linearGradient9713" gradientTransform="matrix(1 0 0 1 0 1)">
   <stop stop-color="#784421"/>
   <stop stop-color="#784421" stop-opacity="0" offset="1"/>
  </linearGradient>
  <linearGradient x1="5" x2="11.227" gradientUnits="userSpaceOnUse" id="linearGradient9733" gradientTransform="matrix(1.0287 0 0 -1.1307 104.08 1085.6)">
   <stop stop-color="#72401f"/>
   <stop stop-color="#72401f" stop-opacity="0" offset="1"/>
  </linearGradient>
  <linearGradient x2="0" y1="80" y2="88" gradientUnits="userSpaceOnUse" id="linearGradient9735" gradientTransform="matrix(0.97605 0 0 -1.4644 107.79 1102.4)">
   <stop stop-color="#9f7043"/>
   <stop stop-color="#9f7043" stop-opacity="0.535" offset="1"/>
  </linearGradient>
  <linearGradient x2="0" y1="88" y2="80" gradientUnits="userSpaceOnUse" id="linearGradient9737" gradientTransform="matrix(0.95072 0 0 -1.6072 108 1113.2)">
   <stop stop-color="#fff"/>
   <stop stop-color="#eceadb" offset="0.5"/>
   <stop stop-color="#d8d3a6" offset="1"/>
  </linearGradient>
  <linearGradient x1="32" x2="16" gradientUnits="userSpaceOnUse" id="linearGradient9739" gradientTransform="matrix(0.97605 0 0 -1.6072 107.79 1113.2)">
   <stop stop-color="#fff"/>
   <stop stop-color="#fff" stop-opacity="0" offset="1"/>
  </linearGradient>
  <clipPath clipPathUnits="userSpaceOnUse" id="clipPath9741">
   <rect x="109.93" rx="12.04" y="967.78" height="85.11" width="85.11"/>
  </clipPath>
  <path d="m11 63c-2.77 0-5 2.23-5 5v1c0-2.77 2.23-5 5-5h13v-1h-13z" fill="url(#linearGradient9709)" color="#000000" id="SVGCleanerId_0" opacity="0.5"/>
  <path d="m11 62c-2.77 0-5 2.23-5 5v1c0-2.77 2.23-5 5-5h13v-1h-13z" fill="url(#linearGradient9709)" color="#000000" id="SVGCleanerId_1" opacity="0.2"/>
  <path d="m11 65c-2.77 0-5 2.23-5 5v1c0-2.77 2.23-5 5-5h13v-1h-13z" fill="url(#linearGradient9713)" color="#000000" id="SVGCleanerId_2" opacity="0.3"/>
  <path d="m11 64c-2.77 0-5 2.23-5 5v1c0-2.77 2.23-5 5-5h13v-1h-13z" fill="url(#linearGradient9713)" color="#000000" id="SVGCleanerId_3" opacity="0.6"/>
 </defs>
 <g transform="matrix(1 0 0 1 0 -956.36)">
  <rect x="3" rx="12.724" y="959.35" fill-opacity="0.02" height="89.98" width="89.98"/>
  <rect x="3.608" rx="12.552" y="959.96" fill-opacity="0.039" height="88.76" width="88.76"/>
  <rect x="4.216" rx="12.38" y="960.57" fill-opacity="0.078" height="87.55" width="87.55"/>
  <rect x="4.824" rx="12.208" y="961.18" fill-opacity="0.157" height="86.33" width="86.33"/>
  <g clip-path="url(#clipPath9741)" transform="matrix(1 0 0 1 -104.5 -6)">
   <rect x="119.39" rx="6.172" ry="6.784" y="-1061.5" fill="url(#linearGradient9707)" height="94.98" width="76.25" transform="matrix(1 0 0 -1 0 0)"/>
   <path d="m115.4 1061.5c-3.4195 0-6.1724-3.0256-6.1724-6.784v-81.409c0-3.7584 2.7529-6.7841 6.1724-6.7841h12.345v94.977h-12.345z" fill="#a05a2c"/>
   <g transform="matrix(1.0287 0 0 -1.1307 103.05 1068.3)">
    <g transform="matrix(1 0 0 1 0 0)">
     <use xlink:href="#SVGCleanerId_0"/>
     <use xlink:href="#SVGCleanerId_1"/>
     <use xlink:href="#SVGCleanerId_2"/>
     <use xlink:href="#SVGCleanerId_3"/>
    </g>
    <g transform="matrix(1 0 0 1 0 -20)">
     <use xlink:href="#SVGCleanerId_0"/>
     <use xlink:href="#SVGCleanerId_1"/>
     <use xlink:href="#SVGCleanerId_2"/>
     <use xlink:href="#SVGCleanerId_3"/>
    </g>
    <g transform="matrix(1 0 0 1 0 -40)">
     <use xlink:href="#SVGCleanerId_0"/>
     <use xlink:href="#SVGCleanerId_1"/>
     <use xlink:href="#SVGCleanerId_2"/>
     <use xlink:href="#SVGCleanerId_3"/>
    </g>
   </g>
   <path d="m115.4 1061.5c-3.4195 0-6.1724-3.0256-6.1724-6.784v-81.409c0-3.7584 2.7529-6.7841 6.1724-6.7841h9.3872v94.977h-9.3872z" fill="url(#linearGradient9733)"/>
   <rect x="127.74" y="-1061.5" fill="#fff" height="94.98" opacity="0.1" width="1.029" transform="matrix(1 0 0 -1 0 0)"/>
   <rect x="126.71" y="-1061.5" height="94.98" opacity="0.1" width="1.029" transform="matrix(1 0 0 -1 0 0)"/>
   <path d="m195.64 991.08c0-3.2451-1.7413-5.8575-3.9042-5.8575h-3.9042-67.347c-2.7036 0-4.8802-3.2656-4.8802-7.3219 0-3.5493 1.6763-6.5041 3.9042-7.1846 0.12233-0.0303 0.2412-0.0727 0.36602-0.0914 0.0403-0.007 0.0814 0.005 0.122 0 0.15891-0.0191 0.3257-0.0458 0.48802-0.0458h67.439 1.8606c3.2444 0 5.8563 3.9187 5.8563 8.7863z" fill="url(#linearGradient9735)"/>
   <path d="m120.36 984.6c-2.12 0-3.7732-2.7947-3.7732-6.3787 0-3.5841 1.6531-6.3787 3.7732-6.3787h66.848c1.4345 0.25763 2.5551 2.2759 2.5551 4.7715v7.986z" fill="url(#linearGradient9737)" color="#000000"/>
   <path d="m195.64 992.69c0-3.5616-1.7413-6.4289-3.9042-6.4289h-4.8802v-0.0505h-67.347c-2.1765 0-3.8737-2.7947-3.8737-6.3788 0-0.27599 0.0415-0.53789 0.061-0.80363 0.2346 3.1849 1.8038 5.5751 3.8127 5.5751h72.228v0.0503c2.1629 0 3.9042 2.8672 3.9042 6.4289v1.6073z" color="#000000" opacity="0.1"/>
   <path d="m195.64 994.3c0-3.5616-1.7413-6.4289-3.9042-6.4289h-4.8802v-0.0505h-67.347c-2.1765 0-3.8737-2.7947-3.8737-6.3787 0-0.27601 0.0415-0.53792 0.061-0.80364 0.2346 3.1849 1.8038 5.5751 3.8127 5.5751h72.228v0.0505c2.1629 0 3.9042 2.8673 3.9042 6.4289v1.6073z" fill="url(#linearGradient9739)" color="#000000" opacity="0.1"/>
   <path d="m119.41 984.6c-2.1201 0-3.7732-2.7947-3.7732-6.3787 0-3.5841 1.6531-6.3787 3.7732-6.3787h0.95071c-2.12 0-3.7732 2.7947-3.7732 6.3787s1.6531 6.3787 3.7732 6.3787h-0.95071z" color="#000000" opacity="0.5"/>
   <path d="m189.76 984.4-71.037-0.45204 71.037-0.20091v0.65295zm0-1.0548-72.671-1.9588c-0.002-0.005-0.0277 0.005-0.0298 0-0.004-0.013 0.004-0.0371 0-0.0503l72.7 0.35157v1.6575zm0-3.2647-73.057-0.40183 73.057-0.20088v0.60271zm-73.176-2.0091 73.176-1.6072c0.00094 0.0509 0 0.0992 0 0.15064v0.85384l-73.176 0.60271zm0.14856-1.557c0.0245-0.15472 0.0581-0.30248 0.0891-0.45205l50.537 0.15067-50.626 0.30136zm72.938-1.0045-72.374-1.0547c0.009-0.0193 0.0213-0.0309 0.0298-0.0503l72.166 0.20089c0.0221 0.0805 0.0406 0.16723 0.0594 0.25114 0.0488 0.20881 0.0876 0.43054 0.11884 0.65294zm-0.44565-1.7077-71.334-0.4018 70.65-0.20092 0.47535 0.20092c0.0717 0.13253 0.14541 0.25635 0.20798 0.4018z" opacity="0.15"/>
   <path d="m189.76 984.6v-7.986c0-2.4956-1.1206-4.5138-2.5551-4.7715h0.95072c1.4345 0.25763 2.5551 2.2759 2.5551 4.7715v7.986h-0.95072z" color="#000000" opacity="0.2"/>
   <path d="m195.64 991.08c0-3.5616-1.7413-6.4289-3.9042-6.4289h-4.8802v-0.0503h-66.371c-2.1765 0-3.8737-2.7947-3.8737-6.3787 0-0.27598 0.0415-0.53788 0.061-0.80362 0.2346 3.1849 1.8038 5.5751 3.8127 5.5751h71.251v0.0503c2.1629 0 3.9042 2.8672 3.9042 6.4289z" color="#000000" opacity="0.25"/>
   <path d="m195.64 989.47c0-3.5616-1.7413-6.4289-3.9042-6.4289h-4.8802v-0.0503h-66.371c-2.1765 0-3.8737-2.7947-3.8737-6.3787 0-0.27598 0.0415-0.53788 0.061-0.80363 0.2346 3.1849 1.8038 5.5751 3.8127 5.5751h71.251v0.0503c2.1629 0 3.9042 2.8673 3.9042 6.429z" color="#000000" opacity="0.1"/>
  </g>
  <path d="m5.4316 1029.8v5.0663c0 6.668 5.3645 12.032 12.032 12.032h61.049c6.668 0 12.032-5.3645 12.032-12.032v-5.0663c0 6.6681-5.3645 12.032-12.032 12.032h-61.049c-6.668 0-12.032-5.3643-12.032-12.032z" fill-opacity="0.17"/>
  <path d="m5.4316 1033.9v1.0133c0 6.668 5.3645 12.032 12.032 12.032h61.049c6.668 0 12.032-5.3645 12.032-12.032v-1.0133c0 6.6681-5.3645 12.032-12.032 12.032h-61.049c-6.668 0-12.032-5.3644-12.032-12.032z" fill-opacity="0.098"/>
  <path d="m27.054 1038.4v-0.494-5.1551-0.494h0.48856 4.4581v-4.1056h-1.4657v2.0991 0.4939h-0.48856-2.5039-0.48856v-0.4939-2.5929-0.494h0.48856 2.0153v-32.938h-2.0153-0.48856v-0.49392-2.6239-0.49391h0.48856 2.5039 0.48856v0.49391 2.13h1.4657v-4.1056h-4.4581-0.48856v-0.49391-5.1552-0.49391h0.48856 4.9467 0.48856v0.49391 4.6613h4.1528v-1.6361h-2.1069-0.48856v-0.4939-2.5313-0.49391h0.48856 2.5955 0.48856v0.49391 2.0374h34.625v-2.0374-0.49391h0.48856 2.626 0.48856v0.49391 2.5313 0.4939h-0.48856-2.1375v1.6361h4.1528v-4.6613-0.49391h0.48856 4.9467 0.48855v0.49391 5.1552 0.49391h-0.48855-4.4581v4.1056h1.4962v-2.13-0.49391h0.48856 2.4733 0.48855v0.49391 2.6239 0.49392h-0.48855-1.9848v32.938h1.9848 0.48855v0.494 2.5929 0.4939h-0.48855-2.4733-0.48856v-0.4939-2.0991h-1.4962v4.1056h4.4581 0.48855v0.494 5.1551 0.494h-0.48855-4.9467-0.48856v-0.494-4.6612h-4.1528v1.6361h2.1375 0.48855v0.463 2.5621 0.494h-0.48855-2.626-0.48856v-0.494-2.0682h-34.625v2.0682 0.494h-0.48856-2.5955-0.48856v-0.494-2.5621-0.463h0.48856 2.1069v-1.6361h-4.1528v4.6612 0.494h-0.48856-4.9467zm0.97712-0.9878h3.9696v-4.1674h-3.9696zm7.4811 0h1.6184v-1.5744h-1.6184zm38.197 0h1.6489v-1.5744h-1.6489zm5.1299 0h3.9696v-4.1674h-3.9696zm-40.732-2.5313h34.625v-1.6361h-2.0458-0.48856v-0.4939-2.5622-0.4631h0.48856 2.5344 0.48856v0.4631 2.0682h4.1528v-4.1056h-2.1069-0.48856v-0.4938-2.5623-0.463h0.48856 2.5955 0.48856v0.463 2.0683h1.4962v-32.938h-1.4962v2.0374 0.49391h-0.48856-2.5955-0.48856v-0.49391-2.5313-0.49391h0.48856 2.1069v-4.1056h-4.1528v2.0374 0.49391h-0.48856-2.5344-0.48856v-0.49391-2.5313-0.49391h0.48856 2.0458v-1.6361h-34.625v1.6361h2.0764 0.48856v0.49391 2.5313 0.49391h-0.48856-2.5649-0.48856v-0.49391-2.0374h-4.1528v4.1056h2.1374 0.48856v0.49391 2.5313 0.49391h-0.48856-2.626-0.48856v-0.49391-2.0374h-1.4657v32.938h1.4657v-2.0683-0.463h0.48856 2.626 0.48856v0.463 2.5623 0.4938h-0.48856-2.1374v4.1056h4.1528v-2.0682-0.4631h0.48856 2.5649 0.48856v0.4631 2.5622 0.4939h-0.48856-2.0764zm0-2.624h1.5878v-1.5743h-1.5878zm33.067 0h1.5573v-1.5743h-1.5573zm-43.144-2.4695h1.5267v-1.6361h-1.5267zm53.282 0h1.4962v-1.6361h-1.4962zm-48.335-2.6239h1.6489v-1.5743h-1.6489zm43.266 0h1.6184v-1.5743h-1.6184zm-43.266-31.394h1.6489v-1.5435h-1.6489zm43.266 0h1.6184v-1.5435h-1.6184zm-48.213-2.5313h1.5267v-1.6361h-1.5267zm53.282 0h1.4962v-1.6361h-1.4962zm-43.205-2.5622h1.5878v-1.5435h-1.5878zm33.067 0h1.5573v-1.5435h-1.5573zm-43.144-2.5313h3.9696v-4.1674h-3.9696zm50.808 0h3.9696v-4.1674h-3.9696zm-43.327-2.6239h1.6184v-1.5435h-1.6184zm38.197 0h1.6489v-1.5435h-1.6489z" fill="#784421" fill-rule="evenodd" opacity="0.559"/>
  <path d="m43.509 999.83h-1.0629l-5.8205 14.754c-0.50614 1.316-0.60736 1.4931-0.98696 1.898-0.4049 0.4809-1.1135 0.7845-1.7968 0.7845h-0.10115v1.1894h6.7062v-1.1894h-0.50612c-1.3666 0-2.0498-0.4808-2.0498-1.4424 0-0.3038 0.07594-0.658 0.22775-1.0629l0.83512-2.227h6.7062l1.3665 3.3911c0.15185 0.3795 0.20245 0.5567 0.20245 0.6832 0 0.405-0.63265 0.658-1.569 0.658h-1.0629v1.1894h7.845v-1.1894h-0.35431c-1.2653 0-1.5437-0.2025-2.1257-1.6196l-6.4531-15.817m-1.24 4.1504 2.8596 7.187h-5.6686l2.809-7.187m14.517-4.1756-4.3527 0.2783v1.0882h0.88571c0.93635 0 1.0882 0.1772 1.0882 1.2654v9.8441c0 3.3911-0.12654 5.0361-0.45552 6.5292h0.96163l1.24-1.974c1.0376 1.3665 2.227 1.9993 3.796 1.9993 3.1127 0 5.4409-2.7078 5.4409-6.352 0-3.6441-2.1257-6.2001-5.1625-6.2001-1.5437 0-2.48 0.5315-3.4417 1.974v-8.4524m2.9861 7.7691c1.898 0 2.9609 1.8473 2.9609 5.1625 0 3.1886-1.0376 5.0107-2.8849 5.0107-1.9992 0-3.1886-1.8474-3.1886-4.9601 0-3.3658 1.0882-5.2131 3.1127-5.2131m16.339 7.1617c-0.8098 1.8221-1.6702 2.556-2.9862 2.556-2.0245 0-3.2898-1.8474-3.2898-4.8083 0-3.0621 1.24-5.1119 3.1127-5.1119 0.7592 0 1.4172 0.3544 1.4172 0.7593 0 0.076-0.05063 0.1518-0.15184 0.3036-0.4049 0.4809-0.50612 0.7339-0.50612 1.164 0 0.8353 0.63266 1.4173 1.5184 1.4173 0.88572 0 1.5437-0.7086 1.5437-1.7209 0-1.6955-1.6955-3.0115-3.9478-3.0115-3.2898 0-5.6433 2.7078-5.6433 6.4785 0 3.5935 2.151 6.0736 5.289 6.0736 2.2523 0 3.5429-1.0376 4.6311-3.7201l-0.98696-0.3796" fill="#784421"/>
 </g>
</svg>
