<svg height="96" width="96" xmlns="http://www.w3.org/2000/svg" xmlns:xlink="http://www.w3.org/1999/xlink" xmlns:sodipodi="http://sodipodi.sourceforge.net/DTD/sodipodi-0.dtd" xmlns:inkscape="http://www.inkscape.org/namespaces/inkscape">
 <defs>
  <linearGradient id="linearGradient3737-2">
   <stop stop-color="#fff"/>
   <stop stop-color="#fff" stop-opacity="0" offset="1"/>
  </linearGradient>
  <linearGradient id="linearGradient3672">
   <stop stop-color="#fff" stop-opacity="0"/>
   <stop stop-color="#fff" stop-opacity="0" offset="0.3"/>
   <stop stop-color="#fff" stop-opacity="0.484" offset="0.5"/>
   <stop stop-color="#fff" stop-opacity="0" offset="0.753"/>
   <stop stop-color="#fff" stop-opacity="0" offset="1"/>
  </linearGradient>
  <linearGradient id="linearGradient3650">
   <stop stop-opacity="0"/>
   <stop stop-opacity="0" offset="0.3"/>
   <stop stop-opacity="0.118" offset="0.5"/>
   <stop stop-opacity="0" offset="0.7"/>
   <stop stop-opacity="0" offset="1"/>
  </linearGradient>
  <linearGradient x1="67.07" x2="48" xlink:href="#linearGradient3737-2" y1="78" y2="14" gradientUnits="userSpaceOnUse" id="linearGradient3723" gradientTransform="matrix(1.0841 0 0 0.9419 -4 956.6)"/>
  <linearGradient x1="16" x2="80" gradientUnits="userSpaceOnUse" id="linearGradient3726" gradientTransform="matrix(0.9419 0 0 1.0841 954.72 -97.91)">
   <stop stop-color="#d6d6d6"/>
   <stop stop-color="#eaeaea" offset="1"/>
  </linearGradient>
  <radialGradient cy="90.17" r="42" xlink:href="#linearGradient3737-2" gradientUnits="userSpaceOnUse" id="radialGradient3729" cx="48" gradientTransform="matrix(0.9917 0 0 0.82824 0.434 961.84)"/>
  <linearGradient x1="6" x2="48" xlink:href="#linearGradient3650" y1="48" y2="81.07" gradientUnits="userSpaceOnUse" id="linearGradient3732" gradientTransform="matrix(-0.8569 0 0 0.83164 89.17 961.68)"/>
  <linearGradient x2="0" xlink:href="#linearGradient3737-2" y1="6" y2="63.893" gradientUnits="userSpaceOnUse" id="linearGradient3735" gradientTransform="matrix(0.8569 0 0 0.83164 6.904 961.68)"/>
  <linearGradient x1="6" x2="48" xlink:href="#linearGradient3650" y1="48" y2="81.07" gradientUnits="userSpaceOnUse" id="linearGradient3738" gradientTransform="matrix(0.8569 0 0 0.83164 6.904 961.68)"/>
  <linearGradient x1="13.321" x2="48" xlink:href="#linearGradient3672" y1="48" y2="84.29" gradientUnits="userSpaceOnUse" id="linearGradient3741" gradientTransform="matrix(0.8569 0 0 -0.83164 6.904 1041.5)"/>
  <linearGradient x1="13.321" x2="48" xlink:href="#linearGradient3672" y1="48" y2="84.29" gradientUnits="userSpaceOnUse" id="linearGradient3744" gradientTransform="matrix(-0.8569 0 0 -0.83164 89.17 1041.5)"/>
  <linearGradient x1="63.54" x2="32.07" y1="90" y2="6" gradientUnits="userSpaceOnUse" id="linearGradient3747" gradientTransform="matrix(0.8569 0 0 0.83164 6.904 961.68)">
   <stop stop-color="#b3b3b3"/>
   <stop stop-color="#d2d2d2" offset="1"/>
  </linearGradient>
 </defs>
 <g transform="matrix(1 0 0 1 0 -956.36)">
  <rect x="3" rx="12.724" y="959.35" fill-opacity="0.02" height="89.98" width="89.98"/>
  <rect x="3.608" rx="12.552" y="959.96" fill-opacity="0.039" height="88.76" width="88.76"/>
  <rect x="4.216" rx="12.38" y="960.57" fill-opacity="0.078" height="87.55" width="87.55"/>
  <rect x="4.824" rx="12.208" y="961.18" fill-opacity="0.157" height="86.33" width="86.33"/>
  <rect x="5.432" rx="12.04" y="961.78" fill="#e6e6e6" height="85.11" width="85.11"/>
  <path d="m5.4316 1029.8v5.0663c0 6.668 5.3645 12.032 12.032 12.032h61.049c6.668 0 12.032-5.3645 12.032-12.032v-5.0663c0 6.6681-5.3645 12.032-12.032 12.032h-61.049c-6.668 0-12.032-5.3643-12.032-12.032z" fill-opacity="0.27"/>
  <path d="m5.4316 1033.9v1.0133c0 6.668 5.3645 12.032 12.032 12.032h61.049c6.668 0 12.032-5.3645 12.032-12.032v-1.0133c0 6.6681-5.3645 12.032-12.032 12.032h-61.049c-6.668 0-12.032-5.3644-12.032-12.032z" fill-opacity="0.098"/>
  <rect x="12.05" rx="5.141" ry="4.99" y="966.67" fill="url(#linearGradient3747)" height="69.858" width="71.979"/>
  <path d="m84.025 1001.6v-29.939c0-2.7644-2.2931-4.9898-5.1414-4.9898h-30.848v34.929h35.99z" fill="url(#linearGradient3744)"/>
  <path d="m12.046 1001.6v-29.939c0-2.7644 2.2931-4.9898 5.1414-4.9898h30.848v34.929h-35.99z" fill="url(#linearGradient3741)"/>
  <path d="m12.046 1001.6v29.939c0 2.7644 2.2931 4.9899 5.1414 4.9899h30.848v-34.929h-35.99z" fill="url(#linearGradient3738)"/>
  <path d="m17.187 966.67c-2.8483 0-5.1414 2.2255-5.1414 4.9898v1.6633 56.552 1.6632c0 0.2784 0.03539 0.5412 0.0803 0.8057 0.04173 0.2459 0.08311 0.4964 0.16067 0.7277 0.0087 0.025 0.01791 0.053 0.02682 0.078 0.08475 0.2394 0.20127 0.4554 0.32134 0.6757 0.1239 0.2274 0.27045 0.4454 0.42845 0.6497 0.15799 0.2044 0.32029 0.3938 0.50878 0.5719 0.37699 0.3559 0.80798 0.6773 1.2853 0.9095 0.23868 0.1161 0.4914 0.2054 0.74978 0.2859-0.21954-0.084-0.41706-0.1965-0.61589-0.3119h-0.02682c-0.02734-0.015-0.05338-0.035-0.0803-0.053-0.10316-0.064-0.19796-0.1359-0.29456-0.2078-0.09097-0.067-0.18276-0.134-0.26778-0.2079-0.15247-0.1344-0.29774-0.2873-0.42845-0.4419-0.09219-0.1082-0.18714-0.2206-0.26778-0.3379-0.02151-0.032-0.03291-0.071-0.05356-0.1038-0.05553-0.086-0.11159-0.1702-0.16067-0.2599-0.08656-0.162-0.17624-0.3457-0.241-0.5198-0.0068-0.018-0.02023-0.034-0.02682-0.053-0.02725-0.077-0.03067-0.1554-0.05355-0.234-0.02597-0.088-0.06033-0.1687-0.0803-0.2598-0.06247-0.284-0.10711-0.5806-0.10711-0.8837v-1.6632-56.552-1.6633c0-2.3135 1.9007-4.1582 4.2845-4.1582h1.7138 58.269 1.7138c2.3838 0 4.2845 1.8447 4.2845 4.1582v1.6633 56.552 1.6632c0 0.3031-0.04465 0.5997-0.10711 0.8837-0.03788 0.172-0.07574 0.3307-0.13389 0.4938-0.0068 0.018-0.01997 0.034-0.02682 0.053-0.05372 0.1445-0.11858 0.3056-0.18745 0.4417-0.03565 0.069-0.0677 0.1414-0.10711 0.2079-0.04679 0.081-0.10863 0.1568-0.16067 0.2339-0.08064 0.1173-0.1756 0.2297-0.26778 0.3379-0.12268 0.1451-0.25976 0.2886-0.40167 0.4158-0.0096 0.01-0.01715 0.017-0.02682 0.026-0.11858 0.1044-0.24429 0.1949-0.37489 0.2858-0.08789 0.061-0.17508 0.1276-0.26778 0.182h-0.02682c-0.19883 0.1154-0.39636 0.2285-0.61589 0.3118 0.25838-0.081 0.5111-0.1697 0.74978-0.2858 0.47737-0.2322 0.90835-0.5537 1.2853-0.9096 0.18849-0.1781 0.35079-0.3675 0.50878-0.5717 0.15799-0.2045 0.30455-0.4223 0.42845-0.6498 0.12007-0.2204 0.23662-0.4364 0.32134-0.6758 0.009-0.026 0.01825-0.053 0.02682-0.078 0.07755-0.2313 0.11894-0.4819 0.16067-0.7278 0.0449-0.2644 0.0803-0.5273 0.0803-0.8056v-1.6633-56.552-1.6633c0-2.7644-2.2931-4.9898-5.1414-4.9898h-61.696z" fill="url(#linearGradient3735)" opacity="0.5"/>
  <path d="m84.025 1001.6v29.939c0 2.7644-2.2931 4.9899-5.1414 4.9899h-30.848v-34.929h35.99z" fill="url(#linearGradient3732)"/>
  <path d="m17.187 1036.5c-2.8483 0-5.1414-2.2255-5.1414-4.9899v-1.6632-56.552-1.6633c0-0.27837 0.03539-0.54115 0.0803-0.80565 0.04173-0.24584 0.08311-0.49642 0.16067-0.72769 0.0087-0.0253 0.01791-0.0529 0.02682-0.0779 0.08475-0.23932 0.20127-0.45529 0.32134-0.67571 0.1239-0.22746 0.27045-0.44545 0.42845-0.64972 0.15799-0.20429 0.32029-0.39376 0.50878-0.57176 0.37699-0.35599 0.80798-0.67739 1.2853-0.9096 0.23868-0.11611 0.4914-0.20538 0.74978-0.28588-0.21954 0.0833-0.41706 0.19649-0.61589 0.31187-0.0061 0.003-0.02048-0.004-0.02682 0-0.02734 0.0161-0.05338 0.0354-0.0803 0.052-0.10316 0.0638-0.19796 0.13599-0.29456 0.20791-0.09097 0.0672-0.18276 0.13399-0.26778 0.20792-0.15247 0.13425-0.29774 0.28724-0.42845 0.44181-0.09219 0.10831-0.18714 0.22062-0.26778 0.33785-0.02151 0.0319-0.03291 0.0714-0.05356 0.10395-0.05553 0.0857-0.11159 0.17009-0.16067 0.25989-0.08656 0.16193-0.17624 0.34571-0.241 0.51977-0.0068 0.0182-0.02023 0.0337-0.02682 0.052-0.02725 0.0764-0.03067 0.15537-0.05355 0.2339-0.02597 0.0887-0.06033 0.16884-0.0803 0.25989-0.06247 0.28401-0.10711 0.58065-0.10711 0.88361v1.6633 56.552 1.6632c0 2.3135 1.9007 4.1583 4.2845 4.1583h1.7138 58.269 1.7138c2.3838 0 4.2845-1.8448 4.2845-4.1583v-1.6632-56.552-1.6633c0-0.30296-0.04465-0.5996-0.10711-0.88361-0.03788-0.17207-0.07574-0.33071-0.13389-0.49379-0.0068-0.0183-0.01997-0.0338-0.02682-0.052-0.05372-0.14449-0.11858-0.30558-0.18745-0.4418-0.03565-0.0689-0.0677-0.14134-0.10711-0.20791-0.04679-0.0808-0.10863-0.15664-0.16067-0.2339-0.08064-0.11723-0.1756-0.22954-0.26778-0.33785-0.12268-0.14509-0.25976-0.28859-0.40167-0.41583-0.0096-0.009-0.01715-0.0176-0.02682-0.026-0.11858-0.10441-0.24429-0.19497-0.37489-0.28588-0.08789-0.0608-0.17508-0.12753-0.26778-0.18191-0.0061-0.004-0.0204 0.003-0.02682 0-0.19883-0.11538-0.39636-0.22852-0.61589-0.31188 0.25838 0.0805 0.5111 0.16978 0.74978 0.28588 0.47737 0.23222 0.90835 0.55363 1.2853 0.90961 0.18849 0.178 0.35079 0.36747 0.50878 0.57175s0.30455 0.42227 0.42845 0.64973c0.12007 0.22042 0.23662 0.43639 0.32134 0.67571 0.009 0.0257 0.01825 0.0522 0.02682 0.0779 0.07755 0.23126 0.11894 0.48185 0.16067 0.72769 0.0449 0.2645 0.0803 0.52728 0.0803 0.80565v1.6633 56.552 1.6632c0 2.7644-2.2931 4.9899-5.1414 4.9899h-61.696z" fill="url(#radialGradient3729)" opacity="0.2"/>
  <rect x="969.79" rx="5.48" ry="6.308" y="-82.73" fill="url(#linearGradient3726)" height="69.38" width="60.28" transform="matrix(0 1 -1 0 0 0)"/>
  <path d="m19.645 969.79c-3.4944 0-6.3014 2.4388-6.3014 5.4748v49.332c0 3.036 2.807 5.4747 6.3014 5.4747h56.78c3.4944 0 6.3014-2.4387 6.3014-5.4747v-49.332c0-3.036-2.807-5.4748-6.3014-5.4748h-56.78zm1.2874 1.8838h54.206c3.003 0 5.4206 2.1004 5.4206 4.7095v47.095c0 2.609-2.4176 4.7095-5.4206 4.7095h-54.206c-3.003 0-5.4206-2.1005-5.4206-4.7095v-47.095c0-2.6091 2.4176-4.7095 5.4206-4.7095z" fill="url(#linearGradient3723)"/>
  <path d="m50.671 53.085c-3.7457 0.000014-6.3407 0.42833-7.7852 1.2849-1.4445 0.85664-2.1668 2.3179-2.1668 4.3839-0.000008 1.6461 0.53748 2.9562 1.6125 3.9304 1.0918 0.95741 2.5699 1.4361 4.4343 1.4361 2.5699 0.000003 4.6275-0.90702 6.1728-2.7211 1.5621-1.8308 2.3431-4.2579 2.3431-7.2813v-1.033h-4.6107m9.2466-1.9148v16.1h-4.6359v-4.2831c-1.0582 1.7133-2.3767 2.9814-3.9556 3.8044-1.5789 0.80624-3.5105 1.2094-5.7948 1.2094-2.889-0.000001-5.1902-0.80624-6.9034-2.4187-1.6965-1.6293-2.5447-3.8044-2.5447-6.5255-0.000003-3.1746 1.0582-5.5681 3.1746-7.1806 2.1332-1.6125 5.3077-2.4187 9.5237-2.4187h6.5003v-0.45351c-0.000023-2.1332-0.70548-3.7792-2.1164-4.9382-1.3941-1.1757-3.3593-1.7636-5.8956-1.7636-1.6125 0.000025-3.183 0.19319-4.7115 0.57948-1.5285 0.38635-2.9982 0.96583-4.4091 1.7385v-4.2831c1.6965-0.65504 3.3425-1.1421 4.9382-1.4613 1.5957-0.3359 3.1494-0.50387 4.6611-0.5039 4.0816 0.000029 7.1302 1.0582 9.1458 3.1746s3.0234 5.3246 3.0234 9.6245m-15.621-25.17 7.105 9.4229h-3.8548l-8.2136-9.4229h4.9634" fill="#666" opacity="0.9" transform="matrix(0.99027 0 0 0.96109 0.703 953.03)"/>
 </g>
</svg>
