<?xml version="1.0" encoding="UTF-8" standalone="no"?>
<svg
   xmlns:dc="http://purl.org/dc/elements/1.1/"
   xmlns:cc="http://creativecommons.org/ns#"
   xmlns:rdf="http://www.w3.org/1999/02/22-rdf-syntax-ns#"
   xmlns:svg="http://www.w3.org/2000/svg"
   xmlns="http://www.w3.org/2000/svg"
   xmlns:xlink="http://www.w3.org/1999/xlink"
   xmlns:sodipodi="http://sodipodi.sourceforge.net/DTD/sodipodi-0.dtd"
   xmlns:inkscape="http://www.inkscape.org/namespaces/inkscape"
   height="96"
   width="96"
   id="svg148"
   version="1.1"
   inkscape:version="0.91 r13725"
   sodipodi:docname="accessories-dictionary.svg">
  <metadata
     id="metadata278">
    <rdf:RDF>
      <cc:Work
         rdf:about="">
        <dc:format>image/svg+xml</dc:format>
        <dc:type
           rdf:resource="http://purl.org/dc/dcmitype/StillImage" />
      </cc:Work>
    </rdf:RDF>
  </metadata>
  <sodipodi:namedview
     pagecolor="#ffffff"
     bordercolor="#666666"
     borderopacity="1"
     objecttolerance="10"
     gridtolerance="10"
     guidetolerance="10"
     inkscape:pageopacity="0"
     inkscape:pageshadow="2"
     inkscape:window-width="640"
     inkscape:window-height="480"
     id="namedview276"
     showgrid="false"
     inkscape:zoom="2.4583333"
     inkscape:cx="48"
     inkscape:cy="48"
     inkscape:current-layer="svg148" />
  <defs
     id="defs150">
    <linearGradient
       x2="0"
       y1="90"
       y2="5.988"
       gradientUnits="userSpaceOnUse"
       id="linearGradient9707"
       gradientTransform="matrix(1.0287,0,0,1.1307,103.05,-1068.3)">
      <stop
         stop-color="#cda060"
         id="stop153" />
      <stop
         stop-color="#dbbb8e"
         offset="1"
         id="stop155" />
    </linearGradient>
    <linearGradient
       x1="6"
       x2="24"
       gradientUnits="userSpaceOnUse"
       id="linearGradient9709"
       gradientTransform="matrix(1 0 0 1 0 -1)">
      <stop
         stop-color="#c4875e"
         id="stop158" />
      <stop
         stop-color="#c4875e"
         stop-opacity="0"
         offset="1"
         id="stop160" />
    </linearGradient>
    <linearGradient
       x1="6"
       x2="24"
       gradientUnits="userSpaceOnUse"
       id="linearGradient9713"
       gradientTransform="matrix(1 0 0 1 0 1)">
      <stop
         stop-color="#784421"
         id="stop163" />
      <stop
         stop-color="#784421"
         stop-opacity="0"
         offset="1"
         id="stop165" />
    </linearGradient>
    <linearGradient
       x1="5"
       x2="11.227"
       gradientUnits="userSpaceOnUse"
       id="linearGradient9733"
       gradientTransform="matrix(1.0287,0,0,-1.1307,104.08,1085.6)">
      <stop
         stop-color="#72401f"
         id="stop168" />
      <stop
         stop-color="#72401f"
         stop-opacity="0"
         offset="1"
         id="stop170" />
    </linearGradient>
    <linearGradient
       x2="0"
       y1="80"
       y2="88"
       gradientUnits="userSpaceOnUse"
       id="linearGradient9735"
       gradientTransform="matrix(0.97605,0,0,-1.4644,107.79,1102.4)">
      <stop
         stop-color="#9f7043"
         id="stop173" />
      <stop
         stop-color="#9f7043"
         stop-opacity="0.535"
         offset="1"
         id="stop175" />
    </linearGradient>
    <linearGradient
       x2="0"
       y1="88"
       y2="80"
       gradientUnits="userSpaceOnUse"
       id="linearGradient9737"
       gradientTransform="matrix(0.95072,0,0,-1.6072,108,1113.2)">
      <stop
         stop-color="#fff"
         id="stop178" />
      <stop
         stop-color="#eceadb"
         offset="0.5"
         id="stop180" />
      <stop
         stop-color="#d8d3a6"
         offset="1"
         id="stop182" />
    </linearGradient>
    <linearGradient
       x1="32"
       x2="16"
       gradientUnits="userSpaceOnUse"
       id="linearGradient9739"
       gradientTransform="matrix(0.97605,0,0,-1.6072,107.79,1113.2)">
      <stop
         stop-color="#fff"
         id="stop185" />
      <stop
         stop-color="#fff"
         stop-opacity="0"
         offset="1"
         id="stop187" />
    </linearGradient>
    <clipPath
       clipPathUnits="userSpaceOnUse"
       id="clipPath9741">
      <rect
         x="109.93"
         rx="12.04"
         y="967.78"
         height="85.11"
         width="85.11"
         id="rect190" />
    </clipPath>
    <path
       d="m11 63c-2.77 0-5 2.23-5 5v1c0-2.77 2.23-5 5-5h13v-1h-13z"
       fill="url(#linearGradient9709)"
       color="#000000"
       id="SVGCleanerId_0"
       opacity="0.5" />
    <path
       d="m11 62c-2.77 0-5 2.23-5 5v1c0-2.77 2.23-5 5-5h13v-1h-13z"
       fill="url(#linearGradient9709)"
       color="#000000"
       id="SVGCleanerId_1"
       opacity="0.2" />
    <path
       d="m11 65c-2.77 0-5 2.23-5 5v1c0-2.77 2.23-5 5-5h13v-1h-13z"
       fill="url(#linearGradient9713)"
       color="#000000"
       id="SVGCleanerId_2"
       opacity="0.3" />
    <path
       d="m11 64c-2.77 0-5 2.23-5 5v1c0-2.77 2.23-5 5-5h13v-1h-13z"
       fill="url(#linearGradient9713)"
       color="#000000"
       id="SVGCleanerId_3"
       opacity="0.6" />
    <linearGradient
       inkscape:collect="always"
       xlink:href="#linearGradient14231"
       id="linearGradient14237"
       x1="50.707542"
       y1="81.682442"
       x2="50.707542"
       y2="96.539803"
       gradientUnits="userSpaceOnUse" />
    <linearGradient
       inkscape:collect="always"
       id="linearGradient14231">
      <stop
         style="stop-color:#000000;stop-opacity:1;"
         offset="0"
         id="stop14233" />
      <stop
         style="stop-color:#000000;stop-opacity:0;"
         offset="1"
         id="stop14235" />
    </linearGradient>
    <linearGradient
       inkscape:collect="always"
       xlink:href="#linearGradient14239"
       id="linearGradient14245"
       x1="49.876652"
       y1="87.937508"
       x2="49.876652"
       y2="76.719681"
       gradientUnits="userSpaceOnUse" />
    <linearGradient
       inkscape:collect="always"
       id="linearGradient14239">
      <stop
         style="stop-color:#ffffff;stop-opacity:1;"
         offset="0"
         id="stop14241" />
      <stop
         style="stop-color:#ffffff;stop-opacity:0;"
         offset="1"
         id="stop14243" />
    </linearGradient>
  </defs>
  <rect
     style="fill-opacity:0.02000002"
     id="rect198"
     width="89.980003"
     height="89.980003"
     y="2.9899757"
     rx="12.724"
     x="3" />
  <rect
     style="fill-opacity:0.03900003"
     id="rect200"
     width="88.760002"
     height="88.760002"
     y="3.6000221"
     rx="12.552"
     x="3.608" />
  <rect
     style="fill-opacity:0.078"
     id="rect202"
     width="87.550003"
     height="87.550003"
     y="4.2100072"
     rx="12.38"
     x="4.2160001" />
  <rect
     style="fill-opacity:0.15700001"
     id="rect204"
     width="86.330002"
     height="86.330002"
     y="4.8199925"
     rx="12.208"
     x="4.8239999" />
  <g
     id="g206"
     transform="translate(-104.5,-962.36)"
     clip-path="url(#clipPath9741)">
    <rect
       style="fill:url(#linearGradient9707)"
       id="rect208"
       transform="scale(1,-1)"
       width="76.25"
       height="94.980003"
       y="-1061.5"
       ry="6.7839999"
       rx="6.1719999"
       x="119.39" />
    <path
       style="fill:#a05a2c"
       inkscape:connector-curvature="0"
       id="path210"
       d="m 115.4,1061.5 c -3.4195,0 -6.1724,-3.0256 -6.1724,-6.784 l 0,-81.409 c 0,-3.7584 2.7529,-6.7841 6.1724,-6.7841 l 12.345,0 0,94.977 -12.345,0 z" />
    <g
       id="g212"
       transform="matrix(1.0287,0,0,-1.1307,103.05,1068.3)">
      <g
         id="g214">
        <use
           height="100%"
           width="100%"
           y="0"
           x="0"
           id="use216"
           xlink:href="#SVGCleanerId_0" />
        <use
           height="100%"
           width="100%"
           y="0"
           x="0"
           id="use218"
           xlink:href="#SVGCleanerId_1" />
        <use
           height="100%"
           width="100%"
           y="0"
           x="0"
           id="use220"
           xlink:href="#SVGCleanerId_2" />
        <use
           height="100%"
           width="100%"
           y="0"
           x="0"
           id="use222"
           xlink:href="#SVGCleanerId_3" />
      </g>
      <g
         id="g224"
         transform="translate(0,-20)">
        <use
           height="100%"
           width="100%"
           y="0"
           x="0"
           id="use226"
           xlink:href="#SVGCleanerId_0" />
        <use
           height="100%"
           width="100%"
           y="0"
           x="0"
           id="use228"
           xlink:href="#SVGCleanerId_1" />
        <use
           height="100%"
           width="100%"
           y="0"
           x="0"
           id="use230"
           xlink:href="#SVGCleanerId_2" />
        <use
           height="100%"
           width="100%"
           y="0"
           x="0"
           id="use232"
           xlink:href="#SVGCleanerId_3" />
      </g>
      <g
         id="g234"
         transform="translate(0,-40)">
        <use
           height="100%"
           width="100%"
           y="0"
           x="0"
           id="use236"
           xlink:href="#SVGCleanerId_0" />
        <use
           height="100%"
           width="100%"
           y="0"
           x="0"
           id="use238"
           xlink:href="#SVGCleanerId_1" />
        <use
           height="100%"
           width="100%"
           y="0"
           x="0"
           id="use240"
           xlink:href="#SVGCleanerId_2" />
        <use
           height="100%"
           width="100%"
           y="0"
           x="0"
           id="use242"
           xlink:href="#SVGCleanerId_3" />
      </g>
    </g>
    <path
       inkscape:connector-curvature="0"
       style="fill:url(#linearGradient9733)"
       id="path244"
       d="m 115.4,1061.5 c -3.4195,0 -6.1724,-3.0256 -6.1724,-6.784 l 0,-81.409 c 0,-3.7584 2.7529,-6.7841 6.1724,-6.7841 l 9.3872,0 0,94.977 -9.3872,0 z" />
    <rect
       style="opacity:0.1;fill:#ffffff"
       id="rect246"
       transform="scale(1,-1)"
       width="1.029"
       height="94.980003"
       y="-1061.5"
       x="127.74" />
    <rect
       style="opacity:0.1"
       id="rect248"
       transform="scale(1,-1)"
       width="1.029"
       height="94.980003"
       y="-1061.5"
       x="126.71" />
    <path
       inkscape:connector-curvature="0"
       style="fill:url(#linearGradient9735)"
       id="path250"
       d="m 195.64,991.08 c 0,-3.2451 -1.7413,-5.8575 -3.9042,-5.8575 l -3.9042,0 -67.347,0 c -2.7036,0 -4.8802,-3.2656 -4.8802,-7.3219 0,-3.5493 1.6763,-6.5041 3.9042,-7.1846 0.12233,-0.0303 0.2412,-0.0727 0.36602,-0.0914 0.0403,-0.007 0.0814,0.005 0.122,0 0.15891,-0.0191 0.3257,-0.0458 0.48802,-0.0458 l 67.439,0 1.8606,0 c 3.2444,0 5.8563,3.9187 5.8563,8.7863 z" />
    <path
       inkscape:connector-curvature="0"
       style="color:#000000;fill:url(#linearGradient9737)"
       id="path252"
       d="m 120.36,984.6 c -2.12,0 -3.7732,-2.7947 -3.7732,-6.3787 0,-3.5841 1.6531,-6.3787 3.7732,-6.3787 l 66.848,0 c 1.4345,0.25763 2.5551,2.2759 2.5551,4.7715 l 0,7.986 z" />
    <path
       style="color:#000000;opacity:0.1"
       inkscape:connector-curvature="0"
       id="path254"
       d="m 195.64,992.69 c 0,-3.5616 -1.7413,-6.4289 -3.9042,-6.4289 l -4.8802,0 0,-0.0505 -67.347,0 c -2.1765,0 -3.8737,-2.7947 -3.8737,-6.3788 0,-0.27599 0.0415,-0.53789 0.061,-0.80363 0.2346,3.1849 1.8038,5.5751 3.8127,5.5751 l 72.228,0 0,0.0503 c 2.1629,0 3.9042,2.8672 3.9042,6.4289 l 0,1.6073 z" />
    <path
       inkscape:connector-curvature="0"
       style="color:#000000;opacity:0.1;fill:url(#linearGradient9739)"
       id="path256"
       d="m 195.64,994.3 c 0,-3.5616 -1.7413,-6.4289 -3.9042,-6.4289 l -4.8802,0 0,-0.0505 -67.347,0 c -2.1765,0 -3.8737,-2.7947 -3.8737,-6.3787 0,-0.27601 0.0415,-0.53792 0.061,-0.80364 0.2346,3.1849 1.8038,5.5751 3.8127,5.5751 l 72.228,0 0,0.0505 c 2.1629,0 3.9042,2.8673 3.9042,6.4289 l 0,1.6073 z" />
    <path
       style="color:#000000;opacity:0.5"
       inkscape:connector-curvature="0"
       id="path258"
       d="m 119.41,984.6 c -2.1201,0 -3.7732,-2.7947 -3.7732,-6.3787 0,-3.5841 1.6531,-6.3787 3.7732,-6.3787 l 0.95071,0 c -2.12,0 -3.7732,2.7947 -3.7732,6.3787 0,3.584 1.6531,6.3787 3.7732,6.3787 l -0.95071,0 z" />
    <path
       style="opacity:0.15"
       inkscape:connector-curvature="0"
       id="path260"
       d="m 189.76,984.4 -71.037,-0.45204 71.037,-0.20091 0,0.65295 z m 0,-1.0548 -72.671,-1.9588 c -0.002,-0.005 -0.0277,0.005 -0.0298,0 -0.004,-0.013 0.004,-0.0371 0,-0.0503 l 72.7,0.35157 0,1.6575 z m 0,-3.2647 -73.057,-0.40183 73.057,-0.20088 0,0.60271 z m -73.176,-2.0091 73.176,-1.6072 c 9.4e-4,0.0509 0,0.0992 0,0.15064 l 0,0.85384 -73.176,0.60271 z m 0.14856,-1.557 c 0.0245,-0.15472 0.0581,-0.30248 0.0891,-0.45205 l 50.537,0.15067 -50.626,0.30136 z m 72.938,-1.0045 -72.374,-1.0547 c 0.009,-0.0193 0.0213,-0.0309 0.0298,-0.0503 l 72.166,0.20089 c 0.0221,0.0805 0.0406,0.16723 0.0594,0.25114 0.0488,0.20881 0.0876,0.43054 0.11884,0.65294 z m -0.44565,-1.7077 -71.334,-0.4018 70.65,-0.20092 0.47535,0.20092 c 0.0717,0.13253 0.14541,0.25635 0.20798,0.4018 z" />
    <path
       style="color:#000000;opacity:0.2"
       inkscape:connector-curvature="0"
       id="path262"
       d="m 189.76,984.6 0,-7.986 c 0,-2.4956 -1.1206,-4.5138 -2.5551,-4.7715 l 0.95072,0 c 1.4345,0.25763 2.5551,2.2759 2.5551,4.7715 l 0,7.986 -0.95072,0 z" />
    <path
       style="color:#000000;opacity:0.25"
       inkscape:connector-curvature="0"
       id="path264"
       d="m 195.64,991.08 c 0,-3.5616 -1.7413,-6.4289 -3.9042,-6.4289 l -4.8802,0 0,-0.0503 -66.371,0 c -2.1765,0 -3.8737,-2.7947 -3.8737,-6.3787 0,-0.27598 0.0415,-0.53788 0.061,-0.80362 0.2346,3.1849 1.8038,5.5751 3.8127,5.5751 l 71.251,0 0,0.0503 c 2.1629,0 3.9042,2.8672 3.9042,6.4289 z" />
    <path
       style="color:#000000;opacity:0.1"
       inkscape:connector-curvature="0"
       id="path266"
       d="m 195.64,989.47 c 0,-3.5616 -1.7413,-6.4289 -3.9042,-6.4289 l -4.8802,0 0,-0.0503 -66.371,0 c -2.1765,0 -3.8737,-2.7947 -3.8737,-6.3787 0,-0.27598 0.0415,-0.53788 0.061,-0.80363 0.2346,3.1849 1.8038,5.5751 3.8127,5.5751 l 71.251,0 0,0.0503 c 2.1629,0 3.9042,2.8673 3.9042,6.429 z" />
  </g>
  <path
     style="opacity:0.55899999;fill:#784421;fill-rule:evenodd"
     inkscape:connector-curvature="0"
     id="path272"
     d="m 27.054,82.04 0,-0.494 0,-5.1551 0,-0.494 0.48856,0 4.4581,0 0,-4.1056 -1.4657,0 0,2.0991 0,0.4939 -0.48856,0 -2.5039,0 -0.48856,0 0,-0.4939 0,-2.5929 0,-0.494 0.48856,0 2.0153,0 0,-32.938 -2.0153,0 -0.48856,0 0,-0.49392 0,-2.6239 0,-0.49391 0.48856,0 2.5039,0 0.48856,0 0,0.49391 0,2.13 1.4657,0 0,-4.1056 -4.4581,0 -0.48856,0 0,-0.49391 0,-5.1552 0,-0.49391 0.48856,0 4.9467,0 0.48856,0 0,0.49391 0,4.6613 4.1528,0 0,-1.6361 -2.1069,0 -0.48856,0 0,-0.4939 0,-2.5313 0,-0.49391 0.48856,0 2.5955,0 0.48856,0 0,0.49391 0,2.0374 34.625,0 0,-2.0374 0,-0.49391 0.48856,0 2.626,0 0.48856,0 0,0.49391 0,2.5313 0,0.4939 -0.48856,0 -2.1375,0 0,1.6361 4.1528,0 0,-4.6613 0,-0.49391 0.48856,0 4.9467,0 0.48855,0 0,0.49391 0,5.1552 0,0.49391 -0.48855,0 -4.4581,0 0,4.1056 1.4962,0 0,-2.13 0,-0.49391 0.48856,0 2.4733,0 0.48855,0 0,0.49391 0,2.6239 0,0.49392 -0.48855,0 -1.9848,0 0,32.938 1.9848,0 0.48855,0 0,0.494 0,2.5929 0,0.4939 -0.48855,0 -2.4733,0 -0.48856,0 0,-0.4939 0,-2.0991 -1.4962,0 0,4.1056 4.4581,0 0.48855,0 0,0.494 0,5.1551 0,0.494 -0.48855,0 -4.9467,0 -0.48856,0 0,-0.494 0,-4.6612 -4.1528,0 0,1.6361 2.1375,0 0.48855,0 0,0.463 0,2.5621 0,0.494 -0.48855,0 -2.626,0 -0.48856,0 0,-0.494 0,-2.0682 -34.625,0 0,2.0682 0,0.494 -0.48856,0 -2.5955,0 -0.48856,0 0,-0.494 0,-2.5621 0,-0.463 0.48856,0 2.1069,0 0,-1.6361 -4.1528,0 0,4.6612 0,0.494 -0.48856,0 -4.9467,0 z m 0.97712,-0.9878 3.9696,0 0,-4.1674 -3.9696,0 z m 7.4811,0 1.6184,0 0,-1.5744 -1.6184,0 z m 38.197,0 1.6489,0 0,-1.5744 -1.6489,0 z m 5.1299,0 3.9696,0 0,-4.1674 -3.9696,0 z m -40.732,-2.5313 34.625,0 0,-1.6361 -2.0458,0 -0.48856,0 0,-0.4939 0,-2.5622 0,-0.4631 0.48856,0 2.5344,0 0.48856,0 0,0.4631 0,2.0682 4.1528,0 0,-4.1056 -2.1069,0 -0.48856,0 0,-0.4938 0,-2.5623 0,-0.463 0.48856,0 2.5955,0 0.48856,0 0,0.463 0,2.0683 1.4962,0 0,-32.938 -1.4962,0 0,2.0374 0,0.49391 -0.48856,0 -2.5955,0 -0.48856,0 0,-0.49391 0,-2.5313 0,-0.49391 0.48856,0 2.1069,0 0,-4.1056 -4.1528,0 0,2.0374 0,0.49391 -0.48856,0 -2.5344,0 -0.48856,0 0,-0.49391 0,-2.5313 0,-0.49391 0.48856,0 2.0458,0 0,-1.6361 -34.625,0 0,1.6361 2.0764,0 0.48856,0 0,0.49391 0,2.5313 0,0.49391 -0.48856,0 -2.5649,0 -0.48856,0 0,-0.49391 0,-2.0374 -4.1528,0 0,4.1056 2.1374,0 0.48856,0 0,0.49391 0,2.5313 0,0.49391 -0.48856,0 -2.626,0 -0.48856,0 0,-0.49391 0,-2.0374 -1.4657,0 0,32.938 1.4657,0 0,-2.0683 0,-0.463 0.48856,0 2.626,0 0.48856,0 0,0.463 0,2.5623 0,0.4938 -0.48856,0 -2.1374,0 0,4.1056 4.1528,0 0,-2.0682 0,-0.4631 0.48856,0 2.5649,0 0.48856,0 0,0.4631 0,2.5622 0,0.4939 -0.48856,0 -2.0764,0 z m 0,-2.624 1.5878,0 0,-1.5743 -1.5878,0 z m 33.067,0 1.5573,0 0,-1.5743 -1.5573,0 z m -43.144,-2.4695 1.5267,0 0,-1.6361 -1.5267,0 z m 53.282,0 1.4962,0 0,-1.6361 -1.4962,0 z m -48.335,-2.6239 1.6489,0 0,-1.5743 -1.6489,0 z m 43.266,0 1.6184,0 0,-1.5743 -1.6184,0 z m -43.266,-31.394 1.6489,0 0,-1.5435 -1.6489,0 z m 43.266,0 1.6184,0 0,-1.5435 -1.6184,0 z m -48.213,-2.5313 1.5267,0 0,-1.6361 -1.5267,0 z m 53.282,0 1.4962,0 0,-1.6361 -1.4962,0 z m -43.205,-2.5622 1.5878,0 0,-1.5435 -1.5878,0 z m 33.067,0 1.5573,0 0,-1.5435 -1.5573,0 z m -43.144,-2.5313 3.9696,0 0,-4.1674 -3.9696,0 z m 50.808,0 3.9696,0 0,-4.1674 -3.9696,0 z m -43.327,-2.6239 1.6184,0 0,-1.5435 -1.6184,0 z m 38.197,0 1.6489,0 0,-1.5435 -1.6489,0 z" />
  <path
     style="fill:#784421"
     inkscape:connector-curvature="0"
     id="path274"
     d="m 43.509,43.47 -1.0629,0 -5.8205,14.754 c -0.50614,1.316 -0.60736,1.4931 -0.98696,1.898 -0.4049,0.4809 -1.1135,0.7845 -1.7968,0.7845 l -0.10115,0 0,1.1894 6.7062,0 0,-1.1894 -0.50612,0 c -1.3666,0 -2.0498,-0.4808 -2.0498,-1.4424 0,-0.3038 0.07594,-0.658 0.22775,-1.0629 l 0.83512,-2.227 6.7062,0 1.3665,3.3911 c 0.15185,0.3795 0.20245,0.5567 0.20245,0.6832 0,0.405 -0.63265,0.658 -1.569,0.658 l -1.0629,0 0,1.1894 7.845,0 0,-1.1894 -0.35431,0 c -1.2653,0 -1.5437,-0.2025 -2.1257,-1.6196 l -6.4531,-15.817 m -1.24,4.1504 2.8596,7.187 -5.6686,0 2.809,-7.187 m 14.517,-4.1756 -4.3527,0.2783 0,1.0882 0.88571,0 c 0.93635,0 1.0882,0.1772 1.0882,1.2654 l 0,9.8441 c 0,3.3911 -0.12654,5.0361 -0.45552,6.5292 l 0.96163,0 1.24,-1.974 c 1.0376,1.3665 2.227,1.9993 3.796,1.9993 3.1127,0 5.4409,-2.7078 5.4409,-6.352 0,-3.6441 -2.1257,-6.2001 -5.1625,-6.2001 -1.5437,0 -2.48,0.5315 -3.4417,1.974 l 0,-8.4524 m 2.9861,7.7691 c 1.898,0 2.9609,1.8473 2.9609,5.1625 0,3.1886 -1.0376,5.0107 -2.8849,5.0107 -1.9992,0 -3.1886,-1.8474 -3.1886,-4.9601 0,-3.3658 1.0882,-5.2131 3.1127,-5.2131 m 16.339,7.1617 c -0.8098,1.8221 -1.6702,2.556 -2.9862,2.556 -2.0245,0 -3.2898,-1.8474 -3.2898,-4.8083 0,-3.0621 1.24,-5.1119 3.1127,-5.1119 0.7592,0 1.4172,0.3544 1.4172,0.7593 0,0.076 -0.05063,0.1518 -0.15184,0.3036 -0.4049,0.4809 -0.50612,0.7339 -0.50612,1.164 0,0.8353 0.63266,1.4173 1.5184,1.4173 0.88572,0 1.5437,-0.7086 1.5437,-1.7209 0,-1.6955 -1.6955,-3.0115 -3.9478,-3.0115 -3.2898,0 -5.6433,2.7078 -5.6433,6.4785 0,3.5935 2.151,6.0736 5.289,6.0736 2.2523,0 3.5429,-1.0376 4.6311,-3.7201 l -0.98696,-0.3796" />
  <g
     id="g14291">
    <path
       d="m 5.2922679,73.685059 0,5.0663 c 0,6.668 5.3645011,12.032 12.0320011,12.032 l 61.049,0 c 6.668,0 12.032,-5.3645 12.032,-12.032 l 0,-5.0663 c 0,6.6681 -5.3645,12.032 -12.032,12.032 l -61.049,0 c -6.668,0 -12.0320011,-5.3643 -12.0320011,-12.032 z"
       id="path64"
       inkscape:connector-curvature="0"
       style="opacity:0.4;fill:url(#linearGradient14237);fill-opacity:1" />
    <path
       inkscape:connector-curvature="0"
       id="path14214"
       d="m 5.2929688,72.717592 0,1.15039 c 0,6.667718 5.3632502,12.031248 12.0312502,12.031248 l 61.048828,0 c 6.6675,0 12.03125,-5.36313 12.03125,-12.031248 l 0,-1.15039 c 0,6.668098 -5.36375,12.031248 -12.03125,12.031248 l -61.048828,0 c -6.668,0 -12.0312502,-5.36355 -12.0312502,-12.031248 z"
       style="opacity:0.5;fill:url(#linearGradient14245);fill-opacity:1" />
  </g>
</svg>
