<?xml version="1.0" encoding="UTF-8" standalone="no"?>
<svg
   xmlns:dc="http://purl.org/dc/elements/1.1/"
   xmlns:cc="http://creativecommons.org/ns#"
   xmlns:rdf="http://www.w3.org/1999/02/22-rdf-syntax-ns#"
   xmlns:svg="http://www.w3.org/2000/svg"
   xmlns="http://www.w3.org/2000/svg"
   xmlns:xlink="http://www.w3.org/1999/xlink"
   xmlns:sodipodi="http://sodipodi.sourceforge.net/DTD/sodipodi-0.dtd"
   xmlns:inkscape="http://www.inkscape.org/namespaces/inkscape"
   height="96"
   width="96"
   id="svg159"
   version="1.1"
   inkscape:version="0.91 r13725"
   sodipodi:docname="alarm-clock.svg">
  <metadata
     id="metadata220">
    <rdf:RDF>
      <cc:Work
         rdf:about="">
        <dc:format>image/svg+xml</dc:format>
        <dc:type
           rdf:resource="http://purl.org/dc/dcmitype/StillImage" />
      </cc:Work>
    </rdf:RDF>
  </metadata>
  <sodipodi:namedview
     pagecolor="#ffffff"
     bordercolor="#666666"
     borderopacity="1"
     objecttolerance="10"
     gridtolerance="10"
     guidetolerance="10"
     inkscape:pageopacity="0"
     inkscape:pageshadow="2"
     inkscape:window-width="640"
     inkscape:window-height="480"
     id="namedview218"
     showgrid="false"
     inkscape:zoom="2.4583333"
     inkscape:cx="48"
     inkscape:cy="48"
     inkscape:current-layer="svg159" />
  <defs
     id="defs161">
    <linearGradient
       x2="0"
       y1="12"
       y2="4"
       gradientUnits="userSpaceOnUse"
       id="linearGradient14369"
       inkscape:collect="always"
       gradientTransform="matrix(3.17073 0 0 3.20792 12.803 14.887)">
      <stop
         stop-color="#f6d4d3"
         stop-opacity="1"
         id="stop164" />
      <stop
         stop-color="#cccccf"
         stop-opacity="0"
         offset="1"
         id="stop166" />
    </linearGradient>
    <linearGradient
       x2="0"
       y1="92.56"
       y2="4.881"
       gradientUnits="userSpaceOnUse"
       id="linearGradient4997"
       inkscape:collect="always">
      <stop
         stop-color="#d4530d"
         stop-opacity="1"
         id="stop169" />
      <stop
         stop-color="#f7ad25"
         stop-opacity="1"
         offset="1"
         id="stop171" />
    </linearGradient>
    <path
       d="M 16,8.5 C 16,12.089851 12.865993,15 9,15 5.1340068,15 2,12.089851 2,8.5 2,4.9101491 5.1340068,2 9,2 c 3.865993,0 7,2.9101491 7,6.5 z"
       fill-opacity="1"
       stroke="none"
       fill-rule="nonzero"
       id="SVGCleanerId_0" />
    <linearGradient
       inkscape:collect="always"
       xlink:href="#linearGradient14231"
       id="linearGradient14237"
       x1="50.707542"
       y1="81.682442"
       x2="50.707542"
       y2="96.539803"
       gradientUnits="userSpaceOnUse" />
    <linearGradient
       inkscape:collect="always"
       id="linearGradient14231">
      <stop
         style="stop-color:#000000;stop-opacity:1;"
         offset="0"
         id="stop14233" />
      <stop
         style="stop-color:#000000;stop-opacity:0;"
         offset="1"
         id="stop14235" />
    </linearGradient>
    <linearGradient
       inkscape:collect="always"
       xlink:href="#linearGradient14239"
       id="linearGradient14245"
       x1="49.876652"
       y1="87.937508"
       x2="49.876652"
       y2="76.719681"
       gradientUnits="userSpaceOnUse" />
    <linearGradient
       inkscape:collect="always"
       id="linearGradient14239">
      <stop
         style="stop-color:#ffffff;stop-opacity:1;"
         offset="0"
         id="stop14241" />
      <stop
         style="stop-color:#ffffff;stop-opacity:0;"
         offset="1"
         id="stop14243" />
    </linearGradient>
  </defs>
  <g
     transform="matrix(1 0 0 1 0 -956.36)"
     id="g174">
    <rect
       x="3.353"
       rx="12.724"
       y="959.35"
       fill-opacity="0.02"
       height="89.98"
       width="89.62"
       id="rect176" />
    <rect
       x="3.959"
       rx="12.552"
       y="959.96"
       fill-opacity="0.039"
       height="88.76"
       width="88.41"
       id="rect178" />
    <rect
       x="4.564"
       rx="12.38"
       y="960.57"
       fill-opacity="0.078"
       height="87.55"
       width="87.2"
       id="rect180" />
    <rect
       x="5.17"
       rx="12.208"
       y="961.18"
       fill-opacity="0.157"
       height="86.33"
       width="85.991"
       id="rect182" />
  </g>
  <path
     d="m 17.75,5.41 c -6.6418,0 -11.969,5.3946 -11.969,12.062 v 61.031 c 0,6.668 5.327,12.031 11.969,12.031 h 60.812 c 6.6418,0 11.969,-5.3632 11.969,-12.031 V 17.472 C 90.531,10.8041 85.204,5.41 78.562,5.41 H 17.75 z"
     fill="url(#linearGradient4997)"
     fill-opacity="1"
     inkscape:connector-curvature="0"
     id="path184" />
  <g
     transform="matrix(1 0 0 1 0.611 0.252)"
     id="g190">
    <use
       xlink:href="#SVGCleanerId_0"
       fill="#7c1f00"
       sodipodi:type="arc"
       sodipodi:cx="9"
       sodipodi:cy="8.5"
       sodipodi:rx="7"
       sodipodi:ry="6.5"
       transform="matrix(3.62369 0 0 3.94821 15.07 16.615)"
       id="use192"
       d="M 16,8.5 A 7,6.5 0 0 1 9,15 7,6.5 0 0 1 2,8.5 7,6.5 0 0 1 9,2 7,6.5 0 0 1 16,8.5 Z" />
    <use
       xlink:href="#SVGCleanerId_0"
       fill="#e6b6b6"
       sodipodi:type="arc"
       sodipodi:cx="9"
       sodipodi:cy="8.5"
       sodipodi:rx="7"
       sodipodi:ry="6.5"
       transform="matrix(-3.10602 0 0 3.38418 75.63 21.409)"
       id="use194"
       d="M 16,8.5 A 7,6.5 0 0 1 9,15 7,6.5 0 0 1 2,8.5 7,6.5 0 0 1 9,2 7,6.5 0 0 1 16,8.5 Z" />
    <use
       xlink:href="#SVGCleanerId_0"
       fill="#ffffff"
       sodipodi:type="arc"
       sodipodi:cx="9"
       sodipodi:cy="8.5"
       sodipodi:rx="7"
       sodipodi:ry="6.5"
       transform="matrix(2.71777 0 0 -2.96116 23.22 75.34)"
       id="use196"
       d="M 16,8.5 A 7,6.5 0 0 1 9,15 7,6.5 0 0 1 2,8.5 7,6.5 0 0 1 9,2 7,6.5 0 0 1 16,8.5 Z" />
    <path
       d="m 19.144233,40.550807 c 3.170732,-9.623769 9.51219,-16.039615 19.024381,-19.247537 -3.170731,0 -12.106425,-11.081916 -21.042119,-2.041404 -8.9356951,9.040506 2.017738,18.081018 2.017738,21.288941 z"
       fill="#7c1f00"
       fill-opacity="1"
       fill-rule="evenodd"
       stroke="none"
       sodipodi:nodetypes="ccsc"
       inkscape:connector-curvature="0"
       id="path198" />
    <path
       d="m 19.144233,21.30327 c 6.34146,-6.415847 12.68292,0 12.68292,0 -5.053351,1.654085 -10.644593,7.561532 -12.68292,12.83169 0,0 -6.341459,-6.415846 0,-12.83169 z"
       fill="#e6b6b6"
       fill-opacity="1"
       fill-rule="evenodd"
       stroke="none"
       sodipodi:nodetypes="cccs"
       inkscape:export-filename="/home/lasse/Bilder/alarm-applet/path14231.png"
       inkscape:connector-curvature="0"
       inkscape:export-xdpi="98.18"
       inkscape:export-ydpi="98.18"
       id="path200" />
    <path
       d="m 20.585473,23.117853 c 4.035476,-4.08281 8.07095,0 8.07095,0 -3.21577,1.0526 -6.773832,4.811884 -8.07095,8.16562 0,0 -4.035474,-4.082811 0,-8.16562 z"
       fill="#ea8686"
       fill-opacity="1"
       fill-rule="evenodd"
       stroke="none"
       sodipodi:nodetypes="cccs"
       inkscape:connector-curvature="0"
       id="path202" />
    <path
       d="m 76.228315,40.537553 c -3.170729,-9.623769 -9.512189,-16.039615 -19.02438,-19.247537 3.17073,0 12.106425,-11.081917 21.042119,-2.041404 8.935695,9.040506 -2.017739,18.081018 -2.017739,21.288941 z"
       fill="#7c1f00"
       fill-opacity="1"
       fill-rule="evenodd"
       stroke="none"
       sodipodi:nodetypes="ccsc"
       inkscape:connector-curvature="0"
       id="path204" />
    <path
       d="m 76.217371,21.30327 c -6.341459,-6.415847 -12.682919,0 -12.682919,0 5.053351,1.654085 10.644593,7.561532 12.682919,12.83169 0,0 6.341462,-6.415846 0,-12.83169 z"
       fill="#e6b6b6"
       fill-opacity="1"
       fill-rule="evenodd"
       stroke="none"
       sodipodi:nodetypes="cccs"
       inkscape:connector-curvature="0"
       inkscape:export-xdpi="98.18"
       inkscape:export-ydpi="98.18"
       id="path206" />
    <path
       d="m 74.776129,23.117853 c -4.035473,-4.08281 -8.070947,0 -8.070947,0 3.215767,1.0526 6.773833,4.811884 8.070947,8.16562 0,0 4.035478,-4.082811 0,-8.16562 z"
       fill="#ea8686"
       fill-opacity="1"
       fill-rule="evenodd"
       stroke="none"
       sodipodi:nodetypes="cccs"
       inkscape:connector-curvature="0"
       id="path208" />
    <path
       d="m 47.680801,24.511192 c -14.001941,0 -25.365836,11.497195 -25.365836,25.663384 0,0.136016 -0.0021,0.265489 0,0.400991 8.588283,1.758692 18.259199,2.806933 28.536566,2.806933 7.789691,0 15.199913,-0.662805 22.096025,-1.704209 0.02918,-0.503985 0.09909,-0.992362 0.09909,-1.503715 0,-14.166189 -11.363896,-25.663384 -25.36584,-25.663384 z"
       fill="url(#linearGradient14369)"
       fill-opacity="1"
       fill-rule="nonzero"
       stroke="none"
       opacity="0.505"
       inkscape:connector-curvature="0"
       id="path210" />
    <path
       d="m 34.997883,39.573474 11.023643,17.346284 3.429033,-2.230591 4.921002,-11.322432 -3.78907,-1.672479 -3.818944,8.766753 -8.336633,-13.118125 -3.429031,2.23059 z"
       fill="#4a4a4a"
       fill-opacity="1"
       fill-rule="nonzero"
       stroke="none"
       inkscape:connector-curvature="0"
       id="path212" />
    <path
       d="m 33.016127,69.422116 5.152487,3.207922 -3.170731,6.41585 -6.34146,-3e-6 4.359704,-9.623769 z"
       fill="#7c1f00"
       fill-opacity="1"
       fill-rule="nonzero"
       stroke="none"
       sodipodi:nodetypes="ccccc"
       inkscape:connector-curvature="0"
       id="path214" />
    <path
       d="m 62.345478,69.422116 -5.152487,3.207922 3.17073,6.41585 6.341461,-3e-6 -4.359704,-9.623769 z"
       fill="#7c1f00"
       fill-opacity="1"
       fill-rule="nonzero"
       stroke="none"
       sodipodi:nodetypes="ccccc"
       inkscape:connector-curvature="0"
       id="path216" />
  </g>
  <g
     id="g14291">
    <path
       d="m 5.2922679,73.685059 0,5.0663 c 0,6.668 5.3645011,12.032 12.0320011,12.032 l 61.049,0 c 6.668,0 12.032,-5.3645 12.032,-12.032 l 0,-5.0663 c 0,6.6681 -5.3645,12.032 -12.032,12.032 l -61.049,0 c -6.668,0 -12.0320011,-5.3643 -12.0320011,-12.032 z"
       id="path64"
       inkscape:connector-curvature="0"
       style="opacity:0.4;fill:url(#linearGradient14237);fill-opacity:1" />
    <path
       inkscape:connector-curvature="0"
       id="path14214"
       d="m 5.2929688,72.717592 0,1.15039 c 0,6.667718 5.3632502,12.031248 12.0312502,12.031248 l 61.048828,0 c 6.6675,0 12.03125,-5.36313 12.03125,-12.031248 l 0,-1.15039 c 0,6.668098 -5.36375,12.031248 -12.03125,12.031248 l -61.048828,0 c -6.668,0 -12.0312502,-5.36355 -12.0312502,-12.031248 z"
       style="opacity:0.5;fill:url(#linearGradient14245);fill-opacity:1" />
  </g>
</svg>
