<?xml version="1.0" encoding="UTF-8" standalone="no"?>
<svg
   xmlns:dc="http://purl.org/dc/elements/1.1/"
   xmlns:cc="http://creativecommons.org/ns#"
   xmlns:rdf="http://www.w3.org/1999/02/22-rdf-syntax-ns#"
   xmlns:svg="http://www.w3.org/2000/svg"
   xmlns="http://www.w3.org/2000/svg"
   xmlns:xlink="http://www.w3.org/1999/xlink"
   xmlns:sodipodi="http://sodipodi.sourceforge.net/DTD/sodipodi-0.dtd"
   xmlns:inkscape="http://www.inkscape.org/namespaces/inkscape"
   height="96"
   width="96"
   id="svg222"
   version="1.1"
   inkscape:version="0.91 r13725"
   sodipodi:docname="alchemy.svg">
  <metadata
     id="metadata267">
    <rdf:RDF>
      <cc:Work
         rdf:about="">
        <dc:format>image/svg+xml</dc:format>
        <dc:type
           rdf:resource="http://purl.org/dc/dcmitype/StillImage" />
      </cc:Work>
    </rdf:RDF>
  </metadata>
  <sodipodi:namedview
     pagecolor="#ffffff"
     bordercolor="#666666"
     borderopacity="1"
     objecttolerance="10"
     gridtolerance="10"
     guidetolerance="10"
     inkscape:pageopacity="0"
     inkscape:pageshadow="2"
     inkscape:window-width="640"
     inkscape:window-height="480"
     id="namedview265"
     showgrid="false"
     inkscape:zoom="2.4583333"
     inkscape:cx="48"
     inkscape:cy="48"
     inkscape:current-layer="svg222" />
  <defs
     id="defs224">
    <linearGradient
       x1="66.61"
       x2="67.19"
       y1="5.402"
       y2="98.94"
       gradientUnits="userSpaceOnUse"
       id="linearGradient4997"
       inkscape:collect="always">
      <stop
         stop-color="#22dd22"
         stop-opacity="1"
         id="stop227" />
      <stop
         stop-color="#389738"
         stop-opacity="1"
         offset="1"
         id="stop229" />
    </linearGradient>
    <radialGradient
       cy="90.17"
       r="42"
       gradientUnits="userSpaceOnUse"
       id="radialGradient15299"
       cx="48"
       inkscape:collect="always"
       gradientTransform="matrix(1.15731 0 0 0.99591 -7.551 0.197)">
      <stop
         stop-color="#ffffff"
         stop-opacity="1"
         id="stop232" />
      <stop
         stop-color="#ffffff"
         stop-opacity="0"
         offset="1"
         id="stop234" />
    </radialGradient>
    <path
       d="m 103.25,51.375 c 0,3.45178 -2.79822,6.25 -6.25,6.25 -3.45178,0 -6.25,-2.79822 -6.25,-6.25 0,-3.45178 2.79822,-6.25 6.25,-6.25 3.45178,0 6.25,2.79822 6.25,6.25 z"
       stroke-width="11"
       fill="#ffffff"
       color="#000000"
       fill-opacity="1"
       stroke="none"
       fill-rule="nonzero"
       id="SVGCleanerId_0"
       visibility="visible" />
    <linearGradient
       inkscape:collect="always"
       xlink:href="#linearGradient14231"
       id="linearGradient14237"
       x1="50.707542"
       y1="81.682442"
       x2="50.707542"
       y2="96.539803"
       gradientUnits="userSpaceOnUse" />
    <linearGradient
       inkscape:collect="always"
       id="linearGradient14231">
      <stop
         style="stop-color:#000000;stop-opacity:1;"
         offset="0"
         id="stop14233" />
      <stop
         style="stop-color:#000000;stop-opacity:0;"
         offset="1"
         id="stop14235" />
    </linearGradient>
    <linearGradient
       inkscape:collect="always"
       xlink:href="#linearGradient14239"
       id="linearGradient14245"
       x1="49.876652"
       y1="87.937508"
       x2="49.876652"
       y2="76.719681"
       gradientUnits="userSpaceOnUse" />
    <linearGradient
       inkscape:collect="always"
       id="linearGradient14239">
      <stop
         style="stop-color:#ffffff;stop-opacity:1;"
         offset="0"
         id="stop14241" />
      <stop
         style="stop-color:#ffffff;stop-opacity:0;"
         offset="1"
         id="stop14243" />
    </linearGradient>
  </defs>
  <g
     transform="matrix(1 0 0 1 0 -956.36)"
     id="g237">
    <rect
       x="3.353"
       rx="12.724"
       y="959.35"
       fill-opacity="0.02"
       height="89.98"
       width="89.62"
       id="rect239" />
    <rect
       x="3.959"
       rx="12.552"
       y="959.96"
       fill-opacity="0.039"
       height="88.76"
       width="88.41"
       id="rect241" />
    <rect
       x="4.564"
       rx="12.38"
       y="960.57"
       fill-opacity="0.078"
       height="87.55"
       width="87.2"
       id="rect243" />
    <rect
       x="5.17"
       rx="12.208"
       y="961.18"
       fill-opacity="0.157"
       height="86.33"
       width="85.991"
       id="rect245" />
  </g>
  <path
     d="m 17.75,5.41 c -6.6418,0 -11.969,5.3946 -11.969,12.062 v 61.031 c 0,6.668 5.327,12.031 11.969,12.031 h 60.812 c 6.6418,0 11.969,-5.3632 11.969,-12.031 V 17.472 C 90.531,10.8041 85.204,5.41 78.562,5.41 H 17.75 z"
     fill="url(#linearGradient4997)"
     fill-opacity="1"
     inkscape:connector-curvature="0"
     id="path247" />
  <g
     display="inline"
     clip-path="none"
     transform="matrix(0.71473 0 0 0.71473 14.01 10.213)"
     id="g253">
    <path
       d="M 12,90 C 8.676,90 6,87.324 6,84 L 6,82 6,14 6,12 c 0,-0.334721 0.0413,-0.6507 0.0937,-0.96875 0.0487,-0.295596 0.097,-0.596915 0.1875,-0.875 0.01,-0.03038 0.0209,-0.0636 0.0312,-0.09375 C 6.4113,9.774729 6.54728,9.515048 6.6874,9.25 6.83199,8.976493 7.00302,8.714385 7.1874,8.46875 7.37178,8.223115 7.56118,7.995278 7.78115,7.78125 8.2211,7.353194 8.72406,6.966724 9.28115,6.6875 9.55969,6.547888 9.85462,6.440553 10.15615,6.34375 9.89995,6.443972 9.66944,6.580022 9.4374,6.71875 c -0.007,0.0044 -0.0239,-0.0045 -0.0312,0 -0.0319,0.0193 -0.0623,0.04251 -0.0937,0.0625 -0.12039,0.0767 -0.23102,0.163513 -0.34375,0.25 -0.10617,0.0808 -0.21328,0.161112 -0.3125,0.25 C 8.47832,7.442683 8.30879,7.626638 8.15625,7.8125 8.04867,7.942755 7.93786,8.077785 7.84375,8.21875 7.81865,8.25713 7.80535,8.30462 7.78125,8.34375 7.71645,8.446782 7.65102,8.548267 7.59375,8.65625 7.49274,8.850956 7.38808,9.071951 7.3125,9.28125 7.3045,9.30306 7.2889,9.3218 7.2813,9.34375 7.2495,9.4357 7.2455,9.530581 7.2188,9.625 7.1885,9.731618 7.1484,9.828031 7.1251,9.9375 7.0522,10.279012 7.0001,10.635705 7.0001,11 l 0,2 0,68 0,2 c 0,2.781848 2.21815,5 5,5 l 2,0 68,0 2,0 c 2.78185,0 5,-2.218152 5,-5 l 0,-2 0,-68 0,-2 c 0,-0.364295 -0.0521,-0.720988 -0.125,-1.0625 C 88.8309,9.730607 88.7867,9.539842 88.71885,9.34375 88.71085,9.3218 88.69555,9.30306 88.68765,9.28125 88.62495,9.107511 88.54927,8.913801 88.4689,8.75 88.4273,8.6672 88.3899,8.580046 88.3439,8.5 88.2893,8.40279 88.21713,8.31165 88.1564,8.21875 88.0623,8.077785 87.95148,7.942755 87.8439,7.8125 87.70073,7.63805 87.54076,7.465502 87.37515,7.3125 87.36395,7.3023 87.35515,7.29135 87.34395,7.28125 87.20556,7.155694 87.05886,7.046814 86.90645,6.9375 86.80388,6.86435 86.70213,6.784136 86.59395,6.71875 c -0.007,-0.0045 -0.0238,0.0044 -0.0312,0 -0.23204,-0.138728 -0.46255,-0.274778 -0.71875,-0.375 0.30153,0.0968 0.59645,0.204138 0.875,0.34375 0.55709,0.279224 1.06005,0.665694 1.5,1.09375 0.21997,0.214028 0.40937,0.441865 0.59375,0.6875 0.18438,0.245635 0.35541,0.507743 0.5,0.78125 0.14012,0.265048 0.27613,0.524729 0.375,0.8125 0.0104,0.03078 0.0213,0.06274 0.0312,0.09375 0.0905,0.278085 0.1388,0.579404 0.1875,0.875 0.0524,0.31805 0.0937,0.634029 0.0937,0.96875 l 0,2 0,68 0,2 c 0,3.324 -2.676,6 -6,6 l -72,0 z"
       fill="url(#radialGradient15299)"
       fill-opacity="1"
       fill-rule="nonzero"
       stroke="none"
       opacity="0.2"
       inkscape:connector-curvature="0"
       id="path255" />
    <path
       d="m 32.32002,45.28125 0,0.75 0,3.625 c 0,0 -0.10957,3.328328 -1.59375,4.8125 C 29.64781,55.5472 17.71434,67.571061 6.00752,79.375 l 0,4.625 c 0,3.324 2.676,6 6,6 l 72,0 c 3.324,0 6,-2.676 6,-6 l 0,-4.28125 L 64.97627,54.5625 64.91377,54.5 64.88257,54.46875 c 0,0 -0.0152,0.01153 -0.125,-0.125 -0.10984,-0.136533 -0.26305,-0.362861 -0.4375,-0.75 -0.34895,-0.774278 -0.71875,-2.151141 -0.71875,-4.40625 l 0,-3.15625 0,-0.75 -0.75,0 -29.78125,0 -0.75,0 z m 6.53125,3.96875 18.25,0 0,4.65625 c 0,1.321218 0.35735,2.314943 0.71875,2.96875 0.3419,0.618519 0.70779,0.900066 0.75,0.9375 l -0.0312,0.03125 0.0625,0.03125 14.375,14.40625 -50,0 c 0.32029,-0.32552 0.58181,-0.603823 1,-1.03125 1.37673,-1.407142 3.21075,-3.31428 5.09375,-5.25 3.766,-3.87144 7.71798,-7.936729 8.34375,-8.5625 1.49895,-1.498942 1.41145,-3.307897 1.40625,-3.40625 l 0.0312,0 0,-4.78125 z"
       fill="#ffffff"
       fill-opacity="1"
       stroke="none"
       inkscape:connector-curvature="0"
       id="path257" />
    <use
       xlink:href="#SVGCleanerId_0"
       sodipodi:type="arc"
       sodipodi:cx="97"
       sodipodi:cy="51.375"
       sodipodi:rx="6.25"
       sodipodi:ry="6.25"
       transform="matrix(0.82694 0 0 0.82694 -31.04 -4.797)"
       id="use259"
       d="m 103.25,51.375 a 6.25,6.25 0 0 1 -6.25,6.25 6.25,6.25 0 0 1 -6.25,-6.25 6.25,6.25 0 0 1 6.25,-6.25 6.25,6.25 0 0 1 6.25,6.25 z" />
    <use
       xlink:href="#SVGCleanerId_0"
       sodipodi:type="arc"
       sodipodi:cx="97"
       sodipodi:cy="51.375"
       sodipodi:rx="6.25"
       sodipodi:ry="6.25"
       transform="matrix(0.59659 0 0 0.59659 -0.76 -6.433)"
       id="use261"
       d="m 103.25,51.375 a 6.25,6.25 0 0 1 -6.25,6.25 6.25,6.25 0 0 1 -6.25,-6.25 6.25,6.25 0 0 1 6.25,-6.25 6.25,6.25 0 0 1 6.25,6.25 z" />
    <use
       xlink:href="#SVGCleanerId_0"
       sodipodi:type="arc"
       sodipodi:cx="97"
       sodipodi:cy="51.375"
       sodipodi:rx="6.25"
       sodipodi:ry="6.25"
       transform="matrix(0.50015 0 0 0.50015 -10.125 -12.575)"
       id="use263"
       d="m 103.25,51.375 a 6.25,6.25 0 0 1 -6.25,6.25 6.25,6.25 0 0 1 -6.25,-6.25 6.25,6.25 0 0 1 6.25,-6.25 6.25,6.25 0 0 1 6.25,6.25 z" />
  </g>
  <g
     id="g14291">
    <path
       d="m 5.2922679,73.685059 0,5.0663 c 0,6.668 5.3645011,12.032 12.0320011,12.032 l 61.049,0 c 6.668,0 12.032,-5.3645 12.032,-12.032 l 0,-5.0663 c 0,6.6681 -5.3645,12.032 -12.032,12.032 l -61.049,0 c -6.668,0 -12.0320011,-5.3643 -12.0320011,-12.032 z"
       id="path64"
       inkscape:connector-curvature="0"
       style="opacity:0.4;fill:url(#linearGradient14237);fill-opacity:1" />
    <path
       inkscape:connector-curvature="0"
       id="path14214"
       d="m 5.2929688,72.717592 0,1.15039 c 0,6.667718 5.3632502,12.031248 12.0312502,12.031248 l 61.048828,0 c 6.6675,0 12.03125,-5.36313 12.03125,-12.031248 l 0,-1.15039 c 0,6.668098 -5.36375,12.031248 -12.03125,12.031248 l -61.048828,0 c -6.668,0 -12.0312502,-5.36355 -12.0312502,-12.031248 z"
       style="opacity:0.5;fill:url(#linearGradient14245);fill-opacity:1" />
  </g>
</svg>
