<?xml version="1.0" encoding="UTF-8" standalone="no"?>
<svg
   xmlns:dc="http://purl.org/dc/elements/1.1/"
   xmlns:cc="http://creativecommons.org/ns#"
   xmlns:rdf="http://www.w3.org/1999/02/22-rdf-syntax-ns#"
   xmlns:svg="http://www.w3.org/2000/svg"
   xmlns="http://www.w3.org/2000/svg"
   xmlns:xlink="http://www.w3.org/1999/xlink"
   xmlns:sodipodi="http://sodipodi.sourceforge.net/DTD/sodipodi-0.dtd"
   xmlns:inkscape="http://www.inkscape.org/namespaces/inkscape"
   height="96"
   width="96"
   id="svg2"
   version="1.1"
   inkscape:version="0.91 r13725"
   sodipodi:docname="amsn.svg">
  <metadata
     id="metadata79">
    <rdf:RDF>
      <cc:Work
         rdf:about="">
        <dc:format>image/svg+xml</dc:format>
        <dc:type
           rdf:resource="http://purl.org/dc/dcmitype/StillImage" />
      </cc:Work>
    </rdf:RDF>
  </metadata>
  <sodipodi:namedview
     pagecolor="#ffffff"
     bordercolor="#666666"
     borderopacity="1"
     objecttolerance="10"
     gridtolerance="10"
     guidetolerance="10"
     inkscape:pageopacity="0"
     inkscape:pageshadow="2"
     inkscape:window-width="640"
     inkscape:window-height="480"
     id="namedview77"
     showgrid="false"
     inkscape:zoom="2.4583333"
     inkscape:cx="48"
     inkscape:cy="48"
     inkscape:current-layer="svg2" />
  <defs
     id="defs4">
    <linearGradient
       id="linearGradient3688-7-7-0"
       inkscape:collect="always">
      <stop
         stop-color="#e4aa70"
         stop-opacity="1"
         id="stop7" />
      <stop
         stop-color="#eec8a2"
         stop-opacity="1"
         offset="1"
         id="stop9" />
    </linearGradient>
    <linearGradient
       x1="66.01"
       x2="64.54"
       y1="11.291"
       y2="83.937"
       gradientUnits="userSpaceOnUse"
       id="linearGradient4225"
       inkscape:collect="always"
       gradientTransform="matrix(1.107 0 0 1.0698 -5.658 -5.03)">
      <stop
         stop-color="#419cff"
         stop-opacity="1"
         id="stop12" />
      <stop
         stop-color="#0045a8"
         stop-opacity="1"
         offset="1"
         id="stop14" />
    </linearGradient>
    <linearGradient
       x1="20.5"
       x2="16.929"
       y1="27.07"
       y2="22.929"
       gradientUnits="userSpaceOnUse"
       id="linearGradient4303"
       inkscape:collect="always">
      <stop
         stop-color="#6f531e"
         stop-opacity="1"
         id="stop17" />
      <stop
         stop-color="#d1a554"
         stop-opacity="1"
         offset="1"
         id="stop19" />
    </linearGradient>
    <radialGradient
       cy="9.01"
       r="9.175"
       gradientUnits="userSpaceOnUse"
       id="radialGradient4316"
       cx="13.244"
       inkscape:collect="always"
       gradientTransform="matrix(-1.55432,0.53549,-0.26128,-0.88161,55.01,17.8)">
      <stop
         stop-color="#b29e71"
         stop-opacity="1"
         id="stop22" />
      <stop
         stop-color="#73561f"
         stop-opacity="1"
         offset="1"
         id="stop24" />
    </radialGradient>
    <radialGradient
       cy="39.571"
       r="15.311"
       gradientUnits="userSpaceOnUse"
       id="radialGradient4339"
       cx="30.13"
       inkscape:collect="always"
       gradientTransform="matrix(-0.1091,0.94307,1.35777,0.18259,-16.214,22.585)">
      <stop
         stop-color="#91d3ff"
         stop-opacity="1"
         id="stop27" />
      <stop
         stop-color="#0596ff"
         stop-opacity="1"
         offset="1"
         id="stop29" />
    </radialGradient>
    <linearGradient
       x1="25.4"
       x2="22.04"
       xlink:href="#linearGradient3688-7-7-0"
       y1="27.961"
       y2="11.961"
       gradientUnits="userSpaceOnUse"
       id="linearGradient4342"
       inkscape:collect="always"
       gradientTransform="matrix(-1.2612,0,0,1.3598,66.47,10.638)" />
    <radialGradient
       cy="6.602"
       r="10.198"
       gradientUnits="userSpaceOnUse"
       id="radialGradient4364"
       cx="24.794"
       inkscape:collect="always"
       gradientTransform="matrix(0,0.5332,-1.01801,0,69.41,13.591)">
      <stop
         stop-color="#707070"
         stop-opacity="1"
         id="stop33" />
      <stop
         stop-color="#252525"
         stop-opacity="1"
         offset="1"
         id="stop35" />
    </radialGradient>
    <radialGradient
       cy="39.571"
       r="15.311"
       gradientUnits="userSpaceOnUse"
       id="radialGradient4368"
       cx="30.13"
       inkscape:collect="always"
       gradientTransform="matrix(0.1091,0.94307,-1.35777,0.18259,112.05,33.35)">
      <stop
         stop-color="#c3ff82"
         stop-opacity="1"
         id="stop38" />
      <stop
         stop-color="#4a8f00"
         stop-opacity="1"
         offset="1"
         id="stop40" />
    </radialGradient>
    <linearGradient
       x1="25.4"
       x2="22.04"
       xlink:href="#linearGradient3688-7-7-0"
       y1="27.961"
       y2="11.961"
       gradientUnits="userSpaceOnUse"
       id="linearGradient4371"
       inkscape:collect="always"
       gradientTransform="matrix(1.2612,0,0,1.3598,29.365,21.403)" />
    <linearGradient
       inkscape:collect="always"
       xlink:href="#linearGradient14231"
       id="linearGradient14237"
       x1="50.707542"
       y1="81.682442"
       x2="50.707542"
       y2="96.539803"
       gradientUnits="userSpaceOnUse" />
    <linearGradient
       inkscape:collect="always"
       id="linearGradient14231">
      <stop
         style="stop-color:#000000;stop-opacity:1;"
         offset="0"
         id="stop14233" />
      <stop
         style="stop-color:#000000;stop-opacity:0;"
         offset="1"
         id="stop14235" />
    </linearGradient>
    <linearGradient
       inkscape:collect="always"
       xlink:href="#linearGradient14239"
       id="linearGradient14245"
       x1="49.876652"
       y1="87.937508"
       x2="49.876652"
       y2="76.719681"
       gradientUnits="userSpaceOnUse" />
    <linearGradient
       inkscape:collect="always"
       id="linearGradient14239">
      <stop
         style="stop-color:#ffffff;stop-opacity:1;"
         offset="0"
         id="stop14241" />
      <stop
         style="stop-color:#ffffff;stop-opacity:0;"
         offset="1"
         id="stop14243" />
    </linearGradient>
    <clipPath
       clipPathUnits="userSpaceOnUse"
       id="clipPath8838">
      <path
         id="path8840"
         inkscape:connector-curvature="0"
         d="m 23.483559,14.625312 c -5.379399,0 -9.694064,4.239075 -9.694064,9.478317 l 0,47.958146 c 0,5.239713 4.314503,9.453957 9.694064,9.453957 l 49.253523,0 c 5.3794,0 9.694064,-4.214401 9.694064,-9.453957 l 0,-47.958146 c 0,-5.239635 -4.314502,-9.478317 -9.694064,-9.478317 l -49.253523,0 z"
         style="fill:url(#linearGradient8842);fill-opacity:1" />
    </clipPath>
    <linearGradient
       inkscape:collect="always"
       xlink:href="#linearGradient4225"
       id="linearGradient8842"
       gradientUnits="userSpaceOnUse"
       gradientTransform="matrix(0.8965936,0,0,0.84064861,4.5246948,6.4215621)"
       x1="66.01"
       y1="11.291"
       x2="64.54"
       y2="83.937" />
  </defs>
  <g
     transform="matrix(1 0 0 1 0 -956.36)"
     id="g43">
    <rect
       x="3.353"
       rx="12.724"
       y="959.35"
       fill-opacity="0.02"
       height="89.98"
       width="89.62"
       id="rect45" />
    <rect
       x="3.959"
       rx="12.552"
       y="959.96"
       fill-opacity="0.039"
       height="88.76"
       width="88.41"
       id="rect47" />
    <rect
       x="4.564"
       rx="12.38"
       y="960.57"
       fill-opacity="0.078"
       height="87.55"
       width="87.2"
       id="rect49" />
    <rect
       x="5.17"
       rx="12.208"
       y="961.18"
       fill-opacity="0.157"
       height="86.33"
       width="85.991"
       id="rect51" />
  </g>
  <path
     d="m 17.75,5.41 c -6.6418,0 -11.969,5.3946 -11.969,12.062 v 61.031 c 0,6.668 5.327,12.031 11.969,12.031 h 60.812 c 6.6418,0 11.969,-5.3632 11.969,-12.031 V 17.472 C 90.531,10.8041 85.204,5.41 78.562,5.41 H 17.75 z"
     fill="url(#linearGradient4225)"
     fill-opacity="1"
     inkscape:connector-curvature="0"
     id="path53" />
  <g
     id="g8825"
     transform="matrix(1.2346731,0,0,1.2725888,-11.244519,-13.202008)"
     clip-path="url(#clipPath8838)">
    <path
       id="path59"
       inkscape:connector-curvature="0"
       d="m 55.939155,62.941962 12.357848,-0.274722 -8.535833,17.444787 -4.076815,-2.335129 0.2548,-14.834936 0,0 z"
       style="fill:#ffffff;stroke:none" />
    <path
       id="path61"
       inkscape:connector-curvature="0"
       sodipodi:nodetypes="ccccsccccsccssc"
       d="m 53.770637,32.453677 c -6.643875,0 -3.164176,24.76185 1.024725,24.561384 l 2.42801,0 -0.197062,6.24658 c 0.727754,0.129059 2.21363,0.212469 2.971504,0.212469 3.064609,0 5.939211,-1.097031 8.316041,-2.974562 l 0.985313,-5.524187 -0.236475,-6.161593 3.192414,-3.739449 c 0,0 1.10248,-3.956176 0,-5.226731 -0.436156,-0.502648 -1.931214,-0.127481 -1.931214,-0.127481 l -1.891801,1.912219 c 0,0 0.373282,-3.727969 -0.118237,-5.481693 -0.39194,-1.398426 -2.217708,-3.23413 -3.569094,-3.284875 l -10.974124,-0.412081 0,0 z"
       style="fill:url(#linearGradient4371);fill-opacity:1;stroke:none" />
    <path
       id="path63"
       inkscape:connector-curvature="0"
       sodipodi:nodetypes="cssccccss"
       d="m 48.694259,74.476896 c -0.268852,4.218098 17.748771,11.548995 36.15795,6.651877 1.847245,-0.491395 1.482008,-10.035871 -0.571426,-14.01008 C 81.147561,61.054667 69.295635,55.23568 69.295635,55.23568 64.457613,63.000814 62.71523,71.322223 59.693775,79.413786 L 56.81103,78.636759 c 0.150652,-6.901682 0.512637,-13.116562 0.360344,-20.018245 0,0 -4.585957,1.462472 -6.187656,3.861575 -2.353631,3.525382 -1.972375,7.021986 -2.289459,11.996807 l 0,0 z"
       style="fill:url(#radialGradient4368);fill-opacity:1;stroke:none" />
    <path
       id="path65"
       inkscape:connector-curvature="0"
       sodipodi:nodetypes="cccsccc"
       d="m 52.881543,32.447925 c -2.474678,-0.70232 -2.420609,-1.373605 -2.420609,-1.373605 2.837682,-2.63505 12.446616,-12.296895 23.05949,-0.412081 0,0 1.333124,3.222995 1.401404,4.944978 0.07792,1.964908 -2.293208,9.203157 -2.293208,9.203157 0.08965,-7.046067 -1.481454,-5.833365 -4.076816,-2.747211 -0.953113,-10.975002 -1.171946,-8.713226 -15.670261,-9.615238 z"
       style="fill:url(#radialGradient4364);fill-opacity:1;stroke:none" />
    <ellipse
       id="path67"
       transform="matrix(1.66426,0,0,1.79436,7.82,1.581)"
       stroke-miterlimit="4"
       visibility="visible"
       display="inline"
       style="display:inline;visibility:visible;fill:url(#linearGradient4303);fill-opacity:1;stroke:none;stroke-width:0.69700003;stroke-linecap:round;stroke-linejoin:round;stroke-miterlimit:4;stroke-dasharray:none;stroke-dashoffset:0;stroke-opacity:1"
       cx="20.5"
       cy="22.928572"
       rx="3.0714285"
       ry="3.6428571" />
    <path
       id="path69"
       inkscape:connector-curvature="0"
       d="m 39.892193,52.176441 -12.357848,-0.274722 8.535833,17.444787 4.076815,-2.335129 -0.2548,-14.834936 0,0 z"
       style="fill:#ffffff;stroke:none" />
    <path
       id="path71"
       inkscape:connector-curvature="0"
       sodipodi:nodetypes="ccccsccccsccssc"
       stroke-miterlimit="4"
       d="m 42.060711,21.688156 c 6.643875,0 3.164176,24.76185 -1.024725,24.561384 l -2.42801,0 0.197062,6.24658 c -0.727754,0.129059 -2.21363,0.212469 -2.971504,0.212469 -3.064609,0 -5.939211,-1.097031 -8.316041,-2.974562 L 26.53218,44.20984 26.768655,38.048247 23.576241,34.308798 c 0,0 -1.10248,-3.956176 0,-5.226731 0.436156,-0.502648 1.931214,-0.127481 1.931214,-0.127481 l 1.891801,1.912219 c 0,0 -0.373282,-3.727969 0.118237,-5.481693 0.39194,-1.398426 2.217708,-3.23413 3.569094,-3.284875 l 10.974124,-0.412081 0,0 z"
       style="fill:url(#linearGradient4342);fill-opacity:1;stroke:none;stroke-width:1.204;stroke-linecap:butt;stroke-linejoin:round;stroke-miterlimit:4;stroke-dasharray:none;stroke-opacity:1" />
    <path
       id="path73"
       inkscape:connector-curvature="0"
       sodipodi:nodetypes="cssccccss"
       stroke-miterlimit="4"
       d="m 47.137089,63.711375 c 0.268852,4.218098 -17.748771,11.548995 -36.15795,6.651877 -1.8472452,-0.491395 -1.4820079,-10.035871 0.571426,-14.01008 3.133222,-6.064026 14.985148,-11.883013 14.985148,-11.883013 4.838022,7.765134 6.580405,16.086543 9.60186,24.178106 l 2.882745,-0.777027 c -0.150652,-6.901682 -0.512637,-13.116562 -0.360344,-20.018245 0,0 4.585957,1.462472 6.187656,3.861575 2.353631,3.525382 1.972375,7.021986 2.289459,11.996807 l 0,0 z"
       style="fill:url(#radialGradient4339);fill-opacity:1;stroke:none;stroke-width:1.204;stroke-linecap:butt;stroke-linejoin:miter;stroke-miterlimit:4;stroke-dasharray:none;stroke-opacity:1" />
    <path
       id="path75"
       inkscape:connector-curvature="0"
       sodipodi:nodetypes="csssccc"
       stroke-miterlimit="4"
       d="m 46.754238,21.309578 c 0.855847,-10.095318 -20.128052,-8.522142 -24.460894,-1.74738 -0.737398,1.152984 -9.027204,16.25485 0.211266,26.072531 2.470047,2.624909 11.21302,2.324358 7.852544,0.434954 -0.575402,-0.323513 -2.32148,-8.962785 -7.197107,-12.177571 -0.08965,-7.046066 1.481455,-5.833364 4.076816,-2.747209 0.748121,-12.055675 12.790453,-7.360469 19.517375,-9.835325 z"
       style="fill:url(#radialGradient4316);fill-opacity:1;stroke:none;stroke-width:1.204;stroke-linecap:butt;stroke-linejoin:round;stroke-miterlimit:4;stroke-dasharray:none;stroke-opacity:1" />
  </g>
  <g
     id="g14291">
    <path
       d="m 5.2922679,73.685059 0,5.0663 c 0,6.668 5.3645011,12.032 12.0320011,12.032 l 61.049,0 c 6.668,0 12.032,-5.3645 12.032,-12.032 l 0,-5.0663 c 0,6.6681 -5.3645,12.032 -12.032,12.032 l -61.049,0 c -6.668,0 -12.0320011,-5.3643 -12.0320011,-12.032 z"
       id="path64"
       inkscape:connector-curvature="0"
       style="opacity:0.4;fill:url(#linearGradient14237);fill-opacity:1" />
    <path
       inkscape:connector-curvature="0"
       id="path14214"
       d="m 5.2929688,72.717592 0,1.15039 c 0,6.667718 5.3632502,12.031248 12.0312502,12.031248 l 61.048828,0 c 6.6675,0 12.03125,-5.36313 12.03125,-12.031248 l 0,-1.15039 c 0,6.668098 -5.36375,12.031248 -12.03125,12.031248 l -61.048828,0 c -6.668,0 -12.0312502,-5.36355 -12.0312502,-12.031248 z"
       style="opacity:0.5;fill:url(#linearGradient14245);fill-opacity:1" />
  </g>
</svg>
