<svg height="96" width="96" xmlns="http://www.w3.org/2000/svg" xmlns:xlink="http://www.w3.org/1999/xlink" xmlns:sodipodi="http://sodipodi.sourceforge.net/DTD/sodipodi-0.dtd" xmlns:inkscape="http://www.inkscape.org/namespaces/inkscape">
 <defs>
  <linearGradient id="linearGradient3688-7-7-0" inkscape:collect="always">
   <stop stop-color="#e4aa70" stop-opacity="1"/>
   <stop stop-color="#eec8a2" stop-opacity="1" offset="1"/>
  </linearGradient>
  <linearGradient x1="66.01" x2="64.54" y1="11.291" y2="83.937" gradientUnits="userSpaceOnUse" id="linearGradient4225" inkscape:collect="always" gradientTransform="matrix(1.107 0 0 1.0698 -5.658 -5.03)">
   <stop stop-color="#419cff" stop-opacity="1"/>
   <stop stop-color="#0045a8" stop-opacity="1" offset="1"/>
  </linearGradient>
  <linearGradient x1="20.5" x2="16.929" y1="27.07" y2="22.929" gradientUnits="userSpaceOnUse" id="linearGradient4303" inkscape:collect="always">
   <stop stop-color="#6f531e" stop-opacity="1"/>
   <stop stop-color="#d1a554" stop-opacity="1" offset="1"/>
  </linearGradient>
  <radialGradient cy="9.01" r="9.175" gradientUnits="userSpaceOnUse" id="radialGradient4316" cx="13.244" inkscape:collect="always" gradientTransform="matrix(-1.55432 0.53549 -0.26128 -0.88161 55.01 17.8)">
   <stop stop-color="#b29e71" stop-opacity="1"/>
   <stop stop-color="#73561f" stop-opacity="1" offset="1"/>
  </radialGradient>
  <radialGradient cy="39.571" r="15.311" gradientUnits="userSpaceOnUse" id="radialGradient4339" cx="30.13" inkscape:collect="always" gradientTransform="matrix(-0.1091 0.94307 1.35777 0.18259 -16.214 22.585)">
   <stop stop-color="#91d3ff" stop-opacity="1"/>
   <stop stop-color="#0596ff" stop-opacity="1" offset="1"/>
  </radialGradient>
  <linearGradient x1="25.4" x2="22.04" xlink:href="#linearGradient3688-7-7-0" y1="27.961" y2="11.961" gradientUnits="userSpaceOnUse" id="linearGradient4342" inkscape:collect="always" gradientTransform="matrix(-1.2612 0 0 1.3598 66.47 10.638)"/>
  <radialGradient cy="6.602" r="10.198" gradientUnits="userSpaceOnUse" id="radialGradient4364" cx="24.794" inkscape:collect="always" gradientTransform="matrix(0 0.5332 -1.01801 0 69.41 13.591)">
   <stop stop-color="#707070" stop-opacity="1"/>
   <stop stop-color="#252525" stop-opacity="1" offset="1"/>
  </radialGradient>
  <radialGradient cy="39.571" r="15.311" gradientUnits="userSpaceOnUse" id="radialGradient4368" cx="30.13" inkscape:collect="always" gradientTransform="matrix(0.1091 0.94307 -1.35777 0.18259 112.05 33.35)">
   <stop stop-color="#c3ff82" stop-opacity="1"/>
   <stop stop-color="#4a8f00" stop-opacity="1" offset="1"/>
  </radialGradient>
  <linearGradient x1="25.4" x2="22.04" xlink:href="#linearGradient3688-7-7-0" y1="27.961" y2="11.961" gradientUnits="userSpaceOnUse" id="linearGradient4371" inkscape:collect="always" gradientTransform="matrix(1.2612 0 0 1.3598 29.365 21.403)"/>
 </defs>
 <g transform="matrix(1 0 0 1 0 -956.36)">
  <rect x="3.353" rx="12.724" y="959.35" fill-opacity="0.02" height="89.98" width="89.62"/>
  <rect x="3.959" rx="12.552" y="959.96" fill-opacity="0.039" height="88.76" width="88.41"/>
  <rect x="4.564" rx="12.38" y="960.57" fill-opacity="0.078" height="87.55" width="87.2"/>
  <rect x="5.17" rx="12.208" y="961.18" fill-opacity="0.157" height="86.33" width="85.991"/>
 </g>
 <path d="m 17.75,5.41 c -6.6418,0 -11.969,5.3946 -11.969,12.062 v 61.031 c 0,6.668 5.327,12.031 11.969,12.031 h 60.812 c 6.6418,0 11.969,-5.3632 11.969,-12.031 V 17.472 C 90.531,10.8041 85.204,5.41 78.562,5.41 H 17.75 z" fill="url(#linearGradient4225)" fill-opacity="1" inkscape:connector-curvature="0"/>
 <path d="m 5.7756,77.54 v 1.0133 c 0,6.668 5.3434,12.032 11.985,12.032 h 60.809 c 6.6418,0 11.985,-5.3645 11.985,-12.032 V 77.54 c 0,6.6681 -5.3434,12.032 -11.985,12.032 h -60.809 c -6.6418,0 -11.985,-5.3644 -11.985,-12.032 z" fill-opacity="0.098" inkscape:connector-curvature="0"/>
 <path d="m 5.7756,73.44 v 5.0663 c 0,6.668 5.3434,12.032 11.985,12.032 h 60.809 c 6.6418,0 11.985,-5.3645 11.985,-12.032 V 73.44 c 0,6.6681 -5.3434,12.032 -11.985,12.032 h -60.809 c -6.6418,0 -11.985,-5.3643 -11.985,-12.032 z" fill-opacity="0.235" inkscape:connector-curvature="0"/>
 <path d="m 55.939155,62.941962 12.357848,-0.274722 -8.535833,17.444787 -4.076815,-2.335129 0.2548,-14.834936 0,0 z" fill="#ffffff" stroke="none" inkscape:connector-curvature="0"/>
 <path d="m 53.770637,32.453677 c -6.643875,0 -3.164176,24.76185 1.024725,24.561384 l 2.42801,0 -0.197062,6.24658 c 0.727754,0.129059 2.21363,0.212469 2.971504,0.212469 3.064609,0 5.939211,-1.097031 8.316041,-2.974562 l 0.985313,-5.524187 -0.236475,-6.161593 3.192414,-3.739449 c 0,0 1.10248,-3.956176 0,-5.226731 -0.436156,-0.502648 -1.931214,-0.127481 -1.931214,-0.127481 l -1.891801,1.912219 c 0,0 0.373282,-3.727969 -0.118237,-5.481693 -0.39194,-1.398426 -2.217708,-3.23413 -3.569094,-3.284875 l -10.974124,-0.412081 0,0 z" fill="url(#linearGradient4371)" fill-opacity="1" stroke="none" sodipodi:nodetypes="ccccsccccsccssc" inkscape:connector-curvature="0"/>
 <path d="m 48.694259,74.476896 c -0.268852,4.218098 17.748771,11.548995 36.15795,6.651877 1.847245,-0.491395 1.482008,-10.035871 -0.571426,-14.01008 C 81.147561,61.054667 69.295635,55.23568 69.295635,55.23568 64.457613,63.000814 62.71523,71.322223 59.693775,79.413786 L 56.81103,78.636759 c 0.150652,-6.901682 0.512637,-13.116562 0.360344,-20.018245 0,0 -4.585957,1.462472 -6.187656,3.861575 -2.353631,3.525382 -1.972375,7.021986 -2.289459,11.996807 l 0,0 z" fill="url(#radialGradient4368)" fill-opacity="1" stroke="none" sodipodi:nodetypes="cssccccss" inkscape:connector-curvature="0"/>
 <path d="m 52.881543,32.447925 c -2.474678,-0.70232 -2.420609,-1.373605 -2.420609,-1.373605 2.837682,-2.63505 12.446616,-12.296895 23.05949,-0.412081 0,0 1.333124,3.222995 1.401404,4.944978 0.07792,1.964908 -2.293208,9.203157 -2.293208,9.203157 0.08965,-7.046067 -1.481454,-5.833365 -4.076816,-2.747211 -0.953113,-10.975002 -1.171946,-8.713226 -15.670261,-9.615238 z" fill="url(#radialGradient4364)" fill-opacity="1" stroke="none" sodipodi:nodetypes="cccsccc" inkscape:connector-curvature="0"/>
 <path stroke-opacity="1" stroke-width="0.697" d="m 23.571429,22.928572 a 3.0714285,3.6428571 0 1 1 -6.142858,0 3.0714285,3.6428571 0 1 1 6.142858,0 z" display="inline" fill="url(#linearGradient4303)" fill-opacity="1" stroke="none" stroke-dasharray="none" stroke-dashoffset="0" visibility="visible" stroke-linecap="round" stroke-linejoin="round" stroke-miterlimit="4" sodipodi:type="arc" sodipodi:cx="20.5" sodipodi:cy="22.928572" sodipodi:rx="3.0714285" sodipodi:ry="3.6428571" transform="matrix(1.66426 0 0 1.79436 7.82 1.581)"/>
 <path d="m 39.892193,52.176441 -12.357848,-0.274722 8.535833,17.444787 4.076815,-2.335129 -0.2548,-14.834936 0,0 z" fill="#ffffff" stroke="none" inkscape:connector-curvature="0"/>
 <path stroke-opacity="1" d="m 42.060711,21.688156 c 6.643875,0 3.164176,24.76185 -1.024725,24.561384 l -2.42801,0 0.197062,6.24658 c -0.727754,0.129059 -2.21363,0.212469 -2.971504,0.212469 -3.064609,0 -5.939211,-1.097031 -8.316041,-2.974562 L 26.53218,44.20984 26.768655,38.048247 23.576241,34.308798 c 0,0 -1.10248,-3.956176 0,-5.226731 0.436156,-0.502648 1.931214,-0.127481 1.931214,-0.127481 l 1.891801,1.912219 c 0,0 -0.373282,-3.727969 0.118237,-5.481693 0.39194,-1.398426 2.217708,-3.23413 3.569094,-3.284875 l 10.974124,-0.412081 0,0 z" stroke-width="1.204" fill="url(#linearGradient4342)" fill-opacity="1" stroke="none" stroke-dasharray="none" stroke-linecap="butt" stroke-linejoin="round" stroke-miterlimit="4" sodipodi:nodetypes="ccccsccccsccssc" inkscape:connector-curvature="0"/>
 <path stroke-opacity="1" d="m 47.137089,63.711375 c 0.268852,4.218098 -17.748771,11.548995 -36.15795,6.651877 -1.8472452,-0.491395 -1.4820079,-10.035871 0.571426,-14.01008 3.133222,-6.064026 14.985148,-11.883013 14.985148,-11.883013 4.838022,7.765134 6.580405,16.086543 9.60186,24.178106 l 2.882745,-0.777027 c -0.150652,-6.901682 -0.512637,-13.116562 -0.360344,-20.018245 0,0 4.585957,1.462472 6.187656,3.861575 2.353631,3.525382 1.972375,7.021986 2.289459,11.996807 l 0,0 z" stroke-width="1.204" fill="url(#radialGradient4339)" fill-opacity="1" stroke="none" stroke-dasharray="none" stroke-linecap="butt" stroke-linejoin="miter" stroke-miterlimit="4" sodipodi:nodetypes="cssccccss" inkscape:connector-curvature="0"/>
 <path stroke-opacity="1" d="m 46.754238,21.309578 c 0.855847,-10.095318 -20.128052,-8.522142 -24.460894,-1.74738 -0.737398,1.152984 -9.027204,16.25485 0.211266,26.072531 2.470047,2.624909 11.21302,2.324358 7.852544,0.434954 -0.575402,-0.323513 -2.32148,-8.962785 -7.197107,-12.177571 -0.08965,-7.046066 1.481455,-5.833364 4.076816,-2.747209 0.748121,-12.055675 12.790453,-7.360469 19.517375,-9.835325 z" stroke-width="1.204" fill="url(#radialGradient4316)" fill-opacity="1" stroke="none" stroke-dasharray="none" stroke-linecap="butt" stroke-linejoin="round" stroke-miterlimit="4" sodipodi:nodetypes="csssccc" inkscape:connector-curvature="0"/>
</svg>
