<?xml version="1.0" encoding="UTF-8" standalone="no"?>
<svg
   xmlns:dc="http://purl.org/dc/elements/1.1/"
   xmlns:cc="http://creativecommons.org/ns#"
   xmlns:rdf="http://www.w3.org/1999/02/22-rdf-syntax-ns#"
   xmlns:svg="http://www.w3.org/2000/svg"
   xmlns="http://www.w3.org/2000/svg"
   xmlns:xlink="http://www.w3.org/1999/xlink"
   xmlns:sodipodi="http://sodipodi.sourceforge.net/DTD/sodipodi-0.dtd"
   xmlns:inkscape="http://www.inkscape.org/namespaces/inkscape"
   height="96"
   width="96"
   id="svg2"
   version="1.1"
   inkscape:version="0.91 r13725"
   sodipodi:docname="application-default-icon.svg">
  <metadata
     id="metadata53">
    <rdf:RDF>
      <cc:Work
         rdf:about="">
        <dc:format>image/svg+xml</dc:format>
        <dc:type
           rdf:resource="http://purl.org/dc/dcmitype/StillImage" />
      </cc:Work>
    </rdf:RDF>
  </metadata>
  <sodipodi:namedview
     pagecolor="#ffffff"
     bordercolor="#666666"
     borderopacity="1"
     objecttolerance="10"
     gridtolerance="10"
     guidetolerance="10"
     inkscape:pageopacity="0"
     inkscape:pageshadow="2"
     inkscape:window-width="640"
     inkscape:window-height="480"
     id="namedview51"
     showgrid="false"
     inkscape:zoom="2.4583333"
     inkscape:cx="48"
     inkscape:cy="48"
     inkscape:current-layer="svg2" />
  <defs
     id="defs4">
    <linearGradient
       x2="0"
       y1="20.221"
       y2="138.66"
       gradientUnits="userSpaceOnUse"
       id="linearGradient2862-8">
      <stop
         stop-color="#fff"
         id="stop7" />
      <stop
         stop-color="#fff"
         stop-opacity="0"
         offset="1"
         id="stop9" />
    </linearGradient>
    <clipPath
       id="clipPath3613-8">
      <use
         xlink:href="#SVGCleanerId_1"
         id="use12" />
    </clipPath>
    <filter
       x="-0.192"
       y="-0.192"
       height="1.384"
       color-interpolation-filters="sRGB"
       id="filter3794-9"
       width="1.384">
      <feGaussianBlur
         stdDeviation="5.28"
         id="feGaussianBlur15" />
    </filter>
    <clipPath
       id="clipPath3613-3">
      <use
         xlink:href="#SVGCleanerId_1"
         id="use18" />
    </clipPath>
    <linearGradient
       x2="0"
       y1="1028.7"
       y2="970.99"
       gradientUnits="userSpaceOnUse"
       id="linearGradient19375"
       gradientTransform="translate(0,-956.36)">
      <stop
         stop-color="#ccc"
         id="stop21" />
      <stop
         stop-color="#ebeef2"
         offset="1"
         id="stop23" />
    </linearGradient>
    <rect
       x="15"
       stroke-width="0.5"
       rx="12"
       y="15"
       fill="url(#linearGradient2862-8)"
       stroke="#fff"
       height="66"
       filter="url(#filter3794-9)"
       id="SVGCleanerId_0"
       width="66"
       stroke-linecap="round" />
    <rect
       x="6"
       rx="6"
       y="6"
       height="84"
       id="SVGCleanerId_1"
       width="84" />
    <linearGradient
       inkscape:collect="always"
       xlink:href="#linearGradient14231"
       id="linearGradient14237"
       x1="50.707542"
       y1="81.682442"
       x2="50.707542"
       y2="96.539803"
       gradientUnits="userSpaceOnUse" />
    <linearGradient
       inkscape:collect="always"
       id="linearGradient14231">
      <stop
         style="stop-color:#000000;stop-opacity:1;"
         offset="0"
         id="stop14233" />
      <stop
         style="stop-color:#000000;stop-opacity:0;"
         offset="1"
         id="stop14235" />
    </linearGradient>
    <linearGradient
       inkscape:collect="always"
       xlink:href="#linearGradient14239"
       id="linearGradient14245"
       x1="49.876652"
       y1="87.937508"
       x2="49.876652"
       y2="76.719681"
       gradientUnits="userSpaceOnUse" />
    <linearGradient
       inkscape:collect="always"
       id="linearGradient14239">
      <stop
         style="stop-color:#ffffff;stop-opacity:1;"
         offset="0"
         id="stop14241" />
      <stop
         style="stop-color:#ffffff;stop-opacity:0;"
         offset="1"
         id="stop14243" />
    </linearGradient>
  </defs>
  <rect
     style="fill-opacity:0.02000002"
     id="rect29"
     width="89.980003"
     height="89.980003"
     y="2.9899757"
     rx="12.724"
     x="3" />
  <rect
     style="fill-opacity:0.03900003"
     id="rect31"
     width="88.760002"
     height="88.760002"
     y="3.6000221"
     rx="12.552"
     x="3.608" />
  <rect
     style="fill-opacity:0.078"
     id="rect33"
     width="87.550003"
     height="87.550003"
     y="4.2100072"
     rx="12.38"
     x="4.2160001" />
  <rect
     style="fill-opacity:0.15700001"
     id="rect35"
     width="86.330002"
     height="86.330002"
     y="4.8199925"
     rx="12.208"
     x="4.8239999" />
  <path
     style="fill:#808080"
     inkscape:connector-curvature="0"
     id="path37"
     d="m 17.469,5.4062 c -6.668,0 -12.032,5.3948 -12.032,12.063 l 5e-4,61.031 c 0,6.668 5.3635,12.031 12.032,12.031 l 61.03,0 c 6.668,0 12.031,-5.363 12.031,-12.031 l 0,-61.031 c 0,-6.668 -5.363,-12.063 -12.031,-12.063 l -61.031,2e-4 z" />
  <use
     height="100%"
     width="100%"
     y="0"
     x="0"
     style="opacity:0.2"
     id="use43"
     transform="translate(0,-2.5)"
     clip-path="url(#clipPath3613-8)"
     xlink:href="#SVGCleanerId_0" />
  <use
     height="100%"
     width="100%"
     y="0"
     x="0"
     style="opacity:0.1"
     id="use45"
     transform="matrix(1.0295,0,0,1.0295,-1.154,-1.67)"
     clip-path="url(#clipPath3613-3)"
     xlink:href="#SVGCleanerId_0" />
  <path
     style="display:block;fill:#666666"
     inkscape:connector-curvature="0"
     id="path47"
     display="block"
     d="m 44.271,20.82 c -1.0823,0 -1.9375,0.89924 -1.9375,2 l 0,3.875 c -1.9352,0.5156 -3.777,1.2973 -5.4688,2.2812 l -2.7812,-2.75 c -0.38918,-0.38918 -0.84012,-0.62073 -1.3438,-0.625 -0.50364,-0.004 -1.0236,0.17987 -1.4062,0.5625 L 25.9273,31.57 c -0.76527,0.7653 -0.71577,1.9716 0.0625,2.75 l 2.75,2.7812 c -0.98394,1.6918 -1.7656,3.5336 -2.2812,5.4688 l -3.875,0 c -1.1008,0 -2,0.85515 -2,1.9374 l 0,7.6251 c 0,1.0823 0.89924,1.9375 2,1.9375 l 3.875,0 c 0.51561,1.9352 1.2973,3.777 2.2812,5.4688 l -2.75,2.7812 c -0.77835,0.7784 -0.82785,1.9848 -0.0625,2.7501 l 5.4062,5.4062 c 0.76526,0.7653 1.9716,0.7158 2.75,-0.063 l 2.7812,-2.75 c 1.6918,0.9839 3.5336,1.7657 5.4688,2.2813 l 0,3.875 c 0,1.1007 0.85524,2 1.9375,2 l 7.625,0 c 1.0822,0 1.9375,-0.8993 1.9375,-2 l 0,-3.875 c 1.9351,-0.5156 3.7769,-1.2974 5.4688,-2.2813 l 2.7812,2.75 c 0.77835,0.7784 1.9847,0.8278 2.75,0.063 l 5.4062,-5.4062 c 0.76526,-0.7653 0.71576,-1.9717 -0.0625,-2.7501 l -2.75,-2.7812 c 0.98393,-1.6918 1.7656,-3.5336 2.2812,-5.4688 l 3.875,0 c 1.1007,0 2,-0.8552 2,-1.9375 l 0,-7.6251 c 0,-1.0822 -0.89926,-1.9374 -2,-1.9374 l -3.875,0 c -0.5156,-1.9352 -1.2973,-3.777 -2.2812,-5.4688 l 2.75,-2.7812 c 0.77835,-0.7784 0.82785,-1.9847 0.0625,-2.75 l -5.4062,-5.4063 c -0.76528,-0.76527 -1.9716,-0.71585 -2.75,0.0625 l -2.7812,2.75 C 57.6105,27.99226 55.7687,27.2106 53.8335,26.695 l 0,-3.875 c 0,-1.1008 -0.85525,-2 -1.9375,-2 l -7.625,0 z m 3.8125,13.5 c 7.732,0 14,6.268 14,14 0,7.7321 -6.268,14 -14,14 -7.732,0 -14,-6.268 -14,-14 0,-7.7319 6.268,-14 14,-14 z" />
  <path
     inkscape:connector-curvature="0"
     style="display:block;fill:url(#linearGradient19375)"
     id="path49"
     display="block"
     d="m 44.271,17.88 c -1.0823,0 -1.9375,0.89924 -1.9375,2 l 0,3.875 c -1.9352,0.5156 -3.777,1.2973 -5.4688,2.2812 l -2.7812,-2.75 c -0.38918,-0.38918 -0.84012,-0.62073 -1.3438,-0.625 -0.50364,-0.004 -1.0236,0.17987 -1.4062,0.5625 L 25.9273,28.63 c -0.76527,0.7653 -0.71577,1.9716 0.0625,2.75 l 2.75,2.7812 c -0.98394,1.6918 -1.7656,3.5336 -2.2812,5.4688 l -3.875,0 c -1.1008,0 -2,0.8552 -2,1.9375 l 0,7.6252 c 0,1.0823 0.89924,1.9375 2,1.9375 l 3.875,0 c 0.51561,1.9352 1.2973,3.777 2.2812,5.4688 l -2.75,2.7812 c -0.77835,0.7784 -0.82785,1.9848 -0.0625,2.7501 l 5.4062,5.4062 c 0.76526,0.7653 1.9716,0.7158 2.75,-0.063 l 2.7812,-2.75 c 1.6918,0.9839 3.5336,1.7657 5.4688,2.2813 l 0,3.875 c 0,1.1007 0.85524,2 1.9375,2 l 7.625,0 c 1.0822,0 1.9375,-0.8993 1.9375,-2 l 0,-3.875 c 1.9351,-0.5156 3.7769,-1.2974 5.4688,-2.2813 l 2.7812,2.75 c 0.77835,0.7784 1.9847,0.8278 2.75,0.063 l 5.4062,-5.4062 c 0.76526,-0.7653 0.71576,-1.9717 -0.0625,-2.7501 l -2.75,-2.7812 c 0.98393,-1.6918 1.7656,-3.5336 2.2812,-5.4688 l 3.875,0 c 1.1007,0 2,-0.8552 2,-1.9375 l 0,-7.6252 c 0,-1.0823 -0.89926,-1.9375 -2,-1.9375 l -3.875,0 c -0.5156,-1.9352 -1.2973,-3.777 -2.2812,-5.4688 l 2.75,-2.7812 c 0.77835,-0.7784 0.82785,-1.9847 0.0625,-2.75 l -5.4062,-5.4063 c -0.76528,-0.76527 -1.9716,-0.71585 -2.75,0.0625 l -2.7812,2.75 C 57.6105,25.05226 55.7687,24.2706 53.8335,23.755 l 0,-3.875 c 0,-1.1008 -0.85525,-2 -1.9375,-2 l -7.625,0 z m 3.8125,13.5 c 7.732,0 14,6.268 14,14 0,7.7321 -6.268,14 -14,14 -7.732,0 -14,-6.268 -14,-14 0,-7.732 6.268,-14 14,-14 z" />
  <g
     id="g14291">
    <path
       d="m 5.2922679,73.685059 0,5.0663 c 0,6.668 5.3645011,12.032 12.0320011,12.032 l 61.049,0 c 6.668,0 12.032,-5.3645 12.032,-12.032 l 0,-5.0663 c 0,6.6681 -5.3645,12.032 -12.032,12.032 l -61.049,0 c -6.668,0 -12.0320011,-5.3643 -12.0320011,-12.032 z"
       id="path64"
       inkscape:connector-curvature="0"
       style="opacity:0.4;fill:url(#linearGradient14237);fill-opacity:1" />
    <path
       inkscape:connector-curvature="0"
       id="path14214"
       d="m 5.2929688,72.717592 0,1.15039 c 0,6.667718 5.3632502,12.031248 12.0312502,12.031248 l 61.048828,0 c 6.6675,0 12.03125,-5.36313 12.03125,-12.031248 l 0,-1.15039 c 0,6.668098 -5.36375,12.031248 -12.03125,12.031248 l -61.048828,0 c -6.668,0 -12.0312502,-5.36355 -12.0312502,-12.031248 z"
       style="opacity:0.5;fill:url(#linearGradient14245);fill-opacity:1" />
  </g>
</svg>
