<svg height="96" width="96" xmlns="http://www.w3.org/2000/svg" xmlns:xlink="http://www.w3.org/1999/xlink" xmlns:sodipodi="http://sodipodi.sourceforge.net/DTD/sodipodi-0.dtd" xmlns:inkscape="http://www.inkscape.org/namespaces/inkscape">
 <defs>
  <linearGradient x2="0" y1="20.221" y2="138.66" gradientUnits="userSpaceOnUse" id="linearGradient2862-8">
   <stop stop-color="#fff"/>
   <stop stop-color="#fff" stop-opacity="0" offset="1"/>
  </linearGradient>
  <clipPath id="clipPath3613-8">
   <use xlink:href="#SVGCleanerId_1"/>
  </clipPath>
  <filter x="-0.192" y="-0.192" height="1.384" color-interpolation-filters="sRGB" id="filter3794-9" width="1.384">
   <feGaussianBlur stdDeviation="5.28"/>
  </filter>
  <clipPath id="clipPath3613-3">
   <use xlink:href="#SVGCleanerId_1"/>
  </clipPath>
  <linearGradient x2="0" y1="1028.7" y2="970.99" gradientUnits="userSpaceOnUse" id="linearGradient19375">
   <stop stop-color="#ccc"/>
   <stop stop-color="#ebeef2" offset="1"/>
  </linearGradient>
  <rect x="15" stroke-width="0.5" rx="12" y="15" fill="url(#linearGradient2862-8)" stroke="#fff" height="66" filter="url(#filter3794-9)" id="SVGCleanerId_0" width="66" stroke-linecap="round"/>
  <rect x="6" rx="6" y="6" height="84" id="SVGCleanerId_1" width="84"/>
 </defs>
 <g transform="matrix(1 0 0 1 0 -956.36)">
  <rect x="3" rx="12.724" y="959.35" fill-opacity="0.02" height="89.98" width="89.98"/>
  <rect x="3.608" rx="12.552" y="959.96" fill-opacity="0.039" height="88.76" width="88.76"/>
  <rect x="4.216" rx="12.38" y="960.57" fill-opacity="0.078" height="87.55" width="87.55"/>
  <rect x="4.824" rx="12.208" y="961.18" fill-opacity="0.157" height="86.33" width="86.33"/>
  <path d="m17.469 5.4062c-6.668 0-12.032 5.3948-12.032 12.063l0.0005 61.031c0 6.668 5.3635 12.031 12.032 12.031h61.03c6.668 0 12.031-5.363 12.031-12.031v-61.031c0-6.668-5.363-12.063-12.031-12.063l-61.031 0.0002z" fill="#808080" transform="matrix(1 0 0 1 0 956.36)"/>
  <path d="m5.4316 1029.8v5.0663c0 6.668 5.3645 12.032 12.032 12.032h61.049c6.668 0 12.032-5.3645 12.032-12.032v-5.0663c0 6.6681-5.3645 12.032-12.032 12.032h-61.049c-6.668 0-12.032-5.3643-12.032-12.032z" fill-opacity="0.2"/>
  <path d="m5.4316 1033.9v1.0133c0 6.668 5.3645 12.032 12.032 12.032h61.049c6.668 0 12.032-5.3645 12.032-12.032v-1.0133c0 6.6681-5.3645 12.032-12.032 12.032h-61.049c-6.668 0-12.032-5.3644-12.032-12.032z" fill-opacity="0.098"/>
  <use xlink:href="#SVGCleanerId_0" clip-path="url(#clipPath3613-8)" opacity="0.2" transform="matrix(1 0 0 1 0 953.86)"/>
  <use xlink:href="#SVGCleanerId_0" clip-path="url(#clipPath3613-3)" opacity="0.1" transform="matrix(1.0295 0 0 1.0295 -1.154 954.69)"/>
  <path d="m44.271 977.18c-1.0823 0-1.9375 0.89924-1.9375 2v3.875c-1.9352 0.5156-3.777 1.2973-5.4688 2.2812l-2.7812-2.75c-0.38918-0.38918-0.84012-0.62073-1.3438-0.625-0.50364-0.004-1.0236 0.17987-1.4062 0.5625l-5.4062 5.4063c-0.76527 0.7653-0.71577 1.9716 0.0625 2.75l2.75 2.7812c-0.98394 1.6918-1.7656 3.5336-2.2812 5.4688h-3.875c-1.1008 0-2 0.85515-2 1.9374v7.6251c0 1.0823 0.89924 1.9375 2 1.9375h3.875c0.51561 1.9352 1.2973 3.777 2.2812 5.4688l-2.75 2.7812c-0.77835 0.7784-0.82785 1.9848-0.0625 2.7501l5.4062 5.4062c0.76526 0.7653 1.9716 0.7158 2.75-0.063l2.7812-2.75c1.6918 0.9839 3.5336 1.7657 5.4688 2.2813v3.875c0 1.1007 0.85524 2 1.9375 2h7.625c1.0822 0 1.9375-0.8993 1.9375-2v-3.875c1.9351-0.5156 3.7769-1.2974 5.4688-2.2813l2.7812 2.75c0.77835 0.7784 1.9847 0.8278 2.75 0.063l5.4062-5.4062c0.76526-0.7653 0.71576-1.9717-0.0625-2.7501l-2.75-2.7812c0.98393-1.6918 1.7656-3.5336 2.2812-5.4688h3.875c1.1007 0 2-0.8552 2-1.9375v-7.6251c0-1.0822-0.89926-1.9374-2-1.9374h-3.875c-0.5156-1.9352-1.2973-3.777-2.2812-5.4688l2.75-2.7812c0.77835-0.7784 0.82785-1.9847 0.0625-2.75l-5.4062-5.4063c-0.76528-0.76527-1.9716-0.71585-2.75 0.0625l-2.7812 2.75c-1.6918-0.98394-3.5336-1.7656-5.4688-2.2812v-3.875c0-1.1008-0.85525-2-1.9375-2h-7.625zm3.8125 13.5c7.732 0 14 6.268 14 14 0 7.7321-6.268 14-14 14s-14-6.268-14-14c0-7.7319 6.268-14 14-14z" display="block" fill="#666"/>
  <path d="m44.271 974.24c-1.0823 0-1.9375 0.89924-1.9375 2v3.875c-1.9352 0.5156-3.777 1.2973-5.4688 2.2812l-2.7812-2.75c-0.38918-0.38918-0.84012-0.62073-1.3438-0.625-0.50364-0.004-1.0236 0.17987-1.4062 0.5625l-5.4062 5.4063c-0.76527 0.7653-0.71577 1.9716 0.0625 2.75l2.75 2.7812c-0.98394 1.6918-1.7656 3.5336-2.2812 5.4688h-3.875c-1.1008 0-2 0.8552-2 1.9375v7.6252c0 1.0823 0.89924 1.9375 2 1.9375h3.875c0.51561 1.9352 1.2973 3.777 2.2812 5.4688l-2.75 2.7812c-0.77835 0.7784-0.82785 1.9848-0.0625 2.7501l5.4062 5.4062c0.76526 0.7653 1.9716 0.7158 2.75-0.063l2.7812-2.75c1.6918 0.9839 3.5336 1.7657 5.4688 2.2813v3.875c0 1.1007 0.85524 2 1.9375 2h7.625c1.0822 0 1.9375-0.8993 1.9375-2v-3.875c1.9351-0.5156 3.7769-1.2974 5.4688-2.2813l2.7812 2.75c0.77835 0.7784 1.9847 0.8278 2.75 0.063l5.4062-5.4062c0.76526-0.7653 0.71576-1.9717-0.0625-2.7501l-2.75-2.7812c0.98393-1.6918 1.7656-3.5336 2.2812-5.4688h3.875c1.1007 0 2-0.8552 2-1.9375v-7.6252c0-1.0823-0.89926-1.9375-2-1.9375h-3.875c-0.5156-1.9352-1.2973-3.777-2.2812-5.4688l2.75-2.7812c0.77835-0.7784 0.82785-1.9847 0.0625-2.75l-5.4062-5.4063c-0.76528-0.76527-1.9716-0.71585-2.75 0.0625l-2.7812 2.75c-1.6918-0.98394-3.5336-1.7656-5.4688-2.2812v-3.875c0-1.1008-0.85525-2-1.9375-2h-7.625zm3.8125 13.5c7.732 0 14 6.268 14 14 0 7.7321-6.268 14-14 14s-14-6.268-14-14 6.268-14 14-14z" display="block" fill="url(#linearGradient19375)"/>
 </g>
</svg>
