<?xml version="1.0" encoding="UTF-8" standalone="no"?>
<svg
   xmlns:dc="http://purl.org/dc/elements/1.1/"
   xmlns:cc="http://creativecommons.org/ns#"
   xmlns:rdf="http://www.w3.org/1999/02/22-rdf-syntax-ns#"
   xmlns:svg="http://www.w3.org/2000/svg"
   xmlns="http://www.w3.org/2000/svg"
   xmlns:xlink="http://www.w3.org/1999/xlink"
   xmlns:sodipodi="http://sodipodi.sourceforge.net/DTD/sodipodi-0.dtd"
   xmlns:inkscape="http://www.inkscape.org/namespaces/inkscape"
   height="96"
   width="96"
   id="svg728"
   version="1.1"
   inkscape:version="0.91 r13725"
   sodipodi:docname="autoplus.svg">
  <metadata
     id="metadata800">
    <rdf:RDF>
      <cc:Work
         rdf:about="">
        <dc:format>image/svg+xml</dc:format>
        <dc:type
           rdf:resource="http://purl.org/dc/dcmitype/StillImage" />
      </cc:Work>
    </rdf:RDF>
  </metadata>
  <sodipodi:namedview
     pagecolor="#ffffff"
     bordercolor="#666666"
     borderopacity="1"
     objecttolerance="10"
     gridtolerance="10"
     guidetolerance="10"
     inkscape:pageopacity="0"
     inkscape:pageshadow="2"
     inkscape:window-width="640"
     inkscape:window-height="480"
     id="namedview798"
     showgrid="false"
     inkscape:zoom="2.4583333"
     inkscape:cx="48"
     inkscape:cy="16.293037"
     inkscape:current-layer="svg728" />
  <defs
     id="defs730">
    <linearGradient
       x2="0"
       y1="20.221"
       y2="138.66"
       gradientUnits="userSpaceOnUse"
       id="linearGradient3613-3">
      <stop
         stop-color="#fff"
         id="stop733" />
      <stop
         stop-color="#fff"
         stop-opacity="0"
         offset="1"
         id="stop735" />
    </linearGradient>
    <clipPath
       id="clipPath3613-29">
      <use
         xlink:href="#SVGCleanerId_1"
         id="use738" />
    </clipPath>
    <filter
       x="-0.192"
       y="-0.192"
       height="1.384"
       color-interpolation-filters="sRGB"
       id="filter3794-0"
       width="1.384">
      <feGaussianBlur
         stdDeviation="5.28"
         id="feGaussianBlur741" />
    </filter>
    <radialGradient
       cy="48"
       r="35.25"
       gradientUnits="userSpaceOnUse"
       id="radialGradient3063"
       cx="48"
       gradientTransform="matrix(1.0168,0,0,1.021,-0.61,-4.49)">
      <stop
         stop-color="#294172"
         stop-opacity="0.374"
         id="stop744" />
      <stop
         stop-color="#294172"
         offset="1"
         id="stop746" />
    </radialGradient>
    <clipPath
       id="clipPath3613-25">
      <use
         xlink:href="#SVGCleanerId_1"
         id="use749" />
    </clipPath>
    <linearGradient
       x2="0"
       y1="90"
       y2="5.988"
       gradientUnits="userSpaceOnUse"
       id="linearGradient3105"
       gradientTransform="matrix(1.0168,0,0,1.021,-0.61,-0.847)">
      <stop
         stop-color="#3c6eb4"
         id="stop752" />
      <stop
         stop-color="#81a4d5"
         offset="1"
         id="stop754" />
    </linearGradient>
    <rect
       x="15"
       stroke-width="0.5"
       rx="12"
       y="15"
       fill="url(#linearGradient3613-3)"
       stroke="#fff"
       height="66"
       filter="url(#filter3794-0)"
       id="SVGCleanerId_0"
       width="66"
       stroke-linecap="round" />
    <rect
       x="6"
       rx="6"
       y="6"
       height="84"
       id="SVGCleanerId_1"
       width="84" />
    <linearGradient
       inkscape:collect="always"
       xlink:href="#linearGradient14231"
       id="linearGradient14237"
       x1="50.707542"
       y1="81.682442"
       x2="50.707542"
       y2="96.539803"
       gradientUnits="userSpaceOnUse" />
    <linearGradient
       inkscape:collect="always"
       id="linearGradient14231">
      <stop
         style="stop-color:#000000;stop-opacity:1;"
         offset="0"
         id="stop14233" />
      <stop
         style="stop-color:#000000;stop-opacity:0;"
         offset="1"
         id="stop14235" />
    </linearGradient>
    <linearGradient
       inkscape:collect="always"
       xlink:href="#linearGradient14239"
       id="linearGradient14245"
       x1="49.876652"
       y1="87.937508"
       x2="49.876652"
       y2="76.719681"
       gradientUnits="userSpaceOnUse" />
    <linearGradient
       inkscape:collect="always"
       id="linearGradient14239">
      <stop
         style="stop-color:#ffffff;stop-opacity:1;"
         offset="0"
         id="stop14241" />
      <stop
         style="stop-color:#ffffff;stop-opacity:0;"
         offset="1"
         id="stop14243" />
    </linearGradient>
  </defs>
  <rect
     style="fill-opacity:0.02000002"
     id="rect760"
     width="89.980003"
     height="89.980003"
     y="2.9899757"
     rx="12.724"
     x="3" />
  <rect
     style="fill-opacity:0.03900003"
     id="rect762"
     width="88.760002"
     height="88.760002"
     y="3.6000221"
     rx="12.552"
     x="3.608" />
  <rect
     style="fill-opacity:0.078"
     id="rect764"
     width="87.550003"
     height="87.550003"
     y="4.2100072"
     rx="12.38"
     x="4.2160001" />
  <rect
     style="fill-opacity:0.15700001"
     id="rect766"
     width="86.330002"
     height="86.330002"
     y="4.8199925"
     rx="12.208"
     x="4.8239999" />
  <path
     inkscape:connector-curvature="0"
     style="fill:url(#linearGradient3105)"
     id="path768"
     d="m 17.469,5.4062 c -6.251,0 -11.355,4.7568 -11.969,10.844 l 0,63.469 c 0.6136,6.083 5.718,10.812 11.969,10.812 l 61.031,0 c 6.454,0 11.671,-5.036 12,-11.406 l 0,-62.281 c -0.321,-6.377 -5.54,-11.438 -12,-11.438 l -61.031,2e-4 z" />
  <use
     height="100%"
     width="100%"
     y="0"
     x="0"
     style="opacity:0.05"
     id="use774"
     transform="matrix(1.0149,0,0,1.0238,-0.838,-1.14)"
     clip-path="url(#clipPath3613-29)"
     xlink:href="#SVGCleanerId_0" />
  <use
     height="100%"
     width="100%"
     y="0"
     x="0"
     style="opacity:0.1"
     id="use776"
     transform="matrix(1.0168,0,0,1.021,-0.61,-0.85)"
     clip-path="url(#clipPath3613-25)"
     xlink:href="#SVGCleanerId_0" />
  <path
     inkscape:connector-curvature="0"
     style="color:#000000;fill:url(#radialGradient3063)"
     id="path778"
     d="m 40.699,8.53 c -4.5543,0.95294 -8.7901,2.7848 -12.552,5.2648 0.10963,2.7522 -0.86552,5.5276 -2.9552,7.6259 -2.08968,2.0983 -4.8537,3.0775 -7.5945,2.9674 -2.4697,3.777 -4.294,8.0303 -5.2431,12.604 2.0318,1.8668 3.3047,4.5468 3.3047,7.5303 0,2.9834 -1.2729,5.6633 -3.3047,7.5302 0.94901,4.5731 2.7733,8.8265 5.2431,12.604 2.7408,-0.1102 5.5048,0.869 7.5945,2.9673 2.0897,2.0984 3.0648,4.874 2.9552,7.6262 3.7615,2.4799 7.9972,4.3118 12.552,5.2647 1.8592,-2.0402 4.5281,-3.3184 7.4992,-3.3184 2.9711,0 5.64,1.2782 7.4992,3.3184 4.5396,-0.9499 8.7674,-2.7653 12.52,-5.2328 -0.0061,-0.1474 0,-0.2994 0,-0.4467 0,-2.6131 1.0015,-5.2177 2.987,-7.2114 2.0897,-2.0983 4.8537,-3.0775 7.5945,-2.9673 2.4697,-3.7771 4.294,-8.0305 5.2431,-12.604 -2.0318,-1.8669 -3.3047,-4.5468 -3.3047,-7.5302 0,-2.9834 1.2729,-5.6634 3.3047,-7.5303 -0.94901,-4.5732 -2.7733,-8.8265 -5.2431,-12.604 -2.7408,0.11007 -5.5048,-0.86911 -7.5945,-2.9674 -1.9855,-1.9937 -2.987,-4.598 -2.987,-7.2111 0,-0.14735 -0.0061,-0.29931 0,-0.4467 -3.7524,-2.4676 -7.9802,-4.283 -12.52,-5.2329 -1.8592,2.0402 -4.5281,3.3184 -7.4992,3.3184 -2.9711,0 -5.64,-1.2782 -7.4992,-3.3184 z" />
  <path
     style="color:#000000;opacity:0.05"
     inkscape:connector-curvature="0"
     id="path780"
     d="m 40.699,8.53 c -4.5543,0.95294 -8.7901,2.7848 -12.552,5.2648 0.10963,2.7522 -0.86552,5.5276 -2.9552,7.6259 -2.08968,2.0983 -4.8537,3.0775 -7.5945,2.9674 -2.4697,3.777 -4.294,8.0303 -5.2431,12.604 2.0318,1.8668 3.3047,4.5468 3.3047,7.5303 0,2.9834 -1.2729,5.6633 -3.3047,7.5302 0.94901,4.5731 2.7733,8.8265 5.2431,12.604 2.7408,-0.1102 5.5048,0.869 7.5945,2.9673 2.0897,2.0984 3.0648,4.874 2.9552,7.6262 3.7615,2.4799 7.9972,4.3118 12.552,5.2647 1.8592,-2.0402 4.5281,-3.3184 7.4992,-3.3184 2.9711,0 5.64,1.2782 7.4992,3.3184 4.5396,-0.9499 8.7674,-2.7653 12.52,-5.2328 -0.0061,-0.1474 0,-0.2994 0,-0.4467 0,-2.6131 1.0015,-5.2177 2.987,-7.2114 2.0897,-2.0983 4.8537,-3.0775 7.5945,-2.9673 2.4697,-3.7771 4.294,-8.0305 5.2431,-12.604 -2.0318,-1.8669 -3.3047,-4.5468 -3.3047,-7.5302 0,-2.9834 1.2729,-5.6634 3.3047,-7.5303 -0.94901,-4.5732 -2.7733,-8.8265 -5.2431,-12.604 -2.7408,0.11007 -5.5048,-0.86911 -7.5945,-2.9674 -1.9855,-1.9937 -2.987,-4.598 -2.987,-7.2111 0,-0.14735 -0.0061,-0.29931 0,-0.4467 -3.7524,-2.4676 -7.9802,-4.283 -12.52,-5.2329 -1.8592,2.0402 -4.5281,3.3184 -7.4992,3.3184 -2.9711,0 -5.64,-1.2782 -7.4992,-3.3184 z m -0.63552,2.9036 c 2.2132,1.8553 5.0398,2.9993 8.1347,2.9993 3.0949,0 5.9215,-1.144 8.1347,-2.9993 3.4057,0.84821 6.6411,2.1895 9.5646,3.9885 0.27883,2.8534 1.3347,5.6477 3.4954,7.8174 2.1775,2.1866 4.9657,3.3714 7.8169,3.6375 1.767,2.9122 3.1033,6.0947 3.9402,9.4766 -1.8477,2.2223 -2.987,5.0607 -2.987,8.1684 0,3.1077 1.1393,5.946 2.987,8.1683 -0.83694,3.3818 -2.1732,6.5644 -3.9402,9.4767 -2.8512,0.2659 -5.6394,1.4509 -7.8169,3.6374 -2.1607,2.1697 -3.2165,4.9642 -3.4954,7.8176 -2.9235,1.7989 -6.1589,3.1402 -9.5646,3.9885 -2.2132,-1.8554 -5.0398,-2.9993 -8.1347,-2.9993 -3.0949,0 -5.9215,1.1439 -8.1347,2.9993 -3.3679,-0.8405 -6.5373,-2.1823 -9.4375,-3.9566 -0.26497,-2.8631 -1.4449,-5.663 -3.6225,-7.8495 -2.1775,-2.1865 -4.9657,-3.3715 -7.8169,-3.6374 -1.767,-2.9123 -3.1033,-6.0949 -3.9402,-9.4767 1.8477,-2.2223 2.987,-5.0606 2.987,-8.1683 0,-3.1078 -1.1393,-5.9461 -2.987,-8.1684 0.83693,-3.3818 2.1732,-6.5644 3.9402,-9.4766 2.8512,-0.26606 5.6394,-1.4509 7.8169,-3.6375 2.1775,-2.1866 3.3575,-4.9862 3.6225,-7.8493 2.9002,-1.7743 6.0696,-3.1162 9.4375,-3.9566 z" />
  <path
     style="opacity:0.1;fill:#0a57a4"
     inkscape:connector-curvature="0"
     id="path782"
     d="m 58.779,20.17 c -8.1099,0 -14.712,6.5959 -14.712,14.741 l 0,0.032 0,6.4772 -6.4506,0 c -8.1097,0 -14.681,6.5988 -14.681,14.741 0,8.1437 6.5712,14.742 14.681,14.742 8.1087,0 14.712,-6.5955 14.712,-14.742 l 0,-0.032 0,-6.5092 6.4506,0 c 8.1064,0 14.681,-6.5668 14.681,-14.709 0,-8.1431 -6.5718,-14.741 -14.681,-14.741 z m 0,8.296 c 3.5672,0 6.4506,2.8673 6.4506,6.4454 0,3.5776 -2.8925,6.5091 -6.4506,6.5091 l -0.03183,0 -6.2599,0 c -0.11576,0 -0.15888,-0.043 -0.15888,-0.1595 l 0,-6.3496 c 0.0061,-3.5738 2.8885,-6.4454 6.4506,-6.4454 z m -21.163,21.155 0.03183,0 6.2599,0 c 0.11432,0 0.15888,0.045 0.15888,0.1596 l 0,6.3815 c -0.0051,3.5708 -2.8891,6.4454 -6.4506,6.4454 -3.5671,0 -6.4506,-2.8681 -6.4506,-6.4454 0,-3.5788 2.8969,-6.5411 6.4506,-6.5411 z" />
  <path
     style="opacity:0.3;fill:#0a57a4"
     inkscape:connector-curvature="0"
     id="path784"
     d="m 58.767,21.03 c -7.6416,0 -13.836,6.22 -13.836,13.893 l 0,0.009 0,7.353 -7.3003,0 -0.002,0 c -7.6414,0 -13.835,6.1898 -13.835,13.862 0,7.6735 6.1943,13.893 13.835,13.893 7.6405,0 13.835,-6.2198 13.835,-13.893 l 0,-0.01 0,-7.3834 7.3,0 0.0031,0 c 7.6405,0 13.835,-6.1594 13.835,-13.832 0,-7.6728 -6.1943,-13.893 -13.835,-13.893 z M 44.931,56.161 c -0.0061,4.0429 -3.2736,7.3203 -7.3021,7.3203 -4.0327,0 -7.3323,-3.2829 -7.3323,-7.3323 0,-4.0508 3.2995,-7.3945 7.3323,-7.3945 l 0.0092,0 6.2572,0 0.0051,0 c 0.56966,0 1.0316,0.4629 1.0316,1.034 l -7.02e-4,0 0,6.3699 -2.34e-4,0 z m 13.835,-13.875 -0.0071,0 -6.2614,0 -0.0041,0 c -0.56966,0 -1.0304,-0.4627 -1.0304,-1.0352 l 0,-2e-4 0,-6.3391 c 0.0071,-4.0452 3.2736,-7.3216 7.3024,-7.3216 4.0327,0 7.333,3.2831 7.333,7.3333 0,4.0497 -3.3002,7.3628 -7.333,7.3628 z" />
  <path
     style="fill:#5484c6"
     inkscape:connector-curvature="0"
     id="path786"
     d="m 58.766312,20.016376 c -7.641617,0 -13.83571,6.220041 -13.83571,13.892911 l 0,0.0096 0,7.353069 -7.300239,0 -0.0019,0 c -7.641383,0 -13.835476,6.189775 -13.835476,13.862176 0,7.673574 6.194326,13.89338 13.835476,13.89338 7.640448,0 13.834775,-6.219806 13.834775,-13.89338 l 0,-0.0096 0,-7.383572 7.300005,0 0.003,0 c 7.640448,0 13.834775,-6.159272 13.834775,-13.831673 0,-7.67287 -6.194327,-13.892911 -13.834775,-13.892911 z m -13.83571,35.131149 c -0.0058,4.04291 -3.273576,7.320456 -7.302108,7.320456 -4.032738,0 -7.332251,-3.282943 -7.332251,-7.332422 0,-4.050887 3.299513,-7.394599 7.332251,-7.394599 l 0.0096,0 6.257181,0 0.0047,0 c 0.569663,0 1.031609,0.462925 1.031609,1.034015 0,0.0012 -7.01e-4,0.0012 -7.01e-4,0.0026 l 0,6.369969 -2.34e-4,0 z m 13.835009,-13.875314 -0.0068,0 -6.261387,0 -0.0037,0 c -0.569663,0 -1.03044,-0.46269 -1.03044,-1.035187 l 0,-2.35e-4 0,-6.339233 c 0.0068,-4.045256 3.273576,-7.32163 7.302342,-7.32163 4.032738,0 7.332952,3.283178 7.332952,7.333361 0,4.049714 -3.300214,7.362924 -7.332952,7.362924 z" />
  <path
     style="fill:#ffffff"
     inkscape:connector-curvature="0"
     id="path788"
     d="m 44.931,41.27 0,-7.3532 0,-0.009 c 0,-7.6728 6.1941,-13.893 13.836,-13.893 1.1592,0 1.9828,0.13116 3.0558,0.41317 1.5648,0.41201 2.8427,1.6992 2.8434,3.1975 7.01e-4,1.8113 -1.3087,3.128 -3.2656,3.128 -0.9323,0 -1.2692,-0.17926 -2.6343,-0.17926 -4.0288,0 -7.2956,3.2763 -7.3023,7.3216 l 0,6.339 0,2e-4 c 0,0.5725 0.46078,1.0352 1.0304,1.0352 l 0.0041,0 4.7952,0 c 1.787,0 3.2301,1.4366 3.2315,3.23579 0,1.7998 -1.4452,3.2331 -3.2315,3.2331 l -5.8294,0 0,7.3836 0,0.011 c 0,7.6721 -6.1943,13.892 -13.835,13.892 -1.1594,0 -1.9831,-0.1312 -3.056,-0.4134 -1.5648,-0.4118 -2.8432,-1.6998 -2.8439,-3.1976 0,-1.8109 1.3085,-3.128 3.2663,-3.128 0.93137,0 1.2692,0.1795 2.6336,0.1795 4.0288,0 7.2965,-3.2767 7.3028,-7.3204 l 0,-6.3722 c 0,-0.5714 -0.46195,-1.0341 -1.0316,-1.0341 l -0.002,0 -4.7949,0 c -1.7875,0 -3.2318,-1.4319 -3.2318,-3.2322 -4.68e-4,-1.81039 1.4592,-3.23659 3.2656,-3.23659 l 5.7945,0 0,-2e-4 z" />
  <path
     style="color:#000000;opacity:0.1"
     inkscape:connector-curvature="0"
     id="path790"
     d="m 40.699,8.53 c -4.5543,0.95294 -8.7901,2.7848 -12.552,5.2648 0.10963,2.7522 -0.86552,5.5276 -2.9552,7.6259 -2.08968,2.0983 -4.8537,3.0775 -7.5945,2.9674 -2.4697,3.777 -4.294,8.0303 -5.2431,12.604 2.0318,1.8668 3.3047,4.5468 3.3047,7.5303 0,2.9834 -1.2729,5.6633 -3.3047,7.5302 0.94901,4.5731 2.7733,8.8265 5.2431,12.604 2.7408,-0.1102 5.5048,0.869 7.5945,2.9673 2.0897,2.0984 3.0648,4.874 2.9552,7.6262 3.7615,2.4799 7.9972,4.3118 12.552,5.2647 1.8592,-2.0402 4.5281,-3.3184 7.4992,-3.3184 2.9711,0 5.64,1.2782 7.4992,3.3184 4.5396,-0.9499 8.7674,-2.7653 12.52,-5.2328 -0.0061,-0.1474 0,-0.2994 0,-0.4467 0,-2.6131 1.0015,-5.2177 2.987,-7.2114 2.0897,-2.0983 4.8537,-3.0775 7.5945,-2.9673 2.4697,-3.7771 4.294,-8.0305 5.2431,-12.604 -2.0318,-1.8669 -3.3047,-4.5468 -3.3047,-7.5302 0,-2.9834 1.2729,-5.6634 3.3047,-7.5303 -0.94901,-4.5732 -2.7733,-8.8265 -5.2431,-12.604 -2.7408,0.11007 -5.5048,-0.86911 -7.5945,-2.9674 -1.9855,-1.9937 -2.987,-4.598 -2.987,-7.2111 0,-0.14735 -0.0061,-0.29931 0,-0.4467 -3.7524,-2.4676 -7.9802,-4.283 -12.52,-5.2329 -1.8592,2.0402 -4.5281,3.3184 -7.4992,3.3184 -2.9711,0 -5.64,-1.2782 -7.4992,-3.3184 z m -0.28598,2.0421 c 2.1146,1.8551 4.766,3.127 7.7852,3.127 3.0191,0 5.6705,-1.2719 7.7851,-3.127 3.7896,0.8769 7.3387,2.3876 10.55,4.4033 0.18481,2.8247 1.2297,5.6062 3.3683,7.7536 2.1282,2.137 4.8692,3.1248 7.658,3.3184 2.0318,3.2442 3.5684,6.8258 4.4487,10.657 -1.8474,2.1234 -3.1141,4.7857 -3.1141,7.8174 0,3.0317 1.2666,5.6939 3.1141,7.8174 -0.88031,3.8314 -2.4169,7.4129 -4.4487,10.657 -2.7888,0.1936 -5.5299,1.1813 -7.658,3.3184 -2.1385,2.1473 -3.1835,4.929 -3.3683,7.7537 -3.211,2.0156 -6.7601,3.5264 -10.55,4.4032 -2.1146,-1.855 -4.766,-3.1269 -7.7851,-3.1269 -3.0192,0 -5.6705,1.2719 -7.7852,3.1269 -3.8156,-0.8839 -7.3824,-2.4268 -10.613,-4.467 -0.19283,-2.8004 -1.1765,-5.553 -3.3047,-7.6899 -2.1282,-2.1371 -4.8692,-3.1248 -7.658,-3.3184 -2.0318,-3.2443 -3.5684,-6.8258 -4.4487,-10.657 1.8474,-2.1235 3.1141,-4.7857 3.1141,-7.8174 0,-3.0318 -1.2666,-5.6941 -3.1141,-7.8174 0.8803,-3.8314 2.4169,-7.413 4.4487,-10.657 2.7888,-0.19363 5.5299,-1.1814 7.658,-3.3184 2.1282,-2.137 3.1119,-4.8894 3.3047,-7.6898 3.2308,-2.0402 6.7976,-3.5831 10.613,-4.4671 z" />
  <path
     style="color:#000000;opacity:0.3"
     inkscape:connector-curvature="0"
     id="path792"
     d="m 40.699,8.53 c -4.5543,0.95294 -8.7901,2.7848 -12.552,5.2648 0.01371,0.34403 0.02026,0.67767 0,1.021 3.7615,-2.4799 7.9972,-4.3118 12.552,-5.2648 1.8592,2.0402 4.5281,3.3184 7.4992,3.3184 2.9711,0 5.64,-1.2782 7.4992,-3.3184 4.5396,0.94986 8.7674,2.7653 12.52,5.2328 -0.0061,0.14739 0,0.29935 0,0.44671 0,2.6131 1.0015,5.2174 2.987,7.2111 2.0897,2.0983 4.8537,3.0775 7.5945,2.9674 2.3181,3.5452 4.0616,7.5188 5.0524,11.774 0.06457,-0.0626 0.1244,-0.13057 0.19066,-0.19144 -0.94901,-4.5732 -2.7733,-8.8265 -5.2431,-12.604 -2.7408,0.11007 -5.5048,-0.86911 -7.5945,-2.9674 -1.9855,-1.9937 -2.987,-4.598 -2.987,-7.2111 0,-0.14735 -0.0061,-0.29931 0,-0.4467 -3.7524,-2.4676 -7.9802,-4.283 -12.52,-5.2329 -1.8592,2.0402 -4.5281,3.3184 -7.4992,3.3184 -2.9711,0 -5.64,-1.2782 -7.4992,-3.3184 z m -12.552,6.2858 c -0.14178,2.4037 -1.1267,4.7689 -2.9552,6.6049 -2.0897,2.0983 -4.8537,3.0775 -7.5945,2.9674 -2.4697,3.777 -4.294,8.0303 -5.2431,12.604 0.06626,0.0609 0.12603,0.12885 0.19066,0.19144 0.99081,-4.2551 2.7343,-8.2287 5.0524,-11.774 2.7408,0.11008 5.5048,-0.8691 7.5945,-2.9674 2.0897,-2.0983 3.0648,-4.8738 2.9552,-7.6259 z m -12.52,30.217 c -0.13562,2.7786 -1.3573,5.2595 -3.2729,7.0197 0.05825,0.2807 0.12587,0.5514 0.19066,0.8296 1.9171,-1.8568 3.1141,-4.4527 3.1141,-7.3388 0,-0.1705 -0.02355,-0.342 -0.03178,-0.5105 z m 65.141,0 c -0.0081,0.1685 -0.03183,0.34 -0.03183,0.5105 0,2.8861 1.1969,5.482 3.1141,7.3388 0.06477,-0.2782 0.1324,-0.5489 0.19066,-0.8296 -1.9157,-1.7602 -3.1373,-4.2411 -3.2729,-7.0197 z" />
  <path
     style="color:#000000;opacity:0.15"
     inkscape:connector-curvature="0"
     id="path794"
     d="m 40.699,8.53 c -4.5543,0.95294 -8.7901,2.7848 -12.552,5.2648 0.10963,2.7522 -0.86552,5.5276 -2.9552,7.6259 -2.08968,2.0983 -4.8537,3.0775 -7.5945,2.9674 -2.4697,3.777 -4.294,8.0303 -5.2431,12.604 2.0318,1.8668 3.3047,4.5468 3.3047,7.5303 0,2.9834 -1.2729,5.6633 -3.3047,7.5302 0.94901,4.5731 2.7733,8.8265 5.2431,12.604 2.7408,-0.1102 5.5048,0.869 7.5945,2.9673 2.0897,2.0984 3.0648,4.874 2.9552,7.6262 3.7615,2.4799 7.9972,4.3118 12.552,5.2647 1.8592,-2.0402 4.5281,-3.3184 7.4992,-3.3184 2.9711,0 5.64,1.2782 7.4992,3.3184 4.5396,-0.9499 8.7674,-2.7653 12.52,-5.2328 -0.0061,-0.1474 0,-0.2994 0,-0.4467 0,-2.6131 1.0015,-5.2177 2.987,-7.2114 2.0897,-2.0983 4.8537,-3.0775 7.5945,-2.9673 2.4697,-3.7771 4.294,-8.0305 5.2431,-12.604 -2.0318,-1.8669 -3.3047,-4.5468 -3.3047,-7.5302 0,-2.9834 1.2729,-5.6634 3.3047,-7.5303 -0.94901,-4.5732 -2.7733,-8.8265 -5.2431,-12.604 -2.7408,0.11007 -5.5048,-0.86911 -7.5945,-2.9674 -1.9855,-1.9937 -2.987,-4.598 -2.987,-7.2111 0,-0.14735 -0.0061,-0.29931 0,-0.4467 -3.7524,-2.4676 -7.9802,-4.283 -12.52,-5.2329 -1.8592,2.0402 -4.5281,3.3184 -7.4992,3.3184 -2.9711,0 -5.64,-1.2782 -7.4992,-3.3184 z m -0.19066,1.021 c 1.9951,1.9546 4.6863,3.2227 7.6898,3.2227 3.0121,0 5.725,-1.2583 7.7216,-3.2227 4.1146,0.91556 7.958,2.5447 11.408,4.7542 0.02542,2.8128 1.1098,5.6134 3.2412,7.7536 2.1183,2.127 4.8791,3.1516 7.658,3.1908 2.2299,3.4915 3.8814,7.38 4.7982,11.551 -1.9465,2.0034 -3.2094,4.7057 -3.2094,7.7217 0,3.0159 1.2628,5.7182 3.2094,7.7216 -0.91683,4.1706 -2.5683,8.0591 -4.7982,11.551 -2.779,0.039 -5.5398,1.0637 -7.658,3.1908 -2.1314,2.1402 -3.2157,4.9409 -3.2412,7.7538 -3.4497,2.2095 -7.293,3.8386 -11.408,4.7542 -1.9966,-1.9644 -4.7095,-3.2226 -7.7216,-3.2226 -3.0035,0 -5.6947,1.268 -7.6898,3.2226 -4.1533,-0.9207 -8.0259,-2.5789 -11.503,-4.818 -0.03896,-2.7905 -1.0594,-5.563 -3.1776,-7.69 -2.1183,-2.1271 -4.8791,-3.1517 -7.658,-3.1908 -2.2299,-3.4915 -3.8814,-7.38 -4.7982,-11.551 1.9465,-2.0034 3.2094,-4.7057 3.2094,-7.7216 0,-3.016 -1.2629,-5.7184 -3.2094,-7.7217 0.91683,-4.1705 2.5683,-8.0591 4.7982,-11.551 2.779,-0.0391 5.5398,-1.0637 7.658,-3.1908 2.1183,-2.127 3.1387,-4.8993 3.1776,-7.6898 3.4771,-2.2392 7.3496,-3.8974 11.503,-4.818 z" />
  <path
     style="color:#000000;opacity:0.2;fill:#ffffff"
     inkscape:connector-curvature="0"
     id="path796"
     d="m 12.545,37.18 c -0.06479,0.27825 -0.13241,0.54891 -0.19066,0.8296 1.9157,1.7601 3.1373,4.2411 3.2729,7.0197 0.0082,-0.1685 0.03178,-0.34 0.03178,-0.5105 0,-2.8862 -1.1969,-5.4821 -3.1141,-7.3388 z m 71.306,0 c -1.9171,1.8568 -3.1141,4.4527 -3.1141,7.3388 0,0.1705 0.02359,0.342 0.03183,0.5105 0.13562,-2.7786 1.3573,-5.2596 3.2729,-7.0197 C 83.98337,37.72891 83.91577,37.45825 83.85097,37.18 Z M 12.545,52.879 c -0.06462,0.062 -0.1244,0.1306 -0.19066,0.1914 0.94901,4.5732 2.7733,8.8266 5.2431,12.604 2.7408,-0.1102 5.5048,0.869 7.5945,2.9674 1.8284,1.8362 2.8134,4.2014 2.9552,6.6051 0.10963,-2.7522 -0.86552,-5.5278 -2.9552,-7.6262 -2.0897,-2.0983 -4.8537,-3.0775 -7.5945,-2.9673 -2.3181,-3.5453 -4.0616,-7.5189 -5.0524,-11.774 z m 15.602,22.368 c 0.02026,0.3434 0.01371,0.677 0,1.0211 3.7615,2.4799 7.9972,4.3117 12.552,5.2647 1.8592,-2.0403 4.5281,-3.3184 7.4992,-3.3184 2.9711,0 5.64,1.2781 7.4992,3.3184 4.5396,-0.9499 8.7674,-2.7653 12.52,-5.2329 -0.0061,-0.1473 0,-0.2994 0,-0.4467 0,-2.6131 1.0015,-5.2174 2.987,-7.2113 2.0897,-2.0984 4.8537,-3.0776 7.5945,-2.9674 2.4697,-3.777 4.294,-8.0304 5.2431,-12.604 -0.0663,-0.061 -0.12604,-0.1288 -0.19066,-0.1914 -0.9908,4.2551 -2.7343,8.2287 -5.0524,11.774 -2.7408,-0.1102 -5.5048,0.869 -7.5945,2.9673 -1.9855,1.9937 -2.987,4.5983 -2.987,7.2114 0,0.1473 -0.0061,0.2993 0,0.4467 -3.7524,2.4675 -7.9802,4.2829 -12.52,5.2328 -1.8592,-2.0402 -4.5281,-3.3184 -7.4992,-3.3184 -2.9711,0 -5.64,1.2782 -7.4992,3.3184 -4.5543,-0.9529 -8.7901,-2.7848 -12.552,-5.2647 z" />
  <g
     id="g14291">
    <path
       d="m 5.2922679,73.685059 0,5.0663 c 0,6.668 5.3645011,12.032 12.0320011,12.032 l 61.049,0 c 6.668,0 12.032,-5.3645 12.032,-12.032 l 0,-5.0663 c 0,6.6681 -5.3645,12.032 -12.032,12.032 l -61.049,0 c -6.668,0 -12.0320011,-5.3643 -12.0320011,-12.032 z"
       id="path64"
       inkscape:connector-curvature="0"
       style="opacity:0.4;fill:url(#linearGradient14237);fill-opacity:1" />
    <path
       inkscape:connector-curvature="0"
       id="path14214"
       d="m 5.2929688,72.717592 0,1.15039 c 0,6.667718 5.3632502,12.031248 12.0312502,12.031248 l 61.048828,0 c 6.6675,0 12.03125,-5.36313 12.03125,-12.031248 l 0,-1.15039 c 0,6.668098 -5.36375,12.031248 -12.03125,12.031248 l -61.048828,0 c -6.668,0 -12.0312502,-5.36355 -12.0312502,-12.031248 z"
       style="opacity:0.5;fill:url(#linearGradient14245);fill-opacity:1" />
  </g>
</svg>
