<?xml version="1.0" encoding="UTF-8" standalone="no"?>
<svg
   xmlns:dc="http://purl.org/dc/elements/1.1/"
   xmlns:cc="http://creativecommons.org/ns#"
   xmlns:rdf="http://www.w3.org/1999/02/22-rdf-syntax-ns#"
   xmlns:svg="http://www.w3.org/2000/svg"
   xmlns="http://www.w3.org/2000/svg"
   xmlns:xlink="http://www.w3.org/1999/xlink"
   xmlns:sodipodi="http://sodipodi.sourceforge.net/DTD/sodipodi-0.dtd"
   xmlns:inkscape="http://www.inkscape.org/namespaces/inkscape"
   height="96"
   width="96"
   id="svg431"
   version="1.1"
   inkscape:version="0.91 r13725"
   sodipodi:docname="avant-window-navigator.svg">
  <metadata
     id="metadata653">
    <rdf:RDF>
      <cc:Work
         rdf:about="">
        <dc:format>image/svg+xml</dc:format>
        <dc:type
           rdf:resource="http://purl.org/dc/dcmitype/StillImage" />
      </cc:Work>
    </rdf:RDF>
  </metadata>
  <sodipodi:namedview
     pagecolor="#ffffff"
     bordercolor="#666666"
     borderopacity="1"
     objecttolerance="10"
     gridtolerance="10"
     guidetolerance="10"
     inkscape:pageopacity="0"
     inkscape:pageshadow="2"
     inkscape:window-width="640"
     inkscape:window-height="480"
     id="namedview651"
     showgrid="false"
     inkscape:zoom="2.4583333"
     inkscape:cx="48"
     inkscape:cy="48"
     inkscape:current-layer="svg431" />
  <defs
     id="defs433">
    <linearGradient
       x2="0"
       y1="20.221"
       y2="138.66"
       gradientUnits="userSpaceOnUse"
       id="linearGradient3613-3">
      <stop
         stop-color="#fff"
         id="stop436" />
      <stop
         stop-color="#fff"
         stop-opacity="0"
         offset="1"
         id="stop438" />
    </linearGradient>
    <clipPath
       id="clipPath3613-29">
      <use
         xlink:href="#SVGCleanerId_1"
         id="use441" />
    </clipPath>
    <filter
       x="-0.192"
       y="-0.192"
       height="1.384"
       color-interpolation-filters="sRGB"
       id="filter3794-0"
       width="1.384">
      <feGaussianBlur
         stdDeviation="5.28"
         id="feGaussianBlur444" />
    </filter>
    <clipPath
       id="clipPath3613-25">
      <use
         xlink:href="#SVGCleanerId_1"
         id="use447" />
    </clipPath>
    <linearGradient
       x2="0"
       y1="90"
       y2="5.988"
       gradientUnits="userSpaceOnUse"
       id="linearGradient3105"
       gradientTransform="matrix(1.0168,0,0,1.021,-0.61,-0.847)">
      <stop
         stop-color="#3c6eb4"
         id="stop450" />
      <stop
         stop-color="#81a4d5"
         offset="1"
         id="stop452" />
    </linearGradient>
    <linearGradient
       x2="0"
       y1="22"
       y2="-9.817"
       gradientUnits="userSpaceOnUse"
       id="linearGradient4286">
      <stop
         id="stop455" />
      <stop
         stop-opacity="0"
         offset="1"
         id="stop457" />
    </linearGradient>
    <linearGradient
       x2="0"
       y1="27.26"
       y2="7.254"
       gradientUnits="userSpaceOnUse"
       id="linearGradient4288"
       gradientTransform="matrix(1 0 0 1 11.12 -6.258)">
      <stop
         stop-color="#afafaf"
         id="stop460" />
      <stop
         stop-color="#d8d8d8"
         offset="1"
         id="stop462" />
    </linearGradient>
    <clipPath
       id="clipPath2849-2">
      <use
         xlink:href="#SVGCleanerId_2"
         id="use465" />
    </clipPath>
    <filter
       x="-0.18"
       y="-0.18"
       height="1.36"
       color-interpolation-filters="sRGB"
       id="filter3194-1"
       width="1.36">
      <feGaussianBlur
         stdDeviation="1.2"
         id="feGaussianBlur468" />
    </filter>
    <linearGradient
       x2="0"
       y1="21"
       y2="0.9"
       gradientUnits="userSpaceOnUse"
       id="linearGradient4290">
      <stop
         stop-color="#969696"
         id="stop471" />
      <stop
         stop-color="#cacaca"
         offset="1"
         id="stop473" />
    </linearGradient>
    <clipPath
       id="clipPath6183">
      <use
         xlink:href="#SVGCleanerId_2"
         id="use476" />
    </clipPath>
    <clipPath
       id="clipPath3739">
      <path
         d="m33 1c-0.277 0-0.54181 0.055313-0.78125 0.15625-0.37163 0.26346-0.71445 0.58231-1 0.9375-0.138 0.2716-0.219 0.5798-0.219 0.9062v4.9688c0.89033 1.2931 2.3739 2.1563 4.0625 2.1562 2.727 0 4.938-2.2106 4.938-4.9375 0-1.7705-0.944-3.316-2.344-4.1875h-4.656zm7.5312 0 0.5625 0.84375 0.46875-0.25l0.437-0.0938h1.125l0.25 0.59375-0.75 0.8125-0.40625 0.25-0.53125 0.15625 0.25 1.0938 0.5-0.0625 0.46875 0.0625 1.0312 0.4375v0.65625l-1.031 0.4688-0.468 0.0312-0.5-0.03125-0.25 1.125 0.531 0.1562 0.406 0.2188 0.75 0.8124-0.25 0.5938-1.125 0.0312-0.438-0.125-0.468-0.2812-0.625 0.96875 0.375 0.3125 0.3125 0.40625 0.4375 1.0312-0.469 0.469-1.031-0.438-0.406-0.25-0.313-0.438-0.96875 0.65625 0.25 0.4375 0.15625 0.5-0.03125 1.0625-0.625 0.282-0.781-0.781-0.281-0.407-0.094-0.531-1.125 0.25 0.03125 0.5-0.0625 0.5-0.4375 1h-0.65625l-0.46875-1-0.03125-0.5 0.03125-0.5-1.125-0.25-0.094 0.531-0.281 0.407-0.781 0.781-0.59375-0.28125-0.0625-1.0625 0.15625-0.5 0.25-0.4375-0.75-0.5v8.281c0 1.108 0.892 2 2 2h6.8438l0.28125-0.25 0.46875-0.25-0.46875-1.1562-0.53125 0.1875-0.5 0.03125-1.1562-0.25-0.15625-0.6875 0.96875-0.6875 0.5-0.15625 0.53125-0.0625v-1.2188l-0.53125-0.03125-0.5-0.1875-1-0.65625 0.15625-0.6875 1.1562-0.25h0.5l0.53125 0.1875 0.46875-1.1562-0.5-0.25-0.40625-0.3125-0.625-1 0.375-0.59375 1.1562 0.1875 0.5 0.25 0.40625 0.34375 0.84375-0.875-0.34375-0.40625-0.21875-0.46875-0.21875-1.1875 0.5625-0.375 1 0.625 0.34375 0.375 0.28125 0.5 1.125-0.46875-0.188-0.5308-0.031-0.5312 0.25-1.1562 0.6875-0.125 0.6875 0.96875 0.15625 0.46875 0.0625 0.5625 1.2188-0.03125 0.03125-0.53125 0.1875-0.5 0.656-0.9688 0.688 0.125 0.281 1.1563-0.031 0.5312-0.188 0.5 1.157 0.469 0.25-0.469 0.281-0.3438v-6.6562c0-1.108-0.892-2-2-2h-8.4688zm-5.5 0.3125c2.1217 0 3.8438 1.7221 3.8438 3.8438 0 2.1216-1.722 3.8437-3.844 3.8437-2.121 0-3.843-1.7221-3.843-3.8438s1.7221-3.8438 3.8438-3.8438zm0 1.7188c-1.242 0-2.25 0.95205-2.25 2.125s1.008 2.125 2.25 2.125 2.25-0.95205 2.25-2.125-1.008-2.125-2.25-2.125zm12.094 8.375c-1.2762 0-2.4599 0.44167-3.4062 1.1562l1.8125 1.9375c0.46114-0.28724 1.0108-0.4375 1.5938-0.4375 0.29398 0 0.57511 0.04631 0.84375 0.125l1.2188-2.375c-0.642-0.253-1.334-0.407-2.064-0.407zm3.0938 0.9375l-1.219 2.375c0.68574 0.54448 1.1138 1.3722 1.125 2.3125l0.875 0.156v-4.219c-0.24222-0.22776-0.50205-0.44206-0.78125-0.625zm-7.3438 1c-0.87349 0.99394-1.4062 2.2926-1.4062 3.7188 0 0.63718 0.11756 1.2409 0.3125 1.8125l2.407-1.094c-0.056-0.228-0.063-0.474-0.063-0.719 0-0.66266 0.1992-1.2839 0.5625-1.7812l-1.8125-1.9375zm4.25 2.75c-0.53504 0-0.96875 0.43372-0.96875 0.96875 0 0.53504 0.43372 0.96875 0.96875 0.96875 0.53504 0 0.96875-0.43372 0.96875-0.96875 0-0.53504-0.43372-0.96875-0.96875-0.96875zm2.8125 2.0625c-0.32204 0.82378-1.0024 1.4646-1.8438 1.75l0.156 1.094h0.75c1.108 0 2-0.892 2-2v-0.65625l-1.0625-0.1875zm-5.25 0.65625-2.4375 1.125c0.23048 0.39031 0.49754 0.7398 0.8125 1.0625h4l-0.125-0.9375c-0.93376-0.05393-1.7355-0.53535-2.25-1.25z"
         id="path479" />
    </clipPath>
    <filter
       color-interpolation-filters="sRGB"
       id="filter3743">
      <feGaussianBlur
         stdDeviation="0.8"
         id="feGaussianBlur482" />
    </filter>
    <linearGradient
       x2="0"
       y1="48"
       y2="44.09"
       gradientUnits="userSpaceOnUse"
       id="linearGradient3144-3"
       gradientTransform="matrix(1.0116,0,0,1,-0.504,2.97)">
      <stop
         id="stop485" />
      <stop
         stop-opacity="0.498"
         offset="0.259"
         id="stop487" />
      <stop
         stop-opacity="0"
         offset="1"
         id="stop489" />
    </linearGradient>
    <linearGradient
       x2="0"
       y1="56.21"
       y2="104"
       gradientUnits="userSpaceOnUse"
       id="linearGradient3149"
       gradientTransform="matrix(1.0116,0,0,1.0208,-0.504,-6.198)">
      <stop
         stop-color="#fff"
         id="stop492" />
      <stop
         stop-color="#fff"
         stop-opacity="0.498"
         offset="0.296"
         id="stop494" />
      <stop
         stop-color="#fff"
         stop-opacity="0"
         offset="1"
         id="stop496" />
    </linearGradient>
    <rect
       x="15"
       stroke-width="0.5"
       rx="12"
       y="15"
       fill="url(#linearGradient3613-3)"
       stroke="#fff"
       height="66"
       filter="url(#filter3794-0)"
       id="SVGCleanerId_0"
       width="66"
       stroke-linecap="round" />
    <rect
       x="6"
       rx="6"
       y="6"
       height="84"
       id="SVGCleanerId_1"
       width="84" />
    <rect
       x="1"
       rx="2"
       y="1"
       height="20"
       id="SVGCleanerId_2"
       width="20" />
    <rect
       x="3"
       rx="2"
       y="3"
       clip-path="url(#clipPath2849-2)"
       fill="#fff"
       height="16"
       filter="url(#filter3194-1)"
       id="SVGCleanerId_3"
       opacity="0.15"
       width="16" />
    <path
       d="m4.75-3.6562-0.46875 1l-0.0312 0.4687 0.0312 0.5313-1.125 0.2187-0.0937-0.4687-0.2813-0.4376-0.7812-0.7812-0.5938 0.25-0.0624 1.125 0.1562 0.4688 0.25 0.4375-0.96875 0.625-0.3125-0.375-0.375-0.3125-1.0625-0.375-0.46875 0.4375 0.4374 1.0312 0.28125 0.40625 0.40625 0.3125-0.65625 0.93755-0.40625-0.25-0.4688-0.0938h-1.125l-0.28125 0.59375 0.78125 0.8125 0.4375 0.25 0.5 0.15625-0.25 1.0938-0.5-0.0625-0.5 0.0625-1 0.4375v0.65625l1 0.46875 0.5 0.03125 0.5-0.03125 0.25 1.125-0.5 0.15625-0.4375 0.21875-0.7813 0.8124 0.2812 0.5938 1.125 0.0312 0.4688-0.125 0.40625-0.2812 0.65625 0.9688-0.40625 0.3124-0.28125 0.4068-0.4375 1.031 0.46875 0.469 1.0625-0.438 0.375-0.25 0.3125-0.438 0.96875 0.657-0.25 0.4375-0.15625 0.5 0.0625 1.0625 0.5938 0.281 0.7812-0.781 0.2813-0.407 0.09375-0.53125 1.125 0.25-0.03125 0.5 0.03125 0.5 0.46875 1h0.65625l0.4375-1 0.0625-0.5-0.03125-0.5 1.1249-0.25 0.0938 0.531 0.2812 0.407 0.7812 0.781 0.625-0.28125 0.03125-1.0625-0.15625-0.5-0.25-0.4375 0.9688-0.657 0.3125 0.438 0.40625 0.25 1.0312 0.4375 0.46875-0.46875-0.4375-1.0312-0.3125-0.40625-0.375-0.3125 0.625-0.9688 0.468 0.2812 0.438 0.125 1.125-0.0312 0.25-0.5938-0.75-0.8124-0.406-0.2188-0.531-0.1562 0.25-1.125 0.5 0.0312 0.468-0.0312 1.032-0.4688v-0.65625l-1.0312-0.4375-0.46875-0.0625-0.5 0.0625-0.25-1.0938 0.53125-0.15625 0.40625-0.25 0.75-0.8125-0.25-0.5937h-1.125l-0.4375 0.09375-0.46875 0.25-0.625-0.9375 0.375-0.3125 0.3125-0.40625 0.4375-1.0312-0.46875-0.4375-1.0312 0.375-0.40625 0.3125-0.3125 0.375-0.96875-0.625 0.25-0.4375 0.1561-0.4688-0.0313-1.125-0.625-0.25-0.7812 0.7812-0.2812 0.4376-0.0938 0.4687-1.125-0.2187 0.0312-0.5313-0.0625-0.46875-0.4375-1h-0.65625zm0.3125 3.9062c2.7269 0 4.9375 2.2106 4.9375 4.9375s-2.2106 4.9375-4.9375 4.9375-4.9375-2.2106-4.9375-4.9375 2.2106-4.9375 4.9375-4.9375zm-0.0313 1.0625c-2.1216 0-3.8437 1.7221-3.8437 3.8437 0 2.1217 1.7221 3.8438 3.8437 3.8438 2.1217 0 3.8438-1.7221 3.8438-3.8438 0-2.1216-1.7221-3.8437-3.8438-3.8437zm0 1.7188c1.242 0 2.25 0.95205 2.25 2.125s-1.008 2.125-2.25 2.125-2.25-0.95205-2.25-2.125 1.008-2.125 2.25-2.125zm13.531 4.6562-0.65625 0.96875-0.1875 0.5l-0.03 0.5313-1.219 0.0313-0.063-0.5626-0.156-0.4687-0.688-0.9687-0.687 0.125-0.25 1.1562 0.03125 0.53125 0.1875 0.53125-1.125 0.46875-0.28125-0.5-0.34375-0.375-1-0.625-0.5625 0.375 0.21875 1.1875 0.21875 0.46875 0.34375 0.40625-0.84375 0.875-0.407-0.344-0.5-0.25-1.1562-0.1875-0.375 0.59375 0.625 1 0.40625 0.3125 0.5 0.25-0.46875 1.1562-0.53125-0.1875h-0.5l-1.1562 0.25-0.15625 0.6875 1 0.65625 0.5 0.1875 0.53125 0.03125v1.2188l-0.53125 0.0625-0.5 0.15625-0.96875 0.6875 0.15625 0.6875 1.1562 0.25 0.5-0.03125 0.53125-0.1875 0.46875 1.1562-0.46875 0.25-0.40625 0.34375-0.625 1 0.40625 0.5625 1.1562-0.1875 0.46875-0.25 0.40625-0.34375 0.875 0.84375-0.34375 0.4375-0.21875 0.46875-0.21875 1.1562 0.59375 0.375 1-0.625 0.34375-0.40625 0.25-0.5 1.125 0.46875-0.15625 0.53125-0.03125 0.5 0.25 1.1875 0.6875 0.125 0.6875-1 0.15625-0.46875 0.03125-0.5625h1.25l0.03125 0.53125 0.1875 0.5 0.6875 0.96875 0.6875-0.15625 0.25-1.1562-0.0625-0.5-0.15625-0.53125 1.125-0.46875 0.25 0.46875 0.34375 0.40625 1 0.625 0.59375-0.40625-0.21875-1.1562-0.25-0.46875-0.34375-0.40625 0.875-0.875 0.40625 0.34375 0.46875 0.21875 1.1875 0.21875 0.375-0.59375-0.65625-1-0.40625-0.34375-0.46875-0.25 0.46875-1.125 0.5 0.15625 0.53125 0.03125 1.1562-0.25 0.126-0.689-0.969-0.688-0.5-0.156-0.531-0.031-0.03125-1.25 0.5625-0.03125 0.46875-0.1875 0.96875-0.6875-0.125-0.6875-1.1562-0.21875-0.53125 0.03125-0.5 0.15625-0.5-1.125 0.5-0.25 0.375-0.34375 0.625-1-0.375-0.59375-1.1875 0.21875-0.4375 0.25-0.4375 0.34375-0.875-0.875 0.344-0.406 0.25-0.469 0.187-1.1562-0.594-0.4063-0.969 0.6563-0.343 0.4062-0.25 0.469-1.157-0.469 0.188-0.5 0.031-0.5312-0.281-1.1563-0.688-0.125zm-1.4375 3.7188c0.72958 0 1.4223 0.15408 2.0625 0.40625l-1.2188 2.375c-0.26864-0.07869-0.54977-0.125-0.84375-0.125-0.5829 0-1.1326 0.15026-1.5938 0.4375l-1.8125-1.9375c0.94634-0.71458 2.13-1.1562 3.4062-1.1562zm3.0938 0.9375c1.5392 1.0085 2.5625 2.7419 2.5625 4.7188 0 0.14764-0.02011 0.29269-0.03125 0.4375l-2.624-0.469c-0.011-0.94-0.439-1.768-1.125-2.312l1.2188-2.375zm-7.3438 1 1.8125 1.9375c-0.3633 0.49738-0.5625 1.1186-0.5625 1.7812 0 0.24463 0.0073 0.49099 0.0625 0.71875l-2.405 1.093c-0.19494-0.57162-0.3125-1.1753-0.3125-1.8125 0-1.4262 0.53276-2.7248 1.4062-3.7188zm4.25 2.75c0.53504 0 0.96875 0.43372 0.96875 0.96875 0 0.53504-0.43372 0.96875-0.96875 0.96875-0.53504 0-0.96875-0.43372-0.96875-0.96875 0-0.53504 0.43372-0.96875 0.96875-0.96875zm2.8125 2.0625 2.625 0.46875c-0.55993 1.9369-2.1538 3.463-4.125 3.9375l-0.34375-2.6562c0.84138-0.28535 1.5217-0.92622 1.8438-1.75zm-5.25 0.65625c0.51451 0.71465 1.3162 1.1961 2.25 1.25l0.375 2.6562c-0.05979 0.0019-0.12725-0.000001-0.1875 0-2.0715 0.000001-3.8919-1.1163-4.875-2.7812l2.4375-1.125z"
       clip-path="url(#clipPath6183)"
       fill="url(#linearGradient4290)"
       id="SVGCleanerId_4" />
    <path
       d="m128.44 42.719-0.21875 0.1875 0.625 0.9375 0.46875-0.25 0.4375-0.09375h1.125l0.0937 0.25 0.15625-0.15625-0.25-0.59375h-1.125l-0.4375 0.09375-0.46875 0.25-0.40625-0.625zm-5.6562 0.09375c-2.1217 0-3.8438 1.7221-3.8438 3.8438 0 0.08492 0.0258 0.16645 0.0312 0.25 0.1303-2.004 1.7758-3.5938 3.8125-3.5938 2.0368 0 3.6822 1.5897 3.8125 3.5938 0.005-0.08355 0.0312-0.16508 0.0312-0.25 0-2.1217-1.7221-3.8438-3.8438-3.8438zm6.75 2.4688-0.0937 0.03125 0.25 1.0938 0.5-0.0625 0.46875 0.0625 1.0312 0.4375v-0.5l-1.0312-0.4375-0.46875-0.0625-0.5 0.0625-0.15625-0.625zm-8.9688 1.625c-0.0101 0.08156-0.0312 0.1659-0.0312 0.25 0 1.173 1.008 2.125 2.25 2.125s2.25-0.95205 2.25-2.125c0-0.0841-0.0212-0.16844-0.0312-0.25-0.1305 1.056-1.0658 1.875-2.2188 1.875-1.1529 0-2.0882-0.81904-2.2188-1.875zm7.1875 0.03125c-0.13175 2.6092-2.2955 4.6875-4.9375 4.6875-1.692 0.000001-3.1709-0.85784-4.0625-2.1562v0.5c0.89033 1.2931 2.3739 2.1563 4.0625 2.1562 2.7269 0 4.9375-2.2106 4.9375-4.9375 0-0.08488 0.004-0.16617 0-0.25zm1.7812 1.6875-0.0937 0.46875 0.53125 0.15625 0.40625 0.21875 0.59375 0.65625 0.15625-0.34375-0.75-0.8125-0.40625-0.21875-0.4375-0.125zm6.7812 0.5625-0.65625 0.96875-0.1875 0.5-0.0312 0.53125-1.2188 0.03125-0.0625-0.5625l-0.15-0.468-0.6875-0.96875-0.6875 0.125-0.25 1.1562 0.0312 0.40625 0.21875-1.0625 0.6875-0.125 0.6875 0.96875 0.15625 0.46875 0.0625 0.5625 1.2188-0.03125 0.0312-0.53125 0.1875-0.5 0.65625-0.96875 0.6875 0.125 0.25 1.0625 0.0312-0.40625-0.28-1.157-0.6875-0.125zm-6.875 1.625-0.15625 0.09375 0.0937 0.4375 0.46875-0.3125 1 0.625 0.34375 0.375 0.28125 0.5 1.125-0.46875-0.15625-0.4375-0.96875 0.40625-0.28125-0.5-0.34375-0.375-0.4375-0.28125-0.65625 0.03125-0.3125-0.09375zm-1 0.34375-0.21875 0.3125 0.375 0.3125 0.3125 0.40625 0.28125 0.6875 0.15625-0.15625-0.4375-1.0312-0.3125-0.40625-0.15625-0.125zm10.312 0-0.28125 0.34375-0.25 0.46875-1-0.40625-0.15625 0.4375 1.1562 0.46875 0.25-0.46875 0.28125-0.34375v-0.5zm-11.594 1.9062-0.375 0.59375 0.15625 0.25 0.21875-0.34375 1.1562 0.1875 0.5 0.25 0.40625 0.34375 0.84375-0.875-0.21875-0.28125-0.625 0.65625-0.28125-0.21875-0.0625 0.0625-1.0312-0.4375-0.15625-0.09375-0.53125-0.09375zm-7.875 0.03125-0.0312 0.0625-0.15625 0.5 0.0312 0.40625 0.125-0.40625 0.25-0.4375-0.21875-0.125zm7.0938 0-0.21875 0.125 0.25 0.4375 0.15625 0.46875v-0.46875l-0.15625-0.5-0.0312-0.0625zm10.344 0.65625-1 1.9375c-0.26864-0.07869-0.54977-0.125-0.84375-0.125-0.58291 0-1.1326 0.15026-1.5938 0.4375l-1.52-1.625c-0.0946 0.06312-0.19087 0.11925-0.28125 0.1875l1.8125 1.9375c0.46114-0.28724 1.0108-0.4375 1.5938-0.4375 0.29398 0 0.57511 0.04631 0.84375 0.125l1.2188-2.375c-0.07-0.028-0.15-0.038-0.22-0.063zm-14.71 0.281v0.25l0.0312-0.25h-0.0312zm1.625 0v0.15625l0.0312-0.15625h-0.0312zm4.5312 1.5938-0.3125 0.75-0.53125-0.1875h-0.5l-1.1562 0.25-0.15625 0.6875 0.0937 0.0625 0.0625-0.25 1.1562-0.25h0.5l0.53125 0.1875 0.46875-1.1562-0.15625-0.09375zm8.75 0.75-0.15625 0.34375c0.68574 0.54448 1.1138 1.3722 1.125 2.3125l0.875 0.15625v-0.5l-0.875-0.15625c-0.0103-0.86198-0.38054-1.615-0.96875-2.1562zm-4.65 0.719c-0.24217 0.43822-0.375 0.93265-0.375 1.4688 0 0.12232-0.009 0.25436 0 0.375 0.0231-0.61626 0.22181-1.1898 0.5625-1.6562l-0.1875-0.1875zm-3 1.7188c-0.004 0.08572-0.0312 0.1633-0.0312 0.25 0 0.63718 0.11756 1.2409 0.3125 1.8125l2.4062-1.0938c-0.0368-0.15184-0.0563-0.3064-0.0625-0.46875l-2.3438 1.0625c-0.16894-0.49522-0.2547-1.0182-0.2813-1.5625zm4.6875 0c-0.0223 0.08151-0.0312 0.16143-0.0312 0.25 0 0.53504 0.43371 0.96875 0.96875 0.96875 0.53503 0 0.96875-0.43372 0.96875-0.96875 0-0.08857-0.009-0.16849-0.0312-0.25-0.11222 0.41087-0.49104 0.71875-0.9375 0.71875-0.44647 0-0.82528-0.30788-0.9375-0.71875zm-6.4062 0.40625-0.53125 0.0625-0.5 0.15625-0.96875 0.6875 0.0937 0.4375 0.875-0.625 0.5-0.15625 0.53125-0.0625v-0.5zm2.72 2.593-0.25 0.126c0.11547 0.19555 0.23738 0.38301 0.375 0.5625h0.4375c-0.20566-0.21224-0.39189-0.44548-0.5625-0.6875zm5.6562 0.0625c-0.0221 0.0081-0.0401 0.02366-0.0625 0.03125l0.0625 0.59375h0.0937l-0.0937-0.625zm-7.7188 0.21875-0.3125 0.15625-0.28125 0.25h0.75l-0.15625-0.40625z"
       id="SVGCleanerId_5"
       opacity="0.2" />
    <path
       d="m37.656 1c1.4 0.8715 2.344 2.417 2.344 4.1875 0 2.7269-2.211 4.9375-4.938 4.9375-1.688 0-3.172-0.8631-4.062-2.1562v2.75l0.75 0.5-0.25 0.4375-0.15625 0.5 0.0625 1.0625 0.594 0.281 0.78125-0.78125 0.28125-0.40625 0.09375-0.53125 1.125 0.25-0.03125 0.5 0.03125 0.5 0.46875 1h0.65625l0.4375-1 0.0625-0.5-0.03125-0.5 1.125-0.25 0.09375 0.53125 0.28125 0.40625 0.78125 0.78125 0.625-0.28125 0.03125-1.0625-0.15625-0.5-0.25-0.4375 0.969-0.657 0.313 0.438 0.40625 0.25 1.0312 0.4375 0.46875-0.46875-0.4375-1.0312-0.3125-0.40625-0.375-0.3125 0.625-0.9688 0.468 0.2812 0.438 0.125 1.125-0.0312 0.25-0.5938-0.75-0.8124-0.406-0.2188-0.531-0.1562 0.25-1.125 0.5 0.0312 0.468-0.0312 1.032-0.4688v-0.65625l-1.0312-0.4375-0.46875-0.0625-0.5 0.0625-0.25-1.0938 0.53125-0.15625 0.40625-0.25 0.75-0.8125-0.25-0.5937h-1.125l-0.438 0.0938-0.468 0.25-0.563-0.8438h-2.875zm-5.4375 0.15625c-0.45752 0.19287-0.82314 0.55084-1.0312 1 0.29499-0.37574 0.64102-0.72335 1.0312-1zm2.8125 0.15625c-2.1217 0-3.8438 1.7221-3.8438 3.8438 0.002 2.1217 1.724 3.8438 3.845 3.8438 2.122 0 3.844-1.7221 3.844-3.8438 0-2.1216-1.722-3.8437-3.844-3.8437zm0 1.7188c1.242 0 2.25 0.95205 2.25 2.125s-1.008 2.125-2.25 2.125-2.25-0.95205-2.25-2.125 1.008-2.125 2.25-2.125zm13.531 4.6562-0.65625 0.96875-0.1875 0.5l-0.03 0.5313-1.219 0.0313-0.063-0.5626-0.156-0.4687-0.688-0.9687-0.687 0.125-0.25 1.1562 0.03125 0.53125 0.1875 0.53125-1.125 0.46875-0.28125-0.5-0.34375-0.375-1-0.625-0.5625 0.375 0.21875 1.1875 0.21875 0.46875 0.34375 0.40625-0.84375 0.875-0.407-0.344-0.5-0.25-1.1562-0.1875-0.375 0.59375 0.625 1 0.40625 0.3125 0.5 0.25-0.46875 1.1562-0.53125-0.1875h-0.5l-1.1562 0.25-0.15625 0.6875 1 0.65625 0.5 0.1875 0.53125 0.03125v1.2188l-0.53125 0.0625-0.5 0.15625-0.96875 0.6875 0.15625 0.6875 1.1562 0.25 0.5-0.03125 0.532-0.187 0.469 1.156-0.469 0.25-0.281 0.25h3.218c-0.314-0.323-0.582-0.672-0.812-1.062l2.4375-1.125c0.51451 0.71465 1.3162 1.1961 2.25 1.25l0.124 0.937h1.188l-0.156-1.094c0.84138-0.28535 1.5217-0.92622 1.8438-1.75l1.062 0.188v-1.156l-0.875-0.157c-0.011-0.94-0.439-1.768-1.125-2.312l1.2188-2.375c0.2792 0.18294 0.53903 0.39724 0.78125 0.625v-3.3128l-0.281 0.3438-0.25 0.469-1.157-0.469 0.188-0.5 0.031-0.5312-0.281-1.1563-0.688-0.125zm-1.4375 3.7188c0.72958 0 1.4223 0.15408 2.0625 0.40625l-1.2188 2.375c-0.26864-0.07869-0.54977-0.125-0.84375-0.125-0.5829 0-1.1326 0.15026-1.5938 0.4375l-1.8125-1.9375c0.94634-0.71458 2.13-1.1562 3.4062-1.1562zm-4.25 1.9375 1.8125 1.9375c-0.3633 0.49738-0.5625 1.1186-0.5625 1.7812 0 0.24463 0.0073 0.49099 0.0625 0.71875l-2.405 1.093c-0.19494-0.57162-0.3125-1.1753-0.3125-1.8125 0-1.4262 0.53276-2.7248 1.4062-3.7188zm4.25 2.75c0.53504 0 0.96875 0.43372 0.96875 0.96875 0 0.53504-0.43372 0.96875-0.96875 0.96875-0.53504 0-0.96875-0.43372-0.96875-0.96875 0-0.53504 0.43372-0.96875 0.96875-0.96875z"
       clip-path="url(#clipPath3739)"
       fill="#fff"
       filter="url(#filter3743)"
       id="SVGCleanerId_6"
       opacity="0.5" />
    <rect
       x="0.5"
       rx="2.5"
       y="0.5"
       fill="url(#linearGradient4286)"
       height="21.5"
       id="SVGCleanerId_7"
       opacity="0.3"
       width="21" />
    <rect
       x="1"
       rx="2.381"
       y="2"
       ry="2.326"
       height="20"
       id="SVGCleanerId_8"
       opacity="0.5"
       width="20" />
    <path
       d="m3 1c-1.108 0-2 0.892-2 2v1c0-1.108 0.892-2 2-2h16c1.108 0 2 0.892 2 2v-1c0-1.108-0.892-2-2-2h-16z"
       fill="#fff"
       id="SVGCleanerId_9"
       opacity="0.4" />
    <path
       d="m3 21c-1.108 0-2-0.892-2-2v-1c0 1.108 0.892 2 2 2h16c1.108 0 2-0.892 2-2v1c0 1.108-0.892 2-2 2h-16z"
       id="SVGCleanerId_10"
       opacity="0.15" />
    <linearGradient
       inkscape:collect="always"
       xlink:href="#linearGradient4288"
       id="linearGradient14322"
       gradientUnits="userSpaceOnUse"
       gradientTransform="translate(11.12,-6.258)"
       y1="27.26"
       x2="0"
       y2="7.254" />
    <linearGradient
       inkscape:collect="always"
       xlink:href="#linearGradient4288"
       id="linearGradient14324"
       gradientUnits="userSpaceOnUse"
       gradientTransform="translate(11.12,-6.258)"
       y1="27.26"
       x2="0"
       y2="7.254" />
    <linearGradient
       inkscape:collect="always"
       xlink:href="#linearGradient4288"
       id="linearGradient14326"
       gradientUnits="userSpaceOnUse"
       gradientTransform="translate(11.12,-6.258)"
       y1="27.26"
       x2="0"
       y2="7.254" />
    <linearGradient
       inkscape:collect="always"
       xlink:href="#linearGradient14231"
       id="linearGradient14237"
       x1="50.707542"
       y1="81.682442"
       x2="50.707542"
       y2="96.539803"
       gradientUnits="userSpaceOnUse" />
    <linearGradient
       inkscape:collect="always"
       id="linearGradient14231">
      <stop
         style="stop-color:#000000;stop-opacity:1;"
         offset="0"
         id="stop14233" />
      <stop
         style="stop-color:#000000;stop-opacity:0;"
         offset="1"
         id="stop14235" />
    </linearGradient>
    <linearGradient
       inkscape:collect="always"
       xlink:href="#linearGradient14239"
       id="linearGradient14245"
       x1="49.876652"
       y1="87.937508"
       x2="49.876652"
       y2="76.719681"
       gradientUnits="userSpaceOnUse" />
    <linearGradient
       inkscape:collect="always"
       id="linearGradient14239">
      <stop
         style="stop-color:#ffffff;stop-opacity:1;"
         offset="0"
         id="stop14241" />
      <stop
         style="stop-color:#ffffff;stop-opacity:0;"
         offset="1"
         id="stop14243" />
    </linearGradient>
  </defs>
  <rect
     style="fill-opacity:0.02000002"
     id="rect511"
     width="89.980003"
     height="89.980003"
     y="2.9899757"
     rx="12.724"
     x="3" />
  <rect
     style="fill-opacity:0.03900003"
     id="rect513"
     width="88.760002"
     height="88.760002"
     y="3.6000221"
     rx="12.552"
     x="3.608" />
  <rect
     style="fill-opacity:0.078"
     id="rect515"
     width="87.550003"
     height="87.550003"
     y="4.2100072"
     rx="12.38"
     x="4.2160001" />
  <rect
     style="fill-opacity:0.15700001"
     id="rect517"
     width="86.330002"
     height="86.330002"
     y="4.8199925"
     rx="12.208"
     x="4.8239999" />
  <path
     inkscape:connector-curvature="0"
     style="fill:url(#linearGradient3105)"
     id="path519"
     d="m 17.469,5.4062 c -6.251,0 -11.355,4.7568 -11.969,10.844 l 0,63.469 c 0.6136,6.083 5.718,10.812 11.969,10.812 l 61.031,0 c 6.454,0 11.671,-5.036 12,-11.406 l 0,-62.281 c -0.321,-6.377 -5.54,-11.438 -12,-11.438 l -61.031,2e-4 z" />
  <path
     style="fill-opacity:0.2"
     inkscape:connector-curvature="0"
     id="path521"
     d="m 5.4316,73.44 0,5.0663 c 0,6.668 5.3645,12.032 12.032,12.032 l 61.049,0 c 6.668,0 12.032,-5.3645 12.032,-12.032 l 0,-5.0663 c 0,6.6681 -5.3645,12.032 -12.032,12.032 l -61.049,0 c -6.668,0 -12.032,-5.3643 -12.032,-12.032 z" />
  <use
     height="100%"
     width="100%"
     y="0"
     x="0"
     style="opacity:0.05"
     id="use525"
     transform="matrix(1.0149,0,0,1.0238,-0.838,-1.14)"
     clip-path="url(#clipPath3613-29)"
     xlink:href="#SVGCleanerId_0" />
  <use
     height="100%"
     width="100%"
     y="0"
     x="0"
     style="opacity:0.1"
     id="use527"
     transform="matrix(1.0168,0,0,1.021,-0.61,-0.85)"
     clip-path="url(#clipPath3613-25)"
     xlink:href="#SVGCleanerId_0" />
  <path
     inkscape:connector-curvature="0"
     style="opacity:0.5;fill:url(#linearGradient3149)"
     id="path529"
     d="m 5.5625,50.969 0,24.093 c 0.7937,5.888 5.7935,10.407 11.906,10.407 l 61.032,0 c 6.668,0 12.031,-5.363 12.031,-12.031 l 0,-22.469 -84.968,0 z M 90.5305,78.5 c 0,1.229 -0.192,2.416 -0.531,3.531 0.334,-0.76 0.531,-1.58 0.531,-2.469 l 0,-1.062 z" />
  <rect
     style="opacity:0.6;fill:#ffffff"
     id="rect531"
     width="84.972"
     height="1"
     y="50.939987"
     x="5.566" />
  <rect
     style="opacity:0.3;fill:url(#linearGradient3144-3)"
     id="rect533"
     width="84.972"
     height="4"
     y="46.939987"
     x="5.566" />
  <g
     id="g535"
     transform="matrix(1.0116,0,0,1,-0.504,-5.03)">
    <g
       id="g537"
       transform="translate(-106.75,9.5)">
      <g
         id="g539"
         transform="translate(117.75,41.5)">
        <use
           height="100%"
           width="100%"
           y="0"
           x="0"
           id="use541"
           xlink:href="#SVGCleanerId_7" />
        <use
           height="100%"
           width="100%"
           y="0"
           x="0"
           id="use543"
           xlink:href="#SVGCleanerId_8" />
        <use
           height="100%"
           width="100%"
           y="0"
           x="0"
           style="fill:url(#linearGradient14322);fill-rule:evenodd"
           id="use545"
           xlink:href="#SVGCleanerId_2" />
      </g>
      <use
         height="100%"
         width="100%"
         y="0"
         x="0"
         id="use547"
         transform="translate(117.75,41.5)"
         xlink:href="#SVGCleanerId_3" />
      <use
         height="100%"
         width="100%"
         y="0"
         x="0"
         id="use549"
         transform="translate(117.75,41.5)"
         xlink:href="#SVGCleanerId_4" />
      <use
         height="100%"
         width="100%"
         y="0"
         x="0"
         id="use551"
         xlink:href="#SVGCleanerId_5" />
      <use
         height="100%"
         width="100%"
         y="0"
         x="0"
         id="use553"
         transform="translate(87.75,41.5)"
         xlink:href="#SVGCleanerId_6" />
      <g
         style="fill-rule:evenodd"
         id="g555"
         transform="translate(117.75,41.5)">
        <use
           height="100%"
           width="100%"
           y="0"
           x="0"
           id="use557"
           xlink:href="#SVGCleanerId_9" />
        <use
           height="100%"
           width="100%"
           y="0"
           x="0"
           id="use559"
           xlink:href="#SVGCleanerId_10" />
      </g>
    </g>
    <path
       style="fill:#ffffff;fill-opacity:0.678"
       inkscape:connector-curvature="0"
       id="path561"
       d="M 22.065,76.686 15,84 29,83.865 22.065,76.686 Z" />
    <g
       id="g563"
       transform="translate(-80.75,21.5)">
      <g
         id="g565"
         transform="translate(117.75,41.5)">
        <use
           height="100%"
           width="100%"
           y="0"
           x="0"
           id="use567"
           xlink:href="#SVGCleanerId_7" />
        <use
           height="100%"
           width="100%"
           y="0"
           x="0"
           id="use569"
           xlink:href="#SVGCleanerId_8" />
        <use
           height="100%"
           width="100%"
           y="0"
           x="0"
           style="fill:url(#linearGradient14324);fill-rule:evenodd"
           id="use571"
           xlink:href="#SVGCleanerId_2" />
      </g>
      <use
         height="100%"
         width="100%"
         y="0"
         x="0"
         id="use573"
         transform="translate(117.75,41.5)"
         xlink:href="#SVGCleanerId_3" />
      <use
         height="100%"
         width="100%"
         y="0"
         x="0"
         id="use575"
         transform="translate(117.75,41.5)"
         xlink:href="#SVGCleanerId_4" />
      <use
         height="100%"
         width="100%"
         y="0"
         x="0"
         id="use577"
         xlink:href="#SVGCleanerId_5" />
      <use
         height="100%"
         width="100%"
         y="0"
         x="0"
         id="use579"
         transform="translate(87.75,41.5)"
         xlink:href="#SVGCleanerId_6" />
      <g
         style="fill-rule:evenodd"
         id="g581"
         transform="translate(117.75,41.5)">
        <use
           height="100%"
           width="100%"
           y="0"
           x="0"
           id="use583"
           xlink:href="#SVGCleanerId_9" />
        <use
           height="100%"
           width="100%"
           y="0"
           x="0"
           id="use585"
           xlink:href="#SVGCleanerId_10" />
      </g>
    </g>
    <g
       id="g587"
       transform="translate(-54.75,21.5)">
      <g
         id="g589"
         transform="translate(117.75,41.5)">
        <use
           height="100%"
           width="100%"
           y="0"
           x="0"
           id="use591"
           xlink:href="#SVGCleanerId_7" />
        <use
           height="100%"
           width="100%"
           y="0"
           x="0"
           id="use593"
           xlink:href="#SVGCleanerId_8" />
        <use
           height="100%"
           width="100%"
           y="0"
           x="0"
           style="fill:url(#linearGradient14326);fill-rule:evenodd"
           id="use595"
           xlink:href="#SVGCleanerId_2" />
      </g>
      <use
         height="100%"
         width="100%"
         y="0"
         x="0"
         id="use597"
         transform="translate(117.75,41.5)"
         xlink:href="#SVGCleanerId_3" />
      <use
         height="100%"
         width="100%"
         y="0"
         x="0"
         id="use599"
         transform="translate(117.75,41.5)"
         xlink:href="#SVGCleanerId_4" />
      <use
         height="100%"
         width="100%"
         y="0"
         x="0"
         id="use601"
         xlink:href="#SVGCleanerId_5" />
      <use
         height="100%"
         width="100%"
         y="0"
         x="0"
         id="use603"
         transform="translate(87.75,41.5)"
         xlink:href="#SVGCleanerId_6" />
      <g
         style="fill-rule:evenodd"
         id="g605"
         transform="translate(117.75,41.5)">
        <use
           height="100%"
           width="100%"
           y="0"
           x="0"
           id="use607"
           xlink:href="#SVGCleanerId_9" />
        <use
           height="100%"
           width="100%"
           y="0"
           x="0"
           id="use609"
           xlink:href="#SVGCleanerId_10" />
      </g>
    </g>
    <rect
       style="opacity:0.4"
       id="rect611"
       width="24"
       height="6"
       y="42"
       rx="1"
       x="10" />
    <g
       style="fill:#ffffff"
       id="g613">
      <path
         inkscape:connector-curvature="0"
         id="path615"
         d="m 13.019,44.88 c -2e-6,0.13069 -0.01968,0.24579 -0.05903,0.34529 -0.03936,0.09876 -0.09319,0.18155 -0.1615,0.24838 -0.06832,0.06683 -0.14925,0.11732 -0.24282,0.15148 -0.09282,0.03416 -0.19306,0.05124 -0.30073,0.05124 l -0.63488,0 0,-1.5694 0.56805,0 c 0.12178,10e-7 0.23353,0.01522 0.33526,0.04567 0.10173,0.03045 0.18935,0.07723 0.26286,0.14034 0.07351,0.06312 0.13069,0.14331 0.17153,0.24059 0.04084,0.09728 0.06126,0.21274 0.06126,0.3464 m -0.33081,0 c -1e-6,-0.09133 -0.01262,-0.16967 -0.03787,-0.23502 -0.02451,-0.06534 -0.05903,-0.11881 -0.10359,-0.16039 -0.04455,-0.04232 -0.09802,-0.07351 -0.16039,-0.09356 -0.06163,-0.02005 -0.12995,-0.03007 -0.20494,-0.03007 l -0.23279,0 0,1.0615 0.27846,0 c 0.06609,0 0.12698,-0.01151 0.18267,-0.03453 0.05643,-0.02302 0.10507,-0.05718 0.14591,-0.10247 0.04158,-0.04604 0.07388,-0.10284 0.0969,-0.17042 0.02376,-0.06757 0.03564,-0.14591 0.03564,-0.23502" />
      <path
         inkscape:connector-curvature="0"
         id="path617"
         d="m 13.769,45.699 c -0.08688,0 -0.16522,-0.01262 -0.23502,-0.03787 -0.06906,-0.02599 -0.12809,-0.06497 -0.1771,-0.11695 -0.04901,-0.05272 -0.08651,-0.11844 -0.1125,-0.19715 -0.02599,-0.07945 -0.03898,-0.17227 -0.03898,-0.27846 0,-0.1151 0.01522,-0.212 0.04567,-0.29071 0.03119,-0.07871 0.07277,-0.1422 0.12475,-0.19046 0.05272,-0.04901 0.11324,-0.08428 0.18155,-0.10581 0.06831,-0.02153 0.14034,-0.0323 0.21608,-0.0323 0.09505,1e-6 0.17598,0.01671 0.24282,0.05012 0.06757,0.03267 0.12289,0.07871 0.16596,0.13812 0.04307,0.0594 0.07463,0.13069 0.09468,0.21386 0.02005,0.08242 0.03007,0.17376 0.03007,0.274 l 0,0.0089 -0.773,0 c 0,0.05049 0.0045,0.09765 0.01337,0.14146 0.0089,0.04307 0.02339,0.08057 0.04344,0.1125 0.02005,0.03119 0.04604,0.05606 0.07797,0.07463 0.03193,0.01782 0.07054,0.02673 0.11584,0.02673 0.05495,0 0.09987,-0.01151 0.13477,-0.03453 0.0349,-0.02376 0.05977,-0.06015 0.07463,-0.10916 l 0.29516,0.02562 c -0.01337,0.03416 -0.0323,0.07054 -0.05681,0.10916 -0.02376,0.03861 -0.05569,0.07426 -0.09579,0.10693 -0.0401,0.03193 -0.09022,0.05866 -0.15037,0.0802 -0.0594,0.02079 -0.1318,0.03119 -0.2172,0.03119 m 0,-1.0526 c -0.03193,10e-7 -0.062,0.0056 -0.09022,0.01671 -0.02747,0.0104 -0.05161,0.02747 -0.0724,0.05124 -0.02005,0.02302 -0.03639,0.05309 -0.04901,0.09022 -0.01262,0.03713 -0.01968,0.08168 -0.02116,0.13366 l 0.46781,0 C 13.99811,44.84098 13.97468,44.76821 13.93384,44.71994 13.893,44.67093 13.83805,44.64643 13.76899,44.64643" />
      <path
         inkscape:connector-curvature="0"
         id="path619"
         d="m 14.912,44.683 0,0.99353 -0.31187,0 0,-0.99353 -0.17598,0 0,-0.21163 0.17598,0 0,-0.12586 c 0,-0.04604 0.0056,-0.08836 0.01671,-0.12698 0.01114,-0.03935 0.03007,-0.07351 0.05681,-0.10247 0.02673,-0.02896 0.06275,-0.05161 0.10804,-0.06794 0.04529,-0.01633 0.10173,-0.0245 0.1693,-0.0245 0.03564,2e-6 0.07054,0.0019 0.1047,0.0056 0.0349,0.0037 0.06609,0.0078 0.09356,0.01225 l 0,0.2016 c -0.01337,-0.003 -0.02859,-0.0052 -0.04567,-0.0067 -0.01634,-0.0022 -0.03156,-0.0033 -0.04567,-0.0033 -0.02896,2e-6 -0.05309,0.003 -0.0724,0.0089 -0.01856,0.0059 -0.03341,0.01485 -0.04455,0.02673 -0.0104,0.01188 -0.01782,0.0271 -0.02228,0.04567 -0.0045,0.01782 -0.0067,0.03861 -0.0067,0.06237 l 0,0.09467 0.23724,0 0,0.21163 -0.23724,0" />
      <path
         inkscape:connector-curvature="0"
         id="path621"
         d="m 15.585,45.699 c -0.05792,0 -0.1099,-0.0078 -0.15594,-0.02339 -0.0453,-0.01634 -0.08391,-0.03973 -0.11584,-0.07017 -0.03193,-0.03119 -0.05643,-0.06943 -0.07351,-0.11472 -0.01708,-0.0453 -0.02562,-0.0969 -0.02562,-0.15482 0,-0.07128 0.01225,-0.13106 0.03676,-0.17933 0.02525,-0.04901 0.0594,-0.08836 0.10247,-0.11807 0.04307,-0.03044 0.09356,-0.05235 0.15148,-0.06572 0.05792,-0.01411 0.11955,-0.02153 0.1849,-0.02228 l 0.25952,-0.0045 0,-0.06126 c 0,-0.04381 -0.0041,-0.0802 -0.01225,-0.10916 -0.0074,-0.0297 -0.01856,-0.05383 -0.03341,-0.0724 -0.01485,-0.01856 -0.03342,-0.03156 -0.05569,-0.03898 -0.02154,-0.0082 -0.04641,-0.01225 -0.07463,-0.01225 -0.02599,10e-7 -0.04938,0.0026 -0.07017,0.0078 -0.02005,0.0052 -0.0375,0.01448 -0.05235,0.02785 -0.01485,0.01262 -0.0271,0.03007 -0.03676,0.05235 -0.0089,0.02154 -0.01522,0.04901 -0.01894,0.08242 l -0.32635,-0.01559 c 0.0089,-0.05272 0.02525,-0.10062 0.04901,-0.14368 0.02376,-0.04381 0.05643,-0.08168 0.09802,-0.11361 0.04232,-0.03193 0.09393,-0.05643 0.15482,-0.07351 0.06163,-0.01782 0.13366,-0.02673 0.21608,-0.02673 0.075,10e-7 0.14183,0.0093 0.20049,0.02785 0.05866,0.01856 0.10841,0.04641 0.14925,0.08354 0.04084,0.03639 0.07203,0.08131 0.09356,0.13477 0.02153,0.05346 0.0323,0.11547 0.0323,0.18601 l 0,0.43885 c -1e-6,0.02822 0.0011,0.05346 0.0033,0.07574 0.003,0.02228 0.0078,0.04121 0.01448,0.05681 0.0074,0.01485 0.01745,0.02636 0.03007,0.03453 0.01336,0.0074 0.03044,0.01114 0.05124,0.01114 0.02376,0 0.04678,-0.0022 0.06906,-0.0067 l 0,0.1693 c -0.01856,0.0045 -0.03527,0.0085 -0.05012,0.01225 -0.01485,0.0037 -0.0297,0.0067 -0.04455,0.0089 -0.01485,0.0022 -0.03082,0.0041 -0.0479,0.0056 -0.01634,0.0015 -0.03564,0.0022 -0.05792,0.0022 -0.07871,0 -0.137,-0.01931 -0.17487,-0.05792 -0.03713,-0.03861 -0.0594,-0.09542 -0.06683,-0.17042 l -0.0067,0 c -0.04158,0.075 -0.09505,0.13329 -0.16039,0.17487 -0.0646,0.04158 -0.14331,0.06238 -0.23613,0.06238 m 0.36422,-0.5803 -0.16039,0.0022 c -0.03341,0.0015 -0.06535,0.0045 -0.09579,0.0089 -0.0297,0.0037 -0.05606,0.01225 -0.07908,0.02562 -0.02228,0.01262 -0.0401,0.03119 -0.05346,0.05569 -0.01337,0.0245 -0.02005,0.05792 -0.02005,0.10024 0,0.05718 0.013,0.09987 0.03898,0.12809 0.02673,0.02748 0.062,0.04121 0.10581,0.04121 0.0401,0 0.07648,-0.0085 0.10916,-0.02562 0.03267,-0.01708 0.06015,-0.03935 0.08242,-0.06683 0.02302,-0.02822 0.04084,-0.06052 0.05346,-0.0969 0.01262,-0.03639 0.01894,-0.07351 0.01894,-0.11138 l 0,-0.06126" />
      <path
         inkscape:connector-curvature="0"
         id="path623"
         d="m 16.872,44.471 0,0.67609 c 0,0.04678 0.0037,0.08985 0.01114,0.1292 0.0074,0.03861 0.01968,0.07203 0.03676,0.10024 0.01708,0.02747 0.03898,0.04901 0.06572,0.0646 0.02747,0.01559 0.06089,0.02339 0.10024,0.02339 0.03787,0 0.07203,-0.0082 0.10247,-0.0245 0.03119,-0.01708 0.05792,-0.04084 0.0802,-0.07128 0.02228,-0.03119 0.03935,-0.06794 0.05124,-0.11027 0.01262,-0.04307 0.01893,-0.09022 0.01893,-0.14146 l 0,-0.64602 0.31299,0 0,0.93562 c -10e-7,0.02525 -10e-7,0.05198 0,0.0802 7.41e-4,0.02747 0.0015,0.05383 0.0022,0.07908 0.0015,0.0245 0.0026,0.04678 0.0033,0.06683 0.0015,0.01931 0.0026,0.03379 0.0033,0.04344 l -0.2985,0 c -7.44e-4,-0.0089 -0.0022,-0.02302 -0.0045,-0.04232 -0.0015,-0.02005 -0.003,-0.04195 -0.0045,-0.06572 -7.44e-4,-0.02376 -0.0019,-0.04752 -0.0033,-0.07128 -7.43e-4,-0.02376 -0.0011,-0.04381 -0.0011,-0.06015 l -0.0056,0 c -0.04158,0.09133 -0.09468,0.15779 -0.15928,0.19938 -0.06386,0.04158 -0.13997,0.06238 -0.22834,0.06238 -0.07203,0 -0.13329,-0.01188 -0.18378,-0.03564 -0.05049,-0.02376 -0.09171,-0.05606 -0.12364,-0.0969 -0.03119,-0.04158 -0.05383,-0.09059 -0.06794,-0.14702 -0.01411,-0.05643 -0.02116,-0.11732 -0.02116,-0.18267 l 0,-0.7652 0.31299,0" />
      <path
         inkscape:connector-curvature="0"
         id="path625"
         d="m 17.971,45.676 0,-1.6529 0.31299,0 0,1.6529 -0.31299,0" />
      <path
         inkscape:connector-curvature="0"
         id="path627"
         d="m 18.912,45.696 c -0.09208,0 -0.16299,-0.02488 -0.21274,-0.07463 -0.04975,-0.05049 -0.07463,-0.1266 -0.07463,-0.22834 l 0,-0.71062 -0.15259,0 0,-0.21163 0.16819,0 0.09802,-0.28291 0.19603,0 0,0.28291 0.22833,0 0,0.21163 -0.22833,0 0,0.62597 c -1e-6,0.05866 0.01114,0.1021 0.03341,0.13032 0.02228,0.02748 0.0568,0.04121 0.10359,0.04121 0.01931,0 0.03676,-0.0015 0.05235,-0.0045 0.01559,-0.003 0.03304,-0.0067 0.05235,-0.01114 l 0,0.19381 c -0.03861,0.01262 -0.07945,0.0219 -0.12252,0.02785 -0.04307,0.0067 -0.09022,0.01002 -0.14146,0.01002" />
      <path
         inkscape:connector-curvature="0"
         id="path629"
         d="m 21.016,45.676 -0.13923,-0.40098 -0.59813,0 -0.13923,0.40098 -0.32858,0 0.57251,-1.5694 0.38761,0 0.57028,1.5694 -0.32524,0 m -0.368,-1.099 c -0.0089,-0.02599 -0.01782,-0.05198 -0.02673,-0.07797 -0.0082,-0.02673 -0.01559,-0.05086 -0.02228,-0.0724 -0.0059,-0.02228 -0.01114,-0.04047 -0.01559,-0.05458 -0.0037,-0.01411 -0.0059,-0.0219 -0.0067,-0.02339 -7.44e-4,0.0022 -0.003,0.0104 -0.0067,0.0245 -0.0037,0.01411 -0.0089,0.03193 -0.01559,0.05346 -0.0059,0.02154 -0.01337,0.04567 -0.02228,0.0724 -0.0082,0.02599 -0.01671,0.05198 -0.02562,0.07797 l -0.15482,0.4511 0.4511,0 -0.15482,-0.4511" />
      <path
         inkscape:connector-curvature="0"
         id="path631"
         d="m 22.703,45.068 c -1e-6,0.09133 -0.0093,0.17561 -0.02785,0.25284 -0.01782,0.07723 -0.04567,0.14368 -0.08354,0.19938 -0.03787,0.05569 -0.08614,0.0995 -0.1448,0.13143 -0.05792,0.03119 -0.12661,0.04678 -0.20606,0.04678 -0.03564,0 -0.07129,-0.0037 -0.10693,-0.01114 -0.0349,-0.0074 -0.06831,-0.01931 -0.10024,-0.03564 -0.03193,-0.01708 -0.06163,-0.03898 -0.08911,-0.06572 -0.02673,-0.02747 -0.04975,-0.06126 -0.06906,-0.10136 l -0.0067,0 c 7.42e-4,0.0037 0.0015,0.013 0.0022,0.02785 7.42e-4,0.01485 0.0015,0.0323 0.0022,0.05235 7.43e-4,0.01931 0.0011,0.0401 0.0011,0.06237 7.42e-4,0.02153 0.0011,0.04158 0.0011,0.06015 l 0,0.46224 -0.31299,0 0,-1.4012 c 0,-0.06163 -0.0011,-0.11658 -0.0033,-0.16485 -0.0015,-0.04827 -0.0033,-0.08576 -0.0056,-0.1125 l 0.30408,0 c 0.0015,0.0052 0.003,0.01522 0.0045,0.03007 0.0022,0.01485 0.0037,0.03193 0.0045,0.05124 0.0015,0.01931 0.0026,0.03936 0.0033,0.06015 7.42e-4,0.02079 0.0011,0.03899 0.0011,0.05458 l 0.0045,0 c 0.03787,-0.07945 0.08985,-0.13626 0.15594,-0.17042 0.06609,-0.03416 0.14257,-0.05123 0.22945,-0.05124 0.07648,2e-6 0.14257,0.01559 0.19826,0.04678 0.05569,0.03119 0.10136,0.07426 0.137,0.1292 0.03638,0.05495 0.06311,0.12067 0.08019,0.19715 0.01782,0.07574 0.02673,0.15891 0.02673,0.2495 m -0.32635,0 c -10e-7,-0.13737 -0.02079,-0.2391 -0.06237,-0.30519 -0.04158,-0.06683 -0.10359,-0.10024 -0.18601,-0.10024 -0.03119,10e-7 -0.06237,0.0067 -0.09356,0.02005 -0.03045,0.01262 -0.05792,0.0349 -0.08242,0.06683 -0.02376,0.03119 -0.04344,0.07351 -0.05903,0.12698 -0.01485,0.05272 -0.02228,0.11955 -0.02228,0.20049 -1e-6,0.07871 0.0074,0.14443 0.02228,0.19715 0.01485,0.05198 0.03416,0.09356 0.05792,0.12475 0.0245,0.03119 0.05198,0.05346 0.08242,0.06683 0.03044,0.01262 0.06126,0.01893 0.09245,0.01893 0.0401,0 0.07574,-0.0078 0.10693,-0.02339 0.03119,-0.01634 0.05718,-0.04121 0.07797,-0.07463 0.02153,-0.03416 0.03787,-0.0776 0.04901,-0.13032 0.01114,-0.05272 0.01671,-0.11547 0.01671,-0.18824" />
      <path
         inkscape:connector-curvature="0"
         id="path633"
         d="m 24.097,45.068 c -1e-6,0.09133 -0.0093,0.17561 -0.02785,0.25284 -0.01782,0.07723 -0.04567,0.14368 -0.08354,0.19938 -0.03787,0.05569 -0.08614,0.0995 -0.1448,0.13143 -0.05792,0.03119 -0.12661,0.04678 -0.20606,0.04678 -0.03564,0 -0.07129,-0.0037 -0.10693,-0.01114 -0.0349,-0.0074 -0.06831,-0.01931 -0.10024,-0.03564 -0.03193,-0.01708 -0.06163,-0.03898 -0.08911,-0.06572 -0.02673,-0.02747 -0.04975,-0.06126 -0.06906,-0.10136 l -0.0067,0 c 7.42e-4,0.0037 0.0015,0.013 0.0022,0.02785 7.42e-4,0.01485 0.0015,0.0323 0.0022,0.05235 7.42e-4,0.01931 0.0011,0.0401 0.0011,0.06237 7.42e-4,0.02153 0.0011,0.04158 0.0011,0.06015 l 0,0.46224 -0.31298,0 0,-1.4012 c -1e-6,-0.06163 -0.0011,-0.11658 -0.0033,-0.16485 -0.0015,-0.04827 -0.0033,-0.08576 -0.0056,-0.1125 l 0.30408,0 c 0.0015,0.0052 0.003,0.01522 0.0045,0.03007 0.0022,0.01485 0.0037,0.03193 0.0045,0.05124 0.0015,0.01931 0.0026,0.03936 0.0033,0.06015 7.42e-4,0.02079 0.0011,0.03899 0.0011,0.05458 l 0.0045,0 c 0.03787,-0.07945 0.08985,-0.13626 0.15594,-0.17042 0.06609,-0.03416 0.14257,-0.05123 0.22945,-0.05124 0.07648,2e-6 0.14257,0.01559 0.19826,0.04678 0.05569,0.03119 0.10136,0.07426 0.137,0.1292 0.03638,0.05495 0.06312,0.12067 0.0802,0.19715 0.01782,0.07574 0.02673,0.15891 0.02673,0.2495 m -0.32635,0 c -1e-6,-0.13737 -0.02079,-0.2391 -0.06237,-0.30519 -0.04158,-0.06683 -0.10359,-0.10024 -0.18601,-0.10024 -0.03119,10e-7 -0.06237,0.0067 -0.09356,0.02005 -0.03045,0.01262 -0.05792,0.0349 -0.08242,0.06683 -0.02376,0.03119 -0.04344,0.07351 -0.05903,0.12698 -0.01485,0.05272 -0.02228,0.11955 -0.02228,0.20049 -1e-6,0.07871 0.0074,0.14443 0.02228,0.19715 0.01485,0.05198 0.03416,0.09356 0.05792,0.12475 0.0245,0.03119 0.05198,0.05346 0.08242,0.06683 0.03044,0.01262 0.06126,0.01893 0.09245,0.01893 0.0401,0 0.07574,-0.0078 0.10693,-0.02339 0.03119,-0.01634 0.05718,-0.04121 0.07797,-0.07463 0.02153,-0.03416 0.03787,-0.0776 0.04901,-0.13032 0.01114,-0.05272 0.01671,-0.11547 0.01671,-0.18824" />
      <path
         inkscape:connector-curvature="0"
         id="path635"
         d="m 24.351,45.676 0,-1.6529 0.31298,0 0,1.6529 -0.31298,0" />
      <path
         inkscape:connector-curvature="0"
         id="path637"
         d="m 24.984,44.254 0,-0.23056 0.31299,0 0,0.23056 -0.31299,0 m 0,1.4224 0,-1.2052 0.31299,0 0,1.2052 -0.31299,0" />
      <path
         inkscape:connector-curvature="0"
         id="path639"
         d="m 26.119,45.699 c -0.09579,0 -0.1797,-0.01485 -0.25172,-0.04455 -0.07128,-0.0297 -0.13069,-0.07166 -0.17821,-0.12586 -0.04752,-0.05421 -0.08317,-0.11918 -0.10693,-0.19492 -0.02376,-0.07648 -0.03564,-0.16076 -0.03564,-0.25284 0,-0.10024 0.01299,-0.18935 0.03898,-0.26732 0.02599,-0.07871 0.06349,-0.1448 0.1125,-0.19826 0.04901,-0.0542 0.10916,-0.09542 0.18044,-0.12364 0.07203,-0.02821 0.15371,-0.04232 0.24504,-0.04232 0.07797,1e-6 0.14702,0.0104 0.20717,0.03119 0.06089,0.02079 0.11324,0.04938 0.15705,0.08576 0.04381,0.03564 0.07908,0.07797 0.10581,0.12698 0.02747,0.04901 0.04641,0.10173 0.05681,0.15816 l -0.31521,0.01559 c -0.0089,-0.06163 -0.03119,-0.11064 -0.06683,-0.14702 -0.03564,-0.03713 -0.08614,-0.05569 -0.15148,-0.05569 -0.08391,1e-6 -0.14517,0.03453 -0.18378,0.10359 -0.03861,0.06906 -0.05792,0.1693 -0.05792,0.30073 0,0.27772 0.08205,0.41657 0.24616,0.41657 0.0594,0 0.10916,-0.01856 0.14925,-0.05569 0.0401,-0.03787 0.06497,-0.09393 0.07463,-0.16819 l 0.3141,0.01448 c -0.0074,0.05569 -0.02451,0.10916 -0.05124,0.16039 -0.02599,0.05049 -0.06163,0.09542 -0.10693,0.13477 -0.04455,0.03861 -0.09876,0.0698 -0.16262,0.09356 -0.06386,0.02302 -0.137,0.03453 -0.21942,0.03453" />
      <path
         inkscape:connector-curvature="0"
         id="path641"
         d="m 27.165,45.699 c -0.05792,0 -0.1099,-0.0078 -0.15594,-0.02339 -0.0453,-0.01634 -0.08391,-0.03973 -0.11584,-0.07017 -0.03193,-0.03119 -0.05643,-0.06943 -0.07351,-0.11472 -0.01708,-0.0453 -0.02562,-0.0969 -0.02562,-0.15482 0,-0.07128 0.01225,-0.13106 0.03676,-0.17933 0.02525,-0.04901 0.0594,-0.08836 0.10247,-0.11807 0.04307,-0.03044 0.09356,-0.05235 0.15148,-0.06572 0.05792,-0.01411 0.11955,-0.02153 0.1849,-0.02228 l 0.25952,-0.0045 0,-0.06126 c -10e-7,-0.04381 -0.0041,-0.0802 -0.01225,-0.10916 -0.0074,-0.0297 -0.01856,-0.05383 -0.03341,-0.0724 -0.01485,-0.01856 -0.03342,-0.03156 -0.05569,-0.03898 -0.02153,-0.0082 -0.04641,-0.01225 -0.07463,-0.01225 -0.02599,10e-7 -0.04938,0.0026 -0.07017,0.0078 -0.02005,0.0052 -0.0375,0.01448 -0.05235,0.02785 -0.01485,0.01262 -0.0271,0.03007 -0.03676,0.05235 -0.0089,0.02154 -0.01522,0.04901 -0.01894,0.08242 l -0.32635,-0.01559 c 0.0089,-0.05272 0.02525,-0.10062 0.04901,-0.14368 0.02376,-0.04381 0.05643,-0.08168 0.09802,-0.11361 0.04233,-0.03193 0.09393,-0.05643 0.15482,-0.07351 0.06163,-0.01782 0.13366,-0.02673 0.21608,-0.02673 0.075,10e-7 0.14183,0.0093 0.20049,0.02785 0.05866,0.01856 0.10841,0.04641 0.14925,0.08354 0.04084,0.03639 0.07203,0.08131 0.09356,0.13477 0.02153,0.05346 0.0323,0.11547 0.0323,0.18601 l 0,0.43885 c -10e-7,0.02822 0.0011,0.05346 0.0033,0.07574 0.003,0.02228 0.0078,0.04121 0.01448,0.05681 0.0074,0.01485 0.01745,0.02636 0.03007,0.03453 0.01337,0.0074 0.03044,0.01114 0.05124,0.01114 0.02376,0 0.04678,-0.0022 0.06906,-0.0067 l 0,0.1693 c -0.01856,0.0045 -0.03527,0.0085 -0.05012,0.01225 -0.01485,0.0037 -0.0297,0.0067 -0.04455,0.0089 -0.01485,0.0022 -0.03082,0.0041 -0.04789,0.0056 -0.01634,0.0015 -0.03564,0.0022 -0.05792,0.0022 -0.07871,0 -0.137,-0.01931 -0.17487,-0.05792 -0.03713,-0.03861 -0.05941,-0.09542 -0.06683,-0.17042 l -0.0067,0 c -0.04158,0.075 -0.09505,0.13329 -0.16039,0.17487 -0.0646,0.04158 -0.14331,0.06238 -0.23613,0.06238 m 0.36422,-0.5803 -0.16039,0.0022 c -0.03342,0.0015 -0.06535,0.0045 -0.09579,0.0089 -0.0297,0.0037 -0.05606,0.01225 -0.07908,0.02562 -0.02228,0.01262 -0.0401,0.03119 -0.05346,0.05569 -0.01337,0.0245 -0.02005,0.05792 -0.02005,0.10024 -1e-6,0.05718 0.01299,0.09987 0.03898,0.12809 0.02673,0.02748 0.062,0.04121 0.10581,0.04121 0.0401,0 0.07648,-0.0085 0.10916,-0.02562 0.03267,-0.01708 0.06015,-0.03935 0.08242,-0.06683 0.02302,-0.02822 0.04084,-0.06052 0.05346,-0.0969 0.01262,-0.03639 0.01893,-0.07351 0.01893,-0.11138 l 0,-0.06126" />
      <path
         inkscape:connector-curvature="0"
         id="path643"
         d="m 28.464,45.696 c -0.09208,0 -0.16299,-0.02488 -0.21274,-0.07463 -0.04975,-0.05049 -0.07463,-0.1266 -0.07463,-0.22834 l 0,-0.71062 -0.1526,0 0,-0.21163 0.16819,0 0.09802,-0.28291 0.19603,0 0,0.28291 0.22834,0 0,0.21163 -0.22834,0 0,0.62597 c -1e-6,0.05866 0.01114,0.1021 0.03342,0.13032 0.02228,0.02748 0.0568,0.04121 0.10359,0.04121 0.0193,0 0.03675,-0.0015 0.05235,-0.0045 0.01559,-0.003 0.03304,-0.0067 0.05235,-0.01114 l 0,0.19381 c -0.03861,0.01262 -0.07945,0.0219 -0.12252,0.02785 -0.04307,0.0067 -0.09022,0.01002 -0.14146,0.01002" />
      <path
         inkscape:connector-curvature="0"
         id="path645"
         d="m 28.918,44.254 0,-0.23056 0.31299,0 0,0.23056 -0.31299,0 m 0,1.4224 0,-1.2052 0.31299,0 0,1.2052 -0.31299,0" />
      <path
         inkscape:connector-curvature="0"
         id="path647"
         d="m 30.695,45.073 c -1e-6,0.09208 -0.013,0.17636 -0.03898,0.25284 -0.02525,0.07648 -0.06349,0.14257 -0.11472,0.19826 -0.05124,0.05495 -0.1151,0.09802 -0.19158,0.1292 -0.07648,0.03045 -0.16559,0.04567 -0.26732,0.04567 -0.09802,0 -0.18452,-0.01522 -0.25952,-0.04567 -0.075,-0.03045 -0.13812,-0.07314 -0.18935,-0.12809 -0.05049,-0.05495 -0.08873,-0.12066 -0.11472,-0.19715 -0.02599,-0.07722 -0.03898,-0.16225 -0.03898,-0.25507 0,-0.08985 0.01225,-0.17264 0.03676,-0.24838 0.02525,-0.07648 0.06312,-0.14257 0.11361,-0.19826 0.05049,-0.05569 0.11398,-0.09913 0.19046,-0.13032 0.07648,-0.03119 0.16596,-0.04678 0.26843,-0.04678 0.10841,10e-7 0.20086,0.0156 0.27734,0.04678 0.07648,0.03119 0.13886,0.07463 0.18712,0.13032 0.04901,0.05495 0.08465,0.12067 0.10693,0.19715 0.02302,0.07574 0.03453,0.15891 0.03453,0.2495 m -0.32746,0 c -1e-6,-0.14331 -0.02339,-0.24727 -0.07017,-0.31187 -0.04678,-0.0646 -0.11472,-0.0969 -0.20383,-0.0969 -0.09208,10e-7 -0.16262,0.03267 -0.21163,0.09802 -0.04901,0.06535 -0.07351,0.16893 -0.07351,0.31076 0,0.07203 0.0063,0.13403 0.01894,0.18601 0.01337,0.05198 0.03193,0.09468 0.05569,0.12809 0.02376,0.03341 0.05235,0.05829 0.08576,0.07463 0.03342,0.01559 0.07017,0.02339 0.11027,0.02339 0.04604,0 0.08688,-0.0078 0.12252,-0.02339 0.03638,-0.01634 0.06683,-0.04121 0.09133,-0.07463 0.0245,-0.03341 0.04307,-0.07611 0.05569,-0.12809 0.01262,-0.05198 0.01893,-0.11398 0.01893,-0.18601" />
      <path
         inkscape:connector-curvature="0"
         id="path649"
         d="m 31.726,45.676 0,-0.67609 c -10e-7,-0.04678 -0.0037,-0.08948 -0.01114,-0.12809 -0.0074,-0.03935 -0.01968,-0.07277 -0.03676,-0.10024 -0.01708,-0.02822 -0.03936,-0.05012 -0.06683,-0.06572 -0.02747,-0.01559 -0.06089,-0.02339 -0.10024,-0.02339 -0.03787,10e-7 -0.0724,0.0085 -0.10359,0.02562 -0.03045,0.01634 -0.05681,0.0401 -0.07908,0.07128 -0.02228,0.03045 -0.03973,0.0672 -0.05235,0.11027 -0.01188,0.04233 -0.01782,0.08911 -0.01782,0.14034 l 0,0.64602 -0.31299,0 0,-0.93562 c 0,-0.02599 -3.71e-4,-0.05272 -0.0011,-0.0802 0,-0.02747 -7.42e-4,-0.05346 -0.0022,-0.07797 -7.43e-4,-0.02524 -0.0015,-0.04752 -0.0022,-0.06683 -7.43e-4,-0.02005 -0.0019,-0.0349 -0.0033,-0.04455 l 0.29851,0 c 0.0015,0.0089 0.003,0.02339 0.0045,0.04344 0.0015,0.01931 0.003,0.04084 0.0045,0.0646 0.0015,0.02376 0.0026,0.04752 0.0033,0.07128 0.0015,0.02376 0.0022,0.04381 0.0022,0.06015 l 0.0045,0 c 0.04232,-0.09208 0.09542,-0.1589 0.15928,-0.20049 0.06386,-0.04158 0.13997,-0.06237 0.22834,-0.06237 0.07277,10e-7 0.13403,0.01188 0.18378,0.03564 0.05049,0.02376 0.09133,0.05644 0.12252,0.09802 0.03193,0.04158 0.05495,0.09059 0.06906,0.14703 0.01411,0.05643 0.02116,0.11732 0.02116,0.18267 l 0,0.7652 -0.31187,0" />
    </g>
  </g>
  <g
     id="g14291">
    <path
       d="m 5.2922679,73.685059 0,5.0663 c 0,6.668 5.3645011,12.032 12.0320011,12.032 l 61.049,0 c 6.668,0 12.032,-5.3645 12.032,-12.032 l 0,-5.0663 c 0,6.6681 -5.3645,12.032 -12.032,12.032 l -61.049,0 c -6.668,0 -12.0320011,-5.3643 -12.0320011,-12.032 z"
       id="path64"
       inkscape:connector-curvature="0"
       style="opacity:0.4;fill:url(#linearGradient14237);fill-opacity:1" />
    <path
       inkscape:connector-curvature="0"
       id="path14214"
       d="m 5.2929688,72.717592 0,1.15039 c 0,6.667718 5.3632502,12.031248 12.0312502,12.031248 l 61.048828,0 c 6.6675,0 12.03125,-5.36313 12.03125,-12.031248 l 0,-1.15039 c 0,6.668098 -5.36375,12.031248 -12.03125,12.031248 l -61.048828,0 c -6.668,0 -12.0312502,-5.36355 -12.0312502,-12.031248 z"
       style="opacity:0.5;fill:url(#linearGradient14245);fill-opacity:1" />
  </g>
</svg>
