<?xml version="1.0" encoding="UTF-8" standalone="no"?>
<svg
   xmlns:dc="http://purl.org/dc/elements/1.1/"
   xmlns:cc="http://creativecommons.org/ns#"
   xmlns:rdf="http://www.w3.org/1999/02/22-rdf-syntax-ns#"
   xmlns:svg="http://www.w3.org/2000/svg"
   xmlns="http://www.w3.org/2000/svg"
   xmlns:xlink="http://www.w3.org/1999/xlink"
   xmlns:sodipodi="http://sodipodi.sourceforge.net/DTD/sodipodi-0.dtd"
   xmlns:inkscape="http://www.inkscape.org/namespaces/inkscape"
   height="96"
   width="96"
   id="svg2172"
   version="1.1"
   inkscape:version="0.91 r13725"
   sodipodi:docname="blender.svg">
  <metadata
     id="metadata2250">
    <rdf:RDF>
      <cc:Work
         rdf:about="">
        <dc:format>image/svg+xml</dc:format>
        <dc:type
           rdf:resource="http://purl.org/dc/dcmitype/StillImage" />
      </cc:Work>
    </rdf:RDF>
  </metadata>
  <sodipodi:namedview
     pagecolor="#ffffff"
     bordercolor="#666666"
     borderopacity="1"
     objecttolerance="10"
     gridtolerance="10"
     guidetolerance="10"
     inkscape:pageopacity="0"
     inkscape:pageshadow="2"
     inkscape:window-width="640"
     inkscape:window-height="480"
     id="namedview2248"
     showgrid="false"
     inkscape:zoom="2.4583333"
     inkscape:cx="48"
     inkscape:cy="48"
     inkscape:current-layer="svg2172" />
  <defs
     id="defs2174">
    <clipPath
       id="clipPath3613-25">
      <rect
         x="6"
         rx="6"
         y="6"
         height="84"
         width="84"
         id="rect2177" />
    </clipPath>
    <filter
       x="-0.192"
       y="-0.192"
       height="1.384"
       color-interpolation-filters="sRGB"
       id="filter3794-6"
       width="1.384">
      <feGaussianBlur
         stdDeviation="5.28"
         id="feGaussianBlur2180" />
    </filter>
    <linearGradient
       x2="0"
       y1="90"
       y2="5.988"
       gradientUnits="userSpaceOnUse"
       id="linearGradient3105"
       gradientTransform="matrix(1.0168,0,0,1.021,-0.61,-0.847)">
      <stop
         stop-color="#3c6eb4"
         id="stop2183" />
      <stop
         stop-color="#81a4d5"
         offset="1"
         id="stop2185" />
    </linearGradient>
    <linearGradient
       x2="0"
       y1="27.26"
       y2="87.24"
       gradientUnits="userSpaceOnUse"
       id="linearGradient3057"
       gradientTransform="matrix(0.68045 0 0 0.68045 3.834 956.06)">
      <stop
         stop-color="#fff"
         id="stop2188" />
      <stop
         stop-color="#fff"
         stop-opacity="0"
         offset="1"
         id="stop2190" />
    </linearGradient>
    <radialGradient
       cy="67.41"
       r="11.648"
       gradientUnits="userSpaceOnUse"
       id="radialGradient3060"
       cx="78.56"
       gradientTransform="matrix(0.68045,0,0,0.61944,3.834,3.81)">
      <stop
         stop-color="#3f78c2"
         id="stop2193" />
      <stop
         stop-color="#2d578e"
         offset="1"
         id="stop2195" />
    </radialGradient>
    <linearGradient
       x1="185.99"
       x2="190.46"
       xlink:href="#linearGradient3057"
       y1="193.33"
       y2="-458.06"
       gradientUnits="userSpaceOnUse"
       id="linearGradient3063"
       gradientTransform="matrix(0.09839,0,0,0.09818,44.33,48.44)" />
    <linearGradient
       x1="31.19"
       x2="29.875"
       y1="18.875"
       y2="34.375"
       gradientUnits="userSpaceOnUse"
       id="linearGradient3066"
       gradientTransform="matrix(1.1856,0,0,1.2088,20.328,15.15)">
      <stop
         stop-color="#fff"
         id="stop2199" />
      <stop
         stop-color="#dadada"
         offset="1"
         id="stop2201" />
    </linearGradient>
    <linearGradient
       x2="0"
       y1="52.15"
       y2="94.97"
       gradientUnits="userSpaceOnUse"
       id="linearGradient3069"
       gradientTransform="matrix(0.68045,0,0,0.68045,3.834,-0.3)">
      <stop
         stop-color="#ed6800"
         id="stop2204" />
      <stop
         stop-color="#fd9400"
         offset="1"
         id="stop2206" />
    </linearGradient>
    <linearGradient
       x2="0"
       y1="90"
       y2="5.988"
       gradientUnits="userSpaceOnUse"
       id="linearGradient3146"
       gradientTransform="matrix(1.1136,0,0,1.0842,-5.139,-4.831)">
      <stop
         stop-color="#264b79"
         id="stop2209" />
      <stop
         stop-color="#6087b8"
         offset="1"
         id="stop2211" />
    </linearGradient>
    <linearGradient
       x2="0"
       xlink:href="#linearGradient3057"
       y1="20.221"
       y2="138.66"
       gradientUnits="userSpaceOnUse"
       id="linearGradient8394" />
    <linearGradient
       inkscape:collect="always"
       xlink:href="#linearGradient3057"
       id="linearGradient10716"
       gradientUnits="userSpaceOnUse"
       gradientTransform="matrix(0.68045,0,0,0.68045,3.834,-0.3)"
       y1="27.26"
       x2="0"
       y2="87.24" />
    <linearGradient
       inkscape:collect="always"
       xlink:href="#linearGradient14231"
       id="linearGradient14237"
       x1="50.707542"
       y1="81.682442"
       x2="50.707542"
       y2="96.539803"
       gradientUnits="userSpaceOnUse" />
    <linearGradient
       inkscape:collect="always"
       id="linearGradient14231">
      <stop
         style="stop-color:#000000;stop-opacity:1;"
         offset="0"
         id="stop14233" />
      <stop
         style="stop-color:#000000;stop-opacity:0;"
         offset="1"
         id="stop14235" />
    </linearGradient>
    <linearGradient
       inkscape:collect="always"
       xlink:href="#linearGradient14239"
       id="linearGradient14245"
       x1="49.876652"
       y1="87.937508"
       x2="49.876652"
       y2="76.719681"
       gradientUnits="userSpaceOnUse" />
    <linearGradient
       inkscape:collect="always"
       id="linearGradient14239">
      <stop
         style="stop-color:#ffffff;stop-opacity:1;"
         offset="0"
         id="stop14241" />
      <stop
         style="stop-color:#ffffff;stop-opacity:0;"
         offset="1"
         id="stop14243" />
    </linearGradient>
    <clipPath
       clipPathUnits="userSpaceOnUse"
       id="clipPath10781">
      <path
         d="m 22.806753,10.057615 c -4.414584,0 -8.019132,3.339589 -8.452751,7.613207 l 0,44.559449 c 0.433336,4.27067 4.038167,7.590742 8.452751,7.590742 l 43.101332,0 c 4.557946,0 8.242298,-3.535606 8.474644,-8.007769 l 0,-43.725394 c -0.226697,-4.477077 -3.91246,-8.030235 -8.474644,-8.030235 l -43.101332,1.4e-4 z"
         id="path10783"
         style="fill:url(#linearGradient10785)"
         inkscape:connector-curvature="0" />
    </clipPath>
    <linearGradient
       inkscape:collect="always"
       xlink:href="#linearGradient3105"
       id="linearGradient10785"
       gradientUnits="userSpaceOnUse"
       gradientTransform="matrix(0.71808483,0,0,0.71680974,10.038995,5.6674534)"
       y1="90"
       x2="0"
       y2="5.988" />
  </defs>
  <rect
     style="fill-opacity:0.02000002"
     id="rect2216"
     width="89.980003"
     height="89.980003"
     y="2.9899757"
     rx="12.724"
     x="3" />
  <rect
     style="fill-opacity:0.03900003"
     id="rect2218"
     width="88.760002"
     height="88.760002"
     y="3.6000221"
     rx="12.552"
     x="3.608" />
  <rect
     style="fill-opacity:0.078"
     id="rect2220"
     width="87.550003"
     height="87.550003"
     y="4.2100072"
     rx="12.38"
     x="4.2160001" />
  <rect
     style="fill-opacity:0.15700001"
     id="rect2222"
     width="86.330002"
     height="86.330002"
     y="4.8199925"
     rx="12.208"
     x="4.8239999" />
  <path
     inkscape:connector-curvature="0"
     style="fill:url(#linearGradient3146)"
     id="path2224"
     d="m 26.562,14.219 c -6.746,0 -12.187,5.475 -12.187,12.281 l 0,43 c 0,6.806 5.441,12.281 12.187,12.281 l 42.626,0 c 6.746,0 12.187,-5.475 12.187,-12.281 l 0,-43 c 0,-6.806 -5.441,-12.281 -12.187,-12.281 l -42.626,0 z" />
  <path
     inkscape:connector-curvature="0"
     style="fill:url(#linearGradient3105)"
     id="path2226"
     d="m 17.469,5.4062 c -6.251,0 -11.355,4.7568 -11.969,10.844 l 0,63.469 c 0.6136,6.083 5.718,10.812 11.969,10.812 l 61.031,0 c 6.454,0 11.671,-5.036 12,-11.406 l 0,-62.281 c -0.321,-6.377 -5.54,-11.438 -12,-11.438 l -61.031,2e-4 z" />
  <rect
     style="opacity:0.1;fill:url(#linearGradient8394);stroke:#ffffff;stroke-width:0.5;stroke-linecap:round;filter:url(#filter3794-6)"
     id="rect2232"
     transform="matrix(1.0168,0,0,1.021,-0.61,-0.85)"
     width="66"
     height="66"
     clip-path="url(#clipPath3613-25)"
     y="15"
     rx="12"
     x="15" />
  <g
     id="g10770"
     transform="matrix(1.4159887,0,0,1.4243668,-14.825104,-8.9195325)"
     clip-path="url(#clipPath10781)">
    <path
       d="m 49.045,13.35 0,0.0313 c -4.1318,-0.16634 -7.9661,3.2761 -7.75,7.5 l -0.0313,0 c -0.0692,0.19179 0.002,0.347 -0.0313,0.53125 -0.18907,1.0544 0.0521,2.007 0.1875,2.7188 0.0265,0.13936 0.0172,0.13628 0.0313,0.25 -4.5422,0.0277 -9.1119,-0.0765 -13.719,0.0937 a 1.1468,1.1468 0 0 0 -0.0313,0 c -4.6614,0.2192 -8.1654,4.5427 -7.6875,9.0938 l -0.0313,0 c 0.0193,1.1706 -0.16565,2.7773 0.65625,4.3438 l -0.0313,0 c 0.0117,0.0649 0.0794,0.093 0.0937,0.15625 0.0476,0.0825 0.008,0.16804 0.0625,0.25 l 0.0313,-0.0313 c 0.44992,1.5532 1.6154,2.6417 2.7812,3.375 0.55181,0.34706 0.81581,0.42416 1.3125,0.65621 -3.3543,2.48499 -6.7571,4.94039 -10.062,7.46859 a 1.1468,1.1468 0 0 0 -0.0625,0.031 c -2.4371,2.0518 -3.8337,5.2095 -3.5312,8.4375 0.0369,0.394 -3.1e-4,0.9964 0,1.6875 2.4e-4,0.5511 0.19523,1.2068 0.5,1.8438 l -0.0625,0 c 0.41537,2.7354 2.4796,4.5822 4.8125,5.3437 2.311,0.7544 4.9624,0.5584 7.0625,-0.75 0.0114,-0.01 0.0199,-0.024 0.0313,-0.031 l 0.0313,0 c 3.223,-1.8687 5.7354,-4.5067 8.4375,-6.5625 a 1.1468,1.1468 0 0 0 0.0625,-0.031 c 0.0448,0.099 -0.006,0.027 0.0313,0.1563 0.1658,0.5771 0.34309,1.3476 0.59375,2.0937 0.19843,0.5906 0.50426,1.1825 1,1.6875 0.0104,0.011 0.0206,0.021 0.0313,0.031 6.6173,11.565 22.069,15.889 34.062,10.75 l 0.0313,0 c 9.5534,-3.7126 16.479,-13.619 15.625,-24.031 -8.7e-4,-0.011 8.8e-4,-0.021 0,-0.031 0.004,-0.053 -0.004,-0.1038 0,-0.1563 0.51362,-6.97759 -2.6517,-13.84299 -7.7812,-18.40599 -0.0498,-0.0443 -0.0749,-0.11242 -0.125,-0.15625 l -0.0313,0.0313 c -1.3377,-1.5468 -3.0051,-2.366 -4.125,-3.375 a 1.1468,1.1468 0 0 0 -0.0937,-0.0625 c -5.7818,-4.4145 -11.834,-9.1034 -17.469,-13.375 a 1.1468,1.1468 0 0 0 -0.0625,-0.0625 c -1.2452,-0.82166 -2.8967,-1.497 -4.6562,-1.4688 -0.0337,5.4e-4 -0.06,-0.0323 -0.0937,-0.0313 z"
       id="path2234"
       inkscape:connector-curvature="0"
       style="color:#000000;opacity:0.05;fill-rule:evenodd" />
    <path
       d="m 49.076,15.57 c -1.0866,0.002 -2.1785,0.32853 -3.0938,0.96875 -0.86969,0.60598 -1.4375,1.4663 -1.5625,2.4062 -0.007,0.0538 -0.0271,0.1019 -0.0313,0.15625 -0.0152,0.19969 -10e-4,0.39861 0.0313,0.59375 l 0,2.2812 c -0.005,0.0422 -0.028,0.0821 -0.0313,0.125 -0.0151,0.19899 0.004,0.39818 0.0313,0.59375 0.10964,0.79079 0.53993,1.5353 1.2188,2.0938 l 0,0.0313 c 0.74281,0.58516 1.5018,1.1855 2.25,1.7812 l -18.719,0 c -1.5972,0 -2.9662,0.35605 -4,1.0938 -1.0338,0.7377 -1.6867,1.8338 -1.9062,3.0625 -0.0284,0.15871 -0.0548,0.3083 -0.0625,0.46875 -0.001,0.0211 6.6e-4,0.0414 0,0.0625 l 0,2.9375 c -0.009,0.15204 -0.009,0.28523 0,0.4375 l 0,0.3125 0.0313,0 c 0.26435,2.0219 2.0254,3.9062 4.5938,3.9062 1.901,0.002 3.8114,6e-5 5.7188,0 L 17.1387,51.0074 c 0.002,0 -0.0325,0.016 -0.0937,0.063 -1.2515,0.9578 -2.1022,2.2387 -2.4375,3.5938 -0.0784,0.3169 -0.10855,0.6456 -0.125,0.9687 l -0.0313,0 0,0.4063 0,2.6562 c -0.007,0.1734 -0.0108,0.3586 0,0.5313 l 0,0.1562 0.0313,0 c 0.0778,0.806 0.35427,1.5839 0.875,2.25 1.8081,2.3113 5.4076,2.2255 7.9375,0.1875 l 10.719,-8.7812 c 0.0174,1.0245 0.28868,2.6256 0.71875,4 0.88306,2.8093 2.3955,5.4052 4.4688,7.6875 2.1258,2.3407 4.74,4.2317 7.75,5.5625 3.1668,1.3983 6.577,2.0994 10.125,2.0937 3.5478,-0.01 6.9913,-0.7167 10.156,-2.125 3.007,-1.3432 5.6256,-3.2469 7.75,-5.5937 2.0678,-2.2905 3.5548,-4.9088 4.4375,-7.7188 0.44706,-1.4226 0.72771,-2.8622 0.84375,-4.3125 0.078,-0.9967 0.0721,-2.0028 0,-3 0.003,-0.042 -0.003,-0.083 0,-0.125 -0.002,-0.031 0.003,-0.062 0,-0.094 0.0917,-1.3536 0.0678,-2.7106 -0.125,-4.0625 -0.39483,-2.78155 -1.3646,-5.40655 -2.8438,-7.78105 -1.1592,-1.8623 -2.6608,-3.4958 -4.3438,-4.9375 l 0.0625,-0.0625 -0.90625,-0.6875 -19.906,-15.25 c 10e-4,10e-4 -0.0255,-0.0261 -0.0313,-0.0313 -0.009,-0.008 -0.0356,-0.0108 -0.0625,-0.0313 -0.0113,-0.009 -0.0199,-0.0227 -0.0313,-0.0313 -0.86457,-0.64778 -1.9276,-0.97052 -3,-0.96875 z"
       id="path2236"
       inkscape:connector-curvature="0"
       style="color:#000000;fill:#ac4d00;fill-rule:evenodd" />
    <path
       d="m 35.007,50.04 c 0.0141,0.8304 0.2835,2.4448 0.6798,3.7113 0.83918,2.6698 2.2609,5.1443 4.241,7.3241 2.031,2.2363 4.5288,4.0364 7.4158,5.3129 3.038,1.3414 6.3271,2.0267 9.7402,2.0213 3.4131,-0.01 6.702,-0.7037 9.7385,-2.0548 2.886,-1.2891 5.3838,-3.0935 7.4133,-5.3356 1.9757,-2.1885 3.3947,-4.6669 4.2338,-7.3382 0.42461,-1.3511 0.68818,-2.7205 0.7983,-4.097 0.10579,-1.3525 0.0606,-2.712 -0.13251,-4.066 -0.37514,-2.643 -1.2933,-5.1213 -2.7022,-7.383 -1.2922,-2.0759 -2.9549,-3.8943 -4.931,-5.4241 l 0.003,-0.003 -19.954,-15.291 c -0.017,-0.0141 -0.0325,-0.0281 -0.0509,-0.0408 -1.3117,-1.0021 -3.5133,-0.99926 -4.9519,0.007 -1.4584,1.0162 -1.5754,2.6052 -0.28213,3.6692 2.7413,2.1595 5.4718,4.4177 8.2283,6.577 l -25.326,-0.0168 c -2.8782,0 -4.5717,1.3649 -4.9283,3.3603 -0.31468,1.7608 1.0792,3.9427 3.5786,3.9427 4.2662,0.006 8.5742,-0.01 12.856,-0.0183 l -22.946,16.939 c -0.0296,0.023 -0.0592,0.042 -0.0889,0.065 -2.1607,1.6536 -2.8617,4.4052 -1.5006,6.1462 1.385,1.7705 4.3257,1.7719 6.5146,0.01 l 12.521,-10.226 c 0,0 -0.18053,1.382 -0.16786,2.211 z"
       id="path2238"
       style="fill:url(#linearGradient3069);fill-rule:evenodd;stroke:#ce5c00;stroke-width:2"
       inkscape:connector-curvature="0" />
    <path
       d="m 71.011,46.24 a 13.708,12.239 0 0 1 -27.416,0 13.708,12.239 0 1 1 27.416,0 z"
       id="path2240"
       style="fill:url(#linearGradient3066)"
       inkscape:connector-curvature="0" />
    <path
       d="m 49.074,18.24 c -0.58419,8.2e-4 -1.1812,0.18099 -1.5804,0.46024 l -0.003,0.003 c -0.40433,0.28172 -0.48607,0.52989 -0.49812,0.66275 -0.012,0.13286 -0.0191,0.24087 0.27367,0.48172 0.0274,0.0227 0.0541,0.0462 0.0799,0.0706 0.1793,0.14547 8.2312,6.6797 8.2312,6.6797 0.53917,0.43787 0.74434,1.1667 0.51253,1.8206 -0.23179,0.654 -0.85051,0.5511 -1.5457,0.55334 -8.1299,0.0736 -25.41,0.0276 -25.41,0.0276 -1.3751,9.5e-4 -3.387,0.74413 -3.4827,2.2834 -0.0917,1.4758 1.3121,2.0987 2.2774,2.0987 l 12.742,-0.0246 c 0.70469,-8.9e-4 1.3316,0.31899 1.5591,0.98455 0.22742,0.66557 0.005,0.7654 -0.55361,1.1943 l -22.944,17.575 c -0.002,0 -0.004,0 -0.006,0.01 -0.0924,0.07 -0.12232,0.09 -0.0892,0.064 -0.79894,0.6114 -1.2931,1.4121 -1.4698,2.1263 -0.17669,0.7142 -0.0672,1.2708 0.2706,1.7029 0.69094,0.8833 2.5531,1.0542 4.1817,-0.2577 l 12.514,-10.22 c 0.52229,-0.4259 1.2521,-0.4905 1.8414,-0.163 0.58923,0.3275 0.91846,0.9807 0.83062,1.648 0,0 -0.16234,1.4112 -0.15375,1.9729 0.27756,3.7962 2.0899,7.0772 4.4954,9.9567 4.1525,4.5685 9.8834,6.5606 15.934,6.7962 6.0654,-0.063 11.812,-2.3937 15.934,-6.8515 7.5307,-9.1951 5.6878,-19.243 -2.5213,-25.908 -6.4881,-5.2684 -13.294,-10.196 -19.943,-15.292 -0.006,-0.005 -0.0123,-0.0102 -0.0185,-0.0153 -0.0103,-0.007 -0.0206,-0.0142 -0.0307,-0.0215 -0.3038,-0.23209 -0.84362,-0.41502 -1.4267,-0.41421 z"
       id="path2242"
       style="opacity:0.48600003;fill:none;stroke:url(#linearGradient3063);stroke-width:1.5"
       inkscape:connector-curvature="0" />
    <path
       d="m 49.377,45.24 c 0.10745,-1.9598 1.0668,-3.6898 2.5089,-4.9146 1.4192,-1.204 3.3249,-1.9392 5.4066,-1.9392 2.0804,0 3.9861,0.73516 5.405,1.9392 1.4437,1.2248 2.4019,2.9535 2.5106,4.9133 0.11137,2.0171 -0.69666,3.89 -2.1128,5.2772 -1.4437,1.4131 -3.5022,2.3002 -5.8027,2.3002 -2.3018,0 -4.3603,-0.8871 -5.8039,-2.3002 C 50.071,49.1287 49.2658,47.2558 49.3771,45.24 Z"
       id="path2244"
       style="fill:url(#radialGradient3060);fill-rule:evenodd"
       inkscape:connector-curvature="0" />
    <path
       d="m 49.096,18.25 c -0.58418,8.1e-4 -1.2241,0.17073 -1.6233,0.44997 -0.40433,0.28172 -0.48397,0.5421 -0.49602,0.67496 -0.012,0.13286 -0.0222,0.25412 0.27056,0.49497 0.0274,0.0227 0.0643,0.0206 0.0902,0.045 0.1793,0.14547 8.2519,6.7046 8.2519,6.7046 0.53918,0.43786 0.72782,1.1459 0.49602,1.7999 -0.23179,0.654 -0.838,0.53774 -1.5332,0.53997 -8.1299,0.0736 -25.432,0.045 -25.432,0.045 -1.3751,9.5e-4 -3.3765,0.75564 -3.4721,2.2949 -0.0917,1.4758 1.3344,2.0699 2.2997,2.0699 l 12.716,0 c 0.70469,-8.9e-4 1.3508,0.32438 1.5782,0.98994 0.22743,0.66557 -0.0278,0.74101 -0.5862,1.1699 l -22.907,17.59399 -0.0451,0 c -0.0924,0.07 -0.0782,0.07 -0.0451,0.045 -0.79894,0.6114 -1.3114,1.4457 -1.488,2.1598 -0.1767,0.7142 -0.0673,1.2328 0.27055,1.6649 0.69093,0.8833 2.565,1.087 4.1936,-0.225 l 12.491,-10.214 c 0.52228,-0.4259 1.2596,-0.5075 1.8488,-0.18 0.58922,0.3275 0.89951,0.9976 0.81166,1.6649 0,0 -0.14386,1.3731 -0.13527,1.9349 0.13705,1.8744 0.65166,3.6312 1.4271,5.2761 3.7854,6.6155 13.844,-17.75899 37.533,-15.39999 -1.2234,-2.142 -2.9382,-4.0979 -5.0955,-5.8496 -6.4881,-5.2684 -13.327,-10.203 -19.976,-15.299 -0.0103,-0.007 -0.0349,-0.0377 -0.0451,-0.045 -0.30381,-0.2321 -0.81478,-0.40579 -1.3979,-0.40498 z"
       id="path2246"
       style="opacity:0.51999996;fill:url(#linearGradient10716);fill-rule:evenodd"
       inkscape:connector-curvature="0" />
  </g>
  <g
     id="g14291">
    <path
       d="m 5.2922679,73.685059 0,5.0663 c 0,6.668 5.3645011,12.032 12.0320011,12.032 l 61.049,0 c 6.668,0 12.032,-5.3645 12.032,-12.032 l 0,-5.0663 c 0,6.6681 -5.3645,12.032 -12.032,12.032 l -61.049,0 c -6.668,0 -12.0320011,-5.3643 -12.0320011,-12.032 z"
       id="path64"
       inkscape:connector-curvature="0"
       style="opacity:0.4;fill:url(#linearGradient14237);fill-opacity:1" />
    <path
       inkscape:connector-curvature="0"
       id="path14214"
       d="m 5.2929688,72.717592 0,1.15039 c 0,6.667718 5.3632502,12.031248 12.0312502,12.031248 l 61.048828,0 c 6.6675,0 12.03125,-5.36313 12.03125,-12.031248 l 0,-1.15039 c 0,6.668098 -5.36375,12.031248 -12.03125,12.031248 l -61.048828,0 c -6.668,0 -12.0312502,-5.36355 -12.0312502,-12.031248 z"
       style="opacity:0.5;fill:url(#linearGradient14245);fill-opacity:1" />
  </g>
</svg>
