<?xml version="1.0" encoding="UTF-8" standalone="no"?>
<svg
   xmlns:dc="http://purl.org/dc/elements/1.1/"
   xmlns:cc="http://creativecommons.org/ns#"
   xmlns:rdf="http://www.w3.org/1999/02/22-rdf-syntax-ns#"
   xmlns:svg="http://www.w3.org/2000/svg"
   xmlns="http://www.w3.org/2000/svg"
   xmlns:xlink="http://www.w3.org/1999/xlink"
   xmlns:sodipodi="http://sodipodi.sourceforge.net/DTD/sodipodi-0.dtd"
   xmlns:inkscape="http://www.inkscape.org/namespaces/inkscape"
   height="96"
   width="96"
   id="svg2"
   version="1.1"
   inkscape:version="0.91 r13725"
   sodipodi:docname="bluefish.svg">
  <metadata
     id="metadata147">
    <rdf:RDF>
      <cc:Work
         rdf:about="">
        <dc:format>image/svg+xml</dc:format>
        <dc:type
           rdf:resource="http://purl.org/dc/dcmitype/StillImage" />
      </cc:Work>
    </rdf:RDF>
  </metadata>
  <sodipodi:namedview
     pagecolor="#ffffff"
     bordercolor="#666666"
     borderopacity="1"
     objecttolerance="10"
     gridtolerance="10"
     guidetolerance="10"
     inkscape:pageopacity="0"
     inkscape:pageshadow="2"
     inkscape:window-width="640"
     inkscape:window-height="480"
     id="namedview145"
     showgrid="false"
     inkscape:zoom="2.4583333"
     inkscape:cx="48"
     inkscape:cy="48"
     inkscape:current-layer="svg2" />
  <defs
     id="defs4">
    <linearGradient
       id="linearGradient556">
      <stop
         stop-color="#fff"
         id="stop7" />
      <stop
         stop-color="#8f8f8f"
         offset="1"
         id="stop9" />
    </linearGradient>
    <linearGradient
       id="linearGradient561">
      <stop
         stop-color="#72a6db"
         id="stop12" />
      <stop
         stop-color="#4974aa"
         offset="1"
         id="stop14" />
    </linearGradient>
    <linearGradient
       id="linearGradient635">
      <stop
         stop-color="#fff"
         id="stop17" />
      <stop
         stop-color="#fff"
         stop-opacity="0.176"
         offset="1"
         id="stop19" />
    </linearGradient>
    <linearGradient
       id="linearGradient3737-53">
      <stop
         stop-color="#fff"
         id="stop22" />
      <stop
         stop-color="#fff"
         stop-opacity="0"
         offset="1"
         id="stop24" />
    </linearGradient>
    <clipPath
       id="clipPath3613-3">
      <rect
         x="6"
         rx="6"
         y="6"
         height="84"
         width="84"
         id="rect27" />
    </clipPath>
    <filter
       x="-0.192"
       y="-0.192"
       height="1.384"
       color-interpolation-filters="sRGB"
       id="filter3794-44"
       width="1.384">
      <feGaussianBlur
         stdDeviation="5.28"
         id="feGaussianBlur30" />
    </filter>
    <linearGradient
       x2="0"
       y1="90"
       y2="5.988"
       gradientUnits="userSpaceOnUse"
       id="linearGradient9863"
       gradientTransform="translate(66.55,977.14)">
      <stop
         stop-color="#537d6b"
         id="stop33" />
      <stop
         stop-color="#92bbaa"
         offset="1"
         id="stop35" />
    </linearGradient>
    <linearGradient
       x2="0"
       xlink:href="#linearGradient3737-53"
       y1="6"
       y2="109.11"
       gradientUnits="userSpaceOnUse"
       id="linearGradient9865"
       gradientTransform="translate(66.55,977.14)" />
    <linearGradient
       x2="0"
       xlink:href="#linearGradient3737-53"
       y1="20.221"
       y2="138.66"
       gradientUnits="userSpaceOnUse"
       id="linearGradient9867" />
    <clipPath
       clipPathUnits="userSpaceOnUse"
       id="clipPath9869">
      <path
         d="m86.2 985.5c-5.8568 0-10.639 4.3875-11.214 10.002v58.541c0.57493 5.6111 5.3568 9.973 11.214 9.973h57.181c6.0471 0 10.935-4.6456 11.243-10.521v-57.445c-0.30091-5.8819-5.1908-10.549-11.243-10.549h-57.181z"
         id="path40" />
    </clipPath>
    <radialGradient
       cy="13.492"
       r="10.214"
       xlink:href="#linearGradient556"
       gradientUnits="userSpaceOnUse"
       id="radialGradient9875"
       cx="24.22"
       gradientTransform="scale(0.88763,1.1266)" />
    <radialGradient
       cy="4.291"
       r="6.114"
       xlink:href="#linearGradient561"
       gradientUnits="userSpaceOnUse"
       id="radialGradient9877"
       cx="31.638"
       gradientTransform="scale(1.0613,0.94223)" />
    <linearGradient
       x1="66.897"
       x2="68.42"
       xlink:href="#linearGradient561"
       y1="9.709"
       y2="18.199"
       gradientUnits="userSpaceOnUse"
       id="linearGradient9879"
       gradientTransform="scale(0.57791,1.7304)" />
    <linearGradient
       x1="42.01"
       x2="56.889"
       xlink:href="#linearGradient635"
       y1="5.456"
       y2="14.642"
       gradientUnits="userSpaceOnUse"
       id="linearGradient9881"
       gradientTransform="scale(0.65313,1.5311)" />
    <radialGradient
       cy="16.14"
       r="27.532"
       gradientUnits="userSpaceOnUse"
       id="radialGradient9883"
       cx="15.486"
       gradientTransform="scale(0.99284,1.0072)">
      <stop
         stop-color="#3278c6"
         id="stop47" />
      <stop
         stop-color="#264980"
         offset="1"
         id="stop49" />
    </radialGradient>
    <linearGradient
       x1="40.971"
       x2="23.981"
       y1="41.885"
       y2="21.709"
       gradientUnits="userSpaceOnUse"
       id="linearGradient9885"
       gradientTransform="scale(0.99284,1.0072)">
      <stop
         stop-opacity="0.239"
         id="stop52" />
      <stop
         stop-opacity="0"
         offset="1"
         id="stop54" />
    </linearGradient>
    <radialGradient
       cy="25.591"
       r="5.343"
       xlink:href="#linearGradient561"
       gradientUnits="userSpaceOnUse"
       id="radialGradient9887"
       cx="56.925"
       gradientTransform="scale(1.122,0.89128)" />
    <linearGradient
       x1="25.03"
       x2="25.338"
       xlink:href="#linearGradient635"
       y1="15.336"
       y2="24.687"
       gradientUnits="userSpaceOnUse"
       id="linearGradient9889"
       gradientTransform="scale(0.95998,1.0417)" />
    <linearGradient
       x1="27.607"
       x2="28.11"
       xlink:href="#linearGradient556"
       y1="16.387"
       y2="24.09"
       gradientUnits="userSpaceOnUse"
       id="linearGradient9891"
       gradientTransform="scale(0.88763,1.1266)" />
    <radialGradient
       cy="3.356"
       r="6.06"
       xlink:href="#linearGradient561"
       gradientUnits="userSpaceOnUse"
       id="radialGradient9893"
       cx="32.369"
       gradientTransform="scale(1.0404,0.96117)" />
    <linearGradient
       x1="36.83"
       x2="37.26"
       xlink:href="#linearGradient561"
       y1="47.909"
       y2="54.864"
       gradientUnits="userSpaceOnUse"
       id="linearGradient9895"
       gradientTransform="scale(1.5175,0.65899)" />
    <linearGradient
       x1="29.954"
       x2="30.472"
       y1="68.7"
       y2="63.22"
       gradientUnits="userSpaceOnUse"
       id="linearGradient9897"
       gradientTransform="scale(1.8472,0.54137)">
      <stop
         stop-opacity="0.416"
         id="stop62" />
      <stop
         stop-opacity="0"
         offset="1"
         id="stop64" />
    </linearGradient>
    <linearGradient
       x1="29.05"
       x2="29.396"
       xlink:href="#linearGradient561"
       y1="63.28"
       y2="68.898"
       gradientUnits="userSpaceOnUse"
       id="linearGradient9899"
       gradientTransform="scale(1.9257,0.5193)" />
    <path
       d="m30.267 20.252a5.6614 7.1856 0 1 1 -11.323 0 5.6614 7.1856 0 1 1 11.323 0z"
       id="SVGCleanerId_0" />
    <path
       d="m39.358 25.754c-0.244 5.956-9.889 17.357-18.701 17.235-8.079-0.123-15.034-7.979-15.034-17.357-0.0004-9.378 6.099-16.623 14.912-16.868 9.423 0.1225 18.945 13.234 18.823 16.99z"
       stroke-width="1.25"
       id="SVGCleanerId_1" />
    <path
       d="m64.476 21.173a2.0743 2.1607 0 1 1 -4.1486 0 2.0743 2.1607 0 1 1 4.1486 0z"
       id="SVGCleanerId_2" />
    <path
       d="m63.958 20.395a0.77786 1.0372 0 1 1 -1.5557 0 0.77786 1.0372 0 1 1 1.5557 0z"
       fill="#808080"
       id="SVGCleanerId_3" />
    <linearGradient
       inkscape:collect="always"
       xlink:href="#linearGradient14231"
       id="linearGradient14237"
       x1="50.707542"
       y1="81.682442"
       x2="50.707542"
       y2="96.539803"
       gradientUnits="userSpaceOnUse" />
    <linearGradient
       inkscape:collect="always"
       id="linearGradient14231">
      <stop
         style="stop-color:#000000;stop-opacity:1;"
         offset="0"
         id="stop14233" />
      <stop
         style="stop-color:#000000;stop-opacity:0;"
         offset="1"
         id="stop14235" />
    </linearGradient>
    <linearGradient
       inkscape:collect="always"
       xlink:href="#linearGradient635"
       id="linearGradient14245"
       x1="49.876652"
       y1="87.937508"
       x2="49.876652"
       y2="76.719681"
       gradientUnits="userSpaceOnUse" />
  </defs>
  <rect
     style="fill-opacity:0.02000002"
     id="rect73"
     width="89.980003"
     height="89.980003"
     y="2.9899757"
     rx="12.724"
     x="3" />
  <rect
     style="fill-opacity:0.03900003"
     id="rect75"
     width="88.760002"
     height="88.760002"
     y="3.6000221"
     rx="12.552"
     x="3.608" />
  <rect
     style="fill-opacity:0.078"
     id="rect77"
     width="87.550003"
     height="87.550003"
     y="4.2100072"
     rx="12.38"
     x="4.2160001" />
  <rect
     style="fill-opacity:0.15700001"
     id="rect79"
     width="86.330002"
     height="86.330002"
     y="4.8199925"
     rx="12.208"
     x="4.8239999" />
  <g
     id="g81"
     transform="matrix(1.0673,0,0,1.0842,-74.54,-1063.05)"
     clip-path="url(#clipPath9869)">
    <rect
       style="fill:url(#linearGradient9863)"
       id="rect83"
       width="84"
       height="84"
       y="983.14001"
       rx="6"
       x="72.550003" />
    <path
       inkscape:connector-curvature="0"
       style="opacity:0.45;fill:url(#linearGradient9865)"
       id="path85"
       d="m 87.426,983.14 25.781,40.656 -40.656,-26.156 0,18.5 40.219,9 -40.219,8.75 0,18.375 40.656,-25.781 -26.156,40.656 18.5,0 9,-40.219 8.75,40.219 18.375,0 -25.781,-40.656 40.656,26.156 0,-18.5 -40.219,-9 40.219,-8.75 0,-18.375 -40.656,25.781 26.156,-40.656 -18.5,0 -9,40.219 -8.75,-40.219 -18.375,0 z" />
    <rect
       style="opacity:0.1;fill:url(#linearGradient9867);stroke:#ffffff;stroke-width:0.5;stroke-linecap:round;filter:url(#filter3794-44)"
       id="rect87"
       transform="translate(66.55,977.14)"
       width="66"
       height="66"
       clip-path="url(#clipPath3613-3)"
       y="15"
       rx="12"
       x="15" />
  </g>
  <g
     style="fill-rule:evenodd"
     id="g93"
     transform="translate(1.497,-2.2)">
    <path
       style="opacity:0.05;fill:#111d31"
       inkscape:connector-curvature="0"
       id="path95"
       d="m 75.312,18.344 c -5.8475,1.2881 -10.769,5.8404 -12.5,11.625 -0.0051,0.0091 0.005,0.02209 0,0.03125 -0.02008,0.06753 -0.07456,0.11963 -0.09375,0.1875 -0.24931,0.525 -0.40681,1.06 -0.53125,1.5938 -0.076,0.327 -0.119,0.559 -0.187,0.843 -2.526,-2.661 -5.421,-5.017 -8.594,-6.906 -0.069,-0.042 -0.118,-0.116 -0.187,-0.157 l -0.03125,0.03125 c -1.4011,-1.2139 -3.526,-2.041 -5.5,-2.3438 -0.0026,-4e-4 0.0026,-0.03085 0,-0.03125 -0.06135,-0.02008 -0.12603,-0.01193 -0.1875,-0.03125 -4.9114,-1.5435 -10.159,-0.65646 -14.656,1.375 -3.2597,-1.0094 -6.6543,-0.319 -9.4375,1.375 -2.8503,1.7349 -5.1011,4.4772 -6.0625,7.6562 -0.02043,0.04157 -0.0122,0.08343 -0.03125,0.125 -0.0065,0.02244 -0.02486,0.04002 -0.03125,0.0625 -0.47314,1.0729 -0.53,2.1453 -0.5,3.0625 0.03139,0.95941 0.10809,1.7922 0,2.4375 -0.0014,0.0083 0.0014,0.02304 0,0.03125 -0.58704,2.9488 0.02231,5.9457 1.25,8.5625 -0.20298,3.2044 0.26661,6.3953 1.125,9.4375 -1.0469,1.1061 -1.559,2.4834 -1.4688,3.7812 0.10674,1.5349 0.67112,2.9798 1.0938,4.0938 0.0075,0.02263 0.02358,0.03995 0.03125,0.0625 1.5627,4.5962 6.2368,7.5056 10.938,7.6875 6.0702,4.4698 14.425,5.7887 21.406,2.5312 l 0,0.03125 c 0.013,-0.0057 0.01826,-0.02552 0.03125,-0.03125 6.2736,-2.7651 11.338,-7.5487 15.312,-12.938 3.1157,2.4112 7.344,4.1786 11.406,2.5 a 1.1168,1.1168 0 0 0 0.094,-0.063 c 1.1082,-0.62182 1.5618,-1.8889 1.4062,-2.9375 -0.14491,-0.97713 -0.74428,-1.8419 -1.6562,-2.375 l 0.031,-0.031 c -2.497,-1.989 -4.273,-4.752 -4.437,-7.875 a 1.1168,1.1168 0 0 0 -0.032,-0.125 c -0.64786,-3.5471 0.91763,-7.2035 2.375,-10.812 A 1.1168,1.1168 0 0 0 75.781,40.5299 c 0.67136,-6.3715 -0.54121,-12.809 2.6562,-17.875 a 1.1168,1.1168 0 0 0 0.063,-0.095 c 1.0207,-2.0837 -0.82022,-4.5793 -3.125,-4.2188 a 1.1168,1.1168 0 0 0 -0.0625,0 z" />
    <path
       style="opacity:0.12000002;fill:#111d31"
       inkscape:connector-curvature="0"
       id="path97"
       d="m 75.562,19.438 c -5.5047,1.2125 -10.222,5.5926 -11.769,11.064 -0.84126,1.5186 -0.75446,6.0347 -2.6191,2.916 -2.519,-2.655 -5.368,-5.041 -8.518,-6.887 -1.108,-1.036 -3.468,-2 -5.326,-2.254 -4.754,-1.556 -9.982,-0.651 -14.424,1.442 -6.052,-2.172 -12.872,2.479 -14.55,8.379 -0.8724,1.775 -0.17948,3.6595 -0.48372,5.3868 -0.56218,2.784 0.03504,5.7147 1.284,8.2339 -0.2445,3.3097 0.23818,6.6422 1.1875,9.8125 -2.585,1.808 -1.3505,5.0621 -0.50082,7.3046 1.3992,4.2121 5.8765,6.9973 10.251,7.0392 5.7819,4.4211 13.932,5.7404 20.615,2.6088 6.393,-2.809 11.583,-7.838 15.572,-13.485 2.9643,2.6029 7.2949,4.6085 11.188,3 1.3895,-0.77965 0.94814,-2.8508 -0.36477,-3.4974 -2.688,-2.142 -4.71,-5.193 -4.895,-8.705 -0.727,-3.978 1.001,-7.81 2.447,-11.392 0.647,-6.134 -0.637,-12.828 2.844,-18.344 0.62577,-1.2774 -0.51552,-2.8475 -1.9375,-2.625 z m -23.5,6.9375 c 0.33868,-0.06576 0.5266,0.30168 0,0 z" />
    <path
       style="opacity:0.2;fill:#111d31"
       inkscape:connector-curvature="0"
       id="path99"
       d="m 75.719,20.5 a 0.77786,0.77786 0 0 0 -0.094,0.031 c -5.231,1.2773 -7.8938,4.3011 -9.8125,7.7188 a 0.77786,0.77786 0 0 0 -0.03125,0.0625 c -1.255,2.8647 -2.1523,5.71 -2.8125,8.5312 -3.0105,-3.5366 -6.646,-7.0247 -10.812,-9.375 -0.0076,-0.0043 -0.02368,0.0043 -0.03125,0 -0.0023,-0.0033 4.6e-5,-0.0312 0,-0.03125 -5.9e-5,-5.9e-5 -0.02826,0.0025 -0.03125,0 -0.02292,-0.01915 -0.10756,-0.09819 -0.15625,-0.125 -1.1385,-0.9929 -2.5951,-1.6751 -4.3125,-1.875 0.20364,0.06581 0.18612,0.04861 -0.0625,-0.03125 -1.7121,-0.54989 -3.499,-0.85229 -5.25,-0.875 a 0.77786,0.77786 0 0 0 -0.03125,0 c -3.401,0.095 -6.504,0.901 -9.284,2.281 -0.825,-0.33 -1.704,-0.56 -2.781,-0.593 a 0.77786,0.77786 0 0 0 -0.03125,0 c -6.6672,0 -11.281,5.9339 -11.281,11.188 a 0.77786,0.77786 0 0 0 0.34375,0.625 c -0.29503,1.0863 -0.53125,2.229 -0.53125,3.4375 0,2.2606 0.55605,4.3316 1.5,6.0938 -0.0379,0.6308 -0.0625,1.2668 -0.0625,1.9062 0,2.903 0.51967,5.6993 1.3438,8.3125 -0.57849,0.45684 -1.083,0.96049 -1.375,1.5938 -0.36791,0.79786 -0.40284,1.7449 -0.125,2.75 0.14127,0.44948 0.42428,0.74044 0.6875,1.0312 -0.06011,0.73325 0.10655,1.5711 0.6875,2.6562 a 0.77786,0.77786 0 0 0 0.03125,0.03125 c 1.6306,2.7599 4.3927,4.5859 7.875,4.9062 0.01044,9.61e-4 0.02079,-9.34e-4 0.03125,0 0.38409,0.03918 0.75423,0.07538 1.125,0.09375 3.4992,2.6499 7.6764,4.2462 12.062,4.3125 9.1803,0.1273 18.422,-7.8078 23.562,-15.594 1.1907,0.87156 2.4698,1.9704 4.0938,2.8125 1.8224,0.94499 4.0469,1.5131 6.5625,0.8125 a 0.77786,0.77786 0 0 0 0.3125,-1.3125 c -1.7651,-1.6179 -3.2109,-2.8797 -4.25,-4.6562 -1.026,-1.7542 -1.713,-4.1132 -1.8125,-8 0.0014,-0.01293 -0.0014,-0.01837 0,-0.03125 0.45879,-4.2011 1.3858,-5.9223 2.5625,-8.6875 a 0.77786,0.77786 0 0 0 0.0625,-0.21875 c 0.719,-6.712 -0.81,-12.151 2.906,-18.627 a 0.77786,0.77786 0 0 0 -0.781,-1.156 z" />
    <path
       style="opacity:0.4;fill:#111d31"
       inkscape:connector-curvature="0"
       id="path101"
       d="m 75.797,21.281 c -5.0231,1.2265 -7.4121,4.0144 -9.2812,7.3438 -1.437,3.2801 -2.4846,6.5498 -3.125,9.75 -3.1457,-3.902 -7.2633,-7.8284 -11.812,-10.344 -0.01254,-0.0069 -0.0187,-0.02434 -0.03125,-0.03125 -1.087,-0.99764 -2.4616,-1.6499 -4.1875,-1.8125 -0.02197,-0.0071 -0.04052,-0.02419 -0.0625,-0.03125 -1.6445,-0.52816 -3.3023,-0.82214 -4.9688,-0.84375 -3.3993,0.09432 -6.5084,0.90093 -9.25,2.3125 -0.79484,-0.36879 -1.7383,-0.58948 -2.875,-0.625 -6.1971,0 -10.531,5.6186 -10.531,10.406 0.20847,-0.12242 0.41348,-0.24728 0.625,-0.34375 -0.49325,1.3298 -0.78125,2.8391 -0.78125,4.4062 0,2.2317 0.54812,4.2856 1.5,5.9688 -0.04532,0.6723 -0.0625,1.3419 -0.0625,2.0312 0,3.0017 0.5053,5.9088 1.4062,8.5938 -1.4601,0.99304 -2.0799,2.0852 -1.5938,3.8438 0.11404,0.36283 0.35499,0.69236 0.65625,1 0.0059,0.006 -0.0059,0.02529 0,0.03125 -0.13271,0.57538 -0.01315,1.308 0.625,2.5 1.5186,2.5703 4.0416,4.2392 7.3125,4.5312 0.45521,0.04708 0.89663,0.0756 1.3438,0.09375 3.4239,2.6563 7.521,4.2476 11.812,4.3125 8.9729,0.12443 18.517,-8.0795 23.438,-15.906 0.01423,0.04934 0.01684,0.07515 0.03125,0.125 2.6868,1.869 5.8857,5.1288 10.5,3.8438 -3.5045,-3.2124 -6.1372,-5.1937 -6.3125,-13.312 0.46735,-4.3221 1.488,-6.1923 2.6562,-8.9375 0.70088,-6.5416 -0.8863,-12.189 2.9688,-18.906 z" />
    <g
       id="g103"
       transform="matrix(1.4336,0,0,1.4336,-44.45,-81.45)">
      <use
         height="100%"
         width="100%"
         y="0"
         x="0"
         style="fill:url(#radialGradient9875)"
         id="use105"
         transform="translate(25.684,64.782)"
         xlink:href="#SVGCleanerId_0" />
      <path
         inkscape:connector-curvature="0"
         style="fill:url(#radialGradient9877);stroke-width:1.25"
         id="path107"
         transform="translate(15.858,74.44)"
         d="m 40.968,10.542 c 0,3.3396 -6.81,-5.8722 -12.1,-2.7657 0,-3.3396 3.0212,-7.2688 7.344,-7.2688 5.5328,0.17288 4.7562,6.6949 4.7562,10.034 z" />
      <path
         inkscape:connector-curvature="0"
         style="fill:url(#linearGradient9879)"
         id="path109"
         transform="translate(40,65)"
         d="m 34.713,23.554 c -0.0815,-3.9113 0.8148,-8.1894 2.689,-12.467 1.3038,-2.3224 2.9743,-4.278 6.4782,-5.1336 -2.6891,4.6855 -1.589,8.6376 -2.0779,13.201 -0.8149,1.9149 -1.5075,3.2189 -1.8335,6.2338 0.1223,5.6633 1.9557,7.0487 4.4003,9.2895 -3.2187,0.8964 -5.4595,-1.3853 -7.3337,-2.689 -0.9779,-3.3817 -1.3446,-5.0522 -2.3224,-8.434 z" />
      <g
         id="g111"
         transform="matrix(0.71859,0,0,0.71858,2.167,69.947)">
        <use
           height="100%"
           width="100%"
           y="0"
           x="0"
           id="use113"
           transform="translate(0,-0.122)"
           xlink:href="#SVGCleanerId_2" />
        <use
           height="100%"
           width="100%"
           y="0"
           x="0"
           id="use115"
           xlink:href="#SVGCleanerId_3" />
      </g>
      <path
         inkscape:connector-curvature="0"
         style="fill:url(#linearGradient9881);fill-opacity:0.472"
         id="path117"
         transform="translate(40,65)"
         d="m 35.691,19.887 c 1.263,-5.9486 1.5483,-6.7634 2.3224,-8.6783 0.8555,-1.589 1.3445,-2.9335 5.1336,-4.7669 -2.0372,1.7112 -3.0965,3.6668 -3.9113,6.2337 -0.4075,2.1186 -1.1816,4.2373 -0.7334,11.245 -0.6519,-1.0593 -2.1594,-2.9743 -2.8113,-4.0336 z" />
      <use
         height="100%"
         width="100%"
         y="0"
         x="0"
         style="fill:url(#radialGradient9883)"
         id="use119"
         transform="translate(40,65)"
         xlink:href="#SVGCleanerId_1" />
      <use
         height="100%"
         width="100%"
         y="0"
         x="0"
         style="fill:url(#linearGradient9885)"
         id="use121"
         transform="translate(40,65)"
         xlink:href="#SVGCleanerId_1" />
      <path
         style="fill-opacity:0.197;stroke-width:1.25"
         inkscape:connector-curvature="0"
         id="path123"
         transform="translate(40,65)"
         d="m 30.557,20.498 c 2.0779,3.1331 1.3797,5.7609 0.2514,7.5749 -1.1283,1.8142 -4.2791,2.7994 -5.9962,2.6924 -6.0078,-0.3667 -5.1336,-3.0235 -5.1336,-8.5562 0,-5.5326 3.6483,-10.878 7.0893,-10.878 2.5854,0.6112 3.7891,3.6347 3.7891,9.1673 z" />
      <path
         inkscape:connector-curvature="0"
         style="fill:url(#radialGradient9887)"
         id="path125"
         transform="matrix(0.95249,0,0,1.1466,1.879,60.01)"
         d="m 72.36,25.082 a 6.5395,5.1948589 0 1 1 -13.079,0 6.5395,5.1948589 0 1 1 13.079,0 z" />
      <path
         inkscape:connector-curvature="0"
         style="fill:url(#linearGradient9889)"
         id="path127"
         transform="matrix(1,0,0,0.93264,39.878,66.2)"
         d="m 30.069,22.209 a 5.745,6.233917 0 1 1 -11.49,0 5.745,6.233917 0 1 1 11.49,0 z" />
      <use
         height="100%"
         width="100%"
         y="0"
         x="0"
         style="fill:url(#linearGradient9891)"
         id="use129"
         transform="matrix(1.0324,0,0,1.0595,38.516,63.15)"
         xlink:href="#SVGCleanerId_0" />
      <path
         inkscape:connector-curvature="0"
         style="fill:url(#radialGradient9893);stroke-width:1.25"
         id="path131"
         transform="translate(28.937,74.68)"
         d="M 40.89,10.542 C 39.913,9.6629 36.936,4.787 29.102,7.7454 c 0,-3.3396 1.32,-8.0934 5.6428,-8.0934 5.5328,0.17288 6.1449,7.5504 6.1449,10.89 z" />
      <g
         id="g133"
         transform="matrix(0.71859,0,0,0.71858,21.479,70.39)">
        <use
           height="100%"
           width="100%"
           y="0"
           x="0"
           id="use135"
           transform="translate(0,-0.122)"
           xlink:href="#SVGCleanerId_2" />
        <use
           height="100%"
           width="100%"
           y="0"
           x="0"
           id="use137"
           xlink:href="#SVGCleanerId_3" />
      </g>
      <path
         inkscape:connector-curvature="0"
         style="fill:url(#linearGradient9895)"
         id="path139"
         transform="translate(-1.192,67.2)"
         d="m 47.792,31.621 c 0.2038,0.8556 6.2745,3.4224 15.89,-0.2445 0.387,-0.0408 2.2985,-2.1103 2.2908,-1.7026 -0.0187,1.1104 -0.8848,2.5877 -2.0123,3.8196 -2.404,2.9334 -6.5529,4.7278 -11.279,4.239 -2.2816,-0.2037 -4.0423,-1.3851 -5.1016,-3.178 -0.9051,-1.6907 -0.3172,-1.9963 0.2124,-2.9335 z" />
      <path
         inkscape:connector-curvature="0"
         style="fill:url(#linearGradient9897)"
         id="path141"
         transform="translate(-1.654,65.38)"
         d="m 48.158,31.621 c 0.2038,0.8556 5.9078,3.7891 15.523,0.1222 1.2892,-0.662 2.1738,-0.0872 0.8556,1.9556 -2.4039,2.4446 -9.6969,3.4225 -11.978,3.0558 -2.2816,-0.2037 -5.0521,-1.0186 -5.5003,-2.4446 -0.3391,-1.2267 0.0815,-1.9963 1.1,-2.689 z" />
      <path
         inkscape:connector-curvature="0"
         style="fill:url(#linearGradient9899)"
         id="path143"
         transform="translate(-1.558,65)"
         d="m 48.158,31.621 c 0.2038,0.8556 5.5953,4.9609 15.836,0.9816 0.6836,-0.2919 1.9301,-0.8606 2.1868,-0.8178 0.3767,0.0741 -0.4768,0.9707 -1.4874,1.9922 -2.4039,2.4445 -9.8532,3.3443 -12.135,2.9776 -2.2816,-0.2037 -5.0521,-1.0186 -5.5003,-2.4446 -0.3391,-1.2267 0.0815,-1.9963 1.1,-2.689 z" />
    </g>
  </g>
  <g
     id="g14291">
    <path
       d="m 5.2922679,73.685059 0,5.0663 c 0,6.668 5.3645011,12.032 12.0320011,12.032 l 61.049,0 c 6.668,0 12.032,-5.3645 12.032,-12.032 l 0,-5.0663 c 0,6.6681 -5.3645,12.032 -12.032,12.032 l -61.049,0 c -6.668,0 -12.0320011,-5.3643 -12.0320011,-12.032 z"
       id="path64"
       inkscape:connector-curvature="0"
       style="opacity:0.4;fill:url(#linearGradient14237);fill-opacity:1" />
    <path
       inkscape:connector-curvature="0"
       id="path14214"
       d="m 5.2929688,72.717592 0,1.15039 c 0,6.667718 5.3632502,12.031248 12.0312502,12.031248 l 61.048828,0 c 6.6675,0 12.03125,-5.36313 12.03125,-12.031248 l 0,-1.15039 c 0,6.668098 -5.36375,12.031248 -12.03125,12.031248 l -61.048828,0 c -6.668,0 -12.0312502,-5.36355 -12.0312502,-12.031248 z"
       style="opacity:0.5;fill:url(#linearGradient14245);fill-opacity:1" />
  </g>
</svg>
