<?xml version="1.0" encoding="UTF-8" standalone="no"?>
<svg
   xmlns:dc="http://purl.org/dc/elements/1.1/"
   xmlns:cc="http://creativecommons.org/ns#"
   xmlns:rdf="http://www.w3.org/1999/02/22-rdf-syntax-ns#"
   xmlns:svg="http://www.w3.org/2000/svg"
   xmlns="http://www.w3.org/2000/svg"
   xmlns:xlink="http://www.w3.org/1999/xlink"
   xmlns:sodipodi="http://sodipodi.sourceforge.net/DTD/sodipodi-0.dtd"
   xmlns:inkscape="http://www.inkscape.org/namespaces/inkscape"
   height="96"
   width="96"
   id="svg1504"
   version="1.1"
   inkscape:version="0.91 r13725"
   sodipodi:docname="brasero.svg">
  <metadata
     id="metadata1593">
    <rdf:RDF>
      <cc:Work
         rdf:about="">
        <dc:format>image/svg+xml</dc:format>
        <dc:type
           rdf:resource="http://purl.org/dc/dcmitype/StillImage" />
        <dc:title></dc:title>
      </cc:Work>
    </rdf:RDF>
  </metadata>
  <sodipodi:namedview
     pagecolor="#ffffff"
     bordercolor="#666666"
     borderopacity="1"
     objecttolerance="10"
     gridtolerance="10"
     guidetolerance="10"
     inkscape:pageopacity="0"
     inkscape:pageshadow="2"
     inkscape:window-width="640"
     inkscape:window-height="480"
     id="namedview1591"
     showgrid="false"
     inkscape:zoom="2.4583333"
     inkscape:cx="48"
     inkscape:cy="48"
     inkscape:current-layer="svg1504" />
  <defs
     id="defs1506">
    <linearGradient
       x1="26.18"
       x2="93.61"
       gradientUnits="userSpaceOnUse"
       id="linearGradient3112"
       gradientTransform="matrix(0,0.28234,-0.33917,0,69.08,29.04)">
      <stop
         stop-color="#fff"
         stop-opacity="0.203"
         id="stop1509" />
      <stop
         stop-color="#fff"
         stop-opacity="0.68"
         offset="1"
         id="stop1511" />
    </linearGradient>
    <linearGradient
       x1="5"
       x2="123"
       gradientUnits="userSpaceOnUse"
       id="linearGradient3129-3"
       gradientTransform="matrix(0.48435,0.27965,-0.27964,0.48437,34.981,-2.75)">
      <stop
         stop-color="#fff"
         stop-opacity="0"
         id="stop1514" />
      <stop
         stop-color="#fff"
         stop-opacity="0"
         offset="0.15"
         id="stop1516" />
      <stop
         stop-color="#fff"
         offset="0.5"
         id="stop1518" />
      <stop
         stop-color="#fff"
         stop-opacity="0"
         offset="0.85"
         id="stop1520" />
      <stop
         stop-color="#fff"
         stop-opacity="0"
         offset="1"
         id="stop1522" />
    </linearGradient>
    <linearGradient
       x2="0"
       y1="89.13"
       y2="34.607"
       gradientUnits="userSpaceOnUse"
       id="linearGradient3132"
       gradientTransform="matrix(1.0096,0,0,1.2128,-12.384,-29.15)">
      <stop
         stop-color="#b8abbd"
         id="stop1525" />
      <stop
         stop-color="#dddbde"
         offset="1"
         id="stop1527" />
    </linearGradient>
    <linearGradient
       x1="25.22"
       x2="94.57"
       gradientUnits="userSpaceOnUse"
       id="linearGradient3135"
       gradientTransform="matrix(0,0.12448,-0.14953,0,57.34,38.5)">
      <stop
         stop-color="#4d4d4d"
         id="stop1530" />
      <stop
         stop-color="#fff"
         offset="1"
         id="stop1532" />
    </linearGradient>
    <radialGradient
       cy="61.922"
       r="33.714"
       gradientUnits="userSpaceOnUse"
       id="radialGradient3138"
       cx="59.894"
       gradientTransform="matrix(0,0.26689,-0.26852,0,64.71,29.97)">
      <stop
         stop-opacity="0"
         id="stop1535" />
      <stop
         stop-opacity="0"
         offset="0.85"
         id="stop1537" />
      <stop
         offset="1"
         id="stop1539" />
    </radialGradient>
    <linearGradient
       x2="0"
       y1="90"
       y2="5.988"
       gradientUnits="userSpaceOnUse"
       id="linearGradient3311"
       gradientTransform="matrix(1.0758,0,0,1.0673,-3.907,-2.609)">
      <stop
         stop-color="#861616"
         id="stop1542" />
      <stop
         stop-color="#d64800"
         offset="1"
         id="stop1544" />
    </linearGradient>
    <linearGradient
       x1="66.904"
       x2="84.67"
       y1="998.9"
       y2="1083.2"
       gradientUnits="userSpaceOnUse"
       id="linearGradient4665"
       gradientTransform="matrix(1.3563,0,0,1.2867,-22.478,-1250.54)">
      <stop
         stop-color="#ffc64e"
         id="stop1547" />
      <stop
         stop-color="#f30000"
         stop-opacity="0.831"
         offset="0.3"
         id="stop1549" />
      <stop
         stop-color="#fb0000"
         stop-opacity="0.476"
         offset="0.438"
         id="stop1551" />
      <stop
         stop-color="#ffb56f"
         stop-opacity="0"
         offset="1"
         id="stop1553" />
    </linearGradient>
    <linearGradient
       inkscape:collect="always"
       xlink:href="#linearGradient14231"
       id="linearGradient14237"
       x1="50.707542"
       y1="81.682442"
       x2="50.707542"
       y2="96.539803"
       gradientUnits="userSpaceOnUse" />
    <linearGradient
       inkscape:collect="always"
       id="linearGradient14231">
      <stop
         style="stop-color:#000000;stop-opacity:1;"
         offset="0"
         id="stop14233" />
      <stop
         style="stop-color:#000000;stop-opacity:0;"
         offset="1"
         id="stop14235" />
    </linearGradient>
    <linearGradient
       inkscape:collect="always"
       xlink:href="#linearGradient14239"
       id="linearGradient14245"
       x1="49.876652"
       y1="87.937508"
       x2="49.876652"
       y2="76.719681"
       gradientUnits="userSpaceOnUse" />
    <linearGradient
       inkscape:collect="always"
       id="linearGradient14239">
      <stop
         style="stop-color:#ffffff;stop-opacity:1;"
         offset="0"
         id="stop14241" />
      <stop
         style="stop-color:#ffffff;stop-opacity:0;"
         offset="1"
         id="stop14243" />
    </linearGradient>
  </defs>
  <rect
     style="fill-opacity:0.02000002"
     id="rect1557"
     width="89.980003"
     height="89.980003"
     y="2.9899757"
     rx="12.724"
     x="3" />
  <rect
     style="fill-opacity:0.03900003"
     id="rect1559"
     width="88.760002"
     height="88.760002"
     y="3.6000221"
     rx="12.552"
     x="3.608" />
  <rect
     style="fill-opacity:0.078"
     id="rect1561"
     width="87.550003"
     height="87.550003"
     y="4.2100072"
     rx="12.38"
     x="4.2160001" />
  <rect
     style="fill-opacity:0.15700001"
     id="rect1563"
     width="86.330002"
     height="86.330002"
     y="4.8199925"
     rx="12.208"
     x="4.8239999" />
  <path
     inkscape:connector-curvature="0"
     style="fill:url(#linearGradient3311)"
     id="path1565"
     d="m 17.469,5.4062 c -6.251,0 -11.355,4.7568 -11.969,10.844 l 0,63.469 c 0.6136,6.083 5.718,10.812 11.969,10.812 l 61.031,0 c 6.454,0 11.671,-5.036 12,-11.406 l 0,-62.281 c -0.321,-6.377 -5.54,-11.438 -12,-11.438 l -61.031,2e-4 z" />
  <path
     style="opacity:0.05;fill-rule:evenodd"
     inkscape:connector-curvature="0"
     id="path1571"
     d="m 48.083,11.12 c -19.744,0 -35.844,16.099 -35.844,35.844 0,19.745 16.099,35.844 35.844,35.844 19.744,0 35.844,-16.099 35.844,-35.844 0,-19.745 -16.099,-35.844 -35.844,-35.844 z m 0,26.938 c 4.9654,0 8.9062,3.9406 8.9062,8.9061 0,4.9656 -3.9409,8.9063 -8.9062,8.9063 -4.9654,0 -8.9062,-3.9407 -8.9062,-8.9063 0,-4.9654 3.9409,-8.9061 8.9062,-8.9061 z" />
  <path
     style="opacity:0.3;fill-rule:evenodd"
     inkscape:connector-curvature="0"
     id="path1573"
     d="m 48.083,13.95 c -18.215,0 -32.998,14.784 -32.998,32.999 0,18.215 14.783,32.999 32.998,32.999 18.215,0 32.998,-14.784 32.998,-32.999 0,-18.215 -14.783,-32.999 -32.998,-32.999 z m 0,21.254 c 6.4832,0 11.745,5.262 11.745,11.745 0,6.4835 -5.2618,11.745 -11.745,11.745 -6.4832,0 -11.745,-5.2618 -11.745,-11.745 0,-6.4833 5.2618,-11.745 11.745,-11.745 z" />
  <path
     style="opacity:0.3;fill:#ffffff;fill-rule:evenodd"
     inkscape:connector-curvature="0"
     id="path1575"
     d="m 48.083,30.71 c -8.4117,0 -15.241,6.8291 -15.241,15.241 0,8.412 6.8288,15.241 15.241,15.241 8.4117,0 15.241,-6.829 15.241,-15.241 0,-8.4119 -6.8288,-15.241 -15.241,-15.241 z m 0,10.767 c 2.4698,0 4.4743,2.0044 4.4743,4.4743 0,2.4699 -2.0045,4.4744 -4.4743,4.4744 -2.4698,0 -4.4743,-2.0045 -4.4743,-4.4744 0,-2.4698 2.0045,-4.4743 4.4743,-4.4743 z" />
  <path
     inkscape:connector-curvature="0"
     style="opacity:0.3;fill:url(#radialGradient3138);fill-rule:evenodd"
     id="path1577"
     d="m 48.083,54.64 a 8.7232,8.7235 0 1 1 0,-17.447 8.7232,8.7235 0 0 1 0,17.447 z" />
  <path
     inkscape:connector-curvature="0"
     style="opacity:0.6;fill:none;stroke:url(#linearGradient3135);stroke-linecap:round"
     id="path1579"
     d="m 48.083,50.04 a 4.0684,4.0686 0 1 1 0,-8.1368 4.0684,4.0686 0 0 1 0,8.1368 z" />
  <path
     inkscape:connector-curvature="0"
     style="fill:url(#linearGradient3132);fill-rule:evenodd"
     id="path1581"
     d="m 48.083,12.95 c -18.215,0 -32.998,14.784 -32.998,32.999 0,18.215 14.783,32.999 32.998,32.999 18.215,0 32.998,-14.784 32.998,-32.999 0,-18.215 -14.783,-32.999 -32.998,-32.999 z m 0,21.254 c 6.4832,0 11.745,5.262 11.745,11.745 0,6.4835 -5.2617,11.745 -11.745,11.745 -6.4832,0 -11.745,-5.2618 -11.745,-11.745 0,-6.4833 5.2618,-11.745 11.745,-11.745 z" />
  <path
     inkscape:connector-curvature="0"
     style="opacity:0.8;fill:url(#linearGradient3129-3);fill-rule:evenodd"
     id="path1583"
     d="M 64.582,17.57 C 48.808,8.4622 28.614,13.8734 19.506,29.649 10.3986,45.424 15.8096,65.619 31.584,74.726 47.358,83.8338 67.552,78.4226 76.66,62.648 85.7674,46.873 80.3564,26.678 64.582,17.571 Z M 53.956,35.976 c 5.6146,3.2417 7.5406,10.43 4.299,16.044 -3.2416,5.6148 -10.429,7.5408 -16.044,4.2992 -5.6146,-3.2418 -7.5406,-10.43 -4.299,-16.044 3.2416,-5.6149 10.429,-7.5409 16.044,-4.2991 z" />
  <path
     style="opacity:0.15;fill:none;stroke:#000000;stroke-width:3;stroke-linecap:round"
     inkscape:connector-curvature="0"
     id="path1585"
     d="m 62.822,46.04 a 14.74,14.74 0 0 1 -29.479,0 14.74,14.74 0 1 1 29.479,0 z" />
  <path
     inkscape:connector-curvature="0"
     style="color:#000000;opacity:0.5;fill:url(#linearGradient3112)"
     id="path1587"
     d="m 57.86,45.94 c 0,-5.3018 -4.3304,-9.6877 -9.7828,-9.6877 -5.4524,0 -9.7722,4.3859 -9.7722,9.6877 0,5.3021 4.3199,9.6792 9.7722,9.6792 5.4524,0 9.7828,-4.3771 9.7828,-9.6792 z m -1.1023,0 c 0,4.8916 -3.9397,8.7704 -8.6805,8.7704 -4.7408,0 -8.6699,-3.8788 -8.6699,-8.7704 0,-4.8913 3.9291,-8.7789 8.6699,-8.7789 4.7408,0 8.6805,3.8876 8.6805,8.7789 z" />
  <path
     inkscape:connector-curvature="0"
     style="fill:url(#linearGradient4665)"
     id="path1589"
     d="m 51.686,64.44 c 1.1541,2.748 1.25,6.7371 5.1251,6.295 -1.3485,-7.4238 -0.51712,-14.748 2.6846,-18.742 -1.0828,4.3889 1.0797,7.932 2.8066,11.589 0.49013,-13.388 6.8037,-21.103 4.8034,-37.378 2.9481,7.1001 6.515,15.576 5.6778,23.523 3.2897,-3.0041 1.4442,-9.6575 4.9979,-16.511 -1.1112,6.7751 5.3246,15.255 -2.9104,28.506 2.6722,-0.8221 4.2172,-2.8918 5.9792,-4.7212 -1.165,8.4579 -4.4889,14.385 -9.8841,17.883 l 4.759,2.2891 c -7.1385,8.8164 -12.813,-3.9712 -19.829,6.1518 -5.2346,-6.8301 -5.0407,-13.425 -4.2099,-18.885 z" />
  <g
     id="g14291">
    <path
       d="m 5.2922679,73.685059 0,5.0663 c 0,6.668 5.3645011,12.032 12.0320011,12.032 l 61.049,0 c 6.668,0 12.032,-5.3645 12.032,-12.032 l 0,-5.0663 c 0,6.6681 -5.3645,12.032 -12.032,12.032 l -61.049,0 c -6.668,0 -12.0320011,-5.3643 -12.0320011,-12.032 z"
       id="path64"
       inkscape:connector-curvature="0"
       style="opacity:0.4;fill:url(#linearGradient14237);fill-opacity:1" />
    <path
       inkscape:connector-curvature="0"
       id="path14214"
       d="m 5.2929688,72.717592 0,1.15039 c 0,6.667718 5.3632502,12.031248 12.0312502,12.031248 l 61.048828,0 c 6.6675,0 12.03125,-5.36313 12.03125,-12.031248 l 0,-1.15039 c 0,6.668098 -5.36375,12.031248 -12.03125,12.031248 l -61.048828,0 c -6.668,0 -12.0312502,-5.36355 -12.0312502,-12.031248 z"
       style="opacity:0.5;fill:url(#linearGradient14245);fill-opacity:1" />
  </g>
</svg>
