<?xml version="1.0" encoding="UTF-8" standalone="no"?>
<svg
   xmlns:dc="http://purl.org/dc/elements/1.1/"
   xmlns:cc="http://creativecommons.org/ns#"
   xmlns:rdf="http://www.w3.org/1999/02/22-rdf-syntax-ns#"
   xmlns:svg="http://www.w3.org/2000/svg"
   xmlns="http://www.w3.org/2000/svg"
   xmlns:xlink="http://www.w3.org/1999/xlink"
   xmlns:sodipodi="http://sodipodi.sourceforge.net/DTD/sodipodi-0.dtd"
   xmlns:inkscape="http://www.inkscape.org/namespaces/inkscape"
   viewBox="0 0 96 96"
   height="96"
   width="96"
   id="svg2310"
   version="1.1"
   inkscape:version="0.91 r13725"
   sodipodi:docname="calligrakrita.svg">
  <metadata
     id="metadata2384">
    <rdf:RDF>
      <cc:Work
         rdf:about="">
        <dc:format>image/svg+xml</dc:format>
        <dc:type
           rdf:resource="http://purl.org/dc/dcmitype/StillImage" />
      </cc:Work>
    </rdf:RDF>
  </metadata>
  <sodipodi:namedview
     pagecolor="#ffffff"
     bordercolor="#666666"
     borderopacity="1"
     objecttolerance="10"
     gridtolerance="10"
     guidetolerance="10"
     inkscape:pageopacity="0"
     inkscape:pageshadow="2"
     inkscape:window-width="640"
     inkscape:window-height="480"
     id="namedview2382"
     showgrid="false"
     inkscape:zoom="2.4583333"
     inkscape:cx="48"
     inkscape:cy="48"
     inkscape:current-layer="svg2310" />
  <defs
     id="defs2312">
    <clipPath
       id="clipPath-197081184">
      <rect
         x="1"
         rx="4"
         y="1005.36"
         height="46"
         width="46"
         transform="matrix(1 0 0 1 0 -1004.36)"
         id="rect2315" />
    </clipPath>
    <linearGradient
       x1="9.242"
       x2="4.879"
       y1="1.378"
       y2="12.973"
       gradientUnits="userSpaceOnUse"
       id="linear0"
       gradientTransform="matrix(3.54331 0 0 3.54331 0 0)">
      <stop
         stop-color="#c862c0"
         stop-opacity="1"
         id="stop2318" />
      <stop
         stop-color="#8edbce"
         stop-opacity="1"
         offset="1"
         id="stop2320" />
    </linearGradient>
    <linearGradient
       x1="13.435"
       x2="5.794"
       y1="13.349"
       y2="4.906"
       gradientUnits="userSpaceOnUse"
       id="linear1"
       gradientTransform="matrix(3.54331 0 0 3.54331 0 0)">
      <stop
         stop-color="#dbe34a"
         stop-opacity="1"
         id="stop2323" />
      <stop
         stop-color="#8edbce"
         stop-opacity="0"
         offset="1"
         id="stop2325" />
    </linearGradient>
    <linearGradient
       x1="-22.764"
       x2="-40.638"
       y1="59.63"
       y2="18.26"
       gradientUnits="userSpaceOnUse"
       id="linear2"
       gradientTransform="matrix(0.7707 0 0 0.74286 51.993 9.374)">
      <stop
         stop-color="#868ecf"
         stop-opacity="1"
         id="stop2328" />
      <stop
         stop-color="#2f5fcd"
         stop-opacity="0"
         offset="1"
         id="stop2330" />
    </linearGradient>
    <rect
       height="48"
       id="SVGCleanerId_0"
       width="48" />
    <clipPath
       id="clipPath3613-86">
      <rect
         x="6"
         rx="6"
         y="6"
         height="84"
         width="84"
         id="rect2334" />
    </clipPath>
    <filter
       x="-0.192"
       y="-0.192"
       height="1.384"
       color-interpolation-filters="sRGB"
       id="filter3794-1"
       width="1.384">
      <feGaussianBlur
         stdDeviation="5.28"
         id="feGaussianBlur2337" />
    </filter>
    <linearGradient
       x2="0"
       y1="90"
       y2="5.988"
       gradientUnits="userSpaceOnUse"
       id="linearGradient3403"
       inkscape:collect="always"
       gradientTransform="matrix(1.08 0 0 1.08 -3.952 -3.963)">
      <stop
         stop-color="#672178"
         id="stop2340" />
      <stop
         stop-color="#ad77bb"
         offset="1"
         id="stop2342" />
    </linearGradient>
    <clipPath
       clipPathUnits="userSpaceOnUse"
       id="clipPath3413">
      <path
         d="m 7.4963988,0.99778573 c -3.6050973,0 -6.49644836,2.91525167 -6.49644836,6.51862527 L 1.000059,40.496452 c 0,3.603265 2.8912425,6.501333 6.4964484,6.501333 H 40.503611 c 3.605097,0 6.496448,-2.898068 6.496448,-6.501333 V 7.516411 c 0,-3.6032655 -2.891351,-6.51862527 -6.496448,-6.51862527 L 7.4965074,0.99789381 z"
         inkscape:connector-curvature="0"
         id="path2345" />
    </clipPath>
    <linearGradient
       x2="0"
       y1="20.221"
       y2="138.66"
       gradientUnits="userSpaceOnUse"
       id="linearGradient3423"
       inkscape:collect="always">
      <stop
         stop-color="#fff"
         id="stop2348" />
      <stop
         stop-color="#fff"
         stop-opacity="0"
         offset="1"
         id="stop2350" />
    </linearGradient>
    <linearGradient
       inkscape:collect="always"
       xlink:href="#linearGradient14231"
       id="linearGradient14237"
       x1="50.707542"
       y1="81.682442"
       x2="50.707542"
       y2="96.539803"
       gradientUnits="userSpaceOnUse" />
    <linearGradient
       inkscape:collect="always"
       id="linearGradient14231">
      <stop
         style="stop-color:#000000;stop-opacity:1;"
         offset="0"
         id="stop14233" />
      <stop
         style="stop-color:#000000;stop-opacity:0;"
         offset="1"
         id="stop14235" />
    </linearGradient>
    <linearGradient
       inkscape:collect="always"
       xlink:href="#linearGradient14239"
       id="linearGradient14245"
       x1="49.876652"
       y1="87.937508"
       x2="49.876652"
       y2="76.719681"
       gradientUnits="userSpaceOnUse" />
    <linearGradient
       inkscape:collect="always"
       id="linearGradient14239">
      <stop
         style="stop-color:#ffffff;stop-opacity:1;"
         offset="0"
         id="stop14241" />
      <stop
         style="stop-color:#ffffff;stop-opacity:0;"
         offset="1"
         id="stop14243" />
    </linearGradient>
  </defs>
  <rect
     x="3.188"
     rx="12.724"
     y="3.01"
     fill-opacity="0.02"
     height="89.98"
     width="89.62"
     id="rect2352" />
  <rect
     x="3.794"
     rx="12.552"
     y="3.621"
     fill-opacity="0.039"
     height="88.76"
     width="88.41"
     id="rect2354" />
  <rect
     x="4.399"
     rx="12.38"
     y="4.231"
     fill-opacity="0.078"
     height="87.55"
     width="87.2"
     id="rect2356" />
  <rect
     x="5"
     rx="12.208"
     y="4.841"
     fill-opacity="0.157"
     height="86.33"
     width="85.991"
     id="rect2358" />
  <path
     d="m 17.5846,5.427226 c -6.642,0 -11.969,5.3948 -11.969,12.063 l 2e-4,61.031 c 0,6.668 5.3268,12.031 11.969,12.031 h 60.812 c 6.642,0 11.969,-5.363 11.969,-12.031 v -61.031 c 0,-6.668 -5.327,-12.063 -11.969,-12.063 l -60.812,2e-4 z"
     fill="url(#linearGradient3403)"
     inkscape:connector-curvature="0"
     id="path2360" />
  <rect
     x="15"
     rx="12"
     y="15"
     clip-path="url(#clipPath3613-86)"
     height="66"
     width="66"
     transform="matrix(1 0 0 1 0.063 -2.069)"
     id="rect2380"
     filter="url(#filter3794-1)"
     stroke-linecap="round"
     stroke-width="0.5"
     stroke="white"
     fill="url(#linearGradient3423)"
     opacity="0.1" />
  <g
     clip-path="url(#clipPath3413)"
     transform="matrix(1.84239 0 0 1.85054 3.783 3.591)"
     id="g2362">
    <g
       clip-path="url(#clipPath-197081184)"
       id="g2364">
      <g
         transform="matrix(1 0 0 1 0 -1)"
         id="g2366">
        <use
           xlink:href="#SVGCleanerId_0"
           height="48"
           width="48"
           id="use2368"
           stroke="none"
           fill="url(#linear0)" />
        <use
           xlink:href="#SVGCleanerId_0"
           height="48"
           width="48"
           id="use2370"
           stroke="none"
           fill="url(#linear1)" />
        <path
           d="m 5.906,22.973 c 0,0 6.582,13.445 16.461,15.258 9.875,1.816 15.05,-2.414 13.637,-6.645 -1.41,-4.23 -8.777,-8.16 -13.324,-4.531 -4.547,3.625 -4.699,2.566 -8.148,1.207 -3.449,-1.359 -5.645,-8.16 -5.645,-8.16 0,0 -2.195,-5.137 -3.918,-2.871 -1.727,2.27 0.938,5.742 0.938,5.742 m 0,0"
           inkscape:connector-curvature="0"
           id="path2372"
           stroke="none"
           fill-rule="nonzero"
           fill="url(#linear2)" />
        <path
           d="m 15.13,13.06 c -0.379,0.027 -0.926,0.266 -1.719,0.938 -1.508,0.863 -1.02,2.074 -0.656,2.656 0.262,-0.395 0.727,-0.93 1.5,-1.656 0.715,-0.668 1.402,-0.977 1.969,-1.145 L 15.911,13.447 C 15.739,13.228 15.513,13.052 15.13,13.072 m 1.625,1.465 c -0.574,0.148 -1.301,0.414 -2.031,0.98 -0.898,0.688 -1.289,1.301 -1.469,1.723 l 5.188,4.375 c 0.215,-0.418 0.492,-0.844 0.875,-1.25 0.418,-0.438 0.82,-0.727 1.191,-0.973 l -3.75,-4.855 m 8.84,4.816 c -0.297,0 -0.609,0.012 -0.906,0.02 -1.387,0.078 -2.66,0.332 -3.625,0.625 -0.016,0.023 -0.043,-0.012 -0.063,0 -0.25,0.191 -0.551,0.48 -1,0.941 -0.41,0.418 -0.703,0.809 -0.906,1.191 -0.008,0.023 -0.02,0.063 -0.031,0.094 -1.086,2.926 0.207,7.855 4.969,9 5.398,1.293 5.691,-0.105 8,1.438 2.324,1.539 1.023,3.871 2.125,3.23 0.566,-0.328 2.359,-2.781 1.691,-6.781 -0.723,-4.285 -2.605,-6.563 -4.5,-8.125 -1.469,-1.211 -3.648,-1.625 -5.75,-1.625 m -0.004,0"
           inkscape:connector-curvature="0"
           id="path2374"
           stroke="none"
           fill-rule="nonzero"
           fill-opacity="1"
           fill="#ececec" />
      </g>
    </g>
  </g>
  <g
     id="g14291">
    <path
       d="m 5.2922679,73.685059 0,5.0663 c 0,6.668 5.3645011,12.032 12.0320011,12.032 l 61.049,0 c 6.668,0 12.032,-5.3645 12.032,-12.032 l 0,-5.0663 c 0,6.6681 -5.3645,12.032 -12.032,12.032 l -61.049,0 c -6.668,0 -12.0320011,-5.3643 -12.0320011,-12.032 z"
       id="path64"
       inkscape:connector-curvature="0"
       style="opacity:0.4;fill:url(#linearGradient14237);fill-opacity:1" />
    <path
       inkscape:connector-curvature="0"
       id="path14214"
       d="m 5.2929688,72.717592 0,1.15039 c 0,6.667718 5.3632502,12.031248 12.0312502,12.031248 l 61.048828,0 c 6.6675,0 12.03125,-5.36313 12.03125,-12.031248 l 0,-1.15039 c 0,6.668098 -5.36375,12.031248 -12.03125,12.031248 l -61.048828,0 c -6.668,0 -12.0312502,-5.36355 -12.0312502,-12.031248 z"
       style="opacity:0.5;fill:url(#linearGradient14245);fill-opacity:1" />
  </g>
</svg>
