<?xml version="1.0" encoding="UTF-8" standalone="no"?>
<svg
   xmlns:dc="http://purl.org/dc/elements/1.1/"
   xmlns:cc="http://creativecommons.org/ns#"
   xmlns:rdf="http://www.w3.org/1999/02/22-rdf-syntax-ns#"
   xmlns:svg="http://www.w3.org/2000/svg"
   xmlns="http://www.w3.org/2000/svg"
   xmlns:xlink="http://www.w3.org/1999/xlink"
   xmlns:sodipodi="http://sodipodi.sourceforge.net/DTD/sodipodi-0.dtd"
   xmlns:inkscape="http://www.inkscape.org/namespaces/inkscape"
   height="96"
   width="96"
   id="svg2"
   version="1.1"
   inkscape:version="0.91 r13725"
   sodipodi:docname="ccc_large.svg">
  <metadata
     id="metadata39">
    <rdf:RDF>
      <cc:Work
         rdf:about="">
        <dc:format>image/svg+xml</dc:format>
        <dc:type
           rdf:resource="http://purl.org/dc/dcmitype/StillImage" />
      </cc:Work>
    </rdf:RDF>
  </metadata>
  <sodipodi:namedview
     pagecolor="#ffffff"
     bordercolor="#666666"
     borderopacity="1"
     objecttolerance="10"
     gridtolerance="10"
     guidetolerance="10"
     inkscape:pageopacity="0"
     inkscape:pageshadow="2"
     inkscape:window-width="640"
     inkscape:window-height="480"
     id="namedview37"
     showgrid="false"
     inkscape:zoom="2.4583333"
     inkscape:cx="48"
     inkscape:cy="48"
     inkscape:current-layer="svg2" />
  <defs
     id="defs4">
    <linearGradient
       inkscape:collect="always"
       id="linearGradient11642">
      <stop
         style="stop-color:#1a1a1a;stop-opacity:1;"
         offset="0"
         id="stop11644" />
      <stop
         style="stop-color:#474747;stop-opacity:1"
         offset="1"
         id="stop11646" />
    </linearGradient>
    <linearGradient
       x2="0"
       y1="90"
       y2="5.988"
       gradientUnits="userSpaceOnUse"
       id="linearGradient5819"
       gradientTransform="matrix(1.0714,0,0,1.0625,-3.171,-3.37)">
      <stop
         stop-color="#e70000"
         id="stop7" />
      <stop
         stop-color="#f22"
         offset="1"
         id="stop9" />
    </linearGradient>
    <linearGradient
       inkscape:collect="always"
       xlink:href="#linearGradient14231"
       id="linearGradient14237"
       x1="50.707542"
       y1="81.682442"
       x2="50.707542"
       y2="96.539803"
       gradientUnits="userSpaceOnUse" />
    <linearGradient
       inkscape:collect="always"
       id="linearGradient14231">
      <stop
         style="stop-color:#000000;stop-opacity:1;"
         offset="0"
         id="stop14233" />
      <stop
         style="stop-color:#000000;stop-opacity:0;"
         offset="1"
         id="stop14235" />
    </linearGradient>
    <linearGradient
       inkscape:collect="always"
       xlink:href="#linearGradient14239"
       id="linearGradient14245"
       x1="49.876652"
       y1="87.937508"
       x2="49.876652"
       y2="76.719681"
       gradientUnits="userSpaceOnUse" />
    <linearGradient
       inkscape:collect="always"
       id="linearGradient14239">
      <stop
         style="stop-color:#ffffff;stop-opacity:1;"
         offset="0"
         id="stop14241" />
      <stop
         style="stop-color:#ffffff;stop-opacity:0;"
         offset="1"
         id="stop14243" />
    </linearGradient>
    <linearGradient
       inkscape:collect="always"
       xlink:href="#linearGradient11642"
       id="linearGradient11648"
       x1="46.528645"
       y1="88.967331"
       x2="46.528645"
       y2="62.933437"
       gradientUnits="userSpaceOnUse" />
  </defs>
  <rect
     style="fill-opacity:0.02000002"
     id="rect13"
     width="89.980003"
     height="89.980003"
     y="2.9899757"
     rx="12.724"
     x="3" />
  <rect
     style="fill-opacity:0.03900003"
     id="rect15"
     width="88.760002"
     height="88.760002"
     y="3.6000221"
     rx="12.552"
     x="3.608" />
  <rect
     style="fill-opacity:0.078"
     id="rect17"
     width="87.550003"
     height="87.550003"
     y="4.2100072"
     rx="12.38"
     x="4.2160001" />
  <rect
     style="fill-opacity:0.15700001"
     id="rect19"
     width="86.330002"
     height="86.330002"
     y="4.8199925"
     rx="12.208"
     x="4.8239999" />
  <path
     style="fill:#f2f2f2"
     inkscape:connector-curvature="0"
     id="path21"
     d="m 17.469,5.4062 c -6.668,0 -12.032,5.3948 -12.032,12.063 l 5e-4,61.031 c 0,6.668 5.3635,12.031 12.032,12.031 l 61.03,0 c 6.668,0 12.031,-5.363 12.031,-12.031 l 0,-61.031 c 0,-6.668 -5.363,-12.063 -12.031,-12.063 l -61.031,2e-4 z" />
  <path
     inkscape:connector-curvature="0"
     style="fill:url(#linearGradient5819)"
     id="path23"
     d="m 17.476,5.41 c -6.668,0 -12.031,5.3945 -12.031,12.062 l 0,61.03 c 0,6.6679 5.3632,12.031 12.031,12.031 l 61.031,0 c 6.668,0 12.031,-5.3633 12.031,-12.031 l 0,-61.03 C 90.538,10.804 85.1747,5.41 78.507,5.41 l -61.031,0 z" />
  <path
     style="color:#000000;fill:url(#linearGradient11648);fill-opacity:1"
     inkscape:connector-curvature="0"
     id="path25"
     d="m 5.4449,65.04678 0,13.844 c 0,6.6679 5.3632,12.031 12.031,12.031 l 61.031,0 c 6.668,0 12.031,-5.3633 12.031,-12.031 l 0,-13.844 -85.094,0 z" />
  <path
     style="color:#000000;opacity:0.2"
     inkscape:connector-curvature="0"
     id="path27"
     d="m 41.904,20.86 c -0.76685,0 -1.5215,0.2156 -2.1875,0.6563 -0.23453,0.1523 -0.45938,0.3031 -0.65625,0.5 l -23.969,23.999 c -1.567,1.5669 -1.567,4.0894 0,5.6563 1.567,1.5668 4.0893,1.5668 5.6562,0 l 17.156,-17.124 0,14.311 c 0,2.2161 1.784,4.0001 4,4.0001 2.216,0 4,-1.784 4,-4.0001 l 0,-23.999 c 0,-0.2781 -0.0358,-0.5392 -0.0937,-0.8125 -0.0484,-0.2379 -0.0991,-0.4672 -0.1875,-0.6875 -0.19587,-0.4814 -0.48326,-0.952 -0.875,-1.3437 -0.37427,-0.3743 -0.82395,-0.6483 -1.2812,-0.8438 -0.23944,-0.1009 -0.48914,-0.1656 -0.75,-0.2187 -0.2733,-0.058 -0.53438,-0.094 -0.8125,-0.094 z m 10,0 c -2.216,0 -4,1.784 -4,4 0,2.216 1.784,4 4,4 l 4,0 0,19.999 c 0,2.2161 1.784,4.0001 4,4.0001 2.216,0 4,-1.784 4,-4.0001 l 0,-19.999 4,0 c 2.216,0 4,-1.784 4,-4 0,-2.216 -1.784,-4 -4,-4 l -8,0 -8,0 z m 26,0 c -2.216,0 -4,1.784 -4,4 l 0,23.999 c 0,2.2161 1.784,4.0001 4,4.0001 2.216,0 4,-1.784 4,-4.0001 l 0,-23.999 c 0,-2.216 -1.784,-4 -4,-4 z m 0,1 c 1.6569,0 3,1.3432 3,3 0,1.6569 -1.3431,3 -3,3 -1.6568,0 -3,-1.3431 -3,-3 0,-1.6568 1.3432,-3 3,-3 z m -44,19 c -1.6568,0 -3,1.3432 -3,2.9994 0,1.6564 1.3432,2.9995 3,2.9995 1.6569,0 3,-1.3431 3,-2.9995 0,-1.6562 -1.3431,-2.9994 -3,-2.9994 z" />
  <rect
     style="color:#000000;opacity:0.2"
     id="rect29"
     width="84.958"
     height="2.0610001"
     y="63.639999"
     x="5.4759998" />
  <path
     style="color:#000000;fill:#ffffff"
     inkscape:connector-curvature="0"
     id="path31"
     d="m 41.904,19.86 c -0.76685,0 -1.5215,0.2156 -2.1875,0.6563 -0.23453,0.1523 -0.45938,0.3031 -0.65625,0.5 l -23.969,23.999 c -1.567,1.5669 -1.567,4.0894 0,5.6563 1.567,1.5668 4.0893,1.5668 5.6562,0 l 17.156,-17.124 0,14.311 c 0,2.2161 1.784,4.0001 4,4.0001 2.216,0 4,-1.784 4,-4.0001 l 0,-23.999 c 0,-0.2781 -0.0358,-0.5392 -0.0937,-0.8125 -0.0484,-0.2379 -0.0991,-0.4672 -0.1875,-0.6875 -0.19587,-0.4814 -0.48326,-0.952 -0.875,-1.3437 -0.37427,-0.3743 -0.82395,-0.6483 -1.2812,-0.8438 -0.23944,-0.1009 -0.48914,-0.1656 -0.75,-0.2187 -0.2733,-0.058 -0.53438,-0.094 -0.8125,-0.094 z m 10,0 c -2.216,0 -4,1.784 -4,4 0,2.216 1.784,4 4,4 l 4,0 0,19.999 c 0,2.2161 1.784,4.0001 4,4.0001 2.216,0 4,-1.784 4,-4.0001 l 0,-19.999 4,0 c 2.216,0 4,-1.784 4,-4 0,-2.216 -1.784,-4 -4,-4 l -8,0 -8,0 z m 26,0 c -2.216,0 -4,1.784 -4,4 l 0,23.999 c 0,2.2161 1.784,4.0001 4,4.0001 2.216,0 4,-1.784 4,-4.0001 l 0,-23.999 c 0,-2.216 -1.784,-4 -4,-4 z m 0,1 c 1.6569,0 3,1.3432 3,3 0,1.6569 -1.3431,3 -3,3 -1.6568,0 -3,-1.3431 -3,-3 0,-1.6568 1.3432,-3 3,-3 z m -44,19 c -1.6568,0 -3,1.3432 -3,3 0,1.6558 1.3432,2.9989 3,2.9989 1.6569,0 3,-1.3431 3,-2.9989 0,-1.6568 -1.3431,-3 -3,-3 z" />
  <path
     style="fill-opacity:0.09800002"
     inkscape:connector-curvature="0"
     id="path35"
     d="m 5.4316,77.54 0,1.0133 c 0,6.668 5.3645,12.032 12.032,12.032 l 61.049,0 c 6.668,0 12.032,-5.3645 12.032,-12.032 l 0,-1.0133 c 0,6.6681 -5.3645,12.032 -12.032,12.032 l -61.049,0 c -6.668,0 -12.032,-5.3644 -12.032,-12.032 z" />
  <g
     id="g14291">
    <path
       d="m 5.2922679,73.685059 0,5.0663 c 0,6.668 5.3645011,12.032 12.0320011,12.032 l 61.049,0 c 6.668,0 12.032,-5.3645 12.032,-12.032 l 0,-5.0663 c 0,6.6681 -5.3645,12.032 -12.032,12.032 l -61.049,0 c -6.668,0 -12.0320011,-5.3643 -12.0320011,-12.032 z"
       id="path64"
       inkscape:connector-curvature="0"
       style="opacity:0.4;fill:url(#linearGradient14237);fill-opacity:1" />
    <path
       inkscape:connector-curvature="0"
       id="path14214"
       d="m 5.2929688,72.717592 0,1.15039 c 0,6.667718 5.3632502,12.031248 12.0312502,12.031248 l 61.048828,0 c 6.6675,0 12.03125,-5.36313 12.03125,-12.031248 l 0,-1.15039 c 0,6.668098 -5.36375,12.031248 -12.03125,12.031248 l -61.048828,0 c -6.668,0 -12.0312502,-5.36355 -12.0312502,-12.031248 z"
       style="opacity:0.5;fill:url(#linearGradient14245);fill-opacity:1" />
  </g>
</svg>
