<svg height="96" width="96" xmlns="http://www.w3.org/2000/svg" xmlns:xlink="http://www.w3.org/1999/xlink" xmlns:sodipodi="http://sodipodi.sourceforge.net/DTD/sodipodi-0.dtd" xmlns:inkscape="http://www.inkscape.org/namespaces/inkscape">
 <defs>
  <linearGradient x2="0" y1="90" y2="5.988" gradientUnits="userSpaceOnUse" id="linearGradient3131" gradientTransform="matrix(1.0536 0 0 1.0655 -2.321 -3.174)">
   <stop stop-color="#037ac0"/>
   <stop stop-color="#7edafe" offset="1"/>
  </linearGradient>
  <linearGradient x2="0" y1="13.928" y2="115.21" gradientUnits="userSpaceOnUse" id="linearGradient3060-7" gradientTransform="matrix(0.67066 0 0 0.73298 14.433 958.86)">
   <stop stop-color="#fff"/>
   <stop stop-color="#dcdcdc" offset="1"/>
  </linearGradient>
  <linearGradient x1="22.406" x2="57.689" y1="36.601" y2="103.03" gradientUnits="userSpaceOnUse" id="linearGradient3063-5" gradientTransform="matrix(1 0 0 1.0929 1.331 928.77)">
   <stop stop-color="#0b70aa"/>
   <stop stop-color="#0b70aa" stop-opacity="0" offset="1"/>
  </linearGradient>
  <path d="m17.469 5.4062c-6.668 0-12.032 5.3948-12.032 12.063l0.0005 61.031c0 6.668 5.3635 12.031 12.032 12.031h61.03c6.668 0 12.031-5.363 12.031-12.031v-61.031c0-6.668-5.363-12.063-12.031-12.063l-61.031 0.0002z" id="SVGCleanerId_0"/>
 </defs>
 <g transform="matrix(1 0 0 1 0 -956.36)">
  <rect x="3" rx="12.724" y="959.35" fill-opacity="0.02" height="89.98" width="89.98"/>
  <rect x="3.608" rx="12.552" y="959.96" fill-opacity="0.039" height="88.76" width="88.76"/>
  <rect x="4.216" rx="12.38" y="960.57" fill-opacity="0.078" height="87.55" width="87.55"/>
  <rect x="4.824" rx="12.208" y="961.18" fill-opacity="0.157" height="86.33" width="86.33"/>
  <use xlink:href="#SVGCleanerId_0" fill="#f2f2f2" transform="matrix(1 0 0 1 0 956.36)"/>
  <use xlink:href="#SVGCleanerId_0" fill="url(#linearGradient3131)" transform="matrix(1 0 0 1 0 956.36)"/>
  <path d="m24.893 966.99c-1.2029 0.17303-2.045 1.1674-2.375 2.1517-0.31817 0.94904-0.32298 1.8984-0.25 2.7323 0.000039 0.0341-0.000039 0.0683 0 0.10241 0.02046 18.05-0.04153 36.132 0.03125 54.168a0.96409 1.0537 0 0 0 0 0.1708c0.39765 2.905 4.1189 3.6373 5.5312 1.2295l0.03125 0.034 9.9062-12.979c4.5749 11.288 9.0943 22.614 13.719 33.881a0.96409 1.0537 0 0 0 0.0937 0.1707c0.77153 1.1946 2.0305 1.5023 3.0312 1.5028s1.911-0.17 2.5-0.1028a0.96409 1.0537 0 0 0 0.125 0c4.842-0.1536 9.7169-0.1629 14.594-0.4098a0.96409 1.0537 0 0 0 0.25 -0.034c1.1868-0.3946 1.9077-1.5471 2.0625-2.6981 0.14545-1.0813-0.14907-2.2346-0.90625-3.0738l-0.125-0.1709-23.031-36.51c5.6875 0.028 11.411 0.1787 17.125 0.069a0.96409 1.0537 0 0 0 0.1875 -0.034c2.6442-0.631 3.0338-4.6935 0.78125-6.1135l0.0313-0.034c-13.783-11.179-27.522-22.444-41.344-33.573-0.67904-0.51502-1.414-0.49333-1.875-0.47815a0.96409 1.0537 0 0 0 -0.09375 0z" fill="url(#linearGradient3063-5)" fill-rule="evenodd" opacity="0.1"/>
  <path d="m25.018 968.04c-1.7319 0.24912-1.9252 2.3062-1.7812 3.8177 0.02082 18.088-0.04164 36.214 0.03125 54.278 0.2768 2.0223 2.9537 2.5397 3.854 0.7585 3.632-4.7611 7.264-9.5223 10.896-14.283 4.7896 11.8 9.5122 23.646 14.344 35.418 1.1141 1.7249 3.2435 0.7668 4.8518 0.9511 4.8595-0.1542 9.7375-0.1595 14.586-0.405 1.6388-0.545 1.8629-2.9526 0.65626-4.1269l-24.219-38.36c6.3104 0 12.637 0.1901 18.938 0.069 1.8318-0.4371 2.0652-3.3651 0.4631-4.2636-13.786-11.182-27.521-22.454-41.338-33.579-0.3811-0.28904-0.83862-0.2877-1.2812-0.27312z" fill="url(#linearGradient3063-5)" fill-rule="evenodd" opacity="0.15"/>
  <path d="m25.268 969.21a0.9922 1.0844 0 0 0 -0.9375 1.0929v55.466a0.9922 1.0844 0 0 0 1.75 0.6831l12.25-16.052 14.875 36.852a0.9922 1.0844 0 0 0 0.9375 0.6488l17.062-0.4098a0.9922 1.0844 0 0 0 0.78125 -1.7077l-25.812-40.916 20.5 0.1708a0.9922 1.0844 0 0 0 0.59375 -1.9468l-41.342-33.76a0.9922 1.0844 0 0 0 -0.65625 -0.23907z" fill="url(#linearGradient3063-5)" fill-rule="evenodd" opacity="0.3"/>
  <path d="m71.176 1046.4-26.894-42.67 22.377 0.2062-41.329-33.626v55.454l13.266-17.385 15.509 38.436 17.07-0.4143z" fill="url(#linearGradient3060-7)" fill-rule="evenodd"/>
  <path d="m5.4316 1029.8v5.0663c0 6.668 5.3645 12.032 12.032 12.032h61.049c6.668 0 12.032-5.3645 12.032-12.032v-5.0663c0 6.6681-5.3645 12.032-12.032 12.032h-61.049c-6.668 0-12.032-5.3643-12.032-12.032z" fill-opacity="0.118"/>
  <path d="m5.4316 1033.9v1.0133c0 6.668 5.3645 12.032 12.032 12.032h61.049c6.668 0 12.032-5.3645 12.032-12.032v-1.0133c0 6.6681-5.3645 12.032-12.032 12.032h-61.049c-6.668 0-12.032-5.3644-12.032-12.032z" fill-opacity="0.098"/>
 </g>
</svg>
