<?xml version="1.0" encoding="UTF-8" standalone="no"?>
<svg
   xmlns:dc="http://purl.org/dc/elements/1.1/"
   xmlns:cc="http://creativecommons.org/ns#"
   xmlns:rdf="http://www.w3.org/1999/02/22-rdf-syntax-ns#"
   xmlns:svg="http://www.w3.org/2000/svg"
   xmlns="http://www.w3.org/2000/svg"
   xmlns:xlink="http://www.w3.org/1999/xlink"
   xmlns:sodipodi="http://sodipodi.sourceforge.net/DTD/sodipodi-0.dtd"
   xmlns:inkscape="http://www.inkscape.org/namespaces/inkscape"
   height="96"
   width="96"
   id="svg41"
   version="1.1"
   inkscape:version="0.91 r13725"
   sodipodi:docname="ccsm.svg">
  <metadata
     id="metadata89">
    <rdf:RDF>
      <cc:Work
         rdf:about="">
        <dc:format>image/svg+xml</dc:format>
        <dc:type
           rdf:resource="http://purl.org/dc/dcmitype/StillImage" />
      </cc:Work>
    </rdf:RDF>
  </metadata>
  <sodipodi:namedview
     pagecolor="#ffffff"
     bordercolor="#666666"
     borderopacity="1"
     objecttolerance="10"
     gridtolerance="10"
     guidetolerance="10"
     inkscape:pageopacity="0"
     inkscape:pageshadow="2"
     inkscape:window-width="640"
     inkscape:window-height="480"
     id="namedview87"
     showgrid="false"
     inkscape:zoom="2.4583333"
     inkscape:cx="48"
     inkscape:cy="48"
     inkscape:current-layer="svg41" />
  <defs
     id="defs43">
    <linearGradient
       x2="0"
       y1="90"
       y2="5.988"
       gradientUnits="userSpaceOnUse"
       id="linearGradient3131"
       gradientTransform="matrix(1.0536,0,0,1.0655,-2.321,-3.174)">
      <stop
         stop-color="#037ac0"
         id="stop46" />
      <stop
         stop-color="#7edafe"
         offset="1"
         id="stop48" />
    </linearGradient>
    <linearGradient
       x2="0"
       y1="13.928"
       y2="115.21"
       gradientUnits="userSpaceOnUse"
       id="linearGradient3060-7"
       gradientTransform="matrix(0.67066,0,0,0.73298,14.433,2.5)">
      <stop
         stop-color="#fff"
         id="stop51" />
      <stop
         stop-color="#dcdcdc"
         offset="1"
         id="stop53" />
    </linearGradient>
    <linearGradient
       x1="22.406"
       x2="57.689"
       y1="36.601"
       y2="103.03"
       gradientUnits="userSpaceOnUse"
       id="linearGradient3063-5"
       gradientTransform="matrix(1 0 0 1.0929 1.331 928.77)">
      <stop
         stop-color="#0b70aa"
         id="stop56" />
      <stop
         stop-color="#0b70aa"
         stop-opacity="0"
         offset="1"
         id="stop58" />
    </linearGradient>
    <path
       d="m17.469 5.4062c-6.668 0-12.032 5.3948-12.032 12.063l0.0005 61.031c0 6.668 5.3635 12.031 12.032 12.031h61.03c6.668 0 12.031-5.363 12.031-12.031v-61.031c0-6.668-5.363-12.063-12.031-12.063l-61.031 0.0002z"
       id="SVGCleanerId_0" />
    <linearGradient
       inkscape:collect="always"
       xlink:href="#linearGradient3063-5"
       id="linearGradient10760"
       gradientUnits="userSpaceOnUse"
       gradientTransform="matrix(1,0,0,1.0929,1.331,-27.59)"
       x1="22.406"
       y1="36.601"
       x2="57.689"
       y2="103.03" />
    <linearGradient
       inkscape:collect="always"
       xlink:href="#linearGradient3063-5"
       id="linearGradient10762"
       gradientUnits="userSpaceOnUse"
       gradientTransform="matrix(1,0,0,1.0929,1.331,-27.59)"
       x1="22.406"
       y1="36.601"
       x2="57.689"
       y2="103.03" />
    <linearGradient
       inkscape:collect="always"
       xlink:href="#linearGradient3063-5"
       id="linearGradient10764"
       gradientUnits="userSpaceOnUse"
       gradientTransform="matrix(1,0,0,1.0929,1.331,-27.59)"
       x1="22.406"
       y1="36.601"
       x2="57.689"
       y2="103.03" />
    <linearGradient
       inkscape:collect="always"
       xlink:href="#linearGradient14231"
       id="linearGradient14237"
       x1="50.707542"
       y1="81.682442"
       x2="50.707542"
       y2="96.539803"
       gradientUnits="userSpaceOnUse" />
    <linearGradient
       inkscape:collect="always"
       id="linearGradient14231">
      <stop
         style="stop-color:#000000;stop-opacity:1;"
         offset="0"
         id="stop14233" />
      <stop
         style="stop-color:#000000;stop-opacity:0;"
         offset="1"
         id="stop14235" />
    </linearGradient>
    <linearGradient
       inkscape:collect="always"
       xlink:href="#linearGradient14239"
       id="linearGradient14245"
       x1="49.876652"
       y1="87.937508"
       x2="49.876652"
       y2="76.719681"
       gradientUnits="userSpaceOnUse" />
    <linearGradient
       inkscape:collect="always"
       id="linearGradient14239">
      <stop
         style="stop-color:#ffffff;stop-opacity:1;"
         offset="0"
         id="stop14241" />
      <stop
         style="stop-color:#ffffff;stop-opacity:0;"
         offset="1"
         id="stop14243" />
    </linearGradient>
  </defs>
  <rect
     style="fill-opacity:0.02000002"
     id="rect63"
     width="89.980003"
     height="89.980003"
     y="2.9899757"
     rx="12.724"
     x="3" />
  <rect
     style="fill-opacity:0.03900003"
     id="rect65"
     width="88.760002"
     height="88.760002"
     y="3.6000221"
     rx="12.552"
     x="3.608" />
  <rect
     style="fill-opacity:0.078"
     id="rect67"
     width="87.550003"
     height="87.550003"
     y="4.2100072"
     rx="12.38"
     x="4.2160001" />
  <rect
     style="fill-opacity:0.15700001"
     id="rect69"
     width="86.330002"
     height="86.330002"
     y="4.8199925"
     rx="12.208"
     x="4.8239999" />
  <use
     height="100%"
     width="100%"
     y="0"
     x="0"
     style="fill:#f2f2f2"
     id="use71"
     xlink:href="#SVGCleanerId_0" />
  <use
     height="100%"
     width="100%"
     y="0"
     x="0"
     style="fill:url(#linearGradient3131)"
     id="use73"
     xlink:href="#SVGCleanerId_0" />
  <path
     inkscape:connector-curvature="0"
     style="opacity:0.1;fill:url(#linearGradient10760);fill-rule:evenodd"
     id="path75"
     d="m 24.893,10.63 c -1.2029,0.17303 -2.045,1.1674 -2.375,2.1517 -0.31817,0.94904 -0.32298,1.8984 -0.25,2.7323 3.9e-5,0.0341 -3.9e-5,0.0683 0,0.10241 0.02046,18.05 -0.04153,36.13199 0.03125,54.16799 a 0.96409,1.0537 0 0 0 0,0.1708 c 0.39765,2.905 4.1189,3.6373 5.5312,1.2295 l 0.03125,0.034 9.9062,-12.979 c 4.5749,11.288 9.0943,22.614 13.719,33.881 a 0.96409,1.0537 0 0 0 0.0937,0.1707 c 0.77153,1.1946 2.0305,1.5023 3.0312,1.5028 1.0007,5e-4 1.911,-0.17 2.5,-0.1028 a 0.96409,1.0537 0 0 0 0.125,0 c 4.842,-0.1536 9.7169,-0.1629 14.594,-0.4098 a 0.96409,1.0537 0 0 0 0.25,-0.034 c 1.1868,-0.3946 1.9077,-1.5471 2.0625,-2.6981 0.14545,-1.0813 -0.14907,-2.2346 -0.90625,-3.0738 l -0.125,-0.1709 -23.031,-36.51 c 5.6875,0.028 11.411,0.1787 17.125,0.069 a 0.96409,1.0537 0 0 0 0.1875,-0.034 c 2.6442,-0.631 3.0338,-4.6935 0.78125,-6.1135 l 0.0313,-0.034 C 54.4231,33.50331 40.6841,22.23831 26.8621,11.10931 c -0.67904,-0.51502 -1.414,-0.49333 -1.875,-0.47815 a 0.96409,1.0537 0 0 0 -0.09375,0 z" />
  <path
     inkscape:connector-curvature="0"
     style="opacity:0.15;fill:url(#linearGradient10762);fill-rule:evenodd"
     id="path77"
     d="m 25.018,11.68 c -1.7319,0.24912 -1.9252,2.3062 -1.7812,3.8177 0.02082,18.088 -0.04164,36.214 0.03125,54.278 0.2768,2.0223 2.9537,2.5397 3.854,0.7585 3.632,-4.7611 7.264,-9.5223 10.896,-14.283 4.7896,11.8 9.5122,23.646 14.344,35.418 1.1141,1.7249 3.2435,0.7668 4.8518,0.9511 4.8595,-0.1542 9.7375,-0.1595 14.586,-0.405 1.6388,-0.545 1.8629,-2.9526 0.65626,-4.1269 l -24.219,-38.36 c 6.3104,0 12.637,0.1901 18.938,0.069 1.8318,-0.4371 2.0652,-3.3651 0.4631,-4.2636 -13.786,-11.182 -27.521,-22.454 -41.338,-33.579 -0.3811,-0.28904 -0.83862,-0.2877 -1.2812,-0.27312 z" />
  <path
     inkscape:connector-curvature="0"
     style="opacity:0.3;fill:url(#linearGradient10764);fill-rule:evenodd"
     id="path79"
     d="m 25.268,12.85 a 0.9922,1.0844 0 0 0 -0.9375,1.0929 l 0,55.466 a 0.9922,1.0844 0 0 0 1.75,0.6831 l 12.25,-16.052 14.875,36.852 a 0.9922,1.0844 0 0 0 0.9375,0.6488 L 71.205,91.131 a 0.9922,1.0844 0 0 0 0.78125,-1.7077 l -25.812,-40.916 20.5,0.1708 A 0.9922,1.0844 0 0 0 67.268,46.7313 l -41.342,-33.76 a 0.9922,1.0844 0 0 0 -0.65625,-0.23907 z" />
  <path
     inkscape:connector-curvature="0"
     style="fill:url(#linearGradient3060-7);fill-rule:evenodd"
     id="path81"
     d="M 71.176,90.04 44.282,47.37 66.659,47.5762 25.33,13.9502 l 0,55.454 13.266,-17.385 15.509,38.436 17.07,-0.4143 z" />
  <g
     id="g14291">
    <path
       d="m 5.2922679,73.685059 0,5.0663 c 0,6.668 5.3645011,12.032 12.0320011,12.032 l 61.049,0 c 6.668,0 12.032,-5.3645 12.032,-12.032 l 0,-5.0663 c 0,6.6681 -5.3645,12.032 -12.032,12.032 l -61.049,0 c -6.668,0 -12.0320011,-5.3643 -12.0320011,-12.032 z"
       id="path64"
       inkscape:connector-curvature="0"
       style="opacity:0.4;fill:url(#linearGradient14237);fill-opacity:1" />
    <path
       inkscape:connector-curvature="0"
       id="path14214"
       d="m 5.2929688,72.717592 0,1.15039 c 0,6.667718 5.3632502,12.031248 12.0312502,12.031248 l 61.048828,0 c 6.6675,0 12.03125,-5.36313 12.03125,-12.031248 l 0,-1.15039 c 0,6.668098 -5.36375,12.031248 -12.03125,12.031248 l -61.048828,0 c -6.668,0 -12.0312502,-5.36355 -12.0312502,-12.031248 z"
       style="opacity:0.5;fill:url(#linearGradient14245);fill-opacity:1" />
  </g>
</svg>
