<?xml version="1.0" encoding="UTF-8" standalone="no"?>
<svg
   xmlns:dc="http://purl.org/dc/elements/1.1/"
   xmlns:cc="http://creativecommons.org/ns#"
   xmlns:rdf="http://www.w3.org/1999/02/22-rdf-syntax-ns#"
   xmlns:svg="http://www.w3.org/2000/svg"
   xmlns="http://www.w3.org/2000/svg"
   xmlns:xlink="http://www.w3.org/1999/xlink"
   xmlns:sodipodi="http://sodipodi.sourceforge.net/DTD/sodipodi-0.dtd"
   xmlns:inkscape="http://www.inkscape.org/namespaces/inkscape"
   height="96"
   width="96"
   id="svg237"
   version="1.1"
   inkscape:version="0.91 r13725"
   sodipodi:docname="cheese.svg">
  <metadata
     id="metadata445">
    <rdf:RDF>
      <cc:Work
         rdf:about="">
        <dc:format>image/svg+xml</dc:format>
        <dc:type
           rdf:resource="http://purl.org/dc/dcmitype/StillImage" />
      </cc:Work>
    </rdf:RDF>
  </metadata>
  <sodipodi:namedview
     pagecolor="#ffffff"
     bordercolor="#666666"
     borderopacity="1"
     objecttolerance="10"
     gridtolerance="10"
     guidetolerance="10"
     inkscape:pageopacity="0"
     inkscape:pageshadow="2"
     inkscape:window-width="640"
     inkscape:window-height="480"
     id="namedview443"
     showgrid="false"
     inkscape:zoom="2.4583333"
     inkscape:cx="48"
     inkscape:cy="48"
     inkscape:current-layer="svg237" />
  <defs
     id="defs239">
    <linearGradient
       x2="0"
       y1="20.221"
       y2="138.66"
       gradientUnits="userSpaceOnUse"
       id="linearGradient3613-4">
      <stop
         stop-color="#fff"
         id="stop242" />
      <stop
         stop-color="#fff"
         stop-opacity="0"
         offset="1"
         id="stop244" />
    </linearGradient>
    <clipPath
       id="clipPath3613-9">
      <use
         xlink:href="#SVGCleanerId_1"
         id="use247" />
    </clipPath>
    <filter
       x="-0.192"
       y="-0.192"
       height="1.384"
       color-interpolation-filters="sRGB"
       id="filter3794-6"
       width="1.384">
      <feGaussianBlur
         stdDeviation="5.28"
         id="feGaussianBlur250" />
    </filter>
    <clipPath
       id="clipPath4165">
      <use
         xlink:href="#SVGCleanerId_1"
         id="use253" />
    </clipPath>
    <radialGradient
       cy="26.357"
       r="8.04"
       xlink:href="#linearGradient3853"
       gradientUnits="userSpaceOnUse"
       id="radialGradient4393"
       cx="24.821" />
    <linearGradient
       id="linearGradient3853">
      <stop
         stop-color="#e88d01"
         stop-opacity="0.184"
         id="stop257" />
      <stop
         stop-color="#e58907"
         stop-opacity="0.411"
         offset="0.5"
         id="stop259" />
      <stop
         stop-color="#e48a0a"
         stop-opacity="0.682"
         offset="0.75"
         id="stop261" />
      <stop
         stop-color="#e4870a"
         offset="1"
         id="stop263" />
    </linearGradient>
    <radialGradient
       cy="30.464"
       r="4.107"
       xlink:href="#linearGradient3853"
       gradientUnits="userSpaceOnUse"
       id="radialGradient4045"
       cx="43.39" />
    <radialGradient
       cy="24.64"
       r="2.143"
       xlink:href="#linearGradient3698"
       gradientUnits="userSpaceOnUse"
       id="radialGradient4047"
       cx="53.54" />
    <linearGradient
       id="linearGradient3698">
      <stop
         stop-color="#f0a801"
         stop-opacity="0.186"
         id="stop268" />
      <stop
         stop-color="#f0a801"
         stop-opacity="0.357"
         offset="0.5"
         id="stop270" />
      <stop
         stop-color="#e8a301"
         stop-opacity="0.837"
         offset="0.75"
         id="stop272" />
      <stop
         stop-color="#e09201"
         offset="1"
         id="stop274" />
    </linearGradient>
    <radialGradient
       cy="37.607"
       r="5.357"
       xlink:href="#linearGradient3698"
       gradientUnits="userSpaceOnUse"
       id="radialGradient4049"
       cx="62.68" />
    <radialGradient
       cy="62.28"
       r="6.607"
       xlink:href="#linearGradient3698"
       gradientUnits="userSpaceOnUse"
       id="radialGradient4051"
       cx="30.529" />
    <radialGradient
       cy="71.64"
       r="8.214"
       xlink:href="#linearGradient3853"
       gradientUnits="userSpaceOnUse"
       id="radialGradient4053"
       cx="65.731" />
    <radialGradient
       cy="56.43"
       r="3.393"
       xlink:href="#linearGradient3698"
       gradientUnits="userSpaceOnUse"
       id="radialGradient4055"
       cx="48.796" />
    <radialGradient
       cy="77.45"
       r="7.857"
       xlink:href="#linearGradient3853"
       gradientUnits="userSpaceOnUse"
       id="radialGradient4125"
       cx="12.211" />
    <radialGradient
       cy="87.04"
       r="4.107"
       xlink:href="#linearGradient3698"
       gradientUnits="userSpaceOnUse"
       id="radialGradient4059"
       cx="33.899" />
    <radialGradient
       cy="86.75"
       r="5.357"
       xlink:href="#linearGradient3698"
       gradientUnits="userSpaceOnUse"
       id="radialGradient4061"
       cx="50.864" />
    <radialGradient
       cy="13.679"
       r="3.571"
       xlink:href="#linearGradient3853"
       gradientUnits="userSpaceOnUse"
       id="radialGradient4063"
       cx="73.39" />
    <radialGradient
       cy="25.643"
       r="9.286"
       xlink:href="#linearGradient3698"
       gradientUnits="userSpaceOnUse"
       id="radialGradient4065"
       cx="80.71" />
    <radialGradient
       cy="79.56"
       r="2.143"
       xlink:href="#linearGradient3853"
       gradientUnits="userSpaceOnUse"
       id="radialGradient4105"
       cx="78.24" />
    <radialGradient
       cy="69.74"
       r="4.821"
       xlink:href="#linearGradient3698"
       gradientUnits="userSpaceOnUse"
       id="radialGradient4102"
       cx="82.6" />
    <radialGradient
       cy="34.28"
       r="3.214"
       xlink:href="#linearGradient3698"
       gradientUnits="userSpaceOnUse"
       id="radialGradient4121"
       cx="12.649" />
    <radialGradient
       cy="5.04"
       r="6.071"
       xlink:href="#linearGradient3698"
       gradientUnits="userSpaceOnUse"
       id="radialGradient4073"
       cx="34.688" />
    <radialGradient
       cy="17.705"
       r="7.143"
       xlink:href="#linearGradient3698"
       gradientUnits="userSpaceOnUse"
       id="radialGradient4119"
       cx="3.02"
       gradientTransform="matrix(1,0,0,0.975,0,0.378)" />
    <radialGradient
       cy="7.869"
       r="2.768"
       xlink:href="#linearGradient3698"
       gradientUnits="userSpaceOnUse"
       id="radialGradient4077"
       cx="60.24" />
    <linearGradient
       x2="0"
       y1="90"
       y2="5.988"
       gradientUnits="userSpaceOnUse"
       id="linearGradient3353"
       gradientTransform="matrix(1.0565,0,0,1.0565,-2.839,953.27)">
      <stop
         stop-color="#f0bf39"
         id="stop292" />
      <stop
         stop-color="#f8e699"
         offset="1"
         id="stop294" />
    </linearGradient>
    <clipPath
       clipPathUnits="userSpaceOnUse"
       id="clipPath9032">
      <path
         d="m17.469 961.77c-6.668 0-12.031 5.3945-12.031 12.062v61.031c0 6.668 5.3633 12.031 12.031 12.031h61.031c6.668 0 12.031-5.3633 12.031-12.031v-61.031c0-6.668-5.3633-12.062-12.031-12.062h-61.031z"
         id="path297" />
    </clipPath>
    <linearGradient
       x2="0"
       y1="14.859"
       y2="35.428"
       gradientUnits="userSpaceOnUse"
       id="linearGradient3320-7">
      <stop
         stop-color="#141414"
         id="stop300" />
      <stop
         stop-color="#333"
         offset="1"
         id="stop302" />
    </linearGradient>
    <radialGradient
       cy="19.82"
       r="7.856"
       gradientUnits="userSpaceOnUse"
       id="radialGradient3322-6"
       cx="-25.441">
      <stop
         stop-color="#2c74cd"
         id="stop305" />
      <stop
         stop-color="#141414"
         offset="1"
         id="stop307" />
    </radialGradient>
    <radialGradient
       cy="19.82"
       r="7.856"
       gradientUnits="userSpaceOnUse"
       id="radialGradient3324-0"
       cx="-25.441">
      <stop
         stop-color="#2c74cd"
         id="stop310" />
      <stop
         stop-color="#2c74cd"
         stop-opacity="0.098"
         offset="1"
         id="stop312" />
    </radialGradient>
    <radialGradient
       cy="19.82"
       r="7.856"
       xlink:href="#linearGradient3613-4"
       gradientUnits="userSpaceOnUse"
       id="radialGradient3326-7"
       cx="-25.441" />
    <linearGradient
       xlink:href="#linearGradient3613-4"
       id="linearGradient3804-0-3" />
    <linearGradient
       x1="-17.501"
       x2="-24.567"
       xlink:href="#linearGradient3613-4"
       y1="27.69"
       y2="20.623"
       gradientUnits="userSpaceOnUse"
       id="linearGradient3165-8"
       gradientTransform="matrix(0.63647,0,0,0.63647,39.18,1015.6)" />
    <path
       d="m74 49.75a21.875 20.75 0 1 1 -43.75 0 21.875 20.75 0 1 1 43.75 0z"
       fill-opacity="0.83"
       id="SVGCleanerId_0"
       opacity="0.799" />
    <rect
       x="6"
       rx="6"
       y="6"
       height="84"
       id="SVGCleanerId_1"
       width="84" />
    <path
       d="m35.459 25.081c0 5.7318-4.6466 10.378-10.378 10.378-5.7318 0-10.378-4.6466-10.378-10.378 0-5.7318 4.6466-10.378 10.378-10.378 5.7318 0 10.378 4.6466 10.378 10.378z"
       id="SVGCleanerId_2" />
    <path
       d="m-17.586 19.82c0 4.3387-3.5172 7.8559-7.8559 7.8559s-7.8559-3.5172-7.8559-7.8559 3.5172-7.8559 7.8559-7.8559 7.8559 3.5172 7.8559 7.8559z"
       id="SVGCleanerId_3" />
    <linearGradient
       inkscape:collect="always"
       xlink:href="#linearGradient3613-4"
       id="linearGradient10592"
       gradientUnits="userSpaceOnUse"
       y1="20.221"
       x2="0"
       y2="138.66" />
    <linearGradient
       inkscape:collect="always"
       xlink:href="#linearGradient14231"
       id="linearGradient14237"
       x1="50.707542"
       y1="81.682442"
       x2="50.707542"
       y2="96.539803"
       gradientUnits="userSpaceOnUse" />
    <linearGradient
       inkscape:collect="always"
       id="linearGradient14231">
      <stop
         style="stop-color:#000000;stop-opacity:1;"
         offset="0"
         id="stop14233" />
      <stop
         style="stop-color:#000000;stop-opacity:0;"
         offset="1"
         id="stop14235" />
    </linearGradient>
    <linearGradient
       inkscape:collect="always"
       xlink:href="#linearGradient14239"
       id="linearGradient14245"
       x1="49.876652"
       y1="87.937508"
       x2="49.876652"
       y2="76.719681"
       gradientUnits="userSpaceOnUse" />
    <linearGradient
       inkscape:collect="always"
       id="linearGradient14239">
      <stop
         style="stop-color:#ffffff;stop-opacity:1;"
         offset="0"
         id="stop14241" />
      <stop
         style="stop-color:#ffffff;stop-opacity:0;"
         offset="1"
         id="stop14243" />
    </linearGradient>
  </defs>
  <rect
     style="fill-opacity:0.02000002"
     id="rect323"
     width="89.980003"
     height="89.980003"
     y="2.9899757"
     rx="12.724"
     x="3" />
  <rect
     style="fill-opacity:0.03900003"
     id="rect325"
     width="88.760002"
     height="88.760002"
     y="3.6000221"
     rx="12.552"
     x="3.608" />
  <rect
     style="fill-opacity:0.078"
     id="rect327"
     width="87.550003"
     height="87.550003"
     y="4.2100072"
     rx="12.38"
     x="4.2160001" />
  <rect
     style="fill-opacity:0.15700001"
     id="rect329"
     width="86.330002"
     height="86.330002"
     y="4.8199925"
     rx="12.208"
     x="4.8239999" />
  <path
     style="fill:#f2f2f2"
     inkscape:connector-curvature="0"
     id="path331"
     d="m 17.469,5.4062 c -6.668,0 -12.032,5.3948 -12.032,12.063 l 5e-4,61.031 c 0,6.668 5.3635,12.031 12.032,12.031 l 61.03,0 c 6.668,0 12.031,-5.363 12.031,-12.031 l 0,-61.031 c 0,-6.668 -5.363,-12.063 -12.031,-12.063 l -61.031,2e-4 z" />
  <g
     id="g333"
     clip-path="url(#clipPath9032)"
     transform="translate(0,-956.36)">
    <rect
       style="fill:url(#linearGradient3353)"
       id="rect335"
       width="88.75"
       height="88.75"
       y="959.60999"
       rx="6.3390002"
       x="3.5" />
    <g
       id="g337"
       transform="matrix(1.0565,0,0,1.0565,-2.839,953.27)"
       clip-path="url(#clipPath4165)">
      <path
         inkscape:connector-curvature="0"
         style="fill:url(#radialGradient4393)"
         id="path339"
         transform="translate(2,0)"
         d="m 31.25,22.607 a 8.0357,8.0357 0 1 1 -16.071,0 8.0357,8.0357 0 1 1 16.071,0 z" />
      <path
         inkscape:connector-curvature="0"
         style="fill:url(#radialGradient4045)"
         id="path341"
         d="m 46.786,28.679 a 4.10715,4.10715 0 1 1 -8.2143,0 4.10715,4.10715 0 1 1 8.2143,0 z" />
      <path
         inkscape:connector-curvature="0"
         style="fill:url(#radialGradient4047)"
         id="path343"
         d="m 55.179,23.5 a 2.1429,2.1429 0 1 1 -4.2857,0 2.1429,2.1429 0 1 1 4.2857,0 z" />
      <path
         inkscape:connector-curvature="0"
         style="fill:url(#radialGradient4049)"
         id="path345"
         d="m 67.321,35.821 a 5.3571,5.3571 0 1 1 -10.714,0 5.3571,5.3571 0 1 1 10.714,0 z" />
      <path
         inkscape:connector-curvature="0"
         style="fill:url(#radialGradient4051)"
         id="path347"
         d="m 36.25,59.75 a 6.6071,6.6071 0 1 1 -13.214,0 6.6071,6.6071 0 1 1 13.214,0 z" />
      <path
         inkscape:connector-curvature="0"
         style="fill:url(#radialGradient4053)"
         id="path349"
         transform="matrix(1.1739,0,0,1.1739,-12.64,-13.248)"
         d="m 72.679,67.964 a 8.2145,8.2145 0 1 1 -16.429,0 8.2145,8.2145 0 1 1 16.429,0 z" />
      <path
         inkscape:connector-curvature="0"
         style="fill:url(#radialGradient4055)"
         id="path351"
         d="m 51.429,55.286 a 3.3929,3.3929 0 1 1 -6.7857,0 3.3929,3.3929 0 1 1 6.7857,0 z" />
      <path
         inkscape:connector-curvature="0"
         style="fill:url(#radialGradient4125)"
         id="path353"
         transform="translate(-1,0)"
         d="m 18.929,74.036 a 7.8571,7.8571 0 1 1 -15.714,0 7.8571,7.8571 0 1 1 15.714,0 z" />
      <path
         inkscape:connector-curvature="0"
         style="fill:url(#radialGradient4059)"
         id="path355"
         transform="translate(-1.429,-2.143)"
         d="m 37.5,85.643 a 4.10715,4.10715 0 1 1 -8.2143,0 4.10715,4.10715 0 1 1 8.2143,0 z" />
      <path
         inkscape:connector-curvature="0"
         style="fill:url(#radialGradient4061)"
         id="path357"
         transform="translate(1.429,3.036)"
         d="m 55.714,85.107 a 5.3571,5.3571 0 1 1 -10.714,0 5.3571,5.3571 0 1 1 10.714,0 z" />
      <path
         inkscape:connector-curvature="0"
         style="fill:url(#radialGradient4063)"
         id="path359"
         d="m 76.429,12.786 a 3.57145,3.57145 0 1 1 -7.1429,0 3.57145,3.57145 0 1 1 7.1429,0 z" />
      <path
         inkscape:connector-curvature="0"
         style="fill:url(#radialGradient4065)"
         id="path361"
         transform="translate(3.571,6.607)"
         d="m 88.929,22.071 a 9.2857,9.2857 0 1 1 -18.571,0 9.2857,9.2857 0 1 1 18.571,0 z" />
      <rect
         style="fill:url(#radialGradient4105)"
         id="rect363"
         width="4.2859998"
         height="4.2859998"
         y="76.540001"
         rx="2.1429999"
         x="75.709999" />
      <rect
         style="fill:url(#radialGradient4102)"
         id="rect365"
         width="9.6429996"
         height="9.6429996"
         y="63.139999"
         ry="4.2859998"
         rx="4.8210001"
         x="77.139999" />
      <path
         inkscape:connector-curvature="0"
         style="fill:url(#radialGradient4121)"
         id="path367"
         transform="translate(2,0)"
         d="m 15.357,33.143 a 3.2143,3.2143 0 1 1 -6.4286,0 3.2143,3.2143 0 1 1 6.4286,0 z" />
      <path
         inkscape:connector-curvature="0"
         style="fill:url(#radialGradient4073)"
         id="path369"
         d="m 40,3.1429 a 6.0715,6.0715 0 1 1 -12.143,0 6.0715,6.0715 0 1 1 12.143,0 z" />
      <path
         inkscape:connector-curvature="0"
         style="fill:url(#radialGradient4119)"
         id="path371"
         transform="translate(2,3.393)"
         d="m 8.3929,15.107 a 7.143,6.9643975 0 1 1 -14.286,0 7.143,6.9643975 0 1 1 14.286,0 z" />
      <path
         inkscape:connector-curvature="0"
         style="fill:url(#radialGradient4077)"
         id="path373"
         transform="translate(5,-0.714)"
         d="m 62.5,6.9821 a 2.7679,2.7679 0 1 1 -5.5357,0 2.7679,2.7679 0 1 1 5.5357,0 z" />
      <path
         style="opacity:0.5;fill:#ffffff"
         inkscape:connector-curvature="0"
         id="path375"
         d="m 27.875,3.7812 c -0.0076,0.12411 -0.03125,0.24905 -0.03125,0.375 0,3.3532 2.7406,6.0625 6.0938,6.0625 3.3532,0 6.0625,-2.7093 6.0625,-6.0625 0,-0.12595 -0.02371,-0.25089 -0.03125,-0.375 -0.30994,3.0606 -2.8877,5.4375 -6.0312,5.4375 -3.1436,0 -5.7491,-2.3769 -6.0625,-5.4375 z" />
      <path
         style="opacity:0.5;fill:#ffffff"
         inkscape:connector-curvature="0"
         id="path377"
         d="m 62.031,6.8438 c -0.0224,0.14297 -0.0625,0.28836 -0.0625,0.4375 0,1.5286 1.2214,2.75 2.75,2.75 1.5286,0 2.7812,-1.2214 2.7812,-2.75 0,-0.14914 -0.03956,-0.29453 -0.0625,-0.4375 -0.26066,1.2578 -1.3812,2.1875 -2.7188,2.1875 -1.3376,0 -2.4328,-0.92965 -2.6875,-2.1875 z" />
      <path
         style="opacity:0.5;fill:#ffffff"
         inkscape:connector-curvature="0"
         id="path379"
         d="m 69.312,13.281 c -0.02316,0.16461 -0.03125,0.32884 -0.03125,0.5 0,1.9724 1.5901,3.5625 3.5625,3.5625 1.9724,0 3.5938,-1.5901 3.5938,-3.5625 0,-0.17116 -0.0077,-0.33539 -0.03125,-0.5 -0.24822,1.7324 -1.7612,3.0625 -3.5625,3.0625 -1.8013,0 -3.2876,-1.3301 -3.5312,-3.0625 z" />
      <path
         style="opacity:0.5;fill:#ffffff"
         inkscape:connector-curvature="0"
         id="path381"
         d="m -3.875,19 c -0.011957,0.16443 -0.03125,0.33263 -0.03125,0.5 0,3.8463 3.2114,6.9688 7.1562,6.9688 3.9449,0 7.1562,-3.1225 7.1562,-6.9688 0,-0.16737 -0.01929,-0.33557 -0.03125,-0.5 -0.26283,3.6143 -3.3518,6.4688 -7.125,6.4688 -3.7732,0 -6.8622,-2.8544 -7.125,-6.4688 z" />
      <path
         style="opacity:0.5;fill:#ffffff"
         inkscape:connector-curvature="0"
         id="path383"
         d="m 17.219,23.094 c -0.01049,0.16819 -0.03125,0.32915 -0.03125,0.5 0,4.438 3.5932,8.0625 8.0312,8.0625 4.438,0 8.0312,-3.6245 8.0312,-8.0625 0,-0.17085 -0.02076,-0.33181 -0.03125,-0.5 -0.26209,4.2029 -3.7328,7.5625 -8,7.5625 -4.2672,0 -7.7379,-3.3596 -8,-7.5625 z" />
      <path
         style="opacity:0.5;fill:#ffffff"
         inkscape:connector-curvature="0"
         id="path385"
         d="m 50.969,24 c -0.03759,0.16069 -0.0625,0.32808 -0.0625,0.5 0,1.1835 0.94153,2.1562 2.125,2.1562 1.18347,0 2.1562,-0.97278 2.1562,-2.1562 0,-0.17192 -0.02378,-0.33931 -0.0625,-0.5 -0.22783,0.94548 -1.0822,1.6562 -2.0938,1.6562 -1.0115,0 -1.8413,-0.71077 -2.0625,-1.6562 z" />
      <path
         style="opacity:0.5;fill:#ffffff"
         inkscape:connector-curvature="0"
         id="path387"
         d="m 38.625,29.188 c -0.01985,0.16316 -0.0625,0.33172 -0.0625,0.5 0,2.2683 1.8567,4.0938 4.125,4.0938 2.2683,0 4.0938,-1.8254 4.0938,-4.0938 0,-0.16828 -0.04297,-0.33684 -0.0625,-0.5 -0.25193,2.0231 -1.9376,3.5938 -4.0312,3.5938 -2.0936,0 -3.8065,-1.5706 -4.0625,-3.5938 z" />
      <path
         style="opacity:0.5;fill:#ffffff"
         inkscape:connector-curvature="0"
         id="path389"
         d="m 73.969,29.188 c -0.0091,0.16861 -0.03125,0.3291 -0.03125,0.5 0,5.1284 4.1529,9.2812 9.2812,9.2812 5.1284,0 9.2812,-4.1529 9.2812,-9.2812 0,-0.1709 -0.02214,-0.33139 -0.03125,-0.5 -0.26415,4.8912 -4.2925,8.7812 -9.25,8.7812 -4.9575,0 -8.9859,-3.89 -9.25,-8.7812 z" />
      <path
         style="opacity:0.5;fill:#ffffff"
         inkscape:connector-curvature="0"
         id="path391"
         d="m 11,33.656 c -0.02537,0.16252 -0.0625,0.33046 -0.0625,0.5 0,1.7752 1.4435,3.1875 3.2188,3.1875 1.7752,0 3.1875,-1.4123 3.1875,-3.1875 0,-0.16954 -0.03765,-0.33748 -0.0625,-0.5 -0.23534,1.5343 -1.5193,2.6875 -3.125,2.6875 -1.6057,0 -2.916,-1.1532 -3.1562,-2.6875 z" />
      <path
         style="opacity:0.5;fill:#ffffff"
         inkscape:connector-curvature="0"
         id="path393"
         d="m 56.625,36.375 c -0.01122,0.14103 -0.03125,0.29355 -0.03125,0.4375 0,2.9587 2.4163,5.375 5.375,5.375 2.9587,0 5.3438,-2.4163 5.3438,-5.375 0,-0.14395 -0.02017,-0.29647 -0.03125,-0.4375 -0.27287,2.7033 -2.5387,4.8125 -5.3125,4.8125 -2.7738,0 -5.0674,-2.1092 -5.3438,-4.8125 z" />
      <path
         style="opacity:0.5;fill:#ffffff"
         inkscape:connector-curvature="0"
         id="path395"
         d="m 44.688,55.781 c -0.02385,0.16294 -0.03125,0.33009 -0.03125,0.5 0,1.8738 1.5012,3.4062 3.375,3.4062 1.8738,0 3.4062,-1.5324 3.4062,-3.4062 0,-0.16991 -0.0069,-0.33706 -0.03125,-0.5 -0.2438,1.6387 -1.6711,2.9062 -3.375,2.9062 -1.7039,0 -3.1046,-1.2675 -3.3438,-2.9062 z" />
      <path
         style="opacity:0.5;fill:#ffffff"
         inkscape:connector-curvature="0"
         id="path397"
         d="m 23.062,60.25 c -0.0121,0.16287 -0.03125,0.33401 -0.03125,0.5 0,3.649 2.976,6.5938 6.625,6.5938 3.649,0 6.5938,-2.9447 6.5938,-6.5938 0,-0.16599 -0.01927,-0.33713 -0.03125,-0.5 -0.2513,3.4174 -3.0795,6.0938 -6.5625,6.0938 -3.483,0 -6.3399,-2.6763 -6.5938,-6.0938 z" />
      <path
         style="opacity:0.5;fill:#ffffff"
         inkscape:connector-curvature="0"
         id="path399"
         d="m 77.156,68.5 0,1 c 0,2.3743 2.1414,4.2812 4.8125,4.2812 2.6711,0 4.8125,-1.907 4.8125,-4.2812 l 0,-1 c 0,2.3743 -2.1414,4.2812 -4.8125,4.2812 -2.6711,0 -4.8125,-1.907 -4.8125,-4.2812 z" />
      <path
         style="opacity:0.5;fill:#ffffff"
         inkscape:connector-curvature="0"
         id="path401"
         d="m 2.25,74.531 c -0.010235,0.16443 -0.03125,0.33295 -0.03125,0.5 0,4.3394 3.5044,7.875 7.8438,7.875 4.3394,0 7.875,-3.5356 7.875,-7.875 0,-0.16705 -0.02093,-0.33557 -0.03125,-0.5 -0.25785,4.1089 -3.6714,7.375 -7.8438,7.375 -4.1723,0 -7.5569,-3.2661 -7.8125,-7.375 z" />
      <path
         style="opacity:0.5;fill:#ffffff"
         inkscape:connector-curvature="0"
         id="path403"
         d="m 75.781,79.188 c -0.03747,0.16095 -0.0625,0.32754 -0.0625,0.5 0,1.1871 0.93786,2.125 2.125,2.125 1.18714,0 2.1562,-0.93786 2.1562,-2.125 0,-0.17246 -0.0239,-0.33905 -0.0625,-0.5 -0.22711,0.94036 -1.0791,1.625 -2.0938,1.625 -1.0147,0 -1.842,-0.68464 -2.0625,-1.625 z" />
      <path
         style="opacity:0.5;fill:#ffffff"
         inkscape:connector-curvature="0"
         id="path405"
         d="m 27.906,84 c -0.02136,0.16879 -0.0625,0.32532 -0.0625,0.5 0,2.2683 1.8567,4.0938 4.125,4.0938 2.2683,0 4.0938,-1.8254 4.0938,-4.0938 0,-0.17468 -0.04148,-0.33121 -0.0625,-0.5 -0.25193,2.0231 -1.9376,3.5938 -4.0312,3.5938 -2.0936,0 -3.8065,-1.5706 -4.0625,-3.5938 z" />
      <path
         style="opacity:0.5;fill:#ffffff"
         inkscape:connector-curvature="0"
         id="path407"
         d="m 46.469,88.719 c -0.01108,0.14117 -0.03125,0.29355 -0.03125,0.4375 0,2.9587 2.3851,5.3438 5.3438,5.3438 2.9587,0 5.375,-2.3851 5.375,-5.3438 0,-0.14395 -0.02003,-0.29633 -0.03125,-0.4375 -0.2763,2.6999 -2.57,4.7812 -5.3438,4.7812 -2.7738,0 -5.0396,-2.0814 -5.3125,-4.7812 z" />
      <path
         style="opacity:0.5;fill:#ffffff"
         inkscape:connector-curvature="0"
         id="path409"
         d="m 53.438,67.031 c -0.0089,0.16975 -0.03125,0.32804 -0.03125,0.5 0,5.3256 4.2994,9.6562 9.625,9.6562 5.3256,0 9.6562,-4.3306 9.6562,-9.6562 0,-0.17177 -0.02238,-0.33044 -0.03125,-0.5 -0.25827,5.095 -4.4658,9.1562 -9.625,9.1562 -5.159,0 -9.3352,-4.0615 -9.5938,-9.1562 z" />
    </g>
    <rect
       style="opacity:0.1;fill:url(#linearGradient10592);stroke:#ffffff;stroke-width:0.5;stroke-linecap:round;filter:url(#filter3794-6)"
       id="rect411"
       transform="matrix(1.0565,0,0,1.0565,-2.839,953.27)"
       width="66"
       height="66"
       clip-path="url(#clipPath3613-9)"
       y="15"
       rx="12"
       x="15" />
  </g>
  <use
     height="100%"
     width="100%"
     y="0"
     x="0"
     style="fill:#fff6d5"
     id="use417"
     transform="matrix(1.1454,0,0,1.2075,-11.765,-11.75)"
     xlink:href="#SVGCleanerId_0" />
  <use
     height="100%"
     width="100%"
     y="0"
     x="0"
     style="fill:#c87b2d"
     id="use419"
     transform="matrix(1.1454,0,0,1.2075,-11.765,-13.52)"
     xlink:href="#SVGCleanerId_0" />
  <g
     id="g421"
     transform="matrix(1.8644,0,0,1.8644,5.155,-1868.78)">
    <use
       height="100%"
       width="100%"
       y="0"
       x="0"
       style="fill:#232323"
       id="use423"
       transform="matrix(1.2526,0,0,1.2526,-8.43,996.75)"
       xlink:href="#SVGCleanerId_2" />
    <use
       height="100%"
       width="100%"
       y="0"
       x="0"
       style="fill:#141414"
       id="use425"
       transform="matrix(1.1563,0,0,1.1563,-6.01,999.17)"
       xlink:href="#SVGCleanerId_2" />
    <use
       height="100%"
       width="100%"
       y="0"
       x="0"
       style="fill:url(#linearGradient3320-7)"
       id="use427"
       transform="matrix(0.96354,0,0,0.96354,-1.18,1004)"
       xlink:href="#SVGCleanerId_2" />
    <use
       height="100%"
       width="100%"
       y="0"
       x="0"
       style="fill:url(#radialGradient3322-6)"
       id="use429"
       transform="matrix(1.1456,0,0,1.1456,52.13,1005.5)"
       xlink:href="#SVGCleanerId_3" />
    <use
       height="100%"
       width="100%"
       y="0"
       x="0"
       id="use431"
       transform="matrix(0.50917,0,0,0.50917,35.941,1018.1)"
       xlink:href="#SVGCleanerId_3" />
    <use
       height="100%"
       width="100%"
       y="0"
       x="0"
       style="fill:url(#radialGradient3324-0)"
       id="use433"
       transform="matrix(0.38188,0,0,0.38188,32.702,1020.6)"
       xlink:href="#SVGCleanerId_3" />
    <use
       height="100%"
       width="100%"
       y="0"
       x="0"
       style="opacity:0.2;fill:url(#radialGradient3326-7)"
       id="use435"
       transform="matrix(0.38188,0,0,0.38188,32.702,1020.6)"
       xlink:href="#SVGCleanerId_3" />
    <path
       style="opacity:0.4;fill:#ffffff"
       inkscape:connector-curvature="0"
       id="path437"
       d="m 18.643,1025.7 c -0.14554,0.2521 -0.2442,0.5077 -0.34375,0.7813 l 0.9375,0.3437 c 0.07964,-0.2188 0.16482,-0.4233 0.28125,-0.625 l -0.875,-0.5 z" />
    <path
       style="opacity:0.3;fill:#ffffff"
       inkscape:connector-curvature="0"
       id="path439"
       d="m 21.268,1023.5 c -0.82475,0.3002 -1.5608,0.7964 -2.125,1.4688 l 0.78125,0.6562 c 0.45133,-0.5379 1.0277,-0.9474 1.6875,-1.1875 L 21.268,1023.5 Z" />
    <path
       inkscape:connector-curvature="0"
       style="opacity:0.4;fill:url(#linearGradient3165-8)"
       id="path441"
       d="m 27.987,1028.2 c 0,2.7614 -2.2386,5 -5,5 -0.38304,0 -0.38739,-0.022 -0.38739,-0.3153 0,-1.3807 0.55964,-2.6307 1.4645,-3.5356 0.90482,-0.9048 2.1548,-1.4644 3.5355,-1.4644 0.29296,0 0.38739,-0.014 0.38739,0.3153 z" />
  </g>
  <g
     id="g14291">
    <path
       d="m 5.2922679,73.685059 0,5.0663 c 0,6.668 5.3645011,12.032 12.0320011,12.032 l 61.049,0 c 6.668,0 12.032,-5.3645 12.032,-12.032 l 0,-5.0663 c 0,6.6681 -5.3645,12.032 -12.032,12.032 l -61.049,0 c -6.668,0 -12.0320011,-5.3643 -12.0320011,-12.032 z"
       id="path64"
       inkscape:connector-curvature="0"
       style="opacity:0.4;fill:url(#linearGradient14237);fill-opacity:1" />
    <path
       inkscape:connector-curvature="0"
       id="path14214"
       d="m 5.2929688,72.717592 0,1.15039 c 0,6.667718 5.3632502,12.031248 12.0312502,12.031248 l 61.048828,0 c 6.6675,0 12.03125,-5.36313 12.03125,-12.031248 l 0,-1.15039 c 0,6.668098 -5.36375,12.031248 -12.03125,12.031248 l -61.048828,0 c -6.668,0 -12.0312502,-5.36355 -12.0312502,-12.031248 z"
       style="opacity:0.5;fill:url(#linearGradient14245);fill-opacity:1" />
  </g>
</svg>
