<?xml version="1.0" encoding="UTF-8" standalone="no"?>
<svg
   xmlns:dc="http://purl.org/dc/elements/1.1/"
   xmlns:cc="http://creativecommons.org/ns#"
   xmlns:rdf="http://www.w3.org/1999/02/22-rdf-syntax-ns#"
   xmlns:svg="http://www.w3.org/2000/svg"
   xmlns="http://www.w3.org/2000/svg"
   xmlns:xlink="http://www.w3.org/1999/xlink"
   xmlns:sodipodi="http://sodipodi.sourceforge.net/DTD/sodipodi-0.dtd"
   xmlns:inkscape="http://www.inkscape.org/namespaces/inkscape"
   height="96"
   width="96"
   id="svg1325"
   version="1.1"
   inkscape:version="0.91 r13725"
   sodipodi:docname="credentials-preferences.svg">
  <metadata
     id="metadata1356">
    <rdf:RDF>
      <cc:Work
         rdf:about="">
        <dc:format>image/svg+xml</dc:format>
        <dc:type
           rdf:resource="http://purl.org/dc/dcmitype/StillImage" />
      </cc:Work>
    </rdf:RDF>
  </metadata>
  <sodipodi:namedview
     pagecolor="#ffffff"
     bordercolor="#666666"
     borderopacity="1"
     objecttolerance="10"
     gridtolerance="10"
     guidetolerance="10"
     inkscape:pageopacity="0"
     inkscape:pageshadow="2"
     inkscape:window-width="640"
     inkscape:window-height="480"
     id="namedview1354"
     showgrid="false"
     inkscape:zoom="2.4583333"
     inkscape:cx="48"
     inkscape:cy="48"
     inkscape:current-layer="svg1325" />
  <defs
     id="defs1327">
    <linearGradient
       x2="0"
       y1="104.5"
       y2="2.993"
       gradientUnits="userSpaceOnUse"
       id="linearGradient22436">
      <stop
         stop-color="#800000"
         id="stop1330" />
      <stop
         stop-color="#f58500"
         offset="1"
         id="stop1332" />
    </linearGradient>
    <linearGradient
       inkscape:collect="always"
       xlink:href="#linearGradient14231"
       id="linearGradient14237"
       x1="50.707542"
       y1="81.682442"
       x2="50.707542"
       y2="96.539803"
       gradientUnits="userSpaceOnUse" />
    <linearGradient
       inkscape:collect="always"
       id="linearGradient14231">
      <stop
         style="stop-color:#000000;stop-opacity:1;"
         offset="0"
         id="stop14233" />
      <stop
         style="stop-color:#000000;stop-opacity:0;"
         offset="1"
         id="stop14235" />
    </linearGradient>
    <linearGradient
       inkscape:collect="always"
       xlink:href="#linearGradient14239"
       id="linearGradient14245"
       x1="49.876652"
       y1="87.937508"
       x2="49.876652"
       y2="76.719681"
       gradientUnits="userSpaceOnUse" />
    <linearGradient
       inkscape:collect="always"
       id="linearGradient14239">
      <stop
         style="stop-color:#ffffff;stop-opacity:1;"
         offset="0"
         id="stop14241" />
      <stop
         style="stop-color:#ffffff;stop-opacity:0;"
         offset="1"
         id="stop14243" />
    </linearGradient>
  </defs>
  <rect
     style="fill-opacity:0.02000002"
     id="rect1336"
     width="89.980003"
     height="89.980003"
     y="2.9899757"
     rx="12.724"
     x="3" />
  <rect
     style="fill-opacity:0.03900003"
     id="rect1338"
     width="88.760002"
     height="88.760002"
     y="3.6000221"
     rx="12.552"
     x="3.608" />
  <rect
     style="fill-opacity:0.078"
     id="rect1340"
     width="87.550003"
     height="87.550003"
     y="4.2100072"
     rx="12.38"
     x="4.2160001" />
  <rect
     style="fill-opacity:0.15700001"
     id="rect1342"
     width="86.330002"
     height="86.330002"
     y="4.8199925"
     rx="12.208"
     x="4.8239999" />
  <path
     inkscape:connector-curvature="0"
     style="fill:url(#linearGradient22436)"
     id="path1344"
     d="m 17.469,5.4062 c -6.668,0 -12.032,5.3948 -12.032,12.063 l 5e-4,61.031 c 0,6.668 5.3635,12.031 12.032,12.031 l 61.03,0 c 6.668,0 12.031,-5.363 12.031,-12.031 l 0,-61.031 c 0,-6.668 -5.363,-12.063 -12.031,-12.063 l -61.031,2e-4 z" />
  <path
     style="fill:#501616"
     inkscape:connector-curvature="0"
     id="path1350"
     d="m 47.875,15.68 c -9.0099,0 -16.312,7.0452 -16.312,15.719 0.02191,0.994 0.02479,2.1074 0.125,3.3438 -1.4259,0.784 -1.6156,3.8465 -0.34375,6.9375 0.49044,1.1918 1.1678,2.1531 1.8438,2.9375 0.02253,0.026 0.07106,0.068 0.09375,0.094 0.16135,0.8166 0.27362,1.4225 0.46875,2.3437 0.60448,1.8705 3.1129,5.413 5.3125,8.4376 0.21936,2.3332 0.22259,4.6585 -0.21875,7.3125 -5.9088,5.0564 -20.422,7.48 -22.312,12.344 -0.008,0.022 -0.0232,0.04 -0.0313,0.063 -0.47945,0.8517 -0.75,1.83 -0.75,2.875 0,0.6433 0.12213,1.2651 0.3125,1.8438 6.2602,-1.5554 18.166,-2.5938 31.844,-2.5938 13.719,0 25.661,1.0307 31.906,2.5938 0.19229,-0.5787 0.3125,-1.2005 0.3125,-1.8438 0,-2.6195 -1.7321,-4.8268 -4.125,-5.625 -5.1187,-2.964 -14.657,-5.6489 -19.125,-9.6562 -0.2532,-2.1486 -0.31639,-4.2589 -0.1875,-6.375 1.9999,-3.1819 4.6433,-7.3044 5.3125,-9.3751 0.24595,-1.0724 0.37148,-1.7979 0.5625,-2.7187 0.59056,-0.7445 1.1266,-1.5968 1.5625,-2.6563 1.2078,-2.9353 1.0748,-5.7657 -0.15625,-6.7187 0.08602,-1.2754 0.18279,-2.4725 0.21875,-3.5625 2.2e-5,-8.6736 -7.3026,-15.719 -16.312,-15.719 z" />
  <path
     style="fill:#ececec"
     inkscape:connector-curvature="0"
     id="path1352"
     d="m 47.875,13.19 c -0.52068,0 -1.0231,0.0165 -1.5312,0.0625 -8.2857,0.75018 -14.781,7.484 -14.781,15.656 0.02191,0.994 0.02479,2.1074 0.125,3.3438 -0.20109,0.11056 -0.37997,0.27387 -0.53125,0.46875 -1.2806,0.66439 -1.861,2.4826 -0.6875,6.4688 0.52583,2.3856 1.5275,2.2687 2.25,2.375 0.0041,0.005 0.02718,-0.005 0.03125,0 0.1485,0.1927 0.28706,0.3879 0.4375,0.5625 0.02253,0.026 0.07106,0.068 0.09375,0.094 0.16135,0.8166 0.27362,1.42245 0.46875,2.34365 0.24351,0.7535 0.84572,1.8157 1.5625,2.9688 1.1028,1.9859 2.551,4.3062 3.8125,6.3125 0.14416,2.0545 0.10688,4.1347 -0.28125,6.4687 -5.9088,5.0564 -20.422,7.4802 -22.312,12.344 -0.008,0.022 -0.02315,0.04 -0.03125,0.063 -0.0277,0.049 -0.03621,0.1062 -0.0625,0.1562 -0.13181,0.2509 -0.24908,0.5112 -0.34375,0.7813 -0.01455,0.041 -0.01761,0.083 -0.03125,0.125 -0.08752,0.2681 -0.17043,0.5291 -0.21875,0.8125 -0.0035,0.02 0.0033,0.042 0,0.063 -0.04846,0.3042 -0.09375,0.6192 -0.09375,0.9375 0,0.6433 0.12213,1.265 0.3125,1.8436 6.2602,-1.5553 18.166,-2.5936 31.844,-2.5936 1.7148,0 3.4108,0 5.0625,0.031 0.01023,1e-4 0.02102,-2e-4 0.03125,0 1.6406,0.031 3.2494,0.096 4.8125,0.1563 0.01011,3e-4 0.02114,-4e-4 0.03125,0 1.5619,0.06 3.062,0.1314 4.5312,0.2187 0.01009,6e-4 0.02117,-7e-4 0.03125,0 7.3826,0.4396 13.509,1.212 17.406,2.1875 0.19229,-0.5787 0.3125,-1.2004 0.3125,-1.8437 0,-0.317 -0.04492,-0.6344 -0.09375,-0.9375 -0.0034,-0.021 0.0036,-0.041 0,-0.063 -0.04832,-0.2834 -0.13123,-0.5445 -0.21875,-0.8125 -0.01296,-0.04 -0.01747,-0.086 -0.03125,-0.125 -0.09467,-0.2701 -0.21194,-0.5305 -0.34375,-0.7814 -0.02629,-0.05 -0.03481,-0.1071 -0.0625,-0.1561 -0.0081,-0.023 -0.02325,-0.04 -0.03125,-0.063 -1.8903,-4.8637 -16.404,-7.2874 -22.312,-12.344 -0.38813,-2.334 -0.42541,-4.4142 -0.28125,-6.4687 1.2615,-2.0063 2.7097,-4.3266 3.8125,-6.3125 0.71678,-1.1531 1.319,-2.2153 1.5625,-2.9688 0.19513,-0.9212 0.3074,-1.52705 0.46875,-2.34365 0.02269,-0.026 0.07122,-0.068 0.09375,-0.094 0.15044,-0.1746 0.289,-0.3698 0.4375,-0.5625 0.01007,-0.002 0.02106,10e-4 0.03125,0 0.72254,-0.10627 1.7242,0.0106 2.25,-2.375 1.1735,-3.9861 0.59307,-5.8044 -0.6875,-6.4688 -0.15128,-0.19488 -0.33016,-0.35819 -0.53125,-0.46875 0.10021,-1.2364 0.10309,-2.3498 0.125,-3.3438 0,-8.1723 -6.4956,-14.906 -14.781,-15.656 -0.54841,-0.0537 -1.0931,-0.0625 -1.6562,-0.0625 z" />
  <g
     id="g14291">
    <path
       d="m 5.2922679,73.685059 0,5.0663 c 0,6.668 5.3645011,12.032 12.0320011,12.032 l 61.049,0 c 6.668,0 12.032,-5.3645 12.032,-12.032 l 0,-5.0663 c 0,6.6681 -5.3645,12.032 -12.032,12.032 l -61.049,0 c -6.668,0 -12.0320011,-5.3643 -12.0320011,-12.032 z"
       id="path64"
       inkscape:connector-curvature="0"
       style="opacity:0.4;fill:url(#linearGradient14237);fill-opacity:1" />
    <path
       inkscape:connector-curvature="0"
       id="path14214"
       d="m 5.2929688,72.717592 0,1.15039 c 0,6.667718 5.3632502,12.031248 12.0312502,12.031248 l 61.048828,0 c 6.6675,0 12.03125,-5.36313 12.03125,-12.031248 l 0,-1.15039 c 0,6.668098 -5.36375,12.031248 -12.03125,12.031248 l -61.048828,0 c -6.668,0 -12.0312502,-5.36355 -12.0312502,-12.031248 z"
       style="opacity:0.5;fill:url(#linearGradient14245);fill-opacity:1" />
  </g>
</svg>
