<?xml version="1.0" encoding="UTF-8" standalone="no"?>
<svg
   xmlns:dc="http://purl.org/dc/elements/1.1/"
   xmlns:cc="http://creativecommons.org/ns#"
   xmlns:rdf="http://www.w3.org/1999/02/22-rdf-syntax-ns#"
   xmlns:svg="http://www.w3.org/2000/svg"
   xmlns="http://www.w3.org/2000/svg"
   xmlns:xlink="http://www.w3.org/1999/xlink"
   xmlns:sodipodi="http://sodipodi.sourceforge.net/DTD/sodipodi-0.dtd"
   xmlns:inkscape="http://www.inkscape.org/namespaces/inkscape"
   height="96"
   width="96"
   id="svg2"
   version="1.1"
   inkscape:version="0.91 r13725"
   sodipodi:docname="dconf-editor.svg"
   inkscape:export-filename="/home/winardiaris/.icons/Tebu/apps/96/dconf-editor.png"
   inkscape:export-xdpi="90"
   inkscape:export-ydpi="90">
  <metadata
     id="metadata53">
    <rdf:RDF>
      <cc:Work
         rdf:about="">
        <dc:format>image/svg+xml</dc:format>
        <dc:type
           rdf:resource="http://purl.org/dc/dcmitype/StillImage" />
      </cc:Work>
    </rdf:RDF>
  </metadata>
  <sodipodi:namedview
     pagecolor="#ffffff"
     bordercolor="#666666"
     borderopacity="1"
     objecttolerance="10"
     gridtolerance="10"
     guidetolerance="10"
     inkscape:pageopacity="0"
     inkscape:pageshadow="2"
     inkscape:window-width="1366"
     inkscape:window-height="708"
     id="namedview51"
     showgrid="false"
     inkscape:zoom="1.7383042"
     inkscape:cx="33.800045"
     inkscape:cy="94.26291"
     inkscape:window-x="0"
     inkscape:window-y="24"
     inkscape:window-maximized="1"
     inkscape:current-layer="svg2" />
  <defs
     id="defs4">
    <linearGradient
       x2="0"
       y1="20.221"
       y2="138.66"
       gradientUnits="userSpaceOnUse"
       id="linearGradient2862-8">
      <stop
         stop-color="#fff"
         id="stop7" />
      <stop
         stop-color="#fff"
         stop-opacity="0"
         offset="1"
         id="stop9" />
    </linearGradient>
    <clipPath
       id="clipPath3613-8">
      <use
         xlink:href="#SVGCleanerId_1"
         id="use12" />
    </clipPath>
    <filter
       x="-0.192"
       y="-0.192"
       height="1.384"
       color-interpolation-filters="sRGB"
       id="filter3794-9"
       width="1.384">
      <feGaussianBlur
         stdDeviation="5.28"
         id="feGaussianBlur15" />
    </filter>
    <clipPath
       id="clipPath3613-3">
      <use
         xlink:href="#SVGCleanerId_1"
         id="use18" />
    </clipPath>
    <linearGradient
       x2="0"
       y1="1028.7"
       y2="970.99"
       gradientUnits="userSpaceOnUse"
       id="linearGradient19375"
       gradientTransform="translate(0,-956.36)">
      <stop
         stop-color="#ccc"
         id="stop21" />
      <stop
         stop-color="#ebeef2"
         offset="1"
         id="stop23" />
    </linearGradient>
    <rect
       x="15"
       stroke-width="0.5"
       rx="12"
       y="15"
       fill="url(#linearGradient2862-8)"
       stroke="#fff"
       height="66"
       filter="url(#filter3794-9)"
       id="SVGCleanerId_0"
       width="66"
       stroke-linecap="round" />
    <rect
       x="6"
       rx="6"
       y="6"
       height="84"
       id="SVGCleanerId_1"
       width="84" />
    <linearGradient
       inkscape:collect="always"
       xlink:href="#linearGradient19375"
       id="linearGradient4198"
       x1="58.318356"
       y1="89.460228"
       x2="58.318356"
       y2="6.0703955"
       gradientUnits="userSpaceOnUse" />
    <linearGradient
       inkscape:collect="always"
       xlink:href="#linearGradient3268"
       id="linearGradient4208"
       x1="49.464954"
       y1="67.752777"
       x2="49.464954"
       y2="14.464648"
       gradientUnits="userSpaceOnUse" />
    <linearGradient
       gradientTransform="matrix(1.3453,0,0,1.4972,-17.9431,-15.3457)"
       id="linearGradient30961"
       gradientUnits="userSpaceOnUse"
       y2="72.11"
       y1="12"
       x2="0">
      <stop
         id="stop4215"
         stop-color="#f0f0f0" />
      <stop
         id="stop4217"
         offset="1"
         stop-color="#b4b4b4" />
    </linearGradient>
    <linearGradient
       id="linearGradient4171"
       gradientUnits="userSpaceOnUse"
       y2="17.04"
       y1="57.58"
       x2="0">
      <stop
         id="stop4220" />
      <stop
         id="stop4222"
         offset="1"
         stop-opacity="0" />
    </linearGradient>
    <filter
       width="1.244"
       id="filter4036"
       color-interpolation-filters="sRGB"
       height="1.158"
       y="-0.079"
       x="-0.122">
      <feGaussianBlur
         id="feGaussianBlur4225"
         stdDeviation="0.66" />
    </filter>
    <linearGradient
       gradientTransform="matrix(0.71429 0 0 0.81818 23.14 -0.545)"
       id="linearGradient4173"
       gradientUnits="userSpaceOnUse"
       y2="62.26"
       y1="41.25"
       x2="0">
      <stop
         id="stop4228"
         stop-opacity="1"
         stop-color="#b4b4b4" />
      <stop
         id="stop4230"
         offset="0.45"
         stop-opacity="1"
         stop-color="#c8c8c8" />
      <stop
         id="stop4232"
         offset="0.5"
         stop-opacity="1"
         stop-color="#d2d2d2" />
      <stop
         id="stop4234"
         offset="0.55"
         stop-opacity="1"
         stop-color="#dcdcdc" />
      <stop
         id="stop4236"
         offset="1"
         stop-opacity="1"
         stop-color="#ffffff" />
    </linearGradient>
    <linearGradient
       gradientTransform="matrix(0.71429 0 0 0.81818 23.14 -0.545)"
       id="linearGradient4175"
       gradientUnits="userSpaceOnUse"
       y2="40"
       y1="64.02"
       x2="0">
      <stop
         id="stop4239"
         stop-opacity="1"
         stop-color="#818181" />
      <stop
         id="stop4241"
         offset="0.137"
         stop-opacity="1"
         stop-color="#bebebe" />
      <stop
         id="stop4243"
         offset="0.5"
         stop-opacity="1"
         stop-color="#c8c8c8" />
      <stop
         id="stop4245"
         offset="0.752"
         stop-opacity="1"
         stop-color="#bebebe" />
      <stop
         id="stop4247"
         offset="1"
         stop-opacity="1"
         stop-color="#ffffff" />
    </linearGradient>
    <linearGradient
       gradientTransform="matrix(0.71429,0,0,0.81818,23.14,-0.545)"
       id="linearGradient4125"
       gradientUnits="userSpaceOnUse"
       y2="40"
       y1="64.02"
       x2="0">
      <stop
         id="stop4250"
         stop-opacity="1"
         stop-color="#818181" />
      <stop
         id="stop4252"
         offset="0.137"
         stop-opacity="1"
         stop-color="#bebebe" />
      <stop
         id="stop4254"
         offset="0.5"
         stop-opacity="1"
         stop-color="#c8c8c8" />
      <stop
         id="stop4256"
         offset="0.761"
         stop-opacity="1"
         stop-color="#bebebe" />
      <stop
         id="stop4258"
         offset="1"
         stop-opacity="1"
         stop-color="#ffffff" />
    </linearGradient>
    <linearGradient
       gradientTransform="matrix(0.5625,0,0,0.73125,130.12525,-26.74574)"
       id="linearGradient4109"
       gradientUnits="userSpaceOnUse"
       y2="105"
       y1="23"
       xlink:href="#linearGradient3268"
       x2="0" />
    <linearGradient
       id="linearGradient3268">
      <stop
         id="stop4262"
         stop-opacity="1"
         stop-color="#252525" />
      <stop
         id="stop4264"
         offset="1"
         stop-opacity="1"
         stop-color="#5f5f5f" />
    </linearGradient>
    <linearGradient
       gradientTransform="matrix(0.5625,0,0,0.73125,130.12525,-26.74574)"
       id="linearGradient4111"
       gradientUnits="userSpaceOnUse"
       y2="22.99"
       y1="105"
       x2="0">
      <stop
         id="stop4267"
         stop-opacity="1"
         stop-color="#cecece" />
      <stop
         id="stop4269"
         offset="1"
         stop-opacity="1"
         stop-color="#d6d6d6" />
    </linearGradient>
    <filter
       width="1.243"
       id="filter4575"
       color-interpolation-filters="sRGB"
       height="1.158"
       y="-0.079"
       x="-0.122">
      <feGaussianBlur
         id="feGaussianBlur4272"
         stdDeviation="0.65898" />
    </filter>
    <linearGradient
       gradientTransform="matrix(0.5625,0,0,0.73125,156.12525,-20.74574)"
       id="linearGradient3956"
       gradientUnits="userSpaceOnUse"
       y2="105"
       y1="23"
       xlink:href="#linearGradient3268"
       x2="0" />
    <linearGradient
       gradientTransform="matrix(0.5625,0,0,0.73125,156.12525,-20.74574)"
       id="linearGradient3958"
       gradientUnits="userSpaceOnUse"
       y2="22.99"
       y1="105"
       xlink:href="#linearGradient4049"
       x2="0" />
    <linearGradient
       id="linearGradient4049">
      <stop
         id="stop4277"
         stop-opacity="1"
         stop-color="#e2e2e2" />
      <stop
         id="stop4279"
         offset="1"
         stop-opacity="1"
         stop-color="#e2e2e2" />
    </linearGradient>
    <linearGradient
       gradientTransform="matrix(0.5625,0,0,0.73125,178.12225,-20.74574)"
       id="linearGradient4391"
       gradientUnits="userSpaceOnUse"
       y2="105"
       y1="23"
       xlink:href="#linearGradient3268"
       x2="0" />
    <linearGradient
       gradientTransform="matrix(0.5625,0,0,0.73125,178.12225,-20.74574)"
       id="linearGradient4393"
       gradientUnits="userSpaceOnUse"
       y2="22.99"
       y1="105"
       xlink:href="#linearGradient4049"
       x2="0" />
    <linearGradient
       id="linearGradient4551-9"
       gradientUnits="userSpaceOnUse"
       x2="20.18"
       x1="16">
      <stop
         id="stop4284"
         stop-opacity="1"
         stop-color="#767676" />
      <stop
         id="stop4286"
         offset="1"
         stop-opacity="1"
         stop-color="#fdfdfd" />
    </linearGradient>
    <radialGradient
       gradientTransform="matrix(1,0,0,1.0043,0,-0.364)"
       cx="18.09"
       id="radialGradient4553"
       gradientUnits="userSpaceOnUse"
       r="2.089"
       cy="85.06">
      <stop
         id="stop4289"
         stop-opacity="1"
         stop-color="#ffe35f" />
      <stop
         id="stop4291"
         offset="1"
         stop-opacity="1"
         stop-color="#e20000" />
    </radialGradient>
    <linearGradient
       gradientTransform="translate(125.12525,-21.94574)"
       id="linearGradient4432"
       gradientUnits="userSpaceOnUse"
       y2="64.31"
       y1="12"
       x2="0">
      <stop
         id="stop4294"
         stop-opacity="1"
         stop-color="#ffffff" />
      <stop
         id="stop4296"
         offset="1"
         stop-opacity="0"
         stop-color="#ffffff" />
    </linearGradient>
    <linearGradient
       gradientTransform="translate(125.12525,-21.94574)"
       id="linearGradient4419"
       gradientUnits="userSpaceOnUse"
       y2="84.19"
       y1="12"
       x2="0">
      <stop
         id="stop4299"
         stop-opacity="1"
         stop-color="#e2e2e2" />
      <stop
         id="stop4301"
         offset="1"
         stop-opacity="1"
         stop-color="#bfbfbf" />
    </linearGradient>
    <path
       id="SVGCleanerId_0-0"
       fill-rule="nonzero"
       fill-opacity="1"
       d="m 20.178571,85.0625 a 2.089286,2.0982148 0 1 1 -4.178572,0 2.089286,2.0982148 0 1 1 4.178572,0 z" />
    <path
       opacity="0.8"
       visibility="visible"
       id="SVGCleanerId_1-7"
       fill-rule="evenodd"
       stroke="none"
       fill-opacity="1"
       color="#000000"
       fill="url(#linearGradient4171)"
       display="inline"
       stroke-width="2"
       d="M 17.5625,36 C 16.133048,36 15,37.20305 15,38.625 l 0,14.75 C 15,54.79695 16.133048,56 17.5625,56 l 7.875,0 C 26.866952,56 28,54.79695 28,53.375 l 0,-14.75 C 28,37.20305 26.866952,36 25.4375,36 l -7.875,0 z" />
    <rect
       ry="1.636"
       rx="1.429"
       y="33"
       fill-rule="evenodd"
       x="41"
       fill-opacity="1"
       fill="url(#linearGradient4173)"
       width="10"
       stroke-width="2"
       stroke-opacity="1"
       stroke-miterlimit="4"
       id="SVGCleanerId_2"
       stroke-linejoin="round"
       height="18"
       stroke-linecap="butt"
       stroke-dashoffset="0"
       stroke-dasharray="none" />
    <path
       visibility="visible"
       opacity="0.2"
       id="SVGCleanerId_3"
       stroke="none"
       fill-opacity="1"
       color="#000000"
       fill="#000000"
       display="inline"
       stroke-width="2"
       d="m 42,41 0,2 8,0 0,-2 -8,0 z" />
  </defs>
  <g
     id="g4494"
     transform="translate(0.00999832,0.02002263)">
    <rect
       x="3"
       rx="12.724"
       y="2.9899757"
       height="89.980003"
       width="89.980003"
       id="rect29"
       style="fill-opacity:0.02000002" />
    <rect
       x="3.608"
       rx="12.552"
       y="3.6000221"
       height="88.760002"
       width="88.760002"
       id="rect31"
       style="fill-opacity:0.03900003" />
    <rect
       x="4.2160001"
       rx="12.38"
       y="4.2100072"
       height="87.550003"
       width="87.550003"
       id="rect33"
       style="fill-opacity:0.078" />
    <rect
       x="4.8239999"
       rx="12.208"
       y="4.8199925"
       height="86.330002"
       width="86.330002"
       id="rect35"
       style="fill-opacity:0.15700001" />
    <path
       id="path4317"
       inkscape:connector-curvature="0"
       d="m 17.5939,5.4375 c -6.642,0 -11.969,5.3948 -11.969,12.063 l 2e-4,61.031 c 0,6.668 5.3268,12.031 11.969,12.031 l 60.812,0 c 6.642,0 11.969,-5.363 11.969,-12.031 l 0,-61.031 c 0,-6.668 -5.327,-12.063 -11.969,-12.063 l -60.812,2e-4 z"
       style="fill:url(#linearGradient30961)" />
    <path
       d="m 17.469,5.4062 c -6.668,0 -12.032,5.3948 -12.032,12.063 l 5e-4,61.031 c 0,6.668 5.3635,12.031 12.032,12.031 l 61.03,0 c 6.668,0 12.031,-5.363 12.031,-12.031 l 0,-61.031 c 0,-6.668 -5.363,-12.063 -12.031,-12.063 l -61.031,2e-4 z"
       id="path37"
       inkscape:connector-curvature="0"
       style="fill:url(#linearGradient4198);fill-opacity:1" />
    <path
       d="m 5.4316,73.44 0,5.0663 c 0,6.668 5.3645,12.032 12.032,12.032 l 61.049,0 c 6.668,0 12.032,-5.3645 12.032,-12.032 l 0,-5.0663 c 0,6.6681 -5.3645,12.032 -12.032,12.032 l -61.049,0 c -6.668,0 -12.032,-5.3643 -12.032,-12.032 z"
       id="path39"
       inkscape:connector-curvature="0"
       style="fill-opacity:0.2" />
    <path
       d="m 5.4316,77.54 0,1.0133 c 0,6.668 5.3645,12.032 12.032,12.032 l 61.049,0 c 6.668,0 12.032,-5.3645 12.032,-12.032 l 0,-1.0133 c 0,6.6681 -5.3645,12.032 -12.032,12.032 l -61.049,0 c -6.668,0 -12.032,-5.3644 -12.032,-12.032 z"
       id="path41"
       inkscape:connector-curvature="0"
       style="fill-opacity:0.09800002" />
    <use
       xlink:href="#SVGCleanerId_0"
       clip-path="url(#clipPath3613-8)"
       transform="translate(0,-2.5)"
       id="use43"
       style="opacity:0.2"
       x="0"
       y="0"
       width="100%"
       height="100%" />
    <path
       d="m 44.271,20.82 c -1.0823,0 -1.9375,0.89924 -1.9375,2 l 0,3.875 c -1.9352,0.5156 -3.777,1.2973 -5.4688,2.2812 l -2.7812,-2.75 c -0.38918,-0.38918 -0.84012,-0.62073 -1.3438,-0.625 -0.50364,-0.004 -1.0236,0.17987 -1.4062,0.5625 L 25.9273,31.57 c -0.76527,0.7653 -0.71577,1.9716 0.0625,2.75 l 2.75,2.7812 c -0.98394,1.6918 -1.7656,3.5336 -2.2812,5.4688 l -3.875,0 c -1.1008,0 -2,0.85515 -2,1.9374 l 0,7.6251 c 0,1.0823 0.89924,1.9375 2,1.9375 l 3.875,0 c 0.51561,1.9352 1.2973,3.777 2.2812,5.4688 l -2.75,2.7812 c -0.77835,0.7784 -0.82785,1.9848 -0.0625,2.7501 l 5.4062,5.4062 c 0.76526,0.7653 1.9716,0.7158 2.75,-0.063 l 2.7812,-2.75 c 1.6918,0.9839 3.5336,1.7657 5.4688,2.2813 l 0,3.875 c 0,1.1007 0.85524,2 1.9375,2 l 7.625,0 c 1.0822,0 1.9375,-0.8993 1.9375,-2 l 0,-3.875 c 1.9351,-0.5156 3.7769,-1.2974 5.4688,-2.2813 l 2.7812,2.75 c 0.77835,0.7784 1.9847,0.8278 2.75,0.063 l 5.4062,-5.4062 c 0.76526,-0.7653 0.71576,-1.9717 -0.0625,-2.7501 l -2.75,-2.7812 c 0.98393,-1.6918 1.7656,-3.5336 2.2812,-5.4688 l 3.875,0 c 1.1007,0 2,-0.8552 2,-1.9375 l 0,-7.6251 c 0,-1.0822 -0.89926,-1.9374 -2,-1.9374 l -3.875,0 c -0.5156,-1.9352 -1.2973,-3.777 -2.2812,-5.4688 l 2.75,-2.7812 c 0.77835,-0.7784 0.82785,-1.9847 0.0625,-2.75 l -5.4062,-5.4063 c -0.76528,-0.76527 -1.9716,-0.71585 -2.75,0.0625 l -2.7812,2.75 C 57.6105,27.99226 55.7687,27.2106 53.8335,26.695 l 0,-3.875 c 0,-1.1008 -0.85525,-2 -1.9375,-2 l -7.625,0 z m 3.8125,13.5 c 7.732,0 14,6.268 14,14 0,7.7321 -6.268,14 -14,14 -7.732,0 -14,-6.268 -14,-14 0,-7.7319 6.268,-14 14,-14 z"
       display="block"
       id="path47"
       inkscape:connector-curvature="0"
       style="display:block;fill:#666666" />
    <path
       d="m 44.271,17.88 c -1.0823,0 -1.9375,0.89924 -1.9375,2 l 0,3.875 c -1.9352,0.5156 -3.777,1.2973 -5.4688,2.2812 l -2.7812,-2.75 c -0.38918,-0.38918 -0.84012,-0.62073 -1.3438,-0.625 -0.50364,-0.004 -1.0236,0.17987 -1.4062,0.5625 L 25.9273,28.63 c -0.76527,0.7653 -0.71577,1.9716 0.0625,2.75 l 2.75,2.7812 c -0.98394,1.6918 -1.7656,3.5336 -2.2812,5.4688 l -3.875,0 c -1.1008,0 -2,0.8552 -2,1.9375 l 0,7.6252 c 0,1.0823 0.89924,1.9375 2,1.9375 l 3.875,0 c 0.51561,1.9352 1.2973,3.777 2.2812,5.4688 l -2.75,2.7812 c -0.77835,0.7784 -0.82785,1.9848 -0.0625,2.7501 l 5.4062,5.4062 c 0.76526,0.7653 1.9716,0.7158 2.75,-0.063 l 2.7812,-2.75 c 1.6918,0.9839 3.5336,1.7657 5.4688,2.2813 l 0,3.875 c 0,1.1007 0.85524,2 1.9375,2 l 7.625,0 c 1.0822,0 1.9375,-0.8993 1.9375,-2 l 0,-3.875 c 1.9351,-0.5156 3.7769,-1.2974 5.4688,-2.2813 l 2.7812,2.75 c 0.77835,0.7784 1.9847,0.8278 2.75,0.063 l 5.4062,-5.4062 c 0.76526,-0.7653 0.71576,-1.9717 -0.0625,-2.7501 l -2.75,-2.7812 c 0.98393,-1.6918 1.7656,-3.5336 2.2812,-5.4688 l 3.875,0 c 1.1007,0 2,-0.8552 2,-1.9375 l 0,-7.6252 c 0,-1.0823 -0.89926,-1.9375 -2,-1.9375 l -3.875,0 c -0.5156,-1.9352 -1.2973,-3.777 -2.2812,-5.4688 l 2.75,-2.7812 c 0.77835,-0.7784 0.82785,-1.9847 0.0625,-2.75 l -5.4062,-5.4063 c -0.76528,-0.76527 -1.9716,-0.71585 -2.75,0.0625 l -2.7812,2.75 C 57.6105,25.05226 55.7687,24.2706 53.8335,23.755 l 0,-3.875 c 0,-1.1008 -0.85525,-2 -1.9375,-2 l -7.625,0 z m 3.8125,13.5 c 7.732,0 14,6.268 14,14 0,7.7321 -6.268,14 -14,14 -7.732,0 -14,-6.268 -14,-14 0,-7.732 6.268,-14 14,-14 z"
       display="block"
       id="path49"
       style="display:block;fill:url(#linearGradient4208);fill-opacity:1"
       inkscape:connector-curvature="0" />
    <path
       inkscape:connector-curvature="0"
       id="path4487"
       d="m 44.270194,17.880197 c -1.0823,0 -1.9375,0.89924 -1.9375,2 l 0,1.626953 c 0,-1.10076 0.8552,-2 1.9375,-2 l 7.625,0 c 1.08225,0 1.9375,0.8992 1.9375,2 l 0,-1.626953 c 0,-1.1008 -0.85525,-2 -1.9375,-2 l -7.625,0 z m -11.53125,4.78125 c -0.50364,-0.004 -1.02365,0.17987 -1.40625,0.5625 l -5.40625,5.40625 c -0.586639,0.586662 -0.689627,1.430985 -0.357422,2.144531 0.08898,-0.184965 0.201672,-0.361822 0.357422,-0.517578 l 5.40625,-5.40625 c 0.3826,-0.38263 0.90261,-0.5665 1.40625,-0.5625 0.50368,0.0043 0.95457,0.23582 1.34375,0.625 l 2.78125,2.75 c 1.6918,-0.9839 3.53355,-1.76565 5.46875,-2.28125 l 0,-1.626953 c -1.9352,0.5156 -3.77695,1.29735 -5.46875,2.28125 l -2.78125,-2.75 c -0.38918,-0.38918 -0.84007,-0.62073 -1.34375,-0.625 z m 30.724609,0.01367 c -0.49454,0.01399 -0.991659,0.222153 -1.380859,0.611328 l -2.78125,2.75 c -1.6918,-0.98394 -3.53355,-1.76565 -5.46875,-2.28125 l 0,1.626953 c 1.9352,0.5156 3.77695,1.29731 5.46875,2.28125 l 2.78125,-2.75 c 0.7784,-0.77835 1.98472,-0.82777 2.75,-0.0625 l 5.40625,5.40625 c 0.155766,0.155756 0.270388,0.332613 0.359375,0.517578 0.332238,-0.713546 0.227325,-1.557869 -0.359375,-2.144531 l -5.40625,-5.40625 C 64.450054,22.84131 63.958093,22.661127 63.463553,22.675117 Z M 28.172537,35.214181 c -0.716394,1.394727 -1.304017,2.874061 -1.714843,4.416016 l -3.875,0 c -1.1008,0 -2,0.8552 -2,1.9375 l 0,1.626953 c 0,-1.0823 0.8992,-1.9375 2,-1.9375 l 3.875,0 c 0.5156,-1.9352 1.29731,-3.77695 2.28125,-5.46875 l -0.566407,-0.574219 z m 39.822266,0 -0.568359,0.574219 c 0.9839,1.6918 1.76565,3.53355 2.28125,5.46875 l 3.875,0 c 1.10074,0 2,0.8552 2,1.9375 l 0,-1.626953 c 0,-1.0823 -0.89926,-1.9375 -2,-1.9375 l -3.875,0 C 69.296882,38.088299 68.711151,36.608863 67.994803,35.214181 Z M 34.123709,46.19465 c -0.01556,0.270361 -0.04102,0.538241 -0.04102,0.8125 0,7.732 6.268,14 14,14 7.732,0 14,-6.2679 14,-14 0,-0.274259 -0.02546,-0.542139 -0.04102,-0.8125 -0.424021,7.350903 -6.501901,13.185547 -13.958984,13.185547 -7.457083,0 -13.534964,-5.834727 -13.958985,-13.185547 z m -5.951172,10.978516 -2.183593,2.207031 c -0.619938,0.619978 -0.768167,1.508545 -0.419922,2.232422 0.101166,-0.217283 0.238237,-0.423773 0.419922,-0.605469 l 2.75,-2.78125 c -0.199935,-0.343785 -0.383707,-0.697037 -0.566407,-1.052734 z m 39.822266,0 c -0.182726,0.355751 -0.368389,0.708899 -0.568359,1.052734 l 2.75,2.78125 c 0.181663,0.181696 0.32072,0.388186 0.421875,0.605469 0.348202,-0.723877 0.197991,-1.612444 -0.421875,-2.232422 l -2.181641,-2.207031 z"
       style="display:block;opacity:0.7;fill:#ffffff;fill-opacity:1" />
  </g>
</svg>
