<?xml version="1.0" encoding="UTF-8" standalone="no"?>
<svg
   xmlns:dc="http://purl.org/dc/elements/1.1/"
   xmlns:cc="http://creativecommons.org/ns#"
   xmlns:rdf="http://www.w3.org/1999/02/22-rdf-syntax-ns#"
   xmlns:svg="http://www.w3.org/2000/svg"
   xmlns="http://www.w3.org/2000/svg"
   xmlns:xlink="http://www.w3.org/1999/xlink"
   xmlns:sodipodi="http://sodipodi.sourceforge.net/DTD/sodipodi-0.dtd"
   xmlns:inkscape="http://www.inkscape.org/namespaces/inkscape"
   height="96"
   width="96"
   id="svg356"
   version="1.1"
   inkscape:version="0.91 r13725"
   sodipodi:docname="desktop-effects.svg">
  <metadata
     id="metadata517">
    <rdf:RDF>
      <cc:Work
         rdf:about="">
        <dc:format>image/svg+xml</dc:format>
        <dc:type
           rdf:resource="http://purl.org/dc/dcmitype/StillImage" />
      </cc:Work>
    </rdf:RDF>
  </metadata>
  <sodipodi:namedview
     pagecolor="#ffffff"
     bordercolor="#666666"
     borderopacity="1"
     objecttolerance="10"
     gridtolerance="10"
     guidetolerance="10"
     inkscape:pageopacity="0"
     inkscape:pageshadow="2"
     inkscape:window-width="640"
     inkscape:window-height="480"
     id="namedview515"
     showgrid="false"
     inkscape:zoom="2.4583333"
     inkscape:cx="48"
     inkscape:cy="48"
     inkscape:current-layer="svg356" />
  <defs
     id="defs358">
    <filter
       color-interpolation-filters="sRGB"
       id="filter4304">
      <feGaussianBlur
         stdDeviation="0.53347"
         id="feGaussianBlur361" />
    </filter>
    <linearGradient
       id="linearGradient4654">
      <stop
         stop-color="#a5a5a5"
         id="stop364" />
      <stop
         stop-color="#fff"
         offset="0.3"
         id="stop366" />
      <stop
         stop-color="#a5a5a5"
         offset="0.6"
         id="stop368" />
      <stop
         stop-color="#636363"
         offset="1"
         id="stop370" />
    </linearGradient>
    <linearGradient
       x2="0"
       y1="84.03"
       y2="2.993"
       gradientUnits="userSpaceOnUse"
       id="linearGradient6400">
      <stop
         stop-color="#ccc"
         id="stop373" />
      <stop
         stop-color="#dae0de"
         offset="1"
         id="stop375" />
    </linearGradient>
    <radialGradient
       cy="-15.871"
       r="35.938"
       gradientUnits="userSpaceOnUse"
       id="radialGradient6415"
       cx="56.07"
       gradientTransform="matrix(0.00226,0.92548,-1.3844,0,25.902,-30.21)">
      <stop
         stop-color="#4490e6"
         id="stop378" />
      <stop
         stop-color="#103d8f"
         offset="1"
         id="stop380" />
    </radialGradient>
    <clipPath
       clipPathUnits="userSpaceOnUse"
       id="clipPath6423">
      <rect
         x="16.06"
         rx="7.803"
         y="967.42"
         height="61"
         width="64.56"
         id="rect383" />
    </clipPath>
    <linearGradient
       x1="79.81"
       x2="39.33"
       y1="106.04"
       y2="35.918"
       gradientUnits="userSpaceOnUse"
       id="linearGradient6429"
       gradientTransform="matrix(0.96593 0.25882 -0.25882 0.96593 30 -25.916)">
      <stop
         id="stop386" />
      <stop
         stop-opacity="0"
         offset="1"
         id="stop388" />
    </linearGradient>
    <radialGradient
       cy="28.1"
       r="36.428"
       gradientUnits="userSpaceOnUse"
       id="radialGradient6435"
       cx="39.05"
       gradientTransform="matrix(0.02522,1.5993,-0.98834,0.01558,65.834,-34.797)">
      <stop
         stop-color="#fff9b9"
         id="stop391" />
      <stop
         stop-color="#fff79e"
         stop-opacity="0"
         offset="1"
         id="stop393" />
    </radialGradient>
    <radialGradient
       cy="32"
       r="8"
       gradientUnits="userSpaceOnUse"
       id="radialGradient6437"
       cx="32">
      <stop
         stop-color="#ffb800"
         id="stop396" />
      <stop
         stop-color="#ffb800"
         stop-opacity="0"
         offset="1"
         id="stop398" />
    </radialGradient>
    <radialGradient
       cy="31.602"
       r="7.245"
       gradientUnits="userSpaceOnUse"
       id="radialGradient6439"
       cx="29.09">
      <stop
         stop-color="#ffe375"
         id="stop401" />
      <stop
         stop-color="#ffa600"
         offset="1"
         id="stop403" />
    </radialGradient>
    <linearGradient
       x1="48"
       x2="55.08"
       gradientUnits="userSpaceOnUse"
       id="linearGradient6455">
      <stop
         id="stop406" />
      <stop
         stop-color="#a5a5a5"
         offset="0.3"
         id="stop408" />
      <stop
         stop-color="#4c4c4c"
         offset="0.6"
         id="stop410" />
      <stop
         offset="1"
         id="stop412" />
    </linearGradient>
    <linearGradient
       x1="48"
       x2="56.15"
       xlink:href="#linearGradient4654"
       gradientUnits="userSpaceOnUse"
       id="linearGradient6457" />
    <linearGradient
       x1="48"
       x2="55.869"
       xlink:href="#linearGradient4654"
       gradientUnits="userSpaceOnUse"
       id="linearGradient6459"
       gradientTransform="matrix(1,0,0,-1,0,112)" />
    <linearGradient
       x2="0"
       xlink:href="#linearGradient6429"
       y1="96"
       y2="31.678"
       gradientUnits="userSpaceOnUse"
       id="linearGradient6461" />
    <path
       d="m61.896 17.343c-0.13523-0.04214-0.28289-0.05044-0.41667-0.01459l-5.7872 1.5552c-0.53512 0.14339-0.80493 0.9157-0.58985 1.7184l3.2386 12.062 6.7336 25.098 4.3788 16.379 5.5853 20.811c0.21508 0.80269 0.82422 1.3488 1.3593 1.2054l5.7872-1.5552c0.53512-0.14339 0.80493-0.9157 0.58985-1.7184l-5.585-20.81-4.379-16.379-6.733-25.098-3.239-12.062c-0.161-0.602-0.537-1.064-0.942-1.191z"
       fill="url(#linearGradient6429)"
       color="#000000"
       filter="url(#filter4304)"
       id="SVGCleanerId_0" />
    <path
       d="m40 32a8 8 0 1 1 -16 0 8 8 0 1 1 16 0z"
       fill="url(#radialGradient6437)"
       color="#000000"
       id="SVGCleanerId_1" />
    <path
       d="m23.906 22.634 2.3835 8.2161-6.187 5.9312 8.187-2.4671 5.9915 6.2706-2.5274-8.2706 6.331-5.9079-8.331 2.4438-5.8476-6.2161z"
       fill="#fc0"
       color="#000000"
       id="SVGCleanerId_2"
       opacity="0.1" />
    <path
       d="m33.778 39.713-5.2168-6.034-7.577 2.606 6.0744-5.1503-2.6463-7.6434 5.1635 6.0648 7.6303-2.6368-6.0258 5.3543 2.5977 7.4395z"
       fill="#fc0"
       color="#000000"
       id="SVGCleanerId_3"
       opacity="0.2" />
    <path
       d="m33.278 38.847-4.5293-5.952-6.8985 2.8899 5.952-4.5293-2.8899-6.8985 4.5293 5.952 6.8985-2.8899-5.952 4.5293z"
       fill="url(#radialGradient6439)"
       color="#000000"
       id="SVGCleanerId_4" />
    <rect
       x="48"
       rx="1"
       y="16"
       ry="1.5"
       color="#000000"
       height="80"
       id="SVGCleanerId_5"
       width="8" />
    <linearGradient
       inkscape:collect="always"
       xlink:href="#linearGradient14231"
       id="linearGradient14237"
       x1="50.707542"
       y1="81.682442"
       x2="50.707542"
       y2="96.539803"
       gradientUnits="userSpaceOnUse" />
    <linearGradient
       inkscape:collect="always"
       id="linearGradient14231">
      <stop
         style="stop-color:#000000;stop-opacity:1;"
         offset="0"
         id="stop14233" />
      <stop
         style="stop-color:#000000;stop-opacity:0;"
         offset="1"
         id="stop14235" />
    </linearGradient>
    <linearGradient
       inkscape:collect="always"
       xlink:href="#linearGradient14239"
       id="linearGradient14245"
       x1="49.876652"
       y1="87.937508"
       x2="49.876652"
       y2="76.719681"
       gradientUnits="userSpaceOnUse" />
    <linearGradient
       inkscape:collect="always"
       id="linearGradient14239">
      <stop
         style="stop-color:#ffffff;stop-opacity:1;"
         offset="0"
         id="stop14241" />
      <stop
         style="stop-color:#ffffff;stop-opacity:0;"
         offset="1"
         id="stop14243" />
    </linearGradient>
  </defs>
  <rect
     style="fill-opacity:0.02000002"
     id="rect425"
     width="89.620003"
     height="89.980003"
     y="2.9899757"
     rx="12.724"
     x="3.3529999" />
  <rect
     style="fill-opacity:0.03900003"
     id="rect427"
     width="88.410004"
     height="88.760002"
     y="3.6000221"
     rx="12.552"
     x="3.9590001" />
  <rect
     style="fill-opacity:0.078"
     id="rect429"
     width="87.199997"
     height="87.550003"
     y="4.2100072"
     rx="12.38"
     x="4.5640001" />
  <rect
     style="fill-opacity:0.15700001"
     id="rect431"
     width="85.990997"
     height="86.330002"
     y="4.8199925"
     rx="12.208"
     x="5.1700001" />
  <path
     inkscape:connector-curvature="0"
     style="fill:url(#linearGradient6400)"
     id="path433"
     d="m 17.75,5.4062 c -6.642,0 -11.969,5.3948 -11.969,12.063 l 2e-4,61.031 c 0,6.668 5.3268,12.031 11.969,12.031 l 60.812,0 c 6.642,0 11.969,-5.363 11.969,-12.031 l 0,-61.031 c 0,-6.668 -5.327,-12.063 -11.969,-12.063 l -60.812,2e-4 z" />
  <rect
     style="opacity:0.5;fill:#4d4d4d"
     id="rect439"
     width="71.470001"
     height="56"
     y="13.040025"
     rx="7.1630001"
     x="12.232" />
  <g
     id="g441"
     transform="matrix(1.0793,0,0,0.91797,-4.206,-872.75)"
     clip-path="url(#clipPath6423)">
    <g
       style="enable-background:new"
       id="g443"
       transform="matrix(1,0,0,0.93125,0.272,953.28)">
      <path
         inkscape:connector-curvature="0"
         style="fill:url(#radialGradient6415)"
         id="path445"
         transform="matrix(-1.0009,0,0,-1.334,96.01,99.97)"
         d="m 12.062,12.062 0,53.875 71.875,0 0,-53.875 -71.875,0 z" />
      <rect
         style="opacity:0.4;fill:#c3d9f5"
         id="rect447"
         width="72.540001"
         height="10"
         y="74"
         ry="2.3829999"
         rx="3.03"
         x="11.786" />
      <rect
         style="opacity:0.4;fill:#c3d9f5"
         id="rect449"
         width="72.540001"
         height="10"
         y="12"
         ry="2.3829999"
         rx="3.03"
         x="11.786" />
      <path
         style="color:#000000;opacity:0.07999998"
         inkscape:connector-curvature="0"
         id="path451"
         d="m 19,13 c -3.2894,0 -6,2.7106 -6,6 l 0,58 c 0,3.2894 2.7106,6 6,6 l 58,0 c 3.2894,0 6,-2.7106 6,-6 l 0,-58 c 0,-3.2894 -2.7106,-6 -6,-6 l -58,0 z m 0,4 58,0 c 1.1426,0 2,0.85741 2,2 l 0,58 c 0,1.1426 -0.85741,2 -2,2 l -58,0 c -1.1426,0 -2,-0.85741 -2,-2 l 0,-58 c 0,-1.1426 0.85741,-2 2,-2 z" />
      <path
         style="color:#000000;opacity:0.1"
         inkscape:connector-curvature="0"
         id="path453"
         d="m 17,14 c -1.662,0 -3,1.338 -3,3 l 0,62 c 0,1.662 1.338,3 3,3 l 62,0 c 1.662,0 3,-1.338 3,-3 l 0,-62 c 0,-1.662 -1.338,-3 -3,-3 l -62,0 z m 0,1.9375 62,0 c 0.61816,0 1.0625,0.44434 1.0625,1.0625 l 0,62 c 0,0.61816 -0.44434,1.0625 -1.0625,1.0625 l -62,0 c -0.61816,0 -1.0625,-0.44434 -1.0625,-1.0625 l 0,-62 c 0,-0.61816 0.44434,-1.0625 1.0625,-1.0625 z" />
      <path
         style="color:#000000;opacity:0.25"
         inkscape:connector-curvature="0"
         id="path455"
         d="m 17,14 c -1.662,0 -3,1.338 -3,3 l 0,62 c 0,1.662 1.338,3 3,3 l 62,0 c 1.662,0 3,-1.338 3,-3 l 0,-62 c 0,-1.662 -1.338,-3 -3,-3 l -62,0 z m 0,0.96875 62,0 c 1.1401,0 2.0312,0.89117 2.0312,2.0312 l 0,62 c 0,1.1401 -0.89117,2.0312 -2.0312,2.0312 l -62,0 c -1.1401,0 -2.0312,-0.89117 -2.0312,-2.0312 l 0,-62 c 0,-1.1401 0.89117,-2.0312 2.0312,-2.0312 z" />
    </g>
  </g>
  <g
     style="enable-background:new"
     id="g457"
     transform="matrix(-0.61231,0,0,0.61231,65.61,20.14)">
    <use
       height="100%"
       width="100%"
       y="0"
       x="0"
       style="opacity:0.1"
       id="use459"
       transform="matrix(0.82861,-0.55983,0.55983,0.82861,-40.811,58.691)"
       xlink:href="#SVGCleanerId_0" />
    <use
       height="100%"
       width="100%"
       y="0"
       x="0"
       style="opacity:0.3"
       id="use461"
       transform="matrix(0.93864,-0.34491,0.34491,0.93864,-28.481,31.914)"
       xlink:href="#SVGCleanerId_0" />
    <use
       height="100%"
       width="100%"
       y="0"
       x="0"
       style="opacity:0.12000002"
       id="use463"
       xlink:href="#SVGCleanerId_0" />
    <path
       inkscape:connector-curvature="0"
       style="opacity:0.4;fill:url(#radialGradient6435)"
       id="path465"
       d="M 73.344,6 C 65.9837,31.499 50.69,60.408 37.344,56.031 23.296,51.425 32.225,32.752 36.688,28.156 31.433,33.083 18.287,53.438 35.062,62.344 47.995,69.209 74.796,53.559 90,32.375 L 90,12 C 90,8.676 87.324,6 84,6 L 73.344,6 Z" />
    <use
       height="100%"
       width="100%"
       y="0"
       x="0"
       id="use467"
       transform="matrix(1.1299,0,0,1.1299,6.318,28.42)"
       xlink:href="#SVGCleanerId_1" />
    <use
       height="100%"
       width="100%"
       y="0"
       x="0"
       id="use469"
       transform="matrix(0.97853,0.56495,-0.56495,0.97853,31.918,17.277)"
       xlink:href="#SVGCleanerId_2" />
    <use
       height="100%"
       width="100%"
       y="0"
       x="0"
       id="use471"
       transform="matrix(0.97853,0.56495,-0.56495,0.97853,31.918,17.277)"
       xlink:href="#SVGCleanerId_3" />
    <use
       height="100%"
       width="100%"
       y="0"
       x="0"
       id="use473"
       transform="matrix(0.97853,0.56495,-0.56495,0.97853,31.918,17.277)"
       xlink:href="#SVGCleanerId_4" />
    <use
       height="100%"
       width="100%"
       y="0"
       x="0"
       id="use475"
       transform="matrix(0.74836,0,0,0.74836,49.04,22.406)"
       xlink:href="#SVGCleanerId_1" />
    <use
       height="100%"
       width="100%"
       y="0"
       x="0"
       id="use477"
       transform="matrix(0.6481,0.37418,-0.37418,0.6481,65.993,15.03)"
       xlink:href="#SVGCleanerId_2" />
    <use
       height="100%"
       width="100%"
       y="0"
       x="0"
       id="use479"
       transform="matrix(0.6481,0.37418,-0.37418,0.6481,65.993,15.03)"
       xlink:href="#SVGCleanerId_3" />
    <use
       height="100%"
       width="100%"
       y="0"
       x="0"
       id="use481"
       transform="matrix(0.6481,0.37418,-0.37418,0.6481,65.993,15.03)"
       xlink:href="#SVGCleanerId_4" />
    <use
       height="100%"
       width="100%"
       y="0"
       x="0"
       id="use483"
       transform="matrix(1.8398,0,0,1.8398,-33.02,-12.68)"
       xlink:href="#SVGCleanerId_1" />
    <use
       height="100%"
       width="100%"
       y="0"
       x="0"
       id="use485"
       transform="matrix(1.59332,0.9199,-0.9199,1.59332,8.66,-30.824)"
       xlink:href="#SVGCleanerId_2" />
    <use
       height="100%"
       width="100%"
       y="0"
       x="0"
       id="use487"
       transform="matrix(1.59332,0.9199,-0.9199,1.59332,8.66,-30.824)"
       xlink:href="#SVGCleanerId_3" />
    <use
       height="100%"
       width="100%"
       y="0"
       x="0"
       id="use489"
       transform="matrix(1.59332,0.9199,-0.9199,1.59332,8.66,-30.824)"
       xlink:href="#SVGCleanerId_4" />
    <use
       height="100%"
       width="100%"
       y="0"
       x="0"
       id="use491"
       transform="matrix(0.87788,0,0,0.87788,3.055,-7.218)"
       xlink:href="#SVGCleanerId_1" />
    <use
       height="100%"
       width="100%"
       y="0"
       x="0"
       id="use493"
       transform="matrix(0.76027,0.43894,-0.43894,0.76027,22.945,-15.876)"
       xlink:href="#SVGCleanerId_2" />
    <use
       height="100%"
       width="100%"
       y="0"
       x="0"
       id="use495"
       transform="matrix(0.76027,0.43894,-0.43894,0.76027,22.945,-15.876)"
       xlink:href="#SVGCleanerId_3" />
    <use
       height="100%"
       width="100%"
       y="0"
       x="0"
       id="use497"
       transform="matrix(0.76027,0.43894,-0.43894,0.76027,22.945,-15.876)"
       xlink:href="#SVGCleanerId_4" />
    <g
       id="g499"
       transform="matrix(0.86603,-0.5,0.5,0.86603,-14.03,37.27)">
      <use
         height="100%"
         width="100%"
         y="0"
         x="0"
         style="fill:url(#linearGradient6455)"
         id="use501"
         xlink:href="#SVGCleanerId_5" />
      <path
         inkscape:connector-curvature="0"
         style="color:#000000;fill:url(#linearGradient6457)"
         id="path503"
         d="m 49,16 c -0.554,0 -1,0.669 -1,1.5 l 0,12.5 8,0 0,-12.5 C 56,16.669 55.554,16 55,16 Z" />
      <path
         inkscape:connector-curvature="0"
         style="color:#000000;fill:url(#linearGradient6459)"
         id="path505"
         d="m 49,96 c -0.554,0 -1,-0.669 -1,-1.5 l 0,-12.5 8,0 0,12.5 c 0,0.831 -0.446,1.5 -1,1.5 z" />
      <use
         height="100%"
         width="100%"
         y="0"
         x="0"
         style="opacity:0.3;fill:url(#linearGradient6461)"
         id="use507"
         xlink:href="#SVGCleanerId_5" />
      <path
         style="color:#000000;opacity:0.2"
         inkscape:connector-curvature="0"
         id="path509"
         d="m 49,16 c -0.554,0 -1,0.669 -1,1.5 l 0,77 c 0,0.831 0.446,1.5 1,1.5 l 6,0 c 0.554,0 1,-0.669 1,-1.5 l 0,-77 C 56,16.669 55.554,16 55,16 Z m 0.125,1 5.75,0 C 54.924,17.074 55,17.264 55,17.5 l 0,77 c 0,0.23568 -0.07571,0.42606 -0.125,0.5 l -5.75,0 C 49.076,94.926 49,94.736 49,94.5 l 0,-77 c 0,-0.23568 0.07571,-0.42606 0.125,-0.5 z" />
    </g>
  </g>
  <rect
     style="fill:#999999"
     id="rect511"
     transform="scale(1,-1)"
     width="15.01"
     height="1.12"
     y="-78.040024"
     rx="0.56"
     x="61.23" />
  <rect
     style="fill:#808080"
     id="rect513"
     transform="scale(1,-1)"
     width="15.01"
     height="1.12"
     y="-77.540024"
     rx="0.56"
     x="61.23" />
  <g
     id="g14291">
    <path
       d="m 5.2922679,73.685059 0,5.0663 c 0,6.668 5.3645011,12.032 12.0320011,12.032 l 61.049,0 c 6.668,0 12.032,-5.3645 12.032,-12.032 l 0,-5.0663 c 0,6.6681 -5.3645,12.032 -12.032,12.032 l -61.049,0 c -6.668,0 -12.0320011,-5.3643 -12.0320011,-12.032 z"
       id="path64"
       inkscape:connector-curvature="0"
       style="opacity:0.4;fill:url(#linearGradient14237);fill-opacity:1" />
    <path
       inkscape:connector-curvature="0"
       id="path14214"
       d="m 5.2929688,72.717592 0,1.15039 c 0,6.667718 5.3632502,12.031248 12.0312502,12.031248 l 61.048828,0 c 6.6675,0 12.03125,-5.36313 12.03125,-12.031248 l 0,-1.15039 c 0,6.668098 -5.36375,12.031248 -12.03125,12.031248 l -61.048828,0 c -6.668,0 -12.0312502,-5.36355 -12.0312502,-12.031248 z"
       style="opacity:0.5;fill:url(#linearGradient14245);fill-opacity:1" />
  </g>
</svg>
