<?xml version="1.0" encoding="UTF-8" standalone="no"?>
<svg
   xmlns:dc="http://purl.org/dc/elements/1.1/"
   xmlns:cc="http://creativecommons.org/ns#"
   xmlns:rdf="http://www.w3.org/1999/02/22-rdf-syntax-ns#"
   xmlns:svg="http://www.w3.org/2000/svg"
   xmlns="http://www.w3.org/2000/svg"
   xmlns:xlink="http://www.w3.org/1999/xlink"
   xmlns:sodipodi="http://sodipodi.sourceforge.net/DTD/sodipodi-0.dtd"
   xmlns:inkscape="http://www.inkscape.org/namespaces/inkscape"
   height="96"
   width="96"
   id="svg950"
   version="1.1"
   inkscape:version="0.91 r13725"
   sodipodi:docname="desura.svg">
  <metadata
     id="metadata1031">
    <rdf:RDF>
      <cc:Work
         rdf:about="">
        <dc:format>image/svg+xml</dc:format>
        <dc:type
           rdf:resource="http://purl.org/dc/dcmitype/StillImage" />
      </cc:Work>
    </rdf:RDF>
  </metadata>
  <sodipodi:namedview
     pagecolor="#ffffff"
     bordercolor="#666666"
     borderopacity="1"
     objecttolerance="10"
     gridtolerance="10"
     guidetolerance="10"
     inkscape:pageopacity="0"
     inkscape:pageshadow="2"
     inkscape:window-width="640"
     inkscape:window-height="480"
     id="namedview1029"
     showgrid="false"
     inkscape:zoom="2.4583333"
     inkscape:cx="48"
     inkscape:cy="48"
     inkscape:current-layer="svg950" />
  <defs
     id="defs952">
    <pattern
       xlink:href="#pattern5167"
       id="pattern10356"
       patternTransform="translate(14.11 937.6)" />
    <pattern
       xlink:href="#pattern5138"
       id="pattern5167"
       patternTransform="translate(16,-14)" />
    <pattern
       height="6"
       id="pattern5138"
       width="6"
       patternTransform="translate(16,-14)"
       patternUnits="userSpaceOnUse">
      <g
         transform="matrix(1 0 0 1 -16 14)"
         id="g957">
        <rect
           x="16"
           y="-14"
           color="#000000"
           height="6"
           opacity="0"
           width="6"
           id="rect959" />
        <rect
           x="17"
           y="-10"
           color="#000000"
           height="1"
           opacity="0.2"
           width="1"
           id="rect961" />
        <rect
           x="20"
           y="-10"
           color="#000000"
           height="1"
           opacity="0.2"
           width="1"
           id="rect963" />
        <rect
           x="17"
           y="-13"
           color="#000000"
           height="1"
           opacity="0.2"
           width="1"
           id="rect965" />
        <rect
           x="20"
           y="-13"
           color="#000000"
           height="1"
           opacity="0.2"
           width="1"
           id="rect967" />
      </g>
    </pattern>
    <linearGradient
       x2="0"
       y1="90"
       y2="5.988"
       gradientUnits="userSpaceOnUse"
       id="linearGradient11081"
       gradientTransform="translate(-1.89,951.6)">
      <stop
         stop-color="#116cad"
         id="stop970" />
      <stop
         stop-color="#2497ea"
         offset="1"
         id="stop972" />
    </linearGradient>
    <clipPath
       clipPathUnits="userSpaceOnUse"
       id="clipPath11083">
      <path
         d="m16.249 959.67c-6.3479 0-11.439 5.1559-11.439 11.529v58.331c0 6.3729 5.0912 11.499 11.439 11.499h58.122c6.3479 0 11.439-5.1259 11.439-11.499v-58.331c0-6.3729-5.0912-11.529-11.439-11.529h-58.122z"
         id="path975" />
    </clipPath>
    <linearGradient
       x2="0"
       y1="625.38"
       y2="989.65"
       gradientUnits="userSpaceOnUse"
       id="linearGradient11103"
       gradientTransform="matrix(0.10972,0,0,0.10972,-35.649,821.63)">
      <stop
         stop-color="#fafafa"
         id="stop978" />
      <stop
         stop-color="#e1e1e1"
         offset="1"
         id="stop980" />
    </linearGradient>
    <rect
       x="4.11"
       rx="6"
       y="957.6"
       height="84"
       id="SVGCleanerId_0"
       width="84" />
    <linearGradient
       inkscape:collect="always"
       xlink:href="#linearGradient14231"
       id="linearGradient14237"
       x1="50.707542"
       y1="81.682442"
       x2="50.707542"
       y2="96.539803"
       gradientUnits="userSpaceOnUse" />
    <linearGradient
       inkscape:collect="always"
       id="linearGradient14231">
      <stop
         style="stop-color:#000000;stop-opacity:1;"
         offset="0"
         id="stop14233" />
      <stop
         style="stop-color:#000000;stop-opacity:0;"
         offset="1"
         id="stop14235" />
    </linearGradient>
    <linearGradient
       inkscape:collect="always"
       xlink:href="#linearGradient14239"
       id="linearGradient14245"
       x1="49.876652"
       y1="87.937508"
       x2="49.876652"
       y2="76.719681"
       gradientUnits="userSpaceOnUse" />
    <linearGradient
       inkscape:collect="always"
       id="linearGradient14239">
      <stop
         style="stop-color:#ffffff;stop-opacity:1;"
         offset="0"
         id="stop14241" />
      <stop
         style="stop-color:#ffffff;stop-opacity:0;"
         offset="1"
         id="stop14243" />
    </linearGradient>
  </defs>
  <rect
     style="fill-opacity:0.02000002"
     id="rect985"
     width="89.620003"
     height="89.980003"
     y="2.9899757"
     rx="12.724"
     x="3.3529999" />
  <rect
     style="fill-opacity:0.03900003"
     id="rect987"
     width="88.410004"
     height="88.760002"
     y="3.6000221"
     rx="12.552"
     x="3.9590001" />
  <rect
     style="fill-opacity:0.078"
     id="rect989"
     width="87.199997"
     height="87.550003"
     y="4.2100072"
     rx="12.38"
     x="4.5640001" />
  <rect
     style="fill-opacity:0.15700001"
     id="rect991"
     width="85.990997"
     height="86.330002"
     y="4.8199925"
     rx="12.208"
     x="5.1700001" />
  <g
     id="g993"
     transform="matrix(1.0463,0,0,1.0463,0.749,-998.7)"
     clip-path="url(#clipPath11083)">
    <use
       height="100%"
       width="100%"
       y="0"
       x="0"
       style="fill:url(#linearGradient11081)"
       id="use995"
       xlink:href="#SVGCleanerId_0" />
    <use
       height="100%"
       width="100%"
       y="0"
       x="0"
       style="opacity:0.5;fill:url(#pattern10356)"
       id="use997"
       xlink:href="#SVGCleanerId_0" />
  </g>
  <g
     id="g1003"
     transform="translate(55.722,-862.65)">
    <path
       style="opacity:0.05;fill:#ffffff"
       inkscape:connector-curvature="0"
       id="path1005"
       d="m -7.8493,880.53 c -1.5314,0.43054 -2.4728,1.9421 -3.7502,2.8314 l -8.156,7.0748 c -4.7184,-0.39988 -9.4391,-1.014 -14.156,-1.2812 -1.8817,0.38826 -1.7274,2.684 -2.3444,4.1028 -1.8457,6.3231 -3.8403,12.621 -5.5931,18.96 -0.0169,1.7196 1.9498,2.4098 2.9445,3.54 4.2998,3.7158 8.5995,7.4317 12.899,11.148 0.28383,1.2733 1.2062,2.1631 2.4246,2.5604 5.1619,2.5887 10.315,5.221 15.482,7.7834 1.4978,0.25145 2.7156,-1.0782 4.0758,-1.5484 4.6171,-2.3785 9.3431,-4.604 13.893,-7.0766 0.71833,-0.79961 0.78073,-2.0132 1.8485,-2.533 4.8296,-4.2201 9.7597,-8.3415 14.527,-12.623 0.97382,-1.4817 -0.36967,-3.1856 -0.60227,-4.725 -1.8867,-6.2211 -3.6588,-12.49 -5.6165,-18.681 -1.1107,-1.6386 -3.2545,-0.61443 -4.8542,-0.64816 -3.5486,0.34105 -7.0972,0.68211 -10.646,1.0232 -3.7853,-3.2199 -7.4535,-6.5988 -11.312,-9.7188 -0.32985,-0.17411 -0.69755,-0.20132 -1.0625,-0.1875 z" />
    <path
       style="opacity:0.05;fill:#ffffff"
       inkscape:connector-curvature="0"
       id="path1007"
       d="m -7.7243,881.41 a 1.0274,1.0274 0 0 0 -0.59375,0.25 l -11.156,9.6875 -14.031,-1.3438 a 1.0274,1.0274 0 0 0 -1.0938,0.75 l -6.3438,21.312 a 1.0274,1.0274 0 0 0 0.3125,1.0625 l 15.312,13.25 0.53125,1.25 a 1.0274,1.0274 0 0 0 0.46875,0.5 l 16.219,8.1875 a 1.0274,1.0274 0 0 0 0.46875,0.125 l 0.03125,0 a 1.0274,1.0274 0 0 0 0.46875,-0.125 l 16.219,-8.1875 a 1.0274,1.0274 0 0 0 0.46875,-0.5 l 0.53125,-1.25 15.312,-13.25 a 1.0274,1.0274 0 0 0 0.3125,-1.0625 l -6.3438,-21.312 a 1.0274,1.0274 0 0 0 -1.0938,-0.75 l -14.031,1.3438 -11.156,-9.6875 a 1.0274,1.0274 0 0 0 -0.6875,-0.25 l -0.03125,0 a 1.0274,1.0274 0 0 0 -0.09375,0 z" />
    <path
       style="fill:#333333"
       inkscape:connector-curvature="0"
       id="path1009"
       d="m -7.6306,882.41 0,0.0313 -11.5,9.9688 -14.469,-1.375 -6.3438,21.312 15.438,13.375 0.65625,1.5 16.219,8.1875 0.03125,0.0313 0,-0.0313 16.219,-8.1875 0.65625,-1.5 15.438,-13.375 -6.3438,-21.312 -14.469,1.375 -11.5,-9.9688 -0.03125,-0.0313 z" />
    <path
       style="opacity:0.1"
       inkscape:connector-curvature="0"
       id="path1011"
       d="m -7.8806,888.44 a 0.85224,0.85224 0 0 0 -0.28125,0.0937 c -1.9529,1.1437 -3.4557,2.8036 -5.0312,4.0625 -0.02208,0.0176 -0.04039,0.045 -0.0625,0.0625 -1.0203,0.69303 -1.8736,1.6144 -2.6875,2.375 -0.82066,0.76699 -1.5905,1.3065 -2.375,1.4688 -3.6384,-0.28403 -7.3359,-0.85496 -11.094,-0.96875 a 0.85224,0.85224 0 0 0 -0.5625,0.1875 c -0.89411,0.74803 -1.2459,1.7871 -1.4688,2.7188 -0.22282,0.93161 -0.37111,1.8064 -0.65625,2.4062 a 0.85224,0.85224 0 0 0 -0.03125,0.125 c -1.0395,3.5815 -2.2412,7.1785 -3.1875,10.844 a 0.85224,0.85224 0 0 0 0.09375,0.6875 c 1.3508,2.0111 3.4579,3.2447 4.9062,4.6562 a 0.85224,0.85224 0 0 0 0.0625,0.0313 c 2.5552,2.1374 5.0449,4.3664 7.6875,6.4688 a 0.85224,0.85224 0 0 0 0.46875,0.1875 c 0.13215,0.008 0.27348,-0.007 0.40625,0 -0.09208,0.27177 -0.20092,0.55509 -0.15625,0.8125 0.10558,0.60843 0.59209,1.1501 1.25,1.375 l 0,0.0313 c 4.154,2.081 8.2806,4.3359 12.531,6.3125 a 0.85224,0.85224 0 0 0 0.5625,0.0313 c 2.0762,-0.53607 3.7465,-1.8327 5.375,-2.5312 a 0.85224,0.85224 0 0 0 0.0625,-0.0313 c 2.6439,-1.3847 5.368,-2.6388 8.0312,-4.125 a 0.85224,0.85224 0 0 0 0.1875,-0.15625 c 0.47246,-0.47789 0.4632,-1.1316 0.28125,-1.6875 0.13733,-0.006 0.2689,0.009 0.40625,0 a 0.85224,0.85224 0 0 0 0.46875,-0.1875 c 3.9815,-3.2395 7.8271,-6.6417 11.719,-9.9375 l -0.03125,-0.0625 c 0.47715,-0.34268 0.85262,-0.78485 0.96875,-1.2812 0.12743,-0.54469 0.05811,-1.0486 -0.0625,-1.5 -0.24122,-0.90275 -0.63969,-1.725 -0.6875,-2.125 a 0.85224,0.85224 0 0 0 -0.03125,-0.15625 c -1.1894,-4.056 -2.3962,-8.1281 -3.6562,-12.156 A 0.85224,0.85224 0 0 0 15.1816,896.0032 c -1.0977,-0.72811 -2.3451,-0.58992 -3.4062,-0.40625 -1.0612,0.18367 -2.0317,0.41546 -2.7188,0.34375 a 0.85224,0.85224 0 0 0 -0.15625,0 c -2.2144,0.15662 -4.3758,0.57019 -6.3438,0.5625 -3.1499,-2.4777 -6.0844,-5.3522 -9.3438,-7.875 a 0.85224,0.85224 0 0 0 -0.4375,-0.15625 l -0.25,-0.0313 a 0.85224,0.85224 0 0 0 -0.09375,0 l -0.15625,0 a 0.85224,0.85224 0 0 0 -0.15625,0 z m -16.625,14.531 c 0.06193,0.006 0.12553,0.0254 0.1875,0.0313 -0.09761,0.0371 -0.1603,0.10759 -0.25,0.15625 0.02029,-0.0626 0.04219,-0.12491 0.0625,-0.1875 z m 33.562,0.0313 c 0.06185,-0.007 0.12562,0.007 0.1875,0 0.0072,0.0219 0.02408,0.0406 0.03125,0.0625 -0.07088,-0.0297 -0.14484,-0.0411 -0.21875,-0.0625 z m -10.312,0.1875 c 0.24259,0.19793 0.47302,0.39917 0.71875,0.59375 a 0.85224,0.85224 0 0 0 0.46875,0.1875 c 0.2969,0.0181 0.5249,-0.0503 0.8125,-0.0625 a 0.85224,0.85224 0 0 0 -0.09375,0.125 c -0.79921,1.3074 -0.86647,2.7818 -0.90625,4.1562 -0.03978,1.3745 -0.05224,2.6802 -0.46875,3.6875 a 0.85224,0.85224 0 0 0 -0.0625,0.125 c -0.06549,0.29088 -0.20665,0.55546 -0.28125,0.84375 0.37579,-2.4206 0.5214,-4.8738 0.53125,-7.2188 8.5e-5,-0.0203 -7.4e-5,-0.0422 0,-0.0625 0.001,-0.009 -0.001,-0.0218 0,-0.0313 0.04607,-0.42475 0.08946,-0.88696 -0.03125,-1.4062 -0.07954,-0.34217 -0.42574,-0.62903 -0.6875,-0.9375 z m -13.031,0.21875 c -0.05816,0.0727 -0.13084,0.11289 -0.1875,0.1875 a 0.85224,0.85224 0 0 0 -0.15625,0.46875 c -0.10152,2.8091 -0.0949,5.7433 0.34375,8.625 -0.5969,-2.4918 -0.9181,-5.096 -1.0625,-7.6875 a 0.85224,0.85224 0 0 0 -0.15625,-0.46875 c -0.26581,-0.34135 -0.62862,-0.47568 -0.96875,-0.65625 0.36997,0.035 0.72225,0.0982 1.0938,0.125 a 0.85224,0.85224 0 0 0 0.5625,-0.15625 c 0.1946,-0.13633 0.34289,-0.29525 0.53125,-0.4375 z m -0.5,18.688 c 0.24291,0.18688 0.47246,0.37915 0.71875,0.5625 -0.26544,0.005 -0.54532,-0.002 -0.8125,0 0.0693,-0.18262 0.0869,-0.37967 0.09375,-0.5625 z m 10,0 c 0.03899,0.20893 0.10384,0.40993 0.1875,0.59375 -0.18762,-4.2e-4 -0.37487,-0.0309 -0.5625,-0.0313 0.0594,-0.0908 0.13247,-0.15153 0.1875,-0.25 0.03433,-0.0412 0.05994,-0.0836 0.09375,-0.125 0.04536,-0.0556 0.04933,-0.1315 0.09375,-0.1875 z m 4.25,0.15625 c 0.02215,0.17119 0.15377,0.28489 0.21875,0.4375 -0.25009,-10e-4 -0.4999,9.9e-4 -0.75,0 0.21612,-0.16576 0.33162,-0.26864 0.53125,-0.4375 z m -9.8125,0.1875 c 0.05848,0.0694 0.09477,0.15194 0.15625,0.21875 -0.05212,7e-5 -0.10413,-8e-5 -0.15625,0 0.02308,-0.0802 -0.01168,-0.14221 0,-0.21875 z" />
    <path
       style="opacity:0.15"
       inkscape:connector-curvature="0"
       id="path1013"
       d="m -7.7243,889.28 c -1.8287,1.071 -3.3327,2.7149 -5.0066,4.0388 -1.852,1.2256 -3.3391,3.6561 -5.4762,4.0616 -3.7465,-0.28169 -7.4885,-0.89325 -11.236,-1.0067 -1.3381,1.1195 -1.1563,3.3062 -1.8863,4.842 -1.0462,3.6046 -2.238,7.1837 -3.174,10.809 1.2017,1.7891 3.2229,2.9847 4.7758,4.498 2.5697,2.1495 5.0753,4.3971 7.6921,6.479 1.9539,0.11455 3.9664,0.12068 5.9144,-0.13521 0.9027,-0.30703 0.60726,-1.5111 -0.14991,-1.8102 -3.9397,-3.2584 -7.895,-6.4994 -11.766,-9.8389 0.97227,-3.0542 1.946,-6.1086 2.9375,-9.1562 3.2657,0.24948 6.5188,0.86766 9.7754,1.1026 1.6542,-1.1589 3.1138,-2.6309 4.6886,-3.9133 1.2906,-0.51039 2.5412,-3.6564 3.8316,-1.9415 2.2755,1.9263 4.4654,3.9738 6.7979,5.8207 1.4465,0.0881 2.9183,-0.33187 4.3737,-0.43245 1.8209,-0.23382 3.6464,-0.42855 5.4704,-0.63607 0.99383,3.0468 2.014,6.0877 2.9375,9.1562 -4.0403,3.5484 -8.29,6.8687 -12.357,10.378 -0.50337,0.77032 0.40485,1.5204 1.1691,1.372 1.7178,0.0662 3.4673,0.18331 5.1777,0.0689 3.9615,-3.2233 7.7946,-6.6387 11.697,-9.9439 1.6029,-0.9947 0.06437,-2.8874 -0.09616,-4.2304 -1.1889,-4.0544 -2.3963,-8.1246 -3.6538,-12.145 -1.6173,-1.0728 -3.9008,0.25858 -5.7487,0.0657 -2.2299,0.15771 -4.5427,0.64592 -6.72,0.59054 -3.2892,-2.558 -6.2819,-5.5232 -9.5625,-8.0625 l -0.25,-0.0313 -0.15625,0 z m -0.125,8.8438 c -1.0756,0.62495 -1.7911,1.7766 -2.7313,2.5978 -1.0403,1.1438 -2.2613,2.1573 -3.1909,3.3813 -0.20554,5.6874 0.10312,11.796 3.3118,16.706 1.0335,1.9183 3.4137,3.8 4.8253,1.0682 3.7646,-4.5155 4.242,-10.695 4.2612,-16.343 0.09379,-0.82008 0.1021,-1.732 -0.71242,-2.2033 -1.7766,-1.6897 -3.4375,-3.5242 -5.2597,-5.1512 -0.15725,-0.069 -0.33553,-0.0887 -0.50404,-0.0555 z m 16.219,5.5312 c -2.3392,0.22962 -4.6848,0.48144 -7.0085,0.81756 -1.3025,2.1307 -0.28485,5.2619 -1.2928,7.6997 -0.7617,3.383 -2.1341,6.6277 -4.105,9.4828 0.25932,2.9697 3.354,-0.4664 4.5394,-1.335 3.602,-3.0311 7.341,-5.9421 10.679,-9.2588 0.0077,-2.1834 -1.0817,-4.3672 -1.5625,-6.5312 -0.07581,-0.62337 -0.63901,-0.98999 -1.25,-0.875 z m -32.281,0.0313 c -1.5724,0.37467 -1.1742,2.6162 -1.7812,3.8125 -0.21248,1.1798 -0.83586,2.3394 -0.78999,3.5345 1.1728,1.6335 3.0221,2.6832 4.4718,4.0696 3.249,2.6446 6.3395,5.5133 9.7869,7.896 2.6146,-0.25049 -0.2837,-3.0026 -0.72466,-4.1905 -2.2781,-4.2144 -2.9813,-9.0314 -3.2441,-13.747 -1.1059,-1.4202 -3.5795,-0.6557 -5.2116,-1.1758 -0.83296,-0.10395 -1.6715,-0.13946 -2.5072,-0.19922 z m 10,19.812 c -2.1852,0.0455 -4.387,-0.0466 -6.5621,0.082 -0.87699,0.29991 -0.61623,1.5919 0.24012,1.7294 4.1707,2.0894 8.2908,4.3206 12.509,6.2824 1.8401,-0.47512 3.4811,-1.729 5.2498,-2.4877 2.6693,-1.398 5.4197,-2.6729 8.0447,-4.1378 0.65124,-0.65872 -0.15826,-1.7015 -0.98606,-1.439 -6.1653,-0.0348 -12.331,-0.0565 -18.496,-0.0292 z" />
    <path
       style="opacity:0.3"
       inkscape:connector-curvature="0"
       id="path1015"
       d="m -7.6015,890.13 c -0.04652,-0.0165 -2.2114,1.7982 -4.8169,4.0625 -3.7738,3.2795 -4.8084,4.1212 -5.0491,4.1205 -0.16618,-4.4e-4 -2.8422,-0.2515 -5.9776,-0.58036 -3.1354,-0.32885 -5.7204,-0.57646 -5.7455,-0.55133 -0.0494,0.0494 -4.38,14.37 -4.4397,14.683 -0.02563,0.13417 1.7079,1.6717 5.9486,5.2812 l 5.9776,5.0781 2.1473,0 c 1.1767,-0.003 2.3548,-0.0471 2.6406,-0.0871 l 0.52232,-0.058 -6.2968,-5.2232 c -3.4655,-2.8663 -6.2934,-5.28 -6.2968,-5.3683 -0.0037,-0.0883 0.58554,-1.9448 1.3058,-4.1495 0.72025,-2.2047 1.4373,-4.4897 1.625,-5.0781 0.33877,-1.0616 0.34766,-1.0776 0.69642,-1.0736 0.19329,0.002 2.4887,0.25892 5.0781,0.58035 l 4.7009,0.58036 3.6852,-3.1629 c 2.0269,-1.751 3.817,-3.3075 3.9754,-3.4531 l 0.29018,-0.26115 2.9018,2.4955 c 1.5916,1.3771 3.372,2.9338 3.9754,3.4531 l 1.1027,0.92857 5.0201,-0.60937 c 2.7646,-0.34149 5.0313,-0.6135 5.0491,-0.58036 0.05664,0.1057 3.366,10.29 3.366,10.359 0,0.0365 -2.848,2.4255 -6.3258,5.3102 l -6.3258,5.2522 0.55134,0.058 c 0.29468,0.04 1.48,0.0818 2.6406,0.0871 l 2.1183,0.029 5.9486,-5.0781 c 3.2746,-2.7833 5.961,-5.097 5.9776,-5.1651 0.02498,-0.10215 -4.3321,-14.778 -4.4107,-14.857 -0.01356,-0.0136 -2.6097,0.24851 -5.7745,0.58035 -3.1648,0.33183 -5.8735,0.5972 -6.0357,0.58035 -0.20766,-0.0216 -1.6981,-1.2321 -4.991,-4.0915 -2.5713,-2.2327 -4.7124,-4.075 -4.7589,-4.0915 z m -0.05804,8.8504 -2.6696,2.6986 -2.6406,2.7277 0,2.3504 c -0.0084,3.6921 0.4168,6.8262 1.2768,9.4888 0.79062,2.4479 1.7127,4.0908 3.1049,5.4843 0.46721,0.46766 0.87496,0.84152 0.92856,0.84152 0.21561,0 1.3333,-1.1014 1.9152,-1.8862 0.86539,-1.1672 1.5918,-2.6008 2.1473,-4.2946 0.90143,-2.7489 1.2542,-5.146 1.3348,-9.1115 l 0.05804,-2.8728 -2.7277,-2.7277 -2.7277,-2.6986 z m 16.366,5.5134 c -0.0273,-0.0274 -1.5783,0.13395 -3.4531,0.34821 -1.8748,0.21425 -3.4769,0.40624 -3.5402,0.40624 -0.07419,0 -0.11607,0.50474 -0.11607,1.4219 0,4.8322 -1.7389,10.658 -4.3236,14.509 -0.5988,0.89212 -0.65696,1.0606 -0.40625,0.89955 1.6741,-1.0757 13.601,-11.165 13.551,-11.462 -0.05414,-0.32646 -1.661,-6.0717 -1.712,-6.1227 z m -32.674,0.058 c -0.04494,0.048 -0.44005,1.4733 -0.89955,3.1629 l -0.84151,3.0468 0.29018,0.29018 c 2.8009,2.4526 10.487,8.8896 12.303,10.301 0.63015,0.48978 1.1718,0.85938 1.1897,0.84151 0.01783,-0.0179 -0.27315,-0.50359 -0.66741,-1.1027 -2.5317,-3.8468 -4.0501,-8.895 -4.2946,-14.277 -0.03965,-0.87275 -0.1095,-1.567 -0.14509,-1.567 -0.03556,0 -1.5879,-0.19228 -3.4531,-0.40625 -1.8652,-0.21397 -3.4371,-0.3382 -3.4821,-0.29018 z m 10.069,19.79 -6.3258,0.029 6.2968,3.221 c 3.4512,1.7615 6.2934,3.1745 6.3258,3.1629 0.03241,-0.0115 2.8793,-1.442 6.3258,-3.1919 l 6.2678,-3.1919 -6.2968,-0.029 c -3.4638,-0.0156 -9.1274,-0.0156 -12.594,0 z" />
    <path
       inkscape:connector-curvature="0"
       style="fill:url(#linearGradient11103)"
       id="path1017"
       d="m -7.6015,889.13 c -0.04652,-0.0165 -2.2114,1.7982 -4.8169,4.0625 -3.7738,3.2795 -4.8084,4.1212 -5.0491,4.1205 -0.16618,-4.4e-4 -2.8422,-0.2515 -5.9776,-0.58036 -3.1354,-0.32885 -5.7204,-0.57646 -5.7455,-0.55133 -0.0494,0.0494 -4.38,14.37 -4.4397,14.683 -0.02563,0.13417 1.7079,1.6717 5.9486,5.2812 l 5.9776,5.0781 2.1473,0 c 1.1767,-0.003 2.3548,-0.0471 2.6406,-0.0871 l 0.52232,-0.058 -6.2968,-5.2232 c -3.4655,-2.8663 -6.2934,-5.28 -6.2968,-5.3683 -0.0037,-0.0883 0.58554,-1.9448 1.3058,-4.1495 0.72025,-2.2047 1.4373,-4.4897 1.625,-5.0781 0.33877,-1.0616 0.34766,-1.0776 0.69642,-1.0736 0.19329,0.002 2.4887,0.25892 5.0781,0.58035 l 4.7009,0.58036 3.6852,-3.1629 c 2.0269,-1.751 3.817,-3.3075 3.9754,-3.4531 l 0.29018,-0.26115 2.9018,2.4955 c 1.5916,1.3771 3.372,2.9338 3.9754,3.4531 l 1.1027,0.92857 5.0201,-0.60937 c 2.7646,-0.34149 5.0313,-0.6135 5.0491,-0.58036 0.05664,0.1057 3.366,10.29 3.366,10.359 0,0.0365 -2.848,2.4255 -6.3258,5.3102 l -6.3258,5.2522 0.55134,0.058 c 0.29468,0.04 1.48,0.0818 2.6406,0.0871 l 2.1183,0.029 5.9486,-5.0781 c 3.2746,-2.7833 5.961,-5.097 5.9776,-5.1651 0.02498,-0.10215 -4.3321,-14.778 -4.4107,-14.857 -0.01356,-0.0136 -2.6097,0.24851 -5.7745,0.58035 -3.1648,0.33183 -5.8735,0.5972 -6.0357,0.58035 -0.20766,-0.0216 -1.6981,-1.2321 -4.991,-4.0915 -2.5713,-2.2327 -4.7124,-4.075 -4.7589,-4.0915 z m -0.05804,8.8504 -2.6696,2.6986 -2.6406,2.7277 0,2.3504 c -0.0084,3.6921 0.4168,6.8262 1.2768,9.4888 0.79062,2.4479 1.7127,4.0908 3.1049,5.4843 0.46721,0.46766 0.87496,0.84152 0.92856,0.84152 0.21561,0 1.3333,-1.1014 1.9152,-1.8862 0.86539,-1.1672 1.5918,-2.6008 2.1473,-4.2946 0.90143,-2.7489 1.2542,-5.146 1.3348,-9.1115 l 0.05804,-2.8728 -2.7277,-2.7277 -2.7277,-2.6986 z m 16.366,5.5134 c -0.0273,-0.0274 -1.5783,0.13395 -3.4531,0.34821 -1.8748,0.21425 -3.4769,0.40624 -3.5402,0.40624 -0.07419,0 -0.11607,0.50474 -0.11607,1.4219 0,4.8322 -1.7389,10.658 -4.3236,14.509 -0.5988,0.89212 -0.65696,1.0606 -0.40625,0.89955 1.6741,-1.0757 13.601,-11.165 13.551,-11.462 -0.05414,-0.32646 -1.661,-6.0717 -1.712,-6.1227 z m -32.674,0.058 c -0.04494,0.048 -0.44005,1.4733 -0.89955,3.1629 l -0.84151,3.0468 0.29018,0.29018 c 2.8009,2.4526 10.487,8.8896 12.303,10.301 0.63015,0.48978 1.1718,0.85938 1.1897,0.84151 0.01783,-0.0179 -0.27315,-0.50359 -0.66741,-1.1027 -2.5317,-3.8468 -4.0501,-8.895 -4.2946,-14.277 -0.03965,-0.87275 -0.1095,-1.567 -0.14509,-1.567 -0.03556,0 -1.5879,-0.19228 -3.4531,-0.40625 -1.8652,-0.21397 -3.4371,-0.3382 -3.4821,-0.29018 z m 10.069,19.79 -6.3258,0.029 6.2968,3.221 c 3.4512,1.7615 6.2934,3.1745 6.3258,3.1629 0.03241,-0.0115 2.8793,-1.442 6.3258,-3.1919 l 6.2678,-3.1919 -6.2968,-0.029 c -3.4638,-0.0156 -9.1274,-0.0156 -12.594,0 z" />
    <path
       style="opacity:0.2;fill:#ffffff"
       inkscape:connector-curvature="0"
       id="path1019"
       d="m -39.693,912.57 -0.25,0.78125 15.438,13.375 0.65625,1.5 16.219,8.1875 0.0312,0 16.219,-8.1875 0.65625,-1.5 15.438,-13.375 -0.25,-0.78125 -15.188,13.156 -0.65625,1.5 -16.219,8.1875 -0.0312,0 -16.219,-8.1875 -0.65625,-1.5 -15.188,-13.156 z" />
    <path
       style="opacity:0.1"
       inkscape:connector-curvature="0"
       id="path1021"
       d="m -7.6306,882.44 -11.5,9.9688 -14.469,-1.375 -6.3438,21.312 15.438,13.375 0.65625,1.5 16.219,8.1875 0.0312,0 16.219,-8.1875 0.65625,-1.5 15.438,-13.375 -6.3437,-21.312 -14.469,1.375 -11.5,-9.9688 -0.0312,0 z m 0,2 10.531,9.125 a 1.5115,1.5115 0 0 0 1.1562,0.34375 l 13.219,-1.25 5.7188,19.156 -14.719,12.75 a 1.5115,1.5115 0 0 0 -0.375,0.5625 l -0.4375,0.96875 -15.094,7.625 -15.062,-7.625 -0.4375,-0.96875 a 1.5115,1.5115 0 0 0 -0.375,-0.5625 l -14.719,-12.75 5.7188,-19.156 13.219,1.25 a 1.5115,1.5115 0 0 0 1.1562,-0.34375 l 10.5,-9.125 z" />
    <path
       style="opacity:0.15"
       inkscape:connector-curvature="0"
       id="path1023"
       d="m -7.6306,882.44 -11.5,9.9688 -14.469,-1.375 -6.3438,21.312 15.438,13.375 0.65625,1.5 16.219,8.1875 0.0312,0 16.219,-8.1875 0.65625,-1.5 15.438,-13.375 -6.3437,-21.312 -14.469,1.375 -11.5,-9.9688 -0.0312,0 z m 0,0.96875 11.031,9.5625 a 0.74618,0.74618 0 0 0 0.5625,0.1875 l 13.875,-1.3125 6.0312,20.25 -15.094,13.062 a 0.74618,0.74618 0 0 0 -0.1875,0.25 l -0.5625,1.2812 -15.656,7.9062 -15.625,-7.9062 -0.5625,-1.2812 a 0.74618,0.74618 0 0 0 -0.1875,-0.25 l -15.094,-13.062 6.0312,-20.25 13.875,1.3125 a 0.74618,0.74618 0 0 0 0.5625,-0.1875 l 11,-9.5625 z" />
    <path
       style="opacity:0.3"
       inkscape:connector-curvature="0"
       id="path1025"
       d="m -7.6306,882.44 -11.5,9.9688 -14.469,-1.375 -6.3438,21.312 0.25,0.21875 6.0938,-20.531 14.469,1.375 11.5,-9.9688 0.0312,0 11.5,9.9688 14.469,-1.375 6.0938,20.531 0.25,-0.21875 -6.3437,-21.312 -14.469,1.375 -11.5,-9.9688 -0.0312,0 z" />
    <path
       style="fill:#ffffff"
       inkscape:connector-curvature="0"
       id="path1027"
       d="m -7.5993,889.13 c -0.04652,-0.0165 -2.207,1.7982 -4.8125,4.0625 -3.7738,3.2795 -4.8218,4.1257 -5.0625,4.125 -0.16618,-4.4e-4 -2.8333,-0.26489 -5.9688,-0.59375 -3.1354,-0.32886 -5.7249,-0.55638 -5.75,-0.53125 -0.0494,0.0494 -4.3778,14.375 -4.4375,14.688 -0.0046,0.024 0.10666,0.13254 0.21875,0.25 0.44308,-1.5638 4.1718,-13.891 4.2188,-13.938 0.02513,-0.0251 2.6146,0.20239 5.75,0.53125 3.1354,0.32886 5.8026,0.59331 5.9688,0.59375 0.24069,6.6e-4 1.2887,-0.84548 5.0625,-4.125 2.6055,-2.2642 4.766,-4.079 4.8125,-4.0625 0.04651,0.0165 2.1787,1.861 4.75,4.0938 3.293,2.8594 4.7923,4.0722 5,4.0938 0.16215,0.0168 2.8664,-0.26192 6.0312,-0.59375 3.1648,-0.33183 5.7677,-0.57608 5.7812,-0.5625 0.07431,0.0743 3.7851,12.519 4.1875,14.031 0.02028,-0.0203 0.21774,-0.18335 0.21875,-0.1875 0.02498,-0.10214 -4.3277,-14.765 -4.4062,-14.844 -0.01356,-0.0136 -2.6164,0.23067 -5.7812,0.5625 -3.1648,0.33183 -5.8691,0.61059 -6.0312,0.59375 -0.20766,-0.0216 -1.707,-1.2344 -5,-4.0938 -2.5713,-2.2327 -4.7035,-4.0773 -4.75,-4.0938 z m -0.0625,8.8438 -2.6562,2.7188 -2.6562,2.7188 0,1 2.6562,-2.7188 2.6562,-2.7188 2.7188,2.7188 2.7188,2.6875 0.03125,-0.96875 -2.75,-2.7188 -2.7188,-2.7188 z m 16.375,5.5312 c -0.0273,-0.0273 -1.594,0.1295 -3.4688,0.34375 -1.8748,0.21425 -3.468,0.40625 -3.5312,0.40625 -0.07419,0 -0.125,0.48912 -0.125,1.4062 0,4.8323 -1.7277,10.68 -4.3125,14.531 -0.5988,0.89212 -0.65696,1.0361 -0.40625,0.875 0.17354,-0.11151 0.50587,-0.37197 0.875,-0.65625 2.3169,-3.8302 3.8438,-9.2242 3.8438,-13.75 0,-0.91713 0.05081,-1.4062 0.125,-1.4062 0.06323,0 1.6565,-0.192 3.5312,-0.40625 1.8748,-0.21425 3.4414,-0.37109 3.4688,-0.34375 0.0448,0.0448 1.1592,4.0374 1.5,5.3438 0.06131,-0.0679 0.22136,-0.203 0.21875,-0.21875 -0.05414,-0.32646 -1.6677,-6.0739 -1.7188,-6.125 z m -32.688,0.0625 c -0.04494,0.048 -0.44675,1.4666 -0.90625,3.1562 l -0.8125,3.0312 0.21875,0.21875 0.59375,-2.25 c 0.4595,-1.6896 0.86131,-3.1082 0.90625,-3.1562 0.04497,-0.048 1.6348,0.0673 3.5,0.28125 1.8652,0.21397 3.4019,0.40625 3.4375,0.40625 0.03559,0 0.1166,0.68975 0.15625,1.5625 0.23062,5.0752 1.5971,9.8396 3.875,13.594 0.58519,0.44971 1.0769,0.79814 1.0938,0.78125 0.01783,-0.0179 -0.29324,-0.49467 -0.6875,-1.0938 -2.5317,-3.8468 -4.0367,-8.8995 -4.2812,-14.281 -0.03965,-0.87275 -0.12066,-1.5625 -0.15625,-1.5625 -0.03556,0 -1.5723,-0.19228 -3.4375,-0.40625 -1.8652,-0.21397 -3.455,-0.32928 -3.5,-0.28125 z m -4.75,7.125 c -0.0389,0.13457 -0.2507,0.76448 -0.25,0.78125 0.0034,0.0883 2.8157,2.5087 6.2812,5.375 l 5.2188,4.3125 c 0.20153,-0.0109 0.48214,-0.02 0.5625,-0.0313 l 0.53125,-0.0625 -6.3125,-5.2188 c -3.2333,-2.6742 -5.684,-4.7909 -6.0312,-5.1562 z m 42.25,0.0313 c -0.21662,0.21391 -2.7247,2.3251 -6.0625,5.0938 l -6.3438,5.25 0.5625,0.0625 c 0.06245,0.009 0.42877,0.023 0.5625,0.0313 l 5.2188,-4.3438 c 3.4778,-2.8847 6.3125,-5.276 6.3125,-5.3125 0,-0.005 -0.21513,-0.66952 -0.25,-0.78125 z m -27.438,12.625 -6.3125,0.0313 1.9375,1 4.375,-0.0313 c 3.4663,-0.0156 9.1299,-0.0156 12.594,0 l 4.375,0.0313 1.9375,-1 -6.3125,-0.0313 c -3.4638,-0.0156 -9.1275,-0.0156 -12.594,0 z" />
  </g>
  <g
     id="g14291">
    <path
       d="m 5.2922679,73.685059 0,5.0663 c 0,6.668 5.3645011,12.032 12.0320011,12.032 l 61.049,0 c 6.668,0 12.032,-5.3645 12.032,-12.032 l 0,-5.0663 c 0,6.6681 -5.3645,12.032 -12.032,12.032 l -61.049,0 c -6.668,0 -12.0320011,-5.3643 -12.0320011,-12.032 z"
       id="path64"
       inkscape:connector-curvature="0"
       style="opacity:0.4;fill:url(#linearGradient14237);fill-opacity:1" />
    <path
       inkscape:connector-curvature="0"
       id="path14214"
       d="m 5.2929688,72.717592 0,1.15039 c 0,6.667718 5.3632502,12.031248 12.0312502,12.031248 l 61.048828,0 c 6.6675,0 12.03125,-5.36313 12.03125,-12.031248 l 0,-1.15039 c 0,6.668098 -5.36375,12.031248 -12.03125,12.031248 l -61.048828,0 c -6.668,0 -12.0312502,-5.36355 -12.0312502,-12.031248 z"
       style="opacity:0.5;fill:url(#linearGradient14245);fill-opacity:1" />
  </g>
</svg>
