<?xml version="1.0" encoding="UTF-8" standalone="no"?>
<svg
   xmlns:dc="http://purl.org/dc/elements/1.1/"
   xmlns:cc="http://creativecommons.org/ns#"
   xmlns:rdf="http://www.w3.org/1999/02/22-rdf-syntax-ns#"
   xmlns:svg="http://www.w3.org/2000/svg"
   xmlns="http://www.w3.org/2000/svg"
   xmlns:xlink="http://www.w3.org/1999/xlink"
   xmlns:sodipodi="http://sodipodi.sourceforge.net/DTD/sodipodi-0.dtd"
   xmlns:inkscape="http://www.inkscape.org/namespaces/inkscape"
   height="96"
   width="96"
   id="svg1033"
   version="1.1"
   inkscape:version="0.91 r13725"
   sodipodi:docname="devede.svg">
  <metadata
     id="metadata1176">
    <rdf:RDF>
      <cc:Work
         rdf:about="">
        <dc:format>image/svg+xml</dc:format>
        <dc:type
           rdf:resource="http://purl.org/dc/dcmitype/StillImage" />
      </cc:Work>
    </rdf:RDF>
  </metadata>
  <sodipodi:namedview
     pagecolor="#ffffff"
     bordercolor="#666666"
     borderopacity="1"
     objecttolerance="10"
     gridtolerance="10"
     guidetolerance="10"
     inkscape:pageopacity="0"
     inkscape:pageshadow="2"
     inkscape:window-width="640"
     inkscape:window-height="480"
     id="namedview1174"
     showgrid="false"
     inkscape:zoom="2.4583333"
     inkscape:cx="48"
     inkscape:cy="48"
     inkscape:current-layer="svg1033" />
  <defs
     id="defs1035">
    <linearGradient
       x2="0"
       y1="20.221"
       y2="138.66"
       gradientUnits="userSpaceOnUse"
       id="linearGradient3613-6">
      <stop
         stop-color="#fff"
         id="stop1038" />
      <stop
         stop-color="#fff"
         stop-opacity="0"
         offset="1"
         id="stop1040" />
    </linearGradient>
    <filter
       x="-0.192"
       y="-0.192"
       height="1.384"
       color-interpolation-filters="sRGB"
       id="filter3794-72"
       width="1.384">
      <feGaussianBlur
         stdDeviation="5.28"
         id="feGaussianBlur1043" />
    </filter>
    <clipPath
       id="clipPath3613-86">
      <rect
         x="6"
         rx="6"
         y="6"
         height="84"
         width="84"
         id="rect1046" />
    </clipPath>
    <clipPath
       id="clipPath3916">
      <path
         d="m12 6c-3.324 0-6 2.676-6 6v72c0 3.324 2.676 6 6 6h72c3.324 0 6-2.676 6-6v-72c0-3.324-2.676-6-6-6h-72zm36 8.8125c18.215 0 33 14.784 33 33s-14.785 33-33 33-33-14.784-33-33 14.785-33 33-33zm0 21.25c-6.4832 0-11.75 5.2665-11.75 11.75s5.2668 11.75 11.75 11.75 11.75-5.2665 11.75-11.75-5.2668-11.75-11.75-11.75z"
         id="path1049" />
    </clipPath>
    <clipPath
       id="clipPath3999">
      <path
         d="m18 14.812c-18.215 0-33 14.784-33 33s14.785 33 33 33 33-14.784 33-33c0-0.27935 0.007-0.56606 0-0.84375h-21.281c0.0194 0.27544 0.0312 0.56342 0.0312 0.84375 0 6.4835-5.2668 11.75-11.75 11.75s-11.75-5.2665-11.75-11.75 5.2668-11.75 11.75-11.75c0.0213 0 0.0413-0.000113 0.0625 0v-21.25c-0.0211-0.00004-0.0414 0-0.0625 0z"
         id="path1052" />
    </clipPath>
    <clipPath
       id="clipPath4187">
      <path
         d="m48 102c-19.882 0-36 16.118-36 36s16.118 36 36 36 36-16.118 36-36-16.118-36-36-36zm0 24c6.6274 0 12 5.3726 12 12s-5.3726 12-12 12-12-5.3726-12-12 5.3726-12 12-12z"
         id="path1055" />
    </clipPath>
    <filter
       x="-0.18"
       y="-0.18"
       height="1.36"
       color-interpolation-filters="sRGB"
       id="filter4195"
       width="1.36">
      <feGaussianBlur
         stdDeviation="5.216"
         id="feGaussianBlur1058" />
    </filter>
    <linearGradient
       x2="0"
       y1="90"
       y2="5.988"
       gradientUnits="userSpaceOnUse"
       id="linearGradient11607"
       gradientTransform="matrix(1.08,0,0,1.08,-3.787,-3.984)">
      <stop
         stop-color="#672178"
         id="stop1061" />
      <stop
         stop-color="#ad77bb"
         offset="1"
         id="stop1063" />
    </linearGradient>
    <linearGradient
       x1="26.18"
       x2="93.61"
       gradientUnits="userSpaceOnUse"
       id="linearGradient11610"
       gradientTransform="matrix(0,0.28234,-0.33917,0,69.23,28.8)">
      <stop
         stop-color="#fff"
         stop-opacity="0.203"
         id="stop1066" />
      <stop
         stop-color="#fff"
         stop-opacity="0.68"
         offset="1"
         id="stop1068" />
    </linearGradient>
    <linearGradient
       x1="25.22"
       x2="94.57"
       gradientUnits="userSpaceOnUse"
       id="linearGradient11612"
       gradientTransform="matrix(0,0.12448,-0.14953,0,57.49,38.26)">
      <stop
         stop-color="#4d4d4d"
         id="stop1071" />
      <stop
         stop-color="#fff"
         offset="1"
         id="stop1073" />
    </linearGradient>
    <linearGradient
       x1="5"
       x2="123"
       gradientUnits="userSpaceOnUse"
       id="linearGradient11614"
       gradientTransform="matrix(0.48435,0.27965,-0.27964,0.48437,4.898,-0.899)">
      <stop
         stop-color="#fff"
         stop-opacity="0"
         id="stop1076" />
      <stop
         stop-color="#fff"
         stop-opacity="0"
         offset="0.15"
         id="stop1078" />
      <stop
         stop-color="#fff"
         offset="0.5"
         id="stop1080" />
      <stop
         stop-color="#fff"
         stop-opacity="0"
         offset="0.85"
         id="stop1082" />
      <stop
         stop-color="#fff"
         stop-opacity="0"
         offset="1"
         id="stop1084" />
    </linearGradient>
    <radialGradient
       cy="61.922"
       r="33.714"
       gradientUnits="userSpaceOnUse"
       id="radialGradient11616"
       cx="59.894"
       gradientTransform="matrix(0,0.26689,-0.26852,0,64.856,29.73)">
      <stop
         stop-opacity="0"
         id="stop1087" />
      <stop
         stop-opacity="0"
         offset="0.85"
         id="stop1089" />
      <stop
         offset="1"
         id="stop1091" />
    </radialGradient>
    <path
       d="m60.947 57.784a20.708 18.814 0 0 1 -2.6155 2.9059l-14.643-13.304z"
       fill="#7137c8"
       id="SVGCleanerId_0" />
    <path
       d="m60.779 58.011a20.708 18.814 0 0 1 -3.384 3.4788l-13.706-14.104z"
       fill="#0cf"
       id="SVGCleanerId_1" />
    <path
       d="m62.724 54.796a20.708 18.814 0 0 1 -2.2597 3.6221l-16.775-11.032z"
       fill="#fc0"
       id="SVGCleanerId_2" />
    <path
       d="m61.623 56.793a20.708 18.814 0 0 1 -1.6993 2.2728l-16.235-11.68z"
       fill="#f00"
       id="SVGCleanerId_3" />
    <path
       d="m63.123 53.883a20.708 18.814 0 0 1 -2.37 4.1619l-17.064-10.659z"
       fill="#0f0"
       id="SVGCleanerId_4" />
    <linearGradient
       inkscape:collect="always"
       xlink:href="#linearGradient14231"
       id="linearGradient14237"
       x1="50.707542"
       y1="81.682442"
       x2="50.707542"
       y2="96.539803"
       gradientUnits="userSpaceOnUse" />
    <linearGradient
       inkscape:collect="always"
       id="linearGradient14231">
      <stop
         style="stop-color:#000000;stop-opacity:1;"
         offset="0"
         id="stop14233" />
      <stop
         style="stop-color:#000000;stop-opacity:0;"
         offset="1"
         id="stop14235" />
    </linearGradient>
    <linearGradient
       inkscape:collect="always"
       xlink:href="#linearGradient14239"
       id="linearGradient14245"
       x1="49.876652"
       y1="87.937508"
       x2="49.876652"
       y2="76.719681"
       gradientUnits="userSpaceOnUse" />
    <linearGradient
       inkscape:collect="always"
       id="linearGradient14239">
      <stop
         style="stop-color:#ffffff;stop-opacity:1;"
         offset="0"
         id="stop14241" />
      <stop
         style="stop-color:#ffffff;stop-opacity:0;"
         offset="1"
         id="stop14243" />
    </linearGradient>
  </defs>
  <rect
     style="fill-opacity:0.02000002"
     id="rect1100"
     width="89.620003"
     height="89.980003"
     y="2.9899757"
     rx="12.724"
     x="3.3529999" />
  <rect
     style="fill-opacity:0.03900003"
     id="rect1102"
     width="88.410004"
     height="88.760002"
     y="3.6000221"
     rx="12.552"
     x="3.9590001" />
  <rect
     style="fill-opacity:0.078"
     id="rect1104"
     width="87.199997"
     height="87.550003"
     y="4.2100072"
     rx="12.38"
     x="4.5640001" />
  <rect
     style="fill-opacity:0.15700001"
     id="rect1106"
     width="85.990997"
     height="86.330002"
     y="4.8199925"
     rx="12.208"
     x="5.1700001" />
  <path
     inkscape:connector-curvature="0"
     style="fill:url(#linearGradient11607)"
     id="path1108"
     d="m 17.75,5.4062 c -6.642,0 -11.969,5.3948 -11.969,12.063 l 2e-4,61.031 c 0,6.668 5.3268,12.031 11.969,12.031 l 60.812,0 c 6.642,0 11.969,-5.363 11.969,-12.031 l 0,-61.031 c 0,-6.668 -5.327,-12.063 -11.969,-12.063 l -60.812,2e-4 z" />
  <rect
     style="opacity:0.1;fill:url(#linearGradient3613-6);stroke:#ffffff;stroke-width:0.5;stroke-linecap:round;filter:url(#filter3794-72)"
     id="rect1114"
     transform="translate(0.229,-2.09)"
     width="66"
     height="66"
     clip-path="url(#clipPath3613-86)"
     y="15"
     rx="12"
     x="15" />
  <path
     style="color:#000000;opacity:0.2;fill:#ffffff"
     inkscape:connector-curvature="0"
     id="path1116"
     d="m 48.229,12.72 0,21.25 c 6.2133,0 11.306,4.8282 11.719,10.938 l 21.281,0 C 80.80126,27.064 66.175,12.72 48.229,12.72 Z" />
  <g
     style="fill-rule:evenodd"
     id="g1118"
     transform="translate(0.229,-2.09)"
     clip-path="url(#clipPath3916)">
    <path
       style="opacity:0.05"
       inkscape:connector-curvature="0"
       id="path1120"
       d="m 48,12.969 c -19.744,0 -35.844,16.099 -35.844,35.844 0,19.745 16.099,35.844 35.844,35.844 19.744,0 35.844,-16.099 35.844,-35.844 0,-19.746 -16.1,-35.844 -35.844,-35.844 z m 0,26.938 c 4.9654,-10e-7 8.9062,3.9406 8.9062,8.9062 0,4.9656 -3.9409,8.9062 -8.9062,8.9062 -4.9654,0 -8.9062,-3.9406 -8.9062,-8.9062 0,-4.9656 3.9409,-8.9062 8.9062,-8.9062 z" />
    <path
       style="opacity:0.07999998"
       inkscape:connector-curvature="0"
       id="path1122"
       d="M 48,14 C 28.816,14 13.188,29.628 13.188,48.812 13.188,67.997 28.816,83.625 48,83.625 67.184,83.625 82.812,67.997 82.812,48.812 82.812,29.628 67.184,14 48,14 Z m 0,24.875 c 5.5166,-10e-7 9.9375,4.4207 9.9375,9.9375 0,5.5168 -4.4209,9.9375 -9.9375,9.9375 -5.5166,0 -9.9375,-4.4207 -9.9375,-9.9375 0,-5.5168 4.4209,-9.9375 9.9375,-9.9375 z" />
    <path
       style="opacity:0.15"
       inkscape:connector-curvature="0"
       id="path1124"
       d="M 48,15 C 29.35,15 14.188,30.162 14.188,48.812 14.188,67.463 29.35,82.625 48,82.625 66.65,82.625 81.812,67.463 81.812,48.812 81.812,30.162 66.65,15 48,15 Z m 0,22.875 c 6.0481,-10e-7 10.938,4.8892 10.938,10.938 0,6.048 -4.89,10.937 -10.938,10.937 -6.048,0 -10.938,-4.889 -10.938,-10.938 0,-6.048 4.89,-10.937 10.938,-10.937 z" />
    <path
       style="opacity:0.3"
       inkscape:connector-curvature="0"
       id="path1126"
       d="m 47.999,15.802 c -18.215,0 -32.998,14.784 -32.998,32.999 0,18.216 14.783,32.999 32.998,32.999 18.215,0 32.998,-14.784 32.998,-32.999 0,-18.216 -14.783,-32.999 -32.998,-32.999 z m 0,21.254 c 6.4832,-10e-7 11.745,5.262 11.745,11.745 0,6.4835 -5.2618,11.745 -11.745,11.745 -6.4832,0 -11.745,-5.262 -11.745,-11.745 0,-6.4835 5.2618,-11.745 11.745,-11.745 z" />
  </g>
  <path
     style="opacity:0.3;fill:#ffffff;fill-rule:evenodd"
     inkscape:connector-curvature="0"
     id="path1128"
     d="m 48.228,33.91 c -6.5134,0 -11.801,5.2879 -11.801,11.802 0,6.5137 5.2877,11.802 11.801,11.802 6.5134,0 11.801,-5.2879 11.801,-11.802 0,-6.5139 -5.2877,-11.802 -11.801,-11.802 z m 0,8.3369 c 1.9124,0 3.4645,1.5522 3.4645,3.4649 0,1.9125 -1.5521,3.4647 -3.4645,3.4647 -1.9124,0 -3.4645,-1.5522 -3.4645,-3.4647 0,-1.9127 1.5521,-3.4649 3.4645,-3.4649 z" />
  <path
     inkscape:connector-curvature="0"
     style="opacity:0.3;fill:url(#radialGradient11616);fill-rule:evenodd"
     id="path1130"
     d="m 48.228,54.44 a 8.7233,8.7237 0 1 1 0,-17.447 8.7233,8.7237 0 0 1 0,17.447 z" />
  <g
     id="g1132"
     transform="translate(30.23,-2.09)"
     clip-path="url(#clipPath3999)">
    <path
       style="fill:#ccbb98;fill-rule:evenodd"
       inkscape:connector-curvature="0"
       id="path1134"
       d="m 17.999,14.802 c -18.215,0 -32.998,14.784 -32.998,32.999 0,18.216 14.783,32.999 32.998,32.999 18.215,0 32.998,-14.784 32.998,-32.999 0,-18.216 -14.783,-32.999 -32.998,-32.999 z m 0,21.254 c 6.4832,-10e-7 11.745,5.262 11.745,11.745 0,6.4835 -5.2617,11.745 -11.745,11.745 -6.4832,0 -11.745,-5.262 -11.745,-11.745 0,-6.4835 5.2618,-11.745 11.745,-11.745 z" />
    <path
       inkscape:connector-curvature="0"
       style="opacity:0.8;fill:url(#linearGradient11614);fill-rule:evenodd"
       id="path1136"
       d="M 34.498,19.421 C 18.724,10.313 -1.47,15.725 -10.577,31.5 -19.685,47.275 -14.274,67.47 1.501,76.577 17.275,85.685 37.469,80.274 46.576,64.499 55.684,48.724 50.273,28.529 34.498,19.421 Z M 23.872,37.827 c 5.6146,3.2417 7.5406,10.43 4.299,16.045 -3.2416,5.6149 -10.429,7.5409 -16.044,4.2991 -5.6146,-3.2417 -7.5406,-10.43 -4.299,-16.045 3.2416,-5.6149 10.429,-7.5409 16.044,-4.2991 z" />
    <g
       style="opacity:0.6;filter:url(#filter4195)"
       id="g1138"
       transform="matrix(0.91667,0,0,0.91667,-26,-78.5)"
       clip-path="url(#clipPath4187)">
      <use
         height="100%"
         width="100%"
         y="0"
         x="0"
         id="use1140"
         transform="matrix(1.5055,0.86922,-0.95673,1.6571,27.56,21.5)"
         xlink:href="#SVGCleanerId_0" />
      <use
         height="100%"
         width="100%"
         y="0"
         x="0"
         id="use1142"
         transform="matrix(1.6792,0.44994,-0.49524,1.8483,-1.896,30.76)"
         xlink:href="#SVGCleanerId_1" />
      <use
         height="100%"
         width="100%"
         y="0"
         x="0"
         id="use1144"
         transform="matrix(1.7384,0,0,1.9135,-27.951,47.33)"
         xlink:href="#SVGCleanerId_2" />
      <use
         height="100%"
         width="100%"
         y="0"
         x="0"
         id="use1146"
         transform="matrix(1.6792,-0.44994,0.49524,1.8483,-48.831,70.08)"
         xlink:href="#SVGCleanerId_3" />
      <use
         height="100%"
         width="100%"
         y="0"
         x="0"
         id="use1148"
         transform="matrix(1.6792,0.44994,-0.49524,1.8483,-1.896,30.76)"
         xlink:href="#SVGCleanerId_4" />
      <use
         height="100%"
         width="100%"
         y="0"
         x="0"
         id="use1150"
         transform="matrix(-1.5055,-0.86922,0.95673,-1.6571,68.44,254.5)"
         xlink:href="#SVGCleanerId_0" />
      <use
         height="100%"
         width="100%"
         y="0"
         x="0"
         id="use1152"
         transform="matrix(-1.6792,-0.44994,0.49524,-1.8483,97.9,245.24)"
         xlink:href="#SVGCleanerId_1" />
      <use
         height="100%"
         width="100%"
         y="0"
         x="0"
         id="use1154"
         transform="matrix(-1.7384,0,0,-1.9135,123.95,228.67)"
         xlink:href="#SVGCleanerId_2" />
      <use
         height="100%"
         width="100%"
         y="0"
         x="0"
         id="use1156"
         transform="matrix(-1.6792,0.44994,-0.49524,-1.8483,144.83,205.92)"
         xlink:href="#SVGCleanerId_3" />
      <use
         height="100%"
         width="100%"
         y="0"
         x="0"
         id="use1158"
         transform="matrix(-1.6792,-0.44994,0.49524,-1.8483,97.9,245.24)"
         xlink:href="#SVGCleanerId_4" />
    </g>
  </g>
  <path
     inkscape:connector-curvature="0"
     style="opacity:0.6;fill:none;stroke:url(#linearGradient11612);stroke-linecap:round"
     id="path1160"
     d="m 48.228,49.74 a 4.0686,4.0687 0 1 1 0,-8.1374 4.0686,4.0687 0 0 1 0,8.1374 z" />
  <path
     inkscape:connector-curvature="0"
     style="color:#000000;opacity:0.5;fill:url(#linearGradient11610)"
     id="path1162"
     d="m 58.006,45.74 c 0,-5.3023 -4.3305,-9.6882 -9.7828,-9.6882 -5.4524,0 -9.7722,4.3859 -9.7722,9.6882 0,5.302 4.3199,9.6791 9.7722,9.6791 5.4524,0 9.7828,-4.3771 9.7828,-9.6791 z m -1.1023,0 c 0,4.8915 -3.9397,8.7703 -8.6805,8.7703 -4.7408,0 -8.6699,-3.8788 -8.6699,-8.7703 0,-4.8918 3.9291,-8.7794 8.6699,-8.7794 4.7408,0 8.6805,3.8876 8.6805,8.7794 z" />
  <path
     style="opacity:0.6;fill-rule:evenodd"
     inkscape:connector-curvature="0"
     id="path1164"
     d="m 44.981,62.94 -4.7643,0.01 -3.584,0 -0.36484,1.4779 2.7148,0.01 0.62773,0 c 1.7427,0 2.8076,0.6849 2.5109,1.8851 -0.32014,1.3152 -1.8487,1.8903 -3.4606,1.8903 l -0.60091,0 0.77796,-3.2324 -2.6987,0 -1.1535,4.7207 3.8415,0 c 2.8804,0 5.6313,-1.475 6.1057,-3.3786 0.09462,-0.3464 0.08602,-1.2148 -0.1395,-1.7337 0,-0.023 -0.01508,-0.032 -0.02682,-0.078 -0.0122,-0.012 -0.02059,-0.093 0.02682,-0.1044 0.02391,-0.012 0.06873,0.035 0.08049,0.047 0.02351,0.058 0.03755,0.099 0.03755,0.099 l 2.4412,6.7154 6.2237,-6.8303 2.629,0 0.6331,0 c 1.7427,0 2.8065,0.6849 2.5217,1.8851 -0.33189,1.3153 -1.8593,1.8903 -3.4713,1.8903 l -0.60627,0 0.78333,-3.2323 -2.7041,0 -1.1482,4.7206 3.8415,0 c 2.8808,0 5.6435,-1.475 6.1057,-3.3786 0.47413,-1.8923 -1.5659,-3.3734 -4.4585,-3.3734 l -5.7247,0 c 0,0 -1.518,1.7437 -1.8027,2.0784 -1.5053,1.765 -1.7817,2.2385 -1.8295,2.3655 0.01192,-0.127 -0.04668,-0.598 -0.68675,-2.3864 -0.1775,-0.4847 -0.71894,-2.0575 -0.71894,-2.0575 l -1.9583,0 0,-0.01 z m 2.468,8.3551 c -7.3026,0 -13.22,0.8189 -13.22,1.8225 0,1.0154 5.9174,1.8224 13.22,1.8224 7.3024,0 13.225,-0.807 13.225,-1.8224 0,-1.0036 -5.923,-1.8225 -13.225,-1.8225 z m -0.47751,1.2585 c 1.6716,0 3.026,0.2663 3.026,0.6005 0,0.3347 -1.3544,0.611 -3.026,0.611 -1.6718,0 -3.0206,-0.2763 -3.0206,-0.611 0,-0.3342 1.3488,-0.6005 3.0206,-0.6005 z" />
  <path
     style="opacity:0.15;fill:none;stroke:#000000;stroke-width:3;stroke-linecap:round"
     inkscape:connector-curvature="0"
     id="path1166"
     d="m 62.968,45.84 a 14.74,14.74 0 0 1 -29.479,0 14.74,14.74 0 1 1 29.479,0 z" />
  <rect
     style="color:#000000;opacity:0.1"
     id="rect1168"
     width="1"
     height="21"
     y="12.91002"
     x="48.23" />
  <rect
     style="color:#000000;opacity:0.1"
     id="rect1170"
     transform="matrix(0,-1,-1,0,0,0)"
     width="1"
     height="21"
     y="-81.230003"
     x="-44.939987" />
  <path
     style="opacity:0.5;fill:#ffffff;fill-rule:evenodd"
     inkscape:connector-curvature="0"
     id="path1172"
     d="m 48.229,12.72 c -18.215,0 -33,14.784 -33,33 0,0.1686 -0.003,0.332 0,0.5 0.26532,-17.987 14.951,-32.5 33,-32.5 18.049,0 32.735,14.513 33,32.5 0.003,-0.168 0,-0.3314 0,-0.5 0,-18.216 -14.785,-33 -33,-33 z" />
  <g
     id="g14291">
    <path
       d="m 5.2922679,73.685059 0,5.0663 c 0,6.668 5.3645011,12.032 12.0320011,12.032 l 61.049,0 c 6.668,0 12.032,-5.3645 12.032,-12.032 l 0,-5.0663 c 0,6.6681 -5.3645,12.032 -12.032,12.032 l -61.049,0 c -6.668,0 -12.0320011,-5.3643 -12.0320011,-12.032 z"
       id="path64"
       inkscape:connector-curvature="0"
       style="opacity:0.4;fill:url(#linearGradient14237);fill-opacity:1" />
    <path
       inkscape:connector-curvature="0"
       id="path14214"
       d="m 5.2929688,72.717592 0,1.15039 c 0,6.667718 5.3632502,12.031248 12.0312502,12.031248 l 61.048828,0 c 6.6675,0 12.03125,-5.36313 12.03125,-12.031248 l 0,-1.15039 c 0,6.668098 -5.36375,12.031248 -12.03125,12.031248 l -61.048828,0 c -6.668,0 -12.0312502,-5.36355 -12.0312502,-12.031248 z"
       style="opacity:0.5;fill:url(#linearGradient14245);fill-opacity:1" />
  </g>
</svg>
