<svg height="96" width="96" xmlns="http://www.w3.org/2000/svg" xmlns:xlink="http://www.w3.org/1999/xlink" xmlns:sodipodi="http://sodipodi.sourceforge.net/DTD/sodipodi-0.dtd" xmlns:inkscape="http://www.inkscape.org/namespaces/inkscape">
 <defs>
  <linearGradient x2="0" y1="20.221" y2="138.66" gradientUnits="userSpaceOnUse" id="linearGradient3613-6">
   <stop stop-color="#fff"/>
   <stop stop-color="#fff" stop-opacity="0" offset="1"/>
  </linearGradient>
  <clipPath id="clipPath3613-5">
   <use xlink:href="#SVGCleanerId_1"/>
  </clipPath>
  <filter x="-0.192" y="-0.192" height="1.384" color-interpolation-filters="sRGB" id="filter3794-72" width="1.384">
   <feGaussianBlur stdDeviation="5.28"/>
  </filter>
  <linearGradient id="linearGradient3825">
   <stop/>
   <stop offset="0.6"/>
   <stop stop-opacity="0" offset="1"/>
  </linearGradient>
  <clipPath id="clipPath3613-74">
   <use xlink:href="#SVGCleanerId_1"/>
  </clipPath>
  <linearGradient x2="0" y1="90" y2="5.988" gradientUnits="userSpaceOnUse" id="linearGradient14009" gradientTransform="matrix(1.0631 0 0 1.0631 -2.77 -3.644)">
   <stop stop-color="#dcdcdc"/>
   <stop stop-color="#f0f0f0" offset="1"/>
  </linearGradient>
  <linearGradient x2="0" xlink:href="#linearGradient3825" y1="48" y2="8" spreadMethod="reflect" gradientUnits="userSpaceOnUse" id="linearGradient14028" gradientTransform="matrix(1 0 0 1 -98.03 949.91)"/>
  <linearGradient x2="0" xlink:href="#linearGradient3825" y1="48" y2="8" spreadMethod="reflect" gradientUnits="userSpaceOnUse" id="linearGradient14030" gradientTransform="matrix(0 1 -1 0 -4.533 952.91)"/>
  <linearGradient x2="0" y1="80" y2="16" gradientUnits="userSpaceOnUse" id="linearGradient14034" gradientTransform="matrix(1 0 0 1 -101.03 949.91)">
   <stop stop-color="#323232"/>
   <stop stop-color="#5a5a5a" offset="1"/>
  </linearGradient>
  <linearGradient x1="42" x2="54" gradientUnits="userSpaceOnUse" id="linearGradient14036" gradientTransform="matrix(1 0 0 1 33.03 949.91)">
   <stop stop-color="#464646"/>
   <stop stop-color="#464646" stop-opacity="0" offset="1"/>
  </linearGradient>
  <linearGradient x2="0" y1="56" y2="36" gradientUnits="userSpaceOnUse" id="linearGradient14038" gradientTransform="matrix(1 0 0 1 -101.03 949.91)">
   <stop stop-color="#e66b19"/>
   <stop stop-color="#e69e19" offset="1"/>
  </linearGradient>
  <rect x="15" stroke-width="0.5" rx="12" y="15" fill="url(#linearGradient3613-6)" stroke="#fff" height="66" filter="url(#filter3794-72)" id="SVGCleanerId_0" opacity="0.1" width="66" stroke-linecap="round"/>
  <rect x="6" rx="6" y="6" height="84" id="SVGCleanerId_1" width="84"/>
 </defs>
 <g transform="matrix(1 0 0 1 0 -956.36)">
  <rect x="3.353" rx="12.724" y="959.35" fill-opacity="0.02" height="89.98" width="89.62"/>
  <rect x="3.959" rx="12.552" y="959.96" fill-opacity="0.039" height="88.76" width="88.41"/>
  <rect x="4.564" rx="12.38" y="960.57" fill-opacity="0.078" height="87.55" width="87.2"/>
  <rect x="5.17" rx="12.208" y="961.18" fill-opacity="0.157" height="86.33" width="85.991"/>
  <path d="m17.75 5.4062c-6.642 0-11.969 5.3948-11.969 12.063l0.0002 61.031c0 6.668 5.3268 12.031 11.969 12.031h60.812c6.642 0 11.969-5.363 11.969-12.031v-61.031c0-6.668-5.327-12.063-11.969-12.063l-60.812 0.0002z" fill="url(#linearGradient14009)" transform="matrix(1 0 0 1 0 956.36)"/>
  <path d="m5.7756 1029.8v5.0663c0 6.668 5.3434 12.032 11.985 12.032h60.809c6.6418 0 11.985-5.3645 11.985-12.032v-5.0663c0 6.6681-5.3434 12.032-11.985 12.032h-60.809c-6.6418 0-11.985-5.3643-11.985-12.032z" fill-opacity="0.118"/>
  <path d="m5.7756 1033.9v1.0133c0 6.668 5.3434 12.032 11.985 12.032h60.809c6.6418 0 11.985-5.3645 11.985-12.032v-1.0133c0 6.6681-5.3434 12.032-11.985 12.032h-60.809c-6.6418 0-11.985-5.3644-11.985-12.032z" fill-opacity="0.098"/>
  <use xlink:href="#SVGCleanerId_0" clip-path="url(#clipPath3613-5)" transform="matrix(1 0 0 1 -21.881 961.94)"/>
  <g transform="matrix(1 0 0 1 101.74 4.364)">
   <path d="m-83.033 957.91v80h1v-80h-1zm10 0v80h1v-80h-1zm10 0v80h1v-80h-1zm10 0v80h1v-80h-1zm10 0v80h1v-80h-1zm10 0v80h1v-80h-1zm10 0v80h1v-80h-1z" fill="url(#linearGradient14028)" color="#000000" opacity="0.1"/>
   <path d="m-12.533 967.91h-80v1h80v-1zm0 10h-80v1h80v-1zm0 10h-80v1h80v-1zm0 10h-80v1h80v-1zm0 10h-80v1h80v-1zm0 10h-80v1h80v-1zm0 10h-80v1h80v-1z" fill="url(#linearGradient14030)" color="#000000" opacity="0.1"/>
   <use xlink:href="#SVGCleanerId_0" clip-path="url(#clipPath3613-74)" transform="matrix(1 0 0 1 -101.03 949.91)"/>
   <path d="m-73.033 967.91v6h-4v6.0312h4v35.938h-4v6.0312h4v4h-3l4 8 4-8h-3v-4h18c13.296 0 24-10.704 24-24s-10.704-24-24-24h-18v-6h-2zm2 12.031h18c10.06 0 17.969 7.9089 17.969 17.969s-7.9089 17.969-17.969 17.969h-18v-35.938z" fill="url(#linearGradient14034)" color="#000000"/>
   <rect x="47.03" y="997.91" fill="url(#linearGradient14036)" color="#000000" height="2" width="40" transform="matrix(-1 0 0 1 0 0)"/>
   <path d="m-39.033 998.92-8 4v-8z" fill="#464646" color="#000000"/>
   <rect x="-75.03" y="963.91" fill="#505050" color="#000000" height="6" width="6"/>
   <rect x="-74.03" y="964.91" fill="#87f042" color="#000000" height="4" width="4"/>
   <path d="m-59.127 984.95c-0.78567 0.068-1.476 0.5976-1.7468 1.3377-3.2927 6.5957-6.5855 13.192-9.8782 19.787-0.64294 1.0496 0.20841 2.666 1.4688 2.75 2.148 0.072 4.3125 0.011 6.4669 0.031h13.908c1.3114-0.058 2.23-1.6128 1.625-2.7812-0.66878-1.1936-1.2626-2.5084-1.9026-3.7485-2.7652-5.5181-5.5016-11.063-8.2849-16.564-0.4115-0.5032-0.9925-0.8438-1.6562-0.8125zm0.09375 13.25c0.63542 1.2604 1.2708 2.5209 1.9062 3.7813h-3.8125c0.63542-1.2604 1.2708-2.5209 1.9062-3.7813z" color="#000000" opacity="0.05"/>
   <path d="m-59.221 985.98a0.94282 0.94282 0 0 0 -0.65625 0.5312l-10 20a0.94282 0.94282 0 0 0 0.84375 1.3437h20a0.94282 0.94282 0 0 0 0.84375 -1.3437l-10-20a0.94282 0.94282 0 0 0 -1.0312 -0.5312zm0.1875 10.031 3.5 6.9688h-7l3.5-6.9688z" color="#000000" opacity="0.1"/>
   <path d="m-59.033 986.92-10 20h20l-10-20zm0 7 5 10h-10l5-10z" color="#000000" opacity="0.3"/>
   <path d="m-59.033 985.92-10 20h20l-10-20zm0 7 5 10h-10l5-10z" fill="url(#linearGradient14038)" color="#000000"/>
   <path d="m-59.033 985.92-10 20h0.5l9.5-19 9.5 19h0.5l-10-20zm-4.5 17-0.5 1h10l-0.5-1h-9z" fill="#fc0" color="#000000" opacity="0.5"/>
  </g>
 </g>
</svg>
