<?xml version="1.0" encoding="UTF-8" standalone="no"?>
<svg
   xmlns:dc="http://purl.org/dc/elements/1.1/"
   xmlns:cc="http://creativecommons.org/ns#"
   xmlns:rdf="http://www.w3.org/1999/02/22-rdf-syntax-ns#"
   xmlns:svg="http://www.w3.org/2000/svg"
   xmlns="http://www.w3.org/2000/svg"
   xmlns:xlink="http://www.w3.org/1999/xlink"
   xmlns:sodipodi="http://sodipodi.sourceforge.net/DTD/sodipodi-0.dtd"
   xmlns:inkscape="http://www.inkscape.org/namespaces/inkscape"
   height="96"
   width="96"
   id="svg2"
   version="1.1"
   inkscape:version="0.91 r13725"
   sodipodi:docname="docky.svg">
  <metadata
     id="metadata105">
    <rdf:RDF>
      <cc:Work
         rdf:about="">
        <dc:format>image/svg+xml</dc:format>
        <dc:type
           rdf:resource="http://purl.org/dc/dcmitype/StillImage" />
      </cc:Work>
    </rdf:RDF>
  </metadata>
  <sodipodi:namedview
     pagecolor="#ffffff"
     bordercolor="#666666"
     borderopacity="1"
     objecttolerance="10"
     gridtolerance="10"
     guidetolerance="10"
     inkscape:pageopacity="0"
     inkscape:pageshadow="2"
     inkscape:window-width="640"
     inkscape:window-height="480"
     id="namedview103"
     showgrid="false"
     inkscape:zoom="2.4583333"
     inkscape:cx="48"
     inkscape:cy="48"
     inkscape:current-layer="svg2" />
  <defs
     id="defs4">
    <clipPath
       id="clipPath2973">
      <use
         xlink:href="#SVGCleanerId_0"
         id="use7" />
    </clipPath>
    <linearGradient
       x2="0"
       y1="20.221"
       y2="138.66"
       gradientUnits="userSpaceOnUse"
       id="linearGradient3613-52">
      <stop
         stop-color="#fff"
         id="stop10" />
      <stop
         stop-color="#fff"
         stop-opacity="0"
         offset="1"
         id="stop12" />
    </linearGradient>
    <clipPath
       id="clipPath3613-92">
      <use
         xlink:href="#SVGCleanerId_0"
         id="use15" />
    </clipPath>
    <filter
       x="-0.192"
       y="-0.192"
       height="1.384"
       color-interpolation-filters="sRGB"
       id="filter3794-8"
       width="1.384">
      <feGaussianBlur
         stdDeviation="5.28"
         id="feGaussianBlur18" />
    </filter>
    <linearGradient
       x2="0"
       y1="90"
       y2="5.988"
       gradientUnits="userSpaceOnUse"
       id="linearGradient14349"
       gradientTransform="matrix(1.0536,0,0,-1.0536,-2.321,98.82)">
      <stop
         stop-color="#51cfee"
         id="stop21" />
      <stop
         stop-color="#49a3d2"
         offset="0.262"
         id="stop23" />
      <stop
         stop-color="#3470b4"
         offset="0.705"
         id="stop25" />
      <stop
         stop-color="#1b5699"
         offset="1"
         id="stop27" />
    </linearGradient>
    <linearGradient
       x2="0"
       y1="32.375"
       y2="226.18"
       gradientUnits="userSpaceOnUse"
       id="linearGradient14390"
       gradientTransform="matrix(0.32811,0,0,0.34059,6.361,3.973)">
      <stop
         stop-color="#fff"
         id="stop30" />
      <stop
         stop-color="#ced3d6"
         offset="1"
         id="stop32" />
    </linearGradient>
    <rect
       x="6"
       rx="6"
       y="6"
       height="84"
       id="SVGCleanerId_0"
       width="84" />
    <linearGradient
       inkscape:collect="always"
       xlink:href="#linearGradient14231"
       id="linearGradient14237"
       x1="50.707542"
       y1="81.682442"
       x2="50.707542"
       y2="96.539803"
       gradientUnits="userSpaceOnUse" />
    <linearGradient
       inkscape:collect="always"
       id="linearGradient14231">
      <stop
         style="stop-color:#000000;stop-opacity:1;"
         offset="0"
         id="stop14233" />
      <stop
         style="stop-color:#000000;stop-opacity:0;"
         offset="1"
         id="stop14235" />
    </linearGradient>
    <linearGradient
       inkscape:collect="always"
       xlink:href="#linearGradient14239"
       id="linearGradient14245"
       x1="49.876652"
       y1="87.937508"
       x2="49.876652"
       y2="76.719681"
       gradientUnits="userSpaceOnUse" />
    <linearGradient
       inkscape:collect="always"
       id="linearGradient14239">
      <stop
         style="stop-color:#ffffff;stop-opacity:1;"
         offset="0"
         id="stop14241" />
      <stop
         style="stop-color:#ffffff;stop-opacity:0;"
         offset="1"
         id="stop14243" />
    </linearGradient>
  </defs>
  <rect
     style="fill-opacity:0.02000002"
     id="rect37"
     width="89.620003"
     height="89.980003"
     y="2.9899757"
     rx="12.724"
     x="3.3529999" />
  <rect
     style="fill-opacity:0.03900003"
     id="rect39"
     width="88.410004"
     height="88.760002"
     y="3.6000221"
     rx="12.552"
     x="3.9590001" />
  <rect
     style="fill-opacity:0.078"
     id="rect41"
     width="87.199997"
     height="87.550003"
     y="4.2100072"
     rx="12.38"
     x="4.5640001" />
  <rect
     style="fill-opacity:0.15700001"
     id="rect43"
     width="85.990997"
     height="86.330002"
     y="4.8199925"
     rx="12.208"
     x="5.1700001" />
  <path
     inkscape:connector-curvature="0"
     style="fill:url(#linearGradient14349)"
     id="path45"
     d="m 17.75,5.4062 c -6.642,0 -11.969,5.3948 -11.969,12.063 l 2e-4,61.031 c 0,6.668 5.3268,12.031 11.969,12.031 l 60.812,0 c 6.642,0 11.969,-5.363 11.969,-12.031 l 0,-61.031 c 0,-6.668 -5.327,-12.063 -11.969,-12.063 l -60.812,2e-4 z" />
  <rect
     style="opacity:0.1;fill:url(#linearGradient3613-52);stroke:#ffffff;stroke-width:0.5;stroke-linecap:round;filter:url(#filter3794-8)"
     id="rect51"
     transform="translate(-0.5,-20)"
     width="66"
     height="66"
     clip-path="url(#clipPath3613-92)"
     y="15"
     rx="12"
     x="15" />
  <g
     id="g53"
     transform="translate(154,-943.86)">
    <g
       style="opacity:0.9;fill:#aaeeff"
       id="g55"
       transform="translate(-154,943.86)"
       clip-path="url(#clipPath2973)">
      <path
         style="opacity:0.15"
         inkscape:connector-curvature="0"
         id="path57"
         d="M 48,48 72,-8 88,-8 48,48 Z" />
      <path
         style="opacity:0.15"
         inkscape:connector-curvature="0"
         id="path59"
         d="M 48,48 103.25,73.677 102.77,89.67 48,48 Z" />
      <path
         style="opacity:0.15"
         inkscape:connector-curvature="0"
         id="path61"
         d="M 48,48 -11.828,59.516 -20.797,46.266 48,48 Z" />
      <path
         style="opacity:0.15"
         inkscape:connector-curvature="0"
         id="path63"
         d="M 48,48 -1.311,12.217 2.2249,-3.387 47.9999,48 Z" />
      <path
         style="opacity:0.15"
         inkscape:connector-curvature="0"
         id="path65"
         d="M 48,48 65.519,-14.073 95.955,-1.359 48,48 Z" />
      <path
         style="opacity:0.15"
         inkscape:connector-curvature="0"
         id="path67"
         d="M 48,48 109.64,28.999 115.49,61.46 48,48 Z" />
      <path
         style="opacity:0.15"
         inkscape:connector-curvature="0"
         id="path69"
         d="M 48,48 16.754,104.42 -9.969,85.089 48,48 Z" />
      <path
         style="opacity:0.15"
         inkscape:connector-curvature="0"
         id="path71"
         d="M 48,48 -14.812,33.349 -3.508,2.361 48,48 Z" />
      <path
         style="opacity:0.15"
         inkscape:connector-curvature="0"
         id="path73"
         d="M 48,48 93.81,93.403 90.118,102.43 48,48 Z" />
      <path
         style="opacity:0.15"
         inkscape:connector-curvature="0"
         id="path75"
         d="m 48,48 -2.9701,64.43 -9.1685,3.31 L 47.9994,48 Z" />
      <path
         style="opacity:0.15"
         inkscape:connector-curvature="0"
         id="path77"
         d="M 48,48 3.141,94.343 -5.9239,90.758 48.0001,48 Z" />
      <path
         style="opacity:0.15"
         inkscape:connector-curvature="0"
         id="path79"
         d="M 48,48 -14.116,65.366 -20.132,57.696 48,48 Z" />
      <path
         style="opacity:0.15"
         inkscape:connector-curvature="0"
         id="path81"
         d="M 48,48 18.853,-9.537 25.203,-16.933 48,48 Z" />
      <path
         style="opacity:0.15"
         inkscape:connector-curvature="0"
         id="path83"
         d="m 48,48 59.482,-24.939 6.921,6.8641 L 48,47.9991 Z" />
      <path
         style="opacity:0.15"
         inkscape:connector-curvature="0"
         id="path85"
         d="M 48,48 88.187,93.793 81.29,108.23 48,48 Z" />
      <path
         style="opacity:0.15"
         inkscape:connector-curvature="0"
         id="path87"
         d="M 48,48 12.042,-1.184 20.194,-14.951 48,48 Z" />
    </g>
    <g
       id="g89"
       transform="translate(-154,943.86)">
      <path
         style="opacity:0.05"
         inkscape:connector-curvature="0"
         id="path91"
         d="m 48,13.094 c -5.6303,0 -10.252,4.627 -10.25,10.25 -7.35e-4,2.4509 0.97644,4.5789 2.4375,6.25 l -5.9375,0 c -2.0701,0 -3.8125,1.6971 -3.8125,3.8125 l 0,2.75 c 0,2.062 1.67,3.844 3.812,3.844 l 8.0938,0 0,29.062 c -0.59842,-0.05288 -0.97529,-0.15064 -2.125,-0.46875 -2.5828,-0.75822 -5.0973,-1.8461 -7.5,-3.125 -9e-5,-5e-5 -0.0259,0.0026 -0.03125,0 -0.02009,-0.01115 -0.04268,-0.01998 -0.0625,-0.03125 -0.0275,-0.01235 -0.04235,-0.02457 -0.0625,-0.03125 -0.11939,-0.0694 -0.2293,-0.17645 -0.34375,-0.25 0.16593,-0.38791 0.2457,-0.67874 0.25,-0.84375 0.0014,-0.002 0.06123,-0.06039 0.0625,-0.0625 0.0013,-0.0021 0.0301,-0.09157 0.03125,-0.09375 0.0012,-0.0022 0.06146,-0.09152 0.0625,-0.09375 10e-4,-0.0022 0.03034,-0.09146 0.03125,-0.09375 9.15e-4,-0.0023 0.03046,-0.09142 0.03125,-0.09375 7.92e-4,-0.0023 0.03058,-0.09138 0.03125,-0.09375 6.67e-4,-0.0024 0.03071,-0.09135 0.03125,-0.09375 5.4e-4,-0.0024 -4.11e-4,-0.09132 0,-0.09375 4.11e-4,-0.0024 0.03097,-0.12255 0.03125,-0.125 2.81e-4,-0.0024 -1.51e-4,-0.09129 0,-0.09375 1.51e-4,-0.0025 -2e-5,-0.09129 0,-0.09375 2e-5,-0.0025 1.11e-4,-0.09129 0,-0.09375 a 0.88006,0.88006 0 0 0 0,-0.03125 c -0.0062,-0.08457 -0.06093,-0.15624 -0.09375,-0.25 -0.01102,-0.03147 0.01158,-0.06591 0,-0.09375 -0.0012,-0.0029 -0.03005,0.0028 -0.03125,0 -0.01156,-0.02733 0.01077,-0.07265 0,-0.09375 -0.01404,-0.02978 -0.01892,-0.04118 -0.03125,-0.0625 -0.02467,-0.04264 -0.06412,-0.12736 -0.0625,-0.125 -0.15902,-0.97666 -0.42648,-1.9171 -0.90625,-2.7188 a 0.88006,0.88006 0 0 0 0,-0.03125 c -1.056,-1.737 -2.5149,-2.8383 -3.8125,-3.7188 -0.0064,-0.0044 -0.02485,0.0043 -0.03125,0 a 0.88006,0.88006 0 0 0 -0.062,-0.062 0.88006,0.88006 0 0 0 0,-0.03125 c -3.89e-4,-3.85e-4 -0.0266,0.0043 -0.03125,0 0.28657,0.19264 0.28022,0.17748 -0.03125,-0.03125 -0.02416,-0.02225 -0.03,-0.06143 -0.03125,-0.0625 -0.0025,-0.0021 -0.09111,-0.06054 -0.09375,-0.0625 -0.0026,-0.002 -0.12223,-0.09199 -0.125,-0.09375 -1.3105,-0.83688 -2.3776,-1.6809 -2.75,-2.2812 a 0.88006,0.88006 0 0 0 -0.03125,0 c -0.01,-0.03 -0.022,-0.039 -0.032,-0.063 a 0.88006,0.88006 0 0 0 -0.03125,-0.0625 c -6.79e-4,-7.4e-4 -0.02043,-0.0204 -0.03125,-0.03125 -0.0054,-0.0054 0.0067,-0.02457 0,-0.03125 A 0.88006,0.88006 0 0 0 24.53055,53.2187 c -0.0096,-0.01544 -0.02249,0.01331 -0.03125,0 -0.01897,-0.02884 -0.01601,-0.01121 -0.03125,-0.03125 -0.0082,-0.01079 0.0072,-0.02264 0,-0.03125 -0.0072,-0.0086 0.0062,-0.02457 0,-0.03125 -0.01421,-0.01747 -0.02159,-0.02194 -0.03125,-0.03125 -0.0033,-0.0033 -0.03088,3.39e-4 -0.03125,0 l 0,-0.03125 c -0.012,-0.007 -0.065,-0.065 -0.063,-0.063 -0.08,-0.122 -0.125,-0.24 -0.282,-0.406 -0.19896,-0.2115 -0.66846,-0.68933 -1.375,-0.9375 -0.55503,-0.19495 -1.0961,-0.09444 -1.625,0 0.07466,0.02722 0.18045,0.07501 0.15625,0.0625 -0.02654,-0.01371 -0.1643,-0.03716 -0.28125,-0.0625 -0.10047,0.02165 -0.21563,-0.02987 -0.3125,0 -0.01905,0.0048 -0.04671,-0.0051 -0.0625,0 -0.01579,0.0051 -0.0495,-0.0046 -0.0625,0 -0.0032,0.0011 -0.15319,0.06115 -0.15625,0.0625 -0.0031,0.0014 -0.12204,0.06093 -0.125,0.0625 -0.003,0.0016 -0.09091,0.06072 -0.09375,0.0625 -0.0028,0.0018 -0.1223,0.09177 -0.125,0.09375 -0.0027,0.002 -0.0912,0.06033 -0.09375,0.0625 -0.0025,0.0022 -0.12261,0.0914 -0.125,0.09375 -0.0024,0.0023 -0.09154,0.12248 -0.09375,0.125 -0.0022,0.0025 -0.06048,0.09108 -0.0625,0.09375 a 0.88006,0.88006 0 0 0 -0.09375,0.125 0.88006,0.88006 0 0 0 0,0.03125 c -0.57692,0.4237 -1.0584,0.84761 -1.3125,1.25 l -0.03,-0.031 -0.063,0.062 a 0.88006,0.88006 0 0 0 -0.03125,0.0625 c -0.0011,0.0013 -0.01044,0.0361 -0.03125,0.0625 -0.02081,0.0264 -0.06151,0.02989 -0.0625,0.03125 -0.002,0.0027 -0.09197,0.12215 -0.09375,0.125 -0.0018,0.0029 -0.06093,0.12203 -0.0625,0.125 -7.85e-4,0.0015 -0.01664,0.03223 -0.03125,0.0625 -0.01461,0.03027 -0.03057,0.06096 -0.03125,0.0625 -0.91753,1.7695 -1.3495,3.5287 -1.6875,5.0938 l 0.03125,0 c -0.34839,1.5613 -0.42483,3.094 -0.3125,4.5625 a 0.88006,0.88006 0 0 0 0.03125,0.1875 0.88006,0.88006 0 0 0 0.03125,0.0625 c 0.09134,1.1878 0.18204,2.7246 0.875,4.3438 0.0091,0.02182 0.04559,0.03727 0.0625,0.0625 0.02127,0.03174 0.03307,0.05966 0.0625,0.09375 0.53662,1.1746 1.2671,2.0682 1.8438,2.6875 l 0.657,-0.595 c -0.31075,0.3031 -0.57826,0.60942 -0.59375,0.625 l 0.03125,0.03125 0.03125,0.03125 c 0.0044,0.0044 -0.0025,0.02877 0,0.03125 0.0059,0.0059 0.02342,0.02343 0.03125,0.03125 l 0.03125,0.03125 c 0,0 0.0536,0.02978 0.09375,0.0625 0.0061,0.0061 0.02342,0.02343 0.03125,0.03125 0.0037,0.003 5.7e-5,0.03129 0,0.03125 0.0036,0.0036 0.0285,-0.0027 0.03125,0 0,0 0.0255,-0.0047 0.03125,0 0.01539,0.01269 0.03125,0.03125 0.03125,0.03125 0.03692,0.03013 0.06224,0.06233 0.0625,0.0625 4.6e-4,3.06e-4 0.03003,0.03044 0.03125,0.03125 0.0087,0.0058 0.01951,-0.0078 0.03125,0 0.01174,0.0078 0.02252,0.02543 0.03125,0.03125 0,0 0.0655,0.03374 0.125,0.0625 0.02975,0.01438 0.04588,0.02317 0.0625,0.03125 0.01016,0.0049 0.03161,0.03137 0.03125,0.03125 0.01296,0.0063 0.0407,-0.01056 0.0625,0 0.01,0.006 0.032,0.032 0.032,0.032 0.04709,0.02282 0.09417,0.06264 0.09375,0.0625 0.0018,5.9e-4 0.02702,-0.0014 0.03125,0 0.0054,0.0036 0.02712,-0.0028 0.03125,0 0.01174,0.0039 0.02225,0.02825 0.03125,0.03125 0.02184,0.01078 0.04949,-0.0064 0.0625,0 0.07753,0.02274 0.14385,0.06239 0.25,0.09375 0.01188,0.0035 0.02085,-0.0031 0.03125,0 0.01174,0.0039 0.02276,0.02842 0.03125,0.03125 0.0032,0.0011 0.02671,-0.0015 0.03125,0 0.01115,0.0034 0.06287,-4e-6 0.0625,0 0.0054,0.0018 -0.0042,0.02986 0,0.03125 0,0 0.2826,0.03124 0.28125,0.03125 0.0054,0.0018 0.02725,-0.0013 0.03125,0 0,0 0.05011,1.14e-4 0.0625,0 0.06167,0.01032 0.125,0 0.125,0 0.13922,-0.0012 0.25189,1.17e-4 0.3125,0 0.01212,-2.3e-5 0.06284,-1.17e-4 0.0625,0 0.004,-0.0013 0.02586,0.0018 0.03125,0 0,0 0.28258,-0.0317 0.28125,-0.03125 0.0042,-0.0014 -0.0054,-0.02944 0,-0.03125 0.02741,-0.0043 0.03151,0.0049 0.0625,0 0.0045,-0.0015 0.02805,0.0011 0.03125,0 0.0085,-0.0028 0.01951,-0.02734 0.03125,-0.03125 0.01076,-0.0017 0.0251,9.6e-4 0.03125,0 0.10563,-0.03286 0.17394,-0.0703 0.25,-0.09375 0.02819,-0.0087 0.0941,-0.03149 0.09375,-0.03125 0.01105,-0.0054 0.02123,0.0049 0.03125,0 0.0042,-0.0014 0.02947,5.9e-4 0.03125,0 0,0 0.04696,-0.03941 0.09375,-0.0625 0.0092,-0.0031 0.01951,-0.02732 0.03125,-0.03125 0.02249,-0.011 0.0531,-0.01155 0.09375,-0.03125 0.01623,-0.008 0.03395,-0.0172 0.0625,-0.03125 0.01022,-0.0049 0.03125,-0.03125 0.03125,-0.03125 0.03801,-0.01872 0.0936,-0.03115 0.09375,-0.03125 0.0087,-0.0058 0.01951,-0.02342 0.03125,-0.03125 0.01174,-0.0078 0.0225,0.0058 0.03125,0 0.0012,-8.14e-4 0.03079,-0.03094 0.03125,-0.03125 0,0 0.02419,-0.03084 0.0625,-0.0625 0.0089,-0.006 0.01951,-0.02342 0.03125,-0.03125 0.03845,-0.03146 0.09375,-0.0625 0.09375,-0.0625 0.03937,-0.03246 0.09396,-0.06271 0.09375,-0.0625 0.0057,-0.0057 0.02342,-0.02343 0.03125,-0.03125 l 0.03125,-0.03125 c 0.0025,-0.0025 -0.0044,-0.02687 0,-0.03125 l 0.03125,-0.03125 c 0.01174,-0.01174 0.02249,-0.0225 0.03125,-0.03125 l 0.032,-0.031 c 0.27133,-0.28688 0.51246,-0.53043 0.75,-0.78125 0.21601,0.12205 0.46894,0.29463 0.75,0.5 l 0.03125,0 0,-0.03125 c 0.0162,0.01262 0.04628,0.01855 0.0625,0.03125 -0.01819,-0.01081 -0.04609,0.01209 -0.0625,0 0.01932,0.01271 0.04139,0.02012 0.0625,0.03125 0.90901,0.71308 1.829,1.56 2.9688,2.4062 l 0.03125,0 0,-0.03125 c 0.05477,0.04174 0.10132,0.08395 0.15625,0.125 0.0057,0.0032 0.03132,2.8e-5 0.03125,0 0.0063,0.0022 0.0192,0.02727 0.03125,0.03125 1.8272,1.3562 3.7418,2.3442 5.5625,3.2188 a 0.88006,0.88006 0 0 0 0.157,0.124 c -0.02733,-0.01269 -0.0059,-4.9e-4 0.0625,0.03125 a 0.88006,0.88006 0 0 0 0.0625,0 c 6.28e-4,2.44e-4 0.0205,-0.0039 0.03125,0 l 0,0.03125 c 0.03723,0.01725 0.08766,0.01398 0.125,0.03125 1.4124,0.65318 2.8939,1.296 4.4375,1.875 4.51e-4,2.68e-4 0.09909,0.05229 0.125,0.0625 0.0048,0.0024 0.03867,0.01941 0.0625,0.03125 0.0149,0.0074 0.0095,0.02144 0.03125,0.03125 0.05003,0.02254 0.04924,-0.01259 0.09375,0 0.03132,0.0089 0.03426,0.0263 0.0625,0.03125 0.28643,0.10903 0.53152,0.14427 0.71875,0.1875 0.02786,0.01706 0.0723,0.03962 0.0625,0.03125 -0.0039,-0.0033 0.0313,2.5e-5 0.03125,0 0.02914,0.009 0.10219,0.02047 0.125,0.03125 0.06151,0.02908 0.06564,0.08296 0.34375,0.03125 5.9e-5,-1.1e-5 -0.25011,-1.4e-5 -0.25,0 1.12e-4,1.4e-5 -0.09391,-0.03129 -0.09375,-0.03125 3.24e-4,7.6e-5 -0.08031,0.0044 -0.09375,0 2.5784,1.0809 4.4084,2.1744 6,4.0625 0.01004,0.01191 0.02123,0.01927 0.03125,0.03125 0.0024,0.0048 -0.0029,0.02551 0,0.03125 0.0043,0.0086 0.02655,0.02186 0.03125,0.03125 0.0029,0.0032 -0.0036,0.02658 0,0.03125 0.0036,0.0073 0.02843,-0.0056 0.03125,0 -0.0021,-0.0044 0,0.03125 0,0.03125 0,0 0.02368,0.02091 0.03125,0.03125 0.03913,0.05344 0.12677,0.18924 0.125,0.1875 l 0.03125,0.03125 c 0.01149,0.01149 0.0156,0.01559 0.03125,0.03125 0.01565,0.01566 0.01942,0.01941 0.03125,0.03125 l 0.03125,0.03125 c 0.0022,0.0022 0.02693,-0.0043 0.03125,0 l 0.03125,0.03125 c 0.01174,0.01174 0.02248,0.02247 0.03125,0.03125 0.0044,0.0044 -0.0025,0.02874 0,0.03125 0,0 0.09636,0.09567 0.09375,0.09375 0.0028,0.0021 0.02553,-0.0043 0.03125,0 -3.27e-4,-3.32e-4 0.02689,-0.0038 0.03125,0 0.0073,0.0055 -0.0078,0.02537 0,0.03125 0.0072,0.0063 0.02307,-0.0072 0.03125,0 0.0074,0.0055 -0.0059,0.02681 0,0.03125 0.0073,0.0064 0.02667,-0.004 0.03125,0 0.0018,0.0014 -0.0014,0.03017 0,0.03125 0,0 0.09318,0.09332 0.09375,0.09375 0.0035,0.0026 0.02537,-0.0044 0.03125,0 0.01176,0.0088 0.01559,0.01951 0.03125,0.03125 0.01566,0.01174 0.01972,0.0226 0.03125,0.03125 0.0058,0.0043 0.02829,-0.0022 0.03125,0 -0.0017,-0.0013 0,0.03125 0,0.03125 0,0 0.09364,0.03119 0.09375,0.03125 0.0042,0.0025 -0.0073,0.02686 0,0.03125 0.01464,0.0088 0.04293,0.01951 0.0625,0.03125 0.01957,0.01174 0.04798,0.02253 0.0625,0.03125 -9.77e-4,-5.92e-4 0.03125,0 0.03125,0 0,0 0.03129,0.03127 0.03125,0.03125 7.66e-4,3.82e-4 0.02959,-8.3e-4 0.03125,0 0.01169,0.0058 0.01559,0.02343 0.03125,0.03125 0.01566,0.0078 0.05095,0.02547 0.0625,0.03125 0,0 0.16997,0.0459 0.21875,0.0625 0.0087,0.0029 0.03195,0.03138 0.03125,0.03125 0.01417,0.0028 0.04293,-0.0039 0.0625,0 0.01957,0.0039 0.04756,-0.003 0.0625,0 0.0075,0.0015 -0.0049,0.03027 0,0.03125 -0.0027,-0.0011 0.03125,0 0.03125,0 0,0 0.09353,0.03119 0.09375,0.03125 0.0034,8.43e-4 0.02539,-0.0015 0.03125,0 0.01172,0.0029 0.0156,0.02734 0.03125,0.03125 0.01565,0.0039 0.05102,-0.0029 0.0625,0 0,0 0.22277,0.0312 0.21875,0.03125 0.03191,0.0032 0.0918,-0.0035 0.125,0 0.0071,0.0014 -0.0032,0.0306 0,0.03125 -0.0042,-9e-4 0.03125,0 0.03125,0 a 0.88006,0.88006 0 0 0 0.125,0 c 8.2e-4,1.7e-5 0.03031,-1.8e-5 0.03125,0 0.0176,1.3e-4 0.06414,7.03e-4 0.09375,0 -0.01448,3.43e-4 -0.01282,0.001 0.03125,0 a 0.88006,0.88006 0 0 0 0.03125,0 l 0.03125,0 c 0.02576,4.34e-4 0.04631,9.5e-5 0.0625,0 a 0.88006,0.88006 0 0 0 0.15625,0 c 0.0044,-7.38e-4 0.02261,0.0014 0.03125,0 0.01036,-0.0017 0.01776,-0.02901 0.03125,-0.03125 a 0.88006,0.88006 0 0 0 0.125,0 c 0,0 0.2659,-0.05368 0.3125,-0.0625 -3.92e-4,7.6e-5 0.0237,0.0022 0.03125,0 0.0142,-0.0057 0.04292,-0.02344 0.0625,-0.03125 0.01957,-0.0039 0.04826,0.0028 0.0625,0 -0.004,7.44e-4 0.03125,0 0.03125,0 0,0 0.15661,-0.06265 0.15625,-0.0625 0.01458,-0.0058 0.04293,-0.02342 0.0625,-0.03125 0.01957,-0.0078 0.04798,-0.02545 0.0625,-0.03125 0,0 0.15806,-0.0636 0.15625,-0.0625 0.01444,-0.0087 0.04292,-0.01951 0.0625,-0.03125 0.01958,-0.01174 0.04781,-0.02244 0.0625,-0.03125 0.0073,-0.0044 -0.0043,-0.02865 0,-0.03125 0,0 0.09631,-0.06446 0.09375,-0.0625 0.0028,-0.0021 0.02553,0.0043 0.03125,0 0.01145,-0.0086 0.01559,-0.01951 0.03125,-0.03125 0.01566,-0.01174 0.01944,-0.0224 0.03125,-0.03125 0.0059,-0.0044 0.02767,0.0027 0.03125,0 0,0 7.17e-4,-0.03179 0,-0.03125 0.0032,-0.0024 0.02544,0.0044 0.03125,0 0.01163,-0.0087 0.01559,-0.01951 0.03125,-0.03125 0.01566,-0.01174 0.01962,-0.02253 0.03125,-0.03125 0.0058,-0.0044 0.02807,0.0024 0.03125,0 0.0013,-9.81e-4 -0.0018,-0.02991 0,-0.03125 0.0036,-0.0027 0.02535,0.0044 0.03125,0 0.0118,-0.0089 0.0156,-0.0195 0.03125,-0.03125 0.01565,-0.01175 0.0198,-0.02266 0.03125,-0.03125 0.0057,-0.0043 0.02847,0.0021 0.03125,0 l 0.09375,-0.09375 c 0.0033,-0.0033 0.02541,-0.0254 0.03125,-0.03125 0.01168,-0.01169 0.01559,-0.01559 0.03125,-0.03125 l 0.03125,-0.03125 0.03125,-0.03125 c 0,0 0.09489,-0.09529 0.09375,-0.09375 0.0022,-0.003 -0.0043,-0.02548 0,-0.03125 0.0087,-0.01155 0.01951,-0.0156 0.03125,-0.03125 0.01174,-0.01565 0.02247,-0.01955 0.03125,-0.03125 0.0044,-0.0059 -0.0025,-0.0279 0,-0.03125 3.12e-4,-4.15e-4 0.03118,9.7e-5 0.03125,0 0,0 0.03227,-0.09547 0.03125,-0.09375 0.0023,-0.0038 0.02692,0.0072 0.03125,0 0.0087,-0.01446 0.0195,-0.04293 0.03125,-0.0625 0.01477,-0.02186 0.03125,-0.0625 0.03125,-0.0625 0.01173,-0.01566 0.02274,-0.0199 0.03125,-0.03125 0.0043,-0.0057 -0.0019,-0.0287 0,-0.03125 l -0.023,-0.03 -0.656,-0.5 -0.781,-0.406 c 0,0 0.44222,0.15906 0.875,0.3125 l 0.625,0.53125 c 1.5708,-1.832 3.4375,-2.895 6,-3.9688 0.12465,-0.05223 0.14116,-0.06405 0.0625,-0.03125 0.19192,-0.04298 0.46829,-0.09963 0.78125,-0.21875 0.01499,-0.0057 0.01606,-0.0253 0.03125,-0.03125 0.01385,-0.0015 0.01616,0.0017 0.03125,0 a 0.88006,0.88006 0 0 0 0.09375,0 c 0.02179,-0.0098 0.01635,-0.02385 0.03125,-0.03125 0.02384,-0.01184 0.05768,-0.02881 0.0625,-0.03125 1.5957,-0.5923 3.1136,-1.2669 4.5625,-1.9375 0.0022,-6.07e-4 0.09162,-0.03054 0.09375,-0.03125 0.0021,-7.11e-4 0.09165,-0.03044 0.09375,-0.03125 L 62.51015,77 a 0.88006,0.88006 0 0 0 0.0625,-0.0625 c 0.02838,-0.01359 0.06533,-0.01761 0.09375,-0.03125 a 0.88006,0.88006 0 0 0 0.094,-0.063 c 1.8024,-0.86722 3.6932,-1.8465 5.5,-3.1875 0.0078,-0.0026 0.03135,-0.03129 0.03125,-0.03125 0.0072,-0.0054 0.02406,0.0054 0.03125,0 0.05493,-0.04105 0.10148,-0.08326 0.15625,-0.125 l 0,0.03125 0.03125,0 c 1.1397,-0.84624 2.0597,-1.6932 2.9688,-2.4062 0.02111,-0.01113 0.04318,-0.01854 0.0625,-0.03125 -0.01641,0.0121 -0.04431,-0.01082 -0.0625,0 0.01622,-0.0127 0.0463,-0.01863 0.0625,-0.03125 l 0,0.03125 c 0.0086,-0.0057 0.02309,0.006 0.03125,0 0.28106,-0.20537 0.53399,-0.37796 0.75,-0.5 0.23754,0.25082 0.47866,0.49436 0.75,0.78125 l 0.625,-0.59375 c -0.31075,0.3031 -0.57826,0.60942 -0.59375,0.625 l 0.03125,0.03125 0.03125,0.03125 c 0.0044,0.0044 -0.0025,0.02877 0,0.03125 0.0059,0.0059 0.02342,0.02343 0.03125,0.03125 l 0.03125,0.03125 c 0,0 0.0536,0.02978 0.09375,0.0625 0.0061,0.0061 0.02342,0.02343 0.03125,0.03125 0.0037,0.003 5.7e-5,0.03129 0,0.03125 0.0036,0.0036 0.0285,-0.0027 0.03125,0 0.02948,0.0243 0.0625,0.03125 0.0625,0.03125 0.03692,0.03013 0.06224,0.06233 0.0625,0.0625 4.6e-4,3.06e-4 0.03003,0.03044 0.03125,0.03125 0.0087,0.0058 0.01951,-0.0078 0.03125,0 0.01174,0.0078 0.02252,0.02543 0.03125,0.03125 0,0 0.0655,0.03374 0.125,0.0625 0.02975,0.01438 0.04588,0.02317 0.0625,0.03125 0.01016,0.0049 0.03161,0.03137 0.03125,0.03125 0.01296,0.0063 0.0407,-0.01056 0.0625,0 0.011,0.007 0.032,0.033 0.032,0.033 0.04709,0.02282 0.09417,0.06264 0.09375,0.0625 0.0018,5.9e-4 0.02702,-0.0014 0.03125,0 0.0054,0.0036 0.02712,-0.0028 0.03125,0 0,0 0.0282,-8.93e-4 0.03125,0 0.0055,0.0018 -0.0045,0.02975 0,0.03125 0.0021,6.84e-4 0.02696,-0.0014 0.03125,0 0.0093,0.0046 0.02475,-0.0032 0.03125,0 0.07752,0.02274 0.14385,0.06239 0.25,0.09375 0.01188,0.0035 0.02085,-0.0031 0.03125,0 0.01174,0.0039 0.02276,0.02842 0.03125,0.03125 0.0032,0.0011 0.02671,-0.0015 0.03125,0 0.01115,0.0034 0.06288,-4e-6 0.0625,0 0.0054,0.0018 -0.0042,0.02986 0,0.03125 0,0 0.2826,0.03124 0.28125,0.03125 0.0054,0.0018 0.02725,-0.0013 0.03125,0 0,0 0.05011,1.14e-4 0.0625,0 0.08671,-8.01e-4 0.35264,1.63e-4 0.4375,0 0.01212,-2.3e-5 0.06284,-1.17e-4 0.0625,0 0.004,-0.0013 0.02586,0.0018 0.03125,0 0,0 0.28258,-0.0317 0.28125,-0.03125 0.0042,-0.0014 -0.0054,-0.02944 0,-0.03125 0.02741,-0.0043 0.03151,0.0049 0.0625,0 0.0045,-0.0015 0.02805,0.0011 0.03125,0 0.0085,-0.0028 0.01951,-0.02734 0.03125,-0.03125 0.01076,-0.0017 0.0251,9.6e-4 0.03125,0 0.10563,-0.03286 0.17394,-0.0703 0.25,-0.09375 0.02819,-0.0087 0.0941,-0.03149 0.09375,-0.03125 0.01105,-0.0054 0.02123,0.0049 0.03125,0 0.0042,-0.0014 0.02947,5.9e-4 0.03125,0 0,0 0.04696,-0.03941 0.09375,-0.0625 0.0092,-0.0031 0.01951,-0.02732 0.03125,-0.03125 0.0225,-0.011 0.0531,-0.01155 0.09375,-0.03125 0.01623,-0.008 0.03395,-0.0172 0.0625,-0.03125 0.01022,-0.0049 0.03125,-0.03125 0.03125,-0.03125 0.03801,-0.01872 0.0936,-0.03115 0.09375,-0.03125 0.0087,-0.0058 0.01951,-0.02342 0.03125,-0.03125 0.01174,-0.0078 0.0225,0.0058 0.03125,0 0.0012,-8.14e-4 0.03079,-0.03094 0.03125,-0.03125 0,0 0.02419,-0.03084 0.0625,-0.0625 0.0089,-0.006 0.01951,-0.02342 0.03125,-0.03125 0.039,-0.032 0.094,-0.063 0.094,-0.063 0.03937,-0.03246 0.09396,-0.06271 0.09375,-0.0625 0.0057,-0.0057 0.02342,-0.02343 0.03125,-0.03125 L 77.1677,71.5008 c 0.0025,-0.0025 -0.0044,-0.02687 0,-0.03125 l 0.03125,-0.03125 0.03125,-0.03125 -0.59375,-0.625 0.65625,0.59375 c 0.50075,-0.5378 0.98558,-1.2872 1.4375,-2.0938 0.0021,-0.0017 0.09179,-0.09191 0.09375,-0.09375 4.9e-4,-4.59e-4 -0.0073,-0.02404 0,-0.03125 0.02182,-0.02164 0.06111,-0.02979 0.0625,-0.03125 0.0019,-0.0019 0.09202,-0.0917 0.09375,-0.09375 0.0017,-0.0021 0.06089,-0.0916 0.0625,-0.09375 0.0016,-0.0021 0.06101,-0.06026 0.0625,-0.0625 0.0015,-0.0022 0.06115,-0.09143 0.0625,-0.09375 0.0014,-0.0023 0.03003,-0.1226 0.03125,-0.125 0.0012,-0.0024 0.06143,-0.09129 0.0625,-0.09375 0.0029,-0.0069 -0.0031,-0.02349 0,-0.03125 0.0028,-0.0067 -0.0029,-0.02376 0,-0.03125 0.0024,-0.0062 -0.0025,-0.0242 0,-0.03125 0.0031,-0.0085 0.02787,-0.02117 0.03125,-0.03125 0.0031,-0.0098 -0.003,-0.0202 0,-0.03125 0.0041,-0.01004 -0.0041,-0.02122 0,-0.03125 0.01331,-0.057 0.02989,-0.17954 0.03125,-0.21875 0.0014,0.05254 0.0032,0.08149 0,0.125 0.59818,-1.5221 0.72447,-2.9653 0.8125,-4.0938 a 0.88006,0.88006 0 0 0 0,-0.03125 c 0.0015,-0.01933 0.02975,-0.04336 0.03125,-0.0625 a 0.88006,0.88006 0 0 0 0.031,-0.156 c 0.11234,-1.4686 0.03587,-3.0012 -0.3125,-4.5625 l 0.03125,0 c -0.343,-1.585 -0.778,-3.366 -1.719,-5.157 a 0.88006,0.88006 0 0 0 -0.063,-0.094 c -0.0014,-0.0034 -0.03024,0.0025 -0.03125,0 -0.0023,-0.0058 1.8e-5,-0.03122 0,-0.03125 -3e-4,-5.09e-4 0.0045,-0.02399 0,-0.03125 -2.03e-4,-4.44e-4 -0.02888,0.0048 -0.03125,0 -0.0036,-0.0072 0.0062,-0.0188 0,-0.03125 -6.79e-4,-7.4e-4 -0.02043,-0.0204 -0.03125,-0.03125 -4.26e-4,-6.39e-4 0.0075,-0.0206 0,-0.03125 a 0.88006,0.88006 0 0 0 -0.031,-0.031 l 0,-0.03125 a 0.88006,0.88006 0 0 0 -0.125,-0.157 l -0.0625,-0.0625 -0.03125,0.03125 c -0.25656,-0.41255 -0.73582,-0.88756 -1.375,-1.3438 -0.0073,-0.0052 0.0073,-0.02607 0,-0.03125 a 0.88006,0.88006 0 0 0 -0.062,-0.094 c 0,0 -0.2155,-0.18542 -0.21875,-0.1875 -0.01061,-0.0068 -0.0444,-0.01971 -0.0625,-0.03125 -0.03619,-0.02309 -0.0746,-0.06151 -0.125,-0.09375 -0.03877,-0.0248 -0.05521,-0.0063 -0.09375,-0.03125 a 0.88006,0.88006 0 0 0 -0.03125,0 c -0.0031,-0.003 0.01113,-0.02112 0,-0.03125 -0.0069,-0.0062 -0.03753,-0.01184 -0.0625,-0.03125 a 0.88006,0.88006 0 0 0 -0.3125,-0.1875 c -0.01921,-0.0063 -0.04313,0.006 -0.0625,0 -0.11625,-0.03585 -0.25367,0.0239 -0.375,0 -0.02899,0.0071 -0.04028,-0.0073 -0.0625,0 -0.52889,-0.09444 -1.07,-0.19494 -1.625,0 -0.70656,0.24817 -1.1761,0.72603 -1.375,0.9375 -0.18448,0.19612 -0.26397,0.34279 -0.34375,0.46875 L 71.5737,53.0929 c -0.0086,0.01376 -0.02383,0.05072 -0.03125,0.0625 -0.002,0.0032 -0.02934,-0.003 -0.03125,0 a 0.88006,0.88006 0 0 0 0,0.03125 0.88006,0.88006 0 0 0 -0.03125,0 c -0.01006,0.01514 0.0112,0.01323 0,0.03125 -0.01758,0.02482 -0.03026,0.06101 -0.03125,0.0625 -0.01082,0.01085 -0.03057,0.03051 -0.03125,0.03125 a 0.88006,0.88006 0 0 0 -0.09375,0.125 c -0.37238,0.60034 -1.4395,1.4444 -2.75,2.2812 -0.0019,0.0012 -0.0919,0.06117 -0.09375,0.0625 -0.0018,0.0013 -0.06072,0.06108 -0.0625,0.0625 -0.0018,0.0014 -0.06079,0.06099 -0.0625,0.0625 -6.56e-4,5.8e-4 -0.01906,0.01993 -0.03125,0.03125 -0.0073,0.0068 -0.02394,-0.0068 -0.03125,0 -0.01218,0.01132 -0.03062,0.03064 -0.03125,0.03125 -0.03254,0.03245 -0.09171,0.09153 -0.09375,0.09375 -1.3035,0.88436 -2.7579,1.9841 -3.8125,3.7188 a 0.88006,0.88006 0 0 0 0,0.03125 c -0.42906,0.71688 -0.63683,1.5742 -0.8125,2.4375 -0.01241,0.01531 -0.03124,0.03123 -0.03125,0.03125 -7.2e-5,1.03e-4 -0.06242,0.12483 -0.0625,0.125 -4.7e-4,9.87e-4 -0.0588,0.08266 -0.0625,0.09375 -0.0037,0.01109 0.0027,0.02294 0,0.03125 -0.0053,0.01662 -0.0256,0.04486 -0.03125,0.0625 -0.0113,0.03528 -0.0089,0.08528 0,0.0625 a 0.88006,0.88006 0 0 0 -0.0625,0.15625 c -0.0037,0.01934 0.0016,0.0362 0,0.0625 a 0.88006,0.88006 0 0 0 0,0.03125 c -0.0012,0.02689 -0.0011,0.03228 0,0.0625 -0.02152,0.07214 -0.05789,0.12481 -0.0625,0.1875 a 0.88006,0.88006 0 0 0 0,0.03125 c -1.06e-4,0.0023 -1.2e-5,0.09141 0,0.09375 1.2e-5,0.0023 -1.3e-4,0.09142 0,0.09375 1.3e-4,0.0023 -2.48e-4,0.09143 0,0.09375 2.48e-4,0.0023 0.03088,0.09144 0.03125,0.09375 3.65e-4,0.0023 -4.81e-4,0.09146 0,0.09375 4.81e-4,0.0023 0.03065,0.09149 0.03125,0.09375 5.96e-4,0.0023 0.03054,0.09152 0.03125,0.09375 7.09e-4,0.0022 0.03043,0.09156 0.03125,0.09375 8.21e-4,0.0022 0.03032,0.09161 0.03125,0.09375 9.3e-4,0.0021 0.03021,0.06041 0.03125,0.0625 10e-4,0.0021 0.06136,0.09171 0.0625,0.09375 0.0011,0.002 0.03001,0.09177 0.03125,0.09375 6.22e-4,9.9e-4 0.01832,0.01177 0.03125,0.03125 0.0043,0.16501 0.08407,0.45584 0.25,0.84375 -0.11445,0.07355 -0.22436,0.1806 -0.34375,0.25 -0.01958,0.01138 -0.04268,0.01998 -0.0625,0.03125 -0.0275,0.01235 -0.04967,0.02506 -0.0625,0.03125 -0.0053,0.0026 -0.03116,-5e-5 -0.03125,0 -2.4027,1.2789 -4.9172,2.3668 -7.5,3.125 -1.1497,0.31811 -1.5266,0.41588 -2.125,0.46875 l 0,-29.062 8.0938,0 c 2.0549,0 3.8125,-1.6998 3.8125,-3.8438 l 0,-2.75 c 0,-2.1283 -1.7537,-3.8125 -3.8125,-3.8125 l -5.9375,0 c 1.4611,-1.6711 2.4382,-3.7991 2.4375,-6.25 0.0017,-5.623 -4.6197,-10.25 -10.25,-10.25 z M 47.844,22.5 c 0.29134,0 0.44217,0.07174 0.53125,0.15625 0.08908,0.08451 0.15632,0.2063 0.15625,0.4375 1.14e-4,0.38053 -0.30322,0.6875 -0.6875,0.6875 -0.3843,0 -0.68762,-0.30695 -0.6875,-0.6875 -7e-5,-0.23122 0.06717,-0.353 0.15625,-0.4375 0.089,-0.084 0.239,-0.156 0.531,-0.156 z M 24.719,53.625 c -0.0052,-0.02114 0.02192,-0.04346 0.03125,0 0.0023,0.01087 -0.0047,0.02962 0,0.0625 C 24.74445,53.65655 24.7216,53.63557 24.719,53.625 Z m 46.531,0 c 0.0093,-0.04345 0.03646,-0.02113 0.03125,0 -0.0026,0.01057 -0.02542,0.03155 -0.03125,0.0625 0.0047,-0.03286 -0.0023,-0.05164 0,-0.0625 z m -7.875,9.0312 c -0.01651,0.02603 -0.01078,0.10787 -0.03125,0.15625 -0.0012,0.0028 -0.03004,-0.0029 -0.03125,0 0.03594,-0.12648 0.11707,-0.24231 0.0625,-0.15625 z m 15.906,5.3125 c 0.0075,0.02074 0.03129,0.06273 0.03125,0.0625 0.0016,0.0046 1.6e-5,0.03135 0,0.03125 0.0043,0.01601 -1.4e-5,0.0623 0,0.0625 -0.006,-0.02275 -0.01207,-0.08432 -0.03125,-0.15625 z m -26.344,2.125 0.03125,0 0.15625,0.84375 c 0,0 -0.09105,-0.4251 -0.1875,-0.84375 z m 0.1875,0 0.03125,0 0.0625,0.8125 c 0,0 -0.04456,-0.41014 -0.09375,-0.8125 z m -2.968,12.782 c 0.25961,0.09245 0.54447,0.20981 0.5625,0.21875 -0.0012,0.0051 6.07e-4,0.02885 0,0.03125 l -0.5625,-0.25 z" />
      <path
         style="opacity:0.07999998"
         inkscape:connector-curvature="0"
         id="path93"
         d="m 48,13.969 c -5.1477,0 -9.3765,4.2347 -9.375,9.375 -8.98e-4,2.9952 1.5619,5.479 3.75,7.125 l -8.125,0 c -1.5859,0 -2.9375,1.309 -2.9375,2.9375 l 0,2.75 c 0,1.5849 1.2876,2.9688 2.9375,2.9688 l 8.9688,0 0,30.906 c -0.09287,0.01211 -0.14761,0.0193 -0.25,0.03125 a 1.0189,1.0189 0 0 0 -0.03125,0 1.0189,1.0189 0 0 0 -0.15625,-0.03125 c -0.97187,-0.006 -1.4568,-0.21865 -2.8125,-0.59375 -2.6587,-0.78052 -5.2321,-1.8786 -7.6875,-3.1875 -0.0084,-0.0047 -0.02288,0.0046 -0.03125,0 -0.51578,-0.28631 -0.92103,-0.58687 -1.375,-0.875 0.15273,-0.12002 0.3647,-0.21151 0.46875,-0.34375 0.23421,-0.29764 0.17706,-0.67567 0.25,-1.0312 a 1.0189,1.0189 0 0 0 0.3125,-0.78125 c -0.0067,-0.09178 -0.04487,-0.0942 -0.0625,-0.15625 -0.03029,-0.1066 -0.05702,-0.26975 -0.0625,-0.28125 -0.008,-0.013 0.004,0.119 0.029,0.218 -0.112,-1.008 -0.429,-1.954 -0.906,-2.75 -0.975,-1.605 -2.369,-2.663 -3.656,-3.531 a 1.0189,1.0189 0 0 0 -0.031,-0.031 c -0.012,-0.008 -0.02,-0.024 -0.031,-0.032 a 1.0189,1.0189 0 0 0 -0.21875,-0.1875 c -1.338,-0.85444 -2.4951,-1.6982 -3.0312,-2.5625 a 1.0189,1.0189 0 0 0 -0.0625,-0.0625 c 0.01656,0.0248 -0.0076,-0.04205 0,-0.03125 a 1.0189,1.0189 0 0 0 -0.064,-0.063 c -0.01026,-0.01702 0.0125,-0.01084 0,-0.03125 1.52e-4,1.59e-4 -0.01531,-0.01531 -0.03125,-0.03125 -0.0061,-0.0098 -0.02476,-0.02109 -0.03125,-0.03125 -0.08627,-0.13499 -0.17806,-0.29262 -0.34375,-0.46875 -0.17464,-0.18565 -0.50401,-0.51328 -1,-0.6875 -0.54788,-0.19244 -1.0452,-0.16926 -1.5625,0 -0.03636,0.0095 -0.02083,-0.01481 -0.0625,0 a 1.0189,1.0189 0 0 0 -0.46875,0.34375 1.0189,1.0189 0 0 0 0,0.03125 c -0.79981,0.47083 -1.2804,1.0506 -1.5,1.4375 3.18e-4,-3.04e-4 -0.0628,0.06282 -0.0625,0.0625 a 1.0189,1.0189 0 0 0 -0.15625,0.25 c -0.87962,1.6739 -1.2859,3.3673 -1.625,4.9375 -0.32655,1.4634 -0.38808,2.9159 -0.28125,4.3125 a 1.0189,1.0189 0 0 0 0.03125,0.03125 c 0.09696,1.2251 0.18339,2.7383 0.84375,4.2812 0.01964,0.04726 0.03932,0.0229 0.0625,0.0625 0.4787,1.0974 1.1756,1.9143 1.75,2.5312 -3.44e-4,-3.63e-4 0.09411,0.0941 0.09375,0.09375 -3.62e-4,-3.46e-4 0.06288,0.06283 0.0625,0.0625 -3.79e-4,-3.27e-4 0.09415,0.06281 0.09375,0.0625 -3.95e-4,-3.07e-4 0.06291,0.06279 0.0625,0.0625 -4.1e-4,-2.87e-4 0.09417,0.06276 0.09375,0.0625 -4.24e-4,-2.65e-4 0.09419,0.03149 0.09375,0.03125 -4.37e-4,-2.43e-4 0.0942,0.06272 0.09375,0.0625 -4.49e-4,-2.21e-4 0.09421,0.03145 0.09375,0.03125 -4.59e-4,-1.98e-4 0.09422,0.03142 0.09375,0.03125 -4.69e-4,-1.74e-4 0.09423,0.06265 0.09375,0.0625 -4.77e-4,-1.5e-4 0.09423,1.26e-4 0.09375,0 -4.84e-4,-1.26e-4 0.09424,0.03135 0.09375,0.03125 -4.9e-4,-1.01e-4 0.09424,0.03133 0.09375,0.03125 -4.94e-4,-7.6e-5 0.09425,5.1e-5 0.09375,0 -4.98e-4,-5.1e-5 0.1255,2.5e-5 0.125,0 -5e-4,-2.5e-5 0.09425,0.03125 0.09375,0.03125 -5e-4,0 0.09425,-0.03127 0.09375,-0.03125 -5e-4,2.5e-5 0.1255,-5.1e-5 0.125,0 -4.98e-4,5.1e-5 0.09424,-7.6e-5 0.09375,0 -4.94e-4,7.6e-5 0.09424,-0.03135 0.09375,-0.03125 -4.9e-4,1.01e-4 0.09423,-0.03138 0.09375,-0.03125 -4.84e-4,1.26e-4 0.09423,-1.5e-4 0.09375,0 -4.77e-4,1.5e-4 0.09422,-0.06267 0.09375,-0.0625 -4.69e-4,1.74e-4 0.09421,-0.03145 0.09375,-0.03125 -4.59e-4,1.98e-4 0.0942,-0.03147 0.09375,-0.03125 -4.49e-4,2.21e-4 0.09419,-0.06274 0.09375,-0.0625 -4.37e-4,2.43e-4 0.09417,-0.03151 0.09375,-0.03125 -4.24e-4,2.65e-4 0.09416,-0.06279 0.09375,-0.0625 -4.1e-4,2.87e-4 0.0629,-0.06281 0.0625,-0.0625 -3.95e-4,3.07e-4 0.09413,-0.06283 0.09375,-0.0625 -3.79e-4,3.27e-4 0.06286,-0.06285 0.0625,-0.0625 -3.62e-4,3.46e-4 0.09409,-0.09411 0.09375,-0.09375 0.3739,-0.39533 0.74261,-0.80116 1.0625,-1.125 0.21895,-0.21438 0.10316,-0.11959 0.0625,-0.125 0.27062,0.03483 0.87317,0.3629 1.5312,0.84375 0.01035,0.0076 0.02087,-0.0077 0.03125,0 0.96388,0.75073 1.9062,1.6022 3.0312,2.4375 0.0071,0.0053 0.02414,-0.0053 0.03125,0 1.8558,1.4142 3.8337,2.426 5.75,3.3438 a 1.0189,1.0189 0 0 0 0.03125,0.03125 c 0.02046,0.0095 0.04202,0.02175 0.0625,0.03125 a 1.0189,1.0189 0 0 0 0.094,0.032 c 1.4784,0.6851 3.0275,1.3758 4.625,1.9688 0.0072,0.0043 0.05954,0.01393 0.09375,0.03125 0.02395,0.01213 0.03881,0.02058 0.0625,0.03125 0.01015,0.0046 0.0226,-0.0035 0.03125,0 0.29,0.11604 0.5299,0.17646 0.71875,0.21875 0.13184,0.02952 0.14746,0.03288 0.15625,0.03125 0.0038,-7.07e-4 0.11706,0.05075 0.0625,0.03125 2.6546,1.1128 4.6662,2.3019 6.375,4.3438 0.0047,0.0057 -0.0047,0.02557 0,0.03125 0.01637,0.02829 0.09409,0.12554 0.09375,0.125 -4.01e-4,-6.37e-4 0.06295,0.1256 0.0625,0.125 -4.49e-4,-6.04e-4 0.12549,0.12557 0.125,0.125 -4.93e-4,-5.68e-4 0.09428,0.09428 0.09375,0.09375 -5.35e-4,-5.29e-4 0.12557,0.09424 0.125,0.09375 -5.74e-4,-4.86e-4 0.09436,0.09419 0.09375,0.09375 -6.1e-4,-4.41e-4 0.12564,0.09414 0.125,0.09375 -6.42e-4,-3.93e-4 0.15692,0.09409 0.15625,0.09375 -6.7e-4,-3.43e-4 0.12569,0.06279 0.125,0.0625 -6.94e-4,-2.91e-4 0.15696,0.03149 0.15625,0.03125 -7.14e-4,-2.37e-4 0.15698,0.06268 0.15625,0.0625 -7.3e-4,-1.82e-4 0.12574,0.03137 0.125,0.03125 -7.42e-4,-1.25e-4 0.157,6.8e-5 0.15625,0 -7.49e-4,-6.8e-5 0.157,0.03126 0.15625,0.03125 -3.01e-4,-4e-6 0.0329,7.03e-4 0.0625,0 0.0148,-3.51e-4 0.01645,3.49e-4 0.03125,0 0.0296,-6.98e-4 0.0628,-1.9e-5 0.0625,0 0.01191,2e-6 0.0314,-5e-6 0.03125,0 0.03195,5.38e-4 0.06282,-8e-6 0.0625,0 -8.12e-4,2e-5 0.18831,-0.03134 0.1875,-0.03125 -8.08e-4,8.7e-5 0.15705,-1.53e-4 0.15625,0 -7.98e-4,1.53e-4 0.15703,-0.06272 0.15625,-0.0625 -7.82e-4,2.18e-4 0.15701,-0.03153 0.15625,-0.03125 -7.62e-4,2.82e-4 0.15699,-0.06284 0.15625,-0.0625 -7.36e-4,3.44e-4 0.15696,-0.09415 0.15625,-0.09375 -7.05e-4,4.03e-4 0.12567,-0.09421 0.125,-0.09375 -6.69e-4,4.6e-4 0.12563,-0.09426 0.125,-0.09375 -6.29e-4,5.14e-4 0.12558,-0.09431 0.125,-0.09375 -5.85e-4,5.64e-4 0.12554,-0.12561 0.125,-0.125 -5.36e-4,6.1e-4 0.09423,-0.12565 0.09375,-0.125 -4.84e-4,6.52e-4 0.09418,-0.15694 0.09375,-0.15625 -4.29e-4,6.9e-4 0.09412,-0.12572 0.09375,-0.125 -2.17e-4,4.24e-4 0.01143,-0.05076 0.03125,-0.09375 0.0082,-0.0177 0.02648,-0.02091 0.03125,-0.03125 1.6848,-1.9649 3.6947,-3.1218 6.3125,-4.2188 0.02317,-0.0097 0.03923,-0.02155 0.0625,-0.03125 0.0088,0.0016 0.02441,-0.0017 0.15625,-0.03125 0.18884,-0.04229 0.42875,-0.10272 0.71875,-0.21875 0.0086,-0.0035 0.0211,0.0046 0.03125,0 0.02368,-0.01067 0.03856,-0.01913 0.0625,-0.03125 0.02202,-0.0096 0.10819,-0.03983 0.09375,-0.03125 1.5884,-0.58958 3.1231,-1.2875 4.5938,-1.9688 a 1.0189,1.0189 0 0 0 0.1875,-0.0625 1.0189,1.0189 0 0 0 0.03125,-0.03125 c 1.9163,-0.91773 3.8942,-1.9295 5.75,-3.3438 0.0071,-0.0053 0.02415,0.0053 0.03125,0 1.125,-0.8353 2.0674,-1.6868 3.0312,-2.4375 0.01038,-0.0077 0.0209,0.0076 0.03125,0 0.65807,-0.48085 1.2606,-0.80891 1.5312,-0.84375 -0.04061,0.0054 -0.15645,-0.08938 0.0625,0.125 0.31989,0.32384 0.68859,0.72966 1.0625,1.125 -3.44e-4,-3.63e-4 0.09411,0.0941 0.09375,0.09375 -3.62e-4,-3.46e-4 0.06288,0.06283 0.0625,0.0625 -3.79e-4,-3.27e-4 0.09414,0.06281 0.09375,0.0625 -3.95e-4,-3.07e-4 0.06291,0.06279 0.0625,0.0625 -4.1e-4,-2.87e-4 0.09417,0.06276 0.09375,0.0625 -4.24e-4,-2.65e-4 0.09419,0.03149 0.09375,0.03125 -4.37e-4,-2.43e-4 0.0942,0.06272 0.09375,0.0625 -4.49e-4,-2.21e-4 0.09421,0.03145 0.09375,0.03125 -4.59e-4,-1.98e-4 0.09422,0.03142 0.09375,0.03125 -4.69e-4,-1.74e-4 0.09423,0.06265 0.09375,0.0625 -4.77e-4,-1.5e-4 0.09423,1.26e-4 0.09375,0 -4.84e-4,-1.26e-4 0.09424,0.03135 0.09375,0.03125 -4.9e-4,-1.01e-4 0.09424,0.03133 0.09375,0.03125 -4.94e-4,-7.6e-5 0.09425,5.1e-5 0.09375,0 -4.98e-4,-5.1e-5 0.1255,2.5e-5 0.125,0 -5e-4,-2.5e-5 0.09425,0.03125 0.09375,0.03125 -5e-4,0 0.09425,-0.03127 0.09375,-0.03125 -5e-4,2.5e-5 0.1255,-5.1e-5 0.125,0 -4.98e-4,5.1e-5 0.09424,-7.6e-5 0.09375,0 -4.94e-4,7.6e-5 0.09424,-0.03135 0.09375,-0.03125 -4.9e-4,1.01e-4 0.09423,-0.03138 0.09375,-0.03125 -4.84e-4,1.26e-4 0.09423,-1.5e-4 0.09375,0 -4.77e-4,1.5e-4 0.09422,-0.06267 0.09375,-0.0625 -4.69e-4,1.74e-4 0.09421,-0.03145 0.09375,-0.03125 -4.59e-4,1.98e-4 0.0942,-0.03147 0.09375,-0.03125 -4.49e-4,2.21e-4 0.09419,-0.06274 0.09375,-0.0625 -4.37e-4,2.43e-4 0.09417,-0.03151 0.09375,-0.03125 -4.24e-4,2.65e-4 0.09416,-0.06279 0.09375,-0.0625 -4.1e-4,2.87e-4 0.06289,-0.06281 0.0625,-0.0625 -3.95e-4,3.07e-4 0.09413,-0.06283 0.09375,-0.0625 -3.79e-4,3.27e-4 0.06286,-0.06285 0.0625,-0.0625 -3.62e-4,3.46e-4 0.09409,-0.09411 0.09375,-0.09375 0.4951,-0.53173 1.038,-1.3076 1.5,-2.1875 0.0031,-0.0059 0.02815,0.0059 0.03125,0 a 1.0189,1.0189 0 0 0 0.28125,-0.375 c 0.0089,-0.02109 -0.0075,-0.01145 0,-0.03125 0.009,-0.02166 -0.0075,-0.01105 0,-0.03125 0.64912,-1.5328 0.7474,-3.0327 0.84375,-4.25 a 1.0189,1.0189 0 0 0 0.027,-0.031 c 0.10684,-1.3967 0.04528,-2.8491 -0.28125,-4.3125 -0.33912,-1.5702 -0.74537,-3.2636 -1.625,-4.9375 a 1.0189,1.0189 0 0 0 -0.0625,-0.0625 c -0.0023,-0.004 0.0024,-0.02701 0,-0.03125 a 1.0189,1.0189 0 0 0 -0.063,-0.093 1.0189,1.0189 0 0 0 -0.031,-0.063 c 3.04e-4,3.18e-4 -0.06282,-0.0628 -0.0625,-0.0625 -0.2211,-0.38955 -0.68966,-0.99804 -1.5,-1.4688 -0.0078,-0.0045 -0.02336,0.0045 -0.03125,0 -0.0016,-0.003 1.8e-5,-0.03123 0,-0.03125 -2.46e-4,-2.94e-4 -0.37749,-0.24028 -0.4375,-0.28125 -0.005,-0.0034 -0.03122,-0.03124 -0.03125,-0.03125 -0.0195,-0.006 -0.01307,0.0047 -0.03125,0 -0.51737,-0.16928 -1.0146,-0.19243 -1.5625,0 -0.496,0.17422 -0.82537,0.50186 -1,0.6875 -0.16569,0.17613 -0.25748,0.33376 -0.34375,0.46875 -0.0065,0.01016 -0.02517,0.02146 -0.03125,0.03125 -0.01594,0.01594 -0.0314,0.03141 -0.03125,0.03125 a 1.0189,1.0189 0 0 0 -0.063,0.093 c 0.0076,-0.01079 -0.01655,0.05603 0,0.03125 a 1.0189,1.0189 0 0 0 -0.0625,0.0625 c -0.53614,0.86435 -1.6933,1.7081 -3.0312,2.5625 a 1.0189,1.0189 0 0 0 -0.15625,0.125 1.0189,1.0189 0 0 0 -0.0625,0.0625 c -1.3066,0.87563 -2.7255,1.96 -3.7188,3.5938 -0.47161,0.78799 -0.78952,1.7228 -0.90625,2.7188 0.02277,-0.07266 0.03642,-0.19834 0.03125,-0.1875 -0.0038,0.0079 -0.04173,0.1341 -0.0625,0.1875 -0.0031,0.01619 0.0022,0.01541 0,0.03125 -0.0023,0.02065 0.0021,0.04177 0,0.0625 -0.01763,0.06204 -0.05575,0.06447 -0.0625,0.15625 a 1.0189,1.0189 0 0 0 0.28125,0.75 1.0189,1.0189 0 0 0 0.032,0.031 c 0.07294,0.35558 0.0158,0.73362 0.25,1.0312 0.10405,0.13223 0.31602,0.22373 0.46875,0.34375 -0.45397,0.28813 -0.85922,0.58869 -1.375,0.875 -0.0084,0.0046 -0.02286,-0.0047 -0.03125,0 -2.4554,1.3089 -5.0288,2.407 -7.6875,3.1875 -1.3557,0.37511 -1.8407,0.58774 -2.8125,0.59375 a 1.0189,1.0189 0 0 0 -0.0625,0 c 9.45e-4,-6.5e-5 -0.18843,0.03141 -0.1875,0.03125 6.07e-4,-1.01e-4 -0.06895,0.01912 -0.125,0.03125 1.92e-4,-3.4e-5 -0.05179,0.0013 -0.0625,0 l 0,-30.969 8.9688,0 c 1.5625,0 2.9375,-1.3116 2.9375,-2.9688 l 0,-2.75 c 0,-1.6423 -1.3606,-2.9375 -2.9375,-2.9375 l -8.125,0 c 2.1881,-1.646 3.7509,-4.1298 3.75,-7.125 0.0015,-5.1403 -4.2274,-9.375 -9.375,-9.375 z m -0.156,7.656 c 0.95002,-1e-6 1.5628,0.59488 1.5625,1.4688 2.57e-4,0.85884 -0.69975,1.5625 -1.5625,1.5625 -0.86277,-1e-6 -1.5628,-0.70366 -1.5625,-1.5625 -2.63e-4,-0.87388 0.61246,-1.4688 1.5625,-1.4688 z" />
      <path
         style="opacity:0.2"
         inkscape:connector-curvature="0"
         id="path95"
         d="m 48,15 c -4.5915,0 -8.3451,3.7598 -8.3438,8.3438 -9.63e-4,3.2103 1.9389,5.8233 4.5938,7.1875 l 0,0.96875 -10,0 c -1.0131,0 -1.9062,0.85445 -1.9062,1.9062 l 0,2.75 c 0,1.0116 0.85385,1.9375 1.9062,1.9375 l 10,0 0,32.719 c -0.0394,0.01962 -0.04357,0.06354 -0.15625,0.09375 -0.324,0.08687 -0.83652,0.13749 -1.3125,0.1875 l 0,-0.03125 c -1.141,-0.0071 -1.7888,-0.29518 -3.0938,-0.65625 -2.7387,-0.804 -5.3853,-1.904 -7.9062,-3.25 -1.0606,-0.58803 -2.0177,-1.1617 -2.9062,-1.875 -0.01244,-0.01062 -0.01896,-0.02056 -0.03125,-0.03125 -0.17206,-0.14961 -0.35402,-0.3205 -0.4375,-0.4375 -0.08944,-0.12536 -0.06217,-0.16063 -0.0625,-0.15625 0.0073,-0.02502 -0.007,-0.04511 0,-0.0625 0.04017,0.0087 0.21971,0.0775 0.59375,0.21875 0.04114,0.01554 0.01606,0.01372 0.0625,0.03125 l 0,-0.03125 c 0.27737,0.10263 0.63448,0.12464 0.90625,0.03125 0.29049,-0.09983 0.48389,-0.25817 0.625,-0.4375 0.254,-0.32279 0.32914,-0.69124 0.28125,-1.125 l 0.0625,0 c -0.0025,-0.03431 -0.02804,-0.05966 -0.03125,-0.09375 -9.6e-4,-0.01022 10e-4,-0.02105 0,-0.03125 -0.08655,-0.86429 -0.38937,-1.668 -0.8125,-2.375 -0.92054,-1.5142 -2.3052,-2.5682 -3.625,-3.4375 a 0.98924,0.98924 0 0 0 0,-0.03125 c -1.3539,-0.86464 -2.6387,-1.7383 -3.3438,-2.875 A 0.98924,0.98924 0 0 0 23.03125,54.4065 c -0.03616,-0.05416 -0.11807,-0.25812 -0.375,-0.53125 -0.12846,-0.13656 -0.31588,-0.30865 -0.59375,-0.40625 -0.2686,-0.09435 -0.63089,-0.09009 -0.90625,0 -0.0095,0.0031 -0.02192,-0.0033 -0.03125,0 l 0,0.03125 c -0.96131,0.33438 -1.342,1.1283 -1.5938,1.5625 a 0.98924,0.98924 0 0 0 -0.032,0.03 c -0.80683,1.5354 -1.196,3.1351 -1.5312,4.6875 -0.29982,1.3436 -0.35074,2.7142 -0.25,4.0312 0.09716,1.2276 0.20259,2.6167 0.78125,3.9688 0.0062,0.01489 0.02494,0.01648 0.03125,0.03125 0.4031,0.94397 1.0337,1.6797 1.5938,2.2812 a 0.98924,0.98924 0 0 0 1.4375,0 c 0.36471,-0.38561 0.75141,-0.80968 1.0938,-1.1562 0.31671,-0.3101 0.58608,-0.44888 0.90625,-0.40625 0.62947,0.08102 1.3196,0.50668 2.0312,1.0312 1.0081,0.78392 1.9631,1.6228 3.0625,2.4375 1.7698,1.3525 3.6869,2.3368 5.5938,3.25 a 0.98924,0.98924 0 0 0 0.03125,0 c 1.5656,0.72703 3.1807,1.4535 4.8438,2.0625 0.03438,0.01502 0.02962,0.0181 0.0625,0.03125 0.44966,0.17991 0.79464,0.21011 0.90625,0.25 2.8056,1.1701 5.0312,2.4624 6.9062,4.75 a 0.98924,0.98924 0 0 0 0,0.03125 0.98924,0.98924 0 0 0 0.96875,0.59375 0.98924,0.98924 0 0 0 0.0625,0 0.98924,0.98924 0 0 0 1,-0.6875 0.98924,0.98924 0 0 0 0.03125,-0.0625 c 1.8538,-2.2088 4.0799,-3.4725 6.8438,-4.625 0.11162,-0.03989 0.4566,-0.07009 0.90625,-0.25 0.03288,-0.01315 0.02812,-0.01623 0.0625,-0.03125 1.6631,-0.60895 3.2782,-1.3355 4.8438,-2.0625 a 0.98924,0.98924 0 0 0 0.03125,0 c 1.9068,-0.91318 3.8239,-1.8975 5.5938,-3.25 1.0994,-0.81468 2.0544,-1.6536 3.0625,-2.4375 0.71164,-0.52456 1.4018,-0.95023 2.0312,-1.0312 0.32019,-0.04262 0.58955,0.09616 0.90625,0.40625 0.34234,0.34656 0.72903,0.77064 1.0938,1.1562 a 0.98924,0.98924 0 0 0 1.4375,0 c 0.56008,-0.60153 1.1907,-1.3373 1.5938,-2.2812 l 0.03125,0 c 0.0037,-0.0087 -0.0036,-0.02251 0,-0.03125 0.57866,-1.3521 0.68409,-2.7411 0.78125,-3.9688 0.10075,-1.317 0.04981,-2.6876 -0.25,-4.0312 -0.334,-1.553 -0.723,-3.153 -1.53,-4.688 a 0.98924,0.98924 0 0 0 -0.031,-0.032 c -0.252,-0.434 -0.633,-1.228 -1.594,-1.562 -0.0065,-0.0023 0.0066,-0.02903 0,-0.03125 -0.0093,-0.0033 -0.02175,0.0031 -0.03125,0 -0.27536,-0.0901 -0.63764,-0.09435 -0.90625,0 -0.27787,0.0976 -0.46528,0.26968 -0.59375,0.40625 -0.25693,0.27313 -0.33882,0.47706 -0.375,0.53125 a 0.98924,0.98924 0 0 0 -0.031,0.032 c -0.70508,1.1367 -1.9898,2.0104 -3.3438,2.875 a 0.98924,0.98924 0 0 0 0,0.03125 c -1.3198,0.86925 -2.7045,1.9233 -3.625,3.4375 -0.42313,0.70699 -0.72594,1.5107 -0.8125,2.375 -0.0023,0.01194 0.002,0.01945 0,0.03125 -0.0032,0.03409 -0.02873,0.05944 -0.03125,0.09375 l 0.0625,0 c -0.0479,0.43377 0.02725,0.8022 0.28125,1.125 0.14111,0.17933 0.3345,0.33767 0.625,0.4375 0.27178,0.09339 0.62888,0.07139 0.90625,-0.03125 l 0,0.03125 c 0.04645,-0.01753 0.02136,-0.01571 0.0625,-0.03125 0.37404,-0.14125 0.55358,-0.21008 0.59375,-0.21875 0.007,0.01738 -0.0073,0.03748 0,0.0625 -3.32e-4,-0.0044 0.02694,0.03089 -0.0625,0.15625 -0.08348,0.117 -0.26544,0.28788 -0.4375,0.4375 -0.01229,0.01069 -0.01881,0.02063 -0.03125,0.03125 -0.88852,0.71326 -1.8456,1.287 -2.9062,1.875 -2.521,1.346 -5.1675,2.446 -7.9062,3.25 -1.305,0.36107 -1.9528,0.6492 -3.0938,0.65625 a 0.98924,0.98924 0 0 0 -0.1875,0.03125 c -0.323,0.057 -0.765,-0.025 -1.063,-0.156 -0.117,-0.052 -0.174,-0.09 -0.219,-0.126 l 0,-32.719 10,0 c 1.0279,0 1.9062,-0.80904 1.9062,-1.9375 l 0,-2.75 c 0,-1.052 -0.914,-1.906 -1.906,-1.906 l -10,0 0,-0.96875 c 2.6548,-1.3642 4.5947,-3.9772 4.5938,-7.1875 0.001,-4.584 -3.753,-8.344 -8.344,-8.344 z m -0.15625,5.5938 c 1.4546,-1e-6 2.5942,1.0807 2.5938,2.5 4.25e-4,1.4193 -1.1705,2.5938 -2.5938,2.5938 -1.4232,-1e-6 -2.5942,-1.1744 -2.5938,-2.5938 -4.27e-4,-1.4193 1.1391,-2.5 2.5938,-2.5 z" />
      <path
         style="opacity:0.3"
         inkscape:connector-curvature="0"
         id="path97"
         d="m 48,16 c -4.0556,0 -7.3346,3.2854 -7.3333,7.3333 -9.16e-4,3.0543 1.92,5.5761 4.5833,6.6745 l 0,2.4922 -11,0 c -0.48694,0 -0.91667,0.39897 -0.91667,0.91667 l 0,2.75 c 0,0.5177 0.39817,0.91667 0.91667,0.91667 l 11,0 0,33.917 c 0,0.94179 -1.5716,0.96136 -2.4635,1.0599 -1.3068,-0.0081 -2.1013,-0.34156 -3.3516,-0.6875 -2.8236,-0.82566 -5.5191,-1.9699 -8.1068,-3.3516 -1.0895,-0.60402 -2.153,-1.1929 -3.1224,-1.9766 -0.41782,-0.35646 -0.90378,-0.87183 -0.85938,-1.4609 0.05644,-0.44595 0.28227,-0.92102 0.77344,-1.0026 0.44268,-0.07011 0.84032,0.16734 1.2318,0.3151 0.33745,0.14552 0.5696,-0.26378 0.51562,-0.54427 -0.0543,-0.73893 -0.30469,-1.4229 -0.6875,-2.0625 -0.79646,-1.3101 -2.0221,-2.2845 -3.2943,-3.1224 -1.3582,-0.86738 -2.8062,-1.8211 -3.6667,-3.2083 -0.17118,-0.25639 -0.36129,-0.68059 -0.74479,-0.54427 -0.53313,0.17292 -0.82742,0.69542 -1.0885,1.1458 -0.73469,1.3981 -1.101,2.9063 -1.4323,4.4401 -0.27231,1.2203 -0.32428,2.5092 -0.22917,3.7526 0.09847,1.2442 0.18363,2.5048 0.6875,3.6667 0.31732,0.76353 0.87598,1.3791 1.4323,1.9766 0.35498,-0.37532 0.72538,-0.77819 1.0885,-1.1458 0.47062,-0.47245 1.0586,-0.7792 1.7474,-0.6875 0.93746,0.12066 1.7841,0.68873 2.5208,1.2318 1.0377,0.80694 2.0078,1.6514 3.0651,2.4349 1.673,1.2786 3.5184,2.2146 5.4141,3.1224 1.5794,0.73344 3.2022,1.466 4.8411,2.0625 0.29351,0.12819 0.61784,0.12237 0.91667,0.22917 2.9498,1.2268 5.4348,2.6546 7.4766,5.2135 0.0029,0.03511 -0.0029,0.10976 0,0.14323 0.02349,-0.03034 0.06237,-0.05592 0.08594,-0.08589 0.02349,0.02998 0.06252,0.05564 0.08594,0.08589 0.01542,-0.07067 -0.01517,-0.1582 0,-0.22917 2.0354,-2.5292 4.5447,-3.9083 7.4766,-5.1276 0.29883,-0.1068 0.62315,-0.10098 0.91667,-0.22917 1.639,-0.59648 3.2618,-1.3291 4.8411,-2.0625 1.8957,-0.90784 3.741,-1.8438 5.4141,-3.1224 1.0573,-0.7835 2.0274,-1.6279 3.0651,-2.4349 0.73671,-0.54304 1.5834,-1.1111 2.5208,-1.2318 0.68877,-0.09169 1.2768,0.21504 1.7474,0.6875 0.36316,0.36764 0.73356,0.77051 1.0885,1.1458 0.55631,-0.59748 1.115,-1.213 1.4323,-1.9766 0.50387,-1.1619 0.58903,-2.4225 0.6875,-3.6667 0.09512,-1.2434 0.04313,-2.5323 -0.22917,-3.7526 -0.33125,-1.5338 -0.6976,-3.042 -1.4323,-4.4401 -0.26112,-0.45041 -0.55541,-0.9729 -1.0885,-1.1458 -0.3835,-0.13632 -0.57362,0.28788 -0.74479,0.54427 -0.8605,1.3873 -2.3084,2.341 -3.6667,3.2083 -1.2721,0.83787 -2.4978,1.8123 -3.2943,3.1224 -0.38281,0.63962 -0.63319,1.3236 -0.6875,2.0625 -0.05398,0.28049 0.17818,0.6898 0.51562,0.54427 0.39144,-0.14777 0.78909,-0.38522 1.2318,-0.3151 0.49117,0.0816 0.717,0.55665 0.77344,1.0026 0.04442,0.5891 -0.44156,1.1045 -0.85938,1.4609 -0.96937,0.78371 -2.0329,1.3725 -3.1224,1.9766 -2.5877,1.3816 -5.2832,2.5259 -8.1068,3.3516 -1.2503,0.34594 -2.0448,0.67942 -3.3516,0.6875 -1.122,0.199 -2.463,-0.411 -2.463,-1.061 l 0,-33.917 11,0 c 0.42381,0 0.91667,-0.36741 0.91667,-0.91667 l 0,-2.75 c 0,-0.533 -0.43,-0.916 -0.917,-0.916 l -11,0 0,-2.4922 c 2.6633,-1.0983 4.5843,-3.6202 4.5833,-6.6745 0.002,-4.049 -3.277,-7.334 -7.333,-7.334 z m -0.14323,3.5807 c 1.9687,-1e-6 3.5813,1.5584 3.5807,3.5234 5.88e-4,1.965 -1.612,3.5807 -3.5807,3.5807 -1.9687,-10e-7 -3.61,-1.6157 -3.6094,-3.5807 -5.91e-4,-1.965 1.6406,-3.5234 3.6094,-3.5234 z" />
      <path
         inkscape:connector-curvature="0"
         style="fill:url(#linearGradient14390)"
         id="path99"
         d="m 48,15 c -4.0556,0 -7.3346,3.2854 -7.3333,7.3333 -9.16e-4,3.0543 1.92,5.5761 4.5833,6.6745 l 0,2.4922 -11,0 c -0.48694,0 -0.91667,0.39897 -0.91667,0.91667 l 0,2.75 c 0,0.5177 0.39817,0.91667 0.91667,0.91667 l 11,0 0,33.917 c 0,0.94179 -1.5716,0.96136 -2.4635,1.0599 -1.3068,-0.0081 -2.1013,-0.34156 -3.3516,-0.6875 -2.8236,-0.82566 -5.5191,-1.9699 -8.1068,-3.3516 -1.0895,-0.60402 -2.153,-1.1929 -3.1224,-1.9766 -0.41782,-0.35646 -0.90378,-0.87183 -0.85938,-1.4609 0.05644,-0.44595 0.28227,-0.92102 0.77344,-1.0026 0.44268,-0.07011 0.84032,0.16734 1.2318,0.3151 0.33745,0.14552 0.5696,-0.26378 0.51562,-0.54427 -0.0543,-0.73893 -0.30469,-1.4229 -0.6875,-2.0625 -0.79646,-1.3101 -2.0221,-2.2845 -3.2943,-3.1224 -1.3582,-0.86738 -2.8062,-1.8211 -3.6667,-3.2083 -0.17118,-0.25639 -0.36129,-0.68059 -0.74479,-0.54427 -0.53313,0.17292 -0.82742,0.69542 -1.0885,1.1458 -0.73469,1.3981 -1.101,2.9063 -1.4323,4.4401 -0.27231,1.2203 -0.32428,2.5092 -0.22917,3.7526 0.09847,1.2442 0.18363,2.5048 0.6875,3.6667 0.31732,0.76353 0.87598,1.3791 1.4323,1.9766 0.35498,-0.37532 0.72538,-0.77819 1.0885,-1.1458 0.47062,-0.47245 1.0586,-0.7792 1.7474,-0.6875 0.93746,0.12066 1.7841,0.68873 2.5208,1.2318 1.0377,0.80694 2.0078,1.6514 3.0651,2.4349 1.673,1.2786 3.5184,2.2146 5.4141,3.1224 1.5794,0.73344 3.2022,1.466 4.8411,2.0625 0.29351,0.12819 0.61784,0.12237 0.91667,0.22917 2.9498,1.2268 5.4348,2.6546 7.4766,5.2135 0.0029,0.03511 -0.0029,0.10976 0,0.14323 0.02349,-0.03034 0.06237,-0.05592 0.08594,-0.08589 0.02349,0.02998 0.06252,0.05564 0.08594,0.08589 0.01542,-0.07067 -0.01517,-0.1582 0,-0.22917 2.0354,-2.5292 4.5447,-3.9083 7.4766,-5.1276 0.29883,-0.1068 0.62315,-0.10098 0.91667,-0.22917 1.639,-0.59648 3.2618,-1.3291 4.8411,-2.0625 1.8957,-0.90784 3.741,-1.8438 5.4141,-3.1224 1.0573,-0.7835 2.0274,-1.6279 3.0651,-2.4349 0.73671,-0.54304 1.5834,-1.1111 2.5208,-1.2318 0.68877,-0.09169 1.2768,0.21504 1.7474,0.6875 0.36316,0.36764 0.73356,0.77051 1.0885,1.1458 0.55631,-0.59748 1.115,-1.213 1.4323,-1.9766 0.50387,-1.1619 0.58903,-2.4225 0.6875,-3.6667 0.09512,-1.2434 0.04313,-2.5323 -0.22917,-3.7526 -0.33125,-1.5338 -0.6976,-3.042 -1.4323,-4.4401 -0.26112,-0.45041 -0.55541,-0.9729 -1.0885,-1.1458 -0.3835,-0.13632 -0.57362,0.28788 -0.74479,0.54427 -0.8605,1.3873 -2.3084,2.341 -3.6667,3.2083 -1.2721,0.83787 -2.4978,1.8123 -3.2943,3.1224 -0.38281,0.63962 -0.63319,1.3236 -0.6875,2.0625 -0.05398,0.28049 0.17818,0.6898 0.51562,0.54427 0.39144,-0.14777 0.78909,-0.38522 1.2318,-0.3151 0.49117,0.0816 0.717,0.55665 0.77344,1.0026 0.04442,0.5891 -0.44156,1.1045 -0.85938,1.4609 -0.96937,0.78371 -2.0329,1.3725 -3.1224,1.9766 -2.5877,1.3816 -5.2832,2.5259 -8.1068,3.3516 -1.2503,0.34594 -2.0448,0.67942 -3.3516,0.6875 -1.122,0.199 -2.463,-0.411 -2.463,-1.061 l 0,-33.917 11,0 c 0.42381,0 0.91667,-0.36741 0.91667,-0.91667 l 0,-2.75 c 0,-0.533 -0.43,-0.916 -0.917,-0.916 l -11,0 0,-2.4922 c 2.6633,-1.0983 4.5843,-3.6202 4.5833,-6.6745 0.002,-4.049 -3.277,-7.334 -7.333,-7.334 z m -0.14323,3.5807 c 1.9687,-1e-6 3.5813,1.5584 3.5807,3.5234 5.88e-4,1.965 -1.612,3.5807 -3.5807,3.5807 -1.9687,-10e-7 -3.61,-1.6157 -3.6094,-3.5807 -5.91e-4,-1.965 1.6406,-3.5234 3.6094,-3.5234 z" />
      <path
         style="fill:#ffffff"
         inkscape:connector-curvature="0"
         id="path101"
         d="m 48,15 c -4.0556,0 -7.345,3.2958 -7.3438,7.3438 -5.2e-5,0.17418 0.01902,0.32944 0.03125,0.5 0.257,-3.815 3.426,-6.844 7.313,-6.844 3.8869,0 7.0563,3.0292 7.3125,6.8438 0.01223,-0.17056 0.0313,-0.32582 0.03125,-0.5 10e-4,-4.048 -3.288,-7.344 -7.344,-7.344 z m -3.7188,7.5938 c -0.02381,0.16364 -0.0313,0.32949 -0.03125,0.5 -5.92e-4,1.965 1.625,3.5937 3.5938,3.5938 1.9687,0 3.5943,-1.6287 3.5938,-3.5938 5.2e-5,-0.17051 -0.0078,-0.33636 -0.03125,-0.5 -0.24648,1.7304 -1.7646,3.0938 -3.5625,3.0938 -1.7979,-1e-6 -3.3119,-1.3633 -3.5625,-3.0938 z m -10.031,8.906 c -0.48694,0 -0.90625,0.38855 -0.90625,0.90625 l 0,1 c 0,-0.517 0.419,-0.906 0.906,-0.906 l 11,0 0,-1 -11,0 z m 16.5,0 0,1 11,0 c 0.48694,0 0.90625,0.37277 0.90625,0.90625 l 0,-1 c 0,-0.533 -0.419,-0.906 -0.906,-0.906 l -11,0 z m -29.281,21.906 c -0.53313,0.17292 -0.83263,0.70583 -1.0938,1.1562 -0.73469,1.3981 -1.1063,2.9037 -1.4375,4.4375 -0.20423,0.91525 -0.26274,1.8682 -0.25,2.8125 0.03692,-0.60918 0.11834,-1.2225 0.25,-1.8125 0.33124,-1.5338 0.70281,-3.0394 1.4375,-4.4375 0.26112,-0.45042 0.56062,-0.98333 1.0938,-1.1562 0.3835,-0.13632 0.57882,0.30611 0.75,0.5625 0.86049,1.3873 2.298,2.3201 3.6562,3.1875 1.2721,0.83787 2.516,1.8149 3.3125,3.125 0.27518,0.45979 0.44782,0.95918 0.5625,1.4688 0.08221,-0.11775 0.15036,-0.27447 0.125,-0.40625 -0.0543,-0.73893 -0.30469,-1.4229 -0.6875,-2.0625 -0.79646,-1.3101 -2.0404,-2.2871 -3.3125,-3.125 -1.3582,-0.86738 -2.7958,-1.8002 -3.6562,-3.1875 -0.17118,-0.25639 -0.3665,-0.69882 -0.75,-0.5625 z m 52.812,0 c -0.22328,0.07381 -0.37162,0.37021 -0.5,0.5625 -0.8605,1.3873 -2.298,2.3201 -3.6562,3.1875 -1.2721,0.83787 -2.516,1.8149 -3.3125,3.125 -0.38281,0.63962 -0.63319,1.3236 -0.6875,2.0625 -0.02536,0.13178 0.04279,0.2885 0.125,0.40625 0.11468,-0.50956 0.28732,-1.009 0.5625,-1.4688 0.79646,-1.3101 2.0404,-2.2871 3.3125,-3.125 1.3582,-0.86738 2.7958,-1.8002 3.6562,-3.1875 0.17117,-0.25639 0.3665,-0.69882 0.75,-0.5625 0.53314,0.17293 0.83263,0.70584 1.0938,1.1562 0.73469,1.3981 1.1062,2.9037 1.4375,4.4375 0.13166,0.59003 0.21307,1.2033 0.25,1.8125 0.01274,-0.94426 -0.04578,-1.8972 -0.25,-2.8125 -0.33125,-1.5338 -0.70281,-3.0394 -1.4375,-4.4375 -0.26112,-0.45041 -0.56062,-0.98332 -1.0938,-1.1562 -0.09587,-0.03408 -0.17557,-0.02461 -0.25,0 z m -46.812,10.75 c -0.05689,0.13597 -0.10675,0.29333 -0.125,0.4375 -0.04441,0.5891 0.45718,1.081 0.875,1.4375 0.96938,0.78371 2.0043,1.396 3.0938,2 2.5877,1.3816 5.3014,2.5181 8.125,3.3438 1.2503,0.34594 2.037,0.6794 3.3438,0.6875 0.891,-0.098 2.468,-0.12 2.468,-1.062 l 0,-1 c 0,0.94179 -1.5768,0.96397 -2.4688,1.0625 -1.3068,-0.0081 -2.0935,-0.34156 -3.3438,-0.6875 -2.8236,-0.82566 -5.5373,-1.9621 -8.125,-3.3438 -1.0895,-0.60402 -2.1244,-1.2163 -3.0938,-2 -0.27413,-0.23387 -0.58624,-0.52837 -0.75,-0.875 z m 41.062,0 c -0.16376,0.34663 -0.47587,0.64113 -0.75,0.875 -0.96937,0.78371 -2.0043,1.396 -3.0938,2 -2.5877,1.3816 -5.3014,2.5181 -8.125,3.3438 -1.2503,0.34594 -2.037,0.67942 -3.3438,0.6875 -1.122,0.201 -2.468,-0.412 -2.468,-1.062 l 0,1 c 0,0.65046 1.346,1.2626 2.4688,1.0625 1.3068,-0.0081 2.0935,-0.34156 3.3438,-0.6875 2.8236,-0.82566 5.5373,-1.9621 8.125,-3.3438 1.0895,-0.60402 2.1244,-1.2163 3.0938,-2 0.41782,-0.35646 0.91942,-0.8484 0.875,-1.4375 -0.01825,-0.14417 -0.06811,-0.30153 -0.125,-0.4375 z" />
    </g>
  </g>
  <g
     id="g14291">
    <path
       d="m 5.2922679,73.685059 0,5.0663 c 0,6.668 5.3645011,12.032 12.0320011,12.032 l 61.049,0 c 6.668,0 12.032,-5.3645 12.032,-12.032 l 0,-5.0663 c 0,6.6681 -5.3645,12.032 -12.032,12.032 l -61.049,0 c -6.668,0 -12.0320011,-5.3643 -12.0320011,-12.032 z"
       id="path64"
       inkscape:connector-curvature="0"
       style="opacity:0.4;fill:url(#linearGradient14237);fill-opacity:1" />
    <path
       inkscape:connector-curvature="0"
       id="path14214"
       d="m 5.2929688,72.717592 0,1.15039 c 0,6.667718 5.3632502,12.031248 12.0312502,12.031248 l 61.048828,0 c 6.6675,0 12.03125,-5.36313 12.03125,-12.031248 l 0,-1.15039 c 0,6.668098 -5.36375,12.031248 -12.03125,12.031248 l -61.048828,0 c -6.668,0 -12.0312502,-5.36355 -12.0312502,-12.031248 z"
       style="opacity:0.5;fill:url(#linearGradient14245);fill-opacity:1" />
  </g>
</svg>
