<?xml version="1.0" encoding="UTF-8" standalone="no"?>
<svg
   xmlns:dc="http://purl.org/dc/elements/1.1/"
   xmlns:cc="http://creativecommons.org/ns#"
   xmlns:rdf="http://www.w3.org/1999/02/22-rdf-syntax-ns#"
   xmlns:svg="http://www.w3.org/2000/svg"
   xmlns="http://www.w3.org/2000/svg"
   xmlns:xlink="http://www.w3.org/1999/xlink"
   xmlns:sodipodi="http://sodipodi.sourceforge.net/DTD/sodipodi-0.dtd"
   xmlns:inkscape="http://www.inkscape.org/namespaces/inkscape"
   height="96"
   width="96"
   id="svg2"
   version="1.1"
   inkscape:version="0.91 r13725"
   sodipodi:docname="dropbox.svg">
  <metadata
     id="metadata114">
    <rdf:RDF>
      <cc:Work
         rdf:about="">
        <dc:format>image/svg+xml</dc:format>
        <dc:type
           rdf:resource="http://purl.org/dc/dcmitype/StillImage" />
      </cc:Work>
    </rdf:RDF>
  </metadata>
  <sodipodi:namedview
     pagecolor="#ffffff"
     bordercolor="#666666"
     borderopacity="1"
     objecttolerance="10"
     gridtolerance="10"
     guidetolerance="10"
     inkscape:pageopacity="0"
     inkscape:pageshadow="2"
     inkscape:window-width="1366"
     inkscape:window-height="708"
     id="namedview112"
     showgrid="false"
     inkscape:zoom="2.4583333"
     inkscape:cx="34.660487"
     inkscape:cy="36.236056"
     inkscape:window-x="0"
     inkscape:window-y="24"
     inkscape:window-maximized="1"
     inkscape:current-layer="svg2" />
  <defs
     id="defs4">
    <linearGradient
       xlink:href="#linearGradient3764"
       gradientTransform="matrix(1.0833,0,0,1.0833,-4.385,-4.394)"
       id="linearGradient15160"
       gradientUnits="userSpaceOnUse"
       y2="5.9879999"
       y1="90"
       x2="0">
      <stop
         id="stop4439"
         stop-color="#eec00f" />
      <stop
         id="stop4441"
         offset="1"
         stop-color="#fff8a0" />
    </linearGradient>
    <linearGradient
       id="linearGradient3731">
      <stop
         stop-color="#520"
         id="stop7" />
      <stop
         stop-color="#520"
         stop-opacity="0"
         offset="1"
         id="stop9" />
    </linearGradient>
    <linearGradient
       id="linearGradient3707-0">
      <stop
         stop-color="#a8d4fb"
         id="stop12" />
      <stop
         stop-color="#dff0fa"
         offset="1"
         id="stop14" />
    </linearGradient>
    <linearGradient
       id="linearGradient3724">
      <stop
         stop-color="#0d82e4"
         id="stop17" />
      <stop
         stop-color="#bcdbf7"
         offset="1"
         id="stop19" />
    </linearGradient>
    <linearGradient
       id="linearGradient3757">
      <stop
         stop-color="#389bed"
         id="stop22" />
      <stop
         stop-color="#c2e5fc"
         offset="1"
         id="stop24" />
    </linearGradient>
    <linearGradient
       x2="0"
       y1="90"
       y2="5.9879999"
       gradientUnits="userSpaceOnUse"
       id="linearGradient4443"
       gradientTransform="matrix(1.0833,0,0,1.0833,-4.385,-4.394)"
       xlink:href="#linearGradient3764">
      <stop
         stop-color="#eec00f"
         id="stop27" />
      <stop
         stop-color="#fff8a0"
         offset="1"
         id="stop29" />
    </linearGradient>
    <linearGradient
       x2="0"
       xlink:href="#linearGradient3731"
       y1="77.27"
       y2="21.944"
       gradientUnits="userSpaceOnUse"
       id="linearGradient15182"
       gradientTransform="translate(-109.88,856.47)" />
    <linearGradient
       x1="47.835"
       x2="48.32"
       xlink:href="#linearGradient3731"
       y1="74.69"
       y2="28.01"
       gradientUnits="userSpaceOnUse"
       id="linearGradient15188"
       gradientTransform="translate(-109.88,857.47)" />
    <linearGradient
       x1="47.917"
       x2="76.62"
       gradientUnits="userSpaceOnUse"
       id="linearGradient15190"
       gradientTransform="translate(-109.88,856.47)">
      <stop
         stop-color="#5cacf5"
         id="stop34" />
      <stop
         stop-color="#abd4f4"
         offset="1"
         id="stop36" />
    </linearGradient>
    <linearGradient
       x1="19.288"
       x2="47.995"
       gradientUnits="userSpaceOnUse"
       id="linearGradient15192"
       gradientTransform="translate(-109.88,856.47)">
      <stop
         stop-color="#5aabf2"
         id="stop39" />
      <stop
         stop-color="#badaf5"
         offset="1"
         id="stop41" />
    </linearGradient>
    <linearGradient
       x1="31"
       x2="48.03"
       xlink:href="#linearGradient3707-0"
       gradientUnits="userSpaceOnUse"
       id="linearGradient15194"
       gradientTransform="translate(-109.88,856.47)" />
    <linearGradient
       x1="27.395"
       x2="48.11"
       xlink:href="#linearGradient3724"
       gradientUnits="userSpaceOnUse"
       id="linearGradient15196"
       gradientTransform="translate(-109.88,856.47)" />
    <linearGradient
       x1="48.08"
       x2="65.11"
       xlink:href="#linearGradient3707-0"
       gradientUnits="userSpaceOnUse"
       id="linearGradient15198"
       gradientTransform="translate(-109.88,856.47)" />
    <linearGradient
       x1="48"
       x2="69.02"
       xlink:href="#linearGradient3724"
       gradientUnits="userSpaceOnUse"
       id="linearGradient15200"
       gradientTransform="translate(-109.88,856.47)" />
    <linearGradient
       x1="47.917"
       x2="76.73"
       xlink:href="#linearGradient3757"
       gradientUnits="userSpaceOnUse"
       id="linearGradient15202"
       gradientTransform="translate(-109.88,856.47)" />
    <linearGradient
       x1="19.07"
       x2="47.886"
       xlink:href="#linearGradient3757"
       gradientUnits="userSpaceOnUse"
       id="linearGradient15204"
       gradientTransform="translate(-109.88,856.47)" />
    <linearGradient
       x1="31.09"
       x2="48.11"
       gradientUnits="userSpaceOnUse"
       id="linearGradient15206"
       gradientTransform="translate(-109.88,856.47)">
      <stop
         stop-color="#1b8cee"
         id="stop50" />
      <stop
         stop-color="#79b8e8"
         offset="1"
         id="stop52" />
    </linearGradient>
    <linearGradient
       x1="48"
       x2="69.02"
       gradientUnits="userSpaceOnUse"
       id="linearGradient15208"
       gradientTransform="translate(-109.88,856.47)">
      <stop
         stop-color="#107cd9"
         id="stop55" />
      <stop
         stop-color="#79b8e8"
         offset="1"
         id="stop57" />
    </linearGradient>
    <path
       d="m-61.927 907.47 17.042 12.021-17.042 12.021-17.042-12.021 17.042-12.021z"
       fill="#fdfffe"
       color="#000000"
       id="SVGCleanerId_0" />
    <linearGradient
       gradientTransform="translate(-48.000001,0.00221467)"
       gradientUnits="userSpaceOnUse"
       x2="47"
       x1="1"
       id="linearGradient3764">
      <stop
         id="stop4247"
         stop-opacity="1"
         stop-color="#186dae" />
      <stop
         id="stop4249"
         stop-opacity="1"
         stop-color="#1b77bf"
         offset="1" />
    </linearGradient>
    <clipPath
       id="clipPath-298891903">
      <g
         id="g4252"
         transform="translate(0,-1004.3622)">
        <rect
           id="rect4254"
           fill="#1890d0"
           width="46"
           height="46"
           x="1"
           y="1005.36"
           rx="4" />
      </g>
    </clipPath>
    <clipPath
       id="clipPath-311838651">
      <g
         id="g4257"
         transform="translate(0,-1004.3622)">
        <rect
           id="rect4259"
           fill="#1890d0"
           width="46"
           height="46"
           x="1"
           y="1005.36"
           rx="4" />
      </g>
    </clipPath>
    <linearGradient
       inkscape:collect="always"
       xlink:href="#linearGradient3731"
       id="linearGradient4408"
       gradientUnits="userSpaceOnUse"
       gradientTransform="translate(-109.88,856.47)"
       y1="77.27"
       x2="0"
       y2="21.944" />
    <linearGradient
       inkscape:collect="always"
       xlink:href="#linearGradient3731"
       id="linearGradient4410"
       gradientUnits="userSpaceOnUse"
       gradientTransform="translate(-109.88,856.47)"
       y1="77.27"
       x2="0"
       y2="21.944" />
    <linearGradient
       inkscape:collect="always"
       xlink:href="#linearGradient3764"
       id="linearGradient4451"
       x1="48.086086"
       y1="86.205986"
       x2="48.086086"
       y2="6.8839545"
       gradientUnits="userSpaceOnUse" />
    <linearGradient
       inkscape:collect="always"
       xlink:href="#linearGradient14231"
       id="linearGradient14237"
       x1="50.707542"
       y1="81.682442"
       x2="50.707542"
       y2="96.539803"
       gradientUnits="userSpaceOnUse" />
    <linearGradient
       inkscape:collect="always"
       id="linearGradient14231">
      <stop
         style="stop-color:#000000;stop-opacity:1;"
         offset="0"
         id="stop14233" />
      <stop
         style="stop-color:#000000;stop-opacity:0;"
         offset="1"
         id="stop14235" />
    </linearGradient>
    <linearGradient
       inkscape:collect="always"
       xlink:href="#linearGradient14239"
       id="linearGradient14245"
       x1="49.876652"
       y1="87.937508"
       x2="49.876652"
       y2="76.719681"
       gradientUnits="userSpaceOnUse" />
    <linearGradient
       inkscape:collect="always"
       id="linearGradient14239">
      <stop
         style="stop-color:#ffffff;stop-opacity:1;"
         offset="0"
         id="stop14241" />
      <stop
         style="stop-color:#ffffff;stop-opacity:0;"
         offset="1"
         id="stop14243" />
    </linearGradient>
  </defs>
  <rect
     style="fill-opacity:0.02000002"
     id="rect62"
     width="89.620003"
     height="89.980003"
     y="2.9899757"
     rx="12.724"
     x="3.3529999" />
  <rect
     style="fill-opacity:0.03900003"
     id="rect64"
     width="88.410004"
     height="88.760002"
     y="3.6000221"
     rx="12.552"
     x="3.9590001" />
  <rect
     style="fill-opacity:0.078"
     id="rect66"
     width="87.199997"
     height="87.550003"
     y="4.2100072"
     rx="12.38"
     x="4.5640001" />
  <rect
     style="fill-opacity:0.15700001"
     id="rect68"
     width="85.990997"
     height="86.330002"
     y="4.8199925"
     rx="12.208"
     x="5.1700001" />
  <path
     inkscape:connector-curvature="0"
     style="fill:url(#linearGradient4451);fill-opacity:1"
     id="path70"
     d="m 17.75,5.4062 c -6.642,0 -11.969,5.3948 -11.969,12.063 l 2e-4,61.031 c 0,6.668 5.3268,12.031 11.969,12.031 l 60.812,0 c 6.642,0 11.969,-5.363 11.969,-12.031 l 0,-61.031 c 0,-6.668 -5.327,-12.063 -11.969,-12.063 l -60.812,2e-4 z" />
  <g
     id="g76"
     transform="translate(110,-859.36)">
    <path
       inkscape:connector-curvature="0"
       style="color:#000000;opacity:0.05;fill:url(#linearGradient4408)"
       id="path78"
       d="m -73.822,877 a 1.0566,1.0566 0 0 0 -0.375,0.0937 c -3.2369,1.5476 -6.0599,3.6712 -9,5.3125 a 1.0566,1.0566 0 0 0 -0.0625,0.0313 c -3.1879,2.0275 -6.6549,3.8639 -9.8438,6.1562 a 1.0566,1.0566 0 0 0 -0.1875,0.1875 c -0.54835,0.67232 -0.8438,1.4182 -0.84375,2.1562 4.5e-5,0.73807 0.27353,1.3975 0.625,1.9375 0.66688,1.0246 1.5999,1.7322 2.3125,2.3125 0.0357,0.0421 0.08814,0.0833 0.125,0.125 1.1221,1.268 2.7517,2.3167 4.1562,3.375 1.2435,0.937 1.9064,1.7777 2.1875,2.3125 -2.9262,2.3955 -6.0589,4.6443 -8.9062,7.3125 a 1.0566,1.0566 0 0 0 -0.21875,0.28125 c -0.45936,0.84228 -0.59307,1.7192 -0.40625,2.5 0.18682,0.78078 0.64554,1.3912 1.1562,1.875 1.0214,0.96752 2.3166,1.5799 3.0938,2.0938 a 1.0566,1.0566 0 0 0 0.03125,0 c 2.5467,1.6286 5.0905,3.2247 7.5938,4.875 -0.0587,1.1858 0.25115,2.2876 0.9375,3.0625 0.82555,0.93202 1.9166,1.5479 2.8438,2.0312 l 0,0.0313 c 0.03759,0.0264 0.08741,0.0361 0.125,0.0625 5.0142,3.5174 9.9733,7.1878 15.125,10.562 a 1.0566,1.0566 0 0 0 0.3125,0.15625 c 1.5131,0.42354 2.8548,-0.21468 3.8438,-0.90625 0.9889,-0.69157 1.8188,-1.4568 2.5,-1.8125 a 1.0566,1.0566 0 0 0 0.125,-0.0937 c 4.6717,-3.3871 9.5498,-6.5333 14.219,-10.062 a 1.0566,1.0566 0 0 0 0.3125,-0.375 c 0.56722,-1.1389 0.67565,-2.1908 0.90625,-2.8125 0.2306,-0.62173 0.36201,-0.85658 1.375,-1.125 a 1.0566,1.0566 0 0 0 0.3125,-0.15625 c 2.909,-1.9242 6.081,-3.6436 8.9688,-5.875 a 1.0566,1.0566 0 0 0 0.21875,-0.25 c 0.86933,-1.2635 0.66808,-2.7806 0.03125,-3.8125 -0.595,-0.96409 -1.4957,-1.6165 -2.3125,-2.125 l 0.03125,-0.0313 c -0.05337,-0.048 -0.13331,-0.0771 -0.1875,-0.125 -2.1992,-1.9455 -4.8634,-3.8164 -6.5312,-5.5 2.907,-2.5217 6.0044,-4.9483 8.8125,-7.6875 a 1.0566,1.0566 0 0 0 0.1875,-0.28125 c 0.48028,-0.93358 0.58768,-1.8947 0.3125,-2.7188 -0.27518,-0.82406 -0.83601,-1.4529 -1.4375,-1.9375 -1.203,-0.9692 -2.7194,-1.5972 -3.4688,-2.125 a 1.0566,1.0566 0 0 0 -0.0625,-0.0313 c -4.8004,-2.8829 -9.5316,-5.8985 -14.438,-8.6875 a 1.0566,1.0566 0 0 0 -0.3125,-0.125 c -1.6135,-0.34663 -2.9416,0.45402 -3.875,1.2812 -0.93338,0.82723 -1.6878,1.7058 -2.3438,2.0938 a 1.0566,1.0566 0 0 0 -0.0625,0.0313 c -1.2677,0.88222 -2.4344,2.0989 -3.5625,3.125 -0.98878,0.8994 -1.9036,1.4707 -2.6562,1.7812 -3.2119,-2.6342 -6.2603,-5.6482 -9.75,-8.1562 a 1.0566,1.0566 0 0 0 -0.21875,-0.125 c -0.68555,-0.27777 -1.2818,-0.21678 -1.625,-0.21875 a 1.0566,1.0566 0 0 0 -0.09375,0 z" />
    <path
       inkscape:connector-curvature="0"
       style="color:#000000;opacity:0.1;fill:url(#linearGradient4410)"
       id="path80"
       d="m -73.729,878.06 c -3.112,1.4879 -5.9473,3.587 -8.9687,5.2737 -3.2381,2.0594 -6.6736,3.8673 -9.7813,6.1013 -1.718,2.1064 0.61501,3.8339 2.0963,5.055 1.8977,2.2382 6.709,4.4744 7.0466,6.7149 -3.1653,2.6551 -6.576,5.071 -9.5804,7.8864 -1.4596,2.6764 1.7497,3.9315 3.5048,5.0919 2.6793,1.7134 5.376,3.4 8.0265,5.1581 -0.71134,2.3767 1.5658,3.914 3.375,4.8438 5.0651,3.5506 10.092,7.246 15.25,10.625 2.261,0.63287 3.7706,-1.6828 5.5548,-2.6145 4.7026,-3.4096 9.5993,-6.5754 14.226,-10.073 0.93001,-1.8673 0.38408,-3.8168 2.9341,-4.4925 2.9586,-1.9569 6.1102,-3.6881 8.9096,-5.8513 1.288,-1.8721 -0.57484,-3.6894 -2.0938,-4.5938 -2.3785,-2.1395 -5.8111,-4.273 -7.5625,-6.4062 3.1891,-2.8238 6.5919,-5.4788 9.625,-8.4375 1.5324,-2.9786 -2.4061,-4.13 -4.2429,-5.4236 -4.8163,-2.8924 -9.5695,-5.9299 -14.445,-8.7014 -2.4178,-0.51941 -3.6759,2.184 -5.4777,3.2495 -2.2842,1.5896 -4.6385,4.717 -6.9048,5.3275 -3.4801,-2.7848 -6.6797,-6.0252 -10.274,-8.6082 -0.39254,-0.15905 -0.80892,-0.12265 -1.2188,-0.125 z" />
    <path
       inkscape:connector-curvature="0"
       style="color:#000000;opacity:0.15;fill:url(#linearGradient15182)"
       id="path82"
       d="m -73.572,879 a 0.80774,0.80774 0 0 0 -0.3125,0.125 c -5.8648,3.5262 -11.845,7.1417 -17.688,10.75 a 0.80774,0.80774 0 0 0 -0.21875,0.21875 c -0.27902,0.38536 -0.40175,0.92102 -0.28125,1.3438 0.1205,0.42273 0.38831,0.68367 0.625,0.90625 0.47338,0.44516 1.0082,0.77816 1.125,0.90625 a 0.80774,0.80774 0 0 0 0.0625,0.0937 c 2.9587,2.5383 5.985,4.9805 8.875,7.5312 -0.02031,0.0158 -0.0067,0.0141 -0.03125,0.0313 -0.23212,0.1619 -0.63652,0.42573 -1,0.8125 l -0.03125,-0.0313 c -3.1479,2.5522 -6.332,5.0614 -9.4688,7.6562 a 0.80774,0.80774 0 0 0 -0.1875,0.21875 c -0.21936,0.38337 -0.29698,0.88995 -0.15625,1.2812 0.14073,0.3913 0.38662,0.65486 0.625,0.84375 0.47676,0.37778 1.0172,0.5962 1.1875,0.71875 a 0.80774,0.80774 0 0 0 0.03125,0.0313 c 3.332,2.1532 6.7081,4.195 9.9688,6.375 0.06811,0.42671 -0.09472,1.0598 -0.03125,1.9688 a 0.80774,0.80774 0 0 0 0.125,0.375 c 0.8194,1.2284 2.2363,1.6871 2.9062,2.2812 a 0.80774,0.80774 0 0 0 0.0625,0.0625 c 4.9201,3.4347 9.8425,6.9598 14.781,10.344 a 0.80774,0.80774 0 0 0 0.34375,0.125 c 0.82224,0.13677 1.4639,-0.29851 1.9062,-0.65625 0.44234,-0.35774 0.79005,-0.65743 1,-0.75 a 0.80774,0.80774 0 0 0 0.15625,-0.0937 c 5.084,-3.6447 10.303,-7.2242 15.375,-10.812 a 0.80774,0.80774 0 0 0 0.125,-0.125 c 0.31984,-0.34905 0.43723,-0.78979 0.46875,-1.1562 0.03152,-0.36646 2.02e-4,-0.65964 -0.03125,-0.9375 -0.05872,-0.51871 -0.02865,-0.77065 0.03125,-0.875 3.6835,-2.3779 7.4705,-4.6911 11.125,-7.1562 a 0.80774,0.80774 0 0 0 0.3125,-0.34375 c 0.17911,-0.43628 0.14916,-0.96929 -0.03125,-1.3438 -0.18041,-0.37446 -0.43901,-0.61608 -0.6875,-0.8125 -0.49698,-0.39284 -0.99354,-0.69482 -1.0938,-0.8125 a 0.80774,0.80774 0 0 0 -0.125,-0.0937 c -2.9265,-2.3959 -5.8992,-4.7136 -8.75,-7.125 0.01889,-0.0152 0.0088,-0.0148 0.03125,-0.0313 0.23278,-0.17032 0.64318,-0.4034 1,-0.8125 l 0.03125,0.0313 c 3.0847,-2.663 6.2611,-5.3045 9.3125,-8.0312 a 0.80774,0.80774 0 0 0 0.1875,-0.25 c 0.19071,-0.41046 0.20983,-0.93253 0.03125,-1.3125 -0.17858,-0.37997 -0.46492,-0.60766 -0.71875,-0.78125 -0.50766,-0.34718 -1.0193,-0.58294 -1.1562,-0.6875 a 0.80774,0.80774 0 0 0 -0.09375,-0.0313 c -5.3605,-3.2265 -10.715,-6.578 -16.094,-9.75 a 0.80774,0.80774 0 0 0 -0.28125,-0.125 c -0.84476,-0.12118 -1.4598,0.41006 -1.875,0.8125 -0.41521,0.40244 -0.77933,0.79727 -0.96875,0.90625 a 0.80774,0.80774 0 0 0 -0.125,0.0625 c -2.9283,2.482 -5.7858,5.031 -8.7188,7.4375 -0.08758,-0.042 -0.13776,-0.0428 -0.3125,-0.21875 -0.2388,-0.24048 -0.54976,-0.61283 -1,-0.90625 -0.03934,-0.0333 -0.08567,-0.0604 -0.125,-0.0937 -3.0639,-2.5954 -6.1285,-5.3398 -9.25,-7.875 a 0.80774,0.80774 0 0 0 -0.28125,-0.15625 c -0.26325,-0.0791 -0.47024,-0.068 -0.625,-0.0625 a 0.80774,0.80774 0 0 0 -0.0625,0 z" />
    <path
       inkscape:connector-curvature="0"
       style="color:#000000;opacity:0.3;fill:url(#linearGradient15188)"
       id="path84"
       d="m -73.479,879.81 c -0.03257,0.007 8.38e-4,0.022 -0.03125,0.0313 -0.03209,0.009 -0.03101,-0.0111 -0.0625,0 -0.03149,0.0111 -4.57e-4,0.0183 -0.03125,0.0313 -0.03079,0.0129 -0.0013,-0.0147 -0.03125,0 -0.02999,0.0147 -0.0022,0.0148 -0.03125,0.0313 -0.02908,0.0164 -0.0032,-0.0181 -0.03125,0 a 0.49999,0.49999 0 0 1 -0.03125,0.0313 l -17.25,10.5 c -0.02886,0.0176 -0.0035,-0.0193 -0.03125,0 -0.02777,0.0193 -0.0047,0.0104 -0.03125,0.0313 -0.02658,0.0209 -0.0059,0.009 -0.03125,0.0313 -0.02531,0.0224 -0.0073,0.007 -0.03125,0.0313 -0.02394,0.0239 -0.0088,0.006 -0.03125,0.0313 -0.02249,0.0252 -0.01028,0.005 -0.03125,0.0313 -0.02097,0.0265 -0.01188,0.004 -0.03125,0.0313 -0.01937,0.0277 0.0177,0.002 0,0.0313 -0.0177,0.0288 -0.01528,0.002 -0.03125,0.0313 -0.01597,0.0298 -0.01706,0.0318 -0.03125,0.0625 -0.01419,0.0307 0.01235,-2.2e-4 0,0.0313 -0.01235,0.0315 -0.02077,-8.9e-4 -0.03125,0.0313 -0.01048,0.0321 0.0086,-10e-4 0,0.0313 -0.0086,0.0327 0.0066,0.0294 0,0.0625 -0.0066,0.0332 0.0047,-0.002 0,0.0313 -0.0047,0.0335 -0.02858,-0.002 -0.03125,0.0313 -0.0027,0.0337 6.83e-4,0.0287 0,0.0625 -6.83e-4,0.0338 -0.0013,-0.002 0,0.0313 0.0013,0.0338 -0.0033,0.0289 0,0.0625 0.0033,0.0336 0.02597,-0.002 0.03125,0.0313 0.0053,0.0334 -0.0072,-0.002 0,0.0313 0.0072,0.033 -0.0092,0.03 0,0.0625 0.0092,0.0325 0.02018,-6.9e-4 0.03125,0.0313 0.01107,0.0319 -0.01293,2e-5 0,0.0313 0.01293,0.0312 0.0165,8.4e-4 0.03125,0.0313 0.01475,0.0304 -0.01652,0.033 0,0.0625 0.01652,0.0295 0.01302,0.003 0.03125,0.0313 0.01823,0.0285 0.01137,0.004 0.03125,0.0313 0.01988,0.0273 0.0098,0.005 0.03125,0.0313 0.02145,0.0261 -0.02296,0.006 0,0.0313 0.02296,0.0248 0.0069,0.008 0.03125,0.0313 0.02438,0.0234 0.0055,0.009 0.03125,0.0313 l 10.5,8.875 a 0.49999,0.49999 0 0 1 0,0.75 l -10.688,8.5938 c -0.02626,0.0211 -0.0063,0.009 -0.03125,0.0313 -0.02498,0.0226 -0.0076,0.007 -0.03125,0.0313 -0.0236,0.0241 -0.0091,0.006 -0.03125,0.0313 -0.02215,0.0254 -0.01064,0.005 -0.03125,0.0313 -0.02061,0.0267 -0.01224,0.003 -0.03125,0.0313 -0.01901,0.0278 0.01734,0.0336 0,0.0625 -0.01734,0.0289 -0.01563,0.001 -0.03125,0.0313 -0.01562,0.0299 -0.01742,5.1e-4 -0.03125,0.0313 -0.01383,0.0307 0.012,-2.5e-4 0,0.0313 -0.012,0.0315 -0.02112,-9e-4 -0.03125,0.0313 -0.01013,0.0322 0.0082,0.0298 0,0.0625 -0.0082,0.0327 0.0063,-0.002 0,0.0313 -0.0063,0.0331 0.0043,-0.002 0,0.0313 -0.0043,0.0334 -0.02889,0.0289 -0.03125,0.0625 -0.0024,0.0336 3.78e-4,-0.002 0,0.0313 -3.78e-4,0.0337 -0.0016,0.0288 0,0.0625 0.0016,0.0337 0.02767,-0.002 0.03125,0.0313 0.0036,0.0335 -0.0055,-0.002 0,0.0313 0.0055,0.0333 -0.0075,0.0296 0,0.0625 0.0075,0.0329 -0.0094,-10e-4 0,0.0313 0.0094,0.0324 0.01996,-5.1e-4 0.03125,0.0313 0.01129,0.0318 -0.01314,2.1e-4 0,0.0313 0.01314,0.031 0.01631,0.0323 0.03125,0.0625 0.01494,0.0302 -0.01669,0.002 0,0.0313 0.01669,0.0293 0.01287,0.003 0.03125,0.0313 0.01838,0.0283 0.01124,0.004 0.03125,0.0313 0.02001,0.0271 0.0097,0.005 0.03125,0.0313 0.02157,0.0259 0.0082,0.007 0.03125,0.0313 0.02306,0.0246 0.0068,0.008 0.03125,0.0313 0.02446,0.0232 0.0055,0.01 0.03125,0.0313 0.02578,0.0217 0.0042,0.0111 0.03125,0.0313 0.01351,0.0101 0.02949,-0.001 0.03125,0 l 11.406,7.25 a 0.49999,0.49999 0 0 1 0.21875,0.4375 l -0.03125,1.375 a 0.49999,0.49999 0 0 1 -0.03125,0.1875 c -0.0093,0.0225 -0.02296,0.008 -0.03125,0.0313 -0.0083,0.0229 0.0073,0.008 0,0.0313 -0.0073,0.0232 0.0063,0.008 0,0.0313 -0.0063,0.0235 0.0053,0.008 0,0.0313 -0.0053,0.0238 -0.02695,0.007 -0.03125,0.0313 -0.0043,0.024 0.0033,0.007 0,0.0313 -0.0033,0.0241 0.0023,0.007 0,0.0313 -0.0023,0.0242 0.0012,0.007 0,0.0313 -0.0012,0.0243 1.88e-4,0.007 0,0.0313 -1.88e-4,0.0243 -8.45e-4,0.007 0,0.0313 8.45e-4,0.0243 -0.0019,0.007 0,0.0313 0.0019,0.0243 -0.0029,0.007 0,0.0313 0.0029,0.0242 -0.0039,0.007 0,0.0313 0.0039,0.024 0.02631,0.007 0.03125,0.0313 0.006,0.0236 -0.0069,0.008 0,0.0313 0.0069,0.0233 -0.0079,0.008 0,0.0313 0.0079,0.023 0.02235,0.009 0.03125,0.0313 0.0089,0.0226 -0.0099,0.009 0,0.0313 0.0099,0.0222 -0.01079,0.009 0,0.0313 0.01079,0.0218 0.01954,0.01 0.03125,0.0313 0.01171,0.0213 -0.0126,0.0104 0,0.0313 0.0126,0.0208 0.01778,0.011 0.03125,0.0313 0.01432,0.0197 0.0161,0.0122 0.03125,0.0313 0.01515,0.019 0.01531,0.0129 0.03125,0.0313 0.01594,0.0184 -0.01671,0.0136 0,0.0313 0.01671,0.0177 0.01381,-0.017 0.03125,0 0.01744,0.017 0.0131,0.015 0.03125,0.0313 0.01815,0.0162 -0.01882,0.0158 0,0.0313 0.01882,0.0154 0.01179,-0.0146 0.03125,0 0.01946,0.0146 0.01119,0.0175 0.03125,0.0313 l 17.062,12 c 0.01799,0.0127 0.01279,-0.012 0.03125,0 0.01846,0.012 0.01234,0.02 0.03125,0.0313 0.01933,0.0105 0.01153,0.0215 0.03125,0.0313 0.01972,0.01 0.01117,-0.009 0.03125,0 0.02008,0.009 0.01084,-0.008 0.03125,0 0.02041,0.008 0.01054,0.0238 0.03125,0.0313 0.02071,0.008 0.01027,-0.007 0.03125,0 0.02122,0.006 0.0098,0.0262 0.03125,0.0313 0.02143,0.005 0.0096,-0.004 0.03125,0 0.02161,0.004 0.0095,-0.003 0.03125,0 0.02175,0.003 0.0094,-0.002 0.03125,0 0.02187,0.003 0.0093,-0.002 0.03125,0 0.02195,0.002 0.0093,-8.5e-4 0.03125,0 0.022,8.4e-4 0.0092,0 0.03125,0 0.022,-8.5e-4 0.0093,0.002 0.03125,0 0.02195,-0.002 0.0094,0.003 0.03125,0 0.02187,-0.002 0.0095,0.003 0.03125,0 0.02175,-0.003 0.0096,0.004 0.03125,0 0.02161,-0.004 0.0098,0.005 0.03125,0 0.02143,-0.005 0.01003,-0.0254 0.03125,-0.0313 0.02098,-0.007 0.01054,0.008 0.03125,0 0.02071,-0.007 0.01084,-0.023 0.03125,-0.0313 0.02041,-0.008 0.01117,0.009 0.03125,0 0.02008,-0.009 0.01153,0.01 0.03125,0 0.01972,-0.01 0.01192,-0.0207 0.03125,-0.0313 0.01891,-0.0113 0.01279,-0.0193 0.03125,-0.0313 0.01846,-0.012 0.01326,0.0127 0.03125,0 l 10.594,-7.5 a 0.49999,0.49999 0 0 1 0.03125,0 0.49999,0.49999 0 0 1 0.0625,-0.0625 0.49999,0.49999 0 0 1 0.03125,0 l 0.0625,-0.0313 6.1562,-4.3125 a 0.49999,0.49999 0 0 1 0.03125,-0.0313 c 0.02269,-0.0137 0.0092,0.0147 0.03125,0 0.02204,-0.0147 0.0099,-0.0155 0.03125,-0.0313 a 0.49999,0.49999 0 0 1 0.03125,-0.0313 c 0.01829,-0.0103 0.01335,0.011 0.03125,0 0.0089,-0.005 0.03012,7.2e-4 0.03125,0 0.0011,-7.2e-4 -0.0087,-0.0254 0,-0.0313 0.01704,-0.0123 0.01467,-0.0183 0.03125,-0.0313 a 0.49999,0.49999 0 0 1 0.0625,-0.0625 0.49999,0.49999 0 0 1 0.03125,-0.0313 c 0.01847,-0.019 -0.01757,-0.0114 0,-0.0313 0.01757,-0.0199 0.01462,-0.0106 0.03125,-0.0313 0.01663,-0.0206 0.0156,-0.01 0.03125,-0.0313 0.01465,-0.0221 0.01764,-0.008 0.03125,-0.0313 0.01361,-0.0228 -0.01254,-0.008 0,-0.0313 0.01254,-0.0234 0.0198,-0.007 0.03125,-0.0313 0.01145,-0.0239 -0.01033,-0.007 0,-0.0313 0.01033,-0.0244 0.02206,-0.006 0.03125,-0.0313 0.0092,-0.0249 -0.008,-0.006 0,-0.0313 0.008,-0.0253 -0.0069,-0.006 0,-0.0313 0.0069,-0.0256 -0.0057,-0.005 0,-0.0313 0.0057,-0.0259 0.02679,-0.005 0.03125,-0.0313 0.0045,-0.0261 -0.0032,-0.005 0,-0.0313 0.0032,-0.0263 -0.002,-0.005 0,-0.0313 0.002,-0.0264 -7.99e-4,-0.005 0,-0.0313 l -0.03125,-2.0312 a 0.49999,0.49999 0 0 1 0.21875,-0.4375 l 11.062,-7.0312 c 0.0018,-10e-4 0.01774,0.0101 0.03125,0 0.02701,-0.0202 0.0055,-0.01 0.03125,-0.0313 0.02578,-0.0217 0.0068,-0.008 0.03125,-0.0313 0.02446,-0.0232 0.0082,-0.007 0.03125,-0.0313 0.02306,-0.0246 0.0097,-0.005 0.03125,-0.0313 0.02157,-0.0259 0.01124,-0.004 0.03125,-0.0313 0.02001,-0.0271 0.01287,-0.003 0.03125,-0.0313 0.01838,-0.0282 0.01456,-0.002 0.03125,-0.0313 0.01669,-0.0293 -0.01494,-0.001 0,-0.0313 0.01494,-0.0302 0.01811,-0.0315 0.03125,-0.0625 0.01314,-0.031 -0.01129,5.1e-4 0,-0.0313 0.01129,-0.0318 0.02184,0.001 0.03125,-0.0313 0.0094,-0.0324 -0.0075,0.002 0,-0.0313 0.0075,-0.0329 -0.0055,-0.0292 0,-0.0625 0.0055,-0.0332 -0.0036,0.002 0,-0.0313 0.0036,-0.0335 0.02965,0.002 0.03125,-0.0313 0.0016,-0.0337 3.78e-4,-0.0288 0,-0.0625 -3.78e-4,-0.0337 0.0024,0.002 0,-0.0313 -0.0024,-0.0336 -0.02692,-0.0291 -0.03125,-0.0625 -0.0043,-0.0334 0.0063,0.002 0,-0.0313 -0.0063,-0.0331 0.0082,10e-4 0,-0.0313 -0.0082,-0.0327 0.01013,-0.0303 0,-0.0625 -0.01013,-0.0322 -0.01925,2.5e-4 -0.03125,-0.0313 -0.012,-0.0315 0.01383,-5.1e-4 0,-0.0313 -0.01383,-0.0307 -0.01564,-10e-4 -0.03125,-0.0313 -0.01561,-0.0299 -0.01391,-0.002 -0.03125,-0.0313 -0.01734,-0.0289 0.01901,-0.0347 0,-0.0625 -0.01901,-0.0278 -0.01063,-0.005 -0.03125,-0.0313 -0.02062,-0.0267 -0.0091,-0.006 -0.03125,-0.0313 -0.02215,-0.0254 -0.0076,-0.007 -0.03125,-0.0313 -0.0236,-0.0241 -0.0063,-0.009 -0.03125,-0.0313 -0.02497,-0.0226 -0.005,-0.0101 -0.03125,-0.0313 l -10.562,-8.5 a 0.49999,0.49999 0 0 1 0,-0.75 l 10.5,-8.9375 c 0.02572,-0.0219 0.0069,-0.008 0.03125,-0.0313 0.02438,-0.0234 0.0083,-0.006 0.03125,-0.0313 0.02296,-0.0248 -0.02145,-0.005 0,-0.0313 0.02145,-0.0261 0.01137,-0.004 0.03125,-0.0313 0.01988,-0.0273 0.01302,-0.003 0.03125,-0.0313 0.01823,-0.0285 0.01473,-0.002 0.03125,-0.0313 0.01652,-0.0295 -0.01475,-0.0321 0,-0.0625 0.01475,-0.0304 0.01832,-2e-5 0.03125,-0.0313 0.01293,-0.0312 -0.01107,6.9e-4 0,-0.0313 0.01107,-0.0319 0.02208,10e-4 0.03125,-0.0313 0.0092,-0.0325 -0.0072,-0.0295 0,-0.0625 0.0072,-0.033 -0.0053,0.002 0,-0.0313 0.0053,-0.0334 0.02795,0.002 0.03125,-0.0313 0.0033,-0.0336 -0.0013,-0.0287 0,-0.0625 0.0013,-0.0338 6.83e-4,0.003 0,-0.0313 -6.83e-4,-0.0338 0.0027,-0.0288 0,-0.0625 -0.0027,-0.0337 -0.02659,0.002 -0.03125,-0.0313 -0.0047,-0.0335 0.0066,0.002 0,-0.0313 -0.0066,-0.0331 0.0086,-0.0298 0,-0.0625 -0.0086,-0.0327 0.01048,8.9e-4 0,-0.0313 -0.01048,-0.0321 -0.0189,2.2e-4 -0.03125,-0.0313 -0.01235,-0.0315 0.01419,-5.7e-4 0,-0.0313 -0.01419,-0.0307 -0.01528,-0.0327 -0.03125,-0.0625 -0.01597,-0.0298 -0.01355,-0.002 -0.03125,-0.0313 -0.0177,-0.0288 0.01937,-0.003 0,-0.0313 -0.01937,-0.0277 -0.01028,-0.005 -0.03125,-0.0313 -0.02097,-0.0265 -0.0088,-0.006 -0.03125,-0.0313 -0.02249,-0.0252 -0.0073,-0.007 -0.03125,-0.0313 -0.02394,-0.0239 -0.0059,-0.009 -0.03125,-0.0313 -0.02531,-0.0224 -0.0047,-0.0104 -0.03125,-0.0313 -0.02658,-0.0209 -0.0035,-0.012 -0.03125,-0.0313 -0.02777,-0.0193 -0.0024,0.0176 -0.03125,0 l -17.25,-10.469 c -0.01882,-0.0115 -0.012,-0.0205 -0.03125,-0.0313 -0.01925,-0.0108 -0.0116,0.01 -0.03125,0 -0.01965,-0.01 -0.01123,-0.022 -0.03125,-0.0313 -0.02002,-0.009 -0.01088,0.009 -0.03125,0 -0.02068,-0.008 -0.01029,-0.0243 -0.03125,-0.0313 -0.02096,-0.007 -0.01004,0.006 -0.03125,0 -0.02121,-0.006 -0.0098,0.005 -0.03125,0 -0.02143,-0.005 -0.0096,0.004 -0.03125,0 -0.02162,-0.004 -0.0095,0.004 -0.03125,0 -0.02177,-0.004 0.02189,-0.0285 0,-0.0313 -0.02189,-0.003 -0.0093,0.002 -0.03125,0 -0.02199,-0.002 -0.0092,10e-4 -0.03125,0 -0.02204,-10e-4 -0.0092,2.3e-4 -0.03125,0 -0.02207,-2.3e-4 -0.0092,-6.2e-4 -0.03125,0 -0.02206,6.2e-4 -0.0092,-10e-4 -0.03125,0 -0.02202,0.002 -0.0093,-0.002 -0.03125,0 -0.02195,0.002 -0.0094,-0.003 -0.03125,0 -0.02184,0.003 -0.0095,0.0273 -0.03125,0.0313 -0.02153,0.005 -0.0099,-0.006 -0.03125,0 -0.02133,0.006 -0.01015,-0.006 -0.03125,0 -0.0211,0.007 -0.01042,0.024 -0.03125,0.0313 -0.02083,0.007 -0.01071,-0.008 -0.03125,0 -0.02054,0.008 -0.01104,-0.009 -0.03125,0 -0.02021,0.009 0.01986,0.0216 0,0.0313 -0.01986,0.01 -0.01178,-0.0104 -0.03125,0 -0.01947,0.0104 -0.01219,-0.0111 -0.03125,0 -0.01906,0.0111 -0.01264,0.0194 -0.03125,0.0313 -0.01814,0.0126 -0.0136,0.018 -0.03125,0.0313 -0.01765,0.0133 -0.01413,-0.0139 -0.03125,0 l -10.594,9.125 a 0.49999,0.49999 0 0 1 -0.625,0 l -10.688,-9.1875 c -0.02122,-0.0178 -0.0092,0.0167 -0.03125,0 -0.02205,-0.0167 -0.0084,-0.0156 -0.03125,-0.0313 -0.02283,-0.0156 -0.0077,-0.0167 -0.03125,-0.0313 -0.02356,-0.0145 -0.007,0.0134 -0.03125,0 -0.02424,-0.0134 -0.0064,-0.0191 -0.03125,-0.0313 -0.02485,-0.0122 -0.0058,0.011 -0.03125,0 -0.02541,-0.011 -0.0053,-0.0215 -0.03125,-0.0313 -0.02591,-0.01 -0.0049,0.009 -0.03125,0 -0.02635,-0.008 -0.0045,0.007 -0.03125,0 -0.02673,-0.007 -0.0042,-0.0254 -0.03125,-0.0313 -0.02705,-0.006 -0.004,0.005 -0.03125,0 -0.0273,-0.005 -0.0038,0.003 -0.03125,0 -0.02749,-0.003 -0.0036,0.002 -0.03125,0 -0.02761,-0.002 -0.03482,5.9e-4 -0.0625,0 -0.02768,-5.9e-4 -0.0036,-7.5e-4 -0.03125,0 -0.0166,0.002 -0.02913,-2.9e-4 -0.03125,0 -0.0021,2.9e-4 -0.01478,-0.003 -0.03125,0 -0.03295,0.005 0.0013,-0.007 -0.03125,0 z" />
    <path
       style="color:#000000;fill:#0b5a9a"
       inkscape:connector-curvature="0"
       id="path86"
       d="m -73.479,878.81 c -0.03257,0.007 8.38e-4,0.022 -0.03125,0.0313 -0.03209,0.009 -0.03101,-0.0111 -0.0625,0 -0.03149,0.0111 -4.57e-4,0.0183 -0.03125,0.0313 -0.03079,0.0129 -0.0013,-0.0147 -0.03125,0 -0.02999,0.0147 -0.0022,0.0148 -0.03125,0.0313 -0.02908,0.0164 -0.0032,-0.0181 -0.03125,0 a 0.49999,0.49999 0 0 1 -0.03125,0.0313 l -17.25,10.5 c -0.02886,0.0176 -0.0035,-0.0193 -0.03125,0 -0.02777,0.0193 -0.0047,0.0104 -0.03125,0.0313 -0.02658,0.0209 -0.0059,0.009 -0.03125,0.0313 -0.02531,0.0224 -0.0073,0.007 -0.03125,0.0313 -0.02394,0.0239 -0.0088,0.006 -0.03125,0.0313 -0.02249,0.0252 -0.01028,0.005 -0.03125,0.0313 -0.02097,0.0265 -0.01188,0.004 -0.03125,0.0313 -0.01937,0.0277 0.0177,0.002 0,0.0313 -0.0177,0.0288 -0.01528,0.002 -0.03125,0.0313 -0.01597,0.0298 -0.01706,0.0318 -0.03125,0.0625 -0.01419,0.0307 0.01235,-2.2e-4 0,0.0313 -0.01235,0.0315 -0.02077,-8.9e-4 -0.03125,0.0313 -0.01048,0.0321 0.0086,-10e-4 0,0.0313 -0.0086,0.0327 0.0066,0.0294 0,0.0625 -0.0066,0.0332 0.0047,-0.002 0,0.0313 -0.0047,0.0335 -0.02858,-0.002 -0.03125,0.0313 -0.0027,0.0337 6.83e-4,0.0287 0,0.0625 -6.83e-4,0.0338 -0.0013,-0.002 0,0.0313 0.0013,0.0338 -0.0033,0.0289 0,0.0625 0.0033,0.0336 0.02597,-0.002 0.03125,0.0313 0.0053,0.0334 -0.0072,-0.002 0,0.0313 0.0072,0.033 -0.0092,0.03 0,0.0625 0.0092,0.0325 0.02018,-6.9e-4 0.03125,0.0313 0.01107,0.0319 -0.01293,2e-5 0,0.0313 0.01293,0.0312 0.0165,8.4e-4 0.03125,0.0313 0.01475,0.0304 -0.01652,0.033 0,0.0625 0.01652,0.0295 0.01302,0.003 0.03125,0.0313 0.01823,0.0285 0.01137,0.004 0.03125,0.0313 0.01988,0.0273 0.0098,0.005 0.03125,0.0313 0.02145,0.0261 -0.02296,0.006 0,0.0313 0.02296,0.0248 0.0069,0.008 0.03125,0.0313 0.02438,0.0234 0.0055,0.009 0.03125,0.0313 l 10.5,8.875 a 0.49999,0.49999 0 0 1 0,0.75 l -10.688,8.5938 c -0.02626,0.0211 -0.0063,0.009 -0.03125,0.0313 -0.02498,0.0226 -0.0076,0.007 -0.03125,0.0313 -0.0236,0.0241 -0.0091,0.006 -0.03125,0.0313 -0.02215,0.0254 -0.01064,0.005 -0.03125,0.0313 -0.02061,0.0267 -0.01224,0.003 -0.03125,0.0313 -0.01901,0.0278 0.01734,0.0336 0,0.0625 -0.01734,0.0289 -0.01563,0.001 -0.03125,0.0313 -0.01562,0.0299 -0.01742,5.1e-4 -0.03125,0.0313 -0.01383,0.0307 0.012,-2.5e-4 0,0.0313 -0.012,0.0315 -0.02112,-9e-4 -0.03125,0.0313 -0.01013,0.0322 0.0082,0.0298 0,0.0625 -0.0082,0.0327 0.0063,-0.002 0,0.0313 -0.0063,0.0331 0.0043,-0.002 0,0.0313 -0.0043,0.0334 -0.02889,0.0289 -0.03125,0.0625 -0.0024,0.0336 3.78e-4,-0.002 0,0.0313 -3.78e-4,0.0337 -0.0016,0.0288 0,0.0625 0.0016,0.0337 0.02767,-0.002 0.03125,0.0313 0.0036,0.0335 -0.0055,-0.002 0,0.0313 0.0055,0.0333 -0.0075,0.0296 0,0.0625 0.0075,0.0329 -0.0094,-10e-4 0,0.0313 0.0094,0.0324 0.01996,-5.1e-4 0.03125,0.0313 0.01129,0.0318 -0.01314,2.1e-4 0,0.0313 0.01314,0.031 0.01631,0.0323 0.03125,0.0625 0.01494,0.0302 -0.01669,0.002 0,0.0313 0.01669,0.0293 0.01287,0.003 0.03125,0.0313 0.01838,0.0283 0.01124,0.004 0.03125,0.0313 0.02001,0.0271 0.0097,0.005 0.03125,0.0313 0.02157,0.0259 0.0082,0.007 0.03125,0.0313 0.02306,0.0246 0.0068,0.008 0.03125,0.0313 0.02446,0.0232 0.0055,0.01 0.03125,0.0313 0.02578,0.0217 0.0042,0.0111 0.03125,0.0313 0.01351,0.0101 0.02949,-0.001 0.03125,0 l 11.406,7.25 a 0.49999,0.49999 0 0 1 0.21875,0.4375 l -0.03125,1.375 a 0.49999,0.49999 0 0 1 -0.03125,0.1875 c -0.0093,0.0225 -0.02296,0.008 -0.03125,0.0313 -0.0083,0.0229 0.0073,0.008 0,0.0313 -0.0073,0.0232 0.0063,0.008 0,0.0313 -0.0063,0.0235 0.0053,0.008 0,0.0313 -0.0053,0.0238 -0.02695,0.007 -0.03125,0.0313 -0.0043,0.024 0.0033,0.007 0,0.0313 -0.0033,0.0241 0.0023,0.007 0,0.0313 -0.0023,0.0242 0.0012,0.007 0,0.0313 -0.0012,0.0243 1.88e-4,0.007 0,0.0313 -1.88e-4,0.0243 -8.45e-4,0.007 0,0.0313 8.45e-4,0.0243 -0.0019,0.007 0,0.0313 0.0019,0.0243 -0.0029,0.007 0,0.0313 0.0029,0.0242 -0.0039,0.007 0,0.0313 0.0039,0.024 0.02631,0.007 0.03125,0.0313 0.006,0.0236 -0.0069,0.008 0,0.0313 0.0069,0.0233 -0.0079,0.008 0,0.0313 0.0079,0.023 0.02235,0.009 0.03125,0.0313 0.0089,0.0226 -0.0099,0.009 0,0.0313 0.0099,0.0222 -0.01079,0.009 0,0.0313 0.01079,0.0218 0.01954,0.01 0.03125,0.0313 0.01171,0.0213 -0.0126,0.0104 0,0.0313 0.0126,0.0208 0.01778,0.011 0.03125,0.0313 0.01432,0.0197 0.0161,0.0122 0.03125,0.0313 0.01515,0.019 0.01531,0.0129 0.03125,0.0313 0.01594,0.0184 -0.01671,0.0136 0,0.0313 0.01671,0.0177 0.01381,-0.017 0.03125,0 0.01744,0.017 0.0131,0.015 0.03125,0.0313 0.01815,0.0162 -0.01882,0.0158 0,0.0313 0.01882,0.0154 0.01179,-0.0146 0.03125,0 0.01946,0.0146 0.01119,0.0175 0.03125,0.0313 l 17.062,12 c 0.01799,0.0127 0.01279,-0.012 0.03125,0 0.01846,0.012 0.01234,0.02 0.03125,0.0313 0.01933,0.0105 0.01153,0.0215 0.03125,0.0313 0.01972,0.01 0.01117,-0.009 0.03125,0 0.02008,0.009 0.01084,-0.008 0.03125,0 0.02041,0.008 0.01054,0.0238 0.03125,0.0313 0.02071,0.008 0.01027,-0.007 0.03125,0 0.02122,0.006 0.0098,0.0262 0.03125,0.0313 0.02143,0.005 0.0096,-0.004 0.03125,0 0.02161,0.004 0.0095,-0.003 0.03125,0 0.02175,0.003 0.0094,-0.002 0.03125,0 0.02187,0.003 0.0093,-0.002 0.03125,0 0.02195,0.002 0.0093,-8.5e-4 0.03125,0 0.022,8.4e-4 0.0092,0 0.03125,0 0.022,-8.5e-4 0.0093,0.002 0.03125,0 0.02195,-0.002 0.0094,0.003 0.03125,0 0.02187,-0.002 0.0095,0.003 0.03125,0 0.02175,-0.003 0.0096,0.004 0.03125,0 0.02161,-0.004 0.0098,0.005 0.03125,0 0.02143,-0.005 0.01003,-0.0254 0.03125,-0.0313 0.02098,-0.007 0.01054,0.008 0.03125,0 0.02071,-0.007 0.01084,-0.023 0.03125,-0.0313 0.02041,-0.008 0.01117,0.009 0.03125,0 0.02008,-0.009 0.01153,0.01 0.03125,0 0.01972,-0.01 0.01192,-0.0207 0.03125,-0.0313 0.01891,-0.0113 0.01279,-0.0193 0.03125,-0.0313 0.01846,-0.012 0.01326,0.0127 0.03125,0 l 10.594,-7.5 a 0.49999,0.49999 0 0 1 0.03125,0 0.49999,0.49999 0 0 1 0.0625,-0.0625 0.49999,0.49999 0 0 1 0.03125,0 l 0.0625,-0.0313 6.1562,-4.3125 a 0.49999,0.49999 0 0 1 0.03125,-0.0313 c 0.02269,-0.0137 0.0092,0.0147 0.03125,0 0.02204,-0.0147 0.0099,-0.0155 0.03125,-0.0313 a 0.49999,0.49999 0 0 1 0.03125,-0.0313 c 0.01829,-0.0103 0.01335,0.011 0.03125,0 0.0089,-0.005 0.03012,7.2e-4 0.03125,0 0.0011,-7.2e-4 -0.0087,-0.0254 0,-0.0313 0.01704,-0.0123 0.01467,-0.0183 0.03125,-0.0313 a 0.49999,0.49999 0 0 1 0.0625,-0.0625 0.49999,0.49999 0 0 1 0.03125,-0.0313 c 0.01847,-0.019 -0.01757,-0.0114 0,-0.0313 0.01757,-0.0199 0.01462,-0.0106 0.03125,-0.0313 0.01663,-0.0206 0.0156,-0.01 0.03125,-0.0313 0.01465,-0.0221 0.01764,-0.008 0.03125,-0.0313 0.01361,-0.0228 -0.01254,-0.008 0,-0.0313 0.01254,-0.0234 0.0198,-0.007 0.03125,-0.0313 0.01145,-0.0239 -0.01033,-0.007 0,-0.0313 0.01033,-0.0244 0.02206,-0.006 0.03125,-0.0313 0.0092,-0.0249 -0.008,-0.006 0,-0.0313 0.008,-0.0253 -0.0069,-0.006 0,-0.0313 0.0069,-0.0256 -0.0057,-0.005 0,-0.0313 0.0057,-0.0259 0.02679,-0.005 0.03125,-0.0313 0.0045,-0.0261 -0.0032,-0.005 0,-0.0313 0.0032,-0.0263 -0.002,-0.005 0,-0.0313 0.002,-0.0264 -7.99e-4,-0.005 0,-0.0313 l -0.03125,-2.0312 a 0.49999,0.49999 0 0 1 0.21875,-0.4375 l 11.062,-7.0312 c 0.0018,-10e-4 0.01774,0.0101 0.03125,0 0.02701,-0.0202 0.0055,-0.01 0.03125,-0.0313 0.02578,-0.0217 0.0068,-0.008 0.03125,-0.0313 0.02446,-0.0232 0.0082,-0.007 0.03125,-0.0313 0.02306,-0.0246 0.0097,-0.005 0.03125,-0.0313 0.02157,-0.0259 0.01124,-0.004 0.03125,-0.0313 0.02001,-0.0271 0.01287,-0.003 0.03125,-0.0313 0.01838,-0.0282 0.01456,-0.002 0.03125,-0.0313 0.01669,-0.0293 -0.01494,-0.001 0,-0.0313 0.01494,-0.0302 0.01811,-0.0315 0.03125,-0.0625 0.01314,-0.031 -0.01129,5.1e-4 0,-0.0313 0.01129,-0.0318 0.02184,0.001 0.03125,-0.0313 0.0094,-0.0324 -0.0075,0.002 0,-0.0313 0.0075,-0.0329 -0.0055,-0.0292 0,-0.0625 0.0055,-0.0332 -0.0036,0.002 0,-0.0313 0.0036,-0.0335 0.02965,0.002 0.03125,-0.0313 0.0016,-0.0337 3.78e-4,-0.0288 0,-0.0625 -3.78e-4,-0.0337 0.0024,0.002 0,-0.0313 -0.0024,-0.0336 -0.02692,-0.0291 -0.03125,-0.0625 -0.0043,-0.0334 0.0063,0.002 0,-0.0313 -0.0063,-0.0331 0.0082,10e-4 0,-0.0313 -0.0082,-0.0327 0.01013,-0.0303 0,-0.0625 -0.01013,-0.0322 -0.01925,2.5e-4 -0.03125,-0.0313 -0.012,-0.0315 0.01383,-5.1e-4 0,-0.0313 -0.01383,-0.0307 -0.01564,-10e-4 -0.03125,-0.0313 -0.01561,-0.0299 -0.01391,-0.002 -0.03125,-0.0313 -0.01734,-0.0289 0.01901,-0.0347 0,-0.0625 -0.01901,-0.0278 -0.01063,-0.005 -0.03125,-0.0313 -0.02062,-0.0267 -0.0091,-0.006 -0.03125,-0.0313 -0.02215,-0.0254 -0.0076,-0.007 -0.03125,-0.0313 -0.0236,-0.0241 -0.0063,-0.009 -0.03125,-0.0313 -0.02497,-0.0226 -0.005,-0.0101 -0.03125,-0.0313 l -10.562,-8.5 a 0.49999,0.49999 0 0 1 0,-0.75 l 10.5,-8.9375 c 0.02572,-0.0219 0.0069,-0.008 0.03125,-0.0313 0.02438,-0.0234 0.0083,-0.006 0.03125,-0.0313 0.02296,-0.0248 -0.02145,-0.005 0,-0.0313 0.02145,-0.0261 0.01137,-0.004 0.03125,-0.0313 0.01988,-0.0273 0.01302,-0.003 0.03125,-0.0313 0.01823,-0.0285 0.01473,-0.002 0.03125,-0.0313 0.01652,-0.0295 -0.01475,-0.0321 0,-0.0625 0.01475,-0.0304 0.01832,-2e-5 0.03125,-0.0313 0.01293,-0.0312 -0.01107,6.9e-4 0,-0.0313 0.01107,-0.0319 0.02208,10e-4 0.03125,-0.0313 0.0092,-0.0325 -0.0072,-0.0295 0,-0.0625 0.0072,-0.033 -0.0053,0.002 0,-0.0313 0.0053,-0.0334 0.02795,0.002 0.03125,-0.0313 0.0033,-0.0336 -0.0013,-0.0287 0,-0.0625 0.0013,-0.0338 6.83e-4,0.003 0,-0.0313 -6.83e-4,-0.0338 0.0027,-0.0288 0,-0.0625 -0.0027,-0.0337 -0.02659,0.002 -0.03125,-0.0313 -0.0047,-0.0335 0.0066,0.002 0,-0.0313 -0.0066,-0.0331 0.0086,-0.0298 0,-0.0625 -0.0086,-0.0327 0.01048,8.9e-4 0,-0.0313 -0.01048,-0.0321 -0.0189,2.2e-4 -0.03125,-0.0313 -0.01235,-0.0315 0.01419,-5.7e-4 0,-0.0313 -0.01419,-0.0307 -0.01528,-0.0327 -0.03125,-0.0625 -0.01597,-0.0298 -0.01355,-0.002 -0.03125,-0.0313 -0.0177,-0.0288 0.01937,-0.003 0,-0.0313 -0.01937,-0.0277 -0.01028,-0.005 -0.03125,-0.0313 -0.02097,-0.0265 -0.0088,-0.006 -0.03125,-0.0313 -0.02249,-0.0252 -0.0073,-0.007 -0.03125,-0.0313 -0.02394,-0.0239 -0.0059,-0.009 -0.03125,-0.0313 -0.02531,-0.0224 -0.0047,-0.0104 -0.03125,-0.0313 -0.02658,-0.0209 -0.0035,-0.012 -0.03125,-0.0313 -0.02777,-0.0193 -0.0024,0.0176 -0.03125,0 l -17.25,-10.469 c -0.01882,-0.0115 -0.012,-0.0205 -0.03125,-0.0313 -0.01925,-0.0108 -0.0116,0.01 -0.03125,0 -0.01965,-0.01 -0.01123,-0.022 -0.03125,-0.0313 -0.02002,-0.009 -0.01088,0.009 -0.03125,0 -0.02068,-0.008 -0.01029,-0.0243 -0.03125,-0.0313 -0.02096,-0.007 -0.01004,0.006 -0.03125,0 -0.02121,-0.006 -0.0098,0.005 -0.03125,0 -0.02143,-0.005 -0.0096,0.004 -0.03125,0 -0.02162,-0.004 -0.0095,0.004 -0.03125,0 -0.02177,-0.004 0.02189,-0.0285 0,-0.0313 -0.02189,-0.003 -0.0093,0.002 -0.03125,0 -0.02199,-0.002 -0.0092,10e-4 -0.03125,0 -0.02204,-10e-4 -0.0092,2.3e-4 -0.03125,0 -0.02207,-2.3e-4 -0.0092,-6.2e-4 -0.03125,0 -0.02206,6.2e-4 -0.0092,-10e-4 -0.03125,0 -0.02202,0.002 -0.0093,-0.002 -0.03125,0 -0.02195,0.002 -0.0094,-0.003 -0.03125,0 -0.02184,0.003 -0.0095,0.0273 -0.03125,0.0313 -0.02153,0.005 -0.0099,-0.006 -0.03125,0 -0.02133,0.006 -0.01015,-0.006 -0.03125,0 -0.0211,0.007 -0.01042,0.024 -0.03125,0.0313 -0.02083,0.007 -0.01071,-0.008 -0.03125,0 -0.02054,0.008 -0.01104,-0.009 -0.03125,0 -0.02021,0.009 0.01986,0.0216 0,0.0313 -0.01986,0.01 -0.01178,-0.0104 -0.03125,0 -0.01947,0.0104 -0.01219,-0.0111 -0.03125,0 -0.01906,0.0111 -0.01264,0.0194 -0.03125,0.0313 -0.01814,0.0126 -0.0136,0.018 -0.03125,0.0313 -0.01765,0.0133 -0.01413,-0.0139 -0.03125,0 l -10.594,9.125 a 0.49999,0.49999 0 0 1 -0.625,0 l -10.688,-9.1875 c -0.02122,-0.0178 -0.0092,0.0167 -0.03125,0 -0.02205,-0.0167 -0.0084,-0.0156 -0.03125,-0.0313 -0.02283,-0.0156 -0.0077,-0.0167 -0.03125,-0.0313 -0.02356,-0.0145 -0.007,0.0134 -0.03125,0 -0.02424,-0.0134 -0.0064,-0.0191 -0.03125,-0.0313 -0.02485,-0.0122 -0.0058,0.011 -0.03125,0 -0.02541,-0.011 -0.0053,-0.0215 -0.03125,-0.0313 -0.02591,-0.01 -0.0049,0.009 -0.03125,0 -0.02635,-0.008 -0.0045,0.007 -0.03125,0 -0.02673,-0.007 -0.0042,-0.0254 -0.03125,-0.0313 -0.02705,-0.006 -0.004,0.005 -0.03125,0 -0.0273,-0.005 -0.0038,0.003 -0.03125,0 -0.02749,-0.003 -0.0036,0.002 -0.03125,0 -0.02761,-0.002 -0.03482,5.9e-4 -0.0625,0 -0.02768,-5.9e-4 -0.0036,-7.5e-4 -0.03125,0 -0.0166,0.002 -0.02913,-2.9e-4 -0.03125,0 -0.0021,2.9e-4 -0.01478,-0.003 -0.03125,0 -0.03295,0.005 0.0013,-0.007 -0.03125,0 z" />
    <use
       height="100%"
       width="100%"
       y="0"
       x="0"
       id="use88"
       xlink:href="#SVGCleanerId_0" />
    <path
       inkscape:connector-curvature="0"
       style="color:#000000;fill:#8cc5f4;fill-opacity:1"
       id="path90"
       d="m -50.501,879.58 17.24,10.494 -11.665,9.8966 -17.042,-10.5 11.467,-9.8903 z" />
    <path
       inkscape:connector-curvature="0"
       style="color:#000000;fill:#8cc5f4;fill-opacity:1"
       id="path92"
       d="m -73.357,879.52 -17.24,10.494 11.665,9.8966 17.042,-10.5 -11.467,-9.8903 z" />
    <path
       inkscape:connector-curvature="0"
       style="fill:url(#linearGradient15194)"
       id="path94"
       d="m -78.885,919.47 0.17256,-19.754 16.863,-10.288 0,18.023 -17.035,12.018 z" />
    <path
       inkscape:connector-curvature="0"
       style="opacity:0.6;fill:url(#linearGradient15196)"
       id="path96"
       d="m -61.927,931.27 0.1547,-20.885 -17.017,-10.597 0,19.725 16.863,11.757 z" />
    <path
       inkscape:connector-curvature="0"
       style="fill:url(#linearGradient15198)"
       id="path98"
       d="m -44.882,919.47 -0.06284,-19.754 -16.917,-10.343 0,18.297 16.98,11.799 z" />
    <path
       inkscape:connector-curvature="0"
       style="opacity:0.6;fill:url(#linearGradient15200)"
       id="path100"
       d="m -61.73,931.27 -0.1547,-20.885 17.017,-10.597 0,19.725 -16.863,11.757 z" />
    <path
       inkscape:connector-curvature="0"
       style="color:#000000;fill:#8cc5f4;fill-opacity:1"
       id="path102"
       d="m -44.927,899.92 11.775,9.4577 -17.151,10.939 -11.665,-9.8966 17.042,-10.5 z" />
    <path
       inkscape:connector-curvature="0"
       style="color:#000000;fill:#8cc5f4;fill-opacity:1"
       id="path104"
       d="m -79.041,899.92 -11.775,9.4577 17.151,10.939 11.665,-9.8966 -17.042,-10.5 z" />
    <use
       height="100%"
       width="100%"
       y="0"
       x="0"
       style="opacity:0.2;fill:#61abea;fill-opacity:1"
       id="use106"
       xlink:href="#SVGCleanerId_0" />
    <path
       inkscape:connector-curvature="0"
       style="opacity:0.6;fill:url(#linearGradient15206)"
       id="path108"
       d="m -78.791,900.06 0,16.969 5.125,3.2812 11.656,-9.9062 -16.781,-10.344 z" />
    <path
       inkscape:connector-curvature="0"
       style="opacity:0.6;fill:url(#linearGradient15208)"
       id="path110"
       d="m -44.916,899.91 -12.969,8 -4,2.4688 0,0.125 11.594,9.8125 5.4375,-3.4688 0,-16.875 -0.0625,-0.0625 z" />
  </g>
  <g
     id="g14291">
    <path
       d="m 5.2922679,73.685059 0,5.0663 c 0,6.668 5.3645011,12.032 12.0320011,12.032 l 61.049,0 c 6.668,0 12.032,-5.3645 12.032,-12.032 l 0,-5.0663 c 0,6.6681 -5.3645,12.032 -12.032,12.032 l -61.049,0 c -6.668,0 -12.0320011,-5.3643 -12.0320011,-12.032 z"
       id="path64"
       inkscape:connector-curvature="0"
       style="opacity:0.4;fill:url(#linearGradient14237);fill-opacity:1" />
    <path
       inkscape:connector-curvature="0"
       id="path14214"
       d="m 5.2929688,72.717592 0,1.15039 c 0,6.667718 5.3632502,12.031248 12.0312502,12.031248 l 61.048828,0 c 6.6675,0 12.03125,-5.36313 12.03125,-12.031248 l 0,-1.15039 c 0,6.668098 -5.36375,12.031248 -12.03125,12.031248 l -61.048828,0 c -6.668,0 -12.0312502,-5.36355 -12.0312502,-12.031248 z"
       style="opacity:0.5;fill:url(#linearGradient14245);fill-opacity:1" />
  </g>
</svg>
