<?xml version="1.0" encoding="UTF-8" standalone="no"?>
<svg
   xmlns:dc="http://purl.org/dc/elements/1.1/"
   xmlns:cc="http://creativecommons.org/ns#"
   xmlns:rdf="http://www.w3.org/1999/02/22-rdf-syntax-ns#"
   xmlns:svg="http://www.w3.org/2000/svg"
   xmlns="http://www.w3.org/2000/svg"
   xmlns:xlink="http://www.w3.org/1999/xlink"
   xmlns:sodipodi="http://sodipodi.sourceforge.net/DTD/sodipodi-0.dtd"
   xmlns:inkscape="http://www.inkscape.org/namespaces/inkscape"
   height="96"
   width="96"
   id="svg2054"
   version="1.1"
   inkscape:version="0.91 r13725"
   sodipodi:docname="eclipse.svg">
  <metadata
     id="metadata2125">
    <rdf:RDF>
      <cc:Work
         rdf:about="">
        <dc:format>image/svg+xml</dc:format>
        <dc:type
           rdf:resource="http://purl.org/dc/dcmitype/StillImage" />
      </cc:Work>
    </rdf:RDF>
  </metadata>
  <sodipodi:namedview
     pagecolor="#ffffff"
     bordercolor="#666666"
     borderopacity="1"
     objecttolerance="10"
     gridtolerance="10"
     guidetolerance="10"
     inkscape:pageopacity="0"
     inkscape:pageshadow="2"
     inkscape:window-width="640"
     inkscape:window-height="480"
     id="namedview2123"
     showgrid="false"
     inkscape:zoom="2.4583333"
     inkscape:cx="48"
     inkscape:cy="48"
     inkscape:current-layer="svg2054" />
  <defs
     id="defs2056">
    <filter
       color-interpolation-filters="sRGB"
       id="filter4039">
      <feGaussianBlur
         stdDeviation="2.4"
         id="feGaussianBlur2059" />
    </filter>
    <radialGradient
       cy="66.11"
       r="30"
       gradientUnits="userSpaceOnUse"
       id="radialGradient6749"
       cx="52"
       gradientTransform="matrix(1.0929,-0.00682,0.01179,1.8889,-5.787,-61.17)">
      <stop
         stop-color="#8c7bbd"
         id="stop2062" />
      <stop
         stop-color="#150641"
         offset="1"
         id="stop2064" />
    </radialGradient>
    <linearGradient
       x2="0"
       y1="90"
       y2="5.988"
       gradientUnits="userSpaceOnUse"
       id="linearGradient6751"
       gradientTransform="matrix(1.0673,0,0,1.0673,-3.28,-3.313)">
      <stop
         stop-color="#36326c"
         id="stop2067" />
      <stop
         stop-color="#6d6aaf"
         offset="1"
         id="stop2069" />
    </linearGradient>
    <linearGradient
       x1="6"
       x2="90"
       gradientUnits="userSpaceOnUse"
       id="linearGradient6754"
       gradientTransform="translate(-0.18,-2.76)">
      <stop
         stop-color="#aaf"
         id="stop2072" />
      <stop
         stop-color="#aaf"
         stop-opacity="0"
         offset="1"
         id="stop2074" />
    </linearGradient>
    <linearGradient
       x1="6"
       x2="56.04"
       gradientUnits="userSpaceOnUse"
       id="linearGradient6756"
       gradientTransform="translate(-0.18,-0.76)">
      <stop
         id="stop2077" />
      <stop
         stop-opacity="0"
         offset="1"
         id="stop2079" />
    </linearGradient>
    <radialGradient
       cy="12.516"
       r="20.571"
       fx="8.06"
       fy="11.953"
       gradientUnits="userSpaceOnUse"
       id="radialGradient6758"
       cx="10.367"
       gradientTransform="matrix(2.1784 2.0857 -1.4669 1.6209 17 939.78)">
      <stop
         stop-color="#f6e5ed"
         id="stop2082" />
      <stop
         stop-color="#9f275f"
         offset="1"
         id="stop2084" />
    </radialGradient>
    <path
       d="m73.82 1001.6a30 30 0 0 1 -60 0 30 30 0 1 1 60 0z"
       fill="url(#radialGradient6758)"
       id="SVGCleanerId_0" />
    <linearGradient
       inkscape:collect="always"
       xlink:href="#linearGradient14231"
       id="linearGradient14237"
       x1="50.707542"
       y1="81.682442"
       x2="50.707542"
       y2="96.539803"
       gradientUnits="userSpaceOnUse" />
    <linearGradient
       inkscape:collect="always"
       id="linearGradient14231">
      <stop
         style="stop-color:#000000;stop-opacity:1;"
         offset="0"
         id="stop14233" />
      <stop
         style="stop-color:#000000;stop-opacity:0;"
         offset="1"
         id="stop14235" />
    </linearGradient>
    <linearGradient
       inkscape:collect="always"
       xlink:href="#linearGradient14239"
       id="linearGradient14245"
       x1="49.876652"
       y1="87.937508"
       x2="49.876652"
       y2="76.719681"
       gradientUnits="userSpaceOnUse" />
    <linearGradient
       inkscape:collect="always"
       id="linearGradient14239">
      <stop
         style="stop-color:#ffffff;stop-opacity:1;"
         offset="0"
         id="stop14241" />
      <stop
         style="stop-color:#ffffff;stop-opacity:0;"
         offset="1"
         id="stop14243" />
    </linearGradient>
  </defs>
  <rect
     style="fill-opacity:0.02000002"
     id="rect2089"
     width="89.620003"
     height="89.980003"
     y="2.9899757"
     rx="12.724"
     x="3.3529999" />
  <rect
     style="fill-opacity:0.03900003"
     id="rect2091"
     width="88.410004"
     height="88.760002"
     y="3.6000221"
     rx="12.552"
     x="3.9590001" />
  <rect
     style="fill-opacity:0.078"
     id="rect2093"
     width="87.199997"
     height="87.550003"
     y="4.2100072"
     rx="12.38"
     x="4.5640001" />
  <rect
     style="fill-opacity:0.15700001"
     id="rect2095"
     width="85.990997"
     height="86.330002"
     y="4.8199925"
     rx="12.208"
     x="5.1700001" />
  <path
     inkscape:connector-curvature="0"
     style="fill:url(#linearGradient6751)"
     id="path2097"
     d="m 17.75,5.4062 c -6.642,0 -11.969,5.3948 -11.969,12.063 l 2e-4,61.031 c 0,6.668 5.3268,12.031 11.969,12.031 l 60.812,0 c 6.642,0 11.969,-5.363 11.969,-12.031 l 0,-61.031 c 0,-6.668 -5.327,-12.063 -11.969,-12.063 l -60.812,2e-4 z" />
  <use
     height="100%"
     width="100%"
     y="0"
     x="0"
     style="filter:url(#filter4039)"
     id="use2103"
     xlink:href="#SVGCleanerId_0"
     transform="translate(0,-956.36)" />
  <use
     height="100%"
     width="100%"
     y="0"
     x="0"
     id="use2105"
     xlink:href="#SVGCleanerId_0"
     transform="translate(0,-956.36)" />
  <path
     style="opacity:0.1"
     inkscape:connector-curvature="0"
     id="path2107"
     d="m 52.758,14.11 c -1.0058,-0.0294 -2.1809,-0.009 -3.1875,0.0625 -1.0054,0.0714 -2.2244,0.20342 -3.2188,0.375 -0.97586,0.1684 -2.1369,0.41306 -3.125,0.6875 -0.98714,0.27416 -2.1072,0.67188 -3.0312,1.0312 -0.92497,0.35975 -2.0565,0.81675 -2.9688,1.2812 -0.91003,0.46336 -1.944,1.0872 -2.7812,1.625 -0.84923,0.5455 -1.8048,1.2486 -2.5938,1.875 -0.77696,0.61682 -1.7032,1.3803 -2.4375,2.0938 -0.72298,0.70249 -1.5377,1.6031 -2.1875,2.375 -0.64936,0.77134 -1.3689,1.7309 -1.9375,2.5625 -0.57003,0.83371 -1.2051,1.8663 -1.6875,2.75 -0.48762,0.89322 -1.0174,1.9857 -1.4062,2.9062 -0.39135,0.92647 -0.79574,2.0354 -1.0938,3 -0.29404,0.95173 -0.61031,2.0944 -0.8125,3.0938 -0.20422,1.0094 -0.33929,2.236 -0.4375,3.2188 -0.10001,1.0007 -0.15668,2.1776 -0.15625,3.1874 2.5e-4,0.9702 0.026,2.1226 0.125,3.125 0.0986,0.9988 0.27807,2.1988 0.46875,3.1563 0.18961,0.9521 0.45713,2.0977 0.75,3.0625 0.28982,0.9546 0.68763,2.0329 1.0625,2.9375 0.37821,0.9125 0.90688,1.9995 1.375,2.875 0.46836,0.8758 1.047,1.8695 1.5938,2.6875 0.54364,0.8133 1.2396,1.7885 1.875,2.5625 0.63583,0.7745 1.4655,1.6219 2.1562,2.3125 0.69035,0.6901 1.5374,1.5202 2.3125,2.1562 0.77366,0.6348 1.7485,1.3312 2.5625,1.875 0.81759,0.5462 1.811,1.1253 2.6875,1.5938 0.89335,0.4774 1.9819,0.9738 2.875,1.3437 0.90407,0.3744 1.9822,0.7728 2.9375,1.0625 0.94264,0.2859 2.0871,0.5873 3.0625,0.7813 0.97963,0.1948 2.1802,0.3413 3.1562,0.4375 0.97853,0.096 2.1307,0.1562 3.125,0.1562 0.99434,0 2.1465,-0.06 3.125,-0.1562 0.97609,-0.096 2.1766,-0.2427 3.1562,-0.4375 0.97543,-0.194 2.1199,-0.4954 3.0625,-0.7813 0.95533,-0.2897 2.0334,-0.6881 2.9375,-1.0625 0.8931,-0.3699 1.9816,-0.8663 2.875,-1.3437 0.87651,-0.4685 1.8699,-1.0476 2.6875,-1.5938 0.81397,-0.5438 1.7888,-1.2402 2.5625,-1.875 0.77515,-0.636 1.6222,-1.4661 2.3125,-2.1562 0.69077,-0.6906 1.5204,-1.538 2.1562,-2.3125 0.63535,-0.774 1.3314,-1.7492 1.875,-2.5625 0.54672,-0.818 1.1254,-1.8117 1.5938,-2.6875 0.46812,-0.8755 0.99679,-1.9625 1.375,-2.875 0.37487,-0.9046 0.77268,-1.9829 1.0625,-2.9375 0.29287,-0.9648 0.56039,-2.1104 0.75,-3.0625 0.19068,-0.9575 0.37013,-2.1575 0.46875,-3.1563 0.099,-1.0024 0.12475,-2.1548 0.125,-3.125 4.1e-4,-0.9576 -0.0306,-2.1125 -0.125,-3.0937 -0.0938,-0.97437 -0.25361,-2.1182 -0.4375,-3.0624 -0.18564,-0.9533 -0.47275,-2.0978 -0.75,-3.0312 -0.27299,-0.91914 -0.63094,-1.9957 -1,-2.9062 -0.37122,-0.91585 -0.90134,-1.9657 -1.3438,-2.8125 -0.44418,-0.85014 -0.99392,-1.8635 -1.5312,-2.6875 -0.53365,-0.81837 -1.2104,-1.7154 -1.8125,-2.4688 -0.6129,-0.76694 -1.3923,-1.6534 -2.0625,-2.3438 -0.65853,-0.67832 -1.4902,-1.4801 -2.25,-2.125 -0.74695,-0.63403 -1.6472,-1.3256 -2.4375,-1.875 -0.80374,-0.55869 -1.814,-1.1839 -2.6562,-1.6562 -0.8358,-0.46867 -1.8501,-0.97885 -2.75,-1.375 -0.90064,-0.39647 -1.9948,-0.82468 -2.9062,-1.125 -0.93245,-0.30725 -2.0324,-0.56997 -2.9688,-0.78125 -0.93565,-0.21112 -2.0873,-0.43942 -3.0625,-0.5625 -0.97472,-0.12302 -2.1328,-0.19071 -3.0938,-0.21875 z" />
  <path
     style="opacity:0.3"
     inkscape:connector-curvature="0"
     id="path2109"
     d="m 81.82,46.24 a 30,30 0 0 1 -60,0 30,30 0 1 1 60,0 z" />
  <path
     style="opacity:0.15"
     inkscape:connector-curvature="0"
     id="path2111"
     d="m 52.727,15.17 c -0.964,-0.0281 -2.1318,-0.006 -3.0938,0.0625 -0.96199,0.0683 -2.1434,0.21101 -3.0938,0.375 -0.95036,0.164 -2.102,0.39817 -3.0312,0.65625 -0.92923,0.25808 -2.0387,0.65042 -2.9375,1 -0.89882,0.34958 -1.9843,0.81242 -2.8438,1.25 -0.85942,0.43759 -1.8761,1.0413 -2.6875,1.5625 -0.81143,0.52122 -1.7759,1.2129 -2.5312,1.8125 -0.75532,0.59964 -1.6521,1.3592 -2.3438,2.0312 -0.69167,0.67207 -1.5039,1.5435 -2.125,2.2812 -0.6211,0.73778 -1.3307,1.6726 -1.875,2.4688 -0.54432,0.79611 -1.1629,1.8098 -1.625,2.6562 -0.46211,0.84649 -0.96848,1.9241 -1.3438,2.8125 -0.37527,0.8884 -0.77782,1.9848 -1.0625,2.9062 -0.28468,0.92143 -0.59001,2.0548 -0.78125,3 -0.19124,0.94525 -0.34161,2.1341 -0.4375,3.0937 -0.0959,0.95965 -0.15666,2.12925 -0.15625,3.09375 2.4e-4,0.9464 0.032,2.0893 0.125,3.0313 0.093,0.9417 0.2839,2.1029 0.46875,3.0312 0.18485,0.9282 0.44383,2.0632 0.71875,2.9688 0.27492,0.9055 0.6689,1.9693 1.0312,2.8437 0.36235,0.8742 0.86622,1.9466 1.3125,2.7813 0.44628,0.8345 1.0366,1.8069 1.5625,2.5937 0.52593,0.7868 1.212,1.7373 1.8125,2.4688 0.60051,0.7315 1.3932,1.5807 2.0625,2.25 0.6693,0.6691 1.5183,1.462 2.25,2.0625 0.73166,0.6003 1.6818,1.2867 2.4688,1.8125 0.78697,0.5256 1.759,1.1164 2.5938,1.5625 0.8347,0.4459 1.9068,0.9191 2.7812,1.2811 0.8744,0.3621 1.9381,0.7566 2.8438,1.0314 0.90568,0.2745 2.0405,0.5653 2.9688,0.75 0.92824,0.1846 2.0894,0.3447 3.0312,0.4375 0.94186,0.093 2.0848,0.1561 3.0312,0.1561 0.94642,0 2.0894,-0.063 3.0312,-0.1561 0.94186,-0.093 2.103,-0.2529 3.0312,-0.4375 0.92824,-0.1847 2.0631,-0.4755 2.9688,-0.75 0.90568,-0.2747 1.9694,-0.6693 2.8438,-1.0314 0.8744,-0.3621 1.9466,-0.8352 2.7812,-1.2811 0.8347,-0.4461 1.8068,-1.0369 2.5938,-1.5625 0.78697,-0.5258 1.7371,-1.2122 2.4688,-1.8125 0.73166,-0.6005 1.5807,-1.3934 2.25,-2.0625 0.6693,-0.6693 1.462,-1.5185 2.0625,-2.25 0.60051,-0.7315 1.2866,-1.682 1.8125,-2.4688 0.52593,-0.7868 1.1162,-1.7592 1.5625,-2.5937 0.44628,-0.8347 0.95015,-1.9071 1.3125,-2.7813 0.36235,-0.8743 0.75633,-1.9381 1.0312,-2.8437 0.27492,-0.9057 0.5339,-2.0407 0.71875,-2.9688 0.18485,-0.9282 0.37576,-2.0894 0.46875,-3.0312 0.093,-0.942 0.12476,-2.0849 0.125,-3.0313 3.9e-4,-0.9293 -0.036,-2.0751 -0.125,-2.99995 -0.089,-0.92496 -0.25988,-2.0254 -0.4375,-2.9375 -0.17762,-0.91211 -0.45418,-2.0467 -0.71875,-2.9375 -0.26457,-0.89079 -0.61969,-1.9513 -0.96875,-2.8125 -0.34906,-0.8612 -0.85094,-1.8951 -1.2812,-2.7188 -0.43032,-0.82361 -0.99243,-1.8154 -1.5,-2.5938 -0.50757,-0.77838 -1.1699,-1.6803 -1.75,-2.4062 -0.58012,-0.72592 -1.3527,-1.5833 -2,-2.25 -0.64728,-0.66673 -1.4478,-1.4612 -2.1562,-2.0625 -0.70844,-0.60135 -1.612,-1.2821 -2.375,-1.8125 -0.76302,-0.53038 -1.752,-1.1392 -2.5625,-1.5938 -0.81052,-0.4545 -1.8058,-0.96935 -2.6562,-1.3438 -0.85049,-0.3744 -1.9299,-0.77169 -2.8125,-1.0625 -0.88257,-0.29081 -1.9685,-0.57671 -2.875,-0.78125 -0.90646,-0.20454 -2.0156,-0.41489 -2.9375,-0.53125 -0.92193,-0.11636 -2.0712,-0.19165 -3,-0.21875 z" />
  <path
     inkscape:connector-curvature="0"
     style="fill:url(#radialGradient6749)"
     id="path2113"
     d="m 81.82,45.24 a 30,30 0 0 1 -60,0 30,30 0 1 1 60,0 z" />
  <path
     style="opacity:0.15;fill:#ffffff"
     inkscape:connector-curvature="0"
     id="path2115"
     d="m 79.008,43.94 a 27.214,27.214 0 0 1 -54.375,0.4688 27.214,27.214 0 0 0 -0.0313,0.8125 27.219,27.219 0 0 0 54.438,0 27.214,27.214 0 0 0 -0.0313,-1.2813 z" />
  <path
     style="fill:#251650"
     inkscape:connector-curvature="0"
     id="path2117"
     d="m 52.695,15.24 a 30,30 0 0 0 -30.875,30 30,30 0 0 0 60,0 30,30 0 0 0 -29.125,-30 z m -0.0313,1.25 a 28.741,28.741 0 0 1 27.906,28.75 28.75,28.75 0 0 1 -57.5,0 28.741,28.741 0 0 1 29.594,-28.75 z" />
  <path
     inkscape:connector-curvature="0"
     style="color:#000000;opacity:0.2;fill:url(#linearGradient6756)"
     id="path2119"
     d="m 5.8203,35.24 0,1 84,0 0,-1 -84,0 z m 0,2 0,1 84,0 0,-1 -84,0 z m 0,4 0,1 84,0 0,-1 -84,0 z m 0,2 0,0.9999 84,0 0,-0.9999 -84,0 z m 0,3.9999 0,1 84,0 0,-1 -84,0 z m 0,2 0,1 84,0 0,-1 -84,0 z m 0,4 0,1 84,0 0,-1 -84,0 z m 0,2 0,1 84,0 0,-1 -84,0 z" />
  <path
     inkscape:connector-curvature="0"
     style="color:#000000;fill:url(#linearGradient6754)"
     id="path2121"
     d="m 5.8203,36.24 0,1 84,0 0,-1 -84,0 z m 0,6 0,0.99999 84,0 0,-0.99999 -84,0 z m 0,5.9999 0,1 84,0 0,-1 -84,0 z m 0,6 0,1 84,0 0,-1 -84,0 z" />
  <g
     id="g14291">
    <path
       d="m 5.2922679,73.685059 0,5.0663 c 0,6.668 5.3645011,12.032 12.0320011,12.032 l 61.049,0 c 6.668,0 12.032,-5.3645 12.032,-12.032 l 0,-5.0663 c 0,6.6681 -5.3645,12.032 -12.032,12.032 l -61.049,0 c -6.668,0 -12.0320011,-5.3643 -12.0320011,-12.032 z"
       id="path64"
       inkscape:connector-curvature="0"
       style="opacity:0.4;fill:url(#linearGradient14237);fill-opacity:1" />
    <path
       inkscape:connector-curvature="0"
       id="path14214"
       d="m 5.2929688,72.717592 0,1.15039 c 0,6.667718 5.3632502,12.031248 12.0312502,12.031248 l 61.048828,0 c 6.6675,0 12.03125,-5.36313 12.03125,-12.031248 l 0,-1.15039 c 0,6.668098 -5.36375,12.031248 -12.03125,12.031248 l -61.048828,0 c -6.668,0 -12.0312502,-5.36355 -12.0312502,-12.031248 z"
       style="opacity:0.5;fill:url(#linearGradient14245);fill-opacity:1" />
  </g>
</svg>
