<?xml version="1.0" encoding="UTF-8" standalone="no"?>
<svg
   xmlns:dc="http://purl.org/dc/elements/1.1/"
   xmlns:cc="http://creativecommons.org/ns#"
   xmlns:rdf="http://www.w3.org/1999/02/22-rdf-syntax-ns#"
   xmlns:svg="http://www.w3.org/2000/svg"
   xmlns="http://www.w3.org/2000/svg"
   xmlns:xlink="http://www.w3.org/1999/xlink"
   xmlns:sodipodi="http://sodipodi.sourceforge.net/DTD/sodipodi-0.dtd"
   xmlns:inkscape="http://www.inkscape.org/namespaces/inkscape"
   height="96"
   width="96"
   id="svg2"
   version="1.1"
   inkscape:version="0.91 r13725"
   sodipodi:docname="edit-rename.svg">
  <metadata
     id="metadata88">
    <rdf:RDF>
      <cc:Work
         rdf:about="">
        <dc:format>image/svg+xml</dc:format>
        <dc:type
           rdf:resource="http://purl.org/dc/dcmitype/StillImage" />
        <dc:title />
      </cc:Work>
    </rdf:RDF>
  </metadata>
  <sodipodi:namedview
     pagecolor="#ffffff"
     bordercolor="#666666"
     borderopacity="1"
     objecttolerance="10"
     gridtolerance="10"
     guidetolerance="10"
     inkscape:pageopacity="0"
     inkscape:pageshadow="2"
     inkscape:window-width="1366"
     inkscape:window-height="708"
     id="namedview86"
     showgrid="false"
     inkscape:zoom="2.4583333"
     inkscape:cx="0.55524525"
     inkscape:cy="50.719725"
     inkscape:window-x="0"
     inkscape:window-y="24"
     inkscape:window-maximized="1"
     inkscape:current-layer="svg2" />
  <defs
     id="defs4">
    <linearGradient
       inkscape:collect="always"
       id="linearGradient4386">
      <stop
         style="stop-color:#d4d4d4;stop-opacity:1"
         offset="0"
         id="stop4388" />
      <stop
         style="stop-color:#ffffff;stop-opacity:1"
         offset="1"
         id="stop4390" />
    </linearGradient>
    <rect
       x="25.625"
       rx="2.25"
       y="971.86"
       ry="1.932"
       height="20"
       id="SVGCleanerId_0"
       width="4.5" />
    <rect
       x="979.61"
       rx="2.25"
       y="-37.875"
       ry="1.932"
       height="20"
       id="SVGCleanerId_1"
       width="4.5" />
    <rect
       x="994.67"
       rx="2.085"
       y="-77.16"
       ry="1.791"
       height="18.537"
       id="SVGCleanerId_2"
       width="4.171" />
    <rect
       x="1004.7"
       rx="2.085"
       y="-77.16"
       ry="1.791"
       height="18.537"
       id="SVGCleanerId_3"
       width="4.171" />
    <linearGradient
       gradientTransform="matrix(0,-1,1,0,-1.5e-6,47.999998)"
       gradientUnits="userSpaceOnUse"
       x2="47"
       x1="1"
       id="linearGradient3764">
      <stop
         id="stop4221"
         stop-opacity="1"
         stop-color="#e4e4e4" />
      <stop
         id="stop4223"
         stop-opacity="1"
         stop-color="#eee"
         offset="1" />
    </linearGradient>
    <clipPath
       id="clipPath-840154517">
      <g
         id="g4226"
         transform="translate(0,-1004.3622)">
        <path
           id="path4228"
           fill="#1890d0"
           transform="matrix(15.333333,0,0,11.5,414.99999,878.8622)"
           d="m -24 13 c 0 1.105 -0.672 2 -1.5 2 -0.828 0 -1.5 -0.895 -1.5 -2 0 -1.105 0.672 -2 1.5 -2 0.828 0 1.5 0.895 1.5 2 z" />
      </g>
    </clipPath>
    <clipPath
       id="clipPath-868067471">
      <g
         id="g4231"
         transform="translate(0,-1004.3622)">
        <path
           id="path4233"
           fill="#1890d0"
           transform="matrix(15.333333,0,0,11.5,414.99999,878.8622)"
           d="m -24 13 c 0 1.105 -0.672 2 -1.5 2 -0.828 0 -1.5 -0.895 -1.5 -2 0 -1.105 0.672 -2 1.5 -2 0.828 0 1.5 0.895 1.5 2 z" />
      </g>
    </clipPath>
    <linearGradient
       inkscape:collect="always"
       xlink:href="#linearGradient4386"
       id="linearGradient4392"
       x1="49.370205"
       y1="88.243187"
       x2="49.370205"
       y2="4.4465766"
       gradientUnits="userSpaceOnUse" />
    <linearGradient
       gradientTransform="translate(-48.000001,0.00221467)"
       gradientUnits="userSpaceOnUse"
       x2="47"
       x1="1"
       id="linearGradient3764-9">
      <stop
         id="stop4502"
         stop-opacity="1"
         stop-color="#e4e4e4" />
      <stop
         id="stop4504"
         stop-opacity="1"
         stop-color="#eee"
         offset="1" />
    </linearGradient>
    <clipPath
       id="clipPath-680538888">
      <g
         id="g4507"
         transform="translate(0,-1004.3622)">
        <rect
           id="rect4509"
           fill="#1890d0"
           width="46"
           height="46"
           x="1"
           y="1005.36"
           rx="4" />
      </g>
    </clipPath>
    <clipPath
       id="clipPath-693322919">
      <g
         id="g4512"
         transform="translate(0,-1004.3622)">
        <rect
           id="rect4514"
           fill="#1890d0"
           width="46"
           height="46"
           x="1"
           y="1005.36"
           rx="4" />
      </g>
    </clipPath>
    <linearGradient
       inkscape:collect="always"
       xlink:href="#linearGradient14231"
       id="linearGradient14237"
       x1="50.707542"
       y1="81.682442"
       x2="50.707542"
       y2="96.539803"
       gradientUnits="userSpaceOnUse" />
    <linearGradient
       inkscape:collect="always"
       id="linearGradient14231">
      <stop
         style="stop-color:#000000;stop-opacity:1;"
         offset="0"
         id="stop14233" />
      <stop
         style="stop-color:#000000;stop-opacity:0;"
         offset="1"
         id="stop14235" />
    </linearGradient>
    <linearGradient
       inkscape:collect="always"
       xlink:href="#linearGradient14239"
       id="linearGradient14245"
       x1="49.876652"
       y1="87.937508"
       x2="49.876652"
       y2="76.719681"
       gradientUnits="userSpaceOnUse" />
    <linearGradient
       inkscape:collect="always"
       id="linearGradient14239">
      <stop
         style="stop-color:#ffffff;stop-opacity:1;"
         offset="0"
         id="stop14241" />
      <stop
         style="stop-color:#ffffff;stop-opacity:0;"
         offset="1"
         id="stop14243" />
    </linearGradient>
  </defs>
  <rect
     style="fill-opacity:0.02000002"
     id="rect12"
     width="89.980003"
     height="89.980003"
     y="2.9899757"
     rx="12.724"
     x="3" />
  <rect
     style="fill-opacity:0.03900003"
     id="rect14"
     width="88.760002"
     height="88.760002"
     y="3.6000221"
     rx="12.552"
     x="3.608" />
  <rect
     style="fill-opacity:0.078"
     id="rect16"
     width="87.550003"
     height="87.550003"
     y="4.2100072"
     rx="12.38"
     x="4.2160001" />
  <rect
     style="fill-opacity:0.15700001"
     id="rect18"
     width="86.330002"
     height="86.330002"
     y="4.8199925"
     rx="12.208"
     x="4.8239999" />
  <path
     style="fill:url(#linearGradient4392);fill-opacity:1"
     inkscape:connector-curvature="0"
     id="path20"
     d="m 17.469,5.41 c -6.668,0 -12.031,5.3945 -12.031,12.062 l 0,61.031 c 0,6.668 5.3633,12.031 12.031,12.031 l 61.031,0 c 6.668,0 12.031,-5.3633 12.031,-12.031 l 0,-61.031 C 90.531,10.804 85.1677,5.41 78.5,5.41 l -61.031,0 z" />
  <g
     id="g4247"
     transform="matrix(2.4021513,0,0,2.4021513,109.96325,-32.005248)" />
  <g
     id="g14291">
    <path
       d="m 5.2922679,73.685059 0,5.0663 c 0,6.668 5.3645011,12.032 12.0320011,12.032 l 61.049,0 c 6.668,0 12.032,-5.3645 12.032,-12.032 l 0,-5.0663 c 0,6.6681 -5.3645,12.032 -12.032,12.032 l -61.049,0 c -6.668,0 -12.0320011,-5.3643 -12.0320011,-12.032 z"
       id="path64"
       inkscape:connector-curvature="0"
       style="opacity:0.4;fill:url(#linearGradient14237);fill-opacity:1" />
    <path
       inkscape:connector-curvature="0"
       id="path14214"
       d="m 5.2929688,72.717592 0,1.15039 c 0,6.667718 5.3632502,12.031248 12.0312502,12.031248 l 61.048828,0 c 6.6675,0 12.03125,-5.36313 12.03125,-12.031248 l 0,-1.15039 c 0,6.668098 -5.36375,12.031248 -12.03125,12.031248 l -61.048828,0 c -6.668,0 -12.0312502,-5.36355 -12.0312502,-12.031248 z"
       style="opacity:0.5;fill:url(#linearGradient14245);fill-opacity:1" />
  </g>
  <g
     transform="translate(-6.3845116,4.232966)"
     id="g10869"
     style="opacity:0.2;fill:#000000">
    <path
       inkscape:connector-curvature="0"
       id="path10871"
       d="m 57.690352,59.115957 15.384616,0 0,3.846154 -15.384616,0"
       style="fill:#000000;fill-opacity:1;fill-rule:nonzero;stroke:none" />
    <path
       inkscape:connector-curvature="0"
       id="path10873"
       d="M 57.690352,59.115957"
       style="fill:#000000;fill-opacity:1;fill-rule:nonzero;stroke:none" />
    <path
       inkscape:connector-curvature="0"
       id="path10875"
       d="m 57.690352,24.508265 15.384616,0 0,3.838462 -15.384616,0"
       style="fill:#000000;fill-opacity:1;fill-rule:nonzero;stroke:none" />
    <path
       inkscape:connector-curvature="0"
       id="path10877"
       d="M 57.690352,24.508265"
       style="fill:#000000;fill-opacity:1;fill-rule:nonzero;stroke:none" />
    <path
       inkscape:connector-curvature="0"
       id="path10879"
       d="M 63.421122,62.969803"
       style="fill:#000000;fill-opacity:1;fill-rule:nonzero;stroke:none" />
    <path
       inkscape:connector-curvature="0"
       id="path10881"
       d="M 36.498045,39.892881"
       style="fill:#000000;fill-opacity:1;fill-rule:nonzero;stroke:none" />
    <g
       id="g10883"
       style="fill:#000000">
      <path
         style="fill:#000000;fill-opacity:1;fill-rule:nonzero;stroke:none"
         d="m 63.421122,62.969803 0,-38.453845 3.838461,0 0,38.453845"
         id="path10885"
         inkscape:connector-curvature="0" />
      <text
         sodipodi:linespacing="125%"
         id="text10887"
         y="56.13559"
         x="34.983055"
         style="font-style:normal;font-weight:normal;font-size:40px;line-height:125%;font-family:sans-serif;letter-spacing:0px;word-spacing:0px;fill:#000000;fill-opacity:1;stroke:none;stroke-width:1px;stroke-linecap:butt;stroke-linejoin:miter;stroke-opacity:1"
         xml:space="preserve"><tspan
           y="56.13559"
           x="34.983055"
           id="tspan10889"
           sodipodi:role="line">A</tspan></text>
    </g>
  </g>
  <g
     id="g10857"
     transform="translate(-6.3845116,1.7922878)">
    <path
       style="fill:#0088aa;fill-opacity:1;fill-rule:nonzero;stroke:none"
       d="m 57.690352,59.115957 15.384616,0 0,3.846154 -15.384616,0"
       id="path10839"
       inkscape:connector-curvature="0" />
    <path
       style="fill:#0088aa;fill-opacity:1;fill-rule:nonzero;stroke:none"
       d="M 57.690352,59.115957"
       id="path10837"
       inkscape:connector-curvature="0" />
    <path
       style="fill:#0088aa;fill-opacity:1;fill-rule:nonzero;stroke:none"
       d="m 57.690352,24.508265 15.384616,0 0,3.838462 -15.384616,0"
       id="path10835"
       inkscape:connector-curvature="0" />
    <path
       style="fill:#0088aa;fill-opacity:1;fill-rule:nonzero;stroke:none"
       d="M 57.690352,24.508265"
       id="path10833"
       inkscape:connector-curvature="0" />
    <path
       style="fill:#0088aa;fill-opacity:1;fill-rule:nonzero;stroke:none"
       d="M 63.421122,62.969803"
       id="path10829"
       inkscape:connector-curvature="0" />
    <path
       style="fill:#0088aa;fill-opacity:1;fill-rule:nonzero;stroke:none"
       d="M 36.498045,39.892881"
       id="path10825"
       inkscape:connector-curvature="0" />
    <g
       id="g10852">
      <path
         inkscape:connector-curvature="0"
         id="path10831"
         d="m 63.421122,62.969803 0,-38.453845 3.838461,0 0,38.453845"
         style="fill:#0088aa;fill-opacity:1;fill-rule:nonzero;stroke:none" />
      <text
         xml:space="preserve"
         style="font-style:normal;font-weight:normal;font-size:40px;line-height:125%;font-family:sans-serif;letter-spacing:0px;word-spacing:0px;fill:#0088aa;fill-opacity:1;stroke:none;stroke-width:1px;stroke-linecap:butt;stroke-linejoin:miter;stroke-opacity:1"
         x="34.983055"
         y="56.13559"
         id="text10793"
         sodipodi:linespacing="125%"><tspan
           sodipodi:role="line"
           id="tspan10795"
           x="34.983055"
           y="56.13559">A</tspan></text>
    </g>
  </g>
</svg>
