<svg height="96" width="96" xmlns="http://www.w3.org/2000/svg" xmlns:xlink="http://www.w3.org/1999/xlink" xmlns:sodipodi="http://sodipodi.sourceforge.net/DTD/sodipodi-0.dtd" xmlns:inkscape="http://www.inkscape.org/namespaces/inkscape">
 <defs>
  <filter x="-0.18" y="-0.18" height="1.36" color-interpolation-filters="sRGB" id="filter7028" width="1.36">
   <feGaussianBlur stdDeviation="1.11307"/>
  </filter>
  <linearGradient x2="0" y1="90" y2="5.988" gradientUnits="userSpaceOnUse" id="linearGradient7984" gradientTransform="matrix(1.1389 0 0 1.0673 -7.02 -4.436)">
   <stop stop-color="#e26f00"/>
   <stop stop-color="#f9a314" offset="1"/>
  </linearGradient>
  <radialGradient cy="8.761" r="14.746" gradientUnits="userSpaceOnUse" id="radialGradient8011" cx="-24.45" gradientTransform="matrix(0.92304 0.34079 -0.30189 0.81768 99.7 1017)">
   <stop stop-color="#fff"/>
   <stop stop-color="#fff" offset="0.2"/>
   <stop stop-color="#ffde34" offset="0.253"/>
   <stop stop-color="#ffd602" stop-opacity="0" offset="1"/>
  </radialGradient>
  <linearGradient x2="0" y1="19.577" y2="110.35" gradientUnits="userSpaceOnUse" id="linearGradient8021" gradientTransform="matrix(0.74431 0.2748 -0.2748 0.74431 16.919 935.64)">
   <stop stop-color="#dc4300"/>
   <stop stop-color="#ae3500" offset="1"/>
  </linearGradient>
  <path d="m20.496 996.88c2.6166-3.86 4.6289-10.699 6.6066-9.9684 3.543 1.3083-0.60181 15.621 1.6288 16.455 2.2188 0.8301 3.982-10.416 6.8161-9.2353 4.5544 1.9058 6.2025-6.9766 8.3983-6.1782 4.052 1.4735-4.4442 19.118-1.0674 20.221 2.7134 0.8863 3.7875-3.8959 5.8517-2.8026 2.3799 1.2602 0.44149 4.2889 2.1232 4.847 2.6314 0.8725 6.14-14.748 8.697-13.761 1.9834 0.76568-1.1431 16.656 1.2717 17.547 4.2866 1.5826 2.6789-10.42 9.7714-1.4246 1.7734 2.2491 1.1025 1.5269 3.7484 3.2047" fill="none" stroke="#fff4ad" id="SVGCleanerId_0" stroke-linecap="round"/>
 </defs>
 <g transform="matrix(1 0 0 1 0 -956.36)">
  <rect x="3.353" rx="12.724" y="959.35" fill-opacity="0.02" height="89.98" width="89.62"/>
  <rect x="3.959" rx="12.552" y="959.96" fill-opacity="0.039" height="88.76" width="88.41"/>
  <rect x="4.564" rx="12.38" y="960.57" fill-opacity="0.078" height="87.55" width="87.2"/>
  <rect x="5.17" rx="12.208" y="961.18" fill-opacity="0.157" height="86.33" width="85.991"/>
  <path d="m17.75 5.4062c-6.642 0-11.969 5.3948-11.969 12.063l0.0002 61.031c0 6.668 5.3268 12.031 11.969 12.031h60.812c6.642 0 11.969-5.363 11.969-12.031v-61.031c0-6.668-5.327-12.063-11.969-12.063l-60.812 0.0002z" fill="url(#linearGradient7984)" transform="matrix(1 0 0 1 0 956.36)"/>
  <path d="m5.7756 1029.8v5.0663c0 6.668 5.3434 12.032 11.985 12.032h60.809c6.6418 0 11.985-5.3645 11.985-12.032v-5.0663c0 6.6681-5.3434 12.032-11.985 12.032h-60.809c-6.6418 0-11.985-5.3643-11.985-12.032z" fill-opacity="0.19"/>
  <path d="m5.7756 1033.9v1.0133c0 6.668 5.3434 12.032 11.985 12.032h60.809c6.6418 0 11.985-5.3645 11.985-12.032v-1.0133c0 6.6681-5.3434 12.032-11.985 12.032h-60.809c-6.6418 0-11.985-5.3644-11.985-12.032z" fill-opacity="0.098"/>
  <path d="m110.78 70.756a7.4205 7.4205 0 1 1 -14.841 0 7.4205 7.4205 0 1 1 14.841 0z" fill="#ffd812" filter="url(#filter7028)" opacity="0.8" transform="matrix(0.79555 0.29372 -0.24733 0.66991 9.583 938.1)"/>
  <path d="m63.944 972.82s-9.9806 4.8348-13.42 13.623c-2.9706-3.5476-3.974-9.3677 0.73053-13.607 4.717-4.2509 8.5548-2.8833 12.69-0.0157zm-33.49 41.77s-7.4025 7.5832-7.3896 17.771c-4.0086-2.3097-7.0048-7.2819-4.3919-12.842 2.608-5.5493 5.4002-7.0939 11.781-4.9293zm4.1795 1.7164s-5.8261 4.0514-7.7089 18.611c8.2722 2.5511 11.502 2.6202 20.037-2.9957 8.5352-5.6161 24.655-31.215 26.016-40.517 1.3611-9.3024-4.7065-14.478-4.7065-14.478-9.2845 1.0983-13.68 12.551-13.68 12.551s6.6189 4.6303-4.7602 19.699c-11.443 15.154-15.197 7.1295-15.197 7.1295z" fill="#803300" fill-rule="evenodd"/>
  <path d="m64.773 970.57s-9.9806 4.8348-13.42 13.623c-2.9706-3.5476-3.974-9.3677 0.73053-13.607 4.717-4.2509 8.5548-2.8833 12.69-0.0157zm-33.49 41.73s-7.4025 7.5833-7.3896 17.771c-4.0087-2.3096-7.0049-7.2818-4.3919-12.842 2.6081-5.5493 5.4002-7.0941 11.782-4.9294zm4.1795 1.7165s-5.8261 4.0515-7.7089 18.611c8.2722 2.551 11.502 2.6201 20.037-2.9959 8.5352-5.6159 24.655-31.215 26.016-40.517 1.3611-9.3024-4.7065-14.478-4.7065-14.478-9.2845 1.0983-13.68 12.551-13.68 12.551s6.6189 4.6303-4.7601 19.699c-11.443 15.154-15.197 7.1295-15.197 7.1295z" fill="url(#linearGradient8021)" fill-rule="evenodd"/>
  <use stroke-width="2.773" xlink:href="#SVGCleanerId_0"/>
  <path d="m81.909 1011.5-4.5167 3.3276 12.67-3.3437-12.165 4.8056 8.6124 2.9067-8.5515-1.7441 6.8412 4.8904-8.1675-4.5111 2.4347 6.1639-3.8995-5.3454-0.41766 9.0941-1.4038-9.2774-5.0488 7.4985 4.0677-8.1186-4.77 3.9649 4.1823-4.2609-9.7261 3.3037 9.1114-4.6515-8.1211-0.219 7.1824-0.8703-3.6674-2.792 4.9242 1.9551-4.4685-4.5787 4.9573 3.047-3.7914-8.443 5.4732 8.2194 0.17467-6.5013 0.47771 7.1106 3.2525-11.149-2.0922 11.284 5.4734-4.9982-4.3551 5.6335 5.3264-2.4006z" fill="url(#radialGradient8011)"/>
  <use stroke-width="6.47" xlink:href="#SVGCleanerId_0" opacity="0.15"/>
  <use stroke-width="4.622" xlink:href="#SVGCleanerId_0" opacity="0.3"/>
 </g>
</svg>
