<?xml version="1.0" encoding="UTF-8" standalone="no"?>
<svg
   xmlns:dc="http://purl.org/dc/elements/1.1/"
   xmlns:cc="http://creativecommons.org/ns#"
   xmlns:rdf="http://www.w3.org/1999/02/22-rdf-syntax-ns#"
   xmlns:svg="http://www.w3.org/2000/svg"
   xmlns="http://www.w3.org/2000/svg"
   xmlns:xlink="http://www.w3.org/1999/xlink"
   xmlns:sodipodi="http://sodipodi.sourceforge.net/DTD/sodipodi-0.dtd"
   xmlns:inkscape="http://www.inkscape.org/namespaces/inkscape"
   height="96"
   width="96"
   id="svg446"
   version="1.1"
   inkscape:version="0.91 r13725"
   sodipodi:docname="ekiga.svg">
  <metadata
     id="metadata505">
    <rdf:RDF>
      <cc:Work
         rdf:about="">
        <dc:format>image/svg+xml</dc:format>
        <dc:type
           rdf:resource="http://purl.org/dc/dcmitype/StillImage" />
      </cc:Work>
    </rdf:RDF>
  </metadata>
  <sodipodi:namedview
     pagecolor="#ffffff"
     bordercolor="#666666"
     borderopacity="1"
     objecttolerance="10"
     gridtolerance="10"
     guidetolerance="10"
     inkscape:pageopacity="0"
     inkscape:pageshadow="2"
     inkscape:window-width="640"
     inkscape:window-height="480"
     id="namedview503"
     showgrid="false"
     inkscape:zoom="2.4583333"
     inkscape:cx="48"
     inkscape:cy="48"
     inkscape:current-layer="svg446" />
  <defs
     id="defs448">
    <filter
       x="-0.18"
       y="-0.18"
       height="1.36"
       color-interpolation-filters="sRGB"
       id="filter7028"
       width="1.36">
      <feGaussianBlur
         stdDeviation="1.11307"
         id="feGaussianBlur451" />
    </filter>
    <linearGradient
       x2="0"
       y1="90"
       y2="5.988"
       gradientUnits="userSpaceOnUse"
       id="linearGradient7984"
       gradientTransform="matrix(1.1389,0,0,1.0673,-7.02,-4.436)">
      <stop
         stop-color="#e26f00"
         id="stop454" />
      <stop
         stop-color="#f9a314"
         offset="1"
         id="stop456" />
    </linearGradient>
    <radialGradient
       cy="8.761"
       r="14.746"
       gradientUnits="userSpaceOnUse"
       id="radialGradient8011"
       cx="-24.45"
       gradientTransform="matrix(0.92304,0.34079,-0.30189,0.81768,99.7,60.64)">
      <stop
         stop-color="#fff"
         id="stop459" />
      <stop
         stop-color="#fff"
         offset="0.2"
         id="stop461" />
      <stop
         stop-color="#ffde34"
         offset="0.253"
         id="stop463" />
      <stop
         stop-color="#ffd602"
         stop-opacity="0"
         offset="1"
         id="stop465" />
    </radialGradient>
    <linearGradient
       x2="0"
       y1="19.577"
       y2="110.35"
       gradientUnits="userSpaceOnUse"
       id="linearGradient8021"
       gradientTransform="matrix(0.74431,0.2748,-0.2748,0.74431,16.919,-20.72)">
      <stop
         stop-color="#dc4300"
         id="stop468" />
      <stop
         stop-color="#ae3500"
         offset="1"
         id="stop470" />
    </linearGradient>
    <path
       d="m20.496 996.88c2.6166-3.86 4.6289-10.699 6.6066-9.9684 3.543 1.3083-0.60181 15.621 1.6288 16.455 2.2188 0.8301 3.982-10.416 6.8161-9.2353 4.5544 1.9058 6.2025-6.9766 8.3983-6.1782 4.052 1.4735-4.4442 19.118-1.0674 20.221 2.7134 0.8863 3.7875-3.8959 5.8517-2.8026 2.3799 1.2602 0.44149 4.2889 2.1232 4.847 2.6314 0.8725 6.14-14.748 8.697-13.761 1.9834 0.76568-1.1431 16.656 1.2717 17.547 4.2866 1.5826 2.6789-10.42 9.7714-1.4246 1.7734 2.2491 1.1025 1.5269 3.7484 3.2047"
       fill="none"
       stroke="#fff4ad"
       id="SVGCleanerId_0"
       stroke-linecap="round" />
    <linearGradient
       inkscape:collect="always"
       xlink:href="#linearGradient14231"
       id="linearGradient14237"
       x1="50.707542"
       y1="81.682442"
       x2="50.707542"
       y2="96.539803"
       gradientUnits="userSpaceOnUse" />
    <linearGradient
       inkscape:collect="always"
       id="linearGradient14231">
      <stop
         style="stop-color:#000000;stop-opacity:1;"
         offset="0"
         id="stop14233" />
      <stop
         style="stop-color:#000000;stop-opacity:0;"
         offset="1"
         id="stop14235" />
    </linearGradient>
    <linearGradient
       inkscape:collect="always"
       xlink:href="#linearGradient14239"
       id="linearGradient14245"
       x1="49.876652"
       y1="87.937508"
       x2="49.876652"
       y2="76.719681"
       gradientUnits="userSpaceOnUse" />
    <linearGradient
       inkscape:collect="always"
       id="linearGradient14239">
      <stop
         style="stop-color:#ffffff;stop-opacity:1;"
         offset="0"
         id="stop14241" />
      <stop
         style="stop-color:#ffffff;stop-opacity:0;"
         offset="1"
         id="stop14243" />
    </linearGradient>
  </defs>
  <rect
     style="fill-opacity:0.02000002"
     id="rect475"
     width="89.620003"
     height="89.980003"
     y="2.9899757"
     rx="12.724"
     x="3.3529999" />
  <rect
     style="fill-opacity:0.03900003"
     id="rect477"
     width="88.410004"
     height="88.760002"
     y="3.6000221"
     rx="12.552"
     x="3.9590001" />
  <rect
     style="fill-opacity:0.078"
     id="rect479"
     width="87.199997"
     height="87.550003"
     y="4.2100072"
     rx="12.38"
     x="4.5640001" />
  <rect
     style="fill-opacity:0.15700001"
     id="rect481"
     width="85.990997"
     height="86.330002"
     y="4.8199925"
     rx="12.208"
     x="5.1700001" />
  <path
     inkscape:connector-curvature="0"
     style="fill:url(#linearGradient7984)"
     id="path483"
     d="m 17.75,5.4062 c -6.642,0 -11.969,5.3948 -11.969,12.063 l 2e-4,61.031 c 0,6.668 5.3268,12.031 11.969,12.031 l 60.812,0 c 6.642,0 11.969,-5.363 11.969,-12.031 l 0,-61.031 c 0,-6.668 -5.327,-12.063 -11.969,-12.063 l -60.812,2e-4 z" />
  <path
     style="opacity:0.8;fill:#ffd812;filter:url(#filter7028)"
     inkscape:connector-curvature="0"
     id="path489"
     transform="matrix(0.79555,0.29372,-0.24733,0.66991,9.583,-18.26)"
     d="m 110.78,70.756 a 7.4205,7.4205 0 1 1 -14.841,0 7.4205,7.4205 0 1 1 14.841,0 z" />
  <path
     style="fill:#803300;fill-rule:evenodd"
     inkscape:connector-curvature="0"
     id="path491"
     d="m 63.944,16.46 c 0,0 -9.9806,4.8348 -13.42,13.623 -2.9706,-3.5476 -3.974,-9.3677 0.73053,-13.607 4.717,-4.2509 8.5548,-2.8833 12.69,-0.0157 z m -33.49,41.77 c 0,0 -7.4025,7.5832 -7.3896,17.771 -4.0086,-2.3097 -7.0048,-7.2819 -4.3919,-12.842 2.608,-5.5493 5.4002,-7.0939 11.781,-4.9293 z m 4.1795,1.7164 c 0,0 -5.8261,4.0514 -7.7089,18.611 8.2722,2.5511 11.502,2.6202 20.037,-2.9957 8.5352,-5.6161 24.655,-31.215 26.016,-40.517 1.3611,-9.3024 -4.7065,-14.478 -4.7065,-14.478 -9.2845,1.0983 -13.68,12.551 -13.68,12.551 0,0 6.6189,4.6303 -4.7602,19.699 -11.443,15.154 -15.197,7.1295 -15.197,7.1295 z" />
  <path
     inkscape:connector-curvature="0"
     style="fill:url(#linearGradient8021);fill-rule:evenodd"
     id="path493"
     d="m 64.773,14.21 c 0,0 -9.9806,4.8348 -13.42,13.623 -2.9706,-3.5476 -3.974,-9.3677 0.73053,-13.607 4.717,-4.2509 8.5548,-2.8833 12.69,-0.0157 z m -33.49,41.73 c 0,0 -7.4025,7.5833 -7.3896,17.771 -4.0087,-2.3096 -7.0049,-7.2818 -4.3919,-12.842 2.6081,-5.5493 5.4002,-7.0941 11.782,-4.9294 z m 4.1795,1.7165 c 0,0 -5.8261,4.0515 -7.7089,18.611 8.2722,2.551 11.502,2.6201 20.037,-2.9959 8.5352,-5.6159 24.655,-31.215 26.016,-40.517 1.3611,-9.3024 -4.7065,-14.478 -4.7065,-14.478 -9.2845,1.0983 -13.68,12.551 -13.68,12.551 0,0 6.6189,4.6303 -4.7601,19.699 -11.443,15.154 -15.197,7.1295 -15.197,7.1295 z" />
  <use
     height="100%"
     width="100%"
     y="0"
     x="0"
     style="stroke-width:2.773"
     id="use495"
     xlink:href="#SVGCleanerId_0"
     transform="translate(0,-956.36)" />
  <path
     inkscape:connector-curvature="0"
     style="fill:url(#radialGradient8011)"
     id="path497"
     d="m 81.909,55.14 -4.5167,3.3276 12.67,-3.3437 -12.165,4.8056 8.6124,2.9067 -8.5515,-1.7441 6.8412,4.8904 -8.1675,-4.5111 2.4347,6.1639 -3.8995,-5.3454 -0.41766,9.0941 -1.4038,-9.2774 -5.0488,7.4985 4.0677,-8.1186 -4.77,3.9649 4.1823,-4.2609 -9.7261,3.3037 9.1114,-4.6515 -8.1211,-0.219 7.1824,-0.8703 -3.6674,-2.792 4.9242,1.9551 -4.4685,-4.5787 4.9573,3.047 -3.7914,-8.443 5.4732,8.2194 0.17467,-6.5013 0.47771,7.1106 3.2525,-11.149 -2.0922,11.284 5.4734,-4.9982 -4.3551,5.6335 5.3264,-2.4006 z" />
  <use
     height="100%"
     width="100%"
     y="0"
     x="0"
     style="opacity:0.15;stroke-width:6.46999979"
     id="use499"
     xlink:href="#SVGCleanerId_0"
     transform="translate(0,-956.36)" />
  <use
     height="100%"
     width="100%"
     y="0"
     x="0"
     style="opacity:0.3;stroke-width:4.62200022"
     id="use501"
     xlink:href="#SVGCleanerId_0"
     transform="translate(0,-956.36)" />
  <g
     id="g14291">
    <path
       d="m 5.2922679,73.685059 0,5.0663 c 0,6.668 5.3645011,12.032 12.0320011,12.032 l 61.049,0 c 6.668,0 12.032,-5.3645 12.032,-12.032 l 0,-5.0663 c 0,6.6681 -5.3645,12.032 -12.032,12.032 l -61.049,0 c -6.668,0 -12.0320011,-5.3643 -12.0320011,-12.032 z"
       id="path64"
       inkscape:connector-curvature="0"
       style="opacity:0.4;fill:url(#linearGradient14237);fill-opacity:1" />
    <path
       inkscape:connector-curvature="0"
       id="path14214"
       d="m 5.2929688,72.717592 0,1.15039 c 0,6.667718 5.3632502,12.031248 12.0312502,12.031248 l 61.048828,0 c 6.6675,0 12.03125,-5.36313 12.03125,-12.031248 l 0,-1.15039 c 0,6.668098 -5.36375,12.031248 -12.03125,12.031248 l -61.048828,0 c -6.668,0 -12.0312502,-5.36355 -12.0312502,-12.031248 z"
       style="opacity:0.5;fill:url(#linearGradient14245);fill-opacity:1" />
  </g>
</svg>
