<svg height="96" width="96" xmlns="http://www.w3.org/2000/svg" xmlns:xlink="http://www.w3.org/1999/xlink" xmlns:sodipodi="http://sodipodi.sourceforge.net/DTD/sodipodi-0.dtd" xmlns:inkscape="http://www.inkscape.org/namespaces/inkscape">
 <defs>
  <linearGradient id="linearGradient4966">
   <stop stop-color="#b6b3d8"/>
   <stop stop-color="#b6b3d8" stop-opacity="0" offset="1"/>
  </linearGradient>
  <linearGradient id="linearGradient3936">
   <stop/>
   <stop stop-opacity="0" offset="1"/>
  </linearGradient>
  <linearGradient id="linearGradient3202-1">
   <stop stop-color="#2b2b2b"/>
   <stop stop-color="#828383" offset="0.5"/>
   <stop stop-color="#dadbdb" offset="1"/>
  </linearGradient>
  <radialGradient cy="371.76" r="76.7" xlink:href="#linearGradient4966" gradientUnits="userSpaceOnUse" id="radialGradient8816" cx="299.7" gradientTransform="matrix(0.27452 0 0 0.17157 -38.18 960.8)"/>
  <radialGradient cy="371.76" r="76.7" xlink:href="#linearGradient4966" gradientUnits="userSpaceOnUse" id="radialGradient8819" cx="299.7" gradientTransform="matrix(0.35133 0 0 0.21958 -61.2 912.95)"/>
  <linearGradient x2="0" y1="90" y2="5.988" gradientUnits="userSpaceOnUse" id="linearGradient8837" gradientTransform="matrix(1.0774 0 0 -1.0774 -1.295 97.53)">
   <stop stop-color="#9491c7"/>
   <stop stop-color="#4b46a7" stop-opacity="0.992" offset="1"/>
  </linearGradient>
  <linearGradient x1="103.95" x2="134.49" xlink:href="#linearGradient3936" y1="79.3" y2="41.36" gradientUnits="userSpaceOnUse" id="linearGradient8843" gradientTransform="matrix(0.8238 0.52974 -0.51453 0.84816 -6.238 -43.501)"/>
  <linearGradient x1="102.76" x2="142.17" xlink:href="#linearGradient3936" y1="78.68" y2="30.336" gradientUnits="userSpaceOnUse" id="linearGradient8853" gradientTransform="matrix(0.98565 0.16878 -0.16878 0.98565 -50.34 -18.08)"/>
  <radialGradient cy="181.19" r="63.07" gradientUnits="userSpaceOnUse" id="radialGradient8878" cx="418.46" gradientTransform="matrix(-0.01235 -0.01124 0.31766 -0.34874 33.23 1044.6)">
   <stop stop-color="#949494"/>
   <stop stop-color="#969696" offset="0.393"/>
   <stop stop-color="#e3e3e3" offset="1"/>
  </radialGradient>
  <radialGradient cy="382.15" r="17.677" xlink:href="#linearGradient3202-1" gradientUnits="userSpaceOnUse" id="radialGradient8881" cx="283.51" gradientTransform="matrix(0.07808 0.06214 -0.09525 0.11968 85.29 930.56)"/>
  <radialGradient cy="390.45" r="17.677" xlink:href="#linearGradient3202-1" gradientUnits="userSpaceOnUse" id="radialGradient8884" cx="289.44" gradientTransform="matrix(0.07808 0.06214 -0.09525 0.11968 66.19 952.19)"/>
  <radialGradient cy="356.62" r="143.34" gradientUnits="userSpaceOnUse" id="radialGradient8887" cx="425.51" gradientTransform="matrix(-0.01898 -0.01523 0.20232 -0.25221 3.466 1090.6)">
   <stop stop-color="#323c74"/>
   <stop stop-color="#1f257b" offset="0.501"/>
   <stop stop-color="#00003d" offset="1"/>
  </radialGradient>
 </defs>
 <g transform="matrix(1 0 0 1 0 -956.36)">
  <rect x="3.353" rx="12.724" y="959.35" fill-opacity="0.02" height="89.98" width="89.62"/>
  <rect x="3.959" rx="12.552" y="959.96" fill-opacity="0.039" height="88.76" width="88.41"/>
  <rect x="4.564" rx="12.38" y="960.57" fill-opacity="0.078" height="87.55" width="87.2"/>
  <rect x="5.17" rx="12.208" y="961.18" fill-opacity="0.157" height="86.33" width="85.991"/>
  <path d="m17.75 5.4062c-6.642 0-11.969 5.3948-11.969 12.063l0.0002 61.031c0 6.668 5.3268 12.031 11.969 12.031h60.812c6.642 0 11.969-5.363 11.969-12.031v-61.031c0-6.668-5.327-12.063-11.969-12.063l-60.812 0.0002z" fill="url(#linearGradient8837)" transform="matrix(1 0 0 1 0 956.36)"/>
  <path d="m5.7756 1029.8v5.0663c0 6.668 5.3434 12.032 11.985 12.032h60.809c6.6418 0 11.985-5.3645 11.985-12.032v-5.0663c0 6.6681-5.3434 12.032-11.985 12.032h-60.809c-6.6418 0-11.985-5.3643-11.985-12.032z" fill-opacity="0.19"/>
  <path d="m5.7756 1033.9v1.0133c0 6.668 5.3434 12.032 11.985 12.032h60.809c6.6418 0 11.985-5.3645 11.985-12.032v-1.0133c0 6.6681-5.3434 12.032-11.985 12.032h-60.809c-6.6418 0-11.985-5.3644-11.985-12.032z" fill-opacity="0.098"/>
  <path d="m71.041 994.58a26.945 16.841 0 1 1 -53.891 0 26.945 16.841 0 1 1 53.891 0z" stroke-width="0" fill="url(#radialGradient8819)"/>
  <path d="m65.15 1024.6a21.055 13.159 0 1 1 -42.109 0 21.055 13.159 0 1 1 42.109 0z" stroke-width="0" fill="url(#radialGradient8816)" opacity="0.6"/>
  <path d="m23.593 1030.9s3.5556 1.0324 8.2886 1.6226c1.9167 0.239 9.2096 1.0745 14.801 1.0525 0 0 6.81 0.01 10.569-0.5262 3.9333-0.5588 6.1616-1.2718 7.4018-2.6948 0.0323-0.3393 0.59859-1.4453-0.93031-2.5119-3.9088-2.7268-8.962-3.4731-18.777-5.8041-10.854-2.7288-14.097-5.3419-15.718-7.233-1.5363-1.8953 0.28837-5.8314 9.0342-7.7624 4.4281-1.0775 20.92-1.2755 20.92-1.2755-4.7315-3.7566-13.614-10.482-15.43-11.912-1.5924-1.2544-4.1586-3.1794-4.4345-4.8996-0.37212-1.6746 2.2638-2.4808 3.6592-2.5739 4.4965-0.3101 10.637 0.2171 16.094 1.3025 2.7434 0.5455 3.2251 0.4651 3.2251 0.4651 3.9073 0.1861 6.9463-1.8606 6.7913-6.171-0.031-4.3724-4.4027-7.8785-9.2411-8.0317-4.5563-0.14422-15.784 0.65122-15.784 0.65122 13.086 2.6979 15.226 3.3864 15.908 4.9616 0.40313 0.93031-0.67341 1.8553-4.2794 1.6746-3.9258-0.19675-11.97-1.1474-11.97-1.1474-7.6596-1.1784-12.993-2.2948-15.319 0.74425-1.5195 1.9854 0.21707 4.4034 0.89929 5.8299 3.039 5.3028 8.2941 8.9409 11.629 11.505 1.2548 0.9648 5.0857 3.1011 5.0857 3.1011-11.908-3.2561-21.397-1.4265-27.413 1.7366-6.9153 4.0933-5.7324 11.001 5.2407 17.459 6.4812 3.8142 9.7082 5.6466 20.32 6.9494 6.2027 0.989 7.1269 1.3937 7.0798 1.91-0.0664 0.7268-7.3415 1.0023-9.3412 1.1402-5.0872 0.3508-18.244 0.4386-18.31 0.4386z" stroke-width="0" fill="#fff" fill-rule="evenodd"/>
  <path d="m90 28.156c-3.597 2.233-8.646 5.941-15.75 12.063l-0.125-0.125-0.594 0.562c0.085 0.077 0.167 0.142 0.25 0.219-10.186 8.36-21.068 18.125-21.937 18.906-0.001 0-0.032-0.031-0.032-0.031l-0.031-0.062-0.031 0.062c-0.001 0-0.031-0.062-0.031-0.062l-0.781 0.75c0.008 0.012-0.009 0.019 0 0.031h-0.032l0.032 0.062s0.059 0.058 0.062 0.063c-9.318 9.495-15.113 16.662-14.875 17.5 0.32 1.126 18.738-11.761 19.5-12.406 0.032 0.026 0.219 0.156 0.219 0.156l0.031 0.031 0.844-0.813-0.031-0.031c-0.001 0-0.056-0.089-0.063-0.093 1.843-1.413 11.918-9.173 22.469-18.219 0.171 0.226 0.312 0.469 0.312 0.469l0.594-0.532c-0.023-0.034-0.039-0.059-0.062-0.094 0.419-0.327 5.287-4.152 10.062-8.468v-9.938z" fill="url(#linearGradient8853)" opacity="0.25" transform="matrix(1 0 0 1 0 956.36)"/>
  <path d="m279.48 404.24c-0.007-0.004-7.446-4.112-16.804-11.401-8.082-6.285-13.538-12.214-13.544-12.22l-0.122-0.133 3.646-4.669 0.157-0.205 0.169 0.197c0.017 0.01 5.4 6.295 13.725 12.78 7.913 6.157 16.594 10.586 16.612 10.595l0.229 0.117-3.911 5.026-0.157-0.087zm-16.542-11.737c8.545 6.656 15.469 10.644 16.589 11.275l3.372-4.334c-1.423-0.743-9.253-4.919-16.453-10.521-7.504-5.845-12.637-11.533-13.614-12.645l-3.264 4.184c0.849 0.905 6.01 6.32 13.37 12.041z" fill="#4d4d4d" transform="matrix(0.18829 0 0 0.18829 0.859 942.87)"/>
  <path d="m53.47 1018.6s10.022-10.752 19.832-22.591l0.42849 0.13231s20.344-22.296 15.368-24.101c0 0-2.4881-4.9275-22.003 18.783l-0.03753 0.35581c-9.0038 10.384-19.008 23.044-19.008 23.044-7.7274 11.108-12.316 19.318-11.936 20.112 0.51582 1.0785 17.387-15.627 17.357-15.735z" stroke-width="0.5" fill="url(#radialGradient8887)" fill-rule="evenodd" stroke="#000030"/>
  <path d="m47.722 1014.5c2.1906 2.2424 5.7611 4.5192 5.7611 4.5192l0.7072-0.8969c-2.4229-1.2663-5.7956-4.4847-5.7956-4.4847l-0.6727 0.8624z" fill="url(#radialGradient8884)" fill-rule="evenodd"/>
  <path d="m66.669 991.16c3.8637 2.4666 6.8995 5.4506 6.8995 5.4506l0.51746-0.60371c-2.0607-2.1804-6.9075-5.4792-6.9075-5.4792l-0.50945 0.63228z" fill="url(#radialGradient8881)" fill-rule="evenodd"/>
  <path d="m87.894 971.46c2.0354 0.17248 2.3803 1.9664 2.3803 1.9664-9.2798 9.6593-22.872 23.7-22.872 23.7l-0.68995-0.58646c11.971-14.351 21.181-25.08 21.181-25.08" fill="url(#radialGradient8878)" fill-rule="evenodd"/>
  <path d="m90 55.812c-1.761 0.554-3.66 1.167-5.719 1.876-0.009-0.022-0.062-0.188-0.062-0.188l-0.75 0.281c0.048 0.104 0.109 0.209 0.156 0.313-12.233 3.876-25.619 8.794-26.687 9.187-0.001 0 0-0.062 0-0.062v-0.063l-0.063 0.032v-0.032l-1 0.375c0.003 0.014 0.028 0.017 0.031 0.031h-0.062l0.031 0.063s-0.001 0.057 0 0.063c-11.871 5.255-19.718 9.697-19.813 10.562-0.127 1.164 21.203-3.754 22.126-4.062 0.018 0.036 0.093 0.218 0.093 0.218l0.031 0.032 1.094-0.438-0.031-0.031s-0.027-0.086-0.031-0.094c2.176-0.608 14.062-3.971 26.875-8.344 0.07 0.274 0.125 0.531 0.125 0.531l0.75-0.25c-0.008-0.04-0.023-0.083-0.032-0.124 0.187-0.055 1.53-0.472 2.938-0.907v-8.969z" fill="url(#linearGradient8843)" opacity="0.4" transform="matrix(1 0 0 1 0 956.36)"/>
 </g>
</svg>
