<?xml version="1.0" encoding="UTF-8" standalone="no"?>
<svg
   xmlns:dc="http://purl.org/dc/elements/1.1/"
   xmlns:cc="http://creativecommons.org/ns#"
   xmlns:rdf="http://www.w3.org/1999/02/22-rdf-syntax-ns#"
   xmlns:svg="http://www.w3.org/2000/svg"
   xmlns="http://www.w3.org/2000/svg"
   xmlns:xlink="http://www.w3.org/1999/xlink"
   xmlns:sodipodi="http://sodipodi.sourceforge.net/DTD/sodipodi-0.dtd"
   xmlns:inkscape="http://www.inkscape.org/namespaces/inkscape"
   height="96"
   width="96"
   id="svg507"
   version="1.1"
   inkscape:version="0.91 r13725"
   sodipodi:docname="emacs.svg">
  <metadata
     id="metadata591">
    <rdf:RDF>
      <cc:Work
         rdf:about="">
        <dc:format>image/svg+xml</dc:format>
        <dc:type
           rdf:resource="http://purl.org/dc/dcmitype/StillImage" />
      </cc:Work>
    </rdf:RDF>
  </metadata>
  <sodipodi:namedview
     pagecolor="#ffffff"
     bordercolor="#666666"
     borderopacity="1"
     objecttolerance="10"
     gridtolerance="10"
     guidetolerance="10"
     inkscape:pageopacity="0"
     inkscape:pageshadow="2"
     inkscape:window-width="640"
     inkscape:window-height="480"
     id="namedview589"
     showgrid="false"
     inkscape:zoom="1.7383042"
     inkscape:cx="27.780762"
     inkscape:cy="64.175391"
     inkscape:current-layer="svg507" />
  <defs
     id="defs509">
    <linearGradient
       id="linearGradient4966">
      <stop
         stop-color="#b6b3d8"
         id="stop512" />
      <stop
         stop-color="#b6b3d8"
         stop-opacity="0"
         offset="1"
         id="stop514" />
    </linearGradient>
    <linearGradient
       id="linearGradient3936">
      <stop
         id="stop517" />
      <stop
         stop-opacity="0"
         offset="1"
         id="stop519" />
    </linearGradient>
    <linearGradient
       id="linearGradient3202-1">
      <stop
         stop-color="#2b2b2b"
         id="stop522" />
      <stop
         stop-color="#828383"
         offset="0.5"
         id="stop524" />
      <stop
         stop-color="#dadbdb"
         offset="1"
         id="stop526" />
    </linearGradient>
    <radialGradient
       cy="371.76"
       r="76.7"
       xlink:href="#linearGradient4966"
       gradientUnits="userSpaceOnUse"
       id="radialGradient8816"
       cx="299.7"
       gradientTransform="matrix(0.27452,0,0,0.17157,-38.18,4.44)" />
    <radialGradient
       cy="371.76"
       r="76.7"
       xlink:href="#linearGradient4966"
       gradientUnits="userSpaceOnUse"
       id="radialGradient8819"
       cx="299.7"
       gradientTransform="matrix(0.35133,0,0,0.21958,-61.2,-43.41)" />
    <linearGradient
       x2="0"
       y1="90"
       y2="5.988"
       gradientUnits="userSpaceOnUse"
       id="linearGradient8837"
       gradientTransform="matrix(1.0774,0,0,-1.0774,-1.295,97.53)">
      <stop
         stop-color="#9491c7"
         id="stop531" />
      <stop
         stop-color="#4b46a7"
         stop-opacity="0.992"
         offset="1"
         id="stop533" />
    </linearGradient>
    <linearGradient
       x1="103.95"
       x2="134.49"
       xlink:href="#linearGradient3936"
       y1="79.3"
       y2="41.36"
       gradientUnits="userSpaceOnUse"
       id="linearGradient8843"
       gradientTransform="matrix(0.8238,0.52974,-0.51453,0.84816,-6.238,-43.501)" />
    <linearGradient
       x1="102.76"
       x2="142.17"
       xlink:href="#linearGradient3936"
       y1="78.68"
       y2="30.336"
       gradientUnits="userSpaceOnUse"
       id="linearGradient8853"
       gradientTransform="matrix(0.98565,0.16878,-0.16878,0.98565,-50.34,-18.08)" />
    <radialGradient
       cy="181.19"
       r="63.07"
       gradientUnits="userSpaceOnUse"
       id="radialGradient8878"
       cx="418.46"
       gradientTransform="matrix(-0.01235,-0.01124,0.31766,-0.34874,33.23,88.24)">
      <stop
         stop-color="#949494"
         id="stop538" />
      <stop
         stop-color="#969696"
         offset="0.393"
         id="stop540" />
      <stop
         stop-color="#e3e3e3"
         offset="1"
         id="stop542" />
    </radialGradient>
    <radialGradient
       cy="382.15"
       r="17.677"
       xlink:href="#linearGradient3202-1"
       gradientUnits="userSpaceOnUse"
       id="radialGradient8881"
       cx="283.51"
       gradientTransform="matrix(0.07808,0.06214,-0.09525,0.11968,85.29,-25.8)" />
    <radialGradient
       cy="390.45"
       r="17.677"
       xlink:href="#linearGradient3202-1"
       gradientUnits="userSpaceOnUse"
       id="radialGradient8884"
       cx="289.44"
       gradientTransform="matrix(0.07808,0.06214,-0.09525,0.11968,66.19,-4.17)" />
    <radialGradient
       cy="356.62"
       r="143.34"
       gradientUnits="userSpaceOnUse"
       id="radialGradient8887"
       cx="425.51"
       gradientTransform="matrix(-0.01898,-0.01523,0.20232,-0.25221,3.466,134.24)">
      <stop
         stop-color="#323c74"
         id="stop547" />
      <stop
         stop-color="#1f257b"
         offset="0.501"
         id="stop549" />
      <stop
         stop-color="#00003d"
         offset="1"
         id="stop551" />
    </radialGradient>
    <linearGradient
       inkscape:collect="always"
       xlink:href="#linearGradient3936"
       id="linearGradient14237"
       x1="50.707542"
       y1="81.682442"
       x2="50.707542"
       y2="96.539803"
       gradientUnits="userSpaceOnUse" />
    <linearGradient
       inkscape:collect="always"
       xlink:href="#linearGradient14239"
       id="linearGradient14245"
       x1="49.876652"
       y1="87.937508"
       x2="49.876652"
       y2="76.719681"
       gradientUnits="userSpaceOnUse" />
    <linearGradient
       inkscape:collect="always"
       id="linearGradient14239">
      <stop
         style="stop-color:#ffffff;stop-opacity:1;"
         offset="0"
         id="stop14241" />
      <stop
         style="stop-color:#ffffff;stop-opacity:0;"
         offset="1"
         id="stop14243" />
    </linearGradient>
  </defs>
  <rect
     style="fill-opacity:0.02000002"
     id="rect555"
     width="89.620003"
     height="89.980003"
     y="2.9899757"
     rx="12.724"
     x="3.3529999" />
  <rect
     style="fill-opacity:0.03900003"
     id="rect557"
     width="88.410004"
     height="88.760002"
     y="3.6000221"
     rx="12.552"
     x="3.9590001" />
  <rect
     style="fill-opacity:0.078"
     id="rect559"
     width="87.199997"
     height="87.550003"
     y="4.2100072"
     rx="12.38"
     x="4.5640001" />
  <rect
     style="fill-opacity:0.15700001"
     id="rect561"
     width="85.990997"
     height="86.330002"
     y="4.8199925"
     rx="12.208"
     x="5.1700001" />
  <path
     inkscape:connector-curvature="0"
     style="fill:url(#linearGradient8837)"
     id="path563"
     d="m 17.75,5.4062 c -6.642,0 -11.969,5.3948 -11.969,12.063 l 2e-4,61.031 c 0,6.668 5.3268,12.031 11.969,12.031 l 60.812,0 c 6.642,0 11.969,-5.363 11.969,-12.031 l 0,-61.031 c 0,-6.668 -5.327,-12.063 -11.969,-12.063 l -60.812,2e-4 z" />
  <path
     inkscape:connector-curvature="0"
     style="fill:url(#radialGradient8819);stroke-width:0"
     id="path569"
     d="m 71.041,38.22 a 26.9455,16.841313 0 1 1 -53.891,0 26.9455,16.841313 0 1 1 53.891,0 z" />
  <path
     inkscape:connector-curvature="0"
     style="opacity:0.6;fill:url(#radialGradient8816);stroke-width:0"
     id="path571"
     d="m 65.15,68.24 a 21.055,13.159 0 1 1 -42.109,0 21.055,13.159 0 1 1 42.109,0 z" />
  <path
     style="fill:#ffffff;fill-rule:evenodd;stroke-width:0"
     inkscape:connector-curvature="0"
     id="path573"
     d="m 23.593,74.54 c 0,0 3.5556,1.0324 8.2886,1.6226 1.9167,0.239 9.2096,1.0745 14.801,1.0525 0,0 6.81,0.01 10.569,-0.5262 3.9333,-0.5588 6.1616,-1.2718 7.4018,-2.6948 0.0323,-0.3393 0.59859,-1.4453 -0.93031,-2.5119 -3.9088,-2.7268 -8.962,-3.4731 -18.777,-5.8041 -10.854,-2.7288 -14.097,-5.3419 -15.718,-7.233 -1.5363,-1.8953 0.28837,-5.8314 9.0342,-7.7624 4.4281,-1.0775 20.92,-1.2755 20.92,-1.2755 -4.7315,-3.7566 -13.614,-10.482 -15.43,-11.912 -1.5924,-1.2544 -4.1586,-3.1794 -4.4345,-4.8996 -0.37212,-1.6746 2.2638,-2.4808 3.6592,-2.5739 4.4965,-0.3101 10.637,0.2171 16.094,1.3025 2.7434,0.5455 3.2251,0.4651 3.2251,0.4651 3.9073,0.1861 6.9463,-1.8606 6.7913,-6.171 -0.031,-4.3724 -4.4027,-7.8785 -9.2411,-8.0317 -4.5563,-0.14422 -15.784,0.65122 -15.784,0.65122 13.086,2.6979 15.226,3.3864 15.908,4.9616 0.40313,0.93031 -0.67341,1.8553 -4.2794,1.6746 -3.9258,-0.19675 -11.97,-1.1474 -11.97,-1.1474 -7.6596,-1.1784 -12.993,-2.2948 -15.319,0.74425 -1.5195,1.9854 0.21707,4.4034 0.89929,5.8299 3.039,5.3028 8.2941,8.9409 11.629,11.505 1.2548,0.9648 5.0857,3.10113 5.0857,3.10113 -11.908,-3.25613 -21.397,-1.42653 -27.413,1.7366 -6.9153,4.0933 -5.7324,11.001 5.2407,17.459 6.4812,3.8142 9.7082,5.6466 20.32,6.9494 6.2027,0.989 7.1269,1.3937 7.0798,1.91 -0.0664,0.7268 -7.3415,1.0023 -9.3412,1.1402 -5.0872,0.3508 -18.244,0.4386 -18.31,0.4386 z" />
  <path
     inkscape:connector-curvature="0"
     style="opacity:0.25;fill:url(#linearGradient8853)"
     id="path575"
     d="m 90,28.156 c -3.597,2.233 -8.646,5.941 -15.75,12.063 l -0.125,-0.125 -0.594,0.562 c 0.085,0.077 0.167,0.142 0.25,0.219 C 63.595,49.235 52.713,59 51.844,59.781 c -10e-4,0 -0.032,-0.031 -0.032,-0.031 L 51.781,59.688 51.75,59.75 c -10e-4,0 -0.031,-0.062 -0.031,-0.062 l -0.781,0.75 c 0.008,0.012 -0.009,0.019 0,0.031 l -0.032,0 0.032,0.062 c 0,0 0.059,0.058 0.062,0.063 -9.318,9.495 -15.113,16.662 -14.875,17.5 0.32,1.126 18.738,-11.761 19.5,-12.406 0.032,0.026 0.219,0.156 0.219,0.156 l 0.031,0.031 0.844,-0.813 -0.031,-0.031 c -0.001,0 -0.056,-0.089 -0.063,-0.093 1.843,-1.413 11.918,-9.173 22.469,-18.219 0.171,0.226 0.312,0.469 0.312,0.469 L 80,46.656 C 79.977,46.622 79.961,46.597 79.938,46.562 80.357,46.235 85.225,42.41 90,38.094 l 0,-9.938 z" />
  <path
     style="fill:#4d4d4d"
     inkscape:connector-curvature="0"
     id="path577"
     d="m 53.482289,62.62435 c -0.0013,-7.54e-4 -1.402007,-0.774249 -3.164025,-2.146695 -1.52176,-1.183402 -2.54907,-2.299774 -2.5502,-2.300903 l -0.02297,-0.02504 0.686505,-0.879126 0.02956,-0.0386 0.03182,0.03709 c 0.0032,0.0019 1.016766,1.185285 2.58428,2.406346 1.489939,1.159301 3.124484,1.993238 3.127874,1.994932 l 0.04312,0.02203 -0.736402,0.946346 -0.02956,-0.01638 z m -3.114693,-2.20996 c 1.608938,1.253258 2.912658,2.004159 3.123543,2.12297 l 0.634914,-0.816049 c -0.267937,-0.1399 -1.742248,-0.926199 -3.097936,-1.980999 -1.412928,-1.100555 -2.37942,-2.171549 -2.56338,-2.380927 l -0.614578,0.787805 c 0.159858,0.170402 1.131623,1.189993 2.517437,2.2672 z" />
  <path
     inkscape:connector-curvature="0"
     style="fill:url(#radialGradient8887);fill-rule:evenodd;stroke:#000030;stroke-width:0.5"
     id="path579"
     d="m 53.47,62.24 c 0,0 10.022,-10.752 19.832,-22.591 l 0.42849,0.13231 c 0,0 20.344,-22.296 15.368,-24.101 0,0 -2.4881,-4.9275 -22.003,18.783 l -0.03753,0.35581 c -9.0038,10.38398 -19.008,23.04398 -19.008,23.04398 -7.7274,11.108 -12.316,19.318 -11.936,20.112 0.51582,1.0785 17.387,-15.627 17.357,-15.735 z" />
  <path
     inkscape:connector-curvature="0"
     style="fill:url(#radialGradient8884);fill-rule:evenodd"
     id="path581"
     d="m 47.722,58.14 c 2.1906,2.2424 5.7611,4.5192 5.7611,4.5192 l 0.7072,-0.8969 C 51.7674,60.496 48.3947,57.2776 48.3947,57.2776 L 47.722,58.14 Z" />
  <path
     inkscape:connector-curvature="0"
     style="fill:url(#radialGradient8881);fill-rule:evenodd"
     id="path583"
     d="m 66.669,34.8 c 3.8637,2.4666 6.8995,5.4506 6.8995,5.4506 l 0.51746,-0.60371 c -2.0607,-2.1804 -6.9075,-5.4792 -6.9075,-5.4792 l -0.50945,0.63228 z" />
  <path
     inkscape:connector-curvature="0"
     style="fill:url(#radialGradient8878);fill-rule:evenodd"
     id="path585"
     d="m 87.894,15.1 c 2.0354,0.17248 2.3803,1.9664 2.3803,1.9664 -9.2798,9.6593 -22.872,23.7 -22.872,23.7 l -0.68995,-0.58646 c 11.971,-14.351 21.181,-25.08 21.181,-25.08" />
  <path
     inkscape:connector-curvature="0"
     style="opacity:0.4;fill:url(#linearGradient8843)"
     id="path587"
     d="m 90,55.812 c -1.761,0.554 -3.66,1.167 -5.719,1.876 C 84.272,57.666 84.219,57.5 84.219,57.5 l -0.75,0.281 c 0.048,0.104 0.109,0.209 0.156,0.313 -12.233,3.876 -25.619,8.794 -26.687,9.187 -0.001,0 0,-0.062 0,-0.062 l 0,-0.063 -0.063,0.032 0,-0.032 -1,0.375 c 0.003,0.014 0.028,0.017 0.031,0.031 l -0.062,0 0.031,0.063 c 0,0 -10e-4,0.057 0,0.063 -11.871,5.255 -19.718,9.697 -19.813,10.562 -0.127,1.164 21.203,-3.754 22.126,-4.062 0.018,0.036 0.093,0.218 0.093,0.218 L 58.312,74.438 59.406,74 59.375,73.969 c 0,0 -0.027,-0.086 -0.031,-0.094 2.176,-0.608 14.062,-3.971 26.875,-8.344 0.07,0.274 0.125,0.531 0.125,0.531 l 0.75,-0.25 c -0.008,-0.04 -0.023,-0.083 -0.032,-0.124 0.187,-0.055 1.53,-0.472 2.938,-0.907 l 0,-8.969 z" />
  <g
     id="g14291">
    <path
       d="m 5.2922679,73.685059 0,5.0663 c 0,6.668 5.3645011,12.032 12.0320011,12.032 l 61.049,0 c 6.668,0 12.032,-5.3645 12.032,-12.032 l 0,-5.0663 c 0,6.6681 -5.3645,12.032 -12.032,12.032 l -61.049,0 c -6.668,0 -12.0320011,-5.3643 -12.0320011,-12.032 z"
       id="path64"
       inkscape:connector-curvature="0"
       style="opacity:0.4;fill:url(#linearGradient14237);fill-opacity:1" />
    <path
       inkscape:connector-curvature="0"
       id="path14214"
       d="m 5.2929688,72.717592 0,1.15039 c 0,6.667718 5.3632502,12.031248 12.0312502,12.031248 l 61.048828,0 c 6.6675,0 12.03125,-5.36313 12.03125,-12.031248 l 0,-1.15039 c 0,6.668098 -5.36375,12.031248 -12.03125,12.031248 l -61.048828,0 c -6.668,0 -12.0312502,-5.36355 -12.0312502,-12.031248 z"
       style="opacity:0.5;fill:url(#linearGradient14245);fill-opacity:1" />
  </g>
</svg>
