<?xml version="1.0" encoding="UTF-8" standalone="no"?>
<svg
   xmlns:dc="http://purl.org/dc/elements/1.1/"
   xmlns:cc="http://creativecommons.org/ns#"
   xmlns:rdf="http://www.w3.org/1999/02/22-rdf-syntax-ns#"
   xmlns:svg="http://www.w3.org/2000/svg"
   xmlns="http://www.w3.org/2000/svg"
   xmlns:xlink="http://www.w3.org/1999/xlink"
   xmlns:sodipodi="http://sodipodi.sourceforge.net/DTD/sodipodi-0.dtd"
   xmlns:inkscape="http://www.inkscape.org/namespaces/inkscape"
   height="96"
   width="96"
   id="svg593"
   version="1.1"
   inkscape:version="0.91 r13725"
   sodipodi:docname="emerald-theme-manager-icon.svg">
  <metadata
     id="metadata669">
    <rdf:RDF>
      <cc:Work
         rdf:about="">
        <dc:format>image/svg+xml</dc:format>
        <dc:type
           rdf:resource="http://purl.org/dc/dcmitype/StillImage" />
      </cc:Work>
    </rdf:RDF>
  </metadata>
  <sodipodi:namedview
     pagecolor="#ffffff"
     bordercolor="#666666"
     borderopacity="1"
     objecttolerance="10"
     gridtolerance="10"
     guidetolerance="10"
     inkscape:pageopacity="0"
     inkscape:pageshadow="2"
     inkscape:window-width="640"
     inkscape:window-height="480"
     id="namedview667"
     showgrid="false"
     inkscape:zoom="1.7383042"
     inkscape:cx="35.025989"
     inkscape:cy="64.343884"
     inkscape:current-layer="svg593" />
  <defs
     id="defs595">
    <linearGradient
       x2="0"
       y1="90"
       y2="5.988"
       gradientUnits="userSpaceOnUse"
       id="linearGradient3061"
       gradientTransform="matrix(1.0952,0,0,1.0952,-4.632,-3.232)">
      <stop
         stop-color="#2b930b"
         id="stop598" />
      <stop
         stop-color="#67d441"
         offset="1"
         id="stop600" />
    </linearGradient>
    <clipPath
       id="clipPath2973">
      <rect
         x="6"
         rx="6"
         y="6"
         height="84"
         width="84"
         id="rect603" />
    </clipPath>
    <linearGradient
       inkscape:collect="always"
       xlink:href="#linearGradient14231"
       id="linearGradient14237"
       x1="50.707542"
       y1="81.682442"
       x2="50.707542"
       y2="96.539803"
       gradientUnits="userSpaceOnUse" />
    <linearGradient
       inkscape:collect="always"
       id="linearGradient14231">
      <stop
         style="stop-color:#000000;stop-opacity:1;"
         offset="0"
         id="stop14233" />
      <stop
         style="stop-color:#000000;stop-opacity:0;"
         offset="1"
         id="stop14235" />
    </linearGradient>
    <linearGradient
       inkscape:collect="always"
       xlink:href="#linearGradient14239"
       id="linearGradient14245"
       x1="49.876652"
       y1="87.937508"
       x2="49.876652"
       y2="76.719681"
       gradientUnits="userSpaceOnUse" />
    <linearGradient
       inkscape:collect="always"
       id="linearGradient14239">
      <stop
         style="stop-color:#ffffff;stop-opacity:1;"
         offset="0"
         id="stop14241" />
      <stop
         style="stop-color:#ffffff;stop-opacity:0;"
         offset="1"
         id="stop14243" />
    </linearGradient>
  </defs>
  <rect
     id="rect607"
     width="89.620003"
     height="89.980003"
     y="2.9899757"
     rx="12.724"
     x="3.3529999"
     style="fill-opacity:0.02000002" />
  <rect
     id="rect609"
     width="88.410004"
     height="88.760002"
     y="3.6000221"
     rx="12.552"
     x="3.9590001"
     style="fill-opacity:0.03900003" />
  <rect
     id="rect611"
     width="87.199997"
     height="87.550003"
     y="4.2100072"
     rx="12.38"
     x="4.5640001"
     style="fill-opacity:0.078" />
  <rect
     id="rect613"
     width="85.990997"
     height="86.330002"
     y="4.8199925"
     rx="12.208"
     x="5.1700001"
     style="fill-opacity:0.15700001" />
  <path
     id="path615"
     d="m 17.75,5.4062 c -6.642,0 -11.969,5.3948 -11.969,12.063 l 2e-4,61.031 c 0,6.668 5.3268,12.031 11.969,12.031 l 60.812,0 c 6.642,0 11.969,-5.363 11.969,-12.031 l 0,-61.031 c 0,-6.668 -5.327,-12.063 -11.969,-12.063 l -60.812,2e-4 z"
     style="fill:url(#linearGradient3061)"
     inkscape:connector-curvature="0" />
  <g
     id="g621"
     transform="matrix(1,0,0,0.94949,-0.323,-0.18)"
     clip-path="url(#clipPath2973)"
     style="opacity:0.9;fill:#dcffaa">
    <path
       id="path623"
       d="M 48,48 72,-8 88,-8 48,48 Z"
       inkscape:connector-curvature="0"
       style="opacity:0.15" />
    <path
       id="path625"
       d="M 48,48 103.25,73.677 102.77,89.67 48,48 Z"
       inkscape:connector-curvature="0"
       style="opacity:0.15" />
    <path
       id="path627"
       d="M 48,48 -11.828,59.516 -20.797,46.266 48,48 Z"
       inkscape:connector-curvature="0"
       style="opacity:0.15" />
    <path
       id="path629"
       d="M 48,48 -1.311,12.217 2.2249,-3.387 47.9999,48 Z"
       inkscape:connector-curvature="0"
       style="opacity:0.15" />
    <path
       id="path631"
       d="M 48,48 65.519,-14.073 95.955,-1.359 48,48 Z"
       inkscape:connector-curvature="0"
       style="opacity:0.15" />
    <path
       id="path633"
       d="M 48,48 109.64,28.999 115.49,61.46 48,48 Z"
       inkscape:connector-curvature="0"
       style="opacity:0.15" />
    <path
       id="path635"
       d="M 48,48 16.754,104.42 -9.969,85.089 48,48 Z"
       inkscape:connector-curvature="0"
       style="opacity:0.15" />
    <path
       id="path637"
       d="M 48,48 -14.812,33.349 -3.508,2.361 48,48 Z"
       inkscape:connector-curvature="0"
       style="opacity:0.15" />
    <path
       id="path639"
       d="M 48,48 93.81,93.403 90.118,102.43 48,48 Z"
       inkscape:connector-curvature="0"
       style="opacity:0.15" />
    <path
       id="path641"
       d="m 48,48 -2.9701,64.43 -9.1685,3.31 L 47.9994,48 Z"
       inkscape:connector-curvature="0"
       style="opacity:0.15" />
    <path
       id="path643"
       d="M 48,48 3.141,94.343 -5.9239,90.758 48.0001,48 Z"
       inkscape:connector-curvature="0"
       style="opacity:0.15" />
    <path
       id="path645"
       d="M 48,48 -14.116,65.366 -20.132,57.696 48,48 Z"
       inkscape:connector-curvature="0"
       style="opacity:0.15" />
    <path
       id="path647"
       d="M 48,48 18.853,-9.537 25.203,-16.933 48,48 Z"
       inkscape:connector-curvature="0"
       style="opacity:0.15" />
    <path
       id="path649"
       d="m 48,48 59.482,-24.939 6.921,6.8641 L 48,47.9991 Z"
       inkscape:connector-curvature="0"
       style="opacity:0.15" />
    <path
       id="path651"
       d="M 48,48 88.187,93.793 81.29,108.23 48,48 Z"
       inkscape:connector-curvature="0"
       style="opacity:0.15" />
    <path
       id="path653"
       d="M 48,48 12.042,-1.184 20.194,-14.951 48,48 Z"
       inkscape:connector-curvature="0"
       style="opacity:0.15" />
  </g>
  <g
     id="g655"
     transform="translate(-0.323,-0.48)">
    <path
       id="path657"
       d="m 65.906,20.156 c -0.86051,0.02442 -1.6387,0.12252 -2.2812,0.0625 a 1.0822,1.0822 0 0 0 -0.094,-0.03 c -4.614,0.043 -9.297,-0.088 -13.969,0.062 a 1.0822,1.0822 0 0 0 -0.53125,0.15625 c -0.04339,-0.0082 -0.1173,-0.01527 -0.28125,-0.0625 -0.20298,-0.05848 -0.46582,-0.1427 -0.84375,-0.15625 -0.24063,-0.0086 -0.53426,0.14792 -0.8125,0.25 l 0,-0.0625 c -0.13596,0.02124 -0.50822,-0.04112 -1,-0.125 -0.43345,-0.07393 -1.005,-0.1166 -1.625,-0.03125 l 0,-0.03125 c -5.415,0.043 -10.882,-0.086 -16.344,0.063 a 1.0822,1.0822 0 0 0 -0.53125,0.1875 c -0.20241,-0.07891 -0.71335,-0.34423 -1.4062,-0.21875 -0.01506,0.0027 -0.01606,-0.0031 -0.03125,0 -1.2515,0.2396 -2.056,1.1597 -2.5625,1.9688 -0.51059,0.81557 -0.86434,1.5902 -1.2188,2.0312 a 1.0822,1.0822 0 0 0 -0.09375,0.125 c -2.336,3.8822 -4.8655,7.7113 -7.125,11.719 a 1.0822,1.0822 0 0 0 -0.0625,0.09375 c -0.34173,0.79416 -0.11644,1.5282 -0.03125,1.875 0.08519,0.34678 0.084,0.21865 0.0625,0.25 a 1.0822,1.0822 0 0 0 -0.156,0.468 c -0.16863,1.2272 0.40329,2.2441 0.96875,2.9688 0.56546,0.72462 1.1393,1.2938 1.4062,1.75 a 1.0822,1.0822 0 0 0 0.09375,0.125 c 8.8713,11.4 17.756,22.79 26.625,34.188 0.65137,0.82942 1.6748,1.021 2.3438,1 0.66894,-0.02095 1.1459,-0.0773 1.3125,-0.03125 a 1.0822,1.0822 0 0 0 0.5625,0 c 0.16663,-0.04605 0.64356,0.0103 1.3125,0.03125 0.66894,0.02095 1.6924,-0.17058 2.3438,-1 9.557,-12.325 19.209,-24.604 28.718,-36.97 a 1.0822,1.0822 0 0 0 0.03125,-0.03125 c 0.54266,-0.74137 0.3977,-1.6105 0.28125,-2.0625 -0.11645,-0.45197 -0.05317,-0.56734 -0.125,-0.40625 a 1.0822,1.0822 0 0 0 0.032,-0.093 c 0.429,-1.235 -0.027,-2.397 -0.531,-3.219 -0.505,-0.822 -1.064,-1.482 -1.282,-1.969 a 1.0822,1.0822 0 0 0 -0.09375,-0.125 c -2.432,-3.853 -4.728,-7.842 -7.28,-11.687 a 1.0822,1.0822 0 0 0 -0.126,-0.157 c -0.547,-0.569 -1.278,-0.811 -1.937,-0.843 -0.5,-0.025 -0.943,0.13 -1.375,0.281 -0.808,-0.239 -1.619,-0.364 -2.344,-0.344 z"
       inkscape:connector-curvature="0"
       style="opacity:0.05" />
    <path
       id="path659"
       d="m 26.375,21.281 c -1.7547,0.31886 -2.157,2.3836 -3.1459,3.6142 -2.353,3.9103 -4.9021,7.7375 -7.1354,11.698 -0.35135,0.81653 0.45967,1.5511 -0.0625,2.3125 -0.23011,1.6746 1.499,2.7145 2.262,4.0187 8.871,11.401 17.744,22.802 26.613,34.201 0.819,1.043 2.077,0.313 3.094,0.594 1.017,-0.281 2.275,0.449 3.094,-0.594 9.56,-12.328 19.214,-24.609 28.718,-36.969 0.568,-0.775 -0.267,-1.612 0.032,-2.281 0.581,-1.676 -1.139,-2.978 -1.773,-4.394 -2.447,-3.876 -4.762,-7.859 -7.29,-11.669 -0.66127,-0.68794 -1.7387,-0.61242 -2.5,-0.25 -1.4741,-0.59922 -3.1846,-0.13452 -4.7554,-0.28125 -4.6412,0.04351 -9.3038,-0.08585 -13.932,0.0625 -0.71272,0.5416 -1.5456,-0.46734 -2.3438,0.09375 -0.82069,0.12822 -1.8186,-0.3617 -2.7719,-0.15625 -5.4379,0.04312 -10.897,-0.0853 -16.322,0.0625 -0.6321,0.52031 -1.0496,-0.21158 -1.7812,-0.0625 z"
       inkscape:connector-curvature="0"
       style="opacity:0.1" />
    <path
       id="path661"
       d="m 26.5,22.5 a 0.77274,0.77274 0 0 0 -0.59375,0.375 l -8.562,13.875 a 0.77274,0.77274 0 0 0 0.656,1.188 l 17.156,0 a 0.77274,0.77274 0 0 0 0.656,-1.188 l -8.593,-13.875 a 0.77274,0.77274 0 0 0 -0.719,-0.375 z m 2.1562,0 a 0.77274,0.77274 0 0 0 -0.59375,1.1875 l 8.5625,13.875 a 0.77274,0.77274 0 0 0 1.3125,0 l 8.564,-13.875 a 0.77274,0.77274 0 0 0 -0.656,-1.188 l -17.125,0 a 0.77274,0.77274 0 0 0 -0.0625,0 z m 19.281,0 a 0.77274,0.77274 0 0 0 -0.59375,0.375 l -8.5625,13.875 a 0.77274,0.77274 0 0 0 0.65625,1.1875 l 17.125,0 a 0.77274,0.77274 0 0 0 0.658,-1.188 l -8.563,-13.875 a 0.77274,0.77274 0 0 0 -0.718,-0.375 z m 2.1562,0 a 0.77274,0.77274 0 0 0 -0.593,1.188 l 8.5625,13.875 a 0.77274,0.77274 0 0 0 1.3125,0 L 67.9379,23.688 A 0.77274,0.77274 0 0 0 67.2829,22.5 l -17.125,0 a 0.77274,0.77274 0 0 0 -0.0625,0 z m 19.281,0 a 0.77274,0.77274 0 0 0 -0.59375,0.375 l -8.592,13.875 a 0.77274,0.77274 0 0 0 0.65625,1.1875 l 17.156,0 a 0.77274,0.77274 0 0 0 0.656,-1.188 l -8.562,-13.875 a 0.77274,0.77274 0 0 0 -0.719,-0.375 z m -51.438,16 a 0.77274,0.77274 0 0 0 -0.561,1.25 l 28.344,36.438 A 0.77274,0.77274 0 0 0 47.0944,75.5 L 36.9694,39.062 a 0.77274,0.77274 0 0 0 -0.75,-0.562 l -18.219,0 a 0.77274,0.77274 0 0 0 -0.0625,0 z m 20.344,0 a 0.77274,0.77274 0 0 0 -0.6875,0.96875 l 9.658,36.437 a 0.77274,0.77274 0 0 0 1.5,0 l 9.6562,-36.438 a 0.77274,0.77274 0 0 0 -0.75,-0.968 l -19.312,0 a 0.77274,0.77274 0 0 0 -0.0625,0 z m 21.438,0 a 0.77274,0.77274 0 0 0 -0.6875,0.5625 l -10.124,36.438 a 0.77274,0.77274 0 0 0 1.375,0.6875 L 78.6259,39.75 a 0.77274,0.77274 0 0 0 -0.625,-1.25 l -18.219,0 a 0.77274,0.77274 0 0 0 -0.0625,0 z"
       inkscape:connector-curvature="0"
       style="opacity:0.15" />
    <path
       id="path663"
       d="M 26.562,23.281 18,37.156 l 17.156,0 -8.5938,-13.875 z m 2.1562,0 8.5625,13.875 8.5625,-13.875 -17.125,0 z m 19.281,0 -8.5625,13.875 17.125,0 -8.561,-13.875 z m 2.1562,0 8.5625,13.875 8.5625,-13.875 -17.125,0 z m 19.281,0 -8.5938,13.875 17.156,0 -8.5625,-13.875 z m -51.438,16 28.344,36.438 -10.125,-36.438 -18.219,0 z m 20.344,0 9.6562,36.438 9.6562,-36.438 -19.312,0 z m 21.438,0 -10.125,36.438 28.345,-36.438 -18.219,0 z"
       inkscape:connector-curvature="0"
       style="opacity:0.3" />
    <path
       id="path665"
       d="M 26.562,22.281 18,36.156 l 17.156,0 -8.5938,-13.875 z m 2.1562,0 8.5625,13.875 8.5625,-13.875 -17.125,0 z m 19.281,0 -8.5625,13.875 17.125,0 -8.561,-13.875 z m 2.1562,0 8.5625,13.875 8.5625,-13.875 -17.125,0 z m 19.281,0 -8.5938,13.875 17.156,0 -8.5625,-13.875 z m -51.438,16 28.344,36.438 -10.125,-36.438 -18.219,0 z m 20.344,0 9.6562,36.438 9.6562,-36.438 -19.312,0 z m 21.438,0 -10.125,36.438 28.345,-36.438 -18.219,0 z"
       inkscape:connector-curvature="0"
       style="fill:#ffffff" />
  </g>
  <g
     id="g14291">
    <path
       d="m 5.2922679,73.685059 0,5.0663 c 0,6.668 5.3645011,12.032 12.0320011,12.032 l 61.049,0 c 6.668,0 12.032,-5.3645 12.032,-12.032 l 0,-5.0663 c 0,6.6681 -5.3645,12.032 -12.032,12.032 l -61.049,0 c -6.668,0 -12.0320011,-5.3643 -12.0320011,-12.032 z"
       id="path64"
       inkscape:connector-curvature="0"
       style="opacity:0.4;fill:url(#linearGradient14237);fill-opacity:1" />
    <path
       inkscape:connector-curvature="0"
       id="path14214"
       d="m 5.2929688,72.717592 0,1.15039 c 0,6.667718 5.3632502,12.031248 12.0312502,12.031248 l 61.048828,0 c 6.6675,0 12.03125,-5.36313 12.03125,-12.031248 l 0,-1.15039 c 0,6.668098 -5.36375,12.031248 -12.03125,12.031248 l -61.048828,0 c -6.668,0 -12.0312502,-5.36355 -12.0312502,-12.031248 z"
       style="opacity:0.5;fill:url(#linearGradient14245);fill-opacity:1" />
  </g>
</svg>
