<?xml version="1.0" encoding="UTF-8" standalone="no"?>
<svg
   xmlns:dc="http://purl.org/dc/elements/1.1/"
   xmlns:cc="http://creativecommons.org/ns#"
   xmlns:rdf="http://www.w3.org/1999/02/22-rdf-syntax-ns#"
   xmlns:svg="http://www.w3.org/2000/svg"
   xmlns="http://www.w3.org/2000/svg"
   xmlns:xlink="http://www.w3.org/1999/xlink"
   xmlns:sodipodi="http://sodipodi.sourceforge.net/DTD/sodipodi-0.dtd"
   xmlns:inkscape="http://www.inkscape.org/namespaces/inkscape"
   height="96"
   width="96"
   id="svg1374"
   version="1.1"
   inkscape:version="0.91 r13725"
   sodipodi:docname="empathy.svg">
  <metadata
     id="metadata1446">
    <rdf:RDF>
      <cc:Work
         rdf:about="">
        <dc:format>image/svg+xml</dc:format>
        <dc:type
           rdf:resource="http://purl.org/dc/dcmitype/StillImage" />
      </cc:Work>
    </rdf:RDF>
  </metadata>
  <sodipodi:namedview
     pagecolor="#ffffff"
     bordercolor="#666666"
     borderopacity="1"
     objecttolerance="10"
     gridtolerance="10"
     guidetolerance="10"
     inkscape:pageopacity="0"
     inkscape:pageshadow="2"
     inkscape:window-width="640"
     inkscape:window-height="480"
     id="namedview1444"
     showgrid="false"
     inkscape:zoom="2.4583333"
     inkscape:cx="48"
     inkscape:cy="48"
     inkscape:current-layer="svg1374" />
  <defs
     id="defs1376">
    <linearGradient
       x2="0"
       y1="90"
       y2="5.988"
       gradientUnits="userSpaceOnUse"
       id="linearGradient14455"
       gradientTransform="matrix(1.0558,0,0,1.0558,-2.846,-4.02)">
      <stop
         stop-color="#2276c5"
         id="stop1379" />
      <stop
         stop-color="#68baf4"
         offset="1"
         id="stop1381" />
    </linearGradient>
    <clipPath
       clipPathUnits="userSpaceOnUse"
       id="clipPath4805-9">
      <rect
         x="-327.7"
         rx="5.582"
         y="968.37"
         height="39.472"
         width="39.472"
         transform="matrix(0.96593 -0.25882 0.25882 0.96593 0 0)"
         id="rect1384" />
    </clipPath>
    <linearGradient
       inkscape:collect="always"
       xlink:href="#linearGradient14231"
       id="linearGradient14237"
       x1="50.707542"
       y1="81.682442"
       x2="50.707542"
       y2="96.539803"
       gradientUnits="userSpaceOnUse" />
    <linearGradient
       inkscape:collect="always"
       id="linearGradient14231">
      <stop
         style="stop-color:#000000;stop-opacity:1;"
         offset="0"
         id="stop14233" />
      <stop
         style="stop-color:#000000;stop-opacity:0;"
         offset="1"
         id="stop14235" />
    </linearGradient>
    <linearGradient
       inkscape:collect="always"
       xlink:href="#linearGradient14239"
       id="linearGradient14245"
       x1="49.876652"
       y1="87.937508"
       x2="49.876652"
       y2="76.719681"
       gradientUnits="userSpaceOnUse" />
    <linearGradient
       inkscape:collect="always"
       id="linearGradient14239">
      <stop
         style="stop-color:#ffffff;stop-opacity:1;"
         offset="0"
         id="stop14241" />
      <stop
         style="stop-color:#ffffff;stop-opacity:0;"
         offset="1"
         id="stop14243" />
    </linearGradient>
  </defs>
  <rect
     style="fill-opacity:0.02000002"
     id="rect1388"
     width="89.620003"
     height="89.980003"
     y="2.9899757"
     rx="12.724"
     x="3.3529999" />
  <rect
     style="fill-opacity:0.03900003"
     id="rect1390"
     width="88.410004"
     height="88.760002"
     y="3.6000221"
     rx="12.552"
     x="3.9590001" />
  <rect
     style="fill-opacity:0.078"
     id="rect1392"
     width="87.199997"
     height="87.550003"
     y="4.2100072"
     rx="12.38"
     x="4.5640001" />
  <rect
     style="fill-opacity:0.15700001"
     id="rect1394"
     width="85.990997"
     height="86.330002"
     y="4.8199925"
     rx="12.208"
     x="5.1700001" />
  <path
     inkscape:connector-curvature="0"
     style="fill:url(#linearGradient14455)"
     id="path1396"
     d="m 17.75,5.4062 c -6.642,0 -11.969,5.3948 -11.969,12.063 l 2e-4,61.031 c 0,6.668 5.3268,12.031 11.969,12.031 l 60.812,0 c 6.642,0 11.969,-5.363 11.969,-12.031 l 0,-61.031 c 0,-6.668 -5.327,-12.063 -11.969,-12.063 l -60.812,2e-4 z" />
  <g
     style="opacity:0.222;fill:#ffffff;fill-opacity:0.21699997;fill-rule:evenodd"
     id="g1402"
     transform="matrix(2.0602,0.55842,-0.55202,2.0841,704.88,-2083.86)"
     clip-path="url(#clipPath4805-9)">
    <rect
       style="color:#000000"
       id="rect1404"
       transform="matrix(-0.96593,-0.25882,-0.25882,0.96593,0,0)"
       width="0.93599999"
       height="56.09"
       y="980"
       x="-231.71001" />
    <rect
       style="color:#000000"
       id="rect1406"
       transform="matrix(-0.96593,-0.25882,-0.25882,0.96593,0,0)"
       width="0.93599999"
       height="56.09"
       y="980"
       x="-243.45" />
    <rect
       style="color:#000000"
       id="rect1408"
       transform="matrix(-0.96593,-0.25882,-0.25882,0.96593,0,0)"
       width="0.93599999"
       height="56.09"
       y="980"
       x="-222.89999" />
    <rect
       style="color:#000000"
       id="rect1410"
       transform="matrix(-0.96593,-0.25882,-0.25882,0.96593,0,0)"
       width="0.93599999"
       height="56.09"
       y="980"
       x="-249.33" />
    <rect
       style="color:#000000"
       id="rect1412"
       transform="matrix(-0.96593,-0.25882,-0.25882,0.96593,0,0)"
       width="0.93599999"
       height="56.09"
       y="980"
       x="-240.52" />
    <rect
       style="color:#000000"
       id="rect1414"
       transform="matrix(-0.96593,-0.25882,-0.25882,0.96593,0,0)"
       width="0.93599999"
       height="56.09"
       y="980"
       x="-211.16" />
    <rect
       style="color:#000000"
       id="rect1416"
       transform="matrix(-0.96593,-0.25882,-0.25882,0.96593,0,0)"
       width="0.93599999"
       height="56.09"
       y="980"
       x="-214.09" />
    <rect
       style="color:#000000"
       id="rect1418"
       transform="matrix(-0.96593,-0.25882,-0.25882,0.96593,0,0)"
       width="0.93599999"
       height="56.09"
       y="980"
       x="-205.28999" />
    <rect
       style="color:#000000"
       id="rect1420"
       transform="matrix(-0.96593,-0.25882,-0.25882,0.96593,0,0)"
       width="0.93599999"
       height="56.09"
       y="980"
       x="-217.03" />
    <rect
       style="color:#000000"
       id="rect1422"
       transform="matrix(-0.96593,-0.25882,-0.25882,0.96593,0,0)"
       width="0.93599999"
       height="56.09"
       y="980"
       x="-225.84" />
    <rect
       style="color:#000000"
       id="rect1424"
       transform="matrix(-0.96593,-0.25882,-0.25882,0.96593,0,0)"
       width="0.93599999"
       height="56.09"
       y="980"
       x="-208.22" />
    <rect
       style="color:#000000"
       id="rect1426"
       transform="matrix(-0.96593,-0.25882,-0.25882,0.96593,0,0)"
       width="0.93599999"
       height="56.09"
       y="980"
       x="-219.97" />
    <rect
       style="color:#000000"
       id="rect1428"
       transform="matrix(-0.96593,-0.25882,-0.25882,0.96593,0,0)"
       width="0.93599999"
       height="56.09"
       y="980"
       x="-234.64999" />
    <rect
       style="color:#000000"
       id="rect1430"
       transform="matrix(-0.96593,-0.25882,-0.25882,0.96593,0,0)"
       width="0.93599999"
       height="56.09"
       y="980"
       x="-246.39" />
    <rect
       style="color:#000000"
       id="rect1432"
       transform="matrix(-0.96593,-0.25882,-0.25882,0.96593,0,0)"
       width="0.93599999"
       height="56.09"
       y="980"
       x="-237.58" />
    <rect
       style="color:#000000"
       id="rect1434"
       transform="matrix(-0.96593,-0.25882,-0.25882,0.96593,0,0)"
       width="0.93599999"
       height="56.09"
       y="980"
       x="-228.77" />
  </g>
  <path
     style="fill:#111111;fill-opacity:0.04599998"
     inkscape:connector-curvature="0"
     id="path1436"
     d="m 36.78683,25.302927 c -1.2115,0 -2.281247,0.452366 -3.143308,1.302573 -0.840633,0.87105 -1.287322,1.954693 -1.287322,3.178398 0,1.223821 0.447991,2.277001 1.287734,3.126375 0.856028,0.865981 1.921259,1.354762 3.14199,1.354762 1.22078,0 2.298719,-0.480828 3.141989,-1.354762 0.863709,-0.852859 1.287718,-1.908673 1.287735,-3.126375 0,-1.217536 -0.423613,-2.303847 -1.287323,-3.178398 -0.848874,-0.858044 -1.931807,-1.302573 -3.141659,-1.302573 z m 23.025103,0 c -1.209885,0 -2.281082,0.452499 -3.141989,1.302656 -0.840501,0.870983 -1.287768,1.954693 -1.287735,3.178398 -2.6e-5,1.223839 0.447975,2.277002 1.287735,3.126375 0.856011,0.865998 1.921258,1.354763 3.141989,1.354763 1.220764,0 2.255699,-0.489699 3.090563,-1.354763 0.855121,-0.844404 1.33921,-1.891498 1.339243,-3.126375 0,-1.234876 -0.482952,-2.31235 -1.340068,-3.178398 C 62.062687,25.75621 61.020961,25.30301 59.811109,25.30301 Z M 22.622988,36.766302 c -0.953261,0 -1.810163,0.311254 -2.47245,0.937913 -0.671467,0.657372 -0.978661,1.552983 -0.978678,2.5011 1.6e-5,0.688136 0.135616,1.333836 0.515094,1.875825 0.364654,0.55331 0.986541,0.988284 1.751319,1.354762 4.496233,2.171288 8.942522,3.810009 13.392437,4.897988 4.472662,1.107603 8.985378,1.615293 13.547048,1.615293 4.52376,-0.01867 8.958181,-0.526715 13.392438,-1.615293 4.452223,-1.069771 8.9834,-2.726199 13.443864,-4.897988 0.69738,-0.342784 1.203424,-0.749946 1.596791,-1.302656 0.424437,-0.564932 0.618063,-1.230708 0.618112,-1.927848 -4.7e-5,-0.445429 -0.04229,-0.89481 -0.257546,-1.354763 l 0.05151,0 c -0.192274,-0.461719 -0.528841,-0.815358 -0.82415,-1.094231 -0.303287,-0.285125 -0.637892,-0.550242 -1.084581,-0.730321 -0.387351,-0.165073 -0.835689,-0.260114 -1.33842,-0.260114 a 0.53782381,0.54405595 0 0 0 -0.05151,0 c -0.657738,0.05861 -1.238055,0.186498 -1.699727,0.468956 -0.01302,0.008 -0.03864,-0.0082 -0.05151,0 -7.972003,3.932896 -15.902633,5.940112 -23.849252,5.940112 -3.94158,0 -7.924532,-0.53205 -12.001602,-1.563187 -4.061412,-1.032121 -8.043704,-2.509437 -12.002921,-4.428615 a 0.53782381,0.54405595 0 0 0 -0.05151,0 c -0.265756,-0.124087 -0.497243,-0.23647 -0.721132,-0.312637 -0.249635,-0.06228 -0.588261,-0.104213 -0.927168,-0.104213 z" />
  <path
     style="fill:#111111;fill-opacity:0.04599998"
     inkscape:connector-curvature="0"
     id="path1438"
     d="m 36.78683,24.156423 c -1.46969,0 -2.86936,0.583106 -3.914712,1.615294 a 1.6507725,1.6699011 0 0 0 -0.05151,0.05211 c -1.020463,1.057498 -1.596791,2.473421 -1.596791,3.960075 0,1.486637 0.578586,2.930122 1.596791,3.960075 1.030187,1.042158 2.463054,1.6674 3.966139,1.6674 1.478608,0 2.88947,-0.632262 3.914712,-1.6674 l 0,-0.05211 0.05151,0 c 1.020298,-1.037123 1.595554,-2.464418 1.595554,-3.908052 0,-1.467646 -0.540642,-2.943628 -1.595554,-4.012098 -1.045022,-1.056632 -2.497175,-1.615377 -3.96581,-1.615377 z m 23.025103,0 c -1.469707,0 -2.869361,0.58309 -3.914712,1.615294 a 1.6507725,1.6699011 0 0 0 -0.05275,0.05202 c -1.020495,1.057498 -1.596824,2.473421 -1.596791,3.960075 -3.1e-5,1.486653 0.578554,2.930122 1.596791,3.960075 1.030171,1.042191 2.463055,1.6674 3.966139,1.6674 1.478048,0 2.863922,-0.657957 3.863286,-1.6674 l 0,-0.05211 0.05151,0 c 0.997898,-1.010894 1.648267,-2.412728 1.6483,-3.908052 -4.1e-5,-1.520619 -0.618178,-2.969973 -1.6483,-4.012098 C 62.70732,24.74188 61.280321,24.15634 59.810697,24.15634 Z M 22.622988,35.619798 c -1.214516,0 -2.391188,0.494751 -3.245173,1.302656 -0.882038,0.86353 -1.339227,2.103759 -1.339243,3.282777 1.9e-5,0.864564 0.273914,1.768611 0.77264,2.5011 0.006,0.009 -0.0061,0.0432 0,0.05211 0.509374,0.744611 1.233127,1.298405 2.111802,1.719423 4.558868,2.201635 9.067299,3.842357 13.598475,4.950178 4.562824,1.129946 9.210371,1.6674 13.85594,1.6674 4.588702,-0.01894 9.145592,-0.565799 13.649902,-1.6674 0.01516,-0.0037 0.03633,0.0037 0.05151,0 4.522935,-1.090613 9.088067,-2.754045 13.598475,-4.950178 0.809546,-0.397908 1.537666,-0.932927 2.060375,-1.6674 0.580251,-0.772323 0.824084,-1.696412 0.82415,-2.605312 -5.4e-5,-0.492884 -0.08607,-1.129947 -0.360566,-1.771613 -0.01335,-0.03101 0.01385,-0.07415 0,-0.104212 -0.285337,-0.616238 -0.715279,-1.057399 -1.030187,-1.354763 -0.356033,-0.33348 -0.83404,-0.741993 -1.443911,-0.988768 -0.466469,-0.19842 -1.043374,-0.36516 -1.750494,-0.36516 a 1.6507725,1.6699011 0 0 0 -0.154529,0 c -0.727658,0.06484 -1.393571,0.240872 -2.060375,0.625275 l 0,-0.05211 c -7.856622,3.883041 -15.659344,5.8359 -23.437177,5.8359 -3.845649,0 -7.748823,-0.50062 -11.744138,-1.511081 -3.980644,-1.011245 -7.896016,-2.48626 -11.795564,-4.376925 a 1.6507725,1.6699011 0 0 0 -0.05151,0 c -0.320924,-0.150066 -0.593058,-0.235103 -0.82382,-0.313471 a 1.6507725,1.6699011 0 0 0 -0.103019,-0.05169 c -0.30988,-0.0767 -0.715032,-0.156735 -1.184633,-0.156735 z" />
  <path
     style="fill:#111111;fill-opacity:0.04599998"
     inkscape:connector-curvature="0"
     id="path1440"
     d="m 36.78683,24.729675 c -1.337166,0 -2.60283,0.519645 -3.554064,1.458975 -0.928652,0.962357 -1.442263,2.24282 -1.442263,3.595248 0,1.352578 0.515094,2.605312 1.442263,3.543225 0.941361,0.952302 2.195041,1.511081 3.554064,1.511081 1.359156,0 2.619808,-0.542772 3.554065,-1.511081 0.956805,-0.944782 1.442246,-2.202969 1.442262,-3.543225 0,-1.34009 -0.4846,-2.625655 -1.442262,-3.595248 -0.944476,-0.95542 -2.216964,-1.458975 -3.553735,-1.458975 z m 23.025103,0 c -1.337167,0 -2.60283,0.519629 -3.554064,1.458975 -0.928686,0.962357 -1.442296,2.24282 -1.442263,3.595248 -2.8e-5,1.352595 0.515061,2.605312 1.442263,3.543225 0.941344,0.952319 2.195041,1.511081 3.554064,1.511081 1.359139,0 2.585523,-0.560646 3.502638,-1.511081 0.939547,-0.927775 1.493739,-2.168287 1.493771,-3.543225 -0.0016,-1.374771 -0.553828,-2.642996 -1.495008,-3.595248 -0.926344,-0.937746 -2.165866,-1.458975 -3.502637,-1.458975 z M 22.62134,36.19305 c -1.081252,0 -2.076858,0.430873 -2.833098,1.146338 a 1.083032,1.0955818 0 0 0 -0.05151,0 c -0.774635,0.758366 -1.13319,1.804627 -1.133206,2.865927 1.7e-5,0.782627 0.222157,1.549381 0.669621,2.188462 0.436207,0.661891 1.07372,1.164429 1.905765,1.563188 4.526891,2.186128 9.005652,3.800338 13.495456,4.897987 4.516837,1.118559 9.098616,1.6674 13.701494,1.6674 4.563813,-0.01884 9.07043,-0.568417 13.547048,-1.6674 4.494255,-1.079875 9.003015,-2.710692 13.495456,-4.897987 0.729439,-0.358541 1.349315,-0.846239 1.802911,-1.458975 l 0.05151,0 c 0.0063,-0.0087 -0.0063,-0.0434 0,-0.05211 0.479705,-0.658539 0.721065,-1.45619 0.721131,-2.240652 -5.1e-5,-0.467339 -0.06466,-1.013095 -0.309056,-1.563187 -0.0064,-0.01517 0.0066,-0.03712 0,-0.05211 l -0.05151,0 c -0.238773,-0.52925 -0.575125,-0.914636 -0.87566,-1.198444 -0.327764,-0.30942 -0.71012,-0.673363 -1.236225,-0.885806 l 0,0.05211 c -0.430206,-0.181747 -0.944476,-0.365161 -1.547753,-0.365161 a 1.083032,1.0955818 0 0 0 -0.103019,0 c -0.687968,0.06131 -1.290784,0.189984 -1.854338,0.521063 -0.03318,0.01949 -0.07028,0.0312 -0.103018,0.05211 -7.887281,3.88104 -15.755441,5.8359 -23.59047,5.8359 -3.894603,0 -7.861567,-0.490082 -11.898748,-1.511081 -4.021852,-1.022117 -7.969531,-2.524444 -11.899078,-4.430282 -0.292903,-0.136727 -0.545422,-0.235104 -0.772723,-0.311804 a 1.083032,1.0955818 0 0 0 -0.103019,0 c -0.279057,-0.07003 -0.627013,-0.156736 -1.030022,-0.156736 z" />
  <path
     style="fill:#dfdfde"
     inkscape:connector-curvature="0"
     id="path1442"
     d="m 36.78683,25.823823 c -1.084301,0 -2.009607,0.384169 -2.781506,1.146337 -0.753504,0.780844 -1.133206,1.716922 -1.133206,2.813738 0,1.096816 0.379702,1.999546 1.133206,2.761548 0.771866,0.780843 1.697255,1.198444 2.781506,1.198444 1.084285,0 2.028069,-0.417601 2.781507,-1.198444 0.771866,-0.762169 1.133206,-1.664816 1.133206,-2.761548 -8e-6,-1.096816 -0.36134,-2.032894 -1.133206,-2.813738 -0.753504,-0.762168 -1.697255,-1.146337 -2.781507,-1.146337 z m 23.025103,0 c -1.084318,0 -2.009607,0.384169 -2.781506,1.146337 -0.75352,0.780844 -1.133223,1.716922 -1.133206,2.813738 -2.3e-5,1.096816 0.379686,1.999546 1.133206,2.761548 0.771849,0.780843 1.697254,1.198444 2.781506,1.198444 1.084268,0 1.976477,-0.417601 2.729915,-1.198444 0.771849,-0.762169 1.184682,-1.664816 1.184715,-2.761548 -2.9e-5,-1.096816 -0.412866,-2.032894 -1.184715,-2.813738 -0.753521,-0.762168 -1.645729,-1.146337 -2.729915,-1.146337 z M 22.622988,37.287198 c -0.827001,0 -1.542149,0.294629 -2.111801,0.8337 -0.569702,0.557745 -0.824134,1.247715 -0.82415,2.08425 1.3e-5,0.594928 0.151172,1.116991 0.463584,1.563187 0.294057,0.446197 0.79542,0.863797 1.493772,1.198444 4.465904,2.156615 8.878733,3.767657 13.289419,4.845798 4.429146,1.096816 8.922907,1.615294 13.443864,1.615294 4.4842,-0.01851 8.897029,-0.536986 13.289419,-1.615294 4.410686,-1.059799 8.860272,-2.689516 13.289418,-4.845798 0.643184,-0.316139 1.111416,-0.681466 1.442263,-1.146337 0.349143,-0.464705 0.515044,-1.020366 0.515094,-1.615294 -4.5e-5,-0.409013 -0.04068,-0.793016 -0.206038,-1.146338 -0.149995,-0.351821 -0.39724,-0.623607 -0.672506,-0.883722 -0.275711,-0.260281 -0.559647,-0.476876 -0.927169,-0.625275 -0.349225,-0.148065 -0.728928,-0.260531 -1.133206,-0.260531 -0.624887,0.05569 -1.144629,0.193752 -1.493772,0.41685 -8.049638,3.978417 -16.108341,5.992302 -24.157485,5.992302 -3.988062,0 -8.039583,-0.522063 -12.156212,-1.563187 C 32.06816,41.093122 28.049604,39.58746 24.062037,37.653276 23.823033,37.54156 23.612875,37.468194 23.392333,37.393161 23.17179,37.338137 22.89537,37.288115 22.619774,37.288115 Z" />
  <g
     id="g14291">
    <path
       d="m 5.2922679,73.685059 0,5.0663 c 0,6.668 5.3645011,12.032 12.0320011,12.032 l 61.049,0 c 6.668,0 12.032,-5.3645 12.032,-12.032 l 0,-5.0663 c 0,6.6681 -5.3645,12.032 -12.032,12.032 l -61.049,0 c -6.668,0 -12.0320011,-5.3643 -12.0320011,-12.032 z"
       id="path64"
       inkscape:connector-curvature="0"
       style="opacity:0.4;fill:url(#linearGradient14237);fill-opacity:1" />
    <path
       inkscape:connector-curvature="0"
       id="path14214"
       d="m 5.2929688,72.717592 0,1.15039 c 0,6.667718 5.3632502,12.031248 12.0312502,12.031248 l 61.048828,0 c 6.6675,0 12.03125,-5.36313 12.03125,-12.031248 l 0,-1.15039 c 0,6.668098 -5.36375,12.031248 -12.03125,12.031248 l -61.048828,0 c -6.668,0 -12.0312502,-5.36355 -12.0312502,-12.031248 z"
       style="opacity:0.5;fill:url(#linearGradient14245);fill-opacity:1" />
  </g>
</svg>
