<?xml version="1.0" encoding="UTF-8" standalone="no"?>
<svg
   xmlns:dc="http://purl.org/dc/elements/1.1/"
   xmlns:cc="http://creativecommons.org/ns#"
   xmlns:rdf="http://www.w3.org/1999/02/22-rdf-syntax-ns#"
   xmlns:svg="http://www.w3.org/2000/svg"
   xmlns="http://www.w3.org/2000/svg"
   xmlns:xlink="http://www.w3.org/1999/xlink"
   xmlns:sodipodi="http://sodipodi.sourceforge.net/DTD/sodipodi-0.dtd"
   xmlns:inkscape="http://www.inkscape.org/namespaces/inkscape"
   height="96"
   width="96"
   id="svg72"
   version="1.1"
   inkscape:version="0.91 r13725"
   sodipodi:docname="evince.svg">
  <metadata
     id="metadata116">
    <rdf:RDF>
      <cc:Work
         rdf:about="">
        <dc:format>image/svg+xml</dc:format>
        <dc:type
           rdf:resource="http://purl.org/dc/dcmitype/StillImage" />
      </cc:Work>
    </rdf:RDF>
  </metadata>
  <sodipodi:namedview
     pagecolor="#ffffff"
     bordercolor="#666666"
     borderopacity="1"
     objecttolerance="10"
     gridtolerance="10"
     guidetolerance="10"
     inkscape:pageopacity="0"
     inkscape:pageshadow="2"
     inkscape:window-width="640"
     inkscape:window-height="480"
     id="namedview114"
     showgrid="false"
     inkscape:zoom="2.4583333"
     inkscape:cx="48"
     inkscape:cy="48"
     inkscape:current-layer="svg72" />
  <defs
     id="defs74">
    <linearGradient
       x1="24.689"
       x2="53.57"
       gradientUnits="userSpaceOnUse"
       id="linearGradient3799"
       gradientTransform="matrix(2.2852,0,0,2.3029,-8.42,-7.437)">
      <stop
         stop-color="#c00"
         id="stop77" />
      <stop
         stop-color="#ffa2a2"
         offset="1"
         id="stop79" />
    </linearGradient>
    <linearGradient
       x2="0"
       y1="90"
       y2="5.988"
       gradientUnits="userSpaceOnUse"
       id="linearGradient6286"
       gradientTransform="matrix(1.1052,0,0,-1.0723,-7.507,97.67)">
      <stop
         stop-color="#e6eef7"
         id="stop82" />
      <stop
         stop-color="#8ab0d8"
         offset="1"
         id="stop84" />
    </linearGradient>
    <linearGradient
       inkscape:collect="always"
       xlink:href="#linearGradient14231"
       id="linearGradient14237"
       x1="50.707542"
       y1="81.682442"
       x2="50.707542"
       y2="96.539803"
       gradientUnits="userSpaceOnUse" />
    <linearGradient
       inkscape:collect="always"
       id="linearGradient14231">
      <stop
         style="stop-color:#000000;stop-opacity:1;"
         offset="0"
         id="stop14233" />
      <stop
         style="stop-color:#000000;stop-opacity:0;"
         offset="1"
         id="stop14235" />
    </linearGradient>
    <linearGradient
       inkscape:collect="always"
       xlink:href="#linearGradient14239"
       id="linearGradient14245"
       x1="49.876652"
       y1="87.937508"
       x2="49.876652"
       y2="76.719681"
       gradientUnits="userSpaceOnUse" />
    <linearGradient
       inkscape:collect="always"
       id="linearGradient14239">
      <stop
         style="stop-color:#ffffff;stop-opacity:1;"
         offset="0"
         id="stop14241" />
      <stop
         style="stop-color:#ffffff;stop-opacity:0;"
         offset="1"
         id="stop14243" />
    </linearGradient>
  </defs>
  <rect
     style="fill-opacity:0.02000002"
     id="rect88"
     width="89.620003"
     height="89.980003"
     y="2.9899757"
     rx="12.724"
     x="3.3529999" />
  <rect
     style="fill-opacity:0.03900003"
     id="rect90"
     width="88.410004"
     height="88.760002"
     y="3.6000221"
     rx="12.552"
     x="3.9590001" />
  <rect
     style="fill-opacity:0.078"
     id="rect92"
     width="87.199997"
     height="87.550003"
     y="4.2100072"
     rx="12.38"
     x="4.5640001" />
  <rect
     style="fill-opacity:0.15700001"
     id="rect94"
     width="85.990997"
     height="86.330002"
     y="4.8199925"
     rx="12.208"
     x="5.1700001" />
  <path
     inkscape:connector-curvature="0"
     style="fill:url(#linearGradient6286)"
     id="path96"
     d="m 17.75,5.4062 c -6.642,0 -11.969,5.3948 -11.969,12.063 l 2e-4,61.031 c 0,6.668 5.3268,12.031 11.969,12.031 l 60.812,0 c 6.642,0 11.969,-5.363 11.969,-12.031 l 0,-61.031 c 0,-6.668 -5.327,-12.063 -11.969,-12.063 l -60.812,2e-4 z" />
  <g
     id="g102"
     transform="translate(0.422,-4.51)">
    <path
       inkscape:connector-curvature="0"
       style="color:#000000;fill:url(#linearGradient3799)"
       id="path104"
       d="M 6,78 C 16.603,68.661 62.335,26.086 50.814,25.146 44.836,24.659 30.834,28.54 24.587,40.321 12.89,62.381 39.259,65.616 50.207,64.281 68.146,61.465 90,49.725 90,49.725 L 89.987,61.704 C 51.54,72.662 27.107,71.205 13.709,58.085 0.674,45.321 31.807,16.513 57.035,19.164 83.082,21.9 6,78 6,78 Z" />
    <path
       style="color:#000000;opacity:0.2"
       inkscape:connector-curvature="0"
       id="path106"
       d="M 54.656,18 C 33.819,17.40398 10.1,36.74 10.656,50.25 11.28186,36.28 36.171,16.965 57.031,19.156 c 3.5215,0.36998 5.1469,1.7311 5.3438,3.7812 C 62.65306,20.3216 61.101,18.5835 57.031,18.156 56.243,18.073 55.455,18.023 54.656,18 Z m -2.031,8.406 C 51.785,31.823 38.512,45.942 26.031,58.188 23.557,56.183 21.892,53.516 21.688,50 c -0.07612,4.0117 1.6414,6.9976 4.3438,9.1875 13.323,-13.074 27.553,-28.316 26.593,-32.782 z M 90,48.719 c 0,0 -21.843,11.746 -39.781,14.562 -5.451,0.665 -14.724,0.172 -21.219,-3.187 -0.25477,0.20936 -0.49649,0.3863 -0.75,0.59375 6.5126,3.7306 16.304,4.2848 21.969,3.5938 C 68.157,61.46455 90,49.71855 90,49.71855 l 0,-1 z M 20.75,63.344 C 14.471,69.353 8.905,74.441 6,77 c 0,0 2.4757,-1.7989 6.2812,-4.6875 2.6963,-2.4855 5.8019,-5.4053 9.1562,-8.625 -0.22578,-0.12049 -0.46569,-0.2192 -0.6875,-0.34375 z" />
    <path
       style="color:#000000;opacity:0.6;fill:#ffffff"
       inkscape:connector-curvature="0"
       id="path108"
       d="m 62.375,23.938 c -0.84874,7.9783 -18.727,24.149 -34.125,36.75 0.24664,0.14128 0.49436,0.27404 0.75,0.40625 15.904,-13.069 34.088,-29.729 33.375,-37.156 z m -12.781,1.1562 c -6.4866,0.06795 -19.144,4.1735 -25,15.219 -2.2341,4.2135 -3.0769,7.7482 -2.9062,10.688 0.05183,-2.7312 0.9188,-5.9392 2.9062,-9.6875 6.2469,-11.782 20.241,-15.644 26.219,-15.156 1.0657,0.08688 1.6534,0.50994 1.8125,1.25 0.20537,-1.3244 -0.33975,-2.1299 -1.8125,-2.25 -0.3736,-0.03046 -0.78631,-0.06703 -1.2188,-0.0625 z m -38.938,26.218 c -0.11492,2.9005 0.82216,5.5875 3.0625,7.7812 2.0773,2.0342 4.4123,3.7794 7.0312,5.25 0.2273,-0.21751 0.45836,-0.43631 0.6875,-0.65625 -2.8916,-1.5431 -5.4655,-3.3873 -7.7188,-5.5938 -1.9797,-1.9386 -2.945,-4.2689 -3.0625,-6.7812 z M 90,61.7192 c -30.552,8.7072 -52.246,9.5314 -66.594,2.9375 -4.2827,3.4186 -8.1156,6.372 -11.125,8.6562 -2.5759,2.374 -4.8102,4.392 -6.281,5.687 0,0 7.708,-5.602 17.406,-13.344 14.348,6.594 36.042,5.77 66.594,-2.937 l 0,-1 z" />
    <path
       style="color:#000000;opacity:0.2;fill:#550000"
       inkscape:connector-curvature="0"
       id="path110"
       d="M 52.312,19 C 28.133,19.977 1.486,46.115 13.719,58.094 c 2.253,2.206 4.827,4.05 7.719,5.594 C 14.878,69.983 9.01,75.349 6,78 6,78 13.708,72.398 23.406,64.656 37.754,71.25 59.448,70.426 90,61.719 l 0,-1.8438 -2.4062,0.4375 c -0.0099,0.0027 -0.02137,-0.0027 -0.03125,0 -29.346,8.131 -49.995,8.59 -63.313,2.437 a 1.9744,1.9744 0 0 0 -1.062,-0.156 1.9744,1.9744 0 0 0 -0.782,-0.782 c -2.7636,-1.4822 -5.259,-3.1142 -7.3125,-5.125 -2.5433,-2.4904 -3.0172,-5.4045 -2,-9.0625 1.017,-3.657 3.755,-7.879 7.656,-11.78 7.802,-7.804 20.191,-14.359 31.594,-14.844 0.76634,-0.0326 1.5072,-0.05145 2.25,-0.03125 0.74284,0.0202 1.4877,0.07944 2.2188,0.15625 1.8077,0.18992 2.7932,0.65178 3.1875,1.0312 0.39432,0.37948 0.51634,0.71872 0.40625,1.625 -0.221,1.813 -2.159,5.303 -5.407,9.219 -4.093,4.936 -10.179,10.636 -16.594,16.312 3.8741,-4.0742 7.4412,-8.0225 10.219,-11.5 2.6424,-3.3083 4.6127,-6.1071 5.5312,-8.5625 0.45926,-1.2277 0.75478,-2.4669 0.21875,-3.8125 -0.53603,-1.3456 -2.0486,-2.1393 -3.4062,-2.25 -3.5341,-0.28813 -8.6798,0.64012 -14,3.1562 -5.3202,2.51608 -10.758,6.6803 -14.125,13.031 -2.5706,4.8481 -3.4659,9.035 -2.9688,12.625 0.49718,3.59 2.4359,6.453 4.9688,8.5312 a 1.9744,1.9744 0 0 0 1.5312,0.40625 1.9744,1.9744 0 0 0 0.96875,1.4062 c 7.1672,4.1071 17.05,4.6473 23.125,3.9062 a 1.9744,1.9744 0 0 0 0.0625,-0.03125 c 16.458,-2.583 33.417,-11.225 37.468,-13.343 l 0,-0.03125 0.03125,0 1.9688,-1.0625 0,-2.0625 c 0,0 -21.843,11.746 -39.781,14.562 -5.665,0.691 -15.456,0.137 -21.969,-3.593 20.447,-16.732 45.265,-39.8 28.781,-41.532 -0.788,-0.083 -1.576,-0.133 -2.375,-0.156 -0.773,-0.022 -1.564,-0.032 -2.344,0 z m -2.7188,6.0938 c 0.43244,-0.0045 0.84515,0.03204 1.2188,0.0625 7.4959,0.61113 -9.2491,18.791 -24.781,34.031 -4.5421,-3.6808 -6.3442,-9.6211 -1.4375,-18.875 5.8565,-11.045 18.513,-15.151 25,-15.219 z" />
    <path
       style="color:#000000;opacity:0.4;fill:#550000"
       inkscape:connector-curvature="0"
       id="path112"
       d="M 54.656,19 C 33.819,18.40398 10.1,37.74 10.656,51.25 11.28186,37.28 36.171,17.965 57.031,20.156 c 3.5215,0.36998 5.1469,1.7311 5.3438,3.7812 C 62.65306,21.3216 61.101,19.5835 57.031,19.156 56.243,19.073 55.455,19.023 54.656,19 Z m -2.031,8.406 C 51.785,32.823 38.512,46.942 26.031,59.188 23.557,57.183 21.892,54.516 21.688,51 c -0.07612,4.0117 1.6414,6.9976 4.3438,9.1875 13.323,-13.074 27.553,-28.316 26.593,-32.782 z M 90,49.719 c 0,0 -21.843,11.746 -39.781,14.562 -5.451,0.665 -14.724,0.172 -21.219,-3.187 -0.25477,0.20936 -0.49649,0.3863 -0.75,0.59375 6.5126,3.7306 16.304,4.2848 21.969,3.5938 C 68.157,62.46455 90,50.71855 90,50.71855 l 0,-1 z M 20.75,64.344 C 14.471,70.353 8.905,75.441 6,78 c 0,0 2.4757,-1.7989 6.2812,-4.6875 2.6963,-2.4855 5.8019,-5.4053 9.1562,-8.625 -0.22578,-0.12049 -0.46569,-0.2192 -0.6875,-0.34375 z" />
  </g>
  <g
     id="g14291">
    <path
       d="m 5.2922679,73.685059 0,5.0663 c 0,6.668 5.3645011,12.032 12.0320011,12.032 l 61.049,0 c 6.668,0 12.032,-5.3645 12.032,-12.032 l 0,-5.0663 c 0,6.6681 -5.3645,12.032 -12.032,12.032 l -61.049,0 c -6.668,0 -12.0320011,-5.3643 -12.0320011,-12.032 z"
       id="path64"
       inkscape:connector-curvature="0"
       style="opacity:0.4;fill:url(#linearGradient14237);fill-opacity:1" />
    <path
       inkscape:connector-curvature="0"
       id="path14214"
       d="m 5.2929688,72.717592 0,1.15039 c 0,6.667718 5.3632502,12.031248 12.0312502,12.031248 l 61.048828,0 c 6.6675,0 12.03125,-5.36313 12.03125,-12.031248 l 0,-1.15039 c 0,6.668098 -5.36375,12.031248 -12.03125,12.031248 l -61.048828,0 c -6.668,0 -12.0312502,-5.36355 -12.0312502,-12.031248 z"
       style="opacity:0.5;fill:url(#linearGradient14245);fill-opacity:1" />
  </g>
</svg>
