<?xml version="1.0" encoding="UTF-8" standalone="no"?>
<svg
   xmlns:dc="http://purl.org/dc/elements/1.1/"
   xmlns:cc="http://creativecommons.org/ns#"
   xmlns:rdf="http://www.w3.org/1999/02/22-rdf-syntax-ns#"
   xmlns:svg="http://www.w3.org/2000/svg"
   xmlns="http://www.w3.org/2000/svg"
   xmlns:xlink="http://www.w3.org/1999/xlink"
   xmlns:sodipodi="http://sodipodi.sourceforge.net/DTD/sodipodi-0.dtd"
   xmlns:inkscape="http://www.inkscape.org/namespaces/inkscape"
   height="96"
   width="96"
   id="svg118"
   version="1.1"
   inkscape:version="0.91 r13725"
   sodipodi:docname="evolution-calendar.svg">
  <metadata
     id="metadata206">
    <rdf:RDF>
      <cc:Work
         rdf:about="">
        <dc:format>image/svg+xml</dc:format>
        <dc:type
           rdf:resource="http://purl.org/dc/dcmitype/StillImage" />
      </cc:Work>
    </rdf:RDF>
  </metadata>
  <sodipodi:namedview
     pagecolor="#ffffff"
     bordercolor="#666666"
     borderopacity="1"
     objecttolerance="10"
     gridtolerance="10"
     guidetolerance="10"
     inkscape:pageopacity="0"
     inkscape:pageshadow="2"
     inkscape:window-width="640"
     inkscape:window-height="480"
     id="namedview204"
     showgrid="false"
     inkscape:zoom="2.4583333"
     inkscape:cx="48"
     inkscape:cy="48"
     inkscape:current-layer="svg118" />
  <defs
     id="defs120">
    <linearGradient
       id="linearGradient3804">
      <stop
         stop-color="#fff"
         id="stop123" />
      <stop
         stop-color="#fff"
         stop-opacity="0"
         offset="1"
         id="stop125" />
    </linearGradient>
    <clipPath
       id="clipPath3800">
      <path
         d="m62 6c-3.324 0-6 2.676-6 6v0.53125c0-3.6103 2.921-6.531 6.531-6.531h-0.531zm71.469 0c3.61 0 6.53 2.9207 6.53 6.531v-0.531c0-3.324-2.676-6-6-6h-0.53125zm6.53 6.531c0 36.735-3.5426 60.105-7.8438 69.938-10.82 5.031-35.68 7.531-69.629 7.531h71.469c3.324 0 6-2.676 6-6v-71.469zm-77.469 77.469c-3.61-0.006-6.531-2.921-6.531-6.531v0.531c0 3.324 2.676 6 6 6h0.53125z"
         id="path128" />
    </clipPath>
    <filter
       color-interpolation-filters="sRGB"
       id="filter3810">
      <feGaussianBlur
         stdDeviation="1.26001"
         id="feGaussianBlur131" />
    </filter>
    <linearGradient
       x1="82.08"
       x2="59.61"
       xlink:href="#linearGradient3804"
       y1="82.29"
       y2="59.821"
       gradientUnits="userSpaceOnUse"
       id="linearGradient5300"
       gradientTransform="matrix(1.0059,0,0,1.0888,-0.119,-15.43)" />
    <linearGradient
       x2="0"
       xlink:href="#linearGradient3804"
       y1="32.03"
       y2="68.03"
       gradientUnits="userSpaceOnUse"
       id="linearGradient5307"
       gradientTransform="matrix(1.0059,0,0,1.0888,-0.119,-15.43)" />
    <linearGradient
       x1="38.41"
       x2="110.99"
       y1="39.834"
       y2="112.41"
       gradientUnits="userSpaceOnUse"
       id="linearGradient5311"
       gradientTransform="matrix(0.71606,0,0,0.77505,2.336,-12.773)">
      <stop
         stop-color="#fff"
         stop-opacity="0"
         id="stop136" />
      <stop
         stop-color="#d7d7d7"
         offset="0.503"
         id="stop138" />
      <stop
         stop-color="#ccc"
         offset="0.765"
         id="stop140" />
      <stop
         stop-color="#d7d7d7"
         offset="0.912"
         id="stop142" />
      <stop
         stop-color="#fff"
         offset="1"
         id="stop144" />
    </linearGradient>
    <linearGradient
       x2="0"
       y1="90"
       y2="5.988"
       gradientUnits="userSpaceOnUse"
       id="linearGradient5318"
       gradientTransform="matrix(1.0059,0,0,1.0888,-0.119,-15.43)">
      <stop
         stop-color="#f0f0f0"
         id="stop147" />
      <stop
         stop-color="#fff"
         offset="1"
         id="stop149" />
    </linearGradient>
    <path
       d="m21.594 929.37v9.2917c0 0.89987-0.12557 3.0345-3.1182 3.0345-0.43947 0-0.89988-0.0419-1.3394-0.1465l-0.43948-0.10463-0.41855 2.2602 0.37669 0.10464c0.6906 0.16742 1.4021 0.25113 2.1137 0.25113 4.8133 0 5.3993-3.1182 5.3993-5.3993v-9.2917h-2.5741"
       id="SVGCleanerId_0" />
    <path
       d="m31.421 929.37-5.4411 14.524h2.5113l1.444-3.8088h5.3365l1.4649 3.8088h2.6578l-5.4411-14.524h-2.5322m3.0345 8.3709h-3.7041l1.8625-5.3993 1.8416 5.3993"
       id="SVGCleanerId_1" />
    <path
       d="m41.441 929.37v14.524h2.5741v-10.799l6.9688 10.799h3.1391v-14.524h-2.5741v10.778l-7.0107-10.778h-3.0972"
       id="SVGCleanerId_2" />
    <linearGradient
       inkscape:collect="always"
       xlink:href="#linearGradient14231"
       id="linearGradient14237"
       x1="50.707542"
       y1="81.682442"
       x2="50.707542"
       y2="96.539803"
       gradientUnits="userSpaceOnUse" />
    <linearGradient
       inkscape:collect="always"
       id="linearGradient14231">
      <stop
         style="stop-color:#000000;stop-opacity:1;"
         offset="0"
         id="stop14233" />
      <stop
         style="stop-color:#000000;stop-opacity:0;"
         offset="1"
         id="stop14235" />
    </linearGradient>
    <linearGradient
       inkscape:collect="always"
       xlink:href="#linearGradient3804"
       id="linearGradient14245"
       x1="49.876652"
       y1="87.937508"
       x2="49.876652"
       y2="76.719681"
       gradientUnits="userSpaceOnUse" />
  </defs>
  <rect
     style="fill-opacity:0.02000002"
     id="rect156"
     width="89.620003"
     height="89.980003"
     y="2.9899757"
     rx="12.724"
     x="3.3529999" />
  <rect
     style="fill-opacity:0.03900003"
     id="rect158"
     width="88.410004"
     height="88.760002"
     y="3.6000221"
     rx="12.552"
     x="3.9590001" />
  <rect
     style="fill-opacity:0.078"
     id="rect160"
     width="87.199997"
     height="87.550003"
     y="4.2100072"
     rx="12.38"
     x="4.5640001" />
  <rect
     style="fill-opacity:0.15700001"
     id="rect162"
     width="85.990997"
     height="86.330002"
     y="4.8199925"
     rx="12.208"
     x="5.1700001" />
  <path
     style="fill:#e6e6e6"
     inkscape:connector-curvature="0"
     id="path164"
     d="m 17.75,5.4062 c -6.642,0 -11.969,5.3948 -11.969,12.063 l 2e-4,61.031 c 0,6.668 5.3268,12.031 11.969,12.031 l 60.812,0 c 6.642,0 11.969,-5.363 11.969,-12.031 l 0,-61.031 c 0,-6.668 -5.327,-12.063 -11.969,-12.063 l -60.812,2e-4 z" />
  <path
     inkscape:connector-curvature="0"
     style="fill:url(#linearGradient5318)"
     id="path168"
     d="m 17.75,5.4062 c -6.088,0 -11.055,4.5461 -11.844,10.438 l 2e-4,60.187 c 0,3.619 2.6877,6.531 6.0318,6.531 l 72.437,0 c 3.344,0 6.031,-2.912 6.031,-6.531 l 0,-60.187 C 89.618,9.9525 84.651,5.4062 78.562,5.4062 l -60.812,2e-4 z" />
  <path
     style="opacity:0.5;fill:#4d4d4d;filter:url(#filter3810)"
     inkscape:connector-curvature="0"
     id="path172"
     transform="matrix(1.0059,0,0,1.0888,-50.41,-15.43)"
     clip-path="url(#clipPath3800)"
     d="m 56,83.483 c 0,3.6105 2.9067,6.5117 6.5172,6.5172 33.948,0 61.157,0.16315 73.402,-3.7963 25.12,-103.09 -79.92,-119.17 -79.92,-2.721 z" />
  <path
     inkscape:connector-curvature="0"
     style="opacity:0.8;fill:url(#linearGradient5311)"
     id="path174"
     d="m 17.75,5.4062 c -6.088,0 -11.055,4.5461 -11.844,10.438 l 2e-4,59.594 c 0,3.93 2.962,7.118 6.5938,7.124 34.148,0 59.151,-2.71 70.031,-8.187 3.7,-9.154 6.823,-29.131 7.657,-59.719 C 88.937,9.348 84.239,5.4064 78.562,5.4064 l -60.812,0 z" />
  <path
     inkscape:connector-curvature="0"
     style="opacity:0.8;fill:url(#linearGradient5307)"
     id="path176"
     d="m 5.9159,15.06 84.495,0 c 0,0 -0.50806,20.729 -4.0644,43.688 l -80.431,-0.1375 0,-43.551 z" />
  <path
     inkscape:connector-curvature="0"
     style="opacity:0.5;fill:url(#linearGradient5300)"
     id="path178"
     d="m 87.959,-7.33 c 0.90031,1.2147 1.446,2.7717 1.446,4.4571 0,39.995 -3.5635,65.44 -7.89,76.146 -10.88,5.4773 -35.887,8.1996 -70.035,8.1996 -1.5571,0 -2.9957,-0.591 -4.1179,-1.5651 1.1995,1.6174 3.0491,2.6506 5.1238,2.6539 34.148,0 59.155,-2.7223 70.035,-8.1996 4.3265,-10.706 7.89,-36.15 7.89,-76.146 0,-2.2456 -0.95668,-4.2475 -2.4519,-5.5459 z" />
  <path
     style="opacity:0.1"
     inkscape:connector-curvature="0"
     id="path180"
     d="m 90.379,5.57 c -0.40768,35.77 -3.8038,58.763 -7.8585,68.797 -10.2,5.135 -32.821,7.8448 -63.748,8.1657 31.047,-0.1088 55.003,-1.0956 65.194,-6.2265 4.0561,-10.036 6.1646,-34.732 6.4126,-70.736 z" />
  <path
     style="opacity:0.8"
     inkscape:connector-curvature="0"
     id="path182"
     d="m 46.304,53.14 c -2e-5,3.0335 -0.2567,5.594 -0.77002,7.6814 -0.51338,2.0725 -1.2279,3.7545 -2.1436,5.0459 -0.90186,1.2765 -1.9771,2.2001 -3.2258,2.7707 -1.2348,0.5558 -2.5876,0.8335 -4.0583,0.8335 -1.4707,0 -2.8234,-0.2777 -4.0583,-0.8335 -1.2348,-0.5556 -2.2962,-1.4717 -3.1842,-2.7482 -0.88796,-1.2914 -1.5817,-2.9734 -2.0812,-5.0458 -0.49948,-2.0874 -0.74922,-4.6554 -0.74922,-7.704 0,-3.1987 0.2428,-5.8418 0.72841,-7.9292 0.49947,-2.1025 1.2001,-3.7769 2.102,-5.0235 0.90183,-1.2464 1.9771,-2.1174 3.2258,-2.613 1.2626,-0.51054 2.6569,-0.76583 4.1831,-0.76587 1.429,4e-5 2.7541,0.25533 3.975,0.76587 1.2348,0.4956 2.2962,1.3666 3.1842,2.613 0.90181,1.2466 1.6025,2.921 2.102,5.0235 0.51332,2.0874 0.77,4.7305 0.77002,7.9292 m -5.8689,0 c -10e-6,-2.2375 -0.07635,-4.0847 -0.22892,-5.5414 -0.15263,-1.4718 -0.39545,-2.6355 -0.72841,-3.4916 -0.333,-0.87095 -0.77005,-1.4793 -1.3111,-1.8246 -0.52724,-0.34536 -1.1724,-0.51815 -1.9355,-0.51815 -0.8186,0 -1.5054,0.1803 -2.0603,0.54069 -0.55498,0.34536 -1.0059,0.95356 -1.3528,1.82456 -0.333,0.871 -0.57579,2.0423 -0.72841,3.5141 -0.13875,1.4567 -0.20813,3.289 -0.20812,5.4964 -1e-5,2.1775 0.07625,3.9947 0.22893,5.4513 0.1526,1.4568 0.39542,2.6281 0.72841,3.5141 0.33297,0.8711 0.77002,1.4868 1.3111,1.8473 0.54108,0.3604 1.2071,0.5406 1.9979,0.5406 0.76307,0 1.4152,-0.1802 1.9563,-0.5406 0.54109,-0.3605 0.98506,-0.9762 1.3319,-1.8473 0.34685,-0.886 0.5966,-2.0573 0.74923,-3.5141 0.16648,-1.4566 0.24972,-3.2738 0.24973,-5.4513" />
  <path
     style="opacity:0.8"
     inkscape:connector-curvature="0"
     id="path184"
     d="m 53.48,69.54 0,-4.8449 5.7493,0 0,-21.344 -5.5137,4.8914 0,-6.0569 5.835,-5.3086 5.697,0 0,27.818 5.1925,0 0,4.8449 -16.96,0" />
  <path
     style="fill:#d40000"
     inkscape:connector-curvature="0"
     id="path186"
     d="m 17.75,5.4062 c -6.6418,0 -11.969,5.3946 -11.969,12.062 l 0,11.031 84.75,0 0,-11.031 c 0,-6.6679 -5.327,-12.062 -11.969,-12.062 z" />
  <g
     style="fill:#999999"
     id="g188"
     transform="matrix(1.0051,0,0,0.99418,12.75,-913.865)">
    <use
       height="100%"
       width="100%"
       y="0"
       x="0"
       id="use190"
       xlink:href="#SVGCleanerId_0" />
    <use
       height="100%"
       width="100%"
       y="0"
       x="0"
       id="use192"
       xlink:href="#SVGCleanerId_1" />
    <use
       height="100%"
       width="100%"
       y="0"
       x="0"
       id="use194"
       xlink:href="#SVGCleanerId_2" />
  </g>
  <g
     style="fill:#f2f2f2"
     id="g196"
     transform="matrix(1.0051,0,0,0.99418,12.163,-914.369)">
    <use
       height="100%"
       width="100%"
       y="0"
       x="0"
       id="use198"
       xlink:href="#SVGCleanerId_0" />
    <use
       height="100%"
       width="100%"
       y="0"
       x="0"
       id="use200"
       xlink:href="#SVGCleanerId_1" />
    <use
       height="100%"
       width="100%"
       y="0"
       x="0"
       id="use202"
       xlink:href="#SVGCleanerId_2" />
  </g>
  <g
     id="g14291">
    <path
       d="m 5.2922679,73.685059 0,5.0663 c 0,6.668 5.3645011,12.032 12.0320011,12.032 l 61.049,0 c 6.668,0 12.032,-5.3645 12.032,-12.032 l 0,-5.0663 c 0,6.6681 -5.3645,12.032 -12.032,12.032 l -61.049,0 c -6.668,0 -12.0320011,-5.3643 -12.0320011,-12.032 z"
       id="path64"
       inkscape:connector-curvature="0"
       style="opacity:0.4;fill:url(#linearGradient14237);fill-opacity:1" />
    <path
       inkscape:connector-curvature="0"
       id="path14214"
       d="m 5.2929688,72.717592 0,1.15039 c 0,6.667718 5.3632502,12.031248 12.0312502,12.031248 l 61.048828,0 c 6.6675,0 12.03125,-5.36313 12.03125,-12.031248 l 0,-1.15039 c 0,6.668098 -5.36375,12.031248 -12.03125,12.031248 l -61.048828,0 c -6.668,0 -12.0312502,-5.36355 -12.0312502,-12.031248 z"
       style="opacity:0.5;fill:url(#linearGradient14245);fill-opacity:1" />
  </g>
</svg>
