<?xml version="1.0" encoding="UTF-8" standalone="no"?>
<svg
   xmlns:dc="http://purl.org/dc/elements/1.1/"
   xmlns:cc="http://creativecommons.org/ns#"
   xmlns:rdf="http://www.w3.org/1999/02/22-rdf-syntax-ns#"
   xmlns:svg="http://www.w3.org/2000/svg"
   xmlns="http://www.w3.org/2000/svg"
   xmlns:xlink="http://www.w3.org/1999/xlink"
   xmlns:sodipodi="http://sodipodi.sourceforge.net/DTD/sodipodi-0.dtd"
   xmlns:inkscape="http://www.inkscape.org/namespaces/inkscape"
   height="96"
   width="96"
   id="svg553"
   version="1.1"
   inkscape:version="0.91 r13725"
   sodipodi:docname="exaile.svg">
  <metadata
     id="metadata590">
    <rdf:RDF>
      <cc:Work
         rdf:about="">
        <dc:format>image/svg+xml</dc:format>
        <dc:type
           rdf:resource="http://purl.org/dc/dcmitype/StillImage" />
      </cc:Work>
    </rdf:RDF>
  </metadata>
  <sodipodi:namedview
     pagecolor="#ffffff"
     bordercolor="#666666"
     borderopacity="1"
     objecttolerance="10"
     gridtolerance="10"
     guidetolerance="10"
     inkscape:pageopacity="0"
     inkscape:pageshadow="2"
     inkscape:window-width="640"
     inkscape:window-height="480"
     id="namedview588"
     showgrid="false"
     inkscape:zoom="2.4583333"
     inkscape:cx="80.542373"
     inkscape:cy="48"
     inkscape:current-layer="svg553" />
  <defs
     id="defs555">
    <radialGradient
       cy="6"
       r="42"
       gradientUnits="userSpaceOnUse"
       id="radialGradient6044"
       cx="6"
       gradientTransform="matrix(1.0465,0,0,-1.0558,-1.56,98.69)">
      <stop
         stop-color="#74c332"
         id="stop558" />
      <stop
         stop-color="#9ecd5e"
         offset="1"
         id="stop560" />
    </radialGradient>
    <linearGradient
       inkscape:collect="always"
       xlink:href="#linearGradient14231"
       id="linearGradient14237"
       x1="50.707542"
       y1="81.682442"
       x2="50.707542"
       y2="96.539803"
       gradientUnits="userSpaceOnUse" />
    <linearGradient
       inkscape:collect="always"
       id="linearGradient14231">
      <stop
         style="stop-color:#000000;stop-opacity:1;"
         offset="0"
         id="stop14233" />
      <stop
         style="stop-color:#000000;stop-opacity:0;"
         offset="1"
         id="stop14235" />
    </linearGradient>
    <linearGradient
       inkscape:collect="always"
       xlink:href="#linearGradient14239"
       id="linearGradient14245"
       x1="49.876652"
       y1="87.937508"
       x2="49.876652"
       y2="76.719681"
       gradientUnits="userSpaceOnUse" />
    <linearGradient
       inkscape:collect="always"
       id="linearGradient14239">
      <stop
         style="stop-color:#ffffff;stop-opacity:1;"
         offset="0"
         id="stop14241" />
      <stop
         style="stop-color:#ffffff;stop-opacity:0;"
         offset="1"
         id="stop14243" />
    </linearGradient>
  </defs>
  <rect
     style="fill-opacity:0.02000002"
     id="rect564"
     width="89.620003"
     height="89.980003"
     y="2.9899757"
     rx="12.724"
     x="3.3529999" />
  <rect
     style="fill-opacity:0.03900003"
     id="rect566"
     width="88.410004"
     height="88.760002"
     y="3.6000221"
     rx="12.552"
     x="3.9590001" />
  <rect
     style="fill-opacity:0.078"
     id="rect568"
     width="87.199997"
     height="87.550003"
     y="4.2100072"
     rx="12.38"
     x="4.5640001" />
  <rect
     style="fill-opacity:0.15700001"
     id="rect570"
     width="85.990997"
     height="86.330002"
     y="4.8199925"
     rx="12.208"
     x="5.1700001" />
  <path
     inkscape:connector-curvature="0"
     style="fill:url(#radialGradient6044)"
     id="path572"
     d="m 17.75,5.4062 c -6.642,0 -11.969,5.3948 -11.969,12.063 l 2e-4,61.031 c 0,6.668 5.3268,12.031 11.969,12.031 l 60.812,0 c 6.642,0 11.969,-5.363 11.969,-12.031 l 0,-61.031 c 0,-6.668 -5.327,-12.063 -11.969,-12.063 l -60.812,2e-4 z" />
  <path
     style="opacity:0.07999998;fill:#2d5016;fill-rule:evenodd"
     inkscape:connector-curvature="0"
     id="path578"
     d="m 31.27,75.34 c -0.86515,0.047 -2.1552,0.02 -3.4136,-0.6916 -1.1533,-0.653 -1.9058,-1.6267 -2.3719,-2.562 -0.44658,-0.8961 -0.68935,-1.7479 -0.9135,-2.5463 -0.5077,-1.8084 -0.87464,-3.9629 -1.1699,-6.4287 -0.59069,-4.9324 -0.86542,-11.107 -0.86542,-17.274 0,-6.1664 0.27481,-12.326 0.86542,-17.258 0.29529,-2.4658 0.66223,-4.6203 1.1699,-6.4287 0.22415,-0.79841 0.46693,-1.6502 0.9135,-2.5463 0.46608,-0.93521 1.2186,-1.909 2.3719,-2.562 1.1424,-0.64688 2.3668,-0.82454 3.4457,-0.75447 1.038,0.0674 1.9249,0.31449 2.7245,0.5187 1.8552,0.4738 3.944,1.2358 6.2663,2.2162 4.6456,1.9612 10.223,4.8058 15.674,7.8904 5.4511,3.0851 10.738,6.4054 14.792,9.3679 2.0226,1.4779 3.7604,2.8528 5.1124,4.1967 0.5974,0.5938 1.2443,1.2303 1.811,2.059 0.60226,0.88072 1.0577,2.01297 1.0577,3.30057 0,2.3891 -1.5256,3.9911 -2.6123,5.1084 -1.2235,1.2579 -2.7882,2.5446 -4.6156,3.9137 -3.6643,2.7453 -8.4704,5.8009 -13.526,8.7392 -5.0584,2.9398 -10.355,5.7472 -15.001,7.8747 -4.6032,2.108 -8.3584,3.6861 -11.715,3.8666 z" />
  <path
     style="opacity:0.1;fill:#2d5016;fill-rule:evenodd"
     inkscape:connector-curvature="0"
     id="path580"
     d="m 31.19,74.04 c -0.76484,0.042 -1.746,0.012 -2.6764,-0.5188 -0.86934,-0.4922 -1.4642,-1.2517 -1.843,-2.0118 -0.37883,-0.7602 -0.59288,-1.5268 -0.81735,-2.3263 -0.4798,-1.709 -0.84732,-3.8138 -1.1379,-6.24 -0.58113,-4.8526 -0.8494,-10.988 -0.8494,-17.117 0,-6.1293 0.26831,-12.249 0.8494,-17.101 0.29056,-2.4262 0.65808,-4.531 1.1379,-6.24 0.22447,-0.79952 0.43852,-1.5661 0.81735,-2.3263 0.37883,-0.76013 0.9737,-1.5196 1.843,-2.0119 0.86718,-0.49103 1.8476,-0.63748 2.7085,-0.58156 0.86086,0.0559 1.6478,0.27776 2.4681,0.48725 1.7525,0.44757 3.7878,1.1882 6.074,2.1534 4.5739,1.931 10.131,4.7473 15.546,7.8118 5.4153,3.0648 10.672,6.372 14.664,9.2893 1.9953,1.4579 3.68,2.8064 4.9522,4.071 0.59517,0.59159 1.1695,1.1667 1.6507,1.8704 0.48125,0.70371 0.83337,1.59331 0.83337,2.57761 0,1.8526 -1.1717,3.1103 -2.2437,4.2124 -1.1442,1.1765 -2.6568,2.4249 -4.4553,3.7724 -3.5975,2.6952 -8.3729,5.7402 -13.398,8.6605 -5.0271,2.9215 -10.297,5.7094 -14.889,7.8119 -4.5753,2.0952 -8.2714,3.5973 -11.235,3.7566 z" />
  <path
     style="opacity:0.15;fill:#2d5016;fill-rule:evenodd"
     inkscape:connector-curvature="0"
     id="path582"
     d="m 31.11,72.64 c -0.65279,0.035 -1.2672,0 -1.843,-0.33 -1.1733,-0.6643 -1.5244,-1.8662 -1.9712,-3.4579 -0.44687,-1.5918 -0.80457,-3.6382 -1.0898,-6.02 -0.57046,-4.7634 -0.8494,-10.859 -0.8494,-16.944 0,-6.0852 0.27894,-12.165 0.8494,-16.928 0.28523,-2.3817 0.64292,-4.4283 1.0898,-6.02 0.44687,-1.5917 0.7979,-2.7936 1.9712,-3.458 1.1733,-0.66437 2.4095,-0.36891 4.0387,0.0472 1.6291,0.41607 3.6196,1.1423 5.8657,2.0905 4.4922,1.8965 10.011,4.6915 15.385,7.7332 5.3745,3.0417 10.598,6.3295 14.52,9.195 1.9609,1.4328 3.5936,2.7543 4.7759,3.9295 1.1823,1.1752 2.0674,2.0819 2.0674,3.4106 0,1.2461 -0.78677,2.1047 -1.843,3.1909 -1.0563,1.086 -2.5184,2.3118 -4.2791,3.6307 -3.5214,2.6382 -8.264,5.6664 -13.254,8.5664 -4.9898,2.8998 -10.229,5.6582 -14.76,7.7332 -4.5312,2.075 -8.2158,3.4988 -10.674,3.6308 z" />
  <path
     style="opacity:0.3;fill:#2d5016;fill-rule:evenodd"
     inkscape:connector-curvature="0"
     id="path584"
     d="m 29.806,20.36 c -4.502,2.5492 -4.502,48.435 0,50.984 4.502,2.5492 45.02,-20.394 45.02,-25.492 0,-5.0982 -40.518,-28.041 -45.02,-25.492 z" />
  <path
     style="fill:#f9f9f9;fill-rule:evenodd"
     inkscape:connector-curvature="0"
     id="path586"
     d="m 29.806,19.21 c -4.502,2.5492 -4.502,48.435 0,50.984 4.502,2.5492 45.02,-20.394 45.02,-25.492 0,-5.0983 -40.518,-28.041 -45.02,-25.492 z" />
  <g
     id="g14291">
    <path
       d="m 5.2922679,73.685059 0,5.0663 c 0,6.668 5.3645011,12.032 12.0320011,12.032 l 61.049,0 c 6.668,0 12.032,-5.3645 12.032,-12.032 l 0,-5.0663 c 0,6.6681 -5.3645,12.032 -12.032,12.032 l -61.049,0 c -6.668,0 -12.0320011,-5.3643 -12.0320011,-12.032 z"
       id="path64"
       inkscape:connector-curvature="0"
       style="opacity:0.4;fill:url(#linearGradient14237);fill-opacity:1" />
    <path
       inkscape:connector-curvature="0"
       id="path14214"
       d="m 5.2929688,72.717592 0,1.15039 c 0,6.667718 5.3632502,12.031248 12.0312502,12.031248 l 61.048828,0 c 6.6675,0 12.03125,-5.36313 12.03125,-12.031248 l 0,-1.15039 c 0,6.668098 -5.36375,12.031248 -12.03125,12.031248 l -61.048828,0 c -6.668,0 -12.0312502,-5.36355 -12.0312502,-12.031248 z"
       style="opacity:0.5;fill:url(#linearGradient14245);fill-opacity:1" />
  </g>
</svg>
