<?xml version="1.0" encoding="UTF-8" standalone="no"?>
<svg
   xmlns:dc="http://purl.org/dc/elements/1.1/"
   xmlns:cc="http://creativecommons.org/ns#"
   xmlns:rdf="http://www.w3.org/1999/02/22-rdf-syntax-ns#"
   xmlns:svg="http://www.w3.org/2000/svg"
   xmlns="http://www.w3.org/2000/svg"
   xmlns:xlink="http://www.w3.org/1999/xlink"
   xmlns:sodipodi="http://sodipodi.sourceforge.net/DTD/sodipodi-0.dtd"
   xmlns:inkscape="http://www.inkscape.org/namespaces/inkscape"
   height="96"
   width="96"
   id="svg847"
   version="1.1"
   inkscape:version="0.91 r13725"
   sodipodi:docname="filezilla.svg">
  <metadata
     id="metadata886">
    <rdf:RDF>
      <cc:Work
         rdf:about="">
        <dc:format>image/svg+xml</dc:format>
        <dc:type
           rdf:resource="http://purl.org/dc/dcmitype/StillImage" />
      </cc:Work>
    </rdf:RDF>
  </metadata>
  <sodipodi:namedview
     pagecolor="#ffffff"
     bordercolor="#666666"
     borderopacity="1"
     objecttolerance="10"
     gridtolerance="10"
     guidetolerance="10"
     inkscape:pageopacity="0"
     inkscape:pageshadow="2"
     inkscape:window-width="640"
     inkscape:window-height="480"
     id="namedview884"
     showgrid="false"
     inkscape:zoom="2.4583333"
     inkscape:cx="48"
     inkscape:cy="48"
     inkscape:current-layer="svg847" />
  <defs
     id="defs849">
    <linearGradient
       x2="0"
       y1="90"
       y2="5.988"
       gradientUnits="userSpaceOnUse"
       id="linearGradient3554"
       gradientTransform="matrix(1.202,0,0,1.2231,-9.614,-13.175)">
      <stop
         stop-color="#a00000"
         id="stop852" />
      <stop
         stop-color="#ff0505"
         offset="1"
         id="stop854" />
    </linearGradient>
    <linearGradient
       inkscape:collect="always"
       xlink:href="#linearGradient14231"
       id="linearGradient14237"
       x1="50.707542"
       y1="81.682442"
       x2="50.707542"
       y2="96.539803"
       gradientUnits="userSpaceOnUse" />
    <linearGradient
       inkscape:collect="always"
       id="linearGradient14231">
      <stop
         style="stop-color:#000000;stop-opacity:1;"
         offset="0"
         id="stop14233" />
      <stop
         style="stop-color:#000000;stop-opacity:0;"
         offset="1"
         id="stop14235" />
    </linearGradient>
    <linearGradient
       inkscape:collect="always"
       xlink:href="#linearGradient14239"
       id="linearGradient14245"
       x1="49.876652"
       y1="87.937508"
       x2="49.876652"
       y2="76.719681"
       gradientUnits="userSpaceOnUse" />
    <linearGradient
       inkscape:collect="always"
       id="linearGradient14239">
      <stop
         style="stop-color:#ffffff;stop-opacity:1;"
         offset="0"
         id="stop14241" />
      <stop
         style="stop-color:#ffffff;stop-opacity:0;"
         offset="1"
         id="stop14243" />
    </linearGradient>
  </defs>
  <rect
     style="fill-opacity:0.02000002"
     id="rect858"
     width="89.980003"
     height="89.980003"
     y="2.9899757"
     rx="12.724"
     x="3" />
  <rect
     style="fill-opacity:0.03900003"
     id="rect860"
     width="88.760002"
     height="88.760002"
     y="3.6000221"
     rx="12.552"
     x="3.608" />
  <rect
     style="fill-opacity:0.078"
     id="rect862"
     width="87.550003"
     height="87.550003"
     y="4.2100072"
     rx="12.38"
     x="4.2160001" />
  <rect
     style="fill-opacity:0.15700001"
     id="rect864"
     width="86.330002"
     height="86.330002"
     y="4.8199925"
     rx="12.208"
     x="4.8239999" />
  <path
     inkscape:connector-curvature="0"
     style="fill:url(#linearGradient3554)"
     id="path866"
     d="m 17.469,5.4062 c -6.668,0 -12.032,5.3948 -12.032,12.063 l 5e-4,61.031 c 0,6.668 5.3635,12.031 12.032,12.031 l 61.03,0 c 6.454,0 11.671,-5.036 12,-11.406 l 0,-62.281 c -0.321,-6.377 -5.54,-11.438 -12,-11.438 l -61.031,2e-4 z" />
  <g
     id="g872"
     transform="translate(-0.215,-1.93)">
    <path
       style="opacity:0.05;fill:#300000"
       inkscape:connector-curvature="0"
       id="path874"
       d="m 31.844,19.094 c -1.0321,-0.02432 -1.9075,0.55332 -2.4375,1.25 -0.49996,0.65714 -0.73596,1.4413 -0.8125,2.2188 l -0.03125,0 c -0.012,0.051 -0.02,0.104 -0.032,0.156 -3.596,15.843 -7.246,31.682 -10.812,47.531 a 0.98644,0.98644 0 0 0 0,0.0625 c -0.17642,1.1796 0.37357,2.2645 1.1875,2.875 0.76412,0.57312 1.7451,0.8017 2.7188,0.65625 l 0,0.03125 c 2.8521,-0.04031 5.8086,0.08534 8.75,-0.0625 a 0.98644,0.98644 0 0 0 0.219,-0.062 c 1.33,-0.3982 2.0174,-1.5313 2.3125,-2.5312 0.295,-1 0.388,-2.001 0.594,-2.594 a 0.98644,0.98644 0 0 0 0.03125,-0.09375 l 3.9062,-16.344 13.688,0 c -5.6154,4.9933 -11.267,9.9785 -16.844,15.031 a 0.98644,0.98644 0 0 0 -0.0625,0.0625 c -0.81552,0.88021 -0.90741,2.0875 -0.59375,3 0.30043,0.874 0.87415,1.5536 1.4688,2.0938 0.02439,0.02645 0.03816,0.06721 0.0625,0.09375 1.8257,1.9908 3.5168,4.2463 5.5938,6.2188 a 0.98644,0.98644 0 0 0 0.21875,0.15625 c 1.1882,0.65538 2.4566,0.3465 3.375,-0.09375 0.91837,-0.44025 1.6803,-0.97422 2.25,-1.1875 a 0.98644,0.98644 0 0 0 0.157,-0.092 c 2.3444,-1.4249 5.2239,-1.8361 7.7188,-0.78125 a 0.98644,0.98644 0 0 0 0.0625,0.03125 c 4.9856,1.7295 10.654,2.897 16,0.875 a 0.98644,0.98644 0 0 0 0,-0.03125 c 2.1055,-0.80965 4.5534,-1.585 6.5,-3.25 a 0.98644,0.98644 0 0 0 0.125,-0.15625 c 0.74426,-1.0111 0.71727,-2.1912 0.53125,-3.125 -0.18602,-0.93379 -0.49033,-1.7642 -0.53125,-2.3438 a 0.98644,0.98644 0 0 0 0,-0.1875 c -0.47898,-1.8925 -0.57245,-4.0976 -1.4375,-6.25 a 0.98644,0.98644 0 0 0 -0.095,-0.188 c -0.65622,-0.9327 -1.7494,-1.3398 -2.7188,-1.2812 -0.91741,0.05544 -1.7726,0.46656 -2.4375,1.0938 -2.2633,1.6584 -5.1054,2.5448 -7.625,1.5 a 0.98644,0.98644 0 0 0 -0.094,-0.031 c -0.60683,-0.17444 -1.0498,-0.33008 -1.5312,-0.46875 4.7459,-4.0211 9.5957,-7.9645 14.312,-12.062 a 0.98644,0.98644 0 0 0 0.25,-0.375 c 0.89851,-2.0904 1.1282,-4.2618 1.6875,-6.1562 a 0.98644,0.98644 0 0 0 0.032,-0.157 c 0.06669,-0.57767 0.37102,-1.3831 0.59375,-2.2812 0.22273,-0.89815 0.34166,-2.0163 -0.28125,-3.0625 a 0.98644,0.98644 0 0 0 -0.062,-0.093 c -0.80861,-1.0613 -2.0544,-1.3544 -3.0625,-1.375 -1.0081,-0.02059 -1.9145,0.13644 -2.5312,0.0625 a 0.98644,0.98644 0 0 0 -0.125,-0.03125 l -31.625,0 0.9375,-3.625 c 7.7644,-0.01509 15.536,0.03932 23.312,-0.03125 a 0.98644,0.98644 0 0 0 0.1875,-0.03125 c 1.3733,-0.25608 2.1482,-1.3779 2.4688,-2.375 0.32056,-0.99714 0.39126,-2.0054 0.5625,-2.625 a 0.98644,0.98644 0 0 0 0.03125,-0.09375 c 0.35226,-2.0401 1.0661,-4.1768 1.25,-6.5 a 0.98644,0.98644 0 0 0 0,-0.125 c -0.09073,-1.1555 -0.85506,-2.0529 -1.7188,-2.4688 -0.81302,-0.39142 -1.6989,-0.4241 -2.5312,-0.3125 l 0,-0.0625 -33.031,0 -0.03125,0 z" />
    <path
       style="opacity:0.1;fill:#300000"
       inkscape:connector-curvature="0"
       id="path876"
       d="m 31.844,20.094 c -1.3944,-0.0492 -2.2334,1.4016 -2.3139,2.6855 -3.608,15.897 -7.2651,31.792 -10.842,47.69 -0.24368,1.6294 1.4783,2.7076 2.9512,2.4062 2.8895,-0.04084 5.7938,0.08226 8.6738,-0.0625 1.9332,-0.57881 1.7117,-2.9286 2.2531,-4.4869 1.3636,-5.7127 2.7271,-11.425 4.0907,-17.138 l 17.094,0 c -6.262,5.5918 -12.595,11.116 -18.812,16.75 -1.1512,1.2425 -0.17429,2.8542 0.87115,3.7756 1.8993,2.0596 3.605,4.3337 5.6288,6.2557 1.7122,0.94443 3.2859,-0.76975 4.8219,-1.3448 2.578,-1.5669 5.7712,-2.0361 8.597,-0.84128 4.8932,1.6975 10.318,2.7573 15.327,0.86253 2.1329,-0.82019 4.4418,-1.5863 6.1914,-3.0828 1.0545,-1.4326 -0.0626,-3.2234 -0.17379,-4.7983 -0.51364,-2.0294 -0.60905,-4.1993 -1.3887,-6.1392 -0.9157,-1.3015 -2.754,-1.0061 -3.7632,0.02104 -2.4466,1.7926 -5.6449,2.8507 -8.5844,1.6318 -1.6905,-0.48597 -4.4063,-0.80675 -1.8848,-2.1647 4.7545,-4.0283 9.5926,-7.9653 14.295,-12.051 0.8205,-1.9089 1.0548,-4.0689 1.6474,-6.0762 0.17914,-1.5518 1.3356,-3.2115 0.44633,-4.7051 -1.1685,-1.5337 -3.3083,-0.74042 -4.9521,-0.9375 l -32.892,0 c 0.47917,-1.875 0.95833,-3.75 1.4375,-5.625 8.0304,-0.02078 16.068,0.04159 24.094,-0.03125 1.9993,-0.3728 1.87,-2.7306 2.2966,-4.2743 0.37,-2.144 1.064,-4.256 1.235,-6.416 -0.12548,-1.5981 -1.9163,-2.1336 -3.2817,-1.9062 l -33.062,0 z" />
    <path
       style="opacity:0.15;fill:#300000"
       inkscape:connector-curvature="0"
       id="path878"
       d="m 31.844,21.219 a 1.0168,1.0168 0 0 0 -1,0.8125 l -11.032,48.468 a 1.0168,1.0168 0 0 0 1,1.25 l 8.9688,0 a 1.0168,1.0168 0 0 0 1,-0.78125 l 5,-20.906 20.938,0 -20.875,18.531 a 1.0168,1.0168 0 0 0 -0.063,1.406 l 5.969,6.812 a 1.0168,1.0168 0 0 0 1.2188,0.25 l 3.031,-1.562 c 2.7672,-1.4105 4.5627,-1.6571 6.25,-1.4688 1.6873,0.18831 3.3295,0.87708 5.5938,1.5 4.2419,1.167 8.8659,2.4561 17.375,-2.4062 a 1.0168,1.0168 0 0 0 0.5,-1.0625 l -1.657,-8.374 a 1.0168,1.0168 0 0 0 -1.593,-0.657 c -4.382,3.089 -6.898,3.172 -9.344,2.563 -1.859,-0.463 -3.881,-1.33 -6.219,-1.844 l 16.906,-14.188 a 1.0168,1.0168 0 0 0 0.34375,-0.53125 l 2.032,-8.281 a 1.0168,1.0168 0 0 0 -1,-1.2812 l -37.469,0 2,-7.875 24.594,0 a 1.0168,1.0168 0 0 0 1,-0.8125 l 1.75,-8.3125 a 1.0168,1.0168 0 0 0 -1,-1.25 l -34.219,0 z" />
    <path
       style="opacity:0.3;fill:#300000"
       inkscape:connector-curvature="0"
       id="path880"
       d="m 31.838,22.264 -11.018,48.453 8.9524,0 5.2004,-21.683 24.438,0 -22.886,20.309 5.9661,6.8102 3.0559,-1.561 c 5.7789,-2.9455 8.2026,-1.2232 12.587,-0.01699 4.2654,1.1735 8.2752,2.4294 16.595,-2.3245 l -1.652,-8.39 c -9.0793,6.3995 -11.952,0.68989 -18.418,0.46325 l 18.513,-15.53 2.0088,-8.2901 -38.78,0 2.4963,-9.9496 25.418,0 1.7431,-8.2901 -34.22,0 z" />
    <path
       style="fill:#ffffff"
       inkscape:connector-curvature="0"
       id="path882"
       d="m 31.838,21.263 -11.018,48.453 8.9524,0 5.2004,-21.683 24.438,0 -22.886,20.309 5.9661,6.8102 3.0559,-1.561 c 5.7789,-2.9455 8.2026,-1.2232 12.587,-0.01699 4.2654,1.1735 8.2752,2.4294 16.595,-2.3245 l -1.652,-8.391 c -9.0793,6.3995 -11.952,0.68989 -18.418,0.46325 l 18.513,-15.53 2.0088,-8.2901 -38.78,0 2.4963,-9.9496 25.418,0 1.7431,-8.2901 -34.22,0 z" />
  </g>
  <g
     id="g14291">
    <path
       d="m 5.2922679,73.685059 0,5.0663 c 0,6.668 5.3645011,12.032 12.0320011,12.032 l 61.049,0 c 6.668,0 12.032,-5.3645 12.032,-12.032 l 0,-5.0663 c 0,6.6681 -5.3645,12.032 -12.032,12.032 l -61.049,0 c -6.668,0 -12.0320011,-5.3643 -12.0320011,-12.032 z"
       id="path64"
       inkscape:connector-curvature="0"
       style="opacity:0.4;fill:url(#linearGradient14237);fill-opacity:1" />
    <path
       inkscape:connector-curvature="0"
       id="path14214"
       d="m 5.2929688,72.717592 0,1.15039 c 0,6.667718 5.3632502,12.031248 12.0312502,12.031248 l 61.048828,0 c 6.6675,0 12.03125,-5.36313 12.03125,-12.031248 l 0,-1.15039 c 0,6.668098 -5.36375,12.031248 -12.03125,12.031248 l -61.048828,0 c -6.668,0 -12.0312502,-5.36355 -12.0312502,-12.031248 z"
       style="opacity:0.5;fill:url(#linearGradient14245);fill-opacity:1" />
  </g>
</svg>
