<svg height="96" width="96" xmlns="http://www.w3.org/2000/svg" xmlns:sodipodi="http://sodipodi.sourceforge.net/DTD/sodipodi-0.dtd" xmlns:inkscape="http://www.inkscape.org/namespaces/inkscape">
 <defs>
  <linearGradient x2="0" y1="90" y2="5.988" gradientUnits="userSpaceOnUse" id="linearGradient3030" inkscape:collect="always" gradientTransform="matrix(1.1599 0 0 1.1599 -7.594 -9.88)">
   <stop stop-color="#242424"/>
   <stop stop-color="#505050" offset="1"/>
  </linearGradient>
  <linearGradient x2="0" y1="1043.4" y2="1013.6" gradientUnits="userSpaceOnUse" id="linearGradient5492" gradientTransform="matrix(2.695 0 0 2.695 -189.88 -2697.9)">
   <stop stop-color="#d2d2d2"/>
   <stop stop-color="#fafafa" offset="1"/>
  </linearGradient>
 </defs>
 <rect x="3" rx="12.724" y="2.99" fill-opacity="0.02" height="89.98" width="89.98"/>
 <rect x="3.608" rx="12.552" y="3.6" fill-opacity="0.039" height="88.76" width="88.76"/>
 <rect x="4.216" rx="12.38" y="4.21" fill-opacity="0.078" height="87.55" width="87.55"/>
 <rect x="4.824" rx="12.208" y="4.82" fill-opacity="0.157" height="86.33" width="86.33"/>
 <path d="m 17.469,5.4062 c -6.668,0 -12.032,5.3948 -12.032,12.063 l 5e-4,61.031 c 0,6.668 5.3635,12.031 12.032,12.031 h 61.03 c 6.454,0 11.671,-5.036 12,-11.406 v -62.281 c -0.321,-6.377 -5.54,-11.438 -12,-11.438 l -61.031,2e-4 z" fill="url(#linearGradient3030)" inkscape:connector-curvature="0"/>
 <path d="m 5.4316,73.44 v 5.0663 c 0,6.668 5.3645,12.032 12.032,12.032 h 61.049 c 6.668,0 12.032,-5.3645 12.032,-12.032 V 73.44 c 0,6.6681 -5.3645,12.032 -12.032,12.032 h -61.049 c -6.668,0 -12.032,-5.3643 -12.032,-12.032 z" fill-opacity="0.235" inkscape:connector-curvature="0"/>
 <path d="m 5.4316,77.54 v 1.0133 c 0,6.668 5.3645,12.032 12.032,12.032 h 61.049 c 6.668,0 12.032,-5.3645 12.032,-12.032 V 77.54 c 0,6.6681 -5.3645,12.032 -12.032,12.032 h -61.049 c -6.668,0 -12.032,-5.3644 -12.032,-12.032 z" fill-opacity="0.098" inkscape:connector-curvature="0"/>
 <g transform="matrix(1 0 0 1 174.96 -26.603)">
  <path d="m -106.58,36.282 v 13.66 c -22.122,3.9632 -39.663,21.095 -44.25,42.999 10.07,-10.646 24.286,-17.315 40.097,-17.315 1.403,0 2.7756,0.105 4.1524,0.20738 v 13.66 l 23.632,-26.598 -23.632,-26.613 z m -60.859,0.063 v 80.788 h 80.788 V 90.327 l -8.2086,5.5634 v 13.034 h -64.37 v -64.37 h 33.652 l 8.2086,-8.2089 -50.069,7.87e-4 z" fill-opacity="0.059" inkscape:connector-curvature="0"/>
  <path d="m -106.58,35.232 v 13.66 c -22.122,3.9632 -39.663,21.095 -44.25,42.999 10.07,-10.646 24.286,-17.315 40.097,-17.315 1.403,0 2.7756,0.105 4.1524,0.20738 v 13.66 l 23.632,-26.598 -23.632,-26.613 z m -60.859,0.063 v 80.788 h 80.788 V 89.277 l -8.2086,5.5634 v 13.034 h -64.37 v -64.37 h 33.652 l 8.2086,-8.2089 -50.069,7.88e-4 z" fill-opacity="0.118" inkscape:connector-curvature="0"/>
  <path d="m -106.58,34.182 v 13.66 c -22.122,3.9632 -39.663,21.095 -44.25,42.999 10.07,-10.646 24.286,-17.315 40.097,-17.315 1.403,0 2.7756,0.105 4.1524,0.20738 v 13.66 l 23.632,-26.598 -23.632,-26.613 z m -60.859,0.063 v 80.788 h 80.788 V 88.227 l -8.2086,5.5634 v 13.034 h -64.37 v -64.37 h 33.652 l 8.2086,-8.2089 -50.069,7.87e-4 z" fill-opacity="0.235" inkscape:connector-curvature="0"/>
  <path d="m -106.58,33.133 v 13.66 c -22.122,3.9632 -39.663,21.095 -44.25,42.999 10.07,-10.646 24.286,-17.315 40.097,-17.315 1.403,0 2.7756,0.105 4.1524,0.20738 v 13.66 l 23.632,-26.598 -23.632,-26.613 z m -60.859,0.063 v 80.788 h 80.788 V 87.178 l -8.2086,5.5634 v 13.034 h -64.37 v -64.37 h 33.652 l 8.2086,-8.2089 -50.069,7.88e-4 z" fill="url(#linearGradient5492)" inkscape:connector-curvature="0"/>
  <path d="m -119.47,33.193 -6.1113,6.1113 h -33.653 v 2.1021 h 33.653 l 8.2082,-8.2134 h -2.0969 z m 35.586,25.501 -22.697,25.548 v 2.1021 l 23.63,-26.599 -0.93311,-1.051 z m -26.846,11.68 c -15.452,0 -29.371,6.3845 -39.396,16.611 -0.24675,0.93082 -0.50364,1.8553 -0.7024,2.8045 10.07,-10.646 24.287,-17.314 40.098,-17.314 1.403,0 2.776,0.10238 4.1528,0.20475 v -2.0968 c -1.3768,-0.10238 -2.7498,-0.21 -4.1528,-0.21 z m -56.709,41.508 v 2.1021 h 80.791 v -2.1021 h -80.791 z" fill-opacity="0.314" inkscape:connector-curvature="0"/>
  <path d="m -106.58,33.133 v 1.051 l 23.164,26.086 0.46655,-0.5229 -23.63,-26.614 z m -10.792,0.06038 h -50.07 v 1.0458 h 49.019 l 1.051,-1.0448 z m 10.792,13.597 c -22.122,3.9632 -39.664,21.096 -44.251,43 0.1139,-0.12075 0.23368,-0.23362 0.34864,-0.35385 5.0323,-21.223 22.259,-37.718 43.902,-41.595 v -1.05 z m 19.928,40.385 -8.2134,5.5626 v 1.051 l 8.2134,-5.5626 v -1.05 z m -72.582,18.6 v 1.0461 h 64.369 v -1.0461 l -64.369,0.001 z" fill="white" fill-opacity="0.235" inkscape:connector-curvature="0"/>
 </g>
</svg>
