<svg height="96" width="96" xmlns="http://www.w3.org/2000/svg" xmlns:xlink="http://www.w3.org/1999/xlink" xmlns:sodipodi="http://sodipodi.sourceforge.net/DTD/sodipodi-0.dtd" xmlns:inkscape="http://www.inkscape.org/namespaces/inkscape">
 <defs>
  <linearGradient id="linearGradient3701">
   <stop stop-color="#fff"/>
   <stop stop-color="#fff" stop-opacity="0" offset="1"/>
  </linearGradient>
  <linearGradient x1="49.13" x2="76.01" xlink:href="#linearGradient3701" y1="41.13" y2="30.688" gradientUnits="userSpaceOnUse" id="linearGradient8846" gradientTransform="matrix(1.5483 0 0 1.5483 -26.587 923.63)"/>
  <linearGradient x2="0" xlink:href="#linearGradient3701" y1="39.07" y2="80.77" gradientUnits="userSpaceOnUse" id="linearGradient8849" gradientTransform="matrix(1.5483 0 0 1.5483 -26.587 923.63)"/>
  <linearGradient x1="137.63" x2="133.59" xlink:href="#linearGradient3701" y1="30.34" y2="47.639" gradientUnits="userSpaceOnUse" id="linearGradient8852" gradientTransform="matrix(1.5483 0 0 1.5483 -150.45 923.63)"/>
  <linearGradient x2="0" xlink:href="#linearGradient3701" y1="38.07" y2="54.954" gradientUnits="userSpaceOnUse" id="linearGradient8855" gradientTransform="matrix(1.5483 0 0 1.5483 -150.45 923.63)"/>
  <linearGradient x1="34.784" x2="41.723" y1="34.444" y2="52.12" gradientUnits="userSpaceOnUse" id="linearGradient8862" gradientTransform="matrix(1.5483 0 0 1.5483 -26.587 923.04)">
   <stop/>
   <stop stop-opacity="0" offset="1"/>
  </linearGradient>
  <linearGradient x1="39.07" x2="41.723" y1="32.676" y2="52.12" gradientUnits="userSpaceOnUse" id="linearGradient8864" gradientTransform="matrix(1.5483 0 0 1.5483 -26.587 923.04)">
   <stop stop-opacity="0"/>
   <stop stop-opacity="0" offset="1"/>
  </linearGradient>
  <linearGradient x2="0" y1="37.445" y2="69.789" gradientUnits="userSpaceOnUse" id="linearGradient8867" gradientTransform="matrix(1.5483 0 0 1.5483 -26.587 923.63)">
   <stop stop-color="#f70000"/>
   <stop stop-color="#ff6e2a" stop-opacity="0.839" offset="1"/>
  </linearGradient>
  <linearGradient x2="0" y1="37.727" y2="66.14" gradientUnits="userSpaceOnUse" id="linearGradient8870" gradientTransform="matrix(1.5483 0 0 1.5483 -26.587 923.63)">
   <stop stop-color="#28c809"/>
   <stop stop-color="#88f342" stop-opacity="0.758" offset="1"/>
  </linearGradient>
  <linearGradient x1="36.28" x2="61.96" xlink:href="#linearGradient8862" y1="58.32" y2="74.74" gradientUnits="userSpaceOnUse" id="linearGradient8873" gradientTransform="matrix(1.5483 0 0 1.5483 -26.587 923.63)"/>
  <linearGradient x1="64.37" x2="96.83" y1="15.626" y2="48.08" gradientUnits="userSpaceOnUse" id="linearGradient8876" gradientTransform="matrix(1.4887 0.42534 -1.4887 0.42534 -26.587 923.63)">
   <stop stop-color="#6ecbf8"/>
   <stop stop-color="#0077b9" offset="1"/>
  </linearGradient>
  <linearGradient x1="47.774" x2="59.45" xlink:href="#linearGradient8862" y1="90.52" y2="47.969" gradientUnits="userSpaceOnUse" id="linearGradient8883" gradientTransform="matrix(1.0324 0 0 1.0568 -1.844 946.65)"/>
  <linearGradient x2="0" y1="84.39" y2="-5.116" gradientUnits="userSpaceOnUse" id="linearGradient9683">
   <stop stop-color="#666"/>
   <stop stop-color="#666" stop-opacity="0" offset="1"/>
  </linearGradient>
 </defs>
 <g transform="matrix(1 0 0 1 0 -956.36)">
  <rect x="3" rx="12.724" y="959.35" fill-opacity="0.02" height="89.98" width="89.98"/>
  <rect x="3.608" rx="12.552" y="959.96" fill-opacity="0.039" height="88.76" width="88.76"/>
  <rect x="4.216" rx="12.38" y="960.57" fill-opacity="0.078" height="87.55" width="87.55"/>
  <rect x="4.824" rx="12.208" y="961.18" fill-opacity="0.157" height="86.33" width="86.33"/>
  <path d="m17.469 5.4062c-6.668 0-12.032 5.3948-12.032 12.063l0.0005 61.031c0 6.668 5.3635 12.031 12.032 12.031h61.03c6.454 0 11.671-5.036 12-11.406v-62.281c-0.321-6.377-5.54-11.438-12-11.438l-61.031 0.0002z" fill="url(#linearGradient9683)" transform="matrix(1 0 0 1 0 956.36)"/>
  <path d="m5.4316 1029.8v5.0663c0 6.668 5.3645 12.032 12.032 12.032h61.049c6.668 0 12.032-5.3645 12.032-12.032v-5.0663c0 6.6681-5.3645 12.032-12.032 12.032h-61.049c-6.668 0-12.032-5.3643-12.032-12.032z" fill-opacity="0.235"/>
  <path d="m5.4316 1033.9v1.0133c0 6.668 5.3645 12.032 12.032 12.032h61.049c6.668 0 12.032-5.3645 12.032-12.032v-1.0133c0 6.6681-5.3645 12.032-12.032 12.032h-61.049c-6.668 0-12.032-5.3644-12.032-12.032z" fill-opacity="0.098"/>
  <path d="m49.589 1024.1 38.898-19.6-32.469-19.83-30.21 28.53 23.781 10.9z" fill="url(#linearGradient8883)"/>
  <path d="m46.569 967.8-32.127 8.4187v0.87091l0.77414-0.0968 30.965-8.1284 33.675 5.2254 1.3547 0.19354v-0.8709l-34.643-5.6125z" fill="#045" opacity="0.8"/>
  <path d="m46.181 968.87 33.671 5.2313-29.988 11.588-34.649-8.6874 30.965-8.1324z" fill="url(#linearGradient8876)" opacity="0.8"/>
  <path d="m46.377 1005.4 30.983 9.6334-27.544 18.187-31.765-14.081 28.326-13.739z" fill="url(#linearGradient8873)"/>
  <path d="m49.853 985.65v50.44l29.911-20.136v-41.838l-29.911 11.534z" fill="url(#linearGradient8870)" opacity="0.8"/>
  <path d="m49.853 985.65v50.44l-34.351-15.375-0.15501-43.715 34.506 8.6508z" fill="url(#linearGradient8867)" opacity="0.8"/>
  <path d="m19.439 978.03 26.979-7.429-0.391 32.454-26.588 14.076v-39.101z" stroke-width="1.548" fill="url(#linearGradient8862)" stroke="url(#linearGradient8864)" opacity="0.2"/>
  <path d="m17.387 980.47 29.032 7.7222-22.385 33.627-6.7447-3.0302 0.09769-38.319h0.000063z" fill="url(#linearGradient8855)" opacity="0.6"/>
  <path d="m48.178 970.6v33.431l28.934 8.7976v-37.928l-28.934-4.301z" fill="url(#linearGradient8852)" opacity="0.4"/>
  <path d="m18.506 976.12-3.2901 0.87091 0.14515 0.0484v1.4999l32.852 8.8058v47.997l1.645 0.7256 1.4515-0.9676v-48.965-1.2096l-1.1128-0.29029-31.691-8.5155z" fill="url(#linearGradient8849)" color="#000000" opacity="0.7"/>
  <path d="m76.711 973.61-27.24 10.79 1.1612 2.903 29.127-11.612v-1.5483l0.09677-0.0484-3.1449-0.48384z" fill="url(#linearGradient8846)" color="#000000" opacity="0.7"/>
  <path d="m14.442 976.99 0.14515 44.901 35.272 15.773v-1.5966l-34.352-15.338-0.14515-43.766-0.91929 0.0269z" fill="#800000"/>
  <path d="m81.308 974.28-1.5483-0.22583v41.883l-29.901 20.128v1.7902l31.449-20.708v-42.867z" fill="#250" opacity="0.8"/>
 </g>
</svg>
