<?xml version="1.0" encoding="UTF-8" standalone="no"?>
<svg
   xmlns:dc="http://purl.org/dc/elements/1.1/"
   xmlns:cc="http://creativecommons.org/ns#"
   xmlns:rdf="http://www.w3.org/1999/02/22-rdf-syntax-ns#"
   xmlns:svg="http://www.w3.org/2000/svg"
   xmlns="http://www.w3.org/2000/svg"
   xmlns:xlink="http://www.w3.org/1999/xlink"
   xmlns:sodipodi="http://sodipodi.sourceforge.net/DTD/sodipodi-0.dtd"
   xmlns:inkscape="http://www.inkscape.org/namespaces/inkscape"
   height="96"
   width="96"
   id="svg2"
   version="1.1"
   inkscape:version="0.91 r13725"
   sodipodi:docname="gcompris.svg">
  <metadata
     id="metadata88">
    <rdf:RDF>
      <cc:Work
         rdf:about="">
        <dc:format>image/svg+xml</dc:format>
        <dc:type
           rdf:resource="http://purl.org/dc/dcmitype/StillImage" />
      </cc:Work>
    </rdf:RDF>
  </metadata>
  <sodipodi:namedview
     pagecolor="#ffffff"
     bordercolor="#666666"
     borderopacity="1"
     objecttolerance="10"
     gridtolerance="10"
     guidetolerance="10"
     inkscape:pageopacity="0"
     inkscape:pageshadow="2"
     inkscape:window-width="1366"
     inkscape:window-height="708"
     id="namedview86"
     showgrid="false"
     inkscape:zoom="1.7383042"
     inkscape:cx="18.903835"
     inkscape:cy="3.3387384"
     inkscape:window-x="0"
     inkscape:window-y="24"
     inkscape:window-maximized="1"
     inkscape:current-layer="svg2" />
  <defs
     id="defs4">
    <linearGradient
       inkscape:collect="always"
       id="linearGradient4386">
      <stop
         style="stop-color:#d4d4d4;stop-opacity:1"
         offset="0"
         id="stop4388" />
      <stop
         style="stop-color:#ffffff;stop-opacity:1"
         offset="1"
         id="stop4390" />
    </linearGradient>
    <rect
       x="25.625"
       rx="2.25"
       y="971.86"
       ry="1.932"
       height="20"
       id="SVGCleanerId_0"
       width="4.5" />
    <rect
       x="979.61"
       rx="2.25"
       y="-37.875"
       ry="1.932"
       height="20"
       id="SVGCleanerId_1"
       width="4.5" />
    <rect
       x="994.67"
       rx="2.085"
       y="-77.16"
       ry="1.791"
       height="18.537"
       id="SVGCleanerId_2"
       width="4.171" />
    <rect
       x="1004.7"
       rx="2.085"
       y="-77.16"
       ry="1.791"
       height="18.537"
       id="SVGCleanerId_3"
       width="4.171" />
    <linearGradient
       gradientTransform="matrix(0,-1,1,0,-1.5e-6,47.999998)"
       gradientUnits="userSpaceOnUse"
       x2="47"
       x1="1"
       id="linearGradient3764">
      <stop
         id="stop4221"
         stop-opacity="1"
         stop-color="#e4e4e4" />
      <stop
         id="stop4223"
         stop-opacity="1"
         stop-color="#eee"
         offset="1" />
    </linearGradient>
    <clipPath
       id="clipPath-840154517">
      <g
         id="g4226"
         transform="translate(0,-1004.3622)">
        <path
           id="path4228"
           fill="#1890d0"
           transform="matrix(15.333333,0,0,11.5,414.99999,878.8622)"
           d="m -24 13 c 0 1.105 -0.672 2 -1.5 2 -0.828 0 -1.5 -0.895 -1.5 -2 0 -1.105 0.672 -2 1.5 -2 0.828 0 1.5 0.895 1.5 2 z" />
      </g>
    </clipPath>
    <clipPath
       id="clipPath-868067471">
      <g
         id="g4231"
         transform="translate(0,-1004.3622)">
        <path
           id="path4233"
           fill="#1890d0"
           transform="matrix(15.333333,0,0,11.5,414.99999,878.8622)"
           d="m -24 13 c 0 1.105 -0.672 2 -1.5 2 -0.828 0 -1.5 -0.895 -1.5 -2 0 -1.105 0.672 -2 1.5 -2 0.828 0 1.5 0.895 1.5 2 z" />
      </g>
    </clipPath>
    <linearGradient
       inkscape:collect="always"
       xlink:href="#linearGradient4386"
       id="linearGradient4392"
       x1="49.370205"
       y1="88.243187"
       x2="49.370205"
       y2="4.4465766"
       gradientUnits="userSpaceOnUse" />
    <linearGradient
       inkscape:collect="always"
       xlink:href="#linearGradient14231"
       id="linearGradient14237"
       x1="50.707542"
       y1="81.682442"
       x2="50.707542"
       y2="96.539803"
       gradientUnits="userSpaceOnUse" />
    <linearGradient
       inkscape:collect="always"
       id="linearGradient14231">
      <stop
         style="stop-color:#000000;stop-opacity:1;"
         offset="0"
         id="stop14233" />
      <stop
         style="stop-color:#000000;stop-opacity:0;"
         offset="1"
         id="stop14235" />
    </linearGradient>
    <linearGradient
       inkscape:collect="always"
       xlink:href="#linearGradient14239"
       id="linearGradient14245"
       x1="49.876652"
       y1="87.937508"
       x2="49.876652"
       y2="76.719681"
       gradientUnits="userSpaceOnUse" />
    <linearGradient
       inkscape:collect="always"
       id="linearGradient14239">
      <stop
         style="stop-color:#ffffff;stop-opacity:1;"
         offset="0"
         id="stop14241" />
      <stop
         style="stop-color:#ffffff;stop-opacity:0;"
         offset="1"
         id="stop14243" />
    </linearGradient>
  </defs>
  <rect
     style="fill-opacity:0.02000002"
     id="rect12"
     width="89.980003"
     height="89.980003"
     y="2.9899757"
     rx="12.724"
     x="3" />
  <rect
     style="fill-opacity:0.03900003"
     id="rect14"
     width="88.760002"
     height="88.760002"
     y="3.6000221"
     rx="12.552"
     x="3.608" />
  <rect
     style="fill-opacity:0.078"
     id="rect16"
     width="87.550003"
     height="87.550003"
     y="4.2100072"
     rx="12.38"
     x="4.2160001" />
  <rect
     style="fill-opacity:0.15700001"
     id="rect18"
     width="86.330002"
     height="86.330002"
     y="4.8199925"
     rx="12.208"
     x="4.8239999" />
  <path
     style="fill:url(#linearGradient4392);fill-opacity:1"
     inkscape:connector-curvature="0"
     id="path20"
     d="m 17.469,5.41 c -6.668,0 -12.031,5.3945 -12.031,12.062 l 0,61.031 c 0,6.668 5.3633,12.031 12.031,12.031 l 61.031,0 c 6.668,0 12.031,-5.3633 12.031,-12.031 l 0,-61.031 C 90.531,10.804 85.1677,5.41 78.5,5.41 l -61.031,0 z" />
  <g
     id="g4247"
     transform="matrix(2.4021513,0,0,2.4021513,109.96325,-32.005248)" />
  <path
     inkscape:connector-curvature="0"
     style="opacity:0.05;fill:none;fill-opacity:1;fill-rule:nonzero;stroke:#000000;stroke-width:4.82846642;stroke-miterlimit:4;stroke-dasharray:none;stroke-opacity:1"
     d="m 19.572985,15.955955 c -1.132965,0.12158 -2.093593,1.182327 -2.093593,2.333399 l 0,39.058843 c 0,1.213152 1.373526,2.55704 2.586678,2.55704 l 19.421644,0 -9.064152,18.130999 5.173357,0 9.064152,-18.130999 1.282562,0 0,18.130999 5.162578,0 0,-18.130999 1.34184,0 9.066846,18.130999 5.173357,0 -9.066846,-18.130999 19.351587,0 c 1.223499,0 2.586678,-1.346474 2.586678,-2.55704 l 0,-39.058843 c 0,-1.223499 -1.112056,-2.333399 -2.322621,-2.333399 l -57.664067,0 z"
     id="path4479" />
  <path
     inkscape:connector-curvature="0"
     id="path4477"
     d="m 19.572985,15.955955 c -1.132965,0.12158 -2.093593,1.182327 -2.093593,2.333399 l 0,39.058843 c 0,1.213152 1.373526,2.55704 2.586678,2.55704 l 19.421644,0 -9.064152,18.130999 5.173357,0 9.064152,-18.130999 1.282562,0 0,18.130999 5.162578,0 0,-18.130999 1.34184,0 9.066846,18.130999 5.173357,0 -9.066846,-18.130999 19.351587,0 c 1.223499,0 2.586678,-1.346474 2.586678,-2.55704 l 0,-39.058843 c 0,-1.223499 -1.112056,-2.333399 -2.322621,-2.333399 l -57.664067,0 z"
     style="opacity:0.1;fill:none;fill-opacity:1;fill-rule:nonzero;stroke:#000000;stroke-width:3.44890451;stroke-miterlimit:4;stroke-dasharray:none;stroke-opacity:1" />
  <path
     inkscape:connector-curvature="0"
     style="opacity:0.1;fill:none;fill-opacity:1;fill-rule:nonzero;stroke:#000000;stroke-width:1.37956178;stroke-opacity:1"
     d="m 19.572985,15.955955 c -1.132965,0.12158 -2.093593,1.182327 -2.093593,2.333399 l 0,39.058843 c 0,1.213152 1.373526,2.55704 2.586678,2.55704 l 19.421644,0 -9.064152,18.130999 5.173357,0 9.064152,-18.130999 1.282562,0 0,18.130999 5.162578,0 0,-18.130999 1.34184,0 9.066846,18.130999 5.173357,0 -9.066846,-18.130999 19.351587,0 c 1.223499,0 2.586678,-1.346474 2.586678,-2.55704 l 0,-39.058843 c 0,-1.223499 -1.112056,-2.333399 -2.322621,-2.333399 l -57.664067,0 z"
     id="path4433" />
  <g
     id="g4277"
     clip-path="url(#clipPath-868067471)"
     transform="matrix(2.5866784,0,0,2.5866784,-13.550135,-17.670312)">
    <!-- color: #eeeeee -->
    <g
       id="g4279">
      <path
         id="path4281"
         d="m 13,14 0,15 22,0 0,-15 m -22,0"
         inkscape:connector-curvature="0"
         style="fill:#43953b;fill-opacity:1;fill-rule:nonzero;stroke:none" />
      <path
         id="path4283"
         d="m 12.805,13 c -0.438,0.047 -0.809,0.457 -0.809,0.902 l 0,15.1 c 0,0.469 0.531,0.988 1,0.988 l 22,0 c 0.473,0 1,-0.52 1,-0.988 l 0,-15.1 C 35.996,13.429 35.566,13 35.098,13 m -20.1,2 18,0 c 0.473,0 0.996,0.586 0.996,0.996 l 0,11 c 0,0.469 -0.559,1 -0.996,1 l -18,0 c -0.52,0 -1,-0.48 -1,-1 l 0,-11 c 0,-0.402 0.52,-0.996 1,-0.996 m 0,0"
         inkscape:connector-curvature="0"
         style="fill:#e6a345;fill-opacity:1;fill-rule:nonzero;stroke:none" />
      <path
         id="path4285"
         d="m 23,29 1.996,0 0,8 L 23,37 m 0,-8"
         inkscape:connector-curvature="0"
         style="fill:#e6a345;fill-opacity:1;fill-rule:nonzero;stroke:none" />
      <path
         id="path4287"
         d="m 23,29 -4,8 -2,0 4,-8 m 2,0"
         inkscape:connector-curvature="0"
         style="fill:#e6a345;fill-opacity:1;fill-rule:nonzero;stroke:none" />
      <path
         id="path4289"
         d="m 25.02,29 4,8 2,0 -4,-8 m -2,0"
         inkscape:connector-curvature="0"
         style="fill:#e6a345;fill-opacity:1;fill-rule:nonzero;stroke:none" />
      <path
         id="path4291"
         d="m 17.695,24.09 c -0.016,-0.016 -0.023,-0.023 -0.031,-0.023 -0.02,0 -0.031,0.012 -0.031,0.035 0,0.023 0.012,0.031 0.031,0.031 l 0.012,0 c 0,0.023 0.008,0.035 0.027,0.035 l 0.012,0 c -0.008,0.008 -0.016,0.012 -0.031,0.012 l -0.02,0.215 c 0,0.039 -0.008,0.094 -0.02,0.16 -0.016,0.059 -0.02,0.098 -0.02,0.113 l -0.031,0.035 c 0.012,0.012 0.02,0.023 0.02,0.031 0,0.031 -0.012,0.043 -0.031,0.043 -0.02,0 -0.031,-0.008 -0.031,-0.031 0.008,0 -0.004,0.004 -0.031,0.012 -0.027,0.008 -0.055,0.016 -0.094,0.031 -0.027,0.008 -0.055,0.02 -0.086,0.035 -0.027,0.012 -0.039,0.023 -0.039,0.031 l -0.129,0.043 c -0.004,0 -0.016,-0.004 -0.031,-0.02 -0.012,-0.008 -0.02,-0.016 -0.02,-0.023 0.016,-0.008 0.039,-0.02 0.074,-0.031 0.035,-0.016 0.055,-0.023 0.066,-0.023 l 0.156,-0.07 0.086,-0.07 c 0,-0.016 -0.008,-0.023 -0.02,-0.031 -0.016,-0.008 -0.02,-0.02 -0.02,-0.035 l 0.125,-0.012 -0.043,-0.031 c -0.027,-0.008 -0.039,-0.023 -0.039,-0.043 0,-0.016 0.008,-0.035 0.023,-0.059 -0.016,0 -0.023,0.008 -0.051,0.023 -0.016,0.008 -0.02,0.012 -0.043,0.012 l -0.039,-0.043 c -0.008,-0.008 -0.012,-0.02 -0.012,-0.035 l -0.012,-0.012 -0.039,0.023 0,0.102 c -0.008,0 -0.02,0 -0.043,0 -0.02,-0.008 -0.031,-0.012 -0.039,-0.02 l 0,0.09 C 17.243,24.531 17.228,24.485 17.2,24.453 17.18,24.426 17.169,24.39 17.169,24.351 l 0.012,-0.035 c 0,-0.004 0.023,-0.016 0.066,-0.031 -0.016,0 -0.023,-0.012 -0.023,-0.031 0,-0.039 0.016,-0.063 0.051,-0.07 0.035,-0.016 0.07,-0.031 0.105,-0.047 0,-0.008 -0.008,-0.012 -0.02,-0.02 -0.016,-0.008 -0.02,-0.016 -0.02,-0.023 l -0.086,0 c 0,-0.051 0.016,-0.098 0.051,-0.137 l 0,-0.09 c 0,-0.016 0.004,-0.027 0.012,-0.035 l 0.02,-0.031 c 0.008,0 0.012,0 0.02,0.008 l 0.023,0.023 0,0.043 0.086,-0.102 L 17.4,23.75 c -0.043,-0.008 -0.063,-0.027 -0.063,-0.07 0.023,0 0.039,-0.008 0.039,-0.031 -0.016,0 -0.023,-0.012 -0.023,-0.035 l -0.02,-0.078 0.02,-0.023 c 0.008,-0.008 0.023,-0.012 0.023,-0.012 l -0.074,0 c 0.016,-0.113 0.031,-0.219 0.051,-0.316 0.027,-0.098 0.051,-0.168 0.066,-0.219 l 0,-0.102 c 0,-0.008 0.008,-0.023 0.02,-0.043 0.02,-0.023 0.023,-0.035 0.031,-0.035 l 0,-0.031 c 0,-0.113 0.016,-0.219 0.051,-0.305 0.043,-0.102 0.066,-0.176 0.066,-0.23 l 0,-0.043 c 0,-0.039 0.012,-0.074 0.039,-0.105 l 0.043,-0.043 -0.023,-0.031 c -0.004,-0.008 -0.008,-0.02 -0.008,-0.027 l -0.012,-0.043 0.086,-0.148 0.039,0 0,-0.125 0.043,0 0,-0.363 c 0.035,0 0.059,-0.012 0.07,-0.035 0.02,-0.027 0.031,-0.098 0.055,-0.207 l 0,-0.02 c 0,-0.008 0.004,-0.02 0.012,-0.035 0.012,-0.02 0.023,-0.035 0.031,-0.043 l 0.039,-0.035 0,-0.078 c 0,-0.059 0.016,-0.133 0.051,-0.219 0.035,-0.094 0.059,-0.145 0.074,-0.16 l 0,-0.031 c 0,-0.023 0.004,-0.051 0.012,-0.094 0.016,-0.043 0.02,-0.07 0.031,-0.07 l 0.063,0 c 0,-0.012 0,-0.039 -0.008,-0.078 -0.008,-0.039 -0.012,-0.059 -0.012,-0.07 0,-0.008 0.016,-0.031 0.043,-0.07 0.023,-0.043 0.039,-0.074 0.039,-0.082 0,-0.008 -0.012,-0.02 -0.031,-0.043 -0.012,-0.023 -0.023,-0.039 -0.023,-0.043 0.023,0 0.023,-0.004 0.031,-0.012 0.008,-0.016 0.012,-0.023 0.023,-0.023 l 0,-0.082 c 0.023,0 0.043,-0.012 0.043,-0.031 l 0,-0.113 c 0.023,0 0.039,-0.012 0.039,-0.035 l -0.023,-0.031 c -0.008,-0.008 -0.012,-0.02 -0.012,-0.035 l -0.008,-0.043 c 0,-0.008 0.008,-0.023 0.027,-0.047 0.027,-0.027 0.043,-0.051 0.043,-0.066 0,-0.008 -0.008,-0.027 -0.02,-0.059 -0.008,-0.027 -0.012,-0.047 -0.012,-0.055 l 0.012,-0.031 c 0,0.02 0.004,0.031 0.02,0.031 0.02,0 0.031,-0.012 0.031,-0.031 l -0.031,-0.035 -0.02,0.012 0.105,-0.316 c 0,-0.008 -0.008,-0.02 -0.02,-0.023 -0.016,-0.023 -0.023,-0.031 -0.023,-0.051 l 0.043,-0.105 c 0,-0.016 0,-0.043 0,-0.082 0.008,-0.035 0.008,-0.063 0.008,-0.082 l 0.031,0 c 0,-0.043 0.012,-0.094 0.031,-0.145 0.02,-0.059 0.043,-0.113 0.074,-0.148 l -0.02,0 c -0.02,0 -0.031,-0.012 -0.031,-0.035 0,-0.02 0.012,-0.027 0.031,-0.027 0.02,0 0.031,0.016 0.031,0.027 l 0,0.02 c 0.027,-0.027 0.047,-0.047 0.066,-0.047 0.004,0.012 0.012,0.016 0.02,0.016 l 0.02,0 c 0,-0.008 -0.004,-0.023 -0.012,-0.047 0,-0.027 0,-0.047 0,-0.063 0.008,-0.012 0.023,-0.051 0.043,-0.105 0.027,-0.066 0.039,-0.102 0.039,-0.105 l -0.039,-0.082 0,-0.145 c 0.008,-0.023 0.02,-0.031 0.039,-0.063 0.023,-0.02 0.031,-0.051 0.031,-0.063 l -0.02,-0.023 c -0.016,-0.008 -0.02,-0.016 -0.02,-0.02 l -0.039,-0.07 0,-0.035 c 0.012,0 0.02,-0.008 0.023,-0.031 0.016,-0.023 0.02,-0.035 0.02,-0.043 0,-0.086 0.016,-0.141 0.031,-0.172 0.027,-0.027 0.059,-0.043 0.098,-0.043 0.031,-0.008 0.07,-0.012 0.105,-0.012 0.039,0 0.074,-0.012 0.094,-0.031 l 0,0.031 c 0.008,0.008 0.016,0.02 0.023,0.035 0.008,0.008 0.016,0.008 0.02,0.008 l 0.039,0 0,0.344 c -0.008,0 -0.012,0.004 -0.02,0.012 -0.008,0.008 -0.02,0.012 -0.023,0.012 0,0.051 0.016,0.094 0.039,0.125 0.035,0.023 0.066,0.031 0.086,0.031 l 0,0.047 c 0.023,0.027 0.035,0.082 0.051,0.156 0.02,0.07 0.023,0.109 0.031,0.113 0,0.016 -0.004,0.031 -0.012,0.047 0,0.008 0,0.016 0,0.02 l 0.031,0.023 c 0.008,0.008 0.016,0.012 0.02,0.012 l 0,0.07 c 0,0.008 -0.02,0.02 -0.063,0.043 -0.043,0.023 -0.066,0.039 -0.066,0.043 l -0.094,0 c -0.023,0 -0.031,0.012 -0.031,0.035 0,0.008 0.008,0.016 0.023,0.023 0.016,0.004 0.02,0.012 0.02,0.02 l 0.043,0 c 0.004,0 0.016,0.004 0.031,0.012 0.02,0 0.031,0.004 0.039,0.012 l 0,-0.07 c 0.008,0 0.016,-0.008 0.027,-0.023 l 0.066,-0.008 c 0.012,0 0.027,0.008 0.051,0.031 0.023,0.016 0.027,0.031 0.027,0.043 l 0,0.023 0.105,0.137 c 0.027,0.035 0.055,0.078 0.078,0.113 0.02,0.031 0.031,0.047 0.031,0.055 0,0.008 -0.012,0.023 -0.031,0.047 -0.016,0.012 -0.023,0.023 -0.023,0.031 0.016,0 0.027,0.02 0.043,0.055 0.02,0.031 0.039,0.043 0.051,0.043 0,0.008 -0.004,0.016 -0.012,0.023 0,0.008 0,0.02 0,0.035 0,0.012 0.008,0.031 0.023,0.055 0.012,0.016 0.023,0.027 0.027,0.043 l 0.086,0.18 c 0,0.086 0.012,0.195 0.031,0.344 0.02,0.145 0.07,0.27 0.137,0.375 l 0,0.07 c 0,0.016 0.004,0.035 0.012,0.055 0.012,0.023 0.023,0.039 0.031,0.047 l 0,0.066 c -0.016,0 -0.027,0.02 -0.043,0.059 -0.012,0.027 -0.02,0.047 -0.02,0.055 l 0.02,0.02 c 0.035,0 0.059,-0.004 0.074,-0.02 0.016,0 0.035,0.004 0.066,0.012 0.027,0.004 0.047,0.008 0.063,0.008 l 0,0.047 c -0.004,0 -0.016,0.012 -0.027,0.031 -0.008,0.016 -0.012,0.027 -0.012,0.035 l 0,0.055 c 0.02,0.02 0.039,0.059 0.051,0.113 0.016,0.043 0.023,0.098 0.031,0.148 0.008,0.043 0.012,0.09 0.012,0.137 0.004,0.035 0.008,0.059 0.008,0.07 l -0.02,0 c -0.027,0 -0.051,0.016 -0.074,0.055 -0.016,0.027 -0.023,0.051 -0.023,0.07 l 0,0.02 c 0,0.008 0.004,0.016 0.012,0.023 0,-0.031 0.016,-0.043 0.043,-0.043 l 0.039,0 c 0.027,0 0.047,0.008 0.066,0.031 0.02,0.023 0.039,0.035 0.063,0.035 l 0.156,0 c 0.043,0 0.102,0.027 0.168,0.09 0.07,0.051 0.105,0.137 0.105,0.25 -0.008,0.008 -0.012,0.012 -0.02,0.012 l -0.043,0 c 0,0.016 -0.012,0.027 -0.039,0.035 -0.027,0.004 -0.059,0.012 -0.094,0.02 -0.027,0 -0.055,0.004 -0.086,0.012 -0.023,0.008 -0.031,0.023 -0.031,0.043 0.008,0.008 0.027,0.051 0.063,0.125 0.043,0.07 0.066,0.129 0.066,0.172 l -0.039,0.043 0.02,0.023 0.039,0 c 0,0.02 -0.008,0.043 -0.031,0.07 -0.012,0.012 -0.023,0.027 -0.027,0.043 l 0,0.07 0.039,0.043 0.086,-0.07 0,0.07 0.031,0 c 0,0.016 -0.004,0.027 -0.012,0.035 0,0.008 0,0.016 0,0.02 l 0.012,0.023 -0.078,0 0,0.043 0.078,-0.031 c 0,0.043 0.016,0.07 0.051,0.07 l 0,0.082 -0.043,0.113 0.023,-0.023 c 0.004,-0.008 0.012,-0.012 0.02,-0.012 l 0.039,0 -0.086,0.148 0.043,0 0.086,-0.043 -0.023,0.031 c -0.004,0.008 -0.008,0.023 -0.008,0.047 l -0.012,0.34 0.074,-0.055 0.012,0.125 0.105,0 0,0.273 0.105,-0.035 -0.031,0.035 c -0.004,0.008 -0.008,0.02 -0.008,0.031 l 0,0.344 c 0.004,0 0.023,0.02 0.051,0.07 0.027,0.043 0.051,0.066 0.074,0.082 l 0.012,0.012 c 0,0.004 -0.008,0.02 -0.023,0.043 -0.004,0.016 -0.016,0.02 -0.027,0.02 l 0.082,0.023 -0.125,0.191 0.086,0 c 0.012,0.016 0.023,0.027 0.023,0.055 0.008,0.02 0.016,0.035 0.027,0.035 l 0.031,-0.02 c 0.035,0.035 0.078,0.07 0.125,0.102 0.055,0.02 0.086,0.063 0.086,0.133 l 0,0.082 c 0,0.02 0.012,0.035 0.039,0.035 l 0,0.023 c -0.012,0.039 -0.035,0.066 -0.074,0.082 l 0.074,0 c 0,0.059 0.016,0.082 0.043,0.082 l 0,0.031 c -0.016,0 -0.031,0.008 -0.051,0.023 -0.016,0.008 -0.023,0.016 -0.031,0.02 l 0.039,0.023 -0.039,0.043 -0.098,0.012 c -0.012,0 -0.031,0.012 -0.063,0.035 -0.02,0.02 -0.039,0.031 -0.051,0.031 l -0.066,0 -0.086,0.035 c -0.012,0.016 -0.02,0.023 -0.02,0.031 -0.012,-0.027 -0.027,-0.055 -0.066,-0.082 l -0.063,-0.055 0,-0.055 c -0.012,0 -0.023,-0.012 -0.039,-0.031 -0.02,-0.023 -0.027,-0.035 -0.043,-0.035 l 0.043,-0.031 c -0.012,0 -0.027,-0.008 -0.059,-0.023 -0.02,-0.023 -0.023,-0.039 -0.023,-0.055 0,-0.008 0,-0.02 0.008,-0.035 0.016,-0.02 0.02,-0.035 0.031,-0.043 l 0.086,0.082 c 0.008,0 0.012,0.012 0.02,0.031 0.016,0.023 0.02,0.039 0.02,0.047 l -0.008,0.031 0.051,0 0,-0.125 c 0.012,0 0.027,0.004 0.039,0.012 0.023,0 0.035,0 0.043,0 l 0.039,0.043 c 0.016,0 0.031,-0.004 0.051,-0.012 0.023,-0.004 0.031,-0.016 0.031,-0.031 -0.027,0 -0.039,-0.012 -0.039,-0.035 0.012,-0.004 0.027,-0.02 0.039,-0.043 0.02,-0.027 0.035,-0.051 0.043,-0.07 l 0.008,-0.031 C 21.374,24.439 21.37,24.431 21.37,24.427 l 0,-0.023 c -0.027,0.031 -0.051,0.066 -0.066,0.094 -0.008,0.023 -0.035,0.031 -0.086,0.031 -0.055,0 -0.086,-0.008 -0.086,-0.031 0.008,-0.027 0,-0.043 -0.02,-0.043 -0.035,0 -0.07,0.012 -0.105,0.023 -0.027,0.016 -0.047,0.02 -0.063,0.02 l 0,-0.094 -0.043,0 0,-0.113 -0.063,0 c -0.02,-0.023 -0.043,-0.055 -0.086,-0.082 -0.043,-0.023 -0.066,-0.07 -0.066,-0.133 l 0,-0.172 c -0.027,0 -0.043,-0.012 -0.051,-0.031 -0.008,-0.02 -0.016,-0.047 -0.031,-0.066 l 0,-0.035 c 0,-0.008 0.008,-0.012 0.02,-0.023 0.016,-0.008 0.023,-0.016 0.023,-0.02 l -0.086,-0.07 c 0,-0.016 0.008,-0.035 0.02,-0.07 0.016,-0.035 0.02,-0.063 0.02,-0.082 l -0.137,0 c 0,-0.07 0.023,-0.098 0.066,-0.09 0.047,0 0.074,-0.012 0.074,-0.035 l 0,-0.102 -0.039,-0.035 c 0,-0.004 0.004,-0.016 0.008,-0.031 0.008,-0.023 0.012,-0.035 0.012,-0.043 l -0.176,0 0,-0.082 0.039,0.043 0.074,-0.07 -0.074,-0.055 0.031,-0.031 c -0.027,-0.031 -0.07,-0.047 -0.125,-0.047 l 0.008,-0.031 c 0,-0.016 0.012,-0.035 0.031,-0.055 -0.055,0 -0.09,-0.012 -0.105,-0.035 -0.008,-0.027 -0.027,-0.051 -0.066,-0.07 l 0.078,-0.09 c 0.027,-0.031 0.043,-0.055 0.051,-0.082 l -0.07,0 c -0.027,-0.023 -0.059,-0.043 -0.078,-0.07 -0.023,-0.023 -0.039,-0.031 -0.066,-0.031 l 0.137,-0.125 -0.086,-0.035 c 0,-0.035 0.02,-0.07 0.055,-0.09 0.039,-0.023 0.063,-0.047 0.063,-0.07 l -0.031,-0.047 c -0.02,0.039 -0.051,0.063 -0.086,0.082 -0.031,0.016 -0.063,0.023 -0.098,0.023 l 0,-0.148 -0.082,0 c 0.012,-0.008 0.023,-0.02 0.023,-0.035 0.008,-0.02 0.016,-0.039 0.027,-0.055 l -0.043,0 c -0.02,0 -0.039,-0.004 -0.063,-0.012 -0.023,-0.012 -0.031,-0.027 -0.031,-0.043 l 0,-0.031 c 0,-0.008 0.004,-0.016 0.008,-0.023 -0.004,0 -0.012,-0.012 -0.02,-0.031 -0.008,-0.023 -0.008,-0.039 -0.008,-0.047 0,-0.008 0.004,-0.016 0.02,-0.031 -0.016,-0.016 -0.02,-0.031 -0.02,-0.047 0,-0.02 0,-0.051 0,-0.09 0.004,-0.043 0.008,-0.082 0.008,-0.105 l -0.051,0.016 -0.168,-0.078 -0.137,0 c -0.004,0.004 -0.016,0.016 -0.027,0.027 -0.008,0.02 -0.012,0.031 -0.012,0.043 -0.008,-0.023 -0.016,-0.043 -0.031,-0.043 -0.012,0 -0.043,0.012 -0.094,0.023 -0.043,0.012 -0.074,0.02 -0.086,0.02 l -0.074,0.023 c -0.008,0.008 -0.02,0.012 -0.031,0.012 l -0.105,0 0.051,-0.082 -0.102,-0.027 0,0.109 -0.066,-0.082 c -0.02,0.039 -0.059,0.07 -0.113,0.098 -0.051,0.02 -0.109,0.027 -0.168,0.027 -0.043,0 -0.086,0 -0.129,0 -0.039,-0.008 -0.07,-0.012 -0.082,-0.012 -0.016,0 -0.039,0.008 -0.078,0.023 -0.027,0.016 -0.043,0.031 -0.051,0.043 l 0,0.125 -0.02,0.023 -0.008,0.082 c -0.023,0.059 -0.047,0.121 -0.078,0.18 -0.023,0.059 -0.039,0.094 -0.066,0.094 l 0,0.113 0.055,-0.082 0,0.082 c -0.02,0.02 -0.027,0.051 -0.043,0.09 -0.008,0.039 -0.012,0.059 -0.012,0.07 l -0.086,0 c -0.047,0 -0.074,0.012 -0.074,0.035 l 0,0.031 c -0.008,0 -0.02,0.012 -0.027,0.035 -0.008,0.02 -0.016,0.035 -0.016,0.043 l 0,0.043 c 0.02,-0.035 0.043,-0.074 0.09,-0.102 0.047,-0.031 0.074,-0.043 0.086,-0.043 l 0,0.055 -0.043,0 0,0.191 -0.082,0 c 0,0.008 0,0.023 0.008,0.055 0.016,0.023 0.02,0.039 0.031,0.055 l 0,0.207 c -0.023,0 -0.059,0.008 -0.105,0.023 -0.039,0.012 -0.066,0.023 -0.066,0.031 l 0.016,0.012 c 0,0.016 0.004,0.023 0.012,0.031 l 0.02,0.035 c 0,0.008 -0.012,0.02 -0.031,0.043 -0.02,0.023 -0.039,0.035 -0.051,0.035 l 0.02,0.02 c 0.008,0.008 0.016,0.012 0.02,0.012 l 0,0.07 -0.039,0.035 c 0,0.004 -0.004,0.012 -0.012,0.02 0,0.008 0,0.02 0,0.035 0,0.027 0,0.059 0,0.09 0.008,0.031 0.012,0.047 0.012,0.055 -0.016,0 -0.027,0.012 -0.043,0.035 -0.012,0.023 -0.031,0.031 -0.063,0.031 l 0,-0.145 -0.105,0.18 0.086,0.031 0,0.422 c -0.023,0 -0.043,0.012 -0.066,0.031 0.008,-0.008 0.012,-0.016 0.012,-0.031 0,-0.031 -0.016,-0.047 -0.043,-0.047 m 0.645,-2.941 -0.125,0.082 0.449,0 c 0.012,0 0.023,-0.004 0.043,-0.012 0.023,-0.016 0.031,-0.023 0.039,-0.023 l 0.281,0 c 0.055,0 0.145,-0.008 0.254,-0.031 0.121,-0.023 0.23,-0.035 0.328,-0.035 l 0.223,0 c 0.023,0 0.027,-0.012 0.027,-0.043 -0.082,0 -0.125,-0.016 -0.125,-0.043 l 0.012,-0.023 c -0.031,0 -0.059,-0.023 -0.074,-0.082 -0.008,-0.059 -0.016,-0.098 -0.023,-0.113 l 0.098,-0.043 -0.051,-0.035 0,-0.031 c 0.012,-0.039 0.035,-0.063 0.074,-0.082 -0.016,-0.008 -0.035,-0.02 -0.066,-0.055 -0.02,-0.031 -0.027,-0.047 -0.051,-0.055 l -0.039,0 0.082,-0.105 -0.082,0.035 c 0.004,-0.008 0.008,-0.016 0.008,-0.023 0,-0.008 -0.004,-0.016 -0.02,-0.02 -0.012,-0.008 -0.023,-0.016 -0.031,-0.023 0,-0.016 0.008,-0.043 0.023,-0.094 0.016,-0.043 0.02,-0.07 0.02,-0.078 l 0,-0.02 c -0.008,0 -0.02,0.004 -0.031,0.012 -0.016,0.008 -0.02,0.012 -0.043,0.012 l -0.031,0 0,-0.023 c 0,-0.016 0.008,-0.031 0.023,-0.043 0.027,-0.023 0.039,-0.043 0.039,-0.055 0,-0.031 -0.012,-0.066 -0.039,-0.105 -0.02,-0.035 -0.023,-0.078 -0.023,-0.113 l 0,-0.109 c -0.027,0 -0.051,-0.016 -0.051,-0.035 l 0,-0.07 c 0,-0.016 -0.012,-0.043 -0.031,-0.09 -0.023,-0.055 -0.039,-0.09 -0.059,-0.105 l 0,-0.043 0.039,-0.023 -0.074,-0.09 0,-0.07 0.074,-0.148 c -0.02,0.023 -0.043,0.035 -0.074,0.035 l -0.031,0 c 0,-0.016 -0.016,-0.059 -0.023,-0.125 -0.004,-0.078 -0.012,-0.125 -0.02,-0.137 l 0,-0.035 -0.039,-0.043 0,-0.035 -0.043,-0.07 c 0.027,-0.035 0.059,-0.059 0.066,-0.063 0.023,-0.008 0.023,-0.059 0.023,-0.141 l -0.012,-0.102 -0.031,0.035 c -0.027,0.023 -0.043,0.043 -0.051,0.043 l -0.031,0 -0.094,-0.23 -0.043,0 c 0,0.027 -0.004,0.07 -0.02,0.125 -0.008,0.043 -0.012,0.078 -0.012,0.105 l 0,0.02 -0.094,0.09 0,0.035 0.043,0.059 0.039,0.02 c -0.008,0.012 -0.027,0.063 -0.066,0.133 -0.027,0.078 -0.055,0.117 -0.094,0.117 0,0.008 0.008,0.023 0.02,0.043 0.016,0.02 0.02,0.027 0.02,0.031 l 0,0.082 c -0.004,0.016 -0.02,0.043 -0.039,0.082 -0.016,0.027 -0.027,0.051 -0.039,0.07 0.004,0.008 0.012,0.02 0.02,0.031 0.004,0.016 0.02,0.023 0.023,0.023 l 0.012,0 c 0,0.016 0,0.027 0.008,0.031 0.02,0.008 0.023,0.016 0.023,0.02 0,0.012 -0.016,0.023 -0.039,0.035 -0.023,0.016 -0.035,0.023 -0.039,0.031 l 0,0.043 c -0.008,0.016 -0.027,0.055 -0.059,0.117 -0.02,0.059 -0.023,0.098 -0.023,0.113 l 0,0.18 c 0,0.016 -0.02,0.031 -0.043,0.043 -0.027,0.016 -0.039,0.031 -0.039,0.047 l 0,0.18 c 0,0.086 -0.023,0.156 -0.078,0.223 -0.039,0.059 -0.066,0.133 -0.066,0.215 0.027,0 0.055,-0.008 0.074,-0.023 0.023,-0.02 0.043,-0.035 0.066,-0.035 l 0.082,0 0.055,0.07 -0.012,0.012 c 0.008,0 -0.02,0.012 -0.066,0.023 -0.047,0.016 -0.074,0.027 -0.074,0.035 0,0.016 0.012,0.023 0.023,0.027 0.023,0 0.031,0.012 0.031,0.023 0,0.008 -0.008,0.023 -0.023,0.035 -0.016,0.012 -0.02,0.023 -0.02,0.031 l 0,0.082 c 0,0.008 -0.008,0.02 -0.023,0.043 -0.016,0.016 -0.02,0.027 -0.02,0.035 l 0,0.031 c 0,0.008 -0.004,0.027 -0.023,0.055 -0.012,0.031 -0.02,0.047 -0.02,0.055 l 0,0.047 -0.031,0.031 c -0.016,0.008 -0.023,0.016 -0.031,0.023 -0.008,0.008 -0.012,0.012 -0.02,0.012 l -0.031,-0.012 0,-0.043 -0.039,0.008 m 1.512,-1.441 c 0,0.043 0.023,0.078 0.059,0.102 0.027,0.023 0.063,0.035 0.102,0.035 l -0.008,0.023 c 0,0.02 0.008,0.031 0.027,0.031 0.023,0 0.043,-0.012 0.043,-0.031 0,-0.023 -0.02,-0.031 -0.043,-0.031 l -0.012,0 C 19.974,19.796 19.967,19.772 19.947,19.737 19.943,19.71 19.9,19.694 19.822,19.694 m -2.852,4.887 c 0,-0.031 0.012,-0.043 0.031,-0.043 l 0.043,0 c 0.027,0.027 0.039,0.07 0.039,0.113 0,0.016 -0.008,0.02 -0.031,0.031 -0.02,0.008 -0.035,0.012 -0.051,0.012 l 0.012,-0.031 c 0,-0.023 -0.016,-0.051 -0.043,-0.082 m 3.082,-2.703 c 0.043,0 0.078,-0.016 0.105,-0.043 -0.012,0 -0.023,-0.008 -0.027,-0.023 -0.008,-0.023 -0.012,-0.039 -0.012,-0.043 l 0.051,-0.047 -0.117,0 0,0.16 M 18.38,20.734 c 0,0.012 0.004,0.035 0.008,0.07 0.016,0.02 0.027,0.035 0.031,0.043 0.016,-0.008 0.023,-0.023 0.031,-0.043 0.008,-0.031 0.012,-0.055 0.012,-0.07 0,-0.023 -0.023,-0.035 -0.074,-0.035 l -0.012,0.035 m -0.871,3.215 c 0,-0.023 0.008,-0.047 0.027,-0.07 l 0.055,-0.055 -0.086,0 c 0,0.008 -0.016,0.016 -0.043,0.031 -0.02,0.016 -0.031,0.027 -0.031,0.035 l 0.078,0.055 m 2.324,-3.637 -0.137,0.148 0.02,0.023 0.086,-0.047 c 0,-0.012 0.004,-0.02 0.008,-0.031 0.016,-0.02 0.023,-0.027 0.023,-0.035 l 0,-0.055 m 0.832,2.879 c 0,0.004 0.004,0.016 0.008,0.031 0.016,0.016 0.023,0.027 0.031,0.043 l 0.086,-0.148 -0.043,-0.047 c 0,0.016 -0.004,0.039 -0.02,0.07 -0.012,0.031 -0.031,0.047 -0.063,0.047 m -1.336,-4.273 c 0.039,0 0.078,-0.008 0.105,-0.02 0.031,-0.02 0.051,-0.027 0.051,-0.043 l -0.156,0 0,0.066 m 1.051,2.309 c -0.027,0 -0.039,0.016 -0.039,0.043 0,0.027 0.012,0.047 0.039,0.047 l 0.012,0 c 0,0.012 0.008,0.02 0.031,0.02 0.02,0 0.031,-0.012 0.031,-0.031 0,-0.023 -0.012,-0.035 -0.031,-0.035 l -0.012,0 -0.031,-0.043 m 0.242,-0.035 0.043,0.035 c 0.012,0 0.031,-0.004 0.051,-0.012 0.02,-0.008 0.031,-0.016 0.031,-0.023 0,-0.004 -0.012,-0.012 -0.031,-0.02 -0.02,-0.016 -0.039,-0.023 -0.051,-0.023 l -0.043,-0.012 0,0.055 m -0.039,0.582 c -0.016,0.012 -0.031,0.031 -0.051,0.055 -0.023,0.012 -0.031,0.039 -0.031,0.078 l 0,0.07 0.039,0 0,-0.07 0.043,-0.133 m 0.336,2.215 c -0.012,0 -0.035,0.012 -0.063,0.035 -0.027,0.02 -0.051,0.035 -0.066,0.043 l 0,0.023 0.168,-0.07 0,-0.035 -0.043,0 m 0.379,0 c 0.027,0 0.043,-0.012 0.043,-0.031 0.031,0.035 0.051,0.078 0.051,0.125 -0.043,0 -0.07,-0.016 -0.078,-0.047 l -0.02,-0.043 m -1.754,-4.453 c 0.012,0 0.023,-0.012 0.031,-0.031 0.012,-0.02 0.02,-0.047 0.02,-0.07 -0.008,-0.008 -0.012,-0.016 -0.012,-0.02 l 0,-0.023 -0.113,0.105 0.074,-0.035 0,0.082 m -1.988,3.434 0.125,0 0,-0.102 -0.125,0.102 m 3.492,1.059 c 0,0.027 0.012,0.043 0.039,0.043 0.008,-0.008 0.016,-0.02 0.02,-0.035 0.016,-0.02 0.023,-0.035 0.023,-0.043 -0.008,0 -0.016,-0.004 -0.023,-0.012 l -0.02,-0.02 -0.039,0.066 m -1.156,-3.816 c -0.027,0 -0.043,0.012 -0.043,0.043 0,0.031 0.016,0.043 0.043,0.043 0.02,0 0.031,-0.012 0.031,-0.043 l -0.031,-0.043 m -1.918,2.01 0.031,0.027 c -0.02,0.023 -0.031,0.035 -0.031,0.043 l 0,0.035 0.086,-0.082 0,-0.027 -0.086,0 m -0.25,1.168 c -0.008,0.008 -0.02,0.02 -0.031,0.031 -0.008,0.02 -0.012,0.023 -0.012,0.031 l 0,0.117 c 0,-0.008 0.008,-0.02 0.023,-0.035 0.012,-0.016 0.02,-0.02 0.02,-0.031 l 0,-0.113 m 0,-0.828 0.051,0 c 0,-0.078 -0.016,-0.113 -0.051,-0.113 l 0,0.113 m 1.703,-4.648 c 0.02,0 0.031,0.016 0.031,0.047 0,0.023 -0.012,0.031 -0.031,0.031 -0.027,0 -0.039,-0.012 -0.039,-0.031 0,-0.031 0.012,-0.047 0.039,-0.047 m -0.543,3.512 c -0.023,0 -0.031,0.02 -0.031,0.043 0,0.023 0.008,0.035 0.031,0.035 0.023,0 0.039,-0.012 0.039,-0.035 0,-0.023 -0.016,-0.043 -0.039,-0.043 m 2.461,3.383 c -0.023,0 -0.031,0.023 -0.031,0.063 0,0.023 0.008,0.043 0.031,0.043 0.02,0 0.027,-0.02 0.027,-0.043 l -0.027,-0.063 m -1.621,-5.23 c -0.027,0 -0.039,0.012 -0.039,0.043 0,0.02 0.012,0.031 0.039,0.031 0.02,0 0.031,-0.012 0.031,-0.031 l -0.031,-0.043 m -2.336,4.938 c 0.027,0 0.043,0.02 0.043,0.043 0,0.023 -0.016,0.035 -0.043,0.035 -0.02,0 -0.031,-0.012 -0.031,-0.035 l 0.031,-0.043 m 0.633,-2.469 c -0.02,0 -0.031,0.016 -0.031,0.047 0,0.027 0.012,0.043 0.031,0.043 0.02,0 0.031,-0.016 0.031,-0.043 l -0.031,-0.047 m 1.566,-3.578 c -0.02,0 -0.031,0.02 -0.031,0.043 0,0.031 0.012,0.043 0.031,0.043 0.02,0 0.031,-0.012 0.031,-0.043 l -0.031,-0.043 m 1.629,5.883 c -0.02,0 -0.031,0.02 -0.031,0.051 0,0.023 0.012,0.043 0.031,0.043 0.023,0 0.031,-0.02 0.031,-0.043 l -0.031,-0.051 m 0.086,0 c -0.02,0 -0.031,0.02 -0.031,0.051 0,0.023 0.012,0.043 0.031,0.043 0.02,0 0.031,-0.02 0.031,-0.043 l -0.031,-0.051 m -3.41,-3.117 c -0.02,0 -0.027,0.016 -0.027,0.043 0,0.027 0.008,0.047 0.027,0.047 0.023,0 0.031,-0.02 0.031,-0.047 l -0.031,-0.043 m 2.285,-0.191 c -0.02,0 -0.031,0.016 -0.031,0.043 0,0.031 0.012,0.047 0.031,0.047 0.02,0 0.031,-0.016 0.031,-0.047 l -0.031,-0.043 m -3.03,2.922 c 0.023,0 0.031,0.008 0.031,0.031 0,0.02 -0.008,0.035 -0.031,0.035 -0.027,0 -0.039,-0.016 -0.039,-0.035 0,-0.023 0.012,-0.031 0.039,-0.031 m 1.125,-4.422 c 0.023,0 0.031,0.012 0.031,0.035 0,0.02 -0.008,0.031 -0.031,0.031 -0.027,0 -0.039,-0.016 -0.039,-0.031 0,-0.023 0.012,-0.035 0.039,-0.035 m 1.871,1.285 c 0,0.02 0.012,0.035 0.031,0.035 0.02,0 0.031,-0.016 0.031,-0.035 0,-0.027 -0.012,-0.043 -0.031,-0.043 -0.02,0 -0.031,0.016 -0.031,0.043 m 0.191,1.352 c -0.012,0 -0.02,0.016 -0.02,0.047 0,0.02 0.008,0.031 0.02,0.031 0.027,0 0.043,-0.012 0.043,-0.031 0,-0.031 -0.016,-0.047 -0.043,-0.047 m -0.902,-3.5 c -0.027,0 -0.039,0.012 -0.039,0.035 0,0.023 0.012,0.031 0.039,0.031 0.02,0 0.031,-0.008 0.031,-0.031 l -0.031,-0.035 m 0.293,2.648 c -0.027,0 -0.039,0.012 -0.039,0.035 0,0.02 0.012,0.027 0.039,0.027 0.02,0 0.031,-0.008 0.031,-0.027 l -0.031,-0.035 m 0.66,-0.191 c -0.027,0 -0.039,0.012 -0.039,0.035 0,0.023 0.012,0.031 0.039,0.031 0.023,0 0.031,-0.008 0.031,-0.031 l -0.031,-0.035 m 0,1.285 c -0.027,0 -0.039,0.012 -0.039,0.035 0,0.02 0.012,0.031 0.039,0.031 0.023,0 0.031,-0.012 0.031,-0.031 l -0.031,-0.035 m -2.324,-0.68 0,-0.098 -0.086,0 0.086,0.098 m 0.988,-3.063 c 0.027,0 0.043,0.016 0.043,0.035 0,0.023 -0.016,0.031 -0.043,0.031 -0.02,0 -0.031,-0.008 -0.031,-0.031 l 0.031,-0.035 m 1.281,2.188 c 0.027,0 0.043,0.012 0.043,0.043 0,0.02 -0.016,0.027 -0.043,0.027 -0.012,0 -0.02,-0.008 -0.02,-0.027 l 0.02,-0.043 m 0.719,2.027 c 0.02,0 0.027,0.02 0.027,0.043 0,0.023 -0.008,0.035 -0.027,0.035 -0.023,0 -0.031,-0.012 -0.031,-0.035 l 0.031,-0.043 m -2.492,-2.477 c 0.02,0 0.031,0.012 0.031,0.043 0,0.023 -0.012,0.031 -0.031,0.031 -0.02,0 -0.031,-0.008 -0.031,-0.031 l 0.031,-0.043 m 1.211,-0.695 c -0.023,0 -0.031,0.02 -0.031,0.047 0,0.023 0.008,0.031 0.031,0.031 0.02,0 0.027,-0.012 0.027,-0.031 l -0.027,-0.047 m 0.859,2.453 c -0.02,0 -0.031,0.02 -0.031,0.047 0,0.023 0.012,0.031 0.031,0.031 0.023,0 0.031,-0.012 0.031,-0.031 L 20.614,22.18 m -1.156,-3.055 c -0.02,0 -0.027,0.012 -0.027,0.043 0,0.023 0.008,0.031 0.027,0.031 0.023,0 0.031,-0.008 0.031,-0.031 l -0.031,-0.043 m 0.16,-0.035 c -0.023,0 -0.031,0.016 -0.031,0.043 0,0.023 0.008,0.035 0.031,0.035 0.02,0 0.027,-0.012 0.027,-0.035 L 19.618,19.09 m 1.207,4.262 c -0.02,0 -0.027,0.02 -0.027,0.043 0,0.023 0.008,0.035 0.027,0.035 0.023,0 0.031,-0.012 0.031,-0.035 l -0.031,-0.043 m -1.367,-4.418 c -0.02,0 -0.027,0.016 -0.027,0.043 0,0.023 0.008,0.031 0.027,0.031 0.023,0 0.031,-0.008 0.031,-0.031 l -0.031,-0.043 m 0.961,3.215 c -0.023,0 -0.031,0.02 -0.031,0.043 0,0.023 0.008,0.035 0.031,0.035 0.02,0 0.031,-0.012 0.031,-0.035 l -0.031,-0.043 m 0.367,1.316 c -0.02,0 -0.031,0.016 -0.031,0.047 0,0.023 0.012,0.031 0.031,0.031 0.02,0 0.031,-0.012 0.031,-0.031 l -0.031,-0.047 m 0.254,-0.031 c -0.023,0 -0.031,0.02 -0.031,0.043 0,0.023 0.008,0.035 0.031,0.035 0.02,0 0.027,-0.012 0.027,-0.035 L 21.04,23.434 m -0.297,-0.082 c -0.02,0 -0.027,0.02 -0.027,0.043 0,0.023 0.008,0.035 0.027,0.035 0.023,0 0.031,-0.012 0.031,-0.035 l -0.031,-0.043 m -2.195,-4.828 c -0.023,0 -0.031,0.02 -0.031,0.043 0,0.023 0.008,0.035 0.031,0.035 0.02,0 0.027,-0.012 0.027,-0.035 l -0.027,-0.043 m 0.617,-0.227 c -0.02,0 -0.027,0.016 -0.027,0.047 0,0.02 0.008,0.031 0.027,0.031 0.023,0 0.031,-0.012 0.031,-0.031 l -0.031,-0.047 m -0.859,3.395 c -0.023,0 -0.031,0.02 -0.031,0.047 0,0.02 0.008,0.031 0.031,0.031 0.02,0 0.031,-0.012 0.031,-0.031 l -0.031,-0.047 m -0.168,-0.227 c -0.02,0 -0.031,0.016 -0.031,0.047 0,0.02 0.012,0.031 0.031,0.031 0.02,0 0.031,-0.012 0.031,-0.031 L 18.138,21.465 M 17.72,24 c -0.023,0 -0.031,0.016 -0.031,0.043 0,0.02 0.008,0.035 0.031,0.035 0.02,0 0.027,-0.016 0.027,-0.035 L 17.72,24 m 3.156,-0.828 c -0.023,0 -0.031,0.016 -0.031,0.043 0,0.023 0.008,0.035 0.031,0.035 0.02,0 0.027,-0.012 0.027,-0.035 l -0.027,-0.043 m -0.664,-1.738 c -0.02,0 -0.031,0.016 -0.031,0.043 0,0.023 0.012,0.035 0.031,0.035 0.023,0 0.031,-0.012 0.031,-0.035 l -0.031,-0.043 m 0.746,2.453 c -0.02,0 -0.027,0.016 -0.027,0.043 0,0.023 0.008,0.035 0.027,0.035 0.023,0 0.031,-0.012 0.031,-0.035 l -0.031,-0.043 m -3.07,-0.988 c -0.02,0 -0.031,0.016 -0.031,0.043 0,0.023 0.012,0.035 0.031,0.035 0.02,0 0.031,-0.012 0.031,-0.035 l -0.031,-0.043 m 0.168,-2.07 c -0.02,0 -0.031,0.016 -0.031,0.047 0,0.02 0.012,0.031 0.031,0.031 0.02,0 0.031,-0.012 0.031,-0.031 l -0.031,-0.047 m 0.41,-0.715 c -0.023,0 -0.031,0.016 -0.031,0.047 0,0.02 0.008,0.031 0.031,0.031 0.02,0 0.031,-0.012 0.031,-0.031 l -0.031,-0.047 m -0.914,3.582 c -0.02,0 -0.031,0.016 -0.031,0.043 0,0.023 0.012,0.035 0.031,0.035 0.02,0 0.031,-0.012 0.031,-0.035 l -0.031,-0.043 m -0.086,0.668 c -0.012,0 -0.02,0.016 -0.02,0.047 0,0.027 0.008,0.043 0.02,0.043 0.02,0 0.031,-0.016 0.031,-0.043 l -0.031,-0.047 m 3.03,-1.84 c -0.016,0 -0.02,0.016 -0.02,0.043 0,0.031 0.004,0.047 0.02,0.047 0.02,0 0.031,-0.016 0.031,-0.047 l -0.031,-0.043 m -2.145,-1.477 c -0.02,0 -0.031,0.016 -0.031,0.043 0,0.031 0.012,0.047 0.031,0.047 0.012,0 0.02,-0.016 0.02,-0.047 l -0.02,-0.043 m -0.914,2.543 c -0.027,0 -0.039,0.012 -0.039,0.035 0,0.02 0.012,0.031 0.039,0.031 0.016,0 0.02,-0.012 0.02,-0.031 l -0.02,-0.035 m 3.816,0.863 c -0.023,0 -0.027,0.012 -0.027,0.035 0,0.02 0.008,0.027 0.027,0.027 0.02,0 0.027,-0.012 0.027,-0.027 l -0.027,-0.035 m -0.996,-1.84 c 0.02,0 0.031,0.008 0.031,0.027 0,0.023 -0.016,0.035 -0.031,0.035 -0.023,0 -0.031,-0.012 -0.031,-0.035 l 0.031,-0.027 m -2.578,1.156 c -0.023,0 -0.031,0.012 -0.031,0.031 0,0.023 0.012,0.035 0.031,0.035 0.02,0 0.031,-0.012 0.031,-0.035 l -0.031,-0.031 m 3.113,-1.156 c -0.023,0 -0.031,0.008 -0.031,0.027 0,0.023 0.008,0.035 0.031,0.035 0.02,0 0.027,-0.012 0.027,-0.035 l -0.027,-0.027 m -2.734,0.262 c -0.02,0 -0.031,0.008 -0.031,0.031 0,0.02 0.012,0.031 0.031,0.031 0.02,0 0.031,-0.012 0.031,-0.031 l -0.031,-0.031 m 2.902,0.438 c -0.023,0 -0.031,0.016 -0.031,0.031 0,0.023 0.012,0.035 0.031,0.035 0.02,0 0.027,-0.012 0.027,-0.035 L 20.96,23.313 m -3.363,0.309 c -0.02,0 -0.031,0.012 -0.031,0.027 0,0.023 0.012,0.035 0.031,0.035 0.02,0 0.031,-0.012 0.031,-0.035 l -0.031,-0.027 m 3.363,0.453 c -0.023,0 -0.031,0.012 -0.031,0.027 0,0.023 0.012,0.035 0.031,0.035 0.02,0 0.027,-0.012 0.027,-0.035 L 20.96,24.075 m -3.363,-1.25 c -0.02,0 -0.031,0.012 -0.031,0.031 0,0.023 0.012,0.031 0.031,0.031 0.02,0 0.031,-0.012 0.031,-0.031 l -0.031,-0.031 m 0.086,0.449 c -0.02,0 -0.031,0.016 -0.031,0.035 0,0.023 0.012,0.031 0.031,0.031 0.02,0 0.031,-0.012 0.031,-0.031 l -0.031,-0.035 m 2.945,-1.949 c -0.023,0 -0.031,0.008 -0.031,0.027 0,0.023 0.012,0.035 0.031,0.035 0.02,0 0.027,-0.012 0.027,-0.035 l -0.027,-0.027 m -1.453,-4.082 c -0.023,0 -0.031,0.012 -0.031,0.027 0,0.023 0.012,0.035 0.031,0.035 0.02,0 0.031,-0.012 0.031,-0.035 l -0.031,-0.027 m -1.617,5.816 c -0.023,0 -0.031,0.008 -0.031,0.031 0,0.023 0.008,0.035 0.031,0.035 0.02,0 0.027,-0.012 0.027,-0.035 l -0.027,-0.031 m 3.66,1.191 c -0.023,0 -0.031,0.012 -0.031,0.035 0,0.02 0.012,0.031 0.031,0.031 0.02,0 0.031,-0.012 0.031,-0.031 L 21.218,24.25 m -2.453,-6.762 c 0.023,0 0.031,0.012 0.031,0.031 0,0.023 -0.008,0.035 -0.031,0.035 -0.02,0 -0.031,-0.012 -0.031,-0.035 l 0.031,-0.031 m -1.039,5.57 c -0.02,0 -0.031,0.008 -0.031,0.031 0,0.023 0.012,0.035 0.031,0.035 0.02,0 0.031,-0.012 0.031,-0.035 l -0.031,-0.031 m 0.789,-4.387 c -0.02,0 -0.031,0.008 -0.031,0.031 0,0.023 0.012,0.035 0.031,0.035 0.02,0 0.031,-0.012 0.031,-0.035 l -0.031,-0.031 m 0.211,0.145 c -0.02,0 -0.031,0.012 -0.031,0.035 0,0.023 0.012,0.031 0.031,0.031 0.02,0 0.031,-0.008 0.031,-0.031 l -0.031,-0.035 m 1.703,3.02 c -0.023,0 -0.031,0.012 -0.031,0.035 0,0.023 0.012,0.031 0.031,0.031 0.02,0 0.031,-0.008 0.031,-0.031 l -0.031,-0.035 m -1.66,-3.68 c -0.02,0 -0.031,0.008 -0.031,0.031 0,0.023 0.012,0.035 0.031,0.035 0.02,0 0.031,-0.012 0.031,-0.035 l -0.031,-0.031 m -0.703,3.352 c -0.023,0 -0.031,0.008 -0.031,0.031 0,0.023 0.008,0.035 0.031,0.035 0.02,0 0.027,-0.012 0.027,-0.035 l -0.027,-0.031 m -0.465,2.781 c -0.02,0 -0.031,0.012 -0.031,0.035 0,0.023 0.012,0.031 0.031,0.031 0.02,0 0.031,-0.008 0.031,-0.031 l -0.031,-0.035 m 0.168,-1.043 c -0.023,0 -0.031,0.012 -0.031,0.031 0,0.023 0.008,0.035 0.031,0.035 0.02,0 0.031,-0.012 0.031,-0.035 l -0.031,-0.031 m 3.363,-0.184 c 0.02,0 0.031,0.012 0.031,0.035 0,0.023 -0.016,0.031 -0.031,0.031 -0.023,0 -0.031,-0.008 -0.031,-0.031 l 0.031,-0.035 m -0.871,-2.043 c -0.023,0 -0.031,0.012 -0.031,0.035 0,0.02 0.008,0.031 0.031,0.031 0.02,0 0.027,-0.012 0.027,-0.031 l -0.027,-0.035 m 1.336,3.852 c 0.02,0 0.027,0.012 0.027,0.035 0,0.023 -0.012,0.031 -0.027,0.031 -0.023,0 -0.031,-0.008 -0.031,-0.031 l 0.031,-0.035 m -0.969,-2 c -0.023,0 -0.031,0.012 -0.031,0.035 0,0.023 0.012,0.031 0.031,0.031 0.02,0 0.027,-0.008 0.027,-0.031 l -0.027,-0.035 m -2.859,-0.238 c -0.055,0 -0.086,0.016 -0.086,0.043 l 0.086,0 0,-0.043 m -0.621,1.445 c 0.012,0.016 0.02,0.031 0.02,0.055 0,0.027 -0.012,0.043 -0.031,0.043 -0.008,0 -0.008,-0.016 -0.008,-0.043 l 0,-0.02 0.02,-0.031 m 2.984,-1.82 c 0.023,0 0.031,0.016 0.031,0.043 0,0.023 -0.008,0.035 -0.031,0.035 -0.012,0 -0.02,-0.012 -0.02,-0.035 l 0.02,-0.043 m -2.492,0.875 -0.008,-0.008 c -0.016,0 -0.031,0.008 -0.051,0.031 -0.023,0.016 -0.031,0.023 -0.031,0.031 l 0.008,0.012 c 0.016,0 0.031,-0.012 0.055,-0.031 l 0.027,-0.035 m 1.66,-4.156 c -0.02,0 -0.031,0.016 -0.031,0.043 0,0.023 0.012,0.035 0.031,0.035 0.016,0 0.023,-0.012 0.023,-0.035 L 19.301,18.981 M 18.809,18.79 c -0.02,0 -0.031,0.016 -0.031,0.043 0,0.023 0.012,0.035 0.031,0.035 0.012,0 0.02,-0.012 0.02,-0.035 l -0.02,-0.043 m 0.703,0.797 c -0.02,0 -0.027,0.012 -0.027,0.043 0,0.02 0.008,0.031 0.027,0.031 0.016,0 0.023,-0.012 0.023,-0.031 L 19.512,19.587 M 18.188,21.7 c -0.02,0 -0.031,0.012 -0.031,0.043 0,0.023 0.012,0.035 0.031,0.035 0.012,0 0.02,-0.012 0.02,-0.035 L 18.188,21.7 m 1.113,-0.344 c -0.02,0 -0.031,0.016 -0.031,0.043 0,0.023 0.012,0.035 0.031,0.035 0.016,0 0.023,-0.012 0.023,-0.035 l -0.023,-0.043 m 1.168,0 c -0.02,0 -0.031,0.016 -0.031,0.043 0,0.023 0.012,0.035 0.031,0.035 0.012,0 0.02,-0.012 0.02,-0.035 l -0.02,-0.043 m -1.137,-2.785 c -0.012,0 -0.02,0.016 -0.02,0.047 0,0.02 0.008,0.031 0.02,0.031 0.02,0 0.031,-0.012 0.031,-0.031 l -0.031,-0.047 m -0.945,0.898 c -0.016,0 -0.023,0.016 -0.023,0.047 0,0.02 0.008,0.031 0.023,0.031 0.02,0 0.027,-0.012 0.027,-0.031 l -0.027,-0.047 m 1.418,1.477 c -0.02,0 -0.027,0.016 -0.027,0.047 0,0.02 0.008,0.031 0.027,0.031 0.016,0 0.023,-0.012 0.023,-0.031 l -0.023,-0.047 m -2.246,3.16 c 0.027,0 0.039,-0.008 0.039,-0.02 0,-0.008 -0.008,-0.023 -0.02,-0.047 -0.008,-0.023 -0.016,-0.031 -0.02,-0.031 l 0,0.102 m 3.32,-0.512 0.043,0 c 0.023,0 0.039,-0.016 0.039,-0.043 l 0,-0.035 -0.086,0.082 m -0.125,-1.215 0.043,-0.07 -0.086,0 0.039,0.07 m -0.648,-1.395 c -0.023,0 -0.031,0.012 -0.031,0.027 0,0.023 0.008,0.035 0.031,0.035 0.012,0 0.02,-0.012 0.02,-0.035 l -0.02,-0.027 m 1.324,3.281 c -0.023,0 -0.031,0.016 -0.031,0.031 0,0.023 0.012,0.035 0.031,0.035 0.016,0 0.02,-0.012 0.02,-0.035 l -0.02,-0.031 m -1.492,-2.934 c -0.023,0 -0.031,0.012 -0.031,0.035 0,0.02 0.012,0.031 0.031,0.031 0.012,0 0.02,-0.012 0.02,-0.031 l -0.02,-0.035 m 0.125,-1.297 -0.008,0 c -0.02,0 -0.031,0.012 -0.059,0.035 -0.02,0.02 -0.023,0.035 -0.023,0.043 0.02,0 0.039,-0.012 0.063,-0.031 l 0.031,-0.047 m -0.922,-2.531 c -0.016,0 -0.023,0.008 -0.023,0.031 0,0.023 0.008,0.035 0.023,0.035 0.02,0 0.027,-0.012 0.027,-0.035 l -0.027,-0.031 m 0.199,0.84 c -0.016,0 -0.023,0.012 -0.023,0.031 0,0.023 0.008,0.035 0.023,0.035 0.02,0 0.027,-0.012 0.027,-0.035 l -0.027,-0.031 m 0.211,0.828 c -0.016,0 -0.023,0.012 -0.023,0.031 0,0.023 0.008,0.035 0.023,0.035 0.02,0 0.031,-0.012 0.031,-0.035 l -0.031,-0.031 m 0.422,2.375 c -0.016,0 -0.023,0.012 -0.023,0.031 0,0.023 0.008,0.035 0.023,0.035 0.02,0 0.027,-0.012 0.027,-0.035 l -0.027,-0.031 m 0,-0.637 c -0.016,0 -0.023,0.012 -0.023,0.031 0,0.023 0.008,0.035 0.023,0.035 0.02,0 0.027,-0.012 0.027,-0.035 L 19.968,20.917 M 18.683,18.28 c -0.027,0 -0.039,0.02 -0.039,0.07 l 0.086,-0.07 -0.043,0 m -0.621,3.719 c 0,-0.008 -0.012,-0.012 -0.039,-0.012 -0.027,0 -0.039,0.004 -0.039,0.012 0,0.016 0.008,0.023 0.027,0.023 l 0.023,0 0.023,-0.023 m 2.441,1.258 c 0,0.023 -0.012,0.035 -0.031,0.035 l -0.039,0 c 0,-0.023 0.023,-0.035 0.074,-0.035 m -2.148,-2.387 -0.008,0 c -0.027,0 -0.043,0.012 -0.043,0.035 0,0.008 0.008,0.012 0.023,0.012 0.02,0 0.027,-0.016 0.027,-0.047 m 2.398,0.465 0.039,-0.043 -0.086,0 0.043,0.043 m -0.422,0.703 0.055,-0.043 -0.086,0 0.031,0.043 m 0.504,1.875 c -0.008,0 -0.02,0.008 -0.031,0.023 -0.008,0.016 -0.012,0.023 -0.012,0.027 l 0.012,0 c 0.027,0 0.039,-0.004 0.039,-0.02 l -0.008,-0.035 m -2.945,-1.852 c -0.02,0 -0.031,0.012 -0.031,0.035 0,0.004 0.008,0.008 0.023,0.008 0.02,0 0.027,-0.004 0.027,-0.008 l -0.02,-0.035 m 0.328,-0.898 0.051,-0.07 -0.051,0 0,0.07 m 0.504,-3.309 c 0.004,0.008 0.008,0.02 0.008,0.035 0,0.02 -0.004,0.031 -0.008,0.031 -0.016,0 -0.02,-0.012 -0.02,-0.031 l 0.02,-0.035 m -0.168,2.023 -0.012,0 c -0.02,0 -0.027,0.012 -0.027,0.031 0,0.008 0.004,0.012 0.02,0.012 0.016,0 0.023,-0.016 0.023,-0.043 m 0.988,-1.16 0.043,-0.035 -0.043,-0.031 0,0.07 m -1.566,4.082 0,-0.035 -0.086,0 0.086,0.035 m 2.324,-0.988 -0.012,0 c -0.012,0.008 -0.012,0.016 -0.012,0.02 0,0.02 0.004,0.023 0.023,0.023 0.012,0 0.02,-0.004 0.02,-0.012 L 20.3,21.81 m -2.281,1.066 c -0.023,0 -0.039,0.008 -0.039,0.023 l 0,0.043 0.039,-0.07 m -0.336,1.035 c -0.008,-0.008 -0.016,-0.012 -0.02,-0.012 l -0.023,0.012 c 0,0.023 0.008,0.035 0.023,0.035 l 0.02,-0.035 m 1.531,-5.988 c -0.012,0 -0.023,0.008 -0.023,0.023 0,0.016 0.012,0.02 0.023,0.02 l 0.012,-0.008 -0.012,-0.035 m -2.121,6.566 c 0,0.016 -0.008,0.023 -0.023,0.023 -0.016,0 -0.02,-0.008 -0.02,-0.023 l 0.012,-0.008 0.031,0.008 m 2.672,-3.621 c -0.016,0 -0.02,0.004 -0.02,0.02 0,0.016 0.004,0.023 0.02,0.023 l 0.008,-0.012 -0.008,-0.031 m -1.957,2.27 0,-0.012 c 0,-0.004 -0.008,-0.008 -0.02,-0.008 -0.02,0 -0.023,0.008 -0.023,0.02 l 0.012,0.012 0.031,-0.012 m 2.984,0.754 0.043,-0.047 -0.043,0 0,0.047 m 0.168,-0.637 0.043,0 -0.043,-0.047 0,0.047 m -2.324,-3.969 0,-0.043 -0.043,0 0.043,0.043 m -0.707,2.59 0.086,0 -0.039,-0.023 -0.043,0.023 m 0.789,-3.535 0.039,0 0,-0.047 -0.039,0.047 m 0,0.75 -0.012,0 c -0.027,0 -0.039,0.008 -0.039,0.023 l 0.02,0.012 0.031,-0.035 m -0.504,2.715 c -0.008,0 -0.012,0.008 -0.012,0.023 0,0.012 0.004,0.02 0.012,0.02 0.012,0 0.02,-0.004 0.02,-0.012 l -0.02,-0.031 m 1.996,0.293 -0.023,-0.008 c -0.016,0 -0.02,0.004 -0.02,0.008 0,0.016 0.004,0.023 0.012,0.023 l 0.031,-0.023 m -1.621,-3.422 0.02,0.023 c 0.008,0.008 0.016,0.012 0.023,0.012 l 0,-0.035 -0.043,0 m 0.457,-0.578 c -0.008,0 -0.012,0.012 -0.012,0.035 0,0.016 0.004,0.023 0.012,0.023 l 0.008,-0.012 -0.008,-0.047 m -1.074,6.05 0.008,0.023 c 0,0.008 -0.004,0.012 -0.02,0.012 l -0.023,-0.012 0.031,-0.023 m -0.535,-0.602 -0.051,0 c 0,0.016 0.004,0.02 0.02,0.02 l 0.031,-0.02 m 0.516,-1.137 c -0.008,0 -0.023,0.004 -0.039,0.012 -0.02,0.004 -0.023,0.016 -0.023,0.031 l 0.066,-0.043 m -0.105,-0.07 0,-0.035 -0.039,0 0.039,0.035 m 2.617,0.535 0.031,0 0,-0.047 -0.031,0.047 m -0.797,-3.297 0,-0.035 -0.039,0 0.039,0.035 m -0.41,-1.48 0,-0.035 -0.039,0 0.039,0.035 m -1.914,6.613 c 0,0.008 -0.008,0.012 -0.02,0.012 -0.02,0 -0.023,-0.004 -0.023,-0.012 l 0.008,-0.012 0.031,0.012 m 2.199,-5.707 c -0.008,0 -0.012,0.008 -0.012,0.023 0,0.016 0.004,0.02 0.012,0.02 l 0.012,-0.012 -0.012,-0.035 m 1,2.348 c -0.008,0 -0.012,0.008 -0.012,0.02 0,0.016 0.004,0.023 0.012,0.023 l 0.008,-0.012 -0.008,-0.031 m -0.117,0.156 c 0,-0.008 -0.008,-0.012 -0.02,-0.012 -0.016,0 -0.023,0.004 -0.023,0.012 l 0.012,0.012 0.031,-0.012 m 0.039,0.266 -0.02,-0.016 c -0.012,0 -0.02,0.004 -0.02,0.016 l 0.012,0.008 0.027,-0.008 m -0.051,-0.492 c -0.02,0.016 -0.031,0.023 -0.031,0.035 l 0.012,0.008 0.02,-0.043 m -0.988,-2.5 -0.051,0 c 0,0.008 0.008,0.012 0.02,0.012 l 0.031,-0.012 m 1.41,5.363 c -0.008,0 -0.012,0.008 -0.012,0.02 l 0.02,0.012 -0.008,-0.031 M 17.668,24.09 c 0,0.031 -0.008,0.047 -0.02,0.047 l 0.02,-0.047 m 3.168,-1.305 -0.012,0.012 c 0,0.012 0.004,0.023 0.012,0.023 l 0,-0.031 m 0.336,0.793 0.012,0.012 c 0,0.016 -0.004,0.023 -0.012,0.023 l 0,-0.035 m -1.211,-3.578 -0.02,0.012 c 0,0.008 0.008,0.004 0.02,-0.012"
         inkscape:connector-curvature="0"
         style="fill:#f9f9f9;fill-opacity:1;fill-rule:nonzero;stroke:none" />
      <path
         id="path4293"
         d="m 22.547,23.05 c -0.008,0 -0.016,0.004 -0.023,0.012 0.016,-0.016 0.023,-0.035 0.023,-0.055 0,-0.008 -0.008,-0.023 -0.023,-0.047 -0.012,-0.02 -0.02,-0.035 -0.02,-0.043 0,-0.008 0.008,-0.02 0.02,-0.031 0.016,-0.016 0.023,-0.027 0.023,-0.035 0,-0.059 -0.012,-0.105 -0.031,-0.137 -0.016,-0.027 -0.02,-0.063 -0.02,-0.102 0,-0.039 0,-0.082 0,-0.125 0.004,-0.043 0.008,-0.078 0.008,-0.094 0,-0.008 -0.008,-0.023 -0.02,-0.055 -0.016,-0.027 -0.02,-0.059 -0.02,-0.07 0,-0.016 0.008,-0.039 0.031,-0.082 0.02,-0.035 0.035,-0.066 0.051,-0.078 -0.016,0 -0.027,-0.012 -0.043,-0.035 -0.012,-0.02 -0.02,-0.039 -0.02,-0.055 0,-0.027 0.008,-0.051 0.02,-0.07 l 0.043,-0.031 0,-0.055 c -0.016,0 -0.031,-0.004 -0.051,-0.012 -0.023,-0.008 -0.031,-0.016 -0.031,-0.023 l 0,-0.043 c 0,-0.008 0.004,-0.031 0.008,-0.07 0.008,-0.039 0.02,-0.063 0.031,-0.082 l -0.039,0 c -0.016,-0.016 -0.023,-0.035 -0.031,-0.07 -0.008,-0.027 -0.02,-0.051 -0.031,-0.07 L 22.39,21.277 c 0,-0.039 -0.004,-0.09 -0.02,-0.148 -0.008,-0.059 -0.012,-0.102 -0.012,-0.113 l 0,-0.285 c 0.043,-0.027 0.066,-0.07 0.066,-0.113 0,-0.039 -0.023,-0.07 -0.066,-0.094 -0.031,-0.02 -0.051,-0.051 -0.051,-0.09 0,-0.016 0,-0.035 0,-0.055 0.008,-0.031 0.012,-0.051 0.012,-0.059 0,-0.004 -0.004,-0.031 -0.012,-0.078 0,-0.055 0,-0.109 -0.008,-0.16 -0.016,-0.051 -0.023,-0.102 -0.023,-0.148 0,-0.051 0,-0.086 0,-0.102 l 0,-0.25 c -0.008,0 -0.016,-0.004 -0.02,-0.012 l -0.031,-0.012 0,-0.043 0.031,-0.035 c 0.008,-0.004 0.016,-0.008 0.02,-0.008 0,-0.008 -0.012,-0.027 -0.031,-0.059 -0.016,-0.027 -0.02,-0.047 -0.02,-0.055 l 0,-0.281 0.098,-0.137 -0.098,0.055 c 0,-0.016 0,-0.035 0,-0.07 0.008,-0.031 0.012,-0.063 0.012,-0.102 0,-0.086 -0.008,-0.172 -0.02,-0.262 -0.023,-0.094 -0.023,-0.156 -0.023,-0.191 l -0.18,-0.148 c -0.008,-0.016 -0.02,-0.031 -0.031,-0.043 -0.012,-0.023 -0.02,-0.039 -0.02,-0.047 0.074,0 0.141,-0.012 0.188,-0.043 0.047,-0.035 0.074,-0.078 0.074,-0.113 l 0,-0.035 c 0.016,-0.012 0.039,-0.031 0.074,-0.055 0.035,-0.023 0.074,-0.031 0.105,-0.031 l 0.066,0 0.125,0.09 c 0.008,0 0.023,0 0.043,0 0.02,-0.008 0.035,-0.012 0.051,-0.012 0.012,0 0.031,0.008 0.051,0.023 0.027,0.016 0.051,0.023 0.074,0.023 0.016,0 0.043,-0.012 0.086,-0.035 0.047,-0.02 0.082,-0.035 0.094,-0.043 -0.004,0 -0.008,-0.008 -0.008,-0.023 0,-0.008 0.008,-0.016 0.02,-0.031 l 0.031,-0.023 0.02,0.023 c 0.008,0.008 0.016,0.012 0.02,0.012 l 0.102,0 c 0,0.027 0.016,0.043 0.051,0.043 0.012,0 0.035,0 0.074,0 0.043,-0.008 0.09,-0.012 0.137,-0.012 0.121,0 0.191,0.012 0.211,0.035 0.027,0.012 0.063,0.02 0.102,0.02 0.012,0 0.023,0 0.051,0 0.023,-0.008 0.055,-0.012 0.082,-0.012 0.023,0 0.047,0.004 0.055,0.012 l 0.051,0.047 0.027,0 c 0.027,0 0.047,-0.008 0.055,-0.023 0.012,-0.016 0.035,-0.023 0.074,-0.023 0.027,0 0.059,0.02 0.094,0.055 0.035,0.039 0.109,0.07 0.223,0.094 l 0.039,0 c 0.008,0 0.016,0.008 0.023,0.023 0.012,0.012 0.027,0.02 0.039,0.02 0.016,0.016 0.039,0.027 0.074,0.035 0.035,0 0.051,0.008 0.051,0.02 l 0,0.035 0.18,0.328 0.074,0 c 0,0.008 0.004,0.016 0.012,0.02 l 0.039,0.047 0.039,0.125 -0.039,0.031 0,0.16 0.086,-0.035 0,0.125 c 0,0.008 -0.008,0.023 -0.02,0.035 l -0.023,0.031 c 0,0.039 0.012,0.078 0.031,0.117 0.02,0.027 0.047,0.043 0.086,0.043 0,0.121 -0.023,0.18 -0.074,0.18 l -0.012,-0.012 -0.031,0.047 0.043,0.043 c 0.027,0.031 0.043,0.043 0.051,0.043 l 0,0.023 c -0.016,0.035 -0.035,0.082 -0.066,0.125 -0.02,0.035 -0.031,0.07 -0.031,0.094 l 0,0.078 c 0,0.008 -0.004,0.023 -0.02,0.047 -0.012,0.012 -0.02,0.023 -0.02,0.031 l -0.086,0 c 0,-0.008 -0.008,-0.016 -0.02,-0.023 -0.02,-0.004 -0.023,-0.012 -0.023,-0.02 -0.023,0 -0.043,0.016 -0.043,0.043 0,0.008 0.012,0.031 0.023,0.07 0.016,0.031 0.02,0.047 0.02,0.055 l 0,0.082 -0.043,0.031 0,0.094 c -0.012,0.016 -0.035,0.047 -0.07,0.102 -0.027,0.047 -0.051,0.086 -0.066,0.117 l 0,-0.023 c 0,-0.016 -0.004,-0.039 -0.023,-0.082 -0.012,-0.043 -0.02,-0.082 -0.02,-0.102 l -0.039,0.07 c -0.016,0.008 -0.031,0.012 -0.055,0.02 -0.02,0.008 -0.035,0.012 -0.051,0.012 l 0.066,0.047 0,0.066 -0.117,0.137 c -0.012,0 -0.039,-0.008 -0.086,-0.02 -0.031,-0.016 -0.063,-0.023 -0.082,-0.023 l 0,0.082 0.113,0 c 0,0.035 -0.004,0.094 -0.02,0.168 -0.012,0.078 -0.043,0.113 -0.094,0.113 0.164,0.059 0.336,0.121 0.504,0.172 0.172,0.051 0.289,0.105 0.348,0.156 0,-0.02 0.02,-0.039 0.063,-0.055 0.051,-0.016 0.094,-0.023 0.129,-0.023 0.012,0 0.039,0.012 0.082,0.035 0.051,0.016 0.082,0.027 0.086,0.043 l 0,0.16 c 0,0.008 -0.004,0.02 -0.02,0.043 -0.012,0.016 -0.02,0.027 -0.02,0.035 l 0,0.043 0.176,0 0,0.156 0.031,0 c 0,0.023 0,0.047 0,0.07 0.008,0.023 0.023,0.039 0.051,0.047 l 0.043,0 c 0.012,0.012 0.035,0.051 0.074,0.113 0.039,0.059 0.059,0.094 0.051,0.094 0,0.02 -0.012,0.043 -0.031,0.066 l 0.137,0 c 0.008,0 0.031,0.047 0.074,0.137 0.047,0.086 0.086,0.156 0.105,0.219 0,0.008 -0.004,0.027 -0.008,0.055 0,0.031 0,0.059 0,0.094 0,0.051 0.012,0.094 0.039,0.125 l -0.051,0 c 0,0.012 -0.008,0.035 -0.023,0.07 -0.008,0.02 -0.012,0.035 -0.012,0.043 0.008,0.023 0.023,0.035 0.051,0.043 l 0.031,0 0,0.25 -0.051,0.059 c -0.027,0 -0.051,-0.02 -0.074,-0.059 -0.016,-0.035 -0.027,-0.07 -0.043,-0.09 -0.004,0 -0.016,0.012 -0.031,0.031 -0.012,0.016 -0.02,0.031 -0.02,0.047 0,-0.008 0.004,0 0.012,0.02 0.008,0.023 0.023,0.035 0.039,0.035 l -0.039,0.031 0.227,0 c 0,0.016 -0.016,0.027 -0.031,0.035 -0.02,0.008 -0.035,0.016 -0.066,0.031 -0.02,0.008 -0.039,0.023 -0.063,0.047 -0.02,0.012 -0.023,0.043 -0.023,0.09 0,0.008 0,0.027 0,0.055 0.008,0.031 0.012,0.059 0.012,0.094 0,-0.008 -0.008,0.012 -0.02,0.055 -0.016,0.043 -0.039,0.094 -0.078,0.137 l 0.012,0 c 0.008,-0.008 0.016,-0.012 0.031,-0.012 0.02,0 0.031,0.016 0.031,0.043 0,0.023 -0.012,0.035 -0.031,0.035 -0.035,0 -0.051,-0.012 -0.051,-0.035 l 0,-0.012 c -0.027,0.031 -0.055,0.055 -0.086,0.07 -0.027,0 -0.039,-0.004 -0.039,-0.02 l 0,-0.047 c -0.02,0 -0.027,-0.004 -0.031,-0.008 0,-0.016 -0.008,-0.023 -0.023,-0.023 l -0.039,0.082 -0.039,-0.035 c -0.008,-0.008 -0.012,-0.035 -0.012,-0.09 l 0,-0.059 c -0.027,0.055 -0.043,0.125 -0.043,0.207 l 0,0.047 c 0,0.012 0,0.023 0,0.031 0.008,0.008 0.012,0.016 0.012,0.023 l 0.086,-0.047 0,0.125 c 0,0.047 -0.016,0.074 -0.043,0.082 -0.027,0.008 -0.055,0.012 -0.094,0.012 l -0.086,0 c 0,-0.008 -0.008,0.027 -0.02,0.102 l -0.023,0.094 -0.098,0.082 -0.031,-0.035 c -0.004,0 -0.035,0.039 -0.094,0.117 -0.055,0.074 -0.121,0.113 -0.203,0.113 -0.031,0 -0.055,-0.008 -0.074,-0.023 0,0.016 -0.027,0.031 -0.094,0.043 -0.063,0.016 -0.102,0.039 -0.117,0.07 l 0,-0.043 c 0,-0.008 0.016,-0.023 0.031,-0.043 l -0.086,-0.07 c 0,0.035 -0.008,0.074 -0.031,0.102 -0.02,0.023 -0.035,0.043 -0.051,0.055 l -0.039,0 0,-0.09 -0.188,0.18 c -0.012,0 -0.027,0.004 -0.066,0.012 -0.031,0 -0.055,0 -0.074,0 l 0,-0.137 c -0.039,0.086 -0.078,0.125 -0.105,0.125 l -0.074,0 c -0.016,0 -0.055,0.008 -0.125,0.023 l -0.273,0.078 c -0.008,0 -0.039,-0.008 -0.098,-0.031 -0.047,-0.023 -0.078,-0.039 -0.082,-0.043 l -0.215,0 c -0.02,0 -0.051,0.004 -0.105,0.02 -0.039,0.023 -0.07,0.035 -0.082,0.035 -0.016,-0.008 -0.039,-0.027 -0.078,-0.055 -0.031,-0.039 -0.055,-0.063 -0.074,-0.082 0,0.027 -0.012,0.051 -0.039,0.07 -0.027,0.008 -0.051,0.012 -0.074,0.012 l -0.098,-0.023 -0.086,0.023 c -0.012,0 -0.051,-0.004 -0.113,-0.012 -0.066,-0.008 -0.105,-0.012 -0.117,-0.012 l -0.043,0 c -0.02,0 -0.066,0.008 -0.133,0.023 l 0,-0.023 c 0.004,-0.016 0.02,-0.039 0.039,-0.07 0.02,-0.031 0.039,-0.051 0.051,-0.07 l 0,-0.453 0.043,0 0.191,-0.191 c -0.016,-0.008 -0.027,-0.027 -0.055,-0.055 -0.02,-0.039 -0.023,-0.063 -0.023,-0.082 l -0.023,0 0.023,-0.02 c 0,-0.016 0.039,-0.043 0.125,-0.082 l -0.031,-0.07 -0.012,0.023 c -0.027,-0.031 -0.039,-0.059 -0.039,-0.082 0,-0.039 0.008,-0.094 0.02,-0.16 0.016,-0.07 0.027,-0.109 0.043,-0.125 l -0.086,0 c 0,-0.008 0.008,-0.02 0.02,-0.043 0.012,-0.023 0.039,-0.035 0.086,-0.035 0,-0.027 -0.016,-0.055 -0.043,-0.078 -0.027,-0.023 -0.047,-0.035 -0.063,-0.035 0,-0.016 0.004,-0.027 0.008,-0.043 0.008,-0.023 0.016,-0.043 0.023,-0.055 l 0,0.02 c 0,0.023 0.008,0.035 0.027,0.035 0.02,0 0.027,-0.012 0.027,-0.035 l -0.027,-0.043 m 0.938,1.309 c 0,0.066 -0.016,0.105 -0.051,0.125 -0.027,0.023 -0.039,0.035 -0.039,0.07 l 0,0.043 0.125,0 0,-0.137 c 0,-0.016 0.008,-0.031 0.02,-0.055 0.016,-0.031 0.023,-0.047 0.023,-0.055 l 0.039,-0.043 c 0.02,-0.008 0.035,-0.023 0.043,-0.047 0.004,-0.02 0.012,-0.043 0.02,-0.07 0.012,-0.027 0.031,-0.051 0.051,-0.07 0.02,-0.02 0.051,-0.031 0.094,-0.031 0.008,0.008 0.02,0.012 0.031,0.012 l 0.051,0 c -0.012,0.008 -0.027,0.023 -0.039,0.043 -0.008,0.016 -0.02,0.027 -0.031,0.035 l 0,0.031 0.105,0 -0.031,-0.031 0.074,0 c 0,0.02 0.016,0.031 0.043,0.031 l 0.051,0.137 0.039,-0.043 0,-0.035 c 0,-0.078 0.012,-0.121 0.031,-0.137 0.027,-0.02 0.055,-0.031 0.086,-0.031 0.035,-0.008 0.07,-0.012 0.105,-0.012 0.035,-0.008 0.059,-0.031 0.074,-0.07 l 0.156,0 0.055,0.082 0,-0.113 c 0.004,0 0.016,0.004 0.027,0.023 0.02,0.008 0.039,0.012 0.051,0.012 0.016,0 0.027,0 0.043,0 0.02,-0.008 0.035,-0.012 0.039,-0.012 l 0,0.055 0.086,-0.043 c 0.008,0 0.02,0.004 0.031,0.012 0.02,0 0.043,0 0.063,0 0.027,0 0.043,-0.012 0.055,-0.031 0.012,-0.023 0.02,-0.039 0.02,-0.059 l 0.039,0.047 c 0.035,0 0.055,-0.016 0.055,-0.047 0,-0.016 -0.012,-0.035 -0.027,-0.066 -0.02,-0.027 -0.023,-0.047 -0.023,-0.059 l 0,-0.027 c 0,-0.012 0.008,-0.02 0.023,-0.023 0.012,-0.016 0.02,-0.023 0.027,-0.023 0.016,0 0.027,0.008 0.039,0.023 0.023,0.008 0.035,0.016 0.043,0.023 0,-0.059 0.016,-0.098 0.039,-0.117 0.027,-0.027 0.063,-0.047 0.098,-0.059 0.031,-0.012 0.066,-0.02 0.098,-0.02 0.027,-0.008 0.039,-0.016 0.039,-0.023 l 0,-0.094 c 0,-0.004 0.012,-0.023 0.031,-0.07 0.02,-0.031 0.035,-0.059 0.051,-0.063 l 0.051,-0.094 -0.051,-0.168 c 0.035,-0.02 0.066,-0.027 0.098,-0.035 0.031,-0.02 0.063,-0.051 0.086,-0.113 l -0.031,0.023 c -0.008,0.004 -0.023,0.008 -0.051,0.008 l -0.055,0 c 0,-0.004 -0.004,-0.023 -0.023,-0.059 -0.012,-0.023 -0.02,-0.047 -0.02,-0.055 0.008,-0.008 0.02,-0.016 0.039,-0.02 0.023,-0.016 0.047,-0.023 0.055,-0.023 0,-0.008 -0.004,-0.016 -0.012,-0.02 0,-0.012 0,-0.023 0,-0.031 l 0.039,-0.055 c 0.035,-0.039 0.055,-0.07 0.055,-0.098 0,-0.035 -0.012,-0.09 -0.031,-0.145 -0.02,-0.07 -0.039,-0.105 -0.051,-0.105 l -0.137,0 C 25.454,22.32 25.395,22.269 25.34,22.226 25.281,22.183 25.235,22.144 25.199,22.121 l 0,-0.172 c -0.031,-0.008 -0.082,-0.02 -0.145,-0.055 -0.055,-0.035 -0.086,-0.078 -0.086,-0.113 l 0,-0.02 -0.074,0 0,-0.07 c -0.008,0.008 -0.02,0.02 -0.043,0.023 -0.02,0.008 -0.031,0.012 -0.039,0.012 -0.066,-0.031 -0.098,-0.074 -0.098,-0.125 0,-0.023 0.004,-0.039 0.012,-0.047 l -0.094,0.047 c -0.016,0 -0.043,-0.004 -0.086,-0.012 -0.043,-0.02 -0.094,-0.031 -0.148,-0.051 -0.055,-0.02 -0.109,-0.031 -0.156,-0.043 -0.047,-0.016 -0.086,-0.02 -0.102,-0.02 -0.023,0 -0.066,0 -0.125,0.008 -0.066,0 -0.105,0 -0.117,0 l 0.02,-0.043 -0.027,-0.031 -0.078,0 c 0,-0.008 -0.004,-0.02 -0.008,-0.031 -0.008,-0.023 -0.02,-0.031 -0.031,-0.031 0.008,0 -0.02,0.008 -0.086,0.031 -0.066,0.02 -0.137,0.043 -0.223,0.066 l 0.043,-0.102 c -0.047,0 -0.082,0.023 -0.098,0.078 -0.004,0.055 -0.047,0.102 -0.125,0.137 0,-0.008 -0.008,-0.016 -0.02,-0.02 -0.008,-0.008 -0.016,-0.016 -0.016,-0.023 -0.012,0 -0.023,0.004 -0.035,0.012 -0.012,0 -0.023,0 -0.031,0 -0.023,0 -0.043,-0.016 -0.074,-0.047 0,-0.004 0,-0.016 0,-0.031 0.004,-0.016 0.008,-0.035 0.008,-0.055 0,-0.023 -0.004,-0.039 -0.008,-0.047 l -0.043,-0.02 -0.086,0.09 -0.066,-0.07 0.105,-0.066 -0.086,0 c 0,-0.008 -0.004,-0.02 -0.012,-0.035 -0.004,-0.016 -0.008,-0.023 -0.008,-0.043 l 0.031,-0.031 -0.043,0 c 0.008,0 -0.008,-0.008 -0.039,-0.016 -0.027,-0.004 -0.047,-0.023 -0.066,-0.063 l 0,0.477 c 0,0.008 -0.008,0.031 -0.02,0.07 -0.016,0.031 -0.023,0.047 -0.031,0.055 l 0,0.043 0.051,0.117 c 0,0.02 0.012,0.043 0.031,0.07 l 0.074,0.055 c 0.027,0.016 0.051,0.035 0.074,0.07 0.027,0.02 0.043,0.051 0.043,0.09 0,0.008 -0.008,0.02 -0.02,0.047 -0.016,0.02 -0.023,0.035 -0.023,0.043 l 0,0.031 c -0.02,0.02 -0.055,0.059 -0.113,0.117 -0.047,0.051 -0.074,0.098 -0.074,0.133 0,0.008 0,0.023 0.008,0.059 0.008,0.02 0.02,0.039 0.043,0.055 l 0,0.043 c 0.004,0 0.012,0.004 0.02,0.012 l 0.023,0.031 c -0.035,0 -0.055,0.039 -0.055,0.117 l 0.086,0 c 0,0.008 0,0.023 0,0.055 0.012,0.02 0.012,0.039 0.012,0.055 0,0.027 -0.008,0.047 -0.023,0.055 -0.012,0 -0.02,0.016 -0.02,0.035 0,0.012 0.008,0.027 0.02,0.043 0.023,0.008 0.031,0.02 0.031,0.023 0,0.004 -0.004,0.016 -0.012,0.031 -0.004,0.008 -0.008,0.016 -0.008,0.023 l -0.074,-0.055 c -0.008,0.012 -0.02,0.027 -0.031,0.055 -0.008,0.012 -0.012,0.023 -0.012,0.031 l -0.008,0.012 c 0,0.043 0.027,0.07 0.094,0.07 l 0,0.043 c 0,0.008 0.004,0.016 0.012,0.02 l 0.02,0.023 0,0.27 -0.027,0.047 0,0.031 c 0,0.039 0.008,0.07 0.02,0.094 0.023,0.023 0.031,0.051 0.031,0.078 l 0.074,0 c -0.027,0.031 -0.039,0.074 -0.039,0.125 0,0.039 0.004,0.066 0.008,0.07 l 0.043,0.047 c -0.008,0.008 -0.012,0.012 -0.012,0.023 l 0,0.031 -0.031,-0.012 -0.133,0.07 c 0,0.008 0.008,0.012 0.023,0.012 l 0.043,0 c 0.086,0 0.129,-0.02 0.141,-0.055 0.004,-0.047 0.023,-0.07 0.063,-0.07 0.035,0 0.082,0.008 0.141,0.023 0.063,0.016 0.102,0.02 0.129,0.02 0,-0.008 0.008,-0.016 0.023,-0.02 0.027,-0.016 0.047,-0.023 0.055,-0.023 l 0.043,0 c 0.023,0 0.035,0.012 0.035,0.043 l 0,0.031 c 0,0.023 -0.012,0.035 -0.035,0.035 l -0.043,-0.035 c -0.027,0 -0.039,0.012 -0.039,0.035 0,0.023 0.008,0.043 0.02,0.07 0.02,0.023 0.031,0.047 0.031,0.082 m -0.73,-3.547 0,0.09 c 0,0.008 -0.004,0.023 -0.008,0.047 0,0.02 -0.012,0.043 -0.031,0.066 l 0.039,0 0.102,-0.078 -0.016,-0.023 c 0,-0.016 0.016,-0.031 0.031,-0.043 0.027,-0.016 0.043,-0.023 0.051,-0.023 l 0.336,0 0.031,0.055 c 0.043,-0.043 0.078,-0.078 0.105,-0.102 0.023,-0.023 0.051,-0.059 0.07,-0.113 0.023,0.016 0.066,0.023 0.133,0.031 0.066,0.008 0.109,0.012 0.137,0.012 0.012,0 0.031,-0.004 0.051,-0.012 0.023,-0.008 0.031,-0.02 0.031,-0.031 L 23.767,20.662 C 23.74,20.639 23.728,20.607 23.728,20.584 l 0.082,-0.059 c 0.016,0 0.023,-0.004 0.031,-0.012 0.016,-0.012 0.023,-0.02 0.043,-0.02 l 0.027,0 c 0.004,0 0.02,0.004 0.031,0.012 0.023,0.004 0.035,0.012 0.051,0.02 l 0.051,-0.066 c 0,-0.055 0.012,-0.094 0.031,-0.113 l 0.094,-0.105 0.031,0.012 c 0,-0.016 0.016,-0.043 0.039,-0.094 0.035,-0.051 0.074,-0.102 0.105,-0.156 0.043,-0.055 0.078,-0.102 0.105,-0.141 0.035,-0.043 0.055,-0.063 0.066,-0.063 l 0.02,0.008 0,-0.09 c 0,-0.039 0.02,-0.07 0.066,-0.098 0.047,-0.023 0.074,-0.063 0.074,-0.102 0,-0.023 -0.012,-0.043 -0.031,-0.055 -0.012,-0.023 -0.02,-0.051 -0.02,-0.082 l 0,-0.023 c 0.008,-0.012 0.023,-0.039 0.051,-0.078 0.035,-0.039 0.066,-0.063 0.086,-0.082 l -0.168,0 c 0,-0.016 0.004,-0.047 0.012,-0.102 0.012,-0.051 0.02,-0.086 0.02,-0.105 C 24.59,18.881 24.547,18.763 24.5,18.646 24.457,18.533 24.406,18.47 24.352,18.458 l -0.094,0 C 24.145,18.411 24.09,18.345 24.09,18.251 l -0.043,0 c -0.004,0 -0.023,0.008 -0.051,0.02 -0.02,0.008 -0.031,0.012 -0.039,0.012 -0.008,0 -0.031,-0.004 -0.074,-0.012 -0.035,-0.016 -0.059,-0.02 -0.078,-0.02 -0.004,0.008 -0.023,0.016 -0.051,0.02 -0.027,0.008 -0.043,0.012 -0.051,0.012 -0.012,0 -0.031,0 -0.063,0 -0.023,-0.008 -0.039,-0.012 -0.051,-0.012 l 0,-0.012 c -0.008,0.008 -0.023,0.016 -0.043,0.023 -0.02,0 -0.035,0 -0.039,0 -0.008,0 -0.023,-0.012 -0.051,-0.035 -0.023,-0.027 -0.031,-0.066 -0.031,-0.113 -0.016,0.016 -0.031,0.035 -0.051,0.055 -0.023,0.02 -0.031,0.047 -0.031,0.094 -0.02,-0.02 -0.039,-0.031 -0.051,-0.031 l -0.031,0.02 c -0.008,0.008 -0.02,0.012 -0.031,0.012 l -0.012,0 c -0.012,0 -0.027,-0.008 -0.051,-0.02 -0.02,-0.023 -0.035,-0.035 -0.051,-0.043 l -0.039,0 c -0.008,0 -0.023,0.008 -0.043,0.02 -0.02,0.012 -0.031,0.012 -0.039,0.012 l 0,-0.031 c -0.02,0.02 -0.051,0.031 -0.098,0.031 l -0.039,0 c -0.008,0 -0.023,0.008 -0.051,0.02 -0.023,0.008 -0.035,0.012 -0.043,0.012 l -0.082,0 -0.043,0.043 c -0.016,0.023 -0.023,0.063 -0.031,0.125 -0.008,0.066 -0.008,0.105 -0.008,0.117 0,0.02 0,0.039 0,0.078 0.004,0.031 0.012,0.07 0.02,0.117 0.008,0.035 0.008,0.074 0.008,0.113 0.008,0.027 0.012,0.047 0.012,0.055 l 0,0.156 c 0,0.016 0,0.047 0,0.094 0.008,0.035 0.016,0.082 0.02,0.125 0.008,0.043 0.012,0.094 0.012,0.137 0.008,0.035 0.012,0.066 0.012,0.07 l 0,0.227 c 0,0.023 -0.016,0.039 -0.043,0.07 -0.027,0.023 -0.039,0.043 -0.039,0.055 0,0.016 0.012,0.023 0.039,0.047 0.027,0.023 0.043,0.039 0.043,0.063 0,0.016 -0.008,0.031 -0.023,0.055 -0.004,0.023 -0.008,0.039 -0.008,0.055 l -0.012,0.082 0.043,0 0.133,0.207 c -0.02,0.02 -0.035,0.031 -0.051,0.031 l 0,0.082 c 0,0.051 -0.012,0.094 -0.039,0.125 0,0.008 0.008,0.023 0.02,0.043 0.02,0.016 0.023,0.027 0.023,0.035 0,0.016 -0.008,0.035 -0.031,0.07 -0.02,0.02 -0.035,0.047 -0.051,0.055 l 0.086,0 m -0.609,3.809 c 0,-0.059 0.047,-0.094 0.148,-0.094 0,0.008 -0.004,0.031 -0.012,0.07 -0.012,0.031 -0.016,0.051 -0.016,0.063 l -0.051,0.051 0,-0.113 -0.074,0.02 m 2.168,-0.066 0.055,0.043 0.086,0 0.039,-0.043 C 24.481,24.526 24.449,24.51 24.41,24.498 l -0.027,0 -0.055,0.059 m 1.785,-1.188 c 0.023,0 0.043,0.023 0.066,0.059 0.027,0.027 0.039,0.055 0.039,0.066 l -0.105,0 0,-0.125 m -1.914,-5.04 0.105,0 c 0.012,-0.012 0.02,-0.023 0.02,-0.043 l -0.086,-0.066 -0.039,0.109 m -0.086,2.148 c -0.02,0 -0.031,0.016 -0.031,0.043 0,0.031 0.016,0.047 0.031,0.047 l 0.012,0 c 0,0.023 0.012,0.031 0.027,0.031 0.023,0 0.031,-0.016 0.031,-0.043 0,-0.031 -0.008,-0.047 -0.031,-0.047 l -0.008,0 -0.031,-0.031 m -1.031,4.328 c 0.055,0 0.082,-0.008 0.102,-0.023 0.02,-0.02 0.039,-0.047 0.051,-0.078 -0.035,0 -0.066,0.004 -0.086,0.023 -0.012,0.016 -0.035,0.02 -0.066,0.02 l 0,0.059 m -0.266,-0.828 c -0.027,0 -0.039,0.016 -0.039,0.043 0,0.02 0.012,0.035 0.039,0.035 l 0.012,0 c 0,0.02 0.016,0.027 0.031,0.027 0.023,0 0.031,-0.012 0.031,-0.027 0,-0.031 -0.012,-0.047 -0.031,-0.047 l -0.012,0 -0.031,-0.031 M 24.68,18.33 c -0.016,-0.012 -0.02,-0.02 -0.02,-0.031 l -0.012,-0.012 c -0.02,0 -0.031,0.02 -0.031,0.043 0,0.023 0.012,0.035 0.031,0.035 l 0.012,0.012 c 0,0.023 0.008,0.031 0.027,0.031 0.027,0 0.043,-0.012 0.043,-0.031 0,-0.027 -0.016,-0.047 -0.051,-0.047 m 0.852,5.605 c -0.02,0 -0.031,0.016 -0.031,0.047 0,0.02 0.008,0.031 0.02,0.031 -0.012,0.016 -0.02,0.023 -0.02,0.047 0,0.02 0.012,0.023 0.031,0.023 0.02,0 0.031,-0.016 0.031,-0.043 0,-0.008 -0.008,-0.02 -0.02,-0.027 0.012,0 0.02,-0.02 0.02,-0.031 l -0.031,-0.047 m -1.926,-3.03 0.137,0 0,-0.059 -0.137,0 0,0.059 m 2.02,2.625 c 0,0.027 0.012,0.043 0.039,0.043 l 0,-0.043 c -0.008,-0.016 -0.016,-0.039 -0.031,-0.07 -0.008,-0.031 -0.008,-0.047 -0.008,-0.055 l -0.055,0 0.055,0.125 m -1.652,-2.578 c 0.016,0 0.039,-0.004 0.074,-0.012 0.043,-0.008 0.066,-0.035 0.066,-0.094 l -0.094,0.059 -0.043,0 0,0.043 m 0.766,2.93 c 0.023,0 0.031,0.02 0.031,0.059 0,0.027 -0.008,0.043 -0.031,0.043 -0.027,0 -0.039,-0.016 -0.039,-0.043 0,-0.039 0.012,-0.059 0.039,-0.059 m -0.91,0.422 c -0.023,0 -0.031,0.016 -0.031,0.043 0,0.031 0.008,0.047 0.031,0.047 0.031,0 0.051,-0.016 0.051,-0.047 0,-0.027 -0.02,-0.043 -0.051,-0.043 m 1.449,0 c -0.031,0 -0.051,0.016 -0.051,0.043 0,0.031 0.02,0.047 0.051,0.047 0.023,0 0.031,-0.016 0.031,-0.047 L 25.281,24.3 m -1.262,-3.684 -0.039,0.082 0.094,0 0,-0.082 -0.051,0 m -0.355,2.262 c 0.02,0 0.031,0.016 0.031,0.043 0,0.031 -0.012,0.047 -0.031,0.047 -0.027,0 -0.043,-0.016 -0.043,-0.047 0,-0.027 0.016,-0.043 0.043,-0.043 m 1.461,-1.328 c 0,0.027 0.008,0.051 0.02,0.066 0.016,0.016 0.023,0.023 0.031,0.023 l 0.043,-0.09 -0.098,0 m -2.711,3.078 c -0.023,0 -0.031,0.016 -0.031,0.043 0,0.031 0.008,0.043 0.031,0.043 0.027,0 0.039,-0.012 0.039,-0.043 0,-0.027 -0.012,-0.043 -0.039,-0.043 m 0,-4.387 c -0.023,0 -0.031,0.016 -0.031,0.043 0,0.031 0.008,0.043 0.031,0.043 0.027,0 0.039,-0.012 0.039,-0.043 0,-0.027 -0.012,-0.043 -0.039,-0.043 m 2.277,-1.141 c -0.02,0 -0.027,0.016 -0.027,0.047 0,0.02 0.008,0.043 0.027,0.043 0.027,0 0.043,-0.023 0.043,-0.043 0,-0.031 -0.016,-0.047 -0.043,-0.047 m -1.461,2.207 c -0.027,0 -0.039,0.016 -0.039,0.047 0,0.02 0.012,0.043 0.039,0.043 0.02,0 0.031,-0.023 0.031,-0.043 L 23.23,21.306 m 1.23,3 c -0.027,0 -0.039,0.012 -0.039,0.043 0,0.023 0.012,0.043 0.039,0.043 0.02,0 0.031,-0.02 0.031,-0.043 L 24.46,24.306 m -1.777,-3.363 c -0.012,0 -0.027,0.004 -0.051,0.012 -0.02,0.008 -0.031,0.012 -0.031,0.02 l 0,0.082 c 0.008,-0.008 0.023,-0.02 0.043,-0.031 0.02,-0.023 0.035,-0.051 0.039,-0.082 m 3.305,2.555 c -0.035,0 -0.051,0.016 -0.051,0.047 0,0.02 0.016,0.031 0.051,0.031 0.02,0 0.031,-0.012 0.031,-0.031 l -0.031,-0.047 m -1.422,-2.031 c -0.035,0 -0.051,0.016 -0.051,0.043 0,0.023 0.016,0.035 0.051,0.035 0.02,0 0.031,-0.012 0.031,-0.035 l -0.031,-0.043 m -2.094,-0.242 c -0.031,0 -0.051,0.016 -0.051,0.047 0,0.02 0.02,0.031 0.051,0.031 0.023,0 0.031,-0.012 0.031,-0.031 l -0.031,-0.047 m 0.348,-3.41 c 0.023,0 0.031,0.016 0.031,0.047 0,0.02 -0.008,0.031 -0.031,0.031 -0.027,0 -0.039,-0.012 -0.039,-0.031 0,-0.031 0.012,-0.047 0.039,-0.047 m 1.59,6.809 c -0.016,0 -0.02,0.016 -0.02,0.043 0,0.031 0.004,0.043 0.02,0.043 0.027,0 0.039,-0.012 0.039,-0.043 0,-0.027 -0.012,-0.043 -0.039,-0.043 m -1.996,-3.684 c -0.023,0 -0.031,0.016 -0.031,0.043 0,0.023 0.008,0.035 0.031,0.035 0.027,0 0.039,-0.012 0.039,-0.035 0,-0.027 -0.012,-0.043 -0.039,-0.043 m 2.09,-0.977 c -0.02,0 -0.027,0.016 -0.027,0.043 0,0.023 0.008,0.035 0.027,0.035 0.027,0 0.043,-0.012 0.043,-0.035 0,-0.027 -0.016,-0.043 -0.043,-0.043 m 0.582,1.5 c -0.023,0 -0.031,0.016 -0.031,0.043 0,0.023 0.008,0.035 0.031,0.035 0.027,0 0.039,-0.012 0.039,-0.035 0,-0.027 -0.012,-0.043 -0.039,-0.043 m -1.422,2.887 c -0.027,0 -0.043,0.016 -0.043,0.043 0,0.023 0.016,0.035 0.043,0.035 0.02,0 0.031,-0.012 0.031,-0.035 l -0.031,-0.043 m 2.145,-2.082 c -0.027,0 -0.043,0.016 -0.043,0.047 0,0.02 0.016,0.031 0.043,0.031 0.02,0 0.031,-0.012 0.031,-0.031 l -0.031,-0.047 m -0.672,1.793 c -0.027,0 -0.043,0.016 -0.043,0.047 0,0.02 0.016,0.031 0.043,0.031 0.02,0 0.031,-0.012 0.031,-0.031 l -0.031,-0.047 m 0,-2.281 c -0.027,0 -0.043,0.016 -0.043,0.043 0,0.023 0.016,0.035 0.043,0.035 0.02,0 0.031,-0.012 0.031,-0.035 l -0.031,-0.043 m -2.852,-3.727 c -0.027,0 -0.039,0.012 -0.039,0.043 0,0.023 0.012,0.031 0.039,0.031 0.023,0 0.031,-0.008 0.031,-0.031 l -0.031,-0.043 m 2.461,1.906 c -0.027,0 -0.039,0.016 -0.039,0.043 0,0.023 0.012,0.035 0.039,0.035 0.023,0 0.031,-0.012 0.031,-0.035 L 24.746,19.96 m 0.211,0.035 c 0.023,0 0.031,0.012 0.031,0.043 0,0.027 -0.008,0.043 -0.031,0.043 -0.02,0 -0.027,-0.016 -0.027,-0.043 l 0.027,-0.043 m 0.445,3.496 c 0.027,0 0.039,0.016 0.039,0.047 0,0.02 -0.012,0.031 -0.039,0.031 -0.02,0 -0.031,-0.012 -0.031,-0.031 l 0.031,-0.047 m -1.379,0.57 c 0.027,0 0.043,0.012 0.043,0.043 0,0.023 -0.016,0.031 -0.043,0.031 -0.02,0 -0.031,-0.008 -0.031,-0.031 l 0.031,-0.043 m 1.734,0 c 0.027,0 0.043,0.012 0.043,0.043 0,0.023 -0.016,0.031 -0.043,0.031 -0.02,0 -0.027,-0.008 -0.027,-0.031 l 0.027,-0.043 m -3.109,-1.102 c -0.02,0 -0.031,0.012 -0.031,0.043 0,0.027 0.012,0.043 0.031,0.043 0.02,0 0.031,-0.016 0.031,-0.043 l -0.031,-0.043 m 3.383,-0.094 c -0.02,0 -0.031,0.016 -0.031,0.043 0,0.031 0.012,0.047 0.031,0.047 0.023,0 0.031,-0.016 0.031,-0.047 l -0.031,-0.043 m -0.535,-0.727 c -0.02,0 -0.031,0.016 -0.031,0.047 0,0.02 0.012,0.043 0.031,0.043 0.023,0 0.031,-0.023 0.031,-0.043 l -0.031,-0.047 m 0.043,-0.281 c -0.02,0 -0.031,0.012 -0.031,0.043 0,0.031 0.012,0.043 0.031,0.043 0.02,0 0.031,-0.012 0.031,-0.043 l -0.031,-0.043 m -1.785,2.438 c -0.023,0 -0.031,0.02 -0.031,0.043 0,0.031 0.008,0.043 0.031,0.043 0.02,0 0.027,-0.012 0.027,-0.043 l -0.027,-0.043 m 0.406,0 c -0.02,0 -0.031,0.02 -0.031,0.043 0,0.031 0.012,0.043 0.031,0.043 0.02,0 0.031,-0.012 0.031,-0.043 L 24.16,24.295 m -1.559,-5.074 c -0.02,0 -0.027,0.012 -0.027,0.043 0,0.023 0.008,0.043 0.027,0.043 0.023,0 0.031,-0.02 0.031,-0.043 l -0.031,-0.043 m 0.086,5.484 c -0.02,0 -0.031,0.016 -0.031,0.043 0,0.027 0.012,0.043 0.031,0.043 0.02,0 0.031,-0.016 0.031,-0.043 l -0.031,-0.043 m -0.125,-5.809 c -0.02,0 -0.031,0.012 -0.031,0.043 0,0.027 0.012,0.043 0.031,0.043 0.02,0 0.031,-0.016 0.031,-0.043 l -0.031,-0.043 m 2.051,-0.328 c -0.02,0 -0.031,0.012 -0.031,0.043 0,0.027 0.012,0.043 0.031,0.043 0.023,0 0.031,-0.016 0.031,-0.043 l -0.031,-0.043 m -1.125,6.04 c -0.02,0 -0.031,0.016 -0.031,0.043 0,0.031 0.012,0.047 0.031,0.047 0.023,0 0.031,-0.016 0.031,-0.047 l -0.031,-0.043 m 0.496,-6.453 c -0.02,0 -0.031,0.016 -0.031,0.043 0,0.031 0.012,0.047 0.031,0.047 0.02,0 0.031,-0.016 0.031,-0.047 l -0.031,-0.043 m 1.734,4.91 c -0.02,0 -0.031,0.016 -0.031,0.043 0,0.031 0.012,0.043 0.031,0.043 0.02,0 0.031,-0.012 0.031,-0.043 L 25.718,23.065 M 23.792,18.12 c -0.02,0 -0.031,0.016 -0.031,0.047 0,0.027 0.012,0.043 0.031,0.043 0.02,0 0.031,-0.016 0.031,-0.043 L 23.792,18.12 m -0.883,3.98 0,-0.082 c -0.016,0 -0.031,0.004 -0.051,0.012 -0.02,0 -0.031,0.008 -0.031,0.023 l 0.086,0.043 m 2.313,-0.688 c -0.02,0 -0.027,0.012 -0.027,0.035 0,0.023 0.008,0.031 0.027,0.031 0.027,0 0.043,-0.008 0.043,-0.031 0,-0.023 -0.016,-0.035 -0.043,-0.035 m -0.715,3 c -0.02,0 -0.031,0.012 -0.031,0.031 0,0.02 0.012,0.035 0.031,0.035 0.027,0 0.043,-0.016 0.043,-0.035 0,-0.023 -0.016,-0.031 -0.043,-0.031 m 0.578,0 c -0.02,0 -0.027,0.012 -0.027,0.031 0,0.02 0.008,0.035 0.027,0.035 0.027,0 0.043,-0.016 0.043,-0.035 0,-0.023 -0.016,-0.031 -0.043,-0.031 m -2.313,-0.285 c -0.02,0 -0.031,0.016 -0.031,0.035 0,0.023 0.012,0.031 0.031,0.031 0.027,0 0.039,-0.012 0.039,-0.031 0,-0.02 -0.012,-0.035 -0.039,-0.035 m 1.926,-5.27 c -0.02,0 -0.031,0.012 -0.031,0.035 0,0.02 0.012,0.023 0.031,0.023 0.027,0 0.039,-0.012 0.039,-0.023 0,-0.023 -0.012,-0.035 -0.039,-0.035 m -1.754,2.102 c -0.016,0 -0.023,0.016 -0.023,0.047 0,0.02 0.008,0.031 0.023,0.031 0.027,0 0.039,-0.012 0.039,-0.031 0,-0.031 -0.012,-0.047 -0.039,-0.047 m 2.637,1.422 c 0.008,0 0.016,0.008 0.031,0.023 0.012,0.008 0.02,0.016 0.02,0.02 0,0.012 -0.008,0.023 -0.02,0.047 -0.016,0.016 -0.023,0.023 -0.031,0.031 l 0,-0.129 m -1.914,2.207 c -0.027,0 -0.043,0.016 -0.043,0.035 0,0.023 0.016,0.031 0.043,0.031 0.02,0 0.027,-0.016 0.027,-0.031 l -0.027,-0.035 m 0.945,-0.293 0.043,-0.035 -0.043,-0.055 -0.039,0.055 0.039,0.035 M 22.87,23.111 c 0.023,0 0.031,0.016 0.031,0.043 0,0.023 -0.008,0.035 -0.031,0.035 -0.02,0 -0.027,-0.012 -0.027,-0.035 l 0.027,-0.043 m 2.809,-0.613 c 0.023,0 0.031,0.016 0.031,0.043 0,0.023 -0.008,0.031 -0.031,0.031 -0.02,0 -0.027,-0.008 -0.027,-0.031 l 0.027,-0.043 m -0.668,-3.52 c -0.023,0 -0.031,0.016 -0.031,0.043 0,0.02 0.008,0.035 0.031,0.035 0.02,0 0.027,-0.02 0.027,-0.035 l -0.027,-0.043 m -0.129,5.063 c -0.02,0 -0.031,0.02 -0.031,0.051 0,0.02 0.012,0.023 0.031,0.023 0.02,0 0.031,-0.008 0.031,-0.023 l -0.031,-0.051 m -2.227,-0.129 c -0.023,0 -0.031,0.023 -0.031,0.055 0,0.02 0.008,0.023 0.031,0.023 0.02,0 0.027,-0.012 0.027,-0.023 l -0.027,-0.055 m 1.512,-2.762 c -0.02,0 -0.031,0.016 -0.031,0.047 0,0.023 0.012,0.031 0.031,0.031 0.02,0 0.031,-0.012 0.031,-0.031 L 24.167,21.15 m -1.832,-2.43 c -0.02,0 -0.027,0.016 -0.027,0.043 0,0.023 0.008,0.035 0.027,0.035 0.023,0 0.031,-0.012 0.031,-0.035 L 22.335,18.72 m 0.535,4.625 c -0.02,0 -0.027,0.016 -0.027,0.047 0,0.02 0.008,0.031 0.027,0.031 0.023,0 0.031,-0.012 0.031,-0.031 L 22.87,23.345 m 1.789,-1.906 c -0.023,0 -0.031,0.016 -0.031,0.043 0,0.023 0.008,0.035 0.031,0.035 0.02,0 0.027,-0.012 0.027,-0.035 L 24.659,21.439 M 22.87,23.47 c -0.02,0 -0.027,0.016 -0.027,0.047 0,0.02 0.008,0.031 0.027,0.031 0.023,0 0.031,-0.012 0.031,-0.031 L 22.87,23.47 m -0.219,-2.441 c -0.023,0 -0.031,0.023 -0.031,0.047 0,0.023 0.008,0.031 0.031,0.031 0.02,0 0.031,-0.012 0.031,-0.031 l -0.031,-0.047 m 3.441,1.387 c -0.023,0 -0.031,0.023 -0.031,0.051 0,0.02 0.012,0.027 0.031,0.027 0.02,0 0.027,-0.012 0.027,-0.027 l -0.027,-0.051 m -1.871,-2.105 c -0.023,0 -0.031,0.012 -0.031,0.043 0,0.02 0.012,0.031 0.031,0.031 0.02,0 0.027,-0.02 0.027,-0.031 l -0.027,-0.043 m -1.832,-0.207 c -0.023,0 -0.031,0.012 -0.031,0.043 0,0.02 0.012,0.035 0.031,0.035 0.02,0 0.027,-0.02 0.027,-0.035 l -0.027,-0.043 m 0.719,4.145 c -0.023,0 -0.031,0.016 -0.031,0.047 0,0.02 0.008,0.031 0.031,0.031 0.02,0 0.027,-0.012 0.027,-0.031 l -0.027,-0.047 m 2.41,-0.406 c -0.023,0 -0.031,0.016 -0.031,0.043 0,0.023 0.008,0.035 0.031,0.035 0.02,0 0.023,-0.012 0.023,-0.035 l -0.023,-0.043 m -2.816,-3.457 c -0.02,0 -0.023,0.016 -0.023,0.047 0,0.02 0.008,0.031 0.023,0.031 0.023,0 0.031,-0.012 0.031,-0.031 l -0.031,-0.047 m 3.199,1.738 c -0.012,0 -0.02,0.016 -0.02,0.047 0,0.027 0.008,0.043 0.02,0.043 0.023,0 0.031,-0.016 0.031,-0.043 l -0.031,-0.047 m -1.945,-1.328 c -0.016,0 -0.02,0.016 -0.02,0.043 0,0.031 0.004,0.047 0.02,0.047 0.023,0 0.031,-0.016 0.031,-0.047 l -0.031,-0.043 m 1.391,3.066 c -0.023,0 -0.031,0.02 -0.031,0.059 0,0.027 0.012,0.043 0.031,0.043 0.012,0 0.02,-0.016 0.02,-0.043 -0.008,0 -0.012,-0.02 -0.02,-0.059 m -2.023,0.672 c -0.012,0 -0.02,0.012 -0.02,0.035 0,0.02 0.008,0.031 0.02,0.031 0.027,0 0.043,-0.02 0.043,-0.031 0,-0.023 -0.016,-0.035 -0.043,-0.035 m -0.395,-6.418 c -0.023,0 -0.031,0.012 -0.031,0.043 0,0.027 0.012,0.043 0.031,0.043 0.016,0 0.02,-0.016 0.02,-0.043 l -0.02,-0.043 m 0.844,6.01 c -0.023,0 -0.031,0.012 -0.031,0.035 0,0.02 0.012,0.031 0.031,0.031 0.02,0 0.031,-0.012 0.031,-0.031 l -0.031,-0.035 m 0,-3.035 c -0.023,0 -0.031,0.012 -0.031,0.035 0,0.023 0.012,0.031 0.031,0.031 0.02,0 0.031,-0.008 0.031,-0.031 l -0.031,-0.035 m -0.883,2.703 c -0.023,0 -0.031,0.012 -0.031,0.035 0,0.023 0.008,0.031 0.031,0.031 0.02,0 0.027,-0.008 0.027,-0.031 L 22.89,23.794 m 0.535,0.617 c -0.023,0 -0.031,0.012 -0.031,0.031 0,0.023 0.012,0.035 0.031,0.035 0.02,0 0.027,-0.012 0.027,-0.035 l -0.027,-0.031 m 1.559,-5.273 c -0.023,0 -0.031,0.012 -0.031,0.031 0,0.023 0.008,0.035 0.031,0.035 0.02,0 0.027,-0.012 0.027,-0.035 l -0.027,-0.031 m -0.758,1.75 c -0.023,0 -0.031,0.008 -0.031,0.031 0,0.023 0.012,0.035 0.031,0.035 0.02,0 0.031,-0.012 0.031,-0.035 l -0.031,-0.031 m -0.934,-2.82 c -0.02,0 -0.023,0.016 -0.023,0.047 0,0.023 0.008,0.031 0.023,0.031 0.02,0 0.023,-0.012 0.023,-0.031 l -0.023,-0.047 m 2.059,5.934 c -0.023,0 -0.031,0.023 -0.031,0.047 0,0.023 0.012,0.031 0.031,0.031 0.012,0 0.02,-0.012 0.02,-0.031 l -0.02,-0.047 m 0.703,0.047 -0.148,0.031 -0.031,-0.031 0.18,0 M 24,24.252 l -0.012,0 c -0.004,0 -0.008,0.023 -0.008,0.066 0,0.043 0.008,0.063 0.02,0.063 0.012,-0.004 0.016,-0.023 0.016,-0.063 C 24.008,24.31 24,24.291 24,24.252 m 0.898,0.328 0,-0.137 -0.043,0 0.043,0.137 m 1.113,-1.188 c 0,-0.012 -0.02,-0.016 -0.055,-0.016 -0.031,0 -0.051,0.004 -0.051,0.016 0.012,0.016 0.031,0.02 0.051,0.02 l 0.023,0 0.031,-0.02 m -3.082,1.145 c -0.023,0 -0.031,0.012 -0.031,0.035 0,0.023 0.012,0.031 0.031,0.031 0.016,0 0.02,-0.012 0.02,-0.031 l -0.02,-0.035 m 1.785,-4.352 c 0.008,0 0.016,0.004 0.02,0.02 0.012,0.008 0.023,0.02 0.031,0.02 l 0,-0.031 c -0.008,0 -0.023,-0.02 -0.031,-0.035 -0.008,-0.023 -0.016,-0.035 -0.02,-0.043 l 0,0.078 m 0.48,4.01 c -0.031,0.039 -0.051,0.07 -0.051,0.094 l 0,0.02 c 0,0.008 0.004,0.016 0.012,0.023 l 0.039,-0.137 m -2.27,-3.633 -0.086,0 0.043,-0.059 0.039,0.059 m 1.602,3.816 0.105,0 0.035,-0.043 -0.145,0.043 M 22.778,18.16 c -0.012,0 -0.02,0.012 -0.02,0.031 0,0.016 0.008,0.023 0.02,0.023 0.023,0 0.031,-0.008 0.031,-0.023 0,-0.004 -0.008,-0.016 -0.031,-0.031 m 0.465,6.102 0.074,0 -0.031,-0.055 -0.035,0.055 m -1.031,0.125 c 0.008,0 0.012,0.012 0.012,0.035 0,0.023 -0.004,0.031 -0.012,0.031 -0.023,0 -0.027,-0.008 -0.027,-0.031 l 0.027,-0.035 m 1.074,0.105 c -0.023,0 -0.031,0.012 -0.031,0.031 0,0.016 0.012,0.023 0.031,0.023 0.008,0 0.012,-0.008 0.012,-0.023 l -0.012,-0.031 m 2.645,-1 c -0.012,0 -0.02,0.004 -0.027,0.012 l -0.043,0.023 0,0.043 0.074,-0.082 m -1.01,-4.395 c -0.016,0 -0.02,0.008 -0.02,0.031 0,0.016 0.004,0.023 0.02,0.023 0.012,0 0.02,-0.016 0.02,-0.023 l -0.02,-0.031 m -0.348,0.816 c 0,-0.008 -0.012,-0.012 -0.031,-0.012 -0.02,0 -0.031,0.004 -0.031,0.012 0,0.016 0.008,0.02 0.02,0.02 l 0.043,-0.02 m 0.387,-0.113 -0.008,-0.012 c -0.027,0 -0.043,0.016 -0.043,0.043 l 0.023,0 0.027,-0.031 m -0.039,-0.219 0.039,0 0,-0.07 -0.039,0.07 m 0.621,2.453 0.039,-0.055 -0.039,0 0,0.055 m -2.809,1.09 0.039,0 0,-0.055 -0.039,0.055 m -0.254,1.137 0.043,0 0,-0.055 -0.043,0.055 m 0.43,-0.125 c 0,-0.012 -0.012,-0.02 -0.031,-0.02 l -0.008,0.012 c 0,0.012 0,0.02 0.008,0.02 l 0.031,-0.012 m -0.176,-3.035 -0.012,-0.008 c -0.027,0 -0.039,0.008 -0.039,0.02 l 0.02,0.012 0.031,-0.023 m 2.02,-1.441 c 0.016,-0.016 0.027,-0.023 0.043,-0.023 l 0,-0.055 -0.043,0.082 m 0.652,3.988 -0.012,-0.023 c -0.02,0 -0.027,0.008 -0.027,0.023 0,0.008 0.012,0.008 0.039,0 m 0.59,-0.043 c -0.016,0 -0.02,0.008 -0.02,0.02 0,0.016 0.004,0.023 0.02,0.023 l 0.012,-0.012 -0.012,-0.031 m -1.113,0.328 c 0,0.012 -0.008,0.02 -0.023,0.02 -0.012,0 -0.02,-0.008 -0.02,-0.02 l 0.012,-0.012 0.031,0.012 m -0.727,-3.422 c -0.023,0.012 -0.031,0.027 -0.031,0.043 l 0.008,0.012 c 0.016,0 0.023,-0.02 0.023,-0.055 m -0.746,4.227 c -0.016,0 -0.023,0.008 -0.023,0.023 0,0.02 0.008,0.031 0.023,0.031 l 0,-0.055 m -0.633,-0.762 0,-0.043 -0.039,0 0.039,0.043 m 2.27,0.156 c -0.004,0 -0.008,0.008 -0.008,0.023 l 0.008,0.012 c 0.023,-0.008 0.031,-0.016 0.031,-0.023 l -0.031,-0.012 m -0.965,-5.809 0,0.035 -0.055,-0.035 0.055,0 m 1.684,5.16 -0.012,0 c -0.008,0.008 -0.012,0.016 -0.012,0.02 l 0.012,0.016 c 0.012,0 0.016,-0.016 0.012,-0.035 m 0,-0.809 -0.023,0.016 c 0,0.016 0.008,0.02 0.023,0.02 l 0,-0.031 m -0.477,-1.297 0.012,0.012 c 0.012,0.016 0.023,0.023 0.031,0.023 l 0.031,0 -0.078,-0.035 m -0.777,-0.66 0.023,0.012 c 0,0.016 -0.008,0.023 -0.023,0.023 l 0,-0.035 m -0.797,-2.566 0.012,0 c 0,-0.008 -0.008,-0.012 -0.02,-0.012 l -0.031,0.012 0.008,0.012 0.031,-0.012 m 1.516,5.648 c -0.008,0 -0.012,0.004 -0.012,0.02 0,0.016 0.004,0.023 0.012,0.023 l 0.008,-0.012 -0.008,-0.031 m -0.223,0 -0.039,0.066 0,-0.02 0.039,-0.051 m 0.176,-2.484 0.043,0 0,-0.023 -0.043,0.023 m -2.324,2.688 c -0.012,0.02 -0.02,0.031 -0.02,0.047 0.012,0 0.02,-0.016 0.02,-0.047 m 2.547,-0.027 -0.012,0 c -0.004,0.008 -0.008,0.016 -0.008,0.02 l 0.008,0.008 0.012,-0.027 m -0.176,0 c -0.008,0 -0.012,0.008 -0.012,0.02 l 0.012,0.008 0,-0.023 m 0.176,-2.523 -0.012,0 c -0.004,0.008 -0.008,0.016 -0.008,0.023 l 0.008,0.008 0.012,-0.031 m -0.895,-0.977 c -0.004,0 -0.008,0.008 -0.008,0.02 l 0.008,0.012 0,-0.031"
         inkscape:connector-curvature="0"
         style="fill:#f9f9f9;fill-opacity:1;fill-rule:nonzero;stroke:none" />
      <path
         id="path4295"
         d="m 27.406,22.04 c -0.027,0 -0.039,0.016 -0.039,0.043 0,0.039 0.016,0.055 0.051,0.055 0.004,0 0.016,-0.008 0.027,-0.02 l 0,0.227 0.105,0.273 c 0,0.035 0.016,0.086 0.043,0.137 0.027,0.051 0.051,0.113 0.074,0.18 l 0,0.043 c 0,0.008 0.012,0.027 0.031,0.055 0.02,0.031 0.035,0.059 0.039,0.066 l -0.008,0.043 c 0,0.02 0.031,0.047 0.094,0.082 0.074,0.02 0.105,0.059 0.105,0.09 l 0.203,0.113 0.234,0.207 c 0.027,0 0.07,0.02 0.125,0.055 0.066,0.039 0.125,0.074 0.184,0.102 l 0.063,0.043 0.066,0 c 0,0.012 0.016,0.023 0.051,0.035 0.031,0.016 0.055,0.023 0.066,0.023 l 0.098,-0.023 c 0.012,-0.008 0.02,-0.016 0.031,-0.02 0.004,-0.008 0.012,-0.02 0.02,-0.02 0.035,0.023 0.063,0.043 0.086,0.082 0.027,0.027 0.055,0.043 0.082,0.043 l 0.055,0 c 0.004,0 0.012,-0.004 0.02,-0.012 0.008,0.008 0.016,0.023 0.031,0.035 0.012,0.008 0.027,0.012 0.039,0.012 l 0.602,0 0.145,-0.102 c 0.008,0.008 0.012,0.02 0.012,0.035 l 0.008,0.02 c 0,0.039 -0.016,0.078 -0.051,0.117 l 0.023,0.008 c 0.012,0 0.027,-0.008 0.051,-0.031 0.02,-0.027 0.043,-0.059 0.074,-0.094 l 0.051,0 c 0.027,0.02 0.047,0.047 0.066,0.094 0.012,0.035 0.02,0.063 0.02,0.07 l 0.199,-0.16 0,0.047 c 0,0.012 0,0.016 0,0.023 0.008,0.008 0.012,0.016 0.012,0.02 l 0,0.391 0.168,0 0,0.02 c 0,0.07 -0.051,0.121 -0.148,0.156 -0.098,0.031 -0.188,0.047 -0.262,0.047 -0.148,0 -0.223,-0.02 -0.223,-0.059 -0.07,0.02 -0.125,0.051 -0.168,0.082 -0.031,0.027 -0.102,0.043 -0.199,0.043 l 0,-0.078 c -0.238,-0.109 -0.445,-0.16 -0.621,-0.16 -0.168,-0.008 -0.309,-0.023 -0.418,-0.055 -0.008,0 -0.02,-0.012 -0.043,-0.023 -0.02,-0.02 -0.035,-0.031 -0.051,-0.031 l -0.008,0.016 c -0.008,0.008 -0.023,0.02 -0.043,0.055 -0.012,0.023 -0.023,0.039 -0.031,0.055 l -0.02,-0.16 c 0,0.023 -0.012,0.047 -0.039,0.07 -0.027,0.016 -0.051,0.031 -0.066,0.047 -0.02,-0.059 -0.043,-0.098 -0.074,-0.105 -0.027,-0.016 -0.082,-0.02 -0.156,-0.02 -0.086,0 -0.129,0.004 -0.137,0.008 l 0.039,-0.113 -0.113,0 -0.012,-0.055 -0.086,0.055 0,-0.055 -0.105,-0.168 -0.031,0.113 -0.074,-0.043 c 0,-0.055 -0.02,-0.102 -0.066,-0.137 -0.039,-0.047 -0.063,-0.078 -0.063,-0.094 l 0,-0.082 c -0.016,0 -0.031,-0.008 -0.051,-0.012 -0.016,-0.008 -0.023,-0.012 -0.031,-0.012 -0.008,0.008 -0.016,0.016 -0.031,0.031 -0.008,0.016 -0.012,0.02 -0.02,0.02 l -0.156,0 0.125,-0.16 -0.039,0 c 0,-0.008 -0.012,-0.02 -0.031,-0.055 -0.023,-0.027 -0.035,-0.043 -0.043,-0.043 L 27.154,23.47 c 0,-0.051 -0.031,-0.117 -0.098,-0.191 -0.055,-0.086 -0.086,-0.145 -0.086,-0.188 0,-0.031 0.023,-0.051 0.066,-0.051 l -0.125,-0.055 c 0,-0.098 -0.027,-0.203 -0.086,-0.305 -0.047,-0.113 -0.074,-0.227 -0.074,-0.328 0,-0.035 0.008,-0.07 0.027,-0.094 0.027,-0.02 0.043,-0.043 0.043,-0.066 l 0,-0.012 c 0,-0.016 -0.008,-0.035 -0.02,-0.055 -0.008,-0.031 -0.012,-0.055 -0.012,-0.07 -0.012,0 -0.031,0.004 -0.051,0.012 -0.016,0.004 -0.023,0.008 -0.031,0.008 -0.02,0 -0.035,-0.004 -0.039,-0.008 l -0.043,-0.02 c 0.016,-0.012 0.039,-0.043 0.074,-0.105 0.043,-0.059 0.066,-0.102 0.066,-0.125 l 0,-0.008 c 0,-0.023 -0.004,-0.051 -0.012,-0.082 -0.004,-0.039 -0.008,-0.066 -0.008,-0.082 0.012,0 0.031,-0.004 0.051,-0.012 0.027,-0.02 0.039,-0.027 0.039,-0.043 0,-0.02 -0.004,-0.031 -0.008,-0.043 0,-0.023 0,-0.039 0,-0.051 0,-0.012 0.012,-0.02 0.039,-0.027 0.027,-0.02 0.043,-0.023 0.051,-0.023 l -0.063,-0.418 c 0.035,-0.016 0.059,-0.043 0.078,-0.082 0.012,-0.039 0.02,-0.051 0.02,-0.043 0,-0.016 -0.004,-0.023 -0.012,-0.023 l 0,-0.023 c 0,-0.035 0.008,-0.09 0.023,-0.156 0.02,-0.066 0.027,-0.102 0.051,-0.102 0.004,0 0.02,0.004 0.039,0.012 0.02,0.008 0.047,0.012 0.063,0.012 0,-0.016 -0.012,-0.035 -0.027,-0.07 -0.023,-0.035 -0.035,-0.07 -0.043,-0.09 l 0.012,0 c 0.008,0 0.02,-0.012 0.051,-0.035 0.027,-0.031 0.055,-0.055 0.086,-0.082 0.035,-0.027 0.063,-0.055 0.086,-0.078 0.027,-0.031 0.047,-0.047 0.063,-0.047 l 0.031,0 0,-0.102 c 0,-0.008 -0.012,-0.02 -0.039,-0.035 -0.023,-0.012 -0.031,-0.023 -0.031,-0.031 l 0,-0.035 c 0,-0.012 -0.004,-0.023 -0.012,-0.031 -0.008,-0.016 -0.008,-0.027 -0.008,-0.035 0.07,-0.074 0.125,-0.145 0.164,-0.215 0.043,-0.07 0.082,-0.113 0.117,-0.137 l 0.148,-0.125 c -0.035,0 -0.059,-0.023 -0.059,-0.07 0,-0.02 0.016,-0.035 0.031,-0.035 0.035,0 0.051,0.023 0.051,0.07 l -0.008,0.023 0.074,-0.043 0.039,0 c 0.016,0 0.023,0 0.027,0 0.02,-0.008 0.027,-0.012 0.043,-0.012 0.059,0 0.105,0.016 0.141,0.043 0.031,0.023 0.066,0.035 0.102,0.035 0.016,0 0.023,-0.004 0.031,-0.012 -0.035,0 -0.055,-0.023 -0.055,-0.059 0,-0.027 0.016,-0.047 0.043,-0.047 0.035,0 0.051,0.023 0.051,0.07 l -0.012,0.023 0.023,0 -0.066,-0.363 -0.105,0 c 0.023,-0.016 0.039,-0.035 0.066,-0.059 0.027,-0.027 0.055,-0.043 0.094,-0.043 l 0.156,0 c 0.016,0 0.031,-0.008 0.051,-0.023 0.02,-0.012 0.035,-0.023 0.043,-0.031 l 0.031,0.055 c 0,-0.016 0.016,-0.043 0.051,-0.09 0.039,-0.047 0.063,-0.09 0.063,-0.129 l 0.031,0.012 c 0.02,0 0.027,-0.012 0.043,-0.043 0.016,-0.027 0.023,-0.055 0.023,-0.082 l 0.379,0 0.02,-0.02 c 0.016,-0.016 0.023,-0.023 0.031,-0.023 l 0.262,-0.055 c 0.016,0 0.039,-0.012 0.086,-0.035 0.039,-0.02 0.094,-0.027 0.148,-0.027 0.066,0 0.113,0.004 0.145,0.012 0.035,0.008 0.063,0.012 0.074,0.02 0.023,0.008 0.035,0.016 0.039,0.023 0.02,0.008 0.035,0.012 0.066,0.012 0.02,0 0.043,-0.012 0.063,-0.035 0.027,-0.02 0.059,-0.031 0.082,-0.031 0.082,0 0.141,0.016 0.184,0.043 0.039,0.023 0.09,0.035 0.137,0.035 0.055,0 0.086,-0.004 0.094,-0.012 l 0.273,0.375 -0.066,0 -0.113,-0.055 c -0.023,0 -0.094,0.008 -0.188,0.02 -0.098,0.016 -0.16,0.027 -0.191,0.035 0,-0.008 -0.012,-0.02 -0.031,-0.035 -0.012,-0.012 -0.027,-0.02 -0.039,-0.02 l -0.086,0.055 -0.066,0 -0.086,0.055 c -0.02,0 -0.055,0.008 -0.113,0.023 -0.047,0.008 -0.086,0.016 -0.105,0.031 -0.008,0 -0.02,0 -0.043,0 -0.012,-0.008 -0.027,-0.016 -0.039,-0.016 l -0.098,0.035 c -0.027,0.02 -0.055,0.027 -0.082,0.043 -0.023,0.012 -0.043,0.023 -0.066,0.035 l -0.039,0 c -0.035,0 -0.082,0.023 -0.129,0.078 -0.047,0.047 -0.09,0.07 -0.125,0.07 l -0.168,0 c -0.008,0 -0.016,-0.004 -0.031,-0.008 -0.012,-0.008 -0.02,-0.02 -0.02,-0.035 -0.035,0 -0.051,0.016 -0.051,0.043 0,0.008 0.012,0.027 0.031,0.059 0.027,0.027 0.039,0.047 0.039,0.055 -0.012,0.016 -0.039,0.035 -0.086,0.07 -0.031,0.027 -0.055,0.043 -0.074,0.043 l -0.008,-0.113 c -0.023,0 -0.043,0.023 -0.066,0.07 -0.012,0.035 -0.02,0.07 -0.02,0.105 l -0.105,0.109 -0.031,-0.012 C 28.489,19.695 28.47,19.71 28.439,19.722 28.412,19.73 28.4,19.738 28.4,19.745 l -0.066,-0.012 0.012,0.078 c -0.008,0 -0.023,0.016 -0.051,0.047 -0.027,0.02 -0.043,0.051 -0.043,0.09 l -0.105,-0.043 0.023,0.137 -0.012,0 c -0.02,0 -0.043,0.02 -0.074,0.055 -0.02,0.035 -0.039,0.078 -0.051,0.113 0,-0.035 -0.023,-0.086 -0.066,-0.145 -0.035,-0.063 -0.051,-0.102 -0.051,-0.117 l 0.012,0 -0.051,-0.043 -0.066,0.316 -0.051,0 -0.02,-0.105 -0.066,0.07 c -0.02,0.023 -0.047,0.031 -0.086,0.031 0.047,0.016 0.109,0.035 0.18,0.055 0.07,0.023 0.117,0.066 0.145,0.125 l 0,0.094 c 0,0.012 -0.008,0.031 -0.023,0.082 -0.023,0.035 -0.035,0.066 -0.059,0.078 l -0.039,0 c -0.02,0 -0.043,0.031 -0.063,0.094 -0.012,0.063 -0.023,0.121 -0.023,0.184 0,0.008 0.012,0.016 0.02,0.02 l 0,0.02 c 0,0.008 0.004,0.016 0.02,0.023 0.02,0.023 0.031,0.027 0.039,0.035 -0.02,0.004 -0.055,0.039 -0.105,0.105 -0.039,0.051 -0.074,0.094 -0.094,0.109 l 0.008,0.047 c 0,0.016 -0.008,0.051 -0.031,0.105 -0.02,0.043 -0.039,0.09 -0.063,0.125 l -0.02,0.031 0,0.059 c 0,0.012 0.004,0.027 0.02,0.043 -0.02,0.035 -0.035,0.102 -0.043,0.191 -0.004,0.086 -0.008,0.168 -0.008,0.262 -0.016,-0.008 -0.027,-0.027 -0.043,-0.055 m 3.461,2.02 c -0.008,0 -0.023,0.008 -0.051,0.023 -0.023,0.008 -0.039,0.016 -0.051,0.02 l 0.02,0.059 c -0.012,0.016 -0.031,0.031 -0.051,0.066 -0.023,0.023 -0.035,0.031 -0.039,0.031 -0.016,-0.02 -0.027,-0.047 -0.031,-0.078 0,-0.039 0,-0.063 0,-0.082 0.004,-0.016 0.008,-0.047 0.008,-0.102 0.008,-0.063 0.016,-0.102 0.023,-0.113 l 0.176,0.172 m -0.074,0.203 0.02,-0.023 c 0.012,-0.016 0.027,-0.02 0.039,-0.02 l 0.043,0 c 0.008,-0.016 0.012,-0.031 0.02,-0.055 0.016,-0.031 0.02,-0.051 0.02,-0.059 0.008,0 0.02,0.008 0.031,0.023 0.016,0.016 0.02,0.023 0.02,0.035 0,0.059 -0.004,0.109 -0.02,0.152 -0.004,0.039 -0.039,0.063 -0.105,0.063 L 30.857,24.368 C 30.841,24.352 30.83,24.341 30.826,24.321 l -0.031,-0.055 m -3.637,-3.441 c -0.047,0 -0.098,0.016 -0.137,0.043 -0.043,0.023 -0.066,0.074 -0.066,0.148 l 0.203,-0.105 0,-0.09 m 1.188,-1.422 c 0.043,0.043 0.086,0.07 0.129,0.07 l 0.063,-0.012 -0.063,-0.059 0.082,-0.117 -0.039,0 c -0.02,0 -0.043,0.012 -0.074,0.023 -0.02,0.016 -0.031,0.031 -0.031,0.043 l -0.063,0.047 m 2.07,4.859 c 0,0.016 0.016,0.035 0.039,0.059 0.035,0.012 0.063,0.023 0.078,0.023 l -0.043,-0.238 c -0.023,0.027 -0.043,0.059 -0.051,0.09 l -0.02,0.07 m -2.305,-4.906 c -0.055,-0.066 -0.086,-0.102 -0.086,-0.129 0,-0.027 0.016,-0.043 0.043,-0.043 0.031,-0.008 0.063,-0.012 0.082,-0.012 l -0.02,0.137 -0.02,0.047 m -0.453,0.5 c 0,0.051 0.016,0.082 0.051,0.082 l 0.063,0 c -0.063,-0.07 -0.094,-0.137 -0.094,-0.207 -0.012,0.012 -0.02,0.055 -0.02,0.125 m 2.902,4.637 c -0.031,0 -0.051,0.02 -0.051,0.043 0,0.039 0.02,0.059 0.063,0.059 0.023,0 0.031,-0.008 0.031,-0.031 0,-0.043 -0.016,-0.07 -0.043,-0.07 m -0.57,-5.781 c -0.02,0 -0.023,0.012 -0.023,0.043 0,0.043 0.016,0.07 0.051,0.07 0.02,0 0.031,-0.016 0.031,-0.047 0,-0.043 -0.023,-0.066 -0.059,-0.066 m -1.352,5.508 c -0.023,0 -0.031,0.012 -0.031,0.035 0,0.051 0.02,0.078 0.051,0.078 0.023,0 0.031,-0.008 0.031,-0.031 0,-0.051 -0.016,-0.082 -0.051,-0.082 m -0.969,-0.91 c -0.023,0 -0.031,0.016 -0.031,0.047 0,0.043 0.016,0.066 0.043,0.066 0.027,0 0.039,-0.012 0.039,-0.043 0,-0.043 -0.02,-0.07 -0.051,-0.07 m -0.594,-2.625 c -0.023,0 -0.039,0.02 -0.039,0.055 0,0.039 0.016,0.055 0.039,0.055 0.027,0 0.043,-0.016 0.043,-0.055 0,-0.035 -0.016,-0.055 -0.043,-0.055 m 0.738,-1.227 c -0.027,0 -0.043,0.02 -0.043,0.055 0,0.039 0.016,0.055 0.043,0.055 0.027,0 0.039,-0.016 0.039,-0.055 0,-0.035 -0.012,-0.055 -0.039,-0.055 m 0.418,0.273 c -0.02,0 -0.031,0.016 -0.031,0.043 0,0.043 0.023,0.07 0.055,0.07 0.02,0 0.027,-0.016 0.027,-0.031 0,-0.055 -0.016,-0.082 -0.051,-0.082 m -1.422,2.078 c -0.027,0 -0.039,0.016 -0.039,0.047 0,0.043 0.023,0.07 0.066,0.07 0.016,0 0.02,-0.016 0.02,-0.035 0,-0.051 -0.016,-0.082 -0.043,-0.082 m 0.473,-0.859 c -0.023,0 -0.035,0.016 -0.035,0.043 0,0.043 0.012,0.07 0.035,0.07 0.027,0 0.047,-0.023 0.047,-0.055 0,-0.035 -0.02,-0.059 -0.047,-0.059 m 3.25,-2.234 c -0.02,0 -0.027,0.012 -0.027,0.043 0,0.043 0.02,0.066 0.063,0.066 0.016,0 0.023,-0.012 0.023,-0.035 0,-0.051 -0.02,-0.074 -0.051,-0.074 m -3.121,2.445 c -0.023,0 -0.031,0.02 -0.031,0.051 0,0.043 0.02,0.066 0.063,0.066 0.016,0 0.023,-0.012 0.023,-0.035 0,-0.051 -0.02,-0.082 -0.055,-0.082 m 1.309,-2.234 c -0.035,0 -0.051,0.016 -0.051,0.047 0,0.043 0.02,0.063 0.063,0.063 0.016,0 0.02,-0.012 0.02,-0.043 l -0.027,-0.066 m -1.156,1.078 c -0.027,0 -0.043,0.016 -0.043,0.047 0,0.035 0.02,0.055 0.066,0.055 0.012,0 0.02,-0.012 0.02,-0.035 0,-0.043 -0.012,-0.066 -0.039,-0.066 m -0.707,2.512 c -0.016,0 -0.02,0.008 -0.02,0.031 0,0.043 0.012,0.07 0.039,0.07 0.027,0 0.043,-0.012 0.043,-0.031 0,-0.047 -0.023,-0.07 -0.066,-0.07 m 0.137,0.102 c -0.02,0 -0.031,0.016 -0.031,0.031 0,0.047 0.02,0.07 0.066,0.07 0.02,0 0.031,-0.008 0.031,-0.031 0,-0.008 -0.012,-0.023 -0.031,-0.043 L 27.021,22.62 m 2.102,-3.637 c -0.02,0 -0.027,0.02 -0.027,0.047 0,0.035 0.016,0.059 0.043,0.059 0.023,0 0.035,-0.02 0.035,-0.051 0,-0.031 -0.016,-0.055 -0.051,-0.055 m 0.434,-0.375 c -0.023,0 -0.031,0.02 -0.031,0.043 0,0.039 0.016,0.063 0.043,0.063 0.027,0 0.039,-0.02 0.039,-0.051 0,-0.031 -0.02,-0.055 -0.051,-0.055 m -0.98,0.375 c -0.02,0 -0.031,0.02 -0.031,0.047 0,0.035 0.02,0.059 0.039,0.059 0.027,0 0.043,-0.02 0.043,-0.051 0,-0.031 -0.016,-0.055 -0.051,-0.055 m 1.602,5.445 c -0.023,0 -0.027,0.016 -0.027,0.043 0,0.047 0.02,0.07 0.051,0.07 0.023,0 0.031,-0.016 0.031,-0.043 0,-0.008 -0.023,-0.031 -0.055,-0.07 m -2.363,-4.055 c -0.023,0 -0.027,0.016 -0.027,0.043 0,0.043 0.012,0.07 0.039,0.07 0.027,0 0.043,-0.016 0.043,-0.043 0,-0.008 -0.02,-0.031 -0.055,-0.07 m 1.113,-1.227 c 0.016,0.016 0.031,0.031 0.063,0.055 0.035,0.023 0.063,0.035 0.078,0.043 l 0.008,-0.012 c -0.008,0 -0.023,-0.016 -0.063,-0.055 -0.027,-0.043 -0.063,-0.078 -0.102,-0.09 0.008,0.008 0.012,0.02 0.012,0.055 m -1.313,2.352 c 0.035,0 0.051,0.02 0.051,0.055 0,0.031 -0.012,0.047 -0.039,0.047 -0.027,0 -0.043,-0.02 -0.043,-0.055 l 0.031,-0.047 m 2.688,3.047 0.117,0 -0.02,-0.113 -0.098,0.113 m -1.984,-5.5 c -0.023,0 -0.031,0.016 -0.031,0.047 0,0.035 0.012,0.055 0.039,0.055 0.023,0 0.031,-0.016 0.031,-0.043 0,-0.039 -0.012,-0.059 -0.039,-0.059 m 0.082,-0.488 c 0.027,0 0.043,0.02 0.043,0.055 0,0.031 -0.012,0.043 -0.031,0.043 -0.027,0 -0.039,-0.016 -0.039,-0.055 l 0.027,-0.043 m -1.164,1.602 -0.031,0.16 -0.051,-0.055 0.086,-0.105 m 1.051,4.07 c 0,-0.023 0.004,-0.047 0.012,-0.082 0.02,-0.035 0.023,-0.051 0.023,-0.043 l 0,-0.035 -0.066,0 0.031,0.16 M 28.8,19.088 28.792,19.1 c 0,0.012 0.004,0.035 0.008,0.066 0.012,0.023 0.023,0.035 0.031,0.035 0.02,0 0.023,-0.016 0.023,-0.043 0,-0.031 -0.02,-0.055 -0.055,-0.07 m 0.695,-0.219 c -0.004,0 -0.008,0.008 -0.008,0.023 0,0.012 0,0.031 0,0.055 0.008,0.023 0.016,0.031 0.031,0.031 0.004,0 0.008,-0.012 0.008,-0.043 0,-0.031 -0.008,-0.051 -0.031,-0.07 m -2.625,2.41 c 0,0.016 0,0.023 0.008,0.031 l 0,0.02 c -0.008,0 -0.012,0.012 -0.02,0.023 -0.008,0.012 -0.016,0.023 -0.031,0.031 0,-0.023 -0.004,-0.035 -0.008,-0.043 l 0.051,-0.07 m 0.066,1.066 c 0,0.008 -0.012,0.023 -0.023,0.047 -0.016,0.02 -0.02,0.039 -0.02,0.055 l 0.094,-0.102 -0.051,0 m 0.094,-0.75 0.043,-0.059 -0.102,0 0.063,0.059 m 0.254,1.828 c 0,-0.02 -0.012,-0.031 -0.039,-0.031 -0.016,0 -0.023,0.008 -0.023,0.02 0,0.023 0.012,0.031 0.031,0.031 l 0.031,-0.02 m 3.238,1 c -0.012,0 -0.023,0.008 -0.023,0.023 0,0.027 0.012,0.043 0.023,0.043 0.02,-0.008 0.031,-0.02 0.031,-0.031 0,-0.008 -0.016,-0.02 -0.031,-0.035 m -2.996,-4.535 0.051,-0.043 -0.105,0 0.051,0.043 m 2.566,4.605 c 0,-0.023 -0.004,-0.031 -0.02,-0.031 -0.023,0 -0.031,0.008 -0.031,0.031 0,0.008 0.008,0.012 0.02,0.012 l 0.031,-0.012 m -2.809,-3.684 c -0.012,0 -0.02,0.008 -0.02,0.023 0,0.016 0.008,0.02 0.02,0.02 0.02,0 0.031,-0.004 0.031,-0.02 l -0.031,-0.023 m 0.559,-1.488 c -0.012,0 -0.02,-0.008 -0.02,-0.023 0.008,-0.004 0.016,-0.008 0.02,-0.008 0.023,0 0.031,0.004 0.031,0.008 l -0.031,0.023"
         inkscape:connector-curvature="0"
         style="fill:#f9f9f9;fill-opacity:1;fill-rule:nonzero;stroke:none" />
    </g>
  </g>
  <g
     id="g14291">
    <path
       d="m 5.2922679,73.685059 0,5.0663 c 0,6.668 5.3645011,12.032 12.0320011,12.032 l 61.049,0 c 6.668,0 12.032,-5.3645 12.032,-12.032 l 0,-5.0663 c 0,6.6681 -5.3645,12.032 -12.032,12.032 l -61.049,0 c -6.668,0 -12.0320011,-5.3643 -12.0320011,-12.032 z"
       id="path64"
       inkscape:connector-curvature="0"
       style="opacity:0.4;fill:url(#linearGradient14237);fill-opacity:1" />
    <path
       inkscape:connector-curvature="0"
       id="path14214"
       d="m 5.2929688,72.717592 0,1.15039 c 0,6.667718 5.3632502,12.031248 12.0312502,12.031248 l 61.048828,0 c 6.6675,0 12.03125,-5.36313 12.03125,-12.031248 l 0,-1.15039 c 0,6.668098 -5.36375,12.031248 -12.03125,12.031248 l -61.048828,0 c -6.668,0 -12.0312502,-5.36355 -12.0312502,-12.031248 z"
       style="opacity:0.5;fill:url(#linearGradient14245);fill-opacity:1" />
  </g>
</svg>
