<?xml version="1.0" encoding="UTF-8" standalone="no"?>
<svg
   xmlns:dc="http://purl.org/dc/elements/1.1/"
   xmlns:cc="http://creativecommons.org/ns#"
   xmlns:rdf="http://www.w3.org/1999/02/22-rdf-syntax-ns#"
   xmlns:svg="http://www.w3.org/2000/svg"
   xmlns="http://www.w3.org/2000/svg"
   xmlns:xlink="http://www.w3.org/1999/xlink"
   xmlns:sodipodi="http://sodipodi.sourceforge.net/DTD/sodipodi-0.dtd"
   xmlns:inkscape="http://www.inkscape.org/namespaces/inkscape"
   height="96"
   width="96"
   id="svg2012"
   version="1.1"
   inkscape:version="0.91 r13725"
   sodipodi:docname="gdm-setup.svg">
  <metadata
     id="metadata2104">
    <rdf:RDF>
      <cc:Work
         rdf:about="">
        <dc:format>image/svg+xml</dc:format>
        <dc:type
           rdf:resource="http://purl.org/dc/dcmitype/StillImage" />
      </cc:Work>
    </rdf:RDF>
  </metadata>
  <sodipodi:namedview
     pagecolor="#ffffff"
     bordercolor="#666666"
     borderopacity="1"
     objecttolerance="10"
     gridtolerance="10"
     guidetolerance="10"
     inkscape:pageopacity="0"
     inkscape:pageshadow="2"
     inkscape:window-width="640"
     inkscape:window-height="480"
     id="namedview2102"
     showgrid="false"
     inkscape:zoom="2.4583333"
     inkscape:cx="48"
     inkscape:cy="48"
     inkscape:current-layer="svg2012" />
  <defs
     id="defs2014">
    <linearGradient
       x2="0"
       y1="84.03"
       y2="2.993"
       gradientUnits="userSpaceOnUse"
       id="linearGradient6400">
      <stop
         stop-color="#ccc"
         id="stop2017" />
      <stop
         stop-color="#dae0de"
         offset="1"
         id="stop2019" />
    </linearGradient>
    <radialGradient
       cy="-15.871"
       r="35.938"
       gradientUnits="userSpaceOnUse"
       id="radialGradient4578"
       cx="56.07"
       gradientTransform="matrix(-0.00226,-1.2346,1.3856,0,169.72,1091.6)">
      <stop
         stop-color="#4490e6"
         id="stop2022" />
      <stop
         stop-color="#103d8f"
         offset="1"
         id="stop2024" />
    </radialGradient>
    <linearGradient
       x2="0"
       y1="8.06"
       y2="72.77"
       gradientUnits="userSpaceOnUse"
       id="linearGradient4580"
       gradientTransform="translate(99.64,951.36)">
      <stop
         stop-color="#fff"
         id="stop2027" />
      <stop
         stop-color="#fff"
         stop-opacity="0"
         offset="1"
         id="stop2029" />
    </linearGradient>
    <clipPath
       clipPathUnits="userSpaceOnUse"
       id="clipPath5350">
      <rect
         x="112.63"
         rx="8.368"
         y="967.6"
         height="65.42"
         width="69.68"
         id="rect2032" />
    </clipPath>
    <linearGradient
       inkscape:collect="always"
       xlink:href="#linearGradient14231"
       id="linearGradient14237"
       x1="50.707542"
       y1="81.682442"
       x2="50.707542"
       y2="96.539803"
       gradientUnits="userSpaceOnUse" />
    <linearGradient
       inkscape:collect="always"
       id="linearGradient14231">
      <stop
         style="stop-color:#000000;stop-opacity:1;"
         offset="0"
         id="stop14233" />
      <stop
         style="stop-color:#000000;stop-opacity:0;"
         offset="1"
         id="stop14235" />
    </linearGradient>
    <linearGradient
       inkscape:collect="always"
       xlink:href="#linearGradient14239"
       id="linearGradient14245"
       x1="49.876652"
       y1="87.937508"
       x2="49.876652"
       y2="76.719681"
       gradientUnits="userSpaceOnUse" />
    <linearGradient
       inkscape:collect="always"
       id="linearGradient14239">
      <stop
         style="stop-color:#ffffff;stop-opacity:1;"
         offset="0"
         id="stop14241" />
      <stop
         style="stop-color:#ffffff;stop-opacity:0;"
         offset="1"
         id="stop14243" />
    </linearGradient>
  </defs>
  <rect
     style="fill-opacity:0.02000002"
     id="rect2036"
     width="89.620003"
     height="89.980003"
     y="2.9899757"
     rx="12.724"
     x="3.3529999" />
  <rect
     style="fill-opacity:0.03900003"
     id="rect2038"
     width="88.410004"
     height="88.760002"
     y="3.6000221"
     rx="12.552"
     x="3.9590001" />
  <rect
     style="fill-opacity:0.078"
     id="rect2040"
     width="87.199997"
     height="87.550003"
     y="4.2100072"
     rx="12.38"
     x="4.5640001" />
  <rect
     style="fill-opacity:0.15700001"
     id="rect2042"
     width="85.990997"
     height="86.330002"
     y="4.8199925"
     rx="12.208"
     x="5.1700001" />
  <path
     inkscape:connector-curvature="0"
     style="fill:url(#linearGradient6400)"
     id="path2044"
     d="m 17.75,5.4062 c -6.642,0 -11.969,5.3948 -11.969,12.063 l 2e-4,61.031 c 0,6.668 5.3268,12.031 11.969,12.031 l 60.812,0 c 6.642,0 11.969,-5.363 11.969,-12.031 l 0,-61.031 c 0,-6.668 -5.327,-12.063 -11.969,-12.063 l -60.812,2e-4 z" />
  <rect
     style="opacity:0.5;fill:#4d4d4d"
     id="rect2050"
     width="71.470001"
     height="56.75"
     y="12.290025"
     rx="7.2589998"
     x="12.232" />
  <rect
     style="fill:#999999"
     id="rect2052"
     transform="scale(1,-1)"
     width="17.309"
     height="2.559"
     y="-79.940048"
     rx="1.28"
     x="58.933998" />
  <rect
     style="fill:#808080"
     id="rect2054"
     transform="scale(1,-1)"
     width="17.309"
     height="2.559"
     y="-79.040024"
     rx="1.28"
     x="58.933998" />
  <g
     id="g2056"
     transform="matrix(1,0,0,0.85603,-99.5,-812.98)"
     clip-path="url(#clipPath5350)">
    <path
       inkscape:connector-curvature="0"
       style="fill:url(#radialGradient4578)"
       id="path2058"
       d="m 183.58,1035.2 0,-71.868 -71.937,0 0,71.868 71.937,0 z" />
    <rect
       style="opacity:0.4;fill:#c3d9f5"
       id="rect2060"
       width="72.540001"
       height="10"
       y="1025.4"
       ry="2.3829999"
       rx="3.03"
       x="111.42" />
    <rect
       style="opacity:0.3;fill:#ffffff"
       id="rect2062"
       width="44"
       height="32"
       y="981.35999"
       ry="4.02"
       rx="3.52"
       x="125.64" />
    <rect
       style="fill:#ffffff"
       id="rect2064"
       width="34"
       height="12"
       y="994.35999"
       rx="2"
       x="130.64" />
    <path
       style="fill:#0f3d6f"
       inkscape:connector-curvature="0"
       id="path2066"
       d="m 132.64,993.39 c -1.6208,0 -2.9688,1.348 -2.9688,2.9688 l 0,8 c 0,1.6208 1.348,2.9688 2.9688,2.9688 l 30,0 c 1.6208,0 2.9688,-1.348 2.9688,-2.9688 l 0,-8 c 0,-1.6208 -1.348,-2.9688 -2.9688,-2.9688 l -30,0 z m 0,2.0312 30,0 c 0.50058,0 0.9375,0.43692 0.9375,0.9375 l 0,8 c 0,0.5006 -0.43692,0.9375 -0.9375,0.9375 l -30,0 c -0.50057,0 -0.9375,-0.4369 -0.9375,-0.9375 l 0,-8 c 0,-0.50058 0.43693,-0.9375 0.9375,-0.9375 z" />
    <path
       style="opacity:0.3"
       inkscape:connector-curvature="0"
       id="path2068"
       d="m 132.64,995.42 c -0.50057,0 -0.9375,0.43692 -0.9375,0.9375 l 0,8 c 0,0.3099 0.19113,0.5775 0.4375,0.75 l 0,-7.75 c 0,-0.50058 0.42139,-0.9375 0.90625,-0.9375 l 29.188,0 c 0.48487,0 0.90625,0.43692 0.90625,0.9375 l 0,7.75 c 0.24638,-0.1725 0.4375,-0.4401 0.4375,-0.75 l 0,-8 c 0,-0.50058 -0.43692,-0.9375 -0.9375,-0.9375 l -30,0 z" />
    <path
       inkscape:connector-curvature="0"
       id="path2070"
       d="m 139.64,1000.4 a 2.5,2.5 0 0 1 -5,0 2.5,2.5 0 1 1 5,0 z" />
    <path
       inkscape:connector-curvature="0"
       id="path2072"
       d="m 146.64,1000.4 a 2.5,2.5 0 0 1 -5,0 2.5,2.5 0 1 1 5,0 z" />
    <path
       inkscape:connector-curvature="0"
       id="path2074"
       d="m 153.64,1000.4 a 2.5,2.5 0 0 1 -5,0 2.5,2.5 0 1 1 5,0 z" />
    <path
       inkscape:connector-curvature="0"
       id="path2076"
       d="m 160.64,1000.4 a 2.5,2.5 0 0 1 -5,0 2.5,2.5 0 1 1 5,0 z" />
    <g
       style="fill:#ffffff"
       id="g2078"
       transform="translate(99.64,951.36)">
      <path
         inkscape:connector-curvature="0"
         id="path2080"
         d="m 32.549,35.65 c -3e-6,0.14341 -0.02416,0.27747 -0.07249,0.40218 -0.04677,0.12315 -0.11769,0.23071 -0.21278,0.32268 -0.09353,0.09041 -0.21122,0.16212 -0.35307,0.21512 -0.14186,0.053 -0.30709,0.0795 -0.4957,0.0795 l -0.96803,0 0,1.2837 -0.4466,0 0,-3.2946 1.3866,0 c 0.19485,3e-6 0.36476,0.02416 0.50973,0.07248 0.14497,0.04677 0.26578,0.1138 0.36242,0.20109 0.09664,0.08574 0.16913,0.19018 0.21746,0.31332 0.04832,0.12159 0.07248,0.25643 0.07249,0.40451 m -0.44894,0.0047 c -2e-6,-0.20888 -0.06391,-0.3671 -0.19173,-0.47466 -0.12782,-0.10912 -0.31956,-0.16367 -0.5752,-0.16368 l -0.88619,0 0,1.3001 0.9049,0 c 0.2572,2e-6 0.44582,-0.05689 0.56585,-0.17069 0.12158,-0.11379 0.18238,-0.27747 0.18238,-0.49103" />
      <path
         inkscape:connector-curvature="0"
         id="path2082"
         d="m 33.774,38 c -0.25409,0 -0.44504,-0.06703 -0.57287,-0.20109 -0.12782,-0.13406 -0.19174,-0.318 -0.19174,-0.55182 0,-0.16679 0.03118,-0.30319 0.09353,-0.40919 0.06391,-0.10756 0.14653,-0.19173 0.24785,-0.25253 0.10288,-0.06079 0.21979,-0.10288 0.35074,-0.12626 0.13094,-0.02338 0.26422,-0.03663 0.39984,-0.03975 l 0.56819,-0.0094 0,-0.13796 c -2e-6,-0.10444 -0.01091,-0.19329 -0.03274,-0.26656 -0.02183,-0.07326 -0.05534,-0.1325 -0.10054,-0.1777 -0.04521,-0.0452 -0.1021,-0.07794 -0.17069,-0.09821 -0.06703,-0.02182 -0.14653,-0.03273 -0.2385,-0.03274 -0.08106,2e-6 -0.15432,0.0062 -0.21979,0.01871 -0.06547,0.01091 -0.12237,0.03196 -0.17069,0.06313 -0.04832,0.02962 -0.0873,0.07093 -0.11691,0.12393 -0.02962,0.05144 -0.0491,0.11691 -0.05846,0.19641 l -0.43959,-0.03975 c 0.01559,-0.09976 0.04521,-0.19095 0.08885,-0.27357 0.04365,-0.08417 0.10522,-0.15666 0.18472,-0.21746 0.08106,-0.06079 0.1816,-0.10756 0.30163,-0.14029 0.12159,-0.03429 0.26812,-0.05144 0.43959,-0.05144 0.318,2e-6 0.55728,0.07327 0.71784,0.21979 0.16056,0.14497 0.24084,0.35541 0.24084,0.63132 l 0,1.0896 c -2e-6,0.12471 0.01637,0.21901 0.0491,0.28292 0.03273,0.06235 0.09509,0.09353 0.18706,0.09353 0.02338,0 0.04676,-0.0016 0.07015,-0.0047 0.02338,-0.0031 0.04598,-0.007 0.06781,-0.01169 l 0,0.26188 c -0.053,0.01247 -0.106,0.02182 -0.159,0.02806 -0.05144,0.0062 -0.10678,0.0094 -0.16601,0.0094 -0.0795,0 -0.14809,-0.01013 -0.20576,-0.0304 -0.05612,-0.02182 -0.1021,-0.05378 -0.13796,-0.09587 -0.03585,-0.04365 -0.06313,-0.09665 -0.08184,-0.159 -0.01871,-0.06391 -0.0304,-0.13796 -0.03507,-0.22213 l -0.01403,0 c -0.04521,0.08106 -0.09509,0.15432 -0.14965,0.21979 -0.053,0.06547 -0.11535,0.12159 -0.18706,0.16835 -0.07171,0.04521 -0.15354,0.08028 -0.24551,0.10522 -0.09041,0.02494 -0.19485,0.03741 -0.31332,0.03741 m 0.09587,-0.31566 c 0.13406,0 0.25097,-0.02416 0.35073,-0.07249 0.10132,-0.04988 0.18472,-0.11301 0.25019,-0.1894 0.06703,-0.07638 0.11691,-0.15978 0.14965,-0.25019 0.03273,-0.09041 0.0491,-0.17692 0.0491,-0.25954 l 0,-0.2081 -0.46063,0.0094 c -0.10288,0.0016 -0.20109,0.0094 -0.29462,0.02338 -0.09197,0.01247 -0.17303,0.03819 -0.24318,0.07716 -0.07015,0.03897 -0.12626,0.09353 -0.16835,0.16368 -0.04053,0.07015 -0.06079,0.16212 -0.06079,0.27591 0,0.13718 0.03663,0.24318 0.1099,0.318 0.07482,0.07482 0.18082,0.11224 0.318,0.11224" />
      <path
         inkscape:connector-curvature="0"
         id="path2084"
         d="m 37.693,37.254 c -3e-6,0.11847 -0.02338,0.22447 -0.07015,0.318 -0.04521,0.09197 -0.11146,0.16991 -0.19875,0.23382 -0.0873,0.06235 -0.19485,0.11068 -0.32268,0.14497 -0.12627,0.03274 -0.27124,0.0491 -0.43491,0.0491 -0.14653,0 -0.27903,-0.01169 -0.3975,-0.03507 C 36.1521,37.943 36.04922,37.90714 35.96036,37.85726 35.87151,37.80738 35.79668,37.74191 35.73589,37.66085 35.67665,37.57823 35.63301,37.47769 35.60495,37.35922 l 0.37178,-0.07249 c 0.03585,0.13562 0.1099,0.23538 0.22213,0.29929 0.11223,0.06235 0.26812,0.09353 0.46765,0.09353 0.09041,0 0.17303,-0.0062 0.24785,-0.01871 0.07638,-0.01247 0.14185,-0.03351 0.19641,-0.06313 0.05456,-0.03118 0.09664,-0.07171 0.12626,-0.12159 0.03117,-0.05144 0.04676,-0.11457 0.04677,-0.1894 -2e-6,-0.07638 -0.01793,-0.13873 -0.05378,-0.18706 -0.03585,-0.04988 -0.08574,-0.09119 -0.14965,-0.12393 -0.06391,-0.03274 -0.14185,-0.06079 -0.23382,-0.08418 -0.09041,-0.02494 -0.19018,-0.05222 -0.29929,-0.08184 -0.10132,-0.0265 -0.20187,-0.05612 -0.30163,-0.08885 -0.09977,-0.03273 -0.19018,-0.0756 -0.27124,-0.1286 -0.0795,-0.05456 -0.14419,-0.12159 -0.19407,-0.20109 -0.04988,-0.0795 -0.07482,-0.17926 -0.07482,-0.29929 0,-0.2307 0.08184,-0.40607 0.24551,-0.5261 0.16523,-0.12158 0.40529,-0.18238 0.72017,-0.18238 0.27903,3e-6 0.50038,0.04911 0.66406,0.14731 0.16523,0.09821 0.26967,0.25565 0.31332,0.47232 l -0.37879,0.04676 c -0.01403,-0.06547 -0.03975,-0.12003 -0.07716,-0.16368 -0.03741,-0.0452 -0.08262,-0.08106 -0.13562,-0.10756 -0.053,-0.02806 -0.11302,-0.04754 -0.18004,-0.05846 -0.06547,-0.01247 -0.13406,-0.0187 -0.20576,-0.01871 -0.19018,3e-6 -0.33047,0.02884 -0.42088,0.08651 -0.09041,0.05768 -0.13562,0.14497 -0.13562,0.26188 -1e-6,0.06859 0.01637,0.12549 0.0491,0.17069 0.03429,0.04365 0.08106,0.08106 0.14029,0.11224 0.06079,0.02962 0.13328,0.05612 0.21746,0.0795 0.08418,0.02182 0.17692,0.04521 0.27825,0.07015 0.06703,0.01715 0.13562,0.03585 0.20576,0.05612 0.07014,0.01871 0.13795,0.04209 0.20342,0.07015 0.06703,0.0265 0.12938,0.05846 0.18706,0.09587 0.05923,0.03585 0.11067,0.0795 0.15432,0.13094 0.04364,0.05144 0.07794,0.11146 0.10288,0.18004 0.0265,0.06859 0.03975,0.14809 0.03975,0.2385" />
      <path
         inkscape:connector-curvature="0"
         id="path2086"
         d="m 40.087,37.254 c -2e-6,0.11847 -0.02338,0.22447 -0.07015,0.318 -0.04521,0.09197 -0.11146,0.16991 -0.19875,0.23382 -0.0873,0.06235 -0.19485,0.11068 -0.32268,0.14497 -0.12627,0.03274 -0.27124,0.0491 -0.43491,0.0491 -0.14653,0 -0.27903,-0.01169 -0.3975,-0.03507 C 38.5461,37.943 38.44322,37.90714 38.35436,37.85726 38.26551,37.80738 38.19068,37.74191 38.12989,37.66085 38.07065,37.57823 38.02701,37.47769 37.99895,37.35922 l 0.37178,-0.07249 c 0.03585,0.13562 0.1099,0.23538 0.22213,0.29929 0.11223,0.06235 0.26812,0.09353 0.46764,0.09353 0.09041,0 0.17303,-0.0062 0.24785,-0.01871 0.07638,-0.01247 0.14185,-0.03351 0.19641,-0.06313 0.05456,-0.03118 0.09664,-0.07171 0.12626,-0.12159 0.03117,-0.05144 0.04676,-0.11457 0.04676,-0.1894 -10e-7,-0.07638 -0.01793,-0.13873 -0.05378,-0.18706 -0.03585,-0.04988 -0.08574,-0.09119 -0.14965,-0.12393 -0.06391,-0.03274 -0.14185,-0.06079 -0.23382,-0.08418 -0.09041,-0.02494 -0.19018,-0.05222 -0.29929,-0.08184 -0.10132,-0.0265 -0.20187,-0.05612 -0.30163,-0.08885 -0.09977,-0.03273 -0.19018,-0.0756 -0.27123,-0.1286 -0.0795,-0.05456 -0.14419,-0.12159 -0.19407,-0.20109 -0.04988,-0.0795 -0.07482,-0.17926 -0.07482,-0.29929 -1e-6,-0.2307 0.08184,-0.40607 0.24551,-0.5261 0.16523,-0.12158 0.40529,-0.18238 0.72017,-0.18238 0.27903,3e-6 0.50038,0.04911 0.66406,0.14731 0.16523,0.09821 0.26967,0.25565 0.31332,0.47232 l -0.37879,0.04676 c -0.01403,-0.06547 -0.03975,-0.12003 -0.07716,-0.16368 -0.03741,-0.0452 -0.08262,-0.08106 -0.13562,-0.10756 -0.053,-0.02806 -0.11302,-0.04754 -0.18004,-0.05846 -0.06547,-0.01247 -0.13406,-0.0187 -0.20576,-0.01871 -0.19018,3e-6 -0.33047,0.02884 -0.42088,0.08651 -0.09041,0.05768 -0.13562,0.14497 -0.13562,0.26188 -10e-7,0.06859 0.01637,0.12549 0.0491,0.17069 0.03429,0.04365 0.08106,0.08106 0.14029,0.11224 0.06079,0.02962 0.13328,0.05612 0.21746,0.0795 0.08418,0.02182 0.17692,0.04521 0.27825,0.07015 0.06703,0.01715 0.13562,0.03585 0.20576,0.05612 0.07015,0.01871 0.13795,0.04209 0.20343,0.07015 0.06703,0.0265 0.12938,0.05846 0.18706,0.09587 0.05923,0.03585 0.11067,0.0795 0.15432,0.13094 0.04364,0.05144 0.07794,0.11146 0.10288,0.18004 0.0265,0.06859 0.03975,0.14809 0.03975,0.2385" />
      <path
         inkscape:connector-curvature="0"
         id="path2088"
         d="m 43.005,37.953 -0.48869,0 -0.40451,-1.6321 c -0.01247,-0.04209 -0.02572,-0.09431 -0.03975,-0.15666 -0.01247,-0.06235 -0.02494,-0.12314 -0.03741,-0.18238 -0.01559,-0.06859 -0.0304,-0.13951 -0.04443,-0.21278 -0.01403,0.07015 -0.02884,0.13952 -0.04443,0.2081 -0.01247,0.05924 -0.0265,0.12081 -0.04209,0.18472 -0.01403,0.06391 -0.02728,0.12003 -0.03975,0.16835 l -0.4162,1.6227 -0.48635,0 -0.70848,-2.53 0.4162,0 0.4279,1.7186 c 0.01091,0.03585 0.02182,0.08028 0.03274,0.13328 0.01091,0.05144 0.02182,0.1021 0.03273,0.15198 0.01091,0.05768 0.0226,0.11691 0.03507,0.1777 0.01247,-0.05924 0.02572,-0.11691 0.03975,-0.17303 0.01247,-0.04832 0.02494,-0.09743 0.03741,-0.14731 0.01247,-0.04988 0.02338,-0.09119 0.03274,-0.12393 l 0.45829,-1.7373 0.45128,0 0.44192,1.7373 c 0.01091,0.04053 0.0226,0.08651 0.03507,0.13796 0.01247,0.05144 0.02416,0.09977 0.03507,0.14497 0.01247,0.053 0.02494,0.10678 0.03741,0.16134 0.01247,-0.05924 0.02494,-0.11691 0.03741,-0.17303 0.01091,-0.04832 0.02182,-0.09821 0.03274,-0.14965 0.01247,-0.053 0.02416,-0.09976 0.03507,-0.14029 l 0.4466,-1.7186 0.41153,0 -0.72485,2.53" />
      <path
         inkscape:connector-curvature="0"
         id="path2090"
         d="m 46.183,36.686 c -2e-6,0.44271 -0.09743,0.7724 -0.29228,0.98907 -0.19486,0.21668 -0.47778,0.32501 -0.84878,0.32501 -0.17615,0 -0.33359,-0.0265 -0.47232,-0.0795 -0.13874,-0.053 -0.25643,-0.13406 -0.35307,-0.24318 -0.09509,-0.10912 -0.16835,-0.24551 -0.21979,-0.40919 -0.04988,-0.16523 -0.07482,-0.35931 -0.07482,-0.58222 0,-0.87294 0.37801,-1.3094 1.134,-1.3094 0.19641,2e-6 0.36554,0.02728 0.5074,0.08184 0.14341,0.05456 0.26032,0.1364 0.35073,0.24551 0.09197,0.10912 0.15978,0.24552 0.20343,0.40919 0.04364,0.16368 0.06547,0.35463 0.06547,0.57286 m -0.44192,0 c -2e-6,-0.19641 -0.01559,-0.35853 -0.04677,-0.48635 -0.02962,-0.12782 -0.07404,-0.22992 -0.13328,-0.30631 -0.05768,-0.07638 -0.1286,-0.12938 -0.21278,-0.159 -0.08418,-0.03117 -0.17927,-0.04676 -0.28526,-0.04677 -0.10756,2e-6 -0.20499,0.01637 -0.29228,0.0491 -0.08574,0.03118 -0.159,0.08574 -0.21979,0.16368 -0.0608,0.07638 -0.10756,0.17849 -0.14029,0.30631 -0.03118,0.12782 -0.04677,0.2876 -0.04676,0.47934 -1e-6,0.19641 0.01715,0.35931 0.05144,0.48869 0.03429,0.12782 0.08106,0.22993 0.14029,0.30631 0.06079,0.07638 0.13172,0.13016 0.21278,0.16134 0.08262,0.03118 0.17225,0.04676 0.2689,0.04676 0.10756,0 0.20498,-0.01481 0.29228,-0.04443 0.08729,-0.03118 0.16134,-0.08495 0.22213,-0.16134 0.06079,-0.07638 0.10756,-0.17926 0.14029,-0.30865 0.03273,-0.12938 0.0491,-0.29228 0.0491,-0.48869" />
      <path
         inkscape:connector-curvature="0"
         id="path2092"
         d="m 46.718,37.953 0,-1.9407 c 0,-0.053 -7.79e-4,-0.10678 -0.0023,-0.16134 0,-0.05611 -7.8e-4,-0.10989 -0.0023,-0.16134 -0.0016,-0.05144 -0.0031,-0.09976 -0.0047,-0.14497 -0.0016,-0.0452 -0.0031,-0.08573 -0.0047,-0.12159 l 0.3975,0 c 0.0016,0.03586 0.0031,0.07716 0.0047,0.12393 0.0031,0.04521 0.0055,0.09197 0.007,0.14029 0.0031,0.04833 0.0047,0.09509 0.0047,0.14029 0.0016,0.04365 0.0023,0.08106 0.0023,0.11224 l 0.0094,0 c 0.02962,-0.09665 0.06079,-0.18004 0.09353,-0.25019 0.03429,-0.0717 0.07404,-0.13016 0.11925,-0.17537 0.0452,-0.04676 0.09898,-0.08106 0.16134,-0.10288 0.06235,-0.02338 0.13795,-0.03507 0.22681,-0.03507 0.03429,2e-6 0.06703,0.0031 0.09821,0.0094 0.03117,0.0047 0.05534,0.0094 0.07249,0.01403 l 0,0.38581 c -0.02806,-0.0078 -0.0608,-0.01325 -0.09821,-0.01637 -0.03741,-0.0047 -0.0795,-0.007 -0.12626,-0.007 -0.09665,3e-6 -0.17927,0.02183 -0.24785,0.06547 -0.06703,0.04365 -0.12237,0.10444 -0.16602,0.18238 -0.04209,0.07638 -0.07326,0.16836 -0.09353,0.27591 -0.02027,0.106 -0.0304,0.22213 -0.0304,0.3484 l 0,1.3188 -0.42088,0" />
      <path
         inkscape:connector-curvature="0"
         id="path2094"
         d="m 49.905,37.546 c -0.07794,0.16212 -0.1816,0.27825 -0.31098,0.3484 -0.12782,0.07015 -0.28682,0.10522 -0.477,0.10522 -0.31956,0 -0.55494,-0.10756 -0.70614,-0.32268 -0.14965,-0.21512 -0.22447,-0.54091 -0.22447,-0.97738 -1e-6,-0.88229 0.3102,-1.3234 0.93061,-1.3234 0.19173,2e-6 0.35151,0.03508 0.47934,0.10522 0.12782,0.07015 0.2307,0.1816 0.30865,0.33437 l 0.0047,0 c -2e-6,-0.01559 -7.82e-4,-0.03975 -0.0023,-0.07249 -2e-6,-0.03429 -7.81e-4,-0.06937 -0.0023,-0.10522 -2e-6,-0.03741 -2e-6,-0.07248 0,-0.10522 -2e-6,-0.03273 -2e-6,-0.05611 0,-0.07015 l 0,-0.97972 0.42088,0 0,2.9485 c -2e-6,0.06079 -2e-6,0.11925 0,0.17537 0.0016,0.05612 0.0031,0.10756 0.0047,0.15432 0.0016,0.04677 0.0031,0.08729 0.0047,0.12159 0.0016,0.03273 0.0031,0.05612 0.0047,0.07015 l -0.40218,0 c -0.0031,-0.01559 -0.0062,-0.03741 -0.0094,-0.06547 -0.0016,-0.02962 -0.0039,-0.06313 -0.007,-0.10054 -0.0016,-0.03741 -0.0031,-0.07638 -0.0047,-0.11691 -0.0016,-0.04209 -0.0023,-0.0834 -0.0023,-0.12393 l -0.0094,0 m -1.277,-0.86 c -10e-7,0.17459 0.01091,0.32424 0.03274,0.44894 0.02182,0.12471 0.0569,0.22759 0.10522,0.30865 0.04832,0.0795 0.1099,0.13796 0.18472,0.17537 0.07482,0.03741 0.16601,0.05612 0.27357,0.05612 0.11068,0 0.2081,-0.01793 0.29228,-0.05378 0.08573,-0.03585 0.15666,-0.09353 0.21278,-0.17303 0.05767,-0.08106 0.10132,-0.18628 0.13094,-0.31566 0.02961,-0.12938 0.04442,-0.2876 0.04443,-0.47466 -2e-6,-0.17926 -0.01481,-0.33047 -0.04443,-0.45362 -0.02962,-0.1247 -0.07327,-0.22525 -0.13094,-0.30163 -0.05768,-0.07638 -0.1286,-0.13094 -0.21278,-0.16368 -0.08262,-0.03429 -0.17849,-0.05144 -0.2876,-0.05144 -0.10288,2e-6 -0.19174,0.01793 -0.26656,0.05378 -0.07482,0.03586 -0.13718,0.09353 -0.18706,0.17303 -0.04988,0.0795 -0.0873,0.18316 -0.11224,0.31098 -0.02338,0.12627 -0.03507,0.27981 -0.03507,0.46063" />
      <path
         inkscape:connector-curvature="0"
         id="path2096"
         d="m 52.417,35.907 0,-0.48401 0.45595,0 0,0.48401 -0.45595,0 m 0,2.046 0,-0.48401 0.45595,0 0,0.48401 -0.45595,0" />
    </g>
    <path
       style="opacity:0.3;fill:#ffffff"
       inkscape:connector-curvature="0"
       id="path2098"
       d="m 129.17,981.36 c -1.95,0 -3.5312,1.8027 -3.5312,4.0312 l 0,23.938 c 0,2.2285 1.5813,4.0312 3.5312,4.0312 l 36.938,0 c 1.95,0 3.5312,-1.8027 3.5312,-4.0312 l 0,-23.938 c 0,-2.2286 -1.5813,-4.0312 -3.5312,-4.0312 l -36.938,0 z m 0,1 36.938,0 c 1.3274,0 2.5312,1.2805 2.5312,3.0312 l 0,23.938 c 0,1.7507 -1.2038,3.0312 -2.5312,3.0312 l -36.938,0 c -1.3274,0 -2.5312,-1.2805 -2.5312,-3.0312 l 0,-23.938 c 0,-1.7507 1.2038,-3.0312 2.5312,-3.0312 z" />
    <path
       inkscape:connector-curvature="0"
       style="opacity:0.325;fill:url(#linearGradient4580);fill-rule:evenodd"
       id="path2100"
       d="m 144.48,959.42 1.3438,3.875 31.812,0 1,0 c 2.754,0 5.0625,2.3085 5.0625,5.0625 l 0,1 0,60 0,1 c 0,2.754 -2.3085,5.0625 -5.0625,5.0625 l -1,0 -6.875,0 1.3438,3.875 11.531,0 c 2.2218,0 3.9375,-1.7156 3.9375,-3.9375 l 0,-72 c 0,-2.2218 -1.7156,-3.9375 -3.9375,-3.9375 l -39.156,0 z" />
  </g>
  <g
     id="g14291">
    <path
       d="m 5.2922679,73.685059 0,5.0663 c 0,6.668 5.3645011,12.032 12.0320011,12.032 l 61.049,0 c 6.668,0 12.032,-5.3645 12.032,-12.032 l 0,-5.0663 c 0,6.6681 -5.3645,12.032 -12.032,12.032 l -61.049,0 c -6.668,0 -12.0320011,-5.3643 -12.0320011,-12.032 z"
       id="path64"
       inkscape:connector-curvature="0"
       style="opacity:0.4;fill:url(#linearGradient14237);fill-opacity:1" />
    <path
       inkscape:connector-curvature="0"
       id="path14214"
       d="m 5.2929688,72.717592 0,1.15039 c 0,6.667718 5.3632502,12.031248 12.0312502,12.031248 l 61.048828,0 c 6.6675,0 12.03125,-5.36313 12.03125,-12.031248 l 0,-1.15039 c 0,6.668098 -5.36375,12.031248 -12.03125,12.031248 l -61.048828,0 c -6.668,0 -12.0312502,-5.36355 -12.0312502,-12.031248 z"
       style="opacity:0.5;fill:url(#linearGradient14245);fill-opacity:1" />
  </g>
</svg>
