<svg height="96" width="96" xmlns="http://www.w3.org/2000/svg" xmlns:xlink="http://www.w3.org/1999/xlink" xmlns:sodipodi="http://sodipodi.sourceforge.net/DTD/sodipodi-0.dtd" xmlns:inkscape="http://www.inkscape.org/namespaces/inkscape">
 <defs>
  <linearGradient x2="0" y1="120" y2="5.988" gradientUnits="userSpaceOnUse" id="linearGradient4325-2" gradientTransform="matrix(1.1429 0 0 -1.1429 -6.076 1060.1)">
   <stop stop-color="#fcd755" offset="0.182"/>
   <stop stop-color="#e28b00" offset="1"/>
  </linearGradient>
  <rect x="608.46" y="479.24" height="19.717" id="SVGCleanerId_0" width="20.2"/>
  <rect x="649.08" y="466.68" height="19.717" id="SVGCleanerId_1" width="20.2"/>
  <rect x="656.72" y="427.35" height="19.717" id="SVGCleanerId_2" width="20.2"/>
 </defs>
 <g transform="matrix(1 0 0 1 0 -956.36)">
  <rect x="3" rx="12.724" y="959.35" fill-opacity="0.02" height="89.98" width="89.98"/>
  <rect x="3.608" rx="12.552" y="959.96" fill-opacity="0.039" height="88.76" width="88.76"/>
  <rect x="4.216" rx="12.38" y="960.57" fill-opacity="0.078" height="87.55" width="87.55"/>
  <rect x="4.824" rx="12.208" y="961.18" fill-opacity="0.157" height="86.33" width="86.33"/>
  <path d="m17.469 961.77c-6.668 0-12.031 5.3945-12.031 12.062v61.031c0 6.668 5.3633 12.031 12.031 12.031h61.031c6.4543 0 11.671-5.0367 12-11.406v-62.281c-0.32117-6.3771-5.5404-11.438-12-11.438h-61.031z" fill="url(#linearGradient4325-2)"/>
  <path d="m5.4316 1029.8v5.0663c0 6.668 5.3645 12.032 12.032 12.032h61.049c6.668 0 12.032-5.3645 12.032-12.032v-5.0663c0 6.6681-5.3645 12.032-12.032 12.032h-61.049c-6.668 0-12.032-5.3643-12.032-12.032z" fill-opacity="0.235"/>
  <path d="m5.4316 1033.9v1.0133c0 6.668 5.3645 12.032 12.032 12.032h61.049c6.668 0 12.032-5.3645 12.032-12.032v-1.0133c0 6.6681-5.3645 12.032-12.032 12.032h-61.049c-6.668 0-12.032-5.3644-12.032-12.032z" fill-opacity="0.098"/>
  <g fill="#808080" transform="matrix(0.86014 0 0 0.86014 6.746 142.07)">
   <use xlink:href="#SVGCleanerId_0" transform="matrix(0.42174 0.90672 -0.47989 0.87733 0 0)"/>
   <use xlink:href="#SVGCleanerId_1" transform="matrix(0.42174 0.90672 -0.47989 0.87733 0 0)"/>
   <use xlink:href="#SVGCleanerId_2" transform="matrix(0.42174 0.90672 -0.47989 0.87733 0 0)"/>
  </g>
  <g fill="#d40000" transform="matrix(0.86014 0 0 0.86014 5.785 141.31)">
   <use xlink:href="#SVGCleanerId_0" transform="matrix(0.42174 0.90672 -0.47989 0.87733 0 0)"/>
   <use xlink:href="#SVGCleanerId_1" transform="matrix(0.42174 0.90672 -0.47989 0.87733 0 0)"/>
   <use xlink:href="#SVGCleanerId_2" transform="matrix(0.42174 0.90672 -0.47989 0.87733 0 0)"/>
  </g>
 </g>
</svg>
