<svg height="96" width="96" xmlns="http://www.w3.org/2000/svg" xmlns:xlink="http://www.w3.org/1999/xlink" xmlns:sodipodi="http://sodipodi.sourceforge.net/DTD/sodipodi-0.dtd" xmlns:inkscape="http://www.inkscape.org/namespaces/inkscape">
 <defs>
  <linearGradient id="linearGradient3670-7">
   <stop stop-color="#f0f0f0"/>
   <stop stop-color="#dcdcdc" offset="1"/>
  </linearGradient>
  <linearGradient x2="0" xlink:href="#linearGradient3670-7" y1="8" y2="88" gradientUnits="userSpaceOnUse" id="linearGradient5988"/>
  <linearGradient x2="0" xlink:href="#linearGradient3670-7" y1="8" y2="88" gradientUnits="userSpaceOnUse" id="linearGradient5992" gradientTransform="matrix(1 0 0 1 24.13 933.65)"/>
  <linearGradient x2="0" y1="60.33" y2="36.596" gradientUnits="userSpaceOnUse" id="linearGradient5994" gradientTransform="matrix(1 0 0 1 24.13 933.65)">
   <stop stop-color="#d40000"/>
   <stop stop-color="#d41400" offset="1"/>
  </linearGradient>
  <clipPath clipPathUnits="userSpaceOnUse" id="clipPath6001">
   <path d="m39.664 924.1c-7.3318-0.83594-13.905 4.4233-14.741 11.755l-7.651 67.107c-0.67919 5.9572 2.6336 11.418 7.8358 13.703l74.976 8.5482c5.3668-1.0108 9.7043-5.2801 10.641-10.9l7.8077-68.482c0.4463-7.0522-4.6581-13.271-11.761-14.08l-67.107-7.651z"/>
  </clipPath>
  <rect x="36" rx="6" y="6" fill="url(#linearGradient5988)" color="#000000" height="84" id="SVGCleanerId_0" width="54"/>
  <path d="m45.38 18.189v0.31055h-2.584v-0.31055l0.89062-0.1582 2.6777-7.4531h1.1133l2.7832 7.4531 0.99609 0.1582v0.31055h-3.3223v-0.31055l1.0547-0.1582-0.7793-2.2676h-3.0938l-0.79102 2.2676 1.0547 0.1582m1.2598-6.7676-1.3477 3.8145h2.7363l-1.3887-3.8145" id="SVGCleanerId_1"/>
 </defs>
 <g transform="matrix(1 0 0 1 0 -956.36)">
  <rect x="3.608" rx="12.552" y="959.96" fill-opacity="0.039" height="88.76" width="88.76"/>
  <rect x="4.216" rx="12.38" y="960.57" fill-opacity="0.078" height="87.55" width="87.55"/>
  <rect x="4.824" rx="12.208" y="961.18" fill-opacity="0.157" height="86.33" width="86.33"/>
  <path d="m17.469 5.4062c-6.668 0-12.032 5.3948-12.032 12.063l0.0005 61.031c0 5.418 3.5332 9.982 8.4375 11.5h68.187c4.715-1.457 8.172-5.734 8.438-10.875v-62.281c-0.321-6.377-5.54-11.438-12-11.438l-61.031 0.0002z" fill="#999" transform="matrix(1 0 0 1 0 956.36)"/>
  <g clip-path="url(#clipPath6001)" transform="matrix(0.89779 -0.10236 0.10236 0.89779 -112.73 136.18)">
   <use xlink:href="#SVGCleanerId_0" transform="matrix(1 0 0 1 -5.875 933.65)"/>
   <g transform="matrix(1 0 0 1 9.125 933.65)">
    <rect x="33" rx="6" y="6" color="#000000" height="84" opacity="0.1" width="20"/>
    <rect x="34" rx="6" y="6" color="#000000" height="84" opacity="0.15" width="20"/>
    <rect x="35" rx="6" y="6" color="#000000" height="84" opacity="0.3" width="20"/>
    <use xlink:href="#SVGCleanerId_0"/>
   </g>
   <rect x="57.13" rx="6" y="939.65" color="#000000" height="84" opacity="0.1" width="20"/>
   <rect x="58.13" rx="6" y="939.65" color="#000000" height="84" opacity="0.15" width="20"/>
   <rect x="59.13" rx="6" y="939.65" color="#000000" height="84" opacity="0.3" width="20"/>
   <rect x="60.13" rx="6" y="939.65" fill="url(#linearGradient5992)" color="#000000" height="84" width="54"/>
   <path d="m81.125 969.65c-3.3137 0-6 2.6863-6 6 0 0.20711 0.003 0.40767 0.02344 0.60938 0.51764 8.8877 11.977 17.391 11.977 17.391s11.445-8.8577 11.977-17.391c0.02048-0.20171 0.02344-0.40227 0.02344-0.60938 0-3.3137-2.6863-6-6-6s-6 2.6863-6 6c0-3.3137-2.6863-6-6-6z" fill="url(#linearGradient5994)" color="#000000"/>
   <use xlink:href="#SVGCleanerId_1" fill="#d40000" transform="matrix(1.0046 0 0 1.0099 20.632 932.97)"/>
   <path d="m66.125 953.65c-1.1046 0-2 0.89543-2 2 0 0.069 0.001 0.13589 0.0078 0.20313 0.17256 2.9626 3.9922 5.7969 3.9922 5.7969s3.8149-2.9526 3.9922-5.7969c0.0068-0.0672 0.0078-0.13409 0.0078-0.20313 0-1.1046-0.89543-2-2-2s-2 0.89543-2 2c0-1.1046-0.89543-2-2-2z" fill="#d40000" color="#000000"/>
   <path d="m75.156 975.28c-0.0075 0.12259-0.03125 0.25053-0.03125 0.375 0 0.20711 0.01081 0.4233 0.03125 0.625 0.51764 8.8878 11.969 17.375 11.969 17.375s11.437-8.842 11.969-17.375c0.02048-0.2017 0.03125-0.41789 0.03125-0.625 0-0.12447-0.02378-0.25241-0.03125-0.375-0.53172 8.533-11.969 17.375-11.969 17.375s-11.451-8.4872-11.969-17.375z" fill="#9d0000" color="#000000"/>
   <use xlink:href="#SVGCleanerId_1" fill="#c40000" transform="matrix(1.0046 0 0 -1.0099 58.63 1030.3)"/>
   <path d="m104.12 1009.7c-1.1046 0-2-0.8954-2-2 0-0.069 0.001-0.1359 0.008-0.2031 0.17256-2.9626 3.9922-5.7969 3.9922-5.7969s3.815 2.9526 3.9922 5.7969c0.007 0.067 0.008 0.1341 0.008 0.2031 0 1.1046-0.89543 2-2 2s-2-0.8954-2-2c0 1.1046-0.89543 2-2 2z" fill="#c40000" color="#000000"/>
   <path d="m11.605 12.138h-0.59549v-1.4143c0.37927-0.20203 0.76031-0.35622 1.1431-0.46257 0.38636-0.10633 0.76385-0.1595 1.1325-0.1595 0.82588 0.000008 1.4781 0.20028 1.9566 0.6008 0.47851 0.40054 0.71777 0.94463 0.71778 1.6323-0.000006 0.77627-0.54232 1.7049-1.627 2.786-0.08507 0.08153-0.14888 0.14356-0.19141 0.18609l-2.0045 2.0045h3.3124v-0.9783h0.62207v1.8503h-5.1201v-0.57954l2.4085-2.4032c0.53168-0.53168 0.91095-1.0191 1.1378-1.4621 0.22685-0.44661 0.34027-0.91449 0.34028-1.4036-0.000005-0.53522-0.14002-0.95348-0.42003-1.2548-0.27648-0.30128-0.65929-0.45192-1.1484-0.45193-0.50688 0.000007-0.89855 0.12584-1.175 0.3775-0.27648 0.25167-0.43953 0.62917-0.48915 1.1325" fill="#d50404" transform="matrix(1.0102 0 0 0.9899 24.13 933.65)"/>
   <path d="m42.125 957.65c0 0.33959-1.6951 1.8246-1.9352 2.0648-0.24012 0.24013-1.7252 1.9352-2.0648 1.9352-0.33959 0-1.8246-1.6951-2.0648-1.9352-0.24012-0.24012-1.9352-1.7252-1.9352-2.0648 0-0.33959 1.6951-1.8246 1.9352-2.0648 0.24013-0.24013 1.7252-1.9352 2.0648-1.9352 0.33959 0 1.8246 1.6951 2.0648 1.9352 0.24013 0.24012 1.9352 1.7252 1.9352 2.0648z" fill="#d50404" color="#000000"/>
   <path d="m24.671 18.184v-0.56359h1.0102v-6.8056h-1.0102v-0.5689h3.0997v0.5689h-1.0102v3.004l3.4187-3.004h-0.86133v-0.5689h2.6372v0.5689h-0.89323l-3.4081 2.9934 3.8122 3.8122h0.90386v0.56359h-1.8449l-3.7643-3.7696v3.2061h1.0102v0.56359h-3.0997" transform="matrix(1.0102 0 0 0.9899 24.13 933.65)"/>
   <path d="m51.375 959.65c-0.9665 0-1.75-0.67157-1.75-1.5 0-0.0518 0.000875-0.10192 0.0068-0.15234 0.15101-2.2219 3.4932-4.3477 3.4932-4.3477s3.3381 2.2144 3.4932 4.3477c0.006 0.0504 0.0068 0.10056 0.0068 0.15234 0 0.82843-0.7835 1.5-1.75 1.5s-1.75-0.67157-1.75-1.5c0 0.82843-0.7835 1.5-1.75 1.5z" color="#000000"/>
   <path d="m53.125 957.65c0 3-2 4-2 4h4s-2-1-2-4z"/>
  </g>
  <path d="m5.4316 1029.8v5.0663c0 6.668 5.3645 12.032 12.032 12.032h61.049c6.668 0 12.032-5.3645 12.032-12.032v-5.0663c0 6.6681-5.3645 12.032-12.032 12.032h-61.049c-6.668 0-12.032-5.3643-12.032-12.032z" fill-opacity="0.235"/>
  <path d="m5.4316 1033.9v1.0133c0 6.668 5.3645 12.032 12.032 12.032h61.049c6.668 0 12.032-5.3645 12.032-12.032v-1.0133c0 6.6681-5.3645 12.032-12.032 12.032h-61.049c-6.668 0-12.032-5.3644-12.032-12.032z" fill-opacity="0.098"/>
 </g>
</svg>
