<?xml version="1.0" encoding="UTF-8" standalone="no"?>
<svg
   xmlns:dc="http://purl.org/dc/elements/1.1/"
   xmlns:cc="http://creativecommons.org/ns#"
   xmlns:rdf="http://www.w3.org/1999/02/22-rdf-syntax-ns#"
   xmlns:svg="http://www.w3.org/2000/svg"
   xmlns="http://www.w3.org/2000/svg"
   xmlns:xlink="http://www.w3.org/1999/xlink"
   xmlns:sodipodi="http://sodipodi.sourceforge.net/DTD/sodipodi-0.dtd"
   xmlns:inkscape="http://www.inkscape.org/namespaces/inkscape"
   height="96"
   width="96"
   id="svg572"
   version="1.1"
   inkscape:version="0.91 r13725"
   sodipodi:docname="glines.svg">
  <metadata
     id="metadata711">
    <rdf:RDF>
      <cc:Work
         rdf:about="">
        <dc:format>image/svg+xml</dc:format>
        <dc:type
           rdf:resource="http://purl.org/dc/dcmitype/StillImage" />
      </cc:Work>
    </rdf:RDF>
  </metadata>
  <sodipodi:namedview
     pagecolor="#ffffff"
     bordercolor="#666666"
     borderopacity="1"
     objecttolerance="10"
     gridtolerance="10"
     guidetolerance="10"
     inkscape:pageopacity="0"
     inkscape:pageshadow="2"
     inkscape:window-width="640"
     inkscape:window-height="480"
     id="namedview709"
     showgrid="false"
     inkscape:zoom="2.4583333"
     inkscape:cx="48"
     inkscape:cy="48"
     inkscape:current-layer="svg572" />
  <defs
     id="defs574">
    <linearGradient
       id="linearGradient4250">
      <stop
         stop-color="#66c7f1"
         id="stop577" />
      <stop
         stop-color="#1677bb"
         offset="1"
         id="stop579" />
    </linearGradient>
    <linearGradient
       id="linearGradient3895">
      <stop
         stop-color="#fff"
         id="stop582" />
      <stop
         stop-color="#fff"
         stop-opacity="0"
         offset="1"
         id="stop584" />
    </linearGradient>
    <linearGradient
       id="linearGradient4350-9">
      <stop
         stop-color="#9ee82d"
         id="stop587" />
      <stop
         stop-color="#328c22"
         offset="1"
         id="stop589" />
    </linearGradient>
    <linearGradient
       id="linearGradient4426">
      <stop
         stop-color="#ff5b2a"
         id="stop592" />
      <stop
         stop-color="#c21313"
         offset="1"
         id="stop594" />
    </linearGradient>
    <clipPath
       id="clipPath3613-967">
      <rect
         x="6"
         rx="6"
         y="6"
         height="84"
         width="84"
         id="rect597" />
    </clipPath>
    <filter
       x="-0.192"
       y="-0.192"
       height="1.384"
       color-interpolation-filters="sRGB"
       id="filter3794-4"
       width="1.384">
      <feGaussianBlur
         stdDeviation="5.28"
         id="feGaussianBlur600" />
    </filter>
    <linearGradient
       x2="0"
       xlink:href="#linearGradient3895"
       y1="20.221"
       y2="138.66"
       gradientUnits="userSpaceOnUse"
       id="linearGradient6674" />
    <radialGradient
       cy="41.677"
       r="16"
       xlink:href="#linearGradient4250"
       gradientUnits="userSpaceOnUse"
       id="radialGradient7880"
       cx="32"
       gradientTransform="matrix(0.45313,0,0,0.39244,6.5,1018.9)" />
    <linearGradient
       x1="70"
       x2="77"
       xlink:href="#linearGradient3895"
       y1="71"
       y2="78"
       gradientUnits="userSpaceOnUse"
       id="linearGradient7882"
       gradientTransform="matrix(-0.70711,-0.70711,0.70711,-0.70711,20.294,1137.1)" />
    <radialGradient
       cy="41.677"
       r="16"
       xlink:href="#linearGradient4250"
       gradientUnits="userSpaceOnUse"
       id="radialGradient7884"
       cx="32"
       gradientTransform="matrix(0.45313,0,0,0.39244,42.5,1018.9)" />
    <linearGradient
       x1="70"
       x2="77"
       xlink:href="#linearGradient3895"
       y1="71"
       y2="78"
       gradientUnits="userSpaceOnUse"
       id="linearGradient7886"
       gradientTransform="matrix(-0.70711,-0.70711,0.70711,-0.70711,56.29,1137.1)" />
    <radialGradient
       cy="41.677"
       r="16"
       xlink:href="#linearGradient4250"
       gradientUnits="userSpaceOnUse"
       id="radialGradient7888"
       cx="32"
       gradientTransform="matrix(0.45313,0,0,0.39244,24.5,1000.9)" />
    <linearGradient
       x1="70"
       x2="77"
       xlink:href="#linearGradient3895"
       y1="71"
       y2="78"
       gradientUnits="userSpaceOnUse"
       id="linearGradient7890"
       gradientTransform="matrix(-0.70711,-0.70711,0.70711,-0.70711,38.29,1119.1)" />
    <radialGradient
       cy="41.677"
       r="16"
       xlink:href="#linearGradient4250"
       gradientUnits="userSpaceOnUse"
       id="radialGradient7892"
       cx="32"
       gradientTransform="matrix(0.45313,0,0,0.39244,42.5,982.95)" />
    <linearGradient
       x1="70"
       x2="77"
       xlink:href="#linearGradient3895"
       y1="71"
       y2="78"
       gradientUnits="userSpaceOnUse"
       id="linearGradient7894"
       gradientTransform="matrix(-0.70711,-0.70711,0.70711,-0.70711,56.29,1101.1)" />
    <radialGradient
       cy="41.677"
       r="16"
       xlink:href="#linearGradient4250"
       gradientUnits="userSpaceOnUse"
       id="radialGradient7896"
       cx="32"
       gradientTransform="matrix(0.45313,0,0,0.39244,60.5,964.95)" />
    <linearGradient
       x1="70"
       x2="77"
       xlink:href="#linearGradient3895"
       y1="71"
       y2="78"
       gradientUnits="userSpaceOnUse"
       id="linearGradient7898"
       gradientTransform="matrix(-0.70711,-0.70711,0.70711,-0.70711,74.29,1083.1)" />
    <radialGradient
       cy="41.677"
       r="16"
       xlink:href="#linearGradient4350-9"
       gradientUnits="userSpaceOnUse"
       id="radialGradient7900"
       cx="32"
       gradientTransform="matrix(0.45313,0,0,0.39244,60.5,1018.9)" />
    <linearGradient
       x1="70"
       x2="77"
       xlink:href="#linearGradient3895"
       y1="71"
       y2="78"
       gradientUnits="userSpaceOnUse"
       id="linearGradient7902"
       gradientTransform="matrix(-0.70711,-0.70711,0.70711,-0.70711,74.29,1137.1)" />
    <radialGradient
       cy="41.677"
       r="16"
       xlink:href="#linearGradient4350-9"
       gradientUnits="userSpaceOnUse"
       id="radialGradient7904"
       cx="32"
       gradientTransform="matrix(0.45313,0,0,0.39244,24.5,982.95)" />
    <linearGradient
       x1="70"
       x2="77"
       xlink:href="#linearGradient3895"
       y1="71"
       y2="78"
       gradientUnits="userSpaceOnUse"
       id="linearGradient7906"
       gradientTransform="matrix(-0.70711,-0.70711,0.70711,-0.70711,38.29,1101.1)" />
    <radialGradient
       cy="41.677"
       r="16"
       xlink:href="#linearGradient4350-9"
       gradientUnits="userSpaceOnUse"
       id="radialGradient7908"
       cx="32"
       gradientTransform="matrix(0.45313,0,0,0.39244,6.5,964.95)" />
    <linearGradient
       x1="70"
       x2="77"
       xlink:href="#linearGradient3895"
       y1="71"
       y2="78"
       gradientUnits="userSpaceOnUse"
       id="linearGradient7910"
       gradientTransform="matrix(-0.70711,-0.70711,0.70711,-0.70711,20.294,1083.1)" />
    <radialGradient
       cy="41.677"
       r="16"
       xlink:href="#linearGradient4426"
       gradientUnits="userSpaceOnUse"
       id="radialGradient7912"
       cx="32"
       gradientTransform="matrix(0.45313,0,0,0.39244,60.5,1000.9)" />
    <linearGradient
       x1="70"
       x2="77"
       xlink:href="#linearGradient3895"
       y1="71"
       y2="78"
       gradientUnits="userSpaceOnUse"
       id="linearGradient7914"
       gradientTransform="matrix(-0.70711,-0.70711,0.70711,-0.70711,74.29,1119.1)" />
    <radialGradient
       cy="41.677"
       r="16"
       xlink:href="#linearGradient4426"
       gradientUnits="userSpaceOnUse"
       id="radialGradient7916"
       cx="32"
       gradientTransform="matrix(0.45313,0,0,0.39244,24.5,964.95)" />
    <linearGradient
       x1="70"
       x2="77"
       xlink:href="#linearGradient3895"
       y1="71"
       y2="78"
       gradientUnits="userSpaceOnUse"
       id="linearGradient7918"
       gradientTransform="matrix(-0.70711,-0.70711,0.70711,-0.70711,38.29,1083.1)" />
    <linearGradient
       inkscape:collect="always"
       xlink:href="#linearGradient14231"
       id="linearGradient14237"
       x1="50.707542"
       y1="81.682442"
       x2="50.707542"
       y2="96.539803"
       gradientUnits="userSpaceOnUse" />
    <linearGradient
       inkscape:collect="always"
       id="linearGradient14231">
      <stop
         style="stop-color:#000000;stop-opacity:1;"
         offset="0"
         id="stop14233" />
      <stop
         style="stop-color:#000000;stop-opacity:0;"
         offset="1"
         id="stop14235" />
    </linearGradient>
    <linearGradient
       inkscape:collect="always"
       xlink:href="#linearGradient3895"
       id="linearGradient14245"
       x1="49.876652"
       y1="87.937508"
       x2="49.876652"
       y2="76.719681"
       gradientUnits="userSpaceOnUse" />
  </defs>
  <rect
     style="fill-opacity:0.03900003"
     id="rect625"
     width="88.760002"
     height="88.760002"
     y="3.6000221"
     rx="12.552"
     x="3.608" />
  <rect
     style="fill-opacity:0.078"
     id="rect627"
     width="87.550003"
     height="87.550003"
     y="4.2100072"
     rx="12.38"
     x="4.2160001" />
  <rect
     style="fill-opacity:0.15700001"
     id="rect629"
     width="86.330002"
     height="86.330002"
     y="4.8199925"
     rx="12.208"
     x="4.8239999" />
  <path
     style="fill:#e3e2db"
     inkscape:connector-curvature="0"
     id="path631"
     d="m 17.469,5.4062 c -6.668,0 -12.032,5.3948 -12.032,12.063 l 5e-4,61.031 c 0,5.418 3.5332,9.982 8.4375,11.5 l 68.187,0 c 4.715,-1.457 8.172,-5.734 8.438,-10.875 l 0,-62.281 c -0.321,-6.377 -5.54,-11.438 -12,-11.438 l -61.031,2e-4 z" />
  <rect
     style="opacity:0.1;fill:url(#linearGradient6674);stroke:#ffffff;stroke-width:0.5;stroke-linecap:round;filter:url(#filter3794-4)"
     id="rect637"
     transform="translate(0,-2)"
     width="66"
     height="66"
     clip-path="url(#clipPath3613-967)"
     y="15"
     rx="12"
     x="15" />
  <g
     id="g639"
     transform="matrix(1,0,0,0.94737,0,-905.499)">
    <path
       style="color:#000000;opacity:0.05"
       inkscape:connector-curvature="0"
       id="path641"
       d="m 21,966.36 c -6.0469,0 -11,4.953 -11,11 0,6.047 4.9531,11 11,11 3.8181,0 7.0753,-2.0528 9.0312,-5.0312 0.8017,1.2018 1.7982,2.1983 3,3 -2.978,1.96 -5.031,5.21 -5.031,9.03 0,3.7932 2.0225,7.0387 4.9688,9 -2.9462,1.9613 -4.9688,5.2068 -4.9688,9 0,6.0469 4.9531,11 11,11 6.0469,0 11,-4.9531 11,-11 0,-3.8181 -2.0528,-7.0753 -5.0312,-9.0312 1.2018,-0.8017 2.1983,-1.7982 3,-3 1.956,2.9784 5.2131,5.0312 9.0312,5.0312 6.0469,0 11,-4.9531 11,-11 0,-6.047 -4.9531,-11 -11,-11 -3.8181,0 -7.0753,2.0528 -9.0312,5.0312 -0.8017,-1.2018 -1.7982,-2.1983 -3,-3 2.978,-1.95 5.031,-5.21 5.031,-9.03 0,-6.047 -4.9531,-11 -11,-11 -3.7932,0 -7.0387,2.0225 -9,4.9688 -1.9613,-2.9462 -5.2068,-4.9688 -9,-4.9688 z m 54,0 c -6.0469,0 -11,4.953 -11,11 0,6.047 4.9531,11 11,11 6.0469,0 11,-4.953 11,-11 0,-6.047 -4.9531,-11 -11,-11 z m 0,36 c -6.0469,0 -11,4.9531 -11,11 0,3.8181 2.0528,7.0753 5.0312,9.0313 -1.2018,0.8016 -2.1983,1.7981 -3,3 -1.956,-2.9785 -5.2131,-5.0313 -9.0312,-5.0313 -6.0469,0 -11,4.9531 -11,11 0,6.0469 4.9531,11 11,11 3.7932,0 7.0387,-2.0225 9,-4.9687 1.9613,2.9462 5.2068,4.9687 9,4.9687 6.0469,0 11,-4.9531 11,-11 0,-3.7932 -2.0225,-7.0387 -4.9688,-9 2.9462,-1.9613 4.9688,-5.2068 4.9688,-9 0,-6.0469 -4.9531,-11 -11,-11 z m -54,18 c -6.0469,0 -11,4.9531 -11,11 0,6.0469 4.9531,11 11,11 6.0469,0 11,-4.9531 11,-11 0,-6.0469 -4.9531,-11 -11,-11 z" />
    <path
       style="color:#000000;opacity:0.1"
       inkscape:connector-curvature="0"
       id="path643"
       d="m 21,967.42 c -5.4647,0 -9.9375,4.4728 -9.9375,9.9375 0,5.4647 4.4728,9.9375 9.9375,9.9375 4.0094,0 7.4517,-2.4349 9,-5.875 0.98988,2.1902 2.7473,3.9476 4.9375,4.9375 -3.4401,1.5483 -5.875,4.9906 -5.875,9 0,4.0094 2.4349,7.4517 5.875,9 -3.4401,1.5483 -5.875,4.9906 -5.875,9 0,5.4647 4.4728,9.9375 9.9375,9.9375 5.4647,0 9.9375,-4.4728 9.9375,-9.9375 0,-4.0094 -2.4349,-7.4517 -5.875,-9 2.1902,-0.9899 3.9476,-2.7473 4.9375,-4.9375 1.5483,3.4401 4.9906,5.875 9,5.875 5.4647,0 9.9375,-4.4728 9.9375,-9.9375 0,-5.4647 -4.4728,-9.9375 -9.9375,-9.9375 -4.0094,0 -7.4517,2.4349 -9,5.875 -0.98988,-2.1902 -2.7473,-3.9476 -4.9375,-4.9375 3.4401,-1.5483 5.875,-4.9906 5.875,-9 0,-5.4647 -4.4728,-9.9375 -9.9375,-9.9375 -4.0094,0 -7.4517,2.4349 -9,5.875 -1.5483,-3.4401 -4.9906,-5.875 -9,-5.875 z m 54,0 c -5.4647,0 -9.9375,4.4728 -9.9375,9.9375 0,5.4647 4.4728,9.9375 9.9375,9.9375 5.4647,0 9.9375,-4.4728 9.9375,-9.9375 0,-5.4647 -4.4728,-9.9375 -9.9375,-9.9375 z m 0,36 c -5.4647,0 -9.9375,4.4728 -9.9375,9.9375 0,4.0094 2.4349,7.4517 5.875,9 -2.1902,0.9899 -3.9476,2.7473 -4.9375,4.9375 -1.5483,-3.4401 -4.9906,-5.875 -9,-5.875 -5.4647,0 -9.9375,4.4728 -9.9375,9.9375 0,5.4647 4.4728,9.9375 9.9375,9.9375 4.0094,0 7.4517,-2.4349 9,-5.875 1.5483,3.4401 4.9906,5.875 9,5.875 5.4647,0 9.9375,-4.4728 9.9375,-9.9375 0,-4.0094 -2.4349,-7.4517 -5.875,-9 3.4401,-1.5483 5.875,-4.9906 5.875,-9 0,-5.4647 -4.4728,-9.9375 -9.9375,-9.9375 z m -54,18 c -5.4647,0 -9.9375,4.4728 -9.9375,9.9375 0,5.4647 4.4728,9.9375 9.9375,9.9375 5.4647,0 9.9375,-4.4728 9.9375,-9.9375 0,-5.4647 -4.4728,-9.9375 -9.9375,-9.9375 z" />
    <path
       style="color:#000000;opacity:0.15"
       inkscape:connector-curvature="0"
       id="path645"
       d="m 21,968.3 c -4.995,0 -9.0625,4.0676 -9.0625,9.0625 0,4.995 4.0675,9.0625 9.0625,9.0625 4.8845,0 8.8254,-3.9069 9,-8.75 0.17062,4.7336 3.9539,8.5169 8.6875,8.6875 -4.8431,0.17457 -8.75,4.1155 -8.75,9 0,4.8845 3.9069,8.8254 8.75,9 -4.8431,0.1746 -8.75,4.1155 -8.75,9 0,4.995 4.0675,9.0625 9.0625,9.0625 4.995,0 9.0625,-4.0675 9.0625,-9.0625 0,-4.8845 -3.9069,-8.8254 -8.75,-9 4.7336,-0.1706 8.5169,-3.9539 8.6875,-8.6875 0.17457,4.8431 4.1155,8.75 9,8.75 4.995,0 9.0625,-4.0675 9.0625,-9.0625 0,-4.995 -4.0675,-9.0625 -9.0625,-9.0625 -4.8845,0 -8.8254,3.9069 -9,8.75 -0.17062,-4.7336 -3.9539,-8.5169 -8.6875,-8.6875 4.8431,-0.17457 8.75,-4.1155 8.75,-9 0,-4.995 -4.0675,-9.0625 -9.0625,-9.0625 -4.8845,0 -8.8254,3.9069 -9,8.75 -0.17457,-4.8431 -4.1155,-8.75 -9,-8.75 z m 54,0 c -4.995,0 -9.0625,4.0676 -9.0625,9.0625 0,4.995 4.0675,9.0625 9.0625,9.0625 4.995,0 9.0625,-4.0676 9.0625,-9.0625 0,-4.995 -4.0675,-9.0625 -9.0625,-9.0625 z m 0,36 c -4.995,0 -9.0625,4.0675 -9.0625,9.0625 0,4.8845 3.9069,8.8254 8.75,9 -4.7336,0.1706 -8.5169,3.9539 -8.6875,8.6875 -0.17457,-4.8431 -4.1155,-8.75 -9,-8.75 -4.995,0 -9.0625,4.0675 -9.0625,9.0625 0,4.995 4.0675,9.0625 9.0625,9.0625 4.8845,0 8.8254,-3.9069 9,-8.75 0.17457,4.8431 4.1155,8.75 9,8.75 4.995,0 9.0625,-4.0675 9.0625,-9.0625 0,-4.8845 -3.9069,-8.8254 -8.75,-9 4.8431,-0.1746 8.75,-4.1155 8.75,-9 0,-4.995 -4.0675,-9.0625 -9.0625,-9.0625 z m -54,18 c -4.995,0 -9.0625,4.0675 -9.0625,9.0625 0,4.995 4.0675,9.0625 9.0625,9.0625 4.995,0 9.0625,-4.0675 9.0625,-9.0625 0,-4.995 -4.0675,-9.0625 -9.0625,-9.0625 z" />
    <path
       style="color:#000000;opacity:0.3"
       inkscape:connector-curvature="0"
       id="path647"
       d="m 21,969.36 c -4.4183,0 -8,3.5817 -8,8 0,4.4183 3.5817,8 8,8 4.4183,0 8,-3.5817 8,-8 0,-4.4183 -3.5817,-8 -8,-8 z m 18,0 c -4.4183,0 -8,3.5817 -8,8 0,4.4183 3.5817,8 8,8 4.4183,0 8,-3.5817 8,-8 0,-4.4183 -3.5817,-8 -8,-8 z m 36,0 c -4.4183,0 -8,3.5817 -8,8 0,4.4183 3.5817,8 8,8 4.4183,0 8,-3.5817 8,-8 0,-4.4183 -3.5817,-8 -8,-8 z m -36,18 c -4.4183,0 -8,3.5817 -8,8 0,4.4183 3.5817,8 8,8 4.4183,0 8,-3.5817 8,-8 0,-4.4183 -3.5817,-8 -8,-8 z m 18,0 c -4.4183,0 -8,3.5817 -8,8 0,4.4183 3.5817,8 8,8 4.4183,0 8,-3.5817 8,-8 0,-4.4183 -3.5817,-8 -8,-8 z m -18,18 c -4.4183,0 -8,3.5817 -8,8 0,4.4183 3.5817,8 8,8 4.4183,0 8,-3.5817 8,-8 0,-4.4183 -3.5817,-8 -8,-8 z m 36,0 c -4.4183,0 -8,3.5817 -8,8 0,4.4183 3.5817,8 8,8 4.4183,0 8,-3.5817 8,-8 0,-4.4183 -3.5817,-8 -8,-8 z m -54,18 c -4.4183,0 -8,3.5817 -8,8 0,4.4183 3.5817,8 8,8 4.4183,0 8,-3.5817 8,-8 0,-4.4183 -3.5817,-8 -8,-8 z m 36,0 c -4.4183,0 -8,3.5817 -8,8 0,4.4183 3.5817,8 8,8 4.4183,0 8,-3.5817 8,-8 0,-4.4183 -3.5817,-8 -8,-8 z m 18,0 c -4.4183,0 -8,3.5817 -8,8 0,4.4183 3.5817,8 8,8 4.4183,0 8,-3.5817 8,-8 0,-4.4183 -3.5817,-8 -8,-8 z" />
    <path
       inkscape:connector-curvature="0"
       style="color:#000000;fill:url(#radialGradient7880)"
       id="path649"
       d="m 29,1030.4 a 8,8 0 0 1 -16,0 8,8 0 1 1 16,0 z" />
    <path
       style="color:#000000;opacity:0.2"
       inkscape:connector-curvature="0"
       id="path651"
       d="m 21,1022.4 c -4.4183,0 -8,3.5817 -8,8 0,4.4183 3.5817,8 8,8 4.4183,0 8,-3.5817 8,-8 0,-4.4183 -3.5817,-8 -8,-8 z m 0,1 c 3.866,0 7,3.134 7,7 0,3.866 -3.134,7 -7,7 -3.866,0 -7,-3.134 -7,-7 0,-3.866 3.134,-7 7,-7 z" />
    <path
       inkscape:connector-curvature="0"
       style="color:#000000;opacity:0.3;fill:url(#linearGradient7882)"
       id="path653"
       d="m 16.051,1035.3 c 2.7337,2.7337 7.1658,2.7337 9.8995,0 2.7337,-2.7337 2.7337,-7.1658 0,-9.8995 -0.05931,-0.059 -0.11592,-0.12 -0.17678,-0.1768 2.3604,2.5496 2.3013,6.5375 -0.17678,9.0157 -2.5384,2.5384 -6.654,2.5384 -9.1924,0 -2.4781,-2.4782 -2.5371,-6.4661 -0.17678,-9.0157 -0.06086,0.057 -0.11746,0.1175 -0.17678,0.1768 -2.7337,2.7337 -2.7337,7.1658 0,9.8995 z" />
    <path
       inkscape:connector-curvature="0"
       style="color:#000000;fill:url(#radialGradient7884)"
       id="path655"
       d="m 65,1030.4 a 8,8 0 0 1 -16,0 8,8 0 1 1 16,0 z" />
    <path
       style="color:#000000;opacity:0.2"
       inkscape:connector-curvature="0"
       id="path657"
       d="m 57,1022.4 c -4.4183,0 -8,3.5817 -8,8 0,4.4183 3.5817,8 8,8 4.4183,0 8,-3.5817 8,-8 0,-4.4183 -3.5817,-8 -8,-8 z m 0,1 c 3.866,0 7,3.134 7,7 0,3.866 -3.134,7 -7,7 -3.866,0 -7,-3.134 -7,-7 0,-3.866 3.134,-7 7,-7 z" />
    <path
       inkscape:connector-curvature="0"
       style="color:#000000;opacity:0.3;fill:url(#linearGradient7886)"
       id="path659"
       d="m 52.051,1035.3 c 2.7337,2.7337 7.1658,2.7337 9.8995,0 2.7337,-2.7337 2.7337,-7.1658 0,-9.8995 -0.05931,-0.059 -0.11592,-0.12 -0.17678,-0.1768 2.3604,2.5496 2.3013,6.5375 -0.17678,9.0157 -2.5384,2.5384 -6.654,2.5384 -9.1924,0 -2.4781,-2.4782 -2.5371,-6.4661 -0.17678,-9.0157 -0.06086,0.057 -0.11746,0.1175 -0.17678,0.1768 -2.7337,2.7337 -2.7337,7.1658 0,9.8995 z" />
    <path
       inkscape:connector-curvature="0"
       style="color:#000000;fill:url(#radialGradient7888)"
       id="path661"
       d="m 47,1012.4 a 8,8 0 0 1 -16,0 8,8 0 1 1 16,0 z" />
    <path
       style="color:#000000;opacity:0.2"
       inkscape:connector-curvature="0"
       id="path663"
       d="m 39,1004.4 c -4.4183,0 -8,3.5817 -8,8 0,4.4183 3.5817,8 8,8 4.4183,0 8,-3.5817 8,-8 0,-4.4183 -3.5817,-8 -8,-8 z m 0,1 c 3.866,0 7,3.134 7,7 0,3.866 -3.134,7 -7,7 -3.866,0 -7,-3.134 -7,-7 0,-3.866 3.134,-7 7,-7 z" />
    <path
       inkscape:connector-curvature="0"
       style="color:#000000;opacity:0.3;fill:url(#linearGradient7890)"
       id="path665"
       d="m 34.051,1017.3 c 2.7337,2.7337 7.1658,2.7337 9.8995,0 2.7337,-2.7337 2.7337,-7.1658 0,-9.8995 -0.05931,-0.059 -0.11592,-0.12 -0.17678,-0.1768 2.3604,2.5496 2.3013,6.5375 -0.17678,9.0157 -2.5384,2.5384 -6.654,2.5384 -9.1924,0 -2.4781,-2.4782 -2.5371,-6.4661 -0.17678,-9.0157 -0.06086,0.057 -0.11746,0.1175 -0.17678,0.1768 -2.7337,2.7337 -2.7337,7.1658 0,9.8995 z" />
    <path
       inkscape:connector-curvature="0"
       style="color:#000000;fill:url(#radialGradient7892)"
       id="path667"
       d="m 65,994.36 a 8,8 0 0 1 -16,0 8,8 0 1 1 16,0 z" />
    <path
       style="color:#000000;opacity:0.2"
       inkscape:connector-curvature="0"
       id="path669"
       d="m 57,986.36 c -4.4183,0 -8,3.5817 -8,8 0,4.4183 3.5817,8 8,8 4.4183,0 8,-3.5817 8,-8 0,-4.4183 -3.5817,-8 -8,-8 z m 0,1 c 3.866,0 7,3.134 7,7 0,3.866 -3.134,7 -7,7 -3.866,0 -7,-3.134 -7,-7 0,-3.866 3.134,-7 7,-7 z" />
    <path
       inkscape:connector-curvature="0"
       style="color:#000000;opacity:0.3;fill:url(#linearGradient7894)"
       id="path671"
       d="m 52.051,999.31 c 2.7337,2.7337 7.1658,2.7337 9.8995,0 2.7337,-2.7337 2.7337,-7.1658 0,-9.8995 -0.05931,-0.0593 -0.11592,-0.12002 -0.17678,-0.17678 2.3604,2.5495 2.3013,6.5375 -0.17678,9.0156 -2.5384,2.53838 -6.654,2.53838 -9.1924,0 -2.4781,-2.4781 -2.5371,-6.4661 -0.17678,-9.0156 -0.06086,0.0568 -0.11746,0.11746 -0.17678,0.17678 -2.7337,2.7337 -2.7337,7.1658 0,9.8995 z" />
    <path
       inkscape:connector-curvature="0"
       style="color:#000000;fill:url(#radialGradient7896)"
       id="path673"
       d="m 83,976.36 a 8,8 0 0 1 -16,0 8,8 0 1 1 16,0 z" />
    <path
       style="color:#000000;opacity:0.2"
       inkscape:connector-curvature="0"
       id="path675"
       d="m 75,968.36 c -4.4183,0 -8,3.5817 -8,8 0,4.4183 3.5817,8 8,8 4.4183,0 8,-3.5817 8,-8 0,-4.4183 -3.5817,-8 -8,-8 z m 0,1 c 3.866,0 7,3.134 7,7 0,3.866 -3.134,7 -7,7 -3.866,0 -7,-3.134 -7,-7 0,-3.866 3.134,-7 7,-7 z" />
    <path
       inkscape:connector-curvature="0"
       style="color:#000000;opacity:0.3;fill:url(#linearGradient7898)"
       id="path677"
       d="m 70.051,981.31 c 2.7337,2.7337 7.1658,2.7337 9.8995,0 2.7337,-2.7337 2.7337,-7.1658 0,-9.8995 -0.05931,-0.0593 -0.11592,-0.12002 -0.17678,-0.17678 2.3604,2.5495 2.3013,6.5375 -0.17678,9.0156 -2.5384,2.5384 -6.654,2.5384 -9.1924,0 -2.4781,-2.4781 -2.5371,-6.4661 -0.17678,-9.0156 -0.06086,0.0568 -0.11746,0.11746 -0.17678,0.17678 -2.7337,2.7337 -2.7337,7.1658 0,9.8995 z" />
    <path
       inkscape:connector-curvature="0"
       style="color:#000000;fill:url(#radialGradient7900)"
       id="path679"
       d="m 83,1030.4 a 8,8 0 0 1 -16,0 8,8 0 1 1 16,0 z" />
    <path
       style="color:#000000;opacity:0.2"
       inkscape:connector-curvature="0"
       id="path681"
       d="m 75,1022.4 c -4.4183,0 -8,3.5817 -8,8 0,4.4183 3.5817,8 8,8 4.4183,0 8,-3.5817 8,-8 0,-4.4183 -3.5817,-8 -8,-8 z m 0,1 c 3.866,0 7,3.134 7,7 0,3.866 -3.134,7 -7,7 -3.866,0 -7,-3.134 -7,-7 0,-3.866 3.134,-7 7,-7 z" />
    <path
       inkscape:connector-curvature="0"
       style="color:#000000;opacity:0.3;fill:url(#linearGradient7902)"
       id="path683"
       d="m 70.051,1035.3 c 2.7337,2.7337 7.1658,2.7337 9.8995,0 2.7337,-2.7337 2.7337,-7.1658 0,-9.8995 -0.05931,-0.059 -0.11592,-0.12 -0.17678,-0.1768 2.3604,2.5496 2.3013,6.5375 -0.17678,9.0157 -2.5384,2.5384 -6.654,2.5384 -9.1924,0 -2.4781,-2.4782 -2.5371,-6.4661 -0.17678,-9.0157 -0.06086,0.057 -0.11746,0.1175 -0.17678,0.1768 -2.7337,2.7337 -2.7337,7.1658 0,9.8995 z" />
    <path
       inkscape:connector-curvature="0"
       style="color:#000000;fill:url(#radialGradient7904)"
       id="path685"
       d="m 47,994.36 a 8,8 0 0 1 -16,0 8,8 0 1 1 16,0 z" />
    <path
       style="color:#000000;opacity:0.2"
       inkscape:connector-curvature="0"
       id="path687"
       d="m 39,986.36 c -4.4183,0 -8,3.5817 -8,8 0,4.4183 3.5817,8 8,8 4.4183,0 8,-3.5817 8,-8 0,-4.4183 -3.5817,-8 -8,-8 z m 0,1 c 3.866,0 7,3.134 7,7 0,3.866 -3.134,7 -7,7 -3.866,0 -7,-3.134 -7,-7 0,-3.866 3.134,-7 7,-7 z" />
    <path
       inkscape:connector-curvature="0"
       style="color:#000000;opacity:0.3;fill:url(#linearGradient7906)"
       id="path689"
       d="m 34.051,999.31 c 2.7337,2.7337 7.1658,2.7337 9.8995,0 2.7337,-2.7337 2.7337,-7.1658 0,-9.8995 -0.05931,-0.0593 -0.11592,-0.12002 -0.17678,-0.17678 2.3604,2.5495 2.3013,6.5375 -0.17678,9.0156 -2.5384,2.53838 -6.654,2.53838 -9.1924,0 -2.4781,-2.4781 -2.5371,-6.4661 -0.17678,-9.0156 -0.06086,0.0568 -0.11746,0.11746 -0.17678,0.17678 -2.7337,2.7337 -2.7337,7.1658 0,9.8995 z" />
    <path
       inkscape:connector-curvature="0"
       style="color:#000000;fill:url(#radialGradient7908)"
       id="path691"
       d="m 29,976.36 a 8,8 0 0 1 -16,0 8,8 0 1 1 16,0 z" />
    <path
       style="color:#000000;opacity:0.2"
       inkscape:connector-curvature="0"
       id="path693"
       d="m 21,968.36 c -4.4183,0 -8,3.5817 -8,8 0,4.4183 3.5817,8 8,8 4.4183,0 8,-3.5817 8,-8 0,-4.4183 -3.5817,-8 -8,-8 z m 0,1 c 3.866,0 7,3.134 7,7 0,3.866 -3.134,7 -7,7 -3.866,0 -7,-3.134 -7,-7 0,-3.866 3.134,-7 7,-7 z" />
    <path
       inkscape:connector-curvature="0"
       style="color:#000000;opacity:0.3;fill:url(#linearGradient7910)"
       id="path695"
       d="m 16.051,981.31 c 2.7337,2.7337 7.1658,2.7337 9.8995,0 2.7337,-2.7337 2.7337,-7.1658 0,-9.8995 -0.05931,-0.0593 -0.11592,-0.12002 -0.17678,-0.17678 2.3604,2.5495 2.3013,6.5375 -0.17678,9.0156 -2.5384,2.5384 -6.654,2.5384 -9.1924,0 -2.4781,-2.4781 -2.5371,-6.4661 -0.17678,-9.0156 -0.06086,0.0568 -0.11746,0.11746 -0.17678,0.17678 -2.7337,2.7337 -2.7337,7.1658 0,9.8995 z" />
    <path
       inkscape:connector-curvature="0"
       style="color:#000000;fill:url(#radialGradient7912)"
       id="path697"
       d="m 83,1012.4 a 8,8 0 0 1 -16,0 8,8 0 1 1 16,0 z" />
    <path
       style="color:#000000;opacity:0.2"
       inkscape:connector-curvature="0"
       id="path699"
       d="m 75,1004.4 c -4.4183,0 -8,3.5817 -8,8 0,4.4183 3.5817,8 8,8 4.4183,0 8,-3.5817 8,-8 0,-4.4183 -3.5817,-8 -8,-8 z m 0,1 c 3.866,0 7,3.134 7,7 0,3.866 -3.134,7 -7,7 -3.866,0 -7,-3.134 -7,-7 0,-3.866 3.134,-7 7,-7 z" />
    <path
       inkscape:connector-curvature="0"
       style="color:#000000;opacity:0.3;fill:url(#linearGradient7914)"
       id="path701"
       d="m 70.051,1017.3 c 2.7337,2.7337 7.1658,2.7337 9.8995,0 2.7337,-2.7337 2.7337,-7.1658 0,-9.8995 -0.05931,-0.059 -0.11592,-0.12 -0.17678,-0.1768 2.3604,2.5496 2.3013,6.5375 -0.17678,9.0157 -2.5384,2.5384 -6.654,2.5384 -9.1924,0 -2.4781,-2.4782 -2.5371,-6.4661 -0.17678,-9.0157 -0.06086,0.057 -0.11746,0.1175 -0.17678,0.1768 -2.7337,2.7337 -2.7337,7.1658 0,9.8995 z" />
    <path
       inkscape:connector-curvature="0"
       style="color:#000000;fill:url(#radialGradient7916)"
       id="path703"
       d="m 47,976.36 a 8,8 0 0 1 -16,0 8,8 0 1 1 16,0 z" />
    <path
       style="color:#000000;opacity:0.2"
       inkscape:connector-curvature="0"
       id="path705"
       d="m 39,968.36 c -4.4183,0 -8,3.5817 -8,8 0,4.4183 3.5817,8 8,8 4.4183,0 8,-3.5817 8,-8 0,-4.4183 -3.5817,-8 -8,-8 z m 0,1 c 3.866,0 7,3.134 7,7 0,3.866 -3.134,7 -7,7 -3.866,0 -7,-3.134 -7,-7 0,-3.866 3.134,-7 7,-7 z" />
    <path
       inkscape:connector-curvature="0"
       style="color:#000000;opacity:0.3;fill:url(#linearGradient7918)"
       id="path707"
       d="m 34.051,981.31 c 2.7337,2.7337 7.1658,2.7337 9.8995,0 2.7337,-2.7337 2.7337,-7.1658 0,-9.8995 -0.05931,-0.0593 -0.11592,-0.12002 -0.17678,-0.17678 2.3604,2.5495 2.3013,6.5375 -0.17678,9.0156 -2.5384,2.5384 -6.654,2.5384 -9.1924,0 -2.4781,-2.4781 -2.5371,-6.4661 -0.17678,-9.0156 -0.06086,0.0568 -0.11746,0.11746 -0.17678,0.17678 -2.7337,2.7337 -2.7337,7.1658 0,9.8995 z" />
  </g>
  <g
     id="g14291">
    <path
       d="m 5.2922679,73.685059 0,5.0663 c 0,6.668 5.3645011,12.032 12.0320011,12.032 l 61.049,0 c 6.668,0 12.032,-5.3645 12.032,-12.032 l 0,-5.0663 c 0,6.6681 -5.3645,12.032 -12.032,12.032 l -61.049,0 c -6.668,0 -12.0320011,-5.3643 -12.0320011,-12.032 z"
       id="path64"
       inkscape:connector-curvature="0"
       style="opacity:0.4;fill:url(#linearGradient14237);fill-opacity:1" />
    <path
       inkscape:connector-curvature="0"
       id="path14214"
       d="m 5.2929688,72.717592 0,1.15039 c 0,6.667718 5.3632502,12.031248 12.0312502,12.031248 l 61.048828,0 c 6.6675,0 12.03125,-5.36313 12.03125,-12.031248 l 0,-1.15039 c 0,6.668098 -5.36375,12.031248 -12.03125,12.031248 l -61.048828,0 c -6.668,0 -12.0312502,-5.36355 -12.0312502,-12.031248 z"
       style="opacity:0.5;fill:url(#linearGradient14245);fill-opacity:1" />
  </g>
</svg>
