<?xml version="1.0" encoding="UTF-8" standalone="no"?>
<svg
   xmlns:dc="http://purl.org/dc/elements/1.1/"
   xmlns:cc="http://creativecommons.org/ns#"
   xmlns:rdf="http://www.w3.org/1999/02/22-rdf-syntax-ns#"
   xmlns:svg="http://www.w3.org/2000/svg"
   xmlns="http://www.w3.org/2000/svg"
   xmlns:xlink="http://www.w3.org/1999/xlink"
   xmlns:sodipodi="http://sodipodi.sourceforge.net/DTD/sodipodi-0.dtd"
   xmlns:inkscape="http://www.inkscape.org/namespaces/inkscape"
   height="96"
   width="96"
   id="svg1570"
   version="1.1"
   inkscape:version="0.91 r13725"
   sodipodi:docname="gnome-do.svg">
  <metadata
     id="metadata1641">
    <rdf:RDF>
      <cc:Work
         rdf:about="">
        <dc:format>image/svg+xml</dc:format>
        <dc:type
           rdf:resource="http://purl.org/dc/dcmitype/StillImage" />
      </cc:Work>
    </rdf:RDF>
  </metadata>
  <sodipodi:namedview
     pagecolor="#ffffff"
     bordercolor="#666666"
     borderopacity="1"
     objecttolerance="10"
     gridtolerance="10"
     guidetolerance="10"
     inkscape:pageopacity="0"
     inkscape:pageshadow="2"
     inkscape:window-width="640"
     inkscape:window-height="480"
     id="namedview1639"
     showgrid="false"
     inkscape:zoom="2.4583333"
     inkscape:cx="48"
     inkscape:cy="48"
     inkscape:current-layer="svg1570" />
  <defs
     id="defs1572">
    <clipPath
       id="clipPath3613-87">
      <rect
         x="6"
         rx="6"
         y="6"
         height="84"
         width="84"
         id="rect1575" />
    </clipPath>
    <filter
       x="-0.192"
       y="-0.192"
       height="1.384"
       color-interpolation-filters="sRGB"
       id="filter3794-51"
       width="1.384">
      <feGaussianBlur
         stdDeviation="5.28"
         id="feGaussianBlur1578" />
    </filter>
    <linearGradient
       x2="0"
       y1="90"
       y2="5.988"
       gradientUnits="userSpaceOnUse"
       id="linearGradient3128"
       gradientTransform="matrix(1.2262,0,0,1.119,-13.823,-6.41)">
      <stop
         stop-color="#623b6b"
         id="stop1581" />
      <stop
         stop-color="#ad7fa8"
         offset="1"
         id="stop1583" />
    </linearGradient>
    <linearGradient
       x2="0"
       y1="20.221"
       y2="138.66"
       gradientUnits="userSpaceOnUse"
       id="linearGradient8763">
      <stop
         stop-color="#fff"
         id="stop1586" />
      <stop
         stop-color="#fff"
         stop-opacity="0"
         offset="1"
         id="stop1588" />
    </linearGradient>
    <linearGradient
       x2="0"
       y1="1"
       y2="45.02"
       gradientUnits="userSpaceOnUse"
       id="linearGradient8765"
       gradientTransform="matrix(1.2791,0,0,1.2791,17.302,18.582)">
      <stop
         stop-color="#f6f6f6"
         id="stop1591" />
      <stop
         stop-color="#d2d2d2"
         offset="1"
         id="stop1593" />
    </linearGradient>
    <linearGradient
       x2="0"
       y1="1"
       y2="45"
       gradientUnits="userSpaceOnUse"
       id="linearGradient8767"
       gradientTransform="matrix(1.2791,0,0,1.2791,17.302,18.582)">
      <stop
         stop-color="#aaa"
         id="stop1596" />
      <stop
         stop-color="#8c8c8c"
         offset="1"
         id="stop1598" />
    </linearGradient>
    <linearGradient
       x1="86.13"
       x2="84.64"
       y1="105.1"
       y2="20.895"
       gradientUnits="userSpaceOnUse"
       id="linearGradient8769"
       gradientTransform="matrix(0.41503,0,0,0.41503,21.438,21.853)">
      <stop
         stop-color="#e5e5e5"
         id="stop1601" />
      <stop
         stop-color="#ababab"
         offset="1"
         id="stop1603" />
    </linearGradient>
    <linearGradient
       inkscape:collect="always"
       xlink:href="#linearGradient14231"
       id="linearGradient14237"
       x1="50.707542"
       y1="81.682442"
       x2="50.707542"
       y2="96.539803"
       gradientUnits="userSpaceOnUse" />
    <linearGradient
       inkscape:collect="always"
       id="linearGradient14231">
      <stop
         style="stop-color:#000000;stop-opacity:1;"
         offset="0"
         id="stop14233" />
      <stop
         style="stop-color:#000000;stop-opacity:0;"
         offset="1"
         id="stop14235" />
    </linearGradient>
    <linearGradient
       inkscape:collect="always"
       xlink:href="#linearGradient14239"
       id="linearGradient14245"
       x1="49.876652"
       y1="87.937508"
       x2="49.876652"
       y2="76.719681"
       gradientUnits="userSpaceOnUse" />
    <linearGradient
       inkscape:collect="always"
       id="linearGradient14239">
      <stop
         style="stop-color:#ffffff;stop-opacity:1;"
         offset="0"
         id="stop14241" />
      <stop
         style="stop-color:#ffffff;stop-opacity:0;"
         offset="1"
         id="stop14243" />
    </linearGradient>
  </defs>
  <rect
     style="fill-opacity:0.02000002"
     id="rect1607"
     width="89.620003"
     height="89.980003"
     y="2.9899757"
     rx="12.724"
     x="3.3529999" />
  <rect
     style="fill-opacity:0.03900003"
     id="rect1609"
     width="88.410004"
     height="88.760002"
     y="3.6000221"
     rx="12.552"
     x="3.9590001" />
  <rect
     style="fill-opacity:0.078"
     id="rect1611"
     width="87.199997"
     height="87.550003"
     y="4.2100072"
     rx="12.38"
     x="4.5640001" />
  <rect
     style="fill-opacity:0.15700001"
     id="rect1613"
     width="85.990997"
     height="86.330002"
     y="4.8199925"
     rx="12.208"
     x="5.1700001" />
  <path
     inkscape:connector-curvature="0"
     style="fill:url(#linearGradient3128)"
     id="path1615"
     d="m 17.75,5.4062 c -6.642,0 -11.969,5.3948 -11.969,12.063 l 2e-4,61.031 c 0,6.668 5.3268,12.031 11.969,12.031 l 60.812,0 c 6.642,0 11.969,-5.363 11.969,-12.031 l 0,-61.031 c 0,-6.668 -5.327,-12.063 -11.969,-12.063 l -60.812,2e-4 z" />
  <rect
     style="opacity:0.1;fill:url(#linearGradient8763);stroke:#ffffff;stroke-width:0.5;stroke-linecap:round;filter:url(#filter3794-51)"
     id="rect1621"
     transform="translate(0.034,-0.69)"
     width="66"
     height="66"
     clip-path="url(#clipPath3613-87)"
     y="15"
     rx="12"
     x="15" />
  <g
     id="g1623"
     transform="matrix(1.2419,0,0,1.2258,-11.578,-13.26)">
    <path
       style="display:block;opacity:0.05"
       inkscape:connector-curvature="0"
       id="path1625"
       transform="translate(10,0)"
       display="block"
       d="m 34.188,18 c -3.032,0 -5.438,2.542 -5.438,5.5 l 0,1.5 c -0.40375,0.15655 -0.79124,0.35424 -1.1875,0.53125 l -1.093,-1.093 c -0.885,-0.885 -2.2116,-1.6427 -3.8125,-1.6562 -1.3981,-0.01194 -2.8068,0.52558 -3.875,1.5938 l -5.407,5.405 c -2.1478,2.1478 -2.0043,5.6205 0.0625,7.6875 l 1.0938,1.0938 c -0.178,0.397 -0.375,0.784 -0.532,1.188 l -1.5,0 c -2.9583,0 -5.5,2.406 -5.5,5.438 l 0,7.625 c 0,3.0316 2.5417,5.4375 5.5,5.4375 l 1.5,0 c 0.15655,0.40375 0.35424,0.79124 0.53125,1.1875 l -1.0938,1.0938 c -2.067,2.067 -2.2105,5.5397 -0.0625,7.6875 l 5.4062,5.4062 c 2.1478,2.1478 5.6204,2.0046 7.6875,-0.0625 l 1.094,-1.095 c 0.397,0.177 0.784,0.374 1.188,0.531 l 0,1.5 c 0,2.9583 2.4059,5.5 5.4375,5.5 l 7.625,0 c 3.0316,0 5.4375,-2.5417 5.4375,-5.5 l 0,-1.5 c 0.40375,-0.15655 0.79124,-0.35424 1.1875,-0.53125 l 1.0938,1.0938 c 2.0671,2.0671 5.5397,2.2103 7.6875,0.0625 l 5.405,-5.407 c 2.1478,-2.1478 2.0043,-5.6205 -0.0625,-7.6875 l -1.093,-1.094 c 0.177,-0.397 0.374,-0.784 0.531,-1.188 l 1.5,0 c 2.9583,0 5.5,-2.4059 5.5,-5.4375 l 0,-7.625 c 0,-3.031 -2.542,-5.437 -5.5,-5.437 l -1.5,0 C 61.8427,39.34445 61.64501,38.95696 61.468,38.5607 l 1.0938,-1.0938 c 2.067,-2.067 2.2105,-5.5397 0.0625,-7.6875 l -5.407,-5.405 c -2.1478,-2.1478 -5.6204,-2.0046 -7.6875,0.0625 l -1.094,1.093 c -0.397,-0.177 -0.784,-0.374 -1.188,-0.531 l 0,-1.5 c 0,-2.9583 -2.4059,-5.5 -5.4375,-5.5 l -7.625,0 z M 38,44.188 c 2.7171,0 4.8125,2.0954 4.8125,4.8125 0,2.7171 -2.0954,4.8125 -4.8125,4.8125 -2.7171,0 -4.8125,-2.0954 -4.8125,-4.8125 0,-2.7171 2.0954,-4.8125 4.8125,-4.8125 z" />
    <path
       style="display:block;opacity:0.07999998"
       inkscape:connector-curvature="0"
       id="path1627"
       transform="translate(10,0)"
       display="block"
       d="m 34.188,19.031 c -2.4655,0 -4.4062,2.0565 -4.4062,4.4688 l 0,2.1875 c -0.84674,0.30617 -1.673,0.6425 -2.4688,1.0312 l -1.563,-1.563 c -0.729,-0.729 -1.806,-1.333 -3.094,-1.344 -1.14,-0.009 -2.288,0.414 -3.156,1.282 l -5.406,5.406 c -1.7411,1.7412 -1.6182,4.5691 0.0625,6.25 l 1.5625,1.5625 c -0.38875,0.79572 -0.72508,1.622 -1.0312,2.4688 l -2.1875,0 c -2.4122,0 -4.4688,1.9408 -4.4688,4.4062 l 0,7.625 c 0,2.4655 2.0565,4.4062 4.4688,4.4062 l 2.1875,0 c 0.30618,0.84674 0.6425,1.673 1.0312,2.4688 l -1.5625,1.5625 c -1.6808,1.6808 -1.8038,4.5089 -0.0625,6.25 l 5.406,5.406 c 1.7411,1.7411 4.5691,1.6184 6.25,-0.0625 l 1.5625,-1.5625 c 0.79572,0.38875 1.622,0.72508 2.4688,1.0312 l 0,2.1875 c 0,2.4122 1.9408,4.4688 4.4062,4.4688 l 7.625,0 c 2.4655,0 4.4062,-2.0565 4.4062,-4.4688 l 0,-2.1875 c 0.84674,-0.30617 1.673,-0.6425 2.4688,-1.0312 L 50.25,72.843 c 1.6809,1.6809 4.5089,1.8036 6.25,0.0625 l 5.406,-5.406 c 1.7411,-1.7412 1.6182,-4.5691 -0.0625,-6.25 L 60.281,59.687 c 0.38875,-0.79571 0.72508,-1.622 1.0312,-2.4688 l 2.1875,0 c 2.4122,0 4.4688,-1.9408 4.4688,-4.4062 l 0,-7.625 c 0,-2.4655 -2.0565,-4.4062 -4.4688,-4.4062 l -2.1875,0 c -0.306,-0.847 -0.642,-1.674 -1.031,-2.47 l 1.5625,-1.5625 c 1.6808,-1.6808 1.8038,-4.5089 0.0625,-6.25 l -5.406,-5.406 c -1.7411,-1.7411 -4.5691,-1.6184 -6.25,0.0625 l -1.5625,1.5625 c -0.796,-0.388 -1.623,-0.724 -2.469,-1.03 l 0,-2.1875 c 0,-2.4122 -1.9408,-4.4688 -4.4062,-4.4688 l -7.625,0 z M 38,43.156 c 3.2563,0 5.8438,2.5874 5.8438,5.8438 0,3.2563 -2.5874,5.8438 -5.8438,5.8438 -3.2563,0 -5.8438,-2.5874 -5.8438,-5.8438 0,-3.2563 2.5874,-5.8438 5.8438,-5.8438 z" />
    <path
       style="display:block;opacity:0.2"
       inkscape:connector-curvature="0"
       id="path1629"
       transform="translate(10,0)"
       display="block"
       d="m 34.188,20.031 c -1.8975,0 -3.4062,1.6003 -3.4062,3.4688 l 0,2.875 c -1.2828,0.41908 -2.5201,0.94925 -3.6875,1.5625 l -2.0625,-2.0625 c -0.58342,-0.58342 -1.4117,-1.0543 -2.375,-1.0625 -0.87648,-0.0075 -1.766,0.32854 -2.4375,1 l -5.4062,5.4062 c -1.3357,1.3357 -1.2376,3.5123 0.0625,4.8125 l 2.0625,2.0625 c -0.61325,1.1674 -1.1434,2.4047 -1.5625,3.6875 l -2.875,0 c -1.8685,0 -3.4688,1.5087 -3.4688,3.4062 l 0,7.625 c 0,1.8975 1.6003,3.4062 3.4688,3.4062 l 2.875,0 c 0.41908,1.2828 0.94925,2.5201 1.5625,3.6875 l -2.0625,2.0625 c -1.3002,1.3002 -1.3983,3.4768 -0.0625,4.8125 l 5.4062,5.4062 c 1.3356,1.3357 3.5123,1.2377 4.8125,-0.0625 l 2.0625,-2.0625 c 1.1674,0.61325 2.4047,1.1434 3.6875,1.5625 l 0,2.875 c 0,1.8684 1.5087,3.4688 3.4062,3.4688 l 7.625,0 c 1.8975,0 3.4062,-1.6003 3.4062,-3.4688 l 0,-2.875 c 1.2828,-0.41908 2.5201,-0.94925 3.6875,-1.5625 l 2.0625,2.0625 c 1.3002,1.3002 3.4769,1.3981 4.8125,0.0625 l 5.4062,-5.4062 c 1.3357,-1.3357 1.2376,-3.5123 -0.0625,-4.8125 l -2.0625,-2.0625 c 0.61325,-1.1674 1.1434,-2.4047 1.5625,-3.6875 l 2.875,0 c 1.8684,0 3.4688,-1.5087 3.4688,-3.4062 l 0,-7.625 c 0,-1.8975 -1.6003,-3.4062 -3.4688,-3.4062 l -2.875,0 c -0.41908,-1.2828 -0.94925,-2.5201 -1.5625,-3.6875 l 2.0625,-2.0625 c 1.3002,-1.3002 1.3983,-3.4768 0.0625,-4.8125 l -5.405,-5.408 c -1.3356,-1.3356 -3.5123,-1.2377 -4.8125,0.0625 l -2.0625,2.0625 C 47.7405,27.32225 46.5032,26.7921 45.2204,26.373 l 0,-2.875 c 0,-1.8685 -1.5088,-3.4688 -3.4062,-3.4688 l -7.625,0 z M 38,42.156 c 3.7968,0 6.8438,3.047 6.8438,6.8438 0,3.7968 -3.047,6.8438 -6.8438,6.8438 -3.7968,0 -6.8438,-3.047 -6.8438,-6.8438 0,-3.7968 3.047,-6.8438 6.8438,-6.8438 z" />
    <path
       style="display:block;opacity:0.3"
       inkscape:connector-curvature="0"
       id="path1631"
       transform="translate(10,0)"
       display="block"
       d="m 34.188,21 c -1.363,0 -2.438,1.138 -2.438,2.5 l 0,3.5 c -1.7179,0.49094 -3.3491,1.2076 -4.875,2.0625 l -2.5312,-2.5 c -0.45629,-0.45628 -1.0316,-0.77569 -1.6875,-0.78125 -0.62972,-0.0054 -1.2629,0.23163 -1.75,0.71875 l -5.406,5.406 c -0.96063,0.96064 -0.8927,2.4822 0.0625,3.4375 l 2.5,2.5312 c -0.854,1.526 -1.571,3.157 -2.062,4.875 l -3.5,0 c -1.3624,0 -2.5,1.0755 -2.5,2.4375 l 0,7.625 c 0,1.362 1.1376,2.4375 2.5,2.4375 l 3.5,0 c 0.49095,1.7179 1.2076,3.3491 2.0625,4.875 l -2.5,2.5312 c -0.95529,0.95529 -1.0232,2.4769 -0.0625,3.4375 l 5.406,5.406 c 0.96062,0.96063 2.4822,0.8928 3.4375,-0.0625 l 2.5312,-2.5 c 1.5259,0.85495 3.1571,1.5716 4.875,2.0625 l 0,3.5 c 0,1.3624 1.0755,2.5 2.4375,2.5 l 7.625,0 c 1.362,0 2.4375,-1.1376 2.4375,-2.5 l 0,-3.5 c 1.7179,-0.49094 3.3491,-1.2076 4.875,-2.0625 l 2.5312,2.5 c 0.9553,0.95531 2.4769,1.0231 3.4375,0.0625 l 5.406,-5.406 c 0.96063,-0.96064 0.8927,-2.4822 -0.0625,-3.4375 l -2.5,-2.5312 c 0.854,-1.526 1.571,-3.157 2.062,-4.875 l 3.5,0 c 1.3624,0 2.5,-1.0755 2.5,-2.4375 l 0,-7.625 c 0,-1.362 -1.138,-2.437 -2.5,-2.437 l -3.5,0 c -0.49094,-1.7179 -1.2076,-3.3491 -2.0625,-4.875 l 2.5,-2.5312 c 0.95529,-0.95529 1.0232,-2.4769 0.0625,-3.4375 l -5.406,-5.406 c -0.96063,-0.96062 -2.4822,-0.8928 -3.4375,0.0625 l -2.5312,2.5 C 47.599,28.209 45.968,27.492 44.25,27.001 l 0,-3.5 c 0,-1.3624 -1.0755,-2.5 -2.4375,-2.5 l -7.625,0 z M 38,41.188 c 4.3161,0 7.8125,3.4964 7.8125,7.8125 0,4.3161 -3.4964,7.8125 -7.8125,7.8125 -4.3161,0 -7.8125,-3.4964 -7.8125,-7.8125 0,-4.3161 3.4964,-7.8125 7.8125,-7.8125 z" />
    <path
       inkscape:connector-curvature="0"
       style="display:block;fill:url(#linearGradient8765);stroke:url(#linearGradient8767);stroke-linejoin:round"
       id="path1633"
       display="block"
       d="m 44.203,20.5 c -1.0823,0 -1.9586,0.89778 -1.9586,1.9985 l 0,3.8772 c -1.9351,0.5156 -3.7842,1.2944 -5.476,2.2783 l -2.758,-2.758 c -0.38918,-0.38918 -0.85537,-0.5953 -1.359,-0.59956 -0.50363,-0.0043 -1.0163,0.17696 -1.399,0.55959 l -5.3961,5.3961 c -0.76526,0.76527 -0.73838,1.9796 0.03989,2.758 l 2.758,2.758 c -0.98393,1.6918 -1.7627,3.5408 -2.2783,5.476 l -3.8772,0 c -1.1008,0 -1.9985,0.87631 -1.9985,1.9586 l 0,7.5944 c 0,1.0823 0.89779,1.9586 1.9985,1.9586 l 3.8772,0 c 0.51561,1.9352 1.2944,3.7842 2.2783,5.476 l -2.758,2.758 c -0.77835,0.77835 -0.80523,1.9927 -0.03989,2.758 l 5.3961,5.3961 c 0.76526,0.76527 1.9796,0.73838 2.758,-0.03997 l 2.758,-2.758 c 1.6918,0.98394 3.5408,1.7627 5.476,2.2783 l 0,3.8772 c 0,1.1008 0.87632,1.9985 1.9586,1.9985 l 7.5944,0 c 1.0823,0 1.9586,-0.89779 1.9586,-1.9985 l 0,-3.8772 c 1.9351,-0.5156 3.7842,-1.2944 5.476,-2.2783 l 2.758,2.758 c 0.77835,0.77835 1.9927,0.80524 2.758,0.03997 l 5.3961,-5.3961 c 0.76526,-0.76527 0.73838,-1.9796 -0.03989,-2.758 l -2.758,-2.758 c 0.98393,-1.6918 1.7627,-3.5408 2.2783,-5.476 l 3.8772,0 c 1.1007,0 1.9985,-0.87631 1.9985,-1.9586 l 0,-7.5944 c 0,-1.0823 -0.89779,-1.9586 -1.9985,-1.9586 l -3.8772,0 c -0.514,-1.934 -1.293,-3.783 -2.277,-5.475 l 2.758,-2.758 c 0.77835,-0.77835 0.80524,-1.9927 0.03989,-2.758 l -5.3961,-5.3961 c -0.76527,-0.76527 -1.9796,-0.73838 -2.758,0.03997 l -2.758,2.758 c -1.6918,-0.98394 -3.5408,-1.7627 -5.476,-2.2783 l 0,-3.8772 c 0,-1.1008 -0.87631,-1.9985 -1.9586,-1.9985 l -7.5944,0 z m 3.7972,19.186 c 4.5893,0 8.3139,3.7246 8.3139,8.3139 0,4.5893 -3.7246,8.3139 -8.3139,8.3139 -4.5893,0 -8.3139,-3.7246 -8.3139,-8.3139 0,-4.5893 3.7246,-8.3139 8.3139,-8.3139 z" />
    <path
       inkscape:connector-curvature="0"
       style="fill:none;stroke:url(#linearGradient8769);stroke-width:2"
       id="path1635"
       d="m 48,30.733 c -9.5212,0 -17.267,7.7461 -17.267,17.267 0,9.5212 7.7461,17.267 17.267,17.267 9.5212,0 17.267,-7.7461 17.267,-17.267 0,-9.5212 -7.7462,-17.267 -17.267,-17.267 z" />
    <path
       style="opacity:0.05"
       inkscape:connector-curvature="0"
       id="path1637"
       d="m 48,31.372 c -9.1688,0 -16.628,7.4591 -16.628,16.628 0,9.1687 7.4591,16.628 16.628,16.628 9.1688,-2e-6 16.628,-7.4591 16.628,-16.628 0,-9.1687 -7.4591,-16.628 -16.628,-16.628 z m 0,7.6744 c 4.9423,0 8.9535,4.0111 8.9535,8.9535 0,4.9423 -4.0112,8.9535 -8.9535,8.9535 -4.9423,0 -8.9535,-4.0111 -8.9535,-8.9535 0,-4.9423 4.0112,-8.9535 8.9535,-8.9535 z" />
  </g>
  <g
     id="g14291">
    <path
       d="m 5.2922679,73.685059 0,5.0663 c 0,6.668 5.3645011,12.032 12.0320011,12.032 l 61.049,0 c 6.668,0 12.032,-5.3645 12.032,-12.032 l 0,-5.0663 c 0,6.6681 -5.3645,12.032 -12.032,12.032 l -61.049,0 c -6.668,0 -12.0320011,-5.3643 -12.0320011,-12.032 z"
       id="path64"
       inkscape:connector-curvature="0"
       style="opacity:0.4;fill:url(#linearGradient14237);fill-opacity:1" />
    <path
       inkscape:connector-curvature="0"
       id="path14214"
       d="m 5.2929688,72.717592 0,1.15039 c 0,6.667718 5.3632502,12.031248 12.0312502,12.031248 l 61.048828,0 c 6.6675,0 12.03125,-5.36313 12.03125,-12.031248 l 0,-1.15039 c 0,6.668098 -5.36375,12.031248 -12.03125,12.031248 l -61.048828,0 c -6.668,0 -12.0312502,-5.36355 -12.0312502,-12.031248 z"
       style="opacity:0.5;fill:url(#linearGradient14245);fill-opacity:1" />
  </g>
</svg>
