<?xml version="1.0" encoding="UTF-8" standalone="no"?>
<svg xmlns="http://www.w3.org/2000/svg" height="96" width="96" xmlns:xlink="http://www.w3.org/1999/xlink">
 <defs>
  <linearGradient id="linearGradient6400" x2="0" y1="84.03" y2="2.993" gradientUnits="userSpaceOnUse">
   <stop stop-color="#ccc" offset="0"/>
   <stop stop-color="#dae0de" offset="1"/>
  </linearGradient>
  <linearGradient id="linearGradient3733" x2="19.942" gradientUnits="userSpaceOnUse" x1="80.71">
   <stop stop-color="#fff" offset="0"/>
   <stop stop-color="#fff" stop-opacity="0" offset="1"/>
  </linearGradient>
  <filter id="filter3780" color-interpolation-filters="sRGB" width="1.089" y="-.151" x="-.044" height="1.302">
   <feGaussianBlur stdDeviation="1.15263"/>
  </filter>
  <filter id="filter3776" color-interpolation-filters="sRGB" width="1.304" y="-.045" x="-.152" height="1.091">
   <feGaussianBlur stdDeviation="1.15263"/>
  </filter>
  <radialGradient id="radialGradient4635" gradientUnits="userSpaceOnUse" cy="-15.871" cx="56.07" gradientTransform="matrix(-.00226 -1.0568 1.3856 0 10.224 1077.8)" r="35.938">
   <stop stop-color="#4490e6" offset="0"/>
   <stop stop-color="#103d8f" offset="1"/>
  </radialGradient>
  <clipPath id="clipPath4637" clipPathUnits="userSpaceOnUse">
   <rect y="971.67" x="-46.872" rx="7.163" width="69.68" height="56"/>
  </clipPath>
  <path id="SVGCleanerId_0" d="m48.808 61.281 44.058 4.5502v-9.1004l-44.058 4.5502z"/>
  <path id="SVGCleanerId_1" stroke-linejoin="round" stroke-width=".625" d="m89.91 52.101 19.667 9.1442-19.667 9.1442c3.1419-5.3987 3.1238-12.785 0.000001-18.288z"/>
  <path id="SVGCleanerId_2" d="m47.289 61.281 45.577 4.5502v-9.1004l-45.577 4.5502z"/>
 </defs>
 <g transform="translate(0 -956.36)">
  <rect fill-opacity=".02" rx="12.724" height="89.98" width="89.62" y="959.35" x="3.353"/>
  <rect fill-opacity=".039" rx="12.552" height="88.76" width="88.41" y="959.96" x="3.959"/>
  <rect fill-opacity=".078" rx="12.38" height="87.55" width="87.2" y="960.57" x="4.564"/>
  <rect fill-opacity=".157" rx="12.208" height="86.33" width="85.991" y="961.18" x="5.17"/>
  <path transform="translate(0 956.36)" d="m17.75 5.4062c-6.642 0-11.969 5.3948-11.969 12.063l0.0002 61.031c0 6.668 5.3268 12.031 11.969 12.031h60.812c6.642 0 11.969-5.363 11.969-12.031v-61.031c0-6.668-5.327-12.063-11.969-12.063l-60.812 0.0002z" fill="url(#linearGradient6400)"/>
  <path d="m5.7756 1029.8v5.0663c0 6.668 5.3434 12.032 11.985 12.032h60.809c6.6418 0 11.985-5.3645 11.985-12.032v-5.0663c0 6.6681-5.3434 12.032-11.985 12.032h-60.809c-6.6418 0-11.985-5.3643-11.985-12.032z" fill-opacity=".118"/>
  <path d="m5.7756 1033.9v1.0133c0 6.668 5.3434 12.032 11.985 12.032h60.809c6.6418 0 11.985-5.3645 11.985-12.032v-1.0133c0 6.6681-5.3434 12.032-11.985 12.032h-60.809c-6.6418 0-11.985-5.3644-11.985-12.032z" fill-opacity=".098"/>
  <rect opacity=".5" rx="7.259" height="56.75" width="71.47" y="968.65" x="12.232" fill="#4d4d4d"/>
  <rect rx="1.28" transform="scale(1 -1)" height="2.559" width="17.309" y="-1036.3" x="58.934" fill="#999"/>
  <rect rx="1.28" transform="scale(1 -1)" height="2.559" width="17.309" y="-1035.4" x="58.934" fill="#808080"/>
  <g transform="translate(60)" clip-path="url(#clipPath4637)">
   <path d="m24.076 1029.6v-61.521h-71.937v61.521h71.937z" fill="url(#radialGradient4635)"/>
  </g>
  <rect opacity=".1" height="14.734" width="14.758" y="1008.1" x="18.906" fill="#fff"/>
  <g filter="url(#filter3776)" transform="matrix(0 -.60614 .60523 0 -12.627 1044.1)" fill-rule="evenodd">
   <use xlink:href="#SVGCleanerId_0"/>
   <use xlink:href="#SVGCleanerId_1"/>
  </g>
  <g fill-rule="evenodd" transform="matrix(0 -.60614 .60523 0 -12.627 1043.2)" fill="url(#linearGradient3733)">
   <use xlink:href="#SVGCleanerId_0"/>
   <use xlink:href="#SVGCleanerId_1"/>
  </g>
  <g filter="url(#filter3780)" transform="matrix(.60714 0 0 .60423 -.581 981.23)" fill-rule="evenodd">
   <use xlink:href="#SVGCleanerId_2"/>
   <use xlink:href="#SVGCleanerId_1"/>
  </g>
  <g fill-rule="evenodd" transform="matrix(.60714 0 0 .60423 -.581 980.31)" fill="url(#linearGradient3733)">
   <use xlink:href="#SVGCleanerId_2"/>
   <use xlink:href="#SVGCleanerId_1"/>
  </g>
  <rect opacity=".2" stroke-dashoffset=".922" height="25.784" width="25.827" stroke="#fff" stroke-dasharray="1.84325 1.84325" y="996.14" x="19.828" stroke-width="1.843" fill="none"/>
 </g>
</svg>
