<svg height="96" width="96" xmlns="http://www.w3.org/2000/svg" xmlns:xlink="http://www.w3.org/1999/xlink" xmlns:sodipodi="http://sodipodi.sourceforge.net/DTD/sodipodi-0.dtd" xmlns:inkscape="http://www.inkscape.org/namespaces/inkscape">
 <defs>
  <linearGradient id="linearGradient3997">
   <stop stop-color="#fff"/>
   <stop stop-color="#fff" stop-opacity="0" offset="1"/>
  </linearGradient>
  <linearGradient id="linearGradient3977">
   <stop stop-color="#366598"/>
   <stop stop-color="#6593c3" offset="1"/>
  </linearGradient>
  <linearGradient id="linearGradient4941">
   <stop stop-color="#2a2a2a"/>
   <stop stop-color="#4b4b4b" offset="1"/>
  </linearGradient>
  <linearGradient x2="0" xlink:href="#linearGradient3977" y1="90" y2="5.988" gradientUnits="userSpaceOnUse" id="linearGradient8096" gradientTransform="matrix(0.5 0 0 0.5 45 -51)"/>
  <linearGradient x2="0" xlink:href="#linearGradient4941" y1="90" y2="5.988" gradientUnits="userSpaceOnUse" id="linearGradient3975" gradientTransform="matrix(0.5 0 0 0.5 45 -93)"/>
  <linearGradient x2="0" xlink:href="#linearGradient3977" y1="90" y2="5.988" gradientUnits="userSpaceOnUse" id="linearGradient3987" gradientTransform="matrix(0.5 0 0 0.5 3 -93)"/>
  <linearGradient x2="0" xlink:href="#linearGradient4941" y1="90" y2="5.988" gradientUnits="userSpaceOnUse" id="linearGradient3993" gradientTransform="matrix(0.5 0 0 0.5 3 -51)"/>
  <linearGradient x2="0" xlink:href="#linearGradient3997" y1="48" y2="88" gradientUnits="userSpaceOnUse" id="linearGradient4003"/>
  <linearGradient x2="0" xlink:href="#linearGradient3997" y1="48" y2="88" gradientUnits="userSpaceOnUse" id="linearGradient4007" gradientTransform="matrix(1 0 0 1 42 -42)"/>
  <linearGradient x2="0" y1="92.54" y2="7.02" gradientUnits="userSpaceOnUse" id="ButtonShadow-5" gradientTransform="matrix(1.0059 0 0 0.99417 0 0)">
   <stop/>
   <stop stop-opacity="0.588" offset="1"/>
  </linearGradient>
  <linearGradient x2="0" xlink:href="#ButtonShadow-5" y1="94" y2="5" gradientUnits="userSpaceOnUse" id="linearGradient3990"/>
  <linearGradient x2="0" xlink:href="#ButtonShadow-5" y1="93" y2="6" gradientUnits="userSpaceOnUse" id="linearGradient3982"/>
  <linearGradient x2="0" xlink:href="#ButtonShadow-5" y1="91" y2="7" gradientUnits="userSpaceOnUse" id="linearGradient3973"/>
  <linearGradient x2="0" xlink:href="#ButtonShadow-5" y1="91" y2="7.946" gradientUnits="userSpaceOnUse" id="linearGradient3197-6"/>
  <linearGradient x2="0" xlink:href="#ButtonShadow-5" y1="95" y2="4" gradientUnits="userSpaceOnUse" id="linearGradient4047"/>
 </defs>
 <path d="m12 4c-5.4881 0-10 4.5119-10 10v29c0 2.4985 1.1375 4.5866 2.6562 6.25-1.4274 1.549-2.3678 3.522-2.5937 5.719-0.043 0.334-0.0625 0.68-0.0625 1.031v29c0 5.4881 4.5119 10 10 10h30c2.3774 0 4.3669-1.048 6-2.4062 0.20414 0.16979 0.40966 0.34135 0.625 0.5 1.507 1.11 3.295 1.906 5.375 1.906h30c0.68601 0 1.3514-0.08466 2-0.21875 1.9458-0.40228 3.702-1.3583 5.0625-2.7188 1.814-1.813 2.938-4.318 2.938-7.062v-29c0-0.351-0.02-0.697-0.062-1.031-0.226-2.197-1.167-4.17-2.594-5.719 1.518-1.663 2.656-3.751 2.656-6.25v-29c0-5.4881-4.512-10-10-10h-30c-2.25 0-4.322 0.7586-6 2.0312-1.678-1.2726-3.75-2.0312-6-2.0312h-30z" fill="url(#linearGradient4047)" opacity="0.08"/>
 <path d="m12 5c-4.951 0-9 4.049-9 9v29c0 2.5724 1.2569 4.7317 3 6.3438-1.828 1.65-3 4.014-3 6.656v29c0 4.951 4.049 9 9 9h30c2.3887 0 4.4143-1.0808 6-2.5938 0.19821 0.18912 0.41319 0.3569 0.625 0.53125 1.483 1.221 3.285 2.063 5.375 2.063h30c0.30944 0 0.60463-0.000385 0.90625-0.03125 0.30162-0.03087 0.61398-0.09606 0.90625-0.15625 1.1691-0.24077 2.2608-0.6952 3.2188-1.3438 0.2395-0.16214 0.46504-0.34747 0.6875-0.53125 2.002-1.654 3.281-4.152 3.281-6.937v-29c0-2.642-1.172-5.006-3-6.656 1.743-1.612 3-3.772 3-6.344v-29c0-4.951-4.049-9-9-9h-30c-2.309 0-4.403 0.9019-6 2.3438-1.597-1.4419-3.691-2.3438-6-2.3438h-30zm36 44.312c0.0434 0.04032 0.08101 0.08533 0.125 0.125-0.04357 0.03986-0.08363 0.08311-0.125 0.125-0.04137-0.04189-0.08143-0.08514-0.125-0.125 0.04399-0.03967 0.0816-0.08468 0.125-0.125z" fill="url(#linearGradient3990)" opacity="0.1"/>
 <path d="m12 6c-4.4067 0-8 3.5933-8 8v29c0 2.6896 1.3655 5.0272 3.4062 6.4688-1.2802 0.902-2.2667 2.177-2.8437 3.656-0.0929 0.238-0.18 0.47-0.25 0.719-0.0301 0.104-0.0679 0.207-0.0937 0.312-0.0662 0.277-0.1199 0.557-0.1563 0.844-0.0419 0.331-0.0625 0.658-0.0625 1v29c0 4.4067 3.5933 8 8 8h30c2.422 0 4.5383-1.1409 6-2.8438 0.18271 0.21285 0.39127 0.43084 0.59375 0.625 1.417 1.359 3.287 2.219 5.406 2.219h30c0.27542 0 0.54412-0.0039 0.8125-0.03125 2.1471-0.21915 4.0377-1.2936 5.3438-2.875 1.143-1.384 1.844-3.166 1.844-5.094v-29c0-0.342-0.021-0.669-0.062-1-0.037-0.287-0.091-0.567-0.157-0.844-0.024-0.103-0.065-0.21-0.093-0.312-0.072-0.245-0.157-0.485-0.25-0.719-0.577-1.479-1.564-2.754-2.844-3.656 2.041-1.442 3.406-3.779 3.406-6.469v-29c0-4.4067-3.593-8-8-8h-30c-2.389 0-4.532 1.0489-6 2.7188-1.468-1.6699-3.611-2.7188-6-2.7188h-30zm36 42.219c0.431 0.482 0.935 0.911 1.469 1.281-0.539 0.391-1.036 0.839-1.469 1.344-0.433-0.505-0.93-0.953-1.469-1.344 0.534-0.37 1.038-0.799 1.469-1.281z" fill="url(#linearGradient3982)" opacity="0.2"/>
 <path d="m12 7c-3.878 0-7 3.122-7 7v29c0 2.9691 1.8392 5.4791 4.4375 6.5-0.33234 0.13058-0.66377 0.25989-0.96875 0.4375-0.88706 0.51659-1.6366 1.2528-2.2188 2.0938-0.01606 0.0232-0.04671 0.03909-0.0625 0.0625-0.15635 0.23181-0.27809 0.46815-0.40625 0.71875-0.01741 0.03377-0.04563 0.05966-0.0625 0.09375-0.05915 0.12032-0.10392 0.25086-0.15625 0.375-0.08328 0.19619-0.18468 0.38867-0.25 0.59375-0.003 0.0094 0.0029 0.02179 0 0.03125-0.0446 0.1422-0.05816 0.29144-0.09375 0.4375-0.02992 0.12372-0.07046 0.24877-0.09375 0.375-0.01537 0.08324-0.01885 0.16572-0.03125 0.25-0.05 0.338-0.0938 0.678-0.0938 1.031v29c0 3.878 3.122 7 7 7h30c2.5577 0 4.7788-1.3689 6-3.4062 0.15265 0.25467 0.3174 0.48634 0.5 0.71875 1.278 1.626 3.262 2.687 5.5 2.687h30c0.24238 0 0.48286-0.0074 0.71875-0.03125 2.3589-0.23813 4.3624-1.641 5.4375-3.625 0.538-0.992 0.844-2.132 0.844-3.344v-29c0-0.3529-0.04383-0.69266-0.09375-1.0312-0.01234-0.08372-0.01599-0.16729-0.03125-0.25-0.02378-0.12876-0.06303-0.2489-0.09375-0.375-0.13-0.538-0.316-1.051-0.562-1.532-0.128-0.25-0.25-0.486-0.407-0.718-0.015-0.024-0.046-0.04-0.062-0.063-0.582-0.841-1.332-1.577-2.219-2.093-0.007-0.005-0.024 0.004-0.031 0-0.298-0.172-0.614-0.311-0.938-0.438 2.599-1.021 4.438-3.531 4.438-6.5v-29c0-3.878-3.122-7-7-7h-30c-2.558 0-4.779 1.3689-6 3.406-1.221-2.0371-3.442-3.406-6-3.406h-30zm36 39.562c0.78946 1.3188 1.987 2.3676 3.4375 2.9375-0.31943 0.12703-0.64348 0.26672-0.9375 0.4375-0.03211 0.01865-0.06197 0.04335-0.09375 0.0625-0.33318 0.20071-0.64365 0.4358-0.9375 0.6875-0.21954 0.18804-0.43026 0.38025-0.625 0.59375-0.11116 0.12092-0.21004 0.24635-0.3125 0.375-0.19291 0.24248-0.3712 0.48297-0.53125 0.75-0.16005-0.26703-0.33834-0.50752-0.53125-0.75-0.10246-0.12865-0.20134-0.25408-0.3125-0.375-0.19474-0.2135-0.40546-0.40571-0.625-0.59375-0.294-0.251-0.604-0.486-0.937-0.687-0.032-0.019-0.062-0.044-0.094-0.062-0.294-0.171-0.618-0.311-0.938-0.438 1.451-0.57 2.649-1.619 3.438-2.938z" fill="url(#linearGradient3973)" opacity="0.3"/>
 <path d="m12 7c-3.324 0-6 2.676-6 6v30c0 3.324 2.676 6 6 6-3.324 0-6 2.676-6 6v30c0 3.324 2.676 6 6 6h30c3.324 0 6-2.676 6-6 0 0.20775 0.01084 0.42281 0.03125 0.625 0.306 3.033 2.853 5.375 5.969 5.375h30c3.324 0 6-2.676 6-6v-30c0-3.324-2.676-6-6-6 3.324 0 6-2.676 6-6v-30c0-3.324-2.676-6-6-6h-30c-3.324 0-6 2.676-6 6 0-3.324-2.676-6-6-6h-30zm36 36c0 3.324 2.676 6 6 6-3.1162 0-5.6626 2.3421-5.9688 5.375-0.02 0.202-0.031 0.417-0.031 0.625 0-3.324-2.676-6-6-6 3.324 0 6-2.676 6-6z" fill="url(#linearGradient3197-6)" opacity="0.45"/>
 <rect x="48" rx="6" y="-48" fill="url(#linearGradient8096)" height="42" width="42" transform="matrix(0 1 -1 0 0 0)"/>
 <path d="m12 48c-3.324 0-6 2.676-6 6v30c0 3.324 2.676 6 6 6h30c3.324 0 6-2.676 6-6v-30c0-3.324-2.676-6-6-6h-30zm0 1h30c2.7789 0 5 2.2211 5 5v30c0 2.7789-2.2211 5-5 5h-30c-2.7789 0.000003-5-2.2211-5-5v-30c0-2.7789 2.2211-5 5-5z" fill="#fff" opacity="0.3"/>
 <path d="m-68 48c-3.324 0-6 2.676-6 6v30c0 2.9849 2.1528 5.4349 5 5.9062-2.287-0.463-4-2.474-4-4.906v-30c0-2.7789 2.2211-5 5-5h30c2.7789 0 5 2.2211 5 5v30c0 2.4316-1.7132 4.4431-4 4.9062 2.8472-0.47138 5-2.9214 5-5.9062v-30c0-3.324-2.676-6-6-6h-30z" fill="#f00"/>
 <rect x="48" rx="6" y="-90" fill="url(#linearGradient3975)" height="42" width="42" transform="matrix(0 1 -1 0 0 0)"/>
 <path d="m54 48c-3.324 0-6 2.676-6 6v30c0 3.324 2.676 6 6 6h30c3.324 0 6-2.676 6-6v-30c0-3.324-2.676-6-6-6h-30zm0 1h30c2.7789 0 5 2.2211 5 5v30c0 2.7789-2.2211 5-5 5h-30c-2.7789 0.000003-5-2.2211-5-5v-30c0-2.7789 2.2211-5 5-5z" fill="#fff" opacity="0.2"/>
 <rect x="6" rx="6" y="-90" fill="url(#linearGradient3987)" height="42" width="42" transform="matrix(0 1 -1 0 0 0)"/>
 <path d="m54 6c-3.324 0-6 2.676-6 6v30c0 3.324 2.676 6 6 6h30c3.324 0 6-2.676 6-6v-30c0-3.324-2.676-6-6-6h-30zm0 1h30c2.7789 0 5 2.2211 5 5v30c0 2.7789-2.2211 5-5 5h-30c-2.7789 0.000003-5-2.2211-5-5v-30c0-2.7789 2.2211-5 5-5z" fill="#fff" opacity="0.3"/>
 <rect x="6" rx="6" y="-48" fill="url(#linearGradient3993)" height="42" width="42" transform="matrix(0 1 -1 0 0 0)"/>
 <path d="m12 6c-3.324 0-6 2.676-6 6v30c0 3.324 2.676 6 6 6h30c3.324 0 6-2.676 6-6v-30c0-3.324-2.676-6-6-6h-30zm0 1h30c2.7789 0 5 2.2211 5 5v30c0 2.7789-2.2211 5-5 5h-30c-2.7789 0.000003-5-2.2211-5-5v-30c0-2.7789 2.2211-5 5-5z" fill="#fff" opacity="0.2"/>
 <path d="m12 48c-3.324 0-6 2.676-6 6v30c0 2.9849 2.1528 5.4349 5 5.9062-2.2868-0.463-4-2.474-4-4.906v-30c0-2.7789 2.2211-5 5-5h30c2.7789 0 5 2.2211 5 5v30c0 2.4316-1.7132 4.4431-4 4.9062 2.847-0.471 5-2.921 5-5.906v-30c0-3.324-2.676-6-6-6h-30z" fill="url(#linearGradient4003)" opacity="0.1"/>
 <path d="m54 6c-3.324 0-6 2.676-6 6v30c0 2.9849 2.1528 5.4349 5 5.9062-2.287-0.463-4-2.474-4-4.906v-30c0-2.7789 2.2211-5 5-5h30c2.7789 0 5 2.2211 5 5v30c0 2.4316-1.7132 4.4431-4 4.9062 2.847-0.471 5-2.921 5-5.906v-30c0-3.324-2.676-6-6-6h-30z" fill="url(#linearGradient4007)" opacity="0.1"/>
 <path d="m12 6c-3.324 0-6 2.676-6 6v30c0 2.9849 2.1528 5.4349 5 5.9062-2.2868-0.463-4-2.474-4-4.906v-30c0-2.779 2.2211-5 5-5h30c2.7789 0 5 2.2211 5 5v30c0 2.4316-1.7132 4.4431-4 4.9062 2.847-0.471 5-2.921 5-5.906v-30c0-3.324-2.676-6-6-6h-30z" fill="url(#linearGradient4007)" opacity="0.1"/>
 <path d="m54 48c-3.324 0-6 2.676-6 6v30c0 2.9849 2.1528 5.4349 5 5.9062-2.287-0.463-4-2.474-4-4.906v-30c0-2.7789 2.2211-5 5-5h30c2.7789 0 5 2.2211 5 5v30c0 2.4316-1.7132 4.4431-4 4.9062 2.847-0.471 5-2.921 5-5.906v-30c0-3.324-2.676-6-6-6h-30z" fill="url(#linearGradient4003)" opacity="0.1"/>
</svg>
