<?xml version="1.0" encoding="UTF-8" standalone="no"?>
<svg
   xmlns:dc="http://purl.org/dc/elements/1.1/"
   xmlns:cc="http://creativecommons.org/ns#"
   xmlns:rdf="http://www.w3.org/1999/02/22-rdf-syntax-ns#"
   xmlns:svg="http://www.w3.org/2000/svg"
   xmlns="http://www.w3.org/2000/svg"
   xmlns:xlink="http://www.w3.org/1999/xlink"
   xmlns:sodipodi="http://sodipodi.sourceforge.net/DTD/sodipodi-0.dtd"
   xmlns:inkscape="http://www.inkscape.org/namespaces/inkscape"
   height="96"
   width="96"
   id="svg208"
   version="1.1"
   inkscape:version="0.91 r13725"
   sodipodi:docname="evolution-memos.svg">
  <metadata
     id="metadata276">
    <rdf:RDF>
      <cc:Work
         rdf:about="">
        <dc:format>image/svg+xml</dc:format>
        <dc:type
           rdf:resource="http://purl.org/dc/dcmitype/StillImage" />
      </cc:Work>
    </rdf:RDF>
  </metadata>
  <sodipodi:namedview
     pagecolor="#ffffff"
     bordercolor="#666666"
     borderopacity="1"
     objecttolerance="10"
     gridtolerance="10"
     guidetolerance="10"
     inkscape:pageopacity="0"
     inkscape:pageshadow="2"
     inkscape:window-width="640"
     inkscape:window-height="480"
     id="namedview274"
     showgrid="false"
     inkscape:zoom="2.4583333"
     inkscape:cx="48"
     inkscape:cy="48"
     inkscape:current-layer="svg208" />
  <defs
     id="defs210">
    <clipPath
       id="clipPath3800">
      <path
         d="m62 6c-3.324 0-6 2.676-6 6v0.53125c0-3.6103 2.921-6.531 6.531-6.531h-0.531zm71.469 0c3.61 0 6.53 2.9207 6.53 6.531v-0.531c0-3.324-2.676-6-6-6h-0.53125zm6.53 6.531c0 36.735-3.5426 60.105-7.8438 69.938-10.82 5.031-35.68 7.531-69.629 7.531h71.469c3.324 0 6-2.676 6-6v-71.469zm-77.469 77.469c-3.61-0.006-6.531-2.921-6.531-6.531v0.531c0 3.324 2.676 6 6 6h0.53125z"
         id="path213" />
    </clipPath>
    <filter
       color-interpolation-filters="sRGB"
       id="filter3810">
      <feGaussianBlur
         stdDeviation="1.26001"
         id="feGaussianBlur216" />
    </filter>
    <linearGradient
       x1="82.08"
       x2="59.61"
       y1="82.29"
       y2="59.821"
       gradientUnits="userSpaceOnUse"
       id="linearGradient5300"
       gradientTransform="matrix(1.0059,0,0,1.0888,-0.119,-15.43)">
      <stop
         stop-color="#fff"
         id="stop219" />
      <stop
         stop-color="#fff"
         stop-opacity="0"
         offset="1"
         id="stop221" />
    </linearGradient>
    <linearGradient
       x2="0"
       y1="90"
       y2="5.988"
       gradientUnits="userSpaceOnUse"
       id="linearGradient5315"
       gradientTransform="matrix(1.0698,0,0,1.0698,-2.635,-4.145)">
      <stop
         stop-color="#e4b31e"
         id="stop224" />
      <stop
         stop-color="#ffef64"
         offset="1"
         id="stop226" />
    </linearGradient>
    <linearGradient
       x1="59.39"
       x2="110.99"
       y1="44.47"
       y2="112.41"
       gradientUnits="userSpaceOnUse"
       id="linearGradient5320"
       gradientTransform="matrix(0.71186,0,0,0.60262,2.568,7.23)">
      <stop
         stop-color="#e7ba26"
         stop-opacity="0"
         id="stop229" />
      <stop
         stop-color="#e9ab2c"
         stop-opacity="0.831"
         offset="0.484"
         id="stop231" />
      <stop
         stop-color="#eaa82e"
         offset="0.697"
         id="stop233" />
      <stop
         stop-color="#ebba3f"
         offset="0.843"
         id="stop235" />
      <stop
         stop-color="#f3e38c"
         offset="1"
         id="stop237" />
    </linearGradient>
    <linearGradient
       x1="30.906"
       x2="56.23"
       y1="993.9"
       y2="1032.6"
       gradientUnits="userSpaceOnUse"
       id="linearGradient6110"
       gradientTransform="translate(0,-956.36)">
      <stop
         stop-color="#f4d849"
         id="stop240" />
      <stop
         stop-color="#f4d849"
         stop-opacity="0"
         offset="1"
         id="stop242" />
    </linearGradient>
    <linearGradient
       inkscape:collect="always"
       xlink:href="#linearGradient14231"
       id="linearGradient14237"
       x1="50.707542"
       y1="81.682442"
       x2="50.707542"
       y2="96.539803"
       gradientUnits="userSpaceOnUse" />
    <linearGradient
       inkscape:collect="always"
       id="linearGradient14231">
      <stop
         style="stop-color:#000000;stop-opacity:1;"
         offset="0"
         id="stop14233" />
      <stop
         style="stop-color:#000000;stop-opacity:0;"
         offset="1"
         id="stop14235" />
    </linearGradient>
    <linearGradient
       inkscape:collect="always"
       xlink:href="#linearGradient14239"
       id="linearGradient14245"
       x1="49.876652"
       y1="87.937508"
       x2="49.876652"
       y2="76.719681"
       gradientUnits="userSpaceOnUse" />
    <linearGradient
       inkscape:collect="always"
       id="linearGradient14239">
      <stop
         style="stop-color:#ffffff;stop-opacity:1;"
         offset="0"
         id="stop14241" />
      <stop
         style="stop-color:#ffffff;stop-opacity:0;"
         offset="1"
         id="stop14243" />
    </linearGradient>
  </defs>
  <rect
     style="fill-opacity:0.02000002"
     id="rect246"
     width="89.620003"
     height="89.980003"
     y="2.9899757"
     rx="12.724"
     x="3.3529999" />
  <rect
     style="fill-opacity:0.03900003"
     id="rect248"
     width="88.410004"
     height="88.760002"
     y="3.6000221"
     rx="12.552"
     x="3.9590001" />
  <rect
     style="fill-opacity:0.078"
     id="rect250"
     width="87.199997"
     height="87.550003"
     y="4.2100072"
     rx="12.38"
     x="4.5640001" />
  <rect
     style="fill-opacity:0.15700001"
     id="rect252"
     width="85.990997"
     height="86.330002"
     y="4.8199925"
     rx="12.208"
     x="5.1700001" />
  <path
     inkscape:connector-curvature="0"
     style="fill:url(#linearGradient5315)"
     id="path254"
     d="m 17.75,5.4062 c -6.642,0 -11.969,5.3948 -11.969,12.063 l 2e-4,61.031 c 0,6.668 5.3268,12.031 11.969,12.031 l 60.812,0 c 6.642,0 11.969,-5.363 11.969,-12.031 l 0,-61.031 c 0,-6.668 -5.327,-12.063 -11.969,-12.063 l -60.812,2e-4 z" />
  <path
     inkscape:connector-curvature="0"
     style="fill:url(#linearGradient6110)"
     id="path258"
     d="M 17.75,5.41 C 11.6617,5.41 6.695,9.956 5.906,15.848 l 0,60.188 c 0,3.619 2.6877,6.5312 6.0312,6.5312 l 72.438,0 c 3.3436,0 6.0312,-2.9122 6.0312,-6.5312 l 0,-60.188 C 89.6181,9.9565 84.651,5.41 78.5624,5.41 l -60.812,0 z" />
  <path
     style="opacity:0.5;fill:#4d4d4d;filter:url(#filter3810)"
     inkscape:connector-curvature="0"
     id="path262"
     transform="matrix(1.0059,0,0,1.0888,-50.41,-15.43)"
     clip-path="url(#clipPath3800)"
     d="m 56,83.483 c 0,3.6105 2.9067,6.5117 6.5172,6.5172 33.948,0 61.157,0.16315 73.402,-3.7963 25.12,-103.09 -79.92,-119.17 -79.92,-2.721 z" />
  <path
     inkscape:connector-curvature="0"
     style="opacity:0.5;fill:url(#linearGradient5300)"
     id="path264"
     d="m 87.959,-7.33 c 0.90031,1.2147 1.446,2.7717 1.446,4.4571 0,39.995 -3.5635,65.44 -7.89,76.146 -10.88,5.4773 -35.887,8.1996 -70.035,8.1996 -1.5571,0 -2.9957,-0.591 -4.1179,-1.5651 1.1995,1.6174 3.0491,2.6506 5.1238,2.6539 34.148,0 59.155,-2.7223 70.035,-8.1996 4.3264,-10.706 7.89,-36.15 7.89,-76.146 0,-2.2456 -0.95668,-4.2475 -2.4519,-5.5459 z" />
  <path
     style="opacity:0.1"
     inkscape:connector-curvature="0"
     id="path266"
     d="m 90.379,5.57 c -0.40767,35.77 -3.8038,58.763 -7.8585,68.797 -10.2,5.135 -32.821,7.8448 -63.748,8.1657 31.047,-0.1088 55.003,-1.0956 65.194,-6.2265 4.0561,-10.036 6.1646,-34.732 6.4126,-70.736 z" />
  <path
     inkscape:connector-curvature="0"
     style="fill:url(#linearGradient5320)"
     id="path268"
     d="m 12.645,10.24 c -3.6106,0 -6.5172,2.4606 -6.5172,5.5171 l 0,60.075 c 0,3.0566 2.9067,5.5125 6.5172,5.5172 33.948,0 58.836,-2.1294 69.652,-6.3882 4.3011,-8.3239 7.8305,-28.107 7.8305,-59.204 0,-3.0565 -2.9067,-5.5171 -6.5172,-5.5171 l -70.966,0 z" />
  <path
     style="opacity:0.35;fill:#ffffff"
     inkscape:connector-curvature="0"
     id="path270"
     d="m 17.762,4.84 c -3.3787,0 -12.099,2.676 -12.099,6 l 0,6 85.381,0 0,-6 c 0,-3.324 -8.72,-6 -12.099,-6 z" />
  <path
     style="opacity:0.9"
     inkscape:connector-curvature="0"
     id="path272"
     d="m 12.332,57.24 c -0.10542,-0.4889 -0.11758,-0.8679 -0.03649,-1.1367 0.08109,-0.269 0.30709,-0.6398 0.67805,-1.1125 0.37096,-0.4727 0.8392,-0.7627 1.4047,-0.8701 0.5656,-0.1069 0.73318,0.1926 0.50309,0.8995 -0.23012,0.707 -0.25721,1.3417 -0.08131,1.9042 0.17594,0.5625 0.58022,0.8796 1.213,0.9513 0.63275,0.072 1.2323,-0.1638 1.7987,-0.7063 0.56639,-0.5425 1.1966,-1.2834 1.8906,-2.2225 0.69406,-0.939 1.3459,-2.0563 1.9556,-3.3516 0.60965,-1.2954 1.0874,-2.5452 1.4332,-3.7494 0.34582,-1.2041 0.58544,-2.3011 0.71888,-3.291 0.13341,-0.98975 0.12578,-1.9224 -0.02291,-2.7979 -0.14875,-0.87542 -0.62973,-1.5947 -1.4431,-2.1579 -0.81339,-0.56311 -1.3039,-1.0968 -1.4716,-1.601 -0.16767,-0.50418 -0.03052,-1.0864 0.4115,-1.7466 1.034,-0.32348 1.8429,-0.22866 2.427,0.28443 0.58401,0.51315 1.1345,1.0541 1.6516,1.623 0.51703,0.56889 0.99185,1.164 1.4245,1.7854 0.43258,0.62138 0.85848,1.1753 1.2777,1.6616 0.41918,0.48643 0.77448,1.0102 1.0659,1.5714 0.29138,0.56127 0.66632,1.13957 1.1248,1.73557 0.45847,0.5958 0.88912,1.2396 1.292,1.9311 0.40281,0.6916 0.7209,0.6312 0.9543,-0.1811 0.23333,-0.8123 0.66398,-1.8778 1.292,-3.19617 0.62792,-1.3185 1.1795,-2.4392 1.6547,-3.362 0.47517,-0.92278 1.0313,-1.8666 1.6685,-2.8313 0.63709,-0.96474 1.3098,-1.8624 2.0181,-2.6928 0.70824,-0.83043 1.5312,-1.6359 2.4688,-2.4163 0.9376,-0.78043 1.8268,-1.2935 2.6677,-1.5392 0.84079,-0.24562 1.6635,-0.35082 2.4681,-0.31554 0.80452,0.0354 1.4911,0.15104 2.0599,0.34709 0.56866,0.19612 1.0699,0.50465 1.5037,0.92557 0.43372,0.42099 0.84688,1.2659 1.2395,2.5347 -0.07421,0.6147 -0.28154,0.94921 -0.622,1.0035 -0.34054,0.0544 -0.63318,-0.26287 -0.87794,-0.95173 -0.24482,-0.68881 -0.65601,-1.1908 -1.2336,-1.5059 -0.57761,-0.31506 -1.1201,-0.50629 -1.6275,-0.57372 -0.50744,-0.0673 -1.1442,-0.0508 -1.9102,0.0497 -0.76611,0.10054 -1.4676,0.38525 -2.1044,0.85412 -0.63692,0.46894 -1.2901,1.0995 -1.9595,1.8917 -0.66946,0.79225 -1.4407,1.7511 -2.3136,2.8766 -0.873,1.1256 -1.6676,2.3962 -2.3839,3.8119 -0.7163,1.4158 -1.2716,2.69848 -1.6659,3.84808 -0.39438,1.1499 -0.72288,2.2398 -0.98553,3.2701 -0.26268,1.0303 -0.37268,2.0736 -0.32994,3.1301 0.0427,1.0565 0.01215,2.088 -0.09166,3.0947 -0.10384,1.0067 -0.36154,1.8353 -0.7731,2.486 -0.85733,0.1291 -1.3604,0 -1.5093,-0.3759 -0.14898,-0.3796 -0.16434,-0.8575 -0.04613,-1.4337 0.11813,-0.5762 0.16094,-1.2724 0.12841,-2.0885 -0.0326,-0.8161 -0.1491,-1.6365 -0.34955,-2.461 -0.20046,-0.8244 -0.55098,-1.6237 -1.0517,-2.3978 -0.5007,-0.7739 -0.9515,-1.4158 -1.3524,-1.9253 -0.40093,-0.5095 -0.79636,-0.912 -1.1863,-1.2074 -0.38995,-0.2955 -0.68686,-0.1896 -0.89072,0.3177 -0.20389,0.5075 -0.49071,1.2626 -0.86043,2.2655 -0.36976,1.0029 -0.86924,2.1029 -1.4985,3.3 -0.62923,1.1971 -1.4982,2.5997 -2.6069,4.2079 -1.1087,1.608 -2.1893,2.7897 -3.2415,3.5452 -1.0523,0.7554 -1.9762,1.1314 -2.7717,1.1281 -0.7955,0 -1.4033,-0.235 -1.8233,-0.695 -0.42002,-0.4601 -0.84394,-1.2408 -1.2718,-2.342 m 27.668,-6.2821 c 0.35195,0.3074 0.70882,0.4132 1.0707,0.3174 0.36195,-0.096 0.67063,-0.3059 0.92667,-0.6292 0.25595,-0.3236 0.57229,-0.6531 0.94907,-0.9883 0.37675,-0.3354 0.72854,-0.7152 1.0554,-1.1391 0.3268,-0.4241 0.42681,-0.86 0.30005,-1.3074 -0.12673,-0.4474 -0.38486,-0.745 -0.77432,-0.8927 -0.3895,-0.1479 -0.61195,-0.4219 -0.66735,-0.822 -0.05545,-0.4002 0.03712,-0.7161 0.27768,-0.948 0.24055,-0.2318 0.68548,-0.458 1.3348,-0.6785 0.72498,-0.07 1.245,0.1584 1.56,0.6861 0.31502,0.5277 0.45527,1.0666 0.42074,1.6167 -0.03455,0.55 0.30887,0.9297 1.0303,1.1389 0.72138,0.2091 1.3023,0.171 1.7428,-0.1148 0.44048,-0.2857 0.75442,-0.2147 0.94213,0.2142 0.05978,0.5031 0.01578,0.83 -0.1319,0.9805 -0.1477,0.1507 -0.47634,0.3492 -0.98588,0.5955 -0.50966,0.2461 -1.1968,0.2748 -2.0619,0.084 -0.86504,-0.1904 -1.421,-0.1081 -1.6679,0.2478 -0.24688,0.3556 -0.63192,0.837 -1.1551,1.4442 -0.52321,0.6074 -1.0588,1.1272 -1.6067,1.5596 -0.54791,0.4323 -1.2172,0.7721 -2.0079,1.0195 -0.8023,-0.027 -1.4313,-0.261 -1.8871,-0.7012 -0.45576,-0.4402 -0.77416,-0.9797 -0.95523,-1.6189 -0.05073,-0.4713 0.12558,-1.0614 0.52893,-1.7703 0.40335,-0.709 0.80878,-1.3229 1.2163,-1.8419 0.40754,-0.5189 0.84983,-0.9442 1.3269,-1.2761 0.47703,-0.3321 0.85636,-0.4247 1.138,-0.2777 0.28158,0.1467 0.50072,0.3651 0.65741,0.6553 0.15674,0.2902 0.19754,0.5513 0.12262,0.7836 -0.07494,0.2321 -0.22878,0.4194 -0.46154,0.5619 -0.23268,0.1428 -0.55494,0.3346 -0.96647,0.5764 -0.41163,0.2415 -0.81429,0.6461 -1.2082,1.2129 -0.39392,0.567 -0.41495,1.004 -0.06303,1.3114 m 9.7057,-3.428 c 0.02984,-0.479 0.10989,-0.9998 0.24019,-1.5624 0.13028,-0.5626 0.54538,-1.4493 1.2453,-2.65988 0.69991,-1.2105 1.1761,-2.2467 1.4285,-3.1085 -0.67227,0.31476 -1.1251,0.51294 -1.3586,0.59467 -0.23352,0.0813 -0.41594,-0.0221 -0.54756,-0.31142 -0.13164,-0.28933 -0.12657,-0.53447 0.01515,-0.73537 0.14172,-0.20091 0.46849,-0.42056 0.98031,-0.65899 0.51181,-0.23844 1.0408,-0.50393 1.5869,-0.79658 0.73356,-1.3254 1.3375,-2.3929 1.8117,-3.2023 0.4742,-0.8094 0.98045,-1.681 1.5187,-2.6149 0.53827,-0.93383 1.0714,-1.7399 1.5993,-2.4183 0.52788,-0.67833 1.0328,-1.1016 1.5149,-1.2698 0.40206,0.30913 0.29852,0.98082 -0.31061,2.0151 -0.60916,1.0343 -1.0846,1.8832 -1.4263,2.5468 -0.34173,0.66361 -0.67009,1.3013 -0.9851,1.913 -0.31502,0.61177 -0.66864,1.3356 -1.0608,2.1715 0.71791,-0.32892 1.7932,-0.81328 3.2259,-1.4529 1.4327,-0.6396 2.9031,-1.2779 4.411,-1.915 1.5079,-0.63705 3.0329,-1.2577 4.575,-1.862 1.542,-0.60422 3.065,-1.159 4.5689,-1.6643 1.5039,-0.50529 3.0788,-0.99363 4.7247,-1.4652 1.6459,-0.47141 2.9967,-0.81581 4.0525,-1.0331 1.0558,-0.21723 1.967,-0.14135 2.7337,0.22762 -0.5646,0.40281 -1.1156,0.64911 -1.6529,0.73893 -0.5374,0.0899 -1.1082,0.20758 -1.7125,0.35315 -0.60435,0.14565 -1.3175,0.36 -2.1394,0.64324 -0.82193,0.28326 -1.8164,0.62918 -2.9835,1.0379 -1.1671,0.40871 -2.4175,0.83028 -3.751,1.265 -1.3336,0.43467 -2.6714,0.92718 -4.0135,1.4775 -1.3422,0.55041 -2.6136,1.0874 -3.8143,1.6109 -1.2008,0.52357 -2.4544,1.0506 -3.7607,1.5811 -1.3064,0.53051 -2.2352,0.90376 -2.7865,1.1197 -0.55128,0.21603 -1.0026,0.40504 -1.3539,0.56713 -0.35135,0.16213 -0.6279,0.33997 -0.82963,0.53354 -0.20174,0.1936 -0.4017,0.45188 -0.59988,0.77481 -0.1982,0.32296 -0.43499,0.758 -0.71036,1.3052 -0.27539,0.54715 -0.58676,1.2448 -0.93418,2.0927 -0.3474,0.84815 -0.66113,1.58115 -0.94122,2.19935 -0.28009,0.6182 -0.45139,1.1676 -0.51388,1.6481 -0.06251,0.4806 0.02106,0.8633 0.25068,1.148 0.22966,0.2848 0.54472,0.4037 0.94524,0.3567 0.40051,-0.047 1.085,-0.4356 2.0538,-1.1645 0.96868,-0.7292 1.6381,-1.3171 2.0083,-1.7633 0.37013,-0.4464 0.66173,-0.7463 0.87479,-0.9 0.21313,-0.1533 0.41011,-0.1592 0.59152,-0.016 0.18131,0.1434 0.08444,0.5174 -0.29058,1.1216 -0.37503,0.6045 -0.72626,1.0884 -1.0537,1.4518 -0.32744,0.3634 -0.71644,0.7286 -1.167,1.0957 -0.45052,0.3672 -0.98155,0.6985 -1.593,0.9942 -0.39233,0.1927 -0.77112,0.3457 -1.136,0.4599 -0.22809,0.072 -0.45166,0.1294 -0.66823,0.183 -0.59603,0.1164 -1.0879,0.1185 -1.4759,0 -0.38803,-0.1138 -0.68508,-0.3294 -0.8911,-0.6476 -0.21218,-0.2816 -0.35449,-0.5502 -0.4269,-0.8058 -0.0047,-0.016 -0.0041,-0.043 0.0025,-0.08 -0.07695,-0.2716 -0.1005,-0.6469 -0.07068,-1.1259 m 9.8101,-4.37405 c 0.83699,-0.60979 1.3706,-1.1073 1.6008,-1.4925 0.23025,-0.38506 0.28861,-0.69037 0.17509,-0.91579 -0.11354,-0.22541 -0.36976,-0.13659 -0.76868,0.2666 -0.39896,0.40309 -0.64849,0.76393 -0.74869,1.0822 -0.10017,0.31838 -0.18634,0.67156 -0.25853,1.0595 m -1.559,2.20994 c -0.23539,-0.8309 -0.31762,-1.501 -0.24672,-2.01034 0.07092,-0.50929 0.26276,-1.0738 0.57552,-1.6935 0.31274,-0.61973 0.6436,-1.1756 0.99257,-1.6675 0.34897,-0.49188 0.74103,-0.87549 1.1762,-1.1508 l 0.51779,-0.18811 c 0.4759,-0.13146 0.92492,-0.12411 1.3471,0.0222 0.42214,0.14627 0.69827,0.55127 0.82841,1.2152 0.13012,0.66379 -0.01556,1.3182 -0.437,1.9633 -0.42149,0.64497 -0.95248,1.1808 -1.5931,1.6074 -0.64063,0.42655 -0.96376,0.73195 -0.96945,0.91645 -0.0056,0.1845 0.16036,0.3324 0.49831,0.4442 0.33787,0.1115 1.0051,0.042 2.0017,-0.2088 0.99648,-0.2512 1.7828,-0.5578 2.3587,-0.9206 0.57589,-0.36274 1.0305,-0.70078 1.364,-1.01387 0.33341,-0.31304 0.6013,-0.53605 0.80369,-0.66892 0.20225,-0.13328 0.41488,-0.0693 0.63783,0.1918 -0.22783,0.71503 -0.53786,1.286 -0.92998,1.71319 -0.39217,0.4271 -0.91009,0.8631 -1.5538,1.3079 -0.64366,0.445 -1.4681,0.8508 -2.4733,1.2176 l -0.61582,0.1926 c -1.1417,0.2355 -1.9347,0.3139 -2.379,0.2355 -0.44434,-0.078 -0.8114,-0.2202 -1.1012,-0.4252 -0.28986,-0.2051 -0.55733,-0.565 -0.80247,-1.0797 m 10.405,-3.02049 c 0.29095,0.41352 0.64288,0.51641 1.0559,0.30899 0.41297,-0.20752 0.76419,-0.48697 1.0536,-0.83847 0.29473,-0.36193 0.56048,-0.84082 0.79721,-1.4368 0.23447,-0.6039 0.304,-0.98663 0.20858,-1.1482 -0.70247,0.96783 -1.2805,1.6445 -1.7341,2.03 -0.44602,0.38304 -0.9064,0.7446 -1.3812,1.0844 m -2.5978,-0.36139 c -0.12964,-0.51621 -0.19115,-0.92308 -0.1845,-1.221 0.0066,-0.29779 0.09528,-0.52559 0.2658,-0.68324 0.1705,-0.15777 0.41234,-0.26821 0.72549,-0.33141 0.31306,-0.0636 0.69402,0.40476 1.1426,1.4038 0.6024,-0.32767 1.1004,-0.68781 1.494,-1.0807 0.39361,-0.39274 0.7678,-0.76637 1.1226,-1.121 0.35252,-0.36244 0.77385,-0.7596 1.264,-1.1913 0.49018,-0.43162 0.93554,-0.87545 1.3361,-1.3313 0.39829,-0.46387 0.67721,-0.88165 0.83676,-1.2534 0.15727,-0.37972 0.25372,-0.74042 0.28936,-1.0821 0.03336,-0.34965 0.18431,-0.60563 0.45285,-0.76795 0.34427,-0.0994 0.61677,-0.10156 0.81717,-0.008 0.19812,0.0859 0.38863,0.37855 0.57151,0.87799 0.04814,0.2285 0.05717,0.46487 0.02708,0.70912 -0.03016,0.24427 -0.15804,0.56693 -0.38372,0.96813 -0.22037,0.39076 -0.47824,0.73678 -0.77365,1.0379 -0.29007,0.29082 -0.60949,0.63864 -0.95828,1.0435 -0.34121,0.40246 -0.66018,0.89801 -0.95691,1.4866 -0.28912,0.58635 -0.46761,1.1249 -0.53546,1.6158 -0.0625,0.48055 -0.14279,0.92752 -0.24088,1.3409 -0.10034,0.40542 -0.3203,0.783 -0.65988,1.1327 -0.34183,0.34182 -0.92678,0.67272 -1.7548,0.99272 -0.56724,0.1597 -1.0295,0.2225 -1.3874,0.1861 -0.35779,-0.036 -0.80659,-0.3347 -1.3465,-0.8965 -0.53981,-0.5616 -0.92763,-1.17102 -1.1634,-1.82782" />
  <g
     id="g14291">
    <path
       d="m 5.2922679,73.685059 0,5.0663 c 0,6.668 5.3645011,12.032 12.0320011,12.032 l 61.049,0 c 6.668,0 12.032,-5.3645 12.032,-12.032 l 0,-5.0663 c 0,6.6681 -5.3645,12.032 -12.032,12.032 l -61.049,0 c -6.668,0 -12.0320011,-5.3643 -12.0320011,-12.032 z"
       id="path64"
       inkscape:connector-curvature="0"
       style="opacity:0.4;fill:url(#linearGradient14237);fill-opacity:1" />
    <path
       inkscape:connector-curvature="0"
       id="path14214"
       d="m 5.2929688,72.717592 0,1.15039 c 0,6.667718 5.3632502,12.031248 12.0312502,12.031248 l 61.048828,0 c 6.6675,0 12.03125,-5.36313 12.03125,-12.031248 l 0,-1.15039 c 0,6.668098 -5.36375,12.031248 -12.03125,12.031248 l -61.048828,0 c -6.668,0 -12.0312502,-5.36355 -12.0312502,-12.031248 z"
       style="opacity:0.5;fill:url(#linearGradient14245);fill-opacity:1" />
  </g>
</svg>
