<svg height="96" width="96" xmlns="http://www.w3.org/2000/svg" xmlns:xlink="http://www.w3.org/1999/xlink" xmlns:sodipodi="http://sodipodi.sourceforge.net/DTD/sodipodi-0.dtd" xmlns:inkscape="http://www.inkscape.org/namespaces/inkscape">
 <defs>
  <linearGradient x2="0" y1="90" y2="5.988" gradientUnits="userSpaceOnUse" id="linearGradient48787" gradientTransform="matrix(1.1726 0 0 1.1726 -9.989 -14.04)">
   <stop stop-color="#a0a0a0"/>
   <stop stop-color="#dcdcdc" offset="1"/>
  </linearGradient>
  <linearGradient id="linearGradient3798">
   <stop stop-color="#333"/>
   <stop stop-color="#333" stop-opacity="0" offset="1"/>
  </linearGradient>
  <linearGradient x2="0" xlink:href="#linearGradient3798" y1="51.42" y2="81.919" gradientUnits="userSpaceOnUse" id="linearGradient86278"/>
  <linearGradient x2="0" xlink:href="#linearGradient3798" y1="61.19" y2="81.965" gradientUnits="userSpaceOnUse" id="linearGradient86280"/>
  <linearGradient x2="0" xlink:href="#linearGradient3798" y1="35.764" y2="57.41" gradientUnits="userSpaceOnUse" id="linearGradient86282"/>
  <linearGradient x2="0" xlink:href="#linearGradient3798" y1="39.726" y2="62.845" gradientUnits="userSpaceOnUse" id="linearGradient86284"/>
  <linearGradient x1="39.562" x2="56.44" gradientUnits="userSpaceOnUse" id="linearGradient86387" gradientTransform="matrix(1 0 0 1 -0.516 954.86)">
   <stop stop-color="#d40000"/>
   <stop stop-color="#e10000" offset="0.534"/>
   <stop stop-color="#820000" offset="1"/>
  </linearGradient>
  <linearGradient x1="39.574" x2="56.43" gradientUnits="userSpaceOnUse" id="linearGradient86389" gradientTransform="matrix(1 0 0 1 -0.516 954.86)">
   <stop stop-color="#fff"/>
   <stop stop-color="#d1b3b3" offset="1"/>
  </linearGradient>
  <linearGradient x1="47.29" x2="46.532" y1="16.204" y2="80.964" gradientUnits="userSpaceOnUse" id="linearGradient86391" gradientTransform="matrix(1.6385 0 0 1 -29.569 954.86)">
   <stop stop-color="#fff"/>
   <stop stop-color="#fff" stop-opacity="0" offset="1"/>
  </linearGradient>
 </defs>
 <g transform="matrix(1 0 0 1 0 -956.36)">
  <rect x="3.608" rx="12.552" y="959.96" fill-opacity="0.039" height="88.76" width="88.76"/>
  <rect x="4.216" rx="12.38" y="960.57" fill-opacity="0.078" height="87.55" width="87.55"/>
  <rect x="4.824" rx="12.208" y="961.18" fill-opacity="0.157" height="86.33" width="86.33"/>
  <path d="m17.469 5.4062c-6.668 0-12.032 5.3948-12.032 12.063l0.0005 61.031c0 5.418 3.5332 9.982 8.4375 11.5h68.187c4.715-1.457 8.172-5.734 8.438-10.875v-62.281c-0.321-6.377-5.54-11.438-12-11.438l-61.031 0.0002z" fill="url(#linearGradient48787)" transform="matrix(1 0 0 1 0 956.36)"/>
  <path d="m5.4316 1029.8v5.0663c0 6.668 5.3645 12.032 12.032 12.032h61.049c6.668 0 12.032-5.3645 12.032-12.032v-5.0663c0 6.6681-5.3645 12.032-12.032 12.032h-61.049c-6.668 0-12.032-5.3643-12.032-12.032z" fill-opacity="0.235"/>
  <path d="m5.4316 1033.9v1.0133c0 6.668 5.3645 12.032 12.032 12.032h61.049c6.668 0 12.032-5.3645 12.032-12.032v-1.0133c0 6.6681-5.3645 12.032-12.032 12.032h-61.049c-6.668 0-12.032-5.3644-12.032-12.032z" fill-opacity="0.098"/>
  <g transform="matrix(1 0 0 1 -0.516 954.86)">
   <path d="m16 40c-4.4183 0-8 3.5817-8 8 0 3.0376 1.6937 5.6765 4.1875 7.0312-0.30913 0.33494-0.60286 0.67288-0.84375 1.0625-1.9378 0.255-3.7428 0.908-5.344 1.875v23.781c2.0897 1.2649 4.5356 2 7.1562 2 4.4258 0 8.3635-2.0872 10.906-5.3125 0.97961 0.50733 2.0707 0.78125 3.25 0.78125 0.60431 0 1.1897-0.07711 1.75-0.21875-0.01926 0.2242-0.03125 0.45831-0.03125 0.6875 0 4.3325 3.5112 7.8438 7.8438 7.8438 4.1158 0 7.4851-3.1873 7.8125-7.2188 0.01064 0.000097 0.02059 0 0.03125 0 1.8924 0 3.4375-1.5451 3.4375-3.4375s-1.5451-3.4062-3.4375-3.4062c-0.82791 0-1.564 0.29245-2.1562 0.78125-0.05084-0.05316-0.10395-0.10453-0.15625-0.15625 0.76316-0.79408 1.25-1.8742 1.25-3.0625 0-2.4402-1.9973-4.4375-4.4375-4.4375s-4.4062 1.9973-4.4062 4.4375c0 0.37349 0.069 0.7161 0.15625 1.0625-0.17247 0.04334-0.36353 0.07046-0.53125 0.125 0.000687-0.04075 0-0.08409 0-0.125 0-2.9506-1.7871-5.4811-4.3438-6.5625-0.28074-2.409-1.9761-4.3993-4.2188-5.125 2.3081-0.38197 4.0625-2.3961 4.0625-4.8125 0-2.6892-2.1858-4.8438-4.875-4.8438-0.58388 0-1.1375 0.12406-1.6562 0.3125 0.389-0.94 0.595-1.982 0.595-3.062 0-4.418-3.582-8-8-8zm65.594 16.875c-2.2284 0-4.1357 1.3135-5 3.2188-1.0027-0.33356-2.0727-0.53125-3.1875-0.53125-1.5308 0-2.9812 0.3592-4.2812 0.96875-0.359-1.184-1.448-2.031-2.75-2.031-1.5936 0-2.9062 1.2814-2.9062 2.875 0 1.1304 0.67829 2.0892 1.625 2.5625-0.83976 1.2134-1.4142 2.6058-1.6562 4.125-2.5284 0.03656-4.7678 1.1634-6.3125 2.9375-0.3096-0.0411-0.61666-0.0625-0.9375-0.0625-3.9341 0-7.125 3.1909-7.125 7.125s3.1909 7.125 7.125 7.125c1.2794 0 2.4622-0.34698 3.5-0.9375 1.0021 0.51277 2.0989 0.82498 3.2812 0.90625-0.746 1.479-1.239 3.12-1.407 4.844h22.438c3.324 0 6-2.676 6-6v-23.188c-0.67861-0.33409-1.4428-0.53125-2.25-0.53125-0.3447 0-0.70556 0.06029-1.0312 0.125-0.7888-2.0716-2.7765-3.5312-5.125-3.5312zm-49.938 2.3438c-1.245 0-2.25 1.005-2.25 2.25s1.005 2.25 2.25 2.25 2.25-1.005 2.25-2.25-1.005-2.25-2.25-2.25z" fill="url(#linearGradient86278)" color="#000000" opacity="0.15"/>
   <path d="m12.438 60.656c-1.2948 0-2.3438 1.049-2.3438 2.3438s1.049 2.3438 2.3438 2.3438 2.3438-1.049 2.3438-2.3438-1.049-2.3438-2.3438-2.3438zm8.656 2.344c-0.69719 0-1.25 0.55281-1.25 1.25s0.55281 1.2812 1.25 1.2812 1.2812-0.58406 1.2812-1.2812c0-0.69719-0.58406-1.25-1.2812-1.25zm54.188 1.4375c-1.9422 0-3.5 1.5891-3.5 3.5312 0 0.34682 0.06271 0.65226 0.15625 0.96875-2.0727 0.49773-3.7192 2.0781-4.2812 4.125-0.82356-0.32183-1.7187-0.5-2.6562-0.5-3.8655 0-6.9928 3.0122-7.25 6.8125-0.40844-1.4356-1.7147-2.5-3.2812-2.5-0.47309 0-0.93382 0.10786-1.3438 0.28125-0.64533-0.60642-1.4821-1-2.4375-1-1.624 0-2.9855 1.0866-3.4375 2.5625-0.42679-1.1797-1.5481-2-2.875-2-1.2542 0-2.3377 0.73384-2.8125 1.8125-0.90439-1.2093-2.3425-2-3.9688-2-0.69981 0-1.365 0.14474-1.9688 0.40625 0.05454-0.34111 0.09375-0.67478 0.09375-1.0312 0-3.6353-2.9584-6.5938-6.5938-6.5938-0.59484 0-1.1707 0.07084-1.7188 0.21875 0.000094-0.01072 0-0.0205 0-0.03125 0-1.992-1.6018-3.625-3.5938-3.625-1.541 0-2.8584 0.984-3.375 2.3438-0.95934-1.5122-2.6391-2.5312-4.5625-2.5312-2.988 0-5.4062 2.4495-5.4062 5.4375 0 0.3325 0.03632 0.65282 0.09375 0.96875-2.1514 1.9469-3.5312 4.7136-3.5312 7.8438 0 4.6487 2.9971 8.6098 7.1562 10.062h7c3.4053-1.189 6.0133-4.0625 6.8438-7.625 0.35785 0.06023 0.71877 0.09375 1.0938 0.09375 1.3005 0 2.5104-0.3804 3.5312-1.0312-0.000068 0.01068 0 0.02055 0 0.03125 0 2.739 2.1985 4.9688 4.9375 4.9688 2.499 0 4.5632-1.8458 4.9062-4.25 0.51808 0.40049 1.1695 0.65625 1.875 0.65625 1.3269 0 2.4482-0.85159 2.875-2.0312 0.44764 1.483 1.8085 2.5625 3.4375 2.5625 0.58943 0 1.1337-0.15554 1.625-0.40625 0.58724 0.47224 1.344 0.78125 2.1562 0.78125 1.6454 0 3.013-1.1721 3.3438-2.7188 0.56141 3.4758 3.5533 6.125 7.1875 6.125 2.064 0 3.9529-0.84226 5.2812-2.2188 0.35655 2.0635 1.4917 3.8482 3.0938 5.0625h9.8125c1.3855-1.0572 2.4283-2.552 2.9062-4.2812 0.03208 0.000336 0.06159 0 0.09375 0 1.3421 0 2.6039-0.31965 3.75-0.84375 0.042-0.283 0.064-0.58 0.064-0.875v-15.469c-0.90157-0.42303-1.8723-0.711-2.9062-0.8125 0.0029-0.04255 0-0.08173 0-0.125 0-1.0458-0.82922-1.9062-1.875-1.9062s-1.9062 0.86047-1.9062 1.9062c0 0.19608 0.03842 0.38462 0.09375 0.5625-2.0379 0.6682-3.7672 2.0208-4.875 3.8125-0.25392-0.49574-0.59024-0.94235-0.96875-1.3438 0.75727-0.64502 1.25-1.5836 1.25-2.6562 0-1.9422-1.5891-3.5312-3.5312-3.5312z" fill="url(#linearGradient86280)" color="#000000" opacity="0.3"/>
   <path d="m26.875 35.594c-1.7928 0-3.25 1.4572-3.25 3.25 0 1.3028 0.76751 2.3894 1.875 2.9062-1.682 1.1536-2.7812 3.0876-2.7812 5.2812 0 0.6057 0.09281 1.1946 0.25 1.75-0.535-0.222-1.11-0.377-1.719-0.406 0.0059-0.08322 0.03125-0.16528 0.03125-0.25 0-1.9422-1.5891-3.5312-3.5312-3.5312-1.9422 0-3.5 1.5891-3.5 3.5312 0 1.4415 0.88372 2.6758 2.125 3.2188-0.31433 0.66519-0.5 1.403-0.5 2.1875 0 2.8386 2.2864 5.125 5.125 5.125s5.1562-2.2864 5.1562-5.125c0-0.29925-0.04467-0.58976-0.09375-0.875 0.90712 0.49278 1.9576 0.78125 3.0625 0.78125 3.5357 0 6.4062-2.8705 6.4062-6.4062 0-3.3883-2.6377-6.1495-5.9688-6.375 0.35001-0.51808 0.5625-1.1402 0.5625-1.8125 0-1.7928-1.4572-3.25-3.25-3.25z" fill="url(#linearGradient86282)" color="#000000" opacity="0.2"/>
   <path d="m72.031 39.719c-1.0458 0-1.875 0.86047-1.875 1.9062 0 1.0458 0.82922 1.9062 1.875 1.9062s1.9062-0.86047 1.9062-1.9062c0-1.0458-0.86047-1.9062-1.9062-1.9062zm-3.593 6.156c-2.4402 0-4.4062 1.9661-4.4062 4.4062 0 2.4402 1.9661 4.4062 4.4062 4.4062 0.06281 0 0.12533 0.0026 0.1875 0-0.409 0.975-0.626 2.034-0.626 3.157 0 4.5317 3.6558 8.2188 8.1875 8.2188 3.8777 0 7.1116-2.6968 7.9688-6.3125 2.5305-0.06771 4.5625-2.1407 4.5625-4.6875 0-2.5896-2.0979-4.6875-4.6875-4.6875-0.3237 0-0.63227 0.03129-0.9375 0.09375 0.14146-0.36428 0.21875-0.77323 0.21875-1.1875 0-1.7928-1.4572-3.25-3.25-3.25s-3.25 1.4572-3.25 3.25c0 0.13849 0.01442 0.27233 0.03125 0.40625-0.216-0.01705-0.43587-0.03125-0.65625-0.03125-1.1974 0-2.3181 0.28896-3.3438 0.75 0.0012-0.04159 0-0.08313 0-0.125 0-2.4402-1.9661-4.4062-4.4062-4.4062z" fill="url(#linearGradient86284)" color="#000000" opacity="0.2"/>
  </g>
  <path d="m46.984 968.89a0.92452 0.92452 0 0 0 -0.0625 0.031c-1.3257 0.3698-2.1278 1.35-2.6875 2.3125-0.55971 0.9624-0.95803 1.9578-1.4062 2.5937a0.92452 0.92452 0 0 0 -0.0625 0.094c-5.9566 11.421-7.897 24.793-5.8125 37.469-5.2351 5.6807-8.6595 13.272-8.4375 21.125a0.92452 0.92452 0 0 0 0 0.031c0.30884 5.1009 6.6595 8.1037 10.812 5.125 0.0272-0.019 0.0667-0.011 0.0937-0.031l-0.0313-0.031c1.6676-1.0335 2.5471-2.6283 2.875-4.2812 0.30722-1.5487 0.1855-3.1315 0.0313-4.5625 0.21217 0.046 0.41204 0.084 0.6875 0.125 0.29418 0.044 0.66602-0.022 1.0312-0.094v0.063c2.8584-0.039 5.7843 0.062 8.7188-0.063 0.009 0.2133-0.004 0.5175-0.0625 0.9688-0.0711 0.5527-0.17575 1.2061-0.21875 1.8437-0.0381 0.5644 0.0154 1.1166 0.21875 1.6875h-0.0313c0.0117 0.068 0.0488 0.1207 0.0625 0.1875 0.002 0.01-0.002 0.021 0 0.031 1.0228 4.8587 7.4333 7.0542 11.188 3.7187 0.018-0.016 0.0447-0.015 0.0625-0.031l-0.0313-0.031c1.7009-1.3611 2.3756-3.2517 2.5-5.125 0.12577-1.8945-0.21936-3.8074-0.5-5.4375a0.92452 0.92452 0 0 0 0 -0.031c-1.1141-5.7008-3.9765-10.942-7.875-15.188 2.2864-14.092-0.29413-29.154-8.0938-41.25a0.92452 0.92452 0 0 0 -0.0625 -0.063c-0.67166-0.8592-1.7306-1.3033-2.8125-1.1875a0.92452 0.92452 0 0 0 -0.0937 0z" fill="#7b1a1a" color="#000000" opacity="0.05"/>
  <g transform="matrix(1.5415 0 0 1.0519 -25.719 -52.08)">
   <path d="m47.172 969.8c-2.0182 0.5631-2.5141 3.034-3.6017 4.577-5.9204 11.352-7.8391 24.669-5.6796 37.267-5.2655 5.554-8.6556 13.111-8.4372 20.835 0.26464 4.3707 5.858 7.0387 9.3935 4.4175 2.9511-1.7665 2.8698-5.4232 2.5235-8.3953-0.4594-1.563 1.6629-0.145 2.6563-0.5763 2.9945-0.041 6.0039 0.082 8.989-0.063 1.5505-0.1254-0.15275 3.7634 0.54108 5.2677 0.73861 4.295 6.533 6.3515 9.7759 3.4041 3.0172-2.3588 2.261-6.5008 1.698-9.7713-1.1086-5.6729-3.9946-10.933-7.9524-15.119 2.3664-13.994-0.17247-29.007-7.9062-41-0.4825-0.6173-1.2204-0.9272-2-0.8438z" fill="#7b1a1a" color="#000000" opacity="0.1"/>
   <path d="m47.422 970.86a0.99122 0.99122 0 0 0 -0.75 0.4063s-11.978 16.37-7.6562 40.719c-2.1643 2.2103-8.4385 9.3987-8.5312 19.875 0 2.7448 2.2552 5 5 5s5-2.2552 5-5a0.99122 0.99122 0 0 0 0 -0.094c-0.54812-5.1289-0.25343-8.1204 0.25-10l0.78125 4.2813a0.99122 0.99122 0 0 0 0.96875 0.8125h10a0.99122 0.99122 0 0 0 0.96875 -0.8125l0.78125-4.2813c0.50343 1.8797 0.79812 4.8712 0.25 10a0.99122 0.99122 0 0 0 0 0.094c0 2.7448 2.2552 5 5 5s5-2.2552 5-5c-0.0927-10.476-6.3669-17.665-8.5312-19.875 4.3218-24.349-7.6562-40.719-7.6562-40.719a0.99122 0.99122 0 0 0 -0.875 -0.4063z" fill="#7b1a1a" color="#000000" opacity="0.15"/>
   <path d="m47.484 971.86s-11.786 16-7.5 40l0.0625 0.4375c-1.7758 1.7585-8.4695 9.0566-8.5625 19.562 0 2.2091 1.7909 4 4 4s4-1.7909 4-4c-0.94676-8.8589 0.49404-12.118 1.6875-13.312l1.3125 7.3125h10l1.3125-7.3125c1.1935 1.1946 2.6342 4.4536 1.6875 13.312 0 2.2091 1.7909 4 4 4s4-1.7909 4-4c-0.093-10.506-6.7867-17.804-8.5625-19.562l0.0625-0.4375c4.2857-24-7.5-40-7.5-40z" fill="#7b1a1a" color="#000000" opacity="0.3"/>
   <path d="m54.484 1010.9s8.8928 7.8884 9 20c0 2.2091-1.7909 4-4 4s-4-1.7909-4-4c1.5006-14.041-3-14-3-14l2-6z" fill="#b40000" color="#000000"/>
   <path d="m52.828 1015.8c5.3906 3.2068 3.9053 17.077 3.8125 17.906-0.72386-0.7239-1.1562-1.7392-1.1562-2.8438 1.313-12.286-1.9716-13.785-2.8125-13.969-0.12013-0.026-0.1875-0.031-0.1875-0.031l0.34375-1.0625z" opacity="0.2"/>
   <path d="m40.484 1010.9s-8.8928 7.8884-9 20c0 2.2091 1.7909 4 4 4s4-1.7909 4-4c-1.5005-14.041 3-14 3-14l-2-6z" fill="#d40000" color="#000000"/>
   <path d="m40.484 1010.9s-8.8928 7.8884-9 20c0 0.064 0.02827 0.1241 0.03125 0.1875 0.48369-11.65 8.9688-19.188 8.9688-19.188v-1z" fill="#fff" color="#000000" opacity="0.3"/>
   <path d="m41.891 1014.7c-7.8492 4.2072-5.0144 19.434-5.0144 19.434l0.5 0.125c0.9188-0.7329 2.1081-2.1624 2.1081-3.4291-1.5005-14.041 3-14 3-14l-0.59375-2.1301z" opacity="0.05"/>
   <path d="m41.891 1015.1c-6.7849 4.5872-4.4062 18.75-4.4062 18.75l0.5 0.125c0.9188-0.7329 1.5-1.8583 1.5-3.125-1.5005-14.041 3-14 3-14l-0.59375-1.75z" opacity="0.1"/>
   <path d="m42.141 1015.8c-5.3906 3.2068-3.9053 17.077-3.8125 17.906 0.72386-0.7239 1.1562-1.7392 1.1562-2.8438-1.313-12.286 1.9716-13.785 2.8125-13.969 0.12013-0.026 0.1875-0.031 0.1875-0.031l-0.344-1.1z" opacity="0.2"/>
   <path d="m47.484 970.86s-4.3296 5.9579-6.7812 16h2.7812v6h8v-6h2.7812c-2.4516-10.042-6.7812-16-6.7812-16zm6.7812 16c0.18991 0.7779 0.38747 1.5892 0.5625 2.4063-0.16625-0.8407-0.36952-1.6158-0.5625-2.4063zm-2.7812 6v6h4.4062c-0.0554-2.088-0.188-4.1082-0.4375-6h-3.9688zm4.4062 6c0.0256 0.9629 0.0255 1.9382 0 2.9375 0.0246-1.0059 0.0257-1.9711 0-2.9375zm0 2.9375c-0.0255 0.9993-0.0765 2.0226-0.15625 3.0625 0.0794-1.0362 0.13181-2.0637 0.15625-3.0625zm-0.15625 3.0625h-4.25v6h-8v-6h-4.25c0.14861 1.9388 0.38178 3.938 0.75 6l2.5 14h10l2.5-14c0.36822-2.062 0.60139-4.0612 0.75-6zm-16.5 0c-0.0797-1.0399-0.13072-2.0632-0.15625-3.0625 0.0244 0.9988 0.0768 2.0263 0.15625 3.0625zm-0.15625-3.0625c-0.0255-0.9993-0.0256-1.9746 0-2.9375-0.0257 0.9664-0.0246 1.9316 0 2.9375zm0-2.9375h4.4062v-6h-3.9688c-0.2495 1.8918-0.38206 3.912-0.4375 6zm4.4062 0v6h8v-6h-8zm-2.7812-12c-0.19298 0.7905-0.39625 1.5656-0.5625 2.4063 0.17503-0.8171 0.37259-1.6284 0.5625-2.4063z" fill="url(#linearGradient86387)"/>
   <path d="m42.484 1024.9h10v-1h-10v1z" fill="#a00"/>
   <path d="m40.703 986.86c-0.45797 1.8759-0.90373 3.8483-1.1875 6h3.9688v-6h-2.7812zm2.7812 6v6h8v-6h-8zm8 0h3.9688c-0.28377-2.1517-0.72954-4.1241-1.1875-6h-2.7812v6zm0 6v6h4.25c0.15941-2.0797 0.20738-4.0741 0.15625-6h-4.4062zm0 6h-8v6h8v-6zm-8 0v-6h-4.4062c-0.0511 1.9259-0.003 3.9203 0.15625 6h4.25z" fill="url(#linearGradient86389)" color="#000000"/>
   <path d="m47.408 971.09c-9.1554 13.468-4.8818 53.772-4.8818 53.772h6.5541s-4.156-39.07-1.6724-53.772z" fill="url(#linearGradient86391)" opacity="0.2"/>
  </g>
 </g>
</svg>
