<?xml version="1.0" encoding="UTF-8" standalone="no"?>
<svg
   xmlns:dc="http://purl.org/dc/elements/1.1/"
   xmlns:cc="http://creativecommons.org/ns#"
   xmlns:rdf="http://www.w3.org/1999/02/22-rdf-syntax-ns#"
   xmlns:svg="http://www.w3.org/2000/svg"
   xmlns="http://www.w3.org/2000/svg"
   xmlns:xlink="http://www.w3.org/1999/xlink"
   xmlns:sodipodi="http://sodipodi.sourceforge.net/DTD/sodipodi-0.dtd"
   xmlns:inkscape="http://www.inkscape.org/namespaces/inkscape"
   height="96"
   width="96"
   id="svg2885"
   version="1.1"
   inkscape:version="0.91 r13725"
   sodipodi:docname="gnect.svg">
  <metadata
     id="metadata3034">
    <rdf:RDF>
      <cc:Work
         rdf:about="">
        <dc:format>image/svg+xml</dc:format>
        <dc:type
           rdf:resource="http://purl.org/dc/dcmitype/StillImage" />
      </cc:Work>
    </rdf:RDF>
  </metadata>
  <sodipodi:namedview
     pagecolor="#ffffff"
     bordercolor="#666666"
     borderopacity="1"
     objecttolerance="10"
     gridtolerance="10"
     guidetolerance="10"
     inkscape:pageopacity="0"
     inkscape:pageshadow="2"
     inkscape:window-width="640"
     inkscape:window-height="480"
     id="namedview3032"
     showgrid="false"
     inkscape:zoom="2.4583333"
     inkscape:cx="48"
     inkscape:cy="44.668475"
     inkscape:current-layer="svg2885" />
  <defs
     id="defs2887">
    <clipPath
       id="clipPath3613-967">
      <rect
         x="6"
         rx="6"
         y="6"
         height="84"
         width="84"
         id="rect2890" />
    </clipPath>
    <filter
       x="-0.192"
       y="-0.192"
       height="1.384"
       color-interpolation-filters="sRGB"
       id="filter3794-4"
       width="1.384">
      <feGaussianBlur
         stdDeviation="5.28"
         id="feGaussianBlur2893" />
    </filter>
    <linearGradient
       x2="0"
       y1="20.221"
       y2="138.66"
       gradientUnits="userSpaceOnUse"
       id="linearGradient6674">
      <stop
         stop-color="#fff"
         id="stop2896" />
      <stop
         stop-color="#fff"
         stop-opacity="0"
         offset="1"
         id="stop2898" />
    </linearGradient>
    <radialGradient
       cy="40"
       r="16"
       gradientUnits="userSpaceOnUse"
       id="radialGradient22889"
       cx="32"
       gradientTransform="matrix(1.1875 0 0 1.125 -6 -5)">
      <stop
         stop-color="#f14848"
         id="stop2901" />
      <stop
         stop-color="#e42323"
         offset="0.672"
         id="stop2903" />
      <stop
         stop-color="#c21313"
         offset="1"
         id="stop2905" />
    </radialGradient>
    <linearGradient
       x1="70"
       x2="77"
       xlink:href="#linearGradient6674"
       y1="71"
       y2="78"
       gradientUnits="userSpaceOnUse"
       id="linearGradient22891" />
    <radialGradient
       cy="40"
       r="16"
       gradientUnits="userSpaceOnUse"
       id="radialGradient22917"
       cx="32"
       gradientTransform="matrix(1.1875 0 0 1.125 -6 -5)">
      <stop
         stop-color="#8cd73e"
         id="stop2909" />
      <stop
         stop-color="#5db22b"
         offset="0.719"
         id="stop2911" />
      <stop
         stop-color="#379b26"
         offset="1"
         id="stop2913" />
    </radialGradient>
    <path
       d="m48 32a16 16 0 1 1 -32 0 16 16 0 1 1 32 0z"
       color="#000000"
       id="SVGCleanerId_0" />
    <path
       d="m75 68c-4.4183 0-8 3.5817-8 8s3.5817 8 8 8 8-3.5817 8-8-3.5817-8-8-8zm0 1c3.866 0 7 3.134 7 7s-3.134 7-7 7-7-3.134-7-7 3.134-7 7-7z"
       color="#000000"
       id="SVGCleanerId_1"
       opacity="0.2" />
    <path
       d="m75 69c-3.866 0-7 3.134-7 7s3.134 7 7 7c0.08388 0 0.16683 0.0029 0.25 0-3.472-0.134-6.25-2.995-6.25-6.5 0-3.59 2.91-6.5 6.5-6.5 3.5046 0 6.3662 2.7782 6.5 6.25 0.0029-0.08317 0-0.16612 0-0.25 0-3.866-3.134-7-7-7z"
       fill="url(#linearGradient22891)"
       color="#000000"
       id="SVGCleanerId_2"
       opacity="0.3" />
    <linearGradient
       inkscape:collect="always"
       xlink:href="#linearGradient6674"
       id="linearGradient11861"
       gradientUnits="userSpaceOnUse"
       y1="20.221"
       x2="0"
       y2="138.66" />
    <radialGradient
       inkscape:collect="always"
       xlink:href="#radialGradient22889"
       id="radialGradient11863"
       gradientUnits="userSpaceOnUse"
       gradientTransform="matrix(1.1875,0,0,1.125,-6,-5)"
       cx="32"
       cy="40"
       r="16" />
    <radialGradient
       inkscape:collect="always"
       xlink:href="#radialGradient22889"
       id="radialGradient11865"
       gradientUnits="userSpaceOnUse"
       gradientTransform="matrix(1.1875,0,0,1.125,-6,-5)"
       cx="32"
       cy="40"
       r="16" />
    <radialGradient
       inkscape:collect="always"
       xlink:href="#radialGradient22889"
       id="radialGradient11867"
       gradientUnits="userSpaceOnUse"
       gradientTransform="matrix(1.1875,0,0,1.125,-6,-5)"
       cx="32"
       cy="40"
       r="16" />
    <radialGradient
       inkscape:collect="always"
       xlink:href="#radialGradient22889"
       id="radialGradient11869"
       gradientUnits="userSpaceOnUse"
       gradientTransform="matrix(1.1875,0,0,1.125,-6,-5)"
       cx="32"
       cy="40"
       r="16" />
    <radialGradient
       inkscape:collect="always"
       xlink:href="#radialGradient22889"
       id="radialGradient11871"
       gradientUnits="userSpaceOnUse"
       gradientTransform="matrix(1.1875,0,0,1.125,-6,-5)"
       cx="32"
       cy="40"
       r="16" />
    <radialGradient
       inkscape:collect="always"
       xlink:href="#radialGradient22889"
       id="radialGradient11873"
       gradientUnits="userSpaceOnUse"
       gradientTransform="matrix(1.1875,0,0,1.125,-6,-5)"
       cx="32"
       cy="40"
       r="16" />
    <radialGradient
       inkscape:collect="always"
       xlink:href="#radialGradient22889"
       id="radialGradient11875"
       gradientUnits="userSpaceOnUse"
       gradientTransform="matrix(1.1875,0,0,1.125,-6,-5)"
       cx="32"
       cy="40"
       r="16" />
    <radialGradient
       inkscape:collect="always"
       xlink:href="#radialGradient22917"
       id="radialGradient11877"
       gradientUnits="userSpaceOnUse"
       gradientTransform="matrix(1.1875,0,0,1.125,-6,-5)"
       cx="32"
       cy="40"
       r="16" />
    <radialGradient
       inkscape:collect="always"
       xlink:href="#radialGradient22917"
       id="radialGradient11879"
       gradientUnits="userSpaceOnUse"
       gradientTransform="matrix(1.1875,0,0,1.125,-6,-5)"
       cx="32"
       cy="40"
       r="16" />
    <radialGradient
       inkscape:collect="always"
       xlink:href="#radialGradient22917"
       id="radialGradient11881"
       gradientUnits="userSpaceOnUse"
       gradientTransform="matrix(1.1875,0,0,1.125,-6,-5)"
       cx="32"
       cy="40"
       r="16" />
    <radialGradient
       inkscape:collect="always"
       xlink:href="#radialGradient22917"
       id="radialGradient11883"
       gradientUnits="userSpaceOnUse"
       gradientTransform="matrix(1.1875,0,0,1.125,-6,-5)"
       cx="32"
       cy="40"
       r="16" />
    <linearGradient
       inkscape:collect="always"
       xlink:href="#linearGradient14231"
       id="linearGradient14237"
       x1="50.707542"
       y1="81.682442"
       x2="50.707542"
       y2="96.539803"
       gradientUnits="userSpaceOnUse" />
    <linearGradient
       inkscape:collect="always"
       id="linearGradient14231">
      <stop
         style="stop-color:#000000;stop-opacity:1;"
         offset="0"
         id="stop14233" />
      <stop
         style="stop-color:#000000;stop-opacity:0;"
         offset="1"
         id="stop14235" />
    </linearGradient>
    <linearGradient
       inkscape:collect="always"
       xlink:href="#linearGradient14239"
       id="linearGradient14245"
       x1="49.876652"
       y1="87.937508"
       x2="49.876652"
       y2="76.719681"
       gradientUnits="userSpaceOnUse" />
    <linearGradient
       inkscape:collect="always"
       id="linearGradient14239">
      <stop
         style="stop-color:#ffffff;stop-opacity:1;"
         offset="0"
         id="stop14241" />
      <stop
         style="stop-color:#ffffff;stop-opacity:0;"
         offset="1"
         id="stop14243" />
    </linearGradient>
  </defs>
  <rect
     style="fill-opacity:0.03900003"
     id="rect2920"
     width="88.760002"
     height="88.760002"
     y="3.6000221"
     rx="12.552"
     x="3.608" />
  <rect
     style="fill-opacity:0.078"
     id="rect2922"
     width="87.550003"
     height="87.550003"
     y="4.2100072"
     rx="12.38"
     x="4.2160001" />
  <rect
     style="fill-opacity:0.15700001"
     id="rect2924"
     width="86.330002"
     height="86.330002"
     y="4.8199925"
     rx="12.208"
     x="4.8239999" />
  <path
     style="fill:#dedbe3"
     inkscape:connector-curvature="0"
     id="path2926"
     d="m 17.469,5.4062 c -6.668,0 -12.032,5.3948 -12.032,12.063 l 5e-4,61.031 c 0,5.418 3.5332,9.982 8.4375,11.5 l 68.187,0 c 4.715,-1.457 8.172,-5.734 8.438,-10.875 l 0,-62.281 c -0.321,-6.377 -5.54,-11.438 -12,-11.438 l -61.031,2e-4 z" />
  <rect
     style="opacity:0.1;fill:url(#linearGradient11861);stroke:#ffffff;stroke-width:0.5;stroke-linecap:round;filter:url(#filter3794-4)"
     id="rect2932"
     transform="translate(0,-2)"
     width="66"
     height="66"
     clip-path="url(#clipPath3613-967)"
     y="15"
     rx="12"
     x="15" />
  <g
     id="g2934"
     transform="matrix(1,0,0,0.92769,9,-881.35)">
    <path
       style="color:#000000;opacity:0.05"
       inkscape:connector-curvature="0"
       id="path2936"
       d="m 65.5,961.33 c -6.0501,0 -11.031,4.9812 -11.031,11.031 0,3.8258 2.0792,7.0718 5.0625,9.0313 -1.196,0.7995 -2.2004,1.804 -3,3 -1.9594,-2.9833 -5.2054,-5.0626 -9.0312,-5.0626 -6.0501,0 -11.031,4.9812 -11.031,11.031 0,3.8258 2.0792,7.0718 5.0625,9.0313 -1.196,0.7995 -2.2004,1.804 -3,3 -1.9594,-2.9833 -5.2054,-5.0625 -9.0312,-5.0625 -3.8011,0 -7.0355,2.0485 -9,5 -1.9645,-2.9515 -5.1989,-5 -9,-5 -6.0501,0 -11.031,4.9811 -11.031,11.031 0,3.8011 2.0485,7.0355 5,9 -2.9515,1.9644 -5,5.1988 -5,9 0,6.05 4.9812,11.031 11.031,11.031 3.8011,0 7.0355,-2.0485 9,-5 1.9645,2.9515 5.1989,5 9,5 3.8011,0 7.0355,-2.0485 9,-5 1.9645,2.9515 5.1989,5 9,5 3.8011,0 7.0355,-2.0485 9,-5 1.9645,2.9515 5.1989,5 9,5 6.0501,0 11.031,-4.9812 11.031,-11.031 0,-3.8012 -2.0485,-7.0356 -5,-9 2.9515,-1.9645 5,-5.1989 5,-9 0,-3.8012 -2.0485,-7.0356 -5,-9.0001 2.9515,-1.9645 5,-5.1989 5,-9 0,-3.8011 -2.0485,-7.0355 -5,-9 2.9515,-1.9645 5,-5.1989 5,-9 0,-6.0501 -4.9812,-11.031 -11.031,-11.031 z m -9,34.938 c 0.81776,1.24 1.8537,2.2759 3.0938,3.0937 -1.2401,0.8178 -2.276,1.8537 -3.0938,3.0938 -0.81776,-1.2401 -1.8537,-2.276 -3.0938,-3.0938 1.2401,-0.8178 2.276,-1.8537 3.0938,-3.0937 z m -36,18 c 0.81776,1.2401 1.8537,2.2759 3.0938,3.0938 -1.2401,0.8177 -2.276,1.8536 -3.0938,3.0937 -0.81776,-1.2401 -1.8537,-2.276 -3.0938,-3.0937 1.2401,-0.8179 2.276,-1.8537 3.0938,-3.0938 z m 18,0 c 0.81776,1.2401 1.8537,2.2759 3.0938,3.0938 -1.2401,0.8177 -2.276,1.8536 -3.0938,3.0937 -0.81776,-1.2401 -1.8537,-2.276 -3.0938,-3.0937 1.2401,-0.8179 2.276,-1.8537 3.0938,-3.0938 z m 18,0 c 0.81776,1.2401 1.8537,2.2759 3.0938,3.0938 -1.2404,0.8175 -2.2764,1.8532 -3.0938,3.0937 -0.81776,-1.2401 -1.8537,-2.276 -3.0938,-3.0937 1.2401,-0.8179 2.276,-1.8537 3.0938,-3.0938 z" />
    <path
       style="color:#000000;opacity:0.1"
       inkscape:connector-curvature="0"
       id="path2938"
       d="m 65.5,962.39 c -5.4762,0 -9.9688,4.4926 -9.9688,9.9688 0,4.0105 2.4376,7.4262 5.875,9 -2.1811,0.9986 -3.9076,2.7252 -4.9062,4.9063 -1.5738,-3.4375 -4.9895,-5.875 -9,-5.875 -5.4762,0 -9.9688,4.4926 -9.9688,9.9688 0,4.0105 2.4376,7.4262 5.875,9 -2.1811,0.9986 -3.9076,2.7252 -4.9062,4.9063 -1.5738,-3.4375 -4.9895,-5.875 -9,-5.875 -4.0105,0 -7.4262,2.4375 -9,5.875 -1.5738,-3.4375 -4.9895,-5.875 -9,-5.875 -5.4762,0 -9.9688,4.4925 -9.9688,9.9688 0,4.0104 2.4376,7.4262 5.875,9 -3.4374,1.5737 -5.875,4.9895 -5.875,9 0,5.4762 4.4926,9.9687 9.9688,9.9687 4.0105,0 7.4262,-2.4376 9,-5.875 1.5738,3.4374 4.9895,5.875 9,5.875 4.0105,0 7.4262,-2.4376 9,-5.875 1.5738,3.4374 4.9895,5.875 9,5.875 4.0105,0 7.4262,-2.4376 9,-5.875 1.5738,3.4374 4.9895,5.875 9,5.875 5.4762,0 9.9688,-4.4925 9.9688,-9.9687 0,-4.0105 -2.4376,-7.4263 -5.875,-9 3.4374,-1.5738 5.875,-4.9896 5.875,-9 0,-4.0106 -2.4376,-7.4263 -5.875,-9.0001 3.4374,-1.5738 5.875,-4.9895 5.875,-9 0,-4.0105 -2.4376,-7.4262 -5.875,-9 3.4374,-1.5738 5.875,-4.9895 5.875,-9 0,-5.4762 -4.4926,-9.9688 -9.9688,-9.9688 z m -9,32.063 c 0.9986,2.1811 2.7252,3.9076 4.9062,4.9062 -2.1811,0.9986 -3.9076,2.7252 -4.9062,4.9063 -0.9986,-2.1811 -2.7252,-3.9077 -4.9062,-4.9063 2.1811,-0.9986 3.9076,-2.7251 4.9062,-4.9062 z m -36,18 c 0.9986,2.1811 2.7251,3.9077 4.9062,4.9063 -2.1811,0.9985 -3.9077,2.7251 -4.9062,4.9062 -0.9986,-2.1811 -2.7251,-3.9077 -4.9062,-4.9062 2.1811,-0.9986 3.9077,-2.7252 4.9062,-4.9063 z m 18,0 c 0.9986,2.1811 2.7252,3.9077 4.9062,4.9063 -2.1811,0.9985 -3.9076,2.7251 -4.9062,4.9062 -0.9986,-2.1811 -2.7252,-3.9077 -4.9062,-4.9062 2.1811,-0.9986 3.9076,-2.7252 4.9062,-4.9063 z m 18,0 c 0.9986,2.1811 2.7252,3.9077 4.9062,4.9063 -2.1843,1.0013 -3.9085,2.7215 -4.9062,4.9062 -0.9986,-2.1811 -2.7252,-3.9077 -4.9062,-4.9062 2.1811,-0.9986 3.9076,-2.7252 4.9062,-4.9063 z" />
    <path
       style="color:#000000;opacity:0.15"
       inkscape:connector-curvature="0"
       id="path2940"
       d="m 65.5,963.36 c -4.9554,0 -9,4.0446 -9,9 0,4.9554 4.0446,9 9,9 4.9554,0 9,-4.0446 9,-9 0,-4.9554 -4.0446,-9 -9,-9 z m 0,18 c -4.9554,0 -9,4.0446 -9,9 0,4.9554 4.0446,9 9,9 4.9554,0 9,-4.0446 9,-9 0,-4.9554 -4.0446,-9 -9,-9 z m 0,18 c -4.9554,0 -9,4.0446 -9,9.0001 0,4.9554 4.0446,9 9,9 4.9554,0 9,-4.0446 9,-9 0,-4.9555 -4.0446,-9.0001 -9,-9.0001 z m 0,18 c -0.2855,0 -0.5808,0 -0.90625,0.031 -4.5349,0.4605 -8.0938,4.3222 -8.0938,8.9688 0,4.9554 4.0446,9 9,9 4.9554,0 9,-4.0446 9,-9 0,-4.9555 -4.0446,-9 -9,-9 z m -9,9 c 0,-4.9555 -4.0446,-9 -9,-9 -4.9554,0 -9,4.0445 -9,9 0,4.9554 4.0446,9 9,9 4.9554,0 9,-4.0446 9,-9 z m -18,0 c 0,-4.9555 -4.0446,-9 -9,-9 -4.9554,0 -9,4.0445 -9,9 0,4.9554 4.0446,9 9,9 4.9554,0 9,-4.0446 9,-9 z m -18,0 c 0,-4.9555 -4.0446,-9 -9,-9 -4.9554,0 -9,4.0445 -9,9 0,4.9554 4.0446,9 9,9 4.9554,0 9,-4.0446 9,-9 z m -9,-9 c 4.9554,0 9,-4.0446 9,-9 0,-4.9555 -4.0446,-9.0001 -9,-9.0001 -4.9554,0 -9,4.0446 -9,9.0001 0,4.9554 4.0446,9 9,9 z m 9,-9 c 0,4.9554 4.0446,9 9,9 4.9554,0 9,-4.0446 9,-9 0,-4.9555 -4.0446,-9.0001 -9,-9.0001 -4.9554,0 -9,4.0446 -9,9.0001 z m 18,0 c 0,4.9554 4.0446,9 9,9 4.9554,0 9,-4.0446 9,-9 0,-4.9555 -4.0446,-9.0001 -9,-9.0001 -4.9554,0 -9,4.0446 -9,9.0001 z m 9,-9.0001 c 4.9554,0 9,-4.0446 9,-9 0,-4.9554 -4.0446,-9 -9,-9 -4.9554,0 -9,4.0446 -9,9 0,4.9554 4.0446,9 9,9 z" />
    <path
       style="color:#000000;opacity:0.3"
       inkscape:connector-curvature="0"
       id="path2942"
       d="m 65.5,964.36 c -4.4183,0 -8,3.5817 -8,8 0,4.4183 3.5817,8 8,8 4.4183,0 8,-3.5817 8,-8 0,-4.4183 -3.5817,-8 -8,-8 z m -18,18 c -4.4183,0 -8,3.5817 -8,8 0,4.4183 3.5817,8 8,8 4.4183,0 8,-3.5817 8,-8 0,-4.4183 -3.5817,-8 -8,-8 z m 18,0 c -4.4183,0 -8,3.5817 -8,8 0,4.4183 3.5817,8 8,8 4.4183,0 8,-3.5817 8,-8 0,-4.4183 -3.5817,-8 -8,-8 z m -54,18 c -4.4183,0 -8,3.5817 -8,8.0001 0,4.4182 3.5817,8 8,8 4.4183,0 8,-3.5818 8,-8 0,-4.4184 -3.5817,-8.0001 -8,-8.0001 z m 18,0 c -4.4183,0 -8,3.5817 -8,8.0001 0,4.4182 3.5817,8 8,8 4.4183,0 8,-3.5818 8,-8 0,-4.4184 -3.5817,-8.0001 -8,-8.0001 z m 18,0 c -4.4183,0 -8,3.5817 -8,8.0001 0,4.4182 3.5817,8 8,8 4.4183,0 8,-3.5818 8,-8 0,-4.4184 -3.5817,-8.0001 -8,-8.0001 z m 18,0 c -4.4183,0 -8,3.5817 -8,8.0001 0,4.4182 3.5817,8 8,8 4.4183,0 8,-3.5818 8,-8 0,-4.4184 -3.5817,-8.0001 -8,-8.0001 z m -54,18 c -4.4183,0 -8,3.5816 -8,8 0,4.4182 3.5817,8 8,8 4.4183,0 8,-3.5818 8,-8 0,-4.4183 -3.5817,-8 -8,-8 z m 18,0 c -4.4183,0 -8,3.5816 -8,8 0,4.4182 3.5817,8 8,8 4.4183,0 8,-3.5818 8,-8 0,-4.4183 -3.5817,-8 -8,-8 z m 18,0 c -4.4183,0 -8,3.5816 -8,8 0,4.4182 3.5817,8 8,8 4.4183,0 8,-3.5818 8,-8 0,-4.4183 -3.5817,-8 -8,-8 z m 18,0 c -0.27614,0 -0.54356,0 -0.8125,0.031 -4.034,0.4097 -7.1875,3.8266 -7.1875,7.9688 0,4.4182 3.5817,8 8,8 4.4183,0 8,-3.5818 8,-8 0,-4.4183 -3.5817,-8 -8,-8 z" />
    <g
       id="g2944"
       transform="translate(-9.5,949.36)">
      <use
         height="100%"
         width="100%"
         y="0"
         x="0"
         style="fill:url(#radialGradient11863)"
         id="use2946"
         transform="matrix(0.5,0,0,0.5,59,60)"
         xlink:href="#SVGCleanerId_0" />
      <use
         height="100%"
         width="100%"
         y="0"
         x="0"
         id="use2948"
         xlink:href="#SVGCleanerId_1" />
      <use
         height="100%"
         width="100%"
         y="0"
         x="0"
         id="use2950"
         xlink:href="#SVGCleanerId_2" />
    </g>
    <g
       id="g2952"
       transform="translate(-27.5,949.36)">
      <use
         height="100%"
         width="100%"
         y="0"
         x="0"
         style="fill:url(#radialGradient11865)"
         id="use2954"
         transform="matrix(0.5,0,0,0.5,59,60)"
         xlink:href="#SVGCleanerId_0" />
      <use
         height="100%"
         width="100%"
         y="0"
         x="0"
         id="use2956"
         xlink:href="#SVGCleanerId_1" />
      <use
         height="100%"
         width="100%"
         y="0"
         x="0"
         id="use2958"
         xlink:href="#SVGCleanerId_2" />
    </g>
    <g
       id="g2960"
       transform="translate(-45.5,949.36)">
      <use
         height="100%"
         width="100%"
         y="0"
         x="0"
         style="fill:url(#radialGradient11867)"
         id="use2962"
         transform="matrix(0.5,0,0,0.5,59,60)"
         xlink:href="#SVGCleanerId_0" />
      <use
         height="100%"
         width="100%"
         y="0"
         x="0"
         id="use2964"
         xlink:href="#SVGCleanerId_1" />
      <use
         height="100%"
         width="100%"
         y="0"
         x="0"
         id="use2966"
         xlink:href="#SVGCleanerId_2" />
    </g>
    <g
       id="g2968"
       transform="translate(-63.5,949.36)">
      <use
         height="100%"
         width="100%"
         y="0"
         x="0"
         style="fill:url(#radialGradient11869)"
         id="use2970"
         transform="matrix(0.5,0,0,0.5,59,60)"
         xlink:href="#SVGCleanerId_0" />
      <use
         height="100%"
         width="100%"
         y="0"
         x="0"
         id="use2972"
         xlink:href="#SVGCleanerId_1" />
      <use
         height="100%"
         width="100%"
         y="0"
         x="0"
         id="use2974"
         xlink:href="#SVGCleanerId_2" />
    </g>
    <g
       id="g2976"
       transform="translate(-45.5,931.36)">
      <use
         height="100%"
         width="100%"
         y="0"
         x="0"
         style="fill:url(#radialGradient11871)"
         id="use2978"
         transform="matrix(0.5,0,0,0.5,59,60)"
         xlink:href="#SVGCleanerId_0" />
      <use
         height="100%"
         width="100%"
         y="0"
         x="0"
         id="use2980"
         xlink:href="#SVGCleanerId_1" />
      <use
         height="100%"
         width="100%"
         y="0"
         x="0"
         id="use2982"
         xlink:href="#SVGCleanerId_2" />
    </g>
    <g
       id="g2984"
       transform="translate(-27.5,913.36)">
      <use
         height="100%"
         width="100%"
         y="0"
         x="0"
         style="fill:url(#radialGradient11873)"
         id="use2986"
         transform="matrix(0.5,0,0,0.5,59,60)"
         xlink:href="#SVGCleanerId_0" />
      <use
         height="100%"
         width="100%"
         y="0"
         x="0"
         id="use2988"
         xlink:href="#SVGCleanerId_1" />
      <use
         height="100%"
         width="100%"
         y="0"
         x="0"
         id="use2990"
         xlink:href="#SVGCleanerId_2" />
    </g>
    <g
       id="g2992"
       transform="translate(-9.5,895.36)">
      <use
         height="100%"
         width="100%"
         y="0"
         x="0"
         style="fill:url(#radialGradient11875)"
         id="use2994"
         transform="matrix(0.5,0,0,0.5,59,60)"
         xlink:href="#SVGCleanerId_0" />
      <use
         height="100%"
         width="100%"
         y="0"
         x="0"
         id="use2996"
         xlink:href="#SVGCleanerId_1" />
      <use
         height="100%"
         width="100%"
         y="0"
         x="0"
         id="use2998"
         xlink:href="#SVGCleanerId_2" />
    </g>
    <g
       id="g3000"
       transform="translate(-63.5,931.36)">
      <use
         height="100%"
         width="100%"
         y="0"
         x="0"
         style="fill:url(#radialGradient11877)"
         id="use3002"
         transform="matrix(0.5,0,0,0.5,59,60)"
         xlink:href="#SVGCleanerId_0" />
      <use
         height="100%"
         width="100%"
         y="0"
         x="0"
         id="use3004"
         xlink:href="#SVGCleanerId_1" />
      <use
         height="100%"
         width="100%"
         y="0"
         x="0"
         id="use3006"
         xlink:href="#SVGCleanerId_2" />
    </g>
    <g
       id="g3008"
       transform="translate(-27.5,931.36)">
      <use
         height="100%"
         width="100%"
         y="0"
         x="0"
         style="fill:url(#radialGradient11879)"
         id="use3010"
         transform="matrix(0.5,0,0,0.5,59,60)"
         xlink:href="#SVGCleanerId_0" />
      <use
         height="100%"
         width="100%"
         y="0"
         x="0"
         id="use3012"
         xlink:href="#SVGCleanerId_1" />
      <use
         height="100%"
         width="100%"
         y="0"
         x="0"
         id="use3014"
         xlink:href="#SVGCleanerId_2" />
    </g>
    <g
       id="g3016"
       transform="translate(-9.5,931.36)">
      <use
         height="100%"
         width="100%"
         y="0"
         x="0"
         style="fill:url(#radialGradient11881)"
         id="use3018"
         transform="matrix(0.5,0,0,0.5,59,60)"
         xlink:href="#SVGCleanerId_0" />
      <use
         height="100%"
         width="100%"
         y="0"
         x="0"
         id="use3020"
         xlink:href="#SVGCleanerId_1" />
      <use
         height="100%"
         width="100%"
         y="0"
         x="0"
         id="use3022"
         xlink:href="#SVGCleanerId_2" />
    </g>
    <g
       id="g3024"
       transform="translate(-9.5,913.36)">
      <use
         height="100%"
         width="100%"
         y="0"
         x="0"
         style="fill:url(#radialGradient11883)"
         id="use3026"
         transform="matrix(0.5,0,0,0.5,59,60)"
         xlink:href="#SVGCleanerId_0" />
      <use
         height="100%"
         width="100%"
         y="0"
         x="0"
         id="use3028"
         xlink:href="#SVGCleanerId_1" />
      <use
         height="100%"
         width="100%"
         y="0"
         x="0"
         id="use3030"
         xlink:href="#SVGCleanerId_2" />
    </g>
  </g>
  <g
     id="g14291">
    <path
       d="m 5.2922679,73.685059 0,5.0663 c 0,6.668 5.3645011,12.032 12.0320011,12.032 l 61.049,0 c 6.668,0 12.032,-5.3645 12.032,-12.032 l 0,-5.0663 c 0,6.6681 -5.3645,12.032 -12.032,12.032 l -61.049,0 c -6.668,0 -12.0320011,-5.3643 -12.0320011,-12.032 z"
       id="path64"
       inkscape:connector-curvature="0"
       style="opacity:0.4;fill:url(#linearGradient14237);fill-opacity:1" />
    <path
       inkscape:connector-curvature="0"
       id="path14214"
       d="m 5.2929688,72.717592 0,1.15039 c 0,6.667718 5.3632502,12.031248 12.0312502,12.031248 l 61.048828,0 c 6.6675,0 12.03125,-5.36313 12.03125,-12.031248 l 0,-1.15039 c 0,6.668098 -5.36375,12.031248 -12.03125,12.031248 l -61.048828,0 c -6.668,0 -12.0312502,-5.36355 -12.0312502,-12.031248 z"
       style="opacity:0.5;fill:url(#linearGradient14245);fill-opacity:1" />
  </g>
</svg>
