<svg height="96" width="96" xmlns="http://www.w3.org/2000/svg" xmlns:xlink="http://www.w3.org/1999/xlink" xmlns:sodipodi="http://sodipodi.sourceforge.net/DTD/sodipodi-0.dtd" xmlns:inkscape="http://www.inkscape.org/namespaces/inkscape">
 <defs>
  <linearGradient x2="0" y1="84.03" y2="2.993" gradientUnits="userSpaceOnUse" id="linearGradient6400">
   <stop stop-color="#ccc"/>
   <stop stop-color="#dae0de" offset="1"/>
  </linearGradient>
  <radialGradient cy="-15.871" r="35.938" gradientUnits="userSpaceOnUse" id="radialGradient4635" cx="56.07" gradientTransform="matrix(-0.00226 -1.0568 1.3856 0 10.224 1077.8)">
   <stop stop-color="#4490e6"/>
   <stop stop-color="#103d8f" offset="1"/>
  </radialGradient>
  <clipPath clipPathUnits="userSpaceOnUse" id="clipPath4637">
   <rect x="-46.872" rx="7.163" y="971.67" height="56" width="69.68"/>
  </clipPath>
  <clipPath id="clipPath3798">
   <path d="m61.367 45.997a13.637 13.637 0 1 1 -27.274 0 13.637 13.637 0 1 1 27.274 0z" transform="matrix(1.0266 0 0 1.0266 -1 0.778)"/>
  </clipPath>
  <filter x="-0.24" y="-0.24" height="1.48" color-interpolation-filters="sRGB" id="filter3833" width="1.48">
   <feGaussianBlur stdDeviation="2.8"/>
  </filter>
  <filter color-interpolation-filters="sRGB" id="filter3987">
   <feGaussianBlur stdDeviation="0.4202"/>
  </filter>
  <linearGradient x1="16.16" x2="76.838" gradientUnits="userSpaceOnUse" id="linearGradient4793">
   <stop stop-opacity="0.298"/>
   <stop stop-color="#fff" stop-opacity="0.645" offset="1"/>
  </linearGradient>
  <linearGradient x1="16.16" x2="76.77" gradientUnits="userSpaceOnUse" id="linearGradient4795">
   <stop stop-color="#4b4b4b"/>
   <stop stop-color="#232323" offset="0.374"/>
   <stop stop-color="#5c5c5c" offset="1"/>
  </linearGradient>
  <linearGradient x1="16.16" x2="76.77" gradientUnits="userSpaceOnUse" id="linearGradient4797">
   <stop stop-color="#141414"/>
   <stop stop-color="#616161" offset="1"/>
  </linearGradient>
  <radialGradient cy="48" r="27" gradientUnits="userSpaceOnUse" id="radialGradient4799" cx="48" gradientTransform="matrix(1 0 0 0.99997 0 0.002)">
   <stop stop-opacity="0"/>
   <stop stop-opacity="0" offset="0.95"/>
   <stop offset="1"/>
  </radialGradient>
  <linearGradient x1="16.16" x2="76.77" gradientUnits="userSpaceOnUse" id="linearGradient4801">
   <stop stop-color="#5d5d5d"/>
   <stop stop-color="#0a0a0a" offset="0.6"/>
   <stop stop-color="#4e4e4e" offset="1"/>
  </linearGradient>
  <linearGradient x1="53.51" x2="61.49" y1="59.61" y2="39.929" gradientUnits="userSpaceOnUse" id="linearGradient4803" gradientTransform="matrix(1.0266 0 0 1.0266 -1 50.778)">
   <stop stop-color="#d40000" stop-opacity="0"/>
   <stop stop-color="#d40000" offset="0.5"/>
   <stop stop-color="#d40000" stop-opacity="0" offset="1"/>
  </linearGradient>
  <linearGradient x1="53.731" x2="62.59" y1="60.14" y2="38.831" gradientUnits="userSpaceOnUse" id="linearGradient4805" gradientTransform="matrix(0.72593 0.72593 -0.72593 0.72593 46.743 29.961)">
   <stop stop-color="#d42aff" stop-opacity="0"/>
   <stop stop-color="#d42aff" offset="0.5"/>
   <stop stop-color="#d42aff" stop-opacity="0" offset="1"/>
  </linearGradient>
  <linearGradient x1="53.39" x2="61.983" y1="60.35" y2="39.437" gradientUnits="userSpaceOnUse" id="linearGradient4807" gradientTransform="matrix(0 1.0266 -1.0266 0 95.22 49)">
   <stop stop-color="#60f" stop-opacity="0"/>
   <stop stop-color="#60f" offset="0.5"/>
   <stop stop-color="#60f" stop-opacity="0" offset="1"/>
  </linearGradient>
  <linearGradient x1="53.879" x2="60.999" y1="61.33" y2="39.683" gradientUnits="userSpaceOnUse" id="linearGradient4811" gradientTransform="matrix(-1.0266 0 0 -1.0266 97 145.22)">
   <stop stop-color="#5fd3bc" stop-opacity="0"/>
   <stop stop-color="#5fd3bc" offset="0.5"/>
   <stop stop-color="#5fd3bc" stop-opacity="0" offset="1"/>
  </linearGradient>
  <linearGradient x1="53.47" x2="60.32" y1="59.878" y2="39.701" gradientUnits="userSpaceOnUse" id="linearGradient4813" gradientTransform="matrix(-0.72593 -0.72593 0.72593 -0.72593 49.26 166.04)">
   <stop stop-color="#55d400" stop-opacity="0"/>
   <stop stop-color="#55d400" offset="0.5"/>
   <stop stop-color="#55d400" stop-opacity="0" offset="1"/>
  </linearGradient>
  <linearGradient x1="61.63" x2="52.881" y1="39.683" y2="60.715" gradientUnits="userSpaceOnUse" id="linearGradient4815" gradientTransform="matrix(0 -1.0266 1.0266 0 0.778 147)">
   <stop stop-color="#fc0" stop-opacity="0"/>
   <stop stop-color="#fc0" offset="0.5"/>
   <stop stop-color="#fc0" stop-opacity="0" offset="1"/>
  </linearGradient>
  <linearGradient x1="53.03" x2="61.803" y1="61.18" y2="40.484" gradientUnits="userSpaceOnUse" id="linearGradient4817" gradientTransform="matrix(0.72593 -0.72593 0.72593 0.72593 -20.04 99.26)">
   <stop stop-color="#f60" stop-opacity="0"/>
   <stop stop-color="#f60" offset="0.5"/>
   <stop stop-color="#f60" stop-opacity="0" offset="1"/>
  </linearGradient>
  <radialGradient cy="52" r="9.708" gradientUnits="userSpaceOnUse" id="radialGradient4819" cx="41" gradientTransform="matrix(1 0 0 0.61803 0 19.862)">
   <stop stop-color="#fff"/>
   <stop stop-color="#fff" offset="0.5"/>
   <stop stop-color="#fff" stop-opacity="0" offset="1"/>
  </radialGradient>
  <linearGradient x1="53.3" x2="61.89" y1="59.18" y2="40.22" gradientUnits="userSpaceOnUse" id="linearGradient4823" gradientTransform="matrix(-0.72593 0.72593 -0.72593 -0.72593 116.04 96.74)">
   <stop stop-color="#2a7fff" stop-opacity="0"/>
   <stop stop-color="#2a7fff" offset="0.5"/>
   <stop stop-color="#2a7fff" stop-opacity="0" offset="1"/>
  </linearGradient>
  <path d="m76.772 44.482a30.305 30.305 0 1 1 -60.609 0 30.305 30.305 0 1 1 60.609 0z" id="SVGCleanerId_0"/>
  <path d="m61.367 45.997a13.637 13.637 0 0 1 -3.9942 9.6429l-9.6429-9.6429z" id="SVGCleanerId_1"/>
 </defs>
 <g transform="matrix(1 0 0 1 0 -956.36)">
  <rect x="3.353" rx="12.724" y="959.35" fill-opacity="0.02" height="89.98" width="89.62"/>
  <rect x="3.959" rx="12.552" y="959.96" fill-opacity="0.039" height="88.76" width="88.41"/>
  <rect x="4.564" rx="12.38" y="960.57" fill-opacity="0.078" height="87.55" width="87.2"/>
  <rect x="5.17" rx="12.208" y="961.18" fill-opacity="0.157" height="86.33" width="85.991"/>
  <path d="m17.75 5.4062c-6.642 0-11.969 5.3948-11.969 12.063l0.0002 61.031c0 6.668 5.3268 12.031 11.969 12.031h60.812c6.642 0 11.969-5.363 11.969-12.031v-61.031c0-6.668-5.327-12.063-11.969-12.063l-60.812 0.0002z" fill="url(#linearGradient6400)" transform="matrix(1 0 0 1 0 956.36)"/>
  <path d="m5.7756 1029.8v5.0663c0 6.668 5.3434 12.032 11.985 12.032h60.809c6.6418 0 11.985-5.3645 11.985-12.032v-5.0663c0 6.6681-5.3434 12.032-11.985 12.032h-60.809c-6.6418 0-11.985-5.3643-11.985-12.032z" fill-opacity="0.118"/>
  <path d="m5.7756 1033.9v1.0133c0 6.668 5.3434 12.032 11.985 12.032h60.809c6.6418 0 11.985-5.3645 11.985-12.032v-1.0133c0 6.6681-5.3434 12.032-11.985 12.032h-60.809c-6.6418 0-11.985-5.3644-11.985-12.032z" fill-opacity="0.098"/>
  <rect x="12.232" rx="7.259" y="968.65" fill="#1a1a1a" height="56.75" opacity="0.5" width="71.47"/>
  <rect x="58.934" rx="1.28" y="-1036.3" fill="#999" height="2.559" width="17.309" transform="matrix(1 0 0 -1 0 0)"/>
  <rect x="58.934" rx="1.28" y="-1035.4" fill="#808080" height="2.559" width="17.309" transform="matrix(1 0 0 -1 0 0)"/>
  <g clip-path="url(#clipPath4637)" transform="matrix(1 0 0 1 60 0)">
   <path d="m24.076 1029.6v-61.521h-71.937v61.521h71.937z" fill="url(#radialGradient4635)"/>
  </g>
  <g transform="matrix(0.73438 0 0 0.73438 -77.58 261.42)">
   <g transform="matrix(1 0 0 1 123 956.86)">
    <use xlink:href="#SVGCleanerId_0" fill="url(#linearGradient4793)" transform="matrix(0 1.0559 -1.0559 0 94.97 -1.067)"/>
    <use xlink:href="#SVGCleanerId_0" fill="url(#linearGradient4795)" transform="matrix(0.7 0.7 -0.7 0.7 46.611 -15.664)"/>
    <use stroke-width="0.509" xlink:href="#SVGCleanerId_0" fill="none" stroke="#000" transform="matrix(0 0.9817 -0.9817 0 91.67 2.383)"/>
    <use xlink:href="#SVGCleanerId_0" fill="url(#linearGradient4797)" transform="matrix(0 0.89095 -0.89095 0 87.63 6.6)"/>
    <g fill="none" stroke="#000" opacity="0.2" transform="matrix(0.92593 0 0 0.92593 3.556 3.556)">
     <use stroke-width="0.612" xlink:href="#SVGCleanerId_0" transform="matrix(0 0.8827 -0.8827 0 87.27 6.983)"/>
     <use stroke-width="0.661" xlink:href="#SVGCleanerId_0" transform="matrix(0 0.81671 -0.81671 0 84.33 10.05)"/>
     <use stroke-width="0.636" xlink:href="#SVGCleanerId_0" transform="matrix(0 0.84971 -0.84971 0 85.8 8.517)"/>
     <use stroke-width="0.689" xlink:href="#SVGCleanerId_0" transform="matrix(0 0.78371 -0.78371 0 82.86 11.583)"/>
    </g>
    <path d="m48 21c-6.9099 0-13.822 2.6342-19.094 7.9062-10.544 10.544-10.544 27.643 0 38.188 10.544 10.544 27.643 10.544 38.188 0 10.544-10.544 10.544-27.643 0-38.188-5.272-5.272-12.184-7.906-19.094-7.906zm0 2.5c6.2701 0 12.529 2.4036 17.312 7.1875 9.5678 9.5678 9.5678 25.057 0 34.625-9.5678 9.5678-25.057 9.5678-34.625 0-9.5678-9.5678-9.5678-25.057 0-34.625 4.784-4.783 11.043-7.187 17.313-7.187z" fill="url(#radialGradient4799)" opacity="0.6"/>
    <use stroke-width="1.541" xlink:href="#SVGCleanerId_0" fill="url(#linearGradient4801)" stroke="#1a1a1a" transform="matrix(0 0.64908 -0.64908 0 76.872 17.839)"/>
   </g>
   <g transform="matrix(1 0 0 1 123 956.86)">
    <g clip-path="url(#clipPath3798)" filter="url(#filter3833)" opacity="0.4">
     <use xlink:href="#SVGCleanerId_1" fill="#d40000" transform="matrix(1.0266 0 0 1.0266 -1 0.778)"/>
     <use xlink:href="#SVGCleanerId_1" fill="#d42aff" transform="matrix(0.72593 0.72593 -0.72593 0.72593 46.743 -20.04)"/>
     <use xlink:href="#SVGCleanerId_1" fill="#60f" transform="matrix(0 1.0266 -1.0266 0 95.22 -1)"/>
     <use xlink:href="#SVGCleanerId_1" fill="#2a7fff" transform="matrix(-0.72593 0.72593 -0.72593 -0.72593 116.04 46.743)"/>
     <use xlink:href="#SVGCleanerId_1" fill="#5fd3bc" transform="matrix(-1.0266 0 0 -1.0266 97 95.22)"/>
     <use xlink:href="#SVGCleanerId_1" fill="#55d400" transform="matrix(-0.72593 -0.72593 0.72593 -0.72593 49.26 116.04)"/>
     <use xlink:href="#SVGCleanerId_1" fill="#fc0" transform="matrix(0 -1.0266 1.0266 0 0.778 97)"/>
     <use xlink:href="#SVGCleanerId_1" fill="#f60" transform="matrix(0.72593 -0.72593 0.72593 0.72593 -20.04 49.26)"/>
    </g>
    <g filter="url(#filter3987)" opacity="0.8" transform="matrix(1 0 0 1 0 -50)">
     <path d="m61.531 94.375-0.96875 0.25c0.288 1.074 0.438 2.21 0.438 3.375 0 4.8078-2.6196 9.0009-6.5 11.25l0.5 0.875c5.4876-3.1682 8.1713-9.6294 6.5312-15.75z" fill="url(#linearGradient4803)" opacity="0.8"/>
     <path d="m59.25 104.5c-2.2491 3.8804-6.4422 6.5-11.25 6.5-1.165 0-2.3007-0.15008-3.375-0.4375l-0.25 0.96875c6.1206 1.64 12.582-1.0437 15.75-6.5312l-0.875-0.5z" fill="url(#linearGradient4805)" opacity="0.8"/>
     <path d="m36.75 104.5-0.875 0.5c3.1682 5.4876 9.6294 8.1712 15.75 6.5312l-0.25-0.96875c-1.074 0.29-2.21 0.44-3.375 0.44-4.8078 0-9.0009-2.6196-11.25-6.5z" fill="url(#linearGradient4807)"/>
     <path d="m34.469 94.375c-1.64 6.1206 1.0437 12.582 6.5312 15.75l0.5-0.875c-3.88-2.24-6.5-6.43-6.5-11.24 0-1.165 0.15008-2.3007 0.4375-3.375l-0.96875-0.25z" fill="url(#linearGradient4823)" opacity="0.9"/>
     <path d="m41 85.875c-5.4876 3.1682-8.1713 9.6294-6.5312 15.75l0.96875-0.25c-0.288-1.07-0.438-2.205-0.438-3.37 0-4.808 2.62-9.001 6.5-11.25l-0.5-0.875z" fill="url(#linearGradient4811)"/>
     <path d="m48.156 84c-4.972-0.061-9.707 2.541-12.281 7l0.875 0.5c2.249-3.88 6.442-6.5 11.25-6.5 1.165 0 2.3007 0.15008 3.375 0.4375l0.25-0.96875c-1.148-0.308-2.321-0.455-3.469-0.469z" fill="url(#linearGradient4813)"/>
     <path d="m47.844 84c-1.1475 0.01398-2.3211 0.16125-3.4688 0.46875l0.25 0.96875c1.074-0.288 2.21-0.438 3.375-0.438 4.8078 0 9.0009 2.6196 11.25 6.5l0.875-0.5c-2.574-4.459-7.309-7.061-12.281-7z" fill="url(#linearGradient4815)"/>
     <path d="m55 85.875-0.5 0.875c3.8804 2.2491 6.5 6.4422 6.5 11.25 0 1.165-0.15008 2.3007-0.4375 3.375l0.96875 0.25c1.64-6.126-1.043-12.587-6.531-15.755z" fill="url(#linearGradient4817)" opacity="0.9"/>
    </g>
    <path d="m50.708 52a9.7082 6 0 1 1 -19.416 0 9.7082 6 0 1 1 19.416 0z" fill="url(#radialGradient4819)" transform="matrix(0.23288 -0.23288 0.23288 0.23288 33.27 52.13)"/>
   </g>
  </g>
 </g>
</svg>
