<svg height="96" width="96" xmlns="http://www.w3.org/2000/svg" xmlns:xlink="http://www.w3.org/1999/xlink" xmlns:sodipodi="http://sodipodi.sourceforge.net/DTD/sodipodi-0.dtd" xmlns:inkscape="http://www.inkscape.org/namespaces/inkscape">
 <defs>
  <linearGradient x2="0" y1="20.221" y2="138.66" gradientUnits="userSpaceOnUse" id="linearGradient3613-7">
   <stop stop-color="#fff"/>
   <stop stop-color="#fff" stop-opacity="0" offset="1"/>
  </linearGradient>
  <filter x="-0.192" y="-0.192" height="1.384" color-interpolation-filters="sRGB" id="filter3794-3" width="1.384">
   <feGaussianBlur stdDeviation="5.28"/>
  </filter>
  <clipPath id="clipPath3613-1">
   <use xlink:href="#SVGCleanerId_1"/>
  </clipPath>
  <linearGradient id="linearGradient3670-1">
   <stop stop-color="#f0f0f0"/>
   <stop stop-color="#dcdcdc" offset="1"/>
  </linearGradient>
  <clipPath id="clipPath3613-20">
   <use xlink:href="#SVGCleanerId_1"/>
  </clipPath>
  <linearGradient x2="0" xlink:href="#linearGradient3670-1" y1="8" y2="88" gradientUnits="userSpaceOnUse" id="linearGradient53883"/>
  <linearGradient x2="0" y1="88" y2="8" gradientUnits="userSpaceOnUse" id="linearGradient53885">
   <stop stop-color="#224478"/>
   <stop stop-color="#376ec2" offset="1"/>
  </linearGradient>
  <linearGradient x2="0" xlink:href="#linearGradient3670-1" y1="8" y2="88" gradientUnits="userSpaceOnUse" id="linearGradient53895" gradientTransform="matrix(1 0 0 1 200.5 1009.4)"/>
  <linearGradient x2="0" y1="60.33" y2="36.596" gradientUnits="userSpaceOnUse" id="linearGradient53897" gradientTransform="matrix(1 0 0 1 200.5 1009.4)">
   <stop stop-color="#d40000"/>
   <stop stop-color="#d41400" offset="1"/>
  </linearGradient>
  <clipPath clipPathUnits="userSpaceOnUse" id="clipPath53909">
   <path d="m216.92 1001.2c-7.2448-0.7571-13.685 4.4952-14.442 11.74l-6.9294 66.311c-0.61512 5.8864 2.7056 11.246 7.8617 13.453l74.086 7.7419c5.2881-1.0475 9.5299-5.3019 10.402-10.858l7.0713-67.669c0.37508-6.9652-4.7211-13.056-11.74-13.789l-66.311-6.9294z"/>
  </clipPath>
  <rect x="15" stroke-width="0.5" rx="12" y="15" fill="url(#linearGradient3613-7)" stroke="#fff" height="66" filter="url(#filter3794-3)" id="SVGCleanerId_0" opacity="0.1" width="66" stroke-linecap="round"/>
  <rect x="6" rx="6" y="6" height="84" id="SVGCleanerId_1" width="84"/>
  <path d="m45.38 18.189v0.31055h-2.584v-0.31055l0.89062-0.1582 2.6777-7.4531h1.1133l2.7832 7.4531 0.99609 0.1582v0.31055h-3.3223v-0.31055l1.0547-0.1582-0.7793-2.2676h-3.0938l-0.79102 2.2676 1.0547 0.1582m1.2598-6.7676-1.3477 3.8145h2.7363l-1.3887-3.8145" id="SVGCleanerId_2"/>
  <rect x="36" rx="6" y="6" fill="url(#linearGradient53883)" color="#000000" height="84" id="SVGCleanerId_3" width="54"/>
  <path d="m42 7.9688c-2.2635 0-4.0312 1.7678-4.0312 4.0312v72c0 2.2635 1.7678 4.0312 4.0312 4.0312h42c2.2635 0 4.0312-1.7678 4.0312-4.0312v-72c0-2.2635-1.768-4.0312-4.031-4.0312h-42z" fill="url(#linearGradient53885)" color="#000000" id="SVGCleanerId_4"/>
  <path d="m32 7.9688c-2.2635 0-4.0312 1.7678-4.0312 4.0312v72c0 2.2635 1.7678 4.0312 4.0312 4.0312h42c2.2635 0 4.0312-1.7678 4.0312-4.0312v-72c0-2.2635-1.768-4.0312-4.031-4.0312h-42zm0 0.9375h42c1.7676 0 3.0938 1.3261 3.0938 3.0938v72c0 1.7676-1.3261 3.0938-3.0938 3.0938h-42c-1.7676 0-3.0938-1.3261-3.0938-3.0938v-72c0-1.7676 1.3261-3.0938 3.0938-3.0938z" fill="#214478" color="#000000" id="SVGCleanerId_5"/>
  <path d="m32 8-4 8 4 8 4-8-4-8zm0 16-4 8 4 8 4-8-4-8zm0 16-4 8 4 8 4-8-4-8zm0 16-4 8 4 8 4-8-4-8zm0 16-4 8 4 8 4-8-4-8zm0-60 2 4-2 4-2-4 2-4zm0 2-1 2 1 2 1-2-1-2zm0 12 3 6-3 6-3-6 3-6zm0 4-1 2 1 2 1-2-1-2zm0 14 2 4-2 4-2-4 2-4zm0 2-1 2 1 2 1-2-1-2zm0 12 3 6-3 6-3-6 3-6zm0 4-1 2 1 2 1-2-1-2zm0 14 2 4-2 4-2-4 2-4zm0 2-1 2 1 2 1-2-1-2z" fill="#162d50" id="SVGCleanerId_6" opacity="0.3"/>
  <rect x="33" rx="6" y="6" color="#000000" height="84" id="SVGCleanerId_7" opacity="0.1" width="20"/>
  <rect x="34" rx="6" y="6" color="#000000" height="84" id="SVGCleanerId_8" opacity="0.15" width="20"/>
  <rect x="35" rx="6" y="6" color="#000000" height="84" id="SVGCleanerId_9" opacity="0.3" width="20"/>
 </defs>
 <g transform="matrix(1 0 0 1 0 -956.36)">
  <rect x="3.608" rx="12.552" y="959.96" fill-opacity="0.039" height="88.76" width="88.76"/>
  <rect x="4.216" rx="12.38" y="960.57" fill-opacity="0.078" height="87.55" width="87.55"/>
  <rect x="4.824" rx="12.208" y="961.18" fill-opacity="0.157" height="86.33" width="86.33"/>
  <path d="m17.469 5.4062c-6.668 0-12.032 5.3948-12.032 12.063l0.0005 61.031c0 5.418 3.5332 9.982 8.4375 11.5h68.187c4.715-1.457 8.172-5.734 8.438-10.875v-62.281c-0.321-6.377-5.54-11.438-12-11.438l-61.031 0.0002z" fill="#999" transform="matrix(1 0 0 1 0 956.36)"/>
  <g clip-path="url(#clipPath53909)" transform="matrix(0.91044 -0.09514 0.09514 0.91044 -275.27 70.884)">
   <g transform="matrix(1 0 0 1 170.5 1009.4)">
    <use xlink:href="#SVGCleanerId_3"/>
    <use xlink:href="#SVGCleanerId_4"/>
    <use xlink:href="#SVGCleanerId_5" transform="matrix(1 0 0 1 10 0)"/>
    <use xlink:href="#SVGCleanerId_6" transform="matrix(1 0 0 1 10 0)"/>
   </g>
   <g transform="matrix(1 0 0 1 180.5 1009.4)">
    <use xlink:href="#SVGCleanerId_7"/>
    <use xlink:href="#SVGCleanerId_8"/>
    <use xlink:href="#SVGCleanerId_9"/>
    <use xlink:href="#SVGCleanerId_3"/>
    <use xlink:href="#SVGCleanerId_4"/>
    <use xlink:href="#SVGCleanerId_5" transform="matrix(1 0 0 1 10 0)"/>
    <use xlink:href="#SVGCleanerId_6" transform="matrix(1 0 0 1 10 0)"/>
   </g>
   <g transform="matrix(1 0 0 1 190.5 1009.4)">
    <use xlink:href="#SVGCleanerId_7"/>
    <use xlink:href="#SVGCleanerId_8"/>
    <use xlink:href="#SVGCleanerId_9"/>
    <use xlink:href="#SVGCleanerId_3"/>
    <use xlink:href="#SVGCleanerId_4"/>
    <use xlink:href="#SVGCleanerId_5" transform="matrix(1 0 0 1 10 0)"/>
    <use xlink:href="#SVGCleanerId_6" transform="matrix(1 0 0 1 10 0)"/>
   </g>
   <rect x="233.5" rx="6" y="1015.4" color="#000000" height="84" opacity="0.1" width="20"/>
   <rect x="234.5" rx="6" y="1015.4" color="#000000" height="84" opacity="0.15" width="20"/>
   <rect x="235.5" rx="6" y="1015.4" color="#000000" height="84" opacity="0.3" width="20"/>
   <rect x="236.5" rx="6" y="1015.4" fill="url(#linearGradient53895)" color="#000000" height="84" width="54"/>
   <path d="m257.5 1045.4c-3.3137 0-6 2.6863-6 6 0 0.2071 0.003 0.4077 0.0234 0.6094 0.51764 8.8877 11.977 17.391 11.977 17.391s11.445-8.8577 11.977-17.391c0.0205-0.2017 0.0234-0.4023 0.0234-0.6094 0-3.3137-2.6863-6-6-6s-6 2.6863-6 6c0-3.3137-2.6863-6-6-6z" fill="url(#linearGradient53897)" color="#000000"/>
   <use xlink:href="#SVGCleanerId_2" fill="#d40000" transform="matrix(1.0046 0 0 1.0099 197.01 1008.7)"/>
   <path d="m242.5 1029.4c-1.1046 0-2 0.8954-2 2 0 0.069 0.001 0.1359 0.008 0.2031 0.17256 2.9626 3.9922 5.7969 3.9922 5.7969s3.815-2.9526 3.9922-5.7969c0.007-0.067 0.008-0.1341 0.008-0.2031 0-1.1046-0.89543-2-2-2s-2 0.8954-2 2c0-1.1046-0.89543-2-2-2z" fill="#d40000" color="#000000"/>
   <path d="m251.53 1051c-0.007 0.1226-0.0313 0.2505-0.0313 0.375 0 0.2071 0.0108 0.4233 0.0313 0.625 0.51764 8.8878 11.969 17.375 11.969 17.375s11.437-8.842 11.969-17.375c0.0205-0.2017 0.0313-0.4179 0.0313-0.625 0-0.1245-0.0238-0.2524-0.0313-0.375-0.53172 8.533-11.969 17.375-11.969 17.375s-11.451-8.4872-11.969-17.375z" fill="#9d0000" color="#000000"/>
   <use xlink:href="#SVGCleanerId_2" fill="#c40000" transform="matrix(1.0046 0 0 -1.0099 235.01 1106)"/>
   <path d="m280.5 1085.4c-1.1046 0-2-0.8954-2-2 0-0.069 0.001-0.1359 0.008-0.2031 0.17256-2.9626 3.9922-5.7969 3.9922-5.7969s3.815 2.9526 3.9922 5.7969c0.007 0.067 0.008 0.1341 0.008 0.2031 0 1.1046-0.89543 2-2 2s-2-0.8954-2-2c0 1.1046-0.89543 2-2 2z" fill="#c40000" color="#000000"/>
   <use xlink:href="#SVGCleanerId_0" clip-path="url(#clipPath3613-20)" transform="matrix(1 0 0 1 200.5 1009.4)"/>
  </g>
  <path d="m5.4316 1029.8v5.0663c0 6.668 5.3645 12.032 12.032 12.032h61.049c6.668 0 12.032-5.3645 12.032-12.032v-5.0663c0 6.6681-5.3645 12.032-12.032 12.032h-61.049c-6.668 0-12.032-5.3643-12.032-12.032z" fill-opacity="0.235"/>
  <path d="m5.4316 1033.9v1.0133c0 6.668 5.3645 12.032 12.032 12.032h61.049c6.668 0 12.032-5.3645 12.032-12.032v-1.0133c0 6.6681-5.3645 12.032-12.032 12.032h-61.049c-6.668 0-12.032-5.3644-12.032-12.032z" fill-opacity="0.098"/>
  <use xlink:href="#SVGCleanerId_0" clip-path="url(#clipPath3613-1)" transform="matrix(1 0 0 1 0.048 954.04)"/>
 </g>
</svg>
