<?xml version="1.0" encoding="UTF-8" standalone="no"?>
<svg
   xmlns:dc="http://purl.org/dc/elements/1.1/"
   xmlns:cc="http://creativecommons.org/ns#"
   xmlns:rdf="http://www.w3.org/1999/02/22-rdf-syntax-ns#"
   xmlns:svg="http://www.w3.org/2000/svg"
   xmlns="http://www.w3.org/2000/svg"
   xmlns:sodipodi="http://sodipodi.sourceforge.net/DTD/sodipodi-0.dtd"
   xmlns:inkscape="http://www.inkscape.org/namespaces/inkscape"
   height="96"
   width="96"
   id="svg2"
   version="1.1"
   inkscape:version="0.91 r13725"
   sodipodi:docname="xfsm-logout.svg"
   inkscape:export-filename="/home/winardiaris/.icons/Tebu/apps/96/xfsm-logout.png"
   inkscape:export-xdpi="90"
   inkscape:export-ydpi="90">
  <metadata
     id="metadata59">
    <rdf:RDF>
      <cc:Work
         rdf:about="">
        <dc:format>image/svg+xml</dc:format>
        <dc:type
           rdf:resource="http://purl.org/dc/dcmitype/StillImage" />
      </cc:Work>
    </rdf:RDF>
  </metadata>
  <sodipodi:namedview
     pagecolor="#ffffff"
     bordercolor="#666666"
     borderopacity="1"
     objecttolerance="10"
     gridtolerance="10"
     guidetolerance="10"
     inkscape:pageopacity="0"
     inkscape:pageshadow="2"
     inkscape:window-width="1366"
     inkscape:window-height="708"
     id="namedview57"
     showgrid="false"
     inkscape:zoom="2.4583333"
     inkscape:cx="48"
     inkscape:cy="48"
     inkscape:window-x="0"
     inkscape:window-y="24"
     inkscape:window-maximized="1"
     inkscape:current-layer="svg2" />
  <defs
     id="defs4">
    <clipPath
       id="clipPath3613-55">
      <rect
         x="6"
         rx="6"
         y="6"
         height="84"
         width="84"
         id="rect7" />
    </clipPath>
    <filter
       x="-0.192"
       y="-0.192"
       height="1.384"
       color-interpolation-filters="sRGB"
       id="filter3794-41"
       width="1.384">
      <feGaussianBlur
         stdDeviation="5.28"
         id="feGaussianBlur10" />
    </filter>
    <linearGradient
       x2="0"
       y1="90"
       y2="5.988"
       gradientUnits="userSpaceOnUse"
       id="linearGradient3182"
       gradientTransform="matrix(1.125,0,0,1.0417,-7.75,-3.25)">
      <stop
         stop-color="#8c8c8c"
         id="stop13" />
      <stop
         stop-color="#dcdcdc"
         offset="1"
         id="stop15" />
    </linearGradient>
    <linearGradient
       x2="0"
       y1="20.221"
       y2="138.66"
       gradientUnits="userSpaceOnUse"
       id="linearGradient90466">
      <stop
         stop-color="#fff"
         id="stop18" />
      <stop
         stop-color="#fff"
         stop-opacity="0"
         offset="1"
         id="stop20" />
    </linearGradient>
    <linearGradient
       x1="15.996"
       x2="79.996"
       gradientUnits="userSpaceOnUse"
       id="linearGradient90468"
       gradientTransform="matrix(0,1,-1,0,96,0.004)">
      <stop
         stop-color="#1e1e1e"
         id="stop23" />
      <stop
         stop-color="#505050"
         offset="1"
         id="stop25" />
    </linearGradient>
  </defs>
  <g
     id="g45">
    <path
       d="m 79.996,48.004 c 0,-2.216 -1.784,-4 -4,-4 l -24,0 c -2.216,0 -4,1.784 -4,4 0,2.216 1.784,4 4,4 l 24,0 c 2.216,0 4,-1.784 4,-4 z m -7.1875,11.688 a 4.0004,4.0004 0 0 0 -7.5,-1.6875 C 59.762,67.6114 47.6025,70.8635 37.9965,65.317 28.3896,59.7705 25.1375,47.611 30.684,38.005 36.2305,28.3981 48.39,25.146 57.996,30.6925 c 3.0406,1.7555 5.557,4.2719 7.3125,7.3125 a 4.0040263,4.0040263 0 0 0 6.9375,-4 c -2.4574,-4.2564 -5.9936,-7.7926 -10.25,-10.25 -13.351,-7.7083 -30.542,-3.1012 -38.25,10.25 -7.7083,13.351 -3.1012,30.542 10.25,38.25 13.351,7.7083 30.542,3.1012 38.25,-10.25 a 4.0004,4.0004 0 0 0 0.5625,-2.3125 z"
       id="path47"
       style="color:#000000;fill:url(#linearGradient90468)"
       inkscape:connector-curvature="0" />
    <path
       d="m 79.996,48.004 c 0.09191,-2.6099 -2.5544,-4.3945 -4.9845,-4 -7.8084,0.01371 -15.618,-0.02742 -23.426,0.02058 -3.2417,0.1602 -4.8226,4.6387 -2.4209,6.8104 1.8665,1.8098 4.6065,0.97786 6.9332,1.169 6.7691,-0.0137 13.54,0.02741 20.308,-0.02058 1.9923,-0.16204 3.6323,-1.9805 3.5899,-3.9794 z m -2,0 c 0.03411,2.1019 -2.2858,2.098 -3.805,2 -7.5365,-0.0258 -15.078,0.05162 -22.611,-0.03874 -2.7177,-0.51036 -1.5089,-4.7207 1.0726,-3.9613 7.9194,0.0258 15.844,-0.05162 23.76,0.03874 0.92713,0.1488 1.6145,1.0318 1.5837,1.9613 z m -5.1875,11.688 c -0.02315,-3.3256 -4.6143,-5.0608 -6.8313,-2.5817 -2.0501,3.2282 -4.5135,6.3427 -7.9407,8.2121 -7.6695,4.6405 -18.288,3.1045 -24.419,-3.4048 -6.4467,-6.3925 -7.4808,-17.282 -2.3955,-24.795 4.8478,-7.8474 15.489,-11.287 24.012,-7.7605 4.5118,1.692 8.1392,5.1736 10.541,9.2916 2.0691,2.6076 6.7587,1.1443 6.9777,-2.1772 0.15191,-2.782 -2.1813,-4.8644 -3.7076,-6.9376 -7.012,-8.209 -18.991,-11.571 -29.26,-8.279 -10.465,3.054 -18.536,12.755 -19.607,23.608 -1.343,11.04 4.582,22.549 14.446,27.739 9.8994,5.5559 23.073,4.1045 31.603,-3.3542 2.6315,-2.341 5.1051,-5.0794 6.4739,-8.3536 0.09674,-0.39376 0.13303,-0.80231 0.10723,-1.2069 z m -1.9688,0.125 c -0.13966,1.7487 -1.6437,3.0493 -2.5499,4.4623 -7.137,9.1873 -20.748,12.398 -31.227,7.3303 -10.07,-4.495 -16.383,-15.898 -14.878,-26.824 1.189,-10.932 10.077,-20.404 20.904,-22.312 10.601,-2.233 22.16,3.097 27.439,12.53 1.1049,1.69 -1.1533,3.8812 -2.8125,2.7188 -1.4058,-1.392 -2.1603,-3.3952 -3.676,-4.7498 -6.4493,-7.0859 -17.699,-9.0517 -26.15,-4.5012 -8.9967,4.4599 -13.904,15.561 -11.135,25.216 2.4137,9.7542 12.22,16.907 22.239,16.283 7.5783,-0.25118 14.693,-4.822 18.347,-11.404 1.1218,-1.3283 3.4402,-0.47947 3.5,1.25 z"
       id="path49"
       inkscape:connector-curvature="0"
       style="color:#000000;opacity:0.1" />
    <path
       d="m 79.996,48.004 c 0.09191,-2.6099 -2.5544,-4.3945 -4.9845,-4 -7.8084,0.01371 -15.618,-0.02742 -23.426,0.02058 -3.2417,0.1602 -4.8226,4.6387 -2.4209,6.8104 1.8665,1.8098 4.6065,0.97786 6.9332,1.169 6.7691,-0.0137 13.54,0.02741 20.308,-0.02058 1.9923,-0.16204 3.6323,-1.9805 3.5899,-3.9794 z m -0.96875,0 c 0.07434,2.6578 -2.7408,3.2722 -4.8362,3.0312 -7.6033,-0.03994 -15.214,0.08018 -22.813,-0.06059 -3.9054,-0.66278 -2.526,-6.8654 1.2742,-6.0019 l 23.344,0 c 1.6374,-0.04784 3.0789,1.3931 3.0312,3.0312 z m -6.2188,11.688 c -0.02315,-3.3256 -4.6143,-5.0608 -6.8313,-2.5817 -2.0501,3.2282 -4.5135,6.3427 -7.9407,8.2121 -7.6695,4.6405 -18.288,3.1045 -24.419,-3.4048 -6.4467,-6.3925 -7.4808,-17.282 -2.3955,-24.795 4.8478,-7.8474 15.489,-11.287 24.012,-7.7605 4.5118,1.692 8.1392,5.1736 10.541,9.2916 2.0691,2.6076 6.7587,1.1443 6.9777,-2.1772 0.15191,-2.782 -2.1813,-4.8644 -3.7076,-6.9376 -7.012,-8.209 -18.991,-11.571 -29.26,-8.279 -10.465,3.054 -18.536,12.755 -19.607,23.608 -1.343,11.04 4.582,22.549 14.446,27.739 9.8994,5.5559 23.073,4.1045 31.603,-3.3542 2.6315,-2.341 5.1051,-5.0794 6.4739,-8.3536 0.09674,-0.39376 0.13303,-0.80231 0.10723,-1.2069 z m -0.96875,0.0625 c -0.02689,2.1565 -1.8379,3.7624 -2.9758,5.4449 -7.195,8.966 -20.399,12.311 -31,7.87 -10.07,-3.914 -17.059,-14.359 -16.889,-25.16 -0.123,-10.976 7.202,-21.545 17.566,-25.213 10.226,-3.9927 22.652,-0.86621 29.778,7.4724 1.3593,1.915 3.6178,3.7937 3.4586,6.3362 -0.30251,2.7267 -4.3779,3.4663 -5.625,1.0312 -4.58,-8.221 -15.074,-12.49 -24.077,-9.655 -9.579,2.627 -16.263,12.763 -14.91,22.602 0.961,9.532 9.235,17.594 18.766,18.396 8.21,0.93253 16.569,-3.5899 20.502,-10.812 1.6066,-2.22 5.3232,-1.0521 5.4062,1.6875 z"
       id="path51"
       inkscape:connector-curvature="0"
       style="color:#000000;opacity:0.2" />
    <path
       d="M 47.406,20.031 C 37.945,20.252 28.809,25.238 23.75,34 21.162,38.483 19.978,43.406 20.031,48.25 20.144,43.734 21.341,39.172 23.75,35 31.458,21.649 48.649,17.042 62,24.75 66.256,27.207 69.793,30.744 72.25,35 a 4.004,4.004 0 0 1 0.5,1.4688 4.004,4.004 0 0 0 -0.5,-2.469 c -2.457,-4.256 -5.994,-7.793 -10.25,-10.25 -4.589,-2.65 -9.638,-3.834 -14.594,-3.719 z M 52,44 c -2.216,0 -4,1.784 -4,4 0,0.17027 0.0108,0.33544 0.03125,0.5 0.246,-1.977 1.923,-3.5 3.969,-3.5 l 24,0 c 2.0454,0 3.6913,1.5235 3.9375,3.5 0.02,-0.165 0.062,-0.329 0.062,-0.5 0,-2.216 -1.784,-4 -4,-4 l -24,0 z m -24,4.281 c -0.266,7.151 3.337,14.185 10,18.031 9.607,5.547 21.766,2.295 27.312,-7.312 a 4.0004,4.0004 0 0 1 7.469,1.5 4.0004,4.0004 0 0 0 0.031,-0.812 A 4.0004,4.0004 0 0 0 65.312,58 C 59.766,67.607 47.607,70.859 38,65.312 31.647,61.645 28.088,55.082 28,48.281 Z"
       id="path53"
       inkscape:connector-curvature="0"
       style="color:#000000;opacity:0.6" />
    <path
       d="M 48.531,28 C 41.445,27.803 34.501,31.395 30.688,38 28.809,41.254 27.955,44.798 28,48.281 28.117,45.121 28.988,41.944 30.688,39 36.234,29.393 48.393,26.141 58,31.688 61.041,33.443 63.557,35.959 65.312,39 A 4.004,4.004 0 0 0 72.75,36.469 4.004,4.004 0 0 1 65.312,38 C 63.557,34.959 61.041,32.443 58,30.688 54.998,28.954 51.752,28.089 48.531,28 Z m -0.5,20.5 C 48.011,48.665 48,48.83 48,49 c 0,2.216 1.784,4 4,4 l 24,0 c 2.216,0 4,-1.784 4,-4 0,-0.17065 -0.04196,-0.33509 -0.0625,-0.5 -0.247,1.977 -1.893,3.5 -3.938,3.5 l -24,0 c -2.0457,0 -3.723,-1.5229 -3.9688,-3.5 z m -28,0.09375 c -0.123,9.814 4.897,19.418 13.969,24.656 13.351,7.708 30.542,3.101 38.25,-10.25 a 4.0004,4.0004 0 0 0 0.562,-2.312 4.0004,4.0004 0 0 0 -0.031,-0.188 4.0004,4.0004 0 0 1 -0.531,1.5 c -7.708,13.351 -24.899,17.958 -38.25,10.25 -8.762,-5.059 -13.748,-14.195 -13.969,-23.656 z"
       id="path55"
       inkscape:connector-curvature="0"
       style="color:#000000;opacity:0.6;fill:#ffffff" />
  </g>
</svg>
