<?xml version="1.0" encoding="UTF-8" standalone="no"?>
<svg
   xmlns:dc="http://purl.org/dc/elements/1.1/"
   xmlns:cc="http://creativecommons.org/ns#"
   xmlns:rdf="http://www.w3.org/1999/02/22-rdf-syntax-ns#"
   xmlns:svg="http://www.w3.org/2000/svg"
   xmlns="http://www.w3.org/2000/svg"
   xmlns:xlink="http://www.w3.org/1999/xlink"
   xmlns:sodipodi="http://sodipodi.sourceforge.net/DTD/sodipodi-0.dtd"
   xmlns:inkscape="http://www.inkscape.org/namespaces/inkscape"
   height="96"
   width="96"
   id="svg1953"
   version="1.1"
   inkscape:version="0.91 r13725"
   sodipodi:docname="gnome-mines.svg">
  <metadata
     id="metadata2258">
    <rdf:RDF>
      <cc:Work
         rdf:about="">
        <dc:format>image/svg+xml</dc:format>
        <dc:type
           rdf:resource="http://purl.org/dc/dcmitype/StillImage" />
      </cc:Work>
    </rdf:RDF>
  </metadata>
  <sodipodi:namedview
     pagecolor="#ffffff"
     bordercolor="#666666"
     borderopacity="1"
     objecttolerance="10"
     gridtolerance="10"
     guidetolerance="10"
     inkscape:pageopacity="0"
     inkscape:pageshadow="2"
     inkscape:window-width="640"
     inkscape:window-height="480"
     id="namedview2256"
     showgrid="false"
     inkscape:zoom="2.4583333"
     inkscape:cx="48"
     inkscape:cy="48"
     inkscape:current-layer="svg1953" />
  <defs
     id="defs1955">
    <clipPath
       id="clipPath2973-9">
      <rect
         x="6"
         rx="6"
         y="6"
         height="84"
         width="84"
         id="rect1958" />
    </clipPath>
    <linearGradient
       id="linearGradient3802">
      <stop
         stop-color="#676767"
         id="stop1961" />
      <stop
         stop-color="#282828"
         offset="1"
         id="stop1963" />
    </linearGradient>
    <linearGradient
       x2="0"
       y1="90"
       y2="5.988"
       gradientUnits="userSpaceOnUse"
       id="linearGradient7267"
       gradientTransform="matrix(1.0565,0,0,1.0327,-3.339,-1.446)">
      <stop
         stop-color="#ff7612"
         id="stop1966" />
      <stop
         stop-color="#ffc149"
         offset="1"
         id="stop1968" />
    </linearGradient>
    <linearGradient
       x1="45"
       x2="51"
       gradientUnits="userSpaceOnUse"
       id="linearGradient7426"
       gradientTransform="matrix(1.0793,1.0793,-1.0793,1.0793,181.28,899.59)">
      <stop
         stop-color="#fff"
         id="stop1971" />
      <stop
         stop-color="#fff"
         stop-opacity="0"
         offset="0.5"
         id="stop1973" />
      <stop
         stop-color="#fff"
         stop-opacity="0"
         offset="1"
         id="stop1975" />
    </linearGradient>
    <radialGradient
       cy="47.746"
       r="3.532"
       xlink:href="#linearGradient3802"
       gradientUnits="userSpaceOnUse"
       id="radialGradient7434"
       cx="35.35"
       gradientTransform="matrix(0,-3.0634,2.2299,0,74.11,1130.3)" />
    <radialGradient
       cy="47.746"
       r="3.532"
       xlink:href="#linearGradient3802"
       gradientUnits="userSpaceOnUse"
       id="radialGradient7441"
       cx="35.35"
       gradientTransform="matrix(-3.0634,0,0,2.2299,308.49,895.96)" />
    <radialGradient
       cy="48"
       r="3"
       xlink:href="#linearGradient3802"
       gradientUnits="userSpaceOnUse"
       id="radialGradient7455"
       cx="48"
       gradientTransform="matrix(1.5263,0,0,1.5263,108.01,929.94)" />
    <radialGradient
       cy="47.746"
       r="3.532"
       xlink:href="#linearGradient3802"
       gradientUnits="userSpaceOnUse"
       id="radialGradient8299"
       cx="35.35"
       gradientTransform="matrix(2.007 0 0 1.4609 -35.35 -22.262)" />
    <linearGradient
       x1="45"
       x2="51"
       xlink:href="#linearGradient3802"
       gradientUnits="userSpaceOnUse"
       id="linearGradient8303"
       gradientTransform="matrix(0 1 -1 0 95.93 0.073)" />
    <linearGradient
       x1="45"
       x2="51"
       xlink:href="#linearGradient3802"
       gradientUnits="userSpaceOnUse"
       id="linearGradient8305"
       gradientTransform="matrix(1 0 0 -1 0 96)" />
    <linearGradient
       x1="45"
       x2="51"
       xlink:href="#linearGradient3802"
       gradientUnits="userSpaceOnUse"
       id="linearGradient8307" />
    <radialGradient
       cy="37.5"
       r="8"
       gradientUnits="userSpaceOnUse"
       id="radialGradient8319"
       cx="37.5"
       gradientTransform="matrix(3.0526,0,0,3.0526,59.17,881.09)">
      <stop
         stop-color="#828282"
         id="stop1985" />
      <stop
         stop-color="#555"
         offset="0.495"
         id="stop1987" />
      <stop
         stop-color="#3d3d3d"
         offset="0.747"
         id="stop1989" />
      <stop
         stop-color="#242424"
         offset="1"
         id="stop1991" />
    </radialGradient>
    <clipPath
       clipPathUnits="userSpaceOnUse"
       id="clipPath8568">
      <path
         d="m17.469 961.77c-6.668 0-12.031 5.3945-12.031 12.062v61.031c0 5.4178 3.5332 9.9818 8.4375 11.5h68.188c4.7148-1.4568 8.1719-5.7337 8.4375-10.875v-62.281c-0.32117-6.3771-5.5404-11.438-12-11.438h-61.031z"
         id="path1994" />
    </clipPath>
    <path
       d="m201.22 1003.3s-3.4387-4.6902-6.2025-4.6902c-6.1053 0-6.1053 9.1578 0 9.1578 2.4751-0.068 6.2025-4.4676 6.2025-4.4676z"
       id="SVGCleanerId_0" />
    <path
       d="m181.46 1023.1s-4.6902-3.4386-4.6902-6.2024c0-6.1053 9.1579-6.1053 9.1579 0-0.0688 2.475-4.4677 6.2024-4.4677 6.2024z"
       id="SVGCleanerId_1" />
    <path
       d="m51.846 33.096a3.9189 1.1036 0 1 1 -7.8377 0 3.9189 1.1036 0 1 1 7.8377 0z"
       color="#000000"
       id="SVGCleanerId_2"
       opacity="0.3" />
    <path
       d="m45 33 3-9 3 9s-3.1343 1.7015-6 0z"
       fill="url(#linearGradient8307)"
       id="SVGCleanerId_3" />
    <path
       d="m48 24-2.3172 9.3625c0.50038 0.17642 1.1541 0.36706 2.0086 0.40155l0.308-9.764z"
       fill="#fff"
       id="SVGCleanerId_4"
       opacity="0.15" />
    <path
       d="m48 24-1.75 9.5312c0.29647 0.08579 0.58693 0.153 0.875 0.1875l0.875-9.718z"
       fill="#fff"
       id="SVGCleanerId_5"
       opacity="0.3" />
    <path
       d="m45 63 3 9 3-9s-3.1343-1.7015-6 0z"
       id="SVGCleanerId_6" />
    <path
       d="m48 72-2.3172-9.3625c0.50038-0.17642 1.1541-0.36706 2.0086-0.40155l0.308 9.764z"
       fill="#fff"
       id="SVGCleanerId_7"
       opacity="0.15" />
    <path
       d="m48 72-1.75-9.5312c0.29647-0.08579 0.58693-0.153 0.875-0.1875l0.875 9.718z"
       fill="#fff"
       id="SVGCleanerId_8"
       opacity="0.3" />
    <path
       d="m62.927 45.073 9 3-9 3s-1.7015-3.1343 0-6z"
       id="SVGCleanerId_9" />
    <path
       d="m71.927 48.073-9.3625-2.3172c-0.17642 0.50038-0.36706 1.1541-0.40155 2.0086l9.7641 0.30858z"
       fill="#fff"
       id="SVGCleanerId_10"
       opacity="0.15" />
    <path
       d="m71.927 48.073-9.5312-1.75c-0.08579 0.29647-0.153 0.58693-0.1875 0.875l9.7188 0.875z"
       fill="#fff"
       id="SVGCleanerId_11"
       opacity="0.3" />
    <path
       d="m42.553 47.953a3.3662 3.652 0 1 1 -6.7323 0 3.3662 3.652 0 1 1 6.7323 0z"
       color="#000000"
       id="SVGCleanerId_12"
       opacity="0.5" />
    <path
       d="m34.936 48.073s2.253-3.073 4.064-3.073c4 0 4 6 0 6-1.6216-0.04504-4.0637-2.9271-4.0637-2.9271z"
       fill="url(#radialGradient8299)"
       id="SVGCleanerId_13" />
    <path
       d="m40.344 45.281-5.344 2.719 6.969-0.188c-0.0586-1.0466-0.58934-2.0583-1.625-2.5312z"
       fill="#fff"
       id="SVGCleanerId_14"
       opacity="0.15" />
    <path
       d="m40.875 45.625-5.8125 2.4375 6.6875-1.25c-0.182-0.458-0.474-0.873-0.875-1.187z"
       fill="#fff"
       id="SVGCleanerId_15"
       opacity="0.3" />
    <linearGradient
       inkscape:collect="always"
       xlink:href="#linearGradient3802"
       id="linearGradient11506"
       gradientUnits="userSpaceOnUse"
       gradientTransform="matrix(1,0,0,-1,0,96)"
       x1="45"
       x2="51" />
    <linearGradient
       inkscape:collect="always"
       xlink:href="#linearGradient3802"
       id="linearGradient11508"
       gradientUnits="userSpaceOnUse"
       gradientTransform="matrix(0,1,-1,0,95.93,0.073)"
       x1="45"
       x2="51" />
    <linearGradient
       inkscape:collect="always"
       xlink:href="#linearGradient3802"
       id="linearGradient11510"
       gradientUnits="userSpaceOnUse"
       gradientTransform="matrix(1,0,0,-1,0,96)"
       x1="45"
       x2="51" />
    <linearGradient
       inkscape:collect="always"
       xlink:href="#linearGradient3802"
       id="linearGradient11512"
       gradientUnits="userSpaceOnUse"
       gradientTransform="matrix(0,1,-1,0,95.93,0.073)"
       x1="45"
       x2="51" />
    <linearGradient
       inkscape:collect="always"
       xlink:href="#linearGradient3802"
       id="linearGradient11514"
       gradientUnits="userSpaceOnUse"
       gradientTransform="matrix(1,0,0,-1,0,96)"
       x1="45"
       x2="51" />
    <linearGradient
       inkscape:collect="always"
       xlink:href="#linearGradient3802"
       id="linearGradient11516"
       gradientUnits="userSpaceOnUse"
       gradientTransform="matrix(0,1,-1,0,95.93,0.073)"
       x1="45"
       x2="51" />
    <linearGradient
       inkscape:collect="always"
       xlink:href="#linearGradient14231"
       id="linearGradient14237"
       x1="50.707542"
       y1="81.682442"
       x2="50.707542"
       y2="96.539803"
       gradientUnits="userSpaceOnUse" />
    <linearGradient
       inkscape:collect="always"
       id="linearGradient14231">
      <stop
         style="stop-color:#000000;stop-opacity:1;"
         offset="0"
         id="stop14233" />
      <stop
         style="stop-color:#000000;stop-opacity:0;"
         offset="1"
         id="stop14235" />
    </linearGradient>
    <linearGradient
       inkscape:collect="always"
       xlink:href="#linearGradient14239"
       id="linearGradient14245"
       x1="49.876652"
       y1="87.937508"
       x2="49.876652"
       y2="76.719681"
       gradientUnits="userSpaceOnUse" />
    <linearGradient
       inkscape:collect="always"
       id="linearGradient14239">
      <stop
         style="stop-color:#ffffff;stop-opacity:1;"
         offset="0"
         id="stop14241" />
      <stop
         style="stop-color:#ffffff;stop-opacity:0;"
         offset="1"
         id="stop14243" />
    </linearGradient>
  </defs>
  <rect
     style="fill-opacity:0.03900003"
     id="rect2014"
     width="88.760002"
     height="88.760002"
     y="3.6000221"
     rx="12.552"
     x="3.608" />
  <rect
     style="fill-opacity:0.078"
     id="rect2016"
     width="87.550003"
     height="87.550003"
     y="4.2100072"
     rx="12.38"
     x="4.2160001" />
  <rect
     style="fill-opacity:0.15700001"
     id="rect2018"
     width="86.330002"
     height="86.330002"
     y="4.8199925"
     rx="12.208"
     x="4.8239999" />
  <path
     inkscape:connector-curvature="0"
     style="fill:url(#linearGradient7267)"
     id="path2020"
     d="m 17.469,5.4062 c -6.668,0 -12.032,5.3948 -12.032,12.063 l 5e-4,61.031 c 0,5.418 3.5332,9.982 8.4375,11.5 l 68.187,0 c 4.715,-1.457 8.172,-5.734 8.438,-10.875 l 0,-62.281 c -0.321,-6.377 -5.54,-11.438 -12,-11.438 l -61.031,2e-4 z" />
  <g
     id="g2022"
     clip-path="url(#clipPath8568)"
     transform="translate(0,-956.36)">
    <g
       id="g2024"
       transform="matrix(1.0253,0,0,1.0253,-137.51,-25.34)">
      <g
         style="opacity:0.9;fill:#ff0000"
         id="g2026"
         transform="translate(133.17,955.42)"
         clip-path="url(#clipPath2973-9)">
        <path
           style="opacity:0.15"
           inkscape:connector-curvature="0"
           id="path2028"
           d="M 48,48 72,-8 88,-8 48,48 Z" />
        <path
           style="opacity:0.15"
           inkscape:connector-curvature="0"
           id="path2030"
           d="M 48,48 103.25,73.677 102.77,89.67 48,48 Z" />
        <path
           style="opacity:0.15"
           inkscape:connector-curvature="0"
           id="path2032"
           d="M 48,48 -11.828,59.516 -20.797,46.266 48,48 Z" />
        <path
           style="opacity:0.15"
           inkscape:connector-curvature="0"
           id="path2034"
           d="M 48,48 -1.311,12.217 2.2249,-3.387 47.9999,48 Z" />
        <path
           style="opacity:0.15"
           inkscape:connector-curvature="0"
           id="path2036"
           d="M 48,48 65.519,-14.073 95.955,-1.359 48,48 Z" />
        <path
           style="opacity:0.15"
           inkscape:connector-curvature="0"
           id="path2038"
           d="M 48,48 109.64,28.999 115.49,61.46 48,48 Z" />
        <path
           style="opacity:0.15"
           inkscape:connector-curvature="0"
           id="path2040"
           d="M 48,48 16.754,104.42 -9.969,85.089 48,48 Z" />
        <path
           style="opacity:0.15"
           inkscape:connector-curvature="0"
           id="path2042"
           d="M 48,48 -14.812,33.349 -3.508,2.361 48,48 Z" />
        <path
           style="opacity:0.15"
           inkscape:connector-curvature="0"
           id="path2044"
           d="M 48,48 93.81,93.403 90.118,102.43 48,48 Z" />
        <path
           style="opacity:0.15"
           inkscape:connector-curvature="0"
           id="path2046"
           d="m 48,48 -2.9701,64.43 -9.1685,3.31 L 47.9994,48 Z" />
        <path
           style="opacity:0.15"
           inkscape:connector-curvature="0"
           id="path2048"
           d="M 48,48 3.141,94.343 -5.9239,90.758 48.0001,48 Z" />
        <path
           style="opacity:0.15"
           inkscape:connector-curvature="0"
           id="path2050"
           d="M 48,48 -14.116,65.366 -20.132,57.696 48,48 Z" />
        <path
           style="opacity:0.15"
           inkscape:connector-curvature="0"
           id="path2052"
           d="M 48,48 18.853,-9.537 25.203,-16.933 48,48 Z" />
        <path
           style="opacity:0.15"
           inkscape:connector-curvature="0"
           id="path2054"
           d="m 48,48 59.482,-24.939 6.921,6.8641 L 48,47.9991 Z" />
        <path
           style="opacity:0.15"
           inkscape:connector-curvature="0"
           id="path2056"
           d="M 48,48 88.187,93.793 81.29,108.23 48,48 Z" />
        <path
           style="opacity:0.15"
           inkscape:connector-curvature="0"
           id="path2058"
           d="M 48,48 12.042,-1.184 20.194,-14.951 48,48 Z" />
      </g>
      <path
         style="color:#000000;opacity:0.05"
         inkscape:connector-curvature="0"
         id="path2060"
         d="m 180.79,971.45 c -1.3428,0.26231 -2.0877,1.3638 -2.4375,2.3125 -0.34982,0.94873 -0.50661,1.8627 -0.75,2.375 a 0.98518,0.98518 0 0 0 -0.0625,0.125 l -2.0312,6.0938 c -1.0258,0.26193 -2.0181,0.68831 -2.6875,0.90625 -0.41984,0.13669 -0.71814,0.13839 -0.90625,0.0937 -0.18811,-0.0446 -0.34628,-0.1203 -0.625,-0.5625 a 0.98518,0.98518 0 0 0 -0.28125,-0.28125 c -0.54482,-0.38593 -1.0898,-1.0029 -1.75,-1.625 -0.6602,-0.6221 -1.4752,-1.2699 -2.5625,-1.5312 a 0.98518,0.98518 0 0 0 -0.0937,0 c -1.2001,-0.13517 -2.2798,0.5229 -2.8125,1.4062 -0.49566,0.82191 -0.58238,1.8483 -0.21875,2.8125 l -0.0313,0 0.0625,0.21875 1.0312,5.125 c -0.24066,0.46419 -0.45359,0.55686 -0.8125,0.59375 -0.42445,0.0436 -1.1442,-0.0944 -1.9688,-0.3125 a 0.98518,0.98518 0 0 0 -0.125,-0.0313 c -0.58687,-0.0786 -1.503,-0.4299 -2.5312,-0.53125 -0.5141,-0.0507 -1.0917,-0.0268 -1.6562,0.1875 -0.56456,0.21426 -1.0847,0.64634 -1.4375,1.25 a 0.98518,0.98518 0 0 0 -0.0313,0.0313 c -0.33077,0.61775 -0.4207,1.311 -0.3125,1.9062 0.1082,0.59521 0.3816,1.0775 0.6875,1.5 0.6118,0.84498 1.378,1.4886 1.75,1.9688 a 0.98518,0.98518 0 0 0 0.15625,0.15625 c 0.68839,0.56687 1.0662,1.1008 1.1875,1.5625 0.10398,0.39576 -0.0526,0.88378 -0.375,1.5 -3.094,1.0688 -6.2912,2.0386 -9.4062,3.25 a 0.98518,0.98518 0 0 0 -0.15625,0.063 c -2.3139,1.39 -1.3774,4.9857 1.1562,5.4062 l -0.0313,0.063 8.5312,2.8125 c 0.25865,0.9791 0.62398,1.9285 0.8125,2.5625 0.11852,0.3986 0.14186,0.6621 0.0937,0.8438 -0.0481,0.1817 -0.13547,0.3554 -0.5625,0.625 a 0.98518,0.98518 0 0 0 -0.28125,0.2812 c -0.78785,1.1157 -2.6484,2.1636 -3.1875,4.3438 a 0.98518,0.98518 0 0 0 0,0.125 c -0.13508,1.2001 0.52294,2.2801 1.4062,2.8125 0.82188,0.4954 1.8485,0.5814 2.8125,0.2187 l 0,0.031 0.21875,-0.063 5.1562,-1.0313 c 0.40786,0.2087 0.50819,0.3714 0.53125,0.7188 0.0279,0.42 -0.17777,1.1747 -0.375,2 a 0.98518,0.98518 0 0 0 0,0.094 c -0.0786,0.587 -0.4299,1.5032 -0.53125,2.5314 -0.0507,0.5141 -0.0268,1.0917 0.1875,1.6562 0.21426,0.5646 0.64634,1.0847 1.25,1.4375 a 0.98518,0.98518 0 0 0 0.0313,0.031 c 0.61577,0.3294 1.3126,0.417 1.9062,0.3125 0.59368,-0.1046 1.0774,-0.3857 1.5,-0.6875 0.84526,-0.604 1.4853,-1.3488 1.9688,-1.7189 a 0.98518,0.98518 0 0 0 0.15625,-0.1561 c 0.56738,-0.7004 1.093,-1.0779 1.5625,-1.1875 0.40516,-0.095 0.92697,0.096 1.5625,0.4375 1.0586,3.0617 2.0161,6.2282 3.2188,9.3125 a 0.98518,0.98518 0 0 0 0.0625,0.1561 c 1.3902,2.3133 4.9829,1.3756 5.4062,-1.1561 l 0.0625,0.031 2.8125,-8.375 c 1.0114,-0.2646 1.9935,-0.6903 2.6562,-0.9061 0.42006,-0.1368 0.71865,-0.1384 0.90625,-0.094 0.1876,0.045 0.34707,0.1198 0.625,0.5625 a 0.98518,0.98518 0 0 0 0.28125,0.2813 c 0.52145,0.3546 1.0822,1.0047 1.7812,1.6562 0.69903,0.6515 1.6455,1.3232 2.875,1.375 a 0.98518,0.98518 0 0 0 0.0625,0 c 1.1682,-0.051 2.0981,-0.8156 2.5,-1.7187 0.37092,-0.8334 0.38928,-1.7815 0.0625,-2.6563 l -0.0625,-0.2187 -0.9375,-4.6875 c 0.23747,-0.4152 0.44878,-0.5348 0.8125,-0.5625 0.43754,-0.033 1.1434,0.1717 1.9688,0.375 a 0.98518,0.98518 0 0 0 0.0937,0 c 0.58654,0.087 1.4992,0.3966 2.5,0.4687 0.50039,0.036 1.0508,0 1.5938,-0.2187 0.54299,-0.2218 1.0394,-0.6318 1.375,-1.2188 a 0.98518,0.98518 0 0 0 0.0313,-0.031 c 0.33093,-0.6178 0.42021,-1.3108 0.3125,-1.9063 -0.10771,-0.5954 -0.38162,-1.0771 -0.6875,-1.5 -0.61176,-0.8457 -1.3755,-1.4881 -1.75,-1.9687 a 0.98518,0.98518 0 0 0 -0.0937,-0.094 c -0.5389,-0.534 -0.98246,-1.0332 -1.125,-1.3437 -0.14254,-0.3106 -0.20357,-0.3927 0.21875,-0.9375 a 0.98518,0.98518 0 0 0 0.21875,-0.5938 c -1.6e-4,-0.2129 -0.003,-0.2127 0.0313,-0.25 0.0342,-0.037 0.17594,-0.1074 0.40625,-0.1875 0.43325,-0.1507 1.1772,-0.2606 1.9375,-0.625 l 0,0.031 c 0.0414,-0.015 0.0834,-0.047 0.125,-0.063 2.2246,-0.8153 4.6758,-1.3836 7,-2.4688 a 0.98518,0.98518 0 0 0 0.15625,-0.094 c 2.1266,-1.5033 1.0924,-4.8647 -1.3438,-5.2813 l 0.0313,-0.063 -8.25,-2.7499 c -0.24179,-1.0855 -0.67374,-2.0381 -0.90625,-2.75 -0.14287,-0.43745 -0.17028,-0.76684 -0.125,-0.96875 0.0453,-0.20192 0.11599,-0.371 0.5625,-0.65625 a 0.98518,0.98518 0 0 0 0.28125,-0.28125 c 0.34917,-0.51721 0.98677,-1.0851 1.625,-1.7812 0.63823,-0.69614 1.296,-1.6277 1.3438,-2.8438 a 0.98518,0.98518 0 0 0 0,-0.0625 c -0.0509,-1.1681 -0.81558,-2.0977 -1.7188,-2.5 -0.83348,-0.37127 -1.7811,-0.39042 -2.6562,-0.0625 -0.0732,0.0274 -0.14682,0.03 -0.21875,0.0625 l -4.6562,0.9375 c -0.46431,-0.2497 -0.58649,-0.44842 -0.625,-0.8125 -0.0455,-0.43056 0.0923,-1.1754 0.3125,-2 a 0.98518,0.98518 0 0 0 0.0313,-0.0937 c 0.0855,-0.5861 0.41513,-1.5212 0.5,-2.5312 0.0424,-0.50505 0.0312,-1.0427 -0.1875,-1.5938 -0.21867,-0.55106 -0.65682,-1.0649 -1.25,-1.4062 a 0.98518,0.98518 0 0 0 -0.0313,-0.0313 c -0.61775,-0.33065 -1.3112,-0.42104 -1.9062,-0.3125 -0.59505,0.10854 -1.0778,0.38158 -1.5,0.6875 -0.84444,0.61184 -1.4889,1.3797 -1.9688,1.75 a 0.98518,0.98518 0 0 0 -0.1875,0.1875 c -0.52896,0.69772 -0.97301,0.95762 -1.4375,1.0312 -0.39559,0.0627 -0.95426,-0.12596 -1.5938,-0.4375 -1.0904,-3.1077 -1.9964,-6.3542 -3.3125,-9.5 a 0.98518,0.98518 0 0 0 -0.125,-0.21875 c -0.6473,-0.86751 -1.7025,-1.2746 -2.75,-1.1562 a 0.98518,0.98518 0 0 0 -0.0625,0 z" />
      <path
         style="color:#000000;opacity:0.1"
         inkscape:connector-curvature="0"
         id="path2062"
         d="m 180.94,965.35 a 1.214,1.214 0 0 0 -0.0763,0.0382 c -2e-4,4e-5 -0.15244,0.0381 -0.15263,0.0382 -2e-4,5e-5 -0.15244,0.0381 -0.15264,0.0382 -1.9e-4,6e-5 -0.15244,0.0381 -0.15263,0.0382 -1.8e-4,7e-5 -0.15245,0.0762 -0.15263,0.0763 -1.8e-4,9e-5 -0.15246,0.0762 -0.15263,0.0763 -1.7e-4,10e-5 -0.15246,0.0762 -0.15263,0.0763 -1.7e-4,1.1e-4 -0.11429,0.11441 -0.11441,0.11441 -1.6e-4,1.2e-4 -0.15249,0.11429 -0.15264,0.11441 -1.4e-4,1.3e-4 -0.11429,0.11429 -0.11441,0.11441 -1.3e-4,1.5e-4 -0.11429,0.11429 -0.11441,0.11442 -1.4e-4,1.4e-4 -0.0762,0.11429 -0.0763,0.11441 -1.2e-4,1.6e-4 -0.11441,0.15246 -0.11441,0.15263 -1.1e-4,1.7e-4 -0.0762,0.15246 -0.0763,0.15263 -1e-4,1.7e-4 -0.0762,0.11429 -0.0763,0.11441 -9e-5,1.9e-4 -0.0762,0.15245 -0.0763,0.15264 -6e-5,1.4e-4 -0.0243,0.11319 -0.0382,0.15263 -0.004,0.01 2e-5,0.0381 0,0.0382 l -3.7776,11.333 c -1.8478,0.43656 -3.6337,1.0782 -5.3039,1.8697 l -5.304,-4.6934 a 1.214,1.214 0 0 0 -0.0382,-0.0382 c -1.7e-4,-1.5e-4 -0.15245,-0.0762 -0.15263,-0.0763 -1.8e-4,-1.2e-4 -0.15244,-0.11441 -0.15263,-0.11441 -2e-4,-1.1e-4 -0.15244,-0.0762 -0.15263,-0.0763 -2e-4,-10e-5 -0.15243,-0.0762 -0.15263,-0.0763 -2.1e-4,-9e-5 -0.19059,-0.0763 -0.19079,-0.0763 -2.1e-4,-7e-5 -0.19057,-0.0381 -0.19079,-0.0382 -2.2e-4,-5e-5 -0.15241,-0.0381 -0.15263,-0.0382 -2.2e-4,-3e-5 -0.19057,-0.0381 -0.19079,-0.0382 -2.2e-4,-10e-6 -0.19057,0 -0.19079,0 -2.2e-4,0 -0.19057,-10e-6 -0.19079,0 -2.2e-4,2e-5 -0.19057,0.0381 -0.19079,0.0382 -2.2e-4,4e-5 -0.15241,-5e-5 -0.15263,0 -2.2e-4,5e-5 -0.19059,0.0763 -0.19079,0.0763 -2.1e-4,6e-5 -0.19058,0.0381 -0.19079,0.0382 -2.1e-4,8e-5 -0.15244,0.0762 -0.15263,0.0763 -2e-4,10e-5 -0.15244,0.0762 -0.15264,0.0763 -1.9e-4,1.1e-4 -0.15244,0.11441 -0.15263,0.11441 -1.8e-4,1.2e-4 -0.15246,0.11429 -0.15263,0.11441 -1.7e-4,1.4e-4 -0.15247,0.11429 -0.15263,0.11442 -1.6e-4,1.4e-4 -0.11429,0.11429 -0.11441,0.11441 -1.5e-4,1.6e-4 -0.1525,0.15246 -0.15263,0.15263 -1.4e-4,1.7e-4 -0.0762,0.15245 -0.0763,0.15263 -1.2e-4,1.9e-4 -0.11441,0.15244 -0.11441,0.15263 -1.1e-4,2e-4 -0.0762,0.15244 -0.0763,0.15264 -1e-4,1.9e-4 -0.0762,0.19058 -0.0763,0.19078 -9e-5,2.1e-4 -0.0763,0.19059 -0.0763,0.19079 -6e-5,2.1e-4 -0.0381,0.15242 -0.0382,0.15264 -5e-5,2.2e-4 -0.0381,0.19057 -0.0382,0.19079 -2e-5,2.1e-4 1e-5,0.19056 0,0.19078 -10e-6,2.2e-4 0,0.19057 0,0.19079 0,2.2e-4 -2e-5,0.15242 0,0.15264 3e-5,2.2e-4 0.0381,0.19057 0.0382,0.19078 a 1.214,1.214 0 0 0 0,0.0382 l 1.6026,7.8224 c -0.60615,0.61331 -1.1697,1.2736 -1.7171,1.946 l -6.3724,-1.2974 a 1.214,1.214 0 0 0 -0.0382,0 c -2.2e-4,-3e-5 -0.19057,-0.0381 -0.19079,-0.0382 -2.2e-4,-3e-5 -0.15241,0 -0.15263,0 -2.2e-4,0 -0.19057,-2e-5 -0.19079,0 -2.2e-4,10e-6 -0.19057,-4e-5 -0.19079,0 -2.2e-4,3e-5 -0.19057,0.0381 -0.19079,0.0382 -2.2e-4,5e-5 -0.15242,0.0381 -0.15263,0.0382 -2.1e-4,6e-5 -0.19058,0.0762 -0.19079,0.0763 -2.1e-4,7e-5 -0.19059,0.0762 -0.19079,0.0763 -1.9e-4,9e-5 -0.15243,0.0762 -0.15263,0.0763 -2e-4,1.1e-4 -0.15245,0.11441 -0.15263,0.11441 -1.8e-4,1.3e-4 -0.15246,0.0762 -0.15263,0.0763 -1.7e-4,1.3e-4 -0.15248,0.15248 -0.15263,0.15263 -1.6e-4,1.5e-4 -0.1143,0.11429 -0.11442,0.11441 -1.4e-4,1.6e-4 -0.11429,0.15246 -0.11441,0.15264 -1.3e-4,1.7e-4 -0.11429,0.15244 -0.11441,0.15263 -1.2e-4,1.8e-4 -0.11442,0.15243 -0.11442,0.15263 -1e-4,1.9e-4 -0.0762,0.15243 -0.0763,0.15263 -1e-4,2e-4 -0.0762,0.15242 -0.0763,0.15263 -8e-5,2.1e-4 -0.0381,0.19058 -0.0382,0.19079 -6e-5,2.1e-4 -0.0763,0.19057 -0.0763,0.19079 -5e-5,2.2e-4 4e-5,0.15241 0,0.15263 -4e-5,2.2e-4 -0.0381,0.19057 -0.0382,0.19079 -1e-5,2.2e-4 0,0.19057 0,0.19079 0,2.2e-4 -1e-5,0.19057 0,0.19079 1e-5,2.2e-4 0.0381,0.19057 0.0382,0.19079 4e-5,2.2e-4 0.0381,0.15241 0.0382,0.15263 5e-5,2.2e-4 0.0381,0.19058 0.0382,0.19079 6e-5,2.1e-4 0.0762,0.19058 0.0763,0.19079 9e-5,2.1e-4 0.0762,0.15244 0.0763,0.15263 1e-4,2e-4 0.0762,0.15244 0.0763,0.15263 1.1e-4,2e-4 0.11429,0.15245 0.11442,0.15263 1.2e-4,1.9e-4 0.0762,0.15247 0.0763,0.15264 a 1.214,1.214 0 0 0 0.0382,0.0382 l 4.35,4.8842 c -0.38616,1.0288 -0.69188,2.1068 -0.95395,3.2053 l -11.486,3.85402 a 1.214,1.214 0 0 0 -0.0382,0 c -2.1e-4,10e-5 -0.19059,0.076 -0.19079,0.077 -1.9e-4,10e-5 -0.15244,0.076 -0.15263,0.077 -2e-4,10e-5 -0.15245,0.1148 -0.15263,0.1148 -1.9e-4,10e-5 -0.15246,0.1148 -0.15263,0.1148 -1.7e-4,10e-5 -0.15248,0.1147 -0.15264,0.1147 -1.5e-4,3e-4 -0.11429,0.1148 -0.11441,0.1148 -1.4e-4,10e-5 -0.11429,0.1525 -0.11441,0.1527 -1.3e-4,10e-5 -0.11429,0.1525 -0.11441,0.1526 -1.3e-4,10e-5 -0.11442,0.1524 -0.11442,0.1526 -1.1e-4,3e-4 -0.0762,0.1524 -0.0763,0.1526 -10e-5,3e-4 -0.0762,0.1524 -0.0763,0.1527 -8e-5,2e-4 -0.0763,0.1906 -0.0763,0.1907 -6e-5,3e-4 -0.0381,0.1906 -0.0382,0.1909 -5e-5,2e-4 -0.0381,0.1523 -0.0382,0.1526 -4e-5,2e-4 1e-5,0.1906 0,0.1907 -1e-5,3e-4 -0.0382,0.1906 -0.0382,0.1909 0,2e-4 0.0381,0.1906 0.0382,0.1907 1e-5,2e-4 -4e-5,0.1906 0,0.1908 4e-5,3e-4 0.0381,0.1524 0.0382,0.1527 5e-5,2e-4 0.0381,0.1906 0.0382,0.1907 6e-5,3e-4 0.0762,0.1906 0.0763,0.1909 9e-5,2e-4 0.0762,0.1523 0.0763,0.1526 l 0.0763,0.1526 c 1.1e-4,3e-4 0.11429,0.1525 0.11442,0.1527 1.2e-4,1e-4 0.11429,0.1525 0.11441,0.1526 1.3e-4,10e-5 0.11429,0.1525 0.11441,0.1526 1.5e-4,10e-5 0.11429,0.1148 0.11441,0.1148 1.6e-4,2e-4 0.15247,0.1148 0.15264,0.1148 1.7e-4,10e-5 0.15244,0.1148 0.15263,0.1148 1.8e-4,10e-5 0.15243,0.1147 0.15263,0.1147 1.9e-4,2e-4 0.15244,0.076 0.15263,0.077 2e-4,10e-5 0.19058,0.076 0.19079,0.077 a 1.214,1.214 0 0 0 0.0382,0 l 11.562,3.8158 c 0.41924,1.7601 1.0049,3.4603 1.7553,5.0749 l -4.7316,5.3803 a 1.214,1.214 0 0 0 -0.0382,0.038 c -1.3e-4,2e-4 -0.0762,0.1525 -0.0763,0.1526 -1.2e-4,3e-4 -0.11441,0.1525 -0.11441,0.1526 -1.1e-4,3e-4 -0.0762,0.1526 -0.0763,0.1527 -1e-4,2e-4 -0.0762,0.1525 -0.0763,0.1526 -8e-5,3e-4 -0.0763,0.1906 -0.0763,0.1909 -7e-5,2e-4 -0.0381,0.1906 -0.0382,0.1907 -5e-5,2e-4 -0.0381,0.1525 -0.0382,0.1526 -4e-5,3e-4 -0.0381,0.1906 -0.0382,0.1909 -1e-5,2e-4 0,0.1906 0,0.1907 0,2e-4 -1e-5,0.1906 0,0.1909 1e-5,2e-4 0.0381,0.1906 0.0382,0.1907 4e-5,2e-4 -5e-5,0.1525 0,0.1526 5e-5,3e-4 0.0762,0.1906 0.0763,0.1909 6e-5,2e-4 0.0381,0.1906 0.0382,0.1907 8e-5,2e-4 0.0762,0.1525 0.0763,0.1526 10e-5,3e-4 0.0762,0.1525 0.0763,0.1527 1.1e-4,2e-4 0.11429,0.1525 0.11441,0.1526 1.2e-4,2e-4 0.11429,0.1525 0.11441,0.1526 1.4e-4,3e-4 0.11429,0.1525 0.11442,0.1526 1.4e-4,3e-4 0.11429,0.1148 0.11441,0.1148 1.6e-4,2e-4 0.15246,0.1525 0.15263,0.1527 1.7e-4,10e-5 0.15245,0.076 0.15263,0.077 1.8e-4,10e-5 0.15244,0.1148 0.15263,0.1148 2e-4,10e-5 0.15244,0.077 0.15263,0.077 2e-4,10e-5 0.19059,0.077 0.19079,0.077 2.1e-4,10e-5 0.19059,0.077 0.19079,0.077 2.1e-4,2e-4 0.15241,0.038 0.15263,0.038 2.2e-4,0 0.19057,0.038 0.19079,0.038 2.2e-4,2e-4 0.19057,0 0.19079,0 2.2e-4,2e-4 0.19057,2e-4 0.19079,0 2.2e-4,0 0.15241,2e-4 0.15263,0 2.2e-4,0 0.19057,-0.038 0.19079,-0.038 a 1.214,1.214 0 0 0 0.0382,0 l 7.8605,-1.6026 c 0.58051,0.5676 1.2064,1.0931 1.8316,1.6026 l -1.2974,6.3723 a 1.214,1.214 0 0 0 0,0.038 c -4e-5,2e-4 -0.0381,0.1906 -0.0382,0.1907 -3e-5,2e-4 0,0.1525 0,0.1526 0,3e-4 -1e-5,0.1906 0,0.1909 10e-6,2e-4 -3e-5,0.1906 0,0.1907 2e-5,2e-4 0.0381,0.1906 0.0382,0.1908 5e-5,3e-4 0.0381,0.1524 0.0382,0.1527 6e-5,2e-4 0.0762,0.1906 0.0763,0.1907 9e-5,2e-4 0.0762,0.1906 0.0763,0.1909 1e-4,2e-4 0.0762,0.1523 0.0763,0.1526 1.1e-4,2e-4 0.11429,0.1525 0.11442,0.1526 1.2e-4,3e-4 0.0762,0.1525 0.0763,0.1526 1.4e-4,2e-4 0.15249,0.1526 0.15263,0.1527 1.5e-4,1e-4 0.11429,0.1148 0.11442,0.1148 1.6e-4,2e-4 0.15246,0.1147 0.15263,0.1147 1.7e-4,2e-4 0.15245,0.1148 0.15263,0.1148 1.8e-4,3e-4 0.15244,0.1148 0.15263,0.1148 2e-4,10e-5 0.15244,0.076 0.15263,0.077 2e-4,10e-5 0.15243,0.076 0.15263,0.077 2.1e-4,2e-4 0.19059,0.038 0.19079,0.038 2.1e-4,10e-5 0.19057,0.077 0.19079,0.077 2.2e-4,2e-4 0.15242,0 0.15263,0 2.2e-4,2e-4 0.19057,0.038 0.19079,0.038 l 0.19079,0 0.19079,0 c 2.2e-4,0 0.19057,-0.038 0.19079,-0.038 2.2e-4,0 0.15241,-0.038 0.15263,-0.038 2.2e-4,0 0.19059,-0.038 0.19079,-0.038 2.1e-4,0 0.19059,-0.076 0.19079,-0.077 2.1e-4,0 0.15244,-0.076 0.15263,-0.077 2e-4,0 0.15244,-0.076 0.15264,-0.077 1.9e-4,0 0.15244,-0.1147 0.15263,-0.1147 1.8e-4,-2e-4 0.15246,-0.076 0.15263,-0.077 a 1.214,1.214 0 0 0 0.0382,-0.038 l 4.8842,-4.3118 c 1.0568,0.4038 2.1548,0.7595 3.2816,1.0302 l 3.8158,11.371 a 1.214,1.214 0 0 0 0,0.038 c 8e-5,3e-4 0.0762,0.1906 0.0763,0.1907 1e-4,3e-4 0.0762,0.1525 0.0763,0.1527 1.1e-4,2e-4 0.11429,0.1525 0.11441,0.1526 1.2e-4,2e-4 0.11429,0.1525 0.11441,0.1526 1.4e-4,3e-4 0.11429,0.1525 0.11441,0.1527 1.5e-4,2e-4 0.11429,0.1147 0.11442,0.1147 1.6e-4,2e-4 0.15246,0.1148 0.15263,0.1148 1.7e-4,3e-4 0.15245,0.1148 0.15263,0.1148 1.8e-4,10e-5 0.15244,0.1148 0.15263,0.1148 2e-4,10e-5 0.15244,0.077 0.15263,0.077 2e-4,10e-5 0.15243,0.077 0.15263,0.077 2.1e-4,2e-4 0.19059,0.077 0.19079,0.077 2.1e-4,10e-5 0.19057,0.038 0.19079,0.038 2.2e-4,0 0.15242,0.038 0.15263,0.038 2.2e-4,10e-5 0.19057,0 0.19079,0 2.2e-4,10e-5 0.19057,0.038 0.19079,0.038 2.2e-4,0 0.19057,-0.038 0.19079,-0.038 2.2e-4,0 0.19057,10e-5 0.19079,0 2.2e-4,0 0.15241,-0.038 0.15263,-0.038 2.2e-4,0 0.19059,-0.038 0.19079,-0.038 2.1e-4,0 0.19059,-0.076 0.19079,-0.077 2.1e-4,0 0.15244,-0.076 0.15263,-0.077 2e-4,0 0.15244,-0.076 0.15264,-0.077 1.9e-4,0 0.15244,-0.1148 0.15263,-0.1148 1.8e-4,-10e-5 0.15246,-0.1148 0.15263,-0.1148 1.7e-4,-10e-5 0.15247,-0.1148 0.15263,-0.1148 1.6e-4,-10e-5 0.11429,-0.1147 0.11441,-0.1147 1.5e-4,-2e-4 0.11429,-0.1524 0.11442,-0.1527 1.3e-4,-10e-5 0.11429,-0.1524 0.11441,-0.1526 1.2e-4,-10e-5 0.11441,-0.1524 0.11441,-0.1526 1.1e-4,-2e-4 0.0762,-0.1524 0.0763,-0.1527 9e-5,-10e-5 0.0762,-0.1904 0.0763,-0.1907 a 1.214,1.214 0 0 0 0,-0.038 l 3.7776,-11.371 c 1.8477,-0.4413 3.6389,-1.077 5.304,-1.8697 l 5.1132,4.5408 a 1.214,1.214 0 0 0 0.0382,0.038 c 1.7e-4,10e-5 0.15244,0.076 0.15263,0.077 1.8e-4,2e-4 0.15243,0.1148 0.15263,0.1148 1.9e-4,1e-4 0.15243,0.077 0.15263,0.077 2e-4,2e-4 0.15242,0.077 0.15263,0.077 2.1e-4,1e-4 0.19058,0.077 0.19079,0.077 2.1e-4,1e-4 0.19057,0.038 0.19079,0.038 2.2e-4,0 0.15241,0.038 0.15263,0.038 2.2e-4,1e-4 0.19057,0.038 0.19079,0.038 l 0.19079,0 0.19079,0 c 2.2e-4,0 0.19057,-0.038 0.19079,-0.038 2.2e-4,0 0.15241,1e-4 0.15263,0 2.2e-4,0 0.19058,-0.076 0.19079,-0.077 2.1e-4,0 0.19058,-0.038 0.19079,-0.038 2.1e-4,-10e-5 0.15244,-0.076 0.15263,-0.077 2e-4,-10e-5 0.15244,-0.076 0.15263,-0.077 2e-4,-2e-4 0.15245,-0.1148 0.15263,-0.1148 1.9e-4,-10e-5 0.15247,-0.1148 0.15264,-0.1148 1.7e-4,-10e-5 0.15247,-0.1148 0.15263,-0.1148 1.6e-4,-10e-5 0.11429,-0.1147 0.11441,-0.1147 1.5e-4,-2e-4 0.1525,-0.1526 0.15263,-0.1527 1.4e-4,-10e-5 0.0762,-0.1524 0.0763,-0.1526 1.2e-4,-1e-4 0.11441,-0.1524 0.11441,-0.1526 1.1e-4,-3e-4 0.0762,-0.1524 0.0763,-0.1527 9e-5,-2e-4 0.0762,-0.1906 0.0763,-0.1908 9e-5,-10e-5 0.0762,-0.1905 0.0763,-0.1908 6e-5,-2e-4 0.0381,-0.1523 0.0382,-0.1526 5e-5,-2e-4 0.0381,-0.1906 0.0382,-0.1908 2e-5,-2e-4 -2e-5,-0.1905 0,-0.1908 1e-5,-2e-4 0,-0.1906 0,-0.1908 0,-10e-5 2e-5,-0.1524 0,-0.1526 -3e-5,-2e-4 -0.0381,-0.1905 -0.0382,-0.1908 a 1.214,1.214 0 0 0 0,-0.038 l -1.5263,-7.5171 c 0.59194,-0.5869 1.1731,-1.1826 1.7171,-1.8315 l 6.1434,1.221 a 1.214,1.214 0 0 0 0.0382,0 c 2.1e-4,0 0.19056,0.038 0.19078,0.038 2.2e-4,10e-5 0.15242,0 0.15264,0 2.2e-4,10e-5 0.19057,10e-5 0.19079,0 2.2e-4,0 0.19057,10e-5 0.19078,0 2.2e-4,0 0.19057,-0.038 0.19079,-0.038 2.2e-4,0 0.15243,-0.038 0.15264,-0.038 2e-4,0 0.19058,-0.076 0.19079,-0.077 2e-4,0 0.19059,-0.076 0.19078,-0.077 2e-4,0 0.15244,-0.076 0.15264,-0.077 1.9e-4,0 0.15244,-0.1148 0.15263,-0.1148 1.8e-4,-10e-5 0.15246,-0.076 0.15263,-0.077 1.7e-4,-2e-4 0.15247,-0.1525 0.15263,-0.1527 1.6e-4,-10e-5 0.11429,-0.1147 0.11441,-0.1147 1.5e-4,-2e-4 0.11429,-0.1524 0.11442,-0.1527 1.3e-4,-1e-4 0.11429,-0.1524 0.11441,-0.1526 1.2e-4,-10e-5 0.11441,-0.1524 0.11441,-0.1526 1.1e-4,-2e-4 0.0762,-0.1524 0.0763,-0.1527 9e-5,-1e-4 0.0762,-0.1524 0.0763,-0.1526 9e-5,-1e-4 0.0381,-0.1905 0.0382,-0.1907 6e-5,-3e-4 0.0763,-0.1906 0.0763,-0.1909 5e-5,-10e-5 -4e-5,-0.1524 0,-0.1526 3e-5,-10e-5 0.0381,-0.1905 0.0382,-0.1907 10e-6,-3e-4 0,-0.1906 0,-0.1909 0,-1e-4 10e-6,-0.1905 0,-0.1907 -2e-5,-3e-4 -0.0381,-0.1906 -0.0382,-0.1909 -4e-5,-10e-5 -0.0381,-0.1524 -0.0382,-0.1526 -5e-5,-10e-5 -0.0381,-0.1905 -0.0382,-0.1907 -7e-5,-3e-4 -0.0762,-0.1906 -0.0763,-0.1909 -8e-5,-1e-4 -0.0762,-0.1524 -0.0763,-0.1526 -1e-4,-1e-4 -0.0762,-0.1524 -0.0763,-0.1526 -1.1e-4,-2e-4 -0.11429,-0.1524 -0.11441,-0.1527 -1.2e-4,-10e-5 -0.0762,-0.1524 -0.0763,-0.1526 a 1.214,1.214 0 0 0 -0.0382,-0.038 l -4.1974,-4.6934 c 0.43508,-1.1086 0.81993,-2.2496 1.1066,-3.4342 l 11.295,-3.7776 a 1.214,1.214 0 0 0 0.0382,0 c 2.1e-4,-10e-5 0.19059,-0.076 0.19079,-0.077 1.9e-4,-2e-4 0.15244,-0.076 0.15263,-0.077 2e-4,-10e-5 0.15245,-0.1147 0.15263,-0.1147 1.9e-4,-2e-4 0.15246,-0.1148 0.15263,-0.1148 1.7e-4,-10e-5 0.15248,-0.1148 0.15264,-0.1148 1.5e-4,-1e-4 0.11429,-0.1148 0.11441,-0.1148 1.4e-4,-10e-5 0.11429,-0.1525 0.11441,-0.1526 1.3e-4,-10e-5 0.11429,-0.1525 0.11441,-0.1526 1.3e-4,-2e-4 0.11442,-0.1524 0.11442,-0.1527 1.1e-4,-2e-4 0.0762,-0.1524 0.0763,-0.1526 1e-4,-3e-4 0.0762,-0.1524 0.0763,-0.1526 8e-5,-3e-4 0.0762,-0.1906 0.0763,-0.1909 6e-5,-10e-5 0.0381,-0.1905 0.0382,-0.1907 5e-5,-3e-4 0.0381,-0.1524 0.0382,-0.1527 4e-5,-2e-4 -1e-5,-0.1906 0,-0.1908 1e-5,-10e-5 0.0382,-0.1905 0.0382,-0.1907 0,-3e-4 -0.0381,-0.1906 -0.0382,-0.1909 -1e-5,-1e-4 4e-5,-0.1905 0,-0.1907 -4e-5,-3e-4 -0.0381,-0.1524 -0.0382,-0.1526 -5e-5,-3e-4 -0.0381,-0.1906 -0.0382,-0.1909 -6e-5,-10e-5 -0.0762,-0.1905 -0.0763,-0.1907 -9e-5,-3e-4 -0.0762,-0.1524 -0.0763,-0.1527 -1e-4,-2e-4 -0.0762,-0.1523 -0.0763,-0.1526 -1.1e-4,-2e-4 -0.11429,-0.1525 -0.11442,-0.1526 -1.2e-4,-10e-5 -0.11429,-0.1525 -0.11441,-0.1526 -1.3e-4,-2e-4 -0.11429,-0.1526 -0.11441,-0.1527 -1.5e-4,-10e-5 -0.11429,-0.1148 -0.11441,-0.1148 -1.6e-4,-10e-5 -0.15247,-0.1147 -0.15264,-0.1147 -1.7e-4,-2e-4 -0.15244,-0.1148 -0.15263,-0.1148 -1.8e-4,-10e-5 -0.15243,-0.1148 -0.15263,-0.1148 -1.9e-4,-10e-5 -0.15244,-0.076 -0.15263,-0.077 -2e-4,-10e-5 -0.19058,-0.076 -0.19079,-0.077 a 1.214,1.214 0 0 0 -0.0382,0 l -11.257,-3.73952 c -0.4305,-1.9039 -1.055,-3.7573 -1.8697,-5.4947 l 4.4645,-5.075 a 1.214,1.214 0 0 0 0.0382,-0.0382 c 1.3e-4,-1.7e-4 0.0762,-0.15245 0.0763,-0.15263 1.2e-4,-1.9e-4 0.11441,-0.15244 0.11441,-0.15264 1.1e-4,-1.9e-4 0.0762,-0.15243 0.0763,-0.15263 10e-5,-1.9e-4 0.0762,-0.15242 0.0763,-0.15263 8e-5,-2.1e-4 0.0762,-0.19058 0.0763,-0.19079 6e-5,-2.1e-4 0.0381,-0.19057 0.0382,-0.19079 5e-5,-2.2e-4 0.0381,-0.15241 0.0382,-0.15263 4e-5,-2.2e-4 0.0381,-0.19057 0.0382,-0.19079 10e-6,-2.2e-4 0,-0.19057 0,-0.19079 0,-2.2e-4 10e-6,-0.19057 0,-0.19079 -1e-5,-2.2e-4 -0.0381,-0.19057 -0.0382,-0.19079 -3e-5,-2.2e-4 5e-5,-0.15241 0,-0.15263 -5e-5,-2.2e-4 -0.0763,-0.19058 -0.0763,-0.19079 -6e-5,-2.1e-4 -0.0381,-0.19058 -0.0382,-0.19079 -9e-5,-2.1e-4 -0.0762,-0.15243 -0.0763,-0.15263 -1e-4,-1.9e-4 -0.0762,-0.15244 -0.0763,-0.15263 -1.1e-4,-2e-4 -0.11429,-0.15245 -0.11442,-0.15263 -1.2e-4,-1.9e-4 -0.11429,-0.15246 -0.11441,-0.15263 -1.3e-4,-1.7e-4 -0.11429,-0.15248 -0.11441,-0.15264 l -0.11441,-0.11441 c -1.6e-4,-1.4e-4 -0.15246,-0.1525 -0.15264,-0.15263 -1.7e-4,-1.3e-4 -0.15244,-0.0762 -0.15263,-0.0763 -1.8e-4,-1.2e-4 -0.15243,-0.11441 -0.15263,-0.11441 -1.9e-4,-1.1e-4 -0.15243,-0.0762 -0.15263,-0.0763 -2e-4,-10e-5 -0.19058,-0.0762 -0.19079,-0.0763 -2.1e-4,-7e-5 -0.19058,-0.0763 -0.19079,-0.0763 -2.1e-4,-6e-5 -0.15241,-0.0381 -0.15263,-0.0382 -2.2e-4,-5e-5 -0.19057,-0.0381 -0.19079,-0.0382 -2.2e-4,-4e-5 -0.19057,1e-5 -0.19079,0 -2.2e-4,-2e-5 -0.19057,0 -0.19079,0 -2.2e-4,0 -0.15241,-3e-5 -0.15263,0 -2.2e-4,2e-5 -0.19057,0.0381 -0.19079,0.0382 a 1.214,1.214 0 0 0 -0.0382,0 l -7.4789,1.5263 c -0.61213,-0.61419 -1.2686,-1.1954 -1.9461,-1.7553 l 1.2592,-6.2197 a 1.214,1.214 0 0 0 0,-0.0382 c 4e-5,-2.2e-4 0.0381,-0.19057 0.0382,-0.19079 3e-5,-2.2e-4 0,-0.15241 0,-0.15263 0,-2.2e-4 1e-5,-0.19057 0,-0.19079 -1e-5,-2.2e-4 3e-5,-0.19057 0,-0.19079 -2e-5,-2.2e-4 -0.0381,-0.19057 -0.0382,-0.19079 -5e-5,-2.2e-4 -0.0381,-0.15242 -0.0382,-0.15263 -6e-5,-2e-4 -0.0762,-0.19058 -0.0763,-0.19079 -9e-5,-2e-4 -0.0762,-0.19059 -0.0763,-0.19079 -9e-5,-1.9e-4 -0.0762,-0.15243 -0.0763,-0.15263 -1.1e-4,-1.9e-4 -0.11429,-0.15245 -0.11442,-0.15263 -1.2e-4,-1.8e-4 -0.0762,-0.15246 -0.0763,-0.15263 -1.4e-4,-1.7e-4 -0.15249,-0.15247 -0.15263,-0.15263 -1.5e-4,-1.6e-4 -0.11429,-0.11429 -0.11442,-0.11441 -1.5e-4,-1.5e-4 -0.15246,-0.1143 -0.15263,-0.11442 -1.7e-4,-1.3e-4 -0.15245,-0.11441 -0.15263,-0.11441 -1.8e-4,-1.2e-4 -0.15243,-0.11441 -0.15263,-0.11441 -2e-4,-1.1e-4 -0.15244,-0.0762 -0.15263,-0.0763 -2e-4,-1e-4 -0.15243,-0.0762 -0.15263,-0.0763 -2.1e-4,-9e-5 -0.19058,-0.0381 -0.19079,-0.0382 -2.1e-4,-6e-5 -0.19057,-0.0763 -0.19079,-0.0763 -2.2e-4,-5e-5 -0.15241,4e-5 -0.15263,0 -2.2e-4,-4e-5 -0.19057,-0.0381 -0.19079,-0.0382 -2.2e-4,-10e-6 -0.19057,0 -0.19079,0 -2.2e-4,0 -0.19057,-10e-6 -0.19079,0 -2.2e-4,10e-6 -0.19057,0.0381 -0.19079,0.0382 -2.2e-4,4e-5 -0.15241,0.0381 -0.15263,0.0382 -2.2e-4,5e-5 -0.19058,0.0381 -0.19079,0.0382 -2.1e-4,6e-5 -0.19058,0.0762 -0.19079,0.0763 -2.1e-4,9e-5 -0.15244,0.0762 -0.15263,0.0763 -2e-4,10e-5 -0.15244,0.0762 -0.15263,0.0763 -2e-4,1.1e-4 -0.15245,0.11441 -0.15264,0.11441 -1.8e-4,1.2e-4 -0.15246,0.0762 -0.15263,0.0763 a 1.214,1.214 0 0 0 -0.0382,0.0382 l -4.7697,4.2355 c -1.0738,-0.41695 -2.1654,-0.78764 -3.3197,-1.0684 l -3.8158,-11.371 c -7e-5,-2.5e-4 -0.0762,-0.19056 -0.0763,-0.19079 -1e-4,-2.3e-4 -0.0762,-0.19057 -0.0763,-0.19079 -1.2e-4,-2.3e-4 -0.11429,-0.19057 -0.11441,-0.19079 -1.4e-4,-2.2e-4 -0.11429,-0.15242 -0.11441,-0.15263 -1.6e-4,-2.1e-4 -0.15246,-0.19061 -0.15264,-0.19079 -1.7e-4,-1.8e-4 -0.15243,-0.15246 -0.15263,-0.15263 -1.9e-4,-1.7e-4 -0.15242,-0.11429 -0.15263,-0.11442 -2.1e-4,-1.5e-4 -0.19057,-0.11429 -0.19079,-0.11441 -2.2e-4,-1.3e-4 -0.1524,-0.11441 -0.15263,-0.11441 -2.3e-4,-1.2e-4 -0.19056,-0.0762 -0.19079,-0.0763 -2.3e-4,-9e-5 -0.2287,-0.0762 -0.22895,-0.0763 -2.4e-4,-8e-5 -0.19054,-0.0763 -0.19079,-0.0763 -2.5e-4,-5e-5 -0.22869,-0.0381 -0.22894,-0.0382 -2.6e-4,-3e-5 -0.19054,2e-5 -0.19079,0 -2.6e-4,-10e-6 -0.22869,-10e-6 -0.22895,0 -2.6e-4,2e-5 -0.19053,-3e-5 -0.19079,0 z" />
      <path
         style="color:#000000;opacity:0.15"
         inkscape:connector-curvature="0"
         id="path2064"
         d="m 181.09,966.57 a 1.2227,1.2227 0 0 0 -0.95395,0.83948 l -3.9684,11.905 c -2.3161,0.47228 -4.525,1.2787 -6.5632,2.3276 l -5.8,-5.1513 a 1.2227,1.2227 0 0 0 -1.9842,1.1447 l 1.7171,8.3947 c -0.93574,0.90001 -1.8,1.8623 -2.5947,2.9 l -7.021,-1.4118 a 1.2227,1.2227 0 0 0 -1.1447,1.9842 l 4.8079,5.3803 c -0.57519,1.4284 -1.0616,2.9246 -1.3737,4.4645 l -12.058,4.04472 a 1.2227,1.2227 0 0 0 0,2.2895 l 12.096,4.0065 c 0.46245,2.2246 1.2096,4.3515 2.2132,6.3342 l -5.1895,5.8763 a 1.2227,1.2227 0 0 0 1.1447,1.9842 l 8.4329,-1.717 c 0.86921,0.8978 1.8005,1.7213 2.7855,2.4802 l -1.4118,7.021 a 1.2227,1.2227 0 0 0 1.9842,1.1448 l 5.3803,-4.7316 c 1.4471,0.5985 2.9662,1.0853 4.5408,1.4119 l 4.0066,11.943 a 1.2227,1.2227 0 0 0 2.2895,0 l 3.9684,-11.905 c 2.3023,-0.474 4.5013,-1.2866 6.525,-2.3276 l 5.6474,4.9986 a 1.2227,1.2227 0 0 0 1.9842,-1.1447 l -1.6408,-8.1276 c 0.90746,-0.8626 1.7773,-1.7923 2.5566,-2.7856 l 6.8303,1.3737 a 1.2227,1.2227 0 0 0 1.1447,-1.9842 l -4.6171,-5.1895 c 0.6373,-1.5058 1.1466,-3.0565 1.4882,-4.6933 l 11.867,-3.9684 a 1.2227,1.2227 0 0 0 0,-2.2895 l -11.791,-3.93032 c -0.46794,-2.3746 -1.251,-4.6586 -2.3276,-6.7539 l 4.9224,-5.571 a 1.2227,1.2227 0 0 0 -1.1447,-1.9842 l -8.0895,1.6408 c -0.90559,-0.94447 -1.8642,-1.8391 -2.9,-2.6329 l 1.4118,-6.8684 a 1.2227,1.2227 0 0 0 -1.9842,-1.1447 l -5.2658,4.6553 c -1.4556,-0.60843 -2.9873,-1.1154 -4.579,-1.45 l -4.0066,-11.943 a 1.2227,1.2227 0 0 0 -1.3355,-0.83948 z" />
      <path
         style="color:#000000;opacity:0.3"
         inkscape:connector-curvature="0"
         id="path2066"
         d="m 181.28,967.79 -4.1974,12.554 c -2.7616,0.47686 -5.3471,1.426 -7.7079,2.7474 l -6.3724,-5.6855 1.8316,9.0053 c -1.2716,1.1621 -2.4312,2.4484 -3.4342,3.8539 l -7.7079,-1.5645 5.2276,5.8763 c -0.79532,1.8019 -1.3762,3.7246 -1.7171,5.7236 l -12.668,4.2356 12.745,4.2355 c 0.48103,2.6656 1.362,5.1896 2.6329,7.4789 l -5.7237,6.4488 9.0434,-1.8316 c 1.1236,1.232 2.3869,2.3384 3.7395,3.3197 l -1.5645,7.7079 5.8763,-5.1895 c 1.8321,0.8241 3.7614,1.4415 5.8,1.7935 l 4.1974,12.554 4.1974,-12.554 c 2.7421,-0.4761 5.3229,-1.438 7.6697,-2.7474 l 6.2197,5.5328 -1.7553,-8.738 c 1.2473,-1.1261 2.4026,-2.38 3.396,-3.7395 l 7.5171,1.5263 -5.075,-5.6856 c 0.86443,-1.8688 1.5,-3.8643 1.8697,-5.9526 l 12.478,-4.1592 -12.439,-4.1592 c -0.46993,-2.8073 -1.4064,-5.4646 -2.7474,-7.8605 l 5.4566,-6.1816 -8.6618,1.7553 c -1.1678,-1.2961 -2.4733,-2.4505 -3.8921,-3.4724 l 1.5645,-7.5553 -5.7618,5.1132 c -1.8388,-0.83176 -3.7904,-1.476 -5.8382,-1.8316 l -4.1974,-12.554 z" />
      <g
         id="g2068"
         transform="matrix(1.1424,0.65955,-0.65955,1.1424,158.07,916.76)">
        <use
           height="100%"
           width="100%"
           y="0"
           x="0"
           id="use2070"
           xlink:href="#SVGCleanerId_2" />
        <use
           height="100%"
           width="100%"
           y="0"
           x="0"
           id="use2072"
           xlink:href="#SVGCleanerId_3" />
        <use
           height="100%"
           width="100%"
           y="0"
           x="0"
           id="use2074"
           xlink:href="#SVGCleanerId_4" />
        <use
           height="100%"
           width="100%"
           y="0"
           x="0"
           id="use2076"
           xlink:href="#SVGCleanerId_5" />
      </g>
      <g
         id="g2078"
         transform="matrix(-0.65955,1.1424,1.1424,0.65955,157.93,916.8)">
        <use
           height="100%"
           width="100%"
           y="0"
           x="0"
           id="use2080"
           xlink:href="#SVGCleanerId_2" />
        <use
           height="100%"
           width="100%"
           y="0"
           x="0"
           id="use2082"
           xlink:href="#SVGCleanerId_3" />
        <use
           height="100%"
           width="100%"
           y="0"
           x="0"
           id="use2084"
           xlink:href="#SVGCleanerId_4" />
        <use
           height="100%"
           width="100%"
           y="0"
           x="0"
           id="use2086"
           xlink:href="#SVGCleanerId_5" />
      </g>
      <g
         id="g2088"
         transform="matrix(1.1424,0.65955,-0.65955,1.1424,158.07,916.76)">
        <use
           height="100%"
           width="100%"
           y="0"
           x="0"
           id="use2090"
           transform="matrix(1,0,0,-1,0,96)"
           xlink:href="#SVGCleanerId_2" />
        <use
           height="100%"
           width="100%"
           y="0"
           x="0"
           style="fill:url(#linearGradient11506)"
           id="use2092"
           xlink:href="#SVGCleanerId_6" />
        <use
           height="100%"
           width="100%"
           y="0"
           x="0"
           id="use2094"
           xlink:href="#SVGCleanerId_7" />
        <use
           height="100%"
           width="100%"
           y="0"
           x="0"
           id="use2096"
           xlink:href="#SVGCleanerId_8" />
        <use
           height="100%"
           width="100%"
           y="0"
           x="0"
           style="opacity:0.3"
           id="use2098"
           xlink:href="#SVGCleanerId_6" />
      </g>
      <g
         id="g2100"
         transform="matrix(1.1424,0.65955,-0.65955,1.1424,158.07,916.76)">
        <use
           height="100%"
           width="100%"
           y="0"
           x="0"
           id="use2102"
           transform="matrix(0,1,-1,0,95.93,0.073)"
           xlink:href="#SVGCleanerId_2" />
        <use
           height="100%"
           width="100%"
           y="0"
           x="0"
           style="fill:url(#linearGradient11508)"
           id="use2104"
           xlink:href="#SVGCleanerId_9" />
        <use
           height="100%"
           width="100%"
           y="0"
           x="0"
           id="use2106"
           xlink:href="#SVGCleanerId_10" />
        <use
           height="100%"
           width="100%"
           y="0"
           x="0"
           id="use2108"
           xlink:href="#SVGCleanerId_11" />
        <use
           height="100%"
           width="100%"
           y="0"
           x="0"
           style="opacity:0.5"
           id="use2110"
           xlink:href="#SVGCleanerId_9" />
      </g>
      <path
         inkscape:connector-curvature="0"
         style="color:#000000;fill:url(#radialGradient8319)"
         id="path2112"
         d="m 205.7,1003.2 a 24.421,24.421 0 0 1 -48.842,0 24.421,24.421 0 1 1 48.842,0 z" />
      <g
         id="g2114"
         transform="matrix(1.5263,0,0,1.5263,108.01,929.94)">
        <use
           height="100%"
           width="100%"
           y="0"
           x="0"
           id="use2116"
           xlink:href="#SVGCleanerId_2" />
        <use
           height="100%"
           width="100%"
           y="0"
           x="0"
           id="use2118"
           xlink:href="#SVGCleanerId_3" />
        <use
           height="100%"
           width="100%"
           y="0"
           x="0"
           id="use2120"
           xlink:href="#SVGCleanerId_4" />
        <use
           height="100%"
           width="100%"
           y="0"
           x="0"
           id="use2122"
           xlink:href="#SVGCleanerId_5" />
      </g>
      <g
         id="g2124"
         transform="matrix(0,1.5263,1.5263,0,107.9,930.05)">
        <use
           height="100%"
           width="100%"
           y="0"
           x="0"
           id="use2126"
           xlink:href="#SVGCleanerId_2" />
        <use
           height="100%"
           width="100%"
           y="0"
           x="0"
           id="use2128"
           xlink:href="#SVGCleanerId_3" />
        <use
           height="100%"
           width="100%"
           y="0"
           x="0"
           id="use2130"
           xlink:href="#SVGCleanerId_4" />
        <use
           height="100%"
           width="100%"
           y="0"
           x="0"
           id="use2132"
           xlink:href="#SVGCleanerId_5" />
      </g>
      <g
         id="g2134"
         transform="matrix(1.5263,0,0,1.5263,108.01,929.94)">
        <use
           height="100%"
           width="100%"
           y="0"
           x="0"
           id="use2136"
           transform="matrix(1,0,0,-1,0,96)"
           xlink:href="#SVGCleanerId_2" />
        <use
           height="100%"
           width="100%"
           y="0"
           x="0"
           style="fill:url(#linearGradient11510)"
           id="use2138"
           xlink:href="#SVGCleanerId_6" />
        <use
           height="100%"
           width="100%"
           y="0"
           x="0"
           id="use2140"
           xlink:href="#SVGCleanerId_7" />
        <use
           height="100%"
           width="100%"
           y="0"
           x="0"
           id="use2142"
           xlink:href="#SVGCleanerId_8" />
        <use
           height="100%"
           width="100%"
           y="0"
           x="0"
           style="opacity:0.3"
           id="use2144"
           xlink:href="#SVGCleanerId_6" />
      </g>
      <g
         id="g2146"
         transform="matrix(1.5263,0,0,1.5263,108.01,929.94)">
        <use
           height="100%"
           width="100%"
           y="0"
           x="0"
           id="use2148"
           transform="matrix(0,1,-1,0,95.93,0.073)"
           xlink:href="#SVGCleanerId_2" />
        <use
           height="100%"
           width="100%"
           y="0"
           x="0"
           style="fill:url(#linearGradient11512)"
           id="use2150"
           xlink:href="#SVGCleanerId_9" />
        <use
           height="100%"
           width="100%"
           y="0"
           x="0"
           id="use2152"
           xlink:href="#SVGCleanerId_10" />
        <use
           height="100%"
           width="100%"
           y="0"
           x="0"
           id="use2154"
           xlink:href="#SVGCleanerId_11" />
        <use
           height="100%"
           width="100%"
           y="0"
           x="0"
           style="opacity:0.5"
           id="use2156"
           xlink:href="#SVGCleanerId_9" />
      </g>
      <g
         id="g2158"
         transform="matrix(1.3133,-0.75822,0.75822,1.3133,81.75,981.08)">
        <use
           height="100%"
           width="100%"
           y="0"
           x="0"
           id="use2160"
           xlink:href="#SVGCleanerId_2" />
        <use
           height="100%"
           width="100%"
           y="0"
           x="0"
           id="use2162"
           xlink:href="#SVGCleanerId_3" />
        <use
           height="100%"
           width="100%"
           y="0"
           x="0"
           id="use2164"
           xlink:href="#SVGCleanerId_4" />
        <use
           height="100%"
           width="100%"
           y="0"
           x="0"
           id="use2166"
           xlink:href="#SVGCleanerId_5" />
      </g>
      <g
         id="g2168"
         transform="matrix(0.75822,1.3133,1.3133,-0.75822,86.29,976.65)">
        <use
           height="100%"
           width="100%"
           y="0"
           x="0"
           id="use2170"
           xlink:href="#SVGCleanerId_2" />
        <use
           height="100%"
           width="100%"
           y="0"
           x="0"
           id="use2172"
           xlink:href="#SVGCleanerId_3" />
        <use
           height="100%"
           width="100%"
           y="0"
           x="0"
           id="use2174"
           xlink:href="#SVGCleanerId_4" />
        <use
           height="100%"
           width="100%"
           y="0"
           x="0"
           id="use2176"
           xlink:href="#SVGCleanerId_5" />
      </g>
      <g
         id="g2178"
         transform="matrix(1.3133,-0.75822,0.75822,1.3133,81.75,971.92)">
        <use
           height="100%"
           width="100%"
           y="0"
           x="0"
           id="use2180"
           transform="matrix(1,0,0,-1,0,96)"
           xlink:href="#SVGCleanerId_2" />
        <use
           height="100%"
           width="100%"
           y="0"
           x="0"
           style="fill:url(#linearGradient11514)"
           id="use2182"
           xlink:href="#SVGCleanerId_6" />
        <use
           height="100%"
           width="100%"
           y="0"
           x="0"
           id="use2184"
           xlink:href="#SVGCleanerId_7" />
        <use
           height="100%"
           width="100%"
           y="0"
           x="0"
           id="use2186"
           xlink:href="#SVGCleanerId_8" />
        <use
           height="100%"
           width="100%"
           y="0"
           x="0"
           style="opacity:0.5"
           id="use2188"
           xlink:href="#SVGCleanerId_6" />
      </g>
      <g
         id="g2190"
         transform="matrix(1.3133,-0.75822,0.75822,1.3133,77.17,976.5)">
        <use
           height="100%"
           width="100%"
           y="0"
           x="0"
           id="use2192"
           transform="matrix(0,1,-1,0,95.93,0.073)"
           xlink:href="#SVGCleanerId_2" />
        <use
           height="100%"
           width="100%"
           y="0"
           x="0"
           style="fill:url(#linearGradient11516)"
           id="use2194"
           xlink:href="#SVGCleanerId_9" />
        <use
           height="100%"
           width="100%"
           y="0"
           x="0"
           id="use2196"
           xlink:href="#SVGCleanerId_10" />
        <use
           height="100%"
           width="100%"
           y="0"
           x="0"
           id="use2198"
           xlink:href="#SVGCleanerId_11" />
        <use
           height="100%"
           width="100%"
           y="0"
           x="0"
           style="opacity:0.3"
           id="use2200"
           xlink:href="#SVGCleanerId_9" />
      </g>
      <path
         style="color:#000000;opacity:0.5"
         inkscape:connector-curvature="0"
         id="path2202"
         d="m 186.76,1003.2 a 5.4865,5.4865 0 0 1 -10.973,0 5.4865,5.4865 0 1 1 10.973,0 z" />
      <path
         inkscape:connector-curvature="0"
         style="color:#000000;fill:url(#radialGradient7455)"
         id="path2204"
         d="m 185.86,1003.2 a 4.579,4.579 0 0 1 -9.1579,0 4.579,4.579 0 1 1 9.1579,0 z" />
      <g
         id="g2206"
         transform="matrix(1.5263,0,0,1.5263,108.01,929.94)">
        <use
           height="100%"
           width="100%"
           y="0"
           x="0"
           id="use2208"
           xlink:href="#SVGCleanerId_12" />
        <use
           height="100%"
           width="100%"
           y="0"
           x="0"
           id="use2210"
           xlink:href="#SVGCleanerId_13" />
        <use
           height="100%"
           width="100%"
           y="0"
           x="0"
           id="use2212"
           xlink:href="#SVGCleanerId_14" />
        <use
           height="100%"
           width="100%"
           y="0"
           x="0"
           id="use2214"
           xlink:href="#SVGCleanerId_15" />
      </g>
      <g
         id="g2216"
         transform="matrix(0,1.5263,1.5263,0,108.09,929.86)">
        <use
           height="100%"
           width="100%"
           y="0"
           x="0"
           id="use2218"
           xlink:href="#SVGCleanerId_12" />
        <use
           height="100%"
           width="100%"
           y="0"
           x="0"
           id="use2220"
           xlink:href="#SVGCleanerId_13" />
        <use
           height="100%"
           width="100%"
           y="0"
           x="0"
           id="use2222"
           xlink:href="#SVGCleanerId_14" />
        <use
           height="100%"
           width="100%"
           y="0"
           x="0"
           id="use2224"
           xlink:href="#SVGCleanerId_15" />
      </g>
      <path
         style="color:#000000;opacity:0.5"
         inkscape:connector-curvature="0"
         id="path2226"
         d="m 189.59,1003.1 a 5.138,5.574317 0 1 0 10.276,0 5.138,5.574317 0 1 0 -10.276,0 z" />
      <use
         height="100%"
         width="100%"
         y="0"
         x="0"
         style="fill:url(#radialGradient7441)"
         id="use2228"
         xlink:href="#SVGCleanerId_0" />
      <path
         style="opacity:0.15;fill:#ffffff"
         inkscape:connector-curvature="0"
         id="path2230"
         d="m 192.96,999.05 8.1562,4.1496 -10.637,-0.286 c 0.0895,-1.5976 0.89951,-3.1417 2.4803,-3.8636 z" />
      <path
         style="opacity:0.3;fill:#ffffff"
         inkscape:connector-curvature="0"
         id="path2232"
         d="m 192.15,999.58 8.8717,3.7204 -10.207,-1.9079 c 0.27777,-0.7002 0.72355,-1.333 1.3355,-1.8125 z" />
      <use
         height="100%"
         width="100%"
         y="0"
         x="0"
         style="opacity:0.4"
         id="use2234"
         xlink:href="#SVGCleanerId_0" />
      <path
         style="color:#000000;opacity:0.5"
         inkscape:connector-curvature="0"
         id="path2236"
         d="m 181.28,1011.4 a 5.574317,5.138 0 0 1 0,10.276 5.574317,5.138 0 1 1 0,-10.276 z" />
      <use
         height="100%"
         width="100%"
         y="0"
         x="0"
         style="fill:url(#radialGradient7434)"
         id="use2238"
         xlink:href="#SVGCleanerId_1" />
      <path
         style="opacity:0.15;fill:#ffffff"
         inkscape:connector-curvature="0"
         id="path2240"
         d="m 177.2,1014.8 4.1497,8.1562 -0.28619,-10.636 c -1.5974,0.089 -3.1416,0.8994 -3.8635,2.4802 z" />
      <path
         style="opacity:0.3;fill:#ffffff"
         inkscape:connector-curvature="0"
         id="path2242"
         d="m 177.72,1014 3.7204,8.8717 -1.9079,-10.207 c -0.70026,0.2778 -1.333,0.7236 -1.8125,1.3356 z" />
      <use
         height="100%"
         width="100%"
         y="0"
         x="0"
         style="opacity:0.2"
         id="use2244"
         xlink:href="#SVGCleanerId_1" />
      <path
         style="opacity:0.3;fill:#ffffff"
         inkscape:connector-curvature="0"
         id="path2246"
         d="m 179.08,999.19 c -0.74558,0.40954 -1.3454,1.0255 -1.7648,1.7648 l 3.9112,2.1464 -2.1464,-3.9112 z" />
      <path
         style="opacity:0.15;fill:#ffffff"
         inkscape:connector-curvature="0"
         id="path2248"
         d="m 180.13,998.81 c -1.5371,0.40637 -2.7405,1.5838 -3.1957,3.1004 l 4.4836,1.1448 -1.2878,-4.2452 z" />
      <path
         inkscape:connector-curvature="0"
         style="color:#000000;opacity:0.5;fill:url(#linearGradient7426)"
         id="path2250"
         d="m 184.52,1006.4 a 4.5789407,4.5789407 0 0 1 -6.4756,-6.4756 4.5789407,4.5789407 0 0 1 6.4756,6.4756 z" />
    </g>
  </g>
  <g
     id="g14291">
    <path
       d="m 5.2922679,73.685059 0,5.0663 c 0,6.668 5.3645011,12.032 12.0320011,12.032 l 61.049,0 c 6.668,0 12.032,-5.3645 12.032,-12.032 l 0,-5.0663 c 0,6.6681 -5.3645,12.032 -12.032,12.032 l -61.049,0 c -6.668,0 -12.0320011,-5.3643 -12.0320011,-12.032 z"
       id="path64"
       inkscape:connector-curvature="0"
       style="opacity:0.4;fill:url(#linearGradient14237);fill-opacity:1" />
    <path
       inkscape:connector-curvature="0"
       id="path14214"
       d="m 5.2929688,72.717592 0,1.15039 c 0,6.667718 5.3632502,12.031248 12.0312502,12.031248 l 61.048828,0 c 6.6675,0 12.03125,-5.36313 12.03125,-12.031248 l 0,-1.15039 c 0,6.668098 -5.36375,12.031248 -12.03125,12.031248 l -61.048828,0 c -6.668,0 -12.0312502,-5.36355 -12.0312502,-12.031248 z"
       style="opacity:0.5;fill:url(#linearGradient14245);fill-opacity:1" />
  </g>
</svg>
