<svg height="96" width="96" xmlns="http://www.w3.org/2000/svg" xmlns:xlink="http://www.w3.org/1999/xlink" xmlns:sodipodi="http://sodipodi.sourceforge.net/DTD/sodipodi-0.dtd" xmlns:inkscape="http://www.inkscape.org/namespaces/inkscape">
 <defs>
  <linearGradient x2="0" y1="90" y2="5.988" gradientUnits="userSpaceOnUse" id="linearGradient43205" gradientTransform="matrix(1.0774 0 0 1.0893 -4.464 951.33)">
   <stop stop-color="#5c8947"/>
   <stop stop-color="#99c376" offset="1"/>
  </linearGradient>
  <radialGradient cy="26" r="16" gradientUnits="userSpaceOnUse" id="radialGradient3679" cx="32" gradientTransform="matrix(1.1875 0 0 1.125 -6 -3.25)">
   <stop stop-color="#fff"/>
   <stop stop-color="#f2f2f2" offset="0.734"/>
   <stop stop-color="#e5e5e5" offset="1"/>
  </radialGradient>
  <radialGradient cy="40" r="16" gradientUnits="userSpaceOnUse" id="radialGradient3760" cx="32" gradientTransform="matrix(1.1875 0 0 1.125 -6 -5)">
   <stop stop-color="#393939"/>
   <stop stop-color="#282828" offset="0.656"/>
   <stop stop-color="#161616" offset="1"/>
  </radialGradient>
  <linearGradient x1="61" x2="67.3" xlink:href="#linearGradient3781-9" y1="15" y2="38.502" gradientUnits="userSpaceOnUse" id="linearGradient3787"/>
  <linearGradient id="linearGradient3781-9">
   <stop stop-color="#fff"/>
   <stop stop-color="#fff" stop-opacity="0" offset="1"/>
  </linearGradient>
  <linearGradient x1="61" x2="67.3" xlink:href="#linearGradient3781-9" y1="15" y2="38.502" gradientUnits="userSpaceOnUse" id="linearGradient3791-4" gradientTransform="matrix(1 0 0 1 -36 0)"/>
  <linearGradient x1="61" x2="67.3" xlink:href="#linearGradient3781-9" y1="15" y2="38.502" gradientUnits="userSpaceOnUse" id="linearGradient3836-6" gradientTransform="matrix(1 0 0 1 -36 36)"/>
  <linearGradient x1="61" x2="67.3" xlink:href="#linearGradient3781-9" y1="15" y2="38.502" gradientUnits="userSpaceOnUse" id="linearGradient3840-2" gradientTransform="matrix(1 0 0 1 0 36)"/>
  <path d="m48 32a16 16 0 1 1 -32 0 16 16 0 1 1 32 0z" color="#000000" id="SVGCleanerId_0"/>
 </defs>
 <g transform="matrix(1 0 0 1 0 -956.36)">
  <rect x="3.608" rx="12.552" y="959.96" fill-opacity="0.039" height="88.76" width="88.76"/>
  <rect x="4.216" rx="12.38" y="960.57" fill-opacity="0.078" height="87.55" width="87.55"/>
  <rect x="4.824" rx="12.208" y="961.18" fill-opacity="0.157" height="86.33" width="86.33"/>
  <path d="m17.469 961.77c-6.668 0-12.031 5.3945-12.031 12.062v61.031c0 5.4178 3.5332 9.9818 8.4375 11.5h68.188c4.7148-1.4568 8.1719-5.7337 8.4375-10.875v-62.281c-0.32117-6.3771-5.5404-11.438-12-11.438h-61.031z" fill="url(#linearGradient43205)"/>
  <path d="m5.4316 1029.8v5.0663c0 6.668 5.3645 12.032 12.032 12.032h61.049c6.668 0 12.032-5.3645 12.032-12.032v-5.0663c0 6.6681-5.3645 12.032-12.032 12.032h-61.049c-6.668 0-12.032-5.3643-12.032-12.032z" fill-opacity="0.235"/>
  <path d="m5.4316 1033.9v1.0133c0 6.668 5.3645 12.032 12.032 12.032h61.049c6.668 0 12.032-5.3645 12.032-12.032v-1.0133c0 6.6681-5.3645 12.032-12.032 12.032h-61.049c-6.668 0-12.032-5.3644-12.032-12.032z" fill-opacity="0.098"/>
  <g transform="matrix(1 0 0 1 0 953.36)">
   <path d="m30 12.125c-10.398 0-18.875 8.4771-18.875 18.875 0 8.5536 5.7703 15.712 13.594 18-7.8234 2.2879-13.594 9.4464-13.594 18 0 10.398 8.4771 18.875 18.875 18.875 8.5536 0 15.712-5.7703 18-13.594 2.2879 7.8234 9.4464 13.594 18 13.594 10.398 0 18.875-8.4771 18.875-18.875 0-8.5536-5.7703-15.712-13.594-18 7.824-2.288 13.594-9.446 13.594-18 0-10.398-8.477-18.875-18.875-18.875-8.554 0-15.712 5.77-18 13.594-2.288-7.824-9.446-13.594-18-13.594zm18 24.125c1.793 6.148 6.602 10.957 12.75 12.75-6.148 1.793-10.957 6.602-12.75 12.75-1.793-6.148-6.602-10.957-12.75-12.75 6.148-1.793 10.957-6.602 12.75-12.75z" color="#000000" opacity="0.05"/>
   <path d="m30 12.906c-9.9805 0-18.094 8.1133-18.094 18.094 0 9.6393 7.584 17.47 17.094 18-9.5097 0.52954-17.094 8.3607-17.094 18 0 9.9805 8.1133 18.094 18.094 18.094 9.6393 0 17.47-7.584 18-17.094 0.52954 9.5097 8.3607 17.094 18 17.094 9.9805 0 18.094-8.1133 18.094-18.094 0-9.639-7.584-17.47-17.094-18 9.51-0.53 17.094-8.361 17.094-18 0-9.98-8.114-18.094-18.094-18.094-9.639 0-17.47 7.584-18 17.094-0.53-9.51-8.361-17.094-18-17.094zm18 19.094c0.51079 9.1731 7.8269 16.489 17 17-9.173 0.511-16.489 7.827-17 17-0.511-9.173-7.827-16.489-17-17 9.173-0.511 16.489-7.827 17-17z" color="#000000" opacity="0.1"/>
   <path d="m30 14c-9.3814 0-17 7.6186-17 17s7.6186 17 17 17 17-7.6186 17-17-7.6186-17-17-17zm36 0c-9.3814 0-17 7.6186-17 17s7.6186 17 17 17 17-7.6186 17-17c0-9.381-7.619-17-17-17zm-36 36c-9.3814 0-17 7.6186-17 17s7.6186 17 17 17 17-7.6186 17-17-7.6186-17-17-17zm36 0c-9.3814 0-17 7.6186-17 17s7.6186 17 17 17 17-7.6186 17-17-7.6186-17-17-17z" color="#000000" opacity="0.15"/>
   <path d="m30 15c-8.8366 0-16 7.1634-16 16s7.1634 16 16 16 16-7.1634 16-16-7.1634-16-16-16zm36 0c-8.8366 0-16 7.1634-16 16s7.1634 16 16 16 16-7.1634 16-16c0-8.837-7.163-16-16-16zm-36 36c-8.8366 0-16 7.1634-16 16s7.1634 16 16 16 16-7.1634 16-16-7.1634-16-16-16zm36 0c-8.8366 0-16 7.1634-16 16s7.1634 16 16 16 16-7.1634 16-16-7.1634-16-16-16z" color="#000000" opacity="0.3"/>
   <use xlink:href="#SVGCleanerId_0" fill="url(#radialGradient3679)" transform="matrix(1 0 0 -1 -2 62)"/>
   <use xlink:href="#SVGCleanerId_0" fill="url(#radialGradient3760)" transform="matrix(1 0 0 1 34 -2)"/>
   <path d="m66 15c-8.2843 0-15 6.7157-15 15 0 3.6087 1.283 6.912 3.4062 9.5-1.525-2.296-2.406-5.038-2.406-8 0-8.008 6.492-14.5 14.5-14.5 7.753 0 14.073 6.096 14.469 13.75 0.012-0.251 0.031-0.496 0.031-0.75 0-8.284-6.716-15-15-15z" fill="url(#linearGradient3787)" color="#000000" opacity="0.2"/>
   <path d="m30 15c-8.2843 0-15 6.7157-15 15 0 3.6087 1.283 6.912 3.4062 9.5-1.525-2.296-2.406-5.038-2.406-8 0-8.008 6.492-14.5 14.5-14.5 7.753 0 14.073 6.096 14.469 13.75 0.012-0.251 0.031-0.496 0.031-0.75 0-8.284-6.716-15-15-15z" fill="url(#linearGradient3791-4)" color="#000000"/>
   <path d="m30 14c-8.8366 0-16 7.1634-16 16s7.1634 16 16 16 16-7.1634 16-16-7.1634-16-16-16zm0 0.96875c8.3201 0 15.031 6.7111 15.031 15.031 0 8.3201-6.7111 15.031-15.031 15.031-8.3201 0-15.031-6.7111-15.031-15.031 0-8.3201 6.7111-15.031 15.031-15.031z" color="#000000" opacity="0.1"/>
   <path d="m66 14c-8.8366 0-16 7.1634-16 16s7.1634 16 16 16 16-7.1634 16-16-7.1634-16-16-16zm0 0.96875c8.3201 0 15.031 6.7111 15.031 15.031 0 8.3201-6.7111 15.031-15.031 15.031-8.3201 0-15.031-6.7111-15.031-15.031 0-8.3201 6.7111-15.031 15.031-15.031z" color="#000000" opacity="0.2"/>
   <g transform="matrix(1 0 0 1 36 0)">
    <use xlink:href="#SVGCleanerId_0" fill="url(#radialGradient3679)" transform="matrix(1 0 0 -1 -2 98)"/>
    <path d="m30 51c-8.2843 0-15 6.7157-15 15 0 3.6087 1.283 6.912 3.4062 9.5-1.525-2.296-2.406-5.038-2.406-8 0-8.008 6.492-14.5 14.5-14.5 7.753 0 14.073 6.096 14.469 13.75 0.012-0.251 0.031-0.496 0.031-0.75 0-8.284-6.716-15-15-15z" fill="url(#linearGradient3836-6)" color="#000000"/>
    <path d="m30 50c-8.8366 0-16 7.1634-16 16s7.1634 16 16 16 16-7.1634 16-16-7.1634-16-16-16zm0 0.96875c8.3201 0 15.031 6.7111 15.031 15.031 0 8.3201-6.7111 15.031-15.031 15.031-8.3201 0-15.031-6.7111-15.031-15.031 0-8.3201 6.7111-15.031 15.031-15.031z" color="#000000" opacity="0.1"/>
   </g>
   <g transform="matrix(1 0 0 1 -36 0)">
    <use xlink:href="#SVGCleanerId_0" fill="url(#radialGradient3760)" transform="matrix(1 0 0 1 34 34)"/>
    <path d="m66 51c-8.2843 0-15 6.7157-15 15 0 3.6087 1.283 6.912 3.4062 9.5-1.525-2.296-2.406-5.038-2.406-8 0-8.008 6.492-14.5 14.5-14.5 7.753 0 14.073 6.096 14.469 13.75 0.012-0.251 0.031-0.496 0.031-0.75 0-8.284-6.716-15-15-15z" fill="url(#linearGradient3840-2)" color="#000000" opacity="0.2"/>
    <path d="m66 50c-8.8366 0-16 7.1634-16 16s7.1634 16 16 16 16-7.1634 16-16-7.1634-16-16-16zm0 0.96875c8.3201 0 15.031 6.7111 15.031 15.031 0 8.3201-6.7111 15.031-15.031 15.031-8.3201 0-15.031-6.7111-15.031-15.031 0-8.3201 6.7111-15.031 15.031-15.031z" color="#000000" opacity="0.2"/>
   </g>
  </g>
 </g>
</svg>
