<svg height="96" width="96" xmlns="http://www.w3.org/2000/svg" xmlns:xlink="http://www.w3.org/1999/xlink" xmlns:sodipodi="http://sodipodi.sourceforge.net/DTD/sodipodi-0.dtd" xmlns:inkscape="http://www.inkscape.org/namespaces/inkscape">
 <defs>
  <linearGradient x2="0" y1="84.03" y2="2.993" gradientUnits="userSpaceOnUse" id="linearGradient6400">
   <stop stop-color="#ccc"/>
   <stop stop-color="#dae0de" offset="1"/>
  </linearGradient>
  <linearGradient x1="80.71" x2="19.942" gradientUnits="userSpaceOnUse" id="linearGradient3733">
   <stop stop-color="#fff"/>
   <stop stop-color="#fff" stop-opacity="0" offset="1"/>
  </linearGradient>
  <filter x="-0.044" y="-0.151" height="1.302" color-interpolation-filters="sRGB" id="filter3780" width="1.089">
   <feGaussianBlur stdDeviation="1.15263"/>
  </filter>
  <filter x="-0.152" y="-0.045" height="1.091" color-interpolation-filters="sRGB" id="filter3776" width="1.304">
   <feGaussianBlur stdDeviation="1.15263"/>
  </filter>
  <radialGradient cy="-15.871" r="35.938" gradientUnits="userSpaceOnUse" id="radialGradient4635" cx="56.07" gradientTransform="matrix(-0.00226 -1.0568 1.3856 0 10.224 1077.8)">
   <stop stop-color="#4490e6"/>
   <stop stop-color="#103d8f" offset="1"/>
  </radialGradient>
  <clipPath clipPathUnits="userSpaceOnUse" id="clipPath4637">
   <rect x="-46.872" rx="7.163" y="971.67" height="56" width="69.68"/>
  </clipPath>
  <path d="m48.808 61.281 44.058 4.5502v-9.1004l-44.058 4.5502z" id="SVGCleanerId_0"/>
  <path d="m89.91 52.101 19.667 9.1442-19.667 9.1442c3.1419-5.3987 3.1238-12.785 0.000001-18.288z" stroke-width="0.625" id="SVGCleanerId_1" stroke-linejoin="round"/>
  <path d="m47.289 61.281 45.577 4.5502v-9.1004l-45.577 4.5502z" id="SVGCleanerId_2"/>
 </defs>
 <g transform="matrix(1 0 0 1 0 -956.36)">
  <rect x="3.353" rx="12.724" y="959.35" fill-opacity="0.02" height="89.98" width="89.62"/>
  <rect x="3.959" rx="12.552" y="959.96" fill-opacity="0.039" height="88.76" width="88.41"/>
  <rect x="4.564" rx="12.38" y="960.57" fill-opacity="0.078" height="87.55" width="87.2"/>
  <rect x="5.17" rx="12.208" y="961.18" fill-opacity="0.157" height="86.33" width="85.991"/>
  <path d="m17.75 5.4062c-6.642 0-11.969 5.3948-11.969 12.063l0.0002 61.031c0 6.668 5.3268 12.031 11.969 12.031h60.812c6.642 0 11.969-5.363 11.969-12.031v-61.031c0-6.668-5.327-12.063-11.969-12.063l-60.812 0.0002z" fill="url(#linearGradient6400)" transform="matrix(1 0 0 1 0 956.36)"/>
  <path d="m5.7756 1029.8v5.0663c0 6.668 5.3434 12.032 11.985 12.032h60.809c6.6418 0 11.985-5.3645 11.985-12.032v-5.0663c0 6.6681-5.3434 12.032-11.985 12.032h-60.809c-6.6418 0-11.985-5.3643-11.985-12.032z" fill-opacity="0.118"/>
  <path d="m5.7756 1033.9v1.0133c0 6.668 5.3434 12.032 11.985 12.032h60.809c6.6418 0 11.985-5.3645 11.985-12.032v-1.0133c0 6.6681-5.3434 12.032-11.985 12.032h-60.809c-6.6418 0-11.985-5.3644-11.985-12.032z" fill-opacity="0.098"/>
  <rect x="12.232" rx="7.259" y="968.65" fill="#4d4d4d" height="56.75" opacity="0.5" width="71.47"/>
  <rect x="58.934" rx="1.28" y="-1036.3" fill="#999" height="2.559" width="17.309" transform="matrix(1 0 0 -1 0 0)"/>
  <rect x="58.934" rx="1.28" y="-1035.4" fill="#808080" height="2.559" width="17.309" transform="matrix(1 0 0 -1 0 0)"/>
  <g clip-path="url(#clipPath4637)" transform="matrix(1 0 0 1 60 0)">
   <path d="m24.076 1029.6v-61.521h-71.937v61.521h71.937z" fill="url(#radialGradient4635)"/>
  </g>
  <rect x="18.906" y="1008.1" fill="#fff" height="14.734" opacity="0.1" width="14.758"/>
  <g fill-rule="evenodd" filter="url(#filter3776)" transform="matrix(0 -0.60614 0.60523 0 -12.627 1044.1)">
   <use xlink:href="#SVGCleanerId_0"/>
   <use xlink:href="#SVGCleanerId_1"/>
  </g>
  <g fill="url(#linearGradient3733)" fill-rule="evenodd" transform="matrix(0 -0.60614 0.60523 0 -12.627 1043.2)">
   <use xlink:href="#SVGCleanerId_0"/>
   <use xlink:href="#SVGCleanerId_1"/>
  </g>
  <g fill-rule="evenodd" filter="url(#filter3780)" transform="matrix(0.60714 0 0 0.60423 -0.581 981.23)">
   <use xlink:href="#SVGCleanerId_2"/>
   <use xlink:href="#SVGCleanerId_1"/>
  </g>
  <g fill="url(#linearGradient3733)" fill-rule="evenodd" transform="matrix(0.60714 0 0 0.60423 -0.581 980.31)">
   <use xlink:href="#SVGCleanerId_2"/>
   <use xlink:href="#SVGCleanerId_1"/>
  </g>
  <rect x="19.828" stroke-width="1.843" y="996.14" fill="none" stroke="#fff" stroke-dasharray="1.84325 1.84325" height="25.784" opacity="0.2" stroke-dashoffset="0.922" width="25.827"/>
 </g>
</svg>
