<svg height="96" width="96" xmlns="http://www.w3.org/2000/svg" xmlns:xlink="http://www.w3.org/1999/xlink" xmlns:sodipodi="http://sodipodi.sourceforge.net/DTD/sodipodi-0.dtd" xmlns:inkscape="http://www.inkscape.org/namespaces/inkscape">
 <defs>
  <clipPath id="clipPath3613-61">
   <rect x="6" rx="6" y="6" height="84" width="84"/>
  </clipPath>
  <filter x="-0.192" y="-0.192" height="1.384" color-interpolation-filters="sRGB" id="filter3794-611" width="1.384">
   <feGaussianBlur stdDeviation="5.28"/>
  </filter>
  <linearGradient x2="0" y1="90" y2="5.988" gradientUnits="userSpaceOnUse" id="linearGradient8178" gradientTransform="matrix(1.0505 0 0 1.0505 -3.402 -3.654)">
   <stop stop-color="#48914f"/>
   <stop stop-color="#78cc80" offset="1"/>
  </linearGradient>
  <linearGradient x2="0" y1="20.221" y2="138.66" gradientUnits="userSpaceOnUse" id="linearGradient8181">
   <stop stop-color="#fff"/>
   <stop stop-color="#fff" stop-opacity="0" offset="1"/>
  </linearGradient>
  <path d="m17 12.062c-2.709 0-4.9375 2.2285-4.9375 4.9375v14c0 2.709 2.2285 4.9375 4.9375 4.9375h14c2.709 0 4.9375-2.2285 4.9375-4.9375v-14c0-2.709-2.2285-4.9375-4.9375-4.9375h-14z" fill="#376e3c" color="#000000" id="SVGCleanerId_0" opacity="0.1"/>
  <path d="m17 13c-2.1995 0-4 1.8005-4 4v14c0 2.1995 1.8005 4 4 4h14c2.1995 0 4-1.8005 4-4v-14c0-2.1995-1.8005-4-4-4h-14z" fill="#376e3c" color="#000000" id="SVGCleanerId_1" opacity="0.2"/>
  <rect x="14" rx="3" y="14" fill="#fff" color="#000000" height="20" id="SVGCleanerId_2" width="20"/>
 </defs>
 <g transform="matrix(1 0 0 1 0 -956.36)">
  <rect x="3.608" rx="12.552" y="959.96" fill-opacity="0.039" height="88.76" width="88.76"/>
  <rect x="4.216" rx="12.38" y="960.57" fill-opacity="0.078" height="87.55" width="87.55"/>
  <rect x="4.824" rx="12.208" y="961.18" fill-opacity="0.157" height="86.33" width="86.33"/>
  <path d="m17.469 5.4062c-6.668 0-12.032 5.3948-12.032 12.063l0.0005 61.031c0 5.418 3.5332 9.982 8.4375 11.5h68.187c4.715-1.457 8.172-5.734 8.438-10.875v-62.281c-0.321-6.377-5.54-11.438-12-11.438l-61.031 0.0002z" fill="url(#linearGradient8178)" transform="matrix(1 0 0 1 0 956.36)"/>
  <path d="m5.4316 1029.8v5.0663c0 6.668 5.3645 12.032 12.032 12.032h61.049c6.668 0 12.032-5.3645 12.032-12.032v-5.0663c0 6.6681-5.3645 12.032-12.032 12.032h-61.049c-6.668 0-12.032-5.3643-12.032-12.032z" fill-opacity="0.235"/>
  <path d="m5.4316 1033.9v1.0133c0 6.668 5.3645 12.032 12.032 12.032h61.049c6.668 0 12.032-5.3645 12.032-12.032v-1.0133c0 6.6681-5.3645 12.032-12.032 12.032h-61.049c-6.668 0-12.032-5.3644-12.032-12.032z" fill-opacity="0.098"/>
  <rect x="15" stroke-width="0.5" rx="12" y="15" clip-path="url(#clipPath3613-61)" fill="url(#linearGradient8181)" stroke="#fff" height="66" filter="url(#filter3794-611)" opacity="0.1" stroke-linecap="round" width="66" transform="matrix(1.0337 0 0 1 -1.533 954.07)"/>
  <g transform="matrix(1.0337 0 0 1 -1.533 954.07)">
   <use xlink:href="#SVGCleanerId_0"/>
   <use xlink:href="#SVGCleanerId_1"/>
   <use xlink:href="#SVGCleanerId_2" opacity="0.8"/>
   <a transform="matrix(1 0 0 1 24 0)">
    <use xlink:href="#SVGCleanerId_0"/>
    <use xlink:href="#SVGCleanerId_1"/>
    <use xlink:href="#SVGCleanerId_2" opacity="0.8"/>
   </a>
   <a transform="matrix(1 0 0 1 48 0)">
    <use xlink:href="#SVGCleanerId_0"/>
    <use xlink:href="#SVGCleanerId_1"/>
    <use xlink:href="#SVGCleanerId_2"/>
   </a>
   <a transform="matrix(1 0 0 1 0 24)">
    <use xlink:href="#SVGCleanerId_0"/>
    <use xlink:href="#SVGCleanerId_1"/>
    <use xlink:href="#SVGCleanerId_2" opacity="0.8"/>
   </a>
   <a transform="matrix(1 0 0 1 24 24)">
    <use xlink:href="#SVGCleanerId_0"/>
    <use xlink:href="#SVGCleanerId_1"/>
    <use xlink:href="#SVGCleanerId_2"/>
   </a>
   <a transform="matrix(1 0 0 1 48 24)">
    <use xlink:href="#SVGCleanerId_0"/>
    <use xlink:href="#SVGCleanerId_1"/>
    <use xlink:href="#SVGCleanerId_2"/>
   </a>
   <a transform="matrix(1 0 0 1 0 48)">
    <use xlink:href="#SVGCleanerId_0"/>
    <use xlink:href="#SVGCleanerId_1"/>
    <use xlink:href="#SVGCleanerId_2"/>
   </a>
   <a transform="matrix(1 0 0 1 24 48)">
    <use xlink:href="#SVGCleanerId_0"/>
    <use xlink:href="#SVGCleanerId_1"/>
    <use xlink:href="#SVGCleanerId_2" opacity="0.8"/>
   </a>
   <a transform="matrix(1 0 0 1 48 48)">
    <use xlink:href="#SVGCleanerId_0"/>
    <use xlink:href="#SVGCleanerId_1"/>
    <use xlink:href="#SVGCleanerId_2" opacity="0.8"/>
   </a>
   <path d="m27.983 25.762c-0.000008 0.55209-0.08855 1.0625-0.26562 1.5312-0.17188 0.46354-0.4297 0.86719-0.77344 1.2109-0.34376 0.33854-0.77084 0.60417-1.2812 0.79688-0.50521 0.1875-1.0912 0.28125-1.7578 0.28125-0.61459 0-1.151-0.07292-1.6094-0.21875-0.45834-0.15104-0.84636-0.35677-1.1641-0.61719-0.3125-0.26562-0.5599-0.57552-0.74219-0.92969-0.17708-0.35416-0.29948-0.73437-0.36719-1.1406l2.1953-0.17969c0.04166 0.17188 0.09896 0.33854 0.17188 0.5 0.07812 0.16146 0.18489 0.30469 0.32031 0.42969 0.13541 0.125 0.30208 0.22656 0.5 0.30469 0.19791 0.07292 0.4375 0.10938 0.71875 0.10938 0.54687 0.000001 0.98176-0.17448 1.3047-0.52344 0.32812-0.34896 0.49218-0.85156 0.49219-1.5078-0.000007-0.29166-0.04167-0.55468-0.125-0.78906-0.07813-0.23437-0.19272-0.43489-0.34375-0.60156-0.14584-0.16666-0.32813-0.29427-0.54688-0.38281-0.21355-0.08854-0.45834-0.13281-0.73438-0.13281-0.36459 0.000005-0.66407 0.07032-0.89844 0.21094-0.23438 0.13542-0.4323 0.30209-0.59375 0.5h-2.1406l0.38281-6.1953h6.6172v1.6328h-4.625l-0.17969 2.7812c0.21875-0.1927 0.49479-0.35676 0.82812-0.49219 0.33333-0.14062 0.72135-0.21093 1.1641-0.21094 0.54166 0.000008 1.026 0.08855 1.4531 0.26562 0.42708 0.17709 0.78906 0.42449 1.0859 0.74219 0.29687 0.31771 0.52343 0.70053 0.67969 1.1484 0.15624 0.44271 0.23437 0.9349 0.23438 1.4766" fill="#215c26"/>
   <path d="m51.977 26.441c-0.000008 0.5-0.08334 0.95052-0.25 1.3516-0.16147 0.39583-0.40626 0.73438-0.73438 1.0156-0.32813 0.28125-0.73698 0.4974-1.2266 0.64844-0.48438 0.14583-1.0495 0.21875-1.6953 0.21875-0.71875 0-1.3255-0.09115-1.8203-0.27344-0.48958-0.18229-0.89323-0.42188-1.2109-0.71875-0.3125-0.30208-0.54948-0.64323-0.71094-1.0234-0.15625-0.38021-0.25781-0.76562-0.30469-1.1562l2.2344-0.19531c0.03125 0.23438 0.08854 0.45052 0.17188 0.64844 0.08854 0.19271 0.20573 0.35938 0.35156 0.5 0.14583 0.14063 0.32291 0.25 0.53125 0.32812 0.21354 0.07292 0.46354 0.10938 0.75 0.10938 0.52604 0.000002 0.93489-0.13021 1.2266-0.39062 0.29166-0.26041 0.43749-0.65885 0.4375-1.1953-0.000006-0.32812-0.07032-0.59114-0.21094-0.78906-0.13542-0.19791-0.3099-0.34895-0.52344-0.45312-0.20834-0.10937-0.4349-0.18229-0.67969-0.21875-0.2448-0.03645-0.47657-0.05468-0.69531-0.05469h-0.76562v-1.7734h0.71875c0.21875 0.000007 0.4401-0.02083 0.66406-0.0625 0.22916-0.04166 0.43489-0.11718 0.61719-0.22656 0.18229-0.10937 0.33072-0.26041 0.44531-0.45312 0.11458-0.19791 0.17187-0.44791 0.17188-0.75-0.000006-0.45312-0.12761-0.80728-0.38281-1.0625-0.25-0.26041-0.61719-0.39062-1.1016-0.39062-0.45313 0.000009-0.82032 0.12501-1.1016 0.375-0.27604 0.25001-0.4349 0.60418-0.47656 1.0625l-2.1953-0.15625c0.0625-0.51562 0.20312-0.96353 0.42188-1.3438 0.22396-0.3802 0.5026-0.6953 0.83594-0.94531 0.33854-0.24999 0.72656-0.43488 1.1641-0.55469 0.4375-0.12499 0.90104-0.18749 1.3906-0.1875 0.64583 0.000011 1.2005 0.07814 1.6641 0.23438 0.46354 0.15626 0.84374 0.3672 1.1406 0.63281 0.29687 0.26564 0.51562 0.57553 0.65625 0.92969 0.14062 0.35418 0.21093 0.73178 0.21094 1.1328-0.000008 0.32292-0.04688 0.62501-0.14062 0.90625-0.09376 0.27605-0.23699 0.52605-0.42969 0.75-0.18751 0.21876-0.4297 0.40886-0.72656 0.57031-0.29688 0.15626-0.64844 0.27344-1.0547 0.35156v0.03125c0.45312 0.05209 0.84635 0.15626 1.1797 0.3125 0.33333 0.15105 0.60676 0.34115 0.82031 0.57031 0.21353 0.22917 0.37239 0.48959 0.47656 0.78125 0.10416 0.28646 0.15624 0.59115 0.15625 0.91406" fill="#215c26"/>
   <path d="m27.867 49.906c-0.000008 0.55209-0.07813 1.0599-0.23438 1.5234-0.15626 0.45834-0.39063 0.85417-0.70312 1.1875-0.3073 0.32813-0.69272 0.58594-1.1562 0.77344-0.46355 0.18229-1 0.27344-1.6094 0.27344-1.2969 0-2.2943-0.45312-2.9922-1.3594-0.69271-0.91146-1.0391-2.2604-1.0391-4.0469 0-1.9635 0.35156-3.4401 1.0547-4.4297 0.70833-0.99478 1.7187-1.4922 3.0312-1.4922 0.4375 0.000012 0.83593 0.04689 1.1953 0.14062 0.35937 0.08855 0.67968 0.23439 0.96094 0.4375 0.28124 0.20314 0.52083 0.46616 0.71875 0.78906 0.19791 0.31772 0.35676 0.70574 0.47656 1.1641l-2.07 0.289c-0.10417-0.38541-0.27344-0.66145-0.50781-0.82812-0.23438-0.17187-0.50782-0.2578-0.82031-0.25781-0.58855 0.00001-1.0521 0.29428-1.3906 0.88281-0.33334 0.58855-0.5 1.4818-0.5 2.6797 0.23437-0.39062 0.55989-0.6901 0.97656-0.89844 0.41666-0.20833 0.88802-0.31249 1.4141-0.3125 0.48437 0.000007 0.92187 0.08074 1.3125 0.24219 0.39583 0.15626 0.73176 0.38542 1.0078 0.6875 0.28124 0.29688 0.49739 0.66146 0.64844 1.0938 0.15103 0.4323 0.22655 0.91928 0.22656 1.4609m-2.2031 0.0625c-0.000006-0.29687-0.03386-0.5625-0.10156-0.79688-0.06771-0.23958-0.17188-0.4427-0.3125-0.60938-0.13542-0.16666-0.30469-0.29427-0.50781-0.38281-0.20313-0.09374-0.4375-0.14062-0.70312-0.14062-0.19271 0.000006-0.38542 0.03126-0.57812 0.09375-0.19271 0.06251-0.36459 0.16407-0.51562 0.30469-0.15104 0.13542-0.27344 0.3099-0.36719 0.52344-0.09375 0.21355-0.14063 0.47136-0.14062 0.77344-0.000003 0.3125 0.03906 0.60417 0.11719 0.875 0.07812 0.27084 0.1875 0.50782 0.32812 0.71094 0.14583 0.19792 0.32031 0.35417 0.52344 0.46875 0.20312 0.10938 0.43229 0.16406 0.6875 0.16406 0.49479 0.000002 0.8802-0.17448 1.1562-0.52344 0.27604-0.35416 0.41406-0.84114 0.41406-1.4609" fill="#215c26"/>
   <path d="m51.875 71.828c-0.000008 1.9531-0.35678 3.4141-1.0703 4.3828-0.71355 0.96875-1.7266 1.4531-3.0391 1.4531-0.47396 0-0.90104-0.04948-1.2812-0.14844-0.375-0.099-0.703-0.253-0.984-0.461-0.281-0.209-0.521-0.477-0.719-0.805-0.192-0.328-0.346-0.719-0.461-1.172l2.0625-0.28906c0.10416 0.39063 0.27344 0.67969 0.50781 0.86719 0.23958 0.1875 0.53906 0.28125 0.89844 0.28125 0.29687 0.000002 0.5625-0.07031 0.79688-0.21094 0.23437-0.14062 0.43489-0.35416 0.60156-0.64062 0.16666-0.28646 0.29426-0.64843 0.38281-1.0859 0.09374-0.4427 0.14322-0.96354 0.14844-1.5625-0.10417 0.20313-0.24219 0.38282-0.41406 0.53906-0.17188 0.15626-0.36719 0.28646-0.58594 0.39062-0.21355 0.10417-0.44271 0.1849-0.6875 0.24219-0.2448 0.05209-0.49219 0.07813-0.74219 0.07813-0.47917 0.000004-0.91406-0.08333-1.3047-0.25-0.39063-0.17187-0.72396-0.41666-1-0.73438-0.27604-0.3177-0.48958-0.70052-0.64062-1.1484-0.14583-0.45312-0.21875-0.96353-0.21875-1.5312-0.000001-0.58332 0.08594-1.1042 0.25781-1.5625 0.17708-0.45832 0.42969-0.84374 0.75781-1.1562 0.32812-0.3177 0.72916-0.55728 1.2031-0.71875 0.47916-0.16666 1.0208-0.24999 1.625-0.25 0.63541 0.000012 1.1953 0.10939 1.6797 0.32812 0.48958 0.21355 0.89843 0.54689 1.2266 1 0.32812 0.44793 0.57551 1.0182 0.74219 1.7109 0.17187 0.68751 0.2578 1.5052 0.25781 2.4531m-2.3203-1.5391c-0.000005-0.31249-0.03646-0.60416-0.10938-0.875-0.06771-0.27603-0.17188-0.51301-0.3125-0.71094-0.14063-0.20312-0.3125-0.36197-0.51562-0.47656-0.20313-0.11457-0.4375-0.17186-0.70312-0.17188-0.2448 0.00001-0.46354 0.04689-0.65625 0.14062-0.19271 0.08855-0.35677 0.21876-0.49219 0.39062-0.13542 0.17188-0.23959 0.38022-0.3125 0.625-0.06771 0.2448-0.10156 0.52084-0.10156 0.82812-0.000002 0.28647 0.03385 0.5547 0.10156 0.80469 0.0677 0.2448 0.16666 0.45834 0.29688 0.64062 0.1302 0.17709 0.29427 0.31771 0.49219 0.42188 0.19791 0.09896 0.42448 0.14844 0.67969 0.14844 0.20312 0.000006 0.40104-0.03645 0.59375-0.10938 0.19791-0.07291 0.37239-0.18228 0.52344-0.32812 0.15624-0.14583 0.28124-0.32812 0.375-0.54688 0.09374-0.22395 0.14062-0.48437 0.14062-0.78125" fill="#215c26"/>
   <path d="m75.754 68.238c-0.4948 0.78126-0.96355 1.5391-1.4062 2.2734-0.43751 0.73438-0.82032 1.474-1.1484 2.2188-0.32813 0.73959-0.58855 1.5026-0.78125 2.2891-0.1875 0.78125-0.28126 1.6094-0.28125 2.4844h-2.2891c-0.000002-0.86979 0.10156-1.6953 0.30469-2.4766 0.20833-0.78646 0.48958-1.5521 0.84375-2.2969 0.35416-0.74479 0.76562-1.4792 1.2344-2.2031 0.46874-0.72916 0.96354-1.4713 1.4844-2.2266h-5.4688v-1.8047h7.5078v1.7422" fill="#215c26"/>
  </g>
 </g>
</svg>
