<svg height="96" width="96" xmlns="http://www.w3.org/2000/svg" xmlns:sodipodi="http://sodipodi.sourceforge.net/DTD/sodipodi-0.dtd" xmlns:inkscape="http://www.inkscape.org/namespaces/inkscape">
 <defs>
  <clipPath id="clipPath3613-55">
   <rect x="6" rx="6" y="6" height="84" width="84"/>
  </clipPath>
  <filter x="-0.192" y="-0.192" height="1.384" color-interpolation-filters="sRGB" id="filter3794-41" width="1.384">
   <feGaussianBlur stdDeviation="5.28"/>
  </filter>
  <linearGradient x2="0" y1="90" y2="5.988" gradientUnits="userSpaceOnUse" id="linearGradient3182" gradientTransform="matrix(1.125 0 0 1.0417 -7.75 -3.25)">
   <stop stop-color="#8c8c8c"/>
   <stop stop-color="#dcdcdc" offset="1"/>
  </linearGradient>
  <linearGradient x2="0" y1="20.221" y2="138.66" gradientUnits="userSpaceOnUse" id="linearGradient90466">
   <stop stop-color="#fff"/>
   <stop stop-color="#fff" stop-opacity="0" offset="1"/>
  </linearGradient>
  <linearGradient x1="16" x2="80" gradientUnits="userSpaceOnUse" id="linearGradient3979" gradientTransform="matrix(0 1 -1 0 96 0)">
   <stop stop-color="#1e1e1e"/>
   <stop stop-color="#505050" offset="1"/>
  </linearGradient>
 </defs>
 <g transform="matrix(1 0 0 1 0 -956.36)">
  <rect x="3.608" rx="12.552" y="959.96" fill-opacity="0.039" height="88.76" width="88.76"/>
  <rect x="4.216" rx="12.38" y="960.57" fill-opacity="0.078" height="87.55" width="87.55"/>
  <rect x="4.824" rx="12.208" y="961.18" fill-opacity="0.157" height="86.33" width="86.33"/>
  <path d="m17.469 5.4062c-6.668 0-12.032 5.3948-12.032 12.063l0.0005 61.031c0 5.418 3.5332 9.982 8.4375 11.5h68.187c4.715-1.457 8.172-5.734 8.438-10.875v-62.281c-0.321-6.377-5.54-11.438-12-11.438l-61.031 0.0002z" fill="url(#linearGradient3182)" opacity="0.9" transform="matrix(1 0 0 1 0 956.36)"/>
  <path d="m5.4316 1029.8v5.0663c0 6.668 5.3645 12.032 12.032 12.032h61.049c6.668 0 12.032-5.3645 12.032-12.032v-5.0663c0 6.6681-5.3645 12.032-12.032 12.032h-61.049c-6.668 0-12.032-5.3643-12.032-12.032z" fill-opacity="0.235"/>
  <path d="m5.4316 1033.9v1.0133c0 6.668 5.3645 12.032 12.032 12.032h61.049c6.668 0 12.032-5.3645 12.032-12.032v-1.0133c0 6.6681-5.3645 12.032-12.032 12.032h-61.049c-6.668 0-12.032-5.3644-12.032-12.032z" fill-opacity="0.098"/>
  <rect x="15" stroke-width="0.5" rx="12" y="15" clip-path="url(#clipPath3613-55)" fill="url(#linearGradient90466)" stroke="#fff" height="66" filter="url(#filter3794-41)" opacity="0.3" stroke-linecap="round" width="66" transform="matrix(1 0 0 1 -0.5 953.86)"/>
  <g transform="matrix(1 0 0 1 0 954.36)">
   <path d="m80 48c0-2.216-1.784-4-4-4h-10c-2.216 0-4 1.784-4 4s1.784 4 4 4h10c2.216 0 4-1.784 4-4zm-8.188-19.812c0-1.0225-0.40403-2.029-1.1875-2.8125-1.5669-1.5669-4.0893-1.5669-5.6562 0l-7.0625 7.0625c-1.5669 1.5669-1.5669 4.0893 0 5.6562s4.0893 1.5669 5.6562 0l7.0625-7.0625c0.78347-0.78347 1.1875-1.8213 1.1875-2.8438zm0 39.625c0-1.0225-0.40403-2.0603-1.1875-2.8438l-7.0625-7.0625c-1.5669-1.5669-4.0893-1.5669-5.6562 0s-1.5669 4.0893 0 5.6562l7.0625 7.0625c1.5669 1.5669 4.0893 1.5669 5.6562 0 0.78347-0.78347 1.1875-1.79 1.1875-2.8125zm-19.812-47.813c0-2.216-1.784-4-4-4s-4 1.784-4 4v10c0 2.216 1.784 4 4 4s4-1.784 4-4v-10zm0 46c0-2.216-1.784-4-4-4s-4 1.784-4 4v10c0 2.216 1.784 4 4 4s4-1.784 4-4v-10zm-12.719-30.719c0-1.0225-0.40403-2.0603-1.1875-2.8438l-7.0625-7.0625c-1.5669-1.5669-4.0893-1.5669-5.6562 0s-1.5669 4.0893 0 5.6562l7.0625 7.0625c1.5669 1.5669 4.0893 1.5669 5.6562 0 0.78347-0.78347 1.1875-1.79 1.1875-2.8125zm0 25.438c0-1.0225-0.40403-2.029-1.1875-2.8125-1.5669-1.5669-4.0893-1.5669-5.6562 0l-7.0625 7.0625c-1.5669 1.5669-1.5669 4.0893 0 5.6562s4.0893 1.5669 5.6562 0l7.0625-7.0625c0.78347-0.78347 1.1875-1.8213 1.1875-2.8438zm-5.281-12.719c0-2.216-1.784-4-4-4h-10c-2.216 0-4 1.784-4 4s1.784 4 4 4h10c2.216 0 4-1.784 4-4z" fill="url(#linearGradient3979)" color="#000000"/>
   <path d="m48 16c-2.216 0-4 1.784-4 4v10c0 2.216 1.784 4 4 4s4-1.784 4-4v-10c0-2.216-1.784-4-4-4zm0 0.96875c1.7025 0 3.0312 1.3287 3.0312 3.0312v10c0 1.7025-1.3287 3.0312-3.0312 3.0312s-3.0312-1.3287-3.0312-3.0312v-10c0-1.7025 1.3287-3.0312 3.0312-3.0312zm-19.812 7.219c-1.0223 0-2.029 0.40402-2.8125 1.1875-1.5669 1.5669-1.5669 4.0893 0 5.6562l7.0625 7.0625c1.5669 1.5669 4.0893 1.5669 5.6562 0 0.78347-0.78347 1.1875-1.79 1.1875-2.8125s-0.40403-2.0603-1.1875-2.8438l-7.063-7.063c-0.783-0.783-1.821-1.187-2.843-1.187zm39.625 0c-1.0223 0-2.0603 0.40402-2.8438 1.1875l-7.0625 7.0625c-1.5669 1.5669-1.5669 4.0893 0 5.6562s4.0893 1.5669 5.6562 0l7.0625-7.0625c0.78347-0.78347 1.1875-1.8213 1.1875-2.8438s-0.40403-2.029-1.1875-2.8125c-0.78347-0.78348-1.7902-1.1875-2.8125-1.1875zm-39.625 0.96875c0.77027 0 1.5552 0.30523 2.1562 0.90625l7.0625 7.0625c0.60107 0.60107 0.90625 1.3858 0.90625 2.1562 0 0.77046-0.29619 1.5149-0.90625 2.125-1.204 1.204-3.0773 1.204-4.2812 0l-7.0625-7.0625c-1.204-1.204-1.204-3.0773 0-4.2812 0.61002-0.61002 1.3547-0.90625 2.125-0.90625zm39.625 0c0.77027 0 1.515 0.29623 2.125 0.90625 0.61006 0.61006 0.90625 1.3545 0.90625 2.125 0 0.77046-0.30518 1.5552-0.90625 2.1562l-7.0625 7.0625c-1.204 1.204-3.0773 1.204-4.2812 0-1.204-1.204-1.204-3.0773 0-4.2812l7.0625-7.0625c0.60102-0.60102 1.386-0.90625 2.1562-0.90625zm-47.813 18.843c-2.216 0-4 1.784-4 4s1.784 4 4 4h10c2.216 0 4-1.784 4-4s-1.784-4-4-4h-10zm46 0c-2.216 0-4 1.784-4 4s1.784 4 4 4h10c2.216 0 4-1.784 4-4s-1.784-4-4-4h-10zm-46 0.96875h10c1.7025 0 3.0312 1.3287 3.0312 3.0312s-1.3287 3.0312-3.0312 3.0312h-10c-1.7025 0-3.0312-1.3287-3.0312-3.0312s1.3287-3.0312 3.0312-3.0312zm46 0h10c1.7025 0 3.0312 1.3287 3.0312 3.0312s-1.3287 3.0312-3.0312 3.0312h-10c-1.7025 0-3.0312-1.3287-3.0312-3.0312s1.3287-3.0312 3.0312-3.0312zm-30.75 11.75c-1.0223 0-2.029 0.40403-2.8125 1.1875l-7.0625 7.0625c-1.5669 1.5669-1.5669 4.0893 0 5.6562s4.0893 1.5669 5.6562 0l7.0625-7.0625c0.78347-0.78347 1.1875-1.8213 1.1875-2.8438s-0.40403-2.029-1.1875-2.8125c-0.78347-0.78347-1.8214-1.1875-2.8438-1.1875zm25.5 0c-1.0223 0-2.0603 0.40403-2.8438 1.1875-1.5669 1.5669-1.5669 4.0893 0 5.6562l7.0625 7.0625c1.5669 1.5669 4.0893 1.5669 5.6562 0 0.78347-0.78347 1.1875-1.79 1.1875-2.8125s-0.40403-2.0603-1.1875-2.8438l-7.0625-7.0625c-0.78347-0.78347-1.7902-1.1875-2.8125-1.1875zm-25.5 0.96875c0.77027 0 1.5552 0.30523 2.1562 0.90625 0.61006 0.61006 0.90625 1.3545 0.90625 2.125 0 0.77046-0.30518 1.5552-0.90625 2.1562l-7.0625 7.0625c-1.204 1.204-3.0773 1.204-4.2812 0-1.204-1.204-1.204-3.0773 0-4.2812l7.0625-7.0625c0.61002-0.61002 1.3547-0.90625 2.125-0.90625zm25.5 0c0.77027 0 1.515 0.29623 2.125 0.90625l7.0625 7.0625c0.60107 0.60107 0.90625 1.3858 0.90625 2.1562 0 0.77046-0.29619 1.5149-0.90625 2.125-1.204 1.204-3.0773 1.204-4.2812 0l-7.0625-7.0625c-1.204-1.204-1.204-3.0773 0-4.2812 0.601-0.6 1.386-0.905 2.156-0.905zm-12.75 4.312c-2.216 0-4 1.784-4 4v10c0 2.216 1.784 4 4 4s4-1.784 4-4v-10c0-2.216-1.784-4-4-4zm0 0.96875c1.7025 0 3.0312 1.3287 3.0312 3.0312v10c0 1.7025-1.3287 3.0312-3.0312 3.0312s-3.0312-1.3287-3.0312-3.0312v-10c0-1.7025 1.3287-3.0312 3.0312-3.0312z" color="#000000" opacity="0.2"/>
   <path d="m48 16c-2.216 0-4 1.784-4 4v10c0 2.216 1.784 4 4 4s4-1.784 4-4v-10c0-2.216-1.784-4-4-4zm0 2c1.1434 0 2 0.85655 2 2v10c0 1.1434-0.85655 2-2 2s-2-0.85655-2-2v-10c0-1.1434 0.85655-2 2-2zm-19.812 6.1875c-1.0223 0-2.029 0.40402-2.8125 1.1875-1.5669 1.5669-1.5669 4.0893 0 5.6562l7.0625 7.0625c1.5669 1.5669 4.0893 1.5669 5.6562 0 0.78347-0.78347 1.1875-1.79 1.1875-2.8125s-0.40403-2.0603-1.1875-2.8438l-7.063-7.063c-0.783-0.783-1.821-1.187-2.843-1.187zm39.625 0c-1.0223 0-2.0603 0.40402-2.8438 1.1875l-7.0625 7.0625c-1.5669 1.5669-1.5669 4.0893 0 5.6562s4.0893 1.5669 5.6562 0l7.0625-7.0625c0.78347-0.78347 1.1875-1.8213 1.1875-2.8438s-0.40403-2.029-1.1875-2.8125c-0.78347-0.78348-1.7902-1.1875-2.8125-1.1875zm-39.625 2c0.49581 0 1.0351 0.19139 1.4375 0.59375l7.0625 7.0625c0.40244 0.40244 0.59375 0.94146 0.59375 1.4375s-0.17252 0.98502-0.59375 1.4062c-0.80872 0.80872-2.035 0.80872-2.8438 0l-7.0625-7.0625c-0.80872-0.80872-0.80872-2.035 0-2.8438 0.42114-0.42114 0.91044-0.59375 1.4062-0.59375zm39.625 0c0.49581 0 0.98511 0.17261 1.4062 0.59375 0.42123 0.42123 0.59375 0.91021 0.59375 1.4062 0 0.49604-0.1913 1.0351-0.59375 1.4375l-7.0625 7.0625c-0.80872 0.80872-2.035 0.80872-2.8438 0-0.80872-0.80872-0.80872-2.035 0-2.8438l7.0625-7.0625c0.40235-0.40235 0.94169-0.59375 1.4375-0.59375zm-47.813 17.812c-2.216 0-4 1.784-4 4s1.784 4 4 4h10c2.216 0 4-1.784 4-4s-1.784-4-4-4h-10zm46 0c-2.216 0-4 1.784-4 4s1.784 4 4 4h10c2.216 0 4-1.784 4-4s-1.784-4-4-4h-10zm-46 2h10c1.1434 0 2 0.85655 2 2s-0.85655 2-2 2h-10c-1.1434 0-2-0.85655-2-2s0.85655-2 2-2zm46 0h10c1.1434 0 2 0.85655 2 2s-0.85655 2-2 2h-10c-1.1434 0-2-0.85655-2-2s0.85655-2 2-2zm-30.75 10.719c-1.0223 0-2.029 0.40403-2.8125 1.1875l-7.0625 7.0625c-1.5669 1.5669-1.5669 4.0893 0 5.6562s4.0893 1.5669 5.6562 0l7.0625-7.0625c0.78347-0.78347 1.1875-1.8213 1.1875-2.8438s-0.40403-2.029-1.1875-2.8125c-0.78347-0.78347-1.8214-1.1875-2.8438-1.1875zm25.5 0c-1.0223 0-2.0603 0.40403-2.8438 1.1875-1.5669 1.5669-1.5669 4.0893 0 5.6562l7.0625 7.0625c1.5669 1.5669 4.0893 1.5669 5.6562 0 0.78347-0.78347 1.1875-1.79 1.1875-2.8125s-0.40403-2.0603-1.1875-2.8438l-7.0625-7.0625c-0.78347-0.78347-1.7902-1.1875-2.8125-1.1875zm-25.5 2c0.49581 0 1.0351 0.1914 1.4375 0.59375 0.42123 0.42123 0.59375 0.91021 0.59375 1.4062 0 0.49604-0.1913 1.0351-0.59375 1.4375l-7.0625 7.0625c-0.80872 0.80872-2.035 0.80872-2.8438 0-0.80872-0.80872-0.80872-2.035 0-2.8438l7.0625-7.0625c0.42114-0.42114 0.91044-0.59375 1.4062-0.59375zm25.5 0c0.49581 0 0.98511 0.17261 1.4062 0.59375l7.0625 7.0625c0.40244 0.40244 0.59375 0.94146 0.59375 1.4375s-0.17252 0.98502-0.59375 1.4062c-0.80872 0.80872-2.035 0.80872-2.8438 0l-7.0625-7.0625c-0.80872-0.80872-0.80872-2.035 0-2.8438 0.40235-0.40235 0.94169-0.59375 1.4375-0.59375zm-12.75 3.281c-2.216 0-4 1.784-4 4v10c0 2.216 1.784 4 4 4s4-1.784 4-4v-10c0-2.216-1.784-4-4-4zm0 2c1.1434 0 2 0.85655 2 2v10c0 1.1434-0.85655 2-2 2s-2-0.85655-2-2v-10c0-1.1434 0.85655-2 2-2z" color="#000000" opacity="0.05"/>
   <path d="m48 16c-2.216 0-4 1.784-4 4v1c0-2.216 1.784-4 4-4s4 1.784 4 4v-1c0-2.216-1.784-4-4-4zm-19.812 8.1875c-1.0223 0-2.029 0.40402-2.8125 1.1875-0.9089 0.9089-1.2705 2.1336-1.125 3.3125 0.10882-0.84641 0.4721-1.6596 1.125-2.3125 1.5669-1.5669 4.0893-1.5669 5.6562 0l7.0625 7.0625c0.65312 0.65312 1.0447 1.4934 1.1562 2.3438 0.02226-0.16828 0.03125-0.32988 0.03125-0.5 0-1.0225-0.40403-2.0603-1.1875-2.8438l-7.063-7.063c-0.783-0.783-1.821-1.187-2.843-1.187zm39.625 0c-1.0223 0-2.0603 0.40402-2.8438 1.1875l-7.0625 7.0625c-0.9089 0.9089-1.2705 2.1336-1.125 3.3125 0.10882-0.84641 0.4721-1.6596 1.125-2.3125l7.0625-7.0625c1.5669-1.5669 4.0893-1.5669 5.6562 0 0.65312 0.65312 1.0447 1.4693 1.1562 2.3125 0.02226-0.16972 0.03125-0.32988 0.03125-0.5 0-1.0225-0.40403-2.029-1.1875-2.8125-0.78347-0.78348-1.7902-1.1875-2.8125-1.1875zm-47.813 19.812c-2.216 0-4 1.784-4 4 0 0.17065 0.04196 0.33509 0.0625 0.5 0.247-1.977 1.893-3.5 3.938-3.5h10c2.0454 0 3.6913 1.5235 3.9375 3.5 0.02-0.165 0.062-0.329 0.062-0.5 0-2.216-1.784-4-4-4h-10zm46 0c-2.216 0-4 1.784-4 4 0 0.17065 0.04196 0.33509 0.0625 0.5 0.247-1.977 1.893-3.5 3.938-3.5h10c2.0454 0 3.6913 1.5235 3.9375 3.5 0.02-0.165 0.062-0.329 0.062-0.5 0-2.216-1.784-4-4-4h-10zm-30.75 12.719c-1.0223 0-2.029 0.40403-2.8125 1.1875l-7.0625 7.0625c-0.91405 0.91405-1.2773 2.1588-1.125 3.3438 0.10535-0.85352 0.46696-1.6857 1.125-2.3438l7.0625-7.0625c1.5669-1.5669 4.0893-1.5669 5.6562 0 0.65312 0.65312 1.0447 1.4693 1.1562 2.3125 0.02226-0.16972 0.03125-0.32988 0.03125-0.5 0-1.0225-0.40403-2.029-1.1875-2.8125-0.78347-0.78347-1.8214-1.1875-2.8438-1.1875zm25.5 0c-1.0223 0-2.0603 0.40403-2.8438 1.1875-0.91405 0.91405-1.2773 2.1588-1.125 3.3438 0.10535-0.85352 0.46696-1.6857 1.125-2.3438 1.5669-1.5669 4.0893-1.5669 5.6562 0l7.0625 7.0625c0.65312 0.65312 1.0447 1.4934 1.1562 2.3438 0.02226-0.16828 0.03125-0.32988 0.03125-0.5 0-1.0225-0.40403-2.0603-1.1875-2.8438l-7.0625-7.0625c-0.783-0.783-1.79-1.187-2.812-1.187zm-12.75 5.281c-2.216 0-4 1.784-4 4v1c0-2.216 1.784-4 4-4s4 1.784 4 4v-1c0-2.216-1.784-4-4-4z" color="#000000" opacity="0.6"/>
   <path d="m24.25 28.688c-0.15234 1.185 0.21095 2.4297 1.125 3.3438l7.0625 7.0625c1.5669 1.5669 4.0893 1.5669 5.6562 0 0.78347-0.78347 1.1875-1.79 1.1875-2.8125 0-0.17012-0.009-0.33028-0.03125-0.5-0.11151 0.84316-0.50313 1.6594-1.1562 2.3125-1.5669 1.5669-4.0893 1.5669-5.6562 0l-7.063-7.063c-0.658-0.658-1.02-1.49-1.125-2.343zm47.531 0c-0.11151 0.85038-0.50313 1.6906-1.1562 2.3438l-7.0625 7.0625c-1.5669 1.5669-4.0893 1.5669-5.6562 0-0.65804-0.65804-1.0197-1.4902-1.125-2.3438-0.15234 1.185 0.21095 2.4297 1.125 3.3438 1.5669 1.5669 4.0893 1.5669 5.6562 0l7.0625-7.0625c0.78347-0.78347 1.1875-1.8213 1.1875-2.8438 0-0.17012-0.009-0.33172-0.03125-0.5zm-27.781 1.312v1c0 2.216 1.784 4 4 4s4-1.784 4-4v-1c0 2.216-1.784 4-4 4s-4-1.784-4-4zm-27.938 18.5c-0.02 0.165-0.062 0.329-0.062 0.5 0 2.216 1.784 4 4 4h10c2.216 0 4-1.784 4-4 0-0.17065-0.04196-0.33509-0.0625-0.5-0.247 1.977-1.893 3.5-3.938 3.5h-10c-2.0454 0-3.6913-1.5235-3.9375-3.5zm46 0c-0.02 0.165-0.062 0.329-0.062 0.5 0 2.216 1.784 4 4 4h10c2.216 0 4-1.784 4-4 0-0.17065-0.04196-0.33509-0.0625-0.5-0.247 1.977-1.893 3.5-3.938 3.5h-10c-2.0454 0-3.6913-1.5235-3.9375-3.5zm-22.812 12.719c-0.11151 0.85038-0.50313 1.6906-1.1562 2.3438l-7.0625 7.0625c-1.5669 1.5669-4.0893 1.5669-5.6562 0-0.6529-0.6529-1.0162-1.4661-1.125-2.3125-0.14551 1.1789 0.2161 2.4036 1.125 3.3125 1.5669 1.5669 4.0893 1.5669 5.6562 0l7.0625-7.0625c0.78347-0.78347 1.1875-1.8213 1.1875-2.8438 0-0.17012-0.009-0.33172-0.03125-0.5zm17.531 0.031c-0.14551 1.1789 0.2161 2.4036 1.125 3.3125l7.0625 7.0625c1.5669 1.5669 4.0893 1.5669 5.6562 0 0.78347-0.78347 1.1875-1.79 1.1875-2.8125 0-0.17012-0.009-0.33028-0.03125-0.5-0.11151 0.84316-0.50313 1.6594-1.1562 2.3125-1.5669 1.5669-4.0893 1.5669-5.6562 0l-7.0625-7.0625c-0.653-0.652-1.016-1.466-1.125-2.312zm-12.781 14.75v1c0 2.216 1.784 4 4 4s4-1.784 4-4v-1c0 2.216-1.784 4-4 4s-4-1.784-4-4z" fill="#fff" color="#000000" opacity="0.6"/>
  </g>
 </g>
</svg>
