<?xml version="1.0" encoding="UTF-8" standalone="no"?>
<svg
   xmlns:dc="http://purl.org/dc/elements/1.1/"
   xmlns:cc="http://creativecommons.org/ns#"
   xmlns:rdf="http://www.w3.org/1999/02/22-rdf-syntax-ns#"
   xmlns:svg="http://www.w3.org/2000/svg"
   xmlns="http://www.w3.org/2000/svg"
   xmlns:xlink="http://www.w3.org/1999/xlink"
   xmlns:sodipodi="http://sodipodi.sourceforge.net/DTD/sodipodi-0.dtd"
   xmlns:inkscape="http://www.inkscape.org/namespaces/inkscape"
   height="96"
   width="96"
   id="svg3036"
   version="1.1"
   inkscape:version="0.91 r13725"
   sodipodi:docname="gnibbles.svg">
  <metadata
     id="metadata3141">
    <rdf:RDF>
      <cc:Work
         rdf:about="">
        <dc:format>image/svg+xml</dc:format>
        <dc:type
           rdf:resource="http://purl.org/dc/dcmitype/StillImage" />
      </cc:Work>
    </rdf:RDF>
  </metadata>
  <sodipodi:namedview
     pagecolor="#ffffff"
     bordercolor="#666666"
     borderopacity="1"
     objecttolerance="10"
     gridtolerance="10"
     guidetolerance="10"
     inkscape:pageopacity="0"
     inkscape:pageshadow="2"
     inkscape:window-width="640"
     inkscape:window-height="480"
     id="namedview3139"
     showgrid="false"
     inkscape:zoom="2.4583333"
     inkscape:cx="48"
     inkscape:cy="48"
     inkscape:current-layer="svg3036" />
  <defs
     id="defs3038">
    <clipPath
       id="clipPath3613-32">
      <rect
         x="6"
         rx="6"
         y="6"
         height="84"
         width="84"
         id="rect3041" />
    </clipPath>
    <filter
       x="-0.192"
       y="-0.192"
       height="1.384"
       color-interpolation-filters="sRGB"
       id="filter3794-25"
       width="1.384">
      <feGaussianBlur
         stdDeviation="5.28"
         id="feGaussianBlur3044" />
    </filter>
    <linearGradient
       x2="0"
       y1="20.221"
       y2="138.66"
       gradientUnits="userSpaceOnUse"
       id="linearGradient43194">
      <stop
         stop-color="#fff"
         id="stop3047" />
      <stop
         stop-color="#fff"
         stop-opacity="0"
         offset="1"
         id="stop3049" />
    </linearGradient>
    <radialGradient
       cy="40.3"
       r="26.876"
       gradientUnits="userSpaceOnUse"
       id="radialGradient43196"
       cx="40"
       gradientTransform="matrix(1,0,0,1.0391,0,-1.877)">
      <stop
         stop-color="#f4d7d7"
         id="stop3052" />
      <stop
         stop-color="#e9afaf"
         offset="1"
         id="stop3054" />
    </radialGradient>
    <linearGradient
       x1="0.861"
       x2="45.03"
       y1="4.936"
       y2="25.572"
       gradientUnits="userSpaceOnUse"
       id="linearGradient43198"
       gradientTransform="matrix(1.2484,0,0,1.2484,23.345,15.967)">
      <stop
         stop-color="#eeeeec"
         id="stop3057" />
      <stop
         stop-color="#eeeeec"
         stop-opacity="0"
         offset="1"
         id="stop3059" />
    </linearGradient>
    <linearGradient
       x1="222.59"
       x2="337.49"
       y1="499.12"
       y2="473.96"
       gradientUnits="userSpaceOnUse"
       id="linearGradient43200"
       gradientTransform="matrix(0.14716,0,0,0.14716,-0.098,-26.678)">
      <stop
         stop-color="#d0d0d0"
         id="stop3062" />
      <stop
         stop-color="#fff"
         offset="0.4"
         id="stop3064" />
      <stop
         stop-color="#fff"
         offset="0.7"
         id="stop3066" />
      <stop
         stop-color="#d0d0d0"
         offset="1"
         id="stop3068" />
    </linearGradient>
    <linearGradient
       x1="301.56"
       x2="308.31"
       y1="483.01"
       y2="497.39"
       gradientUnits="userSpaceOnUse"
       id="linearGradient43202"
       gradientTransform="matrix(0.14716,0,0,0.14716,-0.098,-26.678)">
      <stop
         stop-color="#d0d0d0"
         id="stop3071" />
      <stop
         stop-color="#b0b0b0"
         stop-opacity="0"
         offset="1"
         id="stop3073" />
    </linearGradient>
    <linearGradient
       x2="0"
       y1="90"
       y2="5.988"
       gradientUnits="userSpaceOnUse"
       id="linearGradient43205"
       gradientTransform="matrix(1.0774,0,0,1.0893,-4.464,-5.03)">
      <stop
         stop-color="#5c8947"
         id="stop3076" />
      <stop
         stop-color="#99c376"
         offset="1"
         id="stop3078" />
    </linearGradient>
    <clipPath
       clipPathUnits="userSpaceOnUse"
       id="clipPath43209">
      <path
         d="m115.24 954.83c-6.5138 0-11.753 5.2745-11.753 11.794v59.673c0 5.2973 3.4515 9.7597 8.2424 11.244h66.611c4.6058-1.4243 7.983-5.6061 8.2424-10.633v-60.895c-0.31375-6.2352-5.4123-11.183-11.723-11.183h-59.62z"
         id="path3081" />
    </clipPath>
    <linearGradient
       inkscape:collect="always"
       xlink:href="#linearGradient14231"
       id="linearGradient14237"
       x1="50.707542"
       y1="81.682442"
       x2="50.707542"
       y2="96.539803"
       gradientUnits="userSpaceOnUse" />
    <linearGradient
       inkscape:collect="always"
       id="linearGradient14231">
      <stop
         style="stop-color:#000000;stop-opacity:1;"
         offset="0"
         id="stop14233" />
      <stop
         style="stop-color:#000000;stop-opacity:0;"
         offset="1"
         id="stop14235" />
    </linearGradient>
    <linearGradient
       inkscape:collect="always"
       xlink:href="#linearGradient14239"
       id="linearGradient14245"
       x1="49.876652"
       y1="87.937508"
       x2="49.876652"
       y2="76.719681"
       gradientUnits="userSpaceOnUse" />
    <linearGradient
       inkscape:collect="always"
       id="linearGradient14239">
      <stop
         style="stop-color:#ffffff;stop-opacity:1;"
         offset="0"
         id="stop14241" />
      <stop
         style="stop-color:#ffffff;stop-opacity:0;"
         offset="1"
         id="stop14243" />
    </linearGradient>
  </defs>
  <rect
     style="fill-opacity:0.03900003"
     id="rect3085"
     width="88.760002"
     height="88.760002"
     y="3.6000221"
     rx="12.552"
     x="3.608" />
  <rect
     style="fill-opacity:0.078"
     id="rect3087"
     width="87.550003"
     height="87.550003"
     y="4.2100072"
     rx="12.38"
     x="4.2160001" />
  <rect
     style="fill-opacity:0.15700001"
     id="rect3089"
     width="86.330002"
     height="86.330002"
     y="4.8199925"
     rx="12.208"
     x="4.8239999" />
  <path
     inkscape:connector-curvature="0"
     style="fill:url(#linearGradient43205)"
     id="path3091"
     d="m 17.469,5.41 c -6.668,0 -12.031,5.3945 -12.031,12.062 l 0,61.031 c 0,5.4178 3.5332,9.9818 8.4375,11.5 l 68.188,0 c 4.7148,-1.4568 8.1719,-5.7337 8.4375,-10.875 l 0,-62.281 C 90.17983,10.4699 84.9606,5.409 78.501,5.409 l -61.031,0 z" />
  <g
     id="g3093"
     transform="matrix(1.0237,0,0,1.0228,-100.5,-971.146)"
     clip-path="url(#clipPath43209)">
    <rect
       style="opacity:0.1;fill:url(#linearGradient43194);stroke:#ffffff;stroke-width:0.5;stroke-linecap:round;filter:url(#filter3794-25)"
       id="rect3095"
       transform="translate(99.5,951.36)"
       width="66"
       height="66"
       clip-path="url(#clipPath3613-32)"
       y="15"
       rx="12"
       x="15" />
    <g
       id="g3097"
       transform="matrix(1.3589,0,0,1.3228,75.852,939.57)">
      <path
         style="opacity:0.05;fill-rule:evenodd"
         inkscape:connector-curvature="0"
         id="path3099"
         d="m 42.562,17.938 c -9.1897,-0.08049 -18.368,7.4009 -18.469,17 a 1.0566,1.0566 0 0 0 0,0.03125 c 0.14,6.351 2.051,12.546 3.907,18.437 a 1.0566,1.0566 0 0 0 0,0.03125 c 2.7274,7.8145 5.7478,15.871 11.031,22.594 a 1.0566,1.0566 0 0 0 0.03125,0 c 1.6703,2.088 4.3674,4.1836 7.4375,3.8125 l 0,0.03125 c 0.05455,5.87e-4 0.10189,-0.03085 0.15625,-0.03125 3.3805,-0.02466 6.3688,-1.9149 8.2812,-4.5312 l 0.03125,0 c 0.0046,-0.0063 -0.0046,-0.02497 0,-0.03125 1.9666,-2.5293 3.5006,-5.2234 5.1562,-7.7812 2.6348,4.9403 6.3079,10.166 12.5,11.219 a 1.0566,1.0566 0 0 0 0.03125,0 c 1.8625,0.27646 4.011,0.29082 6,-0.3125 1.9551,-0.59304 3.7759,-1.8665 4.7188,-3.9688 l 0.03125,0 c 0.01102,-0.02133 0.02056,-0.0411 0.03125,-0.0625 0.0048,-0.0096 -0.0047,-0.02164 0,-0.03125 0.81111,-1.6483 0.68177,-3.5085 -0.0625,-5 -0.75433,-1.5116 -2.1002,-2.7342 -3.75,-3.3125 -0.0088,-0.0032 -0.02249,0.0032 -0.03125,0 -2.6289,-0.97476 -4.97,-2.6462 -5.75,-5.2188 -1.7187,-5.5029 -3.5648,-11.936 -8.875,-15.719 a 1.0566,1.0566 0 0 0 -0.093,-0.033 c -0.748,-0.446 -1.701,-0.931 -2.781,-1.156 -1.011,-0.21 -2.207,-0.112 -3.188,0.594 l -0.031,-0.031 c -0.04791,0.02591 -0.07761,0.06737 -0.125,0.09375 -0.01935,0.01559 -0.04335,0.0151 -0.0625,0.03125 -3.1549,1.778 -5.1436,4.5634 -6.9062,7.4062 2.3371,-5.4995 5.5706,-11.272 4.5625,-17.938 l 0.03125,0 c -0.001,-0.051 -0.03,-0.104 -0.031,-0.156 -0.132,-5.98 -2.995,-12.752 -9.188,-15.031 -1.474,-0.57 -3.027,-0.829 -4.531,-0.937 a 1.0566,1.0566 0 0 0 -0.0625,0 z" />
      <path
         style="opacity:0.1;fill-rule:evenodd"
         inkscape:connector-curvature="0"
         id="path3101"
         d="m 42.562,19 c -8.6025,-0.07535 -17.319,7.015 -17.412,15.932 0.13452,6.1543 1.9939,12.282 3.8471,18.165 2.7212,7.7966 5.7194,15.727 10.87,22.281 1.5555,1.9445 4.1011,3.8111 6.6321,3.4344 3.0522,0.03282 5.8505,-1.7129 7.6221,-4.155 2.2587,-2.9001 3.972,-6.1737 6.0654,-9.1888 2.6282,5.2638 6.3455,11.137 12.63,12.205 3.4788,0.51639 8.0641,-0.03564 9.6432,-3.7282 1.3933,-2.6974 -0.44642,-5.9633 -3.2068,-6.9175 -2.8186,-1.0394 -5.5024,-2.9033 -6.4162,-5.917 -1.72,-5.511 -3.548,-11.618 -8.488,-15.137 -1.371,-0.819 -3.569,-1.752 -4.973,-0.568 -4.724,2.5544 -6.8363,7.8177 -9.7875,12.021 -0.9741,0.51216 0.06815,-3.1672 0.53178,-4.2463 2.377,-6.131 6.302,-12.255 5.193,-19.119 -0.079,-5.688 -2.841,-12.103 -8.537,-14.2 -1.344,-0.519 -2.781,-0.758 -4.213,-0.862 z m 2.2188,59.312 c 0.72412,0.64376 0.07982,0.26736 0,0 z" />
      <path
         style="opacity:0.15;fill-rule:evenodd"
         inkscape:connector-curvature="0"
         id="path3103"
         d="m 42.531,20.094 c -1.3136,-0.03256 -2.6464,0.13747 -3.9375,0.46875 -3.4476,0.88463 -6.7192,2.9363 -9.0625,5.7188 -2.3284,2.7647 -3.7207,6.3532 -3.2812,10.156 -0.01186,-0.15843 -0.01326,-0.14448 0,0.03125 6.79e-4,0.009 -6.89e-4,0.02223 0,0.03125 0.48073,6.2899 3.3946,16.305 7.0312,24.938 1.8246,4.3314 3.8479,8.2694 5.875,11.219 1.0136,1.4747 2.0199,2.7119 3.0938,3.625 1.0325,0.87794 2.1819,1.4744 3.4375,1.5 0.02295,4.69e-4 0.03947,0.03117 0.0625,0.03125 0.0547,0.0068 0.02733,0.03257 0.09375,0.03125 a 0.9611,0.9611 0 0 0 0.375,-0.09375 c 1.7882,0.10814 3.438,-0.4297 4.7812,-1.4688 1.4897,-1.1523 2.694,-2.734 3.8125,-4.4375 1.922,-2.9273 3.6419,-6.1206 5.4375,-8.4375 0.06541,0.1147 0.08628,0.12171 0.15625,0.25 0.66339,1.2164 1.5593,3.0411 2.7188,4.9375 1.1597,1.8968 2.5819,3.8849 4.4375,5.4375 1.8441,1.543 4.179,2.6692 6.9062,2.6875 0.01077,7.2e-5 0.02047,-3.8e-5 0.03125,0 0.01052,6.94e-4 0.02073,-6.68e-4 0.03125,0 1.6013,0.10165 3.2367,-0.09132 4.625,-0.78125 1.4502,-0.72071 2.6166,-2.16 2.6875,-4 a 0.9611,0.9611 0 0 0 0,-0.03125 c 0.01509,-1.5214 -0.90629,-2.6705 -1.9375,-3.3125 -0.97005,-0.60394 -1.9907,-0.93699 -3.0312,-1.4688 -2.1026,-1.0745 -4.3035,-2.6288 -5.75,-7.7812 -1.2111,-4.3141 -2.8496,-7.5715 -4.5938,-9.8125 -1.7351,-2.2292 -3.6763,-3.6116 -5.75,-3.5625 l -0.03125,0 -0.0625,0 a 0.9611,0.9611 0 0 0 -0.40625,0.09375 0.9611,0.9611 0 0 0 -0.03125,0 l -0.0625,0.03125 0,0.03125 c -1.4724,0.57024 -2.6745,1.7449 -3.8438,3.1562 -1.1994,1.4478 -2.3515,3.1912 -3.4375,4.9062 -1.0835,1.711 -2.1087,3.3893 -2.9688,4.7188 -0.39313,0.60769 -0.58919,0.80368 -0.875,1.1562 -0.68725,-1.0153 -1.0411,-2.0621 -0.9375,-3.3438 0.15047,-1.8612 0.97624,-4.1281 2.0625,-6.5938 2.1085,-4.7861 5.0621,-10.316 4.0625,-16.062 -0.0018,-0.01052 0.0019,-0.02073 0,-0.03125 a 0.9611,0.9611 0 0 0 0,-0.09375 0.9611,0.9611 0 0 0 0.03125,-0.25 c -0.464,-5.636 -2.55,-9.448 -5.53,-11.563 -1.4823,-1.0523 -3.1627,-1.6778 -4.9062,-1.9062 -0.43446,-0.05692 -0.87382,-0.11413 -1.3125,-0.125 z" />
      <path
         style="opacity:0.3;fill-rule:evenodd"
         inkscape:connector-curvature="0"
         id="path3105"
         d="m 42.5,21.062 c -1.2156,-0.03013 -2.4411,0.12572 -3.6562,0.4375 -3.2403,0.83143 -6.3545,2.7845 -8.5625,5.4062 -2.2014,2.6139 -3.4888,5.9422 -3.0625,9.4688 6.66e-4,0.0089 -6.76e-4,0.02229 0,0.03125 0.45779,6.0668 3.3289,16.09 6.9375,24.656 1.807,4.2895 3.8128,8.1984 5.7812,11.062 0.98424,1.432 1.9639,2.6097 2.9375,3.4375 0.95164,0.80919 1.8969,1.2779 2.875,1.2812 0.02255,7.8e-5 0.03994,0.0317 0.0625,0.03125 l 0,-0.03125 c 1.7346,0.25135 3.2669,-0.28618 4.5938,-1.3125 1.3438,-1.0394 2.4992,-2.5517 3.5938,-4.2188 2.1368,-3.2544 4.0639,-7.1412 6.2812,-9.5938 0.03842,0.03245 0.06587,0.02376 0.125,0.09375 0.21854,0.25867 0.50167,0.74777 0.84375,1.375 0.68416,1.2545 1.5583,3.0593 2.6875,4.9062 1.1292,1.847 2.5159,3.7366 4.25,5.1875 1.7265,1.4446 3.8316,2.4601 6.3125,2.4688 0.0108,3.8e-5 0.02044,0 0.03125,0 1.4946,0.10233 2.992,-0.0934 4.1875,-0.6875 1.2039,-0.5983 2.0997,-1.688 2.1562,-3.1562 0.01152,-1.1612 -0.63328,-1.9798 -1.4688,-2.5 -0.83547,-0.52015 -1.8578,-0.86978 -2.9688,-1.4375 -2.2219,-1.1354 -4.7438,-3.0099 -6.25,-8.375 -1.1846,-4.2197 -2.7623,-7.3566 -4.4062,-9.4688 -1.644,-2.1122 -3.3797,-3.2371 -5,-3.1875 l -0.09375,0 -0.0625,0.03125 c -1.226,0.44542 -2.3761,1.5432 -3.5312,2.9375 -1.1552,1.3943 -2.2998,3.0833 -3.375,4.7812 -1.0752,1.6979 -2.094,3.3979 -2.9688,4.75 -0.7414,1.146 -1.3182,1.8355 -1.75,2.25 -1.4644,-1.4929 -1.9973,-3.1325 -1.8438,-5.0312 0.1678,-2.0755 1.0579,-4.413 2.1562,-6.9062 2.1885,-4.9676 5.1307,-10.505 3.9688,-15.969 l 0.03125,0 c -0.44862,-5.4395 -2.4166,-8.9523 -5.125,-10.875 -1.3542,-0.96136 -2.8743,-1.5411 -4.4688,-1.75 -0.397,-0.05 -0.812,-0.081 -1.217,-0.092 z" />
      <path
         inkscape:connector-curvature="0"
         style="fill:url(#radialGradient43196);fill-rule:evenodd;stroke:#d87070;stroke-width:1"
         id="path3107"
         d="m 27.705,35.332 c 0.8848,11.89 11.546,40.163 18.112,40.031 6.4696,1.0129 9.5041,-10.129 14.256,-15.193 1.6484,-0.98863 5.0086,14.077 14.457,14.077 2.8734,0.20484 5.7468,-0.77935 5.8457,-3.3489 0.0398,-4.0119 -7.6043,-1.2087 -10.681,-12.168 -2.343,-8.344 -6.163,-12.384 -8.898,-12.301 -4.249,1.544 -9.555,13.525 -11.822,15.069 -7.707,-6.785 6.121,-18.193 3.831,-28.676 -1.761,-21.359 -26.775,-11.01 -25.101,2.51 z" />
      <path
         inkscape:connector-curvature="0"
         style="fill:none;stroke:url(#linearGradient43198);stroke-width:1"
         id="path3109"
         d="m 29.026,35.2 c 0.8848,11.89 11.678,38.709 16.791,38.709 6.4696,1.0129 8.9757,-12.507 14.256,-15.193 3.3659,-1.385 4.8765,14.077 14.325,14.077 2.8734,0.20484 4.5577,-0.11879 4.5246,-1.7635 0.436,-2.559 -6.816,-1.371 -10.417,-12.169 -2.739,-8.211 -4.974,-11.062 -7.709,-10.978 -4.249,1.543 -7.837,12.731 -11.822,15.332 -10.481,-8.898 4.8,-19.778 2.51,-30.261 -1.101,-18.584 -23.208,-11.142 -22.459,2.246 z" />
      <path
         style="fill:#571e00;fill-opacity:0.322"
         inkscape:connector-curvature="0"
         id="path3111"
         d="m 50.726,36.978 c -0.53253,0.23187 -1.0643,0.63229 -1.5572,0.9383 -4.14,2.5706 -10.999,5.7134 -16.036,7.2799 -0.50573,0.15728 -0.56933,0.65836 -0.49207,0.99794 0.27662,1.2159 1.2041,2.797 2.4328,4.1021 1.2286,1.3051 3.0417,2.308 5.5783,2.3362 1.107,0.01236 2.1932,-0.5356 3.2559,-1.3704 1.0628,-0.83484 2.105,-1.9879 3.0398,-3.3295 1.8696,-2.6834 3.3149,-5.909 3.3571,-9.3907 0.0056,-0.46374 0.26735,-1.1234 0.42125,-1.5637 z m -2.017,2.9526 c -0.35719,2.4576 -1.515,5.0774 -2.9662,7.1603 -0.86582,1.2427 -1.8293,2.2962 -2.7409,3.0122 -0.91155,0.71603 -1.7693,1.064 -2.3362,1.0577 -2.1732,-0.02417 -3.5141,-0.80256 -4.5206,-1.8717 -0.80588,-0.85606 -1.3385,-1.9071 -1.7935,-2.9156 4.7725,-1.3786 10.344,-4.0224 14.357,-6.4429 z" />
      <path
         inkscape:connector-curvature="0"
         id="path3113"
         d="m 38.234,26.571 c -2.1581,0.0726 -4.1621,0.45864 -5.5984,1.0002 -0.89372,1.2402 -1.6512,2.7528 -2.0564,4.6251 -0.7372,-2.4404 -0.56994,-4.7638 0.57493,-6.8082 2.5969,-0.53596 5.4265,0.22316 7.0799,1.1829 z" />
      <path
         inkscape:connector-curvature="0"
         id="path3115"
         d="m 47.82,25.639 c -1.8215,-1.1597 -3.693,-1.9737 -5.184,-2.3385 -1.4382,0.51813 -2.9179,1.338 -4.3103,2.6536 0.77092,-2.43 2.2219,-4.2523 4.3217,-5.2919 2.4453,1.0254 4.3508,3.2507 5.1726,4.9768 z" />
      <path
         inkscape:connector-curvature="0"
         style="fill:url(#linearGradient43200)"
         id="path3117"
         d="m 33.32,45.909 c 5.3166,-1.392 12.072,-4.6809 16.246,-7.3737 -0.06164,6.0867 -5.5593,13.399 -8.9072,13.362 -4.7098,-0.05239 -6.3111,-3.561 -7.3392,-5.9885 z" />
      <path
         style="fill:#571e00;fill-opacity:0.322"
         inkscape:connector-curvature="0"
         id="path3119"
         d="m 39.358,36.133 c 0.44992,-5.6804 -2.242,3.3863 -4.1279,5.8885 -1.3254,-0.05624 -3.1193,-2.7392 -3.1193,-5.8885 0,-3.1493 1.6234,-5.7053 3.6236,-5.7053 2.0002,0 3.6236,2.556 3.6236,5.7053 z" />
      <path
         style="fill:#571e00;fill-opacity:0.322"
         inkscape:connector-curvature="0"
         id="path3121"
         d="m 46.47,32.664 c 0,2.9365 -1.7616,5.3198 -3.932,5.3198 -2.1705,0 -3.932,-2.3833 -3.932,-5.3198 0,-2.9365 1.7616,-5.3198 3.932,-5.3198 2.1705,0 3.932,2.3833 3.932,5.3198 z" />
      <path
         style="fill:#ffffff"
         inkscape:connector-curvature="0"
         id="path3123"
         d="m 42.89,27.689 c -1.9058,0.19359 -3.4047,2.7361 -3.6468,5.9278 -0.80554,-1.7291 -2.0201,-2.8213 -3.2605,-2.6903 -1.9035,0.20103 -3.1377,3.1802 -2.7547,6.6499 0.22193,2.0102 0.94705,3.7257 1.8809,4.7919 1.327,-1.0716 3.0097,-1.9896 4.9391,-2.6581 0.0384,-0.23796 0.07539,-0.47981 0.09658,-0.73121 0.10356,0.21697 0.23234,0.39032 0.34951,0.58405 0.89345,-0.28601 1.8303,-0.52482 2.8099,-0.69442 1.049,-0.18162 2.0768,-0.27122 3.0766,-0.29432 0.49544,-1.2368 0.77496,-2.7516 0.71281,-4.3827 -0.14515,-3.8095 -2.0303,-6.7234 -4.2033,-6.5027 z" />
      <path
         inkscape:connector-curvature="0"
         id="path3125"
         d="m 43.789,34.521 a 0.9482,1.8286193 0 0 1 -1.8964,0 0.9482,1.8286193 0 1 1 1.8964,0 z" />
      <path
         inkscape:connector-curvature="0"
         style="fill:url(#linearGradient43202)"
         id="path3127"
         d="m 49.058,41.817 c -0.97775,1.4015 -3.0314,2.4677 -6.4521,4.1251 3.9009,-0.90212 3.8253,-0.02891 3.9504,1.2739 0.85304,-1.2937 1.9745,-3.3183 2.5017,-5.399 z m -8.218,4.8655 c -3.6183,1.1645 -5.2103,1.4354 -6.7234,0.94275 0.77283,1.6066 2.0151,2.9413 3.4261,3.5963 -0.59196,-1.3156 -0.58971,-2.5068 3.2973,-4.539 z" />
      <path
         inkscape:connector-curvature="0"
         id="path3129"
         d="m 37.725,36.08 a 0.9482,1.8286193 0 0 1 -1.8964,0 0.9482,1.8286193 0 1 1 1.8964,0 z" />
      <path
         style="opacity:0.15;fill:#d35f5f"
         inkscape:connector-curvature="0"
         id="path3131"
         d="M 60.594,56.156 C 60.41,56.155 60.202,56.185 60,56.219 55.01,57.567 51.931,70.25 47.75,70.25 40.159,71.195 34.938,59.312 34.938,59.312 l -0.375,0.40625 c 3.6074,8.5952 7.9508,15.723 11.25,15.656 6.4696,1.0129 9.4979,-10.154 14.25,-15.219 1.6484,-0.98863 5.0199,14.094 14.469,14.094 2.6121,0.18621 5.2222,-0.61077 5.75,-2.6875 l -0.72,-2.406 c -16.07,3.1356 -13.273,-12.971 -18.969,-13 z" />
      <path
         style="opacity:0.3;fill:#d35f5f"
         inkscape:connector-curvature="0"
         id="path3133"
         d="M 60.594,58.156 C 60.41,58.155 60.202,58.185 60,58.219 55.01,59.567 51.931,72.25 47.75,72.25 c -4.6911,0.5839 -8.4793,-3.7118 -10.688,-7.0938 2.9877,5.9472 6.1853,10.27 8.75,10.219 6.4696,1.0129 9.4979,-10.154 14.25,-15.219 1.6484,-0.98863 5.0199,14.094 14.469,14.094 2.2427,0.15988 4.4827,-0.3977 5.4062,-1.875 l -0.375,-1.2188 c -16.07,3.1356 -13.273,-12.971 -18.969,-13 z" />
    </g>
  </g>
  <g
     id="g14291">
    <path
       d="m 5.2922679,73.685059 0,5.0663 c 0,6.668 5.3645011,12.032 12.0320011,12.032 l 61.049,0 c 6.668,0 12.032,-5.3645 12.032,-12.032 l 0,-5.0663 c 0,6.6681 -5.3645,12.032 -12.032,12.032 l -61.049,0 c -6.668,0 -12.0320011,-5.3643 -12.0320011,-12.032 z"
       id="path64"
       inkscape:connector-curvature="0"
       style="opacity:0.4;fill:url(#linearGradient14237);fill-opacity:1" />
    <path
       inkscape:connector-curvature="0"
       id="path14214"
       d="m 5.2929688,72.717592 0,1.15039 c 0,6.667718 5.3632502,12.031248 12.0312502,12.031248 l 61.048828,0 c 6.6675,0 12.03125,-5.36313 12.03125,-12.031248 l 0,-1.15039 c 0,6.668098 -5.36375,12.031248 -12.03125,12.031248 l -61.048828,0 c -6.668,0 -12.0312502,-5.36355 -12.0312502,-12.031248 z"
       style="opacity:0.5;fill:url(#linearGradient14245);fill-opacity:1" />
  </g>
</svg>
