<?xml version="1.0" encoding="UTF-8" standalone="no"?>
<svg
   xmlns:dc="http://purl.org/dc/elements/1.1/"
   xmlns:cc="http://creativecommons.org/ns#"
   xmlns:rdf="http://www.w3.org/1999/02/22-rdf-syntax-ns#"
   xmlns:svg="http://www.w3.org/2000/svg"
   xmlns="http://www.w3.org/2000/svg"
   xmlns:sodipodi="http://sodipodi.sourceforge.net/DTD/sodipodi-0.dtd"
   xmlns:inkscape="http://www.inkscape.org/namespaces/inkscape"
   height="96"
   width="96"
   id="svg2"
   version="1.1"
   inkscape:version="0.91 r13725"
   sodipodi:docname="gnome-session-hibernate.svg"
   inkscape:export-filename="/usr/share/icons/Tebu/apps/64/gnome-session-hibernate.png"
   inkscape:export-xdpi="60"
   inkscape:export-ydpi="60">
  <metadata
     id="metadata57">
    <rdf:RDF>
      <cc:Work
         rdf:about="">
        <dc:format>image/svg+xml</dc:format>
        <dc:type
           rdf:resource="http://purl.org/dc/dcmitype/StillImage" />
      </cc:Work>
    </rdf:RDF>
  </metadata>
  <sodipodi:namedview
     pagecolor="#ffffff"
     bordercolor="#666666"
     borderopacity="1"
     objecttolerance="10"
     gridtolerance="10"
     guidetolerance="10"
     inkscape:pageopacity="0"
     inkscape:pageshadow="2"
     inkscape:window-width="640"
     inkscape:window-height="480"
     id="namedview55"
     showgrid="false"
     inkscape:zoom="6.533372"
     inkscape:cx="36.232039"
     inkscape:cy="40.087447"
     inkscape:current-layer="svg2" />
  <defs
     id="defs4">
    <clipPath
       id="clipPath3613-55">
      <rect
         x="6"
         rx="6"
         y="6"
         height="84"
         width="84"
         id="rect7" />
    </clipPath>
    <filter
       x="-0.192"
       y="-0.192"
       height="1.384"
       color-interpolation-filters="sRGB"
       id="filter3794-41"
       width="1.384">
      <feGaussianBlur
         stdDeviation="5.28"
         id="feGaussianBlur10" />
    </filter>
    <linearGradient
       x2="0"
       y1="90"
       y2="5.988"
       gradientUnits="userSpaceOnUse"
       id="linearGradient3182"
       gradientTransform="matrix(1.125,0,0,1.0417,-7.75,-3.25)">
      <stop
         stop-color="#8c8c8c"
         id="stop13" />
      <stop
         stop-color="#dcdcdc"
         offset="1"
         id="stop15" />
    </linearGradient>
    <linearGradient
       x2="0"
       y1="20.221"
       y2="138.66"
       gradientUnits="userSpaceOnUse"
       id="linearGradient90466">
      <stop
         stop-color="#fff"
         id="stop18" />
      <stop
         stop-color="#fff"
         stop-opacity="0"
         offset="1"
         id="stop20" />
    </linearGradient>
    <linearGradient
       x2="0"
       y1="79.996"
       y2="15.996"
       gradientUnits="userSpaceOnUse"
       id="linearGradient3967"
       gradientTransform="matrix(-1,0,0,-1,96,96)">
      <stop
         stop-color="#1e1e1e"
         id="stop23" />
      <stop
         stop-color="#505050"
         offset="1"
         id="stop25" />
    </linearGradient>
  </defs>
  <g
     id="g43"
     transform="translate(0.5,-2)">
    <path
       inkscape:connector-curvature="0"
       style="color:black;fill:url(#linearGradient3967)"
       id="path45"
       d="m 48,16 c -2.216,0 -4,1.784 -4,4 L 44,41.062 25.75,30.531 c -1.919,-1.108 -4.361,-0.45 -5.469,1.469 -1.108,1.9191 -0.45036,4.3607 1.4688,5.4688 l 18.25,10.531 -18.25,10.531 c -1.9191,1.108 -2.5768,3.5496 -1.4688,5.4688 1.108,1.9191 3.5496,2.5768 5.4688,1.4688 l 18.25,-10.531 0,21.062 c 0,2.216 1.784,4 4,4 2.216,0 4,-1.784 4,-4 l 0,-21.062 18.25,10.531 c 1.9191,1.108 4.3608,0.45036 5.4688,-1.4688 1.108,-1.9191 0.45036,-4.3607 -1.4688,-5.4688 l -18.25,-10.531 18.25,-10.531 c 1.919,-1.108 2.577,-3.55 1.469,-5.469 -1.108,-1.919 -3.55,-2.577 -5.469,-1.469 l -18.25,10.531 0,-21.062 c 0,-2.216 -1.784,-4 -4,-4 z" />
    <path
       style="color:black;opacity:0.2"
       inkscape:connector-curvature="0"
       id="path47"
       d="m 48,16 c -2.216,0 -4,1.784 -4,4 L 44,41.062 25.75,30.531 c -1.919,-1.108 -4.361,-0.45 -5.469,1.469 -1.108,1.9191 -0.45036,4.3607 1.4688,5.4688 l 18.25,10.531 -18.25,10.531 c -1.9191,1.108 -2.5768,3.5496 -1.4688,5.4688 1.108,1.9191 3.5496,2.5768 5.4688,1.4688 l 18.25,-10.531 0,21.062 c 0,2.216 1.784,4 4,4 2.216,0 4,-1.784 4,-4 l 0,-21.062 18.25,10.531 c 1.9191,1.108 4.3608,0.45036 5.4688,-1.4688 1.108,-1.9191 0.45036,-4.3607 -1.4688,-5.4688 l -18.25,-10.531 18.25,-10.531 c 1.919,-1.108 2.577,-3.55 1.469,-5.469 -1.108,-1.919 -3.55,-2.577 -5.469,-1.469 l -18.25,10.531 0,-21.062 c 0,-2.216 -1.784,-4 -4,-4 z m 0,1 c 1.6792,0 3,1.3208 3,3 l 0,21.062 a 1.0003,1.0003 0 0 0 1.5,0.875 L 70.75,31.406 c 1.4526,-0.83863 3.2544,-0.36001 4.0938,1.0938 0.83863,1.4526 0.36001,3.2544 -1.0938,4.0938 L 55.5,47.1246 a 1.0003,1.0003 0 0 0 0,1.75 l 18.25,10.531 c 1.4538,0.83933 1.9324,2.6412 1.0938,4.0938 -0.83933,1.4538 -2.6412,1.9324 -4.0938,1.0938 L 52.5,54.0612 a 1.0003,1.0003 0 0 0 -1.5,0.876 l 0,21.062 c 0,1.6792 -1.3208,3 -3,3 -1.6792,0 -3,-1.3208 -3,-3 l 0,-21.062 a 1.0003,1.0003 0 0 0 -1.5,-0.875 l -18.25,10.531 c -1.453,0.838 -3.254,0.36 -4.094,-1.094 -0.838,-1.453 -0.36,-3.254 1.094,-4.094 L 40.5,48.8742 a 1.0003,1.0003 0 0 0 0,-1.75 L 22.25,36.5932 c -1.454,-0.84 -1.932,-2.641 -1.094,-4.094 0.84,-1.454 2.641,-1.932 4.094,-1.094 l 18.25,10.532 a 1.0003,1.0003 0 0 0 1.5,-0.876 l 0,-21.062 c 0,-1.6792 1.3208,-3 3,-3 z" />
    <path
       style="color:black;opacity:0.05"
       inkscape:connector-curvature="0"
       id="path49"
       d="m 48,16 c -2.216,0 -4,1.784 -4,4 L 44,41.062 25.75,30.531 c -1.919,-1.108 -4.361,-0.45 -5.469,1.469 -1.108,1.9191 -0.45036,4.3607 1.4688,5.4688 l 18.25,10.531 -18.25,10.531 c -1.9191,1.108 -2.5768,3.5496 -1.4688,5.4688 1.108,1.9191 3.5496,2.5768 5.4688,1.4688 l 18.25,-10.531 0,21.062 c 0,2.216 1.784,4 4,4 2.216,0 4,-1.784 4,-4 l 0,-21.062 18.25,10.531 c 1.9191,1.108 4.3608,0.45036 5.4688,-1.4688 1.108,-1.9191 0.45036,-4.3607 -1.4688,-5.4688 l -18.25,-10.531 18.25,-10.531 c 1.919,-1.108 2.577,-3.55 1.469,-5.469 -1.108,-1.919 -3.55,-2.577 -5.469,-1.469 l -18.25,10.531 0,-21.062 c 0,-2.216 -1.784,-4 -4,-4 z m 0,2 c 1.1423,0 2,0.85765 2,2 l 0,21.062 a 2.0007,2.0007 0 0 0 3,1.7188 l 18.25,-10.531 c 0.98599,-0.56926 2.1793,-0.23841 2.75,0.75 0.56926,0.98599 0.23841,2.1793 -0.75,2.75 L 55,46.2808 a 2.0007,2.0007 0 0 0 0,3.4375 l 18.25,10.532 c 0.98842,0.57066 1.3193,1.764 0.75,2.75 -0.57066,0.98841 -1.764,1.3193 -2.75,0.75 L 53,53.2193 a 2.0007,2.0007 0 0 0 -3,1.719 l 0,21.062 c 0,1.1423 -0.85766,2 -2,2 -1.14234,0 -2,-0.85766 -2,-2 l 0,-21.062 a 2.0007,2.0007 0 0 0 -3,-1.719 l -18.25,10.531 c -0.986,0.569 -2.179,0.238 -2.75,-0.75 -0.569,-0.986 -0.238,-2.179 0.75,-2.75 L 41,49.7193 a 2.0007,2.0007 0 0 0 0,-3.4375 L 22.75,35.7498 c -0.988,-0.571 -1.319,-1.764 -0.75,-2.75 0.57066,-0.98842 1.764,-1.3193 2.75,-0.75 L 43,42.7808 a 2.0007,2.0007 0 0 0 3,-1.719 l 0,-21.062 c 0,-1.1423 0.85766,-2 2,-2 z" />
    <path
       style="color:black;opacity:0.6"
       inkscape:connector-curvature="0"
       id="path51"
       d="m 48,16 c -2.216,0 -4,1.784 -4,4 l 0,1 c 0,-2.216 1.784,-4 4,-4 2.216,0 4,1.784 4,4 l 0,-1 c 0,-2.216 -1.784,-4 -4,-4 z M 23.469,30 c -1.2812,0.09083 -2.495,0.80055 -3.1875,2 -0.45574,0.78936 -0.6066,1.663 -0.5,2.5 0.06417,-0.51609 0.223,-1.0202 0.5,-1.5 1.108,-1.9191 3.5496,-2.5768 5.4688,-1.4688 l 18.25,10.531 0,-1 -18.25,-10.531 c -0.72,-0.415 -1.513,-0.585 -2.281,-0.531 z m 49.062,0 C 71.763,29.946 70.97,30.116 70.25,30.531 L 52,41.062 l 0,1 18.25,-10.531 c 1.9191,-1.108 4.3608,-0.45036 5.4688,1.4688 0.277,0.47978 0.43583,0.98391 0.5,1.5 0.1066,-0.837 -0.04426,-1.7106 -0.5,-2.5 -0.6925,-1.1994 -1.9063,-1.9092 -3.1875,-2 z M 39.125,48.5 21.75,58.531 c -1.4393,0.831 -2.1613,2.4205 -1.9688,3.9688 0.15258,-1.1979 0.839,-2.3165 1.9688,-2.9688 L 40,49 39.125,48.5 Z m 17.75,0 L 56,49 74.25,59.531 c 1.13,0.653 1.816,1.771 1.969,2.969 0.192,-1.548 -0.53,-3.138 -1.969,-3.969 L 56.875,48.5 Z" />
    <path
       style="color:black;opacity:0.6;fill:white"
       inkscape:connector-curvature="0"
       id="path53"
       d="m 19.781,34.5 c -0.19252,1.5483 0.52942,3.1377 1.9688,3.9688 l 17.375,10.031 0.875,-0.5 -18.25,-10.531 c -1.13,-0.653 -1.816,-1.771 -1.969,-2.969 z m 56.438,0 c -0.153,1.198 -0.839,2.316 -1.969,2.969 L 56,48 56.875,48.5 74.25,38.469 c 1.4393,-0.831 2.1613,-2.4205 1.9688,-3.9688 z M 44,54.938 25.75,65.469 c -1.919,1.108 -4.361,0.45 -5.469,-1.469 -0.277,-0.47978 -0.43583,-0.98391 -0.5,-1.5 -0.1066,0.837 0.04426,1.7106 0.5,2.5 1.108,1.9191 3.5496,2.5768 5.4688,1.4688 l 18.25,-10.531 0,-1 z m 8,0 0,1 18.25,10.531 c 1.9191,1.108 4.3608,0.45036 5.4688,-1.4688 0.45574,-0.78936 0.6066,-1.663 0.5,-2.5 -0.06417,0.51609 -0.223,1.0202 -0.5,1.5 -1.108,1.9191 -3.5496,2.5768 -5.4688,1.4688 L 52,54.938 Z M 44,76 l 0,1 c 0,2.216 1.784,4 4,4 2.216,0 4,-1.784 4,-4 l 0,-1 c 0,2.216 -1.784,4 -4,4 -2.216,0 -4,-1.784 -4,-4 z" />
  </g>
</svg>
