<?xml version="1.0" encoding="UTF-8" standalone="no"?>
<svg
   xmlns:dc="http://purl.org/dc/elements/1.1/"
   xmlns:cc="http://creativecommons.org/ns#"
   xmlns:rdf="http://www.w3.org/1999/02/22-rdf-syntax-ns#"
   xmlns:svg="http://www.w3.org/2000/svg"
   xmlns="http://www.w3.org/2000/svg"
   xmlns:xlink="http://www.w3.org/1999/xlink"
   xmlns:sodipodi="http://sodipodi.sourceforge.net/DTD/sodipodi-0.dtd"
   xmlns:inkscape="http://www.inkscape.org/namespaces/inkscape"
   height="96"
   width="96"
   id="svg1407"
   version="1.1"
   inkscape:version="0.91 r13725"
   sodipodi:docname="gnumeric.svg">
  <metadata
     id="metadata1514">
    <rdf:RDF>
      <cc:Work
         rdf:about="">
        <dc:format>image/svg+xml</dc:format>
        <dc:type
           rdf:resource="http://purl.org/dc/dcmitype/StillImage" />
      </cc:Work>
    </rdf:RDF>
  </metadata>
  <sodipodi:namedview
     pagecolor="#ffffff"
     bordercolor="#666666"
     borderopacity="1"
     objecttolerance="10"
     gridtolerance="10"
     guidetolerance="10"
     inkscape:pageopacity="0"
     inkscape:pageshadow="2"
     inkscape:window-width="640"
     inkscape:window-height="480"
     id="namedview1512"
     showgrid="false"
     inkscape:zoom="2.4583333"
     inkscape:cx="48"
     inkscape:cy="48"
     inkscape:current-layer="svg1407" />
  <defs
     id="defs1409">
    <linearGradient
       x1="-22.976"
       x2="-14.36"
       y1="18.516"
       y2="33.02"
       gradientUnits="userSpaceOnUse"
       id="linearGradient4420"
       gradientTransform="matrix(1.9955,0,0,1.9955,100.19,18.11)">
      <stop
         stop-color="#ff7171"
         id="stop1412" />
      <stop
         stop-color="#c00"
         offset="1"
         id="stop1414" />
    </linearGradient>
    <linearGradient
       x1="-16.387"
       x2="-9.735"
       y1="24.454"
       y2="28.2"
       gradientUnits="userSpaceOnUse"
       id="linearGradient4418"
       gradientTransform="matrix(1.9955,0,0,1.9955,100.19,18.11)">
      <stop
         stop-color="#5b8ccb"
         id="stop1417" />
      <stop
         stop-color="#3465a4"
         offset="1"
         id="stop1419" />
    </linearGradient>
    <linearGradient
       x1="-17.863"
       x2="-20.822"
       y1="30.828"
       y2="25.02"
       gradientUnits="userSpaceOnUse"
       id="linearGradient4416"
       gradientTransform="matrix(1.9955,0,0,1.9955,100.19,18.11)">
      <stop
         stop-color="#73d216"
         id="stop1422" />
      <stop
         stop-color="#d5f7b3"
         offset="1"
         id="stop1424" />
    </linearGradient>
    <linearGradient
       x1="-20.75"
       x2="-19.5"
       y1="29"
       y2="18.75"
       gradientUnits="userSpaceOnUse"
       id="linearGradient4413">
      <stop
         stop-color="#fff"
         id="stop1427" />
      <stop
         stop-color="#fff"
         stop-opacity="0"
         offset="1"
         id="stop1429" />
    </linearGradient>
    <linearGradient
       x2="0"
       y1="80"
       y2="16"
       gradientUnits="userSpaceOnUse"
       id="linearGradient6511"
       gradientTransform="translate(-17,-3.05)">
      <stop
         stop-color="#d5d5d5"
         id="stop1432" />
      <stop
         stop-color="#e3e3e3"
         offset="1"
         id="stop1434" />
    </linearGradient>
    <linearGradient
       inkscape:collect="always"
       xlink:href="#linearGradient14231"
       id="linearGradient14237"
       x1="50.707542"
       y1="81.682442"
       x2="50.707542"
       y2="96.539803"
       gradientUnits="userSpaceOnUse" />
    <linearGradient
       inkscape:collect="always"
       id="linearGradient14231">
      <stop
         style="stop-color:#000000;stop-opacity:1;"
         offset="0"
         id="stop14233" />
      <stop
         style="stop-color:#000000;stop-opacity:0;"
         offset="1"
         id="stop14235" />
    </linearGradient>
    <linearGradient
       inkscape:collect="always"
       xlink:href="#linearGradient14239"
       id="linearGradient14245"
       x1="49.876652"
       y1="87.937508"
       x2="49.876652"
       y2="76.719681"
       gradientUnits="userSpaceOnUse" />
    <linearGradient
       inkscape:collect="always"
       id="linearGradient14239">
      <stop
         style="stop-color:#ffffff;stop-opacity:1;"
         offset="0"
         id="stop14241" />
      <stop
         style="stop-color:#ffffff;stop-opacity:0;"
         offset="1"
         id="stop14243" />
    </linearGradient>
  </defs>
  <rect
     style="fill-opacity:0.03900003"
     id="rect1438"
     width="88.760002"
     height="88.760002"
     y="3.6000221"
     rx="12.552"
     x="3.608" />
  <rect
     style="fill-opacity:0.078"
     id="rect1440"
     width="87.550003"
     height="87.550003"
     y="4.2100072"
     rx="12.38"
     x="4.2160001" />
  <rect
     style="fill-opacity:0.15700001"
     id="rect1442"
     width="86.330002"
     height="86.330002"
     y="4.8199925"
     rx="12.208"
     x="4.8239999" />
  <path
     style="fill:#f2f2f2"
     inkscape:connector-curvature="0"
     id="path1444"
     d="m 17.469,5.4062 c -6.668,0 -12.032,5.3948 -12.032,12.063 l 5e-4,61.031 c 0,5.418 3.5332,9.982 8.4375,11.5 l 68.187,0 c 4.715,-1.457 8.172,-5.734 8.438,-10.875 l 0,-62.281 c -0.321,-6.377 -5.54,-11.438 -12,-11.438 l -61.031,2e-4 z" />
  <path
     inkscape:connector-curvature="0"
     style="color:#000000;fill:url(#linearGradient6511)"
     id="path1450"
     d="m 16,12.95 0,7 0,57 8,0 0,-56 55,0 0,-8 -56,0 -7,0 z" />
  <rect
     style="color:#000000;opacity:0.5;fill:#80d818"
     id="rect1452"
     width="19"
     height="9"
     y="35.949997"
     x="41" />
  <rect
     style="color:#000000;opacity:0.2;fill:#80d818"
     id="rect1454"
     width="19"
     height="15"
     y="20.949997"
     x="41" />
  <rect
     style="color:#000000;opacity:0.2;fill:#80d818"
     id="rect1456"
     width="17"
     height="9"
     y="35.949997"
     x="24" />
  <path
     style="color:#000000;opacity:0.2"
     inkscape:connector-curvature="0"
     id="path1458"
     d="m 23,11.95 0,8 -8,0 0,1 8,0 0,7 -8,0 0,1 8,0 0,7 -8,0 0,1 8,0 0,7 -8,0 0,1 8,0 0,7 -8,0 0,1 8,0 0,7 -8,0 0,1 8,0 0,7 -8,0 0,1 8,0 0,9 1,0 0,-9 17,0 0,9 1,0 0,-9 17,0 0,9 1,0 0,-9 19,0 0,-1 -19,0 0,-7 19,0 0,-1 -19,0 0,-7 19,0 0,-1 -19,0 0,-7 19,0 0,-1 -19,0 0,-7 19,0 0,-1 -19,0 0,-7 19,0 0,-1 -19,0 0,-7 19,0 0,-1 -19,0 0,-8 -1,0 0,8 -17,0 0,-8 -1,0 0,8 -17,0 0,-8 -1,0 z m 1,9 17,0 0,7 -17,0 0,-7 z m 18,0 17,0 0,7 -17,0 0,-7 z m -18,8 17,0 0,7 -17,0 0,-7 z m 18,0 17,0 0,7 -17,0 0,-7 z m -18,8 17,0 0,7 -17,0 0,-7 z m 18,0 17,0 0,7 -17,0 0,-7 z m -18,8 17,0 0,7 -17,0 0,-7 z m 18,0 17,0 0,7 -17,0 0,-7 z m -18,8 17,0 0,7 -17,0 0,-7 z m 18,0 17,0 0,7 -17,0 0,-7 z m -18,8 17,0 0,7 -17,0 0,-7 z m 18,0 17,0 0,7 -17,0 0,-7 z" />
  <path
     style="color:#000000;fill:#808080"
     inkscape:connector-curvature="0"
     id="path1460"
     d="m 15,11.95 0,0.5 0,65 0,0.5 0.5,0 64,0 0.5,0 0,-0.5 0,-65 0,-0.5 -0.5,0 -64,0 -0.5,0 z m 1,1 63,0 0,64 -63,0 0,-64 z" />
  <rect
     style="color:#000000;opacity:0.2;fill:#6e6e6e"
     id="rect1462"
     width="8"
     height="9"
     y="35.949997"
     x="16" />
  <rect
     style="color:#000000;opacity:0.2;fill:#6e6e6e"
     id="rect1464"
     width="19"
     height="9"
     y="11.949998"
     x="41" />
  <path
     style="fill:#4d4d4d"
     inkscape:connector-curvature="0"
     id="path1466"
     d="m 33.213,17.95 -0.24414,-0.70312 -1.0488,0 -0.244,0.703 -0.57617,0 1.0039,-2.752 0.67969,0 1,2.752 -0.57031,0 m -0.64453,-1.9277 c -0.01563,-0.04557 -0.03125,-0.09114 -0.04687,-0.13672 -0.01432,-0.04687 -0.02735,-0.08919 -0.03906,-0.12695 -0.01042,-0.03906 -0.01953,-0.07096 -0.02734,-0.0957 -0.0065,-0.02474 -0.01042,-0.03841 -0.01172,-0.04102 -0.0013,0.0039 -0.0052,0.01823 -0.01172,0.04297 -0.0065,0.02474 -0.01563,0.05599 -0.02734,0.09375 -0.01042,0.03776 -0.02344,0.08008 -0.03906,0.12695 -0.01432,0.04557 -0.0293,0.09115 -0.04492,0.13672 l -0.27148,0.79102 0.79102,0 -0.27148,-0.79102" />
  <path
     style="fill:#4d4d4d"
     inkscape:connector-curvature="0"
     id="path1468"
     d="m 52.707,17.165 c -2e-6,0.13932 -0.028,0.25912 -0.08398,0.35938 -0.05599,0.09896 -0.13282,0.18034 -0.23047,0.24414 -0.09636,0.0625 -0.20899,0.10872 -0.33789,0.13867 -0.129,0.029 -0.266,0.043 -0.41,0.043 l -1.377,0 0,-2.752 1.2598,0 c 0.16276,3e-6 0.30729,0.01433 0.43359,0.04297 0.1276,0.02735 0.23502,0.06966 0.32227,0.12695 0.08724,0.05729 0.15299,0.12956 0.19727,0.2168 0.04557,0.08594 0.06836,0.1875 0.06836,0.30469 -2e-6,0.15625 -0.04362,0.28841 -0.13086,0.39648 -0.08594,0.10677 -0.21745,0.17904 -0.39453,0.2168 0.22266,0.02604 0.39192,0.09636 0.50781,0.21094 0.11718,0.11328 0.17578,0.26367 0.17578,0.45117 m -0.739,-1.197 c -2e-6,-0.1237 -0.03972,-0.21159 -0.11914,-0.26367 -0.07813,-0.05208 -0.19466,-0.07812 -0.34961,-0.07813 l -0.65625,0 0,0.68164 0.66016,0 c 0.16276,2e-6 0.2806,-0.02799 0.35352,-0.08398 0.07422,-0.05729 0.11133,-0.14258 0.11133,-0.25586 m 0.16016,1.1523 c -2e-6,-0.07292 -0.01432,-0.13411 -0.04297,-0.18359 -0.02865,-0.04948 -0.06836,-0.08919 -0.11914,-0.11914 -0.04948,-0.02995 -0.10808,-0.05143 -0.17578,-0.06445 -0.06641,-0.01302 -0.13867,-0.01953 -0.2168,-0.01953 l -0.73047,0 0,0.78906 0.75195,0 c 0.07552,0 0.14583,-0.0059 0.21094,-0.01758 0.0651,-0.01302 0.12109,-0.0345 0.16797,-0.06445 0.04818,-0.03125 0.08594,-0.07292 0.11328,-0.125 0.02734,-0.05208 0.04101,-0.11719 0.04102,-0.19531" />
  <path
     style="fill:#4d4d4d"
     inkscape:connector-curvature="0"
     id="path1470"
     d="m 18.584,25.95 0,-0.4082 0.68164,0 0,-1.877 -0.66016,0.41211 0,-0.43164 0.68945,-0.44726 0.51953,0 0,2.3438 0.63086,0 0,0.4082 -1.8613,0" />
  <path
     style="fill:#4d4d4d"
     inkscape:connector-curvature="0"
     id="path1472"
     d="m 18.471,33.95 0,-0.38086 c 0.0625,-0.13672 0.13867,-0.25976 0.22852,-0.36914 0.08984,-0.11068 0.18359,-0.21159 0.28125,-0.30273 0.09896,-0.09245 0.19661,-0.17773 0.29297,-0.25586 0.09766,-0.07943 0.1849,-0.1556 0.26172,-0.22852 0.07812,-0.07422 0.14128,-0.14844 0.18945,-0.22266 0.04818,-0.07422 0.07227,-0.15299 0.07227,-0.23633 -1e-6,-0.12239 -0.0306,-0.21289 -0.0918,-0.27148 -0.0612,-0.05859 -0.15104,-0.08789 -0.26953,-0.08789 -0.11719,3e-6 -0.20703,0.0319 -0.26953,0.0957 -0.0612,0.0625 -0.10091,0.1569 -0.11914,0.2832 l -0.55273,-0.03125 c 0.01302,-0.10807 0.03971,-0.20963 0.08008,-0.30469 0.04036,-0.09505 0.09766,-0.17838 0.17188,-0.25 0.07552,-0.07161 0.16927,-0.1276 0.28125,-0.16797 0.11328,-0.04166 0.24805,-0.0625 0.4043,-0.0625 0.14844,3e-6 0.27995,0.01758 0.39453,0.05273 0.11458,0.03386 0.21094,0.08399 0.28906,0.15039 0.07812,0.06641 0.13737,0.14779 0.17774,0.24414 0.04036,0.09505 0.06054,0.20378 0.06055,0.32617 -2e-6,0.12891 -0.02539,0.24544 -0.07617,0.34961 -0.05078,0.10417 -0.11589,0.20052 -0.19531,0.28906 -0.07943,0.08724 -0.16797,0.16927 -0.26562,0.24609 -0.09636,0.07682 -0.1901,0.15169 -0.28125,0.22461 -0.09115,0.07292 -0.17448,0.14648 -0.25,0.2207 -0.07422,0.07422 -0.12956,0.15365 -0.16602,0.23828 l 1.2773,0 0,0.45117 -1.9258,0" />
  <path
     style="fill:#4d4d4d"
     inkscape:connector-curvature="0"
     id="path1474"
     d="m 20.412,41.186 c -2e-6,0.125 -0.02083,0.23763 -0.0625,0.33789 -0.04037,0.09896 -0.10156,0.18359 -0.18359,0.25391 -0.08203,0.07031 -0.18425,0.12435 -0.30664,0.16211 -0.1211,0.03646 -0.26237,0.05469 -0.42383,0.05469 -0.17969,0 -0.33138,-0.02279 -0.45508,-0.06836 -0.1224,-0.04557 -0.22331,-0.10547 -0.30274,-0.17969 -0.07813,-0.07552 -0.13737,-0.16081 -0.17773,-0.25586 -0.03906,-0.09505 -0.06445,-0.19141 -0.07617,-0.28906 l 0.55859,-0.04883 c 0.0078,0.05859 0.02213,0.11263 0.04297,0.16211 0.02213,0.04818 0.05143,0.08984 0.08789,0.125 0.03646,0.03516 0.08073,0.0625 0.13281,0.08203 0.05338,0.01823 0.11588,0.02734 0.1875,0.02734 0.13151,10e-7 0.23372,-0.03255 0.30664,-0.09766 0.07292,-0.0651 0.10937,-0.16471 0.10938,-0.29883 -10e-7,-0.08203 -0.01758,-0.14779 -0.05273,-0.19727 -0.03386,-0.04948 -0.07747,-0.08724 -0.13086,-0.11328 -0.05208,-0.02734 -0.10873,-0.04557 -0.16992,-0.05469 -0.0612,-0.0091 -0.11914,-0.01367 -0.17383,-0.01367 l -0.19141,0 0,-0.44336 0.17969,0 c 0.05469,2e-6 0.11002,-0.0052 0.16602,-0.01563 0.05729,-0.01042 0.10872,-0.02929 0.1543,-0.05664 0.04557,-0.02734 0.08268,-0.0651 0.11133,-0.11328 0.02864,-0.04948 0.04297,-0.11198 0.04297,-0.1875 -1e-6,-0.11328 -0.0319,-0.20182 -0.0957,-0.26562 -0.0625,-0.0651 -0.1543,-0.09765 -0.27539,-0.09766 -0.11328,3e-6 -0.20508,0.03125 -0.27539,0.09375 -0.06901,0.0625 -0.10872,0.15104 -0.11914,0.26562 L 18.47061,39.9145 c 0.01563,-0.1289 0.05078,-0.24088 0.10547,-0.33594 0.05599,-0.09505 0.12565,-0.17382 0.20898,-0.23633 0.08463,-0.0625 0.18164,-0.10872 0.29102,-0.13867 0.10937,-0.03125 0.22526,-0.04687 0.34766,-0.04687 0.16146,3e-6 0.30013,0.01953 0.41602,0.05859 0.11588,0.03907 0.21094,0.0918 0.28516,0.1582 0.07422,0.06641 0.1289,0.14388 0.16406,0.23242 0.03515,0.08854 0.05273,0.18294 0.05273,0.2832 -2e-6,0.08073 -0.01172,0.15625 -0.03516,0.22656 -0.02344,0.06901 -0.05925,0.13151 -0.10742,0.1875 -0.04688,0.05469 -0.10742,0.10222 -0.18164,0.14258 -0.07422,0.03906 -0.16211,0.06836 -0.26367,0.08789 l 0,0.0078 c 0.11328,0.01302 0.21159,0.03906 0.29492,0.07813 0.08333,0.03776 0.15169,0.08529 0.20508,0.14258 0.05338,0.05729 0.0931,0.1224 0.11914,0.19531 0.02604,0.07162 0.03906,0.14779 0.03906,0.22852" />
  <path
     style="fill:#4d4d4d"
     inkscape:connector-curvature="0"
     id="path1476"
     d="m 20.168,49.389 0,0.56055 -0.52344,0 0,-0.56055 -1.252,0 0,-0.41211 1.1621,-1.7793 0.61328,0 0,1.7832 0.36719,0 0,0.4082 -0.36719,0 m -0.52344,-1.3086 c -1e-6,-0.02213 -1e-6,-0.05078 0,-0.08594 0.0013,-0.03646 0.0026,-0.07357 0.0039,-0.11133 0.0026,-0.03776 0.0046,-0.07357 0.0059,-0.10742 0.0026,-0.03515 0.0052,-0.0625 0.0078,-0.08203 -0.0065,0.01432 -0.01693,0.03516 -0.03125,0.0625 -0.01432,0.02604 -0.0306,0.05469 -0.04883,0.08594 -0.01693,0.02995 -0.03516,0.0599 -0.05469,0.08984 -0.01823,0.02995 -0.03451,0.05599 -0.04883,0.07813 l -0.63867,0.9707 0.80469,0 0,-0.90039" />
  <path
     style="fill:#4d4d4d"
     inkscape:connector-curvature="0"
     id="path1478"
     d="m 20.445,57.034 c -2e-6,0.13802 -0.02214,0.26563 -0.06641,0.38281 -0.04297,0.11589 -0.10742,0.2168 -0.19336,0.30273 -0.08594,0.08464 -0.19271,0.15104 -0.32031,0.19922 -0.1263,0.04687 -0.27279,0.07031 -0.43945,0.07031 -0.15365,0 -0.28776,-0.01823 -0.40234,-0.05469 -0.11458,-0.03776 -0.21159,-0.08919 -0.29102,-0.1543 -0.07813,-0.06641 -0.13997,-0.14388 -0.18555,-0.23242 -0.04427,-0.08854 -0.07487,-0.18359 -0.0918,-0.28516 l 0.54883,-0.04492 c 0.01042,0.04297 0.02474,0.08464 0.04297,0.125 0.01953,0.04037 0.04622,0.07617 0.08008,0.10742 0.03385,0.03125 0.07552,0.05664 0.125,0.07617 0.04948,0.01823 0.10937,0.02734 0.17969,0.02734 0.13672,0 0.24544,-0.04362 0.32617,-0.13086 0.08203,-0.08724 0.12305,-0.21289 0.12305,-0.37695 -1e-6,-0.07292 -0.01042,-0.13867 -0.03125,-0.19727 -0.01953,-0.05859 -0.04818,-0.10872 -0.08594,-0.15039 -0.03646,-0.04167 -0.08203,-0.07357 -0.13672,-0.0957 -0.05339,-0.02213 -0.11458,-0.0332 -0.18359,-0.0332 -0.09115,1e-6 -0.16602,0.01758 -0.22461,0.05273 -0.05859,0.03386 -0.10807,0.07552 -0.14844,0.125 l -0.53516,0 0.0957,-1.5488 1.6543,0 0,0.4082 -1.1562,0 -0.04492,0.69531 c 0.05469,-0.04818 0.1237,-0.08919 0.20703,-0.12305 0.08333,-0.03515 0.18034,-0.05273 0.29102,-0.05273 0.13542,2e-6 0.25651,0.02214 0.36328,0.06641 0.10677,0.04427 0.19726,0.10612 0.27148,0.18555 0.07422,0.07943 0.13086,0.17513 0.16992,0.28711 0.03906,0.11068 0.05859,0.23372 0.05859,0.36914" />
  <path
     style="fill:#4d4d4d"
     inkscape:connector-curvature="0"
     id="path1480"
     d="m 20.412,65.05 c -2e-6,0.13802 -0.01953,0.26498 -0.05859,0.38086 -0.03907,0.11458 -0.09766,0.21354 -0.17578,0.29688 -0.07682,0.08203 -0.17318,0.14648 -0.28906,0.19336 -0.11589,0.04557 -0.25,0.06836 -0.40234,0.06836 -0.32422,0 -0.57357,-0.11328 -0.74805,-0.33984 -0.17318,-0.22786 -0.25977,-0.5651 -0.25976,-1.0117 -1e-6,-0.49088 0.08789,-0.86002 0.26367,-1.1074 0.17708,-0.2487 0.42969,-0.37304 0.75781,-0.37305 0.10937,3e-6 0.20898,0.01172 0.29883,0.03516 0.08984,0.02214 0.16992,0.0586 0.24023,0.10938 0.07031,0.05078 0.13021,0.11654 0.17969,0.19727 0.04948,0.07943 0.08919,0.17644 0.11914,0.29102 l -0.51758,0.07227 c -0.02604,-0.09635 -0.06836,-0.16536 -0.12695,-0.20703 -0.0586,-0.04297 -0.12695,-0.06445 -0.20508,-0.06445 -0.14714,2e-6 -0.26302,0.07357 -0.34766,0.2207 -0.08333,0.14714 -0.125,0.37044 -0.125,0.66992 0.05859,-0.09766 0.13997,-0.17252 0.24414,-0.22461 0.10416,-0.05208 0.222,-0.07812 0.35352,-0.07813 0.12109,10e-7 0.23047,0.02018 0.32812,0.06055 0.09896,0.03906 0.18294,0.09636 0.25195,0.17188 0.07031,0.07422 0.12435,0.16537 0.16211,0.27344 0.03776,0.10807 0.05664,0.22982 0.05664,0.36523 m -0.55078,0.01563 c -1e-6,-0.07422 -0.0085,-0.14062 -0.02539,-0.19922 -0.01693,-0.05989 -0.04297,-0.11068 -0.07813,-0.15234 -0.03386,-0.04167 -0.07617,-0.07357 -0.12695,-0.0957 -0.05078,-0.02344 -0.10938,-0.03516 -0.17578,-0.03516 -0.04818,2e-6 -0.09636,0.0078 -0.14453,0.02344 -0.04818,0.01563 -0.09115,0.04102 -0.12891,0.07617 -0.03776,0.03386 -0.06836,0.07748 -0.0918,0.13086 -0.02344,0.05339 -0.03516,0.11784 -0.03516,0.19336 0,0.07813 0.0098,0.15104 0.0293,0.21875 0.01953,0.06771 0.04687,0.12695 0.08203,0.17773 0.03646,0.04948 0.08008,0.08854 0.13086,0.11719 0.05078,0.02734 0.10807,0.04102 0.17188,0.04102 0.1237,10e-7 0.22005,-0.04362 0.28906,-0.13086 0.06901,-0.08854 0.10352,-0.21029 0.10352,-0.36524" />
  <path
     style="color:#000000;opacity:0.5;fill:#569110"
     inkscape:connector-curvature="0"
     id="path1484"
     d="m 41,35.95 0,9 19,0 0,-9 -19,0 z m 1,1 17,0 0,7 -17,0 0,-7 z" />
  <text
     style="font-weight:bold;font-size:4.20800018px;line-height:125%;font-family:'Liberation Sans';fill:#4d4d4d"
     sodipodi:linespacing="125%"
     id="text1486"
     line-height="125%"
     font-weight="bold"
     y="18.020004"
     x="68"
     font-size="4.208">
    <tspan
       id="tspan1488"
       y="18.020004"
       x="68">C</tspan>
  </text>
  <g
     id="g1490"
     transform="translate(-1,-3.05)">
    <path
       style="opacity:0.07999998"
       inkscape:connector-curvature="0"
       id="path1492"
       transform="translate(-1,-1)"
       d="m 64,50.938 c -7.0005,0 -13.373,1.8561 -18.125,5 -4.7563,3.1468 -7.9688,7.7313 -7.9688,12.969 l 0,4.125 c 0,4.5561 2.4359,8.6309 6.1875,11.656 3.5839,2.8901 8.459,4.8387 13.875,5.7188 0.04558,0.02528 0.09512,0.06319 0.09375,0.0625 -0.0022,-0.0011 0.15856,0.06342 0.15625,0.0625 -0.0023,-9.22e-4 0.15862,0.06323 0.15625,0.0625 -0.0024,-7.25e-4 0.18993,0.03177 0.1875,0.03125 3.9273,0.7684 9.6975,0.71965 14,-0.625 0.03724,-0.01164 0.08798,0.01184 0.125,0 0.03384,-0.0059 0.0226,0.01003 0.0625,0 0.38446,-0.09667 0.75922,-0.19863 1.1562,-0.3125 0.01186,-0.0033 0.01987,0.0033 0.03125,0 0.10245,-0.02949 0.18772,-0.07119 0.25,-0.09375 0.0346,-0.01253 0.07731,-0.0248 0.09375,-0.03125 0.02947,-0.0083 0.0675,-0.02302 0.09375,-0.03125 0.0525,-0.01647 0.09228,-0.0188 0.1875,-0.0625 0.33683,-0.10302 0.6611,-0.22783 1,-0.34375 a 1.0935,1.0935 0 0 0 0.09375,-0.03125 c 0.032,-0.012 0.062,-0.022 0.094,-0.033 a 1.0935,1.0935 0 0 0 0.03125,0 c 0.16059,-0.05553 0.29599,-0.09667 0.375,-0.125 0.37338,-0.13405 0.73017,-0.27767 1.125,-0.4375 0.34163,-0.13673 0.66219,-0.27157 0.96875,-0.40625 0.16346,-0.07299 0.31298,-0.12844 0.4375,-0.1875 0.01826,-0.0087 0.04527,-0.02313 0.0625,-0.03125 0.0036,-0.0013 0.03116,4.4e-5 0.03125,0 0.4945,-0.22829 0.97979,-0.4887 1.4688,-0.75 a 1.0935,1.0935 0 0 0 0.03125,0 c 0.05017,-0.02736 0.0851,-0.07047 0.125,-0.09375 0.01773,-0.01035 0.04567,-0.021 0.0625,-0.03125 2.8377,-1.5489 5.353,-3.5831 7.125,-6.2188 l 0.03125,0 c 0.0043,-0.0065 -0.0043,-0.02476 0,-0.03125 0.2158,-0.31666 0.38085,-0.58227 0.5,-0.78125 a 1.0935,1.0935 0 0 0 0,-0.03125 c 0.0067,-0.01161 0.05248,-0.04582 0.0625,-0.0625 A 1.0935,1.0935 0 0 0 88.21895,79.78 c 0.04494,-0.07483 0.09223,-0.13279 0.15625,-0.25 0.0089,-0.01623 -0.0078,-0.01517 0,-0.03125 0.16127,-0.29329 0.32253,-0.59085 0.46875,-0.90625 a 1.0935,1.0935 0 0 0 0,-0.0625 1.0935,1.0935 0 0 0 0.03125,-0.0625 c 0.0035,-0.0075 -0.0035,-0.02372 0,-0.03125 0.0026,-0.007 -0.0027,-0.02357 0,-0.03125 a 1.0935,1.0935 0 0 0 0.031,-0.029 c 0.0033,-0.01174 -0.0032,-0.0183 0,-0.03125 0.0021,-0.0083 -0.002,-0.0224 0,-0.03125 0.0051,-0.01093 0.02606,-0.02022 0.03125,-0.03125 0.16752,-0.35585 0.34324,-0.74176 0.5,-1.2188 -0.0027,0.0084 0.03117,-0.08923 0.0625,-0.1875 0.0089,-0.02807 -0.0061,-0.03406 0,-0.0625 0.0042,-0.01375 -0.0035,-0.0172 0,-0.03125 0.25386,-0.83226 0.44787,-1.7132 0.53125,-2.625 0.0098,-0.03676 0.02506,-0.06247 0.03125,-0.09375 0.01631,-0.19725 0.01162,-0.214 0,-0.0625 0.0075,-0.04796 0.02637,-0.10606 0.03125,-0.15625 a 1.0935,1.0935 0 0 0 0,-0.03125 c -9.2e-5,0.002 -3.9e-5,-0.09874 0,-0.15625 l 0,-0.0625 0,-0.5625 0,-4.125 c 0,-5.2374 -3.2126,-9.822 -7.9688,-12.969 -4.7518,-3.1439 -11.124,-5 -18.125,-5 z m 24.75,26.5 c 0.02018,0.028 0.03146,0.06284 0.03125,0.0625 -0.015,-0.024 -0.013,-0.035 -0.031,-0.062 z" />
    <path
       style="opacity:0.15"
       inkscape:connector-curvature="0"
       id="path1494"
       transform="translate(-1,-1)"
       d="m 64,52.031 c -6.8068,0 -12.992,1.8093 -17.531,4.8125 -4.54,3.003 -7.469,7.27 -7.469,12.062 l 0,4.125 c 0,4.1676 2.2211,7.9415 5.7812,10.812 3.4662,2.7952 8.2621,4.7342 13.656,5.5625 0.01315,0.002 0.01809,0.02925 0.03125,0.03125 a 1.0049,1.0049 0 0 0 0.3125,0.125 c 3.7614,0.73594 9.5904,0.68157 13.625,-0.625 0.01926,-0.0048 0.04323,0.0048 0.0625,0 0.38126,-0.09586 0.75847,-0.1981 1.1562,-0.3125 0.18426,-0.0515 0.26721,-0.08968 0.28125,-0.09375 0.22904,-0.06794 0.27555,-0.0985 0.15625,-0.0625 0.4385,-0.12969 0.88258,-0.27823 1.3438,-0.4375 a 1.0049,1.0049 0 0 0 0.03125,0 c 0.13915,-0.04812 0.24344,-0.08903 0.34375,-0.125 0.37837,-0.13584 0.72951,-0.2588 1.0938,-0.40625 0.30618,-0.12254 0.61976,-0.26666 0.9375,-0.40625 0.16792,-0.07498 0.3266,-0.15174 0.46875,-0.21875 0.0082,-0.0038 0.02303,0.0038 0.03125,0 0.47048,-0.2172 0.96464,-0.46606 1.4375,-0.71875 0.24869,-0.13563 0.23331,-0.14801 0.125,-0.09375 0.0077,-0.0042 0.02353,0.0042 0.03125,0 2.7546,-1.498 5.1571,-3.4287 6.8125,-5.9062 0.19959,-0.29066 0.33871,-0.53284 0.46875,-0.75 a 1.0049,1.0049 0 0 0 0,-0.03125 c 0.05571,-0.09597 0.13353,-0.21897 0.21875,-0.375 0.0054,-0.0099 -0.0055,-0.02108 0,-0.03125 0.15852,-0.28828 0.31116,-0.57123 0.4375,-0.84375 a 1.0049,1.0049 0 0 0 0,-0.03125 c 0.0095,-0.02126 -0.008,-0.01122 0,-0.03125 0.0098,-0.02191 -0.0082,-0.01072 0,-0.03125 0.19521,-0.42545 0.41124,-0.85223 0.5625,-1.3125 0.01041,-0.03204 0.03769,-0.1097 0.0625,-0.1875 0.0038,-0.01184 -0.004,-0.01838 0,-0.03125 0.24733,-0.80494 0.42842,-1.6656 0.5,-2.5312 0.0017,-0.0206 -0.0016,-0.04187 0,-0.0625 0.007,-0.01 0.02,-0.021 0.033,-0.156 a 1.0049,1.0049 0 0 0 0,-0.09375 l 0,-0.625 0,-4.125 c 0,-4.791 -2.93,-9.059 -7.469,-12.062 -4.539,-3.003 -10.724,-4.813 -17.531,-4.813 z" />
    <path
       style="opacity:0.3"
       inkscape:connector-curvature="0"
       id="path1496"
       d="m 63,52.031 c -13.254,0 -24,7.1129 -24,15.875 l 0,4.125 c 0,7.6206 8.1286,13.972 18.969,15.5 l 0,0.03125 c 3.5634,0.6972 9.437,0.63644 13.188,-0.59375 0.40102,-0.10085 0.79143,-0.1986 1.1875,-0.3125 0.09657,-0.02699 0.18534,-0.06595 0.28125,-0.09375 0.05333,-0.01582 0.10303,-0.04644 0.15625,-0.0625 0.44272,-0.13094 0.88447,-0.25842 1.3125,-0.40625 0.1166,-0.04032 0.22788,-0.08345 0.34375,-0.125 0.36522,-0.13112 0.70904,-0.26316 1.0625,-0.40625 0.30508,-0.1221 0.60783,-0.2439 0.90625,-0.375 0.15855,-0.0708 0.31292,-0.14554 0.46875,-0.21875 0.47171,-0.21757 0.95518,-0.44645 1.4062,-0.6875 0.04661,-0.02542 0.07868,-0.0681 0.125,-0.09375 2.66,-1.4432 4.9239,-3.2817 6.4688,-5.5938 0.16134,-0.23497 0.29324,-0.47783 0.4375,-0.71875 0.07259,-0.12506 0.15028,-0.24747 0.21875,-0.375 0.14597,-0.26351 0.28115,-0.54265 0.40625,-0.8125 0.0039,-0.0087 -0.0039,-0.02255 0,-0.03125 0.18814,-0.4083 0.36146,-0.82846 0.5,-1.25 0.02007,-0.0618 0.04333,-0.12521 0.0625,-0.1875 0.23975,-0.77445 0.40655,-1.5639 0.46875,-2.375 0.0072,-0.06419 0.02497,-0.12286 0.03125,-0.1875 l 0,-0.625 0,-4.125 c 0,-8.7621 -10.745,-15.875 -24,-15.875 z" />
    <path
       style="fill:#a40000"
       inkscape:connector-curvature="0"
       id="path1498"
       d="M 86.174,66.905 C 83.423,60.147 74.094,55.171 63.001,55.171 c -11.094,0 -20.422,4.976 -23.173,11.734 l -0.82774,0 0,4.1307 c 0,8.7608 10.747,15.862 24.001,15.862 13.255,0 23.999,-7.1012 23.999,-15.862 l 0,-4.1307 -0.82646,0 z" />
    <path
       inkscape:connector-curvature="0"
       style="fill:url(#linearGradient4420)"
       id="path1500"
       d="M 87,66.905 C 87,75.6671 76.256,82.768 63.001,82.768 49.746,82.768 39,75.6668 39,66.905 39,58.1429 49.747,51.042 63.001,51.042 76.256,51.042 87,58.1432 87,66.905 Z" />
    <path
       style="fill:#204a87"
       inkscape:connector-curvature="0"
       id="path1502"
       d="m 87,71.654 -0.03075,-4.3232 c -2.6024,8.9815 -8.4542,12.786 -15.812,14.649 l 0,3.98 c 7.9635,-2.0028 15.09,-6.5628 15.842,-14.306 z" />
    <path
       inkscape:connector-curvature="0"
       style="fill:url(#linearGradient4418)"
       id="path1504"
       d="M 87,66.905 C 86.45,77.041 73.914,81.663 71.113,81.84 l -8.1134,-14.935 23.999,0 0.0013,0 z" />
    <path
       style="fill:#4e9a06"
       inkscape:connector-curvature="0"
       id="path1506"
       d="m 57.977,86.551 0,-4.1294 c 4.5167,0.58818 8.6605,0.69182 13.136,-0.42666 l 0.04483,3.9665 c -3.7505,1.2302 -9.6177,1.2881 -13.181,0.59087 l 0,-0.0013 z" />
    <path
       inkscape:connector-curvature="0"
       style="fill:url(#linearGradient4416)"
       id="path1508"
       d="m 62.999,66.907 8.1134,14.933 c -4.9677,1.8937 -13.136,0.58145 -13.136,0.58145 l 5.0228,-15.515 z" />
    <path
       inkscape:connector-curvature="0"
       style="color:#000000;display:block;opacity:0.25;fill:none;stroke:url(#linearGradient4413);stroke-width:0.49599999"
       id="path1510"
       transform="matrix(2.0143,0,0,2.0159,100.54,17.61)"
       display="block"
       d="m -6.875,24.375 a 11.75,7.75 0 1 1 -23.5,0 11.75,7.75 0 1 1 23.5,0 z" />
  </g>
  <g
     id="g14291">
    <path
       d="m 5.2922679,73.685059 0,5.0663 c 0,6.668 5.3645011,12.032 12.0320011,12.032 l 61.049,0 c 6.668,0 12.032,-5.3645 12.032,-12.032 l 0,-5.0663 c 0,6.6681 -5.3645,12.032 -12.032,12.032 l -61.049,0 c -6.668,0 -12.0320011,-5.3643 -12.0320011,-12.032 z"
       id="path64"
       inkscape:connector-curvature="0"
       style="opacity:0.4;fill:url(#linearGradient14237);fill-opacity:1" />
    <path
       inkscape:connector-curvature="0"
       id="path14214"
       d="m 5.2929688,72.717592 0,1.15039 c 0,6.667718 5.3632502,12.031248 12.0312502,12.031248 l 61.048828,0 c 6.6675,0 12.03125,-5.36313 12.03125,-12.031248 l 0,-1.15039 c 0,6.668098 -5.36375,12.031248 -12.03125,12.031248 l -61.048828,0 c -6.668,0 -12.0312502,-5.36355 -12.0312502,-12.031248 z"
       style="opacity:0.5;fill:url(#linearGradient14245);fill-opacity:1" />
  </g>
</svg>
