<?xml version="1.0" encoding="UTF-8" standalone="no"?>
<svg
   xmlns:dc="http://purl.org/dc/elements/1.1/"
   xmlns:cc="http://creativecommons.org/ns#"
   xmlns:rdf="http://www.w3.org/1999/02/22-rdf-syntax-ns#"
   xmlns:svg="http://www.w3.org/2000/svg"
   xmlns="http://www.w3.org/2000/svg"
   xmlns:xlink="http://www.w3.org/1999/xlink"
   xmlns:sodipodi="http://sodipodi.sourceforge.net/DTD/sodipodi-0.dtd"
   xmlns:inkscape="http://www.inkscape.org/namespaces/inkscape"
   height="96"
   width="96"
   id="svg1516"
   version="1.1"
   inkscape:version="0.91 r13725"
   sodipodi:docname="goa-account.svg">
  <metadata
     id="metadata1622">
    <rdf:RDF>
      <cc:Work
         rdf:about="">
        <dc:format>image/svg+xml</dc:format>
        <dc:type
           rdf:resource="http://purl.org/dc/dcmitype/StillImage" />
      </cc:Work>
    </rdf:RDF>
  </metadata>
  <sodipodi:namedview
     pagecolor="#ffffff"
     bordercolor="#666666"
     borderopacity="1"
     objecttolerance="10"
     gridtolerance="10"
     guidetolerance="10"
     inkscape:pageopacity="0"
     inkscape:pageshadow="2"
     inkscape:window-width="640"
     inkscape:window-height="480"
     id="namedview1620"
     showgrid="false"
     inkscape:zoom="2.4583333"
     inkscape:cx="48"
     inkscape:cy="39.973688"
     inkscape:current-layer="svg1516" />
  <defs
     id="defs1518">
    <clipPath
       id="clipPath3613-75">
      <rect
         x="6"
         rx="6"
         y="6"
         height="84"
         width="84"
         id="rect1521" />
    </clipPath>
    <filter
       x="-0.144"
       y="-0.144"
       height="1.288"
       color-interpolation-filters="sRGB"
       id="filter4123"
       width="1.288">
      <feGaussianBlur
         stdDeviation="3.96"
         id="feGaussianBlur1524" />
    </filter>
    <linearGradient
       id="linearGradient5226-0">
      <stop
         stop-color="#fff"
         id="stop1527" />
      <stop
         stop-color="#fff"
         stop-opacity="0"
         offset="1"
         id="stop1529" />
    </linearGradient>
    <linearGradient
       x2="0"
       y1="90"
       y2="5.988"
       gradientUnits="userSpaceOnUse"
       id="linearGradient14814"
       gradientTransform="translate(117.11,852.65)">
      <stop
         stop-color="#3781c6"
         id="stop1532" />
      <stop
         stop-color="#88b2db"
         offset="1"
         id="stop1534" />
    </linearGradient>
    <radialGradient
       cy="61.949"
       r="58.02"
       gradientUnits="userSpaceOnUse"
       id="radialGradient14816"
       cx="63.98"
       gradientTransform="matrix(1.09,0,0,0.84045,95.37,847.16)">
      <stop
         stop-color="#fff"
         id="stop1537" />
      <stop
         stop-color="#fff"
         stop-opacity="0.426"
         offset="1"
         id="stop1539" />
    </radialGradient>
    <linearGradient
       x2="0"
       xlink:href="#linearGradient5226-0"
       y1="20.221"
       y2="138.66"
       gradientUnits="userSpaceOnUse"
       id="linearGradient14818" />
    <radialGradient
       cy="70.61"
       r="25.484"
       xlink:href="#linearGradient5226-0"
       gradientUnits="userSpaceOnUse"
       id="radialGradient14820"
       cx="49.23"
       gradientTransform="matrix(0.46811,-0.52912,1.7948,1.5822,-112.04,-37.34)" />
    <radialGradient
       cy="68.45"
       r="43.77"
       xlink:href="#linearGradient5226-0"
       gradientUnits="userSpaceOnUse"
       id="radialGradient14822"
       cx="64.23"
       gradientTransform="matrix(1.4544,0,0,0.92611,-45.08,-12.601)" />
    <radialGradient
       cy="67.13"
       r="3.125"
       gradientUnits="userSpaceOnUse"
       id="radialGradient14824"
       cx="74.38">
      <stop
         stop-color="#fff"
         id="stop1545" />
      <stop
         stop-color="#fff"
         offset="0.306"
         id="stop1547" />
      <stop
         stop-color="#fff"
         stop-opacity="0.641"
         offset="0.519"
         id="stop1549" />
      <stop
         stop-color="#fff"
         stop-opacity="0"
         offset="1"
         id="stop1551" />
    </radialGradient>
    <radialGradient
       cy="2.217"
       r="58.38"
       xlink:href="#linearGradient5226-0"
       gradientUnits="userSpaceOnUse"
       id="radialGradient14836"
       cx="63.875"
       gradientTransform="matrix(1.0948,0,0,0.33117,-21.845,32.793)" />
    <radialGradient
       cy="75.974"
       r="58.5"
       xlink:href="#linearGradient5226-0"
       gradientUnits="userSpaceOnUse"
       id="radialGradient14838"
       cx="69.75"
       gradientTransform="matrix(2.2594,-0.06832,0.00798,0.26386,-105.96,38.862)" />
    <linearGradient
       x2="0"
       y1="16"
       y2="80"
       gradientUnits="userSpaceOnUse"
       id="linearGradient14842"
       gradientTransform="matrix(0.88281,0,0,0.89965,5.625,13.563)">
      <stop
         stop-color="#313233"
         id="stop1556" />
      <stop
         stop-color="#23486a"
         offset="1"
         id="stop1558" />
    </linearGradient>
    <clipPath
       clipPathUnits="userSpaceOnUse"
       id="clipPath14844">
      <path
         d="m135.79 860.68c-6.3289 0-11.419 5.1787-11.419 11.58v58.59c0 5.201 3.3536 9.5826 8.0085 11.04h64.72c4.4751-1.3985 7.7564-5.5044 8.0085-10.44v-59.79c-0.30485-6.122-5.2587-10.98-11.39-10.98h-57.928z"
         id="path1561" />
    </clipPath>
    <path
       d="m77.5 67.125a3.125 3.125 0 1 1 -6.25 0 3.125 3.125 0 1 1 6.25 0z"
       fill="url(#radialGradient14824)"
       fill-rule="evenodd"
       id="SVGCleanerId_0" />
    <linearGradient
       inkscape:collect="always"
       xlink:href="#linearGradient14231"
       id="linearGradient14237"
       x1="50.707542"
       y1="81.682442"
       x2="50.707542"
       y2="96.539803"
       gradientUnits="userSpaceOnUse" />
    <linearGradient
       inkscape:collect="always"
       id="linearGradient14231">
      <stop
         style="stop-color:#000000;stop-opacity:1;"
         offset="0"
         id="stop14233" />
      <stop
         style="stop-color:#000000;stop-opacity:0;"
         offset="1"
         id="stop14235" />
    </linearGradient>
    <linearGradient
       inkscape:collect="always"
       xlink:href="#linearGradient5226-0"
       id="linearGradient14245"
       x1="49.876652"
       y1="87.937508"
       x2="49.876652"
       y2="76.719681"
       gradientUnits="userSpaceOnUse" />
  </defs>
  <rect
     style="fill-opacity:0.03900003"
     id="rect1566"
     width="88.760002"
     height="88.760002"
     y="3.6000221"
     rx="12.552"
     x="3.608" />
  <rect
     style="fill-opacity:0.078"
     id="rect1568"
     width="87.550003"
     height="87.550003"
     y="4.2100072"
     rx="12.38"
     x="4.2160001" />
  <rect
     style="fill-opacity:0.15700001"
     id="rect1570"
     width="86.330002"
     height="86.330002"
     y="4.8199925"
     rx="12.208"
     x="4.8239999" />
  <g
     id="g1572"
     transform="matrix(1.0536,0,0,1.0417,-125.6,-891.14)"
     clip-path="url(#clipPath14844)">
    <rect
       style="fill:url(#linearGradient14814)"
       id="rect1574"
       width="84"
       height="84"
       y="858.65002"
       rx="6"
       x="123.11" />
    <path
       inkscape:connector-curvature="0"
       style="opacity:0.7;fill:url(#radialGradient14816)"
       id="path1576"
       d="m 153.39,858.74 c 1.6501,2.2156 0.11259,5.9154 2.6015,5.8787 1.2119,1.7132 -2.4154,0.51104 0.2036,1.8314 1.5061,1.186 -1.5934,1.8636 0.27178,2.9279 -2.1497,1.1091 0.34844,5.8011 1.9451,6.9754 2.628,2.2121 1.1622,-4.6834 4.0945,-5.0421 1.5934,-1.8188 4.3918,-2.9863 6.3793,-4.816 -1.9423,-0.15766 -3.0765,-1.3664 -1.237,-2.1152 3.3854,3.4687 0.8489,-1.6427 -1.0251,-2.452 1.8134,-0.57675 3.577,-0.1544 3.3254,-1.6505 1.9163,-1.4018 -1.8423,-1.8544 -3.1839,-1.5375 l -13.375,0 z m -27.802,1.447 c -2.4498,0.69785 -2.6206,6.5516 -0.15836,3.3011 0.60435,-1.3347 3.3971,-2.9432 0.15836,-3.3011 z m 11.446,0.2035 c -1.4123,2.2142 0.20491,3.9895 1.3799,1.2888 0.83171,-1.1278 -0.61793,-1.2475 -1.3799,-1.2888 z m 3.529,0.49742 c -2.7288,1.2646 -0.6726,4.2135 -0.60506,4.8693 2.8746,0.99434 4.4732,-0.65011 5.5607,2.1604 2.7352,1.5762 -0.0538,4.3149 -1.0805,5.0282 1.8493,-1.6104 5.4042,4.3783 4.4723,1.2143 -1.1118,-0.81167 2.9852,1.3039 0.85962,-1.334 -1.9561,-3.1511 0.15527,-1.4107 0.97995,-0.67528 2.8049,-2.5148 -3.1736,-2.8188 -1.6812,-5.4069 -1.3078,-1.059 -3.0229,-4.2674 -5.3387,-3.6402 -1.5502,2.0046 -0.21415,-4.3678 -2.4886,-1.179 -0.11789,1.7825 -0.0429,4.0444 -0.70571,0.95635 -0.44407,-0.5406 0.764,-1.7974 0.0273,-1.9932 z m -5.5649,0.0226 c -1.8316,0.61054 -1.7332,3.085 0.51896,3.3502 0.77143,-0.87919 0.30649,-3.1838 -0.51896,-3.3502 z m -7.1484,0.79135 c -2.3791,0.5636 -1.408,2.4816 -0.67958,3.0218 -2.9449,0.73756 4.4957,0.94266 0.79268,1.4098 -3.0808,1.2302 2.9667,2.6796 3.9588,1.221 3.8044,0.93027 0.13691,-3.045 -0.19704,-5.2 -1.6128,-1.7306 -0.0636,3.9896 -1.5219,0.18432 -0.50878,1.13 -2.1265,0.16651 -2.353,-0.63694 z m 75.601,0.24872 c -3.1924,1.2492 1.9842,5.9635 0.69765,1.6747 -0.12817,-0.51787 0.28819,-1.8862 -0.69765,-1.6747 z m -66.666,1.8993 c -2.2941,2.1556 2.916,3.9382 -0.65889,5.5442 -0.53602,-2.0019 -1.4583,1.0016 -3.5035,-0.61511 -3.5159,1.4637 -5.3139,-0.76245 -8.2575,-2.2884 -1.768,-0.22006 -1.1038,1.6797 -1.2209,3.4585 l 0,14.748 c 1.7335,1.8236 0.67633,0.80458 0,0.3016 0.95147,3.24 -0.41957,7.9763 3.3308,9.8609 0.63756,1.1824 3.3129,6.22 3.4362,4.7127 -1.3412,-1.4044 -2.7174,-5.6146 -0.44789,-1.8621 2.0328,3.567 4.7748,5.8806 8.7805,6.7294 2.1901,0.74486 3.9912,3.3053 5.9171,2.742 1.089,2.8705 -3.2274,5.6271 0.14491,8.3045 1.7605,2.7104 4.7162,4.4882 3.116,8.2934 -1.1191,3.7164 -0.63993,7.7659 -1.6078,11.229 -0.30039,2.1077 2.938,7.4573 2.6575,3.1735 0.94557,-2.9769 0.92064,-6.2525 3.1476,-8.3607 3.0471,0.0241 0.58237,-3.2761 3.607,-2.845 1.8456,-2.4189 2.3802,-5.3045 5.4949,-6.265 0.37205,-2.9362 5.1788,-7.4329 0.21314,-8.5761 -1.3496,-0.66512 -4.8245,-0.90428 -4.5589,-1.2325 0.53803,-2.9134 -4.4935,-3.7428 -6.6342,-4.9348 -2.8108,-1.9949 -7.0342,3.314 -8.0245,-1.2604 -0.59088,-1.4392 -2.7513,-1.4626 -1.7584,-3.6834 -1.7894,1.7794 -5.2893,1.2386 -4.373,-2.1978 1.3916,-2.8942 6.7356,-3.0311 7.6463,0.45006 -1.2644,-3.8393 2.4439,-6.828 4.5025,-9.5595 0.41916,-1.3056 2.9097,-2.4272 2.0527,-0.69208 1.4602,-0.0527 3.6733,-2.6873 1.0794,-1.4713 -0.0367,-2.4027 -2.273,-1.7194 -2.998,-1.3782 1.3438,-2.1325 8.245,-0.96664 5.3551,-4.4524 -2.2393,-0.90723 -2.053,-6.2014 -4.318,-3.252 0.1906,-1.8172 -4.61,-5.3745 -4.5052,-2.3272 0.58599,2.7268 0.10714,5.868 -1.1399,7.6553 -0.26025,-3.9956 -7.0757,-3.1125 -6.1994,-7.3703 1.2694,-2.0293 2.7528,-4.8355 2.8942,-4.5831 2.275,-0.86851 4.1046,-3.3948 1.4678,-5.0556 -0.14092,1.4475 -1.983,4.4339 -1.7237,0.82192 -1.7058,2.0222 -1.3162,-3.2178 -2.9138,-3.7612 z m 54.45,1.4018 c -3.9959,0.97735 -5.5801,4.7934 -7.5568,7.9542 -2.9139,1.3136 -2.8029,6.9549 0.45241,5.1531 0.87128,1.5215 -0.60951,3.9197 1.9283,1.9302 2.047,-2.7086 0.35794,-7.0892 3.8414,-8.7971 0.25374,1.328 -3.2133,6.2868 0.83699,5.4717 3.6616,0.13814 -2.6618,0.36479 -0.88099,2.7034 -1.8503,-1.0977 -0.88884,2.9978 -3.304,2.0448 -2.0923,1.138 -3.4643,-0.52836 -2.985,-2.3538 -1.646,0.96009 0.5177,3.6686 -2.3396,3.8314 -0.64005,2.2725 -5.9034,1.93 -2.9102,4.244 1.3289,3.4436 -4.9515,0.21588 -3.1685,4.3484 1.5254,4.0864 4.7224,-1.354 6.0194,-2.4052 2.5025,-1.9409 6.2107,3.3094 3.9588,3.5046 2.5251,-0.33874 2.0062,-2.7399 -0.0169,-3.6695 -1.0927,-2.8335 3.459,1.3896 3.2066,2.8103 1.606,3.0068 0.94462,-3.0786 2.5788,-0.38438 -0.1908,2.842 6.5742,0.66823 3.3444,4.2903 -2.7769,0.55923 -5.5101,-0.71579 -7.9008,0.10087 -2.2251,-0.0197 -2.1135,-2.3968 -2.9236,-2.992 -2.8304,0.22992 -6.3279,0.20392 -8.2228,2.4902 -2.049,2.811 -5.0038,6.7404 -2.7705,10.33 2.2349,5.3188 7.7772,0.27589 10.963,3.4171 0.94693,1.3097 -0.8206,2.8666 1.2967,4.2853 0.79672,3.022 -0.90448,5.8914 1.0523,8.7803 1.0118,2.7168 1.6398,6.7833 5.4058,4.3007 3.9858,-2.3982 2.9242,-6.8193 6.2129,-9.268 -2.6023,-5.0356 3.1836,-7.2435 4.6272,-11.331 -3.154,0.46168 -5.9638,-2.6824 -6.7258,-5.847 -1.3249,-1.5371 -0.98368,-3.8036 0.49633,-0.91601 2.0343,1.9709 2.0782,7.8192 5.8413,4.8106 1.7204,-0.71948 6.4186,-3.464 2.6751,-4.713 -2.413,1.7475 -5.0752,-5.2217 -1.5318,-1.1794 2.576,1.0928 4.38,1.7438 4.38,-1.8792 l 0,-29.482 c -0.8024,0.81987 -2.8638,2.3341 -3.9043,1.3279 -1.7904,0.24928 -4.1539,3.7324 -3.5912,0.36535 -1.5562,-0.10304 -0.27858,3.019 -2.4166,3.1064 -0.21529,1.6051 -2.1599,0.29723 -1.4294,1.8215 -1.5006,-1.0643 -2.7707,-4.4248 0.18614,-2.3156 4.391,-1.3172 -2.8956,-4.2883 -3.458,-5.0064 0.94545,-0.2265 -1.0286,-1.2116 -1.2668,-0.8818 z m -36.24,0.8818 c -1.4615,1.2176 2.7785,1.4469 0,0 z m -19.522,0.65569 c -1.6346,1.7097 2.6033,1.5717 0,0 z m 9.4784,1.6958 c -1.2379,2.0276 1.829,0.74858 0,0 z m 27.101,2.3967 c -1.4492,1.6682 -3.362,-0.43904 -3.3932,0.99486 0.26265,0.43325 1.3147,3.5255 3.6194,1.2436 1.237,-0.52145 0.74995,-1.836 -0.22622,-2.2384 z m -30.856,0.99486 c -2.7488,2.4003 4.6683,2.6214 0.58232,0.27529 l -0.58232,-0.27529 z m 36.262,6.6474 c -1.9791,1.2904 0.94943,4.0308 -0.0431,5.3181 -1.2401,2.1604 4.6083,-0.15218 1.4846,-1.8758 -0.22257,-1.4809 -1.83,-3.2877 -1.4415,-3.4423 z m -1.3347,2.6002 c -2.7574,0.77947 -0.62595,4.8038 0.35067,1.0135 0.0549,-0.21975 0.12936,-1.0208 -0.35067,-1.0135 z m -22.079,2.9167 c -2.5652,1.749 -0.39843,3.4947 1.4816,2.7078 -0.38596,-1.0552 -1.4642,-1.7201 -1.4816,-2.7078 z m 48.455,2.9393 c 1.28,0.64587 -2.3455,1.7492 -0.0498,2.8859 1.336,1.5709 0.83231,4.943 -1.3392,2.5564 0.40344,-2.6647 -2.9436,-4.6547 1.389,-5.4423 z m -6.5829,0.0226 c -0.17366,1.7119 3.694,4.373 -0.47504,3.5046 -2.2048,0.2586 -5.507,-0.0674 -2.7294,-2.8143 0.87765,-0.52683 3.1821,1.8176 1.9829,-0.37377 0.42513,-0.0271 0.82107,-0.18758 1.2216,-0.31654 z m -12.736,3.7081 c -1.6081,1.0359 1.112,1.8302 0,0 z m -40.379,9.6546 c -0.27111,0.90436 5.086,1.8208 1.3893,0.37197 l -0.55107,-0.19395 -0.83822,-0.17802 z m 4.1624,1.2888 c -1.6249,1.6494 3.3478,0.49277 0,0 z m 54.337,15.126 c -3.5307,0.0911 -3.0613,9.197 -0.60013,3.8089 0.2334,-1.1692 1.1689,-2.7124 0.60013,-3.8089 z" />
    <rect
       style="opacity:0.15;fill:url(#linearGradient14818);stroke:#ffffff;stroke-width:0.5;stroke-linecap:round;filter:url(#filter4123)"
       id="rect1578"
       transform="translate(117.11,852.65)"
       width="66"
       height="66"
       clip-path="url(#clipPath3613-75)"
       y="15"
       rx="12"
       x="15" />
    <g
       id="g1580"
       transform="translate(117.11,852.65)">
      <path
         inkscape:connector-curvature="0"
         style="fill:none;stroke:url(#radialGradient14820);stroke-width:2"
         id="path1582"
         d="M 7,29.523 C 58.25,38.348 38.634,89 38.634,89" />
      <path
         inkscape:connector-curvature="0"
         style="fill:none;stroke:url(#radialGradient14822);stroke-width:2"
         id="path1584"
         d="M 27.677,88.824 C 26.616,73.292 56.129,28.641 88.823,20.875" />
      <use
         height="100%"
         width="100%"
         y="0"
         x="0"
         id="use1586"
         transform="matrix(1.3572,0,0,1.3554,-73.27,-53.872)"
         xlink:href="#SVGCleanerId_0" />
      <use
         height="100%"
         width="100%"
         y="0"
         x="0"
         id="use1588"
         transform="matrix(1.0745,0,0,1.0731,-39.514,-14.09)"
         xlink:href="#SVGCleanerId_0" />
      <use
         height="100%"
         width="100%"
         y="0"
         x="0"
         id="use1590"
         transform="matrix(1.5834,0,0,1.5813,-53.33,-72.39)"
         xlink:href="#SVGCleanerId_0" />
      <use
         height="100%"
         width="100%"
         y="0"
         x="0"
         style="opacity:0.6"
         id="use1592"
         transform="matrix(1.0219,0,0,1.0206,-15.636,-16.922)"
         xlink:href="#SVGCleanerId_0" />
      <use
         height="100%"
         width="100%"
         y="0"
         x="0"
         style="opacity:0.7"
         id="use1594"
         transform="matrix(0.8926,0,0,0.89141,-51.611,-28.372)"
         xlink:href="#SVGCleanerId_0" />
      <use
         height="100%"
         width="100%"
         y="0"
         x="0"
         style="opacity:0.6"
         id="use1596"
         transform="matrix(0.56552,0,0,0.56477,38.457,3.261)"
         xlink:href="#SVGCleanerId_0" />
      <path
         inkscape:connector-curvature="0"
         style="fill:none;stroke:url(#radialGradient14836);stroke-width:2"
         id="path1598"
         d="m 7.1767,47.702 c 28.099,-19.414 65.211,-20.473 81.823,1.588" />
      <path
         inkscape:connector-curvature="0"
         style="opacity:0.6;fill:none;stroke:url(#radialGradient14838);stroke-width:1.5"
         id="path1600"
         d="m 7.1767,67.821 c 51.25,-11.472 82,-30.179 82,-30.179" />
      <use
         height="100%"
         width="100%"
         y="0"
         x="0"
         style="opacity:0.6"
         id="use1602"
         transform="matrix(0.84547,0,0,0.84435,15.553,-31.918)"
         xlink:href="#SVGCleanerId_0" />
    </g>
    <g
       id="g1604"
       transform="translate(117.11,852.65)">
      <path
         inkscape:connector-curvature="0"
         style="fill:url(#linearGradient14842)"
         id="path1606"
         d="m 48,28 c -6.1616,0 -11.152,4.7207 -11.152,10.53 0.01497,0.66573 0.01928,1.4092 0.08781,2.2372 -0.97511,0.5251 -1.104,2.5833 -0.23417,4.6534 0.33539,0.79826 0.79641,1.4434 1.2587,1.9688 0.01541,0.01756 0.04302,0.04254 0.05855,0.05966 0.11034,0.54696 0.18854,0.964 0.32198,1.581 0.41339,1.2527 2.1254,3.6121 3.6296,5.6378 0.15001,1.5627 0.15546,3.1145 -0.14636,4.892 -4.3297,3.6286 -15.413,5.252 -15.397,9.0085 l -0.206,1.432 43.556,0 -0.205,-1.432 c -0.01766,-3.2151 -11.149,-5.252 -15.426,-9.0085 -0.17316,-1.439 -0.20523,-2.8483 -0.11708,-4.2656 1.3676,-2.1311 3.172,-4.8773 3.6296,-6.2642 0.1682,-0.71822 0.2499,-1.2029 0.38053,-1.8196 0.40386,-0.49864 0.78491,-1.0802 1.083,-1.7898 0.82599,-1.9659 0.72477,-3.866 -0.11708,-4.5043 0.05883,-0.85421 0.12176,-1.6563 0.14636,-2.3864 -10e-4,-5.809 -4.991,-10.53 -11.153,-10.53 z" />
      <path
         style="opacity:0.1"
         inkscape:connector-curvature="0"
         id="path1608"
         d="m 48,28 c -6.1616,0 -11.156,4.7221 -11.156,10.531 0.01497,0.66573 0.02522,1.4219 0.09375,2.25 -0.97511,0.5251 -1.1198,2.5548 -0.25,4.625 0.33539,0.79826 0.819,1.4434 1.2812,1.9688 0.01541,0.01756 0.04697,0.04538 0.0625,0.0625 0.11034,0.54696 0.17906,0.97679 0.3125,1.5938 0.41339,1.2527 2.1208,3.5993 3.625,5.625 0.15001,1.5627 0.14556,3.1287 -0.15625,4.9062 -4.3297,3.6286 -15.392,5.2434 -15.375,9 l -0.219,1.437 43.562,0 -0.219,-1.438 c -0.01766,-3.2151 -11.13,-5.2434 -15.406,-9 -0.17316,-1.439 -0.21315,-2.8639 -0.125,-4.2812 1.3676,-2.1311 3.1674,-4.8631 3.625,-6.25 0.1682,-0.71822 0.24437,-1.1958 0.375,-1.8125 0.40386,-0.49864 0.79562,-1.1029 1.0938,-1.8125 0.82599,-1.9659 0.71685,-3.8617 -0.125,-4.5 0.05883,-0.85421 0.13166,-1.6449 0.15625,-2.375 0,-5.809 -4.994,-10.531 -11.156,-10.531 z m 0,1.9688 c 5.1336,0 9.1514,3.8464 9.1875,8.5 1.63e-4,0.02106 0,0.04141 0,0.0625 -0.02371,0.6366 -0.09713,1.3915 -0.15625,2.25 a 1.9667,1.9667 0 0 0 0.625,1.5625 c 0.01234,0.03603 0.05429,0.15083 0.0625,0.375 0.01641,0.44834 -0.09268,1.1912 -0.40625,1.9375 -0.21427,0.50997 -0.50624,0.93437 -0.8125,1.3125 a 1.9667,1.9667 0 0 0 -0.40625,0.84375 c -0.12637,0.59663 -0.18867,1.0399 -0.3125,1.5938 -0.10886,0.32988 -0.62862,1.3882 -1.2812,2.4688 -0.65263,1.0806 -1.4357,2.2697 -2.125,3.3438 a 1.9667,1.9667 0 0 0 -0.3125,0.9375 c -0.0955,1.5356 -0.03101,3.1 0.15625,4.6562 a 1.9667,1.9667 0 0 0 0.625,1.2188 c 2.6409,2.3198 6.5768,3.7039 9.8438,5.0625 1.6335,0.67932 3.0955,1.3356 4,1.9062 0.01783,0.01125 0.01388,0.02007 0.03125,0.03125 l -37.75,0 c 0.13497,-0.13344 0.01883,-0.09546 0.34375,-0.3125 0.86608,-0.57852 2.2911,-1.2265 3.9062,-1.875 3.2304,-1.297 7.1571,-2.5296 9.8438,-4.7812 a 1.9667,1.9667 0 0 0 0.688,-1.156 c 0.33319,-1.9623 0.3498,-3.7467 0.1875,-5.4375 a 1.9667,1.9667 0 0 0 -0.375,-1 c -0.74775,-1.007 -1.5572,-2.0577 -2.1875,-3 -0.61169,-0.91444 -1.0354,-1.7591 -1.125,-2 -0.0027,-0.0073 -0.02922,-0.05635 -0.03125,-0.0625 -0.09336,-0.45507 -0.14834,-0.83979 -0.25,-1.3438 a 1.9667,1.9667 0 0 0 -0.469,-0.937 c -0.194,-0.214 -0.246,-0.271 -0.062,-0.063 -0.385,-0.436 -0.718,-0.881 -0.938,-1.406 -0.331,-0.787 -0.433,-1.579 -0.406,-2.031 0.012,-0.204 0.027,-0.265 0.031,-0.281 a 1.9667,1.9667 0 0 0 0.781,-1.719 c -0.06084,-0.73511 -0.07883,-1.4239 -0.09375,-2.0938 0,-0.01055 -4.1e-5,-0.02071 0,-0.03125 0.01811,-4.6678 4.0423,-8.5312 9.1875,-8.5312 z" />
      <path
         style="opacity:0.4;fill:#ffffff"
         inkscape:connector-curvature="0"
         id="path1610"
         d="m 59.125,39 c -0.03056,0.60816 -0.07778,1.2206 -0.125,1.9062 0.02209,0.01675 0.04143,0.04403 0.0625,0.0625 0.03356,-0.49022 0.07887,-0.99564 0.09375,-1.4375 0,-0.18154 -0.02162,-0.35195 -0.03125,-0.53125 z m -22.25,0.1875 c -0.0041,0.11676 -0.03125,0.22606 -0.03125,0.34375 0.0089,0.39402 0.01433,0.83137 0.03125,1.2812 0.02004,-0.01259 0.04169,-0.02004 0.0625,-0.03125 -0.04736,-0.5722 -0.05177,-1.1001 -0.0625,-1.5938 z m 22.781,4.1562 c -0.06159,0.64763 -0.22632,1.3368 -0.53125,2.0625 -0.29813,0.70957 -0.68989,1.3139 -1.0938,1.8125 -0.13063,0.61672 -0.2068,1.0943 -0.375,1.8125 -0.45765,1.3869 -2.2574,4.1189 -3.625,6.25 -0.02074,0.33341 0.0072,0.66698 0,1 1.3676,-2.1311 3.1674,-4.8631 3.625,-6.25 0.1682,-0.71822 0.24437,-1.1958 0.375,-1.8125 0.40386,-0.49864 0.79562,-1.1029 1.0938,-1.8125 0.47029,-1.1193 0.62768,-2.2066 0.53125,-3.0625 z m -23.5,0.03125 c -0.0753,0.86257 0.07187,1.9379 0.53125,3.0312 0.33539,0.79826 0.819,1.4434 1.2812,1.9688 0.01541,0.01756 0.04697,0.04538 0.0625,0.0625 0.11034,0.54696 0.17906,0.97679 0.3125,1.5938 0.41339,1.2527 2.1208,3.5993 3.625,5.625 0.0375,0.39067 0.07686,0.79449 0.09375,1.1875 0.0081,-0.73816 -0.02467,-1.4678 -0.09375,-2.1875 -1.5042,-2.0257 -3.2116,-4.3723 -3.625,-5.625 -0.133,-0.616 -0.201,-1.046 -0.312,-1.592 -0.015,-0.018 -0.047,-0.045 -0.062,-0.063 -0.463,-0.525 -0.946,-1.17 -1.281,-1.969 -0.298,-0.708 -0.462,-1.386 -0.532,-2.031 z m -9.781,26.625 -0.15625,1 43.562,0 -0.15625,-1 -43.25,0 z" />
      <path
         style="opacity:0.15"
         inkscape:connector-curvature="0"
         id="path1612"
         d="m 48,28 c -6.1616,0 -11.156,4.7221 -11.156,10.531 0.01497,0.66573 0.02522,1.4219 0.09375,2.25 -0.97511,0.5251 -1.1198,2.5548 -0.25,4.625 0.33539,0.79826 0.819,1.4434 1.2812,1.9688 0.01541,0.01756 0.04697,0.04538 0.0625,0.0625 0.11034,0.54696 0.17906,0.97679 0.3125,1.5938 0.41339,1.2527 2.1208,3.5993 3.625,5.625 0.15001,1.5627 0.14556,3.1287 -0.15625,4.9062 -4.3297,3.6286 -15.392,5.2434 -15.375,9 l -0.219,1.437 43.562,0 -0.219,-1.438 c -0.01766,-3.2151 -11.13,-5.2434 -15.406,-9 -0.17316,-1.439 -0.21315,-2.8639 -0.125,-4.2812 1.3676,-2.1311 3.1674,-4.8631 3.625,-6.25 0.1682,-0.71822 0.24437,-1.1958 0.375,-1.8125 0.40386,-0.49864 0.79562,-1.1029 1.0938,-1.8125 0.82599,-1.9659 0.71685,-3.8617 -0.125,-4.5 0.05883,-0.85421 0.13166,-1.6449 0.15625,-2.375 0,-5.809 -4.994,-10.531 -11.156,-10.531 z m 0,1.0312 c 5.6216,0 10.107,4.267 10.125,9.4688 3.7e-5,0.01057 0,0.02067 0,0.03125 -0.02407,0.67993 -0.0972,1.4551 -0.15625,2.3125 a 1.0346,1.0346 0 0 0 0.40625,0.875 c 0.04518,0.03425 0.25874,0.35399 0.28125,0.96875 0.02251,0.61476 -0.1393,1.454 -0.5,2.3125 -0.25401,0.60457 -0.58498,1.1273 -0.9375,1.5625 a 1.0346,1.0346 0 0 0 -0.188,0.438 c -0.13111,0.619 -0.19499,1.0732 -0.34375,1.7188 -0.0057,0.0249 -0.02528,0.037 -0.03125,0.0625 -0.17908,0.51451 -0.69473,1.4879 -1.3438,2.5625 -0.66469,1.1006 -1.4696,2.305 -2.1562,3.375 a 1.0346,1.0346 0 0 0 -0.156,0.5 c -0.09202,1.4795 -0.05558,2.9681 0.125,4.4688 a 1.0346,1.0346 0 0 0 0.34375,0.65625 c 2.4027,2.1105 6.3042,3.5069 9.5938,4.875 1.6448,0.68404 3.1226,1.3363 4.125,1.9688 0.5012,0.31621 0.88439,0.62788 1.0938,0.875 0.20936,0.24712 0.24943,0.39574 0.25,0.5 a 1.0346,1.0346 0 0 0 0,0.15625 l 0.03125,0.25 -41.125,0 0.03125,-0.25 a 1.0346,1.0346 0 0 0 0,-0.15625 c -0.0019,-0.43112 0.36568,-0.97168 1.3438,-1.625 0.97807,-0.65332 2.4297,-1.3132 4.0625,-1.9688 3.2656,-1.3112 7.1544,-2.5806 9.5938,-4.625 a 1.0346,1.0346 0 0 0 0.375,-0.594 c 0.318,-1.875 0.312,-3.557 0.156,-5.188 A 1.0346,1.0346 0 0 0 42.8122,54.0311 c -0.74982,-1.0097 -1.5713,-2.0946 -2.2188,-3.0625 -0.62324,-0.9317 -1.0949,-1.7302 -1.25,-2.1562 -0.0048,-0.02234 0.0047,-0.04063 0,-0.0625 -0.0024,-0.007 -0.02904,-0.02456 -0.03125,-0.03125 -0.1137,-0.53754 -0.17352,-0.96597 -0.28125,-1.5 a 1.0346,1.0346 0 0 0 -0.219,-0.469 c -0.109,-0.121 -0.151,-0.164 -0.062,-0.062 -0.421,-0.479 -0.819,-1.034 -1.094,-1.688 -0.38019,-0.90488 -0.5375,-1.8053 -0.5,-2.4375 0.03749,-0.63221 0.2648,-0.86614 0.28125,-0.875 a 1.0346,1.0346 0 0 0 0.53125,-1 c -0.063,-0.774 -0.078,-1.492 -0.093,-2.157 0,-0.01058 -3.7e-5,-0.02068 0,-0.03125 0.01815,-5.2018 4.5034,-9.4688 10.125,-9.4688 z" />
      <path
         style="opacity:0.5"
         inkscape:connector-curvature="0"
         id="path1614"
         d="m 48,28 c -6.1616,0 -11.156,4.7221 -11.156,10.531 0.0046,0.2057 0.02645,0.43551 0.03125,0.65625 0.197,-5.646 5.088,-10.187 11.125,-10.187 5.969,0 10.826,4.4417 11.125,10 0.0075,-0.14956 0.0264,-0.32465 0.03125,-0.46875 0,-5.809 -4.994,-10.531 -11.156,-10.531 z M 36.875,40.812 c -0.59755,0.37538 -0.84864,1.3636 -0.71875,2.5625 0.06727,-0.77061 0.32115,-1.346 0.78125,-1.5938 -0.02797,-0.33797 -0.05083,-0.6585 -0.0625,-0.96875 z m 22.188,0.15625 c -0.02189,0.31974 -0.03928,0.60029 -0.0625,0.9375 0.35676,0.2705 0.57971,0.77357 0.65625,1.4062 0.0939,-1.0468 -0.11304,-1.9224 -0.59375,-2.3438 z m -17,16.062 c -0.01761,0.80549 -0.09909,1.6425 -0.25,2.5312 -4.3297,3.6286 -15.392,5.2434 -15.375,9 l -0.219,1.439 0.156,0 0.063,-0.438 c -0.0166,-3.7566 11.045,-5.3714 15.375,-9 0.21445,-1.263 0.28743,-2.4113 0.25,-3.5312 z m 11.937,0.72 c -0.0017,0.92679 0.04294,1.8709 0.15625,2.8125 4.2766,3.7566 15.389,5.7849 15.406,9 l 0.063,0.438 0.156,0 -0.219,-1.438 c -0.01766,-3.2151 -11.13,-5.2434 -15.406,-9 -0.073,-0.606 -0.132,-1.213 -0.156,-1.812 z" />
    </g>
  </g>
  <g
     id="g14291">
    <path
       d="m 5.2922679,73.685059 0,5.0663 c 0,6.668 5.3645011,12.032 12.0320011,12.032 l 61.049,0 c 6.668,0 12.032,-5.3645 12.032,-12.032 l 0,-5.0663 c 0,6.6681 -5.3645,12.032 -12.032,12.032 l -61.049,0 c -6.668,0 -12.0320011,-5.3643 -12.0320011,-12.032 z"
       id="path64"
       inkscape:connector-curvature="0"
       style="opacity:0.4;fill:url(#linearGradient14237);fill-opacity:1" />
    <path
       inkscape:connector-curvature="0"
       id="path14214"
       d="m 5.2929688,72.717592 0,1.15039 c 0,6.667718 5.3632502,12.031248 12.0312502,12.031248 l 61.048828,0 c 6.6675,0 12.03125,-5.36313 12.03125,-12.031248 l 0,-1.15039 c 0,6.668098 -5.36375,12.031248 -12.03125,12.031248 l -61.048828,0 c -6.668,0 -12.0312502,-5.36355 -12.0312502,-12.031248 z"
       style="opacity:0.5;fill:url(#linearGradient14245);fill-opacity:1" />
  </g>
</svg>
