<?xml version="1.0" encoding="UTF-8" standalone="no"?>
<svg
   xmlns:dc="http://purl.org/dc/elements/1.1/"
   xmlns:cc="http://creativecommons.org/ns#"
   xmlns:rdf="http://www.w3.org/1999/02/22-rdf-syntax-ns#"
   xmlns:svg="http://www.w3.org/2000/svg"
   xmlns="http://www.w3.org/2000/svg"
   xmlns:xlink="http://www.w3.org/1999/xlink"
   xmlns:sodipodi="http://sodipodi.sourceforge.net/DTD/sodipodi-0.dtd"
   xmlns:inkscape="http://www.inkscape.org/namespaces/inkscape"
   height="96"
   width="96"
   id="svg1973"
   version="1.1"
   inkscape:version="0.91 r13725"
   sodipodi:docname="googleearth.svg">
  <metadata
     id="metadata2065">
    <rdf:RDF>
      <cc:Work
         rdf:about="">
        <dc:format>image/svg+xml</dc:format>
        <dc:type
           rdf:resource="http://purl.org/dc/dcmitype/StillImage" />
      </cc:Work>
    </rdf:RDF>
  </metadata>
  <sodipodi:namedview
     pagecolor="#ffffff"
     bordercolor="#666666"
     borderopacity="1"
     objecttolerance="10"
     gridtolerance="10"
     guidetolerance="10"
     inkscape:pageopacity="0"
     inkscape:pageshadow="2"
     inkscape:window-width="640"
     inkscape:window-height="480"
     id="namedview2063"
     showgrid="false"
     inkscape:zoom="2.4583333"
     inkscape:cx="48"
     inkscape:cy="48"
     inkscape:current-layer="svg1973" />
  <defs
     id="defs1975">
    <clipPath
       id="clipPath3613-247">
      <rect
         x="6"
         rx="6"
         y="6"
         height="84"
         width="84"
         id="rect1978" />
    </clipPath>
    <filter
       x="-0.192"
       y="-0.192"
       height="1.384"
       color-interpolation-filters="sRGB"
       id="filter3794-80"
       width="1.384">
      <feGaussianBlur
         stdDeviation="5.28"
         id="feGaussianBlur1981" />
    </filter>
    <linearGradient
       x1="59"
       x2="48"
       y1="202.5"
       y2="5.988"
       gradientUnits="userSpaceOnUse"
       id="linearGradient28296"
       gradientTransform="matrix(1.0547,0,0,1.101,-4.189,-5.808)">
      <stop
         stop-color="#22193e"
         id="stop1984" />
      <stop
         stop-color="#9586af"
         offset="1"
         id="stop1986" />
    </linearGradient>
    <radialGradient
       cy="-16.953"
       r="60.31"
       gradientUnits="userSpaceOnUse"
       id="radialGradient28317"
       cx="64.14"
       gradientTransform="matrix(0.55997 0 0 0.15985 11.584 1033.9)">
      <stop
         stop-color="#fff"
         id="stop1989" />
      <stop
         stop-color="#fff"
         stop-opacity="0"
         offset="1"
         id="stop1991" />
    </radialGradient>
    <linearGradient
       x2="0"
       xlink:href="#radialGradient28317"
       y1="20.221"
       y2="138.66"
       gradientUnits="userSpaceOnUse"
       id="linearGradient28319" />
    <radialGradient
       cy="-33.923"
       r="60.31"
       gradientUnits="userSpaceOnUse"
       id="radialGradient28321"
       cx="46.972"
       gradientTransform="matrix(0.59848,0,0,0.56886,10.564,1014.1)">
      <stop
         stop-color="#95d2f8"
         id="stop1995" />
      <stop
         stop-color="#357bb5"
         offset="0.41"
         id="stop1997" />
      <stop
         stop-color="#13324e"
         offset="1"
         id="stop1999" />
    </radialGradient>
    <radialGradient
       cy="-19.96"
       r="60.31"
       gradientUnits="userSpaceOnUse"
       id="radialGradient28323"
       cx="65.26"
       gradientTransform="matrix(0.58463,0,0,0.56967,11.483,1014.1)">
      <stop
         stop-opacity="0"
         id="stop2002" />
      <stop
         stop-opacity="0"
         offset="0.91"
         id="stop2004" />
      <stop
         offset="1"
         id="stop2006" />
    </radialGradient>
    <radialGradient
       cy="19.781"
       r="19.19"
       gradientUnits="userSpaceOnUse"
       id="radialGradient28325"
       cx="22.11"
       gradientTransform="matrix(1.5734,0,0,1.4686,8.18,968.28)">
      <stop
         stop-color="#e3ebf3"
         id="stop2009" />
      <stop
         stop-color="#cedceb"
         stop-opacity="0.132"
         offset="1"
         id="stop2011" />
    </radialGradient>
    <radialGradient
       cy="-33.923"
       r="60.31"
       gradientUnits="userSpaceOnUse"
       id="radialGradient28327"
       cx="46.972"
       gradientTransform="matrix(0.59848,0,0,0.56886,10.564,1014.1)">
      <stop
         stop-color="#fff"
         id="stop2014" />
      <stop
         stop-color="#f6f6f6"
         offset="0.5"
         id="stop2016" />
      <stop
         stop-color="#8aa6c6"
         offset="1"
         id="stop2018" />
    </radialGradient>
    <path
       d="m78.503 1003.6a31 31 0 0 1 -62 0 31 31 0 1 1 62 0z"
       color="#000000"
       fill-rule="evenodd"
       id="SVGCleanerId_0" />
    <radialGradient
       inkscape:collect="always"
       xlink:href="#radialGradient28317"
       id="radialGradient11529"
       gradientUnits="userSpaceOnUse"
       gradientTransform="matrix(0.55997,0,0,0.15985,11.584,1033.9)"
       cx="64.14"
       cy="-16.953"
       r="60.31" />
    <linearGradient
       inkscape:collect="always"
       xlink:href="#linearGradient14231"
       id="linearGradient14237"
       x1="50.707542"
       y1="81.682442"
       x2="50.707542"
       y2="96.539803"
       gradientUnits="userSpaceOnUse" />
    <linearGradient
       inkscape:collect="always"
       id="linearGradient14231">
      <stop
         style="stop-color:#000000;stop-opacity:1;"
         offset="0"
         id="stop14233" />
      <stop
         style="stop-color:#000000;stop-opacity:0;"
         offset="1"
         id="stop14235" />
    </linearGradient>
    <linearGradient
       inkscape:collect="always"
       xlink:href="#linearGradient14239"
       id="linearGradient14245"
       x1="49.876652"
       y1="87.937508"
       x2="49.876652"
       y2="76.719681"
       gradientUnits="userSpaceOnUse" />
    <linearGradient
       inkscape:collect="always"
       id="linearGradient14239">
      <stop
         style="stop-color:#ffffff;stop-opacity:1;"
         offset="0"
         id="stop14241" />
      <stop
         style="stop-color:#ffffff;stop-opacity:0;"
         offset="1"
         id="stop14243" />
    </linearGradient>
  </defs>
  <rect
     style="fill-opacity:0.03900003"
     id="rect2023"
     width="88.760002"
     height="88.760002"
     y="3.6000221"
     rx="12.552"
     x="3.608" />
  <rect
     style="fill-opacity:0.078"
     id="rect2025"
     width="87.550003"
     height="87.550003"
     y="4.2100072"
     rx="12.38"
     x="4.2160001" />
  <rect
     style="fill-opacity:0.15700001"
     id="rect2027"
     width="86.330002"
     height="86.330002"
     y="4.8199925"
     rx="12.208"
     x="4.8239999" />
  <path
     inkscape:connector-curvature="0"
     style="fill:url(#linearGradient28296)"
     id="path2029"
     d="m 17.469,5.4062 c -6.668,0 -12.032,5.3948 -12.032,12.063 l 5e-4,61.031 c 0,5.418 3.5332,9.982 8.4375,11.5 l 68.187,0 c 4.715,-1.457 8.172,-5.734 8.438,-10.875 l 0,-62.281 c -0.321,-6.377 -5.54,-11.438 -12,-11.438 l -61.031,2e-4 z" />
  <g
     id="g2035"
     transform="matrix(1.0774,0,0,1.0774,-3.426,-1035.52)">
    <path
       inkscape:connector-curvature="0"
       style="color:#000000;opacity:0.2;fill:url(#radialGradient11529);fill-rule:evenodd"
       id="path2037"
       d="m 81.273,1031.2 a 33.77,9.6397 0 0 1 -67.539,0 33.77,9.6397 0 1 1 67.539,0 z" />
    <rect
       style="opacity:0.1;fill:url(#linearGradient28319);stroke:#ffffff;stroke-width:0.5;stroke-linecap:round;filter:url(#filter3794-80)"
       id="rect2039"
       transform="translate(-0.497,955.57)"
       width="66"
       height="66"
       clip-path="url(#clipPath3613-247)"
       y="15"
       rx="12"
       x="15" />
    <path
       style="color:#000000;opacity:0.05;fill-rule:evenodd"
       inkscape:connector-curvature="0"
       id="path2041"
       d="m 47.509,970.55 c -18.752,0 -34.023,15.271 -34.023,34.023 0,18.752 15.273,34.007 34.023,34.007 18.751,0 34.007,-15.257 34.007,-34.007 0,-18.75 -15.255,-34.023 -34.007,-34.023 z" />
    <path
       style="color:#000000;opacity:0.1;fill-rule:evenodd"
       inkscape:connector-curvature="0"
       id="path2043"
       d="m 47.509,971.58 c -18.195,0 -32.995,14.8 -32.995,32.995 0,18.195 14.802,32.979 32.995,32.979 18.194,0 32.979,-14.786 32.979,-32.979 0,-18.194 -14.784,-32.995 -32.979,-32.995 z" />
    <path
       style="color:#000000;opacity:0.15;fill-rule:evenodd"
       inkscape:connector-curvature="0"
       id="path2045"
       d="m 47.509,972.61 c -17.638,0 -31.967,14.329 -31.967,31.967 0,17.638 14.329,31.951 31.967,31.951 17.638,0 31.951,-14.313 31.951,-31.951 0,-17.638 -14.313,-31.967 -31.951,-31.967 z" />
    <path
       style="color:#000000;opacity:0.3;fill-rule:evenodd"
       inkscape:connector-curvature="0"
       id="path2047"
       d="m 78.503,1004.6 a 31,31 0 0 1 -62,0 31,31 0 1 1 62,0 z" />
    <use
       height="100%"
       width="100%"
       y="0"
       x="0"
       style="fill:url(#radialGradient28321)"
       id="use2049"
       xlink:href="#SVGCleanerId_0" />
    <use
       height="100%"
       width="100%"
       y="0"
       x="0"
       style="fill:url(#radialGradient28323)"
       id="use2051"
       xlink:href="#SVGCleanerId_0" />
    <path
       inkscape:connector-curvature="0"
       style="opacity:0.6;fill:url(#radialGradient28325)"
       id="path2053"
       d="m 47.479,973.87 -3.43,0.39768 -4.2254,1.1682 -0.79536,0.7705 2.6346,1.8144 0,1.0439 -1.0439,1.0439 1.367,2.7092 0.91964,-0.4971 1.1433,-1.8393 c 1.767,-0.54733 3.3661,-1.1604 5.0456,-1.9387 l 1.367,-3.5046 -2.9826,-1.1682 z m -8.0282,0.42254 c -0.75557,0.21365 -1.5066,0.45105 -2.237,0.72079 l -0.02485,0.0249 c -0.01449,0.005 -0.03524,-0.005 -0.04971,0 -1.0082,0.37536 -1.9788,0.81582 -2.9329,1.2925 l 1.4913,0.27341 0.57166,-0.52196 1.1433,-0.24855 c 0.78358,-0.38181 1.5795,-0.65022 2.4109,-0.91963 l -0.37282,-0.62138 z m -6.8351,2.9577 -0.2237,0.52196 0.09942,1.2925 -0.89478,0.7705 -0.57166,1.4416 1.1433,0 0.57166,-1.2925 c 0.49327,-0.34949 0.96404,-0.7075 1.4664,-1.0439 l 1.1433,0.39768 c 0.76218,0.51881 1.5239,1.023 2.2867,1.541 l 1.1682,-1.0439 -1.2676,-0.4971 -0.57167,-1.1682 -2.1872,-0.27341 -0.09942,-0.64623 -1.0439,0.24855 -0.44739,0.91964 -0.57166,-1.1682 z m 29.304,1.0439 -2.1872,0.52196 -1.367,0.89478 0,0.7705 -2.1624,1.4416 0.44739,2.063 1.2676,-0.89478 0.79536,0.89478 0.91964,0.52195 0.57166,-1.541 -0.34797,-0.91963 0.34797,-0.64623 1.2428,-1.1682 0.57166,0 -0.57166,1.2925 0,1.1682 c 0.52553,-0.1433 1.0778,-0.18155 1.6156,-0.24855 l -1.4913,1.019 -0.12427,0.67109 -1.715,1.4167 -1.715,-0.39768 0,-1.019 -0.79536,0.4971 0.34797,0.91963 -1.2676,0 -0.67109,1.1682 -0.86992,0.96935 -1.541,0.32311 0.91964,0.91964 0.2237,0.89477 -1.1433,0 -1.4913,0.79537 0,2.3115 0.69594,0 0.62138,0.7208 1.4416,-0.7208 0.57167,-1.4167 1.0191,-0.64623 0.2237,-0.52196 1.715,-0.39768 0.91964,1.0439 1.0191,0.52196 -0.57166,1.1682 0.91964,-0.24855 0.47225,-1.1682 -1.1433,-1.3173 0.44739,0 1.1433,0.91964 0.2237,1.2925 1.0439,1.1682 0.2237,-1.6901 0.57166,-0.24855 c 0.5655,0.58817 1.015,1.2767 1.4913,1.9387 l 1.715,0.12428 1.0191,0.64623 -0.44739,0.64623 -1.0439,0.91963 -1.4664,0 -1.9635,-0.64623 -1.0191,0.12428 -0.74565,0.84507 -2.1127,-2.1375 -1.4913,-0.39768 -2.1624,0.2734 -1.9635,0.52196 c -1.091,1.2392 -2.1488,2.4661 -3.1814,3.7531 l -1.2676,2.9826 0.57167,0.6463 -1.0191,1.5658 1.1433,2.7092 c 0.97254,1.1023 1.9369,2.2027 2.908,3.3057 l 1.4167,-1.2179 0.64623,0.7208 1.541,-0.9942 0.52196,0.5966 1.541,0 0.86993,0.9942 -0.54681,1.7895 1.0936,1.2428 -0.04971,2.1375 0.79536,1.541 -0.57166,1.3173 c -0.05696,0.9544 -0.09942,1.879 -0.09942,2.8335 0.46873,1.2932 0.92442,2.5998 1.367,3.9022 l 0.32311,2.063 0,1.0439 0.82022,0 1.2428,-0.7705 1.4913,0 2.237,-2.5352 -0.29826,-0.8451 1.4913,-1.2924 -1.0936,-1.2428 1.3173,-1.0936 1.2676,-0.7705 0.57166,-0.6462 -0.34797,-1.4416 0,-3.6289 1.0439,-2.2121 1.2428,-1.4167 1.367,-3.3803 0,-0.8948 c -0.67819,0.086 -1.325,0.1508 -1.9884,0.1989 l -0.0497,0.05 -0.0497,-0.05 c -0.40158,0.027 -0.80497,0.05 -1.2179,0.05 -0.72835,-1.5334 -1.2846,-3.0686 -1.8393,-4.6728 l -0.96934,-1.0936 -0.4971,-1.889 0.32312,-0.37282 1.3173,1.4913 1.541,3.30572 0.91964,1.0191 -0.44739,1.1682 0.86992,0.9942 0.09942,0 1.367,-1.367 1.889,-1.2925 1.0439,-1.1682 0,-1.3173 c -0.22894,-0.43262 -0.46544,-0.85992 -0.69595,-1.29252 l -0.91963,1.0439 -0.69594,-0.7705 -1.0191,-0.79532 0,-1.6653 1.193,1.3422 1.3173,-0.17398 c 0.59916,0.54497 1.1895,1.0448 1.715,1.6653 l 0.84506,-0.94452 c -1.2092,-7.4079 -5.1271,-13.905 -10.688,-18.467 l -0.2237,0.34797 -1.1433,1.2925 -1.4664,-1.541 1.4664,0 0.62138,-0.69594 c -0.0513,-0.0394 -0.09757,-0.0851 -0.14913,-0.12428 l -2.5104,-0.47224 -1.4913,-0.52196 z m -31.268,0.0994 c -0.40441,0.27612 -0.77818,0.57502 -1.1682,0.86993 l -0.17398,0.44739 c 0,0 -0.31346,0.0525 -0.54681,0.0994 -6.4711,5.2034 -10.761,13.028 -11.259,21.84804 0.3107,0.5335 0.69594,1.1433 0.69594,1.1433 l 2.4109,1.4167 2.3861,0.6711 1.0439,1.2925 1.5907,1.1682 0.91964,-0.1492 0.69594,0.3232 0,0.1988 -0.91964,2.4607 -0.69594,1.0439 0.2237,0.5219 -0.57166,1.9387 2.063,3.778 2.063,1.8144 0.91964,1.2924 -0.12428,2.7341 0.69594,1.541 -0.69594,2.9826 c 0,0 -0.01638,0.022 0.02485,0.1988 0.96136,0.6817 1.9676,1.3215 3.0075,1.889 0.01628,0.01 0.03341,0.016 0.0497,0.025 0.04472,0.021 0.10693,0.055 0.14913,0.075 0.36863,0.1674 0.6391,0.266 0.69594,0.2237 0.22658,-0.1724 0.42253,-0.3231 0.42253,-0.3231 l -0.22369,-0.6462 0.91964,-0.9197 0.34797,-0.8947 1.4664,-0.522 1.1433,-2.8583 -0.32312,-0.7705 0.79536,-1.1682 1.715,-0.3977 0.91964,-2.0878 -0.2237,-2.5849 1.367,-1.9387 0.2237,-1.9387 c -1.8777,-0.9329 -3.7535,-1.8978 -5.6172,-2.8583 l -0.89478,-1.8145 -1.715,-0.3976 -0.91964,-2.4607 -2.2867,0.2486 -1.9387,-1.4168 -2.063,1.8145 0,0.2734 c -0.62308,-0.1802 -1.3839,-0.2051 -1.9387,-0.5469 l -0.47224,-1.2924 0,-1.4167 -1.367,0.1242 c 0.11455,-0.9083 0.23264,-1.801 0.34797,-2.7092 l -0.82022,0 -0.79536,1.0191 -0.79536,0.3977 -1.1433,-0.6463 -0.12428,-1.4416 0.24855,-1.54104 1.715,-1.2925 1.367,0 0.2237,-0.79536 1.715,0.39768 1.2676,1.5659 0.2237,-2.6098 2.1624,-1.8144 0.82022,-1.9387 1.5907,-0.64624 0.91964,-1.2925 2.063,-0.39767 1.0191,-1.5659 -3.082,0 1.9387,-0.89478 1.367,0 1.9387,-0.64623 0.24855,-0.79536 -0.69594,-0.64623 -0.79536,-0.24855 0.2237,-0.77051 -0.57167,-1.1682 -1.367,0.4971 0.22369,-1.0191 -1.5907,-0.91963 -1.2676,2.2121 0.12428,0.77051 -1.2676,0.52195 -0.79536,1.6901 -0.34797,-1.5659 -2.1624,-0.89478 -0.34797,-1.1682 2.8583,-1.6901 1.2428,-1.1682 0.12428,-1.4167 -0.69594,-0.39768 -0.12428,-0.0248 z m 19.909,1.5907 -0.89478,0.4971 -0.47225,-0.12427 -0.09942,0.79536 0.79536,0.4971 1.367,-0.89478 -0.69594,-0.77051 z m -15.087,0.24855 -0.91964,0.64623 1.1433,0.77051 0.91964,0 0,-0.89478 -1.1433,-0.52196 z m 18.07,2.9826 0,0.7705 0.47225,0.52196 0,1.1682 -0.24855,1.5659 1.2676,-0.27341 0.91964,-0.89478 -0.79536,-0.7705 c -0.2689,-0.71744 -0.58308,-1.3997 -0.91964,-2.0878 l -0.69594,0 z m -0.44739,1.5659 -0.82022,0.24855 0.24855,1.4167 1.0191,-0.49711 -0.44739,-1.1682 z m -15.783,2.3364 0.32312,1.8144 0.69594,-1.0439 -1.0191,-0.77051 z" />
    <path
       style="opacity:0.1"
       inkscape:connector-curvature="0"
       id="path2055"
       d="m 47.41,973.32 -3.4375,0.375 a 0.56475,0.56475 0 0 0 -0.09375,0.0313 l -3.5312,1 a 0.56475,0.56475 0 0 0 -0.0625,-0.0937 l -0.375,-0.625 a 0.56475,0.56475 0 0 0 -0.625,-0.25 c -0.76806,0.21718 -1.5046,0.44346 -2.25,0.71875 a 0.56475,0.56475 0 0 0 -0.03125,0.0313 0.56475,0.56475 0 0 0 -0.03125,0 c -0.02275,0.007 -0.0032,-0.0105 -0.03125,0 a 0.56475,0.56475 0 0 0 -0.03125,0.0313 c -1.0147,0.37947 -2.0105,0.80252 -2.9688,1.2812 a 0.56475,0.56475 0 0 0 0.03125,1.0312 l -0.46875,0.0937 a 0.56475,0.56475 0 0 0 -0.3125,0.21875 l -0.0625,-0.15625 a 0.56475,0.56475 0 0 0 -1,0 l -0.25,0.53125 a 0.56475,0.56475 0 0 0 -0.0625,0.3125 l 0.0625,0.5625 a 0.56475,0.56475 0 0 0 -0.125,-0.0937 l -0.6875,-0.40625 A 0.56475,0.56475 0 0 0 30.91,977.85135 l -0.125,-0.0313 a 0.56475,0.56475 0 0 0 -0.4375,0.0937 c -0.42307,0.28886 -0.83204,0.61383 -1.2188,0.90625 a 0.56475,0.56475 0 0 0 -0.1875,0.25 l -0.0625,0.15625 c -0.10478,0.0169 -0.13991,0.009 -0.25,0.0313 a 0.56475,0.56475 0 0 0 -0.21875,0.125 c -6.5916,5.3003 -10.962,13.267 -11.469,22.25005 a 0.56475,0.56475 0 0 0 0.0625,0.3125 c 0.31928,0.5481 0.71875,1.1562 0.71875,1.1562 a 0.56475,0.56475 0 0 0 0.1875,0.1875 l 2.4062,1.4375 a 0.56475,0.56475 0 0 0 0.125,0.031 l 2.25,0.625 0.90625,1.1563 a 0.56475,0.56475 0 0 0 0.09375,0.125 l 1.5938,1.1562 a 0.56475,0.56475 0 0 0 0.4375,0.094 l 0.78125,-0.125 0.09375,0.063 -0.75,2.0313 -0.0625,0.125 -0.625,0.9062 a 0.56475,0.56475 0 0 0 -0.0625,0.5313 l 0.15625,0.375 -0.5,1.7187 a 0.56475,0.56475 0 0 0 0.03125,0.4375 l 2.0625,3.7813 a 0.56475,0.56475 0 0 0 0.125,0.1562 l 2.0625,1.8125 0.71875,1 -0.125,2.5625 a 0.56475,0.56475 0 0 0 0.0625,0.2813 l 0.625,1.3124 -0.6875,2.8125 c 0,0 0.0015,0.09 0,0.125 -0.0015,0.035 -0.0029,0.058 0,0.094 0.0058,0.071 0.0061,0.1421 0.03125,0.25 a 0.56475,0.56475 0 0 0 0.25,0.3437 c 0.97887,0.694 1.9717,1.3279 3.0312,1.9063 0.06193,0.034 0.09195,0.047 0.0625,0.031 a 0.56475,0.56475 0 0 0 0.03125,0 c 0.10838,0.051 0.20651,0.071 0.1875,0.063 0.18198,0.083 0.32246,0.1609 0.46875,0.2186 0.07315,0.029 0.15638,0.073 0.25,0.094 0.09361,0.021 0.24357,0.089 0.53125,-0.125 0.23557,-0.1793 0.4375,-0.3436 0.4375,-0.3436 a 0.56475,0.56475 0 0 0 0.1875,-0.6564 l -0.09375,-0.2811 0.65625,-0.6564 a 0.56475,0.56475 0 0 0 0.125,-0.2186 l 0.25,-0.6564 1.2188,-0.4061 a 0.56475,0.56475 0 0 0 0.34375,-0.3125 l 1.1562,-2.875 a 0.56475,0.56475 0 0 0 -0.03125,-0.4688 l -0.1875,-0.4375 0.46875,-0.7187 1.5312,-0.3438 a 0.56475,0.56475 0 0 0 0.40625,-0.3437 l 0.90625,-2.0938 a 0.56475,0.56475 0 0 0 0.03125,-0.2812 l -0.1875,-2.375 1.25,-1.7813 a 0.56475,0.56475 0 0 0 0.09375,-0.25 l 0.21875,-1.9375 a 0.56475,0.56475 0 0 0 -0.3125,-0.5625 c -1.8173,-0.9029 -3.6563,-1.8466 -5.4688,-2.7812 l -0.8125,-1.6563 a 0.56475,0.56475 0 0 0 -0.375,-0.3125 l -1.4375,-0.3125 -0.78125,-2.1562 a 0.56475,0.56475 0 0 0 -0.59375,-0.375 l -2.0312,0.2187 -1.7812,-1.2812 a 0.56475,0.56475 0 0 0 -0.71875,0.031 l -2.0625,1.8125 c -0.42623,-0.086 -0.86621,-0.1613 -1.125,-0.2813 l -0.34375,-0.9687 0,-1.3125 a 0.56475,0.56475 0 0 0 -0.625,-0.5625 l -0.65625,0.063 c 0.08538,-0.6767 0.1639,-1.3533 0.25,-2.0313 a 0.56475,0.56475 0 0 0 -0.5625,-0.625 l -0.8125,0 a 0.56475,0.56475 0 0 0 -0.4375,0.2188 l -0.71875,0.9375 -0.40625,0.1875 -0.65625,-0.3438 -0.09375,-1 0,-0.063 0.21875,-1.28125 1.375,-1.0313 1.1875,0 a 0.56475,0.56475 0 0 0 0.53125,-0.40625 l 0.0625,-0.25 1.0625,0.25 1.0938,1.375 a 0.56475,0.56475 0 0 0 1,-0.2813 l 0.21875,-2.375 2,-1.6875 a 0.56475,0.56475 0 0 0 0.15625,-0.21875 l 0.71875,-1.7188 1.375,-0.5625 a 0.56475,0.56475 0 0 0 0.25,-0.21875 l 0.75,-1.0625 1.8438,-0.375 a 0.56475,0.56475 0 0 0 0.375,-0.25 l 1.0312,-1.5625 a 0.56475,0.56475 0 0 0 -0.03125,-0.65625 0.56475,0.56475 0 0 0 0,-0.0313 l 0.875,-0.28125 0.28125,1.5625 a 0.56475,0.56475 0 0 0 1.0312,0.21875 l 0.71875,-1.0625 a 0.56475,0.56475 0 0 0 -0.125,-0.78125 l -0.625,-0.46875 a 0.56475,0.56475 0 0 0 0.09375,-0.1875 l 0.25,-0.8125 a 0.56475,0.56475 0 0 0 -0.15625,-0.5625 l -0.6875,-0.625 a 0.56475,0.56475 0 0 0 -0.21875,-0.125 l -0.25,-0.0937 0.0625,-0.21875 a 0.56475,0.56475 0 0 0 -0.03125,-0.4375 l -0.59375,-1.1562 a 0.56475,0.56475 0 0 0 -0.6875,-0.28125 l -0.375,0.125 a 0.56475,0.56475 0 0 0 -0.0625,-0.40625 0.56475,0.56475 0 0 0 0.28125,0.0625 l 0.9375,0 a 0.56475,0.56475 0 0 0 0.5625,-0.5625 l 0,-0.40625 c 0.04301,0.0291 0.08198,0.0645 0.125,0.0937 a 0.56475,0.56475 0 0 0 0.6875,-0.0313 l 1.1875,-1.0312 a 0.56475,0.56475 0 0 0 -0.15625,-0.96875 l -1.0938,-0.4375 -0.46875,-0.96875 a 0.56475,0.56475 0 0 0 -0.4375,-0.3125 l -1.75,-0.1875 -0.03125,-0.25 a 0.56475,0.56475 0 0 0 -0.03125,-0.0625 l 0.375,0.0625 a 0.56475,0.56475 0 0 0 0.46875,-0.15625 l 0.4375,-0.40625 1.0312,-0.21875 a 0.56475,0.56475 0 0 0 0.125,-0.0625 c 0.26543,-0.12933 0.56981,-0.20593 0.84375,-0.3125 a 0.56475,0.56475 0 0 0 0.21875,0.65625 l 2.375,1.625 0,0.53125 -0.875,0.875 a 0.56475,0.56475 0 0 0 -0.09375,0.65625 l 1.3438,2.7188 a 0.56475,0.56475 0 0 0 0.78125,0.25 l 0.9375,-0.5 a 0.56475,0.56475 0 0 0 0.1875,-0.21875 l 1.0312,-1.6875 c 1.699,-0.53568 3.3084,-1.1201 4.9375,-1.875 a 0.56475,0.56475 0 0 0 0.28125,-0.28125 l 1.375,-3.5 a 0.56475,0.56475 0 0 0 -0.34375,-0.75 l -3,-1.1562 a 0.56475,0.56475 0 0 0 -0.25,-0.0313 z m 0.0625,0.5625 3,1.1562 -1.375,3.5 c -1.6795,0.77829 -3.2955,1.3902 -5.0625,1.9375 l -1.125,1.8438 -0.9375,0.5 -1.3438,-2.7188 1.0312,-1.0312 0,-1.0625 -2.625,-1.8125 0.78125,-0.75 4.2188,-1.1875 3.4375,-0.375 z m -8.0312,0.40625 0.375,0.625 c -0.83141,0.26941 -1.6227,0.52444 -2.4062,0.90625 l -1.1562,0.25 -0.5625,0.53125 -1.5,-0.28125 c 0.95408,-0.47664 1.9293,-0.90589 2.9375,-1.2812 0.01447,-0.005 0.04801,0.005 0.0625,0 l 0.03125,-0.0313 c 0.73033,-0.26974 1.4632,-0.5051 2.2188,-0.71875 z m -6.8125,2.9688 0.5625,1.1562 0.4375,-0.90625 1.0625,-0.25 0.09375,0.65625 2.1875,0.25 0.5625,1.1875 1.2812,0.5 -1.1875,1.0312 c -0.7628,-0.51802 -1.5191,-1.0124 -2.2812,-1.5312 l -1.1562,-0.40625 c -0.5024,0.33641 -0.94423,0.68176 -1.4375,1.0312 l -0.59375,1.3125 -1.125,0 0.5625,-1.4375 0.90625,-0.78125 -0.125,-1.2812 0.25,-0.53125 z m 29.156,0.46875 -2.1875,0.53125 a 0.56475,0.56475 0 0 0 -0.1875,0.0937 l -1.3438,0.90625 a 0.56475,0.56475 0 0 0 -0.25,0.46875 l 0,0.4375 -1.9375,1.2812 a 0.56475,0.56475 0 0 0 -0.25,0.59375 l 0.46875,2.0625 a 0.56475,0.56475 0 0 0 0.5625,0.4375 0.56475,0.56475 0 0 0 0.03125,0.28125 l 0.0625,0.15625 -0.4375,0 a 0.56475,0.56475 0 0 0 -0.4375,0.21875 l -0.25,-0.21875 c -0.26043,-0.67933 -0.55607,-1.3479 -0.875,-2 a 0.56475,0.56475 0 0 0 -0.5,-0.3125 l -0.71875,0 a 0.56475,0.56475 0 0 0 -0.5625,0.5625 l 0,0.75 a 0.56475,0.56475 0 0 0 0.03125,0.25 0.56475,0.56475 0 0 0 -0.0625,0.0313 l -0.8125,0.25 a 0.56475,0.56475 0 0 0 -0.40625,0.625 l 0.25,1.4062 a 0.56475,0.56475 0 0 0 0.8125,0.40625 l 0.46875,-0.25 -0.0625,0.46875 a 0.56475,0.56475 0 0 0 0.03125,0.25 l -0.125,0.0313 a 0.56475,0.56475 0 0 0 -0.28125,0.96875 l 0.8125,0.84375 -0.40625,0 A 0.56475,0.56475 0 0 0 52.941,989.32 l -1.5,0.8125 a 0.56475,0.56475 0 0 0 -0.28125,0.5 l 0,2.3125 a 0.56475,0.56475 0 0 0 0.5625,0.5625 l 0.40625,0 0.4375,0.5 c -1.0567,1.2013 -2.0848,2.3988 -3.0938,3.6562 a 0.56475,0.56475 0 0 0 -0.09375,0.125 l -1.25,2.9688 a 0.56475,0.56475 0 0 0 0.09375,0.5937 l 0.28125,0.3438 -0.78125,1.1875 a 0.56475,0.56475 0 0 0 -0.0625,0.5312 l 1.1562,2.7188 a 0.56475,0.56475 0 0 0 0.09375,0.1562 c 0.97072,1.1002 1.9336,2.2077 2.9062,3.3125 a 0.56475,0.56475 0 0 0 0.8125,0.063 l 1,-0.875 0.28125,0.3125 a 0.56475,0.56475 0 0 0 0.71875,0.094 l 1.125,-0.75 0.21875,0.25 a 0.56475,0.56475 0 0 0 0.40625,0.1875 l 1.25,0 0.53125,0.5938 -0.4375,1.4687 a 0.56475,0.56475 0 0 0 0.09375,0.5313 l 0.96875,1.0937 -0.0625,1.875 a 0.56475,0.56475 0 0 0 0.0625,0.2813 l 0.65625,1.3125 -0.46875,1.0937 a 0.56475,0.56475 0 0 0 -0.03125,0.1875 c -0.05736,0.9611 -0.09375,1.8747 -0.09375,2.8438 a 0.56475,0.56475 0 0 0 0.03125,0.1875 c 0.45657,1.2596 0.9122,2.545 1.3438,3.8125 0.01055,0.031 0.02073,0.063 0.03125,0.094 l 0.28125,1.875 0,0.094 0,0.9687 a 0.56475,0.56475 0 0 0 0.5625,0.5625 l 0.8125,0 a 0.56475,0.56475 0 0 0 0.3125,-0.094 l 1.0938,-0.6875 1.3438,0 a 0.56475,0.56475 0 0 0 0.4375,-0.1875 l 2.2188,-2.5312 a 0.56475,0.56475 0 0 0 0.09375,-0.5625 l -0.15625,-0.4688 1.2188,-1.0312 a 0.56475,0.56475 0 0 0 0.0625,-0.8125 l -0.71875,-0.8125 0.8125,-0.6875 0.0625,-0.031 1.1875,-0.75 a 0.56475,0.56475 0 0 0 0.0937,-0.094 l 0.59375,-0.6563 a 0.56475,0.56475 0 0 0 0.125,-0.5312 l -0.34375,-1.2813 0,-0.031 0,-3.4687 0.9375,-1.9688 1.25,-1.4062 a 0.56475,0.56475 0 0 0 0.0937,-0.1563 l 1.3438,-3.375 a 0.56475,0.56475 0 0 0 0.03135,-0.2187 l 0,-0.9063 a 0.56475,0.56475 0 0 0 -0.625,-0.5625 c -0.13145,0.017 -0.24775,0.015 -0.375,0.031 l 0.21875,-0.2187 1.8125,-1.2188 a 0.56475,0.56475 0 0 0 0.125,-0.094 l 1.0312,-1.1875 a 0.56475,0.56475 0 0 0 0.125,-0.375 l 0,-1.3125 a 0.56475,0.56475 0 0 0 -0.0312,-0.2187 0.56475,0.56475 0 0 0 0.78125,-0.063 l 0.84375,-0.9375 a 0.56475,0.56475 0 0 0 0.1562,-0.4688 c -1.232,-7.5475 -5.2429,-14.166 -10.906,-18.812 a 0.56475,0.56475 0 0 0 -0.53125,-0.0937 0.56475,0.56475 0 0 0 -0.21875,-0.5 c -0.03172,-0.0244 -0.08296,-0.0694 -0.15625,-0.125 a 0.56475,0.56475 0 0 0 -0.25,-0.125 l -2.4062,-0.4375 -0.09375,-0.0313 -1.4062,-0.5 a 0.56475,0.56475 0 0 0 -0.3125,-0.0313 z m 0.125,0.5625 1.5,0.53125 2.5,0.46875 c 0.05153,0.0391 0.10495,0.0856 0.15625,0.125 l -0.625,0.6875 -1.4688,0 1.4688,1.5625 1.1562,-1.3125 0.21875,-0.34375 c 5.5606,4.562 9.4783,11.061 10.688,18.469 l -0.84375,0.93755 c -0.52554,-0.6205 -1.1196,-1.1113 -1.7188,-1.6563 l -1.3125,0.1875 -1.1875,-1.3438 0,1.6562 1,0.7813 0.71876,0.7812 0.90625,-1.0312 c 0.2305,0.4325 0.45855,0.8486 0.6875,1.2812 l 0,1.3125 -1.0312,1.1875 -1.9063,1.2813 -1.3438,1.375 c 0.66343,-0.048 1.2906,-0.1332 1.9688,-0.2188 l 0,0.9063 -1.3438,3.375 -1.25,1.4062 -1.0625,2.2188 0,3.625 0.375,1.4375 -0.59375,0.6562 -1.25,0.7813 -1.3125,1.0937 1.0938,1.25 -1.5,1.2813 0.28125,0.8437 -2.2188,2.5313 -1.5,0 -1.25,0.7812 -0.8125,0 0,-1.0625 -0.3125,-2.0625 c -0.44261,-1.3024 -0.90627,-2.6131 -1.375,-3.9062 0,-0.9546 0.03679,-1.8582 0.09375,-2.8125 l 0.5625,-1.3125 -0.78125,-1.5625 0.0625,-2.125 -1.0938,-1.25 0.53125,-1.7813 -0.875,-1 -1.5312,0 -0.53125,-0.5937 -1.5312,1 -0.65625,-0.7188 -1.4062,1.2188 c -0.97113,-1.1031 -1.9337,-2.2103 -2.9062,-3.3125 l -1.1562,-2.7188 1.0312,-1.5625 -0.5625,-0.6562 1.25,-2.9688 c 1.0327,-1.287 2.0965,-2.5108 3.1875,-3.75 l 1.9688,-0.53125 2.1562,-0.28125 1.5,0.40625 2.0938,2.1562 0.75,-0.875 1.0312,-0.0937 1.9688,0.625 1.4688,0 1.0312,-0.90625 0.4375,-0.65625 -1,-0.65625 -1.7188,-0.125 c -0.47628,-0.66195 -0.9345,-1.3493 -1.5,-1.9375 l -0.5625,0.25 -0.21875,1.6875 -1.0625,-1.1562 -0.21875,-1.2812 -1.1562,-0.9375 -0.4375,0 1.1562,1.3125 -0.46875,1.1875 -0.9375,0.25 0.5625,-1.1875 -1,-0.5 -0.9375,-1.0625 -1.6875,0.40625 -0.25,0.53125 -1,0.625 -0.59375,1.4375 -1.4375,0.71875 -0.625,-0.71875 -0.6875,0 0,-2.3125 1.5,-0.8125 1.1562,0 -0.25,-0.875 -0.90625,-0.9375 1.5312,-0.3125 0.875,-0.96875 0.6875,-1.1875 1.25,0 -0.34375,-0.90625 0.78125,-0.5 0,1.0312 1.7188,0.375 1.7188,-1.4062 0.125,-0.65625 1.5,-1.0312 c -0.53781,0.067 -1.0995,0.1067 -1.625,0.25 l 0,-1.1562 0.5625,-1.3125 -0.5625,0 -1.25,1.1875 -0.34375,0.625 0.34375,0.9375 -0.5625,1.5312 -0.90625,-0.53125 -0.8125,-0.875 -1.25,0.875 -0.46875,-2.0625 2.1875,-1.4375 0,-0.75 1.3438,-0.90625 2.1875,-0.53125 z m 9.5625,26.938 -0.0937,0 0.0312,0.031 0.0625,-0.031 z m -0.0937,0 -0.875,-1 0.4375,-1.1875 -0.90625,-1 -1.5625,-3.3126 -1.3125,-1.5 -0.3125,0.375 0.5,1.9062 0.96875,1.0938 c 0.55464,1.6041 1.1154,3.1228 1.8438,4.6562 0.41292,0 0.81717,0 1.2188,-0.031 z m -40.719,-26.844 0.125,0.0313 0.6875,0.40625 -0.125,1.4062 -1.25,1.1875 -2.8438,1.6875 0.34375,1.1562 2.1562,0.90625 0.34375,1.5625 0.8125,-1.6875 1.25,-0.53125 -0.125,-0.78125 1.2812,-2.1875 1.5938,0.90625 -0.21875,1.0312 1.3438,-0.5 0.59375,1.1562 -0.25,0.78125 0.8125,0.25 0.6875,0.625 -0.25,0.8125 -1.9375,0.65625 -1.375,0 -1.9375,0.875 3.0938,0 -1.0312,1.5625 -2.0625,0.40625 -0.90625,1.2812 -1.5938,0.65625 -0.8125,1.9375 -2.1562,1.8125 -0.25,2.625 -1.25,-1.5625 -1.7188,-0.40625 -0.21875,0.78125 -1.375,0 -1.7188,1.3125 -0.25,1.53135 0.125,1.4375 1.1562,0.6562 0.78125,-0.4062 0.8125,-1.0313 0.8125,0 c -0.11533,0.9081 -0.2292,1.8103 -0.34375,2.7188 l 1.375,-0.125 0,1.4062 0.46875,1.3125 c 0.5548,0.3418 1.3144,0.351 1.9375,0.5313 l 0,-0.25 2.0625,-1.8125 1.9375,1.4062 2.2812,-0.25 0.90625,2.4688 1.7188,0.375 0.90625,1.8125 c 1.8637,0.9605 3.7473,1.942 5.625,2.875 l -0.21875,1.9375 -1.375,1.9375 0.21875,2.5937 -0.90625,2.0938 -1.7188,0.375 -0.8125,1.1875 0.34375,0.75 -1.1562,2.875 -1.4688,0.5 -0.34375,0.9061 -0.9375,0.9375 0.25,0.625 c 0,0 -0.21092,0.1713 -0.4375,0.3439 -0.05684,0.042 -0.31887,-0.083 -0.6875,-0.25 -0.0422,-0.019 -0.11153,-0.041 -0.15625,-0.063 -0.01629,-0.01 -0.04622,-0.022 -0.0625,-0.031 -1.0398,-0.5676 -2.0386,-1.1934 -3,-1.875 -0.04123,-0.1768 -0.03125,-0.2188 -0.03125,-0.2188 l 0.71875,-2.9687 -0.71875,-1.5313 0.125,-2.75 -0.90625,-1.2812 -2.0625,-1.8125 -2.0625,-3.7813 0.5625,-1.9375 -0.21875,-0.5312 0.6875,-1.0313 0.9375,-2.4687 0,-0.1875 -0.6875,-0.3438 -0.9375,0.1563 -1.5938,-1.1563 -1.0312,-1.3125 -2.4062,-0.6562 -2.4062,-1.4375 c 0,0 -0.3768,-0.5915 -0.6875,-1.125 0.49794,-8.81945 4.7789,-16.63995 11.25,-21.84395 0.23336,-0.0469 0.5625,-0.0937 0.5625,-0.0937 l 0.15625,-0.46875 c 0.39,-0.29491 0.78309,-0.59888 1.1875,-0.875 z m 19.781,1.0312 a 0.56475,0.56475 0 0 0 -0.15625,0.0625 l -0.71875,0.40625 -0.21875,-0.0625 A 0.56475,0.56475 0 0 0 48.6281,980.289 l -0.09375,0.8125 a 0.56475,0.56475 0 0 0 0.25,0.53125 l 0.78125,0.5 a 0.56475,0.56475 0 0 0 0.625,0 l 1.375,-0.90625 a 0.56475,0.56475 0 0 0 0.125,-0.84375 l -0.6875,-0.78125 a 0.56475,0.56475 0 0 0 -0.5625,-0.1875 z m -16.156,0.15625 0.75,0.25 -0.8125,0.59375 a 0.56475,0.56475 0 0 0 0.03125,0.9375 l 0.46875,0.34375 -1.125,-0.65625 a 0.56475,0.56475 0 0 0 -0.78125,0.21875 l -0.15625,0.25 0.53125,-1.1562 c 0.37632,-0.2704 0.73632,-0.53202 1.0938,-0.78125 z m 16.281,0.40625 0.6875,0.78125 -1.375,0.90625 -0.78125,-0.5 0.09375,-0.8125 0.46875,0.125 0.90625,-0.5 z m -15.094,0.25 1.1562,0.53125 0,0.90625 -0.9375,0 -1.125,-0.78125 0.90625,-0.65625 z m 29.781,0.4375 0.1875,0 a 0.56475,0.56475 0 0 0 0.125,0 l -0.15625,0.15625 -0.15625,-0.15625 z m -34.625,1 a 0.56475,0.56475 0 0 0 0.40625,0.1875 l 1.125,0 a 0.56475,0.56475 0 0 0 0.375,-0.125 l -1,1.7188 a 0.56475,0.56475 0 0 0 -0.0625,0.375 l 0.0625,0.34375 -0.84375,0.34375 a 0.56475,0.56475 0 0 0 -0.28125,0.28125 l -0.09375,0.21875 a 0.56475,0.56475 0 0 0 -0.34375,-0.375 l -1.9375,-0.8125 -0.125,-0.4375 2.4688,-1.4688 a 0.56475,0.56475 0 0 0 0.09375,-0.0937 l 0.15625,-0.15625 z m 30.094,1.5 0.375,0 a 0.56475,0.56475 0 0 0 -0.09375,0.21875 l -0.09375,0.46875 -0.625,0.5 0.4375,-1.1875 z m -7.1875,0.0625 0.71875,0 c 0.33656,0.68811 0.63735,1.3763 0.90625,2.0938 l 0.78125,0.75 -0.90625,0.90625 -1.2812,0.28125 0.25,-1.5938 0,-1.1562 -0.46875,-0.53125 0,-0.75 z m 5.0312,1.3125 0.40625,0.25 -0.40625,-0.0937 0,-0.15625 z m -5.4688,0.25 0.4375,1.1562 -1,0.5 -0.25,-1.4062 0.8125,-0.25 z m -15.781,2.3438 1.0312,0.75 -0.71875,1.0625 -0.3125,-1.8125 z m 20.5,3.4688 0.6875,0.78125 a 0.56475,0.56475 0 0 0 0.1875,0.125 l 0.5,0.25 -0.3125,0.6875 a 0.56475,0.56475 0 0 0 0.65625,0.78125 l 0.9375,-0.25 a 0.56475,0.56475 0 0 0 0.375,-0.3125 l 0.09375,-0.25 a 0.56475,0.56475 0 0 0 0.09375,0.125 l 1.0625,1.1562 a 0.56475,0.56475 0 0 0 0.96875,-0.3125 l 0.15625,-1.1562 c 0.37503,0.45224 0.72354,0.92297 1.0938,1.4375 a 0.56475,0.56475 0 0 0 0.4375,0.21875 l 1.5625,0.125 0.40625,0.25 -0.03125,0.0625 -0.03125,0.0313 -0.84375,0.75 -1.1875,0 -0.0625,0 -1.8125,-0.59375 a 0.56475,0.56475 0 0 0 -0.21875,-0.0313 l -1.0312,0.0937 a 0.56475,0.56475 0 0 0 -0.375,0.1875 l -0.34375,0.40625 -1.6562,-1.7188 a 0.56475,0.56475 0 0 0 -0.25,-0.125 l -1.5,-0.40625 a 0.56475,0.56475 0 0 0 -0.21875,-0.0313 l -2.1562,0.28125 0.53125,-1.2812 0.84375,-0.53125 a 0.56475,0.56475 0 0 0 0.1875,-0.21875 l 0.125,-0.28125 1.125,-0.25 z m 16.875,7.7812 a 0.56475,0.56475 0 0 0 -0.0625,0.0313 l -0.5,0.5625 -0.28126,-0.3125 a 0.56475,0.56475 0 0 0 -0.0625,-0.0625 l -0.125,-0.0937 a 0.56475,0.56475 0 0 0 0.0625,0 l 0.96876,-0.125 z m -6.9688,0.34375 0.3125,0.37505 0.3125,0.6562 -0.5,-0.5625 -0.125,-0.46875 z m 1.9062,3.68755 0.65625,0.75 -0.15625,0.4687 c -0.16873,-0.4026 -0.34437,-0.8105 -0.5,-1.2187 z" />
    <path
       inkscape:connector-curvature="0"
       style="color:#000000;fill:url(#radialGradient28327);fill-rule:evenodd"
       id="path2057"
       d="m 47.503,973.86 c -3.7043,0 -7.2397,0.69708 -10.511,1.9375 9.0048,0.15798 14.087,1.0932 18.697,3.6167 0.38419,0.21029 0.76684,0.42918 1.1464,0.66198 1.1386,0.6984 2.2709,1.504 3.4391,2.4219 5.0348,3.956 5.4755,8.7701 9.7521,12.448 2.6036,2.2394 2.2512,2.0505 3.4552,2.0505 1.3177,0 1.9885,-1.191 2.3089,-2.4865 -3.8342,-11.972 -15.048,-20.651 -28.288,-20.651 z m -11.916,5.4573 c -0.6296,0 -1.257,0.0679 -1.8729,0.19375 -0.20529,0.042 -0.41022,0.0908 -0.61354,0.14532 -5.6929,1.5251 -10.564,7.8054 -12.158,10.689 -0.10136,0.18339 -0.21624,0.39895 -0.32292,0.5974 -0.84614,1.7966 -1.5275,3.6797 -2.0021,5.651 0.45582,-0.5832 0.89943,-1.1306 1.3401,-1.6469 3.0847,-3.614 5.9077,-5.5703 9.962,-5.5703 7.2342,0 8.1533,3.223 21.409,11.86703 6.5241,4.2543 16.424,10.121 24.59,10.995 0.33498,-1.0983 0.60033,-2.2263 0.8073,-3.3745 -3.0551,-0.2205 -5.8073,-1.3851 -8.7833,-3.3583 -0.42516,-0.2819 -0.85594,-0.5732 -1.2917,-0.888 -3.4858,-2.5182 -7.3599,-6.07863 -12.4,-10.49503 -3.8376,-3.3626 -13.489,-14.806 -18.665,-14.806 z m -10.365,33.88 c -2.2938,0 -4.0053,1.1626 -4.1979,3.7781 3.2156,6.3129 8.6161,11.322 15.209,14.031 -0.0874,-0.1223 -0.17036,-0.2511 -0.25833,-0.3875 -0.6158,-0.9548 -1.2109,-2.2462 -1.2109,-3.7297 0,-1.7259 1.1161,-2.4057 2.3734,-2.4057 1.6745,0 7.2017,2.6318 16.453,2.6318 4.6271,0 10.4,-0.6778 14.628,-2.3089 1.67,-1.626 3.1394,-3.4464 4.3917,-5.425 -2.7026,1.0957 -7.7002,2.6802 -14.208,2.6802 -12.573,0 -24.038,-5.3665 -27.351,-7.088 -0.87868,-0.4566 -3.131,-1.776 -5.8286,-1.776 z" />
    <path
       style="color:#000000;opacity:0.6;fill:#ffffff;fill-rule:evenodd"
       inkscape:connector-curvature="0"
       id="path2059"
       d="m 47.504,973.85 c -3.7043,0 -7.25,0.701 -10.521,1.9414 1.0055,0.0176 1.9683,0.0558 2.8808,0.0939 2.4367,-0.65404 4.9971,-1.0333 7.6404,-1.0333 13.055,0 24.137,8.4516 28.119,20.166 0.0554,-0.16544 0.11412,-0.32936 0.15656,-0.501 -3.8342,-11.972 -15.036,-20.667 -28.276,-20.667 z m -11.931,5.48 c -0.6296,0 -1.2316,0.062 -1.8475,0.18788 -0.20529,0.042 -0.42294,0.0708 -0.62626,0.12525 -5.6929,1.5251 -10.556,7.826 -12.149,10.709 -0.10136,0.1834 -0.23777,0.39651 -0.34444,0.59495 -0.84614,1.7966 -1.4981,3.665 -1.9727,5.6364 0.12569,-0.16081 0.25173,-0.28292 0.37576,-0.43838 0.0028,-0.01 -0.0028,-0.0219 0,-0.0313 0.43012,-1.4354 0.96652,-2.826 1.597,-4.1646 0.10667,-0.19844 0.24308,-0.41155 0.34444,-0.59495 1.5935,-2.8831 6.4565,-9.184 12.149,-10.709 0.20332,-0.0545 0.42097,-0.0833 0.62626,-0.12525 0.61588,-0.1259 1.2179,-0.18788 1.8475,-0.18788 5.1751,0 14.856,11.417 18.694,14.78 5.0401,4.4163 8.9142,8.00298 12.4,10.52098 0.43573,0.3148 0.85868,0.5949 1.2838,0.8768 2.9137,1.9318 5.6009,3.0646 8.5798,3.3192 0.0678,-0.3198 0.12962,-0.6476 0.18788,-0.9707 -3.0551,-0.2206 -5.7916,-1.3773 -8.7677,-3.3505 -0.42515,-0.2819 -0.84811,-0.562 -1.2838,-0.8768 -3.4858,-2.5182 -7.3599,-6.10498 -12.4,-10.52098 -3.837,-3.36 -13.518,-14.78 -18.694,-14.78 z m -10.365,33.912 c -2.2938,0 -4.0034,1.1734 -4.196,3.7889 0.04272,0.084 0.08177,0.1671 0.12525,0.2505 0.4383,-2.0951 2.0063,-3.0374 4.0707,-3.0374 2.6977,0 4.9769,1.3282 5.8555,1.7849 3.3126,1.7215 14.764,7.0767 27.336,7.0767 5.8745,0 10.503,-1.2913 13.339,-2.3485 0.30766,-0.4339 0.59145,-0.8956 0.87677,-1.3464 -2.7026,1.0956 -7.7081,2.6929 -14.216,2.6929 -12.573,0 -24.024,-5.3552 -27.336,-7.0768 -0.87869,-0.4566 -3.1579,-1.7848 -5.8555,-1.7848 z m 9.5818,14.31 c -0.01337,0.1231 -0.03131,0.2398 -0.03131,0.3757 0,1.0471 0.29792,1.982 0.68889,2.7869 0.26064,0.116 0.51828,0.2357 0.78283,0.3444 -0.0874,-0.1222 -0.16253,-0.2706 -0.2505,-0.407 -0.52936,-0.8208 -1.056,-1.8736 -1.1899,-3.1 z" />
    <path
       style="color:#000000;opacity:0.3;fill-rule:evenodd"
       inkscape:connector-curvature="0"
       id="path2061"
       d="m 39.863,975.89 c -0.97804,0.26252 -1.9439,0.55281 -2.8808,0.90808 9.0048,0.15799 14.084,1.1088 18.694,3.6323 0.38419,0.2103 0.77907,0.42478 1.1586,0.65758 1.1386,0.6984 2.2763,1.4933 3.4444,2.4111 5.0348,3.956 5.4618,8.7843 9.7384,12.463 2.6036,2.2394 2.2718,2.0354 3.4758,2.0354 1.3177,0 1.9655,-1.1783 2.2859,-2.4737 -0.0533,-0.16652 -0.10039,-0.33577 -0.15656,-0.50101 -0.36299,1.0832 -0.98619,1.9727 -2.1293,1.9727 -1.204,0 -0.87214,0.20405 -3.4758,-2.0354 -4.2766,-3.6783 -4.7035,-8.5066 -9.7384,-12.463 -1.1681,-0.91782 -2.3059,-1.7127 -3.4444,-2.4111 -0.37952,-0.2328 -0.7744,-0.44728 -1.1586,-0.65758 -4.0955,-2.2417 -8.5539,-3.2349 -15.813,-3.5384 z m -9.9576,13.496 c -4.0543,0 -6.8729,1.9598 -9.9576,5.5737 -0.31403,0.36791 -0.61902,0.75737 -0.93939,1.1586 -0.0028,0.009 0.0028,0.0218 0,0.0313 -0.14384,0.48183 -0.2571,0.94757 -0.37576,1.4404 0.45583,-0.58319 0.87448,-1.112 1.3152,-1.6283 3.0847,-3.614 5.9032,-5.5737 9.9576,-5.5737 7.2342,0 8.1621,3.2235 21.418,11.868 6.5241,4.2543 16.415,10.117 24.581,10.991 0.33497,-1.0984 0.60717,-2.2337 0.81414,-3.3818 -0.064,0 -0.12411,-0.026 -0.18788,-0.031 -0.17297,0.8162 -0.38557,1.6219 -0.62626,2.4111 -8.1658,-0.8742 -18.057,-6.7366 -24.581,-10.991 -13.255,-8.69 -14.183,-11.92 -21.417,-11.92 z m 42.711,31.031 c -0.2631,0.1067 -0.57088,0.2304 -0.87677,0.3444 -1.0427,1.4707 -2.2176,2.8465 -3.5071,4.102 -4.2282,1.6311 -10.027,2.2859 -14.655,2.2859 -9.2509,0 -14.765,-2.6303 -16.439,-2.6303 -1.2573,0 -2.3798,0.6852 -2.3798,2.4111 0,0.1855 0.01384,0.3845 0.03131,0.5636 0.17862,-1.3958 1.2066,-1.9727 2.3485,-1.9727 1.6745,0 7.1885,2.6303 16.439,2.6303 4.6271,0 10.426,-0.6548 14.655,-2.2858 1.67,-1.626 3.1316,-3.47 4.3838,-5.4485 z" />
  </g>
  <g
     id="g14291">
    <path
       d="m 5.2922679,73.685059 0,5.0663 c 0,6.668 5.3645011,12.032 12.0320011,12.032 l 61.049,0 c 6.668,0 12.032,-5.3645 12.032,-12.032 l 0,-5.0663 c 0,6.6681 -5.3645,12.032 -12.032,12.032 l -61.049,0 c -6.668,0 -12.0320011,-5.3643 -12.0320011,-12.032 z"
       id="path64"
       inkscape:connector-curvature="0"
       style="opacity:0.4;fill:url(#linearGradient14237);fill-opacity:1" />
    <path
       inkscape:connector-curvature="0"
       id="path14214"
       d="m 5.2929688,72.717592 0,1.15039 c 0,6.667718 5.3632502,12.031248 12.0312502,12.031248 l 61.048828,0 c 6.6675,0 12.03125,-5.36313 12.03125,-12.031248 l 0,-1.15039 c 0,6.668098 -5.36375,12.031248 -12.03125,12.031248 l -61.048828,0 c -6.668,0 -12.0312502,-5.36355 -12.0312502,-12.031248 z"
       style="opacity:0.5;fill:url(#linearGradient14245);fill-opacity:1" />
  </g>
</svg>
