<?xml version="1.0" encoding="UTF-8" standalone="no"?>
<svg
   xmlns:dc="http://purl.org/dc/elements/1.1/"
   xmlns:cc="http://creativecommons.org/ns#"
   xmlns:rdf="http://www.w3.org/1999/02/22-rdf-syntax-ns#"
   xmlns:svg="http://www.w3.org/2000/svg"
   xmlns="http://www.w3.org/2000/svg"
   xmlns:xlink="http://www.w3.org/1999/xlink"
   xmlns:sodipodi="http://sodipodi.sourceforge.net/DTD/sodipodi-0.dtd"
   xmlns:inkscape="http://www.inkscape.org/namespaces/inkscape"
   height="96"
   width="96"
   id="svg2067"
   version="1.1"
   inkscape:version="0.91 r13725"
   sodipodi:docname="googlemusicframe.svg">
  <metadata
     id="metadata2153">
    <rdf:RDF>
      <cc:Work
         rdf:about="">
        <dc:format>image/svg+xml</dc:format>
        <dc:type
           rdf:resource="http://purl.org/dc/dcmitype/StillImage" />
      </cc:Work>
    </rdf:RDF>
  </metadata>
  <sodipodi:namedview
     pagecolor="#ffffff"
     bordercolor="#666666"
     borderopacity="1"
     objecttolerance="10"
     gridtolerance="10"
     guidetolerance="10"
     inkscape:pageopacity="0"
     inkscape:pageshadow="2"
     inkscape:window-width="640"
     inkscape:window-height="480"
     id="namedview2151"
     showgrid="false"
     inkscape:zoom="2.4583333"
     inkscape:cx="48"
     inkscape:cy="48"
     inkscape:current-layer="svg2067" />
  <defs
     id="defs2069">
    <clipPath
       id="clipPath3613-26">
      <rect
         x="6"
         rx="6"
         y="6"
         height="84"
         width="84"
         id="rect2072" />
    </clipPath>
    <filter
       x="-0.192"
       y="-0.192"
       height="1.384"
       color-interpolation-filters="sRGB"
       id="filter3794-15"
       width="1.384">
      <feGaussianBlur
         stdDeviation="5.28"
         id="feGaussianBlur2075" />
    </filter>
    <linearGradient
       id="linearGradient3833">
      <stop
         stop-color="#d9d9d9"
         id="stop2078" />
      <stop
         stop-color="#fff"
         offset="1"
         id="stop2080" />
    </linearGradient>
    <clipPath
       id="clipPath4882">
      <use
         xlink:href="#SVGCleanerId_0"
         id="use2083" />
    </clipPath>
    <filter
       color-interpolation-filters="sRGB"
       id="filter4890">
      <feGaussianBlur
         stdDeviation="0.2175"
         id="feGaussianBlur2086" />
    </filter>
    <linearGradient
       x2="0"
       y1="90"
       y2="5.988"
       gradientUnits="userSpaceOnUse"
       id="linearGradient28679"
       gradientTransform="translate(-152,976.85)">
      <stop
         stop-color="#53aec2"
         id="stop2089" />
      <stop
         stop-color="#80c3d2"
         offset="1"
         id="stop2091" />
    </linearGradient>
    <linearGradient
       x2="0"
       y1="20.221"
       y2="138.66"
       gradientUnits="userSpaceOnUse"
       id="linearGradient28681">
      <stop
         stop-color="#fff"
         id="stop2094" />
      <stop
         stop-color="#fff"
         stop-opacity="0"
         offset="1"
         id="stop2096" />
    </linearGradient>
    <radialGradient
       cy="29"
       r="17.5"
       gradientUnits="userSpaceOnUse"
       id="radialGradient28683"
       cx="-56"
       gradientTransform="matrix(1.2571,0,0,0.97143,-27.6,978.68)">
      <stop
         stop-color="#e5e5e5"
         id="stop2099" />
      <stop
         stop-color="#fff"
         offset="1"
         id="stop2101" />
    </radialGradient>
    <radialGradient
       cy="30.722"
       r="17.5"
       xlink:href="#linearGradient3833"
       gradientUnits="userSpaceOnUse"
       id="radialGradient28685"
       cx="-67.36"
       gradientTransform="matrix(1.3143,0,0,1.1429,-38.468,985.74)" />
    <radialGradient
       cy="31.597"
       r="17.5"
       xlink:href="#linearGradient3833"
       gradientUnits="userSpaceOnUse"
       id="radialGradient28687"
       cx="-69.64"
       gradientTransform="matrix(-1.3143,0,0,1.1429,-167.53,985.74)" />
    <clipPath
       clipPathUnits="userSpaceOnUse"
       id="clipPath28689">
      <path
         d="m-133.82 983.75c-6.5129 0-11.751 5.2691-11.751 11.782v59.612c0 5.2916 3.451 9.7497 8.2413 11.233h66.602c4.6052-1.4229 7.9819-5.6004 8.2413-10.622v-60.833c-0.31371-6.2288-5.4115-11.172-11.721-11.172h-59.612z"
         id="path2106" />
    </clipPath>
    <path
       d="m44 58v-16l13 8z"
       id="SVGCleanerId_0" />
    <linearGradient
       inkscape:collect="always"
       xlink:href="#linearGradient14231"
       id="linearGradient14237"
       x1="50.707542"
       y1="81.682442"
       x2="50.707542"
       y2="96.539803"
       gradientUnits="userSpaceOnUse" />
    <linearGradient
       inkscape:collect="always"
       id="linearGradient14231">
      <stop
         style="stop-color:#000000;stop-opacity:1;"
         offset="0"
         id="stop14233" />
      <stop
         style="stop-color:#000000;stop-opacity:0;"
         offset="1"
         id="stop14235" />
    </linearGradient>
    <linearGradient
       inkscape:collect="always"
       xlink:href="#linearGradient14239"
       id="linearGradient14245"
       x1="49.876652"
       y1="87.937508"
       x2="49.876652"
       y2="76.719681"
       gradientUnits="userSpaceOnUse" />
    <linearGradient
       inkscape:collect="always"
       id="linearGradient14239">
      <stop
         style="stop-color:#ffffff;stop-opacity:1;"
         offset="0"
         id="stop14241" />
      <stop
         style="stop-color:#ffffff;stop-opacity:0;"
         offset="1"
         id="stop14243" />
    </linearGradient>
  </defs>
  <rect
     style="fill-opacity:0.03900003"
     id="rect2111"
     width="88.760002"
     height="88.760002"
     y="3.6000221"
     rx="12.552"
     x="3.608" />
  <rect
     style="fill-opacity:0.078"
     id="rect2113"
     width="87.550003"
     height="87.550003"
     y="4.2100072"
     rx="12.38"
     x="4.2160001" />
  <rect
     style="fill-opacity:0.15700001"
     id="rect2115"
     width="86.330002"
     height="86.330002"
     y="4.8199925"
     rx="12.208"
     x="4.8239999" />
  <g
     id="g2117"
     transform="matrix(1.0238,0,0,1.0238,154.48,-1001.76)"
     clip-path="url(#clipPath28689)">
    <rect
       style="fill:url(#linearGradient28679)"
       id="rect2119"
       width="84"
       height="84"
       y="982.84998"
       rx="6"
       x="-146" />
    <rect
       style="opacity:0.1;fill:url(#linearGradient28681);stroke:#ffffff;stroke-width:0.5;stroke-linecap:round;filter:url(#filter3794-15)"
       id="rect2121"
       transform="translate(-152,976.85)"
       width="66"
       height="66"
       clip-path="url(#clipPath3613-26)"
       y="15"
       rx="12"
       x="15" />
    <path
       style="color:#000000;opacity:0.05"
       inkscape:connector-curvature="0"
       id="path2123"
       d="m -114,1038.8 c -5.1637,0 -9.807,0.4572 -13.375,1.25 -1.7863,0.397 -3.3385,0.8843 -4.625,1.5625 -0.6027,0.3177 -1.2541,0.7315 -1.8438,1.375 -0.60617,0.6617 -1.1875,1.6273 -1.1875,2.8438 0,1.2165 0.58133,2.1821 1.1875,2.8437 0.58962,0.6436 1.241,1.0573 1.8438,1.375 1.2865,0.6782 2.8387,1.1656 4.625,1.5625 3.568,0.7929 8.2113,1.25 13.375,1.25 l 22,0 c 5.1637,0 9.807,-0.4571 13.375,-1.25 1.7863,-0.3969 3.3385,-0.8843 4.625,-1.5625 0.6027,-0.3177 1.2541,-0.7314 1.8438,-1.375 0.60617,-0.6616 1.1875,-1.6272 1.1875,-2.8437 0,-1.2165 -0.58133,-2.1821 -1.1875,-2.8438 -0.58962,-0.6435 -1.241,-1.0573 -1.8438,-1.375 -1.2865,-0.6782 -2.8387,-1.1655 -4.625,-1.5625 -3.568,-0.7928 -8.2113,-1.25 -13.375,-1.25 l -22,0 z" />
    <path
       style="color:#000000;opacity:0.1"
       inkscape:connector-curvature="0"
       id="path2125"
       d="m -114,1039.8 c -5.1057,0 -9.6894,0.4484 -13.156,1.2188 -1.7364,0.3858 -3.2093,0.8542 -4.375,1.4687 -0.56444,0.2976 -1.1173,0.6362 -1.5938,1.1563 -0.48686,0.5314 -0.90625,1.2744 -0.90625,2.1875 0,0.9131 0.41939,1.6561 0.90625,2.1875 0.47646,0.52 1.0293,0.8587 1.5938,1.1562 1.1657,0.6145 2.6386,1.0829 4.375,1.4688 3.4669,0.7704 8.0505,1.2187 13.156,1.2187 l 22,0 c 5.1057,0 9.6894,-0.4483 13.156,-1.2187 1.7364,-0.3859 3.2093,-0.8543 4.375,-1.4688 0.56444,-0.2975 1.1173,-0.6362 1.5938,-1.1562 0.48686,-0.5314 0.90625,-1.2744 0.90625,-2.1875 0,-0.9131 -0.41939,-1.6561 -0.90625,-2.1875 -0.47646,-0.5201 -1.0293,-0.8587 -1.5938,-1.1563 -1.1657,-0.6145 -2.6386,-1.0829 -4.375,-1.4687 -3.4669,-0.7704 -8.0505,-1.2188 -13.156,-1.2188 l -22,0 z" />
    <path
       style="color:#000000;opacity:0.15"
       inkscape:connector-curvature="0"
       id="path2127"
       d="m -114,1040.9 c -5.0434,0 -9.5824,0.442 -12.938,1.1875 -1.6776,0.3728 -3.057,0.8285 -4.0938,1.375 -0.51837,0.2733 -0.96319,0.5563 -1.3125,0.9375 -0.34931,0.3813 -0.625,0.9013 -0.625,1.4688 0,0.5674 0.27569,1.0875 0.625,1.4687 0.34931,0.3813 0.79413,0.6643 1.3125,0.9375 1.0367,0.5465 2.4162,1.0022 4.0938,1.375 3.3551,0.7456 7.8941,1.1875 12.938,1.1875 l 22,0 c 5.0434,0 9.5824,-0.4419 12.938,-1.1875 1.6776,-0.3728 3.057,-0.8285 4.0938,-1.375 0.51837,-0.2732 0.9632,-0.5562 1.3125,-0.9375 0.3493,-0.3812 0.625,-0.9013 0.625,-1.4687 0,-0.5675 -0.2757,-1.0875 -0.625,-1.4688 -0.3493,-0.3812 -0.79413,-0.6642 -1.3125,-0.9375 -1.0367,-0.5465 -2.4162,-1.0022 -4.0938,-1.375 C -82.4171,1041.342 -86.9561,1040.9 -92,1040.9 l -22,0 z" />
    <rect
       style="color:#000000;opacity:0.3"
       id="rect2129"
       width="58"
       height="8"
       y="1041.8"
       ry="4"
       rx="18"
       x="-132" />
    <rect
       style="color:#000000;fill:#ffffff"
       id="rect2131"
       width="36"
       height="14"
       y="1032.8"
       x="-121" />
    <path
       inkscape:connector-curvature="0"
       style="color:#000000;fill:url(#radialGradient28683)"
       id="path2133"
       d="m -87,1016.3 a 17.5,17.5 0 0 1 -35,0 17.5,17.5 0 1 1 35,0 z" />
    <path
       inkscape:connector-curvature="0"
       style="color:#000000;fill:url(#radialGradient28685)"
       id="path2135"
       d="m -104,1028.8 a 18,18 0 0 1 -36,0 18,18 0 1 1 36,0 z" />
    <path
       inkscape:connector-curvature="0"
       style="color:#000000;fill:url(#radialGradient28687)"
       id="path2137"
       d="m -102,1028.8 a 18,18 0 0 0 36,0 18,18 0 1 0 -36,0 z" />
    <path
       style="opacity:0.1"
       inkscape:connector-curvature="0"
       id="path2139"
       d="m -140,982.85 -6,6 0,1 7,-7 -1,0 z m 3,0 -9,9 0,1 10,-10 -1,0 z m 3,0 -12,12 0,1 13,-13 -1,0 z m 3,0 -15,15 0,1 16,-16 -1,0 z m 3,0 -18,18 0,1 19,-19 -1,0 z m 3,0 -21,21 0,1 22,-22 -1,0 z m 3,0 -24,24 0,1 25,-25 -1,0 z m 3,0 -27,27 0,1 28,-28 -1,0 z m 3,0 -30,30 0,1 31,-31 -1,0 z m 3,0 -33,33 0,1 34,-34 -1,0 z m 3,0 -36,36 0,1 37,-37 -1,0 z m 3,0 -39,39 0,1 40,-40 -1,0 z m 3,0 -42,42 0,1 43,-43 -1,0 z m 3,0 -31.094,31.094 c 0.74582,-0.5082 1.5232,-0.9507 2.3438,-1.3437 l 29.75,-29.75 -1,0 z m 3,0 -28.562,28.563 c 0.4033,-0.1053 0.83612,-0.1726 1.25,-0.25 l 28.31,-28.35 -1,0 z m 3,0 -18.469,18.469 c 0.66351,-0.3967 1.3458,-0.755 2.0625,-1.0625 l 0.0625,-0.031 17.35,-17.35 -1,0 z m 3,0 -16.438,16.438 c 0.41093,-0.0945 0.82854,-0.18502 1.25,-0.25 l 16.19,-16.19 -1,0 z m 3,0 -16.031,16.031 c 0.17801,-0.005 0.35194,-0.0313 0.53125,-0.0313 0.15769,0 0.31206,0.0271 0.46875,0.0313 l 16.03,-16.03 -1,0 z m 3,0 -16.188,16.188 c 0.29393,0.0387 0.58586,0.0719 0.875,0.125 l 16.32,-16.31 -1,0 z m 3,0 -16.688,16.688 c 0.25579,0.073 0.5304,0.13458 0.78125,0.21875 l 16.907,-16.91 -1,0 z m 3,0 -17.469,17.469 c 0.22713,0.1 0.43429,0.2348 0.65625,0.3438 l 17.813,-17.75 -1,0 z m 3,0 -18.5,18.5 c 0.20787,0.125 0.42288,0.2416 0.625,0.375 l 18.875,-18.95 -1,0 z m 3,0 -19.719,19.719 c 0.18661,0.146 0.38209,0.2842 0.5625,0.4375 l 20.156,-20.15 -1,0 z m 3,0 -21.125,21.125 c 0.16589,0.166 0.34086,0.3274 0.5,0.5 l 21.625,-21.65 -1,0 z m 3,0 -22.719,22.719 c 0.14764,0.1885 0.29755,0.368 0.4375,0.5625 l 23.219,-23.219 C -67.36515,982.8658 -67.68388,982.85 -68,982.85 Z m 2.4688,0.53125 -23.969,23.91995 c 0.12689,0.2114 0.22566,0.4393 0.34375,0.6562 l 24.281,-24.27995 c -0.21164,-0.12898 -0.42827,-0.24132 -0.65625,-0.34375 z m -77.062,0.0625 c -1.2346,0.58962 -2.2229,1.5779 -2.8125,2.8125 l 2.8125,-2.8125 z m 78.844,1.1562 -24.75,24.75005 c 0.10048,0.2295 0.22172,0.4529 0.3125,0.6875 l 24.906,-24.90605 c -0.14571,-0.18471 -0.30263,-0.36513 -0.46875,-0.53125 z m 1.2188,1.7812 -24.812,24.81205 c 0.40385,-0.077 0.80635,-0.1678 1.2188,-0.2187 l 23.844,-23.84405 c -0.0756,-0.25338 -0.1431,-0.51208 -0.25,-0.75 z m 0.527,2.47 -22,21.95005 c 0.32522,0 0.64783,0.014 0.96875,0.031 l 21.031,-20.95005 0,-1 z m 0,3 -19.219,19.21905 c 0.28251,0.044 0.56579,0.099 0.84375,0.1563 l 18.375,-18.45005 0,-1 z m 0,3 -16.781,16.78105 c 0.25445,0.077 0.50048,0.162 0.75,0.25 l 16.031,-15.95005 0,-1 z m 0,3 -14.594,14.59405 c 0.22875,0.1037 0.46399,0.1996 0.6875,0.3125 l 13.906,-13.85005 0,-1 z m 0,3.00005 -12.625,12.625 c 0.20717,0.127 0.39223,0.2712 0.59375,0.4062 l 12.031,-12 0,-1 z m 0,3 -10.875,10.875 c 0.18536,0.1468 0.35191,0.3149 0.53125,0.4687 l 10.344,-10.4 0,-1 z m 0,3 -9.2812,9.2812 c 0.16483,0.1655 0.31041,0.3596 0.46875,0.5313 l 8.8125,-8.8125 0,-1 z m -57.531,0.5312 -3.5,3.5 c 0.34129,-0.019 0.68507,-0.031 1.0312,-0.031 l 1.4375,-1.4375 c 0.30077,-0.6957 0.64633,-1.386 1.0312,-2.0313 z m 57.531,2.4688 -7.875,7.875 c 0.14727,0.1875 0.29761,0.3691 0.4375,0.5625 l 7.4375,-7.4375 0,-1 z m 0,3 -6.6562,6.6562 c 0.12725,0.2091 0.25613,0.4104 0.375,0.625 l 6.2812,-6.2812 0,-1 z m 0,3 -5.625,5.625 c 0.10254,0.2281 0.21927,0.4545 0.3125,0.6875 l 5.3125,-5.3125 0,-1 z m -74.75,2.75 -9.25,9.2499 0,1 7.8125,-7.8125 c 0.41234,-0.856 0.9006,-1.6633 1.4375,-2.4375 z m 74.75,0.25 -4.8125,4.8125 c 0.0783,0.2594 0.15198,0.517 0.21875,0.7812 l 4.5938,-4.5937 0,-1 z m 0,3 -5.125,5.1249 c -0.2069,0.5705 -0.42642,1.1456 -0.6875,1.6875 l 5.8125,-5.8125 0,-1 z m -77.344,2.3437 -6.6562,6.6563 0,1 6.5938,-6.5938 c -0.035,-0.1383 -0.0932,-0.2666 -0.125,-0.4062 0.051,-0.2243 0.12824,-0.4353 0.1875,-0.6563 z m 77.344,0.6563 -42,42 1,0 41,-41 0,-1 z m -76.938,1.9375 -7.0625,7.0625 0,1 7.3125,-7.3125 c -0.0966,-0.2415 -0.16364,-0.5036 -0.25,-0.75 z m 76.938,1.0625 -39,39 1,0 38,-38 0,-1 z m -76.062,1.0625 -7.9375,7.9375 0,1 8.2812,-8.2813 c -0.12033,-0.2172 -0.23224,-0.4336 -0.34375,-0.6562 z m 1.0938,1.9062 -9.0312,9.0313 0,1 9.4375,-9.4375 c -0.13897,-0.1921 -0.27477,-0.3961 -0.40625,-0.5938 z m 74.969,0.031 -36,36 1,0 35,-35 0,-1 z m -73.656,1.6561 -10.344,10.344 0,1 10.812,-10.8119 c -0.16076,-0.1745 -0.31489,-0.3507 -0.46875,-0.5314 z m 73.656,1.3439 -33,33 1,0 32,-32 0,-1 z m -72.219,0.2186 -11.781,11.781 0,1 12.344,-12.344 c -0.18047,-0.1548 -0.38834,-0.2757 -0.5625,-0.4375 z m 1.6562,1.3439 -13.438,13.438 0,1 14.031,-14.031 c -0.19978,-0.1338 -0.39974,-0.2646 -0.59375,-0.4062 z m 1.8125,1.1875 -15.25,15.25 0,1 15.906,-15.906 c -0.2193,-0.1107 -0.44222,-0.2243 -0.65625,-0.3437 z m 68.75,0.25 -30,30 1,0 29,-29 0,-1 z m -14.25,0.25 c -0.53586,0.2565 -1.0925,0.4839 -1.6562,0.6875 l -0.0312,0 -29.063,29.0619 1,0 29.75,-29.75 z m -52.438,0.4375 -17.312,17.3119 0,1 18.031,-18.031 c -0.24353,-0.086 -0.48018,-0.1851 -0.71875,-0.2811 z m 2.25,0.75 -19.562,19.5619 0,1 20.375,-20.375 c -0.26898,-0.055 -0.54808,-0.1204 -0.8125,-0.1875 z m 45.75,0.25 c -0.39367,0.074 -0.78518,0.14 -1.1875,0.1875 l -28.125,28.125 1,0 28.312,-28.312 z m -43.219,0.2186 -22.1,22.2 c 0,0.3161 0.0158,0.6349 0.0625,0.9375 l 22.969,-22.969 c -0.31432,-0.017 -0.62771,-0.03 -0.9375,-0.063 z m 2.9062,0.094 -24.469,24.4691 c 0.10243,0.228 0.21477,0.4446 0.34375,0.6563 l 25.125,-25.125 -1,0 z m 3,0 -26.25,26.25 c 0.16612,0.1661 0.34654,0.3231 0.53125,0.4687 l 26.71,-26.7 -1,0 z m 3,0 -27.469,27.4691 c 0.23792,0.1069 0.49662,0.1744 0.75,0.25 l 27.71,-27.6 -1,0 z m 3,0 -28,28 1,0 28,-28 -1,0 z m 3,0 -28,28 1,0 28,-28 -1,0 z m 3,0 -28,28 1,0 28,-28 -1,0 z m 3,0 -28,28 1,0 28,-28 -1,0 z m 3,0 -28,28 1,0 28,-28 -1,0 z m 3,0 -28,28 1,0 28,-28 -1,0 z m 3,0 -28,28 1,0 28,-28 -1,0 z m 3,0 -28,28 1,0 28,-28 -1,0 z m 3,0 -28,28 1,0 28,-28 -1,0 z m 3,0 -28,28 1,0 28,-28 -1,0 z m 23,1 -27,27 1,0 26,-26 0,-1 z m 0,3 -24,24 1,0 23,-23 0,-1 z m 0,3 -21,21 1,0 20,-20 0,-1 z m 0,3 -18,18 1,0 17,-17 0,-1 z m 0,3 -15,15 1,0 14,-14 0,-1 z m 0,3 -12,12 1,0 11,-11 0,-1 z m 0,3 -9,9 1,0 8,-8 0,-1 z m 0,3 -6,6 c 0.37114,0 0.74159,-0.03 1.0938,-0.094 l 4.8125,-4.8125 c 0.0639,-0.3522 0.09375,-0.7227 0.09375,-1.0938 z" />
    <path
       style="fill:#ffffff"
       inkscape:connector-curvature="0"
       id="path2141"
       d="m -108.16,1017.9 a 0.9791,0.9791 0 0 0 -0.8125,0.9688 l 0,16 a 0.9791,0.9791 0 0 0 1.4688,0.8437 l 13,-8 a 0.9791,0.9791 0 0 0 0,-1.6875 l -13,-8 a 0.9791,0.9791 0 0 0 -0.65625,-0.125 z" />
    <path
       style="fill:#f5954e"
       inkscape:connector-curvature="0"
       id="path2143"
       d="m -108,1034.8 0,-16 13,8 z" />
    <use
       height="100%"
       width="100%"
       y="0"
       x="0"
       style="opacity:0.4;fill:none;stroke:#000000;filter:url(#filter4890)"
       id="use2145"
       transform="translate(-152,976.85)"
       clip-path="url(#clipPath4882)"
       xlink:href="#SVGCleanerId_0" />
  </g>
  <g
     id="g14291">
    <path
       d="m 5.2922679,73.685059 0,5.0663 c 0,6.668 5.3645011,12.032 12.0320011,12.032 l 61.049,0 c 6.668,0 12.032,-5.3645 12.032,-12.032 l 0,-5.0663 c 0,6.6681 -5.3645,12.032 -12.032,12.032 l -61.049,0 c -6.668,0 -12.0320011,-5.3643 -12.0320011,-12.032 z"
       id="path64"
       inkscape:connector-curvature="0"
       style="opacity:0.4;fill:url(#linearGradient14237);fill-opacity:1" />
    <path
       inkscape:connector-curvature="0"
       id="path14214"
       d="m 5.2929688,72.717592 0,1.15039 c 0,6.667718 5.3632502,12.031248 12.0312502,12.031248 l 61.048828,0 c 6.6675,0 12.03125,-5.36313 12.03125,-12.031248 l 0,-1.15039 c 0,6.668098 -5.36375,12.031248 -12.03125,12.031248 l -61.048828,0 c -6.668,0 -12.0312502,-5.36355 -12.0312502,-12.031248 z"
       style="opacity:0.5;fill:url(#linearGradient14245);fill-opacity:1" />
  </g>
</svg>
