<?xml version="1.0" encoding="UTF-8" standalone="no"?>
<svg
   xmlns:dc="http://purl.org/dc/elements/1.1/"
   xmlns:cc="http://creativecommons.org/ns#"
   xmlns:rdf="http://www.w3.org/1999/02/22-rdf-syntax-ns#"
   xmlns:svg="http://www.w3.org/2000/svg"
   xmlns="http://www.w3.org/2000/svg"
   xmlns:xlink="http://www.w3.org/1999/xlink"
   xmlns:sodipodi="http://sodipodi.sourceforge.net/DTD/sodipodi-0.dtd"
   xmlns:inkscape="http://www.inkscape.org/namespaces/inkscape"
   height="96"
   width="96"
   id="svg1831"
   version="1.1"
   inkscape:version="0.91 r13725"
   sodipodi:docname="google.svg">
  <metadata
     id="metadata1915">
    <rdf:RDF>
      <cc:Work
         rdf:about="">
        <dc:format>image/svg+xml</dc:format>
        <dc:type
           rdf:resource="http://purl.org/dc/dcmitype/StillImage" />
      </cc:Work>
    </rdf:RDF>
  </metadata>
  <sodipodi:namedview
     pagecolor="#ffffff"
     bordercolor="#666666"
     borderopacity="1"
     objecttolerance="10"
     gridtolerance="10"
     guidetolerance="10"
     inkscape:pageopacity="0"
     inkscape:pageshadow="2"
     inkscape:window-width="640"
     inkscape:window-height="480"
     id="namedview1913"
     showgrid="false"
     inkscape:zoom="2.4583333"
     inkscape:cx="48"
     inkscape:cy="48"
     inkscape:current-layer="svg1831" />
  <defs
     id="defs1833">
    <clipPath
       id="clipPath3613-02">
      <rect
         x="6"
         rx="6"
         y="6"
         height="84"
         width="84"
         id="rect1836" />
    </clipPath>
    <filter
       x="-0.192"
       y="-0.192"
       height="1.384"
       color-interpolation-filters="sRGB"
       id="filter3794-12"
       width="1.384">
      <feGaussianBlur
         stdDeviation="5.28"
         id="feGaussianBlur1839" />
    </filter>
    <clipPath
       id="clipPath4049">
      <rect
         x="-90"
         rx="6.1"
         y="6"
         height="84"
         width="84"
         transform="matrix(0 -1 1 0 0 0)"
         id="rect1842" />
    </clipPath>
    <linearGradient
       x1="6"
       x2="90"
       gradientUnits="userSpaceOnUse"
       id="linearGradient16668"
       gradientTransform="translate(-1035.2,108.67)">
      <stop
         stop-color="#028537"
         id="stop1845" />
      <stop
         stop-color="#03b035"
         offset="1"
         id="stop1847" />
    </linearGradient>
    <linearGradient
       x1="23.363"
       x2="27"
       y1="90.2"
       y2="62.57"
       gradientUnits="userSpaceOnUse"
       id="linearGradient16670"
       gradientTransform="translate(108.67,939.22)">
      <stop
         stop-color="#e8ac0c"
         id="stop1850" />
      <stop
         stop-color="#e8db0c"
         offset="1"
         id="stop1852" />
    </linearGradient>
    <linearGradient
       x2="0"
       y1="35.461"
       y2="5.547"
       gradientUnits="userSpaceOnUse"
       id="linearGradient16672"
       gradientTransform="translate(108.67,939.22)">
      <stop
         stop-color="#df1a1a"
         id="stop1855" />
      <stop
         stop-color="#e44848"
         offset="1"
         id="stop1857" />
    </linearGradient>
    <linearGradient
       x1="18.08"
       x2="18.215"
       y1="59.02"
       y2="6.67"
       gradientUnits="userSpaceOnUse"
       id="linearGradient16674"
       gradientTransform="translate(108.67,939.22)">
      <stop
         stop-color="#005ec0"
         id="stop1860" />
      <stop
         stop-color="#0072ea"
         offset="1"
         id="stop1862" />
    </linearGradient>
    <linearGradient
       x2="0"
       y1="20.221"
       y2="138.66"
       gradientUnits="userSpaceOnUse"
       id="linearGradient16676">
      <stop
         stop-color="#fff"
         id="stop1865" />
      <stop
         stop-color="#fff"
         stop-opacity="0"
         offset="1"
         id="stop1867" />
    </linearGradient>
    <linearGradient
       x2="0"
       y1="5.112"
       y2="90.06"
       gradientUnits="userSpaceOnUse"
       id="linearGradient16678">
      <stop
         stop-color="#fff"
         id="stop1870" />
      <stop
         stop-color="#f0f0f0"
         offset="1"
         id="stop1872" />
    </linearGradient>
    <clipPath
       clipPathUnits="userSpaceOnUse"
       id="clipPath16682">
      <path
         d="m127.01 946.19c-6.451 0-11.64 5.2834-11.64 11.814v59.774c0 5.3061 3.4182 9.7762 8.163 11.263h65.969c4.5614-1.4268 7.906-5.6156 8.163-10.651v-60.998c-0.31073-6.2457-5.3601-11.202-11.61-11.202h-59.045z"
         id="path1875" />
    </clipPath>
    <linearGradient
       inkscape:collect="always"
       xlink:href="#linearGradient14231"
       id="linearGradient14237"
       x1="50.707542"
       y1="81.682442"
       x2="50.707542"
       y2="96.539803"
       gradientUnits="userSpaceOnUse" />
    <linearGradient
       inkscape:collect="always"
       id="linearGradient14231">
      <stop
         style="stop-color:#000000;stop-opacity:1;"
         offset="0"
         id="stop14233" />
      <stop
         style="stop-color:#000000;stop-opacity:0;"
         offset="1"
         id="stop14235" />
    </linearGradient>
    <linearGradient
       inkscape:collect="always"
       xlink:href="#linearGradient14239"
       id="linearGradient14245"
       x1="49.876652"
       y1="87.937508"
       x2="49.876652"
       y2="76.719681"
       gradientUnits="userSpaceOnUse" />
    <linearGradient
       inkscape:collect="always"
       id="linearGradient14239">
      <stop
         style="stop-color:#ffffff;stop-opacity:1;"
         offset="0"
         id="stop14241" />
      <stop
         style="stop-color:#ffffff;stop-opacity:0;"
         offset="1"
         id="stop14243" />
    </linearGradient>
  </defs>
  <rect
     style="fill-opacity:0.03900003"
     id="rect1879"
     width="88.760002"
     height="88.760002"
     y="3.6000221"
     rx="12.552"
     x="3.608" />
  <rect
     style="fill-opacity:0.078"
     id="rect1881"
     width="87.550003"
     height="87.550003"
     y="4.2100072"
     rx="12.38"
     x="4.2160001" />
  <rect
     style="fill-opacity:0.15700001"
     id="rect1883"
     width="86.330002"
     height="86.330002"
     y="4.8199925"
     rx="12.208"
     x="4.8239999" />
  <g
     id="g1885"
     transform="matrix(1.0336,0,0,1.021,-113.81,-960.683)"
     clip-path="url(#clipPath16682)">
    <rect
       style="fill:url(#linearGradient16668)"
       id="rect1887"
       transform="matrix(0,-1,1,0,0,0)"
       width="84"
       height="84"
       y="114.67"
       rx="6.0999999"
       x="-1029.2" />
    <path
       inkscape:connector-curvature="0"
       style="fill:url(#linearGradient16670)"
       id="path1889"
       d="m 127.67,1029.2 c -6.6669,-1.8909 -9.2686,-8.4577 -9.0891,-13.398 0.47323,-13.022 15.167,-14.14 26.526,-14.885 5.5058,4.3078 14.324,8.0122 13.941,17.096 -0.2461,5.8347 -1.2563,7.5018 -5.3779,11.186 -0.29479,0.1131 -5.3285,0.012 -12,0 -9.4695,-0.017 -12,0 -14,0 z" />
    <path
       inkscape:connector-curvature="0"
       style="fill:url(#linearGradient16672)"
       id="path1891"
       d="m 156.46,945.22 c 3.0102,3.8486 5.9058,7.6636 6.6875,12.125 1.2728,7.2644 -0.93527,13.391 -5.0625,18.188 6.8109,-6.7198 13.617,-7.2081 20.938,-6.9062 10.486,0.43245 15.305,4.6206 19.656,8.5938 l 0,-26 c 0,-3.324 -2.676,-6 -6,-6 l -36.219,0 z" />
    <path
       inkscape:connector-curvature="0"
       style="fill:url(#linearGradient16674)"
       id="path1893"
       d="m 136.27,945.22 c -3.895,7.5e-4 -4.148,0.045 -5.8125,1 -2.4941,1.4311 -4.2626,3.4169 -4.9688,6.25 -1.549,6.2148 -0.2241,13.49 2.4375,18.438 3.4418,6.3983 8.6708,10.589 14.719,9.3125 3.6962,-0.78041 6.8541,-2.9942 8.25,-5.75 2.8142,-5.5558 1.3339,-16.004 -3.4062,-23.125 -3.5889,-5.3918 -5.6505,-6.1261 -11.219,-6.125 z m -21.572,26.648 -0.12119,32.38 c 7.8442,-4.0854 16.423,-6.2503 26.215,-6.8953 -2.2415,-3.3474 -4.0576,-6.8969 -2.5838,-13.351 -11.259,0.3538 -18.044,-2.4691 -23.51,-12.133 z" />
    <rect
       style="opacity:0.1;fill:url(#linearGradient16676);stroke:#ffffff;stroke-width:0.5;stroke-linecap:round;filter:url(#filter3794-12)"
       id="rect1895"
       transform="translate(108.67,939.22)"
       width="66"
       height="66"
       clip-path="url(#clipPath3613-02)"
       y="15"
       rx="12"
       x="15" />
    <g
       id="g1897"
       transform="translate(108.67,939.22)"
       clip-path="url(#clipPath4049)">
      <path
         style="opacity:0.05"
         inkscape:connector-curvature="0"
         id="path1899"
         d="M 38,3.0312 C 28.926,3.1284 19.778,2.9022 10.656,3.2188 A 0.96877,0.96877 0 0 0 10.469,3.25 C 7.804,3.8379 5.7959,5.6037 4.5625,7.7812 3.3446,9.9314 2.8512,12.472 3.0938,14.906 c 2e-4,0.031 -3e-4,0.063 0,0.094 0.0496,6.378 -0.0609,12.811 0.0937,19.219 a 0.96877,0.96877 0 0 0 0.0937,0.406 c 3.4175,6.862 9.8827,12.646 17.875,13.5 0.0411,0.0044 0.08382,-0.0041 0.125,0 0.02163,0.0062 0.04081,0.02533 0.0625,0.03125 1.6176,0.44143 3.4,0.16665 4.4375,0.3125 0.53881,0.07574 0.70229,0.19984 0.75,0.28125 0.04671,0.07971 0.1361,0.51104 -0.1875,1.4375 -0.0069,0.01981 0.0073,0.01093 0,0.03125 -0.36143,1.0134 -0.15539,2.0406 0.125,2.9688 0.28324,0.93761 0.68211,1.8138 0.9375,2.5312 0.24879,0.69892 0.22133,1.1643 0.25,1.125 -0.11686,0.03426 -0.42577,0.0595 -0.9375,0 a 0.96877,0.96877 0 0 0 -0.25,0 c -7.662,1.038 -15.413,3.02 -22.248,6.907 a 0.96877,0.96877 0 0 0 -0.219,0.188 c -0.85594,0.89033 -0.99729,2.0348 -0.96875,2.9688 0.028539,0.93391 0.14955,1.7571 0.0625,2.3125 a 0.96877,0.96877 0 0 0 0,0.15625 c 0.0899,5.692 -0.202,11.491 0.1562,17.281 a 0.96877,0.96877 0 0 0 0,0.09375 c 0.84857,4.8 5.7015,7.6892 10.281,7.1562 0.02083,-0.0024 0.04168,0.0026 0.0625,0 2.0081,-0.09393 4.2325,0.25214 6.5312,-0.15625 a 0.96877,0.96877 0 0 0 0.21875,-0.09375 c 2.4644,-1.0662 2.0143,-4.9771 -0.59375,-5.4375 l 0,-0.03125 c -7.7898,-2.0474 -9.555,-14.744 -2.3438,-18.625 5.3696,-3.0544 11.905,-3.3335 18.25,-3.8438 2.2584,1.7164 4.8005,3.2368 6.9375,4.9688 2.2163,1.7962 3.9558,3.7834 4.6562,6.5 0.0025,0.0096 -0.0024,0.02167 0,0.03125 0.5575,3.8727 0.10156,8.2377 -3.0312,10.562 -0.81083,0.48723 -1.5307,1.2465 -1.9062,2.1875 -0.39006,0.97728 -0.27391,2.3073 0.6875,3.1875 a 0.96877,0.96877 0 0 0 0.125,0.095 c 1.0024,0.68447 2.1255,0.72055 3.0938,0.6875 0.96823,-0.03305 1.8367,-0.12003 2.5,-0.03125 a 0.96877,0.96877 0 0 0 0.21875,0 c 0.67363,-0.06745 1.7014,0.09318 2.7812,0.03125 1.0302,-0.05908 2.2236,-0.5176 2.9375,-1.6562 l 0.03125,0.03125 c 0.0386,-0.04543 0.05525,-0.11062 0.09375,-0.15625 4.4626,-5.2894 8.2619,-11.973 7.4062,-19.375 -0.0013,-0.02106 0.0013,-0.04147 0,-0.0625 -0.55846,-8.7639 -7.4906,-14.925 -13.594,-19.781 -0.0056,-0.0047 -0.02559,0.0047 -0.03125,0 -1.282,-1.0604 -2.9845,-2.3071 -3.9062,-3.5312 -0.46289,-0.61476 -0.70351,-1.1604 -0.71875,-1.6875 -0.01524,-0.52706 0.16143,-1.104 0.84375,-1.8438 3.2573,-3.5334 7.6706,-6.4735 10.031,-11.375 0.01038,-0.02156 0.02094,-0.04086 0.03125,-0.0625 4.3218,-7.8075 3.8347,-17.998 -1.6875,-25.125 a 0.96877,0.96877 0 0 0 -0.063,-0.061 c -0.59,-0.6237 -1.152,-1.595 -1.813,-2.5625 -0.661,-0.9675 -1.477,-1.9825 -2.781,-2.4687 a 0.96877,0.96877 0 0 0 -0.21875,-0.0625 c -3.4194,-0.42285 -6.8539,-0.61668 -10.125,-1.125 a 0.96877,0.96877 0 0 0 -0.15625,0 z m -10.438,6.875 a 0.96877,0.96877 0 0 0 0.125,0 c 3.2607,-0.35709 6.4747,0.95622 8.0312,3.8438 a 0.96877,0.96877 0 0 0 0.032,0.094 c 4.0601,5.9291 6.3304,13.805 4.0312,20.656 -2.2359,4.6134 -9.349,6.4288 -13.219,2.8125 a 0.96877,0.96877 0 0 0 -0.031,-0.031 c -6.562,-5.598 -8.994,-15.576 -6.469,-23.719 0.43654,-1.5278 1.4276,-2.4075 2.8125,-2.9688 1.3849,-0.56125 3.1289,-0.72896 4.6875,-0.6875 z" />
      <path
         style="opacity:0.1"
         inkscape:connector-curvature="0"
         id="path1901"
         d="M 38,4 C 28.903,4.0974 19.784,3.8781 10.702,4.1933 5.9604,5.2394 3.5797,10.392 4.0654,14.9043 c 0.0516,6.425 -0.0639,12.871 0.0908,19.284 3.3237,6.6738 9.615,12.263 17.283,13.004 2.6104,0.81195 7.3988,-1.0499 5.8207,3.3365 -1.0128,2.7517 4.0311,7.8299 -0.66734,7.2836 -7.5876,1.0272 -15.222,2.9815 -21.905,6.7821 -1.2108,1.2595 -0.37989,3.2272 -0.625,4.7911 0.090602,5.7347 -0.19189,11.493 0.16178,17.211 0.75191,4.2532 5.1395,6.8488 9.2566,6.3415 2.1554,-0.11033 4.3785,0.2185 6.4879,-0.15625 1.639,-0.71 1.327,-3.442 -0.469,-3.657 -8.685,-2.283 -10.583,-16.089 -2.557,-20.409 5.738,-3.264 12.545,-3.471 18.963,-3.997 4.5257,3.5328 10.824,6.2518 12.325,12.333 0.59061,4.0601 0.10069,8.8718 -3.4585,11.513 -1.3062,0.74455 -2.4729,2.6307 -1.1164,3.8727 1.4902,1.0175 3.4821,0.27234 5.1829,0.5 1.7349,-0.17371 4.074,0.66075 5.1138,-1.2404 4.439,-5.225 8.096,-11.768 7.251,-18.862 -0.5,-8.319 -7.149,-14.3 -13.236,-19.142 -2.454,-2.033 -7.144,-4.962 -3.915,-8.462 3.379,-3.666 7.707,-6.575 9.916,-11.213 4.167,-7.472 3.685,-17.317 -1.592,-24.128 -1.428,-1.5112 -2.197,-4.0118 -4.221,-4.766 -3.375,-0.4174 -6.82,-0.6066 -10.156,-1.125 z M 27.594,8.9375 c 3.5902,-0.39317 7.2105,1.0755 8.9723,4.3438 4.2157,6.1564 6.6071,14.391 4.1044,21.662 -2.5349,5.2304 -10.35,7.2051 -14.751,3.0925 -6.9,-5.886 -9.431,-16.244 -6.788,-24.765 1.049,-3.668 5.173,-4.421 8.462,-4.3335 z" />
      <path
         style="opacity:0.15"
         inkscape:connector-curvature="0"
         id="path1903"
         d="M 38,5.0625 C 26.293,5.0826 12,5.125 12,5.125 10.02,5.125 8.3014,6.2327 7.0938,7.7188 5.8861,9.2048 5.125,11.107 5.125,13 l 0.03125,20.656 a 0.86164,0.86164 0 0 0 0.125,0.4375 c 2.7905,4.9337 5.9769,8.2019 9.9375,10.156 3.707,1.8292 8.1264,2.4138 13.344,2.3438 -0.95714,5.3162 0.31695,8.8541 2.125,11.812 -9.272,0.761 -17.539,2.926 -25.094,6.844 a 0.86164,0.86164 0 0 0 -0.469,0.75 l 0,19 c 0,3.7864 3.0886,6.875 6.875,6.875 l 7,0 a 0.86844307,0.86844307 0 0 0 0.25,-1.7188 c -3.11,-0.882 -5.256,-2.818 -6.625,-5.156 -1.3692,-2.3382 -1.9275,-5.07 -1.8438,-7.375 0.22489,-6.1885 3.6576,-9.3556 8.625,-11.281 4.888,-1.8948 11.203,-2.3487 16.812,-2.7188 2.7835,2.1284 6.1645,4.0797 8.8125,6.5 2.7409,2.5052 4.6484,5.397 4.4688,9.6562 -0.12111,2.8713 -0.40599,4.6142 -1.125,6.0625 -0.71901,1.4483 -1.8989,2.6775 -3.9375,4.5 a 0.86164,0.86164 0 0 0 0.563,1.531 l 4,0 3,0 A 0.86164,0.86164 0 0 0 52.656,91.5619 c 2.3706,-2.871 5.0756,-6.4647 6.5312,-10.438 1.0843,-3.2131 1.3247,-7.5709 0.5625,-10.812 -1.2211,-5.193 -4.5338,-9.3712 -11.938,-15.344 -2.9362,-2.3686 -4.514,-3.7879 -5.25,-4.8125 -0.73599,-1.0246 -0.77764,-1.5972 -0.59375,-2.9688 0.2175,-1.6222 1.3929,-3.211 4.8438,-6.125 6.2268,-5.2879 10.12,-12.847 8.5,-22.094 -0.82972,-4.7354 -3.8285,-8.6449 -6.8438,-12.5 a 0.86164,0.86164 0 0 0 -0.593,-0.3118 l -9.437,-0.9687 a 0.86164,0.86164 0 0 0 -0.438,-0.125 z M 27.594,7.875 c 2.7462,-5.425e-4 4.5033,0.1806 5.9688,0.9375 1.4654,0.7569 2.769,2.1337 4.5312,4.7812 2.2853,3.4333 3.8131,7.7373 4.4062,11.812 0.59314,4.0752 0.21871,7.9394 -1.0625,10.469 -1.2433,2.4544 -4.1852,4.5484 -7.6562,5.2812 -2.789,0.589 -5.318,-0.073 -7.657,-1.656 -2.339,-1.583 -4.453,-4.111 -6.125,-7.219 -2.551,-4.742 -3.827,-11.862 -2.344,-17.812 a 0.86164,0.86164 0 0 0 0,-0.03125 c 0.707,-3.029 2.054,-4.5691 3.782,-5.4692 1.727,-0.9002 3.915,-1.0917 6.156,-1.0938 z" />
      <path
         style="opacity:0.3"
         inkscape:connector-curvature="0"
         id="path1905"
         d="M 38,5.9375 C 26.293,5.9576 12,6 12,6 8.676,6 6,9.676 6,13 l 0.0313,20.656 c 5.4662,9.6642 12.241,12.479 23.5,12.125 -1.4739,6.4539 0.35228,9.9963 2.5938,13.344 -9.756,0.643 -18.305,2.819 -26.125,6.875 l 0,19 c 0,3.324 2.676,6 6,6 l 7,0 c -6.667,-1.891 -9.2733,-8.466 -9.0938,-13.406 0.4728,-13.022 15.172,-14.13 26.532,-14.875 5.505,4.308 14.32,8.009 13.937,17.093 -0.246,5.835 -1.253,7.503 -5.375,11.188 l 4,0 3,0 c 2.35,-2.847 4.981,-6.352 6.375,-10.156 1.017,-3.014 1.243,-7.319 0.531,-10.344 -1.166,-4.961 -4.275,-8.946 -11.625,-14.875 -5.89,-4.752 -6.544,-5.669 -6.156,-8.563 0.261,-1.947 1.63,-3.705 5.125,-6.656 6.058,-5.144 9.785,-12.34 8.219,-21.281 C 53.6873,14.664 50.7913,10.849 47.7813,7 L 38.0003,6 Z M 27.594,7 c 5.5682,-0.0011 7.6298,0.73317 11.219,6.125 4.7401,7.1213 6.2204,17.569 3.4062,23.125 -1.3959,2.7558 -4.5538,4.9696 -8.25,5.75 -6.048,1.277 -11.277,-2.914 -14.719,-9.312 -2.662,-4.948 -3.987,-12.223 -2.438,-18.438 1.502,-6.428 6.199,-7.2458 10.782,-7.25 z" />
      <path
         inkscape:connector-curvature="0"
         style="fill:url(#linearGradient16678)"
         id="path1907"
         d="M 38,5.9375 C 26.293,5.9576 12,6 12,6 8.676,6 6,8.676 6,12 l 0.0313,20.656 c 5.4662,9.6642 12.241,12.479 23.5,12.125 -1.4739,6.4539 0.35228,9.9963 2.5938,13.344 -9.756,0.643 -18.305,2.819 -26.125,6.875 l 0,19 c 0,3.324 2.676,6 6,6 l 7,0 c -6.667,-1.891 -9.2733,-8.466 -9.0938,-13.406 0.4728,-13.022 15.172,-14.13 26.532,-14.875 5.505,4.308 14.32,8.009 13.937,17.093 -0.246,5.835 -1.253,7.503 -5.375,11.188 l 4,0 3,0 c 2.35,-2.847 4.981,-6.352 6.375,-10.156 1.017,-3.014 1.243,-7.319 0.531,-10.344 -1.166,-4.961 -4.275,-8.946 -11.625,-14.875 -5.89,-4.752 -6.544,-5.669 -6.156,-8.563 0.261,-1.947 1.63,-3.705 5.125,-6.656 6.058,-5.144 9.785,-12.34 8.219,-21.281 C 53.6873,13.664 50.7913,9.8486 47.7813,6 l -9.781,0 z M 27.594,6 c 5.5682,-0.0011 7.6298,0.73317 11.219,6.125 4.7401,7.1213 6.2204,17.569 3.4062,23.125 -1.3959,2.7558 -4.5538,4.9696 -8.25,5.75 -6.048,1.277 -11.277,-2.914 -14.719,-9.312 -2.662,-4.948 -3.987,-12.223 -2.438,-18.438 0.707,-2.833 2.475,-4.8189 4.969,-6.25 1.665,-0.955 1.918,-0.9993 5.813,-1 z" />
    </g>
  </g>
  <g
     id="g14291">
    <path
       d="m 5.2922679,73.685059 0,5.0663 c 0,6.668 5.3645011,12.032 12.0320011,12.032 l 61.049,0 c 6.668,0 12.032,-5.3645 12.032,-12.032 l 0,-5.0663 c 0,6.6681 -5.3645,12.032 -12.032,12.032 l -61.049,0 c -6.668,0 -12.0320011,-5.3643 -12.0320011,-12.032 z"
       id="path64"
       inkscape:connector-curvature="0"
       style="opacity:0.4;fill:url(#linearGradient14237);fill-opacity:1" />
    <path
       inkscape:connector-curvature="0"
       id="path14214"
       d="m 5.2929688,72.717592 0,1.15039 c 0,6.667718 5.3632502,12.031248 12.0312502,12.031248 l 61.048828,0 c 6.6675,0 12.03125,-5.36313 12.03125,-12.031248 l 0,-1.15039 c 0,6.668098 -5.36375,12.031248 -12.03125,12.031248 l -61.048828,0 c -6.668,0 -12.0312502,-5.36355 -12.0312502,-12.031248 z"
       style="opacity:0.5;fill:url(#linearGradient14245);fill-opacity:1" />
  </g>
</svg>
