<?xml version="1.0" encoding="UTF-8" standalone="no"?>
<svg
   xmlns:dc="http://purl.org/dc/elements/1.1/"
   xmlns:cc="http://creativecommons.org/ns#"
   xmlns:rdf="http://www.w3.org/1999/02/22-rdf-syntax-ns#"
   xmlns:svg="http://www.w3.org/2000/svg"
   xmlns="http://www.w3.org/2000/svg"
   xmlns:xlink="http://www.w3.org/1999/xlink"
   xmlns:sodipodi="http://sodipodi.sourceforge.net/DTD/sodipodi-0.dtd"
   xmlns:inkscape="http://www.inkscape.org/namespaces/inkscape"
   height="96"
   width="96"
   id="svg2"
   version="1.1"
   inkscape:version="0.91 r13725"
   sodipodi:docname="google-pacman.svg">
  <metadata
     id="metadata61">
    <rdf:RDF>
      <cc:Work
         rdf:about="">
        <dc:format>image/svg+xml</dc:format>
        <dc:type
           rdf:resource="http://purl.org/dc/dcmitype/StillImage" />
        <dc:title />
      </cc:Work>
    </rdf:RDF>
  </metadata>
  <sodipodi:namedview
     pagecolor="#ffffff"
     bordercolor="#666666"
     borderopacity="1"
     objecttolerance="10"
     gridtolerance="10"
     guidetolerance="10"
     inkscape:pageopacity="0"
     inkscape:pageshadow="2"
     inkscape:window-width="1366"
     inkscape:window-height="719"
     id="namedview59"
     showgrid="false"
     inkscape:zoom="3.4766083"
     inkscape:cx="1.8299545"
     inkscape:cy="60.237349"
     inkscape:window-x="0"
     inkscape:window-y="24"
     inkscape:window-maximized="1"
     inkscape:current-layer="svg2" />
  <defs
     id="defs4">
    <linearGradient
       inkscape:collect="always"
       id="linearGradient3866">
      <stop
         style="stop-color:white;stop-opacity:1;"
         offset="0"
         id="stop3868" />
      <stop
         style="stop-color:white;stop-opacity:0;"
         offset="1"
         id="stop3870" />
    </linearGradient>
    <linearGradient
       id="linearGradient3843">
      <stop
         style="stop-color:black;stop-opacity:1;"
         offset="0"
         id="stop3845" />
      <stop
         style="stop-color:#3e3e3e;stop-opacity:1;"
         offset="1"
         id="stop3847" />
    </linearGradient>
    <linearGradient
       x2="0"
       y1="90"
       y2="5.988"
       gradientUnits="userSpaceOnUse"
       id="linearGradient3002"
       inkscape:collect="always"
       gradientTransform="matrix(1.0631 0 0 1.0631 -2.975 -3.439)">
      <stop
         stop-color="#da9614"
         stop-opacity="1"
         id="stop7" />
      <stop
         stop-color="#f0c12e"
         stop-opacity="1"
         offset="1"
         id="stop9" />
    </linearGradient>
    <path
       d="m 23.798255,43.154305 0,-6.427268 c -2e-6,-2.468162 0.413447,-4.322421 1.24035,-5.562782 0.839424,-1.240336 2.593453,-2.518271 5.26209,-3.833809 0.463556,-0.225502 1.102524,-0.526192 1.916905,-0.902072 2.793906,-1.302976 4.190864,-2.631026 4.190879,-3.984155 -1.5e-5,-0.714119 -0.162889,-1.284178 -0.488623,-1.710179 -0.325762,-0.425956 -0.75174,-0.638945 -1.277936,-0.638968 -0.613923,2.3e-5 -1.083752,0.231805 -1.409489,0.695348 -0.31323,0.463587 -0.46984,1.133876 -0.469829,2.01087 l 0,1.916904 -8.400552,0 0,-7.74279 c 1.553566,-1.002276 3.194835,-1.741474 4.923814,-2.217595 1.741492,-0.488594 3.658394,-0.732905 5.750713,-0.732934 3.508043,2.9e-5 6.1015,0.732962 7.780377,2.198802 1.691363,1.465893 2.537055,3.733601 2.537079,6.803131 -2.4e-5,1.415772 -0.181691,2.606005 -0.545002,3.570704 -0.350829,0.964733 -0.927153,1.841747 -1.728973,2.631046 -0.651518,0.626452 -2.518305,1.716456 -5.600368,3.270013 -0.826915,0.41346 -1.465882,0.732944 -1.916904,0.958452 -1.378179,0.71415 -2.248929,1.290474 -2.612252,1.728973 -0.363346,0.425986 -0.545013,0.952195 -0.545002,1.578627 l 0,0.263105 1.465868,0 c 0.977232,6e-6 1.628728,-0.181661 1.95449,-0.545003 0.338263,-0.363327 0.526195,-1.115054 0.563796,-2.255181 l 8.381758,0 0,8.926761 -20.973189,0"
       id="SVGCleanerId_0" />
    <path
       d="m 61.967204,34.67858 0,-11.802117 c -1.5e-5,-1.052397 -0.137831,-1.791595 -0.41345,-2.217596 -0.275647,-0.425955 -0.726683,-0.638945 -1.353109,-0.638968 -0.626452,2.3e-5 -1.077488,0.213013 -1.353109,0.638968 -0.275645,0.426001 -0.413461,1.165199 -0.41345,2.217596 l 0,11.802117 c -1.1e-5,1.039897 0.131541,1.77283 0.394657,2.198802 0.275621,0.413456 0.732921,0.620181 1.371902,0.620175 0.626426,6e-6 1.077462,-0.212983 1.353109,-0.638968 0.275619,-0.438501 0.413435,-1.16517 0.41345,-2.180009 M 49.544911,24.379917 c -2e-6,-3.946545 0.776782,-6.665289 2.330355,-8.15624 1.553563,-1.490898 4.328687,-2.23636 8.325379,-2.236389 3.996666,2.9e-5 6.778054,0.745491 8.344172,2.236389 1.566076,1.490951 2.349124,4.209695 2.349148,8.15624 l 0,8.889175 c -2.4e-5,3.908987 -0.783072,6.615202 -2.349148,8.118654 -1.553589,1.490925 -4.334977,2.236388 -8.344172,2.236388 -3.996692,0 -6.771816,-0.745463 -8.325379,-2.236388 -1.553573,-1.490923 -2.330357,-4.197138 -2.330355,-8.118654 l 0,-8.889175"
       id="SVGCleanerId_1" />
    <path
       d="m 35.224509,63.399823 0,-7.310548 -4.811055,7.310548 4.811055,0 m -1.616214,12.854535 0,-5.074159 c 0.501139,-0.125282 0.864474,-0.325743 1.090005,-0.601381 0.225504,-0.275628 0.338263,-0.670284 0.338277,-1.183971 l 0,-0.150345 -11.632979,0 0,-6.878304 9.941593,-14.865406 10.22349,0 0,15.899031 1.935697,0 0,5.844679 -1.916904,0 c 0.01251,0.588859 0.100208,1.027366 0.263104,1.315522 0.175381,0.275639 0.469807,0.482364 0.88328,0.620175 l 0,5.074159 -11.125563,0"
       id="SVGCleanerId_2" />
    <path
       d="m 53.153202,61.238607 c -1.265412,-0.526194 -2.167484,-1.227805 -2.706218,-2.104836 -0.526212,-0.889526 -0.789316,-2.136139 -0.789314,-3.739843 -2e-6,-2.894126 0.833162,-4.99896 2.499493,-6.314509 1.678851,-1.328023 4.360009,-1.992048 8.043482,-1.992077 3.695975,2.9e-5 6.377133,0.65779 8.043481,1.973284 1.666306,1.315548 2.49947,3.426647 2.499493,6.333302 -2.3e-5,1.616232 -0.263128,2.862846 -0.789314,3.739843 -0.513702,0.877031 -1.403245,1.578642 -2.668631,2.104836 1.340559,0.513695 2.336596,1.321801 2.988116,2.42432 0.651473,1.090016 0.977221,2.518296 0.977245,4.284845 -2.4e-5,2.956799 -0.90836,5.161864 -2.725011,6.6152 -1.816694,1.440811 -4.591817,2.161215 -8.325379,2.161216 -3.733588,-10e-7 -6.508711,-0.720405 -8.325379,-2.161216 -1.816677,-1.453336 -2.725013,-3.658401 -2.725011,-6.6152 -2e-6,-1.766549 0.325746,-3.194829 0.977245,-4.284845 0.664022,-1.089991 1.672589,-1.898097 3.025702,-2.42432 m 5.280884,5.656747 0,0.88328 c -1.1e-5,1.039896 0.131541,1.77283 0.394657,2.198802 0.275621,0.413456 0.732921,0.62018 1.371902,0.620175 0.626426,5e-6 1.077462,-0.212984 1.353109,-0.638968 0.275619,-0.438501 0.413435,-1.16517 0.41345,-2.180009 l 0,-0.88328 c -1.5e-5,-1.014821 -0.137831,-1.735226 -0.41345,-2.161216 -0.275647,-0.425966 -0.726683,-0.638956 -1.353109,-0.638968 -0.626452,1.2e-5 -1.077488,0.213002 -1.353109,0.638968 -0.275645,0.42599 -0.413461,1.146395 -0.41345,2.161216 m 3.533118,-10.918838 c -1.5e-5,-1.027339 -0.137831,-1.760272 -0.41345,-2.198802 -0.275647,-0.438484 -0.726683,-0.657738 -1.353109,-0.657761 -0.626452,2.3e-5 -1.077488,0.213012 -1.353109,0.638968 -0.275645,0.426001 -0.413461,1.165199 -0.41345,2.217595 -1.1e-5,1.02738 0.131541,1.754049 0.394657,2.180009 0.275621,0.413468 0.732921,0.620193 1.371902,0.620175 0.638954,1.8e-5 1.08999,-0.206707 1.353109,-0.620175 0.275619,-0.413431 0.413435,-1.1401 0.41345,-2.180009"
       id="SVGCleanerId_3" />
    <linearGradient
       inkscape:collect="always"
       xlink:href="#linearGradient3843"
       id="linearGradient3849"
       x1="53.415756"
       y1="70.359421"
       x2="53.415756"
       y2="21.014238"
       gradientUnits="userSpaceOnUse"
       gradientTransform="matrix(1.1828829,0,0,1.1828829,-9.7416492,-7.3942533)" />
    <linearGradient
       inkscape:collect="always"
       xlink:href="#linearGradient3843"
       id="linearGradient3861"
       gradientUnits="userSpaceOnUse"
       gradientTransform="matrix(1.1828829,0,0,1.1828829,-88.453514,-15.529847)"
       x1="53.415756"
       y1="70.359421"
       x2="53.415756"
       y2="21.014238" />
    <linearGradient
       inkscape:collect="always"
       xlink:href="#linearGradient3866"
       id="linearGradient3872"
       x1="49.190643"
       y1="-0.22626133"
       x2="48.353802"
       y2="77.307297"
       gradientUnits="userSpaceOnUse" />
    <linearGradient
       inkscape:collect="always"
       xlink:href="#linearGradient14231"
       id="linearGradient14237"
       x1="50.707542"
       y1="81.682442"
       x2="50.707542"
       y2="96.539803"
       gradientUnits="userSpaceOnUse" />
    <linearGradient
       inkscape:collect="always"
       id="linearGradient14231">
      <stop
         style="stop-color:#000000;stop-opacity:1;"
         offset="0"
         id="stop14233" />
      <stop
         style="stop-color:#000000;stop-opacity:0;"
         offset="1"
         id="stop14235" />
    </linearGradient>
    <linearGradient
       inkscape:collect="always"
       xlink:href="#linearGradient3866"
       id="linearGradient14245"
       x1="49.876652"
       y1="87.937508"
       x2="49.876652"
       y2="76.719681"
       gradientUnits="userSpaceOnUse" />
  </defs>
  <rect
     x="3"
     rx="12.724"
     y="2.99"
     fill-opacity="0.02"
     height="89.98"
     width="89.98"
     id="rect15" />
  <rect
     x="3.608"
     rx="12.552"
     y="3.6"
     fill-opacity="0.039"
     height="88.76"
     width="88.76"
     id="rect17" />
  <rect
     x="4.216"
     rx="12.38"
     y="4.21"
     fill-opacity="0.078"
     height="87.55"
     width="87.55"
     id="rect19" />
  <rect
     x="4.824"
     rx="12.208"
     y="4.82"
     fill-opacity="0.157"
     height="86.33"
     width="86.33"
     id="rect21" />
  <path
     d="m 17.469,5.4062 c -6.668,0 -12.032,5.3948 -12.032,12.063 l 5e-4,61.031 c 0,6.668 5.3635,12.031 12.032,12.031 h 61.03 c 6.668,0 12.031,-5.363 12.031,-12.031 v -61.031 c 0,-6.668 -5.363,-12.063 -12.031,-12.063 l -61.031,2e-4 z"
     fill="url(#linearGradient3002)"
     inkscape:connector-curvature="0"
     id="path23" />
  <path
     style="opacity:0.2;fill:black;fill-opacity:1;fill-rule:evenodd;stroke:none"
     inkscape:connector-curvature="0"
     d="M 48.960168,17.627386 C 37.801195,17.580212 27.041339,23.816494 21.827791,34.520433 14.574153,49.41287 20.797267,67.336956 35.6897,74.590592 50.582141,81.844228 68.506227,75.658084 75.75986,60.765648 L 48.812308,47.64304 77.201498,37.921221 C 74.618579,30.368059 69.111422,24.19094 61.934915,20.695488 57.746415,18.655403 53.326722,17.645846 48.960168,17.627386 z m 13.381363,10.867737 c 2.095613,-0.0089 3.990317,1.454303 4.435811,3.585614 0.50911,2.435663 -1.038932,4.813836 -3.474718,5.322973 -2.43566,0.509111 -4.850803,-1.038936 -5.359939,-3.474719 -0.50911,-2.435665 1.075897,-4.850803 3.511684,-5.359938 0.304458,-0.06364 0.587789,-0.07266 0.887162,-0.07393 z"
     id="path3853" />
  <path
     id="path3855"
     d="M 48.960168,18.440946 C 37.801195,18.393772 27.041339,24.630054 21.827791,35.333993 14.574153,50.22643 20.797267,68.150516 35.6897,75.404152 50.582141,82.657788 68.506227,76.471644 75.75986,61.579208 L 48.812308,48.4566 77.201498,38.734781 C 74.618579,31.181619 69.111422,25.0045 61.934915,21.509048 57.746415,19.468963 53.326722,18.459406 48.960168,18.440946 z m 13.381363,10.867737 c 2.095613,-0.0089 3.990317,1.454303 4.435811,3.585614 0.50911,2.435663 -1.038932,4.813836 -3.474718,5.322973 -2.43566,0.509111 -4.850803,-1.038936 -5.359939,-3.474719 -0.50911,-2.435665 1.075897,-4.850803 3.511684,-5.359938 0.304458,-0.06364 0.587789,-0.07266 0.887162,-0.07393 z"
     inkscape:connector-curvature="0"
     style="opacity:0.2;fill:black;fill-opacity:1;fill-rule:evenodd;stroke:none" />
  <path
     id="path3851"
     d="M 48.960168,16.813826 C 37.801195,16.766652 27.041339,23.002934 21.827791,33.706873 14.574153,48.59931 20.797267,66.523396 35.6897,73.777032 50.582141,81.030668 68.506227,74.844524 75.75986,59.952088 L 48.812308,46.82948 77.201498,37.107661 C 74.618579,29.554499 69.111422,23.37738 61.934915,19.881928 57.746415,17.841843 53.326722,16.832286 48.960168,16.813826 z m 13.381363,10.867737 c 2.095613,-0.0089 3.990317,1.454303 4.435811,3.585614 0.50911,2.435663 -1.038932,4.813836 -3.474718,5.322973 -2.43566,0.509111 -4.850803,-1.038936 -5.359939,-3.474719 -0.50911,-2.435665 1.075897,-4.850803 3.511684,-5.359938 0.304458,-0.06364 0.587789,-0.07266 0.887162,-0.07393 z"
     inkscape:connector-curvature="0"
     style="opacity:0.2;fill:black;fill-opacity:1;fill-rule:evenodd;stroke:none" />
  <path
     style="fill:url(#linearGradient3849);fill-opacity:1;fill-rule:evenodd;stroke:none"
     inkscape:connector-curvature="0"
     d="M 48.960168,16.000266 C 37.801195,15.953092 27.041339,22.189374 21.827791,32.893313 14.574153,47.78575 20.797267,65.709836 35.6897,72.963472 50.582141,80.217108 68.506227,74.030964 75.75986,59.138528 L 48.812308,46.01592 77.201498,36.294101 C 74.618579,28.740939 69.111422,22.56382 61.934915,19.068368 57.746415,17.028283 53.326722,16.018726 48.960168,16.000266 z m 13.381363,10.867737 c 2.095613,-0.0089 3.990317,1.454303 4.435811,3.585614 0.50911,2.435663 -1.038932,4.813836 -3.474718,5.322973 -2.43566,0.509111 -4.850803,-1.038936 -5.359939,-3.474719 -0.50911,-2.435665 1.075897,-4.850803 3.511684,-5.359938 0.304458,-0.06364 0.587789,-0.07266 0.887162,-0.07393 z"
     id="path3042" />
  <path
     style="fill:url(#linearGradient3872);fill-opacity:1;fill-rule:evenodd;stroke:none"
     d="m 49.011286,15.866769 c -11.158973,-0.04717 -21.911452,6.171061 -27.125,16.875 -2.104116,4.319959 -3.077791,8.910544 -3.03125,13.40625 0.07173,-4.232838 1.053834,-8.533918 3.03125,-12.59375 5.213548,-10.703939 15.966027,-16.922174 27.125,-16.875 4.366554,0.01846 8.78025,1.022415 12.96875,3.0625 6.946232,3.383292 12.31957,9.275973 15,16.5 l 0.28125,-0.09375 c -2.582919,-7.553162 -8.104743,-13.723298 -15.28125,-17.21875 -4.1885,-2.040085 -8.602196,-3.04404 -12.96875,-3.0625 z m 8.90625,15.78125 c -0.03934,0.432462 -0.03059,0.867139 0.0625,1.3125 0.509136,2.435783 2.93934,4.009111 5.375,3.5 2.246654,-0.469604 3.712674,-2.553018 3.53125,-4.78125 -0.191925,1.896394 -1.562993,3.557338 -3.53125,3.96875 -2.43566,0.509111 -4.865864,-1.064217 -5.375,-3.5 -0.03519,-0.168347 -0.04691,-0.332471 -0.0625,-0.5 z m -8.09375,14.6875 -0.96875,0.34375 26.625,12.96875 c 0.11294,-0.218323 0.235516,-0.434034 0.34375,-0.65625 l -26,-12.65625 z"
     id="path3859"
     inkscape:connector-curvature="0" />
  <g
     id="g14291">
    <path
       d="m 5.2922679,73.685059 0,5.0663 c 0,6.668 5.3645011,12.032 12.0320011,12.032 l 61.049,0 c 6.668,0 12.032,-5.3645 12.032,-12.032 l 0,-5.0663 c 0,6.6681 -5.3645,12.032 -12.032,12.032 l -61.049,0 c -6.668,0 -12.0320011,-5.3643 -12.0320011,-12.032 z"
       id="path64"
       inkscape:connector-curvature="0"
       style="opacity:0.4;fill:url(#linearGradient14237);fill-opacity:1" />
    <path
       inkscape:connector-curvature="0"
       id="path14214"
       d="m 5.2929688,72.717592 0,1.15039 c 0,6.667718 5.3632502,12.031248 12.0312502,12.031248 l 61.048828,0 c 6.6675,0 12.03125,-5.36313 12.03125,-12.031248 l 0,-1.15039 c 0,6.668098 -5.36375,12.031248 -12.03125,12.031248 l -61.048828,0 c -6.668,0 -12.0312502,-5.36355 -12.0312502,-12.031248 z"
       style="opacity:0.5;fill:url(#linearGradient14245);fill-opacity:1" />
  </g>
</svg>
