<?xml version="1.0" encoding="UTF-8" standalone="no"?>
<svg
   xmlns:dc="http://purl.org/dc/elements/1.1/"
   xmlns:cc="http://creativecommons.org/ns#"
   xmlns:rdf="http://www.w3.org/1999/02/22-rdf-syntax-ns#"
   xmlns:svg="http://www.w3.org/2000/svg"
   xmlns="http://www.w3.org/2000/svg"
   xmlns:xlink="http://www.w3.org/1999/xlink"
   xmlns:sodipodi="http://sodipodi.sourceforge.net/DTD/sodipodi-0.dtd"
   xmlns:inkscape="http://www.inkscape.org/namespaces/inkscape"
   height="96"
   width="96"
   id="svg3273"
   version="1.1"
   inkscape:version="0.91 r13725"
   sodipodi:docname="gnochm.svg">
  <metadata
     id="metadata3342">
    <rdf:RDF>
      <cc:Work
         rdf:about="">
        <dc:format>image/svg+xml</dc:format>
        <dc:type
           rdf:resource="http://purl.org/dc/dcmitype/StillImage" />
      </cc:Work>
    </rdf:RDF>
  </metadata>
  <sodipodi:namedview
     pagecolor="#ffffff"
     bordercolor="#666666"
     borderopacity="1"
     objecttolerance="10"
     gridtolerance="10"
     guidetolerance="10"
     inkscape:pageopacity="0"
     inkscape:pageshadow="2"
     inkscape:window-width="640"
     inkscape:window-height="480"
     id="namedview3340"
     showgrid="false"
     inkscape:zoom="2.4583333"
     inkscape:cx="48"
     inkscape:cy="48"
     inkscape:current-layer="svg3273" />
  <defs
     id="defs3275">
    <clipPath
       id="clipPath3644">
      <path
         d="m12 96c-3.324 0-6 2.676-6 6v72c0 3.324 2.676 6 6 6h72c3.324 0 6-2.676 6-6v-72c0-3.324-2.676-6-6-6h-72zm36 11c18.225 0 33 12.088 33 27s-14.775 27-33 27c-2.7139 0-5.3515-0.27575-7.875-0.78125-3.3926 3.5412-9.7833 8.2333-19.406 7.1875 7.4297-2.1002 8.9991-8.2412 9.3438-10.75-9.063-4.82-15.063-13.16-15.063-22.66 0-14.91 14.775-27 33-27z"
         id="path3278" />
    </clipPath>
    <filter
       x="-0.173"
       y="-0.188"
       height="1.376"
       color-interpolation-filters="sRGB"
       id="filter3678"
       width="1.345">
      <feGaussianBlur
         stdDeviation="4.74581"
         id="feGaussianBlur3281" />
    </filter>
    <filter
       x="-0.19"
       y="-0.116"
       height="1.232"
       color-interpolation-filters="sRGB"
       id="filter3789"
       width="1.379">
      <feGaussianBlur
         stdDeviation="1.84777"
         id="feGaussianBlur3284" />
    </filter>
    <linearGradient
       x2="0"
       y1="63.05"
       y2="24.84"
       gradientUnits="userSpaceOnUse"
       id="linearGradient3703-8">
      <stop
         stop-color="#dcdcdc"
         id="stop3287" />
      <stop
         stop-color="#f0f0f0"
         offset="1"
         id="stop3289" />
    </linearGradient>
    <linearGradient
       x1="15"
       x2="106.51"
       y1="47.28"
       y2="47.02"
       gradientUnits="userSpaceOnUse"
       id="linearGradient15415"
       gradientTransform="matrix(1.0837,0,0,1.0837,-3.773,-4.3)">
      <stop
         stop-color="#154a99"
         id="stop3292" />
      <stop
         stop-color="#154a99"
         stop-opacity="0"
         offset="1"
         id="stop3294" />
    </linearGradient>
    <linearGradient
       x2="0"
       y1="90"
       y2="5.988"
       gradientUnits="userSpaceOnUse"
       id="linearGradient15426"
       gradientTransform="matrix(1.1118,0,0,1.1118,-6.503,-8.518)">
      <stop
         stop-color="#2557a3"
         id="stop3297" />
      <stop
         stop-color="#5287d7"
         offset="1"
         id="stop3299" />
    </linearGradient>
    <path
       d="m57.813 34.824c-0.000024 2.4-0.73602 4.464-2.208 6.192-0.44802 0.57602-1.792 1.744-4.032 3.504-1.472 1.184-2.208 2.288-2.208 3.312v1.68h-8.88v-2.736c-0.000006-1.824 0.70399-3.52 2.112-5.088 0.03199-0.06398 1.328-1.248 3.888-3.552 1.408-1.248 2.112-2.4 2.112-3.456-0.000015-0.70397-0.27201-1.28-0.816-1.728-0.54401-0.47997-1.184-0.71997-1.92-0.72-0.96001 0.000028-1.68 0.35203-2.16 1.056-0.48001 0.70403-0.70401 1.552-0.672 2.544h-8.592v-0.768c0-3.168 1.168-5.696 3.504-7.584 2.144-1.76 4.832-2.64 8.064-2.64 3.2 0.000036 5.92 0.84804 8.16 2.544 2.432 1.856 3.648 4.336 3.648 7.44m-7.872 23.328c-0.000016 1.44-0.46402 2.608-1.392 3.504-0.89601 0.928-2.064 1.392-3.504 1.392-1.44-0.000003-2.624-0.464-3.552-1.392-0.89601-0.896-1.344-2.064-1.344-3.504-0.000006-1.44 0.44799-2.624 1.344-3.552 0.92799-0.92799 2.112-1.392 3.552-1.392 1.44 0.000007 2.608 0.46401 3.504 1.392 0.92798 0.928 1.392 2.112 1.392 3.552"
       id="SVGCleanerId_0" />
    <linearGradient
       inkscape:collect="always"
       xlink:href="#linearGradient14231"
       id="linearGradient14237"
       x1="50.707542"
       y1="81.682442"
       x2="50.707542"
       y2="96.539803"
       gradientUnits="userSpaceOnUse" />
    <linearGradient
       inkscape:collect="always"
       id="linearGradient14231">
      <stop
         style="stop-color:#000000;stop-opacity:1;"
         offset="0"
         id="stop14233" />
      <stop
         style="stop-color:#000000;stop-opacity:0;"
         offset="1"
         id="stop14235" />
    </linearGradient>
    <linearGradient
       inkscape:collect="always"
       xlink:href="#linearGradient14239"
       id="linearGradient14245"
       x1="49.876652"
       y1="87.937508"
       x2="49.876652"
       y2="76.719681"
       gradientUnits="userSpaceOnUse" />
    <linearGradient
       inkscape:collect="always"
       id="linearGradient14239">
      <stop
         style="stop-color:#ffffff;stop-opacity:1;"
         offset="0"
         id="stop14241" />
      <stop
         style="stop-color:#ffffff;stop-opacity:0;"
         offset="1"
         id="stop14243" />
    </linearGradient>
  </defs>
  <rect
     style="fill-opacity:0.02000002"
     id="rect3304"
     width="89.620003"
     height="89.980003"
     y="2.9899757"
     rx="12.724"
     x="3.3529999" />
  <rect
     style="fill-opacity:0.03900003"
     id="rect3306"
     width="88.410004"
     height="88.760002"
     y="3.6000221"
     rx="12.552"
     x="3.9590001" />
  <rect
     style="fill-opacity:0.078"
     id="rect3308"
     width="87.199997"
     height="87.550003"
     y="4.2100072"
     rx="12.38"
     x="4.5640001" />
  <rect
     style="fill-opacity:0.15700001"
     id="rect3310"
     width="85.990997"
     height="86.330002"
     y="4.8199925"
     rx="12.208"
     x="5.1700001" />
  <path
     inkscape:connector-curvature="0"
     style="fill:url(#linearGradient15426)"
     id="path3312"
     d="m 17.75,5.4062 c -6.642,0 -11.969,5.3948 -11.969,12.063 l 2e-4,61.031 c 0,6.668 5.3268,12.031 11.969,12.031 l 60.812,0 c 6.642,0 11.969,-5.363 11.969,-12.031 l 0,-61.031 c 0,-6.668 -5.327,-12.063 -11.969,-12.063 l -60.812,2e-4 z" />
  <path
     style="opacity:0.2;fill:#ffffff;filter:url(#filter3678)"
     inkscape:connector-curvature="0"
     id="path3318"
     transform="translate(0.797,-91.77)"
     clip-path="url(#clipPath3644)"
     d="m 48,107 c -18.225,0 -33,12.088 -33,27 0,9.4984 5.9998,17.843 15.062,22.656 -0.34462,2.5088 -1.914,8.6498 -9.3438,10.75 9.6229,1.0458 16.014,-3.6463 19.406,-7.1875 2.525,0.5 5.162,0.78 7.876,0.78 18.225,0 33,-12.09 33,-27 0,-14.91 -14.775,-27 -33,-27 z" />
  <path
     inkscape:connector-curvature="0"
     style="opacity:0.6;fill:url(#linearGradient15415)"
     id="path3320"
     d="m 48.244,14.13 c -19.751,0 -35.762,13.1 -35.762,29.26 0,10.293 6.5019,19.337 16.323,24.552 -0.37347,2.7188 -2.0742,9.3738 -10.126,11.65 10.428,1.1333 17.354,-3.9515 21.03,-7.7891 2.7347,0.5478 5.593,0.8467 8.5341,0.8467 19.751,0 35.762,-13.1 35.762,-29.26 0,-16.16 -16.011,-29.26 -35.762,-29.26 z" />
  <path
     style="opacity:0.2;fill:#ffffff"
     inkscape:connector-curvature="0"
     id="path3322"
     d="m 12.483,43.84 c -0.0057,0.2168 0,0.4255 0,0.6435 0,10.232 6.4309,19.221 16.154,24.451 0.07276,-0.3569 0.13064,-0.7005 0.16933,-0.9822 -9.6814,-5.1412 -16.141,-14.001 -16.323,-24.112 z m 71.524,0.1016 c -0.35801,15.906 -16.236,28.718 -35.762,28.718 -2.9411,0 -5.7994,-0.2989 -8.5341,-0.8467 -3.3745,3.5222 -9.4799,8.073 -18.524,7.9245 -0.75925,0.3602 -1.5897,0.6892 -2.506,0.9483 10.428,1.1333 17.354,-3.9515 21.03,-7.7891 2.7347,0.5478 5.593,0.8467 8.5341,0.8467 19.751,0 35.762,-13.1 35.762,-29.26 0,-0.1835 0.0041,-0.3591 0,-0.5418 z" />
  <path
     style="opacity:0.05"
     inkscape:connector-curvature="0"
     id="path3324"
     d="m 48.244,14.13 c -19.751,0 -35.762,13.1 -35.762,29.26 0,10.293 6.5019,19.337 16.323,24.552 -0.37347,2.7188 -2.0742,9.3738 -10.126,11.65 10.428,1.1333 17.354,-3.9515 21.03,-7.7891 2.7347,0.5478 5.593,0.8467 8.5341,0.8467 19.751,0 35.762,-13.1 35.762,-29.26 0,-16.16 -16.011,-29.26 -35.762,-29.26 z m 0,3.1834 c 18.336,0 32.579,12.029 32.579,26.076 0,14.047 -14.242,26.076 -32.579,26.076 -2.7244,0 -5.3572,-0.3052 -7.8907,-0.8127 a 3.1988,3.1988 0 0 0 -2.9463,0.9482 c -1.7565,1.8334 -4.3392,3.8662 -7.7213,5.283 1.4538,-2.5509 2.0966,-5.001 2.3029,-6.5022 a 3.1988,3.1988 0 0 0 -1.6933,-3.2511 c -8.9851,-4.7715 -14.63,-12.795 -14.63,-21.742 0,-14.047 14.242,-26.076 32.579,-26.076 z" />
  <path
     style="opacity:0.07999998"
     inkscape:connector-curvature="0"
     id="path3326"
     d="m 48.244,14.13 c -19.751,0 -35.762,13.1 -35.762,29.26 0,10.293 6.5019,19.337 16.323,24.552 -0.37347,2.7188 -2.0742,9.3738 -10.126,11.65 10.428,1.1333 17.354,-3.9515 21.03,-7.7891 2.7347,0.5478 5.593,0.8467 8.5341,0.8467 19.751,0 35.762,-13.1 35.762,-29.26 0,-16.16 -16.011,-29.26 -35.762,-29.26 z m 0,2.0319 c 18.849,0 33.73,12.415 33.73,27.228 0,14.813 -14.881,27.228 -33.73,27.228 -2.8029,0 -5.5213,-0.2908 -8.1277,-0.8128 a 2.0397,2.0397 0 0 0 -1.8626,0.5756 c -2.4164,2.5222 -6.3528,5.5323 -11.819,6.7393 0.65348,-0.69 1.4303,-1.3444 1.8965,-2.0658 1.7048,-2.6387 2.293,-5.2902 2.506,-6.8409 a 2.0397,2.0397 0 0 0 -1.0837,-2.0657 c -9.2881,-4.9324 -15.239,-13.323 -15.239,-22.758 0,-14.813 14.881,-27.228 33.73,-27.228 z" />
  <path
     style="opacity:0.15"
     inkscape:connector-curvature="0"
     id="path3328"
     d="m 48.244,14.13 c -19.751,0 -35.762,13.1 -35.762,29.26 0,10.293 6.5019,19.337 16.323,24.552 -0.37347,2.7188 -2.0742,9.3738 -10.126,11.65 10.428,1.1333 17.354,-3.9515 21.03,-7.7891 2.7347,0.5478 5.593,0.8467 8.5341,0.8467 19.751,0 35.762,-13.1 35.762,-29.26 0,-16.16 -16.011,-29.26 -35.762,-29.26 z m 0,1.1514 c 19.243,0 34.611,12.707 34.611,28.108 0,15.402 -15.367,28.108 -34.611,28.108 -2.8634,0 -5.6345,-0.2795 -8.297,-0.8128 a 1.1476,1.1476 0 0 0 -1.0498,0.3386 c -2.865,2.9905 -7.8556,6.5553 -14.935,7.2811 1.5633,-1.1241 2.7638,-2.4283 3.6236,-3.759 1.6057,-2.4854 2.1691,-4.9676 2.3706,-6.4345 a 1.1476,1.1476 0 0 0 -0.60958,-1.1853 c -9.5213,-5.0563 -15.714,-13.726 -15.714,-23.537 0,-15.402 15.367,-28.108 34.611,-28.108 z" />
  <g
     id="g3330"
     transform="matrix(1.0837,0,0,1.0837,-3.773,-4.3)">
    <g
       style="opacity:0.8;filter:url(#filter3789)"
       id="g3332"
       transform="matrix(0.94114,0,0,0.94221,4.59,4.595)">
      <use
         height="100%"
         width="100%"
         y="0"
         x="0"
         id="use3334"
         xlink:href="#SVGCleanerId_0" />
    </g>
    <use
       height="100%"
       width="100%"
       y="0"
       x="0"
       style="fill:url(#linearGradient3703-8)"
       id="use3336"
       transform="matrix(0.94114,0,0,0.94221,4.59,3.595)"
       xlink:href="#SVGCleanerId_0" />
    <path
       style="fill:#ffffff"
       inkscape:connector-curvature="0"
       id="path3338"
       d="m 47.875,27 c -3.0418,3.4e-5 -5.5447,0.84174 -7.5625,2.5 -2.198,1.779 -3.312,4.14 -3.312,7.125 l 0,0.71875 0.09375,0 c 0.28005,-2.3875 1.3451,-4.3277 3.2188,-5.8438 2.0178,-1.6583 4.5207,-2.5 7.5625,-2.5 3.0116,3.4e-5 5.5793,0.80829 7.6875,2.4062 2.0363,1.5558 3.1496,3.5778 3.375,6.0625 0.035,-0.346 0.063,-0.701 0.063,-1.063 -2.3e-5,-2.9246 -1.1487,-5.2512 -3.4375,-7 -2.108,-1.598 -4.675,-2.406 -7.687,-2.406 z m 2.2188,10.312 c -0.28962,0.70006 -0.86887,1.4369 -1.75,2.2188 -2.4093,2.1709 -3.6261,3.2835 -3.6562,3.3438 -1.3251,1.4774 -2,3.0627 -2,4.7812 l 0,2 c -6e-6,-1.7186 0.67487,-3.3038 2,-4.7812 0.03011,-0.06028 1.2469,-1.1729 3.6562,-3.3438 1.3251,-1.1759 1.9687,-2.255 1.9688,-3.25 -8e-6,-0.35828 -0.07419,-0.68167 -0.21875,-0.96875 z m -3.125,16.406 c -1.3552,7e-6 -2.4391,0.43814 -3.3125,1.3125 -0.84326,0.87438 -1.2813,1.987 -1.2812,3.3438 -1e-6,0.3392 0.03951,0.66056 0.09375,0.96875 0.16965,-0.89956 0.56922,-1.6714 1.1875,-2.3125 0.87337,-0.87436 1.9573,-1.3125 3.3125,-1.3125 1.3552,7e-6 2.4692,0.43814 3.3125,1.3125 0.6406,0.64135 1.0473,1.4125 1.2188,2.3125 0.05482,-0.30819 0.09375,-0.62955 0.09375,-0.96875 -1.5e-5,-1.3568 -0.43914,-2.4694 -1.3125,-3.3438 -0.84327,-0.87436 -1.9573,-1.3125 -3.3125,-1.3125 z" />
  </g>
  <g
     id="g14291">
    <path
       d="m 5.2922679,73.685059 0,5.0663 c 0,6.668 5.3645011,12.032 12.0320011,12.032 l 61.049,0 c 6.668,0 12.032,-5.3645 12.032,-12.032 l 0,-5.0663 c 0,6.6681 -5.3645,12.032 -12.032,12.032 l -61.049,0 c -6.668,0 -12.0320011,-5.3643 -12.0320011,-12.032 z"
       id="path64"
       inkscape:connector-curvature="0"
       style="opacity:0.4;fill:url(#linearGradient14237);fill-opacity:1" />
    <path
       inkscape:connector-curvature="0"
       id="path14214"
       d="m 5.2929688,72.717592 0,1.15039 c 0,6.667718 5.3632502,12.031248 12.0312502,12.031248 l 61.048828,0 c 6.6675,0 12.03125,-5.36313 12.03125,-12.031248 l 0,-1.15039 c 0,6.668098 -5.36375,12.031248 -12.03125,12.031248 l -61.048828,0 c -6.668,0 -12.0312502,-5.36355 -12.0312502,-12.031248 z"
       style="opacity:0.5;fill:url(#linearGradient14245);fill-opacity:1" />
  </g>
</svg>
