<?xml version="1.0" encoding="UTF-8" standalone="no"?>
<svg
   xmlns:dc="http://purl.org/dc/elements/1.1/"
   xmlns:cc="http://creativecommons.org/ns#"
   xmlns:rdf="http://www.w3.org/1999/02/22-rdf-syntax-ns#"
   xmlns:svg="http://www.w3.org/2000/svg"
   xmlns="http://www.w3.org/2000/svg"
   xmlns:xlink="http://www.w3.org/1999/xlink"
   xmlns:sodipodi="http://sodipodi.sourceforge.net/DTD/sodipodi-0.dtd"
   xmlns:inkscape="http://www.inkscape.org/namespaces/inkscape"
   height="96"
   width="96"
   id="svg2"
   version="1.1"
   inkscape:version="0.91 r13725"
   sodipodi:docname="instagram.svg">
  <metadata
     id="metadata114">
    <rdf:RDF>
      <cc:Work
         rdf:about="">
        <dc:format>image/svg+xml</dc:format>
        <dc:type
           rdf:resource="http://purl.org/dc/dcmitype/StillImage" />
        <dc:title></dc:title>
      </cc:Work>
    </rdf:RDF>
  </metadata>
  <sodipodi:namedview
     pagecolor="#ffffff"
     bordercolor="#666666"
     borderopacity="1"
     objecttolerance="10"
     gridtolerance="10"
     guidetolerance="10"
     inkscape:pageopacity="0"
     inkscape:pageshadow="2"
     inkscape:window-width="1366"
     inkscape:window-height="708"
     id="namedview112"
     showgrid="false"
     inkscape:zoom="3.4766083"
     inkscape:cx="81.706261"
     inkscape:cy="30.919225"
     inkscape:window-x="0"
     inkscape:window-y="24"
     inkscape:window-maximized="1"
     inkscape:current-layer="svg2" />
  <defs
     id="defs4">
    <linearGradient
       inkscape:collect="always"
       id="linearGradient4793">
      <stop
         style="stop-color:#236993;stop-opacity:1"
         offset="0"
         id="stop4795" />
      <stop
         style="stop-color:#76a2e1;stop-opacity:1"
         offset="1"
         id="stop4797" />
    </linearGradient>
    <linearGradient
       xlink:href="#linearGradient3764"
       gradientTransform="matrix(1.0833,0,0,1.0833,-4.385,-4.394)"
       id="linearGradient15160"
       gradientUnits="userSpaceOnUse"
       y2="5.9879999"
       y1="90"
       x2="0">
      <stop
         id="stop4439"
         stop-color="#eec00f" />
      <stop
         id="stop4441"
         offset="1"
         stop-color="#fff8a0" />
    </linearGradient>
    <linearGradient
       id="linearGradient3731">
      <stop
         stop-color="#520"
         id="stop7" />
      <stop
         stop-color="#520"
         stop-opacity="0"
         offset="1"
         id="stop9" />
    </linearGradient>
    <linearGradient
       id="linearGradient3707-0">
      <stop
         stop-color="#a8d4fb"
         id="stop12" />
      <stop
         stop-color="#dff0fa"
         offset="1"
         id="stop14" />
    </linearGradient>
    <linearGradient
       id="linearGradient3724">
      <stop
         stop-color="#0d82e4"
         id="stop17" />
      <stop
         stop-color="#bcdbf7"
         offset="1"
         id="stop19" />
    </linearGradient>
    <linearGradient
       id="linearGradient3757">
      <stop
         stop-color="#389bed"
         id="stop22" />
      <stop
         stop-color="#c2e5fc"
         offset="1"
         id="stop24" />
    </linearGradient>
    <linearGradient
       x2="0"
       y1="90"
       y2="5.9879999"
       gradientUnits="userSpaceOnUse"
       id="linearGradient4443"
       gradientTransform="matrix(1.0833,0,0,1.0833,-4.385,-4.394)"
       xlink:href="#linearGradient3764">
      <stop
         stop-color="#eec00f"
         id="stop27" />
      <stop
         stop-color="#fff8a0"
         offset="1"
         id="stop29" />
    </linearGradient>
    <linearGradient
       x2="0"
       xlink:href="#linearGradient3731"
       y1="77.27"
       y2="21.944"
       gradientUnits="userSpaceOnUse"
       id="linearGradient15182"
       gradientTransform="translate(-109.88,856.47)" />
    <linearGradient
       x1="47.835"
       x2="48.32"
       xlink:href="#linearGradient3731"
       y1="74.69"
       y2="28.01"
       gradientUnits="userSpaceOnUse"
       id="linearGradient15188"
       gradientTransform="translate(-109.88,857.47)" />
    <linearGradient
       x1="47.917"
       x2="76.62"
       gradientUnits="userSpaceOnUse"
       id="linearGradient15190"
       gradientTransform="translate(-109.88,856.47)">
      <stop
         stop-color="#5cacf5"
         id="stop34" />
      <stop
         stop-color="#abd4f4"
         offset="1"
         id="stop36" />
    </linearGradient>
    <linearGradient
       x1="19.288"
       x2="47.995"
       gradientUnits="userSpaceOnUse"
       id="linearGradient15192"
       gradientTransform="translate(-109.88,856.47)">
      <stop
         stop-color="#5aabf2"
         id="stop39" />
      <stop
         stop-color="#badaf5"
         offset="1"
         id="stop41" />
    </linearGradient>
    <linearGradient
       x1="31"
       x2="48.03"
       xlink:href="#linearGradient3707-0"
       gradientUnits="userSpaceOnUse"
       id="linearGradient15194"
       gradientTransform="translate(-109.88,856.47)" />
    <linearGradient
       x1="27.395"
       x2="48.11"
       xlink:href="#linearGradient3724"
       gradientUnits="userSpaceOnUse"
       id="linearGradient15196"
       gradientTransform="translate(-109.88,856.47)" />
    <linearGradient
       x1="48.08"
       x2="65.11"
       xlink:href="#linearGradient3707-0"
       gradientUnits="userSpaceOnUse"
       id="linearGradient15198"
       gradientTransform="translate(-109.88,856.47)" />
    <linearGradient
       x1="48"
       x2="69.02"
       xlink:href="#linearGradient3724"
       gradientUnits="userSpaceOnUse"
       id="linearGradient15200"
       gradientTransform="translate(-109.88,856.47)" />
    <linearGradient
       x1="47.917"
       x2="76.73"
       xlink:href="#linearGradient3757"
       gradientUnits="userSpaceOnUse"
       id="linearGradient15202"
       gradientTransform="translate(-109.88,856.47)" />
    <linearGradient
       x1="19.07"
       x2="47.886"
       xlink:href="#linearGradient3757"
       gradientUnits="userSpaceOnUse"
       id="linearGradient15204"
       gradientTransform="translate(-109.88,856.47)" />
    <linearGradient
       x1="31.09"
       x2="48.11"
       gradientUnits="userSpaceOnUse"
       id="linearGradient15206"
       gradientTransform="translate(-109.88,856.47)">
      <stop
         stop-color="#1b8cee"
         id="stop50" />
      <stop
         stop-color="#79b8e8"
         offset="1"
         id="stop52" />
    </linearGradient>
    <linearGradient
       x1="48"
       x2="69.02"
       gradientUnits="userSpaceOnUse"
       id="linearGradient15208"
       gradientTransform="translate(-109.88,856.47)">
      <stop
         stop-color="#107cd9"
         id="stop55" />
      <stop
         stop-color="#79b8e8"
         offset="1"
         id="stop57" />
    </linearGradient>
    <path
       d="m-61.927 907.47 17.042 12.021-17.042 12.021-17.042-12.021 17.042-12.021z"
       fill="#fdfffe"
       color="#000000"
       id="SVGCleanerId_0" />
    <linearGradient
       gradientTransform="translate(-48.000001,0.00221467)"
       gradientUnits="userSpaceOnUse"
       x2="47"
       x1="1"
       id="linearGradient3764">
      <stop
         id="stop4247"
         stop-opacity="1"
         stop-color="#186dae" />
      <stop
         id="stop4249"
         stop-opacity="1"
         stop-color="#1b77bf"
         offset="1" />
    </linearGradient>
    <clipPath
       id="clipPath-298891903">
      <g
         id="g4252"
         transform="translate(0,-1004.3622)">
        <rect
           id="rect4254"
           fill="#1890d0"
           width="46"
           height="46"
           x="1"
           y="1005.36"
           rx="4" />
      </g>
    </clipPath>
    <clipPath
       id="clipPath-311838651">
      <g
         id="g4257"
         transform="translate(0,-1004.3622)">
        <rect
           id="rect4259"
           fill="#1890d0"
           width="46"
           height="46"
           x="1"
           y="1005.36"
           rx="4" />
      </g>
    </clipPath>
    <linearGradient
       id="linearGradient3879"
       gradientUnits="userSpaceOnUse"
       x1="200.0508"
       y1="185.0742"
       x2="200.0508"
       y2="217.4595">
      <stop
         offset="0"
         style="stop-color:#69be5b;stop-opacity:1;"
         id="stop3881" />
      <stop
         id="stop3883"
         style="stop-color:#0b9f4e;stop-opacity:1"
         offset="0.5" />
      <stop
         offset="1"
         style="stop-color:#69be5a;stop-opacity:1;"
         id="stop3885" />
    </linearGradient>
    <linearGradient
       y2="48.0854"
       x2="78.466103"
       y1="56.3008"
       x1="64.477501"
       gradientUnits="userSpaceOnUse"
       id="XMLID_74_-8-1">
      <stop
         id="stop155-3-8"
         style="stop-color:#ffffff;stop-opacity:1;"
         offset="0" />
      <stop
         id="stop157-94-6"
         style="stop-color:#e6e6e6;stop-opacity:1;"
         offset="1" />
    </linearGradient>
    <radialGradient
       gradientUnits="userSpaceOnUse"
       gradientTransform="matrix(1,0,0,1.0499906,0,-19.270593)"
       r="191.6187"
       fy="385.4841"
       fx="558.35437"
       cy="385.4841"
       cx="558.35437"
       id="radialGradient3867"
       xlink:href="#XMLID_74_-8-1"
       inkscape:collect="always" />
    <linearGradient
       y2="217.4595"
       x2="200.0508"
       y1="185.0742"
       x1="200.0508"
       gradientUnits="userSpaceOnUse"
       id="SVGID_2_">
      <stop
         id="stop13"
         style="stop-color:#69be5b;stop-opacity:1;"
         offset="0" />
      <stop
         offset="0.5"
         style="stop-color:#0a8d45;stop-opacity:1;"
         id="stop3877" />
      <stop
         id="stop15"
         style="stop-color:#69be5a;stop-opacity:1;"
         offset="1" />
    </linearGradient>
    <linearGradient
       inkscape:collect="always"
       xlink:href="#SVGID_2_"
       id="linearGradient3021"
       gradientUnits="userSpaceOnUse"
       gradientTransform="matrix(13.577628,0,0,13.577628,-2026.1619,-2566.7096)"
       x1="200.0508"
       y1="185.0742"
       x2="200.0508"
       y2="217.4595" />
    <linearGradient
       y2="217.4595"
       x2="200.0508"
       y1="185.0742"
       x1="200.0508"
       gradientTransform="matrix(9.2574736,0,0,9.2574736,-1595.9285,-1607.2111)"
       gradientUnits="userSpaceOnUse"
       id="linearGradient3017"
       xlink:href="#SVGID_2_"
       inkscape:collect="always" />
    <linearGradient
       inkscape:collect="always"
       xlink:href="#SVGID_2_"
       id="linearGradient3803"
       x1="259.99384"
       y1="44"
       x2="259.99384"
       y2="464"
       gradientUnits="userSpaceOnUse" />
    <linearGradient
       y2="251.66064"
       x2="1011.9534"
       y1="476.25983"
       x1="1016.1035"
       gradientTransform="translate(-146.22032,369.08845)"
       gradientUnits="userSpaceOnUse"
       id="linearGradient4082"
       xlink:href="#linearGradient4487"
       inkscape:collect="always" />
    <linearGradient
       id="linearGradient4487">
      <stop
         offset="0"
         style="stop-color:#000000;stop-opacity:1"
         id="stop4489" />
      <stop
         offset="1"
         style="stop-color:#000000;stop-opacity:0"
         id="stop4491" />
    </linearGradient>
    <linearGradient
       id="linearGradient3737">
      <stop
         offset="0"
         style="stop-color:#ffffff;stop-opacity:1"
         id="stop3739" />
      <stop
         offset="1"
         style="stop-color:#ffffff;stop-opacity:0"
         id="stop3741" />
    </linearGradient>
    <linearGradient
       id="linearGradient4046">
      <stop
         offset="0"
         style="stop-color:#000000;stop-opacity:1;"
         id="stop4048" />
      <stop
         offset="1"
         style="stop-color:#ffffff;stop-opacity:0.2"
         id="stop4050" />
    </linearGradient>
    <linearGradient
       gradientTransform="matrix(1.0058652,0,0,0.994169,100,0)"
       gradientUnits="userSpaceOnUse"
       id="ButtonShadow-0-1-1-5"
       y2="7.0165396"
       x2="45.447727"
       y1="92.539597"
       x1="45.447727">
      <stop
         offset="0"
         style="stop-color:#000000;stop-opacity:1"
         id="stop3750-8-9-3-6" />
      <stop
         offset="1"
         style="stop-color:#000000;stop-opacity:0.58823532"
         id="stop3752-5-6-4-2" />
    </linearGradient>
    <linearGradient
       y2="256.10831"
       x2="182.9053"
       y1="69.644997"
       x1="182.9053"
       gradientUnits="userSpaceOnUse"
       id="SVGID_1_"
       gradientTransform="translate(-1126.7051,62.4995)">
      <stop
         id="stop28"
         style="stop-color:#69BE5A"
         offset="0" />
      <stop
         id="stop30"
         style="stop-color:#5FB356"
         offset="0.0654" />
      <stop
         id="stop32"
         style="stop-color:#2E9648"
         offset="0.3605" />
      <stop
         id="stop34-1"
         style="stop-color:#0A8D45"
         offset="0.5153" />
      <stop
         id="stop36-2"
         style="stop-color:#219246"
         offset="0.6269" />
      <stop
         id="stop38"
         style="stop-color:#42A04D"
         offset="0.7969" />
      <stop
         id="stop40"
         style="stop-color:#69BE5B"
         offset="1" />
    </linearGradient>
    <linearGradient
       gradientTransform="matrix(1.092577,0,0,1.0925926,-23.696353,-23.70371)"
       y2="464"
       x2="259.99384"
       y1="44"
       x1="259.99384"
       gradientUnits="userSpaceOnUse"
       id="linearGradient3107"
       xlink:href="#linearGradient3879"
       inkscape:collect="always" />
    <linearGradient
       y2="464"
       x2="259.99384"
       y1="44"
       x1="259.99384"
       gradientTransform="matrix(1.0925926,0,0,1.0925926,-23.696977,-23.70371)"
       gradientUnits="userSpaceOnUse"
       id="linearGradient4125"
       xlink:href="#linearGradient3879"
       inkscape:collect="always" />
    <linearGradient
       y2="464"
       x2="259.99384"
       y1="44"
       x1="259.99384"
       gradientTransform="matrix(0.95370371,0,0,0.95370371,11.857724,11.851844)"
       gradientUnits="userSpaceOnUse"
       id="linearGradient4131"
       xlink:href="#linearGradient3879"
       inkscape:collect="always" />
    <linearGradient
       y2="256.10831"
       x2="182.9053"
       y1="69.644997"
       x1="182.9053"
       gradientTransform="matrix(2.0085106,0,0,1.9915612,-692.53844,-63.197731)"
       gradientUnits="userSpaceOnUse"
       id="linearGradient4146"
       xlink:href="#SVGID_1_"
       inkscape:collect="always" />
    <linearGradient
       y2="464"
       x2="259.99384"
       y1="44"
       x1="259.99384"
       gradientTransform="matrix(0.93345362,0,0,0.93345362,16.415773,17.937149)"
       gradientUnits="userSpaceOnUse"
       id="linearGradient4179"
       xlink:href="#linearGradient3879"
       inkscape:collect="always" />
    <linearGradient
       y2="464"
       x2="259.99384"
       y1="44"
       x1="259.99384"
       gradientTransform="matrix(0.95370371,0,0,0.95370371,11.857723,11.851846)"
       gradientUnits="userSpaceOnUse"
       id="linearGradient4192"
       xlink:href="#linearGradient3879"
       inkscape:collect="always" />
    <linearGradient
       y2="36.643665"
       x2="19.360001"
       y1="6.2951212"
       x1="18.930269"
       gradientTransform="matrix(12.102564,0,0,12.102564,-34.468255,-46.187105)"
       gradientUnits="userSpaceOnUse"
       id="linearGradient3157"
       xlink:href="#linearGradient2460"
       inkscape:collect="always" />
    <linearGradient
       x1="19.244999"
       y1="21.030804"
       x2="19.360001"
       gradientUnits="userSpaceOnUse"
       y2="44.984001"
       id="linearGradient2460">
      <stop
         offset="0"
         style="stop-color:#fafafa;stop-opacity:1;"
         id="stop3602" />
      <stop
         offset="1"
         style="stop-color:#f0f0f0;stop-opacity:1;"
         id="stop3604" />
    </linearGradient>
    <linearGradient
       inkscape:collect="always"
       xlink:href="#linearGradient2460"
       id="linearGradient3166"
       gradientUnits="userSpaceOnUse"
       gradientTransform="matrix(12.102564,0,0,12.102564,-34.468257,-46.187107)"
       x1="18.930269"
       y1="6.2951212"
       x2="19.360001"
       y2="36.643665" />
    <linearGradient
       inkscape:collect="always"
       xlink:href="#linearGradient2460"
       id="linearGradient3200"
       gradientUnits="userSpaceOnUse"
       gradientTransform="matrix(12.102564,0,0,12.102564,-34.468255,-46.187104)"
       x1="18.930269"
       y1="6.2951212"
       x2="19.360001"
       y2="36.643665" />
    <linearGradient
       y2="36.643665"
       x2="19.360001"
       y1="6.2951212"
       x1="18.930269"
       gradientTransform="matrix(12.102564,0,0,12.102564,492.42688,-50.339967)"
       gradientUnits="userSpaceOnUse"
       id="linearGradient3122"
       xlink:href="#linearGradient2460"
       inkscape:collect="always" />
    <linearGradient
       y2="464"
       x2="259.99384"
       y1="44"
       x1="259.99384"
       gradientTransform="matrix(0.9537038,0,0,0.9537037,-448.06896,15.479738)"
       gradientUnits="userSpaceOnUse"
       id="linearGradient3137"
       xlink:href="#linearGradient3879"
       inkscape:collect="always" />
    <linearGradient
       inkscape:collect="always"
       xlink:href="#linearGradient4793"
       id="linearGradient4799"
       x1="47.679306"
       y1="84.985649"
       x2="47.679306"
       y2="6.0703955"
       gradientUnits="userSpaceOnUse" />
  </defs>
  <rect
     style="fill-opacity:0.02000002"
     id="rect62"
     width="89.620003"
     height="89.980003"
     y="2.9899757"
     rx="12.724"
     x="3.3529999" />
  <rect
     style="fill-opacity:0.03900003"
     id="rect64"
     width="88.410004"
     height="88.760002"
     y="3.6000221"
     rx="12.552"
     x="3.9590001" />
  <rect
     style="fill-opacity:0.078"
     id="rect66"
     width="87.199997"
     height="87.550003"
     y="4.2100072"
     rx="12.38"
     x="4.5640001" />
  <rect
     style="fill-opacity:0.15700001"
     id="rect68"
     width="85.990997"
     height="86.330002"
     y="4.8199925"
     rx="12.208"
     x="5.1700001" />
  <path
     inkscape:connector-curvature="0"
     style="fill:url(#linearGradient4799);fill-opacity:1"
     id="path70"
     d="m 17.75,5.4062 c -6.642,0 -11.969,5.3948 -11.969,12.063 l 2e-4,61.031 c 0,6.668 5.3268,12.031 11.969,12.031 l 60.812,0 c 6.642,0 11.969,-5.363 11.969,-12.031 l 0,-61.031 c 0,-6.668 -5.327,-12.063 -11.969,-12.063 l -60.812,2e-4 z" />
  <path
     style="fill-opacity:0.11799999"
     inkscape:connector-curvature="0"
     id="path72"
     d="m 5.7756,73.44 0,5.0663 c 0,6.668 5.3434,12.032 11.985,12.032 l 60.809,0 c 6.6418,0 11.985,-5.3645 11.985,-12.032 l 0,-5.0663 c 0,6.6681 -5.3434,12.032 -11.985,12.032 l -60.809,0 c -6.6418,0 -11.985,-5.3643 -11.985,-12.032 z" />
  <path
     style="fill-opacity:0.09800002"
     inkscape:connector-curvature="0"
     id="path74"
     d="m 5.7756,77.54 0,1.0133 c 0,6.668 5.3434,12.032 11.985,12.032 l 60.809,0 c 6.6418,0 11.985,-5.3645 11.985,-12.032 l 0,-1.0133 c 0,6.6681 -5.3434,12.032 -11.985,12.032 l -60.809,0 c -6.6418,0 -11.985,-5.3644 -11.985,-12.032 z" />
  <g
     transform="matrix(0.18329937,0,0,0.18329937,128.19524,-102.01512)"
     inkscape:label="Livello 1"
     id="layer1" />
  <g
     id="g4185"
     transform="matrix(0.18329937,0,0,0.18329937,128.19524,-2.9670716)" />
  <g
     id="g4153"
     transform="matrix(0.18329937,0,0,0.18329937,235.53358,-2.9670716)">
    <g
       id="g17"
       transform="matrix(2.0085106,0,0,1.9915612,-692.53844,-63.197731)">
      <g
         id="g21">
        <g
           id="g23" />
      </g>
    </g>
  </g>
  <g
     id="g4807">
    <path
       style="fill:none;fill-rule:evenodd;stroke:#000000;stroke-width:2;stroke-linecap:butt;stroke-linejoin:miter;stroke-opacity:1;stroke-miterlimit:4;stroke-dasharray:none;opacity:0.1"
       d="m 26.498454,23.231848 -1.170212,0.89228 c -0.659109,0.50273 -1.443224,1.50988 -1.79541,2.30606 -0.615091,1.39051 -0.621672,1.74511 -0.399114,21.769791 0.132461,11.917959 0.351361,20.686935 0.528133,21.153641 0.441888,1.166629 1.483018,2.190827 2.884834,2.837808 1.15998,0.535366 2.454851,0.569996 21.386356,0.576364 17.446555,0.0059 20.303665,-0.05678 21.287482,-0.467844 1.452924,-0.607069 2.167136,-1.26189 2.861922,-2.623179 0.513005,-1.005122 0.575254,-2.702199 0.783761,-21.462319 0.222722,-20.039322 0.21599,-20.393712 -0.399114,-21.784262 -0.352186,-0.79618 -1.136301,-1.80333 -1.795411,-2.30606 l -1.17021,-0.89228 -21.501509,0 z m 34.311739,5.55624 3.241143,0 3.241142,0 0.08923,2.88604 c 0.05755,1.862885 -0.03813,3.039546 -0.269493,3.318316 -0.257223,0.309936 -1.121655,0.432272 -3.060876,0.432272 -1.939222,0 -2.803657,-0.122336 -3.06088,-0.432272 -0.231359,-0.27877 -0.32704,-1.455431 -0.269493,-3.318316 z M 48.00177,38.376471 c 2.865396,-0.01383 5.140222,0.97923 7.09181,3.096449 3.082768,3.344408 3.523502,7.994374 1.118966,11.803401 -2.213497,3.506411 -6.728162,5.287175 -10.656705,4.203358 -2.084931,-0.575195 -3.360038,-1.353263 -4.762237,-2.905332 -1.41102,-1.561833 -1.900825,-2.543649 -2.345849,-4.703154 -0.681436,-3.306676 0.373527,-6.514253 2.912567,-8.85466 2.095871,-1.931903 3.843781,-2.626573 6.641448,-2.640062 z m -16.533082,4.809865 c 0.745773,0.0043 1.333876,0.06855 1.435483,0.17062 0.13548,0.136085 0.08969,1.255143 -0.101285,2.486926 -1.267303,8.174127 4.447875,15.965176 12.736677,17.363263 7.629047,1.286804 15.470522,-3.789954 17.42114,-11.278886 0.527871,-2.026627 0.606495,-5.216523 0.174238,-7.080958 -0.360035,-1.552921 -0.103044,-1.735227 2.305456,-1.631421 l 1.852081,0.08018 0.195336,4.167183 c 0.317555,6.784705 0.294268,17.792673 -0.03919,18.669729 -0.638511,1.679409 -0.921728,1.704275 -19.515586,1.69111 -14.018112,-0.0099 -17.244411,-0.09015 -18.070455,-0.449154 -0.559116,-0.242996 -1.141568,-0.795171 -1.311891,-1.243161 -0.333051,-0.875982 -0.3553,-11.88889 -0.03798,-18.668524 l 0.194733,-4.167183 1.975072,-0.09345 c 0.271572,-0.01281 0.537578,-0.01772 0.78617,-0.01627 z"
       id="path4801"
       inkscape:connector-curvature="0"
       sodipodi:nodetypes="ccsssssssssccccccccsssccssssssssscsssscccsssscccs" />
    <path
       sodipodi:nodetypes="ccsssssssssccccccccsssccssssssssscsssscccsssscccs"
       inkscape:connector-curvature="0"
       id="path4803"
       d="m 26.498454,23.231848 -1.170212,0.89228 c -0.659109,0.50273 -1.443224,1.50988 -1.79541,2.30606 -0.615091,1.39051 -0.621672,1.74511 -0.399114,21.769791 0.132461,11.917959 0.351361,20.686935 0.528133,21.153641 0.441888,1.166629 1.483018,2.190827 2.884834,2.837808 1.15998,0.535366 2.454851,0.569996 21.386356,0.576364 17.446555,0.0059 20.303665,-0.05678 21.287482,-0.467844 1.452924,-0.607069 2.167136,-1.26189 2.861922,-2.623179 0.513005,-1.005122 0.575254,-2.702199 0.783761,-21.462319 0.222722,-20.039322 0.21599,-20.393712 -0.399114,-21.784262 -0.352186,-0.79618 -1.136301,-1.80333 -1.795411,-2.30606 l -1.17021,-0.89228 -21.501509,0 z m 34.311739,5.55624 3.241143,0 3.241142,0 0.08923,2.88604 c 0.05755,1.862885 -0.03813,3.039546 -0.269493,3.318316 -0.257223,0.309936 -1.121655,0.432272 -3.060876,0.432272 -1.939222,0 -2.803657,-0.122336 -3.06088,-0.432272 -0.231359,-0.27877 -0.32704,-1.455431 -0.269493,-3.318316 z M 48.00177,38.376471 c 2.865396,-0.01383 5.140222,0.97923 7.09181,3.096449 3.082768,3.344408 3.523502,7.994374 1.118966,11.803401 -2.213497,3.506411 -6.728162,5.287175 -10.656705,4.203358 -2.084931,-0.575195 -3.360038,-1.353263 -4.762237,-2.905332 -1.41102,-1.561833 -1.900825,-2.543649 -2.345849,-4.703154 -0.681436,-3.306676 0.373527,-6.514253 2.912567,-8.85466 2.095871,-1.931903 3.843781,-2.626573 6.641448,-2.640062 z m -16.533082,4.809865 c 0.745773,0.0043 1.333876,0.06855 1.435483,0.17062 0.13548,0.136085 0.08969,1.255143 -0.101285,2.486926 -1.267303,8.174127 4.447875,15.965176 12.736677,17.363263 7.629047,1.286804 15.470522,-3.789954 17.42114,-11.278886 0.527871,-2.026627 0.606495,-5.216523 0.174238,-7.080958 -0.360035,-1.552921 -0.103044,-1.735227 2.305456,-1.631421 l 1.852081,0.08018 0.195336,4.167183 c 0.317555,6.784705 0.294268,17.792673 -0.03919,18.669729 -0.638511,1.679409 -0.921728,1.704275 -19.515586,1.69111 -14.018112,-0.0099 -17.244411,-0.09015 -18.070455,-0.449154 -0.559116,-0.242996 -1.141568,-0.795171 -1.311891,-1.243161 -0.333051,-0.875982 -0.3553,-11.88889 -0.03798,-18.668524 l 0.194733,-4.167183 1.975072,-0.09345 c 0.271572,-0.01281 0.537578,-0.01772 0.78617,-0.01627 z"
       style="fill:none;fill-rule:evenodd;stroke:#000000;stroke-width:4;stroke-linecap:butt;stroke-linejoin:miter;stroke-opacity:1;stroke-miterlimit:4;stroke-dasharray:none;opacity:0.1" />
    <path
       style="fill:none;fill-rule:evenodd;stroke:#000000;stroke-width:6;stroke-linecap:butt;stroke-linejoin:miter;stroke-opacity:1;stroke-miterlimit:4;stroke-dasharray:none;opacity:0.1"
       d="m 26.498454,23.231848 -1.170212,0.89228 c -0.659109,0.50273 -1.443224,1.50988 -1.79541,2.30606 -0.615091,1.39051 -0.621672,1.74511 -0.399114,21.769791 0.132461,11.917959 0.351361,20.686935 0.528133,21.153641 0.441888,1.166629 1.483018,2.190827 2.884834,2.837808 1.15998,0.535366 2.454851,0.569996 21.386356,0.576364 17.446555,0.0059 20.303665,-0.05678 21.287482,-0.467844 1.452924,-0.607069 2.167136,-1.26189 2.861922,-2.623179 0.513005,-1.005122 0.575254,-2.702199 0.783761,-21.462319 0.222722,-20.039322 0.21599,-20.393712 -0.399114,-21.784262 -0.352186,-0.79618 -1.136301,-1.80333 -1.795411,-2.30606 l -1.17021,-0.89228 -21.501509,0 z m 34.311739,5.55624 3.241143,0 3.241142,0 0.08923,2.88604 c 0.05755,1.862885 -0.03813,3.039546 -0.269493,3.318316 -0.257223,0.309936 -1.121655,0.432272 -3.060876,0.432272 -1.939222,0 -2.803657,-0.122336 -3.06088,-0.432272 -0.231359,-0.27877 -0.32704,-1.455431 -0.269493,-3.318316 z M 48.00177,38.376471 c 2.865396,-0.01383 5.140222,0.97923 7.09181,3.096449 3.082768,3.344408 3.523502,7.994374 1.118966,11.803401 -2.213497,3.506411 -6.728162,5.287175 -10.656705,4.203358 -2.084931,-0.575195 -3.360038,-1.353263 -4.762237,-2.905332 -1.41102,-1.561833 -1.900825,-2.543649 -2.345849,-4.703154 -0.681436,-3.306676 0.373527,-6.514253 2.912567,-8.85466 2.095871,-1.931903 3.843781,-2.626573 6.641448,-2.640062 z m -16.533082,4.809865 c 0.745773,0.0043 1.333876,0.06855 1.435483,0.17062 0.13548,0.136085 0.08969,1.255143 -0.101285,2.486926 -1.267303,8.174127 4.447875,15.965176 12.736677,17.363263 7.629047,1.286804 15.470522,-3.789954 17.42114,-11.278886 0.527871,-2.026627 0.606495,-5.216523 0.174238,-7.080958 -0.360035,-1.552921 -0.103044,-1.735227 2.305456,-1.631421 l 1.852081,0.08018 0.195336,4.167183 c 0.317555,6.784705 0.294268,17.792673 -0.03919,18.669729 -0.638511,1.679409 -0.921728,1.704275 -19.515586,1.69111 -14.018112,-0.0099 -17.244411,-0.09015 -18.070455,-0.449154 -0.559116,-0.242996 -1.141568,-0.795171 -1.311891,-1.243161 -0.333051,-0.875982 -0.3553,-11.88889 -0.03798,-18.668524 l 0.194733,-4.167183 1.975072,-0.09345 c 0.271572,-0.01281 0.537578,-0.01772 0.78617,-0.01627 z"
       id="path4805"
       inkscape:connector-curvature="0"
       sodipodi:nodetypes="ccsssssssssccccccccsssccssssssssscsssscccsssscccs" />
    <path
       sodipodi:nodetypes="ccsssssssssccccccccsssccssssssssscsssscccsssscccs"
       inkscape:connector-curvature="0"
       id="path4789"
       d="m 26.498454,23.231848 -1.170212,0.89228 c -0.659109,0.50273 -1.443224,1.50988 -1.79541,2.30606 -0.615091,1.39051 -0.621672,1.74511 -0.399114,21.769791 0.132461,11.917959 0.351361,20.686935 0.528133,21.153641 0.441888,1.166629 1.483018,2.190827 2.884834,2.837808 1.15998,0.535366 2.454851,0.569996 21.386356,0.576364 17.446555,0.0059 20.303665,-0.05678 21.287482,-0.467844 1.452924,-0.607069 2.167136,-1.26189 2.861922,-2.623179 0.513005,-1.005122 0.575254,-2.702199 0.783761,-21.462319 0.222722,-20.039322 0.21599,-20.393712 -0.399114,-21.784262 -0.352186,-0.79618 -1.136301,-1.80333 -1.795411,-2.30606 l -1.17021,-0.89228 -21.501509,0 z m 34.311739,5.55624 3.241143,0 3.241142,0 0.08923,2.88604 c 0.05755,1.862885 -0.03813,3.039546 -0.269493,3.318316 -0.257223,0.309936 -1.121655,0.432272 -3.060876,0.432272 -1.939222,0 -2.803657,-0.122336 -3.06088,-0.432272 -0.231359,-0.27877 -0.32704,-1.455431 -0.269493,-3.318316 z M 48.00177,38.376471 c 2.865396,-0.01383 5.140222,0.97923 7.09181,3.096449 3.082768,3.344408 3.523502,7.994374 1.118966,11.803401 -2.213497,3.506411 -6.728162,5.287175 -10.656705,4.203358 -2.084931,-0.575195 -3.360038,-1.353263 -4.762237,-2.905332 -1.41102,-1.561833 -1.900825,-2.543649 -2.345849,-4.703154 -0.681436,-3.306676 0.373527,-6.514253 2.912567,-8.85466 2.095871,-1.931903 3.843781,-2.626573 6.641448,-2.640062 z m -16.533082,4.809865 c 0.745773,0.0043 1.333876,0.06855 1.435483,0.17062 0.13548,0.136085 0.08969,1.255143 -0.101285,2.486926 -1.267303,8.174127 4.447875,15.965176 12.736677,17.363263 7.629047,1.286804 15.470522,-3.789954 17.42114,-11.278886 0.527871,-2.026627 0.606495,-5.216523 0.174238,-7.080958 -0.360035,-1.552921 -0.103044,-1.735227 2.305456,-1.631421 l 1.852081,0.08018 0.195336,4.167183 c 0.317555,6.784705 0.294268,17.792673 -0.03919,18.669729 -0.638511,1.679409 -0.921728,1.704275 -19.515586,1.69111 -14.018112,-0.0099 -17.244411,-0.09015 -18.070455,-0.449154 -0.559116,-0.242996 -1.141568,-0.795171 -1.311891,-1.243161 -0.333051,-0.875982 -0.3553,-11.88889 -0.03798,-18.668524 l 0.194733,-4.167183 1.975072,-0.09345 c 0.271572,-0.01281 0.537578,-0.01772 0.78617,-0.01627 z"
       style="fill:#f9f9f9;fill-rule:evenodd;stroke:none;stroke-width:1px;stroke-linecap:butt;stroke-linejoin:miter;stroke-opacity:1" />
  </g>
</svg>
