<svg height="96" width="96" xmlns="http://www.w3.org/2000/svg" xmlns:sodipodi="http://sodipodi.sourceforge.net/DTD/sodipodi-0.dtd" xmlns:inkscape="http://www.inkscape.org/namespaces/inkscape">
 <defs>
  <linearGradient x2="0" y1="20.221" y2="138.66" gradientUnits="userSpaceOnUse" id="linearGradient3613-7">
   <stop stop-color="#ffac2d"/>
   <stop stop-color="#f57d00" stop-opacity="0" offset="1"/>
  </linearGradient>
  <clipPath id="clipPath3613-69">
   <rect x="6" rx="6" y="6" height="84" width="84"/>
  </clipPath>
  <filter x="-0.192" y="-0.192" height="1.384" color-interpolation-filters="sRGB" id="filter3794-43" width="1.384">
   <feGaussianBlur stdDeviation="5.28"/>
  </filter>
  <linearGradient x2="0" y1="90" y2="5.988" gradientUnits="userSpaceOnUse" id="linearGradient13446" gradientTransform="matrix(1.0691 0 0 1.0756 -3.799 -3.836)">
   <stop stop-color="#6a2700"/>
   <stop stop-color="#c04700" offset="1"/>
  </linearGradient>
  <linearGradient x1="373" x2="375.8" y1="597.84" y2="477.87" gradientUnits="userSpaceOnUse" id="linearGradient13467" gradientTransform="matrix(0.21272 0 0 0.21526 -32.06 895.27)">
   <stop stop-color="#ff9d60"/>
   <stop stop-color="#ffe1ba" offset="1"/>
  </linearGradient>
 </defs>
 <g transform="matrix(1 0 0 1 0 -956.36)">
  <rect x="3.353" rx="12.724" y="959.35" fill-opacity="0.02" height="89.98" width="89.62"/>
  <rect x="3.959" rx="12.552" y="959.96" fill-opacity="0.039" height="88.76" width="88.41"/>
  <rect x="4.564" rx="12.38" y="960.57" fill-opacity="0.078" height="87.55" width="87.2"/>
  <rect x="5.17" rx="12.208" y="961.18" fill-opacity="0.157" height="86.33" width="85.991"/>
  <path d="m17.75 5.4062c-6.642 0-11.969 5.3948-11.969 12.063l0.0002 61.031c0 6.668 5.3268 12.031 11.969 12.031h60.812c6.642 0 11.969-5.363 11.969-12.031v-61.031c0-6.668-5.327-12.063-11.969-12.063l-60.812 0.0002z" fill="url(#linearGradient13446)" transform="matrix(1 0 0 1 0 956.36)"/>
  <path d="m5.7756 1029.8v5.0663c0 6.668 5.3434 12.032 11.985 12.032h60.809c6.6418 0 11.985-5.3645 11.985-12.032v-5.0663c0 6.6681-5.3434 12.032-11.985 12.032h-60.809c-6.6418 0-11.985-5.3643-11.985-12.032z" fill-opacity="0.235"/>
  <path d="m5.7756 1033.9v1.0133c0 6.668 5.3434 12.032 11.985 12.032h60.809c6.6418 0 11.985-5.3645 11.985-12.032v-1.0133c0 6.6681-5.3434 12.032-11.985 12.032h-60.809c-6.6418 0-11.985-5.3644-11.985-12.032z" fill-opacity="0.098"/>
  <rect x="15" stroke-width="0.5" rx="12" y="15" clip-path="url(#clipPath3613-69)" fill="url(#linearGradient3613-7)" stroke="#fff" height="66" filter="url(#filter3794-43)" opacity="0.2" stroke-linecap="round" width="66" transform="matrix(1 0 0 1 -0.118 954.43)"/>
  <path d="m47.879 971.43c-5.7922 0-11.439 2.3756-15.535 6.5318-4.0965 4.1561-6.4614 9.9023-6.4614 15.781 0 5.8789 2.3649 11.618 6.4614 15.774 3.4707 3.5211 8.0543 5.7676 12.896 6.3703v1.0886h-7.9305v5.368h7.9305l1.6117 15.086h2.0614l1.6117-15.086h7.9305v-5.368h-7.9305v-1.0886c4.8497-0.6027 9.4588-2.8492 12.929-6.3703 4.0965-4.1561 6.4282-9.8956 6.4282-15.774 0-5.8788-2.3316-11.625-6.4282-15.781-4.0965-4.1561-9.783-6.5318-15.575-6.5318zm0 2.1165c4.3454 0 8.8741 1.74 11.826 4.9711 6.7415 7.3794 6.4619 19.882 0 27.233-2.8889 3.2864-7.4805 4.9644-11.826 4.9644-4.3361 0-8.7151-1.86-11.786-4.9644h-0.03325c-6.6216-7.4941-6.279-19.712 0-27.233 3.0718-3.1165 7.4739-4.9711 11.819-4.9711h0.000012z" fill="#f95" color="#000000" opacity="0.3"/>
  <path d="m47.879 969.43c-5.7922 0-11.439 2.3756-15.535 6.5318-4.0965 4.1561-6.4614 9.9023-6.4614 15.781 0 5.8788 2.3649 11.618 6.4614 15.774 3.4707 3.5211 8.0543 5.7676 12.896 6.3703v1.0886h-7.9305v5.368h7.9305l1.6117 15.086h2.0614l1.6117-15.086h7.9305v-5.368h-7.9305v-1.0886c4.8497-0.6027 9.4588-2.8492 12.929-6.3703 4.0965-4.1561 6.4282-9.8957 6.4282-15.774 0-5.8788-2.3316-11.625-6.4282-15.781-4.0965-4.1561-9.783-6.5318-15.575-6.5318zm0 2.1165c4.3454 0 8.8741 1.74 11.826 4.9711 6.7415 7.3794 6.4619 19.882 0 27.233-2.8889 3.2864-7.4805 4.9644-11.826 4.9644-4.3361 0-8.7151-1.86-11.786-4.9644h-0.03325c-6.6216-7.4941-6.279-19.712 0-27.233 3.0718-3.1165 7.4739-4.9711 11.819-4.9711h0.000012z" fill="#520" color="#000000"/>
  <path d="m47.879 970.43c-5.7922 0-11.439 2.3756-15.535 6.5318-4.0965 4.1561-6.4614 9.9023-6.4614 15.781 0 5.8788 2.3649 11.618 6.4614 15.774 3.4707 3.5211 8.0543 5.7676 12.896 6.3703v1.0886h-7.9305v5.368h7.9305l1.6117 15.086h2.0614l1.6117-15.086h7.9305v-5.368h-7.9305v-1.0886c4.8497-0.6027 9.4588-2.8492 12.929-6.3703 4.0965-4.1561 6.4282-9.8957 6.4282-15.774 0-5.8788-2.3316-11.625-6.4282-15.781-4.0965-4.1561-9.783-6.5318-15.575-6.5318zm0 2.1165c4.3454 0 8.8741 1.74 11.826 4.9711 6.7415 7.3794 6.4619 19.882 0 27.233-2.8889 3.2864-7.4805 4.9644-11.826 4.9644-4.3361 0-8.7151-1.86-11.786-4.9644h-0.03325c-6.6216-7.4941-6.279-19.712 0-27.233 3.0718-3.1165 7.4739-4.9711 11.819-4.9711h0.000012z" fill="url(#linearGradient13467)" color="#000000"/>
  <path d="m47.882 970.43c-5.7922 0-11.435 2.3752-15.531 6.5312-4.0965 4.1561-6.4688 9.9024-6.4688 15.781 0 5.8788 2.3722 11.625 6.4688 15.781 3.4707 3.5211 8.0331 5.7723 12.875 6.375v1.0625h-7.9062v5.375h7.9062l1.625 15.094h2.0625l1.625-15.094h7.9062v-5.375h-7.9062v-1.0625c4.8497-0.6027 9.4356-2.8539 12.906-6.375 4.0965-4.1561 6.4375-9.9025 6.4375-15.781 0-5.8788-2.341-11.625-6.4375-15.781-4.0965-4.1561-9.7703-6.5312-15.562-6.5312zm0 1c5.5188 0 10.938 2.2558 14.844 6.2188 3.9067 3.9635 6.1562 9.4804 6.1562 15.094 0 5.6133-2.2495 11.13-6.1562 15.094-3.3111 3.3592-7.6886 5.4879-12.312 6.0625a1.0002 1.0002 0 0 0 -0.875 1v1.0625a1.0002 1.0002 0 0 0 1 1h6.9062v3.375h-6.9062a1.0002 1.0002 0 0 0 -1 0.9063l-1.5312 14.188h-0.25l-1.5312-14.188a1.0002 1.0002 0 0 0 -1 -0.9063h-6.9062v-3.375h6.9062a1.0002 1.0002 0 0 0 1 -1v-1.0625a1.0002 1.0002 0 0 0 -0.875 -1c-4.6154-0.5745-8.9686-2.7016-12.281-6.0625-3.9085-3.9653-6.1875-9.484-6.1875-15.094 0-5.6098 2.279-11.128 6.1875-15.094 3.908-3.9648 9.2937-6.2188 14.812-6.2188zm0 0.125c-4.6296 0-9.2637 1.9662-12.531 5.2812a1.0002 1.0002 0 0 0 -0.0625 0.0313c-6.6086 7.9159-6.9584 20.621 0.03125 28.531a1.0002 1.0002 0 0 0 0.0625 0.063 1.0002 1.0002 0 0 0 0.21875 0.1562c3.2513 3.1849 7.748 5.0938 12.281 5.0938 4.6035 0 9.4394-1.7597 12.562-5.3125 6.8233-7.7623 7.1298-20.758 0-28.563-3.1739-3.4743-7.9505-5.2812-12.562-5.2812zm0 1c4.3454 0 8.8607 1.7376 11.812 4.9688 6.7415 7.3794 6.4619 19.868 0 27.219-2.8889 3.2864-7.4671 4.9687-11.812 4.9687-4.3361 0-8.7103-1.8643-11.781-4.9687h-0.03125c-6.6216-7.4941-6.279-19.698 0-27.219 3.0718-3.1165 7.4671-4.9688 11.812-4.9688z" fill="#a14505" color="#000000" opacity="0.2"/>
 </g>
</svg>
