<?xml version="1.0" encoding="UTF-8" standalone="no"?>
<svg
   xmlns:dc="http://purl.org/dc/elements/1.1/"
   xmlns:cc="http://creativecommons.org/ns#"
   xmlns:rdf="http://www.w3.org/1999/02/22-rdf-syntax-ns#"
   xmlns:svg="http://www.w3.org/2000/svg"
   xmlns="http://www.w3.org/2000/svg"
   xmlns:xlink="http://www.w3.org/1999/xlink"
   xmlns:sodipodi="http://sodipodi.sourceforge.net/DTD/sodipodi-0.dtd"
   xmlns:inkscape="http://www.inkscape.org/namespaces/inkscape"
   height="96"
   width="96"
   id="svg608"
   version="1.1"
   inkscape:version="0.91 r13725"
   sodipodi:docname="as-icon.svg">
  <metadata
     id="metadata658">
    <rdf:RDF>
      <cc:Work
         rdf:about="">
        <dc:format>image/svg+xml</dc:format>
        <dc:type
           rdf:resource="http://purl.org/dc/dcmitype/StillImage" />
      </cc:Work>
    </rdf:RDF>
  </metadata>
  <sodipodi:namedview
     pagecolor="#ffffff"
     bordercolor="#666666"
     borderopacity="1"
     objecttolerance="10"
     gridtolerance="10"
     guidetolerance="10"
     inkscape:pageopacity="0"
     inkscape:pageshadow="2"
     inkscape:window-width="640"
     inkscape:window-height="480"
     id="namedview656"
     showgrid="false"
     inkscape:zoom="2.4583333"
     inkscape:cx="48"
     inkscape:cy="24.533243"
     inkscape:current-layer="svg608" />
  <defs
     id="defs610">
    <clipPath
       id="clipPath3613-46">
      <rect
         x="6"
         rx="6"
         y="6"
         height="84"
         width="84"
         id="rect613" />
    </clipPath>
    <filter
       x="-0.192"
       y="-0.192"
       height="1.384"
       color-interpolation-filters="sRGB"
       id="filter3794-1"
       width="1.384">
      <feGaussianBlur
         stdDeviation="5.28"
         id="feGaussianBlur616" />
    </filter>
    <linearGradient
       x2="0"
       y1="90"
       y2="5.988"
       gradientUnits="userSpaceOnUse"
       id="linearGradient18306"
       gradientTransform="matrix(1.0884,0,0,1.0791,-5.171,-4.365)">
      <stop
         stop-color="#ca0019"
         id="stop619" />
      <stop
         stop-color="#e68995"
         offset="1"
         id="stop621" />
    </linearGradient>
    <linearGradient
       x2="0"
       y1="20.221"
       y2="138.66"
       gradientUnits="userSpaceOnUse"
       id="linearGradient18318">
      <stop
         stop-color="#fff"
         id="stop624" />
      <stop
         stop-color="#fff"
         stop-opacity="0"
         offset="1"
         id="stop626" />
    </linearGradient>
    <linearGradient
       inkscape:collect="always"
       xlink:href="#linearGradient14231"
       id="linearGradient14237"
       x1="50.707542"
       y1="81.682442"
       x2="50.707542"
       y2="96.539803"
       gradientUnits="userSpaceOnUse" />
    <linearGradient
       inkscape:collect="always"
       id="linearGradient14231">
      <stop
         style="stop-color:#000000;stop-opacity:1;"
         offset="0"
         id="stop14233" />
      <stop
         style="stop-color:#000000;stop-opacity:0;"
         offset="1"
         id="stop14235" />
    </linearGradient>
    <linearGradient
       inkscape:collect="always"
       xlink:href="#linearGradient14239"
       id="linearGradient14245"
       x1="49.876652"
       y1="87.937508"
       x2="49.876652"
       y2="76.719681"
       gradientUnits="userSpaceOnUse" />
    <linearGradient
       inkscape:collect="always"
       id="linearGradient14239">
      <stop
         style="stop-color:#ffffff;stop-opacity:1;"
         offset="0"
         id="stop14241" />
      <stop
         style="stop-color:#ffffff;stop-opacity:0;"
         offset="1"
         id="stop14243" />
    </linearGradient>
  </defs>
  <rect
     style="fill-opacity:0.02000002"
     id="rect630"
     width="89.620003"
     height="89.980003"
     y="2.9899757"
     rx="12.724"
     x="3.3529999" />
  <rect
     style="fill-opacity:0.03900003"
     id="rect632"
     width="88.410004"
     height="88.760002"
     y="3.6000221"
     rx="12.552"
     x="3.9590001" />
  <rect
     style="fill-opacity:0.078"
     id="rect634"
     width="87.199997"
     height="87.550003"
     y="4.2100072"
     rx="12.38"
     x="4.5640001" />
  <rect
     style="fill-opacity:0.15700001"
     id="rect636"
     width="85.990997"
     height="86.330002"
     y="4.8199925"
     rx="12.208"
     x="5.1700001" />
  <path
     inkscape:connector-curvature="0"
     style="fill:url(#linearGradient18306)"
     id="path638"
     d="m 17.75,5.4062 c -6.642,0 -11.969,5.3948 -11.969,12.063 l 2e-4,61.031 c 0,6.668 5.3268,12.031 11.969,12.031 l 60.812,0 c 6.642,0 11.969,-5.363 11.969,-12.031 l 0,-61.031 c 0,-6.668 -5.327,-12.063 -11.969,-12.063 l -60.812,2e-4 z" />
  <g
     id="g644"
     transform="translate(108.2,-916.13)">
    <path
       style="opacity:0.05;fill:#a10619"
       inkscape:connector-curvature="0"
       id="path646"
       d="m -71.344,941.22 c -8.9768,-0.42456 -17.79,5.4231 -20.594,14.031 -0.003,0.009 0.003,0.022 0,0.0313 -3.2649,8.92 0.41874,19.635 8.5312,24.594 0.0072,0.004 0.024,-0.004 0.03125,0 7.0657,4.6979 16.931,4.3074 23.594,-0.96875 l 0.03125,0 0,0.0313 c 0.95851,-0.74891 2.2557,-1.7221 3.1875,-2.9688 0.39199,-0.52447 0.62148,-1.178 0.78125,-1.8438 0.50659,0.93295 0.89984,1.9062 1.4688,2.8125 a 0.89547,0.89547 0 0 0 0,0.0313 c 2.5771,3.8724 7.1547,5.9209 11.688,5.8125 0.04162,-9.9e-4 0.08339,10e-4 0.125,0 5.1224,0.4443 10.431,-1.8984 13.25,-6.3125 2.8784,-4.6462 3.0113,-11.381 -0.90625,-15.594 a 0.89547,0.89547 0 0 0 -0.03125,0 c -3.898,-3.9664 -9.4229,-4.3545 -13.469,-6.6562 -0.29807,-0.38679 -0.37563,-0.67202 -0.3125,-0.9375 0.06944,-0.29203 0.30712,-0.62442 0.6875,-0.875 0.38038,-0.25058 0.87057,-0.39214 1.3125,-0.375 0.44193,0.0171 0.80187,0.16139 1.125,0.53125 l 0.03125,-0.0313 c 1.0952,1.4268 2.6998,2.0167 4.2188,1.9062 1.4927,-0.10858 2.8952,-0.80438 4.0312,-1.7188 l 0.03125,0.0313 c 0.04085,-0.024 0.0541,-0.0689 0.09375,-0.0937 0.92979,-0.58213 1.5465,-1.3548 1.75,-2.2188 0.21215,-0.9008 -0.0054,-1.801 -0.375,-2.5938 -0.72228,-1.5492 -2.0706,-2.8285 -3.3125,-3.625 -0.02948,-0.0243 -0.06407,-0.0385 -0.09375,-0.0625 -5.9289,-4.7844 -15.917,-2.8671 -19.156,4.2188 -0.01997,0.0265 -0.01208,0.0668 -0.03125,0.0937 -0.01557,0.0349 -0.04725,0.0586 -0.0625,0.0937 -0.52093,0.78212 -0.70938,1.7087 -0.8125,2.6562 -3.4563,-5.8925 -9.8902,-9.8439 -16.812,-10 z m -1.0312,11.062 c 0.89357,-0.0217 1.7647,0.078 2.625,0.28125 a 0.89547,0.89547 0 0 0 0.0625,0 c 3.2505,0.59033 5.6653,3.3304 6.875,6.4375 a 0.89547,0.89547 0 0 0 0.03125,0.0625 c 0.92994,2.0355 1.8013,4.1344 2.6875,6.2188 -0.46613,-0.0918 -0.93626,-0.12128 -1.375,0 -0.89311,0.24688 -1.6419,0.92762 -2.0312,1.8438 l -0.03125,-0.0313 c -1.5183,2.1435 -3.7524,3.9872 -6.2188,4.7188 -2.7339,0.10479 -5.3803,0.47195 -7.3125,-0.96875 a 0.89547,0.89547 0 0 0 -0.03125,-0.0313 c -2.7653,-1.7916 -5.1148,-4.8512 -4.75,-8.0938 a 0.89547,0.89547 0 0 0 0,-0.21875 c -0.33413,-2.595 0.43734,-5.1446 2.3438,-6.9062 a 0.89547,0.89547 0 0 0 0.09375,-0.0937 c 1.6629,-2.071 4.3505,-3.1536 7.0312,-3.2188 z m 23.688,11.594 c 3.2994,1.9777 7.0419,2.8206 10.125,4.4688 0.54363,0.5658 0.55851,1.251 0.15625,2.0312 -0.41576,0.80647 -1.3002,1.4606 -2.0625,1.5312 a 0.89547,0.89547 0 0 0 -0.1875,0.0625 c -2.484,0.82068 -5.0181,-0.47019 -5.7812,-2.9688 a 0.89547,0.89547 0 0 0 -0.03125,-0.125 c -0.77701,-1.6322 -1.4982,-3.3207 -2.2188,-5 z" />
    <path
       style="opacity:0.15;fill:#a10619"
       inkscape:connector-curvature="0"
       id="path648"
       d="m -71.375,942.13 c -8.5671,-0.40518 -17.046,5.2448 -19.705,13.451 -3.1288,8.5058 0.44358,18.821 8.1882,23.54 6.7321,4.4903 16.231,4.1425 22.576,-0.89631 1.9508,-1.5242 5.02,-3.6951 3.441,-6.5322 -0.76707,-1.652 -1.3653,-3.4343 -2.3438,-4.9688 -1.0736,-1.2248 -3.1161,-0.57956 -3.5861,0.89769 -1.6273,2.2975 -4.0163,4.3132 -6.764,5.1042 -2.7069,0.0932 -5.7061,0.57322 -8.0356,-1.1637 -2.9605,-1.9181 -5.5311,-5.2155 -5.1138,-8.9246 -0.36639,-2.8456 0.49786,-5.7166 2.6342,-7.6908 2.4749,-3.0823 6.813,-4.1462 10.559,-3.261 3.647,0.66234 6.2535,3.6765 7.5453,6.9944 2.7244,5.9633 4.9347,12.218 8.4324,17.79 2.4072,3.6171 6.7305,5.5456 11.016,5.4058 4.8336,0.46201 9.8803,-1.7286 12.521,-5.8631 2.677,-4.321 2.7766,-10.659 -0.8025,-14.508 -3.6577,-3.7219 -9.1814,-4.0462 -13.5,-6.5938 -2.1676,-2.5031 2.19,-5.1762 4.1486,-2.9344 1.8325,2.4611 5.1325,1.6879 7.1763,-0.0141 3.3749,-1.9875 0.30159,-5.6435 -1.9444,-7.0484 -5.483,-4.518 -15.085,-2.6628 -17.981,4.0113 -1.1563,1.5353 -0.85309,5.7734 -0.87474,5.976 -2.5603,-7.3732 -9.7909,-12.596 -17.587,-12.772 z m 20.531,19.031 c 3.5548,3.4791 8.6747,4.1633 12.889,6.4693 1.8293,1.7473 -0.10945,4.9753 -2.4135,5.1889 -2.935,0.96968 -5.9989,-0.62016 -6.9017,-3.5758 -1.2663,-2.66 -2.3978,-5.382 -3.574,-8.0824 z" />
    <path
       style="opacity:0.3;fill:#a10619"
       inkscape:connector-curvature="0"
       id="path650"
       d="m -71.406,943.25 c -7.0711,-0.23513 -14.22,3.493 -17.656,10.406 -4.7915,9.6392 -0.79358,21.134 8.9375,25.688 1.5277,0.71482 3.6399,1.4069 5.0312,1.5938 4.4452,0.59696 8.6655,-0.20203 12.312,-2.4062 1.2016,-0.72627 2.4247,-1.6736 3.375,-2.5312 0.47516,-0.4288 0.90538,-0.83777 1.2188,-1.2188 0.31337,-0.38098 0.625,-0.60172 0.625,-1.3438 0,-0.39131 -0.06149,-0.42349 -0.125,-0.625 -0.06351,-0.20151 -0.14695,-0.44641 -0.25,-0.71875 -0.20609,-0.54468 -0.50152,-1.2165 -0.8125,-1.9062 l -1.125,-2.4375 a 0.93161,0.93161 0 0 0 -1.6562,-0.0937 l -0.5,0.875 -0.03125,0.0313 c -0.91879,1.4398 -3.5727,3.7249 -5.2812,4.5312 -1.6428,0.77528 -2.0552,0.84375 -4.9062,0.84375 -2.9671,0 -3.2345,-0.0342 -5.0625,-0.9375 -2.3885,-1.1803 -4.6245,-3.4706 -5.7188,-5.8125 -0.76196,-1.6308 -0.8125,-2.04 -0.8125,-5.0938 0,-3.2021 0.0199,-3.3649 0.9375,-5.1875 1.028,-2.0418 3.4391,-4.4596 5.3438,-5.4375 1.9867,-1.0201 5.3114,-1.5111 7.4688,-1.0625 4.6035,0.95716 7.1531,3.2045 9.3438,8.2812 5.4589,12.651 7.1438,16.175 9,18.219 2.6063,2.87 5.1013,3.8367 9.6562,3.8438 3.1444,0.005 4.0992,-0.15406 6.0625,-1.0625 4.4641,-2.0656 6.8636,-5.7941 6.8125,-10.656 -0.02921,-2.78 -0.69075,-5.0104 -2.4062,-6.75 -1.7155,-1.7396 -4.3476,-2.9667 -8.25,-4.25 -2.7629,-0.90859 -4.3727,-1.6215 -5.1562,-2.25 -0.78356,-0.62849 -0.90625,-1.0775 -0.90625,-2.2812 0,-1.1358 0.34385,-1.9389 0.9375,-2.5 0.59365,-0.56107 1.4856,-0.90625 2.7188,-0.90625 1.4853,0 2.0229,0.22773 3.3125,1.4375 0.38866,0.36458 0.76688,0.64486 1.2188,0.8125 0.45187,0.16764 0.96788,0.17761 1.4062,0.0625 0.74109,-0.19459 1.5162,-0.62068 2.2188,-1.0625 0.35129,-0.22091 0.67266,-0.42353 0.9375,-0.65625 0.13242,-0.11636 0.25936,-0.25531 0.375,-0.40625 0.11564,-0.15094 0.28125,-0.32053 0.28125,-0.75 0,-0.42042 -0.14205,-0.64027 -0.28125,-0.875 -0.1392,-0.23473 -0.30233,-0.456 -0.5,-0.6875 -0.39534,-0.463 -0.90762,-0.9833 -1.4688,-1.4688 -1.1223,-0.9709 -2.3597,-1.8697 -3.4688,-2.25 -4.1942,-1.4383 -8.9158,-0.53472 -11.75,2.4062 -1.8871,1.9582 -2.7534,4.1257 -2.75,6.9688 0.003,2.6541 0.73885,4.8594 2.5312,6.625 1.79235,1.7656 4.5209,3.1082 8.5,4.5 2.5503,0.89208 4.0167,1.565 4.7188,2.1875 0.70203,0.62255 0.84375,1.1549 0.84375,2.4375 0,1.395 -0.5602,2.5301 -1.5625,3.375 -1.0023,0.8449 -2.4669,1.375 -4.25,1.375 -2.2952,0 -3.1632,-0.31646 -4.375,-1.4688 -0.56079,-0.53325 -0.97934,-1.0272 -1.7812,-2.625 -0.80191,-1.5978 -1.9606,-4.2333 -3.9062,-8.75 -1.8643,-4.328 -3.0658,-6.9883 -4.1562,-8.9062 -1.0905,-1.9179 -2.0918,-3.0957 -3.375,-4.2812 -3.3828,-3.1253 -7.6001,-4.7026 -11.844,-4.8438 z" />
    <path
       style="fill:#ffffff"
       inkscape:connector-curvature="0"
       id="path652"
       d="m -74.957,980.01 c -1.1953,-0.16052 -3.3373,-0.83651 -4.76,-1.5022 -9.277,-4.3409 -13.073,-15.254 -8.5039,-24.447 5.2266,-10.514 19.472,-13.195 28.042,-5.2771 2.4752,2.2868 3.5855,4.2445 7.3076,12.885 3.8935,9.0385 4.6173,10.476 5.8818,11.678 1.3478,1.2816 2.5976,1.7081 5.0055,1.7081 3.9399,0 6.751,-2.3661 6.751,-5.6823 0,-2.7945 -1.0149,-3.6997 -6.1703,-5.503 -7.8503,-2.746 -10.394,-5.251 -10.399,-10.242 -0.0032,-2.6776 0.69849,-4.4754 2.4595,-6.3027 2.5349,-2.6304 6.9101,-3.5205 10.78,-2.1933 1.6396,0.56226 5.0928,3.5476 5.0928,4.4029 0,0.41395 -1.9974,1.6828 -3.1081,1.9744 -0.58211,0.15285 -1.0878,-0.0404 -1.7629,-0.6737 -1.3722,-1.2872 -2.3009,-1.6845 -3.938,-1.6845 -2.8313,0 -4.5893,1.6642 -4.5893,4.3442 0,2.673 1.1235,3.5811 6.6992,5.4147 7.6972,2.5313 9.9565,4.8133 10.012,10.113 0.048,4.5693 -2.0567,7.8659 -6.2655,9.8134 -1.9156,0.88637 -2.559,0.99885 -5.6859,0.99398 -4.4471,-0.007 -6.4495,-0.80173 -8.9459,-3.5506 -1.6768,-1.8464 -3.3834,-5.3135 -8.8389,-17.956 -2.2616,-5.2411 -5.1712,-7.8009 -10.011,-8.8072 -2.4427,-0.50787 -5.8593,-0.0407 -8.0942,1.1068 -2.1555,1.1067 -4.5957,3.6064 -5.7407,5.8805 -0.93719,1.8615 -1.0327,2.3796 -1.0327,5.5998 0,3.0771 0.12117,3.8079 0.91192,5.5002 1.1982,2.5644 3.5538,4.9512 6.1549,6.2366 1.8743,0.92619 2.4612,1.038 5.4501,1.038 2.8803,0 3.6265,-0.13069 5.3262,-0.93279 1.9585,-0.92426 4.5917,-3.2125 5.6643,-4.9223 l 0.55654,-0.88714 1.102,2.4444 c 0.6061,1.3444 1.102,2.6294 1.102,2.8555 0,0.66783 -2.4837,2.8976 -4.76,4.2734 -3.4609,2.0918 -7.4324,2.8733 -11.693,2.3011 z" />
    <rect
       style="opacity:0.1;fill:url(#linearGradient18318);stroke:#ffffff;stroke-width:0.5;stroke-linecap:round;filter:url(#filter3794-1)"
       id="rect654"
       transform="translate(-108.16,914.19)"
       width="66"
       height="66"
       clip-path="url(#clipPath3613-46)"
       y="15"
       rx="12"
       x="15" />
  </g>
  <g
     id="g14291">
    <path
       d="m 5.2922679,73.685059 0,5.0663 c 0,6.668 5.3645011,12.032 12.0320011,12.032 l 61.049,0 c 6.668,0 12.032,-5.3645 12.032,-12.032 l 0,-5.0663 c 0,6.6681 -5.3645,12.032 -12.032,12.032 l -61.049,0 c -6.668,0 -12.0320011,-5.3643 -12.0320011,-12.032 z"
       id="path64"
       inkscape:connector-curvature="0"
       style="opacity:0.4;fill:url(#linearGradient14237);fill-opacity:1" />
    <path
       inkscape:connector-curvature="0"
       id="path14214"
       d="m 5.2929688,72.717592 0,1.15039 c 0,6.667718 5.3632502,12.031248 12.0312502,12.031248 l 61.048828,0 c 6.6675,0 12.03125,-5.36313 12.03125,-12.031248 l 0,-1.15039 c 0,6.668098 -5.36375,12.031248 -12.03125,12.031248 l -61.048828,0 c -6.668,0 -12.0312502,-5.36355 -12.0312502,-12.031248 z"
       style="opacity:0.5;fill:url(#linearGradient14245);fill-opacity:1" />
  </g>
</svg>
