<?xml version="1.0" encoding="UTF-8" standalone="no"?>
<svg
   xmlns:dc="http://purl.org/dc/elements/1.1/"
   xmlns:cc="http://creativecommons.org/ns#"
   xmlns:rdf="http://www.w3.org/1999/02/22-rdf-syntax-ns#"
   xmlns:svg="http://www.w3.org/2000/svg"
   xmlns="http://www.w3.org/2000/svg"
   xmlns:xlink="http://www.w3.org/1999/xlink"
   xmlns:sodipodi="http://sodipodi.sourceforge.net/DTD/sodipodi-0.dtd"
   xmlns:inkscape="http://www.inkscape.org/namespaces/inkscape"
   height="96"
   width="96"
   id="svg2"
   version="1.1"
   inkscape:version="0.91 r13725"
   sodipodi:docname="libreoffice-impress.svg">
  <metadata
     id="metadata311">
    <rdf:RDF>
      <cc:Work
         rdf:about="">
        <dc:format>image/svg+xml</dc:format>
        <dc:type
           rdf:resource="http://purl.org/dc/dcmitype/StillImage" />
      </cc:Work>
    </rdf:RDF>
  </metadata>
  <sodipodi:namedview
     pagecolor="#ffffff"
     bordercolor="#666666"
     borderopacity="1"
     objecttolerance="10"
     gridtolerance="10"
     guidetolerance="10"
     inkscape:pageopacity="0"
     inkscape:pageshadow="2"
     inkscape:window-width="1366"
     inkscape:window-height="718"
     id="namedview309"
     showgrid="false"
     inkscape:zoom="2.4583333"
     inkscape:cx="47.999999"
     inkscape:cy="47.999999"
     inkscape:window-x="0"
     inkscape:window-y="24"
     inkscape:window-maximized="1"
     inkscape:current-layer="svg2" />
  <defs
     id="defs4">
    <linearGradient
       inkscape:collect="always"
       id="linearGradient4585">
      <stop
         style="stop-color:#ff9b03;stop-opacity:1"
         offset="0"
         id="stop4587" />
      <stop
         style="stop-color:#ce5800;stop-opacity:1"
         offset="1"
         id="stop4589" />
    </linearGradient>
    <linearGradient
       x2="0"
       y1="92.54"
       y2="7.02"
       gradientUnits="userSpaceOnUse"
       id="ButtonShadow-0-59"
       gradientTransform="matrix(1.0059 0 0 0.99417 100 0)">
      <stop
         id="stop7" />
      <stop
         stop-opacity="0.588"
         offset="1"
         id="stop9" />
    </linearGradient>
    <linearGradient
       id="linearGradient8074-2-6">
      <stop
         stop-opacity="0"
         id="stop12" />
      <stop
         offset="0.493"
         id="stop14" />
      <stop
         stop-opacity="0"
         offset="1"
         id="stop16" />
    </linearGradient>
    <linearGradient
       id="linearGradient10658">
      <stop
         stop-color="#b84603"
         id="stop19" />
      <stop
         stop-color="#622502"
         offset="1"
         id="stop21" />
    </linearGradient>
    <linearGradient
       id="linearGradient10391">
      <stop
         stop-color="#e67325"
         id="stop24" />
      <stop
         stop-color="#c8400c"
         offset="1"
         id="stop26" />
    </linearGradient>
    <linearGradient
       id="linearGradient9014-8-3">
      <stop
         stop-color="#fff"
         stop-opacity="0"
         id="stop29" />
      <stop
         stop-color="#fff"
         offset="0.493"
         id="stop31" />
      <stop
         stop-color="#fff"
         stop-opacity="0"
         offset="1"
         id="stop33" />
    </linearGradient>
    <linearGradient
       x2="0"
       xlink:href="#ButtonShadow-0-59"
       y1="92"
       y2="7"
       gradientUnits="userSpaceOnUse"
       id="linearGradient24700"
       gradientTransform="matrix(1.0827,0,0,1.2114,33.392,953.1)" />
    <linearGradient
       x2="0"
       xlink:href="#ButtonShadow-0-59"
       y1="91"
       y2="7"
       gradientUnits="userSpaceOnUse"
       id="linearGradient24702"
       gradientTransform="matrix(1.0827,0,0,1.2114,33.392,953.1)" />
    <linearGradient
       x2="0"
       y1="88"
       y2="8"
       gradientUnits="userSpaceOnUse"
       id="linearGradient24704"
       gradientTransform="matrix(1.2012 0 0 1.4037 30.428 943.74)">
      <stop
         stop-color="#b3b3b3"
         id="stop38" />
      <stop
         stop-color="#e6e6e6"
         offset="1"
         id="stop40" />
    </linearGradient>
    <radialGradient
       cy="47.999"
       r="34.938"
       gradientUnits="userSpaceOnUse"
       id="radialGradient24706"
       cx="48"
       gradientTransform="matrix(1.4317 0 0 1.4802 19.362 940.07)">
      <stop
         id="stop43" />
      <stop
         stop-opacity="0"
         offset="1"
         id="stop45" />
    </radialGradient>
    <linearGradient
       x2="0"
       y1="80"
       y2="16"
       gradientUnits="userSpaceOnUse"
       id="linearGradient24708"
       gradientTransform="matrix(1.0643 0 0 1.2929 36.999 949.06)">
      <stop
         stop-color="#dfdfdf"
         id="stop48" />
      <stop
         stop-color="#fefefe"
         offset="1"
         id="stop50" />
    </linearGradient>
    <clipPath
       clipPathUnits="userSpaceOnUse"
       id="clipPath24720">
      <path
         d="m57.75 961.77c-6.6418 0-11.969 5.3946-11.969 12.062v61.031c0 6.668 5.327 12.031 11.969 12.031h60.812c6.6418 0 11.969-5.3633 11.969-12.031v-61.031c0-6.6679-5.327-12.062-11.969-12.062h-60.812z"
         id="path53" />
    </clipPath>
    <radialGradient
       cy="-754.64"
       r="15"
       gradientUnits="userSpaceOnUse"
       id="radialGradient24726"
       cx="152.33"
       gradientTransform="matrix(0,0.08439,-1.2612,0,-915.34,1162.6)">
      <stop
         stop-color="#808080"
         stop-opacity="0.502"
         id="stop56" />
      <stop
         stop-opacity="0"
         offset="1"
         id="stop58" />
    </radialGradient>
    <linearGradient
       x2="0"
       y1="-1506.6"
       y2="-1510.6"
       gradientUnits="userSpaceOnUse"
       id="linearGradient24730"
       gradientTransform="matrix(0.31192 0 0 0.31171 -228.49 1640.3)">
      <stop
         stop-color="#808080"
         id="stop61" />
      <stop
         stop-color="#333"
         offset="1"
         id="stop63" />
    </linearGradient>
    <linearGradient
       x2="0"
       y1="-1074.8"
       y2="-1116.8"
       gradientUnits="userSpaceOnUse"
       id="linearGradient24732"
       gradientTransform="matrix(0.66498,0,0,0.6217,-487.42,1835.6)">
      <stop
         stop-color="#d36118"
         id="stop66" />
      <stop
         stop-color="#f09e6f"
         offset="1"
         id="stop68" />
    </linearGradient>
    <linearGradient
       x2="0"
       y1="-1075.6"
       y2="-1115.6"
       gradientUnits="userSpaceOnUse"
       id="linearGradient24734"
       gradientTransform="matrix(0.66498,0,0,0.65279,-487.42,1869.7)">
      <stop
         stop-color="#edbfa1"
         id="stop71" />
      <stop
         stop-color="#fdf1ea"
         offset="1"
         id="stop73" />
    </linearGradient>
    <radialGradient
       cy="-853"
       r="10"
       gradientUnits="userSpaceOnUse"
       id="radialGradient24736"
       cx="-1535.5"
       gradientTransform="matrix(-1.0067,0,0,-1.0465,-378.02,-929.27)">
      <stop
         stop-color="#fff"
         id="stop76" />
      <stop
         stop-color="#ffd5d5"
         stop-opacity="0"
         offset="1"
         id="stop78" />
    </radialGradient>
    <linearGradient
       x1="798.25"
       x2="902"
       gradientUnits="userSpaceOnUse"
       id="linearGradient24740"
       gradientTransform="matrix(0.30798,0,0,0.33121,-225.05,1670.5)">
      <stop
         stop-color="#8e2103"
         id="stop81" />
      <stop
         stop-color="#e46f1f"
         offset="0.169"
         id="stop83" />
      <stop
         stop-color="#e66d20"
         offset="0.838"
         id="stop85" />
      <stop
         stop-color="#922504"
         offset="1"
         id="stop87" />
    </linearGradient>
    <linearGradient
       x2="0"
       y1="-1534.4"
       y2="-1524.4"
       gradientUnits="userSpaceOnUse"
       id="linearGradient24742"
       gradientTransform="matrix(0.34316,0,0,0.32903,-255.87,1666.1)">
      <stop
         stop-color="#808080"
         id="stop90" />
      <stop
         stop-color="#606060"
         offset="1"
         id="stop92" />
    </linearGradient>
    <linearGradient
       x1="818.03"
       x2="882.24"
       gradientUnits="userSpaceOnUse"
       id="linearGradient24744"
       gradientTransform="matrix(0.31275,0,0,0.35865,-229.1,1714.4)">
      <stop
         stop-color="#8e2103"
         id="stop95" />
      <stop
         stop-color="#e45c1f"
         offset="0.25"
         id="stop97" />
      <stop
         stop-color="#e45c1f"
         offset="0.75"
         id="stop99" />
      <stop
         stop-color="#922504"
         offset="1"
         id="stop101" />
    </linearGradient>
    <linearGradient
       x1="-17"
       x2="144"
       xlink:href="#linearGradient9014-8-3"
       gradientUnits="userSpaceOnUse"
       id="linearGradient24746"
       gradientTransform="matrix(0.23766,0,0,0.30362,21,1504.1)" />
    <linearGradient
       x1="-17"
       x2="144"
       xlink:href="#linearGradient8074-2-6"
       gradientUnits="userSpaceOnUse"
       id="linearGradient24748"
       gradientTransform="matrix(0.19895,0,0,0.33121,24.1,1539.3)" />
    <linearGradient
       x1="-17"
       x2="144"
       xlink:href="#linearGradient8074-2-6"
       gradientUnits="userSpaceOnUse"
       id="linearGradient24750"
       gradientTransform="matrix(0.12432,0,0,0.35865,28.84,1575.9)" />
    <linearGradient
       x1="-17"
       x2="144"
       xlink:href="#linearGradient8074-2-6"
       gradientUnits="userSpaceOnUse"
       id="linearGradient24752"
       gradientTransform="matrix(0.23563,0,0,0.83715,21.619,2167.6)" />
    <linearGradient
       x2="0"
       y1="-1063.6"
       y2="-1079.2"
       gradientUnits="userSpaceOnUse"
       id="linearGradient24754"
       gradientTransform="matrix(0.38574,0,0,0.45543,-226.56,546.26)">
      <stop
         stop-color="#fff"
         stop-opacity="0"
         id="stop108" />
      <stop
         stop-color="#fff"
         stop-opacity="0.863"
         offset="1"
         id="stop110" />
    </linearGradient>
    <linearGradient
       x1="-17"
       x2="144"
       xlink:href="#linearGradient9014-8-3"
       gradientUnits="userSpaceOnUse"
       id="linearGradient24756"
       gradientTransform="matrix(0.09357,0,0,0.30362,50.49,424.28)" />
    <linearGradient
       x2="0"
       xlink:href="#linearGradient10658"
       y1="-1559.6"
       y2="-1525.6"
       gradientUnits="userSpaceOnUse"
       id="linearGradient24758"
       gradientTransform="matrix(0.26098,0,0,0.44081,-186.68,1841.1)" />
    <linearGradient
       x2="0"
       xlink:href="#linearGradient10391"
       y1="647.81"
       y2="735.75"
       gradientUnits="userSpaceOnUse"
       id="linearGradient24760"
       gradientTransform="matrix(0.22817,0,0,0.2278,-182.64,1005.9)" />
    <linearGradient
       x1="-17"
       x2="144"
       xlink:href="#linearGradient8074-2-6"
       gradientUnits="userSpaceOnUse"
       id="linearGradient24762"
       gradientTransform="matrix(0.04863,0,0,0.44081,25.547,1680.2)" />
    <linearGradient
       x2="0"
       xlink:href="#linearGradient10658"
       y1="-1559.6"
       y2="-1525.6"
       gradientUnits="userSpaceOnUse"
       id="linearGradient24766"
       gradientTransform="matrix(0.26098,0,0,0.44081,-186.68,1845.1)" />
    <linearGradient
       x2="0"
       xlink:href="#linearGradient10391"
       y1="647.81"
       y2="735.75"
       gradientUnits="userSpaceOnUse"
       id="linearGradient24768"
       gradientTransform="matrix(0.22817,0,0,0.2278,-182.64,1009.9)" />
    <linearGradient
       x1="-17"
       x2="144"
       xlink:href="#linearGradient8074-2-6"
       gradientUnits="userSpaceOnUse"
       id="linearGradient24770"
       gradientTransform="matrix(0.04863,0,0,0.44081,25.547,1684.2)" />
    <linearGradient
       x2="0"
       xlink:href="#linearGradient10658"
       y1="-1559.6"
       y2="-1525.6"
       gradientUnits="userSpaceOnUse"
       id="linearGradient24772"
       gradientTransform="matrix(0.26098,0,0,0.44081,-186.68,1849.1)" />
    <linearGradient
       x2="0"
       xlink:href="#linearGradient10391"
       y1="647.81"
       y2="735.75"
       gradientUnits="userSpaceOnUse"
       id="linearGradient24774"
       gradientTransform="matrix(0.22817,0,0,0.2278,-182.64,1013.9)" />
    <linearGradient
       x1="-17"
       x2="144"
       xlink:href="#linearGradient8074-2-6"
       gradientUnits="userSpaceOnUse"
       id="linearGradient24776"
       gradientTransform="matrix(0.04863,0,0,0.44081,25.547,1688.2)" />
    <linearGradient
       x1="-17"
       x2="144"
       xlink:href="#linearGradient8074-2-6"
       gradientUnits="userSpaceOnUse"
       id="linearGradient24778"
       gradientTransform="matrix(0.11065,0,0,0.83715,37.787,2163.6)" />
    <linearGradient
       x1="889"
       x2="879"
       y1="-1054.6"
       y2="-1042.6"
       gradientUnits="userSpaceOnUse"
       id="linearGradient24780"
       gradientTransform="matrix(0.65408,0,0,0.60724,-535.08,1796.1)">
      <stop
         stop-color="#18a303"
         id="stop124" />
      <stop
         stop-color="#106802"
         offset="1"
         id="stop126" />
    </linearGradient>
    <radialGradient
       cy="-754.64"
       r="15"
       gradientUnits="userSpaceOnUse"
       id="radialGradient24847"
       cx="152.33"
       gradientTransform="matrix(0 0.05275 -0.26059 0 -167.03 1168.2)">
      <stop
         stop-opacity="0.502"
         id="stop129" />
      <stop
         stop-opacity="0"
         offset="1"
         id="stop131" />
    </radialGradient>
    <linearGradient
       x2="0"
       xlink:href="#linearGradient24730"
       y1="-1506.6"
       y2="-1510.6"
       gradientUnits="userSpaceOnUse"
       id="linearGradient24849"
       gradientTransform="matrix(0.31192 0 0 0.31171 -228.49 1641.3)" />
    <linearGradient
       x1="529.25"
       x2="535"
       y1="-1568.6"
       y2="-1574.6"
       gradientUnits="userSpaceOnUse"
       id="linearGradient24851"
       gradientTransform="matrix(0.54507 0 0 1.992 -270.62 4291.1)">
      <stop
         stop-color="#f00"
         id="stop135" />
      <stop
         stop-color="#ffc600"
         stop-opacity="0"
         offset="1"
         id="stop137" />
    </linearGradient>
    <linearGradient
       x1="-17"
       x2="144"
       gradientUnits="userSpaceOnUse"
       id="linearGradient24853"
       gradientTransform="matrix(0.15464 0 0 1.013 1144.6 1191.5)">
      <stop
         stop-color="#d40000"
         stop-opacity="0"
         id="stop140" />
      <stop
         stop-color="#d40000"
         offset="0.493"
         id="stop142" />
      <stop
         stop-color="#d40000"
         stop-opacity="0"
         offset="1"
         id="stop144" />
    </linearGradient>
    <path
       d="m47.244 960.63c-1.3885 0-2.3648 1.141-2.3648 2.7636v12.633 46.323 23.863 11.625 1.0089c0 1.5128 0.8619 2.5785 2.102 2.7196 0.09 0.012 0.16882 0.044 0.26275 0.044h6.0058 69.668 6.0058c0.0868 0 0.17933-0.012 0.26275-0.044 1.2401-0.1411 2.102-1.2068 2.102-2.7196v-1.0089-11.625-23.863-22.547c-11.19-13.038-22.347-26.115-33.52-39.173h-49.661-0.86334z"
       id="SVGCleanerId_1" />
    <path
       d="m56.056 971.12c-0.48951 0.0556-0.90382 0.61486-0.89797 1.2121v11.636 54.301 11.636c-0.004 0.636 0.47425 1.2169 0.99774 1.2121h5.3213 58.534c0.52349 0 1.0017-0.5761 0.99774-1.2121v-11.636-35.433c-0.003-0.3158-0.11308-0.6281-0.29932-0.8484l-25.11-30.52c-0.18136-0.22624-0.43848-0.3601-0.69842-0.36362h-38.746c-0.0332-0.002-0.0665-0.002-0.0998 0z"
       fill="url(#radialGradient24706)"
       id="SVGCleanerId_2"
       opacity="0.6" />
    <path
       d="m56.156 972.33v11.636 54.301 11.636h5.3213 58.534v-11.636-35.433l-25.11-30.504z"
       fill="url(#linearGradient24708)"
       id="SVGCleanerId_3" />
    <path
       d="m56.156 972.33v11.636 54.301 11.636h5.3213 58.534v-11.636-35.433l-25.11-30.504zm1.0642 1.2929h37.282l24.445 29.696v34.948 10.343h-57.47-4.257v-10.343-54.301z"
       fill="#fff"
       id="SVGCleanerId_4"
       opacity="0.7" />
    <path
       d="m47.244 960.63c-1.3885 0-2.3648 1.141-2.3648 2.7636v12.633 46.323 23.863 11.625 1.0089c0 1.5128 0.8619 2.5785 2.102 2.7196 0.09 0.012 0.16882 0.044 0.26275 0.044h6.0058 69.668 6.0058c0.0868 0 0.17933-0.012 0.26275-0.044 1.2401-0.1411 2.102-1.2068 2.102-2.7196v-1.0089-11.625-23.863-22.547c-11.19-13.038-22.347-26.115-33.52-39.173h-49.661-0.86334zm0 1.3598h0.86334 49.173c10.947 12.794 21.879 25.605 32.844 38.383v21.977 23.863 11.625 1.0089c0 0.9101-0.32077 1.2768-1.051 1.3599a1.1619 1.3578 0 0 0 -0.15014 0.044h-6.0058-69.668-6.0058c0.1433 0 0.11877-0.013-0.15015-0.044-0.73025-0.083-1.051-0.4498-1.051-1.3599v-1.0089-11.625-23.863-46.323-12.633c0-0.98613 0.35734-1.4037 1.2012-1.4037z"
       id="SVGCleanerId_5"
       opacity="0.1" />
    <path
       d="m47.244 960.63c-1.3885 0-2.3648 1.141-2.3648 2.7636v1.4037c0-1.6226 0.97634-2.7636 2.3648-2.7636h0.86334 49.661c11.173 13.057 22.33 26.134 33.52 39.173v-1.4038c-11.19-13.038-22.347-26.115-33.52-39.173h-49.661-0.86334z"
       id="SVGCleanerId_6"
       opacity="0.2" />
    <rect
       x="16.633"
       rx="0.654"
       y="1141.4"
       ry="0.607"
       color="#000000"
       height="26.11"
       id="SVGCleanerId_7"
       width="39.899" />
    <rect
       x="48.853"
       y="52.734"
       color="#000000"
       height="9.109"
       id="SVGCleanerId_8"
       width="15.04" />
    <linearGradient
       id="linearGradient3766">
      <stop
         style="stop-color:#ff6d00;stop-opacity:1;"
         offset="0"
         id="stop3768" />
      <stop
         style="stop-color:#ff7f1f;stop-opacity:1;"
         offset="1"
         id="stop3770" />
    </linearGradient>
    <linearGradient
       inkscape:collect="always"
       xlink:href="#linearGradient4585"
       id="linearGradient4591"
       x1="172.33899"
       y1="11.675331"
       x2="172.03925"
       y2="86.116005"
       gradientUnits="userSpaceOnUse" />
    <linearGradient
       inkscape:collect="always"
       xlink:href="#linearGradient14231"
       id="linearGradient14237"
       x1="50.707542"
       y1="81.682442"
       x2="50.707542"
       y2="96.539803"
       gradientUnits="userSpaceOnUse" />
    <linearGradient
       inkscape:collect="always"
       id="linearGradient14231">
      <stop
         style="stop-color:#000000;stop-opacity:1;"
         offset="0"
         id="stop14233" />
      <stop
         style="stop-color:#000000;stop-opacity:0;"
         offset="1"
         id="stop14235" />
    </linearGradient>
    <linearGradient
       inkscape:collect="always"
       xlink:href="#linearGradient14239"
       id="linearGradient14245"
       x1="49.876652"
       y1="87.937508"
       x2="49.876652"
       y2="76.719681"
       gradientUnits="userSpaceOnUse" />
    <linearGradient
       inkscape:collect="always"
       id="linearGradient14239">
      <stop
         style="stop-color:#ffffff;stop-opacity:1;"
         offset="0"
         id="stop14241" />
      <stop
         style="stop-color:#ffffff;stop-opacity:0;"
         offset="1"
         id="stop14243" />
    </linearGradient>
  </defs>
  <rect
     style="fill-opacity:0.02000002"
     id="rect156"
     width="89.620003"
     height="89.980003"
     y="2.9899757"
     rx="12.724"
     x="3.3529999" />
  <rect
     style="fill-opacity:0.03900003"
     id="rect158"
     width="88.410004"
     height="88.760002"
     y="3.6000221"
     rx="12.552"
     x="3.9590001" />
  <rect
     style="fill-opacity:0.078"
     id="rect160"
     width="87.199997"
     height="87.550003"
     y="4.2100072"
     rx="12.38"
     x="4.5640001" />
  <rect
     style="fill-opacity:0.15700001"
     id="rect162"
     width="85.990997"
     height="86.330002"
     y="4.8199925"
     rx="12.208"
     x="5.1700001" />
  <path
     style="fill:#ececec"
     inkscape:connector-curvature="0"
     id="path164"
     d="m 17.75,5.41 c -6.6418,0 -11.969,5.3946 -11.969,12.062 l 0,61.031 c 0,6.668 5.327,12.031 11.969,12.031 l 60.812,0 c 6.6418,0 11.969,-5.3633 11.969,-12.031 l 0,-61.031 C 90.531,10.8041 85.204,5.41 78.562,5.41 l -60.812,0 z" />
  <g
     id="g4593"
     transform="translate(-124.18912,4.5958573)">
    <rect
       style="fill:url(#linearGradient4591);fill-opacity:1;stroke:none"
       id="rect6"
       width="85.124001"
       height="85.124001"
       y="0.8421424"
       rx="11.458755"
       x="129.62712" />
    <g
       transform="matrix(2.1281,0,0,2.1281,203.15478,-2147.9123)"
       id="g4182">
      <path
         id="path3789"
         d="m -24.050847,1018.2056 c -1.108,0 -2,0.892 -2,2 l 0,20 c 0,1.108 0.892,2 2,2 l 20,0 c 1.108,0 2,-0.892 2,-2 l 0,-20 c 0,-1.108 -0.892,-2 -2,-2 l -20,0 z m 0,2 20,0 0,20 -20,0 0,-20 z m 8,6 0,12 3,0 0,-12 -3,0 z m 5,5 0,7 3,0 0,-7 -3,0 z m -10,2 0,5 3,0 0,-5 -3,0 z"
         style="opacity:0.2;fill:#000000;fill-opacity:1;stroke:none"
         inkscape:connector-curvature="0" />
      <path
         inkscape:connector-curvature="0"
         style="fill:#ffffff;fill-opacity:1;stroke:none"
         d="m -25.050847,1017.2056 c -1.108,0 -2,0.892 -2,2 l 0,20 c 0,1.108 0.892,2 2,2 l 20,0 c 1.108,0 2,-0.892 2,-2 l 0,-20 c 0,-1.108 -0.892,-2 -2,-2 l -20,0 z m 0,2 20,0 0,20 -20,0 0,-20 z m 8,6 0,12 3,0 0,-12 -3,0 z m 5,5 0,7 3,0 0,-7 -3,0 z m -10,2 0,5 3,0 0,-5 -3,0 z"
         id="rect3774" />
    </g>
  </g>
  <g
     id="g3032"
     transform="matrix(1.06405,0,0,1.06405,130.63707,47.496069)" />
  <g
     id="g14291">
    <path
       d="m 5.2922679,73.685059 0,5.0663 c 0,6.668 5.3645011,12.032 12.0320011,12.032 l 61.049,0 c 6.668,0 12.032,-5.3645 12.032,-12.032 l 0,-5.0663 c 0,6.6681 -5.3645,12.032 -12.032,12.032 l -61.049,0 c -6.668,0 -12.0320011,-5.3643 -12.0320011,-12.032 z"
       id="path64"
       inkscape:connector-curvature="0"
       style="opacity:0.4;fill:url(#linearGradient14237);fill-opacity:1" />
    <path
       inkscape:connector-curvature="0"
       id="path14214"
       d="m 5.2929688,72.717592 0,1.15039 c 0,6.667718 5.3632502,12.031248 12.0312502,12.031248 l 61.048828,0 c 6.6675,0 12.03125,-5.36313 12.03125,-12.031248 l 0,-1.15039 c 0,6.668098 -5.36375,12.031248 -12.03125,12.031248 l -61.048828,0 c -6.668,0 -12.0312502,-5.36355 -12.0312502,-12.031248 z"
       style="opacity:0.5;fill:url(#linearGradient14245);fill-opacity:1" />
  </g>
</svg>
