<svg height="96" width="96" xmlns="http://www.w3.org/2000/svg" xmlns:xlink="http://www.w3.org/1999/xlink" xmlns:sodipodi="http://sodipodi.sourceforge.net/DTD/sodipodi-0.dtd" xmlns:inkscape="http://www.inkscape.org/namespaces/inkscape">
 <defs>
  <linearGradient x2="0" y1="92.54" y2="7.02" gradientUnits="userSpaceOnUse" id="ButtonShadow-0-59" gradientTransform="matrix(1.0059 0 0 0.99417 100 0)">
   <stop/>
   <stop stop-opacity="0.588" offset="1"/>
  </linearGradient>
  <linearGradient x2="0" y1="80" y2="16" gradientUnits="userSpaceOnUse" id="linearGradient5924" gradientTransform="matrix(1.0643 0 0 1.2929 -3 949.06)">
   <stop stop-color="#dfdfdf"/>
   <stop stop-color="#fefefe" offset="1"/>
  </linearGradient>
  <radialGradient cy="47.999" r="34.938" gradientUnits="userSpaceOnUse" id="radialGradient5927" cx="48" gradientTransform="matrix(1.4317 0 0 1.4802 -20.638 940.07)">
   <stop/>
   <stop stop-opacity="0" offset="1"/>
  </radialGradient>
  <linearGradient x2="0" y1="88" y2="8" gradientUnits="userSpaceOnUse" id="linearGradient5940" gradientTransform="matrix(1.2012 0 0 1.4037 -9.572 943.74)">
   <stop stop-color="#b3b3b3"/>
   <stop stop-color="#e6e6e6" offset="1"/>
  </linearGradient>
  <linearGradient x2="0" y1="6" y2="90" gradientUnits="userSpaceOnUse" id="linearGradient5956" gradientTransform="matrix(1.0827 0 0 1.2114 -6.607 953.1)">
   <stop stop-color="#666"/>
   <stop stop-color="#333" offset="1"/>
  </linearGradient>
  <linearGradient x2="0" xlink:href="#ButtonShadow-0-59" y1="91" y2="7" gradientUnits="userSpaceOnUse" id="linearGradient5959" gradientTransform="matrix(1.0827 0 0 1.2114 -6.607 953.1)"/>
  <linearGradient x2="0" xlink:href="#ButtonShadow-0-59" y1="92" y2="7" gradientUnits="userSpaceOnUse" id="linearGradient5962" gradientTransform="matrix(1.0827 0 0 1.2114 -6.607 953.1)"/>
  <clipPath clipPathUnits="userSpaceOnUse" id="clipPath5988">
   <use xlink:href="#SVGCleanerId_0"/>
  </clipPath>
  <path d="m17.75 961.77c-6.6418 0-11.969 5.3946-11.969 12.062v61.031c0 6.668 5.327 12.031 11.969 12.031h60.812c6.6418 0 11.969-5.3633 11.969-12.031v-61.031c0-6.6679-5.327-12.062-11.969-12.062h-60.812z" id="SVGCleanerId_0"/>
  <path d="m7.2441 960.63c-1.3885 0-2.3648 1.141-2.3648 2.7636v12.633 46.323 23.863 11.625 1.0089c0 1.5128 0.8619 2.5785 2.102 2.7196 0.09 0.012 0.16882 0.044 0.26275 0.044h6.0058 69.668 6.0058c0.0868 0 0.17933-0.012 0.26275-0.044 1.2401-0.1411 2.102-1.2068 2.102-2.7196v-1.0089-11.625-23.863-22.547c-11.191-13-22.348-26.07-33.521-39.13h-49.661-0.86334z" id="SVGCleanerId_1"/>
  <path d="m16.056 971.12c-0.48951 0.0556-0.90382 0.61486-0.89797 1.2121v11.636 54.301 11.636c-0.004 0.636 0.47425 1.2169 0.99774 1.2121h5.3213 58.534c0.52349 0 1.0017-0.5761 0.99774-1.2121v-11.636-35.433c-0.003-0.3158-0.11308-0.6281-0.29932-0.8484l-25.11-30.52c-0.18136-0.22624-0.43848-0.3601-0.69842-0.36362h-38.746c-0.0332-0.002-0.0665-0.002-0.0998 0z" fill="url(#radialGradient5927)" id="SVGCleanerId_2" opacity="0.6"/>
  <path d="m16.156 972.33v11.636 54.301 11.636h5.3213 58.534v-11.636-35.433l-25.11-30.504z" fill="url(#linearGradient5924)" id="SVGCleanerId_3"/>
  <path d="m16.156 972.33v11.636 54.301 11.636h5.3213 58.534v-11.636-35.433l-25.11-30.504zm1.0642 1.2929h37.282l24.445 29.696v34.948 10.343h-57.47-4.257v-10.343-54.301z" fill="#fff" id="SVGCleanerId_4" opacity="0.7"/>
  <path d="m7.2441 960.63c-1.3885 0-2.3648 1.141-2.3648 2.7636v12.633 46.323 23.863 11.625 1.0089c0 1.5128 0.8619 2.5785 2.102 2.7196 0.09 0.012 0.16882 0.044 0.26275 0.044h6.0058 69.668 6.0058c0.0868 0 0.17933-0.012 0.26275-0.044 1.2401-0.1411 2.102-1.2068 2.102-2.7196v-1.0089-11.625-23.863-22.547c-11.191-13-22.348-26.07-33.521-39.13h-49.661-0.86334zm0 1.3598h0.86334 49.173c10.947 12.794 21.879 25.605 32.844 38.383v21.977 23.863 11.625 1.0089c0 0.9101-0.32077 1.2768-1.051 1.3599a1.1619 1.3578 0 0 0 -0.15014 0.044h-6.0058-69.668-6.0058c0.1433 0 0.11877-0.013-0.15015-0.044-0.73025-0.083-1.051-0.4498-1.051-1.3599v-1.0089-11.625-23.863-46.323-12.633c0-0.98613 0.35734-1.4037 1.2012-1.4037z" id="SVGCleanerId_5" opacity="0.1"/>
  <path d="m7.2441 960.63c-1.3885 0-2.3648 1.141-2.3648 2.7636v1.4037c0-1.6226 0.97634-2.7636 2.3648-2.7636h0.86334 49.661c11.173 13.057 22.33 26.134 33.52 39.173v-1.4038c-11.19-13.04-22.347-26.11-33.52-39.17h-49.661-0.86334z" id="SVGCleanerId_6" opacity="0.2"/>
 </defs>
 <g transform="matrix(1 0 0 1 0 -956.36)">
  <rect x="3.353" rx="12.724" y="959.35" fill-opacity="0.02" height="89.98" width="89.62"/>
  <rect x="3.959" rx="12.552" y="959.96" fill-opacity="0.039" height="88.76" width="88.41"/>
  <rect x="4.564" rx="12.38" y="960.57" fill-opacity="0.078" height="87.55" width="87.2"/>
  <rect x="5.17" rx="12.208" y="961.18" fill-opacity="0.157" height="86.33" width="85.991"/>
  <use xlink:href="#SVGCleanerId_0" fill="#ececec"/>
  <g clip-path="url(#clipPath5988)">
   <path d="m66.778 961.58c-1.715 0.14764-1.7964 2.7991-0.38869 3.5708 7.7568 8.5094 15.401 17.172 23.228 25.586 1.5143 0.90521 2.7536-1.137 2.2991-2.6931-0.10263-6.5584 0.21227-13.154-0.16917-19.687-0.6849-4.5975-5.0023-7.4079-8.9806-6.7764h-15.989z" fill="url(#linearGradient5962)" opacity="0.3"/>
   <path d="m66.27 961.58a1.5265 1.708 0 0 0 -0.91351 2.915l22.872 25.592a1.5265 1.708 0 0 0 2.6052 -1.0979 1.5265 1.708 0 0 0 0 -0.11349v-15.181-4.505-0.34072c0-4.0268-2.8972-7.2686-6.496-7.2686h-18.067z" fill="url(#linearGradient5959)" opacity="0.45"/>
   <path d="m66.27 960.37a1.5265 1.708 0 0 0 -0.91351 2.915l22.872 25.592a1.5265 1.708 0 0 0 2.6052 -1.0979 1.5265 1.708 0 0 0 0 -0.11349v-15.181-4.505-0.3407c0-4.0268-2.8972-7.2686-6.496-7.2686h-18.067z" fill="url(#linearGradient5956)"/>
   <path d="m66.27 960.37a1.5265 1.708 0 0 0 -1.218 2.42h17.12 2.1654c3.0118 0 5.4134 2.6871 5.4134 6.0572v2.4229 18.02a1.5265 1.708 0 0 0 1.0827 -1.3629 1.5265 1.708 0 0 0 0 -0.15143 1.5265 1.708 0 0 0 0 -0.11349v-15.181-2.4229-2.0822-0.3407c0-4.0268-2.8972-7.2686-6.496-7.2686h-18.067z" opacity="0.2"/>
   <use xlink:href="#SVGCleanerId_1" fill="url(#linearGradient5940)"/>
   <use xlink:href="#SVGCleanerId_2"/>
   <use xlink:href="#SVGCleanerId_3"/>
   <use xlink:href="#SVGCleanerId_4"/>
   <use xlink:href="#SVGCleanerId_5"/>
   <use xlink:href="#SVGCleanerId_6"/>
   <use xlink:href="#SVGCleanerId_1" fill="url(#linearGradient5940)"/>
   <use xlink:href="#SVGCleanerId_2"/>
   <use xlink:href="#SVGCleanerId_3"/>
   <use xlink:href="#SVGCleanerId_4"/>
   <use xlink:href="#SVGCleanerId_5"/>
   <use xlink:href="#SVGCleanerId_6"/>
   <use xlink:href="#SVGCleanerId_1" fill="#606060"/>
   <use xlink:href="#SVGCleanerId_2"/>
   <use xlink:href="#SVGCleanerId_3"/>
   <use xlink:href="#SVGCleanerId_4"/>
   <use xlink:href="#SVGCleanerId_5"/>
   <use xlink:href="#SVGCleanerId_6"/>
  </g>
  <path d="m5.7756 1029.8v5.0663c0 6.668 5.3434 12.032 11.985 12.032h60.809c6.6418 0 11.985-5.3645 11.985-12.032v-5.0663c0 6.6681-5.3434 12.032-11.985 12.032h-60.809c-6.6418 0-11.985-5.3643-11.985-12.032z" fill-opacity="0.235"/>
  <path d="m5.7756 1033.9v1.0133c0 6.668 5.3434 12.032 11.985 12.032h60.809c6.6418 0 11.985-5.3645 11.985-12.032v-1.0133c0 6.6681-5.3434 12.032-11.985 12.032h-60.809c-6.6418 0-11.985-5.3644-11.985-12.032z" fill-opacity="0.098"/>
 </g>
</svg>
