<?xml version="1.0" encoding="UTF-8" standalone="no"?>
<svg
   xmlns:dc="http://purl.org/dc/elements/1.1/"
   xmlns:cc="http://creativecommons.org/ns#"
   xmlns:rdf="http://www.w3.org/1999/02/22-rdf-syntax-ns#"
   xmlns:svg="http://www.w3.org/2000/svg"
   xmlns="http://www.w3.org/2000/svg"
   xmlns:xlink="http://www.w3.org/1999/xlink"
   xmlns:sodipodi="http://sodipodi.sourceforge.net/DTD/sodipodi-0.dtd"
   xmlns:inkscape="http://www.inkscape.org/namespaces/inkscape"
   height="96"
   width="96"
   id="svg2"
   version="1.1"
   inkscape:version="0.91 r13725"
   sodipodi:docname="libreoffice-writer.svg">
  <metadata
     id="metadata246">
    <rdf:RDF>
      <cc:Work
         rdf:about="">
        <dc:format>image/svg+xml</dc:format>
        <dc:type
           rdf:resource="http://purl.org/dc/dcmitype/StillImage" />
      </cc:Work>
    </rdf:RDF>
  </metadata>
  <sodipodi:namedview
     pagecolor="#ffffff"
     bordercolor="#666666"
     borderopacity="1"
     objecttolerance="10"
     gridtolerance="10"
     guidetolerance="10"
     inkscape:pageopacity="0"
     inkscape:pageshadow="2"
     inkscape:window-width="1366"
     inkscape:window-height="718"
     id="namedview244"
     showgrid="false"
     inkscape:zoom="2.4583333"
     inkscape:cx="96.813559"
     inkscape:cy="48"
     inkscape:window-x="0"
     inkscape:window-y="24"
     inkscape:window-maximized="1"
     inkscape:current-layer="svg2" />
  <defs
     id="defs4">
    <linearGradient
       inkscape:collect="always"
       id="linearGradient4592">
      <stop
         style="stop-color:#0b89cc;stop-opacity:1"
         offset="0"
         id="stop4594" />
      <stop
         style="stop-color:#21cdf3;stop-opacity:1"
         offset="1"
         id="stop4596" />
    </linearGradient>
    <linearGradient
       x2="0"
       y1="92.54"
       y2="7.02"
       gradientUnits="userSpaceOnUse"
       id="ButtonShadow-0-59"
       gradientTransform="matrix(1.0059 0 0 0.99417 100 0)">
      <stop
         id="stop7" />
      <stop
         stop-opacity="0.588"
         offset="1"
         id="stop9" />
    </linearGradient>
    <radialGradient
       cy="47.999"
       r="34.938"
       gradientUnits="userSpaceOnUse"
       id="radialGradient4020-1"
       cx="48"
       gradientTransform="matrix(1.3453 0 0 1.1449 -16.572 -6.954)">
      <stop
         id="stop12" />
      <stop
         stop-opacity="0"
         offset="1"
         id="stop14" />
    </radialGradient>
    <linearGradient
       id="linearGradient8642-9-0">
      <stop
         stop-color="#000061"
         id="stop17" />
      <stop
         stop-color="#006f86"
         stop-opacity="0"
         offset="1"
         id="stop19" />
    </linearGradient>
    <linearGradient
       x2="0"
       xlink:href="#ButtonShadow-0-59"
       y1="92"
       y2="7"
       gradientUnits="userSpaceOnUse"
       id="linearGradient50774"
       gradientTransform="matrix(1.0827,0,0,1.2114,33.392,953.1)" />
    <linearGradient
       x2="0"
       xlink:href="#ButtonShadow-0-59"
       y1="91"
       y2="7"
       gradientUnits="userSpaceOnUse"
       id="linearGradient50776"
       gradientTransform="matrix(1.0827,0,0,1.2114,33.392,953.1)" />
    <linearGradient
       x2="0"
       y1="88"
       y2="8"
       gradientUnits="userSpaceOnUse"
       id="linearGradient50778"
       gradientTransform="matrix(1.2012 0 0 1.4037 30.428 943.74)">
      <stop
         stop-color="#b3b3b3"
         id="stop24" />
      <stop
         stop-color="#e6e6e6"
         offset="1"
         id="stop26" />
    </linearGradient>
    <radialGradient
       cy="47.999"
       r="34.938"
       xlink:href="#radialGradient4020-1"
       gradientUnits="userSpaceOnUse"
       id="radialGradient50780"
       cx="48"
       gradientTransform="matrix(1.4317 0 0 1.4802 19.362 940.07)" />
    <linearGradient
       x2="0"
       y1="80"
       y2="16"
       gradientUnits="userSpaceOnUse"
       id="linearGradient50782"
       gradientTransform="matrix(1.0643 0 0 1.2929 36.999 949.06)">
      <stop
         stop-color="#dfdfdf"
         id="stop30" />
      <stop
         stop-color="#fefefe"
         offset="1"
         id="stop32" />
    </linearGradient>
    <clipPath
       clipPathUnits="userSpaceOnUse"
       id="clipPath50794">
      <path
         d="m57.75 961.77c-6.6418 0-11.969 5.3946-11.969 12.062v61.031c0 6.668 5.327 12.031 11.969 12.031h60.812c6.6418 0 11.969-5.3633 11.969-12.031v-61.031c0-6.6679-5.327-12.062-11.969-12.062h-60.812z"
         id="path35" />
    </clipPath>
    <linearGradient
       x2="0"
       y1="-1587.6"
       y2="-1507.6"
       gradientUnits="userSpaceOnUse"
       id="linearGradient50798"
       gradientTransform="matrix(0.28571,0,0,0.28571,-45.948,1578)">
      <stop
         stop-color="#259dd2"
         id="stop38" />
      <stop
         stop-color="#025583"
         offset="1"
         id="stop40" />
    </linearGradient>
    <linearGradient
       x1="516.05"
       x2="495.67"
       xlink:href="#linearGradient8642-9-0"
       gradientUnits="userSpaceOnUse"
       id="linearGradient50800"
       gradientTransform="matrix(0.5,0,0,0.64286,-191.66,1023)" />
    <linearGradient
       x2="0"
       y1="-1601.6"
       y2="-1516.6"
       gradientUnits="userSpaceOnUse"
       id="linearGradient50802"
       gradientTransform="matrix(0.32258,0,0,0.4,-58.05,1762.7)">
      <stop
         stop-color="#259dd2"
         id="stop44" />
      <stop
         stop-color="#065d8d"
         offset="1"
         id="stop46" />
    </linearGradient>
    <linearGradient
       x1="516.05"
       x2="495.67"
       xlink:href="#linearGradient8642-9-0"
       gradientUnits="userSpaceOnUse"
       id="linearGradient50804"
       gradientTransform="matrix(-0.5,0,0,0.60714,284.34,1030.4)" />
    <radialGradient
       cy="44.923"
       r="10.5"
       xlink:href="#radialGradient4020-1"
       gradientUnits="userSpaceOnUse"
       id="radialGradient50806"
       cx="58"
       gradientTransform="matrix(1.4286,0,0,0.7619,-24.519,1095.9)" />
    <linearGradient
       x2="0"
       y1="-581.64"
       y2="-577.57"
       gradientUnits="userSpaceOnUse"
       id="linearGradient50808"
       gradientTransform="matrix(9.818,0,0,8,-2168.9,4579.1)">
      <stop
         stop-color="#44adeb"
         id="stop51" />
      <stop
         stop-color="#aadcf7"
         offset="1"
         id="stop53" />
    </linearGradient>
    <linearGradient
       x2="0"
       y1="1173"
       y2="1178"
       gradientUnits="userSpaceOnUse"
       id="linearGradient50810"
       gradientTransform="matrix(-8.8663,0,0,8.1065,3146.9,-9585.6)">
      <stop
         stop-color="#666"
         id="stop56" />
      <stop
         stop-color="#333"
         offset="1"
         id="stop58" />
    </linearGradient>
    <linearGradient
       x1="346.7"
       x2="361.37"
       y1="-1313.5"
       y2="-1303.8"
       gradientUnits="userSpaceOnUse"
       id="linearGradient50812"
       gradientTransform="translate(-301,1261.6)">
      <stop
         stop-color="#fff"
         id="stop61" />
      <stop
         stop-color="#fff"
         stop-opacity="0"
         offset="1"
         id="stop63" />
    </linearGradient>
    <linearGradient
       x2="0"
       y1="1173.9"
       y2="1178"
       gradientUnits="userSpaceOnUse"
       id="linearGradient50814"
       gradientTransform="matrix(8.8663,0,0,8.1065,-3046.9,-9583.1)">
      <stop
         stop-color="#666"
         id="stop66" />
      <stop
         stop-color="#1a1a1a"
         offset="1"
         id="stop68" />
    </linearGradient>
    <linearGradient
       x2="0"
       y1="-631.15"
       y2="-634.27"
       gradientUnits="userSpaceOnUse"
       id="linearGradient50816"
       gradientTransform="matrix(2.5333,0,0,2.5333,-699.85,1569.1)">
      <stop
         stop-color="#18a303"
         id="stop71" />
      <stop
         stop-color="#106802"
         offset="1"
         id="stop73" />
    </linearGradient>
    <linearGradient
       x2="0"
       y1="1173"
       y2="1178"
       gradientUnits="userSpaceOnUse"
       id="linearGradient50818"
       gradientTransform="matrix(8.8663,0,0,8.1065,-3046.9,-9573)">
      <stop
         stop-color="#0369a3"
         id="stop76" />
      <stop
         stop-color="#023f62"
         offset="1"
         id="stop78" />
    </linearGradient>
    <linearGradient
       x2="0"
       y1="-1311.4"
       y2="-1304.4"
       gradientUnits="userSpaceOnUse"
       id="linearGradient50820"
       gradientTransform="matrix(1 0 0 1 -301 1261.6)">
      <stop
         stop-color="#666"
         id="stop81" />
      <stop
         stop-color="#666"
         stop-opacity="0.5"
         offset="1"
         id="stop83" />
    </linearGradient>
    <radialGradient
       cy="-842.91"
       r="10"
       gradientUnits="userSpaceOnUse"
       id="radialGradient50822"
       cx="-1535.3"
       gradientTransform="matrix(-3.3157,0,0,-7.5844,-5016.4,-6481.3)">
      <stop
         stop-color="#fff"
         id="stop86" />
      <stop
         stop-color="#00a8ff"
         stop-opacity="0"
         offset="1"
         id="stop88" />
    </radialGradient>
    <linearGradient
       x2="0"
       xlink:href="#linearGradient50820"
       y1="-1311.4"
       y2="-1299.6"
       gradientUnits="userSpaceOnUse"
       id="linearGradient50824"
       gradientTransform="translate(-301,1261.6)" />
    <linearGradient
       x2="0"
       y1="-1308.9"
       y2="-1302.7"
       gradientUnits="userSpaceOnUse"
       id="linearGradient50826"
       gradientTransform="matrix(1 0 0 1 -301 1261.6)">
      <stop
         stop-color="#808080"
         id="stop92" />
      <stop
         stop-color="#666"
         offset="1"
         id="stop94" />
    </linearGradient>
    <linearGradient
       x2="0"
       xlink:href="#linearGradient50826"
       y1="-1307.7"
       y2="-1301.2"
       gradientUnits="userSpaceOnUse"
       id="linearGradient50828"
       gradientTransform="translate(-301,1261.6)" />
    <linearGradient
       x2="0"
       y1="-1293.6"
       y2="-1287.5"
       gradientUnits="userSpaceOnUse"
       id="linearGradient50830"
       gradientTransform="translate(-301,1261.6)">
      <stop
         stop-color="#0369a3"
         id="stop98" />
      <stop
         stop-color="#047fc6"
         offset="1"
         id="stop100" />
    </linearGradient>
    <linearGradient
       x1="445.7"
       x2="441.39"
       y1="1103.6"
       y2="1099.8"
       gradientUnits="userSpaceOnUse"
       id="linearGradient50832">
      <stop
         stop-color="#e9b913"
         id="stop103" />
      <stop
         stop-color="#ff0"
         offset="1"
         id="stop105" />
    </linearGradient>
    <path
       d="m47.244 960.63c-1.3885 0-2.3648 1.141-2.3648 2.7636v12.633 46.323 23.863 11.625 1.0089c0 1.5128 0.8619 2.5785 2.102 2.7196 0.09 0.012 0.16882 0.044 0.26275 0.044h6.0058 69.668 6.0058c0.0868 0 0.17933-0.012 0.26275-0.044 1.2401-0.1411 2.102-1.2068 2.102-2.7196v-1.0089-11.625-23.863-22.547c-11.19-13.038-22.347-26.115-33.52-39.173h-49.661-0.86334z"
       id="SVGCleanerId_1" />
    <path
       d="m56.056 971.12c-0.48951 0.0556-0.90382 0.61486-0.89797 1.2121v11.636 54.301 11.636c-0.004 0.636 0.47425 1.2169 0.99774 1.2121h5.3213 58.534c0.52349 0 1.0017-0.5761 0.99774-1.2121v-11.636-35.433c-0.003-0.3158-0.11308-0.6281-0.29932-0.8484l-25.11-30.52c-0.18136-0.22624-0.43848-0.3601-0.69842-0.36362h-38.746c-0.0332-0.002-0.0665-0.002-0.0998 0z"
       fill="url(#radialGradient50780)"
       id="SVGCleanerId_2"
       opacity="0.6" />
    <path
       d="m56.156 972.33v11.636 54.301 11.636h5.3213 58.534v-11.636-35.433l-25.11-30.504z"
       fill="url(#linearGradient50782)"
       id="SVGCleanerId_3" />
    <path
       d="m56.156 972.33v11.636 54.301 11.636h5.3213 58.534v-11.636-35.433l-25.11-30.504zm1.0642 1.2929h37.282l24.445 29.696v34.948 10.343h-57.47-4.257v-10.343-54.301z"
       fill="#fff"
       id="SVGCleanerId_4"
       opacity="0.7" />
    <path
       d="m47.244 960.63c-1.3885 0-2.3648 1.141-2.3648 2.7636v12.633 46.323 23.863 11.625 1.0089c0 1.5128 0.8619 2.5785 2.102 2.7196 0.09 0.012 0.16882 0.044 0.26275 0.044h6.0058 69.668 6.0058c0.0868 0 0.17933-0.012 0.26275-0.044 1.2401-0.1411 2.102-1.2068 2.102-2.7196v-1.0089-11.625-23.863-22.547c-11.19-13.038-22.347-26.115-33.52-39.173h-49.661-0.86334zm0 1.3598h0.86334 49.173c10.947 12.794 21.879 25.605 32.844 38.383v21.977 23.863 11.625 1.0089c0 0.9101-0.32077 1.2768-1.051 1.3599a1.1619 1.3578 0 0 0 -0.15014 0.044h-6.0058-69.668-6.0058c0.1433 0 0.11877-0.013-0.15015-0.044-0.73025-0.083-1.051-0.4498-1.051-1.3599v-1.0089-11.625-23.863-46.323-12.633c0-0.98613 0.35734-1.4037 1.2012-1.4037z"
       id="SVGCleanerId_5"
       opacity="0.1" />
    <path
       d="m47.244 960.63c-1.3885 0-2.3648 1.141-2.3648 2.7636v1.4037c0-1.6226 0.97634-2.7636 2.3648-2.7636h0.86334 49.661c11.173 13.057 22.33 26.134 33.52 39.173v-1.4038c-11.19-13.038-22.347-26.115-33.52-39.173h-49.661-0.86334z"
       id="SVGCleanerId_6"
       opacity="0.2" />
    <path
       d="m448.77 1099.7a7.5845 4.6875 0 0 1 -7.5845 4.6875v-4.6875z"
       color="#000000"
       id="SVGCleanerId_7" />
    <linearGradient
       id="linearGradient3784">
      <stop
         style="stop-color:#2196f3;stop-opacity:1;"
         offset="0"
         id="stop3786" />
      <stop
         style="stop-color:#21b0f3;stop-opacity:1;"
         offset="1"
         id="stop3788" />
    </linearGradient>
    <linearGradient
       inkscape:collect="always"
       xlink:href="#linearGradient4592"
       id="linearGradient4598"
       x1="205.69492"
       y1="74.726135"
       x2="204.17487"
       y2="-1.7484423"
       gradientUnits="userSpaceOnUse" />
  </defs>
  <rect
     style="fill-opacity:0.02000002"
     id="rect116"
     width="89.620003"
     height="89.980003"
     y="2.9899757"
     rx="12.724"
     x="3.3529999" />
  <rect
     style="fill-opacity:0.03900003"
     id="rect118"
     width="88.410004"
     height="88.760002"
     y="3.6000221"
     rx="12.552"
     x="3.9590001" />
  <rect
     style="fill-opacity:0.078"
     id="rect120"
     width="87.199997"
     height="87.550003"
     y="4.2100072"
     rx="12.38"
     x="4.5640001" />
  <rect
     style="fill-opacity:0.15700001"
     id="rect122"
     width="85.990997"
     height="86.330002"
     y="4.8199925"
     rx="12.208"
     x="5.1700001" />
  <path
     style="fill:#ececec"
     inkscape:connector-curvature="0"
     id="path124"
     d="m 17.75,5.41 c -6.6418,0 -11.969,5.3946 -11.969,12.062 l 0,61.031 c 0,6.668 5.327,12.031 11.969,12.031 l 60.812,0 c 6.6418,0 11.969,-5.3633 11.969,-12.031 l 0,-61.031 C 90.531,10.8041 85.204,5.41 78.562,5.41 l -60.812,0 z" />
  <g
     id="g4600"
     transform="translate(-156.73149,11.511154)">
    <rect
       style="fill:url(#linearGradient4598);fill-opacity:1;stroke:none"
       id="rect6"
       width="85.124001"
       height="85.124001"
       y="-6.0731544"
       rx="11.458755"
       x="162.16949" />
    <g
       transform="matrix(2.1281,0,0,2.1281,283.30888,-2143.574)"
       id="g4245">
      <rect
         ry="0.88888985"
         y="1012.9175"
         x="-48.423729"
         height="24"
         width="24"
         id="rect3837"
         style="opacity:0.1;fill:#000000;fill-opacity:1;stroke:none" />
      <g
         id="g3839"
         transform="translate(-61.423729,-4.4446966)">
        <rect
           ry="0.88888985"
           transform="translate(0,1004.3622)"
           y="12"
           x="12"
           height="24"
           width="24"
           id="rect3792"
           style="opacity:1;fill:#ffffff;fill-opacity:1;stroke:none;stroke-width:4;stroke-linecap:round;stroke-linejoin:miter;stroke-miterlimit:4;stroke-dasharray:none;stroke-dashoffset:0;stroke-opacity:1" />
        <path
           inkscape:connector-curvature="0"
           transform="translate(0,1004.3622)"
           id="path3799"
           d="m 21,12 -8.125,0 C 12.628778,12 12.410667,12.08933 12.25,12.25 12.089333,12.410667 12,12.628778 12,12.875 l 0,22.25 c 0,0.246222 0.08933,0.464333 0.25,0.625 0.160667,0.160667 0.378778,0.25 0.625,0.25 L 21,36 21,12 Z"
           style="opacity:1;fill:#e3f2fd;fill-opacity:1;stroke:none" />
        <rect
           ry="0"
           transform="translate(0,1004.3622)"
           y="14"
           x="14"
           height="5"
           width="5"
           id="rect3801"
           style="fill:#90caf9;fill-opacity:1;stroke:none" />
        <rect
           y="1018.3622"
           x="23"
           height="1"
           width="11"
           id="rect3803"
           style="fill:#9e9e9e;fill-opacity:1;stroke:none" />
        <rect
           style="fill:#9e9e9e;fill-opacity:1;stroke:none"
           id="rect3805"
           width="11"
           height="1"
           x="23"
           y="1020.3622" />
        <rect
           y="1022.3622"
           x="23"
           height="1"
           width="11"
           id="rect3807"
           style="fill:#9e9e9e;fill-opacity:1;stroke:none" />
        <rect
           style="fill:#9e9e9e;fill-opacity:1;stroke:none"
           id="rect3809"
           width="11"
           height="1"
           x="23"
           y="1024.3622" />
        <rect
           y="1024.3622"
           x="14"
           height="1"
           width="5"
           id="rect3811"
           style="fill:#039be5;fill-opacity:1;stroke:none" />
        <rect
           style="fill:#039be5;fill-opacity:1;stroke:none"
           id="rect3813"
           width="3"
           height="1"
           x="14"
           y="1026.3622" />
        <rect
           y="1028.3622"
           x="14"
           height="1"
           width="4"
           id="rect3815"
           style="fill:#039be5;fill-opacity:1;stroke:none" />
        <rect
           style="fill:#039be5;fill-opacity:1;stroke:none"
           id="rect3817"
           width="5"
           height="1"
           x="14"
           y="1030.3622" />
        <rect
           y="1032.3622"
           x="14"
           height="1"
           width="2"
           id="rect3819"
           style="fill:#039be5;fill-opacity:1;stroke:none" />
        <rect
           style="fill:#039be5;fill-opacity:1;stroke:none"
           id="rect3821"
           width="5"
           height="1"
           x="14"
           y="1034.3622" />
        <rect
           y="1036.3622"
           x="14"
           height="1"
           width="3"
           id="rect3823"
           style="fill:#039be5;fill-opacity:1;stroke:none" />
        <rect
           y="1026.3622"
           x="23"
           height="1"
           width="11"
           id="rect3825"
           style="fill:#9e9e9e;fill-opacity:1;stroke:none" />
        <rect
           style="fill:#9e9e9e;fill-opacity:1;stroke:none"
           id="rect3827"
           width="11"
           height="1"
           x="23"
           y="1028.3622" />
        <rect
           y="1030.3622"
           x="23"
           height="1"
           width="6"
           id="rect3829"
           style="fill:#9e9e9e;fill-opacity:1;stroke:none" />
        <rect
           style="fill:#9e9e9e;fill-opacity:1;stroke:none"
           id="rect3831"
           width="11"
           height="1"
           x="23"
           y="1033.3622" />
        <rect
           y="1035.3622"
           x="23"
           height="1"
           width="11"
           id="rect3833"
           style="fill:#9e9e9e;fill-opacity:1;stroke:none" />
        <rect
           style="fill:#9e9e9e;fill-opacity:1;stroke:none"
           id="rect3835"
           width="6"
           height="1"
           x="23"
           y="1037.3622" />
      </g>
    </g>
  </g>
  <path
     style="fill-opacity:0.23500001"
     inkscape:connector-curvature="0"
     id="path172"
     d="m 5.7756,73.44 0,5.0663 c 0,6.668 5.3434,12.032 11.985,12.032 l 60.809,0 c 6.6418,0 11.985,-5.3645 11.985,-12.032 l 0,-5.0663 c 0,6.6681 -5.3434,12.032 -11.985,12.032 l -60.809,0 c -6.6418,0 -11.985,-5.3643 -11.985,-12.032 z" />
  <path
     style="fill-opacity:0.09800002"
     inkscape:connector-curvature="0"
     id="path174"
     d="m 5.7756,77.54 0,1.0133 c 0,6.668 5.3434,12.032 11.985,12.032 l 60.809,0 c 6.6418,0 11.985,-5.3645 11.985,-12.032 l 0,-1.0133 c 0,6.6681 -5.3434,12.032 -11.985,12.032 l -60.809,0 c -6.6418,0 -11.985,-5.3644 -11.985,-12.032 z" />
  <g
     id="g3032"
     transform="matrix(1.06405,0,0,1.06405,139.37357,34.953969)" />
  <g
     id="g3025"
     transform="matrix(1.06405,0,0,1.06405,33.81981,35.577502)" />
</svg>
