<?xml version="1.0" encoding="UTF-8" standalone="no"?>
<svg
   xmlns:dc="http://purl.org/dc/elements/1.1/"
   xmlns:cc="http://creativecommons.org/ns#"
   xmlns:rdf="http://www.w3.org/1999/02/22-rdf-syntax-ns#"
   xmlns:svg="http://www.w3.org/2000/svg"
   xmlns="http://www.w3.org/2000/svg"
   xmlns:xlink="http://www.w3.org/1999/xlink"
   xmlns:sodipodi="http://sodipodi.sourceforge.net/DTD/sodipodi-0.dtd"
   xmlns:inkscape="http://www.inkscape.org/namespaces/inkscape"
   height="96"
   width="96"
   id="svg2"
   version="1.1"
   inkscape:version="0.91 r13725"
   sodipodi:docname="libreoffice-calc.svg">
  <metadata
     id="metadata276">
    <rdf:RDF>
      <cc:Work
         rdf:about="">
        <dc:format>image/svg+xml</dc:format>
        <dc:type
           rdf:resource="http://purl.org/dc/dcmitype/StillImage" />
      </cc:Work>
    </rdf:RDF>
  </metadata>
  <sodipodi:namedview
     pagecolor="#ffffff"
     bordercolor="#666666"
     borderopacity="1"
     objecttolerance="10"
     gridtolerance="10"
     guidetolerance="10"
     inkscape:pageopacity="0"
     inkscape:pageshadow="2"
     inkscape:window-width="1366"
     inkscape:window-height="718"
     id="namedview274"
     showgrid="false"
     inkscape:zoom="3.4766083"
     inkscape:cx="102.70105"
     inkscape:cy="38.944384"
     inkscape:window-x="0"
     inkscape:window-y="24"
     inkscape:window-maximized="1"
     inkscape:current-layer="svg2" />
  <defs
     id="defs4">
    <linearGradient
       inkscape:collect="always"
       id="linearGradient4584">
      <stop
         style="stop-color:#0dd54c;stop-opacity:1"
         offset="0"
         id="stop4586" />
      <stop
         style="stop-color:#09944a;stop-opacity:1"
         offset="1"
         id="stop4588" />
    </linearGradient>
    <linearGradient
       x2="0"
       y1="92.54"
       y2="7.02"
       gradientUnits="userSpaceOnUse"
       id="ButtonShadow-0-59"
       gradientTransform="matrix(1.0059 0 0 0.99417 100 0)">
      <stop
         id="stop7" />
      <stop
         stop-opacity="0.588"
         offset="1"
         id="stop9" />
    </linearGradient>
    <linearGradient
       id="linearGradient3914-8">
      <stop
         id="stop12" />
      <stop
         stop-opacity="0"
         offset="1"
         id="stop14" />
    </linearGradient>
    <linearGradient
       id="linearGradient8903-1">
      <stop
         stop-color="#008000"
         id="stop17" />
      <stop
         stop-color="#0f0"
         stop-opacity="0"
         offset="1"
         id="stop19" />
    </linearGradient>
    <linearGradient
       x2="0"
       y1="80"
       y2="16"
       gradientUnits="userSpaceOnUse"
       id="linearGradient29838"
       gradientTransform="matrix(1.0643 0 0 1.2929 36.999 949.06)">
      <stop
         stop-color="#dfdfdf"
         id="stop22" />
      <stop
         stop-color="#fefefe"
         offset="1"
         id="stop24" />
    </linearGradient>
    <radialGradient
       cy="47.999"
       r="34.938"
       xlink:href="#linearGradient3914-8"
       gradientUnits="userSpaceOnUse"
       id="radialGradient29841"
       cx="48"
       gradientTransform="matrix(1.4317 0 0 1.4802 19.362 940.07)" />
    <linearGradient
       x2="0"
       y1="88"
       y2="8"
       gradientUnits="userSpaceOnUse"
       id="linearGradient29854"
       gradientTransform="matrix(1.2012 0 0 1.4037 30.428 943.74)">
      <stop
         stop-color="#b3b3b3"
         id="stop28" />
      <stop
         stop-color="#e6e6e6"
         offset="1"
         id="stop30" />
    </linearGradient>
    <linearGradient
       x2="0"
       xlink:href="#ButtonShadow-0-59"
       y1="91"
       y2="7"
       gradientUnits="userSpaceOnUse"
       id="linearGradient29871"
       gradientTransform="matrix(1.0827,0,0,1.2114,33.392,953.1)" />
    <linearGradient
       x2="0"
       xlink:href="#ButtonShadow-0-59"
       y1="92"
       y2="7"
       gradientUnits="userSpaceOnUse"
       id="linearGradient29874"
       gradientTransform="matrix(1.0827,0,0,1.2114,33.392,953.1)" />
    <clipPath
       clipPathUnits="userSpaceOnUse"
       id="clipPath29956">
      <path
         d="m57.75 961.77c-6.6418 0-11.969 5.3946-11.969 12.062v61.031c0 6.668 5.327 12.031 11.969 12.031h60.812c6.6418 0 11.969-5.3633 11.969-12.031v-61.031c0-6.6679-5.327-12.062-11.969-12.062h-60.812z"
         id="path35" />
    </clipPath>
    <radialGradient
       cy="71.21"
       r="15.5"
       xlink:href="#linearGradient3914-8"
       gradientUnits="userSpaceOnUse"
       id="radialGradient30108"
       cx="64"
       gradientTransform="matrix(1.4194,0,0,0.83871,98.51,967.07)" />
    <linearGradient
       x1="-17"
       x2="144"
       gradientUnits="userSpaceOnUse"
       id="linearGradient30110"
       gradientTransform="matrix(0.27329,0,0,1,30.646,1266.6)">
      <stop
         stop-opacity="0"
         id="stop39" />
      <stop
         offset="0.493"
         id="stop41" />
      <stop
         stop-opacity="0"
         offset="1"
         id="stop43" />
    </linearGradient>
    <linearGradient
       x2="0"
       y1="633"
       y2="688.52"
       gradientUnits="userSpaceOnUse"
       id="linearGradient30112"
       gradientTransform="matrix(0.7395,0,0,0.64762,-431.01,-373.56)">
      <stop
         stop-color="#18a303"
         id="stop46" />
      <stop
         stop-color="#106802"
         offset="1"
         id="stop48" />
    </linearGradient>
    <radialGradient
       cy="50"
       r="6.5"
       xlink:href="#linearGradient3914-8"
       gradientUnits="userSpaceOnUse"
       id="radialGradient30114"
       cx="27"
       gradientTransform="matrix(2,0,0,1.0769,1,-6.846)" />
    <radialGradient
       cy="50"
       r="6.5"
       xlink:href="#linearGradient3914-8"
       gradientUnits="userSpaceOnUse"
       id="radialGradient30116"
       cx="27"
       gradientTransform="matrix(2,0,0,1.0769,-13,-6.846)" />
    <radialGradient
       cy="50"
       r="6.5"
       xlink:href="#linearGradient3914-8"
       gradientUnits="userSpaceOnUse"
       id="radialGradient30118"
       cx="27"
       gradientTransform="matrix(2,0,0,1.0769,-27,-6.846)" />
    <linearGradient
       x1="529.25"
       x2="535.44"
       xlink:href="#linearGradient8903-1"
       y1="-1568.6"
       y2="-1574.8"
       gradientUnits="userSpaceOnUse"
       id="linearGradient30120"
       gradientTransform="matrix(0.75,0,0,0.33333,-367.75,567.88)" />
    <linearGradient
       x1="529.25"
       x2="535.44"
       xlink:href="#linearGradient8903-1"
       y1="-1568.6"
       y2="-1574.8"
       gradientUnits="userSpaceOnUse"
       id="linearGradient30122"
       gradientTransform="matrix(0.75,0,0,0.33333,-367.75,575.88)" />
    <radialGradient
       cy="-853"
       r="10"
       gradientUnits="userSpaceOnUse"
       id="radialGradient30124"
       cx="-1535.3"
       gradientTransform="matrix(-2.2796,0,0,-2,-3537.6,-1754)">
      <stop
         stop-color="#fff"
         id="stop56" />
      <stop
         stop-color="#f5ffaa"
         stop-opacity="0"
         offset="1"
         id="stop58" />
    </radialGradient>
    <linearGradient
       x1="529.25"
       x2="535.44"
       xlink:href="#linearGradient8903-1"
       y1="-1568.6"
       y2="-1574.8"
       gradientUnits="userSpaceOnUse"
       id="linearGradient30126"
       gradientTransform="matrix(0.75,0,0,0.33333,-353.75,567.88)" />
    <linearGradient
       x1="529.25"
       x2="535.44"
       xlink:href="#linearGradient8903-1"
       y1="-1568.6"
       y2="-1574.8"
       gradientUnits="userSpaceOnUse"
       id="linearGradient30128"
       gradientTransform="matrix(0.75,0,0,0.33333,-353.75,575.88)" />
    <linearGradient
       x1="529.25"
       x2="535.44"
       xlink:href="#linearGradient8903-1"
       y1="-1568.6"
       y2="-1574.8"
       gradientUnits="userSpaceOnUse"
       id="linearGradient30130"
       gradientTransform="matrix(0.75,0,0,0.33333,-339.75,567.88)" />
    <linearGradient
       x1="529.25"
       x2="535.44"
       xlink:href="#linearGradient8903-1"
       y1="-1568.6"
       y2="-1574.8"
       gradientUnits="userSpaceOnUse"
       id="linearGradient30132"
       gradientTransform="matrix(0.75,0,0,0.33333,-339.75,575.88)" />
    <linearGradient
       x1="529.25"
       x2="535.44"
       xlink:href="#linearGradient8903-1"
       y1="-1568.6"
       y2="-1574.8"
       gradientUnits="userSpaceOnUse"
       id="linearGradient30134"
       gradientTransform="matrix(0.75,0,0,0.33333,-367.75,583.88)" />
    <linearGradient
       x1="529.25"
       x2="535.44"
       xlink:href="#linearGradient8903-1"
       y1="-1568.6"
       y2="-1574.8"
       gradientUnits="userSpaceOnUse"
       id="linearGradient30136"
       gradientTransform="matrix(0.75,0,0,0.33333,-353.75,583.88)" />
    <linearGradient
       x1="529.25"
       x2="535.44"
       xlink:href="#linearGradient8903-1"
       y1="-1568.6"
       y2="-1574.8"
       gradientUnits="userSpaceOnUse"
       id="linearGradient30138"
       gradientTransform="matrix(0.75,0,0,0.33333,-339.75,583.88)" />
    <linearGradient
       x1="529.25"
       x2="535.44"
       xlink:href="#linearGradient8903-1"
       y1="-1568.6"
       y2="-1574.8"
       gradientUnits="userSpaceOnUse"
       id="linearGradient30140"
       gradientTransform="matrix(0.75,0,0,0.33333,-367.75,591.88)" />
    <linearGradient
       x1="529.25"
       x2="535.44"
       xlink:href="#linearGradient8903-1"
       y1="-1568.6"
       y2="-1574.8"
       gradientUnits="userSpaceOnUse"
       id="linearGradient30142"
       gradientTransform="matrix(0.75,0,0,0.33333,-353.75,591.88)" />
    <linearGradient
       x1="529.25"
       x2="535.44"
       xlink:href="#linearGradient8903-1"
       y1="-1568.6"
       y2="-1574.8"
       gradientUnits="userSpaceOnUse"
       id="linearGradient30144"
       gradientTransform="matrix(0.75,0,0,0.33333,-339.75,591.88)" />
    <linearGradient
       x2="0"
       y1="-1063.6"
       y2="-1083.6"
       gradientUnits="userSpaceOnUse"
       id="linearGradient30146"
       gradientTransform="matrix(0.66667,0,0,1.1,-304.65,2201.8)">
      <stop
         stop-color="#f2f2f2"
         id="stop71" />
      <stop
         stop-color="#fff"
         offset="1"
         id="stop73" />
    </linearGradient>
    <linearGradient
       x2="0"
       y1="-1078.6"
       y2="-1068.8"
       gradientUnits="userSpaceOnUse"
       id="linearGradient30148"
       gradientTransform="matrix(0.57143,0,0,1.3333,-124.79,408.71)">
      <stop
         stop-color="#63bbee"
         id="stop76" />
      <stop
         stop-color="#aadcf7"
         offset="1"
         id="stop78" />
    </linearGradient>
    <linearGradient
       x1="529.25"
       x2="535"
       y1="-1568.6"
       y2="-1574.6"
       gradientUnits="userSpaceOnUse"
       id="linearGradient30150"
       gradientTransform="matrix(0.16667,0,0,0.83333,87.19,2335)">
      <stop
         stop-color="#4a00ff"
         id="stop81" />
      <stop
         stop-color="#00a0c1"
         stop-opacity="0"
         offset="1"
         id="stop83" />
    </linearGradient>
    <linearGradient
       x2="0"
       y1="-1078.6"
       y2="-1068.8"
       gradientUnits="userSpaceOnUse"
       id="linearGradient30154"
       gradientTransform="matrix(0.57143,0,0,1.7778,-116.79,887.89)">
      <stop
         stop-color="#f09e6f"
         id="stop86" />
      <stop
         stop-color="#f9cfb5"
         offset="1"
         id="stop88" />
    </linearGradient>
    <linearGradient
       x1="529.25"
       x2="535"
       y1="-1568.6"
       y2="-1574.6"
       gradientUnits="userSpaceOnUse"
       id="linearGradient30156"
       gradientTransform="matrix(0.16667,0,0,1.0833,95.19,2727.2)">
      <stop
         stop-color="#800000"
         id="stop91" />
      <stop
         stop-color="#ffc600"
         stop-opacity="0"
         offset="1"
         id="stop93" />
    </linearGradient>
    <linearGradient
       x2="0"
       y1="-1078.6"
       y2="-1068.8"
       gradientUnits="userSpaceOnUse"
       id="linearGradient30158"
       gradientTransform="matrix(0.57143,0,0,0.88889,-108.79,-70.45)">
      <stop
         stop-color="#f5ce53"
         id="stop96" />
      <stop
         stop-color="#fde9a9"
         offset="1"
         id="stop98" />
    </linearGradient>
    <linearGradient
       x1="529.25"
       x2="535"
       y1="-1568.6"
       y2="-1574.6"
       gradientUnits="userSpaceOnUse"
       id="linearGradient30160"
       gradientTransform="matrix(0.16667,0,0,0.5,103.18,1812.1)">
      <stop
         stop-color="#f00"
         id="stop101" />
      <stop
         stop-color="#d3d300"
         stop-opacity="0"
         offset="1"
         id="stop103" />
    </linearGradient>
    <radialGradient
       cy="71.21"
       r="15.5"
       xlink:href="#linearGradient3914-8"
       gradientUnits="userSpaceOnUse"
       id="radialGradient30162"
       cx="64"
       gradientTransform="matrix(-1.4194,0,0,-0.83871,270.19,1074.5)" />
    <linearGradient
       x1="-17"
       x2="144"
       gradientUnits="userSpaceOnUse"
       id="linearGradient30172"
       gradientTransform="matrix(0.02484 0 0 1 174.77 2211.4)">
      <stop
         stop-color="#fff"
         stop-opacity="0"
         id="stop107" />
      <stop
         stop-color="#fff"
         offset="0.493"
         id="stop109" />
      <stop
         stop-color="#fff"
         stop-opacity="0"
         offset="1"
         id="stop111" />
    </linearGradient>
    <path
       d="m47.244 960.63c-1.3885 0-2.3648 1.141-2.3648 2.7636v12.633 46.323 23.863 11.625 1.0089c0 1.5128 0.8619 2.5785 2.102 2.7196 0.09 0.012 0.16882 0.044 0.26275 0.044h6.0058 69.668 6.0058c0.0868 0 0.17933-0.012 0.26275-0.044 1.2401-0.1411 2.102-1.2068 2.102-2.7196v-1.0089-11.625-23.863-22.547c-11.19-13.038-22.347-26.115-33.52-39.173h-49.661-0.86334z"
       id="SVGCleanerId_0" />
    <path
       d="m56.056 971.12c-0.48951 0.0556-0.90382 0.61486-0.89797 1.2121v11.636 54.301 11.636c-0.004 0.636 0.47425 1.2169 0.99774 1.2121h5.3213 58.534c0.52349 0 1.0017-0.5761 0.99774-1.2121v-11.636-35.433c-0.003-0.3158-0.11308-0.6281-0.29932-0.8484l-25.11-30.52c-0.18136-0.22624-0.43848-0.3601-0.69842-0.36362h-38.746c-0.0332-0.002-0.0665-0.002-0.0998 0z"
       fill="url(#radialGradient29841)"
       id="SVGCleanerId_1"
       opacity="0.6" />
    <path
       d="m56.156 972.33v11.636 54.301 11.636h5.3213 58.534v-11.636-35.433l-25.11-30.504z"
       fill="url(#linearGradient29838)"
       id="SVGCleanerId_2" />
    <path
       d="m56.156 972.33v11.636 54.301 11.636h5.3213 58.534v-11.636-35.433l-25.11-30.504zm1.0642 1.2929h37.282l24.445 29.696v34.948 10.343h-57.47-4.257v-10.343-54.301z"
       fill="#fff"
       id="SVGCleanerId_3"
       opacity="0.7" />
    <path
       d="m47.244 960.63c-1.3885 0-2.3648 1.141-2.3648 2.7636v12.633 46.323 23.863 11.625 1.0089c0 1.5128 0.8619 2.5785 2.102 2.7196 0.09 0.012 0.16882 0.044 0.26275 0.044h6.0058 69.668 6.0058c0.0868 0 0.17933-0.012 0.26275-0.044 1.2401-0.1411 2.102-1.2068 2.102-2.7196v-1.0089-11.625-23.863-22.547c-11.19-13.038-22.347-26.115-33.52-39.173h-49.661-0.86334zm0 1.3598h0.86334 49.173c10.947 12.794 21.879 25.605 32.844 38.383v21.977 23.863 11.625 1.0089c0 0.9101-0.32077 1.2768-1.051 1.3599a1.1619 1.3578 0 0 0 -0.15014 0.044h-6.0058-69.668-6.0058c0.1433 0 0.11877-0.013-0.15015-0.044-0.73025-0.083-1.051-0.4498-1.051-1.3599v-1.0089-11.625-23.863-46.323-12.633c0-0.98613 0.35734-1.4037 1.2012-1.4037z"
       id="SVGCleanerId_4"
       opacity="0.1" />
    <path
       d="m47.244 960.63c-1.3885 0-2.3648 1.141-2.3648 2.7636v1.4037c0-1.6226 0.97634-2.7636 2.3648-2.7636h0.86334 49.661c11.173 13.057 22.33 26.134 33.52 39.173v-1.4038c-11.19-13.038-22.347-26.115-33.52-39.173h-49.661-0.86334z"
       id="SVGCleanerId_5"
       opacity="0.2" />
    <linearGradient
       id="linearGradient3973">
      <stop
         style="stop-color:#00b053;stop-opacity:1;"
         offset="0"
         id="stop3975" />
      <stop
         style="stop-color:#00ec6f;stop-opacity:1;"
         offset="1"
         id="stop3977" />
    </linearGradient>
    <linearGradient
       id="linearGradient3779">
      <stop
         style="stop-color:#000000;stop-opacity:1;"
         offset="0"
         id="stop3781" />
      <stop
         style="stop-color:#ffffff;stop-opacity:1;"
         offset="1"
         id="stop3783" />
    </linearGradient>
    <linearGradient
       inkscape:collect="always"
       xlink:href="#linearGradient4584"
       id="linearGradient4590"
       x1="170.30507"
       y1="-9.6413803"
       x2="172.44603"
       y2="-95.471886"
       gradientUnits="userSpaceOnUse" />
    <linearGradient
       inkscape:collect="always"
       xlink:href="#linearGradient3914-8"
       id="linearGradient14237"
       x1="50.707542"
       y1="81.682442"
       x2="50.707542"
       y2="96.539803"
       gradientUnits="userSpaceOnUse" />
    <linearGradient
       inkscape:collect="always"
       xlink:href="#linearGradient14239"
       id="linearGradient14245"
       x1="49.876652"
       y1="87.937508"
       x2="49.876652"
       y2="76.719681"
       gradientUnits="userSpaceOnUse" />
    <linearGradient
       inkscape:collect="always"
       id="linearGradient14239">
      <stop
         style="stop-color:#ffffff;stop-opacity:1;"
         offset="0"
         id="stop14241" />
      <stop
         style="stop-color:#ffffff;stop-opacity:0;"
         offset="1"
         id="stop14243" />
    </linearGradient>
  </defs>
  <rect
     style="fill-opacity:0.02000002"
     id="rect121"
     width="89.620003"
     height="89.980003"
     y="2.9899757"
     rx="12.724"
     x="3.3529999" />
  <rect
     style="fill-opacity:0.03900003"
     id="rect123"
     width="88.410004"
     height="88.760002"
     y="3.6000221"
     rx="12.552"
     x="3.9590001" />
  <rect
     style="fill-opacity:0.078"
     id="rect125"
     width="87.199997"
     height="87.550003"
     y="4.2100072"
     rx="12.38"
     x="4.5640001" />
  <rect
     style="fill-opacity:0.15700001"
     id="rect127"
     width="85.990997"
     height="86.330002"
     y="4.8199925"
     rx="12.208"
     x="5.1700001" />
  <path
     style="fill:#ececec"
     inkscape:connector-curvature="0"
     id="path129"
     d="m 17.75,5.41 c -6.6418,0 -11.969,5.3946 -11.969,12.062 l 0,61.031 c 0,6.668 5.327,12.031 11.969,12.031 l 60.812,0 c 6.6418,0 11.969,-5.3633 11.969,-12.031 l 0,-61.031 C 90.531,10.8041 85.204,5.41 78.562,5.41 l -60.812,0 z" />
  <g
     id="g4612"
     transform="translate(-128.66368,-4.3532448)">
    <rect
       style="fill:url(#linearGradient4590);fill-opacity:1;stroke:none"
       id="rect6"
       transform="scale(1,-1)"
       width="85.124001"
       height="85.124001"
       y="-94.915245"
       rx="11.458755"
       x="134.10168" />
    <g
       transform="matrix(1.970463,0,0,1.970463,376.86606,-1886.0691)"
       id="g4255">
      <rect
         style="fill:#000000;fill-opacity:1;stroke:none"
         id="rect3929"
         width="6"
         height="6.0000172"
         x="-114.10169"
         y="974.2395" />
      <rect
         style="fill:#4d4d4d;fill-opacity:1;stroke:none"
         id="rect3931"
         width="6"
         height="6.0000172"
         x="-102.10169"
         y="974.2395" />
      <rect
         y="986.2395"
         x="-114.10169"
         height="6.0000172"
         width="6"
         id="rect3939"
         style="fill:#4d4d4d;fill-opacity:1;stroke:none" />
      <rect
         y="974.2395"
         x="-108.10169"
         height="6"
         width="6"
         id="rect3943"
         style="fill:#4d4d4d;fill-opacity:1;stroke:none" />
      <rect
         style="fill:#4d4d4d;fill-opacity:1;stroke:none"
         id="rect3945"
         width="6"
         height="6"
         x="-96.101692"
         y="974.2395" />
      <rect
         style="fill:#4d4d4d;fill-opacity:1;stroke:none"
         id="rect3947"
         width="6"
         height="6"
         x="-114.10169"
         y="980.2395" />
      <g
         id="g3989"
         style="opacity:0.2;stroke:#070707;stroke-opacity:1"
         transform="translate(-125.10169,-44.122663)">
        <path
           style="fill:none;stroke:#070707;stroke-width:2;stroke-linecap:butt;stroke-linejoin:miter;stroke-miterlimit:4;stroke-dasharray:none;stroke-opacity:1"
           d="m 12,1019.3622 24,0 0,18 -24,0 z"
           id="path3991"
           inkscape:connector-curvature="0" />
        <path
           style="fill:none;stroke:#070707;stroke-width:2;stroke-linecap:butt;stroke-linejoin:miter;stroke-miterlimit:4;stroke-dasharray:none;stroke-opacity:1"
           d="m 12,1025.3622 24,0"
           id="path3993"
           inkscape:connector-curvature="0" />
        <path
           style="fill:none;stroke:#070707;stroke-width:2;stroke-linecap:butt;stroke-linejoin:miter;stroke-miterlimit:4;stroke-dasharray:none;stroke-opacity:1"
           d="m 12,1031.3622 24,0"
           id="path3995"
           inkscape:connector-curvature="0"
           sodipodi:nodetypes="cc" />
        <path
           style="fill:none;stroke:#070707;stroke-width:2;stroke-linecap:butt;stroke-linejoin:miter;stroke-miterlimit:4;stroke-dasharray:none;stroke-opacity:1"
           d="m 18,1019.3622 0,18"
           id="path3997"
           inkscape:connector-curvature="0" />
        <path
           style="fill:none;stroke:#070707;stroke-width:2;stroke-linecap:butt;stroke-linejoin:miter;stroke-miterlimit:4;stroke-dasharray:none;stroke-opacity:1"
           d="m 24,1019.3622 0,18"
           id="path3999"
           inkscape:connector-curvature="0" />
        <path
           style="fill:none;stroke:#070707;stroke-width:2;stroke-linecap:butt;stroke-linejoin:miter;stroke-miterlimit:4;stroke-dasharray:none;stroke-opacity:1"
           d="m 30,1019.3622 0,18"
           id="path4001"
           inkscape:connector-curvature="0" />
      </g>
      <g
         id="g3981"
         transform="translate(-126.10169,-45.122663)">
        <path
           inkscape:connector-curvature="0"
           id="path3959"
           d="m 12,1019.3622 24,0 0,18 -24,0 z"
           style="fill:none;stroke:#f3f3f3;stroke-width:2;stroke-linecap:butt;stroke-linejoin:miter;stroke-miterlimit:4;stroke-dasharray:none;stroke-opacity:1" />
        <path
           inkscape:connector-curvature="0"
           id="path3961"
           d="m 12,1025.3622 24,0"
           style="fill:none;stroke:#f3f3f3;stroke-width:2;stroke-linecap:butt;stroke-linejoin:miter;stroke-miterlimit:4;stroke-dasharray:none;stroke-opacity:1" />
        <path
           sodipodi:nodetypes="cc"
           inkscape:connector-curvature="0"
           id="path3963"
           d="m 12,1031.3622 24,0"
           style="fill:none;stroke:#f3f3f3;stroke-width:2;stroke-linecap:butt;stroke-linejoin:miter;stroke-miterlimit:4;stroke-dasharray:none;stroke-opacity:1" />
        <path
           inkscape:connector-curvature="0"
           id="path3965"
           d="m 18,1019.3622 0,18"
           style="fill:none;stroke:#f3f3f3;stroke-width:2;stroke-linecap:butt;stroke-linejoin:miter;stroke-miterlimit:4;stroke-dasharray:none;stroke-opacity:1" />
        <path
           inkscape:connector-curvature="0"
           id="path3967"
           d="m 24,1019.3622 0,18"
           style="fill:none;stroke:#f3f3f3;stroke-width:2;stroke-linecap:butt;stroke-linejoin:miter;stroke-miterlimit:4;stroke-dasharray:none;stroke-opacity:1" />
        <path
           inkscape:connector-curvature="0"
           id="path3969"
           d="m 30,1019.3622 0,18"
           style="fill:none;stroke:#f3f3f3;stroke-width:2;stroke-linecap:butt;stroke-linejoin:miter;stroke-miterlimit:4;stroke-dasharray:none;stroke-opacity:1" />
      </g>
    </g>
  </g>
  <g
     id="g3032"
     transform="matrix(1.06405,0,0,1.06405,42.485187,7.5349825)" />
  <g
     id="g14291">
    <path
       d="m 5.2922679,73.685059 0,5.0663 c 0,6.668 5.3645011,12.032 12.0320011,12.032 l 61.049,0 c 6.668,0 12.032,-5.3645 12.032,-12.032 l 0,-5.0663 c 0,6.6681 -5.3645,12.032 -12.032,12.032 l -61.049,0 c -6.668,0 -12.0320011,-5.3643 -12.0320011,-12.032 z"
       id="path64"
       inkscape:connector-curvature="0"
       style="opacity:0.4;fill:url(#linearGradient14237);fill-opacity:1" />
    <path
       inkscape:connector-curvature="0"
       id="path14214"
       d="m 5.2929688,72.717592 0,1.15039 c 0,6.667718 5.3632502,12.031248 12.0312502,12.031248 l 61.048828,0 c 6.6675,0 12.03125,-5.36313 12.03125,-12.031248 l 0,-1.15039 c 0,6.668098 -5.36375,12.031248 -12.03125,12.031248 l -61.048828,0 c -6.668,0 -12.0312502,-5.36355 -12.0312502,-12.031248 z"
       style="opacity:0.5;fill:url(#linearGradient14245);fill-opacity:1" />
  </g>
</svg>
