<svg height="96" width="96" xmlns="http://www.w3.org/2000/svg" xmlns:xlink="http://www.w3.org/1999/xlink" xmlns:sodipodi="http://sodipodi.sourceforge.net/DTD/sodipodi-0.dtd" xmlns:inkscape="http://www.inkscape.org/namespaces/inkscape">
 <defs>
  <linearGradient x2="0" y1="92.54" y2="7.02" gradientUnits="userSpaceOnUse" id="ButtonShadow-0-59" gradientTransform="matrix(1.0059 0 0 0.99417 100 0)">
   <stop/>
   <stop stop-opacity="0.588" offset="1"/>
  </linearGradient>
  <linearGradient id="linearGradient9569">
   <stop stop-color="#b42c00"/>
   <stop stop-color="#ffc600" stop-opacity="0" offset="1"/>
  </linearGradient>
  <linearGradient id="linearGradient11704">
   <stop stop-color="#ff6a1e"/>
   <stop stop-color="#d45500" stop-opacity="0" offset="1"/>
  </linearGradient>
  <linearGradient id="linearGradient11804">
   <stop stop-color="#d40000" stop-opacity="0"/>
   <stop stop-color="#a00" offset="0.493"/>
   <stop stop-color="#a00" stop-opacity="0" offset="1"/>
  </linearGradient>
  <linearGradient x2="0" xlink:href="#ButtonShadow-0-59" y1="92" y2="7" gradientUnits="userSpaceOnUse" id="linearGradient45665" gradientTransform="matrix(1.0827 0 0 1.2114 13.392 953.1)"/>
  <linearGradient x2="0" xlink:href="#ButtonShadow-0-59" y1="91" y2="7" gradientUnits="userSpaceOnUse" id="linearGradient45667" gradientTransform="matrix(1.0827 0 0 1.2114 13.392 953.1)"/>
  <linearGradient x2="0" y1="88" y2="8" gradientUnits="userSpaceOnUse" id="linearGradient45669" gradientTransform="matrix(1.2012 0 0 1.4037 10.428 943.74)">
   <stop stop-color="#b3b3b3"/>
   <stop stop-color="#e6e6e6" offset="1"/>
  </linearGradient>
  <radialGradient cy="47.999" r="34.938" gradientUnits="userSpaceOnUse" id="radialGradient45671" cx="48" gradientTransform="matrix(1.4317 0 0 1.4802 -0.638 940.07)">
   <stop/>
   <stop stop-opacity="0" offset="1"/>
  </radialGradient>
  <linearGradient x2="0" y1="80" y2="16" gradientUnits="userSpaceOnUse" id="linearGradient45673" gradientTransform="matrix(1.0643 0 0 1.2929 16.999 949.06)">
   <stop stop-color="#dfdfdf"/>
   <stop stop-color="#fefefe" offset="1"/>
  </linearGradient>
  <clipPath clipPathUnits="userSpaceOnUse" id="clipPath45685">
   <path d="m37.75 961.77c-6.6418 0-11.969 5.3946-11.969 12.062v61.031c0 6.668 5.327 12.031 11.969 12.031h60.812c6.6418 0 11.969-5.3633 11.969-12.031v-61.031c0-6.6679-5.327-12.062-11.969-12.062h-60.812z"/>
  </clipPath>
  <linearGradient x2="0" y1="688.53" y2="658.13" gradientUnits="userSpaceOnUse" id="linearGradient45689" gradientTransform="matrix(0.69697 0 0 0.69697 -654.96 538.36)">
   <stop stop-color="#f6b7a8"/>
   <stop stop-color="#fee9d6" offset="1"/>
  </linearGradient>
  <linearGradient x1="1179.3" x2="1195.1" y1="678.06" y2="662.17" gradientUnits="userSpaceOnUse" id="linearGradient45691" gradientTransform="matrix(0.69697 0 0 0.69697 -654.96 538.36)">
   <stop stop-color="#ad4e07"/>
   <stop stop-color="#e9744d" offset="1"/>
  </linearGradient>
  <linearGradient x1="1183.5" x2="1168" y1="671.49" y2="686.96" gradientUnits="userSpaceOnUse" id="linearGradient45693" gradientTransform="matrix(0.60042 0 0 0.606 -540.69 599.81)">
   <stop stop-color="#f7c3a1"/>
   <stop stop-color="#f1b38e" offset="0.472"/>
   <stop stop-color="#f17571" offset="1"/>
  </linearGradient>
  <linearGradient x2="0" y1="-2650.3" y2="-2617.5" gradientUnits="userSpaceOnUse" id="linearGradient45695" gradientTransform="matrix(0.66667 0 0 0.67692 -520.73 2798.2)">
   <stop stop-color="#a88200"/>
   <stop stop-color="#724a00" offset="1"/>
  </linearGradient>
  <linearGradient x2="0" y1="-1513.4" y2="-1575.6" gradientUnits="userSpaceOnUse" id="linearGradient45697" gradientTransform="matrix(0.32258 0 0 0.32258 -179.46 1513.4)">
   <stop stop-color="#d7ae1e"/>
   <stop stop-color="#ffd251" offset="1"/>
  </linearGradient>
  <linearGradient x1="1171" x2="1138" y1="-1562.1" y2="-1504.9" gradientUnits="userSpaceOnUse" id="linearGradient45699" gradientTransform="matrix(0.3 0 0 0.3 -153.7 1478.6)">
   <stop stop-color="#e4bc33"/>
   <stop stop-color="#cd9215" offset="1"/>
  </linearGradient>
  <linearGradient x1="529.25" x2="535" xlink:href="#linearGradient9569" y1="-1568.6" y2="-1574.6" gradientUnits="userSpaceOnUse" id="linearGradient45701" gradientTransform="matrix(2.5 0 0 5 -1446.5 7981.2)"/>
  <linearGradient x1="529.25" x2="535" xlink:href="#linearGradient9569" y1="-1568.6" y2="-1574.6" gradientUnits="userSpaceOnUse" id="linearGradient45703" gradientTransform="matrix(2.5 0 0 5 -1258.5 7981.2)"/>
  <linearGradient x1="-17" x2="144" xlink:href="#linearGradient11804" gradientUnits="userSpaceOnUse" id="linearGradient45705" gradientTransform="matrix(0.1118 0 0 1 181.5 2217.8)"/>
  <linearGradient x2="0" y1="-1561.4" y2="-1495.6" gradientUnits="userSpaceOnUse" id="linearGradient45707" gradientTransform="matrix(0.31881 0 0 0.32257 -173.15 1515.6)">
   <stop stop-color="#e2b006"/>
   <stop stop-color="#bc8611" offset="1"/>
  </linearGradient>
  <linearGradient x2="0" y1="900.19" y2="887.43" gradientUnits="userSpaceOnUse" id="linearGradient45709" gradientTransform="matrix(1.4205 0 0 1.3444 -1474.1 -178.78)">
   <stop stop-color="#f8ca35"/>
   <stop stop-color="#fef0c4" offset="1"/>
  </linearGradient>
  <linearGradient x2="0" y1="900.72" y2="887.07" gradientUnits="userSpaceOnUse" id="linearGradient45711" gradientTransform="matrix(1.2188 0 0 1.1654 -1239.7 -18.451)">
   <stop stop-color="#edc33e"/>
   <stop stop-color="#fae6a5" offset="1"/>
  </linearGradient>
  <linearGradient x1="1155" x2="1165.5" xlink:href="#linearGradient11704" y1="899.99" y2="893.35" gradientUnits="userSpaceOnUse" id="linearGradient45713" gradientTransform="matrix(0.40628 0 0 0.38846 -302.13 681.33)"/>
  <linearGradient x1="1155" x2="1165.5" xlink:href="#linearGradient11704" y1="899.99" y2="893.35" gradientUnits="userSpaceOnUse" id="linearGradient45715" gradientTransform="matrix(-0.40628 0 0 0.38846 655.28 681.33)"/>
  <radialGradient cy="-853" r="10" gradientUnits="userSpaceOnUse" id="radialGradient45717" cx="-1535.5" gradientTransform="matrix(-0.80407 0 0 -0.68205 -202.26 -758.11)">
   <stop stop-color="#fff"/>
   <stop stop-color="#ffd5d5" stop-opacity="0" offset="1"/>
  </radialGradient>
  <linearGradient x2="0" xlink:href="#linearGradient11704" y1="889.01" y2="900.72" gradientUnits="userSpaceOnUse" id="linearGradient45719" gradientTransform="matrix(0.30053 0 0 0.29134 -172.62 756.44)"/>
  <linearGradient x1="-17" x2="144" xlink:href="#linearGradient11804" gradientUnits="userSpaceOnUse" id="linearGradient45721" gradientTransform="matrix(0.12201 0 0 0.28433 168.31 1370.6)"/>
  <radialGradient cy="-848.92" r="10" gradientUnits="userSpaceOnUse" id="radialGradient45723" cx="-1535.2" gradientTransform="matrix(-0.93255 0 0 -1.3574 -2437.8 -1344.6)">
   <stop stop-color="#fffb88"/>
   <stop stop-color="#b97f00" stop-opacity="0" offset="1"/>
  </radialGradient>
  <linearGradient x1="529.25" x2="535.44" y1="-1568.6" y2="-1574.8" gradientUnits="userSpaceOnUse" id="linearGradient45725" gradientTransform="matrix(0.16712 0 0 0.16712 -52.4 377.15)">
   <stop stop-color="#008000"/>
   <stop stop-color="#0f0" stop-opacity="0" offset="1"/>
  </linearGradient>
  <path d="m27.244 960.63c-1.3885 0-2.3648 1.141-2.3648 2.7636v12.633 46.323 23.863 11.625 1.0089c0 1.5128 0.8619 2.5785 2.102 2.7196 0.09 0.012 0.16882 0.044 0.26275 0.044h6.0058 69.668 6.0058c0.0868 0 0.17933-0.012 0.26275-0.044 1.2401-0.1411 2.102-1.2068 2.102-2.7196v-1.0089-11.625-23.863-22.547c-11.18-13-22.339-26.07-33.512-39.13h-49.661-0.86334z" id="SVGCleanerId_1"/>
  <path d="m36.056 971.12c-0.48951 0.0556-0.90382 0.61486-0.89797 1.2121v11.636 54.301 11.636c-0.004 0.636 0.47425 1.2169 0.99774 1.2121h5.3213 58.534c0.52349 0 1.0017-0.5761 0.99774-1.2121v-11.636-35.433c-0.003-0.3158-0.11308-0.6281-0.29932-0.8484l-25.11-30.52c-0.18136-0.22624-0.43848-0.3601-0.69842-0.36362h-38.746c-0.0332-0.002-0.0665-0.002-0.0998 0z" fill="url(#radialGradient45671)" id="SVGCleanerId_2" opacity="0.6"/>
  <path d="m36.156 972.33v11.636 54.301 11.636h5.3213 58.534v-11.636-35.433l-25.11-30.504z" fill="url(#linearGradient45673)" id="SVGCleanerId_3"/>
  <path d="m36.156 972.33v11.636 54.301 11.636h5.3213 58.534v-11.636-35.433l-25.11-30.504zm1.0642 1.2929h37.282l24.445 29.696v34.948 10.343h-57.47-4.257v-10.343-54.301z" fill="#fff" id="SVGCleanerId_4" opacity="0.7"/>
  <path d="m27.244 960.63c-1.3885 0-2.3648 1.141-2.3648 2.7636v12.633 46.323 23.863 11.625 1.0089c0 1.5128 0.8619 2.5785 2.102 2.7196 0.09 0.012 0.16882 0.044 0.26275 0.044h6.0058 69.668 6.0058c0.0868 0 0.17933-0.012 0.26275-0.044 1.2401-0.1411 2.102-1.2068 2.102-2.7196v-1.0089-11.625-23.863-22.547c-11.18-13-22.339-26.07-33.512-39.13h-49.661-0.86334zm0 1.3598h0.86334 49.173c10.947 12.794 21.879 25.605 32.844 38.383v21.977 23.863 11.625 1.0089c0 0.9101-0.32077 1.2768-1.051 1.3599a1.1619 1.3578 0 0 0 -0.15014 0.044h-6.0058-69.668-6.0058c0.1433 0 0.11877-0.013-0.15015-0.044-0.73025-0.083-1.051-0.4498-1.051-1.3599v-1.0089-11.625-23.863-46.323-12.633c0-0.98613 0.35734-1.4037 1.2012-1.4037z" id="SVGCleanerId_5" opacity="0.1"/>
  <path d="m27.244 960.63c-1.3885 0-2.3648 1.141-2.3648 2.7636v1.4037c0-1.6226 0.97634-2.7636 2.3648-2.7636h0.86334 49.661c11.173 13.057 22.33 26.134 33.52 39.173v-1.4038c-11.19-13.04-22.349-26.11-33.522-39.17h-49.661-0.86334z" id="SVGCleanerId_6" opacity="0.2"/>
  <rect x="34" y="117.01" color="#000000" height="1" id="SVGCleanerId_7" opacity="0.15" width="5.999"/>
  <rect x="34.501" y="111.51" fill="#9ef290" color="#000000" stroke="#18a303" height="5" id="SVGCleanerId_8" opacity="0.75" width="5"/>
  <rect x="36" y="113" fill="url(#linearGradient45725)" color="#000000" height="2.01" id="SVGCleanerId_9" opacity="0.75" width="2.01"/>
 </defs>
 <g transform="matrix(1 0 0 1 0 -956.36)">
  <rect x="3.353" rx="12.724" y="959.35" fill-opacity="0.02" height="89.98" width="89.62"/>
  <rect x="3.959" rx="12.552" y="959.96" fill-opacity="0.039" height="88.76" width="88.41"/>
  <rect x="4.564" rx="12.38" y="960.57" fill-opacity="0.078" height="87.55" width="87.2"/>
  <rect x="5.17" rx="12.208" y="961.18" fill-opacity="0.157" height="86.33" width="85.991"/>
  <path d="m17.75 961.77c-6.6418 0-11.969 5.3946-11.969 12.062v61.031c0 6.668 5.327 12.031 11.969 12.031h60.812c6.6418 0 11.969-5.3633 11.969-12.031v-61.031c0-6.6679-5.327-12.062-11.969-12.062h-60.812z" fill="#ececec"/>
  <g clip-path="url(#clipPath45685)" transform="matrix(1 0 0 1 -20 0)">
   <path d="m86.778 961.58c-1.715 0.14764-1.7964 2.7991-0.38869 3.5708 7.7568 8.5094 15.401 17.172 23.228 25.586 1.5143 0.90521 2.7536-1.137 2.2991-2.6931-0.10263-6.5584 0.21227-13.154-0.16917-19.687-0.6849-4.5975-5.0023-7.4079-8.9806-6.7764h-15.989z" fill="url(#linearGradient45665)" opacity="0.3"/>
   <path d="m86.27 961.58a1.5265 1.708 0 0 0 -0.91351 2.915l22.872 25.592a1.5265 1.708 0 0 0 2.6052 -1.0979 1.5265 1.708 0 0 0 0 -0.11349v-15.181-4.505-0.34072c0-4.0268-2.8972-7.2686-6.496-7.2686h-18.067z" fill="url(#linearGradient45667)" opacity="0.45"/>
   <path d="m86.27 960.37a1.5265 1.708 0 0 0 -0.91351 2.915l22.872 25.592a1.5265 1.708 0 0 0 2.6052 -1.0979 1.5265 1.708 0 0 0 0 -0.11349v-15.181-4.505-0.3407c0-4.0268-2.8972-7.2686-6.496-7.2686h-18.067z" fill="#e5b006"/>
   <path d="m86.27 960.37a1.5265 1.708 0 0 0 -1.218 2.42h17.12 2.1654c3.0118 0 5.4134 2.6871 5.4134 6.0572v2.4229 18.02a1.5265 1.708 0 0 0 1.0827 -1.3629 1.5265 1.708 0 0 0 0 -0.15143 1.5265 1.708 0 0 0 0 -0.11349v-15.181-2.4229-2.0822-0.3407c0-4.0268-2.8972-7.2686-6.496-7.2686h-18.067z" fill="#ececec" opacity="0.2"/>
   <use xlink:href="#SVGCleanerId_1" fill="url(#linearGradient45669)"/>
   <use xlink:href="#SVGCleanerId_2"/>
   <use xlink:href="#SVGCleanerId_3"/>
   <use xlink:href="#SVGCleanerId_4"/>
   <use xlink:href="#SVGCleanerId_5"/>
   <use xlink:href="#SVGCleanerId_6"/>
   <use xlink:href="#SVGCleanerId_1" fill="url(#linearGradient45669)"/>
   <use xlink:href="#SVGCleanerId_2"/>
   <use xlink:href="#SVGCleanerId_3"/>
   <use xlink:href="#SVGCleanerId_4"/>
   <use xlink:href="#SVGCleanerId_5"/>
   <use xlink:href="#SVGCleanerId_6"/>
   <use xlink:href="#SVGCleanerId_1" fill="#e5b006"/>
   <use xlink:href="#SVGCleanerId_2"/>
   <use xlink:href="#SVGCleanerId_3"/>
   <use xlink:href="#SVGCleanerId_4"/>
   <path d="m27.25 4.25c-1.3885 0-2.375 1.1586-2.375 2.7812v12.625 46.344 23.844 3.1562h1.1562v-3.1562-23.844-46.344-12.625c0-0.9861 0.375-1.4062 1.219-1.4062h0.84375 49.188c10.946 12.794 21.877 25.597 32.838 38.375v22 23.844 3.1562h0.5c0.21811 0 0.44107 0.01987 0.65625 0.03125v-3.1875-23.844-22.562c-11.19-13.038-22.325-26.13-33.499-39.187h-49.688-0.84375z" fill="#676767" fill-opacity="0.886" opacity="0.1" transform="matrix(1 0 0 1 0 956.36)"/>
   <use xlink:href="#SVGCleanerId_6"/>
  </g>
  <path d="m5.7756 1029.8v5.0663c0 6.668 5.3434 12.032 11.985 12.032h60.809c6.6418 0 11.985-5.3645 11.985-12.032v-5.0663c0 6.6681-5.3434 12.032-11.985 12.032h-60.809c-6.6418 0-11.985-5.3643-11.985-12.032z" fill-opacity="0.235"/>
  <path d="m5.7756 1033.9v1.0133c0 6.668 5.3434 12.032 11.985 12.032h60.809c6.6418 0 11.985-5.3645 11.985-12.032v-1.0133c0 6.6681-5.3434 12.032-11.985 12.032h-60.809c-6.6418 0-11.985-5.3644-11.985-12.032z" fill-opacity="0.098"/>
  <g transform="matrix(1 0 0 1 -128.95 -4.519)">
   <path d="m176.54 1012.9c-0.0179 0.014-0.0342 0.029-0.0487 0.046-0.0798 0.021-0.15071 0.07-0.19405 0.1367l-6.3563 10.302-6.308 10.348c-0.0178 0.014-0.034 0.029-0.0484 0.046-0.005 0.03-0.005 0.061 0 0.091-0.005 0.03-0.005 0.061 0 0.091 0.0107 0.033 0.0271 0.064 0.0484 0.091 0.0145 0.017 0.0308 0.032 0.0486 0.046 0.0145 0.017 0.0308 0.032 0.0486 0.046 0.0576 0.034 0.12647 0.05 0.19409 0.046h12.664 12.664c0.0676 0 0.13642-0.012 0.19406-0.046 0.0178-0.014 0.0342-0.029 0.0487-0.046 0.0178-0.014 0.0341-0.029 0.0486-0.046 0.0214-0.028 0.0378-0.059 0.0485-0.091 0.005-0.03 0.005-0.061 0-0.091 0.005-0.03 0.005-0.061 0-0.091-0.0144-0.017-0.0307-0.032-0.0485-0.046l-6.308-10.348-6.3562-10.302c-0.0434-0.066-0.11424-0.1161-0.19412-0.1367-0.0294-0.02-0.0623-0.036-0.097-0.046-0.0161-0.001-0.0323-0.001-0.0484 0z" color="#000000" opacity="0.15"/>
   <path d="m182.1 1010.2a11.5 11.5 0 0 1 -23 0 11.5 11.5 0 1 1 23 0z" color="#000000" stroke="#000" opacity="0.15"/>
   <path d="m182.1 1009.2a11.5 11.5 0 0 1 -23 0 11.5 11.5 0 1 1 23 0z" fill="url(#linearGradient45689)" color="#000000" stroke="url(#linearGradient45691)"/>
   <path d="m180.41 1009.2a9.907 9.999 0 0 1 -19.814 0 9.907 9.999 0 1 1 19.814 0z" fill="url(#linearGradient45693)" color="#000000"/>
   <rect x="177.6" rx="0.333" ry="0.348" y="1004.2" color="#000000" height="23" opacity="0.15" width="22"/>
   <rect x="177.6" rx="0.333" y="1004.2" fill="url(#linearGradient45695)" color="#000000" height="22" opacity="0.8" width="22"/>
   <rect x="178.6" y="1005.2" fill="url(#linearGradient45697)" color="#000000" height="20" width="20"/>
   <rect x="179.6" y="1006.2" fill="url(#linearGradient45699)" color="#000000" height="18" width="18"/>
   <path d="m178.6 1012.2v12.938h7.9375l-2.3125-3.8125-5.625-9.125z" fill="#fff" color="#000000" opacity="0.2"/>
   <g transform="matrix(0.3 0 0 0.3 160.4 982.76)">
    <rect x="-124" y="78" fill="url(#linearGradient45701)" color="#000000" height="60" opacity="0.35" width="30" transform="matrix(-1 0 0 1 0 0)"/>
    <rect x="64" y="78" fill="url(#linearGradient45703)" color="#000000" height="60" opacity="0.5" width="30"/>
   </g>
   <rect x="179.6" y="1023.2" fill="url(#linearGradient45705)" color="#000000" height="1" opacity="0.25" width="18"/>
   <path d="m176.54 1011.9c-0.0179 0.014-0.0342 0.029-0.0487 0.046-0.0798 0.021-0.15071 0.07-0.19405 0.1367l-6.3563 10.302-6.308 10.348c-0.0178 0.014-0.034 0.029-0.0484 0.046-0.005 0.03-0.005 0.061 0 0.091-0.005 0.03-0.005 0.061 0 0.091 0.0107 0.033 0.0271 0.064 0.0484 0.091 0.0145 0.017 0.0308 0.032 0.0486 0.046 0.0145 0.017 0.0308 0.032 0.0486 0.046 0.0576 0.034 0.12647 0.05 0.19409 0.046h12.664 12.664c0.0676 0 0.13642-0.012 0.19406-0.046 0.0178-0.014 0.0342-0.029 0.0487-0.046 0.0178-0.014 0.0341-0.029 0.0486-0.046 0.0214-0.028 0.0378-0.059 0.0485-0.091 0.005-0.03 0.005-0.061 0-0.091 0.005-0.03 0.005-0.061 0-0.091-0.0144-0.017-0.0307-0.032-0.0485-0.046l-6.308-10.348-6.3562-10.302c-0.0434-0.066-0.11424-0.1161-0.19412-0.1367-0.0294-0.02-0.0623-0.036-0.097-0.046-0.0161-0.001-0.0323-0.001-0.0484 0z" fill="url(#linearGradient45707)" color="#000000"/>
   <path d="m188.19 1032.2h-11.606-11.606l5.803-9.5125 5.8029-9.5125 5.8029 9.5125z" fill="url(#linearGradient45709)" color="#000000"/>
   <path d="m186.56 1031.2h-9.9579-9.9579l4.979-8.2457 4.9789-8.2456 4.9789 8.2456z" fill="url(#linearGradient45711)" color="#000000"/>
   <path d="m173.28 1031.2h-3.3193-3.3193l1.6597-2.7485 1.6596-2.7486 1.6596 2.7486z" fill="url(#linearGradient45713)" color="#000000" opacity="0.35"/>
   <path d="m179.87 1031.2h3.3193 3.3193l-1.6597-2.7485-1.6596-2.7486-1.6596 2.7486z" fill="url(#linearGradient45715)" color="#000000" opacity="0.35"/>
   <rect x="1024.4" y="-183.15" fill="url(#radialGradient45717)" color="#000000" height="13.641" opacity="0.5" width="7.76" transform="matrix(0 1 -1 0 0 0)"/>
   <path d="m179.06 1018.9h-2.4554-2.4554l1.2277-2.0614 1.2277-2.0614 1.2277 2.0614z" fill="url(#linearGradient45719)" color="#000000" opacity="0.25"/>
   <rect x="166.23" y="1030.9" fill="url(#linearGradient45721)" color="#000000" height="0.284" opacity="0.1" width="19.643"/>
   <rect x="-1015.2" y="-197.6" fill="url(#radialGradient45723)" color="#000000" height="18" opacity="0.5" width="9" transform="matrix(0 -1 -1 0 0 0)"/>
   <g transform="matrix(1 0 0 1 126.6 918.16)">
    <use xlink:href="#SVGCleanerId_7"/>
    <use xlink:href="#SVGCleanerId_8"/>
    <use xlink:href="#SVGCleanerId_9"/>
   </g>
   <g transform="matrix(1 0 0 1 150.6 918.16)">
    <use xlink:href="#SVGCleanerId_7"/>
    <use xlink:href="#SVGCleanerId_8"/>
    <use xlink:href="#SVGCleanerId_9"/>
   </g>
   <g transform="matrix(1 0 0 1 139.6 898.16)">
    <use xlink:href="#SVGCleanerId_7"/>
    <use xlink:href="#SVGCleanerId_8"/>
    <use xlink:href="#SVGCleanerId_9"/>
   </g>
  </g>
 </g>
</svg>
