<svg height="96" width="96" xmlns="http://www.w3.org/2000/svg" xmlns:xlink="http://www.w3.org/1999/xlink" xmlns:sodipodi="http://sodipodi.sourceforge.net/DTD/sodipodi-0.dtd" xmlns:inkscape="http://www.inkscape.org/namespaces/inkscape">
 <defs>
  <linearGradient x2="0" y1="92.54" y2="7.02" gradientUnits="userSpaceOnUse" id="ButtonShadow-0-59" gradientTransform="matrix(1.0059 0 0 0.99417 100 0)">
   <stop/>
   <stop stop-opacity="0.588" offset="1"/>
  </linearGradient>
  <linearGradient id="linearGradient8074-2-6">
   <stop stop-opacity="0"/>
   <stop offset="0.493"/>
   <stop stop-opacity="0" offset="1"/>
  </linearGradient>
  <linearGradient id="linearGradient10658">
   <stop stop-color="#b84603"/>
   <stop stop-color="#622502" offset="1"/>
  </linearGradient>
  <linearGradient id="linearGradient10391">
   <stop stop-color="#e67325"/>
   <stop stop-color="#c8400c" offset="1"/>
  </linearGradient>
  <linearGradient id="linearGradient9014-8-3">
   <stop stop-color="#fff" stop-opacity="0"/>
   <stop stop-color="#fff" offset="0.493"/>
   <stop stop-color="#fff" stop-opacity="0" offset="1"/>
  </linearGradient>
  <linearGradient x2="0" xlink:href="#ButtonShadow-0-59" y1="92" y2="7" gradientUnits="userSpaceOnUse" id="linearGradient24700" gradientTransform="matrix(1.0827 0 0 1.2114 33.392 953.1)"/>
  <linearGradient x2="0" xlink:href="#ButtonShadow-0-59" y1="91" y2="7" gradientUnits="userSpaceOnUse" id="linearGradient24702" gradientTransform="matrix(1.0827 0 0 1.2114 33.392 953.1)"/>
  <linearGradient x2="0" y1="88" y2="8" gradientUnits="userSpaceOnUse" id="linearGradient24704" gradientTransform="matrix(1.2012 0 0 1.4037 30.428 943.74)">
   <stop stop-color="#b3b3b3"/>
   <stop stop-color="#e6e6e6" offset="1"/>
  </linearGradient>
  <radialGradient cy="47.999" r="34.938" gradientUnits="userSpaceOnUse" id="radialGradient24706" cx="48" gradientTransform="matrix(1.4317 0 0 1.4802 19.362 940.07)">
   <stop/>
   <stop stop-opacity="0" offset="1"/>
  </radialGradient>
  <linearGradient x2="0" y1="80" y2="16" gradientUnits="userSpaceOnUse" id="linearGradient24708" gradientTransform="matrix(1.0643 0 0 1.2929 36.999 949.06)">
   <stop stop-color="#dfdfdf"/>
   <stop stop-color="#fefefe" offset="1"/>
  </linearGradient>
  <clipPath clipPathUnits="userSpaceOnUse" id="clipPath24720">
   <path d="m57.75 961.77c-6.6418 0-11.969 5.3946-11.969 12.062v61.031c0 6.668 5.327 12.031 11.969 12.031h60.812c6.6418 0 11.969-5.3633 11.969-12.031v-61.031c0-6.6679-5.327-12.062-11.969-12.062h-60.812z"/>
  </clipPath>
  <radialGradient cy="-754.64" r="15" gradientUnits="userSpaceOnUse" id="radialGradient24726" cx="152.33" gradientTransform="matrix(0 0.08439 -1.2612 0 -915.34 1162.6)">
   <stop stop-color="#808080" stop-opacity="0.502"/>
   <stop stop-opacity="0" offset="1"/>
  </radialGradient>
  <linearGradient x2="0" y1="-1506.6" y2="-1510.6" gradientUnits="userSpaceOnUse" id="linearGradient24730" gradientTransform="matrix(0.31192 0 0 0.31171 -228.49 1640.3)">
   <stop stop-color="#808080"/>
   <stop stop-color="#333" offset="1"/>
  </linearGradient>
  <linearGradient x2="0" y1="-1074.8" y2="-1116.8" gradientUnits="userSpaceOnUse" id="linearGradient24732" gradientTransform="matrix(0.66498 0 0 0.6217 -487.42 1835.6)">
   <stop stop-color="#d36118"/>
   <stop stop-color="#f09e6f" offset="1"/>
  </linearGradient>
  <linearGradient x2="0" y1="-1075.6" y2="-1115.6" gradientUnits="userSpaceOnUse" id="linearGradient24734" gradientTransform="matrix(0.66498 0 0 0.65279 -487.42 1869.7)">
   <stop stop-color="#edbfa1"/>
   <stop stop-color="#fdf1ea" offset="1"/>
  </linearGradient>
  <radialGradient cy="-853" r="10" gradientUnits="userSpaceOnUse" id="radialGradient24736" cx="-1535.5" gradientTransform="matrix(-1.0067 0 0 -1.0465 -378.02 -929.27)">
   <stop stop-color="#fff"/>
   <stop stop-color="#ffd5d5" stop-opacity="0" offset="1"/>
  </radialGradient>
  <linearGradient x1="798.25" x2="902" gradientUnits="userSpaceOnUse" id="linearGradient24740" gradientTransform="matrix(0.30798 0 0 0.33121 -225.05 1670.5)">
   <stop stop-color="#8e2103"/>
   <stop stop-color="#e46f1f" offset="0.169"/>
   <stop stop-color="#e66d20" offset="0.838"/>
   <stop stop-color="#922504" offset="1"/>
  </linearGradient>
  <linearGradient x2="0" y1="-1534.4" y2="-1524.4" gradientUnits="userSpaceOnUse" id="linearGradient24742" gradientTransform="matrix(0.34316 0 0 0.32903 -255.87 1666.1)">
   <stop stop-color="#808080"/>
   <stop stop-color="#606060" offset="1"/>
  </linearGradient>
  <linearGradient x1="818.03" x2="882.24" gradientUnits="userSpaceOnUse" id="linearGradient24744" gradientTransform="matrix(0.31275 0 0 0.35865 -229.1 1714.4)">
   <stop stop-color="#8e2103"/>
   <stop stop-color="#e45c1f" offset="0.25"/>
   <stop stop-color="#e45c1f" offset="0.75"/>
   <stop stop-color="#922504" offset="1"/>
  </linearGradient>
  <linearGradient x1="-17" x2="144" xlink:href="#linearGradient9014-8-3" gradientUnits="userSpaceOnUse" id="linearGradient24746" gradientTransform="matrix(0.23766 0 0 0.30362 21 1504.1)"/>
  <linearGradient x1="-17" x2="144" xlink:href="#linearGradient8074-2-6" gradientUnits="userSpaceOnUse" id="linearGradient24748" gradientTransform="matrix(0.19895 0 0 0.33121 24.1 1539.3)"/>
  <linearGradient x1="-17" x2="144" xlink:href="#linearGradient8074-2-6" gradientUnits="userSpaceOnUse" id="linearGradient24750" gradientTransform="matrix(0.12432 0 0 0.35865 28.84 1575.9)"/>
  <linearGradient x1="-17" x2="144" xlink:href="#linearGradient8074-2-6" gradientUnits="userSpaceOnUse" id="linearGradient24752" gradientTransform="matrix(0.23563 0 0 0.83715 21.619 2167.6)"/>
  <linearGradient x2="0" y1="-1063.6" y2="-1079.2" gradientUnits="userSpaceOnUse" id="linearGradient24754" gradientTransform="matrix(0.38574 0 0 0.45543 -226.56 546.26)">
   <stop stop-color="#fff" stop-opacity="0"/>
   <stop stop-color="#fff" stop-opacity="0.863" offset="1"/>
  </linearGradient>
  <linearGradient x1="-17" x2="144" xlink:href="#linearGradient9014-8-3" gradientUnits="userSpaceOnUse" id="linearGradient24756" gradientTransform="matrix(0.09357 0 0 0.30362 50.49 424.28)"/>
  <linearGradient x2="0" xlink:href="#linearGradient10658" y1="-1559.6" y2="-1525.6" gradientUnits="userSpaceOnUse" id="linearGradient24758" gradientTransform="matrix(0.26098 0 0 0.44081 -186.68 1841.1)"/>
  <linearGradient x2="0" xlink:href="#linearGradient10391" y1="647.81" y2="735.75" gradientUnits="userSpaceOnUse" id="linearGradient24760" gradientTransform="matrix(0.22817 0 0 0.2278 -182.64 1005.9)"/>
  <linearGradient x1="-17" x2="144" xlink:href="#linearGradient8074-2-6" gradientUnits="userSpaceOnUse" id="linearGradient24762" gradientTransform="matrix(0.04863 0 0 0.44081 25.547 1680.2)"/>
  <linearGradient x2="0" xlink:href="#linearGradient10658" y1="-1559.6" y2="-1525.6" gradientUnits="userSpaceOnUse" id="linearGradient24766" gradientTransform="matrix(0.26098 0 0 0.44081 -186.68 1845.1)"/>
  <linearGradient x2="0" xlink:href="#linearGradient10391" y1="647.81" y2="735.75" gradientUnits="userSpaceOnUse" id="linearGradient24768" gradientTransform="matrix(0.22817 0 0 0.2278 -182.64 1009.9)"/>
  <linearGradient x1="-17" x2="144" xlink:href="#linearGradient8074-2-6" gradientUnits="userSpaceOnUse" id="linearGradient24770" gradientTransform="matrix(0.04863 0 0 0.44081 25.547 1684.2)"/>
  <linearGradient x2="0" xlink:href="#linearGradient10658" y1="-1559.6" y2="-1525.6" gradientUnits="userSpaceOnUse" id="linearGradient24772" gradientTransform="matrix(0.26098 0 0 0.44081 -186.68 1849.1)"/>
  <linearGradient x2="0" xlink:href="#linearGradient10391" y1="647.81" y2="735.75" gradientUnits="userSpaceOnUse" id="linearGradient24774" gradientTransform="matrix(0.22817 0 0 0.2278 -182.64 1013.9)"/>
  <linearGradient x1="-17" x2="144" xlink:href="#linearGradient8074-2-6" gradientUnits="userSpaceOnUse" id="linearGradient24776" gradientTransform="matrix(0.04863 0 0 0.44081 25.547 1688.2)"/>
  <linearGradient x1="-17" x2="144" xlink:href="#linearGradient8074-2-6" gradientUnits="userSpaceOnUse" id="linearGradient24778" gradientTransform="matrix(0.11065 0 0 0.83715 37.787 2163.6)"/>
  <linearGradient x1="889" x2="879" y1="-1054.6" y2="-1042.6" gradientUnits="userSpaceOnUse" id="linearGradient24780" gradientTransform="matrix(0.65408 0 0 0.60724 -535.08 1796.1)">
   <stop stop-color="#18a303"/>
   <stop stop-color="#106802" offset="1"/>
  </linearGradient>
  <radialGradient cy="-754.64" r="15" gradientUnits="userSpaceOnUse" id="radialGradient24847" cx="152.33" gradientTransform="matrix(0 0.05275 -0.26059 0 -167.03 1168.2)">
   <stop stop-opacity="0.502"/>
   <stop stop-opacity="0" offset="1"/>
  </radialGradient>
  <linearGradient x2="0" xlink:href="#linearGradient24730" y1="-1506.6" y2="-1510.6" gradientUnits="userSpaceOnUse" id="linearGradient24849" gradientTransform="matrix(0.31192 0 0 0.31171 -228.49 1641.3)"/>
  <linearGradient x1="529.25" x2="535" y1="-1568.6" y2="-1574.6" gradientUnits="userSpaceOnUse" id="linearGradient24851" gradientTransform="matrix(0.54507 0 0 1.992 -270.62 4291.1)">
   <stop stop-color="#f00"/>
   <stop stop-color="#ffc600" stop-opacity="0" offset="1"/>
  </linearGradient>
  <linearGradient x1="-17" x2="144" gradientUnits="userSpaceOnUse" id="linearGradient24853" gradientTransform="matrix(0.15464 0 0 1.013 1144.6 1191.5)">
   <stop stop-color="#d40000" stop-opacity="0"/>
   <stop stop-color="#d40000" offset="0.493"/>
   <stop stop-color="#d40000" stop-opacity="0" offset="1"/>
  </linearGradient>
  <path d="m47.244 960.63c-1.3885 0-2.3648 1.141-2.3648 2.7636v12.633 46.323 23.863 11.625 1.0089c0 1.5128 0.8619 2.5785 2.102 2.7196 0.09 0.012 0.16882 0.044 0.26275 0.044h6.0058 69.668 6.0058c0.0868 0 0.17933-0.012 0.26275-0.044 1.2401-0.1411 2.102-1.2068 2.102-2.7196v-1.0089-11.625-23.863-22.547c-11.19-13.038-22.347-26.115-33.52-39.173h-49.661-0.86334z" id="SVGCleanerId_1"/>
  <path d="m56.056 971.12c-0.48951 0.0556-0.90382 0.61486-0.89797 1.2121v11.636 54.301 11.636c-0.004 0.636 0.47425 1.2169 0.99774 1.2121h5.3213 58.534c0.52349 0 1.0017-0.5761 0.99774-1.2121v-11.636-35.433c-0.003-0.3158-0.11308-0.6281-0.29932-0.8484l-25.11-30.52c-0.18136-0.22624-0.43848-0.3601-0.69842-0.36362h-38.746c-0.0332-0.002-0.0665-0.002-0.0998 0z" fill="url(#radialGradient24706)" id="SVGCleanerId_2" opacity="0.6"/>
  <path d="m56.156 972.33v11.636 54.301 11.636h5.3213 58.534v-11.636-35.433l-25.11-30.504z" fill="url(#linearGradient24708)" id="SVGCleanerId_3"/>
  <path d="m56.156 972.33v11.636 54.301 11.636h5.3213 58.534v-11.636-35.433l-25.11-30.504zm1.0642 1.2929h37.282l24.445 29.696v34.948 10.343h-57.47-4.257v-10.343-54.301z" fill="#fff" id="SVGCleanerId_4" opacity="0.7"/>
  <path d="m47.244 960.63c-1.3885 0-2.3648 1.141-2.3648 2.7636v12.633 46.323 23.863 11.625 1.0089c0 1.5128 0.8619 2.5785 2.102 2.7196 0.09 0.012 0.16882 0.044 0.26275 0.044h6.0058 69.668 6.0058c0.0868 0 0.17933-0.012 0.26275-0.044 1.2401-0.1411 2.102-1.2068 2.102-2.7196v-1.0089-11.625-23.863-22.547c-11.19-13.038-22.347-26.115-33.52-39.173h-49.661-0.86334zm0 1.3598h0.86334 49.173c10.947 12.794 21.879 25.605 32.844 38.383v21.977 23.863 11.625 1.0089c0 0.9101-0.32077 1.2768-1.051 1.3599a1.1619 1.3578 0 0 0 -0.15014 0.044h-6.0058-69.668-6.0058c0.1433 0 0.11877-0.013-0.15015-0.044-0.73025-0.083-1.051-0.4498-1.051-1.3599v-1.0089-11.625-23.863-46.323-12.633c0-0.98613 0.35734-1.4037 1.2012-1.4037z" id="SVGCleanerId_5" opacity="0.1"/>
  <path d="m47.244 960.63c-1.3885 0-2.3648 1.141-2.3648 2.7636v1.4037c0-1.6226 0.97634-2.7636 2.3648-2.7636h0.86334 49.661c11.173 13.057 22.33 26.134 33.52 39.173v-1.4038c-11.19-13.038-22.347-26.115-33.52-39.173h-49.661-0.86334z" id="SVGCleanerId_6" opacity="0.2"/>
  <rect x="16.633" rx="0.654" y="1141.4" ry="0.607" color="#000000" height="26.11" id="SVGCleanerId_7" width="39.899"/>
  <rect x="48.853" y="52.734" color="#000000" height="9.109" id="SVGCleanerId_8" width="15.04"/>
 </defs>
 <g transform="matrix(1 0 0 1 0 -956.36)">
  <rect x="3.353" rx="12.724" y="959.35" fill-opacity="0.02" height="89.98" width="89.62"/>
  <rect x="3.959" rx="12.552" y="959.96" fill-opacity="0.039" height="88.76" width="88.41"/>
  <rect x="4.564" rx="12.38" y="960.57" fill-opacity="0.078" height="87.55" width="87.2"/>
  <rect x="5.17" rx="12.208" y="961.18" fill-opacity="0.157" height="86.33" width="85.991"/>
  <path d="m17.75 961.77c-6.6418 0-11.969 5.3946-11.969 12.062v61.031c0 6.668 5.327 12.031 11.969 12.031h60.812c6.6418 0 11.969-5.3633 11.969-12.031v-61.031c0-6.6679-5.327-12.062-11.969-12.062h-60.812z" fill="#ececec"/>
  <g clip-path="url(#clipPath24720)" transform="matrix(1 0 0 1 -40 0)">
   <path d="m106.78 961.58c-1.715 0.14764-1.7964 2.7991-0.38869 3.5708 7.7568 8.5094 15.401 17.172 23.228 25.586 1.5143 0.90521 2.7536-1.137 2.2991-2.6931-0.10263-6.5584 0.21227-13.154-0.16917-19.687-0.6849-4.5975-5.0023-7.4079-8.9806-6.7764h-15.989z" fill="url(#linearGradient24700)" opacity="0.3"/>
   <path d="m106.27 961.58a1.5265 1.708 0 0 0 -0.91351 2.915l22.872 25.592a1.5265 1.708 0 0 0 2.6052 -1.0979 1.5265 1.708 0 0 0 0 -0.11349v-15.181-4.505-0.34072c0-4.0268-2.8972-7.2686-6.496-7.2686h-18.067z" fill="url(#linearGradient24702)" opacity="0.45"/>
   <path d="m106.27 960.37a1.5265 1.708 0 0 0 -0.91351 2.915l22.872 25.592a1.5265 1.708 0 0 0 2.6052 -1.0979 1.5265 1.708 0 0 0 0 -0.11349v-15.181-4.505-0.3407c0-4.0268-2.8972-7.2686-6.496-7.2686h-18.067z" fill="#b6561f"/>
   <path d="m106.27 960.37a1.5265 1.708 0 0 0 -1.218 2.4229h17.12 2.1654c3.0118 0 5.4134 2.6871 5.4134 6.0572v2.4229 18.02a1.5265 1.708 0 0 0 1.0827 -1.3629 1.5265 1.708 0 0 0 0 -0.15143 1.5265 1.708 0 0 0 0 -0.11349v-15.181-2.4229-2.0822-0.3407c0-4.0268-2.8972-7.2686-6.496-7.2686h-18.067z" fill="#ececec" opacity="0.2"/>
   <use xlink:href="#SVGCleanerId_1" fill="url(#linearGradient24704)"/>
   <use xlink:href="#SVGCleanerId_2"/>
   <use xlink:href="#SVGCleanerId_3"/>
   <use xlink:href="#SVGCleanerId_4"/>
   <use xlink:href="#SVGCleanerId_5"/>
   <use xlink:href="#SVGCleanerId_6"/>
   <use xlink:href="#SVGCleanerId_1" fill="url(#linearGradient24704)"/>
   <use xlink:href="#SVGCleanerId_2"/>
   <use xlink:href="#SVGCleanerId_3"/>
   <use xlink:href="#SVGCleanerId_4"/>
   <use xlink:href="#SVGCleanerId_5"/>
   <use xlink:href="#SVGCleanerId_6"/>
   <use xlink:href="#SVGCleanerId_1" fill="#b6561f"/>
   <use xlink:href="#SVGCleanerId_2"/>
   <use xlink:href="#SVGCleanerId_3"/>
   <use xlink:href="#SVGCleanerId_4"/>
   <path d="m47.25 960.61c-1.3885 0-2.375 1.1586-2.375 2.7812v12.625 46.344 23.844 3.1562h1.1562v-3.1562-23.844-46.344-12.625c0-0.98613 0.37492-1.4062 1.2188-1.4062h0.84375 49.188c10.947 12.794 21.878 25.597 32.844 38.375v22 23.844 3.1562h0.5c0.21811 0 0.44107 0.02 0.65625 0.031v-3.1875-23.844-22.562c-11.19-13.038-22.327-26.13-33.5-39.188h-49.688-0.84375z" fill="#676767" fill-opacity="0.886" opacity="0.1"/>
   <use xlink:href="#SVGCleanerId_6"/>
  </g>
  <path d="m5.7756 1029.8v5.0663c0 6.668 5.3434 12.032 11.985 12.032h60.809c6.6418 0 11.985-5.3645 11.985-12.032v-5.0663c0 6.6681-5.3434 12.032-11.985 12.032h-60.809c-6.6418 0-11.985-5.3643-11.985-12.032z" fill-opacity="0.235"/>
  <path d="m5.7756 1033.9v1.0133c0 6.668 5.3434 12.032 11.985 12.032h60.809c6.6418 0 11.985-5.3645 11.985-12.032v-1.0133c0 6.6681-5.3434 12.032-11.985 12.032h-60.809c-6.6418 0-11.985-5.3644-11.985-12.032z" fill-opacity="0.098"/>
  <g transform="matrix(1 0 0 1 11.371 -139.03)">
   <rect x="25.729" y="1175.4" fill="url(#radialGradient24847)" color="#000000" height="1.559" id="rect10490" opacity="0.5" width="7.798"/>
   <rect x="17.619" y="1174.2" fill="url(#radialGradient24726)" color="#000000" height="2.494" opacity="0.4" width="37.743"/>
   <path d="m35.474 1171.1-7.5618 4.9874h3.0471l1.06-0.3472 5.8745-4.6402z" fill="#4d4d4d" id="path10476"/>
   <use xlink:href="#path10476" height="1085" width="5033" transform="matrix(-1 0 0 1 72.981 0)"/>
   <path d="m37.894 1171.1 7.4862 4.9874h-3.1228l-0.96266-0.2737-5.8962-4.7137z" fill="#4d4d4d"/>
   <path d="m34.851 1171.1-7.5618 4.9874h3.6675l6.3141-4.9874h-2.4198z" fill="url(#linearGradient24849)" id="path9896"/>
   <use xlink:href="#path9896" height="1085" width="5033" transform="matrix(-1 0 0 1 72.981 0)"/>
   <path d="m34.775 1168.8h3.7431v2.8702h-3.7431z" fill="url(#linearGradient24730)" color="#000000"/>
   <rect x="14.583" rx="0.345" ry="0.326" y="1139.4" fill="#a33e03" color="#000000" height="29.984" width="44.13"/>
   <use xlink:href="#SVGCleanerId_7" fill="url(#linearGradient24732)"/>
   <use xlink:href="#SVGCleanerId_7" fill="url(#linearGradient24734)"/>
   <rect x="1157.8" y="-47.05" fill="url(#radialGradient24736)" color="#000000" height="20.93" width="9.716" transform="matrix(0 1 -1 0 0 0)"/>
   <rect x="17.722" rx="0.654" ry="0.569" y="1142.5" fill="url(#linearGradient24851)" color="#000000" height="23.904" id="rect10082" opacity="0.35" width="6.541"/>
   <rect x="35.82" y="1153.6" fill="#fff" color="#000000" height="11.616" opacity="0.5" width="17.768"/>
   <rect x="20.719" y="1143.6" fill="#fff" color="#000000" height="2.28" width="32.03"/>
   <rect x="20.719" y="1143.6" fill="url(#linearGradient24740)" color="#000000" height="1.656" width="32.03"/>
   <rect x="35.82" y="1152.6" fill="url(#linearGradient24742)" color="#000000" height="11.845" width="17.844"/>
   <rect x="26.726" y="1147.5" fill="#fff" color="#000000" height="2.357" width="20.02"/>
   <rect x="26.726" y="1147.5" fill="url(#linearGradient24744)" color="#000000" height="1.793" width="20.02"/>
   <rect x="16.96" y="1141.4" fill="url(#linearGradient24746)" color="#000000" height="0.304" width="38.26"/>
   <rect x="20.719" y="1143.6" fill="url(#linearGradient24748)" color="#000000" height="0.331" opacity="0.25" width="32.03"/>
   <rect x="26.726" y="1147.5" fill="url(#linearGradient24750)" color="#000000" height="0.359" opacity="0.5" width="20.02"/>
   <rect x="17.614" y="1167.5" fill="url(#linearGradient24752)" color="#000000" height="0.837" opacity="0.3" width="37.937"/>
   <g transform="matrix(1.0555 0 0 1.1002 -14.838 1095.5)">
    <use xlink:href="#SVGCleanerId_8" fill="#dfdfdf"/>
    <use xlink:href="#SVGCleanerId_8" fill="url(#linearGradient24754)"/>
    <rect x="48.902" y="61.56" fill="url(#linearGradient24756)" color="#000000" height="0.304" width="15.06"/>
   </g>
   <rect x="24.72" y="1154" fill="#fff" color="#000000" height="1.763" opacity="0.5" width="7.83"/>
   <rect x="24.72" y="1153.6" fill="url(#linearGradient24758)" color="#000000" height="1.763" width="7.83"/>
   <path d="m22.939 1155a1.2549 1.196 0 0 1 -2.5098 0 1.2549 1.196 0 1 1 2.5098 0z" fill="#fff" color="#000000" opacity="0.5"/>
   <path d="m22.939 1154.4a1.2549 1.196 0 0 1 -2.5098 0 1.2549 1.196 0 1 1 2.5098 0z" fill="url(#linearGradient24760)" color="#000000"/>
   <rect x="24.72" y="1153.6" fill="url(#linearGradient24762)" color="#000000" height="0.441" opacity="0.25" width="7.83"/>
   <rect x="1142" y="-18.668" fill="url(#linearGradient24853)" color="#000000" height="1.013" id="rect11596" opacity="0.15" width="24.897" transform="matrix(0 1 -1 0 0 0)"/>
   <use xlink:href="#rect10082" height="1085" width="5033" transform="matrix(-1 0 0 0.97232 73.32 32.566)"/>
   <use xlink:href="#rect10490" height="1085" width="5033" transform="matrix(-1 0 0 1 72.981 0)"/>
   <rect x="24.72" y="1158" fill="#fff" color="#000000" height="1.763" opacity="0.5" width="7.83"/>
   <rect x="24.72" y="1157.6" fill="url(#linearGradient24766)" color="#000000" height="1.763" width="7.83"/>
   <path d="m22.939 1159a1.2549 1.196 0 0 1 -2.5098 0 1.2549 1.196 0 1 1 2.5098 0z" fill="#fff" color="#000000" opacity="0.5"/>
   <path d="m22.939 1158.4a1.2549 1.196 0 0 1 -2.5098 0 1.2549 1.196 0 1 1 2.5098 0z" fill="url(#linearGradient24768)" color="#000000"/>
   <rect x="24.72" y="1157.6" fill="url(#linearGradient24770)" color="#000000" height="0.441" opacity="0.25" width="7.83"/>
   <rect x="24.72" y="1162" fill="#fff" color="#000000" height="1.763" opacity="0.5" width="7.83"/>
   <rect x="24.72" y="1161.6" fill="url(#linearGradient24772)" color="#000000" height="1.763" width="7.83"/>
   <path d="m22.939 1163a1.2549 1.196 0 0 1 -2.5098 0 1.2549 1.196 0 1 1 2.5098 0z" fill="#fff" color="#000000" opacity="0.5"/>
   <path d="m22.939 1162.4a1.2549 1.196 0 0 1 -2.5098 0 1.2549 1.196 0 1 1 2.5098 0z" fill="url(#linearGradient24774)" color="#000000"/>
   <rect x="24.72" y="1161.6" fill="url(#linearGradient24776)" color="#000000" height="0.441" opacity="0.25" width="7.83"/>
   <use xlink:href="#rect11596" height="1085" width="5033" transform="matrix(1 0 0 0.9602 37.08 45.831)"/>
   <rect x="35.906" y="1163.6" fill="url(#linearGradient24778)" color="#000000" height="0.837" opacity="0.3" width="17.815"/>
   <path d="m39.678 1161.5 4.131-4.4069 1.9303 3.4961 4.9056-4.5544" stroke-width="1.5" fill="none" stroke="url(#linearGradient24780)" opacity="0.8" stroke-linecap="round" stroke-linejoin="round"/>
  </g>
 </g>
</svg>
