<svg height="96" width="96" xmlns="http://www.w3.org/2000/svg" xmlns:sodipodi="http://sodipodi.sourceforge.net/DTD/sodipodi-0.dtd" xmlns:inkscape="http://www.inkscape.org/namespaces/inkscape">
 <defs>
  <linearGradient x2="0" y1="20.221" y2="138.66" gradientUnits="userSpaceOnUse" id="linearGradient3613-88">
   <stop stop-color="#fff"/>
   <stop stop-color="#fff" stop-opacity="0" offset="1"/>
  </linearGradient>
  <clipPath id="clipPath3613-298">
   <rect x="6" rx="6" y="6" height="84" width="84"/>
  </clipPath>
  <filter x="-0.192" y="-0.192" height="1.384" color-interpolation-filters="sRGB" id="filter3794-99" width="1.384">
   <feGaussianBlur stdDeviation="5.28"/>
  </filter>
  <clipPath id="clipPath3754">
   <path d="m-78 6c-3.324 0-6 2.676-6 6v72c0 3.324 2.676 6 6 6h72c3.324 0 6-2.676 6-6v-72c0-3.324-2.676-6-6-6h-72zm4 10a64 64 0 0 1 64 64h-12.812a51.2 51.2 0 0 0 -51.188 -51.188v-12.812zm0 21.562a42.423 42.423 0 0 1 42.438 42.438h-12.438a29.989 29.989 0 0 0 -30 -30v-12.438zm8.7812 24.875c4.8475 0 8.7812 3.9338 8.7812 8.7812 0 4.848-3.933 8.782-8.781 8.782-4.847 0-8.781-3.934-8.781-8.781 0-4.8475 3.9338-8.7812 8.7812-8.7812z"/>
  </clipPath>
  <filter x="-0.12" y="-0.12" height="1.24" color-interpolation-filters="sRGB" id="filter3762" width="1.24">
   <feGaussianBlur stdDeviation="3.2"/>
  </filter>
  <clipPath id="clipPath3775-8">
   <path d="m-84 16v12.8a51.2 51.2 0 0 1 51.2 51.2h12.8a64 64 0 0 0 -64 -64zm0 21.577v12.434a29.989 29.989 0 0 1 29.989 29.989h12.434a42.423 42.423 0 0 0 -42.423 -42.423zm8.7771 24.869c-4.847 0-8.777 3.929-8.777 8.777 0 4.847 3.93 8.777 8.777 8.777 4.8475 0 8.7771-3.9297 8.7771-8.7771 0-4.8475-3.9297-8.7771-8.7771-8.7771z"/>
  </clipPath>
  <filter color-interpolation-filters="sRGB" id="filter3787">
   <feGaussianBlur stdDeviation="0.42"/>
  </filter>
  <linearGradient x2="0" y1="90" y2="5.988" gradientUnits="userSpaceOnUse" id="linearGradient3088-5" gradientTransform="matrix(1.0884 0 0 1.0791 -3.852 -4.04)">
   <stop stop-color="#d4530d"/>
   <stop stop-color="#f7ad25" offset="1"/>
  </linearGradient>
 </defs>
 <g transform="matrix(1 0 0 1 0 -956.36)">
  <rect x="3.353" rx="12.724" y="959.35" fill-opacity="0.02" height="89.98" width="89.62"/>
  <rect x="3.959" rx="12.552" y="959.96" fill-opacity="0.039" height="88.76" width="88.41"/>
  <rect x="4.564" rx="12.38" y="960.57" fill-opacity="0.078" height="87.55" width="87.2"/>
  <rect x="5.17" rx="12.208" y="961.18" fill-opacity="0.157" height="86.33" width="85.991"/>
  <path d="m17.75 5.4062c-6.642 0-11.969 5.3948-11.969 12.063l0.0002 61.031c0 6.668 5.3268 12.031 11.969 12.031h60.812c6.642 0 11.969-5.363 11.969-12.031v-61.031c0-6.668-5.327-12.063-11.969-12.063l-60.812 0.0002z" fill="url(#linearGradient3088-5)" transform="matrix(1 0 0 1 0 956.36)"/>
  <path d="m5.7756 1029.8v5.0663c0 6.668 5.3434 12.032 11.985 12.032h60.809c6.6418 0 11.985-5.3645 11.985-12.032v-5.0663c0 6.6681-5.3434 12.032-11.985 12.032h-60.809c-6.6418 0-11.985-5.3643-11.985-12.032z" fill-opacity="0.17"/>
  <path d="m5.7756 1033.9v1.0133c0 6.668 5.3434 12.032 11.985 12.032h60.809c6.6418 0 11.985-5.3645 11.985-12.032v-1.0133c0 6.6681-5.3434 12.032-11.985 12.032h-60.809c-6.6418 0-11.985-5.3644-11.985-12.032z" fill-opacity="0.098"/>
  <rect x="15" stroke-width="0.5" rx="12" y="15" clip-path="url(#clipPath3613-298)" fill="url(#linearGradient3613-88)" stroke="#fff" height="66" filter="url(#filter3794-99)" opacity="0.1" stroke-linecap="round" width="66" transform="matrix(1 0 0 1 0.194 955.53)"/>
  <g transform="matrix(1 0 0 1 0.266 954.31)">
   <path d="m-74 16v12.8a51.2 51.2 0 0 1 51.2 51.2h12.8a64 64 0 0 0 -64 -64zm0 21.577v12.434a29.989 29.989 0 0 1 29.989 29.989h12.434a42.423 42.423 0 0 0 -42.423 -42.423zm8.7771 24.869c-4.847 0-8.777 3.929-8.777 8.777 0 4.847 3.93 8.777 8.777 8.777 4.8475 0 8.7771-3.9297 8.7771-8.7771 0-4.8475-3.9297-8.7771-8.7771-8.7771z" clip-path="url(#clipPath3754)" fill="#fff" filter="url(#filter3762)" opacity="0.4" transform="matrix(1 0 0 1 90 0)"/>
   <path d="m16 16v12.8a51.2 51.2 0 0 1 51.2 51.2h12.8a64 64 0 0 0 -64 -64zm0 21.577v12.434a29.989 29.989 0 0 1 29.989 29.989h12.434a42.423 42.423 0 0 0 -42.423 -42.423zm8.7771 24.869c-4.847 0-8.777 3.929-8.777 8.777 0 4.847 3.93 8.777 8.777 8.777 4.8475 0 8.7771-3.9297 8.7771-8.7771 0-4.8475-3.9297-8.7771-8.7771-8.7771z" fill="#fff"/>
   <path d="m-88 6c-3.324 0-6 2.676-6 6v72c0 3.324 2.676 6 6 6h72c3.324 0 6-2.676 6-6v-72c0-3.324-2.676-6-6-6h-72zm4 11a64 64 0 0 1 64 64h-12.812a51.2 51.2 0 0 0 -51.188 -51.188v-12.812zm0 21.562a42.423 42.423 0 0 1 42.438 42.438h-12.438a29.989 29.989 0 0 0 -30 -30v-12.438zm8.7812 24.875c4.8475 0 8.7812 3.9338 8.7812 8.7812 0 4.848-3.933 8.782-8.781 8.782-4.847 0-8.781-3.934-8.781-8.781 0-4.8475 3.9338-8.7812 8.7812-8.7812z" clip-path="url(#clipPath3775-8)" filter="url(#filter3787)" opacity="0.8" transform="matrix(1 0 0 1 100 0)"/>
  </g>
 </g>
</svg>
