<svg height="96" width="96" xmlns="http://www.w3.org/2000/svg" xmlns:xlink="http://www.w3.org/1999/xlink" xmlns:sodipodi="http://sodipodi.sourceforge.net/DTD/sodipodi-0.dtd" xmlns:inkscape="http://www.inkscape.org/namespaces/inkscape">
 <defs>
  <clipPath id="clipPath4101">
   <path d="m131.81 6c-10.565 7.4797-17.814 19.08-17.219 33.062 0.61551 14.47 12.417 28.991 28.5 27.25 9.1883-0.99477 16.536-9.73 11.844-17.188-1.4905-2.369-5.1102-2.5732-6.8125-1.4375 8.1795-0.23077 4.1866 9.5126-3 11-9.8172 2.0318-17.351-7.4544-18.031-16.281-1.2708-16.495 14.681-28.178 29.938-28.125 14.389 0.05043 26.06 8.2959 32.969 19.75v-22.03c0-3.324-2.676-6-6-6h-52.188zm24.031 23.531c-0.47014-0.006-0.95892 0.0088-1.4375 0.03125-0.49402 0.02315-0.99741 0.07059-1.5 0.125-9.1883 0.99477-16.536 9.73-11.844 17.188 1.4905 2.369 5.1102 2.5732 6.8125 1.4375-8.1795 0.23077-4.1866-9.5126 3-11 9.8172-2.0318 17.351 7.4544 18.031 16.281 1.2708 16.495-14.681 28.178-29.938 28.125-14.38-0.051-26.05-8.296-32.96-19.75v22.031c0 3.324 2.676 6 6 6h52.188c10.56-7.48 17.81-19.08 17.22-33.062-0.58-13.58-10.99-27.22-25.57-27.407z"/>
  </clipPath>
  <clipPath id="clipPath4000">
   <rect x="36" rx="6" y="-90" height="84" width="84" transform="matrix(1 0 0 -1 0 0)"/>
  </clipPath>
  <clipPath id="clipPath3613-90">
   <rect x="6" rx="6" y="6" height="84" width="84"/>
  </clipPath>
  <filter x="-0.192" y="-0.192" height="1.384" color-interpolation-filters="sRGB" id="filter3794-26" width="1.384">
   <feGaussianBlur stdDeviation="5.28"/>
  </filter>
  <linearGradient x2="0" y1="90" y2="5.988" gradientUnits="userSpaceOnUse" id="linearGradient25602" gradientTransform="matrix(1 0 0 1 -172.7 -1061.4)">
   <stop stop-color="#fdb245"/>
   <stop stop-color="#f57900" offset="1"/>
  </linearGradient>
  <radialGradient cy="48" r="42" gradientUnits="userSpaceOnUse" id="radialGradient25604" cx="48" gradientTransform="matrix(1 0 0 1 30 0)">
   <stop stop-color="#a4c1e0"/>
   <stop stop-color="#3465a4" offset="1"/>
  </radialGradient>
  <linearGradient x2="0" y1="20.221" y2="138.66" gradientUnits="userSpaceOnUse" id="linearGradient25606">
   <stop stop-color="#fff"/>
   <stop stop-color="#fff" stop-opacity="0" offset="1"/>
  </linearGradient>
  <clipPath clipPathUnits="userSpaceOnUse" id="clipPath25608">
   <path d="m-153.39 974.74c-5.9254 0-10.678 4.9355-10.678 11.036v55.838c0 6.1006 4.7524 11.008 10.678 11.008h54.253c5.9254 0 10.678-4.9069 10.678-11.008v-55.838c0-6.1005-4.7524-11.036-10.678-11.036h-54.253z"/>
  </clipPath>
  <path d="m145.88-6.0625-14.062 12 0.75 0.0625h-0.75c-10.565 7.4797-17.814 19.08-17.219 33.062 0.61551 14.47 12.417 28.991 28.5 27.25 9.1883-0.99477 16.536-9.73 11.844-17.188-1.4905-2.369-5.1102-2.5732-6.8125-1.4375 8.1795-0.23077 4.1866 9.5126-3 11-9.8172 2.0318-17.351-7.4544-18.031-16.281-1.2708-16.495 14.681-28.178 29.938-28.125 14.339 0.05025 25.988 8.2332 32.906 19.625l0.06 0.095v0.03125l7.8125 12.719 7.875-52.312zm9.9688 35.594c-0.47014-0.006-0.95892 0.0088-1.4375 0.03125-0.49402 0.02315-0.99741 0.07059-1.5 0.125-9.1883 0.99477-16.536 9.73-11.844 17.188 1.4905 2.369 5.1102 2.5732 6.8125 1.4375-8.1795 0.23077-4.1866-9.5126 3-11 9.8172-2.0318 17.351 7.4544 18.031 16.281 1.2708 16.495-14.681 28.178-29.938 28.125-14.39-0.052-26.06-8.297-32.97-19.751v0.28125l-7.8125-12.719-7.875 52.312 59.812 0.5 14.07-12.34c10.56-7.48 17.81-19.08 17.22-33.062-0.58-13.58-10.99-27.22-25.57-27.407z" id="SVGCleanerId_0"/>
 </defs>
 <g transform="matrix(1 0 0 1 0 -956.36)">
  <rect x="3.353" rx="12.724" y="959.35" fill-opacity="0.02" height="89.98" width="89.62"/>
  <rect x="3.959" rx="12.552" y="959.96" fill-opacity="0.039" height="88.76" width="88.41"/>
  <rect x="4.564" rx="12.38" y="960.57" fill-opacity="0.078" height="87.55" width="87.2"/>
  <rect x="5.17" rx="12.208" y="961.18" fill-opacity="0.157" height="86.33" width="85.991"/>
  <g clip-path="url(#clipPath25608)" transform="matrix(1.1209 0 0 1.093 189.69 -103.63)">
   <rect x="-166.7" rx="6" y="-1055.4" fill="url(#linearGradient25602)" height="84" width="84" transform="matrix(1 0 0 -1 0 0)"/>
   <g clip-path="url(#clipPath4000)" transform="matrix(1 0 0 1 -202.7 965.43)">
    <path d="m61.812 6c-10.565 7.4797-17.814 19.08-17.219 33.062 0.61551 14.47 12.417 28.991 28.5 27.25 9.1883-0.99477 16.536-9.73 11.844-17.188-1.4905-2.369-5.1102-2.5732-6.8125-1.4375 8.1795-0.23077 4.1866 9.5126-3 11-9.8172 2.0318-17.351-7.4544-18.031-16.281-1.2708-16.495 14.681-28.178 29.938-28.125 14.389 0.05043 26.06 8.2959 32.969 19.75v-22.03c0-3.324-2.676-6-6-6h-52.188zm24.031 23.531c-0.47014-0.006-0.95892 0.0088-1.4375 0.03125-0.49402 0.02315-0.99741 0.07059-1.5 0.125-9.1883 0.99477-16.536 9.73-11.844 17.188 1.4905 2.369 5.1102 2.5732 6.8125 1.4375-8.1795 0.23077-4.1866-9.5126 3-11 9.8172-2.0318 17.351 7.4544 18.031 16.281 1.2708 16.495-14.681 28.178-29.938 28.125-14.387-0.051-26.058-8.296-32.967-19.75v22.031c0 3.324 2.676 6 6 6h52.188c10.562-7.48 17.812-19.08 17.222-33.062-0.58-13.58-10.99-27.22-25.566-27.407z" fill="url(#radialGradient25604)"/>
    <path d="m87.031 14.281c-14.887-0.05217-30.435 11.074-30 26.938 0.2294-15.328 15.429-25.989 30-25.938 14.389 0.05043 26.06 8.2959 32.969 19.75v-1c-6.909-11.454-18.58-19.7-32.969-19.75zm-3.4688 22.75c-0.87646-0.0019-1.7671 0.09076-2.6875 0.28125-4.6524 0.96289-7.9604 5.3756-7.5 8.3125 0.2901-2.8549 3.3492-6.4534 7.5-7.3125 9.8172-2.0318 17.351 7.4544 18.031 16.281 0.03081 0.39995 0.05168 0.79331 0.0625 1.1875 0.01079-0.72085-0.0054-1.4466-0.0625-2.1875-0.616-7.999-6.871-16.543-15.344-16.562zm-38.968 2.031c0.0053 0.33408-0.01433 0.66313 0 1 0.61551 14.47 12.417 28.991 28.5 27.25 7.4525-0.80684 13.692-6.6958 13.281-12.875-0.28988 5.7949-6.2402 11.113-13.281 11.875-16.083 1.7412-27.884-12.78-28.5-27.25zm25.031 3.532c-0.08184 1.7576 0.34734 3.5485 1.4375 5.2812 1.4905 2.369 5.1102 2.5732 6.8125 1.4375-1.0224 0.02885-1.8404-0.09651-2.5-0.34375-1.6071 0.0092-3.381-0.61311-4.3125-2.0938-0.87972-1.3983-1.3371-2.8526-1.4375-4.2812zm11 5.4375c-0.96424 0.0055-1.8616 0.23036-2.5 0.65625 2.8117-0.07933 4.2003 1.0251 4.5 2.5625 0.1032-1.4159-0.47597-2.6475-2-3.2188zm30.815 11.656c-0.4 12.752-7.39 23.329-17.252 30.312h-52.188c-3.324 0-6-2.676-6-6v1c0 3.324 2.676 6 6 6h52.188c10.12-7.1643 17.194-18.115 17.25-31.312z" fill="#fff" opacity="0.3"/>
    <path d="m31.812 5c-10.119 7.164-17.193 18.115-17.25 31.312 0.398-12.752 7.386-23.329 17.25-30.312h52.188c3.324 0 6 2.676 6 6v-1c0-3.324-2.676-6-6-6h-52.188zm24.031 23.531c-0.47014-0.006-0.95892 0.0088-1.4375 0.03125-0.49402 0.02315-0.99741 0.07059-1.5 0.125-7.4525 0.80684-13.692 6.6958-13.281 12.875 0.28988-5.7949 6.2402-11.113 13.281-11.875 0.50259-0.05441 1.006-0.10185 1.5-0.125 0.47858-0.02245 0.96736-0.03725 1.4375-0.03125 14.574 0.1864 24.985 13.826 25.562 27.406-0.0053-0.33408 0.01433-0.66313 0-1-0.576-13.579-10.987-27.219-25.561-27.406zm-28.812 11.688c-0.01079 0.72085 0.0054 1.4466 0.0625 2.1875 0.68003 8.8269 8.2141 18.313 18.031 16.281 4.6524-0.96289 7.9604-5.3756 7.5-8.3125-0.2901 2.8549-3.3492 6.4534-7.5 7.3125-9.8172 2.0318-17.351-7.4544-18.031-16.281-0.03081-0.39995-0.05168-0.79331-0.0625-1.1875zm16.344 4.531c-0.1032 1.4159 0.47597 2.6475 2 3.2188 0.96424-0.0055 1.8616-0.23036 2.5-0.65625-2.8117 0.07933-4.2003-1.0251-4.5-2.5625zm7.25 1.2812c-0.96424 0.0055-1.8616 0.23036-2.5 0.65625 1.0224-0.02885 1.8404 0.09651 2.5 0.34375 1.6071-0.0092 3.381 0.61311 4.3125 2.0938 0.87972 1.3983 1.3371 2.8526 1.4375 4.2812 0.08184-1.7576-0.34734-3.5485-1.4375-5.2812-0.93154-1.4806-2.7054-2.103-4.3125-2.0938zm18.344 8.75c-0.2294 15.328-15.429 25.989-30 25.938-14.389-0.051-26.06-8.296-32.969-19.75v1c6.909 11.454 18.58 19.7 32.969 19.75 14.887 0.05217 30.435-11.074 30-26.938z" fill="#ce5c00" transform="matrix(1 0 0 1 30 0)"/>
    <path d="m31.812 6c-10.119 7.164-17.193 18.115-17.25 31.312 0.398-12.752 7.386-23.329 17.25-30.312l2.0182-1zm24.031 23.531c-0.47014-0.006-0.95892 0.0088-1.4375 0.03125-0.49402 0.02315-0.99741 0.07059-1.5 0.125-7.4525 0.80684-13.692 6.6958-13.281 12.875 0.28988-5.7949 6.2402-11.113 13.281-11.875 0.50259-0.05441 1.006-0.10185 1.5-0.125 0.47858-0.02245 0.96736-0.03725 1.4375-0.03125 14.574 0.1864 24.985 13.826 25.562 27.406-0.0053-0.33408 0.01433-0.66313 0-1-0.576-13.579-10.987-27.219-25.561-27.406zm-28.812 11.688c-0.01079 0.72085 0.0054 1.4466 0.0625 2.1875 0.68003 8.8269 8.2141 18.313 18.031 16.281 4.6524-0.96289 7.9604-5.3756 7.5-8.3125-0.2901 2.8549-3.3492 6.4534-7.5 7.3125-9.8172 2.0318-17.351-7.4544-18.031-16.281-0.03081-0.39995-0.05168-0.79331-0.0625-1.1875zm16.344 4.531c-0.1032 1.4159 0.47597 2.6475 2 3.2188 0.96424-0.0055 1.8616-0.23036 2.5-0.65625-2.8117 0.07933-4.2003-1.0251-4.5-2.5625zm7.25 1.2812c-0.96424 0.0055-1.8616 0.23036-2.5 0.65625 1.0224-0.02885 1.8404 0.09651 2.5 0.34375 1.6071-0.0092 3.381 0.61311 4.3125 2.0938 0.87972 1.3983 1.3371 2.8526 1.4375 4.2812 0.08184-1.7576-0.34734-3.5485-1.4375-5.2812-0.93154-1.4806-2.7054-2.103-4.3125-2.0938zm18.344 8.75c-0.2294 15.328-15.429 25.989-30 25.938-14.389-0.051-26.06-8.296-32.969-19.75v1c6.909 11.454 18.58 19.7 32.969 19.75 14.887 0.05217 30.435-11.074 30-26.938z" opacity="0.3" transform="matrix(1 0 0 1 30 0)"/>
   </g>
   <g clip-path="url(#clipPath4101)" fill="none" stroke="#000" transform="matrix(1 0 0 1 -272.7 965.43)">
    <use stroke-width="4" xlink:href="#SVGCleanerId_0" opacity="0.1"/>
    <use stroke-width="6" xlink:href="#SVGCleanerId_0" opacity="0.05"/>
    <use stroke-width="2" xlink:href="#SVGCleanerId_0" opacity="0.2"/>
   </g>
   <rect x="15" stroke-width="0.5" rx="12" y="15" clip-path="url(#clipPath3613-90)" fill="url(#linearGradient25606)" stroke="#fff" height="66" filter="url(#filter3794-26)" opacity="0.1" stroke-linecap="round" width="66" transform="matrix(1 0 0 1 -172.7 965.43)"/>
  </g>
  <path d="m5.7756 1029.8v5.0663c0 6.668 5.3434 12.032 11.985 12.032h60.809c6.6418 0 11.985-5.3645 11.985-12.032v-5.0663c0 6.6681-5.3434 12.032-11.985 12.032h-60.809c-6.6418 0-11.985-5.3643-11.985-12.032z" fill-opacity="0.235"/>
  <path d="m5.7756 1033.9v1.0133c0 6.668 5.3434 12.032 11.985 12.032h60.809c6.6418 0 11.985-5.3645 11.985-12.032v-1.0133c0 6.6681-5.3434 12.032-11.985 12.032h-60.809c-6.6418 0-11.985-5.3644-11.985-12.032z" fill-opacity="0.098"/>
 </g>
</svg>
