<svg height="96" width="96" xmlns="http://www.w3.org/2000/svg" xmlns:xlink="http://www.w3.org/1999/xlink" xmlns:sodipodi="http://sodipodi.sourceforge.net/DTD/sodipodi-0.dtd" xmlns:inkscape="http://www.inkscape.org/namespaces/inkscape">
 <defs>
  <filter x="-0.192" y="-0.192" height="1.384" color-interpolation-filters="sRGB" id="filter3794-787" width="1.384">
   <feGaussianBlur stdDeviation="5.28"/>
  </filter>
  <radialGradient cy="88" r="42" gradientUnits="userSpaceOnUse" id="radialGradient29260" cx="88" gradientTransform="matrix(2.7128 -0.00731 0.00694 2.043 -142.7 -88.53)">
   <stop stop-color="#b0b0b0"/>
   <stop stop-color="#f5f5f5" offset="1"/>
  </radialGradient>
  <filter x="-0.933" y="-0.138" height="1.275" color-interpolation-filters="sRGB" id="filter3457" width="2.867">
   <feGaussianBlur stdDeviation="0.92808"/>
  </filter>
  <filter x="-1.035" y="-0.136" height="1.272" color-interpolation-filters="sRGB" id="filter3451" width="3.07">
   <feGaussianBlur stdDeviation="0.94982"/>
  </filter>
  <filter x="-0.61" y="-0.149" height="1.299" color-interpolation-filters="sRGB" id="filter3390" width="2.22">
   <feGaussianBlur stdDeviation="0.77813"/>
  </filter>
  <filter x="-0.432" y="-0.114" height="1.227" color-interpolation-filters="sRGB" id="filter3382" width="1.863">
   <feGaussianBlur stdDeviation="0.73915"/>
  </filter>
  <linearGradient id="linearGradient5452-5">
   <stop stop-color="#fff"/>
   <stop stop-color="#fff" stop-opacity="0" offset="1"/>
  </linearGradient>
  <linearGradient id="linearGradient3339">
   <stop/>
   <stop stop-opacity="0.498" offset="0.7"/>
   <stop stop-opacity="0" offset="1"/>
  </linearGradient>
  <filter x="-0.183" y="-0.177" height="1.353" color-interpolation-filters="sRGB" id="filter3509" width="1.367">
   <feGaussianBlur stdDeviation="0.65925"/>
  </filter>
  <filter x="-0.429" y="-0.167" height="1.333" color-interpolation-filters="sRGB" id="filter3495" width="1.857">
   <feGaussianBlur stdDeviation="0.55243"/>
  </filter>
  <filter color-interpolation-filters="sRGB" id="filter3963">
   <feGaussianBlur stdDeviation="0.91606"/>
  </filter>
  <linearGradient x2="0" y1="92.54" y2="7.02" gradientUnits="userSpaceOnUse" id="ButtonShadow-0-51" gradientTransform="matrix(1.0059 0 0 0.99417 100 0)">
   <stop/>
   <stop stop-opacity="0.588" offset="1"/>
  </linearGradient>
  <clipPath id="clipPath3613-274">
   <use xlink:href="#SVGCleanerId_1"/>
  </clipPath>
  <linearGradient id="linearGradient3664">
   <stop stop-opacity="0.651"/>
   <stop stop-opacity="0.233" offset="0.5"/>
   <stop stop-opacity="0" offset="1"/>
  </linearGradient>
  <linearGradient x1="61.3" x2="104.63" y1="121.33" y2="41.35" gradientUnits="userSpaceOnUse" id="linearGradient36691">
   <stop/>
   <stop stop-opacity="0" offset="1"/>
  </linearGradient>
  <linearGradient x1="136.41" x2="149.53" gradientUnits="userSpaceOnUse" id="linearGradient36695">
   <stop stop-color="#e6605b"/>
   <stop stop-color="#f08682" offset="1"/>
  </linearGradient>
  <linearGradient x1="137.41" x2="148.53" xlink:href="#linearGradient3339" gradientUnits="userSpaceOnUse" id="linearGradient36697" gradientTransform="matrix(1.0894 0 0 1 -13.276 0)"/>
  <linearGradient x1="136" x2="150" gradientUnits="userSpaceOnUse" id="linearGradient36699" gradientTransform="matrix(1 0 0 1 -23.733 0)">
   <stop/>
   <stop stop-color="#282828" offset="0.25"/>
   <stop stop-color="#3c3c3c" offset="0.3"/>
   <stop stop-color="#646464" offset="0.7"/>
   <stop stop-color="#787878" offset="0.75"/>
   <stop stop-color="#a0a0a0" offset="1"/>
  </linearGradient>
  <linearGradient x2="0" y1="0" y2="120.02" gradientUnits="userSpaceOnUse" id="linearGradient36701" gradientTransform="matrix(1 0 0 1 -23.733 0)">
   <stop/>
   <stop offset="0.066"/>
   <stop stop-color="#ad5f1b" offset="0.07"/>
   <stop stop-color="#ad601a" offset="0.191"/>
   <stop offset="0.21"/>
   <stop offset="1"/>
  </linearGradient>
  <linearGradient x1="141.25" x2="144.81" gradientUnits="userSpaceOnUse" id="linearGradient36703" gradientTransform="matrix(1 0 0 1 -23.733 0)">
   <stop/>
   <stop stop-color="#7d7d7d" offset="0.5"/>
   <stop offset="1"/>
  </linearGradient>
  <linearGradient x1="136.99" x2="149" gradientUnits="userSpaceOnUse" id="linearGradient36705" gradientTransform="matrix(1 0 0 1 -23.733 0)">
   <stop stop-color="#da8539"/>
   <stop stop-color="#fadfc7" offset="1"/>
  </linearGradient>
  <linearGradient x1="146.11" x2="146.08" xlink:href="#linearGradient5452-5" y1="118.94" y2="66" gradientUnits="userSpaceOnUse" id="linearGradient36707" gradientTransform="matrix(1 0 0 1.2654 -23.733 -54.36)"/>
  <linearGradient x1="146.11" x2="146.08" xlink:href="#linearGradient5452-5" y1="118.94" y2="66" gradientUnits="userSpaceOnUse" id="linearGradient36709" gradientTransform="matrix(1 0 0 1.2654 -29.858 -54.36)"/>
  <linearGradient x1="136" x2="150" gradientUnits="userSpaceOnUse" id="linearGradient36711">
   <stop stop-color="#404040"/>
   <stop stop-color="#808080" offset="0.2"/>
   <stop stop-color="#efefef" offset="0.7"/>
   <stop stop-color="#dcdcdc" offset="1"/>
  </linearGradient>
  <linearGradient x1="136" x2="150" gradientUnits="userSpaceOnUse" id="linearGradient36713">
   <stop stop-color="#444542"/>
   <stop stop-color="#71746e" offset="1"/>
  </linearGradient>
  <linearGradient x1="142.96" x2="148.96" xlink:href="#linearGradient3339" spreadMethod="reflect" gradientUnits="userSpaceOnUse" id="linearGradient36715" gradientTransform="matrix(1 0 0 1 0.042 1.549)"/>
  <linearGradient x1="142.96" x2="148.96" spreadMethod="reflect" gradientUnits="userSpaceOnUse" id="linearGradient36717" gradientTransform="matrix(1 0 0 1 0.042 2.549)">
   <stop stop-color="#fff"/>
   <stop stop-color="#fff" stop-opacity="0.498" offset="0.7"/>
   <stop stop-color="#fff" stop-opacity="0" offset="1"/>
  </linearGradient>
  <linearGradient x1="137" x2="139.03" spreadMethod="repeat" gradientUnits="userSpaceOnUse" id="linearGradient36731">
   <stop stop-color="#3d3d3d"/>
   <stop stop-color="#fff" offset="1"/>
  </linearGradient>
  <linearGradient x2="0" xlink:href="#ButtonShadow-0-51" y1="6.132" y2="90.24" gradientUnits="userSpaceOnUse" id="linearGradient36733" gradientTransform="matrix(1.0238 0 0 1.0119 -1.143 -98.07)"/>
  <linearGradient x2="0" xlink:href="#ButtonShadow-0-51" y1="6.132" y2="90.24" gradientUnits="userSpaceOnUse" id="linearGradient36741" gradientTransform="matrix(1 0 0 1 0 -97)"/>
  <linearGradient x1="12" x2="22" gradientUnits="userSpaceOnUse" id="linearGradient36777" gradientTransform="matrix(0 1 -1 0 100 66)">
   <stop stop-color="#6f6f6f"/>
   <stop stop-color="#9c9c9c" offset="1"/>
  </linearGradient>
  <linearGradient x1="12" x2="22" gradientUnits="userSpaceOnUse" id="linearGradient36792" gradientTransform="matrix(0 0.82864 -0.76347 0 94.5 1005.4)">
   <stop stop-color="#014382"/>
   <stop stop-color="#1d75c8" offset="1"/>
  </linearGradient>
  <linearGradient x2="0" y1="14" y2="7" gradientUnits="userSpaceOnUse" id="linearGradient36928" gradientTransform="matrix(1.4286 0 0 1.4286 7.714 54)">
   <stop stop-color="#ca884e"/>
   <stop stop-color="#e9b792" offset="1"/>
  </linearGradient>
  <linearGradient x2="0" y1="14" y2="7" gradientUnits="userSpaceOnUse" id="linearGradient36930" gradientTransform="matrix(1.4286 0 0 1.4286 7.714 54)">
   <stop stop-color="#128bff"/>
   <stop stop-color="#8dc5fa" offset="1"/>
  </linearGradient>
  <linearGradient x2="0" y1="14" y2="7" gradientUnits="userSpaceOnUse" id="linearGradient36932" gradientTransform="matrix(1.4286 0 0 1.4286 7.714 54)">
   <stop stop-color="#eade9d"/>
   <stop stop-color="#f9eec5" offset="1"/>
  </linearGradient>
  <linearGradient x2="0" y1="14" y2="7" gradientUnits="userSpaceOnUse" id="linearGradient36934" gradientTransform="matrix(1.4286 0 0 1.4286 7.714 54)">
   <stop stop-color="#bababa"/>
   <stop stop-color="#dfdfdf" offset="1"/>
  </linearGradient>
  <linearGradient x2="0" y1="14" y2="7" gradientUnits="userSpaceOnUse" id="linearGradient36936" gradientTransform="matrix(1.4286 0 0 1.4286 7.714 54)">
   <stop stop-color="#483452"/>
   <stop stop-color="#846598" offset="1"/>
  </linearGradient>
  <linearGradient x2="0" xlink:href="#linearGradient5452-5" y1="20.221" y2="138.66" gradientUnits="userSpaceOnUse" id="linearGradient36960"/>
  <linearGradient x2="0" xlink:href="#linearGradient5452-5" y1="6" y2="63.893" gradientUnits="userSpaceOnUse" id="linearGradient37004" gradientTransform="matrix(0.76347 0 0 0.82864 18.15 962.28)"/>
  <linearGradient x2="0" y1="76" y2="62" gradientUnits="userSpaceOnUse" id="linearGradient37009" gradientTransform="matrix(0.76347 0 0 0.82864 18.15 962.28)">
   <stop stop-color="#3a77d3"/>
   <stop stop-color="#6192dc" offset="1"/>
  </linearGradient>
  <linearGradient x2="0" xlink:href="#linearGradient3664" y1="90" y2="76" gradientUnits="userSpaceOnUse" id="linearGradient37012" gradientTransform="matrix(0.76347 0 0 0.82864 18.15 915.87)"/>
  <linearGradient x2="0" xlink:href="#linearGradient3664" y1="90" y2="76" gradientUnits="userSpaceOnUse" id="linearGradient37015" gradientTransform="matrix(0.76347 0 0 0.82864 18.15 927.47)"/>
  <linearGradient x2="0" xlink:href="#linearGradient3664" y1="90" y2="76" gradientUnits="userSpaceOnUse" id="linearGradient37018" gradientTransform="matrix(0.76347 0 0 0.82864 18.15 939.07)"/>
  <radialGradient cy="90.17" r="42" xlink:href="#linearGradient5452-5" gradientUnits="userSpaceOnUse" id="radialGradient37021" cx="48" gradientTransform="matrix(0.88357 0 0 0.82525 12.384 962.44)"/>
  <linearGradient x2="0" xlink:href="#linearGradient3664" y1="90" y2="76" gradientUnits="userSpaceOnUse" id="linearGradient37024" gradientTransform="matrix(0.76347 0 0 0.82864 18.15 950.67)"/>
  <linearGradient x2="0" xlink:href="#linearGradient3664" y1="90" y2="76" gradientUnits="userSpaceOnUse" id="linearGradient37030" gradientTransform="matrix(0.76347 0 0 0.82864 18.15 904.27)"/>
  <linearGradient x2="0" y1="90" y2="5.988" gradientUnits="userSpaceOnUse" id="linearGradient37038" gradientTransform="matrix(0.76347 0 0 0.9978 18.15 961.26)">
   <stop stop-color="#e1e1e1"/>
   <stop stop-color="#f5f5f5" offset="1"/>
  </linearGradient>
  <rect x="22.729" y="1013.7" color="#000000" height="11.601" id="SVGCleanerId_0" width="64.13"/>
  <rect x="6" rx="6" y="6" height="84" id="SVGCleanerId_1" width="84"/>
  <rect x="11.5" rx="2" y="64" height="11" id="SVGCleanerId_2" opacity="0.3" width="11"/>
  <rect x="12" rx="1.429" y="64" height="10" id="SVGCleanerId_3" width="10"/>
  <path d="m13.438 64c-0.792 0-1.438 0.646-1.438 1.438v1c0-0.792 0.646-1.438 1.438-1.438h7.125c0.791 0 1.437 0.646 1.437 1.438v-1c0-0.792-0.646-1.438-1.438-1.438h-7.125z" fill="#fff" id="SVGCleanerId_4" opacity="0.3"/>
  <path d="m13.438 74c-0.792 0-1.438-0.646-1.438-1.438v-1c0 0.792 0.646 1.438 1.438 1.438h7.125c0.791 0 1.437-0.646 1.437-1.438v1c0 0.792-0.646 1.438-1.438 1.438h-7.125z" id="SVGCleanerId_5" opacity="0.15"/>
  <path d="m22 82.31c0-0.19677-0.16324-0.35611-0.36337-0.35611h-0.70494c-0.09374-0.35184-0.23534-0.68803-0.41424-0.99564l0.50145-0.50145c0.07076-0.07076 0.10824-0.15552 0.10901-0.24709 0.000782-0.09157-0.03217-0.18479-0.10174-0.25436l-0.9811-0.9811c-0.13914-0.13914-0.35993-0.13425-0.50145 0.0073l-0.50145 0.50145c-0.3076-0.1789-0.64379-0.3205-0.99564-0.41424v-0.70494c-0.000001-0.20014-0.15933-0.36337-0.3561-0.36337h-1.3808c-0.19677 0-0.3561 0.16324-0.3561 0.36337v0.70494c-0.35185 0.09375-0.68804 0.23535-0.99564 0.41424l-0.50145-0.50145c-0.14152-0.14152-0.36231-0.14641-0.50145-0.0073l-0.9811 0.9811c-0.13914 0.13914-0.13425 0.35993 0.0073 0.50145l0.50142 0.50145c-0.1789 0.3076-0.3205 0.64379-0.41424 0.99564h-0.70494c-0.20014 0-0.36337 0.15933-0.36337 0.35611v1.3808c0 0.19677 0.16324 0.3561 0.36337 0.3561h0.70494c0.09375 0.35185 0.23534 0.68803 0.41424 0.99564l-0.50145 0.50145c-0.14152 0.14152-0.14641 0.36231-0.0073 0.50145l0.9811 0.9811c0.13914 0.13914 0.35993 0.13425 0.50145-0.0073l0.50145-0.50145c0.3076 0.1789 0.64379 0.3205 0.99564 0.41424v0.70494c0 0.20014 0.15933 0.36337 0.3561 0.36337h1.3808c0.19677 0 0.3561-0.16323 0.3561-0.36337v-0.70494c0.35185-0.09374 0.68804-0.23534 0.99564-0.41424l0.50145 0.50145c0.14152 0.14152 0.36231 0.14641 0.50145 0.0073l0.9811-0.9811c0.13914-0.13914 0.13425-0.35993-0.0073-0.50145l-0.50145-0.50145c0.1789-0.3076 0.3205-0.64379 0.41424-0.99564h0.70494c0.20014 0 0.36337-0.15933 0.36337-0.3561v-1.3808zm-3.4884 0.6904c0 0.83442-0.67721 1.5116-1.5116 1.5116-0.83442 0-1.5116-0.67721-1.5116-1.5116 0-0.83441 0.67721-1.5116 1.5116-1.5116 0.83442 0 1.5116 0.67721 1.5116 1.5116z" display="block" fill="url(#linearGradient36777)" id="SVGCleanerId_6"/>
  <path d="m16.312 78c-0.19677 0-0.34375 0.17486-0.34375 0.375v0.6875c-0.35185 0.09375-0.6924 0.22735-1 0.40625l-0.5-0.5c-0.14152-0.14152-0.36086-0.13911-0.5 0l-1 1c-0.13914 0.13914-0.14155 0.35848 0 0.5l0.25 0.25 0.75-0.75c0.13914-0.13911 0.35848-0.14152 0.5 0l0.5 0.5c0.3076-0.1789 0.64815-0.3125 1-0.40625v-0.6875c0-0.20014 0.14698-0.375 0.34375-0.375h1.375c0.19677 0 0.34375 0.17486 0.34375 0.375v0.6875c0.35185 0.09375 0.6924 0.22735 1 0.40625l0.5-0.5c0.14152-0.14155 0.36086-0.13914 0.5 0l0.75 0.75 0.25-0.25c0.07076-0.07076 0.09297-0.15843 0.09375-0.25 0.000782-0.09157-0.02418-0.18043-0.09375-0.25l-1-1c-0.13914-0.13914-0.35848-0.14155-0.5 0l-0.5 0.5c-0.3076-0.1789-0.64815-0.3125-1-0.40625v-0.6875c0-0.199-0.147-0.374-0.343-0.374h-1.375zm-3.1562 3.6562c-0.03486 0.09883-0.06664 0.21074-0.09375 0.3125h-0.6875c-0.20014 0-0.375 0.14698-0.375 0.34375v1c0-0.19677 0.17486-0.34375 0.375-0.34375h0.6875c0.09375-0.35184 0.22735-0.6924 0.40625-1l-0.3125-0.3125zm7.6875 0-0.3125 0.3125c0.1789 0.3076 0.31251 0.64816 0.40625 1h0.6875c0.20014 0 0.375 0.14698 0.375 0.34375v-1c0-0.19677-0.17486-0.34375-0.375-0.34375h-0.6875c-0.02711-0.10176-0.05889-0.21367-0.09375-0.3125zm-5.282 1.844c-0.053 0.155-0.062 0.327-0.062 0.5 0 0.83442 0.66558 1.5 1.5 1.5s1.5-0.66558 1.5-1.5c0-0.17302-0.0089-0.34514-0.0625-0.5-0.20489 0.592-0.7761 1-1.4375 1s-1.2326-0.408-1.4375-1zm-2.4062 1.8438-0.1875 0.1875c-0.14152 0.14152-0.13911 0.36086 0 0.5l0.25 0.25 0.25-0.25c-0.12716-0.21863-0.22682-0.44462-0.3125-0.6875zm7.6875 0c-0.08568 0.24287-0.18534 0.46887-0.3125 0.6875l0.25 0.25 0.25-0.25c0.13914-0.13914 0.14155-0.35848 0-0.5l-0.1875-0.1875z" display="block" id="SVGCleanerId_7" opacity="0.5"/>
  <path d="m13.219 80.719-0.25 0.25c-0.13914 0.13914-0.14155 0.35848 0 0.5l0.1875 0.1875c0.08568-0.24288 0.18534-0.46887 0.3125-0.6875l-0.25-0.25zm7.5625 0-0.25 0.25c0.12716 0.21863 0.22682 0.44462 0.3125 0.6875l0.1875-0.1875c0.07076-0.07076 0.09297-0.15843 0.09375-0.25 0.000782-0.09157-0.02418-0.18043-0.09375-0.25l-0.25-0.25zm-3.782 0.781c-0.83442 0-1.5 0.66559-1.5 1.5 0 0.17302 0.0089 0.34514 0.0625 0.5 0.20489-0.592 0.7761-1 1.4375-1s1.2326 0.408 1.4375 1c0.053-0.155 0.062-0.327 0.062-0.5 0-0.834-0.666-1.5-1.5-1.5zm-5 2.1875v1c0 0.19677 0.17486 0.34375 0.375 0.34375h0.6875c0.02712 0.10176 0.05889 0.21367 0.09375 0.3125l0.3125-0.3125c-0.1789-0.3076-0.3125-0.64815-0.40625-1h-0.6875c-0.199-0.001-0.374-0.148-0.374-0.344zm10 0c0 0.19677-0.17486 0.34375-0.375 0.34375h-0.6875c-0.09374 0.35184-0.22735 0.6924-0.40625 1l0.3125 0.3125c0.03486-0.09883 0.06664-0.21074 0.09375-0.3125h0.6875c0.20014 0 0.375-0.14698 0.375-0.34375v-1zm-8.7812 2.5938-0.25 0.25c-0.14152 0.14152-0.13911 0.36086 0 0.5l1 1c0.13914 0.13914 0.35848 0.14155 0.5 0l0.5-0.5c0.3076 0.1789 0.64815 0.3125 1 0.40625v0.6875c0 0.20014 0.14698 0.375 0.34375 0.375h1.375c0.19677 0 0.34375-0.17486 0.34375-0.375v-0.6875c0.35185-0.09374 0.6924-0.22735 1-0.40625l0.5 0.5c0.14152 0.14152 0.36086 0.13911 0.5 0l1-1c0.13914-0.13914 0.14155-0.35848 0-0.5l-0.25-0.25-0.75 0.75c-0.13914 0.13911-0.35848 0.14152-0.5 0l-0.5-0.5c-0.3076 0.1789-0.64815 0.31251-1 0.40625v0.6875c0 0.20014-0.14698 0.375-0.34375 0.375h-1.375c-0.19677 0-0.34375-0.17486-0.34375-0.375v-0.6875c-0.35185-0.09375-0.6924-0.22735-1-0.40625l-0.5 0.5c-0.14152 0.14155-0.36086 0.13914-0.5 0l-0.75-0.75z" display="block" fill="#fff" id="SVGCleanerId_8"/>
  <path d="m118.38 11.031c-0.52336-0.06895-1.0579-0.0102-1.5625 0.125-1.0064 0.26967-1.8855 0.91897-2.4375 1.875l-2.0625 3.5625a1.0492 1.0492 0 0 0 -0.84375 0.53125l-9.5 16.469-36 62.344a1.0492 1.0492 0 0 0 -0.09375 0.25l-6.386 24.032a1.0492 1.0492 0 0 0 1.75 1.03l17.625-17.53a1.0492 1.0492 0 0 0 0.156 -0.22l36-62.344 9.5-16.469a1.0492 1.0492 0 0 0 0.0625 -0.90625l2.0938-3.625c1.1113-1.9248 0.4576-4.4191-1.4688-5.5312l-5.3125-3.0625c-0.47927-0.2767-1.0079-0.4623-1.5312-0.53125z" fill="url(#linearGradient36691)" filter="url(#filter3963)" id="SVGCleanerId_9"/>
 </defs>
 <g transform="matrix(1 0 0 1 0 -956.36)">
  <rect x="3.353" rx="12.724" y="959.35" fill-opacity="0.02" height="89.98" width="89.62"/>
  <rect x="3.959" rx="12.552" y="959.96" fill-opacity="0.039" height="88.76" width="88.41"/>
  <rect x="4.564" rx="12.38" y="960.57" fill-opacity="0.078" height="87.55" width="87.2"/>
  <rect x="5.17" rx="12.208" y="961.18" fill-opacity="0.157" height="86.33" width="85.991"/>
  <path d="m17.75 5.4062c-6.642 0-11.969 5.3948-11.969 12.063l0.0002 61.031c0 6.668 5.3268 12.031 11.969 12.031h60.812c6.642 0 11.969-5.363 11.969-12.031v-61.031c0-6.668-5.327-12.063-11.969-12.063l-60.812 0.0002z" fill="url(#radialGradient29260)" transform="matrix(1 0 0 1 0 956.36)"/>
  <path d="m5.7756 1033.9v1.0133c0 6.668 5.3434 12.032 11.985 12.032h60.809c6.6418 0 11.985-5.3645 11.985-12.032v-1.0133c0 6.6681-5.3434 12.032-11.985 12.032h-60.809c-6.6418 0-11.985-5.3644-11.985-12.032z" fill-opacity="0.098"/>
  <path d="m12-95.031c-5.5111 0-10.031 4.5202-10.031 10.031v71c0 5.5111 4.5202 10.031 10.031 10.031h72c5.5111 0 10.031-4.5202 10.031-10.031v-71c0-5.5111-4.5202-10.031-10.031-10.031h-72z" fill="url(#linearGradient36733)" opacity="0.08" transform="matrix(0.76347 0 0 -0.82864 18.15 962.28)"/>
  <path d="m12-94.031c-4.9716 0-9.0312 4.0596-9.0312 9.0312v71c0 4.9716 4.0596 9.0312 9.0312 9.0312h72c4.9716 0 9.0312-4.0596 9.0312-9.0312v-71c0-4.9716-4.0596-9.0312-9.0312-9.0312h-72z" fill="url(#linearGradient36733)" opacity="0.1" transform="matrix(0.76347 0 0 -0.82864 18.15 962.28)"/>
  <path d="m12-93c-4.4091 0-8 3.5909-8 8v71c0 4.4091 3.5909 8 8 8h72c4.4091 0 8-3.5909 8-8v-71c0-4.4091-3.5909-8-8-8h-72z" fill="url(#linearGradient36733)" opacity="0.2" transform="matrix(0.76347 0 0 -0.82864 18.15 962.28)"/>
  <rect x="5" rx="7" y="-92" fill="url(#linearGradient36733)" height="85" opacity="0.3" width="86" transform="matrix(0.76347 0 0 -0.82864 18.15 962.28)"/>
  <rect x="6" rx="6" y="-91" fill="url(#linearGradient36741)" height="84" opacity="0.45" width="84" transform="matrix(0.76347 0 0 -0.82864 18.15 962.28)"/>
  <path d="m27.312 967.24c-2.5378 0-4.5938 2.6864-4.5938 6.003v71.851c0 0.3511 0.04978 0.6868 0.09375 1.0211h55.75c3.2474 0 6.1627-1.2725 8.3125-3.3419v-69.53c0-3.3167-2.056-6.003-4.5938-6.003h-54.969z" fill="url(#linearGradient37038)"/>
  <path d="m27.31 967.25c-2.5378 0-4.5808 2.2174-4.5808 4.9719v6.6292h64.131v-6.6292c0-2.7544-2.043-4.9719-4.5808-4.9719h-54.97z" fill="url(#linearGradient37030)" color="#000000" opacity="0.1"/>
  <use xlink:href="#SVGCleanerId_0" fill="url(#linearGradient37024)" opacity="0.1"/>
  <path d="m27.31 1036.9c-2.5378 0-4.5808-2.2175-4.5808-4.9719v-1.6573-56.348-1.6573c0-0.27736 0.03157-0.53919 0.07157-0.80275 0.03718-0.24494 0.07409-0.49463 0.14315-0.72506 0.0075-0.0252 0.01595-0.0527 0.02386-0.0777 0.07548-0.23846 0.17932-0.45365 0.2863-0.67328 0.11039-0.22664 0.24096-0.44383 0.38173-0.64738 0.14077-0.20354 0.28537-0.39234 0.45331-0.56969 0.33588-0.35471 0.71988-0.67495 1.1452-0.90633 0.21266-0.11569 0.43783-0.20463 0.66803-0.28485-0.1956 0.0831-0.37159 0.19579-0.54874 0.31075-0.0057 0.004-0.01822-0.004-0.02386 0-0.02438 0.016-0.04756 0.0352-0.07158 0.0518-0.09192 0.0635-0.17638 0.13549-0.26244 0.20716-0.08106 0.067-0.16283 0.1335-0.23858 0.20716-0.13584 0.13377-0.26527 0.2862-0.38173 0.44022-0.08213 0.10793-0.16674 0.21982-0.23858 0.33663-0.01915 0.0318-0.02935 0.0712-0.04772 0.10358-0.04944 0.0854-0.09942 0.16947-0.14315 0.25895-0.07712 0.16135-0.15703 0.34447-0.21472 0.51791-0.0061 0.0181-0.01801 0.0336-0.02386 0.0518-0.0243 0.0762-0.02734 0.15481-0.04772 0.23305-0.02316 0.0883-0.05374 0.16824-0.07157 0.25896-0.05564 0.28299-0.09543 0.57856-0.09543 0.88043v1.6573 56.348 1.6573c0 2.3051 1.6935 4.1432 3.8173 4.1432h1.5269 51.916 1.5269c2.1238 0 3.8173-1.8381 3.8173-4.1432v-1.6573-56.348-1.6573c0-0.30187-0.03979-0.59744-0.09543-0.88043-0.03371-0.17145-0.06748-0.32952-0.11929-0.49201-0.0059-0.0182-0.01779-0.0337-0.02386-0.0518-0.0479-0.14397-0.10565-0.30449-0.16701-0.44022-0.03175-0.0686-0.06034-0.14083-0.09543-0.20716-0.04169-0.0806-0.09679-0.15608-0.14315-0.23306-0.07185-0.11681-0.15645-0.2287-0.23858-0.33663-0.10931-0.14456-0.23144-0.28754-0.35787-0.41433-0.0085-0.008-0.01525-0.0175-0.02386-0.0259-0.10565-0.10404-0.21766-0.19427-0.33402-0.28485-0.07831-0.0606-0.15599-0.12708-0.23858-0.18126-0.0057-0.004-0.0182 0.004-0.02386 0-0.17715-0.11496-0.35314-0.2277-0.54874-0.31075 0.23021 0.0802 0.45537 0.16916 0.66803 0.28485 0.42532 0.23138 0.80931 0.55162 1.1452 0.90633 0.16794 0.17735 0.31254 0.36615 0.45331 0.56969 0.14077 0.20355 0.27134 0.42074 0.38173 0.64738 0.10698 0.21963 0.21082 0.43482 0.2863 0.67328 0.0079 0.0255 0.01628 0.052 0.02386 0.0777 0.06906 0.23043 0.10597 0.48012 0.14315 0.72506 0.04001 0.26356 0.07157 0.52539 0.07157 0.80275v1.6573 56.348 1.6573c0 2.7544-2.043 4.9719-4.5808 4.9719h-54.97z" fill="url(#radialGradient37021)" opacity="0.3"/>
  <rect x="22.729" y="1002.1" fill="url(#linearGradient37018)" color="#000000" height="11.601" opacity="0.1" width="64.13"/>
  <rect x="22.729" y="990.45" fill="url(#linearGradient37015)" color="#000000" height="11.601" opacity="0.1" width="64.13"/>
  <rect x="22.729" y="978.85" fill="url(#linearGradient37012)" color="#000000" height="11.601" opacity="0.1" width="64.13"/>
  <use xlink:href="#SVGCleanerId_0" fill="url(#linearGradient37009)"/>
  <rect x="22.729" y="1024.4" fill="#025" color="#000000" height="0.829" opacity="0.2" width="64.13"/>
  <rect x="22.729" y="1013.7" fill="#fff" color="#000000" height="0.829" opacity="0.2" width="64.13"/>
  <path d="m27.31 967.25c-2.5378 0-4.5808 2.2174-4.5808 4.9719v1.6573 56.348 1.6573c0 0.2774 0.03157 0.5392 0.07157 0.8028 0.03718 0.2449 0.07409 0.4946 0.14315 0.725 0.0075 0.025 0.01595 0.053 0.02386 0.078 0.07548 0.2385 0.17932 0.4537 0.2863 0.6733 0.11039 0.2266 0.24096 0.4438 0.38173 0.6474 0.14077 0.2035 0.28537 0.3923 0.45331 0.5697 0.33588 0.3547 0.71988 0.6749 1.1452 0.9063 0.21266 0.1157 0.43783 0.2046 0.66803 0.2848-0.1956-0.083-0.37159-0.1957-0.54874-0.3107h-0.02386c-0.02438-0.016-0.04756-0.035-0.07158-0.052-0.09192-0.063-0.17638-0.1355-0.26244-0.2072-0.08106-0.067-0.16283-0.1335-0.23858-0.2071-0.13584-0.1338-0.26527-0.2862-0.38173-0.4402-0.08213-0.108-0.16674-0.2199-0.23858-0.3367-0.01915-0.032-0.02935-0.071-0.04772-0.1035-0.04944-0.085-0.09942-0.1695-0.14315-0.259-0.07712-0.1613-0.15703-0.3445-0.21472-0.5179-0.0061-0.018-0.01801-0.034-0.02386-0.052-0.0243-0.076-0.02734-0.1548-0.04772-0.233-0.02316-0.088-0.05374-0.1683-0.07157-0.259-0.05564-0.283-0.09543-0.5786-0.09543-0.8804v-1.6573-56.348-1.6573c0-2.3052 1.6935-4.1432 3.8173-4.1432h1.5269 51.916 1.5269c2.1238 0 3.8173 1.8381 3.8173 4.1432v1.6573 56.348 1.6573c0 0.3018-0.03979 0.5974-0.09543 0.8804-0.03371 0.1714-0.06748 0.3295-0.11929 0.492-0.0059 0.018-0.01779 0.034-0.02386 0.052-0.0479 0.144-0.10565 0.3045-0.16701 0.4402-0.03175 0.069-0.06034 0.1408-0.09543 0.2072-0.04169 0.081-0.09679 0.1561-0.14315 0.233-0.07185 0.1168-0.15645 0.2287-0.23858 0.3367-0.10931 0.1445-0.23144 0.2875-0.35787 0.4143-0.0085 0.01-0.01525 0.017-0.02386 0.026-0.10565 0.104-0.21766 0.1943-0.33402 0.2848-0.07831 0.061-0.15599 0.1271-0.23858 0.1813h-0.02386c-0.17715 0.115-0.35314 0.2277-0.54874 0.3107 0.23021-0.08 0.45537-0.1691 0.66803-0.2848 0.42532-0.2314 0.80931-0.5516 1.1452-0.9063 0.16794-0.1774 0.31254-0.3662 0.45331-0.5697 0.14077-0.2036 0.27134-0.4208 0.38173-0.6474 0.10698-0.2196 0.21082-0.4348 0.2863-0.6733 0.0079-0.025 0.01628-0.052 0.02386-0.078 0.06906-0.2304 0.10597-0.4801 0.14315-0.725 0.04001-0.2636 0.07157-0.5254 0.07157-0.8028v-1.6573-56.348-1.6573c0-2.7544-2.043-4.9719-4.5808-4.9719h-54.97z" fill="url(#linearGradient37004)" opacity="0.8"/>
  <rect x="15" stroke-width="0.5" rx="12" y="15" clip-path="url(#clipPath3613-274)" fill="url(#linearGradient36960)" stroke="#fff" height="66" filter="url(#filter3794-787)" opacity="0.1" stroke-linecap="round" width="66" transform="matrix(0.76347 0 0 0.82864 18.15 962.28)"/>
  <g transform="matrix(0.76347 0 0 0.82864 1.825 962.28)">
   <use xlink:href="#SVGCleanerId_2"/>
   <use xlink:href="#SVGCleanerId_3" fill="url(#linearGradient36934)"/>
   <use xlink:href="#SVGCleanerId_4"/>
   <use xlink:href="#SVGCleanerId_5"/>
  </g>
  <g transform="matrix(0.76347 0 0 0.82864 1.825 973.05)">
   <use xlink:href="#SVGCleanerId_2"/>
   <use xlink:href="#SVGCleanerId_3" fill="url(#linearGradient36936)"/>
   <use xlink:href="#SVGCleanerId_4"/>
   <use xlink:href="#SVGCleanerId_5"/>
  </g>
  <g transform="matrix(0.76347 0 0 0.82864 1.825 950.67)">
   <use xlink:href="#SVGCleanerId_2"/>
   <use xlink:href="#SVGCleanerId_3" fill="url(#linearGradient36934)"/>
   <use xlink:href="#SVGCleanerId_4"/>
   <use xlink:href="#SVGCleanerId_5"/>
  </g>
  <g transform="matrix(0.76347 0 0 0.82864 1.825 939.07)">
   <use xlink:href="#SVGCleanerId_2"/>
   <use xlink:href="#SVGCleanerId_3" fill="url(#linearGradient36932)"/>
   <use xlink:href="#SVGCleanerId_4"/>
   <use xlink:href="#SVGCleanerId_5"/>
  </g>
  <g transform="matrix(0.76347 0 0 0.82864 1.825 927.47)">
   <use xlink:href="#SVGCleanerId_2"/>
   <use xlink:href="#SVGCleanerId_3" fill="url(#linearGradient36930)"/>
   <use xlink:href="#SVGCleanerId_4"/>
   <use xlink:href="#SVGCleanerId_5"/>
  </g>
  <g transform="matrix(0.76347 0 0 0.82864 1.825 915.87)">
   <use xlink:href="#SVGCleanerId_2"/>
   <use xlink:href="#SVGCleanerId_3" fill="url(#linearGradient36928)"/>
   <use xlink:href="#SVGCleanerId_4"/>
   <use xlink:href="#SVGCleanerId_5"/>
  </g>
  <g fill="#666" transform="matrix(0.76347 0 0 0.82864 18.15 962.28)">
   <path d="m28.532 15.902h-0.72656v-5.7109h2.9648v0.64062h-2.2383v2.0156h2.0898v0.64062h-2.0898v2.4141"/>
   <path d="m32.356 15.902h-0.71094v-4.2891h0.71094v4.2891m-0.765-5.449c0-0.15624 0.03906-0.26953 0.11719-0.33984 0.08073-0.07031 0.17969-0.10546 0.29688-0.10547 0.05729 0.000005 0.11068 0.0091 0.16016 0.02734 0.05208 0.01563 0.09635 0.04167 0.13281 0.07813 0.03906 0.03646 0.06901 0.08334 0.08984 0.14062 0.02344 0.05469 0.03515 0.1211 0.03516 0.19922-0.000002 0.15105-0.04167 0.26433-0.125 0.33984-0.08073 0.07292-0.17839 0.10938-0.29297 0.10938-0.11719 0.000005-0.21615-0.03645-0.29688-0.10938-0.07813-0.07291-0.11719-0.18619-0.11719-0.33984"/>
   <path d="m34.435 15.902h-0.71094v-6.0781h0.71094v6.0781"/>
   <path d="m37.497 15.98c-0.28646 0-0.54818-0.04818-0.78516-0.14453-0.23698-0.09636-0.44141-0.23698-0.61328-0.42188-0.16927-0.1849-0.30078-0.41406-0.39453-0.6875s-0.14063-0.58594-0.14062-0.9375c-0.000001-0.35416 0.04297-0.67057 0.12891-0.94922 0.08594-0.27864 0.20703-0.51432 0.36328-0.70703 0.15625-0.19531 0.34245-0.34375 0.55859-0.44531 0.21875-0.10156 0.45963-0.15234 0.72266-0.15234 0.25781 0.000005 0.48958 0.04688 0.69531 0.14062 0.20573 0.09115 0.3802 0.22136 0.52344 0.39062 0.14323 0.16667 0.2526 0.36849 0.32812 0.60547 0.07812 0.23438 0.11718 0.49479 0.11719 0.78125v0.44141h-2.7031c0.01302 0.50261 0.11849 0.8724 0.31641 1.1094 0.20052 0.23698 0.49739 0.35547 0.89062 0.35547 0.13281 0.000001 0.25521-0.0065 0.36719-0.01953 0.11458-0.01302 0.22396-0.03125 0.32812-0.05469 0.10677-0.02604 0.20963-0.05729 0.30859-0.09375 0.09895-0.03906 0.19922-0.08203 0.30078-0.12891v0.63281c-0.10417 0.04948-0.20703 0.09245-0.30859 0.12891-0.09896 0.03646-0.20183 0.06641-0.30859 0.08984-0.10417 0.02344-0.21354 0.04036-0.32812 0.05078-0.11198 0.01042-0.23438 0.01563-0.36719 0.01563m-0.177-3.855c-0.29688 0.000004-0.53255 0.10157-0.70703 0.30469-0.17188 0.20313-0.27214 0.4987-0.30078 0.88672h1.9219c-0.000004-0.17708-0.01823-0.33854-0.05469-0.48438-0.03386-0.14843-0.08855-0.27474-0.16406-0.37891-0.07292-0.10416-0.16667-0.18489-0.28125-0.24219-0.11459-0.05729-0.25261-0.08593-0.41406-0.08594"/>
   <path d="m44.618 15.902-1.7305-5h-0.03125c0.01562 0.19271 0.02864 0.38412 0.03906 0.57422 0.01042 0.16407 0.01823 0.33724 0.02344 0.51953 0.0078 0.17969 0.01172 0.34375 0.01172 0.49219v3.4141h-0.67188v-5.7109h1.0781l1.6094 4.6562h0.02344l1.6172-4.6562h1.0781v5.7109h-0.72656v-3.4648c-0.000006-0.13541 0.0026-0.29036 0.0078-0.46484s0.01171-0.34114 0.01953-0.5c0.01041-0.18489 0.01953-0.37239 0.02734-0.5625h-0.03125l-1.7461 4.9922h-0.59766"/>
   <path d="m51.548 15.902-0.14453-0.59375h-0.03125c-0.08594 0.11719-0.17188 0.21875-0.25781 0.30469-0.08594 0.08333-0.17969 0.15234-0.28125 0.20703s-0.21485 0.09505-0.33984 0.12109c-0.125 0.02604-0.26953 0.03906-0.43359 0.03906-0.17969 0-0.34505-0.02604-0.49609-0.07813-0.15104-0.04948-0.28255-0.1263-0.39453-0.23047-0.10938-0.10677-0.19531-0.23958-0.25781-0.39844-0.0625-0.16146-0.09375-0.35156-0.09375-0.57031-0.000001-0.42708 0.14974-0.75521 0.44922-0.98438 0.30208-0.22916 0.76042-0.35416 1.375-0.375l0.71875-0.02734v-0.26953c-0.000003-0.17448-0.01953-0.32031-0.05859-0.4375-0.03646-0.11718-0.09115-0.21093-0.16406-0.28125-0.07032-0.07291-0.15886-0.125-0.26562-0.15625-0.10417-0.03125-0.22396-0.04687-0.35938-0.04687-0.21615 0.000004-0.41797 0.03125-0.60547 0.09375-0.1849 0.0625-0.36328 0.13802-0.53516 0.22656l-0.25-0.53516c0.19271-0.10416 0.40755-0.1927 0.64453-0.26562 0.23698-0.07291 0.48568-0.10937 0.74609-0.10938 0.26562 0.000005 0.49479 0.02735 0.6875 0.08203 0.19531 0.05209 0.35547 0.13672 0.48047 0.25391 0.1276 0.11459 0.22265 0.26172 0.28516 0.44141 0.0625 0.17969 0.09375 0.39714 0.09375 0.65234v2.9375h-0.51172m-1.306-0.496c0.15885 0 0.30599-0.02474 0.44141-0.07422s0.2526-0.1237 0.35156-0.22266c0.09896-0.10156 0.17578-0.22786 0.23047-0.37891 0.05729-0.15364 0.08593-0.33333 0.08594-0.53906v-0.38672l-0.55859 0.02734c-0.23438 0.01042-0.43099 0.03646-0.58984 0.07813-0.15886 0.04167-0.28646 0.10026-0.38281 0.17578-0.09375 0.07292-0.16146 0.16276-0.20312 0.26953-0.04167 0.10417-0.0625 0.22266-0.0625 0.35547-0.000001 0.23958 0.0625 0.41536 0.1875 0.52734 0.1276 0.11198 0.29427 0.16797 0.5 0.16797"/>
   <path d="m56.06 15.902v-2.7617c-0.000003-0.33854-0.06901-0.59244-0.20703-0.76172-0.13542-0.16927-0.34896-0.2539-0.64062-0.25391-0.21094 0.000004-0.38802 0.03386-0.53125 0.10156-0.14323 0.06771-0.25912 0.16797-0.34766 0.30078-0.08594 0.13282-0.14844 0.29558-0.1875 0.48828-0.03646 0.19271-0.05469 0.41406-0.05469 0.66406v2.2227h-0.71094v-4.2891h0.57812l0.10156 0.57812h0.03906c0.0651-0.11198 0.14192-0.20833 0.23047-0.28906 0.09114-0.08333 0.1901-0.15234 0.29688-0.20703 0.10677-0.05468 0.22005-0.09505 0.33984-0.12109s0.24218-0.03906 0.36719-0.03906c0.47656 0.000005 0.83463 0.125 1.0742 0.375 0.24218 0.2474 0.36328 0.64454 0.36328 1.1914v2.8008h-0.71094"/>
   <path d="m60.517 15.902-0.14453-0.59375h-0.03125c-0.08594 0.11719-0.17188 0.21875-0.25781 0.30469-0.08594 0.08333-0.17969 0.15234-0.28125 0.20703s-0.21485 0.09505-0.33984 0.12109c-0.125 0.02604-0.26953 0.03906-0.43359 0.03906-0.17969 0-0.34505-0.02604-0.49609-0.07813-0.15104-0.04948-0.28255-0.1263-0.39453-0.23047-0.10938-0.10677-0.19531-0.23958-0.25781-0.39844-0.0625-0.16146-0.09375-0.35156-0.09375-0.57031-0.000001-0.42708 0.14974-0.75521 0.44922-0.98438 0.30208-0.22916 0.76042-0.35416 1.375-0.375l0.71875-0.02734v-0.26953c-0.000003-0.17448-0.01953-0.32031-0.05859-0.4375-0.03646-0.11718-0.09115-0.21093-0.16406-0.28125-0.07032-0.07291-0.15886-0.125-0.26562-0.15625-0.10417-0.03125-0.22396-0.04687-0.35938-0.04687-0.21615 0.000004-0.41797 0.03125-0.60547 0.09375-0.1849 0.0625-0.36328 0.13802-0.53516 0.22656l-0.25-0.53516c0.19271-0.10416 0.40755-0.1927 0.64453-0.26562 0.23698-0.07291 0.48568-0.10937 0.74609-0.10938 0.26562 0.000005 0.49479 0.02735 0.6875 0.08203 0.19531 0.05209 0.35547 0.13672 0.48047 0.25391 0.1276 0.11459 0.22265 0.26172 0.28516 0.44141 0.0625 0.17969 0.09375 0.39714 0.09375 0.65234v2.9375h-0.51172m-1.306-0.496c0.15885 0 0.30599-0.02474 0.44141-0.07422s0.2526-0.1237 0.35156-0.22266c0.09896-0.10156 0.17578-0.22786 0.23047-0.37891 0.05729-0.15364 0.08593-0.33333 0.08594-0.53906v-0.38672l-0.55859 0.02734c-0.23438 0.01042-0.43099 0.03646-0.58984 0.07813-0.15886 0.04167-0.28646 0.10026-0.38281 0.17578-0.09375 0.07292-0.16146 0.16276-0.20312 0.26953-0.04167 0.10417-0.0625 0.22266-0.0625 0.35547-0.000001 0.23958 0.0625 0.41536 0.1875 0.52734 0.1276 0.11198 0.29427 0.16797 0.5 0.16797"/>
   <path d="m65.653 11.613v0.44141l-0.76953 0.10547c0.07291 0.09115 0.13411 0.20834 0.18359 0.35156 0.04948 0.14063 0.07421 0.30078 0.07422 0.48047-0.000004 0.19792-0.03125 0.38151-0.09375 0.55078-0.0599 0.16667-0.15235 0.3112-0.27734 0.43359-0.1224 0.1224-0.27474 0.21875-0.45703 0.28906-0.1823 0.06771-0.39453 0.10156-0.63672 0.10156-0.05729 0.000001-0.11458 0.000001-0.17188 0-0.05729-0.0026-0.10417-0.0078-0.14062-0.01563-0.04427 0.02604-0.08854 0.05599-0.13281 0.08984-0.04167 0.03125-0.08073 0.06771-0.11719 0.10938-0.03386 0.04167-0.0625 0.08854-0.08594 0.14062-0.02083 0.05208-0.03125 0.10938-0.03125 0.17188-0.000001 0.07031 0.01562 0.1276 0.04687 0.17188 0.03125 0.04167 0.07292 0.07422 0.125 0.09766 0.05469 0.02344 0.11849 0.03906 0.19141 0.04687 0.07291 0.0078 0.14974 0.01172 0.23047 0.01172h0.6875c0.24218 0.000001 0.44661 0.03125 0.61328 0.09375 0.16666 0.0599 0.30208 0.14193 0.40625 0.24609 0.10677 0.10417 0.18359 0.22786 0.23047 0.37109 0.04687 0.14062 0.07031 0.29036 0.07031 0.44922-0.000004 0.22917-0.04297 0.4349-0.12891 0.61719-0.08334 0.18229-0.21224 0.33594-0.38672 0.46094-0.17448 0.1276-0.39584 0.22526-0.66406 0.29297-0.26563 0.06771-0.57943 0.10156-0.94141 0.10156-0.27865-0.000002-0.52214-0.02735-0.73047-0.08203-0.208-0.054-0.381-0.133-0.519-0.237s-0.243-0.231-0.313-0.379c-0.068-0.146-0.102-0.311-0.102-0.496-0.000001-0.15625 0.02474-0.29427 0.07422-0.41406 0.05208-0.11719 0.12109-0.21875 0.20703-0.30469s0.1849-0.15625 0.29688-0.21094c0.11458-0.05469 0.23307-0.09635 0.35547-0.125-0.10938-0.04948-0.19922-0.1276-0.26953-0.23438-0.07031-0.10677-0.10547-0.22917-0.10547-0.36719 0-0.15885 0.04167-0.29557 0.125-0.41016 0.08333-0.11719 0.21484-0.23047 0.39453-0.33984-0.11198-0.04687-0.21484-0.11068-0.30859-0.19141-0.09115-0.08333-0.16927-0.17708-0.23438-0.28125-0.0625-0.10677-0.11198-0.22265-0.14844-0.34766-0.03385-0.125-0.05078-0.2539-0.05078-0.38672 0-0.23177 0.03255-0.4388 0.09766-0.62109 0.0651-0.18229 0.16146-0.33724 0.28906-0.46484s0.28646-0.22526 0.47656-0.29297c0.1901-0.0677 0.41146-0.10156 0.66406-0.10156 0.09635 0.000005 0.19531 0.0078 0.29688 0.02344 0.10416 0.01303 0.1914 0.03125 0.26172 0.05469h1.418m-3.168 4.9922c-0.000001 0.09635 0.01693 0.1862 0.05078 0.26953s0.08854 0.15495 0.16406 0.21484c0.07812 0.05989 0.17969 0.10677 0.30469 0.14062 0.1276 0.03646 0.28515 0.05469 0.47266 0.05469 0.48437-0.000001 0.84635-0.07552 1.0859-0.22656 0.24218-0.14844 0.36328-0.36328 0.36328-0.64453-0.000003-0.11979-0.01563-0.21745-0.04687-0.29297-0.03125-0.07552-0.08334-0.13542-0.15625-0.17969-0.07032-0.04167-0.16407-0.07031-0.28125-0.08594-0.11719-0.01563-0.26042-0.02344-0.42969-0.02344h-0.6875c-0.09115 0-0.1862 0.01042-0.28516 0.03125s-0.1901 0.0599-0.27344 0.11719c-0.08073 0.05729-0.14844 0.13542-0.20312 0.23438-0.05208 0.10156-0.07813 0.23177-0.07813 0.39062m0.35938-3.6133c-0.000002 0.29948 0.07031 0.52214 0.21094 0.66797 0.14062 0.14584 0.33984 0.21875 0.59766 0.21875 0.26042 0.000002 0.45703-0.07161 0.58984-0.21484 0.13541-0.14583 0.20312-0.3737 0.20312-0.68359-0.000003-0.32031-0.06901-0.55599-0.20703-0.70703-0.13542-0.15104-0.33334-0.22656-0.59375-0.22656-0.25781 0.000004-0.45573 0.07813-0.59375 0.23438s-0.20703 0.39323-0.20703 0.71094"/>
   <path d="m68.185 15.98c-0.28646 0-0.54818-0.04818-0.78516-0.14453-0.23698-0.09636-0.44141-0.23698-0.61328-0.42188-0.16927-0.1849-0.30078-0.41406-0.39453-0.6875s-0.14063-0.58594-0.14062-0.9375c-0.000001-0.35416 0.04297-0.67057 0.12891-0.94922 0.08594-0.27864 0.20703-0.51432 0.36328-0.70703 0.15625-0.19531 0.34245-0.34375 0.55859-0.44531 0.21875-0.10156 0.45963-0.15234 0.72266-0.15234 0.25781 0.000005 0.48958 0.04688 0.69531 0.14062 0.20573 0.09115 0.3802 0.22136 0.52344 0.39062 0.14323 0.16667 0.2526 0.36849 0.32812 0.60547 0.07812 0.23438 0.11718 0.49479 0.11719 0.78125v0.44141h-2.7031c0.01302 0.50261 0.11849 0.8724 0.31641 1.1094 0.20052 0.23698 0.49739 0.35547 0.89062 0.35547 0.13281 0.000001 0.25521-0.0065 0.36719-0.01953 0.11458-0.01302 0.22396-0.03125 0.32812-0.05469 0.10677-0.02604 0.20963-0.05729 0.30859-0.09375 0.09896-0.03906 0.19922-0.08203 0.30078-0.12891v0.63281c-0.10417 0.04948-0.20703 0.09245-0.30859 0.12891-0.09896 0.03646-0.20183 0.06641-0.30859 0.08984-0.10417 0.02344-0.21354 0.04036-0.32812 0.05078-0.11198 0.01042-0.23438 0.01563-0.36719 0.01563m-0.177-3.855c-0.29688 0.000004-0.53255 0.10157-0.70703 0.30469-0.17188 0.20313-0.27214 0.4987-0.30078 0.88672h1.9219c-0.000004-0.17708-0.01823-0.33854-0.05469-0.48438-0.03386-0.14843-0.08854-0.27474-0.16406-0.37891-0.07292-0.10416-0.16667-0.18489-0.28125-0.24219-0.11459-0.05729-0.25261-0.08593-0.41406-0.08594"/>
   <path d="m72.626 11.535c0.07552 0.000005 0.16015 0.0039 0.25391 0.01172 0.09375 0.0052 0.17448 0.01433 0.24219 0.02734l-0.09375 0.65625c-0.07292-0.01302-0.14844-0.02343-0.22656-0.03125-0.07552-0.01041-0.14714-0.01562-0.21484-0.01563-0.16406 0.000003-0.3138 0.03386-0.44922 0.10156-0.13542 0.06511-0.25261 0.16016-0.35156 0.28516-0.09636 0.1224-0.17188 0.27084-0.22656 0.44531-0.05208 0.17188-0.07813 0.36328-0.07813 0.57422v2.3125h-0.71094v-4.2891h0.57812l0.08594 0.78516h0.03125c0.0651-0.11198 0.13411-0.22005 0.20703-0.32422 0.07552-0.10416 0.15885-0.19531 0.25-0.27344 0.09375-0.08073 0.19791-0.14453 0.3125-0.19141 0.11458-0.04947 0.24479-0.07421 0.39062-0.07422"/>
  </g>
  <g fill="#666" transform="matrix(0.76347 0 0 0.82864 18.15 962.28)">
   <path d="m27.806 24.191h1.5586c0.33333 0.000006 0.6263 0.02605 0.87891 0.07813 0.2552 0.04949 0.46744 0.13152 0.63672 0.24609 0.17187 0.11198 0.30078 0.26042 0.38672 0.44531 0.08593 0.1823 0.1289 0.40756 0.12891 0.67578-0.000005 0.16146-0.02605 0.3125-0.07813 0.45312-0.04948 0.14063-0.1224 0.26433-0.21875 0.37109-0.09636 0.10678-0.21615 0.19662-0.35938 0.26953-0.14063 0.07032-0.30078 0.11719-0.48047 0.14062v0.03906c0.17968 0.03125 0.34765 0.07683 0.50391 0.13672 0.15885 0.05729 0.29687 0.13802 0.41406 0.24219 0.11718 0.10157 0.20963 0.23047 0.27734 0.38672 0.0677 0.15625 0.10156 0.34636 0.10156 0.57031-0.000004 0.26042-0.04297 0.49349-0.12891 0.69922-0.08334 0.20313-0.20573 0.3763-0.36719 0.51953-0.15886 0.14062-0.35287 0.2487-0.58203 0.32422-0.22917 0.07552-0.48828 0.11328-0.77734 0.11328h-1.8945v-5.7109m0.72656 2.4219h0.95312c0.21875 0.000004 0.40234-0.01953 0.55078-0.05859 0.14843-0.03906 0.26823-0.09635 0.35938-0.17188 0.09114-0.07812 0.15625-0.17448 0.19531-0.28906 0.04166-0.11718 0.0625-0.2526 0.0625-0.40625-0.000003-0.3125-0.10026-0.53645-0.30078-0.67188-0.20052-0.13541-0.51693-0.20312-0.94922-0.20312h-0.87109v1.8008m0 0.60938v2.0625h1.0391c0.22916 0.000001 0.42057-0.02604 0.57422-0.07813 0.15625-0.05208 0.28125-0.125 0.375-0.21875 0.09635-0.09375 0.16536-0.20573 0.20703-0.33594 0.04166-0.13281 0.0625-0.27864 0.0625-0.4375-0.000004-0.14583-0.02214-0.27995-0.06641-0.40234-0.04167-0.12239-0.11198-0.22656-0.21094-0.3125-0.09636-0.08854-0.22526-0.15625-0.38672-0.20312-0.16146-0.04948-0.36198-0.07422-0.60156-0.07422h-0.99219"/>
   <path d="m34.532 25.535c0.07552 0.000005 0.16015 0.0039 0.25391 0.01172 0.09375 0.0052 0.17448 0.01433 0.24219 0.02734l-0.09375 0.65625c-0.07292-0.01302-0.14844-0.02343-0.22656-0.03125-0.07552-0.01041-0.14714-0.01562-0.21484-0.01563-0.16406 0.000003-0.3138 0.03386-0.44922 0.10156-0.13542 0.06511-0.25261 0.16016-0.35156 0.28516-0.09636 0.1224-0.17188 0.27084-0.22656 0.44531-0.05208 0.17188-0.07813 0.36328-0.07813 0.57422v2.3125h-0.71094v-4.2891h0.57812l0.08594 0.78516h0.03125c0.0651-0.11198 0.13411-0.22005 0.20703-0.32422 0.07552-0.10416 0.15885-0.19531 0.25-0.27344 0.09375-0.08073 0.19791-0.14453 0.3125-0.19141 0.11458-0.04948 0.24479-0.07421 0.39062-0.07422"/>
   <path d="m39.36 27.75c-0.000005 0.35677-0.04427 0.67448-0.13281 0.95312-0.08594 0.27604-0.21094 0.50912-0.375 0.69922-0.16146 0.1875-0.35808 0.33073-0.58984 0.42969-0.23177 0.09896-0.49219 0.14844-0.78125 0.14844-0.26823 0-0.51563-0.04948-0.74219-0.14844s-0.42318-0.24219-0.58984-0.42969c-0.16406-0.1901-0.29297-0.42318-0.38672-0.69922-0.09115-0.27864-0.13672-0.59635-0.13672-0.95312-0.000001-0.35416 0.04297-0.66797 0.12891-0.94141 0.08854-0.27604 0.21354-0.50781 0.375-0.69531 0.16146-0.1901 0.35807-0.33333 0.58984-0.42969 0.23437-0.09895 0.49609-0.14843 0.78516-0.14844 0.26823 0.000005 0.51562 0.04948 0.74219 0.14844 0.22656 0.09636 0.42187 0.23959 0.58594 0.42969 0.16666 0.1875 0.29557 0.41927 0.38672 0.69531 0.09374 0.27344 0.14062 0.58724 0.14062 0.94141m-3 0c-0.000002 0.54427 0.08854 0.95443 0.26562 1.2305 0.17968 0.27344 0.47005 0.41016 0.87109 0.41016 0.40104 0.000001 0.6888-0.13672 0.86328-0.41016 0.17708-0.27604 0.26562-0.6862 0.26562-1.2305-0.000004-0.54427-0.08985-0.95052-0.26953-1.2188-0.17709-0.27083-0.46615-0.40625-0.86719-0.40625-0.40104 0.000004-0.69011 0.13542-0.86719 0.40625-0.17448 0.26823-0.26172 0.67448-0.26172 1.2188"/>
   <path d="m43.747 29.902-0.65625-2.4062c-0.01042-0.04687-0.02344-0.09896-0.03906-0.15625-0.01563-0.05989-0.03125-0.12239-0.04687-0.1875-0.01563-0.0651-0.03256-0.13151-0.05078-0.19922-0.01563-0.06771-0.03125-0.13411-0.04687-0.19922-0.03646-0.15104-0.07422-0.30729-0.11328-0.46875h-0.02344c-0.03646 0.16407-0.07162 0.32162-0.10547 0.47266-0.02865 0.13021-0.0599 0.26433-0.09375 0.40234-0.03125 0.13802-0.0612 0.25521-0.08984 0.35156l-0.67188 2.3906h-0.82422l-1.0977-4.2891h0.74609l0.51172 2.2812c0.02604 0.11719 0.05208 0.24479 0.07813 0.38281 0.02604 0.13542 0.05078 0.27083 0.07422 0.40625 0.02344 0.13281 0.04427 0.25912 0.0625 0.37891 0.01823 0.11719 0.03255 0.21354 0.04297 0.28906h0.02344c0.01302-0.06771 0.02995-0.15755 0.05078-0.26953 0.02344-0.11458 0.04818-0.23437 0.07422-0.35938 0.02864-0.1276 0.05729-0.2526 0.08594-0.375 0.02864-0.125 0.05599-0.23047 0.08203-0.31641l0.69922-2.418h0.76562l0.67188 2.418c0.02343 0.08854 0.04948 0.19271 0.07813 0.3125 0.03125 0.11979 0.06119 0.24219 0.08984 0.36719 0.02864 0.1224 0.05468 0.24089 0.07813 0.35547 0.02343 0.11458 0.04036 0.20964 0.05078 0.28516h0.02344c0.0078-0.06771 0.01953-0.15755 0.03516-0.26953 0.01823-0.11458 0.03906-0.23958 0.0625-0.375 0.02343-0.13542 0.04817-0.27344 0.07422-0.41406 0.02864-0.14323 0.05729-0.27604 0.08594-0.39844l0.53516-2.2812h0.72656l-1.1094 4.2891h-0.83984"/>
   <path d="m49.024 28.727c-0.000003 0.20834-0.03776 0.39063-0.11328 0.54688s-0.1849 0.28776-0.32812 0.39453c-0.14063 0.10417-0.3112 0.18229-0.51172 0.23438-0.20052 0.05208-0.42578 0.07813-0.67578 0.07813-0.28386 0-0.52734-0.02344-0.73047-0.07031-0.20313-0.04427-0.38151-0.11068-0.53516-0.19922v-0.64844c0.08073 0.04167 0.17057 0.08333 0.26953 0.125 0.09896 0.03906 0.20312 0.07422 0.3125 0.10547 0.10937 0.03125 0.22135 0.05729 0.33594 0.07813 0.11719 0.01823 0.23307 0.02734 0.34766 0.02734 0.16927 0.000001 0.3125-0.01432 0.42969-0.04297 0.11979-0.02865 0.21614-0.06901 0.28906-0.12109 0.07552-0.05469 0.13021-0.11979 0.16406-0.19531 0.03385-0.07812 0.05078-0.16406 0.05078-0.25781-0.000003-0.08073-0.01302-0.15364-0.03906-0.21875-0.02604-0.0651-0.07422-0.1289-0.14453-0.19141-0.06771-0.0651-0.16146-0.13021-0.28125-0.19531s-0.27344-0.13802-0.46094-0.21875-0.35677-0.16015-0.50781-0.23828c-0.14844-0.07812-0.27474-0.16536-0.37891-0.26172-0.10417-0.09635-0.1849-0.20703-0.24219-0.33203-0.05469-0.1276-0.08203-0.27864-0.08203-0.45312-0.000001-0.18229 0.03516-0.34375 0.10547-0.48438 0.07292-0.14322 0.17448-0.26302 0.30469-0.35938 0.13021-0.09635 0.28646-0.16927 0.46875-0.21875s0.38542-0.07421 0.60938-0.07422c0.2526 0.000005 0.48307 0.02735 0.69141 0.08203 0.21094 0.05469 0.41015 0.12631 0.59766 0.21484l-0.245 0.574c-0.17-0.075-0.344-0.14-0.524-0.195-0.177-0.057-0.358-0.086-0.543-0.086-0.26563 0.000004-0.46224 0.04427-0.58984 0.13281-0.12761 0.08594-0.19141 0.20964-0.19141 0.37109-0.000002 0.09115 0.01432 0.17058 0.04297 0.23828 0.03125 0.06771 0.08333 0.13151 0.15625 0.19141s0.17057 0.1211 0.29297 0.18359c0.12239 0.0599 0.27474 0.12761 0.45703 0.20312 0.1875 0.07813 0.35416 0.15625 0.5 0.23438 0.14844 0.07813 0.27474 0.16667 0.37891 0.26562 0.10416 0.09636 0.18359 0.20703 0.23828 0.33203 0.05468 0.125 0.08203 0.27474 0.08203 0.44922"/>
   <path d="m51.763 29.98c-0.28646 0-0.54818-0.04818-0.78516-0.14453s-0.44141-0.23698-0.61328-0.42188c-0.16927-0.1849-0.30078-0.41406-0.39453-0.6875s-0.14063-0.58594-0.14062-0.9375c-0.000001-0.35416 0.04297-0.67057 0.12891-0.94922 0.08594-0.27864 0.20703-0.51432 0.36328-0.70703 0.15625-0.19531 0.34245-0.34374 0.55859-0.44531 0.21875-0.10156 0.45963-0.15234 0.72266-0.15234 0.25781 0.000005 0.48958 0.04688 0.69531 0.14062 0.20573 0.09115 0.3802 0.22136 0.52344 0.39062 0.14323 0.16667 0.2526 0.36849 0.32812 0.60547 0.07812 0.23438 0.11718 0.49479 0.11719 0.78125v0.44141h-2.7031c0.01302 0.50261 0.11849 0.8724 0.31641 1.1094 0.20052 0.23698 0.49739 0.35547 0.89062 0.35547 0.13281 0.000001 0.25521-0.0065 0.36719-0.01953 0.11458-0.01302 0.22396-0.03125 0.32812-0.05469 0.10677-0.02604 0.20963-0.05729 0.30859-0.09375 0.09895-0.03906 0.19922-0.08203 0.30078-0.12891v0.63281c-0.10417 0.04948-0.20703 0.09245-0.30859 0.12891-0.09896 0.03646-0.20183 0.06641-0.30859 0.08984-0.10417 0.02344-0.21354 0.04036-0.32812 0.05078-0.11198 0.01042-0.23438 0.01563-0.36719 0.01563m-0.177-3.855c-0.29688 0.000004-0.53255 0.10157-0.70703 0.30469-0.17188 0.20313-0.27214 0.4987-0.30078 0.88672h1.9219c-0.000004-0.17708-0.01823-0.33854-0.05469-0.48438-0.03386-0.14843-0.08855-0.27474-0.16406-0.37891-0.07292-0.10416-0.16667-0.18489-0.28125-0.24219-0.11459-0.05729-0.25261-0.08593-0.41406-0.08594"/>
   <path d="m56.204 25.535c0.07552 0.000005 0.16015 0.0039 0.25391 0.01172 0.09375 0.0052 0.17448 0.01433 0.24219 0.02734l-0.09375 0.65625c-0.07292-0.01302-0.14844-0.02343-0.22656-0.03125-0.07552-0.01041-0.14714-0.01562-0.21484-0.01563-0.16406 0.000003-0.3138 0.03386-0.44922 0.10156-0.13542 0.06511-0.25261 0.16016-0.35156 0.28516-0.09636 0.1224-0.17188 0.27084-0.22656 0.44531-0.05208 0.17188-0.07813 0.36328-0.07813 0.57422v2.3125h-0.71094v-4.2891h0.57812l0.08594 0.78516h0.03125c0.0651-0.11198 0.13411-0.22005 0.20703-0.32422 0.07552-0.10416 0.15885-0.19531 0.25-0.27344 0.09375-0.08073 0.19791-0.14453 0.3125-0.19141 0.11458-0.04948 0.24479-0.07421 0.39062-0.07422"/>
  </g>
  <g fill="#666" transform="matrix(0.76347 0 0 0.82864 18.15 962.28)">
   <path d="m30.165 43.902-1.7305-5h-0.03125c0.01562 0.19271 0.02865 0.38412 0.03906 0.57422 0.01042 0.16407 0.01823 0.33724 0.02344 0.51953 0.0078 0.17969 0.01172 0.34375 0.01172 0.49219v3.4141h-0.67188v-5.7109h1.0781l1.6094 4.6562h0.02344l1.6172-4.6562h1.0781v5.7109h-0.72656v-3.4648c-0.000006-0.13541 0.0026-0.29036 0.0078-0.46484s0.01171-0.34114 0.01953-0.5c0.01041-0.18489 0.01953-0.37239 0.02734-0.5625h-0.03125l-1.7461 4.9922h-0.59766"/>
   <path d="m37.095 43.902-0.14453-0.59375h-0.03125c-0.08594 0.11719-0.17188 0.21875-0.25781 0.30469-0.08594 0.08333-0.17969 0.15234-0.28125 0.20703s-0.21485 0.09505-0.33984 0.12109c-0.125 0.02604-0.26953 0.03906-0.43359 0.03906-0.17969 0-0.34505-0.02604-0.49609-0.07813-0.15104-0.04948-0.28255-0.1263-0.39453-0.23047-0.10938-0.10677-0.19531-0.23958-0.25781-0.39844-0.0625-0.16146-0.09375-0.35156-0.09375-0.57031-0.000001-0.42708 0.14974-0.75521 0.44922-0.98438 0.30208-0.22916 0.76042-0.35416 1.375-0.375l0.71875-0.02734v-0.26953c-0.000003-0.17448-0.01953-0.32031-0.05859-0.4375-0.03646-0.11718-0.09115-0.21093-0.16406-0.28125-0.07032-0.07291-0.15886-0.125-0.26562-0.15625-0.10417-0.03125-0.22396-0.04687-0.35938-0.04687-0.21615 0.000004-0.41797 0.03125-0.60547 0.09375-0.1849 0.0625-0.36328 0.13802-0.53516 0.22656l-0.25-0.53516c0.19271-0.10416 0.40755-0.1927 0.64453-0.26562 0.23698-0.07291 0.48568-0.10937 0.74609-0.10938 0.26562 0.000005 0.49479 0.02735 0.6875 0.08203 0.19531 0.05209 0.35547 0.13672 0.48047 0.25391 0.1276 0.11459 0.22265 0.26172 0.28516 0.44141 0.0625 0.17969 0.09375 0.39714 0.09375 0.65234v2.9375h-0.51172m-1.306-0.496c0.15885 0 0.30599-0.02474 0.44141-0.07422s0.2526-0.1237 0.35156-0.22266c0.09896-0.10156 0.17578-0.22786 0.23047-0.37891 0.05729-0.15364 0.08593-0.33333 0.08594-0.53906v-0.38672l-0.55859 0.02734c-0.23438 0.01042-0.43099 0.03646-0.58984 0.07813-0.15886 0.04167-0.28646 0.10026-0.38281 0.17578-0.09375 0.07292-0.16146 0.16276-0.20312 0.26953-0.04167 0.10417-0.0625 0.22266-0.0625 0.35547-0.000001 0.23958 0.0625 0.41537 0.1875 0.52734 0.1276 0.11198 0.29427 0.16797 0.5 0.16797"/>
   <path d="m39.638 43.902h-0.71094v-4.2891h0.71094v4.2891m-0.766-5.449c0-0.15624 0.03906-0.26953 0.11719-0.33984 0.08073-0.07031 0.17969-0.10546 0.29688-0.10547 0.05729 0.000006 0.11068 0.0091 0.16016 0.02734 0.05208 0.01563 0.09635 0.04167 0.13281 0.07813 0.03906 0.03646 0.06901 0.08334 0.08984 0.14062 0.02344 0.05469 0.03515 0.1211 0.03516 0.19922-0.000002 0.15105-0.04167 0.26433-0.125 0.33984-0.08073 0.07292-0.17839 0.10938-0.29297 0.10938-0.11719 0.000005-0.21615-0.03645-0.29688-0.10938-0.07813-0.07291-0.11719-0.18619-0.11719-0.33984"/>
   <path d="m41.716 43.902h-0.71094v-6.0781h0.71094v6.0781"/>
   <path d="m46.802 43.98c-0.26302 0-0.50912-0.04037-0.73828-0.12109-0.22917-0.08333-0.42839-0.21354-0.59766-0.39062-0.16927-0.17969-0.30208-0.40755-0.39844-0.68359-0.09636-0.27864-0.14453-0.61328-0.14453-1.0039-0.000001-0.40885 0.04948-0.7552 0.14844-1.0391 0.09896-0.28645 0.23437-0.51822 0.40625-0.69531 0.17448-0.17968 0.3776-0.30989 0.60938-0.39062 0.23177-0.08073 0.48047-0.12109 0.74609-0.12109 0.20312 0.000005 0.40104 0.02214 0.59375 0.06641 0.19531 0.04428 0.35807 0.09896 0.48828 0.16406l-0.21094 0.60156c-0.0599-0.02604-0.12631-0.05078-0.19922-0.07422-0.07292-0.02604-0.14844-0.04817-0.22656-0.06641-0.07813-0.02083-0.15495-0.03645-0.23047-0.04687-0.07552-0.01302-0.14714-0.01953-0.21484-0.01953-0.40886 0.000004-0.70703 0.13151-0.89453 0.39453-0.1875 0.26042-0.28125 0.66667-0.28125 1.2188-0.000002 0.54948 0.09375 0.95182 0.28125 1.207 0.1901 0.2526 0.47786 0.37891 0.86328 0.37891 0.21094 0.000001 0.40104-0.02344 0.57031-0.07031 0.17187-0.04948 0.32812-0.10677 0.46875-0.17188v0.63281c-0.14063 0.07552-0.29167 0.13281-0.45312 0.17188-0.15886 0.03906-0.35417 0.05859-0.58594 0.05859"/>
   <path d="m49.575 43.902h-0.71094v-6.0781h0.71094v6.0781"/>
   <path d="m51.653 43.902h-0.71094v-4.2891h0.71094v4.2891m-0.76562-5.4492c0-0.15624 0.03906-0.26953 0.11719-0.33984 0.08073-0.07031 0.17969-0.10546 0.29688-0.10547 0.05729 0.000006 0.11068 0.0091 0.16016 0.02734 0.05208 0.01563 0.09635 0.04167 0.13281 0.07813 0.03906 0.03646 0.06901 0.08334 0.08984 0.14062 0.02344 0.05469 0.03515 0.1211 0.03516 0.19922-0.000002 0.15105-0.04167 0.26433-0.125 0.33984-0.08073 0.07292-0.17839 0.10938-0.29297 0.10938-0.11719 0.000005-0.21615-0.03645-0.29688-0.10938-0.07813-0.07291-0.11719-0.18619-0.11719-0.33984"/>
   <path d="m54.716 43.98c-0.28646 0-0.54818-0.04818-0.78516-0.14453s-0.44141-0.23698-0.61328-0.42188c-0.16927-0.1849-0.30078-0.41406-0.39453-0.6875s-0.14063-0.58594-0.14062-0.9375c-0.000001-0.35416 0.04297-0.67057 0.12891-0.94922 0.08594-0.27864 0.20703-0.51432 0.36328-0.70703 0.15625-0.19531 0.34245-0.34374 0.55859-0.44531 0.21875-0.10156 0.45963-0.15234 0.72266-0.15234 0.25781 0.000005 0.48958 0.04688 0.69531 0.14062 0.20573 0.09115 0.3802 0.22136 0.52344 0.39062 0.14323 0.16667 0.2526 0.36849 0.32812 0.60547 0.07812 0.23438 0.11718 0.49479 0.11719 0.78125v0.44141h-2.7031c0.01302 0.50261 0.11849 0.8724 0.31641 1.1094 0.20052 0.23698 0.49739 0.35547 0.89062 0.35547 0.13281 0.000001 0.25521-0.0065 0.36719-0.01953 0.11458-0.01302 0.22396-0.03125 0.32812-0.05469 0.10677-0.02604 0.20963-0.05729 0.30859-0.09375 0.09895-0.03906 0.19922-0.08203 0.30078-0.12891v0.63281c-0.10417 0.04948-0.20703 0.09245-0.30859 0.12891-0.09896 0.03646-0.20183 0.06641-0.30859 0.08984-0.10417 0.02344-0.21354 0.04037-0.32812 0.05078-0.11198 0.01042-0.23438 0.01563-0.36719 0.01563m-0.176-3.855c-0.29688 0.000004-0.53255 0.10157-0.70703 0.30469-0.17188 0.20313-0.27214 0.4987-0.30078 0.88672h1.9219c-0.000004-0.17708-0.01823-0.33854-0.05469-0.48438-0.03386-0.14843-0.08855-0.27474-0.16406-0.37891-0.07292-0.10416-0.16667-0.18489-0.28125-0.24219-0.11459-0.05729-0.25261-0.08593-0.41406-0.08594"/>
   <path d="m59.981 43.902v-2.7617c-0.000003-0.33854-0.06901-0.59244-0.20703-0.76172-0.13542-0.16927-0.34896-0.2539-0.64062-0.25391-0.21094 0.000004-0.38802 0.03386-0.53125 0.10156-0.14323 0.06771-0.25912 0.16797-0.34766 0.30078-0.08594 0.13282-0.14844 0.29558-0.1875 0.48828-0.03646 0.19271-0.05469 0.41406-0.05469 0.66406v2.2227h-0.71094v-4.2891h0.57812l0.10156 0.57812h0.03906c0.0651-0.11198 0.14192-0.20833 0.23047-0.28906 0.09114-0.08333 0.1901-0.15234 0.29688-0.20703 0.10677-0.05468 0.22005-0.09505 0.33984-0.12109s0.24218-0.03906 0.36719-0.03906c0.47656 0.000005 0.83463 0.125 1.0742 0.375 0.24218 0.2474 0.36328 0.64454 0.36328 1.1914v2.8008h-0.71094"/>
   <path d="m63.317 43.398c0.04687 0.000001 0.09896-0.0026 0.15625-0.0078 0.05989-0.0052 0.11718-0.01172 0.17188-0.01953 0.05468-0.0078 0.10416-0.01693 0.14844-0.02734 0.04687-0.01042 0.08203-0.01953 0.10547-0.02734v0.53906c-0.03386 0.01563-0.07682 0.03125-0.12891 0.04687-0.05209 0.01563-0.10938 0.02865-0.17188 0.03906-0.0625 0.01302-0.12761 0.02214-0.19531 0.02734-0.06771 0.0078-0.13412 0.01172-0.19922 0.01172-0.16146 0-0.3112-0.02083-0.44922-0.0625s-0.25781-0.11328-0.35938-0.21484c-0.09896-0.10156-0.17708-0.23828-0.23438-0.41016-0.05729-0.17448-0.08594-0.39323-0.08594-0.65625v-2.4883h-0.60547v-0.31641l0.60547-0.30469 0.30469-0.89844h0.41016v0.98438h1.0781v0.53516h-1.0781v2.4883c-0.000001 0.2526 0.04036 0.44271 0.12109 0.57031 0.08333 0.1276 0.21875 0.19141 0.40625 0.19141"/>
  </g>
  <g fill="#666" transform="matrix(0.76347 0 0 0.82864 18.15 962.28)">
   <path d="m29.47 57.902h-0.73047v-5.0703h-1.6328v-0.64062h3.9922v0.64062h-1.6289v5.0703"/>
   <path d="m33.075 57.98c-0.28646 0-0.54818-0.04818-0.78516-0.14453s-0.44141-0.23698-0.61328-0.42188c-0.16927-0.1849-0.30078-0.41406-0.39453-0.6875s-0.14063-0.58594-0.14062-0.9375c-0.000001-0.35416 0.04297-0.67057 0.12891-0.94922 0.08594-0.27864 0.20703-0.51432 0.36328-0.70703 0.15625-0.19531 0.34245-0.34374 0.55859-0.44531 0.21875-0.10156 0.45963-0.15234 0.72266-0.15234 0.25781 0.000005 0.48958 0.04688 0.69531 0.14062 0.20573 0.09115 0.3802 0.22136 0.52344 0.39062 0.14323 0.16667 0.2526 0.36849 0.32812 0.60547 0.07812 0.23438 0.11718 0.49479 0.11719 0.78125v0.44141h-2.7031c0.01302 0.50261 0.11849 0.8724 0.31641 1.1094 0.20052 0.23698 0.49739 0.35547 0.89062 0.35547 0.13281 0.000001 0.25521-0.0065 0.36719-0.01953 0.11458-0.01302 0.22396-0.03125 0.32812-0.05469 0.10677-0.02604 0.20963-0.05729 0.30859-0.09375 0.09895-0.03906 0.19922-0.08203 0.30078-0.12891v0.63281c-0.10417 0.04948-0.20703 0.09245-0.30859 0.12891-0.09896 0.03646-0.20183 0.06641-0.30859 0.08984-0.10417 0.02344-0.21354 0.04037-0.32812 0.05078-0.11198 0.01042-0.23438 0.01563-0.36719 0.01563m-0.177-3.855c-0.29688 0.000004-0.53255 0.10157-0.70703 0.30469-0.17188 0.20313-0.27214 0.4987-0.30078 0.88672h1.9219c-0.000004-0.17708-0.01823-0.33854-0.05469-0.48438-0.03386-0.14843-0.08855-0.27474-0.16406-0.37891-0.07292-0.10416-0.16667-0.18489-0.28125-0.24219-0.11459-0.05729-0.25261-0.08593-0.41406-0.08594"/>
   <path d="m36.575 55.703-1.3789-2.0898h0.80859l0.97656 1.6016 0.97656-1.6016h0.80859l-1.3867 2.0898 1.457 2.1992h-0.80859l-1.0469-1.7031-1.0547 1.7031h-0.80859l1.457-2.1992"/>
   <path d="m40.958 57.398c0.04687 0.000001 0.09896-0.0026 0.15625-0.0078 0.05989-0.0052 0.11718-0.01172 0.17188-0.01953 0.05468-0.0078 0.10416-0.01693 0.14844-0.02734 0.04687-0.01042 0.08203-0.01953 0.10547-0.02734v0.53906c-0.03386 0.01563-0.07682 0.03125-0.12891 0.04687-0.05209 0.01563-0.10938 0.02865-0.17188 0.03906-0.0625 0.01302-0.12761 0.02214-0.19531 0.02734-0.06771 0.0078-0.13412 0.01172-0.19922 0.01172-0.16146 0-0.3112-0.02083-0.44922-0.0625s-0.25781-0.11328-0.35938-0.21484c-0.09896-0.10156-0.17708-0.23828-0.23438-0.41016-0.05729-0.17448-0.08594-0.39323-0.08594-0.65625v-2.4883h-0.60547v-0.31641l0.60547-0.30469 0.30469-0.89844h0.41016v0.98438h1.0781v0.53516h-1.0781v2.4883c-0.000001 0.2526 0.04036 0.44271 0.12109 0.57031 0.08333 0.1276 0.21875 0.19141 0.40625 0.19141"/>
   <path d="m46.153 57.98c-0.28646 0-0.54818-0.04818-0.78516-0.14453s-0.44141-0.23698-0.61328-0.42188c-0.16927-0.1849-0.30078-0.41406-0.39453-0.6875s-0.14063-0.58594-0.14062-0.9375c-0.000001-0.35416 0.04297-0.67057 0.12891-0.94922 0.08594-0.27864 0.20703-0.51432 0.36328-0.70703 0.15625-0.19531 0.34245-0.34374 0.55859-0.44531 0.21875-0.10156 0.45963-0.15234 0.72266-0.15234 0.25781 0.000005 0.48958 0.04688 0.69531 0.14062 0.20573 0.09115 0.3802 0.22136 0.52344 0.39062 0.14323 0.16667 0.2526 0.36849 0.32812 0.60547 0.07812 0.23438 0.11718 0.49479 0.11719 0.78125v0.44141h-2.7031c0.01302 0.50261 0.11849 0.8724 0.31641 1.1094 0.20052 0.23698 0.49739 0.35547 0.89062 0.35547 0.13281 0.000001 0.25521-0.0065 0.36719-0.01953 0.11458-0.01302 0.22396-0.03125 0.32812-0.05469 0.10677-0.02604 0.20963-0.05729 0.30859-0.09375 0.09895-0.03906 0.19922-0.08203 0.30078-0.12891v0.63281c-0.10417 0.04948-0.20703 0.09245-0.30859 0.12891-0.09896 0.03646-0.20183 0.06641-0.30859 0.08984-0.10417 0.02344-0.21354 0.04037-0.32812 0.05078-0.11198 0.01042-0.23438 0.01563-0.36719 0.01563m-0.176-3.855c-0.29688 0.000004-0.53255 0.10157-0.70703 0.30469-0.17188 0.20313-0.27214 0.4987-0.30078 0.88672h1.9219c-0.000004-0.17708-0.01823-0.33854-0.05469-0.48438-0.03386-0.14843-0.08855-0.27474-0.16406-0.37891-0.07292-0.10416-0.16667-0.18489-0.28125-0.24219-0.11459-0.05729-0.25261-0.08593-0.41406-0.08594"/>
   <path d="m51.388 57.328h-0.03125c-0.0573 0.08854-0.125 0.17318-0.20312 0.25391-0.07552 0.07813-0.16406 0.14714-0.26562 0.20703-0.09896 0.0599-0.21094 0.10677-0.33594 0.14062s-0.26563 0.05078-0.42188 0.05078c-0.24219 0-0.46354-0.04687-0.66406-0.14062s-0.3724-0.23307-0.51562-0.41797c-0.14323-0.1875-0.25391-0.41927-0.33203-0.69531-0.07813-0.27604-0.11719-0.59635-0.11719-0.96094-0.000001-0.36718 0.03906-0.6888 0.11719-0.96484 0.07812-0.27864 0.1888-0.51172 0.33203-0.69922s0.3151-0.32812 0.51562-0.42188c0.20052-0.09635 0.42187-0.14453 0.66406-0.14453 0.15364 0.000005 0.29297 0.01693 0.41797 0.05078 0.125 0.03386 0.23698 0.07943 0.33594 0.13672 0.10156 0.0573 0.1914 0.1237 0.26953 0.19922 0.07812 0.07552 0.14583 0.15495 0.20312 0.23828h0.04687c-0.0078-0.08854-0.01563-0.17317-0.02344-0.25391-0.0052-0.0677-0.01042-0.13672-0.01563-0.20703-0.0052-0.07291-0.0078-0.1302-0.0078-0.17188v-1.7031h0.71094v6.0781h-0.57422l-0.10547-0.57422m-1.1211 0.0625c0.19791 0.000001 0.36458-0.02995 0.5-0.08984 0.13802-0.05989 0.2487-0.15104 0.33203-0.27344 0.08593-0.1224 0.14843-0.27474 0.1875-0.45703 0.04166-0.18489 0.0651-0.39974 0.07031-0.64453v-0.16016c-0.000003-0.26302-0.01823-0.49609-0.05469-0.69922-0.03386-0.20573-0.09375-0.3776-0.17969-0.51562-0.08334-0.14062-0.19532-0.24609-0.33594-0.31641-0.14063-0.07291-0.31641-0.10937-0.52734-0.10938-0.35156 0.000004-0.61068 0.14193-0.77734 0.42578-0.16406 0.28386-0.2461 0.69141-0.24609 1.2227-0.000002 0.54427 0.08203 0.95052 0.24609 1.2188 0.16666 0.26563 0.42838 0.39844 0.78516 0.39844"/>
   <path d="m54.138 57.902h-0.71094v-4.2891h0.71094v4.2891m-0.766-5.449c0-0.15624 0.03906-0.26953 0.11719-0.33984 0.08073-0.07031 0.17969-0.10546 0.29688-0.10547 0.05729 0.000006 0.11068 0.0091 0.16016 0.02734 0.05208 0.01563 0.09635 0.04167 0.13281 0.07813 0.03906 0.03646 0.06901 0.08334 0.08984 0.14062 0.02344 0.05469 0.03515 0.1211 0.03516 0.19922-0.000002 0.15105-0.04167 0.26433-0.125 0.33984-0.08073 0.07292-0.17839 0.10938-0.29297 0.10938-0.11719 0.000005-0.21615-0.03645-0.29688-0.10938-0.07813-0.07291-0.11719-0.18619-0.11719-0.33984"/>
   <path d="m56.802 57.398c0.04687 0.000001 0.09896-0.0026 0.15625-0.0078 0.05989-0.0052 0.11718-0.01172 0.17188-0.01953 0.05468-0.0078 0.10416-0.01693 0.14844-0.02734 0.04687-0.01042 0.08203-0.01953 0.10547-0.02734v0.53906c-0.03386 0.01563-0.07682 0.03125-0.12891 0.04687-0.05209 0.01563-0.10938 0.02865-0.17188 0.03906-0.0625 0.01302-0.12761 0.02214-0.19531 0.02734-0.06771 0.0078-0.13412 0.01172-0.19922 0.01172-0.16146 0-0.3112-0.02083-0.44922-0.0625s-0.25781-0.11328-0.35938-0.21484c-0.09896-0.10156-0.17708-0.23828-0.23438-0.41016-0.05729-0.17448-0.08594-0.39323-0.08594-0.65625v-2.4883h-0.60547v-0.31641l0.60547-0.30469 0.30469-0.89844h0.41016v0.98438h1.0781v0.53516h-1.0781v2.4883c-0.000001 0.2526 0.04036 0.44271 0.12109 0.57031 0.08333 0.1276 0.21875 0.19141 0.40625 0.19141"/>
   <path d="m61.72 55.75c-0.000005 0.35677-0.04427 0.67448-0.13281 0.95312-0.08594 0.27604-0.21094 0.50912-0.375 0.69922-0.16146 0.1875-0.35808 0.33073-0.58984 0.42969-0.23177 0.09896-0.49219 0.14844-0.78125 0.14844-0.26823 0-0.51563-0.04948-0.74219-0.14844s-0.42318-0.24219-0.58984-0.42969c-0.164-0.19-0.293-0.423-0.387-0.699-0.091-0.279-0.137-0.596-0.137-0.953-0.000001-0.35416 0.04297-0.66797 0.12891-0.94141 0.08854-0.27604 0.21354-0.50781 0.375-0.69531 0.16146-0.1901 0.35807-0.33333 0.58984-0.42969 0.23437-0.09895 0.49609-0.14843 0.78516-0.14844 0.26823 0.000005 0.51562 0.04948 0.74219 0.14844 0.22656 0.09636 0.42187 0.23959 0.58594 0.42969 0.16666 0.1875 0.29557 0.41927 0.38672 0.69531 0.09374 0.27344 0.14062 0.58724 0.14062 0.94141m-3 0c-0.000002 0.54427 0.08854 0.95443 0.26562 1.2305 0.17968 0.27344 0.47005 0.41016 0.87109 0.41016 0.40104 0.000001 0.6888-0.13672 0.86328-0.41016 0.17708-0.27604 0.26562-0.6862 0.26562-1.2305-0.000004-0.54427-0.08985-0.95052-0.26953-1.2188-0.17709-0.27083-0.46615-0.40625-0.86719-0.40625-0.40104 0.000004-0.69011 0.13542-0.86719 0.40625-0.17448 0.26823-0.26172 0.67448-0.26172 1.2188"/>
   <path d="m64.704 53.535c0.07552 0.000005 0.16015 0.0039 0.25391 0.01172 0.09375 0.0052 0.17448 0.01433 0.24219 0.02734l-0.09375 0.65625c-0.07292-0.01302-0.14844-0.02343-0.22656-0.03125-0.07552-0.01041-0.14714-0.01562-0.21484-0.01563-0.16406 0.000003-0.3138 0.03386-0.44922 0.10156-0.13542 0.06511-0.25261 0.16016-0.35156 0.28516-0.09636 0.1224-0.17188 0.27084-0.22656 0.44531-0.05208 0.17188-0.07813 0.36328-0.07813 0.57422v2.3125h-0.71094v-4.2891h0.57812l0.08594 0.78516h0.03125c0.0651-0.11198 0.13411-0.22005 0.20703-0.32422 0.07552-0.10416 0.15885-0.19531 0.25-0.27344 0.09375-0.08073 0.19791-0.14453 0.3125-0.19141 0.11458-0.04948 0.24479-0.07421 0.39062-0.07422"/>
  </g>
  <g fill="#fff" transform="matrix(0.76347 0 0 0.82864 18.15 962.28)">
   <path d="m31.228 67.863c-0.000004 0.23698-0.03646 0.46485-0.10938 0.68359-0.07032 0.21875-0.1875 0.41276-0.35156 0.58203-0.16407 0.16667-0.38151 0.30078-0.65234 0.40234-0.26823 0.09896-0.60026 0.14844-0.99609 0.14844h-0.58594v2.2227h-0.72656v-5.7109h1.4141c0.34896 0.000006 0.64974 0.03777 0.90234 0.11328 0.2526 0.07292 0.46093 0.181 0.625 0.32422 0.16406 0.14063 0.28515 0.31511 0.36328 0.52344 0.07812 0.20834 0.11718 0.44532 0.11719 0.71094m-2.6953 1.1992h0.50391c0.24218 0.000003 0.45312-0.02083 0.63281-0.0625 0.18229-0.04166 0.33203-0.10807 0.44922-0.19922 0.11979-0.09375 0.20963-0.21354 0.26953-0.35938 0.05989-0.14843 0.08984-0.32812 0.08984-0.53906-0.000003-0.36979-0.10677-0.64322-0.32031-0.82031-0.21354-0.17968-0.54688-0.26953-1-0.26953h-0.625v2.25"/>
   <path d="m34.997 71.902v-2.7617c-0.000003-0.33854-0.06901-0.59244-0.20703-0.76172-0.13542-0.16927-0.34896-0.2539-0.64062-0.25391-0.21094 0.000004-0.38802 0.03386-0.53125 0.10156-0.14323 0.06771-0.25912 0.16797-0.34766 0.30078-0.08594 0.13282-0.14844 0.29558-0.1875 0.48828-0.03646 0.19271-0.05469 0.41406-0.05469 0.66406v2.2227h-0.71094v-6.0781h0.71094v1.8047l-0.03125 0.5625h0.03906c0.0651-0.11198 0.14192-0.20833 0.23047-0.28906 0.09114-0.08333 0.1901-0.15234 0.29688-0.20703 0.10677-0.05468 0.22005-0.09505 0.33984-0.12109s0.24218-0.03906 0.36719-0.03906c0.47656 0.000005 0.83463 0.125 1.0742 0.375 0.24218 0.2474 0.36328 0.64454 0.36328 1.1914v2.8008h-0.71094"/>
   <path d="m40.532 69.75c-0.000005 0.35677-0.04427 0.67448-0.13281 0.95312-0.08594 0.27604-0.21094 0.50912-0.375 0.69922-0.16146 0.1875-0.35808 0.33073-0.58984 0.42969-0.23177 0.09896-0.49219 0.14844-0.78125 0.14844-0.26823 0-0.51563-0.04948-0.74219-0.14844s-0.42318-0.24219-0.58984-0.42969c-0.164-0.19-0.293-0.423-0.386-0.699-0.092-0.279-0.137-0.596-0.137-0.953-0.000001-0.35416 0.04297-0.66797 0.12891-0.94141 0.08854-0.27604 0.21354-0.50781 0.375-0.69531 0.16146-0.1901 0.35807-0.33333 0.58984-0.42969 0.23437-0.09895 0.49609-0.14843 0.78516-0.14844 0.26823 0.000005 0.51562 0.04948 0.74219 0.14844 0.22656 0.09636 0.42187 0.23959 0.58594 0.42969 0.16666 0.1875 0.29557 0.41927 0.38672 0.69531 0.09374 0.27344 0.14062 0.58724 0.14062 0.94141m-3 0c-0.000002 0.54427 0.08854 0.95443 0.26562 1.2305 0.17968 0.27344 0.47005 0.41016 0.87109 0.41016 0.40104 0.000001 0.6888-0.13672 0.86328-0.41016 0.17708-0.27604 0.26562-0.6862 0.26562-1.2305-0.000004-0.54427-0.08985-0.95052-0.26953-1.2188-0.17709-0.27083-0.46615-0.40625-0.86719-0.40625-0.40104 0.000004-0.69011 0.13542-0.86719 0.40625-0.17448 0.26823-0.26172 0.67448-0.26172 1.2188"/>
   <path d="m42.958 71.398c0.04687 0.000001 0.09896-0.0026 0.15625-0.0078 0.05989-0.0052 0.11718-0.01172 0.17188-0.01953 0.05468-0.0078 0.10416-0.01693 0.14844-0.02734 0.04687-0.01042 0.08203-0.01953 0.10547-0.02734v0.53906c-0.03386 0.01563-0.07682 0.03125-0.12891 0.04687-0.05209 0.01563-0.10938 0.02865-0.17188 0.03906-0.0625 0.01302-0.12761 0.02214-0.19531 0.02734-0.06771 0.0078-0.13412 0.01172-0.19922 0.01172-0.16146 0-0.3112-0.02083-0.44922-0.0625s-0.25781-0.11328-0.35938-0.21484c-0.09896-0.10156-0.17708-0.23828-0.23438-0.41016-0.05729-0.17448-0.08594-0.39323-0.08594-0.65625v-2.4883h-0.60547v-0.31641l0.60547-0.30469 0.30469-0.89844h0.41016v0.98438h1.0781v0.53516h-1.0781v2.4883c-0.000001 0.2526 0.04036 0.44271 0.12109 0.57031 0.08333 0.1276 0.21875 0.19141 0.40625 0.19141"/>
   <path d="m47.876 69.75c-0.000005 0.35677-0.04427 0.67448-0.13281 0.95312-0.08594 0.27604-0.21094 0.50912-0.375 0.69922-0.16146 0.1875-0.35808 0.33073-0.58984 0.42969-0.23177 0.09896-0.49219 0.14844-0.78125 0.14844-0.26823 0-0.51563-0.04948-0.74219-0.14844s-0.42318-0.24219-0.58984-0.42969c-0.164-0.19-0.293-0.423-0.387-0.699-0.091-0.279-0.136-0.596-0.136-0.953-0.000001-0.35416 0.04297-0.66797 0.12891-0.94141 0.08854-0.27604 0.21354-0.50781 0.375-0.69531 0.16146-0.1901 0.35807-0.33333 0.58984-0.42969 0.23437-0.09895 0.49609-0.14843 0.78516-0.14844 0.26823 0.000005 0.51562 0.04948 0.74219 0.14844 0.22656 0.09636 0.42187 0.23959 0.58594 0.42969 0.16666 0.1875 0.29557 0.41927 0.38672 0.69531 0.09374 0.27344 0.14062 0.58724 0.14062 0.94141m-3 0c-0.000002 0.54427 0.08854 0.95443 0.26562 1.2305 0.17968 0.27344 0.47005 0.41016 0.87109 0.41016 0.40104 0.000001 0.6888-0.13672 0.86328-0.41016 0.17708-0.27604 0.26562-0.6862 0.26562-1.2305-0.000004-0.54427-0.08985-0.95052-0.26953-1.2188-0.17709-0.27083-0.46615-0.40625-0.86719-0.40625-0.40104 0.000004-0.69011 0.13542-0.86719 0.40625-0.17448 0.26823-0.26172 0.67448-0.26172 1.2188"/>
   <path d="m52.778 71.98c-0.28646 0-0.54818-0.04818-0.78516-0.14453s-0.44141-0.23698-0.61328-0.42188c-0.16927-0.1849-0.30078-0.41406-0.39453-0.6875s-0.14063-0.58594-0.14062-0.9375c-0.000001-0.35416 0.04297-0.67057 0.12891-0.94922 0.08594-0.27864 0.20703-0.51432 0.36328-0.70703 0.15625-0.19531 0.34245-0.34374 0.55859-0.44531 0.21875-0.10156 0.45963-0.15234 0.72266-0.15234 0.25781 0.000005 0.48958 0.04688 0.69531 0.14062 0.20573 0.09115 0.3802 0.22136 0.52344 0.39062 0.14323 0.16667 0.2526 0.36849 0.32812 0.60547 0.07812 0.23438 0.11718 0.49479 0.11719 0.78125v0.44141h-2.7031c0.01302 0.50261 0.11849 0.8724 0.31641 1.1094 0.20052 0.23698 0.49739 0.35547 0.89062 0.35547 0.13281 0.000001 0.25521-0.0065 0.36719-0.01953 0.11458-0.01302 0.22396-0.03125 0.32812-0.05469 0.10677-0.02604 0.20963-0.05729 0.30859-0.09375 0.09895-0.03906 0.19922-0.08203 0.30078-0.12891v0.63281c-0.10417 0.04948-0.20703 0.09245-0.30859 0.12891-0.09896 0.03646-0.20183 0.06641-0.30859 0.08984-0.10417 0.02344-0.21354 0.04036-0.32812 0.05078-0.11198 0.01042-0.23438 0.01563-0.36719 0.01563m-0.175-3.855c-0.29688 0.000004-0.53255 0.10157-0.70703 0.30469-0.17188 0.20313-0.27214 0.4987-0.30078 0.88672h1.9219c-0.000004-0.17708-0.01823-0.33854-0.05469-0.48438-0.03386-0.14843-0.08855-0.27474-0.16406-0.37891-0.07292-0.10416-0.16667-0.18489-0.28125-0.24219-0.11459-0.05729-0.25261-0.08593-0.41406-0.08594"/>
   <path d="m58.013 71.328h-0.03125c-0.0573 0.08854-0.125 0.17318-0.20312 0.25391-0.07552 0.07813-0.16406 0.14714-0.26562 0.20703-0.09896 0.0599-0.21094 0.10677-0.33594 0.14062-0.125 0.03386-0.26563 0.05078-0.42188 0.05078-0.24219 0-0.46354-0.04687-0.66406-0.14062s-0.3724-0.23307-0.51562-0.41797c-0.14323-0.1875-0.25391-0.41927-0.33203-0.69531-0.07813-0.27604-0.11719-0.59635-0.11719-0.96094-0.000001-0.36718 0.03906-0.6888 0.11719-0.96484 0.07812-0.27864 0.1888-0.51172 0.33203-0.69922s0.3151-0.32812 0.51562-0.42188c0.20052-0.09635 0.42187-0.14453 0.66406-0.14453 0.15364 0.000005 0.29297 0.01693 0.41797 0.05078 0.125 0.03386 0.23698 0.07943 0.33594 0.13672 0.10156 0.0573 0.1914 0.1237 0.26953 0.19922 0.07812 0.07552 0.14583 0.15495 0.20312 0.23828h0.04687c-0.0078-0.08854-0.01563-0.17317-0.02344-0.25391-0.0052-0.0677-0.01042-0.13672-0.01563-0.20703-0.0052-0.07291-0.0078-0.1302-0.0078-0.17188v-1.7031h0.71094v6.0781h-0.57422l-0.10547-0.57422m-1.1211 0.0625c0.19791 0.000001 0.36458-0.02995 0.5-0.08984 0.13802-0.05989 0.2487-0.15104 0.33203-0.27344 0.08593-0.1224 0.14843-0.27474 0.1875-0.45703 0.04166-0.18489 0.0651-0.39974 0.07031-0.64453v-0.16016c-0.000003-0.26302-0.01823-0.49609-0.05469-0.69922-0.03386-0.20573-0.09375-0.3776-0.17969-0.51562-0.08334-0.14062-0.19532-0.24609-0.33594-0.31641-0.14063-0.07291-0.31641-0.10937-0.52734-0.10938-0.35156 0.000004-0.61068 0.14193-0.77734 0.42578-0.16406 0.28386-0.2461 0.69141-0.24609 1.2227-0.000002 0.54427 0.08203 0.95052 0.24609 1.2188 0.16666 0.26563 0.42838 0.39844 0.78516 0.39844"/>
   <path d="m60.763 71.902h-0.71094v-4.2891h0.71094v4.2891m-0.766-5.449c0-0.15624 0.03906-0.26953 0.11719-0.33984 0.08073-0.07031 0.17969-0.10546 0.29688-0.10547 0.05729 0.000006 0.11068 0.0091 0.16016 0.02734 0.05208 0.01563 0.09635 0.04167 0.13281 0.07813 0.03906 0.03646 0.06901 0.08334 0.08984 0.14062 0.02344 0.05469 0.03515 0.1211 0.03516 0.19922-0.000002 0.15105-0.04167 0.26433-0.125 0.33984-0.08073 0.07292-0.17839 0.10938-0.29297 0.10938-0.11719 0.000005-0.21615-0.03645-0.29688-0.10938-0.07813-0.07291-0.11719-0.18619-0.11719-0.33984"/>
   <path d="m63.427 71.398c0.04687 0.000001 0.09896-0.0026 0.15625-0.0078 0.05989-0.0052 0.11718-0.01172 0.17188-0.01953 0.05468-0.0078 0.10416-0.01693 0.14844-0.02734 0.04687-0.01042 0.08203-0.01953 0.10547-0.02734v0.53906c-0.03386 0.01563-0.07682 0.03125-0.12891 0.04687-0.05209 0.01563-0.10938 0.02865-0.17188 0.03906-0.0625 0.01302-0.12761 0.02214-0.19531 0.02734-0.06771 0.0078-0.13412 0.01172-0.19922 0.01172-0.16146 0-0.3112-0.02083-0.44922-0.0625s-0.25781-0.11328-0.35938-0.21484c-0.09896-0.10156-0.17708-0.23828-0.23438-0.41016-0.05729-0.17448-0.08594-0.39323-0.08594-0.65625v-2.4883h-0.60547v-0.31641l0.60547-0.30469 0.30469-0.89844h0.41016v0.98438h1.0781v0.53516h-1.0781v2.4883c-0.000001 0.2526 0.04036 0.44271 0.12109 0.57031 0.08333 0.1276 0.21875 0.19141 0.40625 0.19141"/>
   <path d="m68.345 69.75c-0.000005 0.35677-0.04427 0.67448-0.13281 0.95312-0.08594 0.27604-0.21094 0.50912-0.375 0.69922-0.16146 0.1875-0.35808 0.33073-0.58984 0.42969-0.23177 0.09896-0.49219 0.14844-0.78125 0.14844-0.26823 0-0.51563-0.04948-0.74219-0.14844s-0.42318-0.24219-0.58984-0.42969c-0.164-0.19-0.293-0.423-0.387-0.699-0.091-0.279-0.137-0.596-0.137-0.953-0.000001-0.35416 0.04297-0.66797 0.12891-0.94141 0.08854-0.27604 0.21354-0.50781 0.375-0.69531 0.16146-0.1901 0.35807-0.33333 0.58984-0.42969 0.23437-0.09895 0.49609-0.14843 0.78516-0.14844 0.26823 0.000005 0.51562 0.04948 0.74219 0.14844 0.22656 0.09636 0.42187 0.23959 0.58594 0.42969 0.16666 0.1875 0.29557 0.41927 0.38672 0.69531 0.09374 0.27344 0.14062 0.58724 0.14062 0.94141m-3 0c-0.000002 0.54427 0.08854 0.95443 0.26562 1.2305 0.17968 0.27344 0.47005 0.41016 0.87109 0.41016 0.40104 0.000001 0.6888-0.13672 0.86328-0.41016 0.17708-0.27604 0.26562-0.6862 0.26562-1.2305-0.000004-0.54427-0.08985-0.95052-0.26953-1.2188-0.17709-0.27083-0.46615-0.40625-0.86719-0.40625-0.40104 0.000004-0.69011 0.13542-0.86719 0.40625-0.17448 0.26823-0.26172 0.67448-0.26172 1.2188"/>
   <path d="m71.329 67.535c0.07552 0.000005 0.16015 0.0039 0.25391 0.01172 0.09375 0.0052 0.17448 0.01433 0.24219 0.02734l-0.09375 0.65625c-0.07292-0.01302-0.14844-0.02343-0.22656-0.03125-0.07552-0.01041-0.14714-0.01562-0.21484-0.01563-0.16406 0.000003-0.3138 0.03386-0.44922 0.10156-0.13542 0.06511-0.25261 0.16016-0.35156 0.28516-0.09636 0.1224-0.17188 0.27084-0.22656 0.44531-0.05208 0.17188-0.07813 0.36328-0.07813 0.57422v2.3125h-0.71094v-4.2891h0.57812l0.08594 0.78516h0.03125c0.0651-0.11198 0.13411-0.22005 0.20703-0.32422 0.07552-0.10416 0.15885-0.19531 0.25-0.27344 0.09375-0.08073 0.19791-0.14453 0.3125-0.19141 0.11458-0.04948 0.24479-0.07421 0.39062-0.07422"/>
  </g>
  <g fill="#666" transform="matrix(0.76347 0 0 0.82864 18.15 962.28)">
   <path d="m29.47 85.902h-0.73047v-5.0703h-1.6328v-0.64062h3.9922v0.64062h-1.6289v5.0703"/>
   <path d="m33.075 85.98c-0.28646 0-0.54818-0.04818-0.78516-0.14453s-0.44141-0.23698-0.61328-0.42188c-0.16927-0.1849-0.30078-0.41406-0.39453-0.6875s-0.14063-0.58594-0.14062-0.9375c-0.000001-0.35416 0.04297-0.67057 0.12891-0.94922 0.08594-0.27864 0.20703-0.51432 0.36328-0.70703 0.15625-0.19531 0.34245-0.34374 0.55859-0.44531 0.21875-0.10156 0.45963-0.15234 0.72266-0.15234 0.25781 0.000005 0.48958 0.04688 0.69531 0.14062 0.20573 0.09115 0.3802 0.22136 0.52344 0.39062 0.14323 0.16667 0.2526 0.36849 0.32812 0.60547 0.07812 0.23438 0.11718 0.49479 0.11719 0.78125v0.44141h-2.7031c0.01302 0.50261 0.11849 0.8724 0.31641 1.1094 0.20052 0.23698 0.49739 0.35547 0.89062 0.35547 0.13281 0.000001 0.25521-0.0065 0.36719-0.01953 0.11458-0.01302 0.22396-0.03125 0.32812-0.05469 0.10677-0.02604 0.20963-0.05729 0.30859-0.09375 0.09895-0.03906 0.19922-0.08203 0.30078-0.12891v0.63281c-0.10417 0.04948-0.20703 0.09245-0.30859 0.12891-0.09896 0.03646-0.20183 0.06641-0.30859 0.08984-0.10417 0.02344-0.21354 0.04036-0.32812 0.05078-0.11198 0.01042-0.23438 0.01563-0.36719 0.01563m-0.177-3.855c-0.29688 0.000004-0.53255 0.10157-0.70703 0.30469-0.17188 0.20313-0.27214 0.4987-0.30078 0.88672h1.9219c-0.000004-0.17708-0.01823-0.33854-0.05469-0.48438-0.03386-0.14843-0.08855-0.27474-0.16406-0.37891-0.07292-0.10416-0.16667-0.18489-0.28125-0.24219-0.11459-0.05729-0.25261-0.08593-0.41406-0.08594"/>
   <path d="m37.517 81.535c0.07552 0.000005 0.16015 0.0039 0.25391 0.01172 0.09375 0.0052 0.17448 0.01433 0.24219 0.02734l-0.09375 0.65625c-0.07292-0.01302-0.14844-0.02343-0.22656-0.03125-0.07552-0.01041-0.14714-0.01562-0.21484-0.01563-0.16406 0.000003-0.3138 0.03386-0.44922 0.10156-0.13542 0.06511-0.25261 0.16016-0.35156 0.28516-0.09636 0.1224-0.17188 0.27084-0.22656 0.44531-0.05208 0.17188-0.07813 0.36328-0.07813 0.57422v2.3125h-0.71094v-4.2891h0.57812l0.08594 0.78516h0.03125c0.0651-0.11198 0.13411-0.22005 0.20703-0.32422 0.07552-0.10416 0.15885-0.19531 0.25-0.27344 0.09375-0.08073 0.19791-0.14453 0.3125-0.19141 0.11458-0.04948 0.24479-0.07421 0.39062-0.07422"/>
   <path d="m43.985 85.902v-2.7617c-0.000006-0.33854-0.06511-0.59244-0.19531-0.76172-0.13021-0.16927-0.33204-0.2539-0.60547-0.25391-0.19011 0.000004-0.35157 0.03125-0.48438 0.09375-0.13282 0.0599-0.24219 0.14974-0.32812 0.26953-0.08334 0.11719-0.14454 0.26433-0.18359 0.44141-0.03907 0.17448-0.0586 0.3763-0.05859 0.60547v2.3672h-0.71484v-2.7617c-0.000003-0.33854-0.06511-0.59244-0.19531-0.76172-0.12761-0.16927-0.32813-0.2539-0.60156-0.25391-0.20052 0.000004-0.36849 0.03386-0.50391 0.10156-0.13542 0.06771-0.24479 0.16797-0.32812 0.30078-0.08073 0.13282-0.13932 0.29558-0.17578 0.48828-0.03386 0.19271-0.05078 0.41406-0.05078 0.66406v2.2227h-0.71094v-4.2891h0.57812l0.10156 0.57812h0.03906c0.0625-0.11198 0.13672-0.20833 0.22266-0.28906 0.08594-0.08333 0.17969-0.15234 0.28125-0.20703 0.10416-0.05468 0.21354-0.09505 0.32812-0.12109 0.11718-0.02604 0.23568-0.03906 0.35547-0.03906 0.3125 0.000005 0.57161 0.0573 0.77734 0.17188 0.20833 0.11459 0.36198 0.29428 0.46094 0.53906h0.03125c0.0677-0.12239 0.14843-0.22786 0.24219-0.31641 0.09635-0.08854 0.20052-0.16145 0.3125-0.21875 0.11458-0.05989 0.23437-0.10416 0.35938-0.13281 0.125-0.02864 0.2526-0.04296 0.38281-0.04297 0.45572 0.000005 0.79817 0.125 1.0273 0.375 0.23176 0.2474 0.34765 0.64454 0.34766 1.1914v2.8008h-0.71094"/>
   <path d="m46.731 85.902h-0.71094v-4.2891h0.71094v4.2891m-0.765-5.449c0-0.15624 0.03906-0.26953 0.11719-0.33984 0.08073-0.07031 0.17969-0.10546 0.29688-0.10547 0.05729 0.000006 0.11068 0.0091 0.16016 0.02734 0.05208 0.01563 0.09635 0.04167 0.13281 0.07813 0.03906 0.03646 0.06901 0.08334 0.08984 0.14062 0.02344 0.05469 0.03515 0.1211 0.03516 0.19922-0.000002 0.15105-0.04167 0.26433-0.125 0.33984-0.08073 0.07292-0.17839 0.10938-0.29297 0.10938-0.11719 0.000005-0.21615-0.03645-0.29688-0.10938-0.07813-0.07291-0.11719-0.18619-0.11719-0.33984"/>
   <path d="m50.778 85.902v-2.7617c-0.000003-0.33854-0.06901-0.59244-0.20703-0.76172-0.13542-0.16927-0.34896-0.2539-0.64062-0.25391-0.21094 0.000004-0.38802 0.03386-0.53125 0.10156-0.14323 0.06771-0.25912 0.16797-0.34766 0.30078-0.08594 0.13282-0.14844 0.29558-0.1875 0.48828-0.03646 0.19271-0.05469 0.41406-0.05469 0.66406v2.2227h-0.71094v-4.2891h0.57812l0.10156 0.57812h0.03906c0.0651-0.11198 0.14192-0.20833 0.23047-0.28906 0.09114-0.08333 0.1901-0.15234 0.29688-0.20703 0.10677-0.05468 0.22005-0.09505 0.33984-0.12109s0.24218-0.03906 0.36719-0.03906c0.47656 0.000005 0.83463 0.125 1.0742 0.375 0.24218 0.2474 0.36328 0.64454 0.36328 1.1914v2.8008h-0.71094"/>
   <path d="m55.235 85.902-0.14453-0.59375h-0.03125c-0.08594 0.11719-0.17188 0.21875-0.25781 0.30469-0.08594 0.08333-0.17969 0.15234-0.28125 0.20703s-0.21485 0.09505-0.33984 0.12109c-0.125 0.02604-0.26953 0.03906-0.43359 0.03906-0.17969 0-0.34505-0.02604-0.49609-0.07813-0.15104-0.04948-0.28255-0.1263-0.39453-0.23047-0.10938-0.10677-0.19531-0.23958-0.25781-0.39844-0.0625-0.16146-0.09375-0.35156-0.09375-0.57031-0.000001-0.42708 0.14974-0.75521 0.44922-0.98438 0.30208-0.22916 0.76042-0.35416 1.375-0.375l0.71875-0.02734v-0.26953c-0.000003-0.17448-0.01953-0.32031-0.05859-0.4375-0.03646-0.11718-0.09115-0.21093-0.16406-0.28125-0.07032-0.07291-0.15886-0.125-0.26562-0.15625-0.10417-0.03125-0.22396-0.04687-0.35938-0.04687-0.21615 0.000004-0.41797 0.03125-0.60547 0.09375-0.1849 0.0625-0.36328 0.13802-0.53516 0.22656l-0.25-0.53516c0.19271-0.10416 0.40755-0.1927 0.64453-0.26562 0.23698-0.07291 0.48568-0.10937 0.74609-0.10938 0.26562 0.000005 0.49479 0.02735 0.6875 0.08203 0.19531 0.05209 0.35547 0.13672 0.48047 0.25391 0.1276 0.11459 0.22265 0.26172 0.28516 0.44141 0.0625 0.17969 0.09375 0.39714 0.09375 0.65234v2.9375h-0.51172m-1.305-0.496c0.15885 0 0.30599-0.02474 0.44141-0.07422s0.2526-0.1237 0.35156-0.22266c0.09896-0.10156 0.17578-0.22786 0.23047-0.37891 0.05729-0.15364 0.08593-0.33333 0.08594-0.53906v-0.38672l-0.55859 0.02734c-0.23438 0.01042-0.43099 0.03646-0.58984 0.07813-0.15886 0.04167-0.28646 0.10026-0.38281 0.17578-0.09375 0.07292-0.16146 0.16276-0.20312 0.26953-0.04167 0.10417-0.0625 0.22266-0.0625 0.35547-0.000001 0.23958 0.0625 0.41537 0.1875 0.52734 0.1276 0.11198 0.29427 0.16797 0.5 0.16797"/>
   <path d="m57.778 85.902h-0.71094v-6.0781h0.71094v6.0781"/>
  </g>
  <g transform="matrix(0.76347 0 0 0.82864 18.15 962.28)">
   <use xlink:href="#SVGCleanerId_6"/>
   <use xlink:href="#SVGCleanerId_7"/>
   <use xlink:href="#SVGCleanerId_8"/>
  </g>
  <g transform="matrix(0.76347 0 0 0.82864 18.15 939.07)">
   <use xlink:href="#SVGCleanerId_6"/>
   <use xlink:href="#SVGCleanerId_7"/>
   <use xlink:href="#SVGCleanerId_8"/>
  </g>
  <g transform="matrix(0.76347 0 0 0.82864 18.15 915.87)">
   <use xlink:href="#SVGCleanerId_6"/>
   <use xlink:href="#SVGCleanerId_7"/>
   <use xlink:href="#SVGCleanerId_8"/>
  </g>
  <g transform="matrix(0.76347 0 0 0.82864 18.15 927.47)">
   <use xlink:href="#SVGCleanerId_6"/>
   <use xlink:href="#SVGCleanerId_7"/>
   <use xlink:href="#SVGCleanerId_8"/>
  </g>
  <g transform="matrix(0.76347 0 0 0.82864 18.15 904.27)">
   <use xlink:href="#SVGCleanerId_6"/>
   <use xlink:href="#SVGCleanerId_7"/>
   <use xlink:href="#SVGCleanerId_8"/>
  </g>
  <path d="m34.945 1018.9c0-0.1631-0.12462-0.2951-0.27742-0.2951h-0.5382c-0.07157-0.2915-0.17968-0.5701-0.31626-0.825l0.38284-0.4156c0.05405-0.059 0.08264-0.1288 0.08322-0.2047 0.000603-0.075-0.02458-0.1532-0.07767-0.2108l-0.74904-0.813c-0.10623-0.1153-0.2748-0.1112-0.38284 0.01l-0.38284 0.4155c-0.23484-0.1482-0.49151-0.2656-0.76013-0.3432v-0.5842c0-0.1658-0.12164-0.301-0.27187-0.301h-1.0542c-0.15023 0-0.27187 0.1352-0.27187 0.301v0.5842c-0.26862 0.078-0.52529 0.195-0.76014 0.3432l-0.38284-0.4155c-0.10804-0.1173-0.27661-0.1213-0.38284-0.01l-0.74904 0.813c-0.10623 0.1153-0.1025 0.2983 0.0056 0.4155l0.38282 0.4156c-0.13658 0.2549-0.24469 0.5335-0.31626 0.825h-0.5382c-0.1528 0-0.27742 0.132-0.27742 0.2951v1.1442c0 0.163 0.12462 0.295 0.27742 0.295h0.5382c0.07157 0.2916 0.17968 0.5702 0.31626 0.8251l-0.38284 0.4155c-0.10804 0.1172-0.11178 0.3002-0.0056 0.4156l0.74904 0.8129c0.10623 0.1153 0.2748 0.1112 0.38284-0.01l0.38284-0.4156c0.23484 0.1482 0.49151 0.2656 0.76013 0.3433v0.5841c0 0.1658 0.12164 0.3011 0.27187 0.3011h1.0542c0.15023 0 0.27187-0.1353 0.27187-0.3011v-0.5841c0.26862-0.078 0.52529-0.1951 0.76013-0.3433l0.38284 0.4156c0.10804 0.1172 0.27661 0.1213 0.38284 0.01l0.74904-0.8129c0.10623-0.1154 0.1025-0.2984-0.0053-0.4156l-0.38284-0.4155c0.13658-0.2549 0.24469-0.5335 0.31626-0.8251h0.5382c0.1528 0 0.27742-0.132 0.27742-0.295v-1.1442zm-2.6632 0.5721c0 0.6914-0.51702 1.2525-1.1541 1.2525-0.63705 0-1.1541-0.5611-1.1541-1.2525 0-0.6915 0.51702-1.2526 1.1541-1.2526 0.63705 0 1.1541 0.5611 1.1541 1.2526z" display="block" fill="url(#linearGradient36792)"/>
  <path d="m30.603 1015.3c-0.15023 0-0.26244 0.145-0.26244 0.3108v0.5697c-0.26862 0.078-0.52862 0.1884-0.76346 0.3366l-0.38173-0.4143c-0.10804-0.1173-0.2755-0.1153-0.38173 0l-0.76346 0.8287c-0.10623 0.1152-0.10807 0.297 0 0.4143l0.19087 0.2072 0.5726-0.6215c0.10623-0.1154 0.27369-0.1174 0.38173 0l0.38173 0.4143c0.23484-0.1483 0.49484-0.259 0.76346-0.3367v-0.5697c0-0.1658 0.11221-0.3107 0.26244-0.3107h1.0498c0.15023 0 0.26244 0.1449 0.26244 0.3107v0.5697c0.26862 0.078 0.52862 0.1884 0.76347 0.3367l0.38173-0.4143c0.10804-0.1174 0.2755-0.1154 0.38173 0l0.5726 0.6215 0.19087-0.2072c0.05405-0.059 0.071-0.1314 0.07154-0.2072 0.000595-0.076-0.01848-0.1495-0.07154-0.2071l-0.76347-0.8287c-0.10623-0.1153-0.27369-0.1173-0.38173 0l-0.38173 0.4143c-0.23484-0.1482-0.49484-0.259-0.76347-0.3366v-0.5697c0-0.1658-0.11221-0.3108-0.26244-0.3108h-1.0498zm-2.4097 3.0298c-0.02661 0.082-0.05088 0.1746-0.07157 0.259h-0.52488c-0.1528 0-0.2863 0.1217-0.2863 0.2848v0.8286c0-0.1631 0.1335-0.2848 0.2863-0.2848h0.52488c0.07157-0.2916 0.17358-0.5738 0.31016-0.8286l-0.23858-0.259zm5.8691 0-0.23858 0.259c0.13658 0.2548 0.23859 0.537 0.31016 0.8286h0.52488c0.15279 0 0.2863 0.1217 0.2863 0.2848v-0.8286c0-0.1631-0.13351-0.2848-0.2863-0.2848h-0.52488c-0.02069-0.084-0.04496-0.1771-0.07158-0.259zm-4.0321 1.5278c-0.04092 0.1283-0.04772 0.2709-0.04772 0.4143 0 0.6914 0.50815 1.243 1.1452 1.243s1.1452-0.5516 1.1452-1.243c0-0.1434-0.0068-0.286-0.04772-0.4143-0.15642 0.4905-0.59253 0.8286-1.0975 0.8286-0.50495 0-0.94106-0.3381-1.0975-0.8286zm-1.8371 1.5278-0.14315 0.1554c-0.10804 0.1173-0.1062 0.299 0 0.4143l0.19087 0.2072 0.19087-0.2072c-0.09708-0.1812-0.17317-0.3685-0.23858-0.5697zm5.8691 0c-0.06541 0.2012-0.1415 0.3885-0.23858 0.5697l0.19087 0.2072 0.19087-0.2072c0.10623-0.1153 0.10807-0.297 0-0.4143l-0.14315-0.1554z" display="block" opacity="0.5"/>
  <path d="m28.241 1017.6-0.19087 0.2071c-0.10623 0.1153-0.10807 0.297 0 0.4143l0.14315 0.1554c0.06541-0.2013 0.1415-0.3885 0.23858-0.5697l-0.19087-0.2071zm5.7737 0-0.19087 0.2071c0.09708 0.1812 0.17317 0.3684 0.23858 0.5697l0.14315-0.1554c0.05405-0.059 0.071-0.1313 0.07154-0.2071 0.000595-0.076-0.01848-0.1496-0.07154-0.2072l-0.19087-0.2071zm-2.8869 0.6473c-0.63705 0-1.1452 0.5515-1.1452 1.243 0 0.1433 0.0068 0.2859 0.04772 0.4143 0.15642-0.4906 0.59253-0.8287 1.0975-0.8287 0.50495 0 0.94106 0.3381 1.0975 0.8287 0.04092-0.1284 0.04772-0.271 0.04772-0.4143 0-0.6915-0.50815-1.243-1.1452-1.243zm-3.8173 1.8126v0.8287c0 0.1631 0.1335 0.2849 0.2863 0.2849h0.52488c0.0207 0.084 0.04496 0.177 0.07157 0.2589l0.23858-0.2589c-0.13658-0.255-0.23858-0.5371-0.31016-0.8287h-0.52488c-0.1528 0-0.2863-0.1218-0.2863-0.2849zm7.6347 0c0 0.1631-0.13351 0.2849-0.2863 0.2849h-0.52488c-0.07157 0.2916-0.17358 0.5737-0.31016 0.8287l0.23858 0.2589c0.02661-0.082 0.05088-0.1746 0.07158-0.2589h0.52488c0.15279 0 0.2863-0.1218 0.2863-0.2849v-0.8287zm-6.7042 2.1494-0.19087 0.2071c-0.10804 0.1173-0.1062 0.299 0 0.4144l0.76346 0.8286c0.10623 0.1153 0.27369 0.1173 0.38173 0l0.38173-0.4143c0.23484 0.1482 0.49484 0.2589 0.76346 0.3366v0.5697c0 0.1658 0.11221 0.3107 0.26244 0.3107h1.0498c0.15023 0 0.26244-0.1449 0.26244-0.3107v-0.5697c0.26862-0.078 0.52862-0.1884 0.76347-0.3366l0.38173 0.4143c0.10804 0.1173 0.2755 0.1153 0.38173 0l0.76347-0.8286c0.10623-0.1154 0.10807-0.2971 0-0.4144l-0.19087-0.2071-0.5726 0.6215c-0.10623 0.1152-0.27369 0.1172-0.38173 0l-0.38173-0.4144c-0.23484 0.1482-0.49484 0.259-0.76347 0.3366v0.5697c0 0.1658-0.11221 0.3108-0.26244 0.3108h-1.0498c-0.15023 0-0.26244-0.145-0.26244-0.3108v-0.5697c-0.26862-0.078-0.52862-0.1884-0.76346-0.3366l-0.38173 0.4144c-0.10804 0.1172-0.2755 0.1152-0.38173 0l-0.5726-0.6215z" display="block" fill="#fff" opacity="0.3"/>
  <g transform="matrix(0.76347 0 0 0.82864 18.15 962.28)">
   <use xlink:href="#SVGCleanerId_9" opacity="0.25" transform="matrix(0.6661 0.18615 -0.18615 0.6661 12.834 -20.2)"/>
   <use xlink:href="#SVGCleanerId_9" opacity="0.5" transform="matrix(0.56927 0.39278 -0.39278 0.56927 43.954 -20.806)"/>
   <g transform="matrix(-0.56817 -0.39437 0.39437 -0.56817 111.74 128.88)">
    <rect x="136.91" stroke-width="1.446" rx="3" y="107.49" fill="url(#linearGradient36695)" stroke="#df453f" height="16" width="12.12" stroke-linejoin="round"/>
    <path d="m141.24 118.19a1.5468 3.9775 0 1 1 -3.0936 0 1.5468 3.9775 0 1 1 3.0936 0z" fill="#701300" filter="url(#filter3495)" opacity="0.3" transform="matrix(1.8857 0 0 1 -123.51 -1.944)"/>
    <path d="m146.31 113.12c-0.85193 9.5067-3.9375 8.3125-6.5 8.9375 4.0763 0.0625 8.625-0.0625 8.625-0.0625-2.4375-0.5625-1.8125-2.375-2.125-8.875z" fill="#fff" fill-rule="evenodd" filter="url(#filter3509)" opacity="0.8"/>
    <rect x="136.41" y="115.97" fill="url(#linearGradient36697)" height="1" opacity="0.2" width="12.12"/>
    <g transform="matrix(1 0 0 1 23.733 0)">
     <path d="m112.77 24.5 6.5-24 6.5 24v72h-13v-72z" stroke-width="1.446" fill="url(#linearGradient36699)" stroke="url(#linearGradient36701)" stroke-linejoin="round"/>
     <path d="m117.69 8.0717 3.1426 0.022097-1.5824-5.7913" fill="url(#linearGradient36703)" fill-rule="evenodd"/>
     <path d="m117.73 8.0902-3.77 13.91s-0.46779 1.6535-0.698 2.6083c-0.19122 0.64228 1.9589 1.6113 3.0182-1.6083 1.2153 4.5138 5.5759 3.438 5.9883 0.01105 0.3425 1.7015 1.754 2.95 2.9886 1.5219-0.23478-0.90874-0.43641-1.5219-0.43641-1.5219l-4.0217-14.921h-3.0715z" fill="url(#linearGradient36705)" fill-rule="evenodd"/>
     <path d="m122.37 96.305v-67.217" stroke-width="1.446" fill="none" stroke="url(#linearGradient36707)" opacity="0.3"/>
     <path d="m116.25 96.305v-67.217" stroke-width="1.446" fill="none" stroke="url(#linearGradient36709)" opacity="0.4"/>
     <path d="m118.7 5.9799-4.773 17.899 1.9887-0.83969 2.7842-17.059z" fill="#ac4311" fill-rule="evenodd" filter="url(#filter3382)" opacity="0.4"/>
     <path d="m113.08 24.625s1.4867 1.7649 3.25-1.5312c2 5.25 5.1686 2.0871 5.9375-0.03125 1.375 3.4375 3.125 1.4375 3.125 1.4375" stroke-width="1.446" fill="none" stroke="#4d2600" opacity="0.15"/>
     <path d="m144.06 8.9375-0.375 12.5 3.0625-0.3125-2.6875-12.188z" fill="#fff" fill-rule="evenodd" filter="url(#filter3390)" opacity="0.8" transform="matrix(1.1224 0 0 1.345 -41.703 -4.771)"/>
    </g>
    <rect x="136.5" stroke-width="1.446" y="96.5" fill="url(#linearGradient36711)" stroke="url(#linearGradient36713)" height="19" width="13" stroke-linejoin="round"/>
    <rect x="137" y="100" fill="url(#linearGradient36715)" height="1" opacity="0.4" width="12"/>
    <rect x="137" y="101" fill="url(#linearGradient36717)" height="1" opacity="0.6" width="12"/>
    <rect x="137" y="102" fill="url(#linearGradient36715)" height="1" opacity="0.4" width="12"/>
    <rect x="137" y="103" fill="url(#linearGradient36717)" height="1" opacity="0.6" width="12"/>
    <rect x="137" y="108" fill="url(#linearGradient36715)" height="1" opacity="0.4" width="12"/>
    <rect x="137" y="109" fill="url(#linearGradient36717)" height="1" opacity="0.6" width="12"/>
    <rect x="137" y="110" fill="url(#linearGradient36715)" height="1" opacity="0.4" width="12"/>
    <rect x="137" y="111" fill="url(#linearGradient36717)" height="1" opacity="0.6" width="12"/>
    <rect x="137" y="104" fill="url(#linearGradient36731)" height="4" opacity="0.3" width="12"/>
    <path d="m140 106.08a1.1013 8.3969 0 1 1 -2.2026 0 1.1013 8.3969 0 1 1 2.2026 0z" filter="url(#filter3451)" opacity="0.6" transform="matrix(1.2554 0 0 1 -35.754 0)"/>
    <path d="m147.34 106.04a1.1932 8.0875 0 1 1 -2.3865 0 1.1932 8.0875 0 1 1 2.3865 0z" fill="#fff" filter="url(#filter3457)" opacity="0.8"/>
   </g>
  </g>
  <path d="m5.7756 1029.8v5.0663c0 6.668 5.3434 12.032 11.985 12.032h60.809c6.6418 0 11.985-5.3645 11.985-12.032v-5.0663c0 6.6681-5.3434 12.032-11.985 12.032h-60.809c-6.6418 0-11.985-5.3643-11.985-12.032z" fill-opacity="0.235"/>
 </g>
</svg>
