<?xml version="1.0" encoding="UTF-8" standalone="no"?>
<svg
   xmlns:dc="http://purl.org/dc/elements/1.1/"
   xmlns:cc="http://creativecommons.org/ns#"
   xmlns:rdf="http://www.w3.org/1999/02/22-rdf-syntax-ns#"
   xmlns:svg="http://www.w3.org/2000/svg"
   xmlns="http://www.w3.org/2000/svg"
   xmlns:xlink="http://www.w3.org/1999/xlink"
   xmlns:sodipodi="http://sodipodi.sourceforge.net/DTD/sodipodi-0.dtd"
   xmlns:inkscape="http://www.inkscape.org/namespaces/inkscape"
   height="96"
   width="96"
   id="svg2260"
   version="1.1"
   inkscape:version="0.91 r13725"
   sodipodi:docname="gnome-mplayer.svg">
  <metadata
     id="metadata2373">
    <rdf:RDF>
      <cc:Work
         rdf:about="">
        <dc:format>image/svg+xml</dc:format>
        <dc:type
           rdf:resource="http://purl.org/dc/dcmitype/StillImage" />
      </cc:Work>
    </rdf:RDF>
  </metadata>
  <sodipodi:namedview
     pagecolor="#ffffff"
     bordercolor="#666666"
     borderopacity="1"
     objecttolerance="10"
     gridtolerance="10"
     guidetolerance="10"
     inkscape:pageopacity="0"
     inkscape:pageshadow="2"
     inkscape:window-width="640"
     inkscape:window-height="480"
     id="namedview2371"
     showgrid="false"
     inkscape:zoom="2.4583333"
     inkscape:cx="48"
     inkscape:cy="48"
     inkscape:current-layer="svg2260" />
  <defs
     id="defs2262">
    <linearGradient
       gradientUnits="userSpaceOnUse"
       id="linearGradient3260">
      <stop
         id="stop2265" />
      <stop
         stop-opacity="0.355"
         offset="0.2"
         id="stop2267" />
      <stop
         stop-opacity="0"
         offset="0.553"
         id="stop2269" />
      <stop
         stop-opacity="0"
         offset="1"
         id="stop2271" />
    </linearGradient>
    <radialGradient
       cy="85.13"
       r="36"
       gradientUnits="userSpaceOnUse"
       id="radialGradient63181"
       cx="48"
       gradientTransform="matrix(1.6385,0,0,1.6383,-151.69,902.59)">
      <stop
         stop-color="#44b0ff"
         id="stop2274" />
      <stop
         stop-color="#0a3859"
         offset="1"
         id="stop2276" />
    </radialGradient>
    <linearGradient
       x2="0"
       xlink:href="#linearGradient3260"
       y1="26"
       y2="34"
       gradientUnits="userSpaceOnUse"
       id="linearGradient63183"
       gradientTransform="matrix(0.72414,0,0,0.75,1.655,4.5)" />
    <linearGradient
       x2="0"
       y1="16.04"
       y2="20.33"
       gradientUnits="userSpaceOnUse"
       id="linearGradient63185"
       gradientTransform="translate(0,-0.679)">
      <stop
         stop-color="#fff"
         id="stop2280" />
      <stop
         stop-color="#fff"
         stop-opacity="0.498"
         offset="0.3"
         id="stop2282" />
      <stop
         stop-color="#fff"
         stop-opacity="0"
         offset="1"
         id="stop2284" />
    </linearGradient>
    <linearGradient
       x2="0"
       xlink:href="#linearGradient3260"
       y1="16"
       y2="11.925"
       gradientUnits="userSpaceOnUse"
       id="linearGradient63187"
       gradientTransform="matrix(1,0,0,1.25,0,-4.598)" />
    <linearGradient
       x2="0"
       xlink:href="#linearGradient3260"
       y1="16"
       y2="11.925"
       gradientUnits="userSpaceOnUse"
       id="linearGradient63189"
       gradientTransform="matrix(1,0,0,1.25,0,4.402)" />
    <linearGradient
       x1="11"
       x2="16"
       y1="10.442"
       y2="24"
       gradientUnits="userSpaceOnUse"
       id="linearGradient63191"
       gradientTransform="matrix(0.81331,0,0,0.81133,3.994,2.028)">
      <stop
         stop-color="#5d5d5d"
         id="stop2289" />
      <stop
         stop-color="#171717"
         offset="1"
         id="stop2291" />
    </linearGradient>
    <linearGradient
       x1="13.13"
       x2="19.25"
       y1="9.942"
       y2="24.5"
       gradientUnits="userSpaceOnUse"
       id="linearGradient63193"
       gradientTransform="matrix(0.81331,0,0,0.81133,3.994,2.028)">
      <stop
         stop-color="#919191"
         id="stop2294" />
      <stop
         stop-color="#232323"
         offset="1"
         id="stop2296" />
    </linearGradient>
    <radialGradient
       cy="14.938"
       r="1.438"
       gradientUnits="userSpaceOnUse"
       id="radialGradient63195"
       cx="11.312">
      <stop
         stop-color="#dfdfdf"
         id="stop2299" />
      <stop
         stop-color="#434343"
         offset="1"
         id="stop2301" />
    </radialGradient>
    <clipPath
       clipPathUnits="userSpaceOnUse"
       id="clipPath63201">
      <path
         d="m-101.77 963.04c-6.2914 0-11.337 5.3946-11.337 12.062v61.031c0 6.668 5.0459 12.031 11.337 12.031h57.604c6.2914 0 11.337-5.3632 11.337-12.031v-61.031c0-6.6679-5.0459-12.062-11.337-12.062h-57.604z"
         id="path2304" />
    </clipPath>
    <path
       d="m12.75 14.938a1.4375 1.4375 0 1 1 -2.875 0 1.4375 1.4375 0 1 1 2.875 0z"
       fill="url(#radialGradient63195)"
       fill-rule="evenodd"
       id="SVGCleanerId_1" />
    <linearGradient
       inkscape:collect="always"
       xlink:href="#linearGradient14231"
       id="linearGradient14237"
       x1="50.707542"
       y1="81.682442"
       x2="50.707542"
       y2="96.539803"
       gradientUnits="userSpaceOnUse" />
    <linearGradient
       inkscape:collect="always"
       id="linearGradient14231">
      <stop
         style="stop-color:#000000;stop-opacity:1;"
         offset="0"
         id="stop14233" />
      <stop
         style="stop-color:#000000;stop-opacity:0;"
         offset="1"
         id="stop14235" />
    </linearGradient>
    <linearGradient
       inkscape:collect="always"
       xlink:href="#linearGradient14239"
       id="linearGradient14245"
       x1="49.876652"
       y1="87.937508"
       x2="49.876652"
       y2="76.719681"
       gradientUnits="userSpaceOnUse" />
    <linearGradient
       inkscape:collect="always"
       id="linearGradient14239">
      <stop
         style="stop-color:#ffffff;stop-opacity:1;"
         offset="0"
         id="stop14241" />
      <stop
         style="stop-color:#ffffff;stop-opacity:0;"
         offset="1"
         id="stop14243" />
    </linearGradient>
  </defs>
  <rect
     style="fill-opacity:0.02000002"
     id="rect2309"
     width="89.620003"
     height="89.980003"
     y="2.9899757"
     rx="12.724"
     x="3.3529999" />
  <rect
     style="fill-opacity:0.03900003"
     id="rect2311"
     width="88.410004"
     height="88.760002"
     y="3.6000221"
     rx="12.552"
     x="3.9590001" />
  <rect
     style="fill-opacity:0.078"
     id="rect2313"
     width="87.199997"
     height="87.550003"
     y="4.2100072"
     rx="12.38"
     x="4.5640001" />
  <rect
     style="fill-opacity:0.15700001"
     id="rect2315"
     width="85.990997"
     height="86.330002"
     y="4.8199925"
     rx="12.208"
     x="5.1700001" />
  <g
     id="g2317"
     transform="matrix(1.0557,0,0,1,125.18,-957.627)"
     clip-path="url(#clipPath63201)">
    <path
       inkscape:connector-curvature="0"
       style="fill:url(#radialGradient63181)"
       id="path2319"
       d="m -115.12,977.54 0,5.366 0,48.294 0,13.415 c 0,2.9728 2.0851,5.366 4.6752,5.366 l 74.803,0 c 2.59,0 4.6752,-2.3932 4.6752,-5.366 l 0,-13.415 0,-48.294 0,-5.366 -4.6752,0 -74.803,0 -4.6752,0 z" />
    <path
       style="opacity:0.3;fill:#ffffff"
       inkscape:connector-curvature="0"
       id="path2321"
       d="m -115.12,1044.6 0,1.3415 c 0,2.9728 2.0851,5.366 4.6752,5.366 l 74.803,0 c 2.59,0 4.6752,-2.3932 4.6752,-5.366 l 0,-1.3415 c 0,2.9728 -2.0851,5.366 -4.6752,5.366 l -74.803,0 c -2.59,0 -4.6752,-2.3932 -4.6752,-5.366 z" />
    <path
       style="opacity:0.2"
       inkscape:connector-curvature="0"
       id="path2323"
       d="m -115.12,977.54 0,5.366 0,48.294 0,13.415 c 0,2.9728 2.0851,5.366 4.6752,5.366 l 74.803,0 c 2.59,0 4.6752,-2.3932 4.6752,-5.366 l 0,-13.415 0,-48.294 0,-5.366 -4.6752,0 -74.803,0 -4.6752,0 z m 2.3741,2.7249 2.3011,0 74.803,0 2.3011,0 0,2.6411 0,48.294 0,13.415 c 0,1.5007 -0.99361,2.6411 -2.3011,2.6411 l -74.803,0 c -1.3074,0 -2.3011,-1.1404 -2.3011,-2.6411 l 0,-13.415 0,-48.294 0,-2.6411 z" />
    <path
       style="fill:#0e3857"
       inkscape:connector-curvature="0"
       id="path2325"
       d="m -115.12,977.54 0,5.366 0,48.294 0,13.415 c 0,2.9728 2.0851,5.366 4.6752,5.366 l 74.803,0 c 2.59,0 4.6752,-2.3932 4.6752,-5.366 l 0,-13.415 0,-48.294 0,-5.366 -4.6752,0 -74.803,0 -4.6752,0 z m 1.2418,1.4253 3.4334,0 74.803,0 3.4334,0 0,3.9407 0,48.294 0,13.415 c 0,2.2014 -1.5154,3.9407 -3.4334,3.9407 l -74.803,0 c -1.9179,0 -3.4334,-1.7393 -3.4334,-3.9407 l 0,-13.415 0,-48.294 0,-3.9407 z" />
    <g
       id="g2327"
       transform="translate(-121.05,956.38)">
      <path
         inkscape:connector-curvature="0"
         id="path2329"
         d="M 12,6 C 8.676,6 6,8.676 6,12 l 0,12 84,0 0,-12 C 90,8.676 87.324,6 84,6 L 12,6 Z" />
      <rect
         style="opacity:0.8;fill:url(#linearGradient63183);fill-rule:evenodd"
         id="rect2331"
         width="84"
         height="6"
         y="24"
         x="6" />
      <rect
         style="opacity:0.3;fill:url(#linearGradient63185);fill-rule:evenodd"
         id="rect2333"
         width="84"
         height="5"
         y="15"
         x="6" />
      <g
         style="fill:#f0f0f0;fill-rule:evenodd"
         id="g2335"
         transform="translate(1,0)">
        <path
           inkscape:connector-curvature="0"
           id="path2337"
           d="M 28.333,6 23,15 28.333,24 39,24 33.667,15 39,6 28.333,6 Z" />
        <path
           inkscape:connector-curvature="0"
           id="path2339"
           d="M 50.333,6 45,15 50.333,24 61,24 55.667,15 61,6 50.333,6 Z" />
        <path
           inkscape:connector-curvature="0"
           id="path2341"
           d="M 72.333,6 67,15 72.333,24 83,24 77.667,15 83,6 72.333,6 Z" />
      </g>
      <rect
         style="opacity:0.7;fill:url(#linearGradient63187);fill-rule:evenodd"
         id="rect2343"
         width="84"
         height="5"
         y="10"
         x="6" />
      <rect
         style="opacity:0.7;fill:url(#linearGradient63189);fill-rule:evenodd"
         id="rect2345"
         width="84"
         height="5"
         y="19"
         x="6" />
      <path
         inkscape:connector-curvature="0"
         style="fill:url(#linearGradient63191);fill-rule:evenodd;stroke:url(#linearGradient63193);stroke-linejoin:round"
         id="path2347"
         d="m 12.005,10.5 c 1.1095,0 1.7702,0.98369 6.03,4.3027 4.3044,3.3537 5.4775,3.7265 5.4775,5.0746 0,1.3484 -1.0882,1.6227 -2.4399,1.6227 l -8.1331,0 c -1.352,0 -2.44,-1.086 -2.44,-2.434 l 0,-6.4906 c 0,-1.348 0.468,-2.075 1.505,-2.075 z" />
      <use
         height="100%"
         width="100%"
         y="0"
         x="0"
         id="use2349"
         transform="matrix(0.81331,0,0,0.81133,3.587,1.075)"
         xlink:href="#SVGCleanerId_1" />
      <use
         height="100%"
         width="100%"
         y="0"
         x="0"
         id="use2351"
         transform="matrix(0.81331,0,0,0.81133,3.587,7.099)"
         xlink:href="#SVGCleanerId_1" />
      <use
         height="100%"
         width="100%"
         y="0"
         x="0"
         id="use2353"
         transform="matrix(0.81331,0,0,0.81133,11.618,7.099)"
         xlink:href="#SVGCleanerId_1" />
    </g>
  </g>
  <g
     style="fill-rule:evenodd"
     id="g2359"
     transform="matrix(1.1143,0,0,1.1143,251.54,-1063.85)">
    <rect
       style="opacity:0.3;fill:#ffffff"
       id="rect2361"
       width="35.060001"
       height="34.820999"
       y="985.94"
       ry="4.3530002"
       rx="4.3829999"
       x="-199.96001" />
    <path
       style="fill:#ffffff"
       inkscape:connector-curvature="0"
       id="path2363"
       d="m -191.61,990.59 0,25.535 21.038,-12.768 z" />
    <path
       style="opacity:0.5;fill:#0a3859"
       inkscape:connector-curvature="0"
       id="path2365"
       d="m -176.15,981.16 c -0.84144,-0.0584 -1.6951,0.12822 -2.4837,0.58035 l -7.3415,4.2076 14.866,0 -1.534,-2.6116 c -0.7588,-1.3052 -2.104,-2.079 -3.5064,-2.1763 z m -23.814,10.954 -2.6298,1.5234 c -2.1029,1.2056 -2.8212,3.8604 -1.6071,5.9486 l 4.2369,7.2906 0,-14.763 z m 35.064,7.726 0,14.763 2.6298,-1.5234 c 2.1029,-1.2057 2.8212,-3.8603 1.6071,-5.9487 l -4.2369,-7.2906 z m -28.855,20.929 1.534,2.6116 c 1.2141,2.0883 3.8872,2.8017 5.9901,1.596 l 7.3415,-4.2076 -14.866,0 z" />
    <path
       style="opacity:0.05"
       inkscape:connector-curvature="0"
       id="path2367"
       d="m -195.58,983.66 c -3.6647,0 -6.6841,2.9984 -6.6841,6.6378 l 0,26.116 c 0,3.6393 3.0193,6.6378 6.6841,6.6378 l 26.298,0 c 3.6647,0 6.6841,-2.9985 6.6841,-6.6378 l 0,-26.116 c 0,-3.6394 -3.0193,-6.6378 -6.6841,-6.6378 l -26.298,0 z m 0,2.2851 26.298,0 c 2.4282,0 4.383,1.9413 4.383,4.3526 l 0,26.116 c 0,2.4114 -1.9548,4.3526 -4.383,4.3526 l -26.298,0 c -2.4282,0 -4.383,-1.9412 -4.383,-4.3526 l 0,-26.116 c 0,-2.4114 1.9548,-4.3526 4.383,-4.3526 z" />
    <path
       style="opacity:0.1"
       inkscape:connector-curvature="0"
       id="path2369"
       d="m -195.58,984.78 c -3.0637,0 -5.5518,2.4709 -5.5518,5.5134 l 0,26.116 c 0,3.0425 2.4881,5.5134 5.5518,5.5134 l 26.298,0 c 3.0637,0 5.5518,-2.4709 5.5518,-5.5134 l 0,-26.116 c 0,-3.0425 -2.4881,-5.5134 -5.5518,-5.5134 l -26.298,0 z m 0,1.1607 26.298,0 c 2.4282,0 4.383,1.9413 4.383,4.3526 l 0,26.116 c 0,2.4114 -1.9548,4.3526 -4.383,4.3526 l -26.298,0 c -2.4282,0 -4.383,-1.9412 -4.383,-4.3526 l 0,-26.116 c 0,-2.4114 1.9548,-4.3526 4.383,-4.3526 z" />
  </g>
  <g
     id="g14291">
    <path
       d="m 5.2922679,73.685059 0,5.0663 c 0,6.668 5.3645011,12.032 12.0320011,12.032 l 61.049,0 c 6.668,0 12.032,-5.3645 12.032,-12.032 l 0,-5.0663 c 0,6.6681 -5.3645,12.032 -12.032,12.032 l -61.049,0 c -6.668,0 -12.0320011,-5.3643 -12.0320011,-12.032 z"
       id="path64"
       inkscape:connector-curvature="0"
       style="opacity:0.4;fill:url(#linearGradient14237);fill-opacity:1" />
    <path
       inkscape:connector-curvature="0"
       id="path14214"
       d="m 5.2929688,72.717592 0,1.15039 c 0,6.667718 5.3632502,12.031248 12.0312502,12.031248 l 61.048828,0 c 6.6675,0 12.03125,-5.36313 12.03125,-12.031248 l 0,-1.15039 c 0,6.668098 -5.36375,12.031248 -12.03125,12.031248 l -61.048828,0 c -6.668,0 -12.0312502,-5.36355 -12.0312502,-12.031248 z"
       style="opacity:0.5;fill:url(#linearGradient14245);fill-opacity:1" />
  </g>
</svg>
