<?xml version="1.0" encoding="UTF-8" standalone="no"?>
<svg
   xmlns:dc="http://purl.org/dc/elements/1.1/"
   xmlns:cc="http://creativecommons.org/ns#"
   xmlns:rdf="http://www.w3.org/1999/02/22-rdf-syntax-ns#"
   xmlns:svg="http://www.w3.org/2000/svg"
   xmlns="http://www.w3.org/2000/svg"
   xmlns:xlink="http://www.w3.org/1999/xlink"
   xmlns:sodipodi="http://sodipodi.sourceforge.net/DTD/sodipodi-0.dtd"
   xmlns:inkscape="http://www.inkscape.org/namespaces/inkscape"
   height="96"
   width="96"
   id="svg2"
   version="1.1"
   inkscape:version="0.48.5 r10040"
   sodipodi:docname="multimedia-audio-player.svg">
  <metadata
     id="metadata62">
    <rdf:RDF>
      <cc:Work
         rdf:about="">
        <dc:format>image/svg+xml</dc:format>
        <dc:type
           rdf:resource="http://purl.org/dc/dcmitype/StillImage" />
        <dc:title></dc:title>
      </cc:Work>
    </rdf:RDF>
  </metadata>
  <sodipodi:namedview
     pagecolor="#ffffff"
     bordercolor="#666666"
     borderopacity="1"
     objecttolerance="10"
     gridtolerance="10"
     guidetolerance="10"
     inkscape:pageopacity="0"
     inkscape:pageshadow="2"
     inkscape:window-width="1366"
     inkscape:window-height="688"
     id="namedview60"
     showgrid="false"
     inkscape:zoom="2.4583333"
     inkscape:cx="97.962051"
     inkscape:cy="35.224741"
     inkscape:window-x="0"
     inkscape:window-y="24"
     inkscape:window-maximized="1"
     inkscape:current-layer="svg2" />
  <defs
     id="defs4">
    <linearGradient
       x2="0"
       y1="20.221"
       y2="138.66"
       gradientUnits="userSpaceOnUse"
       id="linearGradient3613-88">
      <stop
         stop-color="#fff"
         id="stop7" />
      <stop
         stop-color="#fff"
         stop-opacity="0"
         offset="1"
         id="stop9" />
    </linearGradient>
    <clipPath
       id="clipPath3613-298">
      <rect
         x="6"
         rx="6"
         y="6"
         height="84"
         width="84"
         id="rect12" />
    </clipPath>
    <filter
       x="-0.192"
       y="-0.192"
       height="1.384"
       color-interpolation-filters="sRGB"
       id="filter3794-99"
       width="1.384">
      <feGaussianBlur
         stdDeviation="5.28"
         id="feGaussianBlur15" />
    </filter>
    <clipPath
       id="clipPath3754">
      <path
         d="m-78 6c-3.324 0-6 2.676-6 6v72c0 3.324 2.676 6 6 6h72c3.324 0 6-2.676 6-6v-72c0-3.324-2.676-6-6-6h-72zm4 10a64 64 0 0 1 64 64h-12.812a51.2 51.2 0 0 0 -51.188 -51.188v-12.812zm0 21.562a42.423 42.423 0 0 1 42.438 42.438h-12.438a29.989 29.989 0 0 0 -30 -30v-12.438zm8.7812 24.875c4.8475 0 8.7812 3.9338 8.7812 8.7812 0 4.848-3.933 8.782-8.781 8.782-4.847 0-8.781-3.934-8.781-8.781 0-4.8475 3.9338-8.7812 8.7812-8.7812z"
         id="path18" />
    </clipPath>
    <filter
       x="-0.12"
       y="-0.12"
       height="1.24"
       color-interpolation-filters="sRGB"
       id="filter3762"
       width="1.24">
      <feGaussianBlur
         stdDeviation="3.2"
         id="feGaussianBlur21" />
    </filter>
    <clipPath
       id="clipPath3775-8">
      <path
         d="m-84 16v12.8a51.2 51.2 0 0 1 51.2 51.2h12.8a64 64 0 0 0 -64 -64zm0 21.577v12.434a29.989 29.989 0 0 1 29.989 29.989h12.434a42.423 42.423 0 0 0 -42.423 -42.423zm8.7771 24.869c-4.847 0-8.777 3.929-8.777 8.777 0 4.847 3.93 8.777 8.777 8.777 4.8475 0 8.7771-3.9297 8.7771-8.7771 0-4.8475-3.9297-8.7771-8.7771-8.7771z"
         id="path24" />
    </clipPath>
    <filter
       color-interpolation-filters="sRGB"
       id="filter3787">
      <feGaussianBlur
         stdDeviation="0.42"
         id="feGaussianBlur27" />
    </filter>
    <linearGradient
       x2="0"
       y1="90"
       y2="5.988"
       gradientUnits="userSpaceOnUse"
       id="linearGradient3088-5"
       gradientTransform="matrix(1.0884,0,0,1.0791,-3.852,-4.04)">
      <stop
         stop-color="#d4530d"
         id="stop30" />
      <stop
         stop-color="#f7ad25"
         offset="1"
         id="stop32" />
    </linearGradient>
    <path
       opacity="0.25"
       id="SVGCleanerId_2"
       fill="url(#linearGradient3089)"
       d="m39.875 30.156v26.344c-1.8502-0.72456-4.2549-0.83122-6.75-0.15625-4.6631 1.2614-7.7903 4.7796-6.9688 7.875 0.82155 3.0954 5.2744 4.6052 9.9375 3.3438 3.9617-1.0717 6.7997-3.7785 7.0625-6.4688h0.03125v-19.375l16.625 2.0938v18.75c-1.8502-0.72456-4.2862-0.86247-6.7812-0.1875-4.6631 1.2614-7.7903 4.8108-6.9688 7.9062 0.82155 3.0954 5.2744 4.6052 9.9375 3.3438 3.9617-1.0717 6.7997-3.8097 7.0625-6.5h0.03125v-33.844l-23.219-3.125zm1.75 1.9688 19.719 2.6562v3.2812a1.7489 1.7489 0 0 0 -1.282 -0.906l-16.625-2.375a1.7489 1.7489 0 0 0 -1.8125 0.9375v-3.5938zm1.5625 4.375 16.625 2.375v2.125l-16.625-2.0938v-2.4062zm-1.5625 3.1562a1.7489 1.7489 0 0 0 0.53125 0.65625 1.7489 1.7489 0 0 0 -0.53125 0.625v-1.2812zm19.719 2.1875v1.1562a1.7489 1.7489 0 0 0 -0.5 -0.59375 1.7489 1.7489 0 0 0 0.5 -0.5625zm-19.906 15.438v3.4688a1.7489 1.7489 0 0 0 -0.03125 0.1875c-0.15538 1.5908-2.3328 4.0046-5.7812 4.9375-2.0263 0.54816-3.9658 0.47529-5.375 0s-2.1783-1.235-2.4062-2.0938c-0.22751-0.85723 0.07077-1.9121 1.0625-3.0312s2.6564-2.1693 4.6875-2.7188c2.1769-0.58888 4.2308-0.46446 5.6562 0.09375a1.7489 1.7489 0 0 0 2.1875 -0.84375zm19.906 6.125v3.375a1.7489 1.7489 0 0 0 -0.03125 0.1875c-0.15551 1.5921-2.341 4.0381-5.7812 4.9688-2.0263 0.54816-3.9658 0.47529-5.375 0s-2.1783-1.235-2.4062-2.0938c-0.22714-0.85583 0.06942-1.9357 1.0625-3.0625s2.6599-2.1703 4.6875-2.7188c2.1602-0.58437 4.2524-0.437 5.6875 0.125a1.7489 1.7489 0 0 0 2.1562 -0.78125z" />
    <rect
       width="84"
       id="SVGCleanerId_1"
       height="84"
       y="6"
       rx="6"
       x="6" />
    <rect
       stroke-linecap="round"
       width="66"
       id="SVGCleanerId_0"
       filter="url(#filter3794-0)"
       height="66"
       stroke="#fff"
       fill="url(#linearGradient3613-3)"
       y="15"
       rx="12"
       stroke-width="0.5"
       x="15" />
    <linearGradient
       gradientTransform="matrix(1 0 0 1 0 -2)"
       id="linearGradient3089"
       gradientUnits="userSpaceOnUse"
       y2="31.848"
       y1="75.72"
       x2="0">
      <stop
         id="stop3070"
         stop-opacity="0.784"
         stop-color="#aa7932"
         offset="0"
         style="stop-color:black;stop-opacity:0.70454544;" />
      <stop
         id="stop3072"
         offset="1"
         stop-opacity="0.392"
         stop-color="#aa7932"
         style="stop-color:#040301;stop-opacity:0.39200002;" />
    </linearGradient>
    <linearGradient
       gradientTransform="translate(0,956.36)"
       id="linearGradient4640"
       gradientUnits="userSpaceOnUse"
       x2="6.187"
       x1="93.01">
      <stop
         id="stop3065"
         stop-opacity="0.077"
         stop-color="#be8e4a" />
      <stop
         id="stop3067"
         offset="1"
         stop-color="#a67c25" />
    </linearGradient>
    <linearGradient
       id="linearGradient5696"
       gradientUnits="userSpaceOnUse"
       y2="81.48"
       y1="22.933"
       xlink:href="#linearGradient3613-3"
       x2="0" />
    <filter
       width="1.331"
       id="filter3870"
       color-interpolation-filters="sRGB"
       height="1.394"
       y="-0.197"
       x="-0.166">
      <feGaussianBlur
         id="feGaussianBlur3061"
         stdDeviation="5.17031" />
    </filter>
    <clipPath
       id="clipPath3860">
      <rect
         id="rect3058"
         width="84"
         height="72"
         y="18"
         rx="6"
         x="6" />
    </clipPath>
    <clipPath
       id="clipPath3613-25">
      <use
         id="use3055"
         xlink:href="#SVGCleanerId_1" />
    </clipPath>
    <filter
       width="1.384"
       id="filter3794-0"
       color-interpolation-filters="sRGB"
       height="1.384"
       y="-0.192"
       x="-0.192">
      <feGaussianBlur
         id="feGaussianBlur3052"
         stdDeviation="5.28" />
    </filter>
    <clipPath
       id="clipPath3613-29">
      <use
         id="use3049"
         xlink:href="#SVGCleanerId_1" />
    </clipPath>
    <linearGradient
       id="linearGradient3613-3"
       gradientUnits="userSpaceOnUse"
       y2="138.66"
       y1="20.221"
       x2="0">
      <stop
         id="stop3044"
         stop-color="#fff" />
      <stop
         id="stop3046"
         offset="1"
         stop-opacity="0"
         stop-color="#fff" />
    </linearGradient>
    <linearGradient
       inkscape:collect="always"
       xlink:href="#linearGradient3088-5"
       id="linearGradient3223"
       gradientUnits="userSpaceOnUse"
       gradientTransform="matrix(1.0884,0,0,1.0791,-3.852,-4.04)"
       y1="90"
       x2="0"
       y2="5.988" />
    <linearGradient
       inkscape:collect="always"
       xlink:href="#linearGradient3089"
       id="linearGradient3238"
       gradientUnits="userSpaceOnUse"
       gradientTransform="translate(3.4427735,-6.1117502)"
       y1="75.72"
       x2="0"
       y2="31.848" />
    <linearGradient
       inkscape:collect="always"
       xlink:href="#linearGradient3089"
       id="linearGradient3241"
       gradientUnits="userSpaceOnUse"
       gradientTransform="translate(3.4427735,-6.1117502)"
       y1="75.72"
       x2="0"
       y2="31.848" />
    <linearGradient
       inkscape:collect="always"
       xlink:href="#linearGradient3088-5"
       id="linearGradient4053"
       gradientUnits="userSpaceOnUse"
       gradientTransform="matrix(1.0884,0,0,1.0791,-3.852,-4.04)"
       y1="90"
       x2="0"
       y2="5.988" />
    <linearGradient
       inkscape:collect="always"
       xlink:href="#linearGradient3613-88"
       id="linearGradient4055"
       gradientUnits="userSpaceOnUse"
       y1="20.221"
       x2="0"
       y2="138.66" />
    <linearGradient
       inkscape:collect="always"
       xlink:href="#linearGradient3089"
       id="linearGradient4057"
       gradientUnits="userSpaceOnUse"
       gradientTransform="translate(3.4427735,-6.1117502)"
       y1="75.72"
       x2="0"
       y2="31.848" />
    <linearGradient
       inkscape:collect="always"
       xlink:href="#linearGradient3089"
       id="linearGradient4059"
       gradientUnits="userSpaceOnUse"
       gradientTransform="translate(3.4427735,-6.1117502)"
       y1="75.72"
       x2="0"
       y2="31.848" />
  </defs>
  <g
     id="g4036"
     transform="translate(-0.1630013,0.02002263)">
    <rect
       x="3.3529999"
       rx="12.724"
       y="2.9899757"
       height="89.980003"
       width="89.620003"
       id="rect36"
       style="fill-opacity:0.02000002" />
    <rect
       x="3.9590001"
       rx="12.552"
       y="3.6000221"
       height="88.760002"
       width="88.410004"
       id="rect38"
       style="fill-opacity:0.03900003" />
    <rect
       x="4.5640001"
       rx="12.38"
       y="4.2100072"
       height="87.550003"
       width="87.199997"
       id="rect40"
       style="fill-opacity:0.078" />
    <rect
       x="5.1700001"
       rx="12.208"
       y="4.8199925"
       height="86.330002"
       width="85.990997"
       id="rect42"
       style="fill-opacity:0.15700001" />
    <path
       d="m 17.75,5.4062 c -6.642,0 -11.969,5.3948 -11.969,12.063 l 2e-4,61.031 c 0,6.668 5.3268,12.031 11.969,12.031 h 60.812 c 6.642,0 11.969,-5.363 11.969,-12.031 v -61.031 c 0,-6.668 -5.327,-12.063 -11.969,-12.063 l -60.812,2e-4 z"
       id="path44"
       style="fill:url(#linearGradient4053)"
       inkscape:connector-curvature="0" />
    <path
       d="m 5.7756,73.44 v 5.0663 c 0,6.668 5.3434,12.032 11.985,12.032 h 60.809 c 6.6418,0 11.985,-5.3645 11.985,-12.032 V 73.44 c 0,6.6681 -5.3434,12.032 -11.985,12.032 h -60.809 c -6.6418,0 -11.985,-5.3643 -11.985,-12.032 z"
       id="path46"
       inkscape:connector-curvature="0"
       style="fill-opacity:0.17000002" />
    <path
       d="m 5.7756,77.54 v 1.0133 c 0,6.668 5.3434,12.032 11.985,12.032 h 60.809 c 6.6418,0 11.985,-5.3645 11.985,-12.032 V 77.54 c 0,6.6681 -5.3434,12.032 -11.985,12.032 h -60.809 c -6.6418,0 -11.985,-5.3644 -11.985,-12.032 z"
       id="path48"
       inkscape:connector-curvature="0"
       style="fill-opacity:0.09800002" />
    <rect
       x="15"
       rx="12"
       y="15"
       clip-path="url(#clipPath3613-298)"
       height="66"
       width="66"
       transform="translate(0.194,-0.83)"
       id="rect50"
       style="opacity:0.1;fill:url(#linearGradient4055);stroke:white;stroke-width:0.5;stroke-linecap:round;filter:url(#filter3794-99)" />
    <path
       style="opacity:0.05;fill:white"
       inkscape:connector-curvature="0"
       d="m 43.161774,23.91925 a 2.1289,2.1289 0 0 0 -1.9688,2.125 v 23.781 c -1.654001,-0.1775 -3.395001,-0.14116 -5.1875,0.34375 -2.6973,0.72966 -4.9715,2.1108 -6.5625,3.9062 -1.591001,1.7954 -2.5401,4.1743 -1.9062,6.5625 0.63337,2.3864 2.6332,4.0146 4.9062,4.7812 2.272999,0.76664 4.9532,0.82497 7.656199,0.09375 4.229,-1.143 7.526001,-3.868 8.344001,-7.436 a 2.1289,2.1289 0 0 0 0.3125,-1.0938 v -16.938 l 12.375,1.5625 v 14.281 c -1.6596,-0.188 -3.413601,-0.17583 -5.218801,0.3125 -2.7015,0.73082 -4.9731,2.1029 -6.5625,3.9062 -1.589399,1.8034 -2.540599,4.2038 -1.906199,6.5938 0.633369,2.3864 2.6332,4.0146 4.906199,4.7812 2.273001,0.76664 4.953201,0.82497 7.6562,0.09375 4.238,-1.1464 7.5276,-3.8974 8.3438,-7.4688 a 2.1289,2.1289 0 0 0 0.3125,-1.0938 v -33.844 a 2.1289,2.1289 0 0 0 -1.8438,-2.125 l -23.219,-3.125 a 2.1289,2.1289 0 0 0 -0.4375,0 z m 0.15625,2.125 23.219,3.125 v 33.844 h -0.03125 c -0.26277,2.6903 -3.1008,5.4283 -7.0625,6.5 -4.6631,1.2614 -9.116,-0.2483 -9.9375,-3.3438 -0.82154,-3.0954 2.3057,-6.6448 6.9688,-7.9062 2.4951,-0.67497 4.931,-0.53706 6.7812,0.1875 v -18.75 l -16.625,-2.0938 v 19.375 h -0.03125 c -0.26277,2.6903 -3.1008,5.397 -7.0625,6.4688 -4.6631,1.2614 -9.116,-0.2483 -9.9375,-3.3438 -0.82154,-3.0954 2.3057,-6.6136 6.9688,-7.875 2.4951,-0.67497 4.8998,-0.56832 6.75,0.15625 v -26.344 z m 3.3125,6.3438 v 2.4062 l 16.625,2.0938 v -2.125 l -16.625,-2.375 z"
       id="path3113" />
    <path
       style="opacity:0.1;fill:white"
       inkscape:connector-curvature="0"
       d="m 43.130774,24.85725 a 1.1794,1.1794 0 0 0 -1,1.1875 v 24.938 c -1.8063,-0.37748 -3.7885,-0.43944 -5.875,0.125 -2.5341,0.68553 -4.6807,1.9639 -6.125,3.5938 -1.4443,1.6298 -2.1906,3.7054 -1.6562,5.7188 0.53409,2.0124 2.2197,3.4297 4.2812,4.125 2.061499,0.6953 4.5564,0.71765 7.0938,0.03125 4.0874,-1.1057 7.1816,-3.7676 7.7812,-6.9688 a 1.1794,1.1794 0 0 0 0.15625,-0.4375 1.1794,1.1794 0 0 0 0,-0.0625 1.1794,1.1794 0 0 0 0.03125,-0.125 v -18.062 l 14.25,1.8125 v 16.281 c -1.8102,-0.38548 -3.8124,-0.44144 -5.9062,0.125 -2.5365,0.68617 -4.6817,1.9873 -6.125,3.625 -1.4433,1.6377 -2.1909,3.7044 -1.6562,5.7188 0.53409,2.0124 2.2197,3.4297 4.2812,4.125 2.0615,0.6953 4.5564,0.71765 7.0938,0.03125 4.0927,-1.1072 7.182099,-3.7968 7.7812,-7 a 1.1794,1.1794 0 0 0 0.15625,-0.4375 1.1794,1.1794 0 0 0 0,-0.0625 1.1794,1.1794 0 0 0 0.03125,-0.125 v -33.844 a 1.1794,1.1794 0 0 0 -1.032,-1.156 l -23.219,-3.125 a 1.1794,1.1794 0 0 0 -0.21875,-0.03125 1.1794,1.1794 0 0 0 -0.125,0 z m 0.1875,1.1875 23.218999,3.125 v 33.844 h -0.03125 c -0.26277,2.6903 -3.100799,5.4283 -7.062499,6.5 -4.6631,1.2614 -9.116,-0.2483 -9.9375,-3.3438 -0.82154,-3.0954 2.3057,-6.6448 6.9688,-7.9062 2.4951,-0.67497 4.931,-0.53706 6.7812,0.1875 v -18.75 l -16.625,-2.0938 v 19.375 h -0.03125 c -0.26277,2.6903 -3.1008,5.397 -7.0625,6.4688 -4.6631,1.2614 -9.116,-0.2483 -9.9375,-3.3438 -0.82154,-3.0954 2.3057,-6.6136 6.9688,-7.875 2.495101,-0.67497 4.8998,-0.56832 6.75,0.15625 v -26.344 z m 3.3125,6.3438 v 2.4062 l 16.625,2.0938 v -2.125 l -16.625,-2.375 z m 1.1875,1.3438 1.875,0.28125 -1.875,-0.25 v -0.03125 z"
       id="path3115" />
    <path
       style="opacity:0.9;fill:white"
       inkscape:connector-curvature="0"
       d="m 43.323774,26.05225 -3e-6,26.346 c -1.8502,-0.72456 -4.268,-0.84838 -6.7631,-0.17341 -4.6631,1.2614 -7.7896,4.8027 -6.968,7.8982 0.82155,3.0954 5.2688,4.5878 9.9318,3.3264 3.9617,-1.0717 6.7999,-3.789 7.0626,-6.4793 h 0.03153 v -19.375 l 16.632,2.0967 v 18.76 c -1.8502,-0.72456 -4.268,-0.84838 -6.7631,-0.17341 -4.6631,1.2614 -7.7896,4.8027 -6.968,7.8982 0.82155,3.0954 5.2688,4.5878 9.9318,3.3264 3.9617,-1.0717 6.7999,-3.789 7.0626,-6.4793 h 0.03153 v -33.85 l -23.221,-3.1214 z m 3.2948,6.3401 16.632,2.3805 v 2.1282 l -16.632001,-2.0967 v -2.412 z"
       id="path3117" />
    <use
       transform="translate(3.4427735,-4.1117502)"
       height="1"
       width="1"
       y="0"
       x="0"
       xlink:href="#SVGCleanerId_2"
       id="use3119" />
    <path
       style="fill:url(#linearGradient4057)"
       inkscape:connector-curvature="0"
       d="m 43.317774,26.04425 v 1 l 23.218999,3.125 v -1 l -23.218999,-3.125 z m 3.3125,8.75 v 1 l 16.625,2.0938 v -1 l -16.625,-2.0938 z m -7.3125,17 c -0.888061,0.0389 -1.814301,0.18439 -2.75,0.4375 -4.4368,1.2002 -7.485,4.4572 -7.0625,7.4375 0.288889,-2.6783 3.1205,-5.3711 7.0625,-6.4375 2.4951,-0.67497 4.8998,-0.56832 6.75,0.15625 v -1 c -1.1564,-0.45285 -2.5199,-0.65858 -4,-0.59375 z m 20.781,6.0312 c -1.1476,-0.03715 -2.3775,0.10002 -3.625,0.4375 -4.371601,1.1826 -7.378901,4.3683 -7.0625,7.3125 0.37924,-2.6268 3.1963,-5.2666 7.0625,-6.3125 2.4951,-0.67497 4.930999,-0.53706 6.781199,0.1875 v -1 c -0.9251,-0.36228 -2.0086,-0.58785 -3.156199,-0.625 z"
       id="path3121" />
    <path
       style="opacity:0.5;fill:url(#linearGradient4059)"
       inkscape:connector-curvature="0"
       d="m 43.317774,26.04425 v 26.344 c -1.8502,-0.72456 -4.2549,-0.83122 -6.75,-0.15625 -4.6631,1.2614 -7.790301,4.7796 -6.968801,7.875 0.82155,3.0954 5.2744,4.6052 9.9375,3.3438 3.961701,-1.0717 6.799701,-3.7785 7.0625,-6.4688 h 0.03125 V 37.607 l 16.625,2.0938 v 18.75 c -1.8502,-0.72456 -4.2862,-0.86247 -6.781199,-0.1875 -4.6631,1.2614 -7.790301,4.8108 -6.968801,7.9062 0.821551,3.0954 5.2744,4.6052 9.9375,3.3438 3.961701,-1.0717 6.799701,-3.8097 7.0625,-6.5 h 0.03125 v -33.844 l -23.219,-3.125 z m 0.78125,0.90625 21.655999,2.9062 v 32.938 a 0.79106,0.79106 0 0 0 -0.03125,0.15625 c -0.214249,2.1936 -2.7742,4.8046 -6.499999,5.8125 -2.193501,0.59338 -4.314901,0.516 -5.9375,-0.03125 -1.6226,-0.54725 -2.703201,-1.5139 -3.0312,-2.75 -0.327711,-1.2348 0.14089,-2.6436 1.2812,-3.9375 1.140399,-1.2939 2.9622,-2.4377 5.156199,-3.0312 2.343601,-0.63399 4.6188,-0.46353 6.2812,0.1875 a 0.79106,0.79106 0 0 0 1.0625,-0.75 v -18.75 a 0.79106,0.79106 0 0 0 -0.687499,-0.78125 l -16.625,-2.0938 a 0.79106,0.79106 0 0 0 -0.875,0.78125 v 19.156 a 0.79106,0.79106 0 0 0 -0.029,0.157 c -0.2142,2.193 -2.770401,4.7723 -6.5,5.7812 -2.1935,0.59338 -4.314901,0.516 -5.9375,-0.03125 -1.6226,-0.54725 -2.7032,-1.5139 -3.0312,-2.75 -0.32788,-1.2354 0.1415,-2.6201 1.2812,-3.9062 1.139699,-1.2862 2.960599,-2.4373 5.156199,-3.0312 2.351101,-0.63603 4.591901,-0.49307 6.25,0.15625 a 0.79106,0.79106 0 0 0 1.0625,-0.75 V 26.951 z m 2.406199,4.6562 a 0.79106,0.79106 0 0 0 -0.655999,0.782 v 2.4062 a 0.79106,0.79106 0 0 0 0.6875,0.78125 l 16.625,2.0938 a 0.79106,0.79106 0 0 0 0.874999,-0.781 v -2.125 a 0.79106,0.79106 0 0 0 -0.655999,-0.781 l -16.625,-2.375 a 0.79106,0.79106 0 0 0 -0.25,0 z m 0.125,0.78125 16.625,2.375 v 2.125 l -16.625,-2.0938 v -2.4062 z"
       id="path3123" />
    <path
       style="opacity:0.2;fill:white"
       inkscape:connector-curvature="0"
       d="m 46.630774,32.38825 v 1 l 16.625,2.375 v -1 l -16.625,-2.375 z m 0,5.2188 v 1 l 16.625,2.0938 v -1 l -16.625,-2.0938 z m -0.03125,19.375 c -0.26277,2.6903 -3.1008,5.397 -7.0625,6.4688 -4.6631,1.2614 -9.116,-0.2483 -9.9375,-3.3438 -0.03987,-0.15022 -0.0722,-0.28549 -0.09375,-0.4375 -0.05284,0.48987 -0.03328,0.95887 0.09375,1.4375 0.82155,3.0954 5.2744,4.6052 9.9375,3.3438 3.9617,-1.0717 6.7997,-3.7785 7.0625,-6.4688 h 0.03125 v -1 h -0.03125 z m 19.905,6.031 c -0.26277,2.6903 -3.1008,5.4283 -7.0625,6.5 -4.6631,1.2614 -9.116,-0.2483 -9.9375,-3.3438 -0.04607,-0.1736 -0.07209,-0.35533 -0.09375,-0.53125 -0.06761,0.52083 -0.0413,1.0224 0.09375,1.5312 0.82155,3.0954 5.2744,4.6052 9.9375,3.3438 3.9617,-1.0717 6.7997,-3.8097 7.0625,-6.5 h 0.03125 v -1 h -0.03125 z"
       id="path3125" />
  </g>
</svg>
