<?xml version="1.0" encoding="UTF-8" standalone="no"?>
<svg
   xmlns:osb="http://www.openswatchbook.org/uri/2009/osb"
   xmlns:dc="http://purl.org/dc/elements/1.1/"
   xmlns:cc="http://creativecommons.org/ns#"
   xmlns:rdf="http://www.w3.org/1999/02/22-rdf-syntax-ns#"
   xmlns:svg="http://www.w3.org/2000/svg"
   xmlns="http://www.w3.org/2000/svg"
   xmlns:xlink="http://www.w3.org/1999/xlink"
   xmlns:sodipodi="http://sodipodi.sourceforge.net/DTD/sodipodi-0.dtd"
   xmlns:inkscape="http://www.inkscape.org/namespaces/inkscape"
   height="96"
   width="96"
   id="svg2"
   version="1.1"
   inkscape:version="0.91 r13725"
   sodipodi:docname="notifications.svg">
  <metadata
     id="metadata51">
    <rdf:RDF>
      <cc:Work
         rdf:about="">
        <dc:format>image/svg+xml</dc:format>
        <dc:type
           rdf:resource="http://purl.org/dc/dcmitype/StillImage" />
      </cc:Work>
    </rdf:RDF>
  </metadata>
  <sodipodi:namedview
     pagecolor="#ffffff"
     bordercolor="#666666"
     borderopacity="1"
     objecttolerance="10"
     gridtolerance="10"
     guidetolerance="10"
     inkscape:pageopacity="0"
     inkscape:pageshadow="2"
     inkscape:window-width="1366"
     inkscape:window-height="708"
     id="namedview49"
     showgrid="false"
     inkscape:zoom="2.4583333"
     inkscape:cx="87.79831"
     inkscape:cy="31.148228"
     inkscape:window-x="0"
     inkscape:window-y="24"
     inkscape:window-maximized="1"
     inkscape:current-layer="svg2" />
  <defs
     id="defs4">
    <linearGradient
       inkscape:collect="always"
       id="linearGradient4245">
      <stop
         style="stop-color:#d2d2d2;stop-opacity:1"
         offset="0"
         id="stop4247" />
      <stop
         style="stop-color:#ffffff;stop-opacity:1"
         offset="1"
         id="stop4249" />
    </linearGradient>
    <linearGradient
       inkscape:collect="always"
       id="linearGradient4228">
      <stop
         style="stop-color:#89de00;stop-opacity:1"
         offset="0"
         id="stop4230" />
      <stop
         style="stop-color:#54aa00;stop-opacity:1"
         offset="1"
         id="stop4232" />
    </linearGradient>
    <clipPath
       id="clipPath3613-55">
      <rect
         x="6"
         rx="6"
         y="6"
         height="84"
         width="84"
         id="rect7" />
    </clipPath>
    <filter
       x="-0.192"
       y="-0.192"
       height="1.384"
       color-interpolation-filters="sRGB"
       id="filter3794-41"
       width="1.384">
      <feGaussianBlur
         stdDeviation="5.28"
         id="feGaussianBlur10" />
    </filter>
    <linearGradient
       x2="0"
       y1="20.221"
       y2="138.66"
       gradientUnits="userSpaceOnUse"
       id="linearGradient3862"
       inkscape:collect="always">
      <stop
         stop-color="#fff"
         id="stop18" />
      <stop
         stop-color="#fff"
         stop-opacity="0"
         offset="1"
         id="stop20" />
    </linearGradient>
    <linearGradient
       osb:paint="solid"
       id="linearGradient5606">
      <stop
         style="stop-color:#000000;stop-opacity:1;"
         offset="0"
         id="stop5608" />
    </linearGradient>
    <filter
       id="filter7554"
       color-interpolation-filters="sRGB"
       inkscape:collect="always">
      <feBlend
         mode="darken"
         in2="BackgroundImage"
         id="feBlend7556"
         inkscape:collect="always" />
    </filter>
    <radialGradient
       inkscape:collect="always"
       xlink:href="#linearGradient4228"
       id="radialGradient4238"
       cx="50.409176"
       cy="20.297863"
       fx="50.409176"
       fy="20.297863"
       r="42.531502"
       gradientTransform="matrix(1,0,0,0.99448644,0,0.26301448)"
       gradientUnits="userSpaceOnUse" />
    <linearGradient
       inkscape:collect="always"
       xlink:href="#linearGradient4245"
       id="linearGradient4251"
       x1="59.514973"
       y1="65.251305"
       x2="59.514973"
       y2="29.296722"
       gradientUnits="userSpaceOnUse" />
  </defs>
  <rect
     x="3.608"
     rx="12.552"
     y="3.6"
     fill-opacity="0.039"
     height="88.76"
     width="88.76"
     id="rect27" />
  <rect
     x="4.216"
     rx="12.38"
     y="4.21"
     fill-opacity="0.078"
     height="87.55"
     width="87.55"
     id="rect29" />
  <rect
     x="4.824"
     rx="12.208"
     y="4.82"
     fill-opacity="0.157"
     height="86.33"
     width="86.33"
     id="rect31" />
  <path
     d="m 17.469,5.4062 c -6.668,0 -12.032,5.3948 -12.032,12.063 l 5e-4,61.031 c 0,5.418 3.5332,9.982 8.4375,11.5 h 68.187 c 4.715,-1.457 8.172,-5.734 8.438,-10.875 v -62.281 c -0.321,-6.377 -5.54,-11.438 -12,-11.438 l -61.031,2e-4 z"
     fill="url(#linearGradient3036)"
     opacity="0.9"
     inkscape:connector-curvature="0"
     id="path33"
     style="fill:url(#radialGradient4238);fill-opacity:1" />
  <path
     d="m 5.4316,73.44 v 5.0663 c 0,6.668 5.3645,12.032 12.032,12.032 h 61.049 c 6.668,0 12.032,-5.3645 12.032,-12.032 V 73.44 c 0,6.6681 -5.3645,12.032 -12.032,12.032 h -61.049 c -6.668,0 -12.032,-5.3643 -12.032,-12.032 z"
     fill-opacity="0.235"
     inkscape:connector-curvature="0"
     id="path35" />
  <path
     d="m 5.4316,77.54 v 1.0133 c 0,6.668 5.3645,12.032 12.032,12.032 h 61.049 c 6.668,0 12.032,-5.3645 12.032,-12.032 V 77.54 c 0,6.6681 -5.3645,12.032 -12.032,12.032 h -61.049 c -6.668,0 -12.032,-5.3644 -12.032,-12.032 z"
     fill-opacity="0.098"
     inkscape:connector-curvature="0"
     id="path37" />
  <rect
     x="15"
     stroke-width="0.5"
     rx="12"
     y="15"
     clip-path="url(#clipPath3613-55)"
     fill="url(#linearGradient3862)"
     stroke="white"
     height="66"
     filter="url(#filter3794-41)"
     opacity="0.3"
     width="66"
     stroke-linecap="round"
     transform="matrix(1 0 0 1 -0.5 -2.5)"
     id="rect39" />
  <g
     id="layer9"
     inkscape:label="status"
     style="display:inline"
     transform="translate(-400.47468,47.254236)" />
  <g
     id="layer10"
     inkscape:label="devices"
     style="display:inline;filter:url(#filter7554)"
     transform="translate(-400.47468,47.254236)" />
  <g
     id="layer1"
     inkscape:label="places"
     style="display:inline"
     transform="translate(-159.47448,-569.74576)" />
  <g
     id="layer14"
     inkscape:label="mimetypes"
     style="display:inline"
     transform="translate(-400.47468,47.254236)" />
  <g
     id="layer15"
     inkscape:label="emblems"
     style="display:inline"
     transform="translate(-400.47468,47.254236)" />
  <g
     id="g71291"
     inkscape:label="emotes"
     style="display:inline"
     transform="translate(-400.47468,47.254236)" />
  <g
     id="layer2"
     inkscape:label="categories"
     style="display:inline"
     transform="translate(-159.47448,-419.74576)" />
  <path
     id="path4241"
     d="M 36.376953 21.496094 C 29.933619 21.496094 24.710938 26.718776 24.710938 33.162109 C 24.710938 39.605443 29.933619 44.830078 36.376953 44.830078 C 42.820286 44.830078 48.042969 39.605443 48.042969 33.162109 C 48.042969 26.718776 42.820286 21.496094 36.376953 21.496094 z M 34.710938 24.830078 L 38.042969 24.830078 L 38.042969 34.830078 L 34.710938 34.830078 L 34.710938 24.830078 z M 50.439453 28.162109 C 51.003686 29.734909 51.376953 31.402409 51.376953 33.162109 C 51.376953 41.406909 44.621753 48.162109 36.376953 48.162109 C 33.285153 48.162109 30.438136 47.180828 28.042969 45.558594 L 28.042969 58.162109 C 28.042969 60.008776 29.530286 61.496094 31.376953 61.496094 L 54.710938 61.496094 L 61.376953 68.162109 L 68.042969 61.496094 L 71.376953 61.496094 C 73.22362 61.496094 74.710938 60.008776 74.710938 58.162109 L 74.710938 31.496094 C 74.710938 29.649427 73.22362 28.162109 71.376953 28.162109 L 50.439453 28.162109 z M 34.710938 38.162109 L 38.042969 38.162109 L 38.042969 41.496094 L 34.710938 41.496094 L 34.710938 38.162109 z "
     style="opacity:0.1;fill:#f2f2f2;fill-opacity:1;stroke:#000000;stroke-opacity:1;stroke-width:2;stroke-miterlimit:4;stroke-dasharray:none" />
  <path
     style="opacity:0.1;fill:#f2f2f2;fill-opacity:1;stroke:#000000;stroke-opacity:1;stroke-width:4;stroke-miterlimit:4;stroke-dasharray:none"
     d="M 36.376953 21.496094 C 29.933619 21.496094 24.710938 26.718776 24.710938 33.162109 C 24.710938 39.605443 29.933619 44.830078 36.376953 44.830078 C 42.820286 44.830078 48.042969 39.605443 48.042969 33.162109 C 48.042969 26.718776 42.820286 21.496094 36.376953 21.496094 z M 34.710938 24.830078 L 38.042969 24.830078 L 38.042969 34.830078 L 34.710938 34.830078 L 34.710938 24.830078 z M 50.439453 28.162109 C 51.003686 29.734909 51.376953 31.402409 51.376953 33.162109 C 51.376953 41.406909 44.621753 48.162109 36.376953 48.162109 C 33.285153 48.162109 30.438136 47.180828 28.042969 45.558594 L 28.042969 58.162109 C 28.042969 60.008776 29.530286 61.496094 31.376953 61.496094 L 54.710938 61.496094 L 61.376953 68.162109 L 68.042969 61.496094 L 71.376953 61.496094 C 73.22362 61.496094 74.710938 60.008776 74.710938 58.162109 L 74.710938 31.496094 C 74.710938 29.649427 73.22362 28.162109 71.376953 28.162109 L 50.439453 28.162109 z M 34.710938 38.162109 L 38.042969 38.162109 L 38.042969 41.496094 L 34.710938 41.496094 L 34.710938 38.162109 z "
     id="path4243" />
  <path
     style="opacity:1;fill:url(#linearGradient4251);fill-opacity:1;stroke:none"
     d="M 36.376953 21.496094 C 29.933619 21.496094 24.710938 26.718776 24.710938 33.162109 C 24.710938 39.605443 29.933619 44.830078 36.376953 44.830078 C 42.820286 44.830078 48.042969 39.605443 48.042969 33.162109 C 48.042969 26.718776 42.820286 21.496094 36.376953 21.496094 z M 34.710938 24.830078 L 38.042969 24.830078 L 38.042969 34.830078 L 34.710938 34.830078 L 34.710938 24.830078 z M 50.439453 28.162109 C 51.003686 29.734909 51.376953 31.402409 51.376953 33.162109 C 51.376953 41.406909 44.621753 48.162109 36.376953 48.162109 C 33.285153 48.162109 30.438136 47.180828 28.042969 45.558594 L 28.042969 58.162109 C 28.042969 60.008776 29.530286 61.496094 31.376953 61.496094 L 54.710938 61.496094 L 61.376953 68.162109 L 68.042969 61.496094 L 71.376953 61.496094 C 73.22362 61.496094 74.710938 60.008776 74.710938 58.162109 L 74.710938 31.496094 C 74.710938 29.649427 73.22362 28.162109 71.376953 28.162109 L 50.439453 28.162109 z M 34.710938 38.162109 L 38.042969 38.162109 L 38.042969 41.496094 L 34.710938 41.496094 L 34.710938 38.162109 z "
     id="path8272" />
  <g
     id="layer12"
     inkscape:label="actions"
     style="display:inline"
     transform="translate(-400.47468,47.254236)" />
  <path
     style="opacity:0.2;fill:#000000;fill-opacity:1;stroke:none"
     d="m 34.709976,23.535262 0,1.439453 3.33203,0 0,-1.439453 -3.33203,0 z m 15.72852,4.771484 c 0.48724,1.358207 0.81536,2.791224 0.90039,4.289063 0.01187,-0.243014 0.03711,-0.482714 0.03711,-0.728516 0,-1.233303 -0.1902,-2.418682 -0.49414,-3.560547 l -0.44336,0 z m -25.69141,4.28125 c -0.01459,0.238886 -0.03711,0.476192 -0.03711,0.71875 0,6.443335 5.222679,11.667969 11.666019,11.667969 6.44333,0 11.66601,-5.224634 11.66601,-11.667969 0,-0.242545 -0.02057,-0.479877 -0.03515,-0.71875 -0.3739,6.106113 -5.43074,10.947266 -11.63086,10.947266 -6.20013,0 -11.255,-4.841171 -11.62891,-10.947266 z m 9.96289,4.279297 0,1.439453 3.33203,0 0,-1.439453 -3.33203,0 z m -6.667968,20 0,1.439453 c 0,1.846667 1.487318,3.333985 3.333988,3.333985 l 23.33398,0 6.66602,6.666015 6.66601,-6.666015 3.33399,0 c 1.84666,0 3.33398,-1.487318 3.33398,-3.333985 l 0,-1.439453 c 0,1.846667 -1.48732,3.333985 -3.33398,3.333985 l -3.33399,0 -6.66601,6.666015 -6.66602,-6.666015 -23.33398,0 c -1.84667,0 -3.333988,-1.487318 -3.333988,-3.333985 z"
     id="path4253"
     inkscape:connector-curvature="0" />
</svg>
