<svg height="96" width="96" xmlns="http://www.w3.org/2000/svg" xmlns:sodipodi="http://sodipodi.sourceforge.net/DTD/sodipodi-0.dtd" xmlns:inkscape="http://www.inkscape.org/namespaces/inkscape">
 <defs>
  <clipPath id="clipPath3613-55">
   <rect x="6" rx="6" y="6" height="84" width="84"/>
  </clipPath>
  <filter x="-0.192" y="-0.192" height="1.384" color-interpolation-filters="sRGB" id="filter3794-41" width="1.384">
   <feGaussianBlur stdDeviation="5.28"/>
  </filter>
  <linearGradient x2="0" y1="90" y2="5.988" gradientUnits="userSpaceOnUse" id="linearGradient3036" inkscape:collect="always" gradientTransform="matrix(1.125 0 0 1.0417 -7.75 -3.25)">
   <stop stop-color="#8c8c8c"/>
   <stop stop-color="#dcdcdc" offset="1"/>
  </linearGradient>
  <linearGradient x2="0" y1="20.221" y2="138.66" gradientUnits="userSpaceOnUse" id="linearGradient3862" inkscape:collect="always">
   <stop stop-color="#fff"/>
   <stop stop-color="#fff" stop-opacity="0" offset="1"/>
  </linearGradient>
  <linearGradient x1="49.11" x2="55.664" y1="17.271" y2="71.37" gradientUnits="userSpaceOnUse" id="linearGradient3871" inkscape:collect="always">
   <stop stop-color="#1e1e1e" stop-opacity="0.776"/>
   <stop stop-color="#505050" stop-opacity="0.896" offset="1"/>
  </linearGradient>
 </defs>
 <rect x="3.608" rx="12.552" y="3.6" fill-opacity="0.039" height="88.76" width="88.76"/>
 <rect x="4.216" rx="12.38" y="4.21" fill-opacity="0.078" height="87.55" width="87.55"/>
 <rect x="4.824" rx="12.208" y="4.82" fill-opacity="0.157" height="86.33" width="86.33"/>
 <path d="m 17.469,5.4062 c -6.668,0 -12.032,5.3948 -12.032,12.063 l 5e-4,61.031 c 0,5.418 3.5332,9.982 8.4375,11.5 h 68.187 c 4.715,-1.457 8.172,-5.734 8.438,-10.875 v -62.281 c -0.321,-6.377 -5.54,-11.438 -12,-11.438 l -61.031,2e-4 z" fill="url(#linearGradient3036)" opacity="0.9" inkscape:connector-curvature="0"/>
 <path d="m 5.4316,73.44 v 5.0663 c 0,6.668 5.3645,12.032 12.032,12.032 h 61.049 c 6.668,0 12.032,-5.3645 12.032,-12.032 V 73.44 c 0,6.6681 -5.3645,12.032 -12.032,12.032 h -61.049 c -6.668,0 -12.032,-5.3643 -12.032,-12.032 z" fill-opacity="0.235" inkscape:connector-curvature="0"/>
 <path d="m 5.4316,77.54 v 1.0133 c 0,6.668 5.3645,12.032 12.032,12.032 h 61.049 c 6.668,0 12.032,-5.3645 12.032,-12.032 V 77.54 c 0,6.6681 -5.3645,12.032 -12.032,12.032 h -61.049 c -6.668,0 -12.032,-5.3644 -12.032,-12.032 z" fill-opacity="0.098" inkscape:connector-curvature="0"/>
 <rect x="15" stroke-width="0.5" rx="12" y="15" clip-path="url(#clipPath3613-55)" fill="url(#linearGradient3862)" stroke="white" height="66" filter="url(#filter3794-41)" opacity="0.3" width="66" stroke-linecap="round" transform="matrix(1 0 0 1 -0.5 -2.5)"/>
 <g transform="matrix(0.77414 0 0 0.77414 5.394 12.22)">
  <path d="m 23.695588,15.255167 c -0.1549,0.886782 -0.01691,1.821693 0.4375,2.6875 0.400197,0.763932 1.035087,1.453473 1.6875,2.03125 0.156553,0.138724 0.250239,0.273488 0.34375,0.40625 0.354259,-0.745116 0.330393,-1.246381 -0.34375,-1.84375 -0.652413,-0.577777 -1.287303,-1.267318 -1.6875,-2.03125 -0.216969,-0.413395 -0.36521,-0.819297 -0.4375,-1.25 z m -0.625,17.34375 c -0.141132,4.467023 1.225275,8.851788 4.1875,13.09375 2.065841,2.958368 4.879172,5.383368 7.34375,8.0625 1.515775,1.648401 3.004816,3.301905 4.5,4.96875 1.897526,2.11605 2.972641,4.561712 3.15625,7.15625 0.175271,-3.142917 -0.908615,-6.087271 -3.15625,-8.59375 -1.495184,-1.666845 -2.984225,-3.320349 -4.5,-4.96875 -2.464578,-2.679132 -5.277909,-5.104132 -7.34375,-8.0625 -2.639328,-3.779568 -4.019401,-7.692464 -4.1875,-11.65625 z m 67.46875,2.5 c -14.246287,14.336648 -28.503745,28.663814 -42.75,43 l -3.15625,-3.15625 c -0.227998,-0.229571 -2.33176,-2.883534 -2.65625,-5.59375 -0.50688,3.125399 2.387774,6.760922 2.65625,7.03125 l 3.15625,3.15625 C 62.274413,64.959903 76.773029,50.394621 91.258088,35.817667 l -0.71875,-0.71875 z m -17.375,27.625 c -0.179655,2.724412 -1.296346,5.154855 -3.0625,6.96875 -2.321495,2.308139 -5.691407,3.542397 -9.375,3 -0.400084,0.402636 -0.787453,0.816142 -1.1875,1.21875 4.147978,1.038028 7.990474,-0.22402 10.5625,-2.78125 2.071294,-2.127282 3.255645,-5.104682 3.0625,-8.40625 z" stroke-width="1" display="inline" fill="white" color="black" fill-opacity="1" fill-rule="evenodd" stroke="none" opacity="0.5" visibility="visible" inkscape:connector-curvature="0"/>
  <path stroke-opacity="0.73" stroke-width="1" d="m 46.153491,9.007666 c -3.939044,-0.168143 -7.948136,0.873098 -11.979749,3.066249 -0.848647,0.459819 -1.380057,0.441975 -2.022989,-0.293393 -0.573915,-0.656274 -1.239151,-1.305424 -1.997981,-1.709054 -1.72072,-0.914489 -3.705448,-0.518968 -5.078301,0.837756 -1.334674,1.3949 -1.741351,3.37877 -0.83252,5.110384 0.400197,0.763932 1.045915,1.432859 1.698328,2.010636 0.729964,0.646833 0.749695,1.183047 0.291675,2.03577 -4.3591,8.114607 -4.146481,16.132878 1.132175,23.692014 2.065841,2.958368 4.886439,5.38014 7.351017,8.059272 1.515775,1.648401 3.008684,3.317861 4.503868,4.984706 2.682093,2.99097 3.722218,6.59463 2.922083,10.430174 -0.66039,3.165978 2.348468,6.945755 2.622385,7.221561 L 47.91037,77.62048 C 62.395445,63.043966 76.881981,48.466112 91.36704,33.889158 l -3.146831,-3.16679 C 87.946112,30.447849 84.189676,27.419004 81.043984,28.083424 77.232462,28.888967 73.651537,27.844935 70.679309,25.142854 69.023102,23.63815 67.363897,22.135846 65.725917,20.610549 63.063382,18.130441 60.656881,15.291704 57.717258,13.21308 53.96141,10.556896 50.092796,9.175722 46.153791,9.007494 z m 26.823284,49.562199 c -4.442015,4.469939 -8.886475,8.94224 -13.328404,13.412606 4.147978,1.038028 8.000766,-0.215755 10.572792,-2.772985 2.529264,-2.597631 3.787203,-6.465647 2.755612,-10.639621 z" display="inline" fill="url(#linearGradient3871)" color="black" fill-opacity="1" stroke="#2b2b2b" fill-rule="evenodd" stroke-dasharray="none" stroke-dashoffset="0" visibility="visible" stroke-linecap="butt" stroke-linejoin="miter" stroke-miterlimit="4" inkscape:connector-curvature="0"/>
  <path d="m 44.685397,8.9673834 c -3.461337,0.116642 -6.972339,1.1434926 -10.5,3.0624996 -0.848647,0.459819 -1.357068,0.454118 -2,-0.28125 -0.573915,-0.656274 -1.24117,-1.31512 -2,-1.71875 -1.72072,-0.9144886 -3.720897,-0.5129736 -5.09375,0.84375 -1.001005,1.046175 -1.487722,2.427376 -1.28125,3.78125 0.118538,-0.964191 0.560581,-1.871811 1.28125,-2.625 1.372853,-1.356724 3.37303,-1.758239 5.09375,-0.84375 0.75883,0.40363 1.426085,1.031226 2,1.6875 0.642932,0.735368 1.151353,0.772319 2,0.3125 4.031613,-2.193151 8.060956,-3.2306426 12,-3.0625 3.939005,0.168228 7.806652,1.531316 11.5625,4.1875 2.939623,2.078624 5.337465,4.926142 8,7.40625 1.63798,1.525297 3.312543,3.026546 4.96875,4.53125 2.972228,2.702081 6.532228,3.743043 10.34375,2.9375 3.145692,-0.66442 6.913403,2.381731 7.1875,2.65625 l 2.59375,2.59375 c 0.186903,-0.188088 0.375598,-0.374412 0.5625,-0.5625 l -3.15625,-3.1875 c -0.274097,-0.274519 -4.041808,-3.28942 -7.1875,-2.625 -3.811522,0.805543 -7.371522,-0.235419 -10.34375,-2.9375 -1.656207,-1.504704 -3.33077,-3.005953 -4.96875,-4.53125 -2.662535,-2.480108 -5.060377,-5.327626 -8,-7.40625 -3.755848,-2.656184 -7.623495,-4.0505216 -11.5625,-4.2187496 -0.49238,-0.021018 -1.005523,-0.016663 -1.5,0 z M 26.404147,19.654883 c -0.04755,0.120371 -0.08404,0.240571 -0.15625,0.375 -2.077428,3.8672 -3.083998,7.715829 -3.03125,11.5 0.150733,-3.411952 1.164071,-6.867935 3.03125,-10.34375 0.333826,-0.621504 0.420014,-1.080642 0.15625,-1.53125 z m 46.59375,38.875 c -4.442015,4.469939 -8.870571,8.967134 -13.3125,13.4375 0.321533,0.08046 0.619973,0.134118 0.9375,0.1875 4.130526,-4.156893 8.244701,-8.312487 12.375,-12.46875 0.200058,0.809465 0.308481,1.595583 0.34375,2.375 0.06087,-1.134866 -0.04476,-2.321501 -0.34375,-3.53125 z m -30.59375,6.59375 c -0.0242,0.685279 -0.103302,1.390535 -0.25,2.09375 -0.107355,0.514669 -0.09031,1.03308 -0.03125,1.5625 0.01547,-0.147475 9.44e-4,-0.292212 0.03125,-0.4375 0.22792,-1.092564 0.316137,-2.172618 0.25,-3.21875 z" stroke-width="1" display="inline" fill="black" color="black" fill-opacity="1" fill-rule="evenodd" stroke="none" opacity="0.5" visibility="visible" inkscape:connector-curvature="0"/>
 </g>
</svg>
