<?xml version="1.0" encoding="UTF-8" standalone="no"?>
<!-- Created with Inkscape (http://www.inkscape.org/) -->

<svg
   xmlns:dc="http://purl.org/dc/elements/1.1/"
   xmlns:cc="http://creativecommons.org/ns#"
   xmlns:rdf="http://www.w3.org/1999/02/22-rdf-syntax-ns#"
   xmlns:svg="http://www.w3.org/2000/svg"
   xmlns="http://www.w3.org/2000/svg"
   xmlns:xlink="http://www.w3.org/1999/xlink"
   xmlns:sodipodi="http://sodipodi.sourceforge.net/DTD/sodipodi-0.dtd"
   xmlns:inkscape="http://www.inkscape.org/namespaces/inkscape"
   id="svg2"
   height="96"
   width="96"
   version="1.1"
   inkscape:version="0.48.5 r10040"
   sodipodi:docname="preferences-system-notifications.svg">
  <sodipodi:namedview
     pagecolor="#ffffff"
     bordercolor="#666666"
     borderopacity="1"
     objecttolerance="10"
     gridtolerance="10"
     guidetolerance="10"
     inkscape:pageopacity="0"
     inkscape:pageshadow="2"
     inkscape:window-width="1366"
     inkscape:window-height="716"
     id="namedview75857"
     showgrid="false"
     inkscape:zoom="2.4583333"
     inkscape:cx="69.317526"
     inkscape:cy="49.131351"
     inkscape:window-x="0"
     inkscape:window-y="24"
     inkscape:window-maximized="1"
     inkscape:current-layer="svg2" />
  <defs
     id="defs4">
    <linearGradient
       id="linearGradient3700-0">
      <stop
         id="stop3702-2"
         stop-color="#70a83e"
         offset="0" />
      <stop
         id="stop3704-9"
         stop-color="#9fd058"
         offset="1" />
    </linearGradient>
    <clipPath
       id="clipPath3613-55">
      <rect
         id="rect3615-88"
         rx="6"
         ry="6"
         height="84"
         width="84"
         y="6"
         x="6"
         fill="#fff" />
    </clipPath>
    <filter
       id="filter3794-41"
       height="1.384"
       width="1.384"
       color-interpolation-filters="sRGB"
       y="-.192"
       x="-.192">
      <feGaussianBlur
         id="feGaussianBlur3796-50"
         stdDeviation="5.28" />
    </filter>
    <linearGradient
       id="linearGradient3182"
       y2="5.9877"
       gradientUnits="userSpaceOnUse"
       y1="90"
       gradientTransform="matrix(1.125,0,0,1.0417,-7.75,-3.25)"
       x2="48"
       x1="48">
      <stop
         id="stop4083"
         stop-color="#8c8c8c"
         offset="0" />
      <stop
         id="stop4085"
         stop-color="#dcdcdc"
         offset="1" />
    </linearGradient>
    <linearGradient
       id="linearGradient90466"
       y2="138.66"
       gradientUnits="userSpaceOnUse"
       x2="48"
       y1="20.221"
       x1="48">
      <stop
         id="stop3739-532"
         stop-color="#fff"
         offset="0" />
      <stop
         id="stop3741-666"
         stop-color="#fff"
         stop-opacity="0"
         offset="1" />
    </linearGradient>
    <linearGradient
       id="linearGradient3967"
       y2="15.996"
       gradientUnits="userSpaceOnUse"
       x2="45.996"
       gradientTransform="matrix(-1,0,0,-1,95.996,95.996)"
       y1="79.996"
       x1="45.996">
      <stop
         id="stop4283-9-5"
         stop-color="#1e1e1e"
         offset="0"
         style="stop-color:#1e1e1e;stop-opacity:0.77611941;" />
      <stop
         id="stop4285-8-7"
         stop-color="#505050"
         offset="1"
         style="stop-color:#505050;stop-opacity:0.89552242;" />
    </linearGradient>
    <linearGradient
       inkscape:collect="always"
       xlink:href="#linearGradient3700-0"
       id="linearGradient3028"
       gradientUnits="userSpaceOnUse"
       gradientTransform="translate(101.91,-15.02)"
       x1="48"
       y1="90"
       x2="48"
       y2="5.9877" />
    <linearGradient
       inkscape:collect="always"
       xlink:href="#linearGradient3700-0"
       id="linearGradient3031"
       gradientUnits="userSpaceOnUse"
       gradientTransform="translate(101.91,-15.02)"
       x1="48"
       y1="90"
       x2="48"
       y2="5.9877" />
    <linearGradient
       inkscape:collect="always"
       xlink:href="#linearGradient3182"
       id="linearGradient3036"
       gradientUnits="userSpaceOnUse"
       gradientTransform="matrix(1.125,0,0,1.0417,-7.75,-3.25)"
       x1="48"
       y1="90"
       x2="48"
       y2="5.9877" />
    <linearGradient
       inkscape:collect="always"
       xlink:href="#linearGradient90466"
       id="linearGradient3862"
       gradientUnits="userSpaceOnUse"
       x1="48"
       y1="20.221"
       x2="48"
       y2="138.66" />
    <linearGradient
       inkscape:collect="always"
       xlink:href="#linearGradient3967"
       id="linearGradient3871"
       gradientUnits="userSpaceOnUse"
       x1="49.106949"
       y1="17.2714"
       x2="55.663654"
       y2="71.373093" />
  </defs>
  <metadata
     id="metadata7">
    <rdf:RDF>
      <cc:Work
         rdf:about="">
        <dc:format>image/svg+xml</dc:format>
        <dc:type
           rdf:resource="http://purl.org/dc/dcmitype/StillImage" />
        <dc:title />
      </cc:Work>
    </rdf:RDF>
  </metadata>
  <rect
     style="fill-opacity:0.03921599"
     x="3.6078"
     y="3.6000221"
     width="88.762001"
     height="88.762001"
     ry="12.552"
     id="rect5261-6" />
  <rect
     style="fill-opacity:0.07843101"
     x="4.2157001"
     y="4.2100072"
     width="87.545998"
     height="87.545998"
     ry="12.38"
     id="rect5259-9" />
  <rect
     style="fill-opacity:0.15685999"
     x="4.8237"
     y="4.8199925"
     width="86.330002"
     height="86.330002"
     ry="12.208"
     id="rect5257-5" />
  <path
     inkscape:connector-curvature="0"
     style="opacity:0.9;fill:url(#linearGradient3036)"
     d="m 17.469,5.4062 c -6.668,0 -12.032,5.3948 -12.032,12.063 l 5e-4,61.031 c 0,5.418 3.5332,9.982 8.4375,11.5 h 68.187 c 4.715,-1.457 8.172,-5.734 8.438,-10.875 v -62.281 c -0.321,-6.377 -5.54,-11.438 -12,-11.438 l -61.031,2e-4 z"
     id="rect2419" />
  <path
     style="fill-opacity:0.23528999"
     inkscape:connector-curvature="0"
     d="m 5.4316,73.44 v 5.0663 c 0,6.668 5.3645,12.032 12.032,12.032 h 61.049 c 6.668,0 12.032,-5.3645 12.032,-12.032 V 73.44 c 0,6.6681 -5.3645,12.032 -12.032,12.032 h -61.049 c -6.668,0 -12.032,-5.3643 -12.032,-12.032 z"
     id="rect5265-0" />
  <path
     style="fill-opacity:0.09803898"
     inkscape:connector-curvature="0"
     d="m 5.4316,77.54 v 1.0133 c 0,6.668 5.3645,12.032 12.032,12.032 h 61.049 c 6.668,0 12.032,-5.3645 12.032,-12.032 V 77.54 c 0,6.6681 -5.3645,12.032 -12.032,12.032 h -61.049 c -6.668,0 -12.032,-5.3644 -12.032,-12.032 z"
     id="path5252-0" />
  <rect
     style="fill:url(#linearGradient3031);display:none"
     x="107.91"
     y="-9.0199728"
     display="none"
     width="84"
     height="84"
     ry="6"
     rx="6"
     id="rect3873" />
  <rect
     style="fill:url(#linearGradient3028);display:none"
     x="107.91"
     y="-9.0199728"
     display="none"
     width="84"
     height="84"
     ry="6"
     rx="6"
     id="rect3880" />
  <g
     transform="translate(-0.5,-2.5)"
     id="layer5">
    <rect
       style="opacity:0.3;fill:url(#linearGradient3862);stroke:white;stroke-width:0.5;stroke-linecap:round;filter:url(#filter3794-41)"
       x="15"
       y="15"
       clip-path="url(#clipPath3613-55)"
       width="66"
       ry="12"
       rx="12"
       height="66"
       id="rect3171" />
  </g>
  <g
     id="g3864"
     transform="matrix(0.77414302,0,0,0.77414302,5.3937429,12.220164)">
    <path
       inkscape:connector-curvature="0"
       id="path3834"
       d="m 23.695588,15.255167 c -0.1549,0.886782 -0.01691,1.821693 0.4375,2.6875 0.400197,0.763932 1.035087,1.453473 1.6875,2.03125 0.156553,0.138724 0.250239,0.273488 0.34375,0.40625 0.354259,-0.745116 0.330393,-1.246381 -0.34375,-1.84375 -0.652413,-0.577777 -1.287303,-1.267318 -1.6875,-2.03125 -0.216969,-0.413395 -0.36521,-0.819297 -0.4375,-1.25 z m -0.625,17.34375 c -0.141132,4.467023 1.225275,8.851788 4.1875,13.09375 2.065841,2.958368 4.879172,5.383368 7.34375,8.0625 1.515775,1.648401 3.004816,3.301905 4.5,4.96875 1.897526,2.11605 2.972641,4.561712 3.15625,7.15625 0.175271,-3.142917 -0.908615,-6.087271 -3.15625,-8.59375 -1.495184,-1.666845 -2.984225,-3.320349 -4.5,-4.96875 -2.464578,-2.679132 -5.277909,-5.104132 -7.34375,-8.0625 -2.639328,-3.779568 -4.019401,-7.692464 -4.1875,-11.65625 z m 67.46875,2.5 c -14.246287,14.336648 -28.503745,28.663814 -42.75,43 l -3.15625,-3.15625 c -0.227998,-0.229571 -2.33176,-2.883534 -2.65625,-5.59375 -0.50688,3.125399 2.387774,6.760922 2.65625,7.03125 l 3.15625,3.15625 C 62.274413,64.959903 76.773029,50.394621 91.258088,35.817667 l -0.71875,-0.71875 z m -17.375,27.625 c -0.179655,2.724412 -1.296346,5.154855 -3.0625,6.96875 -2.321495,2.308139 -5.691407,3.542397 -9.375,3 -0.400084,0.402636 -0.787453,0.816142 -1.1875,1.21875 4.147978,1.038028 7.990474,-0.22402 10.5625,-2.78125 2.071294,-2.127282 3.255645,-5.104682 3.0625,-8.40625 z"
       style="text-decoration:none;opacity:0.5;color:black;fill:white;fill-opacity:1;fill-rule:evenodd;stroke:none;stroke-width:1;marker:none;visibility:visible;display:inline;overflow:visible;enable-background:accumulate" />
    <path
       inkscape:connector-curvature="0"
       style="text-decoration:none;color:black;fill:url(#linearGradient3871);fill-opacity:1;fill-rule:evenodd;stroke:#2b2b2b;stroke-width:1;stroke-linecap:butt;stroke-linejoin:miter;stroke-miterlimit:4;stroke-opacity:0.72959182;stroke-dasharray:none;stroke-dashoffset:0;marker:none;visibility:visible;display:inline;overflow:visible;enable-background:accumulate"
       d="m 46.153491,9.007666 c -3.939044,-0.168143 -7.948136,0.873098 -11.979749,3.066249 -0.848647,0.459819 -1.380057,0.441975 -2.022989,-0.293393 -0.573915,-0.656274 -1.239151,-1.305424 -1.997981,-1.709054 -1.72072,-0.914489 -3.705448,-0.518968 -5.078301,0.837756 -1.334674,1.3949 -1.741351,3.37877 -0.83252,5.110384 0.400197,0.763932 1.045915,1.432859 1.698328,2.010636 0.729964,0.646833 0.749695,1.183047 0.291675,2.03577 -4.3591,8.114607 -4.146481,16.132878 1.132175,23.692014 2.065841,2.958368 4.886439,5.38014 7.351017,8.059272 1.515775,1.648401 3.008684,3.317861 4.503868,4.984706 2.682093,2.99097 3.722218,6.59463 2.922083,10.430174 -0.66039,3.165978 2.348468,6.945755 2.622385,7.221561 L 47.91037,77.62048 C 62.395445,63.043966 76.881981,48.466112 91.36704,33.889158 l -3.146831,-3.16679 C 87.946112,30.447849 84.189676,27.419004 81.043984,28.083424 77.232462,28.888967 73.651537,27.844935 70.679309,25.142854 69.023102,23.63815 67.363897,22.135846 65.725917,20.610549 63.063382,18.130441 60.656881,15.291704 57.717258,13.21308 53.96141,10.556896 50.092796,9.175722 46.153791,9.007494 z m 26.823284,49.562199 c -4.442015,4.469939 -8.886475,8.94224 -13.328404,13.412606 4.147978,1.038028 8.000766,-0.215755 10.572792,-2.772985 2.529264,-2.597631 3.787203,-6.465647 2.755612,-10.639621 z"
       id="path2991" />
    <path
       inkscape:connector-curvature="0"
       id="path3851"
       d="m 44.685397,8.9673834 c -3.461337,0.116642 -6.972339,1.1434926 -10.5,3.0624996 -0.848647,0.459819 -1.357068,0.454118 -2,-0.28125 -0.573915,-0.656274 -1.24117,-1.31512 -2,-1.71875 -1.72072,-0.9144886 -3.720897,-0.5129736 -5.09375,0.84375 -1.001005,1.046175 -1.487722,2.427376 -1.28125,3.78125 0.118538,-0.964191 0.560581,-1.871811 1.28125,-2.625 1.372853,-1.356724 3.37303,-1.758239 5.09375,-0.84375 0.75883,0.40363 1.426085,1.031226 2,1.6875 0.642932,0.735368 1.151353,0.772319 2,0.3125 4.031613,-2.193151 8.060956,-3.2306426 12,-3.0625 3.939005,0.168228 7.806652,1.531316 11.5625,4.1875 2.939623,2.078624 5.337465,4.926142 8,7.40625 1.63798,1.525297 3.312543,3.026546 4.96875,4.53125 2.972228,2.702081 6.532228,3.743043 10.34375,2.9375 3.145692,-0.66442 6.913403,2.381731 7.1875,2.65625 l 2.59375,2.59375 c 0.186903,-0.188088 0.375598,-0.374412 0.5625,-0.5625 l -3.15625,-3.1875 c -0.274097,-0.274519 -4.041808,-3.28942 -7.1875,-2.625 -3.811522,0.805543 -7.371522,-0.235419 -10.34375,-2.9375 -1.656207,-1.504704 -3.33077,-3.005953 -4.96875,-4.53125 -2.662535,-2.480108 -5.060377,-5.327626 -8,-7.40625 -3.755848,-2.656184 -7.623495,-4.0505216 -11.5625,-4.2187496 -0.49238,-0.021018 -1.005523,-0.016663 -1.5,0 z M 26.404147,19.654883 c -0.04755,0.120371 -0.08404,0.240571 -0.15625,0.375 -2.077428,3.8672 -3.083998,7.715829 -3.03125,11.5 0.150733,-3.411952 1.164071,-6.867935 3.03125,-10.34375 0.333826,-0.621504 0.420014,-1.080642 0.15625,-1.53125 z m 46.59375,38.875 c -4.442015,4.469939 -8.870571,8.967134 -13.3125,13.4375 0.321533,0.08046 0.619973,0.134118 0.9375,0.1875 4.130526,-4.156893 8.244701,-8.312487 12.375,-12.46875 0.200058,0.809465 0.308481,1.595583 0.34375,2.375 0.06087,-1.134866 -0.04476,-2.321501 -0.34375,-3.53125 z m -30.59375,6.59375 c -0.0242,0.685279 -0.103302,1.390535 -0.25,2.09375 -0.107355,0.514669 -0.09031,1.03308 -0.03125,1.5625 0.01547,-0.147475 9.44e-4,-0.292212 0.03125,-0.4375 0.22792,-1.092564 0.316137,-2.172618 0.25,-3.21875 z"
       style="text-decoration:none;opacity:0.5;color:black;fill:black;fill-opacity:1;fill-rule:evenodd;stroke:none;stroke-width:1;marker:none;visibility:visible;display:inline;overflow:visible;enable-background:accumulate" />
  </g>
</svg>
