<svg height="96" width="96" xmlns="http://www.w3.org/2000/svg" xmlns:xlink="http://www.w3.org/1999/xlink" xmlns:sodipodi="http://sodipodi.sourceforge.net/DTD/sodipodi-0.dtd" xmlns:inkscape="http://www.inkscape.org/namespaces/inkscape">
 <defs>
  <filter x="-0.192" y="-0.192" height="1.384" color-interpolation-filters="sRGB" id="filter3794-787" width="1.384">
   <feGaussianBlur stdDeviation="5.28"/>
  </filter>
  <clipPath id="clipPath3805">
   <rect x="7.829" rx="6" ry="4.42" y="28.32" height="41.669" width="80.31"/>
  </clipPath>
  <filter color-interpolation-filters="sRGB" id="filter3795">
   <feGaussianBlur stdDeviation="1.215"/>
  </filter>
  <clipPath id="clipPath3613-68">
   <use xlink:href="#SVGCleanerId_0"/>
  </clipPath>
  <linearGradient id="linearGradient3737-40">
   <stop stop-color="#fff"/>
   <stop stop-color="#fff" stop-opacity="0" offset="1"/>
  </linearGradient>
  <linearGradient x2="0" y1="90" y2="5.988" gradientUnits="userSpaceOnUse" id="linearGradient12835">
   <stop stop-color="#222"/>
   <stop stop-color="#333" offset="1"/>
  </linearGradient>
  <linearGradient x2="0" y1="6" y2="90" gradientUnits="userSpaceOnUse" id="linearGradient12837" gradientTransform="matrix(1 0 0 1 132.08 859.89)">
   <stop stop-color="#c1ff53"/>
   <stop stop-color="#82c50c" offset="0.493"/>
   <stop stop-color="#609501" offset="0.755"/>
   <stop stop-color="#7cbf06" offset="1"/>
  </linearGradient>
  <linearGradient x1="-41" x2="-35" xlink:href="#linearGradient3737-40" gradientUnits="userSpaceOnUse" id="linearGradient12839" gradientTransform="matrix(0.5 0 0 1 193.58 859.89)"/>
  <linearGradient x1="-41" x2="-35" gradientUnits="userSpaceOnUse" id="linearGradient12841" gradientTransform="matrix(0.66667 0 0 1 -145.74 859.89)">
   <stop/>
   <stop stop-opacity="0" offset="1"/>
  </linearGradient>
  <linearGradient x2="0" xlink:href="#linearGradient3737-40" y1="20.221" y2="138.66" gradientUnits="userSpaceOnUse" id="linearGradient12843"/>
  <clipPath clipPathUnits="userSpaceOnUse" id="clipPath12845">
   <path d="m151.18 866.82c-6.4562 0-11.634 5.2482-11.634 11.735v59.375c0 6.487 5.1781 11.705 11.634 11.705h59.113c6.4562 0 11.634-5.2177 11.634-11.705v-59.375c0-6.4869-5.1781-11.735-11.634-11.735h-59.113z"/>
  </clipPath>
  <rect x="6" rx="6" y="6" height="84" id="SVGCleanerId_0" width="84"/>
 </defs>
 <g transform="matrix(1 0 0 1 0 -956.36)">
  <rect x="3.353" rx="12.724" y="959.35" fill-opacity="0.02" height="89.98" width="89.62"/>
  <rect x="3.959" rx="12.552" y="959.96" fill-opacity="0.039" height="88.76" width="88.41"/>
  <rect x="4.564" rx="12.38" y="960.57" fill-opacity="0.078" height="87.55" width="87.2"/>
  <rect x="5.17" rx="12.208" y="961.18" fill-opacity="0.157" height="86.33" width="85.991"/>
  <g clip-path="url(#clipPath12845)" transform="matrix(1.0288 0 0 1.0279 -137.77 70.76)">
   <use xlink:href="#SVGCleanerId_0" fill="url(#linearGradient12835)" transform="matrix(1.0558 0 0 1 127.06 859.89)"/>
   <path d="m41.094 7v23.156c0.45785-0.03541 0.91464-0.07808 1.375-0.09375 17.731-0.597 29.281 14.563 29.281 14.563s-13.269 16.125-27.094 16.125c-1.267 0-2.4484-0.11538-3.5625-0.3125v4.3125c0.95268 0.12096 1.938 0.1875 2.9688 0.1875 12.865 0 22.179-6.5678 31.188-14.344 1.4936 1.1962 7.618 4.1008 8.875 5.375-8.5653 7.1711-28.527 12.969-39.844 12.969-1.0909 0-2.1577-0.08816-3.1875-0.1875v22.25h42.906c3.324 0 6-2.676 6-6v-72c0-3.324-2.676-6-6-6h-42.906zm0 61.75v-4c-15.744-1.9809-21.125-19.344-21.125-19.344s7.0439-10.393 21.125-11.469v-3.7812c-15.597 1.253-29.094 14.469-29.094 14.469s7.6407 22.1 29.094 24.125zm0-34.812v4.6562c0.83391-0.08932 1.7053-0.15625 2.5938-0.15625 8.1676 0 13 6.3438 13 6.3438l-6.625 5.625c-2.985-4.976-4.005-7.182-8.969-7.782v14.125c1.125 0.37825 2.387 0.625 3.7812 0.625 9.6878 0 18.719-12.562 18.719-12.562s-8.3742-11.338-21.125-10.938c-0.46631 0.01473-0.92185 0.03085-1.375 0.0625zm0 22.812c-6.7082-2.2538-8.875-10.062-8.875-10.062s3.8951-4.6601 8.875-4.0625v-4.0312c-9.4882 1.026-15.188 7.3438-15.188 7.3438s3.2891 12.379 15.188 14.5v-3.6875z" stroke-width="0" clip-path="url(#clipPath3805)" filter="url(#filter3795)" stroke-miterlimit="10" transform="matrix(1 0 0 1 132.08 859.89)"/>
   <path d="m173.17 865.89v23.156c0.45785-0.0354 0.91464-0.0781 1.375-0.0937 17.732-0.59762 29.281 14.562 29.281 14.562s-13.269 16.125-27.094 16.125c-1.267 0-2.4484-0.11538-3.5625-0.3125v4.3125c0.95268 0.12096 1.938 0.1875 2.9688 0.1875 12.865 0 22.179-6.5678 31.188-14.344 1.4936 1.1962 7.618 4.1008 8.875 5.375-8.5653 7.1711-28.527 12.969-39.844 12.969-1.0909 0-2.1577-0.0882-3.1875-0.1875v22.25h62.906c3.324 0 6-2.676 6-6v-72c0-3.324-2.676-6-6-6h-62.906zm0 61.75v-4c-15.744-1.9809-21.125-19.344-21.125-19.344s7.0439-10.393 21.125-11.469v-3.7812c-15.597 1.2526-29.094 14.469-29.094 14.469s7.6407 22.1 29.094 24.125zm0-34.812v4.6562c0.83391-0.0893 1.7053-0.15625 2.5938-0.15625 8.1676 0 13 6.3438 13 6.3438l-6.625 5.625c-2.9843-4.9749-4.0048-7.1814-8.9688-7.7812v14.125c1.125 0.37825 2.387 0.625 3.7812 0.625 9.6878 0 18.719-12.562 18.719-12.562s-8.3742-11.338-21.125-10.938c-0.46631 0.0147-0.92185 0.0308-1.375 0.0625zm0 22.812c-6.7082-2.2538-8.875-10.062-8.875-10.062s3.8951-4.6601 8.875-4.0625v-4.0312c-9.4882 1.026-15.188 7.3438-15.188 7.3438s3.2891 12.379 15.188 14.5z" stroke-width="0" fill="url(#linearGradient12837)" stroke-miterlimit="10"/>
   <path d="m173.17 889.05c-15.597 1.2526-29.094 14.469-29.094 14.469s0.13377 0.37718 0.28125 0.75c1.3919-1.3215 14.088-13.036 28.812-14.219v-1zm1.375 3.7188c-0.46631 0.0147-0.92185 0.0308-1.375 0.0625v1c0.45315-0.0317 0.90869-0.0478 1.375-0.0625 11.157-0.35044 18.973 8.2728 20.75 10.438 0.23311-0.30279 0.375-0.5 0.375-0.5s-8.3742-11.338-21.125-10.938zm-1.375 4.7188c-9.4882 1.026-15.188 7.3438-15.188 7.3438s0.0676 0.30706 0.21875 0.75c1.0983-1.1146 6.5275-6.181 14.969-7.0938v-1zm0 4.0312v1c4.964 0.59981 5.9844 2.8063 8.9688 7.7812l6.625-5.625s-0.19894-0.26001-0.5-0.59375l-6.125 5.2188c-2.9843-4.9749-4.0048-7.1814-8.9688-7.7812zm30.25 2.4688c-1.9871 2.3028-14.043 15.656-26.688 15.656-1.267 0-2.4484-0.11538-3.5625-0.3125v1c1.1141 0.19712 2.2955 0.3125 3.5625 0.3125 13.824 0 27.094-16.125 27.094-16.125s-0.18518-0.26422-0.40625-0.53125zm-51.156 1c-0.10314 0.13984-0.21875 0.3125-0.21875 0.3125s5.3814 17.363 21.125 19.344v-1c-13.948-1.7549-19.761-15.525-20.906-18.656zm12.281 1.3438c-0.0595 0.0666-0.25 0.25-0.25 0.25s2.1668 7.8087 8.875 10.062v-1c-5.4931-1.8456-7.9184-7.3551-8.625-9.3125zm51.031 9c-8.8618 6.9489-28.154 12.5-39.219 12.5-1.0909 0-2.1577-0.0882-3.1875-0.1875v1c1.0298 0.0993 2.0966 0.1875 3.1875 0.1875 11.317 0 31.278-5.7977 39.844-12.969-0.14506-0.14705-0.36487-0.3459-0.625-0.53125z" stroke-width="0" fill="#fff" opacity="0.6" stroke-miterlimit="10"/>
   <path d="m173.17 865.89v23.156c0.45785-0.0354 0.91464-0.0781 1.375-0.0937 0.51229-0.0173 1.0294-0.008 1.5312 0v-23.062h-2.9062zm0 23.156c-0.0308 0.002-0.063-0.003-0.0937 0v3.7812c0.0311-0.003 0.0626 0.002 0.0937 0v-3.7812zm0 3.7812v4.6562c0.83391-0.0893 1.7053-0.15625 2.5938-0.15625 0.10617 0 0.20747-0.002 0.3125 0v-4.5312c-0.50249-0.0208-1.0141-0.0475-1.5312-0.0313-0.46631 0.0147-0.92185 0.0308-1.375 0.0625zm0 4.6562c-0.0317 0.003-0.0622-0.004-0.0937 0v4.0312c0.032 0.003 0.0617-0.004 0.0937 0v-4.0312zm0 4.0312v14.125c0.88636 0.298 1.8522 0.51535 2.9062 0.59375v-14c-0.80825-0.33412-1.7384-0.57763-2.9062-0.71875zm0 14.125c-0.0314-0.0105-0.0626-0.0205-0.0937-0.0313v3.6875c0.0326 0.006 0.0611 0.0254 0.0937 0.0313v-3.6875zm0 3.6875v4.3125c0.93287 0.11845 1.8988 0.1848 2.9062 0.1875v-4.2188c-1.017-0.0329-1.9904-0.11921-2.9062-0.28125zm0 4.3125c-0.0314-0.004-0.0625 0.004-0.0937 0v4c0.0314 0.003 0.0623-0.003 0.0937 0v-4zm0 4v22.25h2.9062v-22.062c-0.99273-0.0134-1.9655-0.0967-2.9062-0.1875z" fill="url(#linearGradient12839)" opacity="0.6"/>
   <rect x="-173.08" y="865.89" fill="url(#linearGradient12841)" height="84" opacity="0.6" width="4" transform="matrix(-1 0 0 1 0 0)"/>
   <rect x="15" stroke-width="0.5" rx="12" y="15" clip-path="url(#clipPath3613-68)" fill="url(#linearGradient12843)" stroke="#fff" height="66" filter="url(#filter3794-787)" opacity="0.1" stroke-linecap="round" width="66" transform="matrix(1 0 0 1 132.08 859.89)"/>
  </g>
  <path d="m5.7756 1033.9v1.0133c0 6.668 5.3434 12.032 11.985 12.032h60.809c6.6418 0 11.985-5.3645 11.985-12.032v-1.0133c0 6.6681-5.3434 12.032-11.985 12.032h-60.809c-6.6418 0-11.985-5.3644-11.985-12.032z" fill-opacity="0.098"/>
  <path d="m5.7756 1029.8v5.0663c0 6.668 5.3434 12.032 11.985 12.032h60.809c6.6418 0 11.985-5.3645 11.985-12.032v-5.0663c0 6.6681-5.3434 12.032-11.985 12.032h-60.809c-6.6418 0-11.985-5.3643-11.985-12.032z" fill-opacity="0.235"/>
 </g>
</svg>
