<svg height="96" width="96" xmlns="http://www.w3.org/2000/svg" xmlns:sodipodi="http://sodipodi.sourceforge.net/DTD/sodipodi-0.dtd" xmlns:inkscape="http://www.inkscape.org/namespaces/inkscape">
 <defs>
  <linearGradient x2="0" y1="90" y2="5.988" gradientUnits="userSpaceOnUse" id="linearGradient14037" gradientTransform="matrix(1.2776 0 0 1.0714 -3.523 -2.843)">
   <stop stop-color="#305276"/>
   <stop stop-color="#4d93db" offset="1"/>
  </linearGradient>
 </defs>
 <g transform="matrix(1 0 0 1 0 -956.36)">
  <rect x="3.353" rx="12.724" y="959.35" fill-opacity="0.02" height="89.98" width="89.62"/>
  <rect x="3.959" rx="12.552" y="959.96" fill-opacity="0.039" height="88.76" width="88.41"/>
  <rect x="4.564" rx="12.38" y="960.57" fill-opacity="0.078" height="87.55" width="87.2"/>
  <rect x="5.17" rx="12.208" y="961.18" fill-opacity="0.157" height="86.33" width="85.991"/>
  <path d="m17.75 5.4062c-6.642 0-11.969 5.3948-11.969 12.063l0.0002 61.031c0 6.668 5.3268 12.031 11.969 12.031h60.812c6.642 0 11.969-5.363 11.969-12.031v-61.031c0-6.668-5.327-12.063-11.969-12.063l-60.812 0.0002z" fill="url(#linearGradient14037)" transform="matrix(1 0 0 1 0 956.36)"/>
  <path d="m5.7756 1033.9v1.0133c0 6.668 5.3434 12.032 11.985 12.032h60.809c6.6418 0 11.985-5.3645 11.985-12.032v-1.0133c0 6.6681-5.3434 12.032-11.985 12.032h-60.809c-6.6418 0-11.985-5.3644-11.985-12.032z" fill-opacity="0.098"/>
  <path d="m5.7756 1029.8v5.0663c0 6.668 5.3434 12.032 11.985 12.032h60.809c6.6418 0 11.985-5.3645 11.985-12.032v-5.0663c0 6.6681-5.3434 12.032-11.985 12.032h-60.809c-6.6418 0-11.985-5.3643-11.985-12.032z" fill-opacity="0.235"/>
  <path d="m22.917 963.48c-1.1221 0-2.0107 0.67723-2.0107 1.532v36.608c0 0.8548 0.88868 1.532 2.0107 1.532h52.79c1.1221 0 2.0427-0.6772 2.0427-1.532v-25.963c-0.000581-0.89708 0.01081-1.9437-1.0261-3.1567l-6.5998-7.4657c-0.80192-0.92457-1.3449-1.5301-3.4283-1.555z" stroke-width="0.1" fill="#b3b3b3"/>
  <path d="m23.469 7.5312c-1.0986 0-1.9688 0.66309-1.9688 1.5v35.844c0 0.83691 0.87011 1.5 1.9688 1.5h51.688c1.0986 0 2-0.66309 2-1.5v-25.421c-0.000569-0.87835 0.01058-1.9031-1.0046-3.0908l-6.462-7.3092c-0.785-0.9053-1.317-1.4981-3.357-1.5226z" stroke-width="0.1" fill="#fff" transform="matrix(1 0 0 1 0 956.36)"/>
  <rect x="8.984" stroke-width="0.1" rx="2.881" ry="2.894" y="990.39" fill="#666" height="33.2" width="78.906"/>
  <path d="m22.031 1013.7c-1.1603 0-2.0938 0.9416-2.0938 2.0938v7.7812h58.781v-7.7812c0-1.1522-0.93344-2.0938-2.0938-2.0938h-54.594z" stroke-width="0.1" fill="#333"/>
  <rect x="20.794" stroke-width="0.1" rx="2.03" ry="1.637" y="1016.8" fill="#b3b3b3" height="22.907" width="56.976"/>
  <rect x="21.484" stroke-width="0.1" rx="1.983" ry="1.577" y="1016.8" fill="#fff" height="22.07" width="55.664"/>
  <rect x="25.964" stroke-width="0.1" rx="0" ry="0.552" y="1033.6" fill="#808080" height="1.105" width="38.601"/>
  <rect x="25.964" stroke-width="0.1" rx="0" ry="0.552" y="1027.6" fill="#808080" height="1.105" width="47.51"/>
  <rect x="25.964" stroke-width="0.1" rx="0" ry="0.552" y="1021.6" fill="#808080" height="1.105" width="47.51"/>
  <rect x="8.984" stroke-width="0.1" rx="2.881" ry="3.708" y="984.34" fill="#999" height="23.633" width="78.906"/>
  <rect x="80.03" stroke-width="0.1" rx="0.654" ry="0.575" y="988.55" fill="#0f0" height="2.66" width="2.804"/>
  <rect x="80.03" stroke-width="0.1" rx="0.654" ry="0.575" y="994.55" fill="#f60" height="2.66" width="2.804"/>
  <path d="m77.156 19.454c-0.000569-0.87835 0.01058-1.9031-1.0046-3.0908l-6.461-7.3092c-0.785-0.9053-1.317-1.4981-3.357-1.5226 3.3006 0.078405 2.0033 3.5735 2.2652 6.1339 0.01533 2.3874-0.34444 4.2577 2.8844 3.9507 4.421-0.07576 5.651-0.25186 5.6736 1.8385z" stroke-width="0.1" fill="#ccc" transform="matrix(1 0 0 1 0 956.36)"/>
 </g>
</svg>
