<svg height="96" width="96" xmlns="http://www.w3.org/2000/svg" xmlns:xlink="http://www.w3.org/1999/xlink" xmlns:sodipodi="http://sodipodi.sourceforge.net/DTD/sodipodi-0.dtd" xmlns:inkscape="http://www.inkscape.org/namespaces/inkscape">
 <defs>
  <linearGradient id="linearGradient3601">
   <stop stop-color="#b8d9f4"/>
   <stop stop-color="#ebf4fc" offset="1"/>
  </linearGradient>
  <filter x="-0.21" y="-0.28" height="1.56" color-interpolation-filters="sRGB" id="filter3673" width="1.42">
   <feGaussianBlur stdDeviation="2.8"/>
  </filter>
  <linearGradient x2="0" y1="90" y2="5.988" gradientUnits="userSpaceOnUse" id="linearGradient22705" gradientTransform="matrix(1 0 0 1.0605 17.232 932.48)">
   <stop stop-color="#6c8f11"/>
   <stop stop-color="#c9ed64" offset="1"/>
  </linearGradient>
  <linearGradient x2="0" y1="89.2" y2="6" gradientUnits="userSpaceOnUse" id="linearGradient22707" gradientTransform="matrix(1.0714 0 0 1.0714 -3.297 933.34)">
   <stop stop-color="#102340"/>
   <stop stop-color="#27599c" offset="1"/>
  </linearGradient>
  <radialGradient cy="58.668" r="33.906" xlink:href="#linearGradient3601" gradientUnits="userSpaceOnUse" id="radialGradient22709" cx="48.19" gradientTransform="matrix(0.94738 -0.33278 0.20516 0.58407 -9.5 28.454)"/>
  <radialGradient cy="38.667" r="25.55" xlink:href="#linearGradient3601" gradientUnits="userSpaceOnUse" id="radialGradient22711" cx="48.24" gradientTransform="matrix(0.84762 -0.34152 0.24994 0.62034 -2.314 16.411)"/>
  <clipPath clipPathUnits="userSpaceOnUse" id="clipPath22713">
   <path d="m17.75 941.77c-6.6418 0-11.969 5.3946-11.969 12.062v61.031c0 6.668 5.327 12.031 11.969 12.031h60.812c6.6418 0 11.969-5.3632 11.969-12.031v-61.031c0-6.6679-5.327-12.062-11.969-12.062h-60.812z"/>
  </clipPath>
  <path d="m52.06 1011.6v4 6 4 10h4 28v-4-16-4h-4-10-4-10-4zm4 4h10v6h-10v-6zm14 0h10v6h-10v-6zm-14 10h10v6h-10v-6zm14 0h10v6h-10v-6z" id="SVGCleanerId_0"/>
 </defs>
 <g transform="matrix(1 0 0 1 0 -956.36)">
  <rect x="3.353" rx="12.724" y="959.35" fill-opacity="0.02" height="89.98" width="89.62"/>
  <rect x="3.959" rx="12.552" y="959.96" fill-opacity="0.039" height="88.76" width="88.41"/>
  <rect x="4.564" rx="12.38" y="960.57" fill-opacity="0.078" height="87.55" width="87.2"/>
  <rect x="5.17" rx="12.208" y="961.18" fill-opacity="0.157" height="86.33" width="85.991"/>
  <g clip-path="url(#clipPath22713)" transform="matrix(1 0 0 1 0 20)">
   <rect x="23.23" rx="6" ry="6.363" y="938.85" fill="url(#linearGradient22705)" height="89.08" width="72"/>
   <path d="m9.56 939.77c-3.5614 0-6.4286 2.8671-6.4286 6.4286v0.56919 76.004 0.5691c0 3.5615 2.8671 6.4286 6.4286 6.4286h0.5692 1.875 14.397c7.9188-15.549 8.7516-28.132 4.2857-44.799-4.8925-18.259-5.7194-28.969 3.0469-45.167l0.53571-0.0335h-20.926-3.2143-0.5692z" fill="url(#linearGradient22707)"/>
   <path d="m31.558 941.92c0.35165-0.69822 0.71597-1.3907 1.1049-2.1094l0.53572-0.0335-1.6406 2.1428zm-0.70312 1.4397c-7.961 15.415-7.0581 26.042-2.3103 43.761 4.1868 15.625 3.7206 27.664-2.8795 41.92 7.5743-15.214 8.3464-27.658 3.9509-44.062-4.5259-16.891-5.5693-27.327 1.2388-41.618z" opacity="0.3"/>
   <path d="m33.198 939.77-0.53572 0.0335c-8.7663 16.199-7.9394 26.908-3.0469 45.167 4.4659 16.667 3.6331 29.25-4.2857 44.799h1.0714c7.9188-15.549 8.7516-28.132 4.2857-44.799-4.8925-18.259-5.7194-28.969 3.0469-45.167l0.53571-0.0335h-1.0714z" fill="#0c1b2f"/>
   <path d="m35.944 939.77-2.2098 0.0335c-8.7663 16.199-7.9394 26.908-3.0469 45.167 4.4659 16.667 3.6331 29.25-4.2857 44.799h2.1094c6.9272-14.579 7.5063-26.763 3.2478-42.656-4.8925-18.259-5.7194-28.969 3.0469-45.167l1.1384-2.1763z" fill="#fff" opacity="0.2"/>
   <g fill-rule="evenodd" transform="matrix(1 0 0 1 -0.869 939.77)">
    <path d="m60.969 10.125c-5.792 0.04-11.491 2.352-15.688 6.375-8.31-2.741-18.294-2.477-25.343 3.5a1.0217 1.0217 0 0 0 -0.0625 0.03125c-0.88973 0.85338-2.238 1.9709-3.2188 3.3438s-1.5823 3.2542-0.625 5.0625a1.0217 1.0217 0 0 0 0.25 0.3125c0.76419 0.62858 1.6673 0.89712 2.5 0.875 0.83267-0.02212 1.5872-0.27533 2.2812-0.59375 1.388-0.63684 2.665-1.4757 3.5625-1.6875a1.0217 1.0217 0 0 0 0.15625 -0.0625c6.715-2.876 14.778-3.086 21.093 0.656l0.03125-0.03125c0.94975 0.68611 2.1405 0.73554 3.0312 0.3125 0.86623-0.41138 1.5067-1.1557 1.9062-2l0.032 0.03c3.7705-5.2335 10.394-7.6119 16.812-7.7812 1.9565 0.37023 3.7225-0.71663 4.4062-2.2188 0.36033-0.79154 0.43635-1.7569 0.0625-2.625-0.3626-0.84198-1.1501-1.5109-2.2188-1.875-0.03064-0.01385-0.06305-0.01761-0.09375-0.03125-2.8417-1.2619-5.9268-1.5987-8.875-1.5938zm9.25 14.781c-9.574-0.04-19.298 4.039-25.281 11.75-10.57-2.65-22.409-0.53-30.813 6.656a1.0217 1.0217 0 0 0 -0.03125 0c-2.7108 2.3893-5.5819 5.1823-6.9688 8.875a1.0217 1.0217 0 0 0 -0.0625 0.28125c-0.075487 1.1645 0.2522 2.1727 0.9375 2.8125 0.6853 0.63977 1.5716 0.7932 2.4062 0.75 1.6048-0.08306 3.1685-0.83208 4.2812-1.75 0.04471-0.03688 0.11314-0.05637 0.15625-0.09375 8.2992-4.654 18.225-7.6406 27.438-4.9375a1.0217 1.0217 0 0 0 0.15625 0.03125c0.79257 0.0904 1.7004 0.54667 2.7188 1.0312 1.0184 0.48458 2.2229 1.0077 3.625 0.8125a1.0217 1.0217 0 0 0 0.3125 -0.09375c1.2022-0.6001 1.8078-1.6719 2.2812-2.5938 0.47347-0.92188 0.85762-1.7443 1.375-2.25a1.0217 1.0217 0 0 0 0.125 -0.125c5.166-7.2761 13.868-11.214 22.594-12.875v-0.0625c1.8414 0.14766 3.5796-0.69604 4.5625-2.0625 0.52362-0.72795 0.85835-1.6692 0.625-2.625-0.23335-0.95585-0.99661-1.7615-2.125-2.2812a1.0217 1.0217 0 0 0 -0.094 -0.03c-2.6894-1.0106-5.5218-1.1971-8.2188-1.2188z" opacity="0.05"/>
    <path d="m60.969 11.156c-5.7211 0.03923-11.41 2.354-15.438 6.4375-8.1584-2.8552-18.078-2.6085-24.928 3.1997-1.864 1.7878-5.1739 4.3261-3.6655 7.1753 2.3701 1.9495 5.0334-1.0446 7.4471-1.6141 6.9703-2.9848 15.354-3.2324 22.009 0.71014 1.3453 1.1043 3.0759-0.03529 3.6441-1.4178 4.0141-5.5715 10.966-8.0339 17.619-8.2095 3.1929 0.86278 5.5105-3.5972 1.875-4.75-2.6691-1.2068-5.661-1.5362-8.5625-1.5312zm9.25 14.781c-9.495-0.039-19.191 4.06-24.907 11.813-10.418-2.82-22.239-0.726-30.523 6.358-2.6827 2.3645-5.4274 5.0049-6.7082 8.4152-0.25209 3.8889 4.2667 2.4607 6.1007 0.87069 8.4696-4.7825 18.717-7.9492 28.373-5.116 2.1191 0.24169 3.932 2.1446 6.0706 1.8469 1.7801-0.88858 2.0016-3.2725 3.4191-4.658 5.3781-7.5749 14.344-11.587 23.237-13.279 2.9752 0.47385 6.5854-3.3725 2.8153-5.1089-2.505-0.942-5.225-1.12-7.878-1.141z" opacity="0.1"/>
    <path d="m60.969 12.094c-4.7087 0.05114-10.512 1.5868-15.188 6.5-9.4935-3.3234-16.73-1.8366-21.438 0.78125-2.4082 1.3392-4.1706 2.9502-5.3125 4.2812-0.57098 0.66553-0.97448 1.2459-1.25 1.75-0.13776 0.25203-0.24064 0.46905-0.3125 0.71875-0.03593 0.12485-0.0608 0.25301-0.0625 0.4375s-0.0053 0.48392 0.25 0.78125c0.25045 0.29169 0.60594 0.39152 0.8125 0.40625s0.34081-0.03326 0.46875-0.0625c0.25589-0.05849 0.46175-0.14171 0.71875-0.25 0.514-0.21658 1.1744-0.53853 1.9688-0.90625 1.5888-0.73544 3.7456-1.6677 6.3438-2.375 5.1962-1.4145 12.025-1.8842 19.219 2.2812a1.0136 1.0136 0 0 0 1.3438 -0.3125c3.9516-5.8325 9.2506-8.0163 13.594-8.9375 2.1716-0.46061 4.0944-0.58657 5.4688-0.6875 0.68719-0.05046 1.2195-0.09295 1.6875-0.1875 0.234-0.04728 0.46066-0.07127 0.78125-0.3125 0.1603-0.12062 0.3587-0.32031 0.4375-0.625 0.07879-0.30469-0.0017-0.62077-0.09375-0.8125-0.18314-0.38166-0.38939-0.51374-0.59375-0.65625s-0.42573-0.25252-0.6875-0.375c-0.52354-0.24495-1.1965-0.50195-2-0.71875-1.6071-0.4336-3.7281-0.74512-6.1562-0.71875zm9.25 14.781c-7.132 0.012-17.625 2.334-24.563 11.906-12.053-3.214-21.407-0.095-27.562 4.031-3.137 2.104-5.457 4.447-6.969 6.344-0.756 0.949-1.2992 1.77-1.6562 2.438-0.1786 0.334-0.3192 0.614-0.4063 0.906-0.0436 0.146-0.0891 0.297-0.0937 0.5-0.00468 0.20275 0.017575 0.54883 0.34375 0.875 0.30036 0.30036 0.66036 0.34956 0.875 0.34375 0.21464-0.0058 0.3555-0.04846 0.5-0.09375 0.28899-0.09059 0.57882-0.24286 0.90625-0.40625 0.65486-0.32677 1.4874-0.78032 2.5312-1.3438 2.0877-1.1269 4.9587-2.5968 8.375-3.8125 6.8326-2.4315 15.779-3.8418 25.062 0.625a1.0136 1.0136 0 0 0 1.344 -0.437c4.7226-8.8785 12.115-13.081 18.312-15.312 3.099-1.1158 5.887-1.726 7.875-2.1562 0.99399-0.21513 1.7723-0.39917 2.375-0.59375 0.30134-0.09729 0.56923-0.16376 0.875-0.40625 0.15289-0.12125 0.34084-0.30462 0.4375-0.625s0.0071-0.70865-0.125-0.9375c-0.38219-0.66197-0.74888-0.69387-1.2188-0.875-0.46986-0.18113-1.0483-0.35629-1.75-0.5-1.4034-0.28742-3.2843-0.47232-5.4688-0.46875z" opacity="0.15"/>
    <path d="m60.969 13.094c-4.6524 0.05053-10.377 1.5375-14.906 6.5938-19.154-7.0882-28.215 6.3125-27.625 7 0.67292 0.78371 14.322-9.7694 29.25-1.125 8.248-12.175 22.442-9.25 21.812-10.563-0.284-0.591-3.879-1.957-8.531-1.906zm9.25 14.781c-7.062 0.012-17.464 2.297-24.157 12.031-24.217-6.898-36.822 12.459-36.031 13.25 0.902 0.902 18.794-14.101 37.969-4.875 9.734-18.3 30.682-17.502 29.781-19.062-0.304-0.527-3.325-1.351-7.562-1.344z" opacity="0.3"/>
    <path d="m10.037 52.16c-0.7912-0.792 11.799-20.136 36.016-13.238 10.708-15.575 30.922-12.112 31.733-10.708 0.901 1.56-20.052 0.779-29.786 19.079-19.175-9.227-37.06 5.769-37.963 4.867z" fill="url(#radialGradient22709)"/>
    <path d="m18.433 25.696c-0.591-0.688 8.476-14.106 27.63-7.018 9.059-10.113 22.855-5.85 23.423-4.667 0.63 1.313-13.543-1.616-21.792 10.558-14.928-8.644-28.589 1.911-29.261 1.127z" fill="url(#radialGradient22711)"/>
    <path d="m60.969 12.094c-4.6524 0.05053-10.377 1.5375-14.906 6.5938-19.154-7.0882-28.215 6.3125-27.625 7 0.04696 0.0547 0.17425 0.04538 0.34375 0 1.8732-3.1304 10.872-12.072 27.281-6 7.8368-8.7485 19.205-6.7484 22.5-5.2812 0.665-0.074 1.046-0.18 0.937-0.407-0.284-0.591-3.879-1.957-8.531-1.906z" fill="#fff"/>
    <path d="m70.219 26.875c-7.0613 0.01155-17.464 2.2972-24.156 12.031-24.218-6.8978-36.823 12.459-36.031 13.25 0.18908 0.18908 1.276-0.41186 2.8125-1.25 4.2573-5.4263 15.907-15.216 34.219-10 8.229-11.969 22.039-12.693 28.375-11.75 1.6164-0.35465 2.5453-0.58841 2.3438-0.9375-0.3041-0.52671-3.3257-1.3507-7.5625-1.3438z" fill="#fff"/>
    <path d="m77 27.781c-3.8214 1.1401-20.587 2.6834-29 18.5-18.124-8.7209-35.088 4.1945-37.656 4.875-0.28471 0.54818-0.4071 0.9054-0.3125 1 0.901 0.902 18.793-14.101 37.968-4.875 9.734-18.3 30.682-17.502 29.781-19.062-0.077-0.133-0.38-0.286-0.781-0.438z" fill="#fff" opacity="0.5"/>
    <path d="m68.562 13.406c-3.1943 0.35199-14.049 0.082-20.875 10.156-13.887-8.0411-26.647 0.52017-28.906 1.125-0.31338 0.5237-0.42836 0.90147-0.34375 1 0.67292 0.78371 14.322-9.7694 29.25-1.125 8.249-12.174 22.443-9.249 21.813-10.562-0.077-0.159-0.424-0.365-0.938-0.594z" fill="#fff" opacity="0.3"/>
   </g>
  </g>
  <path d="m5.7756 1033.9v1.0133c0 6.668 5.3434 12.032 11.985 12.032h60.809c6.6418 0 11.985-5.3645 11.985-12.032v-1.0133c0 6.6681-5.3434 12.032-11.985 12.032h-60.809c-6.6418 0-11.985-5.3644-11.985-12.032z" fill-opacity="0.098"/>
  <path d="m5.7756 1029.8v5.0663c0 6.668 5.3434 12.032 11.985 12.032h60.809c6.6418 0 11.985-5.3645 11.985-12.032v-5.0663c0 6.6681-5.3434 12.032-11.985 12.032h-60.809c-6.6418 0-11.985-5.3643-11.985-12.032z" fill-opacity="0.235"/>
  <use xlink:href="#SVGCleanerId_0" fill="#5e7c10" filter="url(#filter3673)"/>
  <use xlink:href="#SVGCleanerId_0" fill="#a3c843"/>
 </g>
</svg>
