<svg height="96" width="96" xmlns="http://www.w3.org/2000/svg" xmlns:sodipodi="http://sodipodi.sourceforge.net/DTD/sodipodi-0.dtd" xmlns:inkscape="http://www.inkscape.org/namespaces/inkscape">
 <defs>
  <linearGradient x2="0" y1="90" y2="5.988" gradientUnits="userSpaceOnUse" id="linearGradient7140" gradientTransform="matrix(1.1395 0 0 1.0791 -5.243 -4.365)">
   <stop stop-color="#780000"/>
   <stop stop-color="#e62929" offset="1"/>
  </linearGradient>
  <linearGradient x2="0" y1="32.19" y2="106.1" gradientUnits="userSpaceOnUse" id="linearGradient24962" gradientTransform="matrix(0.66047 0 0 0.64927 -2.185 957.91)">
   <stop stop-color="#fafafa"/>
   <stop stop-color="#dcdcdc" offset="0.5"/>
   <stop stop-color="#c8c8c8" offset="0.5"/>
   <stop stop-color="#ebebeb" offset="1"/>
  </linearGradient>
  <linearGradient x2="0" y1="80" y2="16" gradientUnits="userSpaceOnUse" id="linearGradient24990" gradientTransform="matrix(1 0 0 1 0.341 954.8)">
   <stop stop-color="#4e0300"/>
   <stop stop-color="#840000" stop-opacity="0.372" offset="1"/>
  </linearGradient>
 </defs>
 <g transform="matrix(1 0 0 1 0 -956.36)">
  <rect x="3.353" rx="12.724" y="959.35" fill-opacity="0.02" height="89.98" width="89.62"/>
  <rect x="3.959" rx="12.552" y="959.96" fill-opacity="0.039" height="88.76" width="88.41"/>
  <rect x="4.564" rx="12.38" y="960.57" fill-opacity="0.078" height="87.55" width="87.2"/>
  <rect x="5.17" rx="12.208" y="961.18" fill-opacity="0.157" height="86.33" width="85.991"/>
  <path d="m17.75 5.4062c-6.642 0-11.969 5.3948-11.969 12.063l0.0002 61.031c0 6.668 5.3268 12.031 11.969 12.031h60.812c6.642 0 11.969-5.363 11.969-12.031v-61.031c0-6.668-5.327-12.063-11.969-12.063l-60.812 0.0002z" fill="url(#linearGradient7140)" transform="matrix(1 0 0 1 0 956.36)"/>
  <path d="m5.7756 1033.9v1.0133c0 6.668 5.3434 12.032 11.985 12.032h60.809c6.6418 0 11.985-5.3645 11.985-12.032v-1.0133c0 6.6681-5.3434 12.032-11.985 12.032h-60.809c-6.6418 0-11.985-5.3644-11.985-12.032z" fill-opacity="0.098"/>
  <path d="m5.7756 1029.8v5.0663c0 6.668 5.3434 12.032 11.985 12.032h60.809c6.6418 0 11.985-5.3645 11.985-12.032v-5.0663c0 6.6681-5.3434 12.032-11.985 12.032h-60.809c-6.6418 0-11.985-5.3643-11.985-12.032z" fill-opacity="0.235"/>
  <path d="m49.278 966.8c-2.0154-0.004-4.0651 0.0176-6.0625 0.34375l-1.75 10.531c-2.0972 0.6109-4.112 1.4199-6 2.5312l-8.6562-6.1875c-2.672 2.1366-5.2335 4.4685-7.25 7.25l6.1875 8.625c-1.0454 1.9166-1.982 3.9096-2.5312 6.0312l-10.531 1.75c-0.38248 3.3956-0.5599 6.8296 0 10.219l10.531 1.7499c0.61196 2.0973 1.421 4.1433 2.5312 6.0313l-6.1875 8.6562c2.1366 2.6731 4.4696 5.2325 7.25 7.25l8.6562-6.1875c1.9156 1.0465 3.8794 1.982 6 2.5313l1.75 10.5c1.4842 0.1795 3.003 0.3591 4.5 0.375 1.9198 0 3.8493-0.08 5.75-0.375l1.75-10.5c2.0983-0.613 4.112-1.421 6-2.5313l8.6562 6.1875c2.671-2.1365 5.2335-4.4674 7.25-7.25l-6.1875-8.6562c1.0465-1.9156 1.9809-3.9096 2.5312-6.0313l10.531-1.7499c0.38141-3.3966 0.5599-6.8296 0-10.219l-10.531-1.75c-0.61196-2.0983-1.421-4.1422-2.5312-6.0312l6.1875-8.625c-2.1366-2.671-4.4696-5.2335-7.25-7.25l-8.6562 6.1875c-1.9156-1.0476-3.8751-1.982-6-2.5312l-1.75-10.531c-1.3907-0.17212-2.783-0.331-4.1875-0.34375zm-0.9375 28c4.4183 0 8 3.5817 8 8s-3.5817 8-8 8-8-3.5817-8-8c0-4.4182 3.5817-8 8-8z" fill="url(#linearGradient24990)"/>
  <path d="m19.935 981.77c-0.12564 0.16474-0.25323 0.33204-0.375 0.5l5.875 8.2188c0.10552-0.19998 0.20434-0.39547 0.3125-0.59375l-5.8125-8.125zm56.812 0.0313-5.8125 8.0938c0.10916 0.18573 0.20906 0.37387 0.3125 0.5625l5.875-8.1875c-0.12459-0.15575-0.24902-0.31382-0.375-0.46875zm-28.406 13c-4.4183 0-8 3.5817-8 8 0 0.1701 0.0208 0.3325 0.0313 0.5 0.26124-4.1824 3.7206-7.5 7.9688-7.5s7.7075 3.3176 7.9688 7.5c0.0105-0.1675 0.0313-0.3299 0.0313-0.5 0-4.4183-3.5817-8-8-8zm36 7.9687c-0.0223 1.7065-0.15304 3.4267-0.34375 5.125l-10.531 1.75c-0.55034 2.1217-1.4848 4.1157-2.5312 6.0313l0.3125 0.4375c0.92027-1.74 1.723-3.5575 2.2188-5.4688l10.531-1.75c0.22792-2.0296 0.37501-4.0864 0.34375-6.125zm-72 1.3125c-0.009 1.6129 0.0792 3.2109 0.34375 4.8125l10.531 1.75c0.5518 1.8911 1.2702 3.7394 2.2188 5.4688l0.3125-0.4375c-1.1102-1.888-1.9193-3.934-2.5312-6.0313l-10.531-1.75c-0.20996-1.2709-0.31309-2.5333-0.34375-3.8125zm7.5938 20.719-0.375 0.5312c2.1366 2.6731 4.4696 5.2325 7.25 7.25l8.6562-6.1875c1.9156 1.0465 3.8794 1.982 6 2.5313l1.75 10.5c1.4842 0.1795 3.003 0.3591 4.5 0.375 1.9198 0 3.8493-0.08 5.75-0.375l1.75-10.5c2.0983-0.613 4.112-1.421 6-2.5313l8.6562 6.1875c2.671-2.1365 5.2335-4.4674 7.25-7.25l-0.375-0.5c-1.9552 2.5642-4.3653 4.7425-6.875 6.75l-8.6562-6.1875c-1.888 1.1103-3.9017 1.9183-6 2.5313l-1.75 10.5c-1.9007 0.2954-3.8302 0.375-5.75 0.375-1.497-0.016-3.0158-0.1955-4.5-0.375l-1.75-10.5c-2.1206-0.5493-4.0844-1.4848-6-2.5313l-8.6562 6.1875c-2.6183-1.8999-4.8406-4.2779-6.875-6.7812z" fill="#fff" opacity="0.3"/>
  <path d="m49.278 966.8c-2.0154-0.004-4.0651 0.0176-6.0625 0.34375l-1.75 10.531c-2.0972 0.6109-4.112 1.4199-6 2.5312l-8.6562-6.1875c-2.672 2.1366-5.2335 4.4685-7.25 7.25l0.375 0.5c1.9551-2.5634 4.3643-4.7425 6.875-6.75l8.6562 6.1875c1.888-1.1113 3.9028-1.9204 6-2.5312l1.75-10.531c1.9974-0.32617 4.0471-0.34795 6.0625-0.34375 1.4045 0.0128 2.7968 0.17163 4.1875 0.34375l1.75 10.531c2.1249 0.54928 4.0844 1.4837 6 2.5312l8.6562-6.1875c2.6183 1.8989 4.8406 4.2794 6.875 6.7812l0.375-0.53125c-2.1366-2.671-4.4696-5.2335-7.25-7.25l-8.6562 6.1875c-1.9156-1.0476-3.8751-1.982-6-2.5312l-1.75-10.531c-1.3907-0.17212-2.783-0.331-4.1875-0.34375zm21.969 23.656-0.3125 0.4375c1.1102 1.889 1.9193 3.9329 2.5312 6.0312l10.531 1.75c0.20996 1.2709 0.31322 2.5335 0.34375 3.8125 0.009-1.6127-0.0792-3.2109-0.34375-4.8125l-10.531-1.75c-0.55179-1.892-1.2702-3.7389-2.2188-5.4688zm-45.812 0.0313c-0.91441 1.733-1.7263 3.5353-2.2188 5.4375l-10.531 1.75c-0.22855 2.029-0.37521 4.0862-0.34375 6.125 0.0222-1.7066 0.15251-3.4272 0.34375-5.125l10.531-1.75c0.54928-2.1217 1.4858-4.1146 2.5312-6.0312l-0.3125-0.40625zm14.938 12.813c-0.0105 0.1674-0.0313 0.3299-0.0313 0.5 0 4.4183 3.5817 8 8 8s8-3.5817 8-8c0-0.1701-0.0208-0.3326-0.0313-0.5-0.26124 4.1823-3.7206 7.5-7.9688 7.5s-7.7075-3.3177-7.9688-7.5zm-14.938 12.812-5.875 8.2187c0.12459 0.1559 0.24902 0.3138 0.375 0.4688l5.8125-8.125c-0.10916-0.1856-0.20906-0.3739-0.3125-0.5625zm45.812 0c-0.10132 0.1916-0.20871 0.3725-0.3125 0.5625l5.8125 8.1562c0.12565-0.1647 0.25323-0.3319 0.375-0.5l-5.875-8.2187z" opacity="0.3"/>
  <path d="m48.341 976.77c-12.967 0-23.031 12.397-23.031 27 0 14.602 10.054 27.062 23.031 27.062s23.031-12.46 23.031-27.062c0-14.603-10.064-27-23.031-27zm0 9.125c1.8154 0 2.7894 0.34736 3.5938 0.96875 0.78664 0.6077 1.442 1.5787 2 3.125 1.0911 3.0237 1.4062 8.0941 1.4062 13.781 0 5.665-0.36836 10.702-1.5 13.75-0.57247 1.542-1.2772 2.572-2.0625 3.1875-0.80889 0.634-1.7243 0.9688-3.4375 0.9688-1.7611 0-2.6895-0.3369-3.5-0.9688-0.77374-0.6031-1.4633-1.6363-2.0312-3.1875-1.1156-3.0468-1.4688-8.0773-1.4688-13.75 0-5.6796 0.32975-10.723 1.4375-13.75 0.55684-1.5216 1.2614-2.5341 2.0625-3.1562 0.81869-0.63583 1.7302-0.96875 3.5-0.96875z" opacity="0.05"/>
  <path d="m48.341 977.8c-12.314 0-22 11.831-22 25.969 0 14.137 9.6785 26.031 22 26.031 12.321 0 22-11.894 22-26.031s-9.6856-25.969-22-25.969zm0 7.0625c1.961 0 3.2256 0.42029 4.2188 1.1875 0.9865 0.7621 1.7446 1.9332 2.3438 3.5938 1.188 3.2924 1.4688 8.4045 1.4688 14.125 0 5.7047-0.33342 10.783-1.5625 14.094-0.61636 1.6602-1.4214 2.8843-2.4062 3.6562-0.98849 0.7748-2.1988 1.1875-4.0625 1.1875-1.9086 0-3.1329-0.4141-4.125-1.1875-0.98257-0.7659-1.7657-1.992-2.375-3.6562-1.2113-3.3084-1.5312-8.383-1.5312-14.094 0-5.7146 0.29434-10.799 1.5-14.094 0.60276-1.6471 1.411-2.852 2.4062-3.625 0.99604-0.77357 2.2085-1.1875 4.125-1.1875z" opacity="0.1"/>
  <path d="m48.341 978.77c-11.698 0-21.031 11.298-21.031 25s9.3296 25.062 21.031 25.062c11.702 0 21.031-11.36 21.031-25.062s-9.3334-25-21.031-25zm0 5.125c2.1115 0 3.6364 0.49764 4.8125 1.4062 1.1761 0.90861 2.0187 2.2645 2.6562 4.0312 1.275 3.5336 1.5312 8.6885 1.5312 14.438 0 5.7389-0.30763 10.889-1.625 14.437-0.65869 1.7742-1.5538 3.1495-2.7188 4.0625-1.1649 0.913-2.6367 1.4063-4.6562 1.4063-2.0616 0-3.5486-0.4941-4.7188-1.4063-1.1701-0.9121-2.0384-2.2898-2.6875-4.0625-1.2981-3.5454-1.5938-8.6939-1.5938-14.437 0-5.7444 0.26827-10.901 1.5625-14.438 0.64712-1.7683 1.5478-3.1219 2.7188-4.0312 1.1709-0.9094 2.649-1.4062 4.7188-1.4062z" opacity="0.15"/>
  <path d="m48.341 979.8c-11.036 0-20 10.739-20 23.981s8.9639 24.019 20 24.019 20-10.778 20-24.019-8.9639-23.981-20-23.981zm0 3.072c9.1427 0 10.02 9.3585 10.02 20.909s-1.2153 20.928-10.02 20.928c-8.9596 0-10.02-9.3777-10.02-20.928s1.0317-20.909 10.02-20.909z" opacity="0.3"/>
  <path d="m48.341 978.8c-11.036 0-20 10.739-20 23.981s8.9639 24.019 20 24.019 20-10.778 20-24.019-8.9639-23.981-20-23.981zm0 3.072c9.1427 0 10.02 9.3585 10.02 20.909s-1.2153 20.928-10.02 20.928c-8.9596 0-10.02-9.3777-10.02-20.928s1.0317-20.909 10.02-20.909z" fill="url(#linearGradient24962)"/>
  <path d="m48.341 978.8c-11.036 0-20 10.727-20 23.969 0 0.1654-0.003 0.3354 0 0.5 0.22564-13.007 9.1053-23.469 20-23.469s19.774 10.462 20 23.469c0.003-0.1646 0-0.3346 0-0.5 0-13.242-8.9639-23.969-20-23.969zm10.031 24.375c-0.0298 11.359-1.333 20.531-10.031 20.531-7.8396 0-9.6434-7.1859-9.9688-16.719 0.2392 10.014 1.8637 17.719 9.9688 17.719 8.8042 0 10.031-9.3871 10.031-20.937 0-0.2047 0.00059-0.3905 0-0.5938z" fill="#fff" opacity="0.75"/>
  <path d="m48.341 980.86c-8.1326 0-9.7344 7.7037-9.9688 17.719 0.32036-9.5291 2.1044-16.719 9.9688-16.719 7.9998 0 9.6759 7.1897 9.9688 16.719-0.21153-10.015-1.6961-17.719-9.9688-17.719zm-20 21.406c-0.003 0.1688 0 0.3303 0 0.5 0 13.242 8.9639 24.031 20 24.031s20-10.79 20-24.031c0-0.1697 0.003-0.3312 0-0.5-0.2201 13.014-9.1018 23.531-20 23.531s-19.78-10.517-20-23.531z" opacity="0.15"/>
 </g>
</svg>
