<?xml version="1.0" encoding="UTF-8" standalone="no"?>
<svg
   xmlns:dc="http://purl.org/dc/elements/1.1/"
   xmlns:cc="http://creativecommons.org/ns#"
   xmlns:rdf="http://www.w3.org/1999/02/22-rdf-syntax-ns#"
   xmlns:svg="http://www.w3.org/2000/svg"
   xmlns="http://www.w3.org/2000/svg"
   xmlns:xlink="http://www.w3.org/1999/xlink"
   xmlns:sodipodi="http://sodipodi.sourceforge.net/DTD/sodipodi-0.dtd"
   xmlns:inkscape="http://www.inkscape.org/namespaces/inkscape"
   height="96"
   width="96"
   id="svg1495"
   version="1.1"
   inkscape:version="0.91 r13725"
   sodipodi:docname="gnome-device-manager.svg">
  <metadata
     id="metadata1568">
    <rdf:RDF>
      <cc:Work
         rdf:about="">
        <dc:format>image/svg+xml</dc:format>
        <dc:type
           rdf:resource="http://purl.org/dc/dcmitype/StillImage" />
      </cc:Work>
    </rdf:RDF>
  </metadata>
  <sodipodi:namedview
     pagecolor="#ffffff"
     bordercolor="#666666"
     borderopacity="1"
     objecttolerance="10"
     gridtolerance="10"
     guidetolerance="10"
     inkscape:pageopacity="0"
     inkscape:pageshadow="2"
     inkscape:window-width="640"
     inkscape:window-height="480"
     id="namedview1566"
     showgrid="false"
     inkscape:zoom="2.4583333"
     inkscape:cx="48"
     inkscape:cy="48"
     inkscape:current-layer="svg1495" />
  <defs
     id="defs1497">
    <clipPath
       id="clipPath3788">
      <path
         d="m-84 12c-2.216 0-4 1.784-4 4v52c0 2.216 1.784 4 4 4h64c2.216 0 4-1.784 4-4v-52c0-2.216-1.784-4-4-4h-64zm24.969 14c2.8316-0.01228 5.6827 0.92281 7.8438 2.8438 4.3032 3.8251 4.3032 10.05 0 13.875-4.3032 3.8251-11.291 3.8251-15.594 0-2.8814-2.5613-3.8211-6.2034-2.8438-9.4688l6.75 6 7.7812-6.9375-6.75-5.9688c0.91839-0.21718 1.8686-0.33966 2.8125-0.34375zm12.875 14.25 10.531 9.375c2.1583 1.9185 2.1583 5.019 0 6.9375s-5.623 1.9185-7.7812 0l-10.562-9.375c1.7121-0.59717 3.3352-1.5201 4.7188-2.75s2.4219-2.6656 3.0938-4.1875zm6.656 10.406c-0.70501 0-1.4308 0.24061-1.9688 0.71875-1.0758 0.95627-1.0758 2.5125 0 3.4688 1.0758 0.95627 2.8304 0.95627 3.9062 0 1.0758-0.95628 1.0758-2.5125 0-3.4688-0.5379-0.47814-1.2325-0.71875-1.9375-0.71875z"
         id="path1500" />
    </clipPath>
    <filter
       x="-0.227"
       y="-0.255"
       height="1.51"
       color-interpolation-filters="sRGB"
       id="filter3784"
       width="1.453">
      <feGaussianBlur
         stdDeviation="3.4"
         id="feGaussianBlur1503" />
    </filter>
    <linearGradient
       x2="0"
       y1="12"
       y2="72.11"
       gradientUnits="userSpaceOnUse"
       id="linearGradient30961"
       gradientTransform="matrix(1.3453,0,0,1.4972,-17.787,-15.377)">
      <stop
         stop-color="#f0f0f0"
         id="stop1506" />
      <stop
         stop-color="#b4b4b4"
         offset="1"
         id="stop1508" />
    </linearGradient>
    <linearGradient
       x2="0"
       y1="58.697"
       y2="26.07"
       gradientUnits="userSpaceOnUse"
       id="linearGradient30982"
       gradientTransform="matrix(1.3907,0,0,1.503,-18.309,-23.35)">
      <stop
         stop-color="#4d4d4d"
         stop-opacity="0.707"
         id="stop1511" />
      <stop
         stop-color="#4d4d4d"
         stop-opacity="0.252"
         offset="1"
         id="stop1513" />
    </linearGradient>
    <linearGradient
       x2="0"
       y1="80"
       y2="88.01"
       gradientUnits="userSpaceOnUse"
       id="linearGradient31052"
       gradientTransform="translate(-15.705,-8.86)">
      <stop
         id="stop1516" />
      <stop
         stop-color="#484848"
         offset="1"
         id="stop1518" />
    </linearGradient>
    <linearGradient
       x2="0"
       y1="80"
       y2="88.01"
       gradientUnits="userSpaceOnUse"
       id="linearGradient31055"
       gradientTransform="matrix(1,0,0,-1,-15.705,159.14)">
      <stop
         stop-color="#fff"
         id="stop1521" />
      <stop
         stop-color="#fff"
         stop-opacity="0"
         offset="1"
         id="stop1523" />
    </linearGradient>
    <linearGradient
       x1="16"
       x2="20.18"
       gradientUnits="userSpaceOnUse"
       id="linearGradient31060">
      <stop
         stop-color="#767676"
         id="stop1526" />
      <stop
         stop-color="#fdfdfd"
         offset="1"
         id="stop1528" />
    </linearGradient>
    <radialGradient
       cy="85.06"
       r="2.089"
       gradientUnits="userSpaceOnUse"
       id="radialGradient31062"
       cx="18.09"
       gradientTransform="matrix(1,0,0,1.0043,0,-0.364)">
      <stop
         stop-color="#ffbf67"
         id="stop1531" />
      <stop
         stop-color="#c70000"
         offset="1"
         id="stop1533" />
    </radialGradient>
    <path
       d="m20.179 85.062a2.0893 2.0982 0 1 1 -4.1786 0 2.0893 2.0982 0 1 1 4.1786 0z"
       id="SVGCleanerId_0" />
    <linearGradient
       inkscape:collect="always"
       xlink:href="#linearGradient14231"
       id="linearGradient14237"
       x1="50.707542"
       y1="81.682442"
       x2="50.707542"
       y2="96.539803"
       gradientUnits="userSpaceOnUse" />
    <linearGradient
       inkscape:collect="always"
       id="linearGradient14231">
      <stop
         style="stop-color:#000000;stop-opacity:1;"
         offset="0"
         id="stop14233" />
      <stop
         style="stop-color:#000000;stop-opacity:0;"
         offset="1"
         id="stop14235" />
    </linearGradient>
    <linearGradient
       inkscape:collect="always"
       xlink:href="#linearGradient14239"
       id="linearGradient14245"
       x1="49.876652"
       y1="87.937508"
       x2="49.876652"
       y2="76.719681"
       gradientUnits="userSpaceOnUse" />
    <linearGradient
       inkscape:collect="always"
       id="linearGradient14239">
      <stop
         style="stop-color:#ffffff;stop-opacity:1;"
         offset="0"
         id="stop14241" />
      <stop
         style="stop-color:#ffffff;stop-opacity:0;"
         offset="1"
         id="stop14243" />
    </linearGradient>
  </defs>
  <rect
     style="fill-opacity:0.02000002"
     id="rect1538"
     width="89.620003"
     height="89.980003"
     y="2.9899757"
     rx="12.724"
     x="3.3529999" />
  <rect
     style="fill-opacity:0.03900003"
     id="rect1540"
     width="88.410004"
     height="88.760002"
     y="3.6000221"
     rx="12.552"
     x="3.9590001" />
  <rect
     style="fill-opacity:0.078"
     id="rect1542"
     width="87.199997"
     height="87.550003"
     y="4.2100072"
     rx="12.38"
     x="4.5640001" />
  <rect
     style="fill-opacity:0.15700001"
     id="rect1544"
     width="85.990997"
     height="86.330002"
     y="4.8199925"
     rx="12.208"
     x="5.1700001" />
  <path
     inkscape:connector-curvature="0"
     style="fill:url(#linearGradient30961)"
     id="path1546"
     d="m 17.75,5.4062 c -6.642,0 -11.969,5.3948 -11.969,12.063 l 2e-4,61.031 c 0,6.668 5.3268,12.031 11.969,12.031 l 60.812,0 c 6.642,0 11.969,-5.363 11.969,-12.031 l 0,-61.031 c 0,-6.668 -5.327,-12.063 -11.969,-12.063 l -60.812,2e-4 z" />
  <use
     height="100%"
     width="100%"
     y="0"
     x="0"
     style="fill:url(#linearGradient31060)"
     id="use1552"
     transform="matrix(0,1.6709,1.6638,0,-107.94,45.01)"
     xlink:href="#SVGCleanerId_0" />
  <use
     height="100%"
     width="100%"
     y="0"
     x="0"
     style="fill:url(#radialGradient31062);stroke:#000000;stroke-width:0.84100002;stroke-linecap:square;stroke-opacity:0.53200001"
     id="use1554"
     transform="matrix(1.1923,0,0,1.1872,12.02,-25.75)"
     xlink:href="#SVGCleanerId_0" />
  <path
     inkscape:connector-curvature="0"
     style="fill:url(#linearGradient31055)"
     id="path1556"
     d="m 41.295,79.64 c -0.81756,0 -1.5,-0.6824 -1.5,-1.5 l 0,-6 c 0,-0.8176 0.68244,-1.5 1.5,-1.5 0.81756,0 1.5,0.6824 1.5,1.5 l 0,6 c 0,0.8176 -0.68244,1.5 -1.5,1.5 z m 4,0 c -0.81756,0 -1.5,-0.6824 -1.5,-1.5 l 0,-6 c 0,-0.8176 0.68244,-1.5 1.5,-1.5 0.81756,0 1.5,0.6824 1.5,1.5 l 0,6 c 0,0.8176 -0.68244,1.5 -1.5,1.5 z m 4,0 c -0.81756,0 -1.5,-0.6824 -1.5,-1.5 l 0,-6 c 0,-0.8176 0.68244,-1.5 1.5,-1.5 0.81756,0 1.5,0.6824 1.5,1.5 l 0,6 c 0,0.8176 -0.68244,1.5 -1.5,1.5 z m 4,0 c -0.81756,0 -1.5,-0.6824 -1.5,-1.5 l 0,-6 c 0,-0.8176 0.68244,-1.5 1.5,-1.5 0.81756,0 1.5,0.6824 1.5,1.5 l 0,6 c 0,0.8176 -0.68244,1.5 -1.5,1.5 z m 4,0 c -0.81756,0 -1.5,-0.6824 -1.5,-1.5 l 0,-6 c 0,-0.8176 0.68244,-1.5 1.5,-1.5 0.81756,0 1.5,0.6824 1.5,1.5 l 0,6 c 0,0.8176 -0.68244,1.5 -1.5,1.5 z m 4,0 c -0.81756,0 -1.5,-0.6824 -1.5,-1.5 l 0,-6 c 0,-0.8176 0.68244,-1.5 1.5,-1.5 0.81756,0 1.5,0.6824 1.5,1.5 l 0,6 c 0,0.8176 -0.68244,1.5 -1.5,1.5 z m 4,0 c -0.81756,0 -1.5,-0.6824 -1.5,-1.5 l 0,-6 c 0,-0.8176 0.68244,-1.5 1.5,-1.5 0.81756,0 1.5,0.6824 1.5,1.5 l 0,6 c 0,0.8176 -0.68244,1.5 -1.5,1.5 z" />
  <path
     inkscape:connector-curvature="0"
     style="fill:url(#linearGradient31052)"
     id="path1558"
     d="m 41.295,71.14 c -0.554,0 -1,0.446 -1,1 l 0,6 c 0,0.554 0.446,1 1,1 0.554,0 1,-0.446 1,-1 l 0,-6 c 0,-0.554 -0.446,-1 -1,-1 z m 4,0 c -0.554,0 -1,0.446 -1,1 l 0,6 c 0,0.554 0.446,1 1,1 0.554,0 1,-0.446 1,-1 l 0,-6 c 0,-0.554 -0.446,-1 -1,-1 z m 4,0 c -0.554,0 -1,0.446 -1,1 l 0,6 c 0,0.554 0.446,1 1,1 0.554,0 1,-0.446 1,-1 l 0,-6 c 0,-0.554 -0.446,-1 -1,-1 z m 4,0 c -0.554,0 -1,0.446 -1,1 l 0,6 c 0,0.554 0.446,1 1,1 0.554,0 1,-0.446 1,-1 l 0,-6 c 0,-0.554 -0.446,-1 -1,-1 z m 4,0 c -0.554,0 -1,0.446 -1,1 l 0,6 c 0,0.554 0.446,1 1,1 0.554,0 1,-0.446 1,-1 l 0,-6 c 0,-0.554 -0.446,-1 -1,-1 z m 4,0 c -0.554,0 -1,0.446 -1,1 l 0,6 c 0,0.554 0.446,1 1,1 0.554,0 1,-0.446 1,-1 l 0,-6 c 0,-0.554 -0.446,-1 -1,-1 z m 4,0 c -0.554,0 -1,0.446 -1,1 l 0,6 c 0,0.554 0.446,1 1,1 0.554,0 1,-0.446 1,-1 l 0,-6 c 0,-0.554 -0.446,-1 -1,-1 z" />
  <path
     style="opacity:0.8;fill:#ffffff;filter:url(#filter3784)"
     inkscape:connector-curvature="0"
     id="path1560"
     transform="matrix(1.3907,0,0,1.503,120.76,-23.35)"
     clip-path="url(#clipPath3788)"
     d="m -69.626,33.258 c -0.97733,3.2654 -0.0407,6.8898 2.8407,9.451 4.3032,3.8251 11.28,3.8251 15.583,0 4.3032,-3.8251 4.3032,-10.027 0,-13.852 -2.8814,-2.5613 -6.9588,-3.3938 -10.632,-2.5251 l 6.7366,5.9881 -7.7917,6.9259 -6.7366,-5.9881 z m 15.665,13.924 10.551,9.3789 c 2.1583,1.9185 5.6334,1.9185 7.7917,0 2.1583,-1.9185 2.1583,-5.0075 0,-6.9259 l -10.551,-9.3789 c -0.67182,1.5219 -1.7006,2.9546 -3.0842,4.1844 -1.3836,1.2299 -2.9954,2.1444 -4.7075,2.7415 z m 12.499,4.1844 c 1.0758,-0.95627 2.82,-0.95627 3.8958,0 1.0758,0.95627 1.0758,2.5067 0,3.463 -1.0758,0.95627 -2.82,0.95627 -3.8958,0 -1.0758,-0.95628 -1.0758,-2.5067 0,-3.463 z" />
  <path
     inkscape:connector-curvature="0"
     style="fill:url(#linearGradient30982)"
     id="path1562"
     d="m 23.93,26.63 c -1.3591,4.908 -0.0566,10.356 3.9505,14.205 5.9844,5.7493 15.687,5.7493 21.671,0 5.9844,-5.7493 5.9844,-15.071 0,-20.82 -4.0071,-3.8496 -9.6774,-5.101 -14.786,-3.7953 l 9.3683,9.0003 -10.836,10.41 -9.3683,-9.0002 z m 21.784,20.928 14.673,14.097 c 3.0015,2.8836 7.8342,2.8836 10.836,0 3.0015,-2.8836 3.0015,-7.5264 0,-10.41 L 56.55,37.155 c -0.93428,2.2873 -2.365,4.4407 -4.2891,6.2893 -1.9241,1.8486 -4.1656,3.2231 -6.5466,4.1206 z m 17.382,6.2895 c 1.4961,-1.4374 3.9217,-1.4374 5.4178,0 1.4961,1.4372 1.4961,3.7677 0,5.2049 -1.4961,1.4374 -3.9217,1.4374 -5.4178,0 -1.4961,-1.4372 -1.4961,-3.7677 0,-5.2049 z" />
  <path
     style="opacity:0.4"
     inkscape:connector-curvature="0"
     id="path1564"
     d="m 38.665,15.72 c -1.3126,0 -2.6341,0.19028 -3.9113,0.51659 l 1.3038,1.2683 c 4.7554,-0.80699 9.8418,0.46293 13.516,3.9924 2.7928,2.6831 4.2466,6.1631 4.4328,9.6758 0.21272,-4.0145 -1.2411,-8.1125 -4.4328,-11.179 -3.0053,-2.8872 -6.9702,-4.2927 -10.908,-4.2742 z m 4.6935,10.239 -10.039,9.6758 -9.387,-9.0182 c -0.40768,1.4722 -0.55047,2.9975 -0.47804,4.5091 0.05855,-1.0079 0.20615,-2.0243 0.47804,-3.0061 l 9.387,9.0182 10.821,-10.427 -0.78225,-0.75152 z m 13.211,11.179 c -0.93428,2.2873 -2.3783,4.4454 -4.3024,6.294 -1.9241,1.8486 -4.1813,3.2357 -6.5622,4.1334 l 1.0865,1.0333 c 1.9771,-0.8838 3.8459,-2.0978 5.4758,-3.6637 1.9241,-1.8486 3.3681,-4.0066 4.3024,-6.2939 l 14.645,14.091 c 1.2886,1.2379 2.0342,2.807 2.2164,4.4151 0.21104,-2.109 -0.52805,-4.2962 -2.2164,-5.9182 l -14.644,-14 z m 5.4758,20.103 c -0.23376,1.1599 0.10794,2.4366 1.043,3.3348 1.4961,1.4374 3.9362,1.4374 5.4323,0 0.93506,-0.8982 1.2768,-2.1749 1.043,-3.3348 -0.15081,0.6656 -0.50441,1.3144 -1.043,1.8318 -1.4961,1.4373 -3.9362,1.4373 -5.4323,0 -0.53859,-0.5174 -0.8922,-1.1662 -1.043,-1.8318 z" />
  <g
     id="g14291">
    <path
       d="m 5.2922679,73.685059 0,5.0663 c 0,6.668 5.3645011,12.032 12.0320011,12.032 l 61.049,0 c 6.668,0 12.032,-5.3645 12.032,-12.032 l 0,-5.0663 c 0,6.6681 -5.3645,12.032 -12.032,12.032 l -61.049,0 c -6.668,0 -12.0320011,-5.3643 -12.0320011,-12.032 z"
       id="path64"
       inkscape:connector-curvature="0"
       style="opacity:0.4;fill:url(#linearGradient14237);fill-opacity:1" />
    <path
       inkscape:connector-curvature="0"
       id="path14214"
       d="m 5.2929688,72.717592 0,1.15039 c 0,6.667718 5.3632502,12.031248 12.0312502,12.031248 l 61.048828,0 c 6.6675,0 12.03125,-5.36313 12.03125,-12.031248 l 0,-1.15039 c 0,6.668098 -5.36375,12.031248 -12.03125,12.031248 l -61.048828,0 c -6.668,0 -12.0312502,-5.36355 -12.0312502,-12.031248 z"
       style="opacity:0.5;fill:url(#linearGradient14245);fill-opacity:1" />
  </g>
</svg>
