<svg height="96" width="96" xmlns="http://www.w3.org/2000/svg" xmlns:xlink="http://www.w3.org/1999/xlink" xmlns:sodipodi="http://sodipodi.sourceforge.net/DTD/sodipodi-0.dtd" xmlns:inkscape="http://www.inkscape.org/namespaces/inkscape">
 <defs>
  <clipPath id="clipPath3788">
   <path d="m-84 12c-2.216 0-4 1.784-4 4v52c0 2.216 1.784 4 4 4h64c2.216 0 4-1.784 4-4v-52c0-2.216-1.784-4-4-4h-64zm24.969 14c2.8316-0.01228 5.6827 0.92281 7.8438 2.8438 4.3032 3.8251 4.3032 10.05 0 13.875-4.3032 3.8251-11.291 3.8251-15.594 0-2.8814-2.5613-3.8211-6.2034-2.8438-9.4688l6.75 6 7.7812-6.9375-6.75-5.9688c0.91839-0.21718 1.8686-0.33966 2.8125-0.34375zm12.875 14.25 10.531 9.375c2.1583 1.9185 2.1583 5.019 0 6.9375s-5.623 1.9185-7.7812 0l-10.562-9.375c1.7121-0.59717 3.3352-1.5201 4.7188-2.75s2.4219-2.6656 3.0938-4.1875zm6.656 10.406c-0.70501 0-1.4308 0.24061-1.9688 0.71875-1.0758 0.95627-1.0758 2.5125 0 3.4688 1.0758 0.95627 2.8304 0.95627 3.9062 0 1.0758-0.95628 1.0758-2.5125 0-3.4688-0.5379-0.47814-1.2325-0.71875-1.9375-0.71875z"/>
  </clipPath>
  <filter x="-0.227" y="-0.255" height="1.51" color-interpolation-filters="sRGB" id="filter3784" width="1.453">
   <feGaussianBlur stdDeviation="3.4"/>
  </filter>
  <linearGradient x2="0" y1="12" y2="72.11" gradientUnits="userSpaceOnUse" id="linearGradient30961" gradientTransform="matrix(1.3453 0 0 1.4972 -17.787 -15.377)">
   <stop stop-color="#f0f0f0"/>
   <stop stop-color="#b4b4b4" offset="1"/>
  </linearGradient>
  <linearGradient x2="0" y1="58.697" y2="26.07" gradientUnits="userSpaceOnUse" id="linearGradient30982" gradientTransform="matrix(1.3907 0 0 1.503 -18.309 933.01)">
   <stop stop-color="#4d4d4d" stop-opacity="0.707"/>
   <stop stop-color="#4d4d4d" stop-opacity="0.252" offset="1"/>
  </linearGradient>
  <linearGradient x2="0" y1="80" y2="88.01" gradientUnits="userSpaceOnUse" id="linearGradient31052" gradientTransform="matrix(1 0 0 1 -15.705 947.5)">
   <stop/>
   <stop stop-color="#484848" offset="1"/>
  </linearGradient>
  <linearGradient x2="0" y1="80" y2="88.01" gradientUnits="userSpaceOnUse" id="linearGradient31055" gradientTransform="matrix(1 0 0 -1 -15.705 1115.5)">
   <stop stop-color="#fff"/>
   <stop stop-color="#fff" stop-opacity="0" offset="1"/>
  </linearGradient>
  <linearGradient x1="16" x2="20.18" gradientUnits="userSpaceOnUse" id="linearGradient31060">
   <stop stop-color="#767676"/>
   <stop stop-color="#fdfdfd" offset="1"/>
  </linearGradient>
  <radialGradient cy="85.06" r="2.089" gradientUnits="userSpaceOnUse" id="radialGradient31062" cx="18.09" gradientTransform="matrix(1 0 0 1.0043 0 -0.364)">
   <stop stop-color="#ffbf67"/>
   <stop stop-color="#c70000" offset="1"/>
  </radialGradient>
  <path d="m20.179 85.062a2.0893 2.0982 0 1 1 -4.1786 0 2.0893 2.0982 0 1 1 4.1786 0z" id="SVGCleanerId_0"/>
 </defs>
 <g transform="matrix(1 0 0 1 0 -956.36)">
  <rect x="3.353" rx="12.724" y="959.35" fill-opacity="0.02" height="89.98" width="89.62"/>
  <rect x="3.959" rx="12.552" y="959.96" fill-opacity="0.039" height="88.76" width="88.41"/>
  <rect x="4.564" rx="12.38" y="960.57" fill-opacity="0.078" height="87.55" width="87.2"/>
  <rect x="5.17" rx="12.208" y="961.18" fill-opacity="0.157" height="86.33" width="85.991"/>
  <path d="m17.75 5.4062c-6.642 0-11.969 5.3948-11.969 12.063l0.0002 61.031c0 6.668 5.3268 12.031 11.969 12.031h60.812c6.642 0 11.969-5.363 11.969-12.031v-61.031c0-6.668-5.327-12.063-11.969-12.063l-60.812 0.0002z" fill="url(#linearGradient30961)" transform="matrix(1 0 0 1 0 956.36)"/>
  <path d="m5.7756 1033.9v1.0133c0 6.668 5.3434 12.032 11.985 12.032h60.809c6.6418 0 11.985-5.3645 11.985-12.032v-1.0133c0 6.6681-5.3434 12.032-11.985 12.032h-60.809c-6.6418 0-11.985-5.3644-11.985-12.032z" fill-opacity="0.098"/>
  <path d="m5.7756 1029.8v5.0663c0 6.668 5.3434 12.032 11.985 12.032h60.809c6.6418 0 11.985-5.3645 11.985-12.032v-5.0663c0 6.6681-5.3434 12.032-11.985 12.032h-60.809c-6.6418 0-11.985-5.3643-11.985-12.032z" fill-opacity="0.235"/>
  <use xlink:href="#SVGCleanerId_0" fill="url(#linearGradient31060)" transform="matrix(0 1.6709 1.6638 0 -107.94 1001.37)"/>
  <use stroke-opacity="0.532" stroke-width="0.841" xlink:href="#SVGCleanerId_0" fill="url(#radialGradient31062)" stroke="#000" stroke-linecap="square" transform="matrix(1.1923 0 0 1.1872 12.02 930.61)"/>
  <path d="m41.295 1036c-0.81756 0-1.5-0.6824-1.5-1.5v-6c0-0.8176 0.68244-1.5 1.5-1.5s1.5 0.6824 1.5 1.5v6c0 0.8176-0.68244 1.5-1.5 1.5zm4 0c-0.81756 0-1.5-0.6824-1.5-1.5v-6c0-0.8176 0.68244-1.5 1.5-1.5s1.5 0.6824 1.5 1.5v6c0 0.8176-0.68244 1.5-1.5 1.5zm4 0c-0.81756 0-1.5-0.6824-1.5-1.5v-6c0-0.8176 0.68244-1.5 1.5-1.5s1.5 0.6824 1.5 1.5v6c0 0.8176-0.68244 1.5-1.5 1.5zm4 0c-0.81756 0-1.5-0.6824-1.5-1.5v-6c0-0.8176 0.68244-1.5 1.5-1.5s1.5 0.6824 1.5 1.5v6c0 0.8176-0.68244 1.5-1.5 1.5zm4 0c-0.81756 0-1.5-0.6824-1.5-1.5v-6c0-0.8176 0.68244-1.5 1.5-1.5s1.5 0.6824 1.5 1.5v6c0 0.8176-0.68244 1.5-1.5 1.5zm4 0c-0.81756 0-1.5-0.6824-1.5-1.5v-6c0-0.8176 0.68244-1.5 1.5-1.5s1.5 0.6824 1.5 1.5v6c0 0.8176-0.68244 1.5-1.5 1.5zm4 0c-0.81756 0-1.5-0.6824-1.5-1.5v-6c0-0.8176 0.68244-1.5 1.5-1.5s1.5 0.6824 1.5 1.5v6c0 0.8176-0.68244 1.5-1.5 1.5z" fill="url(#linearGradient31055)"/>
  <path d="m41.295 1027.5c-0.554 0-1 0.446-1 1v6c0 0.554 0.446 1 1 1s1-0.446 1-1v-6c0-0.554-0.446-1-1-1zm4 0c-0.554 0-1 0.446-1 1v6c0 0.554 0.446 1 1 1s1-0.446 1-1v-6c0-0.554-0.446-1-1-1zm4 0c-0.554 0-1 0.446-1 1v6c0 0.554 0.446 1 1 1s1-0.446 1-1v-6c0-0.554-0.446-1-1-1zm4 0c-0.554 0-1 0.446-1 1v6c0 0.554 0.446 1 1 1s1-0.446 1-1v-6c0-0.554-0.446-1-1-1zm4 0c-0.554 0-1 0.446-1 1v6c0 0.554 0.446 1 1 1s1-0.446 1-1v-6c0-0.554-0.446-1-1-1zm4 0c-0.554 0-1 0.446-1 1v6c0 0.554 0.446 1 1 1s1-0.446 1-1v-6c0-0.554-0.446-1-1-1zm4 0c-0.554 0-1 0.446-1 1v6c0 0.554 0.446 1 1 1s1-0.446 1-1v-6c0-0.554-0.446-1-1-1z" fill="url(#linearGradient31052)"/>
  <path d="m-69.626 33.258c-0.97733 3.2654-0.0407 6.8898 2.8407 9.451 4.3032 3.8251 11.28 3.8251 15.583 0 4.3032-3.8251 4.3032-10.027 0-13.852-2.8814-2.5613-6.9588-3.3938-10.632-2.5251l6.7366 5.9881-7.7917 6.9259-6.7366-5.9881zm15.665 13.924 10.551 9.3789c2.1583 1.9185 5.6334 1.9185 7.7917 0s2.1583-5.0075 0-6.9259l-10.551-9.3789c-0.67182 1.5219-1.7006 2.9546-3.0842 4.1844-1.3836 1.2299-2.9954 2.1444-4.7075 2.7415zm12.499 4.1844c1.0758-0.95627 2.82-0.95627 3.8958 0s1.0758 2.5067 0 3.463c-1.0758 0.95627-2.82 0.95627-3.8958 0-1.0758-0.95628-1.0758-2.5067 0-3.463z" clip-path="url(#clipPath3788)" fill="#fff" filter="url(#filter3784)" opacity="0.8" transform="matrix(1.3907 0 0 1.503 120.76 933.01)"/>
  <path d="m23.93 982.99c-1.3591 4.908-0.0566 10.356 3.9505 14.205 5.9844 5.7493 15.687 5.7493 21.671 0 5.9844-5.7493 5.9844-15.071 0-20.82-4.0071-3.8496-9.6774-5.101-14.786-3.7953l9.3683 9.0003-10.836 10.41-9.3683-9.0002zm21.784 20.928 14.673 14.097c3.0015 2.8836 7.8342 2.8836 10.836 0 3.0015-2.8836 3.0015-7.5264 0-10.41l-14.673-14.09c-0.93428 2.2873-2.365 4.4407-4.2891 6.2893s-4.1656 3.2231-6.5466 4.1206zm17.382 6.2895c1.4961-1.4374 3.9217-1.4374 5.4178 0 1.4961 1.4372 1.4961 3.7677 0 5.2049-1.4961 1.4374-3.9217 1.4374-5.4178 0-1.4961-1.4372-1.4961-3.7677 0-5.2049z" fill="url(#linearGradient30982)"/>
  <path d="m38.665 972.08c-1.3126 0-2.6341 0.19028-3.9113 0.51659l1.3038 1.2683c4.7554-0.80699 9.8418 0.46293 13.516 3.9924 2.7928 2.6831 4.2466 6.1631 4.4328 9.6758 0.21272-4.0145-1.2411-8.1125-4.4328-11.179-3.0053-2.8872-6.9702-4.2927-10.908-4.2742zm4.6935 10.239-10.039 9.6758-9.387-9.0182c-0.40768 1.4722-0.55047 2.9975-0.47804 4.5091 0.05855-1.0079 0.20615-2.0243 0.47804-3.0061l9.387 9.0182 10.821-10.427-0.78225-0.75152zm13.211 11.179c-0.93428 2.2873-2.3783 4.4454-4.3024 6.294s-4.1813 3.2357-6.5622 4.1334l1.0865 1.0333c1.9771-0.8838 3.8459-2.0978 5.4758-3.6637 1.9241-1.8486 3.3681-4.0066 4.3024-6.2939l14.645 14.091c1.2886 1.2379 2.0342 2.807 2.2164 4.4151 0.21104-2.109-0.52805-4.2962-2.2164-5.9182l-14.644-14zm5.4758 20.103c-0.23376 1.1599 0.10794 2.4366 1.043 3.3348 1.4961 1.4374 3.9362 1.4374 5.4323 0 0.93506-0.8982 1.2768-2.1749 1.043-3.3348-0.15081 0.6656-0.50441 1.3144-1.043 1.8318-1.4961 1.4373-3.9362 1.4373-5.4323 0-0.53859-0.5174-0.8922-1.1662-1.043-1.8318z" opacity="0.4"/>
 </g>
</svg>
