<svg height="96" width="96" xmlns="http://www.w3.org/2000/svg" xmlns:sodipodi="http://sodipodi.sourceforge.net/DTD/sodipodi-0.dtd" xmlns:inkscape="http://www.inkscape.org/namespaces/inkscape">
 <defs>
  <linearGradient x2="0" y1="90" y2="5.988" gradientUnits="userSpaceOnUse" id="linearGradient35922" gradientTransform="matrix(1.1116 0 0 1.1116 -2.576 -8.08)">
   <stop stop-color="#73004b"/>
   <stop stop-color="#a20069" offset="1"/>
  </linearGradient>
 </defs>
 <g transform="matrix(1 0 0 1 0 -956.36)">
  <rect x="3.353" rx="12.724" y="959.35" fill-opacity="0.02" height="89.98" width="89.62"/>
  <rect x="3.959" rx="12.552" y="959.96" fill-opacity="0.039" height="88.76" width="88.41"/>
  <rect x="4.564" rx="12.38" y="960.57" fill-opacity="0.078" height="87.55" width="87.2"/>
  <rect x="5.17" rx="12.208" y="961.18" fill-opacity="0.157" height="86.33" width="85.991"/>
  <path d="m17.75 5.4062c-6.642 0-11.969 5.3948-11.969 12.063l0.0002 61.031c0 6.668 5.3268 12.031 11.969 12.031h60.812c6.642 0 11.969-5.363 11.969-12.031v-61.031c0-6.668-5.327-12.063-11.969-12.063l-60.812 0.0002z" fill="url(#linearGradient35922)" transform="matrix(1 0 0 1 0 956.36)"/>
  <path d="m5.7756 1033.9v1.0133c0 6.668 5.3434 12.032 11.985 12.032h60.809c6.6418 0 11.985-5.3645 11.985-12.032v-1.0133c0 6.6681-5.3434 12.032-11.985 12.032h-60.809c-6.6418 0-11.985-5.3644-11.985-12.032z" fill-opacity="0.098"/>
  <path d="m5.7756 1029.8v5.0663c0 6.668 5.3434 12.032 11.985 12.032h60.809c6.6418 0 11.985-5.3645 11.985-12.032v-5.0663c0 6.6681-5.3434 12.032-11.985 12.032h-60.809c-6.6418 0-11.985-5.3643-11.985-12.032z" fill-opacity="0.235"/>
  <g transform="matrix(1 0 0 1 0.836 953.68)">
   <path d="m48 13.969c-19.294 0-35.031 15.737-35.031 35.031s15.737 35.031 35.031 35.031 35.031-15.737 35.031-35.031-15.737-35.031-35.031-35.031z" color="#000000" opacity="0.05"/>
   <path d="m48 14.875c-18.81 0-34.125 15.315-34.125 34.125s15.315 34.125 34.125 34.125 34.125-15.315 34.125-34.125-15.315-34.125-34.125-34.125zm0 12.25c12.121 0 21.875 9.754 21.875 21.875s-9.754 21.875-21.875 21.875-21.875-9.754-21.875-21.875 9.754-21.875 21.875-21.875zm0 1.75c-11.079 0-20.125 9.046-20.125 20.125s9.046 20.125 20.125 20.125 20.125-9.046 20.125-20.125-9.046-20.125-20.125-20.125z" color="#000000" opacity="0.1"/>
   <path d="m48 16.094c-18.158 0-32.906 14.748-32.906 32.906s14.748 32.906 32.906 32.906 32.906-14.748 32.906-32.906-14.748-32.906-32.906-32.906zm0 9.8125c12.77 0 23.094 10.324 23.094 23.094s-10.324 23.094-23.094 23.094-23.094-10.324-23.094-23.094 10.324-23.094 23.094-23.094zm0 4.1875c-10.426 0-18.906 8.48-18.906 18.906s8.48 18.906 18.906 18.906 18.906-8.48 18.906-18.906-8.48-18.906-18.906-18.906z" color="#000000" opacity="0.15"/>
   <path d="m48 17c-17.673 0-32 14.327-32 32s14.327 32 32 32 32-14.327 32-32-14.327-32-32-32zm0 8c13.255 0 24 10.745 24 24s-10.745 24-24 24-24-10.745-24-24 10.745-24 24-24zm0 6c-9.9411 0-18 8.0589-18 18s8.0589 18 18 18 18-8.0589 18-18-8.0589-18-18-18z" color="#000000" opacity="0.3"/>
   <path d="m72 48a24 24 0 1 1 -48 0 24 24 0 1 1 48 0z" fill="#fff" color="#000000" transform="matrix(0.75 0 0 0.75 12 12)"/>
   <path d="m48 16c-17.673 0-32 14.327-32 32s14.327 32 32 32 32-14.327 32-32-14.327-32-32-32zm0 8c13.255 0 24 10.745 24 24s-10.745 24-24 24-24-10.745-24-24 10.745-24 24-24z" fill="#fff" color="#000000"/>
  </g>
 </g>
</svg>
