<?xml version="1.0" encoding="UTF-8" standalone="no"?>
<svg
   xmlns:dc="http://purl.org/dc/elements/1.1/"
   xmlns:cc="http://creativecommons.org/ns#"
   xmlns:rdf="http://www.w3.org/1999/02/22-rdf-syntax-ns#"
   xmlns:svg="http://www.w3.org/2000/svg"
   xmlns="http://www.w3.org/2000/svg"
   xmlns:xlink="http://www.w3.org/1999/xlink"
   xmlns:sodipodi="http://sodipodi.sourceforge.net/DTD/sodipodi-0.dtd"
   xmlns:inkscape="http://www.inkscape.org/namespaces/inkscape"
   height="96"
   width="96"
   id="svg2"
   version="1.1"
   inkscape:version="0.91 r13725"
   sodipodi:docname="phpmyadmin.svg">
  <metadata
     id="metadata88">
    <rdf:RDF>
      <cc:Work
         rdf:about="">
        <dc:format>image/svg+xml</dc:format>
        <dc:type
           rdf:resource="http://purl.org/dc/dcmitype/StillImage" />
        <dc:title></dc:title>
      </cc:Work>
    </rdf:RDF>
  </metadata>
  <sodipodi:namedview
     pagecolor="#ffffff"
     bordercolor="#666666"
     borderopacity="1"
     objecttolerance="10"
     gridtolerance="10"
     guidetolerance="10"
     inkscape:pageopacity="0"
     inkscape:pageshadow="2"
     inkscape:window-width="1366"
     inkscape:window-height="708"
     id="namedview86"
     showgrid="false"
     inkscape:zoom="4.9166667"
     inkscape:cx="77.834354"
     inkscape:cy="45.836927"
     inkscape:window-x="0"
     inkscape:window-y="24"
     inkscape:window-maximized="1"
     inkscape:current-layer="svg2" />
  <defs
     id="defs4">
    <linearGradient
       inkscape:collect="always"
       id="linearGradient4386">
      <stop
         style="stop-color:#d4d4d4;stop-opacity:1"
         offset="0"
         id="stop4388" />
      <stop
         style="stop-color:#ffffff;stop-opacity:1"
         offset="1"
         id="stop4390" />
    </linearGradient>
    <rect
       x="25.625"
       rx="2.25"
       y="971.86"
       ry="1.932"
       height="20"
       id="SVGCleanerId_0"
       width="4.5" />
    <rect
       x="979.61"
       rx="2.25"
       y="-37.875"
       ry="1.932"
       height="20"
       id="SVGCleanerId_1"
       width="4.5" />
    <rect
       x="994.67"
       rx="2.085"
       y="-77.16"
       ry="1.791"
       height="18.537"
       id="SVGCleanerId_2"
       width="4.171" />
    <rect
       x="1004.7"
       rx="2.085"
       y="-77.16"
       ry="1.791"
       height="18.537"
       id="SVGCleanerId_3"
       width="4.171" />
    <linearGradient
       gradientTransform="matrix(0,-1,1,0,-1.5e-6,47.999998)"
       gradientUnits="userSpaceOnUse"
       x2="47"
       x1="1"
       id="linearGradient3764">
      <stop
         id="stop4221"
         stop-opacity="1"
         stop-color="#e4e4e4" />
      <stop
         id="stop4223"
         stop-opacity="1"
         stop-color="#eee"
         offset="1" />
    </linearGradient>
    <clipPath
       id="clipPath-840154517">
      <g
         id="g4226"
         transform="translate(0,-1004.3622)">
        <path
           id="path4228"
           fill="#1890d0"
           transform="matrix(15.333333,0,0,11.5,414.99999,878.8622)"
           d="m -24 13 c 0 1.105 -0.672 2 -1.5 2 -0.828 0 -1.5 -0.895 -1.5 -2 0 -1.105 0.672 -2 1.5 -2 0.828 0 1.5 0.895 1.5 2 z" />
      </g>
    </clipPath>
    <clipPath
       id="clipPath-868067471">
      <g
         id="g4231"
         transform="translate(0,-1004.3622)">
        <path
           id="path4233"
           fill="#1890d0"
           transform="matrix(15.333333,0,0,11.5,414.99999,878.8622)"
           d="m -24 13 c 0 1.105 -0.672 2 -1.5 2 -0.828 0 -1.5 -0.895 -1.5 -2 0 -1.105 0.672 -2 1.5 -2 0.828 0 1.5 0.895 1.5 2 z" />
      </g>
    </clipPath>
    <linearGradient
       inkscape:collect="always"
       xlink:href="#linearGradient4386"
       id="linearGradient4392"
       x1="49.370205"
       y1="88.243187"
       x2="49.370205"
       y2="4.4465766"
       gradientUnits="userSpaceOnUse" />
    <linearGradient
       gradientTransform="translate(-48.000001,0.00221467)"
       gradientUnits="userSpaceOnUse"
       x2="47"
       x1="1"
       id="linearGradient3764-9">
      <stop
         id="stop4502"
         stop-opacity="1"
         stop-color="#e4e4e4" />
      <stop
         id="stop4504"
         stop-opacity="1"
         stop-color="#eee"
         offset="1" />
    </linearGradient>
    <clipPath
       id="clipPath-680538888">
      <g
         id="g4507"
         transform="translate(0,-1004.3622)">
        <rect
           id="rect4509"
           fill="#1890d0"
           width="46"
           height="46"
           x="1"
           y="1005.36"
           rx="4" />
      </g>
    </clipPath>
    <clipPath
       id="clipPath-693322919">
      <g
         id="g4512"
         transform="translate(0,-1004.3622)">
        <rect
           id="rect4514"
           fill="#1890d0"
           width="46"
           height="46"
           x="1"
           y="1005.36"
           rx="4" />
      </g>
    </clipPath>
  </defs>
  <rect
     style="fill-opacity:0.02000002"
     id="rect12"
     width="89.980003"
     height="89.980003"
     y="2.9899757"
     rx="12.724"
     x="3" />
  <rect
     style="fill-opacity:0.03900003"
     id="rect14"
     width="88.760002"
     height="88.760002"
     y="3.6000221"
     rx="12.552"
     x="3.608" />
  <rect
     style="fill-opacity:0.078"
     id="rect16"
     width="87.550003"
     height="87.550003"
     y="4.2100072"
     rx="12.38"
     x="4.2160001" />
  <rect
     style="fill-opacity:0.15700001"
     id="rect18"
     width="86.330002"
     height="86.330002"
     y="4.8199925"
     rx="12.208"
     x="4.8239999" />
  <path
     style="fill:url(#linearGradient4392);fill-opacity:1"
     inkscape:connector-curvature="0"
     id="path20"
     d="m 17.469,5.41 c -6.668,0 -12.031,5.3945 -12.031,12.062 l 0,61.031 c 0,6.668 5.3633,12.031 12.031,12.031 l 61.031,0 c 6.668,0 12.031,-5.3633 12.031,-12.031 l 0,-61.031 C 90.531,10.804 85.1677,5.41 78.5,5.41 l -61.031,0 z" />
  <path
     style="fill-opacity:0.20400002"
     inkscape:connector-curvature="0"
     id="path22"
     d="m 5.4316,73.44 0,5.0663 c 0,6.668 5.3645,12.032 12.032,12.032 l 61.049,0 c 6.668,0 12.032,-5.3645 12.032,-12.032 l 0,-5.0663 c 0,6.6681 -5.3645,12.032 -12.032,12.032 l -61.049,0 c -6.668,0 -12.032,-5.3643 -12.032,-12.032 z" />
  <path
     style="fill-opacity:0.09800002"
     inkscape:connector-curvature="0"
     id="path24"
     d="m 5.4316,77.54 0,1.0133 c 0,6.668 5.3645,12.032 12.032,12.032 l 61.049,0 c 6.668,0 12.032,-5.3645 12.032,-12.032 l 0,-1.0133 c 0,6.6681 -5.3645,12.032 -12.032,12.032 l -61.049,0 c -6.668,0 -12.032,-5.3644 -12.032,-12.032 z" />
  <g
     id="g4247"
     transform="matrix(2.4021513,0,0,2.4021513,109.96325,-32.005248)" />
  <path
     style="fill:none;fill-rule:evenodd;stroke:#000000;stroke-width:1px;stroke-linecap:butt;stroke-linejoin:round;stroke-opacity:1;opacity:0.1"
     d="M 45.039062 14.535156 C 44.619152 14.535156 44.249557 15.468329 44.248047 16.533203 C 44.244047 19.134724 37.717371 44.441474 35.394531 50.861328 C 34.695341 52.793744 34.123047 54.709779 34.123047 55.121094 C 34.123047 55.580588 34.329398 55.770762 35.482422 55.673828 L 35.169922 56.8125 C 31.005807 57.404134 27.24627 57.595881 23.912109 57.376953 C 20.404729 57.146656 19.984851 57.593954 21.525391 59.921875 L 22.513672 61.416016 L 34.779297 61.349609 L 33.144531 67.291016 C 32.957057 67.972168 32.772752 68.414063 32.591797 68.619141 C 32.420181 68.816895 32.158341 68.952149 31.808594 69.025391 L 31.035156 71.837891 L 36.59375 71.837891 L 37.367188 69.025391 C 37.065078 68.952149 36.883133 68.821289 36.818359 68.630859 C 36.7556 68.433105 36.820213 67.986816 37.011719 67.291016 L 37.183594 66.664062 L 39.083984 66.664062 C 41.127442 66.664062 42.66252 66.231444 43.691406 65.367188 C 44.598533 64.600251 45.35193 63.216652 45.966797 61.287109 L 48.599609 61.271484 L 46.873047 67.542969 C 46.731938 68.055664 46.554804 68.432129 46.341797 68.673828 C 46.138129 68.908203 45.879394 69.025391 45.564453 69.025391 L 44.789062 71.837891 L 49.634766 71.837891 L 50.408203 69.025391 C 50.0854 68.974121 49.892838 68.850098 49.830078 68.652344 C 49.767318 68.45459 49.820903 68.048828 49.990234 67.433594 L 51.691406 61.255859 L 52.224609 61.251953 L 51.810547 71.837891 L 53.392578 71.837891 L 59.798828 59.259766 L 57.630859 67.136719 C 57.433306 67.854493 57.237909 68.334473 57.046875 68.576172 C 56.863164 68.817872 56.606459 68.966797 56.275391 69.025391 L 55.501953 71.837891 L 60.994141 71.837891 L 61.769531 69.025391 C 61.439404 68.974121 61.239204 68.832032 61.171875 68.597656 C 61.11187 68.363282 61.185071 67.876465 61.388672 67.136719 L 63.474609 59.556641 C 63.660068 58.882813 63.840654 58.450196 64.017578 58.259766 C 64.201826 58.069336 64.479228 57.929688 64.847656 57.841797 L 65.597656 55.117188 L 61.707031 55.117188 C 63.882471 52.847253 68.943615 49.113203 73.310547 46.611328 C 76.676707 44.682808 78.128101 43.729997 77.494141 43.757812 C 76.860191 43.785632 74.141172 44.794026 69.169922 46.792969 C 59.646822 50.622215 51.109453 53.424122 43.601562 55.195312 C 43.197179 55.143173 42.750395 55.117188 42.261719 55.117188 L 39.054688 55.117188 C 39.658564 55.008974 40.105964 54.93523 40.873047 54.792969 C 42.626177 54.467836 44.434958 53.966589 44.892578 53.679688 L 45.724609 53.158203 L 45.490234 39.716797 C 45.233124 25.028713 45.460542 23.211429 46.826172 29.0625 C 48.563042 36.504269 50.623047 48.478237 50.623047 51.128906 C 50.623047 52.165301 51.662494 52.087317 56.021484 50.726562 C 59.620194 49.603145 60.373047 49.241054 60.373047 48.636719 C 60.373047 48.234798 56.998047 41.782494 52.873047 34.296875 C 47.842717 25.168347 45.375046 20.320555 45.378906 19.578125 C 45.390906 17.260548 45.933603 17.480179 48.001953 20.632812 C 50.915903 25.074334 52.467616 28.351247 52.947266 31.083984 C 53.177856 32.397723 53.634221 33.740346 53.962891 34.068359 C 54.679831 34.783858 73.555457 43.410156 74.404297 43.410156 C 75.781317 43.410156 74.686359 42.115771 69.287109 37.369141 C 58.605489 27.978646 47.063237 17.872095 46.216797 17.167969 C 45.741867 16.772883 45.373047 16.043681 45.373047 15.5 C 45.373047 14.968768 45.223242 14.535156 45.039062 14.535156 z M 41.787109 14.910156 C 40.131819 14.910156 29.460399 16.802455 29.099609 17.160156 C 28.717099 17.539392 29.352092 17.708211 33.357422 18.287109 C 34.895632 18.50943 36.231572 18.768683 36.326172 18.863281 C 36.918662 19.455774 38.665709 18.857382 40.318359 17.496094 C 42.765229 15.480533 43.089079 14.910156 41.787109 14.910156 z M 42.066406 20.599609 C 40.791176 20.514929 33.373047 22.637148 33.373047 23.144531 C 33.373047 23.324957 34.174617 23.644977 35.154297 23.855469 C 36.133987 24.065961 37.357427 24.407256 37.873047 24.613281 C 39.403227 25.224684 39.594265 25.127153 41.078125 22.972656 C 41.859435 21.838226 42.380408 20.790558 42.236328 20.646484 C 42.209928 20.620094 42.151426 20.605249 42.066406 20.599609 z M 34.621094 27.546875 C 34.591094 27.560225 34.557884 27.597865 34.521484 27.660156 C 34.340794 27.969531 32.846972 32.272657 31.201172 37.222656 C 29.555382 42.172656 27.345756 48.226495 26.291016 50.675781 C 23.596106 56.933804 23.517177 56.700592 28.216797 56.378906 C 30.330867 56.234197 32.223768 55.954129 32.423828 55.755859 C 32.623878 55.557589 33.24944 50.209167 33.8125 43.871094 C 34.80813 32.66382 35.071574 27.346567 34.621094 27.546875 z M 70.574219 55.117188 L 64.867188 67.267578 C 64.565281 67.912109 64.310538 68.349121 64.101562 68.576172 C 63.901927 68.795899 63.658893 68.944824 63.373047 69.025391 L 62.597656 71.837891 L 67.728516 71.837891 L 68.503906 69.025391 C 68.192996 69.010742 67.981292 68.938477 67.871094 68.806641 C 67.768218 68.674805 67.755429 68.469726 67.832031 68.191406 C 67.850171 68.125488 67.872904 68.055664 67.900391 67.982422 C 67.929892 67.901855 67.968725 67.802734 68.015625 67.685547 L 68.333984 67.048828 L 71.5625 67.048828 L 71.511719 67.751953 C 71.500159 67.847168 71.48757 67.9375 71.470703 68.025391 C 71.455856 68.105957 71.439955 68.175782 71.423828 68.234375 C 71.361337 68.461426 71.233126 68.645996 71.041016 68.785156 C 70.85623 68.924316 70.633489 69.003417 70.371094 69.025391 L 69.597656 71.837891 L 75.287109 71.837891 L 76.0625 69.025391 C 75.828327 68.944824 75.668716 68.807129 75.583984 68.609375 C 75.501264 68.404297 75.474673 68.048339 75.503906 67.542969 L 76.320312 55.117188 L 70.574219 55.117188 z M 72.298828 58.269531 L 71.681641 64.664062 L 69.40625 64.664062 L 72.298828 58.269531 z M 56.558594 61.228516 L 54.878906 64.642578 L 55.042969 61.236328 L 56.558594 61.228516 z M 42.15625 61.308594 C 41.949225 61.919071 41.697105 62.359287 41.396484 62.609375 C 41.042838 62.909668 40.452637 63.060547 39.625 63.060547 L 38.175781 63.060547 L 38.652344 61.328125 L 40.011719 61.320312 L 42.15625 61.308594 z "
     id="path4765" />
  <path
     id="path4770"
     d="M 45.039062 14.535156 C 44.619152 14.535156 44.249557 15.468329 44.248047 16.533203 C 44.244047 19.134724 37.717371 44.441474 35.394531 50.861328 C 34.695341 52.793744 34.123047 54.709779 34.123047 55.121094 C 34.123047 55.580588 34.329398 55.770762 35.482422 55.673828 L 35.169922 56.8125 C 31.005807 57.404134 27.24627 57.595881 23.912109 57.376953 C 20.404729 57.146656 19.984851 57.593954 21.525391 59.921875 L 22.513672 61.416016 L 34.779297 61.349609 L 33.144531 67.291016 C 32.957057 67.972168 32.772752 68.414063 32.591797 68.619141 C 32.420181 68.816895 32.158341 68.952149 31.808594 69.025391 L 31.035156 71.837891 L 36.59375 71.837891 L 37.367188 69.025391 C 37.065078 68.952149 36.883133 68.821289 36.818359 68.630859 C 36.7556 68.433105 36.820213 67.986816 37.011719 67.291016 L 37.183594 66.664062 L 39.083984 66.664062 C 41.127442 66.664062 42.66252 66.231444 43.691406 65.367188 C 44.598533 64.600251 45.35193 63.216652 45.966797 61.287109 L 48.599609 61.271484 L 46.873047 67.542969 C 46.731938 68.055664 46.554804 68.432129 46.341797 68.673828 C 46.138129 68.908203 45.879394 69.025391 45.564453 69.025391 L 44.789062 71.837891 L 49.634766 71.837891 L 50.408203 69.025391 C 50.0854 68.974121 49.892838 68.850098 49.830078 68.652344 C 49.767318 68.45459 49.820903 68.048828 49.990234 67.433594 L 51.691406 61.255859 L 52.224609 61.251953 L 51.810547 71.837891 L 53.392578 71.837891 L 59.798828 59.259766 L 57.630859 67.136719 C 57.433306 67.854493 57.237909 68.334473 57.046875 68.576172 C 56.863164 68.817872 56.606459 68.966797 56.275391 69.025391 L 55.501953 71.837891 L 60.994141 71.837891 L 61.769531 69.025391 C 61.439404 68.974121 61.239204 68.832032 61.171875 68.597656 C 61.11187 68.363282 61.185071 67.876465 61.388672 67.136719 L 63.474609 59.556641 C 63.660068 58.882813 63.840654 58.450196 64.017578 58.259766 C 64.201826 58.069336 64.479228 57.929688 64.847656 57.841797 L 65.597656 55.117188 L 61.707031 55.117188 C 63.882471 52.847253 68.943615 49.113203 73.310547 46.611328 C 76.676707 44.682808 78.128101 43.729997 77.494141 43.757812 C 76.860191 43.785632 74.141172 44.794026 69.169922 46.792969 C 59.646822 50.622215 51.109453 53.424122 43.601562 55.195312 C 43.197179 55.143173 42.750395 55.117188 42.261719 55.117188 L 39.054688 55.117188 C 39.658564 55.008974 40.105964 54.93523 40.873047 54.792969 C 42.626177 54.467836 44.434958 53.966589 44.892578 53.679688 L 45.724609 53.158203 L 45.490234 39.716797 C 45.233124 25.028713 45.460542 23.211429 46.826172 29.0625 C 48.563042 36.504269 50.623047 48.478237 50.623047 51.128906 C 50.623047 52.165301 51.662494 52.087317 56.021484 50.726562 C 59.620194 49.603145 60.373047 49.241054 60.373047 48.636719 C 60.373047 48.234798 56.998047 41.782494 52.873047 34.296875 C 47.842717 25.168347 45.375046 20.320555 45.378906 19.578125 C 45.390906 17.260548 45.933603 17.480179 48.001953 20.632812 C 50.915903 25.074334 52.467616 28.351247 52.947266 31.083984 C 53.177856 32.397723 53.634221 33.740346 53.962891 34.068359 C 54.679831 34.783858 73.555457 43.410156 74.404297 43.410156 C 75.781317 43.410156 74.686359 42.115771 69.287109 37.369141 C 58.605489 27.978646 47.063237 17.872095 46.216797 17.167969 C 45.741867 16.772883 45.373047 16.043681 45.373047 15.5 C 45.373047 14.968768 45.223242 14.535156 45.039062 14.535156 z M 41.787109 14.910156 C 40.131819 14.910156 29.460399 16.802455 29.099609 17.160156 C 28.717099 17.539392 29.352092 17.708211 33.357422 18.287109 C 34.895632 18.50943 36.231572 18.768683 36.326172 18.863281 C 36.918662 19.455774 38.665709 18.857382 40.318359 17.496094 C 42.765229 15.480533 43.089079 14.910156 41.787109 14.910156 z M 42.066406 20.599609 C 40.791176 20.514929 33.373047 22.637148 33.373047 23.144531 C 33.373047 23.324957 34.174617 23.644977 35.154297 23.855469 C 36.133987 24.065961 37.357427 24.407256 37.873047 24.613281 C 39.403227 25.224684 39.594265 25.127153 41.078125 22.972656 C 41.859435 21.838226 42.380408 20.790558 42.236328 20.646484 C 42.209928 20.620094 42.151426 20.605249 42.066406 20.599609 z M 34.621094 27.546875 C 34.591094 27.560225 34.557884 27.597865 34.521484 27.660156 C 34.340794 27.969531 32.846972 32.272657 31.201172 37.222656 C 29.555382 42.172656 27.345756 48.226495 26.291016 50.675781 C 23.596106 56.933804 23.517177 56.700592 28.216797 56.378906 C 30.330867 56.234197 32.223768 55.954129 32.423828 55.755859 C 32.623878 55.557589 33.24944 50.209167 33.8125 43.871094 C 34.80813 32.66382 35.071574 27.346567 34.621094 27.546875 z M 70.574219 55.117188 L 64.867188 67.267578 C 64.565281 67.912109 64.310538 68.349121 64.101562 68.576172 C 63.901927 68.795899 63.658893 68.944824 63.373047 69.025391 L 62.597656 71.837891 L 67.728516 71.837891 L 68.503906 69.025391 C 68.192996 69.010742 67.981292 68.938477 67.871094 68.806641 C 67.768218 68.674805 67.755429 68.469726 67.832031 68.191406 C 67.850171 68.125488 67.872904 68.055664 67.900391 67.982422 C 67.929892 67.901855 67.968725 67.802734 68.015625 67.685547 L 68.333984 67.048828 L 71.5625 67.048828 L 71.511719 67.751953 C 71.500159 67.847168 71.48757 67.9375 71.470703 68.025391 C 71.455856 68.105957 71.439955 68.175782 71.423828 68.234375 C 71.361337 68.461426 71.233126 68.645996 71.041016 68.785156 C 70.85623 68.924316 70.633489 69.003417 70.371094 69.025391 L 69.597656 71.837891 L 75.287109 71.837891 L 76.0625 69.025391 C 75.828327 68.944824 75.668716 68.807129 75.583984 68.609375 C 75.501264 68.404297 75.474673 68.048339 75.503906 67.542969 L 76.320312 55.117188 L 70.574219 55.117188 z M 72.298828 58.269531 L 71.681641 64.664062 L 69.40625 64.664062 L 72.298828 58.269531 z M 56.558594 61.228516 L 54.878906 64.642578 L 55.042969 61.236328 L 56.558594 61.228516 z M 42.15625 61.308594 C 41.949225 61.919071 41.697105 62.359287 41.396484 62.609375 C 41.042838 62.909668 40.452637 63.060547 39.625 63.060547 L 38.175781 63.060547 L 38.652344 61.328125 L 40.011719 61.320312 L 42.15625 61.308594 z "
     style="fill:none;fill-rule:evenodd;stroke:#000000;stroke-width:2.5;stroke-linecap:butt;stroke-linejoin:round;stroke-opacity:1;opacity:0.1;stroke-miterlimit:4;stroke-dasharray:none" />
  <path
     style="fill:none;fill-rule:evenodd;stroke:#000000;stroke-width:3.5;stroke-linecap:butt;stroke-linejoin:round;stroke-opacity:1;opacity:0.1;stroke-miterlimit:4;stroke-dasharray:none"
     d="M 45.039062 14.535156 C 44.619152 14.535156 44.249557 15.468329 44.248047 16.533203 C 44.244047 19.134724 37.717371 44.441474 35.394531 50.861328 C 34.695341 52.793744 34.123047 54.709779 34.123047 55.121094 C 34.123047 55.580588 34.329398 55.770762 35.482422 55.673828 L 35.169922 56.8125 C 31.005807 57.404134 27.24627 57.595881 23.912109 57.376953 C 20.404729 57.146656 19.984851 57.593954 21.525391 59.921875 L 22.513672 61.416016 L 34.779297 61.349609 L 33.144531 67.291016 C 32.957057 67.972168 32.772752 68.414063 32.591797 68.619141 C 32.420181 68.816895 32.158341 68.952149 31.808594 69.025391 L 31.035156 71.837891 L 36.59375 71.837891 L 37.367188 69.025391 C 37.065078 68.952149 36.883133 68.821289 36.818359 68.630859 C 36.7556 68.433105 36.820213 67.986816 37.011719 67.291016 L 37.183594 66.664062 L 39.083984 66.664062 C 41.127442 66.664062 42.66252 66.231444 43.691406 65.367188 C 44.598533 64.600251 45.35193 63.216652 45.966797 61.287109 L 48.599609 61.271484 L 46.873047 67.542969 C 46.731938 68.055664 46.554804 68.432129 46.341797 68.673828 C 46.138129 68.908203 45.879394 69.025391 45.564453 69.025391 L 44.789062 71.837891 L 49.634766 71.837891 L 50.408203 69.025391 C 50.0854 68.974121 49.892838 68.850098 49.830078 68.652344 C 49.767318 68.45459 49.820903 68.048828 49.990234 67.433594 L 51.691406 61.255859 L 52.224609 61.251953 L 51.810547 71.837891 L 53.392578 71.837891 L 59.798828 59.259766 L 57.630859 67.136719 C 57.433306 67.854493 57.237909 68.334473 57.046875 68.576172 C 56.863164 68.817872 56.606459 68.966797 56.275391 69.025391 L 55.501953 71.837891 L 60.994141 71.837891 L 61.769531 69.025391 C 61.439404 68.974121 61.239204 68.832032 61.171875 68.597656 C 61.11187 68.363282 61.185071 67.876465 61.388672 67.136719 L 63.474609 59.556641 C 63.660068 58.882813 63.840654 58.450196 64.017578 58.259766 C 64.201826 58.069336 64.479228 57.929688 64.847656 57.841797 L 65.597656 55.117188 L 61.707031 55.117188 C 63.882471 52.847253 68.943615 49.113203 73.310547 46.611328 C 76.676707 44.682808 78.128101 43.729997 77.494141 43.757812 C 76.860191 43.785632 74.141172 44.794026 69.169922 46.792969 C 59.646822 50.622215 51.109453 53.424122 43.601562 55.195312 C 43.197179 55.143173 42.750395 55.117188 42.261719 55.117188 L 39.054688 55.117188 C 39.658564 55.008974 40.105964 54.93523 40.873047 54.792969 C 42.626177 54.467836 44.434958 53.966589 44.892578 53.679688 L 45.724609 53.158203 L 45.490234 39.716797 C 45.233124 25.028713 45.460542 23.211429 46.826172 29.0625 C 48.563042 36.504269 50.623047 48.478237 50.623047 51.128906 C 50.623047 52.165301 51.662494 52.087317 56.021484 50.726562 C 59.620194 49.603145 60.373047 49.241054 60.373047 48.636719 C 60.373047 48.234798 56.998047 41.782494 52.873047 34.296875 C 47.842717 25.168347 45.375046 20.320555 45.378906 19.578125 C 45.390906 17.260548 45.933603 17.480179 48.001953 20.632812 C 50.915903 25.074334 52.467616 28.351247 52.947266 31.083984 C 53.177856 32.397723 53.634221 33.740346 53.962891 34.068359 C 54.679831 34.783858 73.555457 43.410156 74.404297 43.410156 C 75.781317 43.410156 74.686359 42.115771 69.287109 37.369141 C 58.605489 27.978646 47.063237 17.872095 46.216797 17.167969 C 45.741867 16.772883 45.373047 16.043681 45.373047 15.5 C 45.373047 14.968768 45.223242 14.535156 45.039062 14.535156 z M 41.787109 14.910156 C 40.131819 14.910156 29.460399 16.802455 29.099609 17.160156 C 28.717099 17.539392 29.352092 17.708211 33.357422 18.287109 C 34.895632 18.50943 36.231572 18.768683 36.326172 18.863281 C 36.918662 19.455774 38.665709 18.857382 40.318359 17.496094 C 42.765229 15.480533 43.089079 14.910156 41.787109 14.910156 z M 42.066406 20.599609 C 40.791176 20.514929 33.373047 22.637148 33.373047 23.144531 C 33.373047 23.324957 34.174617 23.644977 35.154297 23.855469 C 36.133987 24.065961 37.357427 24.407256 37.873047 24.613281 C 39.403227 25.224684 39.594265 25.127153 41.078125 22.972656 C 41.859435 21.838226 42.380408 20.790558 42.236328 20.646484 C 42.209928 20.620094 42.151426 20.605249 42.066406 20.599609 z M 34.621094 27.546875 C 34.591094 27.560225 34.557884 27.597865 34.521484 27.660156 C 34.340794 27.969531 32.846972 32.272657 31.201172 37.222656 C 29.555382 42.172656 27.345756 48.226495 26.291016 50.675781 C 23.596106 56.933804 23.517177 56.700592 28.216797 56.378906 C 30.330867 56.234197 32.223768 55.954129 32.423828 55.755859 C 32.623878 55.557589 33.24944 50.209167 33.8125 43.871094 C 34.80813 32.66382 35.071574 27.346567 34.621094 27.546875 z M 70.574219 55.117188 L 64.867188 67.267578 C 64.565281 67.912109 64.310538 68.349121 64.101562 68.576172 C 63.901927 68.795899 63.658893 68.944824 63.373047 69.025391 L 62.597656 71.837891 L 67.728516 71.837891 L 68.503906 69.025391 C 68.192996 69.010742 67.981292 68.938477 67.871094 68.806641 C 67.768218 68.674805 67.755429 68.469726 67.832031 68.191406 C 67.850171 68.125488 67.872904 68.055664 67.900391 67.982422 C 67.929892 67.901855 67.968725 67.802734 68.015625 67.685547 L 68.333984 67.048828 L 71.5625 67.048828 L 71.511719 67.751953 C 71.500159 67.847168 71.48757 67.9375 71.470703 68.025391 C 71.455856 68.105957 71.439955 68.175782 71.423828 68.234375 C 71.361337 68.461426 71.233126 68.645996 71.041016 68.785156 C 70.85623 68.924316 70.633489 69.003417 70.371094 69.025391 L 69.597656 71.837891 L 75.287109 71.837891 L 76.0625 69.025391 C 75.828327 68.944824 75.668716 68.807129 75.583984 68.609375 C 75.501264 68.404297 75.474673 68.048339 75.503906 67.542969 L 76.320312 55.117188 L 70.574219 55.117188 z M 72.298828 58.269531 L 71.681641 64.664062 L 69.40625 64.664062 L 72.298828 58.269531 z M 56.558594 61.228516 L 54.878906 64.642578 L 55.042969 61.236328 L 56.558594 61.228516 z M 42.15625 61.308594 C 41.949225 61.919071 41.697105 62.359287 41.396484 62.609375 C 41.042838 62.909668 40.452637 63.060547 39.625 63.060547 L 38.175781 63.060547 L 38.652344 61.328125 L 40.011719 61.320312 L 42.15625 61.308594 z "
     id="path4772" />
  <path
     style="fill:#ff6600;fill-rule:evenodd;stroke:none;stroke-width:1px;stroke-linecap:butt;stroke-linejoin:miter;stroke-opacity:1"
     d="m 45.0396,14.535113 c -0.41991,0 -0.7895,0.933173 -0.79101,1.998047 -0.004,2.601521 -6.530685,27.908271 -8.853525,34.328125 -0.69919,1.932416 -1.27148,3.848451 -1.27148,4.259766 0,0.843614 0.57387,0.817287 6.750005,-0.328126 1.75313,-0.325133 3.56191,-0.826379 4.01953,-1.113281 L 45.72515,53.15816 45.49078,39.716754 c -0.25711,-14.688084 -0.0297,-16.505368 1.33593,-10.654297 1.73687,7.441769 3.79688,19.415737 3.79688,22.066406 0,1.036395 1.03945,0.958411 5.39844,-0.402344 3.59871,-1.123417 4.35156,-1.485509 4.35156,-2.089844 0,-0.401921 -3.375,-6.854224 -7.5,-14.339843 -5.03034,-9.128528 -7.498,-13.97632 -7.49414,-14.71875 0.012,-2.317577 0.55468,-2.097946 2.62304,1.054687 2.91395,4.441522 4.46567,7.718435 4.94532,10.451172 0.23059,1.313739 0.68694,2.656362 1.01562,2.984375 0.71693,0.715499 19.59257,9.341797 20.44141,9.341797 1.37702,0 0.28206,-1.294386 -5.11719,-6.041016 C 58.60603,27.978602 47.06378,17.872051 46.21734,17.167925 c -0.47493,-0.395086 -0.84375,-1.124287 -0.84375,-1.667968 0,-0.531232 -0.14981,-0.964844 -0.33399,-0.964844 z m -3.25195,0.375 c -1.65529,0 -12.326715,1.892299 -12.687505,2.25 -0.38251,0.379236 0.25248,0.548055 4.25781,1.126953 1.53821,0.222321 2.87415,0.481574 2.96875,0.576172 0.59249,0.592493 2.33954,-0.0059 3.992195,-1.367188 2.44687,-2.015561 2.77072,-2.585937 1.46875,-2.585937 z m 0.2793,5.689453 c -1.27523,-0.08468 -8.693365,2.037539 -8.693365,2.544922 0,0.180426 0.80157,0.500445 1.78125,0.710937 0.97969,0.210492 2.20313,0.551788 2.71875,0.757813 1.53018,0.611403 1.72122,0.513872 3.205085,-1.640625 0.78131,-1.13443 1.30228,-2.182098 1.1582,-2.326172 -0.0264,-0.02639 -0.0849,-0.04123 -0.16992,-0.04687 z m -7.445315,6.947266 c -0.03,0.01335 -0.0632,0.05099 -0.0996,0.113281 -0.18069,0.309375 -1.67452,4.612501 -3.32032,9.5625 -1.64579,4.95 -3.85541,11.003839 -4.91015,13.453125 -2.69491,6.258023 -2.77384,6.024811 1.92578,5.703125 2.11407,-0.144709 4.00697,-0.424777 4.20703,-0.623047 0.20005,-0.19827 0.82561,-5.546692 1.38867,-11.884765 0.99563,-11.207274 1.25908,-16.524527 0.8086,-16.324219 z M 77.49468,43.757769 c -0.63395,0.02782 -3.35297,1.036213 -8.32422,3.035156 -19.23016,7.732464 -34.454425,11.293358 -45.257815,10.583985 -3.50738,-0.230297 -3.92726,0.217001 -2.38672,2.544922 l 0.98828,1.49414 17.498055,-0.0957 17.49609,-0.09766 1.15235,-1.955078 c 0.63326,-1.075391 1.78033,-2.705681 2.54882,-3.623047 1.82475,-2.17818 7.39034,-6.334081 12.10156,-9.033203 3.36616,-1.92852 4.81755,-2.881331 4.18359,-2.853516 z"
     id="path4735"
     inkscape:connector-curvature="0"
     sodipodi:nodetypes="scssscccssssscssssssssssssssssssscsccssscscssscccccsss" />
  <path
     style="font-style:normal;font-variant:normal;font-weight:normal;font-stretch:condensed;font-size:22.5px;line-height:125%;font-family:'Aachen BT';-inkscape-font-specification:'Aachen BT Condensed';letter-spacing:0px;word-spacing:0px;fill:#161650;fill-opacity:1;stroke:none;stroke-width:1px;stroke-linecap:butt;stroke-linejoin:miter;stroke-opacity:1"
     d="m 35.636719,55.117188 -0.744141,2.703124 c 0.309428,0.07324 0.495894,0.212891 0.556641,0.417969 0.07008,0.197754 0.0097,0.637208 -0.177735,1.31836 l -2.126953,7.734375 c -0.187474,0.681152 -0.371779,1.123047 -0.552734,1.328125 -0.171616,0.197754 -0.433456,0.333008 -0.783203,0.40625 l -0.773438,2.8125 5.558594,0 0.773438,-2.8125 c -0.30211,-0.07324 -0.484055,-0.204102 -0.548829,-0.394532 -0.06276,-0.197754 0.0019,-0.644043 0.19336,-1.339843 l 0.171875,-0.626954 1.90039,0 c 2.043456,0 3.578536,-0.432617 4.607426,-1.296874 1.0309,-0.871583 1.8742,-2.494141 2.52734,-4.867188 0.53218,-1.933593 0.49145,-3.312988 -0.12305,-4.140625 -0.60717,-0.827637 -1.88574,-1.242187 -3.83398,-1.242187 l -6.625001,0 z m 13.755861,0 -0.75,2.724609 c 0.30741,0.08057 0.49328,0.242676 0.55859,0.484375 0.0726,0.241699 0.0358,0.629394 -0.11133,1.164062 l -2.21679,8.052735 c -0.14111,0.512695 -0.31825,0.88916 -0.53125,1.130859 -0.20367,0.234375 -0.46241,0.351563 -0.77735,0.351563 l -0.77539,2.8125 4.84571,0 0.77343,-2.8125 c -0.3228,-0.05127 -0.51536,-0.175293 -0.57812,-0.373047 -0.0628,-0.197754 -0.009,-0.603516 0.16015,-1.21875 l 2.32227,-8.4375 -0.50195,12.841797 1.58203,0 6.40625,-12.578125 -2.16797,7.876953 c -0.19755,0.717774 -0.39295,1.197754 -0.58399,1.439453 -0.18371,0.2417 -0.44041,0.390625 -0.77148,0.449219 l -0.77344,2.8125 5.49219,0 0.77539,-2.8125 c -0.33013,-0.05127 -0.53033,-0.193359 -0.59765,-0.427735 -0.06,-0.234374 0.0132,-0.721191 0.21679,-1.460937 l 2.08594,-7.580078 c 0.18546,-0.673828 0.36604,-1.106445 0.54297,-1.296875 0.18425,-0.19043 0.46165,-0.330078 0.83008,-0.417969 l 0.75,-2.724609 -6.03321,0 -4.68554,9.52539 0.45703,-9.52539 -5.94336,0 z m 21.18164,0 -5.70703,12.15039 c -0.30191,0.644531 -0.55665,1.081543 -0.76563,1.308594 -0.19963,0.219727 -0.44267,0.368652 -0.72851,0.449219 l -0.77539,2.8125 5.13086,0 0.77539,-2.8125 c -0.31091,-0.01465 -0.52262,-0.08691 -0.63282,-0.21875 -0.10287,-0.131836 -0.11566,-0.336915 -0.0391,-0.615235 0.0181,-0.06592 0.0409,-0.135742 0.0684,-0.208984 0.0295,-0.08057 0.0683,-0.179688 0.11524,-0.296875 l 0.31836,-0.636719 3.22851,0 -0.0508,0.703125 c -0.0116,0.09521 -0.0241,0.185547 -0.041,0.273438 -0.0148,0.08057 -0.0307,0.150391 -0.0469,0.208984 -0.0625,0.227051 -0.1907,0.411621 -0.38281,0.550781 -0.18479,0.13916 -0.40753,0.218261 -0.66992,0.240235 l -0.77344,2.8125 5.68945,0 0.77539,-2.8125 c -0.23417,-0.08057 -0.39378,-0.218262 -0.47851,-0.416016 -0.0827,-0.205078 -0.10931,-0.561036 -0.0801,-1.066406 l 0.8164,-12.425781 -5.74609,0 z m 1.72461,3.152343 -0.61719,6.394531 -2.27539,0 2.89258,-6.394531 z m -32.917971,0.408203 1.472661,0 c 0.79101,0 1.28547,0.160157 1.48242,0.482422 0.19896,0.314942 0.17927,0.905274 -0.0586,1.769532 -0.22578,0.820312 -0.51989,1.379394 -0.88086,1.679687 -0.35365,0.300293 -0.94385,0.451172 -1.771486,0.451172 l -1.449219,0 1.205078,-4.382813 z"
     id="path4745"
     inkscape:connector-curvature="0" />
</svg>
