<svg height="96" width="96" xmlns="http://www.w3.org/2000/svg" xmlns:xlink="http://www.w3.org/1999/xlink" xmlns:sodipodi="http://sodipodi.sourceforge.net/DTD/sodipodi-0.dtd" xmlns:inkscape="http://www.inkscape.org/namespaces/inkscape">
 <defs>
  <linearGradient id="linearGradient4052">
   <stop stop-color="#f4a615"/>
   <stop stop-color="#f47d15" offset="1"/>
  </linearGradient>
  <linearGradient x2="0" y1="41" y2="64.02" gradientUnits="userSpaceOnUse" id="linearGradient118004" gradientTransform="matrix(1 0 0 1 0.266 931.64)">
   <stop stop-color="#f4a615"/>
   <stop stop-color="#f4a615" stop-opacity="0" offset="1"/>
  </linearGradient>
  <linearGradient x1="48" x2="58" xlink:href="#linearGradient4052" spreadMethod="reflect" gradientUnits="userSpaceOnUse" id="linearGradient118006" gradientTransform="matrix(1 0 0 1 0.266 931.64)"/>
  <linearGradient x2="0" xlink:href="#linearGradient4052" y1="31.772" y2="67" gradientUnits="userSpaceOnUse" id="linearGradient118008" gradientTransform="matrix(1 0 0 1 0.266 931.64)"/>
  <path d="m13.477 46c0 0.86294-0.65583 1.5625-1.4648 1.5625-0.80901 0-1.4648-0.69956-1.4648-1.5625s0.65583-1.5625 1.4648-1.5625c0.80901 0 1.4648 0.69956 1.4648 1.5625z" id="SVGCleanerId_1"/>
 </defs>
 <g transform="matrix(1 0 0 1 0 -956.36)">
  <rect x="3.353" rx="12.724" y="959.35" fill-opacity="0.02" height="89.98" width="89.62"/>
  <rect x="3.959" rx="12.552" y="959.96" fill-opacity="0.039" height="88.76" width="88.41"/>
  <rect x="4.564" rx="12.38" y="960.57" fill-opacity="0.078" height="87.55" width="87.2"/>
  <rect x="5.17" rx="12.208" y="961.18" fill-opacity="0.157" height="86.33" width="85.991"/>
  <path d="m17.75 961.77c-6.6418 0-11.969 5.3946-11.969 12.062v61.031c0 6.668 5.327 12.031 11.969 12.031h60.812c6.6418 0 11.969-5.3633 11.969-12.031v-61.031c0-6.6679-5.327-12.062-11.969-12.062h-60.812z" fill="#502d16"/>
  <path d="m-349.95 929.25 62.756 1.3705c0.70361 0.0154 1.2704 0.65517 1.2704 1.469 0 0.81382-0.22042 2.3721-0.9242 2.3721h-62.713c-0.70377 0-1.6165-1.5583-1.6165-2.3721 0-0.81382 0.52465-2.8548 1.2282-2.8395z" fill="#c8b7b7" transform="matrix(0.92888 -0.37038 0.37038 0.92888 0 0)"/>
  <path d="m13.75 995.77c-6.6418 0-7.9688 1.3945-7.9688 8.0625v31.031c0 6.668 5.327 12.031 11.969 12.031h60.812c6.6418 0 11.969-5.3633 11.969-12.031v-31.031c0-6.668-1.327-8.0625-7.9688-8.0625z" fill="#a05a2c"/>
  <path d="m5.7756 1033.9v1.0133c0 6.668 5.3434 12.032 11.985 12.032h60.809c6.6418 0 11.985-5.3645 11.985-12.032v-1.0133c0 6.6681-5.3434 12.032-11.985 12.032h-60.809c-6.6418 0-11.985-5.3644-11.985-12.032z" fill-opacity="0.098"/>
  <path d="m5.7756 1029.8v5.0663c0 6.668 5.3434 12.032 11.985 12.032h60.809c6.6418 0 11.985-5.3645 11.985-12.032v-5.0663c0 6.6681-5.3434 12.032-11.985 12.032h-60.809c-6.6418 0-11.985-5.3643-11.985-12.032z" fill-opacity="0.235"/>
  <g fill="#502d16" transform="matrix(1.4312 0 0 1.4312 -12.78 -430.29)">
   <use xlink:href="#SVGCleanerId_1" transform="matrix(0.64378 0 0 0.60354 12.602 976.07)"/>
   <use xlink:href="#SVGCleanerId_1" transform="matrix(0.64378 0 0 0.60354 16.375 976.07)"/>
   <use xlink:href="#SVGCleanerId_1" transform="matrix(0.64378 0 0 0.60354 20.15 976.07)"/>
   <use xlink:href="#SVGCleanerId_1" transform="matrix(0.64378 0 0 0.60354 23.919 976.07)"/>
   <use xlink:href="#SVGCleanerId_1" transform="matrix(0.64378 0 0 0.60354 27.691 976.07)"/>
   <use xlink:href="#SVGCleanerId_1" transform="matrix(0.64378 0 0 0.60354 31.463 976.07)"/>
   <use xlink:href="#SVGCleanerId_1" transform="matrix(0.64378 0 0 0.60354 12.602 979.85)"/>
   <use xlink:href="#SVGCleanerId_1" transform="matrix(0.64378 0 0 0.60354 16.375 979.85)"/>
   <use xlink:href="#SVGCleanerId_1" transform="matrix(0.64378 0 0 0.60354 20.15 979.85)"/>
   <use xlink:href="#SVGCleanerId_1" transform="matrix(0.64378 0 0 0.60354 23.919 979.85)"/>
   <use xlink:href="#SVGCleanerId_1" transform="matrix(0.64378 0 0 0.60354 27.691 979.85)"/>
   <use xlink:href="#SVGCleanerId_1" transform="matrix(0.64378 0 0 0.60354 31.463 979.85)"/>
   <use xlink:href="#SVGCleanerId_1" transform="matrix(0.64378 0 0 0.60354 12.602 983.62)"/>
   <use xlink:href="#SVGCleanerId_1" transform="matrix(0.64378 0 0 0.60354 16.375 983.62)"/>
   <use xlink:href="#SVGCleanerId_1" transform="matrix(0.64378 0 0 0.60354 20.15 983.62)"/>
   <use xlink:href="#SVGCleanerId_1" transform="matrix(0.64378 0 0 0.60354 23.919 983.62)"/>
   <use xlink:href="#SVGCleanerId_1" transform="matrix(0.64378 0 0 0.60354 27.691 983.62)"/>
   <use xlink:href="#SVGCleanerId_1" transform="matrix(0.64378 0 0 0.60354 31.463 983.62)"/>
   <use xlink:href="#SVGCleanerId_1" transform="matrix(0.64378 0 0 0.60354 12.602 987.39)"/>
   <use xlink:href="#SVGCleanerId_1" transform="matrix(0.64378 0 0 0.60354 16.375 987.39)"/>
   <use xlink:href="#SVGCleanerId_1" transform="matrix(0.64378 0 0 0.60354 20.15 987.39)"/>
   <use xlink:href="#SVGCleanerId_1" transform="matrix(0.64378 0 0 0.60354 23.919 987.39)"/>
   <use xlink:href="#SVGCleanerId_1" transform="matrix(0.64378 0 0 0.60354 27.691 987.39)"/>
   <use xlink:href="#SVGCleanerId_1" transform="matrix(0.64378 0 0 0.60354 31.463 987.39)"/>
   <use xlink:href="#SVGCleanerId_1" transform="matrix(0.64378 0 0 0.60354 12.602 991.16)"/>
   <use xlink:href="#SVGCleanerId_1" transform="matrix(0.64378 0 0 0.60354 16.375 991.16)"/>
   <use xlink:href="#SVGCleanerId_1" transform="matrix(0.64378 0 0 0.60354 20.15 991.16)"/>
   <use xlink:href="#SVGCleanerId_1" transform="matrix(0.64378 0 0 0.60354 23.919 991.16)"/>
   <use xlink:href="#SVGCleanerId_1" transform="matrix(0.64378 0 0 0.60354 27.691 991.16)"/>
   <use xlink:href="#SVGCleanerId_1" transform="matrix(0.64378 0 0 0.60354 31.463 991.16)"/>
   <use xlink:href="#SVGCleanerId_1" transform="matrix(0.64378 0 0 0.60354 12.602 994.93)"/>
   <use xlink:href="#SVGCleanerId_1" transform="matrix(0.64378 0 0 0.60354 16.375 994.93)"/>
   <use xlink:href="#SVGCleanerId_1" transform="matrix(0.64378 0 0 0.60354 20.15 994.93)"/>
   <use xlink:href="#SVGCleanerId_1" transform="matrix(0.64378 0 0 0.60354 23.919 994.93)"/>
   <use xlink:href="#SVGCleanerId_1" transform="matrix(0.64378 0 0 0.60354 27.691 994.93)"/>
   <use xlink:href="#SVGCleanerId_1" transform="matrix(0.64378 0 0 0.60354 31.463 994.93)"/>
  </g>
  <path d="m21.781 991.36c-1.662 0-2.9995 0.57748-2.9995 1.2812v3.125h5.999v-3.125c0-0.70377-1.3375-1.2812-2.9995-1.2812z" fill="#c8b7b7"/>
  <g transform="matrix(1 0 0 1 18.556 39.585)">
   <path d="m31.953 962.45c-1.3418 0.149-2.0688 1.5596-1.875 2.8056 0.0195 2.2725-0.0398 4.5505 0.0313 6.8194 0.2452 1.3285 1.6442 1.9348 2.8774 1.75 0.9809-0.068 1.871-0.1054 0.72639 0.9656-2.0366 2.9784-3.1041 6.6678-2.4713 10.265 0.62868 5.2678 4.3017 9.9081 9.1484 11.986 5.6341 2.6995 12.556 2.2469 17.836-1.0678 4.6249-2.7078 7.439-8.007 7.3202-13.336 0.0266-3.2277-1.4594-6.2324-3.2812-8.8125 1.338-0.083 3.0542 0.3859 3.9062-0.9688 0.6647-1.1039 0.26581-2.4636 0.375-3.6912-0.0507-1.7256 0.10853-3.476-0.0937-5.1838-0.34452-1.2159-1.6609-1.6856-2.8149-1.5312-4.2381 0.021-8.482-0.042-12.716 0.031-1.3286 0.2452-1.9348 1.6442-1.75 2.8774 0.10265 1.4098-0.41966 3.1736 0.94686 4.1362 4.174 3.8028 6.4821 9.6402 5.9952 15.27-0.26354 3.2756-2.1969 6.7934-5.6595 7.4588-3.079 0.692-6.8076-0.072-8.4921-2.9896-2.4223-4.1271-1.6863-9.3274 0.12604-13.539 1.0996-2.6026 2.8614-4.874 4.9585-6.7445 0.7077-1.1761 0.29578-2.6132 0.40625-3.9192 0.24696-1.4731-1.13-2.8332-2.5996-2.5808h-12.9z" opacity="0.11"/>
   <path d="m42.266 972.64v21h1v-21h-1zm4 0v21h1v-21h-1zm4 0v21h1v-21h-1zm4 0v21h1v-21h-1z" fill="url(#linearGradient118004)" color="#000000"/>
   <rect x="38.27" y="973.64" fill="url(#linearGradient118006)" color="#000000" height="2" width="20"/>
   <path d="m32.078 963.64a1.011 1.011 0 0 0 -0.8125 1v7a1.011 1.011 0 0 0 1 1h3a1.011 1.011 0 0 0 1 -1c0-1.2935 0.15108-2.1175 0.34375-2.5313s0.3224-0.5104 0.75-0.625c0.46402-0.1243 2.0652 0.028 3.1875 0.094-0.90082 0.775-1.9322 1.6659-3.0312 2.875-2.5821 2.8402-5.25 6.7662-5.25 11.188 0 5.604 2.6258 9.4245 5.8438 11.719 3.1965 2.2788 6.9016 3.1428 9.4688 3.25 0.0173 0.0007 0.0453-0.0006 0.0625 0 0.22043 0.018 0.43658 0.027 0.6875 0.031a1.011 1.011 0 0 0 0.0625 0c0.2121-0.01 0.40675-0.016 0.59375-0.031 0.0172-0.0006 0.0452 0.0007 0.0625 0 2.5671-0.1072 6.2723-0.9711 9.4688-3.25 3.218-2.2942 5.8438-6.1147 5.8438-11.719 0-4.4213-2.668-8.3473-5.25-11.188-1.0991-1.2091-2.1304-2.1-3.0312-2.875 1.1224-0.066 2.7235-0.2181 3.1875-0.094 0.4276 0.1146 0.55733 0.2112 0.75 0.625s0.34375 1.2378 0.34375 2.5313a1.011 1.011 0 0 0 1 1h3a1.011 1.011 0 0 0 1 -1v-7a1.011 1.011 0 0 0 -1 -1h-13a1.011 1.011 0 0 0 -1 1v3a1.011 1.011 0 0 0 0.34375 0.7812c4.5729 3.873 6.977 10.348 6.6562 15.719-0.16038 2.6853-0.97293 5.0691-2.4375 6.75-1.4474 1.661-3.5212 2.7067-6.4688 2.75-0.035 0.0005-0.0585-0.0003-0.0937 0-0.0273 0.0009-0.12085-0.0002-0.0937 0-3.0041-0.02-5.0979-1.0692-6.5625-2.75-1.4646-1.6809-2.2771-4.0647-2.4375-6.75-0.32075-5.3707 2.0833-11.846 6.6562-15.719a1.011 1.011 0 0 0 0.34375 -0.7812v-3a1.011 1.011 0 0 0 -1 -1h-13a1.011 1.011 0 0 0 -0.1875 0z" opacity="0.15"/>
   <path d="m32.266 964.64v7h3c0-5.4522 2.2504-4.1983 8-4 0 0-10 7-10 15 0 10.593 9.6704 13.789 14.406 13.969 0.20536 0.018 0.42724 0.027 0.6875 0.031 0.21815-0.01 0.41633-0.016 0.59375-0.031 4.7358-0.1797 14.406-3.3758 14.406-13.969 0-8-10-15-10-15 5.7496-0.1983 8-1.4522 8 4h3v-7h-13v3c9.7148 8.2278 9.9862 26.915-3 27-0.0265 0-0.0696 0.0001-0.0937 0-12.986-0.085-12.715-18.772-3-27v-3h-13z" opacity="0.3"/>
   <path d="m32.266 963.64v7h3c0-5.4522 2.2504-4.1983 8-4 0 0-10 7-10 15 0 10.593 9.6704 13.789 14.406 13.969 0.20536 0.018 0.42724 0.027 0.6875 0.031 0.21815-0.01 0.41633-0.016 0.59375-0.031 4.7358-0.1797 14.406-3.3759 14.406-13.969 0-8-10-15-10-15 5.7496-0.1983 8-1.4522 8 4h3v-7h-13v3c9.7148 8.2278 9.9862 26.915-3 27-0.0265 0-0.0696 0.0001-0.0937 0-12.986-0.085-12.715-18.772-3-27v-3h-13z" fill="url(#linearGradient118008)"/>
   <path d="m32.266 963.64v1h13v-1h-13zm19.094 0v1h13v-1h-13zm-9.3125 3.9375c-2.6303 2.1235-8.7812 7.755-8.7812 14.062 0 0.1923 0.025 0.375 0.0313 0.5625 0.35183-7.8162 9.9688-14.562 9.9688-14.562-0.43805-0.015-0.82077-0.039-1.2188-0.063zm12.531 0c-0.39798 0.024-0.7807 0.047-1.2188 0.063 0 0 9.6169 6.7463 9.9688 14.562 0.006-0.1875 0.0313-0.3702 0.0313-0.5625 0-6.3075-6.1509-11.939-8.7812-14.062zm-16.344 15.031c-0.18733 6.4002 2.9469 11.985 10.031 12.031 0.0242 0.0001 0.0672 0 0.0937 0 7.0843-0.046 10.219-5.6311 10.031-12.031-0.15399 5.9719-3.3177 10.987-10.031 11.031-0.0265 0-0.0696 0.0001-0.0937 0-6.7136-0.044-9.8773-5.0594-10.031-11.031z" fill="#fff" opacity="0.3"/>
   <rect x="42.27" y="972.64" fill="#ffda45" color="#000000" height="1" width="1"/>
   <rect x="46.27" y="972.64" fill="#ffda45" color="#000000" height="1" width="1"/>
   <rect x="50.27" y="972.64" fill="#ffda45" color="#000000" height="1" width="1"/>
   <rect x="54.27" y="972.64" fill="#ffda45" color="#000000" height="1" width="1"/>
  </g>
 </g>
</svg>
