<svg height="96" width="96" xmlns="http://www.w3.org/2000/svg" xmlns:sodipodi="http://sodipodi.sourceforge.net/DTD/sodipodi-0.dtd" xmlns:inkscape="http://www.inkscape.org/namespaces/inkscape">
 <defs>
  <radialGradient cy="48" r="42" gradientUnits="userSpaceOnUse" id="radialGradient147115" cx="37.646" gradientTransform="matrix(0 1 -1 0 -161.28 835.29)">
   <stop stop-color="#5c88bc"/>
   <stop stop-color="#5c88bc" offset="0.788"/>
   <stop stop-color="#416da4" offset="1"/>
  </radialGradient>
  <radialGradient cy="67.25" r="40.25" gradientUnits="userSpaceOnUse" id="radialGradient147117" cx="48" gradientTransform="matrix(1 0 0 1.0435 -257.28 803.12)">
   <stop stop-color="#75c624"/>
   <stop stop-color="#75c624" offset="0.783"/>
   <stop stop-color="#60a914" offset="1"/>
  </radialGradient>
  <radialGradient cy="48" r="21" gradientUnits="userSpaceOnUse" id="radialGradient147119" cx="48" gradientTransform="matrix(0 -1.9167 2 0 -305.28 965.29)">
   <stop stop-color="#ef2929"/>
   <stop stop-color="#ef2929" offset="0.801"/>
   <stop stop-color="#df1616" offset="1"/>
  </radialGradient>
  <radialGradient cy="48" r="21" gradientUnits="userSpaceOnUse" id="radialGradient147121" cx="48" gradientTransform="matrix(2 0 0 1.9167 -305.28 781.29)">
   <stop stop-color="#f8e076"/>
   <stop stop-color="#f8e076" offset="0.799"/>
   <stop stop-color="#f3db44" offset="1"/>
  </radialGradient>
  <radialGradient cy="48.02" r="37.38" gradientUnits="userSpaceOnUse" id="radialGradient147123" cx="25.873" gradientTransform="matrix(0 -0.88293 1.0552 0 -259.95 914.32)">
   <stop stop-color="#fff"/>
   <stop stop-color="#b9b9b9" offset="1"/>
  </radialGradient>
  <clipPath clipPathUnits="userSpaceOnUse" id="clipPath147125">
   <path d="m-238.23 832.6c-6.3833 0-11.503 5.1845-11.503 11.593v58.656c0 6.4086 5.1196 11.563 11.503 11.563h58.446c6.3833 0 11.503-5.1544 11.503-11.563v-58.656c0-6.4084-5.1196-11.593-11.503-11.593h-58.446z"/>
  </clipPath>
 </defs>
 <g transform="matrix(1 0 0 1 0 -956.36)">
  <rect x="3.353" rx="12.724" y="959.35" fill-opacity="0.02" height="89.98" width="89.62"/>
  <rect x="3.959" rx="12.552" y="959.96" fill-opacity="0.039" height="88.76" width="88.41"/>
  <rect x="4.564" rx="12.38" y="960.57" fill-opacity="0.078" height="87.55" width="87.2"/>
  <rect x="5.17" rx="12.208" y="961.18" fill-opacity="0.157" height="86.33" width="85.991"/>
  <g clip-path="url(#clipPath147125)" transform="matrix(1.0405 0 0 1.0405 265.63 95.45)">
   <rect x="-251.28" rx="6" y="841.29" fill="url(#radialGradient147115)" height="74" width="84"/>
   <path d="m-245.28 831.29c-1.662 0-3.1655 0.6655-4.25 1.75l40.25 40.25 40.25-40.25c-1.0845-1.0845-2.588-1.75-4.25-1.75h-72z" fill="url(#radialGradient147117)"/>
   <path d="m-249.53 833.04c-1.0845 1.0845-1.75 2.588-1.75 4.25v72c0 1.662 0.6655 3.1655 1.75 4.25l40.25-40.25-40.25-40.25z" fill="url(#radialGradient147119)"/>
   <path d="m-169.03 833.04-40.25 40.25 40.25 40.25c1.0845-1.0845 1.75-2.588 1.75-4.25v-72c0-1.662-0.6655-3.1655-1.75-4.25z" fill="url(#radialGradient147121)"/>
   <path d="m-209.28 840.29a33 33 0 0 1 0 66 33 33 0 1 1 0 -66z" fill="url(#radialGradient147123)"/>
   <path d="m-201.63 895.08c-0.50125-0.15425-0.94536-0.46148-1.3909-0.9622-0.62784-0.70558-0.70678-0.74263-1.9346-0.9079-1.5402-0.20732-6.1378-0.21788-7.6912-0.0177-0.61419 0.0792-1.2459 0.26084-1.4038 0.40374-0.1579 0.14289-0.38636 0.25981-0.50769 0.25981-0.12132 0-0.61495 0.27161-1.097 0.60358-1.3325 0.91775-2.2611 0.93384-4.3862 0.076-0.90122-0.36382-2.2635-0.80669-3.0273-0.98416-2.9257-0.6798-5.7275-1.4574-5.9667-1.6559-0.34788-0.28871-0.31384-0.69175 0.17889-2.1182 0.39756-1.1509 0.41859-1.3508 0.29396-2.7941-0.20656-2.3921-0.16431-2.7974 0.33653-3.2282 0.35056-0.30154 0.62706-0.37184 1.4624-0.37184 1.5011 0 1.9632-0.21437 2.5628-1.1889 0.48114-0.78195 0.5002-0.87137 0.3092-1.4501-0.29109-0.88201-0.0893-1.9855 0.56055-3.0659 0.94061-1.5637 1.3927-2.5693 2.0894-4.6482 0.85697-2.557 0.82539-2.4995 2.5903-4.712 1.7786-2.2295 2.534-3.3456 2.684-3.9652 0.0609-0.25163 0.0312-1.7244-0.066-3.2727-0.28598-4.5551-0.25008-6.7339 0.13056-7.923 0.81914-2.559 2.3065-3.8637 4.8767-4.2776 2.1256-0.34233 4.9464 0.58391 6.4953 2.1328 0.88044 0.88044 1.6643 2.3926 1.909 3.6825 0.0883 0.46569 0.24398 2.159 0.34593 3.7629 0.15997 2.5167 0.24683 3.0754 0.63402 4.0782 0.72682 1.8824 2.5203 4.7961 4.0241 6.5375 1.2125 1.4041 1.4659 1.8109 2.026 3.2526 1.118 2.8778 1.3503 3.8058 1.4454 5.7733 0.0547 1.1316 0.0137 2.2155-0.10696 2.8288-0.18955 0.96347-0.18265 1.0097 0.22291 1.4917 0.31391 0.37306 0.41852 0.68234 0.41852 1.2374 0 0.40699 0.12117 0.99534 0.26927 1.3074 0.34438 0.72572 1.5197 1.9022 2.4378 2.4403 0.85027 0.49829 1.0227 0.90452 0.6406 1.5089-0.4197 0.66373-0.81974 0.94866-2.6113 1.8599-1.7711 0.90085-2.3772 1.326-4.0091 2.8123-1.78 1.6213-3.0414 2.0184-4.7454 1.494z" fill="#1a1a1a" opacity="0.569"/>
   <path d="m-209.28 840.29c-18.225 0-33 14.775-33 33s14.775 33 33 33 33-14.775 33-33-14.775-33-33-33zm0 4.125c15.999 0 28.906 12.876 28.906 28.875s-12.908 28.875-28.906 28.875c-15.999 0-28.875-12.876-28.875-28.875s12.876-28.875 28.875-28.875z" opacity="0.05"/>
  </g>
  <path d="m5.7756 1033.9v1.0133c0 6.668 5.3434 12.032 11.985 12.032h60.809c6.6418 0 11.985-5.3645 11.985-12.032v-1.0133c0 6.6681-5.3434 12.032-11.985 12.032h-60.809c-6.6418 0-11.985-5.3644-11.985-12.032z" fill-opacity="0.098"/>
  <path d="m5.7756 1029.8v5.0663c0 6.668 5.3434 12.032 11.985 12.032h60.809c6.6418 0 11.985-5.3645 11.985-12.032v-5.0663c0 6.6681-5.3434 12.032-11.985 12.032h-60.809c-6.6418 0-11.985-5.3643-11.985-12.032z" fill-opacity="0.235"/>
 </g>
</svg>
