<svg height="96" width="96" xmlns="http://www.w3.org/2000/svg" xmlns:sodipodi="http://sodipodi.sourceforge.net/DTD/sodipodi-0.dtd" xmlns:inkscape="http://www.inkscape.org/namespaces/inkscape">
 <defs>
  <linearGradient x2="0" y1="90" y2="5.988" gradientUnits="userSpaceOnUse" id="linearGradient152357" gradientTransform="matrix(1.0521 0 0 1.1041 -2.463 -5.869)">
   <stop stop-color="#ddbef2"/>
   <stop stop-color="#eddef7" offset="1"/>
  </linearGradient>
  <linearGradient x2="0" y1="13.405" y2="75.68" gradientUnits="userSpaceOnUse" id="linearGradient152377">
   <stop stop-color="#ead7f5"/>
   <stop stop-color="#fff" stop-opacity="0" offset="1"/>
  </linearGradient>
  <linearGradient x2="0" y1="32" y2="80" gradientUnits="userSpaceOnUse" id="linearGradient152379" gradientTransform="matrix(1 0 0 1 -60 0)">
   <stop stop-color="#b5a7c0"/>
   <stop stop-color="#b5a7c0" stop-opacity="0" offset="1"/>
  </linearGradient>
  <linearGradient x2="0" y1="37" y2="69.06" gradientUnits="userSpaceOnUse" id="linearGradient152381">
   <stop stop-color="#d4aeee"/>
   <stop stop-color="#d9b7f0" stop-opacity="0" offset="1"/>
  </linearGradient>
  <linearGradient x2="0" y1="31.991" y2="72.01" gradientUnits="userSpaceOnUse" id="linearGradient152383" gradientTransform="matrix(1 0 0 1 -30 0)">
   <stop stop-color="#82619a"/>
   <stop stop-color="#82619a" stop-opacity="0" offset="1"/>
  </linearGradient>
  <linearGradient x2="0" y1="25" y2="56" gradientUnits="userSpaceOnUse" id="linearGradient152385">
   <stop stop-color="#ac65df"/>
   <stop stop-color="#ac65df" stop-opacity="0" offset="1"/>
  </linearGradient>
  <linearGradient x2="0" y1="25" y2="56" gradientUnits="userSpaceOnUse" id="linearGradient152387" gradientTransform="matrix(1 0 0 1 -30 0)">
   <stop stop-color="#6d3c8d"/>
   <stop stop-color="#6d3c8d" stop-opacity="0" offset="1"/>
  </linearGradient>
  <radialGradient cy="83" r="8" gradientUnits="userSpaceOnUse" id="radialGradient152390" cx="48" gradientTransform="matrix(1.25 0 0 0.3125 -11.789 1011.1)">
   <stop/>
   <stop stop-opacity="0" offset="1"/>
  </radialGradient>
  <linearGradient x2="0" y1="61" y2="79" gradientUnits="userSpaceOnUse" id="linearGradient152393" gradientTransform="matrix(1 0 0 1 -29.789 954.52)">
   <stop stop-color="#4d3557"/>
   <stop stop-color="#4d3557" stop-opacity="0" offset="1"/>
  </linearGradient>
  <linearGradient x1="77.998" x2="87" spreadMethod="reflect" gradientUnits="userSpaceOnUse" id="linearGradient152396" gradientTransform="matrix(1 0 0 1 -29.789 953.52)">
   <stop stop-color="#fff"/>
   <stop stop-color="#fff" stop-opacity="0" offset="1"/>
  </linearGradient>
  <radialGradient cy="55" r="9" gradientUnits="userSpaceOnUse" id="radialGradient152402" cx="78" gradientTransform="matrix(1 0 0 0.44752 -29.789 983.93)">
   <stop stop-color="#ae96ba"/>
   <stop stop-color="#755584" offset="0.836"/>
   <stop stop-color="#664e70" stop-opacity="0" offset="1"/>
  </radialGradient>
  <linearGradient x2="0" y1="83" y2="48.868" gradientUnits="userSpaceOnUse" id="linearGradient152405" gradientTransform="matrix(1 0 0 1 -29.789 954.52)">
   <stop stop-color="#07060b"/>
   <stop stop-color="#37243e" offset="1"/>
  </linearGradient>
  <radialGradient cy="45" r="8" gradientUnits="userSpaceOnUse" id="radialGradient152412" cx="48" gradientTransform="matrix(1.25 0 0 1 -11.789 954.52)">
   <stop stop-color="#513162"/>
   <stop stop-color="#340d42" offset="0.411"/>
   <stop stop-color="#0e0c0f" offset="1"/>
  </radialGradient>
 </defs>
 <g transform="matrix(1 0 0 1 0 -956.36)">
  <rect x="3.353" rx="12.724" y="959.35" fill-opacity="0.02" height="89.98" width="89.62"/>
  <rect x="3.959" rx="12.552" y="959.96" fill-opacity="0.039" height="88.76" width="88.41"/>
  <rect x="4.564" rx="12.38" y="960.57" fill-opacity="0.078" height="87.55" width="87.2"/>
  <rect x="5.17" rx="12.208" y="961.18" fill-opacity="0.157" height="86.33" width="85.991"/>
  <path d="m17.75 5.4062c-6.642 0-11.969 5.3948-11.969 12.063l0.0002 61.031c0 6.668 5.3268 12.031 11.969 12.031h60.812c6.642 0 11.969-5.363 11.969-12.031v-61.031c0-6.668-5.327-12.063-11.969-12.063l-60.812 0.0002z" fill="url(#linearGradient152357)" transform="matrix(1 0 0 1 0 956.36)"/>
  <path d="m5.7756 1033.9v1.0133c0 6.668 5.3434 12.032 11.985 12.032h60.809c6.6418 0 11.985-5.3645 11.985-12.032v-1.0133c0 6.6681-5.3434 12.032-11.985 12.032h-60.809c-6.6418 0-11.985-5.3644-11.985-12.032z" fill-opacity="0.098"/>
  <path d="m5.7756 1029.8v5.0663c0 6.668 5.3434 12.032 11.985 12.032h60.809c6.6418 0 11.985-5.3645 11.985-12.032v-5.0663c0 6.6681-5.3434 12.032-11.985 12.032h-60.809c-6.6418 0-11.985-5.3643-11.985-12.032z" fill-opacity="0.235"/>
  <g transform="matrix(1 0 0 1 0.211 954.52)">
   <path d="m80 48a32 32 0 1 1 -64 0 32 32 0 1 1 64 0z" fill="url(#linearGradient152377)" color="#000000" transform="matrix(1.1562 0 0 1.1562 -7.5 -7.5)"/>
   <path d="m48 11c-20.435 0-37 16.565-37 37s16.565 37 37 37 37-16.565 37-37-16.565-37-37-37zm0 3c19.33 0 35 15.67 35 35s-15.67 35-35 35-35-15.67-35-35 15.67-35 35-35z" fill="url(#linearGradient152379)" color="#000000"/>
   <path d="m73 40a25 25 0 1 1 -50 0 25 25 0 1 1 50 0z" fill="url(#linearGradient152381)" color="#000000" transform="matrix(1 0 0 1 0 3)"/>
   <path d="m48 18c-13.807 0-25 11.193-25 25s11.193 25 25 25 25-11.193 25-25-11.193-25-25-25zm0 3c12.703 0 23 10.297 23 23s-10.297 23-23 23-23-10.297-23-23 10.297-23 23-23z" fill="url(#linearGradient152383)" color="#000000"/>
   <path d="m63 40a15 15 0 1 1 -30 0 15 15 0 1 1 30 0z" fill="url(#linearGradient152385)" color="#000000"/>
   <path d="m48 25c-8.2843 0-15 6.7157-15 15s6.7157 15 15 15 15-6.7157 15-15-6.7157-15-15-15zm0 3c7.1797 0 13 5.8203 13 13s-5.8203 13-13 13-13-5.8203-13-13 5.8203-13 13-13z" fill="url(#linearGradient152387)" color="#000000"/>
  </g>
  <path d="m56.211 994.52a8 8 0 0 1 -16 0 8 8 0 1 1 16 0z" fill="url(#radialGradient152412)" color="#000000"/>
  <path d="m48.211 986.52c-4.4183 0-8 3.5817-8 8s3.5817 8 8 8 8-3.5817 8-8-3.5817-8-8-8zm0 1c3.866 0 7 3.134 7 7s-3.134 7-7 7-7-3.134-7-7 3.134-7 7-7z" fill="#18061e" color="#000000"/>
  <path d="m44.211 1037.5h8c2.2596 0 6-22.981 6-28 0-5-6.3454-6-10-6s-10 1-10 6c0 6 3.816 28 6 28z" fill="url(#linearGradient152405)"/>
  <path d="m57.211 1008.5c0 2.2244-4.0294 4.0277-9 4.0277s-9-1.8033-9-4.0277c0-2.2245 4.0294-4.0277 9-4.0277s9 1.8032 9 4.0277z" fill="url(#radialGradient152402)" color="#000000"/>
  <path d="m39.273 1008.1c-0.04599 0.165-0.0625 0.3295-0.0625 0.5 0 2.2245 4.0294 4.0313 9 4.0313s9-1.8068 9-4.0313c0-0.1705-0.01651-0.335-0.0625-0.5-0.55377 1.9868-4.3481 3.5313-8.9375 3.5313s-8.3837-1.5445-8.9375-3.5313z" fill="url(#linearGradient152396)" color="#000000" opacity="0.6"/>
  <path d="m41.305 1014.1c-0.5318 0.3503-0.82615 1.0286-0.71875 1.6563 0 5.6539 3 20 3 20 0.11525 0.7715 0.84492 1.403 1.625 1.4062h6c0.78008 0 1.5098-0.6347 1.625-1.4062 0 0 3-13.853 3-20 0.09479-0.6182-0.19758-1.2792-0.71875-1.625-1.6509 0.8837-4.131 1.4375-6.9062 1.4375-2.7821 0-5.2554-0.5812-6.9062-1.4688z" fill="url(#linearGradient152393)"/>
  <path d="m58.211 1037a10 2.5 0 0 1 -20 0 10 2.5 0 1 1 20 0z" fill="url(#radialGradient152390)" color="#000000" opacity="0.6"/>
 </g>
</svg>
