<svg height="96" width="96" xmlns="http://www.w3.org/2000/svg" xmlns:xlink="http://www.w3.org/1999/xlink" xmlns:sodipodi="http://sodipodi.sourceforge.net/DTD/sodipodi-0.dtd" xmlns:inkscape="http://www.inkscape.org/namespaces/inkscape">
 <defs>
  <linearGradient x2="0" y1="90" y2="5.988" gradientUnits="userSpaceOnUse" id="linearGradient3002" inkscape:collect="always" gradientTransform="matrix(1.0631 0 0 1.0631 -2.975 -3.439)">
   <stop stop-color="#2c2c2c" stop-opacity="1"/>
   <stop stop-color="#7a7874" stop-opacity="1" offset="1"/>
  </linearGradient>
  <filter x="-0.25" y="-0.25" height="1.5" color-interpolation-filters="sRGB" id="filter3886-6" width="1.5" inkscape:label="Drop shadow">
   <feGaussianBlur stdDeviation="5" in="SourceAlpha" result="blur"/>
   <feColorMatrix values="1 0 0 0 0 0 1 0 0 0 0 0 1 0 0 0 0 0 0.3 0 " type="matrix" result="bluralpha"/>
   <feOffset dx="0" dy="4" in="bluralpha" result="offsetBlur"/>
   <feMerge>
    <feMergeNode in="offsetBlur"/>
    <feMergeNode in="SourceGraphic"/>
   </feMerge>
  </filter>
  <linearGradient id="linearGradient3800-7-2">
   <stop stop-color="#5ca2b8" stop-opacity="1"/>
   <stop stop-color="#aedce8" stop-opacity="1" offset="1"/>
  </linearGradient>
  <linearGradient x1="20.12" x2="32.587" y1="-202.21" y2="-123.51" gradientUnits="userSpaceOnUse" id="linearGradient4211" inkscape:collect="always">
   <stop stop-color="#5587a3" stop-opacity="1"/>
   <stop stop-color="#457d8f" stop-opacity="1" offset="1"/>
  </linearGradient>
  <linearGradient x1="396.35" x2="378.81" xlink:href="#linearGradient3800-7-2" y1="-224.9" y2="-368.21" spreadMethod="pad" gradientUnits="userSpaceOnUse" id="linearGradient4219" inkscape:collect="always" gradientTransform="matrix(1.10091 0 0 1.1004 327.44 67.12)"/>
  <linearGradient x1="450.11" x2="433.41" xlink:href="#linearGradient3800-7-2" y1="-143.3" y2="-242.45" spreadMethod="pad" gradientUnits="userSpaceOnUse" id="linearGradient4221" inkscape:collect="always" gradientTransform="matrix(1.10091 0 0 1.1004 327.44 67.12)"/>
  <linearGradient x1="489.51" x2="442.5" xlink:href="#linearGradient3800-7-2" y1="-113.46" y2="-202.21" spreadMethod="pad" gradientUnits="userSpaceOnUse" id="linearGradient4223" inkscape:collect="always" gradientTransform="matrix(1.10091 0 0 1.1004 327.44 67.12)"/>
  <linearGradient x1="446.69" x2="425.42" xlink:href="#linearGradient3800-7-2" y1="-139.8" y2="-267.9" spreadMethod="pad" gradientUnits="userSpaceOnUse" id="linearGradient4225" inkscape:collect="always" gradientTransform="matrix(1.10091 0 0 1.1004 327.44 67.12)"/>
 </defs>
 <rect x="3" rx="12.724" y="2.99" fill-opacity="0.02" height="89.98" width="89.98"/>
 <rect x="3.608" rx="12.552" y="3.6" fill-opacity="0.039" height="88.76" width="88.76"/>
 <rect x="4.216" rx="12.38" y="4.21" fill-opacity="0.078" height="87.55" width="87.55"/>
 <rect x="4.824" rx="12.208" y="4.82" fill-opacity="0.157" height="86.33" width="86.33"/>
 <path d="m 17.469,5.4062 c -6.668,0 -12.032,5.3948 -12.032,12.063 l 5e-4,61.031 c 0,6.668 5.3635,12.031 12.032,12.031 h 61.03 c 6.668,0 12.031,-5.363 12.031,-12.031 v -61.031 c 0,-6.668 -5.363,-12.063 -12.031,-12.063 l -61.031,2e-4 z" fill="url(#linearGradient3002)" inkscape:connector-curvature="0"/>
 <path d="m 5.4316,73.44 v 5.0663 c 0,6.668 5.3645,12.032 12.032,12.032 h 61.049 c 6.668,0 12.032,-5.3645 12.032,-12.032 V 73.44 c 0,6.6681 -5.3645,12.032 -12.032,12.032 h -61.049 c -6.668,0 -12.032,-5.3643 -12.032,-12.032 z" fill-opacity="0.118" inkscape:connector-curvature="0"/>
 <path d="m 5.4316,77.54 v 1.0133 c 0,6.668 5.3645,12.032 12.032,12.032 h 61.049 c 6.668,0 12.032,-5.3645 12.032,-12.032 V 77.54 c 0,6.6681 -5.3645,12.032 -12.032,12.032 h -61.049 c -6.668,0 -12.032,-5.3644 -12.032,-12.032 z" fill-opacity="0.098" inkscape:connector-curvature="0"/>
 <g transform="matrix(0.13065 0 0 0.13065 -29.03 66.877)">
  <path d="m 267.25327,-422.10663 26.59426,116.69626 -56.62667,90.99738 -90.22127,-57.53177 -26.59426,-116.69626 z" fill="url(#linearGradient4211)" fill-opacity="1" stroke="none" filter="url(#filter3886-6)" sodipodi:nodetypes="cccccc" inkscape:export-filename="D:\Dev\Emulatorer\potemkin\android\source_assets\image\dir.png" inkscape:connector-curvature="0" inkscape:export-xdpi="135" inkscape:export-ydpi="135" transform="matrix(1.10091 0 0 1.1004 327.44 67.12)"/>
  <path d="m 20.117516,-229.83964 116.696264,-26.59425 90.99737,56.62665 -57.53176,90.22128 -116.696259,26.594262 z" fill="url(#linearGradient4211)" fill-opacity="1" stroke="none" filter="url(#filter3886-6)" sodipodi:nodetypes="cccccc" inkscape:export-filename="D:\Dev\Emulatorer\potemkin\android\source_assets\image\dir.png" inkscape:connector-curvature="0" inkscape:export-xdpi="135" inkscape:export-ydpi="135" transform="matrix(1.10091 0 0 1.1004 327.44 67.12)"/>
  <path d="m 213.00559,17.68666 -26.59426,-116.696262 56.62666,-90.997378 90.22128,57.53177 26.59425,116.69626 z" fill="url(#linearGradient4211)" fill-opacity="1" stroke="none" filter="url(#filter3886-6)" sodipodi:nodetypes="cccccc" inkscape:export-filename="D:\Dev\Emulatorer\potemkin\android\source_assets\image\dir.png" inkscape:connector-curvature="0" inkscape:export-xdpi="135" inkscape:export-ydpi="135" transform="matrix(1.10091 0 0 1.1004 327.44 67.12)"/>
  <path d="m 461.99239,-175.00217 -116.69627,26.59426 -90.99738,-56.62667 57.53177,-90.22127 116.69626,-26.59426 z" fill="url(#linearGradient4211)" fill-opacity="1" stroke="none" filter="url(#filter3886-6)" sodipodi:nodetypes="cccccc" inkscape:export-filename="D:\Dev\Emulatorer\potemkin\android\source_assets\image\dir.png" inkscape:connector-curvature="0" inkscape:export-xdpi="135" inkscape:export-ydpi="135" transform="matrix(1.10091 0 0 1.1004 327.44 67.12)"/>
  <path d="m 608.96009,-375.91473 22.41883,98.32906 -49.83024,77.71707 -78.38799,-48.51052 -22.41883,-98.32905 z" fill="url(#linearGradient4219)" fill-opacity="1" stroke="none" sodipodi:nodetypes="cccccc" inkscape:export-filename="D:\Dev\Emulatorer\potemkin\android\source_assets\image\dir.png" inkscape:connector-curvature="0" inkscape:export-xdpi="135" inkscape:export-ydpi="135"/>
  <path d="m 371.05134,-173.10298 98.37438,-22.4085 77.75293,49.80727 -48.53289,78.35185 -98.37439,22.408485 z" fill="url(#linearGradient4221)" fill-opacity="1" stroke="none" sodipodi:nodetypes="cccccc" inkscape:export-filename="D:\Dev\Emulatorer\potemkin\android\source_assets\image\dir.png" inkscape:connector-curvature="0" inkscape:export-xdpi="135" inkscape:export-ydpi="135"/>
  <path d="m 574.64037,65.125848 -22.41883,-98.329049 49.83023,-77.717089 78.38799,48.510522 22.41883,98.329056 z" fill="url(#linearGradient4223)" fill-opacity="1" stroke="none" sodipodi:nodetypes="cccccc" inkscape:export-filename="D:\Dev\Emulatorer\potemkin\android\source_assets\image\dir.png" inkscape:connector-curvature="0" inkscape:export-xdpi="135" inkscape:export-ydpi="135"/>
  <path d="m 814.58695,-138.1501 -98.3744,22.40851 -77.75292,-49.80728 48.53289,-78.35184 98.3744,-22.4085 z" fill="url(#linearGradient4225)" fill-opacity="1" stroke="none" sodipodi:nodetypes="cccccc" inkscape:export-filename="D:\Dev\Emulatorer\potemkin\android\source_assets\image\dir.png" inkscape:connector-curvature="0" inkscape:export-xdpi="135" inkscape:export-ydpi="135"/>
 </g>
</svg>
