<?xml version="1.0" encoding="UTF-8" standalone="no"?>
<svg
   xmlns:dc="http://purl.org/dc/elements/1.1/"
   xmlns:cc="http://creativecommons.org/ns#"
   xmlns:rdf="http://www.w3.org/1999/02/22-rdf-syntax-ns#"
   xmlns:svg="http://www.w3.org/2000/svg"
   xmlns="http://www.w3.org/2000/svg"
   xmlns:xlink="http://www.w3.org/1999/xlink"
   xmlns:sodipodi="http://sodipodi.sourceforge.net/DTD/sodipodi-0.dtd"
   xmlns:inkscape="http://www.inkscape.org/namespaces/inkscape"
   height="96"
   width="96"
   id="svg2"
   version="1.1"
   inkscape:version="0.91 r13725"
   sodipodi:docname="access.svg">
  <metadata
     id="metadata39">
    <rdf:RDF>
      <cc:Work
         rdf:about="">
        <dc:format>image/svg+xml</dc:format>
        <dc:type
           rdf:resource="http://purl.org/dc/dcmitype/StillImage" />
      </cc:Work>
    </rdf:RDF>
  </metadata>
  <sodipodi:namedview
     pagecolor="#ffffff"
     bordercolor="#666666"
     borderopacity="1"
     objecttolerance="10"
     gridtolerance="10"
     guidetolerance="10"
     inkscape:pageopacity="0"
     inkscape:pageshadow="2"
     inkscape:window-width="640"
     inkscape:window-height="480"
     id="namedview37"
     showgrid="false"
     inkscape:zoom="2.4583333"
     inkscape:cx="48"
     inkscape:cy="48"
     inkscape:current-layer="svg2" />
  <defs
     id="defs4">
    <linearGradient
       x2="0"
       y1="90"
       y2="5.988"
       gradientUnits="userSpaceOnUse"
       id="linearGradient251977"
       gradientTransform="matrix(1.0729,0,0,1.0417,-5.127,-2.459)">
      <stop
         stop-color="#1d5282"
         id="stop7" />
      <stop
         stop-color="#568ec2"
         offset="1"
         id="stop9" />
    </linearGradient>
    <linearGradient
       inkscape:collect="always"
       xlink:href="#linearGradient14231"
       id="linearGradient14237"
       x1="50.707542"
       y1="81.682442"
       x2="50.707542"
       y2="96.539803"
       gradientUnits="userSpaceOnUse" />
    <linearGradient
       inkscape:collect="always"
       id="linearGradient14231">
      <stop
         style="stop-color:#000000;stop-opacity:1;"
         offset="0"
         id="stop14233" />
      <stop
         style="stop-color:#000000;stop-opacity:0;"
         offset="1"
         id="stop14235" />
    </linearGradient>
    <linearGradient
       inkscape:collect="always"
       xlink:href="#linearGradient14239"
       id="linearGradient14245"
       x1="49.876652"
       y1="87.937508"
       x2="49.876652"
       y2="76.719681"
       gradientUnits="userSpaceOnUse" />
    <linearGradient
       inkscape:collect="always"
       id="linearGradient14239">
      <stop
         style="stop-color:#ffffff;stop-opacity:1;"
         offset="0"
         id="stop14241" />
      <stop
         style="stop-color:#ffffff;stop-opacity:0;"
         offset="1"
         id="stop14243" />
    </linearGradient>
  </defs>
  <rect
     style="fill-opacity:0.02000002"
     id="rect13"
     width="89.620003"
     height="89.980003"
     y="2.9899757"
     rx="12.724"
     x="3.3529999" />
  <rect
     style="fill-opacity:0.03900003"
     id="rect15"
     width="88.410004"
     height="88.760002"
     y="3.6000221"
     rx="12.552"
     x="3.9590001" />
  <rect
     style="fill-opacity:0.078"
     id="rect17"
     width="87.199997"
     height="87.550003"
     y="4.2100072"
     rx="12.38"
     x="4.5640001" />
  <rect
     style="fill-opacity:0.15700001"
     id="rect19"
     width="85.990997"
     height="86.330002"
     y="4.8199925"
     rx="12.208"
     x="5.1700001" />
  <path
     inkscape:connector-curvature="0"
     style="fill:url(#linearGradient251977)"
     id="path21"
     d="m 17.75,5.4062 c -6.642,0 -11.969,5.3948 -11.969,12.063 l 2e-4,61.031 c 0,6.668 5.3268,12.031 11.969,12.031 l 60.812,0 c 6.642,0 11.969,-5.363 11.969,-12.031 l 0,-61.031 c 0,-6.668 -5.327,-12.063 -11.969,-12.063 l -60.812,2e-4 z" />
  <g
     id="g27"
     transform="matrix(1.0836,0,0,1.0836,-3.72,-6.68)">
    <path
       style="opacity:0.07999998"
       inkscape:connector-curvature="0"
       id="path29"
       d="m 48.281,19.125 c -4.4965,0 -8.125,3.7536 -8.125,8.2812 0,4.5276 3.6285,8.2812 8.125,8.2812 4.4956,0 8.1562,-3.7439 8.1562,-8.2812 0,-4.5373 -3.6606,-8.2812 -8.1562,-8.2812 z M 25.688,32.219 c -0.55883,-0.009 -1.1736,0.10671 -1.7812,0.40625 -1.3141,0.64773 -2.0455,2.0088 -2.0625,3.375 -0.01672,1.4664 0.88874,2.6515 2.0312,3.25 a 0.89295,0.89295 0 0 0 0,0.03125 c 0.0023,0.0011 0.15388,0.06155 0.15625,0.0625 0.0019,7.67e-4 0.08679,0.01789 0.125,0.03125 0.0091,0.0032 0.03078,-1.43e-4 0.03125,0 l 15.375,4.9688 -0.09375,10.781 -5.8125,18.344 a 0.89295,0.89295 0 0 0 -0.03125,0.375 0.89295,0.89295 0 0 0 0,0.0625 c -0.53427,1.5078 -0.18046,3.2684 1.25,4.2188 1.6601,1.1031 4.0431,0.78871 5.2188,-0.96875 a 0.89295,0.89295 0 0 0 0.031,-0.031 c 0.0011,-0.0018 0.06155,-0.1231 0.0625,-0.125 7.25e-4,-0.0015 0.01608,-0.06044 0.03125,-0.09375 0.0047,-0.01025 -1.91e-4,-0.03079 0,-0.03125 l 7.781,-16.437 7.625,16.406 a 0.89295,0.89295 0 0 0 0.03125,0.0625 c 8.65e-4,0.0015 0.06155,0.09233 0.0625,0.09375 0.01921,0.0335 0.0424,0.0611 0.0625,0.09375 1.0475,1.7014 3.2949,2.2701 5.0312,1.2812 1.5118,-0.86102 2.0174,-2.6444 1.5625,-4.2188 a 0.89295,0.89295 0 0 0 0,-0.0625 c -0.003,-0.0097 0.0031,-0.02155 0,-0.03125 A 0.89295,0.89295 0 0 0 62.34375,73.7195 l -5.6875,-18.344 0,-0.0625 -0.031,-10.657 15.437,-5.344 c 0.002,-6.71e-4 0.12304,-0.03044 0.125,-0.03125 0.002,-8.13e-4 0.1231,-0.06155 0.125,-0.0625 0.0019,-9.51e-4 0.12317,-0.06142 0.125,-0.0625 0.0018,-0.0011 0.092,-0.09254 0.09375,-0.09375 1.3757,-0.96148 1.9856,-2.7396 1.375,-4.3438 -0.59674,-1.5679 -2.1876,-2.4523 -3.8125,-2.3125 l 0,-0.0625 c -9.48e-4,-1.5e-5 -0.0303,-1.5e-5 -0.03125,0 a 0.89295,0.89295 0 0 0 -0.062,0.031 0.89295,0.89295 0 0 0 -0.09375,0 c -0.46126,0.07644 -0.79791,0.17983 -0.84375,0.1875 l -21.062,3.532 -21,-3.688 c -0.29525,-0.05178 -0.76348,-0.17871 -1.3125,-0.1875 z" />
    <path
       style="opacity:0.15"
       inkscape:connector-curvature="0"
       id="path31"
       d="m 48.281,20.031 c -4.0029,0 -7.2188,3.3193 -7.2188,7.375 0,4.0557 3.2158,7.375 7.2188,7.375 4.0029,0 7.25,-3.3136 7.25,-7.375 0,-4.0614 -3.2471,-7.375 -7.25,-7.375 z M 25.688,33.125 c -0.4327,-0.0069 -0.89794,0.07734 -1.375,0.3125 -0.99876,0.49231 -1.5493,1.4968 -1.5625,2.5625 -0.01258,1.1034 0.65002,2.0071 1.5312,2.4688 a 0.98224,0.98224 0 0 0 0.15625,0.0625 l 16.031,5.1875 -0.09375,11.5 -5.875,18.53 0.0625,0.03125 c -0.65673,1.2293 -0.38879,2.7956 0.8125,3.5938 1.2763,0.84804 3.0742,0.6184 3.9688,-0.71875 a 0.98224,0.98224 0 0 0 0.0625,-0.125 l 8.594,-18.219 8.438,18.157 a 0.98224,0.98224 0 0 0 0.062,0.093 c 0.77362,1.3493 2.524,1.8006 3.875,1.0312 1.263,-0.719 1.652,-2.29 1.063,-3.593 l 0.062,-0.031 -5.75,-18.594 -0.031,-11.344 16.062,-5.5625 a 0.98224,0.98224 0 0 0 0.25,-0.125 c 1.0479,-0.73241 1.4954,-2.093 1.0312,-3.3125 -0.461,-1.211 -1.702,-1.924 -2.968,-1.78 a 0.98224,0.98224 0 0 0 -0.03125,0 c -0.39226,0.065 -0.65557,0.15599 -0.84375,0.1875 l -21.219,3.562 -21.156,-3.719 c -0.334,-0.058 -0.724,-0.149 -1.156,-0.156 z" />
    <path
       style="opacity:0.4"
       inkscape:connector-curvature="0"
       id="path33"
       d="m 54.566,27.412 c 0,3.5397 -2.8086,6.4124 -6.2691,6.4124 -3.4605,0 -6.2691,-2.8728 -6.2691,-6.4124 0,-3.5397 2.8086,-6.4124 6.2691,-6.4124 3.4605,0 6.2691,2.8728 6.2691,6.4124 z m 15.647,6.8185 c -0.28996,0.04805 -0.5367,0.12777 -0.82626,0.17625 l -21.387,3.5807 -21.299,-3.735 c -0.67525,-0.11841 -1.3247,-0.25856 -1.9399,0.0447 -0.61521,0.30325 -1.0185,1.022 -1.027,1.706 -0.0078,0.68404 0.41945,1.274 1.027,1.5922 l 16.689,5.416 -0.114,12.433 -5.889,18.619 c -0.5672,0.84785 -0.39432,1.9367 0.45645,2.502 0.85081,0.56533 2.0573,0.3931 2.6246,-0.45487 l 9.5039,-20.098 9.3245,20.063 c 0.5042,0.87942 1.6281,1.1849 2.5105,0.68242 0.88232,-0.50251 1.1889,-1.6227 0.68467,-2.5021 l -5.7799,-18.7 -0.0082,-12.254 16.704,-5.7729 c 0.6838,-0.47792 0.98087,-1.3827 0.68469,-2.1608 -0.29619,-0.77825 -1.1102,-1.2317 -1.9399,-1.1374 l 5.5e-5,0 z" />
    <path
       style="fill:#ffffff"
       inkscape:connector-curvature="0"
       id="path35"
       d="m 54.566,26.412 c 0,3.5397 -2.8086,6.4124 -6.2691,6.4124 -3.4605,0 -6.2691,-2.8728 -6.2691,-6.4124 0,-3.5397 2.8086,-6.4124 6.2691,-6.4124 3.4605,0 6.2691,2.8728 6.2691,6.4124 z m 15.647,6.8185 c -0.28996,0.04805 -0.5367,0.12777 -0.82626,0.17625 l -21.387,3.5807 -21.299,-3.735 c -0.67525,-0.11841 -1.3247,-0.25856 -1.9399,0.0447 -0.61521,0.30325 -1.0185,1.022 -1.027,1.706 -0.0078,0.68404 0.41945,1.274 1.027,1.5922 l 16.689,5.416 -0.114,12.433 -5.889,18.619 c -0.5672,0.84785 -0.39432,1.9367 0.45645,2.502 0.85081,0.56533 2.0573,0.3931 2.6246,-0.45487 l 9.5039,-20.098 9.3245,20.063 c 0.5042,0.87942 1.6281,1.1849 2.5105,0.68242 0.88232,-0.50251 1.1889,-1.6227 0.68467,-2.5021 l -5.7799,-18.7 -0.0082,-12.254 16.704,-5.7729 c 0.6838,-0.47792 0.98087,-1.3827 0.68469,-2.1608 -0.29619,-0.77825 -1.1102,-1.2317 -1.9399,-1.1374 l 5.5e-5,0 z" />
  </g>
  <g
     id="g14291">
    <path
       d="m 5.2922679,73.685059 0,5.0663 c 0,6.668 5.3645011,12.032 12.0320011,12.032 l 61.049,0 c 6.668,0 12.032,-5.3645 12.032,-12.032 l 0,-5.0663 c 0,6.6681 -5.3645,12.032 -12.032,12.032 l -61.049,0 c -6.668,0 -12.0320011,-5.3643 -12.0320011,-12.032 z"
       id="path64"
       inkscape:connector-curvature="0"
       style="opacity:0.4;fill:url(#linearGradient14237);fill-opacity:1" />
    <path
       inkscape:connector-curvature="0"
       id="path14214"
       d="m 5.2929688,72.717592 0,1.15039 c 0,6.667718 5.3632502,12.031248 12.0312502,12.031248 l 61.048828,0 c 6.6675,0 12.03125,-5.36313 12.03125,-12.031248 l 0,-1.15039 c 0,6.668098 -5.36375,12.031248 -12.03125,12.031248 l -61.048828,0 c -6.668,0 -12.0312502,-5.36355 -12.0312502,-12.031248 z"
       style="opacity:0.5;fill:url(#linearGradient14245);fill-opacity:1" />
  </g>
</svg>
