<?xml version="1.0" encoding="UTF-8" standalone="no"?>
<svg
   xmlns:dc="http://purl.org/dc/elements/1.1/"
   xmlns:cc="http://creativecommons.org/ns#"
   xmlns:rdf="http://www.w3.org/1999/02/22-rdf-syntax-ns#"
   xmlns:svg="http://www.w3.org/2000/svg"
   xmlns="http://www.w3.org/2000/svg"
   xmlns:xlink="http://www.w3.org/1999/xlink"
   xmlns:sodipodi="http://sodipodi.sourceforge.net/DTD/sodipodi-0.dtd"
   xmlns:inkscape="http://www.inkscape.org/namespaces/inkscape"
   height="96"
   width="96"
   id="svg802"
   version="1.1"
   inkscape:version="0.91 r13725"
   sodipodi:docname="background.svg">
  <metadata
     id="metadata1115">
    <rdf:RDF>
      <cc:Work
         rdf:about="">
        <dc:format>image/svg+xml</dc:format>
        <dc:type
           rdf:resource="http://purl.org/dc/dcmitype/StillImage" />
      </cc:Work>
    </rdf:RDF>
  </metadata>
  <sodipodi:namedview
     pagecolor="#ffffff"
     bordercolor="#666666"
     borderopacity="1"
     objecttolerance="10"
     gridtolerance="10"
     guidetolerance="10"
     inkscape:pageopacity="0"
     inkscape:pageshadow="2"
     inkscape:window-width="640"
     inkscape:window-height="480"
     id="namedview1113"
     showgrid="false"
     inkscape:zoom="2.4583333"
     inkscape:cx="48"
     inkscape:cy="48"
     inkscape:current-layer="svg802" />
  <defs
     id="defs804">
    <linearGradient
       x2="0.40677965"
       y1="91.352036"
       y2="28.213339"
       gradientUnits="userSpaceOnUse"
       id="linearGradient6400"
       x1="0">
      <stop
         stop-color="#ccc"
         id="stop807" />
      <stop
         stop-color="#dae0de"
         offset="1"
         id="stop809" />
    </linearGradient>
    <radialGradient
       cy="-15.871"
       r="35.938"
       gradientUnits="userSpaceOnUse"
       id="radialGradient6415"
       cx="56.07"
       gradientTransform="matrix(0.00226 0.92548 -1.3844 0 25.902 -30.21)">
      <stop
         stop-color="#4490e6"
         id="stop812" />
      <stop
         stop-color="#103d8f"
         offset="1"
         id="stop814" />
    </radialGradient>
    <clipPath
       clipPathUnits="userSpaceOnUse"
       id="clipPath6423">
      <rect
         x="16.06"
         rx="7.803"
         y="967.42"
         height="61"
         width="64.56"
         id="rect817" />
    </clipPath>
    <linearGradient
       id="linearGradient4368-4">
      <stop
         stop-color="#828282"
         id="stop820" />
      <stop
         stop-color="#5a5a5a"
         offset="1"
         id="stop822" />
    </linearGradient>
    <linearGradient
       id="linearGradient4360-1">
      <stop
         stop-color="#6e6e6e"
         id="stop825" />
      <stop
         stop-color="#8c8c8c"
         offset="1"
         id="stop827" />
    </linearGradient>
    <linearGradient
       id="linearGradient7175-7">
      <stop
         id="stop830" />
      <stop
         stop-opacity="0"
         offset="1"
         id="stop832" />
    </linearGradient>
    <linearGradient
       id="linearGradient7155-9">
      <stop
         stop-color="#fff"
         id="stop835" />
      <stop
         stop-color="#fff"
         stop-opacity="0"
         offset="1"
         id="stop837" />
    </linearGradient>
    <linearGradient
       x2="0"
       xlink:href="#linearGradient7155-9"
       y1="16.13"
       y2="69.69"
       gradientUnits="userSpaceOnUse"
       id="linearGradient4149"
       gradientTransform="translate(60,0)" />
    <linearGradient
       x2="0"
       y1="16.13"
       y2="69.69"
       gradientUnits="userSpaceOnUse"
       id="linearGradient4147"
       gradientTransform="matrix(1 0 0 1 60 0)">
      <stop
         stop-color="#9cb7d2"
         id="stop841" />
      <stop
         stop-color="#e7edf3"
         stop-opacity="0"
         offset="1"
         id="stop843" />
    </linearGradient>
    <linearGradient
       x2="0"
       y1="6.132"
       y2="90.24"
       gradientUnits="userSpaceOnUse"
       id="linearGradient2969-0"
       gradientTransform="matrix(1.0238 0 0 1.0119 -1.143 -98.07)">
      <stop
         id="stop846" />
      <stop
         stop-opacity="0.588"
         offset="1"
         id="stop848" />
    </linearGradient>
    <radialGradient
       cy="90.17"
       r="42"
       xlink:href="#linearGradient7155-9"
       gradientUnits="userSpaceOnUse"
       id="radialGradient2893-2"
       cx="48"
       gradientTransform="matrix(1.1573,0,0,0.99591,-7.551,0.197)" />
    <linearGradient
       x2="0"
       xlink:href="#linearGradient7155-9"
       y1="8.06"
       y2="72.77"
       gradientUnits="userSpaceOnUse"
       id="linearGradient3693-2" />
    <linearGradient
       x2="0"
       y1="90"
       y2="5.988"
       gradientUnits="userSpaceOnUse"
       id="linearGradient3466-6">
      <stop
         stop-color="#b4b4b4"
         id="stop853" />
      <stop
         stop-color="#e6e6e6"
         offset="1"
         id="stop855" />
    </linearGradient>
    <linearGradient
       x2="0"
       xlink:href="#linearGradient7155-9"
       y1="6"
       y2="63.893"
       gradientUnits="userSpaceOnUse"
       id="linearGradient3188-03" />
    <linearGradient
       x1="69"
       x2="61.891"
       xlink:href="#linearGradient7175-7"
       y1="53"
       y2="-1"
       gradientUnits="userSpaceOnUse"
       id="linearGradient5078" />
    <linearGradient
       x1="70"
       x2="56.07"
       xlink:href="#linearGradient7175-7"
       y1="52"
       gradientUnits="userSpaceOnUse"
       id="linearGradient5082" />
    <linearGradient
       x1="50"
       x2="66"
       y1="46"
       y2="30"
       gradientUnits="userSpaceOnUse"
       id="linearGradient5084">
      <stop
         stop-color="#f1decd"
         id="stop861" />
      <stop
         stop-color="#f6e8dd"
         offset="0.415"
         id="stop863" />
      <stop
         stop-color="#f0dcc9"
         offset="0.625"
         id="stop865" />
      <stop
         stop-color="#dab693"
         offset="0.873"
         id="stop867" />
      <stop
         stop-color="#bf9d7a"
         offset="0.943"
         id="stop869" />
      <stop
         stop-color="#8f765e"
         offset="1"
         id="stop871" />
    </linearGradient>
    <linearGradient
       x1="64"
       x2="52"
       xlink:href="#linearGradient7175-7"
       y1="46.894"
       y2="45.31"
       gradientUnits="userSpaceOnUse"
       id="linearGradient5086" />
    <linearGradient
       x2="0"
       xlink:href="#linearGradient7155-9"
       y1="46"
       y2="20"
       gradientUnits="userSpaceOnUse"
       id="linearGradient5088" />
    <linearGradient
       x1="72"
       x2="77"
       y1="32"
       y2="16"
       gradientUnits="userSpaceOnUse"
       id="linearGradient5092">
      <stop
         stop-color="#999"
         id="stop876" />
      <stop
         stop-color="#bbb"
         offset="1"
         id="stop878" />
    </linearGradient>
    <linearGradient
       x2="0"
       y1="27.26"
       y2="7.254"
       gradientUnits="userSpaceOnUse"
       id="linearGradient5104"
       gradientTransform="matrix(0,1,-1,0,28.26,11.12)">
      <stop
         stop-color="#a0a0a0"
         id="stop881" />
      <stop
         stop-color="#dcdcdc"
         offset="0.136"
         id="stop883" />
      <stop
         stop-color="#f5f5f5"
         offset="0.302"
         id="stop885" />
      <stop
         stop-color="#dcdcdc"
         offset="0.612"
         id="stop887" />
      <stop
         stop-color="#b4b4b4"
         offset="1"
         id="stop889" />
    </linearGradient>
    <linearGradient
       x2="0"
       xlink:href="#linearGradient7155-9"
       y1="5"
       y2="110.74"
       gradientUnits="userSpaceOnUse"
       id="linearGradient5106"
       gradientTransform="matrix(0.16899,0,0,0.16899,-9.149,0.155)" />
    <linearGradient
       x2="0"
       xlink:href="#linearGradient7155-9"
       y1="54.3"
       y2="96.04"
       spreadMethod="reflect"
       gradientUnits="userSpaceOnUse"
       id="linearGradient5108"
       gradientTransform="matrix(0.06836,0,0,-0.16899,-12.166,21.785)" />
    <linearGradient
       x2="0"
       xlink:href="#linearGradient7155-9"
       y1="5"
       y2="68.69"
       gradientUnits="userSpaceOnUse"
       id="linearGradient5110"
       gradientTransform="matrix(0.08408,0,0,-0.16899,-18.3,21.785)" />
    <linearGradient
       x2="0"
       xlink:href="#linearGradient7175-7"
       y1="5"
       y2="70.17"
       gradientUnits="userSpaceOnUse"
       id="linearGradient5112"
       gradientTransform="matrix(0.22873,0,0,-0.16899,-19.27,21.785)" />
    <linearGradient
       x2="0"
       xlink:href="#linearGradient7175-7"
       y1="5"
       y2="120.64"
       gradientUnits="userSpaceOnUse"
       id="linearGradient5114"
       gradientTransform="matrix(0.18471,0,0,-0.16899,-12.947,21.845)" />
    <linearGradient
       x2="0"
       xlink:href="#linearGradient7175-7"
       y1="5"
       y2="176.65"
       gradientUnits="userSpaceOnUse"
       id="linearGradient5118"
       gradientTransform="matrix(0.06686,0,0,0.16899,-4.169,0.215)" />
    <linearGradient
       x2="0"
       y1="13.313"
       y2="47.795"
       gradientUnits="userSpaceOnUse"
       id="linearGradient5122">
      <stop
         stop-color="#919191"
         id="stop898" />
      <stop
         stop-color="#fff"
         offset="1"
         id="stop900" />
    </linearGradient>
    <linearGradient
       x1="87.23"
       x2="69.921"
       xlink:href="#linearGradient4360-1"
       gradientUnits="userSpaceOnUse"
       id="linearGradient5124" />
    <linearGradient
       x1="82.86"
       x2="86.75"
       xlink:href="#linearGradient4368-4"
       y1="87.43"
       y2="97.97"
       gradientUnits="userSpaceOnUse"
       id="linearGradient5126" />
    <linearGradient
       x1="52.11"
       x2="61.13"
       xlink:href="#linearGradient4368-4"
       y1="76.54"
       y2="68.3"
       gradientUnits="userSpaceOnUse"
       id="linearGradient5128" />
    <linearGradient
       x1="66.74"
       x2="75.28"
       xlink:href="#linearGradient4360-1"
       y1="63.59"
       y2="80.81"
       gradientUnits="userSpaceOnUse"
       id="linearGradient5130" />
    <linearGradient
       x1="43.24"
       x2="48.19"
       xlink:href="#linearGradient4360-1"
       y1="104.22"
       y2="93.47"
       gradientUnits="userSpaceOnUse"
       id="linearGradient5132" />
    <linearGradient
       x1="60.41"
       x2="46.921"
       xlink:href="#linearGradient4368-4"
       y1="106.16"
       y2="110.66"
       gradientUnits="userSpaceOnUse"
       id="linearGradient5134" />
    <linearGradient
       x1="6.933"
       x2="6.935"
       y1="3"
       y2="6.426"
       gradientUnits="userSpaceOnUse"
       id="linearGradient5136"
       gradientTransform="translate(0,-2)">
      <stop
         stop-color="#e0c693"
         id="stop909" />
      <stop
         stop-color="#c0984f"
         offset="0.717"
         id="stop911" />
      <stop
         stop-color="#a67315"
         offset="1"
         id="stop913" />
    </linearGradient>
    <linearGradient
       x2="0"
       y1="24.12"
       y2="8.122"
       gradientUnits="userSpaceOnUse"
       id="linearGradient5140"
       gradientTransform="translate(-1.74,-3.123)">
      <stop
         stop-color="#cca050"
         id="stop916" />
      <stop
         stop-color="#dec18c"
         offset="1"
         id="stop918" />
    </linearGradient>
    <path
       d="m12.062 12.062v53.875h71.875v-53.875h-71.875z"
       fill="url(#radialGradient6415)"
       id="SVGCleanerId_0" />
    <path
       d="m19 13c-3.2894 0-6 2.7106-6 6v58c0 3.2894 2.7106 6 6 6h58c3.2894 0 6-2.7106 6-6v-58c0-3.2894-2.7106-6-6-6h-58zm0 4h58c1.1426 0 2 0.85741 2 2v58c0 1.1426-0.85741 2-2 2h-58c-1.1426 0-2-0.85741-2-2v-58c0-1.1426 0.85741-2 2-2z"
       color="#000000"
       id="SVGCleanerId_1"
       opacity="0.08" />
    <path
       d="m17 14c-1.662 0-3 1.338-3 3v62c0 1.662 1.338 3 3 3h62c1.662 0 3-1.338 3-3v-62c0-1.662-1.338-3-3-3h-62zm0 1.9375h62c0.61816 0 1.0625 0.44434 1.0625 1.0625v62c0 0.61816-0.44434 1.0625-1.0625 1.0625h-62c-0.61816 0-1.0625-0.44434-1.0625-1.0625v-62c0-0.61816 0.44434-1.0625 1.0625-1.0625z"
       color="#000000"
       id="SVGCleanerId_2"
       opacity="0.1" />
    <path
       d="m17 14c-1.662 0-3 1.338-3 3v62c0 1.662 1.338 3 3 3h62c1.662 0 3-1.338 3-3v-62c0-1.662-1.338-3-3-3h-62zm0 0.96875h62c1.1401 0 2.0312 0.89117 2.0312 2.0312v62c0 1.1401-0.89117 2.0312-2.0312 2.0312h-62c-1.1401 0-2.0312-0.89117-2.0312-2.0312v-62c0-1.1401 0.89117-2.0312 2.0312-2.0312z"
       color="#000000"
       id="SVGCleanerId_3"
       opacity="0.25" />
    <path
       d="m3 21c-1.108 0-2-0.892-2-2v-1c0 1.108 0.892 2 2 2h16c1.108 0 2-0.892 2-2v1c0 1.108-0.892 2-2 2h-16z"
       id="SVGCleanerId_4" />
    <linearGradient
       inkscape:collect="always"
       xlink:href="#linearGradient2969-0"
       id="linearGradient10998"
       gradientUnits="userSpaceOnUse"
       gradientTransform="matrix(1.0238,0,0,-1.0119,232.937,-102.43)"
       y1="6.132"
       x2="0"
       y2="90.24" />
    <linearGradient
       inkscape:collect="always"
       xlink:href="#linearGradient2969-0"
       id="linearGradient11000"
       gradientUnits="userSpaceOnUse"
       gradientTransform="matrix(1.0238,0,0,-1.0119,232.937,-102.43)"
       y1="6.132"
       x2="0"
       y2="90.24" />
    <linearGradient
       inkscape:collect="always"
       xlink:href="#linearGradient2969-0"
       id="linearGradient11002"
       gradientUnits="userSpaceOnUse"
       gradientTransform="matrix(1.0238,0,0,-1.0119,232.937,-102.43)"
       y1="6.132"
       x2="0"
       y2="90.24" />
    <linearGradient
       inkscape:collect="always"
       xlink:href="#linearGradient4147"
       id="linearGradient11004"
       gradientUnits="userSpaceOnUse"
       gradientTransform="translate(60,0)"
       y1="16.13"
       x2="0"
       y2="69.69" />
    <linearGradient
       inkscape:collect="always"
       xlink:href="#linearGradient7155-9"
       id="linearGradient11006"
       gradientUnits="userSpaceOnUse"
       gradientTransform="translate(60,0)"
       y1="16.13"
       x2="0"
       y2="69.69" />
    <linearGradient
       inkscape:collect="always"
       xlink:href="#linearGradient4147"
       id="linearGradient11008"
       gradientUnits="userSpaceOnUse"
       gradientTransform="translate(60,0)"
       y1="16.13"
       x2="0"
       y2="69.69" />
    <linearGradient
       inkscape:collect="always"
       xlink:href="#linearGradient7175-7"
       id="linearGradient11010"
       gradientUnits="userSpaceOnUse"
       x1="69"
       y1="53"
       x2="61.891"
       y2="-1" />
    <linearGradient
       inkscape:collect="always"
       xlink:href="#linearGradient7175-7"
       id="linearGradient14237"
       x1="50.707542"
       y1="81.682442"
       x2="50.707542"
       y2="96.539803"
       gradientUnits="userSpaceOnUse" />
    <linearGradient
       inkscape:collect="always"
       xlink:href="#linearGradient7155-9"
       id="linearGradient14245"
       x1="49.876652"
       y1="87.937508"
       x2="49.876652"
       y2="76.719681"
       gradientUnits="userSpaceOnUse" />
  </defs>
  <rect
     style="fill-opacity:0.02000002"
     id="rect927"
     width="89.620003"
     height="89.980003"
     y="2.9899757"
     rx="12.724"
     x="3.3529999" />
  <rect
     style="fill-opacity:0.03900003"
     id="rect929"
     width="88.410004"
     height="88.760002"
     y="3.6000221"
     rx="12.552"
     x="3.9590001" />
  <rect
     style="fill-opacity:0.078"
     id="rect931"
     width="87.199997"
     height="87.550003"
     y="4.2100072"
     rx="12.38"
     x="4.5640001" />
  <rect
     style="fill-opacity:0.15700001"
     id="rect933"
     width="85.990997"
     height="86.330002"
     y="4.8199925"
     rx="12.208"
     x="5.1700001" />
  <path
     inkscape:connector-curvature="0"
     style="fill:url(#linearGradient6400)"
     id="path935"
     d="m 17.75,5.4062 c -6.642,0 -11.969,5.3948 -11.969,12.063 l 2e-4,61.031 c 0,6.668 5.3268,12.031 11.969,12.031 l 60.812,0 c 6.642,0 11.969,-5.363 11.969,-12.031 l 0,-61.031 c 0,-6.668 -5.327,-12.063 -11.969,-12.063 l -60.812,2e-4 z" />
  <rect
     style="opacity:0.5;fill:#4d4d4d"
     id="rect941"
     width="71.470001"
     height="56"
     y="13.040025"
     rx="7.1630001"
     x="12.232" />
  <g
     id="g943"
     transform="matrix(1.0793,0,0,0.91797,-4.206,-872.75)"
     clip-path="url(#clipPath6423)">
    <g
       style="enable-background:new"
       id="g945"
       transform="matrix(1,0,0,0.93125,0.272,953.28)">
      <use
         height="100%"
         width="100%"
         y="0"
         x="0"
         id="use947"
         transform="matrix(-1.0009,0,0,-1.334,96.01,99.97)"
         xlink:href="#SVGCleanerId_0" />
      <rect
         style="opacity:0.4;fill:#c3d9f5"
         id="rect949"
         width="72.540001"
         height="10"
         y="74"
         ry="2.3829999"
         rx="3.03"
         x="11.786" />
      <rect
         style="opacity:0.4;fill:#c3d9f5"
         id="rect951"
         width="72.540001"
         height="10"
         y="12"
         ry="2.3829999"
         rx="3.03"
         x="11.786" />
      <use
         height="100%"
         width="100%"
         y="0"
         x="0"
         id="use953"
         xlink:href="#SVGCleanerId_1" />
      <use
         height="100%"
         width="100%"
         y="0"
         x="0"
         id="use955"
         xlink:href="#SVGCleanerId_2" />
      <use
         height="100%"
         width="100%"
         y="0"
         x="0"
         id="use957"
         xlink:href="#SVGCleanerId_3" />
    </g>
  </g>
  <rect
     style="fill:#999999"
     id="rect959"
     transform="scale(1,-1)"
     width="15.01"
     height="1.12"
     y="-78.040024"
     rx="0.56"
     x="61.23" />
  <rect
     style="fill:#808080"
     id="rect961"
     transform="scale(1,-1)"
     width="15.01"
     height="1.12"
     y="-77.540024"
     rx="0.56"
     x="61.23" />
  <path
     inkscape:connector-curvature="0"
     style="opacity:0.07999998;fill:url(#linearGradient10998)"
     id="path963"
     d="m 246.08,-105.469 c -5.5111,0 -10.031,-4.5202 -10.031,-10.031 l 0,-71 c 0,-5.5111 4.5202,-10.031 10.031,-10.031 l 72,0 c 5.5111,0 10.031,4.5202 10.031,10.031 l 0,71 c 0,5.5111 -4.5202,10.031 -10.031,10.031 l -72,0 z" />
  <path
     inkscape:connector-curvature="0"
     style="opacity:0.1;fill:url(#linearGradient11000)"
     id="path965"
     d="m 246.08,-106.469 c -4.9716,0 -9.0312,-4.0596 -9.0312,-9.0312 l 0,-71 c 0,-4.9716 4.0596,-9.0312 9.0312,-9.0312 l 72,0 c 4.9716,0 9.0312,4.0596 9.0312,9.0312 l 0,71 c 0,4.9716 -4.0596,9.0312 -9.0312,9.0312 l -72,0 z" />
  <path
     inkscape:connector-curvature="0"
     style="opacity:0.2;fill:url(#linearGradient11002)"
     id="path967"
     d="m 246.08,-107.5 c -4.4091,0 -8,-3.5909 -8,-8 l 0,-71 c 0,-4.4091 3.5909,-8 8,-8 l 72,0 c 4.4091,0 8,3.5909 8,8 l 0,71 c 0,4.4091 -3.5909,8 -8,8 l -72,0 z" />
  <g
     id="g969"
     transform="translate(247.34,-184.41)">
    <use
       height="100%"
       width="100%"
       y="0"
       x="0"
       id="use971"
       transform="matrix(-1.0009,0,0,-1.334,96.01,99.97)"
       xlink:href="#SVGCleanerId_0" />
    <path
       style="color:#000000;opacity:0.5;fill:#ffffff"
       inkscape:connector-curvature="0"
       id="path973"
       transform="translate(-1,-1)"
       d="m 25,19 a 2,2 0 1 1 -4,0 2,2 0 1 1 4,0 z" />
    <g
       style="opacity:0.5;fill:#ffffff"
       id="g975"
       transform="translate(0.115,0.91)">
      <path
         inkscape:connector-curvature="0"
         id="path977"
         d="M 27.487,18.535 C 27.465,18.463 27.44,18.389 27.412,18.313 27.386,18.237 27.36,18.161 27.334,18.085 l -0.81,0 c -0.026,0.076 -0.053,0.152 -0.081,0.228 -0.026,0.076 -0.05,0.15 -0.072,0.222 l -0.486,0 c 0.078,-0.224 0.152,-0.431 0.222,-0.621 0.07,-0.19 0.138,-0.369 0.204,-0.537 0.068,-0.168 0.134,-0.327 0.198,-0.477 0.066,-0.152 0.134,-0.3 0.204,-0.444 l 0.447,0 c 0.068,0.144 0.135,0.292 0.201,0.444 0.066,0.15 0.132,0.309 0.198,0.477 0.068,0.168 0.137,0.347 0.207,0.537 0.07,0.19 0.144,0.397 0.222,0.621 l -0.501,0 m -0.561,-1.608 c -0.01,0.03 -0.025,0.071 -0.045,0.123 -0.02,0.052 -0.043,0.112 -0.069,0.18 -0.026,0.068 -0.055,0.143 -0.087,0.225 -0.03,0.082 -0.061,0.168 -0.093,0.258 l 0.591,0 C 27.191,17.623 27.16,17.537 27.13,17.455 27.1,17.373 27.071,17.298 27.043,17.23 27.017,17.162 26.994,17.102 26.974,17.05 26.954,16.998 26.938,16.957 26.926,16.927" />
      <path
         inkscape:connector-curvature="0"
         id="path979"
         d="m 29.238,17.758 c -1e-6,-0.138 -0.031,-0.248 -0.093,-0.33 -0.062,-0.084 -0.154,-0.126 -0.276,-0.126 -0.04,1e-6 -0.077,0.002 -0.111,0.006 -0.034,0.002 -0.062,0.005 -0.084,0.009 l 0,0.807 c 0.028,0.018 0.064,0.033 0.108,0.045 0.046,0.012 0.092,0.018 0.138,0.018 0.212,0 0.318,-0.143 0.318,-0.429 m 0.456,-0.012 c -10e-7,0.122 -0.015,0.233 -0.045,0.333 -0.03,0.1 -0.074,0.186 -0.132,0.258 -0.058,0.072 -0.13,0.128 -0.216,0.168 -0.086,0.04 -0.185,0.06 -0.297,0.06 -0.062,0 -0.12,-0.006 -0.174,-0.018 -0.054,-0.012 -0.106,-0.029 -0.156,-0.051 l 0,0.594 -0.447,0 0,-2.079 c 0.04,-0.012 0.086,-0.023 0.138,-0.033 0.052,-0.012 0.106,-0.022 0.162,-0.03 0.058,-0.008 0.116,-0.014 0.174,-0.018 0.06,-0.006 0.117,-0.009 0.171,-0.009 0.13,1e-6 0.246,0.02 0.348,0.06 0.102,0.038 0.188,0.093 0.258,0.165 0.07,0.07 0.123,0.156 0.159,0.258 0.038,0.102 0.057,0.216 0.057,0.342" />
      <path
         inkscape:connector-curvature="0"
         id="path981"
         d="m 31.049,17.758 c -1e-6,-0.138 -0.031,-0.248 -0.093,-0.33 -0.062,-0.084 -0.154,-0.126 -0.276,-0.126 -0.04,1e-6 -0.077,0.002 -0.111,0.006 -0.034,0.002 -0.062,0.005 -0.084,0.009 l 0,0.807 c 0.028,0.018 0.064,0.033 0.108,0.045 0.046,0.012 0.092,0.018 0.138,0.018 0.212,0 0.318,-0.143 0.318,-0.429 m 0.456,-0.012 c -10e-7,0.122 -0.015,0.233 -0.045,0.333 -0.03,0.1 -0.074,0.186 -0.132,0.258 -0.058,0.072 -0.13,0.128 -0.216,0.168 -0.086,0.04 -0.185,0.06 -0.297,0.06 -0.062,0 -0.12,-0.006 -0.174,-0.018 -0.054,-0.012 -0.106,-0.029 -0.156,-0.051 l 0,0.594 -0.447,0 0,-2.079 c 0.04,-0.012 0.086,-0.023 0.138,-0.033 0.052,-0.012 0.106,-0.022 0.162,-0.03 0.058,-0.008 0.116,-0.014 0.174,-0.018 0.06,-0.006 0.117,-0.009 0.171,-0.009 0.13,1e-6 0.246,0.02 0.348,0.06 0.102,0.038 0.188,0.093 0.258,0.165 0.07,0.07 0.123,0.156 0.159,0.258 0.038,0.102 0.057,0.216 0.057,0.342" />
      <path
         inkscape:connector-curvature="0"
         id="path983"
         d="M 32.478,18.565 C 32.348,18.563 32.242,18.549 32.16,18.523 32.08,18.497 32.016,18.461 31.968,18.415 31.922,18.367 31.89,18.31 31.872,18.244 31.856,18.176 31.848,18.1 31.848,18.016 l 0,-1.737 0.447,-0.072 0,1.719 c -1e-6,0.04 0.003,0.076 0.009,0.108 0.006,0.032 0.017,0.059 0.033,0.081 0.018,0.022 0.043,0.04 0.075,0.054 0.032,0.014 0.075,0.023 0.129,0.027 l -0.063,0.369" />
      <path
         inkscape:connector-curvature="0"
         id="path985"
         d="m 33.244,18.535 -0.447,0 0,-1.578 0.447,0 0,1.578 m 0.042,-2.034 c -1e-6,0.082 -0.027,0.147 -0.081,0.195 -0.052,0.046 -0.114,0.069 -0.186,0.069 -0.072,1e-6 -0.135,-0.023 -0.189,-0.069 -0.052,-0.048 -0.078,-0.113 -0.078,-0.195 0,-0.082 0.026,-0.146 0.078,-0.192 0.054,-0.048 0.117,-0.072 0.189,-0.072 0.072,2e-6 0.134,0.024 0.186,0.072 0.054,0.046 0.081,0.11 0.081,0.192" />
      <path
         inkscape:connector-curvature="0"
         id="path987"
         d="m 33.589,17.746 c 0,-0.114 0.018,-0.221 0.054,-0.321 0.038,-0.102 0.092,-0.19 0.162,-0.264 0.07,-0.076 0.155,-0.136 0.255,-0.18 0.1,-0.044 0.214,-0.066 0.342,-0.066 0.084,1e-6 0.161,0.008 0.231,0.024 0.07,0.014 0.138,0.035 0.204,0.063 l -0.093,0.357 c -0.042,-0.016 -0.088,-0.03 -0.138,-0.042 -0.05,-0.012 -0.106,-0.018 -0.168,-0.018 -0.132,1e-6 -0.231,0.041 -0.297,0.123 -0.064,0.082 -0.096,0.19 -0.096,0.324 0,0.142 0.03,0.252 0.09,0.33 0.062,0.078 0.169,0.117 0.321,0.117 0.054,0 0.112,-0.005 0.174,-0.015 0.062,-0.01 0.119,-0.026 0.171,-0.048 l 0.063,0.366 c -0.052,0.022 -0.117,0.041 -0.195,0.057 -0.078,0.016 -0.164,0.024 -0.258,0.024 -0.144,0 -0.268,-0.021 -0.372,-0.063 -0.104,-0.044 -0.19,-0.103 -0.258,-0.177 -0.066,-0.074 -0.115,-0.161 -0.147,-0.261 -0.03,-0.102 -0.045,-0.212 -0.045,-0.33" />
      <path
         inkscape:connector-curvature="0"
         id="path989"
         d="m 35.691,18.223 c 0.044,0 0.086,-10e-4 0.126,-0.003 0.04,-0.002 0.072,-0.005 0.096,-0.009 l 0,-0.339 c -0.018,-0.004 -0.045,-0.008 -0.081,-0.012 -0.036,-0.004 -0.069,-0.006 -0.099,-0.006 -0.042,0 -0.082,0.003 -0.12,0.009 -0.036,0.004 -0.068,0.013 -0.096,0.027 -0.028,0.014 -0.05,0.033 -0.066,0.057 -0.016,0.024 -0.024,0.054 -0.024,0.09 -10e-7,0.07 0.023,0.119 0.069,0.147 0.048,0.026 0.113,0.039 0.195,0.039 m -0.036,-1.308 c 0.132,1e-6 0.242,0.015 0.33,0.045 0.088,0.03 0.158,0.073 0.21,0.129 0.054,0.056 0.092,0.124 0.114,0.204 0.022,0.08 0.033,0.169 0.033,0.267 l 0,0.93 c -0.064,0.014 -0.153,0.03 -0.267,0.048 -0.114,0.02 -0.252,0.03 -0.414,0.03 -0.102,0 -0.195,-0.009 -0.279,-0.027 -0.082,-0.018 -0.153,-0.047 -0.213,-0.087 -0.06,-0.042 -0.106,-0.096 -0.138,-0.162 -0.032,-0.066 -0.048,-0.147 -0.048,-0.243 -10e-7,-0.092 0.018,-0.17 0.054,-0.234 0.038,-0.064 0.088,-0.115 0.15,-0.153 0.062,-0.038 0.133,-0.065 0.213,-0.081 0.08,-0.018 0.163,-0.027 0.249,-0.027 0.058,1e-6 0.109,0.003 0.153,0.009 0.046,0.004 0.083,0.01 0.111,0.018 l 0,-0.042 c -2e-6,-0.076 -0.023,-0.137 -0.069,-0.183 -0.046,-0.046 -0.126,-0.069 -0.24,-0.069 -0.076,1e-6 -0.151,0.006 -0.225,0.018 -0.074,0.01 -0.138,0.025 -0.192,0.045 L 35.13,16.99 c 0.026,-0.008 0.058,-0.016 0.096,-0.024 0.04,-0.01 0.083,-0.018 0.129,-0.024 0.046,-0.008 0.094,-0.014 0.144,-0.018 0.052,-0.006 0.104,-0.009 0.156,-0.009" />
      <path
         inkscape:connector-curvature="0"
         id="path991"
         d="m 36.732,16.564 0.447,-0.072 0,0.465 0.537,0 0,0.372 -0.537,0 0,0.555 c -1e-6,0.094 0.016,0.169 0.048,0.225 0.034,0.056 0.101,0.084 0.201,0.084 0.048,0 0.097,-0.004 0.147,-0.012 0.052,-0.01 0.099,-0.023 0.141,-0.039 l 0.063,0.348 c -0.054,0.022 -0.114,0.041 -0.18,0.057 -0.066,0.016 -0.147,0.024 -0.243,0.024 -0.122,0 -0.223,-0.016 -0.303,-0.048 -0.08,-0.034 -0.144,-0.08 -0.192,-0.138 -0.048,-0.06 -0.082,-0.132 -0.102,-0.216 -0.018,-0.084 -0.027,-0.177 -0.027,-0.279 l 0,-1.326" />
      <path
         inkscape:connector-curvature="0"
         id="path993"
         d="m 38.524,18.535 -0.447,0 0,-1.578 0.447,0 0,1.578 m 0.042,-2.034 c -1e-6,0.082 -0.027,0.147 -0.081,0.195 -0.052,0.046 -0.114,0.069 -0.186,0.069 -0.072,1e-6 -0.135,-0.023 -0.189,-0.069 -0.052,-0.048 -0.078,-0.113 -0.078,-0.195 0,-0.082 0.026,-0.146 0.078,-0.192 0.054,-0.048 0.117,-0.072 0.189,-0.072 0.072,2e-6 0.134,0.024 0.186,0.072 0.054,0.046 0.081,0.11 0.081,0.192" />
      <path
         inkscape:connector-curvature="0"
         id="path995"
         d="m 40.42,17.743 c -1e-6,0.124 -0.018,0.238 -0.054,0.342 -0.036,0.102 -0.088,0.19 -0.156,0.264 -0.068,0.072 -0.15,0.128 -0.246,0.168 -0.094,0.04 -0.2,0.06 -0.318,0.06 -0.116,0 -0.222,-0.02 -0.318,-0.06 -0.094,-0.04 -0.175,-0.096 -0.243,-0.168 -0.068,-0.074 -0.121,-0.162 -0.159,-0.264 -0.038,-0.104 -0.057,-0.218 -0.057,-0.342 0,-0.124 0.019,-0.237 0.057,-0.339 0.04,-0.102 0.094,-0.189 0.162,-0.261 0.07,-0.072 0.152,-0.128 0.246,-0.168 0.096,-0.04 0.2,-0.06 0.312,-0.06 0.114,1e-6 0.218,0.02 0.312,0.06 0.096,0.04 0.178,0.096 0.246,0.168 0.068,0.072 0.121,0.159 0.159,0.261 0.038,0.102 0.057,0.215 0.057,0.339 m -0.456,0 c -10e-7,-0.138 -0.028,-0.246 -0.084,-0.324 -0.054,-0.08 -0.132,-0.12 -0.234,-0.12 -0.102,1e-6 -0.181,0.04 -0.237,0.12 -0.056,0.078 -0.084,0.186 -0.084,0.324 0,0.138 0.028,0.248 0.084,0.33 0.056,0.08 0.135,0.12 0.237,0.12 0.102,0 0.18,-0.04 0.234,-0.12 0.056,-0.082 0.084,-0.192 0.084,-0.33" />
      <path
         inkscape:connector-curvature="0"
         id="path997"
         d="m 40.766,17.011 c 0.076,-0.022 0.174,-0.042 0.294,-0.06 0.12,-0.02 0.246,-0.03 0.378,-0.03 0.134,1e-6 0.245,0.018 0.333,0.054 0.09,0.034 0.161,0.083 0.213,0.147 0.052,0.064 0.089,0.14 0.111,0.228 0.022,0.088 0.033,0.186 0.033,0.294 l 0,0.891 -0.447,0 0,-0.837 c -10e-7,-0.144 -0.019,-0.246 -0.057,-0.306 -0.038,-0.06 -0.109,-0.09 -0.213,-0.09 -0.032,1e-6 -0.066,0.002 -0.102,0.006 -0.036,0.002 -0.068,0.005 -0.096,0.009 l 0,1.218 -0.447,0 0,-1.524" />
      <path
         inkscape:connector-curvature="0"
         id="path999"
         d="m 42.989,18.214 c 0.082,0 0.14,-0.008 0.174,-0.024 0.034,-0.016 0.051,-0.047 0.051,-0.093 -10e-7,-0.036 -0.022,-0.067 -0.066,-0.093 -0.044,-0.028 -0.111,-0.059 -0.201,-0.093 -0.07,-0.026 -0.134,-0.053 -0.192,-0.081 -0.056,-0.028 -0.104,-0.061 -0.144,-0.099 -0.04,-0.04 -0.071,-0.087 -0.093,-0.141 -0.022,-0.054 -0.033,-0.119 -0.033,-0.195 0,-0.148 0.055,-0.265 0.165,-0.351 0.11,-0.086 0.261,-0.129 0.453,-0.129 0.096,1e-6 0.188,0.009 0.276,0.027 0.088,0.016 0.158,0.034 0.21,0.054 l -0.078,0.348 c -0.052,-0.018 -0.109,-0.034 -0.171,-0.048 -0.06,-0.014 -0.128,-0.021 -0.204,-0.021 -0.14,1e-6 -0.21,0.039 -0.21,0.117 0,0.018 0.003,0.034 0.009,0.048 0.006,0.014 0.018,0.028 0.036,0.042 0.018,0.012 0.042,0.026 0.072,0.042 0.032,0.014 0.072,0.03 0.12,0.048 0.098,0.036 0.179,0.072 0.243,0.108 0.064,0.034 0.114,0.072 0.15,0.114 0.038,0.04 0.064,0.085 0.078,0.135 0.016,0.05 0.024,0.108 0.024,0.174 -1e-6,0.156 -0.059,0.274 -0.177,0.354 -0.116,0.08 -0.281,0.12 -0.495,0.12 -0.14,0 -0.257,-0.012 -0.351,-0.036 -0.092,-0.024 -0.156,-0.044 -0.192,-0.06 l 0.075,-0.363 c 0.076,0.03 0.154,0.054 0.234,0.072 0.08,0.016 0.159,0.024 0.237,0.024" />
    </g>
    <path
       inkscape:connector-curvature="0"
       style="fill:url(#linearGradient5092)"
       id="path1001"
       d="M 47,14 82,48 82,14 Z" />
    <use
       height="100%"
       width="100%"
       y="0"
       x="0"
       id="use1003"
       xlink:href="#SVGCleanerId_1" />
    <use
       height="100%"
       width="100%"
       y="0"
       x="0"
       id="use1005"
       xlink:href="#SVGCleanerId_2" />
    <use
       height="100%"
       width="100%"
       y="0"
       x="0"
       id="use1007"
       xlink:href="#SVGCleanerId_3" />
    <path
       style="opacity:0.07999998"
       inkscape:connector-curvature="0"
       id="path1009"
       d="m 21.531,26.031 c -1.3738,-0.02826 -2.6312,1.2081 -2.5625,2.5938 -0.67583,0.54992 -1.0291,1.4084 -0.9375,2.2717 0.01819,1.5291 -0.03825,3.0619 0.03183,4.5885 0.18087,1.3208 1.4002,2.3635 2.7182,2.421 -1.5743,0.05001 -2.9137,1.5335 -2.75,3.1112 0.0096,2.1134 -0.01945,4.228 0.01511,6.3406 0.12414,1.5652 1.6616,2.7764 3.2079,2.6106 2.0345,-0.0096 4.0702,0.01955 6.1039,-0.01511 1.5671,-0.12419 2.7779,-1.6645 2.6106,-3.2121 -0.0089,-2.0901 0.01801,-4.1813 -0.01394,-6.2706 -0.11313,-1.3551 -1.3402,-2.4443 -2.6736,-2.5334 0.76327,-0.03489 1.316,-0.55007 1.8801,-1.0148 0.77369,-0.66894 0.8508,-1.7135 0.80738,-2.6627 -0.01583,-1.3871 0.03337,-2.7773 -0.02788,-4.1622 -0.09327,-1.1397 -1.2507,-1.6143 -1.6909,-2.5353 -0.62704,-0.54251 -1.0614,-0.7479 -1.9417,-0.78125 l -1.5583,0 c -0.56401,-0.70353 -1.4923,-0.79891 -2.3295,-0.75 l -0.88928,0 z" />
    <path
       style="opacity:0.15"
       inkscape:connector-curvature="0"
       id="path1011"
       transform="translate(0,2)"
       d="m 21.531,25.094 c -0.78187,0 -1.5,0.62776 -1.5,1.4688 l 0,0.375 0,0.09375 c -0.51562,0.32968 -0.9375,0.79693 -0.9375,1.4375 l 0,4.5938 c 0,0.99292 0.85083,1.8438 1.8438,1.8438 l 6.125,0 c 0.2164,0 0.41216,-0.06783 0.5625,-0.125 0.0099,-0.0038 0.02192,-0.02749 0.03125,-0.03125 0.008,-0.0029 0.0233,0.0031 0.03125,0 0.65924,-0.25409 1.2188,-0.89148 1.2188,-1.6875 l 0,-4.5938 c 0,-0.77979 -0.54662,-1.3916 -1.1875,-1.6562 -0.084,-0.165 -0.111,-0.392 -0.22,-0.502 -0.146,-0.145 -0.29,-0.237 -0.469,-0.312 -0.043,-0.018 -0.228,-0.156 -0.562,-0.156 l -2.2188,0 c -0.043,-0.078 -0.047,-0.119 -0.125,-0.219 -0.187,-0.24 -0.637,-0.531 -1.063,-0.531 l -1.5312,0 z m -0.59375,11.812 c -0.99292,0 -1.8438,0.85083 -1.8438,1.8438 l 0,6.3125 c 0,0.99292 0.85083,1.8438 1.8438,1.8438 l 0.15625,0 5.8125,0 0.15625,0 c 0.99292,0 1.8438,-0.85083 1.8438,-1.8438 l 0,-6.3125 c 0,-0.99292 -0.85083,-1.8438 -1.8438,-1.8438 l -6.125,0 z" />
    <g
       id="g1013"
       transform="matrix(0.38095,0,0,0.38095,19.81,39.619)">
      <path
         inkscape:connector-curvature="0"
         style="fill:url(#linearGradient5104);fill-rule:evenodd"
         id="path1015"
         d="M 3,1 C 1.892,1 1,1.892 1,3 l 0,16 c 0,1.108 0.892,2 2,2 l 16,0 c 1.108,0 2,-0.892 2,-2 L 21,3 C 21,1.892 20.108,1 19,1 L 3,1 Z m 8,1.5 c 4.14,0 7.5,1.3464 7.5,3 -1e-6,1.6536 -3.36,3 -7.5,3 -4.14,10e-8 -7.5,-1.3464 -7.5,-3 10e-8,-1.6536 3.36,-3 7.5,-3 z" />
      <g
         style="fill-rule:evenodd"
         id="g1017"
         transform="translate(20,0)">
        <path
           inkscape:connector-curvature="0"
           style="opacity:0.6;fill:url(#linearGradient5106)"
           id="path1019"
           d="m -6.1875,1 0,1.75 c 1.2913,0.21049 2.4042,0.55724 3.2188,1 l 0,-2.75 -3.2188,0 z m 3.2188,6.375 c -0.33326,0.24412 -0.75225,0.46093 -1.2188,0.65625 -0.58322,0.24419 -1.2533,0.44154 -2,0.59375 l 0,12.312 3.2188,0 0,-13.562 z" />
        <path
           inkscape:connector-curvature="0"
           style="opacity:0.3;fill:url(#linearGradient5108)"
           id="path1021"
           d="m -10.969,1 0,1.625 c 0.4264,-0.046882 0.85938,-0.077656 1.3125,-0.09375 l 0,-1.5312 -1.3125,0 z m 0,7.875 0,12.062 1.3125,0 0,-12 C -10.10058,8.9311 -10.54778,8.91173 -10.969,8.8745 Z" />
        <path
           inkscape:connector-curvature="0"
           style="opacity:0.4;fill:url(#linearGradient5110)"
           id="path1023"
           d="m -16.812,1 0,4.375 c 0.08904,-0.30661 0.26281,-0.60877 0.53125,-0.875 0.2714,-0.26916 0.60953,-0.52846 1.0312,-0.75 l 0,-2.75 -1.5625,0 z m 0,5.1562 0,14.781 1.5625,0 0,-13.188 c -0.42171,-0.22163 -0.75984,-0.44999 -1.0312,-0.71875 -0.26846,-0.26584 -0.44222,-0.57002 -0.53125,-0.875 z" />
        <path
           inkscape:connector-curvature="0"
           style="opacity:0.15;fill:url(#linearGradient5112)"
           id="path1025"
           d="m -15.281,1 0,2.875 c 0.99349,-0.60739 2.5462,-1.0557 4.3438,-1.25 l 0,-1.625 -4.3438,0 z m 0,6.125 0,13.812 4.3438,0 0,-12.562 c -1.807,-0.19531 -3.3507,-0.6378 -4.3438,-1.25 z" />
        <path
           inkscape:connector-curvature="0"
           style="opacity:0.1;fill:url(#linearGradient5114)"
           id="path1027"
           d="m -9.7188,1.0625 0,1.4688 C -9.4769,2.5218 -9.248,2.5 -9,2.5 c 0.9883,0 1.917,0.079814 2.7812,0.21875 l 0,-1.6562 -3.5,0 z m 3.5,7.2188 C -7.083,8.4202 -8.0117,8.5 -9,8.5 -9.248,8.5 -9.4769,8.4782 -9.7188,8.4688 l 0,12.531 3.5,0 0,-12.719 z" />
        <path
           inkscape:connector-curvature="0"
           style="opacity:0.1;fill:url(#linearGradient5118)"
           id="path1029"
           d="m -3,1.0625 0,2.6562 c 0.59861,0.32006 1.0407,0.69314 1.2812,1.0938 l 0,-3.75 -1.2812,0 z m 1.2812,5.125 C -1.9571,6.5888 -2.4024,6.9604 -3,7.2812 l 0,13.719 1.2812,0 0,-14.812 z" />
      </g>
      <use
         height="100%"
         width="100%"
         y="0"
         x="0"
         style="opacity:0.15;fill-rule:evenodd"
         id="use1031"
         xlink:href="#SVGCleanerId_4" />
      <path
         style="opacity:0.25;fill:#ffffff;fill-rule:evenodd"
         inkscape:connector-curvature="0"
         id="path1033"
         d="M 3,1 C 1.892,1 1,1.892 1,3 L 1,4 C 1,2.892 1.892,2 3,2 l 16,0 c 1.108,0 2,0.892 2,2 L 21,3 C 21,1.892 20.108,1 19,1 L 3,1 Z" />
      <path
         inkscape:connector-curvature="0"
         style="fill:none;stroke:url(#linearGradient5122);stroke-width:7.0999999;stroke-linecap:round;stroke-linejoin:round"
         id="path1035"
         transform="matrix(0.18529,0,0,0.18445,-0.667,-0.131)"
         d="m 103.44,30.554 a 40.4775,16.241201 0 1 1 -80.955,0 40.4775,16.241201 0 1 1 80.955,0 z" />
      <g
         id="g1037"
         transform="matrix(0.18038,0,0,0.18038,-0.544,-1.418)">
        <path
           inkscape:connector-curvature="0"
           style="fill:url(#linearGradient5124)"
           id="path1039"
           d="m 66.74,106.88 6.3317,-11.357 0.0301,4.1536 13.326,-0.03009 c 2.3811,-0.25234 4.4687,-1.2201 5.9805,-3.0399 -4.825,9.8683 -6.2147,16.851 -16.226,16.855 l -3.0806,0 -0.0301,4.6151 -6.3317,-11.197 z" />
        <path
           inkscape:connector-curvature="0"
           style="fill:url(#linearGradient5126)"
           id="path1041"
           d="M 81.24,97.921 75.36,87.086 87.241,79.893 92.99,91.41 c 0.17409,2.7563 -4.2769,6.592 -7.0396,6.5622 l -4.7107,-0.05088 z" />
        <path
           inkscape:connector-curvature="0"
           style="fill:url(#linearGradient5128)"
           id="path1043"
           d="m 45.109,73.92 6.07,-9.0957 c 5.8874,-2.1923 9.2977,2.5406 11.45,5.524 l -5.719,10.976 -11.801,-7.404 z" />
        <path
           inkscape:connector-curvature="0"
           style="fill:url(#linearGradient5130)"
           id="path1045"
           d="M 69.091,78.447 C 67.87,75.569 66.239,72.278 64.199,69.416 62.373,66.853 60.166,64.618 58.495,63.619 l 15.353,-0.03009 c 2.7572,0.24748 4.0968,1.8546 5.5591,4.0532 l 2.2076,3.8827 3.4117,-2.1771 -6.422,11.437 -13.848,0.03009 4.3349,-2.3677 z" />
        <path
           inkscape:connector-curvature="0"
           style="fill:url(#linearGradient5132)"
           id="path1047"
           d="m 47.847,82.694 7.3428,10.731 -3.7316,-1.8255 -5.9163,11.938 c -0.83607,2.2434 -0.90083,4.5431 0.05403,6.7077 -6.682,-8.719 -12.313,-13.077 -7.8518,-22.037 l 1.3739,-2.7568 -4.1179,-2.0852 12.847,-0.67259 z" />
        <path
           inkscape:connector-curvature="0"
           style="fill:url(#linearGradient5134)"
           id="path1049"
           d="m 49.529,99.667 13.538,-0.42958 -0.07542,13.84 -12.875,0.009 c -2.5451,-1.0735 -3.9936,-6.7673 -2.7347,-9.2263 l 2.1465,-4.1929 z" />
      </g>
    </g>
    <g
       id="g1051"
       transform="matrix(0.38095,0,0,0.38095,19.81,27.619)">
      <path
         inkscape:connector-curvature="0"
         style="fill:url(#linearGradient5136)"
         id="path1053"
         d="M 4.5,1 C 3.669,1 3,1.669 3,2.5 l 0,2 0,3 C 3,8.331 3.669,9 4.5,9 l 4,0 9,0 C 18.331,9 19,8.331 19,7.5 l 0,-3 C 19,3.669 18.331,3 17.5,3 L 10.265,3 10,2.5 C 9.6107,1.7659 9.331,1 8.5,1 l -4,0 z" />
      <path
         style="opacity:0.2;fill:#ffffff"
         inkscape:connector-curvature="0"
         id="path1055"
         d="M 4.5,1 C 3.669,1 3,1.669 3,2.5 l 0,1 C 3,2.669 3.669,2 4.5,2 l 4,0 C 9.331,2 9.6107,2.7659 10,3.5 L 10.25,4 17.5,4 C 18.331,4 19,4.669 19,5.5 l 0,-1 C 19,3.669 18.331,3 17.5,3 L 10.25,3 10,2.5 C 9.6107,1.7659 9.331,1 8.5,1 l -4,0 z" />
      <path
         style="fill:#835c1d"
         inkscape:connector-curvature="0"
         id="path1057"
         d="m 11,8 -6,6.0312 1.9688,0 0,3.9688 L 15,18 15,14 17.062,14 14.031,10.969 14.031,9 13,9 13,10 11,8 Z m 0,1 1.5,1.5 c 0.2183,0.23216 0.56752,0.2839 0.84375,0.125 l 0,0.34375 c -0.0074,0.18512 0.06019,0.3654 0.1875,0.5 l 1.8438,1.8438 -0.375,0 c -0.37968,3.8e-5 -0.68746,0.30782 -0.6875,0.6875 l 0,3.3125 -6.6562,0 0,-3.2812 c -3.8e-5,-0.37968 -0.30782,-0.68746 -0.6875,-0.6875 l -0.28125,0 4.311,-4.344 z" />
      <path
         inkscape:connector-curvature="0"
         style="fill:url(#linearGradient5140)"
         id="path1059"
         d="M 3,5 C 1.892,5 1,5.892 1,7 l 0,12 c 0,1.108 0.892,2 2,2 l 16,0 c 1.108,0 2,-0.892 2,-2 L 21,7 C 21,5.892 20.108,5 19,5 L 3,5 Z m 8,3 2,2 0,-1 1.0312,0 0,1.9688 3.031,3.031 -2.062,0 0,4 -8.0312,0 0,-3.9688 -1.9688,0 6,-6.031 z" />
      <path
         style="fill:#ead7b4"
         inkscape:connector-curvature="0"
         id="path1061"
         d="M 3,5 C 1.892,5 1,5.892 1,7 L 1,8 C 1,6.892 1.892,6 3,6 l 16,0 c 1.108,0 2,0.892 2,2 L 21,7 C 21,5.892 20.108,5 19,5 L 3,5 Z" />
      <use
         height="100%"
         width="100%"
         y="0"
         x="0"
         style="fill:#b07c28"
         id="use1063"
         xlink:href="#SVGCleanerId_4" />
      <path
         style="opacity:0.5;fill:#ead7b4"
         inkscape:connector-curvature="0"
         id="path1065"
         d="M 10.875,7.0312 C 10.662,7.0601 10.464,7.159 10.312,7.3125 l -6,6.0312 c -0.275,0.278 -0.3684,0.701 -0.2182,1.062 0.1501,0.362 0.5145,0.592 0.9062,0.594 l 1,0 0,3 c 0.00198,0.5342 0.43455,0.96676 0.96875,0.96875 l 8.0312,0 c 0.534,-0.002 0.967,-0.435 0.969,-0.969 l 0,-3.0312 1.0938,0 c 0.39166,-0.0015 0.7561,-0.23201 0.90625,-0.59375 0.15016,-0.36174 0.05672,-0.78408 -0.21875,-1.0625 l -2.75,-2.751 0,-1.562 c -0.002,-0.5342 -0.435,-0.9668 -0.969,-0.9688 l -1.0312,0 c -0.1643,0.00139 -0.32557,0.044399 -0.46875,0.125 L 11.6883,7.3115 C 11.4753,7.0966 11.1753,6.9927 10.8753,7.0302 Z M 11,8 l 2,2 0,-1 1.0312,0 0,1.9688 3.031,3.031 -2.062,0 0,4 -8.0312,0 0,-3.9688 -1.9688,0 6,-6.031 z" />
    </g>
  </g>
  <g
     id="g1067"
     transform="translate(234.08,-200.5)">
    <path
       inkscape:connector-curvature="0"
       style="fill:url(#linearGradient3466-6)"
       id="path1069"
       d="M 12,6 C 8.676,6 6,8.676 6,12 l 0,72 c 0,3.324 2.676,6 6,6 l 72,0 c 3.324,0 6,-2.676 6,-6 L 90,12 C 90,8.676 87.324,6 84,6 L 12,6 Z m 5,8 1,0 60,0 1,0 c 1.6838,0 3,1.3162 3,3 l 0,1 0,60 0,1 c 10e-7,1.6838 -1.3162,3 -3,3 l -1,0 -60,0 -1,0 c -1.6838,10e-7 -3,-1.3162 -3,-3 l 0,-1 0,-60 0,-1 c 0,-1.6838 1.3162,-3 3,-3 z" />
    <path
       inkscape:connector-curvature="0"
       style="opacity:0.7;fill:url(#linearGradient3188-03)"
       id="path1071"
       d="M 12,6 C 8.676,6 6,8.676 6,12 l 0,2 0,68 0,2 c 0,0.33472 0.04135,0.6507 0.09375,0.96875 0.0487,0.2956 0.09704,0.59692 0.1875,0.875 0.00988,0.03038 0.020892,0.0636 0.03125,0.09375 0.098865,0.28777 0.23488,0.54745 0.375,0.8125 0.14459,0.27351 0.31562,0.53562 0.5,0.78125 0.18438,0.24564 0.37378,0.47347 0.59375,0.6875 0.43995,0.42806 0.94291,0.81453 1.5,1.0938 0.27854,0.13961 0.57347,0.24695 0.875,0.34375 -0.2562,-0.10022 -0.48671,-0.23627 -0.71875,-0.375 -0.00741,-0.0044 -0.023866,0.0045 -0.03125,0 C 9.374317,89.262 9.343957,89.23879 9.3125,89.2188 9.1921,89.1421 9.08148,89.05529 8.96875,88.9688 8.86258,88.888 8.75547,88.80769 8.65625,88.7188 c -0.1778,-0.162 -0.3473,-0.346 -0.4999,-0.531 -0.1075,-0.131 -0.2183,-0.266 -0.3124,-0.407 -0.0251,-0.038 -0.0385,-0.086 -0.0626,-0.125 -0.0647,-0.103 -0.1302,-0.204 -0.1874,-0.312 -0.1011,-0.195 -0.2057,-0.416 -0.2813,-0.625 -0.008,-0.022 -0.0236,-0.041 -0.0313,-0.063 -0.0318,-0.092 -0.0358,-0.187 -0.0624,-0.281 -0.0304,-0.107 -0.0704,-0.203 -0.0938,-0.313 -0.0729,-0.341 -0.125,-0.698 -0.125,-1.062 l 0,-2 0,-68 0,-2 c 0,-2.782 2.2182,-5 5,-5 l 2,0 68,0 2,0 c 2.7818,0 5,2.2182 5,5 l 0,2 0,68 0,2 c 0,0.3643 -0.05212,0.72099 -0.125,1.0625 -0.04415,0.20689 -0.08838,0.39766 -0.15625,0.59375 -0.0077,0.02195 -0.0233,0.04069 -0.03125,0.0625 -0.06274,0.17374 -0.13838,0.36745 -0.21875,0.53125 -0.04158,0.0828 -0.07904,0.16995 -0.125,0.25 -0.0546,0.09721 -0.12677,0.18835 -0.1875,0.28125 -0.09411,0.14096 -0.20492,0.276 -0.3125,0.40625 -0.14317,0.17445 -0.30314,0.347 -0.46875,0.5 -0.01117,0.0102 -0.01998,0.02115 -0.03125,0.03125 -0.13839,0.12556 -0.28509,0.23444 -0.4375,0.34375 -0.10257,0.07315 -0.20432,0.15336 -0.3125,0.21875 -0.0074,0.0045 -0.02384,-0.0044 -0.03125,0 -0.23204,0.13873 -0.46255,0.27478 -0.71875,0.375 0.30153,-0.0968 0.59646,-0.20414 0.875,-0.34375 0.55709,-0.27922 1.0601,-0.66569 1.5,-1.0938 0.21997,-0.21403 0.40937,-0.44186 0.59375,-0.6875 0.18438,-0.24564 0.35541,-0.50774 0.5,-0.78125 0.14012,-0.26505 0.27614,-0.52473 0.375,-0.8125 0.01041,-0.03078 0.02133,-0.06274 0.03125,-0.09375 0.09046,-0.27808 0.1388,-0.5794 0.1875,-0.875 0.053,-0.318 0.094,-0.634 0.094,-0.969 l 0,-2 0,-68 0,-2 c 0,-3.324 -2.676,-6 -6,-6 l -72,0 z" />
    <path
       inkscape:connector-curvature="0"
       style="opacity:0.4;fill:url(#radialGradient2893-2)"
       id="path1073"
       d="M 12,90 C 8.676,90 6,87.324 6,84 L 6,82 6,14 6,12 c 0,-0.33472 0.04135,-0.6507 0.09375,-0.96875 0.0487,-0.2956 0.09704,-0.59692 0.1875,-0.875 0.0099,-0.03 0.0209,-0.063 0.0313,-0.094 0.0989,-0.2873 0.2349,-0.547 0.375,-0.812 0.1446,-0.2735 0.3156,-0.5356 0.5,-0.7812 0.1844,-0.2457 0.3738,-0.4735 0.5937,-0.6876 0.44,-0.428 0.943,-0.8145 1.5,-1.0937 0.2786,-0.1396 0.5735,-0.2469 0.8748,-0.3437 -0.256,0.1002 -0.4865,0.2362 -0.7185,0.375 -0.00741,0.0044 -0.023866,-0.0045 -0.03125,0 -0.031933,0.0193 -0.062293,0.04251 -0.09375,0.0625 -0.1204,0.0767 -0.23102,0.16351 -0.34375,0.25 -0.10617,0.0808 -0.21328,0.16111 -0.3125,0.25 -0.1779,0.1614 -0.3474,0.3453 -0.5,0.5312 -0.1075,0.1303 -0.2183,0.2653 -0.3124,0.4063 -0.0251,0.0383 -0.0385,0.0858 -0.0626,0.125 -0.0647,0.103 -0.1302,0.2045 -0.1874,0.3124 -0.1011,0.1948 -0.2057,0.4158 -0.2813,0.625 -0.008,0.0219 -0.0236,0.0406 -0.0313,0.0626 -0.0318,0.0919 -0.0358,0.1868 -0.0624,0.2812 -0.0304,0.1066 -0.0704,0.203 -0.0938,0.3125 -0.0729,0.3415 -0.125,0.6985 -0.125,1.0625 l 0,2 0,68 0,2 c 0,2.7818 2.2182,5 5,5 l 2,0 68,0 2,0 c 2.7818,0 5,-2.2182 5,-5 l 0,-2 0,-68 0,-2 c 0,-0.364 -0.052,-0.721 -0.125,-1.0625 -0.044,-0.2069 -0.088,-0.3977 -0.156,-0.5937 -0.008,-0.022 -0.024,-0.0407 -0.031,-0.0626 -0.063,-0.1737 -0.139,-0.3674 -0.219,-0.5312 -0.042,-0.0828 -0.079,-0.17 -0.125,-0.25 -0.055,-0.0972 -0.127,-0.1884 -0.188,-0.2812 -0.094,-0.141 -0.205,-0.276 -0.312,-0.4063 -0.143,-0.1745 -0.303,-0.347 -0.469,-0.5 -0.011,-0.0102 -0.02,-0.0211 -0.031,-0.0313 -0.139,-0.1255 -0.285,-0.2344 -0.438,-0.3437 -0.102,-0.0731 -0.204,-0.1534 -0.312,-0.2187 -0.0074,-0.0045 -0.02384,0.0044 -0.03125,0 -0.23204,-0.13873 -0.46255,-0.27478 -0.71875,-0.375 0.30153,0.0968 0.59646,0.20414 0.875,0.34375 0.55709,0.27922 1.0601,0.66569 1.5,1.0938 0.21997,0.21403 0.40937,0.44186 0.59375,0.6875 0.18438,0.24564 0.35541,0.50774 0.5,0.78125 0.14012,0.26505 0.27614,0.52473 0.375,0.8125 0.01041,0.03078 0.02133,0.06274 0.03125,0.09375 0.09046,0.27808 0.1388,0.5794 0.1875,0.875 0.053,0.318 0.094,0.634 0.094,0.969 l 0,2 0,68 0,2 c 0,3.324 -2.676,6 -6,6 l -72,0 z" />
  </g>
  <g
     style="opacity:0.81300001;fill-rule:evenodd"
     id="g1075"
     transform="translate(234.08,-200.5)">
    <path
       inkscape:connector-curvature="0"
       style="opacity:0.4;fill:url(#linearGradient3693-2)"
       id="path1077"
       d="m 44.844,8.0625 1.3438,3.875 31.812,0 1,0 c 2.754,0 5.0625,2.3085 5.0625,5.0625 l 0,1 0,60 0,1 c 2e-6,2.754 -2.3085,5.0625 -5.0625,5.0625 l -1,0 -6.875,0 1.3438,3.875 11.531,0 c 2.2218,0 3.9375,-1.7157 3.9375,-3.9375 l 0,-72 c 0,-2.2218 -1.716,-3.9375 -3.938,-3.9375 l -39.156,0 z" />
    <path
       inkscape:connector-curvature="0"
       style="opacity:0.7;fill:url(#linearGradient11004)"
       id="path1079"
       d="m 66,30 c -44,44 -22,22 0,0 z m 3.8438,15.062 c -3.121,-0.014 -7.184,0.155 -12.032,0.438 l 11.875,34.375 9.3125,0 c 0.5388,0 0.875,-0.3362 0.875,-0.875 l 0,-32.438 c -1.741,-1.0015 -4.7899,-1.4754 -10.031,-1.5 z" />
    <path
       inkscape:connector-curvature="0"
       style="opacity:0.5;fill:url(#linearGradient11006)"
       id="path1081"
       d="m 47.656,16.125 1.0625,3.0312 c -0.284,-1.309 -0.632,-2.304 -1.03,-3.031 l -0.03125,0 z m 11.125,29.312 c -0.292,0.017 -0.669,0.046 -0.969,0.063 l 11.875,34.375 1,0 -11.906,-34.438 z" />
    <path
       inkscape:connector-curvature="0"
       style="opacity:0.7;fill:url(#linearGradient11008)"
       id="path1083"
       d="m 107.66,16.125 22.031,63.75 9.3125,0 c 0.5388,0 0.875,-0.3362 0.875,-0.875 l 0,-62 c 0,-0.5388 -0.33619,-0.875 -0.875,-0.875 l -31.344,0 z" />
    <path
       inkscape:connector-curvature="0"
       style="opacity:0.5;fill:url(#linearGradient4149)"
       id="path1085"
       d="m 107.66,16.125 22.031,63.75 1,0 -22.031,-63.75 -1,0 z" />
  </g>
  <path
     style="fill:#999999"
     inkscape:connector-curvature="0"
     id="path1087"
     d="m 55.717,15.31 19.928,0 c 3.9683,0 7.1631,3.1947 7.1631,7.1631 l 0,20.776 c -0.978,-2.25 -22.937,-24.81 -27.091,-27.94 z" />
  <g
     id="g1089"
     transform="matrix(0.77272,0,0,0.82406,19.547,3.79)">
    <path
       inkscape:connector-curvature="0"
       style="opacity:0.05;fill:url(#linearGradient11010)"
       id="path1091"
       d="m 40.156,14 c -0.0024,0.01001 3.2e-5,0.03116 0,0.03125 -0.01981,0.05795 -0.02351,0.0081 -0.03125,0.03125 -0.0077,0.02318 -0.03079,0.09215 -0.03125,0.09375 l -0.03125,0.125 c -1.3e-5,9e-5 0.0011,0.05037 0,0.0625 -0.0022,0.02426 4.49e-4,0.05297 0,0.0625 -8.98e-4,0.01907 1.15e-4,0.02415 0,0.03125 -2.29e-4,0.0142 -1.4e-5,0.02389 0,0.03125 -0.0015,0.01979 2.62e-4,0.02404 0,0.03125 1.08e-4,0.01161 -1.6e-5,0.02738 0,0.03125 -0.0037,0.02964 -0.03075,0.05413 -0.03125,0.0625 -0.0019,0.0097 -3e-6,0.03127 0,0.03125 -3.96e-4,0.01267 5.7e-5,0.02615 0,0.03125 -1.13e-4,0.01021 -5e-6,0.02491 0,0.03125 -0.006,0.031 -0.032,0.063 -0.032,0.063 -1.4e-4,0.0017 -5.1e-5,0.13304 0,0.15625 -5.8e-5,0.0017 -9e-6,0.07054 0,0.09375 9e-6,0.02321 -0.0017,-0.089 0,0.03125 -0.0022,-0.14957 3.3e-5,0.008 0,0.03125 -3.3e-5,0.02321 -1.06e-4,0.12334 0,0.125 -1.4e-5,0.0058 -1e-6,0.02565 0,0.03125 10e-7,0.0112 -9.3e-5,0.12417 0,0.125 6e-6,5.5e-5 0.02488,0.0275 0.03125,0.0625 7.2e-5,0.0057 -5.21e-4,0.01672 0,0.03125 0.0025,0.01279 -0.0011,0.02719 0,0.03125 0.0045,0.01727 -0.002,0.02454 0,0.03125 0.004,0.01343 0.02956,0.02598 0.03125,0.03125 0.0034,0.01053 -0.0021,0.02486 0,0.03125 0.003,0.0127 -6.87e-4,0.02901 0,0.03125 0.0011,0.0074 -4e-6,0.03123 0,0.03125 1.74e-4,8.14e-4 0.02761,0.11408 0.03125,0.125 0.0036,0.01092 -0.0039,0.01967 0,0.03125 0.0075,0.02441 0.02532,0.07602 0.03125,0.09375 0.0039,0.01159 0.01904,0.04077 0.03125,0.0625 9.92e-4,0.009 0.0026,0.03155 0,0.03125 0.0077,0.02319 0.03067,0.06094 0.03125,0.0625 5.83e-4,0.0016 -0.0077,0.008 0,0.03125 0.0038,0.0116 0.02063,0.03352 0.03125,0.0625 -0.0076,-0.02322 0.03191,0.06403 0.03125,0.0625 0.0013,0.0038 -0.0031,0.02252 0,0.03125 0.0031,0.0087 0.03116,0.09356 0.03125,0.09375 9.2e-5,1.87e-4 0.05792,0.08658 0.0625,0.09375 0.0046,0.0072 -0.0022,0.02798 0,0.03125 0.0043,0.0066 0.02768,-0.0054 0.03125,0 1.2e-5,2.1e-5 0.02359,0.01971 0.03125,0.03125 0.0033,0.0087 0.02166,0.04047 0.03125,0.0625 0.0048,0.01102 -4.2e-5,0.03117 0,0.03125 1.2e-5,2.3e-5 0.02321,0.01763 0.03125,0.03125 0.0158,0.01915 0.02461,0.02392 0.03125,0.03125 0.01327,0.01466 0.02615,0.02597 0.03125,0.03125 0.0031,0.0052 -5e-6,0.03124 0,0.03125 0.0019,0.0027 0.09173,0.12236 0.09375,0.125 2.53e-4,3.31e-4 0.05666,0.08781 0.0625,0.09375 0.0029,0.003 0.02909,-0.0022 0.03125,0 0.0042,0.0064 -0.0077,0.01963 0,0.03125 0.008,0.008 0.02347,0.02354 0.03125,0.03125 0.004,0.0059 0.02527,0.02249 0.03125,0.03125 0.0081,0.0085 -0.0036,0.02768 0,0.03125 0.0031,0.0037 0.03126,1.3e-5 0.03125,0 0.01038,0.01368 0.09367,0.12493 0.09375,0.125 7.5e-5,7.3e-5 0.08182,0.08485 0.09375,0.09375 0.0039,0.0039 0.02742,-0.0038 0.03125,0 0.0026,0.0026 0.01741,0.01874 0.03125,0.03125 0.01148,0.0076 0.01963,0.02359 0.03125,0.03125 0.0065,0.0059 0.02718,-0.0036 0.03125,0 0.0024,0.0024 -0.0034,0.0279 0,0.03125 0.0085,0.008 0.09358,0.09363 0.09375,0.09375 l 0.125,0.0625 c 3.3e-5,1.7e-5 0.023,-0.004 0.03125,0 0.0086,0.0057 0.01968,0.02352 0.03125,0.03125 0.02357,0.01044 0.05324,0.02766 0.0625,0.03125 0.01537,0.0098 0.0307,0.03093 0.03125,0.03125 8.64e-4,5.01e-4 -4.93e-4,-0.01643 0.03125,0 0.005,0.0016 0.0266,-0.0015 0.03125,0 0.01155,0.0078 0.02011,0.02382 0.03125,0.03125 0.0056,0.0037 -0.0074,0.02641 0,0.03125 0.0037,0.0024 0.02267,-0.0054 0.03125,0 0.0086,0.0054 0.12481,0.06241 0.125,0.0625 7.57e-4,3.45e-4 0.08293,0.02764 0.09375,0.03125 0.01082,0.0036 0.01964,0.02742 0.03125,0.03125 0.0031,0.0012 0.32754,0.08982 0.15625,0.03125 0.05795,0.01981 0.0081,0.02351 0.03125,0.03125 0.02318,0.0077 0.09215,0.03079 0.09375,0.03125 0.02317,0.0078 0.15463,0.03087 0.15625,0.03125 0.005,0.0017 0.02546,-0.002 0.03125,0 0.01623,0.0027 0.03492,-0.0044 0.0625,0 0.01655,0.0026 0.01868,0.02943 0.03125,0.03125 0.01047,0.0015 0.0274,-2.93e-4 0.03125,0 0.02003,0.0015 0.02331,-3.11e-4 0.03125,0 0.01356,0.0017 0.02006,-0.0013 0.03125,0 0.03151,0.0062 0.06244,0.03124 0.0625,0.03125 4.12e-4,5.5e-5 0.11682,-7e-5 0.125,0 0.0017,1.39e-4 0.13304,5.1e-5 0.15625,0 0.0017,5.8e-5 0.07054,9e-6 0.09375,0 0.02321,-9e-6 -0.089,0.0017 0.03125,0 1.1913,-0.0064 1.8343,0.22103 1.7812,0.1875 0.07062,0.04461 0.10044,0.05103 0.25,0.3125 0.14956,0.26146 0.37039,0.76818 0.59375,1.625 0.87502,3.3567 1.4062,11.447 1.4062,26.906 -1.16e-4,0.0331 -1.63e-4,0.15282 0,0.15625 9.03e-4,0.03257 -9.87e-4,0.06893 0,0.09375 -5.4e-5,0.01544 3e-6,0.01709 0,0.03125 -10e-7,0.0071 -6.3e-5,0.0228 0,0.03125 3.1e-5,0.0042 -1.91e-4,0.02208 0,0.03125 1.91e-4,0.0092 -3.2e-5,0.12479 0,0.125 3.2e-5,2.12e-4 0.02782,0.11362 0.03125,0.125 0.0017,0.0057 0.03022,-0.0033 0.03125,0 10e-4,0.0033 -7.5e-4,0.02892 0,0.03125 1.69e-4,0.0058 -5.45e-4,0.02078 0,0.03125 5.45e-4,0.01047 -2.6e-5,0.03099 0,0.03125 8e-6,7.9e-5 0.02611,0.0374 0.03125,0.0625 0.0037,0.01118 -0.0039,0.01966 0,0.03125 0.01122,0.05483 0.03123,0.12494 0.03125,0.125 0.0246,0.07871 -0.003,0.02209 0,0.03125 0.003,0.0092 -0.0039,0.01965 0,0.03125 0.0077,0.0232 0.03066,0.06089 0.03125,0.0625 3.7e-5,1.01e-4 0.05297,0.13956 0.0625,0.15625 0.0048,0.0083 0.02841,-0.0047 0.03125,0 0.0028,0.0047 -0.0019,0.02813 0,0.03125 0.0077,0.01248 -0.0032,0.02638 0,0.03125 0.0019,0.0044 0.02919,-0.0049 0.03125,0 0.0016,0.0049 -0.0017,0.02627 0,0.03125 0.0052,0.01218 -2.8e-5,0.03119 0,0.03125 0.0022,0.006 -0.006,0.01641 0,0.03125 0.006,0.01484 0.06245,0.09366 0.0625,0.09375 8.33e-4,0.0015 0.04702,0.10186 0.0625,0.125 0.01548,0.02314 0.03034,0.0298 0.03125,0.03125 5.7e-5,9.1e-5 0.08056,0.10953 0.09375,0.125 0.01319,0.01547 0.02567,0.02518 0.03125,0.03125 0.0038,0.0055 0.02726,-0.0058 0.03125,0 0.0029,0.0029 -0.0024,0.02885 0,0.03125 0.0063,0.0092 -0.0049,0.02415 0,0.03125 0.0038,0.0058 0.02745,-0.0057 0.03125,0 0.0035,0.0051 -3.09e-4,0.03085 0,0.03125 0.0035,0.0053 -0.0043,0.02492 0,0.03125 0.0043,0.0063 0.09347,0.09343 0.09375,0.09375 0.0011,0.0013 0.04697,0.07828 0.0625,0.09375 0.01553,0.01547 0.03007,-0.0012 0.03125,0 0.0024,0.0025 0.09126,0.09139 0.09375,0.09375 7.8e-5,7.4e-5 0.08254,0.08543 0.09375,0.09375 0.004,0.004 0.02724,-0.004 0.03125,0 0.004,0.004 0.02529,0.0254 0.03125,0.03125 0.01135,0.0076 0.01963,0.02358 0.03125,0.03125 0.02699,0.02353 0.06229,0.03109 0.0625,0.03125 0.002,0.0015 0.05503,0.036 0.09375,0.0625 0.0057,0.0052 0.01563,0.01791 0.03125,0.03125 0.0052,0.0053 0.02037,0.02075 0.03125,0.03125 0.0054,0.0052 0.01615,0.01763 0.03125,0.03125 0.0075,0.0068 0.01169,0.0152 0.03125,0.03125 0.01159,0.0076 0.03067,-3.6e-4 0.03125,0 0.0406,0.02862 0.12492,0.09371 0.125,0.09375 2.2e-5,1.2e-5 0.02322,-0.0039 0.03125,0 0.02678,0.0129 0.05137,0.05805 0.0625,0.0625 0.0079,0.0044 0.03129,2.2e-5 0.03125,0 0.0051,0.0032 0.01795,-0.0078 0.03125,0 0.0091,0.0038 0.01848,-0.0053 0.03125,0 0.0073,0.0024 0.02428,0.02897 0.03125,0.03125 0.02782,0.01387 0.06245,0.03123 0.0625,0.03125 0.0016,6.68e-4 0.07053,0.05481 0.09375,0.0625 0.02322,0.0077 0.02964,-5.87e-4 0.03125,0 0.0032,0.0012 0.15297,0.03024 0.15625,0.03125 0.0016,5.04e-4 -0.02319,0.02347 0,0.03125 0.02319,0.0078 0.12334,0.03083 0.125,0.03125 5.2e-5,1.3e-5 0.12489,0.03124 0.125,0.03125 1.07e-4,1.2e-5 0.05281,-6.56e-4 0.0625,0 0.0055,0.0016 0.02989,-0.0072 0.0625,0 0.03669,0.0081 0.06239,0.03123 0.0625,0.03125 2.12e-4,3.1e-5 0.11457,-2.7e-4 0.125,0 0.01043,2.7e-4 0.02683,-4.2e-5 0.03125,0 0.0052,0.0015 0.02276,-0.0023 0.03125,0 0.008,3e-4 0.01904,-4.29e-4 0.03125,0 1.33e-4,2.9e-5 0.06241,0.03124 0.0625,0.03125 9.4e-5,1.5e-5 0.1562,0 0.15625,0 5.4e-5,0 0.12489,1.5e-5 0.125,0 1.09e-4,-1.5e-5 0.05346,-0.02959 0.0625,-0.03125 0.02601,-0.0019 0.03653,0.0019 0.0625,0 13.904,-0.99169 21.958,-1.1946 25.75,-0.5625 1.9023,0.31704 2.6257,0.86494 2.7188,0.96875 0.1849,0.20623 0.3125,0.43291 0.3125,1.625 a 0.99689,0.99689 0 0 0 0,0.03125 c -5.9e-5,-0.0034 3.85e-4,0.15963 0,0.15625 -3.85e-4,-0.0034 0.03196,0.19083 0.03125,0.1875 -7.07e-4,-0.0033 0.06352,0.19074 0.0625,0.1875 -10e-4,-0.0032 0.06383,0.15938 0.0625,0.15625 -0.0013,-0.0031 0.06412,0.15924 0.0625,0.15625 -0.0016,-0.003 0.09565,0.15907 0.09375,0.15625 -0.0019,-0.0028 0.12716,0.15888 0.125,0.15625 -0.0022,-0.0026 0.1274,0.1274 0.125,0.125 -0.0024,-0.0024 0.12762,0.12716 0.125,0.125 -0.0026,-0.0022 0.15907,0.1269 0.15625,0.125 -0.0028,-0.0019 0.15924,0.09537 0.15625,0.09375 -0.003,-0.0016 0.15938,0.06383 0.15625,0.0625 -0.0031,-0.0013 0.15949,0.06352 0.15625,0.0625 -0.0032,-10e-4 0.19083,0.06321 0.1875,0.0625 -0.0033,-7.07e-4 0.19088,0.03164 0.1875,0.03125 -0.0034,-3.85e-4 0.15965,5.9e-5 0.15625,0 a 0.99689,0.99689 0 0 0 0.03125,0 l 1.095,0.01 0,-11.625 c -0.197,-0.216 -0.409,-0.433 -0.625,-0.656 -2.452,-2.545 -6.411,-5.962 -13.313,-12.719 -6.908,-6.764 -10.585,-10.736 -13.406,-13.25 -0.7,-0.624 -1.386,-1.166 -2.062,-1.625 l -12.438,0 z" />
    <path
       inkscape:connector-curvature="0"
       style="opacity:0.1;fill:url(#linearGradient5078)"
       id="path1093"
       d="m 41.281,14 c -0.0017,0.0029 -0.06097,0.09079 -0.0625,0.09375 -0.0015,0.003 -0.02987,0.09072 -0.03125,0.09375 -0.0014,0.003 -0.06127,0.09066 -0.0625,0.09375 -0.0012,0.0031 -0.03017,0.05935 -0.03125,0.0625 -0.0011,0.0031 -0.03033,0.09055 -0.03125,0.09375 -9.21e-4,0.0032 7.63e-4,0.09051 0,0.09375 -7.63e-4,0.0032 -0.03065,0.12173 -0.03125,0.125 -6.03e-4,0.0033 4.41e-4,0.09045 0,0.09375 -4.41e-4,0.0033 -0.03097,0.09043 -0.03125,0.09375 -2.79e-4,0.0033 1.16e-4,0.09042 0,0.09375 -1.16e-4,0.0033 -4.8e-5,0.09042 0,0.09375 4.8e-5,0.0033 -2.11e-4,0.09043 0,0.09375 2.11e-4,0.0033 -3.74e-4,0.09044 0,0.09375 3.74e-4,0.0033 0.03072,0.09047 0.03125,0.09375 5.35e-4,0.0033 -6.96e-4,0.0905 0,0.09375 6.96e-4,0.0033 0.03039,0.09053 0.03125,0.09375 8.55e-4,0.0032 0.03024,0.09058 0.03125,0.09375 10e-4,0.0032 0.03008,0.09063 0.03125,0.09375 0.0012,0.0031 0.02993,0.09069 0.03125,0.09375 0.0013,0.0031 0.02978,0.09076 0.03125,0.09375 0.0015,0.003 0.06089,0.09084 0.0625,0.09375 0.0016,0.0029 0.06075,0.05967 0.0625,0.0625 0.0018,0.0028 0.02936,0.09101 0.03125,0.09375 0.0019,0.0027 0.06048,0.0911 0.0625,0.09375 0.002,0.0026 0.06035,0.05996 0.0625,0.0625 0.0021,0.0025 0.06023,0.06007 0.0625,0.0625 0.0023,0.0024 0.06011,0.09143 0.0625,0.09375 0.0024,0.0023 0.09125,0.0603 0.09375,0.0625 0.0025,0.0022 0.0599,0.06042 0.0625,0.0625 0.0026,0.0021 0.0598,0.06056 0.0625,0.0625 0.0027,0.0019 0.09096,0.02944 0.09375,0.03125 0.0028,0.0018 0.09087,0.06083 0.09375,0.0625 0.0029,0.0017 0.05954,0.02972 0.0625,0.03125 0.003,0.0015 0.09072,0.06112 0.09375,0.0625 0.003,0.0014 0.09066,0.03002 0.09375,0.03125 0.0031,0.0012 0.0906,0.03017 0.09375,0.03125 0.0031,0.0011 0.09055,0.03033 0.09375,0.03125 0.0032,9.21e-4 0.09051,0.03049 0.09375,0.03125 0.0032,7.63e-4 0.09048,-6.03e-4 0.09375,0 0.0033,6.03e-4 0.09045,0.03081 0.09375,0.03125 0.0033,4.41e-4 0.09043,-2.79e-4 0.09375,0 0.0033,2.79e-4 0.09042,-1.16e-4 0.09375,0 0.0033,1.16e-4 0.09042,4.8e-5 0.09375,0 1.2689,-0.0068 1.986,0.13751 2.3125,0.34375 0.36466,0.23033 0.80719,0.71271 1.2812,2.5312 0.9446,3.6236 1.4375,11.676 1.4375,27.156 -1.2e-5,0.0034 -1.63e-4,0.09032 0,0.09375 1.63e-4,0.0034 -3.38e-4,0.09034 0,0.09375 3.38e-4,0.0034 -5.11e-4,0.12161 0,0.125 5.11e-4,0.0034 0.03057,0.09039 0.03125,0.09375 6.84e-4,0.0034 0.0304,0.09043 0.03125,0.09375 8.54e-4,0.0033 -10e-4,0.09048 0,0.09375 0.001,0.0033 0.03006,0.09053 0.03125,0.09375 0.0012,0.0032 0.06115,0.0906 0.0625,0.09375 0.0014,0.0032 0.02974,0.09067 0.03125,0.09375 0.0015,0.0031 0.02958,0.09075 0.03125,0.09375 0.0017,0.003 0.06068,0.09084 0.0625,0.09375 0.0018,0.0029 0.06054,0.05969 0.0625,0.0625 0.002,0.0028 0.0604,0.09104 0.0625,0.09375 0.0021,0.0027 0.06026,0.09115 0.0625,0.09375 0.0022,0.0026 0.06013,0.06002 0.0625,0.0625 0.0024,0.0025 0.06001,0.06014 0.0625,0.0625 0.0025,0.0024 0.09114,0.06027 0.09375,0.0625 0.0026,0.0022 0.05978,0.06041 0.0625,0.0625 0.0027,0.0021 0.09093,0.06055 0.09375,0.0625 0.0028,0.0019 0.09083,0.0607 0.09375,0.0625 0.0029,0.0018 0.05949,0.06085 0.0625,0.0625 0.003,0.0017 0.09067,0.02975 0.09375,0.03125 0.0031,0.0015 0.09059,0.06116 0.09375,0.0625 0.0032,0.0013 0.09053,0.03008 0.09375,0.03125 0.0032,0.0012 0.09047,0.03024 0.09375,0.03125 0.0033,0.001 0.09043,0.03041 0.09375,0.03125 0.0033,8.39e-4 0.12164,-6.69e-4 0.125,0 0.0034,6.69e-4 0.09036,0.03075 0.09375,0.03125 0.0034,4.96e-4 0.09034,-3.22e-4 0.09375,0 0.0034,3.22e-4 0.09032,-1.48e-4 0.09375,0 0.0034,1.48e-4 0.09032,0.03128 0.09375,0.03125 0.0034,-2.7e-5 0.12158,-0.03105 0.125,-0.03125 13.969,-0.99782 21.988,-1.2051 26.031,-0.53125 2.0237,0.33729 2.9502,0.87712 3.3125,1.2812 0.37686,0.42035 0.5625,0.99338 0.5625,2.2812 a 0.89051,0.89051 0 0 0 0.875,0.875 l 1.0938,0 0,-9.0625 c -0.391,-0.487 -0.827,-0.995 -1.344,-1.531 -2.388,-2.478 -6.363,-5.915 -13.281,-12.687 -6.922,-6.777 -10.624,-10.767 -13.375,-13.219 -1.177,-1.049 -2.247,-1.828 -3.312,-2.375 l -9.4062,0 z" />
    <path
       inkscape:connector-curvature="0"
       style="opacity:0.15;fill:url(#linearGradient5082)"
       id="path1095"
       d="M 42.531,14 A 1.0939,1.0939 0 0 0 43,16.094 c 1.3156,-0.0071 2.1843,0.09171 2.7812,0.46875 0.59693,0.37704 1.185,1.135 1.6875,3.0625 1.0049,3.855 1.4375,11.878 1.4375,27.375 a 1.092,1.092 0 0 0 1.1562,1.0938 c 13.983,-0.99882 21.996,-1.2403 26.25,-0.53125 2.1271,0.35452 3.2422,0.92635 3.8125,1.5625 0.57034,0.63615 0.78125,1.4963 0.78125,2.875 l 1.095,0 0,-6.656 c -0.482,-0.758 -1.125,-1.53 -2,-2.438 -2.333,-2.42 -6.319,-5.902 -13.25,-12.687 -6.933,-6.788 -10.656,-10.792 -13.344,-13.188 -2.016,-1.796 -3.604,-2.702 -5.344,-3.031 l -5.5312,0 z" />
    <path
       style="opacity:0.3"
       inkscape:connector-curvature="0"
       id="path1097"
       d="m 43,15 c 5.398,-0.02908 7,0.96895 7,32 28,-2 32,-1 32,5 l 0,-2.625 C 82,45.013 79.893,44.602 66,31 52.107,17.398 50.943,14.872 46.27,14.947 Z" />
    <path
       inkscape:connector-curvature="0"
       style="fill:url(#linearGradient5084)"
       id="path1099"
       d="m 43,14 c 5.398,-0.02908 7,0.96895 7,32 28,-2 32,-1 32,5 l 0,-2.625 C 82,44.013 79.893,43.602 66,30 52.107,16.398 50.943,13.872 46.27,13.947 Z" />
    <path
       inkscape:connector-curvature="0"
       style="opacity:0.2;fill:url(#linearGradient5086)"
       id="path1101"
       d="M 46.281,13.938 43,14 c 4.7232,-0.02544 6.5258,0.73974 6.9062,21.719 -0.23216,-14.677 -1.1139,-19.946 -3.125,-21.75 -0.17042,-0.0053 -0.3201,-0.03415 -0.5,-0.03125 z M 69.843,44.063 C 65.171,44.041 58.75,44.375 50,45 c 4.77e-4,0.36842 0,0.62275 0,1 28,-2 32,-1 32,5 l 0,-1 c 0,-4.125 -1.876,-5.8892 -12.156,-5.9375 z" />
    <path
       inkscape:connector-curvature="0"
       style="fill:url(#linearGradient5088)"
       id="path1103"
       d="M 46.281,13.938 43,14 c 0.34929,-0.0019 0.68191,-0.01458 1,0 l 2.625,-0.0625 c -0.11879,-0.0018 -0.22037,-0.002 -0.34375,0 z M 44,14 c 4.5978,0.21071 6,2.9769 6,32 0.37208,-0.02658 0.63635,-0.03699 1,-0.0625 -0.002,-30.962 -1.606,-31.967 -7,-31.938 z" />
    <g
       id="g1105"
       transform="translate(0,-90)">
      <path
         style="color:#000000;opacity:0.07999998"
         inkscape:connector-curvature="0"
         id="path1107"
         d="M 46.281,103.94 43,104 c 2.3686,-0.0128 4.0015,0.16674 5.0938,3 l 4.75,0 c -2.703,-2.4286 -4.1834,-3.1008 -6.5625,-3.0625 z m 32.719,28.5 0,3.7188 c 2.3723,0.9394 3,2.5159 3,4.8438 l 0,-2.625 c 0,-2.2399 -0.57879,-3.4606 -3,-5.9375 z" />
      <path
         style="color:#000000;opacity:0.1"
         inkscape:connector-curvature="0"
         id="path1109"
         d="m 43.969,104 c 1.5413,0.0664 2.7314,0.43118 3.625,1.9375 l 4,0 C 50.0049,104.6754 48.7874,104.1414 47.344,104 l -3.375,0 z m 36.094,29.594 0,3.0938 c 1.513,0.97 1.937,2.38 1.937,4.32 l 0,-2.625 c 0,-1.865 -0.41106,-3.0213 -1.9375,-4.7812 z" />
      <path
         style="color:#000000;opacity:0.25"
         inkscape:connector-curvature="0"
         id="path1111"
         d="m 43.969,104 c 1.1274,0.0486 2.0412,0.27688 2.8125,0.96875 l 3.4375,0 c -0.973,-0.59 -1.877,-0.87 -2.876,-0.97 l -3.375,0 z m 37.062,30.812 0,2.7188 c 0.73,0.89 0.969,2.04 0.969,3.47 l 0,-2.625 c 0,-1.3994 -0.21565,-2.4105 -0.96875,-3.5625 z" />
    </g>
  </g>
  <g
     id="g14291">
    <path
       d="m 5.2922679,73.685059 0,5.0663 c 0,6.668 5.3645011,12.032 12.0320011,12.032 l 61.049,0 c 6.668,0 12.032,-5.3645 12.032,-12.032 l 0,-5.0663 c 0,6.6681 -5.3645,12.032 -12.032,12.032 l -61.049,0 c -6.668,0 -12.0320011,-5.3643 -12.0320011,-12.032 z"
       id="path64"
       inkscape:connector-curvature="0"
       style="opacity:0.4;fill:url(#linearGradient14237);fill-opacity:1" />
    <path
       inkscape:connector-curvature="0"
       id="path14214"
       d="m 5.2929688,72.717592 0,1.15039 c 0,6.667718 5.3632502,12.031248 12.0312502,12.031248 l 61.048828,0 c 6.6675,0 12.03125,-5.36313 12.03125,-12.031248 l 0,-1.15039 c 0,6.668098 -5.36375,12.031248 -12.03125,12.031248 l -61.048828,0 c -6.668,0 -12.0312502,-5.36355 -12.0312502,-12.031248 z"
       style="opacity:0.5;fill:url(#linearGradient14245);fill-opacity:1" />
  </g>
</svg>
