<svg height="96" width="96" xmlns="http://www.w3.org/2000/svg" xmlns:xlink="http://www.w3.org/1999/xlink" xmlns:sodipodi="http://sodipodi.sourceforge.net/DTD/sodipodi-0.dtd" xmlns:inkscape="http://www.inkscape.org/namespaces/inkscape">
 <defs>
  <filter x="-0.12" y="-0.12" height="1.24" color-interpolation-filters="sRGB" id="filter4161" width="1.24">
   <feGaussianBlur stdDeviation="2.82705"/>
  </filter>
  <clipPath id="clipPath4157">
   <use xlink:href="#SVGCleanerId_1"/>
  </clipPath>
  <clipPath id="clipPath4083">
   <use xlink:href="#SVGCleanerId_2"/>
  </clipPath>
  <clipPath id="clipPath4071">
   <use xlink:href="#SVGCleanerId_3"/>
  </clipPath>
  <filter x="-0.079" y="-0.246" height="1.493" color-interpolation-filters="sRGB" id="filter4137" width="1.159">
   <feGaussianBlur stdDeviation="2.6406"/>
  </filter>
  <clipPath id="clipPath4133">
   <use xlink:href="#SVGCleanerId_4"/>
  </clipPath>
  <clipPath id="clipPath4197">
   <use xlink:href="#SVGCleanerId_5"/>
  </clipPath>
  <clipPath id="clipPath4181">
   <use xlink:href="#SVGCleanerId_6"/>
  </clipPath>
  <filter x="-0.247" y="-0.079" height="1.159" color-interpolation-filters="sRGB" id="filter4149" width="1.494">
   <feGaussianBlur stdDeviation="2.64259"/>
  </filter>
  <clipPath id="clipPath4145">
   <use xlink:href="#SVGCleanerId_7"/>
  </clipPath>
  <clipPath id="clipPath4169">
   <use xlink:href="#SVGCleanerId_8"/>
  </clipPath>
  <clipPath id="clipPath3983">
   <use xlink:href="#SVGCleanerId_9"/>
  </clipPath>
  <linearGradient x2="0" y1="90" y2="5.988" gradientUnits="userSpaceOnUse" id="linearGradient246700" gradientTransform="matrix(1.173 0 0 1.0442 -12.236 -3.247)">
   <stop stop-color="#b4b4b4"/>
   <stop stop-color="#e6e6e6" offset="1"/>
  </linearGradient>
  <linearGradient x2="0" y1="711.15" y2="804.8" gradientUnits="userSpaceOnUse" id="linearGradient246705">
   <stop stop-color="#f9f9f9"/>
   <stop stop-color="#f9f9f9" stop-opacity="0" offset="1"/>
  </linearGradient>
  <path d="m269.47 688.53c15.602 15.625 19.169 37.385 19.169 37.385s-21.729-3.5724-37.33-19.197c-15.602-15.625-19.169-37.385-19.169-37.385s21.729 3.5724 37.33 19.197z" id="SVGCleanerId_1"/>
  <path d="m515.87 745.01c15.602 15.625 19.169 37.385 19.169 37.385s-21.729-3.5724-37.33-19.197c-15.602-15.625-19.169-37.385-19.169-37.385s21.729 3.5724 37.33 19.197z" id="SVGCleanerId_2"/>
  <path d="m515.87 706.72c-15.602 15.625-37.33 19.197-37.33 19.197s3.5672-21.76 19.169-37.385 37.33-19.197 37.33-19.197-3.5672 21.76-19.169 37.385z" id="SVGCleanerId_3"/>
  <path d="m538.47 738.73c-22.064 0-39.951-12.861-39.951-12.861s17.887-12.861 39.951-12.861 39.951 12.861 39.951 12.861-17.887 12.861-39.951 12.861z" id="SVGCleanerId_4"/>
  <path d="m299.47 763.2c-15.602 15.625-37.33 19.197-37.33 19.197s3.5672-21.76 19.169-37.385 37.33-19.197 37.33-19.197-3.5672 21.76-19.169 37.385z" id="SVGCleanerId_5"/>
  <path d="m348.71 698.73c-22.064 0-39.951-12.861-39.951-12.861s17.887-12.861 39.951-12.861 39.951 12.861 39.951 12.861-17.887 12.861-39.951 12.861z" id="SVGCleanerId_6"/>
  <path d="m401.43 865.8c0 22.097-12.842 40.01-12.842 40.01s-12.842-17.913-12.842-40.01 12.842-40.01 12.842-40.01 12.842 17.913 12.842 40.01z" id="SVGCleanerId_7"/>
  <path d="m471.43 685.93c0 22.097-12.842 40.01-12.842 40.01s-12.842-17.913-12.842-40.01 12.842-40.01 12.842-40.01 12.842 17.913 12.842 40.01z" id="SVGCleanerId_8"/>
  <path d="m184.12 701.5a2.2363 2.2363 0 0 0 -1.4688 0.90625s-3.328 4.7671-4.0312 11.156c-5.0181-4.0229-10.75-5.0625-10.75-5.0625a2.2363 2.2363 0 0 0 -2.5938 2.5625s1.034 5.7649 5.0625 10.781c-6.3978 0.70283-11.188 4.0312-11.188 4.0312a2.2363 2.2363 0 0 0 0 3.625s4.7948 3.3031 11.188 4c-4.0285 5.0164-5.0625 10.781-5.0625 10.781a2.2363 2.2363 0 0 0 2.5938 2.5625s5.7319-1.0396 10.75-5.0625c0.70267 6.3934 4.0312 11.188 4.0312 11.188a2.2363 2.2363 0 0 0 3.625 0s3.3111-4.8145 4-11.219c5.0262 4.0467 10.781 5.0938 10.781 5.0938a2.2363 2.2363 0 0 0 2.5938 -2.5938s-1.0624-5.7373-5.0938-10.75c6.397-0.69632 11.219-4 11.219-4a2.2363 2.2363 0 0 0 0 -3.625s-4.8167-3.329-11.219-4.0312c4.0313-5.0127 5.0938-10.75 5.0938-10.75a2.2363 2.2363 0 0 0 -2.59 -2.6s-5.755 1.047-10.781 5.0938c-0.69265-6.3936-4-11.188-4-11.188a2.2363 2.2363 0 0 0 -2.16 -0.91z" id="SVGCleanerId_9"/>
 </defs>
 <g transform="matrix(1 0 0 1 0 -956.36)">
  <rect x="3.353" rx="12.724" y="959.35" fill-opacity="0.02" height="89.98" width="89.62"/>
  <rect x="3.959" rx="12.552" y="959.96" fill-opacity="0.039" height="88.76" width="88.41"/>
  <rect x="4.564" rx="12.38" y="960.57" fill-opacity="0.078" height="87.55" width="87.2"/>
  <rect x="5.17" rx="12.208" y="961.18" fill-opacity="0.157" height="86.33" width="85.991"/>
  <path d="m17.75 5.4062c-6.642 0-11.969 5.3948-11.969 12.063l0.0002 61.031c0 6.668 5.3268 12.031 11.969 12.031h60.812c6.642 0 11.969-5.363 11.969-12.031v-61.031c0-6.668-5.327-12.063-11.969-12.063l-60.812 0.0002z" fill="url(#linearGradient246700)" transform="matrix(1 0 0 1 0 956.36)"/>
  <path d="m5.7756 1033.9v1.0133c0 6.668 5.3434 12.032 11.985 12.032h60.809c6.6418 0 11.985-5.3645 11.985-12.032v-1.0133c0 6.6681-5.3434 12.032-11.985 12.032h-60.809c-6.6418 0-11.985-5.3644-11.985-12.032z" fill-opacity="0.098"/>
  <path d="m5.7756 1029.8v5.0663c0 6.668 5.3434 12.032 11.985 12.032h60.809c6.6418 0 11.985-5.3645 11.985-12.032v-5.0663c0 6.6681-5.3434 12.032-11.985 12.032h-60.809c-6.6418 0-11.985-5.3643-11.985-12.032z" fill-opacity="0.235"/>
  <g fill-rule="evenodd" transform="matrix(0.97263 0 0 0.97263 1.583 955.8)">
   <path d="m184.22 700.03c-0.10928 0.0101-0.10454 0.0236-0.125 0.0312-0.005 0.002-0.0282-0.002-0.0312 0 0.002 0.00009-0.0103 0.00069-0.0312 0-0.01-0.00042-0.0181 0.0309-0.0312 0.0312-0.005-0.00043-0.0229-0.0314-0.0312-0.0312-0.0131 0.00036-0.0323 0.0276-0.0625 0.0312-0.0134 0.002-0.0221-0.001-0.0312 0-0.009 0.001-0.0311-0.00003-0.0312 0-0.0488 0.01-0.10119 0.0249-0.125 0.0312-0.0972 0.0203-0.12897 0.0241-0.15625 0.0312 0.0887-0.0232 0.004-0.006-0.0312 0s0.006-0.0198-0.15625 0.0312c-0.2077 0.0655-0.19113 0.0789-0.21875 0.0937-0.0258 0.0106-0.021 0.0256-0.0312 0.0312 0.0284-0.006 0.0915-0.048-0.0937 0.0312-0.0224-0.001-0.007-0.0104-0.15625 0.0625-0.14004 0.0683-0.0899 0.0409-0.125 0.0625s-0.12068 0.0633-0.0625 0.0312c-0.0695 0.0382-0.0771 0.0814-0.0937 0.0937 0.0284-0.0133 0.073-0.0643-0.0312 0-0.0182 0.005-0.0199 0.00006-0.15625 0.0937-0.10545 0.0725-0.13517 0.0777-0.15625 0.0937 0.0101-0.008-0.0343 0.0416-0.0625 0.0625s-0.0253 0.005-0.0937 0.0625c-0.0842 0.0711-0.073 0.0724-0.0937 0.0937s-0.064 0.0618-0.0312 0.0312c-0.0665 0.062-0.0973 0.0965-0.125 0.125-0.13625 0.14038-0.10451 0.12773-0.125 0.15625-0.0215 0.0206-0.00094 0.008-0.0937 0.125-0.0538 0.0678-0.0856 0.10131-0.125 0.15625 0 0-2.6677 4.0678-3.8125 9.6875-4.7831-3.1706-9.5312-4.1875-9.5312-4.1875a0.77145 0.77145 0 0 0 -0.0312 0c-0.0276-0.005-0.0603-0.0443-0.21875-0.0625-0.14556-0.0167-0.15242-0.00074-0.1875 0-0.0351 0.00074-0.1008-0.004-0.0312 0-0.16839-0.009-0.20239-0.00008-0.21875 0 0.0123-0.00006-0.0529-0.0107-0.21875 0-0.15674 0.0101-0.11421 0.0236-0.15625 0.0312-0.0168 0.003-0.0153-0.003-0.0312 0-0.0351-0.001-0.0194-0.0116-0.25 0.0312-0.21998 0.0408-0.14559 0.0476-0.1875 0.0625-0.0419 0.0149-0.15459 0.0306-0.0312 0 0.0577-0.0143 0.004-0.006-0.0312 0s-0.0246-0.01-0.15625 0.0312c-0.10276 0.0321-0.12136 0.0481-0.15625 0.0625-0.0349 0.0144-0.0857 0.0401-0.0625 0.0312-0.0478 0.0181-0.0825 0.0154-0.1875 0.0625 0.0519-0.0233 0.004 0.0178-0.0312 0.0312-0.0353 0.0135-0.0324-0.002-0.15625 0.0625-0.15649 0.0818-0.21663 0.12373-0.21875 0.125 0.00041-0.00024-0.0273 0.0104-0.0625 0.0312s-0.0505 0.0427-0.125 0.0937c-0.0914 0.0626-0.12183 0.0983-0.15625 0.125-0.14339 0.11134-0.12878 0.0964-0.15625 0.125-0.0719 0.063-0.0972 0.0967-0.125 0.125s-0.0371 0.037-0.0312 0.0312c-0.0127 0.0125-0.0519 0.0714-0.15625 0.1875 0.0517-0.0575-0.003-0.0276-0.0312 0-0.0285 0.0276-0.0228 0.0278-0.125 0.15625-0.0465 0.0584-0.0793 0.0912-0.125 0.15625-0.0624 0.0888-0.073 0.0897-0.0937 0.125s-0.0412 0.0786-0.0312 0.0625c-0.0205 0.0332-0.0582 0.0634-0.125 0.1875-0.0739 0.13746-0.0491 0.15218-0.0625 0.1875-0.0134 0.0353-0.0309 0.0979 0 0.0312-0.0169 0.0178-0.0443-0.018-0.125 0.1875-0.0844 0.21469-0.0567 0.21467-0.0625 0.25-0.0118 0.021-0.0254 0.014-0.0625 0.15625-0.0384 0.14707-0.0302 0.18233-0.0312 0.1875-0.0186 0.094-0.0188 0.15943-0.0312 0.25 0.0108-0.079-0.0235-0.0349-0.0312 0-0.008 0.0349-0.0191 0.0301-0.0312 0.1875-0.009 0.11789-0.0004 0.11412 0 0.15625 0.0004 0.0421-0.00044 0.11948 0 0.0937-0.00075 0.0442-0.005 0.0779 0 0.1875-0.003-0.0649 0.00061 0.0204 0 0.0625s-0.016 0.0312 0 0.1875c0.0103 0.10037 0.0248 0.10192 0.0312 0.125 0.002 0.005-0.001 0.0245 0 0.0312a0.77145 0.77145 0 0 0 0.0312 0.0312 0.77145 0.77145 0 0 0 0 0.0625s1.0123 4.7728 4.1875 9.5625c-5.6321 1.1435-9.7188 3.8125-9.7188 3.8125 0.10398-0.0752 0.004-0.0202-0.0312 0-0.0356 0.0202-0.0191-0.0125-0.1875 0.125-0.11403 0.0931-0.0974 0.0965-0.125 0.125s-0.0756 0.0721-0.0312 0.0312c-0.0897 0.0826-0.11972 0.1184-0.15625 0.15625-0.11151 0.11554-0.10463 0.12771-0.125 0.15625-0.0287 0.0274-0.0363-0.002-0.15625 0.15625-0.0102 0.0134-0.0486 0.0422-0.125 0.15625-0.0848 0.12643-0.0798 0.16382-0.0937 0.1875 0.007-0.0112-0.0412 0.0588-0.0625 0.0937s-0.0158 0.0336-0.0625 0.125c-0.0584 0.11435-0.049 0.121-0.0625 0.15625-0.0135 0.0353-0.0496 0.073-0.0312 0.0312-0.0372 0.0848-0.037 0.11873-0.0625 0.1875 0.0125-0.0338-0.0168 0.0276-0.0312 0.0625-0.0145 0.0349-0.0279 0.0425-0.0625 0.15625-0.0376 0.12366-0.0248 0.12108-0.0312 0.15625-0.006 0.0352-0.0119 0.0807 0 0.0312-0.0262 0.10897-0.0246 0.11404-0.0312 0.15625-0.007 0.0422-0.003 0.11189 0 0.0937 0.005-0.026-0.0238-0.004-0.0312 0.0312-0.007 0.035-0.0189 0.0521-0.0312 0.15625 0.009-0.0732 0.008 0.0204 0 0.0625s-0.0214 0.0207-0.0312 0.1875c-0.009 0.15289 0 0.18674 0 0.1875s-0.009 0.0346 0 0.1875c0.01 0.16682 0.0236 0.14545 0.0312 0.1875 0.008 0.0421 0.009 0.13565 0 0.0625 0.0124 0.10412 0.0238 0.12128 0.0312 0.15625 0.007 0.035 0.0359 0.0573 0.0312 0.0312-0.003-0.0181-0.007 0.0515 0 0.0937s0.005 0.0473 0.0312 0.15625c-0.0119-0.0494-0.006-0.004 0 0.0312s-0.006 0.0326 0.0312 0.15625c0.0346 0.11376 0.048 0.12137 0.0625 0.15625 0.0145 0.0349 0.0437 0.0963 0.0312 0.0625 0.0255 0.0688 0.0253 0.10265 0.0625 0.1875-0.0183-0.0418 0.0177-0.004 0.0312 0.0312 0.0135 0.0353 0.004 0.0419 0.0625 0.15625 0.0467 0.0914 0.0412 0.0901 0.0625 0.125s0.0691 0.10499 0.0625 0.0937c0.0139 0.0237 0.009 0.0611 0.0937 0.1875 0.0764 0.11402 0.1148 0.14283 0.125 0.15625 0.11994 0.15786 0.12756 0.12882 0.15625 0.15625 0.0204 0.0285 0.0135 0.0407 0.125 0.15625 0.0365 0.0379 0.0665 0.0737 0.15625 0.15625-0.0444-0.0408 0.004 0.003 0.0312 0.0312 0.0276 0.0285 0.011 0.0319 0.125 0.125 0.16841 0.13754 0.15191 0.10477 0.1875 0.125 0.0356 0.0202 0.13523 0.0752 0.0312 0a0.77145 0.77145 0 0 0 0 0.0312s4.0916 2.6159 9.7188 3.75c-3.18 4.8-4.19 9.57-4.19 9.57a0.77145 0.77145 0 0 0 0 0.0625 0.77145 0.77145 0 0 0 -0.0312 0.0625c-0.006 0.0231-0.021 0.0246-0.0312 0.125-0.016 0.15629-0.00061 0.14538 0 0.1875 0.00061 0.0421-0.003 0.12741 0 0.0625-0.005 0.1096-0.00075 0.14331 0 0.1875-0.00044-0.0257 0.0004 0.0516 0 0.0937s-0.009 0.0384 0 0.15625c0.0121 0.15743 0.0235 0.15261 0.0312 0.1875 0.008 0.0349 0.0421 0.079 0.0312 0 0.0124 0.0906 0.0126 0.15598 0.0312 0.25 0.001 0.005-0.007 0.0404 0.0312 0.1875 0.0437 0.1673 0.0477 0.15276 0.0625 0.1875 0.0148 0.0347 0.0592 0.11714 0.0312 0.0312-0.002 0.0211-0.0308 0.0296 0.0312 0.1875 0.0905 0.23028 0.10296 0.18425 0.125 0.21875 0.0134 0.0353-0.0114 0.05 0.0625 0.1875 0.0668 0.12411 0.10447 0.15425 0.125 0.1875-0.01-0.0161 0.0105 0.0272 0.0312 0.0625s0.0313 0.0362 0.0937 0.125c0.0457 0.065 0.0785 0.0979 0.125 0.15625 0.10221 0.1284 0.0965 0.1287 0.125 0.15625 0.0285 0.0276 0.0829 0.0575 0.0312 0 0.10431 0.11612 0.14357 0.17496 0.15625 0.1875l0.0312 0.0312c0.0278 0.0283 0.0531 0.062 0.125 0.125 0.0275 0.0286 0.0129 0.0137 0.15625 0.125 0.0344 0.0267 0.0649 0.0624 0.15625 0.125 0.0745 0.051 0.0898 0.0729 0.125 0.0937s0.0629 0.0315 0.0625 0.0312c0.002 0.001 0.0623 0.0432 0.21875 0.125 0.12389 0.0648 0.12097 0.049 0.15625 0.0625 0.0353 0.0135 0.0832 0.0545 0.0312 0.0312 0.10501 0.0471 0.13973 0.0444 0.1875 0.0625-0.0232-0.009 0.0276 0.0168 0.0625 0.0312s0.0535 0.0304 0.15625 0.0625c0.13163 0.0411 0.12105 0.0249 0.15625 0.0312 0.0352 0.006 0.089 0.0143 0.0312 0-0.12334-0.0306-0.0107-0.0149 0.0312 0s-0.0325 0.0217 0.1875 0.0625c0.23061 0.0428 0.21493 0.0326 0.25 0.0312 0.016 0.003 0.0144-0.003 0.0312 0 0.042 0.008-0.00049 0.0211 0.15625 0.0312 0.16584 0.0107 0.23105 0.00006 0.21875 0 0.0164 0.00008 0.0504 0.009 0.21875 0-0.0695 0.004-0.004-0.00074 0.0312 0 0.0351 0.00074 0.0419 0.0167 0.1875 0 0.15847-0.0182 0.19118-0.0577 0.21875-0.0625a0.77145 0.77145 0 0 0 0.0312 0s4.7482-1.0169 9.5312-4.1875c1.1434 5.6298 3.8125 9.7188 3.8125 9.7188-0.0752-0.10398-0.0202-0.004 0 0.0312 0.0202 0.0356-0.0125 0.0191 0.125 0.1875 0.0931 0.11403 0.0965 0.0974 0.125 0.125s0.0721 0.0756 0.0312 0.0312c0.0826 0.0897 0.1184 0.11972 0.15625 0.15625 0.11554 0.11151 0.12771 0.10463 0.15625 0.125 0.0274 0.0287-0.002 0.0363 0.15625 0.15625 0.0134 0.0102 0.0422 0.0485 0.15625 0.125 0.12643 0.0848 0.16382 0.0798 0.1875 0.0937-0.0112-0.007 0.0588 0.0412 0.0937 0.0625s0.0336 0.0158 0.125 0.0625c0.11435 0.0584 0.121 0.049 0.15625 0.0625 0.0352 0.0135 0.073 0.0496 0.0312 0.0312 0.0848 0.0372 0.11873 0.0371 0.1875 0.0625-0.0337-0.0125 0.0276 0.0168 0.0625 0.0312 0.0349 0.0145 0.0425 0.0279 0.15625 0.0625 0.12366 0.0376 0.12108 0.0248 0.15625 0.0312 0.0352 0.006 0.0807 0.0119 0.0312 0 0.10897 0.0262 0.11404 0.0246 0.15625 0.0312 0.0422 0.007 0.11189 0.003 0.0937 0-0.026-0.005-0.004 0.0238 0.0312 0.0312 0.035 0.007 0.0521 0.0189 0.15625 0.0312-0.0731-0.009 0.0205-0.008 0.0625 0s0.0207 0.0214 0.1875 0.0312c0.15289 0.009 0.18674 0 0.1875 0s0.0346 0.009 0.1875 0c0.16682-0.01 0.14545-0.0236 0.1875-0.0312 0.042-0.008 0.13565-0.009 0.0625 0 0.10412-0.0124 0.12128-0.0238 0.15625-0.0312 0.035-0.007 0.0573-0.0359 0.0312-0.0312-0.0181 0.003 0.0515 0.007 0.0937 0s0.0473-0.005 0.15625-0.0312c-0.0494 0.0119-0.004 0.006 0.0312 0s0.0326 0.006 0.15625-0.0312c0.11376-0.0346 0.12137-0.048 0.15625-0.0625 0.0349-0.0145 0.0962-0.0437 0.0625-0.0312 0.0688-0.0254 0.10265-0.0253 0.1875-0.0625-0.0418 0.0183-0.004-0.0177 0.0312-0.0312s0.0419-0.004 0.15625-0.0625c0.0914-0.0467 0.0901-0.0412 0.125-0.0625s0.10499-0.0691 0.0937-0.0625c0.0237-0.0139 0.0611-0.009 0.1875-0.0937 0.11402-0.0765 0.14283-0.1148 0.15625-0.125 0.15786-0.11994 0.12882-0.12756 0.15625-0.15625 0.0285-0.0204 0.0407-0.0135 0.15625-0.125 0.0378-0.0365 0.0737-0.0665 0.15625-0.15625-0.0409 0.0444 0.003-0.004 0.0312-0.0312 0.0285-0.0276 0.0319-0.011 0.125-0.125 0.13754-0.16841 0.10477-0.15191 0.125-0.1875 0.0202-0.0356 0.0752-0.13523 0-0.0312a0.77145 0.77145 0 0 0 0.0312 0s2.6204-4.1104 3.75-9.75c4.7954 3.1931 9.5625 4.2188 9.5625 4.2188a0.77145 0.77145 0 0 0 0.0312 0c0.0343 0.006 0.0673 0.0448 0.21875 0.0625 0.1466 0.0171 0.15242 0.00076 0.1875 0 0.0351-0.00076 0.10193 0.004 0.0312 0 0.17124 0.01 0.2055 0.00005 0.21875 0-0.01 0.00004 0.0551 0.0105 0.21875 0 0.15577-0.01 0.11422-0.0236 0.15625-0.0312 0.0168-0.003 0.0154 0.003 0.0312 0 0.0421 0.001 0.006 0.02 0.28125-0.0312 0.20096-0.0375 0.17382-0.0481 0.1875-0.0625-0.0588 0.0147-0.004 0.006 0.0312 0s0.0236 0.0105 0.15625-0.0312c0.0532-0.0167 0.12061-0.0444 0.25-0.0937 0.0413-0.0158 0.0763-0.0434 0.1875-0.0937-0.055 0.0249-0.004 0.0134 0.0312 0 0.0353-0.0134 0.061 0.004 0.1875-0.0625 0.14621-0.077 0.1751-0.11748 0.1875-0.125 0.10713-0.065 0.0973-0.0722 0.125-0.0937s0.0711-0.0588 0.0312-0.0312c0.0935-0.0647 0.09-0.0654 0.125-0.0937 0.035-0.0284 0.0744-0.0719 0.0625-0.0625-0.0214 0.0168 0.0342-0.0106 0.0625-0.0312 0.0283-0.0207 0.0157-0.0245 0.0937-0.0937 0.1296-0.11492 0.1557-0.1557 0.15625-0.15625s0.0413-0.0267 0.15625-0.15625c0.0692-0.0781 0.0731-0.0654 0.0937-0.0937 0.0207-0.0284 0.0481-0.0839 0.0312-0.0625-0.009 0.0119 0.0341-0.0276 0.0625-0.0625s0.0291-0.0315 0.0937-0.125c-0.0276 0.0399 0.01-0.004 0.0312-0.0312 0.0215-0.0277 0.0288-0.0179 0.0937-0.125 0.008-0.0124 0.048-0.0413 0.125-0.1875 0.0667-0.12654 0.0491-0.15222 0.0625-0.1875 0.0134-0.0353 0.0249-0.0862 0-0.0312 0.0503-0.1112 0.078-0.14619 0.0937-0.1875 0.0494-0.12939 0.077-0.19675 0.0937-0.25 0.0337-0.10717 0.0288-0.10134 0.0312-0.125-0.008 0.0173 0.00076-0.0372 0-0.0312 0.006-0.0352 0.0147-0.0901 0-0.0312 0.0144-0.0137 0.025 0.0135 0.0625-0.1875 0.0513-0.27513 0.0326-0.23912 0.0312-0.28125 0.003-0.0159-0.003-0.0144 0-0.0312 0.008-0.042 0.0212-0.00048 0.0312-0.15625 0.0105-0.16364 0.00004-0.22851 0-0.21875 0.00005-0.0132 0.01-0.0475 0-0.21875 0.004 0.0707-0.00076 0.004 0-0.0312 0.00076-0.0351 0.0171-0.0409 0-0.1875-0.0177-0.15142-0.0564-0.18446-0.0625-0.21875a0.77145 0.77145 0 0 0 0 -0.0312s-1.0367-4.7514-4.2188-9.5312c5.6342-1.1335 9.75-3.75 9.75-3.75a0.77145 0.77145 0 0 0 0 -0.0312c-0.10398 0.0752-0.004 0.0202 0.0312 0 0.0356-0.0202 0.0191 0.0125 0.1875-0.125 0.11403-0.0931 0.0974-0.0965 0.125-0.125s0.0756-0.0721 0.0312-0.0312c0.0897-0.0826 0.11972-0.1184 0.15625-0.15625 0.11151-0.11554 0.10463-0.12771 0.125-0.15625 0.0287-0.0274 0.0363 0.002 0.15625-0.15625 0.0102-0.0134 0.0486-0.0422 0.125-0.15625 0.0848-0.12643 0.0798-0.16382 0.0937-0.1875-0.007 0.0112 0.0412-0.0588 0.0625-0.0937s0.0158-0.0336 0.0625-0.125c0.0584-0.11435 0.049-0.121 0.0625-0.15625 0.0135-0.0353 0.0496-0.073 0.0312-0.0312 0.0372-0.0848 0.037-0.11873 0.0625-0.1875-0.0125 0.0338 0.0168-0.0276 0.0312-0.0625 0.0145-0.0349 0.0279-0.0425 0.0625-0.15625 0.0376-0.12366 0.0248-0.12108 0.0312-0.15625 0.006-0.0352 0.0119-0.0807 0-0.0312 0.0262-0.10897 0.0246-0.11404 0.0312-0.15625 0.007-0.0422 0.003-0.11189 0-0.0937-0.005 0.026 0.0238 0.004 0.0312-0.0312 0.007-0.035 0.0189-0.0521 0.0312-0.15625-0.009 0.0732-0.008-0.0204 0-0.0625s0.0214-0.0207 0.0312-0.1875c0.009-0.15289 0-0.18674 0-0.1875s0.009-0.0346 0-0.1875c-0.01-0.16682-0.0236-0.14545-0.0312-0.1875-0.008-0.0421-0.009-0.13565 0-0.0625-0.0124-0.10412-0.0238-0.12128-0.0312-0.15625-0.007-0.035-0.0359-0.0573-0.0312-0.0312 0.003 0.0181 0.007-0.0515 0-0.0937s-0.005-0.0473-0.0312-0.15625c0.0119 0.0494 0.006 0.004 0-0.0312s0.006-0.0326-0.0312-0.15625c-0.0346-0.11376-0.048-0.12137-0.0625-0.15625-0.0145-0.0349-0.0437-0.0963-0.0312-0.0625-0.0255-0.0688-0.0253-0.10265-0.0625-0.1875 0.0183 0.0418-0.0177 0.004-0.0312-0.0312-0.0135-0.0353-0.004-0.0419-0.0625-0.15625-0.0467-0.0914-0.0412-0.0901-0.0625-0.125s-0.0691-0.10499-0.0625-0.0937c-0.0139-0.0237-0.009-0.0611-0.0937-0.1875-0.0764-0.11402-0.1148-0.14283-0.125-0.15625-0.11994-0.15786-0.12756-0.12882-0.15625-0.15625-0.0204-0.0285-0.0135-0.0407-0.125-0.15625-0.0365-0.0379-0.0665-0.0737-0.15625-0.15625 0.0444 0.0408-0.004-0.003-0.0312-0.0312-0.0276-0.0285-0.011-0.0319-0.125-0.125-0.16841-0.13754-0.15191-0.10477-0.1875-0.125-0.0356-0.0202-0.13523-0.0752-0.0312 0a0.77145 0.77145 0 0 0 0 -0.0312s-4.1105-2.6384-9.75-3.7812c3.182-4.7798 4.2188-9.5312 4.2188-9.5312a0.77145 0.77145 0 0 0 0 -0.0312c0.006-0.0343 0.0448-0.0673 0.0625-0.21875 0.0171-0.1466 0.00076-0.15242 0-0.1875-0.00076-0.0351 0.004-0.10193 0-0.0312 0.01-0.17124 0.00005-0.2055 0-0.21875 0.00004 0.01 0.0105-0.0551 0-0.21875-0.01-0.15577-0.0236-0.11422-0.0312-0.15625-0.003-0.0168 0.003-0.0154 0-0.0312 0.001-0.0421 0.02-0.006-0.0312-0.28125-0.0375-0.20096-0.0481-0.17382-0.0625-0.1875-0.0224-0.0899-0.00076-0.0372 0-0.0312-0.006-0.0352 0.0105-0.0236-0.0312-0.15625-0.0167-0.0533-0.0444-0.12061-0.0937-0.25-0.0158-0.0413-0.0434-0.0763-0.0937-0.1875 0.0249 0.055 0.0134 0.004 0-0.0312-0.0134-0.0353 0.004-0.061-0.0625-0.1875-0.077-0.14621-0.11748-0.1751-0.125-0.1875-0.065-0.10713-0.0722-0.0973-0.0937-0.125s-0.0588-0.0711-0.0312-0.0312c-0.0647-0.0935-0.0654-0.0901-0.0937-0.125-0.0284-0.0349-0.0719-0.0744-0.0625-0.0625 0.0168 0.0214-0.0106-0.0341-0.0312-0.0625-0.0207-0.0284-0.0245-0.0157-0.0937-0.0937-0.11492-0.1296-0.1557-0.1557-0.15625-0.15625s-0.0266-0.0413-0.15625-0.15625c-0.0781-0.0692-0.0654-0.0731-0.0937-0.0937-0.0283-0.0207-0.0839-0.0481-0.0625-0.0312 0.0119 0.009-0.0275-0.0341-0.0625-0.0625s-0.0315-0.0291-0.125-0.0937c0.0399 0.0276-0.004-0.01-0.0312-0.0312-0.0277-0.0215-0.0179-0.0288-0.125-0.0937-0.0124-0.008-0.0413-0.048-0.1875-0.125-0.12654-0.0667-0.15222-0.0491-0.1875-0.0625-0.0353-0.0134-0.0862-0.0249-0.0312 0-0.1112-0.0503-0.14619-0.078-0.1875-0.0937-0.12939-0.0494-0.19675-0.077-0.25-0.0937-0.10717-0.0337-0.10134-0.0288-0.125-0.0312 0.0345 0.0154 0.11734 0.0449-0.0625 0-0.0137-0.0144 0.0135-0.025-0.1875-0.0625-0.27513-0.0513-0.23912-0.0326-0.28125-0.0312-0.0159-0.003-0.0144 0.003-0.0312 0-0.042-0.008-0.00048-0.0212-0.15625-0.0312-0.16364-0.0105-0.22851-0.00004-0.21875 0-0.0132-0.00005-0.0475-0.01-0.21875 0 0.0707-0.004 0.004 0.00076-0.0312 0-0.0351-0.00076-0.0409-0.0171-0.1875 0-0.15142 0.0177-0.18446 0.0564-0.21875 0.0625a0.77145 0.77145 0 0 0 -0.0312 0s-4.7672 1.0255-9.5625 4.2188c-1.1318-5.6282-3.75-9.7188-3.75-9.7188a0.77145 0.77145 0 0 0 -0.0312 0c0.0635 0.0893 0.0202 0.004 0-0.0312-0.0202-0.0356 0.00011-0.033-0.125-0.1875-0.0908-0.11216-0.0965-0.0974-0.125-0.125s-0.07-0.0734-0.0312-0.0312c-0.0784-0.0852-0.11397-0.11571-0.15625-0.15625-0.10101-0.0969-0.0896-0.0661-0.125-0.0937-0.0354-0.0277-0.0941-0.0892-0.0625-0.0625-0.0273-0.0288 0.005-0.0361-0.15625-0.15625-0.11239-0.0835-0.12088-0.0732-0.15625-0.0937-0.0354-0.0205-0.10464-0.0586-0.0625-0.0312-0.0855-0.0556-0.11999-0.0869-0.1875-0.125 0.0331 0.0186-0.0277-0.01-0.0625-0.0312-0.0348-0.0215-0.0102-0.007-0.125-0.0625-0.0831-0.0402-0.12105-0.0488-0.15625-0.0625s-0.0711-0.0348-0.0625-0.0312c-0.0945-0.0386-0.0828-0.0175-0.125-0.0312s-0.0983-0.0328-0.0937-0.0312c0.0684 0.0231 0.004-0.0165-0.0312-0.0312-0.0348-0.0148-0.0379-0.0223-0.1875-0.0625-0.13921-0.0374-0.11406-0.0248-0.15625-0.0312-0.0422-0.006-0.11199-0.01-0.0625 0-0.10039-0.0203-0.16594-0.0197-0.25-0.0312 0.0741 0.0102 0.0349-0.0234 0-0.0312-0.0349-0.008-0.0347-0.0199-0.1875-0.0312-0.10809-0.008-0.11417-0.00038-0.15625 0-0.0421 0.00038-0.10976-0.00018-0.0937 0-0.0239-0.00027-0.0843-0.00094-0.15625 0 0.001 0.00003-0.042 0.00001-0.0625 0-0.0103 0-0.0318 0.00001-0.0312 0a0.77145 0.77145 0 0 0 -0.0312 0z" fill="#f9f9f9" color="#000000" opacity="0.1" transform="matrix(1.4427 0 0 1.4468 -218.12 -1004.8)"/>
   <path d="m184.28 700.81c-0.0259 0.002-0.0993 0.0276-0.125 0.0312-0.0206 0.003-0.0881-0.007-0.125 0-0.009 0.002-0.0262-0.00099-0.0312 0-0.0368 0.006-0.10441 0.0269-0.125 0.0312-0.0255 0.005-0.0998 0.0247-0.125 0.0312-0.0252 0.007-0.13141 0.0234-0.15625 0.0312-0.0248 0.008-0.10058 0.0534-0.125 0.0625-0.0244 0.009-0.10106 0.0523-0.125 0.0625-0.0239 0.0102-0.10159 0.0198-0.125 0.0312-0.0234 0.0114-0.13344 0.0812-0.15625 0.0937-0.0228 0.0126-0.0716 0.0488-0.0937 0.0625-0.0222 0.0137-0.10354 0.0477-0.125 0.0625-0.0215 0.0148-0.1043 0.0779-0.125 0.0937s-0.10511 0.077-0.125 0.0937c-0.0199 0.0168-0.0747 0.076-0.0937 0.0937-0.019 0.0178-0.0756 0.0751-0.0937 0.0937-0.0181 0.0187-0.0766 0.10544-0.0937 0.125-0.0172 0.0196-0.0776 0.0734-0.0937 0.0937-0.0162 0.0204-0.0786 0.10383-0.0937 0.125 0 0-2.9908 4.4364-3.9375 10.469-4.94-3.61-10.19-4.66-10.19-4.66-0.0308-0.005-0.15638-0.0277-0.1875-0.0312-0.0311-0.004-0.12497 0.002-0.15625 0-0.0313-0.002-0.15617-0.00016-0.1875 0-0.0313 0.00016-0.12499-0.002-0.15625 0-0.0313 0.002-0.15641 0.0274-0.1875 0.0312-0.0311 0.004-0.12545-0.006-0.15625 0s-0.1571 0.055-0.1875 0.0625c-0.0304 0.008-0.12635 0.0219-0.15625 0.0312-0.0299 0.009-0.12696 0.0514-0.15625 0.0625-0.0293 0.0111-0.12767 0.0497-0.15625 0.0625-0.0286 0.0128-0.12849 0.048-0.15625 0.0625-0.0278 0.0145-0.1294 0.0776-0.15625 0.0937-0.0268 0.0161-0.13041 0.0761-0.15625 0.0937-0.0258 0.0177-0.10026 0.0745-0.125 0.0937-0.0247 0.0192-0.10144 0.10435-0.125 0.125-0.0236 0.0207-0.10272 0.10298-0.125 0.125-0.0223 0.022-0.10407 0.1017-0.125 0.125-0.0209 0.0233-0.10549 0.10049-0.125 0.125-0.0195 0.0245-0.0757 0.0994-0.0937 0.125s-0.0773 0.1296-0.0937 0.15625c-0.0165 0.0267-0.0789 0.12866-0.0937 0.15625-0.0148 0.0276-0.0493 0.12783-0.0625 0.15625-0.0132 0.0284-0.0823 0.12709-0.0937 0.15625-0.0115 0.0292-0.0215 0.12646-0.0312 0.15625-0.01 0.0298-0.0546 0.12594-0.0625 0.15625-0.008 0.0303-0.0252 0.12552-0.0312 0.15625-0.006 0.0307-0.027 0.15646-0.0312 0.1875-0.004 0.031-0.0289 0.12502-0.0312 0.15625-0.002 0.0312 0.00053 0.15618 0 0.1875-0.00053 0.0313-0.001 0.12495 0 0.15625s-0.003 0.15634 0 0.1875c0.003 0.0312 0.0262 0.12533 0.0312 0.15625a0.6587 0.6587 0 0 0 0 0.0312s1.0454 5.2756 4.6562 10.219c-6.0452 0.94503-10.5 3.9375-10.5 3.9375-0.0252 0.0182-0.13219 0.0741-0.15625 0.0937-0.0241 0.0196-0.10215 0.10397-0.125 0.125-0.0229 0.021-0.10343 0.10265-0.125 0.125-0.0216 0.0223-0.0735 0.10142-0.0937 0.125-0.0202 0.0236-0.10621 0.10027-0.125 0.125-0.0188 0.0247-0.0764 0.0992-0.0937 0.125s-0.078 0.12948-0.0937 0.15625c-0.0157 0.0268-0.0796 0.12859-0.0937 0.15625-0.0141 0.0277-0.05 0.12781-0.0625 0.15625-0.0125 0.0284-0.0517 0.12712-0.0625 0.15625-0.0108 0.0291-0.0535 0.12653-0.0625 0.15625-0.009 0.0297-0.024 0.12605-0.0312 0.15625-0.007 0.0302-0.0258 0.15693-0.0312 0.1875-0.005 0.0306-0.0276 0.12541-0.0312 0.15625-0.004 0.0308-0.0294 0.15649-0.0312 0.1875-0.002 0.031 0 0.12519 0 0.15625 0 0.0311-0.002 0.12524 0 0.15625 0.002 0.031 0.0276 0.15666 0.0312 0.1875 0.004 0.0308 0.0258 0.12568 0.0312 0.15625 0.005 0.0306 0.024 0.1573 0.0312 0.1875 0.007 0.0302 0.0222 0.12653 0.0312 0.15625 0.009 0.0297 0.0517 0.12712 0.0625 0.15625 0.0108 0.0291 0.05 0.12781 0.0625 0.15625 0.0125 0.0284 0.0484 0.12859 0.0625 0.15625 0.0141 0.0277 0.078 0.12948 0.0937 0.15625 0.0157 0.0268 0.0764 0.13045 0.0937 0.15625s0.075 0.10027 0.0937 0.125c0.0188 0.0247 0.10478 0.10142 0.125 0.125 0.0202 0.0236 0.0722 0.10265 0.0937 0.125 0.0216 0.0223 0.10215 0.10397 0.125 0.125 0.0229 0.021 0.10094 0.10535 0.125 0.125 0.0241 0.0196 0.13108 0.0756 0.15625 0.0937 0 0 4.46 2.9688 10.5 3.9062-3.6108 4.9433-4.6562 10.219-4.6562 10.219a0.6587 0.6587 0 0 0 0 0.0312c-0.005 0.0309-0.0281 0.12509-0.0312 0.15625-0.003 0.0312 0.001 0.1562 0 0.1875s-0.00053 0.12493 0 0.15625c0.00053 0.0313-0.002 0.15627 0 0.1875 0.002 0.0312 0.027 0.12521 0.0312 0.15625 0.004 0.031 0.0252 0.15677 0.0312 0.1875 0.006 0.0307 0.0233 0.12594 0.0312 0.15625 0.008 0.0303 0.0528 0.12646 0.0625 0.15625 0.01 0.0298 0.0198 0.12709 0.0312 0.15625 0.0115 0.0292 0.0806 0.12783 0.0937 0.15625 0.0132 0.0284 0.0477 0.12866 0.0625 0.15625 0.0148 0.0276 0.0773 0.1296 0.0937 0.15625 0.0165 0.0267 0.0757 0.13062 0.0937 0.15625 0.018 0.0256 0.0742 0.10049 0.0937 0.125 0.0195 0.0245 0.10407 0.1017 0.125 0.125 0.0209 0.0233 0.10272 0.10298 0.125 0.125 0.0223 0.022 0.10144 0.10435 0.125 0.125 0.0236 0.0207 0.10026 0.10579 0.125 0.125 0.0247 0.0192 0.0992 0.0761 0.125 0.0937 0.0258 0.0177 0.1294 0.0776 0.15625 0.0937 0.0268 0.0161 0.12849 0.0792 0.15625 0.0937 0.0278 0.0145 0.12767 0.0497 0.15625 0.0625 0.0286 0.0128 0.12696 0.0514 0.15625 0.0625 0.0293 0.0111 0.12635 0.0532 0.15625 0.0625 0.0299 0.009 0.12585 0.0237 0.15625 0.0312 0.0304 0.008 0.1567 0.0568 0.1875 0.0625 0.0308 0.006 0.12516-0.004 0.15625 0 0.0311 0.004 0.15624 0.0292 0.1875 0.0312 0.0313 0.002 0.12492-0.00016 0.15625 0 0.0313 0.00016 0.15622 0.002 0.1875 0 0.0313-0.002 0.12513 0.004 0.15625 0 0.0311-0.004 0.15665-0.0258 0.1875-0.0312 0 0 5.2472-1.0507 10.188-4.6562 0.94491 6.042 3.9375 10.5 3.9375 10.5 0.0182 0.0252 0.0741 0.13219 0.0937 0.15625 0.0197 0.0241 0.10397 0.10215 0.125 0.125 0.021 0.0228 0.10265 0.10343 0.125 0.125 0.0223 0.0216 0.10142 0.0735 0.125 0.0937 0.0236 0.0202 0.10027 0.10621 0.125 0.125 0.0247 0.0188 0.0992 0.0765 0.125 0.0937 0.0258 0.0173 0.12948 0.078 0.15625 0.0937 0.0268 0.0157 0.12859 0.0796 0.15625 0.0937 0.0277 0.0141 0.12781 0.05 0.15625 0.0625 0.0284 0.0125 0.12712 0.0517 0.15625 0.0625 0.0291 0.0108 0.12653 0.0535 0.15625 0.0625 0.0297 0.009 0.12605 0.024 0.15625 0.0312 0.0302 0.007 0.15693 0.0258 0.1875 0.0312 0.0306 0.005 0.12541 0.0276 0.15625 0.0312 0.0308 0.004 0.15649 0.0294 0.1875 0.0312 0.031 0.002 0.12519 0 0.15625 0 0.0311 0 0.12524 0.002 0.15625 0 0.031-0.002 0.15666-0.0276 0.1875-0.0312 0.0308-0.004 0.12568-0.0258 0.15625-0.0312 0.0306-0.005 0.1573-0.024 0.1875-0.0312 0.0302-0.007 0.12653-0.0222 0.15625-0.0312 0.0297-0.009 0.12712-0.0517 0.15625-0.0625 0.0291-0.0108 0.12781-0.05 0.15625-0.0625 0.0284-0.0125 0.12859-0.0484 0.15625-0.0625 0.0277-0.0141 0.12948-0.078 0.15625-0.0937 0.0268-0.0157 0.13045-0.0765 0.15625-0.0937 0.0258-0.0173 0.10027-0.075 0.125-0.0937 0.0247-0.0188 0.10142-0.10478 0.125-0.125 0.0236-0.0202 0.10265-0.0722 0.125-0.0937 0.0223-0.0216 0.10397-0.10215 0.125-0.125 0.021-0.0228 0.10535-0.10094 0.125-0.125 0.0197-0.0241 0.0756-0.13108 0.0937-0.15625 0 0 2.975-4.4792 3.9062-10.531 4.9506 3.6289 10.219 4.6875 10.219 4.6875 0.0311 0.006 0.15611 0.0276 0.1875 0.0312 0.0314 0.004 0.12469-0.002 0.15625 0 0.0316 0.002 0.15589 0.00013 0.1875 0 0.0316-0.00013 0.12471 0.002 0.15625 0 0.0315-0.002 0.15614-0.0273 0.1875-0.0312 0.0314-0.004 0.15643 0.006 0.1875 0 0.0311-0.006 0.12558-0.0548 0.15625-0.0625 0.0307-0.008 0.1261-0.0218 0.15625-0.0312 0.0301-0.009 0.15797-0.0512 0.1875-0.0625 0.0295-0.0113 0.12745-0.0495 0.15625-0.0625s0.12829-0.0478 0.15625-0.0625c0.028-0.0147 0.12922-0.0774 0.15625-0.0937 0.027-0.0164 0.099-0.0758 0.125-0.0937 0.026-0.018 0.13138-0.10549 0.15625-0.125 0.0249-0.0195 0.10135-0.0728 0.125-0.0937 0.0237-0.021 0.10265-0.10265 0.125-0.125 0.0223-0.0223 0.10403-0.10135 0.125-0.125 0.021-0.0236 0.0742-0.10013 0.0937-0.125 0.0195-0.0249 0.10702-0.13025 0.125-0.15625 0.018-0.026 0.0774-0.098 0.0937-0.125 0.0164-0.027 0.079-0.12829 0.0937-0.15625 0.0147-0.028 0.0495-0.12745 0.0625-0.15625s0.0512-0.12672 0.0625-0.15625c0.0113-0.0295 0.053-0.15735 0.0625-0.1875 0.009-0.0302 0.0236-0.12558 0.0312-0.15625 0.008-0.0307 0.0567-0.12518 0.0625-0.15625 0.006-0.0311-0.004-0.15614 0-0.1875 0.004-0.0314 0.0292-0.15596 0.0312-0.1875 0.002-0.0315-0.00013-0.12464 0-0.15625 0.00013-0.0316 0.002-0.15594 0-0.1875-0.002-0.0316 0.004-0.12486 0-0.15625-0.004-0.0314-0.0257-0.15638-0.0312-0.1875 0 0-1.0707-5.2509-4.6875-10.188 6.0456-0.93686 10.531-3.9062 10.531-3.9062 0.0252-0.0182 0.13219-0.0741 0.15625-0.0937 0.0241-0.0196 0.10215-0.10397 0.125-0.125 0.0229-0.021 0.10343-0.10265 0.125-0.125 0.0216-0.0223 0.0735-0.10142 0.0937-0.125 0.0202-0.0236 0.10621-0.10027 0.125-0.125 0.0188-0.0247 0.0764-0.0992 0.0937-0.125s0.078-0.12948 0.0937-0.15625c0.0157-0.0268 0.0796-0.12859 0.0937-0.15625 0.0141-0.0277 0.05-0.12781 0.0625-0.15625 0.0125-0.0284 0.0517-0.12712 0.0625-0.15625 0.0108-0.0291 0.0535-0.12653 0.0625-0.15625 0.009-0.0297 0.024-0.12605 0.0312-0.15625 0.007-0.0302 0.0258-0.15693 0.0312-0.1875 0.005-0.0306 0.0276-0.12541 0.0312-0.15625 0.004-0.0308 0.0294-0.15649 0.0312-0.1875 0.002-0.031 0-0.12519 0-0.15625 0-0.0311 0.002-0.12524 0-0.15625-0.002-0.031-0.0276-0.15666-0.0312-0.1875-0.004-0.0308-0.0258-0.12568-0.0312-0.15625-0.005-0.0306-0.024-0.1573-0.0312-0.1875-0.007-0.0302-0.0222-0.12653-0.0312-0.15625-0.009-0.0297-0.0517-0.12712-0.0625-0.15625-0.0108-0.0291-0.05-0.12781-0.0625-0.15625-0.0125-0.0284-0.0484-0.12859-0.0625-0.15625-0.0141-0.0277-0.078-0.12948-0.0937-0.15625-0.0157-0.0268-0.0764-0.13045-0.0937-0.15625s-0.075-0.10027-0.0937-0.125c-0.0188-0.0247-0.10478-0.10142-0.125-0.125-0.0202-0.0236-0.0722-0.10265-0.0937-0.125-0.0216-0.0223-0.10215-0.10397-0.125-0.125-0.0229-0.021-0.10094-0.10535-0.125-0.125-0.0241-0.0196-0.13108-0.0756-0.15625-0.0937 0 0-4.4799-2.9931-10.531-3.9375 3.6167-4.9366 4.6875-10.188 4.6875-10.188 0.006-0.0311 0.0276-0.15611 0.0312-0.1875 0.004-0.0314-0.002-0.12469 0-0.15625 0.002-0.0316 0.00013-0.15589 0-0.1875-0.00013-0.0316 0.002-0.12471 0-0.15625-0.002-0.0315-0.0273-0.15614-0.0312-0.1875-0.004-0.0314 0.006-0.15643 0-0.1875-0.006-0.0311-0.0548-0.12558-0.0625-0.15625-0.008-0.0307-0.0218-0.1261-0.0312-0.15625-0.009-0.0302-0.0512-0.15797-0.0625-0.1875-0.0113-0.0295-0.0495-0.12745-0.0625-0.15625s-0.0478-0.12829-0.0625-0.15625c-0.0147-0.028-0.0774-0.12922-0.0937-0.15625-0.0164-0.027-0.0758-0.099-0.0937-0.125-0.018-0.026-0.10549-0.13138-0.125-0.15625-0.0195-0.0249-0.0728-0.10135-0.0937-0.125-0.021-0.0236-0.10265-0.10265-0.125-0.125-0.0223-0.0223-0.10135-0.10403-0.125-0.125-0.0237-0.021-0.10013-0.0742-0.125-0.0937-0.0249-0.0195-0.13025-0.10702-0.15625-0.125-0.026-0.018-0.098-0.0774-0.125-0.0937-0.027-0.0164-0.12829-0.079-0.15625-0.0937-0.028-0.0147-0.12745-0.0495-0.15625-0.0625s-0.12672-0.0512-0.15625-0.0625c-0.0295-0.0113-0.15735-0.053-0.1875-0.0625-0.0301-0.009-0.12558-0.0236-0.15625-0.0312-0.0307-0.008-0.12518-0.0567-0.15625-0.0625-0.0311-0.006-0.15614 0.004-0.1875 0-0.0314-0.004-0.15596-0.0292-0.1875-0.0312-0.0315-0.002-0.12464 0.00013-0.15625 0-0.0316-0.00013-0.15594-0.002-0.1875 0-0.0316 0.002-0.12486-0.004-0.15625 0-0.0314 0.004-0.15638 0.0257-0.1875 0.0312 0 0-5.2682 1.0585-10.219 4.6875-0.93423-6.0408-3.9062-10.5-3.9062-10.5-0.0191-0.0269-0.073-0.1306-0.0937-0.15625-0.0208-0.0257-0.10266-0.10071-0.125-0.125-0.0223-0.0243-0.10118-0.10216-0.125-0.125-0.0238-0.0228-0.13104-0.1037-0.15625-0.125-0.0252-0.0213-0.0985-0.10532-0.125-0.125-0.0265-0.0197-0.12857-0.0758-0.15625-0.0937-0.0277-0.018-0.1275-0.0775-0.15625-0.0937-0.0288-0.0162-0.12654-0.0794-0.15625-0.0937-0.0297-0.0144-0.1257-0.05-0.15625-0.0625-0.0306-0.0125-0.15623-0.052-0.1875-0.0625-0.0313-0.0105-0.12438-0.0539-0.15625-0.0625-0.0319-0.009-0.15515-0.0247-0.1875-0.0312-0.0324-0.007-0.1548-0.0267-0.1875-0.0312-0.0327-0.005-0.12334-0.0288-0.15625-0.0312-0.0329-0.002-0.1545 0.00037-0.1875 0s-0.15454-0.002-0.1875 0a0.6587 0.6587 0 0 0 -0.0312 0z" fill="#f9f9f9" color="#000000" opacity="0.2" transform="matrix(1.4427 0 0 1.4468 -218.12 -1004.8)"/>
   <use xlink:href="#SVGCleanerId_9" clip-path="url(#clipPath3983)" fill="url(#linearGradient246705)" color="#000000" transform="matrix(1.4427 0 0 1.4468 -218.12 -1004.8)"/>
   <path d="m53.57 30.685c0 9.5849-5.5699 17.355-5.5699 17.355s-5.5699-7.7701-5.5699-17.355 5.5699-17.355 5.5699-17.355 5.5699 7.7701 5.5699 17.355z" fill="#d5be00" color="#000000"/>
   <use xlink:href="#SVGCleanerId_8" clip-path="url(#clipPath4169)" fill="#edd400" color="#000000" filter="url(#filter4149)" transform="matrix(0.43372 0 0 0.43379 -150.9 -266.85)"/>
   <path d="m53.57 65.331c0 9.5849-5.5699 17.355-5.5699 17.355s-5.5699-7.7701-5.5699-17.355 5.5699-17.355 5.5699-17.355 5.5699 7.7701 5.5699 17.355z" fill="#23446e" color="#000000"/>
   <path d="m65.295 53.59c-9.5699 0-17.328-5.5787-17.328-5.5787s7.7579-5.5787 17.328-5.5787c9.5699 0 17.328 5.5787 17.328 5.5787s-7.7579 5.5787-17.328 5.5787z" fill="#56aa07" color="#000000"/>
   <path d="m30.703 53.59c-9.5699 0-17.328-5.5787-17.328-5.5787s7.7579-5.5787 17.328-5.5787c9.5699 0 17.328 5.5787 17.328 5.5787s-7.7579 5.5787-17.328 5.5787z" fill="#ca0f0f" color="#000000"/>
   <path d="m64.168 39.703c-6.7668 6.7776-16.191 8.327-16.191 8.327s1.5472-9.4391 8.3141-16.217c6.7669-6.7776 16.191-8.3274 16.191-8.3274s-1.5472 9.4391-8.3141 16.217z" fill="#85b912" color="#000000"/>
   <use xlink:href="#SVGCleanerId_7" clip-path="url(#clipPath4145)" fill="#3465a4" color="#000000" filter="url(#filter4149)" transform="matrix(0.43372 0 0 0.43379 -120.54 -310.23)"/>
   <use xlink:href="#SVGCleanerId_6" clip-path="url(#clipPath4181)" fill="#ef2929" color="#000000" filter="url(#filter4137)" transform="matrix(0.43372 0 0 0.43379 -120.54 -249.5)"/>
   <path d="m39.708 64.205c-6.7668 6.7776-16.191 8.327-16.191 8.327s1.5472-9.4391 8.3141-16.217c6.7669-6.7776 16.191-8.3274 16.191-8.3274s-1.5472 9.4391-8.3141 16.217z" fill="#593d5e" color="#000000"/>
   <path d="m39.708 31.815c6.7668 6.7776 8.3141 16.217 8.3141 16.217s-9.4241-1.5496-16.191-8.327c-6.7678-6.7758-8.3151-16.215-8.3151-16.215s9.4241 1.5496 16.191 8.3274z" fill="#c96300" color="#000000"/>
   <use xlink:href="#SVGCleanerId_5" clip-path="url(#clipPath4197)" fill="#75507b" color="#000000" filter="url(#filter4161)" transform="matrix(0.43372 0 0 0.43379 -90.18 -266.85)"/>
   <path d="m64.168 56.313c6.7668 6.7776 8.3141 16.217 8.3141 16.217s-9.4241-1.5496-16.191-8.327c-6.7668-6.7776-8.3141-16.217-8.3141-16.217s9.4241 1.5496 16.191 8.3274z" fill="#3f7bba" color="#000000"/>
   <use xlink:href="#SVGCleanerId_4" clip-path="url(#clipPath4133)" fill="#65c808" color="#000000" filter="url(#filter4137)" transform="matrix(0.43372 0 0 0.43379 -168.25 -266.85)"/>
   <use xlink:href="#SVGCleanerId_3" clip-path="url(#clipPath4071)" fill="#afea2c" color="#000000" filter="url(#filter4161)" transform="matrix(0.43372 0 0 0.43379 -159.58 -266.85)"/>
   <use xlink:href="#SVGCleanerId_2" clip-path="url(#clipPath4083)" fill="#729fcf" color="#000000" filter="url(#filter4161)" transform="matrix(0.43372 0 0 0.43379 -159.58 -266.85)"/>
   <use xlink:href="#SVGCleanerId_1" clip-path="url(#clipPath4157)" fill="#f57900" color="#000000" filter="url(#filter4161)" transform="matrix(0.43372 0 0 0.43379 -77.17 -266.85)"/>
   <path d="m55.393 47.912c0 4.2686-3.4504 7.7289-7.7068 7.7289s-7.7068-3.4603-7.7068-7.7289 3.4504-7.7289 7.7068-7.7289 7.7068 3.4603 7.7068 7.7289z" fill="#fff" color="#000000" opacity="0.1"/>
   <path d="m64.27 47.816c0 9.1889-7.4276 16.638-16.591 16.638-9.1629 0-16.591-7.4487-16.591-16.638 0-9.1889 7.4276-16.638 16.591-16.638 9.1629 0 16.591 7.4487 16.591 16.638z" fill="#fff" color="#000000" opacity="0.1"/>
   <path d="m47.691 23c-1.4473 0-2.8597 0.13234-4.2392 0.37053-0.60268 2.2231-1.0244 4.6978-1.0244 7.3125 0 1.7576 0.18452 3.4578 0.49038 5.0566-0.91259-1.3475-1.9737-2.6802-3.2149-3.9232-1.8732-1.8761-3.9487-3.348-5.972-4.5007-2.5067 1.7122-4.6838 3.8713-6.4187 6.3643 1.1548 2.0407 2.6363 4.1373 4.5227 6.0264 1.2388 1.2408 2.5586 2.302 3.9016 3.2149-1.5928-0.305-3.2844-0.49038-5.035-0.49038-2.6705 0-5.195 0.44149-7.4541 1.068-0.25623 1.435-0.4032 2.9157-0.4032 4.4247 0 1.5778 0.15629 3.1133 0.43591 4.6099 2.2507 0.62158 4.764 1.0571 7.4213 1.0571 1.7465 0 3.4342-0.1866 5.0238-0.49039-1.3388 0.91113-2.6553 1.9777-3.8904 3.2149-1.8565 1.8594-3.3214 3.9183-4.4679 5.9284 1.7586 2.5057 3.9668 4.6667 6.5059 6.3752 1.9776-1.1405 4.0017-2.582 5.8304-4.4135 1.2411-1.2431 2.3023-2.5758 3.2149-3.9232-0.30588 1.5988-0.49038 3.299-0.49038 5.0566 0 2.5375 0.39598 4.9443 0.96989 7.1162 1.3968 0.2444 2.8272 0.38144 4.2936 0.38144 1.6889 0 3.3424-0.17926 4.9366-0.5013 0.55654-2.1403 0.93721-4.506 0.93721-6.9962 0-1.7576-0.1845-3.4577-0.49038-5.0566 0.9127 1.3477 1.9736 2.68 3.2149 3.9232 1.7257 1.7284 3.6212 3.1191 5.4925 4.2284 2.5864-1.7896 4.8223-4.0498 6.5715-6.6695-1.1023-1.8558-2.4762-3.7377-4.1848-5.4489-1.2352-1.2372-2.5626-2.3037-3.9016-3.2149 1.5928 0.305 3.2735 0.49038 5.0238 0.49038 2.4095 0 4.7044-0.35344 6.7894-0.88271 0.30132-1.5509 0.45771-3.1448 0.45771-4.7842 0-1.5704-0.14796-3.1091-0.42503-4.5991-2.0938-0.53405-4.3996-0.89362-6.8219-0.89362-1.7582 0-3.4467 0.183-5.0458 0.49039 1.3453-0.91402 2.6821-1.9718 3.9232-3.2149 1.7384-1.7411 3.1275-3.6599 4.2392-5.5469-1.724-2.6051-3.9225-4.8658-6.4731-6.6587-1.9205 1.124-3.8723 2.5401-5.6453 4.3155-1.2413 1.2432-2.3022 2.5756-3.2149 3.9232 0.30591-1.5989 0.49039-3.299 0.49039-5.0566 0-2.5675-0.40659-5.0005-0.99172-7.1926-1.5776-0.31501-3.2124-0.49039-4.8822-0.49039z" fill="#fff" color="#000000" opacity="0.1"/>
  </g>
 </g>
</svg>
