<?xml version="1.0" encoding="UTF-8" standalone="no"?>
<svg
   xmlns:dc="http://purl.org/dc/elements/1.1/"
   xmlns:cc="http://creativecommons.org/ns#"
   xmlns:rdf="http://www.w3.org/1999/02/22-rdf-syntax-ns#"
   xmlns:svg="http://www.w3.org/2000/svg"
   xmlns="http://www.w3.org/2000/svg"
   xmlns:xlink="http://www.w3.org/1999/xlink"
   xmlns:sodipodi="http://sodipodi.sourceforge.net/DTD/sodipodi-0.dtd"
   xmlns:inkscape="http://www.inkscape.org/namespaces/inkscape"
   height="96"
   width="96"
   id="svg1269"
   version="1.1"
   inkscape:version="0.91 r13725"
   sodipodi:docname="gnome-window-manager.svg">
  <metadata
     id="metadata1405">
    <rdf:RDF>
      <cc:Work
         rdf:about="">
        <dc:format>image/svg+xml</dc:format>
        <dc:type
           rdf:resource="http://purl.org/dc/dcmitype/StillImage" />
      </cc:Work>
    </rdf:RDF>
  </metadata>
  <sodipodi:namedview
     pagecolor="#ffffff"
     bordercolor="#666666"
     borderopacity="1"
     objecttolerance="10"
     gridtolerance="10"
     guidetolerance="10"
     inkscape:pageopacity="0"
     inkscape:pageshadow="2"
     inkscape:window-width="640"
     inkscape:window-height="480"
     id="namedview1403"
     showgrid="false"
     inkscape:zoom="2.4583333"
     inkscape:cx="48"
     inkscape:cy="21.332007"
     inkscape:current-layer="svg1269" />
  <defs
     id="defs1271">
    <radialGradient
       cy="-15.871"
       r="35.938"
       gradientUnits="userSpaceOnUse"
       id="radialGradient63341"
       cx="56.07"
       gradientTransform="matrix(-0.00295,1.6285,1.8072,0,75.56,-74.12)">
      <stop
         stop-color="#4490e6"
         id="stop1274" />
      <stop
         stop-color="#103d8f"
         offset="1"
         id="stop1276" />
    </radialGradient>
    <linearGradient
       x1="96.88"
       x2="113.06"
       gradientUnits="userSpaceOnUse"
       id="linearGradient63543"
       gradientTransform="matrix(0.30345,0.30345,-0.30345,0.30345,36.857,950.29)">
      <stop
         stop-color="#333"
         id="stop1279" />
      <stop
         stop-color="#515151"
         offset="1"
         id="stop1281" />
    </linearGradient>
    <linearGradient
       x2="0"
       y1="27"
       y2="80"
       gradientUnits="userSpaceOnUse"
       id="linearGradient63573"
       gradientTransform="matrix(1,0,0,0.81223,-8.447,969.78)">
      <stop
         stop-color="#888"
         id="stop1284" />
      <stop
         stop-color="#acacac"
         offset="1"
         id="stop1286" />
    </linearGradient>
    <linearGradient
       x2="0"
       y1="6"
       y2="63.893"
       gradientUnits="userSpaceOnUse"
       id="linearGradient63577"
       gradientTransform="translate(-8.447,964.71)">
      <stop
         stop-color="#fff"
         id="stop1289" />
      <stop
         stop-color="#fff"
         stop-opacity="0"
         offset="1"
         id="stop1291" />
    </linearGradient>
    <linearGradient
       x2="0"
       y1="90"
       y2="5.988"
       gradientUnits="userSpaceOnUse"
       id="linearGradient63580"
       gradientTransform="translate(-8.447,966.71)">
      <stop
         stop-color="#c8c8c8"
         id="stop1294" />
      <stop
         stop-color="#c8c8c8"
         offset="0.791"
         id="stop1296" />
      <stop
         stop-color="#dadada"
         offset="0.915"
         id="stop1298" />
      <stop
         stop-color="#f0f0f0"
         offset="1"
         id="stop1300" />
    </linearGradient>
    <clipPath
       clipPathUnits="userSpaceOnUse"
       id="clipPath63619">
      <path
         d="m17.75 961.77c-6.6418 0-11.969 5.3945-11.969 12.062v61.031c0 6.6681 5.327 12.031 11.969 12.031h60.812c6.6418 0 11.969-5.3632 11.969-12.031v-61.031c0-6.668-5.327-12.062-11.969-12.062h-60.812z"
         id="path1303" />
    </clipPath>
    <path
       d="m19.026 14.95c-0.000004 0.25521-0.04427 0.48568-0.13281 0.69141-0.08594 0.20313-0.21354 0.3776-0.38281 0.52344-0.16667 0.14323-0.3724 0.25391-0.61719 0.33203-0.24219 0.07813-0.52084 0.11719-0.83594 0.11719-0.27604 0-0.54297-0.02865-0.80078-0.08594-0.25521-0.05729-0.49219-0.14323-0.71094-0.25781v-1.125c0.125 0.0599 0.2513 0.11849 0.37891 0.17578 0.1276 0.05469 0.25651 0.10417 0.38672 0.14844 0.13281 0.04427 0.26432 0.07943 0.39453 0.10547 0.13281 0.02604 0.26432 0.03906 0.39453 0.03906 0.13281 0.000001 0.24609-0.01432 0.33984-0.04297 0.09635-0.03125 0.17318-0.07292 0.23047-0.125 0.05989-0.05469 0.10286-0.11849 0.12891-0.19141 0.02864-0.07552 0.04297-0.15755 0.04297-0.24609-0.000002-0.10677-0.02344-0.20052-0.07031-0.28125-0.04427-0.08333-0.10808-0.16015-0.19141-0.23047-0.08073-0.07292-0.17969-0.14323-0.29688-0.21094-0.11458-0.06771-0.24349-0.13932-0.38672-0.21484-0.11979-0.0625-0.25391-0.13802-0.40234-0.22656-0.14844-0.08854-0.28906-0.19791-0.42188-0.32812-0.13021-0.13281-0.23958-0.29166-0.32812-0.47656-0.08854-0.1875-0.13281-0.41145-0.13281-0.67188 0-0.2552 0.04167-0.48307 0.125-0.68359 0.08594-0.20312 0.20703-0.37369 0.36328-0.51172 0.15625-0.14062 0.34505-0.24739 0.56641-0.32031 0.22396-0.07291 0.47396-0.10937 0.75-0.10938 0.13802 0.000006 0.27213 0.0091 0.40234 0.02734 0.13281 0.01824 0.26302 0.04428 0.39062 0.07813 0.1302 0.03386 0.26041 0.07553 0.39062 0.125 0.1302 0.04949 0.26432 0.10678 0.40234 0.17188l-0.39062 0.94141c-0.11719-0.05468-0.22656-0.10286-0.32812-0.14453-0.10156-0.04166-0.20052-0.07682-0.29688-0.10547-0.09636-0.02864-0.19141-0.04947-0.28516-0.0625-0.09115-0.01562-0.1836-0.02343-0.27734-0.02344-0.20313 0.000005-0.35938 0.05469-0.46875 0.16406-0.10677 0.10678-0.16016 0.25-0.16016 0.42969-0.000001 0.09636 0.01562 0.1823 0.04687 0.25781 0.03385 0.07292 0.08594 0.14193 0.15625 0.20703 0.07292 0.06511 0.16536 0.13151 0.27734 0.19922 0.11458 0.06771 0.2526 0.14454 0.41406 0.23047 0.19531 0.10417 0.375 0.21094 0.53906 0.32031 0.16406 0.10677 0.30468 0.22656 0.42188 0.35938 0.11979 0.13021 0.21224 0.27865 0.27734 0.44531 0.0651 0.16667 0.09765 0.36198 0.09766 0.58594"
       id="SVGCleanerId_1" />
    <path
       d="m19.366 12.169h1.3047l0.70312 2.457c0.04167 0.13542 0.07161 0.27995 0.08984 0.43359 0.02083 0.15365 0.03385 0.29167 0.03906 0.41406h0.02344c0.0052-0.05989 0.01172-0.1263 0.01953-0.19922 0.01042-0.07292 0.02213-0.14713 0.03516-0.22266 0.01302-0.07552 0.02734-0.14974 0.04297-0.22266 0.01823-0.07552 0.03646-0.14323 0.05469-0.20312l0.6875-2.457h1.3125l-1.7266 4.9258c-0.16146 0.46094-0.38151 0.80338-0.66016 1.0273-0.27865 0.22396-0.6276 0.33594-1.0469 0.33594-0.13542-0.000002-0.2526-0.0078-0.35156-0.02344-0.09896-0.01302-0.18359-0.02735-0.25391-0.04297v-0.94531c0.05469 0.01302 0.1237 0.02474 0.20703 0.03516 0.08333 0.01041 0.17057 0.01562 0.26172 0.01563 0.125-0.000001 0.23177-0.01693 0.32031-0.05078s0.16406-0.08203 0.22656-0.14453c0.0651-0.0599 0.11979-0.13281 0.16406-0.21875 0.04687-0.08594 0.08724-0.18229 0.12109-0.28906l0.07422-0.21875-1.6484-4.4062"
       id="SVGCleanerId_2" />
    <path
       d="m27.214 15.239c-0.000004 0.22917-0.04167 0.42969-0.125 0.60156-0.08334 0.17188-0.20183 0.3151-0.35547 0.42969-0.15365 0.11458-0.33985 0.20052-0.55859 0.25781-0.21875 0.05729-0.46354 0.08594-0.73438 0.08594-0.14323 0-0.27604-0.0052-0.39844-0.01563-0.1224-0.0078-0.23828-0.02214-0.34766-0.04297s-0.21484-0.04687-0.31641-0.07813c-0.10156-0.03125-0.20443-0.07031-0.30859-0.11719v-0.98438c0.10937 0.05469 0.22396 0.10417 0.34375 0.14844 0.1224 0.04427 0.24349 0.08333 0.36328 0.11719 0.11979 0.03125 0.23568 0.05599 0.34766 0.07422 0.11458 0.01823 0.22005 0.02734 0.31641 0.02734 0.10677 0.000001 0.19792-0.0091 0.27344-0.02734 0.07552-0.02083 0.13672-0.04818 0.18359-0.08203 0.04948-0.03646 0.08463-0.07812 0.10547-0.125 0.02344-0.04948 0.03515-0.10156 0.03516-0.15625-0.000003-0.05469-0.0091-0.10286-0.02734-0.14453-0.01563-0.04427-0.05339-0.08984-0.11328-0.13672-0.0599-0.04948-0.14844-0.10416-0.26562-0.16406-0.11458-0.0625-0.26953-0.13802-0.46484-0.22656-0.1901-0.08593-0.35547-0.17057-0.49609-0.25391-0.13802-0.08593-0.2526-0.18099-0.34375-0.28516-0.08854-0.10416-0.15495-0.22265-0.19922-0.35547-0.04427-0.13541-0.06641-0.29557-0.06641-0.48047 0-0.20312 0.03906-0.3802 0.11719-0.53125 0.07812-0.15364 0.1888-0.28125 0.33203-0.38281s0.3151-0.17708 0.51562-0.22656c0.20312-0.05208 0.42838-0.07812 0.67578-0.07813 0.26042 0.000005 0.50781 0.02995 0.74219 0.08984 0.23437 0.0599 0.47526 0.14974 0.72266 0.26953l-0.35938 0.84375c-0.19792-0.09375-0.38672-0.17057-0.56641-0.23047-0.17969-0.05989-0.35938-0.08984-0.53906-0.08984-0.16146 0.000004-0.27865 0.02865-0.35156 0.08594-0.07031 0.0573-0.10547 0.13542-0.10547 0.23438-0.000002 0.05209 0.0091 0.09896 0.02734 0.14062 0.01823 0.03907 0.05469 0.08073 0.10938 0.125 0.05468 0.04167 0.13151 0.08854 0.23047 0.14062 0.09896 0.04948 0.22786 0.11068 0.38672 0.18359 0.18489 0.08073 0.35156 0.16146 0.5 0.24219 0.14844 0.07813 0.27604 0.16797 0.38281 0.26953s0.1888 0.22005 0.24609 0.35547 0.08593 0.29948 0.08594 0.49219"
       id="SVGCleanerId_3" />
    <path
       d="m29.921 15.665c0.11718 0.000001 0.22786-0.01302 0.33203-0.03906 0.10677-0.02604 0.21484-0.05859 0.32422-0.09766v0.88672c-0.11198 0.05729-0.2513 0.10417-0.41797 0.14062-0.16406 0.03906-0.34375 0.05859-0.53906 0.05859-0.19011 0-0.36719-0.02214-0.53125-0.06641s-0.30599-0.12109-0.42578-0.23047c-0.11979-0.11198-0.21484-0.26042-0.28516-0.44531-0.06771-0.1875-0.10156-0.42187-0.10156-0.70312v-2.1055h-0.57031v-0.50391l0.65625-0.39844 0.34375-0.92188h0.76172v0.92969h1.0625v0.89453h-1.0625v2.1055c-0.000002 0.16927 0.04167 0.29427 0.125 0.375s0.19271 0.12109 0.32812 0.12109"
       id="SVGCleanerId_4" />
    <path
       d="m33.225 12.934c-0.21094 0.000003-0.38672 0.07422-0.52734 0.22266-0.13802 0.14844-0.21745 0.38151-0.23828 0.69922h1.5195c-0.0026-0.13281-0.01953-0.25521-0.05078-0.36719s-0.07813-0.20833-0.14062-0.28906c-0.0625-0.08333-0.14063-0.14843-0.23438-0.19531-0.09375-0.04687-0.20313-0.07031-0.32812-0.07031m0.15234 3.6797c-0.3125 0-0.60026-0.04557-0.86328-0.13672-0.26302-0.09114-0.48958-0.22786-0.67969-0.41016-0.1901-0.1849-0.33854-0.41667-0.44531-0.69531-0.10417-0.28125-0.15625-0.61068-0.15625-0.98828 0-0.38281 0.04818-0.71744 0.14453-1.0039s0.23047-0.52474 0.40234-0.71484c0.17448-0.1927 0.38281-0.33724 0.625-0.43359 0.24479-0.09635 0.51562-0.14453 0.8125-0.14453 0.28906 0.000005 0.54948 0.04428 0.78125 0.13281 0.23437 0.08594 0.43229 0.21355 0.59375 0.38281 0.16406 0.16928 0.28906 0.37761 0.375 0.625 0.08854 0.2448 0.13281 0.52604 0.13281 0.84375v0.57812h-2.6641c0.0052 0.16667 0.03125 0.31771 0.07813 0.45312 0.04948 0.13281 0.11719 0.2461 0.20312 0.33984 0.08854 0.09115 0.19401 0.16146 0.31641 0.21094 0.125 0.04948 0.26692 0.07422 0.42578 0.07422 0.13281 0.000001 0.25781-0.0065 0.375-0.01953 0.11979-0.01562 0.23567-0.03776 0.34766-0.06641 0.11198-0.02865 0.22265-0.0638 0.33203-0.10547 0.10937-0.04427 0.22135-0.09505 0.33594-0.15234v0.92188c-0.10417 0.05469-0.20964 0.10156-0.31641 0.14062-0.10417 0.03646-0.21485 0.06771-0.33203 0.09375-0.11719 0.02604-0.24349 0.04427-0.37891 0.05469-0.13542 0.01302-0.28386 0.01953-0.44531 0.01953"
       id="SVGCleanerId_5" />
    <path
       d="m39.866 16.536h-1.1914v-2.5508c-0.000003-0.3151-0.04688-0.55078-0.14062-0.70703-0.09375-0.15885-0.24089-0.23828-0.44141-0.23828-0.15104 0.000004-0.27735 0.03125-0.37891 0.09375-0.09896 0.0625-0.17839 0.15495-0.23828 0.27734-0.0599 0.1224-0.10287 0.27344-0.12891 0.45312-0.02604 0.17969-0.03906 0.38542-0.03906 0.61719v2.0547h-1.1914v-4.3672h0.91016l0.16016 0.55859h0.06641c0.0625-0.11198 0.13672-0.20833 0.22266-0.28906 0.08854-0.08073 0.18489-0.14713 0.28906-0.19922 0.10416-0.05208 0.21484-0.08984 0.33203-0.11328 0.11718-0.02604 0.23568-0.03906 0.35547-0.03906 0.29948 0.000005 0.55338 0.05209 0.76172 0.15625 0.21093 0.10157 0.37239 0.26302 0.48438 0.48438h0.09766c0.0625-0.11198 0.13802-0.20833 0.22656-0.28906s0.18619-0.14713 0.29297-0.19922c0.10677-0.05208 0.21874-0.08984 0.33594-0.11328 0.11979-0.02604 0.23958-0.03906 0.35938-0.03906 0.46874 0.000005 0.82161 0.12761 1.0586 0.38281 0.23958 0.25261 0.35937 0.65886 0.35938 1.2188v2.8477h-1.1953v-2.5508c-0.000005-0.3151-0.04688-0.55078-0.14062-0.70703-0.09376-0.15885-0.24089-0.23828-0.44141-0.23828-0.28386 0.000004-0.48568 0.11328-0.60547 0.33984-0.1198 0.22396-0.17969 0.54558-0.17969 0.96484v2.1914"
       id="SVGCleanerId_6" />
    <path
       d="m49.061 16.536-0.33594-1.5273c-0.01042-0.04427-0.02474-0.10677-0.04297-0.1875-0.01563-0.08333-0.03386-0.17578-0.05469-0.27734-0.02084-0.10416-0.04297-0.21354-0.06641-0.32812-0.02084-0.11718-0.04297-0.23307-0.06641-0.34766-0.05209-0.26823-0.10938-0.55729-0.17188-0.86719h-0.02344c-0.0599 0.3099-0.11459 0.60026-0.16406 0.87109-0.02084 0.11459-0.04297 0.23047-0.06641 0.34766-0.02084 0.11719-0.04167 0.22787-0.0625 0.33203-0.02084 0.10156-0.04037 0.19401-0.05859 0.27734-0.01563 0.08333-0.02865 0.14844-0.03906 0.19531l-0.35156 1.5117h-1.2812l-1.1758-4.3672h1.1836l0.44141 1.9336c0.02344 0.10156 0.04687 0.22396 0.07031 0.36719 0.02604 0.14063 0.04948 0.28386 0.07031 0.42969 0.02343 0.14323 0.04427 0.27995 0.0625 0.41016 0.01823 0.1276 0.03255 0.22917 0.04297 0.30469h0.02344c0.0026-0.04948 0.0078-0.11328 0.01563-0.19141 0.01042-0.08073 0.02213-0.16666 0.03516-0.25781 0.01302-0.09114 0.02604-0.18359 0.03906-0.27734 0.01562-0.09635 0.02995-0.1862 0.04297-0.26953 0.01562-0.08333 0.02864-0.15625 0.03906-0.21875 0.01302-0.0651 0.02343-0.11067 0.03125-0.13672l0.47656-2.0938h1.3125l0.45703 2.0938c0.01302 0.05729 0.02994 0.14584 0.05078 0.26562 0.02083 0.11979 0.04166 0.2487 0.0625 0.38672 0.02343 0.13542 0.04296 0.26823 0.05859 0.39844 0.01562 0.1276 0.02473 0.22787 0.02734 0.30078h0.02344c0.0078-0.0651 0.02083-0.16146 0.03906-0.28906 0.02083-0.1276 0.04297-0.26432 0.06641-0.41016 0.02343-0.14844 0.04817-0.29557 0.07422-0.44141 0.02864-0.14583 0.05468-0.26953 0.07813-0.37109l0.45703-1.9336h1.168l-1.1914 4.3672h-1.2969"
       id="SVGCleanerId_7" />
    <path
       d="m52.128 11.04c0-0.11197 0.01693-0.20442 0.05078-0.27734 0.03385-0.07551 0.07943-0.13541 0.13672-0.17969 0.0599-0.04687 0.12891-0.07942 0.20703-0.09766 0.08073-0.01822 0.16536-0.02734 0.25391-0.02734 0.08854 0.000006 0.17187 0.0091 0.25 0.02734 0.07812 0.01823 0.14583 0.05079 0.20312 0.09766 0.05989 0.04428 0.10677 0.10417 0.14062 0.17969 0.03646 0.07292 0.05469 0.16537 0.05469 0.27734-0.000001 0.10938-0.01823 0.20183-0.05469 0.27734-0.03386 0.07553-0.08073 0.13672-0.14062 0.18359-0.05729 0.04428-0.125 0.07683-0.20312 0.09766-0.07813 0.01823-0.16146 0.02735-0.25 0.02734-0.08854 0.000005-0.17318-0.0091-0.25391-0.02734-0.07813-0.02083-0.14714-0.05338-0.20703-0.09766-0.05729-0.04687-0.10286-0.10807-0.13672-0.18359-0.03385-0.07551-0.05078-0.16796-0.05078-0.27734m1.2422 5.4961h-1.1914v-4.3672h1.1914v4.3672"
       id="SVGCleanerId_8" />
    <path
       d="m58.405 16.536h-1.1914v-2.5508c-0.000003-0.3151-0.04818-0.55078-0.14453-0.70703-0.09375-0.15885-0.2448-0.23828-0.45312-0.23828-0.15625 0.000004-0.28646 0.03125-0.39062 0.09375-0.10417 0.0625-0.1875 0.15495-0.25 0.27734-0.0599 0.1224-0.10287 0.27344-0.12891 0.45312-0.02604 0.17969-0.03906 0.38542-0.03906 0.61719v2.0547h-1.1914v-4.3672h0.91016l0.16016 0.55859h0.06641c0.0625-0.11198 0.13802-0.20833 0.22656-0.28906 0.09114-0.08073 0.1901-0.14713 0.29688-0.19922 0.10677-0.05208 0.22005-0.08984 0.33984-0.11328 0.11979-0.02604 0.24218-0.03906 0.36719-0.03906 0.21354 0.000005 0.40755 0.03125 0.58203 0.09375 0.17448 0.0599 0.32422 0.15495 0.44922 0.28516s0.22135 0.29688 0.28906 0.5c0.0677 0.20052 0.10156 0.44141 0.10156 0.72266v2.8477"
       id="SVGCleanerId_9" />
    <path
       d="m60.917 16.614c-0.22396 0-0.42839-0.04818-0.61328-0.14453-0.1849-0.09635-0.34375-0.23828-0.47656-0.42578-0.13281-0.1901-0.23698-0.42578-0.3125-0.70703-0.07292-0.28125-0.10938-0.60677-0.10938-0.97656 0-0.375 0.03646-0.70312 0.10938-0.98438 0.07552-0.28385 0.18099-0.52083 0.31641-0.71094 0.13802-0.1927 0.30208-0.33724 0.49219-0.43359 0.1901-0.09635 0.39974-0.14453 0.62891-0.14453 0.14062 0.000005 0.26953 0.01693 0.38672 0.05078 0.11718 0.03125 0.22265 0.07683 0.31641 0.13672 0.09375 0.0573 0.17708 0.125 0.25 0.20312 0.07552 0.07553 0.14192 0.15886 0.19922 0.25h0.03906c-0.01563-0.10156-0.02995-0.20442-0.04297-0.30859-0.01302-0.08854-0.02474-0.18229-0.03516-0.28125-0.0078-0.10156-0.01172-0.19531-0.01172-0.28125v-1.3984h1.1914v6.0781h-0.91016l-0.23047-0.56641h-0.05078c-0.05469 0.08854-0.11719 0.17318-0.1875 0.25391-0.07032 0.07813-0.15235 0.14583-0.24609 0.20312-0.09115 0.05729-0.19532 0.10286-0.3125 0.13672-0.11459 0.03385-0.24479 0.05078-0.39062 0.05078m0.43359-0.94922c0.14062 0.000001 0.26041-0.02344 0.35938-0.07031 0.09896-0.04948 0.17838-0.1224 0.23828-0.21875 0.0625-0.09896 0.10807-0.22135 0.13672-0.36719 0.03125-0.14583 0.04817-0.3164 0.05078-0.51172v-0.12891c-0.000003-0.21094-0.01302-0.39843-0.03906-0.5625-0.02604-0.16406-0.06901-0.30078-0.12891-0.41016-0.0599-0.11198-0.14063-0.19661-0.24219-0.25391-0.10156-0.05729-0.22917-0.08593-0.38281-0.08594-0.25 0.000004-0.4336 0.11328-0.55078 0.33984-0.11719 0.22396-0.17578 0.55078-0.17578 0.98047-0.000002 0.42969 0.05859 0.75261 0.17578 0.96875 0.11979 0.21354 0.30599 0.32031 0.55859 0.32031"
       id="SVGCleanerId_10" />
    <path
       d="m65.483 14.344c-0.000001 0.4349 0.0612 0.76302 0.18359 0.98438 0.12239 0.21875 0.32161 0.32813 0.59766 0.32812 0.27344 0.000001 0.47135-0.11068 0.59375-0.33203 0.12239-0.22135 0.18359-0.54818 0.18359-0.98047-0.000003-0.43489-0.0612-0.75911-0.18359-0.97266-0.1224-0.21614-0.32292-0.32422-0.60156-0.32422-0.27344 0.000003-0.47136 0.10808-0.59375 0.32422-0.11979 0.21354-0.17969 0.53776-0.17969 0.97266m2.7734 0c-0.000005 0.36458-0.04688 0.6875-0.14062 0.96875-0.09115 0.28125-0.22396 0.51823-0.39844 0.71094-0.17188 0.19271-0.38282 0.33984-0.63281 0.44141-0.2474 0.09896-0.52604 0.14844-0.83594 0.14844-0.28906 0-0.55469-0.04948-0.79688-0.14844-0.24219-0.10156-0.45182-0.2487-0.62891-0.44141-0.17448-0.19271-0.3112-0.42969-0.41016-0.71094s-0.14844-0.60416-0.14844-0.96875c0-0.36198 0.04557-0.68359 0.13672-0.96484 0.09375-0.28125 0.22656-0.51692 0.39844-0.70703 0.17448-0.1927 0.38542-0.33854 0.63281-0.4375 0.24739-0.09895 0.52734-0.14843 0.83984-0.14844 0.28906 0.000005 0.55468 0.04948 0.79688 0.14844 0.24218 0.09896 0.45052 0.2448 0.625 0.4375 0.17708 0.19011 0.3151 0.42578 0.41406 0.70703 0.09895 0.28125 0.14843 0.60287 0.14844 0.96484"
       id="SVGCleanerId_11" />
    <path
       d="m72.624 16.536-0.33594-1.5273c-0.01042-0.04427-0.02474-0.10677-0.04297-0.1875-0.01563-0.08333-0.03386-0.17578-0.05469-0.27734-0.02084-0.10416-0.04297-0.21354-0.06641-0.32812-0.02084-0.11718-0.04297-0.23307-0.06641-0.34766-0.05209-0.26823-0.10938-0.55729-0.17188-0.86719h-0.02344c-0.0599 0.3099-0.11459 0.60026-0.16406 0.87109-0.02084 0.11459-0.04297 0.23047-0.06641 0.34766-0.02084 0.11719-0.04167 0.22787-0.0625 0.33203-0.02084 0.10156-0.04037 0.19401-0.05859 0.27734-0.01563 0.08333-0.02865 0.14844-0.03906 0.19531l-0.35156 1.5117h-1.2812l-1.1758-4.3672h1.1836l0.44141 1.9336c0.02344 0.10156 0.04687 0.22396 0.07031 0.36719 0.02604 0.14063 0.04948 0.28386 0.07031 0.42969 0.02343 0.14323 0.04427 0.27995 0.0625 0.41016 0.01823 0.1276 0.03255 0.22917 0.04297 0.30469h0.02344c0.0026-0.04948 0.0078-0.11328 0.01563-0.19141 0.01041-0.08073 0.02213-0.16666 0.03516-0.25781 0.01302-0.09114 0.02604-0.18359 0.03906-0.27734 0.01562-0.09635 0.02995-0.1862 0.04297-0.26953 0.01562-0.08333 0.02864-0.15625 0.03906-0.21875 0.01302-0.0651 0.02343-0.11067 0.03125-0.13672l0.47656-2.0938h1.3125l0.45703 2.0938c0.01302 0.05729 0.02994 0.14584 0.05078 0.26562 0.02083 0.11979 0.04166 0.2487 0.0625 0.38672 0.02343 0.13542 0.04296 0.26823 0.05859 0.39844 0.01562 0.1276 0.02473 0.22787 0.02734 0.30078h0.02344c0.0078-0.0651 0.02083-0.16146 0.03906-0.28906 0.02083-0.1276 0.04296-0.26432 0.06641-0.41016 0.02343-0.14844 0.04817-0.29557 0.07422-0.44141 0.02864-0.14583 0.05468-0.26953 0.07813-0.37109l0.45703-1.9336h1.168l-1.1914 4.3672h-1.2969"
       id="SVGCleanerId_12" />
    <linearGradient
       inkscape:collect="always"
       xlink:href="#linearGradient14231"
       id="linearGradient14237"
       x1="50.707542"
       y1="81.682442"
       x2="50.707542"
       y2="96.539803"
       gradientUnits="userSpaceOnUse" />
    <linearGradient
       inkscape:collect="always"
       id="linearGradient14231">
      <stop
         style="stop-color:#000000;stop-opacity:1;"
         offset="0"
         id="stop14233" />
      <stop
         style="stop-color:#000000;stop-opacity:0;"
         offset="1"
         id="stop14235" />
    </linearGradient>
    <linearGradient
       inkscape:collect="always"
       xlink:href="#linearGradient14239"
       id="linearGradient14245"
       x1="49.876652"
       y1="87.937508"
       x2="49.876652"
       y2="76.719681"
       gradientUnits="userSpaceOnUse" />
    <linearGradient
       inkscape:collect="always"
       id="linearGradient14239">
      <stop
         style="stop-color:#ffffff;stop-opacity:1;"
         offset="0"
         id="stop14241" />
      <stop
         style="stop-color:#ffffff;stop-opacity:0;"
         offset="1"
         id="stop14243" />
    </linearGradient>
  </defs>
  <rect
     style="fill-opacity:0.02000002"
     id="rect1319"
     width="89.620003"
     height="89.980003"
     y="2.9899757"
     rx="12.724"
     x="3.3529999" />
  <rect
     style="fill-opacity:0.03900003"
     id="rect1321"
     width="88.410004"
     height="88.760002"
     y="3.6000221"
     rx="12.552"
     x="3.9590001" />
  <rect
     style="fill-opacity:0.078"
     id="rect1323"
     width="87.199997"
     height="87.550003"
     y="4.2100072"
     rx="12.38"
     x="4.5640001" />
  <rect
     style="fill-opacity:0.15700001"
     id="rect1325"
     width="85.990997"
     height="86.330002"
     y="4.8199925"
     rx="12.208"
     x="5.1700001" />
  <path
     inkscape:connector-curvature="0"
     style="fill:url(#radialGradient63341)"
     id="path1327"
     d="m 17.75,5.4062 c -6.642,0 -11.969,5.3948 -11.969,12.063 l 2e-4,61.031 c 0,6.668 5.3268,12.031 11.969,12.031 l 60.812,0 c 6.642,0 11.969,-5.363 11.969,-12.031 l 0,-61.031 c 0,-6.668 -5.327,-12.063 -11.969,-12.063 l -60.812,2e-4 z" />
  <g
     id="g1329"
     clip-path="url(#clipPath63619)"
     transform="translate(0,-956.36)">
    <rect
       style="fill:#999999"
       id="rect1331"
       width="84.620003"
       height="84.779999"
       y="969.92999"
       ry="6.204"
       rx="6.04"
       x="-2.447" />
    <rect
       style="fill:url(#linearGradient63580)"
       id="rect1333"
       width="84"
       height="82"
       y="972.71002"
       rx="6"
       x="-2.447" />
    <path
       inkscape:connector-curvature="0"
       style="opacity:0.5;fill:url(#linearGradient63577)"
       id="path1335"
       d="m 3.5533,970.71 c -3.324,0 -6,2.676 -6,6 l 0,2 0,68 0,2 c 0,0.3347 0.0413,0.6507 0.0937,0.9687 0.0487,0.2956 0.097,0.5969 0.1875,0.875 0.01,0.03 0.0209,0.064 0.0313,0.094 0.0989,0.2877 0.23488,0.5474 0.375,0.8125 0.14459,0.2735 0.31562,0.5356 0.5,0.7812 0.18438,0.2457 0.37378,0.4735 0.59375,0.6875 0.43995,0.4281 0.94291,0.8145 1.5,1.0938 0.27854,0.1396 0.57347,0.2469 0.875,0.3437 -0.2562,-0.1002 -0.48671,-0.2363 -0.71875,-0.375 l -0.0313,0 c -0.0319,-0.019 -0.0623,-0.043 -0.0937,-0.063 -0.1204,-0.077 -0.23102,-0.1635 -0.34375,-0.25 -0.10617,-0.081 -0.21328,-0.1611 -0.3125,-0.25 -0.17793,-0.1614 -0.34746,-0.3454 -0.5,-0.5312 -0.10758,-0.1303 -0.21839,-0.2653 -0.3125,-0.4063 -0.0251,-0.038 -0.0384,-0.086 -0.0625,-0.125 -0.0648,-0.103 -0.13023,-0.2045 -0.1875,-0.3125 -0.10101,-0.1947 -0.20567,-0.4157 -0.28125,-0.625 -0.008,-0.022 -0.0236,-0.041 -0.0313,-0.063 -0.0318,-0.092 -0.0358,-0.1868 -0.0625,-0.2812 -0.0303,-0.1066 -0.0704,-0.2031 -0.0937,-0.3125 -0.0729,-0.3415 -0.125,-0.6982 -0.125,-1.0625 l 0,-2 0,-68 0,-2 c 0,-2.7818 2.2182,-5 5,-5 l 2,0 68,0 2,0 c 2.7818,0 5,2.2182 5,5 l 0,2 0,68 0,2 c 0,0.3643 -0.0521,0.721 -0.125,1.0625 -0.0442,0.2069 -0.0884,0.3976 -0.15625,0.5937 -0.008,0.022 -0.0233,0.041 -0.0313,0.063 -0.0627,0.1738 -0.13838,0.3675 -0.21875,0.5313 -0.0416,0.083 -0.079,0.1699 -0.125,0.25 -0.0546,0.097 -0.12677,0.1883 -0.1875,0.2812 -0.0941,0.141 -0.20492,0.276 -0.3125,0.4063 -0.14317,0.1744 -0.30314,0.347 -0.46875,0.5 -0.0112,0.01 -0.02,0.021 -0.0313,0.031 -0.13839,0.1256 -0.28509,0.2345 -0.4375,0.3438 -0.10257,0.073 -0.20432,0.1533 -0.3125,0.2187 l -0.0313,0 c -0.23204,0.1387 -0.46255,0.2748 -0.71875,0.375 0.30153,-0.097 0.59646,-0.2041 0.875,-0.3437 0.55709,-0.2793 1.06,-0.6657 1.5,-1.0938 0.21997,-0.214 0.40937,-0.4418 0.59375,-0.6875 0.18438,-0.2456 0.35541,-0.5077 0.5,-0.7812 0.14012,-0.2651 0.27613,-0.5248 0.375,-0.8125 0.0104,-0.031 0.0213,-0.063 0.0313,-0.094 0.0905,-0.2781 0.1388,-0.5794 0.1875,-0.875 0.0524,-0.318 0.0937,-0.634 0.0937,-0.9687 l 0,-2 0,-68 0,-2 c 0,-3.324 -2.676,-6 -6,-6 l -72,0 z" />
    <path
       style="color:#000000;fill:#cccccc"
       inkscape:connector-curvature="0"
       id="path1337"
       d="m 3.5533,970.71 c -3.324,0 -6,2.676 -6,6 l 0,8 84,0 0,-8 c 0,-3.324 -2.676,-6 -6,-6 z" />
    <rect
       style="color:#000000;opacity:0.98999999;fill:url(#linearGradient63573)"
       id="rect1339"
       width="74"
       height="45.48"
       y="991.71002"
       x="2.553" />
    <rect
       style="color:#000000;opacity:0.98999999;fill:#ffffff"
       id="rect1341"
       width="72"
       height="43.861"
       y="992.52002"
       x="3.553" />
    <g
       style="fill:#666666"
       id="g1343"
       transform="matrix(0.64183,0,0,0.64183,7.296,969.51)">
      <use
         height="100%"
         width="100%"
         y="0"
         x="0"
         id="use1345"
         xlink:href="#SVGCleanerId_1" />
      <use
         height="100%"
         width="100%"
         y="0"
         x="0"
         id="use1347"
         xlink:href="#SVGCleanerId_2" />
      <use
         height="100%"
         width="100%"
         y="0"
         x="0"
         id="use1349"
         xlink:href="#SVGCleanerId_3" />
      <use
         height="100%"
         width="100%"
         y="0"
         x="0"
         id="use1351"
         xlink:href="#SVGCleanerId_4" />
      <use
         height="100%"
         width="100%"
         y="0"
         x="0"
         id="use1353"
         xlink:href="#SVGCleanerId_5" />
      <use
         height="100%"
         width="100%"
         y="0"
         x="0"
         id="use1355"
         xlink:href="#SVGCleanerId_6" />
      <use
         height="100%"
         width="100%"
         y="0"
         x="0"
         id="use1357"
         xlink:href="#SVGCleanerId_7" />
      <use
         height="100%"
         width="100%"
         y="0"
         x="0"
         id="use1359"
         xlink:href="#SVGCleanerId_8" />
      <use
         height="100%"
         width="100%"
         y="0"
         x="0"
         id="use1361"
         xlink:href="#SVGCleanerId_9" />
      <use
         height="100%"
         width="100%"
         y="0"
         x="0"
         id="use1363"
         xlink:href="#SVGCleanerId_10" />
      <use
         height="100%"
         width="100%"
         y="0"
         x="0"
         id="use1365"
         xlink:href="#SVGCleanerId_11" />
      <use
         height="100%"
         width="100%"
         y="0"
         x="0"
         id="use1367"
         xlink:href="#SVGCleanerId_12" />
    </g>
    <g
       style="fill:#ffffff"
       id="g1369"
       transform="matrix(0.64183,0,0,0.64183,7.46,969.07)">
      <use
         height="100%"
         width="100%"
         y="0"
         x="0"
         id="use1371"
         xlink:href="#SVGCleanerId_1" />
      <use
         height="100%"
         width="100%"
         y="0"
         x="0"
         id="use1373"
         xlink:href="#SVGCleanerId_2" />
      <use
         height="100%"
         width="100%"
         y="0"
         x="0"
         id="use1375"
         xlink:href="#SVGCleanerId_3" />
      <use
         height="100%"
         width="100%"
         y="0"
         x="0"
         id="use1377"
         xlink:href="#SVGCleanerId_4" />
      <use
         height="100%"
         width="100%"
         y="0"
         x="0"
         id="use1379"
         xlink:href="#SVGCleanerId_5" />
      <use
         height="100%"
         width="100%"
         y="0"
         x="0"
         id="use1381"
         xlink:href="#SVGCleanerId_6" />
      <use
         height="100%"
         width="100%"
         y="0"
         x="0"
         id="use1383"
         xlink:href="#SVGCleanerId_7" />
      <use
         height="100%"
         width="100%"
         y="0"
         x="0"
         id="use1385"
         xlink:href="#SVGCleanerId_8" />
      <use
         height="100%"
         width="100%"
         y="0"
         x="0"
         id="use1387"
         xlink:href="#SVGCleanerId_9" />
      <use
         height="100%"
         width="100%"
         y="0"
         x="0"
         id="use1389"
         xlink:href="#SVGCleanerId_10" />
      <use
         height="100%"
         width="100%"
         y="0"
         x="0"
         id="use1391"
         xlink:href="#SVGCleanerId_11" />
      <use
         height="100%"
         width="100%"
         y="0"
         x="0"
         id="use1393"
         xlink:href="#SVGCleanerId_12" />
    </g>
    <path
       inkscape:connector-curvature="0"
       style="fill:url(#linearGradient63543)"
       id="path1395"
       d="m 74.75,974.51 -1.6595,1.6595 -1.6595,-1.6595 -1.5931,1.5931 1.6595,1.6595 -1.6595,1.6595 1.5931,1.5931 1.6595,-1.6595 1.6595,1.6595 1.5931,-1.5931 -1.6595,-1.6595 1.6595,-1.6595 L 74.75,974.51 Z" />
    <path
       style="fill:#e6e6e6"
       inkscape:connector-curvature="0"
       id="path1397"
       transform="translate(-129.58,988.1)"
       d="m 194.63,-10.388 a 0.38269,6.0137 0 1 1 -0.76538,0 0.38269,6.0137 0 1 1 0.76538,0 z" />
  </g>
  <g
     id="g14291">
    <path
       d="m 5.2922679,73.685059 0,5.0663 c 0,6.668 5.3645011,12.032 12.0320011,12.032 l 61.049,0 c 6.668,0 12.032,-5.3645 12.032,-12.032 l 0,-5.0663 c 0,6.6681 -5.3645,12.032 -12.032,12.032 l -61.049,0 c -6.668,0 -12.0320011,-5.3643 -12.0320011,-12.032 z"
       id="path64"
       inkscape:connector-curvature="0"
       style="opacity:0.4;fill:url(#linearGradient14237);fill-opacity:1" />
    <path
       inkscape:connector-curvature="0"
       id="path14214"
       d="m 5.2929688,72.717592 0,1.15039 c 0,6.667718 5.3632502,12.031248 12.0312502,12.031248 l 61.048828,0 c 6.6675,0 12.03125,-5.36313 12.03125,-12.031248 l 0,-1.15039 c 0,6.668098 -5.36375,12.031248 -12.03125,12.031248 l -61.048828,0 c -6.668,0 -12.0312502,-5.36355 -12.0312502,-12.031248 z"
       style="opacity:0.5;fill:url(#linearGradient14245);fill-opacity:1" />
  </g>
</svg>
