<svg height="96" width="96" xmlns="http://www.w3.org/2000/svg" xmlns:sodipodi="http://sodipodi.sourceforge.net/DTD/sodipodi-0.dtd" xmlns:inkscape="http://www.inkscape.org/namespaces/inkscape">
 <defs>
  <linearGradient x2="0" y1="90" y2="5.988" gradientUnits="userSpaceOnUse" id="linearGradient251977" gradientTransform="matrix(1.0729 0 0 1.0417 -5.127 -2.459)">
   <stop stop-color="#1d5282"/>
   <stop stop-color="#568ec2" offset="1"/>
  </linearGradient>
 </defs>
 <g transform="matrix(1 0 0 1 0 -956.36)">
  <rect x="3.353" rx="12.724" y="959.35" fill-opacity="0.02" height="89.98" width="89.62"/>
  <rect x="3.959" rx="12.552" y="959.96" fill-opacity="0.039" height="88.76" width="88.41"/>
  <rect x="4.564" rx="12.38" y="960.57" fill-opacity="0.078" height="87.55" width="87.2"/>
  <rect x="5.17" rx="12.208" y="961.18" fill-opacity="0.157" height="86.33" width="85.991"/>
  <path d="m17.75 5.4062c-6.642 0-11.969 5.3948-11.969 12.063l0.0002 61.031c0 6.668 5.3268 12.031 11.969 12.031h60.812c6.642 0 11.969-5.363 11.969-12.031v-61.031c0-6.668-5.327-12.063-11.969-12.063l-60.812 0.0002z" fill="url(#linearGradient251977)" transform="matrix(1 0 0 1 0 956.36)"/>
  <path d="m5.7756 1033.9v1.0133c0 6.668 5.3434 12.032 11.985 12.032h60.809c6.6418 0 11.985-5.3645 11.985-12.032v-1.0133c0 6.6681-5.3434 12.032-11.985 12.032h-60.809c-6.6418 0-11.985-5.3644-11.985-12.032z" fill-opacity="0.098"/>
  <path d="m5.7756 1029.8v5.0663c0 6.668 5.3434 12.032 11.985 12.032h60.809c6.6418 0 11.985-5.3645 11.985-12.032v-5.0663c0 6.6681-5.3434 12.032-11.985 12.032h-60.809c-6.6418 0-11.985-5.3643-11.985-12.032z" fill-opacity="0.235"/>
  <g transform="matrix(1.0836 0 0 1.0836 -3.72 949.68)">
   <path d="m48.281 19.125c-4.4965 0-8.125 3.7536-8.125 8.2812s3.6285 8.2812 8.125 8.2812c4.4956 0 8.1562-3.7439 8.1562-8.2812s-3.6606-8.2812-8.1562-8.2812zm-22.593 13.094c-0.55883-0.009-1.1736 0.10671-1.7812 0.40625-1.3141 0.64773-2.0455 2.0088-2.0625 3.375-0.01672 1.4664 0.88874 2.6515 2.0312 3.25a0.89295 0.89295 0 0 0 0 0.03125c0.0023 0.0011 0.15388 0.06155 0.15625 0.0625 0.0019 0.000767 0.08679 0.01789 0.125 0.03125 0.0091 0.0032 0.03078-0.000143 0.03125 0l15.375 4.9688-0.09375 10.781-5.8125 18.344a0.89295 0.89295 0 0 0 -0.03125 0.375 0.89295 0.89295 0 0 0 0 0.0625c-0.53427 1.5078-0.18046 3.2684 1.25 4.2188 1.6601 1.1031 4.0431 0.78871 5.2188-0.96875a0.89295 0.89295 0 0 0 0.031 -0.031c0.0011-0.0018 0.06155-0.1231 0.0625-0.125 0.000725-0.0015 0.01608-0.06044 0.03125-0.09375 0.0047-0.01025-0.000191-0.03079 0-0.03125l7.781-16.437 7.625 16.406a0.89295 0.89295 0 0 0 0.03125 0.0625c0.000865 0.0015 0.06155 0.09233 0.0625 0.09375 0.01921 0.0335 0.0424 0.0611 0.0625 0.09375 1.0475 1.7014 3.2949 2.2701 5.0312 1.2812 1.5118-0.86102 2.0174-2.6444 1.5625-4.2188a0.89295 0.89295 0 0 0 0 -0.0625c-0.003-0.0097 0.0031-0.02155 0-0.03125a0.89295 0.89295 0 0 0 -0.03125 -0.34375l-5.6875-18.344v-0.0625l-0.031-10.657 15.437-5.344c0.002-0.000671 0.12304-0.03044 0.125-0.03125 0.002-0.000813 0.1231-0.06155 0.125-0.0625 0.0019-0.000951 0.12317-0.06142 0.125-0.0625 0.0018-0.0011 0.092-0.09254 0.09375-0.09375 1.3757-0.96148 1.9856-2.7396 1.375-4.3438-0.59674-1.5679-2.1876-2.4523-3.8125-2.3125v-0.0625c-0.000948-0.000015-0.0303-0.000015-0.03125 0a0.89295 0.89295 0 0 0 -0.062 0.031 0.89295 0.89295 0 0 0 -0.09375 0c-0.46126 0.07644-0.79791 0.17983-0.84375 0.1875l-21.062 3.532-21-3.688c-0.29525-0.05178-0.76348-0.17871-1.3125-0.1875z" opacity="0.08"/>
   <path d="m48.281 20.031c-4.0029 0-7.2188 3.3193-7.2188 7.375s3.2158 7.375 7.2188 7.375c4.0029 0 7.25-3.3136 7.25-7.375s-3.2471-7.375-7.25-7.375zm-22.593 13.094c-0.4327-0.0069-0.89794 0.07734-1.375 0.3125-0.99876 0.49231-1.5493 1.4968-1.5625 2.5625-0.01258 1.1034 0.65002 2.0071 1.5312 2.4688a0.98224 0.98224 0 0 0 0.15625 0.0625l16.031 5.1875-0.09375 11.5-5.875 18.53 0.0625 0.03125c-0.65673 1.2293-0.38879 2.7956 0.8125 3.5938 1.2763 0.84804 3.0742 0.6184 3.9688-0.71875a0.98224 0.98224 0 0 0 0.0625 -0.125l8.594-18.219 8.438 18.157a0.98224 0.98224 0 0 0 0.062 0.093c0.77362 1.3493 2.524 1.8006 3.875 1.0312 1.263-0.719 1.652-2.29 1.063-3.593l0.062-0.031-5.75-18.594-0.031-11.344 16.062-5.5625a0.98224 0.98224 0 0 0 0.25 -0.125c1.0479-0.73241 1.4954-2.093 1.0312-3.3125-0.461-1.211-1.702-1.924-2.968-1.78a0.98224 0.98224 0 0 0 -0.03125 0c-0.39226 0.065-0.65557 0.15599-0.84375 0.1875l-21.219 3.562-21.156-3.719c-0.334-0.058-0.724-0.149-1.156-0.156z" opacity="0.15"/>
   <path d="m54.566 27.412c0 3.5397-2.8086 6.4124-6.2691 6.4124s-6.2691-2.8728-6.2691-6.4124c0-3.5397 2.8086-6.4124 6.2691-6.4124s6.2691 2.8728 6.2691 6.4124zm15.647 6.8185c-0.28996 0.04805-0.5367 0.12777-0.82626 0.17625l-21.387 3.5807-21.299-3.735c-0.67525-0.11841-1.3247-0.25856-1.9399 0.0447-0.61521 0.30325-1.0185 1.022-1.027 1.706-0.0078 0.68404 0.41945 1.274 1.027 1.5922l16.689 5.416-0.114 12.433-5.889 18.619c-0.5672 0.84785-0.39432 1.9367 0.45645 2.502 0.85081 0.56533 2.0573 0.3931 2.6246-0.45487l9.5039-20.098 9.3245 20.063c0.5042 0.87942 1.6281 1.1849 2.5105 0.68242 0.88232-0.50251 1.1889-1.6227 0.68467-2.5021l-5.7799-18.7-0.0082-12.254 16.704-5.7729c0.6838-0.47792 0.98087-1.3827 0.68469-2.1608-0.29619-0.77825-1.1102-1.2317-1.9399-1.1374h0.000055z" opacity="0.4"/>
   <path d="m54.566 26.412c0 3.5397-2.8086 6.4124-6.2691 6.4124s-6.2691-2.8728-6.2691-6.4124c0-3.5397 2.8086-6.4124 6.2691-6.4124s6.2691 2.8728 6.2691 6.4124zm15.647 6.8185c-0.28996 0.04805-0.5367 0.12777-0.82626 0.17625l-21.387 3.5807-21.299-3.735c-0.67525-0.11841-1.3247-0.25856-1.9399 0.0447-0.61521 0.30325-1.0185 1.022-1.027 1.706-0.0078 0.68404 0.41945 1.274 1.027 1.5922l16.689 5.416-0.114 12.433-5.889 18.619c-0.5672 0.84785-0.39432 1.9367 0.45645 2.502 0.85081 0.56533 2.0573 0.3931 2.6246-0.45487l9.5039-20.098 9.3245 20.063c0.5042 0.87942 1.6281 1.1849 2.5105 0.68242 0.88232-0.50251 1.1889-1.6227 0.68467-2.5021l-5.7799-18.7-0.0082-12.254 16.704-5.7729c0.6838-0.47792 0.98087-1.3827 0.68469-2.1608-0.29619-0.77825-1.1102-1.2317-1.9399-1.1374h0.000055z" fill="#fff"/>
  </g>
 </g>
</svg>
