<svg height="96" width="96" xmlns="http://www.w3.org/2000/svg" xmlns:xlink="http://www.w3.org/1999/xlink" xmlns:sodipodi="http://sodipodi.sourceforge.net/DTD/sodipodi-0.dtd" xmlns:inkscape="http://www.inkscape.org/namespaces/inkscape">
 <defs>
  <linearGradient x2="0" y1="20.221" y2="138.66" gradientUnits="userSpaceOnUse" id="linearGradient3613-94">
   <stop stop-color="#fff"/>
   <stop stop-color="#fff" stop-opacity="0" offset="1"/>
  </linearGradient>
  <filter x="-0.192" y="-0.192" height="1.384" color-interpolation-filters="sRGB" id="filter3794-787" width="1.384">
   <feGaussianBlur stdDeviation="5.28"/>
  </filter>
  <clipPath id="clipPath3613-84">
   <use xlink:href="#SVGCleanerId_0"/>
  </clipPath>
  <linearGradient x2="0" y1="90" y2="5.988" gradientUnits="userSpaceOnUse" id="linearGradient95452" gradientTransform="matrix(1.1767 0 0 1.0442 -11.33 -2.01)">
   <stop stop-color="#509528"/>
   <stop stop-color="#78cd46" offset="1"/>
  </linearGradient>
  <linearGradient x2="0" y1="63.3" y2="25.17" gradientUnits="userSpaceOnUse" id="linearGradient95455" gradientTransform="matrix(0.72917 0 0 0.73 42.529 39.975)">
   <stop stop-color="#00a8e1"/>
   <stop stop-color="#5dceff" offset="1"/>
  </linearGradient>
  <rect x="6" rx="6" y="6" height="84" id="SVGCleanerId_0" width="84"/>
 </defs>
 <g transform="matrix(1 0 0 1 0 -956.36)">
  <rect x="3.353" rx="12.724" y="959.35" fill-opacity="0.02" height="89.98" width="89.62"/>
  <rect x="3.959" rx="12.552" y="959.96" fill-opacity="0.039" height="88.76" width="88.41"/>
  <rect x="4.564" rx="12.38" y="960.57" fill-opacity="0.078" height="87.55" width="87.2"/>
  <rect x="5.17" rx="12.208" y="961.18" fill-opacity="0.157" height="86.33" width="85.991"/>
  <path d="m17.75 5.4062c-6.642 0-11.969 5.3948-11.969 12.063l0.0002 61.031c0 6.668 5.3268 12.031 11.969 12.031h60.812c6.642 0 11.969-5.363 11.969-12.031v-61.031c0-6.668-5.327-12.063-11.969-12.063l-60.812 0.0002z" fill="url(#linearGradient95452)" transform="matrix(1 0 0 1 0 956.36)"/>
  <path d="m5.7756 1033.9v1.0133c0 6.668 5.3434 12.032 11.985 12.032h60.809c6.6418 0 11.985-5.3645 11.985-12.032v-1.0133c0 6.6681-5.3434 12.032-11.985 12.032h-60.809c-6.6418 0-11.985-5.3644-11.985-12.032z" fill-opacity="0.098"/>
  <path d="m5.7756 1029.8v5.0663c0 6.668 5.3434 12.032 11.985 12.032h60.809c6.6418 0 11.985-5.3645 11.985-12.032v-5.0663c0 6.6681-5.3434 12.032-11.985 12.032h-60.809c-6.6418 0-11.985-5.3643-11.985-12.032z" fill-opacity="0.235"/>
  <rect x="15" stroke-width="0.5" rx="12" y="15" clip-path="url(#clipPath3613-84)" fill="url(#linearGradient3613-94)" stroke="#fff" height="66" filter="url(#filter3794-787)" opacity="0.1" stroke-linecap="round" width="66" transform="matrix(1 0 0 1 -3.141 952.21)"/>
  <g transform="matrix(1 0 0 1 -3.141 952.21)">
   <path d="m76.062 57.031c-2.7473 0.000031-5.2353 0.80187-7.1875 2.4062-2.1499 1.7396-3.3125 4.2854-3.3125 7.125v0.5625c0.000004-0.000432 0.000039 0.18793 0 0.1875s0.03133 0.21917 0.03125 0.21875c-0.000081-0.000424 0.06262 0.18791 0.0625 0.1875-0.000123-0.000414 0.06266 0.1879 0.0625 0.1875-0.000163-0.0004 0.09395 0.18788 0.09375 0.1875-0.000202-0.000382 0.09399 0.18786 0.09375 0.1875-0.000239-0.00036 0.12527 0.15658 0.125 0.15625-0.000274-0.000334 0.1253 0.15656 0.125 0.15625-0.000305-0.000305 0.15658 0.12527 0.15625 0.125-0.000334-0.000274 0.15661 0.12524 0.15625 0.125-0.00036-0.000239 0.18788 0.09395 0.1875 0.09375-0.000382-0.000202 0.1879 0.09391 0.1875 0.09375-0.0004-0.000163 0.18791 0.06262 0.1875 0.0625-0.000414-0.000123 0.18792 0.06258 0.1875 0.0625-0.000424-0.000081 0.21918 0.03129 0.21875 0.03125-0.00043-0.000039 0.18793-0.000004 0.1875 0h5.3438c-0.0076 0.0069-0.02373 0.0244-0.03125 0.03125-0.2541 0.23144-0.45301 0.39762-0.5625 0.5-0.09799 0.09163-0.14608 0.14626-0.15625 0.15625-0.0089 0.0087-0.04754 0.04442-0.09375 0.09375 0.07931-0.08468 0.03016-0.04085-0.0625 0.0625 0.10982-0.1225 0.06832-0.05711-0.03125 0.0625-0.07425 0.08919-0.066 0.0693-0.09375 0.125-0.01244 0.02497-0.02512 0.04573-0.03125 0.0625-0.0038 0.005 0.0033 0.02686 0 0.03125-0.0017 0.0022-0.02975-0.002-0.03125 0-0.0044 0.01562-0.03245 0.09698-0.03125 0.09375-1.114 1.373-1.843 2.982-1.843 4.72v2c0.000004-0.000432 0.000039 0.18793 0 0.1875s0.03133 0.21917 0.03125 0.21875c-0.000081-0.000424 0.06262 0.18791 0.0625 0.1875-0.000123-0.000414 0.06266 0.1879 0.0625 0.1875-0.000163-0.0004 0.09395 0.18788 0.09375 0.1875-0.000202-0.000382 0.09399 0.18786 0.09375 0.1875-0.000239-0.00036 0.12527 0.15658 0.125 0.15625-0.000274-0.000334 0.1253 0.15656 0.125 0.15625-0.000305-0.000305 0.15658 0.12527 0.15625 0.125-0.000334-0.000274 0.15661 0.12524 0.15625 0.125-0.00036-0.000239 0.18788 0.09395 0.1875 0.09375-0.000382-0.000202 0.1879 0.09391 0.1875 0.09375-0.0004-0.000163 0.18791 0.06262 0.1875 0.0625-0.000414-0.000123 0.18792 0.06258 0.1875 0.0625a1.0348 1.0348 0 0 0 -0.375 0.25c-1.0497 1.0885-1.5313 2.551-1.5312 4.0312-0.000007 1.4974 0.54666 2.9205 1.5938 3.9688 1.0553 1.0565 2.4911 1.6562 4.0312 1.6562 1.3521-0.000004 2.6155-0.52374 3.625-1.375a1.0348 1.0348 0 0 0 0.15625 -0.09375c0.0065-0.0059 0.02479 0.0059 0.03125 0a1.0348 1.0348 0 0 0 0.219 -0.155 1.0348 1.0348 0 0 0 0.219 -0.344c0.87489-1.018 1.375-2.3089 1.375-3.6562-0.000016-1.5029-0.5426-2.9341-1.5938-4-0.0012-0.0021-0.03048 0.0014-0.03125 0-0.0013-0.0023 0.000039-0.03121 0-0.03125-0.111-0.113-0.256-0.181-0.375-0.282 0.05878-0.01432 0.12527-0.03133 0.125-0.03125-0.000414 0.000123 0.1879-0.06266 0.1875-0.0625-0.0004 0.000163 0.18788-0.09395 0.1875-0.09375-0.000382 0.000202 0.18786-0.09399 0.1875-0.09375-0.00036 0.000239 0.15658-0.12527 0.15625-0.125-0.000334 0.000274 0.15656-0.1253 0.15625-0.125-0.000305 0.000305 0.12527-0.15658 0.125-0.15625-0.000274 0.000334 0.12524-0.15661 0.125-0.15625-0.000239 0.00036 0.09395-0.18788 0.09375-0.1875-0.000202 0.000382 0.09391-0.1879 0.09375-0.1875-0.000163 0.0004 0.06262-0.18791 0.0625-0.1875-0.000123 0.000414 0.06258-0.18792 0.0625-0.1875-0.000081 0.000424 0.03129-0.21918 0.03125-0.21875-0.000039 0.00043-0.000004-0.18793 0-0.1875v-1.2188c0.000003 0.23335-0.02056 0.11137 0.09375-0.0625s0.33422-0.43351 0.71875-0.75c0.0055-0.0047-0.0057-0.02604 0-0.03125 0.06874-0.06247 0.18415-0.152 0.1875-0.15625 1.4352-1.1304 2.4159-1.9152 3.0312-2.6875 0.0067-0.0084 0.02462-0.02283 0.03125-0.03125 1.3508-1.6049 2.0937-3.6024 2.0938-5.7812-0.000023-2.8226-1.236-5.3565-3.4688-7.0625-2.0101-1.5236-4.5038-2.3125-7.2188-2.3125z" opacity="0.08"/>
   <path d="m76.062 58.062c-2.5453 0.000029-4.7763 0.74522-6.5312 2.1875-1.9185 1.5523-2.9375 3.7468-2.9375 6.3125v0.5625a1.0217 1.0217 0 0 0 1.0312 1.0312h6.2812a1.0217 1.0217 0 0 0 1.0312 -1.0625c-0.0175-0.54305 0.08436-0.915 0.3125-1.25 0.1816-0.26664 0.27882-0.31249 0.71875-0.3125 0.30717 0.000011 0.49329 0.0821 0.71875 0.28125a1.0217 1.0217 0 0 0 0.03125 0c0.20224 0.16676 0.21874 0.21602 0.21875 0.46875-0.000005 0.32514-0.27231 0.96914-1.1875 1.7812-0.93377 0.84136-1.6471 1.471-2.125 1.9062-0.23893 0.21762-0.40286 0.37995-0.53125 0.5-0.06419 0.06003-0.11292 0.11366-0.15625 0.15625-0.02166 0.02129-0.03683 0.0351-0.0625 0.0625-0.0064 0.0069-0.02325 0.02233-0.03125 0.03125-0.008 0.0089-0.01976 0.01745-0.03125 0.03125s-0.01135 0.03505-0.03125 0.0625-0.09338 0.12427-0.09375 0.125c-1.044 1.2468-1.6563 2.6837-1.6562 4.1875v2a1.0217 1.0217 0 0 0 1.0312 1.0312h6.4688a1.0217 1.0217 0 0 0 1.032 -1.029v-1.2188c-0.000004-0.26755 0.28477-0.88199 1.1875-1.625 0.01749-0.01376 0.01391-0.01761 0.03125-0.03125 1.6015-1.2604 2.545-2.0306 3.0625-2.6875 0.0095-0.01114 0.02184-0.02007 0.03125-0.03125 1.1998-1.4255 1.8437-3.1738 1.8438-5.125-0.000021-2.5313-1.0691-4.7269-3.0625-6.25-1.819-1.379-4.074-2.093-6.594-2.094zm-0.687 20.719c-1.2795 0.000006-2.4532 0.48342-3.3125 1.3438a1.0217 1.0217 0 0 0 -0.03125 0c-0.84097 0.872-1.25 2.0569-1.25 3.3125-0.000006 1.2556 0.44019 2.408 1.2812 3.25 0.85935 0.86034 2.033 1.3437 3.3125 1.3438 1.2641-0.000004 2.4428-0.46085 3.2812-1.3125v-0.03125h0.03125c0.84804-0.83734 1.2812-2.0046 1.2812-3.25-0.000013-1.2514-0.45631-2.4131-1.3125-3.2812-0.0063-0.0064 0.0064-0.02486 0-0.03125-0.83938-0.85961-2.011-1.3437-3.2812-1.3438z" opacity="0.15"/>
   <path d="m84.685 66.396c-0.000019 1.752-0.53669 3.2588-1.61 4.5202-0.32668 0.4205-1.3067 1.2731-2.94 2.5579-1.0734 0.86434-1.61 1.6703-1.61 2.4178v1.2264h-6.475v-1.9973c-0.000005-1.3315 0.51333-2.5696 1.54-3.7143 0.02333-0.04671 0.96833-0.91103 2.835-2.593 1.0267-0.91103 1.54-1.752 1.54-2.5229-0.000012-0.5139-0.19835-0.93438-0.595-1.2614-0.39668-0.35038-0.86335-0.52558-1.4-0.5256-0.70001 0.00002-1.225 0.25698-1.575 0.77088-0.35001 0.51394-0.51334 1.133-0.49 1.8571h-6.265v-0.56064c0-2.3126 0.85167-4.1581 2.555-5.5364 1.5633-1.2848 3.5233-1.9272 5.88-1.9272 2.3333 0.000027 4.3167 0.61907 5.95 1.8571 1.7733 1.3549 2.66 3.1653 2.66 5.4312m-5.74 17.03c-0.000011 1.0512-0.33835 1.9039-1.015 2.5579-0.65335 0.67744-1.505 1.0162-2.555 1.0162-1.05-0.000003-1.9134-0.33872-2.59-1.0162-0.65334-0.65408-0.98001-1.5067-0.98-2.5579-0.000005-1.0512 0.32666-1.9155 0.98-2.593 0.67666-0.67744 1.54-1.0162 2.59-1.0162 1.05 0.000005 1.9017 0.33873 2.555 1.0162 0.67666 0.67745 1.015 1.5418 1.015 2.593" opacity="0.3"/>
   <path d="m30.406 12.969c-6.2255-0.18408-12.202 3.4632-15.107 8.9354-3.7416 6.8272-4.061 15.151-2.2398 22.602 1.3672 5.3317 4.4771 10.547 9.6721 12.894 2.6822 1.7129 6.9172 0.38007 7.3275 4.3688 2.087 4.4403 7.4457 5.7857 11.956 5.2827 1.4835-0.01423 3.6915-0.24815 3.8282-2.1453-0.10477-1.7418 0.22206-3.5623-0.1875-5.25-0.65-2.349-4.237-0.037-4.437-2.568-1.066-1.921 1.22-2.766 2.281-3.964 4.1511-5.0727 5.5179-11.961 5.0625-18.375 0.8335 0.82071 2.1035 0.44687 3.1562 0.53125 0.08133 5.0567-0.19675 10.129 0.21642 15.173 0.21704 3.7082 2.646 7.3021 6.3982 8.1399 3.7095 0.96131 7.7458 0.80134 11.385-0.31243 1.5756-1.0238 0.82637-3.101 1-4.6569-0.11782-1.5861 0.26418-3.2637-0.25-4.7806-1.2355-1.9161-3.7785-0.62489-5.6044-0.965-1.3128-0.5349-0.48583-2.7876-0.7081-4.0459v-8.5516c1.6683-0.12549 3.4333 0.27575 5.0312-0.25 1.6882-0.96516 0.92196-3.1353 1.0938-4.7194-0.12419-1.6892 0.2735-3.4742-0.25-5.0931-0.965-1.688-3.135-0.922-4.719-1.094-1.427 0.456-1.195-0.747-1.156-1.757-0.095-2.138 0.196-4.329-0.156-6.43-0.793-1.842-2.994-1.148-4.555-1.215-1.503 0.183-3.162-0.252-4.539 0.465-1.232 1.084-0.983 2.95-1.476 4.406-0.32 1.511-0.641 3.021-0.961 4.531-1.534 0.108-3.705-0.517-4.469 1.281-0.31 0.985-0.09 2.045-0.156 3.063-1.428-6.656-5.911-13.175-12.803-14.907-1.509-0.406-3.073-0.594-4.635-0.593zm0 12c3.5069-0.1042 4.164 4.2346 4.5467 6.8832 0.36617 4.5039 0.5679 9.3393-1.4016 13.522-1.3624 3.1142-6.2753 2.1561-6.8718-1.0421-1.5274-4.7209-1.4986-9.9011-0.5197-14.735 0.51691-2.068 1.6091-4.9208 4.2464-4.6283z" opacity="0.08"/>
   <path d="m30.406 14.031c-4.9478 0.000044-9.0926 1.871-12.156 5.5-3.4792 4.116-5.1875 9.6552-5.1875 16.5-0.000002 5.0985 0.98613 9.5783 3 13.406a1.0378 1.0378 0 0 0 0 0.03125c2.9404 5.4783 7.6468 8.3643 13.625 8.5938 0.73684 2.7131 1.961 5.0254 4.1562 6.4062 2.4042 1.5123 5.6953 1.9436 10.062 1.2812a1.0378 1.0378 0 0 0 0.875 -1.0312v-4.2188a1.0378 1.0378 0 0 0 -1.125 -1.0312c-1.7721 0.16333-2.489-0.17476-3-0.84375-0.47776-0.6255-0.74682-1.9279-0.90625-3.5938 1.046-0.73876 2.0367-1.5518 2.9062-2.5938a1.0378 1.0378 0 0 0 0.03125 0c3.339-4.007 4.939-9.53 4.939-16.406 0-5.144-1.034-9.641-3.125-13.469-3.098-5.575-7.934-8.531-14.094-8.531zm31.625 1.6875-5.9375 0.15625a1.0378 1.0378 0 0 0 -0.969 0.814l-1.8125 8.5h-3.375a1.0378 1.0378 0 0 0 -1.0312 1.0312v6.9688a1.0378 1.0378 0 0 0 1.0312 1.0312h2.8438v12.312c-0.000005 3.7328 0.46827 6.4532 1.6875 8.25 0.0068 0.01 0.02442 0.02131 0.03125 0.03125 1.5625 2.3525 4.6793 3.3437 8.9688 3.3438 1.478-0.000003 3.2622-0.20747 5.375-0.65625a1.0378 1.0378 0 0 0 0.8125 -1v-6.625a1.0378 1.0378 0 0 0 -1.096 -1.031c-1.4149 0.0791-2.4587 0.12501-3.125 0.125-1.0424 0.000006-1.6407-0.2346-1.8125-0.375-0.025-0.021-0.191-0.232-0.312-0.719-0.12-0.487-0.218-1.206-0.218-2.125v-11.531h5.0938a1.0378 1.0378 0 0 0 1.0312 -1.0312v-6.9688a1.0378 1.0378 0 0 0 -1.031 -1.031h-5.0938v-8.4375a1.0378 1.0378 0 0 0 -1.0625 -1.0312zm-31.625 8.1875c1.9607 0.000015 3.2352 0.79923 4.25 2.75s1.5937 5.1176 1.5938 9.4375c-0.000012 4.3199-0.57811 7.5094-1.5938 9.4688-1.0156 1.9594-2.2917 2.75-4.25 2.75-1.999 0.000003-3.3084-0.8121-4.3438-2.7812-1.0353-1.9692-1.625-5.1618-1.625-9.5-0.000012-0.34698-0.000011-0.68479 0-1.0312v-0.03125c0.11122-3.9184 0.75988-6.7995 1.7812-8.5625 1.0245-1.7683 2.2829-2.5 4.1875-2.5z" opacity="0.15"/>
   <path d="m30.406 15.062c-4.6962 0.000042-8.4908 1.7085-11.375 5.125-3.291 3.8933-4.9375 9.1696-4.9375 15.844-0.000002 4.9659 0.95217 9.2826 2.875 12.938 2.9212 5.4426 7.4102 8.1562 13.438 8.1562 1.3023 5.816 4.8945 8.8753 13.344 7.5938v-4.2188c-3.9333 0.36252-4.7872-1.7993-5.0938-5.625v-0.25c1.1833-0.75481 2.2573-1.6917 3.2188-2.8438 3.1431-3.7741 4.7187-9.0361 4.7188-15.75-0.000035-5.0056-1.0032-9.3138-3-12.969-2.9582-5.3234-7.3451-8-13.188-8zm31.656 1.6875-5.9375 0.15625-1.9688 9.3125h-4.2188v6.9688h3.875v13.344c-0.000005 3.6549 0.5213 6.2176 1.5312 7.6875 1.2718 1.9466 3.973 2.9062 8.125 2.9062 1.384-0.000003 3.0989-0.188 5.1562-0.625v-6.625c-1.4214 0.07946-2.4768 0.12501-3.1875 0.125-1.1596 0.000007-1.9825-0.19647-2.4688-0.59375-0.597-0.476-0.905-1.709-0.905-3.656v-12.562h6.125v-6.9688h-6.125v-9.4688zm-31.656 6.125c4.5852 0.000034 6.875 4.3994 6.875 13.219-0.000025 8.8194-2.2898 13.25-6.875 13.25-4.6592 0.000008-7-4.4534-7-13.312-0.000012-0.35752-0.000012-0.70494 0-1.0625 0.22185-8.0645 2.5627-12.094 7-12.094z" opacity="0.3"/>
   <path d="m30.406 14.062c-4.6962 0.000042-8.4908 1.7085-11.375 5.125-3.291 3.8933-4.9375 9.1696-4.9375 15.844-0.000002 4.9659 0.95217 9.2826 2.875 12.938 2.9212 5.4426 7.4102 8.1562 13.438 8.1562 1.3023 5.816 4.8945 8.8753 13.344 7.5938v-4.2188c-3.9333 0.36252-4.7872-1.7993-5.0938-5.625v-0.25c1.1833-0.75481 2.2573-1.6917 3.2188-2.8438 3.1431-3.7741 4.7187-9.0361 4.7188-15.75-0.000035-5.0056-1.0032-9.3138-3-12.969-2.9582-5.3234-7.3451-8-13.188-8zm31.656 1.6875-5.9375 0.15625-1.9688 9.3125h-4.2188v6.9688h3.875v13.344c-0.000005 3.6549 0.5213 6.2176 1.5312 7.6875 1.2718 1.9466 3.973 2.9062 8.125 2.9062 1.384-0.000003 3.0989-0.188 5.1562-0.625v-6.625c-1.4214 0.07946-2.4768 0.12501-3.1875 0.125-1.1596 0.000007-1.9825-0.19647-2.4688-0.59375-0.597-0.476-0.905-1.709-0.905-3.656v-12.562h6.125v-6.9688h-6.125v-9.4688zm-31.656 6.125c4.5852 0.000034 6.875 4.3994 6.875 13.219-0.000025 8.8194-2.2898 13.25-6.875 13.25-4.6592 0.000008-7-4.4534-7-13.312-0.000012-0.35752-0.000012-0.70494 0-1.0625 0.22185-8.0645 2.5627-12.094 7-12.094z" fill="#fff"/>
   <path d="m84.685 65.396c-0.000019 1.752-0.53669 3.2588-1.61 4.5202-0.32668 0.4205-1.3067 1.2731-2.94 2.5579-1.0734 0.86434-1.61 1.6703-1.61 2.4178v1.2264h-6.475v-1.9973c-0.000005-1.3315 0.51333-2.5696 1.54-3.7143 0.02333-0.04671 0.96833-0.91103 2.835-2.593 1.0267-0.91103 1.54-1.752 1.54-2.5229-0.000012-0.5139-0.19835-0.93438-0.595-1.2614-0.39668-0.35038-0.86335-0.52558-1.4-0.5256-0.70001 0.00002-1.225 0.25698-1.575 0.77088-0.35001 0.51394-0.51334 1.133-0.49 1.8571h-6.265v-0.56064c0-2.3126 0.85167-4.1581 2.555-5.5364 1.5633-1.2848 3.5233-1.9272 5.88-1.9272 2.3333 0.000027 4.3167 0.61907 5.95 1.8571 1.7733 1.3549 2.66 3.1653 2.66 5.4312m-5.74 17.03c-0.000011 1.0512-0.33835 1.9039-1.015 2.5579-0.65335 0.67744-1.505 1.0162-2.555 1.0162-1.05-0.000003-1.9134-0.33872-2.59-1.0162-0.65334-0.65408-0.98001-1.5067-0.98-2.5579-0.000005-1.0512 0.32666-1.9155 0.98-2.593 0.67666-0.67744 1.54-1.0162 2.59-1.0162 1.05 0.000005 1.9017 0.33873 2.555 1.0162 0.67666 0.67745 1.015 1.5418 1.015 2.593" fill="url(#linearGradient95455)"/>
   <path d="m76.062 58.094c-2.3567 0.000027-4.3117 0.65272-5.875 1.9375-1.7033 1.3783-2.5625 3.2186-2.5625 5.5312v0.5625h0.03125c0.10323-2.1061 0.93828-3.8048 2.5312-5.0938 1.5633-1.2848 3.5183-1.9375 5.875-1.9375 2.3333 0.000027 4.3354 0.63694 5.9688 1.875 1.6254 1.2419 2.4894 2.8677 2.625 4.875 0.0082-0.1497 0.03125-0.28403 0.03125-0.4375-0.000019-2.2659-0.88292-4.0826-2.6562-5.4375-1.6334-1.2381-3.6354-1.875-5.9688-1.875zm1.8125 7.7188c-0.17865 0.62235-0.64114 1.2933-1.4375 2-1.8667 1.6819-2.8204 2.547-2.8438 2.5938-1.0267 1.1447-1.5313 2.3872-1.5312 3.7188v1c-0.000005-1.3315 0.50457-2.5741 1.5312-3.7188 0.02333-0.04671 0.97707-0.91181 2.8438-2.5938 1.0267-0.91103 1.5312-1.7603 1.5312-2.5312-0.000004-0.17724-0.04657-0.31374-0.09375-0.46875zm-2.5 13c-1.05 0.000005-1.9171 0.35381-2.5938 1.0312-0.65334 0.67745-0.96876 1.5425-0.96875 2.5938-0.000001 0.1749 0.01317 0.33609 0.03125 0.5 0.09061-0.82447 0.39286-1.529 0.9375-2.0938 0.67666-0.67744 1.5437-1.0312 2.5938-1.0312 1.05 0.000005 1.9092 0.35381 2.5625 1.0312 0.56408 0.56473 0.87489 1.2693 0.96875 2.0938 0.01873-0.16391 0.03125-0.3251 0.03125-0.5-0.000011-1.0512-0.32334-1.9163-1-2.5938-0.65335-0.67744-1.5125-1.0312-2.5625-1.0312z" fill="#fff" opacity="0.3"/>
  </g>
 </g>
</svg>
