<?xml version="1.0" encoding="UTF-8" standalone="no"?>
<svg
   xmlns:dc="http://purl.org/dc/elements/1.1/"
   xmlns:cc="http://creativecommons.org/ns#"
   xmlns:rdf="http://www.w3.org/1999/02/22-rdf-syntax-ns#"
   xmlns:svg="http://www.w3.org/2000/svg"
   xmlns="http://www.w3.org/2000/svg"
   xmlns:xlink="http://www.w3.org/1999/xlink"
   xmlns:sodipodi="http://sodipodi.sourceforge.net/DTD/sodipodi-0.dtd"
   xmlns:inkscape="http://www.inkscape.org/namespaces/inkscape"
   height="96"
   width="96"
   id="svg660"
   version="1.1"
   inkscape:version="0.91 r13725"
   sodipodi:docname="assistant.svg">
  <metadata
     id="metadata726">
    <rdf:RDF>
      <cc:Work
         rdf:about="">
        <dc:format>image/svg+xml</dc:format>
        <dc:type
           rdf:resource="http://purl.org/dc/dcmitype/StillImage" />
      </cc:Work>
    </rdf:RDF>
  </metadata>
  <sodipodi:namedview
     pagecolor="#ffffff"
     bordercolor="#666666"
     borderopacity="1"
     objecttolerance="10"
     gridtolerance="10"
     guidetolerance="10"
     inkscape:pageopacity="0"
     inkscape:pageshadow="2"
     inkscape:window-width="640"
     inkscape:window-height="480"
     id="namedview724"
     showgrid="false"
     inkscape:zoom="2.4583333"
     inkscape:cx="48"
     inkscape:cy="48"
     inkscape:current-layer="svg660" />
  <defs
     id="defs662">
    <linearGradient
       x2="0"
       y1="20.221"
       y2="138.66"
       gradientUnits="userSpaceOnUse"
       id="linearGradient3613-94">
      <stop
         stop-color="#fff"
         id="stop665" />
      <stop
         stop-color="#fff"
         stop-opacity="0"
         offset="1"
         id="stop667" />
    </linearGradient>
    <filter
       x="-0.192"
       y="-0.192"
       height="1.384"
       color-interpolation-filters="sRGB"
       id="filter3794-787"
       width="1.384">
      <feGaussianBlur
         stdDeviation="5.28"
         id="feGaussianBlur670" />
    </filter>
    <clipPath
       id="clipPath3613-84">
      <use
         xlink:href="#SVGCleanerId_0"
         id="use673" />
    </clipPath>
    <linearGradient
       x2="0"
       y1="90"
       y2="5.988"
       gradientUnits="userSpaceOnUse"
       id="linearGradient95452"
       gradientTransform="matrix(1.1767,0,0,1.0442,-11.33,-2.01)">
      <stop
         stop-color="#509528"
         id="stop676" />
      <stop
         stop-color="#78cd46"
         offset="1"
         id="stop678" />
    </linearGradient>
    <linearGradient
       x2="0"
       y1="63.3"
       y2="25.17"
       gradientUnits="userSpaceOnUse"
       id="linearGradient95455"
       gradientTransform="matrix(0.72917,0,0,0.73,42.529,39.975)">
      <stop
         stop-color="#00a8e1"
         id="stop681" />
      <stop
         stop-color="#5dceff"
         offset="1"
         id="stop683" />
    </linearGradient>
    <rect
       x="6"
       rx="6"
       y="6"
       height="84"
       id="SVGCleanerId_0"
       width="84" />
    <linearGradient
       inkscape:collect="always"
       xlink:href="#linearGradient14231"
       id="linearGradient14237"
       x1="50.707542"
       y1="81.682442"
       x2="50.707542"
       y2="96.539803"
       gradientUnits="userSpaceOnUse" />
    <linearGradient
       inkscape:collect="always"
       id="linearGradient14231">
      <stop
         style="stop-color:#000000;stop-opacity:1;"
         offset="0"
         id="stop14233" />
      <stop
         style="stop-color:#000000;stop-opacity:0;"
         offset="1"
         id="stop14235" />
    </linearGradient>
    <linearGradient
       inkscape:collect="always"
       xlink:href="#linearGradient14239"
       id="linearGradient14245"
       x1="49.876652"
       y1="87.937508"
       x2="49.876652"
       y2="76.719681"
       gradientUnits="userSpaceOnUse" />
    <linearGradient
       inkscape:collect="always"
       id="linearGradient14239">
      <stop
         style="stop-color:#ffffff;stop-opacity:1;"
         offset="0"
         id="stop14241" />
      <stop
         style="stop-color:#ffffff;stop-opacity:0;"
         offset="1"
         id="stop14243" />
    </linearGradient>
  </defs>
  <rect
     style="fill-opacity:0.02000002"
     id="rect688"
     width="89.620003"
     height="89.980003"
     y="2.9899757"
     rx="12.724"
     x="3.3529999" />
  <rect
     style="fill-opacity:0.03900003"
     id="rect690"
     width="88.410004"
     height="88.760002"
     y="3.6000221"
     rx="12.552"
     x="3.9590001" />
  <rect
     style="fill-opacity:0.078"
     id="rect692"
     width="87.199997"
     height="87.550003"
     y="4.2100072"
     rx="12.38"
     x="4.5640001" />
  <rect
     style="fill-opacity:0.15700001"
     id="rect694"
     width="85.990997"
     height="86.330002"
     y="4.8199925"
     rx="12.208"
     x="5.1700001" />
  <path
     inkscape:connector-curvature="0"
     style="fill:url(#linearGradient95452)"
     id="path696"
     d="m 17.75,5.4062 c -6.642,0 -11.969,5.3948 -11.969,12.063 l 2e-4,61.031 c 0,6.668 5.3268,12.031 11.969,12.031 l 60.812,0 c 6.642,0 11.969,-5.363 11.969,-12.031 l 0,-61.031 c 0,-6.668 -5.327,-12.063 -11.969,-12.063 l -60.812,2e-4 z" />
  <rect
     style="opacity:0.1;fill:url(#linearGradient3613-94);stroke:#ffffff;stroke-width:0.5;stroke-linecap:round;filter:url(#filter3794-787)"
     id="rect702"
     transform="translate(-3.141,-4.15)"
     width="66"
     height="66"
     clip-path="url(#clipPath3613-84)"
     y="15"
     rx="12"
     x="15" />
  <g
     id="g704"
     transform="translate(-3.141,-4.15)">
    <path
       style="opacity:0.07999998"
       inkscape:connector-curvature="0"
       id="path706"
       d="m 76.062,57.031 c -2.7473,3.1e-5 -5.2353,0.80187 -7.1875,2.4062 -2.1499,1.7396 -3.3125,4.2854 -3.3125,7.125 l 0,0.5625 c 4e-6,-4.32e-4 3.9e-5,0.18793 0,0.1875 -3.9e-5,-4.3e-4 0.03133,0.21917 0.03125,0.21875 -8.1e-5,-4.24e-4 0.06262,0.18791 0.0625,0.1875 -1.23e-4,-4.14e-4 0.06266,0.1879 0.0625,0.1875 -1.63e-4,-4e-4 0.09395,0.18788 0.09375,0.1875 -2.02e-4,-3.82e-4 0.09399,0.18786 0.09375,0.1875 -2.39e-4,-3.6e-4 0.12527,0.15658 0.125,0.15625 -2.74e-4,-3.34e-4 0.1253,0.15656 0.125,0.15625 -3.05e-4,-3.05e-4 0.15658,0.12527 0.15625,0.125 -3.34e-4,-2.74e-4 0.15661,0.12524 0.15625,0.125 -3.6e-4,-2.39e-4 0.18788,0.09395 0.1875,0.09375 -3.82e-4,-2.02e-4 0.1879,0.09391 0.1875,0.09375 -4e-4,-1.63e-4 0.18791,0.06262 0.1875,0.0625 -4.14e-4,-1.23e-4 0.18792,0.06258 0.1875,0.0625 -4.24e-4,-8.1e-5 0.21918,0.03129 0.21875,0.03125 -4.3e-4,-3.9e-5 0.18793,-4e-6 0.1875,0 l 5.3438,0 c -0.0076,0.0069 -0.02373,0.0244 -0.03125,0.03125 -0.2541,0.23144 -0.45301,0.39762 -0.5625,0.5 -0.09799,0.09163 -0.14608,0.14626 -0.15625,0.15625 -0.0089,0.0087 -0.04754,0.04442 -0.09375,0.09375 0.07931,-0.08468 0.03016,-0.04085 -0.0625,0.0625 0.10982,-0.1225 0.06832,-0.05711 -0.03125,0.0625 -0.07425,0.08919 -0.066,0.0693 -0.09375,0.125 -0.01244,0.02497 -0.02512,0.04573 -0.03125,0.0625 -0.0038,0.005 0.0033,0.02686 0,0.03125 -0.0017,0.0022 -0.02975,-0.002 -0.03125,0 -0.0044,0.01562 -0.03245,0.09698 -0.03125,0.09375 -1.114,1.373 -1.843,2.982 -1.843,4.72 l 0,2 c 4e-6,-4.32e-4 3.9e-5,0.18793 0,0.1875 -3.9e-5,-4.3e-4 0.03133,0.21917 0.03125,0.21875 -8.1e-5,-4.24e-4 0.06262,0.18791 0.0625,0.1875 -1.23e-4,-4.14e-4 0.06266,0.1879 0.0625,0.1875 -1.63e-4,-4e-4 0.09395,0.18788 0.09375,0.1875 -2.02e-4,-3.82e-4 0.09399,0.18786 0.09375,0.1875 -2.39e-4,-3.6e-4 0.12527,0.15658 0.125,0.15625 -2.74e-4,-3.34e-4 0.1253,0.15656 0.125,0.15625 -3.05e-4,-3.05e-4 0.15658,0.12527 0.15625,0.125 -3.34e-4,-2.74e-4 0.15661,0.12524 0.15625,0.125 -3.6e-4,-2.39e-4 0.18788,0.09395 0.1875,0.09375 -3.82e-4,-2.02e-4 0.1879,0.09391 0.1875,0.09375 -4e-4,-1.63e-4 0.18791,0.06262 0.1875,0.0625 -4.14e-4,-1.23e-4 0.18792,0.06258 0.1875,0.0625 a 1.0348,1.0348 0 0 0 -0.375,0.25 c -1.0497,1.0885 -1.5313,2.551 -1.5312,4.0312 -7e-6,1.4974 0.54666,2.9205 1.5938,3.9688 1.0553,1.0565 2.4911,1.6562 4.0312,1.6562 1.3521,-4e-6 2.6155,-0.52374 3.625,-1.375 a 1.0348,1.0348 0 0 0 0.15625,-0.09375 c 0.0065,-0.0059 0.02479,0.0059 0.03125,0 a 1.0348,1.0348 0 0 0 0.219,-0.155 1.0348,1.0348 0 0 0 0.219,-0.344 c 0.87489,-1.018 1.375,-2.3089 1.375,-3.6562 -1.6e-5,-1.5029 -0.5426,-2.9341 -1.5938,-4 -0.0012,-0.0021 -0.03048,0.0014 -0.03125,0 -0.0013,-0.0023 3.9e-5,-0.03121 0,-0.03125 -0.111,-0.113 -0.256,-0.181 -0.375,-0.282 0.05878,-0.01432 0.12527,-0.03133 0.125,-0.03125 -4.14e-4,1.23e-4 0.1879,-0.06266 0.1875,-0.0625 -4e-4,1.63e-4 0.18788,-0.09395 0.1875,-0.09375 -3.82e-4,2.02e-4 0.18786,-0.09399 0.1875,-0.09375 -3.6e-4,2.39e-4 0.15658,-0.12527 0.15625,-0.125 -3.34e-4,2.74e-4 0.15656,-0.1253 0.15625,-0.125 -3.05e-4,3.05e-4 0.12527,-0.15658 0.125,-0.15625 -2.74e-4,3.34e-4 0.12524,-0.15661 0.125,-0.15625 -2.39e-4,3.6e-4 0.09395,-0.18788 0.09375,-0.1875 -2.02e-4,3.82e-4 0.09391,-0.1879 0.09375,-0.1875 -1.63e-4,4e-4 0.06262,-0.18791 0.0625,-0.1875 -1.23e-4,4.14e-4 0.06258,-0.18792 0.0625,-0.1875 -8.1e-5,4.24e-4 0.03129,-0.21918 0.03125,-0.21875 -3.9e-5,4.3e-4 -4e-6,-0.18793 0,-0.1875 l 0,-1.2188 c 3e-6,0.23335 -0.02056,0.11137 0.09375,-0.0625 0.11431,-0.17387 0.33422,-0.43351 0.71875,-0.75 0.0055,-0.0047 -0.0057,-0.02604 0,-0.03125 0.06874,-0.06247 0.18415,-0.152 0.1875,-0.15625 1.4352,-1.1304 2.4159,-1.9152 3.0312,-2.6875 0.0067,-0.0084 0.02462,-0.02283 0.03125,-0.03125 1.3508,-1.6049 2.0937,-3.6024 2.0938,-5.7812 -2.3e-5,-2.8226 -1.236,-5.3565 -3.4688,-7.0625 -2.0101,-1.5236 -4.5038,-2.3125 -7.2188,-2.3125 z" />
    <path
       style="opacity:0.15"
       inkscape:connector-curvature="0"
       id="path708"
       d="m 76.062,58.062 c -2.5453,2.9e-5 -4.7763,0.74522 -6.5312,2.1875 -1.9185,1.5523 -2.9375,3.7468 -2.9375,6.3125 l 0,0.5625 a 1.0217,1.0217 0 0 0 1.0312,1.0312 l 6.2812,0 a 1.0217,1.0217 0 0 0 1.0312,-1.0625 c -0.0175,-0.54305 0.08436,-0.915 0.3125,-1.25 0.1816,-0.26664 0.27882,-0.31249 0.71875,-0.3125 0.30717,1.1e-5 0.49329,0.0821 0.71875,0.28125 a 1.0217,1.0217 0 0 0 0.03125,0 c 0.20224,0.16676 0.21874,0.21602 0.21875,0.46875 -5e-6,0.32514 -0.27231,0.96914 -1.1875,1.7812 -0.93377,0.84136 -1.6471,1.471 -2.125,1.9062 -0.23893,0.21762 -0.40286,0.37995 -0.53125,0.5 -0.06419,0.06003 -0.11292,0.11366 -0.15625,0.15625 -0.02166,0.02129 -0.03683,0.0351 -0.0625,0.0625 -0.0064,0.0069 -0.02325,0.02233 -0.03125,0.03125 -0.008,0.0089 -0.01976,0.01745 -0.03125,0.03125 -0.01149,0.0138 -0.01135,0.03505 -0.03125,0.0625 -0.0199,0.02745 -0.09338,0.12427 -0.09375,0.125 -1.044,1.2468 -1.6563,2.6837 -1.6562,4.1875 l 0,2 a 1.0217,1.0217 0 0 0 1.0312,1.0312 l 6.4688,0 a 1.0217,1.0217 0 0 0 1.032,-1.029 l 0,-1.2188 c -4e-6,-0.26755 0.28477,-0.88199 1.1875,-1.625 0.01749,-0.01376 0.01391,-0.01761 0.03125,-0.03125 1.6015,-1.2604 2.545,-2.0306 3.0625,-2.6875 0.0095,-0.01114 0.02184,-0.02007 0.03125,-0.03125 1.1998,-1.4255 1.8437,-3.1738 1.8438,-5.125 -2.1e-5,-2.5313 -1.0691,-4.7269 -3.0625,-6.25 -1.819,-1.379 -4.074,-2.093 -6.594,-2.094 z m -0.687,20.719 c -1.2795,6e-6 -2.4532,0.48342 -3.3125,1.3438 a 1.0217,1.0217 0 0 0 -0.03125,0 c -0.84097,0.872 -1.25,2.0569 -1.25,3.3125 -6e-6,1.2556 0.44019,2.408 1.2812,3.25 0.85935,0.86034 2.033,1.3437 3.3125,1.3438 1.2641,-4e-6 2.4428,-0.46085 3.2812,-1.3125 l 0,-0.03125 0.03125,0 c 0.84804,-0.83734 1.2812,-2.0046 1.2812,-3.25 -1.3e-5,-1.2514 -0.45631,-2.4131 -1.3125,-3.2812 -0.0063,-0.0064 0.0064,-0.02486 0,-0.03125 -0.83938,-0.85961 -2.011,-1.3437 -3.2812,-1.3438 z" />
    <path
       style="opacity:0.3"
       inkscape:connector-curvature="0"
       id="path710"
       d="m 84.685,66.396 c -1.9e-5,1.752 -0.53669,3.2588 -1.61,4.5202 -0.32668,0.4205 -1.3067,1.2731 -2.94,2.5579 -1.0734,0.86434 -1.61,1.6703 -1.61,2.4178 l 0,1.2264 -6.475,0 0,-1.9973 c -5e-6,-1.3315 0.51333,-2.5696 1.54,-3.7143 0.02333,-0.04671 0.96833,-0.91103 2.835,-2.593 1.0267,-0.91103 1.54,-1.752 1.54,-2.5229 -1.2e-5,-0.5139 -0.19835,-0.93438 -0.595,-1.2614 -0.39668,-0.35038 -0.86335,-0.52558 -1.4,-0.5256 -0.70001,2e-5 -1.225,0.25698 -1.575,0.77088 -0.35001,0.51394 -0.51334,1.133 -0.49,1.8571 l -6.265,0 0,-0.56064 c 0,-2.3126 0.85167,-4.1581 2.555,-5.5364 1.5633,-1.2848 3.5233,-1.9272 5.88,-1.9272 2.3333,2.7e-5 4.3167,0.61907 5.95,1.8571 1.7733,1.3549 2.66,3.1653 2.66,5.4312 m -5.74,17.03 c -1.1e-5,1.0512 -0.33835,1.9039 -1.015,2.5579 -0.65335,0.67744 -1.505,1.0162 -2.555,1.0162 -1.05,-3e-6 -1.9134,-0.33872 -2.59,-1.0162 -0.65334,-0.65408 -0.98001,-1.5067 -0.98,-2.5579 -5e-6,-1.0512 0.32666,-1.9155 0.98,-2.593 0.67666,-0.67744 1.54,-1.0162 2.59,-1.0162 1.05,5e-6 1.9017,0.33873 2.555,1.0162 0.67666,0.67745 1.015,1.5418 1.015,2.593" />
    <path
       style="opacity:0.07999998"
       inkscape:connector-curvature="0"
       id="path712"
       d="m 30.406,12.969 c -6.2255,-0.18408 -12.202,3.4632 -15.107,8.9354 -3.7416,6.8272 -4.061,15.151 -2.2398,22.602 1.3672,5.3317 4.4771,10.547 9.6721,12.894 2.6822,1.7129 6.9172,0.38007 7.3275,4.3688 2.087,4.4403 7.4457,5.7857 11.956,5.2827 1.4835,-0.01423 3.6915,-0.24815 3.8282,-2.1453 -0.10477,-1.7418 0.22206,-3.5623 -0.1875,-5.25 -0.65,-2.349 -4.237,-0.037 -4.437,-2.568 -1.066,-1.921 1.22,-2.766 2.281,-3.964 4.1511,-5.0727 5.5179,-11.961 5.0625,-18.375 0.8335,0.82071 2.1035,0.44687 3.1562,0.53125 0.08133,5.0567 -0.19675,10.129 0.21642,15.173 0.21704,3.7082 2.646,7.3021 6.3982,8.1399 3.7095,0.96131 7.7458,0.80134 11.385,-0.31243 1.5756,-1.0238 0.82637,-3.101 1,-4.6569 -0.11782,-1.5861 0.26418,-3.2637 -0.25,-4.7806 -1.2355,-1.9161 -3.7785,-0.62489 -5.6044,-0.965 -1.3128,-0.5349 -0.48583,-2.7876 -0.7081,-4.0459 l 0,-8.5516 c 1.6683,-0.12549 3.4333,0.27575 5.0312,-0.25 1.6882,-0.96516 0.92196,-3.1353 1.0938,-4.7194 -0.12419,-1.6892 0.2735,-3.4742 -0.25,-5.0931 -0.965,-1.688 -3.135,-0.922 -4.719,-1.094 -1.427,0.456 -1.195,-0.747 -1.156,-1.757 -0.095,-2.138 0.196,-4.329 -0.156,-6.43 -0.793,-1.842 -2.994,-1.148 -4.555,-1.215 -1.503,0.183 -3.162,-0.252 -4.539,0.465 -1.232,1.084 -0.983,2.95 -1.476,4.406 -0.32,1.511 -0.641,3.021 -0.961,4.531 -1.534,0.108 -3.705,-0.517 -4.469,1.281 -0.31,0.985 -0.09,2.045 -0.156,3.063 -1.428,-6.656 -5.911,-13.175 -12.803,-14.907 -1.509,-0.406 -3.073,-0.594 -4.635,-0.593 z m 0,12 c 3.5069,-0.1042 4.164,4.2346 4.5467,6.8832 0.36617,4.5039 0.5679,9.3393 -1.4016,13.522 -1.3624,3.1142 -6.2753,2.1561 -6.8718,-1.0421 -1.5274,-4.7209 -1.4986,-9.9011 -0.5197,-14.735 0.51691,-2.068 1.6091,-4.9208 4.2464,-4.6283 z" />
    <path
       style="opacity:0.15"
       inkscape:connector-curvature="0"
       id="path714"
       d="m 30.406,14.031 c -4.9478,4.4e-5 -9.0926,1.871 -12.156,5.5 -3.4792,4.116 -5.1875,9.6552 -5.1875,16.5 -2e-6,5.0985 0.98613,9.5783 3,13.406 a 1.0378,1.0378 0 0 0 0,0.03125 c 2.9404,5.4783 7.6468,8.3643 13.625,8.5938 0.73684,2.7131 1.961,5.0254 4.1562,6.4062 2.4042,1.5123 5.6953,1.9436 10.062,1.2812 a 1.0378,1.0378 0 0 0 0.875,-1.0312 l 0,-4.2188 a 1.0378,1.0378 0 0 0 -1.125,-1.0312 c -1.7721,0.16333 -2.489,-0.17476 -3,-0.84375 -0.47776,-0.6255 -0.74682,-1.9279 -0.90625,-3.5938 1.046,-0.73876 2.0367,-1.5518 2.9062,-2.5938 a 1.0378,1.0378 0 0 0 0.03125,0 c 3.339,-4.007 4.939,-9.53 4.939,-16.406 0,-5.144 -1.034,-9.641 -3.125,-13.469 -3.098,-5.575 -7.934,-8.531 -14.094,-8.531 z m 31.625,1.6875 -5.9375,0.15625 a 1.0378,1.0378 0 0 0 -0.969,0.814 l -1.8125,8.5 -3.375,0 a 1.0378,1.0378 0 0 0 -1.0312,1.0312 l 0,6.9688 a 1.0378,1.0378 0 0 0 1.0312,1.0312 l 2.8438,0 0,12.312 c -5e-6,3.7328 0.46827,6.4532 1.6875,8.25 0.0068,0.01 0.02442,0.02131 0.03125,0.03125 1.5625,2.3525 4.6793,3.3437 8.9688,3.3438 1.478,-3e-6 3.2622,-0.20747 5.375,-0.65625 a 1.0378,1.0378 0 0 0 0.8125,-1 l 0,-6.625 a 1.0378,1.0378 0 0 0 -1.096,-1.031 c -1.4149,0.0791 -2.4587,0.12501 -3.125,0.125 -1.0424,6e-6 -1.6407,-0.2346 -1.8125,-0.375 -0.025,-0.021 -0.191,-0.232 -0.312,-0.719 -0.12,-0.487 -0.218,-1.206 -0.218,-2.125 l 0,-11.531 5.0938,0 a 1.0378,1.0378 0 0 0 1.0312,-1.0312 l 0,-6.9688 a 1.0378,1.0378 0 0 0 -1.031,-1.031 l -5.0938,0 0,-8.4375 a 1.0378,1.0378 0 0 0 -1.0625,-1.0312 z M 30.406,23.906 c 1.9607,1.5e-5 3.2352,0.79923 4.25,2.75 1.0148,1.95077 1.5937,5.1176 1.5938,9.4375 -1.2e-5,4.3199 -0.57811,7.5094 -1.5938,9.4688 -1.0156,1.9594 -2.2917,2.75 -4.25,2.75 -1.999,3e-6 -3.3084,-0.8121 -4.3438,-2.7812 -1.0353,-1.9692 -1.625,-5.1618 -1.625,-9.5 -1.2e-5,-0.34698 -1.1e-5,-0.68479 0,-1.0312 l 0,-0.03125 c 0.11122,-3.9184 0.75988,-6.7995 1.7812,-8.5625 1.0245,-1.7683 2.2829,-2.5 4.1875,-2.5 z" />
    <path
       style="opacity:0.3"
       inkscape:connector-curvature="0"
       id="path716"
       d="m 30.406,15.062 c -4.6962,4.2e-5 -8.4908,1.7085 -11.375,5.125 -3.291,3.8933 -4.9375,9.1696 -4.9375,15.844 -2e-6,4.9659 0.95217,9.2826 2.875,12.938 2.9212,5.4426 7.4102,8.1562 13.438,8.1562 1.3023,5.816 4.8945,8.8753 13.344,7.5938 l 0,-4.2188 c -3.9333,0.36252 -4.7872,-1.7993 -5.0938,-5.625 l 0,-0.25 c 1.1833,-0.75481 2.2573,-1.6917 3.2188,-2.8438 3.1431,-3.7741 4.7187,-9.0361 4.7188,-15.75 -3.5e-5,-5.0056 -1.0032,-9.3138 -3,-12.969 -2.9582,-5.3234 -7.3451,-8 -13.188,-8 z m 31.656,1.6875 -5.9375,0.15625 -1.9688,9.3125 -4.2188,0 0,6.9688 3.875,0 0,13.344 c -5e-6,3.6549 0.5213,6.2176 1.5312,7.6875 1.2718,1.9466 3.973,2.9062 8.125,2.9062 1.384,-3e-6 3.0989,-0.188 5.1562,-0.625 l 0,-6.625 c -1.4214,0.07946 -2.4768,0.12501 -3.1875,0.125 -1.1596,7e-6 -1.9825,-0.19647 -2.4688,-0.59375 -0.597,-0.476 -0.905,-1.709 -0.905,-3.656 l 0,-12.562 6.125,0 0,-6.9688 -6.125,0 0,-9.4688 z m -31.656,6.125 c 4.5852,3.4e-5 6.875,4.3994 6.875,13.219 -2.5e-5,8.8194 -2.2898,13.25 -6.875,13.25 -4.6592,8e-6 -7,-4.4534 -7,-13.312 -1.2e-5,-0.35752 -1.2e-5,-0.70494 0,-1.0625 0.22185,-8.0645 2.5627,-12.094 7,-12.094 z" />
    <path
       style="fill:#ffffff"
       inkscape:connector-curvature="0"
       id="path718"
       d="m 30.406,14.062 c -4.6962,4.2e-5 -8.4908,1.7085 -11.375,5.125 -3.291,3.8933 -4.9375,9.1696 -4.9375,15.844 -2e-6,4.9659 0.95217,9.2826 2.875,12.938 2.9212,5.4426 7.4102,8.1562 13.438,8.1562 1.3023,5.816 4.8945,8.8753 13.344,7.5938 l 0,-4.2188 c -3.9333,0.36252 -4.7872,-1.7993 -5.0938,-5.625 l 0,-0.25 c 1.1833,-0.75481 2.2573,-1.6917 3.2188,-2.8438 3.1431,-3.7741 4.7187,-9.0361 4.7188,-15.75 -3.5e-5,-5.0056 -1.0032,-9.3138 -3,-12.969 -2.9582,-5.3234 -7.3451,-8 -13.188,-8 z m 31.656,1.6875 -5.9375,0.15625 -1.9688,9.3125 -4.2188,0 0,6.9688 3.875,0 0,13.344 c -5e-6,3.6549 0.5213,6.2176 1.5312,7.6875 1.2718,1.9466 3.973,2.9062 8.125,2.9062 1.384,-3e-6 3.0989,-0.188 5.1562,-0.625 l 0,-6.625 c -1.4214,0.07946 -2.4768,0.12501 -3.1875,0.125 -1.1596,7e-6 -1.9825,-0.19647 -2.4688,-0.59375 -0.597,-0.476 -0.905,-1.709 -0.905,-3.656 l 0,-12.562 6.125,0 0,-6.9688 -6.125,0 0,-9.4688 z m -31.656,6.125 c 4.5852,3.4e-5 6.875,4.3994 6.875,13.219 -2.5e-5,8.8194 -2.2898,13.25 -6.875,13.25 -4.6592,8e-6 -7,-4.4534 -7,-13.312 -1.2e-5,-0.35752 -1.2e-5,-0.70494 0,-1.0625 0.22185,-8.0645 2.5627,-12.094 7,-12.094 z" />
    <path
       inkscape:connector-curvature="0"
       style="fill:url(#linearGradient95455)"
       id="path720"
       d="m 84.685,65.396 c -1.9e-5,1.752 -0.53669,3.2588 -1.61,4.5202 -0.32668,0.4205 -1.3067,1.2731 -2.94,2.5579 -1.0734,0.86434 -1.61,1.6703 -1.61,2.4178 l 0,1.2264 -6.475,0 0,-1.9973 c -5e-6,-1.3315 0.51333,-2.5696 1.54,-3.7143 0.02333,-0.04671 0.96833,-0.91103 2.835,-2.593 1.0267,-0.91103 1.54,-1.752 1.54,-2.5229 -1.2e-5,-0.5139 -0.19835,-0.93438 -0.595,-1.2614 -0.39668,-0.35038 -0.86335,-0.52558 -1.4,-0.5256 -0.70001,2e-5 -1.225,0.25698 -1.575,0.77088 -0.35001,0.51394 -0.51334,1.133 -0.49,1.8571 l -6.265,0 0,-0.56064 c 0,-2.3126 0.85167,-4.1581 2.555,-5.5364 1.5633,-1.2848 3.5233,-1.9272 5.88,-1.9272 2.3333,2.7e-5 4.3167,0.61907 5.95,1.8571 1.7733,1.3549 2.66,3.1653 2.66,5.4312 m -5.74,17.03 c -1.1e-5,1.0512 -0.33835,1.9039 -1.015,2.5579 -0.65335,0.67744 -1.505,1.0162 -2.555,1.0162 -1.05,-3e-6 -1.9134,-0.33872 -2.59,-1.0162 -0.65334,-0.65408 -0.98001,-1.5067 -0.98,-2.5579 -5e-6,-1.0512 0.32666,-1.9155 0.98,-2.593 0.67666,-0.67744 1.54,-1.0162 2.59,-1.0162 1.05,5e-6 1.9017,0.33873 2.555,1.0162 0.67666,0.67745 1.015,1.5418 1.015,2.593" />
    <path
       style="opacity:0.3;fill:#ffffff"
       inkscape:connector-curvature="0"
       id="path722"
       d="m 76.062,58.094 c -2.3567,2.7e-5 -4.3117,0.65272 -5.875,1.9375 -1.7033,1.3783 -2.5625,3.2186 -2.5625,5.5312 l 0,0.5625 0.03125,0 c 0.10323,-2.1061 0.93828,-3.8048 2.5312,-5.0938 1.5633,-1.2848 3.5183,-1.9375 5.875,-1.9375 2.3333,2.7e-5 4.3354,0.63694 5.9688,1.875 1.6254,1.2419 2.4894,2.8677 2.625,4.875 0.0082,-0.1497 0.03125,-0.28403 0.03125,-0.4375 -1.9e-5,-2.2659 -0.88292,-4.0826 -2.6562,-5.4375 -1.6334,-1.2381 -3.6354,-1.875 -5.9688,-1.875 z m 1.8125,7.7188 c -0.17865,0.62235 -0.64114,1.2933 -1.4375,2 -1.8667,1.6819 -2.8204,2.547 -2.8438,2.5938 -1.0267,1.1447 -1.5313,2.3872 -1.5312,3.7188 l 0,1 c -5e-6,-1.3315 0.50457,-2.5741 1.5312,-3.7188 0.02333,-0.04671 0.97707,-0.91181 2.8438,-2.5938 1.0267,-0.91103 1.5312,-1.7603 1.5312,-2.5312 -4e-6,-0.17724 -0.04657,-0.31374 -0.09375,-0.46875 z m -2.5,13 c -1.05,5e-6 -1.9171,0.35381 -2.5938,1.0312 -0.65334,0.67745 -0.96876,1.5425 -0.96875,2.5938 -10e-7,0.1749 0.01317,0.33609 0.03125,0.5 0.09061,-0.82447 0.39286,-1.529 0.9375,-2.0938 0.67666,-0.67744 1.5437,-1.0312 2.5938,-1.0312 1.05,5e-6 1.9092,0.35381 2.5625,1.0312 0.56408,0.56473 0.87489,1.2693 0.96875,2.0938 0.01873,-0.16391 0.03125,-0.3251 0.03125,-0.5 -1.1e-5,-1.0512 -0.32334,-1.9163 -1,-2.5938 -0.65335,-0.67744 -1.5125,-1.0312 -2.5625,-1.0312 z" />
  </g>
  <g
     id="g14291">
    <path
       d="m 5.2922679,73.685059 0,5.0663 c 0,6.668 5.3645011,12.032 12.0320011,12.032 l 61.049,0 c 6.668,0 12.032,-5.3645 12.032,-12.032 l 0,-5.0663 c 0,6.6681 -5.3645,12.032 -12.032,12.032 l -61.049,0 c -6.668,0 -12.0320011,-5.3643 -12.0320011,-12.032 z"
       id="path64"
       inkscape:connector-curvature="0"
       style="opacity:0.4;fill:url(#linearGradient14237);fill-opacity:1" />
    <path
       inkscape:connector-curvature="0"
       id="path14214"
       d="m 5.2929688,72.717592 0,1.15039 c 0,6.667718 5.3632502,12.031248 12.0312502,12.031248 l 61.048828,0 c 6.6675,0 12.03125,-5.36313 12.03125,-12.031248 l 0,-1.15039 c 0,6.668098 -5.36375,12.031248 -12.03125,12.031248 l -61.048828,0 c -6.668,0 -12.0312502,-5.36355 -12.0312502,-12.031248 z"
       style="opacity:0.5;fill:url(#linearGradient14245);fill-opacity:1" />
  </g>
</svg>
