<?xml version="1.0" encoding="UTF-8" standalone="no"?>
<svg
   xmlns:dc="http://purl.org/dc/elements/1.1/"
   xmlns:cc="http://creativecommons.org/ns#"
   xmlns:rdf="http://www.w3.org/1999/02/22-rdf-syntax-ns#"
   xmlns:svg="http://www.w3.org/2000/svg"
   xmlns="http://www.w3.org/2000/svg"
   xmlns:xlink="http://www.w3.org/1999/xlink"
   xmlns:sodipodi="http://sodipodi.sourceforge.net/DTD/sodipodi-0.dtd"
   xmlns:inkscape="http://www.inkscape.org/namespaces/inkscape"
   height="96"
   width="96"
   id="svg142"
   version="1.1"
   inkscape:version="0.91 r13725"
   sodipodi:docname="designer.svg">
  <metadata
     id="metadata354">
    <rdf:RDF>
      <cc:Work
         rdf:about="">
        <dc:format>image/svg+xml</dc:format>
        <dc:type
           rdf:resource="http://purl.org/dc/dcmitype/StillImage" />
      </cc:Work>
    </rdf:RDF>
  </metadata>
  <sodipodi:namedview
     pagecolor="#ffffff"
     bordercolor="#666666"
     borderopacity="1"
     objecttolerance="10"
     gridtolerance="10"
     guidetolerance="10"
     inkscape:pageopacity="0"
     inkscape:pageshadow="2"
     inkscape:window-width="640"
     inkscape:window-height="480"
     id="namedview352"
     showgrid="false"
     inkscape:zoom="2.4583333"
     inkscape:cx="48"
     inkscape:cy="48"
     inkscape:current-layer="svg142" />
  <defs
     id="defs144">
    <linearGradient
       x2="0"
       y1="20.221"
       y2="138.66"
       gradientUnits="userSpaceOnUse"
       id="linearGradient3613-94">
      <stop
         stop-color="#fff"
         id="stop147" />
      <stop
         stop-color="#fff"
         stop-opacity="0"
         offset="1"
         id="stop149" />
    </linearGradient>
    <filter
       x="-0.192"
       y="-0.192"
       height="1.384"
       color-interpolation-filters="sRGB"
       id="filter3794-787"
       width="1.384">
      <feGaussianBlur
         stdDeviation="5.28"
         id="feGaussianBlur152" />
    </filter>
    <clipPath
       id="clipPath3613-84">
      <use
         xlink:href="#SVGCleanerId_0"
         id="use155" />
    </clipPath>
    <linearGradient
       x2="0"
       y1="90"
       y2="5.988"
       gradientUnits="userSpaceOnUse"
       id="linearGradient95452"
       gradientTransform="matrix(1.1767,0,0,1.0442,-11.33,-2.01)">
      <stop
         stop-color="#509528"
         id="stop158" />
      <stop
         stop-color="#78cd46"
         offset="1"
         id="stop160" />
    </linearGradient>
    <filter
       color-interpolation-filters="sRGB"
       id="filter3963-20">
      <feGaussianBlur
         stdDeviation="0.91606"
         id="feGaussianBlur163" />
    </filter>
    <filter
       x="-0.933"
       y="-0.138"
       height="1.275"
       color-interpolation-filters="sRGB"
       id="filter3457-0"
       width="2.867">
      <feGaussianBlur
         stdDeviation="0.92808"
         id="feGaussianBlur166" />
    </filter>
    <filter
       x="-1.035"
       y="-0.136"
       height="1.272"
       color-interpolation-filters="sRGB"
       id="filter3451-4"
       width="3.07">
      <feGaussianBlur
         stdDeviation="0.94982"
         id="feGaussianBlur169" />
    </filter>
    <filter
       x="-0.61"
       y="-0.149"
       height="1.299"
       color-interpolation-filters="sRGB"
       id="filter3390-3"
       width="2.22">
      <feGaussianBlur
         stdDeviation="0.77813"
         id="feGaussianBlur172" />
    </filter>
    <filter
       x="-0.432"
       y="-0.114"
       height="1.227"
       color-interpolation-filters="sRGB"
       id="filter3382-6"
       width="1.863">
      <feGaussianBlur
         stdDeviation="0.73915"
         id="feGaussianBlur175" />
    </filter>
    <linearGradient
       xlink:href="#linearGradient3613-94"
       id="linearGradient5452-03" />
    <linearGradient
       id="linearGradient3339-0">
      <stop
         id="stop179" />
      <stop
         stop-opacity="0.498"
         offset="0.7"
         id="stop181" />
      <stop
         stop-opacity="0"
         offset="1"
         id="stop183" />
    </linearGradient>
    <filter
       x="-0.183"
       y="-0.177"
       height="1.353"
       color-interpolation-filters="sRGB"
       id="filter3509-4"
       width="1.367">
      <feGaussianBlur
         stdDeviation="0.65925"
         id="feGaussianBlur186" />
    </filter>
    <filter
       x="-0.429"
       y="-0.167"
       height="1.333"
       color-interpolation-filters="sRGB"
       id="filter3495-00"
       width="1.857">
      <feGaussianBlur
         stdDeviation="0.55243"
         id="feGaussianBlur189" />
    </filter>
    <linearGradient
       x1="61.3"
       x2="117.36"
       y1="121.33"
       y2="18.868"
       gradientUnits="userSpaceOnUse"
       id="linearGradient109055">
      <stop
         id="stop192" />
      <stop
         stop-opacity="0"
         offset="1"
         id="stop194" />
    </linearGradient>
    <linearGradient
       x1="136.41"
       x2="149.53"
       gradientUnits="userSpaceOnUse"
       id="linearGradient109057">
      <stop
         stop-color="#e6605b"
         id="stop197" />
      <stop
         stop-color="#f08682"
         offset="1"
         id="stop199" />
    </linearGradient>
    <linearGradient
       x1="137.41"
       x2="148.53"
       xlink:href="#linearGradient3339-0"
       gradientUnits="userSpaceOnUse"
       id="linearGradient109059"
       gradientTransform="matrix(1.0894,0,0,1,-13.276,0)" />
    <linearGradient
       x1="136"
       x2="150"
       gradientUnits="userSpaceOnUse"
       id="linearGradient109061"
       gradientTransform="translate(-23.733,0)">
      <stop
         stop-color="#945a00"
         id="stop203" />
      <stop
         stop-color="#e28e0a"
         offset="0.25"
         id="stop205" />
      <stop
         stop-color="#ffba14"
         offset="0.3"
         id="stop207" />
      <stop
         stop-color="#f3ac00"
         offset="0.7"
         id="stop209" />
      <stop
         stop-color="#ffd314"
         offset="0.75"
         id="stop211" />
      <stop
         stop-color="#ffed94"
         offset="1"
         id="stop213" />
    </linearGradient>
    <linearGradient
       x2="0"
       y1="0"
       y2="120.02"
       gradientUnits="userSpaceOnUse"
       id="linearGradient109063"
       gradientTransform="translate(-23.733,0)">
      <stop
         id="stop216" />
      <stop
         offset="0.066"
         id="stop218" />
      <stop
         stop-color="#ad5f1b"
         offset="0.07"
         id="stop220" />
      <stop
         stop-color="#ad601a"
         offset="0.191"
         id="stop222" />
      <stop
         stop-color="#785800"
         offset="0.21"
         id="stop224" />
      <stop
         stop-color="#785700"
         offset="1"
         id="stop226" />
    </linearGradient>
    <linearGradient
       x1="141.25"
       x2="144.81"
       gradientUnits="userSpaceOnUse"
       id="linearGradient109065"
       gradientTransform="translate(-23.733,0)">
      <stop
         id="stop229" />
      <stop
         stop-color="#7d7d7d"
         offset="0.5"
         id="stop231" />
      <stop
         offset="1"
         id="stop233" />
    </linearGradient>
    <linearGradient
       x1="136.99"
       x2="149"
       gradientUnits="userSpaceOnUse"
       id="linearGradient109067"
       gradientTransform="translate(-23.733,0)">
      <stop
         stop-color="#da8539"
         id="stop236" />
      <stop
         stop-color="#fadfc7"
         offset="1"
         id="stop238" />
    </linearGradient>
    <linearGradient
       x1="146.11"
       x2="146.08"
       xlink:href="#linearGradient3613-94"
       y1="118.94"
       y2="66"
       gradientUnits="userSpaceOnUse"
       id="linearGradient109069"
       gradientTransform="matrix(1,0,0,1.2654,-23.733,-54.36)" />
    <linearGradient
       x1="146.11"
       x2="146.08"
       xlink:href="#linearGradient3613-94"
       y1="118.94"
       y2="66"
       gradientUnits="userSpaceOnUse"
       id="linearGradient109071"
       gradientTransform="matrix(1,0,0,1.2654,-29.858,-54.36)" />
    <linearGradient
       x1="136"
       x2="150"
       gradientUnits="userSpaceOnUse"
       id="linearGradient109073">
      <stop
         stop-color="#404040"
         id="stop243" />
      <stop
         stop-color="#808080"
         offset="0.2"
         id="stop245" />
      <stop
         stop-color="#efefef"
         offset="0.7"
         id="stop247" />
      <stop
         stop-color="#dcdcdc"
         offset="1"
         id="stop249" />
    </linearGradient>
    <linearGradient
       x1="136"
       x2="150"
       gradientUnits="userSpaceOnUse"
       id="linearGradient109075">
      <stop
         stop-color="#444542"
         id="stop252" />
      <stop
         stop-color="#71746e"
         offset="1"
         id="stop254" />
    </linearGradient>
    <linearGradient
       x1="142.96"
       x2="148.96"
       xlink:href="#linearGradient3339-0"
       spreadMethod="reflect"
       gradientUnits="userSpaceOnUse"
       id="linearGradient109077"
       gradientTransform="translate(0.042,1.549)" />
    <linearGradient
       x1="142.96"
       x2="148.96"
       spreadMethod="reflect"
       gradientUnits="userSpaceOnUse"
       id="linearGradient109079"
       gradientTransform="matrix(1 0 0 1 0.042 2.549)">
      <stop
         stop-color="#fff"
         id="stop258" />
      <stop
         stop-color="#fff"
         stop-opacity="0.498"
         offset="0.7"
         id="stop260" />
      <stop
         stop-color="#fff"
         stop-opacity="0"
         offset="1"
         id="stop262" />
    </linearGradient>
    <linearGradient
       x1="137"
       x2="139.03"
       spreadMethod="repeat"
       gradientUnits="userSpaceOnUse"
       id="linearGradient109093">
      <stop
         stop-color="#3d3d3d"
         id="stop265" />
      <stop
         stop-color="#fff"
         offset="1"
         id="stop267" />
    </linearGradient>
    <rect
       x="6"
       rx="6"
       y="6"
       height="84"
       id="SVGCleanerId_0"
       width="84" />
    <linearGradient
       inkscape:collect="always"
       xlink:href="#linearGradient3613-94"
       id="linearGradient10174"
       gradientUnits="userSpaceOnUse"
       y1="20.221"
       x2="0"
       y2="138.66" />
    <linearGradient
       inkscape:collect="always"
       xlink:href="#linearGradient3339-0"
       id="linearGradient10176"
       gradientUnits="userSpaceOnUse"
       gradientTransform="translate(0.042,1.549)"
       spreadMethod="reflect"
       x1="142.96"
       x2="148.96" />
    <linearGradient
       inkscape:collect="always"
       xlink:href="#linearGradient109079"
       id="linearGradient10178"
       gradientUnits="userSpaceOnUse"
       gradientTransform="translate(0.042,2.549)"
       spreadMethod="reflect"
       x1="142.96"
       x2="148.96" />
    <linearGradient
       inkscape:collect="always"
       xlink:href="#linearGradient3339-0"
       id="linearGradient10180"
       gradientUnits="userSpaceOnUse"
       gradientTransform="translate(0.042,1.549)"
       spreadMethod="reflect"
       x1="142.96"
       x2="148.96" />
    <linearGradient
       inkscape:collect="always"
       xlink:href="#linearGradient109079"
       id="linearGradient10182"
       gradientUnits="userSpaceOnUse"
       gradientTransform="translate(0.042,2.549)"
       spreadMethod="reflect"
       x1="142.96"
       x2="148.96" />
    <linearGradient
       inkscape:collect="always"
       xlink:href="#linearGradient3339-0"
       id="linearGradient10184"
       gradientUnits="userSpaceOnUse"
       gradientTransform="translate(0.042,1.549)"
       spreadMethod="reflect"
       x1="142.96"
       x2="148.96" />
    <linearGradient
       inkscape:collect="always"
       xlink:href="#linearGradient109079"
       id="linearGradient10186"
       gradientUnits="userSpaceOnUse"
       gradientTransform="translate(0.042,2.549)"
       spreadMethod="reflect"
       x1="142.96"
       x2="148.96" />
    <linearGradient
       inkscape:collect="always"
       xlink:href="#linearGradient109079"
       id="linearGradient10188"
       gradientUnits="userSpaceOnUse"
       gradientTransform="translate(0.042,2.549)"
       spreadMethod="reflect"
       x1="142.96"
       x2="148.96" />
    <linearGradient
       inkscape:collect="always"
       xlink:href="#linearGradient14231"
       id="linearGradient14237"
       x1="50.707542"
       y1="81.682442"
       x2="50.707542"
       y2="96.539803"
       gradientUnits="userSpaceOnUse" />
    <linearGradient
       inkscape:collect="always"
       id="linearGradient14231">
      <stop
         style="stop-color:#000000;stop-opacity:1;"
         offset="0"
         id="stop14233" />
      <stop
         style="stop-color:#000000;stop-opacity:0;"
         offset="1"
         id="stop14235" />
    </linearGradient>
    <linearGradient
       inkscape:collect="always"
       xlink:href="#linearGradient14239"
       id="linearGradient14245"
       x1="49.876652"
       y1="87.937508"
       x2="49.876652"
       y2="76.719681"
       gradientUnits="userSpaceOnUse" />
    <linearGradient
       inkscape:collect="always"
       id="linearGradient14239">
      <stop
         style="stop-color:#ffffff;stop-opacity:1;"
         offset="0"
         id="stop14241" />
      <stop
         style="stop-color:#ffffff;stop-opacity:0;"
         offset="1"
         id="stop14243" />
    </linearGradient>
  </defs>
  <rect
     style="fill-opacity:0.02000002"
     id="rect272"
     width="89.620003"
     height="89.980003"
     y="2.9899757"
     rx="12.724"
     x="3.3529999" />
  <rect
     style="fill-opacity:0.03900003"
     id="rect274"
     width="88.410004"
     height="88.760002"
     y="3.6000221"
     rx="12.552"
     x="3.9590001" />
  <rect
     style="fill-opacity:0.078"
     id="rect276"
     width="87.199997"
     height="87.550003"
     y="4.2100072"
     rx="12.38"
     x="4.5640001" />
  <rect
     style="fill-opacity:0.15700001"
     id="rect278"
     width="85.990997"
     height="86.330002"
     y="4.8199925"
     rx="12.208"
     x="5.1700001" />
  <path
     inkscape:connector-curvature="0"
     style="fill:url(#linearGradient95452)"
     id="path280"
     d="m 17.75,5.4062 c -6.642,0 -11.969,5.3948 -11.969,12.063 l 2e-4,61.031 c 0,6.668 5.3268,12.031 11.969,12.031 l 60.812,0 c 6.642,0 11.969,-5.363 11.969,-12.031 l 0,-61.031 c 0,-6.668 -5.327,-12.063 -11.969,-12.063 l -60.812,2e-4 z" />
  <rect
     style="opacity:0.1;fill:url(#linearGradient10174);stroke:#ffffff;stroke-width:0.5;stroke-linecap:round;filter:url(#filter3794-787)"
     id="rect286"
     transform="translate(-3.141,-4.15)"
     width="66"
     height="66"
     clip-path="url(#clipPath3613-84)"
     y="15"
     rx="12"
     x="15" />
  <path
     style="opacity:0.07999998"
     inkscape:connector-curvature="0"
     id="path288"
     d="m 27.265,8.82 c -6.2255,-0.18408 -12.202,3.4632 -15.107,8.9354 -3.7416,6.8272 -4.061,15.151 -2.2398,22.602 1.3672,5.3317 4.4771,10.547 9.6721,12.894 2.6822,1.7129 6.9172,0.3801 7.3275,4.3688 2.087,4.4403 7.4457,5.7858 11.956,5.2828 1.4835,-0.014 3.6915,-0.2482 3.8282,-2.1453 -0.10477,-1.7419 0.22206,-3.5623 -0.1875,-5.25 -0.65066,-2.3485 -4.237,-0.037 -4.4369,-2.5677 -1.066,-1.9207 1.22,-2.7657 2.2807,-3.9636 4.1511,-5.0727 5.5179,-11.961 5.0625,-18.375 0.8335,0.82071 2.1035,0.44687 3.1562,0.53125 0.08133,5.0567 -0.19675,10.129 0.21642,15.17295 0.21704,3.7081 2.646,7.3021 6.3982,8.1399 3.7095,0.9613 7.7458,0.8013 11.385,-0.3124 1.5756,-1.0238 0.82637,-3.1011 1,-4.657 -0.11782,-1.586 0.26418,-3.2637 -0.25,-4.7805 -1.2355,-1.91615 -3.7785,-0.6249 -5.6044,-0.9651 -1.3128,-0.5348 -0.48583,-2.78755 -0.7081,-4.04575 l 0,-8.5516 c 1.6683,-0.12549 3.4333,0.27575 5.0312,-0.25 1.6882,-0.96516 0.92196,-3.1353 1.0938,-4.7194 -0.12419,-1.6892 0.2735,-3.4742 -0.25,-5.0931 -0.96516,-1.6882 -3.1353,-0.92196 -4.7194,-1.0938 -1.4273,0.45634 -1.1945,-0.74742 -1.1556,-1.7574 -0.09476,-2.1373 0.19572,-4.3283 -0.15625,-6.4302 -0.7934,-1.8414 -2.9941,-1.1476 -4.5553,-1.214 -1.5031,0.18271 -3.1614,-0.25253 -4.5385,0.46401 -1.2324,1.084 -0.98347,2.9505 -1.4759,4.4068 -0.32054,1.5102 -0.64108,3.0205 -0.96162,4.5307 -1.5338,0.10786 -3.7051,-0.51748 -4.4688,1.2812 -0.30964,0.98432 -0.09032,2.0443 -0.15625,3.0625 -1.4273,-6.6558 -5.9105,-13.174 -12.803,-14.906 C 30.3898,9.00805 28.8256,8.82022 27.2641,8.82073 Z m 0,12 c 3.5069,-0.1042 4.164,4.2346 4.5467,6.8832 0.36617,4.5039 0.5679,9.3393 -1.4016,13.522 -1.3624,3.1142 -6.2753,2.1561 -6.8718,-1.0421 -1.5274,-4.7209 -1.4986,-9.9012 -0.5197,-14.735 0.51691,-2.068 1.6091,-4.9208 4.2464,-4.6283 z" />
  <path
     style="opacity:0.15"
     inkscape:connector-curvature="0"
     id="path290"
     d="m 27.265,9.88 c -4.9478,4e-5 -9.0926,1.871 -12.156,5.5 -3.4792,4.116 -5.1875,9.6552 -5.1875,16.5 -2e-6,5.0985 0.98613,9.5783 3,13.406 a 1.0378,1.0378 0 0 0 0,0.031 c 2.9404,5.4782 7.6468,8.3642 13.625,8.5937 0.73684,2.7131 1.961,5.0254 4.1562,6.4063 2.4042,1.5122 5.6953,1.9436 10.062,1.2812 a 1.0378,1.0378 0 0 0 0.875,-1.0312 l 0,-4.2188 a 1.0378,1.0378 0 0 0 -1.125,-1.0312 c -1.7721,0.1633 -2.489,-0.1748 -3,-0.8438 -0.47776,-0.6255 -0.74682,-1.9279 -0.90625,-3.5937 1.046,-0.7388 2.0367,-1.5518 2.9062,-2.5938 a 1.0378,1.0378 0 0 0 0.03125,0 c 3.3375,-4.0075 4.9375,-9.53 4.9375,-16.406 -3.6e-5,-5.1442 -1.0339,-9.6411 -3.125,-13.469 -3.0981,-5.575 -7.9344,-8.5312 -14.094,-8.5312 z m 31.625,1.6875 -5.9375,0.15625 a 1.0378,1.0378 0 0 0 -0.96875,0.8125 l -1.8125,8.5 -3.375,0 a 1.0378,1.0378 0 0 0 -1.0312,1.0312 l 0,6.9688 a 1.0378,1.0378 0 0 0 1.0312,1.0312 l 2.8438,0 0,12.312 c -5e-6,3.73285 0.46827,6.45325 1.6875,8.25005 0.0068,0.01 0.02442,0.021 0.03125,0.031 1.5625,2.3525 4.6793,3.3437 8.9688,3.3438 1.478,-1e-4 3.2622,-0.2075 5.375,-0.6563 a 1.0378,1.0378 0 0 0 0.8125,-1 l 0,-6.625 a 1.0378,1.0378 0 0 0 -1.0938,-1.0312 c -1.4149,0.079 -2.4587,0.125 -3.125,0.125 -1.0424,0 -1.6407,-0.2346 -1.8125,-0.375 -0.02604,-0.021 -0.1917,-0.2323 -0.3125,-0.7188 -0.1208,-0.48646 -0.21876,-1.20635 -0.21875,-2.12495 l 0,-11.531 5.0938,0 a 1.0378,1.0378 0 0 0 1.0312,-1.0312 l 0,-6.9688 a 1.0378,1.0378 0 0 0 -1.0312,-1.0312 l -5.0938,0 0,-8.4375 a 1.0378,1.0378 0 0 0 -1.0625,-1.0312 z M 27.265,19.755 c 1.9607,10e-6 3.2352,0.79923 4.25,2.75 1.0148,1.95077 1.5937,5.1176 1.5938,9.4375 -1.2e-5,4.3199 -0.57811,7.5094 -1.5938,9.4688 -1.0156,1.9594 -2.2917,2.75 -4.25,2.75 -1.999,0 -3.3084,-0.8121 -4.3438,-2.7812 -1.0353,-1.9692 -1.625,-5.1618 -1.625,-9.5 -1.2e-5,-0.34698 -1.1e-5,-0.68479 0,-1.0312 l 0,-0.0313 c 0.11122,-3.9184 0.75988,-6.7996 1.7812,-8.5625 1.0245,-1.7683 2.2829,-2.5 4.1875,-2.5 z" />
  <path
     style="opacity:0.3"
     inkscape:connector-curvature="0"
     id="path292"
     d="m 27.265,10.91 c -4.6962,4e-5 -8.4908,1.7085 -11.375,5.125 -3.291,3.8933 -4.9375,9.1696 -4.9375,15.844 -2e-6,4.9659 0.95217,9.2826 2.875,12.938 2.9212,5.4425 7.4102,8.1562 13.438,8.1562 1.3023,5.816 4.8945,8.8753 13.344,7.5938 l 0,-4.2188 c -3.9333,0.3625 -4.7872,-1.7993 -5.0938,-5.625 l 0,-0.25 c 1.1833,-0.7548 2.2573,-1.6917 3.2188,-2.8437 3.1431,-3.7741 4.7187,-9.0362 4.7188,-15.75 -3.5e-5,-5.0056 -1.0032,-9.3138 -3,-12.969 -2.9582,-5.3234 -7.3451,-8 -13.188,-8 z m 31.656,1.6875 -5.9375,0.15625 -1.9688,9.3125 -4.2188,0 0,6.9688 3.875,0 0,13.344 c -5e-6,3.65485 0.5213,6.21755 1.5312,7.68755 1.2718,1.9466 3.973,2.9063 8.125,2.9063 1.384,0 3.0989,-0.188 5.1562,-0.625 l 0,-6.625 c -1.4214,0.079 -2.4768,0.125 -3.1875,0.125 -1.1596,0 -1.9825,-0.1966 -2.4688,-0.5938 -0.5985,-0.4768 -0.90626,-1.70965 -0.90625,-3.65625 l 0,-12.562 6.125,0 0,-6.9688 -6.125,0 0,-9.4688 z m -31.656,6.125 c 4.5852,3e-5 6.875,4.3994 6.875,13.219 -2.5e-5,8.8194 -2.2898,13.25 -6.875,13.25 -4.6592,0 -7,-4.4534 -7,-13.313 -1.2e-5,-0.35752 -1.2e-5,-0.70494 0,-1.0625 0.22185,-8.0645 2.5627,-12.094 7,-12.094 z" />
  <path
     style="fill:#ffffff"
     inkscape:connector-curvature="0"
     id="path294"
     d="m 27.265,9.91 c -4.6962,4e-5 -8.4908,1.7085 -11.375,5.125 -3.291,3.8933 -4.9375,9.1696 -4.9375,15.844 -2e-6,4.9659 0.95217,9.2826 2.875,12.938 2.9212,5.4425 7.4102,8.1562 13.438,8.1562 1.3023,5.816 4.8945,8.8753 13.344,7.5938 l 0,-4.2188 c -3.9333,0.3625 -4.7872,-1.7993 -5.0938,-5.625 l 0,-0.25 c 1.1833,-0.7548 2.2573,-1.6917 3.2188,-2.8437 3.1431,-3.7741 4.7187,-9.0362 4.7188,-15.75 -3.5e-5,-5.0056 -1.0032,-9.3138 -3,-12.969 -2.9582,-5.3234 -7.3451,-8 -13.188,-8 z m 31.656,1.6875 -5.9375,0.15625 -1.9688,9.3125 -4.2188,0 0,6.9688 3.875,0 0,13.344 c -5e-6,3.65485 0.5213,6.21755 1.5312,7.68755 1.2718,1.9466 3.973,2.9063 8.125,2.9063 1.384,0 3.0989,-0.188 5.1562,-0.625 l 0,-6.625 c -1.4214,0.079 -2.4768,0.125 -3.1875,0.125 -1.1596,0 -1.9825,-0.1966 -2.4688,-0.5938 -0.5985,-0.4768 -0.90626,-1.70965 -0.90625,-3.65625 l 0,-12.562 6.125,0 0,-6.9688 -6.125,0 0,-9.4688 z m -31.656,6.125 c 4.5852,3e-5 6.875,4.3994 6.875,13.219 -2.5e-5,8.8194 -2.2898,13.25 -6.875,13.25 -4.6592,0 -7,-4.4534 -7,-13.313 -1.2e-5,-0.35752 -1.2e-5,-0.70494 0,-1.0625 0.22185,-8.0645 2.5627,-12.094 7,-12.094 z" />
  <g
     id="g296"
     transform="matrix(0.85741,0,0,0.85741,11.245,7.55)">
    <path
       inkscape:connector-curvature="0"
       style="opacity:0.3;fill:url(#linearGradient109055);filter:url(#filter3963-20)"
       id="path298"
       transform="matrix(0.5507,0.09668,-0.09668,0.5507,26.931,12.279)"
       d="m 118.38,11.031 c -0.52336,-0.06895 -1.0579,-0.0102 -1.5625,0.125 -1.0064,0.26967 -1.8855,0.91897 -2.4375,1.875 l -2.0625,3.5625 a 1.0492,1.0492 0 0 0 -0.84375,0.53125 l -9.5,16.469 -36,62.344 a 1.0492,1.0492 0 0 0 -0.09375,0.25 l -6.386,24.032 a 1.0492,1.0492 0 0 0 1.75,1.03 l 17.625,-17.53 a 1.0492,1.0492 0 0 0 0.156,-0.22 l 36,-62.344 9.5,-16.469 a 1.0492,1.0492 0 0 0 0.0625,-0.90625 l 2.0938,-3.625 c 1.1113,-1.9248 0.4576,-4.4191 -1.4688,-5.5312 L 119.9,11.5618 c -0.47927,-0.2767 -1.0079,-0.4623 -1.5312,-0.53125 z" />
    <g
       id="g300"
       transform="matrix(-0.48421,-0.27956,0.27956,-0.48421,117.64,125.45)">
      <rect
         style="fill:url(#linearGradient109057);stroke:#df453f;stroke-width:1.78799999;stroke-linejoin:round"
         id="rect302"
         width="12.12"
         height="16"
         y="107.49"
         rx="3"
         x="136.91" />
      <path
         style="opacity:0.3;fill:#701300;filter:url(#filter3495-00)"
         inkscape:connector-curvature="0"
         id="path304"
         transform="matrix(1.8857,0,0,1,-123.51,-1.944)"
         d="m 141.24,118.19 a 1.5468,3.9775 0 1 1 -3.0936,0 1.5468,3.9775 0 1 1 3.0936,0 z" />
      <path
         style="opacity:0.8;fill:#ffffff;fill-rule:evenodd;filter:url(#filter3509-4)"
         inkscape:connector-curvature="0"
         id="path306"
         d="m 146.31,113.12 c -0.85193,9.5067 -3.9375,8.3125 -6.5,8.9375 4.0763,0.0625 8.625,-0.0625 8.625,-0.0625 -2.4375,-0.5625 -1.8125,-2.375 -2.125,-8.875 z" />
      <rect
         style="opacity:0.2;fill:url(#linearGradient109059)"
         id="rect308"
         width="12.12"
         height="1"
         y="115.97"
         x="136.41" />
      <g
         id="g310"
         transform="translate(23.733,0)">
        <path
           inkscape:connector-curvature="0"
           style="fill:url(#linearGradient109061);stroke:url(#linearGradient109063);stroke-width:1.78799999;stroke-linejoin:round"
           id="path312"
           d="m 112.77,24.5 6.5,-24 6.5,24 0,72 -13,0 0,-72 z" />
        <path
           inkscape:connector-curvature="0"
           style="fill:url(#linearGradient109065);fill-rule:evenodd"
           id="path314"
           d="m 117.69,8.0717 3.1426,0.022097 -1.5824,-5.7913" />
        <path
           inkscape:connector-curvature="0"
           style="fill:url(#linearGradient109067);fill-rule:evenodd"
           id="path316"
           d="m 117.73,8.0902 -3.77,13.91 c 0,0 -0.46779,1.6535 -0.698,2.6083 -0.19122,0.64228 1.9589,1.6113 3.0182,-1.6083 1.2153,4.5138 5.5759,3.438 5.9883,0.01105 0.3425,1.7015 1.754,2.95 2.9886,1.5219 -0.23478,-0.90874 -0.43641,-1.5219 -0.43641,-1.5219 l -4.0217,-14.921 -3.0715,0 z" />
        <path
           inkscape:connector-curvature="0"
           style="opacity:0.5;fill:none;stroke:url(#linearGradient109069);stroke-width:1.78799999"
           id="path318"
           d="m 122.37,96.305 0,-67.217" />
        <path
           inkscape:connector-curvature="0"
           style="opacity:0.5;fill:none;stroke:url(#linearGradient109071);stroke-width:1.78799999"
           id="path320"
           d="m 116.25,96.305 0,-67.217" />
        <path
           style="opacity:0.4;fill:#ac4311;fill-rule:evenodd;filter:url(#filter3382-6)"
           inkscape:connector-curvature="0"
           id="path322"
           d="m 118.7,5.9799 -4.773,17.899 1.9887,-0.83969 2.7842,-17.059 z" />
        <path
           style="opacity:0.15;fill:none;stroke:#4d2600;stroke-width:1.78799999"
           inkscape:connector-curvature="0"
           id="path324"
           d="m 113.08,24.625 c 0,0 1.4867,1.7649 3.25,-1.5312 2,5.25 5.1686,2.0871 5.9375,-0.03125 1.375,3.4375 3.125,1.4375 3.125,1.4375" />
        <path
           style="opacity:0.8;fill:#ffffff;fill-rule:evenodd;filter:url(#filter3390-3)"
           inkscape:connector-curvature="0"
           id="path326"
           transform="matrix(1.1224,0,0,1.345,-41.703,-4.771)"
           d="m 144.06,8.9375 -0.375,12.5 3.0625,-0.3125 L 144.06,8.937 Z" />
      </g>
      <rect
         style="fill:url(#linearGradient109073);stroke:url(#linearGradient109075);stroke-width:1.78799999;stroke-linejoin:round"
         id="rect328"
         width="13"
         height="19"
         y="96.5"
         x="136.5" />
      <rect
         style="opacity:0.4;fill:url(#linearGradient10176)"
         id="rect330"
         width="12"
         height="1"
         y="100"
         x="137" />
      <rect
         style="opacity:0.6;fill:url(#linearGradient10178)"
         id="rect332"
         width="12"
         height="1"
         y="101"
         x="137" />
      <rect
         style="opacity:0.4;fill:url(#linearGradient10180)"
         id="rect334"
         width="12"
         height="1"
         y="102"
         x="137" />
      <rect
         style="opacity:0.6;fill:url(#linearGradient10182)"
         id="rect336"
         width="12"
         height="1"
         y="103"
         x="137" />
      <rect
         style="opacity:0.4;fill:url(#linearGradient10184)"
         id="rect338"
         width="12"
         height="1"
         y="108"
         x="137" />
      <rect
         style="opacity:0.6;fill:url(#linearGradient10186)"
         id="rect340"
         width="12"
         height="1"
         y="109"
         x="137" />
      <rect
         style="opacity:0.4;fill:url(#linearGradient109077)"
         id="rect342"
         width="12"
         height="1"
         y="110"
         x="137" />
      <rect
         style="opacity:0.6;fill:url(#linearGradient10188)"
         id="rect344"
         width="12"
         height="1"
         y="111"
         x="137" />
      <rect
         style="opacity:0.3;fill:url(#linearGradient109093)"
         id="rect346"
         width="12"
         height="4"
         y="104"
         x="137" />
      <path
         style="opacity:0.6;filter:url(#filter3451-4)"
         inkscape:connector-curvature="0"
         id="path348"
         transform="matrix(1.2554,0,0,1,-35.754,0)"
         d="m 140,106.08 a 1.1013,8.3969 0 1 1 -2.2026,0 1.1013,8.3969 0 1 1 2.2026,0 z" />
      <path
         style="opacity:0.8;fill:#ffffff;filter:url(#filter3457-0)"
         inkscape:connector-curvature="0"
         id="path350"
         d="m 147.34,106.04 a 1.19325,8.0878389 0 1 1 -2.3865,0 1.19325,8.0878389 0 1 1 2.3865,0 z" />
    </g>
  </g>
  <g
     id="g14291">
    <path
       d="m 5.2922679,73.685059 0,5.0663 c 0,6.668 5.3645011,12.032 12.0320011,12.032 l 61.049,0 c 6.668,0 12.032,-5.3645 12.032,-12.032 l 0,-5.0663 c 0,6.6681 -5.3645,12.032 -12.032,12.032 l -61.049,0 c -6.668,0 -12.0320011,-5.3643 -12.0320011,-12.032 z"
       id="path64"
       inkscape:connector-curvature="0"
       style="opacity:0.4;fill:url(#linearGradient14237);fill-opacity:1" />
    <path
       inkscape:connector-curvature="0"
       id="path14214"
       d="m 5.2929688,72.717592 0,1.15039 c 0,6.667718 5.3632502,12.031248 12.0312502,12.031248 l 61.048828,0 c 6.6675,0 12.03125,-5.36313 12.03125,-12.031248 l 0,-1.15039 c 0,6.668098 -5.36375,12.031248 -12.03125,12.031248 l -61.048828,0 c -6.668,0 -12.0312502,-5.36355 -12.0312502,-12.031248 z"
       style="opacity:0.5;fill:url(#linearGradient14245);fill-opacity:1" />
  </g>
</svg>
