<svg height="96" width="96" xmlns="http://www.w3.org/2000/svg" xmlns:xlink="http://www.w3.org/1999/xlink" xmlns:sodipodi="http://sodipodi.sourceforge.net/DTD/sodipodi-0.dtd" xmlns:inkscape="http://www.inkscape.org/namespaces/inkscape">
 <defs>
  <linearGradient id="linearGradient3847-02">
   <stop stop-color="#fff"/>
   <stop stop-color="#fff" stop-opacity="0" offset="1"/>
  </linearGradient>
  <linearGradient x2="0" y1="90" y2="5.988" gradientUnits="userSpaceOnUse" id="linearGradient146146" gradientTransform="matrix(1.7437 0 0 1.1178 -46.33 -5.303)">
   <stop stop-color="#3f9fc5"/>
   <stop stop-color="#89cde9" offset="1"/>
  </linearGradient>
  <linearGradient x2="0" y1="64" y2="16" gradientUnits="userSpaceOnUse" id="linearGradient146149" gradientTransform="matrix(1 0 0 1 -164.34 953)">
   <stop stop-color="#1c4a5b"/>
   <stop stop-color="#228cb8" offset="1"/>
  </linearGradient>
  <linearGradient x1="44" x2="52" gradientUnits="userSpaceOnUse" id="linearGradient146151" gradientTransform="matrix(1 0 0 1 -164.34 953)">
   <stop stop-color="#e6e6e6"/>
   <stop stop-color="#b4b4b4" offset="1"/>
  </linearGradient>
  <radialGradient cy="45.17" r="7" gradientUnits="userSpaceOnUse" id="radialGradient146153" cx="48" gradientTransform="matrix(1.1429 0 0 1.4508 -171.2 932.47)">
   <stop stop-color="#47bbee"/>
   <stop stop-color="#175f7f" offset="1"/>
  </radialGradient>
  <linearGradient x2="0" xlink:href="#linearGradient3847-02" y1="52" y2="77.08" gradientUnits="userSpaceOnUse" id="linearGradient146155" gradientTransform="matrix(1 0 0 1 -164.34 953)"/>
  <radialGradient cy="47.93" r="6" xlink:href="#linearGradient3847-02" gradientUnits="userSpaceOnUse" id="radialGradient146157" cx="48" gradientTransform="matrix(1 0 0 0.83333 -164.34 959.06)"/>
 </defs>
 <g transform="matrix(1 0 0 1 0 -956.36)">
  <rect x="3.353" rx="12.724" y="959.35" fill-opacity="0.02" height="89.98" width="89.62"/>
  <rect x="3.959" rx="12.552" y="959.96" fill-opacity="0.039" height="88.76" width="88.41"/>
  <rect x="4.564" rx="12.38" y="960.57" fill-opacity="0.078" height="87.55" width="87.2"/>
  <rect x="5.17" rx="12.208" y="961.18" fill-opacity="0.157" height="86.33" width="85.991"/>
  <path d="m17.75 5.4062c-6.642 0-11.969 5.3948-11.969 12.063l0.0002 61.031c0 6.668 5.3268 12.031 11.969 12.031h60.812c6.642 0 11.969-5.363 11.969-12.031v-61.031c0-6.668-5.327-12.063-11.969-12.063l-60.812 0.0002z" fill="url(#linearGradient146146)" transform="matrix(1 0 0 1 0 956.36)"/>
  <path d="m5.7756 1033.9v1.0133c0 6.668 5.3434 12.032 11.985 12.032h60.809c6.6418 0 11.985-5.3645 11.985-12.032v-1.0133c0 6.6681-5.3434 12.032-11.985 12.032h-60.809c-6.6418 0-11.985-5.3644-11.985-12.032z" fill-opacity="0.098"/>
  <path d="m5.7756 1029.8v5.0663c0 6.668 5.3434 12.032 11.985 12.032h60.809c6.6418 0 11.985-5.3645 11.985-12.032v-5.0663c0 6.6681-5.3434 12.032-11.985 12.032h-60.809c-6.6418 0-11.985-5.3643-11.985-12.032z" fill-opacity="0.235"/>
  <g transform="matrix(1 0 0 1 164.28 1.818)">
   <path d="m-137.53 968.69a4.0004 4.0004 0 0 0 -2.875 1.25c-13.244 13.244-13.244 34.881 0 48.125a4.0217 4.0217 0 1 0 5.6875 -5.6875c-10.187-10.187-10.187-26.563 0-36.75a4.0004 4.0004 0 0 0 0.5625 -5.125 4.0004 4.0004 0 0 0 -3.375 -1.8125zm42.375 0a4.0004 4.0004 0 0 0 -3.375 1.8125 4.0004 4.0004 0 0 0 0.5625 5.125c10.187 10.187 10.187 26.563 0 36.75a4.0217 4.0217 0 1 0 5.6875 5.6875c13.244-13.244 13.244-34.881 0-48.125a4.0004 4.0004 0 0 0 -2.875 -1.25zm-32.906 10.062a4.0004 4.0004 0 0 0 -2.4688 1.2188c-7.777 7.777-7.777 20.504 0 28.281a4.0004 4.0004 0 1 0 5.6562 -5.6562c-4.7198-4.7198-4.7198-12.249 0-16.969a4.0004 4.0004 0 0 0 0.0937 -5.6562 4.0004 4.0004 0 0 0 -3.2812 -1.2188zm22.625 0a4.0004 4.0004 0 0 0 -2.4688 1.2188 4.0004 4.0004 0 0 0 0.0937 5.6562c4.7198 4.7198 4.7198 12.249 0 16.969a4.0004 4.0004 0 1 0 5.6562 5.6562c7.777-7.777 7.777-20.504 0-28.281a4.0004 4.0004 0 0 0 -3.2812 -1.2188z" fill="url(#linearGradient146149)" color="#000000" opacity="0.6"/>
   <path d="m-137.59 968.69c-0.88092 0.0444-1.6171 0.37964-2.2812 0.84375-0.11728 0.082-0.23145 0.15917-0.34375 0.25-0.0449 0.0382-0.0806 0.0863-0.125 0.125-0.29256 0.25484-0.5697 0.50594-0.84375 0.78125-0.15177 0.1661-0.29188 0.32594-0.4375 0.5-0.6553 0.78327-1.273 1.6411-1.9062 2.3438-0.21081 0.28995-0.42209 0.57999-0.625 0.875-0.0387 0.054-0.0866 0.10198-0.125 0.15625-0.31812 0.46645-0.63281 0.93713-0.9375 1.4062-0.0688 0.10587-0.15046 0.20682-0.21875 0.3125-0.0797 0.13032-0.141 0.27486-0.21875 0.40625-0.13833 0.23065-0.27414 0.45366-0.40625 0.6875-0.0753 0.13499-0.14539 0.27023-0.21875 0.40625-0.80143 1.486-1.4989 3.0359-2.0625 4.625-0.27408 0.77279-0.50119 1.553-0.71875 2.3438-0.009 0.032-0.0225 0.0617-0.0313 0.0937-0.21866 0.80389-0.40235 1.6196-0.5625 2.4375-0.14796 0.75567-0.27713 1.5172-0.375 2.2812-0.0173 0.13545-0.0467 0.2706-0.0625 0.40625-0.0613 0.52746-0.0875 1.064-0.125 1.5938-0.025 0.37408-0.0495 0.75026-0.0625 1.125-0.017 0.43741-0.0306 0.87478-0.0313 1.3125 0.001 0.42731 0.0147 0.85425 0.0313 1.2812 0.0127 0.36436 0.0385 0.73 0.0625 1.0938 0.0399 0.5686 0.0889 1.1216 0.15625 1.6875 0.008 0.0635 0.0233 0.12408 0.0313 0.1875 0.20332 1.6326 0.50604 3.2576 0.9375 4.8438 0.009 0.032 0.0224 0.062 0.0313 0.094 0.21756 0.7908 0.44467 1.571 0.71875 2.3438 0.28179 0.7945 0.59615 1.6039 0.9375 2.375 0.34135 0.771 0.72429 1.507 1.125 2.25 0.15389 0.2819 0.30596 0.5663 0.46875 0.8437 0.0719 0.1244 0.14511 0.2516 0.21875 0.375 0.0562 0.093 0.0991 0.1891 0.15625 0.2813 0.0553 0.086 0.13194 0.1643 0.1875 0.25 0.34942 0.5595 0.70841 1.1184 1.0938 1.6562 0.12382 0.18 0.24837 0.3529 0.375 0.5313 0.0848 0.1132 0.16352 0.2315 0.25 0.3437 0.009 0.01 0.0219 0.021 0.0313 0.031 0.76352 0.8533 1.4879 1.8787 2.3125 2.7812 0.41852 0.4204 0.84945 0.8169 1.3125 1.1875 0.678 0.4724 1.439 0.7799 2.3438 0.8125 0.14751 0 0.29555-0.02 0.4375-0.031 1.4681-0.2222 2.8119-1.3013 3.3438-2.6875 0.0679-0.1771 0.11626-0.3452 0.15625-0.5313 0.04-0.1861 0.0846-0.3696 0.0937-0.5625 0.0184-0.3859-0.0342-0.7878-0.15625-1.1875-0.4097-0.8773-0.96291-1.6714-1.5625-2.4375-0.86489-0.8968-1.6623-1.8619-2.375-2.875-0.0742-0.093-0.14599-0.1875-0.21875-0.2812-0.74667-0.9618-1.416-1.9866-1.8438-3.1563-0.20888-0.4058-0.37851-0.8345-0.5625-1.25-0.8356-1.8873-1.4156-3.8538-1.75-5.875-0.21102-1.2755-0.35698-2.5507-0.375-3.8438-0.005-0.17782 0.001-0.35338 0-0.53125 0.001-0.18724-0.005-0.3753 0-0.5625 0.018-1.293 0.16398-2.5995 0.375-3.875 0.40802-2.4662 1.1549-4.8762 2.3125-7.125 0.4277-1.1697 1.0971-2.1633 1.8438-3.125 0.0668-0.0979 0.15051-0.18425 0.21875-0.28125 0.70854-1.0072 1.4848-1.9827 2.3438-2.875 0.60553-0.77196 1.1806-1.5529 1.5938-2.4375 0.12203-0.39971 0.17463-0.8016 0.15625-1.1875-0.009-0.19295-0.0538-0.40763-0.0937-0.59375-0.0279-0.12981-0.0521-0.24943-0.0937-0.375-0.0169-0.0534-0.0436-0.1035-0.0625-0.15625-0.54342-1.4164-1.9322-2.4987-3.4375-2.6875-0.13606-0.0171-0.26888-0.0293-0.40625-0.0313zm42.312 0c-1.3136 0.0979-2.6005 0.88849-3.3125 2-0.06688 0.11561-0.13105 0.22263-0.1875 0.34375-0.02573 0.0507-0.03906 0.10441-0.0625 0.15625-0.05245 0.12435-0.1152 0.24664-0.15625 0.375-0.03382 0.10331-0.06937 0.20603-0.09375 0.3125-0.03071 0.13412-0.04777 0.26781-0.0625 0.40625-0.04088 0.38417-0.0047 0.78135 0.09375 1.1875 0.38246 0.97327 0.95219 1.8286 1.5938 2.6562 0.82863 0.8576 1.5919 1.7853 2.2812 2.75 0.01862 0.0227 0.04395 0.0398 0.0625 0.0625 0.86613 1.0615 1.6305 2.1816 2.0938 3.5 0.20891 0.40583 0.3785 0.83442 0.5625 1.25 1.3631 3.0785 2.0786 6.4078 2.125 9.75 0.002 0.072-0.0014 0.14677 0 0.21875 0.0012 0.22003 0.0043 0.43622 0 0.65625-0.000407 0.0734 0.001 0.14541 0 0.21875-0.04643 3.3422-0.76195 6.6402-2.125 9.7188-0.184 0.4156-0.35359 0.8442-0.5625 1.25-0.43775 1.2458-1.1597 2.303-1.9688 3.3125-0.04714 0.059-0.07731 0.1291-0.125 0.1875-0.73204 1.0343-1.5464 2.0256-2.4375 2.9375-0.60441 0.7925-1.1355 1.6038-1.5 2.5313-0.09849 0.4061-0.13463 0.8033-0.09375 1.1875 0.01473 0.1384 0.03179 0.2721 0.0625 0.4062 0.0119 0.052 0.01707 0.105 0.03125 0.1563 0.0147 0.053 0.04587 0.1042 0.0625 0.1562 0.05474 0.1685 0.14087 0.3413 0.21875 0.5 0.004 0.01-0.0041 0.023 0 0.031 0.06253 0.125 0.11195 0.2258 0.1875 0.3437 0.71757 1.1202 2.0192 1.912 3.3438 2 0.03235-0.0009 0.06116 0 0.09375 0 0.20189 0 0.39456 0.0008 0.59375-0.031 0.57503-0.093 1.143-0.3287 1.625-0.6563 0.01669-0.015 0.04584-0.016 0.0625-0.031 0.33531-0.3084 0.64822-0.6151 0.96875-0.9375 0.12796-0.1261 0.24947-0.2467 0.375-0.375 0.0562-0.059 0.10053-0.1286 0.15625-0.1875 0.379-0.4013 0.76829-0.7984 1.125-1.2188 0.40916-0.4822 0.80815-0.9945 1.1875-1.5 1.1381-1.5165 2.1395-3.1214 3-4.8125 0.28684-0.5637 0.55753-1.1396 0.8125-1.7187 0.06025-0.1369 0.12905-0.2686 0.1875-0.4063 0.18337-0.4355 0.36604-0.9009 0.53125-1.3437 0.44516-1.1854 0.81251-2.3974 1.125-3.625 0.15624-0.6139 0.28395-1.2536 0.40625-1.875 0.03892-0.1978 0.08956-0.3954 0.125-0.5938 0.07515-0.42637 0.15967-0.85301 0.21875-1.2812 0.01174-0.0838 0.02013-0.1661 0.03125-0.25 0.06679-0.51152 0.1126-1.0497 0.15625-1.5625 0.0018-0.0209-0.0018-0.0416 0-0.0625 0.05027-0.59989 0.10682-1.211 0.125-1.8125 0.000917-0.0311-0.000829-0.0627 0-0.0937 0.01679-0.61141 0.01686-1.2013 0-1.8125-0.000567-0.0207 0.000605-0.0419 0-0.0625-0.01804-0.61161-0.07278-1.2342-0.125-1.8438-0.0017-0.0208 0.0018-0.0417 0-0.0625-0.0516-0.60623-0.10359-1.2082-0.1875-1.8125-0.05847-0.41744-0.14497-0.83492-0.21875-1.25-0.03672-0.20834-0.08446-0.41723-0.125-0.625-0.1223-0.62144-0.25-1.2299-0.40625-1.8438-0.43182-1.6964-0.97261-3.3587-1.6562-4.9688-0.05737-0.13627-0.12836-0.27076-0.1875-0.40625-0.50994-1.1584-1.0824-2.3137-1.7188-3.4062-0.63639-1.0925-1.335-2.1453-2.0938-3.1562-0.37935-0.50549-0.77834-0.98659-1.1875-1.4688-0.40916-0.48216-0.84281-0.94939-1.2812-1.4062-0.12745-0.13281-0.2451-0.27569-0.375-0.40625-0.32053-0.31571-0.63311-0.6369-0.96875-0.9375-0.01866-0.0132-0.04362-0.0184-0.0625-0.0313-0.14807-0.10063-0.30848-0.2017-0.46875-0.28125-0.18071-0.0897-0.37037-0.15718-0.5625-0.21875-0.38425-0.12314-0.78372-0.18523-1.1875-0.1875-0.04183 0.002-0.08326-0.003-0.125 0zm-42.094 1.9688c1.6657 0.0545 2.6259 2.4486 1.25 3.5625-0.51383 0.49919-1.0011 1.0243-1.4688 1.5625-0.4238 0.48769-0.83341 0.9834-1.2188 1.5-0.1122 0.15042-0.20359 0.31604-0.3125 0.46875-0.047 0.0659-0.10978 0.12124-0.15625 0.1875-0.29194 0.41735-0.5763 0.84824-0.84375 1.2812-0.74643 1.2085-1.3857 2.4724-1.9375 3.7812-1.1036 2.6176-1.8345 5.3907-2.125 8.2188-0.0587 0.57171-0.0694 1.1447-0.0937 1.7188-0.0104 0.34463-0.0334 0.68641-0.0313 1.0312-0.002 0.33984 0.0213 0.69161 0.0313 1.0312 0.0244 0.57406 0.035 1.147 0.0937 1.7188 0.29046 2.8281 1.0214 5.6324 2.125 8.25 0.53924 1.2791 1.181 2.5038 1.9062 3.6875 0.029 0.047 0.0332 0.109 0.0625 0.1562 0.35018 0.5591 0.73621 1.0919 1.125 1.625 0.0308 0.042 0.0627 0.083 0.0937 0.125 0.39929 0.541 0.81303 1.0827 1.25 1.5938 0.0192 0.022 0.0432 0.04 0.0625 0.063 0.45889 0.5262 0.93437 1.0112 1.4375 1.5 1.4677 1.1882 0.27537 3.8215-1.5938 3.5312-0.27012-0.039-0.54234-0.1157-0.78125-0.25-0.14798-0.1331-0.29279-0.2696-0.4375-0.4062l-0.0625 0.063c-1.9344-1.8855-3.5548-4.0316-4.9062-6.3438-0.57922-0.991-1.1256-2.0144-1.5938-3.0625-0.18488-0.4139-0.36394-0.8286-0.53125-1.25-0.0462-0.1126-0.08-0.2308-0.125-0.3437-0.0247-0.061-0.0382-0.126-0.0625-0.1875-0.11723-0.3109-0.23605-0.6232-0.34375-0.9375-0.20548-0.578-0.3933-1.1618-0.5625-1.75-0.42644-1.4827-0.73756-3.0047-0.9375-4.5313-0.0977-0.74632-0.17413-1.4986-0.21875-2.25-0.007-0.10404 0.006-0.2084 0-0.3125-0.0285-0.5739-0.0646-1.144-0.0625-1.7188-0.002-0.5747 0.034-1.1448 0.0625-1.7188 0.006-0.1041-0.007-0.20846 0-0.3125 0.0446-0.75136 0.12101-1.5037 0.21875-2.25 0.19823-1.5136 0.51665-2.9983 0.9375-4.4688 0.0116-0.0417 0.0194-0.0834 0.0313-0.125 0.14308-0.49191 0.30027-0.98401 0.46875-1.4688 0.12947-0.38658 0.26243-0.77487 0.40625-1.1562 0.024-0.0608 0.0381-0.12688 0.0625-0.1875 0.0334-0.0839 0.0597-0.1663 0.0937-0.25 0.57956-1.4727 1.271-2.8801 2.0625-4.25 0.0535-0.0923 0.10187-0.18953 0.15625-0.28125 0.27175-0.45926 0.57965-0.89899 0.875-1.3438 0.63362-0.95417 1.322-1.8718 2.0625-2.75 0.61064-0.72414 1.2244-1.4604 1.9062-2.125l0.0625 0.0625c0.14471-0.13662 0.28952-0.27311 0.4375-0.40625 0.23891-0.13428 0.51113-0.21111 0.78125-0.25 0.11682-0.0181 0.2327-0.0349 0.34375-0.0313zm41.969 0.0313c0.6663-0.0143 1.2092 0.25153 1.6875 0.625l0.03125-0.0313c0.04154 0.0415 0.08369 0.0832 0.125 0.125 0.18497 0.15808 0.3313 0.34353 0.5 0.53125 0.0557 0.0589 0.101 0.12818 0.15625 0.1875 1.1279 1.2109 2.1667 2.5042 3.0938 3.875 0.34673 0.51269 0.68395 1.0303 1 1.5625 0.08579 0.14446 0.16654 0.29168 0.25 0.4375 0.0071 0.0124 0.02416 0.0189 0.03125 0.0313 0.39683 0.67835 0.75382 1.3886 1.0938 2.0938 0.004 0.008-0.004 0.0229 0 0.0313 1.3771 2.8639 2.2995 5.9263 2.75 9.0625 0.0015 0.0101-0.0015 0.0211 0 0.0313 0.22296 1.5628 0.34754 3.1392 0.34375 4.7188 0.000034 0.0103-0.000025 0.0209 0 0.0313-0.0026 0.78452-0.0356 1.5613-0.09375 2.3438-0.000718 0.0104 0.000728 0.0208 0 0.0313-0.05889 0.78245-0.13584 1.5676-0.25 2.3438-0.0015 0.0102 0.0015 0.021 0 0.0313-0.4505 3.1362-1.3729 6.1986-2.75 9.0625-0.0041 0.01 0.0041 0.023 0 0.031-0.33654 0.709-0.70314 1.3806-1.0938 2.0625-0.0072 0.012-0.02404 0.019-0.03125 0.031-0.08346 0.1458-0.16421 0.293-0.25 0.4375-0.31605 0.5322-0.65327 1.0498-1 1.5625-0.44887 0.6637-0.93991 1.3095-1.4375 1.9375-0.50904 0.6425-1.037 1.2734-1.5938 1.875-0.25522 0.3063-0.48934 0.6027-0.78125 0.8438-0.02255 0.019-0.03965 0.044-0.0625 0.063-0.48207 0.3805-1.0451 0.6081-1.7188 0.5937-1.447-0.1486-2.3004-1.8659-1.5312-3.0937 1.8087-1.8614 3.4621-3.8859 4.7812-6.125 0.21519-0.3653 0.42857-0.7175 0.625-1.0938 0.0043-0.01-0.0043-0.023 0-0.031 0.20026-0.3847 0.38354-0.7911 0.5625-1.1875 0.16749-0.3483 0.31784-0.7081 0.46875-1.0625 0.48905-1.2033 0.92871-2.4281 1.25-3.6875 0.34624-1.3573 0.60388-2.732 0.75-4.125 0.002-0.0207-0.002-0.0418 0-0.0625 0.04595-0.44737 0.06881-0.8948 0.09375-1.3438 0.0054-0.11474-0.004-0.22894 0-0.34375 0.01305-0.37588 0.03316-0.74882 0.03125-1.125 0.0016-0.36043-0.01907-0.73359-0.03125-1.0938-0.0054-0.12484 0.0071-0.25023 0-0.375-0.02089-0.44464-0.05169-0.86943-0.09375-1.3125-0.0021-0.0204 0.0021-0.0421 0-0.0625-0.1461-1.3934-0.40368-2.7987-0.75-4.1562-0.32129-1.2594-0.76095-2.4842-1.25-3.6875-0.15091-0.35448-0.30126-0.71428-0.46875-1.0625-0.1827-0.40471-0.35761-0.79504-0.5625-1.1875-0.1954-0.37968-0.41207-0.75482-0.625-1.125-1.3191-2.2391-2.9725-4.2637-4.7812-6.125-0.76913-1.2278 0.08427-2.9451 1.5312-3.0938zm-32.219 8.0312c-2.9389 0.10461-4.491 3.0872-5.9688 5.2188-0.88854 1.46-1.5762 3.0226-2.0312 4.6562-0.14625 0.52501-0.27278 1.0582-0.375 1.5938-0.008 0.0401 0.007 0.0849 0 0.125-0.076 0.41204-0.13726 0.8338-0.1875 1.25-0.0251 0.20812-0.0438 0.41615-0.0625 0.625-0.0327 0.36538-0.0493 0.72699-0.0625 1.0938-0.0123 0.34173-0.0359 0.68925-0.0313 1.0312 0.002 0.11555 0.0271 0.22827 0.0313 0.34375 0.0139 0.38765 0.0267 0.77017 0.0625 1.1562 0.0144 0.15584 0.0132 0.31332 0.0313 0.46875 0.0543 0.46888 0.13171 0.9426 0.21875 1.4062 0.10434 0.55578 0.22331 1.1117 0.375 1.6562 0.45507 1.6337 1.1427 3.1962 2.0312 4.6563 1.4778 2.1314 3.0299 5.1141 5.9688 5.2188 2.2246 0.025 3.8743-1.8814 3.9688-3.9063-0.009-0.106-0.0121-0.2048-0.0313-0.3125-0.32861-1.1779-1.0037-2.2051-1.75-3.1875-0.005-0.01 0.005-0.025 0-0.031-1.2401-1.6304-2.6379-3.1705-2.75-5.3751-0.12266-0.57159-0.19081-1.1444-0.21875-1.7188-0.0163-0.20747-0.0265-0.41661-0.0313-0.625 0.00018-0.0208-0.00029-0.0417 0-0.0625-0.004-0.23967 0.0196-0.4785 0.0313-0.71875 0.0279-0.57436 0.0961-1.1472 0.21875-1.7188 0.11214-2.2047 1.5099-3.7759 2.75-5.4062 0.005-0.006-0.005-0.0255 0-0.0313 0.74633-0.98244 1.4214-1.9784 1.75-3.1562 0.0173-0.097 0.0222-0.18564 0.0313-0.28125-0.0788-2.0363-1.7327-3.9944-3.9688-3.9688zm22.625 0c-2.2781-0.10845-3.9568 1.9552-4.0312 4.0312-0.00075 0.0209 0.00042 0.0416 0 0.0625 0.00053 0.0104-0.00061 0.0209 0 0.0313 0.0545 0.93303 0.44096 1.828 1.2188 2.5 2.3837 2.2386 3.5386 5.4384 3.5 8.625 0.0387 3.1866-1.1163 6.3864-3.5 8.625-0.77779 0.672-1.1643 1.5669-1.2188 2.5-0.001 0.02 0.00088 0.042 0 0.063 0.00028 0.01-0.00035 0.021 0 0.031 0.0737 2.0766 1.7525 4.1397 4.0312 4.0313 0.66347-0.01 1.3284-0.1738 1.9062-0.5 4.0069-3.233 6.271-8.1397 6.6875-13.219 0.0054-0.0838 0.02688-0.16609 0.03125-0.25 0.0079-0.11275-0.0061-0.23088 0-0.34375 0.01653-0.30802 0.02836-0.62905 0.03125-0.9375-0.0031-0.31406-0.01404-0.62391-0.03125-0.9375-0.0037-0.10427 0.0053-0.20831 0-0.3125-0.0051-0.0733-0.02535-0.14547-0.03125-0.21875-0.40983-5.09-2.6725-10.042-6.6875-13.281-0.57782-0.32621-1.2428-0.49049-1.9062-0.5zm-0.0313 1.7188c0.31916-0.006 0.65616 0.061 0.96875 0.25 3.5096 3.0467 5.4222 7.5431 5.6875 12.125 0.0063 0.0948 0.02641 0.1864 0.03125 0.28125 0.0027 0.0617-0.002 0.12572 0 0.1875 0.01909 0.46469 0.01542 0.94132 0 1.4062-0.0022 0.0527 0.0027 0.10361 0 0.15625-0.0035 0.0846-0.0266 0.16545-0.03125 0.25-0.25323 4.6005-2.1642 9.0977-5.6875 12.156-1.5094 0.9126-3.379-0.7278-2.9688-2.2812 0.0269-0.2568 0.10441-0.5162 0.25-0.75 1.6653-1.8639 3.257-3.9289 3.9062-6.4064 0.19728-0.62374 0.3396-1.2379 0.4375-1.875 0.001-0.0102-0.001-0.021 0-0.0313 0.0474-0.31337 0.10071-0.62271 0.125-0.9375 0.00074-0.0104-0.00072-0.0208 0-0.0313 0.0228-0.30483 0.0295-0.63246 0.0313-0.9375-0.00002-0.021 0.00012-0.0415 0-0.0625 0.00032-0.30436-0.0112-0.60282-0.0313-0.90625-0.001-0.0206 0.002-0.0419 0-0.0625-0.0215-0.30365-0.0836-0.60466-0.125-0.90625-0.003-0.0201 0.003-0.0424 0-0.0625-0.0979-0.6269-0.24333-1.2611-0.4375-1.875-0.6492-2.4774-2.2409-4.5424-3.9062-6.4062-0.14559-0.234-0.22308-0.4934-0.25-0.75-0.32533-1.2317 0.77801-2.5096 2-2.5312zm-22.438 0.0313c1.2364 0.0388 1.8986 1.233 1.7812 2.3125 0.0144 0.52845-0.13847 1.0552-0.59375 1.4375-2.6424 2.5144-4.0012 6.0781-4.0625 9.6562-0.00072 0.0417 0.00036 0.0833 0 0.125 0.00011 0.0105-0.00013 0.0208 0 0.0313-0.00007 0.0105 0.00005 0.0208 0 0.0313 0.054 3.5887 1.4124 7.1346 4.0625 9.6563 0.459 0.3854 0.61157 0.9359 0.59375 1.4687 0.11734 1.0795-0.54486 2.2424-1.7812 2.2813-2.0756 0-3.0416-2.418-4.1875-3.8125-1.7373-2.6923-2.6124-5.8529-2.6875-9.0313-0.0202-0.44202-0.0111-0.87026 0-1.3125 0.0793-3.1694 0.95499-6.3153 2.6875-9 1.1459-1.3946 2.112-3.8398 4.1875-3.8438z" color="#000000" opacity="0.05"/>
   <path d="m-133.53 973.25a4.0004 4.0004 0 0 1 -1.1875 2.375c-5.0299 5.0299-7.5621 11.568-7.625 18.125 0.29845-6.22 2.8498-12.35 7.625-17.125a4.0004 4.0004 0 0 0 1.1875 -3.375zm34.375 0a4.0004 4.0004 0 0 0 1.1875 3.375c4.7752 4.7752 7.3265 10.905 7.625 17.125-0.06287-6.5575-2.5951-13.095-7.625-18.125a4.0004 4.0004 0 0 1 -1.1875 -2.375zm-24.531 10a4.0004 4.0004 0 0 1 -1.1875 2.375c-2.4909 2.4909-3.6695 5.77-3.5312 9 0.12058-2.8949 1.2988-5.7676 3.5312-8a4.0004 4.0004 0 0 0 1.1875 -3.375zm14.688 0.0313a4.0004 4.0004 0 0 0 1.1875 3.3438c2.2324 2.2324 3.4107 5.1051 3.5312 8 0.13828-3.23-1.0404-6.5091-3.5312-9a4.0004 4.0004 0 0 1 -1.1875 -2.3438zm-41.344 11.219c-0.12975 8.887 3.188 17.813 9.9375 24.563a4.0217 4.0217 0 0 0 6.8125 -3.3437 4.0217 4.0217 0 0 1 -6.8125 2.3437c-6.4949-6.495-9.8126-15.011-9.9375-23.563zm68 0c-0.12486 8.5518-3.4426 17.068-9.9375 23.563a4.0217 4.0217 0 0 1 -6.8438 -2.2812 4.0217 4.0217 0 0 0 6.8438 3.2812c6.7495-6.7495 10.067-15.676 9.9375-24.563zm-54 0.125c-0.12957 5.2902 1.7985 10.611 5.8125 14.625a4.0004 4.0004 0 0 0 6.8438 -3.25 4.0004 4.0004 0 0 1 -6.8438 2.25c-3.7609-3.7609-5.6891-8.6684-5.8125-13.625zm40 0c-0.12339 4.9566-2.0516 9.8642-5.8125 13.625a4.0004 4.0004 0 0 1 -6.8438 -2.3125 4.0004 4.0004 0 0 0 6.8438 3.3125c4.014-4.014 5.9421-9.3348 5.8125-14.625z" fill="#fff" color="#000000" opacity="0.2"/>
   <path d="m-137.53 968.69a4.0004 4.0004 0 0 0 -2.875 1.25c-6.7495 6.7495-10.067 15.675-9.9375 24.562 0.12486-8.5518 3.4426-17.068 9.9375-23.562a4.0004 4.0004 0 0 1 2.875 -1.25 4.0004 4.0004 0 0 1 3.375 1.8125 4.0004 4.0004 0 0 1 0.625 1.75 4.0004 4.0004 0 0 0 -0.625 -2.75 4.0004 4.0004 0 0 0 -3.375 -1.8125zm42.375 0a4.0004 4.0004 0 0 0 -3.375 1.8125 4.0004 4.0004 0 0 0 -0.625 2.75 4.0004 4.0004 0 0 1 0.625 -1.75 4.0004 4.0004 0 0 1 3.375 -1.8125 4.0004 4.0004 0 0 1 2.875 1.25c6.4949 6.4949 9.8126 15.011 9.9375 23.562 0.12975-8.887-3.188-17.813-9.9375-24.562a4.0004 4.0004 0 0 0 -2.875 -1.25zm-32.469 10.031a4.0004 4.0004 0 0 0 -0.4375 0.0313 4.0004 4.0004 0 0 0 -2.4688 1.2188c-4.0161 4.0161-5.9443 9.3634-5.8125 14.656 0.12147-4.9594 2.0495-9.8933 5.8125-13.656a4.0004 4.0004 0 0 1 2.4688 -1.2188 4.0004 4.0004 0 0 1 3.2812 1.2188 4.0004 4.0004 0 0 1 1.0938 2.2812 4.0004 4.0004 0 0 0 -1.0938 -3.2812 4.0004 4.0004 0 0 0 -2.8438 -1.25zm22.625 0a4.0004 4.0004 0 0 0 -0.4375 0.0313 4.0004 4.0004 0 0 0 -2.4688 1.2188 4.0004 4.0004 0 0 0 -1.0938 3.3125 4.0004 4.0004 0 0 1 1.0938 -2.3125 4.0004 4.0004 0 0 1 2.4688 -1.2188 4.0004 4.0004 0 0 1 3.2812 1.2188c3.763 3.763 5.691 8.6969 5.8125 13.656 0.13176-5.2929-1.7964-10.64-5.8125-14.656a4.0004 4.0004 0 0 0 -2.8438 -1.25zm-23.406 15.906c-0.13435 3.2255 1.0439 6.4814 3.5312 8.9688a4.0004 4.0004 0 0 1 1.1875 2.4062 4.0004 4.0004 0 0 0 -1.1875 -3.4062c-2.2289-2.2289-3.4075-5.0786-3.5312-7.9688zm24.125 0c-0.12373 2.8902-1.3024 5.7399-3.5312 7.9688a4.0004 4.0004 0 0 0 -1.1875 3.3437 4.0004 4.0004 0 0 1 1.1875 -2.3437c2.4874-2.4874 3.6656-5.7433 3.5312-8.9688zm-38.062 0.625c0.0629 6.5575 2.5951 13.095 7.625 18.125a4.0217 4.0217 0 0 1 1.125 2.2813 4.0217 4.0217 0 0 0 -1.125 -3.2813c-4.7752-4.7752-7.3266-10.905-7.625-17.125zm52 0c-0.29845 6.22-2.8498 12.35-7.625 17.125a4.0217 4.0217 0 0 0 -1.1562 3.4063 4.0217 4.0217 0 0 1 1.1562 -2.4063c5.0299-5.0299 7.5621-11.568 7.625-18.125z" color="#000000" opacity="0.3"/>
   <path d="m-137.53 968.69a4.0004 4.0004 0 0 0 -1.1875 0.1875 4.0217 4.0217 0 0 0 -0.34375 0.0937 4.0004 4.0004 0 0 0 -0.0313 0.0313 4.0004 4.0004 0 0 0 -1.3125 0.9375c-3.725 3.725-6.4016 8.102-8.0312 12.781-0.35543 1.0205-0.68174 2.0494-0.9375 3.0938-0.005 0.0197 0.005 0.0428 0 0.0625-0.12934 0.53221-0.24028 1.0882-0.34375 1.625-0.0963 0.50696-0.20799 1.0211-0.28125 1.5312-0.003 0.0205 0.003 0.0419 0 0.0625-0.0737 0.52-0.13773 1.0402-0.1875 1.5625-0.002 0.0206 0.002 0.0419 0 0.0625-0.0488 0.52228-0.10012 1.0388-0.125 1.5625-0.001 0.0306 0.001 0.0631 0 0.0937-0.023 0.51374-0.0313 1.0483-0.0313 1.5625-0.00004 0.0209 0 0.0415 0 0.0625 0.00096 0.52406 0.006 1.0389 0.0313 1.5625 0.00096 0.0209-0.00099 0.0416 0 0.0625 0.0258 0.52364 0.0752 1.0403 0.125 1.5625 0.003 0.0306-0.003 0.0632 0 0.0937 0.0502 0.51194 0.11432 1.0216 0.1875 1.5312 0.004 0.0308-0.004 0.063 0 0.0937 0.0746 0.50997 0.18357 1.0245 0.28125 1.5313 0.004 0.02-0.004 0.042 0 0.063 0.20497 1.0532 0.47665 2.0916 0.78125 3.125 0.006 0.019-0.006 0.043 0 0.063 1.5558 5.2444 4.4074 10.189 8.5312 14.312a4.0004 4.0004 0 0 0 1.3125 0.9063 4.0217 4.0217 0 0 0 0.25 0.094 4.0004 4.0004 0 0 0 0.125 0.063 4.0217 4.0217 0 0 0 0.40625 0.094 4.0004 4.0004 0 0 0 0.375 0.063 4.0217 4.0217 0 0 0 0.4375 0.031 4.0004 4.0004 0 0 0 0.75 -0.094 4.0217 4.0217 0 0 0 0.0313 0 4.0004 4.0004 0 0 0 0.0937 -0.031 4.0217 4.0217 0 0 0 0.3125 -0.094 4.0217 4.0217 0 0 0 0.375 -0.125 4.0217 4.0217 0 0 0 1.5312 -1.1563 4.0004 4.0004 0 0 0 0.0313 -0.063 4.0217 4.0217 0 0 0 -0.34375 -5.3125c-3.1835-3.1835-5.3687-6.9855-6.5625-11-0.006-0.019 0.006-0.043 0-0.063-0.2397-0.8131-0.43558-1.6092-0.59375-2.4376-0.0756-0.38868-0.16109-0.76516-0.21875-1.1562-0.003-0.0208 0.003-0.0417 0-0.0625-0.0553-0.38125-0.11803-0.77336-0.15625-1.1562-0.003-0.0308 0.003-0.0629 0-0.0937-0.0378-0.39245-0.0739-0.76276-0.0937-1.1562-0.00099-0.0207 0.00095-0.0418 0-0.0625-0.0199-0.41467 0-0.83496 0-1.25 0.00099-0.41493-0.0209-0.83549 0-1.25 0.0189-0.39405 0.0569-0.79446 0.0937-1.1875 0.002-0.0209-0.002-0.0416 0-0.0625 0.0369-0.383 0.10233-0.77485 0.15625-1.1562 0.004-0.03-0.004-0.0638 0-0.0937 0.0567-0.39119 0.14406-0.76743 0.21875-1.1562 0.004-0.0201-0.004-0.0424 0-0.0625 0.0757-0.38887 0.15634-0.77043 0.25-1.1562 0.005-0.0197-0.005-0.0428 0-0.0625 0.19421-0.79179 0.44872-1.5692 0.71875-2.3438 1.2516-3.5901 3.3071-6.9634 6.1875-9.8438a4.0217 4.0217 0 0 0 0.34375 -5.3125 4.0217 4.0217 0 0 0 -0.0313 -0.0625 4.0004 4.0004 0 0 0 -0.21875 -0.25 4.0217 4.0217 0 0 0 -1.3125 -0.90625 4.0217 4.0217 0 0 0 -0.375 -0.15625 4.0217 4.0217 0 0 0 -0.75 -0.15625 4.0004 4.0004 0 0 0 -0.0313 0 4.0217 4.0217 0 0 0 -0.4375 -0.0313zm42.188 0a4.0217 4.0217 0 0 0 -0.21875 0.0313 4.0004 4.0004 0 0 0 -0.1875 0.0313 4.0217 4.0217 0 0 0 -0.40625 0.0625 4.0217 4.0217 0 0 0 -0.375 0.125 4.0217 4.0217 0 0 0 -0.375 0.15625 4.0004 4.0004 0 0 0 -0.15625 0.0625 4.0217 4.0217 0 0 0 -0.1875 0.125 4.0004 4.0004 0 0 0 -0.15625 0.0937 4.0217 4.0217 0 0 0 -0.1875 0.15625 4.0217 4.0217 0 0 0 -0.375 6.0312c2.8804 2.8804 4.936 6.2537 6.1875 9.8438 0.27003 0.77459 0.52454 1.552 0.71875 2.3438 0.005 0.0197-0.005 0.0428 0 0.0625 0.0937 0.38582 0.17433 0.76738 0.25 1.1562 0.004 0.0201-0.004 0.0424 0 0.0625 0.0747 0.38882 0.16203 0.76506 0.21875 1.1562 0.004 0.0299-0.004 0.0638 0 0.0937 0.0539 0.3814 0.1194 0.77325 0.15625 1.1562 0.002 0.0209-0.002 0.0416 0 0.0625 0.0369 0.39304 0.0748 0.79345 0.0937 1.1875 0.001 0.0206-0.00099 0.0419 0 0.0625 0.018 0.39397 0 0.79321 0 1.1875 0.00005 0.0207 0 0.0417 0 0.0625-0.00095 0.39429 0.0189 0.79357 0 1.1875-0.00095 0.0207 0.00099 0.0418 0 0.0625-0.0198 0.39349-0.056 0.7638-0.0937 1.1562-0.003 0.0308 0.003 0.0629 0 0.0937-0.0382 0.38289-0.10097 0.775-0.15625 1.1562-0.003 0.0208 0.003 0.0417 0 0.0625-0.0577 0.39109-0.14312 0.76757-0.21875 1.1562-0.15817 0.82835-0.35405 1.6244-0.59375 2.4376-0.006 0.019 0.006 0.043 0 0.063-1.1938 4.0145-3.379 7.8165-6.5625 11a4.0217 4.0217 0 0 0 0.0937 5.7813 4.0217 4.0217 0 0 0 0.28125 0.25 4.0217 4.0217 0 0 0 0.34375 0.2187 4.0004 4.0004 0 0 0 0.25 0.1563 4.0217 4.0217 0 0 0 0.4688 0.2187 4.0004 4.0004 0 0 0 0.1875 0.063 4.0217 4.0217 0 0 0 0.59375 0.125 4.0004 4.0004 0 0 0 0.1875 0.031 4.0217 4.0217 0 0 0 0.625 0.031 4.0004 4.0004 0 0 0 0.1875 -0.031 4.0217 4.0217 0 0 0 0.40625 -0.063 4.0004 4.0004 0 0 0 0.75 -0.25 4.0004 4.0004 0 0 0 1.3125 -0.9063c4.1238-4.1237 6.9755-9.068 8.5312-14.312 0.006-0.019-0.006-0.043 0-0.063 0.3046-1.0335 0.57628-2.0719 0.78125-3.125 0.004-0.02-0.004-0.042 0-0.063 0.0977-0.5068 0.20663-1.0213 0.28125-1.5313 0.004-0.0308-0.004-0.063 0-0.0937 0.0732-0.50963 0.13732-1.0193 0.1875-1.5312 0.003-0.0306-0.003-0.0632 0-0.0937 0.0498-0.5222 0.0992-1.0389 0.125-1.5625 0.00099-0.0209-0.00096-0.0416 0-0.0625 0.0254-0.53403 0.0308-1.0592 0.0312-1.5938-0.00052-0.56521-0.003-1.1229-0.0312-1.6875-0.0249-0.52368-0.0762-1.0402-0.125-1.5625-0.002-0.0206 0.002-0.0419 0-0.0625-0.0498-0.52235-0.11379-1.0425-0.1875-1.5625-0.003-0.0206 0.003-0.042 0-0.0625-0.0733-0.51013-0.18494-1.0243-0.28125-1.5312-0.10347-0.53682-0.21441-1.0928-0.34375-1.625-0.005-0.0197 0.005-0.0428 0-0.0625-0.25576-1.0443-0.58207-2.0732-0.9375-3.0938-1.6297-4.6792-4.3063-9.0563-8.0312-12.781a4.0004 4.0004 0 0 0 -0.59375 -0.53125 4.0004 4.0004 0 0 0 -0.34375 -0.21875 4.0004 4.0004 0 0 0 -0.5625 -0.25 4.0004 4.0004 0 0 0 -0.5625 -0.15625 4.0004 4.0004 0 0 0 -0.40625 -0.0625 4.0004 4.0004 0 0 0 -0.375 -0.0313 4.0217 4.0217 0 0 0 -0.0312 0 4.0004 4.0004 0 0 0 -0.1875 0zm-42.5 0.96875c0.0828-0.009 0.0731 0.005 0.15625 0 0.0831-0.005 0.073 0.00063 0.15625 0 0.10328-0.00067 0.0844-0.006 0.1875 0 0.10312 0.006 0.0849 0.0191 0.1875 0.0313 0.10256 0.0122 0.0859-0.0186 0.1875 0 0.10159 0.0186 0.0873 0.0376 0.1875 0.0625 0.10024 0.0249 0.089 0.00018 0.1875 0.0313 0.0985 0.0311 0.0911 0.0254 0.1875 0.0625s0.0624 0.0507 0.15625 0.0937c0.0939 0.0431 0.0965 0.0136 0.1875 0.0625s0.0685 0.0393 0.15625 0.0937c0.0878 0.0544 0.072 0.0652 0.15625 0.125 0.0842 0.0598 0.076 0.0288 0.15625 0.0937 0.0803 0.0649 0.0802 0.0552 0.15625 0.125 0.0761 0.0698 0.0534 0.0818 0.125 0.15625 0.0716 0.0744 0.0582 0.0462 0.125 0.125s0.0632 0.0735 0.125 0.15625c0.0618 0.0828 0.0373 0.0698 0.0937 0.15625 0.0807 0.12028 0.0864 0.0919 0.15625 0.21875 0.0699 0.12687 0.0665 0.1175 0.125 0.25s0.047 0.1129 0.0937 0.25 0.028 0.10934 0.0625 0.25 0.0404 0.10686 0.0625 0.25 0.0217 0.13672 0.0313 0.28125c0.01 0.14453 0.003 0.10519 0 0.25s-0.0154 0.13727-0.0313 0.28125c-0.0158 0.14398-0.003 0.10796-0.0313 0.25s-0.0219 0.14223-0.0625 0.28125-0.0411 0.11506-0.0937 0.25-0.0295 0.0889-0.0937 0.21875c-0.0642 0.12982-0.0497 0.12629-0.125 0.25s-0.0704 0.1021-0.15625 0.21875c-0.0859 0.11665-0.0605 0.11005-0.15625 0.21875-0.0957 0.1087-0.0826 0.0876-0.1875 0.1875a0.96391 0.96391 0 0 0 -0.0313 0c-2.9678 2.9678-5.1078 6.4529-6.4062 10.156-0.28854 0.82296-0.5439 1.6581-0.75 2.5-0.0944 0.39154-0.17337 0.79292-0.25 1.1875-0.004 0.0204 0.004 0.0421 0 0.0625-0.0776 0.40453-0.15985 0.81173-0.21875 1.2188-0.003 0.0202 0.003 0.0422 0 0.0625-0.0579 0.40684-0.11701 0.81014-0.15625 1.2188-0.002 0.0206 0.002 0.0419 0 0.0625-0.0383 0.40849-0.0741 0.80921-0.0937 1.2188-0.0226 0.43997-0.0302 0.87206-0.0313 1.3125 0 0.43082 0.0106 0.85082 0.0313 1.2812 0.00096 0.021-0.001 0.0415 0 0.0625 0.0206 0.40951 0.0545 0.81033 0.0937 1.2188 0.003 0.0305-0.003 0.0632 0 0.0937 0.0396 0.39819 0.0989 0.79103 0.15625 1.1875 0.004 0.0308-0.005 0.0629 0 0.0937 0.0588 0.39673 0.14217 0.79318 0.21875 1.1875 0.006 0.0302-0.006 0.0636 0 0.0937 0.078 0.39438 0.15421 0.79622 0.25 1.1876 0.005 0.02-0.005 0.042 0 0.063 0.0992 0.4012 0.22584 0.7902 0.34375 1.1875 0.006 0.019-0.006 0.043 0 0.063 0.11896 0.3975 0.2685 0.7946 0.40625 1.1875 1.2984 3.7033 3.4384 7.1884 6.4062 10.156a0.96391 0.96391 0 0 0 0.0313 0c0.10486 0.1 0.0918 0.079 0.1875 0.1875 0.0957 0.1087 0.0704 0.1021 0.15625 0.2188 0.0859 0.1166 0.0809 0.095 0.15625 0.2187 0.0753 0.1237 0.0608 0.1202 0.125 0.25s0.0411 0.084 0.0937 0.2188c0.0526 0.1349 0.0531 0.1109 0.0937 0.25 0.0406 0.139 0.0342 0.1392 0.0625 0.2812 0.0284 0.142 0.0155 0.106 0.0313 0.25s0.0281 0.1364 0.0313 0.2813c0.003 0.1448 0.01 0.1054 0 0.25-0.01 0.1445-0.009 0.1381-0.0313 0.2812-0.0221 0.1431-0.028 0.1093-0.0625 0.25s-0.0158 0.1129-0.0625 0.25-0.0352 0.1175-0.0937 0.25-0.0551 0.1231-0.125 0.25-0.0755 0.098-0.15625 0.2188c-0.0565 0.086-0.032 0.073-0.0937 0.1562-0.0618 0.083-0.0582 0.077-0.125 0.1563-0.0668 0.079-0.0534 0.05-0.125 0.125-0.0716 0.074-0.0489 0.086-0.125 0.1562-0.0761 0.07-0.076 0.06-0.15625 0.125-0.0803 0.065-0.072 0.034-0.15625 0.094-0.0842 0.06-0.0685 0.07-0.15625 0.125-0.0878 0.054-0.0653 0.045-0.15625 0.094-0.091 0.049-0.0936 0.019-0.1875 0.063-0.0939 0.043-0.0599 0.057-0.15625 0.094-0.0964 0.037-0.089 0.031-0.1875 0.063-0.0985 0.031-0.0873 0.01-0.1875 0.031-0.10024 0.025-0.0859 0.044-0.1875 0.063-0.10159 0.019-0.0849-0.012-0.1875 0-0.10256 0.012-0.0844 0.025-0.1875 0.031-0.10312 0.01-0.0842 0.0006-0.1875 0-0.0833-0.0007-0.0731 0-0.15625 0-0.0831 0-0.0735 0.01-0.15625 0-0.0828-0.01-0.0428-0.018-0.125-0.031s-0.0748-0.014-0.15625-0.031c-0.0815-0.017-0.0757-0.01-0.15625-0.031-0.0805-0.021-0.0769-0.01-0.15625-0.031-0.0793-0.025-0.047-0.033-0.125-0.063-0.0779-0.029-0.0799-0.029-0.15625-0.063-0.0764-0.033-0.0504-0.026-0.125-0.063s-0.0836-0.022-0.15625-0.063c-0.0727-0.041-0.0545-0.05-0.125-0.094s-0.0568-0.015-0.125-0.063-0.0593-0.043-0.125-0.094-0.062-0.039-0.125-0.094c-0.063-0.054-0.0335-0.067-0.0937-0.125-0.0506-0.048-0.0568-0.062-0.0937-0.094h-0.0313c-3.6269-3.632-6.2327-7.9096-7.8125-12.469-0.16951-0.4864-0.35381-0.9764-0.5-1.4687-0.006-0.019 0.006-0.043 0-0.063-0.1451-0.492-0.28441-0.9718-0.40625-1.4688-0.005-0.02 0.005-0.043 0-0.063-0.12092-0.4972-0.24609-0.9987-0.34375-1.5-0.004-0.02 0.004-0.042 0-0.063-0.0966-0.50105-0.17657-0.99572-0.25-1.5-0.003-0.0207 0.003-0.0418 0-0.0625-0.071-0.49441-0.13876-1.0034-0.1875-1.5-0.003-0.0308 0.003-0.0629 0-0.0937-0.0473-0.49651-0.0999-1.0022-0.125-1.5-0.001-0.0311 0.001-0.0627 0-0.0937-0.0251-0.52883-0.0313-1.0332-0.0313-1.5625 0.00099-0.52921 0.005-1.0651 0.0313-1.5938 0.0242-0.50822 0.0776-1.0244 0.125-1.5312 0.002-0.0208-0.002-0.0417 0-0.0625 0.0483-0.50655 0.116-0.99573 0.1875-1.5 0.003-0.0205-0.003-0.042 0-0.0625 0.0711-0.49473 0.15656-1.0083 0.25-1.5 0.10097-0.53129 0.2167-1.0358 0.34375-1.5625 0.005-0.0197-0.005-0.0428 0-0.0625 1.3812-5.6791 4.3027-11.047 8.7188-15.469h0.0313c0.0369-0.0316 0.0432-0.0454 0.0937-0.0937 0.0602-0.0575 0.0307-0.0706 0.0937-0.125s0.0593-0.0426 0.125-0.0937c0.0657-0.0512 0.0568-0.0459 0.125-0.0937s0.0545-0.0182 0.125-0.0625 0.0523-0.053 0.125-0.0937 0.0816-0.0255 0.15625-0.0625c0.0746-0.037 0.0486-0.0293 0.125-0.0625s0.0783-0.0332 0.15625-0.0625c0.078-0.0293 0.0457-0.0371 0.125-0.0625s0.0757-0.01 0.15625-0.0313c0.0805-0.0213 0.0748-0.014 0.15625-0.0313 0.0815-0.0173 0.074-0.0181 0.15625-0.0313 0.0822-0.0131 0.0422-0.0223 0.125-0.0313zm42.5 0c0.10312-0.006 0.0842-0.00067 0.1875 0 0.0833 0.00063 0.0731-0.005 0.15625 0 0.0831 0.005 0.0735-0.009 0.15625 0 0.0828 0.009 0.0428 0.0181 0.125 0.0313 0.0822 0.0131 0.0748 0.014 0.15625 0.0313 0.0815 0.0173 0.0757 0.01 0.15625 0.0313 0.0805 0.0213 0.0769 0.006 0.15625 0.0313 0.0793 0.0254 0.047 0.0332 0.125 0.0625s0.0799 0.0293 0.15625 0.0625c0.0764 0.0332 0.0504 0.0255 0.125 0.0625s0.0836 0.0218 0.15625 0.0625c0.0726 0.0407 0.0545 0.0494 0.125 0.0937s0.0568 0.0147 0.125 0.0625 0.0593 0.0426 0.125 0.0937c0.0657 0.0512 0.062 0.0393 0.125 0.0937s0.0335 0.0675 0.0937 0.125c0.0506 0.0483 0.0568 0.0621 0.0937 0.0937 0.007 0.006 0.0221-0.01 0.0312 0 4.416 4.4221 7.3376 9.7896 8.7188 15.469 0.005 0.0197-0.005 0.0428 0 0.0625 0.12705 0.52671 0.24278 1.0312 0.34375 1.5625 0.0934 0.49167 0.1789 1.0053 0.25 1.5 0.003 0.0205-0.003 0.042 0 0.0625 0.0715 0.50427 0.1392 0.99345 0.1875 1.5 0.002 0.0208-0.002 0.0417 0 0.0625 0.0474 0.50686 0.10084 1.023 0.125 1.5312 0.0266 0.53904 0.0308 1.0854 0.0312 1.625-0.00049 0.51874-0.007 1.013-0.0312 1.5312-0.001 0.0311 0.001 0.0626 0 0.0937-0.0251 0.49785-0.0777 1.0035-0.125 1.5-0.003 0.0308 0.003 0.0629 0 0.0937-0.0487 0.49663-0.11645 1.0056-0.1875 1.5-0.003 0.0207 0.003 0.0418 0 0.0625-0.0734 0.50428-0.15335 0.99895-0.25 1.5-0.004 0.02 0.004 0.042 0 0.063-0.0977 0.5013-0.22283 1.0028-0.34375 1.5-0.005 0.02 0.005 0.043 0 0.063-0.12184 0.497-0.26114 0.9768-0.40625 1.4688-0.006 0.019 0.006 0.043 0 0.063-0.14619 0.4923-0.33049 0.9823-0.5 1.4687-1.5798 4.5592-4.1856 8.8368-7.8125 12.469h-0.0312c-0.0369 0.032-0.0432 0.045-0.0937 0.094-0.0602 0.058-0.0308 0.071-0.0937 0.125-0.063 0.054-0.0593 0.043-0.125 0.094s-0.0568 0.046-0.125 0.094-0.0545 0.018-0.125 0.063c-0.0705 0.044-0.0524 0.053-0.125 0.094-0.0727 0.041-0.0816 0.025-0.15625 0.063-0.0746 0.037-0.0486 0.029-0.125 0.063-0.0763 0.033-0.0782 0.033-0.15625 0.063-0.078 0.029-0.0457 0.037-0.125 0.063-0.0794 0.025-0.0757 0.01-0.15625 0.031-0.0805 0.021-0.0747 0.014-0.15625 0.031-0.0814 0.017-0.074 0.018-0.15625 0.031-0.0822 0.013-0.0422 0.022-0.125 0.031-0.0828 0.01-0.0731 0-0.15625 0-0.0831 0-0.0729-0.0007-0.15625 0-0.1033 0.0006-0.0844 0.01-0.1875 0s-0.0849-0.019-0.1875-0.031c-0.1025-0.012-0.0859 0.019-0.1875 0s-0.0873-0.038-0.1875-0.063-0.089-0.0002-0.1875-0.031c-0.0985-0.031-0.0911-0.025-0.1875-0.063-0.0964-0.037-0.0624-0.051-0.15625-0.094-0.0939-0.043-0.0965-0.014-0.1875-0.063s-0.0684-0.039-0.15625-0.094c-0.0877-0.055-0.0721-0.065-0.15625-0.125-0.0841-0.06-0.076-0.029-0.15625-0.094-0.0803-0.065-0.0802-0.055-0.15625-0.125-0.0761-0.07-0.0534-0.082-0.125-0.1562-0.0716-0.075-0.0582-0.046-0.125-0.125s-0.0632-0.074-0.125-0.1563c-0.0617-0.083-0.0373-0.07-0.0937-0.1562-0.0807-0.1203-0.0863-0.092-0.15625-0.2188-0.0699-0.1269-0.0665-0.1175-0.125-0.25s-0.047-0.1129-0.0937-0.25-0.028-0.1093-0.0625-0.25-0.0404-0.1069-0.0625-0.25c-0.0222-0.1431-0.0212-0.1367-0.0312-0.2812-0.01-0.1446-0.003-0.1052 0-0.25 0.003-0.1449 0.0155-0.1373 0.0312-0.2813s0.003-0.108 0.0312-0.25c0.0283-0.142 0.0219-0.1422 0.0625-0.2812 0.0406-0.1391 0.0412-0.1151 0.0937-0.25 0.0526-0.135 0.0296-0.089 0.0937-0.2188 0.0642-0.1298 0.0497-0.1263 0.125-0.25 0.0754-0.1237 0.0704-0.1021 0.15625-0.2187 0.0858-0.1167 0.0606-0.1101 0.15625-0.2188 0.0957-0.1087 0.0827-0.088 0.1875-0.1875a0.96391 0.96391 0 0 0 0.0312 0c2.9678-2.9678 5.1078-6.4529 6.4062-10.156 0.13775-0.3929 0.28729-0.79 0.40625-1.1875 0.006-0.019-0.006-0.043 0-0.063 0.11791-0.3973 0.24458-0.7863 0.34375-1.1875 0.005-0.02-0.005-0.042 0-0.063 0.0958-0.39133 0.17202-0.79317 0.25-1.1876 0.006-0.0302-0.006-0.0636 0-0.0937 0.0766-0.39432 0.15995-0.79077 0.21875-1.1875 0.004-0.0308-0.004-0.0629 0-0.0937 0.0574-0.39647 0.11662-0.78931 0.15625-1.1875 0.003-0.0305-0.003-0.0632 0-0.0937 0.0392-0.40842 0.0732-0.80924 0.0937-1.2188 0.001-0.021-0.00096-0.0415 0-0.0625 0.0206-0.43043 0.0312-0.85043 0.0312-1.2812-0.001-0.44044-0.009-0.87253-0.0312-1.3125-0.0196-0.40954-0.0555-0.81026-0.0937-1.2188-0.002-0.0206 0.002-0.0419 0-0.0625-0.0392-0.40861-0.0983-0.81191-0.15625-1.2188-0.003-0.0203 0.003-0.0423 0-0.0625-0.0589-0.40702-0.14115-0.81422-0.21875-1.2188-0.004-0.0204 0.004-0.0421 0-0.0625-0.0766-0.39458-0.15556-0.79596-0.25-1.1875-0.2061-0.84191-0.46146-1.677-0.75-2.5-1.2984-3.7033-3.4384-7.1884-6.4062-10.156a0.96391 0.96391 0 0 0 -0.0312 0c-0.10481-0.0999-0.0918-0.0788-0.1875-0.1875s-0.0704-0.1021-0.15625-0.21875c-0.0859-0.11665-0.0809-0.095-0.15625-0.21875-0.0753-0.12371-0.0608-0.12018-0.125-0.25s-0.0412-0.0838-0.0937-0.21875c-0.0526-0.13494-0.0532-0.11098-0.0937-0.25-0.0406-0.13902-0.0342-0.13921-0.0625-0.28125s-0.0156-0.10602-0.0312-0.25c-0.0158-0.14398-0.0281-0.13644-0.0312-0.28125-0.003-0.14481-0.01-0.10547 0-0.25s0.009-0.13811 0.0312-0.28125c0.0221-0.14314 0.028-0.10934 0.0625-0.25s0.0158-0.1129 0.0625-0.25 0.0353-0.1175 0.0937-0.25c0.0585-0.1325 0.0551-0.12313 0.125-0.25s0.0756-0.0985 0.15625-0.21875c0.0565-0.0865 0.032-0.0735 0.0937-0.15625 0.0618-0.0828 0.0582-0.0775 0.125-0.15625 0.0668-0.0788 0.0534-0.0506 0.125-0.125s0.0489-0.0864 0.125-0.15625c0.0761-0.0698 0.076-0.0601 0.15625-0.125 0.0803-0.065 0.0721-0.0339 0.15625-0.0937 0.0842-0.0598 0.0685-0.0706 0.15625-0.125 0.0878-0.0544 0.0653-0.0449 0.15625-0.0937 0.091-0.0489 0.0936-0.0194 0.1875-0.0625s0.0599-0.0566 0.15625-0.0937c0.0964-0.0371 0.089-0.0314 0.1875-0.0625s0.0873-0.006 0.1875-0.0313c0.10024-0.0249 0.0859-0.0439 0.1875-0.0625 0.10159-0.0186 0.085 0.0122 0.1875 0 0.10255-0.0122 0.0844-0.0255 0.1875-0.0313zm-32.281 9.0625a4.0004 4.0004 0 0 0 -0.4375 0.0313 4.0004 4.0004 0 0 0 -2.4688 1.2188c-3.4024 3.4024-5.3247 7.7504-5.75 12.219-0.0484 0.59636-0.0983 1.1833-0.0937 1.7812-0.00039 0.0515 0 0.1047 0 0.15625 0.008 0.5376 0.0428 1.0894 0.0937 1.625 0.4253 4.4684 2.3476 8.8162 5.75 12.219a4.0004 4.0004 0 0 0 2.4688 1.2187 4.0004 4.0004 0 0 0 0.4375 0.031 4.0004 4.0004 0 0 0 2.8438 -1.25 4.0004 4.0004 0 0 0 1.125 -2.5938 4.0004 4.0004 0 0 0 0 -0.094 4.0004 4.0004 0 0 0 -1.2188 -2.6875c-2.1386-2.1386-3.2994-4.8555-3.5-7.625-0.0319-0.3299-0.0269-0.66893-0.0313-1 0.004-0.33107-0.00064-0.6701 0.0313-1 0.19567-2.7775 1.3554-5.4804 3.5-7.625a4.0004 4.0004 0 0 0 1.1875 -2.4062 4.0004 4.0004 0 0 0 0.0312 -0.1875 4.0004 4.0004 0 0 0 0 -0.21875 4.0004 4.0004 0 0 0 -1.125 -2.5625 4.0004 4.0004 0 0 0 -2.8438 -1.25zm22.625 0a4.0004 4.0004 0 0 0 -0.4375 0.0313 4.0004 4.0004 0 0 0 -2.4688 1.2188 4.0004 4.0004 0 0 0 -1.125 2.5 4.0004 4.0004 0 0 0 0 0.40625 4.0004 4.0004 0 0 0 1.2188 2.4688c2.1446 2.1446 3.3043 4.8475 3.5 7.625 0.0269 0.2784 0.024 0.56442 0.0312 0.84375 0 0.38278 0.006 0.77484-0.0312 1.1562-0.20055 2.7695-1.3614 5.4865-3.5 7.6251a4.0004 4.0004 0 0 0 -1.2188 2.4687 4.0004 4.0004 0 0 0 0 0.375 4.0004 4.0004 0 0 0 0 0.031 4.0004 4.0004 0 0 0 1.125 2.5 4.0004 4.0004 0 0 0 2.4688 1.2187 4.0004 4.0004 0 0 0 0.4375 0.031 4.0004 4.0004 0 0 0 2.8438 -1.25c3.4024-3.4025 5.3247-7.7504 5.75-12.219 0.0608-0.63834 0.0937-1.2967 0.0937-1.9375-0.008-0.5376-0.0428-1.0894-0.0937-1.625-0.4253-4.4684-2.3476-8.8163-5.75-12.219a4.0004 4.0004 0 0 0 -2.8438 -1.25zm-22.688 0.6875c0.0823-0.00084 0.074 0.0279 0.15625 0.0313 0.0823 0.003 0.0743-0.007 0.15625 0 0.082 0.007 0.0748-0.0114 0.15625 0 0.0815 0.0114 0.0755 0.0158 0.15625 0.0313 0.0808 0.0154 0.0451 0.0118 0.125 0.0313 0.0799 0.0194 0.0774 0.008 0.15625 0.0313 0.0789 0.0234 0.0787 0.0352 0.15625 0.0625 0.0776 0.0273 0.0488 0.0314 0.125 0.0625s0.0505 0.0276 0.125 0.0625c0.0746 0.0349 0.0836 0.024 0.15625 0.0625 0.0727 0.0385 0.0543 0.0204 0.125 0.0625s0.0565 0.0482 0.125 0.0937 0.0588 0.0449 0.125 0.0937c0.0662 0.0489 0.0613 0.0104 0.125 0.0625s0.064 0.0698 0.125 0.125 0.0356 0.0356 0.0937 0.0937c0.0581 0.0582 0.0386 0.0327 0.0937 0.0937 0.0552 0.061 0.0729 0.0613 0.125 0.125s0.0136 0.0588 0.0625 0.125c0.0488 0.0662 0.0483 0.0565 0.0937 0.125 0.0455 0.0685 0.0517 0.0543 0.0937 0.125 0.0421 0.0707 0.024 0.0523 0.0625 0.125s0.0276 0.0817 0.0625 0.15625c0.0349 0.0745 0.0314 0.0488 0.0625 0.125s0.0352 0.0474 0.0625 0.125 0.0391 0.0774 0.0625 0.15625c0.0232 0.0789 0.0119 0.0763 0.0313 0.15625 0.0194 0.0799 0.0159 0.0442 0.0313 0.125s0.0199 0.0748 0.0313 0.15625c0.0114 0.0815-0.007 0.0743 0 0.15625 0.007 0.082-0.003 0.074 0 0.15625 0.003 0.0822 0.0321 0.074 0.0313 0.15625-0.0008 0.0823-0.0262 0.0429-0.0313 0.125-0.005 0.0821 0.009 0.0745 0 0.15625-0.00041 0.0131 0.0003 0.015 0 0.0313-0.003 0.16242 0.0186 0.11988 0 0.28125s-0.0282 0.15373-0.0625 0.3125-0.044 0.12661-0.0937 0.28125-0.0292 0.13222-0.0937 0.28125c-0.0646 0.14903-0.0461 0.10803-0.125 0.25s-0.0638 0.11645-0.15625 0.25c-0.0925 0.13355-0.0824 0.12615-0.1875 0.25-0.10511 0.12385-0.0708 0.1058-0.1875 0.21875a0.96391 0.96391 0 0 0 -0.0313 0c-2.2235 2.2235-3.4721 5.0471-3.75 7.9375-0.0348 0.36143-0.0582 0.73102-0.0625 1.0938 0.004 0.36273 0.0277 0.73232 0.0625 1.0938 0.27793 2.8904 1.5265 5.714 3.75 7.9376a0.96391 0.96391 0 0 0 0.0313 0c0.1167 0.113 0.0824 0.095 0.1875 0.2188 0.1051 0.1237 0.095 0.1164 0.1875 0.25 0.0924 0.1335 0.0774 0.1079 0.15625 0.25 0.0789 0.1418 0.0604 0.1009 0.125 0.25 0.0646 0.149 0.044 0.1266 0.0937 0.2812 0.0497 0.1545 0.0594 0.1224 0.0937 0.2813 0.0343 0.1586 0.0439 0.1511 0.0625 0.3125 0.0186 0.1612-0.003 0.1187 0 0.2812 0.002 0.01-0.002 0.015 0 0.031 0.009 0.082-0.005 0.074 0 0.1562 0.005 0.082 0.0305 0.043 0.0313 0.125 0.00084 0.082-0.028 0.074-0.0313 0.1563-0.003 0.082 0.007 0.074 0 0.1562-0.007 0.082 0.0114 0.075 0 0.1563-0.0114 0.081-0.0159 0.075-0.0313 0.1562-0.0154 0.081-0.0118 0.045-0.0313 0.125-0.0194 0.08-0.008 0.077-0.0313 0.1563-0.0234 0.079-0.0352 0.079-0.0625 0.1562-0.0273 0.078-0.0314 0.049-0.0625 0.125s-0.0276 0.05-0.0625 0.125c-0.0349 0.074-0.024 0.083-0.0625 0.1563-0.0385 0.073-0.0204 0.054-0.0625 0.125s-0.0482 0.056-0.0937 0.125c-0.0455 0.068-0.045 0.059-0.0937 0.125-0.0489 0.066-0.0104 0.061-0.0625 0.125s-0.0698 0.064-0.125 0.125-0.0356 0.035-0.0937 0.094c-0.0582 0.058-0.0327 0.038-0.0937 0.094-0.061 0.055-0.0613 0.073-0.125 0.125s-0.0588 0.014-0.125 0.063-0.0565 0.048-0.125 0.094c-0.0685 0.045-0.0543 0.052-0.125 0.094s-0.0523 0.024-0.125 0.063c-0.0727 0.038-0.0817 0.028-0.15625 0.063-0.0745 0.035-0.0488 0.031-0.125 0.063-0.0762 0.031-0.0474 0.035-0.125 0.063-0.0776 0.027-0.0774 0.039-0.15625 0.063-0.0789 0.023-0.0763 0.012-0.15625 0.031-0.0799 0.019-0.0442 0.016-0.125 0.031s-0.0748 0.02-0.15625 0.031c-0.0815 0.011-0.0743-0.01-0.15625 0-0.082 0.01-0.074 0-0.15625 0-0.0822 0-0.074 0.032-0.15625 0.031-0.0823-0.0009-0.0429-0.026-0.125-0.031-0.0821 0-0.0745 0.01-0.15625 0-0.0818-0.01-0.075-0.018-0.15625-0.031-0.0812-0.013-0.0758-0.014-0.15625-0.031-0.0805-0.017-0.0767-0.01-0.15625-0.031-0.0795-0.021-0.0466-0.01-0.125-0.031-0.0784-0.025-0.0792-0.034-0.15625-0.063-0.0771-0.029-0.0495 0-0.125-0.031-0.0755-0.033-0.0824-0.026-0.15625-0.063-0.0738-0.036-0.0531-0.054-0.125-0.094s-0.0552-0.019-0.125-0.063c-0.0698-0.043-0.0574-0.047-0.125-0.094s-0.0598-0.044-0.125-0.094-0.0624-0.04-0.125-0.094c-0.0626-0.053-0.034-0.037-0.0937-0.094-0.0599-0.056-0.068-0.034-0.125-0.094a0.96391 0.96391 0 0 0 0 -0.031c-3.3114-3.3114-5.1189-7.5578-5.4688-11.906-0.0579-0.60712-0.0937-1.2343-0.0937-1.8438 0.008-0.50633 0.0457-1.0268 0.0937-1.5312 0.34987-4.3485 2.1574-8.5948 5.4688-11.906a0.96391 0.96391 0 0 0 0 -0.0313c0.057-0.0593 0.0651-0.0373 0.125-0.0937 0.0598-0.0564 0.0311-0.0403 0.0937-0.0937s0.0598-0.0435 0.125-0.0937 0.0574-0.0468 0.125-0.0937 0.0552-0.0503 0.125-0.0937c0.0698-0.0435 0.0531-0.0225 0.125-0.0625s0.0512-0.0574 0.125-0.0937c0.0738-0.0364 0.0807-0.0299 0.15625-0.0625 0.0755-0.0326 0.0479-0.002 0.125-0.0313 0.0771-0.0289 0.0779-0.0375 0.15625-0.0625 0.0784-0.0249 0.0455-0.0102 0.125-0.0313 0.0796-0.0211 0.0757-0.0142 0.15625-0.0313 0.0805-0.0171 0.0751-0.0182 0.15625-0.0313 0.0813-0.0131 0.0745-0.0223 0.15625-0.0313 0.0817-0.009 0.0742 0.005 0.15625 0 0.0821-0.005 0.0427-0.0304 0.125-0.0313zm22.688 0c0.0823 0.00084 0.0429 0.0263 0.125 0.0313s0.0744-0.009 0.15625 0c0.0817 0.009 0.0751 0.0182 0.15625 0.0313 0.0812 0.0131 0.0757 0.0142 0.15625 0.0313 0.0804 0.0171 0.0768 0.0102 0.15625 0.0313 0.0795 0.021 0.0466 0.006 0.125 0.0313 0.0784 0.025 0.0791 0.0336 0.15625 0.0625 0.0771 0.0288 0.0495-0.001 0.125 0.0313 0.0756 0.0326 0.0824 0.0261 0.15625 0.0625 0.0738 0.0364 0.0531 0.0538 0.125 0.0937 0.0719 0.04 0.0552 0.019 0.125 0.0625s0.0574 0.0468 0.125 0.0937 0.0598 0.0435 0.125 0.0937 0.0624 0.0403 0.125 0.0937 0.0339 0.0373 0.0937 0.0937c0.0599 0.0564 0.068 0.0344 0.125 0.0937a0.96391 0.96391 0 0 0 0 0.0313c3.3114 3.3114 5.1189 7.5578 5.4688 11.906 0.0481 0.50448 0.0856 1.0249 0.0937 1.5312 0 0.60941-0.0359 1.2366-0.0937 1.8438-0.34987 4.3484-2.1573 8.5948-5.4688 11.906a0.96391 0.96391 0 0 0 0 0.031c-0.057 0.059-0.0651 0.037-0.125 0.094-0.0599 0.056-0.0311 0.04-0.0937 0.094-0.0626 0.053-0.0598 0.043-0.125 0.094-0.0652 0.05-0.0574 0.047-0.125 0.094s-0.0552 0.05-0.125 0.094c-0.0698 0.043-0.0531 0.022-0.125 0.063-0.0719 0.04-0.0512 0.057-0.125 0.094-0.0738 0.036-0.0807 0.03-0.15625 0.063-0.0755 0.033-0.0479 0-0.125 0.031-0.0771 0.029-0.0779 0.037-0.15625 0.063-0.0784 0.025-0.0455 0.01-0.125 0.031s-0.0758 0.014-0.15625 0.031c-0.0805 0.017-0.075 0.018-0.15625 0.031-0.0812 0.013-0.0745 0.022-0.15625 0.031-0.0818 0.01-0.0741 0-0.15625 0-0.0821 0-0.0427 0.03-0.125 0.031-0.0823 0.0008-0.074-0.028-0.15625-0.031-0.0822 0-0.0743 0.01-0.15625 0-0.082-0.01-0.0748 0.011-0.15625 0-0.0815-0.011-0.0754-0.016-0.15625-0.031-0.0808-0.015-0.0451-0.012-0.125-0.031s-0.0774-0.01-0.15625-0.031c-0.0789-0.023-0.0786-0.035-0.15625-0.063-0.0776-0.027-0.0488-0.031-0.125-0.063-0.0762-0.031-0.0505-0.028-0.125-0.063s-0.0835-0.024-0.15625-0.063c-0.0727-0.039-0.0543-0.021-0.125-0.063s-0.0565-0.048-0.125-0.094-0.0588-0.045-0.125-0.094-0.0613-0.01-0.125-0.063c-0.0637-0.052-0.064-0.07-0.125-0.125s-0.0357-0.036-0.0937-0.094c-0.0582-0.058-0.0386-0.033-0.0937-0.094-0.0552-0.061-0.0729-0.061-0.125-0.125s-0.0136-0.059-0.0625-0.125-0.0482-0.057-0.0937-0.125c-0.0455-0.069-0.0517-0.054-0.0937-0.125-0.0421-0.071-0.024-0.052-0.0625-0.125s-0.0276-0.082-0.0625-0.1563c-0.0349-0.075-0.0314-0.049-0.0625-0.125s-0.0352-0.047-0.0625-0.125-0.0391-0.077-0.0625-0.1562c-0.0234-0.079-0.0118-0.076-0.0312-0.1563-0.0194-0.08-0.0159-0.044-0.0312-0.125-0.0154-0.081-0.0199-0.075-0.0312-0.1562-0.0114-0.082 0.007-0.074 0-0.1563-0.007-0.082 0.003-0.074 0-0.1562-0.003-0.082-0.0322-0.074-0.0312-0.1563 0.00084-0.082 0.0263-0.043 0.0312-0.125 0.005-0.082-0.009-0.075 0-0.1562 0.002-0.016-0.002-0.021 0-0.031 0.003-0.1624-0.0186-0.1199 0-0.2812 0.0186-0.1614 0.0282-0.1539 0.0625-0.3125 0.0343-0.1589 0.044-0.1267 0.0937-0.2813s0.0292-0.1322 0.0937-0.2812c0.0646-0.1491 0.0461-0.1081 0.125-0.25 0.079-0.1421 0.0637-0.1165 0.15625-0.25 0.0925-0.1336 0.0824-0.1262 0.1875-0.25 0.1051-0.124 0.0708-0.1059 0.1875-0.2188a0.96391 0.96391 0 0 0 0.0312 0c2.2235-2.2235 3.4721-5.0472 3.75-7.9376 0.0397-0.41291 0.0625-0.83558 0.0625-1.25-0.007-0.31101-0.0327-0.62756-0.0625-0.9375-0.27793-2.8904-1.5265-5.714-3.75-7.9375a0.96391 0.96391 0 0 0 -0.0312 0c-0.11674-0.11295-0.0824-0.0949-0.1875-0.21875-0.10511-0.12385-0.095-0.11645-0.1875-0.25s-0.0773-0.10803-0.15625-0.25c-0.0789-0.14197-0.0604-0.10097-0.125-0.25s-0.044-0.12661-0.0937-0.28125-0.0594-0.12248-0.0937-0.28125-0.0439-0.15113-0.0625-0.3125 0.003-0.11883 0-0.28125c-0.0003-0.0162 0.00041-0.0181 0-0.0313-0.009-0.0818 0.005-0.0741 0-0.15625-0.005-0.0821-0.0304-0.0427-0.0312-0.125-0.0009-0.0823 0.0282-0.074 0.0312-0.15625 0.003-0.0822-0.007-0.0743 0-0.15625 0.007-0.082-0.0114-0.0748 0-0.15625 0.0113-0.0815 0.0159-0.0754 0.0312-0.15625 0.0154-0.0808 0.0118-0.0451 0.0312-0.125 0.0194-0.08 0.008-0.0774 0.0312-0.15625 0.0234-0.0789 0.0352-0.0786 0.0625-0.15625 0.0273-0.0776 0.0314-0.0488 0.0625-0.125s0.0276-0.0505 0.0625-0.125 0.024-0.0835 0.0625-0.15625c0.0385-0.0727 0.0204-0.0543 0.0625-0.125 0.042-0.0707 0.0482-0.0565 0.0937-0.125s0.0448-0.0588 0.0937-0.125 0.0104-0.0613 0.0625-0.125 0.0698-0.064 0.125-0.125 0.0356-0.0356 0.0937-0.0937c0.0581-0.0582 0.0327-0.0385 0.0937-0.0937s0.0613-0.0729 0.125-0.125 0.0588-0.0136 0.125-0.0625 0.0565-0.0482 0.125-0.0937 0.0543-0.0517 0.125-0.0937c0.0707-0.0421 0.0523-0.024 0.125-0.0625s0.0817-0.0276 0.15625-0.0625c0.0745-0.0349 0.0488-0.0314 0.125-0.0625s0.0474-0.0352 0.125-0.0625c0.0777-0.0273 0.0773-0.0391 0.15625-0.0625 0.0789-0.0234 0.0764-0.0118 0.15625-0.0313 0.0799-0.0194 0.0442-0.0158 0.125-0.0313 0.0808-0.0154 0.0747-0.0199 0.15625-0.0313 0.0815-0.0114 0.0743 0.007 0.15625 0 0.082-0.007 0.074 0.003 0.15625 0 0.0823-0.003 0.0739-0.0321 0.15625-0.0313z" color="#000000" opacity="0.1"/>
   <path d="m-116.34 984.91c-5.5453 0-10.094 4.5485-10.094 10.094 0 4.1435 2.5585 7.7321 6.1562 9.2813-1.8523 1.2853-3.1562 3.3128-3.1562 5.7187v20c0 3.8941 3.1996 7.0938 7.0938 7.0938 3.8941 0 7.0938-3.1997 7.0938-7.0938v-20c0-2.4059-1.3039-4.4334-3.1562-5.7187 3.5978-1.5492 6.1562-5.1378 6.1562-9.2813 0-5.5453-4.5485-10.094-10.094-10.094z" color="#000000" opacity="0.05"/>
   <path d="m-116.34 986.03c-4.9301 0-8.9688 4.0387-8.9688 8.9688s4.0387 8.9688 8.9688 8.9688 8.9688-4.0387 8.9688-8.9688-4.0387-8.9688-8.9688-8.9688zm0 18c-3.2774 0-5.9688 2.6913-5.9688 5.9687v20c0 3.2774 2.6913 5.9688 5.9688 5.9688 3.2774 0 5.9688-2.6914 5.9688-5.9688v-20c0-3.2774-2.6913-5.9687-5.9688-5.9687z" color="#000000" opacity="0.1"/>
   <path d="m-116.34 987.07c-4.37 0-7.9375 3.5675-7.9375 7.9375s3.5675 7.9375 7.9375 7.9375 7.9375-3.5675 7.9375-7.9375-3.5675-7.9375-7.9375-7.9375zm0 18c-2.7165 0-4.9375 2.221-4.9375 4.9375v20c0 2.7165 2.221 4.9375 4.9375 4.9375s4.9375-2.221 4.9375-4.9375v-20c0-2.7165-2.221-4.9375-4.9375-4.9375z" color="#000000" opacity="0.15"/>
   <path d="m-116.34 988c-3.866 0-7 3.134-7 7s3.134 7 7 7 7-3.134 7-7-3.134-7-7-7zm0 18c-2.216 0-4 1.784-4 4v20c0 2.216 1.784 4 4 4s4-1.784 4-4v-20c0-2.216-1.784-4-4-4z" color="#000000" opacity="0.3"/>
   <rect x="-120.34" rx="4" y="1005" fill="url(#linearGradient146151)" color="#000000" height="28" width="8"/>
   <path d="m-109.34 994a7 7 0 0 1 -14 0 7 7 0 1 1 14 0z" fill="url(#radialGradient146153)" color="#000000"/>
   <path d="m-120.34 1028v1c0 2.216 1.784 4 4 4s4-1.784 4-4v-1c0 2.216-1.784 4-4 4s-4-1.784-4-4z" color="#000000" opacity="0.2"/>
   <path d="m-116.34 1005c-2.216 0-4 1.784-4 4v20c0 2.216 1.784 4 4 4s4-1.784 4-4v-20c0-2.216-1.784-4-4-4zm0 1c1.6742 0 3 1.3258 3 3v20c0 1.6742-1.3258 3-3 3s-3-1.3258-3-3v-20c0-1.6742 1.3258-3 3-3z" fill="url(#linearGradient146155)" color="#000000" opacity="0.6"/>
   <path d="m-122.31 993.63c-0.007 0.12259-0.0313 0.25053-0.0313 0.375 0 3.3137 2.6863 6 6 6s6-2.6863 6-6c0-0.12447-0.0238-0.25241-0.0313-0.375-0.30726 3.0255-2.8622 5.375-5.9688 5.375s-5.6615-2.3495-5.9688-5.375z" fill="url(#radialGradient146157)" color="#000000" opacity="0.3"/>
  </g>
 </g>
</svg>
