<svg height="96" width="96" xmlns="http://www.w3.org/2000/svg" xmlns:xlink="http://www.w3.org/1999/xlink" xmlns:sodipodi="http://sodipodi.sourceforge.net/DTD/sodipodi-0.dtd" xmlns:inkscape="http://www.inkscape.org/namespaces/inkscape">
 <defs>
  <linearGradient x2="0" y1="20.221" y2="138.66" gradientUnits="userSpaceOnUse" id="linearGradient3613-94">
   <stop stop-color="#fff"/>
   <stop stop-color="#fff" stop-opacity="0" offset="1"/>
  </linearGradient>
  <filter x="-0.192" y="-0.192" height="1.384" color-interpolation-filters="sRGB" id="filter3794-787" width="1.384">
   <feGaussianBlur stdDeviation="5.28"/>
  </filter>
  <filter color-interpolation-filters="sRGB" id="filter3791">
   <feGaussianBlur stdDeviation="0.735"/>
  </filter>
  <clipPath id="clipPath3613-40">
   <use xlink:href="#SVGCleanerId_0"/>
  </clipPath>
  <linearGradient id="linearGradient3423-3">
   <stop/>
   <stop stop-opacity="0" offset="1"/>
  </linearGradient>
  <linearGradient xlink:href="#linearGradient3613-94" id="linearGradient3436-6"/>
  <filter x="-0.12" y="-0.12" height="1.24" color-interpolation-filters="sRGB" id="filter3528" width="1.24">
   <feGaussianBlur stdDeviation="1.49687"/>
  </filter>
  <linearGradient x2="0" y1="90" y2="5.988" gradientUnits="userSpaceOnUse" id="linearGradient228893" gradientTransform="matrix(1.7142 0 0 1.0736 -49.08 -3.564)">
   <stop stop-color="#95450b"/>
   <stop stop-color="#d79869" offset="1"/>
  </linearGradient>
  <radialGradient cy="32.695" r="34.449" gradientUnits="userSpaceOnUse" id="radialGradient228930" cx="71.42" gradientTransform="matrix(0 1.5375 -2.1378 0 141.31 -77.11)">
   <stop stop-color="#c8c8c8"/>
   <stop stop-color="#646464" offset="0.564"/>
   <stop stop-color="#505050" offset="0.642"/>
   <stop stop-color="#282828" offset="1"/>
  </radialGradient>
  <linearGradient x2="0" y1="30.972" y2="80.73" gradientUnits="userSpaceOnUse" id="linearGradient228932">
   <stop stop-color="#fff"/>
   <stop stop-color="#282828" offset="1"/>
  </linearGradient>
  <linearGradient x2="0" xlink:href="#linearGradient3423-3" y1="34" y2="60.06" gradientUnits="userSpaceOnUse" id="linearGradient228934" gradientTransform="matrix(0.34502 0 0 0.34502 -34.09 126.77)"/>
  <linearGradient x1="62.64" x2="61.64" xlink:href="#linearGradient3436-6" y1="94" y2="65.68" gradientUnits="userSpaceOnUse" id="linearGradient228936" gradientTransform="matrix(0.34502 0 0 0.34502 -34.09 126.77)"/>
  <linearGradient x2="0" y1="30.972" y2="99.99" gradientUnits="userSpaceOnUse" id="linearGradient228938">
   <stop stop-color="#555"/>
   <stop stop-color="#797979" offset="0.44"/>
   <stop stop-color="#999" offset="0.578"/>
   <stop stop-color="#d3d3d3" offset="1"/>
  </linearGradient>
  <linearGradient x2="0" xlink:href="#linearGradient3436-6" y1="78.969" y2="49.03" gradientUnits="userSpaceOnUse" id="linearGradient228940" gradientTransform="matrix(1 0 0 1 -76.01 84.85)"/>
  <linearGradient x2="0" xlink:href="#linearGradient3423-3" y1="34" y2="60.06" gradientUnits="userSpaceOnUse" id="linearGradient228958" gradientTransform="matrix(0.74345 0 0 0.74359 0.414 -5.59)"/>
  <linearGradient x1="62.64" x2="61.64" xlink:href="#linearGradient3436-6" y1="94" y2="65.68" gradientUnits="userSpaceOnUse" id="linearGradient228960" gradientTransform="matrix(0.74345 0 0 0.74359 0.414 -5.59)"/>
  <linearGradient x2="0" xlink:href="#linearGradient3436-6" y1="78.969" y2="49.03" gradientUnits="userSpaceOnUse" id="linearGradient228964"/>
  <linearGradient x2="0" y1="31.833" y2="99.17" gradientUnits="userSpaceOnUse" id="linearGradient228966">
   <stop stop-color="#040404"/>
   <stop stop-color="#4b4b4b" offset="1"/>
  </linearGradient>
  <linearGradient x1="67.29" x2="68.18" xlink:href="#linearGradient3436-6" y1="31.23" y2="92.19" gradientUnits="userSpaceOnUse" id="linearGradient228968"/>
  <rect x="6" rx="6" y="6" height="84" id="SVGCleanerId_0" width="84"/>
  <path d="m105.01 65.421a33.588 33.588 0 1 1 -67.175 0 33.588 33.588 0 1 1 67.175 0z" id="SVGCleanerId_1"/>
  <path d="m-12.014 138.5c-5.7135 0-10.35 4.637-10.35 10.35 0 0.11663 0.0069 0.22932 0.01078 0.34502 0.18399-5.5523 4.7429-10.005 10.34-10.005 5.5968 0 10.156 4.4531 10.34 10.005 0.00383-0.1157 0.010782-0.22839 0.010782-0.34502 0-5.7135-4.637-10.35-10.35-10.35z" fill="url(#linearGradient228934)" id="SVGCleanerId_2" opacity="0.3"/>
  <path d="m-22.354 148.51c-0.0038 0.1157-0.01078 0.22838-0.01078 0.34501 0 5.7135 4.637 10.35 10.35 10.35 5.7135 0 10.35-4.637 10.35-10.35 0-0.11663-0.00695-0.22931-0.010782-0.34501-0.18399 5.5523-4.7429 10.005-10.34 10.005-5.5968 0-10.156-4.4531-10.34-10.005z" fill="url(#linearGradient228936)" id="SVGCleanerId_3" opacity="0.5"/>
  <path d="m-12.014 133.88c-8.2656 0-14.969 6.7031-14.969 14.969 0 8.2656 6.7031 14.969 14.969 14.969 8.2656 0 14.969-6.7031 14.969-14.969 0-8.2656-6.7031-14.969-14.969-14.969zm0 4.0625c6.0213 0 10.906 4.885 10.906 10.906 0 6.0213-4.885 10.906-10.906 10.906-6.0213 0-10.906-4.885-10.906-10.906 0.000001-6.0213 4.885-10.906 10.906-10.906z" fill="url(#linearGradient228940)" filter="url(#filter3528)" id="SVGCleanerId_4" opacity="0.5"/>
 </defs>
 <g transform="matrix(1 0 0 1 0 -956.36)">
  <rect x="3.353" rx="12.724" y="959.35" fill-opacity="0.02" height="89.98" width="89.62"/>
  <rect x="3.959" rx="12.552" y="959.96" fill-opacity="0.039" height="88.76" width="88.41"/>
  <rect x="4.564" rx="12.38" y="960.57" fill-opacity="0.078" height="87.55" width="87.2"/>
  <rect x="5.17" rx="12.208" y="961.18" fill-opacity="0.157" height="86.33" width="85.991"/>
  <path d="m17.75 5.4062c-6.642 0-11.969 5.3948-11.969 12.063l0.0002 61.031c0 6.668 5.3268 12.031 11.969 12.031h60.812c6.642 0 11.969-5.363 11.969-12.031v-61.031c0-6.668-5.327-12.063-11.969-12.063l-60.812 0.0002z" fill="url(#linearGradient228893)" transform="matrix(1 0 0 1 0 956.36)"/>
  <path d="m5.7756 1033.9v1.0133c0 6.668 5.3434 12.032 11.985 12.032h60.809c6.6418 0 11.985-5.3645 11.985-12.032v-1.0133c0 6.6681-5.3434 12.032-11.985 12.032h-60.809c-6.6418 0-11.985-5.3644-11.985-12.032z" fill-opacity="0.098"/>
  <path d="m5.7756 1029.8v5.0663c0 6.668 5.3434 12.032 11.985 12.032h60.809c6.6418 0 11.985-5.3645 11.985-12.032v-5.0663c0 6.6681-5.3434 12.032-11.985 12.032h-60.809c-6.6418 0-11.985-5.3643-11.985-12.032z" fill-opacity="0.235"/>
  <g transform="matrix(1 0 0 1 137.93 10.969)">
   <rect x="15" stroke-width="0.5" rx="12" y="15" clip-path="url(#clipPath3613-40)" fill="url(#linearGradient3613-94)" stroke="#fff" height="66" filter="url(#filter3794-787)" opacity="0.15" stroke-linecap="round" width="66" transform="matrix(1 0 0 1 -137.88 942.73)"/>
   <g transform="matrix(1 0 0 1 -137.88 942.73)">
    <path d="m48 11.031c-17.612 0-31.969 14.357-31.969 31.969 0 10.069 4.7824 18.977 12.094 24.844-1.9313-1.6883-4.3786-2.8125-7.125-2.8125-6.026 0-10.969 4.9427-10.969 10.969 0 6.026 4.9427 10.969 10.969 10.969 6.026 0 10.969-4.9427 10.969-10.969 0-2.9231-1.2079-5.5582-3.0938-7.5312 5.3511 4.0337 11.932 6.5 19.125 6.5 7.1932 0 13.774-2.4663 19.125-6.5-1.8859 1.9731-3.0938 4.6081-3.0938 7.5312 0 6.026 4.9427 10.969 10.969 10.969 6.026 0 10.969-4.9427 10.969-10.969 0-6.026-4.9427-10.969-10.969-10.969-2.7464 0-5.1937 1.1242-7.125 2.8125 7.311-5.866 12.094-14.774 12.094-24.843 0-17.612-14.357-31.969-31.969-31.969z" stroke-width="2" stroke="#000" opacity="0.05" stroke-linecap="square"/>
    <path d="m48 11.969c-17.102 0-31.031 13.929-31.031 31.031s13.929 31.031 31.031 31.031 31.031-13.929 31.031-31.031-13.929-31.031-31.031-31.031zm-27 54c-5.5132 0-10.031 4.518-10.031 10.031 0 5.5132 4.518 10.031 10.031 10.031 5.5132 0 10.031-4.518 10.031-10.031 0-5.5132-4.518-10.031-10.031-10.031zm54 0c-5.5132 0-10.031 4.518-10.031 10.031 0 5.5132 4.518 10.031 10.031 10.031 5.5132 0 10.031-4.518 10.031-10.031 0-5.5132-4.518-10.031-10.031-10.031z" stroke-width="2" stroke="#000" opacity="0.1" stroke-linecap="square"/>
    <path d="m48 13.062c-16.51 0-29.938 13.428-29.938 29.938s13.428 29.937 29.938 29.938c16.51 0 29.937-13.428 29.938-29.938 0-16.51-13.428-29.938-29.938-29.938zm-27 54c-4.918 0-8.9375 4.0195-8.9375 8.9375s4.0195 8.9375 8.9375 8.9375 8.9375-4.0195 8.9375-8.9375-4.0195-8.9375-8.9375-8.9375zm54 0c-4.918 0-8.9375 4.0195-8.9375 8.9375s4.0195 8.9375 8.9375 8.9375 8.9375-4.0195 8.9375-8.9375-4.0195-8.9375-8.9375-8.9375z" stroke-width="2" stroke="#000" opacity="0.15" stroke-linecap="square"/>
    <path d="m48 14c-16.008 0-29 12.992-29 29s12.992 29 29 29 29-12.992 29-29-12.992-29-29-29zm-27 54c-4.416 0-8 3.584-8 8s3.584 8 8 8 8-3.584 8-8-3.584-8-8-8zm54 0c-4.416 0-8 3.584-8 8s3.584 8 8 8 8-3.584 8-8-3.584-8-8-8z" stroke-width="2" stroke="#000" opacity="0.31" stroke-linecap="square"/>
    <g fill-rule="evenodd" transform="matrix(0.63162 0 0 0.63174 28.587 -19.04)">
     <use stroke-width="3.952" xlink:href="#SVGCleanerId_1" fill="url(#radialGradient228930)" stroke="url(#linearGradient228932)" stroke-linejoin="round" transform="matrix(0.40061 0 0 0.40061 -40.625 122.64)"/>
     <use xlink:href="#SVGCleanerId_1" fill="#323232" transform="matrix(0.30816 0 0 0.30816 -34.02 128.69)"/>
     <use xlink:href="#SVGCleanerId_2"/>
     <use xlink:href="#SVGCleanerId_3"/>
     <use stroke-width="6.459" xlink:href="#SVGCleanerId_1" fill="url(#linearGradient228938)" stroke="#c2c2c2" stroke-linejoin="round" transform="matrix(0.23264 0 0 0.23264 -28.628 133.63)"/>
     <use xlink:href="#SVGCleanerId_4" transform="matrix(0.46034 0 0 0.46034 -6.483 80.33)"/>
    </g>
    <g fill-rule="evenodd" transform="matrix(0.63162 0 0 0.63174 82.59 -19.04)">
     <use stroke-width="3.952" xlink:href="#SVGCleanerId_1" fill="url(#radialGradient228930)" stroke="url(#linearGradient228932)" stroke-linejoin="round" transform="matrix(0.40061 0 0 0.40061 -40.625 122.64)"/>
     <use xlink:href="#SVGCleanerId_1" fill="#323232" transform="matrix(0.30816 0 0 0.30816 -34.02 128.69)"/>
     <use xlink:href="#SVGCleanerId_2"/>
     <use xlink:href="#SVGCleanerId_3"/>
     <use stroke-width="6.459" xlink:href="#SVGCleanerId_1" fill="url(#linearGradient228938)" stroke="#c2c2c2" stroke-linejoin="round" transform="matrix(0.23264 0 0 0.23264 -28.628 133.63)"/>
     <use xlink:href="#SVGCleanerId_4" transform="matrix(0.46034 0 0 0.46034 -6.483 80.33)"/>
    </g>
    <use stroke-width="2.317" xlink:href="#SVGCleanerId_1" fill="url(#radialGradient228930)" fill-rule="evenodd" stroke="url(#linearGradient228932)" stroke-linejoin="round" transform="matrix(0.86325 0 0 0.86341 -13.657 -14.485)"/>
    <use xlink:href="#SVGCleanerId_1" fill="#323232" fill-rule="evenodd" transform="matrix(0.66404 0 0 0.66416 0.57 -1.45)"/>
    <path d="m47.994 19.692c-12.311 0-22.303 9.9938-22.303 22.308 0 0.25136 0.01497 0.49423 0.02323 0.74359 0.39646-11.967 10.22-21.564 22.28-21.564 12.06-0.000001 21.884 9.5975 22.28 21.564 0.0083-0.24936 0.02323-0.49223 0.02323-0.74359 0-12.314-9.9919-22.308-22.303-22.308z" fill="url(#linearGradient228958)" fill-rule="evenodd" opacity="0.3"/>
    <path d="m25.714 41.256c-0.0083 0.24936-0.02323 0.49223-0.02323 0.74359 0 12.314 9.9919 22.308 22.303 22.308 12.312 0 22.303-9.9938 22.303-22.308 0-0.25136-0.01497-0.49423-0.02323-0.74359-0.39646 11.967-10.22 21.564-22.28 21.564-12.06 0.000001-21.884-9.5975-22.28-21.564z" fill="url(#linearGradient228960)" fill-rule="evenodd" opacity="0.5"/>
    <path d="m64 39.5c-13.523 0-24.5 10.977-24.5 24.5s10.977 24.5 24.5 24.5 24.5-10.977 24.5-24.5-10.977-24.5-24.5-24.5zm0 3.1875c11.767 0 21.312 9.545 21.312 21.312 0.001 11.767-9.545 21.312-21.312 21.312-11.767 0.001-21.312-9.545-21.312-21.312-0.001-11.767 9.545-21.312 21.312-21.312z" fill="#b7b7b7" fill-rule="evenodd" filter="url(#filter3791)" opacity="0.8" transform="matrix(0.74345 0 0 0.74359 0.414 -5.59)"/>
    <use stroke-width="2.317" xlink:href="#SVGCleanerId_1" fill="url(#linearGradient228938)" fill-rule="evenodd" stroke="#c2c2c2" stroke-linejoin="round" transform="matrix(0.4097 0 0 0.40978 18.735 15.192)"/>
    <path d="m64 49.031c-8.2656 0-14.969 6.7031-14.969 14.969 0 8.2656 6.7031 14.969 14.969 14.969 8.2656 0 14.969-6.7031 14.969-14.969 0-8.2656-6.7031-14.969-14.969-14.969zm0 4.0625c6.021 0 10.906 4.885 10.906 10.906s-4.885 10.906-10.906 10.906-10.906-4.885-10.906-10.906 4.885-10.906 10.906-10.906z" fill="url(#linearGradient228964)" fill-rule="evenodd" filter="url(#filter3528)" opacity="0.5" transform="matrix(0.74345 0 0 0.74359 0.414 -5.59)"/>
    <use xlink:href="#SVGCleanerId_1" fill="url(#linearGradient228966)" fill-rule="evenodd" transform="matrix(0.17884 0 0 0.17887 35.22 30.3)"/>
    <use xlink:href="#SVGCleanerId_1" fill="url(#linearGradient228968)" fill-rule="evenodd" opacity="0.8" transform="matrix(0.13384 0 0 0.08593 38.436 34.11)"/>
   </g>
  </g>
 </g>
</svg>
