<?xml version="1.0" encoding="UTF-8" standalone="no"?>
<svg
   xmlns:dc="http://purl.org/dc/elements/1.1/"
   xmlns:cc="http://creativecommons.org/ns#"
   xmlns:rdf="http://www.w3.org/1999/02/22-rdf-syntax-ns#"
   xmlns:svg="http://www.w3.org/2000/svg"
   xmlns="http://www.w3.org/2000/svg"
   xmlns:xlink="http://www.w3.org/1999/xlink"
   xmlns:sodipodi="http://sodipodi.sourceforge.net/DTD/sodipodi-0.dtd"
   xmlns:inkscape="http://www.inkscape.org/namespaces/inkscape"
   height="96"
   width="96"
   id="svg2256"
   version="1.1"
   inkscape:version="0.91 r13725"
   sodipodi:docname="gmusicbrowser.svg">
  <metadata
     id="metadata2406">
    <rdf:RDF>
      <cc:Work
         rdf:about="">
        <dc:format>image/svg+xml</dc:format>
        <dc:type
           rdf:resource="http://purl.org/dc/dcmitype/StillImage" />
      </cc:Work>
    </rdf:RDF>
  </metadata>
  <sodipodi:namedview
     pagecolor="#ffffff"
     bordercolor="#666666"
     borderopacity="1"
     objecttolerance="10"
     gridtolerance="10"
     guidetolerance="10"
     inkscape:pageopacity="0"
     inkscape:pageshadow="2"
     inkscape:window-width="640"
     inkscape:window-height="480"
     id="namedview2404"
     showgrid="false"
     inkscape:zoom="2.4583333"
     inkscape:cx="48"
     inkscape:cy="48"
     inkscape:current-layer="svg2256" />
  <defs
     id="defs2258">
    <linearGradient
       x2="0"
       y1="20.221"
       y2="138.66"
       gradientUnits="userSpaceOnUse"
       id="linearGradient3613-94">
      <stop
         stop-color="#fff"
         id="stop2261" />
      <stop
         stop-color="#fff"
         stop-opacity="0"
         offset="1"
         id="stop2263" />
    </linearGradient>
    <filter
       x="-0.192"
       y="-0.192"
       height="1.384"
       color-interpolation-filters="sRGB"
       id="filter3794-787"
       width="1.384">
      <feGaussianBlur
         stdDeviation="5.28"
         id="feGaussianBlur2266" />
    </filter>
    <filter
       color-interpolation-filters="sRGB"
       id="filter3791">
      <feGaussianBlur
         stdDeviation="0.735"
         id="feGaussianBlur2269" />
    </filter>
    <clipPath
       id="clipPath3613-40">
      <use
         xlink:href="#SVGCleanerId_0"
         id="use2272" />
    </clipPath>
    <linearGradient
       id="linearGradient3423-3">
      <stop
         id="stop2275" />
      <stop
         stop-opacity="0"
         offset="1"
         id="stop2277" />
    </linearGradient>
    <linearGradient
       xlink:href="#linearGradient3613-94"
       id="linearGradient3436-6" />
    <filter
       x="-0.12"
       y="-0.12"
       height="1.24"
       color-interpolation-filters="sRGB"
       id="filter3528"
       width="1.24">
      <feGaussianBlur
         stdDeviation="1.49687"
         id="feGaussianBlur2281" />
    </filter>
    <linearGradient
       x2="0"
       y1="90"
       y2="5.988"
       gradientUnits="userSpaceOnUse"
       id="linearGradient228893"
       gradientTransform="matrix(1.7142,0,0,1.0736,-49.08,-3.564)">
      <stop
         stop-color="#95450b"
         id="stop2284" />
      <stop
         stop-color="#d79869"
         offset="1"
         id="stop2286" />
    </linearGradient>
    <radialGradient
       cy="32.695"
       r="34.449"
       gradientUnits="userSpaceOnUse"
       id="radialGradient228930"
       cx="71.42"
       gradientTransform="matrix(0 1.5375 -2.1378 0 141.31 -77.11)">
      <stop
         stop-color="#c8c8c8"
         id="stop2289" />
      <stop
         stop-color="#646464"
         offset="0.564"
         id="stop2291" />
      <stop
         stop-color="#505050"
         offset="0.642"
         id="stop2293" />
      <stop
         stop-color="#282828"
         offset="1"
         id="stop2295" />
    </radialGradient>
    <linearGradient
       x2="0"
       y1="30.972"
       y2="80.73"
       gradientUnits="userSpaceOnUse"
       id="linearGradient228932">
      <stop
         stop-color="#fff"
         id="stop2298" />
      <stop
         stop-color="#282828"
         offset="1"
         id="stop2300" />
    </linearGradient>
    <linearGradient
       x2="0"
       xlink:href="#linearGradient3423-3"
       y1="34"
       y2="60.06"
       gradientUnits="userSpaceOnUse"
       id="linearGradient228934"
       gradientTransform="matrix(0.34502 0 0 0.34502 -34.09 126.77)" />
    <linearGradient
       x1="62.64"
       x2="61.64"
       xlink:href="#linearGradient3436-6"
       y1="94"
       y2="65.68"
       gradientUnits="userSpaceOnUse"
       id="linearGradient228936"
       gradientTransform="matrix(0.34502 0 0 0.34502 -34.09 126.77)" />
    <linearGradient
       x2="0"
       y1="30.972"
       y2="99.99"
       gradientUnits="userSpaceOnUse"
       id="linearGradient228938">
      <stop
         stop-color="#555"
         id="stop2305" />
      <stop
         stop-color="#797979"
         offset="0.44"
         id="stop2307" />
      <stop
         stop-color="#999"
         offset="0.578"
         id="stop2309" />
      <stop
         stop-color="#d3d3d3"
         offset="1"
         id="stop2311" />
    </linearGradient>
    <linearGradient
       x2="0"
       xlink:href="#linearGradient3436-6"
       y1="78.969"
       y2="49.03"
       gradientUnits="userSpaceOnUse"
       id="linearGradient228940"
       gradientTransform="matrix(1 0 0 1 -76.01 84.85)" />
    <linearGradient
       x2="0"
       xlink:href="#linearGradient3423-3"
       y1="34"
       y2="60.06"
       gradientUnits="userSpaceOnUse"
       id="linearGradient228958"
       gradientTransform="matrix(0.74345,0,0,0.74359,0.414,-5.59)" />
    <linearGradient
       x1="62.64"
       x2="61.64"
       xlink:href="#linearGradient3613-94"
       y1="94"
       y2="65.68"
       gradientUnits="userSpaceOnUse"
       id="linearGradient228960"
       gradientTransform="matrix(0.74345,0,0,0.74359,0.414,-5.59)" />
    <linearGradient
       x2="0"
       xlink:href="#linearGradient3613-94"
       y1="78.969"
       y2="49.03"
       gradientUnits="userSpaceOnUse"
       id="linearGradient228964" />
    <linearGradient
       x2="0"
       y1="31.833"
       y2="99.17"
       gradientUnits="userSpaceOnUse"
       id="linearGradient228966">
      <stop
         stop-color="#040404"
         id="stop2318" />
      <stop
         stop-color="#4b4b4b"
         offset="1"
         id="stop2320" />
    </linearGradient>
    <linearGradient
       x1="67.29"
       x2="68.18"
       xlink:href="#linearGradient3613-94"
       y1="31.23"
       y2="92.19"
       gradientUnits="userSpaceOnUse"
       id="linearGradient228968" />
    <rect
       x="6"
       rx="6"
       y="6"
       height="84"
       id="SVGCleanerId_0"
       width="84" />
    <path
       d="m105.01 65.421a33.588 33.588 0 1 1 -67.175 0 33.588 33.588 0 1 1 67.175 0z"
       id="SVGCleanerId_1" />
    <path
       d="m-12.014 138.5c-5.7135 0-10.35 4.637-10.35 10.35 0 0.11663 0.0069 0.22932 0.01078 0.34502 0.18399-5.5523 4.7429-10.005 10.34-10.005 5.5968 0 10.156 4.4531 10.34 10.005 0.00383-0.1157 0.010782-0.22839 0.010782-0.34502 0-5.7135-4.637-10.35-10.35-10.35z"
       fill="url(#linearGradient228934)"
       id="SVGCleanerId_2"
       opacity="0.3" />
    <path
       d="m-22.354 148.51c-0.0038 0.1157-0.01078 0.22838-0.01078 0.34501 0 5.7135 4.637 10.35 10.35 10.35 5.7135 0 10.35-4.637 10.35-10.35 0-0.11663-0.00695-0.22931-0.010782-0.34501-0.18399 5.5523-4.7429 10.005-10.34 10.005-5.5968 0-10.156-4.4531-10.34-10.005z"
       fill="url(#linearGradient228936)"
       id="SVGCleanerId_3"
       opacity="0.5" />
    <path
       d="m-12.014 133.88c-8.2656 0-14.969 6.7031-14.969 14.969 0 8.2656 6.7031 14.969 14.969 14.969 8.2656 0 14.969-6.7031 14.969-14.969 0-8.2656-6.7031-14.969-14.969-14.969zm0 4.0625c6.0213 0 10.906 4.885 10.906 10.906 0 6.0213-4.885 10.906-10.906 10.906-6.0213 0-10.906-4.885-10.906-10.906 0.000001-6.0213 4.885-10.906 10.906-10.906z"
       fill="url(#linearGradient228940)"
       filter="url(#filter3528)"
       id="SVGCleanerId_4"
       opacity="0.5" />
    <linearGradient
       inkscape:collect="always"
       xlink:href="#linearGradient3613-94"
       id="linearGradient12008"
       gradientUnits="userSpaceOnUse"
       y1="20.221"
       x2="0"
       y2="138.66" />
    <radialGradient
       inkscape:collect="always"
       xlink:href="#radialGradient228930"
       id="radialGradient12010"
       gradientUnits="userSpaceOnUse"
       gradientTransform="matrix(0,1.5375,-2.1378,0,141.31,-77.11)"
       cx="71.42"
       cy="32.695"
       r="34.449" />
    <linearGradient
       inkscape:collect="always"
       xlink:href="#linearGradient228932"
       id="linearGradient12012"
       gradientUnits="userSpaceOnUse"
       y1="30.972"
       x2="0"
       y2="80.73" />
    <linearGradient
       inkscape:collect="always"
       xlink:href="#linearGradient228938"
       id="linearGradient12014"
       gradientUnits="userSpaceOnUse"
       y1="30.972"
       x2="0"
       y2="99.99" />
    <radialGradient
       inkscape:collect="always"
       xlink:href="#radialGradient228930"
       id="radialGradient12016"
       gradientUnits="userSpaceOnUse"
       gradientTransform="matrix(0,1.5375,-2.1378,0,141.31,-77.11)"
       cx="71.42"
       cy="32.695"
       r="34.449" />
    <linearGradient
       inkscape:collect="always"
       xlink:href="#linearGradient228932"
       id="linearGradient12018"
       gradientUnits="userSpaceOnUse"
       y1="30.972"
       x2="0"
       y2="80.73" />
    <linearGradient
       inkscape:collect="always"
       xlink:href="#linearGradient228938"
       id="linearGradient12020"
       gradientUnits="userSpaceOnUse"
       y1="30.972"
       x2="0"
       y2="99.99" />
    <radialGradient
       inkscape:collect="always"
       xlink:href="#radialGradient228930"
       id="radialGradient12022"
       gradientUnits="userSpaceOnUse"
       gradientTransform="matrix(0,1.5375,-2.1378,0,141.31,-77.11)"
       cx="71.42"
       cy="32.695"
       r="34.449" />
    <linearGradient
       inkscape:collect="always"
       xlink:href="#linearGradient228932"
       id="linearGradient12024"
       gradientUnits="userSpaceOnUse"
       y1="30.972"
       x2="0"
       y2="80.73" />
    <linearGradient
       inkscape:collect="always"
       xlink:href="#linearGradient228938"
       id="linearGradient12026"
       gradientUnits="userSpaceOnUse"
       y1="30.972"
       x2="0"
       y2="99.99" />
    <linearGradient
       inkscape:collect="always"
       xlink:href="#linearGradient3423-3"
       id="linearGradient14237"
       x1="50.707542"
       y1="81.682442"
       x2="50.707542"
       y2="96.539803"
       gradientUnits="userSpaceOnUse" />
    <linearGradient
       inkscape:collect="always"
       xlink:href="#linearGradient14239"
       id="linearGradient14245"
       x1="49.876652"
       y1="87.937508"
       x2="49.876652"
       y2="76.719681"
       gradientUnits="userSpaceOnUse" />
    <linearGradient
       inkscape:collect="always"
       id="linearGradient14239">
      <stop
         style="stop-color:#ffffff;stop-opacity:1;"
         offset="0"
         id="stop14241" />
      <stop
         style="stop-color:#ffffff;stop-opacity:0;"
         offset="1"
         id="stop14243" />
    </linearGradient>
  </defs>
  <rect
     style="fill-opacity:0.02000002"
     id="rect2330"
     width="89.620003"
     height="89.980003"
     y="2.9899757"
     rx="12.724"
     x="3.3529999" />
  <rect
     style="fill-opacity:0.03900003"
     id="rect2332"
     width="88.410004"
     height="88.760002"
     y="3.6000221"
     rx="12.552"
     x="3.9590001" />
  <rect
     style="fill-opacity:0.078"
     id="rect2334"
     width="87.199997"
     height="87.550003"
     y="4.2100072"
     rx="12.38"
     x="4.5640001" />
  <rect
     style="fill-opacity:0.15700001"
     id="rect2336"
     width="85.990997"
     height="86.330002"
     y="4.8199925"
     rx="12.208"
     x="5.1700001" />
  <path
     inkscape:connector-curvature="0"
     style="fill:url(#linearGradient228893)"
     id="path2338"
     d="m 17.75,5.4062 c -6.642,0 -11.969,5.3948 -11.969,12.063 l 2e-4,61.031 c 0,6.668 5.3268,12.031 11.969,12.031 l 60.812,0 c 6.642,0 11.969,-5.363 11.969,-12.031 l 0,-61.031 c 0,-6.668 -5.327,-12.063 -11.969,-12.063 l -60.812,2e-4 z" />
  <g
     id="g2344"
     transform="translate(137.93,-945.391)">
    <rect
       style="opacity:0.15;fill:url(#linearGradient12008);stroke:#ffffff;stroke-width:0.5;stroke-linecap:round;filter:url(#filter3794-787)"
       id="rect2346"
       transform="translate(-137.88,942.73)"
       width="66"
       height="66"
       clip-path="url(#clipPath3613-40)"
       y="15"
       rx="12"
       x="15" />
    <g
       id="g2348"
       transform="translate(-137.88,942.73)">
      <path
         style="opacity:0.05;stroke:#000000;stroke-width:2;stroke-linecap:square"
         inkscape:connector-curvature="0"
         id="path2350"
         d="m 48,11.031 c -17.612,0 -31.969,14.357 -31.969,31.969 0,10.069 4.7824,18.977 12.094,24.844 -1.9313,-1.6883 -4.3786,-2.8125 -7.125,-2.8125 -6.026,0 -10.969,4.9427 -10.969,10.969 0,6.026 4.9427,10.969 10.969,10.969 6.026,0 10.969,-4.9427 10.969,-10.969 0,-2.9231 -1.2079,-5.5582 -3.0938,-7.5312 5.3511,4.0337 11.932,6.5 19.125,6.5 7.1932,0 13.774,-2.4663 19.125,-6.5 -1.8859,1.9731 -3.0938,4.6081 -3.0938,7.5312 0,6.026 4.9427,10.969 10.969,10.969 6.026,0 10.969,-4.9427 10.969,-10.969 0,-6.026 -4.9427,-10.969 -10.969,-10.969 -2.7464,0 -5.1937,1.1242 -7.125,2.8125 7.311,-5.866 12.094,-14.774 12.094,-24.843 0,-17.612 -14.357,-31.969 -31.969,-31.969 z" />
      <path
         style="opacity:0.1;stroke:#000000;stroke-width:2;stroke-linecap:square"
         inkscape:connector-curvature="0"
         id="path2352"
         d="M 48,11.969 C 30.898,11.969 16.969,25.898 16.969,43 16.969,60.102 30.898,74.031 48,74.031 65.102,74.031 79.031,60.102 79.031,43 79.031,25.898 65.102,11.969 48,11.969 Z m -27,54 c -5.5132,0 -10.031,4.518 -10.031,10.031 0,5.5132 4.518,10.031 10.031,10.031 5.5132,0 10.031,-4.518 10.031,-10.031 0,-5.5132 -4.518,-10.031 -10.031,-10.031 z m 54,0 c -5.5132,0 -10.031,4.518 -10.031,10.031 0,5.5132 4.518,10.031 10.031,10.031 5.5132,0 10.031,-4.518 10.031,-10.031 0,-5.5132 -4.518,-10.031 -10.031,-10.031 z" />
      <path
         style="opacity:0.15;stroke:#000000;stroke-width:2;stroke-linecap:square"
         inkscape:connector-curvature="0"
         id="path2354"
         d="M 48,13.062 C 31.49,13.062 18.062,26.49 18.062,43 18.062,59.51 31.49,72.937 48,72.938 64.51,72.938 77.937,59.51 77.938,43 77.938,26.49 64.51,13.062 48,13.062 Z m -27,54 c -4.918,0 -8.9375,4.0195 -8.9375,8.9375 0,4.918 4.0195,8.9375 8.9375,8.9375 4.918,0 8.9375,-4.0195 8.9375,-8.9375 0,-4.918 -4.0195,-8.9375 -8.9375,-8.9375 z m 54,0 c -4.918,0 -8.9375,4.0195 -8.9375,8.9375 0,4.918 4.0195,8.9375 8.9375,8.9375 4.918,0 8.9375,-4.0195 8.9375,-8.9375 0,-4.918 -4.0195,-8.9375 -8.9375,-8.9375 z" />
      <path
         style="opacity:0.31000001;stroke:#000000;stroke-width:2;stroke-linecap:square"
         inkscape:connector-curvature="0"
         id="path2356"
         d="M 48,14 C 31.992,14 19,26.992 19,43 19,59.008 31.992,72 48,72 64.008,72 77,59.008 77,43 77,26.992 64.008,14 48,14 Z M 21,68 c -4.416,0 -8,3.584 -8,8 0,4.416 3.584,8 8,8 4.416,0 8,-3.584 8,-8 0,-4.416 -3.584,-8 -8,-8 z m 54,0 c -4.416,0 -8,3.584 -8,8 0,4.416 3.584,8 8,8 4.416,0 8,-3.584 8,-8 0,-4.416 -3.584,-8 -8,-8 z" />
      <g
         style="fill-rule:evenodd"
         id="g2358"
         transform="matrix(0.63162,0,0,0.63174,28.587,-19.04)">
        <use
           height="100%"
           width="100%"
           y="0"
           x="0"
           style="fill:url(#radialGradient12010);stroke:url(#linearGradient12012);stroke-width:3.9519999;stroke-linejoin:round"
           id="use2360"
           transform="matrix(0.40061,0,0,0.40061,-40.625,122.64)"
           xlink:href="#SVGCleanerId_1" />
        <use
           height="100%"
           width="100%"
           y="0"
           x="0"
           style="fill:#323232"
           id="use2362"
           transform="matrix(0.30816,0,0,0.30816,-34.02,128.69)"
           xlink:href="#SVGCleanerId_1" />
        <use
           height="100%"
           width="100%"
           y="0"
           x="0"
           id="use2364"
           xlink:href="#SVGCleanerId_2" />
        <use
           height="100%"
           width="100%"
           y="0"
           x="0"
           id="use2366"
           xlink:href="#SVGCleanerId_3" />
        <use
           height="100%"
           width="100%"
           y="0"
           x="0"
           style="fill:url(#linearGradient12014);stroke:#c2c2c2;stroke-width:6.45900011;stroke-linejoin:round"
           id="use2368"
           transform="matrix(0.23264,0,0,0.23264,-28.628,133.63)"
           xlink:href="#SVGCleanerId_1" />
        <use
           height="100%"
           width="100%"
           y="0"
           x="0"
           id="use2370"
           transform="matrix(0.46034,0,0,0.46034,-6.483,80.33)"
           xlink:href="#SVGCleanerId_4" />
      </g>
      <g
         style="fill-rule:evenodd"
         id="g2372"
         transform="matrix(0.63162,0,0,0.63174,82.59,-19.04)">
        <use
           height="100%"
           width="100%"
           y="0"
           x="0"
           style="fill:url(#radialGradient12016);stroke:url(#linearGradient12018);stroke-width:3.9519999;stroke-linejoin:round"
           id="use2374"
           transform="matrix(0.40061,0,0,0.40061,-40.625,122.64)"
           xlink:href="#SVGCleanerId_1" />
        <use
           height="100%"
           width="100%"
           y="0"
           x="0"
           style="fill:#323232"
           id="use2376"
           transform="matrix(0.30816,0,0,0.30816,-34.02,128.69)"
           xlink:href="#SVGCleanerId_1" />
        <use
           height="100%"
           width="100%"
           y="0"
           x="0"
           id="use2378"
           xlink:href="#SVGCleanerId_2" />
        <use
           height="100%"
           width="100%"
           y="0"
           x="0"
           id="use2380"
           xlink:href="#SVGCleanerId_3" />
        <use
           height="100%"
           width="100%"
           y="0"
           x="0"
           style="fill:url(#linearGradient12020);stroke:#c2c2c2;stroke-width:6.45900011;stroke-linejoin:round"
           id="use2382"
           transform="matrix(0.23264,0,0,0.23264,-28.628,133.63)"
           xlink:href="#SVGCleanerId_1" />
        <use
           height="100%"
           width="100%"
           y="0"
           x="0"
           id="use2384"
           transform="matrix(0.46034,0,0,0.46034,-6.483,80.33)"
           xlink:href="#SVGCleanerId_4" />
      </g>
      <use
         height="100%"
         width="100%"
         y="0"
         x="0"
         style="fill:url(#radialGradient12022);fill-rule:evenodd;stroke:url(#linearGradient12024);stroke-width:2.31699991;stroke-linejoin:round"
         id="use2386"
         transform="matrix(0.86325,0,0,0.86341,-13.657,-14.485)"
         xlink:href="#SVGCleanerId_1" />
      <use
         height="100%"
         width="100%"
         y="0"
         x="0"
         style="fill:#323232;fill-rule:evenodd"
         id="use2388"
         transform="matrix(0.66404,0,0,0.66416,0.57,-1.45)"
         xlink:href="#SVGCleanerId_1" />
      <path
         inkscape:connector-curvature="0"
         style="opacity:0.3;fill:url(#linearGradient228958);fill-rule:evenodd"
         id="path2390"
         d="m 47.994,19.692 c -12.311,0 -22.303,9.9938 -22.303,22.308 0,0.25136 0.01497,0.49423 0.02323,0.74359 0.39646,-11.967 10.22,-21.564 22.28,-21.564 12.06,-1e-6 21.884,9.5975 22.28,21.564 0.0083,-0.24936 0.02323,-0.49223 0.02323,-0.74359 0,-12.314 -9.9919,-22.308 -22.303,-22.308 z" />
      <path
         inkscape:connector-curvature="0"
         style="opacity:0.5;fill:url(#linearGradient228960);fill-rule:evenodd"
         id="path2392"
         d="m 25.714,41.256 c -0.0083,0.24936 -0.02323,0.49223 -0.02323,0.74359 0,12.314 9.9919,22.308 22.303,22.308 12.312,0 22.303,-9.9938 22.303,-22.308 0,-0.25136 -0.01497,-0.49423 -0.02323,-0.74359 -0.39646,11.967 -10.22,21.564 -22.28,21.564 -12.06,10e-7 -21.884,-9.5975 -22.28,-21.564 z" />
      <path
         style="opacity:0.8;fill:#b7b7b7;fill-rule:evenodd;filter:url(#filter3791)"
         inkscape:connector-curvature="0"
         id="path2394"
         transform="matrix(0.74345,0,0,0.74359,0.414,-5.59)"
         d="M 64,39.5 C 50.477,39.5 39.5,50.477 39.5,64 39.5,77.523 50.477,88.5 64,88.5 77.523,88.5 88.5,77.523 88.5,64 88.5,50.477 77.523,39.5 64,39.5 Z m 0,3.1875 c 11.767,0 21.312,9.545 21.312,21.312 C 85.313,75.7665 75.767,85.3115 64,85.3115 52.233,85.3125 42.688,75.7665 42.688,63.9995 42.687,52.2325 52.233,42.6875 64,42.6875 Z" />
      <use
         height="100%"
         width="100%"
         y="0"
         x="0"
         style="fill:url(#linearGradient12026);fill-rule:evenodd;stroke:#c2c2c2;stroke-width:2.31699991;stroke-linejoin:round"
         id="use2396"
         transform="matrix(0.4097,0,0,0.40978,18.735,15.192)"
         xlink:href="#SVGCleanerId_1" />
      <path
         inkscape:connector-curvature="0"
         style="opacity:0.5;fill:url(#linearGradient228964);fill-rule:evenodd;filter:url(#filter3528)"
         id="path2398"
         transform="matrix(0.74345,0,0,0.74359,0.414,-5.59)"
         d="m 64,49.031 c -8.2656,0 -14.969,6.7031 -14.969,14.969 0,8.2656 6.7031,14.969 14.969,14.969 8.2656,0 14.969,-6.7031 14.969,-14.969 0,-8.2656 -6.7031,-14.969 -14.969,-14.969 z m 0,4.0625 c 6.021,0 10.906,4.885 10.906,10.906 0,6.021 -4.885,10.906 -10.906,10.906 -6.021,0 -10.906,-4.885 -10.906,-10.906 0,-6.021 4.885,-10.906 10.906,-10.906 z" />
      <use
         height="100%"
         width="100%"
         y="0"
         x="0"
         style="fill:url(#linearGradient228966);fill-rule:evenodd"
         id="use2400"
         transform="matrix(0.17884,0,0,0.17887,35.22,30.3)"
         xlink:href="#SVGCleanerId_1" />
      <use
         height="100%"
         width="100%"
         y="0"
         x="0"
         style="opacity:0.8;fill:url(#linearGradient228968);fill-rule:evenodd"
         id="use2402"
         transform="matrix(0.13384,0,0,0.08593,38.436,34.11)"
         xlink:href="#SVGCleanerId_1" />
    </g>
  </g>
  <g
     id="g14291">
    <path
       d="m 5.2922679,73.685059 0,5.0663 c 0,6.668 5.3645011,12.032 12.0320011,12.032 l 61.049,0 c 6.668,0 12.032,-5.3645 12.032,-12.032 l 0,-5.0663 c 0,6.6681 -5.3645,12.032 -12.032,12.032 l -61.049,0 c -6.668,0 -12.0320011,-5.3643 -12.0320011,-12.032 z"
       id="path64"
       inkscape:connector-curvature="0"
       style="opacity:0.4;fill:url(#linearGradient14237);fill-opacity:1" />
    <path
       inkscape:connector-curvature="0"
       id="path14214"
       d="m 5.2929688,72.717592 0,1.15039 c 0,6.667718 5.3632502,12.031248 12.0312502,12.031248 l 61.048828,0 c 6.6675,0 12.03125,-5.36313 12.03125,-12.031248 l 0,-1.15039 c 0,6.668098 -5.36375,12.031248 -12.03125,12.031248 l -61.048828,0 c -6.668,0 -12.0312502,-5.36355 -12.0312502,-12.031248 z"
       style="opacity:0.5;fill:url(#linearGradient14245);fill-opacity:1" />
  </g>
</svg>
