<?xml version="1.0" encoding="UTF-8" standalone="no"?>
<svg
   xmlns:dc="http://purl.org/dc/elements/1.1/"
   xmlns:cc="http://creativecommons.org/ns#"
   xmlns:rdf="http://www.w3.org/1999/02/22-rdf-syntax-ns#"
   xmlns:svg="http://www.w3.org/2000/svg"
   xmlns="http://www.w3.org/2000/svg"
   xmlns:xlink="http://www.w3.org/1999/xlink"
   xmlns:sodipodi="http://sodipodi.sourceforge.net/DTD/sodipodi-0.dtd"
   xmlns:inkscape="http://www.inkscape.org/namespaces/inkscape"
   height="96"
   width="96"
   id="svg2"
   version="1.1"
   inkscape:version="0.91 r13725"
   sodipodi:docname="scim-setup.svg"
   inkscape:export-filename="/usr/share/icons/Tebu/apps/16/scim.png"
   inkscape:export-xdpi="15"
   inkscape:export-ydpi="15">
  <metadata
     id="metadata56">
    <rdf:RDF>
      <cc:Work
         rdf:about="">
        <dc:format>image/svg+xml</dc:format>
        <dc:type
           rdf:resource="http://purl.org/dc/dcmitype/StillImage" />
        <dc:title />
      </cc:Work>
    </rdf:RDF>
  </metadata>
  <sodipodi:namedview
     pagecolor="#ffffff"
     bordercolor="#666666"
     borderopacity="1"
     objecttolerance="10"
     gridtolerance="10"
     guidetolerance="10"
     inkscape:pageopacity="0"
     inkscape:pageshadow="2"
     inkscape:window-width="758"
     inkscape:window-height="406"
     id="namedview54"
     showgrid="false"
     inkscape:zoom="2.4583333"
     inkscape:cx="38.612677"
     inkscape:cy="63.551866"
     inkscape:window-x="38"
     inkscape:window-y="128"
     inkscape:window-maximized="0"
     inkscape:current-layer="svg2" />
  <defs
     id="defs4">
    <linearGradient
       inkscape:collect="always"
       id="linearGradient4181">
      <stop
         style="stop-color:#eaeaea;stop-opacity:1"
         offset="0"
         id="stop4183" />
      <stop
         style="stop-color:#a0a0a0;stop-opacity:1"
         offset="1"
         id="stop4185" />
    </linearGradient>
    <clipPath
       id="clipPath3613-55">
      <rect
         x="6"
         rx="6"
         y="6"
         height="84"
         width="84"
         id="rect7" />
    </clipPath>
    <filter
       x="-0.192"
       y="-0.192"
       height="1.384"
       color-interpolation-filters="sRGB"
       id="filter3794-41"
       width="1.384">
      <feGaussianBlur
         stdDeviation="5.28"
         id="feGaussianBlur10" />
    </filter>
    <linearGradient
       x2="0"
       y1="20.221"
       y2="138.66"
       gradientUnits="userSpaceOnUse"
       id="linearGradient90466">
      <stop
         stop-color="#fff"
         id="stop13" />
      <stop
         stop-color="#fff"
         stop-opacity="0"
         offset="1"
         id="stop15" />
    </linearGradient>
    <linearGradient
       inkscape:collect="always"
       xlink:href="#linearGradient4181"
       id="linearGradient4187"
       x1="43.67429"
       y1="4.9913368"
       x2="40.059322"
       y2="85.12693"
       gradientUnits="userSpaceOnUse" />
  </defs>
  <rect
     x="3.608"
     rx="12.552"
     y="3.6"
     fill-opacity="0.039"
     height="88.76"
     width="88.76"
     id="rect32" />
  <rect
     x="4.216"
     rx="12.38"
     y="4.21"
     fill-opacity="0.078"
     height="87.55"
     width="87.55"
     id="rect34" />
  <rect
     x="4.824"
     rx="12.208"
     y="4.82"
     fill-opacity="0.157"
     height="86.33"
     width="86.33"
     id="rect36" />
  <path
     d="m 17.469,5.4062 c -6.668,0 -12.032,5.3948 -12.032,12.063 l 5e-4,61.031 c 0,5.418 3.5332,9.982 8.4375,11.5 h 68.187 c 4.715,-1.457 8.172,-5.734 8.438,-10.875 v -62.281 c -0.321,-6.377 -5.54,-11.438 -12,-11.438 l -61.031,2e-4 z"
     fill="url(#linearGradient3889)"
     opacity="0.9"
     inkscape:connector-curvature="0"
     id="path38"
     style="fill:url(#linearGradient4187);fill-opacity:1" />
  <path
     d="m 5.4316,73.44 v 5.0663 c 0,6.668 5.3645,12.032 12.032,12.032 h 61.049 c 6.668,0 12.032,-5.3645 12.032,-12.032 V 73.44 c 0,6.6681 -5.3645,12.032 -12.032,12.032 h -61.049 c -6.668,0 -12.032,-5.3643 -12.032,-12.032 z"
     fill-opacity="0.235"
     inkscape:connector-curvature="0"
     id="path40" />
  <path
     d="m 5.4316,77.54 v 1.0133 c 0,6.668 5.3645,12.032 12.032,12.032 h 61.049 c 6.668,0 12.032,-5.3645 12.032,-12.032 V 77.54 c 0,6.6681 -5.3645,12.032 -12.032,12.032 h -61.049 c -6.668,0 -12.032,-5.3644 -12.032,-12.032 z"
     fill-opacity="0.098"
     inkscape:connector-curvature="0"
     id="path42" />
  <rect
     x="15"
     rx="12"
     y="15"
     clip-path="url(#clipPath3613-55)"
     height="66"
     width="66"
     transform="translate(-0.09321985,-1.279661)"
     id="rect44"
     style="opacity:0.3;fill:url(#linearGradient90466);stroke:white;stroke-width:0.5;stroke-linecap:round;filter:url(#filter3794-41)" />
  <flowRoot
     xml:space="preserve"
     id="flowRoot4184"
     style="fill:black;stroke:none;stroke-opacity:1;stroke-width:1px;stroke-linejoin:miter;stroke-linecap:butt;fill-opacity:1;font-family:Comic Sans MS;font-style:normal;font-weight:normal;font-size:12.5px;line-height:125%;letter-spacing:0px;word-spacing:0px;-inkscape-font-specification:Comic Sans MS;font-stretch:normal;font-variant:normal;text-anchor:end;text-align:end"><flowRegion
       id="flowRegion4186"><rect
         id="rect4188"
         width="34.576271"
         height="35.389832"
         x="112.27119"
         y="43.118645" /></flowRegion><flowPara
       id="flowPara4190" /></flowRoot>  <text
     xml:space="preserve"
     style="font-style:normal;font-variant:normal;font-weight:normal;font-stretch:normal;font-size:12.5px;line-height:125%;font-family:'Comic Sans MS';-inkscape-font-specification:'Comic Sans MS';text-align:end;letter-spacing:0px;word-spacing:0px;text-anchor:end;fill:black;fill-opacity:1;stroke:none;stroke-width:1px;stroke-linecap:butt;stroke-linejoin:miter;stroke-opacity:1"
     x="117.15254"
     y="48.81356"
     id="text4192"
     sodipodi:linespacing="125%"><tspan
       sodipodi:role="line"
       id="tspan4194"
       x="117.15254"
       y="48.81356" /></text>
  <g
     id="g4221"
     style="font-style:normal;font-variant:normal;font-weight:normal;font-stretch:normal;font-size:29.53266144px;line-height:125%;font-family:'Comic Sans MS';-inkscape-font-specification:'Comic Sans MS';text-align:end;letter-spacing:0px;word-spacing:0px;text-anchor:end;fill:black;fill-opacity:1;stroke:none;stroke-width:1px;stroke-linecap:butt;stroke-linejoin:miter;stroke-opacity:1;opacity:0.2"
     transform="matrix(1.0471014,0,0,0.95501735,0,1.220339)">
    <path
       id="path4223"
       style="text-align:center;text-anchor:middle;fill:black"
       d="m 33.994382,28.238389 -2.362613,0 q -0.807226,0 -0.610342,-1.043488 0.196884,-1.102552 1.00411,-1.102552 l 2.697317,0 1.614452,-4.823668 q 0.275638,-0.76785 -0.728472,-0.76785 l -3.406101,0 q -1.141929,-0.03938 -0.826914,-1.26006 0.118131,-1.26006 1.220683,-1.26006 l 5.985286,0 q 1.220684,0.05907 1.220684,0.787538 0,0.11813 -0.03938,0.236261 l -2.362613,7.087839 1.988532,0 q 0.807226,0 0.610342,1.063175 -0.196884,1.082865 -1.043487,1.082865 l -2.28386,0 -2.342924,7.009085 q -0.216573,0.807226 -1.338814,0.787537 -0.610342,0.01969 -1.043487,-0.196884 -0.413458,-0.236261 -0.236262,-0.767849 l 2.28386,-6.831889 z m -9.706402,0 -2.362613,0 q -0.807226,0 -0.590653,-1.043488 0.177196,-1.102552 0.984422,-1.102552 l 2.697316,0 1.614453,-4.823668 q 0.275638,-0.76785 -0.728473,-0.76785 l -3.4061,0 q -1.14193,-0.03938 -0.866291,-1.26006 0.157507,-1.26006 1.26006,-1.26006 l 5.985286,0 q 1.220683,0.05907 1.220683,0.787538 0,0.11813 -0.03938,0.236261 l -2.362613,7.087839 1.594764,0 q 0.807226,0 0.531588,1.063175 -0.118131,1.082865 -0.964734,1.082865 l -1.89009,0 -2.342924,7.009085 q -0.21657,0.807226 -1.338811,0.787537 -0.610342,0.01969 -1.043488,-0.196884 -0.413457,-0.236261 -0.236261,-0.767849 l 2.283859,-6.831889 z"
       inkscape:connector-curvature="0" />
    <path
       id="path4225"
       style="text-align:center;text-anchor:middle;fill:black"
       d="m 41.330648,28.139946 4.311769,0 q 0.413457,0 0.590653,0.433146 0.177196,0.452834 -0.137819,0.669407 l -2.047598,1.338814 q -0.236261,0.177196 0.09844,0.236261 0.767849,0.236262 1.535699,0.866292 0.551276,0.511899 0.708783,1.200995 0.25595,0.689095 -0.216572,2.165728 -0.452835,1.004111 -2.14604,2.047598 -1.161618,0.649719 -1.161618,1.082864 0,0.275639 0.531587,0.275639 1.023799,0.11813 2.28386,-0.374081 0.354391,-0.315015 0.649718,-0.01969 l 0.236261,0.413457 q 0.295327,0.393769 -0.09844,0.767849 -2.244482,0.826915 -3.819557,0.708784 -1.693206,-0.236261 -1.693206,-1.614452 0,-0.866292 1.929467,-2.205106 1.949156,-1.338813 1.949156,-2.835135 0,-0.354392 -0.275639,-0.610342 -1.043487,-1.00411 -2.77607,-0.846603 -0.63003,0.07875 -0.63003,-0.787537 0,-0.295327 0.236261,-0.413458 l 1.614453,-0.964733 q 0.255949,-0.157508 0,-0.295327 l -1.673518,0 q -0.37408,0 -0.37408,-0.570965 0.05907,-0.669407 0.37408,-0.669407 z"
       inkscape:connector-curvature="0" />
    <path
       id="path4227"
       style="text-align:center;text-anchor:middle;fill:black"
       d="m 68.596049,18.768249 -4.272392,13.919727 q -0.767849,2.441367 -2.874513,3.071397 -2.086974,0.610342 -4.429899,-0.118131 -0.393769,-0.11813 -2.224794,-1.141929 -0.03938,0.07875 -0.09844,0.157507 -0.03938,0.07875 -0.05906,0.09844 -0.118131,0.11813 -0.236261,0.275638 -1.004111,1.00411 -2.421679,1.00411 l 0,0 q -1.417567,0 -2.382301,-0.964733 -0.964734,-0.964734 -0.964734,-2.382302 l 0,0 0,0 0,0 0,0 q 0,-1.358502 0.964734,-2.323236 0.964734,-0.984422 2.382301,-0.984422 0.76785,-0.03938 2.047598,0.689096 l 2.953266,-8.781045 Q 57.255514,20.48114 56.645172,20.48114 l -4.449588,0 q -0.826914,0 -0.511899,-1.358502 0.295326,-1.14193 1.240372,-1.14193 l 6.792512,0 q 0.905668,0 0.610341,0.767849 l -4.351145,12.876241 q 2.421678,1.693205 3.465166,1.653829 1.89009,-0.01969 2.480743,-1.811337 l 4.095189,-12.71873 q 0.275638,-0.767849 1.397879,-0.767849 1.378191,0 1.181307,0.787538 z M 51.959316,31.565735 q -0.5119,0 -0.88598,0.354392 -0.354392,0.354392 -0.354392,0.846603 0,0.472523 0.354392,0.826915 0.37408,0.354392 0.88598,0.354392 0.531588,0 0.88598,-0.354392 0.37408,-0.354392 0.37408,-0.826915 0,-0.492211 -0.37408,-0.846603 -0.354392,-0.354392 -0.88598,-0.354392 z"
       inkscape:connector-curvature="0" />
    <path
       id="path4229"
       style="text-align:center;text-anchor:middle;fill:black"
       d="m 68.089721,28.139946 4.311769,0 q 0.413457,0 0.590653,0.433146 0.177196,0.452834 -0.137819,0.669407 l -2.047598,1.338814 q -0.236261,0.177196 0.09844,0.236261 0.76785,0.236262 1.535699,0.866292 0.551276,0.511899 0.708784,1.200995 0.255949,0.689095 -0.216573,2.165728 -0.452834,1.004111 -2.14604,2.047598 -1.161618,0.649719 -1.161618,1.082864 0,0.275639 0.531588,0.275639 1.023799,0.11813 2.283859,-0.374081 0.354392,-0.315015 0.649718,-0.01969 l 0.236262,0.413457 q 0.295326,0.393769 -0.09844,0.767849 -2.244482,0.826915 -3.819557,0.708784 -1.693206,-0.236261 -1.693206,-1.614452 0,-0.866292 1.929467,-2.205106 1.949156,-1.338813 1.949156,-2.835135 0,-0.354392 -0.275638,-0.610342 -1.043488,-1.00411 -2.77607,-0.846603 -0.630031,0.07875 -0.630031,-0.787537 0,-0.295327 0.236262,-0.413458 l 1.614452,-0.964733 q 0.25595,-0.157508 0,-0.295327 l -1.673518,0 q -0.37408,0 -0.37408,-0.570965 0.05906,-0.669407 0.37408,-0.669407 z"
       inkscape:connector-curvature="0" />
    <path
       id="path4231"
       style="text-align:center;text-anchor:middle;fill:black"
       d="m 38.768982,57.377281 -1.338814,0 q -0.63003,0.05907 -0.866291,0.728473 l -3.799869,11.320853 q -0.216573,0.728472 0.551276,0.728472 l 4.843357,0 q 0.531588,0 0.610341,-0.334703 l 0.570965,-1.575075 q 0.157508,-0.472523 1.476633,-0.472523 1.51601,0.05907 1.299437,0.689096 l -1.122241,3.858934 q -0.236261,0.669407 -1.732583,0.63003 l -9.155125,0 q -1.200995,0.03938 -1.200995,-0.767849 0,-0.236261 0.118131,-0.63003 l 5.315879,-15.829507 q 0.295327,-0.807226 1.378191,-0.807226 l 3.484854,0 q 0.945045,0.01969 0.610342,1.358503 -0.137819,1.102552 -1.043488,1.102552 z"
       inkscape:connector-curvature="0" />
    <path
       id="path4233"
       style="text-align:center;text-anchor:middle;fill:black"
       d="m 45.255093,62.555341 4.449588,0 q 0.826914,0 0.590653,0.689096 l -1.870402,6.319989 q -0.196884,0.649719 0.610342,0.649719 l 3.583296,0 q 0.689095,0 0.925357,-0.689096 L 57.560369,57.948246 Q 57.757253,57.39697 57.068157,57.39697 l -11.458672,0 q -0.88598,-0.03938 -0.689096,-1.26006 0.216573,-1.240372 1.063176,-1.240372 l 13.840974,0 q 1.161618,0 0.866292,1.00411 l -5.315879,16.321718 q -0.236262,0.689095 -1.260061,0.728472 l -8.426652,0 q -0.964734,0 -0.964734,-0.511899 0,-0.25595 0.118131,-0.649719 l 2.283859,-6.792512 q 0.05906,-0.216573 -0.216573,-0.216573 l -2.086975,0 q -0.689095,0 -0.472522,-1.141929 0.177196,-1.082865 0.905668,-1.082865 z"
       inkscape:connector-curvature="0" />
    <path
       id="path4235"
       style="text-align:center;text-anchor:middle;fill:black"
       d="m 60.30279,65.055773 4.311768,0 q 0.413457,0 0.590653,0.433146 0.177196,0.452834 -0.137819,0.669407 l -2.047598,1.338814 q -0.236261,0.177196 0.09844,0.236261 0.767849,0.236262 1.535698,0.866292 0.551276,0.511899 0.708784,1.200995 0.25595,0.689095 -0.216573,2.165728 -0.452834,1.004111 -2.14604,2.047598 -1.161618,0.649718 -1.161618,1.082864 0,0.275638 0.531588,0.275638 1.023799,0.118131 2.283859,-0.37408 0.354392,-0.315015 0.649719,-0.01969 l 0.236261,0.413457 q 0.295327,0.393769 -0.09844,0.767849 -2.244483,0.826914 -3.819558,0.708784 -1.693206,-0.236261 -1.693206,-1.614452 0,-0.866292 1.929467,-2.205106 1.949156,-1.338814 1.949156,-2.835135 0,-0.354392 -0.275638,-0.610342 -1.043487,-1.00411 -2.77607,-0.846603 -0.63003,0.07875 -0.63003,-0.787537 0,-0.295327 0.236261,-0.413458 l 1.614452,-0.964733 q 0.25595,-0.157508 0,-0.295327 l -1.673517,0 q -0.374081,0 -0.374081,-0.570965 0.05907,-0.669407 0.374081,-0.669407 z"
       inkscape:connector-curvature="0" />
  </g>
  <g
     transform="matrix(1.0471014,0,0,0.95501735,0,2.237288)"
     style="font-style:normal;font-variant:normal;font-weight:normal;font-stretch:normal;font-size:29.53266144px;line-height:125%;font-family:'Comic Sans MS';-inkscape-font-specification:'Comic Sans MS';text-align:end;letter-spacing:0px;word-spacing:0px;text-anchor:end;opacity:0.2;fill:black;fill-opacity:1;stroke:none;stroke-width:1px;stroke-linecap:butt;stroke-linejoin:miter;stroke-opacity:1"
     id="g4237">
    <path
       inkscape:connector-curvature="0"
       d="m 33.994382,28.238389 -2.362613,0 q -0.807226,0 -0.610342,-1.043488 0.196884,-1.102552 1.00411,-1.102552 l 2.697317,0 1.614452,-4.823668 q 0.275638,-0.76785 -0.728472,-0.76785 l -3.406101,0 q -1.141929,-0.03938 -0.826914,-1.26006 0.118131,-1.26006 1.220683,-1.26006 l 5.985286,0 q 1.220684,0.05907 1.220684,0.787538 0,0.11813 -0.03938,0.236261 l -2.362613,7.087839 1.988532,0 q 0.807226,0 0.610342,1.063175 -0.196884,1.082865 -1.043487,1.082865 l -2.28386,0 -2.342924,7.009085 q -0.216573,0.807226 -1.338814,0.787537 -0.610342,0.01969 -1.043487,-0.196884 -0.413458,-0.236261 -0.236262,-0.767849 l 2.28386,-6.831889 z m -9.706402,0 -2.362613,0 q -0.807226,0 -0.590653,-1.043488 0.177196,-1.102552 0.984422,-1.102552 l 2.697316,0 1.614453,-4.823668 q 0.275638,-0.76785 -0.728473,-0.76785 l -3.4061,0 q -1.14193,-0.03938 -0.866291,-1.26006 0.157507,-1.26006 1.26006,-1.26006 l 5.985286,0 q 1.220683,0.05907 1.220683,0.787538 0,0.11813 -0.03938,0.236261 l -2.362613,7.087839 1.594764,0 q 0.807226,0 0.531588,1.063175 -0.118131,1.082865 -0.964734,1.082865 l -1.89009,0 -2.342924,7.009085 q -0.21657,0.807226 -1.338811,0.787537 -0.610342,0.01969 -1.043488,-0.196884 -0.413457,-0.236261 -0.236261,-0.767849 l 2.283859,-6.831889 z"
       style="text-align:center;text-anchor:middle;fill:black"
       id="path4239" />
    <path
       inkscape:connector-curvature="0"
       d="m 41.330648,28.139946 4.311769,0 q 0.413457,0 0.590653,0.433146 0.177196,0.452834 -0.137819,0.669407 l -2.047598,1.338814 q -0.236261,0.177196 0.09844,0.236261 0.767849,0.236262 1.535699,0.866292 0.551276,0.511899 0.708783,1.200995 0.25595,0.689095 -0.216572,2.165728 -0.452835,1.004111 -2.14604,2.047598 -1.161618,0.649719 -1.161618,1.082864 0,0.275639 0.531587,0.275639 1.023799,0.11813 2.28386,-0.374081 0.354391,-0.315015 0.649718,-0.01969 l 0.236261,0.413457 q 0.295327,0.393769 -0.09844,0.767849 -2.244482,0.826915 -3.819557,0.708784 -1.693206,-0.236261 -1.693206,-1.614452 0,-0.866292 1.929467,-2.205106 1.949156,-1.338813 1.949156,-2.835135 0,-0.354392 -0.275639,-0.610342 -1.043487,-1.00411 -2.77607,-0.846603 -0.63003,0.07875 -0.63003,-0.787537 0,-0.295327 0.236261,-0.413458 l 1.614453,-0.964733 q 0.255949,-0.157508 0,-0.295327 l -1.673518,0 q -0.37408,0 -0.37408,-0.570965 0.05907,-0.669407 0.37408,-0.669407 z"
       style="text-align:center;text-anchor:middle;fill:black"
       id="path4241" />
    <path
       inkscape:connector-curvature="0"
       d="m 68.596049,18.768249 -4.272392,13.919727 q -0.767849,2.441367 -2.874513,3.071397 -2.086974,0.610342 -4.429899,-0.118131 -0.393769,-0.11813 -2.224794,-1.141929 -0.03938,0.07875 -0.09844,0.157507 -0.03938,0.07875 -0.05906,0.09844 -0.118131,0.11813 -0.236261,0.275638 -1.004111,1.00411 -2.421679,1.00411 l 0,0 q -1.417567,0 -2.382301,-0.964733 -0.964734,-0.964734 -0.964734,-2.382302 l 0,0 0,0 0,0 0,0 q 0,-1.358502 0.964734,-2.323236 0.964734,-0.984422 2.382301,-0.984422 0.76785,-0.03938 2.047598,0.689096 l 2.953266,-8.781045 Q 57.255514,20.48114 56.645172,20.48114 l -4.449588,0 q -0.826914,0 -0.511899,-1.358502 0.295326,-1.14193 1.240372,-1.14193 l 6.792512,0 q 0.905668,0 0.610341,0.767849 l -4.351145,12.876241 q 2.421678,1.693205 3.465166,1.653829 1.89009,-0.01969 2.480743,-1.811337 l 4.095189,-12.71873 q 0.275638,-0.767849 1.397879,-0.767849 1.378191,0 1.181307,0.787538 z M 51.959316,31.565735 q -0.5119,0 -0.88598,0.354392 -0.354392,0.354392 -0.354392,0.846603 0,0.472523 0.354392,0.826915 0.37408,0.354392 0.88598,0.354392 0.531588,0 0.88598,-0.354392 0.37408,-0.354392 0.37408,-0.826915 0,-0.492211 -0.37408,-0.846603 -0.354392,-0.354392 -0.88598,-0.354392 z"
       style="text-align:center;text-anchor:middle;fill:black"
       id="path4243" />
    <path
       inkscape:connector-curvature="0"
       d="m 68.089721,28.139946 4.311769,0 q 0.413457,0 0.590653,0.433146 0.177196,0.452834 -0.137819,0.669407 l -2.047598,1.338814 q -0.236261,0.177196 0.09844,0.236261 0.76785,0.236262 1.535699,0.866292 0.551276,0.511899 0.708784,1.200995 0.255949,0.689095 -0.216573,2.165728 -0.452834,1.004111 -2.14604,2.047598 -1.161618,0.649719 -1.161618,1.082864 0,0.275639 0.531588,0.275639 1.023799,0.11813 2.283859,-0.374081 0.354392,-0.315015 0.649718,-0.01969 l 0.236262,0.413457 q 0.295326,0.393769 -0.09844,0.767849 -2.244482,0.826915 -3.819557,0.708784 -1.693206,-0.236261 -1.693206,-1.614452 0,-0.866292 1.929467,-2.205106 1.949156,-1.338813 1.949156,-2.835135 0,-0.354392 -0.275638,-0.610342 -1.043488,-1.00411 -2.77607,-0.846603 -0.630031,0.07875 -0.630031,-0.787537 0,-0.295327 0.236262,-0.413458 l 1.614452,-0.964733 q 0.25595,-0.157508 0,-0.295327 l -1.673518,0 q -0.37408,0 -0.37408,-0.570965 0.05906,-0.669407 0.37408,-0.669407 z"
       style="text-align:center;text-anchor:middle;fill:black"
       id="path4245" />
    <path
       inkscape:connector-curvature="0"
       d="m 38.768982,57.377281 -1.338814,0 q -0.63003,0.05907 -0.866291,0.728473 l -3.799869,11.320853 q -0.216573,0.728472 0.551276,0.728472 l 4.843357,0 q 0.531588,0 0.610341,-0.334703 l 0.570965,-1.575075 q 0.157508,-0.472523 1.476633,-0.472523 1.51601,0.05907 1.299437,0.689096 l -1.122241,3.858934 q -0.236261,0.669407 -1.732583,0.63003 l -9.155125,0 q -1.200995,0.03938 -1.200995,-0.767849 0,-0.236261 0.118131,-0.63003 l 5.315879,-15.829507 q 0.295327,-0.807226 1.378191,-0.807226 l 3.484854,0 q 0.945045,0.01969 0.610342,1.358503 -0.137819,1.102552 -1.043488,1.102552 z"
       style="text-align:center;text-anchor:middle;fill:black"
       id="path4247" />
    <path
       inkscape:connector-curvature="0"
       d="m 45.255093,62.555341 4.449588,0 q 0.826914,0 0.590653,0.689096 l -1.870402,6.319989 q -0.196884,0.649719 0.610342,0.649719 l 3.583296,0 q 0.689095,0 0.925357,-0.689096 L 57.560369,57.948246 Q 57.757253,57.39697 57.068157,57.39697 l -11.458672,0 q -0.88598,-0.03938 -0.689096,-1.26006 0.216573,-1.240372 1.063176,-1.240372 l 13.840974,0 q 1.161618,0 0.866292,1.00411 l -5.315879,16.321718 q -0.236262,0.689095 -1.260061,0.728472 l -8.426652,0 q -0.964734,0 -0.964734,-0.511899 0,-0.25595 0.118131,-0.649719 l 2.283859,-6.792512 q 0.05906,-0.216573 -0.216573,-0.216573 l -2.086975,0 q -0.689095,0 -0.472522,-1.141929 0.177196,-1.082865 0.905668,-1.082865 z"
       style="text-align:center;text-anchor:middle;fill:black"
       id="path4249" />
    <path
       inkscape:connector-curvature="0"
       d="m 60.30279,65.055773 4.311768,0 q 0.413457,0 0.590653,0.433146 0.177196,0.452834 -0.137819,0.669407 l -2.047598,1.338814 q -0.236261,0.177196 0.09844,0.236261 0.767849,0.236262 1.535698,0.866292 0.551276,0.511899 0.708784,1.200995 0.25595,0.689095 -0.216573,2.165728 -0.452834,1.004111 -2.14604,2.047598 -1.161618,0.649718 -1.161618,1.082864 0,0.275638 0.531588,0.275638 1.023799,0.118131 2.283859,-0.37408 0.354392,-0.315015 0.649719,-0.01969 l 0.236261,0.413457 q 0.295327,0.393769 -0.09844,0.767849 -2.244483,0.826914 -3.819558,0.708784 -1.693206,-0.236261 -1.693206,-1.614452 0,-0.866292 1.929467,-2.205106 1.949156,-1.338814 1.949156,-2.835135 0,-0.354392 -0.275638,-0.610342 -1.043487,-1.00411 -2.77607,-0.846603 -0.63003,0.07875 -0.63003,-0.787537 0,-0.295327 0.236261,-0.413458 l 1.614452,-0.964733 q 0.25595,-0.157508 0,-0.295327 l -1.673517,0 q -0.374081,0 -0.374081,-0.570965 0.05907,-0.669407 0.374081,-0.669407 z"
       style="text-align:center;text-anchor:middle;fill:black"
       id="path4251" />
  </g>
  <g
     transform="scale(1.0471014,0.95501735)"
     style="font-style:normal;font-variant:normal;font-weight:normal;font-stretch:normal;font-size:29.53266144px;line-height:125%;font-family:'Comic Sans MS';-inkscape-font-specification:'Comic Sans MS';text-align:end;letter-spacing:0px;word-spacing:0px;text-anchor:end;fill:black;fill-opacity:1;stroke:none;stroke-width:1px;stroke-linecap:butt;stroke-linejoin:miter;stroke-opacity:1"
     id="text4196">
    <path
       d="m 33.994382,28.238389 -2.362613,0 q -0.807226,0 -0.610342,-1.043488 0.196884,-1.102552 1.00411,-1.102552 l 2.697317,0 1.614452,-4.823668 q 0.275638,-0.76785 -0.728472,-0.76785 l -3.406101,0 q -1.141929,-0.03938 -0.826914,-1.26006 0.118131,-1.26006 1.220683,-1.26006 l 5.985286,0 q 1.220684,0.05907 1.220684,0.787538 0,0.11813 -0.03938,0.236261 l -2.362613,7.087839 1.988532,0 q 0.807226,0 0.610342,1.063175 -0.196884,1.082865 -1.043487,1.082865 l -2.28386,0 -2.342924,7.009085 q -0.216573,0.807226 -1.338814,0.787537 -0.610342,0.01969 -1.043487,-0.196884 -0.413458,-0.236261 -0.236262,-0.767849 l 2.28386,-6.831889 z m -9.706402,0 -2.362613,0 q -0.807226,0 -0.590653,-1.043488 0.177196,-1.102552 0.984422,-1.102552 l 2.697316,0 1.614453,-4.823668 q 0.275638,-0.76785 -0.728473,-0.76785 l -3.4061,0 q -1.14193,-0.03938 -0.866291,-1.26006 0.157507,-1.26006 1.26006,-1.26006 l 5.985286,0 q 1.220683,0.05907 1.220683,0.787538 0,0.11813 -0.03938,0.236261 l -2.362613,7.087839 1.594764,0 q 0.807226,0 0.531588,1.063175 -0.118131,1.082865 -0.964734,1.082865 l -1.89009,0 -2.342924,7.009085 Q 24.406111,36.0547 23.28387,36.035011 22.673528,36.0547 22.240382,35.838127 21.826925,35.601866 22.004121,35.070278 l 2.283859,-6.831889 z"
       style="text-align:center;text-anchor:middle"
       id="path4203" />
    <path
       d="m 41.330648,28.139946 4.311769,0 q 0.413457,0 0.590653,0.433146 0.177196,0.452834 -0.137819,0.669407 l -2.047598,1.338814 q -0.236261,0.177196 0.09844,0.236261 0.767849,0.236262 1.535699,0.866292 0.551276,0.511899 0.708783,1.200995 0.25595,0.689095 -0.216572,2.165728 -0.452835,1.004111 -2.14604,2.047598 -1.161618,0.649719 -1.161618,1.082864 0,0.275639 0.531587,0.275639 1.023799,0.11813 2.28386,-0.374081 0.354391,-0.315015 0.649718,-0.01969 l 0.236261,0.413457 q 0.295327,0.393769 -0.09844,0.767849 -2.244482,0.826915 -3.819557,0.708784 -1.693206,-0.236261 -1.693206,-1.614452 0,-0.866292 1.929467,-2.205106 1.949156,-1.338813 1.949156,-2.835135 0,-0.354392 -0.275639,-0.610342 -1.043487,-1.00411 -2.77607,-0.846603 -0.63003,0.07875 -0.63003,-0.787537 0,-0.295327 0.236261,-0.413458 l 1.614453,-0.964733 q 0.255949,-0.157508 0,-0.295327 l -1.673518,0 q -0.37408,0 -0.37408,-0.570965 0.05907,-0.669407 0.37408,-0.669407 z"
       style="text-align:center;text-anchor:middle"
       id="path4205" />
    <path
       d="m 68.596049,18.768249 -4.272392,13.919727 q -0.767849,2.441367 -2.874513,3.071397 -2.086974,0.610342 -4.429899,-0.118131 -0.393769,-0.11813 -2.224794,-1.141929 -0.03938,0.07875 -0.09844,0.157507 -0.03938,0.07875 -0.05906,0.09844 -0.118131,0.11813 -0.236261,0.275638 -1.004111,1.00411 -2.421679,1.00411 l 0,0 q -1.417567,0 -2.382301,-0.964733 -0.964734,-0.964734 -0.964734,-2.382302 l 0,0 0,0 0,0 0,0 q 0,-1.358502 0.964734,-2.323236 0.964734,-0.984422 2.382301,-0.984422 0.76785,-0.03938 2.047598,0.689096 l 2.953266,-8.781045 q 0.275639,-0.807226 -0.334703,-0.807226 l -4.449588,0 q -0.826914,0 -0.511899,-1.358502 0.295326,-1.14193 1.240372,-1.14193 l 6.792512,0 q 0.905668,0 0.610341,0.767849 l -4.351145,12.876241 q 2.421678,1.693205 3.465166,1.653829 1.89009,-0.01969 2.480743,-1.811337 L 66.016863,18.74856 q 0.275638,-0.767849 1.397879,-0.767849 1.378191,0 1.181307,0.787538 z M 51.959316,31.565735 q -0.5119,0 -0.88598,0.354392 -0.354392,0.354392 -0.354392,0.846603 0,0.472523 0.354392,0.826915 0.37408,0.354392 0.88598,0.354392 0.531588,0 0.88598,-0.354392 0.37408,-0.354392 0.37408,-0.826915 0,-0.492211 -0.37408,-0.846603 -0.354392,-0.354392 -0.88598,-0.354392 z"
       style="text-align:center;text-anchor:middle"
       id="path4207" />
    <path
       d="m 68.089721,28.139946 4.311769,0 q 0.413457,0 0.590653,0.433146 0.177196,0.452834 -0.137819,0.669407 l -2.047598,1.338814 q -0.236261,0.177196 0.09844,0.236261 0.76785,0.236262 1.535699,0.866292 0.551276,0.511899 0.708784,1.200995 0.255949,0.689095 -0.216573,2.165728 -0.452834,1.004111 -2.14604,2.047598 -1.161618,0.649719 -1.161618,1.082864 0,0.275639 0.531588,0.275639 1.023799,0.11813 2.283859,-0.374081 0.354392,-0.315015 0.649718,-0.01969 l 0.236262,0.413457 q 0.295326,0.393769 -0.09844,0.767849 -2.244482,0.826915 -3.819557,0.708784 -1.693206,-0.236261 -1.693206,-1.614452 0,-0.866292 1.929467,-2.205106 1.949156,-1.338813 1.949156,-2.835135 0,-0.354392 -0.275638,-0.610342 -1.043488,-1.00411 -2.77607,-0.846603 -0.630031,0.07875 -0.630031,-0.787537 0,-0.295327 0.236262,-0.413458 l 1.614452,-0.964733 q 0.25595,-0.157508 0,-0.295327 l -1.673518,0 q -0.37408,0 -0.37408,-0.570965 0.05906,-0.669407 0.37408,-0.669407 z"
       style="text-align:center;text-anchor:middle"
       id="path4209" />
    <path
       d="m 38.768982,57.377281 -1.338814,0 q -0.63003,0.05907 -0.866291,0.728473 l -3.799869,11.320853 q -0.216573,0.728472 0.551276,0.728472 l 4.843357,0 q 0.531588,0 0.610341,-0.334703 l 0.570965,-1.575075 q 0.157508,-0.472523 1.476633,-0.472523 1.51601,0.05907 1.299437,0.689096 l -1.122241,3.858934 q -0.236261,0.669407 -1.732583,0.63003 l -9.155125,0 q -1.200995,0.03938 -1.200995,-0.767849 0,-0.236261 0.118131,-0.63003 l 5.315879,-15.829507 q 0.295327,-0.807226 1.378191,-0.807226 l 3.484854,0 q 0.945045,0.01969 0.610342,1.358503 -0.137819,1.102552 -1.043488,1.102552 z"
       style="text-align:center;text-anchor:middle"
       id="path4211" />
    <path
       d="m 45.255093,62.555341 4.449588,0 q 0.826914,0 0.590653,0.689096 l -1.870402,6.319989 q -0.196884,0.649719 0.610342,0.649719 l 3.583296,0 q 0.689095,0 0.925357,-0.689096 L 57.560369,57.948246 Q 57.757253,57.39697 57.068157,57.39697 l -11.458672,0 q -0.88598,-0.03938 -0.689096,-1.26006 0.216573,-1.240372 1.063176,-1.240372 l 13.840974,0 q 1.161618,0 0.866292,1.00411 l -5.315879,16.321718 q -0.236262,0.689095 -1.260061,0.728472 l -8.426652,0 q -0.964734,0 -0.964734,-0.511899 0,-0.25595 0.118131,-0.649719 l 2.283859,-6.792512 q 0.05906,-0.216573 -0.216573,-0.216573 l -2.086975,0 q -0.689095,0 -0.472522,-1.141929 0.177196,-1.082865 0.905668,-1.082865 z"
       style="text-align:center;text-anchor:middle"
       id="path4213" />
    <path
       d="m 60.30279,65.055773 4.311768,0 q 0.413457,0 0.590653,0.433146 0.177196,0.452834 -0.137819,0.669407 l -2.047598,1.338814 q -0.236261,0.177196 0.09844,0.236261 0.767849,0.236262 1.535698,0.866292 0.551276,0.511899 0.708784,1.200995 0.25595,0.689095 -0.216573,2.165728 -0.452834,1.004111 -2.14604,2.047598 -1.161618,0.649718 -1.161618,1.082864 0,0.275638 0.531588,0.275638 1.023799,0.118131 2.283859,-0.37408 0.354392,-0.315015 0.649719,-0.01969 l 0.236261,0.413457 q 0.295327,0.393769 -0.09844,0.767849 -2.244483,0.826914 -3.819558,0.708784 -1.693206,-0.236261 -1.693206,-1.614452 0,-0.866292 1.929467,-2.205106 1.949156,-1.338814 1.949156,-2.835135 0,-0.354392 -0.275638,-0.610342 -1.043487,-1.00411 -2.77607,-0.846603 -0.63003,0.07875 -0.63003,-0.787537 0,-0.295327 0.236261,-0.413458 l 1.614452,-0.964733 q 0.25595,-0.157508 0,-0.295327 l -1.673517,0 q -0.374081,0 -0.374081,-0.570965 0.05907,-0.669407 0.374081,-0.669407 z"
       style="text-align:center;text-anchor:middle"
       id="path4215" />
  </g>
  <text
     xml:space="preserve"
     style="font-style:normal;font-variant:normal;font-weight:normal;font-stretch:normal;font-size:12.5px;line-height:125%;font-family:'Comic Sans MS';-inkscape-font-specification:'Comic Sans MS';text-align:end;letter-spacing:0px;word-spacing:0px;text-anchor:end;fill:black;fill-opacity:1;stroke:none;stroke-width:1px;stroke-linecap:butt;stroke-linejoin:miter;stroke-opacity:1"
     x="122.44068"
     y="64.271187"
     id="text4217"
     sodipodi:linespacing="125%"><tspan
       sodipodi:role="line"
       id="tspan4219"
       x="122.44068"
       y="64.271187" /></text>
</svg>
