<svg height="96" width="96" xmlns="http://www.w3.org/2000/svg" xmlns:xlink="http://www.w3.org/1999/xlink" xmlns:sodipodi="http://sodipodi.sourceforge.net/DTD/sodipodi-0.dtd" xmlns:inkscape="http://www.inkscape.org/namespaces/inkscape">
 <defs>
  <linearGradient id="linearGradient3202-3">
   <stop stop-color="#2b2b2b"/>
   <stop stop-color="#828383" offset="0.5"/>
   <stop stop-color="#dadbdb" offset="1"/>
  </linearGradient>
  <linearGradient id="linearGradient3936-6">
   <stop/>
   <stop stop-opacity="0" offset="1"/>
  </linearGradient>
  <linearGradient x2="0" y1="90" y2="5.988" gradientUnits="userSpaceOnUse" id="linearGradient291018" gradientTransform="matrix(1.5154 0 0 1.0681 -37.35 -2.948)">
   <stop stop-color="#f57900"/>
   <stop stop-color="#f89d44" offset="1"/>
  </linearGradient>
  <linearGradient x1="102.76" x2="142.17" xlink:href="#linearGradient3936-6" y1="78.68" y2="30.336" gradientUnits="userSpaceOnUse" id="linearGradient291021" gradientTransform="matrix(0.98565 0.16878 -0.16878 0.98565 -45.01 -15.895)"/>
  <radialGradient cy="356.62" r="143.34" gradientUnits="userSpaceOnUse" id="radialGradient291023" cx="425.51" gradientTransform="matrix(-0.01898 -0.01523 0.20232 -0.25221 8.796 136.46)">
   <stop stop-color="#a1bfe1"/>
   <stop stop-color="#407dc1" offset="0.501"/>
   <stop stop-color="#224367" offset="1"/>
  </radialGradient>
  <radialGradient cy="390.45" r="17.677" xlink:href="#linearGradient3202-3" gradientUnits="userSpaceOnUse" id="radialGradient291025" cx="289.44" gradientTransform="matrix(0.07808 0.06214 -0.09525 0.11968 71.52 -1.99)"/>
  <radialGradient cy="382.15" r="17.677" xlink:href="#linearGradient3202-3" gradientUnits="userSpaceOnUse" id="radialGradient291027" cx="283.51" gradientTransform="matrix(0.07808 0.06214 -0.09525 0.11968 90.62 -23.62)"/>
  <radialGradient cy="181.19" r="63.07" gradientUnits="userSpaceOnUse" id="radialGradient291029" cx="418.46" gradientTransform="matrix(-0.01235 -0.01124 0.31766 -0.34874 38.558 90.47)">
   <stop stop-color="#282828"/>
   <stop stop-color="#969696" offset="0.393"/>
   <stop stop-color="#e3e3e3" offset="1"/>
  </radialGradient>
  <linearGradient x1="103.95" x2="134.49" xlink:href="#linearGradient3936-6" y1="79.3" y2="41.36" gradientUnits="userSpaceOnUse" id="linearGradient291031" gradientTransform="matrix(0.84816 0.52974 -0.52974 0.84816 -2.158 -41.32)"/>
 </defs>
 <g transform="matrix(1 0 0 1 0 -956.36)">
  <rect x="3.353" rx="12.724" y="959.35" fill-opacity="0.02" height="89.98" width="89.62"/>
  <rect x="3.959" rx="12.552" y="959.96" fill-opacity="0.039" height="88.76" width="88.41"/>
  <rect x="4.564" rx="12.38" y="960.57" fill-opacity="0.078" height="87.55" width="87.2"/>
  <rect x="5.17" rx="12.208" y="961.18" fill-opacity="0.157" height="86.33" width="85.991"/>
  <path d="m17.75 5.4062c-6.642 0-11.969 5.3948-11.969 12.063l0.0002 61.031c0 6.668 5.3268 12.031 11.969 12.031h60.812c6.642 0 11.969-5.363 11.969-12.031v-61.031c0-6.668-5.327-12.063-11.969-12.063l-60.812 0.0002z" fill="url(#linearGradient291018)" transform="matrix(1 0 0 1 0 956.36)"/>
  <path d="m5.7756 1033.9v1.0133c0 6.668 5.3434 12.032 11.985 12.032h60.809c6.6418 0 11.985-5.3645 11.985-12.032v-1.0133c0 6.6681-5.3434 12.032-11.985 12.032h-60.809c-6.6418 0-11.985-5.3644-11.985-12.032z" fill-opacity="0.098"/>
  <path d="m5.7756 1029.8v5.0663c0 6.668 5.3434 12.032 11.985 12.032h60.809c6.6418 0 11.985-5.3645 11.985-12.032v-5.0663c0 6.6681-5.3434 12.032-11.985 12.032h-60.809c-6.6418 0-11.985-5.3643-11.985-12.032z" fill-opacity="0.235"/>
  <path d="m40.273 974.29c-11.496-0.0624-22.309 7.9829-25.594 19-0.003 0.009 0.003 0.0219 0 0.0313-1.1054 3.1448-1.1048 6.3519-1.375 9.3437-0.1879 1.0674-0.77674 1.6162-1.7188 2.0938-0.94201 0.4775-2.1837 0.7577-3.3438 1.0312a0.97292 0.97292 0 0 0 -0.3125 0.125c-1.1035 0.7324-1.4354 1.9768-1.4688 2.9688-0.0333 0.9919 0.0991 1.8796 0.0313 2.4687a0.97292 0.97292 0 0 0 0 0.125c0.0417 4.5711-0.0848 9.188 0.0625 13.812a0.97292 0.97292 0 0 0 0 0.125c0.10184 0.6669 0.43603 1.258 0.875 1.6563 0.43897 0.3982 0.96146 0.6011 1.4688 0.7187 0.98038 0.2273 1.9389 0.1256 2.6875 0.031h0.0937c0.002-0.0001-0.002-0.031 0-0.031 7.618-0.3857 14.891-4.3275 19.344-10.562-0.0164 2.8836-0.10141 5.789 0.0625 8.7188a0.97292 0.97292 0 0 0 0.0313 0.2187c0.20186 0.6479 0.6101 1.1955 1.0938 1.5313 0.48365 0.3357 1.0289 0.4901 1.5312 0.5625 1.0047 0.1446 1.9674 0.01 2.5938 0.031 4.6199 0.078 9.4888 0.066 14.031-1.875h0.0313c10.474-3.9939 17.629-14.921 17.062-26.125-0.00024-0.01 0.00026-0.021 0-0.031-0.28585-11.594-8.7822-22.239-20.031-25.063-0.01-0.003-0.0213 0.003-0.0313 0-2.3567-0.67135-4.7925-0.84118-7.0938-0.90625a0.97292 0.97292 0 0 0 -0.0313 0zm0.4375 22.469c2.4151 0.15521 4.5626 2.5255 4.2188 4.9688a0.97292 0.97292 0 0 0 0 0.063c-0.16193 2.5236-2.7863 4.3119-5.25 4a0.97292 0.97292 0 0 0 -0.125 0h-3.7812c0.16149-1.2731 0.17123-2.5362 0.1875-3.6563 0.0216-1.4866 0.18942-2.6936 1.0625-3.7187a0.97292 0.97292 0 0 0 0 -0.0313c0.8374-1.0619 2.208-1.5241 3.6875-1.625z" fill="#ff780b" color="#000000" opacity="0.1"/>
  <path d="m40.273 975.25c-11.047-0.06-21.54 7.7426-24.68 18.338-1.0496 2.9663-1.0448 6.1288-1.3277 9.2116-0.49063 2.7873-3.5206 3.3805-5.8051 3.9192-1.5871 1.0533-0.81745 3.1571-1 4.7418 0.0419 4.5947-0.0836 9.2033 0.0625 13.789 0.29088 1.905 2.6063 1.7738 4.0467 1.5887 8.3382-0.3899 16.467-5.0869 20.391-12.557 0.06 3.8623-0.12164 7.7436 0.0937 11.594 0.58438 1.8756 2.7961 1.3793 4.2995 1.4375 4.613 0.078 9.3531 0.044 13.671-1.8092 10.081-3.8307 17.038-14.428 16.48-25.203-0.26057-11.149-8.5466-21.472-19.367-24.173-2.2355-0.64101-4.5827-0.81207-6.8644-0.87659zm0.4375 20.531c3.02 0.14743 5.6245 2.9815 5.1914 6.059-0.2015 3.1403-3.3544 5.2896-6.3549 4.9097h-4.8677c0.84113-2.9473-0.586-6.4118 1.5796-8.9545 1.0794-1.3688 2.7827-1.9123 4.4517-2.0142z" fill="#ff780b" color="#000000" opacity="0.15"/>
  <path d="m40.273 976.38c-13.648 0.11495-24.719 11.232-24.719 24.906 0 0.072-0.00084 0.1546 0 0.25 0.00011 0.012-0.00017 0.019 0 0.031-0.12688 2.9278-1.5825 4.288-3.0938 5.0937-1.5172 0.8089-3.0313 0.9063-3.0313 0.9063a0.90182 0.90182 0 0 0 -0.84375 0.9062v16.406a0.90182 0.90182 0 0 0 0.90625 0.9062c8.7618 0 14.924-3.5763 18.813-8.125 3.8887-4.5487 5.5625-10.01 5.5625-14.031v-2.3438-0.125-0.031c0.0921-3.5062 2.9252-6.3102 6.4375-6.4062a0.90182 0.90182 0 0 0 0.46875 -0.15625 0.90182 0.90182 0 0 0 0.5 0.21875c3.2795 0.38775 5.7812 3.1088 5.7812 6.5 0 3.6144-2.8747 6.5249-6.4688 6.5937-0.0313 0.0006-0.0338 0-0.0937 0h-6.5a0.90182 0.90182 0 0 0 -0.90625 0.9063v16.5a0.90182 0.90182 0 0 0 0.90625 0.9062h6.1875c0.11186 0.001 0.22249 0 0.3125 0 13.745 0 24.906-11.161 24.906-24.906 0-13.438-10.678-24.392-24-24.875a0.90182 0.90182 0 0 0 -0.5625 0.15625 0.90182 0.90182 0 0 0 -0.5625 -0.1875z" fill="#ff780b" color="#000000" opacity="0.3"/>
  <path d="m40.275 977.3c-13.163 0.11087-23.805 10.801-23.805 23.99 0 0.09-0.001 0.1785 0 0.2682-0.25789 6.5194-6.9722 6.9103-6.9722 6.9103v16.399c17.04 0 23.475-13.719 23.475-21.247v-2.331-0.165c0.0861-3.9967 3.3104-7.1931 7.3023-7.3023zm1.0933 0.0206v16.544c3.7203 0.43987 6.6009 3.5852 6.6009 7.426 0 4.0943-3.2682 7.4305-7.3435 7.5085-0.0486 0.0009-0.0956 0-0.1444 0h-6.4772v16.502h6.1884 0.28879c13.258 0 24.011-10.753 24.011-24.011 0-12.961-10.276-23.504-23.124-23.97z" fill="#fff" color="#000000"/>
  <g transform="matrix(1 0 0 1 -7.664 953.35)">
   <path d="m103.1 26.998s-0.25105 0.20389-0.25781 0.20949c-2.2199-0.04859-8.0462 2.1053-23.243 15.201-0.0172-0.01668-0.13818-0.11878-0.13818-0.11878l-0.59831 0.53165c0.08481 0.07708 0.16193 0.15479 0.24557 0.23228-10.186 8.3603-21.075 18.131-21.944 18.911-0.000799-0.0012-0.02549-0.03603-0.02548-0.03607l-0.0202-0.06687-0.0413 0.05634c-0.000764-0.0014-0.02548-0.03607-0.02548-0.03607l-0.78924 0.72089c0.0081 0.01173 0.01734 0.02434 0.02548 0.03607l-0.03602 0.02554 0.02548 0.03607c0.000042 0.000058 0.04775 0.06716 0.05106 0.07216-9.3181 9.4955-15.122 16.652-14.884 17.489 0.31962 1.1263 18.764-11.737 19.526-12.382 0.03176 0.02607 0.19441 0.16002 0.19452 0.16013l0.03076 0.0053 0.86667-0.80274-0.02548-0.03607c-0.000153-0.00011-0.07489-0.07217-0.08181-0.07742 1.8428-1.4121 11.909-9.174 22.46-18.221 0.17083 0.22573 0.33186 0.46899 0.33186 0.46899l0.59831-0.53164c-0.02268-0.03404-0.05293-0.07361-0.07653-0.10822 0.7902-0.61736 17.456-13.665 19.33-19.01 0.21345-0.15748 0.30053-0.23332 0.51035-0.38819 0 0-0.0316-1.8278-2.0086-2.3414z" fill="url(#linearGradient291021)" opacity="0.25"/>
   <path d="m58.811 64.807c-0.0013-0.000753-1.402-0.77423-3.164-2.1467-1.521-1.183-2.549-2.299-2.55-2.301l-0.02297-0.02504 0.68649-0.87911 0.02956-0.0386 0.03182 0.03709c0.0032 0.0019 1.0167 1.1853 2.5842 2.4063 1.4899 1.1593 3.1244 1.9932 3.1278 1.9949l0.04312 0.02203-0.73639 0.94633-0.02956-0.01638zm-3.1146-2.2099c1.6089 1.2532 2.9126 2.0041 3.1235 2.1229l0.6349-0.81604c-0.268-0.14-1.742-0.926-3.098-1.981-1.4129-1.1005-2.3794-2.1715-2.5633-2.3809l-0.61457 0.78779c0.15986 0.1704 1.1316 1.19 2.5174 2.2672z" fill="#4d4d4d"/>
   <path d="m58.801 64.465s10.022-10.752 19.832-22.591l0.42849 0.1323s20.344-22.296 15.368-24.101c0 0-2.4881-4.9275-22.003 18.783l-0.03753 0.35581c-9.004 10.384-19.008 23.045-19.008 23.045-7.727 11.108-12.316 19.318-11.936 20.112 0.516 1.078 17.387-15.628 17.357-15.736z" stroke-width="0.5" fill="url(#radialGradient291023)" fill-rule="evenodd" stroke="#13345c"/>
   <path d="m53.052 60.296c2.1906 2.2423 5.7611 4.5192 5.7611 4.5192l0.7072-0.89693c-2.422-1.266-5.795-4.485-5.795-4.485l-0.6727 0.86243z" fill="url(#radialGradient291025)" fill-rule="evenodd"/>
   <path d="m72 36.975c3.8637 2.4666 6.8995 5.4506 6.8995 5.4506l0.51746-0.6037c-2.061-2.18-6.908-5.479-6.908-5.479l-0.50945 0.63229z" fill="url(#radialGradient291027)" fill-rule="evenodd"/>
   <path d="m93.225 17.277c2.0354 0.17248 2.3803 1.9664 2.3803 1.9664-9.2798 9.6593-22.872 23.7-22.872 23.7l-0.68995-0.58646c11.971-14.351 21.182-25.08 21.182-25.08" fill="url(#radialGradient291029)" fill-rule="evenodd"/>
   <path d="m118.64 54.503s-0.30959 0.09354-0.31797 0.09616c-2.0359-0.8863-8.2438-1.1012-27.27 5.2585-0.0096-0.02195-0.08286-0.16229-0.08286-0.16229l-0.75517 0.26523c0.04927 0.10347 0.09119 0.20462 0.13922 0.30802-12.595 3.8761-26.374 8.7909-27.474 9.1839-0.000272-0.0014-0.0099-0.043-0.0099-0.04304l0.0067-0.06954-0.05957 0.03648c-0.000162-0.0016-0.0099-0.04303-0.0099-0.04303l-1.0036 0.36799c0.0031 0.01393 0.0069 0.02909 0.0099 0.04304l-0.04302 0.01002 0.0099 0.04303c0.000016 0.00007 0.01874 0.08025 0.01991 0.08613-12.222 5.2557-20.304 9.6783-20.402 10.543-0.13108 1.1634 21.812-3.7498 22.762-4.0581 0.0195 0.03615 0.11926 0.22176 0.11932 0.2219l0.02646 0.01655 1.1062-0.4144-0.0099-0.04304c-0.000099-0.000161-0.04196-0.09517-0.04636-0.10264 2.2405-0.60838 14.498-3.976 27.69-8.3492 0.07254 0.27363 0.12936 0.55977 0.12936 0.55977l0.75517-0.26523c-0.0081-0.04009-0.02109-0.08818-0.0298-0.12915 0.96523-0.27182 21.332-6.0301 25.092-10.266 0.25721-0.06483 0.36653-0.10202 0.6194-0.16581 0 0 0.66347-1.7034-0.97145-2.928z" fill="url(#linearGradient291031)" opacity="0.4"/>
  </g>
 </g>
</svg>
