<svg height="96" width="96" xmlns="http://www.w3.org/2000/svg" xmlns:xlink="http://www.w3.org/1999/xlink" xmlns:sodipodi="http://sodipodi.sourceforge.net/DTD/sodipodi-0.dtd" xmlns:inkscape="http://www.inkscape.org/namespaces/inkscape">
 <defs>
  <linearGradient x2="0" y1="20.221" y2="138.66" gradientUnits="userSpaceOnUse" id="linearGradient3613-94">
   <stop stop-color="#fff"/>
   <stop stop-color="#fff" stop-opacity="0" offset="1"/>
  </linearGradient>
  <linearGradient id="linearGradient11508-5">
   <stop/>
   <stop stop-opacity="0" offset="1"/>
  </linearGradient>
  <linearGradient x2="0" y1="90" y2="5.988" gradientUnits="userSpaceOnUse" id="linearGradient303846" gradientTransform="matrix(1.1399 0 0 1.1399 -8.257 -9.05)">
   <stop stop-color="#3767a3"/>
   <stop stop-color="#6593c6" offset="1"/>
  </linearGradient>
  <linearGradient x2="0" y1="81.5" y2="6.28" gradientUnits="userSpaceOnUse" id="linearGradient303858" gradientTransform="matrix(1 0 0 1 -1.568 958.78)">
   <stop stop-color="#fff"/>
   <stop stop-color="#50caff" stop-opacity="0" offset="1"/>
  </linearGradient>
  <linearGradient x1="43.7" x2="77.924" xlink:href="#linearGradient11508-5" y1="82.47" y2="16.212" gradientUnits="userSpaceOnUse" id="linearGradient303879" gradientTransform="matrix(1.0643 0.22253 -0.33932 0.69796 23.06 972.68)"/>
  <linearGradient x1="43.7" x2="87.73" xlink:href="#linearGradient11508-5" y1="82.47" y2="6.208" gradientUnits="userSpaceOnUse" id="linearGradient303881" gradientTransform="matrix(1.0371 0.14899 -0.15896 0.972 9.276 953.01)"/>
  <linearGradient x1="60.899" x2="68.22" y1="35.606" y2="39.534" gradientUnits="userSpaceOnUse" id="linearGradient303883" gradientTransform="matrix(1 0 0 1 -2.325 957.01)">
   <stop stop-color="#1a1a1a"/>
   <stop stop-color="#636363" offset="0.352"/>
   <stop stop-color="#c7c7c7" offset="0.5"/>
   <stop stop-color="#636363" offset="0.65"/>
   <stop offset="1"/>
  </linearGradient>
  <linearGradient x1="24.25" x2="13.406" y1="77.5" y2="67.67" gradientUnits="userSpaceOnUse" id="linearGradient303885" gradientTransform="matrix(0.72549 -0.19431 0.19481 0.72675 23.929 975.28)">
   <stop stop-color="#c38125"/>
   <stop stop-color="#c68d31" offset="0.63"/>
   <stop stop-color="#fffce6" offset="1"/>
  </linearGradient>
  <linearGradient x1="58.652" x2="47.45" xlink:href="#linearGradient3613-94" y1="68.17" y2="57.993" gradientUnits="userSpaceOnUse" id="linearGradient303887" gradientTransform="matrix(1 0 0 1 -2.325 957.01)"/>
  <radialGradient cy="41.704" r="18.18" xlink:href="#linearGradient3613-94" gradientUnits="userSpaceOnUse" id="radialGradient303889" cx="59.852" gradientTransform="matrix(0.4631 -0.88631 0.11079 0.05789 30.997 1043.3)"/>
 </defs>
 <g transform="matrix(1 0 0 1 0 -956.36)">
  <rect x="3.353" rx="12.724" y="959.35" fill-opacity="0.02" height="89.98" width="89.62"/>
  <rect x="3.959" rx="12.552" y="959.96" fill-opacity="0.039" height="88.76" width="88.41"/>
  <rect x="4.564" rx="12.38" y="960.57" fill-opacity="0.078" height="87.55" width="87.2"/>
  <rect x="5.17" rx="12.208" y="961.18" fill-opacity="0.157" height="86.33" width="85.991"/>
  <path d="m17.75 5.4062c-6.642 0-11.969 5.3948-11.969 12.063l0.0002 61.031c0 6.668 5.3268 12.031 11.969 12.031h60.812c6.642 0 11.969-5.363 11.969-12.031v-61.031c0-6.668-5.327-12.063-11.969-12.063l-60.812 0.0002z" fill="url(#linearGradient303846)" transform="matrix(1 0 0 1 0 956.36)"/>
  <path d="m5.7756 1033.9v1.0133c0 6.668 5.3434 12.032 11.985 12.032h60.809c6.6418 0 11.985-5.3645 11.985-12.032v-1.0133c0 6.6681-5.3434 12.032-11.985 12.032h-60.809c-6.6418 0-11.985-5.3644-11.985-12.032z" fill-opacity="0.098"/>
  <path d="m5.7756 1029.8v5.0663c0 6.668 5.3434 12.032 11.985 12.032h60.809c6.6418 0 11.985-5.3645 11.985-12.032v-5.0663c0 6.6681-5.3434 12.032-11.985 12.032h-60.809c-6.6418 0-11.985-5.3643-11.985-12.032z" fill-opacity="0.235"/>
  <path d="m21.831 963.01c16.029 21.143-17.583 35.38-13.062 52.25 4.4006 16.423 24.273 15.596 31.438 24.531-4.9451-9.6033-11.708-9.1179-14.375-18.125-6.7805-22.902 63.703-34.344 40.812-58.656h-44.812z" fill="url(#linearGradient303858)"/>
  <g transform="matrix(0.80129 0 -0.03749 0.80129 47.43 206.7)">
   <path d="m87.675 1003.9c-4.5267 2.4571-8.9467 4.8983-12.938 7.625-5.3609 3.6629-9.1183 7.3306-10.844 10.125-0.008 0.013-0.0234 0.018-0.0313 0.031-1.0504 0.6297-8.5814 5.1736-12.406 7.8125-4.1757 2.8811-11.219 10.25-11.219 10.25l0.8125 0.5c6.9214-3.2271 20.844-6.4375 20.844-6.4375l0.46875-0.125-0.125-0.3125s-0.061-0.1304 0-0.5312c0.061-0.4009 0.26727-1.0314 0.78125-1.875 1.1168-1.8332 3.9385-3.7679 5.8438-4.9375 4.3942-1.0847 10.611-3.9777 16.406-7.9375 0.82317-0.5624 1.6128-1.1366 2.4062-1.7188v-12.469z" fill="url(#linearGradient303879)" opacity="0.3"/>
   <path d="m87.675 972.64c-7.1598 8.9315-15.448 16.154-21.812 24.719-4.1558 5.5925-6.8044 10.995-7.7812 14.937-0.004 0.018-0.0269 0.044-0.0313 0.063-0.8339 0.9791-6.7907 7.976-9.75 12-3.2308 4.3932-8.125 15.125-8.125 15.125l0.875 0.5625c5.7009-5.2289 17.875-11.375 17.875-11.375l0.40625-0.2187-0.15625-0.4063s-0.0921-0.1788-0.125-0.7187-0.007-1.4046 0.28125-2.5938c0.62682-2.5839 2.8373-5.5314 4.3438-7.3437 3.8346-2.0414 8.9448-6.7041 13.438-12.75 3.8618-5.1968 7.0818-10.841 10.562-16.656v-15.344z" fill="url(#linearGradient303881)" opacity="0.2"/>
   <path d="m69.116 998.88c-4.9735 10.133-11.992 17.34-14.547 15.967-2.7254-1.4643-1.4078-10.803 3.6954-21.201 5.102-10.395 13.052-19.405 18.277-31.011 0.99576-2.2119 2.9241-5.4797 5.6618-4.0917 2.8377 1.4387 2.0678 4.1308 0.56856 7.1888-5.7898 11.809-8.6824 23.015-13.656 33.148z" fill="url(#linearGradient303883)" stroke="#000"/>
   <path d="m60.246 1009.2a4.0976 3.2224 29.388 0 1 -6.9381 1.8583 4.0976 3.2224 29.388 1 1 6.9381 -1.8583z" stroke-width="1.969" fill="none" stroke="#2e3436" stroke-linecap="round"/>
   <path d="m40.619 1039.6s2.9568-11.532 5.2582-16.28c2.3014-4.7472 7.7424-14.191 7.7424-14.191s1.5699-2.3482 4.104-1.0992 1.8026 3.6481 1.8026 3.6481-3.8216 5.7556-4.1396 10.197c-0.18327 2.56 0.41684 3.6062 0.41684 3.6062s-10.525 7.9136-15.184 14.119z" fill="url(#linearGradient303885)" fill-rule="evenodd" stroke="#c17d11"/>
   <path d="m48.323 1023.2a0.66899 1.5259 27.633 0 1 -1.2329 -0.5281 0.66899 1.5259 27.633 0 1 1.2329 0.5281z" stroke-width="0.335" fill-opacity="0.6" stroke="#c17d11" stroke-linecap="round"/>
   <path d="m40.678 1039.3c2.0864-5.3781 3.5755-9.9079 6.1844-14.875" stroke-width="0.343" fill="#c17d11" fill-rule="evenodd" stroke="#c17d11"/>
   <path d="m57.362 1009.7c-0.21887 0.1778-0.36455 0.3626-0.375 0.375-0.00006 0.0002-0.0312-0.0001-0.0313 0-0.0754 0.131-5.41 9.4309-7.625 14-0.7547 1.5569-1.6525 4.0696-2.4688 6.6563 3.3766-3.0393 6.2735-5.2175 7.0625-5.8125-0.15066-0.7409-0.25503-1.7765-0.15625-3.1563 0.18858-2.6341 1.306-5.2903 2.3438-7.375 0.93934-1.8869 1.6789-2.9971 1.8438-3.25 0.011-0.044 0.0543-0.2111 0-0.5312-0.0503-0.2967-0.10584-0.5865-0.59375-0.9063z" fill="url(#linearGradient303887)" fill-rule="evenodd"/>
   <path d="m71.755 976.54a2.2728 18.183 27.587 0 1 -16.841 32.231 2.2728 18.183 27.587 0 1 16.841 -32.231z" fill="url(#radialGradient303889)"/>
   <path d="m64.331 986.35c-0.77115 0-1.5229 0.13397-2.25 0.34375-0.34567 0.57819-0.66489 1.1683-1 1.75 0.4105-0.0621 0.827-0.0937 1.25-0.0937 3.5616 0 6.7571 2.358 8.8438 6.0312 0.43947-1.0278 0.86359-2.0781 1.2812-3.125-2.0657-3.0196-4.9425-4.9062-8.125-4.9062z" fill="#fff" opacity="0.6"/>
  </g>
 </g>
</svg>
