<?xml version="1.0" encoding="UTF-8" standalone="no"?>
<!-- Created with Inkscape (http://www.inkscape.org/) -->

<svg
   xmlns:dc="http://purl.org/dc/elements/1.1/"
   xmlns:cc="http://creativecommons.org/ns#"
   xmlns:rdf="http://www.w3.org/1999/02/22-rdf-syntax-ns#"
   xmlns:svg="http://www.w3.org/2000/svg"
   xmlns="http://www.w3.org/2000/svg"
   xmlns:xlink="http://www.w3.org/1999/xlink"
   xmlns:sodipodi="http://sodipodi.sourceforge.net/DTD/sodipodi-0.dtd"
   xmlns:inkscape="http://www.inkscape.org/namespaces/inkscape"
   id="svg2"
   height="96"
   width="96"
   version="1.1"
   inkscape:version="0.48.5 r10040"
   sodipodi:docname="security.svg">
  <sodipodi:namedview
     pagecolor="#ffffff"
     bordercolor="#666666"
     borderopacity="1"
     objecttolerance="10"
     gridtolerance="10"
     guidetolerance="10"
     inkscape:pageopacity="0"
     inkscape:pageshadow="2"
     inkscape:window-width="1366"
     inkscape:window-height="716"
     id="namedview76087"
     showgrid="false"
     inkscape:zoom="1"
     inkscape:cx="38.487628"
     inkscape:cy="28.419568"
     inkscape:window-x="0"
     inkscape:window-y="24"
     inkscape:window-maximized="1"
     inkscape:current-layer="svg2" />
  <defs
     id="defs4">
    <linearGradient
       inkscape:collect="always"
       id="linearGradient3914">
      <stop
         style="stop-color:#a97409;stop-opacity:1;"
         offset="0"
         id="stop3916" />
      <stop
         style="stop-color:#a97409;stop-opacity:0;"
         offset="1"
         id="stop3918" />
    </linearGradient>
    <linearGradient
       id="linearGradient3700-0">
      <stop
         id="stop3702-2"
         stop-color="#70a83e"
         offset="0" />
      <stop
         id="stop3704-9"
         stop-color="#9fd058"
         offset="1" />
    </linearGradient>
    <clipPath
       id="clipPath3613-55">
      <rect
         id="rect3615-88"
         rx="6"
         ry="6"
         height="84"
         width="84"
         y="6"
         x="6"
         fill="#fff" />
    </clipPath>
    <filter
       id="filter3794-41"
       height="1.384"
       width="1.384"
       color-interpolation-filters="sRGB"
       y="-.192"
       x="-.192">
      <feGaussianBlur
         id="feGaussianBlur3796-50"
         stdDeviation="5.28" />
    </filter>
    <linearGradient
       id="linearGradient3182"
       y2="5.9877"
       gradientUnits="userSpaceOnUse"
       y1="90"
       gradientTransform="matrix(1.125,0,0,1.0417,-7.75,-3.25)"
       x2="48"
       x1="48">
      <stop
         id="stop4083"
         stop-color="#8c8c8c"
         offset="0" />
      <stop
         id="stop4085"
         stop-color="#dcdcdc"
         offset="1" />
    </linearGradient>
    <linearGradient
       id="linearGradient90466"
       y2="138.66"
       gradientUnits="userSpaceOnUse"
       x2="48"
       y1="20.221"
       x1="48">
      <stop
         id="stop3739-532"
         stop-color="#fff"
         offset="0" />
      <stop
         id="stop3741-666"
         stop-color="#fff"
         stop-opacity="0"
         offset="1" />
    </linearGradient>
    <linearGradient
       id="linearGradient4111"
       y2="80"
       gradientUnits="userSpaceOnUse"
       x2="48"
       y1="16"
       x1="48">
      <stop
         id="stop4283-9-1"
         stop-color="#1e1e1e"
         offset="0"
         style="stop-color:#5a3a07;stop-opacity:1;" />
      <stop
         id="stop4285-8-0"
         stop-color="#505050"
         offset="1"
         style="stop-color:#bb810a;stop-opacity:1;" />
    </linearGradient>
    <linearGradient
       inkscape:collect="always"
       xlink:href="#linearGradient3700-0"
       id="linearGradient3881"
       gradientUnits="userSpaceOnUse"
       gradientTransform="translate(101.91,-15.02)"
       x1="48"
       y1="90"
       x2="48"
       y2="5.9877" />
    <linearGradient
       inkscape:collect="always"
       xlink:href="#linearGradient3700-0"
       id="linearGradient3884"
       gradientUnits="userSpaceOnUse"
       gradientTransform="translate(101.91,-15.02)"
       x1="48"
       y1="90"
       x2="48"
       y2="5.9877" />
    <linearGradient
       inkscape:collect="always"
       xlink:href="#linearGradient3182"
       id="linearGradient3889"
       gradientUnits="userSpaceOnUse"
       gradientTransform="matrix(1.125,0,0,1.0417,-7.75,-3.25)"
       x1="48"
       y1="90"
       x2="48"
       y2="5.9877" />
    <linearGradient
       inkscape:collect="always"
       xlink:href="#linearGradient4111"
       id="linearGradient3901"
       gradientUnits="userSpaceOnUse"
       x1="78.879875"
       y1="27.223396"
       x2="78.879875"
       y2="101.49415" />
    <linearGradient
       inkscape:collect="always"
       xlink:href="#linearGradient4111"
       id="linearGradient3903"
       gradientUnits="userSpaceOnUse"
       x1="78.879875"
       y1="27.223396"
       x2="78.879875"
       y2="101.49415" />
    <linearGradient
       inkscape:collect="always"
       xlink:href="#linearGradient3914"
       id="linearGradient3920"
       x1="43.696075"
       y1="18.458933"
       x2="43.696075"
       y2="79.274643"
       gradientUnits="userSpaceOnUse" />
  </defs>
  <metadata
     id="metadata7">
    <rdf:RDF>
      <cc:Work
         rdf:about="">
        <dc:format>image/svg+xml</dc:format>
        <dc:type
           rdf:resource="http://purl.org/dc/dcmitype/StillImage" />
        <dc:title />
      </cc:Work>
    </rdf:RDF>
  </metadata>
  <rect
     style="fill-opacity:0.03921599"
     x="3.6078"
     y="3.6000221"
     width="88.762001"
     height="88.762001"
     ry="12.552"
     id="rect5261-6" />
  <rect
     style="fill-opacity:0.07843101"
     x="4.2157001"
     y="4.2100072"
     width="87.545998"
     height="87.545998"
     ry="12.38"
     id="rect5259-9" />
  <rect
     style="fill-opacity:0.15685999"
     x="4.8237"
     y="4.8199925"
     width="86.330002"
     height="86.330002"
     ry="12.208"
     id="rect5257-5" />
  <path
     inkscape:connector-curvature="0"
     style="opacity:0.9;fill:url(#linearGradient3889)"
     d="m 17.469,5.4062 c -6.668,0 -12.032,5.3948 -12.032,12.063 l 5e-4,61.031 c 0,5.418 3.5332,9.982 8.4375,11.5 h 68.187 c 4.715,-1.457 8.172,-5.734 8.438,-10.875 v -62.281 c -0.321,-6.377 -5.54,-11.438 -12,-11.438 l -61.031,2e-4 z"
     id="rect2419" />
  <path
     style="fill-opacity:0.23528999"
     inkscape:connector-curvature="0"
     d="m 5.4316,73.44 v 5.0663 c 0,6.668 5.3645,12.032 12.032,12.032 h 61.049 c 6.668,0 12.032,-5.3645 12.032,-12.032 V 73.44 c 0,6.6681 -5.3645,12.032 -12.032,12.032 h -61.049 c -6.668,0 -12.032,-5.3643 -12.032,-12.032 z"
     id="rect5265-0" />
  <path
     style="fill-opacity:0.09803898"
     inkscape:connector-curvature="0"
     d="m 5.4316,77.54 v 1.0133 c 0,6.668 5.3645,12.032 12.032,12.032 h 61.049 c 6.668,0 12.032,-5.3645 12.032,-12.032 V 77.54 c 0,6.6681 -5.3645,12.032 -12.032,12.032 h -61.049 c -6.668,0 -12.032,-5.3644 -12.032,-12.032 z"
     id="path5252-0" />
  <rect
     style="fill:url(#linearGradient3884);display:none"
     x="107.91"
     y="-9.0199728"
     display="none"
     width="84"
     height="84"
     ry="6"
     rx="6"
     id="rect3873" />
  <rect
     style="fill:url(#linearGradient3881);display:none"
     x="107.91"
     y="-9.0199728"
     display="none"
     width="84"
     height="84"
     ry="6"
     rx="6"
     id="rect3880" />
  <g
     transform="translate(-0.5,-2.5)"
     id="layer5">
    <rect
       style="opacity:0.3;fill:url(#linearGradient90466);stroke:white;stroke-width:0.5;stroke-linecap:round;filter:url(#filter3794-41)"
       x="15"
       y="15"
       clip-path="url(#clipPath3613-55)"
       width="66"
       ry="12"
       rx="12"
       height="66"
       id="rect3171" />
  </g>
  <path
     style="color:black;fill:white;fill-opacity:1;fill-rule:nonzero;stroke:none;marker:none;visibility:visible;display:inline;overflow:visible;enable-background:accumulate;opacity:0.4"
     d="m 24.42234,44.101448 0,1.346075 C 24.42234,64.27309 47.494911,73 47.494911,73 c 0,0 23.072571,-8.72691 23.072571,-27.552477 l 0,-1.346075 c 0,18.825567 -23.072571,27.552477 -23.072571,27.552477 0,0 -23.072571,-8.72691 -23.072571,-27.552477 z"
     id="path3848"
     inkscape:connector-curvature="0" />
  <g
     id="g3192"
     transform="matrix(0.67303762,0,0,0.67303762,-2.145082,-0.89068386)"
     style="fill:url(#linearGradient3903);fill-opacity:1;stroke:#262626;stroke-opacity:0.70491803">
    <path
       sodipodi:nodetypes="scscscs"
       style="color:black;fill:url(#linearGradient3901);fill-opacity:1;fill-rule:nonzero;stroke:#262626;marker:none;visibility:visible;display:inline;overflow:visible;enable-background:accumulate;stroke-opacity:0.70491803"
       d="m 73.762712,28.067798 c -23.218095,0 -34.289062,13.109375 -34.289062,13.109375 l 0,25.945313 c 0,27.971048 34.289062,40.945314 34.289062,40.945314 0,0 34.289068,-12.974266 34.289068,-40.945314 l 0,-25.945313 c 0,0 -11.070973,-13.109375 -34.289068,-13.109375 z"
       id="path3547"
       inkscape:connector-curvature="0" />
  </g>
  <path
     inkscape:connector-curvature="0"
     d="m 47.499998,71.843011 c 0,0 -23.075576,-8.7309 -23.075576,-27.556468 l 0,-17.462442 c 0,0 7.448925,-8.8241 23.075576,-8.8241 l 0,53.84301"
     style="fill:url(#linearGradient3920);fill-opacity:1;fill-rule:nonzero;stroke:none"
     id="path20" />
  <path
     style="opacity:0.4;color:black;fill:black;fill-opacity:1;fill-rule:nonzero;stroke:none;marker:none;visibility:visible;display:inline;overflow:visible;enable-background:accumulate"
     d="m 47.50526,18 c -15.626645,0 -23.072568,8.833618 -23.072568,8.833618 l 0,0.946459 c 0,0 7.445923,-8.812585 23.072568,-8.812585 15.626651,0 23.072571,8.812585 23.072571,8.812585 l 0,-0.946459 c 0,0 -7.44592,-8.833618 -23.072571,-8.833618 z"
     id="path3824"
     inkscape:connector-curvature="0" />
</svg>
