<svg height="96" width="96" xmlns="http://www.w3.org/2000/svg" xmlns:xlink="http://www.w3.org/1999/xlink" xmlns:sodipodi="http://sodipodi.sourceforge.net/DTD/sodipodi-0.dtd" xmlns:inkscape="http://www.inkscape.org/namespaces/inkscape">
 <defs>
  <radialGradient cy="241.05" r="220.12" xlink:href="#linearGradient6793" gradientUnits="userSpaceOnUse" id="radialGradient3351" cx="353.63" gradientTransform="matrix(-0.14011 0 0 0.13702 97.07 973.73)"/>
  <linearGradient id="linearGradient6793">
   <stop stop-color="#44b5e8"/>
   <stop stop-color="#116b98" offset="1"/>
  </linearGradient>
  <radialGradient cy="241.05" r="220.12" xlink:href="#linearGradient6793" gradientUnits="userSpaceOnUse" id="radialGradient3362" cx="353.63" gradientTransform="matrix(-0.13999 -0.00563 -0.00562 0.13691 97.88 973.93)"/>
  <linearGradient x2="0" y1="90" y2="5.988" gradientUnits="userSpaceOnUse" id="linearGradient3482" gradientTransform="matrix(1.1023 0 0 1.0605 -6.426 -3.535)">
   <stop stop-color="#45a4d4"/>
   <stop stop-color="#94c8e0" offset="1"/>
  </linearGradient>
 </defs>
 <g transform="matrix(1 0 0 1 0 -956.36)">
  <rect x="3.353" rx="12.724" y="959.35" fill-opacity="0.02" height="89.98" width="89.62"/>
  <rect x="3.959" rx="12.552" y="959.96" fill-opacity="0.039" height="88.76" width="88.41"/>
  <rect x="4.564" rx="12.38" y="960.57" fill-opacity="0.078" height="87.55" width="87.2"/>
  <rect x="5.17" rx="12.208" y="961.18" fill-opacity="0.157" height="86.33" width="85.991"/>
  <path d="m17.75 5.4062c-6.642 0-11.969 5.3948-11.969 12.063l0.0002 61.031c0 6.668 5.3268 12.031 11.969 12.031h60.812c6.642 0 11.969-5.363 11.969-12.031v-61.031c0-6.668-5.327-12.063-11.969-12.063l-60.812 0.0002z" fill="url(#linearGradient3482)" transform="matrix(1 0 0 1 0 956.36)"/>
  <path d="m5.7756 1033.9v1.0133c0 6.668 5.3434 12.032 11.985 12.032h60.809c6.6418 0 11.985-5.3645 11.985-12.032v-1.0133c0 6.6681-5.3434 12.032-11.985 12.032h-60.809c-6.6418 0-11.985-5.3644-11.985-12.032z" fill-opacity="0.098"/>
  <path d="m5.7756 1029.8v5.0663c0 6.668 5.3434 12.032 11.985 12.032h60.809c6.6418 0 11.985-5.3645 11.985-12.032v-5.0663c0 6.6681-5.3434 12.032-11.985 12.032h-60.809c-6.6418 0-11.985-5.3643-11.985-12.032z" fill-opacity="0.235"/>
  <path d="m60.974 986.04c-6.3581 0.45417-17.534 11.16-15.963 11.106 12.999-0.4486 21.118 0.292 31.26 3.4097 1.5017 0.4616-1.6205-13.47-15.297-14.515z" fill="url(#radialGradient3351)"/>
  <path d="m41.638 977.23c-3.6147 5.1985-4.0686 25.543-3.1354 24.29 7.6905-10.328 26.123-23.083 37.116-28.219 13.589-6.3487-25.934-5.5742-33.981 3.929z" stroke-width="0" fill="url(#radialGradient3362)"/>
  <path d="m25.27 999.36c2.083 5.9648 15.413 13.895 14.955 12.405-3.7901-12.318-5.1614-20.276-4.7346-30.782 0.0632-1.5556-12.727 5.0242-10.22 18.377z" fill="#fff" opacity="0.8"/>
  <path d="m27.011 1018.9c5.9036 2.381 20.713-2.3164 19.28-2.9569-11.855-5.2981-18.803-9.5226-26.501-16.765-1.1399-1.0724-4.5734 12.788 7.2212 19.722z" fill="#fff" opacity="0.8"/>
  <path d="m44.091 1030.1c5.6444-2.9331 11.565-17.17 10.147-16.498-11.733 5.5566-19.474 8.0917-30.03 9.2487-1.5629 0.1713 6.9251 11.706 19.883 7.2495z" fill="url(#radialGradient3351)"/>
  <path d="m63.996 1024.1c1.3788-6.1619-5.7864-19.827-6.1834-18.32-3.2834 12.46-6.3223 19.951-12.24 28.682-0.87628 1.2926 13.501 2.3151 18.424-10.362z" fill="url(#radialGradient3351)"/>
  <path d="m71.833 1004.7c-3.8351-5.0413-18.982-8.5272-18.084-7.2497 7.4334 10.567 11.21 17.721 14.068 27.848 0.42315 1.4994 10.55-8.6566 4.0153-20.598z" fill="url(#radialGradient3351)"/>
  <path d="m78.25 971.53c-0.33943 0.51615-1.1695 1.1012-2.625 1.7812-10.993 5.1361-29.435 17.891-37.125 28.219-0.21947 0.2948-0.36244-0.6312-0.40625-2.25 0.008 2.1979 0.14718 3.598 0.40625 3.25 7.6905-10.328 26.132-23.083 37.125-28.219 2.5095-1.1725 3.2085-2.1013 2.625-2.7812zm-28.594 25.5c-1.3668 0.015-2.7984 0.045-4.2812 0.094-0.50498 0.6248-0.67443 1.0103-0.375 1 3.3384-0.1152 6.3426-0.1583 9.1562-0.094-0.1367-0.1956-0.267-0.3646-0.40625-0.5625-0.11234-0.1597 0.0393-0.2642 0.375-0.2813 0.88111-0.045 3.1171 0.3717 5.75 1.1563 5.6405 0.4702 10.717 1.4698 16.406 3.2187 0.299 0.092 0.39663-0.415 0.28125-1.25-0.0544 0.1875-0.14046 0.2933-0.28125 0.25-8.8744-2.728-16.22-3.6421-26.625-3.5312zm4.4688 1.1562c-0.33566 0.017-0.48734 0.1216-0.375 0.2813 7.4334 10.567 11.205 17.717 14.062 27.844 0.32398 1.148 6.3156-4.5391 6.1875-12.625-0.347 7.5516-5.877 12.725-6.1875 11.625-2.7902-9.8871-6.4724-16.962-13.562-27.125-0.0362 0.0004-0.0925 0-0.125 0zm0.1875 16.437c-0.81135 3.1744-5.5982 13.13-10.219 15.531-10.701 3.6797-18.322-3.5246-19.781-6.25h-0.0937c-1.5629 0.1713 6.9168 11.706 19.875 7.25 5.468-2.8415 11.187-16.304 10.25-16.531h-0.0312zm9.8438 8.3125c-0.0252 0.4081-0.0755 0.7952-0.15625 1.1563-4.2931 11.055-15.773 11.685-18.062 10.812h-0.0312c-0.12434 0.1862-0.2168 0.3752-0.34375 0.5625-0.87628 1.2927 13.515 2.3015 18.438-10.375 0.14384-0.6429 0.18095-1.3757 0.15625-2.1563z" fill="#fff" opacity="0.3"/>
  <path d="m70.031 969.19c-9.3899 0.10768-23.88 2.6857-28.406 8.0312-2.3982 3.449-3.3695 13.472-3.5 19.531 0.21979-6.1179 1.2408-15.282 3.5-18.531 4.5264-5.3456 19.016-7.9236 28.406-8.0312 4.2204-0.0484 7.4199 0.41285 8.2188 1.3438 1.047-1.5921-2.7035-2.407-8.2188-2.3438zm-9.0625 16.844c-6.357 0.46-17.54 11.15-15.968 11.1h0.375c2.1454-2.6547 10.447-9.7261 15.594-10.094 10.954 0.83695 15.13 9.9226 15.594 13.281 0.52567-1.8126-3.1991-13.334-15.594-14.281zm-6.8125 12c0.0358 0.051 0.0581 0.1051 0.0937 0.1562 2.5775-0.027 14.284 3.1812 17.594 7.5313 1.5314 2.7986 2.117 5.4936 2.1562 7.9687 0.12584-2.7387-0.41721-5.7906-2.1562-8.9687-2.0973-2.757-7.5806-5.0674-11.969-6.375-1.8322-0.1528-3.7225-0.2668-5.7188-0.3125zm3.8125 7.625c-0.074-0.019-0.13144 0.031-0.15625 0.125-3.2834 12.46-6.3319 19.957-12.25 28.688-0.10954 0.1615 0.0245 0.3109 0.34375 0.4375h0.0312c5.6658-8.4882 8.6639-15.939 11.875-28.125 0.0248-0.094 0.0823-0.1439 0.15625-0.125 0.97058 0.2472 5.8488 9.7568 6.1875 16 0.20462-6.1658-5.1628-16.739-6.1875-17zm-3.625 7.9687c-0.0302-0.01-0.0494 0.01-0.0937 0.031-11.733 5.5565-19.476 8.0929-30.031 9.25-0.27227 0.03-0.21412 0.425 0.0937 1 10.507-1.1619 18.239-3.7101 29.938-9.25 0.031-0.015 0.0437-0.027 0.0625-0.031 0.1488-0.5822 0.17647-0.9648 0.0312-1z" opacity="0.4"/>
  <path d="m70.031 969.19c-9.3899 0.10768-23.88 2.6857-28.406 8.0312-3.6147 5.1985-4.0581 25.566-3.125 24.312 7.6905-10.328 26.132-23.083 37.125-28.219 5.945-2.7776 1.7095-4.2088-5.5938-4.125zm0 3c0.47418-0.005 0.77609 0.0526 1.2188 0.0625-9.4778 4.9401-21.572 13.427-29.969 22.062 0.0176-0.7328-0.008-1.404 0.0625-2.2812 0.21532-2.6961 0.56233-5.5825 1.0625-8.0313 0.47601-2.3306 1.3247-4.4094 1.6875-4.9688 1.4349-1.5534 5.7031-3.6577 10.625-4.875 5.0877-1.2583 10.88-1.9179 15.312-1.9688zm-9.0625 13.844c-6.357 0.46-17.54 11.15-15.968 11.1 12.999-0.4486 21.139 0.3198 31.281 3.4375 1.5017 0.4616-1.6356-13.486-15.312-14.531zm0.0625 3.0625c5.6466 0.53644 8.8494 3.4725 10.75 6.4062 0.2446 0.3776 0.31709 0.6965 0.46875 1.0313-6.4825-1.5849-12.936-2.2893-20.438-2.3438 0.0256-0.021 0.0361-0.041 0.0625-0.062 1.5751-1.264 3.4173-2.5495 5.125-3.5 1.6439-0.915 3.2482-1.443 4.0312-1.5312zm-6.9062 8.0937c-0.33566 0.017-0.48734 0.1216-0.375 0.2813 7.4334 10.567 11.205 17.717 14.062 27.844 0.42315 1.4994 10.565-8.6522 4.0312-20.594-3.3557-4.4112-15.369-7.651-17.719-7.5313zm5.75 4.375c0.56919 0.1742 1.0862 0.2822 1.6875 0.5 1.7004 0.616 3.4447 1.4233 4.875 2.25s2.5905 1.7315 2.9688 2.2188c2.5241 4.9168 1.7574 9.1157 0.3125 12.25-0.2126 0.4611-0.48561 0.7178-0.71875 1.0625-2.1746-6.2565-5.0997-12.014-9.125-18.281zm-1.9062 4.0938c-0.074-0.019-0.13144 0.031-0.15625 0.125-3.2834 12.46-6.3319 19.957-12.25 28.688-0.87628 1.2927 13.515 2.3015 18.438-10.375 1.2926-5.7768-4.922-18.155-6.0312-18.438zm0.71875 7.4375c0.12373 0.2803 0.24952 0.4967 0.375 0.8125 0.69254 1.7427 1.2878 3.7099 1.6562 5.4375 0.3597 1.6867 0.48481 3.148 0.375 3.8437-2.1185 5.2635-5.8762 7.466-9.2812 8.4375-0.48991 0.1398-0.87012 0.108-1.2812 0.1563 3.3895-5.6901 5.952-11.591 8.1562-18.688zm-4.3438 0.5312c-0.0302-0.01-0.0494 0.01-0.0937 0.031-11.733 5.5566-19.476 8.093-30.031 9.25-1.5629 0.1713 6.9168 11.706 19.875 7.25 5.468-2.8414 11.187-16.304 10.25-16.531zm-5.1562 5.4063c-0.075 0.1524-0.13129 0.2732-0.21875 0.4375-0.92502 1.7374-2.0948 3.58-3.25 5.0625-1.1152 1.4311-2.3132 2.5262-2.9375 2.875-5.3792 1.7301-9.5273 0.2717-12.438-1.6563-0.36977-0.245-0.54956-0.5054-0.8125-0.75 6.5633-1.1145 12.777-3.0552 19.656-5.9687z" fill="#012d5b" opacity="0.1"/>
  <path d="m70.031 969.19c-9.3899 0.10768-23.88 2.6857-28.406 8.0312-3.6147 5.1985-4.0581 25.566-3.125 24.312 7.6905-10.328 26.132-23.083 37.125-28.219 5.945-2.7776 1.7095-4.2088-5.5938-4.125zm0 2.0312c1.7535-0.0201 3.3263 0.0687 4.5312 0.21875 0.0814 0.0101 0.0768 0.0194 0.15625 0.0312-10.124 4.7345-25.459 15.252-34.5 25.187 0.0241-1.4739 0.01-2.8533 0.15625-4.6875 0.21777-2.7266 0.58207-5.651 1.0938-8.1562 0.49637-2.4302 1.2706-4.5223 1.8125-5.3438 0.003-0.004-0.003-0.027 0-0.0312 1.7076-1.9256 6.1294-3.96 11.219-5.2188 5.176-1.2802 11.013-1.9482 15.531-2zm-9.0625 14.812c-6.357 0.46-17.54 11.15-15.968 11.1 12.999-0.4486 21.139 0.3198 31.281 3.4375 1.5017 0.4616-1.6356-13.486-15.312-14.531zm0.0312 2.0625c6.0412 0.52713 9.564 3.7419 11.594 6.875 0.69873 1.0785 0.95757 1.9532 1.2812 2.8437-7.7911-2.1043-15.095-2.843-24.438-2.75 0.62747-0.5744 1.062-1.0601 1.8438-1.6875 1.6098-1.2918 3.4755-2.6061 5.25-3.5937 1.7491-0.97353 3.4259-1.5869 4.4688-1.6875zm-6.875 9.0937c-0.33566 0.017-0.48734 0.1216-0.375 0.2813 7.4334 10.567 11.205 17.717 14.062 27.844 0.42315 1.4994 10.565-8.6522 4.0312-20.594-3.3557-4.4112-15.369-7.651-17.719-7.5313zm3.6562 2.7187c1.2643 0.32808 2.6448 0.71378 4.125 1.25 3.5181 1.2745 7.1453 3.3583 8.25 4.7813h0.0312c2.7715 5.2636 1.9543 9.8919 0.40625 13.25-0.55216 1.1978-1.1843 1.9253-1.7812 2.6875-2.4601-7.6768-5.824-14.186-11.031-21.969zm0.1875 5.7501c-0.074-0.019-0.13144 0.031-0.15625 0.125-3.2834 12.46-6.3319 19.957-12.25 28.688-0.87628 1.2927 13.515 2.3015 18.438-10.375 1.2926-5.7768-4.922-18.155-6.0312-18.438zm0.59375 4.8437c0.4743 0.9699 0.93026 1.8647 1.4062 3.0625 1.4285 3.5947 2.4155 7.9889 2.0625 9.9063-2.2282 5.6043-6.3459 8.0601-9.9688 9.0937-1.2852 0.3667-2.2457 0.3582-3.2188 0.4063 4.2803-6.8141 7.1287-13.532 9.7188-22.469zm-4.2188 3.125c-0.0302-0.01-0.0494 0.01-0.0937 0.031-11.733 5.5566-19.476 8.093-30.031 9.25-1.5629 0.1713 6.9168 11.706 19.875 7.25 5.468-2.8414 11.187-16.304 10.25-16.531zm-3.3125 3.6563c-0.40048 0.8884-0.67971 1.6437-1.2188 2.6562-0.9518 1.7877-2.1473 3.652-3.3438 5.1875-1.1736 1.5061-2.3712 2.6791-3.25 3.1563-5.7383 1.8948-10.296 0.3418-13.406-1.7188-1.0805-0.7158-1.633-1.4273-2.2812-2.125 7.9878-1.1609 14.976-3.3656 23.5-7.1562z" fill="#012d5b" opacity="0.15"/>
  <path d="m70.031 969.19c-9.3899 0.10768-23.88 2.6857-28.406 8.0312-3.6147 5.1985-4.0581 25.566-3.125 24.312 7.6905-10.328 26.132-23.083 37.125-28.219 5.945-2.7776 1.7095-4.2088-5.5938-4.125zm0 1c1.7919-0.0206 3.3888 0.0609 4.6562 0.21875s2.2432 0.44043 2.625 0.65625c-0.15896 0.19598-0.79271 0.72129-2.125 1.3438-10.598 4.9517-27.571 16.592-36.062 26.844-0.004-0.1202-0.0289-0.1526-0.0312-0.2812-0.0323-1.7672 0.0294-4.3312 0.25-7.0938 0.22063-2.7625 0.60178-5.7196 1.125-8.2812 0.51322-2.5128 1.2181-4.6419 1.9375-5.7188 1.9732-2.3303 6.5737-4.3528 11.844-5.6562 5.2701-1.3034 11.172-1.9784 15.781-2.0312zm-9.0625 15.844c-6.357 0.46-17.54 11.15-15.968 11.1 12.999-0.4486 21.139 0.3198 31.281 3.4375 1.5017 0.4616-1.6356-13.486-15.312-14.531zm0 1c6.4657 0.51602 10.329 4.024 12.5 7.375 1.0892 1.6812 1.7346 3.3423 2 4.4687 0.0503 0.2133 0.0388 0.2672 0.0625 0.4375-9.2622-2.7328-17.244-3.5168-28.781-3.2187 0.87993-0.9445 2.2398-2.2191 3.875-3.5313 3.3039-2.6512 7.6765-5.3107 10.344-5.5312zm-6.843 10.16c-0.33566 0.017-0.48734 0.1216-0.375 0.2813 7.4334 10.567 11.205 17.717 14.062 27.844 0.42315 1.4994 10.565-8.6522 4.0312-20.594-3.3557-4.4112-15.369-7.651-17.719-7.5313zm1.4375 1.2188c0.54618 0.077 0.8302 0.063 1.625 0.25 1.4678 0.3461 3.2432 0.8721 5.0625 1.5312 3.6285 1.3145 7.341 3.289 8.75 5.125h0.0312c3.0191 5.621 2.1598 10.712 0.5 14.312-0.83641 1.8143-1.9052 3.263-2.7188 4.0938-0.1688 0.1723-0.23376 0.1947-0.375 0.3125-2.7053-9.1781-6.3751-16.21-12.875-25.625zm2.4062 7.25c-0.074-0.019-0.13144 0.031-0.15625 0.125-3.2834 12.46-6.3319 19.957-12.25 28.688-0.87628 1.2927 13.515 2.3015 18.438-10.375 1.2926-5.7768-4.922-18.155-6.0312-18.438zm0.34375 2.0625c0.13143 0.2158 0.22885 0.3624 0.375 0.625 0.69217 1.2433 1.5005 2.9577 2.25 4.8437 1.4827 3.7311 2.5908 8.1703 2.0938 10.594-2.3464 5.9727-6.8224 8.6785-10.688 9.7812-1.9401 0.5535-3.7369 0.6953-4.9062 0.625-0.23749-0.014-0.28837-0.065-0.46875-0.094 5.2853-8.0003 8.3366-15.349 11.344-26.375zm-3.9688 5.9062c-0.0302-0.01-0.0494 0.01-0.0937 0.031-11.733 5.5566-19.476 8.093-30.031 9.25-1.5629 0.1713 6.9168 11.706 19.875 7.25 5.468-2.8414 11.187-16.304 10.25-16.531zm-1.2812 1.6563c-0.0392 0.1144-0.0485 0.1575-0.0937 0.2812-0.46834 1.2797-1.2724 3.0389-2.25 4.875-1.9552 3.6723-4.8084 7.6249-7.0938 8.8125-6.0882 2.0343-11.055 0.3868-14.375-1.8125-1.6747-1.1095-2.8976-2.3852-3.5938-3.3125-0.13298-0.1771-0.15942-0.2273-0.25-0.375 9.5907-1.1631 17.206-3.6275 27.656-8.4687z" fill="#012d5b" opacity="0.3"/>
 </g>
</svg>
