<svg height="96" width="96" xmlns="http://www.w3.org/2000/svg" xmlns:xlink="http://www.w3.org/1999/xlink" xmlns:sodipodi="http://sodipodi.sourceforge.net/DTD/sodipodi-0.dtd" xmlns:inkscape="http://www.inkscape.org/namespaces/inkscape">
 <defs>
  <filter x="-0.192" y="-0.192" height="1.384" color-interpolation-filters="sRGB" id="filter3794-787" width="1.384">
   <feGaussianBlur stdDeviation="5.28"/>
  </filter>
  <clipPath id="clipPath3613-93">
   <use xlink:href="#SVGCleanerId_0"/>
  </clipPath>
  <linearGradient id="linearGradient3737-89">
   <stop stop-color="#fff"/>
   <stop stop-color="#fff" stop-opacity="0" offset="1"/>
  </linearGradient>
  <linearGradient x1="16" x2="48" xlink:href="#linearGradient3737-89" y1="16" y2="48" gradientUnits="userSpaceOnUse" id="linearGradient7060" gradientTransform="matrix(1 0 0 1 0.065 955.62)"/>
  <linearGradient x2="0" y1="90" y2="5.988" gradientUnits="userSpaceOnUse" id="linearGradient7092" gradientTransform="matrix(1.0789 0 0 1.1052 -2.066 -5.514)">
   <stop stop-color="#6bd0f5"/>
   <stop stop-color="#c6eefd" offset="1"/>
  </linearGradient>
  <linearGradient x1="80" x2="48" xlink:href="#linearGradient3737-89" y1="80" y2="48" gradientUnits="userSpaceOnUse" id="linearGradient7095" gradientTransform="matrix(1 0 0 1 0.065 955.62)"/>
  <linearGradient x1="56" x2="51.52" y1="80" y2="53.768" gradientUnits="userSpaceOnUse" id="linearGradient7097" gradientTransform="matrix(1 0 0 1 0.065 955.62)">
   <stop stop-color="#9ee1f9"/>
   <stop stop-color="#00aff0" offset="1"/>
  </linearGradient>
  <linearGradient x2="0" xlink:href="#linearGradient3737-89" y1="20.221" y2="138.66" gradientUnits="userSpaceOnUse" id="linearGradient7099"/>
  <rect x="6" rx="6" y="6" height="84" id="SVGCleanerId_0" width="84"/>
 </defs>
 <g transform="matrix(1 0 0 1 0 -956.36)">
  <rect x="3.353" rx="12.724" y="959.35" fill-opacity="0.02" height="89.98" width="89.62"/>
  <rect x="3.959" rx="12.552" y="959.96" fill-opacity="0.039" height="88.76" width="88.41"/>
  <rect x="4.564" rx="12.38" y="960.57" fill-opacity="0.078" height="87.55" width="87.2"/>
  <rect x="5.17" rx="12.208" y="961.18" fill-opacity="0.157" height="86.33" width="85.991"/>
  <path d="m17.75 5.4062c-6.642 0-11.969 5.3948-11.969 12.063l0.0002 61.031c0 6.668 5.3268 12.031 11.969 12.031h60.812c6.642 0 11.969-5.363 11.969-12.031v-61.031c0-6.668-5.327-12.063-11.969-12.063l-60.812 0.0002z" fill="url(#linearGradient7092)" transform="matrix(1 0 0 1 0 956.36)"/>
  <path d="m5.7756 1033.9v1.0133c0 6.668 5.3434 12.032 11.985 12.032h60.809c6.6418 0 11.985-5.3645 11.985-12.032v-1.0133c0 6.6681-5.3434 12.032-11.985 12.032h-60.809c-6.6418 0-11.985-5.3644-11.985-12.032z" fill-opacity="0.098"/>
  <path d="m5.7756 1029.8v5.0663c0 6.668 5.3434 12.032 11.985 12.032h60.809c6.6418 0 11.985-5.3645 11.985-12.032v-5.0663c0 6.6681-5.3434 12.032-11.985 12.032h-60.809c-6.6418 0-11.985-5.3643-11.985-12.032z" fill-opacity="0.235"/>
  <rect x="15" stroke-width="0.5" rx="12" y="15" clip-path="url(#clipPath3613-93)" fill="url(#linearGradient7099)" stroke="#fff" height="66" filter="url(#filter3794-787)" opacity="0.1" stroke-linecap="round" width="66" transform="matrix(1 0 0 1 0.065 955.62)"/>
  <path d="m33.472 968.65c-11.201 0-20.375 9.174-20.375 20.375 0 3.0782 0.81359 5.943 2.0312 8.5313-0.36216 1.9699-0.625 3.9842-0.625 6.0625 0 18.491 15.072 33.562 33.562 33.562 2.0782 0 4.0926-0.2629 6.0625-0.625 2.5932 1.2252 5.4487 2.0312 8.5312 2.0312 11.201 0 20.375-9.174 20.375-20.375 0-3.0825-0.80604-5.938-2.0312-8.5312 0.36215-1.97 0.625-3.9843 0.625-6.0625 0-18.491-15.072-33.563-33.562-33.563-2.1185 0-4.1356 0.32069-6.0625 0.6875-2.5622-1.2185-5.4179-2.0938-8.5312-2.0938z" fill="#028dc0" opacity="0.1"/>
  <path d="m33.472 969.65c-10.663 0-19.375 8.7122-19.375 19.375 0 3.0389 0.77865 5.8806 2.0312 8.4375-0.38296 2.0108-0.625 4.0575-0.625 6.1563 0 17.955 14.607 32.562 32.562 32.562 2.0988 0 4.1454-0.2421 6.1562-0.625 2.5621 1.261 5.3918 2.0312 8.4375 2.0312 10.663 0 19.375-8.7122 19.375-19.375 0-3.0457-0.77022-5.8753-2.0312-8.4375 0.38295-2.0108 0.625-4.0575 0.625-6.1562 0-17.955-14.607-32.563-32.562-32.563-2.1229 0-4.1814 0.30251-6.1562 0.6875-2.5383-1.2528-5.3733-2.0938-8.4375-2.0938z" fill="#0088ba" opacity="0.15"/>
  <path d="m33.472 971.62c-9.6 0-17.406 7.8062-17.406 17.406 0 2.9652 0.72093 5.7438 2.0312 8.1875-0.43745 2.0593-0.625 4.2172-0.625 6.4063 0 16.896 13.698 30.594 30.594 30.594 2.189 0 4.347-0.1875 6.4062-0.625 2.4521 1.3221 5.2081 2.0313 8.1875 2.0313 9.6 0 17.406-7.8063 17.406-17.406 0-2.9794-0.70918-5.7353-2.0312-8.1875 0.43745-2.0592 0.625-4.2172 0.625-6.4062 0-16.896-13.698-30.594-30.594-30.594-2.1896 0-4.3465 0.24984-6.4062 0.6875-2.444-1.3106-5.222-2.0938-8.1875-2.0938z" fill="url(#linearGradient7097)"/>
  <path d="m33.472 970.69c-10.104 0-18.344 8.2401-18.344 18.344 0 2.9972 0.74773 5.8076 2.0312 8.3125-0.40864 2.042-0.625 4.1454-0.625 6.2813 0 17.398 14.133 31.531 31.531 31.531 2.1358 0 4.2393-0.2163 6.2812-0.625 2.511 1.2931 5.3055 2.0313 8.3125 2.0313 10.104 0 18.344-8.2401 18.344-18.344 0-3.007-0.73818-5.8015-2.0312-8.3125 0.40864-2.0419 0.625-4.1454 0.625-6.2812 0-17.398-14.133-31.531-31.531-31.531-2.1532 0-4.2541 0.27619-6.2812 0.6875-2.495-1.283-5.303-2.0938-8.3125-2.0938zm0 0.9375c-0.6 0-1.1967 0.0342-1.7812 0.0937-0.49975 0.0509-0.98231 0.12635-1.4688 0.21875 0.48778-0.0922 0.96772-0.16804 1.4688-0.21875 0.5849-0.0592 1.1811-0.0937 1.7812-0.0937zm3.4062 0.34375c0.64612 0.13139 1.2859 0.29786 1.9062 0.5-0.61832-0.20328-1.2599-0.36655-1.9062-0.5zm-7.1562 0.0625c-0.47838 0.10565-0.94344 0.23078-1.4062 0.375 0.45955-0.14201 0.93146-0.27078 1.4062-0.375zm-1.625 0.4375c-0.47068 0.15341-0.95405 0.33971-1.4062 0.53125 0.46235-0.19546 0.92461-0.37551 1.4062-0.53125zm18.344 0.59375c-0.54231 0.0303-1.0898 0.0977-1.625 0.15625 0.54057-0.0614 1.0801-0.125 1.625-0.15625zm-12.969 0.5c2.6228 0 5.094 0.70209 7.2812 1.875a1.9466 1.9466 0 0 0 1.3125 0.1875c1.9368-0.41154 3.9585-0.65625 6-0.65625 15.844 0 28.656 12.812 28.656 28.656 0 2.0778-0.19023 4.1005-0.59375 6a1.9466 1.9466 0 0 0 0.1875 1.3437c1.171 2.1719 1.8125 4.5795 1.8125 7.25 0 8.5449-6.9239 15.469-15.469 15.469-2.6705 0-5.0782-0.6416-7.25-1.8125a1.9466 1.9466 0 0 0 -1.3438 -0.1875c-1.8995 0.4035-3.9221 0.5937-6 0.5937-15.844 0-28.656-12.812-28.656-28.656 0-2.0779 0.19023-4.1005 0.59375-6a1.9466 1.9466 0 0 0 -0.1875 -1.3125c-1.1605-2.1643-1.8125-4.6316-1.8125-7.2813 0-8.5448 6.9239-15.469 15.469-15.469zm-8.2812 0.15625c-0.49323 0.26823-0.97443 0.56193-1.4375 0.875-0.40779 0.2757-0.80524 0.56667-1.1875 0.875 0.38072-0.30562 0.78143-0.60172 1.1875-0.875 0.46302-0.3116 0.94431-0.60813 1.4375-0.875zm34.781 1.7188c0.91539 0.38739 1.8201 0.80986 2.6875 1.2812-0.86698-0.47098-1.7725-0.89421-2.6875-1.2812zm-37.562 0.15625c-0.42998 0.35498-0.85605 0.73105-1.25 1.125-0.29002 0.29002-0.57464 0.59649-0.84375 0.90625 0.27183-0.31322 0.55037-0.61333 0.84375-0.90625 0.39793-0.39731 0.8151-0.76761 1.25-1.125zm43.969 3.5c0.78574 0.58774 1.5251 1.2161 2.25 1.875-0.72441-0.65841-1.4647-1.2877-2.25-1.875zm4.3438 3.9688c0.65888 0.72488 1.2873 1.4643 1.875 2.25-0.58729-0.78529-1.2166-1.5256-1.875-2.25zm-53.875 0.8125c-0.16675 0.53514-0.32249 1.0692-0.4375 1.625 0.11385-0.55592 0.27193-1.0897 0.4375-1.625zm58.125 5.1562c0.47139 0.8674 0.89386 1.7721 1.2812 2.6875-0.38704-0.915-0.81027-1.8205-1.2812-2.6875zm-55.094 26.5c0.38704 0.9151 0.81027 1.8205 1.2812 2.6875-0.47139-0.8674-0.89386-1.7721-1.2812-2.6875zm60.094 4.4688c-0.0595 0.5845-0.1339 1.1526-0.25 1.7187 0.1161-0.5661 0.19048-1.1342 0.25-1.7187zm-0.25 1.75c-0.11501 0.5558-0.27075 1.0898-0.4375 1.625 0.16675-0.5352 0.32249-1.0692 0.4375-1.625zm-56.188 0.1875c0.58729 0.7853 1.2166 1.5256 1.875 2.25-0.65888-0.7249-1.2873-1.4643-1.875-2.25zm3.9688 4.3437c0.72441 0.6584 1.4647 1.2877 2.25 1.875-0.78574-0.5877-1.5251-1.2161-2.25-1.875zm5.9688 4.25c0.86698 0.471 1.7725 0.8942 2.6875 1.2813-0.91539-0.3874-1.8201-0.8099-2.6875-1.2813z" fill="#00aff0"/>
  <path d="m47.488 982.01c-5.1738 0-9.4685 1.1203-12.57 3.4952-3.1123 2.3833-4.8419 6.0282-4.8419 10.293 0 4.9245 3.3455 8.162 7.2148 10.005 3.825 1.8214 8.2955 2.616 11.672 3.0783h0.0641c2.8464 0.7794 4.2663 1.5515 4.5213 1.7956 0.2213 0.212 0.1942 0.1791 0.25652 0.449 0.0521 0.2256 0.0962 0.6728 0.0962 1.3146 0 0.4884-0.11695 0.7892-0.35272 1.0903s-0.62283 0.6038-1.1864 0.8978c-1.0678 0.557-2.6871 0.8979-3.8479 0.8979-3.9761 0-5.2361-1.1557-6.6376-2.6294-0.68144-0.7166-1.3399-1.5764-2.2767-2.3408-0.95935-0.7829-2.263-1.4109-3.88-1.4109-1.4116 0-2.8856 0.2175-3.9762 1.2826-1.0924 1.0669-1.4109 2.6174-1.4109 4.3609 0 1.3332 0.58791 2.5855 1.475 3.7517 0.88507 1.1636 2.1084 2.3181 3.6555 3.3349 3.0914 2.0318 7.4674 3.5593 12.73 3.5593 5.1381 0 9.5093-0.9604 12.73-3.1425 3.2384-2.194 5.1305-5.7046 5.1305-10.004 0-4.4191-1.981-7.6489-5.0343-9.7479-2.92-2.0074-6.7305-3.1232-10.838-4.2327-0.0236-0.01-0.0405-0.026-0.0641-0.032-0.0236-0.01-0.0405-0.026-0.0641-0.032a0.65372 0.65372 0 0 0 -0.0321 0 0.65372 0.65372 0 0 0 -0.0321 -0.032c-0.00014-0.0001-0.0184 0.01-0.0321 0s0.00014-0.032 0-0.032c-0.00027-0.0001-0.0639 0.0001-0.0641 0-0.00027-0.0001-0.0639-0.032-0.0641-0.032-0.00028-0.0001-0.0639 0-0.0641 0-0.00017-0.0001-0.0152-0.028-0.0321-0.032h-0.0321c-2.799-0.6802-5.0155-1.2966-6.1887-1.8919-0.57332-0.2909-0.87076-0.5923-1.0582-0.8337-0.20859-0.2686-0.22446-0.2374-0.22446-0.6092 0-1.1046 0.36017-1.507 1.2826-2.0522 0.85466-0.5052 2.2513-0.8337 3.431-0.8337 2.0128 0 3.2441 0.2887 4.0723 0.6733 0.82815 0.3846 1.2921 0.879 1.8277 1.5071 0.498 0.584 1.0349 1.3806 1.8919 2.1164 0.90093 0.7734 2.1615 1.3146 3.7196 1.3146 1.299 0 2.7073-0.071 3.912-0.9619 1.2561-0.9288 1.7636-2.5026 1.7636-4.3289 0-2.4425-1.7161-4.8451-4.5213-6.7338-2.819-1.898-6.8952-3.2707-12.121-3.2707z" fill="#00aff0" fill-rule="evenodd" opacity="0.1"/>
  <path d="m47.488 982.65c-5.0786 0-9.2372 1.1096-12.185 3.3669-2.9514 2.2601-4.5854 5.6893-4.5854 9.7801 0 4.6305 3.124 7.6473 6.8621 9.4273 3.7309 1.7765 8.1827 2.5558 11.544 3.0141 2.937 0.7976 4.3836 1.4865 4.874 1.9561 0.2651 0.2538 0.36915 0.4242 0.44892 0.7695 0.0779 0.3374 0.0962 0.821 0.0962 1.475 0 1.2182-0.67475 1.9304-1.8919 2.5653-1.2018 0.6269-2.8612 0.962-4.1365 0.962-4.1151 0-5.6837-1.3129-7.1186-2.8218-0.71226-0.749-1.3468-1.5702-2.2125-2.2767-0.8751-0.7141-2.0175-1.2826-3.4631-1.2826-1.3363 0-2.6145 0.2309-3.5272 1.1223-0.91311 0.8918-1.2185 2.2163-1.2185 3.8799 0 1.1365 0.51298 2.2708 1.3468 3.3669 0.83403 1.0965 2.0042 2.1946 3.4952 3.1745 2.9807 1.9591 7.2423 3.4631 12.377 3.4631 5.0546 0 9.311-0.9687 12.377-3.0462 3.0721-2.0813 4.8419-5.3471 4.8419-9.4594 0-4.2267-1.8662-7.2012-4.7778-9.2028-2.8347-1.9488-6.6102-3.0788-10.774-4.2006a0.67293 0.67293 0 0 0 -0.0321 -0.032h-0.0321a0.67293 0.67293 0 0 0 -0.22446 -0.096c-2.8252-0.6859-5.048-1.2959-6.349-1.956-0.64442-0.327-1.0329-0.6723-1.2826-0.994-0.25059-0.3228-0.35272-0.559-0.35272-1.0261 0-1.2983 0.57695-2.0228 1.6033-2.6294 1.0094-0.5966 2.4696-0.8979 3.7517-0.8979 2.0759 0 3.4208 0.301 4.3609 0.7376 0.94016 0.4365 1.5008 1.0208 2.0522 1.6674 0.53978 0.6329 1.0227 1.3886 1.7957 2.0522 0.78721 0.6758 1.8925 1.1543 3.3028 1.1543 1.2716 0 2.508-0.08 3.5272-0.8337 1.0394-0.7685 1.5071-2.1089 1.5071-3.8158 0-2.1271-1.5394-4.3753-4.2327-6.1887-2.6984-1.8168-6.6583-3.1745-11.768-3.1745z" fill="#00aff0" fill-rule="evenodd" opacity="0.3"/>
  <path d="m47.488 983.33c-4.9793 0-8.9781 1.1021-11.768 3.2386-2.79 2.1366-4.3289 5.3205-4.3289 9.235 0 4.3338 2.8672 7.099 6.4773 8.818 3.6101 1.7191 8.0132 2.4949 11.351 2.9501 3.0305 0.8168 4.5674 1.4863 5.2588 2.1484 0.349 0.3342 0.51032 0.6619 0.60925 1.0902 0.0989 0.4283 0.12826 0.9618 0.12826 1.6353 0 1.4912-0.90761 2.4772-2.2446 3.1746-1.337 0.6973-3.0751 1.0261-4.4571 1.0261-4.2716 0-6.1197-1.4901-7.5996-3.0463-0.73994-0.7781-1.3579-1.5674-2.1484-2.2125-0.79051-0.6451-1.7681-1.1223-3.0462-1.1223-1.2586 0-2.3174 0.2181-3.0462 0.9299-0.72885 0.7118-1.0261 1.8198-1.0261 3.3989 0 0.9232 0.43899 1.9253 1.2185 2.9501s1.9005 2.0714 3.3348 3.0142c2.8687 1.8854 6.9904 3.3669 11.993 3.3669 4.9688 0 9.0874-0.9498 11.993-2.918 2.9051-1.9682 4.5533-4.9904 4.5533-8.9143 0-4.0359-1.7166-6.7516-4.4892-8.6577s-6.5633-3.0552-10.838-4.2006a0.4798 0.4798 0 0 0 0 -0.032c-2.8309-0.6872-5.0535-1.2656-6.4773-1.988-0.71188-0.3613-1.2131-0.7666-1.5392-1.1865-0.32602-0.4199-0.48098-0.8572-0.48098-1.4429 0-1.523 0.76292-2.5204 1.9239-3.2066s2.7224-0.994 4.1044-0.994c4.2856 0 5.7737 1.2779 6.9262 2.6293 0.57626 0.6758 1.0508 1.4037 1.7316 1.9881 0.68072 0.5844 1.5888 0.9941 2.8538 0.9941 1.2352 0 2.324-0.1003 3.1424-0.7055 0.81846-0.6052 1.2185-1.6763 1.2185-3.2707 0-1.7821-1.3708-3.9109-3.9441-5.6436-2.5733-1.7326-6.3916-3.0462-11.383-3.0462z" fill="#00aff0" fill-rule="evenodd" opacity="0.6"/>
  <path d="m47.485 983.79c-9.8149 0-15.615 4.4166-15.615 12.001 0 8.2502 10.754 10.381 17.399 11.287 6.2199 1.6666 6.4243 2.6366 6.4243 5.3536 0 3.3862-4.2761 4.6843-7.1827 4.6843-8.7757 0-8.1278-6.3796-12.804-6.3796-2.4091 0-3.569 0.803-3.569 3.8367s6.2458 8.878 16.061 8.878c9.8149 0 16.061-3.7921 16.061-11.376 0-7.8078-6.4601-10.117-14.99-12.403-5.6738-1.3774-8.8334-2.3689-8.8334-5.0859 0-3.3862 3.6069-4.6844 6.5135-4.6844 8.7757 0 6.834 5.6213 11.51 5.6213 2.4091 0 3.8813-0.4907 3.8813-3.5244s-5.0413-8.2088-14.856-8.2088z" fill="#fff" fill-rule="evenodd"/>
  <path d="m33.472 971.62c-9.6017 0-17.406 7.8045-17.406 17.406 0 2.8437 0.68416 5.5212 1.9062 7.9063 0.0957 0.1802 0.12928 0.3928 0.0937 0.5937-0.39701 1.9838-0.59375 4.0203-0.59375 6.0938 0 8.4253 3.4288 16.03 8.9375 21.562-4.9378-5.4329-7.9375-12.642-7.9375-20.562 0-0.1658-0.002-0.3347 0-0.5-0.003-0.166 0-0.3333 0-0.5 0-1.9242 0.19127-3.7969 0.53125-5.5938 0.00018-0.01 0.00018-0.021 0-0.031-0.01-0.021-0.02-0.042-0.0312-0.062-1.2221-2.3851-1.9062-5.0626-1.9062-7.9063 0-0.1265 0.0285-0.2491 0.0312-0.375-0.008-0.2102-0.0312-0.4126-0.0312-0.625 0-9.0435 7.3628-16.406 16.406-16.406 0.21131 0 0.41564 0.0226 0.625 0.0312 0.1259-0.003 0.24846-0.0312 0.375-0.0312 2.8437 0 5.4898 0.7422 7.875 1.9688 0.0204 0.0112 0.0413 0.0216 0.0625 0.0312 0.0104 0.00018 0.0208 0.00018 0.0312 0 1.6431-0.32128 3.3369-0.52498 5.0625-0.5625 0.18618-0.004 0.37574-0.0312 0.5625-0.0312 0.16668 0 0.33397-0.003 0.5 0 0.16537-0.003 0.33412 0 0.5 0 7.921 0 15.13 2.9997 20.562 7.9375-5.5324-5.5087-13.137-8.9375-21.562-8.9375-2.0743 0-4.1094 0.25364-6.0938 0.65625-0.21071 0.0428-0.43613 0.009-0.625-0.0937-2.3852-1.2266-5.0313-1.9688-7.875-1.9688z" fill="url(#linearGradient7060)"/>
  <path d="m62.659 1035.6c9.6017 0 17.406-7.8045 17.406-17.406 0-2.8436-0.68416-5.5212-1.9062-7.9062-0.0957-0.1803-0.12929-0.3928-0.0937-0.5938 0.39701-1.9838 0.59375-4.0202 0.59375-6.0937 0-8.4254-3.4288-16.03-8.9375-21.563 4.9378 5.4329 7.9375 12.641 7.9375 20.563 0 0.1658 0.002 0.3346 0 0.5 0.003 0.166 0 0.3333 0 0.5 0 1.9241-0.19127 3.7969-0.53125 5.5937-0.00018 0.01-0.00018 0.021 0 0.031 0.01 0.021 0.0201 0.042 0.0312 0.062 1.2221 2.385 1.9062 5.0626 1.9062 7.9062 0 0.1266-0.0285 0.2491-0.0312 0.375 0.008 0.2102 0.0312 0.4127 0.0312 0.625 0 9.0435-7.3628 16.406-16.406 16.406-0.21131 0-0.41564-0.023-0.625-0.031-0.1259 0-0.24846 0.031-0.375 0.031-2.8438 0-5.4898-0.7422-7.875-1.9688-0.0204-0.011-0.0413-0.022-0.0625-0.031-0.0104-0.0002-0.0208-0.0002-0.0312 0-1.6431 0.3213-3.3369 0.525-5.0625 0.5625-0.18618 0-0.37574 0.031-0.5625 0.031h-0.5-0.5c-7.921 0-15.13-2.9997-20.562-7.9375 5.5324 5.5088 13.137 8.9375 21.562 8.9375 2.0743 0 4.1094-0.2536 6.0938-0.6562 0.2107-0.043 0.43613-0.01 0.625 0.094 2.3852 1.2266 5.0312 1.9688 7.875 1.9688z" fill="url(#linearGradient7095)"/>
 </g>
</svg>
