<svg height="96" width="96" xmlns="http://www.w3.org/2000/svg" xmlns:sodipodi="http://sodipodi.sourceforge.net/DTD/sodipodi-0.dtd" xmlns:inkscape="http://www.inkscape.org/namespaces/inkscape">
 <defs>
  <clipPath id="clipPath4066">
   <rect x="6" rx="6" y="48" height="38" width="84"/>
  </clipPath>
  <linearGradient x1="41.15" x2="44.619" y1="33.26" y2="59.651" gradientUnits="userSpaceOnUse" id="linearGradient6993" gradientTransform="matrix(1.0641 0 0 1.0641 -3.362 -2.216)">
   <stop stop-color="#f5f5f5"/>
   <stop stop-color="#dcdcdc" offset="1"/>
  </linearGradient>
  <linearGradient x2="0" y1="90" y2="5.988" gradientUnits="userSpaceOnUse" id="linearGradient7002" gradientTransform="matrix(1 0 0 1 -115.58 916.08)">
   <stop stop-color="#383838"/>
   <stop stop-color="#797979" offset="1"/>
  </linearGradient>
  <linearGradient x2="0" y1="86" y2="70" gradientUnits="userSpaceOnUse" id="linearGradient7004">
   <stop stop-color="#ffdf60"/>
   <stop stop-color="#ffd917" offset="1"/>
  </linearGradient>
  <clipPath clipPathUnits="userSpaceOnUse" id="clipPath7006">
   <path d="m-96.274 923.81c-6.2907 0-11.336 5.2011-11.336 11.63v58.842c0 6.4288 5.0454 11.6 11.336 11.6h57.598c6.2907 0 11.336-5.1708 11.336-11.6v-58.842c0-6.4288-5.0454-11.63-11.336-11.63h-57.598z"/>
  </clipPath>
 </defs>
 <g transform="matrix(1 0 0 1 0 -956.36)">
  <rect x="3.353" rx="12.724" y="959.35" fill-opacity="0.02" height="89.98" width="89.62"/>
  <rect x="3.959" rx="12.552" y="959.96" fill-opacity="0.039" height="88.76" width="88.41"/>
  <rect x="4.564" rx="12.38" y="960.57" fill-opacity="0.078" height="87.55" width="87.2"/>
  <rect x="5.17" rx="12.208" y="961.18" fill-opacity="0.157" height="86.33" width="85.991"/>
  <g clip-path="url(#clipPath7006)" transform="matrix(1.0558 0 0 1.0372 119.4 3.587)">
   <rect x="-109.58" rx="6" y="922.08" fill="url(#linearGradient7002)" height="84" width="84"/>
   <g clip-path="url(#clipPath4066)" transform="matrix(1 0 0 1 -115.58 920.08)">
    <path d="m12 70-8 16h12l8-16h-12zm24 0-8 16h12l8-16h-12zm24 0-8 16h12l8-16h-12zm24 0-8 16h12l8-16h-12z" fill="url(#linearGradient7004)"/>
    <path d="m90 78c0 3.324-2.676 6-6 6h-7l-1 2h8c3.324 0 6-2.676 6-6v-2zm-83.344 2.719-0.4374 0.843c0.6855 2.56 2.9995 4.438 5.7812 4.438h4l1-2h-5c-2.3447 0-4.3557-1.33-5.3438-3.281zm22.344 3.281l-1 2h12l1-2h-12zm24 0-1 2h12l1-2h-12z" fill="#fff" opacity="0.2"/>
    <path d="m90 69c0 3.324-2.676 6-6 6h-7.5l-0.5 1h8c3.324 0 6-2.676 6-6v-1zm-83.562 2.156-0.2187 0.406c0.6855 2.56 2.9995 4.438 5.7812 4.438h4l1-2h-0.5l-0.5 1h-4c-2.5614 0-4.7004-1.593-5.5625-3.844zm34.062 2.844-0.5 1h-11.5l-0.5 1h12l1-2h-0.5zm24 0-0.5 1h-11.5l-0.5 1h12l1-2h-0.5z" fill="#fff" opacity="0.3" transform="matrix(1 0 0 1 0 10)"/>
   </g>
  </g>
  <path d="m5.7756 1033.9v1.0133c0 6.668 5.3434 12.032 11.985 12.032h60.809c6.6418 0 11.985-5.3645 11.985-12.032v-1.0133c0 6.6681-5.3434 12.032-11.985 12.032h-60.809c-6.6418 0-11.985-5.3644-11.985-12.032z" fill-opacity="0.098"/>
  <path d="m5.7756 1029.8v5.0663c0 6.668 5.3434 12.032 11.985 12.032h60.809c6.6418 0 11.985-5.3645 11.985-12.032v-5.0663c0 6.6681-5.3434 12.032-11.985 12.032h-60.809c-6.6418 0-11.985-5.3643-11.985-12.032z" fill-opacity="0.235"/>
  <g transform="matrix(1 0 0 1 -0.74 956.31)">
   <path d="m73.656 24.031c-6.3345 0.28434-11.192 5.2459-12 11.312l-5.6875 7.8125c-0.63241 0.12654-1.2298 0.32857-1.8125 0.5625l-25.187-10.718c-1.5655-3.8132-5.1583-6.625-9.5625-6.625-5.8285 0-10.562 4.8015-10.562 10.625s4.734 10.625 10.562 10.625c1.4623 0 2.7538-0.4211 3.9375-0.9375l25.031 10.718c1.6608 3.9508 5.4704 6.7658 10 6.5625 4.9328-0.22142 8.7247-3.9096 9.6562-8.5312l7.469-5.593c6.7676-0.67465 11.966-6.5166 11.656-13.406-0.3201-7.131-6.3842-12.726-13.5-12.406z" color="#000000" opacity="0.05" transform="matrix(1 0 0 1 0 2)"/>
   <path d="m73.688 25c-5.97 0.268-10.546 5-11.157 10.781l-5.969 8.219c-0.89291 0.13971-1.7205 0.38902-2.5 0.75l-25.781-10.969c-1.3265-3.6925-4.7242-6.4375-8.875-6.4375-5.2942 0-9.5938 4.3593-9.5938 9.6562s4.2995 9.6562 9.5938 9.6562c1.4579 0 2.795-0.42398 4-1l25.625 10.969c1.4042 3.8324 5.0412 6.5667 9.3125 6.375 4.6353-0.20807 8.1931-3.7599 8.875-8.1875l7.8438-5.875c6.436-0.449 11.416-5.969 11.125-12.468-0.297-6.604-5.916-11.765-12.5-11.469z" color="#000000" opacity="0.1" transform="matrix(1 0 0 1 0 2)"/>
   <path d="m73.75 26.312c-5.5035 0.24704-9.7586 4.6832-10.062 10.094l-6.2812 8.6875c-1.2551 0.08166-2.4064 0.45936-3.4375 1.0312l-26.658-11.344c-0.97514-3.5082-4.1004-6.125-7.9062-6.125-4.581 0-8.2812 3.7487-8.2812 8.3438 0 4.595 3.7003 8.3438 8.2812 8.3438 1.4634 0 2.8068-0.42279 4-1.0938l26.562 11.375c1.028 3.6409 4.395 6.2384 8.3125 6.0625 4.2076-0.18887 7.4637-3.515 7.8125-7.625l8.4688-6.375c0.05768-0.000124 0.08964 0.003 0.15625 0 5.873-0.263 10.422-5.26 10.157-11.156-0.265-5.899-5.252-10.482-11.125-10.219zm0.21875 4.8438c0.79246-0.03557 1.549 0.1201 2.25 0.375-0.70553-0.26508-1.4524-0.37955-2.25-0.34375-0.79746 0.0358-1.5705 0.23562-2.25 0.5625-0.67947 0.32688-1.28 0.76125-1.7812 1.3125 0.4932-0.54633 1.1088-0.98655 1.7812-1.3125 0.69062-0.33477 1.4309-0.55698 2.25-0.59375zm2.2812 0.375c2.1264 0.78581 3.7036 2.7624 3.8125 5.1875 0.07296 1.6253-0.54542 3.1203-1.5625 4.2188 1.0025-1.1025 1.5718-2.5878 1.5-4.1875-0.10725-2.3892-1.6462-4.4171-3.75-5.2188z" color="#000000" opacity="0.15" transform="matrix(1 0 0 1 0 2)"/>
   <path d="m73.782 29.176c-5.1962 0.23325-9.2401 4.5142-9.3105 9.6762l-6.5506 9.0777c-0.11028 0.000063-0.22126-0.005-0.33252 0-1.3385 0.06009-2.568 0.492-3.6244 1.1638l-27.333-11.672c-0.718-3.362-3.654-5.885-7.216-5.885-4.098 0-7.415 3.327-7.415 7.448 0 4.1208 3.3168 7.4816 7.4151 7.4816 1.4704 0 2.8381-0.45191 3.9902-1.1971l27.266 11.671c0.74341 3.502 3.9054 6.0506 7.5814 5.8855 3.9274-0.17629 7.0014-3.3868 7.0826-7.2821l8.9114-6.7168c0.14459-0.000112 0.2864 0.0066 0.43227 0 5.3918-0.24203 9.5538-4.8535 9.3105-10.275-0.24335-5.4213-4.8164-9.619-10.208-9.377zm0.16626 3.0924c3.6916-0.16571 6.8162 2.7058 6.9828 6.4176 0.16661 3.7117-2.6928 6.8504-6.3843 7.0161-3.6916 0.16571-6.8162-2.7058-6.9828-6.4176-0.16661-3.7117 2.6928-6.8504 6.3843-7.0161zm-55.131 0.83129c0.19766-0.02018 0.39557 0 0.59853 0 2.4096 0 4.4769 1.4463 5.3868 3.5247l-3.7242-1.5961a4.2566 4.2566 0 0 0 -2.0949 -0.36577 4.2566 4.2566 0 0 0 -1.2636 8.1799l3.8572 1.6626c-0.66654 0.26387-1.4023 0.39902-2.1614 0.39902-3.2473 0-5.8855-2.6537-5.8855-5.9188 0-3.061 2.3221-5.5828 5.287-5.8855zm55.198 0.9643c-2.7072 0.12152-4.8107 2.432-4.6885 5.154 0.12218 2.722 2.4136 4.8433 5.1208 4.7217 2.7072-0.12152 4.8107-2.432 4.6885-5.154-0.12218-2.722-2.4136-4.8433-5.1208-4.7217zm-16.36 15.396c3.2441-0.14562 6.0051 2.391 6.1516 5.6528 0.14641 3.2618-2.3754 6.0392-5.6195 6.1848-2.5069 0.11253-4.7154-1.3702-5.6528-3.5579l3.6244 1.5296a4.2566 4.2566 0 1 0 3.3584 -7.8141l-3.7242-1.5961c0.58172-0.22948 1.202-0.36939 1.8621-0.39902z" color="#000000" opacity="0.3"/>
   <path d="m73.782 28.176c-5.1962 0.23325-9.2401 4.5142-9.3105 9.6762l-6.5506 9.0777c-0.11028 0.000063-0.22126-0.005-0.33252 0-1.3385 0.06009-2.568 0.492-3.6244 1.1638l-27.333-11.672c-0.718-3.362-3.654-5.885-7.216-5.885-4.098 0-7.415 3.327-7.415 7.448 0 4.1208 3.3168 7.4816 7.4151 7.4816 1.4704 0 2.8381-0.45191 3.9902-1.1971l27.266 11.671c0.74341 3.502 3.9054 6.0506 7.5814 5.8855 3.9274-0.17629 7.0014-3.3868 7.0826-7.2821l8.9114-6.7168c0.14459-0.000112 0.2864 0.0066 0.43227 0 5.3918-0.24203 9.5538-4.8535 9.3105-10.275-0.24335-5.4213-4.8164-9.619-10.208-9.377zm0.16626 3.0924c3.6916-0.16571 6.8162 2.7058 6.9828 6.4176 0.16661 3.7117-2.6928 6.8504-6.3843 7.0161-3.6916 0.16571-6.8162-2.7058-6.9828-6.4176-0.16661-3.7117 2.6928-6.8504 6.3843-7.0161zm-55.131 0.83129c0.19766-0.02018 0.39557 0 0.59853 0 2.4096 0 4.4769 1.4463 5.3868 3.5247l-3.7242-1.5961a4.2566 4.2566 0 0 0 -2.0949 -0.36577 4.2566 4.2566 0 0 0 -1.2636 8.1799l3.8572 1.6626c-0.66654 0.26387-1.4023 0.39902-2.1614 0.39902-3.2473 0-5.8855-2.6537-5.8855-5.9188 0-3.061 2.3221-5.5828 5.287-5.8855zm55.198 0.9643c-2.7072 0.12152-4.8107 2.432-4.6885 5.154 0.12218 2.722 2.4136 4.8433 5.1208 4.7217 2.7072-0.12152 4.8107-2.432 4.6885-5.154-0.12218-2.722-2.4136-4.8433-5.1208-4.7217zm-16.36 15.396c3.2441-0.14562 6.0051 2.391 6.1516 5.6528 0.14641 3.2618-2.3754 6.0392-5.6195 6.1848-2.5069 0.11253-4.7154-1.3702-5.6528-3.5579l3.6244 1.5296a4.2566 4.2566 0 1 0 3.3584 -7.8141l-3.7242-1.5961c0.58172-0.22948 1.202-0.36939 1.8621-0.39902z" fill="url(#linearGradient6993)" color="#000000"/>
   <path d="m73.781 28.188c-5.1962 0.23325-9.2421 4.4942-9.3125 9.6562l-6.5625 9.0938c-0.11028 0.000063-0.20124-0.005-0.3125 0-1.3385 0.06009-2.5685 0.48444-3.625 1.1562l-27.343-11.656c-0.717-3.363-3.657-5.907-7.219-5.907-4.098 0-7.406 3.348-7.406 7.469 0 0.17185 0.0199 0.33098 0.03125 0.5 0.25104-3.8909 3.4407-6.9687 7.375-6.9687 3.5614 0 6.5013 2.5438 7.2188 5.9062l27.344 11.656c1.0565-0.67181 2.2865-1.0962 3.625-1.1562 0.11126-0.005 0.20222 0.000063 0.3125 0l6.5625-9.0938c0.07038-5.162 4.1163-9.423 9.3125-9.6562 5.3918-0.24203 9.9754 3.9537 10.219 9.375 0.01843-0.33164 0.01521-0.66117 0-1-0.24335-5.4213-4.8269-9.617-10.219-9.375zm0.219 4.875c-2.7072 0.12152-4.8097 2.4343-4.6875 5.1562 0.0052 0.11647 0.01822 0.22961 0.03125 0.34375 0.21274-2.426 2.171-4.3884 4.6562-4.5 2.6229-0.11774 4.8774 1.8693 5.125 4.4687 0.02625-0.24618 0.01144-0.49515 0-0.75-0.122-2.723-2.418-4.841-5.125-4.719zm-55.031 0.59375a4.2566 4.2566 0 0 0 -3.875 4.7812 4.2566 4.2566 0 0 1 3.875 -3.7812 4.2566 4.2566 0 0 1 2.0938 0.375l3.75 1.5937c-0.21578-0.4929-0.50863-0.96405-0.84375-1.375l-2.9062-1.2188a4.2566 4.2566 0 0 0 -2.0938 -0.375zm48.593 4.781c-0.02223 0.27878-0.01287 0.55703 0 0.84375 0.16661 3.7117 3.2772 6.572 6.9688 6.4062 3.6916-0.16571 6.5729-3.2883 6.4062-7-0.0029-0.0637-0.02666-0.12431-0.03125-0.1875-0.25223 3.3434-2.9588 6.0342-6.375 6.1875-3.6395 0.16337-6.7228-2.6143-6.9688-6.25zm-54 0.15625c-0.008 0.129-0.031 0.275-0.031 0.406 0 3.2651 2.6277 5.9062 5.875 5.9062 0.75901 0 1.4897-0.14238 2.1562-0.40625l-1.4688-0.625c-0.22579 0.02494-0.4561 0.03125-0.6875 0.03125-3.0444 0-5.542-2.3306-5.8438-5.3125zm43.75 10.906c-0.53201 0.05593-1.0522 0.15479-1.5312 0.34375l3.75 1.625a4.2566 4.2566 0 0 1 2.6875 3.4375 4.2566 4.2566 0 0 0 -2.6875 -4.4375l-2.219-0.969zm6.4688 5.4062c-0.257 2.907-2.617 5.273-5.593 5.406-1.928 0.087-3.68-0.792-4.813-2.187l-0.844-0.375c0.93736 2.1877 3.1494 3.675 5.6562 3.5625 3.2441-0.14562 5.7714-2.9257 5.625-6.1875-0.0032-0.07165-0.02553-0.14782-0.03125-0.21875z" fill="#fff" color="#000000"/>
   <path d="m73.938 30.281c-3.6916 0.16571-6.5416 3.2883-6.375 7 0.0023 0.05229-0.0035 0.1043 0 0.15625 0.26557-3.3301 2.9686-6.0033 6.375-6.1562 3.6282-0.16286 6.7059 2.5997 6.9688 6.2187 0.02033-0.26946 0.04368-0.53567 0.03125-0.8125-0.16661-3.7117-3.3084-6.572-7-6.4062zm-55.125 0.8125c-2.965 0.303-5.282 2.845-5.282 5.906 0 0.1398 0.02174 0.26885 0.03125 0.40625 0.26597-2.8004 2.4704-5.0287 5.25-5.3125 0.19766-0.02018 0.39079 0 0.59375 0 1.8381 0 3.4846 0.83443 4.5625 2.1562l0.84375 0.375c-0.90986-2.0783-2.9967-3.5312-5.4062-3.5312-0.20296 0-0.39609-0.02018-0.59375 0zm-3.719 6.344a4.2566 4.2566 0 0 0 2.625 4.4062l2.375 1.0312c0.51479-0.05687 1.0054-0.19158 1.4688-0.375l-3.8438-1.6562a4.2566 4.2566 0 0 1 -2.625 -3.4062zm-3.063 0.062c-0.01 0.162-0.031 0.335-0.031 0.5 0 4.1208 3.3079 7.4688 7.4062 7.4688 1.4704 0 2.8479-0.44235 4-1.1875l27.25 11.656c0.74341 3.502 3.9178 6.04 7.5938 5.875 3.9274-0.17629 7.0126-3.386 7.0938-7.2812l8.906-6.719c0.14459-0.000112 0.29163 0.0066 0.4375 0 5.3918-0.24203 9.5558-4.8287 9.3125-10.25-0.27648 4.9745-4.2576 9.0231-9.3125 9.25-0.14587 0.0066-0.29291-0.000112-0.4375 0l-8.9062 6.7188c-0.08115 3.8953-3.1664 7.105-7.0938 7.2812-3.676 0.16501-6.8503-2.373-7.5938-5.875l-27.25-11.656c-1.1521 0.74515-2.5296 1.1875-4 1.1875-3.9275 0-7.1141-3.0849-7.375-6.9688zm67.094 0.031c-0.25412 2.3832-2.2338 4.2961-4.6875 4.4062-2.5913 0.11632-4.8022-1.8216-5.0938-4.375-0.01899 0.21657-0.04126 0.43317-0.03125 0.65625 0.12218 2.722 2.4178 4.8403 5.125 4.7188 2.7072-0.12152 4.8097-2.4343 4.6875-5.1562-0.0038-0.08473 0.008-0.16648 0-0.25zm-21.469 9.9375c-0.66012 0.02963-1.2933 0.14552-1.875 0.375l1.531 0.657c0.11407-0.01199 0.2272-0.02602 0.34375-0.03125 3.1728-0.14242 5.8705 2.2794 6.125 5.4375 0.02305-0.26088 0.04331-0.5126 0.03125-0.78125-0.14641-3.2618-2.9121-5.8019-6.1562-5.6562zm4.5625 6.4688a4.2566 4.2566 0 0 1 -6.0625 3.3438l-3.625-1.531c0.2166 0.50554 0.50339 0.95574 0.84375 1.375l2.7812 1.1562a4.2566 4.2566 0 0 0 6.0625 -4.3438z" color="#000000" opacity="0.1"/>
  </g>
 </g>
</svg>
