<svg height="96" width="96" xmlns="http://www.w3.org/2000/svg" xmlns:xlink="http://www.w3.org/1999/xlink" xmlns:sodipodi="http://sodipodi.sourceforge.net/DTD/sodipodi-0.dtd" xmlns:inkscape="http://www.inkscape.org/namespaces/inkscape">
 <defs>
  <linearGradient x2="0" y1="20.221" y2="138.66" gradientUnits="userSpaceOnUse" id="linearGradient3613-94">
   <stop stop-color="#fff"/>
   <stop stop-color="#fff" stop-opacity="0" offset="1"/>
  </linearGradient>
  <filter x="-0.192" y="-0.192" height="1.384" color-interpolation-filters="sRGB" id="filter3794-787" width="1.384">
   <feGaussianBlur stdDeviation="5.28"/>
  </filter>
  <radialGradient cy="47" r="3" xlink:href="#linearGradient3677" gradientUnits="userSpaceOnUse" id="radialGradient3936-1" cx="53" gradientTransform="matrix(1 0 0 1 8 12)"/>
  <radialGradient cy="47" r="3" xlink:href="#linearGradient3677" gradientUnits="userSpaceOnUse" id="radialGradient3934" cx="53" gradientTransform="matrix(1 0 0 1 0 12)"/>
  <radialGradient cy="47" r="3" xlink:href="#linearGradient3677" gradientUnits="userSpaceOnUse" id="radialGradient3928" cx="53" gradientTransform="matrix(1 0 0 1 8 6)"/>
  <radialGradient cy="47" r="3" xlink:href="#linearGradient3677" gradientUnits="userSpaceOnUse" id="radialGradient3926" cx="53" gradientTransform="matrix(1 0 0 1 0 6)"/>
  <radialGradient cy="47" r="3" xlink:href="#linearGradient3677" gradientUnits="userSpaceOnUse" id="radialGradient3920-5" cx="53" gradientTransform="matrix(1 0 0 1 8 0)"/>
  <radialGradient cy="47" r="3" xlink:href="#linearGradient3677" gradientUnits="userSpaceOnUse" id="radialGradient3916" cx="53"/>
  <filter x="-0.3" y="-0.075" height="1.15" color-interpolation-filters="sRGB" id="filter3901" width="1.6">
   <feGaussianBlur stdDeviation="0.75"/>
  </filter>
  <linearGradient x1="28.805" x2="36.618" xlink:href="#linearGradient3824-59" y1="36.796" y2="38.36" gradientUnits="userSpaceOnUse" id="linearGradient3891"/>
  <linearGradient x1="27" x2="33" xlink:href="#linearGradient4120" gradientUnits="userSpaceOnUse" id="linearGradient3849" gradientTransform="matrix(1 0 0 1 1 0)"/>
  <linearGradient x1="27" x2="35" xlink:href="#linearGradient3677" y1="52.36" y2="52" gradientUnits="userSpaceOnUse" id="linearGradient3841" gradientTransform="matrix(1 0 0 1 1 0)"/>
  <linearGradient x1="24.12" x2="36.618" xlink:href="#linearGradient4120" gradientUnits="userSpaceOnUse" id="linearGradient3820-6"/>
  <linearGradient x2="0" xlink:href="#linearGradient2949" y1="46.02" y2="41.967" gradientUnits="userSpaceOnUse" id="linearGradient4081-9" gradientTransform="matrix(1 0 0 1 16 -106)"/>
  <linearGradient x2="0" xlink:href="#linearGradient2949" y1="46.02" y2="41.967" gradientUnits="userSpaceOnUse" id="linearGradient4051" gradientTransform="matrix(1 0 0 1 16 -100)"/>
  <linearGradient x2="0" xlink:href="#linearGradient2949" y1="46.02" y2="41.967" gradientUnits="userSpaceOnUse" id="linearGradient4020" gradientTransform="matrix(1 0 0 1 16 -94)"/>
  <linearGradient x2="0" xlink:href="#linearGradient2949" y1="46.02" y2="41.967" gradientUnits="userSpaceOnUse" id="linearGradient3990" gradientTransform="matrix(1 0 0 1 16 -88)"/>
  <linearGradient id="linearGradient2949">
   <stop stop-color="#323232"/>
   <stop stop-color="#505050" offset="1"/>
  </linearGradient>
  <linearGradient x1="49.914" x2="49.929" y1="32.34" y2="39.28" gradientUnits="userSpaceOnUse" id="linearGradient3837" gradientTransform="matrix(1 0 0 1 0 -2)">
   <stop stop-color="#267387"/>
   <stop stop-color="#5bb9d2" offset="1"/>
  </linearGradient>
  <linearGradient x2="0" xlink:href="#linearGradient3824-59" y1="40.798" y2="30.783" gradientUnits="userSpaceOnUse" id="linearGradient3822-07" gradientTransform="matrix(1 0 0 1 0 -2)"/>
  <radialGradient cy="43.639" r="11" gradientUnits="userSpaceOnUse" id="radialGradient3816" cx="57" gradientTransform="matrix(1.4248 0 0 0.51299 -24.21 14.391)">
   <stop stop-color="#9ae8fb"/>
   <stop stop-color="#50bad4" offset="1"/>
  </radialGradient>
  <linearGradient x1="-83" x2="-15" gradientUnits="userSpaceOnUse" id="linearGradient3942-7" gradientTransform="matrix(1 0 0 1 1 1)">
   <stop/>
   <stop stop-opacity="0" offset="1"/>
  </linearGradient>
  <linearGradient x1="82" x2="88" xlink:href="#linearGradient3763-8" gradientUnits="userSpaceOnUse" id="linearGradient3779-3" gradientTransform="matrix(0.66667 0 0 1.5 23.333 -48)"/>
  <linearGradient x2="0" xlink:href="#linearGradient3613-94" y1="15" y2="104.2" gradientUnits="userSpaceOnUse" id="linearGradient3761"/>
  <linearGradient x1="82" x2="88" xlink:href="#linearGradient3763-8" gradientUnits="userSpaceOnUse" id="linearGradient3867-8" gradientTransform="matrix(0.66667 0 0 1.5 23.333 -84)"/>
  <linearGradient x1="15" x2="81" gradientUnits="userSpaceOnUse" id="linearGradient3628-3" gradientTransform="matrix(0.9697 0 0 0.9697 -94.55 1.454)">
   <stop stop-color="#808080"/>
   <stop stop-color="#d0d0d0" offset="1"/>
  </linearGradient>
  <clipPath id="clipPath3613-80">
   <use xlink:href="#SVGCleanerId_0"/>
  </clipPath>
  <linearGradient xlink:href="#linearGradient3613-94" id="linearGradient3677"/>
  <linearGradient id="linearGradient4120">
   <stop stop-color="#fff"/>
   <stop stop-color="#989898" offset="1"/>
  </linearGradient>
  <linearGradient id="linearGradient3763-8">
   <stop stop-color="#dadada"/>
   <stop stop-color="#fff" offset="0.391"/>
   <stop stop-color="#b9b9b9" offset="1"/>
  </linearGradient>
  <linearGradient id="linearGradient3824-59">
   <stop stop-color="#e4e4e4"/>
   <stop stop-color="#989898" offset="1"/>
  </linearGradient>
  <linearGradient x2="0" y1="90" y2="5.988" gradientUnits="userSpaceOnUse" id="linearGradient8154" gradientTransform="matrix(1.0791 0 0 1.0744 -3.943 -5.118)">
   <stop stop-color="#b9b9b9"/>
   <stop stop-color="#dedede" offset="1"/>
  </linearGradient>
  <rect x="6" rx="6" y="6" height="84" id="SVGCleanerId_0" width="84"/>
  <path d="m36.618 38.358a6.2503 6.2503 0 1 1 -12.501 0 6.2503 6.2503 0 1 1 12.501 0z" id="SVGCleanerId_1"/>
 </defs>
 <g transform="matrix(1 0 0 1 0 -956.36)">
  <rect x="3.353" rx="12.724" y="959.35" fill-opacity="0.02" height="89.98" width="89.62"/>
  <rect x="3.959" rx="12.552" y="959.96" fill-opacity="0.039" height="88.76" width="88.41"/>
  <rect x="4.564" rx="12.38" y="960.57" fill-opacity="0.078" height="87.55" width="87.2"/>
  <rect x="5.17" rx="12.208" y="961.18" fill-opacity="0.157" height="86.33" width="85.991"/>
  <path d="m17.75 5.4062c-6.642 0-11.969 5.3948-11.969 12.063l0.0002 61.031c0 6.668 5.3268 12.031 11.969 12.031h60.812c6.642 0 11.969-5.363 11.969-12.031v-61.031c0-6.668-5.327-12.063-11.969-12.063l-60.812 0.0002z" fill="url(#linearGradient8154)" transform="matrix(1 0 0 1 0 956.36)"/>
  <path d="m5.7756 1033.9v1.0133c0 6.668 5.3434 12.032 11.985 12.032h60.809c6.6418 0 11.985-5.3645 11.985-12.032v-1.0133c0 6.6681-5.3434 12.032-11.985 12.032h-60.809c-6.6418 0-11.985-5.3644-11.985-12.032z" fill-opacity="0.098"/>
  <path d="m5.7756 1029.8v5.0663c0 6.668 5.3434 12.032 11.985 12.032h60.809c6.6418 0 11.985-5.3645 11.985-12.032v-5.0663c0 6.6681-5.3434 12.032-11.985 12.032h-60.809c-6.6418 0-11.985-5.3643-11.985-12.032z" fill-opacity="0.235"/>
  <rect x="15" stroke-width="0.5" rx="12" y="15" clip-path="url(#clipPath3613-80)" fill="url(#linearGradient3613-94)" stroke="#fff" height="66" filter="url(#filter3794-787)" opacity="0.1" stroke-linecap="round" width="66" transform="matrix(1 0 0 1 -0.344 953.64)"/>
  <g transform="matrix(1 0 0 1 148.44 51.17)">
   <g transform="matrix(1 0 0 1 -147.22 902.47)">
    <path d="m-79 13c-2.2042 0-4 1.7958-4 4v62c0 2.2042 1.7958 4 4 4h60c2.2042 0 4-1.7958 4-4v-62c0-2.2042-1.7958-4-4-4h-60z" fill="url(#linearGradient3942-7)" opacity="0.1" transform="matrix(0 -1 1 0 0 0)"/>
    <rect x="-82" rx="3" y="14" fill="url(#linearGradient3942-7)" height="68" opacity="0.2" width="66" transform="matrix(0 -1 1 0 0 0)"/>
    <rect x="-81" rx="2" y="15" height="66" opacity="0.4" width="66" transform="matrix(0 -1 1 0 0 0)"/>
    <rect x="-80" y="16" fill="url(#linearGradient3628-3)" height="64" width="64" transform="matrix(0 -1 1 0 0 0)"/>
    <rect x="77" rx="2" y="23" height="14" opacity="0.4" width="6"/>
    <path d="m16 16v64h64v-64h-64zm2 2h60v60h-60v-60z" fill="url(#linearGradient3761)" opacity="0.5"/>
    <rect x="78" rx="1" y="24" fill="url(#linearGradient3867-8)" height="12" width="4"/>
    <rect x="77" rx="2" y="59" height="14" opacity="0.4" width="6"/>
    <rect x="78" rx="1" y="60" fill="url(#linearGradient3779-3)" height="12" width="4"/>
    <rect x="78" y="30" height="1" opacity="0.2" width="4"/>
    <rect x="78" y="66" height="1" opacity="0.2" width="4"/>
    <path d="m79 24c-0.554 0-1 0.446-1 1v1c0-0.554 0.446-1 1-1h2c0.554 0 1 0.446 1 1v-1c0-0.554-0.446-1-1-1h-2z" fill="#fff"/>
    <path d="m79 60c-0.554 0-1 0.446-1 1v1c0-0.554 0.446-1 1-1h2c0.554 0 1 0.446 1 1v-1c0-0.554-0.446-1-1-1h-2z" fill="#fff"/>
   </g>
   <g transform="matrix(1 0 0 1 -147.22 902.47)">
    <rect x="32" rx="1" y="42" height="24" filter="url(#filter3901)" opacity="0.1" width="6"/>
    <use xlink:href="#SVGCleanerId_1" opacity="0.15" transform="matrix(0 1.1199 1.1199 0 -11.959 3.99)"/>
    <use xlink:href="#SVGCleanerId_1" opacity="0.4" transform="matrix(0 0.95995 0.95995 0 -5.822 9.848)"/>
    <rect x="45" rx="2" y="29" fill="url(#linearGradient3822-07)" height="10" width="24"/>
    <rect x="46.5" rx="1" y="30.5" fill="url(#radialGradient3816)" stroke="url(#linearGradient3837)" height="7" width="21"/>
    <rect x="46" rx="0.5" y="-46" fill="url(#linearGradient3990)" height="4" width="6" transform="matrix(1 0 0 -1 0 0)"/>
    <text font-size="1.944" x="48.37" y="34.947" line-height="125%" fill="#000000" opacity="0.4" font-family="Lilliput Steps"><tspan x="48.37" y="34.947">ENTER CODE</tspan>
    </text>
    <path d="m46 45.5v1c0 0.277 0.223 0.5 0.5 0.5h5c0.277 0 0.5-0.223 0.5-0.5v-1c0 0.277-0.223 0.5-0.5 0.5h-5c-0.277 0-0.5-0.223-0.5-0.5z" opacity="0.2"/>
    <text font-size="3.445" x="49" y="45.19" text-anchor="middle" line-height="125%" fill="#ffffff" font-family="Liberation Sans"><tspan x="49" y="45.19">7</tspan>
    </text>
    <rect x="54" rx="0.5" y="-46" fill="url(#linearGradient3990)" height="4" width="6" transform="matrix(1 0 0 -1 0 0)"/>
    <path d="m54 45.5v1c0 0.277 0.223 0.5 0.5 0.5h5c0.277 0 0.5-0.223 0.5-0.5v-1c0 0.277-0.223 0.5-0.5 0.5h-5c-0.277 0-0.5-0.223-0.5-0.5z" opacity="0.2"/>
    <text font-size="3.445" x="57" y="45.19" text-anchor="middle" line-height="125%" fill="#ffffff" font-family="Liberation Sans"><tspan x="57" y="45.19">8</tspan>
    </text>
    <rect x="62" rx="0.5" y="-46" fill="url(#linearGradient3990)" height="4" width="6" transform="matrix(1 0 0 -1 0 0)"/>
    <path d="m62 45.5v1c0 0.277 0.223 0.5 0.5 0.5h5c0.277 0 0.5-0.223 0.5-0.5v-1c0 0.277-0.223 0.5-0.5 0.5h-5c-0.277 0-0.5-0.223-0.5-0.5z" opacity="0.2"/>
    <text font-size="3.445" x="65" y="45.19" text-anchor="middle" line-height="125%" fill="#ffffff" font-family="Liberation Sans"><tspan x="65" y="45.19">9</tspan>
    </text>
    <rect x="46" rx="0.5" y="-52" fill="url(#linearGradient4020)" height="4" width="6" transform="matrix(1 0 0 -1 0 0)"/>
    <path d="m46 51.5v1c0 0.277 0.223 0.5 0.5 0.5h5c0.277 0 0.5-0.223 0.5-0.5v-1c0 0.277-0.223 0.5-0.5 0.5h-5c-0.277 0-0.5-0.223-0.5-0.5z" opacity="0.2"/>
    <text font-size="3.445" x="49" y="51.19" text-anchor="middle" line-height="125%" fill="#ffffff" font-family="Liberation Sans"><tspan x="49" y="51.19">4</tspan>
    </text>
    <rect x="54" rx="0.5" y="-52" fill="url(#linearGradient4020)" height="4" width="6" transform="matrix(1 0 0 -1 0 0)"/>
    <path d="m54 51.5v1c0 0.277 0.223 0.5 0.5 0.5h5c0.277 0 0.5-0.223 0.5-0.5v-1c0 0.277-0.223 0.5-0.5 0.5h-5c-0.277 0-0.5-0.223-0.5-0.5z" opacity="0.2"/>
    <text font-size="3.445" x="57" y="51.19" text-anchor="middle" line-height="125%" fill="#ffffff" font-family="Liberation Sans"><tspan x="57" y="51.19">5</tspan>
    </text>
    <rect x="62" rx="0.5" y="-52" fill="url(#linearGradient4020)" height="4" width="6" transform="matrix(1 0 0 -1 0 0)"/>
    <path d="m62 51.5v1c0 0.277 0.223 0.5 0.5 0.5h5c0.277 0 0.5-0.223 0.5-0.5v-1c0 0.277-0.223 0.5-0.5 0.5h-5c-0.277 0-0.5-0.223-0.5-0.5z" opacity="0.2"/>
    <text font-size="3.445" x="65" y="51.19" text-anchor="middle" line-height="125%" fill="#ffffff" font-family="Liberation Sans"><tspan x="65" y="51.19">6</tspan>
    </text>
    <rect x="46" rx="0.5" y="-58" fill="url(#linearGradient4051)" height="4" width="6" transform="matrix(1 0 0 -1 0 0)"/>
    <path d="m46 57.5v1c0 0.277 0.223 0.5 0.5 0.5h5c0.277 0 0.5-0.223 0.5-0.5v-1c0 0.277-0.223 0.5-0.5 0.5h-5c-0.277 0-0.5-0.223-0.5-0.5z" opacity="0.2"/>
    <text font-size="3.445" x="49" y="57.19" text-anchor="middle" line-height="125%" fill="#ffffff" font-family="Liberation Sans"><tspan x="49" y="57.19">1</tspan>
    </text>
    <rect x="54" rx="0.5" y="-58" fill="url(#linearGradient4051)" height="4" width="6" transform="matrix(1 0 0 -1 0 0)"/>
    <path d="m54 57.5v1c0 0.277 0.223 0.5 0.5 0.5h5c0.277 0 0.5-0.223 0.5-0.5v-1c0 0.277-0.223 0.5-0.5 0.5h-5c-0.277 0-0.5-0.223-0.5-0.5z" opacity="0.2"/>
    <text font-size="3.445" x="57" y="57.19" text-anchor="middle" line-height="125%" fill="#ffffff" font-family="Liberation Sans"><tspan x="57" y="57.19">2</tspan>
    </text>
    <rect x="62" rx="0.5" y="-58" fill="url(#linearGradient4051)" height="4" width="6" transform="matrix(1 0 0 -1 0 0)"/>
    <path d="m62 57.5v1c0 0.277 0.223 0.5 0.5 0.5h5c0.277 0 0.5-0.223 0.5-0.5v-1c0 0.277-0.223 0.5-0.5 0.5h-5c-0.277 0-0.5-0.223-0.5-0.5z" opacity="0.2"/>
    <text font-size="3.445" x="65" y="57.19" text-anchor="middle" line-height="125%" fill="#ffffff" font-family="Liberation Sans"><tspan x="65" y="57.19">3</tspan>
    </text>
    <rect x="46" rx="0.5" y="-64" fill="url(#linearGradient4081-9)" height="4" width="6" transform="matrix(1 0 0 -1 0 0)"/>
    <path d="m46 63.5v1c0 0.277 0.223 0.5 0.5 0.5h5c0.277 0 0.5-0.223 0.5-0.5v-1c0 0.277-0.223 0.5-0.5 0.5h-5c-0.277 0-0.5-0.223-0.5-0.5z" opacity="0.2"/>
    <text font-size="3.445" x="49" y="63.19" text-anchor="middle" line-height="125%" fill="#ffffff" font-family="Liberation Sans"><tspan x="49" y="63.19">*</tspan>
    </text>
    <rect x="54" rx="0.5" y="-64" fill="url(#linearGradient4081-9)" height="4" width="6" transform="matrix(1 0 0 -1 0 0)"/>
    <path d="m54 63.5v1c0 0.277 0.223 0.5 0.5 0.5h5c0.277 0 0.5-0.223 0.5-0.5v-1c0 0.277-0.223 0.5-0.5 0.5h-5c-0.277 0-0.5-0.223-0.5-0.5z" opacity="0.2"/>
    <text font-size="3.445" x="57" y="63.19" text-anchor="middle" line-height="125%" fill="#ffffff" font-family="Liberation Sans"><tspan x="57" y="63.19">0</tspan>
    </text>
    <rect x="62" rx="0.5" y="-64" fill="url(#linearGradient4081-9)" height="4" width="6" transform="matrix(1 0 0 -1 0 0)"/>
    <path d="m62 63.5v1c0 0.277 0.223 0.5 0.5 0.5h5c0.277 0 0.5-0.223 0.5-0.5v-1c0 0.277-0.223 0.5-0.5 0.5h-5c-0.277 0-0.5-0.223-0.5-0.5z" opacity="0.2"/>
    <text font-size="3.445" x="65" y="63.19" text-anchor="middle" line-height="125%" fill="#ffffff" font-family="Liberation Sans"><tspan x="65" y="63.19">#</tspan>
    </text>
    <use xlink:href="#SVGCleanerId_1" fill="url(#linearGradient3820-6)" transform="matrix(0 0.95995 0.95995 0 -5.822 8.848)"/>
    <path d="m32 34c-1.8769 0-3.4437 1.2876-3.875 3.0312-0.63237 0.0919-1.125 0.54482-1.125 1.125v25.688c0 0.646 0.605 1.156 1.344 1.156h1 4.3125 1c0.739 0 1.344-0.51 1.344-1.156v-25.688c0-0.02262 0.0014-0.0402 0-0.0625 0.000722-0.03127 0-0.06231 0-0.09375 0-2.2091-1.7909-4-4-4z" opacity="0.15"/>
    <path d="m28.344 37c-0.076 0-0.147 0.021-0.219 0.031-0.076 0.309-0.125 0.637-0.125 0.969 0 0.03144-0.000722 0.06248 0 0.09375-0.0014 0.0223 0 0.03988 0 0.0625v25.688c0 0.646 0.605 1.156 1.344 1.156h4.3125c0.739 0 1.344-0.51 1.344-1.156v-25.688c0-0.646-0.605-1.156-1.344-1.156h-5.3125z" opacity="0.4"/>
    <rect x="28" rx="1" y="40" fill="url(#linearGradient3849)" height="24" width="6"/>
    <use xlink:href="#SVGCleanerId_1" fill="url(#linearGradient3891)" transform="matrix(0.63997 0 0 0.63997 11.566 13.452)"/>
    <path d="m28.062 40.719c-0.028 0.093-0.062 0.178-0.062 0.281v22c0 0.554 0.446 1 1 1h4c0.554 0 1-0.446 1-1v-22c0-0.103-0.034-0.188-0.062-0.281-0.272 0.294-0.59 0.517-0.938 0.719v21.062c0 0.277-0.223 0.5-0.5 0.5h-3c-0.277 0-0.5-0.223-0.5-0.5v-21.062c-0.34837-0.20196-0.66594-0.42491-0.9375-0.71875z" fill="url(#linearGradient3841)"/>
    <path d="m31 34c-2.2091 0-4 1.7909-4 4 0 0.17012 0.04189 0.33547 0.0625 0.5 0.248-1.972 1.899-3.5 3.938-3.5s3.6904 1.528 3.9375 3.5c0.02-0.165 0.062-0.33 0.062-0.5 0-2.209-1.791-4-4-4z" opacity="0.2"/>
    <path d="m52 44v3h-2v1h2v2h2v-2h2v-1h-2v-3h-2z" fill="url(#radialGradient3916)" opacity="0.4"/>
    <path d="m60 44v3h-2v1h2v2h2v-2h2v-1h-2v-3h-2z" fill="url(#radialGradient3920-5)" opacity="0.4"/>
    <path d="m52 50v3h-2v1h2v2h2v-2h2v-1h-2v-3h-2z" fill="url(#radialGradient3926)" opacity="0.4"/>
    <path d="m60 50v3h-2v1h2v2h2v-2h2v-1h-2v-3h-2z" fill="url(#radialGradient3928)" opacity="0.4"/>
    <path d="m52 56v3h-2v1h2v2h2v-2h2v-1h-2v-3h-2z" fill="url(#radialGradient3934)" opacity="0.4"/>
    <path d="m60 56v3h-2v1h2v2h2v-2h2v-1h-2v-3h-2z" fill="url(#radialGradient3936-1)" opacity="0.4"/>
   </g>
  </g>
 </g>
</svg>
