<svg height="96" width="96" xmlns="http://www.w3.org/2000/svg" xmlns:sodipodi="http://sodipodi.sourceforge.net/DTD/sodipodi-0.dtd" xmlns:inkscape="http://www.inkscape.org/namespaces/inkscape">
 <defs>
  <linearGradient x2="0" y1="70.04" y2="443.59" gradientUnits="userSpaceOnUse" id="linearGradient8306" gradientTransform="matrix(0.22574 0 0 0.22871 -9.427 945.78)">
   <stop stop-color="#0b9879"/>
   <stop stop-color="#60e7dc" offset="1"/>
  </linearGradient>
  <linearGradient x2="0" y1="8" y2="88" gradientUnits="userSpaceOnUse" id="linearGradient8309" gradientTransform="matrix(1.0744 0 0 1.0837 -3.134 -5.955)">
   <stop stop-color="#e9e6e8"/>
   <stop stop-color="#92838d" offset="1"/>
  </linearGradient>
 </defs>
 <g transform="matrix(1 0 0 1 0 -956.36)">
  <rect x="3.353" rx="12.724" y="959.35" fill-opacity="0.02" height="89.98" width="89.62"/>
  <rect x="3.959" rx="12.552" y="959.96" fill-opacity="0.039" height="88.76" width="88.41"/>
  <rect x="4.564" rx="12.38" y="960.57" fill-opacity="0.078" height="87.55" width="87.2"/>
  <rect x="5.17" rx="12.208" y="961.18" fill-opacity="0.157" height="86.33" width="85.991"/>
  <path d="m17.75 5.4062c-6.642 0-11.969 5.3948-11.969 12.063l0.0002 61.031c0 6.668 5.3268 12.031 11.969 12.031h60.812c6.642 0 11.969-5.363 11.969-12.031v-61.031c0-6.668-5.327-12.063-11.969-12.063l-60.812 0.0002z" fill="url(#linearGradient8309)" transform="matrix(1 0 0 1 0 956.36)"/>
  <path d="m48.364 986.03c-9.974 0-18.059 8.1514-18.059 18.297 0 0-0.11971 1.7187 0.39907 3.6593h27.734c-0.74873 2.119-2.0917 4.0201-3.9152 5.2891-4.1954 3.3558-10.549 2.1355-14.123-1.6297h-8.5853c2.788 6.4593 9.1464 10.978 16.55 10.978 9.974 0 18.059-8.1919 18.059-18.297 0 0 0-1.8805-0.35916-3.6594h-27.746c1.5613-3.9983 5.2895-7.2384 9.6223-7.276 0.21682-0.0105 0.43282-0.0116 0.64901-0.007 2.9045 0.0597 5.7228 1.4552 7.6823 3.6237h8.6417c-2.788-6.4592-9.1464-10.978-16.55-10.978zm-4.1066-24.255v9.5759c-13.444 1.6976-24.36 11.635-27.671 24.668h8.5055c3.4882-9.4069 12.724-16.743 22.818-16.675 0.24474-0.006 0.49252-0.0101 0.73682-0.008 3.6646 0.0221 7.2667 0.94395 10.532 2.5966 5.8811 2.6822 10.248 7.983 12.382 14.086h8.5696c-3.3108-13.032-14.227-22.97-27.671-24.668v-9.5759zm-27.671 50.861c3.3108 13.032 14.227 22.97 27.671 24.668v9.5759h8.2012v-9.5759c13.444-1.6975 24.36-11.635 27.671-24.668h-8.4495c-3.3154 9.909-13.563 17.035-23.923 16.667-10.087 0.052-19.238-7.2491-22.649-16.667z" fill="url(#linearGradient8306)"/>
  <path d="m44.264 961.78v9.5616c-13.444 1.6976-24.377 11.663-27.688 24.696h8.5c3.4882-9.4069 12.75-16.754 22.844-16.685 0.24474-0.007 0.47445-0.001 0.71875 0 3.6646 0.0221 7.2662 0.94357 10.531 2.5962 5.8811 2.6822 10.241 7.9857 12.375 14.089h8.5938c-3.3108-13.032-14.244-22.998-27.688-24.696v-9.5616h-1.9062v1.9313 2.1213 5.509a1.9057 1.9307 0 0 0 1.6562 1.9313c11.808 1.491 21.492 9.7736 25.281 20.833h-4.75c-2.427-5.9682-6.7731-11.165-12.719-13.899-0.02081-0.0105-0.04167-0.0212-0.0625-0.0316-3.4965-1.7584-7.3637-2.7306-11.312-2.7545-0.20758-0.001-0.44775-0.005-0.71875 0-0.02356 0.00048-0.03832-0.00065-0.0625 0-10.52-0.0425-19.916 7.1822-24 16.685h-4.625c3.7894-11.059 13.474-19.342 25.281-20.833a1.9057 1.9307 0 0 0 1.6562 -1.9313v-5.509-2.1213-1.9313h-1.9062zm4.0938 24.252c-9.974 0-18.062 8.1545-18.062 18.3 0 0-0.11253 1.732 0.40625 3.6727h27.75c-0.74873 2.1189-2.1139 4.0184-3.9375 5.2873-4.1954 3.3559-10.551 2.1189-14.125-1.6463h-8.5625c2.788 6.4592 9.1278 10.986 16.531 10.986 9.974 0 18.062-8.195 18.062-18.3 0 0 0.01541-1.8938-0.34375-3.6727h-27.75c1.5613-3.9983 5.2922-7.2128 9.625-7.2504 0.21682-0.0105 0.40881-0.0362 0.625-0.0316 2.9045 0.0597 5.7279 1.4725 7.6875 3.641h8.6562c-2.788-6.4592-9.159-10.986-16.562-10.986zm0 1.9313c5.5087 0 10.24 2.8722 13.156 7.1237h-4.6875c-2.2326-2.109-5.0894-3.5767-8.2188-3.641-0.35532-0.007-0.55565 0.0221-0.6875 0.0316-0.01196 0.00087-0.05223-0.0005-0.0625 0-5.2246 0.0756-9.5051 3.8566-11.312 8.4851a1.9057 1.9307 0 0 0 1.7812 2.628h26.031c0.04408 0.6779 0.15625 1.7097 0.15625 1.7097a1.9057 1.9307 0 0 0 0 0.031c0 9.0614-7.2125 16.369-16.156 16.369-5.5087 0-10.215-2.8705-13.125-7.1237h4.5938c4.2651 3.8511 10.96 5.0732 15.781 1.2981 0.03102-0.021 0.06297-0.042 0.09375-0.063v-0.031c2.1321-1.521 3.6714-3.6773 4.5312-6.1106a1.9057 1.9307 0 0 0 -1.7812 -2.5962h-26.062c-0.0423-0.6224-0.1875-1.6147-0.1875-1.6147a1.9057 1.9307 0 0 0 0 -0.1267c0-9.106 7.2074-16.369 16.156-16.369zm-31.781 24.664c3.3108 13.032 14.244 22.998 27.688 24.696v9.5616h1.9688v-1.9313h-0.0625v-7.6303a1.9057 1.9307 0 0 0 -1.6562 -1.9313c-11.808-1.491-21.492-9.7736-25.281-20.833h4.6562c4.0057 9.5109 13.305 16.71 23.812 16.685 0.021-0.0001 0.04149 0.0001 0.0625 0 10.772 0.3542 21.132-6.6354 25.156-16.685h4.5625c-3.7894 11.059-13.474 19.342-25.281 20.833a1.9057 1.9307 0 0 0 -1.6562 1.9313v7.6303h-0.0625v1.9313h1.9688v-9.5616c13.444-1.6976 24.377-11.663 27.688-24.696h-8.4688c-3.3154 9.909-13.546 17.053-23.906 16.685-10.087 0.052-19.245-7.2676-22.656-16.685h-8.5312z" opacity="0.1"/>
  <path d="m44.264 961.78v9.5616c-13.444 1.6976-24.377 11.663-27.688 24.696h8.5c3.4882-9.4069 12.75-16.754 22.844-16.685 0.24474-0.007 0.47445-0.001 0.71875 0 3.6646 0.0221 7.2662 0.94357 10.531 2.5962 5.8811 2.6822 10.241 7.9857 12.375 14.089h8.5938c-3.3108-13.032-14.244-22.998-27.688-24.696v-9.5616h-1.0938v1.0765h0.03125v8.4852a1.0672 1.0812 0 0 0 0.9375 1.0765c12.522 1.5812 22.708 10.625 26.312 22.543h-6.4375c-2.3064-6.0273-6.6404-11.284-12.562-13.994-0.0083-0.004-0.02297 0.004-0.03125 0-3.3969-1.7145-7.1417-2.6681-10.969-2.6912-0.2241-0.001-0.456-0.006-0.71875 0-0.01142 0.00026-0.01971-0.00032-0.03125 0-10.339-0.0552-19.67 7.2172-23.5 16.685h-6.3125c3.6047-11.917 13.791-20.962 26.312-22.543a1.0672 1.0812 0 0 0 0.9375 -1.0765v-8.4852h0.03125v-1.0765h-1.0938zm4.0938 24.252c-9.974 0-18.062 8.1545-18.062 18.3 0 0-0.11253 1.732 0.40625 3.6727h27.75c-0.74873 2.1189-2.1139 4.0184-3.9375 5.2873-4.1954 3.3559-10.551 2.1189-14.125-1.6463h-8.5625c2.788 6.4592 9.1278 10.986 16.531 10.986 9.974 0 18.062-8.195 18.062-18.3 0 0 0.01541-1.8938-0.34375-3.6727h-27.75c1.5613-3.9983 5.2922-7.2128 9.625-7.2504 0.21682-0.0105 0.40881-0.0362 0.625-0.0316 2.9045 0.0597 5.7279 1.4725 7.6875 3.641h8.6562c-2.788-6.4592-9.159-10.986-16.562-10.986zm0 1.0765c6.339 0 11.733 3.6299 14.656 8.8334h-6.4375c-2.1204-2.1338-4.9352-3.5787-7.9688-3.641-0.28506-0.006-0.49671 0.0211-0.65625 0.0316-0.01516 0.001-0.04822-0.0007-0.0625 0-4.8204 0.0721-8.8667 3.5725-10.562 7.9153a1.0672 1.0812 0 0 0 1 1.488h26.781c0.13825 1.2036 0.25 2.5962 0.25 2.5962 0 9.5207-7.6029 17.224-17 17.224-6.339 0-11.706-3.6283-14.625-8.8333h6.3125c3.9678 3.8222 10.506 5.0465 15.062 1.4564 0.01855-0.013 0.04404-0.018 0.0625-0.031v-0.032c1.9909-1.4104 3.4719-3.4402 4.2812-5.7307a1.0672 1.0812 0 0 0 -1 -1.4564h-26.812c-0.17996-1.2066-0.28125-2.5328-0.28125-2.5328a1.0672 1.0812 0 0 0 0 -0.063c0-9.5634 7.6001-17.224 17-17.224zm-31.781 25.519c3.3108 13.032 14.244 22.998 27.688 24.696v9.5616h1.0938v-1.0765h-0.03125v-8.4851a1.0672 1.0812 0 0 0 -0.9375 -1.0765c-12.522-1.5812-22.708-10.625-26.312-22.543h6.3438c3.7518 9.4769 12.984 16.723 23.312 16.685 0.01053 0 0.02072 0.0001 0.03125 0 10.593 0.3617 20.868-6.6931 24.594-16.685h6.2812c-3.6047 11.917-13.791 20.961-26.312 22.543a1.0672 1.0812 0 0 0 -0.9375 1.0765v8.4851h-0.03125v1.0765h1.0938v-9.5616c13.444-1.6976 24.377-11.663 27.688-24.696h-8.4688c-3.3154 9.909-13.546 17.053-23.906 16.685-10.087 0.052-19.245-7.2676-22.656-16.685h-8.5312z" opacity="0.15"/>
  <path d="m44.264 971.34c-13.444 1.6976-24.377 11.663-27.688 24.696h0.3125c3.6108-12.526 14.286-22.03 27.375-23.682zm8.1875 0v1.0132c13.089 1.6528 23.764 11.157 27.375 23.682h0.3125c-3.3108-13.032-14.244-22.998-27.688-24.696zm-4.0938 14.691c-9.974 0-18.062 8.1545-18.062 18.3 0 0-0.0224 0.4378 0 1.0132 0-10.146 8.0885-18.3 18.062-18.3 7.0145 0 13.103 4.0532 16.094 9.9732h0.46875c-2.788-6.4592-9.159-10.986-16.562-10.986zm-9.5625 14.627c-0.16828 0.3358-0.33246 0.6642-0.46875 1.0132h27.75c0.25718 1.2738 0.29176 2.3575 0.3125 3.0077 0.0022-0.1174 0.03125-0.2302 0.03125-0.3482 0 0 0.01541-1.8938-0.34375-3.6727zm19.219 8.3586c-0.78637 1.6956-1.9804 3.2167-3.5 4.2741-4.1954 3.3559-10.551 2.1189-14.125-1.6463h-8.5625c0.14646 0.3393 0.30295 0.6849 0.46875 1.0131h8.0938c3.5738 3.7652 9.9296 5.0023 14.125 1.6464 1.8236-1.269 3.1888-3.1684 3.9375-5.2873zm-41.438 3.6093c0.0874 0.3439 0.21464 0.6737 0.3125 1.0132h8.2188c3.4117 9.4176 12.569 16.737 22.656 16.685 10.36 0.3681 20.591-6.7764 23.906-16.685h8.1562c0.09786-0.3395 0.22514-0.6693 0.3125-1.0132h-8.4688c-3.3154 9.909-13.546 17.053-23.906 16.685-10.087 0.052-19.245-7.2676-22.656-16.685z" opacity="0.3"/>
  <path d="m47.92 979.35c-10.094-0.0685-19.356 7.2785-22.844 16.685h-8.1875c-0.0979 0.33948-0.22514 0.66926-0.3125 1.0132h8.5c3.4882-9.4069 12.75-16.754 22.844-16.685 0.24474-0.007 0.47445-0.001 0.71875 0 3.6646 0.0221 7.2662 0.94357 10.531 2.5962 5.8811 2.6822 10.241 7.9857 12.375 14.089h8.5938c-0.08736-0.34389-0.21464-0.67367-0.3125-1.0132h-8.2812c-2.1339-6.1034-6.4939-11.407-12.375-14.089-3.2651-1.6526-6.8667-2.5741-10.531-2.5962-0.2443-0.001-0.47401-0.007-0.71875 0zm0.65625 14.026c-0.21619-0.004-0.40818 0.0211-0.625 0.0316-4.3328 0.0376-8.0637 3.2521-9.625 7.2504h0.46875c1.7594-3.5114 5.2017-6.2029 9.1562-6.2372 0.21682-0.0105 0.40881-0.0362 0.625-0.0316 2.9045 0.0597 5.7279 1.4725 7.6875 3.641h8.6562c-0.14646-0.33931-0.30295-0.68492-0.46875-1.0132h-8.1875c-1.9596-2.1685-4.783-3.5814-7.6875-3.641zm17.812 11.303c-0.18578 9.9422-8.1737 17.952-18.031 17.952-7.0145 0-13.072-4.0532-16.062-9.9733h-0.46875c2.788 6.4593 9.1278 10.986 16.531 10.986 9.974 0 18.062-8.195 18.062-18.3 0 0-0.02303-0.4071-0.03125-0.665zm-36.094 0.7599c-0.008 0.1384-0.0903 1.7202 0.40625 3.5778h27.312c0.15727-0.3392 0.31271-0.6601 0.4375-1.0132h-27.75c-0.25939-0.9704-0.37133-1.8924-0.40625-2.5646zm-13.719 8.2003c3.3108 13.032 14.244 22.998 27.688 24.696v-1.0132c-13.089-1.6528-23.764-11.157-27.375-23.682zm63.25 0c-3.6108 12.526-14.286 22.03-27.375 23.682v1.0132c13.444-1.6977 24.377-11.663 27.688-24.696z" fill="#fff" opacity="0.3"/>
  <path d="m5.7756 1033.9v1.0133c0 6.668 5.3434 12.032 11.985 12.032h60.809c6.6418 0 11.985-5.3645 11.985-12.032v-1.0133c0 6.6681-5.3434 12.032-11.985 12.032h-60.809c-6.6418 0-11.985-5.3644-11.985-12.032z" fill-opacity="0.098"/>
  <path d="m5.7756 1029.8v5.0663c0 6.668 5.3434 12.032 11.985 12.032h60.809c6.6418 0 11.985-5.3645 11.985-12.032v-5.0663c0 6.6681-5.3434 12.032-11.985 12.032h-60.809c-6.6418 0-11.985-5.3643-11.985-12.032z" fill-opacity="0.235"/>
 </g>
</svg>
