<?xml version="1.0" encoding="UTF-8" standalone="no"?>
<svg
   xmlns:dc="http://purl.org/dc/elements/1.1/"
   xmlns:cc="http://creativecommons.org/ns#"
   xmlns:rdf="http://www.w3.org/1999/02/22-rdf-syntax-ns#"
   xmlns:svg="http://www.w3.org/2000/svg"
   xmlns="http://www.w3.org/2000/svg"
   xmlns:xlink="http://www.w3.org/1999/xlink"
   xmlns:sodipodi="http://sodipodi.sourceforge.net/DTD/sodipodi-0.dtd"
   xmlns:inkscape="http://www.inkscape.org/namespaces/inkscape"
   height="96"
   width="96"
   id="svg193"
   version="1.1"
   inkscape:version="0.91 r13725"
   sodipodi:docname="gnome-app-install.svg">
  <metadata
     id="metadata506">
    <rdf:RDF>
      <cc:Work
         rdf:about="">
        <dc:format>image/svg+xml</dc:format>
        <dc:type
           rdf:resource="http://purl.org/dc/dcmitype/StillImage" />
      </cc:Work>
    </rdf:RDF>
  </metadata>
  <sodipodi:namedview
     pagecolor="#ffffff"
     bordercolor="#666666"
     borderopacity="1"
     objecttolerance="10"
     gridtolerance="10"
     guidetolerance="10"
     inkscape:pageopacity="0"
     inkscape:pageshadow="2"
     inkscape:window-width="640"
     inkscape:window-height="480"
     id="namedview504"
     showgrid="false"
     inkscape:zoom="2.4583333"
     inkscape:cx="48"
     inkscape:cy="48"
     inkscape:current-layer="svg193" />
  <defs
     id="defs195">
    <linearGradient
       x2="0"
       y1="20.221"
       y2="138.66"
       gradientUnits="userSpaceOnUse"
       id="linearGradient3613-94">
      <stop
         stop-color="#fff"
         id="stop198" />
      <stop
         stop-color="#fff"
         stop-opacity="0"
         offset="1"
         id="stop200" />
    </linearGradient>
    <filter
       x="-0.312"
       y="-0.426"
       height="1.853"
       color-interpolation-filters="sRGB"
       id="filter4362"
       width="1.623">
      <feGaussianBlur
         stdDeviation="6.21244"
         id="feGaussianBlur203" />
    </filter>
    <linearGradient
       xlink:href="#linearGradient3613-94"
       id="linearGradient3737-071" />
    <linearGradient
       id="linearGradient4295-1">
      <stop
         stop-color="#b88f56"
         id="stop207" />
      <stop
         stop-color="#d9bd98"
         offset="1"
         id="stop209" />
    </linearGradient>
    <linearGradient
       id="linearGradient4370">
      <stop
         stop-color="#8a5b30"
         id="stop212" />
      <stop
         stop-color="#8a5b30"
         stop-opacity="0"
         offset="1"
         id="stop214" />
    </linearGradient>
    <linearGradient
       id="linearGradient4414">
      <stop
         stop-color="#dac3a2"
         id="stop217" />
      <stop
         stop-color="#dac3a2"
         stop-opacity="0"
         offset="1"
         id="stop219" />
    </linearGradient>
    <linearGradient
       id="linearGradient3928">
      <stop
         stop-color="#3a240f"
         id="stop222" />
      <stop
         stop-color="#3a240f"
         stop-opacity="0"
         offset="1"
         id="stop224" />
    </linearGradient>
    <linearGradient
       x2="0"
       xlink:href="#linearGradient4370"
       y1="38.13"
       y2="71.877"
       gradientUnits="userSpaceOnUse"
       id="linearGradient241183" />
    <linearGradient
       x2="0"
       y1="90"
       y2="39.853"
       gradientUnits="userSpaceOnUse"
       id="linearGradient241185">
      <stop
         stop-color="#996c3b"
         id="stop228" />
      <stop
         stop-color="#c19e6d"
         offset="1"
         id="stop230" />
    </linearGradient>
    <radialGradient
       cy="73.15"
       r="42"
       gradientUnits="userSpaceOnUse"
       id="radialGradient241187"
       cx="48"
       gradientTransform="matrix(0.86776,0,0,0.09524,6.347,36.19)">
      <stop
         stop-color="#71461e"
         id="stop233" />
      <stop
         stop-color="#71461e"
         stop-opacity="0"
         offset="1"
         id="stop235" />
    </radialGradient>
    <linearGradient
       x2="0"
       xlink:href="#linearGradient4370"
       y1="38.13"
       y2="87.03"
       gradientUnits="userSpaceOnUse"
       id="linearGradient241189"
       gradientTransform="matrix(-1,0,0,1,96,0)" />
    <linearGradient
       x2="0"
       xlink:href="#linearGradient3613-94"
       y1="40.26"
       y2="89.67"
       gradientUnits="userSpaceOnUse"
       id="linearGradient241191"
       gradientTransform="matrix(-1,0,0,1,96,0)" />
    <linearGradient
       x2="0"
       xlink:href="#linearGradient3613-94"
       y1="40.26"
       y2="89.67"
       gradientUnits="userSpaceOnUse"
       id="linearGradient241193" />
    <linearGradient
       x1="47.08"
       x2="6.596"
       y1="32.783"
       y2="9.41"
       gradientUnits="userSpaceOnUse"
       id="linearGradient241195">
      <stop
         stop-color="#be9f6a"
         id="stop241" />
      <stop
         stop-color="#e5d2b2"
         offset="1"
         id="stop243" />
    </linearGradient>
    <linearGradient
       x1="48"
       x2="6.781"
       xlink:href="#linearGradient4295-1"
       y1="42"
       y2="18.202"
       gradientUnits="userSpaceOnUse"
       id="linearGradient241197" />
    <linearGradient
       x1="47.23"
       x2="6.33"
       xlink:href="#linearGradient4295-1"
       y1="29.04"
       y2="18.08"
       gradientUnits="userSpaceOnUse"
       id="linearGradient241199"
       gradientTransform="matrix(-1,0,0,1,96,0)" />
    <linearGradient
       x2="0"
       xlink:href="#linearGradient3928"
       y1="61.991"
       y2="4.667"
       gradientUnits="userSpaceOnUse"
       id="linearGradient241201" />
    <linearGradient
       x2="0"
       xlink:href="#linearGradient3928"
       y1="60.31"
       y2="6.02"
       gradientUnits="userSpaceOnUse"
       id="linearGradient241203" />
    <linearGradient
       x2="0"
       y1="19.882"
       y2="47.3"
       gradientUnits="userSpaceOnUse"
       id="linearGradient241205">
      <stop
         stop-color="#d8cab2"
         id="stop250" />
      <stop
         stop-color="#d2b98c"
         offset="0.457"
         id="stop252" />
      <stop
         stop-color="#f9f7ef"
         offset="0.486"
         id="stop254" />
      <stop
         stop-color="#fff"
         offset="0.491"
         id="stop256" />
      <stop
         stop-color="#fbf9f4"
         offset="0.492"
         id="stop258" />
      <stop
         stop-color="#efe7d0"
         offset="0.495"
         id="stop260" />
      <stop
         stop-color="#e4d6b0"
         offset="0.498"
         id="stop262" />
      <stop
         stop-color="#dac894"
         offset="0.501"
         id="stop264" />
      <stop
         stop-color="#c7a572"
         offset="0.505"
         id="stop266" />
      <stop
         stop-color="#d7c198"
         offset="1"
         id="stop268" />
    </linearGradient>
    <linearGradient
       x1="23.14"
       x2="66.964"
       xlink:href="#linearGradient3613-94"
       y1="42"
       y2="6"
       gradientUnits="userSpaceOnUse"
       id="linearGradient241207" />
    <linearGradient
       x2="0"
       xlink:href="#linearGradient4414"
       y1="44.04"
       y2="52.26"
       gradientUnits="userSpaceOnUse"
       id="linearGradient241209" />
    <linearGradient
       x2="0"
       xlink:href="#linearGradient4414"
       y1="44.04"
       y2="52.26"
       gradientUnits="userSpaceOnUse"
       id="linearGradient241211"
       gradientTransform="matrix(-1,0,0,1,96.09,0)" />
    <radialGradient
       cy="90.17"
       r="42"
       xlink:href="#linearGradient3613-94"
       gradientUnits="userSpaceOnUse"
       id="radialGradient241213"
       cx="48"
       gradientTransform="matrix(1.1573,0,0,0.99591,-7.551,0.197)" />
    <clipPath
       clipPathUnits="userSpaceOnUse"
       id="clipPath241306">
      <path
         d="m15.537 967.91c-6.4562 0-11.634 5.145-11.634 11.504v58.208c0 6.3596 5.1781 11.475 11.634 11.475h59.113c6.4562 0 11.634-5.1151 11.634-11.475v-58.208c0-6.3595-5.1781-11.504-11.634-11.504h-59.113z"
         id="path275" />
    </clipPath>
    <clipPath
       id="clipPath3871-0">
      <path
         d="m0 96v60h96v-60h-96zm68 20c9.9411 0 18 8.0589 18 18s-8.0589 18-18 18-18-8.0589-18-18 8.0589-18 18-18z"
         id="path278" />
    </clipPath>
    <clipPath
       id="clipPath3894">
      <path
         d="m128 56c-9.9411 0-18 8.0589-18 18s8.0589 18 18 18 18-8.0589 18-18-8.0589-18-18-18zm-6 4.5h12v13.75h5l-11 13.75-11-13.75h5v-13.75z"
         id="path281" />
    </clipPath>
    <linearGradient
       x1="51.43"
       x2="90.71"
       gradientUnits="userSpaceOnUse"
       id="linearGradient8788">
      <stop
         stop-color="#499119"
         id="stop284" />
      <stop
         stop-color="#8fd625"
         offset="1"
         id="stop286" />
    </linearGradient>
    <linearGradient
       x2="0"
       y1="75.79"
       y2="59.879"
       gradientUnits="userSpaceOnUse"
       id="linearGradient8790">
      <stop
         id="stop289" />
      <stop
         stop-opacity="0"
         offset="1"
         id="stop291" />
    </linearGradient>
    <linearGradient
       x2="0"
       xlink:href="#linearGradient3613-94"
       y1="64.2"
       y2="43.78"
       gradientUnits="userSpaceOnUse"
       id="linearGradient8796"
       gradientTransform="matrix(0.625,0,0,0.625,25.5,33.25)" />
    <linearGradient
       x2="0"
       xlink:href="#linearGradient3613-94"
       y1="55.31"
       y2="84.89"
       gradientUnits="userSpaceOnUse"
       id="linearGradient8798"
       gradientTransform="translate(-2,0)" />
    <rect
       x="6"
       rx="6"
       y="6"
       fill="url(#linearGradient241185)"
       height="84"
       id="SVGCleanerId_0"
       width="84" />
    <linearGradient
       inkscape:collect="always"
       xlink:href="#linearGradient8790"
       id="linearGradient11707"
       gradientUnits="userSpaceOnUse"
       y1="75.79"
       x2="0"
       y2="59.879" />
    <linearGradient
       inkscape:collect="always"
       xlink:href="#linearGradient8790"
       id="linearGradient11709"
       gradientUnits="userSpaceOnUse"
       y1="75.79"
       x2="0"
       y2="59.879" />
    <linearGradient
       inkscape:collect="always"
       xlink:href="#linearGradient8790"
       id="linearGradient11711"
       gradientUnits="userSpaceOnUse"
       y1="75.79"
       x2="0"
       y2="59.879" />
    <linearGradient
       inkscape:collect="always"
       xlink:href="#linearGradient14231"
       id="linearGradient14237"
       x1="50.707542"
       y1="81.682442"
       x2="50.707542"
       y2="96.539803"
       gradientUnits="userSpaceOnUse" />
    <linearGradient
       inkscape:collect="always"
       id="linearGradient14231">
      <stop
         style="stop-color:#000000;stop-opacity:1;"
         offset="0"
         id="stop14233" />
      <stop
         style="stop-color:#000000;stop-opacity:0;"
         offset="1"
         id="stop14235" />
    </linearGradient>
    <linearGradient
       inkscape:collect="always"
       xlink:href="#linearGradient14239"
       id="linearGradient14245"
       x1="49.876652"
       y1="87.937508"
       x2="49.876652"
       y2="76.719681"
       gradientUnits="userSpaceOnUse" />
    <linearGradient
       inkscape:collect="always"
       id="linearGradient14239">
      <stop
         style="stop-color:#ffffff;stop-opacity:1;"
         offset="0"
         id="stop14241" />
      <stop
         style="stop-color:#ffffff;stop-opacity:0;"
         offset="1"
         id="stop14243" />
    </linearGradient>
  </defs>
  <rect
     style="fill-opacity:0.02000002"
     id="rect298"
     width="89.620003"
     height="89.980003"
     y="2.9899757"
     rx="12.724"
     x="3.3529999" />
  <rect
     style="fill-opacity:0.03900003"
     id="rect300"
     width="88.410004"
     height="88.760002"
     y="3.6000221"
     rx="12.552"
     x="3.9590001" />
  <rect
     style="fill-opacity:0.078"
     id="rect302"
     width="87.199997"
     height="87.550003"
     y="4.2100072"
     rx="12.38"
     x="4.5640001" />
  <rect
     style="fill-opacity:0.15700001"
     id="rect304"
     width="85.990997"
     height="86.330002"
     y="4.8199925"
     rx="12.208"
     x="5.1700001" />
  <g
     id="g306"
     transform="matrix(1.0287,0,0,1.0485,1.767,-1009.45)"
     clip-path="url(#clipPath241306)">
    <g
       id="g308"
       transform="translate(-2.904,959.99)">
      <path
         inkscape:connector-curvature="0"
         style="fill:url(#linearGradient241183)"
         id="path310"
         d="m 6,36 0,48 c 0,1.7818 0.77457,3.3717 2,4.4688 l 0,-52.469 -2,0 z" />
      <use
         height="100%"
         width="100%"
         y="0"
         x="0"
         id="use312"
         xlink:href="#SVGCleanerId_0" />
      <path
         inkscape:connector-curvature="0"
         style="fill:url(#radialGradient241187)"
         id="path314"
         d="m 6,36 0,2 c 0,3.324 2.676,6 6,6 l 72,0 c 3.324,0 6,-2.676 6,-6 l 0,-2 c 0,3.324 -2.676,6 -6,6 L 12,42 C 8.676,42 6,39.324 6,36 Z" />
      <path
         inkscape:connector-curvature="0"
         style="fill:url(#linearGradient241189)"
         id="path316"
         d="m 90,36 0,48 c 0,1.7818 -0.77457,3.3717 -2,4.4688 l 0,-52.469 2,0 z" />
      <rect
         style="fill:#3c2510"
         id="rect318"
         width="84"
         height="24"
         y="18"
         rx="6"
         x="6" />
      <path
         inkscape:connector-curvature="0"
         style="opacity:0.3;fill:url(#linearGradient241191)"
         id="path320"
         d="m 88,36 0,52.469 c -0.57686,0.51642 -1.2549,0.92309 -2,1.1875 l 0,-53.656 2,0 z" />
      <path
         inkscape:connector-curvature="0"
         style="opacity:0.3;fill:url(#linearGradient241193)"
         id="path322"
         d="m 8,36 0,52.469 c 0.57686,0.51642 1.2549,0.92309 2,1.1875 l 0,-53.656 -2,0 z" />
      <path
         inkscape:connector-curvature="0"
         style="fill:url(#linearGradient241195)"
         id="path324"
         d="M 12,6 C 8.7734,6 6,8.2593 6,13 L 6,15 6,35.656 48,35.691 48,6 14,6 12,6 Z" />
      <rect
         style="opacity:0.3;fill:#dac7a8;filter:url(#filter4362)"
         id="rect326"
         transform="matrix(1,0,0,0.8556,10,8.584)"
         width="47.855999"
         height="34.977001"
         y="41.957001"
         rx="6"
         x="12.753" />
      <path
         inkscape:connector-curvature="0"
         style="fill:url(#linearGradient241197)"
         id="path328"
         d="M 12,6 C 8.676,6 6,8.676 6,12 l 0,24 c 0,3.324 2.676,6 6,6 L 48,40 48,4 12,6 Z" />
      <path
         style="opacity:0.5;fill:#3a240f"
         inkscape:connector-curvature="0"
         id="path330"
         d="M 54.12,7 42,7 42.06,31.062 42.195,60 l 5.6868,-0.49473 6.0439,-0.52533 0.03264,-5.5512 0.10201,-22.367 0.06018,-24.062 z" />
      <path
         inkscape:connector-curvature="0"
         style="fill:url(#linearGradient241199)"
         id="path332"
         d="m 84,6 c 3.324,0 6,2.676 6,6 l 0,24 c 0,3.324 -2.676,6 -6,6 L 48,40 48,4 84,6 Z" />
      <path
         inkscape:connector-curvature="0"
         style="opacity:0.1;fill:url(#linearGradient241201)"
         id="path334"
         d="m 41.688,5.125 c 0.0042,-7.112e-4 -0.19165,0.032337 -0.1875,0.03125 0.0042,-0.00109 -0.16029,0.063954 -0.15625,0.0625 0.004,-0.00145 -0.16014,0.064309 -0.15625,0.0625 0.0039,-0.00181 -0.12871,0.06465 -0.125,0.0625 0.0037,-0.00215 -0.15976,0.096223 -0.15625,0.09375 0.0035,-0.00247 -0.12827,0.12778 -0.125,0.125 0.0033,-0.00278 -0.12801,0.096809 -0.125,0.09375 0.003,-0.00306 -0.12772,0.12832 -0.125,0.125 0.0027,-0.00332 -0.09617,0.1598 -0.09375,0.15625 0.0024,-0.00355 -0.09584,0.12875 -0.09375,0.125 0.0021,-0.00375 -0.06424,0.16017 -0.0625,0.15625 0.0017,-0.00392 -0.06389,0.16031 -0.0625,0.15625 0.0014,-0.00406 -0.03227,0.16042 -0.03125,0.15625 10e-4,-0.00417 -0.06314,0.16049 -0.0625,0.15625 6.42e-4,-0.00424 -2.6e-4,0.19178 0,0.1875 2.08e-4,-0.00343 7.69e-4,0.08233 0,0.125 l 0,0.03125 0.062,24.031 0.124,28.938 a 1.0058,1.0058 0 0 0 0,0.03125 c -4.2e-5,-0.0025 1.68e-4,0.0962 0,0.09375 -1.68e-4,-0.0025 2.94e-4,0.09619 0,0.09375 -2.94e-4,-0.0024 0.03167,0.09617 0.03125,0.09375 -4.19e-4,-0.0024 5.42e-4,0.09615 0,0.09375 -5.42e-4,-0.0024 0.03191,0.09611 0.03125,0.09375 -6.64e-4,-0.0024 0.03204,0.09608 0.03125,0.09375 -7.85e-4,-0.0023 0.03215,0.06479 0.03125,0.0625 -9.03e-4,-0.0023 0.03227,0.09599 0.03125,0.09375 -0.001,-0.0022 0.06363,0.09593 0.0625,0.09375 -0.0011,-0.0022 0.03249,0.09587 0.03125,0.09375 -0.0012,-0.0021 0.06385,0.06455 0.0625,0.0625 -0.0014,-0.0021 0.0327,0.09573 0.03125,0.09375 -0.0015,-0.002 0.06405,0.0644 0.0625,0.0625 -0.0016,-0.0019 0.06415,0.09557 0.0625,0.09375 -0.0016,-0.0018 0.06424,0.06423 0.0625,0.0625 -0.0017,-0.0017 0.09558,0.06414 0.09375,0.0625 -0.0018,-0.0016 0.06441,0.06405 0.0625,0.0625 -0.0019,-0.0015 0.06448,0.06395 0.0625,0.0625 -0.002,-0.0014 0.09581,0.06384 0.09375,0.0625 -0.0021,-0.0013 0.06462,0.03249 0.0625,0.03125 -0.0021,-0.0012 0.09593,0.06363 0.09375,0.0625 -0.0022,-0.0011 0.09599,0.03226 0.09375,0.03125 -0.0022,-10e-4 0.09604,0.03215 0.09375,0.03125 -0.0023,-8.97e-4 0.09608,0.03203 0.09375,0.03125 -0.0023,-7.79e-4 0.09612,0.03191 0.09375,0.03125 -0.0024,-6.58e-4 0.09615,0.03179 0.09375,0.03125 -0.0024,-5.36e-4 0.09617,4.12e-4 0.09375,0 -0.0024,-4.12e-4 0.09619,0.03154 0.09375,0.03125 -0.0024,-2.88e-4 0.0962,1.62e-4 0.09375,0 -0.0025,-1.62e-4 0.09621,3.6e-5 0.09375,0 -0.0025,-3.6e-5 0.0962,-9e-5 0.09375,0 -0.0025,9e-5 0.0962,-2.16e-4 0.09375,0 l 5.6875,-0.5 6.0312,-0.53125 c -8.93e-4,5.1e-5 0.02019,0.0012 0.03125,0 0.04424,-0.0047 0.12854,-5.37e-4 0.125,0 -0.0044,6.71e-4 0.19184,-0.06358 0.1875,-0.0625 -0.0043,0.0011 0.16047,-0.03273 0.15625,-0.03125 -0.0042,0.0015 0.16031,-0.06437 0.15625,-0.0625 -0.0041,0.0019 0.16012,-0.09599 0.15625,-0.09375 -0.0039,0.0022 0.1599,-0.09634 0.15625,-0.09375 -0.0036,0.0026 0.12839,-0.09667 0.125,-0.09375 -0.0034,0.0029 0.1281,-0.12822 0.125,-0.125 -0.0031,0.0032 0.12779,-0.1285 0.125,-0.125 -0.0028,0.0035 0.0962,-0.15999 0.09375,-0.15625 -0.0025,0.0037 0.09584,-0.1602 0.09375,-0.15625 -0.0021,0.004 0.09546,-0.16038 0.09375,-0.15625 -0.0017,0.0041 0.06382,-0.16052 0.0625,-0.15625 -0.0013,0.0043 0.03217,-0.16063 0.03125,-0.15625 -9.16e-4,0.0044 0.03175,-0.19194 0.03125,-0.1875 -5.04e-4,0.0044 8.7e-5,-0.16072 0,-0.15625 a 1.0058,1.0058 0 0 0 0,-0.03125 l 0.031,-5.531 0.094,-22.376 L 55.99845,7 c -7.3e-5,0.00479 -4.06e-4,-0.16103 0,-0.15625 4.06e-4,0.00478 -0.03213,-0.19221 -0.03125,-0.1875 8.81e-4,0.00471 -0.0326,-0.1921 -0.03125,-0.1875 0.0013,0.0046 -0.0643,-0.19194 -0.0625,-0.1875 0.0018,0.00444 -0.09599,-0.16049 -0.09375,-0.15625 0.0022,0.00424 -0.0964,-0.16025 -0.09375,-0.15625 0.0026,0.004 -0.09678,-0.15996 -0.09375,-0.15625 0.003,0.00371 -0.12839,-0.15964 -0.125,-0.15625 0.0034,0.00339 -0.15996,-0.12803 -0.15625,-0.125 0.004,0.0029 -0.16,-0.0965 -0.156,-0.0939 0.004,0.0027 -0.16,-0.096 -0.156,-0.0937 0.004,0.0022 -0.161,-0.0956 -0.156,-0.0938 0.0044,0.0018 -0.1921,-0.063848 -0.1875,-0.0625 0.0046,0.00135 -0.19221,-0.032132 -0.1875,-0.03125 0.0047,8.815e-4 -0.19228,-0.031656 -0.1875,-0.03125 0.0048,4.063e-4 -0.16104,7.3e-5 -0.15625,0 l -12.031,0 c 0.0026,2.364e-4 -0.04386,0.00229 -0.09375,0 -0.03326,-0.00153 -0.06424,0 -0.0625,0 0.0043,0 -0.19183,3.94e-4 -0.1875,0 a 1.0058,1.0058 0 0 0 -0.0625,0 z" />
      <path
         inkscape:connector-curvature="0"
         style="opacity:0.2;fill:url(#linearGradient241203)"
         id="path336"
         d="M 42,6.125 A 0.86198,0.86198 0 0 0 41.125,7 L 41.188,31.062 41.312,60 a 0.86198,0.86198 0 0 0 0.9375,0.84375 l 5.6875,-0.5 6.062,-0.532 A 0.86198,0.86198 0 0 0 54.8115,58.968 l 0.032,-5.53 0.094,-22.376 L 54.9995,7 a 0.86198,0.86198 0 0 0 -0.875,-0.875 l -12.125,0 z" />
      <path
         inkscape:connector-curvature="0"
         style="fill:url(#linearGradient241205)"
         id="path338"
         transform="matrix(1.0201,0,0,1.0201,-5.298,5.756)"
         d="m 58.191,-1.3603 -5.941,-0.4332 -5.941,0.4332 0.059,25.188 0.132,28.369 5.575,-0.485 5.925,-0.515 0.032,-5.442 0.1,-21.927 0.059,-25.188 z" />
      <path
         inkscape:connector-curvature="0"
         style="opacity:0.3;fill:url(#linearGradient241207)"
         id="path340"
         d="M 12,6 C 8.676,6 6,8.676 6,12 l 0,24 c 0,3.324 2.676,6 6,6 l 36,-2 36,2 c 3.324,0 6,-2.676 6,-6 L 90,12 C 90,8.676 87.324,6 84,6 L 48,4 12,6 Z m 0,2 36,-2 36,2 c 2.2458,0 4,1.7542 4,4 l 0,24 c 0,2.2458 -1.7542,4 -4,4 L 48,38 12,40 C 9.7542,40 8,38.246 8,36 L 8,12 C 8,9.7542 9.7542,8 12,8 Z" />
      <rect
         style="opacity:0.2;fill:#8d6137"
         id="rect342"
         width="1"
         height="35.714001"
         y="4.125"
         x="47" />
      <rect
         style="opacity:0.2;fill:#ffffff"
         id="rect344"
         width="1"
         height="35.714001"
         y="4.125"
         x="48" />
      <path
         inkscape:connector-curvature="0"
         style="fill:url(#linearGradient241209);fill-rule:evenodd"
         id="path346"
         d="m 6.1872,37.285 c 2.3991,5.5558 1.894,16.036 1.894,16.036 L 9.9121,53.069 C 9.6596,44.861 10.354,41.831 14.9,41.704 7.7308,40.509 6.1872,37.285 6.1872,37.285 Z" />
      <path
         inkscape:connector-curvature="0"
         style="fill:url(#linearGradient241211);fill-rule:evenodd"
         id="path348"
         d="m 89.9,37.285 c -2.3991,5.5558 -1.894,16.036 -1.894,16.036 L 86.175,53.069 C 86.427,44.861 85.733,41.831 81.187,41.704 88.356,40.509 89.9,37.285 89.9,37.285 Z" />
      <path
         inkscape:connector-curvature="0"
         style="opacity:0.2;fill:url(#radialGradient241213)"
         id="path350"
         d="M 12,90 C 8.676,90 6,87.324 6,84 L 6,82 6,14 6,12 c 0,-0.33472 0.04135,-0.6507 0.09375,-0.96875 0.0487,-0.2956 0.09704,-0.59692 0.1875,-0.875 0.0099,-0.03 0.0209,-0.063 0.0313,-0.094 0.0989,-0.2873 0.2349,-0.547 0.375,-0.812 0.1446,-0.2735 0.3156,-0.5356 0.5,-0.7812 0.1844,-0.2457 0.3738,-0.4735 0.5937,-0.6876 0.44,-0.428 0.943,-0.8145 1.5,-1.0937 0.2786,-0.1396 0.5735,-0.2469 0.8748,-0.3437 -0.256,0.1002 -0.4865,0.2362 -0.7185,0.375 -0.00741,0.0044 -0.023866,-0.0045 -0.03125,0 -0.031933,0.0193 -0.062293,0.04251 -0.09375,0.0625 -0.1204,0.0767 -0.23102,0.16351 -0.34375,0.25 -0.10617,0.0808 -0.21328,0.16111 -0.3125,0.25 -0.1779,0.1614 -0.3474,0.3453 -0.5,0.5312 -0.1075,0.1303 -0.2183,0.2653 -0.3124,0.4063 -0.0251,0.0383 -0.0385,0.0858 -0.0626,0.125 -0.0647,0.103 -0.1302,0.2045 -0.1874,0.3124 -0.1011,0.1948 -0.2057,0.4158 -0.2813,0.625 -0.008,0.0219 -0.0236,0.0406 -0.0313,0.0626 -0.0318,0.0919 -0.0358,0.1868 -0.0624,0.2812 -0.0304,0.1066 -0.0704,0.203 -0.0938,0.3125 -0.0729,0.3415 -0.125,0.6985 -0.125,1.0625 l 0,2 0,68 0,2 c 0,2.7818 2.2182,5 5,5 l 2,0 68,0 2,0 c 2.7818,0 5,-2.2182 5,-5 l 0,-2 0,-68 0,-2 c 0,-0.364 -0.052,-0.721 -0.125,-1.0625 -0.044,-0.2069 -0.088,-0.3977 -0.156,-0.5937 -0.008,-0.022 -0.024,-0.0407 -0.031,-0.0626 -0.063,-0.1737 -0.139,-0.3674 -0.219,-0.5312 -0.042,-0.0828 -0.079,-0.17 -0.125,-0.25 -0.055,-0.0972 -0.127,-0.1884 -0.188,-0.2812 -0.094,-0.141 -0.205,-0.276 -0.312,-0.4063 -0.143,-0.1745 -0.303,-0.347 -0.469,-0.5 -0.011,-0.0102 -0.02,-0.0211 -0.031,-0.0313 -0.139,-0.1255 -0.285,-0.2344 -0.438,-0.3437 -0.102,-0.0731 -0.204,-0.1534 -0.312,-0.2187 -0.0074,-0.0045 -0.02384,0.0044 -0.03125,0 -0.23204,-0.13873 -0.46255,-0.27478 -0.71875,-0.375 0.30153,0.0968 0.59646,0.20414 0.875,0.34375 0.55709,0.27922 1.0601,0.66569 1.5,1.0938 0.21997,0.21403 0.40937,0.44186 0.59375,0.6875 0.18438,0.24564 0.35541,0.50774 0.5,0.78125 0.14012,0.26505 0.27614,0.52473 0.375,0.8125 0.01041,0.03078 0.02133,0.06274 0.03125,0.09375 0.09046,0.27808 0.1388,0.5794 0.1875,0.875 0.053,0.318 0.094,0.634 0.094,0.969 l 0,2 0,68 0,2 c 0,3.324 -2.676,6 -6,6 l -72,0 z" />
    </g>
    <g
       id="g352"
       transform="translate(-2.904,959.99)">
      <g
         id="g354"
         transform="translate(0,-2)">
        <rect
           style="fill:none;stroke:#825023"
           id="rect356"
           width="14"
           height="19"
           y="49.5"
           ry="2"
           rx="1.867"
           x="15.5" />
        <path
           style="fill:#825023"
           inkscape:connector-curvature="0"
           id="path358"
           d="m 18.25,66 0,-9.25 -1.25,0 2.5,-4.75 2.5,4.75 -1.25,0 0,9.25 -2.5,0 z" />
        <path
           style="fill:#825023"
           inkscape:connector-curvature="0"
           id="path360"
           d="m 24.25,66 0,-9.25 -1.25,0 2.5,-4.75 2.5,4.75 -1.25,0 0,9.25 -2.5,0 z" />
      </g>
      <g
         style="fill:#553417"
         id="g362">
        <path
           inkscape:connector-curvature="0"
           id="path364"
           d="m 15.148,74.082 1.0937,0 0,0.30762 -0.64941,0 0,0.25 0.55469,0 0,0.28906 -0.55469,0 0,0.58496 -0.44434,0 0,-1.4316" />
        <path
           inkscape:connector-curvature="0"
           id="path366"
           d="m 17.176,75.278 -0.50391,0 -0.06934,0.23633 -0.45215,0 0.53809,-1.4316 0.48242,0 0.53809,1.4316 -0.46289,0 L 17.176,75.278 m -0.09277,-0.30957 -0.1582,-0.51465 -0.15723,0.51465 0.31543,0" />
        <path
           inkscape:connector-curvature="0"
           id="path368"
           d="m 17.849,74.082 1.1855,0 0,0.30566 -0.74219,0 0,0.22754 0.68848,0 0,0.29199 -0.68848,0 0,0.28223 0.76367,0 0,0.32422 -1.207,0 0,-1.4316" />
        <path
           inkscape:connector-curvature="0"
           id="path370"
           d="m 19.298,74.082 0.41308,0 0.53906,0.79199 0,-0.79199 0.41699,0 0,1.4316 -0.41699,0 -0.53613,-0.78613 0,0.78613 -0.41602,0 0,-1.4316" />
        <path
           inkscape:connector-curvature="0"
           id="path372"
           d="m 20.927,74.082 1.252,0 0,0.28613 -0.80273,0.83789 0.83203,0 0,0.30762 -1.3584,0 0,-0.29688 0.79395,-0.8291 -0.7168,0 0,-0.30566" />
        <path
           inkscape:connector-curvature="0"
           id="path374"
           d="m 23.289,75.278 -0.50391,0 -0.06934,0.23633 -0.45215,0 0.53809,-1.4316 0.48242,0 0.53809,1.4316 -0.46289,0 L 23.289,75.278 m -0.09277,-0.30957 -0.1582,-0.51465 -0.15723,0.51465 0.31543,0" />
      </g>
      <g
         style="fill:#553417"
         id="g376">
        <path
           inkscape:connector-curvature="0"
           id="path378"
           d="m 15.11,81.514 0,-1.0737 0.14209,0 0,0.53247 0.5332,-0.53247 0.19263,0 -0.45044,0.43506 0.47022,0.63867 -0.1875,0 -0.38232,-0.54346 -0.17578,0.17139 0,0.37207 -0.14209,0" />
        <path
           inkscape:connector-curvature="0"
           id="path380"
           d="m 16.633,81.263 0.13623,0.01685 c -0.02149,0.07959 -0.06128,0.14136 -0.11938,0.1853 -0.05811,0.04395 -0.13232,0.06592 -0.22266,0.06592 -0.11377,0 -0.2041,-0.03491 -0.271,-0.10474 -0.06641,-0.07031 -0.09961,-0.1687 -0.09961,-0.29517 0,-0.13086 0.03369,-0.23242 0.10107,-0.30469 0.06738,-0.07226 0.15478,-0.1084 0.26221,-0.1084 0.104,10e-7 0.18896,0.0354 0.25488,0.1062 0.06592,0.0708 0.09888,0.17041 0.09888,0.29883 -1e-6,0.0078 -2.45e-4,0.01953 -7.33e-4,0.03516 l -0.58008,0 c 0.0049,0.08545 0.02905,0.15088 0.07251,0.19629 0.04346,0.04541 0.09766,0.06812 0.1626,0.06812 0.04834,0 0.0896,-0.0127 0.12378,-0.03809 0.03418,-0.02539 0.06128,-0.06592 0.0813,-0.12158 m -0.43286,-0.21314 0.43433,0 c -0.0059,-0.06543 -0.02246,-0.1145 -0.0498,-0.14722 -0.04199,-0.05078 -0.09644,-0.07617 -0.16333,-0.07617 -0.06055,10e-7 -0.11157,0.02026 -0.15308,0.06079 -0.04102,0.04053 -0.06372,0.09473 -0.06812,0.1626" />
        <path
           inkscape:connector-curvature="0"
           id="path382"
           d="m 17.468,81.263 0.13623,0.01685 c -0.02149,0.07959 -0.06128,0.14136 -0.11938,0.1853 -0.05811,0.04395 -0.13232,0.06592 -0.22266,0.06592 -0.11377,0 -0.2041,-0.03491 -0.271,-0.10474 -0.06641,-0.07031 -0.09961,-0.1687 -0.09961,-0.29517 0,-0.13086 0.03369,-0.23242 0.10107,-0.30469 0.06738,-0.07226 0.15478,-0.1084 0.26221,-0.1084 0.104,10e-7 0.18896,0.0354 0.25488,0.1062 0.06592,0.0708 0.09888,0.17041 0.09888,0.29883 -10e-7,0.0078 -2.45e-4,0.01953 -7.33e-4,0.03516 l -0.58008,0 c 0.0049,0.08545 0.02905,0.15088 0.07251,0.19629 0.04346,0.04541 0.09766,0.06812 0.1626,0.06812 0.04834,0 0.0896,-0.0127 0.12378,-0.03809 0.03418,-0.02539 0.06128,-0.06592 0.0813,-0.12158 m -0.43286,-0.21314 0.43433,0 c -0.0059,-0.06543 -0.02246,-0.1145 -0.0498,-0.14722 -0.04199,-0.05078 -0.09644,-0.07617 -0.16333,-0.07617 -0.06055,10e-7 -0.11157,0.02026 -0.15308,0.06079 -0.04102,0.04053 -0.06372,0.09473 -0.06812,0.1626" />
        <path
           inkscape:connector-curvature="0"
           id="path384"
           d="m 17.771,81.812 0,-1.0759 0.12012,0 0,0.10107 c 0.02832,-0.03955 0.0603,-0.06909 0.09595,-0.08862 0.03564,-0.02002 0.07886,-0.03003 0.12964,-0.03003 0.06641,10e-7 0.125,0.01709 0.17578,0.05127 0.05078,0.03418 0.08911,0.08252 0.11499,0.14502 0.02588,0.06201 0.03882,0.13013 0.03882,0.20435 -1e-6,0.07959 -0.01441,0.15137 -0.04321,0.21533 -0.02832,0.06348 -0.06983,0.1123 -0.12451,0.14648 -0.0542,0.03369 -0.11133,0.05054 -0.17139,0.05054 -0.04395,0 -0.0835,-0.0093 -0.11865,-0.02783 -0.03467,-0.01855 -0.06323,-0.04199 -0.08569,-0.07031 l 0,0.37866 -0.13184,0 m 0.11938,-0.68262 c 0,0.1001 0.02026,0.17407 0.06079,0.22192 0.04053,0.04785 0.0896,0.07178 0.14722,0.07178 0.05859,0 0.10864,-0.02466 0.15015,-0.07398 0.04199,-0.0498 0.06299,-0.12671 0.06299,-0.23071 0,-0.09912 -0.02051,-0.17334 -0.06152,-0.22266 -0.04053,-0.04932 -0.08911,-0.07397 -0.14575,-0.07398 -0.05615,10e-7 -0.10596,0.02637 -0.14941,0.0791 -0.04297,0.05225 -0.06445,0.12842 -0.06445,0.22852" />
        <path
           inkscape:connector-curvature="0"
           id="path386"
           d="m 19.022,80.592 0,-0.15161 0.13184,0 0,0.15161 -0.13184,0 m 0,0.92212 0,-0.77783 0.13184,0 0,0.77783 -0.13184,0" />
        <path
           inkscape:connector-curvature="0"
           id="path388"
           d="m 19.356,81.514 0,-0.77783 0.11865,0 0,0.1106 c 0.05713,-0.08545 0.13965,-0.12817 0.24756,-0.12817 0.04687,1e-6 0.08984,0.0085 0.12891,0.02564 0.03955,0.0166 0.06909,0.03857 0.08862,0.06592 0.01953,0.02734 0.0332,0.05982 0.04102,0.09741 0.0049,0.02441 0.0073,0.06714 0.0073,0.12817 l 0,0.47827 -0.13184,0 0,-0.47314 c -1e-6,-0.05371 -0.0051,-0.09375 -0.01538,-0.12012 -0.01025,-0.02685 -0.02857,-0.0481 -0.05493,-0.06372 -0.02588,-0.01611 -0.0564,-0.02417 -0.09155,-0.02417 -0.05615,0 -0.10474,0.01782 -0.14575,0.05347 -0.04053,0.03565 -0.06079,0.10327 -0.06079,0.20288 l 0,0.4248 -0.13184,0" />
        <path
           inkscape:connector-curvature="0"
           id="path390"
           d="m 21.114,81.418 c -0.04883,0.0415 -0.09595,0.0708 -0.14136,0.08789 -0.04492,0.01709 -0.09326,0.02563 -0.14502,0.02563 -0.08545,0 -0.15112,-0.02075 -0.19702,-0.06226 -0.0459,-0.04199 -0.06885,-0.09546 -0.06885,-0.1604 0,-0.03809 0.0085,-0.07275 0.02563,-0.104 0.01758,-0.03174 0.04028,-0.05713 0.06812,-0.07617 0.02832,-0.01904 0.06006,-0.03345 0.09521,-0.04321 0.02588,-0.0068 0.06494,-0.01343 0.11719,-0.01977 0.10644,-0.0127 0.18481,-0.02783 0.23511,-0.04541 4.88e-4,-0.01807 7.32e-4,-0.02954 7.33e-4,-0.03442 -1e-6,-0.05371 -0.01245,-0.09155 -0.03735,-0.11352 -0.03369,-0.02979 -0.08374,-0.04468 -0.15015,-0.04468 -0.06201,10e-7 -0.10791,0.01099 -0.1377,0.03296 -0.0293,0.02148 -0.05103,0.05982 -0.06519,0.11499 l -0.12891,-0.01758 c 0.01172,-0.05517 0.03101,-0.09961 0.05786,-0.1333 0.02686,-0.03418 0.06567,-0.0603 0.11646,-0.07837 0.05078,-0.01855 0.10962,-0.02783 0.17651,-0.02783 0.06641,1e-6 0.12036,0.0078 0.16186,0.02344 0.0415,0.01563 0.07202,0.0354 0.09155,0.05933 0.01953,0.02344 0.0332,0.05322 0.04102,0.08935 0.0044,0.02246 0.0066,0.06299 0.0066,0.12158 l 0,0.17578 c 0,0.12256 0.0027,0.2002 0.0081,0.23291 0.0059,0.03223 0.01709,0.06323 0.03369,0.09302 l -0.1377,0 c -0.01367,-0.02734 -0.02246,-0.05933 -0.02637,-0.09595 m -0.01099,-0.29443 c -0.04785,0.01953 -0.11963,0.03613 -0.21533,0.04981 -0.0542,0.0078 -0.09253,0.0166 -0.11499,0.02637 -0.02246,0.0098 -0.0398,0.02417 -0.052,0.04321 -0.01221,0.01855 -0.01831,0.03931 -0.01831,0.06226 0,0.03516 0.01318,0.06445 0.03955,0.08789 0.02686,0.02344 0.06592,0.03516 0.11719,0.03516 0.05078,0 0.09595,-0.01099 0.1355,-0.03296 0.03955,-0.02246 0.0686,-0.05298 0.08716,-0.09155 0.01416,-0.02978 0.02124,-0.07373 0.02124,-0.13184 l 0,-0.04834" />
        <path
           inkscape:connector-curvature="0"
           id="path392"
           d="m 21.805,81.282 0.13037,-0.02051 c 0.0073,0.05225 0.02759,0.09229 0.06079,0.12012 0.03369,0.02783 0.08057,0.04175 0.14062,0.04175 0.06055,0 0.10547,-0.01221 0.13476,-0.03662 0.0293,-0.0249 0.04395,-0.05395 0.04395,-0.08716 -1e-6,-0.02979 -0.01294,-0.05322 -0.03882,-0.07031 -0.01807,-0.01172 -0.06299,-0.02661 -0.13476,-0.04468 -0.09668,-0.02441 -0.16382,-0.04541 -0.20142,-0.06299 -0.03711,-0.01807 -0.06543,-0.04272 -0.08496,-0.07398 -0.01904,-0.03174 -0.02857,-0.06665 -0.02857,-0.10474 0,-0.03467 0.0078,-0.06665 0.02344,-0.09595 0.01611,-0.02978 0.03784,-0.05444 0.06518,-0.07397 0.02051,-0.01514 0.04834,-0.02783 0.0835,-0.03809 0.03564,-0.01074 0.07373,-0.01611 0.11426,-0.01611 0.06104,10e-7 0.1145,0.0088 0.1604,0.02637 0.04639,0.01758 0.08057,0.04151 0.10254,0.07178 0.02197,0.02979 0.03711,0.06982 0.04541,0.12012 l -0.12891,0.01758 c -0.0059,-0.04004 -0.02295,-0.07129 -0.05127,-0.09375 -0.02783,-0.02246 -0.06738,-0.03369 -0.11865,-0.03369 -0.06055,1e-6 -0.10376,0.01001 -0.12964,0.03003 -0.02588,0.02002 -0.03882,0.04346 -0.03882,0.07031 0,0.01709 0.0054,0.03247 0.01611,0.04614 0.01074,0.01416 0.02759,0.02588 0.05054,0.03516 0.01318,0.0049 0.052,0.01611 0.11646,0.03369 0.09326,0.0249 0.1582,0.04541 0.19482,0.06152 0.03711,0.01563 0.06616,0.03858 0.08716,0.06885 0.021,0.03027 0.03149,0.06787 0.03149,0.11279 -1e-6,0.04395 -0.01294,0.08545 -0.03882,0.12451 -0.02539,0.03858 -0.06226,0.0686 -0.1106,0.09009 -0.04834,0.021 -0.10303,0.03149 -0.16406,0.03149 -0.10107,0 -0.17822,-0.021 -0.23144,-0.06299 -0.05274,-0.04199 -0.08643,-0.10425 -0.10107,-0.18677" />
        <path
           inkscape:connector-curvature="0"
           id="path394"
           d="m 23.115,81.418 c -0.04883,0.0415 -0.09595,0.0708 -0.14136,0.08789 -0.04492,0.01709 -0.09326,0.02563 -0.14502,0.02563 -0.08545,0 -0.15112,-0.02075 -0.19702,-0.06226 -0.0459,-0.04199 -0.06885,-0.09546 -0.06885,-0.1604 0,-0.03809 0.0085,-0.07275 0.02563,-0.104 0.01758,-0.03174 0.04028,-0.05713 0.06812,-0.07617 0.02832,-0.01904 0.06006,-0.03345 0.09521,-0.04321 0.02588,-0.0068 0.06494,-0.01343 0.11719,-0.01977 0.10644,-0.0127 0.18481,-0.02783 0.23511,-0.04541 4.88e-4,-0.01807 7.32e-4,-0.02954 7.32e-4,-0.03442 0,-0.05371 -0.01245,-0.09155 -0.03735,-0.11352 -0.03369,-0.02979 -0.08374,-0.04468 -0.15015,-0.04468 -0.06201,10e-7 -0.10791,0.01099 -0.1377,0.03296 -0.0293,0.02148 -0.05102,0.05982 -0.06518,0.11499 l -0.12891,-0.01758 c 0.01172,-0.05517 0.03101,-0.09961 0.05786,-0.1333 0.02686,-0.03418 0.06567,-0.0603 0.11646,-0.07837 0.05078,-0.01855 0.10962,-0.02783 0.17651,-0.02783 0.06641,1e-6 0.12036,0.0078 0.16187,0.02344 0.0415,0.01563 0.07202,0.0354 0.09155,0.05933 0.01953,0.02344 0.0332,0.05322 0.04102,0.08935 0.0044,0.02246 0.0066,0.06299 0.0066,0.12158 l 0,0.17578 c -10e-7,0.12256 0.0027,0.2002 0.0081,0.23291 0.0059,0.03223 0.01709,0.06323 0.03369,0.09302 l -0.1377,0 c -0.01367,-0.02734 -0.02246,-0.05933 -0.02637,-0.09595 m -0.01099,-0.29443 c -0.04785,0.01953 -0.11963,0.03613 -0.21533,0.04981 -0.0542,0.0078 -0.09253,0.0166 -0.11499,0.02637 -0.02246,0.0098 -0.03979,0.02417 -0.052,0.04321 -0.01221,0.01855 -0.01831,0.03931 -0.01831,0.06226 0,0.03516 0.01318,0.06445 0.03955,0.08789 0.02686,0.02344 0.06592,0.03516 0.11719,0.03516 0.05078,0 0.09595,-0.01099 0.1355,-0.03296 0.03955,-0.02246 0.0686,-0.05298 0.08716,-0.09155 0.01416,-0.02978 0.02124,-0.07373 0.02124,-0.13184 l 0,-0.04834" />
        <path
           inkscape:connector-curvature="0"
           id="path396"
           d="m 23.474,81.514 0,-0.67529 -0.11646,0 0,-0.10254 0.11646,0 0,-0.08276 c 0,-0.05224 0.0046,-0.09106 0.01392,-0.11646 0.0127,-0.03418 0.03491,-0.06177 0.06665,-0.08276 0.03223,-0.02148 0.07715,-0.03223 0.13477,-0.03223 0.03711,10e-7 0.07813,0.0044 0.12305,0.01318 l -0.01977,0.11499 c -0.02735,-0.0049 -0.05322,-0.0073 -0.07764,-0.0073 -0.04004,1e-6 -0.06836,0.0085 -0.08496,0.02564 -0.0166,0.01709 -0.0249,0.04907 -0.0249,0.09595 l 0,0.07178 0.15161,0 0,0.10254 -0.15161,0 0,0.67529 -0.1311,0" />
        <path
           inkscape:connector-curvature="0"
           id="path398"
           d="m 24.391,81.263 0.13623,0.01685 c -0.02148,0.07959 -0.06128,0.14136 -0.11938,0.1853 -0.05811,0.04395 -0.13232,0.06592 -0.22266,0.06592 -0.11377,0 -0.2041,-0.03491 -0.271,-0.10474 -0.06641,-0.07031 -0.09961,-0.1687 -0.09961,-0.29517 0,-0.13086 0.03369,-0.23242 0.10107,-0.30469 0.06738,-0.07226 0.15478,-0.1084 0.26221,-0.1084 0.104,10e-7 0.18896,0.0354 0.25488,0.1062 0.06592,0.0708 0.09888,0.17041 0.09888,0.29883 0,0.0078 -2.45e-4,0.01953 -7.32e-4,0.03516 l -0.58008,0 c 0.0049,0.08545 0.02905,0.15088 0.07251,0.19629 0.04346,0.04541 0.09766,0.06812 0.1626,0.06812 0.04834,0 0.0896,-0.0127 0.12378,-0.03809 0.03418,-0.02539 0.06128,-0.06592 0.0813,-0.12158 m -0.43286,-0.21314 0.43433,0 c -0.0059,-0.06543 -0.02246,-0.1145 -0.0498,-0.14722 -0.04199,-0.05078 -0.09644,-0.07617 -0.16333,-0.07617 -0.06055,10e-7 -0.11157,0.02026 -0.15308,0.06079 -0.04102,0.04053 -0.06372,0.09473 -0.06811,0.1626" />
        <path
           inkscape:connector-curvature="0"
           id="path400"
           d="m 25.11,81.812 0,-1.0759 0.12012,0 0,0.10107 c 0.02832,-0.03955 0.0603,-0.06909 0.09595,-0.08862 0.03564,-0.02002 0.07886,-0.03003 0.12964,-0.03003 0.06641,10e-7 0.125,0.01709 0.17578,0.05127 0.05078,0.03418 0.08911,0.08252 0.11499,0.14502 0.02588,0.06201 0.03882,0.13013 0.03882,0.20435 -1e-6,0.07959 -0.01441,0.15137 -0.04321,0.21533 -0.02832,0.06348 -0.06983,0.1123 -0.12451,0.14648 -0.0542,0.03369 -0.11133,0.05054 -0.17139,0.05054 -0.04395,0 -0.0835,-0.0093 -0.11865,-0.02783 -0.03467,-0.01855 -0.06323,-0.04199 -0.08569,-0.07031 l 0,0.37866 -0.13184,0 m 0.11938,-0.68262 c 0,0.1001 0.02026,0.17407 0.06079,0.22192 0.04053,0.04785 0.0896,0.07178 0.14722,0.07178 0.05859,0 0.10864,-0.02466 0.15015,-0.07398 0.04199,-0.0498 0.06299,-0.12671 0.06299,-0.23071 0,-0.09912 -0.02051,-0.17334 -0.06152,-0.22266 -0.04053,-0.04932 -0.08911,-0.07397 -0.14575,-0.07398 -0.05615,10e-7 -0.10596,0.02637 -0.14941,0.0791 -0.04297,0.05225 -0.06445,0.12842 -0.06445,0.22852" />
        <path
           inkscape:connector-curvature="0"
           id="path402"
           d="m 25.942,81.514 0,-1.0737 0.13184,0 0,1.0737 -0.13184,0" />
        <path
           inkscape:connector-curvature="0"
           id="path404"
           d="m 26.786,81.418 c -0.04883,0.0415 -0.09595,0.0708 -0.14136,0.08789 -0.04492,0.01709 -0.09326,0.02563 -0.14502,0.02563 -0.08545,0 -0.15112,-0.02075 -0.19702,-0.06226 -0.0459,-0.04199 -0.06885,-0.09546 -0.06885,-0.1604 0,-0.03809 0.0085,-0.07275 0.02563,-0.104 0.01758,-0.03174 0.04028,-0.05713 0.06812,-0.07617 0.02832,-0.01904 0.06006,-0.03345 0.09521,-0.04321 0.02588,-0.0068 0.06494,-0.01343 0.11719,-0.01977 0.10644,-0.0127 0.18481,-0.02783 0.23511,-0.04541 4.88e-4,-0.01807 7.32e-4,-0.02954 7.33e-4,-0.03442 -10e-7,-0.05371 -0.01245,-0.09155 -0.03735,-0.11352 -0.03369,-0.02979 -0.08374,-0.04468 -0.15015,-0.04468 -0.06201,10e-7 -0.10791,0.01099 -0.1377,0.03296 -0.0293,0.02148 -0.05103,0.05982 -0.06519,0.11499 l -0.12891,-0.01758 c 0.01172,-0.05517 0.03101,-0.09961 0.05786,-0.1333 0.02686,-0.03418 0.06567,-0.0603 0.11646,-0.07837 0.05078,-0.01855 0.10962,-0.02783 0.17651,-0.02783 0.06641,1e-6 0.12036,0.0078 0.16186,0.02344 0.0415,0.01563 0.07202,0.0354 0.09155,0.05933 0.01953,0.02344 0.0332,0.05322 0.04102,0.08935 0.0044,0.02246 0.0066,0.06299 0.0066,0.12158 l 0,0.17578 c 0,0.12256 0.0027,0.2002 0.0081,0.23291 0.0059,0.03223 0.01709,0.06323 0.03369,0.09302 l -0.1377,0 c -0.01367,-0.02734 -0.02246,-0.05933 -0.02637,-0.09595 m -0.01099,-0.29443 c -0.04785,0.01953 -0.11963,0.03613 -0.21533,0.04981 -0.0542,0.0078 -0.09253,0.0166 -0.11499,0.02637 -0.02246,0.0098 -0.0398,0.02417 -0.052,0.04321 -0.01221,0.01855 -0.01831,0.03931 -0.01831,0.06226 0,0.03516 0.01318,0.06445 0.03955,0.08789 0.02686,0.02344 0.06592,0.03516 0.11719,0.03516 0.05078,0 0.09595,-0.01099 0.1355,-0.03296 0.03955,-0.02246 0.0686,-0.05298 0.08716,-0.09155 0.01416,-0.02978 0.02124,-0.07373 0.02124,-0.13184 l 0,-0.04834" />
        <path
           inkscape:connector-curvature="0"
           id="path406"
           d="m 27.621,81.229 0.12964,0.01685 c -0.01416,0.08936 -0.05054,0.15942 -0.10913,0.2102 -0.05811,0.05029 -0.12964,0.07544 -0.2146,0.07544 -0.10645,0 -0.19214,-0.03467 -0.25708,-0.104 -0.06445,-0.06982 -0.09668,-0.16968 -0.09668,-0.29956 0,-0.08398 0.01392,-0.15747 0.04175,-0.22046 0.02783,-0.06299 0.07007,-0.11011 0.12671,-0.14136 0.05713,-0.03174 0.11914,-0.04761 0.18604,-0.04761 0.08447,10e-7 0.15356,0.02149 0.20728,0.06445 0.05371,0.04248 0.08813,0.10303 0.10327,0.18164 l -0.12817,0.01978 c -0.01221,-0.05224 -0.03394,-0.09155 -0.06518,-0.11792 -0.03076,-0.02637 -0.06812,-0.03955 -0.11206,-0.03955 -0.06641,1e-6 -0.12036,0.02393 -0.16186,0.07178 -0.0415,0.04736 -0.06226,0.12256 -0.06226,0.22559 0,0.10449 0.02002,0.18042 0.06006,0.22778 0.04004,0.04736 0.09229,0.07104 0.15674,0.07104 0.05176,0 0.09497,-0.01587 0.12964,-0.04761 0.03467,-0.03174 0.05664,-0.08057 0.06592,-0.14648" />
        <path
           inkscape:connector-curvature="0"
           id="path408"
           d="m 28.396,81.263 0.13623,0.01685 c -0.02149,0.07959 -0.06128,0.14136 -0.11938,0.1853 -0.05811,0.04395 -0.13232,0.06592 -0.22266,0.06592 -0.11377,0 -0.2041,-0.03491 -0.271,-0.10474 -0.06641,-0.07031 -0.09961,-0.1687 -0.09961,-0.29517 0,-0.13086 0.03369,-0.23242 0.10107,-0.30469 0.06738,-0.07226 0.15478,-0.1084 0.26221,-0.1084 0.104,10e-7 0.18896,0.0354 0.25488,0.1062 0.06592,0.0708 0.09888,0.17041 0.09888,0.29883 -10e-7,0.0078 -2.45e-4,0.01953 -7.32e-4,0.03516 l -0.58008,0 c 0.0049,0.08545 0.02905,0.15088 0.07251,0.19629 0.04346,0.04541 0.09766,0.06812 0.1626,0.06812 0.04834,0 0.0896,-0.0127 0.12378,-0.03809 0.03418,-0.02539 0.06128,-0.06592 0.0813,-0.12158 m -0.43286,-0.21314 0.43433,0 c -0.0059,-0.06543 -0.02246,-0.1145 -0.0498,-0.14722 -0.04199,-0.05078 -0.09644,-0.07617 -0.16333,-0.07617 -0.06055,10e-7 -0.11157,0.02026 -0.15308,0.06079 -0.04102,0.04053 -0.06372,0.09473 -0.06811,0.1626" />
        <path
           inkscape:connector-curvature="0"
           id="path410"
           d="m 16.077,83.389 -0.23584,0 -0.09375,-0.2439 -0.4292,0 -0.08862,0.2439 -0.22998,0 0.41821,-1.0737 0.22925,0 0.42993,1.0737 m -0.39917,-0.4248 -0.14795,-0.39844 -0.14502,0.39844 0.29297,0" />
        <path
           inkscape:connector-curvature="0"
           id="path412"
           d="m 16.905,83.389 -0.19116,0 0,-0.11426 c -0.03174,0.04443 -0.06934,0.07764 -0.11279,0.09961 -0.04297,0.02148 -0.08643,0.03223 -0.13037,0.03223 -0.08936,0 -0.16602,-0.03589 -0.22998,-0.10767 -0.06348,-0.07227 -0.09521,-0.17285 -0.09521,-0.30176 0,-0.13184 0.03101,-0.23193 0.09302,-0.30029 0.06201,-0.06885 0.14038,-0.10327 0.23511,-0.10327 0.08691,10e-7 0.16211,0.03613 0.22559,0.1084 l 0,-0.38672 0.20581,0 0,1.0737 M 16.3557,82.98321 c 0,0.08301 0.01147,0.14307 0.03442,0.18018 0.0332,0.05371 0.07959,0.08057 0.13916,0.08057 0.04736,0 0.08765,-0.02002 0.12085,-0.06006 0.0332,-0.04053 0.0498,-0.10083 0.0498,-0.18091 0,-0.08935 -0.01611,-0.15356 -0.04834,-0.19263 -0.03223,-0.03955 -0.07349,-0.05933 -0.12378,-0.05933 -0.04883,0 -0.08984,0.01953 -0.12305,0.05859 -0.03271,0.03858 -0.04907,0.09644 -0.04907,0.17358" />
        <path
           inkscape:connector-curvature="0"
           id="path414"
           d="m 17.093,82.611 0.1897,0 0,0.1062 c 0.06787,-0.08252 0.14868,-0.12378 0.24243,-0.12378 0.0498,1e-6 0.09302,0.01026 0.12964,0.03076 0.03662,0.02051 0.06665,0.05151 0.09009,0.09302 0.03418,-0.0415 0.07104,-0.07251 0.1106,-0.09302 0.03955,-0.02051 0.08179,-0.03076 0.12671,-0.03076 0.05713,1e-6 0.10547,0.01172 0.14502,0.03516 0.03955,0.02295 0.06909,0.05689 0.08862,0.10181 0.01416,0.0332 0.02124,0.08691 0.02124,0.16113 l 0,0.49731 -0.20581,0 0,-0.44458 c -1e-6,-0.07715 -0.0071,-0.12695 -0.02124,-0.14941 -0.01904,-0.0293 -0.04834,-0.04395 -0.08789,-0.04395 -0.02881,0 -0.05591,0.0088 -0.0813,0.02637 -0.02539,0.01758 -0.0437,0.04346 -0.05493,0.07764 -0.01123,0.03369 -0.01685,0.08716 -0.01685,0.1604 l 0,0.37354 -0.20581,0 0,-0.42627 c -1e-6,-0.07568 -0.0037,-0.12451 -0.01099,-0.14648 -0.0073,-0.02197 -0.0188,-0.03833 -0.03442,-0.04907 -0.01514,-0.01074 -0.03589,-0.01611 -0.06226,-0.01611 -0.03174,0 -0.0603,0.0085 -0.08569,0.02563 -0.02539,0.01709 -0.0437,0.04175 -0.05493,0.07397 -0.01074,0.03223 -0.01611,0.08569 -0.01611,0.1604 l 0,0.37793 -0.20581,0 0,-0.77783" />
        <path
           inkscape:connector-curvature="0"
           id="path416"
           d="m 18.442,82.506 0,-0.19043 0.20581,0 0,0.19043 -0.20581,0 m 0,0.8833 0,-0.77783 0.20581,0 0,0.77783 -0.20581,0" />
        <path
           inkscape:connector-curvature="0"
           id="path418"
           d="m 19.565,83.389 -0.20581,0 0,-0.39697 c -1e-6,-0.08398 -0.0044,-0.13818 -0.01318,-0.1626 -0.0088,-0.0249 -0.02319,-0.04419 -0.04321,-0.05786 -0.01953,-0.01367 -0.04321,-0.02051 -0.07105,-0.02051 -0.03564,0 -0.06763,0.0098 -0.09595,0.0293 -0.02832,0.01953 -0.04785,0.04541 -0.05859,0.07764 -0.01026,0.03223 -0.01538,0.0918 -0.01538,0.17871 l 0,0.3523 -0.20581,0 0,-0.77783 0.19116,0 0,0.11426 c 0.06787,-0.08789 0.15332,-0.13184 0.25635,-0.13184 0.04541,1e-6 0.08691,0.0083 0.12451,0.0249 0.0376,0.01611 0.06592,0.03687 0.08496,0.06226 0.01953,0.02539 0.03296,0.0542 0.04028,0.08643 0.0078,0.03223 0.01172,0.07837 0.01172,0.13843 l 0,0.4834" />
        <path
           inkscape:connector-curvature="0"
           id="path420"
           d="m 19.775,82.506 0,-0.19043 0.20581,0 0,0.19043 -0.20581,0 m 0,0.8833 0,-0.77783 0.20581,0 0,0.77783 -0.20581,0" />
        <path
           inkscape:connector-curvature="0"
           id="path422"
           d="m 20.118,83.167 0.20654,-0.03149 c 0.0088,0.04004 0.02661,0.07056 0.05347,0.09155 0.02685,0.02051 0.06445,0.03076 0.11279,0.03076 0.05322,0 0.09326,-0.0098 0.12012,-0.0293 0.01807,-0.01367 0.0271,-0.03198 0.0271,-0.05493 -1e-6,-0.01563 -0.0049,-0.02856 -0.01465,-0.03882 -0.01025,-0.0098 -0.0332,-0.0188 -0.06885,-0.0271 -0.16602,-0.03662 -0.27124,-0.07007 -0.31567,-0.10034 -0.06152,-0.04199 -0.09229,-0.10034 -0.09229,-0.17505 -1e-6,-0.06738 0.02661,-0.12402 0.07983,-0.16992 0.05322,-0.0459 0.13574,-0.06885 0.24756,-0.06885 0.10644,1e-6 0.18555,0.01734 0.2373,0.052 0.05176,0.03467 0.0874,0.08594 0.10693,0.15381 l -0.19409,0.03589 c -0.0083,-0.03027 -0.02417,-0.05347 -0.04761,-0.06958 -0.02295,-0.01611 -0.05591,-0.02417 -0.09888,-0.02417 -0.0542,10e-7 -0.09302,0.0076 -0.11646,0.0227 -0.01563,0.01074 -0.02344,0.02466 -0.02344,0.04175 -1e-6,0.01465 0.0068,0.0271 0.02051,0.03735 0.01855,0.01367 0.08252,0.03296 0.1919,0.05786 0.10986,0.0249 0.18652,0.05542 0.22998,0.09155 0.04297,0.03662 0.06445,0.08765 0.06445,0.15308 -10e-7,0.07129 -0.02979,0.13257 -0.08936,0.18384 -0.05957,0.05127 -0.14771,0.0769 -0.2644,0.0769 -0.10596,0 -0.18994,-0.02148 -0.25195,-0.06445 -0.06152,-0.04297 -0.10181,-0.10132 -0.12085,-0.17505" />
        <path
           inkscape:connector-curvature="0"
           id="path424"
           d="m 21.382,82.611 0,0.16406 -0.14062,0 0,0.31348 c 0,0.06348 0.0012,0.10059 0.0037,0.11133 0.0029,0.01025 0.009,0.0188 0.01831,0.02563 0.0098,0.0068 0.02148,0.01025 0.03516,0.01025 0.01904,0 0.04663,-0.0066 0.08276,-0.01977 l 0.01758,0.15967 c -0.04785,0.02051 -0.10205,0.03076 -0.1626,0.03076 -0.03711,0 -0.07056,-0.0061 -0.10034,-0.01831 -0.02979,-0.0127 -0.05176,-0.02881 -0.06592,-0.04834 -0.01367,-0.02002 -0.02319,-0.04687 -0.02856,-0.08057 -0.0044,-0.02393 -0.0066,-0.07227 -0.0066,-0.14502 l 0,-0.33911 -0.09448,0 0,-0.16406 0.09448,0 0,-0.15454 0.20654,-0.12012 0,0.27466 0.14062,0" />
        <path
           inkscape:connector-curvature="0"
           id="path426"
           d="m 21.724,83.389 -0.20581,0 0,-0.77783 0.19116,0 0,0.1106 c 0.03271,-0.05225 0.06201,-0.08667 0.08789,-0.10327 0.02637,-0.0166 0.05615,-0.0249 0.08936,-0.0249 0.04687,1e-6 0.09204,0.01294 0.1355,0.03882 l -0.06372,0.17944 c -0.03467,-0.02246 -0.06689,-0.03369 -0.09668,-0.03369 -0.02881,10e-7 -0.05322,0.0081 -0.07324,0.02417 -0.02002,0.01563 -0.03589,0.04419 -0.04761,0.08569 -0.01123,0.0415 -0.01685,0.12842 -0.01685,0.26074 l 0,0.24023" />
        <path
           inkscape:connector-curvature="0"
           id="path428"
           d="m 22.263,82.848 -0.18677,-0.03369 c 0.021,-0.07519 0.05713,-0.13086 0.1084,-0.16699 0.05127,-0.03613 0.12744,-0.0542 0.22852,-0.0542 0.0918,10e-7 0.16016,0.01099 0.20508,0.03296 0.04492,0.02148 0.07642,0.04907 0.09448,0.08276 0.01855,0.0332 0.02783,0.09448 0.02783,0.18384 l -0.0022,0.24023 c -1e-6,0.06836 0.0032,0.1189 0.0095,0.15161 0.0068,0.03223 0.01929,0.0669 0.03735,0.104 l -0.20361,0 c -0.0054,-0.01367 -0.01196,-0.03393 -0.01977,-0.06079 -0.0034,-0.01221 -0.0059,-0.02026 -0.0073,-0.02417 -0.03516,0.03418 -0.07276,0.05982 -0.11279,0.0769 -0.04004,0.01709 -0.08276,0.02563 -0.12817,0.02563 -0.08008,0 -0.14331,-0.02173 -0.1897,-0.06518 -0.0459,-0.04346 -0.06885,-0.09839 -0.06885,-0.1648 0,-0.04395 0.0105,-0.08301 0.03149,-0.11719 0.021,-0.03467 0.05029,-0.06103 0.08789,-0.0791 0.03809,-0.01855 0.09277,-0.03467 0.16406,-0.04834 0.09619,-0.01807 0.16284,-0.03491 0.19995,-0.05054 l 0,-0.02051 c 0,-0.03955 -0.0098,-0.06763 -0.0293,-0.08423 -0.01953,-0.01709 -0.0564,-0.02563 -0.1106,-0.02563 -0.03662,0 -0.06519,0.0073 -0.08569,0.02197 -0.02051,0.01416 -0.03711,0.03931 -0.0498,0.07544 m 0.27539,0.16699 c -0.02637,0.0088 -0.06811,0.01929 -0.12524,0.03149 -0.05713,0.01221 -0.09448,0.02417 -0.11206,0.03589 -0.02686,0.01904 -0.04028,0.04321 -0.04028,0.07251 0,0.02881 0.01074,0.05371 0.03223,0.07471 0.02148,0.021 0.04883,0.03149 0.08203,0.03149 0.03711,0 0.07251,-0.01221 0.1062,-0.03662 0.0249,-0.01855 0.04126,-0.04126 0.04907,-0.06812 0.0054,-0.01758 0.0081,-0.05102 0.0081,-0.10034 l 0,-0.04102" />
        <path
           inkscape:connector-curvature="0"
           id="path430"
           d="m 23.301,82.611 0,0.16406 -0.14062,0 0,0.31348 c -1e-6,0.06348 0.0012,0.10059 0.0037,0.11133 0.0029,0.01025 0.009,0.0188 0.01831,0.02563 0.0098,0.0068 0.02148,0.01025 0.03516,0.01025 0.01904,0 0.04663,-0.0066 0.08276,-0.01977 l 0.01758,0.15967 c -0.04785,0.02051 -0.10205,0.03076 -0.1626,0.03076 -0.03711,0 -0.07056,-0.0061 -0.10034,-0.01831 -0.02979,-0.0127 -0.05176,-0.02881 -0.06592,-0.04834 -0.01367,-0.02002 -0.02319,-0.04687 -0.02857,-0.08057 -0.0044,-0.02393 -0.0066,-0.07227 -0.0066,-0.14502 l 0,-0.33911 -0.09448,0 0,-0.16406 0.09448,0 0,-0.15454 0.20654,-0.12012 0,0.27466 0.14062,0" />
        <path
           inkscape:connector-curvature="0"
           id="path432"
           d="m 23.398,82.989 c 0,-0.06836 0.01685,-0.13452 0.05054,-0.19849 0.03369,-0.06396 0.0813,-0.11279 0.14282,-0.14648 0.06201,-0.03369 0.1311,-0.05054 0.20728,-0.05054 0.11768,10e-7 0.21411,0.03833 0.28931,0.11499 0.07519,0.07617 0.11279,0.17261 0.11279,0.28931 -1e-6,0.11768 -0.03809,0.21533 -0.11426,0.29297 -0.07568,0.07715 -0.17114,0.11572 -0.28638,0.11572 -0.07129,0 -0.1394,-0.01611 -0.20435,-0.04834 -0.06445,-0.03223 -0.11352,-0.07935 -0.14722,-0.14136 -0.03369,-0.0625 -0.05054,-0.13843 -0.05054,-0.22778 m 0.21094,0.01099 c -1e-6,0.07715 0.01831,0.13623 0.05493,0.17725 0.03662,0.04102 0.08179,0.06152 0.1355,0.06152 0.05371,0 0.09863,-0.02051 0.13477,-0.06152 0.03662,-0.04102 0.05493,-0.10058 0.05493,-0.17871 -10e-7,-0.07617 -0.01831,-0.13476 -0.05493,-0.17578 -0.03613,-0.04102 -0.08105,-0.06152 -0.13477,-0.06152 -0.05371,0 -0.09888,0.02051 -0.1355,0.06152 -0.03662,0.04102 -0.05493,0.1001 -0.05493,0.17725" />
        <path
           inkscape:connector-curvature="0"
           id="path434"
           d="m 24.56,83.389 -0.20581,0 0,-0.77783 0.19116,0 0,0.1106 c 0.03271,-0.05225 0.06201,-0.08667 0.08789,-0.10327 0.02637,-0.0166 0.05615,-0.0249 0.08936,-0.0249 0.04687,1e-6 0.09204,0.01294 0.1355,0.03882 l -0.06372,0.17944 c -0.03467,-0.02246 -0.0669,-0.03369 -0.09668,-0.03369 -0.02881,10e-7 -0.05322,0.0081 -0.07324,0.02417 -0.02002,0.01563 -0.03589,0.04419 -0.04761,0.08569 -0.01123,0.0415 -0.01685,0.12842 -0.01685,0.26074 l 0,0.24023" />
        <path
           inkscape:connector-curvature="0"
           id="path436"
           d="m 24.873,83.167 0.20654,-0.03149 c 0.0088,0.04004 0.02661,0.07056 0.05347,0.09155 0.02685,0.02051 0.06445,0.03076 0.11279,0.03076 0.05322,0 0.09326,-0.0098 0.12012,-0.0293 0.01807,-0.01367 0.0271,-0.03198 0.0271,-0.05493 0,-0.01563 -0.0049,-0.02856 -0.01465,-0.03882 -0.01025,-0.0098 -0.0332,-0.0188 -0.06885,-0.0271 -0.16602,-0.03662 -0.27124,-0.07007 -0.31567,-0.10034 -0.06152,-0.04199 -0.09229,-0.10034 -0.09229,-0.17505 0,-0.06738 0.02661,-0.12402 0.07983,-0.16992 0.05322,-0.0459 0.13574,-0.06885 0.24756,-0.06885 0.10644,1e-6 0.18555,0.01734 0.2373,0.052 0.05176,0.03467 0.0874,0.08594 0.10693,0.15381 l -0.19409,0.03589 c -0.0083,-0.03027 -0.02417,-0.05347 -0.04761,-0.06958 -0.02295,-0.01611 -0.05591,-0.02417 -0.09888,-0.02417 -0.0542,10e-7 -0.09302,0.0076 -0.11646,0.0227 -0.01563,0.01074 -0.02344,0.02466 -0.02344,0.04175 0,0.01465 0.0068,0.0271 0.02051,0.03735 0.01855,0.01367 0.08252,0.03296 0.1919,0.05786 0.10986,0.0249 0.18652,0.05542 0.22998,0.09155 0.04297,0.03662 0.06445,0.08765 0.06445,0.15308 0,0.07129 -0.02979,0.13257 -0.08936,0.18384 -0.05957,0.05127 -0.14771,0.0769 -0.2644,0.0769 -0.10596,0 -0.18994,-0.02148 -0.25195,-0.06445 -0.06152,-0.04297 -0.10181,-0.10132 -0.12085,-0.17505" />
        <path
           inkscape:connector-curvature="0"
           id="path438"
           d="m 26.149,82.989 c 0,-0.06836 0.01685,-0.13452 0.05054,-0.19849 0.03369,-0.06396 0.0813,-0.11279 0.14282,-0.14648 0.06201,-0.03369 0.1311,-0.05054 0.20728,-0.05054 0.11768,10e-7 0.21411,0.03833 0.28931,0.11499 0.0752,0.07617 0.11279,0.17261 0.11279,0.28931 -1e-6,0.11768 -0.03809,0.21533 -0.11426,0.29297 -0.07568,0.07715 -0.17114,0.11572 -0.28638,0.11572 -0.07129,0 -0.1394,-0.01611 -0.20434,-0.04834 C 26.28231,83.32591 26.23323,83.27879 26.19954,83.21678 26.16585,83.15428 26.149,83.07835 26.149,82.989 m 0.21094,0.01099 c 0,0.07715 0.01831,0.13623 0.05493,0.17725 0.03662,0.04102 0.08179,0.06152 0.1355,0.06152 0.05371,0 0.09863,-0.02051 0.13477,-0.06152 0.03662,-0.04102 0.05493,-0.10058 0.05493,-0.17871 0,-0.07617 -0.01831,-0.13476 -0.05493,-0.17578 -0.03613,-0.04102 -0.08106,-0.06152 -0.13477,-0.06152 -0.05371,0 -0.09888,0.02051 -0.1355,0.06152 -0.03662,0.04102 -0.05493,0.1001 -0.05493,0.17725" />
        <path
           inkscape:connector-curvature="0"
           id="path440"
           d="m 27.821,83.389 -0.20581,0 0,-0.39697 c 0,-0.08398 -0.0044,-0.13818 -0.01318,-0.1626 -0.0088,-0.0249 -0.02319,-0.04419 -0.04321,-0.05786 -0.01953,-0.01367 -0.04321,-0.02051 -0.07105,-0.02051 -0.03564,0 -0.06763,0.0098 -0.09595,0.0293 -0.02832,0.01953 -0.04785,0.04541 -0.05859,0.07764 -0.01025,0.03223 -0.01538,0.0918 -0.01538,0.17871 l 0,0.3523 -0.20581,0 0,-0.77783 0.19116,0 0,0.11426 c 0.06787,-0.08789 0.15332,-0.13184 0.25635,-0.13184 0.04541,1e-6 0.08691,0.0083 0.12451,0.0249 0.0376,0.01611 0.06592,0.03687 0.08496,0.06226 0.01953,0.02539 0.03296,0.0542 0.04028,0.08643 0.0078,0.03223 0.01172,0.07837 0.01172,0.13843 l 0,0.4834" />
        <path
           inkscape:connector-curvature="0"
           id="path442"
           d="m 28.031,83.389 0,-1.0737 0.20581,0 0,1.0737 -0.20581,0" />
        <path
           inkscape:connector-curvature="0"
           id="path444"
           d="m 28.349,82.611 0.21899,0 0.18604,0.55225 0.18164,-0.55225 0.21314,0 -0.27466,0.74854 -0.04907,0.1355 c -0.01807,0.04541 -0.0354,0.08008 -0.052,0.104 -0.01611,0.02393 -0.03491,0.04321 -0.0564,0.05786 -0.021,0.01514 -0.04712,0.02685 -0.07837,0.03516 -0.03076,0.0083 -0.06567,0.01245 -0.10474,0.01245 -0.03955,0 -0.07837,-0.0042 -0.11646,-0.01245 L 28.3988,83.53093 c 0.03223,0.0063 0.06128,0.0095 0.08716,0.0095 0.04785,0 0.08325,-0.01416 0.1062,-0.04248 0.02295,-0.02783 0.04053,-0.06348 0.05273,-0.10693 l -0.2959,-0.78003" />
      </g>
      <g
         style="fill:#553417"
         id="g446">
        <path
           inkscape:connector-curvature="0"
           id="path448"
           d="m 15.052,78.159 0.31567,-0.01978 c 0.0068,0.05127 0.02075,0.09033 0.04175,0.11719 0.03418,0.04346 0.08301,0.06518 0.14648,0.06518 0.04736,0 0.08374,-0.01099 0.10913,-0.03296 0.02588,-0.02246 0.03882,-0.04834 0.03882,-0.07764 0,-0.02783 -0.01221,-0.05273 -0.03662,-0.07471 -0.02441,-0.02197 -0.08106,-0.04272 -0.16992,-0.06226 -0.14551,-0.03271 -0.24927,-0.07617 -0.31128,-0.13037 -0.0625,-0.0542 -0.09375,-0.12329 -0.09375,-0.20728 0,-0.05517 0.01587,-0.10718 0.04761,-0.15601 0.03223,-0.04932 0.08032,-0.08789 0.14429,-0.11572 0.06445,-0.02832 0.15259,-0.04248 0.2644,-0.04248 0.13721,10e-7 0.2417,0.02564 0.31348,0.0769 0.07226,0.05078 0.11523,0.13184 0.12891,0.24316 l -0.31274,0.01831 c -0.0083,-0.04834 -0.02588,-0.0835 -0.05273,-0.10547 -0.02637,-0.02197 -0.06299,-0.03296 -0.10986,-0.03296 -0.03857,10e-7 -0.06763,0.0083 -0.08716,0.0249 -0.01953,0.01611 -0.0293,0.03589 -0.0293,0.05933 0,0.01709 0.0081,0.03247 0.02417,0.04614 0.01562,0.01416 0.05273,0.02734 0.11133,0.03955 0.14502,0.03125 0.24878,0.06299 0.31128,0.09521 0.06299,0.03174 0.10864,0.07129 0.13696,0.11865 0.02881,0.04736 0.04321,0.10034 0.04321,0.15894 -10e-7,0.06885 -0.01904,0.13232 -0.05713,0.19043 -0.03809,0.0581 -0.09131,0.1023 -0.15967,0.13257 -0.06836,0.02978 -0.15454,0.04468 -0.25854,0.04468 -0.18262,0 -0.30908,-0.03516 -0.37939,-0.10547 -0.07031,-0.07031 -0.11011,-0.15967 -0.11938,-0.26807" />
        <path
           inkscape:connector-curvature="0"
           id="path450"
           d="m 16.137,78.127 c 0,-0.11865 0.04004,-0.21631 0.12012,-0.29297 0.08008,-0.07715 0.18823,-0.11572 0.32446,-0.11572 0.15576,10e-7 0.27344,0.04517 0.35303,0.1355 0.06396,0.07275 0.09595,0.16235 0.09595,0.2688 -1e-6,0.11963 -0.0398,0.21777 -0.11938,0.29443 -0.0791,0.07617 -0.18872,0.11426 -0.32886,0.11426 -0.125,0 -0.22608,-0.03174 -0.30322,-0.09521 -0.09473,-0.07861 -0.14209,-0.18164 -0.14209,-0.30908 m 0.29883,-7.32e-4 c 0,0.06934 0.01392,0.12061 0.04175,0.15381 0.02832,0.0332 0.06372,0.0498 0.1062,0.0498 0.04297,0 0.07812,-0.01636 0.10547,-0.04907 0.02783,-0.03271 0.04175,-0.0852 0.04175,-0.15747 0,-0.06738 -0.01392,-0.11743 -0.04175,-0.15015 -0.02783,-0.0332 -0.06226,-0.0498 -0.10327,-0.04981 -0.04346,10e-7 -0.07935,0.01685 -0.10767,0.05054 -0.02832,0.0332 -0.04248,0.08398 -0.04248,0.15234" />
        <path
           inkscape:connector-curvature="0"
           id="path452"
           d="m 17.508,77.736 0.14209,0 0,0.21826 -0.14209,0 0,0.55957 -0.29883,0 0,-0.55957 -0.11133,0 0,-0.21826 0.11133,0 0,-0.03516 c 0,-0.03174 0.0034,-0.06665 0.01025,-0.10474 0.0068,-0.03809 0.01953,-0.06909 0.03809,-0.09302 0.01904,-0.02441 0.04541,-0.04394 0.0791,-0.05859 0.03418,-0.01514 0.08398,-0.0227 0.14941,-0.02271 0.05224,10e-7 0.12817,0.0061 0.22778,0.01831 l -0.03296,0.18018 c -0.03564,-0.0059 -0.06445,-0.0088 -0.08643,-0.0088 -0.02686,10e-7 -0.04614,0.0046 -0.05786,0.01392 -0.01172,0.0088 -0.02002,0.02295 -0.0249,0.04248 -0.0024,0.01074 -0.0037,0.03345 -0.0037,0.06811" />
        <path
           inkscape:connector-curvature="0"
           id="path454"
           d="m 18.119,77.44 0,0.2959 0.16406,0 0,0.21753 -0.16406,0 0,0.27612 c 0,0.0332 0.0032,0.05518 0.0095,0.06592 0.0098,0.0166 0.02685,0.0249 0.05127,0.0249 0.02197,0 0.05273,-0.0063 0.09229,-0.01904 l 0.02197,0.20581 c -0.07373,0.01611 -0.14258,0.02417 -0.20654,0.02417 -0.07422,0 -0.12891,-0.0095 -0.16406,-0.02856 -0.03516,-0.01904 -0.06128,-0.04785 -0.07837,-0.08643 -0.0166,-0.03906 -0.0249,-0.10205 -0.0249,-0.18896 l 0,-0.27393 -0.10986,0 0,-0.21753 0.10986,0 0,-0.14282 0.29883,-0.15308" />
        <path
           inkscape:connector-curvature="0"
           id="path456"
           d="m 18.336,77.736 0.28857,0 0.12524,0.48999 0.1582,-0.48999 0.2688,0 0.16406,0.48999 0.12524,-0.48999 0.28638,0 -0.28638,0.77783 -0.26514,0 -0.15747,-0.46802 -0.15234,0.46802 -0.2666,0 -0.28857,-0.77783" />
        <path
           inkscape:connector-curvature="0"
           id="path458"
           d="m 20.093,77.988 -0.28491,-0.03003 c 0.01074,-0.0498 0.02612,-0.08887 0.04614,-0.11719 0.02051,-0.02881 0.0498,-0.05371 0.08789,-0.07471 0.02734,-0.01514 0.06494,-0.02685 0.11279,-0.03516 0.04785,-0.0083 0.09961,-0.01245 0.15527,-0.01245 0.08936,1e-6 0.16113,0.0051 0.21533,0.01538 0.0542,0.0098 0.09936,0.03052 0.1355,0.06226 0.02539,0.02197 0.04541,0.05322 0.06006,0.09375 0.01465,0.04004 0.02197,0.07837 0.02197,0.11499 l 0,0.34351 c -10e-7,0.03662 0.0022,0.06543 0.0066,0.08643 0.0049,0.02051 0.01514,0.04687 0.03076,0.0791 l -0.27978,0 c -0.01123,-0.02002 -0.01855,-0.03516 -0.02197,-0.04541 -0.0034,-0.01074 -0.0068,-0.02734 -0.01025,-0.0498 -0.03906,0.0376 -0.07788,0.06445 -0.11646,0.08057 -0.05273,0.02148 -0.11401,0.03223 -0.18384,0.03223 -0.09277,0 -0.16333,-0.02148 -0.21167,-0.06445 -0.04785,-0.04297 -0.07178,-0.09595 -0.07178,-0.15894 0,-0.05908 0.01733,-0.10767 0.052,-0.14575 0.03467,-0.03809 0.09863,-0.06641 0.1919,-0.08496 0.11182,-0.02246 0.18432,-0.03809 0.21753,-0.04687 0.0332,-0.0093 0.06836,-0.02124 0.10547,-0.03589 -1e-6,-0.03662 -0.0076,-0.06226 -0.02271,-0.0769 -0.01514,-0.01465 -0.04175,-0.02197 -0.07983,-0.02197 -0.04883,10e-7 -0.08545,0.0078 -0.10986,0.02344 -0.01904,0.01221 -0.03442,0.03516 -0.04614,0.06885 m 0.25854,0.15674 c -0.04102,0.01465 -0.08374,0.02759 -0.12817,0.03882 -0.06055,0.01611 -0.09888,0.03198 -0.11499,0.04761 -0.0166,0.01611 -0.0249,0.03442 -0.0249,0.05493 0,0.02344 0.0081,0.04273 0.02417,0.05786 0.0166,0.01465 0.04077,0.02197 0.07251,0.02197 0.0332,0 0.06396,-0.0081 0.09228,-0.02417 0.02881,-0.01611 0.04907,-0.03564 0.06079,-0.05859 0.01221,-0.02344 0.01831,-0.05371 0.01831,-0.09082 l 0,-0.04761" />
        <path
           inkscape:connector-curvature="0"
           id="path460"
           d="m 20.826,77.736 0.27905,0 0,0.12744 c 0.02686,-0.05518 0.05444,-0.09302 0.08276,-0.11353 0.02881,-0.02099 0.06421,-0.03149 0.1062,-0.03149 0.04394,1e-6 0.09204,0.01367 0.14429,0.04102 l -0.09229,0.2124 c -0.03516,-0.01465 -0.06299,-0.02197 -0.0835,-0.02197 -0.03906,10e-7 -0.06934,0.01611 -0.09082,0.04834 -0.03076,0.04541 -0.04614,0.13037 -0.04614,0.25488 l 0,0.26074 -0.29956,0 0,-0.77783" />
        <path
           inkscape:connector-curvature="0"
           id="path462"
           d="m 22.375,78.199 -0.59766,0 c 0.0054,0.04785 0.01831,0.0835 0.03882,0.10693 0.02881,0.03369 0.06641,0.05054 0.11279,0.05054 0.0293,10e-7 0.05713,-0.0073 0.0835,-0.02197 0.01611,-0.0093 0.03345,-0.02564 0.052,-0.04907 l 0.2937,0.0271 c -0.04492,0.07813 -0.09912,0.13428 -0.1626,0.16846 -0.06348,0.03369 -0.15454,0.05054 -0.27319,0.05054 -0.10303,0 -0.18408,-0.0144 -0.24316,-0.04321 -0.05908,-0.0293 -0.10815,-0.07544 -0.14722,-0.13843 -0.03858,-0.06348 -0.05786,-0.13794 -0.05786,-0.22339 0,-0.12158 0.03882,-0.21997 0.11646,-0.29517 0.07813,-0.0752 0.18579,-0.11279 0.323,-0.11279 0.11133,10e-7 0.19922,0.01685 0.26367,0.05054 0.06445,0.03369 0.11352,0.08252 0.14722,0.14648 0.03369,0.06397 0.05054,0.14722 0.05054,0.24976 l 0,0.03369 m -0.303,-0.143 c -0.0059,-0.05762 -0.02148,-0.09888 -0.04687,-0.12378 -0.0249,-0.0249 -0.05786,-0.03735 -0.09888,-0.03735 -0.04736,0 -0.08521,0.0188 -0.11353,0.0564 -0.01807,0.02344 -0.02954,0.05835 -0.03442,0.10474 l 0.2937,0" />
        <path
           inkscape:connector-curvature="0"
           id="path464"
           d="m 23.017,77.736 0.27832,0 0,0.11353 c 0.04004,-0.04736 0.08032,-0.08105 0.12085,-0.10108 0.04101,-0.02002 0.09033,-0.03003 0.14795,-0.03003 0.06201,1e-6 0.11108,0.01099 0.14722,0.03296 0.03613,0.02197 0.06567,0.05469 0.08862,0.09815 0.04687,-0.05078 0.0896,-0.08521 0.12817,-0.10327 0.03857,-0.01855 0.08618,-0.02783 0.14282,-0.02783 0.08349,10e-7 0.14868,0.0249 0.19556,0.07471 0.04687,0.04932 0.07031,0.12671 0.07031,0.23218 l 0,0.48852 -0.29883,0 0,-0.44312 c -1e-6,-0.03516 -0.0068,-0.06128 -0.02051,-0.07837 -0.02002,-0.02685 -0.04492,-0.04028 -0.07471,-0.04028 -0.03516,0 -0.06348,0.0127 -0.08496,0.03809 -0.02149,0.02539 -0.03223,0.06616 -0.03223,0.12231 l 0,0.40137 -0.29883,0 0,-0.42847 c 0,-0.03418 -0.002,-0.05737 -0.0059,-0.06958 -0.0063,-0.01953 -0.01733,-0.03516 -0.03296,-0.04687 -0.01563,-0.01221 -0.03394,-0.01831 -0.05493,-0.01831 -0.03418,0 -0.06226,0.01294 -0.08423,0.03882 -0.02197,0.02588 -0.03296,0.06836 -0.03296,0.12744 l 0,0.39697 -0.29883,0 0,-0.77783" />
        <path
           inkscape:connector-curvature="0"
           id="path466"
           d="m 24.787,77.988 -0.28491,-0.03003 c 0.01074,-0.0498 0.02612,-0.08887 0.04614,-0.11719 0.02051,-0.02881 0.0498,-0.05371 0.08789,-0.07471 0.02734,-0.01514 0.06494,-0.02685 0.11279,-0.03516 0.04785,-0.0083 0.09961,-0.01245 0.15527,-0.01245 0.08935,1e-6 0.16113,0.0051 0.21533,0.01538 0.0542,0.0098 0.09936,0.03052 0.1355,0.06226 0.02539,0.02197 0.04541,0.05322 0.06006,0.09375 0.01465,0.04004 0.02197,0.07837 0.02197,0.11499 l 0,0.34351 c -10e-7,0.03662 0.0022,0.06543 0.0066,0.08643 0.0049,0.02051 0.01514,0.04687 0.03076,0.0791 l -0.27978,0 c -0.01123,-0.02002 -0.01855,-0.03516 -0.02197,-0.04541 -0.0034,-0.01074 -0.0068,-0.02734 -0.01025,-0.0498 -0.03906,0.0376 -0.07788,0.06445 -0.11646,0.08057 -0.05274,0.02148 -0.11401,0.03223 -0.18384,0.03223 -0.09277,0 -0.16333,-0.02148 -0.21167,-0.06445 -0.04785,-0.04297 -0.07178,-0.09595 -0.07178,-0.15894 0,-0.05908 0.01733,-0.10767 0.052,-0.14575 0.03467,-0.03809 0.09863,-0.06641 0.1919,-0.08496 0.11182,-0.02246 0.18433,-0.03809 0.21753,-0.04687 0.0332,-0.0093 0.06836,-0.02124 0.10547,-0.03589 -10e-7,-0.03662 -0.0076,-0.06226 -0.0227,-0.0769 -0.01514,-0.01465 -0.04175,-0.02197 -0.07983,-0.02197 -0.04883,10e-7 -0.08545,0.0078 -0.10986,0.02344 -0.01904,0.01221 -0.03443,0.03516 -0.04614,0.06885 m 0.25854,0.15674 c -0.04102,0.01465 -0.08374,0.02759 -0.12817,0.03882 -0.06055,0.01611 -0.09888,0.03198 -0.11499,0.04761 -0.0166,0.01611 -0.0249,0.03442 -0.0249,0.05493 -1e-6,0.02344 0.0081,0.04273 0.02417,0.05786 0.0166,0.01465 0.04077,0.02197 0.07251,0.02197 0.0332,0 0.06396,-0.0081 0.09229,-0.02417 0.02881,-0.01611 0.04907,-0.03564 0.06079,-0.05859 0.01221,-0.02344 0.01831,-0.05371 0.01831,-0.09082 l 0,-0.04761" />
        <path
           inkscape:connector-curvature="0"
           id="path468"
           d="m 25.517,77.736 0.27759,0 0,0.12671 c 0.0415,-0.05176 0.0835,-0.08862 0.12598,-0.1106 0.04248,-0.02246 0.09424,-0.03369 0.15527,-0.03369 0.08252,1e-6 0.14697,0.02466 0.19336,0.07398 0.04687,0.04883 0.07031,0.12451 0.07031,0.22705 l 0,0.49438 -0.29956,0 0,-0.42773 c -1e-6,-0.04883 -0.009,-0.08325 -0.0271,-0.10327 -0.01807,-0.02051 -0.04346,-0.03076 -0.07617,-0.03076 -0.03613,0 -0.06543,0.01367 -0.08789,0.04102 -0.02246,0.02734 -0.03369,0.07642 -0.03369,0.14722 l 0,0.37354 -0.2981,0 0,-0.77783" />
        <path
           inkscape:connector-curvature="0"
           id="path470"
           d="m 26.791,77.988 -0.28491,-0.03003 c 0.01074,-0.0498 0.02612,-0.08887 0.04614,-0.11719 0.02051,-0.02881 0.0498,-0.05371 0.08789,-0.07471 0.02734,-0.01514 0.06494,-0.02685 0.11279,-0.03516 0.04785,-0.0083 0.09961,-0.01245 0.15527,-0.01245 0.08936,1e-6 0.16113,0.0051 0.21533,0.01538 0.0542,0.0098 0.09936,0.03052 0.1355,0.06226 0.02539,0.02197 0.04541,0.05322 0.06006,0.09375 0.01465,0.04004 0.02197,0.07837 0.02197,0.11499 l 0,0.34351 c -1e-6,0.03662 0.0022,0.06543 0.0066,0.08643 0.0049,0.02051 0.01514,0.04687 0.03076,0.0791 l -0.27978,0 c -0.01123,-0.02002 -0.01856,-0.03516 -0.02197,-0.04541 -0.0034,-0.01074 -0.0068,-0.02734 -0.01025,-0.0498 -0.03906,0.0376 -0.07788,0.06445 -0.11646,0.08057 -0.05274,0.02148 -0.11401,0.03223 -0.18384,0.03223 -0.09277,0 -0.16333,-0.02148 -0.21167,-0.06445 -0.04785,-0.04297 -0.07178,-0.09595 -0.07178,-0.15894 0,-0.05908 0.01733,-0.10767 0.052,-0.14575 0.03467,-0.03809 0.09863,-0.06641 0.19189,-0.08496 0.11182,-0.02246 0.18433,-0.03809 0.21753,-0.04687 0.0332,-0.0093 0.06836,-0.02124 0.10547,-0.03589 0,-0.03662 -0.0076,-0.06226 -0.0227,-0.0769 -0.01514,-0.01465 -0.04175,-0.02197 -0.07983,-0.02197 -0.04883,10e-7 -0.08545,0.0078 -0.10986,0.02344 -0.01904,0.01221 -0.03442,0.03516 -0.04614,0.06885 m 0.25854,0.15674 c -0.04102,0.01465 -0.08374,0.02759 -0.12817,0.03882 -0.06055,0.01611 -0.09888,0.03198 -0.11499,0.04761 -0.0166,0.01611 -0.0249,0.03442 -0.0249,0.05493 0,0.02344 0.0081,0.04273 0.02417,0.05786 0.0166,0.01465 0.04077,0.02197 0.07251,0.02197 0.0332,0 0.06396,-0.0081 0.09229,-0.02417 0.02881,-0.01611 0.04907,-0.03564 0.06079,-0.05859 0.01221,-0.02344 0.01831,-0.05371 0.01831,-0.09082 l 0,-0.04761" />
        <path
           inkscape:connector-curvature="0"
           id="path472"
           d="m 28.085,77.736 0.27905,0 0,0.73462 7.32e-4,0.03442 c -1e-6,0.04883 -0.0105,0.09521 -0.03149,0.13916 -0.02051,0.04443 -0.0481,0.08032 -0.08276,0.10767 -0.03418,0.02734 -0.07788,0.04712 -0.1311,0.05933 -0.05273,0.01221 -0.11328,0.01831 -0.18164,0.01831 -0.15625,0 -0.26367,-0.02344 -0.32226,-0.07031 -0.05811,-0.04687 -0.08716,-0.10962 -0.08716,-0.18823 0,-0.0098 4.88e-4,-0.02295 0.0015,-0.03955 l 0.28931,0.03296 c 0.0073,0.02686 0.01855,0.04541 0.03369,0.05566 0.02197,0.01514 0.04956,0.02271 0.08276,0.02271 0.04297,0 0.07495,-0.01147 0.09595,-0.03442 0.02148,-0.02295 0.03223,-0.06299 0.03223,-0.12012 l 0,-0.11792 c -0.0293,0.03467 -0.05859,0.05982 -0.08789,0.07544 -0.0459,0.02441 -0.09546,0.03662 -0.14868,0.03662 -0.104,0 -0.18799,-0.04541 -0.25195,-0.13623 -0.04541,-0.06445 -0.06812,-0.14966 -0.06812,-0.25562 0,-0.12109 0.0293,-0.21338 0.08789,-0.27686 0.05859,-0.06348 0.13525,-0.09521 0.22998,-0.09522 0.06055,1e-6 0.11035,0.01026 0.14942,0.03076 0.03955,0.02051 0.07642,0.05444 0.1106,0.10181 l 0,-0.11499 m -0.28052,0.3772 c -1e-6,0.05615 0.01196,0.0979 0.03589,0.12524 0.02393,0.02685 0.05542,0.04028 0.09448,0.04028 0.03711,0 0.06811,-0.01392 0.09302,-0.04175 0.02539,-0.02832 0.03809,-0.0708 0.03809,-0.12744 0,-0.05664 -0.01318,-0.09985 -0.03955,-0.12964 -0.02637,-0.03027 -0.05859,-0.04541 -0.09668,-0.04541 -0.03809,1e-6 -0.0686,0.01392 -0.09155,0.04175 -0.02246,0.02734 -0.03369,0.073 -0.03369,0.13696" />
        <path
           inkscape:connector-curvature="0"
           id="path474"
           d="m 29.41,78.199 -0.59766,0 c 0.0054,0.04785 0.01831,0.0835 0.03882,0.10693 0.02881,0.03369 0.06641,0.05054 0.11279,0.05054 0.0293,10e-7 0.05713,-0.0073 0.0835,-0.02197 0.01611,-0.0093 0.03345,-0.02564 0.052,-0.04907 l 0.2937,0.0271 c -0.04492,0.07813 -0.09912,0.13428 -0.1626,0.16846 -0.06348,0.03369 -0.15454,0.05054 -0.27319,0.05054 -0.10303,0 -0.18408,-0.0144 -0.24316,-0.04321 -0.05908,-0.0293 -0.10815,-0.07544 -0.14722,-0.13843 -0.03857,-0.06348 -0.05786,-0.13794 -0.05786,-0.22339 0,-0.12158 0.03882,-0.21997 0.11646,-0.29517 0.07813,-0.0752 0.18579,-0.11279 0.323,-0.11279 0.11133,10e-7 0.19922,0.01685 0.26367,0.05054 0.06445,0.03369 0.11352,0.08252 0.14722,0.14648 0.03369,0.06397 0.05054,0.14722 0.05054,0.24976 l 0,0.03369 m -0.304,-0.143 c -0.0059,-0.05762 -0.02149,-0.09888 -0.04687,-0.12378 -0.0249,-0.0249 -0.05786,-0.03735 -0.09888,-0.03735 -0.04736,0 -0.0852,0.0188 -0.11352,0.0564 -0.01807,0.02344 -0.02954,0.05835 -0.03442,0.10474 l 0.2937,0" />
        <path
           inkscape:connector-curvature="0"
           id="path476"
           d="m 29.551,77.736 0.27905,0 0,0.12744 c 0.02686,-0.05518 0.05444,-0.09302 0.08276,-0.11353 0.02881,-0.02099 0.06421,-0.03149 0.1062,-0.03149 0.04395,1e-6 0.09204,0.01367 0.14429,0.04102 l -0.09228,0.2124 c -0.03516,-0.01465 -0.06299,-0.02197 -0.0835,-0.02197 -0.03906,10e-7 -0.06934,0.01611 -0.09082,0.04834 -0.03076,0.04541 -0.04614,0.13037 -0.04614,0.25488 l 0,0.26074 -0.29956,0 0,-0.77783" />
      </g>
    </g>
  </g>
  <g
     id="g482"
     transform="translate(-1.71,-10.23)">
    <path
       style="opacity:0.05"
       inkscape:connector-curvature="0"
       id="path484"
       transform="translate(0,-61)"
       d="m 68,116 c -11.06,0 -20,8.9399 -20,20 0,11.0601 8.9399,20 20,20 11.0601,0 20,-8.9399 20,-20 0,-11.0601 -8.9399,-20 -20,-20 z" />
    <path
       style="opacity:0.15"
       inkscape:connector-curvature="0"
       id="path486"
       transform="translate(0,-61)"
       d="m 68,117 c -10.516,0 -19,8.4845 -19,19 0,10.5155 8.4845,19 19,19 10.5155,0 19,-8.4845 19,-19 0,-10.5155 -8.4845,-19 -19,-19 z" />
    <rect
       style="opacity:0.31000001"
       id="rect488"
       transform="translate(0,-61)"
       width="36"
       height="36"
       clip-path="url(#clipPath3871-0)"
       y="118"
       rx="18"
       x="50" />
    <path
       inkscape:connector-curvature="0"
       style="fill:url(#linearGradient8788)"
       id="path490"
       transform="matrix(0,-0.91636,0.91636,0,1.302,139.13)"
       d="m 90.714,72.786 a 19.643,19.643 0 1 1 -39.286,0 19.643,19.643 0 1 1 39.286,0 z" />
    <path
       inkscape:connector-curvature="0"
       style="opacity:0.05;fill:url(#linearGradient11707)"
       id="path492"
       transform="translate(-60,0)"
       d="m 121.81,60.031 a 0.92847,0.92847 0 0 0 -0.125,0.03125 c 0.0117,-0.0026 -0.13641,0.03484 -0.125,0.03125 0.0114,-0.0036 -0.13605,0.03582 -0.125,0.03125 0.011,-0.0046 -0.13561,0.06802 -0.125,0.0625 0.0106,-0.0055 -0.10383,0.06893 -0.0937,0.0625 0.0101,-0.0064 -0.13448,0.06979 -0.125,0.0625 0.009,-0.0073 -0.10256,0.10184 -0.0937,0.09375 0.009,-0.0081 -0.10182,0.10258 -0.0937,0.09375 0.008,-0.0088 -0.0698,0.10325 -0.0625,0.09375 0.007,-0.0095 -0.10015,0.10385 -0.0937,0.09375 0.006,-0.0101 -0.068,0.13562 -0.0625,0.125 0.005,-0.01062 -0.0358,0.13606 -0.0312,0.125 0.005,-0.01106 -0.0661,0.10516 -0.0625,0.09375 0.004,-0.01141 -0.0338,0.13668 -0.0312,0.125 0.003,-0.01168 -0.002,0.13686 0,0.125 0.002,-0.01186 -0.0317,0.13695 -0.0312,0.125 3.6e-4,-0.009 5e-5,0.057 0,0.09375 -2e-5,0.01225 1.4e-4,0.03424 0,0.03125 l 0,12.25 -3.5312,0 c 0.01,3.6e-5 -0.10334,6.39e-4 -0.0937,0 0.01,-6.39e-4 -0.10327,0.03256 -0.0937,0.03125 0.01,-0.0013 -0.1344,0.002 -0.125,0 0.009,-0.002 -0.10299,0.03388 -0.0937,0.03125 0.009,-0.0026 -0.10278,0.03453 -0.0937,0.03125 0.009,-0.0033 -0.10253,0.03515 -0.0937,0.03125 0.009,-0.0039 -0.10223,0.06701 -0.0937,0.0625 0.008,-0.0045 -0.1019,0.03635 -0.0937,0.03125 0.008,-0.0051 -0.0703,0.06816 -0.0625,0.0625 0.008,-0.0057 -0.1011,0.06869 -0.0937,0.0625 0.007,-0.0062 -0.0694,0.06919 -0.0625,0.0625 0.007,-0.0067 -0.10016,0.10091 -0.0937,0.09375 0.006,-0.0072 -0.0684,0.07009 -0.0625,0.0625 0.006,-0.0076 -0.0678,0.10174 -0.0625,0.09375 0.005,-0.008 -0.036,0.10209 -0.0312,0.09375 0.005,-0.0083 -0.0667,0.10241 -0.0625,0.09375 0.004,-0.0087 -0.0348,0.07143 -0.0312,0.0625 0.004,-0.0089 -0.0342,0.13416 -0.0312,0.125 0.003,-0.0092 -0.0335,0.10309 -0.0312,0.09375 0.002,-0.0093 -0.0328,0.10322 -0.0312,0.09375 0.002,-0.0095 -9.3e-4,0.10331 0,0.09375 9.3e-4,-0.0096 -2.5e-4,0.10336 0,0.09375 2.5e-4,-0.0096 4.2e-4,0.1346 0,0.125 -4.2e-4,-0.0096 0.001,0.1033 0,0.09375 -10e-4,-0.0095 0.002,0.1032 0,0.09375 -0.002,-0.0094 0.0337,0.10305 0.0312,0.09375 -0.002,-0.0093 0.0343,0.10285 0.0312,0.09375 -0.003,-0.0091 0.0349,0.10262 0.0312,0.09375 -0.004,-0.0089 0.0668,0.10233 0.0625,0.09375 -0.004,-0.0086 0.0362,0.10201 0.0312,0.09375 -0.005,-0.0083 0.068,0.10164 0.0625,0.09375 -0.005,-0.0079 0.0685,0.10124 0.0625,0.09375 l 11,13.719 c -0.002,-0.0024 -0.0109,0.01827 0,0.03125 0.0164,0.01947 0.0343,0.03469 0.0312,0.03125 -0.005,-0.0057 0.0679,0.06794 0.0625,0.0625 -0.005,-0.0054 0.0682,0.06763 0.0625,0.0625 -0.006,-0.0051 0.0685,0.0673 0.0625,0.0625 -0.006,-0.0048 0.0688,0.0357 0.0625,0.03125 -0.006,-0.0045 0.069,0.06659 0.0625,0.0625 -0.007,-0.0041 0.10047,0.03497 0.0937,0.03125 -0.007,-0.0037 0.0694,0.03459 0.0625,0.03125 -0.007,-0.0033 0.0696,0.03419 0.0625,0.03125 -0.007,-0.0029 0.101,0.03379 0.0937,0.03125 -0.007,-0.0025 0.0699,0.03338 0.0625,0.03125 -0.007,-0.0021 0.10124,0.03296 0.0937,0.03125 -0.007,-0.0017 0.0701,0.0013 0.0625,0 -0.008,-0.0013 0.10138,0.03211 0.0937,0.03125 -0.008,-8.62e-4 0.0702,4.32e-4 0.0625,0 -0.008,-4.32e-4 0.10143,0 0.0937,0 -0.008,0 0.10142,-4.32e-4 0.0937,0 -0.008,4.32e-4 0.0701,-8.62e-4 0.0625,0 -0.008,8.62e-4 0.10132,-0.03254 0.0937,-0.03125 -0.008,0.0013 0.07,-0.0017 0.0625,0 -0.007,0.0017 0.10113,-0.03338 0.0937,-0.03125 -0.007,0.0021 0.0697,-0.03379 0.0625,-0.03125 -0.007,0.0025 0.10084,-0.03419 0.0937,-0.03125 -0.007,0.0029 0.0694,-0.03459 0.0625,-0.03125 -0.007,0.0033 0.0692,-0.03497 0.0625,-0.03125 -0.007,0.0037 0.10025,-0.03534 0.0937,-0.03125 -0.006,0.0041 0.0688,-0.06695 0.0625,-0.0625 -0.006,0.0045 0.0685,-0.03605 0.0625,-0.03125 -0.006,0.0048 0.0682,-0.06763 0.0625,-0.0625 -0.006,0.0051 0.0679,-0.06794 0.0625,-0.0625 -0.005,0.0054 0.0676,-0.06824 0.0625,-0.0625 -0.003,0.0034 0.0148,-0.01178 0.0312,-0.03125 0.0109,-0.01298 0.002,-0.03365 0,-0.03125 l 11,-13.719 c -0.006,0.0075 0.068,-0.10164 0.0625,-0.09375 -0.005,0.0079 0.0674,-0.10201 0.0625,-0.09375 -0.005,0.0083 0.0356,-0.10233 0.0312,-0.09375 -0.004,0.0086 0.0662,-0.10262 0.0625,-0.09375 -0.004,0.0089 0.0343,-0.10285 0.0312,-0.09375 -0.003,0.0091 0.0337,-0.10305 0.0312,-0.09375 -0.002,0.0093 0.033,-0.1032 0.0312,-0.09375 -0.002,0.0094 0.001,-0.1033 0,-0.09375 -0.001,0.0095 4.2e-4,-0.10335 0,-0.09375 -4.2e-4,0.0096 -2.5e-4,-0.1346 0,-0.125 2.5e-4,0.0096 -9.3e-4,-0.10331 0,-0.09375 9.3e-4,0.0096 -0.002,-0.10322 0,-0.09375 0.002,0.0095 -0.0335,-0.10309 -0.0312,-0.09375 0.002,0.0093 -0.0342,-0.10291 -0.0312,-0.09375 0.003,0.0092 -0.0348,-0.13393 -0.0312,-0.125 0.004,0.0089 -0.0354,-0.07116 -0.0312,-0.0625 0.004,0.0087 -0.0673,-0.10209 -0.0625,-0.09375 0.005,0.0083 -0.0366,-0.10174 -0.0312,-0.09375 0.005,0.008 -0.0684,-0.10134 -0.0625,-0.09375 0.006,0.0076 -0.0689,-0.06966 -0.0625,-0.0625 0.006,0.0072 -0.10065,-0.10044 -0.0937,-0.09375 0.007,0.0067 -0.0699,-0.06869 -0.0625,-0.0625 0.007,0.0062 -0.10152,-0.06816 -0.0937,-0.0625 0.008,0.0057 -0.0707,-0.0676 -0.0625,-0.0625 0.008,0.0051 -0.10223,-0.03576 -0.0937,-0.03125 0.008,0.0045 -0.10253,-0.0664 -0.0937,-0.0625 0.009,0.0039 -0.10278,-0.03453 -0.0937,-0.03125 0.009,0.0033 -0.10299,-0.03388 -0.0937,-0.03125 0.009,0.0026 -0.10315,-0.03323 -0.0937,-0.03125 0.009,0.002 -0.13452,-0.0013 -0.125,0 0.01,0.0013 -0.10334,-0.03189 -0.0937,-0.03125 0.01,6.39e-4 -0.10336,3.6e-5 -0.0937,0 l -3.5312,0 0,-12.25 0,-0.03125 c -6e-5,-0.02323 -1.2e-4,-0.06711 0,-0.0625 1.8e-4,0.0069 -5.3e-4,-0.06939 0,-0.0625 5.3e-4,0.0069 -0.0321,-0.06936 -0.0312,-0.0625 8.8e-4,0.0069 -0.001,-0.10055 0,-0.09375 0.001,0.0068 -0.002,-0.06923 0,-0.0625 0.002,0.0067 -0.0332,-0.06914 -0.0312,-0.0625 0.002,0.0066 -0.0335,-0.06904 -0.0312,-0.0625 0.002,0.0065 -0.0338,-0.10017 -0.0312,-0.09375 0.003,0.0064 -0.0341,-0.06878 -0.0312,-0.0625 0.003,0.0063 -0.0344,-0.06862 -0.0312,-0.0625 0.003,0.0061 -0.0348,-0.06846 -0.0312,-0.0625 0.004,0.006 -0.0351,-0.06827 -0.0312,-0.0625 0.004,0.0058 -0.0353,-0.06807 -0.0312,-0.0625 0.004,0.0056 -0.0669,-0.06786 -0.0625,-0.0625 0.004,0.0054 -0.0359,-0.03638 -0.0312,-0.03125 0.005,0.0051 -0.0674,-0.06739 -0.0625,-0.0625 0.005,0.0049 -0.0676,-0.06713 -0.0625,-0.0625 0.005,0.0046 -0.0366,-0.03562 -0.0312,-0.03125 0.005,0.0044 -0.0681,-0.06659 -0.0625,-0.0625 0.006,0.0041 -0.0683,-0.03505 -0.0625,-0.03125 0.006,0.0038 -0.0685,-0.03476 -0.0625,-0.03125 0.006,0.0035 -0.0686,-0.03445 -0.0625,-0.03125 0.006,0.0032 -0.0688,-0.03414 -0.0625,-0.03125 0.006,0.0029 -0.0689,-0.03382 -0.0625,-0.03125 0.006,0.0026 -0.10029,-0.03349 -0.0937,-0.03125 0.007,0.0022 -0.0691,-0.03316 -0.0625,-0.03125 0.007,0.0019 -0.0692,-0.03282 -0.0625,-0.03125 0.007,0.0016 -0.0693,-0.0012 -0.0625,0 0.007,0.0012 -0.10061,-8.78e-4 -0.0937,0 0.007,8.78e-4 -0.0694,-0.03178 -0.0625,-0.03125 0.007,5.3e-4 -0.0694,-1.81e-4 -0.0625,0 0.005,1.21e-4 -0.0393,5.9e-5 -0.0625,0 l -0.0312,0 -11.906,0 c 0.005,3.31e-4 -0.0348,8.89e-4 -0.0625,0 0.003,1.65e-4 -0.0174,3.89e-4 -0.0312,0 0.005,0 -0.0348,-7.79e-4 -0.0625,0 0.003,0 -0.0174,-4.44e-4 -0.0312,0 -0.0277,8.89e-4 -0.068,3.31e-4 -0.0625,0 z" />
    <path
       inkscape:connector-curvature="0"
       style="opacity:0.3;fill:url(#linearGradient11709)"
       id="path494"
       transform="translate(-60,0)"
       clip-path="url(#clipPath3894)"
       d="m 122,61.5 0,13.75 -5,0 11,13.75 11,-13.75 -5,0 0,-13.75 -12,0 z" />
    <path
       inkscape:connector-curvature="0"
       style="opacity:0.15;fill:url(#linearGradient11711)"
       id="path496"
       transform="translate(-60,0)"
       d="m 121.94,60.969 a 0.51873,0.51873 0 0 0 -0.47,0.531 l 0,13.219 -4.4688,0 a 0.51873,0.51873 0 0 0 -0.40625,0.84375 l 11,13.75 a 0.51873,0.51873 0 0 0 0.8125,0 l 11,-13.75 a 0.51873,0.51873 0 0 0 -0.4,-0.844 l -4.4688,0 0,-13.219 a 0.51873,0.51873 0 0 0 -0.53,-0.531 l -12,0 a 0.51873,0.51873 0 0 0 -0.0625,0 z" />
    <path
       inkscape:connector-curvature="0"
       style="fill:url(#linearGradient8796)"
       id="path498"
       d="m 62,60.5 0,13.75 -5,0 11,13.75 11,-13.75 -5,0 0,-13.75 -12,0 z" />
    <path
       inkscape:connector-curvature="0"
       style="opacity:0.3;fill:url(#linearGradient8798)"
       id="path500"
       d="m 68,56 c -9.9411,0 -18,8.0589 -18,18 0,3.6617 1.0907,7.064 2.9688,9.9062 -1.247,-2.364 -1.969,-5.047 -1.969,-7.906 0,-9.3888 7.6112,-17 17,-17 9.3888,0 17,7.6112 17,17 0,2.8588 -0.72212,5.5418 -1.9688,7.9062 1.878,-2.842 2.969,-6.244 2.969,-9.906 0,-9.941 -8.059,-18 -18,-18 z" />
    <path
       style="opacity:0.3;fill:#ffffff"
       inkscape:connector-curvature="0"
       id="path502"
       d="m 68,56 c -9.9411,0 -18,8.0589 -18,18 0,0.16859 0.02664,0.33252 0.03125,0.5 0.267,-9.708 8.196,-17.5 17.969,-17.5 9.7305,0 17.637,7.7253 17.969,17.375 l 0,-1 C 85.63725,63.725 77.73125,56 68.00025,56 Z" />
  </g>
  <g
     id="g14291">
    <path
       d="m 5.2922679,73.685059 0,5.0663 c 0,6.668 5.3645011,12.032 12.0320011,12.032 l 61.049,0 c 6.668,0 12.032,-5.3645 12.032,-12.032 l 0,-5.0663 c 0,6.6681 -5.3645,12.032 -12.032,12.032 l -61.049,0 c -6.668,0 -12.0320011,-5.3643 -12.0320011,-12.032 z"
       id="path64"
       inkscape:connector-curvature="0"
       style="opacity:0.4;fill:url(#linearGradient14237);fill-opacity:1" />
    <path
       inkscape:connector-curvature="0"
       id="path14214"
       d="m 5.2929688,72.717592 0,1.15039 c 0,6.667718 5.3632502,12.031248 12.0312502,12.031248 l 61.048828,0 c 6.6675,0 12.03125,-5.36313 12.03125,-12.031248 l 0,-1.15039 c 0,6.668098 -5.36375,12.031248 -12.03125,12.031248 l -61.048828,0 c -6.668,0 -12.0312502,-5.36355 -12.0312502,-12.031248 z"
       style="opacity:0.5;fill:url(#linearGradient14245);fill-opacity:1" />
  </g>
</svg>
