<svg height="96" width="96" xmlns="http://www.w3.org/2000/svg" xmlns:xlink="http://www.w3.org/1999/xlink" xmlns:sodipodi="http://sodipodi.sourceforge.net/DTD/sodipodi-0.dtd" xmlns:inkscape="http://www.inkscape.org/namespaces/inkscape">
 <defs>
  <linearGradient id="linearGradient6054">
   <stop stop-color="#bababa"/>
   <stop stop-color="#dedede" offset="1"/>
  </linearGradient>
  <linearGradient x2="0" xlink:href="#linearGradient3865" y1="32" y2="40" gradientUnits="userSpaceOnUse" id="linearGradient3875-2" gradientTransform="matrix(1 0 0 1 0 36)"/>
  <linearGradient id="linearGradient3865">
   <stop/>
   <stop stop-opacity="0" offset="1"/>
  </linearGradient>
  <filter x="-0.116" y="-0.399" height="1.797" color-interpolation-filters="sRGB" id="filter4020" width="1.232">
   <feGaussianBlur stdDeviation="1.1625"/>
  </filter>
  <filter x="-0.065" y="-0.186" height="1.372" color-interpolation-filters="sRGB" id="filter4078" width="1.129">
   <feGaussianBlur stdDeviation="0.7025"/>
  </filter>
  <linearGradient x2="0" y1="26" y2="32" gradientUnits="userSpaceOnUse" id="linearGradient4060">
   <stop stop-color="#656565"/>
   <stop stop-color="#b9b9b9" offset="1"/>
  </linearGradient>
  <linearGradient x2="0" xlink:href="#linearGradient3967-8" y1="30" y2="18" gradientUnits="userSpaceOnUse" id="linearGradient4058" gradientTransform="matrix(1 0 0 -1 0 45)"/>
  <linearGradient id="linearGradient3967-8">
   <stop stop-color="#fff"/>
   <stop stop-color="#8e8e8e" offset="0.75"/>
   <stop stop-color="#cacaca" offset="1"/>
  </linearGradient>
  <linearGradient x2="0" xlink:href="#linearGradient3865" y1="32" y2="40" gradientUnits="userSpaceOnUse" id="linearGradient3871"/>
  <linearGradient x2="0" xlink:href="#linearGradient6054" y1="987.86" y2="1034.5" gradientUnits="userSpaceOnUse" id="linearGradient6080" gradientTransform="matrix(0.95557 0 0 0.88471 1.761 -1919.8)"/>
  <linearGradient x2="0" xlink:href="#linearGradient6054" y1="987.86" y2="1034.5" gradientUnits="userSpaceOnUse" id="linearGradient6086" gradientTransform="matrix(0.95557 0 0 0.88471 1.761 -1884.4)"/>
  <linearGradient x2="0" xlink:href="#linearGradient3967-8" y1="26" y2="30" gradientUnits="userSpaceOnUse" id="linearGradient6089" gradientTransform="matrix(0.90524 0 0 0.94683 3.828 994.82)"/>
  <linearGradient x2="0" xlink:href="#linearGradient3967-8" y1="26" y2="30" gradientUnits="userSpaceOnUse" id="linearGradient6098" gradientTransform="matrix(0.90524 0 0 0.94683 3.828 958.98)"/>
  <path d="m37 21.969c-1.1143 0-2.0312 0.91693-2.0312 2.0312v1 1 2 1c0 1.1143 0.91693 2.0312 2.0312 2.0312h22c1.1143 0 2.0312-0.91693 2.0312-2.0312v-1-2-1-1c0-1.1143-0.91693-2.0312-2.0312-2.0312h-2c-1.1143 0-2.0312 0.91693-2.0312 2.0312v0.96875h-0.96875-12.969v-0.96875c0-1.1143-0.91693-2.0312-2.0312-2.0312h-2z" fill="url(#linearGradient4060)" color="#000000" id="SVGCleanerId_0"/>
  <path d="m37 22c-0.554 0-1-0.446-1-1v-1-1-2-1c0-0.554 0.446-1 1-1h22c0.554 0 1 0.446 1 1v1 2 1 1c0 0.554-0.446 1-1 1h-2c-0.554 0-1-0.446-1-1v-1c0-0.554-0.446-1-1-1h-1-13c-0.554 0-1 0.446-1 1v1c0 0.554-0.446 1-1 1h-2z" fill="url(#linearGradient4058)" color="#000000" id="SVGCleanerId_1"/>
 </defs>
 <g transform="matrix(1 0 0 1 0 -956.36)">
  <rect x="3.353" rx="12.724" y="959.35" fill-opacity="0.02" height="89.98" width="89.62"/>
  <rect x="3.959" rx="12.552" y="959.96" fill-opacity="0.039" height="88.76" width="88.41"/>
  <rect x="4.564" rx="12.38" y="960.57" fill-opacity="0.078" height="87.55" width="87.2"/>
  <rect x="5.17" rx="12.208" y="961.18" fill-opacity="0.157" height="86.33" width="85.991"/>
  <path d="m17.75 5.4062c-6.642 0-11.969 5.3948-11.969 12.063l0.0002 61.031c0 6.668 5.3268 12.031 11.969 12.031h60.812c6.642 0 11.969-5.363 11.969-12.031v-61.031c0-6.668-5.327-12.063-11.969-12.063l-60.812 0.0002z" fill="#e6e6e6" transform="matrix(1 0 0 1 0 956.36)"/>
  <rect x="14.484" rx="3.982" ry="3.963" y="969.69" fill="#999" height="30.11" width="67.13"/>
  <path d="m5.7756 1029.8v5.0663c0 6.668 5.3434 12.032 11.985 12.032h60.809c6.6418 0 11.985-5.3645 11.985-12.032v-5.0663c0 6.6681-5.3434 12.032-11.985 12.032h-60.809c-6.6418 0-11.985-5.3643-11.985-12.032z" fill-opacity="0.19"/>
  <path d="m5.7756 1033.9v1.0133c0 6.668 5.3434 12.032 11.985 12.032h60.809c6.6418 0 11.985-5.3645 11.985-12.032v-1.0133c0 6.6681-5.3434 12.032-11.985 12.032h-60.809c-6.6418 0-11.985-5.3644-11.985-12.032z" fill-opacity="0.098"/>
  <rect x="14.484" rx="3.982" ry="3.954" y="1005.1" fill="#999" height="30.04" width="67.13"/>
  <rect x="15.01" rx="3.919" ry="3.509" y="-1032.1" fill="url(#linearGradient6080)" height="26.664" width="66.07" transform="matrix(1 0 0 -1 0 0)"/>
  <rect x="15.01" rx="3.919" ry="3.509" y="-996.7" fill="url(#linearGradient6086)" height="26.664" width="66.07" transform="matrix(1 0 0 -1 0 0)"/>
  <path d="m38 65 2 7h20l-2-6.9282" stroke-width="3" fill="none" stroke="url(#linearGradient3875-2)" filter="url(#filter4020)" opacity="0.25" stroke-linejoin="round" transform="matrix(0.90524 0 0 0.94683 3.828 958.84)"/>
  <g filter="url(#filter4078)" opacity="0.2" transform="matrix(0.90524 0 0 0.94683 3.828 961.82)">
   <use xlink:href="#SVGCleanerId_0" transform="matrix(1 0 0 -1 0 45)"/>
   <use xlink:href="#SVGCleanerId_1"/>
  </g>
  <path d="m38 29 2 7h20l-2-6.9282" stroke-width="3" fill="none" stroke="url(#linearGradient3871)" filter="url(#filter4020)" opacity="0.25" stroke-linejoin="round" transform="matrix(0.90524 0 0 0.94683 3.828 957.08)"/>
  <path d="m37.321 979.78c-1.0087 0-1.8388 0.86818-1.8388 1.9232v0.94682 0.94683 1.8936 0.94683c0 1.0551 0.83004 1.9232 1.8388 1.9232h19.915c1.0087 0 1.8388-0.86817 1.8388-1.9232v-0.94683-1.8936-0.94683-0.94682c0-1.0551-0.83004-1.9232-1.8388-1.9232h-1.8105c-1.0087 0-1.8388 0.86818-1.8388 1.9232v0.91724h-0.87695-11.74v-0.91724c0-1.0551-0.83004-1.9232-1.8388-1.9232h-1.8105z" fill="#b3b3b3" color="#000000"/>
  <path d="m37.321 980.75c-0.5015 0-0.90524 0.42228-0.90524 0.94683v0.94682 0.94683 1.8936 0.94683c0 0.52453 0.40373 0.94683 0.90524 0.94683h19.915c0.5015 0 0.90524-0.4223 0.90524-0.94683v-0.94683-1.8936-0.94683-0.94682c0-0.52455-0.40374-0.94683-0.90524-0.94683h-1.8105c-0.5015 0-0.90524 0.42228-0.90524 0.94683v0.94682c0 0.52454-0.40374 0.94683-0.90523 0.94683h-0.90524-11.768c-0.5015 0-0.90524-0.42229-0.90524-0.94683v-0.94682c0-0.52455-0.40374-0.94683-0.90524-0.94683h-1.8105z" fill="url(#linearGradient6098)" color="#000000"/>
  <g filter="url(#filter4078)" opacity="0.2" transform="matrix(0.90524 0 0 0.94683 3.828 997.66)">
   <use xlink:href="#SVGCleanerId_0" transform="matrix(1 0 0 -1 0 45)"/>
   <use xlink:href="#SVGCleanerId_1"/>
  </g>
  <path d="m37.321 1015.6c-1.0087 0-1.8388 0.8682-1.8388 1.9232v0.9469 0.9468 1.8936 0.9469c0 1.055 0.83004 1.9233 1.8388 1.9233h19.915c1.0087 0 1.8388-0.8683 1.8388-1.9233v-0.9469-1.8936-0.9468-0.9469c0-1.055-0.83004-1.9232-1.8388-1.9232h-1.8105c-1.0087 0-1.8388 0.8682-1.8388 1.9232v0.9173h-0.87695-11.74v-0.9173c0-1.055-0.83004-1.9232-1.8388-1.9232h-1.8105z" fill="#b3b3b3" color="#000000"/>
  <path d="m37.321 1016.6c-0.5015 0-0.90524 0.4222-0.90524 0.9468v0.9469 0.9468 1.8936 0.9469c0 0.5245 0.40373 0.9468 0.90524 0.9468h19.915c0.5015 0 0.90524-0.4223 0.90524-0.9468v-0.9469-1.8936-0.9468-0.9469c0-0.5246-0.40374-0.9468-0.90524-0.9468h-1.8105c-0.5015 0-0.90524 0.4222-0.90524 0.9468v0.9469c0 0.5246-0.40374 0.9468-0.90523 0.9468h-0.90524-11.768c-0.5015 0-0.90524-0.4222-0.90524-0.9468v-0.9469c0-0.5246-0.40374-0.9468-0.90524-0.9468h-1.8105z" fill="url(#linearGradient6089)" color="#000000"/>
 </g>
</svg>
