<svg height="96" width="96" xmlns="http://www.w3.org/2000/svg" xmlns:xlink="http://www.w3.org/1999/xlink" xmlns:sodipodi="http://sodipodi.sourceforge.net/DTD/sodipodi-0.dtd" xmlns:inkscape="http://www.inkscape.org/namespaces/inkscape">
 <defs>
  <linearGradient x2="0" y1="20.221" y2="138.66" gradientUnits="userSpaceOnUse" id="linearGradient3613-94">
   <stop stop-color="#fff"/>
   <stop stop-color="#fff" stop-opacity="0" offset="1"/>
  </linearGradient>
  <filter x="-0.192" y="-0.192" height="1.384" color-interpolation-filters="sRGB" id="filter3794-787" width="1.384">
   <feGaussianBlur stdDeviation="5.28"/>
  </filter>
  <clipPath id="clipPath3613-35">
   <use xlink:href="#SVGCleanerId_0"/>
  </clipPath>
  <linearGradient id="linearGradient3892">
   <stop/>
   <stop stop-opacity="0" offset="1"/>
  </linearGradient>
  <linearGradient x2="0" y1="90" y2="5.988" gradientUnits="userSpaceOnUse" id="linearGradient7324" gradientTransform="matrix(1.1163 0 0 1.0837 -5.338 -5.565)">
   <stop stop-color="#e1e1e1"/>
   <stop stop-color="#f0f0f0" offset="1"/>
  </linearGradient>
  <linearGradient x1="80" x2="32" xlink:href="#linearGradient3892" y1="40" y2="64" gradientUnits="userSpaceOnUse" id="linearGradient7327" gradientTransform="matrix(0.91841 -0.70472 0.70472 0.91841 -29.91 37.743)"/>
  <linearGradient x1="80" x2="32" xlink:href="#linearGradient3892" y1="40" y2="64" gradientUnits="userSpaceOnUse" id="linearGradient7329" gradientTransform="matrix(-0.91841 0.70472 -0.70472 -0.91841 125.91 58.26)"/>
  <rect x="6" rx="6" y="6" height="84" id="SVGCleanerId_0" width="84"/>
 </defs>
 <g transform="matrix(1 0 0 1 0 -956.36)">
  <rect x="3.353" rx="12.724" y="959.35" fill-opacity="0.02" height="89.98" width="89.62"/>
  <rect x="3.959" rx="12.552" y="959.96" fill-opacity="0.039" height="88.76" width="88.41"/>
  <rect x="4.564" rx="12.38" y="960.57" fill-opacity="0.078" height="87.55" width="87.2"/>
  <rect x="5.17" rx="12.208" y="961.18" fill-opacity="0.157" height="86.33" width="85.991"/>
  <path d="m17.75 5.4062c-6.642 0-11.969 5.3948-11.969 12.063l0.0002 61.031c0 6.668 5.3268 12.031 11.969 12.031h60.812c6.642 0 11.969-5.363 11.969-12.031v-61.031c0-6.668-5.327-12.063-11.969-12.063l-60.812 0.0002z" fill="url(#linearGradient7324)" transform="matrix(1 0 0 1 0 956.36)"/>
  <path d="m5.7756 1033.9v1.0133c0 6.668 5.3434 12.032 11.985 12.032h60.809c6.6418 0 11.985-5.3645 11.985-12.032v-1.0133c0 6.6681-5.3434 12.032-11.985 12.032h-60.809c-6.6418 0-11.985-5.3644-11.985-12.032z" fill-opacity="0.098"/>
  <path d="m5.7756 1029.8v5.0663c0 6.668 5.3434 12.032 11.985 12.032h60.809c6.6418 0 11.985-5.3645 11.985-12.032v-5.0663c0 6.6681-5.3434 12.032-11.985 12.032h-60.809c-6.6418 0-11.985-5.3643-11.985-12.032z" fill-opacity="0.235"/>
  <rect x="15" stroke-width="0.5" rx="12" y="15" clip-path="url(#clipPath3613-35)" fill="url(#linearGradient3613-94)" stroke="#fff" height="66" filter="url(#filter3794-787)" opacity="0.5" stroke-linecap="round" width="66" transform="matrix(1 0 0 1 -0.148 954.62)"/>
  <g transform="matrix(1 0 0 1 -0.148 956.28)">
   <path d="m65.259 17.247 0.19096 17.363 4.592-3.5236c9.3409 12.173 7.0448 29.614-5.1285 38.955-5.8458 4.4857-13.234 6.4624-20.539 5.5006l-1.2087 9.1808c9.7406 1.2824 19.591-1.3533 27.386-7.3342 16.231-12.455 19.293-35.709 6.838-51.94l4.592-3.5236-16.722-4.6784z" fill="url(#linearGradient7327)" color="#000000" opacity="0.2"/>
   <path d="m30.741 78.753-0.191-17.363-4.592 3.523c-9.341-12.173-7.045-29.614 5.129-38.955 5.846-4.485 13.234-6.462 20.539-5.5l1.2087-9.1808c-9.741-1.2825-19.592 1.353-27.386 7.334-16.231 12.455-19.292 35.709-6.838 51.94l-4.592 3.5236 16.722 4.6784z" fill="url(#linearGradient7329)" color="#000000" opacity="0.2"/>
   <g fill-rule="evenodd" transform="matrix(0.887 0 0 0.887 118.09 -9.95)">
    <path d="m-86.682 70.021s-2.2303 1.2982 1.5891 1.7362c4.6278 0.52836 6.9927 0.45227 12.091-0.51144 0 0 1.3431 0.84021 3.2156 1.5679-11.433 4.8982-25.875-0.28382-16.896-2.7927z" fill="#0074bd"/>
    <path d="m-88.08 63.628s-2.5019 1.8524 1.3204 2.2474c4.944 0.5104 8.8468 0.55226 15.604-0.74823 0 0 0.93244 0.94717 2.4009 1.4648-13.821 4.0426-29.214 0.31805-19.326-2.964z" fill="#0074bd"/>
    <path d="m-76.304 52.781c2.8185 3.2444-0.73906 6.1616-0.73906 6.1616s7.1525-3.6917 3.8684-8.3168c-3.0684-4.3112-5.4208-6.4528 7.3147-13.839 0.000129 0-19.992 4.9918-10.444 15.994z" fill="#ea2d2e"/>
    <path d="m-61.183 74.75s1.6511 1.3611-1.8185 2.4137c-6.5975 1.9983-27.465 2.6011-33.261 0.07996-2.082-0.90686 1.8242-2.1638 3.0532-2.4293 1.2815-0.27723 2.0132-0.22659 2.0132-0.22659-2.3172-1.6317-14.977 3.2046-6.4297 4.5917 23.308 3.7781 42.488-1.7017 36.442-4.4294z" fill="#0074bd"/>
    <path d="m-85.609 57.003s-10.613 2.5215-3.7582 3.4379c2.8952 0.38742 8.6634 0.29828 14.04-0.15282 4.393-0.36869 8.8016-1.1572 8.8016-1.1572s-1.5479 0.664-2.6685 1.4288c-10.78 2.8352-31.6 1.5148-25.605-1.3838 5.0675-2.4515 9.1898-2.1729 9.1898-2.1729z" fill="#0074bd"/>
    <path d="m-66.569 67.644c10.957-5.6922 5.8904-11.163 2.3541-10.426-0.86475 0.18047-1.2527 0.33678-1.2527 0.33678s0.32218-0.50472 0.93567-0.72187c6.9959-2.4584 12.375 7.2531-2.256 11.099-0.00013 0 0.1682-0.15244 0.21896-0.28808z" fill="#0074bd"/>
    <path d="m-73.174 24.859s6.0668 6.0703-5.756 15.402c-9.4811 7.4886-2.1617 11.757-0.0034 16.636-5.5348-4.9933-9.5945-9.3895-6.8715-13.48 3.9987-6.0043 15.078-8.9163 12.631-18.558z" fill="#ea2d2e"/>
    <path d="m-84.532 83.074c10.515 0.67227 26.667-0.37411 27.049-5.3501 0 0-0.73479 1.8863-8.6909 3.383-8.9758 1.6898-20.049 1.4931-26.614 0.40912 0 0 1.3449 1.1132 8.2557 1.5579z" fill="#0074bd"/>
   </g>
  </g>
 </g>
</svg>
