<svg height="96" width="96" xmlns="http://www.w3.org/2000/svg" xmlns:xlink="http://www.w3.org/1999/xlink" xmlns:sodipodi="http://sodipodi.sourceforge.net/DTD/sodipodi-0.dtd" xmlns:inkscape="http://www.inkscape.org/namespaces/inkscape">
 <defs>
  <linearGradient x1="213.86" x2="213.98" gradientUnits="userSpaceOnUse" id="SVGID_38_" gradientTransform="matrix(1 0 0 -1 -270.96 -122.07)">
   <stop stop-color="#fd7e36" stop-opacity="1"/>
   <stop stop-color="#bd6f4f" stop-opacity="1" offset="1"/>
  </linearGradient>
  <linearGradient x2="0" y1="90" y2="5.988" gradientUnits="userSpaceOnUse" id="linearGradient6254" inkscape:collect="always" gradientTransform="matrix(1.25182 0 0 1.25182 -14.935 -16.562)">
   <stop stop-color="#911935" stop-opacity="1"/>
   <stop stop-color="#dd6876" stop-opacity="1" offset="1"/>
  </linearGradient>
  <radialGradient cy="-168.5" r="33.06" gradientUnits="userSpaceOnUse" id="radialGradient8285" cx="232.41" inkscape:collect="always" gradientTransform="matrix(1 0 0 -1 -270.96 -122.07)">
   <stop stop-color="#d1e7ee" stop-opacity="1"/>
   <stop stop-color="#cde4ec" stop-opacity="1" offset="0.098"/>
   <stop stop-color="#c0dce8" stop-opacity="1" offset="0.203"/>
   <stop stop-color="#add0e1" stop-opacity="1" offset="0.298"/>
   <stop stop-color="#3982b1" stop-opacity="1" offset="0.65"/>
   <stop stop-color="#3474aa" stop-opacity="1" offset="0.72"/>
   <stop stop-color="#285699" stop-opacity="1" offset="0.899"/>
   <stop stop-color="#244b93" stop-opacity="1" offset="1"/>
  </radialGradient>
  <radialGradient cy="-168.28" r="33.26" gradientUnits="userSpaceOnUse" id="radialGradient8287" cx="232.39" inkscape:collect="always" gradientTransform="matrix(1 0 0 -1 -270.96 -122.07)">
   <stop stop-color="#d8eeed" stop-opacity="1" offset="0.004"/>
   <stop stop-color="#98d8d7" stop-opacity="1" offset="0.173"/>
   <stop stop-color="#8ed3d3" stop-opacity="1" offset="0.224"/>
   <stop stop-color="#74c6ca" stop-opacity="1" offset="0.309"/>
   <stop stop-color="#49b1ba" stop-opacity="1" offset="0.418"/>
   <stop stop-color="#3caab5" stop-opacity="1" offset="0.448"/>
   <stop stop-color="#2e81a4" stop-opacity="1" offset="0.56"/>
   <stop stop-color="#215b94" stop-opacity="1" offset="0.684"/>
   <stop stop-color="#19448b" stop-opacity="1" offset="0.783"/>
   <stop stop-color="#163b87" stop-opacity="1" offset="0.845"/>
   <stop stop-color="#0b317d" stop-opacity="1" offset="1"/>
  </radialGradient>
  <radialGradient cy="-168.44" r="33.18" gradientUnits="userSpaceOnUse" id="radialGradient8289" cx="232.39" inkscape:collect="always" gradientTransform="matrix(1 0 0 -1 -270.96 -122.07)">
   <stop stop-color="#d8eeed" stop-opacity="1" offset="0.004"/>
   <stop stop-color="#98d8d7" stop-opacity="1" offset="0.173"/>
   <stop stop-color="#8ed3d3" stop-opacity="1" offset="0.224"/>
   <stop stop-color="#74c6ca" stop-opacity="1" offset="0.309"/>
   <stop stop-color="#49b1ba" stop-opacity="1" offset="0.418"/>
   <stop stop-color="#3caab5" stop-opacity="1" offset="0.448"/>
   <stop stop-color="#2e81a4" stop-opacity="1" offset="0.56"/>
   <stop stop-color="#215b94" stop-opacity="1" offset="0.684"/>
   <stop stop-color="#19448b" stop-opacity="1" offset="0.783"/>
   <stop stop-color="#163b87" stop-opacity="1" offset="0.845"/>
   <stop stop-color="#152469" stop-opacity="1" offset="1"/>
  </radialGradient>
  <radialGradient cy="-168.42" r="33.19" xlink:href="#radialGradient8287" gradientUnits="userSpaceOnUse" id="radialGradient8291" cx="232.41" inkscape:collect="always" gradientTransform="matrix(1 0 0 -1 -270.96 -122.07)"/>
  <linearGradient x1="230.58" x2="225.41" y1="-169.54" y2="-187.73" gradientUnits="userSpaceOnUse" id="linearGradient8293" inkscape:collect="always" gradientTransform="matrix(1 0 0 -1 -270.96 -122.07)">
   <stop stop-color="#98d8d7" stop-opacity="1"/>
   <stop stop-color="#152469" stop-opacity="1" offset="1"/>
  </linearGradient>
  <radialGradient cy="-168.4" r="33.31" xlink:href="#radialGradient8289" gradientUnits="userSpaceOnUse" id="radialGradient8295" cx="232.42" inkscape:collect="always" gradientTransform="matrix(1 0 0 -1 -270.96 -122.07)"/>
  <linearGradient x1="200.45" x2="207.31" gradientUnits="userSpaceOnUse" id="linearGradient8297" inkscape:collect="always" gradientTransform="matrix(1 0 0 -1 -270.96 -122.07)">
   <stop stop-color="#def3f1" stop-opacity="1"/>
   <stop stop-color="#5085bc" stop-opacity="1" offset="1"/>
  </linearGradient>
  <linearGradient x1="223.9" x2="230.89" xlink:href="#linearGradient8297" gradientUnits="userSpaceOnUse" id="linearGradient8299" inkscape:collect="always" gradientTransform="matrix(1 0 0 -1 -270.96 -122.07)"/>
  <linearGradient x1="206.64" x2="230.79" gradientUnits="userSpaceOnUse" id="linearGradient8301" inkscape:collect="always" gradientTransform="matrix(1 0 0 -1 -270.96 -122.07)">
   <stop stop-color="#094992" stop-opacity="1"/>
   <stop stop-color="#8bcde2" stop-opacity="1" offset="0.669"/>
   <stop stop-color="#e6f6f9" stop-opacity="1" offset="1"/>
  </linearGradient>
  <linearGradient x1="207.23" x2="230.32" gradientUnits="userSpaceOnUse" id="linearGradient8305" inkscape:collect="always" gradientTransform="matrix(1 0 0 -1 -270.96 -122.07)">
   <stop stop-color="#bbc7e1" stop-opacity="1" offset="0.006"/>
   <stop stop-color="#7090c3" stop-opacity="1" offset="0.225"/>
   <stop stop-color="#c8eaef" stop-opacity="1" offset="0.545"/>
   <stop stop-color="#ffffff" stop-opacity="1" offset="1"/>
  </linearGradient>
  <linearGradient x1="206.7" x2="230.79" gradientUnits="userSpaceOnUse" id="linearGradient8307" inkscape:collect="always" gradientTransform="matrix(1 0 0 -1 -270.96 -122.07)">
   <stop stop-color="#7090c3" stop-opacity="1" offset="0.006"/>
   <stop stop-color="#c1e7ed" stop-opacity="1" offset="0.545"/>
   <stop stop-color="#ffffff" stop-opacity="1" offset="1"/>
  </linearGradient>
  <radialGradient cy="-167.6" r="0.082" gradientUnits="userSpaceOnUse" id="radialGradient8309" cx="206.62" inkscape:collect="always" gradientTransform="matrix(1 0 0 -1 -270.96 -122.07)">
   <stop stop-color="#7e9ec4" stop-opacity="1"/>
   <stop stop-color="#0a50a1" stop-opacity="1" offset="1"/>
  </radialGradient>
  <radialGradient cy="-188.17" r="40.777" gradientUnits="userSpaceOnUse" id="radialGradient8311" cx="190.72" inkscape:collect="always" gradientTransform="matrix(1 0 0 -1 -270.96 -122.07)">
   <stop stop-color="#d8eeed" stop-opacity="1" offset="0.004"/>
   <stop stop-color="#98d8d7" stop-opacity="1" offset="0.173"/>
   <stop stop-color="#8ed3d3" stop-opacity="1" offset="0.224"/>
   <stop stop-color="#74c6ca" stop-opacity="1" offset="0.309"/>
   <stop stop-color="#49b1ba" stop-opacity="1" offset="0.418"/>
   <stop stop-color="#3caab5" stop-opacity="1" offset="0.448"/>
   <stop stop-color="#369fb5" stop-opacity="1" offset="0.499"/>
   <stop stop-color="#2a88b4" stop-opacity="1" offset="0.631"/>
   <stop stop-color="#257fb4" stop-opacity="1" offset="0.713"/>
   <stop stop-color="#4161ab" stop-opacity="1" offset="1"/>
  </radialGradient>
  <radialGradient cy="-169.23" r="30.777" gradientUnits="userSpaceOnUse" id="radialGradient8313" cx="232.38" inkscape:collect="always" gradientTransform="matrix(1 0 0 -1 -270.96 -122.07)">
   <stop stop-color="#fcf5b0" stop-opacity="1"/>
   <stop stop-color="#f7eda0" stop-opacity="1" offset="0.166"/>
   <stop stop-color="#f3e591" stop-opacity="1" offset="0.285"/>
   <stop stop-color="#fcd118" stop-opacity="1" offset="0.65"/>
   <stop stop-color="#f7a50c" stop-opacity="1" offset="0.802"/>
   <stop stop-color="#f38603" stop-opacity="1" offset="0.929"/>
   <stop stop-color="#f27b00" stop-opacity="1" offset="1"/>
  </radialGradient>
  <linearGradient x1="252.82" x2="252.69" y1="-194.26" y2="-194.74" gradientUnits="userSpaceOnUse" id="linearGradient8315" inkscape:collect="always" gradientTransform="matrix(1 0 0 -1 -270.96 -122.07)">
   <stop stop-color="#de980d" stop-opacity="1"/>
   <stop stop-color="#a85d10" stop-opacity="1" offset="1"/>
  </linearGradient>
  <linearGradient x1="252.83" x2="258.91" gradientUnits="userSpaceOnUse" id="linearGradient8317" inkscape:collect="always" gradientTransform="matrix(1 0 0 -1 -270.96 -122.07)">
   <stop stop-color="#deb150" stop-opacity="1"/>
   <stop stop-color="#fff8b3" stop-opacity="1" offset="1"/>
  </linearGradient>
  <linearGradient x2="0" y1="-173.29" y2="-173.69" gradientUnits="userSpaceOnUse" id="linearGradient8319" inkscape:collect="always" gradientTransform="matrix(1 0 0 -1 -270.96 -122.07)">
   <stop stop-color="#c67c0c" stop-opacity="1" offset="0.006"/>
   <stop stop-color="#de980d" stop-opacity="1" offset="1"/>
  </linearGradient>
  <linearGradient x1="257.98" x2="258.23" y1="-172.83" y2="-173.24" gradientUnits="userSpaceOnUse" id="linearGradient8321" inkscape:collect="always" gradientTransform="matrix(1 0 0 -1 -270.96 -122.07)">
   <stop stop-color="#fed40f" stop-opacity="1" offset="0.006"/>
   <stop stop-color="#a85d10" stop-opacity="1" offset="1"/>
  </linearGradient>
  <linearGradient x1="258.63" x2="258.47" xlink:href="#linearGradient8321" y1="-173.15" y2="-173.33" gradientUnits="userSpaceOnUse" id="linearGradient8323" inkscape:collect="always" gradientTransform="matrix(1 0 0 -1 -270.96 -122.07)"/>
  <linearGradient x1="233.97" x2="257.97" gradientUnits="userSpaceOnUse" id="linearGradient8325" inkscape:collect="always" gradientTransform="matrix(1 0 0 -1 -270.96 -122.07)">
   <stop stop-color="#fff8fb" stop-opacity="1"/>
   <stop stop-color="#fec236" stop-opacity="1" offset="1"/>
  </linearGradient>
  <linearGradient x1="255.34" x2="254.81" y1="-183.53" y2="-183.38" gradientUnits="userSpaceOnUse" id="linearGradient8327" inkscape:collect="always" gradientTransform="matrix(1 0 0 -1 -270.96 -122.07)">
   <stop stop-color="#b37e00" stop-opacity="1"/>
   <stop stop-color="#ff9e00" stop-opacity="1" offset="1"/>
  </linearGradient>
  <linearGradient x1="252.55" x2="252.28" y1="-193.98" y2="-194.58" gradientUnits="userSpaceOnUse" id="linearGradient8329" inkscape:collect="always" gradientTransform="matrix(1 0 0 -1 -270.96 -122.07)">
   <stop stop-color="#ffd100" stop-opacity="1" offset="0.006"/>
   <stop stop-color="#a8710a" stop-opacity="1" offset="1"/>
  </linearGradient>
  <linearGradient x1="227.63" x2="252.09" gradientUnits="userSpaceOnUse" id="linearGradient8331" inkscape:collect="always" gradientTransform="matrix(1 0 0 -1 -270.96 -122.07)">
   <stop stop-color="#de980d" stop-opacity="1"/>
   <stop stop-color="#fdda10" stop-opacity="1" offset="0.4"/>
   <stop stop-color="#de980d" stop-opacity="1" offset="1"/>
  </linearGradient>
  <linearGradient x1="227.46" x2="227.06" y1="-192.88" y2="-192.45" gradientUnits="userSpaceOnUse" id="linearGradient8333" inkscape:collect="always" gradientTransform="matrix(1 0 0 -1 -270.96 -122.07)">
   <stop stop-color="#de980d" stop-opacity="1"/>
   <stop stop-color="#de980d" stop-opacity="1" offset="0.1"/>
   <stop stop-color="#fdda10" stop-opacity="1" offset="0.7"/>
   <stop stop-color="#de980d" stop-opacity="1" offset="1"/>
  </linearGradient>
  <linearGradient x1="227.47" x2="227.75" y1="-192.15" y2="-192.65" gradientUnits="userSpaceOnUse" id="linearGradient8335" inkscape:collect="always" gradientTransform="matrix(1 0 0 -1 -270.96 -122.07)">
   <stop stop-color="#de980d" stop-opacity="1"/>
   <stop stop-color="#febf0f" stop-opacity="1" offset="0.4"/>
   <stop stop-color="#fed40f" stop-opacity="1" offset="0.8"/>
   <stop stop-color="#de980d" stop-opacity="1" offset="1"/>
  </linearGradient>
  <radialGradient cy="-170.85" r="0.302" gradientUnits="userSpaceOnUse" id="radialGradient8337" cx="233.66" inkscape:collect="always" gradientTransform="matrix(1 0 0 -1 -270.96 -122.07)">
   <stop stop-color="#feeb71" stop-opacity="1"/>
   <stop stop-color="#de980d" stop-opacity="1" offset="1"/>
  </radialGradient>
  <linearGradient x1="230.95" x2="230.38" y1="-181.77" y2="-181.61" gradientUnits="userSpaceOnUse" id="linearGradient8339" inkscape:collect="always" gradientTransform="matrix(1 0 0 -1 -270.96 -122.07)">
   <stop stop-color="#ffefbb" stop-opacity="1" offset="0.006"/>
   <stop stop-color="#ffbf00" stop-opacity="1" offset="1"/>
  </linearGradient>
  <linearGradient x1="232.79" x2="258.87" gradientUnits="userSpaceOnUse" id="linearGradient8341" inkscape:collect="always" gradientTransform="matrix(1 0 0 -1 -270.96 -122.07)">
   <stop stop-color="#fca859" stop-opacity="1" offset="0.006"/>
   <stop stop-color="#fdc30f" stop-opacity="1" offset="0.213"/>
   <stop stop-color="#b51c00" stop-opacity="1" offset="1"/>
  </linearGradient>
  <linearGradient x1="233.01" x2="258.91" gradientUnits="userSpaceOnUse" id="linearGradient8343" inkscape:collect="always" gradientTransform="matrix(1 0 0 -1 -270.96 -122.07)">
   <stop stop-color="#fff6d8" stop-opacity="1" offset="0.006"/>
   <stop stop-color="#fdda10" stop-opacity="1" offset="0.525"/>
   <stop stop-color="#f9bd0c" stop-opacity="1" offset="1"/>
  </linearGradient>
  <linearGradient x1="252.13" x2="251.76" y1="-194.02" y2="-193.7" gradientUnits="userSpaceOnUse" id="linearGradient8345" inkscape:collect="always" gradientTransform="matrix(1 0 0 -1 -270.96 -122.07)">
   <stop stop-color="#eab949" stop-opacity="1"/>
   <stop stop-color="#edc25a" stop-opacity="1" offset="0.072"/>
   <stop stop-color="#f3d883" stop-opacity="1" offset="0.278"/>
   <stop stop-color="#f8e9a4" stop-opacity="1" offset="0.478"/>
   <stop stop-color="#fcf5bc" stop-opacity="1" offset="0.67"/>
   <stop stop-color="#fefcca" stop-opacity="1" offset="0.848"/>
   <stop stop-color="#ffffcf" stop-opacity="1" offset="1"/>
  </linearGradient>
  <radialGradient cy="-165" r="29.22" gradientUnits="userSpaceOnUse" id="radialGradient8347" cx="231.44" inkscape:collect="always" gradientTransform="matrix(1 0 0 -1 -270.96 -122.07)">
   <stop stop-color="#efd916" stop-opacity="1" offset="0.004"/>
   <stop stop-color="#efd516" stop-opacity="1" offset="0.105"/>
   <stop stop-color="#edc715" stop-opacity="1" offset="0.216"/>
   <stop stop-color="#ebb213" stop-opacity="1" offset="0.331"/>
   <stop stop-color="#e89312" stop-opacity="1" offset="0.449"/>
   <stop stop-color="#e36d0f" stop-opacity="1" offset="0.567"/>
   <stop stop-color="#e04d0d" stop-opacity="1" offset="0.65"/>
   <stop stop-color="#ce2907" stop-opacity="1" offset="0.785"/>
   <stop stop-color="#bf0b02" stop-opacity="1" offset="0.922"/>
   <stop stop-color="#b90000" stop-opacity="1" offset="1"/>
  </radialGradient>
  <linearGradient x1="213.86" x2="213.98" xlink:href="#SVGID_38_" gradientUnits="userSpaceOnUse" id="linearGradient8349" inkscape:collect="always" gradientTransform="matrix(1 0 0 -1 -270.96 -122.07)"/>
  <linearGradient x1="213.92" x2="238.02" gradientUnits="userSpaceOnUse" id="linearGradient8351" inkscape:collect="always" gradientTransform="matrix(1 0 0 -1 -270.96 -122.07)">
   <stop stop-color="#fc2b21" stop-opacity="1"/>
   <stop stop-color="#ff590a" stop-opacity="1" offset="0.236"/>
   <stop stop-color="#fb570b" stop-opacity="1" offset="0.248"/>
   <stop stop-color="#e74c0e" stop-opacity="1" offset="0.327"/>
   <stop stop-color="#d84511" stop-opacity="1" offset="0.417"/>
   <stop stop-color="#d04013" stop-opacity="1" offset="0.525"/>
   <stop stop-color="#cd3f13" stop-opacity="1" offset="0.697"/>
   <stop stop-color="#d04213" stop-opacity="1" offset="0.796"/>
   <stop stop-color="#d84b14" stop-opacity="1" offset="0.869"/>
   <stop stop-color="#e65b16" stop-opacity="1" offset="0.933"/>
   <stop stop-color="#f97219" stop-opacity="1" offset="0.993"/>
   <stop stop-color="#fc7519" stop-opacity="1" offset="1"/>
  </linearGradient>
  <linearGradient x1="207.72" x2="214.49" xlink:href="#SVGID_38_" gradientUnits="userSpaceOnUse" id="linearGradient8353" inkscape:collect="always" gradientTransform="matrix(1 0 0 -1 -270.96 -122.07)"/>
  <linearGradient x1="239.42" x2="215.34" y1="-144.73" y2="-139.36" gradientUnits="userSpaceOnUse" id="linearGradient8355" inkscape:collect="always" gradientTransform="matrix(1 0 0 -1 -270.96 -122.07)">
   <stop stop-color="#fe560d" stop-opacity="1"/>
   <stop stop-color="#8c1501" stop-opacity="1" offset="1"/>
  </linearGradient>
  <linearGradient x1="225.96" x2="225.68" xlink:href="#linearGradient8355" y1="-144.43" y2="-136.95" gradientUnits="userSpaceOnUse" id="linearGradient8357" inkscape:collect="always" gradientTransform="matrix(1 0 0 -1 -270.96 -122.07)"/>
  <linearGradient x1="231.08" x2="238.12" gradientUnits="userSpaceOnUse" id="linearGradient8359" inkscape:collect="always" gradientTransform="matrix(1 0 0 -1 -270.96 -122.07)">
   <stop stop-color="#fd7e36" stop-opacity="1"/>
   <stop stop-color="#fc895b" stop-opacity="1" offset="1"/>
  </linearGradient>
  <linearGradient x1="207.73" x2="231.8" gradientUnits="userSpaceOnUse" id="linearGradient8361" inkscape:collect="always" gradientTransform="matrix(1 0 0 -1 -270.96 -122.07)">
   <stop stop-color="#fd9b20" stop-opacity="1"/>
   <stop stop-color="#fd9b20" stop-opacity="1" offset="0.25"/>
   <stop stop-color="#fdb830" stop-opacity="1" offset="0.336"/>
   <stop stop-color="#fed23e" stop-opacity="1" offset="0.429"/>
   <stop stop-color="#fedb43" stop-opacity="1" offset="0.485"/>
   <stop stop-color="#fe8411" stop-opacity="1" offset="0.75"/>
   <stop stop-color="#fe560d" stop-opacity="1" offset="1"/>
  </linearGradient>
  <radialGradient cy="-168.24" r="33.43" gradientUnits="userSpaceOnUse" id="radialGradient8367" cx="232.25" inkscape:collect="always" gradientTransform="matrix(1 0 0 -1 -270.96 -122.07)">
   <stop stop-color="#d1e787" stop-opacity="1" offset="0.005"/>
   <stop stop-color="#cee583" stop-opacity="1" offset="0.123"/>
   <stop stop-color="#c4de76" stop-opacity="1" offset="0.247"/>
   <stop stop-color="#b3d361" stop-opacity="1" offset="0.375"/>
   <stop stop-color="#9cc443" stop-opacity="1" offset="0.505"/>
   <stop stop-color="#7fb01d" stop-opacity="1" offset="0.636"/>
   <stop stop-color="#7bae19" stop-opacity="1" offset="0.65"/>
   <stop stop-color="#578d19" stop-opacity="1" offset="0.779"/>
   <stop stop-color="#366e1a" stop-opacity="1" offset="0.922"/>
   <stop stop-color="#29621a" stop-opacity="1" offset="1"/>
  </radialGradient>
  <linearGradient x1="241.25" x2="265.39" gradientUnits="userSpaceOnUse" id="linearGradient8369" inkscape:collect="always" gradientTransform="matrix(1 0 0 -1 -270.96 -122.07)">
   <stop stop-color="#d3ed89" stop-opacity="1"/>
   <stop stop-color="#5f821c" stop-opacity="1" offset="1"/>
  </linearGradient>
  <linearGradient x1="238.2" x2="237.62" y1="-156.68" y2="-156.51" gradientUnits="userSpaceOnUse" id="linearGradient8371" inkscape:collect="always" gradientTransform="matrix(1 0 0 -1 -270.96 -122.07)">
   <stop stop-color="#d3ed89" stop-opacity="1" offset="0.282"/>
   <stop stop-color="#d3ed89" stop-opacity="1" offset="0.405"/>
   <stop stop-color="#5f821c" stop-opacity="1" offset="1"/>
  </linearGradient>
  <linearGradient x1="241.27" x2="240.72" y1="-145.81" y2="-145.77" gradientUnits="userSpaceOnUse" id="linearGradient8373" inkscape:collect="always" gradientTransform="matrix(1 0 0 -1 -270.96 -122.07)">
   <stop stop-color="#7aa922" stop-opacity="1"/>
   <stop stop-color="#d3ed89" stop-opacity="1" offset="0.2"/>
   <stop stop-color="#d3ed89" stop-opacity="1" offset="0.525"/>
   <stop stop-color="#7aa922" stop-opacity="1" offset="1"/>
  </linearGradient>
  <linearGradient x1="259.5" x2="266.22" gradientUnits="userSpaceOnUse" id="linearGradient8375" inkscape:collect="always" gradientTransform="matrix(1 0 0 -1 -270.96 -122.07)">
   <stop stop-color="#7aa922" stop-opacity="1" offset="0.006"/>
   <stop stop-color="#1d4a20" stop-opacity="1" offset="0.169"/>
   <stop stop-color="#26551b" stop-opacity="1" offset="0.382"/>
   <stop stop-color="#7aa922" stop-opacity="1" offset="1"/>
  </linearGradient>
  <linearGradient x1="259.54" x2="259" y1="-168.95" y2="-168.91" gradientUnits="userSpaceOnUse" id="linearGradient8377" inkscape:collect="always" gradientTransform="matrix(1 0 0 -1 -270.96 -122.07)">
   <stop stop-color="#7aa922" stop-opacity="1"/>
   <stop stop-color="#d3ed89" stop-opacity="1" offset="1"/>
  </linearGradient>
  <linearGradient x1="259.78" x2="259.44" y1="-169" y2="-169.38" gradientUnits="userSpaceOnUse" id="linearGradient8379" inkscape:collect="always" gradientTransform="matrix(1 0 0 -1 -270.96 -122.07)">
   <stop stop-color="#5f821c" stop-opacity="1"/>
   <stop stop-color="#26551b" stop-opacity="1" offset="1"/>
  </linearGradient>
  <linearGradient x1="234.82" x2="259.28" gradientUnits="userSpaceOnUse" id="linearGradient8381" inkscape:collect="always" gradientTransform="matrix(1 0 0 -1 -270.96 -122.07)">
   <stop stop-color="#7aa922" stop-opacity="1"/>
   <stop stop-color="#d3ed89" stop-opacity="1" offset="0.4"/>
   <stop stop-color="#7aa922" stop-opacity="1" offset="1"/>
  </linearGradient>
  <linearGradient x1="234.67" x2="234.29" y1="-167.8" y2="-167.37" gradientUnits="userSpaceOnUse" id="linearGradient8383" inkscape:collect="always" gradientTransform="matrix(1 0 0 -1 -270.96 -122.07)">
   <stop stop-color="#1d3a19" stop-opacity="1"/>
   <stop stop-color="#26551b" stop-opacity="1" offset="0.1"/>
   <stop stop-color="#7aa922" stop-opacity="1" offset="0.65"/>
   <stop stop-color="#d3ed89" stop-opacity="1" offset="1"/>
  </linearGradient>
  <linearGradient x1="234.66" x2="234.94" y1="-167.1" y2="-167.61" gradientUnits="userSpaceOnUse" id="linearGradient8385" inkscape:collect="always" gradientTransform="matrix(1 0 0 -1 -270.96 -122.07)">
   <stop stop-color="#5f821c" stop-opacity="1"/>
   <stop stop-color="#7aa922" stop-opacity="1" offset="0.405"/>
   <stop stop-color="#5f821c" stop-opacity="1" offset="0.8"/>
   <stop stop-color="#5f821c" stop-opacity="1" offset="1"/>
  </linearGradient>
  <linearGradient x1="265.94" x2="266.02" y1="-147.65" y2="-147.38" gradientUnits="userSpaceOnUse" id="linearGradient8387" inkscape:collect="always" gradientTransform="matrix(1 0 0 -1 -270.96 -122.07)">
   <stop stop-color="#5b7f30" stop-opacity="1"/>
   <stop stop-color="#d3ed89" stop-opacity="1" offset="1"/>
  </linearGradient>
  <linearGradient x1="265.45" x2="240.86" y1="-151.08" y2="-144.03" gradientUnits="userSpaceOnUse" id="linearGradient8389" inkscape:collect="always" gradientTransform="matrix(1 0 0 -1 -270.96 -122.07)">
   <stop stop-color="#1d3419" stop-opacity="1"/>
   <stop stop-color="#26551b" stop-opacity="1" offset="0.228"/>
   <stop stop-color="#7aa922" stop-opacity="1" offset="1"/>
  </linearGradient>
  <linearGradient x1="262.68" x2="262.11" y1="-158.14" y2="-157.98" gradientUnits="userSpaceOnUse" id="linearGradient8391" inkscape:collect="always" gradientTransform="matrix(1 0 0 -1 -270.96 -122.07)">
   <stop stop-color="#5f821c" stop-opacity="1"/>
   <stop stop-color="#75c146" stop-opacity="1" offset="1"/>
  </linearGradient>
  <linearGradient x1="265.25" x2="266.35" xlink:href="#linearGradient8369" gradientUnits="userSpaceOnUse" id="linearGradient8393" inkscape:collect="always" gradientTransform="matrix(1 0 0 -1 -270.96 -122.07)"/>
  <linearGradient x1="265.34" x2="240.83" y1="-151.34" y2="-144.31" gradientUnits="userSpaceOnUse" id="linearGradient8395" inkscape:collect="always" gradientTransform="matrix(1 0 0 -1 -270.96 -122.07)">
   <stop stop-color="#93bf81" stop-opacity="1"/>
   <stop stop-color="#26551b" stop-opacity="1" offset="0.228"/>
   <stop stop-color="#bde256" stop-opacity="1" offset="1"/>
  </linearGradient>
  <linearGradient x1="265.95" x2="266.03" xlink:href="#linearGradient8387" y1="-147.65" y2="-147.38" gradientUnits="userSpaceOnUse" id="linearGradient8397" inkscape:collect="always" gradientTransform="matrix(1 0 0 -1 -270.96 -122.07)"/>
  <linearGradient x1="265.25" x2="266.36" xlink:href="#linearGradient8369" gradientUnits="userSpaceOnUse" id="linearGradient8399" inkscape:collect="always" gradientTransform="matrix(1 0 0 -1 -270.96 -122.07)"/>
 </defs>
 <g transform="matrix(1 0 0 1 0 -956.36)">
  <rect x="3.353" rx="12.724" y="959.35" fill-opacity="0.02" height="89.98" width="89.62"/>
  <rect x="3.959" rx="12.552" y="959.96" fill-opacity="0.039" height="88.76" width="88.41"/>
  <rect x="4.564" rx="12.38" y="960.57" fill-opacity="0.078" height="87.55" width="87.2"/>
  <rect x="5.17" rx="12.208" y="961.18" fill-opacity="0.157" height="86.33" width="85.991"/>
 </g>
 <path d="M 17.75 5.40625 C 11.1082 5.40625 5.78125 10.80135 5.78125 17.46875 L 5.78125 78.5 C 5.78125 85.168 11.108 90.53125 17.75 90.53125 L 78.5625 90.53125 C 85.2043 90.53125 90.53125 85.1678 90.53125 78.5 L 90.53125 17.46875 C 90.53125 10.80075 85.2045 5.40625 78.5625 5.40625 L 17.75 5.40625 z " fill="url(#linearGradient6254)" fill-opacity="1" fill-rule="nonzero" stroke="none"/>
 <path d="m5.7756 77.54v1.0133c0 6.668 5.3434 12.032 11.985 12.032h60.809c6.6418 0 11.985-5.3645 11.985-12.032v-1.013c0 6.6681-5.3434 12.032-11.985 12.032h-60.809c-6.6418 0-11.985-5.3644-11.985-12.032z" fill-opacity="0.098"/>
 <path d="m5.7756 73.44v5.0663c0 6.668 5.3434 12.032 11.985 12.032h60.809c6.6418 0 11.985-5.3645 11.985-12.032v-5.066c0 6.6681-5.3434 12.032-11.985 12.032h-60.809c-6.6418 0-11.985-5.3643-11.985-12.032z" fill-opacity="0.235"/>
 <g transform="matrix(1.1092 0 0 1.1092 89.72 -6.186)">
  <path d="m -64.246,45.578 c 12.532,-5.162 18.598,-2.408 24.03,1.28 l -6.274,21.563 c -5.452,-3.666 -11.38,-6.685 -23.962,-1.483 l 6.132,-21.329 0.074,-0.031 z" fill="url(#radialGradient8285)" inkscape:connector-curvature="0"/>
  <path d="m -69.99,67.572 c 0.041,0.005 0.113,-0.034 0.113,-0.034 0.09,0.063 0.162,0.104 0.162,0.104 0,0 -0.142,0.033 -0.275,-0.07 z" fill="url(#radialGradient8287)" inkscape:connector-curvature="0"/>
  <path d="m -46.708,68.664 c 0,0 0.082,0.079 0.18,0.055 l -0.375,0.224 c -0.12,0.054 -0.247,-0.033 -0.247,-0.033 l 0.442,-0.246 z" fill="#152469" inkscape:connector-curvature="0"/>
  <path d="m -69.869,67.541 c 0,0 -0.075,0.042 -0.116,0.036 l -0.414,-0.318 -0.007,-0.008 c 0.06,0.016 0.126,0.008 0.151,0.004 l 0.386,0.286 z" fill="url(#radialGradient8289)" inkscape:connector-curvature="0"/>
  <path d="m -46.495,68.365 c 0.042,0.025 0.086,0.063 0.127,0.148 -0.022,0.114 -0.112,0.169 -0.171,0.209 -0.076,0.016 -0.183,-0.052 -0.183,-0.052 0.062,-0.051 0.162,-0.124 0.227,-0.305 z" fill="#152469" inkscape:connector-curvature="0"/>
  <path d="m -70.399,67.259 c -0.08,-0.068 -0.134,-0.188 -0.101,-0.295 l 0.073,-0.033 c -0.029,0.161 0.083,0.274 0.169,0.328 10e-4,0 -0.059,0.026 -0.141,0 z" fill="#172e65" inkscape:connector-curvature="0"/>
  <path d="m -69.895,67.522 c 11.97,-4.675 17.33,-2.127 22.784,1.377 -3.266,-2.103 -6.622,-3.775 -11.257,-3.809 -3.104,-0.016 -6.77,0.769 -11.359,2.552 0,0 -0.091,-0.037 -0.168,-0.12 z" fill="url(#radialGradient8291)" inkscape:connector-curvature="0"/>
  <path d="m -46.711,68.681 c -5.453,-3.67 -11.102,-6.469 -23.537,-1.417 -0.083,-0.051 -0.216,-0.178 -0.182,-0.333 12.622,-5.371 18.489,-2.234 23.941,1.434 -0.057,0.196 -0.16,0.268 -0.222,0.316 z" fill="#094b8f" inkscape:connector-curvature="0"/>
  <path d="m -46.703,68.681 -0.443,0.228 c -5.449,-3.504 -10.966,-5.931 -22.723,-1.368 l -0.39,-0.282 c 12.438,-5.053 18.1,-2.248 23.556,1.422 z" fill="#094b8f" inkscape:connector-curvature="0"/>
  <path d="m -46.498,68.37 6.282,-21.513 c 0.069,0.044 0.106,0.081 0.142,0.121 l -6.294,21.546 c -0.036,-0.097 -0.13,-0.154 -0.13,-0.154 z" fill="url(#linearGradient8293)" inkscape:connector-curvature="0"/>
  <path d="m -40.176,46.709 0.01,0.002 c 0.08,0.057 0.112,0.167 0.092,0.267 l -0.004,0.013 c -0.036,-0.037 -0.072,-0.077 -0.14,-0.123 l 0.042,-0.159 z" fill="url(#radialGradient8295)" inkscape:connector-curvature="0"/>
  <polygon fill="#063367" opacity="0.66" points="-70.427,66.931 -70.5,66.965 -64.392,45.589 -64.392,45.589 -64.319,45.607 "/>
  <path d="m -64.392,45.589 -0.29,1.024 -5.818,20.352 c -0.032,0.106 0.021,0.227 0.101,0.295 l 0.414,0.317 c 0,0 0.001,-0.001 0.001,0 0.054,0.037 0.105,0.052 0.149,0.062 l 6.19,-21.452 -0.014,-0.017 -0.66,-0.562 -0.073,-0.019 z m -6.024,21.338 0,-0.004 c 0.03,-0.01 0.059,-0.021 0.086,-0.031 -0.03,0.011 -0.056,0.022 -0.086,0.035 z m 0.158,0.332 c -0.041,-0.027 -0.089,-0.068 -0.124,-0.118 0.036,0.05 0.084,0.091 0.124,0.114 10e-4,0 10e-4,0 0,0.004 z" fill="url(#linearGradient8297)" opacity="0.42" inkscape:connector-curvature="0"/>
  <path d="m -40.099,46.802 -0.119,0.071 -0.521,0.513 c 0.002,0 0.002,0 0.002,0.004 -0.847,2.893 -5.601,19.126 -6.321,21.557 0.045,0.013 0.1,0.017 0.153,-0.005 l 0.375,-0.224 c -10e-4,0 -0.003,0 -0.004,0 0.056,-0.042 0.14,-0.095 0.165,-0.203 0,0.005 0,0.005 0,0.008 l 6.086,-20.831 0.208,-0.715 c 0.006,-0.039 0,-0.074 -0.006,-0.11 -0.003,-0.023 -0.01,-0.041 -0.018,-0.065 z" fill="url(#linearGradient8299)" opacity="0.42" inkscape:connector-curvature="0"/>
  <path d="m -40.218,46.867 -0.521,0.52 c -1.808,-1.201 -6.789,-4.293 -12.414,-3.834 -4.566,0.372 -8.586,1.84 -10.493,2.633 l -0.674,-0.578 0.048,-0.149 c 12.585,-5.206 18.653,-2.438 24.1,1.251 l -0.004,0.002 0.009,0 -0.051,0.155 z" fill="url(#linearGradient8301)" inkscape:connector-curvature="0"/>
  <path d="m -63.734,46.108 c 12.587,-5.205 18.208,-1.765 23.092,1.184 l -0.096,0.095 c -5.028,-3.115 -10.375,-6.311 -22.905,-1.196 l -0.091,-0.083 z" fill="url(#linearGradient8305)" opacity="0.33" inkscape:connector-curvature="0"/>
  <path d="m -64.264,45.44 c 12.585,-5.205 18.4,-2.531 24.098,1.271 l -0.049,0.147 c -5.984,-3.873 -11.428,-6.449 -23.958,-1.336 l -0.091,-0.082 z" fill="url(#linearGradient8307)" opacity="0.33" inkscape:connector-curvature="0"/>
  <path d="m -64.319,45.607 -0.073,-0.018 c 0.027,-0.088 0.092,-0.123 0.112,-0.128 l 0.009,-0.003 c 0,-10e-4 -0.012,0.043 -0.048,0.149 z" fill="url(#radialGradient8309)" inkscape:connector-curvature="0"/>
  <path d="m -46.696,68.677 c -5.452,-3.666 -11.102,-6.466 -23.536,-1.417 -0.083,-0.049 -0.217,-0.174 -0.184,-0.331 12.624,-5.374 18.49,-2.233 23.942,1.432 -0.056,0.199 -0.159,0.266 -0.222,0.316 z" fill="url(#radialGradient8311)" opacity="0.5" inkscape:connector-curvature="0"/>
 </g>
 <g transform="matrix(1.1092 0 0 1.1092 89.72 -6.186)">
  <path d="m -36.929,48.943 c 5.448,3.665 11.02,6.353 23.825,1.975 l -5.977,20.791 c -12.568,5.198 -18.603,2.255 -24.045,-1.435 l 6.197,-21.331 z" fill="url(#radialGradient8313)" inkscape:connector-curvature="0"/>
  <path d="m -18.02,72.447 c -0.056,0.115 -0.168,0.181 -0.204,0.202 -0.01,0 -0.017,0.005 -0.017,0.005 0,0 -0.104,0.01 -0.197,-0.061 0.247,-0.136 0.317,-0.405 0.317,-0.405 0,0 0.144,0.121 0.101,0.259 z" fill="url(#linearGradient8315)" inkscape:connector-curvature="0"/>
  <path d="m -18.02,72.447 c 0.022,-0.118 -0.111,-0.228 -0.111,-0.228 l 5.959,-20.766 c 0,0 0.096,0.085 0.125,0.152 l -5.973,20.842 z" fill="url(#linearGradient8317)" inkscape:connector-curvature="0"/>
  <path d="m -12.049,51.615 c 0,0 -0.018,-0.064 -0.125,-0.149 0.048,-0.202 0.012,-0.247 0.012,-0.247 l 0.015,0.01 c 0,-10e-4 0.153,0.144 0.098,0.386 z" fill="url(#linearGradient8319)" inkscape:connector-curvature="0"/>
  <path d="m -12.644,51.112 c 0,0 -0.162,-0.198 -0.499,-0.14 0.017,-0.075 0.045,-0.166 0.153,-0.209 0.202,-0.031 0.298,0.019 0.342,0.065 0.025,0.022 0.032,0.042 0.032,0.042 0.029,0.118 -0.028,0.242 -0.028,0.242 z" fill="url(#linearGradient8321)" inkscape:connector-curvature="0"/>
  <path d="m -12.648,50.829 0.501,0.399 c 0.025,0.132 -0.027,0.268 -0.027,0.268 l -0.493,-0.395 c 0,-10e-4 0.048,-0.153 0.019,-0.272 z" fill="url(#linearGradient8323)" inkscape:connector-curvature="0"/>
  <polygon fill="#b37e00" opacity="0.66" points="-18.664,71.842 -12.671,51.065 -12.168,51.469 -18.117,72.24 -18.143,72.292 -18.664,71.842 "/>
  <path d="m -13.122,50.993 c -12.621,4.304 -18.399,1.746 -23.845,-1.924 0.011,-0.041 0.036,-0.134 -0.022,-0.229 5.447,3.668 11.472,6.167 24,1.924 -0.098,0.065 -0.108,0.154 -0.133,0.229 z" fill="url(#linearGradient8325)" inkscape:connector-curvature="0"/>
  <polygon fill="#d9a200" points="-37.944,49.326 -37.525,49.042 -43.593,70.196 -44.066,70.572 -44.066,70.522 -37.944,49.326 "/>
  <path d="m -19.143,71.726 6,-20.76 c 0.01,0 0.021,-0.018 0.036,-0.019 0.313,-0.03 0.463,0.133 0.463,0.133 l -5.978,20.733 c 0,10e-4 -0.251,-0.198 -0.521,-0.087 z" fill="url(#linearGradient8327)" opacity="0.66" inkscape:connector-curvature="0"/>
  <path d="m -18.223,72.649 c -12.325,5.267 -20.228,2.026 -25.674,-1.639 l 0.057,-0.052 c 5.442,3.666 13.828,6.721 25.401,1.609 0.094,0.079 0.216,0.082 0.216,0.082 z" fill="#a85d10" inkscape:connector-curvature="0"/>
  <path d="m -18.627,71.806 0.51,0.434 c 0,0 -0.068,0.242 -0.342,0.359 l -0.518,-0.425 c 0.273,-0.117 0.35,-0.368 0.35,-0.368 z" fill="url(#linearGradient8329)" opacity="0.66" inkscape:connector-curvature="0"/>
  <path d="m -19.133,71.698 c -0.048,0.321 0.259,0.519 0.259,0.519 -13.061,4.725 -18.658,1.903 -24.46,-1.593 0.093,-0.074 0.145,-0.129 0.201,-0.353 0.011,0.004 0.085,-0.009 0.098,0 5.61,3.453 12.093,6.314 23.902,1.427 z" fill="url(#linearGradient8331)" inkscape:connector-curvature="0"/>
  <path d="m -43.838,70.986 0.504,-0.363 c 4.991,3.111 11.981,6.515 24.389,1.535 l 0.51,0.431 c -11.529,5.112 -19.96,2.06 -25.403,-1.603 z" fill="#c67c0c" inkscape:connector-curvature="0"/>
  <path d="m -43.795,71.001 -0.058,0.041 c 0,0 -0.327,-0.182 -0.213,-0.519 0.028,0.33 0.271,0.478 0.271,0.478 z" fill="#de980d" inkscape:connector-curvature="0"/>
  <path d="m -44.066,70.522 0.473,-0.388 c -0.026,0.346 0.309,0.475 0.309,0.475 l -0.519,0.397 c 0,0.001 -0.289,-0.14 -0.263,-0.484 z" fill="url(#linearGradient8333)" inkscape:connector-curvature="0"/>
  <path d="m -43.627,70.149 c 0.169,-0.065 0.325,0.011 0.505,0.115 -0.06,0.223 -0.102,0.301 -0.194,0.366 -0.115,-0.064 -0.339,-0.197 -0.311,-0.481 z" fill="url(#linearGradient8335)" inkscape:connector-curvature="0"/>
  <path d="m -37.443,48.864 -0.092,0.18 -0.421,0.302 c 0.03,-0.141 0.376,-0.391 0.483,-0.464 0.015,-0.012 0.03,-0.018 0.03,-0.018 z" fill="#de980d" inkscape:connector-curvature="0"/>
  <path d="m -36.972,49.066 c -0.25,-0.142 -0.474,-0.069 -0.563,-0.022 0.015,-0.047 0.067,-0.167 0.067,-0.167 0.203,-0.127 0.293,-0.127 0.479,-0.037 0.053,0.093 0.032,0.173 0.017,0.226 z" fill="url(#radialGradient8337)" inkscape:connector-curvature="0"/>
  <path d="m -43.076,70.3 c -0.179,-0.105 -0.383,-0.184 -0.556,-0.115 l 6.106,-21.143 c 0.094,-0.044 0.31,-0.12 0.559,0.027 L -43.076,70.3 z" fill="url(#linearGradient8339)" inkscape:connector-curvature="0"/>
  <path d="m -37.838,49.185 c 1.864,1.617 9.958,8.234 25.691,2.043 l -0.501,-0.399 c -0.043,-0.046 -0.139,-0.097 -0.341,-0.065 -12.528,4.243 -18.553,1.744 -24,-1.924 0,0.005 0,0.005 0,0.005 -0.183,-0.093 -0.274,-0.093 -0.475,0.037 -0.252,0.174 -0.252,0.172 -0.374,0.303 z" fill="url(#linearGradient8341)" opacity="0.33" inkscape:connector-curvature="0"/>
  <path d="m -12.147,51.228 0,0 c -15.733,6.191 -23.828,-0.426 -25.691,-2.043 -0.049,0.045 -0.087,0.095 -0.105,0.136 l 0,0.005 -0.006,0.016 c 0,0.001 -0.002,0.004 -0.002,0.004 l 0.002,0 -0.003,0.01 c 1.625,1.422 9.755,8.508 25.908,2.101 -0.018,-0.142 -0.103,-0.229 -0.103,-0.229 z" fill="url(#linearGradient8343)" opacity="0.33" inkscape:connector-curvature="0"/>
  <path d="m -18.944,72.16 c 0,0 -0.232,-0.141 -0.188,-0.462 0.318,-0.085 0.513,0.115 0.513,0.115 0,0 -0.051,0.229 -0.325,0.347 z" fill="url(#linearGradient8345)" inkscape:connector-curvature="0"/>
 </g>
 <g transform="matrix(1.1092 0 0 1.1092 89.72 -6.186)">
  <path d="m -39.171,42.971 c -3.279,-2.209 -6.808,-4.274 -11.821,-4.311 -3.306,-0.026 -7.244,0.915 -12.243,2.979 l 6.193,-21.462 c 12.574,-5.2 18.616,-2.252 24.063,1.432 l -6.192,21.362 z" fill="url(#radialGradient8347)" inkscape:connector-curvature="0"/>
  <path d="m -39.178,42.965 6.197,-21.355 c 0.068,0.043 0.096,0.079 0.13,0.121 l -6.193,21.386 c -0.035,-0.09 -0.134,-0.152 -0.134,-0.152 z" fill="#bc1b00" inkscape:connector-curvature="0"/>
  <path d="m -62.64,42.262 c 1.984,-0.813 3.817,-1.416 5.52,-1.831 0.415,-0.102 0.782,-0.188 1.22,-0.273 0.4,-0.082 0.797,-0.159 1.183,-0.217 0.605,-0.089 1.194,-0.167 1.772,-0.213 0.488,-0.039 0.965,-0.066 1.432,-0.07 0.451,-0.004 0.896,0 1.328,0.023 0.382,0.022 0.757,0.052 1.128,0.095 0.313,0.035 0.618,0.076 0.922,0.127 0.637,0.109 1.255,0.245 1.851,0.413 2.41,0.682 4.55,1.844 6.518,3.153 -0.016,0.009 -0.063,-0.013 -0.081,-0.023 -0.019,-0.009 -0.028,-0.009 -0.047,-0.02 -2.659,-1.685 -5.513,-3.155 -9.04,-3.588 -3.605,-0.441 -7.815,0.18 -13.481,2.425 0,0 -0.127,0.059 -0.181,0.065 -0.044,0.013 -0.034,-0.022 -0.044,-0.066 z" fill="#bc1b00" inkscape:connector-curvature="0"/>
  <path d="m -39.391,43.279 c 0,0 0.081,0.057 0.176,0.037 l -0.388,0.175 c -0.106,0.028 -0.232,-0.036 -0.232,-0.036 l 0.444,-0.176 z" fill="#bc1b00" inkscape:connector-curvature="0"/>
  <path d="m -62.638,42.265 c 0,0 0.026,0.043 0.042,0.069 -0.034,0.005 -0.043,0.014 -0.136,-0.028 -0.014,-0.004 -0.03,-0.019 -0.047,-0.033 l -0.403,-0.314 -0.038,-0.03 c 0.054,-0.003 0.094,0.021 0.122,0.018 l 0.46,0.318 z" fill="#b81a00" inkscape:connector-curvature="0"/>
  <path d="m -39.171,42.969 c 0.042,0.027 0.094,0.043 0.131,0.131 -0.027,0.118 -0.123,0.176 -0.176,0.215 -0.097,0.027 -0.189,-0.045 -0.189,-0.045 0.061,-0.045 0.171,-0.122 0.234,-0.301 z" fill="#e82e00" inkscape:connector-curvature="0"/>
  <path d="m -32.944,21.463 0.007,0.002 c 0.08,0.056 0.109,0.16 0.085,0.264 l -0.005,0.009 c -0.032,-0.038 -0.056,-0.078 -0.125,-0.13 l 0.038,-0.145 z" fill="#f83603" inkscape:connector-curvature="0"/>
  <path d="m -63.212,41.942 c -0.061,-0.044 -0.118,-0.227 -0.084,-0.335 l 0.08,-0.025 c -0.032,0.155 0.063,0.335 0.149,0.385 10e-4,0 -0.059,0.035 -0.145,-0.025 z" fill="#e32e00" inkscape:connector-curvature="0"/>
  <path d="m -57.04,20.181 -0.059,-0.015 c 0.024,-0.095 0.089,-0.124 0.113,-0.131 l 0.008,-0.002 c 0,-0.001 -0.029,0.044 -0.062,0.148 z" fill="url(#linearGradient8349)" inkscape:connector-curvature="0"/>
  <path d="m -39.379,43.283 c -5.861,-4.066 -13.039,-6.618 -23.7,-1.321 l 0.436,0.308 c 11.651,-4.76 17.723,-2.188 22.837,1.184 l 0.427,-0.171 z" fill="#e82e00" inkscape:connector-curvature="0"/>
  <path d="m -39.391,43.279 c -3.356,-2.19 -6.492,-4.006 -11.466,-4.148 -3.63,0.073 -6.419,0.537 -12.211,2.836 -0.086,-0.047 -0.195,-0.169 -0.167,-0.327 5.019,-2.136 9.001,-3.061 12.306,-3.028 5.01,0.049 8.479,2.147 11.758,4.352 -0.056,0.196 -0.163,0.269 -0.22,0.315 z" fill="#e82e00" inkscape:connector-curvature="0"/>
  <path d="m -57.099,20.164 0.057,0.017 -6.179,21.449 c -0.014,-0.01 -0.076,-0.024 -0.076,-0.024 l 6.198,-21.442 z" fill="#e32e00" inkscape:connector-curvature="0"/>
  <path d="m -32.979,21.61 c -5.451,-3.688 -11.545,-6.541 -24.06,-1.429 0.026,-0.109 0.053,-0.146 0.053,-0.146 12.576,-5.2 18.597,-2.26 24.042,1.428 l -0.035,0.147 z" fill="url(#linearGradient8351)" opacity="0.66" inkscape:connector-curvature="0"/>
  <path d="m -33.699,22.317 c -4.44,-2.883 -10.309,-6.494 -22.824,-1.383 0.028,-0.107 0.06,-0.163 0.06,-0.163 12.574,-5.199 18.501,-1.238 22.809,1.39 l -0.045,0.156 z" fill="#fe8411" opacity="0.33" inkscape:connector-curvature="0"/>
  <path d="m -56.835,20.323 c -0.035,0.014 -0.156,-0.003 -0.156,-0.003 l -6.25,21.645 0.462,0.31 c 0.016,0.014 0.033,0.028 0.047,0.033 0.079,0.035 0.095,0.035 0.12,0.03 l 6.123,-21.497 0.019,-0.064 -0.365,-0.454 z" fill="url(#linearGradient8353)" opacity="0.36" inkscape:connector-curvature="0"/>
  <path d="m -33.668,22.178 c 0.002,0.003 0.004,0.004 0.007,0.008 0,-0.008 0.001,-0.01 0.001,-0.014 l -0.008,0.006 z" fill="url(#linearGradient8355)" opacity="0.5" inkscape:connector-curvature="0"/>
  <path d="m -33.516,21.686 c -2.067,-1.385 -5.508,-3.633 -10.541,-3.985 -5.339,-0.375 -12.104,2.342 -12.778,2.622 l 0.364,0.453 -0.019,0.064 c 0.019,-0.004 0.037,-0.015 0.055,-0.022 12.466,-5.361 20.144,-0.52 22.767,1.36 l 0.009,-0.006 0.392,-0.321 c -0.08,-0.053 -0.163,-0.109 -0.249,-0.165 z" fill="url(#linearGradient8357)" opacity="0.5" inkscape:connector-curvature="0"/>
  <path d="m -56.835,20.323 c 0.675,-0.28 7.439,-2.997 12.778,-2.622 5.033,0.352 8.474,2.601 10.541,3.985 0.085,0.057 0.168,0.112 0.247,0.165 l 0.387,-0.311 c -0.017,-0.026 -0.028,-0.056 -0.056,-0.074 -5.326,-3.608 -11.211,-6.497 -23.229,-1.761 -0.269,0.109 -0.538,0.213 -0.812,0.328 l 0,0 0.144,0.29 z" fill="#fff4c5" opacity="0.5" inkscape:connector-curvature="0"/>
  <path d="m -32.944,21.471 -0.035,0.139 -0.29,0.241 -0.391,0.321 c 0,0.003 -0.001,0.006 -0.001,0.014 -1.298,4.452 -5.355,18.351 -6.215,21.248 0.01,0.004 0.017,0.006 0.028,0.014 0.003,0.002 0.01,0.006 0.013,0.007 l 0,0 c 0,0 0.126,0.064 0.232,0.036 l 0.388,-0.175 c -10e-4,0.002 -0.004,0 -0.011,0.002 0.004,-0.002 0.007,0 0.009,-0.002 0.049,-0.04 0.144,-0.097 0.171,-0.2 l 0,0 10e-4,-0.007 c 0,-0.003 0.003,-0.003 0.003,-0.007 l 0,0 5.938,-20.508 0,0 0.147,-0.505 0.005,-0.021 0.099,-0.336 c 0.02,-0.072 0.007,-0.217 -0.091,-0.261 z" fill="url(#linearGradient8359)" opacity="0.6" inkscape:connector-curvature="0"/>
  <path d="m -39.378,43.268 c -3.354,-2.19 -6.492,-4.007 -11.463,-4.15 -3.632,0.074 -6.42,0.537 -12.212,2.836 -0.089,-0.045 -0.195,-0.167 -0.167,-0.324 5.019,-2.138 9.001,-3.063 12.308,-3.029 5.008,0.052 8.478,2.145 11.756,4.352 -0.057,0.195 -0.164,0.27 -0.222,0.315 z" fill="url(#linearGradient8361)" opacity="0.5" inkscape:connector-curvature="0"/>
  <path d="m -32.944,21.463 0.007,0.004 c 0.08,0.054 0.109,0.158 0.085,0.262 l -0.005,0.009 c -0.032,-0.038 -0.056,-0.076 -0.125,-0.13 l 0.038,-0.145 z" fill="#f83603" inkscape:connector-curvature="0"/>
  <path d="m -57.04,20.181 -0.058,-0.015 c 0.025,-0.092 0.089,-0.123 0.112,-0.131 l 0.009,-0.002 c 0,-0.001 -0.03,0.044 -0.063,0.148 z" fill="url(#linearGradient8349)" inkscape:connector-curvature="0"/>
  <path d="m -32.979,21.61 c -5.448,-3.688 -11.545,-6.539 -24.061,-1.428 0.027,-0.106 0.054,-0.146 0.054,-0.146 12.576,-5.2 18.597,-2.26 24.042,1.428 l -0.035,0.146 z" fill="url(#linearGradient8351)" opacity="0.66" inkscape:connector-curvature="0"/>
 </g>
 <g transform="matrix(1.1092 0 0 1.1092 89.72 -6.186)">
  <path d="m -5.684,25.25 c -12.557,5.189 -18.59,2.271 -24.026,-1.391 l -6.195,21.481 c 5.432,3.683 11.996,6.703 24.035,1.317 L -5.684,25.25 z" fill="url(#radialGradient8367)" inkscape:connector-curvature="0"/>
  <path d="m -5.71,25.266 c -12.556,5.188 -18.566,2.269 -24.002,-1.389 0.013,-0.048 0.033,-0.14 0,-0.231 5.436,3.66 11.595,6.608 24.144,1.417 -0.103,0.059 -0.111,0.131 -0.142,0.203 z" fill="url(#linearGradient8369)" inkscape:connector-curvature="0"/>
  <polygon fill="#8cac42" points="-30.673,24.134 -30.222,23.813 -36.355,45.105 -36.827,45.481 -36.827,45.433 -30.673,24.134 "/>
  <path d="m -35.892,45.348 c -0.188,-0.109 -0.329,-0.325 -0.499,-0.257 l 6.146,-21.267 c 0.095,-0.043 0.331,-0.122 0.557,0.053 l -6.204,21.471 z" fill="url(#linearGradient8371)" inkscape:connector-curvature="0"/>
  <path d="m -30.167,23.677 -0.062,0.151 -0.448,0.323 c 0.04,-0.146 0.385,-0.387 0.485,-0.463 0.021,-0.009 0.025,-0.011 0.025,-0.011 z" fill="#5f821c" inkscape:connector-curvature="0"/>
  <path d="m -29.709,23.859 c -0.233,-0.141 -0.446,-0.07 -0.539,-0.03 0.013,-0.047 0.055,-0.141 0.055,-0.141 0.203,-0.126 0.287,-0.131 0.48,-0.042 0.025,0.072 0.034,0.142 0.004,0.213 z" fill="url(#linearGradient8373)" inkscape:connector-curvature="0"/>
  <polygon fill="url(#linearGradient8375)" opacity="0.81" points="-4.741,25.772 -10.985,47.166 -11.458,46.755 -11.458,46.755 -5.248,25.37 "/>
  <path d="m -10.863,47.323 c 0.015,-0.124 -0.112,-0.222 -0.112,-0.222 L -4.75,25.752 c 0,0 0.101,0.088 0.126,0.15 l -6.239,21.421 z" fill="#476e32" inkscape:connector-curvature="0"/>
  <path d="m -11.071,47.521 c -3.355,1.525 -6.527,2.312 -9.475,2.567 -5.092,0.573 -9.211,-0.53 -12.572,-2.183 -1.31,-0.601 -2.491,-1.281 -3.541,-1.988 l 0.058,-0.043 c 1.064,0.711 2.219,1.411 3.483,2.031 3.418,1.569 7.683,2.605 12.572,2.184 2.783,-0.318 5.86,-1.141 9.259,-2.645 0.096,0.072 0.216,0.077 0.216,0.077 z" fill="#1d3419" inkscape:connector-curvature="0"/>
  <path d="m -11.75,47.123 c 0,0 -0.237,-0.214 -0.197,-0.526 0.329,-0.086 0.536,0.117 0.536,0.117 0,0 -0.065,0.291 -0.339,0.409 z" fill="url(#linearGradient8377)" inkscape:connector-curvature="0"/>
  <path d="m -11.411,46.714 0.444,0.397 c 0,0 -0.067,0.246 -0.337,0.364 l -0.465,-0.395 c 0.277,-0.117 0.358,-0.366 0.358,-0.366 z" fill="url(#linearGradient8379)" inkscape:connector-curvature="0"/>
  <path d="m -11.87,46.586 c -0.044,0.314 0.188,0.545 0.188,0.545 -12.55,5.191 -19.016,2.14 -24.454,-1.545 0.096,-0.066 0.109,-0.066 0.172,-0.291 5.434,3.682 13.648,6.261 24.094,1.291 z" fill="url(#linearGradient8381)" inkscape:connector-curvature="0"/>
  <path d="m -36.601,45.895 0.468,-0.311 c 5.437,3.501 11.859,6.527 24.401,1.486 l 0.45,0.394 c -12.039,5.312 -19.739,2.357 -25.319,-1.569 z" fill="#26551b" inkscape:connector-curvature="0"/>
  <path d="m -10.863,47.323 c -0.058,0.115 -0.17,0.182 -0.208,0.198 -0.008,0.005 -0.013,0.005 -0.013,0.005 0,0 -0.083,0.016 -0.202,-0.063 0.25,-0.131 0.319,-0.406 0.319,-0.406 0,0 0.142,0.126 0.104,0.266 z" fill="#5f821c" inkscape:connector-curvature="0"/>
  <path d="m -36.582,45.89 -0.055,0.044 c 0,0 -0.303,-0.167 -0.189,-0.501 0.028,0.333 0.244,0.457 0.244,0.457 z" fill="#26551b" inkscape:connector-curvature="0"/>
  <path d="m -36.827,45.433 0.453,-0.357 c -0.028,0.345 0.267,0.485 0.267,0.485 l -0.458,0.355 c 0,0.002 -0.286,-0.141 -0.262,-0.483 z" fill="url(#linearGradient8383)" inkscape:connector-curvature="0"/>
  <path d="m -36.385,45.076 c 0.156,-0.051 0.293,0.114 0.481,0.264 -0.063,0.22 -0.114,0.181 -0.21,0.248 -0.111,-0.061 -0.302,-0.228 -0.271,-0.512 z" fill="url(#linearGradient8385)" inkscape:connector-curvature="0"/>
  <path d="m -4.7,25.551 c 0.006,0.079 -0.053,0.212 -0.053,0.212 l -0.482,-0.388 c 0,0 0.07,-0.159 0.035,-0.279 0.162,0.068 0.473,0.408 0.5,0.455 z" fill="url(#linearGradient8387)" opacity="0.72" inkscape:connector-curvature="0"/>
  <path d="m -4.71,25.531 c -0.094,-0.127 -0.238,-0.24 -0.351,-0.343 -0.212,-0.194 -0.476,-0.152 -0.538,-0.115 l -0.003,0.007 c -12.523,5.17 -18.676,2.222 -24.109,-1.435 0.012,0.027 0.013,0.054 0.016,0.08 -0.003,-0.026 -0.004,-0.053 -0.016,-0.08 -0.192,-0.088 -0.277,-0.084 -0.48,0.042 -0.078,0.055 -0.28,0.205 -0.397,0.333 2.089,1.76 10.971,8.719 25.878,1.511 z m -24.999,-1.672 0,0 -0.003,0.004 c 0,-0.004 -0.001,-0.004 -0.003,-0.005 0.002,0.001 0.003,0.001 0.006,0.001 0.013,-0.029 0.013,-0.056 0.015,-0.084 -0.002,0.034 -0.006,0.063 -0.015,0.084 z" fill="url(#linearGradient8389)" opacity="0.33" inkscape:connector-curvature="0"/>
  <path d="M -11.928,46.635 -5.72,25.26 c 0.339,-0.063 0.501,0.13 0.501,0.13 l -6.192,21.322 c 0,0.002 -0.254,-0.189 -0.517,-0.077 z" fill="url(#linearGradient8391)" opacity="0.72" inkscape:connector-curvature="0"/>
  <path d="m -5.71,25.266 c 0.018,-0.082 0.029,-0.118 0.11,-0.193 0.063,-0.037 0.326,-0.079 0.538,0.115 0.212,0.191 0.538,0.413 0.438,0.714 -0.026,-0.062 -0.121,-0.14 -0.121,-0.14 l -0.474,-0.373 c 0,0 -0.153,-0.183 -0.491,-0.123 z" fill="url(#linearGradient8393)" opacity="0.6" inkscape:connector-curvature="0"/>
  <path d="m -30.589,24.021 c -0.032,0.039 -0.063,0.073 -0.078,0.107 l -0.005,0.006 -0.022,0.073 c 1.891,1.6 10.857,8.963 26.083,1.551 -0.009,-0.083 -0.045,-0.159 -0.098,-0.228 -14.908,7.209 -23.79,0.25 -25.88,-1.509 z" fill="url(#linearGradient8395)" opacity="0.3" inkscape:connector-curvature="0"/>
  <path d="m -4.7,25.552 c 0.006,0.078 -0.053,0.21 -0.053,0.21 l -0.481,-0.388 c 0,0 0.07,-0.158 0.038,-0.279 0.158,0.07 0.469,0.411 0.496,0.457 z" fill="url(#linearGradient8397)" opacity="0.72" inkscape:connector-curvature="0"/>
  <path d="m -5.71,25.266 c 0.018,-0.082 0.029,-0.118 0.112,-0.193 0.062,-0.037 0.326,-0.079 0.536,0.117 0.212,0.19 0.539,0.41 0.439,0.713 -0.028,-0.063 -0.122,-0.14 -0.122,-0.14 l -0.474,-0.375 c 0.001,10e-4 -0.153,-0.182 -0.491,-0.122 z" fill="url(#linearGradient8399)" opacity="0.6" inkscape:connector-curvature="0"/>
 </g>
</svg>
