<svg height="96" width="96" xmlns="http://www.w3.org/2000/svg" xmlns:sodipodi="http://sodipodi.sourceforge.net/DTD/sodipodi-0.dtd" xmlns:inkscape="http://www.inkscape.org/namespaces/inkscape">
 <defs>
  <linearGradient x2="0" y1="84.03" y2="2.993" gradientUnits="userSpaceOnUse" id="linearGradient6400">
   <stop stop-color="#ccc"/>
   <stop stop-color="#dae0de" offset="1"/>
  </linearGradient>
 </defs>
 <g transform="matrix(1 0 0 1 0 -956.36)">
  <rect x="3.353" rx="12.724" y="959.35" fill-opacity="0.02" height="89.98" width="89.62"/>
  <rect x="3.959" rx="12.552" y="959.96" fill-opacity="0.039" height="88.76" width="88.41"/>
  <rect x="4.564" rx="12.38" y="960.57" fill-opacity="0.078" height="87.55" width="87.2"/>
  <rect x="5.17" rx="12.208" y="961.18" fill-opacity="0.157" height="86.33" width="85.991"/>
  <path d="m17.75 5.4062c-6.642 0-11.969 5.3948-11.969 12.063l0.0002 61.031c0 6.668 5.3268 12.031 11.969 12.031h60.812c6.642 0 11.969-5.363 11.969-12.031v-61.031c0-6.668-5.327-12.063-11.969-12.063l-60.812 0.0002z" fill="url(#linearGradient6400)" transform="matrix(1 0 0 1 0 956.36)"/>
  <path d="m5.7756 1029.8v5.0663c0 6.668 5.3434 12.032 11.985 12.032h60.809c6.6418 0 11.985-5.3645 11.985-12.032v-5.0663c0 6.6681-5.3434 12.032-11.985 12.032h-60.809c-6.6418 0-11.985-5.3643-11.985-12.032z" fill-opacity="0.118"/>
  <path d="m5.7756 1033.9v1.0133c0 6.668 5.3434 12.032 11.985 12.032h60.809c6.6418 0 11.985-5.3645 11.985-12.032v-1.0133c0 6.6681-5.3434 12.032-11.985 12.032h-60.809c-6.6418 0-11.985-5.3644-11.985-12.032z" fill-opacity="0.098"/>
  <rect x="12.232" rx="7.259" y="968.65" fill="#4d4d4d" height="56.75" opacity="0.5" width="71.47"/>
  <path d="m20.281 15.312c-3.968 0-7.156 3.188-7.156 7.157v41.687c0 3.969 3.188 7.156 7.156 7.156h55.375c3.969 0 7.156-3.187 7.156-7.156v-41.687c0-3.969-3.187-7.157-7.156-7.157h-55.375z" fill="#2b0000" transform="matrix(1 0 0 1 0 956.36)"/>
  <rect x="58.934" rx="1.28" y="-1036.3" fill="#999" height="2.559" width="17.309" transform="matrix(1 0 0 -1 0 0)"/>
  <rect x="58.934" rx="1.28" y="-1035.4" fill="#808080" height="2.559" width="17.309" transform="matrix(1 0 0 -1 0 0)"/>
  <path d="m21.826 973.44c-3.7469 0-6.7569 2.9866-6.7569 6.7044v39.056c0 3.7178 3.01 6.7044 6.7569 6.7044h52.285c3.7469 0 6.7569-2.9866 6.7569-6.7044v-39.056c0-3.7178-3.01-6.7044-6.7569-6.7044h-52.285z" fill="#800000"/>
  <rect x="13.13" rx="0" ry="0.773" y="999.03" fill="#2b0000" height="1.547" width="69.875"/>
  <rect x="46.989" rx="0" ry="28.03" y="971.61" fill="#2b0000" height="56.06" width="2.147"/>
  <path d="m47.528 999.22v-12.466h-0.02149v6.0372c0 3.5493-2.1922 6.4006-4.921 6.4006h-5.4582v0.0277h10.401z" fill="#2b0000"/>
  <path d="m14.954 999.42v-8.0754h0.01995v3.9109c0 2.2993 2.0354 4.1463 4.5691 4.1463h5.068v0.018h-9.657z" fill="#2b0000"/>
  <path d="m48.774 999.22v-12.466h0.02149v6.0372c0 3.5493 2.1922 6.4006 4.921 6.4006h5.4582v0.0277h-10.401z" fill="#2b0000"/>
  <path d="m81.245 999.42v-8.0754h-0.01995v3.9109c0 2.2993-2.0354 4.1463-4.5691 4.1463h-5.068v0.018h9.657z" fill="#2b0000"/>
  <path d="m47.528 1000.3v12.466h-0.02149v-6.0372c0-3.5493-2.1922-6.4006-4.921-6.4006h-5.4582v-0.028h10.401z" fill="#2b0000"/>
  <path d="m14.954 1000.1v8.0754h0.01995v-3.9109c0-2.2993 2.0354-4.1463 4.5691-4.1463h5.068v-0.018h-9.657z" fill="#2b0000"/>
  <path d="m48.774 1000.3v12.466h0.02149v-6.0372c0-3.5493 2.1922-6.4006 4.921-6.4006h5.4582v-0.028h-10.401z" fill="#2b0000"/>
  <path d="m81.245 1000.1v8.0754h-0.01995v-3.9109c0-2.2993-2.0354-4.1463-4.5691-4.1463h-5.068v-0.018h9.657z" fill="#2b0000"/>
  <path d="m48.461 973.35h8.0754v0.0199h-3.9109c-2.2993 0-4.1463 2.0354-4.1463 4.5691v5.068h-0.018v-9.657z" fill="#2b0000"/>
  <path d="m48.461 1026h8.0754v-0.02h-3.9109c-2.2993 0-4.1463-2.0355-4.1463-4.5692v-5.0679h-0.018v9.657z" fill="#2b0000"/>
  <path d="m47.737 973.35h-8.0754v0.0199h3.9109c2.2993 0 4.1463 2.0354 4.1463 4.5691v5.068h0.018v-9.657z" fill="#2b0000"/>
  <path d="m47.737 1026h-8.0754v-0.02h3.9109c2.2993 0 4.1463-2.0355 4.1463-4.5692v-5.0679h0.018v9.657z" fill="#2b0000"/>
 </g>
</svg>
