<svg height="96" width="96" xmlns="http://www.w3.org/2000/svg" xmlns:xlink="http://www.w3.org/1999/xlink" xmlns:sodipodi="http://sodipodi.sourceforge.net/DTD/sodipodi-0.dtd" xmlns:inkscape="http://www.inkscape.org/namespaces/inkscape">
 <defs>
  <clipPath id="clipPath4196">
   <rect x="154.06" y="60.829" height="37.781" width="37.781"/>
  </clipPath>
  <radialGradient cy="175.67" r="126.3" gradientUnits="userSpaceOnUse" id="radialGradient7507" cx="151.75" gradientTransform="matrix(0.40465 0 0 0.40759 11.209 963.47)">
   <stop stop-color="#f2be7f"/>
   <stop stop-color="#ffffdc" offset="1"/>
  </radialGradient>
  <linearGradient x1="100.13" x2="94.45" y1="79.08" y2="45.62" gradientUnits="userSpaceOnUse" id="linearGradient7509" gradientTransform="matrix(0.40465 0 0 0.40759 11.209 963.47)">
   <stop stop-color="#c3ad7b"/>
   <stop stop-color="#a25f00" offset="1"/>
  </linearGradient>
  <radialGradient cy="87" r="90.87" xlink:href="#radialGradient7507" gradientUnits="userSpaceOnUse" id="radialGradient7511" cx="149.75" gradientTransform="matrix(0.40465 0 0 0.40759 11.209 963.47)"/>
  <linearGradient x1="80.16" x2="82.47" y1="171.37" y2="164.25" gradientUnits="userSpaceOnUse" id="linearGradient7513" gradientTransform="matrix(0.40465 0 0 0.40759 11.209 963.47)">
   <stop stop-color="#aa944b"/>
   <stop stop-color="#aa944b" stop-opacity="0" offset="1"/>
  </linearGradient>
  <linearGradient x2="0" y1="84.02" y2="58.06" gradientUnits="userSpaceOnUse" id="linearGradient7515" gradientTransform="matrix(0.40465 0 0 0.40759 11.209 963.47)">
   <stop stop-color="#d2b170"/>
   <stop stop-color="#a25f00" offset="1"/>
  </linearGradient>
  <linearGradient x2="0" y1="124.25" y2="71.33" gradientUnits="userSpaceOnUse" id="linearGradient7517" gradientTransform="matrix(0.40465 0 0 0.40759 11.209 963.47)">
   <stop stop-color="#a25f00" stop-opacity="0"/>
   <stop stop-color="#a25f00" offset="1"/>
  </linearGradient>
  <linearGradient x2="0" y1="187.64" y2="165.83" gradientUnits="userSpaceOnUse" id="linearGradient7519" gradientTransform="matrix(0.40465 0 0 0.40759 11.209 963.47)">
   <stop stop-color="#a4d8e5"/>
   <stop stop-color="#0c418f" offset="0.5"/>
   <stop stop-color="#000060" offset="1"/>
  </linearGradient>
  <linearGradient x2="0" xlink:href="#linearGradient7519" y1="170.38" y2="141.59" gradientUnits="userSpaceOnUse" id="linearGradient7521" gradientTransform="matrix(0.40465 0 0 0.40759 11.209 963.47)"/>
  <radialGradient cy="67" r="77.83" gradientUnits="userSpaceOnUse" id="radialGradient7523" cx="41.75" gradientTransform="matrix(0.40465 0 0 0.40759 11.209 963.47)">
   <stop stop-color="#000060"/>
   <stop stop-color="#0c418f" offset="0.5"/>
   <stop stop-color="#a4d8e5" offset="1"/>
  </radialGradient>
  <radialGradient cy="54.25" r="71.42" xlink:href="#radialGradient7523" gradientUnits="userSpaceOnUse" id="radialGradient7525" cx="57.5" gradientTransform="matrix(0.40465 0 0 0.40759 11.209 963.47)"/>
  <linearGradient x1="46.73" x2="9.22" y1="25.34" y2="90.3" gradientUnits="userSpaceOnUse" id="linearGradient7527" gradientTransform="matrix(0.40465 0 0 0.40759 11.209 963.47)">
   <stop stop-color="#1b609d"/>
   <stop stop-color="#9fd2e5" offset="0.5"/>
   <stop stop-color="#4187b8" offset="1"/>
  </linearGradient>
  <linearGradient x1="66.43" x2="123.46" y1="24.35" y2="81.38" gradientUnits="userSpaceOnUse" id="linearGradient7529" gradientTransform="matrix(0.20504 0 0 0.20504 131.79 36.733)">
   <stop stop-color="#a4d8e5"/>
   <stop stop-color="#0c418f" offset="0.67"/>
   <stop stop-color="#000040" offset="1"/>
  </linearGradient>
  <linearGradient x1="71.55" x2="61.5" y1="36.5" y2="8.88" gradientUnits="userSpaceOnUse" id="linearGradient7531" gradientTransform="matrix(0.20504 0 0 0.20504 131.79 36.733)">
   <stop stop-color="#a4d8e5"/>
   <stop stop-color="#0c418f" offset="1"/>
  </linearGradient>
  <linearGradient x1="50.32" x2="94.57" y1="74.9" y2="30.65" gradientUnits="userSpaceOnUse" id="linearGradient7533" gradientTransform="matrix(0.20504 0 0 0.20504 131.79 36.733)">
   <stop stop-color="#a5b4d3"/>
   <stop stop-color="#a5b4d3" stop-opacity="0.33" offset="1"/>
  </linearGradient>
  <linearGradient x1="48.16" x2="92.41" y1="72.75" y2="28.5" gradientUnits="userSpaceOnUse" id="linearGradient7535" gradientTransform="matrix(0.20504 0 0 0.20504 131.79 36.733)">
   <stop stop-color="#264b92"/>
   <stop stop-color="#264b92" stop-opacity="0.33" offset="1"/>
  </linearGradient>
  <radialGradient cy="67.17" r="8.51" gradientUnits="userSpaceOnUse" id="radialGradient7537" cx="58.58" gradientTransform="matrix(0.20504 0 0 0.20504 131.79 36.733)">
   <stop stop-color="#600000"/>
   <stop stop-color="#c00000" offset="0.5"/>
   <stop stop-color="#f6aa00" offset="1"/>
  </radialGradient>
  <radialGradient cy="65.11" r="3.8" gradientUnits="userSpaceOnUse" id="radialGradient7539" cx="59.61" gradientTransform="matrix(0.20504 0 0 0.20504 131.79 36.733)">
   <stop stop-color="#fff"/>
   <stop offset="1"/>
  </radialGradient>
  <radialGradient cy="87.5" r="12.97" gradientUnits="userSpaceOnUse" id="radialGradient7541" cx="51.5" gradientTransform="matrix(0.20504 0 0 0.20504 131.79 36.733)">
   <stop stop-color="#769eb8"/>
   <stop stop-color="#fff" offset="1"/>
  </radialGradient>
  <radialGradient cy="82.5" r="3.78" xlink:href="#radialGradient7539" gradientUnits="userSpaceOnUse" id="radialGradient7543" cx="47.25" gradientTransform="matrix(0.20504 0 0 0.20504 131.79 36.733)"/>
  <linearGradient x1="115.05" x2="170.24" y1="222.04" y2="126.46" gradientUnits="userSpaceOnUse" id="linearGradient7545" gradientTransform="matrix(0.20504 0 0 0.20504 151.79 56.733)">
   <stop stop-color="#b4b4dc"/>
   <stop offset="1"/>
  </linearGradient>
  <linearGradient x1="139.21" x2="168.19" xlink:href="#linearGradient7545" y1="224.1" y2="173.9" gradientUnits="userSpaceOnUse" id="linearGradient7547" gradientTransform="matrix(0.20504 0 0 0.20504 151.79 56.733)"/>
  <linearGradient x2="0" y1="171.82" y2="72.25" gradientUnits="userSpaceOnUse" id="linearGradient7549" gradientTransform="matrix(0.20504 0 0 0.20504 151.79 56.733)">
   <stop stop-color="#6498c1"/>
   <stop stop-color="#0c418f" offset="0.2"/>
   <stop stop-color="#000040" offset="1"/>
  </linearGradient>
  <linearGradient x2="0" y1="149.75" y2="60.68" gradientUnits="userSpaceOnUse" id="linearGradient7551" gradientTransform="matrix(0.20504 0 0 0.20504 151.79 56.733)">
   <stop stop-color="#a4d8e5"/>
   <stop stop-color="#0c418f" offset="0.2"/>
   <stop stop-color="#000040" offset="0.5"/>
  </linearGradient>
  <linearGradient x2="0" xlink:href="#linearGradient7519" y1="134.73" y2="83.48" gradientUnits="userSpaceOnUse" id="linearGradient7553" gradientTransform="matrix(0.20504 0 0 0.20504 151.79 56.733)"/>
  <linearGradient x1="132.09" x2="171.09" y1="33.56" y2="88.06" gradientUnits="userSpaceOnUse" id="linearGradient7555" gradientTransform="matrix(0.20504 0 0 0.20504 151.79 56.733)">
   <stop stop-color="#4187b8"/>
   <stop stop-color="#074e92" offset="1"/>
  </linearGradient>
  <linearGradient x1="162.21" x2="134.68" xlink:href="#linearGradient7527" y1="71.09" y2="23.41" gradientUnits="userSpaceOnUse" id="linearGradient7557" gradientTransform="matrix(0.20504 0 0 0.20504 151.79 56.733)"/>
 </defs>
 <g transform="matrix(1 0 0 1 0 -956.36)">
  <rect x="3.353" rx="12.724" y="959.35" fill-opacity="0.02" height="89.98" width="89.62"/>
  <rect x="3.959" rx="12.552" y="959.96" fill-opacity="0.039" height="88.76" width="88.41"/>
  <rect x="4.564" rx="12.38" y="960.57" fill-opacity="0.078" height="87.55" width="87.2"/>
  <rect x="5.17" rx="12.208" y="961.18" fill-opacity="0.157" height="86.33" width="85.991"/>
  <path d="m17.75 5.4062c-6.642 0-11.969 5.3948-11.969 12.063l0.0002 61.031c0 6.668 5.3268 12.031 11.969 12.031h60.812c6.642 0 11.969-5.363 11.969-12.031v-61.031c0-6.668-5.327-12.063-11.969-12.063l-60.812 0.0002z" fill="#92b6c8" transform="matrix(1 0 0 1 0 956.36)"/>
  <g transform="matrix(1 0 0 1.0166 0 -17.366)">
   <path d="m23.62 984.57-10.343 13.336 5.4871 28.124 50.496 16.47 12.079-20.669-3.5407-30.968-38.77-18.019-15.126 11.363-0.28326 0.36275z" fill="#340000"/>
   <path d="m78.247 1001.9-38.612 14.632-17.748-28.429-7.745 9.9858 5.3212 27.288 49.428 16.12 11.613-19.87-2.2579-19.727z" fill="url(#radialGradient7507)"/>
   <path d="m39.162 1020.1-14.701-21.03c-8.2266 7.3367 0.53816 16.711-0.66364 18.072-0.81201 0.9048-2.7031-0.1372-5.6732-3.1261-4.4552-4.4836 0.80931 5.2985 3.2372 8.6938 1.6186 2.2661-0.31427 2.1303-5.7987-0.4077l-1.6226-26.628 7.1826-8.7631 71.453 9.9858-21.042 12.228-32.372 11.005z" fill="url(#linearGradient7509)"/>
   <path d="m90.723 997.2-51.087 19.36-18.513-29.652-0.68386 0.43204 18.865 30.218 51.702-19.597-0.28325-0.76218z" fill="#340000"/>
   <path d="m78.247 1001.9-0.76479-6.6844-54.822-8.1069-0.29134 0.3709-0.48153 0.6236 17.748 28.429 38.612-14.632z" fill="url(#radialGradient7511)"/>
   <path d="m19.464 1025.4 49.428 16.12 1.3677-2.3436-51.463-17.204 0.66769 3.4278z" fill="url(#linearGradient7513)"/>
   <path d="m78.255 994.86-0.77288 0.38313 0.76479 6.6844-9.0561 3.4319c4.4673 9.6395 1.0966 21.696 1.1087 21.696 6.9236-3.7294 8.7364-14.428 9.0723-22.564l-1.1168-9.6313z" fill="#7b5516"/>
   <path d="m56.853 994.02c6.9843 1.9156 10.197 6.717 12.35 11.339l9.048-3.4319-0.76478-6.6844-7.2271-1.0679-0.47749 2.311-12.929-2.4659z" fill="#7b5516"/>
   <path d="m28.204 987.96-5.5437-0.81925-0.29134 0.3709-0.48153 0.6236 5.9848 9.5864 0.03239-0.004c0.26302-1.614 0.77288-2.8898 0.78502-2.8898 0.01188 0 0.02843 0.0774 0.10124 0.20379l-0.07701-1.7771c-0.03239-1.4428-0.42085-3.4033-0.49772-5.2945h-0.01188z" fill="url(#linearGradient7515)"/>
   <path d="m56.853 994.02s-5.483-1.2024-9.3151-1.4755c-3.832-0.27309-8.611 3.5378-10.116 4.4508-0.8012 0.48502-1.7036 0.9782-2.6626 1.4918 0.07701 3.8353 0.99948 12.154 7.219 15.627-0.01584-20.379 14.875-20.094 14.887-20.094h-0.01188z" fill="url(#linearGradient7517)"/>
   <path d="m36.597 1031-17.133-5.588-2.0314-8.5755-3.5933-1.1861s3.743 11.82 10.416 21.317c13.527 9.4968 10.221 4.8707 10.234 4.8707 2.4198 1.4266 4.0384 1.4266 4.0505 1.4266-0.0082-1.4266-6.0779-1.7323-7.7855-11.412 1.8128 3.6682 9.0966 5.7062 9.5133 5.2985 0.26707-0.2716-0.88753-2.2757-3.4638-6.0118l-0.20637-0.1386z"/>
   <path d="m31.543 1040.6s-8.6393-0.5909-15.992-15.276c-4.3419-15.191 5.7299 8.7387 16.004 15.276h-0.01188z" fill="url(#linearGradient7519)"/>
   <path d="m11.278 1007.1s1.044 22.91 12.589 26.68c-5.8755-8.0498-7.5427-23.742-7.5306-23.742l-5.0581-2.9386z" fill="url(#linearGradient7521)"/>
   <path d="m18.088 1021.7c-2.4279 0.5095-7.0288-8.0498-6.8669-16.915 0.09705-5.91 1.1047-10.631 3.0227-14.164l2.0233 16.813s0 11.514 1.8331 14.266h-0.01188z" fill="url(#radialGradient7523)"/>
   <path d="m49.145 968.57s-27.719 4.4834-34.889 22.01c-4.9165 12.382 6.2114 22.98 7.8907 21.296-0.0082 0-6.0414-7.9114-0.09704-19.731 3.9548-7.88 12.987-15.738 27.095-23.575z"/>
   <path d="m49.145 968.57s-27.719 4.4834-34.889 22.01c-4.9165 12.382 6.2114 22.98 7.8907 21.296-0.0082 0-7.6965-9.1709-0.90642-21.602 4.5159-8.2876 13.817-15.522 27.905-21.704z" fill="url(#radialGradient7525)"/>
   <path d="m14.211 993.91c-1.4851 9.9859 1.7076 6.2483 4.1922-1.4958-2.4724 4.3122-4.1922 3.1588-4.18 1.4958h-0.01188zm3.0915-6.9126c-4.4147 9.0688-0.25088 6.4806 4.4471-0.15081-3.654 3.3626-4.9489 1.7363-4.435 0.15081h-0.01188zm8.8214-9.2726c-6.4258 5.751-2.2863 5.0581 3.5812 1.3328-3.9898 1.4755-4.4876-0.2364-3.569-1.3328h-0.01188zm-4.5523 4.0962c-6.4299 7.0798-1.9464 5.8366 4.0951 1.0556-4.2245 2.0868-4.9731 0.25678-4.0829-1.0556h-0.01188zm12.483-5.7266c-3.4962 0.98635-3.8078-0.51356-2.9458-1.3858-5.8958 4.4671-2.3105 4.1614 2.958 1.3858h-0.01188z" fill="url(#linearGradient7527)"/>
   <g transform="matrix(1.9735 0 0 1.9878 -248.87 890.45)">
    <path d="m164.77 41.576c-1.0662-0.99651-3.5411-1.6629-4.9436-1.9479-1.2077-0.24195-2.4933-0.31987-3.7113-0.41009-0.84067-0.05946-3.2356-0.01435-4.2526 0.09022-2.5671 0.26656-3.5944 1.2139-5.6592 2.6738-1.8926 1.3307-4.677 2.7804-5.4992 5.1076-0.65204 1.2918-0.0656 3.3545-0.0349 4.6237l0.0349 0.89399c-0.039-0.06356-0.0574-0.10252-0.0513-0.10252 0.006 0-1.14 2.8275 0.13327 4.1009 0.0123-0.11482 0.039-0.2276 0.0841-0.33832l-0.082 0.33832s0.55566-1.017 1.5768-1.5481c1.0211-0.53106 1.9582-1.0006 2.7209-1.4599 0.76276-0.4593 3.1536-2.3744 5.1015-2.2391 1.2986 0.09159 5.0577 0.75251 11.277 1.9828l0.64999-3.1433-1.177-0.88784c0.12508-0.33012 0.22145-0.68074 0.40394-0.9801 0.44699-0.76891 0.50235-1.4394 0.49415-2.317 1.0375-0.24605 2.2001-0.67254 2.8788-1.5542 0.57822-0.77096 0.85708-2.1324 0.0615-2.8829h-0.006z"/>
    <path d="m164.77 41.576c-1.0662-0.99651-3.5411-1.6629-4.9436-1.9479-1.2077-0.24195-2.4933-0.31987-3.7113-0.41009-0.84067-0.05946-3.2356-0.01435-4.2526 0.09022-2.5671 0.26656-3.5944 1.2139-5.6592 2.6738-1.8926 1.3307-4.677 2.7804-5.4992 5.1076-0.65204 1.2918-0.0656 3.3545-0.0349 4.6237l0.0349 0.89399c-0.039-0.06356-0.0574-0.10252-0.0513-0.10252 0.006 0-1.14 2.8275 0.13327 4.1009 0.13738-1.3328 2.2555-2.358 2.2616-2.358l1.5604-0.78532c0.23785-0.16198 0.89194-0.55977 1.1011-0.76891 1.2446-0.7197 2.2883-1.5112 3.7605-1.6567 1.9418-0.19479 3.7789 0.66844 5.7166 0.4593 1.587-0.17224 3.7584-0.39778 5.1384-1.2774 0.64794-0.41624 0.66639-1.261 1.0416-1.8884 0.44699-0.76686 0.50236-1.4394 0.49416-2.317 1.0375-0.24605 2.2001-0.67254 2.8788-1.5542 0.55361-0.77096 0.83247-2.1324 0.0369-2.8829h-0.006z" fill="url(#linearGradient7529)"/>
    <path d="m150.19 38.169c-0.22349 0.09432-0.45109 0.22555-0.67459 0.38343 0.2276-0.15788 0.4552-0.29116 0.68074-0.38343h-0.006zc-1.9746 1.2815-2.7004 3.9307-2.6943 3.9307 0.20094-0.08612 0.49825-0.4634 0.89809-0.92474-0.2399 0.27681-0.44495 0.52491-0.60693 0.6951 0.0102-0.04921 0.81402-2.1837 2.4092-3.701h-0.006zm-0.62-1.436c-4.4084 3.2212-4.2054 5.8068-4.1993 5.8068 0.0636-0.03281 0.14559-0.09227 0.24606-0.17224-0.008-0.0021-0.12508-1.991 3.9594-5.6346h-0.006zm1.0929 2.563c-1.017 1.4353-0.23785 1.7429-0.2317 1.7429 0.006 0-0.28911-0.47775 0.2317-1.7429zm-1.0847 0.66844c0.32601-0.26451 0.68689-0.50236 1.0908-0.66844-0.42033 0.17429-0.77916 0.41009-1.0847 0.66844-0.006 0-0.006 0 0 0h-0.006z" fill="#484848"/>
    <path d="m141.16 46.147c2.7927-8.5277 8.415-9.4135 8.4211-9.4135-4.4125 3.2212-4.2095 5.8068-4.2034 5.8068 0.72176-0.36498 3.0346-3.619 4.8185-4.3715-1.9766 1.2815-2.7045 3.9307-2.6984 3.9307 0.49005-0.20504 1.5173-2.1099 3.1802-2.8029-1.0191 1.4353-0.24195 1.7429-0.2358 1.7429l-9.2823 5.1076z" fill="url(#linearGradient7531)"/>
    <path d="m142.82 52.813c4.7672-0.15378 2.2391-3.4017 8.6016-9.5529-5.1835 3.008-10.582 2.9403-8.5954 9.5529h-0.006z" fill="url(#linearGradient7533)"/>
    <path d="m142.82 52.813c0.83863-1.2139 3.6744-5.9298 8.6016-9.5529-5.1835 3.008-10.582 2.9403-8.5954 9.5529h-0.006z" fill="url(#linearGradient7535)"/>
    <path d="m145.28 50.916c-0.89603 0.89604-1.9684 0.68689-2.0525-0.49415-0.13123-1.669 1.6588-1.8454 2.438-1.5911 0.26245 0.75661-0.0697 1.4948-0.37933 2.0853" fill="#000064"/>
    <path d="m145.37 50.693c-0.28911 0.53926-0.9637 0.75661-1.3369 0.55362-0.38138-0.20299-0.37933-0.88168-0.0841-1.4209 0.28501-0.53926 1.544-0.29731 1.5501-0.29731 0.006 0 0.15993 0.62743-0.12918 1.1646z" fill="url(#radialGradient7537)"/>
    <path d="m144.09 50.725c0.26245 0.32807 0.66434 0.44494 0.90219 0.2604 0.22759-0.18659 0.33216-0.73405 0.0738-1.0621-0.26656-0.33012-0.79762-0.31372-1.0232-0.12918-0.24195 0.18454-0.21735 0.60283 0.0533 0.9309h-0.006z" fill="url(#radialGradient7539)"/>
    <path d="m143.1 54.178s0-0.51261-0.14763-1.0252c-1.7654 0.59872-2.3108-0.64794-2.3047-0.64794 0.006 0-1.1421 2.8275 0.13122 4.1009 0.13738-1.3328 2.2555-2.358 2.2616-2.358" fill="url(#radialGradient7541)"/>
    <path d="m143.03 54.248 0.0697-0.06972s0-0.51261-0.14763-1.0252c-2.807 1.503-2.1755 3.4529-2.1694 3.4529 0.12918-1.3328 2.2473-2.358 2.2534-2.358h-0.006z" fill="#484848"/>
    <path d="m140.77 54.342s0.0143-0.84683 0.39984-1.0006c-0.004 0.16608 0.19274 0.29526 0.39163 0.29526-0.53722 0.05331-0.79147 0.70535-0.78532 0.70535h-0.006z" fill="url(#radialGradient7543)"/>
    <path d="m141.16 46.147 0.004-0.0021c-0.19069 0.29936-0.35267 0.61103-0.46544 0.94525-0.55977 1.1072-0.20915 2.7804-0.0738 4.0332 0.11688 0.44084 0.25425 0.89399 0.50236 1.1421l0.30346 0.10252c-0.006-0.6992 0.24195-1.3471 0.21119-2.0504-0.0472-0.85298-0.27065-1.708-0.0984-2.563 0.14148-0.75251 0.58848-1.4045 0.77096-2.1509 0.2194-0.92884 0.19274-1.9295 0.32397-2.8768-0.55156 0.976-1.0498 2.1058-1.4722 3.4201" fill="#fff" fill-opacity="0.25"/>
   </g>
   <g clip-path="url(#clipPath4196)" transform="matrix(1.9735 0 0 1.9878 -288.34 850.7)">
    <path d="m194.57 75.284-8.9542-3.7359-0.76891 8.6631c0.0984 0.55977 0.16403 1.1646 0.20709 1.8044-0.0103-0.10662-0.0164-0.20914-0.0185-0.31372-0.74431 11.907-7.808 18.005-11.353 19.577 4.4556 0.30757 7.1929-1.2426 7.1991-1.2426 0.006 0-0.59667 0.72995-2.1858 1.7039 1.9992 0 6.9715-1.8966 7.9516-3.8958l0.5085 0.20504c-0.002 0 9.6862-6.7664 7.4205-22.766h-0.006z"/>
    <path d="m185.03 81.701c-0.74021 11.907-7.8039 18.005-11.349 19.577 8.743-1.9028 11.845-12.848 11.355-19.577h-0.006z" fill="url(#linearGradient7545)"/>
    <path d="m178.7 101.74s7.0227-2.7681 7.849-9.0732c3.2745 0.46135-3.4406 8.0992-7.8429 9.0732h-0.006z" fill="url(#linearGradient7547)"/>
    <path d="m179.93 70.933c-2.2842-3.3381-5.8027-4.392-9.0854-4.392 5.9565 0.75251 14.722 9.2105 9.8072 18.591 2.9055-3.902 1.9151-10.342-0.7156-14.199h-0.006z"/>
    <path d="m185.06 81.312c-1.5932 3.4365-4.4105 3.8199-4.4043 3.8199 0.006 0 2.3539 0.41009 4.3018-1.9479 0.27886-0.34037 0.28911-0.99651 0.10868-1.872h-0.006z"/>
    <path d="m194.57 75.284-8.9542-3.7359-0.76891 8.6631c0.082 0.46955 0.14148 0.9719 0.18454 1.4989-0.002-0.0041-0.002-0.0082 0.004-0.0082 0.004 0.10457 0.0102 0.20709 0.0225 0.31372-0.0103-0.10252-0.0185-0.20299-0.0205-0.30346-0.0308 0.43264-0.0677 0.85708-0.10457 1.2754-0.11483 1.8659-0.13123 5.3291 1.0232 7.4267 0.78532-1.1872 1.5747-2.6697 1.8495-4.1542 0.12303 1.5071-0.59052 3.4447-1.2897 4.9477 0.2317 0.26246 0.50235 0.4798 0.81402 0.63973 0.11687 0.04921 0.2358 0.08612 0.36088 0.11688 0.98215-1.2139 2.5774-3.4591 2.9916-5.7043 0.14353 1.7716-0.86528 4.1398-1.6547 5.694 3.3668-0.92064 5.6612-8.3063 5.7084-8.4375-0.004-0.0021-0.004-0.0021 0.002-0.0041 0.26246-2.4134 0.26861-5.1486-0.16198-8.2284h-0.006z" fill="url(#linearGradient7549)"/>
    <path d="m189.84 90.114c-0.26861 0.67049-0.56797 1.3041-0.83453 1.8413 1.2138-0.33422 2.2903-1.5112 3.1761-2.8829-0.79762 0.57412-1.7695 0.89194-2.3354 1.0416h-0.006z" fill="#0c418f"/>
    <path d="m186.83 90.459c-0.10868 0.25835-0.22145 0.51056-0.32807 0.74841 0.23375 0.26246 0.50235 0.4798 0.81402 0.63973 0.11687 0.04921 0.2358 0.08612 0.36087 0.11688 0.98216-1.2139 2.5774-3.4591 2.9916-5.7043-1.1236 2.8809-2.8214 3.8651-3.8322 4.1993h-0.006z" fill="#0c418f"/>
    <path d="m187.57 79.339c0.56387 3.2807-1.6403 8.0992-1.6342 8.0992 0.006 0 3.293-0.64589 4.7467-7.6522 0 0-0.30961 4.8657-0.9514 6.0119-0.004 0 3.1741-1.4866 3.8466-7.5353 0.67254-6.0488-3.6949-9.7395-5.0789-9.0219-0.92269 0.47843-1.2323 3.8446-0.92884 10.098z" fill="url(#linearGradient7551)"/>
    <path d="m194.69 75.985c0-0.002 0-0.002 0.006-0.0041-0.33217-2.1468-0.90834-4.187-1.6834-6.0221-1.9951-4.6791-5.3086-7.5353-9.1429-8.7143-8.7184-0.82017-13.024 5.2963-13.018 5.2963 3.2848 0 6.8033 1.0539 9.0936 4.392 2.6328 3.8569 3.6231 10.297 0.71765 14.199-0.004 0 6.0447-0.82017 5.4357-10.867-0.004 0 2.1488 4.2034-0.61308 9.9958-0.004 0 5.5833-1.384 3.8466-12.149-0.004 0 1.2774 2.4605 0.87348 8.1505-0.004 0 2.3026-1.6034 2.3088-6.5101-0.004 0 1.585 5.1773 0.002 8.458-0.004 0 0.0226-0.09022 0.14353-0.18044 0.49416-0.41829 2.4339-2.075 2.0361-6.0447h-0.006z" fill="url(#linearGradient7553)"/>
    <path d="m180.32 71.537c1.1093 1.8392 1.7818 3.9553 2.0197 6.0857 0.15994 0.43469 0.57617 1.1318 1.1503 0.9719 0.47159-0.13533 0.90013-0.67869 1.179-1.0703 0.35268-0.51056 0.4921-1.1318 0.83043-1.6506 0.15788-0.2563 0.37932-0.48185 0.41008-0.79762 0.006-0.11072-0.0328-0.76686 0.19479-0.74636-0.006-0.02255-0.006-0.04306-0.002-0.06561-0.004 0 0.0102 0.03076 0.041 0.08407 0.15583 0.13533 0.21529 0.4511 0.28091 0.63974 0.0882 0.29731 0.16813 0.59872 0.2481 0.90014 0.12508 0.51671 0.4798 1.4476 1.1421 0.87143 0.30141-0.26861 0.488-0.67664 0.65204-1.0437 0.14968-0.35677 0.2399-0.71355 0.29936-1.099 0.0984-0.72995 0.0677-1.7265 0.61103-2.3026-0.0144-0.06766-0.0246-0.13533-0.0287-0.20299-0.004 0 0.0369 0.07997 0.10867 0.2399 0.24195 0.16198 0.58027 0.31576 0.87144 0.15583 0.2645-0.14968 0.38138-0.488 0.45929-0.76686 0.10662-0.42649 0.14558-0.87348 0.2358-1.3082 0.0943-0.49825 0.19479-1.0088 0.15994-1.5173 0.21734 0.50236 0.45519 0.99036 0.65203 1.5071 0.15378 0.42854 0.31167 0.86118 0.34652 1.3205 0.0267 0.38958 0.0185 0.78121 0.0718 1.1708 0.0349 0.30962 0.10662 0.691 0.38343 0.88784 0.11892-1.6629 0.37523-3.4632-0.15788-5.081-0.87144-1.6896-2.0012-3.252-3.4058-4.5314-1.4845-1.343-3.2458-2.358-5.1507-2.9444-8.7184-0.82017-13.024 5.2983-13.018 5.2983 1.7716 0 3.5657 0.30756 5.1896 1.0621 1.749 0.84478 3.1966 2.2268 4.2321 3.9327h-0.006z" fill="url(#linearGradient7555)"/>
    <path d="m177.37 63.383c0.58848 0.79762-0.0759 1.0662-1.4456 0.93705 4.1091 1.2815 3.1659 0.14968 1.4517-0.93705h-0.006zm3.8794-0.58027c3.8671 0.42239 2.8357-0.41829 1.1298-1.0826 0.65409 0.60488 0.11278 0.95755-1.1236 1.0826h-0.006zm2.7742 2.887c0.54541 0.88784-0.17429 1.1113-1.6014 0.85503 4.1972 1.708 3.3094 0.43674 1.6075-0.85503h-0.006zm1.9418-1.0539c0.54747 0.88989-0.17223 1.1113-1.5993 0.85503 4.1972 1.708 3.3094 0.43674 1.6055-0.85503h-0.006zm-8.7328 0.84683c4.2034 1.708 3.3155 0.43674 1.6137-0.85503 0.53927 0.88784-0.18043 1.1093-1.6055 0.85503h-0.008zm3.9245 0.42444c0.54541 0.88784-0.17429 1.1093-1.6014 0.85503 4.1972 1.708 3.3094 0.43674 1.6075-0.85503h-0.006zm3.5534-2.155c-0.30962-0.2399-0.80582-0.51671-1.3656-0.77916 0.71766 0.75456 0.0595 1.1216-1.3881 1.1728 3.1454 0.55362 3.5103 0.19274 2.7783-0.38343 4.4064 0.76891 3.2725-0.28296 1.3451-1.181 0.70124 0.74636 0.0595 1.1134-1.3635 1.1708h-0.006zm-4.515 1.6732c4.4699 0.78532 3.332-0.27066 1.3964-1.1728 0.7156 0.75251 0.0574 1.1216-1.3902 1.1728h-0.006zm0.0103-2.3026c0.28296 0.51056-0.29321 0.7402-1.384 0.7402 3.6436 0.77506 2.928-0.05741 1.425-0.86118-0.0431-0.2563-0.57822-0.73815-1.2528-1.22 0.48801 0.74636-0.12302 0.9555-1.3512 0.77506 1.6608 0.61923 2.397 0.72995 2.5692 0.56592h-0.006zm6.4404 4.2731c4.0434 2.52 3.3524 1.0457 1.8208-0.59668 0.40188 1.017-0.38343 1.1175-1.8146 0.59668h-0.006zm-2.1488 0.9391c4.0434 2.52 3.3504 1.0457 1.8208-0.59668 0.39983 1.017-0.38548 1.1175-1.8146 0.59668h-0.006zm-9.0752-3.6395c0.54746 0.88784-0.17224 1.1113-1.5993 0.85503 4.1972 1.708 3.3094 0.43674 1.6055-0.85503h-0.006zm13.451-0.0082c0.38753 0.9678-0.35882 1.0642-1.7203 0.56797 3.8446 2.399 3.1843 0.99446 1.7265-0.56797h-0.006zm-7.2032 3.8056c4.2444 2.6471 3.5185 1.099 1.911-0.62538 0.42034 1.0662-0.40393 1.1728-1.9048 0.62538h-0.006zm-4.3674-2.3272c0.54541 0.88784-0.17429 1.1093-1.6014 0.85503 4.1972 1.708 3.3094 0.43674 1.6075-0.85503h-0.006zm2.9034 1.6055c0.54746 0.88989-0.17224 1.1113-1.5993 0.85503 4.1972 1.708 3.3094 0.43674 1.6055-0.85503h-0.006zm-0.50646 2.6697c3.7892 3.6375 3.3771 1.8905 2.0996-0.2317 0.20094 1.1913-0.66844 1.1195-2.0935 0.2317h-0.006z" fill="url(#linearGradient7557)"/>
    <path d="m183.55 78.741c-1.4025-0.92269-1.2303-3.211-1.2241-3.211 0.11483 0.6992 1.1052 0.52901 1.1113 0.52901-0.20915-0.64999-0.1907-4.187-0.18454-4.187 1.3963 5.2635 2.3908 4.6114 1.9664-0.56387-0.0123 0 2.1242 3.9471-1.6629 7.4328h-0.006z" fill="#4a6eaa"/>
    <path d="m186.9 75.735c0.35882-0.87143-0.2399-3.9655-0.23375-3.9655 0.006 0 0.4757 0.92269 1.1585 0.68484 0 0 0.17019-1.505-0.9514-2.2555-0.004 0 1.1585 0.30756 1.4722-0.34242-0.0102 0 2.4154 3.8958-1.4394 5.8786h-0.006z" fill="#4a6eaa"/>
   </g>
  </g>
  <path d="m5.7756 1033.9v1.0133c0 6.668 5.3434 12.032 11.985 12.032h60.809c6.6418 0 11.985-5.3645 11.985-12.032v-1.0133c0 6.6681-5.3434 12.032-11.985 12.032h-60.809c-6.6418 0-11.985-5.3644-11.985-12.032z" fill-opacity="0.098"/>
  <path d="m5.7756 1029.8v5.0663c0 6.668 5.3434 12.032 11.985 12.032h60.809c6.6418 0 11.985-5.3645 11.985-12.032v-5.0663c0 6.6681-5.3434 12.032-11.985 12.032h-60.809c-6.6418 0-11.985-5.3643-11.985-12.032z" fill-opacity="0.235"/>
 </g>
</svg>
