<?xml version="1.0" encoding="UTF-8" standalone="no"?>
<svg
   xmlns:dc="http://purl.org/dc/elements/1.1/"
   xmlns:cc="http://creativecommons.org/ns#"
   xmlns:rdf="http://www.w3.org/1999/02/22-rdf-syntax-ns#"
   xmlns:svg="http://www.w3.org/2000/svg"
   xmlns="http://www.w3.org/2000/svg"
   xmlns:xlink="http://www.w3.org/1999/xlink"
   xmlns:sodipodi="http://sodipodi.sourceforge.net/DTD/sodipodi-0.dtd"
   xmlns:inkscape="http://www.inkscape.org/namespaces/inkscape"
   height="96"
   width="96"
   id="svg2"
   version="1.1"
   inkscape:version="0.91 r13725"
   sodipodi:docname="config-date.svg">
  <metadata
     id="metadata128">
    <rdf:RDF>
      <cc:Work
         rdf:about="">
        <dc:format>image/svg+xml</dc:format>
        <dc:type
           rdf:resource="http://purl.org/dc/dcmitype/StillImage" />
      </cc:Work>
    </rdf:RDF>
  </metadata>
  <sodipodi:namedview
     pagecolor="#ffffff"
     bordercolor="#666666"
     borderopacity="1"
     objecttolerance="10"
     gridtolerance="10"
     guidetolerance="10"
     inkscape:pageopacity="0"
     inkscape:pageshadow="2"
     inkscape:window-width="640"
     inkscape:window-height="480"
     id="namedview126"
     showgrid="false"
     inkscape:zoom="2.4583333"
     inkscape:cx="48"
     inkscape:cy="48"
     inkscape:current-layer="svg2" />
  <defs
     id="defs4">
    <filter
       color-interpolation-filters="sRGB"
       id="filter3944-2">
      <feGaussianBlur
         stdDeviation="0.43594"
         id="feGaussianBlur7" />
    </filter>
    <linearGradient
       id="linearGradient3674-2">
      <stop
         stop-color="#fff"
         id="stop10" />
      <stop
         stop-color="#fff"
         offset="0.3"
         id="stop12" />
      <stop
         stop-color="#f0f0f0"
         offset="0.9"
         id="stop14" />
      <stop
         stop-color="#d2d2d2"
         offset="1"
         id="stop16" />
    </linearGradient>
    <radialGradient
       cy="60"
       r="5"
       xlink:href="#linearGradient3674-2"
       gradientUnits="userSpaceOnUse"
       id="radialGradient14420"
       cx="48"
       gradientTransform="matrix(0,-1,1,0,-11.828,105.54)" />
    <linearGradient
       x1="43"
       x2="53"
       gradientUnits="userSpaceOnUse"
       id="linearGradient14423"
       gradientTransform="matrix(0,-1.2,1.2,0,-23.828,115.14)">
      <stop
         stop-color="#fff"
         id="stop20" />
      <stop
         stop-color="#868686"
         offset="1"
         id="stop22" />
    </linearGradient>
    <linearGradient
       x1="17"
       x2="120"
       gradientUnits="userSpaceOnUse"
       id="linearGradient14434"
       gradientTransform="matrix(0,1,-1,0,96.17,-3.5)">
      <stop
         id="stop25" />
      <stop
         stop-opacity="0"
         offset="1"
         id="stop27" />
    </linearGradient>
    <linearGradient
       x1="13"
       x2="83"
       gradientUnits="userSpaceOnUse"
       id="linearGradient14437"
       gradientTransform="matrix(0,1,-1,0,96.17,-3.5)">
      <stop
         stop-color="#fff"
         id="stop30" />
      <stop
         stop-color="#fff"
         stop-opacity="0.412"
         offset="0.5"
         id="stop32" />
      <stop
         stop-color="#868686"
         offset="1"
         id="stop34" />
    </linearGradient>
    <radialGradient
       cy="46.06"
       r="3"
       gradientUnits="userSpaceOnUse"
       id="radialGradient14440"
       cx="48"
       gradientTransform="matrix(0.66667,0,0,0.66667,16.17,968.86)">
      <stop
         stop-color="#fff"
         id="stop37" />
      <stop
         stop-color="#a2a2a2"
         offset="1"
         id="stop39" />
    </radialGradient>
    <radialGradient
       cy="48"
       r="32"
       xlink:href="#linearGradient3674-2"
       gradientUnits="userSpaceOnUse"
       id="radialGradient14461"
       cx="48"
       gradientTransform="matrix(0,0.96875,-0.96875,0,94.67,-2)" />
    <linearGradient
       x1="16"
       x2="80"
       gradientUnits="userSpaceOnUse"
       id="linearGradient14464"
       gradientTransform="matrix(0,1.0938,-1.0938,0,100.67,-8)">
      <stop
         stop-color="#f0f0f0"
         id="stop43" />
      <stop
         stop-color="#b4b4b4"
         offset="1"
         id="stop45" />
    </linearGradient>
    <path
       d="m50.172 1000.9a2 2 0 0 1 -4 0 2 2 0 1 1 4 0z"
       color="#000000"
       id="SVGCleanerId_0" />
    <linearGradient
       inkscape:collect="always"
       xlink:href="#linearGradient14231"
       id="linearGradient14237"
       x1="50.707542"
       y1="81.682442"
       x2="50.707542"
       y2="96.539803"
       gradientUnits="userSpaceOnUse" />
    <linearGradient
       inkscape:collect="always"
       id="linearGradient14231">
      <stop
         style="stop-color:#000000;stop-opacity:1;"
         offset="0"
         id="stop14233" />
      <stop
         style="stop-color:#000000;stop-opacity:0;"
         offset="1"
         id="stop14235" />
    </linearGradient>
    <linearGradient
       inkscape:collect="always"
       xlink:href="#linearGradient14239"
       id="linearGradient14245"
       x1="49.876652"
       y1="87.937508"
       x2="49.876652"
       y2="76.719681"
       gradientUnits="userSpaceOnUse" />
    <linearGradient
       inkscape:collect="always"
       id="linearGradient14239">
      <stop
         style="stop-color:#ffffff;stop-opacity:1;"
         offset="0"
         id="stop14241" />
      <stop
         style="stop-color:#ffffff;stop-opacity:0;"
         offset="1"
         id="stop14243" />
    </linearGradient>
  </defs>
  <rect
     style="fill-opacity:0.02000002"
     id="rect50"
     width="89.620003"
     height="89.980003"
     y="2.9899757"
     rx="12.724"
     x="3.3529999" />
  <rect
     style="fill-opacity:0.03900003"
     id="rect52"
     width="88.410004"
     height="88.760002"
     y="3.6000221"
     rx="12.552"
     x="3.9590001" />
  <rect
     style="fill-opacity:0.078"
     id="rect54"
     width="87.199997"
     height="87.550003"
     y="4.2100072"
     rx="12.38"
     x="4.5640001" />
  <rect
     style="fill-opacity:0.15700001"
     id="rect56"
     width="85.990997"
     height="86.330002"
     y="4.8199925"
     rx="12.208"
     x="5.1700001" />
  <path
     style="fill:#666666"
     inkscape:connector-curvature="0"
     id="path58"
     d="m 17.75,5.4062 c -6.642,0 -11.969,5.3948 -11.969,12.063 l 2e-4,61.031 c 0,6.668 5.3268,12.031 11.969,12.031 l 60.812,0 c 6.642,0 11.969,-5.363 11.969,-12.031 l 0,-61.031 c 0,-6.668 -5.327,-12.063 -11.969,-12.063 l -60.812,2e-4 z" />
  <path
     style="color:#000000"
     inkscape:connector-curvature="0"
     id="path64"
     d="m 48.172,80.54 a 35,35 0 1 1 0,-70 35,35 0 0 1 0,70 z" />
  <path
     inkscape:connector-curvature="0"
     style="color:#000000;fill:url(#linearGradient14464)"
     id="path66"
     d="m 48.172,79.54 a 35,35 0 1 1 0,-70 35,35 0 0 1 0,70 z" />
  <path
     inkscape:connector-curvature="0"
     style="color:#000000;fill:url(#radialGradient14461)"
     id="path68"
     d="m 48.172,75.54 a 31,31 0 1 1 0,-62 31,31 0 0 1 0,62 z" />
  <path
     style="opacity:0.3;filter:url(#filter3944-2)"
     inkscape:connector-curvature="0"
     id="path70"
     d="m 37.109,25.35 -0.875,0.5 9.6875,16.781 -12.969,-6.7812 -0.75,1.3125 13.875,8.8125 -2.4062,3.5 0.53125,0.5312 4.1875,-2.8437 4.7812,1.6562 0.375,-0.625 -3.2188,-2.7812 15.344,-16.344 -1.0625,-1.0625 -16.688,15.656 -0.3125,-0.15621 -10.5,-18.156 z" />
  <path
     inkscape:connector-curvature="0"
     id="path72"
     d="M 64.609,27 49.015,41.656 c -0.27356,-0.0821 -0.54344,-0.15625 -0.84375,-0.15625 -1.6568,0 -3,1.3432 -3,2.99985 0,0.4735 0.11716,0.9144 0.3125,1.3125 l -1.8125,2.6563 0.53125,0.5312 2.6562,-1.8125 c 0.39821,0.1954 0.83903,0.3125 1.3125,0.3125 1.6568,0 3,-1.3431 3,-3 0,-0.3002 -0.0741,-0.5701 -0.15625,-0.8437 l 14.656,-15.59395 -1.0625,-1.0625 z" />
  <g
     id="g74"
     transform="translate(0.172,-1.5)">
    <path
       inkscape:connector-curvature="0"
       id="path76"
       d="m 46.196,24 -0.71207,0 0,-3.6939 c -3e-6,-0.11598 -3e-6,-0.24005 0,-0.37222 0.0027,-0.13216 0.0054,-0.26298 0.0081,-0.39245 0.0054,-0.13216 0.0094,-0.25758 0.01214,-0.37626 0.0054,-0.12137 0.0094,-0.22791 0.01214,-0.31962 -0.04586,0.04856 -0.08631,0.09036 -0.12138,0.12542 -0.03507,0.03507 -0.07148,0.06878 -0.10924,0.10115 -0.03507,0.03237 -0.07283,0.06744 -0.11328,0.10519 -0.04046,0.03507 -0.08901,0.07688 -0.14565,0.12542 l -0.59879,0.48955 -0.3884,-0.49764 1.5496,-1.2097 0.60688,0 0,5.915" />
    <path
       inkscape:connector-curvature="0"
       id="path78"
       d="m 51.961,24 -3.6898,0 0,-0.63115 1.416,-1.5415 c 0.20229,-0.21847 0.383,-0.41807 0.54214,-0.59879 0.15913,-0.18071 0.294,-0.35738 0.40458,-0.53001 0.11328,-0.17262 0.19959,-0.34524 0.25894,-0.51787 0.05934,-0.17532 0.08901,-0.36547 0.08901,-0.57046 -3e-6,-0.15913 -0.02293,-0.29939 -0.06878,-0.42077 -0.04586,-0.12137 -0.11194,-0.22387 -0.19825,-0.30748 -0.08362,-0.08631 -0.18341,-0.15104 -0.29939,-0.1942 -0.11598,-0.04315 -0.24545,-0.06473 -0.3884,-0.06473 -0.25624,6e-6 -0.4882,0.0526 -0.69589,0.15779 -0.20499,0.1025 -0.40054,0.23466 -0.58665,0.39649 l -0.41268,-0.48146 c 0.10789,-0.09709 0.22387,-0.18745 0.34794,-0.27107 0.12407,-0.08631 0.25758,-0.16048 0.40054,-0.22252 0.14295,-0.06203 0.294,-0.11058 0.45314,-0.14565 0.15914,-0.03776 0.32636,-0.05664 0.50169,-0.05664 0.25893,6e-6 0.49224,0.03642 0.69993,0.10924 0.21038,0.07283 0.3884,0.17802 0.53405,0.31558 0.14565,0.13487 0.25758,0.30075 0.33581,0.49764 0.08091,0.1942 0.12137,0.41403 0.12138,0.65947 -4e-6,0.22927 -0.03642,0.44774 -0.10924,0.65543 -0.07013,0.20769 -0.16858,0.41268 -0.29535,0.61497 -0.12408,0.1996 -0.27377,0.40054 -0.44909,0.60283 -0.17263,0.20229 -0.36008,0.41268 -0.56237,0.63115 l -1.1369,1.2097 0,0.03237 2.7876,0 0,0.67161" />
  </g>
  <path
     inkscape:connector-curvature="0"
     id="path80"
     d="m 46.23,69.971 c -10e-7,-0.28321 0.01349,-0.56507 0.04046,-0.84558 0.02967,-0.28051 0.07957,-0.54888 0.1497,-0.80512 0.07282,-0.25893 0.17127,-0.49898 0.29535,-0.72016 0.12407,-0.22117 0.28186,-0.41267 0.47336,-0.57451 0.1915,-0.16453 0.42077,-0.29264 0.6878,-0.38436 0.26702,-0.0944 0.5799,-0.1416 0.93864,-0.1416 0.05124,6e-6 0.10789,0.0014 0.16993,0.004 0.06203,0.0027 0.12407,0.0081 0.18611,0.01618 0.06473,0.0054 0.12542,0.01349 0.18206,0.02428 0.05934,0.0081 0.11193,0.01889 0.15779,0.03237 l 0,0.62711 C 49.41679,67.17125 49.31025,67.14697 49.19158,67.13078 49.0729,67.1146 48.95557,67.10651 48.83959,67.1065 c -0.24275,5e-6 -0.45718,0.02968 -0.64329,0.08901 -0.18341,0.05665 -0.34255,0.13756 -0.47741,0.24275 -0.13486,0.1052 -0.24815,0.23062 -0.33985,0.37626 -0.08901,0.14566 -0.16184,0.30749 -0.21848,0.4855 -0.05664,0.17532 -0.09845,0.36278 -0.12542,0.56237 -0.02697,0.1996 -0.04451,0.40729 -0.0526,0.62306 l 0.04855,0 c 0.05394,-0.0971 0.11868,-0.18746 0.1942,-0.27107 0.07822,-0.08631 0.16858,-0.15913 0.27107,-0.21848 0.10249,-0.06203 0.21712,-0.11058 0.3439,-0.14565 0.12946,-0.03506 0.27377,-0.05259 0.43291,-0.0526 0.25624,3e-6 0.4882,0.04046 0.69589,0.12138 0.20768,0.07822 0.38435,0.1942 0.53001,0.34794 0.14565,0.15374 0.25758,0.34255 0.33581,0.56642 0.08091,0.22118 0.12137,0.47472 0.12138,0.76062 -4e-6,0.30749 -0.04181,0.58395 -0.12542,0.8294 -0.08362,0.24545 -0.20364,0.45448 -0.36008,0.62711 -0.15644,0.16993 -0.34525,0.30074 -0.56642,0.39245 -0.22118,0.09171 -0.46932,0.13756 -0.74444,0.13756 -0.26973,0 -0.52327,-0.0526 -0.76062,-0.15779 -0.23466,-0.10519 -0.4383,-0.26568 -0.61092,-0.48146 -0.17262,-0.21578 -0.30883,-0.48685 -0.40863,-0.81322 -0.0998,-0.32636 -0.1497,-0.71207 -0.1497,-1.1571 m 1.9218,1.9906 c 0.16183,0 0.30883,-0.02697 0.441,-0.08092 0.13486,-0.05664 0.25084,-0.14026 0.34794,-0.25084 0.0971,-0.11328 0.17127,-0.25489 0.22252,-0.42482 0.05394,-0.17262 0.08091,-0.37626 0.08092,-0.61092 -3e-6,-0.1888 -0.02293,-0.35738 -0.06878,-0.50573 -0.04316,-0.15104 -0.10924,-0.27916 -0.19825,-0.38436 -0.08901,-0.10519 -0.20095,-0.18611 -0.33581,-0.24275 -0.13217,-0.05664 -0.28726,-0.08496 -0.46527,-0.08496 -0.18072,3e-6 -0.3466,0.03237 -0.49764,0.0971 -0.14835,0.06204 -0.27512,0.1443 -0.38031,0.2468 -0.10519,0.0998 -0.18746,0.21443 -0.2468,0.3439 -0.05664,0.12947 -0.08496,0.25894 -0.08496,0.3884 -10e-7,0.18072 0.02427,0.36143 0.07283,0.54214 0.05125,0.17802 0.12542,0.3385 0.22252,0.48146 0.0998,0.14296 0.22387,0.26028 0.37222,0.35199 0.14835,0.08901 0.32097,0.13351 0.51787,0.13351" />
  <path
     inkscape:connector-curvature="0"
     id="path82"
     d="m 74.661,42.969 c -4e-6,0.1969 -0.03102,0.37627 -0.09305,0.5381 -0.06204,0.16184 -0.1497,0.30209 -0.26298,0.42077 -0.11059,0.11868 -0.2441,0.21713 -0.40054,0.29535 -0.15644,0.07553 -0.33041,0.12947 -0.52192,0.16183 l 0,0.02428 c 0.47741,0.05934 0.84018,0.21174 1.0883,0.45718 0.24814,0.24275 0.37221,0.55968 0.37222,0.95078 -5e-6,0.25894 -0.04451,0.49629 -0.13351,0.71207 -0.08631,0.21578 -0.21848,0.40189 -0.39649,0.55833 -0.17802,0.15644 -0.40324,0.27782 -0.67566,0.36413 -0.27242,0.08631 -0.59474,0.12947 -0.96696,0.12947 -0.294,0 -0.57182,-0.02293 -0.83345,-0.06878 -0.25894,-0.04585 -0.50304,-0.12947 -0.7323,-0.25084 l 0,-0.6878 c 0.23466,0.12407 0.4882,0.21982 0.76062,0.28726 0.27512,0.06743 0.5381,0.10115 0.78894,0.10115 0.24814,0 0.46257,-0.02697 0.64329,-0.08092 0.18071,-0.05395 0.32906,-0.13082 0.44504,-0.23061 0.11868,-0.0998 0.20499,-0.22252 0.25893,-0.36817 0.05664,-0.14565 0.08496,-0.30883 0.08496,-0.48955 -3e-6,-0.18341 -0.03642,-0.33985 -0.10924,-0.46932 -0.07013,-0.13216 -0.17128,-0.24005 -0.30344,-0.32367 -0.13217,-0.08631 -0.294,-0.14969 -0.4855,-0.19016 -0.18881,-0.04046 -0.40324,-0.06068 -0.64329,-0.06069 l -0.5381,0 0,-0.61092 0.5381,0 c 0.21847,4e-6 0.41268,-0.02697 0.5826,-0.08092 0.16992,-0.05394 0.31153,-0.13081 0.42481,-0.23061 0.11598,-0.09979 0.20364,-0.21847 0.26298,-0.35604 0.05934,-0.13755 0.08901,-0.2886 0.08901,-0.45314 -3e-6,-0.14025 -0.02428,-0.26567 -0.07283,-0.37626 -0.04855,-0.11058 -0.11733,-0.20364 -0.20634,-0.27916 -0.08901,-0.07822 -0.19555,-0.13755 -0.31962,-0.17802 -0.12408,-0.04045 -0.26163,-0.06068 -0.41268,-0.06069 -0.28861,6e-6 -0.54349,0.04586 -0.76467,0.13756 -0.21848,0.08901 -0.42751,0.20634 -0.62711,0.35199 l -0.371,-0.505 c 0.10249,-0.08361 0.21578,-0.16183 0.33985,-0.23466 0.12677,-0.07282 0.26433,-0.1362 0.41268,-0.19016 0.14835,-0.05664 0.30614,-0.10114 0.47336,-0.13351 0.16992,-0.03236 0.34929,-0.04854 0.5381,-0.04855 0.2913,6e-6 0.54619,0.03642 0.76467,0.10924 0.22117,0.07283 0.40593,0.17533 0.55428,0.30748 0.14834,0.12947 0.26028,0.28456 0.33581,0.46527 0.07552,0.17802 0.11328,0.37357 0.11328,0.58665" />
  <path
     inkscape:connector-curvature="0"
     id="path84"
     d="m 24.932,44.11 c -4e-6,0.28321 -0.01484,0.56642 -0.0445,0.84963 -0.02698,0.28052 -0.07688,0.54889 -0.1497,0.80512 -0.07013,0.25624 -0.16723,0.49629 -0.2913,0.72016 -0.12408,0.22117 -0.28186,0.41268 -0.47336,0.57451 -0.19151,0.16183 -0.42077,0.28995 -0.6878,0.38436 -0.26703,0.09171 -0.57991,0.13756 -0.93864,0.13756 -0.05125,0 -0.10789,-0.0013 -0.16993,-0.004 -0.06204,-0.0027 -0.12407,-0.0081 -0.18611,-0.01618 -0.06204,-0.0054 -0.12272,-0.01214 -0.18206,-0.02023 -0.05934,-0.0081 -0.11194,-0.01888 -0.15779,-0.03237 l 0,-0.63115 c 0.0944,0.03506 0.20094,0.06069 0.31962,0.07687 0.11868,0.01618 0.23601,0.02428 0.35199,0.02428 0.36412,0 0.66352,-0.06338 0.89818,-0.19016 0.23466,-0.12677 0.42077,-0.29804 0.55833,-0.51382 0.13756,-0.21848 0.23466,-0.47202 0.2913,-0.76062 0.05934,-0.2886 0.09575,-0.59339 0.10924,-0.91436 l -0.0526,0 c -0.05395,0.0971 -0.11868,0.18746 -0.1942,0.27107 -0.07552,0.08362 -0.16453,0.15644 -0.26703,0.21848 -0.1025,0.06204 -0.21848,0.11059 -0.34794,0.14565 -0.12947,0.03507 -0.27377,0.0526 -0.43291,0.0526 -0.25624,3e-6 -0.4882,-0.03911 -0.69589,-0.11733 -0.208,-0.081 -0.384,-0.199 -0.53,-0.352 -0.146,-0.154 -0.259,-0.342 -0.34,-0.563 -0.078,-0.224 -0.117,-0.479 -0.117,-0.764 -10e-7,-0.30748 0.04181,-0.58395 0.12542,-0.8294 0.08631,-0.24814 0.20634,-0.45718 0.36008,-0.62711 0.15644,-0.17262 0.34524,-0.30478 0.56642,-0.39649 0.22387,-0.0917 0.47336,-0.13755 0.74848,-0.13756 0.27242,6e-6 0.52596,0.0526 0.76062,0.15779 0.23466,0.1052 0.4383,0.26568 0.61092,0.48146 0.17262,0.21578 0.30883,0.4882 0.40863,0.81726 0.09979,0.32637 0.14969,0.71072 0.1497,1.1531 m -1.9218,-1.9865 c -0.16184,6e-6 -0.31018,0.02698 -0.44504,0.08092 -0.13217,0.05395 -0.2468,0.13756 -0.3439,0.25084 -0.0971,0.11329 -0.17262,0.25624 -0.22657,0.42886 -0.05125,0.16993 -0.07687,0.37222 -0.07687,0.60688 -1e-6,0.18881 0.02158,0.35874 0.06473,0.50978 0.04585,0.14835 0.11328,0.27512 0.20229,0.38031 0.08901,0.1052 0.19959,0.18611 0.33176,0.24275 0.13486,0.05664 0.2913,0.08497 0.46932,0.08496 0.18341,3e-6 0.34929,-0.03101 0.49764,-0.09305 0.14834,-0.06473 0.27512,-0.147 0.38031,-0.2468 0.10519,-0.10249 0.18611,-0.21847 0.24275,-0.34794 0.05934,-0.12946 0.08901,-0.25893 0.08901,-0.3884 -4e-6,-0.18071 -0.02563,-0.36008 -0.07687,-0.5381 -0.04855,-0.18071 -0.12273,-0.34254 -0.22252,-0.4855 -0.0971,-0.14565 -0.21983,-0.26298 -0.36817,-0.35199 -0.14835,-0.089 -0.32097,-0.13351 -0.51787,-0.13351" />
  <path
     inkscape:connector-curvature="0"
     id="path86"
     d="m 47.422,45.84 -15.213,-9.6495 0.75,-1.299 15.963,8.3505 4.6336,3.9742 -0.375,0.6495 L 47.422,45.84 Z" />
  <use
     height="100%"
     width="100%"
     y="0"
     x="0"
     id="use88"
     xlink:href="#SVGCleanerId_0"
     transform="translate(0,-956.36)" />
  <path
     style="color:#000000;fill:#ff0000"
     inkscape:connector-curvature="0"
     id="path90"
     d="m 49.672,44.54 a 1.5,1.5 0 0 1 -3,0 1.5,1.5 0 1 1 3,0 z" />
  <path
     style="color:#000000;fill:#ff0000"
     inkscape:connector-curvature="0"
     id="path92"
     d="m 37.109,24.35 -0.875,0.5 10.531,18.25 c -0.36193,0.36193 -0.59375,0.854 -0.59375,1.4062 0,1.1046 0.89543,2 2,2 1.10457,0 2,-0.8954 2,-2 0,-1.1045 -0.89543,-1.9999 -2,-1.9999 -0.18294,0 -0.3629,0.0165 -0.53125,0.0625 L 37.109,24.3498 Z" />
  <use
     height="100%"
     width="100%"
     y="0"
     x="0"
     style="fill:url(#radialGradient14440)"
     id="use94"
     xlink:href="#SVGCleanerId_0"
     transform="translate(0,-956.36)" />
  <path
     inkscape:connector-curvature="0"
     style="color:#000000;fill:url(#linearGradient14437)"
     id="path96"
     d="m 83.172,44.54 c 0,-19.33 -15.67,-35 -35,-35 -19.33,0 -35,15.67 -35,35 0,19.33 15.67,35 35,35 19.33,0 35,-15.67 35,-35 z m -1,0 c 0,18.778 -15.222,34 -34,34 -18.778,0 -34,-15.222 -34,-34 0,-18.778 15.222,-34 34,-34 18.778,0 34,15.222 34,34 z" />
  <path
     inkscape:connector-curvature="0"
     style="color:#000000;opacity:0.3;fill:url(#linearGradient14434)"
     id="path98"
     d="m 79.172,44.54 c 0,-17.121 -13.879,-31 -31,-31 -17.121,0 -31,13.879 -31,31 0,17.121 13.879,31 31,31 17.121,0 31,-13.879 31,-31 z m -1,0 c 0,16.569 -13.431,30 -30,30 -16.569,0 -30,-13.431 -30,-30 0,-16.568 13.431,-30 30,-30 16.569,0 30,13.431 30,30 z" />
  <path
     style="color:#000000;opacity:0.5"
     inkscape:connector-curvature="0"
     id="path100"
     d="m 61.538,23.35 a 1,1 0 1 1 -1.732,-1 1,1 0 0 1 1.732,1 z" />
  <path
     style="color:#000000;opacity:0.5"
     inkscape:connector-curvature="0"
     id="path102"
     d="m 70.323,32.87 a 1,1 0 0 1 -1,-1.732 1,1 0 0 1 1,1.732 z" />
  <path
     style="color:#000000;opacity:0.5"
     inkscape:connector-curvature="0"
     id="path104"
     d="m 69.323,57.84 a 1.0000213,1.0000213 0 0 1 1,-1.7321 1.0000213,1.0000213 0 0 1 -1,1.7321 z" />
  <path
     style="color:#000000;opacity:0.5"
     inkscape:connector-curvature="0"
     id="path106"
     d="m 59.806,66.64 a 1,1 0 0 1 1.732,-1 1,1 0 0 1 -1.732,1 z" />
  <path
     style="color:#000000;opacity:0.5"
     inkscape:connector-curvature="0"
     id="path108"
     d="m 34.806,65.64 a 1,1 0 1 1 1.732,1 1,1 0 0 1 -1.732,-1 z" />
  <path
     style="color:#000000;opacity:0.5"
     inkscape:connector-curvature="0"
     id="path110"
     d="m 26.021,56.14 a 1.0000213,1.0000213 0 0 1 1,1.7321 1.0000213,1.0000213 0 0 1 -1,-1.7321 z" />
  <path
     style="color:#000000;opacity:0.5"
     inkscape:connector-curvature="0"
     id="path112"
     d="m 27.021,31.14 a 1,1 0 0 1 -1,1.732 1,1 0 0 1 1,-1.732 z" />
  <path
     style="color:#000000;opacity:0.5"
     inkscape:connector-curvature="0"
     id="path114"
     d="m 36.538,22.35 a 1,1 0 0 1 -1.732,1 1,1 0 1 1 1.732,-1 z" />
  <path
     inkscape:connector-curvature="0"
     style="color:#000000;opacity:0.6;fill:url(#linearGradient14423)"
     id="path116"
     d="m 48.172,51.54 a 6,6 0 0 1 0,12 6,6 0 1 1 0,-12 z" />
  <path
     inkscape:connector-curvature="0"
     style="color:#000000;fill:url(#radialGradient14420)"
     id="path118"
     d="m 48.172,52.54 a 5,5 0 0 1 0,10 5,5 0 1 1 0,-10 z" />
  <g
     style="opacity:0.4"
     id="g120"
     transform="matrix(0.73723,0,0,0.73723,-48.785,40.23)">
    <path
       inkscape:connector-curvature="0"
       id="path122"
       d="m 130.96,26 -3.6898,0 0,-0.63115 1.416,-1.5415 c 0.20229,-0.21847 0.38301,-0.41807 0.54215,-0.59879 0.15913,-0.18071 0.29399,-0.35738 0.40458,-0.53001 0.11328,-0.17262 0.19959,-0.34524 0.25894,-0.51787 0.0593,-0.17532 0.089,-0.36547 0.089,-0.57046 -1e-5,-0.15913 -0.0229,-0.29939 -0.0688,-0.42077 -0.0459,-0.12137 -0.11194,-0.22387 -0.19825,-0.30748 -0.0836,-0.08631 -0.18342,-0.15104 -0.29939,-0.1942 -0.11599,-0.04315 -0.24545,-0.06473 -0.38841,-0.06473 -0.25624,6e-6 -0.4882,0.0526 -0.69588,0.15779 -0.20499,0.1025 -0.40054,0.23466 -0.58665,0.39649 l -0.41268,-0.48146 c 0.10789,-0.09709 0.22387,-0.18745 0.34794,-0.27107 0.12408,-0.08631 0.25759,-0.16048 0.40054,-0.22252 0.14296,-0.06203 0.294,-0.11058 0.45314,-0.14565 0.15913,-0.03776 0.32636,-0.05664 0.50169,-0.05664 0.25893,6e-6 0.49224,0.03642 0.69993,0.10924 0.21038,0.07283 0.3884,0.17802 0.53405,0.31558 0.14565,0.13487 0.25758,0.30075 0.33581,0.49764 0.0809,0.1942 0.12137,0.41403 0.12137,0.65947 0,0.22927 -0.0364,0.44774 -0.10924,0.65543 -0.0701,0.20769 -0.16858,0.41268 -0.29534,0.61497 -0.12408,0.1996 -0.27378,0.40054 -0.44909,0.60283 -0.17263,0.20229 -0.36009,0.41268 -0.56238,0.63115 l -1.1369,1.2097 0,0.03237 2.7876,0 0,0.67161" />
    <path
       inkscape:connector-curvature="0"
       id="path124"
       d="m 135.6,22.529 c -1e-5,0.28321 -0.0148,0.56642 -0.0445,0.84963 -0.027,0.28052 -0.0769,0.54889 -0.1497,0.80512 -0.0701,0.25624 -0.16723,0.49629 -0.2913,0.72016 -0.12408,0.22117 -0.28187,0.41268 -0.47337,0.57451 -0.1915,0.16183 -0.42077,0.28995 -0.68779,0.38436 -0.26703,0.09171 -0.57991,0.13756 -0.93864,0.13756 -0.0512,0 -0.10789,-0.0013 -0.16993,-0.004 -0.062,-0.0027 -0.12407,-0.0081 -0.1861,-0.01618 -0.062,-0.0054 -0.12273,-0.01214 -0.18207,-0.02023 -0.0593,-0.0081 -0.11193,-0.01888 -0.15779,-0.03237 l 0,-0.63115 c 0.0944,0.03506 0.20095,0.06069 0.31963,0.07687 0.11867,0.01618 0.236,0.02428 0.35199,0.02428 0.36412,0 0.66351,-0.06338 0.89817,-0.19016 0.23466,-0.12677 0.42077,-0.29804 0.55833,-0.51382 0.13756,-0.21848 0.23466,-0.47202 0.2913,-0.76062 0.0593,-0.2886 0.0958,-0.59339 0.10924,-0.91436 l -0.0526,0 c -0.054,0.0971 -0.11868,0.18746 -0.1942,0.27107 -0.0755,0.08362 -0.16453,0.15644 -0.26702,0.21848 -0.1025,0.06204 -0.21848,0.11059 -0.34795,0.14565 -0.12947,0.03507 -0.27377,0.0526 -0.4329,0.0526 -0.25624,3e-6 -0.48821,-0.03911 -0.69589,-0.11733 -0.20769,-0.08097 -0.38436,-0.1983 -0.53001,-0.35204 -0.14565,-0.15374 -0.25893,-0.3412 -0.33985,-0.56237 -0.0782,-0.22387 -0.11733,-0.47876 -0.11733,-0.76467 0,-0.30748 0.0418,-0.58395 0.12542,-0.8294 0.0863,-0.24814 0.20634,-0.45718 0.36008,-0.62711 0.15644,-0.17262 0.34525,-0.30478 0.56642,-0.39649 0.22387,-0.0917 0.47337,-0.13755 0.74848,-0.13756 0.27242,6e-6 0.52596,0.0526 0.76063,0.15779 0.23465,0.1052 0.43829,0.26568 0.61092,0.48146 0.17262,0.21578 0.30883,0.4882 0.40863,0.81726 0.0998,0.32637 0.14969,0.71072 0.1497,1.1531 m -1.9218,-1.9865 c -0.16184,6e-6 -0.31019,0.02698 -0.44505,0.08092 -0.13216,0.05395 -0.24679,0.13756 -0.34389,0.25084 -0.0971,0.11329 -0.17263,0.25624 -0.22657,0.42886 -0.0512,0.16993 -0.0769,0.37222 -0.0769,0.60688 0,0.18881 0.0216,0.35874 0.0647,0.50978 0.0459,0.14835 0.11328,0.27512 0.20229,0.38031 0.089,0.1052 0.1996,0.18611 0.33176,0.24275 0.13486,0.05664 0.2913,0.08497 0.46932,0.08496 0.18341,3e-6 0.34929,-0.03101 0.49764,-0.09305 0.14834,-0.06473 0.27512,-0.147 0.38031,-0.2468 0.10519,-0.10249 0.18611,-0.21847 0.24275,-0.34794 0.0593,-0.12946 0.089,-0.25893 0.089,-0.3884 0,-0.18071 -0.0256,-0.36008 -0.0769,-0.5381 -0.0486,-0.18071 -0.12273,-0.34254 -0.22252,-0.4855 -0.0971,-0.14565 -0.21983,-0.26298 -0.36817,-0.35199 -0.14835,-0.089 -0.32098,-0.13351 -0.51787,-0.13351" />
  </g>
  <g
     id="g14291">
    <path
       d="m 5.2922679,73.685059 0,5.0663 c 0,6.668 5.3645011,12.032 12.0320011,12.032 l 61.049,0 c 6.668,0 12.032,-5.3645 12.032,-12.032 l 0,-5.0663 c 0,6.6681 -5.3645,12.032 -12.032,12.032 l -61.049,0 c -6.668,0 -12.0320011,-5.3643 -12.0320011,-12.032 z"
       id="path64-9"
       inkscape:connector-curvature="0"
       style="opacity:0.4;fill:url(#linearGradient14237);fill-opacity:1" />
    <path
       inkscape:connector-curvature="0"
       id="path14214"
       d="m 5.2929688,72.717592 0,1.15039 c 0,6.667718 5.3632502,12.031248 12.0312502,12.031248 l 61.048828,0 c 6.6675,0 12.03125,-5.36313 12.03125,-12.031248 l 0,-1.15039 c 0,6.668098 -5.36375,12.031248 -12.03125,12.031248 l -61.048828,0 c -6.668,0 -12.0312502,-5.36355 -12.0312502,-12.031248 z"
       style="opacity:0.5;fill:url(#linearGradient14245);fill-opacity:1" />
  </g>
</svg>
