<svg height="96" width="96" xmlns="http://www.w3.org/2000/svg" xmlns:xlink="http://www.w3.org/1999/xlink" xmlns:sodipodi="http://sodipodi.sourceforge.net/DTD/sodipodi-0.dtd" xmlns:inkscape="http://www.inkscape.org/namespaces/inkscape">
 <defs>
  <linearGradient gradientUnits="userSpaceOnUse" id="linearGradient3260">
   <stop/>
   <stop stop-opacity="0.355" offset="0.2"/>
   <stop stop-opacity="0" offset="0.553"/>
   <stop stop-opacity="0" offset="1"/>
  </linearGradient>
  <linearGradient x2="0" y1="52.656" y2="62.34" gradientUnits="userSpaceOnUse" id="linearGradient4236">
   <stop/>
   <stop stop-opacity="0" offset="1"/>
  </linearGradient>
  <linearGradient x2="0" y1="15.02" y2="4.95" gradientUnits="userSpaceOnUse" id="linearGradient4210">
   <stop stop-color="#a3a3a3"/>
   <stop stop-color="#c7c7c7" offset="0.327"/>
   <stop stop-color="#dedede" offset="0.675"/>
   <stop stop-color="#f5f5f5" offset="1"/>
  </linearGradient>
  <linearGradient x1="42.628" x2="46.1" y1="52.77" y2="75.76" gradientUnits="userSpaceOnUse" id="linearGradient4162-3">
   <stop stop-color="#fff"/>
   <stop stop-color="#545454" offset="1"/>
  </linearGradient>
  <radialGradient cy="55.926" r="30.645" gradientUnits="userSpaceOnUse" id="radialGradient4037" cx="47.988">
   <stop stop-color="#fff"/>
   <stop stop-color="#fff" stop-opacity="0" offset="1"/>
  </radialGradient>
  <linearGradient id="linearGradient3386">
   <stop stop-color="#eeeeec"/>
   <stop stop-color="#eeeeec" stop-opacity="0" offset="1"/>
  </linearGradient>
  <radialGradient cy="66.6" r="47.725" xlink:href="#linearGradient3386" gradientUnits="userSpaceOnUse" id="radialGradient7173" cx="53.42" gradientTransform="matrix(1.0626 0 0 0.87842 -81.964 947.54)"/>
  <radialGradient cy="66.6" r="47.725" xlink:href="#linearGradient3386" gradientUnits="userSpaceOnUse" id="radialGradient7175" cx="53.42" gradientTransform="matrix(1.059 0 0 1.2704 -81.6 925.18)"/>
  <radialGradient cy="66.6" r="47.725" xlink:href="#linearGradient3386" gradientUnits="userSpaceOnUse" id="radialGradient7177" cx="53.42" gradientTransform="matrix(1.0648 0 0 1.2704 -82.18 908.04)"/>
  <radialGradient cy="66.6" r="47.725" xlink:href="#linearGradient3386" gradientUnits="userSpaceOnUse" id="radialGradient7179" cx="53.42" gradientTransform="matrix(1.5368 0 0 0.86757 -119.52 946.9)"/>
  <radialGradient cy="66.6" r="47.725" xlink:href="#linearGradient3386" gradientUnits="userSpaceOnUse" id="radialGradient7181" cx="53.42" gradientTransform="matrix(1.0626 0 0 0.87842 -82.16 944.82)"/>
  <radialGradient cy="66.6" r="47.725" xlink:href="#linearGradient3386" gradientUnits="userSpaceOnUse" id="radialGradient7183" cx="53.42" gradientTransform="matrix(1.5368 0 0 0.86757 -142.44 946.9)"/>
  <linearGradient x2="0" xlink:href="#linearGradient3260" y1="26" y2="34" gradientUnits="userSpaceOnUse" id="linearGradient7185" gradientTransform="matrix(0.72414 0 0 0.75 1.655 4.5)"/>
  <linearGradient x2="0" y1="16.04" y2="20.33" gradientUnits="userSpaceOnUse" id="linearGradient7187" gradientTransform="matrix(1 0 0 1 0 -0.679)">
   <stop stop-color="#fff"/>
   <stop stop-color="#fff" stop-opacity="0.498" offset="0.3"/>
   <stop stop-color="#fff" stop-opacity="0" offset="1"/>
  </linearGradient>
  <linearGradient x2="0" xlink:href="#linearGradient3260" y1="16" y2="11.925" gradientUnits="userSpaceOnUse" id="linearGradient7189" gradientTransform="matrix(1 0 0 1.25 0 -4.598)"/>
  <linearGradient x2="0" xlink:href="#linearGradient3260" y1="16" y2="11.925" gradientUnits="userSpaceOnUse" id="linearGradient7191" gradientTransform="matrix(1 0 0 1.25 0 4.402)"/>
  <linearGradient x1="11" x2="16" y1="10.442" y2="24" gradientUnits="userSpaceOnUse" id="linearGradient7193" gradientTransform="matrix(0.81331 0 0 0.81133 3.994 2.028)">
   <stop stop-color="#5d5d5d"/>
   <stop stop-color="#171717" offset="1"/>
  </linearGradient>
  <linearGradient x1="13.13" x2="19.25" y1="9.942" y2="24.5" gradientUnits="userSpaceOnUse" id="linearGradient7195" gradientTransform="matrix(0.81331 0 0 0.81133 3.994 2.028)">
   <stop stop-color="#919191"/>
   <stop stop-color="#232323" offset="1"/>
  </linearGradient>
  <radialGradient cy="14.938" r="1.438" gradientUnits="userSpaceOnUse" id="radialGradient7197" cx="11.312">
   <stop stop-color="#dfdfdf"/>
   <stop stop-color="#434343" offset="1"/>
  </radialGradient>
  <clipPath clipPathUnits="userSpaceOnUse" id="clipPath7203">
   <path d="m-42.25 961.77c-6.6418 0-11.969 5.3946-11.969 12.062v61.031c0 6.668 5.327 12.031 11.969 12.031h60.813c6.6418 0 11.969-5.3632 11.969-12.031v-61.031c0-6.6679-5.327-12.062-11.969-12.062h-60.813z"/>
  </clipPath>
  <path d="m10.915 15.05-8.746-5.05 8.746-5.0498z" color="#000000" id="SVGCleanerId_1"/>
  <path d="m12.75 14.938a1.4375 1.4375 0 1 1 -2.875 0 1.4375 1.4375 0 1 1 2.875 0z" fill="url(#radialGradient7197)" fill-rule="evenodd" id="SVGCleanerId_2"/>
 </defs>
 <g transform="matrix(1 0 0 1 0 -956.36)">
  <rect x="3.353" rx="12.724" y="959.35" fill-opacity="0.02" height="89.98" width="89.62"/>
  <rect x="3.959" rx="12.552" y="959.96" fill-opacity="0.039" height="88.76" width="88.41"/>
  <rect x="4.564" rx="12.38" y="960.57" fill-opacity="0.078" height="87.55" width="87.2"/>
  <rect x="5.17" rx="12.208" y="961.18" fill-opacity="0.157" height="86.33" width="85.991"/>
  <g clip-path="url(#clipPath7203)" transform="matrix(1 0 0 1 60 0)">
   <rect x="-55.2" rx="6.251" ry="6.446" y="963.16" fill="#666" height="90.25" width="87.52"/>
   <path d="m-23.362 989.83c-0.33267 0-0.58964 0.0452-0.78139 0.12791-0.1903 0.0813-0.32738 0.17566-0.42325 0.31976-0.09442 0.14268-0.16279 0.31843-0.16279 0.47965 0 0.24541 0.10708 0.41721 0.29302 0.57558 0.18449 0.15837 0.47872 0.28813 0.91162 0.38372 0.26439 0.0571 0.44829 0.12766 0.52093 0.19186s0.09767 0.14251 0.09767 0.22384c-0.000002 0.0856-0.02068 0.1582-0.09767 0.22383-0.07554 0.0642-0.18467 0.0959-0.32558 0.0959-0.18885 0-0.35412-0.0649-0.45581-0.19186-0.06247-0.0785-0.1099-0.20193-0.13023-0.35174l-0.91162 0.0639c0.0276 0.31674 0.11639 0.59397 0.32558 0.79942s0.59622 0.28779 1.1395 0.28779c0.30942 0 0.57801-0.0409 0.78139-0.12791 0.20337-0.0885 0.3425-0.21393 0.45581-0.38372 0.11331-0.16978 0.19534-0.34243 0.19535-0.5436-0.000003-0.17121-0.04453-0.34125-0.13023-0.47965-0.08425-0.13839-0.23586-0.259-0.42325-0.35174-0.18595-0.0942-0.48018-0.1645-0.91162-0.25581-0.17432-0.0357-0.27909-0.0865-0.32558-0.12791-0.04793-0.0399-0.09767-0.078-0.09767-0.12791 0-0.0685 0.03957-0.14477 0.09767-0.19186 0.05811-0.0485 0.1457-0.0639 0.26046-0.0639 0.13946 0 0.24713 0.0317 0.32558 0.0959 0.0799 0.0642 0.13809 0.17852 0.16279 0.31977l0.91162-0.064c-0.04067-0.32529-0.14314-0.5551-0.35814-0.70348-0.21355-0.1498-0.53598-0.22384-0.94418-0.22384zm15.595 0c-0.51861 0-0.91411 0.13035-1.2046 0.4157-0.29054 0.28535-0.45581 0.70291-0.45581 1.2151 0 0.36668 0.081181 0.65137 0.22791 0.89534 0.14672 0.24398 0.35071 0.43089 0.58604 0.54361 0.23679 0.1127 0.51879 0.15988 0.87906 0.15988 0.35445 0 0.64227-0.062 0.87906-0.19186 0.23824-0.13126 0.42855-0.30962 0.55348-0.5436 0.12638-0.23542 0.19534-0.52867 0.19535-0.89535-0.0000042-0.50507-0.13562-0.90349-0.42325-1.1831-0.28763-0.28107-0.70552-0.4157-1.2372-0.4157zm3.5163 0c-0.33267 0-0.62219 0.0452-0.81395 0.12791-0.1903 0.0813-0.32737 0.17566-0.42325 0.31976-0.094423 0.14268-0.13023 0.31843-0.13023 0.47965 0 0.24541 0.074524 0.41721 0.26046 0.57558 0.18449 0.15837 0.51128 0.28813 0.94418 0.38372 0.26439 0.0571 0.41573 0.12766 0.48837 0.19186 0.072638 0.0642 0.13023 0.14251 0.13023 0.22384-0.0000021 0.0856-0.053239 0.1582-0.13023 0.22383-0.075545 0.0642-0.18467 0.0959-0.32558 0.0959-0.18885 0-0.32157-0.0649-0.42325-0.19186-0.06247-0.0785-0.10989-0.20193-0.13023-0.35174l-0.94418 0.0639c0.027599 0.31674 0.14895 0.59397 0.35814 0.79942s0.59622 0.28779 1.1395 0.28779c0.30942 0 0.54545-0.0409 0.74883-0.12791 0.20337-0.0885 0.37506-0.21393 0.48837-0.38372 0.11331-0.16978 0.16279-0.34243 0.16279-0.5436-0.0000032-0.17121-0.044529-0.34125-0.13023-0.47965-0.084255-0.13839-0.2033-0.259-0.39069-0.35174-0.18595-0.0942-0.51273-0.1645-0.94418-0.25581-0.17432-0.0357-0.27909-0.0865-0.32558-0.12791-0.047946-0.0399-0.065116-0.078-0.065116-0.12791 0-0.0685 0.039569-0.14477 0.097674-0.19186 0.058104-0.0485 0.1457-0.0639 0.26046-0.0639 0.13946 0 0.24713 0.0317 0.32558 0.0959 0.0799 0.0642 0.10553 0.17852 0.13023 0.31977l0.94418-0.064c-0.040684-0.32529-0.1757-0.5551-0.39069-0.70348-0.21355-0.1498-0.50342-0.22384-0.91162-0.22384zm-41.576 0.0639v3.1337h0.97674v-1.2791h1.2372v-0.63953h-1.2372v-0.54361h1.4651v-0.67151h-2.4418zm3.4511 0-1.2046 3.1337h1.0093l0.13023-0.5436h1.1395l0.16279 0.5436h1.0093l-1.1721-3.1337h-1.0744zm2.5721 0v3.1337h2.7023v-0.73546h-1.7256v-0.60756h1.5628v-0.63953h-1.5628v-0.51162h1.6605v-0.63954h-2.6372zm3.2232 0v3.1337h0.94418v-1.7267l1.2046 1.7267h0.91162v-3.1337h-0.91162v1.7267l-1.2046-1.7267h-0.94418zm3.6465 0v0.63954h1.5953l-1.7581 1.8227v0.67151h3.0279v-0.67151h-1.8558l1.7907-1.8546v-0.60756h-2.8zm4.2 0-1.2046 3.1337h1.0093l0.13023-0.5436h1.1395l0.16279 0.5436h1.0093l-1.1721-3.1337h-1.0744zm7.0651 0v0.76744h1.0093v2.3663h0.97674v-2.3663h1.0093v-0.76744h-2.9953zm3.4511 0v1.8546c0 0.15409 0.03666 0.34386 0.09767 0.5436 0.03777 0.12413 0.09366 0.23475 0.19535 0.35174 0.10314 0.117 0.23466 0.19162 0.35814 0.25582 0.12348 0.0628 0.27277 0.10651 0.45581 0.1279 0.18449 0.0214 0.36549 0.032 0.52093 0.032 0.26874 0 0.49196-0.026 0.68372-0.0959 0.138-0.0499 0.26576-0.13311 0.39069-0.25581 0.12638-0.12413 0.20235-0.2836 0.26046-0.44768 0.05955-0.1655 0.09767-0.32614 0.09767-0.51162v-1.8546h-0.97674v1.8866c-0.000002 0.17407-0.06546 0.32011-0.16279 0.4157-0.09588 0.0942-0.22073 0.12791-0.3907 0.12791-0.17142 0-0.29336-0.0323-0.3907-0.12791-0.09588-0.097-0.16279-0.24449-0.16279-0.4157v-1.8866h-0.97674zm3.7442 0v3.1337h1.4651c0.17577 0 0.36959-0.0389 0.58604-0.0959 0.15834-0.0414 0.28524-0.13168 0.42325-0.25581 0.138-0.12555 0.24859-0.26362 0.32558-0.44767 0.07844-0.18548 0.13023-0.46413 0.13023-0.79942 0-0.21401-0.01282-0.41637-0.06512-0.60755-0.0523-0.19119-0.14425-0.36753-0.26046-0.51163-0.11622-0.1441-0.27713-0.24271-0.45581-0.31977-0.17723-0.077-0.39463-0.0959-0.68372-0.0959h-1.4651zm3.4837 0v3.1337h0.97674v-3.1337h-0.97674zm3.2232 0.67151c0.20773 0.00001 0.36779 0.0549 0.48837 0.19186 0.12203 0.13555 0.19535 0.3442 0.19535 0.63954-0.0000021 0.35098-0.079139 0.59992-0.19535 0.73546-0.11622 0.13554-0.27628 0.22383-0.48837 0.22383-0.20628 0-0.3678-0.0854-0.48837-0.22383-0.11912-0.1384-0.16279-0.35477-0.16279-0.67151-0.000001-0.31959 0.042216-0.56509 0.16279-0.70349 0.12057-0.13839 0.28935-0.19185 0.48837-0.19186zm-5.7302 0.032h0.26046c0.25567 0 0.41052 0.0372 0.52093 0.15988 0.1104 0.12271 0.19534 0.37106 0.19535 0.70349 0 0.25111-0.04828 0.43089-0.09767 0.5436-0.04939 0.11129-0.10819 0.17818-0.19535 0.22384-0.08716 0.0442-0.24953 0.0639-0.45581 0.0639h-0.2279v-1.6948zm-28.358 0.0959 0.35814 1.1192h-0.71627l0.35814-1.1192zm13.642 0 0.35814 1.1192h-0.71627l0.35814-1.1192zm-9.2464 5.0843c-0.3799 0-0.67645 0.058-0.87906 0.22384-0.20261 0.16583-0.32558 0.42729-0.32558 0.73546 0 0.24598 0.08297 0.43048 0.2279 0.57558 0.14633 0.1451 0.36854 0.25343 0.68372 0.31976l0.32558 0.064c0.19136 0.0415 0.32738 0.0754 0.3907 0.1279 0.06473 0.0525 0.09767 0.1271 0.09767 0.22384-0.000002 0.10779-0.06851 0.19777-0.16279 0.25581-0.09428 0.058-0.21341 0.0959-0.3907 0.0959-0.17447 0-0.36494-0.0434-0.55348-0.0959-0.18714-0.0539-0.38483-0.11881-0.58604-0.22383v0.67151c0.20121 0.0732 0.41739 0.12257 0.6186 0.15988 0.2012 0.0373 0.38624 0.0639 0.58604 0.0639 0.42352 0 0.73875-0.09 0.94418-0.25581 0.20683-0.16721 0.32558-0.4261 0.32558-0.76744-0.000003-0.2598-0.08017-0.43462-0.2279-0.57558-0.14774-0.14095-0.39848-0.25066-0.74883-0.31977l-0.35814-0.0639c-0.16462-0.0332-0.26226-0.0823-0.32558-0.1279-0.06191-0.047-0.09767-0.10895-0.09767-0.19186 0-0.11056 0.03736-0.20331 0.13023-0.25582 0.09286-0.0525 0.22908-0.0639 0.42325-0.0639 0.14633 0 0.32374-0.007 0.48837 0.032 0.16462 0.0387 0.3153 0.11585 0.48837 0.19186v-0.67151c-0.19558-0.0511-0.37057-0.0711-0.55348-0.0959-0.18292-0.0263-0.34786-0.032-0.52093-0.032zm2.8977 0c-0.3799 0-0.67645 0.058-0.87906 0.22384-0.20261 0.16583-0.29302 0.42729-0.29302 0.73546-0.000002 0.24598 0.08298 0.43048 0.2279 0.57558 0.14633 0.1451 0.36854 0.25343 0.68372 0.31976l0.32558 0.064c0.19136 0.0415 0.29482 0.0754 0.35814 0.1279 0.06472 0.0525 0.09767 0.1271 0.09767 0.22384-0.000001 0.10779-0.03595 0.19778-0.13023 0.25581-0.09428 0.058-0.21341 0.0959-0.3907 0.0959-0.17448 0-0.36494-0.0434-0.55348-0.0959-0.18714-0.0539-0.38483-0.11881-0.58604-0.22383v0.67151c0.20121 0.0732 0.38484 0.12257 0.58604 0.15988 0.2012 0.0373 0.4188 0.0639 0.6186 0.0639 0.42352 0 0.73875-0.09 0.94418-0.25581 0.20683-0.16721 0.29302-0.4261 0.29302-0.76744-0.000002-0.2598-0.04761-0.43462-0.19535-0.57558-0.14774-0.14095-0.39848-0.25066-0.74883-0.31977l-0.35814-0.0639c-0.16462-0.0332-0.26227-0.0823-0.32558-0.1279-0.06191-0.047-0.09767-0.10895-0.09767-0.19186-0.000002-0.11056 0.03736-0.20331 0.13023-0.25582 0.09286-0.0525 0.22908-0.0639 0.42325-0.0639 0.14633 0 0.32374-0.007 0.48837 0.032 0.16462 0.0387 0.3153 0.11585 0.48837 0.19186v-0.67151c-0.19558-0.0511-0.37057-0.0711-0.55348-0.0959-0.18292-0.0263-0.38042-0.032-0.55348-0.032zm6.5441 0c-0.36407 0.0536-0.64479 0.20116-0.87906 0.4157-0.31236 0.28606-0.45581 0.68426-0.45581 1.1831 0 0.49335 0.14908 0.89431 0.45581 1.1831 0.30674 0.28744 0.71237 0.41569 1.2372 0.41569 0.23216 0 0.46562-0.0156 0.68372-0.0639 0.21809-0.0484 0.41598-0.1271 0.6186-0.22384v-1.5029h-1.2698v0.5436h0.48837v0.60756c-0.05769 0.0221-0.12218 0.0209-0.19535 0.032-0.07176 0.01-0.14348 0.032-0.2279 0.032-0.31096 0-0.54743-0.0775-0.71627-0.25581-0.16885-0.17827-0.26046-0.43992-0.26046-0.76744-0.000001-0.33028 0.08599-0.59055 0.26046-0.76744 0.17588-0.17826 0.42521-0.25581 0.74883-0.25581 0.17447 0 0.34786 0.0156 0.52093 0.0639 0.17447 0.0484 0.3776 0.12572 0.55348 0.22384v-0.63953c-0.17025-0.076-0.36072-0.15317-0.55348-0.19186-0.19136-0.0387-0.40895-0.032-0.6186-0.032-0.13578 0-0.26934-0.0179-0.3907 0zm-17.809 0.032v3.1017h0.78139v-2.2703l0.71627 1.6948h0.52093l0.71627-1.6948v2.2703h0.78139v-3.1017h-1.0419l-0.71627 1.6628-0.71627-1.6628h-1.0419zm4.2976 0v3.1017h2.2465v-0.60756h-1.4325v-0.70348h1.3023v-0.60756h-1.3023v-0.57558h1.4v-0.60755h-2.2139zm15.888 0v3.1017h2.2465v-0.60756h-1.4325v-0.70348h1.3023v-0.60756h-1.3023v-0.57558h1.3674v-0.60755h-2.1814zm-6.0883 0.032-1.1721 3.1017h0.81395l0.19535-0.57557h1.2698l0.19535 0.57557h0.81395l-1.1721-3.1017h-0.94418zm0.48837 0.70349 0.42325 1.2471h-0.87906l0.45581-1.2471z" fill="url(#radialGradient7173)" opacity="0.8"/>
   <path d="m-19.78 996.93h42.716v1.0232h-42.716v-1.0232z" fill="url(#radialGradient7175)" opacity="0.8"/>
   <path d="m-45.826 1027.6h68.762v1.0233h-68.762v-1.0233z" fill="url(#radialGradient7177)" opacity="0.8"/>
   <path d="m0.015069 1028.6v14.326h-1.0419v-14.326h1.0419z" fill="url(#radialGradient7179)" opacity="0.8"/>
   <path d="m-17.924 1021.4c-0.3799 0-0.67645 0.058-0.87906 0.2238-0.20261 0.1659-0.29302 0.4273-0.29302 0.7355 0 0.246 0.08297 0.4305 0.2279 0.5756 0.14633 0.1451 0.36854 0.2534 0.68372 0.3198l0.32558 0.064c0.19136 0.042 0.29482 0.075 0.35814 0.1279 0.06472 0.053 0.09767 0.1271 0.09767 0.2238-0.000002 0.1078-0.03596 0.1978-0.13023 0.2559-0.09428 0.058-0.21341 0.096-0.3907 0.096-0.17448 0-0.36494-0.043-0.55348-0.096-0.18714-0.054-0.38484-0.1188-0.58604-0.2239v0.6715c0.20121 0.073 0.38484 0.1226 0.58604 0.1599 0.20121 0.037 0.4188 0.064 0.6186 0.064 0.42352 0 0.73875-0.09 0.94418-0.2558 0.20683-0.1673 0.29302-0.4261 0.29302-0.7675-0.000003-0.2598-0.04761-0.4346-0.19535-0.5756-0.14774-0.1409-0.39848-0.2506-0.74883-0.3197l-0.35814-0.064c-0.16463-0.033-0.26226-0.082-0.32558-0.1279-0.06191-0.047-0.09767-0.1089-0.09767-0.1918 0-0.1106 0.03736-0.2033 0.13023-0.2559 0.09286-0.053 0.22908-0.064 0.42325-0.064 0.14633 0 0.32374-0.01 0.48837 0.032 0.16462 0.039 0.3153 0.1158 0.48837 0.1918v-0.6715c-0.19558-0.051-0.37057-0.071-0.55348-0.096-0.18292-0.026-0.38042-0.032-0.55348-0.032zm3.1907 0c-0.35273 0.054-0.64901 0.1991-0.87906 0.4157-0.30674 0.2874-0.45581 0.6884-0.45581 1.1831 0 0.4934 0.14908 0.8944 0.45581 1.1832 0.30673 0.2874 0.71237 0.4157 1.2372 0.4157 0.17588 0 0.35911-0.025 0.52093-0.064 0.16181-0.039 0.30666-0.084 0.45581-0.1599v-0.6395c-0.15056 0.1009-0.27692 0.1768-0.42325 0.2238-0.14634 0.047-0.32656 0.064-0.48837 0.064-0.28985 0-0.51769-0.1054-0.68372-0.2878s-0.22791-0.4162-0.2279-0.7355c-0.000001-0.3206 0.06187-0.585 0.2279-0.7674s0.39386-0.2558 0.68372-0.2558c0.16181 0 0.34203 0.017 0.48837 0.064 0.14633 0.047 0.2727 0.123 0.42325 0.2239v-0.6396c-0.14915-0.076-0.294-0.1531-0.45581-0.1918-0.16181-0.039-0.34505-0.032-0.52093-0.032-0.13121 0-0.24056-0.018-0.35814 0zm-19.665 0.032v0.6075h1.0419v2.4942h0.81395v-2.4942h1.0419v-0.6075h-2.8977zm3.3209 0v3.1017h2.2465v-0.6075h-1.4325v-0.7035h1.3023v-0.6076h-1.3023v-0.5756h1.3674v-0.6075h-2.1814zm18.363 0v3.1017h2.2465v-0.6075h-1.4325v-0.7035h1.3023v-0.6076h-1.3023v-0.5756h1.3674v-0.6075h-2.1814zm2.9628 0v3.1017h0.74883v-2.1104l1.1721 2.1104h0.87906v-3.1017h-0.74883v2.1424l-1.1395-2.1424h-0.91162zm3.6139 0v3.1017h2.2465v-0.6075h-1.4325v-0.7035h1.3023v-0.6076h-1.3023v-0.5756h1.3674v-0.6075h-2.1814zm12.144 0v0.6075h1.0419v2.4942h0.81395v-2.4942h1.0419v-0.6075h-2.8977zm6.3488 0v3.1017h0.81395v-1.2151l1.2372 1.2151h1.0093l-1.6605-1.6308 1.4977-1.4709h-0.94418l-1.1395 1.1511v-1.1511h-0.81395zm3.3209 0v3.1017h2.2465v-0.6075h-1.4325v-0.7035h1.3023v-0.6076h-1.3023v-0.5756h1.4v-0.6075h-2.2139zm-56.293 0.032v3.1017h0.8465c0.47276 0 0.83802-0.062 1.0744-0.1279 0.23638-0.068 0.44975-0.1595 0.6186-0.3198 0.14774-0.1396 0.25382-0.2972 0.32558-0.4796 0.07175-0.1838 0.09767-0.406 0.09767-0.6396-0.000002-0.2307-0.02591-0.4251-0.09767-0.6075s-0.17784-0.3401-0.32558-0.4797c-0.16744-0.1603-0.38362-0.2854-0.6186-0.3517-0.23357-0.068-0.59602-0.096-1.0744-0.096h-0.8465zm4.3628 0-1.1395 3.1017h0.81395l0.19535-0.5756h1.2698l0.19535 0.5756h0.81395l-1.1721-3.1017h-0.97674zm46.037 0-1.1721 3.1017h0.81395l0.22791-0.5756h1.2698l0.19535 0.5756h0.81395l-1.1721-3.1017h-0.97674zm-49.586 0.6075h0.29302c0.33347 0 0.57436 0.064 0.74883 0.2239 0.17447 0.1603 0.26046 0.3967 0.26046 0.7034-0.000003 0.3082-0.08459 0.5418-0.26046 0.7035-0.17448 0.1617-0.41677 0.2558-0.74883 0.2558h-0.29302v-1.8866zm4.0372 0.096 0.45581 1.2471h-0.87906l0.42325-1.2471zm46.037 0 0.42325 1.2471h-0.8465l0.42325-1.2471z" fill="url(#radialGradient7181)" opacity="0.8"/>
   <path d="m-22.906 1028.6v14.326h-1.0419v-14.326h1.0419z" fill="url(#radialGradient7183)" opacity="0.8"/>
   <path d="m-56.352 1043.3v1.3415c0 2.9728 2.2013 5.366 4.9356 5.366h78.97c2.7343 0 4.9356-2.3932 4.9356-5.366v-1.3415c0 2.9728-2.2013 5.366-4.9356 5.366h-78.97c-2.7343 0-4.9356-2.3932-4.9356-5.366z" fill="#fff" opacity="0.3"/>
   <path d="m-56.352 976.27v5.9447 53.502 14.862c0 3.2934 2.2013 5.9447 4.9356 5.9447h78.97c2.7343 0 4.9356-2.6513 4.9356-5.9447v-14.862-53.502-5.9447h-4.9356-78.97-4.9356zm2.5064 3.0188h2.4292 78.97 2.4292v2.9259 53.502 14.862c0 1.6625-1.049 2.9259-2.4292 2.9259h-78.97c-1.3803 0-2.4292-1.2634-2.4292-2.9259v-14.862-53.502-2.9259z" opacity="0.2"/>
   <path d="m-56.352 976.27v5.9447 53.502 14.862c0 3.2934 2.2013 5.9447 4.9356 5.9447h78.97c2.7343 0 4.9356-2.6513 4.9356-5.9447v-14.862-53.502-5.9447h-4.9356-78.97-4.9356zm1.311 1.5791h3.6246 78.97 3.6246v4.3656 53.502 14.862c0 2.4388-1.5998 4.3657-3.6246 4.3657h-78.97c-2.0248 0-3.6246-1.9269-3.6246-4.3657v-14.862-53.502-4.3656z" fill="#0e3857"/>
   <g transform="matrix(1.0557 0 0 1 -62.6 955.11)">
    <path d="m12 6c-3.324 0-6 2.676-6 6v12h84v-12c0-3.324-2.676-6-6-6h-72z"/>
    <rect x="6" y="24" fill="url(#linearGradient7185)" fill-rule="evenodd" height="6" opacity="0.8" width="84"/>
    <rect x="6" y="15" fill="url(#linearGradient7187)" fill-rule="evenodd" height="5" opacity="0.3" width="84"/>
    <g fill="#f0f0f0" fill-rule="evenodd" transform="matrix(1 0 0 1 1 0)">
     <path d="m28.333 6-5.333 9 5.333 9h10.667l-5.333-9 5.333-9h-10.667z"/>
     <path d="m50.333 6-5.333 9 5.333 9h10.667l-5.333-9 5.333-9h-10.667z"/>
     <path d="m72.333 6-5.333 9 5.333 9h10.667l-5.333-9 5.333-9h-10.667z"/>
    </g>
    <rect x="6" y="10" fill="url(#linearGradient7189)" fill-rule="evenodd" height="5" opacity="0.7" width="84"/>
    <rect x="6" y="19" fill="url(#linearGradient7191)" fill-rule="evenodd" height="5" opacity="0.7" width="84"/>
    <path d="m12.005 10.5c1.1095 0 1.7702 0.98369 6.03 4.3027 4.3044 3.3537 5.4775 3.7265 5.4775 5.0746 0 1.3484-1.0882 1.6227-2.4399 1.6227h-8.1331c-1.352 0-2.44-1.086-2.44-2.434v-6.4906c0-1.348 0.468-2.075 1.505-2.075z" fill="url(#linearGradient7193)" fill-rule="evenodd" stroke="url(#linearGradient7195)" stroke-linejoin="round"/>
    <use xlink:href="#SVGCleanerId_2" transform="matrix(0.81331 0 0 0.81133 3.587 1.075)"/>
    <use xlink:href="#SVGCleanerId_2" transform="matrix(0.81331 0 0 0.81133 3.587 7.099)"/>
    <use xlink:href="#SVGCleanerId_2" transform="matrix(0.81331 0 0 0.81133 11.618 7.099)"/>
   </g>
  </g>
  <g transform="matrix(1 0 0 1 2.047 954.03)">
   <path d="m32.094 32.031c-0.1521-0.011-0.34145-0.0247-0.59375 0.03125-0.12615 0.02797-0.2703 0.05727-0.4375 0.1875-0.05993 0.04668-0.07301 0.15101-0.125 0.21875-0.34523 0.14018-0.73198 0.22999-0.9375 0.46875-0.32337 0.37568-0.52221 0.76008-0.6875 1.0938a0.85684 0.85684 0 0 0 -0.0625 0.375v44.5 0.03125c-0.04588 1.3112 0.67956 2.3506 1.6875 2.7812v0.03125c0.0075 0.0031 0.02375-0.0031 0.03125 0 0.47934 0.21182 0.97609 0.28689 1.4688 0.21875 0.41391-0.05725 0.80566-0.29687 1.1562-0.59375l0.031 0.032 0.219-0.156 35.562-21.688a0.85684 0.85684 0 0 0 0.0625 -0.03125c0.66794-0.46785 1.2835-1.2494 1.3438-2.3438 0.000605-0.011-0.000488-0.02019 0-0.03125 0.08764-1.1716-0.49897-2.0666-1.1562-2.5312a0.85684 0.85684 0 0 0 -0.0625 -0.03125c-11.571-7.157-23.195-14.223-34.782-21.344a0.85684 0.85684 0 0 0 0 -0.03125c-0.635-0.379-1.09-0.671-1.656-1.031a0.85684 0.85684 0 0 0 -0.6875 -0.09375c0.139-0.039 0.055-0.025-0.03-0.032-0.086-0.006-0.192-0.02-0.344-0.031z" color="#000000" opacity="0.05"/>
   <path d="m32.681 32.902c0.55684 0.35505 1.041 0.66363 1.6955 1.0535 11.589 7.1222 23.213 14.193 34.78 21.348 0.48149 0.34037 0.90304 0.93159 0.8255 1.8328-0.039 0.88298-0.41788 1.2863-1.0057 1.6981l-35.781 21.855c-0.3938 0.4575-1.3117 0.55471-1.9294 0.27229-0.61862-0.25171-1.2005-1.0757-1.1576-2.0348v-44.527c0.33696-0.6802 0.60846-1.3034 1.4149-1.3615 0.06635-0.3076 0.86272-0.05269 1.1576-0.13614z" color="#000000" opacity="0.08"/>
   <path d="m10.844 4.7188a0.22122 0.22122 0 0 0 -0.063 0.0312l-8.75 5.0625a0.22122 0.22122 0 0 0 -0.031 0.0313 0.22122 0.22122 0 0 0 -0.0312 0.0312 0.22122 0.22122 0 0 0 -0.0313 0.0625 0.22122 0.22122 0 0 0 0 0.0625 0.22122 0.22122 0 0 0 0 0.0625 0.22122 0.22122 0 0 0 0.0313 0.063 0.22122 0.22122 0 0 0 0.0312 0.031 0.22122 0.22122 0 0 0 0.0312 0.032l8.75 5.0625a0.22122 0.22122 0 0 0 0.0625 0.03125 0.22122 0.22122 0 0 0 0.09375 0 0.22122 0.22122 0 0 0 0.09375 -0.03125 0.22122 0.22122 0 0 0 0.03125 -0.03125 0.22122 0.22122 0 0 0 0.0625 -0.125 0.22122 0.22122 0 0 0 0 -0.03125v-10.125a0.22122 0.22122 0 0 0 0 -0.03125 0.22122 0.22122 0 0 0 -0.0625 -0.125 0.22122 0.22122 0 0 0 -0.03125 -0.03125 0.22122 0.22122 0 0 0 -0.125 -0.03125 0.22122 0.22122 0 0 0 -0.0625 0z" color="#000000" opacity="0.12" transform="matrix(-4.116 0 0 4.3566 76.928 13.434)"/>
   <use xlink:href="#SVGCleanerId_1" opacity="0.3" transform="matrix(-4.116 0 0 4.3566 76.928 13.434)"/>
   <path d="m78.633 55.926a30.645 30.645 0 1 1 -61.29 0 30.645 30.645 0 1 1 61.29 0z" fill="url(#radialGradient4037)" color="#000000" opacity="0.2"/>
   <use xlink:href="#SVGCleanerId_1" fill="url(#linearGradient4210)" transform="matrix(-4.116 0 0 4.3566 76.928 12.434)"/>
   <path d="m32 34v44l36-22-36-22zm0.938 1.594 33.312 20.406-33.312 20.406v-40.812z" fill="url(#linearGradient4162-3)" color="#000000" opacity="0.6"/>
   <use xlink:href="#SVGCleanerId_1" fill="url(#linearGradient4210)" opacity="0.3" transform="matrix(-2.2866 0 0 2.4204 46.96 31.796)"/>
   <use xlink:href="#SVGCleanerId_1" fill="url(#linearGradient4210)" opacity="0.15" transform="matrix(-1.6007 0 0 1.6943 31.472 39.06)"/>
   <use xlink:href="#SVGCleanerId_1" fill="url(#linearGradient4210)" opacity="0.07" transform="matrix(-0.91466 0 0 0.96814 17.984 46.32)"/>
   <use xlink:href="#SVGCleanerId_1" fill="url(#linearGradient4210)" opacity="0.2" transform="matrix(-2.2866 0 0 2.4204 82.96 31.796)"/>
   <use xlink:href="#SVGCleanerId_1" fill="url(#linearGradient4210)" opacity="0.1" transform="matrix(-1.6007 0 0 1.6943 89.47 39.06)"/>
   <use xlink:href="#SVGCleanerId_1" fill="url(#linearGradient4210)" opacity="0.05" transform="matrix(-0.91466 0 0 0.96814 93.98 46.32)"/>
   <path d="m41.062 54c-0.16 0.00001-0.33697 0.01602-0.53125 0.03125-0.19 0.012-0.375 0.025-0.531 0.063v3.906h0.5625v-1.4688h0.4375c0.27809 0 0.52905-0.01678 0.75-0.0625 0.22095-0.04571 0.41012-0.1197 0.5625-0.21875 0.15619-0.10286 0.26375-0.24625 0.34375-0.40625 0.0838-0.16381 0.125-0.36518 0.125-0.59375-0.000003-0.41904-0.13655-0.72797-0.4375-0.9375-0.297-0.213-0.725-0.312-1.282-0.312zm2.438 0.031v3.969h2.375v-0.46875h-1.8125v-3.5h-0.5625zm4.2812 0c-0.13714 0.28572-0.24929 0.58167-0.375 0.875-0.125 0.29-0.276 0.587-0.406 0.906-0.126 0.321-0.242 0.674-0.375 1.032-0.133 0.354-0.285 0.737-0.437 1.156h0.59375l0.34375-1h1.8125c0.06095 0.17143 0.0991 0.33238 0.15625 0.5 0.05714 0.16381 0.12273 0.32857 0.1875 0.5h0.625c-0.15238-0.41905-0.30417-0.80196-0.4375-1.1562-0.13334-0.35809-0.27673-0.71125-0.40625-1.0312-0.12572-0.32-0.24929-0.61672-0.375-0.90625-0.12572-0.29333-0.23786-0.58928-0.375-0.875h-0.53125zm1.7812 0c0.20571 0.38096 0.42387 0.79131 0.65625 1.1875s0.48714 0.77988 0.75 1.1875v1.5938h0.53125v-1.5938c0.25904-0.40381 0.51762-0.79512 0.75-1.1875 0.23238-0.39619 0.45053-0.80654 0.65625-1.1875h-0.625c-0.147 0.313-0.32 0.645-0.499 0.969-0.179 0.32-0.344 0.609-0.531 0.906-0.19-0.297-0.383-0.586-0.562-0.906-0.18-0.324-0.324-0.656-0.469-0.969h-0.65625zm-9 0.46875c0.12571-0.01144 0.29506 0.000004 0.53125 0 0.14857 0.00001 0.30416 0.0084 0.4375 0.03125 0.13333 0.02286 0.24471 0.06406 0.34375 0.125 0.10286 0.05715 0.16161 0.11971 0.21875 0.21875 0.06095 0.09905 0.09375 0.22262 0.09375 0.375 0 0.16-0.0054 0.3034-0.0625 0.40625-0.05715 0.10286-0.14334 0.18905-0.25 0.25-0.10286 0.05714-0.22262 0.09833-0.375 0.125-0.15238 0.02286-0.34078 0.03125-0.53125 0.03125h-0.40625v-1.5625zm7.4688 0.1875c0.12952 0.28572 0.2569 0.56262 0.375 0.875 0.1219 0.30857 0.25309 0.63732 0.375 0.96875h-1.5c0.11809-0.33143 0.2569-0.66018 0.375-0.96875 0.1219-0.31238 0.24166-0.58928 0.375-0.875z" fill="url(#linearGradient4236)" opacity="0.6"/>
   <path d="m40.562 54.5v0.46875c0.12571-0.01144 0.29506 0.000004 0.53125 0 0.14857 0.00001 0.30416 0.0084 0.4375 0.03125 0.13333 0.02286 0.24471 0.06406 0.34375 0.125 0.10286 0.05715 0.16161 0.11971 0.21875 0.21875 0.03048 0.04953 0.04668 0.12518 0.0625 0.1875 0.01916-0.08551 0.03125-0.17325 0.03125-0.28125-0.000003-0.15238-0.0328-0.27595-0.09375-0.375-0.05714-0.09904-0.1159-0.1616-0.21875-0.21875-0.09904-0.06094-0.21042-0.10214-0.34375-0.125-0.13334-0.02285-0.28893-0.03124-0.4375-0.03125-0.23619 0.000004-0.40554-0.01144-0.53125 0zm9 0c0.20571 0.38096 0.42387 0.79131 0.65625 1.1875s0.48714 0.77988 0.75 1.1875v-0.46875c-0.26286-0.40762-0.51762-0.79131-0.75-1.1875-0.141-0.24-0.274-0.476-0.406-0.718h-0.25zm3.0938 0c-0.13127 0.24175-0.26485 0.47768-0.40625 0.71875-0.23238 0.39238-0.49096 0.78369-0.75 1.1875v0.46875c0.25904-0.40381 0.51762-0.79512 0.75-1.1875 0.23238-0.39619 0.45053-0.80654 0.65625-1.1875h-0.25zm-4.625 0.1875c-0.13334 0.28572-0.2531 0.56262-0.375 0.875-0.1181 0.30857-0.25691 0.63732-0.375 0.96875h0.1875c0.06602-0.1669 0.1268-0.34138 0.1875-0.5 0.1219-0.31238 0.24166-0.58928 0.375-0.875 0.12952 0.28572 0.2569 0.56262 0.375 0.875 0.06266 0.15862 0.12245 0.3331 0.1875 0.5h0.1875c-0.12191-0.33143-0.2531-0.66018-0.375-0.96875-0.1181-0.31238-0.24548-0.58928-0.375-0.875zm-5.281 0.874c-0.02077 0.09939-0.05185 0.19935-0.09375 0.28125-0.08 0.16-0.18756 0.3034-0.34375 0.40625-0.15238 0.09905-0.34155 0.17304-0.5625 0.21875-0.06476 0.0134-0.1489 0.02252-0.21875 0.03125-0.01107 0.0022-0.01982-0.002-0.03125 0-0.16019 0.01845-0.31492 0.03125-0.5 0.03125-0.01114 0.000059-0.02008 0-0.03125 0h-0.40625v0.46875h0.437c0.27809 0 0.52905-0.01678 0.75-0.0625 0.22095-0.04571 0.41012-0.1197 0.5625-0.21875 0.15619-0.10286 0.26375-0.24625 0.34375-0.40625 0.0838-0.16381 0.125-0.36518 0.125-0.59375 0-0.05877-0.0258-0.10178-0.03125-0.15625zm4.375 1.438-0.344 1h-0.406c-0.0608 0.15956-0.12528 0.29765-0.1875 0.46875h0.59375l0.34375-1h1.8125c0.06095 0.17143 0.0991 0.33238 0.15625 0.5 0.05714 0.16381 0.12273 0.32857 0.1875 0.5h0.625c-0.063-0.171-0.127-0.309-0.188-0.469h-0.4375c-0.066-0.171-0.131-0.336-0.188-0.5-0.057-0.168-0.096-0.329-0.156-0.5h-0.15625-1.5-0.15625zm-7.125 1v0.46875h0.5625v-0.469h-0.562zm3.5 0v0.46875h2.375v-0.46875h-1.8125-0.5625zm7.4688 0v0.46875h0.53125v-0.46875h-0.53125z" fill="#fff" opacity="0.8"/>
  </g>
  <path d="m5.7548 1033.9v1.0133c0 6.668 5.3434 12.032 11.985 12.032h60.809c6.6418 0 11.985-5.3645 11.985-12.032v-1.0133c0 6.6681-5.3434 12.032-11.985 12.032h-60.809c-6.6418 0-11.985-5.3644-11.985-12.032z" fill-opacity="0.098"/>
  <path d="m5.7548 1029.8v5.0663c0 6.668 5.3434 12.032 11.985 12.032h60.809c6.6418 0 11.985-5.3645 11.985-12.032v-5.0663c0 6.6681-5.3434 12.032-11.985 12.032h-60.809c-6.6418 0-11.985-5.3643-11.985-12.032z" fill-opacity="0.235"/>
 </g>
</svg>
