<svg height="96" width="96" xmlns="http://www.w3.org/2000/svg" xmlns:xlink="http://www.w3.org/1999/xlink" xmlns:sodipodi="http://sodipodi.sourceforge.net/DTD/sodipodi-0.dtd" xmlns:inkscape="http://www.inkscape.org/namespaces/inkscape">
 <defs>
  <linearGradient x2="0" y1="90" y2="5.988" gradientUnits="userSpaceOnUse" id="linearGradient15064" gradientTransform="matrix(1.0512 0 0 1.0977 -2.994 -4.086)">
   <stop stop-color="#a67150"/>
   <stop stop-color="#d1a57e" offset="1"/>
  </linearGradient>
  <filter color-interpolation-filters="sRGB" id="filter3775">
   <feGaussianBlur stdDeviation="0.4875"/>
  </filter>
  <linearGradient id="linearGradient5274">
   <stop/>
   <stop stop-opacity="0" offset="1"/>
  </linearGradient>
  <linearGradient x2="0" y1="90.22" y2="6.346" gradientUnits="userSpaceOnUse" id="linearGradient15604" gradientTransform="matrix(1 0 0 1 0.297 953.42)">
   <stop stop-color="#d2d2d2"/>
   <stop stop-color="#f0f0f0" offset="1"/>
  </linearGradient>
  <linearGradient x2="0" y1="20.249" y2="75.62" gradientUnits="userSpaceOnUse" id="linearGradient15617" gradientTransform="matrix(1 0 0 1 0.297 953.42)">
   <stop stop-color="#525252"/>
   <stop stop-color="#cecece" offset="0.212"/>
   <stop stop-color="#fdfdfd" offset="0.604"/>
   <stop stop-color="#7c7c7c" offset="0.743"/>
   <stop stop-color="#040404" offset="1"/>
  </linearGradient>
  <linearGradient x2="0" y1="78.06" y2="18.07" gradientUnits="userSpaceOnUse" id="linearGradient15620" gradientTransform="matrix(1 0 0 1 0.297 953.42)">
   <stop stop-color="#fff"/>
   <stop stop-color="#fff" stop-opacity="0" offset="1"/>
  </linearGradient>
  <linearGradient x2="0" y1="31.772" y2="36.26" gradientUnits="userSpaceOnUse" id="linearGradient15622" gradientTransform="matrix(0.86667 0 0 1.7455 -14.6 -14.982)">
   <stop stop-color="#8d8d8d"/>
   <stop stop-color="#fff" offset="0.325"/>
   <stop stop-color="#686868" offset="0.58"/>
   <stop stop-color="#b3b3b3" offset="1"/>
  </linearGradient>
  <linearGradient x2="0" y1="33.946" y2="46.01" gradientUnits="userSpaceOnUse" id="linearGradient15624" gradientTransform="matrix(0.97917 0 0 1 1.49 3)">
   <stop stop-color="#d40000"/>
   <stop stop-color="#ff8c67" offset="0.339"/>
   <stop stop-color="#d40000" offset="0.609"/>
   <stop stop-color="#6e0000" offset="1"/>
  </linearGradient>
  <linearGradient x2="0" y1="31.658" y2="42.515" gradientUnits="userSpaceOnUse" id="linearGradient15626" gradientTransform="matrix(0.86667 0 0 1.3636 6.4 -6.455)">
   <stop stop-color="#8d8d8d"/>
   <stop stop-color="#fff" offset="0.258"/>
   <stop stop-color="#686868" offset="0.544"/>
   <stop stop-color="#b1b1b1" offset="1"/>
  </linearGradient>
  <linearGradient x2="0" y1="42.38" y2="53.954" gradientUnits="userSpaceOnUse" id="linearGradient15628" gradientTransform="matrix(1 0 0 0.88235 0 4.294)">
   <stop stop-color="#4d4d4d"/>
   <stop stop-color="#878787" offset="1"/>
  </linearGradient>
  <linearGradient x1="55.62" x2="39.929" xlink:href="#linearGradient5274" gradientUnits="userSpaceOnUse" id="linearGradient15630" gradientTransform="matrix(0.13333 0 0 1.0909 33.6 2.636)"/>
  <linearGradient x1="55.62" x2="39.929" xlink:href="#linearGradient5274" gradientUnits="userSpaceOnUse" id="linearGradient15632" gradientTransform="matrix(-0.13333 0 0 1.0909 62.36 2.636)"/>
  <linearGradient x2="0" y1="90.22" y2="6.346" gradientUnits="userSpaceOnUse" id="linearGradient15655" gradientTransform="matrix(1 0 0 1 0.297 -2.156)">
   <stop stop-color="#5a5a5a"/>
   <stop stop-color="#909090" offset="1"/>
  </linearGradient>
 </defs>
 <g transform="matrix(1 0 0 1 0 -956.36)">
  <rect x="3.353" rx="12.724" y="959.35" fill-opacity="0.02" height="89.98" width="89.62"/>
  <rect x="3.959" rx="12.552" y="959.96" fill-opacity="0.039" height="88.76" width="88.41"/>
  <rect x="4.564" rx="12.38" y="960.57" fill-opacity="0.078" height="87.55" width="87.2"/>
  <rect x="5.17" rx="12.208" y="961.18" fill-opacity="0.157" height="86.33" width="85.991"/>
  <path d="m17.75 5.4062c-6.642 0-11.969 5.3948-11.969 12.063l0.0002 61.031c0 6.668 5.3268 12.031 11.969 12.031h60.812c6.642 0 11.969-5.363 11.969-12.031v-61.031c0-6.668-5.327-12.063-11.969-12.063l-60.812 0.0002z" fill="url(#linearGradient15064)" transform="matrix(1 0 0 1 0 956.36)"/>
  <path d="m12.297 965.08c-0.28154 0-0.34375 0.0622-0.34375 0.34375v72c0 0.2815 0.0622 0.3437 0.34375 0.3437h72c0.28154 0 0.34375-0.062 0.34375-0.3437v-72c0-0.28154-0.0622-0.34375-0.34375-0.34375h-72z" fill="url(#linearGradient15604)"/>
  <path d="m17.75 5.4062c-6.642 0-11.969 5.3948-11.969 12.063l0.0002 61.031c0 6.668 5.3268 12.031 11.969 12.031h60.812c6.642 0 11.969-5.363 11.969-12.031v-61.031c0-6.668-5.327-12.063-11.969-12.063l-60.812 0.0002zm2.562 8.4378h56c2.216 0 4 1.784 4 4v56c0 2.216-1.784 4-4 4h-56c-2.216 0-4-1.784-4-4v-56c0-2.216 1.784-4 4-4z" fill="url(#linearGradient15655)" transform="matrix(1 0 0 1 0 956.36)"/>
  <path d="m20.297 969.42c-2.216 0-4 1.784-4 4v1c0-2.216 1.784-4 4-4h56c2.216 0 4 1.784 4 4v-1c0-2.216-1.784-4-4-4h-56z" opacity="0.2"/>
  <path d="m20.297 970.42c-2.216 0-4 1.784-4 4v1c0-2.216 1.784-4 4-4h56c2.216 0 4 1.784 4 4v-1c0-2.216-1.784-4-4-4h-56z" opacity="0.1"/>
  <path d="m48.047 971.52a1.9113 1.9113 0 0 0 -0.9375 0.40625l-7.5 6-7.5 6a1.9113 1.9113 0 0 0 1.1875 3.4062h5.0938v28.187h-5.0938a1.9113 1.9113 0 0 0 -1.1875 3.4063l7.5 6 7.5 6a1.9113 1.9113 0 0 0 2.375 0l7.5-6 7.5-6a1.9113 1.9113 0 0 0 -1.1875 -3.4063h-5.0938v-28.187h5.0938a1.9113 1.9113 0 0 0 1.1875 -3.4062l-7.5-6-7.5-6a1.9113 1.9113 0 0 0 -1.4375 -0.40625z" fill="url(#linearGradient15620)"/>
  <path d="m48.297 973.42-7.5 6-7.5 6h7v32h-7l7.5 6 7.5 6 7.5-6 7.5-6h-7v-32h7l-7.5-6-7.5-6z" fill="url(#linearGradient15617)"/>
  <path d="m48.297 973.42-7.5 6-7.5 6h7v32h-7l7.5 6 7.5 6 7.5-6 7.5-6h-7v-32h7l-7.5-6-7.5-6zm0 3.0312 6.0312 4.8125 2.2812 1.8125h-0.3125a2.3529 2.3529 0 0 0 -2.3438 2.3438v32a2.3529 2.3529 0 0 0 2.3438 2.3437h0.3125l-2.2812 1.8125-6.0312 4.8125-6.0312-4.8125-2.2812-1.8125h0.3125a2.3529 2.3529 0 0 0 2.3438 -2.3437v-32a2.3529 2.3529 0 0 0 -2.3438 -2.3438h-0.3125l2.2812-1.8125 6.0312-4.8125z" opacity="0.1"/>
  <path d="m48.297 973.42-7.5 6-7.5 6h7v32h-7l7.5 6 7.5 6 7.5-6 7.5-6h-7v-32h7l-7.5-6-7.5-6zm0 1.9688 6.5312 5.2188 4.0938 3.2812h-2.625a1.5277 1.5277 0 0 0 -1.5312 1.5312v32a1.5277 1.5277 0 0 0 1.5312 1.5312h2.625l-4.0938 3.2813-6.5312 5.2187-6.5312-5.2187-4.0938-3.2813h2.625a1.5277 1.5277 0 0 0 1.5312 -1.5312v-32a1.5277 1.5277 0 0 0 -1.5312 -1.5312h-2.625l4.0938-3.2812 6.5312-5.2188z" opacity="0.15"/>
  <path d="m48.297 973.42-7.5 6-7.5 6h7v32h-7l7.5 6 7.5 6 7.5-6 7.5-6h-7v-32h7l-7.5-6-7.5-6zm0 1.0312 7 5.5938 5.6875 4.5625h-4.6875a0.79909 0.79909 0 0 0 -0.8125 0.8125v32a0.79909 0.79909 0 0 0 0.8125 0.8125h4.6875l-5.6875 4.5625-7 5.5937-7-5.5937-5.6875-4.5625h4.6875a0.79909 0.79909 0 0 0 0.8125 -0.8125v-32a0.79909 0.79909 0 0 0 -0.8125 -0.8125h-4.6875l5.6875-4.5625 7-5.5938z" opacity="0.3"/>
  <g transform="matrix(1 0 0 1 0.297 953.42)">
   <path d="m43.5 47c-5.5568 0-10.573 0.29423-14.219 0.75-1.8231 0.22789-3.2866 0.4678-4.3438 0.78125-0.52856 0.15673-0.95096 0.32846-1.2812 0.53125-0.33 0.203-0.656 0.497-0.656 0.938h-1.5c-1.376 0-2.5 1.124-2.5 2.5v1c0 1.3764 1.1236 2.5 2.5 2.5h1.5c0 0.44148 0.32596 0.73471 0.65625 0.9375s0.75269 0.37452 1.2812 0.53125c1.0571 0.31346 2.5207 0.55336 4.3438 0.78125 3.646 0.456 8.662 0.75 14.219 0.75h8c5.5568 0 10.573-0.29423 14.219-0.75 1.8231-0.22789 3.2866-0.4678 4.3438-0.78125 0.52856-0.15673 0.95096-0.32846 1.2812-0.53125 0.33-0.203 0.656-0.497 0.656-0.938v-6c0-0.441-0.326-0.735-0.656-0.938-0.331-0.202-0.753-0.374-1.282-0.531-1.057-0.313-2.52-0.553-4.343-0.781-3.646-0.456-8.662-0.75-14.219-0.75h-8z" filter="url(#filter3775)" opacity="0.15"/>
   <rect x="40" y="46" fill="#333" height="6" width="16"/>
   <rect x="20.5" rx="2" y="40" fill="url(#linearGradient15622)" stroke="#474747" height="6" width="13"/>
   <rect x="24.5" rx="19.583" ry="2.5" y="37.5" fill="url(#linearGradient15624)" stroke="#800000" height="11" width="47"/>
   <rect x="41.5" y="36.5" fill="url(#linearGradient15626)" stroke="url(#linearGradient15628)" height="15" width="13"/>
   <path d="m38.956 37.105 2.044-0.105v12l-2-0.105-0.044-11.79z" fill="url(#linearGradient15630)" opacity="0.6"/>
   <path d="m57 37.105-2.044-0.105v12l2-0.10457 0.044-11.79z" fill="url(#linearGradient15632)" opacity="0.6"/>
  </g>
  <path d="m5.7756 1033.9v1.0133c0 6.668 5.3434 12.032 11.985 12.032h60.809c6.6418 0 11.985-5.3645 11.985-12.032v-1.0133c0 6.6681-5.3434 12.032-11.985 12.032h-60.809c-6.6418 0-11.985-5.3644-11.985-12.032z" fill-opacity="0.098"/>
  <path d="m5.7756 1029.8v5.0663c0 6.668 5.3434 12.032 11.985 12.032h60.809c6.6418 0 11.985-5.3645 11.985-12.032v-5.0663c0 6.6681-5.3434 12.032-11.985 12.032h-60.809c-6.6418 0-11.985-5.3643-11.985-12.032z" fill-opacity="0.235"/>
 </g>
</svg>
