<svg height="96" width="96" xmlns="http://www.w3.org/2000/svg" xmlns:xlink="http://www.w3.org/1999/xlink" xmlns:sodipodi="http://sodipodi.sourceforge.net/DTD/sodipodi-0.dtd" xmlns:inkscape="http://www.inkscape.org/namespaces/inkscape">
 <defs>
  <linearGradient x2="0" y1="20.221" y2="138.66" gradientUnits="userSpaceOnUse" id="linearGradient3613-94">
   <stop stop-color="#fff"/>
   <stop stop-color="#fff" stop-opacity="0" offset="1"/>
  </linearGradient>
  <filter x="-0.192" y="-0.192" height="1.384" color-interpolation-filters="sRGB" id="filter3794-787" width="1.384">
   <feGaussianBlur stdDeviation="5.28"/>
  </filter>
  <linearGradient id="linearGradient3237">
   <stop stop-color="#6a3d0d"/>
   <stop stop-color="#efcb73" offset="1"/>
  </linearGradient>
  <filter x="-0.168" y="-0.194" height="1.388" color-interpolation-filters="sRGB" id="filter3847" width="1.336">
   <feGaussianBlur stdDeviation="4.2"/>
  </filter>
  <clipPath id="clipPath3837">
   <path d="m14 108.25c-3.2424 0-5.8438 2.7675-5.8438 6.1875v66.156c0 3.42 2.6013 6.1875 5.8438 6.1875h66.188c3.2424 0 5.875-2.7675 5.875-6.1875v-66.156c0-3.42-2.6326-6.1875-5.875-6.1875h-66.188zm34 9.75c0.60457 0 1.1929 0.015 1.7812 0.0312 0.01409 0.00015 0.04842-0.00015 0.0625 0 8.3453 0.0889 12.216 0.77855 16.875 2.0312 11.301 2.57 11.281 7.6 11.281 23.94 0 16.16 0.02953 20.465-11.281 23.938-4.6588 1.2527-8.5297 1.9424-16.875 2.0312-0.01408 0.00015-0.0484-0.00015-0.0625 0-0.589 0.01-1.177 0.03-1.782 0.03-0.60457 0-1.1929-0.015-1.7812-0.0312-0.0141-0.00015-0.04842 0.00015-0.0625 0-8.3453-0.089-12.216-0.77855-16.875-2.0312-11.311-3.47-11.281-7.78-11.281-23.94 0-16.338-0.02046-21.366 11.281-23.938 4.6588-1.2527 8.5297-1.9424 16.875-2.0312 0.01408-0.00015 0.04841 0.00015 0.0625 0 0.589-0.01 1.177-0.03 1.782-0.03z"/>
  </clipPath>
  <clipPath id="clipPath3613-2-7">
   <use xlink:href="#SVGCleanerId_0"/>
  </clipPath>
  <radialGradient cy="78.29" r="38.957" gradientUnits="userSpaceOnUse" id="radialGradient28552" cx="47.1" gradientTransform="matrix(2.6453 0 0 1.5736 -79.23 -36.691)">
   <stop stop-color="#e0d8b8"/>
   <stop stop-color="#b6a357" offset="1"/>
  </radialGradient>
  <linearGradient x2="0" y1="94.69" y2="20" gradientUnits="userSpaceOnUse" id="linearGradient28587" gradientTransform="matrix(0.62354 0 0 0.62572 103.29 949.08)">
   <stop stop-color="#536c5d"/>
   <stop stop-color="#93ac9d" offset="1"/>
  </linearGradient>
  <linearGradient x2="0" xlink:href="#linearGradient3613-94" y1="81.18" y2="73.45" gradientUnits="userSpaceOnUse" id="linearGradient28589" gradientTransform="matrix(1 0 0 1 95.19 941.37)"/>
  <linearGradient x2="0" y1="72.25" y2="79.84" gradientUnits="userSpaceOnUse" id="linearGradient28591">
   <stop stop-color="#1b1b1b"/>
   <stop stop-color="#484848" offset="1"/>
  </linearGradient>
  <linearGradient x2="0" xlink:href="#linearGradient3237" y1="103.13" y2="108.68" gradientUnits="userSpaceOnUse" id="linearGradient28605"/>
  <linearGradient x2="0" xlink:href="#linearGradient3237" y1="112.61" y2="99.67" gradientUnits="userSpaceOnUse" id="linearGradient28607"/>
  <linearGradient x1="21.03" x2="35.11" gradientUnits="userSpaceOnUse" id="linearGradient28609">
   <stop stop-color="#f1be43"/>
   <stop stop-color="#ebcb8b" stop-opacity="0" offset="1"/>
  </linearGradient>
  <rect x="6" rx="6" y="6" height="84" id="SVGCleanerId_0" width="84"/>
  <path d="m23.865 79.206a5.0508 5.0508 0 1 1 -10.102 0 5.0508 5.0508 0 1 1 10.102 0z" id="SVGCleanerId_1"/>
  <path d="m30.983 106.14a4.6224 4.6224 0 1 1 -9.2449 0 4.6224 4.6224 0 1 1 9.2449 0z" id="SVGCleanerId_2" stroke-linecap="square"/>
 </defs>
 <g transform="matrix(1 0 0 1 0 -956.36)">
  <rect x="3.353" rx="12.724" y="959.35" fill-opacity="0.02" height="89.98" width="89.62"/>
  <rect x="3.959" rx="12.552" y="959.96" fill-opacity="0.039" height="88.76" width="88.41"/>
  <rect x="4.564" rx="12.38" y="960.57" fill-opacity="0.078" height="87.55" width="87.2"/>
  <rect x="5.17" rx="12.208" y="961.18" fill-opacity="0.157" height="86.33" width="85.991"/>
  <path d="m17.75 5.4062c-6.642 0-11.969 5.3948-11.969 12.063l0.0002 61.031c0 6.668 5.3268 12.031 11.969 12.031h60.812c6.642 0 11.969-5.363 11.969-12.031v-61.031c0-6.668-5.327-12.063-11.969-12.063l-60.812 0.0002z" fill="url(#radialGradient28552)" transform="matrix(1 0 0 1 0 956.36)"/>
  <path d="m5.7756 1033.9v1.0133c0 6.668 5.3434 12.032 11.985 12.032h60.809c6.6418 0 11.985-5.3645 11.985-12.032v-1.0133c0 6.6681-5.3434 12.032-11.985 12.032h-60.809c-6.6418 0-11.985-5.3644-11.985-12.032z" fill-opacity="0.098"/>
  <path d="m5.7756 1029.8v5.0663c0 6.668 5.3434 12.032 11.985 12.032h60.809c6.6418 0 11.985-5.3645 11.985-12.032v-5.0663c0 6.6681-5.3434 12.032-11.985 12.032h-60.809c-6.6418 0-11.985-5.3643-11.985-12.032z" fill-opacity="0.235"/>
  <g transform="matrix(1 0 0 1 -94.92 12.11)">
   <rect x="15" stroke-width="0.5" rx="12" y="15" clip-path="url(#clipPath3613-2-7)" fill="url(#linearGradient3613-94)" stroke="#fff" height="66" filter="url(#filter3794-787)" opacity="0.1" stroke-linecap="round" width="66" transform="matrix(1 0 0 1 95.19 941.37)"/>
   <path d="m48 118c-0.60457 0-1.1929 0.015-1.7812 0.0312-0.01409 0.00015-0.04842-0.00015-0.0625 0-8.3453 0.0889-12.216 0.77855-16.875 2.0312-11.301 2.57-11.281 7.6-11.281 23.94 0 16.16-0.02953 20.465 11.281 23.938 4.6588 1.2527 8.5297 1.9423 16.875 2.0312 0.01408 0.00015 0.0484-0.00015 0.0625 0 0.589 0.02 1.177 0.03 1.782 0.03 0.60457 0 1.1929-0.015 1.7812-0.0312 0.0141-0.00015 0.04842 0.00015 0.0625 0 8.3453-0.0889 12.216-0.77855 16.875-2.0312 11.311-3.47 11.281-7.78 11.281-23.94 0-16.338 0.02046-21.366-11.281-23.938-4.6588-1.2527-8.5297-1.9423-16.875-2.0312-0.01408-0.00015-0.04841 0.00015-0.0625 0-0.589-0.02-1.177-0.03-1.782-0.03z" clip-path="url(#clipPath3837)" fill="#fff" filter="url(#filter3847)" transform="matrix(1 0 0 1 95.19 841.37)"/>
   <path d="m143.2 959.37c-0.60457 0-1.1929 0.015-1.7812 0.031-0.0141 0.0001-0.0484-0.0002-0.0625 0-8.3454 0.089-12.216 0.7785-16.875 2.0312-11.302 2.5714-11.281 7.5993-11.281 23.938 0 16.16-0.0295 20.465 11.281 23.937 4.6588 1.2527 8.5296 1.9423 16.875 2.0313 0.0141 0.0001 0.0484-0.0002 0.0625 0 0.58839 0.016 1.1767 0.031 1.7812 0.031 0.60457 0 1.1929-0.015 1.7812-0.031 0.0141-0.0002 0.0484 0.0001 0.0625 0 8.3454-0.089 12.216-0.7786 16.875-2.0313 11.311-3.4721 11.281-7.7779 11.281-23.937 0-16.338 0.0205-21.366-11.281-23.938-4.6588-1.2527-8.5296-1.9423-16.875-2.0312-0.0141-0.0002-0.0484 0.0001-0.0625 0-0.58839-0.016-1.1767-0.031-1.7812-0.031z" fill="url(#linearGradient28587)"/>
   <path d="m143.2 959.37c-0.60457 0-1.1929 0.015-1.7812 0.031-0.0141 0.0001-0.0484-0.0002-0.0625 0-8.3454 0.089-12.216 0.7785-16.875 2.0312-11.302 2.5714-11.281 7.5993-11.281 23.938 0 16.16-0.0295 20.465 11.281 23.937 4.6588 1.2527 8.5296 1.9423 16.875 2.0313 0.0141 0.0001 0.0484-0.0002 0.0625 0 0.58839 0.016 1.1767 0.031 1.7812 0.031 0.60457 0 1.1929-0.015 1.7812-0.031 0.0141-0.0002 0.0484 0.0001 0.0625 0 8.3454-0.089 12.216-0.7786 16.875-2.0313 11.311-3.4721 11.281-7.7779 11.281-23.937 0-16.338 0.0205-21.366-11.281-23.938-4.6588-1.2527-8.5296-1.9423-16.875-2.0312-0.0141-0.0002-0.0484 0.0001-0.0625 0-0.58839-0.016-1.1767-0.031-1.7812-0.031zm0 3.0313c0.5546 0 1.1037 0.015 1.6875 0.031a3.0293 3.0293 0 0 0 0.0625 0c0.10748 0 0.14331 0.0009 0.0625 0 8.1885 0.087 11.603 0.7217 16.125 1.9375a3.0293 3.0293 0 0 0 0.0937 0.031c2.617 0.5954 4.3805 1.2949 5.5 2.0625 1.1195 0.7675 1.7289 1.5346 2.25 2.875 1.0421 2.6806 1.1875 7.8608 1.1875 16.031 0 8.0817-0.15476 13.001-1.1875 15.594-1.0243 2.5711-2.6282 3.7935-7.8438 5.4062-0.0325 0.01-0.0614 0.023-0.0937 0.031-4.4737 1.1986-7.9016 1.8195-16.031 1.9062 0.0808-0.0009 0.0449 0-0.0625 0a3.0293 3.0293 0 0 0 -0.0625 0c-0.5839 0.016-1.1329 0.031-1.6875 0.031-0.55457 0-1.1036-0.015-1.6875-0.031a3.0293 3.0293 0 0 0 -0.0625 0c-0.10737 0-0.14329-0.0009-0.0625 0-8.1297-0.087-11.558-0.7076-16.031-1.9062-0.0307-0.01-0.032-0.022-0.0625-0.031h-0.0313c-5.2156-1.6127-6.8194-2.8351-7.8438-5.4062-1.0327-2.5924-1.1875-7.5121-1.1875-15.594 0-8.1704 0.14536-13.351 1.1875-16.031 0.52107-1.3404 1.1305-2.1075 2.25-2.875 1.1195-0.7676 2.883-1.4671 5.5-2.0625a3.0293 3.0293 0 0 0 0.0937 -0.031c4.5217-1.2158 7.9365-1.8502 16.125-1.9375-0.0808 0.0009-0.045 0 0.0625 0a3.0293 3.0293 0 0 0 0.0625 0c0.58383-0.016 1.1329-0.031 1.6875-0.031z" fill="#37483e" opacity="0.1"/>
   <path d="m143.2 959.37c-0.60457 0-1.1929 0.015-1.7812 0.031-0.0141 0.0001-0.0484-0.0002-0.0625 0-8.3454 0.089-12.216 0.7785-16.875 2.0312-11.302 2.5714-11.281 7.5993-11.281 23.938 0 16.16-0.0295 20.465 11.281 23.937 4.6588 1.2527 8.5296 1.9423 16.875 2.0313 0.0141 0.0001 0.0484-0.0002 0.0625 0 0.58839 0.016 1.1767 0.031 1.7812 0.031 0.60457 0 1.1929-0.015 1.7812-0.031 0.0141-0.0002 0.0484 0.0001 0.0625 0 8.3454-0.089 12.216-0.7786 16.875-2.0313 11.311-3.4721 11.281-7.7779 11.281-23.937 0-16.338 0.0205-21.366-11.281-23.938-4.6588-1.2527-8.5296-1.9423-16.875-2.0312-0.0141-0.0002-0.0484 0.0001-0.0625 0-0.58839-0.016-1.1767-0.031-1.7812-0.031zm0 2.0313c0.57093 0 1.1334 0.015 1.7188 0.031a2.0394 2.0394 0 0 0 0.0313 0c0.077 0.0008 0.1123 0.0005 0.0625 0 8.2398 0.088 11.808 0.7409 16.375 1.9688a2.0394 2.0394 0 0 0 0.0937 0.031c2.6851 0.6109 4.5401 1.3464 5.8125 2.2188 1.2724 0.8723 2.013 1.8185 2.5938 3.3125 1.1616 2.9878 1.2812 8.2363 1.2812 16.406 0 8.081-0.0951 13.07-1.25 15.969-1.1486 2.8831-3.1687 4.3448-8.5312 6-0.0222 0.01-0.0404 0.025-0.0625 0.031-4.5348 1.2163-8.1127 1.8501-16.312 1.9375 0.0498-0.0005 0.0144-0.0008-0.0625 0a2.0394 2.0394 0 0 0 -0.0313 0c-0.58537 0.016-1.1478 0.031-1.7188 0.031-0.57091 0-1.1334-0.015-1.7188-0.031a2.0394 2.0394 0 0 0 -0.0313 0c-0.0769-0.0008-0.11229-0.0005-0.0625 0-8.1998-0.087-11.778-0.7212-16.312-1.9375-0.0294-0.01-0.0333-0.022-0.0625-0.031-5.3626-1.6552-7.3826-3.1169-8.5312-6-1.1549-2.8989-1.25-7.8878-1.25-15.969 0-8.1699 0.11968-13.418 1.2812-16.406 0.58078-1.494 1.3213-2.4402 2.5938-3.3125 1.2724-0.8724 3.1274-1.6079 5.8125-2.2188a2.0394 2.0394 0 0 0 0.0937 -0.031c4.5665-1.2279 8.1352-1.881 16.375-1.9688-0.0498 0.0005-0.0145 0.0008 0.0625 0a2.0394 2.0394 0 0 0 0.0313 0c0.58532-0.016 1.1478-0.031 1.7188-0.031z" fill="#37483e" opacity="0.2"/>
   <path d="m143.2 959.37c-0.60457 0-1.1929 0.015-1.7812 0.031-0.0141 0.0001-0.0484-0.0002-0.0625 0-8.3454 0.089-12.216 0.7785-16.875 2.0312-11.302 2.5714-11.281 7.5993-11.281 23.938 0 16.16-0.0295 20.465 11.281 23.937 4.6588 1.2527 8.5296 1.9423 16.875 2.0313 0.0141 0.0001 0.0484-0.0002 0.0625 0 0.58839 0.016 1.1767 0.031 1.7812 0.031 0.60457 0 1.1929-0.015 1.7812-0.031 0.0141-0.0002 0.0484 0.0001 0.0625 0 8.3454-0.089 12.216-0.7786 16.875-2.0313 11.311-3.4721 11.281-7.7779 11.281-23.937 0-16.338 0.0205-21.366-11.281-23.938-4.6588-1.2527-8.5296-1.9423-16.875-2.0312-0.0141-0.0002-0.0484 0.0001-0.0625 0-0.58839-0.016-1.1767-0.031-1.7812-0.031zm0 1.0625c0.58692 0 1.1632 0.015 1.75 0.031a1.0698 1.0698 0 0 0 0.0313 0c0.0471 0.0004 0.0819 0.0002 0.0625 0 8.29 0.088 11.983 0.7603 16.594 2a1.0698 1.0698 0 0 0 0.0313 0c2.7518 0.6261 4.7653 1.4 6.1875 2.375 1.4222 0.9749 2.2982 2.1369 2.9375 3.7812 1.2785 3.2887 1.3438 8.5805 1.3438 16.75 0 8.0805-0.0693 13.145-1.3438 16.344-1.272 3.1929-3.6425 4.8662-9.1562 6.5625h-0.0313c-4.5965 1.2345-8.2905 1.9118-16.562 2 0.0194-0.0003-0.0155-0.0005-0.0625 0a1.0698 1.0698 0 0 0 -0.0313 0c-0.5868 0.016-1.1631 0.031-1.75 0.031-0.58691 0-1.1632-0.015-1.75-0.031a1.0698 1.0698 0 0 0 -0.0313 0c-0.047-0.0005-0.0819-0.0003-0.0625 0-8.272-0.088-11.966-0.7655-16.562-2h-0.0313c-5.5138-1.6963-7.8842-3.3696-9.1562-6.5625-1.2745-3.1992-1.3438-8.2633-1.3438-16.344 0-8.1695 0.0652-13.461 1.3438-16.75 0.63927-1.6443 1.5153-2.8063 2.9375-3.7812 1.4222-0.975 3.4357-1.7489 6.1875-2.375a1.0698 1.0698 0 0 0 0.0313 0c4.6104-1.2397 8.3038-1.9117 16.594-2-0.0194 0.0002 0.0154 0.0004 0.0625 0a1.0698 1.0698 0 0 0 0.0313 0c0.58678-0.016 1.1631-0.031 1.75-0.031z" fill="#37483e" opacity="0.5"/>
   <path d="m116.26 988.84c0.0567 5.9741 0.2876 9.9445 1.1562 12.125 1.0239 2.5701 2.6285 3.7936 7.8438 5.4062h0.0313c0.0305 0.01 0.0318 0.022 0.0625 0.031 4.4735 1.1986 7.9017 1.8196 16.031 1.9062-0.0809-0.0009-0.045 0 0.0625 0a3.0324 3.0324 0 0 1 0.0625 0c0.5839 0.016 1.133 0.031 1.6875 0.031 0.55452 0 1.1036-0.015 1.6875-0.031a3.0324 3.0324 0 0 1 0.0625 0c0.10747 0 0.14339-0.0009 0.0625 0 8.1295-0.087 11.558-0.7076 16.031-1.9062 0.0324-0.01 0.0613-0.023 0.0937-0.031 5.2152-1.6126 6.8198-2.8361 7.8438-5.4062 0.86865-2.1805 1.0996-6.1509 1.1562-12.125-0.092 4.9148-0.38199 8.1814-1.1562 10.125-1.0239 2.5701-2.6285 3.7936-7.8438 5.4062-0.0325 0.01-0.0614 0.023-0.0937 0.031-4.4735 1.1986-7.9017 1.8196-16.031 1.9062 0.0809-0.0009 0.045 0-0.0625 0a3.0324 3.0324 0 0 0 -0.0625 0c-0.5839 0.016-1.133 0.031-1.6875 0.031-0.55452 0-1.1036-0.015-1.6875-0.031a3.0324 3.0324 0 0 0 -0.0625 0c-0.10747 0-0.14339-0.0009-0.0625 0-8.1295-0.087-11.558-0.7076-16.031-1.9062-0.0307-0.01-0.032-0.022-0.0625-0.031h-0.0313c-5.2152-1.6126-6.8198-2.8361-7.8438-5.4062-0.77426-1.9436-1.0642-5.2102-1.1562-10.125z" fill="#fff" opacity="0.2"/>
   <path d="m140.2 1012.3c-1.1004 0-2.0312 0.9308-2.0312 2.0312v0.875c-0.078-1.0332-0.91829-1.9062-1.9688-1.9062-1.1004 0-2.0312 0.9308-2.0312 2.0312v0.875c-0.078-1.0332-0.91829-1.9062-1.9688-1.9062-1.1004 0-2.0312 0.9308-2.0312 2.0312v2c0 1.1004 0.93088 2.0313 2.0312 2.0313 1.0505 0 1.8907-0.8731 1.9688-1.9063v0.875c0 1.1004 0.93088 2.0313 2.0312 2.0313 1.0505 0 1.8907-0.8731 1.9688-1.9063v0.875c0 1.1004 0.93088 2.0313 2.0312 2.0313 1.0754 0 1.9597-0.9019 2-1.9688 0.0403 1.0669 0.92459 1.9688 2 1.9688s1.9597-0.9019 2-1.9688c0.0403 1.0669 0.92459 1.9688 2 1.9688 1.1004 0 2.0312-0.9309 2.0312-2.0313v-0.875c0.078 1.0332 0.91829 1.9063 1.9688 1.9063 1.1004 0 2.0312-0.9309 2.0312-2.0313v-0.875c0.078 1.0332 0.91829 1.9063 1.9688 1.9063 1.1004 0 2.0312-0.9309 2.0312-2.0313v-2c0-1.1004-0.93088-2.0312-2.0312-2.0312-1.0505 0-1.8907 0.873-1.9688 1.9062v-0.875c0-1.1004-0.93088-2.0312-2.0312-2.0312-1.0505 0-1.8907 0.873-1.9688 1.9062v-0.875c0-1.1004-0.93088-2.0312-2.0312-2.0312-1.0754 0-1.9597 0.9018-2 1.9687-0.0403-1.0669-0.92459-1.9687-2-1.9687s-1.9597 0.9018-2 1.9687c-0.0403-1.0669-0.92459-1.9687-2-1.9687z" fill="url(#linearGradient28589)"/>
   <g transform="matrix(1 0 0 1 95.19 941.37)">
    <path d="m45 72c-0.554 0-1 0.446-1 1v6c0 0.554 0.446 1 1 1s1-0.446 1-1v-6c0-0.554-0.446-1-1-1z" fill="url(#linearGradient28591)"/>
    <path d="m49 72c-0.554 0-1 0.446-1 1v6c0 0.554 0.446 1 1 1s1-0.446 1-1v-6c0-0.554-0.446-1-1-1z" fill="url(#linearGradient28591)"/>
    <path d="m53 72c-0.554 0-1 0.446-1 1v6c0 0.554 0.446 1 1 1s1-0.446 1-1v-6c0-0.554-0.446-1-1-1z" fill="url(#linearGradient28591)"/>
    <path d="m41 73c-0.554 0-1 0.446-1 1v4c0 0.554 0.446 1 1 1s1-0.446 1-1v-4c0-0.554-0.446-1-1-1z" fill="url(#linearGradient28591)"/>
    <path d="m57 73c-0.554 0-1 0.446-1 1v4c0 0.554 0.446 1 1 1s1-0.446 1-1v-4c0-0.554-0.446-1-1-1z" fill="url(#linearGradient28591)"/>
    <path d="m37 74c-0.554 0-1 0.446-1 1v2c0 0.554 0.446 1 1 1s1-0.446 1-1v-2c0-0.554-0.446-1-1-1z" fill="url(#linearGradient28591)"/>
    <path d="m61 74c-0.554 0-1 0.446-1 1v2c0 0.554 0.446 1 1 1s1-0.446 1-1v-2c0-0.554-0.446-1-1-1z" fill="url(#linearGradient28591)"/>
   </g>
   <use xlink:href="#SVGCleanerId_1" opacity="0.2" transform="matrix(1.1879 0 0 1.1879 95.84 922.28)"/>
   <use xlink:href="#SVGCleanerId_1" opacity="0.6" transform="matrix(0.98995 0 0 0.98995 99.57 937.96)"/>
   <use stroke-width="3.962" xlink:href="#SVGCleanerId_2" fill="url(#linearGradient28605)" stroke="url(#linearGradient28607)" transform="matrix(0.75718 0 0 0.75718 98.24 935.01)"/>
   <use stroke-width="1.317" xlink:href="#SVGCleanerId_2" fill="none" stroke="url(#linearGradient28609)" transform="matrix(0 -0.7591 0.7591 0 37.626 1035.38)"/>
   <use xlink:href="#SVGCleanerId_1" opacity="0.2" transform="matrix(1.1879 0 0 1.1879 145.85 922.28)"/>
   <use xlink:href="#SVGCleanerId_1" opacity="0.6" transform="matrix(0.98995 0 0 0.98995 149.57 937.96)"/>
   <use stroke-width="3.962" xlink:href="#SVGCleanerId_2" fill="url(#linearGradient28605)" stroke="url(#linearGradient28607)" transform="matrix(0.75718 0 0 0.75718 148.24 935.01)"/>
   <use stroke-width="1.317" xlink:href="#SVGCleanerId_2" fill="none" stroke="url(#linearGradient28609)" transform="matrix(0 -0.7591 0.7591 0 87.63 1035.38)"/>
  </g>
 </g>
</svg>
