<?xml version="1.0" encoding="UTF-8" standalone="no"?>
<svg
   xmlns:dc="http://purl.org/dc/elements/1.1/"
   xmlns:cc="http://creativecommons.org/ns#"
   xmlns:rdf="http://www.w3.org/1999/02/22-rdf-syntax-ns#"
   xmlns:svg="http://www.w3.org/2000/svg"
   xmlns="http://www.w3.org/2000/svg"
   xmlns:xlink="http://www.w3.org/1999/xlink"
   xmlns:sodipodi="http://sodipodi.sourceforge.net/DTD/sodipodi-0.dtd"
   xmlns:inkscape="http://www.inkscape.org/namespaces/inkscape"
   height="96"
   width="96"
   id="svg1624"
   version="1.1"
   inkscape:version="0.91 r13725"
   sodipodi:docname="goa-account-twitter.svg">
  <metadata
     id="metadata1659">
    <rdf:RDF>
      <cc:Work
         rdf:about="">
        <dc:format>image/svg+xml</dc:format>
        <dc:type
           rdf:resource="http://purl.org/dc/dcmitype/StillImage" />
      </cc:Work>
    </rdf:RDF>
  </metadata>
  <sodipodi:namedview
     pagecolor="#ffffff"
     bordercolor="#666666"
     borderopacity="1"
     objecttolerance="10"
     gridtolerance="10"
     guidetolerance="10"
     inkscape:pageopacity="0"
     inkscape:pageshadow="2"
     inkscape:window-width="640"
     inkscape:window-height="480"
     id="namedview1657"
     showgrid="false"
     inkscape:zoom="2.4583333"
     inkscape:cx="48"
     inkscape:cy="46.889492"
     inkscape:current-layer="svg1624" />
  <defs
     id="defs1626">
    <linearGradient
       x2="0"
       y1="89.17"
       y2="8.328"
       gradientUnits="userSpaceOnUse"
       id="linearGradient33314"
       gradientTransform="matrix(1.1023,0,0,-1.1023,-5.498,101.49)">
      <stop
         stop-color="#3abef0"
         id="stop1629" />
      <stop
         stop-color="#0f96c9"
         offset="1"
         id="stop1631" />
    </linearGradient>
    <linearGradient
       inkscape:collect="always"
       xlink:href="#linearGradient14231"
       id="linearGradient14237"
       x1="50.707542"
       y1="81.682442"
       x2="50.707542"
       y2="96.539803"
       gradientUnits="userSpaceOnUse" />
    <linearGradient
       inkscape:collect="always"
       id="linearGradient14231">
      <stop
         style="stop-color:#000000;stop-opacity:1;"
         offset="0"
         id="stop14233" />
      <stop
         style="stop-color:#000000;stop-opacity:0;"
         offset="1"
         id="stop14235" />
    </linearGradient>
    <linearGradient
       inkscape:collect="always"
       xlink:href="#linearGradient14239"
       id="linearGradient14245"
       x1="49.876652"
       y1="87.937508"
       x2="49.876652"
       y2="76.719681"
       gradientUnits="userSpaceOnUse" />
    <linearGradient
       inkscape:collect="always"
       id="linearGradient14239">
      <stop
         style="stop-color:#ffffff;stop-opacity:1;"
         offset="0"
         id="stop14241" />
      <stop
         style="stop-color:#ffffff;stop-opacity:0;"
         offset="1"
         id="stop14243" />
    </linearGradient>
  </defs>
  <rect
     style="fill-opacity:0.02000002"
     id="rect1635"
     width="89.620003"
     height="89.980003"
     y="2.9899757"
     rx="12.724"
     x="3.3529999" />
  <rect
     style="fill-opacity:0.03900003"
     id="rect1637"
     width="88.410004"
     height="88.760002"
     y="3.6000221"
     rx="12.552"
     x="3.9590001" />
  <rect
     style="fill-opacity:0.078"
     id="rect1639"
     width="87.199997"
     height="87.550003"
     y="4.2100072"
     rx="12.38"
     x="4.5640001" />
  <rect
     style="fill-opacity:0.15700001"
     id="rect1641"
     width="85.990997"
     height="86.330002"
     y="4.8199925"
     rx="12.208"
     x="5.1700001" />
  <path
     inkscape:connector-curvature="0"
     style="fill:url(#linearGradient33314)"
     id="path1643"
     d="m 17.75,5.4062 c -6.642,0 -11.969,5.3948 -11.969,12.063 l 2e-4,61.031 c 0,6.668 5.3268,12.031 11.969,12.031 l 60.812,0 c 6.642,0 11.969,-5.363 11.969,-12.031 l 0,-61.031 c 0,-6.668 -5.327,-12.063 -11.969,-12.063 l -60.812,2e-4 z" />
  <path
     style="opacity:0.05;fill:#095471"
     inkscape:connector-curvature="0"
     id="path1649"
     d="m 59.85,22.95 c -0.8859,-0.0858 -1.7766,-0.0631 -2.625,0.0313 -1.1947,0.13292 -2.3646,0.4149 -3.4688,0.75 -4.5687,1.3866 -8.0139,6.4264 -8.0313,12.375 -10.988,-1.3368 -15.774,-7.0815 -19.281,-10.469 0.002,0.002 -0.0963,-0.0959 -0.0937,-0.0937 0.003,0.002 -0.0964,-0.0645 -0.0937,-0.0625 0.003,0.002 -0.0965,-0.0956 -0.0937,-0.0937 0.003,0.002 -0.0966,-0.0642 -0.0937,-0.0625 0.003,0.002 -0.0968,-0.0328 -0.0937,-0.0313 0.003,0.002 -0.12808,-0.0639 -0.125,-0.0625 0.003,10e-4 -0.0969,-0.0637 -0.0937,-0.0625 0.003,10e-4 -0.12822,-0.0323 -0.125,-0.0313 0.003,0.001 -0.097,-0.0321 -0.0937,-0.0313 0.003,8.4e-4 -0.12831,-0.0319 -0.125,-0.0313 0.003,6.6e-4 -0.12835,-4.7e-4 -0.125,0 0.003,4.7e-4 -0.12837,-0.0315 -0.125,-0.0313 0.003,2.8e-4 -0.12838,-9e-5 -0.125,0 0.003,9e-5 -0.0971,1.1e-4 -0.0937,0 0.003,-1.1e-4 -0.12836,3e-4 -0.125,0 0.003,-3e-4 -0.12834,0.0317 -0.125,0.0313 0.003,-4.9e-4 -0.12831,6.8e-4 -0.125,0 0.003,-6.8e-4 -0.097,0.0321 -0.0937,0.0313 0.003,-8.6e-4 -0.12821,0.0323 -0.125,0.0313 0.003,-0.001 -0.12815,0.0637 -0.125,0.0625 0.003,-0.001 -0.0968,0.0326 -0.0937,0.0313 0.003,-0.001 -0.12799,0.0641 -0.125,0.0625 0.003,-0.002 -0.0966,0.0642 -0.0937,0.0625 0.003,-0.002 -0.0965,0.0644 -0.0937,0.0625 0.003,-0.002 -0.0964,0.0646 -0.0937,0.0625 0.003,-0.002 -0.0963,0.0647 -0.0937,0.0625 0.003,-0.002 -0.0962,0.0961 -0.0937,0.0937 0.002,-0.002 -0.096,0.0962 -0.0937,0.0937 0.002,-0.003 -0.0647,0.0651 -0.0625,0.0625 0.002,-0.003 -0.0957,0.12773 -0.0937,0.125 0.002,-0.003 -0.0643,0.0966 -0.0625,0.0937 0.002,-0.003 -0.0642,0.0967 -0.0625,0.0937 -2.1007,3.7084 -2.0999,7.5479 -1.0625,10.625 0.21095,0.62573 0.59278,1.0866 0.875,1.6562 -0.0112,0.003 -0.0321,2.5e-4 -0.0313,0 0.004,-10e-4 -0.12861,0.0638 -0.125,0.0625 0.004,-10e-4 -0.12852,0.0328 -0.125,0.0313 0.004,-0.002 -0.12841,0.0642 -0.125,0.0625 0.003,-0.002 -0.1283,0.0645 -0.125,0.0625 0.003,-0.002 -0.0969,0.0959 -0.0937,0.0937 0.003,-0.002 -0.12802,0.0649 -0.125,0.0625 0.003,-0.002 -0.0966,0.0963 -0.0937,0.0937 0.003,-0.003 -0.0964,0.0965 -0.0937,0.0937 0.003,-0.003 -0.0963,0.0966 -0.0937,0.0937 0.003,-0.003 -0.0961,0.12806 -0.0937,0.125 0.002,-0.003 -0.0646,0.0969 -0.0625,0.0937 0.002,-0.003 -0.0956,0.12833 -0.0937,0.125 0.002,-0.003 -0.0642,0.12844 -0.0625,0.125 0.002,-0.003 -0.064,0.0973 -0.0625,0.0937 0.002,-0.004 -0.0325,0.15988 -0.0313,0.15625 0.001,-0.004 -0.0322,0.1287 -0.0313,0.125 9.9e-4,-0.004 -0.032,0.12876 -0.0313,0.125 7.5e-4,-0.004 -0.0318,0.1288 -0.0313,0.125 5.1e-4,-0.004 -2.6e-4,0.12882 0,0.125 a 1.1407,1.1407 0 0 0 0,0.0313 c -0.23445,3.54045 1.1304,6.58885 3.0938,8.81245 0.38609,0.4372 0.82706,0.7067 1.25,1.0625 -0.0251,0.031 -0.064,0.064 -0.0625,0.063 0.002,0 -0.0646,0.1281 -0.0625,0.125 0.002,0 -0.0644,0.097 -0.0625,0.094 0.002,0 -0.0642,0.1282 -0.0625,0.125 0.002,0 -0.064,0.1284 -0.0625,0.125 0.002,0 -0.0637,0.1285 -0.0625,0.125 0.001,0 -0.0323,0.1285 -0.0313,0.125 10e-4,0 -0.032,0.1286 -0.0313,0.125 8e-4,0 -0.0318,0.1286 -0.0313,0.125 5.8e-4,0 -3.5e-4,0.1287 0,0.125 3.5e-4,0 -0.0314,0.1287 -0.0313,0.125 1.1e-4,0 1.2e-4,0.1599 0,0.1562 -1.2e-4,0 0.0316,0.1287 0.0313,0.125 -3.5e-4,0 5.8e-4,0.1287 0,0.125 -5.8e-4,0 0.0321,0.1286 0.0313,0.125 -8.1e-4,0 0.0323,0.1286 0.0313,0.125 a 1.1407,1.1407 0 0 0 0,0.031 c 1.0293,3.4051 3.0468,5.7418 5.3125,7.1563 0.54504,0.3402 1.0755,0.4279 1.625,0.6562 -3.1932,1.4916 -6.7412,1.9787 -10.781,1.7813 0.005,4e-4 -0.1612,-0.031 -0.15625,-0.031 0.005,-10e-5 -0.19242,0.032 -0.1875,0.031 0.005,-5e-4 -0.16111,0.032 -0.15625,0.031 0.005,0 -0.19227,0.033 -0.1875,0.031 0.005,0 -0.1609,0.064 -0.15625,0.063 0.005,0 -0.16074,0.065 -0.15625,0.063 0.005,0 -0.16055,0.065 -0.15625,0.063 0.004,0 -0.16033,0.096 -0.15625,0.094 0.004,0 -0.12884,0.1281 -0.125,0.125 0.004,0 -0.15981,0.097 -0.15625,0.094 0.004,0 -0.12827,0.1287 -0.125,0.125 0.003,0 -0.0967,0.1602 -0.0937,0.1562 0.003,0 -0.0964,0.1292 -0.0937,0.125 0.003,0 -0.096,0.1607 -0.0937,0.1563 0.002,0 -0.0644,0.1608 -0.0625,0.1562 0.002,-0.01 -0.064,0.161 -0.0625,0.1563 0.002,0 -0.0636,0.1923 -0.0625,0.1875 0.001,0 -0.0319,0.1611 -0.0313,0.1562 6.9e-4,-0.01 -2.8e-4,0.1924 0,0.1875 2.8e-4,-0.01 1.3e-4,0.1612 0,0.1563 -1.3e-4,0 5.4e-4,0.1924 0,0.1875 -5.4e-4,0 0.0322,0.1923 0.0313,0.1875 -9.5e-4,0 0.0326,0.161 0.0313,0.1562 -0.001,-0.01 0.0642,0.1609 0.0625,0.1563 -0.002,0 0.0646,0.1607 0.0625,0.1562 -0.002,-0.01 0.0962,0.1605 0.0937,0.1563 -0.002,0 0.0966,0.1603 0.0937,0.1562 -0.003,0 0.0969,0.1602 0.0937,0.1563 -0.003,0 0.12846,0.1285 0.125,0.125 -0.003,0 0.12874,0.1282 0.125,0.125 -0.004,0 0.129,0.097 0.125,0.094 -0.004,0 0.16047,0.096 0.15625,0.094 16.423,10.0479 33.216,3.9987 41.5,-4.0938 6.6853,-6.5308 9.5969,-15.933 9.9062,-24.53105 0.69508,-0.57669 1.5089,-1.2236 2.375,-2.0938 1.0905,-1.0956 2.1946,-2.3235 2.8125,-3.8125 0.0055,-0.0134 0.02578,-0.0178 0.03125,-0.0313 0.01646,-0.0408 0.0324,-0.12817 0.03125,-0.125 -0.0015,0.004 0.0637,-0.12928 0.0625,-0.125 -0.0012,0.004 0.03213,-0.16061 0.03125,-0.15625 -8.77e-4,0.004 0.0318,-0.16067 0.03125,-0.15625 -5.49e-4,0.004 2.18e-4,-0.1607 0,-0.15625 -2.18e-4,0.004 -1.15e-4,-0.1607 0,-0.15625 1.15e-4,0.004 -4.47e-4,-0.16068 0,-0.15625 4.47e-4,0.004 -0.03203,-0.16063 -0.03125,-0.15625 7.76e-4,0.004 -0.03235,-0.16056 -0.03125,-0.15625 0.0011,0.004 -0.03267,-0.16047 -0.03125,-0.15625 0.0014,0.004 -0.06423,-0.16035 -0.0625,-0.15625 0.0017,0.004 -0.06453,-0.12896 -0.0625,-0.125 0.002,0.004 -0.09607,-0.16005 -0.09375,-0.15625 0.0023,0.004 -0.0651,-0.12861 -0.0625,-0.125 0.0026,0.004 -0.12786,-0.12841 -0.125,-0.125 0.0029,0.003 -0.09686,-0.12819 -0.09375,-0.125 0.0031,0.003 -0.12834,-0.0967 -0.125,-0.0937 0.0033,0.003 -0.0973,-0.0964 -0.09375,-0.0937 0.0035,0.003 -0.15999,-0.0962 -0.15625,-0.0937 0.0037,0.002 -0.12891,-0.0959 -0.125,-0.0937 0.0039,0.002 -0.12906,-0.0643 -0.125,-0.0625 0.0041,0.002 -0.16043,-0.064 -0.15625,-0.0625 0.0042,10e-4 -0.16053,-0.0325 -0.15625,-0.0313 0.0043,0.001 -0.16061,-0.0634 -0.15625,-0.0625 0.0044,8.8e-4 -0.16066,-5.6e-4 -0.15625,0 0.0044,5.6e-4 -0.16069,-0.0315 -0.15625,-0.0313 0.0018,9e-5 -0.03156,3.9e-4 -0.0625,0 0.28301,-0.61163 0.53975,-1.2403 0.625,-1.9375 0.0012,-0.0102 -0.0012,-0.021 0,-0.0313 0.0044,-0.0406 0.03149,-0.0969 0.03125,-0.0937 -3.1e-4,0.004 1.7e-5,-0.16043 0,-0.15625 -1.7e-5,0.004 -2.76e-4,-0.16042 0,-0.15625 2.76e-4,0.004 -0.03182,-0.16039 -0.03125,-0.15625 5.67e-4,0.004 -0.03211,-0.12909 -0.03125,-0.125 8.56e-4,0.004 -0.03239,-0.16027 -0.03125,-0.15625 0.0011,0.004 -0.03267,-0.12893 -0.03125,-0.125 0.0014,0.004 -0.06419,-0.16007 -0.0625,-0.15625 0.0017,0.004 -0.06445,-0.12869 -0.0625,-0.125 0.002,0.004 -0.06471,-0.12855 -0.0625,-0.125 0.0022,0.003 -0.0962,-0.12838 -0.09375,-0.125 0.0025,0.003 -0.09643,-0.1282 -0.09375,-0.125 0.0027,0.003 -0.09665,-0.0968 -0.09375,-0.0937 0.0029,0.003 -0.09685,-0.0965 -0.09375,-0.0937 0.0031,0.003 -0.12829,-0.0963 -0.125,-0.0937 0.0033,0.003 -0.12846,-0.0961 -0.125,-0.0937 0.0035,0.002 -0.12862,-0.0958 -0.125,-0.0937 0.0036,0.002 -0.12876,-0.0643 -0.125,-0.0625 0.0038,0.002 -0.12888,-0.0641 -0.125,-0.0625 0.0039,0.002 -0.16022,-0.0325 -0.15625,-0.0313 0.004,10e-4 -0.12906,-0.0635 -0.125,-0.0625 0.0041,10e-4 -0.16036,-0.032 -0.15625,-0.0313 0.0041,7.2e-4 -0.1604,-4.3e-4 -0.15625,0 0.0042,4.3e-4 -0.12917,-0.0314 -0.125,-0.0313 0.0042,1.3e-4 -0.16042,1.6e-4 -0.15625,0 0.0042,-1.6e-4 -0.1604,0.0317 -0.15625,0.0313 0.0042,-4.5e-4 -0.12911,7.4e-4 -0.125,0 0.0041,-7.4e-4 -0.1603,0.0323 -0.15625,0.0313 0.004,-0.001 -0.16022,0.0638 -0.15625,0.0625 0.004,-0.001 -0.12886,0.0328 -0.125,0.0313 0.0039,-0.002 -0.12874,0.0643 -0.125,0.0625 0.003,-0.002 -0.06061,0.0447 -0.09375,0.0625 -0.0083,0.004 -0.03197,4.2e-4 -0.03125,0 -1.825,0.99128 -3.8804,1.7907 -5.5625,2.1562 -2.3173,-1.9074 -4.7071,-3.0158 -7.125,-3.25 z" />
  <path
     style="opacity:0.15;fill:#095471"
     inkscape:connector-curvature="0"
     id="path1651"
     d="m 57.35,24.11 c -1.0908,0.12136 -2.182,0.39462 -3.25,0.71875 -4.2931,1.3029 -7.912,6.5074 -7.3438,12.562 -12.206,-1.0842 -17.564,-7.5293 -21.094,-10.938 a 0.96192,0.96192 0 0 0 -1.5,0.21875 c -1.9366,3.4188 -1.9173,6.8738 -0.96875,9.6875 0.47429,1.4068 1.1634,2.6748 1.9688,3.7188 -0.40393,-0.15932 -0.88507,-0.31846 -1.125,-0.46875 a 0.96192,0.96192 0 0 0 -1.4688,0.75 c -0.21243,3.208 1.0169,5.96635 2.8125,8.00005 0.80229,0.9086 1.7538,1.6195 2.7188,2.25 -0.21083,-0.026 -0.32613,0 -0.5625,-0.031 a 0.96192,0.96192 0 0 0 -1.0625,1.2187 c 0.95409,3.1562 2.7658,5.2535 4.8125,6.5313 1.2232,0.7636 2.502,1.1755 3.75,1.4687 -3.9632,2.6044 -8.4827,3.3108 -13.562,3.0625 a 0.96192,0.96192 0 0 0 -0.5625,1.7813 c 15.953,9.7605 32.156,3.8165 40.094,-3.9375 6.5432,-6.392 9.4574,-15.784 9.6562,-24.28105 0.73564,-0.60561 1.677,-1.3912 2.625,-2.3438 1.0676,-1.0726 2.0885,-2.2292 2.5938,-3.4688 a 0.96192,0.96192 0 0 0 -1.25,-1.2812 c -0.62769,0.24147 -1.4958,0.61822 -2.4688,0.9375 0.17683,-0.19979 0.39786,-0.32238 0.5625,-0.53125 0.91264,-1.1578 1.6577,-2.3946 1.8125,-3.7188 a 0.96192,0.96192 0 0 0 -1.4375,-0.96875 c -2.021,1.1008 -4.3175,2.0457 -6.25,2.4062 -3.1295,-2.82 -6.365,-3.6925 -9.5,-3.3438 z" />
  <path
     style="opacity:0.3;fill:#095471"
     inkscape:connector-curvature="0"
     id="path1653"
     d="m 54.392,25.74 c -4.01,1.217 -7.8688,6.6324 -6.6583,12.759 -13.309,-0.80147 -19.187,-7.9334 -22.721,-11.346 -3.6023,6.3592 0.0918,12.54 3.3186,14.541 -1.7029,0.094 -3.7627,-0.64247 -4.785,-1.2828 -0.38849,5.8668 4.392,9.9336 8.459,10.988 -1.3001,0.3878 -2.5254,0.4399 -4.6199,0.1283 1.7836,5.9004 6.5755,7.4796 10.145,7.7395 -4.5953,3.9877 -10.114,4.8571 -16.114,4.5638 15.558,9.5185 31.269,3.6625 38.916,-3.8074 6.4213,-6.2728 9.2919,-15.666 9.3912,-24.07 1.4697,-1.1945 4.4415,-3.7262 5.2491,-5.7078 -1.1721,0.45091 -3.4908,1.5236 -5.9104,1.62 1.9927,-1.3057 4.2763,-3.9223 4.5155,-5.9679 -2.2064,1.2017 -4.7597,2.2429 -6.9465,2.575 -4.1225,-3.9797 -8.1368,-3.9762 -12.239,-2.7313 z" />
  <path
     style="fill:#ffffff"
     inkscape:connector-curvature="0"
     id="path1655"
     d="m 54.392,24.74 c -4.01,1.217 -7.8688,6.6324 -6.6583,12.759 -13.309,-0.80147 -19.187,-7.9334 -22.721,-11.346 -3.6023,6.3592 0.0918,12.54 3.3186,14.541 -1.7029,0.0937 -3.7627,-0.64243 -4.785,-1.2828 -0.38849,5.8668 4.392,9.9336 8.459,10.988 -1.3001,0.3878 -2.5254,0.4399 -4.6199,0.1283 1.7836,5.9004 6.5755,7.4796 10.145,7.7395 -4.5953,3.9877 -10.114,4.8571 -16.114,4.5638 15.558,9.5185 31.269,3.6625 38.916,-3.8074 6.4213,-6.2728 9.2919,-15.666 9.3912,-24.07 1.4697,-1.1945 4.4415,-3.7262 5.2491,-5.7078 -1.1721,0.45091 -3.4908,1.5236 -5.9104,1.62 1.9927,-1.3057 4.2763,-3.9223 4.5155,-5.9679 -2.2064,1.2017 -4.7597,2.2429 -6.9465,2.575 -4.1225,-3.9797 -8.1368,-3.9762 -12.239,-2.7313 z" />
  <g
     id="g14291">
    <path
       d="m 5.2922679,73.685059 0,5.0663 c 0,6.668 5.3645011,12.032 12.0320011,12.032 l 61.049,0 c 6.668,0 12.032,-5.3645 12.032,-12.032 l 0,-5.0663 c 0,6.6681 -5.3645,12.032 -12.032,12.032 l -61.049,0 c -6.668,0 -12.0320011,-5.3643 -12.0320011,-12.032 z"
       id="path64"
       inkscape:connector-curvature="0"
       style="opacity:0.4;fill:url(#linearGradient14237);fill-opacity:1" />
    <path
       inkscape:connector-curvature="0"
       id="path14214"
       d="m 5.2929688,72.717592 0,1.15039 c 0,6.667718 5.3632502,12.031248 12.0312502,12.031248 l 61.048828,0 c 6.6675,0 12.03125,-5.36313 12.03125,-12.031248 l 0,-1.15039 c 0,6.668098 -5.36375,12.031248 -12.03125,12.031248 l -61.048828,0 c -6.668,0 -12.0312502,-5.36355 -12.0312502,-12.031248 z"
       style="opacity:0.5;fill:url(#linearGradient14245);fill-opacity:1" />
  </g>
</svg>
