<?xml version="1.0" encoding="UTF-8" standalone="no"?>
<!-- Created with Inkscape (http://www.inkscape.org/) -->

<svg
   xmlns:dc="http://purl.org/dc/elements/1.1/"
   xmlns:cc="http://creativecommons.org/ns#"
   xmlns:rdf="http://www.w3.org/1999/02/22-rdf-syntax-ns#"
   xmlns:svg="http://www.w3.org/2000/svg"
   xmlns="http://www.w3.org/2000/svg"
   xmlns:xlink="http://www.w3.org/1999/xlink"
   xmlns:sodipodi="http://sodipodi.sourceforge.net/DTD/sodipodi-0.dtd"
   xmlns:inkscape="http://www.inkscape.org/namespaces/inkscape"
   id="svg2"
   height="96"
   width="96"
   version="1.1"
   inkscape:version="0.48.5 r10040"
   sodipodi:docname="unetbootin.svg"
   inkscape:export-filename="/home/winardiaris/git/Tebu/apps/96/unetbootin.png"
   inkscape:export-xdpi="90"
   inkscape:export-ydpi="90">
  <sodipodi:namedview
     pagecolor="#ffffff"
     bordercolor="#666666"
     borderopacity="1"
     objecttolerance="10"
     gridtolerance="10"
     guidetolerance="10"
     inkscape:pageopacity="0"
     inkscape:pageshadow="2"
     inkscape:window-width="1366"
     inkscape:window-height="716"
     id="namedview44589"
     showgrid="false"
     inkscape:zoom="3.4766083"
     inkscape:cx="-30.022039"
     inkscape:cy="50.071602"
     inkscape:window-x="0"
     inkscape:window-y="24"
     inkscape:window-maximized="1"
     inkscape:current-layer="svg2" />
  <defs
     id="defs4">
    <linearGradient
       id="linearGradient3794">
      <stop
         style="stop-color:#c3c3c3;stop-opacity:1;"
         offset="0"
         id="stop3796" />
      <stop
         style="stop-color:#e6e6e6;stop-opacity:1;"
         offset="1"
         id="stop3798" />
    </linearGradient>
    <clipPath
       id="clipPath-525908164">
      <g
         id="g4312"
         transform="translate(0,-1004.3622)">
        <rect
           style="fill:#1890d0"
           id="rect4314"
           width="46"
           height="46"
           x="1"
           y="1005.36"
           rx="4" />
      </g>
    </clipPath>
    <linearGradient
       inkscape:collect="always"
       xlink:href="#linearGradient4269"
       id="linearGradient4275"
       x1="23.299788"
       y1="45.980404"
       x2="65.206039"
       y2="45.980404"
       gradientUnits="userSpaceOnUse" />
    <linearGradient
       inkscape:collect="always"
       id="linearGradient4269">
      <stop
         style="stop-color:white;stop-opacity:1;"
         offset="0"
         id="stop4271" />
      <stop
         style="stop-color:white;stop-opacity:0;"
         offset="1"
         id="stop4273" />
    </linearGradient>
    <clipPath
       id="clipPath3613-1-2">
      <rect
         style="fill:white"
         id="rect3615-2-2"
         rx="6"
         ry="6"
         height="84"
         width="84"
         y="6"
         x="6" />
    </clipPath>
    <filter
       id="filter3794-68-2"
       height="1.3839999"
       width="1.3839999"
       color-interpolation-filters="sRGB"
       y="-0.192"
       x="-0.192">
      <feGaussianBlur
         id="feGaussianBlur3796-8-9"
         stdDeviation="5.28" />
    </filter>
    <linearGradient
       inkscape:collect="always"
       xlink:href="#linearGradient3794"
       id="linearGradient3800"
       x1="48.294861"
       y1="86.512016"
       x2="48.294861"
       y2="14.413314"
       gradientUnits="userSpaceOnUse" />
  </defs>
  <metadata
     id="metadata7">
    <rdf:RDF>
      <cc:Work
         rdf:about="">
        <dc:format>image/svg+xml</dc:format>
        <dc:type
           rdf:resource="http://purl.org/dc/dcmitype/StillImage" />
        <dc:title />
      </cc:Work>
    </rdf:RDF>
  </metadata>
  <rect
     style="fill-opacity:0.01960802"
     x="2.9997997"
     y="2.9899757"
     width="89.977997"
     height="89.977997"
     ry="12.724"
     id="rect5263-0" />
  <rect
     style="fill-opacity:0.03921599"
     x="3.6078"
     y="3.6000221"
     width="88.762001"
     height="88.762001"
     ry="12.552"
     id="rect5261-6" />
  <rect
     style="fill-opacity:0.07843101"
     x="4.2157001"
     y="4.2100072"
     width="87.545998"
     height="87.545998"
     ry="12.38"
     id="rect5259-9" />
  <rect
     style="fill-opacity:0.15685999"
     x="4.8237"
     y="4.8199925"
     width="86.330002"
     height="86.330002"
     ry="12.208"
     id="rect5257-5" />
  <path
     inkscape:connector-curvature="0"
     style="fill:url(#linearGradient3800);fill-opacity:1"
     d="m 17.469,5.4062 c -6.668,0 -12.032,5.3948 -12.032,12.063 l 5e-4,61.031 c 0,6.668 5.3635,12.031 12.032,12.031 h 61.03 c 6.668,0 12.031,-5.363 12.031,-12.031 v -61.031 c 0,-6.668 -5.363,-12.063 -12.031,-12.063 l -61.031,2e-4 z"
     id="rect2419" />
  <path
     style="fill-opacity:0.11764999"
     inkscape:connector-curvature="0"
     d="m 5.4316,73.44 v 5.0663 c 0,6.668 5.3645,12.032 12.032,12.032 h 61.049 c 6.668,0 12.032,-5.3645 12.032,-12.032 V 73.44 c 0,6.6681 -5.3645,12.032 -12.032,12.032 h -61.049 c -6.668,0 -12.032,-5.3643 -12.032,-12.032 z"
     id="rect5265-0" />
  <path
     style="fill-opacity:0.09803898"
     inkscape:connector-curvature="0"
     d="m 5.4316,77.54 v 1.0133 c 0,6.668 5.3645,12.032 12.032,12.032 h 61.049 c 6.668,0 12.032,-5.3645 12.032,-12.032 V 77.54 c 0,6.6681 -5.3645,12.032 -12.032,12.032 h -61.049 c -6.668,0 -12.032,-5.3644 -12.032,-12.032 z"
     id="path5252-0" />
  <rect
     style="opacity:0.2;fill:white;stroke:white;stroke-width:0.5;stroke-linecap:round;filter:url(#filter3794-68-2)"
     x="15"
     y="15"
     height="66"
     clip-path="url(#clipPath3613-1-2)"
     width="66"
     transform="translate(-7.7439832,-5.38)"
     rx="12"
     ry="12"
     id="rect3171" />
  <path
     style="opacity:0.1;color:black;fill:black;fill-opacity:0.87244897;fill-rule:nonzero;stroke:none;stroke-width:0.40000001;marker:none;visibility:visible;display:inline;overflow:visible;enable-background:accumulate"
     d="m 73.157309,31.564708 c -0.133304,0.471787 -0.377441,0.908671 -0.75,1.28125 l -10.03125,10 -7,27.65625 -10.375,-10.28125 -4.6875,4.6875 c -1.188783,1.188845 -3.154958,1.188845 -4.34375,0 l -0.28125,-0.28125 -5.875,5.875 -5.6875,-5.6875 -0.84375,0.84375 6.53125,6.5 5.875,-5.875 0.28125,0.28125 c 1.188792,1.188845 3.154967,1.188845 4.34375,0 l 4.6875,-4.65625 10.375,10.25 7,-27.65625 10.03125,-10 c 0.799952,-0.799994 1.039208,-1.919615 0.75,-2.9375 z m -48.5625,8.1875 -1.3125,0.34375 9.46875,9.5 0.8125,-0.8125 -8.96875,-9.03125 z m 3.5,16.75 c -0.217449,0.791023 -0.1223,1.628122 0.3125,2.34375 l 0.75,-0.75 -0.34375,-0.34375 c -0.362826,-0.36255 -0.582868,-0.792138 -0.71875,-1.25 z m -1.34375,6.25 -1.21875,1.1875 0.84375,0.84375 0.375,-0.375 0.5,0.5 0.8125,-0.84375 -1.3125,-1.3125 z m 2.9375,2.9375 -1.21875,1.1875 0.84375,0.84375 0.375,-0.375 0.5,0.5 0.8125,-0.84375 -1.3125,-1.3125 z"
     id="path4251"
     inkscape:connector-curvature="0" />
  <path
     inkscape:connector-curvature="0"
     id="path1728"
     d="m 65.199337,21.886954 c -1.188783,-1.189037 -3.070372,-1.189037 -4.259165,0 l -10.00904,10.008837 -27.641987,7.027685 10.264594,10.349798 -4.685084,4.68538 c -1.188791,1.188845 -1.23138,3.113266 -0.0424,4.301342 l 0.340779,0.33923 -5.877654,5.87961 6.516528,6.51634 5.877646,-5.877302 0.298142,0.293077 c 1.188792,1.188845 3.155569,1.188845 4.344352,0 L 45.011132,60.72557 55.360905,70.990561 62.388527,43.34828 72.397569,33.339251 c 1.188783,-1.188845 1.146195,-3.113267 -0.0424,-4.302112 l -7.155826,-7.150185 z m -38.460266,41.356691 1.320337,1.319999 -1.192563,1.192691 -1.320344,-1.319999 1.19257,-1.192691 z m 2.938826,2.939036 1.320337,1.319998 -1.192561,1.192692 -1.320346,-1.320768 1.19257,-1.191922 z"
     style="color:black;fill:#006680;fill-opacity:1;fill-rule:nonzero;stroke:none;stroke-width:0.40000001000000002;marker:none;visibility:visible;display:inline;overflow:visible;enable-background:accumulate" />
  <path
     style="color:black;fill:url(#linearGradient4275);fill-opacity:1;fill-rule:nonzero;stroke:none;stroke-width:0.40000001;marker:none;visibility:visible;display:inline;overflow:visible;enable-background:accumulate"
     d="m 63.081038,20.980402 c -0.767594,0 -1.561853,0.311732 -2.15625,0.90625 l -10,10 -27.625,7.03125 10.25,10.34375 -4.6875,4.6875 c -1.188791,1.188845 -1.22023,3.124424 -0.03125,4.3125 l 0.34375,0.34375 -5.875,5.875 6.5,6.5 0.0625,-0.09375 -5.96875,-5.96875 5.875,-5.875 -0.34375,-0.34375 c -1.18898,-1.188076 -1.126291,-3.123655 0.0625,-4.3125 l 4.6875,-4.6875 -10.28125,-10.34375 27.65625,-7.03125 10,-10 c 1.005655,-1.005861 2.497847,-1.133447 3.65625,-0.4375 -0.594392,-0.594518 -1.357406,-0.90625 -2.125,-0.90625 z m -17.46875,40.1875 -0.0625,0.0625 9.8125,9.75 0.03125,-0.125 -9.78125,-9.6875 z m -18.25,2.53125 -0.09375,0.09375 0.78125,0.78125 -1.09375,1.09375 0.53125,0.53125 1.1875,-1.1875 -1.3125,-1.3125 z m 8.9375,1.875 -0.0625,0.0625 c 0.109489,0.08703 0.225539,0.148876 0.34375,0.21875 l -0.28125,-0.28125 z m -6,1.0625 -0.09375,0.09375 0.78125,0.78125 -1.09375,1.09375 0.53125,0.53125 1.1875,-1.1875 -1.3125,-1.3125 z"
     id="path4264"
     inkscape:connector-curvature="0" />
  <path
     inkscape:connector-curvature="0"
     id="path4293"
     d="m 73.157309,32.276573 c -0.133304,0.471787 -0.377441,0.908671 -0.75,1.28125 l -10.03125,10 -7,27.65625 -10.375,-10.28125 -4.6875,4.6875 c -1.188783,1.188845 -3.154958,1.188845 -4.34375,0 l -0.28125,-0.28125 -5.875,5.875 -5.6875,-5.6875 -0.84375,0.84375 6.53125,6.5 5.875,-5.875 0.28125,0.28125 c 1.188792,1.188845 3.154967,1.188845 4.34375,0 l 4.6875,-4.65625 10.375,10.25 7,-27.65625 10.03125,-10 c 0.799952,-0.799994 1.039208,-1.919615 0.75,-2.9375 z m -48.5625,8.1875 -1.3125,0.34375 9.46875,9.5 0.8125,-0.8125 -8.96875,-9.03125 z m 3.5,16.75 c -0.217449,0.791023 -0.1223,1.628122 0.3125,2.34375 l 0.75,-0.75 -0.34375,-0.34375 c -0.362826,-0.36255 -0.582868,-0.792138 -0.71875,-1.25 z m -1.34375,6.25 -1.21875,1.1875 0.84375,0.84375 0.375,-0.375 0.5,0.5 0.8125,-0.84375 -1.3125,-1.3125 z m 2.9375,2.9375 -1.21875,1.1875 0.84375,0.84375 0.375,-0.375 0.5,0.5 0.8125,-0.84375 -1.3125,-1.3125 z"
     style="opacity:0.1;color:black;fill:black;fill-opacity:0.87244897;fill-rule:nonzero;stroke:none;stroke-width:0.40000001;marker:none;visibility:visible;display:inline;overflow:visible;enable-background:accumulate" />
  <path
     style="opacity:0.1;color:black;fill:black;fill-opacity:0.87244897;fill-rule:nonzero;stroke:none;stroke-width:0.40000001;marker:none;visibility:visible;display:inline;overflow:visible;enable-background:accumulate"
     d="m 73.157309,33.090133 c -0.133304,0.471787 -0.377441,0.908671 -0.75,1.28125 l -10.03125,10 -7,27.65625 -10.375,-10.28125 -4.6875,4.6875 c -1.188783,1.188845 -3.154958,1.188845 -4.34375,0 l -0.28125,-0.28125 -5.875,5.875 -5.6875,-5.6875 -0.84375,0.84375 6.53125,6.5 5.875,-5.875 0.28125,0.28125 c 1.188792,1.188845 3.154967,1.188845 4.34375,0 l 4.6875,-4.65625 10.375,10.25 7,-27.65625 10.03125,-10 c 0.799952,-0.799994 1.039208,-1.919615 0.75,-2.9375 z m -48.5625,8.1875 -1.3125,0.34375 9.46875,9.5 0.8125,-0.8125 -8.96875,-9.03125 z m 3.5,16.75 c -0.217449,0.791023 -0.1223,1.628122 0.3125,2.34375 l 0.75,-0.75 -0.34375,-0.34375 c -0.362826,-0.36255 -0.582868,-0.792138 -0.71875,-1.25 z m -1.34375,6.25 -1.21875,1.1875 0.84375,0.84375 0.375,-0.375 0.5,0.5 0.8125,-0.84375 -1.3125,-1.3125 z m 2.9375,2.9375 -1.21875,1.1875 0.84375,0.84375 0.375,-0.375 0.5,0.5 0.8125,-0.84375 -1.3125,-1.3125 z"
     id="path4295"
     inkscape:connector-curvature="0" />
  <g
     transform="matrix(0.70710678,0.70710678,-0.70710678,0.70710678,49.047913,12.674609)"
     id="g4407"
     style="opacity:0.1;fill:black">
    <g
       id="g4409"
       clip-path="url(#clipPath-525908164)"
       style="fill:black">
      <g
         id="g4411"
         transform="translate(0,-1)"
         style="fill:black">
        <!-- color: #357ee2 -->
        <g
           id="g4413"
           style="fill:black">
          <path
             id="path4415"
             d="m 24,11 c -1.461,0 -2.777,1.125 -2.777,2.516 0,1.094 0.75,2.141 1.777,2.48 l 0,4 -4.234,3.473 c -0.223,0.152 -0.418,0.418 -0.418,0.68 l 0,1.844 -1.352,0 0,4 4,0 0,-4 -0.996,0 0,-1.414 3,-2.586 0,10 -2,0 3,5 3,-5 -2,0 0,-12.508 3,2.508 0,1.781 c -0.777,0.324 -1.406,1.055 -1.406,1.91 0,1.16 0.988,2.098 2.203,2.098 1.215,0 2.199,-0.938 2.199,-2.098 0,-0.855 -0.547,-1.586 -1.32,-1.91 l 0,-2.285 C 29.68,21.243 29.559,20.993 29.36,20.837 l -4.363,-3.543 0,-1.301 c 1.027,-0.344 1.512,-1.391 1.512,-2.484 0,-1.391 -1.051,-2.516 -2.508,-2.516 m -0.008,0.004"
             inkscape:connector-curvature="0"
             style="fill:black;fill-opacity:1;fill-rule:nonzero;stroke:none" />
        </g>
      </g>
    </g>
  </g>
  <g
     style="opacity:0.1;fill:black"
     id="g4417"
     transform="matrix(0.70710678,0.70710678,-0.70710678,0.70710678,49.047913,13.081389)">
    <g
       style="fill:black"
       clip-path="url(#clipPath-525908164)"
       id="g4419">
      <g
         style="fill:black"
         transform="translate(0,-1)"
         id="g4421">
        <!-- color: #357ee2 -->
        <g
           style="fill:black"
           id="g4423">
          <path
             style="fill:black;fill-opacity:1;fill-rule:nonzero;stroke:none"
             inkscape:connector-curvature="0"
             d="m 24,11 c -1.461,0 -2.777,1.125 -2.777,2.516 0,1.094 0.75,2.141 1.777,2.48 l 0,4 -4.234,3.473 c -0.223,0.152 -0.418,0.418 -0.418,0.68 l 0,1.844 -1.352,0 0,4 4,0 0,-4 -0.996,0 0,-1.414 3,-2.586 0,10 -2,0 3,5 3,-5 -2,0 0,-12.508 3,2.508 0,1.781 c -0.777,0.324 -1.406,1.055 -1.406,1.91 0,1.16 0.988,2.098 2.203,2.098 1.215,0 2.199,-0.938 2.199,-2.098 0,-0.855 -0.547,-1.586 -1.32,-1.91 l 0,-2.285 C 29.68,21.243 29.559,20.993 29.36,20.837 l -4.363,-3.543 0,-1.301 c 1.027,-0.344 1.512,-1.391 1.512,-2.484 0,-1.391 -1.051,-2.516 -2.508,-2.516 m -0.008,0.004"
             id="path4425" />
        </g>
      </g>
    </g>
  </g>
  <g
     id="g4338"
     transform="matrix(0.70710678,0.70710678,-0.70710678,0.70710678,49.047913,11.793254)"
     style="fill:#ececec">
    <g
       clip-path="url(#clipPath-525908164)"
       id="g4340"
       style="fill:#ececec">
      <g
         transform="translate(0,-1)"
         id="g4342"
         style="fill:#ececec">
        <!-- color: #357ee2 -->
        <g
           id="g4344"
           style="fill:#ececec">
          <path
             style="fill:#ececec;fill-opacity:1;fill-rule:nonzero;stroke:none"
             inkscape:connector-curvature="0"
             d="m 24,11 c -1.461,0 -2.777,1.125 -2.777,2.516 0,1.094 0.75,2.141 1.777,2.48 l 0,4 -4.234,3.473 c -0.223,0.152 -0.418,0.418 -0.418,0.68 l 0,1.844 -1.352,0 0,4 4,0 0,-4 -0.996,0 0,-1.414 3,-2.586 0,10 -2,0 3,5 3,-5 -2,0 0,-12.508 3,2.508 0,1.781 c -0.777,0.324 -1.406,1.055 -1.406,1.91 0,1.16 0.988,2.098 2.203,2.098 1.215,0 2.199,-0.938 2.199,-2.098 0,-0.855 -0.547,-1.586 -1.32,-1.91 l 0,-2.285 C 29.68,21.243 29.559,20.993 29.36,20.837 l -4.363,-3.543 0,-1.301 c 1.027,-0.344 1.512,-1.391 1.512,-2.484 0,-1.391 -1.051,-2.516 -2.508,-2.516 m -0.008,0.004"
             id="path4346" />
        </g>
      </g>
    </g>
  </g>
</svg>
