<svg height="96" width="96" xmlns="http://www.w3.org/2000/svg" xmlns:xlink="http://www.w3.org/1999/xlink" xmlns:sodipodi="http://sodipodi.sourceforge.net/DTD/sodipodi-0.dtd" xmlns:inkscape="http://www.inkscape.org/namespaces/inkscape">
 <defs>
  <filter x="-0.192" y="-0.192" height="1.384" color-interpolation-filters="sRGB" id="filter3794-787" width="1.384">
   <feGaussianBlur stdDeviation="5.28"/>
  </filter>
  <clipPath id="clipPath3613-59">
   <use xlink:href="#SVGCleanerId_0"/>
  </clipPath>
  <linearGradient id="linearGradient3737-94">
   <stop stop-color="#fff"/>
   <stop stop-color="#fff" stop-opacity="0" offset="1"/>
  </linearGradient>
  <linearGradient x2="0" y1="90" y2="5.988" gradientUnits="userSpaceOnUse" id="linearGradient36162" gradientTransform="matrix(1.0233 0 0 1.0372 38.9 954.82)">
   <stop stop-color="#dcdcdc"/>
   <stop stop-color="#f0f0f0" offset="1"/>
  </linearGradient>
  <radialGradient cy="90.17" r="42" xlink:href="#linearGradient3737-94" gradientUnits="userSpaceOnUse" id="radialGradient36164" cx="48" gradientTransform="matrix(1.1842 0 0 1.033 31.17 955.02)"/>
  <linearGradient x2="0" y1="6.806" y2="36.613" gradientUnits="userSpaceOnUse" id="linearGradient36166" gradientTransform="matrix(1.0233 0 0 1.0372 38.9 954.82)">
   <stop stop-color="#aec6e9"/>
   <stop stop-color="#aac3e8" stop-opacity="0" offset="1"/>
  </linearGradient>
  <linearGradient x2="0" xlink:href="#linearGradient3737-94" y1="6" y2="63.893" gradientUnits="userSpaceOnUse" id="linearGradient36168" gradientTransform="matrix(1.0233 0 0 1.0372 38.9 954.82)"/>
  <linearGradient x2="0" xlink:href="#linearGradient3737-94" y1="20.221" y2="138.66" gradientUnits="userSpaceOnUse" id="linearGradient36170"/>
  <radialGradient cy="55.726" r="14" gradientUnits="userSpaceOnUse" id="radialGradient36172" cx="40.637" gradientTransform="matrix(0 -2.5552 3.3963 0 -108.78 1119.5)">
   <stop/>
   <stop stop-opacity="0" offset="1"/>
  </radialGradient>
  <linearGradient x2="0" y1="55.89" y2="28.22" gradientUnits="userSpaceOnUse" id="linearGradient36174" gradientTransform="matrix(1.0233 0 0 1.0372 38.9 -1041.9)">
   <stop stop-color="#98b5e3"/>
   <stop stop-color="#bed1ed" offset="1"/>
  </linearGradient>
  <linearGradient x2="0" xlink:href="#linearGradient3737-94" y1="25.706" y2="42.885" gradientUnits="userSpaceOnUse" id="linearGradient36176" gradientTransform="matrix(1.0233 0 0 1.0372 38.9 954.82)"/>
  <clipPath clipPathUnits="userSpaceOnUse" id="clipPath36178">
   <path d="m57.75 961.77c-6.6418 0-11.969 5.3946-11.969 12.062v61.031c0 6.668 5.327 12.031 11.969 12.031h60.812c6.6418 0 11.969-5.3633 11.969-12.031v-61.031c0-6.6679-5.327-12.062-11.969-12.062h-60.812z"/>
  </clipPath>
  <rect x="6" rx="6" y="6" height="84" id="SVGCleanerId_0" width="84"/>
 </defs>
 <g transform="matrix(1 0 0 1 0 -956.36)">
  <rect x="3.353" rx="12.724" y="959.35" fill-opacity="0.02" height="89.98" width="89.62"/>
  <rect x="3.959" rx="12.552" y="959.96" fill-opacity="0.039" height="88.76" width="88.41"/>
  <rect x="4.564" rx="12.38" y="960.57" fill-opacity="0.078" height="87.55" width="87.2"/>
  <rect x="5.17" rx="12.208" y="961.18" fill-opacity="0.157" height="86.33" width="85.991"/>
  <g clip-path="url(#clipPath36178)" transform="matrix(1 0 0 1 -40 0)">
   <path d="m51.179 961.04c-3.4013 0-6.1395 2.7755-6.1395 6.2232v74.678c0 3.4477 2.7382 6.2232 6.1395 6.2232h73.674c3.4013 0 6.1395-2.7755 6.1395-6.2232v-74.678c0-3.4476-2.7382-6.2232-6.1395-6.2232h-14.326v2.6578c1.2216 0.71783 2.0465 2.0312 2.0465 3.5654 0 2.2913-1.8325 4.1488-4.093 4.1488s-4.093-1.8575-4.093-4.1488c0-1.5342 0.82496-2.8475 2.0465-3.5654v-2.6578h-36.837v2.6578c1.2215 0.71783 2.0465 2.0312 2.0465 3.5654 0 2.2913-1.8325 4.1488-4.093 4.1488s-4.093-1.8575-4.093-4.1488c0-1.5342 0.82496-2.8475 2.0465-3.5654v-2.6578h-14.326z" fill="url(#linearGradient36162)"/>
   <path d="m51.179 1048.2c-3.4013 0-6.1395-2.7755-6.1395-6.2232v-2.0744-70.529-2.0744c0-0.34717 0.04225-0.6749 0.09588-1.0048 0.04982-0.30661 0.09926-0.61913 0.19186-0.90755 0.01022-0.0316 0.02138-0.0659 0.03202-0.0972 0.1012-0.29848 0.24034-0.56782 0.38372-0.84273 0.14795-0.28367 0.32296-0.55552 0.51163-0.8103 0.18867-0.25477 0.38247-0.49109 0.60756-0.71308 0.45018-0.44399 0.96484-0.84483 1.5349-1.1344 0.28503-0.14481 0.5868-0.25614 0.89534-0.35655-0.26215 0.10392-0.49802 0.24506-0.73546 0.38896-0.0071 0.004-0.02446-0.005-0.03204 0-0.03264 0.02-0.06375 0.0441-0.09588 0.0648-0.1232 0.0796-0.23639 0.16959-0.35174 0.25929-0.10864 0.0838-0.21824 0.16711-0.31977 0.25931-0.18207 0.16743-0.35554 0.35824-0.51163 0.551-0.11009 0.13511-0.22347 0.27514-0.31976 0.42137-0.02569 0.0398-0.0394 0.0891-0.06396 0.12965-0.06631 0.10684-0.13326 0.21213-0.19186 0.32411-0.10336 0.20197-0.21046 0.43119-0.28779 0.64826-0.0082 0.0226-0.02415 0.042-0.03203 0.0649-0.03255 0.0954-0.03663 0.19378-0.06394 0.2917-0.031 0.11056-0.07204 0.21059-0.09588 0.32414-0.0746 0.3542-0.12791 0.72417-0.12791 1.102v2.0744 70.529 2.0744c0 2.8853 2.2697 5.1861 5.1163 5.1861h2.0465 69.581 2.0465c2.8465 0 5.1163-2.3008 5.1163-5.1861v-2.0744-70.529-2.0744c0-0.37785-0.0533-0.74782-0.12791-1.102-0.0452-0.2146-0.0905-0.41246-0.15988-0.61584-0.008-0.023-0.0238-0.0422-0.032-0.0649-0.0641-0.1802-0.1416-0.38113-0.22384-0.55101-0.0426-0.0858-0.0808-0.17627-0.1279-0.25931-0.0559-0.10089-0.12972-0.19535-0.19186-0.2917-0.0963-0.14623-0.20969-0.28626-0.31977-0.42137-0.1465-0.18094-0.31019-0.35991-0.47965-0.51859-0.0114-0.0108-0.0205-0.022-0.032-0.0325-0.14161-0.13023-0.29172-0.24317-0.44767-0.35654-0.10496-0.076-0.20907-0.15907-0.31977-0.2269-0.007-0.005-0.0244 0.004-0.032 0-0.23744-0.14388-0.4733-0.28499-0.73546-0.38895 0.30854 0.10046 0.61032 0.21175 0.89534 0.35655 0.57005 0.28961 1.0847 0.69045 1.5349 1.1344 0.22509 0.22198 0.41889 0.4583 0.60756 0.71307s0.36367 0.52662 0.51162 0.81032c0.14338 0.27489 0.28257 0.54423 0.38372 0.84272 0.0105 0.0318 0.0218 0.0652 0.032 0.0972 0.0926 0.28844 0.14203 0.60097 0.19186 0.90756 0.0536 0.32988 0.0959 0.65761 0.0959 1.0048v2.0744 70.529 2.0744c0 3.4478-2.7382 6.2233-6.1395 6.2233h-73.674z" fill="url(#radialGradient36164)" opacity="0.3"/>
   <path d="m51.179 961.04c-3.4013 0-6.1395 2.7755-6.1395 6.2232v25.833h85.953v-25.833c0-3.4476-2.7382-6.2232-6.1395-6.2232h-14.326v2.6578c1.2216 0.71783 2.0465 2.0312 2.0465 3.5654 0 2.2913-1.8325 4.1488-4.093 4.1488s-4.093-1.8575-4.093-4.1488c0-1.5342 0.82496-2.8475 2.0465-3.5654v-2.6578h-36.837v2.6578c1.2215 0.71783 2.0465 2.0312 2.0465 3.5654 0 2.2913-1.8325 4.1488-4.093 4.1488s-4.093-1.8575-4.093-4.1488c0-1.5342 0.82496-2.8475 2.0465-3.5654v-2.6578h-14.326z" fill="url(#linearGradient36166)"/>
   <path d="m51.179 961.04c-3.4013 0-6.1395 2.7755-6.1395 6.2232v2.0744 70.529 2.0744c0 0.3473 0.04225 0.6749 0.09588 1.0048 0.04982 0.3067 0.09926 0.6192 0.19186 0.9076 0.01022 0.03 0.02138 0.067 0.03202 0.096 0.1012 0.2986 0.24034 0.568 0.38372 0.843 0.14795 0.2836 0.32296 0.5554 0.51163 0.8101s0.38247 0.4912 0.60756 0.7132c0.45018 0.4439 0.96484 0.8449 1.5349 1.1344 0.28503 0.1449 0.5868 0.2562 0.89534 0.3565-0.26215-0.1039-0.49802-0.2451-0.73546-0.3889h-0.03204c-0.03264-0.018-0.06375-0.043-0.09588-0.066-0.1232-0.08-0.23639-0.1695-0.35174-0.2592-0.10864-0.083-0.21824-0.1672-0.31977-0.2594-0.18207-0.1675-0.35554-0.3583-0.51163-0.5509-0.11009-0.1352-0.22347-0.2753-0.31976-0.4214-0.02569-0.04-0.0394-0.09-0.06396-0.1297-0.06631-0.1061-0.13326-0.2122-0.19186-0.3242-0.10336-0.2019-0.21045-0.4312-0.28779-0.6482-0.0082-0.023-0.02415-0.042-0.03203-0.066-0.03255-0.095-0.03663-0.1939-0.06394-0.2919-0.031-0.1108-0.07204-0.2105-0.09588-0.3241-0.0746-0.3543-0.12791-0.7243-0.12791-1.1021v-2.0744-70.529-2.0744c0-2.8853 2.2697-5.186 5.1163-5.186h2.0465 12.279v-2.0744h-14.326zm18.419 0v2.0744h36.837v-2.0744h-36.837zm40.93 0v2.0744h12.279 2.0465c2.8465 0 5.1163 2.3007 5.1163 5.186v2.0744 70.529 2.0744c0 0.3779-0.0533 0.7478-0.12791 1.102-0.0452 0.2144-0.0905 0.4124-0.15988 0.6157-0.008 0.023-0.0238 0.042-0.032 0.066-0.0641 0.1802-0.1416 0.3812-0.22384 0.5511-0.0426 0.087-0.0808 0.1764-0.12791 0.2594-0.0559 0.1007-0.12971 0.1953-0.19186 0.2915-0.0963 0.1464-0.20968 0.2864-0.31976 0.4214-0.1465 0.1809-0.31019 0.36-0.47965 0.5188-0.0114 0.012-0.0205 0.022-0.032 0.031-0.14161 0.1302-0.29172 0.243-0.44767 0.3566-0.10496 0.076-0.20908 0.159-0.31977 0.2266h-0.032c-0.23744 0.144-0.47331 0.2852-0.73546 0.3891 0.30854-0.1007 0.61031-0.2116 0.89534-0.3565 0.57005-0.2896 1.0847-0.6905 1.5349-1.1345 0.22509-0.2221 0.41889-0.4584 0.60756-0.7131 0.18866-0.2547 0.36367-0.5265 0.51162-0.8102 0.14338-0.2749 0.28256-0.5443 0.38372-0.8428 0.0105-0.031 0.0218-0.066 0.032-0.096 0.0926-0.2883 0.14203-0.6009 0.19186-0.9074 0.0536-0.33 0.0959-0.6575 0.0959-1.0049v-2.0744-70.529-2.0744c0-3.4476-2.7382-6.2232-6.1395-6.2232h-14.326z" fill="url(#linearGradient36168)" opacity="0.5"/>
   <path d="m63.49 967.69c-0.03071 0.20363-0.03204 0.40271-0.03204 0.61585 0 2.2913 1.8325 4.1488 4.093 4.1488s4.093-1.8575 4.093-4.1488c0-0.21314-0.001-0.41222-0.03204-0.61585-0.20876 2.0929-1.9412 3.7274-4.061 3.7274s-3.8523-1.6345-4.061-3.7274zm40.93 0c-0.0307 0.20363-0.032 0.40271-0.032 0.61585 0 2.2913 1.8325 4.1488 4.093 4.1488s4.093-1.8575 4.093-4.1488c0-0.21314-0.001-0.41222-0.032-0.61585-0.20876 2.0929-1.9412 3.7274-4.061 3.7274s-3.8523-1.6345-4.061-3.7274z" fill="#fff" opacity="0.3"/>
   <rect x="15" stroke-width="0.5" rx="12" y="15" clip-path="url(#clipPath3613-59)" fill="url(#linearGradient36170)" stroke="#fff" height="66" filter="url(#filter3794-787)" opacity="0.6" stroke-linecap="round" width="66" transform="matrix(1.0233 0 0 1.0372 38.9 954.82)"/>
   <rect x="52.2" rx="0.955" ry="0.98" y="980.75" fill="url(#radialGradient36172)" height="35.27" opacity="0.2" width="28.651"/>
   <rect x="53.23" y="981.79" fill="#fff" height="33.19" width="26.605"/>
   <rect x="55.27" y="-1012.9" fill="url(#linearGradient36174)" height="29.04" width="22.512" transform="matrix(1 0 0 -1 0 0)"/>
   <path d="m66.528 986.55c-2.3987 0-4.3433 1.8236-4.3433 4.073 0.0062 0.2578 0.0092 0.55213 0.03622 0.87278-0.37963 0.20335-0.4291 0.99849-0.09046 1.8001 0.13057 0.30912 0.30866 0.56028 0.48862 0.7637 0.0062 0.008 0.01206 0.0118 0.01812 0.0182 0.04298 0.21179 0.0747 0.37932 0.12668 0.61822 0.16094 0.48509 0.82596 1.3975 1.4116 2.1819 0.05843 0.60512 0.06324 1.2028-0.05434 1.8911-1.6856 1.405-5.9966 2.0365-5.9901 3.4911l-0.57911 3.7821c0 0.7747 1.1521 1.4844 2.986 1.9638l0.25336 1.0362a0.6307 0.6337 0 0 0 0.39814 0.4183c0.08136 0.03 0.13884 0.099 0.36193 0.1637 1.1752 0.3427 2.9646 0.5818 4.9767 0.5818s3.8196-0.2391 4.9948-0.5818c0.2231-0.066 0.28054-0.1321 0.36194-0.1637a0.6307 0.6337 0 0 0 0.38004 -0.4l0.30765-1.0909c1.7891-0.4788 2.9317-1.1635 2.9317-1.9274l-0.57911-3.7822c-0.0071-1.245-4.3433-2.0364-6.0082-3.491-0.06743-0.55727-0.07049-1.1059-0.03622-1.6547 0.53244-0.8252 1.2334-1.8813 1.4116-2.4183 0.06548-0.27812 0.09394-0.47032 0.14477-0.70915 0.15723-0.19307 0.30017-0.41618 0.41624-0.69095 0.32156-0.76124 0.29154-1.4984-0.03622-1.7456 0.02293-0.33077 0.04471-0.64462 0.05424-0.92733 0.000009-2.2494-1.9445-4.073-4.3433-4.073z" fill="#4d74ad"/>
   <path d="m55.272 983.86v29.042h22.512v-29.042h-1.0233v28.004h-20.465v-28.004h-1.0233z" fill="#a3bee6"/>
   <g fill="#333" transform="matrix(1.0233 0 0 1.0372 38.705 955.18)">
    <path d="m50.41 29.604v-1.4746h-1.499v1.4746h-0.72022v-3.4399h0.72022v1.3696h1.499v-1.3696h0.72022v3.4399h-0.72022"/>
    <path d="m55.148 27.868c-0.000003 0.26856-0.03988 0.5127-0.11963 0.73242-0.07976 0.21973-0.1945 0.40772-0.34424 0.56396-0.14974 0.15625-0.33285 0.27669-0.54932 0.36133-0.21485 0.08464-0.45817 0.12695-0.72998 0.12695-0.28809 0-0.54037-0.04394-0.75684-0.13184-0.21484-0.08952-0.39469-0.21322-0.53955-0.37109-0.14486-0.1595-0.25391-0.34831-0.32715-0.56641-0.07161-0.2181-0.10742-0.45654-0.10742-0.71533 0-0.26855 0.03744-0.51106 0.1123-0.72754 0.0765-0.21647 0.18799-0.40039 0.33447-0.55176 0.14811-0.15299 0.32959-0.27018 0.54443-0.35156 0.21647-0.08301 0.46468-0.12451 0.74463-0.12451 0.27995 0.000004 0.52734 0.04151 0.74219 0.12451 0.21647 0.08301 0.39795 0.20101 0.54443 0.354 0.14811 0.153 0.26041 0.33773 0.33691 0.5542 0.07649 0.21485 0.11474 0.45573 0.11475 0.72266m-0.73486 0c-0.000003-0.18066-0.02197-0.34342-0.06592-0.48828-0.04232-0.14648-0.1058-0.27181-0.19043-0.37598-0.08464-0.10416-0.18962-0.18392-0.31494-0.23926-0.1237-0.05696-0.26774-0.08545-0.43213-0.08545-0.16764 0.000003-0.31494 0.02849-0.44189 0.08545-0.12533 0.05534-0.23031 0.13509-0.31494 0.23926-0.08464 0.10417-0.14811 0.2295-0.19043 0.37598-0.04232 0.14486-0.06348 0.30762-0.06348 0.48828-0.000001 0.17904 0.02116 0.34343 0.06348 0.49316 0.04394 0.14811 0.10823 0.27588 0.19287 0.3833 0.08463 0.10742 0.18961 0.19124 0.31494 0.25146 0.12532 0.06022 0.27018 0.09033 0.43457 0.09033 0.17578 0 0.32715-0.03011 0.4541-0.09033 0.12695-0.06185 0.23112-0.14648 0.3125-0.25391 0.08301-0.10905 0.14404-0.23763 0.1831-0.38574 0.03906-0.14974 0.05859-0.3125 0.05859-0.48828"/>
    <path d="m55.69 29.604v-3.4399h0.72022v2.8833h1.8457v0.55664h-2.5659"/>
    <path d="m61.604 29.604v-2.085c-0.000004-0.08301 0.00081-0.16846 0.0024-0.25635 0.0033-0.08789 0.0065-0.16845 0.0098-0.2417 0.0049-0.08626 0.0089-0.17008 0.01221-0.25146-0.03418 0.12858-0.06674 0.25065-0.09766 0.36621-0.01302 0.04883-0.02686 0.09929-0.0415 0.15137-0.01465 0.05209-0.0293 0.10254-0.04395 0.15137-0.01302 0.04883-0.02604 0.0944-0.03906 0.13672s-0.02442 0.07894-0.03418 0.10986l-0.62012 1.9189h-0.5127l-0.62012-1.9189c-0.0098-0.03092-0.02116-0.06754-0.03418-0.10986-0.0114-0.04231-0.02442-0.08789-0.03906-0.13672-0.01302-0.04883-0.02686-0.09928-0.0415-0.15137-0.01465-0.05208-0.0293-0.10254-0.04395-0.15137-0.03255-0.11556-0.06673-0.23763-0.10254-0.36621 0.0049 0.0944 0.0098 0.18718 0.01465 0.27832 0.0033 0.07813 0.0065 0.16032 0.0098 0.24658s0.0049 0.16114 0.0049 0.22461v2.085h-0.63965v-3.4399h0.96436l0.61523 1.9238c0.01627 0.05046 0.03336 0.11231 0.05127 0.18555 0.01953 0.07324 0.03825 0.14404 0.05615 0.2124 0.01953 0.07975 0.04069 0.16276 0.06348 0.24902 0.02278-0.08463 0.04476-0.16601 0.06592-0.24414 0.0098-0.03418 0.01953-0.06917 0.0293-0.10498 0.0098-0.03581 0.01953-0.0708 0.0293-0.10498 0.0098-0.03418 0.01953-0.06673 0.0293-0.09766 0.0098-0.03092 0.01872-0.05859 0.02686-0.08301l0.60547-1.936h0.95947v3.4399h-0.63965"/>
    <path d="m62.917 29.604v-3.4399h2.7051v0.55664h-1.9849v0.86426h1.8359v0.55664h-1.8359v0.90576h2.085v0.55664h-2.8052"/>
    <path d="m69.062 28.613c-0.000003 0.15625-0.02849 0.29867-0.08545 0.42725-0.05697 0.12695-0.14567 0.236-0.26611 0.32715-0.11882 0.09115-0.27181 0.16195-0.45898 0.2124-0.18555 0.04883-0.4069 0.07324-0.66406 0.07324-0.22787 0-0.42888-0.02034-0.60303-0.06104-0.17416-0.04069-0.32389-0.10091-0.44922-0.18066-0.1237-0.07975-0.22461-0.17822-0.30273-0.29541-0.0765-0.11882-0.13184-0.25472-0.16602-0.40772l0.6958-0.11475c0.01953 0.0765 0.04801 0.14648 0.08545 0.20996 0.03743 0.06348 0.0887 0.11882 0.15381 0.16602 0.06673 0.04557 0.14892 0.08138 0.24658 0.10742 0.09928 0.02442 0.21891 0.03662 0.35889 0.03662 0.24414 0.000001 0.4305-0.03662 0.55908-0.10986 0.13021-0.07487 0.19531-0.19124 0.19531-0.34912-0.000002-0.0944-0.02604-0.17171-0.07813-0.23193s-0.12126-0.10986-0.20752-0.14892-0.18555-0.07161-0.29785-0.09766c-0.11231-0.02604-0.22949-0.05127-0.35156-0.07568-0.09766-0.02279-0.19531-0.04639-0.29297-0.0708s-0.19124-0.05371-0.28076-0.08789c-0.08789-0.03418-0.17008-0.07487-0.24658-0.12207s-0.14323-0.10498-0.2002-0.17334c-0.05534-0.06998-0.09928-0.15136-0.13184-0.24414-0.03092-0.09277-0.04639-0.20182-0.04639-0.32715 0-0.1709 0.03418-0.31738 0.10254-0.43945s0.16276-0.22135 0.2832-0.29785c0.12207-0.07812 0.26693-0.13509 0.43457-0.1709 0.16764-0.0358 0.35075-0.05371 0.54932-0.05371 0.22461 0.000004 0.41666 0.01791 0.57617 0.05371 0.16113 0.03418 0.29541 0.08708 0.40283 0.15869 0.10905 0.07162 0.1945 0.16195 0.25635 0.271 0.06347 0.10742 0.10986 0.23356 0.13916 0.37842l-0.69824 0.09521c-0.03581-0.14811-0.10905-0.2596-0.21973-0.33447-0.10905-0.07487-0.26612-0.1123-0.47119-0.1123-0.12696 0.000003-0.23275 0.0114-0.31738 0.03418-0.08301 0.02116-0.14974 0.05046-0.2002 0.08789-0.04883 0.03744-0.08382 0.08138-0.10498 0.13184-0.02116 0.04883-0.03174 0.10091-0.03174 0.15625-0.000001 0.08464 0.02034 0.15462 0.06104 0.20996 0.04069 0.05371 0.09765 0.09929 0.1709 0.13672 0.07324 0.03581 0.16032 0.06673 0.26123 0.09277 0.10254 0.02442 0.21484 0.04964 0.33691 0.07568 0.10742 0.02279 0.21403 0.0472 0.31982 0.07324 0.10579 0.02442 0.2067 0.05371 0.30273 0.08789s0.18554 0.07569 0.26856 0.12451c0.08301 0.04883 0.15462 0.10905 0.21484 0.18066 0.06185 0.06999 0.10986 0.15381 0.14404 0.25146 0.0358 0.09766 0.05371 0.21322 0.05371 0.34668"/>
   </g>
   <g fill="#333" transform="matrix(1.0233 0 0 1.0372 38.9 955.18)">
    <path d="m50.996 34.613c-0.000003 0.15625-0.02849 0.29867-0.08545 0.42725-0.05697 0.12695-0.14567 0.236-0.26611 0.32715-0.11882 0.09115-0.27181 0.16195-0.45898 0.2124-0.18555 0.04883-0.4069 0.07324-0.66406 0.07324-0.22787 0-0.42888-0.02035-0.60303-0.06104-0.17416-0.04069-0.32389-0.10091-0.44922-0.18066-0.1237-0.07975-0.22461-0.17822-0.30273-0.29541-0.076-0.119-0.132-0.255-0.166-0.408l0.6958-0.11475c0.01953 0.0765 0.04801 0.14648 0.08545 0.20996 0.03743 0.06348 0.0887 0.11882 0.15381 0.16602 0.06673 0.04557 0.14892 0.08138 0.24658 0.10742 0.09928 0.02441 0.21891 0.03662 0.35889 0.03662 0.24414 0.000001 0.4305-0.03662 0.55908-0.10986 0.13021-0.07487 0.19531-0.19124 0.19531-0.34912-0.000003-0.0944-0.02604-0.17171-0.07813-0.23193s-0.12126-0.10986-0.20752-0.14892-0.18555-0.07161-0.29785-0.09766c-0.11231-0.02604-0.22949-0.05127-0.35156-0.07568-0.09766-0.02278-0.19531-0.04639-0.29297-0.0708s-0.19124-0.05371-0.28076-0.08789c-0.08789-0.03418-0.17009-0.07487-0.24658-0.12207-0.0765-0.0472-0.14323-0.10498-0.2002-0.17334-0.05534-0.06999-0.09928-0.15136-0.13184-0.24414-0.03093-0.09277-0.04639-0.20182-0.04639-0.32715 0-0.1709 0.03418-0.31738 0.10254-0.43945s0.16276-0.22135 0.2832-0.29785c0.12207-0.07812 0.26693-0.13509 0.43457-0.1709 0.16764-0.0358 0.35075-0.05371 0.54932-0.05371 0.22461 0.000004 0.41666 0.01791 0.57617 0.05371 0.16113 0.03418 0.29541 0.08708 0.40283 0.15869 0.10905 0.07162 0.1945 0.16195 0.25635 0.271 0.06347 0.10742 0.10986 0.23356 0.13916 0.37842l-0.69824 0.09522c-0.03581-0.14811-0.10905-0.2596-0.21973-0.33447-0.10905-0.07487-0.26612-0.1123-0.47119-0.1123-0.12695 0.000003-0.23275 0.0114-0.31738 0.03418-0.08301 0.02116-0.14974 0.05046-0.2002 0.08789-0.04883 0.03744-0.08382 0.08138-0.10498 0.13184-0.02116 0.04883-0.03174 0.10091-0.03174 0.15625-0.000001 0.08464 0.02034 0.15462 0.06104 0.20996 0.04069 0.05371 0.09766 0.09929 0.1709 0.13672 0.07324 0.03581 0.16032 0.06673 0.26123 0.09277 0.10254 0.02442 0.21484 0.04964 0.33692 0.07568 0.10742 0.02279 0.21403 0.0472 0.31982 0.07324 0.10579 0.02442 0.2067 0.05371 0.30273 0.08789s0.18554 0.07569 0.26856 0.12451c0.08301 0.04883 0.15462 0.10905 0.21484 0.18066 0.06185 0.06999 0.10986 0.15381 0.14404 0.25146 0.0358 0.09766 0.05371 0.21322 0.05371 0.34668"/>
    <path d="m52.221 33.49c0.09277-0.20182 0.20915-0.3483 0.34912-0.43945 0.13997-0.09114 0.3068-0.13672 0.50049-0.13672 0.1595 0.000003 0.29378 0.02604 0.40283 0.07813 0.11068 0.05209 0.20019 0.1237 0.26855 0.21484 0.06998 0.09115 0.12044 0.19857 0.15137 0.32227 0.03092 0.1237 0.04638 0.25716 0.04639 0.40039v1.6748h-0.68359v-1.4795c-0.000002-0.10254-0.0081-0.19612-0.02441-0.28076-0.01628-0.08626-0.04313-0.1595-0.08057-0.21973-0.03744-0.06185-0.08626-0.10986-0.14648-0.14404s-0.13346-0.05127-0.21973-0.05127c-0.08301 0.000002-0.15869 0.01872-0.22705 0.05615-0.06673 0.03581-0.12451 0.08789-0.17334 0.15625-0.04883 0.06673-0.08708 0.1473-0.11475 0.2417-0.02604 0.09278-0.03906 0.19531-0.03906 0.30762v1.4136h-0.68604v-3.623h0.68604v0.98877c-0.000001 0.05209-0.000815 0.10498-0.0024 0.15869-0.0016 0.05209-0.0041 0.10173-0.0073 0.14893-0.0016 0.04557-0.0033 0.08708-0.0049 0.12451-0.0016 0.03744-0.0033 0.06673-0.0049 0.08789h0.0098"/>
    <path d="m55.683 35.653c-0.19043 0-0.36214-0.02767-0.51514-0.08301-0.15137-0.05697-0.28076-0.14242-0.38818-0.25635-0.10742-0.11556-0.18962-0.2596-0.24658-0.43213-0.05697-0.17415-0.08545-0.3776-0.08545-0.61035 0-0.25228 0.03337-0.46468 0.1001-0.63721 0.06836-0.17252 0.1595-0.31168 0.27344-0.41748 0.11556-0.10742 0.24821-0.18473 0.39795-0.23193s0.30762-0.0708 0.47363-0.0708c0.20833 0.000003 0.38574 0.03662 0.53223 0.10986 0.14811 0.07162 0.26937 0.17253 0.36377 0.30273 0.0944 0.13021 0.16357 0.28646 0.20752 0.46875 0.04394 0.18067 0.06591 0.38086 0.06592 0.60059v0.01953h-1.6943c-0.000001 0.11068 0.0098 0.21403 0.0293 0.31006 0.01953 0.0944 0.05127 0.1766 0.09521 0.24658 0.04395 0.06836 0.10091 0.12288 0.1709 0.16357 0.06999 0.03906 0.15462 0.05859 0.25391 0.05859 0.12044 0 0.21891-0.02523 0.29541-0.07568 0.0765-0.05208 0.13102-0.13184 0.16358-0.23926l0.64697 0.05615c-0.0293 0.07487-0.0708 0.15462-0.12451 0.23926-0.05208 0.08464-0.12207 0.16276-0.20996 0.23438-0.08789 0.06999-0.19776 0.12858-0.32959 0.17578-0.13021 0.04557-0.2889 0.06836-0.47608 0.06836m0-2.3071c-0.06999 0.000002-0.13591 0.01221-0.19775 0.03662-0.06022 0.02279-0.11312 0.06022-0.15869 0.1123-0.04395 0.05046-0.07975 0.11638-0.10742 0.19775-0.02767 0.08138-0.04313 0.17904-0.04639 0.29297h1.0254c-0.01302-0.21322-0.06429-0.37272-0.15381-0.47852-0.08952-0.10742-0.20996-0.16113-0.36133-0.16113"/>
    <path d="m57.385 35.604v-2.0215c-0.000001-0.05696-0.000815-0.11719-0.0024-0.18066 0-0.06348-0.0016-0.1237-0.0049-0.18066-0.0016-0.05859-0.0033-0.11067-0.0049-0.15625-0.0016-0.0472-0.0041-0.08138-0.0073-0.10254h0.6543c0.0033 0.01953 0.0065 0.05371 0.0098 0.10254 0.0033 0.0472 0.0065 0.09929 0.0098 0.15625 0.0033 0.05697 0.0057 0.11394 0.0073 0.1709 0.0033 0.05534 0.0049 0.1001 0.0049 0.13428h0.0098c0.03418-0.09603 0.06836-0.18148 0.10254-0.25635 0.03418-0.0765 0.07406-0.14079 0.11963-0.19287 0.0472-0.05371 0.10335-0.0944 0.16846-0.12207 0.0651-0.02929 0.14567-0.04394 0.2417-0.04395 0.04069 0.000003 0.08057 0.0041 0.11963 0.01221 0.04069 0.0065 0.07161 0.01465 0.09277 0.02441v0.57373c-0.04395-0.0098-0.08871-0.0179-0.13428-0.02441-0.04395-0.0081-0.09684-0.01221-0.15869-0.01221-0.1709 0.000002-0.30436 0.06918-0.40039 0.20752-0.0944 0.13835-0.1416 0.34343-0.1416 0.61523v1.2964h-0.68604"/>
    <path d="m59.328 35.604v-3.623h0.68604v3.623h-0.68604"/>
    <path d="m63.225 34.281c-0.000002 0.20182-0.02849 0.38656-0.08545 0.5542-0.05534 0.16764-0.13916 0.3125-0.25146 0.43457-0.11231 0.12044-0.25228 0.21484-0.41992 0.2832-0.16764 0.06673-0.36296 0.1001-0.58594 0.1001-0.21484 0-0.40446-0.03337-0.56885-0.1001s-0.30274-0.16032-0.41504-0.28076c-0.11068-0.12044-0.1945-0.26448-0.25146-0.43213-0.05697-0.16927-0.08545-0.35563-0.08545-0.55908 0-0.19694 0.02686-0.37842 0.08057-0.54443 0.05534-0.16764 0.13835-0.3125 0.24902-0.43457 0.11068-0.12207 0.24984-0.21728 0.41748-0.28564s0.36377-0.10254 0.58838-0.10254c0.23763 0.000003 0.44026 0.03418 0.60791 0.10254 0.16764 0.06836 0.30436 0.16358 0.41016 0.28564 0.10742 0.12044 0.18554 0.26449 0.23438 0.43213 0.05045 0.16602 0.07568 0.34831 0.07568 0.54688m-0.71777 0c-0.000002-0.31413-0.05127-0.54199-0.15381-0.68359s-0.25147-0.2124-0.44678-0.2124c-0.20182 0.000002-0.35645 0.07162-0.46387 0.21484-0.10742 0.14323-0.16113 0.37028-0.16113 0.68115-0.000001 0.15788 0.01383 0.29378 0.0415 0.40772 0.0293 0.11393 0.06999 0.20752 0.12207 0.28076s0.11474 0.12777 0.18799 0.16358c0.07324 0.03418 0.15381 0.05127 0.2417 0.05127 0.10091 0.000001 0.19043-0.01709 0.26855-0.05127 0.07975-0.03581 0.14648-0.09033 0.2002-0.16358 0.05371-0.07324 0.0944-0.16683 0.12207-0.28076s0.0415-0.24984 0.0415-0.40772"/>
    <path d="m64.873 35.653c-0.20996 0-0.39388-0.03255-0.55176-0.09766-0.15625-0.0651-0.28646-0.15706-0.39062-0.27588-0.10417-0.11882-0.18229-0.26123-0.23438-0.42725-0.05208-0.16764-0.07813-0.35238-0.07813-0.5542 0-0.21972 0.02848-0.41504 0.08545-0.58594 0.05697-0.17252 0.13916-0.31738 0.24658-0.43457 0.10742-0.11881 0.23926-0.20914 0.39551-0.271 0.15788-0.06185 0.33691-0.09277 0.53711-0.09277 0.1709 0.000003 0.32226 0.02279 0.4541 0.06836 0.13346 0.04557 0.24821 0.10824 0.34424 0.18799 0.09603 0.07813 0.17334 0.1709 0.23193 0.27832 0.06022 0.10742 0.10172 0.22298 0.12451 0.34668l-0.69092 0.03418c-0.01953-0.13509-0.06836-0.24251-0.14648-0.32227-0.07813-0.08138-0.1888-0.12207-0.33203-0.12207-0.18392 0.000002-0.3182 0.07569-0.40283 0.22705-0.08464 0.15137-0.12695 0.3711-0.12695 0.65918-0.000001 0.60872 0.17985 0.91309 0.53955 0.91309 0.13021 0.000001 0.23926-0.04069 0.32715-0.12207 0.08789-0.08301 0.14241-0.20589 0.16357-0.36865l0.68848 0.03174c-0.01628 0.12207-0.05371 0.23926-0.1123 0.35156-0.05697 0.11068-0.13509 0.20915-0.23438 0.29541-0.09766 0.08464-0.21647 0.153-0.35644 0.20508-0.13998 0.05045-0.3003 0.07568-0.48096 0.07568"/>
    <path d="m68.242 35.604-0.70557-1.1963-0.29541 0.20508v0.99121h-0.68604v-3.623h0.68604v2.0752l0.94238-1.0938h0.7373l-0.92773 1.0303 0.99854 1.6113h-0.74951"/>
   </g>
   <g fill="#333" transform="matrix(1.0233 0 0 1.0372 38.842 954.37)">
    <path d="m48.057 43.604v-0.24805c0.06641-0.15234 0.14714-0.28646 0.24219-0.40234 0.09635-0.11719 0.19726-0.22266 0.30274-0.31641 0.10547-0.09505 0.20963-0.18294 0.3125-0.26367 0.10416-0.08073 0.19792-0.16146 0.28125-0.24219s0.15039-0.16536 0.20117-0.25391c0.05208-0.08854 0.07812-0.1888 0.07813-0.30078-0.000002-0.07812-0.01172-0.14648-0.03516-0.20508-0.02344-0.05989-0.05729-0.11002-0.10156-0.15039-0.04427-0.04036-0.09766-0.07031-0.16016-0.08984-0.0612-0.02083-0.12956-0.03125-0.20508-0.03125-0.07031 0.000002-0.13672 0.0098-0.19922 0.0293-0.0612 0.01953-0.11589 0.04883-0.16406 0.08789-0.04818 0.03906-0.08789 0.08789-0.11914 0.14648-0.02995 0.05729-0.04948 0.12435-0.05859 0.20117l-0.35938-0.0332c0.01172-0.09896 0.03906-0.19206 0.08203-0.2793s0.10221-0.16341 0.17774-0.22852c0.07552-0.0664 0.16602-0.11849 0.27148-0.15625 0.10677-0.03776 0.22982-0.05664 0.36914-0.05664 0.13672 0.000003 0.25846 0.01628 0.36523 0.04883s0.19661 0.08073 0.26953 0.14453c0.07422 0.0638 0.13086 0.14258 0.16992 0.23633s0.05859 0.20182 0.05859 0.32422c-0.000002 0.09245-0.01693 0.18034-0.05078 0.26367-0.03255 0.08333-0.07682 0.16276-0.13281 0.23828-0.05469 0.07552-0.11849 0.14844-0.19141 0.21875s-0.14909 0.13932-0.22852 0.20703c-0.07943 0.06641-0.15951 0.13281-0.24023 0.19922-0.08073 0.0651-0.1569 0.13086-0.22852 0.19726-0.07031 0.06641-0.13346 0.13412-0.18945 0.20312-0.05599 0.06771-0.09961 0.13867-0.13086 0.21289h1.4355v0.29883h-1.8223"/>
    <path d="m50.284 43.604v-0.24805c0.06641-0.15234 0.14714-0.28646 0.24219-0.40234 0.09635-0.11719 0.19726-0.22266 0.30273-0.31641 0.10547-0.09505 0.20964-0.18294 0.3125-0.26367 0.10417-0.08073 0.19792-0.16146 0.28125-0.24219s0.15039-0.16536 0.20117-0.25391c0.05208-0.08854 0.07812-0.1888 0.07813-0.30078-0.000001-0.07812-0.01172-0.14648-0.03516-0.20508-0.02344-0.05989-0.05729-0.11002-0.10156-0.15039-0.04427-0.04036-0.09766-0.07031-0.16016-0.08984-0.0612-0.02083-0.12956-0.03125-0.20508-0.03125-0.07031 0.000002-0.13672 0.0098-0.19922 0.0293-0.0612 0.01953-0.11589 0.04883-0.16406 0.08789-0.04818 0.03906-0.08789 0.08789-0.11914 0.14648-0.02995 0.05729-0.04948 0.12435-0.05859 0.20117l-0.35938-0.0332c0.01172-0.09896 0.03906-0.19206 0.08203-0.2793s0.10221-0.16341 0.17773-0.22852c0.07552-0.0664 0.16602-0.11849 0.27148-0.15625 0.10677-0.03776 0.22982-0.05664 0.36914-0.05664 0.13672 0.000003 0.25846 0.01628 0.36523 0.04883s0.19661 0.08073 0.26953 0.14453c0.07422 0.0638 0.13086 0.14258 0.16992 0.23633s0.05859 0.20182 0.05859 0.32422c-0.000002 0.09245-0.01693 0.18034-0.05078 0.26367-0.03255 0.08333-0.07682 0.16276-0.13281 0.23828-0.05469 0.07552-0.11849 0.14844-0.19141 0.21875s-0.14909 0.13932-0.22852 0.20703c-0.07943 0.06641-0.15951 0.13281-0.24024 0.19922-0.08073 0.0651-0.1569 0.13086-0.22852 0.19726-0.07031 0.06641-0.13346 0.13412-0.18945 0.20312-0.05599 0.06771-0.09961 0.13867-0.13086 0.21289h1.4355v0.29883h-1.8223"/>
    <path d="m52.614 43.604v-0.29883h0.70117v-2.1172l-0.62109 0.44336v-0.33203l0.65039-0.44726h0.32422v2.4531h0.66992v0.29883h-1.7246"/>
    <path d="m56.592 42.538c-0.000002 0.73698-0.25912 1.1055-0.77734 1.1055-0.16016 0-0.29362-0.02865-0.40039-0.08594-0.10547-0.05859-0.19141-0.15234-0.25781-0.28125h-0.0039c-0.000001 0.03385-0.0013 0.06901-0.0039 0.10547-0.0013 0.03646-0.0033 0.07031-0.0059 0.10156-0.0013 0.03125-0.0033 0.05794-0.0059 0.08008-0.0013 0.02214-0.0026 0.03581-0.0039 0.04102h-0.33984c0.0013-0.01172 0.0026-0.03125 0.0039-0.05859 0.0013-0.02865 0.0026-0.0625 0.0039-0.10156s0.002-0.08203 0.002-0.12891c0.0013-0.04687 0.002-0.0957 0.002-0.14648v-2.4629h0.35156v0.82617c0 0.03906-0.000651 0.07682-0.002 0.11328 0 0.03516-0.000652 0.06641-0.002 0.09375-0.0013 0.03255-0.0026 0.06315-0.0039 0.0918h0.0078c0.0651-0.13541 0.15104-0.23242 0.25781-0.29102 0.10807-0.05859 0.24154-0.08789 0.40039-0.08789 0.26693 0.000002 0.46289 0.08985 0.58789 0.26953 0.1263 0.17969 0.18945 0.45182 0.18945 0.81641m-0.36914 0.01172c-0.000002-0.14583-0.0091-0.27083-0.02734-0.375-0.01823-0.10416-0.04753-0.18945-0.08789-0.25586-0.04037-0.06771-0.0918-0.11719-0.1543-0.14844s-0.13867-0.04687-0.22852-0.04687c-0.09245 0.000001-0.17448 0.01497-0.24609 0.04492-0.07031 0.02995-0.12956 0.07813-0.17773 0.14453-0.04688 0.06641-0.08268 0.15365-0.10742 0.26172-0.02474 0.10808-0.03711 0.24024-0.03711 0.39648 0 0.15104 0.01237 0.278 0.03711 0.38086s0.06055 0.18685 0.10742 0.25195c0.04818 0.0638 0.10742 0.11003 0.17773 0.13867 0.07031 0.02734 0.15104 0.04102 0.24219 0.04102 0.08594 0 0.16016-0.01497 0.22266-0.04492s0.11458-0.07813 0.15625-0.14453c0.04166-0.06641 0.07226-0.15234 0.0918-0.25781 0.02083-0.10677 0.03125-0.23568 0.03125-0.38672"/>
    <path d="m60.329 42.829c-0.000002 0.13932-0.02735 0.25846-0.08203 0.35742-0.05469 0.09766-0.12826 0.17774-0.2207 0.24024-0.09245 0.0612-0.19987 0.10612-0.32227 0.13476-0.1224 0.02865-0.2513 0.04297-0.38672 0.04297h-1.1172v-2.752h1c0.15234 0.000003 0.28841 0.01302 0.4082 0.03906 0.11979 0.02474 0.22135 0.06446 0.30469 0.11914 0.08333 0.05469 0.14648 0.12435 0.18945 0.20898 0.04427 0.08334 0.0664 0.1836 0.06641 0.30078-0.000002 0.07682-0.01107 0.14909-0.0332 0.2168-0.02084 0.06771-0.05339 0.12956-0.09766 0.18555-0.04297 0.05469-0.09766 0.10222-0.16406 0.14258-0.06511 0.03906-0.14128 0.06836-0.22852 0.08789 0.11068 0.01302 0.20833 0.03841 0.29297 0.07617 0.08594 0.03776 0.15755 0.08594 0.21484 0.14453s0.10091 0.12695 0.13086 0.20508c0.02995 0.07682 0.04492 0.16016 0.04492 0.25m-0.53516-1.2637c-0.000002-0.14844-0.05078-0.25456-0.15234-0.31836s-0.2487-0.0957-0.44141-0.0957h-0.62695v0.87109h0.62695c0.10937 0.000001 0.20182-0.01042 0.27734-0.03125 0.07552-0.02213 0.13672-0.05273 0.18359-0.0918 0.04687-0.04036 0.08073-0.08854 0.10156-0.14453s0.03125-0.11914 0.03125-0.18945m0.1582 1.2344c-0.000002-0.08724-0.01628-0.16146-0.04883-0.22266-0.03125-0.0612-0.07682-0.11133-0.13672-0.15039s-0.13216-0.06771-0.2168-0.08594c-0.08333-0.01823-0.17708-0.02734-0.28125-0.02734h-0.69531v0.99219h0.72461c0.09505 0 0.18229-0.0078 0.26172-0.02344 0.08073-0.01562 0.14974-0.04297 0.20703-0.08203 0.05859-0.03906 0.10416-0.09115 0.13672-0.15625 0.03255-0.0651 0.04883-0.14648 0.04883-0.24414"/>
    <path d="m61.352 43.643c-0.21224 0-0.37174-0.05599-0.47852-0.16797-0.10677-0.11198-0.16016-0.26562-0.16016-0.46094 0-0.13932 0.02604-0.25325 0.07813-0.3418 0.05338-0.08984 0.1224-0.16016 0.20703-0.21094 0.08594-0.05078 0.18359-0.08594 0.29297-0.10547 0.10937-0.01953 0.2207-0.0306 0.33398-0.0332l0.47461-0.0078v-0.11523c-0.000002-0.08724-0.0091-0.16146-0.02734-0.22266-0.01823-0.0612-0.04623-0.11068-0.08398-0.14844-0.03776-0.03776-0.08529-0.0651-0.14258-0.08203-0.05599-0.01823-0.1224-0.02734-0.19922-0.02734-0.06771 0.000002-0.12891 0.0052-0.18359 0.01563-0.05469 0.0091-0.10221 0.02669-0.14258 0.05273-0.04037 0.02474-0.07292 0.05925-0.09766 0.10352-0.02474 0.04297-0.04102 0.09766-0.04883 0.16406l-0.36719-0.0332c0.01302-0.08333 0.03776-0.1595 0.07422-0.22852 0.03646-0.07031 0.08789-0.13086 0.1543-0.18164 0.06771-0.05078 0.15169-0.08984 0.25195-0.11719 0.10156-0.02864 0.22396-0.04297 0.36719-0.04297 0.26562 0.000002 0.46549 0.0612 0.59961 0.18359 0.13411 0.1211 0.20117 0.29688 0.20117 0.52734v0.91016c-0.000002 0.10417 0.01367 0.18294 0.04102 0.23633 0.02734 0.05208 0.07943 0.07813 0.15625 0.07813 0.01953 0 0.03906-0.0013 0.05859-0.0039s0.03841-0.0059 0.05664-0.0098v0.21875c-0.04427 0.01042-0.08854 0.01823-0.13281 0.02344-0.04297 0.0052-0.0892 0.0078-0.13867 0.0078-0.06641 0-0.1237-0.0085-0.17188-0.02539-0.04688-0.01823-0.08529-0.04492-0.11523-0.08008-0.02995-0.03646-0.05274-0.08073-0.06836-0.13281-0.01563-0.05338-0.02539-0.11523-0.0293-0.18555h-0.01172c-0.03776 0.06771-0.07943 0.12891-0.125 0.18359-0.04427 0.05469-0.09636 0.10156-0.15625 0.14062-0.0599 0.03776-0.12826 0.06706-0.20508 0.08789-0.07552 0.02083-0.16276 0.03125-0.26172 0.03125m0.08008-0.26367c0.11198 0 0.20963-0.02018 0.29297-0.06055 0.08463-0.04167 0.1543-0.0944 0.20898-0.1582 0.05599-0.0638 0.09766-0.13346 0.125-0.20898s0.04101-0.14778 0.04102-0.2168v-0.17383l-0.38477 0.0078c-0.08594 0.0013-0.16797 0.0078-0.24609 0.01953-0.07682 0.01042-0.14453 0.0319-0.20312 0.06445s-0.10547 0.07813-0.14062 0.13672c-0.03385 0.05859-0.05078 0.13542-0.05078 0.23047-0.000001 0.11458 0.0306 0.20312 0.0918 0.26562 0.0625 0.0625 0.15104 0.09375 0.26562 0.09375"/>
    <path d="m64.364 43.604-0.71484-0.96484-0.25781 0.21289v0.75195h-0.35156v-2.8984h0.35156v1.8105l0.92774-1.0254h0.41211l-0.85742 0.9082 0.90234 1.2051h-0.41211"/>
    <path d="m65.309 42.621c-0.000001 0.11068 0.01107 0.21289 0.0332 0.30664 0.02344 0.09245 0.05859 0.17253 0.10547 0.24023 0.04818 0.06641 0.10937 0.11849 0.18359 0.15625 0.07422 0.03646 0.16341 0.05469 0.26758 0.05469 0.15234 0 0.27409-0.0306 0.36523-0.0918 0.09245-0.0612 0.15495-0.13867 0.1875-0.23242l0.30859 0.08789c-0.02214 0.05859-0.05339 0.11784-0.09375 0.17774-0.03906 0.05859-0.0918 0.11198-0.1582 0.16016-0.06641 0.04687-0.14974 0.08594-0.25 0.11719-0.09896 0.02995-0.21875 0.04492-0.35938 0.04492-0.3125 0-0.55078-0.0931-0.71484-0.2793-0.16276-0.1862-0.24414-0.46289-0.24414-0.83008 0-0.19792 0.02474-0.36523 0.07422-0.50195 0.04948-0.13802 0.11719-0.25 0.20312-0.33594 0.08594-0.08594 0.1862-0.14778 0.30078-0.18555 0.11458-0.03906 0.23698-0.05859 0.36719-0.05859 0.17708 0.000002 0.32487 0.02865 0.44336 0.08594 0.11979 0.05729 0.21549 0.13672 0.28711 0.23828 0.07291 0.10026 0.12435 0.21875 0.1543 0.35547 0.03125 0.13672 0.04687 0.28451 0.04687 0.44336v0.04687h-1.5078m1.1445-0.26953c-0.01953-0.22266-0.07617-0.38476-0.16992-0.48633-0.09375-0.10286-0.22852-0.1543-0.4043-0.1543-0.05859 0.000002-0.12044 0.0098-0.18555 0.0293-0.0638 0.01823-0.12305 0.05143-0.17774 0.09961s-0.10091 0.11393-0.13867 0.19727c-0.03776 0.08203-0.05925 0.18685-0.06445 0.31445h1.1406"/>
    <path d="m67.274 43.604v-1.6211c0-0.04427-0.000652-0.08919-0.002-0.13476-0.000001-0.04687-0.000652-0.0918-0.002-0.13477-0.0013-0.04297-0.0026-0.08333-0.0039-0.12109s-0.0026-0.07161-0.0039-0.10156h0.33203c0.0013 0.02995 0.0026 0.06445 0.0039 0.10352 0.0026 0.03776 0.0046 0.07682 0.0059 0.11719 0.0026 0.04037 0.0039 0.07943 0.0039 0.11719 0.0013 0.03646 0.002 0.06771 0.002 0.09375h0.0078c0.02474-0.08073 0.05078-0.15039 0.07813-0.20898 0.02864-0.05989 0.06185-0.10872 0.09961-0.14648 0.03776-0.03906 0.08268-0.06771 0.13477-0.08594 0.05208-0.01953 0.11523-0.0293 0.18945-0.0293 0.02864 0.000002 0.05599 0.0026 0.08203 0.0078 0.02604 0.0039 0.04622 0.0078 0.06055 0.01172v0.32227c-0.02344-0.0065-0.05078-0.01107-0.08203-0.01367-0.03125-0.0039-0.06641-0.0059-0.10547-0.0059-0.08073 0.000002-0.14974 0.01823-0.20703 0.05469-0.05599 0.03646-0.10222 0.08724-0.13867 0.15234-0.03516 0.0638-0.0612 0.14063-0.07813 0.23047-0.01693 0.08854-0.02539 0.18555-0.02539 0.29102v1.1016h-0.35156"/>
    <path d="m71.926 42.844c-0.000003 0.11589-0.02279 0.22266-0.06836 0.32031-0.04427 0.09766-0.11328 0.18229-0.20703 0.25391-0.09375 0.07031-0.21224 0.12565-0.35547 0.16602-0.14193 0.03906-0.31055 0.05859-0.50586 0.05859-0.34245 0-0.60938-0.0599-0.80078-0.17969-0.19141-0.11979-0.31315-0.29297-0.36524-0.51953l0.36133-0.07227c0.01823 0.07161 0.04622 0.13672 0.08398 0.19531s0.08854 0.10938 0.15234 0.15234c0.0651 0.04167 0.14518 0.07422 0.24024 0.09766 0.09505 0.02344 0.20898 0.03516 0.3418 0.03516 0.11068 0 0.21224-0.0091 0.30469-0.02734 0.09245-0.01953 0.17187-0.04883 0.23828-0.08789 0.0664-0.03906 0.11784-0.08919 0.1543-0.15039 0.03776-0.0625 0.05664-0.13672 0.05664-0.22266-0.000002-0.08984-0.02084-0.16276-0.0625-0.21875-0.04037-0.05599-0.09766-0.10221-0.17188-0.13867s-0.16276-0.06706-0.26562-0.0918c-0.10287-0.02474-0.2168-0.05143-0.3418-0.08008-0.07682-0.01693-0.1543-0.03516-0.23242-0.05469-0.07682-0.02083-0.15104-0.04492-0.22266-0.07227-0.07031-0.02865-0.13672-0.06185-0.19922-0.09961s-0.11654-0.08268-0.16211-0.13476c-0.04557-0.05338-0.08138-0.11458-0.10742-0.18359-0.02604-0.07031-0.03906-0.15104-0.03906-0.24219 0-0.13021 0.02604-0.24153 0.07813-0.33398 0.05338-0.09375 0.12695-0.17057 0.2207-0.23047 0.09375-0.05989 0.20443-0.10351 0.33203-0.13086 0.1276-0.02734 0.26562-0.04101 0.41406-0.04102 0.17057 0.000003 0.3164 0.01367 0.4375 0.04102 0.12109 0.02604 0.22331 0.06576 0.30664 0.11914 0.08333 0.05339 0.14974 0.1198 0.19922 0.19922 0.05078 0.07813 0.09114 0.16927 0.12109 0.27344l-0.36719 0.06445c-0.01823-0.0664-0.04492-0.12565-0.08008-0.17774-0.03386-0.05208-0.07878-0.0957-0.13477-0.13086-0.05599-0.03515-0.12435-0.06185-0.20508-0.08008-0.07943-0.01823-0.17318-0.02734-0.28125-0.02734-0.1276 0.000003-0.23503 0.01172-0.32227 0.03516-0.08594 0.02214-0.1556 0.05274-0.20898 0.0918-0.05208 0.03906-0.08984 0.08529-0.11328 0.13867-0.02214 0.05209-0.0332 0.10873-0.0332 0.16992-0.000001 0.08203 0.02018 0.14974 0.06055 0.20312 0.04166 0.05208 0.09766 0.0957 0.16797 0.13086s0.15169 0.06445 0.24414 0.08789 0.19075 0.04688 0.29492 0.07031c0.08463 0.01953 0.16862 0.03972 0.25195 0.06055 0.08463 0.01953 0.16536 0.04362 0.24219 0.07227 0.07682 0.02734 0.14844 0.0599 0.21484 0.09766 0.06771 0.03776 0.1263 0.08399 0.17578 0.13867 0.04948 0.05469 0.08789 0.11914 0.11524 0.19336 0.02864 0.07422 0.04297 0.16146 0.04297 0.26172"/>
    <path d="m73.196 43.588c-0.05339 0.01432-0.10807 0.02539-0.16406 0.0332-0.05469 0.0091-0.11849 0.01367-0.19141 0.01367-0.28125 0-0.42188-0.1595-0.42188-0.47852v-1.4102h-0.24414v-0.25586h0.25781l0.10352-0.47266h0.23438v0.47266h0.39062v0.25586h-0.39062v1.334c-0.000001 0.10156 0.01627 0.17318 0.04883 0.21484 0.03385 0.04036 0.0918 0.06055 0.17383 0.06055 0.03385 0 0.06641-0.0026 0.09766-0.0078 0.03255-0.0052 0.06771-0.01172 0.10547-0.01953v0.25977"/>
    <path d="m73.588 43.604v-0.42773h0.38086v0.42773h-0.38086"/>
    <path d="m49.969 48.604-1.4727-2.3438c0.0026 0.0638 0.0059 0.12696 0.0098 0.18945 0.0026 0.05339 0.0046 0.11003 0.0059 0.16992 0.0026 0.0586 0.0039 0.11068 0.0039 0.15625v1.8281h-0.33203v-2.752h0.43359l1.4883 2.3594c-0.0039-0.0638-0.0078-0.1276-0.01172-0.19141-0.0026-0.05469-0.0052-0.11393-0.0078-0.17774-0.0026-0.0651-0.0039-0.12695-0.0039-0.18555v-1.8047h0.33594v2.752h-0.44922"/>
    <path d="m53.698 48.604h-0.44531l-0.47656-1.748c-0.01433-0.04948-0.02995-0.10807-0.04687-0.17578-0.01563-0.06771-0.02995-0.13216-0.04297-0.19336-0.01563-0.07161-0.03125-0.14453-0.04687-0.21875-0.01693 0.07552-0.0332 0.14909-0.04883 0.2207-0.01432 0.0625-0.0293 0.12696-0.04492 0.19336-0.01563 0.06641-0.0306 0.12435-0.04492 0.17383l-0.48047 1.748h-0.44531l-0.81055-2.752h0.38867l0.49414 1.748c0.02213 0.08203 0.04297 0.16341 0.0625 0.24414 0.02083 0.08073 0.03841 0.153 0.05273 0.2168 0.01693 0.07552 0.03255 0.14714 0.04687 0.21484 0.01953-0.08984 0.03971-0.17838 0.06055-0.26562 0.0091-0.03646 0.01823-0.07487 0.02734-0.11523 0.0091-0.04036 0.01823-0.08008 0.02734-0.11914 0.01042-0.03906 0.02018-0.07617 0.0293-0.11133 0.01042-0.03646 0.01953-0.06966 0.02734-0.09961l0.47852-1.7129h0.35742l0.47852 1.7129c0.0078 0.02995 0.01627 0.06315 0.02539 0.09961 0.01041 0.03516 0.02018 0.07227 0.0293 0.11133 0.01041 0.03776 0.02018 0.07682 0.0293 0.11719 0.0091 0.04037 0.01823 0.07878 0.02734 0.11524 0.02083 0.08724 0.04101 0.17643 0.06055 0.26758 0.0013 0 0.0072-0.02213 0.01758-0.06641 0.01041-0.04557 0.02344-0.10221 0.03906-0.16992s0.03255-0.14062 0.05078-0.21875c0.01953-0.07943 0.03906-0.15299 0.05859-0.2207l0.48633-1.748h0.38867l-0.81055 2.752"/>
    <path d="m54.825 48.604v-0.29883h0.70117v-2.1172l-0.62109 0.44336v-0.33203l0.65039-0.44726h0.32422v2.4531h0.66992v0.29883h-1.7246"/>
    <path d="m59.905 47.704c-0.000002 0.13802-0.01953 0.26498-0.05859 0.38086-0.03776 0.11458-0.0944 0.21354-0.16992 0.29688-0.07422 0.08203-0.16667 0.14648-0.27734 0.19336-0.11068 0.04557-0.23828 0.06836-0.38281 0.06836-0.16016 0-0.30013-0.0306-0.41992-0.0918s-0.2194-0.14909-0.29883-0.26367c-0.07943-0.11588-0.13932-0.25716-0.17969-0.42383-0.03906-0.16797-0.05859-0.35872-0.05859-0.57227 0-0.24479 0.02214-0.45963 0.06641-0.64453 0.04557-0.18489 0.11068-0.33919 0.19531-0.46289s0.1875-0.21679 0.30859-0.2793c0.12239-0.0625 0.26042-0.09375 0.41406-0.09375 0.09375 0.000003 0.18164 0.0098 0.26367 0.0293 0.08203 0.01953 0.15625 0.05143 0.22266 0.0957 0.06771 0.04297 0.12695 0.10026 0.17774 0.17188 0.05078 0.07162 0.09114 0.15951 0.12109 0.26367l-0.33594 0.06055c-0.03646-0.11849-0.09505-0.20377-0.17578-0.25586-0.07943-0.05338-0.17188-0.08008-0.27734-0.08008-0.09636 0.000003-0.1836 0.02279-0.26172 0.06836-0.07813 0.04557-0.14453 0.11393-0.19922 0.20508-0.05469 0.08985-0.09701 0.20313-0.12695 0.33984-0.02865 0.13672-0.04297 0.29622-0.04297 0.47852 0.0638-0.11849 0.15365-0.20833 0.26953-0.26953 0.11588-0.0625 0.2487-0.09375 0.39844-0.09375 0.125 0.000002 0.23828 0.02018 0.33984 0.06055s0.18815 0.09896 0.25977 0.17578c0.07291 0.07552 0.1289 0.16797 0.16797 0.27734 0.04036 0.10807 0.06055 0.22982 0.06055 0.36523m-0.35742 0.01563c-0.000001-0.09505-0.01172-0.18099-0.03516-0.25781s-0.05859-0.14193-0.10547-0.19531c-0.04688-0.05469-0.10482-0.09635-0.17383-0.125-0.06901-0.02995-0.14909-0.04492-0.24023-0.04492-0.0638 0.000002-0.12826 0.0098-0.19336 0.0293-0.0651 0.01823-0.12435 0.04883-0.17773 0.0918-0.05208 0.04167-0.09505 0.09701-0.12891 0.16602-0.03255 0.06901-0.04883 0.153-0.04883 0.25195-0.000001 0.10156 0.01302 0.19662 0.03906 0.28516 0.02604 0.08724 0.06315 0.16341 0.11133 0.22852 0.04948 0.0651 0.10872 0.11654 0.17774 0.1543 0.06901 0.03776 0.14648 0.05664 0.23242 0.05664 0.08463 0.000001 0.16015-0.01432 0.22656-0.04297 0.06771-0.02995 0.125-0.07227 0.17188-0.12695 0.04687-0.05599 0.08268-0.1237 0.10742-0.20312 0.02474-0.07943 0.03711-0.16862 0.03711-0.26758"/>
    <path d="m62.254 48.604-0.82617-1.2031-0.84375 1.2031h-0.41211l1.0469-1.4297-0.9668-1.3223h0.41211l0.76562 1.0801 0.74414-1.0801h0.41211l-0.94141 1.3086 1.0215 1.4434h-0.41211"/>
    <path d="m63.083 48.604v-2.752h2.0879v0.30469h-1.7148v0.88281h1.5977v0.30078h-1.5977v0.95898h1.7949v0.30469h-2.168"/>
    <path d="m48.184 53.604v-2.752h0.37305v2.4473h1.3906v0.30469h-1.7637"/>
    <path d="m52.139 52.545c-0.000002 0.36979-0.08138 0.64518-0.24414 0.82617s-0.39909 0.27148-0.70898 0.27148c-0.14714 0-0.27865-0.02214-0.39453-0.06641-0.11589-0.04427-0.21419-0.11198-0.29492-0.20312-0.07943-0.09115-0.14062-0.20508-0.18359-0.3418-0.04167-0.13802-0.0625-0.30013-0.0625-0.48633 0-0.72916 0.31576-1.0937 0.94727-1.0938 0.16406 0.000002 0.30534 0.02279 0.42383 0.06836 0.11979 0.04557 0.21745 0.11393 0.29297 0.20508 0.07682 0.09115 0.13346 0.20508 0.16992 0.3418s0.05468 0.29622 0.05469 0.47852m-0.36914 0c-0.000002-0.16406-0.01302-0.29948-0.03906-0.40625-0.02474-0.10677-0.06185-0.19206-0.11133-0.25586-0.04818-0.0638-0.10742-0.10807-0.17773-0.13281-0.07031-0.02604-0.14974-0.03906-0.23828-0.03906-0.08984 0.000002-0.17122 0.01367-0.24414 0.04102-0.07162 0.02604-0.13281 0.07162-0.18359 0.13672-0.05078 0.0638-0.08984 0.14909-0.11719 0.25586-0.02604 0.10677-0.03906 0.24024-0.03906 0.40039-0.000001 0.16406 0.01432 0.30013 0.04297 0.4082 0.02864 0.10677 0.06771 0.19206 0.11719 0.25586 0.05078 0.0638 0.11002 0.10872 0.17774 0.13476 0.06901 0.02604 0.14388 0.03906 0.22461 0.03906 0.08984 0 0.17122-0.01237 0.24414-0.03711 0.07291-0.02604 0.13476-0.07096 0.18555-0.13476 0.05078-0.0638 0.08984-0.14974 0.11719-0.25781 0.02734-0.10807 0.04101-0.24414 0.04102-0.4082"/>
    <path d="m53.92 53.604v-1.3398c-0.000001-0.10286-0.0078-0.1888-0.02344-0.25781-0.01432-0.06901-0.03841-0.12435-0.07227-0.16602-0.03386-0.04297-0.07878-0.07292-0.13477-0.08984-0.05469-0.01823-0.12305-0.02734-0.20508-0.02734-0.08333 0.000001-0.15886 0.01497-0.22656 0.04492-0.06641 0.02865-0.1237 0.07097-0.17188 0.12695-0.04688 0.05469-0.08333 0.12305-0.10938 0.20508-0.02604 0.08073-0.03906 0.17383-0.03906 0.2793v1.2246h-0.35156v-1.6621c0-0.04427-0.000652-0.09049-0.002-0.13867-0.000001-0.04948-0.000652-0.0957-0.002-0.13867-0.0013-0.04427-0.0026-0.08203-0.0039-0.11328s-0.0026-0.05143-0.0039-0.06055h0.33203c0.0013 0.0065 0.0026 0.02409 0.0039 0.05273 0.0013 0.02865 0.0026 0.06185 0.0039 0.09961 0.0026 0.03646 0.0046 0.07422 0.0059 0.11328 0.0013 0.03776 0.002 0.06966 0.002 0.0957h0.0059c0.03385-0.0612 0.07096-0.11654 0.11133-0.16602 0.04036-0.04948 0.08724-0.09114 0.14062-0.125 0.05338-0.03515 0.11458-0.06185 0.18359-0.08008 0.06901-0.01953 0.14909-0.0293 0.24023-0.0293 0.11719 0.000002 0.2181 0.01432 0.30273 0.04297s0.1543 0.07292 0.20898 0.13281c0.05468 0.0599 0.0944 0.13737 0.11914 0.23242 0.02604 0.09375 0.03906 0.20573 0.03906 0.33594v1.4082h-0.35352"/>
    <path d="m56.139 53.264c-0.06511 0.13542-0.15169 0.23242-0.25976 0.29102-0.10677 0.05859-0.23958 0.08789-0.39844 0.08789-0.26693 0-0.46354-0.08984-0.58984-0.26953-0.125-0.17969-0.1875-0.45182-0.1875-0.81641 0-0.73698 0.25911-1.1055 0.77734-1.1055 0.16016 0.000002 0.29362 0.0293 0.40039 0.08789 0.10677 0.0586 0.19271 0.15169 0.25781 0.2793h0.0039c-0.000001-0.01302-0.000652-0.0332-0.002-0.06055-0.000001-0.02864-0.000652-0.05794-0.002-0.08789-0.000001-0.03125-0.000001-0.06055 0-0.08789-0.000001-0.02734-0.000001-0.04687 0-0.05859v-0.81836h0.35156v2.4629c-0.000002 0.05078-0.000002 0.09961 0 0.14648 0.0013 0.04688 0.0026 0.08984 0.0039 0.12891 0.0013 0.03906 0.0026 0.07292 0.0039 0.10156 0.0013 0.02734 0.0026 0.04687 0.0039 0.05859h-0.33594c-0.0026-0.01302-0.0052-0.03125-0.0078-0.05469-0.0013-0.02474-0.0033-0.05273-0.0059-0.08398-0.0013-0.03125-0.0026-0.0638-0.0039-0.09766-0.0013-0.03516-0.002-0.06966-0.002-0.10352h-0.0078m-1.0664-0.71875c-0.000001 0.14583 0.0091 0.27083 0.02734 0.375 0.01823 0.10417 0.04753 0.1901 0.08789 0.25781 0.04036 0.06641 0.0918 0.11523 0.1543 0.14648s0.13867 0.04687 0.22852 0.04687c0.09245 0 0.17383-0.01497 0.24414-0.04492 0.07161-0.02995 0.13086-0.07812 0.17774-0.14453 0.04818-0.06771 0.08463-0.1556 0.10938-0.26367 0.02474-0.10807 0.03711-0.24023 0.03711-0.39648-0.000001-0.14974-0.01237-0.27604-0.03711-0.37891-0.02474-0.10416-0.0612-0.18815-0.10938-0.25195s-0.10742-0.10937-0.17774-0.13672c-0.06901-0.02864-0.14909-0.04297-0.24023-0.04297-0.08594 0.000002-0.16016 0.01498-0.22266 0.04492-0.0625 0.02995-0.11458 0.07813-0.15625 0.14453-0.04167 0.06641-0.07292 0.153-0.09375 0.25977-0.01953 0.10547-0.0293 0.23372-0.0293 0.38476"/>
    <path d="m58.819 52.545c-0.000002 0.36979-0.08138 0.64518-0.24414 0.82617s-0.39909 0.27148-0.70898 0.27148c-0.14714 0-0.27865-0.02214-0.39453-0.06641-0.11589-0.04427-0.21419-0.11198-0.29492-0.20312-0.07943-0.09115-0.14063-0.20508-0.18359-0.3418-0.04167-0.13802-0.0625-0.30013-0.0625-0.48633 0-0.72916 0.31576-1.0937 0.94726-1.0938 0.16406 0.000002 0.30534 0.02279 0.42383 0.06836 0.11979 0.04557 0.21745 0.11393 0.29297 0.20508 0.07682 0.09115 0.13346 0.20508 0.16992 0.3418s0.05469 0.29622 0.05469 0.47852m-0.36914 0c-0.000002-0.16406-0.01302-0.29948-0.03906-0.40625-0.02474-0.10677-0.06185-0.19206-0.11133-0.25586-0.04818-0.0638-0.10742-0.10807-0.17773-0.13281-0.07031-0.02604-0.14974-0.03906-0.23828-0.03906-0.08985 0.000002-0.17122 0.01367-0.24414 0.04102-0.07161 0.02604-0.13281 0.07162-0.18359 0.13672-0.05078 0.0638-0.08984 0.14909-0.11719 0.25586-0.02604 0.10677-0.03906 0.24024-0.03906 0.40039 0 0.16406 0.01432 0.30013 0.04297 0.4082 0.02865 0.10677 0.06771 0.19206 0.11719 0.25586 0.05078 0.0638 0.11002 0.10872 0.17773 0.13476 0.06901 0.02604 0.14388 0.03906 0.22461 0.03906 0.08984 0 0.17122-0.01237 0.24414-0.03711 0.07292-0.02604 0.13476-0.07096 0.18555-0.13476 0.05078-0.0638 0.08984-0.14974 0.11719-0.25781 0.02734-0.10807 0.04101-0.24414 0.04102-0.4082"/>
    <path d="m60.6 53.604v-1.3398c-0.000002-0.10286-0.0078-0.1888-0.02344-0.25781-0.01432-0.06901-0.03841-0.12435-0.07226-0.16602-0.03386-0.04297-0.07878-0.07292-0.13477-0.08984-0.05469-0.01823-0.12305-0.02734-0.20508-0.02734-0.08334 0.000001-0.15886 0.01497-0.22656 0.04492-0.06641 0.02865-0.1237 0.07097-0.17188 0.12695-0.04687 0.05469-0.08333 0.12305-0.10938 0.20508-0.02604 0.08073-0.03906 0.17383-0.03906 0.2793v1.2246h-0.35156v-1.6621c0-0.04427-0.000651-0.09049-0.002-0.13867 0-0.04948-0.000651-0.0957-0.002-0.13867-0.0013-0.04427-0.0026-0.08203-0.0039-0.11328s-0.0026-0.05143-0.0039-0.06055h0.33203c0.0013 0.0065 0.0026 0.02409 0.0039 0.05273 0.0013 0.02865 0.0026 0.06185 0.0039 0.09961 0.0026 0.03646 0.0046 0.07422 0.0059 0.11328 0.0013 0.03776 0.002 0.06966 0.002 0.0957h0.0059c0.03385-0.0612 0.07096-0.11654 0.11133-0.16602 0.04036-0.04948 0.08724-0.09114 0.14062-0.125 0.05339-0.03515 0.11458-0.06185 0.18359-0.08008 0.06901-0.01953 0.14909-0.0293 0.24023-0.0293 0.11719 0.000002 0.2181 0.01432 0.30274 0.04297 0.08463 0.02865 0.1543 0.07292 0.20898 0.13281 0.05469 0.0599 0.0944 0.13737 0.11914 0.23242 0.02604 0.09375 0.03906 0.20573 0.03906 0.33594v1.4082h-0.35352"/>
    <path d="m63.872 51.116c-0.15625 0.000002-0.29492 0.02604-0.41602 0.07813-0.11979 0.05208-0.2207 0.1263-0.30273 0.22266-0.08073 0.09636-0.14193 0.21224-0.18359 0.34766-0.04167 0.13542-0.0625 0.28581-0.0625 0.45117 0 0.16537 0.02214 0.31706 0.06641 0.45508 0.04557 0.13672 0.11002 0.25456 0.19336 0.35352 0.08463 0.09896 0.1875 0.17578 0.30859 0.23047 0.12239 0.05469 0.25976 0.08203 0.41211 0.08203 0.10677 0 0.20377-0.01367 0.29102-0.04102 0.08854-0.02865 0.16797-0.06836 0.23828-0.11914 0.07161-0.05078 0.13541-0.11068 0.19141-0.17969 0.05599-0.07031 0.10547-0.14779 0.14844-0.23242l0.30469 0.15234c-0.04948 0.10286-0.11068 0.19857-0.18359 0.28711-0.07292 0.08854-0.15886 0.16536-0.25781 0.23047-0.09766 0.0651-0.20899 0.11654-0.33398 0.1543-0.1237 0.03646-0.26237 0.05469-0.41602 0.05469-0.22266 0-0.41797-0.03516-0.58594-0.10547-0.16667-0.07162-0.30664-0.17057-0.41992-0.29688-0.11198-0.1276-0.19596-0.27864-0.25195-0.45312s-0.08398-0.36523-0.08398-0.57227c0-0.21484 0.0293-0.40885 0.08789-0.58203 0.05989-0.17318 0.14648-0.32031 0.25976-0.44141 0.11458-0.12239 0.25521-0.21614 0.42188-0.28125 0.16667-0.0664 0.35677-0.09961 0.57031-0.09961 0.29297 0.000003 0.53776 0.05729 0.73438 0.17188 0.19661 0.11459 0.34114 0.28451 0.43359 0.50977l-0.35352 0.11719c-0.02604-0.0651-0.0612-0.12695-0.10547-0.18555-0.04427-0.05989-0.09961-0.11263-0.16602-0.1582s-0.14453-0.08203-0.23438-0.10938c-0.08854-0.02734-0.19011-0.04101-0.30469-0.04102"/>
    <path d="m65.483 51.041v-0.33594h0.35156v0.33594h-0.35156m0 2.5625v-2.1133h0.35156v2.1133h-0.35156"/>
    <path d="m67.188 53.588c-0.05339 0.01432-0.10807 0.02539-0.16406 0.0332-0.05469 0.0091-0.11849 0.01367-0.19141 0.01367-0.28125 0-0.42188-0.1595-0.42188-0.47852v-1.4102h-0.24414v-0.25586h0.25781l0.10352-0.47266h0.23438v0.47266h0.39062v0.25586h-0.39062v1.334c-0.000001 0.10156 0.01627 0.17318 0.04883 0.21484 0.03385 0.04036 0.0918 0.06055 0.17383 0.06055 0.03385 0 0.06641-0.0026 0.09766-0.0078 0.03255-0.0052 0.06771-0.01172 0.10547-0.01953v0.25977"/>
    <path d="m68.395 53.604c-0.04948 0.1276-0.10026 0.24219-0.15234 0.34375-0.05078 0.10286-0.10807 0.1901-0.17188 0.26172-0.0638 0.07292-0.13477 0.12825-0.21289 0.16602-0.07813 0.03906-0.16797 0.05859-0.26953 0.05859-0.04427-0.000001-0.08529-0.0013-0.12305-0.0039s-0.07747-0.0085-0.11914-0.01758v-0.26367c0.02474 0.0039 0.05273 0.0065 0.08398 0.0078 0.03125 0.0026 0.05794 0.0039 0.08008 0.0039 0.10286-0.000001 0.19857-0.03841 0.28711-0.11524 0.08854-0.07682 0.16602-0.19922 0.23242-0.36719l0.0332-0.08398-0.83789-2.1035h0.375l0.44531 1.168c0.01302 0.03516 0.0293 0.08203 0.04883 0.14062 0.02083 0.05859 0.04102 0.11719 0.06055 0.17578 0.02083 0.05859 0.03906 0.11133 0.05469 0.1582 0.01562 0.04687 0.02474 0.07617 0.02734 0.08789 0.0039-0.01432 0.01302-0.04232 0.02734-0.08398 0.01562-0.04297 0.03255-0.09049 0.05078-0.14258 0.01953-0.05208 0.03906-0.10482 0.05859-0.1582s0.03581-0.09961 0.04883-0.13867l0.41406-1.207h0.37109l-0.8125 2.1133"/>
   </g>
   <g fill="#333" transform="matrix(1.0233 0 0 1.0372 38.863 953.94)">
    <path d="m49.252 71.818c0.09456 0 0.17602-0.0131 0.24438-0.03931 0.0695-0.02734 0.12931-0.06266 0.17944-0.10596 0.05127-0.04329 0.09342-0.09228 0.12646-0.14697 0.03418-0.05469 0.06209-0.10994 0.08374-0.16577l0.43921 0.16577c-0.03532 0.08659-0.08146 0.17147-0.13843 0.25464s-0.12818 0.15666-0.21362 0.22046c-0.08545 0.0638-0.18742 0.11564-0.30591 0.15552-0.11735 0.03874-0.25578 0.0581-0.41528 0.0581-0.2085 0-0.38908-0.03076-0.54175-0.09228-0.15267-0.06266-0.27914-0.14925-0.3794-0.25976-0.09912-0.11165-0.17318-0.24382-0.22217-0.39648-0.04785-0.15267-0.07178-0.31958-0.07178-0.50073 0-0.18799 0.02393-0.35775 0.07178-0.50928 0.04899-0.15153 0.12248-0.28027 0.22046-0.38623 0.09798-0.10709 0.2216-0.18912 0.37085-0.24609 0.15039-0.0581 0.32698-0.08716 0.52978-0.08716 0.15722 0.000002 0.29451 0.01652 0.41186 0.04956 0.11849 0.03304 0.22046 0.07975 0.30591 0.14014 0.08659 0.05925 0.15779 0.12988 0.21362 0.21191 0.05696 0.08089 0.1014 0.17033 0.1333 0.26831l-0.44434 0.12134c-0.01595-0.05127-0.04045-0.10026-0.07349-0.14697-0.03304-0.04785-0.0752-0.09-0.12646-0.12646-0.05013-0.03646-0.10938-0.06551-0.17773-0.08716-0.06836-0.02278-0.14584-0.03418-0.23242-0.03418-0.12191 0.000002-0.22673 0.01994-0.31445 0.05982-0.08773 0.03874-0.16008 0.09457-0.21704 0.16748-0.05583 0.07292-0.09741 0.16065-0.12476 0.26318-0.0262 0.1014-0.03931 0.21533-0.03931 0.3418 0 0.12533 0.0131 0.2404 0.03931 0.34522 0.02734 0.10368 0.0695 0.19312 0.12646 0.26831 0.05696 0.0752 0.12988 0.13387 0.21875 0.17603 0.09 0.04216 0.19767 0.06323 0.323 0.06323"/>
    <path d="m52.424 71.254c-0.000002 0.14128-0.01994 0.27059-0.05981 0.38794-0.03874 0.11735-0.09741 0.21875-0.17603 0.3042-0.07861 0.08431-0.1766 0.15039-0.29394 0.19824-0.11735 0.04671-0.25407 0.07007-0.41016 0.07007-0.15039 0-0.28312-0.02336-0.39819-0.07007s-0.21191-0.11222-0.29053-0.19653c-0.07747-0.08431-0.13615-0.18514-0.17603-0.30249-0.03988-0.11849-0.05981-0.24894-0.05981-0.39136 0-0.13786 0.0188-0.26489 0.0564-0.3811 0.03874-0.11735 0.09684-0.21875 0.17432-0.3042 0.07747-0.08545 0.17488-0.1521 0.29224-0.19995 0.11735-0.04785 0.25464-0.07178 0.41186-0.07178 0.16634 0.000002 0.30819 0.02393 0.42554 0.07178s0.21305 0.1145 0.28711 0.19995c0.07519 0.08431 0.12988 0.18514 0.16406 0.30249 0.03532 0.11621 0.05298 0.24382 0.05298 0.38281m-0.50244 0c-0.000002-0.21989-0.03589-0.37939-0.10767-0.47852-0.07178-0.09912-0.17603-0.14868-0.31274-0.14868-0.14128 0.000001-0.24951 0.05013-0.32471 0.15039s-0.11279 0.2592-0.11279 0.47681c0 0.11052 0.0097 0.20565 0.02905 0.2854 0.02051 0.07975 0.04899 0.14526 0.08545 0.19653s0.08032 0.08944 0.13159 0.1145c0.05127 0.02393 0.10766 0.03589 0.16919 0.03589 0.07064 0.000001 0.1333-0.01196 0.18799-0.03589 0.05582-0.02506 0.10254-0.06323 0.14014-0.1145s0.06608-0.11678 0.08545-0.19653 0.02905-0.17489 0.02905-0.2854"/>
    <path d="m54.004 72.18v-1.0374c-0.000002-0.07178-0.0057-0.13729-0.01709-0.19653-0.0114-0.06038-0.03019-0.11165-0.0564-0.15381-0.02621-0.04329-0.06039-0.0769-0.10254-0.10083-0.04216-0.02392-0.09343-0.03589-0.15381-0.03589-0.05811 0.000001-0.11108 0.0131-0.15894 0.03931-0.04671 0.02507-0.08716 0.06152-0.12134 0.10938-0.03418 0.04671-0.06095 0.10311-0.08032 0.16919-0.01823 0.06494-0.02735 0.13672-0.02734 0.21533v0.99121h-0.48022v-1.4355c0-0.03987-0.000569-0.08089-0.0017-0.12305 0-0.04215-0.0011-0.08203-0.0034-0.11963-0.0011-0.03874-0.0023-0.07291-0.0034-0.10254-0.0011-0.03076-0.0028-0.05355-0.0051-0.06836h0.45801c0.0023 0.01367 0.0046 0.03589 0.0068 0.06665 0.0023 0.02962 0.0046 0.06266 0.0068 0.09912 0.0023 0.03646 0.004 0.07292 0.0051 0.10938 0.0023 0.03646 0.0034 0.06722 0.0034 0.09229h0.0068c0.06494-0.14127 0.1464-0.24381 0.24438-0.30762 0.09798-0.0638 0.21476-0.0957 0.35034-0.0957 0.11165 0.000002 0.20565 0.01823 0.28198 0.05469 0.07747 0.03646 0.14014 0.08659 0.18799 0.15039 0.04899 0.0638 0.08431 0.139 0.10596 0.22559s0.03247 0.18001 0.03247 0.28027v1.1741h-0.47852"/>
    <path d="m56.505 71.64c-0.000002 0.08887-0.0188 0.16862-0.0564 0.23926-0.03646 0.07064-0.09001 0.13102-0.16064 0.18115-0.07064 0.04899-0.15723 0.08716-0.25977 0.1145-0.10254 0.0262-0.21932 0.03931-0.35034 0.03931-0.11735 0-0.22331-0.0085-0.31787-0.02563-0.09456-0.01709-0.17774-0.045-0.24951-0.08374-0.07064-0.03988-0.12988-0.09114-0.17773-0.15381-0.04785-0.06266-0.08374-0.14014-0.10767-0.23242l0.42212-0.06323c0.01367 0.05127 0.03247 0.09286 0.0564 0.12476 0.02392 0.0319 0.05355 0.0564 0.08887 0.07349s0.07633 0.02848 0.12305 0.03418c0.04785 0.0057 0.10197 0.0085 0.16235 0.0085 0.05469 0.000001 0.10539-0.0028 0.1521-0.0085 0.04785-0.0068 0.08887-0.01766 0.12305-0.03247 0.03532-0.01595 0.06266-0.0376 0.08203-0.06494 0.01937-0.02848 0.02905-0.0638 0.02905-0.10596-0.000002-0.04785-0.01424-0.08545-0.04273-0.11279-0.02734-0.02848-0.06551-0.05127-0.1145-0.06836-0.04785-0.01823-0.10482-0.03361-0.1709-0.04614-0.06494-0.01367-0.13444-0.02905-0.2085-0.04614-0.07747-0.01709-0.15381-0.0376-0.229-0.06152-0.0752-0.02393-0.14242-0.05639-0.20166-0.09741-0.05925-0.04101-0.1071-0.09285-0.14356-0.15552-0.03646-0.0638-0.05469-0.14412-0.05469-0.24097 0-0.08773 0.01709-0.16577 0.05127-0.23413 0.03418-0.0695 0.08431-0.12817 0.15039-0.17602 0.06608-0.04899 0.14754-0.08602 0.24438-0.11108 0.09798-0.0262 0.2102-0.0393 0.33667-0.03931 0.10026 0.000002 0.19368 0.0097 0.28027 0.02905 0.08659 0.01823 0.16406 0.04785 0.23242 0.08887 0.06836 0.03988 0.12532 0.09115 0.1709 0.15381 0.04671 0.06266 0.07918 0.13843 0.09741 0.2273l-0.42554 0.04443c-0.008-0.04443-0.02222-0.08089-0.04273-0.10938-0.02051-0.02962-0.04614-0.05298-0.0769-0.07007-0.02962-0.01709-0.06437-0.02848-0.10425-0.03418-0.03988-0.0068-0.08374-0.01025-0.13159-0.01025-0.11393 0.000002-0.19938 0.01481-0.25635 0.04443-0.05697 0.02848-0.08545 0.0769-0.08545 0.14526 0 0.04216 0.01139 0.07577 0.03418 0.10083 0.02392 0.02507 0.05696 0.04614 0.09912 0.06323 0.04329 0.01595 0.09399 0.03019 0.1521 0.04272 0.05924 0.0114 0.12362 0.02564 0.19312 0.04273 0.08545 0.01823 0.16919 0.03988 0.25122 0.06494 0.08317 0.02393 0.15666 0.05754 0.22046 0.10083 0.06494 0.04216 0.11678 0.09684 0.15552 0.16406 0.03988 0.06722 0.05981 0.15267 0.05982 0.25635"/>
    <path d="m57.347 70.331v1.0374c-0.000001 0.07178 0.0057 0.13786 0.01709 0.19824 0.01139 0.05925 0.03019 0.11052 0.0564 0.15381 0.0262 0.04215 0.05981 0.0752 0.10083 0.09912 0.04215 0.02393 0.09342 0.03589 0.15381 0.03589 0.0581 0 0.11051-0.01253 0.15723-0.0376 0.04785-0.0262 0.08886-0.06266 0.12305-0.10938 0.03418-0.04785 0.06038-0.10425 0.07861-0.16919 0.01937-0.06608 0.02905-0.13843 0.02905-0.21704v-0.99121h0.48022v1.4355c-0.000002 0.03874-0.000002 0.07975 0 0.12305 0.0011 0.04216 0.0023 0.0826 0.0034 0.12134 0.0023 0.0376 0.004 0.07178 0.0051 0.10254 0.0023 0.02962 0.004 0.05184 0.0051 0.06665h-0.45801c-0.0011-0.01367-0.0034-0.03532-0.0068-0.06494-0.0023-0.03076-0.0046-0.06437-0.0068-0.10083-0.0011-0.03646-0.0028-0.07292-0.0051-0.10938-0.0011-0.03646-0.0017-0.06722-0.0017-0.09229h-0.0085c-0.0638 0.14014-0.14526 0.24211-0.24438 0.30591-0.09798 0.0638-0.21476 0.0957-0.35034 0.0957-0.11052 0-0.20451-0.01823-0.28198-0.05469s-0.14071-0.08602-0.1897-0.14868c-0.04785-0.0638-0.0826-0.139-0.10425-0.22559s-0.03247-0.18001-0.03247-0.28027v-1.1741h0.48022"/>
    <path d="m59.034 72.18v-2.5361h0.48022v2.5361h-0.48022"/>
    <path d="m60.478 72.211c-0.14128 0-0.25008-0.03817-0.32642-0.1145-0.07634-0.07747-0.1145-0.19425-0.1145-0.35034v-1.0903h-0.23413v-0.32471h0.25806l0.15039-0.43408h0.30078v0.43408h0.35034v0.32471h-0.35034v0.96045c-0.000001 0.09001 0.01709 0.15666 0.05127 0.19995 0.03418 0.04215 0.08716 0.06323 0.15894 0.06323 0.02962 0.000001 0.0564-0.0023 0.08032-0.0068 0.02392-0.0046 0.0507-0.01025 0.08032-0.01709v0.29736c-0.05925 0.01937-0.12191 0.03361-0.18799 0.04273-0.06608 0.01025-0.13843 0.01538-0.21704 0.01538"/>
    <path d="m61.174 69.998v-0.35376h0.48022v0.35376h-0.48022m0 2.1824v-1.8491h0.48022v1.8491h-0.48022"/>
    <path d="m63.342 72.18v-1.0374c-0.000001-0.07178-0.0057-0.13729-0.01709-0.19653-0.01139-0.06038-0.03019-0.11165-0.0564-0.15381-0.02621-0.04329-0.06039-0.0769-0.10254-0.10083-0.04216-0.02392-0.09343-0.03589-0.15381-0.03589-0.05811 0.000001-0.11108 0.0131-0.15894 0.03931-0.04671 0.02507-0.08716 0.06152-0.12134 0.10938-0.03418 0.04671-0.06095 0.10311-0.08032 0.16919-0.01823 0.06494-0.02734 0.13672-0.02734 0.21533v0.99121h-0.48022v-1.4355c0-0.03987-0.00057-0.08089-0.0017-0.12305 0-0.04215-0.0011-0.08203-0.0034-0.11963-0.0011-0.03874-0.0023-0.07291-0.0034-0.10254-0.0011-0.03076-0.0028-0.05355-0.0051-0.06836h0.45801c0.0023 0.01367 0.0046 0.03589 0.0068 0.06665 0.0023 0.02962 0.0046 0.06266 0.0068 0.09912 0.0023 0.03646 0.004 0.07292 0.0051 0.10938 0.0023 0.03646 0.0034 0.06722 0.0034 0.09229h0.0068c0.06494-0.14127 0.1464-0.24381 0.24438-0.30762 0.09798-0.0638 0.21476-0.0957 0.35034-0.0957 0.11165 0.000002 0.20565 0.01823 0.28198 0.05469 0.07747 0.03646 0.14014 0.08659 0.18799 0.15039 0.04899 0.0638 0.08431 0.139 0.10596 0.22559 0.02164 0.08659 0.03247 0.18001 0.03247 0.28027v1.1741h-0.47852"/>
    <path d="m65.058 72.922c-0.12191-0.000001-0.22957-0.01253-0.323-0.0376-0.09229-0.02393-0.17147-0.05811-0.23755-0.10254-0.06494-0.0433-0.11735-0.0957-0.15723-0.15723-0.03874-0.06038-0.06551-0.12704-0.08032-0.19995l0.48022-0.0564c0.01709 0.07406 0.05355 0.13216 0.10938 0.17432 0.05697 0.04216 0.13102 0.06323 0.22217 0.06323 0.05697-0.000001 0.1088-0.008 0.15552-0.02393 0.04785-0.01595 0.0883-0.0433 0.12134-0.08203 0.03418-0.0376 0.06038-0.08773 0.07861-0.15039 0.01937-0.06266 0.02905-0.14014 0.02905-0.23242-0.000002-0.0319-0.000002-0.06437 0-0.09741-0.000002-0.03304 0.000568-0.06323 0.0017-0.09058 0.0011-0.0319 0.0017-0.06266 0.0017-0.09229h-0.0034c-0.05583 0.11963-0.13444 0.20622-0.23584 0.25976-0.10026 0.05355-0.21989 0.08032-0.35889 0.08032-0.11735 0-0.21875-0.02279-0.3042-0.06836-0.08431-0.04671-0.15438-0.11108-0.2102-0.19312-0.05583-0.08317-0.09741-0.18172-0.12476-0.29565-0.0262-0.11507-0.03931-0.24154-0.03931-0.3794 0-0.14241 0.01424-0.27116 0.04273-0.38623 0.02848-0.11621 0.07178-0.2159 0.12988-0.29907 0.05924-0.08317 0.1333-0.14697 0.22217-0.19141 0.09001-0.04557 0.19653-0.06836 0.31958-0.06836 0.12305 0.000002 0.23299 0.02621 0.32983 0.07861 0.09798 0.05241 0.17432 0.13729 0.229 0.25464h0.0085c-0.000002-0.02392 0.000568-0.05127 0.0017-0.08203 0.0023-0.0319 0.0046-0.06209 0.0068-0.09058 0.0023-0.02962 0.0046-0.05582 0.0068-0.07861 0.0034-0.02278 0.0063-0.03816 0.0085-0.04614h0.45459c-0.0023 0.04102-0.0046 0.09855-0.0068 0.17261-0.0023 0.07406-0.0034 0.15894-0.0034 0.25464v1.3655c-0.000001 0.13444-0.01937 0.25122-0.0581 0.35034-0.03874 0.10026-0.0957 0.18343-0.1709 0.24951-0.07406 0.06608-0.16577 0.11564-0.27515 0.14868-0.10824 0.03304-0.23185 0.04956-0.37085 0.04956m0.40161-1.6919c-0.000002-0.11621-0.01139-0.21305-0.03418-0.29053-0.02279-0.07747-0.05241-0.13957-0.08887-0.18628s-0.07861-0.07975-0.12646-0.09912c-0.04671-0.01937-0.094-0.02905-0.14185-0.02905-0.06152 0.000001-0.11621 0.01196-0.16406 0.03589-0.04671 0.02393-0.08659 0.06096-0.11963 0.11108-0.03304 0.05013-0.05811 0.11393-0.07519 0.19141-0.01709 0.07747-0.02564 0.16976-0.02564 0.27686-0.000001 0.19938 0.0319 0.34977 0.0957 0.45117s0.15894 0.1521 0.2854 0.1521c0.04785 0 0.09513-0.0091 0.14185-0.02734 0.04785-0.01937 0.09058-0.05241 0.12817-0.09912 0.0376-0.04785 0.06779-0.11108 0.09058-0.1897 0.02278-0.07861 0.03418-0.17773 0.03418-0.29736"/>
    <path d="m68.592 72.18c-0.0023-0.0091-0.0051-0.02506-0.0085-0.04785-0.0023-0.02393-0.0051-0.0507-0.0085-0.08032-0.0023-0.02962-0.0046-0.05981-0.0068-0.09058-0.0011-0.03076-0.0017-0.05811-0.0017-0.08203h-0.0068c-0.05583 0.11963-0.13387 0.20565-0.23413 0.25806-0.09912 0.05127-0.21818 0.0769-0.35718 0.0769-0.11621 0-0.21704-0.02392-0.30249-0.07178-0.08431-0.04785-0.15438-0.1145-0.2102-0.19995-0.05469-0.08545-0.0957-0.18628-0.12305-0.30249-0.02621-0.11735-0.03931-0.24495-0.03931-0.38281 0-0.14014 0.01367-0.26888 0.04102-0.38623 0.02848-0.11735 0.07178-0.21818 0.12988-0.30249 0.05811-0.08545 0.13159-0.1521 0.22046-0.19995 0.09001-0.04785 0.19653-0.07178 0.31958-0.07178 0.06038 0.000002 0.11849 0.0063 0.17432 0.0188 0.05583 0.01253 0.10766 0.0319 0.15552 0.0581 0.04785 0.02621 0.09114 0.05982 0.12988 0.10083 0.03874 0.04102 0.07178 0.09058 0.09912 0.14868h0.0034c-0.000001-0.01139-0.000571-0.02791-0.0017-0.04956-0.000001-0.02278-0.000001-0.04842 0-0.0769-0.000001-0.02848-0.000571-0.0581-0.0017-0.08887-0.000001-0.03076-0.000001-0.06038 0-0.08887v-0.67505h0.48022v2.1328c-0.000002 0.09001 0.0017 0.17033 0.0051 0.24097 0.0034 0.0695 0.0063 0.12362 0.0085 0.16235h-0.46484m-0.02222-0.93482c-0.000001-0.12191-0.01139-0.22274-0.03418-0.30249-0.02279-0.08089-0.05298-0.14469-0.09058-0.19141-0.03646-0.04785-0.07861-0.08089-0.12646-0.09912-0.04671-0.01937-0.09457-0.02905-0.14356-0.02905-0.06152 0.000001-0.11621 0.01196-0.16406 0.03589-0.04671 0.02393-0.08659 0.06152-0.11963 0.11279-0.0319 0.05127-0.0564 0.11678-0.07349 0.19653-0.01595 0.07975-0.02393 0.17603-0.02393 0.28882 0 0.41927 0.1259 0.62891 0.37769 0.62891 0.04785 0.000001 0.0957-0.01025 0.14356-0.03076 0.04785-0.02051 0.09057-0.05526 0.12817-0.10425s0.06779-0.1145 0.09058-0.19653c0.02392-0.08317 0.03589-0.18628 0.03589-0.30933"/>
    <path d="m70.291 72.214c-0.1333 0-0.2535-0.01937-0.3606-0.0581-0.10596-0.03988-0.19653-0.09969-0.27173-0.17944-0.0752-0.08089-0.13273-0.18172-0.17261-0.30249-0.03988-0.12191-0.05982-0.26432-0.05981-0.42725-0.000001-0.17659 0.02335-0.32528 0.07007-0.44604 0.04785-0.12077 0.11165-0.21818 0.19141-0.29224 0.08089-0.07519 0.17375-0.12931 0.27856-0.16235 0.10482-0.03304 0.21533-0.04956 0.33154-0.04956 0.14583 0.000002 0.27002 0.02564 0.37256 0.0769 0.10368 0.05013 0.18856 0.12077 0.25464 0.21191 0.06608 0.09115 0.1145 0.20052 0.14526 0.32812 0.03076 0.12647 0.04614 0.2666 0.04614 0.42041v0.01367h-1.186c-0.000001 0.07748 0.0068 0.14982 0.02051 0.21704 0.01367 0.06608 0.03589 0.12362 0.06665 0.17261 0.03076 0.04785 0.07064 0.08602 0.11963 0.1145 0.04899 0.02734 0.10824 0.04102 0.17773 0.04102 0.08431 0.000001 0.15324-0.01766 0.20679-0.05298 0.05355-0.03646 0.09171-0.09228 0.1145-0.16748l0.45288 0.03931c-0.02051 0.05241-0.04956 0.10824-0.08716 0.16748-0.03646 0.05924-0.08545 0.11393-0.14697 0.16406-0.06152 0.04899-0.13843 0.09001-0.23071 0.12305-0.09115 0.0319-0.20223 0.04785-0.33325 0.04785m0-1.615c-0.04899 0.000002-0.09513 0.0085-0.13843 0.02563-0.04216 0.01595-0.07918 0.04216-0.11108 0.07861-0.03076 0.03532-0.05583 0.08146-0.0752 0.13843s-0.03019 0.12533-0.03247 0.20508h0.71777c-0.0091-0.14925-0.045-0.2609-0.10767-0.33496-0.06266-0.07519-0.14697-0.11279-0.25293-0.11279"/>
    <path d="m71.956 72.211c-0.14128 0-0.25008-0.03817-0.32642-0.1145-0.07634-0.07747-0.1145-0.19425-0.1145-0.35034v-1.0903h-0.23413v-0.32471h0.25806l0.15039-0.43408h0.30078v0.43408h0.35034v0.32471h-0.35034v0.96045c-0.000001 0.09001 0.01709 0.15666 0.05127 0.19995 0.03418 0.04215 0.08716 0.06323 0.15894 0.06323 0.02962 0.000001 0.0564-0.0023 0.08032-0.0068 0.02393-0.0046 0.0507-0.01025 0.08032-0.01709v0.29736c-0.05925 0.01937-0.12191 0.03361-0.18799 0.04273-0.06608 0.01025-0.13843 0.01538-0.21704 0.01538"/>
    <path d="m73.408 72.214c-0.1333 0-0.2535-0.01937-0.3606-0.0581-0.10596-0.03988-0.19653-0.09969-0.27173-0.17944-0.0752-0.08089-0.13273-0.18172-0.17261-0.30249-0.03988-0.12191-0.05981-0.26432-0.05981-0.42725 0-0.17659 0.02336-0.32528 0.07007-0.44604 0.04785-0.12077 0.11165-0.21818 0.19141-0.29224 0.08089-0.07519 0.17375-0.12931 0.27856-0.16235 0.10482-0.03304 0.21533-0.04956 0.33154-0.04956 0.14583 0.000002 0.27002 0.02564 0.37256 0.0769 0.10368 0.05013 0.18856 0.12077 0.25464 0.21191 0.06608 0.09115 0.1145 0.20052 0.14526 0.32812 0.03076 0.12647 0.04614 0.2666 0.04614 0.42041v0.01367h-1.186c0 0.07748 0.0068 0.14982 0.02051 0.21704 0.01367 0.06608 0.03589 0.12362 0.06665 0.17261 0.03076 0.04785 0.07064 0.08602 0.11963 0.1145 0.04899 0.02734 0.10823 0.04102 0.17773 0.04102 0.08431 0.000001 0.15324-0.01766 0.20679-0.05298 0.05355-0.03646 0.09171-0.09228 0.1145-0.16748l0.45288 0.03931c-0.02051 0.05241-0.04956 0.10824-0.08716 0.16748-0.03646 0.05924-0.08545 0.11393-0.14697 0.16406-0.06153 0.04899-0.13843 0.09001-0.23071 0.12305-0.09115 0.0319-0.20223 0.04785-0.33325 0.04785m0-1.615c-0.04899 0.000002-0.09513 0.0085-0.13843 0.02563-0.04215 0.01595-0.07918 0.04216-0.11108 0.07861-0.03076 0.03532-0.05583 0.08146-0.0752 0.13843s-0.03019 0.12533-0.03247 0.20508h0.71777c-0.0091-0.14925-0.04501-0.2609-0.10767-0.33496-0.06266-0.07519-0.14697-0.11279-0.25293-0.11279"/>
    <path d="m75.37 72.214c-0.14697 0-0.27572-0.02279-0.38623-0.06836-0.10938-0.04557-0.20052-0.10994-0.27344-0.19312-0.07292-0.08317-0.1276-0.18286-0.16406-0.29907-0.03646-0.11735-0.05469-0.24666-0.05469-0.38794 0-0.15381 0.01994-0.29053 0.05982-0.41016 0.03988-0.12077 0.09741-0.22217 0.17261-0.3042 0.0752-0.08317 0.16748-0.1464 0.27686-0.1897 0.11051-0.04329 0.23584-0.06494 0.37598-0.06494 0.11963 0.000002 0.22558 0.01595 0.31787 0.04785 0.09342 0.0319 0.17374 0.07577 0.24097 0.13159 0.06722 0.05469 0.12134 0.11963 0.16235 0.19482 0.04215 0.0752 0.0712 0.15609 0.08716 0.24268l-0.48364 0.02393c-0.01367-0.09456-0.04785-0.16976-0.10254-0.22559-0.05469-0.05697-0.13216-0.08545-0.23242-0.08545-0.12874 0.000001-0.22274 0.05298-0.28198 0.15894-0.05925 0.10596-0.08887 0.25977-0.08887 0.46143-0.000001 0.42611 0.12589 0.63916 0.37768 0.63916 0.09114 0.000001 0.16748-0.02848 0.229-0.08545 0.06152-0.0581 0.09969-0.14412 0.1145-0.25806l0.48193 0.02222c-0.0114 0.08545-0.0376 0.16748-0.07861 0.24609-0.03988 0.07747-0.09457 0.1464-0.16406 0.20679-0.06836 0.05925-0.15153 0.1071-0.24951 0.14356-0.09798 0.03532-0.21021 0.05298-0.33667 0.05298"/>
    <path d="m77.021 72.211c-0.14128 0-0.25008-0.03817-0.32642-0.1145-0.07634-0.07747-0.1145-0.19425-0.1145-0.35034v-1.0903h-0.23413v-0.32471h0.25806l0.15039-0.43408h0.30078v0.43408h0.35034v0.32471h-0.35034v0.96045c-0.000001 0.09001 0.01709 0.15666 0.05127 0.19995 0.03418 0.04215 0.08716 0.06323 0.15894 0.06323 0.02962 0.000001 0.05639-0.0023 0.08032-0.0068 0.02393-0.0046 0.0507-0.01025 0.08032-0.01709v0.29736c-0.05924 0.01937-0.12191 0.03361-0.18799 0.04273-0.06608 0.01025-0.13843 0.01538-0.21704 0.01538"/>
    <path d="m77.717 69.998v-0.35376h0.48022v0.35376h-0.48022m0 2.1824v-1.8491h0.48022v1.8491h-0.48022"/>
    <path d="m79.692 72.18h-0.57422l-0.66138-1.8491h0.50757l0.323 1.0339c0.01025 0.03418 0.02108 0.07064 0.03247 0.10938 0.01139 0.0376 0.02222 0.0752 0.03247 0.11279 0.01025 0.0376 0.01994 0.07406 0.02905 0.10938 0.01025 0.03532 0.01937 0.06722 0.02734 0.0957 0.0068-0.02734 0.01538-0.0581 0.02564-0.09229 0.01025-0.03532 0.02051-0.07178 0.03076-0.10938 0.01139-0.0376 0.02278-0.07519 0.03418-0.11279 0.01253-0.0376 0.0245-0.07349 0.03589-0.10767l0.33667-1.0391h0.50244l-0.68188 1.8491"/>
    <path d="m81.393 72.214c-0.1333 0-0.2535-0.01937-0.3606-0.0581-0.10596-0.03988-0.19653-0.09969-0.27173-0.17944-0.0752-0.08089-0.13273-0.18172-0.17261-0.30249-0.03988-0.12191-0.05981-0.26432-0.05981-0.42725 0-0.17659 0.02336-0.32528 0.07007-0.44604 0.04785-0.12077 0.11165-0.21818 0.19141-0.29224 0.08089-0.07519 0.17375-0.12931 0.27856-0.16235 0.10482-0.03304 0.21533-0.04956 0.33154-0.04956 0.14583 0.000002 0.27002 0.02564 0.37256 0.0769 0.10368 0.05013 0.18856 0.12077 0.25464 0.21191 0.06608 0.09115 0.1145 0.20052 0.14526 0.32812 0.03076 0.12647 0.04614 0.2666 0.04614 0.42041v0.01367h-1.186c0 0.07748 0.0068 0.14982 0.02051 0.21704 0.01367 0.06608 0.03589 0.12362 0.06665 0.17261 0.03076 0.04785 0.07064 0.08602 0.11963 0.1145 0.04899 0.02734 0.10823 0.04102 0.17773 0.04102 0.08431 0.000001 0.15324-0.01766 0.20679-0.05298 0.05355-0.03646 0.09171-0.09228 0.1145-0.16748l0.45288 0.03931c-0.02051 0.05241-0.04956 0.10824-0.08716 0.16748-0.03646 0.05924-0.08545 0.11393-0.14697 0.16406-0.06153 0.04899-0.13843 0.09001-0.23071 0.12305-0.09115 0.0319-0.20223 0.04785-0.33325 0.04785m0-1.615c-0.04899 0.000002-0.09513 0.0085-0.13843 0.02563-0.04215 0.01595-0.07918 0.04216-0.11108 0.07861-0.03076 0.03532-0.05583 0.08146-0.0752 0.13843s-0.03019 0.12533-0.03247 0.20508h0.71777c-0.0091-0.14925-0.04501-0.2609-0.10767-0.33496-0.06266-0.07519-0.14697-0.11279-0.25293-0.11279"/>
   </g>
   <g fill="#333" transform="matrix(1.0233 0 0 1.0372 38.716 952.92)">
    <path d="m50.043 66.502c-0.000002 0.12191-0.02393 0.22616-0.07178 0.31274-0.04785 0.08545-0.11222 0.15552-0.19312 0.2102-0.08089 0.05355-0.17489 0.09286-0.28198 0.11792-0.1071 0.02506-0.21989 0.0376-0.33838 0.0376h-0.97754v-2.408h0.875c0.1333 0.000002 0.25236 0.0114 0.35718 0.03418 0.10482 0.02165 0.19368 0.0564 0.2666 0.10425 0.07291 0.04785 0.12817 0.10881 0.16577 0.18286 0.03874 0.07292 0.0581 0.16065 0.0581 0.26318-0.000002 0.06722-0.0097 0.13046-0.02905 0.1897-0.01823 0.05925-0.04671 0.11336-0.08545 0.16235-0.0376 0.04785-0.08545 0.08944-0.14356 0.12476-0.05697 0.03418-0.12362 0.05982-0.19995 0.0769 0.09684 0.0114 0.18229 0.03361 0.25635 0.06665 0.07519 0.03304 0.13786 0.0752 0.18799 0.12646 0.05013 0.05127 0.0883 0.11108 0.1145 0.17944 0.0262 0.06722 0.0393 0.14014 0.03931 0.21875m-0.46826-1.1057c-0.000002-0.12988-0.04443-0.22274-0.1333-0.27856-0.08887-0.05583-0.21761-0.08374-0.38623-0.08374h-0.54858v0.76221h0.54858c0.0957 0.000002 0.17659-0.0091 0.24268-0.02734 0.06608-0.01937 0.11963-0.04614 0.16064-0.08032 0.04101-0.03532 0.07064-0.07747 0.08887-0.12646s0.02734-0.10425 0.02734-0.16577m0.13843 1.0801c-0.000002-0.07633-0.01424-0.14128-0.04273-0.19482-0.02734-0.05355-0.06722-0.09741-0.11963-0.13159s-0.11564-0.05924-0.1897-0.0752c-0.07292-0.01595-0.15495-0.02392-0.24609-0.02393h-0.6084v0.86816h0.63403c0.08317 0 0.1595-0.0068 0.229-0.02051 0.07064-0.01367 0.13102-0.0376 0.18115-0.07178 0.05127-0.03418 0.09114-0.07975 0.11963-0.13672 0.02848-0.05696 0.04272-0.12817 0.04273-0.21362"/>
    <path d="m50.474 67.18v-1.4185c0-0.03874-0.00057-0.07804-0.0017-0.11792 0-0.04101-0.00057-0.08032-0.0017-0.11792-0.0011-0.0376-0.0023-0.07292-0.0034-0.10596s-0.0023-0.06266-0.0034-0.08887h0.29053c0.0011 0.02621 0.0023 0.0564 0.0034 0.09058 0.0023 0.03304 0.004 0.06722 0.0051 0.10254 0.0023 0.03532 0.0034 0.0695 0.0034 0.10254 0.0011 0.0319 0.0017 0.05925 0.0017 0.08203h0.0068c0.02165-0.07064 0.04443-0.13159 0.06836-0.18286 0.02506-0.05241 0.05412-0.09513 0.08716-0.12817 0.03304-0.03418 0.07235-0.05924 0.11792-0.07519 0.04557-0.01709 0.10083-0.02563 0.16577-0.02564 0.02506 0.000002 0.04899 0.0023 0.07178 0.0068 0.02279 0.0034 0.04044 0.0068 0.05298 0.01025v0.28198c-0.02051-0.0057-0.04443-0.0097-0.07178-0.01196-0.02734-0.0034-0.05811-0.0051-0.09229-0.0051-0.07064 0.000002-0.13102 0.01595-0.18115 0.04785-0.04899 0.0319-0.08944 0.07634-0.12134 0.1333-0.03076 0.05583-0.05355 0.12305-0.06836 0.20166-0.01481 0.07748-0.02222 0.16235-0.02222 0.25464v0.96387h-0.30762"/>
    <path d="m51.634 64.938v-0.29394h0.30762v0.29394h-0.30762m0 2.2422v-1.8491h0.30762v1.8491h-0.30762"/>
    <path d="m53.126 67.167c-0.04671 0.01253-0.09456 0.02222-0.14356 0.02905-0.04785 0.008-0.10368 0.01196-0.16748 0.01196-0.24609 0-0.36914-0.13957-0.36914-0.4187v-1.2339h-0.21362v-0.22388h0.22559l0.09058-0.41358h0.20508v0.41358h0.3418v0.22388h-0.3418v1.1672c-0.000001 0.08887 0.01424 0.15153 0.04272 0.18799 0.02962 0.03532 0.08032 0.05298 0.1521 0.05298 0.02962 0 0.0581-0.0023 0.08545-0.0068 0.02848-0.0046 0.05924-0.01025 0.09229-0.01709v0.2273"/>
    <path d="m53.384 64.938v-0.29394h0.30762v0.29394h-0.30762m0 2.2422v-1.8491h0.30762v1.8491h-0.30762"/>
    <path d="m55.553 66.669c-0.000001 0.08659-0.01709 0.16406-0.05127 0.23242-0.03304 0.06722-0.08146 0.12419-0.14526 0.1709-0.0638 0.04557-0.14242 0.08089-0.23584 0.10596-0.09229 0.02393-0.19824 0.03589-0.31787 0.03589-0.1071 0-0.20394-0.0085-0.29053-0.02563-0.08545-0.01595-0.16064-0.04215-0.22559-0.07861-0.06494-0.03646-0.11963-0.08431-0.16406-0.14355-0.04329-0.06038-0.0752-0.13387-0.0957-0.22046l0.27173-0.05298c0.0262 0.09912 0.08032 0.17204 0.16235 0.21875 0.08203 0.04557 0.19596 0.06836 0.3418 0.06836 0.06608 0.000001 0.12646-0.0046 0.18115-0.01367 0.05582-0.0091 0.10368-0.0245 0.14355-0.04614 0.03987-0.02279 0.07064-0.05241 0.09228-0.08887 0.02279-0.0376 0.03418-0.08374 0.03418-0.13843-0.000001-0.05583-0.0131-0.1014-0.03931-0.13672-0.0262-0.03646-0.06266-0.06665-0.10938-0.09058-0.04671-0.02393-0.10368-0.04443-0.1709-0.06152-0.06608-0.01823-0.139-0.03817-0.21875-0.05982-0.07406-0.01937-0.14754-0.04101-0.22046-0.06494-0.07292-0.02392-0.139-0.05526-0.19824-0.09399-0.05811-0.03988-0.10539-0.08887-0.14185-0.14697s-0.05469-0.13102-0.05469-0.21875c-0.000001-0.16862 0.05981-0.29679 0.17944-0.38452 0.12077-0.08887 0.29622-0.1333 0.52637-0.1333 0.20394 0.000002 0.36572 0.03589 0.48535 0.10767 0.12077 0.07178 0.1971 0.18685 0.229 0.34522l-0.27686 0.03418c-0.01026-0.04785-0.02905-0.08773-0.0564-0.11963-0.02735-0.03304-0.06039-0.05924-0.09912-0.07861-0.03874-0.02051-0.0826-0.03475-0.13159-0.04272-0.04785-0.0091-0.09798-0.01367-0.15039-0.01367-0.139 0.000001-0.24154 0.02108-0.30762 0.06323-0.06608 0.04216-0.09912 0.10596-0.09912 0.19141-0.000001 0.05013 0.01196 0.09172 0.03589 0.12476 0.02506 0.0319 0.05924 0.05925 0.10254 0.08203 0.04443 0.02165 0.09741 0.04102 0.15894 0.05811 0.06152 0.01595 0.12931 0.03304 0.20337 0.05127 0.04899 0.01253 0.09912 0.02621 0.15039 0.04102 0.05127 0.01367 0.10083 0.03076 0.14868 0.05127 0.04899 0.01937 0.09456 0.04272 0.13672 0.07007 0.04329 0.02621 0.08089 0.05811 0.11279 0.0957 0.0319 0.0376 0.05696 0.08146 0.0752 0.13159 0.01937 0.05013 0.02905 0.10824 0.02905 0.17432"/>
    <path d="m56.221 65.647c0.03418-0.06266 0.07121-0.11564 0.11108-0.15894 0.03988-0.04443 0.08374-0.08089 0.13159-0.10938 0.04785-0.02848 0.10026-0.04899 0.15723-0.06152 0.05697-0.01367 0.12077-0.02051 0.19141-0.02051 0.11849 0.000002 0.21533 0.01595 0.29053 0.04785 0.07633 0.0319 0.13615 0.07691 0.17944 0.13501 0.04443 0.05697 0.07462 0.12533 0.09058 0.20508 0.01709 0.07975 0.02563 0.16748 0.02563 0.26318v1.2322h-0.30933v-1.1724c-0.000001-0.07861-0.0051-0.14754-0.01538-0.20679-0.0091-0.05924-0.02734-0.10823-0.05469-0.14697-0.02735-0.03988-0.06608-0.0695-0.11621-0.08887-0.05013-0.02051-0.11507-0.03076-0.19482-0.03076-0.07292 0.000001-0.139 0.0131-0.19824 0.03931-0.05811 0.02621-0.10824 0.06323-0.15039 0.11108-0.04102 0.04785-0.07292 0.10596-0.0957 0.17432-0.02279 0.06836-0.03418 0.14526-0.03418 0.23071v1.0903h-0.30762v-2.5361h0.30762v0.65967c0 0.0376-0.00057 0.0752-0.0017 0.11279-0.0011 0.0376-0.0028 0.07235-0.0051 0.10425-0.0011 0.0319-0.0023 0.05925-0.0034 0.08203-0.0011 0.02165-0.0023 0.03646-0.0034 0.04443h0.0051"/>
    <path d="m60.222 66.669c-0.000002 0.08659-0.01709 0.16406-0.05127 0.23242-0.03304 0.06722-0.08146 0.12419-0.14526 0.1709-0.0638 0.04557-0.14242 0.08089-0.23584 0.10596-0.09229 0.02393-0.19824 0.03589-0.31787 0.03589-0.1071 0-0.20394-0.0085-0.29053-0.02563-0.08545-0.01595-0.16064-0.04215-0.22559-0.07861-0.06494-0.03646-0.11963-0.08431-0.16406-0.14355-0.0433-0.06038-0.0752-0.13387-0.0957-0.22046l0.27173-0.05298c0.0262 0.09912 0.08032 0.17204 0.16235 0.21875 0.08203 0.04557 0.19596 0.06836 0.3418 0.06836 0.06608 0.000001 0.12646-0.0046 0.18115-0.01367 0.05583-0.0091 0.10368-0.0245 0.14356-0.04614 0.03988-0.02279 0.07064-0.05241 0.09228-0.08887 0.02278-0.0376 0.03418-0.08374 0.03418-0.13843-0.000001-0.05583-0.0131-0.1014-0.03931-0.13672-0.02621-0.03646-0.06266-0.06665-0.10938-0.09058-0.04671-0.02393-0.10368-0.04443-0.1709-0.06152-0.06608-0.01823-0.139-0.03817-0.21875-0.05982-0.07406-0.01937-0.14754-0.04101-0.22046-0.06494-0.07292-0.02392-0.139-0.05526-0.19824-0.09399-0.05811-0.03988-0.10539-0.08887-0.14185-0.14697s-0.05469-0.13102-0.05469-0.21875c0-0.16862 0.05981-0.29679 0.17944-0.38452 0.12077-0.08887 0.29622-0.1333 0.52637-0.1333 0.20394 0.000002 0.36572 0.03589 0.48535 0.10767 0.12077 0.07178 0.1971 0.18685 0.229 0.34522l-0.27686 0.03418c-0.01026-0.04785-0.02905-0.08773-0.0564-0.11963-0.02734-0.03304-0.06038-0.05924-0.09912-0.07861-0.03874-0.02051-0.0826-0.03475-0.13159-0.04272-0.04785-0.0091-0.09798-0.01367-0.15039-0.01367-0.139 0.000001-0.24154 0.02108-0.30762 0.06323-0.06608 0.04216-0.09912 0.10596-0.09912 0.19141 0 0.05013 0.01196 0.09172 0.03589 0.12476 0.02506 0.0319 0.05924 0.05925 0.10254 0.08203 0.04443 0.02165 0.09741 0.04102 0.15894 0.05811 0.06152 0.01595 0.12931 0.03304 0.20337 0.05127 0.04899 0.01253 0.09912 0.02621 0.15039 0.04102 0.05127 0.01367 0.10083 0.03076 0.14868 0.05127 0.04899 0.01937 0.09456 0.04272 0.13672 0.07007 0.04329 0.02621 0.08089 0.05811 0.11279 0.0957 0.0319 0.0376 0.05696 0.08146 0.0752 0.13159 0.01937 0.05013 0.02905 0.10824 0.02905 0.17432"/>
    <path d="m60.885 65.331v1.1724c-0.000001 0.09001 0.0063 0.1652 0.0188 0.22559 0.01367 0.06038 0.03532 0.10938 0.06494 0.14697 0.02962 0.03646 0.06836 0.06266 0.11621 0.07861 0.04899 0.01481 0.10937 0.02222 0.18115 0.02222 0.07292 0 0.13843-0.01253 0.19653-0.0376 0.05924-0.0262 0.10937-0.06323 0.15039-0.11108 0.04215-0.04899 0.07462-0.1088 0.09741-0.17944 0.02278-0.07178 0.03418-0.15381 0.03418-0.24609v-1.0715h0.30762v1.4543c-0.000002 0.03874-0.000002 0.07975 0 0.12305 0.0011 0.04216 0.0023 0.0826 0.0034 0.12134 0.0011 0.0376 0.0023 0.07007 0.0034 0.09741s0.0023 0.045 0.0034 0.05298h-0.29053c-0.0011-0.0057-0.0023-0.02108-0.0034-0.04614s-0.0028-0.05355-0.0051-0.08545c-0.0011-0.03304-0.0023-0.06608-0.0034-0.09912-0.0011-0.03418-0.0017-0.06266-0.0017-0.08545h-0.0051c-0.02962 0.05355-0.06209 0.10197-0.09741 0.14526-0.03532 0.0433-0.07634 0.08032-0.12305 0.11108-0.04671 0.02962-0.10026 0.05241-0.16064 0.06836-0.06038 0.01709-0.13045 0.02563-0.2102 0.02563-0.10254 0-0.19084-0.01253-0.26489-0.0376-0.07406-0.02507-0.13501-0.0638-0.18286-0.11621s-0.08317-0.11963-0.10596-0.20166c-0.02165-0.08203-0.03247-0.18058-0.03247-0.29566v-1.2322h0.30933"/>
    <path d="m64.096 66.247c-0.000002 0.64486-0.22673 0.96728-0.68018 0.96728-0.14014 0-0.25692-0.02506-0.35034-0.07519-0.09229-0.05127-0.16748-0.1333-0.22559-0.24609h-0.0034c-0.000001 0.02962-0.0011 0.06038-0.0034 0.09228-0.0011 0.0319-0.0028 0.06152-0.0051 0.08887-0.0011 0.02734-0.0028 0.0507-0.0051 0.07007-0.0011 0.01937-0.0023 0.03133-0.0034 0.03589h-0.29736c0.0011-0.01025 0.0023-0.02734 0.0034-0.05127 0.0011-0.02506 0.0023-0.05469 0.0034-0.08887s0.0017-0.07178 0.0017-0.11279c0.0011-0.04102 0.0017-0.08374 0.0017-0.12817v-2.155h0.30762v0.7229c-0.000001 0.03418-0.00057 0.06722-0.0017 0.09912-0.000001 0.03076-0.00057 0.05811-0.0017 0.08203-0.0011 0.02848-0.0023 0.05526-0.0034 0.08032h0.0068c0.05696-0.11849 0.13216-0.20337 0.22559-0.25464 0.09456-0.05127 0.21134-0.0769 0.35034-0.0769 0.23356 0.000002 0.40503 0.07861 0.5144 0.23584 0.11051 0.15723 0.16577 0.39535 0.16577 0.71436m-0.323 0.01025c-0.000001-0.1276-0.008-0.23698-0.02393-0.32812-0.01595-0.09114-0.04159-0.16577-0.0769-0.22388-0.03532-0.05924-0.08032-0.10254-0.13501-0.12988s-0.12134-0.04101-0.19995-0.04102c-0.08089 0.000001-0.15267 0.0131-0.21533 0.03931-0.06152 0.02621-0.11336 0.06836-0.15552 0.12646-0.04102 0.05811-0.07235 0.13444-0.09399 0.229-0.02165 0.09457-0.03247 0.21021-0.03247 0.34692-0.000001 0.13216 0.01082 0.24325 0.03247 0.33325 0.02165 0.09001 0.05298 0.16349 0.09399 0.22046 0.04215 0.05583 0.09399 0.09627 0.15552 0.12134 0.06152 0.02393 0.13216 0.03589 0.21191 0.03589 0.07519 0.000001 0.14014-0.0131 0.19482-0.03931 0.05469-0.0262 0.10026-0.06836 0.13672-0.12646 0.03646-0.05811 0.06323-0.1333 0.08032-0.22559 0.01823-0.09342 0.02734-0.20622 0.02734-0.33838"/>
    <path d="m64.479 64.938v-0.29394h0.30762v0.29394h-0.30762m0.30762 2.4712c-0.000001 0.07064-0.0063 0.13615-0.0188 0.19653-0.01139 0.06038-0.03247 0.11279-0.06323 0.15723-0.03076 0.04443-0.07292 0.07918-0.12646 0.10425-0.05241 0.0262-0.11963 0.03931-0.20166 0.03931-0.03874-0.000001-0.0769-0.0011-0.1145-0.0034-0.03646-0.0023-0.07064-0.0063-0.10254-0.01196v-0.23755c0.01481 0.0023 0.03247 0.0046 0.05298 0.0068 0.02051 0.0023 0.03817 0.0034 0.05298 0.0034 0.04329 0 0.07861-0.0057 0.10596-0.01709 0.02848-0.01139 0.0507-0.02962 0.06665-0.05469 0.01595-0.02393 0.02677-0.05526 0.03247-0.09399 0.0057-0.0376 0.0085-0.0826 0.0085-0.13501v-2.032h0.30762v2.0781"/>
    <path d="m65.496 66.321c0 0.09684 0.0097 0.18628 0.02905 0.26831 0.02051 0.08089 0.05127 0.15096 0.09229 0.2102 0.04215 0.05811 0.0957 0.10368 0.16064 0.13672 0.06494 0.0319 0.14298 0.04785 0.23413 0.04785 0.1333 0.000001 0.23983-0.02677 0.31958-0.08032 0.08089-0.05355 0.13558-0.12134 0.16406-0.20337l0.27002 0.0769c-0.01937 0.05127-0.04671 0.10311-0.08203 0.15552-0.03418 0.05127-0.08032 0.09798-0.13843 0.14014-0.05811 0.04101-0.13102 0.07519-0.21875 0.10254-0.08659 0.0262-0.19141 0.03931-0.31445 0.03931-0.27344 0-0.48193-0.08146-0.62549-0.24438-0.14242-0.16292-0.21362-0.40503-0.21362-0.72632 0-0.17318 0.02165-0.31958 0.06494-0.43921 0.04329-0.12077 0.10254-0.21875 0.17773-0.29394s0.16292-0.12931 0.26318-0.16235c0.10026-0.03418 0.20736-0.05127 0.32129-0.05127 0.15495 0.000002 0.28426 0.02507 0.38794 0.0752 0.10482 0.05013 0.18856 0.11963 0.25122 0.2085 0.0638 0.08773 0.1088 0.19141 0.13501 0.31104 0.02734 0.11963 0.04101 0.24894 0.04102 0.38794v0.04102h-1.3193m1.0015-0.23584c-0.01709-0.19482-0.06665-0.33667-0.14868-0.42554-0.08203-0.09001-0.19995-0.13501-0.35376-0.13501-0.05127 0.000001-0.10539 0.0085-0.16235 0.02564-0.05583 0.01595-0.10767 0.045-0.15552 0.08716s-0.0883 0.09969-0.12134 0.17261c-0.03304 0.07178-0.05184 0.16349-0.0564 0.27515h0.99805"/>
    <path d="m67.442 66.247c-0.000001 0.10596 0.0074 0.20337 0.02222 0.29224 0.01595 0.08887 0.04216 0.16577 0.07861 0.23071 0.03646 0.0638 0.08431 0.11336 0.14355 0.14868 0.06038 0.03532 0.13444 0.05298 0.22217 0.05298 0.10937 0 0.20052-0.02962 0.27344-0.08887 0.07406-0.05924 0.11963-0.15039 0.13672-0.27344l0.31104 0.02051c-0.01026 0.07634-0.03247 0.14982-0.06665 0.22046s-0.08089 0.13273-0.14014 0.18628c-0.05811 0.05355-0.12932 0.09684-0.21362 0.12988-0.08431 0.0319-0.18172 0.04785-0.29224 0.04785-0.14469 0-0.26774-0.0245-0.36914-0.07349s-0.184-0.11621-0.2478-0.20166c-0.06266-0.08659-0.10824-0.18799-0.13672-0.3042-0.02848-0.11735-0.04272-0.24438-0.04272-0.3811-0.000001-0.12418 0.01025-0.23356 0.03076-0.32812 0.02051-0.0957 0.04899-0.17887 0.08545-0.24951 0.0376-0.07178 0.08146-0.13159 0.13159-0.17944 0.05013-0.04899 0.10425-0.08773 0.16235-0.11621 0.05924-0.02962 0.12134-0.0507 0.18628-0.06323 0.06494-0.01367 0.13045-0.02051 0.19653-0.02051 0.10368 0.000002 0.19596 0.01424 0.27686 0.04272 0.08089 0.02848 0.15039 0.06779 0.2085 0.11792 0.05924 0.04899 0.1071 0.1071 0.14356 0.17432s0.06209 0.13957 0.0769 0.21704l-0.31616 0.02393c-0.01595-0.10254-0.0564-0.184-0.12134-0.24438s-0.15723-0.09058-0.27686-0.09058c-0.08773 0.000001-0.16122 0.01481-0.22046 0.04443-0.05811 0.02849-0.10539 0.07235-0.14184 0.13159-0.03646 0.05811-0.06266 0.13159-0.07861 0.22046-0.01481 0.08887-0.02222 0.19312-0.02222 0.31274"/>
    <path d="m69.669 67.167c-0.04671 0.01253-0.09456 0.02222-0.14355 0.02905-0.04785 0.008-0.10368 0.01196-0.16748 0.01196-0.24609 0-0.36914-0.13957-0.36914-0.4187v-1.2339h-0.21362v-0.22388h0.22559l0.09058-0.41358h0.20508v0.41358h0.3418v0.22388h-0.3418v1.1672c-0.000001 0.08887 0.01424 0.15153 0.04272 0.18799 0.02962 0.03532 0.08032 0.05298 0.1521 0.05298 0.02962 0 0.0581-0.0023 0.08545-0.0068 0.02848-0.0046 0.05924-0.01025 0.09228-0.01709v0.2273"/>
   </g>
   <path d="m53.204 1019.7c0.02068 2.0744 0.02847 4.1487 0.02697 6.2232h0.67487c-0.0029-2.0744-0.01128-4.1488-0.02313-6.2232h-0.67873zm1.1531 0c0.0067 2.0744 0.0075 4.1488 0.02314 6.2232h0.29309c-0.0077-2.0744-0.01469-4.1488-0.02314-6.2232h-0.2931zm1.1724 0c0.11569 2.0736 0.03936 4.1487 0.01927 6.2232h1.0528c-0.000075-2.0744-0.0031-4.1488-0.01156-6.2232h-1.0605-0.000009zm1.9012 0c0.01237 2.0744 0.0067 4.1488 0.01927 6.2232h0.68645c0.000082-1.6587-0.0067-4.105-0.01542-6.2232h-0.6903zm1.5811 0c-0.0206 0.5495-0.01986 2.256 0.0037 6.2232h0.25838c0.0096-1.6315 0.000623-4.0911-0.01542-6.2232h-0.24681 0.000009 0.000058-0.000045zm1.5156 0c0.0037 2.0744 0.006 4.1488 0.02314 6.2232h0.23524c0.01593-2.0744 0.0117-4.1488 0.0077-6.2232h-0.26609-0.000045-0.000006zm1.1492 0c0.01083 2.0744 0.0096 4.1488 0.03082 6.2232h0.67873c-0.01745-2.0744-0.02933-4.1488-0.03853-6.2232h-0.67103-0.000007zm1.5387 0c0.0021 2.0744 0.0092 4.1488 0.03085 6.2232h0.2738c-0.0074-2.0744-0.02123-4.1488-0.02695-6.2232h-0.27766zm1.1492 0c0.01413 2.2937 0.02513 5.0497 0.02695 6.1442 0.000065 0.03-0.000064 0.049 0 0.079h1.0759c-0.0098-2.0745-0.02173-4.1489-0.03853-6.2232h-1.0644zm1.5927 0c0.0044 2.0744 0.0083 4.1488 0.02311 6.2232h0.6556c-0.0021-2.0744-0.0075-4.1488-0.01543-6.2232h-0.66331zm1.1762 0c-0.0058 2.0744-0.0058 4.1488 0 6.2232h0.66717c0.0029-2.0744-0.0088-4.1488-0.02311-6.2232h-0.64403zm1.1685 0c0.0098 2.0744 0.01058 4.1488 0.02695 6.2232h0.64789c-0.01354-2.0744-0.02687-4.1488-0.03853-6.2232h-0.63632zm1.9166 0c0.0044 2.0744 0.02006 4.1488 0.03085 6.2232h0.6633c-0.0058-2.0744-0.005-4.1488-0.01159-6.2232h-0.68259-0.000008-0.000007zm1.9591 0c0.01709 2.0743-0.01391 4.1489 0.01159 6.2232h0.28537c-0.0021-2.0744-0.01731-4.1488-0.03469-6.2232h-0.26224 0.000008zm0.75586 0c0.02115 2.0744 0.01977 4.1488 0.03853 6.2232h0.24682c0.0085-1.5865 0.005-4.0711-0.0036-6.2232h-0.28152-0.000007-0.000051 0.000044zm1.6004 0c0.005 2.5914 0.02122 5.2737 0.04237 6.2232h0.65173c-0.000246-2.0744-0.01238-4.1488-0.01927-6.2232h-0.67487zm1.9668 0c0.01825 2.0744 0.01267 4.1488 0.02695 6.2232h0.26995c-0.0074-2.0744-0.02035-4.1488-0.02695-6.2232h-0.26995zm0.76742 0c0.0134 2.0744 0.02607 4.1488 0.03469 6.2232h1.0605c-0.01325-2.0744-0.01912-4.1488-0.02311-6.2232h-1.0721 0.000006zm1.5696 0c0.0076 2.0744 0.02513 4.1488 0.03469 6.2232h1.0104c0.0044-1.6601 0.0015-4.1022-0.0036-6.2232h-1.0412-0.000008-0.000035 0.000035z" fill="#333"/>
   <path d="m55.272 983.86v14.099c6.5125-2.2605 14.157-3.9271 22.512-4.7646v-9.3348h-22.512z" fill="url(#linearGradient36176)" opacity="0.7"/>
   <rect x="88.02" rx="1.023" ry="0.691" y="1015" height="2.074" opacity="0.1" width="36.837"/>
  </g>
  <path d="m5.7756 1033.9v1.0133c0 6.668 5.3434 12.032 11.985 12.032h60.809c6.6418 0 11.985-5.3645 11.985-12.032v-1.0133c0 6.6681-5.3434 12.032-11.985 12.032h-60.809c-6.6418 0-11.985-5.3644-11.985-12.032z" fill-opacity="0.098"/>
  <path d="m5.7756 1029.8v5.0663c0 6.668 5.3434 12.032 11.985 12.032h60.809c6.6418 0 11.985-5.3645 11.985-12.032v-5.0663c0 6.6681-5.3434 12.032-11.985 12.032h-60.809c-6.6418 0-11.985-5.3643-11.985-12.032z" fill-opacity="0.235"/>
 </g>
</svg>
