<svg height="96" width="96" xmlns="http://www.w3.org/2000/svg" xmlns:sodipodi="http://sodipodi.sourceforge.net/DTD/sodipodi-0.dtd" xmlns:inkscape="http://www.inkscape.org/namespaces/inkscape">
 <defs>
  <filter x="-0.114" y="-1.415" height="3.83" color-interpolation-filters="sRGB" id="filter4180" width="1.229">
   <feGaussianBlur stdDeviation="3.53729"/>
  </filter>
  <radialGradient cy="84" r="30" gradientUnits="userSpaceOnUse" id="radialGradient4509" cx="48" gradientTransform="matrix(1.0667 0 0 0.06667 -3.2 77.4)">
   <stop stop-color="#4dbeff"/>
   <stop stop-color="#1379ff" stop-opacity="0.65" offset="0.672"/>
   <stop stop-color="#06f" stop-opacity="0" offset="1"/>
  </radialGradient>
  <linearGradient x2="0" y1="6" y2="78" gradientUnits="userSpaceOnUse" id="linearGradient5310" gradientTransform="matrix(1.1052 0 0 1.2929 -4.5 -5.148)">
   <stop stop-color="#f0f0f0"/>
   <stop stop-color="#b4b4b4" offset="1"/>
  </linearGradient>
  <filter x="-0.186" y="-0.198" height="1.397" color-interpolation-filters="sRGB" id="filter3813" width="1.372">
   <feGaussianBlur stdDeviation="2.48"/>
  </filter>
  <clipPath id="clipPath3807">
   <path d="m112 6c-3.324 0-6 2.676-6 6v58c0 3.324 2.676 6 6 6h72c3.324 0 6-2.676 6-6v-58c0-3.324-2.676-6-6-6h-72zm36 18 16 18h-32l16-18zm-16 22h32v8h-32v-8z"/>
  </clipPath>
  <linearGradient x2="0" y1="51.959" y2="24" gradientUnits="userSpaceOnUse" id="linearGradient4830" gradientTransform="matrix(1 0 0 1 0 2)">
   <stop stop-color="#4d4d4d" stop-opacity="0.707"/>
   <stop stop-color="#4d4d4d" stop-opacity="0.252" offset="1"/>
  </linearGradient>
 </defs>
 <g transform="matrix(1 0 0 1 0 -956.36)">
  <rect x="3.353" rx="12.724" y="959.35" fill-opacity="0.02" height="89.98" width="89.62"/>
  <rect x="3.959" rx="12.552" y="959.96" fill-opacity="0.039" height="88.76" width="88.41"/>
  <rect x="4.564" rx="12.38" y="960.57" fill-opacity="0.078" height="87.55" width="87.2"/>
  <rect x="5.17" rx="12.208" y="961.18" fill-opacity="0.157" height="86.33" width="85.991"/>
  <path d="m17.75 5.4062c-6.642 0-11.969 5.3948-11.969 12.063l0.0002 61.031c0 6.668 5.3268 12.031 11.969 12.031h60.812c6.642 0 11.969-5.363 11.969-12.031v-61.031c0-6.668-5.327-12.063-11.969-12.063l-60.812 0.0002z" fill="url(#linearGradient5310)" transform="matrix(1 0 0 1 0 956.36)"/>
  <path d="m5.7756 1029.8v5.0663c0 6.668 5.3434 12.032 11.985 12.032h60.809c6.6418 0 11.985-5.3645 11.985-12.032v-5.0663c0 6.6681-5.3434 12.032-11.985 12.032h-60.809c-6.6418 0-11.985-5.3643-11.985-12.032z" fill-opacity="0.118"/>
  <path d="m5.7756 1033.9v1.0133c0 6.668 5.3434 12.032 11.985 12.032h60.809c6.6418 0 11.985-5.3645 11.985-12.032v-1.0133c0 6.6681-5.3434 12.032-11.985 12.032h-60.809c-6.6418 0-11.985-5.3644-11.985-12.032z" fill-opacity="0.098"/>
  <g transform="matrix(1 0 0 1 0.22 955.67)">
   <rect x="10.911" rx="6.744" ry="3" y="80" fill="#06f" height="6" filter="url(#filter4180)" opacity="0.6" width="74.18"/>
   <rect x="16" rx="5.818" ry="2" y="81" fill="url(#radialGradient4509)" height="4" width="64"/>
  </g>
  <path d="m5.7756 1024.4v1.0133c0 6.668 5.3434 12.032 11.985 12.032h60.809c6.6418 0 11.985-5.3645 11.985-12.032v-1.0133c0 6.6681-5.3434 12.032-11.985 12.032h-60.809c-6.6418 0-11.985-5.3644-11.985-12.032z" fill-opacity="0.311"/>
  <path d="m5.7756 1020.1v5.0663c0 6.668 5.3434 12.032 11.985 12.032h60.809c6.6418 0 11.985-5.3645 11.985-12.032v-5.0663c0 6.6681-5.3434 12.032-11.985 12.032h-60.809c-6.6418 0-11.985-5.3643-11.985-12.032z" fill-opacity="0.212"/>
  <g transform="matrix(1.2261 0 0 1.2834 -10.418 945.6)">
   <path d="m148 24-16 18h32l-16-18zm-16 22v8h32v-8h-32z" stroke-width="3" clip-path="url(#clipPath3807)" fill="none" stroke="#fff" filter="url(#filter3813)" opacity="0.8" transform="matrix(1 0 0 1 -100 0)"/>
   <path d="m48 24-16 18h32l-16-18zm-16 22v8h32v-8h-32z" fill="url(#linearGradient4830)"/>
   <path d="m48 24-16 18h0.875l15.125-17 15.125 17h0.875l-16-18zm-16 22v1h32v-1h-32z" opacity="0.4"/>
  </g>
 </g>
</svg>
