<?xml version="1.0" encoding="UTF-8" standalone="no"?>
<svg
   xmlns:dc="http://purl.org/dc/elements/1.1/"
   xmlns:cc="http://creativecommons.org/ns#"
   xmlns:rdf="http://www.w3.org/1999/02/22-rdf-syntax-ns#"
   xmlns:svg="http://www.w3.org/2000/svg"
   xmlns="http://www.w3.org/2000/svg"
   xmlns:xlink="http://www.w3.org/1999/xlink"
   xmlns:sodipodi="http://sodipodi.sourceforge.net/DTD/sodipodi-0.dtd"
   xmlns:inkscape="http://www.inkscape.org/namespaces/inkscape"
   height="96"
   width="96"
   id="svg2"
   version="1.1"
   inkscape:version="0.91 r13725"
   sodipodi:docname="gnome-system-monitor.svg"
   inkscape:export-filename="/home/winardiaris/.icons/Tebu/apps/96/gnome-system-monitor.png"
   inkscape:export-xdpi="90"
   inkscape:export-ydpi="90">
  <metadata
     id="metadata187">
    <rdf:RDF>
      <cc:Work
         rdf:about="">
        <dc:format>image/svg+xml</dc:format>
        <dc:type
           rdf:resource="http://purl.org/dc/dcmitype/StillImage" />
      </cc:Work>
    </rdf:RDF>
  </metadata>
  <sodipodi:namedview
     pagecolor="#ffffff"
     bordercolor="#666666"
     borderopacity="1"
     objecttolerance="10"
     gridtolerance="10"
     guidetolerance="10"
     inkscape:pageopacity="0"
     inkscape:pageshadow="2"
     inkscape:window-width="1366"
     inkscape:window-height="718"
     id="namedview185"
     showgrid="false"
     inkscape:zoom="2.4583333"
     inkscape:cx="22.779661"
     inkscape:cy="48"
     inkscape:window-x="0"
     inkscape:window-y="24"
     inkscape:window-maximized="1"
     inkscape:current-layer="svg2" />
  <defs
     id="defs4">
    <linearGradient
       x2="0"
       y1="84.03"
       y2="2.993"
       gradientUnits="userSpaceOnUse"
       id="linearGradient6400">
      <stop
         stop-color="#ccc"
         id="stop7" />
      <stop
         stop-color="#dae0de"
         offset="1"
         id="stop9" />
    </linearGradient>
    <radialGradient
       cy="78.29"
       r="38.957"
       gradientUnits="userSpaceOnUse"
       id="radialGradient3140"
       cx="47.1"
       gradientTransform="matrix(1.3031,0,0,1.0199,-101.96785,-12.741)">
      <stop
         stop-color="#505052"
         id="stop12" />
      <stop
         stop-color="#141414"
         offset="1"
         id="stop14" />
    </radialGradient>
    <linearGradient
       x1="15.594"
       x2="111.61"
       spreadMethod="reflect"
       gradientUnits="userSpaceOnUse"
       id="linearGradient3836"
       gradientTransform="matrix(0.70315 0 0 0.69956 3.197 4.047)">
      <stop
         stop-color="#f3cb20"
         stop-opacity="0"
         id="stop17" />
      <stop
         stop-color="#f3cb20"
         offset="0.22"
         id="stop19" />
      <stop
         stop-color="#f3cb20"
         offset="0.561"
         id="stop21" />
      <stop
         stop-color="#f3cb20"
         stop-opacity="0"
         offset="1"
         id="stop23" />
    </linearGradient>
    <linearGradient
       id="linearGradient3207-9">
      <stop
         stop-color="#ffdf5e"
         id="stop26" />
      <stop
         stop-color="#ffdf5e"
         stop-opacity="0"
         offset="1"
         id="stop28" />
    </linearGradient>
    <radialGradient
       cy="28"
       r="4"
       xlink:href="#linearGradient3207-9"
       gradientUnits="userSpaceOnUse"
       id="radialGradient4906"
       cx="28"
       gradientTransform="translate(33,19)" />
    <radialGradient
       cy="28"
       r="4"
       xlink:href="#linearGradient3207-9"
       gradientUnits="userSpaceOnUse"
       id="radialGradient4908"
       cx="28"
       gradientTransform="translate(33,7)" />
    <radialGradient
       cy="28"
       r="4"
       xlink:href="#linearGradient3207-9"
       gradientUnits="userSpaceOnUse"
       id="radialGradient4910"
       cx="28"
       gradientTransform="translate(33,-5)" />
    <radialGradient
       cy="28"
       r="4"
       xlink:href="#linearGradient3207-9"
       gradientUnits="userSpaceOnUse"
       id="radialGradient4912"
       cx="28"
       gradientTransform="translate(33,43)" />
    <radialGradient
       cy="28"
       r="4"
       xlink:href="#linearGradient3207-9"
       gradientUnits="userSpaceOnUse"
       id="radialGradient4914"
       cx="28"
       gradientTransform="translate(33,31)" />
    <radialGradient
       cy="28"
       r="4"
       xlink:href="#linearGradient3207-9"
       gradientUnits="userSpaceOnUse"
       id="radialGradient4916"
       cx="28"
       gradientTransform="translate(45,19)" />
    <radialGradient
       cy="28"
       r="4"
       xlink:href="#linearGradient3207-9"
       gradientUnits="userSpaceOnUse"
       id="radialGradient4918"
       cx="28"
       gradientTransform="translate(45,7)" />
    <radialGradient
       cy="28"
       r="4"
       xlink:href="#linearGradient3207-9"
       gradientUnits="userSpaceOnUse"
       id="radialGradient4920"
       cx="28"
       gradientTransform="translate(45,-5)" />
    <radialGradient
       cy="28"
       r="4"
       xlink:href="#linearGradient3207-9"
       gradientUnits="userSpaceOnUse"
       id="radialGradient4922"
       cx="28"
       gradientTransform="translate(45,43)" />
    <radialGradient
       cy="28"
       r="4"
       xlink:href="#linearGradient3207-9"
       gradientUnits="userSpaceOnUse"
       id="radialGradient4924"
       cx="28"
       gradientTransform="translate(45,31)" />
    <radialGradient
       cy="28"
       r="4"
       xlink:href="#linearGradient3207-9"
       gradientUnits="userSpaceOnUse"
       id="radialGradient4926"
       cx="28"
       gradientTransform="translate(21,19)" />
    <radialGradient
       cy="28"
       r="4"
       xlink:href="#linearGradient3207-9"
       gradientUnits="userSpaceOnUse"
       id="radialGradient4928"
       cx="28"
       gradientTransform="translate(21,7)" />
    <radialGradient
       cy="28"
       r="4"
       xlink:href="#linearGradient3207-9"
       gradientUnits="userSpaceOnUse"
       id="radialGradient4930"
       cx="28"
       gradientTransform="translate(21,-5)" />
    <radialGradient
       cy="28"
       r="4"
       xlink:href="#linearGradient3207-9"
       gradientUnits="userSpaceOnUse"
       id="radialGradient4932"
       cx="28"
       gradientTransform="translate(21,43)" />
    <radialGradient
       cy="28"
       r="4"
       xlink:href="#linearGradient3207-9"
       gradientUnits="userSpaceOnUse"
       id="radialGradient4934"
       cx="28"
       gradientTransform="translate(21,31)" />
    <radialGradient
       cy="28"
       r="4"
       xlink:href="#linearGradient3207-9"
       gradientUnits="userSpaceOnUse"
       id="radialGradient4936"
       cx="28"
       gradientTransform="translate(-3,19)" />
    <radialGradient
       cy="28"
       r="4"
       xlink:href="#linearGradient3207-9"
       gradientUnits="userSpaceOnUse"
       id="radialGradient4938"
       cx="28"
       gradientTransform="translate(-3,7)" />
    <radialGradient
       cy="28"
       r="4"
       xlink:href="#linearGradient3207-9"
       gradientUnits="userSpaceOnUse"
       id="radialGradient4940"
       cx="28"
       gradientTransform="translate(-3,-5)" />
    <radialGradient
       cy="28"
       r="4"
       xlink:href="#linearGradient3207-9"
       gradientUnits="userSpaceOnUse"
       id="radialGradient4942"
       cx="28"
       gradientTransform="translate(-3,43)" />
    <radialGradient
       cy="28"
       r="4"
       xlink:href="#linearGradient3207-9"
       gradientUnits="userSpaceOnUse"
       id="radialGradient4944"
       cx="28"
       gradientTransform="translate(-3,31)" />
    <radialGradient
       cy="28"
       r="4"
       xlink:href="#linearGradient3207-9"
       gradientUnits="userSpaceOnUse"
       id="radialGradient4946"
       cx="28"
       gradientTransform="translate(9,19)" />
    <radialGradient
       cy="28"
       r="4"
       xlink:href="#linearGradient3207-9"
       gradientUnits="userSpaceOnUse"
       id="radialGradient4948"
       cx="28"
       gradientTransform="translate(9,7)" />
    <radialGradient
       cy="28"
       r="4"
       xlink:href="#linearGradient3207-9"
       gradientUnits="userSpaceOnUse"
       id="radialGradient4950"
       cx="28"
       gradientTransform="translate(9,-5)" />
    <radialGradient
       cy="28"
       r="4"
       xlink:href="#linearGradient3207-9"
       gradientUnits="userSpaceOnUse"
       id="radialGradient4952"
       cx="28"
       gradientTransform="translate(9,43)" />
    <radialGradient
       cy="28"
       r="4"
       xlink:href="#linearGradient3207-9"
       gradientUnits="userSpaceOnUse"
       id="radialGradient4954"
       cx="28"
       gradientTransform="translate(9,31)" />
    <linearGradient
       inkscape:collect="always"
       xlink:href="#linearGradient3836"
       id="linearGradient4315"
       gradientUnits="userSpaceOnUse"
       gradientTransform="matrix(0.70315,0,0,0.69956,3.197,4.047)"
       spreadMethod="reflect"
       x1="15.594"
       x2="111.61" />
    <linearGradient
       inkscape:collect="always"
       xlink:href="#linearGradient3836"
       id="linearGradient4317"
       gradientUnits="userSpaceOnUse"
       gradientTransform="matrix(0.70315,0,0,0.69956,3.197,4.047)"
       spreadMethod="reflect"
       x1="15.594"
       x2="111.61" />
    <linearGradient
       inkscape:collect="always"
       xlink:href="#linearGradient3836"
       id="linearGradient4319"
       gradientUnits="userSpaceOnUse"
       gradientTransform="matrix(0.70315,0,0,0.69956,3.197,4.047)"
       spreadMethod="reflect"
       x1="15.594"
       x2="111.61" />
    <linearGradient
       inkscape:collect="always"
       xlink:href="#linearGradient3836"
       id="linearGradient4321"
       gradientUnits="userSpaceOnUse"
       gradientTransform="matrix(0.70315,0,0,0.69956,3.197,4.047)"
       spreadMethod="reflect"
       x1="15.594"
       x2="111.61" />
    <radialGradient
       inkscape:collect="always"
       xlink:href="#radialGradient3140-4"
       id="radialGradient4214"
       cx="48.350651"
       cy="78.295013"
       fx="48.350651"
       fy="78.295013"
       r="40.243763"
       gradientTransform="matrix(1.4430209,-0.01824533,0.01429472,1.1305677,-22.446317,-9.405606)"
       gradientUnits="userSpaceOnUse" />
    <radialGradient
       cy="78.290001"
       r="38.957001"
       gradientUnits="userSpaceOnUse"
       id="radialGradient3140-4"
       cx="47.099998"
       gradientTransform="matrix(1.5238265,0,0,1.3688686,-138.98199,-28.426842)">
      <stop
         stop-color="#505052"
         id="stop12-9" />
      <stop
         stop-color="#141414"
         offset="1"
         id="stop14-7" />
    </radialGradient>
    <linearGradient
       inkscape:collect="always"
       xlink:href="#linearGradient4216"
       id="linearGradient4222"
       x1="47.330284"
       y1="4.3547072"
       x2="49.592384"
       y2="95.269958"
       gradientUnits="userSpaceOnUse" />
    <linearGradient
       inkscape:collect="always"
       id="linearGradient4216">
      <stop
         style="stop-color:#000000;stop-opacity:0.4627451"
         offset="0"
         id="stop4218" />
      <stop
         style="stop-color:#000000;stop-opacity:0;"
         offset="1"
         id="stop4220" />
    </linearGradient>
  </defs>
  <rect
     style="fill-opacity:0.02000002"
     id="rect57"
     width="89.620003"
     height="89.980003"
     y="2.9899757"
     rx="12.724"
     x="3.3529999" />
  <rect
     style="fill-opacity:0.03900003"
     id="rect59"
     width="88.410004"
     height="88.760002"
     y="3.6000221"
     rx="12.552"
     x="3.9590001" />
  <rect
     style="fill-opacity:0.078"
     id="rect61"
     width="87.199997"
     height="87.550003"
     y="4.2100072"
     rx="12.38"
     x="4.5640001" />
  <rect
     style="fill-opacity:0.15700001"
     id="rect63"
     width="85.990997"
     height="86.330002"
     y="4.8199925"
     rx="12.208"
     x="5.1700001" />
  <path
     inkscape:connector-curvature="0"
     style="fill:url(#linearGradient6400)"
     id="path65"
     d="m 17.75,5.4062 c -6.642,0 -11.969,5.3948 -11.969,12.063 l 2e-4,61.031 c 0,6.668 5.3268,12.031 11.969,12.031 l 60.812,0 c 6.642,0 11.969,-5.363 11.969,-12.031 l 0,-61.031 c 0,-6.668 -5.327,-12.063 -11.969,-12.063 l -60.812,2e-4 z" />
  <path
     style="fill-opacity:0.11799999"
     inkscape:connector-curvature="0"
     id="path67"
     d="m 5.7756,73.44 0,5.0663 c 0,6.668 5.3434,12.032 11.985,12.032 l 60.809,0 c 6.6418,0 11.985,-5.3645 11.985,-12.032 l 0,-5.0663 c 0,6.6681 -5.3434,12.032 -11.985,12.032 l -60.809,0 c -6.6418,0 -11.985,-5.3643 -11.985,-12.032 z" />
  <path
     style="fill-opacity:0.09800002"
     inkscape:connector-curvature="0"
     id="path69"
     d="m 5.7756,77.54 0,1.0133 c 0,6.668 5.3434,12.032 11.985,12.032 l 60.809,0 c 6.6418,0 11.985,-5.3645 11.985,-12.032 l 0,-1.0133 c 0,6.6681 -5.3434,12.032 -11.985,12.032 l -60.809,0 c -6.6418,0 -11.985,-5.3644 -11.985,-12.032 z" />
  <path
     style="fill:url(#radialGradient4214);fill-opacity:1;stroke:url(#linearGradient4222);stroke-width:1.29999995;stroke-linejoin:miter;stroke-miterlimit:4;stroke-dasharray:none;stroke-opacity:1"
     d="m 19.279271,7.419707 c -6.307942,0 -11.3667845,5.122995 -11.3667845,11.45582 l 0,53.265115 c 0.058741,6.280911 5.1051115,11.318557 11.3760595,11.318557 l 57.7521,0 c 6.15973,0 11.129128,-4.862847 11.359367,-10.988387 l 0,-53.595285 c 0,-6.332635 -5.058843,-11.45582 -11.366786,-11.45582 l -57.753956,0 z"
     id="path4205"
     inkscape:connector-curvature="0" />
  <g
     id="g159"
     transform="matrix(1,0,0,0.88127,-0.834,-0.74)">
    <path
       inkscape:connector-curvature="0"
       style="fill:url(#linearGradient4315);fill-rule:evenodd"
       id="path161"
       d="M 30,27.25 25.656,52 11,52 l 0,2 16.344,0 3.5938,-20.594 5.1562,31.75 0.98438,5.4464 0.98438,-5.4464 2.2188,-15.094 7.625,0 1.125,-3.5 3.5625,12.875 2.625,-5.5312 31.5,0 0,-2 -32.75,0 -0.875,1.8125 -3.9375,-14.188 -2.7188,8.5312 -7.875,0 -1.5312,10.344 -5.0625,-31.125 -0.968,-5.104 -1,5.074 z" />
    <path
       style="fill:#f0c512;fill-rule:evenodd"
       inkscape:connector-curvature="0"
       id="path163"
       d="m 66,72.51 c 0,2.526 2.893,3.929 4.519,5.49 C 72.222,76.365 75,74.805 75,72.51 75,70.358 71.315,69.627 70.5,72.132 69.563,69.686 66,70.135 66,72.51 Z" />
    <text
       style="font-weight:bold;font-size:10.94799995px;line-height:100%;font-family:'Liberation Sans';opacity:0.8;fill:#f0c512"
       sodipodi:linespacing="100%"
       id="text165"
       transform="scale(1.0335,0.96758)"
       line-height="100%"
       font-weight="bold"
       y="80.510002"
       x="49.18"
       font-size="10.948">
      <tspan
         id="tspan167"
         y="80.510002"
         x="49.18">49</tspan>
    </text>
    <rect
       style="fill:#f0c512"
       id="rect169"
       width="9"
       height="2"
       y="36"
       ry="0.667"
       rx="0.89999998"
       x="66" />
    <rect
       style="fill:#f0c512"
       id="rect171"
       width="9"
       height="2"
       y="32"
       ry="0.667"
       rx="0.89999998"
       x="66" />
    <rect
       style="opacity:0.5;fill:#f0c512"
       id="rect173"
       width="9"
       height="2"
       y="28"
       ry="0.667"
       rx="0.89999998"
       x="66" />
    <rect
       style="opacity:0.5;fill:#f0c512"
       id="rect175"
       width="9"
       height="2"
       y="24"
       ry="0.667"
       rx="0.89999998"
       x="66" />
    <rect
       style="opacity:0.5;fill:#f0c512"
       id="rect177"
       width="9"
       height="2"
       y="20"
       ry="0.667"
       rx="0.89999998"
       x="66" />
    <path
       inkscape:connector-curvature="0"
       style="opacity:0.05;fill:url(#linearGradient4317);fill-rule:evenodd"
       id="path179"
       d="m 30.625,19.062 a 1.0854,1.0854 0 0 0 -0.03125,0.03125 c -0.74125,0.1166 -1.4113,0.45412 -1.8438,0.9375 -0.43243,0.48338 -0.66157,1.0653 -0.8125,1.5938 -0.30187,1.0569 -0.3324,2.0863 -0.5,2.6562 a 1.0854,1.0854 0 0 0 -0.03125,0.125 c -1.53,8.156 -2.891,16.322 -4.345,24.47 -4.166,0.02 -8.382,-0.077 -12.593,0.063 a 1.0854,1.0854 0 0 0 -0.219,0.031 c -1.2268,0.28187 -1.9668,1.3086 -2.2188,2.25 -0.2276,0.85028 -0.1781,1.662 -0.125,2.3438 0.00569,0.07304 -0.037213,0.18068 -0.03125,0.25 l 0.0625,0 c -0.053524,1.0585 0.38754,2.0459 1.125,2.625 0.73493,0.57713 1.7153,0.80487 2.6875,0.65625 l 0,0.03125 c 5.3459,-0.04171 10.76,0.08465 16.156,-0.0625 a 1.0854,1.0854 0 0 0 0.313,-0.062 c 1.3857,-0.44873 2.028,-1.7093 2.25,-2.75 0.20073,-0.94089 0.24623,-1.7768 0.375,-2.3438 1.0555,6.6006 2.0128,13.223 3.3438,19.781 a 1.0854,1.0854 0 0 0 0.09375,0.25 c 0.66038,1.4161 2.2426,1.8913 3.5,1.5938 1.1773,-0.27861 2.2101,-1.3412 2.3125,-2.75 l 0.0625,0 c 0.01647,-0.08276 0.01495,-0.16722 0.03125,-0.25 1.1369,-5.7726 1.8762,-11.59 2.75,-17.344 1.5191,-0.0021 3.0634,-0.0013 4.6562,-0.0625 0.72896,2.5385 1.32,5.189 2.25,7.7812 a 1.0854,1.0854 0 0 0 0.09375,0.1875 c 1.3867,2.2998 4.8955,1.5493 5.6562,-0.875 l 0.032,0.031 1.531,-3.219 c 9.983,-0.017 19.98,0.041 29.969,-0.031 a 1.0854,1.0854 0 0 0 0.1875,-0.03125 c 1.147,-0.218 1.951,-1.086 2.282,-1.969 0.27912,-0.74487 0.25101,-1.4868 0.1875,-2.1875 l 0.03125,0 c 0.02167,-0.09677 -0.01262,-0.18498 0,-0.28125 0.0056,-0.04279 -0.0039,-0.08237 0,-0.125 0.18606,-2.0497 -1.5609,-3.8855 -3.6562,-3.5938 l 0,-0.03125 -31.188,0 c -1.0115,-3.5229 -1.8827,-7.1409 -3.0625,-10.688 A 1.0854,1.0854 0 0 0 51.8129,37.9062 c -1.4201,-2.5066 -5.3541,-1.4861 -5.75,1.2188 l -0.03125,0 -1.8125,5.8438 c -1.987,0.015 -4.066,-0.102 -6.218,0.125 -0.01,-0.133 -0.019,-0.23 -0.031,-0.375 -0.024,-0.278 -0.111,-0.574 -0.219,-0.907 l 0.03125,0 c -1.276,-7.49 -2.266,-15.081 -3.843,-22.593 a 1.0854,1.0854 0 0 0 -0.032,-0.157 c -0.50299,-1.3485 -1.8846,-2.1515 -3.2812,-2 z" />
    <path
       inkscape:connector-curvature="0"
       style="opacity:0.07999998;fill:url(#linearGradient4319);fill-rule:evenodd"
       id="path181"
       d="m 30.75,20.156 c -2.1093,0.33181 -1.8141,2.8712 -2.2737,4.4343 -1.583,8.4411 -2.9911,16.922 -4.5076,25.378 -4.486,0.043 -8.9997,-0.08514 -13.469,0.0625 -1.671,0.38394 -1.6479,2.3304 -1.5312,3.6869 -0.21657,1.5317 1.373,2.6414 2.7949,2.3131 5.3685,-0.04189 10.752,0.08365 16.111,-0.0625 1.9517,-0.63202 1.477,-3.0584 1.9604,-4.6344 0.33611,-1.9344 0.67222,-3.8687 1.0083,-5.8031 1.4733,8.6567 2.6681,17.372 4.4062,25.938 0.8621,1.8487 3.9079,1.1256 3.8503,-0.90677 1.2166,-6.1149 1.9772,-12.305 2.9309,-18.468 2.1229,-0.04177 4.2624,0.08356 6.375,-0.0625 0.85183,2.8206 1.4786,5.7401 2.4688,8.5 0.93703,1.5541 3.401,0.97665 3.7785,-0.73536 l 1.8465,-3.8584 c 10.207,-0.02103 20.427,0.04193 30.625,-0.03125 1.5388,-0.2921 1.8214,-2.0315 1.625,-3.3364 0.34471,-1.5392 -1.0357,-3.0287 -2.604,-2.6949 l -31.99,0 c -1.12,-3.802 -2.036,-7.697 -3.281,-11.439 -0.961,-1.697 -3.724,-0.888 -3.797,1.014 -0.693,2.193 -1.385,4.386 -2.078,6.579 -2.3802,0.07949 -4.8046,-0.16158 -7.1562,0.125 -1.2172,1.183 -0.74069,-1.4079 -1.1153,-2.1695 -1.28,-7.517 -2.287,-15.091 -3.853,-22.548 -0.316,-0.848 -1.228,-1.379 -2.125,-1.282 z" />
    <path
       inkscape:connector-curvature="0"
       style="opacity:0.2;fill:url(#linearGradient4321);fill-rule:evenodd"
       id="path183"
       d="m 30.875,21.094 a 1.0889,1.0889 0 0 0 -0.9375,0.875 l -1,5.0625 a 1.0889,1.0889 0 0 0 0,0.03125 l -4.1875,23.844 -13.75,0 a 1.0889,1.0889 0 0 0 -1.0938,1.093 l 0,2 A 1.0889,1.0889 0 0 0 11,55.09375 l 16.344,0 a 1.0889,1.0889 0 0 0 1.0625,-0.90625 l 2.5,-14.281 4.125,25.438 0.969,5.436 a 1.0889,1.0889 0 0 0 2.125,0 l 1,-5.4375 a 1.0889,1.0889 0 0 0 0,-0.03125 l 2.0938,-14.156 6.6875,0 a 1.0889,1.0889 0 0 0 1.0312,-0.75 l 2.5938,9.3125 a 1.0889,1.0889 0 0 0 2.0312,0.1875 l 2.344,-4.908 30.812,0 a 1.0889,1.0889 0 0 0 1.0938,-1.0938 l 0,-2 a 1.0889,1.0889 0 0 0 -1.093,-1.094 l -32.75,0 a 1.0889,1.0889 0 0 0 -0.5,0.125 l -3.25,-11.687 a 1.0889,1.0889 0 0 0 -2.094,-0.062 l -2.4688,7.7812 -7.0938,0 a 1.0889,1.0889 0 0 0 -1.062,0.937 l -0.53125,3.5 -3.9375,-24.312 a 1.0889,1.0889 0 0 0 0,-0.03125 l -0.969,-5.094 a 1.0889,1.0889 0 0 0 -1.1875,-0.875 z" />
  </g>
  <g
     id="g79"
     transform="matrix(1.1975787,0,0,1.0661774,-11.110894,-5.0582401)">
    <g
       style="fill:none;stroke:#f3c770;stroke-width:2"
       id="g81">
      <path
         style="opacity:0.07999998"
         inkscape:connector-curvature="0"
         id="path83"
         d="m 73,12 0,70" />
      <path
         style="opacity:0.07999998"
         inkscape:connector-curvature="0"
         id="path85"
         d="m 61,12 0,70" />
      <path
         style="opacity:0.07999998"
         inkscape:connector-curvature="0"
         id="path87"
         d="m 49,12 0,70" />
      <path
         style="opacity:0.07999998"
         inkscape:connector-curvature="0"
         id="path89"
         d="m 37,12 0,70" />
      <path
         style="opacity:0.07999998"
         inkscape:connector-curvature="0"
         id="path91"
         d="m 25,12 0,70" />
    </g>
    <g
       style="fill:none;stroke:#f3c770;stroke-width:2"
       id="g93">
      <path
         style="opacity:0.07999998"
         inkscape:connector-curvature="0"
         id="path95"
         d="m 13,71 70,0" />
      <path
         style="opacity:0.07999998"
         inkscape:connector-curvature="0"
         id="path97"
         d="m 13,59 70,0" />
      <path
         style="opacity:0.07999998"
         inkscape:connector-curvature="0"
         id="path99"
         d="m 13,47 70,0" />
      <path
         style="opacity:0.07999998"
         inkscape:connector-curvature="0"
         id="path101"
         d="m 13,35 70,0" />
      <path
         style="opacity:0.07999998"
         inkscape:connector-curvature="0"
         id="path103"
         d="m 13,23 70,0" />
    </g>
    <path
       style="opacity:0.07999998;fill:none;stroke:#f3c770;stroke-width:2"
       inkscape:connector-curvature="0"
       id="path105"
       d="M 13,5 83,5" />
    <g
       style="opacity:0.75"
       id="g107">
      <path
         inkscape:connector-curvature="0"
         style="opacity:0.15;fill:url(#radialGradient4906)"
         id="path109"
         d="m 57,46 8,0 0,2 -8,0 0,-2 z m 5,-3 0,8 -2,0 0,-8 2,0 z" />
      <path
         inkscape:connector-curvature="0"
         style="opacity:0.15;fill:url(#radialGradient4908)"
         id="path111"
         d="m 57,34 8,0 0,2 -8,0 0,-2 z m 5,-3 0,8 -2,0 0,-8 2,0 z" />
      <path
         inkscape:connector-curvature="0"
         style="opacity:0.15;fill:url(#radialGradient4910)"
         id="path113"
         d="m 57,22 8,0 0,2 -8,0 0,-2 z m 5,-3 0,8 -2,0 0,-8 2,0 z" />
      <path
         inkscape:connector-curvature="0"
         style="opacity:0.15;fill:url(#radialGradient4912)"
         id="path115"
         d="m 57,70 8,0 0,2 -8,0 0,-2 z m 5,-3 0,8 -2,0 0,-8 2,0 z" />
      <path
         inkscape:connector-curvature="0"
         style="opacity:0.15;fill:url(#radialGradient4914)"
         id="path117"
         d="m 57,58 8,0 0,2 -8,0 0,-2 z m 5,-3 0,8 -2,0 0,-8 2,0 z" />
      <path
         inkscape:connector-curvature="0"
         style="opacity:0.15;fill:url(#radialGradient4916)"
         id="path119"
         d="m 69,46 8,0 0,2 -8,0 0,-2 z m 5,-3 0,8 -2,0 0,-8 2,0 z" />
      <path
         inkscape:connector-curvature="0"
         style="opacity:0.15;fill:url(#radialGradient4918)"
         id="path121"
         d="m 69,34 8,0 0,2 -8,0 0,-2 z m 5,-3 0,8 -2,0 0,-8 2,0 z" />
      <path
         inkscape:connector-curvature="0"
         style="opacity:0.15;fill:url(#radialGradient4920)"
         id="path123"
         d="m 69,22 8,0 0,2 -8,0 0,-2 z m 5,-3 0,8 -2,0 0,-8 2,0 z" />
      <path
         inkscape:connector-curvature="0"
         style="opacity:0.15;fill:url(#radialGradient4922)"
         id="path125"
         d="m 69,70 8,0 0,2 -8,0 0,-2 z m 5,-3 0,8 -2,0 0,-8 2,0 z" />
      <path
         inkscape:connector-curvature="0"
         style="opacity:0.15;fill:url(#radialGradient4924)"
         id="path127"
         d="m 69,58 8,0 0,2 -8,0 0,-2 z m 5,-3 0,8 -2,0 0,-8 2,0 z" />
      <path
         inkscape:connector-curvature="0"
         style="opacity:0.15;fill:url(#radialGradient4926)"
         id="path129"
         d="m 45,46 8,0 0,2 -8,0 0,-2 z m 5,-3 0,8 -2,0 0,-8 2,0 z" />
      <path
         inkscape:connector-curvature="0"
         style="opacity:0.15;fill:url(#radialGradient4928)"
         id="path131"
         d="m 45,34 8,0 0,2 -8,0 0,-2 z m 5,-3 0,8 -2,0 0,-8 2,0 z" />
      <path
         inkscape:connector-curvature="0"
         style="opacity:0.15;fill:url(#radialGradient4930)"
         id="path133"
         d="m 45,22 8,0 0,2 -8,0 0,-2 z m 5,-3 0,8 -2,0 0,-8 2,0 z" />
      <path
         inkscape:connector-curvature="0"
         style="opacity:0.15;fill:url(#radialGradient4932)"
         id="path135"
         d="m 45,70 8,0 0,2 -8,0 0,-2 z m 5,-3 0,8 -2,0 0,-8 2,0 z" />
      <path
         inkscape:connector-curvature="0"
         style="opacity:0.15;fill:url(#radialGradient4934)"
         id="path137"
         d="m 45,58 8,0 0,2 -8,0 0,-2 z m 5,-3 0,8 -2,0 0,-8 2,0 z" />
      <path
         inkscape:connector-curvature="0"
         style="opacity:0.15;fill:url(#radialGradient4936)"
         id="path139"
         d="m 21,46 8,0 0,2 -8,0 0,-2 z m 5,-3 0,8 -2,0 0,-8 2,0 z" />
      <path
         inkscape:connector-curvature="0"
         style="opacity:0.15;fill:url(#radialGradient4938)"
         id="path141"
         d="m 21,34 8,0 0,2 -8,0 0,-2 z m 5,-3 0,8 -2,0 0,-8 2,0 z" />
      <path
         inkscape:connector-curvature="0"
         style="opacity:0.15;fill:url(#radialGradient4940)"
         id="path143"
         d="m 21,22 8,0 0,2 -8,0 0,-2 z m 5,-3 0,8 -2,0 0,-8 2,0 z" />
      <path
         inkscape:connector-curvature="0"
         style="opacity:0.15;fill:url(#radialGradient4942)"
         id="path145"
         d="m 21,70 8,0 0,2 -8,0 0,-2 z m 5,-3 0,8 -2,0 0,-8 2,0 z" />
      <path
         inkscape:connector-curvature="0"
         style="opacity:0.15;fill:url(#radialGradient4944)"
         id="path147"
         d="m 21,58 8,0 0,2 -8,0 0,-2 z m 5,-3 0,8 -2,0 0,-8 2,0 z" />
      <path
         inkscape:connector-curvature="0"
         style="opacity:0.15;fill:url(#radialGradient4946)"
         id="path149"
         d="m 33,46 8,0 0,2 -8,0 0,-2 z m 5,-3 0,8 -2,0 0,-8 2,0 z" />
      <path
         inkscape:connector-curvature="0"
         style="opacity:0.15;fill:url(#radialGradient4948)"
         id="path151"
         d="m 33,34 8,0 0,2 -8,0 0,-2 z m 5,-3 0,8 -2,0 0,-8 2,0 z" />
      <path
         inkscape:connector-curvature="0"
         style="opacity:0.15;fill:url(#radialGradient4950)"
         id="path153"
         d="m 33,22 8,0 0,2 -8,0 0,-2 z m 5,-3 0,8 -2,0 0,-8 2,0 z" />
      <path
         inkscape:connector-curvature="0"
         style="opacity:0.15;fill:url(#radialGradient4952)"
         id="path155"
         d="m 33,70 8,0 0,2 -8,0 0,-2 z m 5,-3 0,8 -2,0 0,-8 2,0 z" />
      <path
         inkscape:connector-curvature="0"
         style="opacity:0.15;fill:url(#radialGradient4954)"
         id="path157"
         d="m 33,58 8,0 0,2 -8,0 0,-2 z m 5,-3 0,8 -2,0 0,-8 2,0 z" />
    </g>
  </g>
</svg>
