<?xml version="1.0" encoding="UTF-8" standalone="no"?>
<svg
   xmlns:dc="http://purl.org/dc/elements/1.1/"
   xmlns:cc="http://creativecommons.org/ns#"
   xmlns:rdf="http://www.w3.org/1999/02/22-rdf-syntax-ns#"
   xmlns:svg="http://www.w3.org/2000/svg"
   xmlns="http://www.w3.org/2000/svg"
   xmlns:xlink="http://www.w3.org/1999/xlink"
   xmlns:sodipodi="http://sodipodi.sourceforge.net/DTD/sodipodi-0.dtd"
   xmlns:inkscape="http://www.inkscape.org/namespaces/inkscape"
   height="96"
   width="96"
   id="svg49"
   version="1.1"
   inkscape:version="0.91 r13725"
   sodipodi:docname="vim.svg">
  <metadata
     id="metadata176">
    <rdf:RDF>
      <cc:Work
         rdf:about="">
        <dc:format>image/svg+xml</dc:format>
        <dc:type
           rdf:resource="http://purl.org/dc/dcmitype/StillImage" />
      </cc:Work>
    </rdf:RDF>
  </metadata>
  <sodipodi:namedview
     pagecolor="#ffffff"
     bordercolor="#666666"
     borderopacity="1"
     objecttolerance="10"
     gridtolerance="10"
     guidetolerance="10"
     inkscape:pageopacity="0"
     inkscape:pageshadow="2"
     inkscape:window-width="640"
     inkscape:window-height="480"
     id="namedview174"
     showgrid="false"
     inkscape:zoom="2.4583333"
     inkscape:cx="48"
     inkscape:cy="48"
     inkscape:current-layer="svg49" />
  <defs
     id="defs51">
    <linearGradient
       x2="0"
       y1="20.221"
       y2="138.66"
       gradientUnits="userSpaceOnUse"
       id="linearGradient3613-94">
      <stop
         stop-color="#fff"
         id="stop54" />
      <stop
         stop-color="#fff"
         stop-opacity="0"
         offset="1"
         id="stop56" />
    </linearGradient>
    <filter
       x="-0.192"
       y="-0.192"
       height="1.384"
       color-interpolation-filters="sRGB"
       id="filter3794-787"
       width="1.384">
      <feGaussianBlur
         stdDeviation="5.28"
         id="feGaussianBlur59" />
    </filter>
    <linearGradient
       x2="0"
       xlink:href="#linearGradient3909"
       y1="527.42"
       y2="513.37"
       gradientUnits="userSpaceOnUse"
       id="linearGradient4031" />
    <linearGradient
       id="linearGradient3909">
      <stop
         stop-color="#c6c3c6"
         id="stop63" />
      <stop
         stop-color="#eae9ea"
         offset="1"
         id="stop65" />
    </linearGradient>
    <linearGradient
       x1="279.12"
       x2="275.04"
       xlink:href="#linearGradient854"
       y1="547.96"
       y2="543.91"
       gradientUnits="userSpaceOnUse"
       id="linearGradient3794"
       gradientTransform="matrix(1.6003 0 0 1.6187 -388.1 -834.61)" />
    <linearGradient
       id="linearGradient854">
      <stop
         id="stop69" />
      <stop
         stop-color="#f5f5f5"
         offset="0.878"
         id="stop71" />
      <stop
         stop-color="#fff"
         offset="1"
         id="stop73" />
    </linearGradient>
    <linearGradient
       x1="737.87"
       x2="723.67"
       xlink:href="#linearGradient854"
       y1="197.22"
       y2="197.27"
       gradientUnits="userSpaceOnUse"
       id="linearGradient3791"
       gradientTransform="matrix(0.58267 0 0 4.4457 -388.1 -834.61)" />
    <linearGradient
       x1="247.92"
       x2="247.85"
       xlink:href="#linearGradient854"
       y1="577.1"
       y2="571.18"
       gradientUnits="userSpaceOnUse"
       id="linearGradient3788"
       gradientTransform="matrix(1.7368 0 0 1.4915 -388.1 -834.61)" />
    <linearGradient
       x1="432.78"
       x2="431.52"
       xlink:href="#linearGradient854"
       y1="444.34"
       y2="448.11"
       gradientUnits="userSpaceOnUse"
       id="linearGradient3785"
       gradientTransform="matrix(1.4044 0 0 1.8445 -544.59 -797.79)" />
    <linearGradient
       x1="196.8"
       x2="192.16"
       xlink:href="#linearGradient854"
       y1="764.65"
       y2="763.53"
       gradientUnits="userSpaceOnUse"
       id="linearGradient3782"
       gradientTransform="matrix(2.316 0 0 1.1185 -388.1 -834.61)" />
    <linearGradient
       x1="195.6"
       x2="193.06"
       xlink:href="#linearGradient854"
       y1="696.41"
       y2="694.71"
       gradientUnits="userSpaceOnUse"
       id="linearGradient3779"
       gradientTransform="matrix(2.1045 0 0 1.2309 -388.1 -834.61)" />
    <linearGradient
       x1="508.59"
       x2="508.46"
       xlink:href="#linearGradient854"
       y1="267.28"
       y2="269.14"
       gradientUnits="userSpaceOnUse"
       id="linearGradient3776"
       gradientTransform="matrix(0.80571 0 0 3.215 -388.1 -834.61)" />
    <linearGradient
       x2="0"
       xlink:href="#linearGradient3909"
       y1="80"
       y2="15.502"
       gradientUnits="userSpaceOnUse"
       id="linearGradient3915" />
    <clipPath
       id="clipPath3613">
      <use
         xlink:href="#SVGCleanerId_2"
         id="use83" />
    </clipPath>
    <linearGradient
       x1="102.04"
       x2="16.971"
       y1="22.845"
       y2="-62.22"
       gradientUnits="userSpaceOnUse"
       id="linearGradient3083"
       inkscape:collect="always"
       gradientTransform="matrix(0.93836 0 0 0.93836 2.04 -1.568)">
      <stop
         id="stop86" />
      <stop
         stop-opacity="0"
         offset="1"
         id="stop88" />
    </linearGradient>
    <linearGradient
       x2="0"
       y1="90"
       y2="5.988"
       gradientUnits="userSpaceOnUse"
       id="linearGradient3231"
       inkscape:collect="always"
       gradientTransform="matrix(1.08232 0 0 1.10654 -3.341 -4.707)">
      <stop
         stop-color="#0b700b"
         id="stop91" />
      <stop
         stop-color="#28a528"
         offset="1"
         id="stop93" />
    </linearGradient>
    <path
       d="m 57.625,16.312 c -1.0147,0.01221 -1.8349,0.32318 -2.4062,0.90625 -0.57134,0.58307 -0.88528,1.4355 -0.875,2.5 l 0.03125,2.625 H 54.3438 c 0.08155,1.1717 0.63901,1.8636 1.4688,2.3125 0.83751,0.45312 1.9735,0.64851 3.0938,0.6875 a 0.29699,0.29699 0 0 1 0.281,0.345 0.29699,0.29699 0 0 1 -0.063,0.156 l -19.219,19.062 a 0.29699,0.29699 0 0 1 -0.531,-0.218 v -19.5 a 0.29699,0.29699 0 0 1 0.0625,-0.15625 0.29699,0.29699 0 0 1 0.15625,-0.125 0.29699,0.29699 0 0 1 0.09375,0 c 0.82122,0.02838 1.5079,-0.20918 2,-0.65625 0.49206,-0.44707 0.83339,-1.1192 0.875,-2.0938 h -0.03125 l -0.032,-2.657 h 0.03125 c -0.05737,-1.24 -0.375,-1.9362 -0.9375,-2.375 -0.5625,-0.43876 -1.4525,-0.64696 -2.7812,-0.6875 v 0.03125 l -20.938,0.125 v -0.03125 c -1.0585,0.09019 -1.8947,0.34296 -2.4688,0.8125 -0.57455,0.46994 -0.95585,1.1936 -1.0938,2.4062 h 0.03125 l -0.03125,1.8125 h -0.03125 c 0.06205,1.245 0.32678,2.1509 0.84375,2.75 0.51697,0.59908 1.3105,0.94139 2.5938,1 l 1.094,0.031 a 0.29699,0.29699 0 0 1 0.3125,0.28125 l 0.0625,51.031 h -0.03125 c 0.1137,0.9168 0.44078,1.6414 0.96875,2.1562 0.53418,0.52094 1.2969,0.8273 2.3438,0.84375 h 4.875 v 0.03125 c 0.88855,-0.07745 1.7527,-0.77275 2.5,-1.5312 l 51.219,-52.781 c 0.87071,-0.88924 1.4485,-1.5755 1.375,-2.7812 a 0.29699,0.29699 0 0 1 -0.03125,-0.03125 v -3.0312 c 0.0079,-1.4051 -0.1396,-2.2241 -0.53125,-2.6562 -0.39165,-0.43217 -1.107,-0.58951 -2.4688,-0.59375 h -21.781 z"
       id="SVGCleanerId_0" />
    <path
       d="m 26.415,78.572 c 0.59537,-0.05246 1.4008,-0.78796 2.1012,-1.5759 l 51.144,-51.995 c 0.56,-0.613 1.17,-1.324 1.153,-1.937 l -0.10236,-4.1598 c 0,-0.54282 -0.41891,-0.93471 -1.1018,-0.89969 l -20.8,-0.048 c -0.89303,-0.03509 -1.681,0.50778 -1.5759,1.4709 v 2.177 c 0.03509,1.3161 1.0495,1.5059 1.7674,1.4709 l 2.5348,0.0031 c 0.6654,0.28018 0.91855,0.66939 0.95357,1.4749 -0.08225,1.6583 -0.11717,1.6298 -1.7015,3.2316 l -23.887,24.557 -0.103,-28.751 h 2.7556 c 0.5078,-0.05246 1.1679,-0.62236 1.2554,-1.2527 v -3.2302 c -0.01753,-0.61284 -0.40275,-1.0681 -1.1557,-1.0506 h -21.576 c -0.78796,-0.03508 -1.3133,0.6654 -1.2607,1.4709 l -0.05117,2.3924 c -0.0032,0.80549 0.57651,1.444 1.3119,1.5141 h 3.3999 l -0.05246,54.088 c -0.05246,0.56034 0.05246,0.858 0.47278,1.0506 l 4.5177,-1.7e-5 z"
       stroke-width="0.25"
       fill="url(#linearGradient3915)"
       id="SVGCleanerId_1" />
    <rect
       x="6"
       rx="6"
       y="6"
       height="84"
       id="SVGCleanerId_2"
       width="84" />
    <linearGradient
       inkscape:collect="always"
       xlink:href="#linearGradient14231"
       id="linearGradient14237"
       x1="50.707542"
       y1="81.682442"
       x2="50.707542"
       y2="96.539803"
       gradientUnits="userSpaceOnUse" />
    <linearGradient
       inkscape:collect="always"
       id="linearGradient14231">
      <stop
         style="stop-color:#000000;stop-opacity:1;"
         offset="0"
         id="stop14233" />
      <stop
         style="stop-color:#000000;stop-opacity:0;"
         offset="1"
         id="stop14235" />
    </linearGradient>
    <linearGradient
       inkscape:collect="always"
       xlink:href="#linearGradient14239"
       id="linearGradient14245"
       x1="49.876652"
       y1="87.937508"
       x2="49.876652"
       y2="76.719681"
       gradientUnits="userSpaceOnUse" />
    <linearGradient
       inkscape:collect="always"
       id="linearGradient14239">
      <stop
         style="stop-color:#ffffff;stop-opacity:1;"
         offset="0"
         id="stop14241" />
      <stop
         style="stop-color:#ffffff;stop-opacity:0;"
         offset="1"
         id="stop14243" />
    </linearGradient>
  </defs>
  <g
     transform="matrix(1 0 0 1 0 -956.36)"
     id="g98">
    <rect
       x="3.353"
       rx="12.724"
       y="959.35"
       fill-opacity="0.02"
       height="89.98"
       width="89.62"
       id="rect100" />
    <rect
       x="3.959"
       rx="12.552"
       y="959.96"
       fill-opacity="0.039"
       height="88.76"
       width="88.41"
       id="rect102" />
    <rect
       x="4.564"
       rx="12.38"
       y="960.57"
       fill-opacity="0.078"
       height="87.55"
       width="87.2"
       id="rect104" />
    <rect
       x="5.17"
       rx="12.208"
       y="961.18"
       fill-opacity="0.157"
       height="86.33"
       width="85.991"
       id="rect106" />
  </g>
  <path
     d="M 17.75 5.40625 C 11.1082 5.40625 5.78125 10.80135 5.78125 17.46875 L 5.78125 78.5 C 5.78125 85.168 11.108 90.53125 17.75 90.53125 L 78.5625 90.53125 C 85.2043 90.53125 90.53125 85.1678 90.53125 78.5 L 90.53125 17.46875 C 90.53125 10.80075 85.2045 5.40625 78.5625 5.40625 L 17.75 5.40625 z "
     fill="url(#linearGradient3231)"
     id="path108" />
  <path
     d="M 47.593219,7.8408332 10.058676,45.375374 47.593219,82.909917 85.127762,45.375374 47.593219,7.8408332 z m 0,2.7268838 L 82.37085,45.375374 47.593219,80.153005 12.785561,45.375374 47.593219,10.567717 z"
     fill-rule="evenodd"
     opacity="0.05"
     inkscape:connector-curvature="0"
     id="path114" />
  <path
     d="M 47.593219,7.8408332 10.058676,45.375374 47.593219,82.909917 85.127762,45.375374 47.593219,7.8408332 z m 0,1.8180788 L 83.280124,45.374905 47.593219,81.06181 11.877225,45.374905 47.593219,9.658912 z"
     fill-rule="evenodd"
     opacity="0.1"
     inkscape:connector-curvature="0"
     id="path116" />
  <rect
     x="39.2"
     y="-28.11"
     fill="url(#linearGradient3083)"
     fill-rule="evenodd"
     height="53.08"
     opacity="0.4"
     width="53.08"
     transform="matrix(0.70711 0.70711 -0.70711 0.70711 0 0)"
     id="rect118" />
  <path
     d="M 10.527858,45.844556 10.058676,46.313738 47.593219,83.848281 85.127762,46.313738 84.65858,45.844556 47.593219,82.909917 10.527858,45.844556 z"
     stroke-width="0"
     fill="#ffffff"
     fill-rule="evenodd"
     opacity="0.2"
     inkscape:connector-curvature="0"
     id="path120" />
  <path
     d="M 47.593219,7.8408332 10.058676,45.375374 47.593219,82.909917 85.127762,45.375374 47.593219,7.8408332 z m 0,0.9383638 36.56709,36.596177 -36.56709,36.56709 L 10.99704,45.375374 47.593219,8.779197 z"
     fill-rule="evenodd"
     opacity="0.15"
     inkscape:connector-curvature="0"
     id="path122" />
  <path
     d="M 47.593219,7.8408332 10.058676,45.375374 10.527858,45.844556 47.593219,8.779197 84.65858,45.844556 85.127762,45.375374 47.593219,7.8408332 z"
     fill-rule="evenodd"
     opacity="0.2"
     inkscape:connector-curvature="0"
     id="path124" />
  <rect
     x="15"
     stroke-width="0.5"
     rx="12"
     y="15"
     clip-path="url(#clipPath3613)"
     fill="url(#linearGradient3613-94)"
     stroke="#ffffff"
     height="66"
     filter="url(#filter3794-787)"
     opacity="0.1"
     width="66"
     stroke-linecap="round"
     transform="matrix(0.93836 0 0 0.93836 2.552 0.334)"
     id="rect126" />
  <g
     fill-rule="evenodd"
     transform="matrix(0.93836 0 0 0.93836 2.552 0.334)"
     id="g128">
    <path
       d="m 80.719,14.062 c -7.3751,0.11713 -14.818,-0.07492 -22.25,0.09375 -0.01044,2.37e-4 -0.02081,-2.38e-4 -0.03125,0 -2.3383,-0.02097 -4.0996,1.4072 -5.0312,3.1875 -0.936,1.7885 -1.1807,3.9392 -0.65625,5.8438 h 0.0625 c -0.06,0.651 -0.062,1.299 0.186,1.813 0.3164,0.65586 0.78482,1.1849 1.2188,1.625 0.39677,0.40245 0.76757,0.71425 1.0312,0.96875 -3.9961,3.946 -7.994,7.881 -12,11.812 -0.0013,-3.906 -0.0021,-7.7966 0.0625,-11.688 1.262,-0.55164 2.213,-1.5226 2.6562,-2.6875 0.52395,-1.377 0.57654,-2.8837 0.4375,-4.1875 h 0.03125 c 0.0022,-0.05351 -0.03233,-0.10267 -0.03125,-0.15625 0.02831,-1.411 -0.32631,-2.8302 -1.125,-4 -0.82902,-1.2142 -2.1826,-2.1478 -3.875,-2.2812 -5.4216,-0.3134 -10.838,0.0075 -16.156,-0.0625 a 0.99122,0.99122 0 0 0 -0.09375,0 c -2.9126,0.27283 -6.4789,-0.60219 -9.8438,0.84375 a 0.99122,0.99122 0 0 0 -0.125,0.0625 c -1.8754,1.1716 -2.779,3.1489 -3,5.125 -0.21985,1.9659 0.18374,3.9876 0.96875,5.6562 0.007,0.01594 0.02405,0.01554 0.03125,0.03125 0.78551,1.7132 2.5538,2.096 3.4375,2.4688 0.44592,0.18808 0.61368,0.3198 0.65625,0.40625 0.04257,0.08645 0.13389,0.36996 -0.1875,1.1562 a 0.99122,0.99122 0 0 0 -0.093,0.376 c 0.03831,15.919 -0.0052,31.832 0.0625,47.75 a 0.99122,0.99122 0 0 0 0.03125,0.15625 c 0.56471,3.4952 3.8151,5.8651 7.3125,5.5 v 0.03125 c 1.3697,0.01585 2.9415,0.07787 4.5,-0.21875 1.5121,-0.28778 3.0065,-1.0201 4.0625,-2.5 l 0.032,0.032 c 0.03599,-0.03705 0.05776,-0.08794 0.09375,-0.125 17.371,-17.884 34.753,-35.773 52.094,-53.688 a 0.99122,0.99122 0 0 0 0.09375,-0.125 c 2.1297,-3.2067 1.5548,-7.3335 0.78125,-10.438 a 0.99122,0.99122 0 0 0 -0.125,-0.28125 c -1.1715,-1.8806 -3.366,-2.4201 -5.1562,-2.5 a 0.99122,0.99122 0 0 0 -0.0625,0 z"
       opacity="0.05"
       inkscape:connector-curvature="0"
       id="path130" />
    <path
       d="m 80.75,15.062 c -7.4133,0.11773 -14.871,-0.07543 -22.281,0.09375 -3.9384,-0.05763 -5.6509,4.5098 -4.75,7.7812 -0.65202,2.3691 2.9191,3.9767 2.7899,4.7981 -4.747,4.6879 -9.4937,9.3761 -14.259,14.046 0.008,-4.875 -0.02731,-9.7505 0.0625,-14.625 2.8381,-0.55141 3.4144,-3.9408 3.1244,-6.3483 0.10483,-2.5292 -1.311,-5.1694 -4.0977,-5.3891 -5.3443,-0.30893 -10.73,-0.0036 -16.096,-0.07418 -3.1489,0.29496 -6.5423,-0.53333 -9.5124,0.74302 -3.166,1.9778 -3.1067,6.5218 -1.6794,9.5339 1.1109,2.5169 5.4538,1.1555 3.9486,4.8382 0.03832,15.922 -0.01756,31.858 0.05007,47.771 0.48663,3.0119 3.3365,5.0371 6.3715,4.6624 2.7891,0.03228 6.079,0.27722 7.8627,-2.3778 17.407,-17.921 34.809,-35.846 52.184,-53.797 1.8557,-2.7941 1.375,-6.6156 0.625,-9.625 -0.915,-1.466 -2.72,-1.957 -4.344,-2.03 z"
       opacity="0.1"
       inkscape:connector-curvature="0"
       id="path132" />
    <path
       d="m 80.719,16.062 c -0.60609,-0.02602 -1.1778,0.03111 -1.6875,0.0625 v -0.03125 h -20.281 v 0.03125 c -1.7919,-0.09216 -3.1111,0.93492 -3.6875,2.2188 -0.5434,1.2103 -0.58757,2.6034 -0.46875,3.8125 0.0088,0.08984 -0.01089,0.19347 0,0.28125 h 0.03125 c -0.14694,1.4816 0.53977,2.7811 1.5938,3.5312 0.75296,0.53592 1.6524,0.77354 2.5625,0.90625 -0.02034,0.02116 -0.04133,0.03749 -0.0625,0.0625 -5.8433,5.7602 -11.643,11.57 -17.5,17.281 -0.0018,-0.03192 0.0043,-0.05981 0,-0.09375 h 0.03125 c 0.04148,-5.9251 -0.06333,-11.824 0.0625,-17.688 0.44551,-0.11014 0.88304,-0.18067 1.4062,-0.4375 0.76894,-0.37746 1.5355,-1.1868 1.625,-2.3438 a 0.89098,0.89098 0 0 0 0.03125,-0.0625 c -0.0092,-1.6375 0.38933,-3.8028 -0.65625,-5.7812 a 0.89098,0.89098 0 0 0 -0.1875,-0.25 c -1.1642,-1.0508 -2.5786,-1.2937 -3.875,-1.3125 -1.2964,-0.01876 -2.5591,0.15177 -3.5938,0.0625 a 0.89098,0.89098 0 0 0 -0.063,-0.03 c -6.0142,0.07906 -12.157,9.69e-4 -18.156,0.1875 a 0.89098,0.89098 0 0 0 -0.03125,0 c -1.6059,0.12872 -2.7239,1.1642 -3.2188,2.3438 -0.46879,1.1175 -0.50467,2.3302 -0.4375,3.4062 0.0037,0.05978 -0.0045,0.12875 0,0.1875 h 0.03125 c -0.14681,1.5229 0.50567,2.8549 1.5625,3.6562 0.92249,0.69949 2.0873,0.96893 3.2812,0.9375 -0.03151,0.235 -0.04123,0.66123 0.03125,1.125 h -0.0625 c -7.08e-4,16.597 0.05334,33.274 0,49.812 a 0.89098,0.89098 0 0 0 0.03125,0.03125 c 0.05572,1.7688 1.1799,2.9645 2.4688,3.4688 1.2783,0.50012 2.6872,0.50295 3.875,0.40625 0.0092,-2.47e-4 0.02203,2.14e-4 0.03125,0 0.81117,-0.01882 1.7457,0.10837 2.75,0 0.99038,-0.10686 2.0761,-0.50249 2.875,-1.4688 0.02048,-0.02477 0.04241,-0.03697 0.0625,-0.0625 17.517,-18.037 35.051,-36.082 52.532,-54.156 a 0.89098,0.89098 0 0 0 0.0625,-0.0625 c 0.82554,-1.0309 0.99888,-2.2372 1,-3.3125 0.0011,-1.0521 -0.13129,-2.0284 -0.0625,-2.8438 0.0038,-0.02335 -0.0034,-0.03926 0,-0.0625 0.12691,-0.8591 0.0099,-1.6468 -0.375,-2.25 -0.3953,-0.61947 -1.0079,-1.0027 -1.625,-1.2188 -0.61713,-0.21601 -1.2777,-0.31677 -1.9062,-0.34375 z"
       opacity="0.15"
       inkscape:connector-curvature="0"
       id="path134" />
    <use
       xlink:href="#SVGCleanerId_0"
       opacity="0.3"
       inkscape:connector-curvature="0"
       transform="matrix(1.0094 0 0 1.0094 0.585 0.535)"
       id="use136" />
    <use
       xlink:href="#SVGCleanerId_0"
       fill="#ffffff"
       inkscape:connector-curvature="0"
       transform="matrix(1.0094 0 0 1.0094 0.585 -0.465)"
       id="use138" />
    <path
       d="M 82.665,16.281 20.779,78.593 c 0.59875,0.72017 1.2215,1.3346 2.4734,1.3542 l 4.9051,0.05006 c 1.0312,-0.07485 1.9264,-0.81355 2.7028,-1.6017 l 51.455,-53.055 c 0.88794,-0.90682 1.5316,-1.6887 1.4515,-3.0031 v -3.0532 c 0.0097,-1.6974 -0.36554,-2.5137 -1.1012,-3.0032 z"
       stroke-width="0.375"
       fill="url(#linearGradient3794)"
       fill-opacity="0.75"
       inkscape:connector-curvature="0"
       id="path140" />
    <path
       d="m 36.677,52.705 3.7388,-7.3868 -0.10236,-20.686 -3.733,-1.1906 0.09656,29.264 z"
       stroke-width="0.375"
       fill="url(#linearGradient3791)"
       fill-opacity="0.75"
       inkscape:connector-curvature="0"
       id="path142" />
    <path
       d="m 42.613,16.761 -8.3364,5.8988 6.2401,2.0963 h 0.04876 c 1.6974,0.03798 2.937,-0.96976 3.0225,-2.9738 v -2.6325 c -0.05489,-1.1855 -0.4092,-1.8906 -0.97501,-2.3888 z"
       stroke-width="0.25"
       fill="url(#linearGradient3788)"
       fill-opacity="0.75"
       inkscape:connector-curvature="0"
       id="path144" />
    <path
       d="m 68.181,19.143 -1.7603,1.1065 1.3077,0.50296 0.45266,-1.6095 z m -0.45266,1.6095 -5.6331,3.4201 c -0.43813,-0.03155 -0.92306,-0.17905 -1.4083,-0.25148 l -0.35207,0.25148 c 0.41798,0.06179 0.78131,0.23666 1.2071,0.25148 l -4.2751,4.2248 7.0414,4.8284 3.4201,-12.725 z"
       stroke-width="0.125"
       fill="url(#linearGradient3785)"
       fill-opacity="0.75"
       inkscape:connector-curvature="0"
       id="path146" />
    <path
       d="m 61.412,19.996 -5.8316,2.6145 c 0.42246,1.955 2.4073,2.4208 5.0431,2.5624 L 66.2997,21.7203 61.412,19.996 z"
       stroke-width="0.375"
       fill="url(#linearGradient3782)"
       fill-opacity="0.75"
       inkscape:connector-curvature="0"
       id="path148" />
    <path
       d="m 20.871,20.127 -5.6268,2.5121 c 0.42247,1.955 1.5881,2.5232 4.6335,2.5112 l 5.4714,-5.91 -4.4781,0.88678 z"
       stroke-width="0.375"
       fill="url(#linearGradient3779)"
       fill-opacity="0.75"
       inkscape:connector-curvature="0"
       id="path150" />
    <path
       d="m 23.253,21.052 -3.456,4.1736 0.18034,4.061 c -0.03926,0.55961 0.85574,7.7177 1.6863,4.8903 0.83054,-2.8274 1.0221,-13.436 1.5893,-13.125 z"
       stroke-width="0.125"
       fill="url(#linearGradient3776)"
       fill-opacity="0.75"
       inkscape:connector-curvature="0"
       id="path152" />
    <use
       xlink:href="#SVGCleanerId_1"
       inkscape:connector-curvature="0"
       id="use154" />
    <use
       xlink:href="#SVGCleanerId_1"
       inkscape:connector-curvature="0"
       id="use156" />
  </g>
  <g
     fill-rule="evenodd"
     transform="matrix(0.93836 0 0 0.93836 2.552 0.334)"
     id="g158">
    <path
       d="m 49.469,51 c -4.762,-0.0941 -7.4005,5.8212 -4.9375,9.5938 -0.23214,0.15877 -0.58087,0.35896 -0.9375,0.625 -0.3923,0.29264 -0.79492,0.64379 -1.0938,1.1562 -0.28079,0.48152 -0.40114,1.1265 -0.25,1.7812 0.0097,0.04208 -0.01213,0.08288 0,0.125 0.31582,2.9216 -1.4927,5.6911 -2.8438,8.6562 a 0.79815,0.79815 0 0 0 -0.031,0.032 c -0.38731,0.93538 -1.1752,2.0423 -1.75,3.2812 -0.5748,1.239 -0.87934,2.7586 -0.0625,4.25 a 0.79815,0.79815 0 0 0 0,0.03125 c 0.78404,1.3592 2.138,1.8381 3.375,1.9375 1.237,0.09941 2.4522,-0.09018 3.375,-0.03125 0.77783,0.07185 1.6331,0.06644 2.4688,-0.15625 0.53248,-0.1419 1.0339,-0.43866 1.4688,-0.8125 0.77672,0.74418 1.7112,1.1727 2.6562,1.25 1.1814,0.09669 2.34,-0.06166 3.25,-0.03125 0.05485,0.01424 0.10167,-0.01129 0.15625,0 1.0156,0.21016 1.9678,-0.0417 2.75,-0.375 0.63126,-0.26899 1.0238,-0.50692 1.3438,-0.6875 0.87303,0.74728 1.9076,1.0857 2.9062,1.125 1.1539,0.04543 2.2631,-0.10942 3.1562,-0.0625 0.05427,0.01497 0.10238,-0.01172 0.15625,0 1.0025,0.21809 1.9568,-0.09465 2.6875,-0.4375 0.38497,-0.18064 0.72909,-0.3511 1,-0.5 0.12843,-0.07059 0.12909,-0.08232 0.21875,-0.125 0.86927,0.74564 1.9138,1.0906 2.9062,1.125 1.1761,0.04075 2.2962,-0.12452 3.1875,-0.0625 0.02052,0.003 0.04195,-0.0027 0.0625,0 2.0863,0.27768 4.3379,-0.83335 4.9375,-3.0312 0.0026,-0.0095 -0.0025,-0.02167 0,-0.03125 0.0063,-0.02376 0.02533,-0.03849 0.03125,-0.0625 0.30508,-0.85645 0.18364,-1.7186 -0.125,-2.4062 -0.24029,-0.5354 -0.59935,-0.9151 -0.9375,-1.3125 0.85187,-2.8497 3.2854,-5.3098 4.1875,-8.7188 a 0.79815,0.79815 0 0 0 0,-0.0625 c 0.40636,-1.9566 -0.35058,-3.9288 -1.6562,-5.3438 -1.2918,-1.3999 -3.1707,-2.2836 -5.1562,-2.0625 V 59.6256 c -0.71543,0.01718 -1.625,-0.10577 -2.5938,0 -0.72973,0.07968 -1.4573,0.48524 -2.0625,1.0938 -1.054,-0.79726 -2.3502,-1.1697 -3.6562,-1.0312 -0.0078,5.74e-4 -0.02335,-5.21e-4 -0.03125,0 -0.68731,0.04539 -1.6832,-0.12787 -2.7188,-0.0625 -0.87499,0.05524 -1.7856,0.50719 -2.4375,1.3125 -0.02768,0.01 -0.0091,-0.007 -0.03125,0 -0.16615,0.05245 -0.22239,0.06114 -0.21875,0.0625 0.0041,0.0015 -0.04631,-0.02094 -0.15625,-0.15625 -0.21987,-0.27062 -0.64774,-1.0041 -1.5625,-1.1875 a 0.79815,0.79815 0 0 0 -0.03125,0 c -1.8005,-0.29001 -3.7638,-0.33181 -5.6562,0 0.17158,-0.32988 0.3712,-0.64733 0.5,-1.0312 0.1339,-0.39911 0.18114,-0.86813 0.0625,-1.3438 h 0.03125 c 0.066,-3.229 -2.536,-6.318 -5.906,-6.281 -0.01078,1.18e-4 -0.02046,-1.81e-4 -0.03125,0 z m 1.3438,19.062 h 0.03125 c -0.18964,0.40358 -0.38982,0.76802 -0.53125,1.1875 -0.2748,0.38525 -0.51512,0.80539 -0.71875,1.2812 -0.24822,0.58008 -0.48548,1.1837 -0.71875,1.7188 -0.06461,0.1482 -0.12251,0.18152 -0.1875,0.3125 0.10312,-0.41004 0.29172,-0.83501 0.53125,-1.3125 0.11432,-0.22788 0.24488,-0.48545 0.375,-0.71875 0.44195,-0.79241 0.90421,-1.6055 1.2188,-2.4688 z"
       opacity="0.05"
       inkscape:connector-curvature="0"
       id="path160" />
    <path
       d="m 49.469,51.812 c -4.3087,-0.10961 -6.6869,5.6482 -3.9809,8.8305 0.09275,0.63639 -3.0415,1.4334 -2.4669,3.4284 0.43056,3.3391 -1.5769,6.2937 -2.906,9.2107 -0.88887,2.1467 -3.2148,4.3785 -1.865,6.843 1.2779,2.2153 4.0263,1.4077 6.1225,1.5416 1.4103,0.13027 3.2165,-0.10377 3.8462,-1.2916 1.2788,2.2196 4.0262,1.4038 6.1223,1.5203 1.6122,0.41858 3.4582,-0.89312 4.132,-1.2078 1.5119,1.9265 4.1236,1.041 6.2204,1.2044 1.539,0.42467 3.2198,-1.0057 3.8999,-1.1809 1.498,1.9047 4.0874,1.0131 6.1626,1.1806 1.7831,0.26125 3.6748,-0.6779 4.1309,-2.5288 0.53372,-1.3504 -0.36012,-2.5117 -1.1994,-3.4253 0.83667,-3.268 3.4561,-5.7951 4.3125,-9.0312 0.68656,-3.3057 -2.5936,-6.8802 -6.0034,-6.4587 -1.6195,0.0389 -3.6546,-0.49697 -4.5904,1.24 -0.89154,-1.0112 -2.3014,-1.3652 -3.6952,-1.2106 -1.6691,0.12269 -4.0513,-0.63963 -4.961,1.2106 -1.405,0.50696 -1.2541,-1.019 -2.4062,-1.25 -2.0867,-0.33612 -4.4006,-0.42717 -6.447,0.1492 -1.4193,0.82656 1.3583,-2.2238 0.69696,-3.3367 0.05697,-2.7911 -2.2439,-5.4859 -5.125,-5.4375 z m 3.375,9.4688 c -0.49804,1.2111 -1.1649,0.62984 0,0 z m -0.25,3.5938 c 1.1522,2.2079 -0.83677,4.5632 -1.5297,6.6185 -1.0198,1.1659 -1.8157,5.5057 -3.128,4.6663 -0.74126,-2.0933 1.5181,-4.4736 2.2026,-6.4835 0.83292,-1.5918 1.7639,-3.1399 2.4552,-4.8014 z m 19,5.2188 c -0.86494,2.3401 -1.9712,4.7629 -3.2188,6.8125 -1.7929,-1.4649 0.6077,-3.7248 1.0312,-5.3438 0.52304,-0.72441 1.2603,-1.3735 2.1875,-1.4688 z M 61.5,70.1874 c -0.90764,2.1688 -1.9593,5.1111 -3.2894,6.5947 -1.5825,-1.3933 0.65713,-3.5191 0.97694,-5.0634 0.59687,-0.72427 1.3643,-1.3525 2.3125,-1.5312 z"
       opacity="0.1"
       inkscape:connector-curvature="0"
       id="path162" />
    <path
       d="m 49.469,52.781 c -2.3183,0 -4.1562,2.038 -4.1562,4.4688 0,2.4308 1.8379,4.4688 4.1562,4.4688 2.3183,0 4.1562,-2.0379 4.1562,-4.4688 0,-2.4308 -1.8379,-4.4688 -4.1562,-4.4688 z m 7.7188,8.375 c -0.92032,0.01551 -1.7836,0.11647 -2.625,0.21875 -0.02985,0.0036 -0.06403,-0.0037 -0.09375,0 V 61.406 c -0.29908,0.008 -0.58548,0.10072 -0.78125,0.28125 -0.21906,0.20201 -0.35383,0.46698 -0.4375,0.71875 -0.16734,0.50354 -0.16824,1.041 0,1.5625 a 0.6231,0.6231 0 0 0 0.03125,0.09375 l 0.65625,1.3125 c 0.06001,0.5837 0.18042,0.9763 -0.3125,2.5312 -0.52796,1.6655 -1.7633,4.5162 -4.5938,9.6562 a 0.6231,0.6231 0 0 0 -0.031,0.064 c -0.35554,0.78063 -0.31009,1.6032 0.0625,2.25 0.37259,0.64683 1.0792,1.1019 1.9062,1.0938 l 5,-0.0625 c 0.37742,-0.0088 0.6379,-0.18257 0.875,-0.375 0.2371,-0.19243 0.44971,-0.43656 0.625,-0.71875 0.35059,-0.56438 0.60463,-1.3495 0.25,-2.0938 a 0.6231,0.6231 0 0 0 -0.09375,-0.125 l -1,-1.2188 c -4.84e-4,-8.39e-4 7.69e-4,-0.0292 0,-0.03125 -0.0123,-0.03274 -0.03547,-0.19818 0,-0.5 0.03768,-0.32068 0.11713,-0.75748 0.28125,-1.25 0.31854,-0.9559 0.85161,-2.1379 1.4375,-3.3438 0.01025,-0.01345 0.02099,-0.01796 0.03125,-0.03125 0.01126,-0.02313 0.01995,-0.03936 0.03125,-0.0625 1.5686,-1.9944 3.2068,-2.0986 4.4375,-2.125 0.03349,0.06165 0.08781,0.21839 0.125,0.34375 -0.64281,1.7528 -1.4536,3.7904 -3.875,8.1875 a 0.6231,0.6231 0 0 0 -0.032,0.063 c -0.35372,0.77665 -0.33184,1.6007 0.03125,2.25 0.36309,0.64925 1.0793,1.1019 1.9062,1.0938 l 5.0625,-0.0625 c 0.37755,-0.0089 0.64012,-0.18111 0.875,-0.375 0.23488,-0.19389 0.45414,-0.43581 0.625,-0.71875 0.34172,-0.56588 0.57098,-1.3546 0.21875,-2.0938 a 0.6231,0.6231 0 0 0 -0.09375,-0.125 l -1,-1.2188 c -4.09e-4,-7.1e-4 6.99e-4,-0.02931 0,-0.03125 -0.01119,-0.0311 -0.04064,-0.19254 0,-0.5 0.04318,-0.32667 0.13786,-0.77939 0.3125,-1.2812 0.34929,-1.0037 0.94138,-2.2341 1.5625,-3.5 1.4329,-1.9961 2.9413,-2.0298 4.125,-2.0312 0.01547,0.01396 0.02915,0.0019 0.0625,0.09375 0.04677,0.12881 0.08567,0.35749 0.09375,0.59375 -0.67393,1.7827 -1.3333,3.6254 -3.6562,7.8438 a 0.6231,0.6231 0 0 0 -0.03125,0.0625 c -0.35191,0.77266 -0.32223,1.5984 0.03125,2.25 0.35348,0.65163 1.0481,1.102 1.875,1.0938 l 5.0312,-0.0625 c 0.37729,-0.0088 0.63567,-0.18399 0.875,-0.375 0.23933,-0.19101 0.47655,-0.43732 0.65625,-0.71875 0.3594,-0.56286 0.60707,-1.3444 0.25,-2.0938 a 0.6231,0.6231 0 0 0 -0.09375,-0.125 l -1,-1.2188 c -0.09517,-0.16502 -0.10595,-0.64733 0.125,-1.3438 0.23095,-0.69642 0.65078,-1.546 1.1562,-2.4688 1.0109,-1.8455 2.3385,-3.8942 2.9688,-5.5938 a 0.6231,0.6231 0 0 0 0,-0.03125 c 0.44487,-1.3791 -0.11356,-2.6893 -0.90625,-3.625 -0.79269,-0.93573 -1.8075,-1.5757 -2.6562,-1.8438 a 0.6231,0.6231 0 0 0 -0.1875,-0.03125 l -3.8125,-0.0625 a 0.6231,0.6231 0 0 0 -0.125,0.03125 c -0.447,0.10196 -0.86059,0.32486 -1.0938,0.65625 -0.12969,0.18433 -0.15149,0.39767 -0.21875,0.59375 l -1.686,-0.03 c -0.02866,-0.15174 0.01072,-0.3244 -0.0625,-0.46875 -0.18145,-0.3577 -0.57856,-0.64582 -1,-0.6875 a 0.6231,0.6231 0 0 0 -0.0625,0 l -4,-0.0625 c -0.36108,-0.0074 -0.63339,0.0073 -0.90625,0.09375 -0.27286,0.08642 -0.53717,0.27724 -0.6875,0.5 -0.17011,0.25206 -0.15458,0.44453 -0.1875,0.65625 h -2.6562 c 6.36e-4,-0.02034 -1.04e-4,-0.04217 0,-0.0625 0.0017,-0.33114 -0.05778,-0.69011 -0.3125,-1 a 0.6231,0.6231 0 0 0 -0.345,-0.219 c -0.97705,-0.17685 -1.9845,-0.23481 -2.9375,-0.21875 z m -7.8438,0.6875 -2.6562,0.0625 c -0.96059,-0.01973 -1.7014,0.12728 -2.1875,0.6875 -0.48608,0.56022 -0.5453,1.3018 -0.5,2.1562 0.02267,0.74773 0.24491,1.0109 -0.25,2.6562 -0.49491,1.6454 -1.7258,4.5279 -4.6875,9.9062 a 0.6231,0.6231 0 0 0 -0.03125,0.0625 c -0.35557,0.78072 -0.31006,1.603 0.0625,2.25 0.37256,0.64704 1.0788,1.103 1.9062,1.0938 l 5.0312,-0.03125 c 0.38334,-0.0087 0.67182,-0.17748 0.90625,-0.375 0.23443,-0.19752 0.42381,-0.46367 0.59375,-0.75 0.33988,-0.57266 0.57216,-1.3521 0.21875,-2.0938 a 0.6231,0.6231 0 0 0 -0.09375,-0.125 l -1,-1.2188 c -5.64e-4,-9.78e-4 8.15e-4,-0.02914 0,-0.03125 -0.01386,-0.03588 -0.03976,-0.21252 0,-0.53125 0.0421,-0.33748 0.13727,-0.79738 0.3125,-1.3125 0.35046,-1.0302 0.92448,-2.3047 1.5625,-3.5938 0.63802,-1.289 1.3566,-2.5869 1.9375,-3.6875 0.58089,-1.1006 1.0394,-1.9627 1.25,-2.5312 0.12804,-0.36278 0.17968,-0.71514 0.15625,-1.0625 -0.02343,-0.34736 -0.15582,-0.71434 -0.40625,-0.96875 -0.49448,-0.50233 -1.2124,-0.59832 -2.0938,-0.5625 -0.01138,4.62e-4 -0.01982,-5.08e-4 -0.03125,0 z"
       opacity="0.15"
       inkscape:connector-curvature="0"
       id="path164" />
    <path
       d="m 53.007,57.245 c 0,2.1216 -1.5823,3.8415 -3.5342,3.8415 -1.9519,0 -3.5342,-1.7199 -3.5342,-3.8415 0,-2.1216 1.5823,-3.8415 3.5342,-3.8415 1.9519,0 3.5342,1.7199 3.5342,3.8415 z M 39.605,77.623 c 5.9431,-10.792 5.0681,-11.704 5.0316,-12.907 -0.08505,-1.6043 0.26738,-2.2241 2.0418,-2.1877 l 2.6981,-0.07292 c 1.6407,-0.07293 2.1877,0.51044 1.7501,1.7501 -0.70044,1.8907 -5.99,10.485 -4.9889,12.221 l 1.0636,1.3251 c 0.4486,0.94136 -0.59812,2.2952 -1.1808,2.3085 l -5.0301,0.04252 c -1.2275,0.01366 -1.9446,-1.2518 -1.3855,-2.4793 z m 20.389,-15.61 c -1.8539,-0.33557 -3.7443,-0.23362 -5.4524,-0.0222 -0.66843,-0.04867 -0.92997,1.0355 -0.68689,1.7891 l 0.70918,1.4183 c 0.09137,1.1443 0.66498,2.3494 -5.0149,12.664 -0.55908,1.2275 0.19082,2.4943 1.4183,2.4821 l 5.0149,-0.05055 c 0.58266,-0.01366 1.6136,-1.3381 1.1651,-2.2795 l -1.0638,-1.317 c -0.48368,-0.83872 0.54688,-3.3145 1.7729,-5.8254 1.7725,-2.3272 3.819,-2.4589 5.1162,-2.4821 0.38691,0.0883 0.54396,0.53201 0.65852,1.0131 -0.65584,1.7999 -1.4971,3.9111 -4.0018,8.4594 -0.55906,1.2275 0.14021,2.4943 1.3677,2.4821 l 5.0655,-0.05055 c 0.58266,-0.01366 1.6137,-1.3381 1.1651,-2.2795 l -1.0638,-1.317 c -0.49068,-0.85086 0.57291,-3.3776 1.8236,-5.9267 1.6391,-2.3491 3.6248,-2.3808 4.8629,-2.3808 0.49425,0.152 0.60765,0.77621 0.60787,1.4183 -0.68436,1.806 -1.3662,3.728 -3.7485,8.0542 -0.55906,1.2275 0.14021,2.4943 1.3677,2.4821 l 5.0149,-0.05055 c 0.58266,-0.01366 1.6644,-1.3381 1.2157,-2.2795 l -1.0638,-1.317 c -1.0012,-1.736 3.0241,-6.7947 4.1985,-9.9616 0.72923,-2.2606 -1.7729,-4.2381 -3.1584,-4.6756 l -3.815,-0.05875 c -0.68809,0.15695 -0.83219,0.55334 -1.0215,1.2744 l -2.6101,-0.0222 c 0.05141,-0.66749 -0.12262,-1.1084 -0.61426,-1.157 l -3.9973,-0.05875 c -1.2895,-0.02647 -1.162,0.43727 -1.3273,1.2299 l -3.8926,0.0016 c 0.21468,-0.41869 0.21059,-0.98325 -0.01366,-1.2561 z"
       opacity="0.3"
       inkscape:connector-curvature="0"
       id="path166" />
    <path
       d="m 385.8,513.51 c 0,1.2423 -0.9265,2.2493 -2.0694,2.2493 -1.1429,0 -2.0694,-1.0071 -2.0694,-2.2493 0,-1.2423 0.92649,-2.2493 2.0694,-2.2493 1.14291,0 2.0694,1.0071 2.0694,2.2493 z m -7.847,11.932 c 3.4799,-6.3194 2.9675,-6.8531 2.9462,-7.5576 -0.0498,-0.93936 0.15656,-1.3023 1.1956,-1.281 l 1.5798,-0.0427 c 0.96071,-0.0427 1.281,0.29888 1.0248,1.0248 -0.41013,1.1071 -3.5074,6.1391 -2.9212,7.1556 l 0.62279,0.7759 c 0.26267,0.5512 -0.35022,1.344 -0.69139,1.3517 l -2.9453,0.0249 c -0.71875,0.008 -1.1386,-0.73298 -0.81127,-1.4517 z m 11.939,-9.1404 c -1.0855,-0.19649 -2.1924,-0.13679 -3.1926,-0.013 -0.39139,-0.0285 -0.54453,0.60635 -0.4022,1.0476 l 0.41525,0.83049 c 0.0535,0.67003 0.38937,1.3757 -2.9364,7.4151 -0.32736,0.71875 0.11173,1.4605 0.83049,1.4534 l 2.9364,-0.0296 c 0.34117,-0.008 0.94485,-0.7835 0.68219,-1.3347 l -0.62287,-0.77117 c -0.28321,-0.4911 0.32022,-1.9408 1.0381,-3.411 1.0378,-1.3627 2.2362,-1.4398 2.9957,-1.4534 0.22655,0.0517 0.31851,0.31151 0.38559,0.59321 -0.38402,1.0539 -0.87662,2.2901 -2.3432,4.9533 -0.32735,0.71875 0.0821,1.4605 0.80084,1.4534 l 2.966,-0.0296 c 0.34117,-0.008 0.94486,-0.7835 0.68219,-1.3347 l -0.62287,-0.77117 c -0.28731,-0.49821 0.33546,-1.9777 1.0678,-3.4703 0.95978,-1.3755 2.1224,-1.394 2.8474,-1.394 0.2894,0.089 0.3558,0.4545 0.35593,0.83049 -0.40072,1.0575 -0.79994,2.1829 -2.1949,4.716 -0.32735,0.71875 0.0821,1.4605 0.80084,1.4534 l 2.9364,-0.0296 c 0.34117,-0.008 0.97454,-0.78349 0.71186,-1.3347 l -0.62287,-0.77116 c -0.58622,-1.0165 1.7707,-3.9785 2.4584,-5.8328 0.42699,-1.3236 -1.0381,-2.4815 -1.8494,-2.7377 l -2.2338,-0.0344 c -0.4029,0.0919 -0.48728,0.324 -0.5981,0.74623 l -1.5283,-0.013 c 0.0301,-0.39084 -0.0718,-0.64899 -0.35967,-0.67746 l -2.3406,-0.0344 c -0.75505,-0.0155 -0.68037,0.25604 -0.77721,0.72015 l -2.2793,9.4e-4 c 0.1257,-0.24516 0.12331,-0.57573 -0.008,-0.73548 z"
       fill="url(#linearGradient4031)"
       inkscape:connector-curvature="0"
       transform="matrix(1.7078 0 0 1.7078 -605.88 -820.75)"
       id="path168" />
    <path
       d="m 49.469,52.406 c -1.9519,0 -3.5312,1.7222 -3.5312,3.8438 0,1.3695 0.66387,2.5698 1.6562,3.25 -0.41846,-0.63119 -0.65625,-1.4126 -0.65625,-2.25 0,-2.1216 1.5794,-3.8438 3.5312,-3.8438 0.69196,0 1.33,0.22017 1.875,0.59375 -0.64171,-0.96792 -1.6936,-1.5938 -2.875,-1.5938 z m 7.75,8.375 c -0.91785,0.01 -1.8335,0.11304 -2.6875,0.21875 -0.66843,-0.04867 -0.93058,1.0277 -0.6875,1.7812 l 0.71875,1.4062 c 0.09137,1.1443 0.67985,2.3731 -5,12.688 -0.4772,1.0477 -0.0069,2.0898 0.90625,2.375 -0.13802,-0.41685 -0.1279,-0.88836 0.09375,-1.375 5.6799,-10.314 5.0914,-11.543 5,-12.688 l -0.719,-1.406 c -0.243,-0.753 0.019,-1.83 0.687,-1.781 1.443,-0.179 3.023,-0.269 4.594,-0.094 0.069,-0.339 0.038,-0.708 -0.125,-0.906 -0.927,-0.168 -1.863,-0.229 -2.781,-0.219 z M 73.469,61 c -0.68809,0.15695 -0.84199,0.56015 -1.0312,1.2812 l -1.876,-0.031 c 0.22691,0.18518 0.31797,0.52322 0.28125,1 l 2.5938,0.03125 c 0.19,-0.721 0.344,-1.124 1.032,-1.281 l 3.8125,0.0625 c 0.4309,0.13608 0.98389,0.41634 1.5,0.8125 -0.71441,-0.91248 -1.7643,-1.5802 -2.5,-1.8125 l -3.813,-0.062 z m -8.25,0.03125 c -1.2895,-0.02647 -1.1471,0.45738 -1.3125,1.25 h -2.7812 c 0.08569,0.29351 0.03601,0.68598 -0.125,1 h 3.9062 c 0.16539,-0.79262 0.023,-1.2765 1.3125,-1.25 l 3.625,0.0625 c 0.0095,-0.56984 -0.17726,-0.95572 -0.625,-1 l -4,-0.0625 z m -15.844,0.4375 -2.6875,0.0625 c -1.7744,-0.03645 -2.1476,0.58323 -2.0625,2.1875 0.03648,1.2032 0.91185,2.1138 -5.0312,12.906 -0.47719,1.0478 1.4e-4,2.1222 0.90625,2.4062 -0.13949,-0.42104 -0.13175,-0.91113 0.09375,-1.4062 5.9431,-10.792 5.0677,-11.703 5.0312,-12.906 -0.08505,-1.6043 0.28808,-2.2239 2.0625,-2.1875 l 2.6875,-0.0625 c 0.354,-0.015 0.652,-0.014 0.905,0.032 10e-4,-0.744 -0.625,-1.088 -1.906,-1.031 z m 14.594,6.907 c -0.10197,0.0018 -0.23302,0.02707 -0.34375,0.03125 -0.65584,1.7999 -1.4953,3.9204 -4,8.4688 -0.48422,1.0632 -0.02308,2.1407 0.90625,2.4062 -0.13824,-0.42266 -0.13285,-0.90871 0.09375,-1.4062 2.5047,-4.5484 3.3442,-6.6689 4,-8.4688 -0.115,-0.481 -0.269,-0.943 -0.656,-1.031 z m 9.875,0 c -0.12206,0 -0.27071,0.02844 -0.40625,0.03125 0.01342,0.13291 0.0312,0.26703 0.03125,0.40625 -0.68436,1.806 -1.3677,3.7363 -3.75,8.0625 -0.47719,1.0477 -0.0273,2.0898 0.875,2.375 -0.12842,-0.41685 -0.09664,-0.88836 0.125,-1.375 2.3823,-4.3262 3.0656,-6.2565 3.75,-8.0625 -2.22e-4,-0.64213 -0.13075,-1.2855 -0.625,-1.4375 z"
       fill="#ffffff"
       opacity="0.6"
       inkscape:connector-curvature="0"
       id="path170" />
    <path
       d="m 51.344,53 c 0.418,0.631 0.656,1.413 0.656,2.25 0,2.1216 -1.5794,3.8438 -3.5312,3.8438 -0.69196,0 -1.33,-0.22017 -1.875,-0.59375 0.6417,0.96792 1.6936,1.5938 2.875,1.5938 1.952,0 3.531,-1.722 3.531,-3.844 0,-1.369 -0.664,-2.57 -1.656,-3.25 z m 7.7812,7.9062 c -0.02598,0.12692 -0.06649,0.26089 -0.125,0.375 h 1.125 c -0.029,-0.098 -0.069,-0.213 -0.125,-0.281 -0.288,-0.052 -0.586,-0.062 -0.875,-0.094 z m 9.7188,0.1875 c -9.3e-4,0.05587 0.0046,0.09665 0,0.15625 h 0.71875 C 69.47199,61.17588 69.35947,61.10759 69.219,61.0937 h -0.375 z m -18.563,0.406 c -2.55e-4,0.20851 -0.06045,0.44731 -0.15625,0.71875 -0.70044,1.8907 -6.0012,10.483 -5,12.219 l 1.0625,1.3125 c 0.4486,0.94136 -0.57359,2.2993 -1.1562,2.3125 l -5.032,0.032 c -0.17977,0.002 -0.34453,-0.01377 -0.5,-0.0625 0.20634,0.62282 0.76761,1.0707 1.5,1.0625 l 5.031,-0.032 c 0.583,-0.013 1.605,-1.371 1.157,-2.312 l -1.063,-1.312 c -1.0012,-1.736 4.2996,-10.328 5,-12.219 0.34296,-0.9717 0.07568,-1.5535 -0.84375,-1.7188 z m 28.5,0.375 c 0.63108,0.80604 0.99828,1.8147 0.65625,2.875 -1.1744,3.1669 -5.1887,8.2015 -4.1875,9.9375 l 1.062,1.313 c 0.44861,0.94141 -0.63609,2.2676 -1.2188,2.2812 l -5.0312,0.0625 c -0.17977,0.0018 -0.31394,-0.04481 -0.46875,-0.09375 0.1955,0.6346 0.7279,1.1011 1.4688,1.0938 l 5.0312,-0.0625 c 0.583,-0.014 1.668,-1.341 1.219,-2.282 l -1.062,-1.312 c -1.0012,-1.736 3.0131,-6.7706 4.1875,-9.9375 0.50244,-1.5575 -0.51284,-2.9973 -1.6562,-3.875 z m -16.812,4.5 c -1.2972,0.02316 -3.3525,0.17277 -5.125,2.5 -1.2261,2.5108 -2.2337,4.9738 -1.75,5.8125 l 1.062,1.312 c 0.44858,0.94139 -0.60484,2.2676 -1.1875,2.2812 l -5,0.0625 c -0.17977,0.0018 -0.34333,-0.04481 -0.5,-0.09375 0.21012,0.6346 0.75913,1.1011 1.5,1.0938 l 5,-0.0625 c 0.583,-0.014 1.637,-1.341 1.188,-2.282 l -1.0625,-1.3125 c -0.48368,-0.83872 0.52394,-3.3017 1.75,-5.8125 1.633,-2.145 3.483,-2.421 4.781,-2.47 -0.115,-0.481 -0.269,-0.943 -0.656,-1.031 z m 9.875,0 c -1.2381,0 -3.2046,0.05714 -4.8438,2.4062 -1.2507,2.549 -2.3344,5.0554 -1.8438,5.9062 l 1.063,1.313 c 0.4486,0.94139 -0.57359,2.2676 -1.1562,2.2812 l -5.063,0.063 c -0.16433,0.0016 -0.3251,-0.02145 -0.46875,-0.0625 0.20282,0.6201 0.73879,1.0697 1.4688,1.0625 l 5.0625,-0.0625 c 0.583,-0.014 1.605,-1.341 1.157,-2.282 l -1.0625,-1.3125 c -0.49,-0.851 0.593,-3.358 1.844,-5.907 1.4776,-2.1175 3.1982,-2.3493 4.4375,-2.375 -0.04846,-0.4801 -0.20666,-0.91221 -0.59375,-1.0312 z"
       opacity="0.2"
       inkscape:connector-curvature="0"
       id="path172" />
  </g>
  <g
     id="g14291">
    <path
       d="m 5.2922679,73.685059 0,5.0663 c 0,6.668 5.3645011,12.032 12.0320011,12.032 l 61.049,0 c 6.668,0 12.032,-5.3645 12.032,-12.032 l 0,-5.0663 c 0,6.6681 -5.3645,12.032 -12.032,12.032 l -61.049,0 c -6.668,0 -12.0320011,-5.3643 -12.0320011,-12.032 z"
       id="path64"
       inkscape:connector-curvature="0"
       style="opacity:0.4;fill:url(#linearGradient14237);fill-opacity:1" />
    <path
       inkscape:connector-curvature="0"
       id="path14214"
       d="m 5.2929688,72.717592 0,1.15039 c 0,6.667718 5.3632502,12.031248 12.0312502,12.031248 l 61.048828,0 c 6.6675,0 12.03125,-5.36313 12.03125,-12.031248 l 0,-1.15039 c 0,6.668098 -5.36375,12.031248 -12.03125,12.031248 l -61.048828,0 c -6.668,0 -12.0312502,-5.36355 -12.0312502,-12.031248 z"
       style="opacity:0.5;fill:url(#linearGradient14245);fill-opacity:1" />
  </g>
</svg>
