<svg height="96" width="96" xmlns="http://www.w3.org/2000/svg" xmlns:xlink="http://www.w3.org/1999/xlink" xmlns:sodipodi="http://sodipodi.sourceforge.net/DTD/sodipodi-0.dtd" xmlns:inkscape="http://www.inkscape.org/namespaces/inkscape">
 <defs>
  <filter x="-0.192" y="-0.192" height="1.384" color-interpolation-filters="sRGB" id="filter3794-787" width="1.384">
   <feGaussianBlur stdDeviation="5.28"/>
  </filter>
  <linearGradient x2="0" y1="20.221" y2="138.66" gradientUnits="userSpaceOnUse" id="linearGradient3613-0">
   <stop stop-color="#fff"/>
   <stop stop-color="#fff" stop-opacity="0" offset="1"/>
  </linearGradient>
  <clipPath id="clipPath3613-4">
   <use xlink:href="#SVGCleanerId_0"/>
  </clipPath>
  <linearGradient x2="0" y1="90" y2="5.988" gradientUnits="userSpaceOnUse" id="linearGradient4164" inkscape:collect="always" gradientTransform="matrix(1.15752 0 0 1.15752 -5.224 -5.295)">
   <stop stop-color="#2295c5"/>
   <stop stop-color="#68d8f4" offset="1"/>
  </linearGradient>
  <rect x="6" rx="6" y="6" height="84" id="SVGCleanerId_0" width="84"/>
 </defs>
 <g transform="matrix(1 0 0 1 0 -956.36)">
  <rect x="3.353" rx="12.724" y="959.35" fill-opacity="0.02" height="89.98" width="89.62"/>
  <rect x="3.959" rx="12.552" y="959.96" fill-opacity="0.039" height="88.76" width="88.41"/>
  <rect x="4.564" rx="12.38" y="960.57" fill-opacity="0.078" height="87.55" width="87.2"/>
  <rect x="5.17" rx="12.208" y="961.18" fill-opacity="0.157" height="86.33" width="85.991"/>
 </g>
 <path d="M 17.75 5.40625 C 11.1082 5.40625 5.78125 10.80135 5.78125 17.46875 L 5.78125 78.5 C 5.78125 85.168 11.108 90.53125 17.75 90.53125 L 78.5625 90.53125 C 85.2043 90.53125 90.53125 85.1678 90.53125 78.5 L 90.53125 17.46875 C 90.53125 10.80075 85.2045 5.40625 78.5625 5.40625 L 17.75 5.40625 z " fill="url(#linearGradient4164)"/>
 <path d="m5.7756 77.54v1.0133c0 6.668 5.3434 12.032 11.985 12.032h60.809c6.6418 0 11.985-5.3645 11.985-12.032v-1.013c0 6.6681-5.3434 12.032-11.985 12.032h-60.809c-6.6418 0-11.985-5.3644-11.985-12.032z" fill-opacity="0.098"/>
 <path d="m5.7756 73.44v5.0663c0 6.668 5.3434 12.032 11.985 12.032h60.809c6.6418 0 11.985-5.3645 11.985-12.032v-5.066c0 6.6681-5.3434 12.032-11.985 12.032h-60.809c-6.6418 0-11.985-5.3643-11.985-12.032z" fill-opacity="0.235"/>
 <path d="m 14.413218,11.255281 a 0.86847946,0.86847946 0 0 0 -0.786199,0.873761 v 67.069086 a 0.86847946,0.86847946 0 0 0 0.873761,0.873761 h 67.069087 a 0.86847946,0.86847946 0 0 0 0.873761,-0.873761 V 12.129042 A 0.86847946,0.86847946 0 0 0 81.569867,11.255281 H 14.50078 a 0.86847946,0.86847946 0 0 0 -0.08733,0 z m 6.549669,7.335681 H 75.107202 V 49.913157 H 68.964977 L 61.745736,27.93499 59.591607,21.414384 a 0.86847946,0.86847946 0 0 0 -1.630151,-0.02911 l -2.270103,6.491728 -3.872308,11.032865 -3.493182,-10.479545 -2.474104,-7.452121 a 0.86847946,0.86847946 0 0 0 -1.659028,0.02888 L 42.213262,28.60545 36.478855,50.524931 32.490107,37.279718 a 0.86847946,0.86847946 0 0 0 -0.02916,0 L 31.936973,35.620502 A 0.86847946,0.86847946 0 0 0 31.121898,35.009195 H 29.40437 20.962515 V 18.591242 z m 37.668607,20.260453 5.006894,15.25356 0.523977,1.601088 a 0.86847946,0.86847946 0 0 0 0.815076,0.611307 h 1.688371 8.441855 V 72.735323 H 20.963353 V 41.413128 h 6.025785 l 6.637045,21.919482 2.387007,7.917878 a 0.86847946,0.86847946 0 0 0 1.688371,-0.02911 l 2.095909,-8.005254 5.909532,-22.559433 3.027424,9.140492 2.154129,6.462386 a 0.86847946,0.86847946 0 0 0 1.630151,0.02911 l 2.271034,-6.433043 3.8425,-11.003056 z" fill="#005a80" opacity="0.3" inkscape:connector-curvature="0"/>
 <path d="M 14.50078,12.129042 V 79.198128 H 81.569867 V 12.129042 H 14.50078 z m 5.589091,5.589091 H 75.980776 V 50.786918 H 68.353997 L 60.930939,28.197677 58.776811,21.677072 56.506243,28.168614 51.819604,41.559143 47.511347,28.693057 45.037056,21.240936 43.057587,28.83856 36.536981,53.785465 31.646527,37.541705 31.123947,35.882677 H 29.406233 20.091082 V 17.718133 z m 38.570314,18.455176 5.793092,17.66991 0.524443,1.601274 h 1.687906 9.31515 V 73.609037 H 20.089871 V 40.540252 h 7.568561 l 6.811704,22.531487 2.387007,7.917878 2.095909,-8.005254 6.637045,-25.354909 3.958939,11.905694 2.154129,6.462386 2.270568,-6.43323 4.686638,-13.390529 z" fill="#ffffff" inkscape:connector-curvature="0"/>
 <rect x="15" stroke-width="0.5" rx="12" y="15" clip-path="url(#clipPath3613-4)" fill="url(#linearGradient3613-0)" stroke="#ffffff" height="66" filter="url(#filter3794-787)" opacity="0.1" width="66" stroke-linecap="round" transform="matrix(0.93152 0 0 0.93152 3.323 0.951)"/>
</svg>
