<?xml version="1.0" encoding="UTF-8" standalone="no"?>
<svg
   xmlns:dc="http://purl.org/dc/elements/1.1/"
   xmlns:cc="http://creativecommons.org/ns#"
   xmlns:rdf="http://www.w3.org/1999/02/22-rdf-syntax-ns#"
   xmlns:svg="http://www.w3.org/2000/svg"
   xmlns="http://www.w3.org/2000/svg"
   xmlns:xlink="http://www.w3.org/1999/xlink"
   xmlns:sodipodi="http://sodipodi.sourceforge.net/DTD/sodipodi-0.dtd"
   xmlns:inkscape="http://www.inkscape.org/namespaces/inkscape"
   height="96"
   width="96"
   id="svg2"
   version="1.1"
   inkscape:version="0.91 r13725"
   sodipodi:docname="vivaldi-snapshot.svg"
   inkscape:export-filename="/home/winardiaris/.icons/Tebu/apps/96/vivaldi-snapshot.png"
   inkscape:export-xdpi="90"
   inkscape:export-ydpi="90">
  <metadata
     id="metadata56">
    <rdf:RDF>
      <cc:Work
         rdf:about="">
        <dc:format>image/svg+xml</dc:format>
        <dc:type
           rdf:resource="http://purl.org/dc/dcmitype/StillImage" />
      </cc:Work>
    </rdf:RDF>
  </metadata>
  <sodipodi:namedview
     pagecolor="#ffffff"
     bordercolor="#666666"
     borderopacity="1"
     objecttolerance="10"
     gridtolerance="10"
     guidetolerance="10"
     inkscape:pageopacity="0"
     inkscape:pageshadow="2"
     inkscape:window-width="1366"
     inkscape:window-height="708"
     id="namedview54"
     showgrid="false"
     inkscape:zoom="2.6588553"
     inkscape:cx="47.988001"
     inkscape:cy="48.019977"
     inkscape:window-x="0"
     inkscape:window-y="24"
     inkscape:window-maximized="1"
     inkscape:current-layer="svg2" />
  <defs
     id="defs4">
    <linearGradient
       id="linearGradient3737-174">
      <stop
         stop-color="#fff"
         id="stop7" />
      <stop
         stop-color="#fff"
         stop-opacity="0"
         offset="1"
         id="stop9" />
    </linearGradient>
    <clipPath
       id="clipPath3613-740">
      <rect
         x="6"
         rx="6"
         y="6"
         height="84"
         width="84"
         id="rect12" />
    </clipPath>
    <filter
       x="-0.192"
       y="-0.192"
       height="1.384"
       color-interpolation-filters="sRGB"
       id="filter3794-004"
       width="1.384">
      <feGaussianBlur
         stdDeviation="5.28"
         id="feGaussianBlur15" />
    </filter>
    <linearGradient
       x2="0"
       xlink:href="#linearGradient3737-174"
       y1="6"
       y2="63.893"
       gradientUnits="userSpaceOnUse"
       id="linearGradient7046"
       gradientTransform="matrix(1.0179,0,0,1.0179,94.38,0.62)" />
    <linearGradient
       x2="0"
       xlink:href="#linearGradient3737-174"
       y1="20.221"
       y2="138.66"
       gradientUnits="userSpaceOnUse"
       id="linearGradient7067" />
    <linearGradient
       x2="0"
       y1="1040.1"
       y2="967.59998"
       gradientUnits="userSpaceOnUse"
       id="linearGradient7843"
       gradientTransform="translate(0,-956.36)"
       xlink:href="#linearGradient3776">
      <stop
         stop-color="#d40000"
         id="stop20" />
      <stop
         stop-color="#e83e00"
         offset="1"
         id="stop22" />
    </linearGradient>
    <linearGradient
       id="linearGradient3776">
      <stop
         id="stop3778"
         offset="0"
         style="stop-color:#e53935;stop-opacity:1;" />
      <stop
         id="stop3780"
         offset="1"
         style="stop-color:#e85350;stop-opacity:1;" />
    </linearGradient>
    <linearGradient
       id="linearGradient3779">
      <stop
         id="stop3781"
         offset="0"
         style="stop-color:#000000;stop-opacity:1;" />
      <stop
         id="stop3783"
         offset="1"
         style="stop-color:#ffffff;stop-opacity:1;" />
    </linearGradient>
    <linearGradient
       inkscape:collect="always"
       xlink:href="#linearGradient3776"
       id="linearGradient4261"
       x1="66.048172"
       y1="95.707001"
       x2="66.048172"
       y2="9.4697123"
       gradientUnits="userSpaceOnUse" />
    <linearGradient
       inkscape:collect="always"
       xlink:href="#linearGradient14231"
       id="linearGradient14237"
       x1="50.707542"
       y1="81.682442"
       x2="50.707542"
       y2="96.539803"
       gradientUnits="userSpaceOnUse" />
    <linearGradient
       inkscape:collect="always"
       id="linearGradient14231">
      <stop
         style="stop-color:#000000;stop-opacity:1;"
         offset="0"
         id="stop14233" />
      <stop
         style="stop-color:#000000;stop-opacity:0;"
         offset="1"
         id="stop14235" />
    </linearGradient>
    <linearGradient
       inkscape:collect="always"
       xlink:href="#linearGradient3737-174"
       id="linearGradient14245"
       x1="49.876652"
       y1="87.937508"
       x2="49.876652"
       y2="76.719681"
       gradientUnits="userSpaceOnUse" />
  </defs>
  <rect
     style="fill-opacity:0.03900003"
     id="rect26"
     width="88.760002"
     height="88.760002"
     y="3.6000221"
     rx="12.552"
     x="3.608" />
  <rect
     style="fill-opacity:0.078"
     id="rect28"
     width="87.550003"
     height="87.550003"
     y="4.2100072"
     rx="12.38"
     x="4.2160001" />
  <rect
     style="fill-opacity:0.15700001"
     id="rect30"
     width="86.330002"
     height="86.330002"
     y="4.8199925"
     rx="12.208"
     x="4.8239999" />
  <path
     inkscape:connector-curvature="0"
     style="fill:url(#linearGradient4261);fill-opacity:1"
     id="path34"
     d="m 17.469,5.41 c -6.668,0 -12.031,5.3945 -12.031,12.063 l 0,61.031 c 0,5.4176 3.5332,9.9818 8.4375,11.5 l 68.188,0 c 4.7148,-1.4568 8.1719,-5.7337 8.4375,-10.875 l 0,-62.281 C 90.17982,10.4709 84.9606,5.41 78.501,5.41 l -61.031,0 z" />
  <g
     id="g4236"
     transform="matrix(1.7822686,0,0,1.6732944,192.27313,19.6164)">
    <path
       style="opacity:0.2;fill:#000000;fill-opacity:1;stroke:none"
       d="m -93.685875,9.0344 9.724715,21.1208 c 1.47394,2.5638 4.02774,3.6365 6.13928,-0.049 l 9.582457,-21.4451 c 1.012919,-2.2669 -0.792086,-5.0305 -2.835971,-5.1626 -2.161764,-0.1403 -3.633339,1.457 -3.730811,2.6752 -0.124335,3.5099 1.978761,5.4507 0.235951,10.1183 -1.165114,2.6775 -5.635338,4.3857 -8.247984,-3e-4 L -88.113874,4.6949 c -0.60136,-1.3169 -2.520465,-1.5373 -3.936168,-0.5491 -1.450286,1.0124 -2.381799,3.2692 -1.635833,4.8893 z"
       id="path3792"
       inkscape:connector-curvature="0"
       sodipodi:nodetypes="sccsscccsss" />
    <path
       sodipodi:nodetypes="sccsscccsss"
       inkscape:connector-curvature="0"
       id="rect3015"
       d="m -93.685875,8.0785 9.724715,17.4792 c 1.47394,2.1217 4.02774,3.0095 6.13928,-0.04 l 9.582457,-17.7475 c 1.012919,-1.8761 -0.792086,-4.1632 -2.835971,-4.2725 -2.161764,-0.1161 -3.633339,1.2058 -3.730811,2.2139 -0.124335,2.9048 1.978761,4.511 0.235951,8.3738 -1.165114,2.2158 -5.635338,3.6295 -8.247984,-3e-4 l -5.295636,-9.5973 c -0.60136,-1.0898 -2.520465,-1.2722 -3.936168,-0.4544 -1.450286,0.8379 -2.381799,2.7055 -1.635833,4.0463 z"
       style="fill:#ededed;fill-opacity:1;stroke:none" />
    <path
       inkscape:connector-curvature="0"
       id="path3786"
       d="m -88.735608,3.8755 5.247396,9.5068 c 0.316057,0.4391 0.654339,0.8236 1.015625,1.1226 -0.114937,-0.1341 -0.229682,-0.2697 -0.338542,-0.421 l -5.315104,-9.612 c -0.14262,-0.2585 -0.342812,-0.4412 -0.609375,-0.5964 z m 19.567708,0.421 c 0.580122,0.8199 0.777293,1.8333 0.270833,2.7713 l -9.580729,17.7507 c -1.704708,2.4623 -3.699408,2.3355 -5.179687,1.0875 1.502363,1.8424 3.839725,2.4786 5.822916,-0.3859 l 9.580729,-17.7506 c 0.665087,-1.2319 0.120549,-2.6196 -0.914062,-3.473 z"
       style="opacity:0.1;fill:#000000;fill-opacity:1;stroke:none" />
  </g>
  <g
     id="g14291">
    <path
       d="m 5.2922679,73.685059 0,5.0663 c 0,6.668 5.3645011,12.032 12.0320011,12.032 l 61.049,0 c 6.668,0 12.032,-5.3645 12.032,-12.032 l 0,-5.0663 c 0,6.6681 -5.3645,12.032 -12.032,12.032 l -61.049,0 c -6.668,0 -12.0320011,-5.3643 -12.0320011,-12.032 z"
       id="path64"
       inkscape:connector-curvature="0"
       style="opacity:0.4;fill:url(#linearGradient14237);fill-opacity:1" />
    <path
       inkscape:connector-curvature="0"
       id="path14214"
       d="m 5.2929688,72.717592 0,1.15039 c 0,6.667718 5.3632502,12.031248 12.0312502,12.031248 l 61.048828,0 c 6.6675,0 12.03125,-5.36313 12.03125,-12.031248 l 0,-1.15039 c 0,6.668098 -5.36375,12.031248 -12.03125,12.031248 l -61.048828,0 c -6.668,0 -12.0312502,-5.36355 -12.0312502,-12.031248 z"
       style="opacity:0.5;fill:url(#linearGradient14245);fill-opacity:1" />
  </g>
</svg>
