<?xml version="1.0" encoding="UTF-8" standalone="no"?>
<svg
   xmlns:dc="http://purl.org/dc/elements/1.1/"
   xmlns:cc="http://creativecommons.org/ns#"
   xmlns:rdf="http://www.w3.org/1999/02/22-rdf-syntax-ns#"
   xmlns:svg="http://www.w3.org/2000/svg"
   xmlns="http://www.w3.org/2000/svg"
   xmlns:xlink="http://www.w3.org/1999/xlink"
   xmlns:sodipodi="http://sodipodi.sourceforge.net/DTD/sodipodi-0.dtd"
   xmlns:inkscape="http://www.inkscape.org/namespaces/inkscape"
   height="96"
   width="96"
   id="svg1188"
   version="1.1"
   inkscape:version="0.91 r13725"
   sodipodi:docname="gnome-web-browser.svg">
  <metadata
     id="metadata1267">
    <rdf:RDF>
      <cc:Work
         rdf:about="">
        <dc:format>image/svg+xml</dc:format>
        <dc:type
           rdf:resource="http://purl.org/dc/dcmitype/StillImage" />
      </cc:Work>
    </rdf:RDF>
  </metadata>
  <sodipodi:namedview
     pagecolor="#ffffff"
     bordercolor="#666666"
     borderopacity="1"
     objecttolerance="10"
     gridtolerance="10"
     guidetolerance="10"
     inkscape:pageopacity="0"
     inkscape:pageshadow="2"
     inkscape:window-width="640"
     inkscape:window-height="480"
     id="namedview1265"
     showgrid="false"
     inkscape:zoom="2.4583333"
     inkscape:cx="48"
     inkscape:cy="48"
     inkscape:current-layer="svg1188" />
  <defs
     id="defs1190">
    <linearGradient
       x1="59"
       x2="69"
       gradientUnits="userSpaceOnUse"
       id="linearGradient5976-3">
      <stop
         stop-color="#f0f0f0"
         id="stop1193" />
      <stop
         stop-color="#e6e6e6"
         offset="0.5"
         id="stop1195" />
      <stop
         stop-color="#d2d2d2"
         offset="0.5"
         id="stop1197" />
      <stop
         stop-color="#bebebe"
         offset="1"
         id="stop1199" />
    </linearGradient>
    <linearGradient
       x1="59"
       x2="69"
       gradientUnits="userSpaceOnUse"
       id="linearGradient5974-7">
      <stop
         stop-color="#ff7c53"
         id="stop1202" />
      <stop
         stop-color="#f21919"
         offset="0.5"
         id="stop1204" />
      <stop
         stop-color="#db1414"
         offset="0.5"
         id="stop1206" />
      <stop
         stop-color="#9b1818"
         offset="1"
         id="stop1208" />
    </linearGradient>
    <radialGradient
       cy="63.28"
       r="1.74"
       gradientUnits="userSpaceOnUse"
       id="radialGradient5978"
       cx="63.33"
       gradientTransform="matrix(0.644 0 0 0.644 22.699 22.756)">
      <stop
         stop-color="#c1c1c1"
         id="stop1211" />
      <stop
         stop-color="#3f3f3f"
         offset="1"
         id="stop1213" />
    </radialGradient>
    <radialGradient
       cy="61.949"
       r="58.02"
       gradientUnits="userSpaceOnUse"
       id="radialGradient3169"
       cx="63.98"
       inkscape:collect="always"
       gradientTransform="matrix(1.09 0 0 0.81096 -21.864 -5.477)">
      <stop
         stop-color="#7bb8f0"
         id="stop1216" />
      <stop
         stop-color="#b5d5f2"
         stop-opacity="0.122"
         offset="1"
         id="stop1218" />
    </radialGradient>
    <linearGradient
       x2="0"
       y1="90"
       y2="5.988"
       gradientUnits="userSpaceOnUse"
       id="linearGradient3215"
       inkscape:collect="always"
       gradientTransform="matrix(1.452 0 0 1.40406 -19.07 -17.704)">
      <stop
         stop-color="#156ab9"
         id="stop1221" />
      <stop
         stop-color="#5ba1e4"
         offset="1"
         id="stop1223" />
    </linearGradient>
    <linearGradient
       inkscape:collect="always"
       xlink:href="#linearGradient14231"
       id="linearGradient14237"
       x1="50.707542"
       y1="81.682442"
       x2="50.707542"
       y2="96.539803"
       gradientUnits="userSpaceOnUse" />
    <linearGradient
       inkscape:collect="always"
       id="linearGradient14231">
      <stop
         style="stop-color:#000000;stop-opacity:1;"
         offset="0"
         id="stop14233" />
      <stop
         style="stop-color:#000000;stop-opacity:0;"
         offset="1"
         id="stop14235" />
    </linearGradient>
    <linearGradient
       inkscape:collect="always"
       xlink:href="#linearGradient14239"
       id="linearGradient14245"
       x1="49.876652"
       y1="87.937508"
       x2="49.876652"
       y2="76.719681"
       gradientUnits="userSpaceOnUse" />
    <linearGradient
       inkscape:collect="always"
       id="linearGradient14239">
      <stop
         style="stop-color:#ffffff;stop-opacity:1;"
         offset="0"
         id="stop14241" />
      <stop
         style="stop-color:#ffffff;stop-opacity:0;"
         offset="1"
         id="stop14243" />
    </linearGradient>
  </defs>
  <g
     transform="matrix(1 0 0 1 0 -956.36)"
     id="g1225">
    <rect
       x="3.353"
       rx="12.724"
       y="959.35"
       fill-opacity="0.02"
       height="89.98"
       width="89.62"
       id="rect1227" />
    <rect
       x="3.959"
       rx="12.552"
       y="959.96"
       fill-opacity="0.039"
       height="88.76"
       width="88.41"
       id="rect1229" />
    <rect
       x="4.564"
       rx="12.38"
       y="960.57"
       fill-opacity="0.078"
       height="87.55"
       width="87.2"
       id="rect1231" />
    <rect
       x="5.17"
       rx="12.208"
       y="961.18"
       fill-opacity="0.157"
       height="86.33"
       width="85.991"
       id="rect1233" />
  </g>
  <path
     d="M 17.75 5.40625 C 11.1082 5.40625 5.78125 10.80135 5.78125 17.46875 L 5.78125 78.5 C 5.78125 85.168 11.108 90.53125 17.75 90.53125 L 78.5625 90.53125 C 85.2043 90.53125 90.53125 85.1678 90.53125 78.5 L 90.53125 17.46875 C 90.53125 10.80075 85.2045 5.40625 78.5625 5.40625 L 17.75 5.40625 z "
     fill="url(#linearGradient3215)"
     id="path1235" />
  <path
     d="m 36.149018,5.7002679 c 1.6501,2.1378617 0.11259,5.7078461 2.6015,5.6724341 1.2119,1.653089 -2.4154,0.493109 0.2036,1.767142 1.5061,1.144387 -1.5934,1.798212 0.27178,2.825169 -2.1497,1.070185 0.34844,5.597558 1.9451,6.730656 2.628,2.134484 1.1622,-4.519075 4.0945,-4.865189 1.5934,-1.754984 4.3918,-2.88152 6.3793,-4.647022 -1.9423,-0.152128 -3.0765,-1.318554 -1.237,-2.041081 3.3854,3.346995 0.8489,-1.5850624 -1.0251,-2.3659661 1.8134,-0.5565231 3.577,-0.1489824 3.3254,-1.592589 1.9163,-1.3526153 -1.8423,-1.789335 -3.1839,-1.483554 h -13.375 z M 8.3470195,7.0964973 C 5.8973213,7.7699102 5.7264213,13.418221 8.1887195,10.282254 8.7930189,8.9939024 11.586018,7.4418397 8.3470195,7.0964973 z M 19.794018,7.2928571 c -1.4123,2.1365103 0.20491,3.8495199 1.3799,1.2435801 0.83171,-1.0882291 -0.61793,-1.2037292 -1.3799,-1.2435801 z m 3.529,0.4799768 c -2.7288,1.220229 -0.6726,4.0656601 -0.60506,4.6984511 2.8746,0.959442 4.4732,-0.6273 5.5607,2.084598 2.7352,1.520896 -0.0538,4.163504 -1.0805,4.851776 1.8493,-1.553896 5.4042,4.22468 4.4723,1.171694 -1.1118,-0.783191 2.9852,1.258151 0.85962,-1.287194 -1.9561,-3.040538 0.15527,-1.361203 0.97995,-0.651577 2.8049,-2.426563 -3.1736,-2.719897 -1.6812,-5.217189 -1.309,-1.021843 -3.024,-4.1172836 -5.34,-3.5122836 -1.55,1.9346506 -0.214,-4.2143538 -2.488,-1.1374388 -0.11789,1.7199564 -0.0429,3.9024944 -0.70571,0.9227941 -0.44407,-0.5216414 0.764,-1.7343341 0.0273,-1.9232641 z m -5.5649,0.021807 c -1.832,0.589176 -1.734,2.9768531 0.519,3.2325541 0.771,-0.848158 0.306,-3.0717995 -0.519,-3.2324576 z m -7.149,0.7636323 C 8.2300195,9.1020978 9.2011186,10.952801 9.9295483,11.474047 c -2.9448979,0.711681 4.4956997,0.909585 0.7926797,1.360334 -3.0807982,1.187037 2.9667,2.585582 3.9588,1.178159 3.8044,0.89763 0.13691,-2.93816 -0.19704,-5.0174508 -1.6128,-1.6698785 -0.0636,3.8496168 -1.5219,0.1778525 -0.50879,1.0903513 -2.1265,0.1606774 -2.353,-0.6145913 z m 75.601,0.2399737 c -3.1924,1.2053691 1.9842,5.7542591 0.69765,1.6159391 -0.12817,-0.4996994 0.28819,-1.820018 -0.69765,-1.6159391 z m -66.665,1.8323691 c -2.2941,2.079967 2.916,3.800021 -0.65889,5.349672 -0.53602,-1.93166 -1.4583,0.966457 -3.5035,-0.593528 -3.5159,1.412343 -5.3139,-0.735698 -8.2574976,-2.208107 -1.7679991,-0.212339 -1.1037994,1.620764 -1.2208991,3.337152 v 14.230539 c 1.7334985,1.759616 0.6763294,0.77635 0,0.291018 0.9514691,3.126318 -0.41957,7.696436 3.3308973,9.514912 0.6375597,1.140913 3.3128994,6.001762 3.4361994,4.547346 -1.3412,-1.355124 -2.7173997,-5.417602 -0.4479,-1.796765 2.0328,3.441847 4.7748,5.674271 8.7805,6.493289 2.1901,0.718725 3.9912,3.189327 5.9171,2.645792 1.089,2.769782 -3.2274,5.429662 0.14491,8.01312 1.7605,2.615301 4.7162,4.330724 3.116,8.002411 -1.1191,3.586004 -0.63993,7.493419 -1.6078,10.83501 -0.30039,2.033748 2.938,7.195647 2.6575,3.062152 0.94557,-2.87245 0.92064,-6.033119 3.1476,-8.067349 3.0471,0.02325 0.58237,-3.161152 3.607,-2.745178 1.8456,-2.334029 2.3802,-5.118382 5.4949,-6.045181 0.37205,-2.833082 5.1788,-7.172104 0.21314,-8.275192 -1.3496,-0.641783 -4.8245,-0.872552 -4.5589,-1.189256 0.53803,-2.811177 -4.4935,-3.611476 -6.6342,-4.761652 -2.8108,-1.924906 -7.0342,3.197624 -8.0245,-1.216177 -0.59088,-1.388703 -2.7513,-1.411282 -1.7584,-3.554161 -1.7894,1.716966 -5.2893,1.195141 -4.373,-2.120688 1.3916,-2.792652 6.7356,-2.924749 7.6463,0.434269 -1.2644,-3.704592 2.4439,-6.588428 4.5025,-9.224088 0.41916,-1.259791 2.9097,-2.342037 2.0527,-0.667797 1.4602,-0.05081 3.6733,-2.59301 1.0794,-1.419677 -0.0367,-2.318396 -2.273,-1.659071 -2.998,-1.329842 1.3438,-2.057677 8.245,-0.932733 5.3551,-4.29618 -2.2393,-0.875398 -2.053,-5.983812 -4.318,-3.137897 0.1906,-1.75344 -4.61,-5.185926 -4.5052,-2.245546 0.58599,2.631125 0.10714,5.66211 -1.1399,7.3867 -0.26025,-3.855407 -7.0757,-3.003293 -6.1994,-7.1117 1.2695,-1.958098 2.7529,-4.665838 2.8942,-4.422293 2.275,-0.838037 4.1046,-3.275688 1.4678,-4.878216 -0.14092,1.396712 -1.983,4.278329 -1.7237,0.793082 -1.7058,1.951247 -1.3162,-3.104898 -2.9138,-3.629328 z m 54.45,1.352615 c -3.9959,0.943058 -5.5801,4.625312 -7.5568,7.675113 -2.9139,1.26751 -2.8029,6.710875 0.45241,4.972294 0.87128,1.468115 -0.60951,3.78217 1.9283,1.862572 2.047,-2.613564 0.35794,-6.840463 3.8414,-8.488438 0.25374,1.281405 -3.2133,6.06612 0.83699,5.279716 3.6616,0.133293 -2.6618,0.35199 -0.88099,2.608546 -1.8503,-1.059185 -0.88884,2.892617 -3.304,1.973054 -2.0923,1.098072 -3.4643,-0.509831 -2.985,-2.271212 -1.646,0.926413 0.5177,3.53988 -2.3396,3.696968 -0.64005,2.192765 -5.9034,1.862282 -2.9102,4.095091 1.3289,3.322775 -4.9515,0.208305 -3.1685,4.195828 1.5254,3.943021 4.7224,-1.306492 6.0194,-2.320809 2.5025,-1.8728 6.2107,3.193284 3.9588,3.381635 2.5251,-0.326855 2.0062,-2.643766 -0.0169,-3.540749 -1.0927,-2.734081 3.459,1.340843 3.2066,2.711695 1.606,2.901398 0.94462,-2.970582 2.5788,-0.370884 -0.1908,2.742284 6.5742,0.644775 3.3444,4.139767 -2.7769,0.539619 -5.5101,-0.690675 -7.9008,0.09734 -2.2251,-0.019 -2.1135,-2.312704 -2.9236,-2.887117 -2.8304,0.221863 -6.3279,0.196775 -8.2228,2.402827 -2.049,2.712274 -5.0038,6.503903 -2.7705,9.967555 2.2349,5.132179 7.7772,0.26621 10.963,3.297204 0.94693,1.263747 -0.8206,2.76602 1.2967,4.134942 0.79672,2.915968 -0.90448,5.68469 1.0523,8.472227 1.0118,2.621477 1.6398,6.545296 5.4058,4.149803 3.9858,-2.314152 2.9242,-6.580033 6.2129,-8.942816 -2.6023,-4.858917 3.1836,-6.989348 4.6272,-10.93343 -3.154,0.445481 -5.9638,-2.588283 -6.7258,-5.641847 -1.3249,-1.48317 -0.98368,-3.670146 0.49633,-0.883872 2.0343,1.901749 2.0782,7.544851 5.8413,4.641813 1.7204,-0.694236 6.4186,-3.342459 2.6751,-4.547638 -2.413,1.686188 -5.0752,-5.038487 -1.5318,-1.138018 2.576,1.054457 4.38,1.682617 4.38,-1.813265 v -28.44756 c -0.8024,0.791103 -2.8638,2.252204 -3.9043,1.281308 -1.7904,0.240534 -4.1539,3.601442 -3.5912,0.352541 -1.5562,-0.09943 -0.27858,2.913073 -2.4166,2.99731 -0.21529,1.548782 -2.1599,0.286801 -1.4294,1.757589 -1.5006,-1.026957 -2.7707,-4.269548 0.18614,-2.234353 4.391,-1.270983 -2.8956,-4.137837 -3.458,-4.830741 0.94545,-0.218553 -1.0286,-1.169089 -1.2668,-0.850861 z m -36.24,0.850861 c -1.4615,1.174878 2.7785,1.396133 0,0 z m -19.522,0.632693 c -1.6346,1.649713 2.6033,1.516555 0,0 z m 9.4784,1.6363 c -1.2379,1.956458 1.829,0.722305 0,0 z m 27.101,2.312608 c -1.4492,1.609668 -3.362,-0.423636 -3.3932,0.959944 0.26265,0.418058 1.3147,3.401801 3.6194,1.199966 1.237,-0.503154 0.74995,-1.771581 -0.22622,-2.159862 z m -30.856,0.959944 c -2.7488,2.316081 4.6683,2.529423 0.58232,0.26563 l -0.58232,-0.26563 z m 36.262,6.414163 c -1.9791,1.245124 0.94943,3.889372 -0.0431,5.131505 -1.2401,2.084599 4.6083,-0.14684 1.4846,-1.809984 -0.22257,-1.42894 -1.83,-3.172345 -1.4415,-3.321521 z m -1.3347,2.508968 c -2.7574,0.75212 -0.62595,4.63525 0.35067,0.977939 0.0549,-0.21204 0.12936,-0.984983 -0.35067,-0.977939 z m -22.079,2.814362 c -2.5652,1.687633 -0.39843,3.372081 1.4816,2.612792 -0.38596,-1.018177 -1.4642,-1.659747 -1.4816,-2.612792 z m 48.455,2.836169 c 1.28,0.623217 -2.3455,1.687825 -0.0498,2.784642 1.336,1.515782 0.83231,4.769566 -1.3392,2.466704 0.40344,-2.571204 -2.9436,-4.491381 1.389,-5.251346 z m -6.5829,0.02181 c -0.17366,1.651834 3.694,4.219565 -0.47504,3.381634 -2.2048,0.249527 -5.507,-0.065 -2.7294,-2.715555 0.87765,-0.508336 3.1821,1.753826 1.9829,-0.360646 0.42513,-0.02617 0.82107,-0.180999 1.2216,-0.305433 z m -12.735,3.576932 c -1.6081,0.999554 1.112,1.765984 0,0 z m -40.379,9.315853 c -0.27111,0.872619 5.086,1.756914 1.3893,0.358909 l -0.55107,-0.187145 -0.83822,-0.171764 z m 4.1624,1.24358 c -1.6249,1.591528 3.3478,0.47548 0,0 z m 54.337,14.595276 c -3.5307,0.0879 -3.0613,8.874306 -0.60013,3.675258 0.2334,-1.128177 1.1689,-2.617231 0.60013,-3.675258 z"
     fill="url(#radialGradient3169)"
     opacity="0.8"
     inkscape:connector-curvature="0"
     id="path1241" />
  <g
     transform="matrix(1 0 0 1 -0.125 -2.393)"
     id="g1243">
    <path
       d="m 48,16 -4.625,16.688 c -1.7501,0.5289 -3.3722,1.3505 -4.8125,2.4062 l -7.5312,-4.0625 4.0625,7.5312 c -1.0558,1.4403 -1.8774,3.0624 -2.4062,4.8125 l -16.687,4.624 16.688,4.625 c 0.5289,1.7501 1.3505,3.3722 2.4062,4.8125 l -4.0625,7.5312 7.5312,-4.0625 c 1.4403,1.0558 3.0624,1.8774 4.8125,2.4062 L 48,79.9988 52.625,63.3108 c 1.7501,-0.5289 3.3722,-1.3505 4.8125,-2.4062 l 7.5312,4.0625 -4.0625,-7.5312 c 1.0558,-1.4403 1.8774,-3.0624 2.4062,-4.8125 l 16.687,-4.624 -16.688,-4.625 c -0.5289,-1.7501 -1.3505,-3.3722 -2.4062,-4.8125 l 4.0625,-7.5312 -7.5312,4.0625 c -1.44,-1.055 -3.062,-1.877 -4.812,-2.405 l -4.625,-16.688 z m 0,20 c 6.6274,0 12,5.3726 12,12 0,6.6274 -5.3726,12 -12,12 -6.6274,0 -12,-5.3726 -12,-12 0,-6.6274 5.3726,-12 12,-12 z"
       fill="#ffffff"
       color="#000000"
       inkscape:connector-curvature="0"
       id="path1245" />
    <path
       d="M 73.594,19.875 A 0.98733,0.98733 0 0 0 73.5,19.906 c -1.8625,0.66289 -2.9858,2.09 -4.1562,2.8438 a 0.98733,0.98733 0 0 0 -0.0625,0.0625 c -8.954,6.867 -17.98,13.677 -26.907,20.594 a 0.98733,0.98733 0 0 0 -0.1875,0.1875 c -7.645,10.011 -15.289,20.026 -22.938,30.031 a 0.98733,0.98733 0 0 0 -0.0625,0.0625 c -1.4934,2.4125 1.3766,5.5828 3.9062,4.25 a 0.98733,0.98733 0 0 0 0.094,-0.063 c 4.2952,-3.0989 8.4785,-6.4312 12.688,-9.5938 5.9094,-4.5415 11.864,-9.0304 17.75,-13.625 A 0.98733,0.98733 0 0 0 53.812,54.468 C 61.452,44.423 69.177,34.43 76.779,24.344 a 0.98733,0.98733 0 0 0 0.094,-0.156 c 1.0641,-2.1439 -0.82062,-4.6449 -3.1562,-4.3125 a 0.98733,0.98733 0 0 0 -0.125,0 z"
       fill-rule="evenodd"
       opacity="0.05"
       inkscape:connector-curvature="0"
       id="path1247" />
    <path
       d="m 73.844,20.844 c -1.5192,0.5407 -2.6275,1.8902 -3.9806,2.7615 -8.9573,6.8693 -17.974,13.67 -26.894,20.582 -7.6444,10.011 -15.288,20.025 -22.938,30.031 -0.98716,1.5947 0.9159,3.7278 2.5938,2.8438 4.2701,-3.0809 8.4177,-6.404 12.641,-9.5774 5.914,-4.546 11.888,-9.023 17.765,-13.611 7.644,-10.05 15.372,-20.045 22.969,-30.125 0.719,-1.449 -0.574,-3.131 -2.156,-2.906 z"
       fill-rule="evenodd"
       opacity="0.1"
       inkscape:connector-curvature="0"
       id="path1249" />
    <path
       d="m 74.094,21.938 a 0.93158,0.93158 0 0 0 -0.5,0.1875 l -29.656,22.655 a 0.93158,0.93158 0 0 0 -0.188,0.188 l -22.656,29.656 a 0.93158,0.93158 0 0 0 1.3125,1.3125 L 52.0625,53.28 a 0.93158,0.93158 0 0 0 0.188,-0.187 l 22.656,-29.656 a 0.93158,0.93158 0 0 0 -0.8125,-1.5 z"
       fill-rule="evenodd"
       opacity="0.15"
       inkscape:connector-curvature="0"
       id="path1251" />
    <path
       d="M 74.156,22.875 44.5,45.531 21.844,75.188 51.5,52.531 74.156,22.875 z"
       fill-rule="evenodd"
       opacity="0.3"
       inkscape:connector-curvature="0"
       id="path1253" />
    <g
       fill-rule="evenodd"
       transform="matrix(0.70711 0.70711 -0.70711 0.70711 48.02 -19.873)"
       id="g1255">
      <g
         transform="matrix(0.98984 0 0 0.77049 -15.35 -1.283)"
         id="g1257">
        <path
           d="M 69,64 H 59 l 5,-48 5,48 z"
           fill="url(#linearGradient5974-7)"
           inkscape:connector-curvature="0"
           id="path1259" />
        <path
           d="M 69,64 H 59 l 5,48 5,-48 z"
           fill="url(#linearGradient5976-3)"
           inkscape:connector-curvature="0"
           id="path1261" />
      </g>
      <path
         d="m 65.503,63.921 a 1.7404,1.7404 0 1 1 -3.4808,0 1.7404,1.7404 0 1 1 3.4808,0 z"
         fill="url(#radialGradient5978)"
         inkscape:connector-curvature="0"
         transform="matrix(0.88541 0 0 0.88541 -8.457 -8.567)"
         id="path1263" />
    </g>
  </g>
  <g
     id="g14291">
    <path
       d="m 5.2922679,73.685059 0,5.0663 c 0,6.668 5.3645011,12.032 12.0320011,12.032 l 61.049,0 c 6.668,0 12.032,-5.3645 12.032,-12.032 l 0,-5.0663 c 0,6.6681 -5.3645,12.032 -12.032,12.032 l -61.049,0 c -6.668,0 -12.0320011,-5.3643 -12.0320011,-12.032 z"
       id="path64"
       inkscape:connector-curvature="0"
       style="opacity:0.4;fill:url(#linearGradient14237);fill-opacity:1" />
    <path
       inkscape:connector-curvature="0"
       id="path14214"
       d="m 5.2929688,72.717592 0,1.15039 c 0,6.667718 5.3632502,12.031248 12.0312502,12.031248 l 61.048828,0 c 6.6675,0 12.03125,-5.36313 12.03125,-12.031248 l 0,-1.15039 c 0,6.668098 -5.36375,12.031248 -12.03125,12.031248 l -61.048828,0 c -6.668,0 -12.0312502,-5.36355 -12.0312502,-12.031248 z"
       style="opacity:0.5;fill:url(#linearGradient14245);fill-opacity:1" />
  </g>
</svg>
