<?xml version="1.0" encoding="UTF-8" standalone="no"?>
<svg
   xmlns:dc="http://purl.org/dc/elements/1.1/"
   xmlns:cc="http://creativecommons.org/ns#"
   xmlns:rdf="http://www.w3.org/1999/02/22-rdf-syntax-ns#"
   xmlns:svg="http://www.w3.org/2000/svg"
   xmlns="http://www.w3.org/2000/svg"
   xmlns:xlink="http://www.w3.org/1999/xlink"
   xmlns:sodipodi="http://sodipodi.sourceforge.net/DTD/sodipodi-0.dtd"
   xmlns:inkscape="http://www.inkscape.org/namespaces/inkscape"
   height="96"
   width="96"
   id="svg2"
   version="1.1"
   inkscape:version="0.91 r13725"
   sodipodi:docname="whatsapp.svg">
  <metadata
     id="metadata114">
    <rdf:RDF>
      <cc:Work
         rdf:about="">
        <dc:format>image/svg+xml</dc:format>
        <dc:type
           rdf:resource="http://purl.org/dc/dcmitype/StillImage" />
        <dc:title></dc:title>
      </cc:Work>
    </rdf:RDF>
  </metadata>
  <sodipodi:namedview
     pagecolor="#ffffff"
     bordercolor="#666666"
     borderopacity="1"
     objecttolerance="10"
     gridtolerance="10"
     guidetolerance="10"
     inkscape:pageopacity="0"
     inkscape:pageshadow="2"
     inkscape:window-width="1366"
     inkscape:window-height="708"
     id="namedview112"
     showgrid="false"
     inkscape:zoom="1.7383042"
     inkscape:cx="89.789598"
     inkscape:cy="34.91207"
     inkscape:window-x="0"
     inkscape:window-y="24"
     inkscape:window-maximized="1"
     inkscape:current-layer="svg2" />
  <defs
     id="defs4">
    <linearGradient
       xlink:href="#linearGradient3764"
       gradientTransform="matrix(1.0833,0,0,1.0833,-4.385,-4.394)"
       id="linearGradient15160"
       gradientUnits="userSpaceOnUse"
       y2="5.9879999"
       y1="90"
       x2="0">
      <stop
         id="stop4439"
         stop-color="#eec00f" />
      <stop
         id="stop4441"
         offset="1"
         stop-color="#fff8a0" />
    </linearGradient>
    <linearGradient
       id="linearGradient3731">
      <stop
         stop-color="#520"
         id="stop7" />
      <stop
         stop-color="#520"
         stop-opacity="0"
         offset="1"
         id="stop9" />
    </linearGradient>
    <linearGradient
       id="linearGradient3707-0">
      <stop
         stop-color="#a8d4fb"
         id="stop12" />
      <stop
         stop-color="#dff0fa"
         offset="1"
         id="stop14" />
    </linearGradient>
    <linearGradient
       id="linearGradient3724">
      <stop
         stop-color="#0d82e4"
         id="stop17" />
      <stop
         stop-color="#bcdbf7"
         offset="1"
         id="stop19" />
    </linearGradient>
    <linearGradient
       id="linearGradient3757">
      <stop
         stop-color="#389bed"
         id="stop22" />
      <stop
         stop-color="#c2e5fc"
         offset="1"
         id="stop24" />
    </linearGradient>
    <linearGradient
       x2="0"
       y1="90"
       y2="5.9879999"
       gradientUnits="userSpaceOnUse"
       id="linearGradient4443"
       gradientTransform="matrix(1.0833,0,0,1.0833,-4.385,-4.394)"
       xlink:href="#linearGradient3764">
      <stop
         stop-color="#eec00f"
         id="stop27" />
      <stop
         stop-color="#fff8a0"
         offset="1"
         id="stop29" />
    </linearGradient>
    <linearGradient
       x2="0"
       xlink:href="#linearGradient3731"
       y1="77.27"
       y2="21.944"
       gradientUnits="userSpaceOnUse"
       id="linearGradient15182"
       gradientTransform="translate(-109.88,856.47)" />
    <linearGradient
       x1="47.835"
       x2="48.32"
       xlink:href="#linearGradient3731"
       y1="74.69"
       y2="28.01"
       gradientUnits="userSpaceOnUse"
       id="linearGradient15188"
       gradientTransform="translate(-109.88,857.47)" />
    <linearGradient
       x1="47.917"
       x2="76.62"
       gradientUnits="userSpaceOnUse"
       id="linearGradient15190"
       gradientTransform="translate(-109.88,856.47)">
      <stop
         stop-color="#5cacf5"
         id="stop34" />
      <stop
         stop-color="#abd4f4"
         offset="1"
         id="stop36" />
    </linearGradient>
    <linearGradient
       x1="19.288"
       x2="47.995"
       gradientUnits="userSpaceOnUse"
       id="linearGradient15192"
       gradientTransform="translate(-109.88,856.47)">
      <stop
         stop-color="#5aabf2"
         id="stop39" />
      <stop
         stop-color="#badaf5"
         offset="1"
         id="stop41" />
    </linearGradient>
    <linearGradient
       x1="31"
       x2="48.03"
       xlink:href="#linearGradient3707-0"
       gradientUnits="userSpaceOnUse"
       id="linearGradient15194"
       gradientTransform="translate(-109.88,856.47)" />
    <linearGradient
       x1="27.395"
       x2="48.11"
       xlink:href="#linearGradient3724"
       gradientUnits="userSpaceOnUse"
       id="linearGradient15196"
       gradientTransform="translate(-109.88,856.47)" />
    <linearGradient
       x1="48.08"
       x2="65.11"
       xlink:href="#linearGradient3707-0"
       gradientUnits="userSpaceOnUse"
       id="linearGradient15198"
       gradientTransform="translate(-109.88,856.47)" />
    <linearGradient
       x1="48"
       x2="69.02"
       xlink:href="#linearGradient3724"
       gradientUnits="userSpaceOnUse"
       id="linearGradient15200"
       gradientTransform="translate(-109.88,856.47)" />
    <linearGradient
       x1="47.917"
       x2="76.73"
       xlink:href="#linearGradient3757"
       gradientUnits="userSpaceOnUse"
       id="linearGradient15202"
       gradientTransform="translate(-109.88,856.47)" />
    <linearGradient
       x1="19.07"
       x2="47.886"
       xlink:href="#linearGradient3757"
       gradientUnits="userSpaceOnUse"
       id="linearGradient15204"
       gradientTransform="translate(-109.88,856.47)" />
    <linearGradient
       x1="31.09"
       x2="48.11"
       gradientUnits="userSpaceOnUse"
       id="linearGradient15206"
       gradientTransform="translate(-109.88,856.47)">
      <stop
         stop-color="#1b8cee"
         id="stop50" />
      <stop
         stop-color="#79b8e8"
         offset="1"
         id="stop52" />
    </linearGradient>
    <linearGradient
       x1="48"
       x2="69.02"
       gradientUnits="userSpaceOnUse"
       id="linearGradient15208"
       gradientTransform="translate(-109.88,856.47)">
      <stop
         stop-color="#107cd9"
         id="stop55" />
      <stop
         stop-color="#79b8e8"
         offset="1"
         id="stop57" />
    </linearGradient>
    <path
       d="m-61.927 907.47 17.042 12.021-17.042 12.021-17.042-12.021 17.042-12.021z"
       fill="#fdfffe"
       color="#000000"
       id="SVGCleanerId_0" />
    <linearGradient
       gradientTransform="translate(-48.000001,0.00221467)"
       gradientUnits="userSpaceOnUse"
       x2="47"
       x1="1"
       id="linearGradient3764">
      <stop
         id="stop4247"
         stop-opacity="1"
         stop-color="#186dae" />
      <stop
         id="stop4249"
         stop-opacity="1"
         stop-color="#1b77bf"
         offset="1" />
    </linearGradient>
    <clipPath
       id="clipPath-298891903">
      <g
         id="g4252"
         transform="translate(0,-1004.3622)">
        <rect
           id="rect4254"
           fill="#1890d0"
           width="46"
           height="46"
           x="1"
           y="1005.36"
           rx="4" />
      </g>
    </clipPath>
    <clipPath
       id="clipPath-311838651">
      <g
         id="g4257"
         transform="translate(0,-1004.3622)">
        <rect
           id="rect4259"
           fill="#1890d0"
           width="46"
           height="46"
           x="1"
           y="1005.36"
           rx="4" />
      </g>
    </clipPath>
    <linearGradient
       inkscape:collect="always"
       xlink:href="#SVGID_2_"
       id="linearGradient4451"
       x1="48.086086"
       y1="113.05344"
       x2="48.086086"
       y2="6.8839545"
       gradientUnits="userSpaceOnUse" />
    <linearGradient
       id="linearGradient3879"
       gradientUnits="userSpaceOnUse"
       x1="200.0508"
       y1="185.0742"
       x2="200.0508"
       y2="217.4595">
      <stop
         offset="0"
         style="stop-color:#69be5b;stop-opacity:1;"
         id="stop3881" />
      <stop
         id="stop3883"
         style="stop-color:#0b9f4e;stop-opacity:1"
         offset="0.5" />
      <stop
         offset="1"
         style="stop-color:#69be5a;stop-opacity:1;"
         id="stop3885" />
    </linearGradient>
    <linearGradient
       y2="48.0854"
       x2="78.466103"
       y1="56.3008"
       x1="64.477501"
       gradientUnits="userSpaceOnUse"
       id="XMLID_74_-8-1">
      <stop
         id="stop155-3-8"
         style="stop-color:#ffffff;stop-opacity:1;"
         offset="0" />
      <stop
         id="stop157-94-6"
         style="stop-color:#e6e6e6;stop-opacity:1;"
         offset="1" />
    </linearGradient>
    <radialGradient
       gradientUnits="userSpaceOnUse"
       gradientTransform="matrix(1,0,0,1.0499906,0,-19.270593)"
       r="191.6187"
       fy="385.4841"
       fx="558.35437"
       cy="385.4841"
       cx="558.35437"
       id="radialGradient3867"
       xlink:href="#XMLID_74_-8-1"
       inkscape:collect="always" />
    <linearGradient
       y2="217.4595"
       x2="200.0508"
       y1="185.0742"
       x1="200.0508"
       gradientUnits="userSpaceOnUse"
       id="SVGID_2_">
      <stop
         id="stop13"
         style="stop-color:#69be5b;stop-opacity:1;"
         offset="0" />
      <stop
         offset="0.5"
         style="stop-color:#0a8d45;stop-opacity:1;"
         id="stop3877" />
      <stop
         id="stop15"
         style="stop-color:#69be5a;stop-opacity:1;"
         offset="1" />
    </linearGradient>
    <linearGradient
       inkscape:collect="always"
       xlink:href="#SVGID_2_"
       id="linearGradient3021"
       gradientUnits="userSpaceOnUse"
       gradientTransform="matrix(13.577628,0,0,13.577628,-2026.1619,-2566.7096)"
       x1="200.0508"
       y1="185.0742"
       x2="200.0508"
       y2="217.4595" />
    <linearGradient
       y2="217.4595"
       x2="200.0508"
       y1="185.0742"
       x1="200.0508"
       gradientTransform="matrix(9.2574736,0,0,9.2574736,-1595.9285,-1607.2111)"
       gradientUnits="userSpaceOnUse"
       id="linearGradient3017"
       xlink:href="#SVGID_2_"
       inkscape:collect="always" />
    <linearGradient
       inkscape:collect="always"
       xlink:href="#SVGID_2_"
       id="linearGradient3803"
       x1="259.99384"
       y1="44"
       x2="259.99384"
       y2="464"
       gradientUnits="userSpaceOnUse" />
    <linearGradient
       y2="251.66064"
       x2="1011.9534"
       y1="476.25983"
       x1="1016.1035"
       gradientTransform="translate(-146.22032,369.08845)"
       gradientUnits="userSpaceOnUse"
       id="linearGradient4082"
       xlink:href="#linearGradient4487"
       inkscape:collect="always" />
    <linearGradient
       id="linearGradient4487">
      <stop
         offset="0"
         style="stop-color:#000000;stop-opacity:1"
         id="stop4489" />
      <stop
         offset="1"
         style="stop-color:#000000;stop-opacity:0"
         id="stop4491" />
    </linearGradient>
    <linearGradient
       id="linearGradient3737">
      <stop
         offset="0"
         style="stop-color:#ffffff;stop-opacity:1"
         id="stop3739" />
      <stop
         offset="1"
         style="stop-color:#ffffff;stop-opacity:0"
         id="stop3741" />
    </linearGradient>
    <linearGradient
       id="linearGradient4046">
      <stop
         offset="0"
         style="stop-color:#000000;stop-opacity:1;"
         id="stop4048" />
      <stop
         offset="1"
         style="stop-color:#ffffff;stop-opacity:0.2"
         id="stop4050" />
    </linearGradient>
    <linearGradient
       gradientTransform="matrix(1.0058652,0,0,0.994169,100,0)"
       gradientUnits="userSpaceOnUse"
       id="ButtonShadow-0-1-1-5"
       y2="7.0165396"
       x2="45.447727"
       y1="92.539597"
       x1="45.447727">
      <stop
         offset="0"
         style="stop-color:#000000;stop-opacity:1"
         id="stop3750-8-9-3-6" />
      <stop
         offset="1"
         style="stop-color:#000000;stop-opacity:0.58823532"
         id="stop3752-5-6-4-2" />
    </linearGradient>
    <linearGradient
       y2="256.10831"
       x2="182.9053"
       y1="69.644997"
       x1="182.9053"
       gradientUnits="userSpaceOnUse"
       id="SVGID_1_"
       gradientTransform="translate(-1126.7051,62.4995)">
      <stop
         id="stop28"
         style="stop-color:#69BE5A"
         offset="0" />
      <stop
         id="stop30"
         style="stop-color:#5FB356"
         offset="0.0654" />
      <stop
         id="stop32"
         style="stop-color:#2E9648"
         offset="0.3605" />
      <stop
         id="stop34-1"
         style="stop-color:#0A8D45"
         offset="0.5153" />
      <stop
         id="stop36-2"
         style="stop-color:#219246"
         offset="0.6269" />
      <stop
         id="stop38"
         style="stop-color:#42A04D"
         offset="0.7969" />
      <stop
         id="stop40"
         style="stop-color:#69BE5B"
         offset="1" />
    </linearGradient>
    <linearGradient
       gradientTransform="matrix(1.092577,0,0,1.0925926,-23.696353,-23.70371)"
       y2="464"
       x2="259.99384"
       y1="44"
       x1="259.99384"
       gradientUnits="userSpaceOnUse"
       id="linearGradient3107"
       xlink:href="#linearGradient3879"
       inkscape:collect="always" />
    <linearGradient
       y2="464"
       x2="259.99384"
       y1="44"
       x1="259.99384"
       gradientTransform="matrix(1.0925926,0,0,1.0925926,-23.696977,-23.70371)"
       gradientUnits="userSpaceOnUse"
       id="linearGradient4125"
       xlink:href="#linearGradient3879"
       inkscape:collect="always" />
    <linearGradient
       y2="464"
       x2="259.99384"
       y1="44"
       x1="259.99384"
       gradientTransform="matrix(0.95370371,0,0,0.95370371,11.857724,11.851844)"
       gradientUnits="userSpaceOnUse"
       id="linearGradient4131"
       xlink:href="#linearGradient3879"
       inkscape:collect="always" />
    <linearGradient
       y2="256.10831"
       x2="182.9053"
       y1="69.644997"
       x1="182.9053"
       gradientTransform="matrix(2.0085106,0,0,1.9915612,-692.53844,-63.197731)"
       gradientUnits="userSpaceOnUse"
       id="linearGradient4146"
       xlink:href="#SVGID_1_"
       inkscape:collect="always" />
    <linearGradient
       y2="464"
       x2="259.99384"
       y1="44"
       x1="259.99384"
       gradientTransform="matrix(0.93345362,0,0,0.93345362,16.415773,17.937149)"
       gradientUnits="userSpaceOnUse"
       id="linearGradient4179"
       xlink:href="#linearGradient3879"
       inkscape:collect="always" />
    <linearGradient
       y2="464"
       x2="259.99384"
       y1="44"
       x1="259.99384"
       gradientTransform="matrix(0.95370371,0,0,0.95370371,11.857723,11.851846)"
       gradientUnits="userSpaceOnUse"
       id="linearGradient4192"
       xlink:href="#linearGradient3879"
       inkscape:collect="always" />
    <linearGradient
       y2="36.643665"
       x2="19.360001"
       y1="6.2951212"
       x1="18.930269"
       gradientTransform="matrix(12.102564,0,0,12.102564,-34.468255,-46.187105)"
       gradientUnits="userSpaceOnUse"
       id="linearGradient3157"
       xlink:href="#linearGradient2460"
       inkscape:collect="always" />
    <linearGradient
       x1="19.244999"
       y1="21.030804"
       x2="19.360001"
       gradientUnits="userSpaceOnUse"
       y2="44.984001"
       id="linearGradient2460">
      <stop
         offset="0"
         style="stop-color:#fafafa;stop-opacity:1;"
         id="stop3602" />
      <stop
         offset="1"
         style="stop-color:#f0f0f0;stop-opacity:1;"
         id="stop3604" />
    </linearGradient>
    <linearGradient
       inkscape:collect="always"
       xlink:href="#linearGradient2460"
       id="linearGradient3166"
       gradientUnits="userSpaceOnUse"
       gradientTransform="matrix(12.102564,0,0,12.102564,-34.468257,-46.187107)"
       x1="18.930269"
       y1="6.2951212"
       x2="19.360001"
       y2="36.643665" />
    <linearGradient
       inkscape:collect="always"
       xlink:href="#linearGradient2460"
       id="linearGradient3200"
       gradientUnits="userSpaceOnUse"
       gradientTransform="matrix(12.102564,0,0,12.102564,-34.468255,-46.187104)"
       x1="18.930269"
       y1="6.2951212"
       x2="19.360001"
       y2="36.643665" />
    <linearGradient
       y2="36.643665"
       x2="19.360001"
       y1="6.2951212"
       x1="18.930269"
       gradientTransform="matrix(12.102564,0,0,12.102564,492.42688,-50.339967)"
       gradientUnits="userSpaceOnUse"
       id="linearGradient3122"
       xlink:href="#linearGradient2460"
       inkscape:collect="always" />
    <linearGradient
       y2="464"
       x2="259.99384"
       y1="44"
       x1="259.99384"
       gradientTransform="matrix(0.9537038,0,0,0.9537037,-448.06896,15.479738)"
       gradientUnits="userSpaceOnUse"
       id="linearGradient3137"
       xlink:href="#linearGradient3879"
       inkscape:collect="always" />
  </defs>
  <rect
     style="fill-opacity:0.02000002"
     id="rect62"
     width="89.620003"
     height="89.980003"
     y="2.9899757"
     rx="12.724"
     x="3.3529999" />
  <rect
     style="fill-opacity:0.03900003"
     id="rect64"
     width="88.410004"
     height="88.760002"
     y="3.6000221"
     rx="12.552"
     x="3.9590001" />
  <rect
     style="fill-opacity:0.078"
     id="rect66"
     width="87.199997"
     height="87.550003"
     y="4.2100072"
     rx="12.38"
     x="4.5640001" />
  <rect
     style="fill-opacity:0.15700001"
     id="rect68"
     width="85.990997"
     height="86.330002"
     y="4.8199925"
     rx="12.208"
     x="5.1700001" />
  <path
     inkscape:connector-curvature="0"
     style="fill:url(#linearGradient4451);fill-opacity:1"
     id="path70"
     d="m 17.75,5.4062 c -6.642,0 -11.969,5.3948 -11.969,12.063 l 2e-4,61.031 c 0,6.668 5.3268,12.031 11.969,12.031 l 60.812,0 c 6.642,0 11.969,-5.363 11.969,-12.031 l 0,-61.031 c 0,-6.668 -5.327,-12.063 -11.969,-12.063 l -60.812,2e-4 z" />
  <path
     style="fill-opacity:0.11799999"
     inkscape:connector-curvature="0"
     id="path72"
     d="m 5.7756,73.44 0,5.0663 c 0,6.668 5.3434,12.032 11.985,12.032 l 60.809,0 c 6.6418,0 11.985,-5.3645 11.985,-12.032 l 0,-5.0663 c 0,6.6681 -5.3434,12.032 -11.985,12.032 l -60.809,0 c -6.6418,0 -11.985,-5.3643 -11.985,-12.032 z" />
  <path
     style="fill-opacity:0.09800002"
     inkscape:connector-curvature="0"
     id="path74"
     d="m 5.7756,77.54 0,1.0133 c 0,6.668 5.3434,12.032 11.985,12.032 l 60.809,0 c 6.6418,0 11.985,-5.3645 11.985,-12.032 l 0,-1.0133 c 0,6.6681 -5.3434,12.032 -11.985,12.032 l -60.809,0 c -6.6418,0 -11.985,-5.3644 -11.985,-12.032 z" />
  <g
     transform="matrix(0.18329937,0,0,0.18329937,128.19524,-102.01512)"
     inkscape:label="Livello 1"
     id="layer1" />
  <g
     id="g4185"
     transform="matrix(0.18329937,0,0,0.18329937,128.19524,-2.9670716)" />
  <g
     id="g4153"
     transform="matrix(0.18329937,0,0,0.18329937,235.53358,-2.9670716)">
    <g
       id="g17"
       transform="matrix(2.0085106,0,0,1.9915612,-692.53844,-63.197731)">
      <g
         id="g21">
        <g
           id="g23" />
      </g>
    </g>
  </g>
  <g
     id="g4728"
     transform="translate(0,-1.7258199)">
    <path
       style="opacity:0.1;fill:#ffffff;stroke:#000000;stroke-width:2;stroke-miterlimit:4;stroke-dasharray:none;stroke-opacity:1"
       id="path4705"
       d="m 48.501554,20.290144 c -14.91077,0 -27.000888,12.082582 -27.000888,26.993351 0,5.100184 1.418278,9.876053 3.876658,13.945435 l -4.872228,14.480927 14.948538,-4.781724 c 3.86762,2.139075 8.31435,3.356258 13.04792,3.356258 14.90981,0 26.99335,-12.091333 26.99335,-27.000896 1.8e-4,-14.911009 -12.0833,-26.993351 -26.99335,-26.993351 z m 0,4.299023 c 12.51514,0 22.69433,10.178704 22.69433,22.694328 0,12.515142 -10.17895,22.701871 -22.69433,22.701871 -4.61073,0 -8.90553,-1.385223 -12.4898,-3.755991 l -8.71872,2.790595 2.83584,-8.42458 c -2.7171,-3.741873 -4.32919,-8.344212 -4.32919,-13.311895 0,-12.515624 10.18601,-22.694328 22.70187,-22.694328 z m -8.53771,10.385539 c -0.8703,0 -1.77168,0.258245 -2.31544,0.814553 -0.66178,0.676985 -2.31544,2.26506 -2.31544,5.520853 0,3.256278 2.36968,6.399061 2.70009,6.840732 0.33137,0.441183 4.62514,7.217776 11.30568,9.985805 5.21434,2.159829 6.75982,1.972241 7.94943,1.712068 1.73095,-0.377953 3.90592,-1.65324 4.45741,-3.197872 0.55148,-1.545597 0.54997,-2.869939 0.38465,-3.145077 -0.16557,-0.276344 -0.60531,-0.444986 -1.26709,-0.776841 -0.66177,-0.33089 -3.91123,-1.929161 -4.51774,-2.149513 -0.60675,-0.220592 -1.17012,-0.154884 -1.63665,0.49024 -0.64392,0.8913 -1.26708,1.810118 -1.77995,2.353151 -0.40257,0.426221 -1.04944,0.485654 -1.60648,0.248891 -0.73249,-0.312063 -2.78908,-1.034662 -5.31721,-3.288376 -1.96699,-1.753641 -3.30195,-3.915342 -3.68811,-4.578087 -0.38616,-0.661778 -0.0336,-1.057831 0.26397,-1.417923 0.33934,-0.411017 0.65714,-0.707695 0.98803,-1.093612 0.33089,-0.38664 0.51099,-0.591123 0.73159,-1.033275 0.22059,-0.441185 0.0751,-0.897998 -0.0905,-1.22937 -0.16581,-0.331371 -1.49413,-3.58421 -2.04392,-4.90994 -0.43733,-1.053969 -0.77256,-1.091679 -1.4481,-1.123779 -0.23169,-0.01111 -0.47932,-0.02262 -0.75421,-0.02262 z"
       inkscape:connector-curvature="0" />
    <path
       inkscape:connector-curvature="0"
       d="m 48.501554,20.290144 c -14.91077,0 -27.000888,12.082582 -27.000888,26.993351 0,5.100184 1.418278,9.876053 3.876658,13.945435 l -4.872228,14.480927 14.948538,-4.781724 c 3.86762,2.139075 8.31435,3.356258 13.04792,3.356258 14.90981,0 26.99335,-12.091333 26.99335,-27.000896 1.8e-4,-14.911009 -12.0833,-26.993351 -26.99335,-26.993351 z m 0,4.299023 c 12.51514,0 22.69433,10.178704 22.69433,22.694328 0,12.515142 -10.17895,22.701871 -22.69433,22.701871 -4.61073,0 -8.90553,-1.385223 -12.4898,-3.755991 l -8.71872,2.790595 2.83584,-8.42458 c -2.7171,-3.741873 -4.32919,-8.344212 -4.32919,-13.311895 0,-12.515624 10.18601,-22.694328 22.70187,-22.694328 z m -8.53771,10.385539 c -0.8703,0 -1.77168,0.258245 -2.31544,0.814553 -0.66178,0.676985 -2.31544,2.26506 -2.31544,5.520853 0,3.256278 2.36968,6.399061 2.70009,6.840732 0.33137,0.441183 4.62514,7.217776 11.30568,9.985805 5.21434,2.159829 6.75982,1.972241 7.94943,1.712068 1.73095,-0.377953 3.90592,-1.65324 4.45741,-3.197872 0.55148,-1.545597 0.54997,-2.869939 0.38465,-3.145077 -0.16557,-0.276344 -0.60531,-0.444986 -1.26709,-0.776841 -0.66177,-0.33089 -3.91123,-1.929161 -4.51774,-2.149513 -0.60675,-0.220592 -1.17012,-0.154884 -1.63665,0.49024 -0.64392,0.8913 -1.26708,1.810118 -1.77995,2.353151 -0.40257,0.426221 -1.04944,0.485654 -1.60648,0.248891 -0.73249,-0.312063 -2.78908,-1.034662 -5.31721,-3.288376 -1.96699,-1.753641 -3.30195,-3.915342 -3.68811,-4.578087 -0.38616,-0.661778 -0.0336,-1.057831 0.26397,-1.417923 0.33934,-0.411017 0.65714,-0.707695 0.98803,-1.093612 0.33089,-0.38664 0.51099,-0.591123 0.73159,-1.033275 0.22059,-0.441185 0.0751,-0.897998 -0.0905,-1.22937 -0.16581,-0.331371 -1.49413,-3.58421 -2.04392,-4.90994 -0.43733,-1.053969 -0.77256,-1.091679 -1.4481,-1.123779 -0.23169,-0.01111 -0.47932,-0.02262 -0.75421,-0.02262 z"
       id="path4707"
       style="opacity:0.1;fill:#ffffff;stroke:#000000;stroke-width:4;stroke-miterlimit:4;stroke-dasharray:none;stroke-opacity:1" />
    <path
       inkscape:connector-curvature="0"
       d="m 48.501554,20.290144 c -14.91077,0 -27.000888,12.082582 -27.000888,26.993351 0,5.100184 1.418278,9.876053 3.876658,13.945435 l -4.872228,14.480927 14.948538,-4.781724 c 3.86762,2.139075 8.31435,3.356258 13.04792,3.356258 14.90981,0 26.99335,-12.091333 26.99335,-27.000896 1.8e-4,-14.911009 -12.0833,-26.993351 -26.99335,-26.993351 z m 0,4.299023 c 12.51514,0 22.69433,10.178704 22.69433,22.694328 0,12.515142 -10.17895,22.701871 -22.69433,22.701871 -4.61073,0 -8.90553,-1.385223 -12.4898,-3.755991 l -8.71872,2.790595 2.83584,-8.42458 c -2.7171,-3.741873 -4.32919,-8.344212 -4.32919,-13.311895 0,-12.515624 10.18601,-22.694328 22.70187,-22.694328 z m -8.53771,10.385539 c -0.8703,0 -1.77168,0.258245 -2.31544,0.814553 -0.66178,0.676985 -2.31544,2.26506 -2.31544,5.520853 0,3.256278 2.36968,6.399061 2.70009,6.840732 0.33137,0.441183 4.62514,7.217776 11.30568,9.985805 5.21434,2.159829 6.75982,1.972241 7.94943,1.712068 1.73095,-0.377953 3.90592,-1.65324 4.45741,-3.197872 0.55148,-1.545597 0.54997,-2.869939 0.38465,-3.145077 -0.16557,-0.276344 -0.60531,-0.444986 -1.26709,-0.776841 -0.66177,-0.33089 -3.91123,-1.929161 -4.51774,-2.149513 -0.60675,-0.220592 -1.17012,-0.154884 -1.63665,0.49024 -0.64392,0.8913 -1.26708,1.810118 -1.77995,2.353151 -0.40257,0.426221 -1.04944,0.485654 -1.60648,0.248891 -0.73249,-0.312063 -2.78908,-1.034662 -5.31721,-3.288376 -1.96699,-1.753641 -3.30195,-3.915342 -3.68811,-4.578087 -0.38616,-0.661778 -0.0336,-1.057831 0.26397,-1.417923 0.33934,-0.411017 0.65714,-0.707695 0.98803,-1.093612 0.33089,-0.38664 0.51099,-0.591123 0.73159,-1.033275 0.22059,-0.441185 0.0751,-0.897998 -0.0905,-1.22937 -0.16581,-0.331371 -1.49413,-3.58421 -2.04392,-4.90994 -0.43733,-1.053969 -0.77256,-1.091679 -1.4481,-1.123779 -0.23169,-0.01111 -0.47932,-0.02262 -0.75421,-0.02262 z"
       id="path4839"
       style="fill:#ffffff" />
  </g>
</svg>
