<?xml version="1.0" encoding="UTF-8" standalone="no"?>
<svg
   xmlns:dc="http://purl.org/dc/elements/1.1/"
   xmlns:cc="http://creativecommons.org/ns#"
   xmlns:rdf="http://www.w3.org/1999/02/22-rdf-syntax-ns#"
   xmlns:svg="http://www.w3.org/2000/svg"
   xmlns="http://www.w3.org/2000/svg"
   xmlns:xlink="http://www.w3.org/1999/xlink"
   xmlns:sodipodi="http://sodipodi.sourceforge.net/DTD/sodipodi-0.dtd"
   xmlns:inkscape="http://www.inkscape.org/namespaces/inkscape"
   height="96"
   width="96"
   id="svg2"
   version="1.1"
   inkscape:version="0.48.5 r10040"
   sodipodi:docname="winff.svg"
   inkscape:export-filename="/usr/share/icons/Tebu/apps/96/winff.png"
   inkscape:export-xdpi="90"
   inkscape:export-ydpi="90">
  <metadata
     id="metadata61">
    <rdf:RDF>
      <cc:Work
         rdf:about="">
        <dc:format>image/svg+xml</dc:format>
        <dc:type
           rdf:resource="http://purl.org/dc/dcmitype/StillImage" />
        <dc:title></dc:title>
      </cc:Work>
    </rdf:RDF>
  </metadata>
  <sodipodi:namedview
     pagecolor="#ffffff"
     bordercolor="#666666"
     borderopacity="1"
     objecttolerance="10"
     gridtolerance="10"
     guidetolerance="10"
     inkscape:pageopacity="0"
     inkscape:pageshadow="2"
     inkscape:window-width="1366"
     inkscape:window-height="719"
     id="namedview59"
     showgrid="false"
     inkscape:zoom="3.4766083"
     inkscape:cx="-16.139339"
     inkscape:cy="34.924984"
     inkscape:window-x="0"
     inkscape:window-y="24"
     inkscape:window-maximized="1"
     inkscape:current-layer="svg2" />
  <defs
     id="defs4">
    <linearGradient
       id="linearGradient4134">
      <stop
         style="stop-color:#e6e6e6;stop-opacity:1;"
         offset="0"
         id="stop4136" />
      <stop
         style="stop-color:#aaa;stop-opacity:1;"
         offset="1"
         id="stop4138" />
    </linearGradient>
    <linearGradient
       x2="0"
       y1="90"
       y2="5.988"
       gradientUnits="userSpaceOnUse"
       id="linearGradient3002"
       inkscape:collect="always"
       gradientTransform="matrix(1.0631 0 0 1.0631 -2.975 -3.439)">
      <stop
         stop-color="#da9614"
         stop-opacity="1"
         id="stop7" />
      <stop
         stop-color="#f0c12e"
         stop-opacity="1"
         offset="1"
         id="stop9" />
    </linearGradient>
    <path
       d="m 23.798255,43.154305 0,-6.427268 c -2e-6,-2.468162 0.413447,-4.322421 1.24035,-5.562782 0.839424,-1.240336 2.593453,-2.518271 5.26209,-3.833809 0.463556,-0.225502 1.102524,-0.526192 1.916905,-0.902072 2.793906,-1.302976 4.190864,-2.631026 4.190879,-3.984155 -1.5e-5,-0.714119 -0.162889,-1.284178 -0.488623,-1.710179 -0.325762,-0.425956 -0.75174,-0.638945 -1.277936,-0.638968 -0.613923,2.3e-5 -1.083752,0.231805 -1.409489,0.695348 -0.31323,0.463587 -0.46984,1.133876 -0.469829,2.01087 l 0,1.916904 -8.400552,0 0,-7.74279 c 1.553566,-1.002276 3.194835,-1.741474 4.923814,-2.217595 1.741492,-0.488594 3.658394,-0.732905 5.750713,-0.732934 3.508043,2.9e-5 6.1015,0.732962 7.780377,2.198802 1.691363,1.465893 2.537055,3.733601 2.537079,6.803131 -2.4e-5,1.415772 -0.181691,2.606005 -0.545002,3.570704 -0.350829,0.964733 -0.927153,1.841747 -1.728973,2.631046 -0.651518,0.626452 -2.518305,1.716456 -5.600368,3.270013 -0.826915,0.41346 -1.465882,0.732944 -1.916904,0.958452 -1.378179,0.71415 -2.248929,1.290474 -2.612252,1.728973 -0.363346,0.425986 -0.545013,0.952195 -0.545002,1.578627 l 0,0.263105 1.465868,0 c 0.977232,6e-6 1.628728,-0.181661 1.95449,-0.545003 0.338263,-0.363327 0.526195,-1.115054 0.563796,-2.255181 l 8.381758,0 0,8.926761 -20.973189,0"
       id="SVGCleanerId_0" />
    <path
       d="m 61.967204,34.67858 0,-11.802117 c -1.5e-5,-1.052397 -0.137831,-1.791595 -0.41345,-2.217596 -0.275647,-0.425955 -0.726683,-0.638945 -1.353109,-0.638968 -0.626452,2.3e-5 -1.077488,0.213013 -1.353109,0.638968 -0.275645,0.426001 -0.413461,1.165199 -0.41345,2.217596 l 0,11.802117 c -1.1e-5,1.039897 0.131541,1.77283 0.394657,2.198802 0.275621,0.413456 0.732921,0.620181 1.371902,0.620175 0.626426,6e-6 1.077462,-0.212983 1.353109,-0.638968 0.275619,-0.438501 0.413435,-1.16517 0.41345,-2.180009 M 49.544911,24.379917 c -2e-6,-3.946545 0.776782,-6.665289 2.330355,-8.15624 1.553563,-1.490898 4.328687,-2.23636 8.325379,-2.236389 3.996666,2.9e-5 6.778054,0.745491 8.344172,2.236389 1.566076,1.490951 2.349124,4.209695 2.349148,8.15624 l 0,8.889175 c -2.4e-5,3.908987 -0.783072,6.615202 -2.349148,8.118654 -1.553589,1.490925 -4.334977,2.236388 -8.344172,2.236388 -3.996692,0 -6.771816,-0.745463 -8.325379,-2.236388 -1.553573,-1.490923 -2.330357,-4.197138 -2.330355,-8.118654 l 0,-8.889175"
       id="SVGCleanerId_1" />
    <path
       d="m 35.224509,63.399823 0,-7.310548 -4.811055,7.310548 4.811055,0 m -1.616214,12.854535 0,-5.074159 c 0.501139,-0.125282 0.864474,-0.325743 1.090005,-0.601381 0.225504,-0.275628 0.338263,-0.670284 0.338277,-1.183971 l 0,-0.150345 -11.632979,0 0,-6.878304 9.941593,-14.865406 10.22349,0 0,15.899031 1.935697,0 0,5.844679 -1.916904,0 c 0.01251,0.588859 0.100208,1.027366 0.263104,1.315522 0.175381,0.275639 0.469807,0.482364 0.88328,0.620175 l 0,5.074159 -11.125563,0"
       id="SVGCleanerId_2" />
    <path
       d="m 53.153202,61.238607 c -1.265412,-0.526194 -2.167484,-1.227805 -2.706218,-2.104836 -0.526212,-0.889526 -0.789316,-2.136139 -0.789314,-3.739843 -2e-6,-2.894126 0.833162,-4.99896 2.499493,-6.314509 1.678851,-1.328023 4.360009,-1.992048 8.043482,-1.992077 3.695975,2.9e-5 6.377133,0.65779 8.043481,1.973284 1.666306,1.315548 2.49947,3.426647 2.499493,6.333302 -2.3e-5,1.616232 -0.263128,2.862846 -0.789314,3.739843 -0.513702,0.877031 -1.403245,1.578642 -2.668631,2.104836 1.340559,0.513695 2.336596,1.321801 2.988116,2.42432 0.651473,1.090016 0.977221,2.518296 0.977245,4.284845 -2.4e-5,2.956799 -0.90836,5.161864 -2.725011,6.6152 -1.816694,1.440811 -4.591817,2.161215 -8.325379,2.161216 -3.733588,-10e-7 -6.508711,-0.720405 -8.325379,-2.161216 -1.816677,-1.453336 -2.725013,-3.658401 -2.725011,-6.6152 -2e-6,-1.766549 0.325746,-3.194829 0.977245,-4.284845 0.664022,-1.089991 1.672589,-1.898097 3.025702,-2.42432 m 5.280884,5.656747 0,0.88328 c -1.1e-5,1.039896 0.131541,1.77283 0.394657,2.198802 0.275621,0.413456 0.732921,0.62018 1.371902,0.620175 0.626426,5e-6 1.077462,-0.212984 1.353109,-0.638968 0.275619,-0.438501 0.413435,-1.16517 0.41345,-2.180009 l 0,-0.88328 c -1.5e-5,-1.014821 -0.137831,-1.735226 -0.41345,-2.161216 -0.275647,-0.425966 -0.726683,-0.638956 -1.353109,-0.638968 -0.626452,1.2e-5 -1.077488,0.213002 -1.353109,0.638968 -0.275645,0.42599 -0.413461,1.146395 -0.41345,2.161216 m 3.533118,-10.918838 c -1.5e-5,-1.027339 -0.137831,-1.760272 -0.41345,-2.198802 -0.275647,-0.438484 -0.726683,-0.657738 -1.353109,-0.657761 -0.626452,2.3e-5 -1.077488,0.213012 -1.353109,0.638968 -0.275645,0.426001 -0.413461,1.165199 -0.41345,2.217595 -1.1e-5,1.02738 0.131541,1.754049 0.394657,2.180009 0.275621,0.413468 0.732921,0.620193 1.371902,0.620175 0.638954,1.8e-5 1.08999,-0.206707 1.353109,-0.620175 0.275619,-0.413431 0.413435,-1.1401 0.41345,-2.180009"
       id="SVGCleanerId_3" />
    <path
       id="SVGCleanerId_4"
       fill="url(#linearGradient5615)"
       d="m10.752 13.125c-0.81306 0-1.4687 0.65568-1.4687 1.4688v5.3438c0 0.6098 0.37914 1.1215 0.90625 1.3438v-6c0-0.81306 0.65568-1.4688 1.4688-1.4688h5.6875c-0.261-0.404-0.7-0.688-1.219-0.688h-5.375z" />
    <rect
       width="8.288"
       id="SVGCleanerId_3-2"
       height="8.288"
       fill="#1a1a1a"
       y="13.12"
       rx="1.468"
       x="9.324" />
    <path
       stroke-linejoin="round"
       stroke-linecap="round"
       id="SVGCleanerId_2-5"
       fill="none"
       d="m57.808-37.668v-39.852l32.234 19.926z" />
    <path
       stroke-linejoin="round"
       stroke-linecap="round"
       id="SVGCleanerId_1-2"
       fill="none"
       d="m-79.241 7.6723v-56.783l49.176 28.392z" />
    <rect
       width="84"
       id="SVGCleanerId_0-8"
       height="84"
       y="6"
       rx="6"
       x="6" />
    <linearGradient
       id="linearGradient5524"
       gradientUnits="userSpaceOnUse"
       xlink:href="#linearGradient5036"
       x2="-89.19"
       x1="-47.4" />
    <linearGradient
       id="linearGradient5522"
       gradientUnits="userSpaceOnUse"
       y2="-41.784"
       y1="40.06"
       xlink:href="#linearGradient5036"
       x2="-42.572"
       x1="-100.23" />
    <filter
       id="filter4423"
       color-interpolation-filters="sRGB">
      <feGaussianBlur
         id="feGaussianBlur3073"
         stdDeviation="1.32449" />
    </filter>
    <linearGradient
       gradientTransform="matrix(1 0 0 1 39.971 0)"
       id="linearGradient5615"
       gradientUnits="userSpaceOnUse"
       y2="17.203"
       y1="10.728"
       x2="-26.706"
       x1="-32.477">
      <stop
         id="stop3068"
         stop-color="#fff" />
      <stop
         id="stop3070"
         offset="1"
         stop-opacity="0" />
    </linearGradient>
    <clipPath
       id="clipPath3098"
       clipPathUnits="userSpaceOnUse">
      <rect
         id="rect3065"
         width="80.5"
         height="80.5"
         y="7.75"
         rx="21.875"
         x="7.75" />
    </clipPath>
    <filter
       width="1.384"
       id="filter3794-5"
       color-interpolation-filters="sRGB"
       height="1.384"
       y="-0.192"
       x="-0.192">
      <feGaussianBlur
         id="feGaussianBlur3062"
         stdDeviation="5.28" />
    </filter>
    <clipPath
       id="clipPath3613-7">
      <use
         id="use3059"
         xlink:href="#SVGCleanerId_0-8" />
    </clipPath>
    <linearGradient
       id="linearGradient5036"
       gradientUnits="userSpaceOnUse"
       y2="138.66"
       y1="20.221"
       x2="0">
      <stop
         id="stop3054"
         stop-color="#fff" />
      <stop
         id="stop3056"
         offset="1"
         stop-opacity="0"
         stop-color="#fff" />
    </linearGradient>
    <clipPath
       id="clipPath2973-9">
      <use
         id="use3051"
         xlink:href="#SVGCleanerId_0-8" />
    </clipPath>
    <linearGradient
       gradientTransform="translate(0,-0.363)"
       id="linearGradient3422"
       gradientUnits="userSpaceOnUse"
       y2="5.988"
       y1="90"
       x2="0">
      <stop
         id="stop3046"
         stop-color="#656565" />
      <stop
         id="stop3048"
         offset="1"
         stop-color="#c1c1c1" />
    </linearGradient>
    <clipPath
       id="clipPath3009"
       clipPathUnits="userSpaceOnUse">
      <path
         id="path3043"
         d="m-2 956.36h-96v33.562l96 25.687v-59.25z" />
    </clipPath>
    <linearGradient
       inkscape:collect="always"
       xlink:href="#linearGradient5036"
       id="linearGradient3279"
       gradientUnits="userSpaceOnUse"
       y1="20.221"
       x2="0"
       y2="138.66" />
    <linearGradient
       inkscape:collect="always"
       xlink:href="#linearGradient3422"
       id="linearGradient3339"
       gradientUnits="userSpaceOnUse"
       gradientTransform="translate(0,-0.363)"
       y1="90"
       x2="0"
       y2="5.988" />
    <linearGradient
       inkscape:collect="always"
       xlink:href="#linearGradient5036"
       id="linearGradient3341"
       gradientUnits="userSpaceOnUse"
       y1="20.221"
       x2="0"
       y2="138.66" />
    <linearGradient
       inkscape:collect="always"
       xlink:href="#linearGradient5036"
       id="linearGradient3364"
       gradientUnits="userSpaceOnUse"
       y1="20.221"
       x2="0"
       y2="138.66" />
    <linearGradient
       inkscape:collect="always"
       xlink:href="#linearGradient4134"
       id="linearGradient4140"
       x1="-171.2558"
       y1="42.300738"
       x2="-75.252197"
       y2="42.300738"
       gradientUnits="userSpaceOnUse"
       gradientTransform="translate(165.55474,80.95326)" />
    <linearGradient
       inkscape:collect="always"
       xlink:href="#linearGradient5036"
       id="linearGradient4142"
       gradientUnits="userSpaceOnUse"
       x1="-100.23"
       y1="40.06"
       x2="-42.572"
       y2="-41.784" />
    <linearGradient
       inkscape:collect="always"
       xlink:href="#linearGradient5036"
       id="linearGradient4144"
       gradientUnits="userSpaceOnUse"
       x1="-47.4"
       x2="-89.19" />
    <linearGradient
       inkscape:collect="always"
       xlink:href="#linearGradient5036"
       id="linearGradient4178"
       gradientUnits="userSpaceOnUse"
       x1="-100.23"
       y1="40.06"
       x2="-42.572"
       y2="-41.784" />
    <linearGradient
       inkscape:collect="always"
       xlink:href="#linearGradient5036"
       id="linearGradient4180"
       gradientUnits="userSpaceOnUse"
       x1="-47.4"
       x2="-89.19" />
    <linearGradient
       inkscape:collect="always"
       xlink:href="#linearGradient5036"
       id="linearGradient4194"
       gradientUnits="userSpaceOnUse"
       x1="-100.23"
       y1="40.06"
       x2="-42.572"
       y2="-41.784" />
    <linearGradient
       inkscape:collect="always"
       xlink:href="#linearGradient5036"
       id="linearGradient4196"
       gradientUnits="userSpaceOnUse"
       x1="-47.4"
       x2="-89.19" />
    <clipPath
       clipPathUnits="userSpaceOnUse"
       id="clipPath4222">
      <path
         id="path4224"
         inkscape:connector-curvature="0"
         d="m 46.14776,-97.028216 c -6.668,0 -12.032,5.3948 -12.032,12.063 l 5e-4,61.031 c 0,6.668 5.3635,12.031 12.032,12.031 h 61.02999 c 6.668,0 12.031,-5.363 12.031,-12.031 v -61.031 c 0,-6.668 -5.363,-12.063 -12.031,-12.063 l -61.03099,2e-4 z"
         style="opacity:0.5;fill:#e6e6e6" />
    </clipPath>
    <clipPath
       clipPathUnits="userSpaceOnUse"
       id="clipPath4226">
      <path
         id="path4228"
         inkscape:connector-curvature="0"
         d="m -94.956734,-79.318662 c -10.172696,0 -18.356016,7.686762 -18.356016,17.187924 l 7.6e-4,86.959805 c 0,9.500876 8.18256,17.142328 18.356019,17.142328 h 93.1073303 c 10.1726979,0 18.3544887,-7.641452 18.3544887,-17.142328 v -86.959805 c 0,-9.500877 -8.1817908,-17.187924 -18.3544887,-17.187924 l -93.1088563,2.85e-4 z"
         style="opacity:0.5;fill:#e6e6e6" />
    </clipPath>
    <clipPath
       clipPathUnits="userSpaceOnUse"
       id="clipPath4230">
      <path
         id="path4232"
         inkscape:connector-curvature="0"
         d="m -125.17886,-83.536207 c -10.1727,0 -18.35602,7.686761 -18.35602,17.187923 l 7.7e-4,86.959805 c 0,9.500877 8.18255,17.142328 18.35601,17.142328 h 93.107332 c 10.172698,0 18.354488,-7.641451 18.354488,-17.142328 v -86.959805 c 0,-9.500877 -8.18179,-17.187923 -18.354488,-17.187923 l -93.108852,2.85e-4 z"
         style="opacity:0.5;fill:#e6e6e6" />
    </clipPath>
    <clipPath
       clipPathUnits="userSpaceOnUse"
       id="clipPath4234">
      <path
         id="path4236"
         inkscape:connector-curvature="0"
         d="m -123.10405,-85.957022 c -10.17269,0 -18.35601,7.686762 -18.35601,17.187924 l 7.6e-4,86.959805 c 0,9.500876 8.18256,17.142328 18.35602,17.142328 h 93.107327 c 10.172698,0 18.354489,-7.641452 18.354489,-17.142328 v -86.959805 c 0,-9.500877 -8.181791,-17.187924 -18.354489,-17.187924 l -93.108857,2.85e-4 z"
         style="opacity:0.5;fill:#e6e6e6" />
    </clipPath>
    <clipPath
       clipPathUnits="userSpaceOnUse"
       id="clipPath4238">
      <path
         id="path4240"
         inkscape:connector-curvature="0"
         d="m 14.57776,-54.862216 c -6.668,0 -12.032,5.3948 -12.032,12.063 l 5e-4,61.031 c 0,6.668 5.3635,12.031 12.032,12.031 h 61.029993 c 6.668,0 12.031,-5.363 12.031,-12.031 v -61.031 c 0,-6.668 -5.363,-12.063 -12.031,-12.063 l -61.030993,2e-4 z"
         style="opacity:0.5;fill:#e6e6e6" />
    </clipPath>
    <clipPath
       clipPathUnits="userSpaceOnUse"
       id="clipPath4242">
      <path
         id="path4244"
         inkscape:connector-curvature="0"
         d="m 14.57776,-42.862216 c -6.668,0 -12.032,5.3948 -12.032,12.063 l 5e-4,61.031 c 0,6.668 5.3635,12.031 12.032,12.031 h 61.029993 c 6.668,0 12.031,-5.363 12.031,-12.031 v -61.031 c 0,-6.668 -5.363,-12.063 -12.031,-12.063 l -61.030993,2e-4 z"
         style="opacity:0.5;fill:#e6e6e6" />
    </clipPath>
    <clipPath
       clipPathUnits="userSpaceOnUse"
       id="clipPath4246">
      <path
         id="path4248"
         inkscape:connector-curvature="0"
         d="m 14.57776,-30.862216 c -6.668,0 -12.032,5.3948 -12.032,12.063 l 5e-4,61.031 c 0,6.668 5.3635,12.031 12.032,12.031 h 61.029993 c 6.668,0 12.031,-5.363 12.031,-12.031 v -61.031 c 0,-6.668 -5.363,-12.063 -12.031,-12.063 l -61.030993,2e-4 z"
         style="opacity:0.5;fill:#e6e6e6" />
    </clipPath>
    <clipPath
       clipPathUnits="userSpaceOnUse"
       id="clipPath4250">
      <path
         id="path4252"
         inkscape:connector-curvature="0"
         d="m 14.57776,-18.862216 c -6.668,0 -12.032,5.3948 -12.032,12.063 l 5e-4,61.031 c 0,6.668 5.3635,12.031 12.032,12.031 h 61.029993 c 6.668,0 12.031,-5.363 12.031,-12.031 v -61.031 c 0,-6.668 -5.363,-12.063 -12.031,-12.063 l -61.030993,2e-4 z"
         style="opacity:0.5;fill:#e6e6e6" />
    </clipPath>
    <clipPath
       clipPathUnits="userSpaceOnUse"
       id="clipPath4254">
      <path
         id="path4256"
         inkscape:connector-curvature="0"
         d="m 14.57776,-6.8622165 c -6.668,0 -12.032,5.3948 -12.032,12.0630005 l 5e-4,61.031 c 0,6.668 5.3635,12.031 12.032,12.031 h 61.029993 c 6.668,0 12.031,-5.363 12.031,-12.031 v -61.031 c 0,-6.6680005 -5.363,-12.0630005 -12.031,-12.0630005 l -61.030993,2e-4 z"
         style="opacity:0.5;fill:#e6e6e6" />
    </clipPath>
    <clipPath
       clipPathUnits="userSpaceOnUse"
       id="clipPath4258">
      <path
         id="path4260"
         inkscape:connector-curvature="0"
         d="m 14.57776,5.1377835 c -6.668,0 -12.032,5.3948005 -12.032,12.0630005 l 5e-4,61.031 c 0,6.668 5.3635,12.031 12.032,12.031 h 61.029993 c 6.668,0 12.031,-5.363 12.031,-12.031 v -61.031 c 0,-6.668 -5.363,-12.0630005 -12.031,-12.0630005 l -61.030993,2e-4 z"
         style="opacity:0.5;fill:#e6e6e6" />
    </clipPath>
    <clipPath
       clipPathUnits="userSpaceOnUse"
       id="clipPath4262">
      <path
         id="path4264"
         inkscape:connector-curvature="0"
         d="m 21.131123,9.8186924 c -5.834282,0 -10.527606,4.7202726 -10.527606,10.5547296 l 4.38e-4,53.400122 c 0,5.834282 4.692886,10.526731 10.527605,10.526731 h 53.399241 c 5.834282,0 10.526731,-4.692449 10.526731,-10.526731 V 20.373422 c 0,-5.834282 -4.692449,-10.5547296 -10.526731,-10.5547296 l -53.400116,1.75e-4 z"
         style="opacity:0.5;fill:#e6e6e6" />
    </clipPath>
    <clipPath
       clipPathUnits="userSpaceOnUse"
       id="clipPath4266">
      <path
         id="path4268"
         inkscape:connector-curvature="0"
         d="m -0.92180647,153.96244 c 0,6.668 5.39479997,12.032 12.06300047,12.032 l 61.031,-5e-4 c 6.668,0 12.031,-5.3635 12.031,-12.032 l 0,-61.029993 c 0,-6.668 -5.363,-12.031 -12.031,-12.031 l -61.031,0 c -6.6680005,0 -12.06300047,5.363 -12.06300047,12.031 l 2e-4,61.030993 z"
         style="opacity:0.5;fill:#e6e6e6" />
    </clipPath>
    <linearGradient
       inkscape:collect="always"
       xlink:href="#linearGradient4134"
       id="linearGradient4312"
       gradientUnits="userSpaceOnUse"
       gradientTransform="translate(165.55474,80.95326)"
       x1="-171.2558"
       y1="42.300738"
       x2="-75.252197"
       y2="42.300738" />
  </defs>
  <rect
     x="3"
     rx="12.724"
     y="2.99"
     fill-opacity="0.02"
     height="89.98"
     width="89.98"
     id="rect15" />
  <rect
     x="3.608"
     rx="12.552"
     y="3.6"
     fill-opacity="0.039"
     height="88.76"
     width="88.76"
     id="rect17" />
  <rect
     x="4.216"
     rx="12.38"
     y="4.21"
     fill-opacity="0.078"
     height="87.55"
     width="87.55"
     id="rect19" />
  <rect
     x="4.824"
     rx="12.208"
     y="4.82"
     fill-opacity="0.157"
     height="86.33"
     width="86.33"
     id="rect21" />
  <g
     id="g4270"
     transform="translate(171.44769,6.3593061)">
    <rect
       clip-path="url(#clipPath4266)"
       transform="matrix(0,1,-1,0,0,0)"
       style="fill:url(#linearGradient4312);fill-opacity:1"
       x="-5.7010627"
       rx="6.8573999"
       y="75.252197"
       height="96.003601"
       width="96.003601"
       id="rect3086" />
    <g
       transform="matrix(1.1429,0,0,1.1429,-178.1132,-12.14359)"
       style="opacity:0.9;fill:white"
       clip-path="url(#clipPath4262)"
       id="g3088">
      <path
         style="opacity:0.15;fill:white"
         inkscape:connector-curvature="0"
         d="M 48,48 72,-8 H 88 L 48,48 z"
         id="path3090" />
      <path
         style="opacity:0.15;fill:white"
         inkscape:connector-curvature="0"
         d="M 48,48 103.25,73.677 102.77,89.67 48,48 z"
         id="path3092" />
      <path
         style="opacity:0.15;fill:white"
         inkscape:connector-curvature="0"
         d="M 48,48 -11.828,59.516 -20.797,46.266 48,48 z"
         id="path3094" />
      <path
         style="opacity:0.15;fill:white"
         inkscape:connector-curvature="0"
         d="M 48,48 -1.311,12.217 2.2249,-3.387 47.9999,48 z"
         id="path3096" />
      <path
         style="opacity:0.15;fill:white"
         inkscape:connector-curvature="0"
         d="M 48,48 65.519,-14.073 95.955,-1.359 48,48 z"
         id="path3098" />
      <path
         style="opacity:0.15;fill:white"
         inkscape:connector-curvature="0"
         d="M 48,48 109.64,28.999 115.49,61.46 48,48 z"
         id="path3100" />
      <path
         style="opacity:0.15;fill:white"
         inkscape:connector-curvature="0"
         d="M 48,48 16.754,104.42 -9.969,85.089 48,48 z"
         id="path3102" />
      <path
         style="opacity:0.15;fill:white"
         inkscape:connector-curvature="0"
         d="M 48,48 -14.812,33.349 -3.508,2.361 48,48 z"
         id="path3104" />
      <path
         style="opacity:0.15;fill:white"
         inkscape:connector-curvature="0"
         d="M 48,48 93.81,93.403 90.118,102.43 48,48 z"
         id="path3106" />
      <path
         style="opacity:0.15;fill:white"
         inkscape:connector-curvature="0"
         d="m 48,48 -2.9701,64.43 -9.1685,3.31 L 47.9994,48 z"
         id="path3108" />
      <path
         style="opacity:0.15;fill:white"
         inkscape:connector-curvature="0"
         d="M 48,48 3.141,94.343 -5.9239,90.758 48.0001,48 z"
         id="path3110" />
      <path
         style="opacity:0.15;fill:white"
         inkscape:connector-curvature="0"
         d="M 48,48 -14.116,65.366 -20.132,57.696 48,48 z"
         id="path3112" />
      <path
         style="opacity:0.15;fill:white"
         inkscape:connector-curvature="0"
         d="M 48,48 18.853,-9.537 25.203,-16.933 48,48 z"
         id="path3114" />
      <path
         style="opacity:0.15;fill:white"
         inkscape:connector-curvature="0"
         d="m 48,48 59.482,-24.939 6.921,6.8641 L 48,47.9991 z"
         id="path3116" />
      <path
         style="opacity:0.15;fill:white"
         inkscape:connector-curvature="0"
         d="M 48,48 88.187,93.793 81.29,108.23 48,48 z"
         id="path3118" />
      <path
         style="opacity:0.15;fill:white"
         inkscape:connector-curvature="0"
         d="M 48,48 12.042,-1.184 20.194,-14.951 48,48 z"
         id="path3120" />
    </g>
    <g
       clip-path="url(#clipPath4258)"
       id="g3128"
       transform="translate(-168.5402,-6.05959)"
       style="opacity:0.75400002">
      <use
         id="use3130"
         xlink:href="#SVGCleanerId_3-2"
         x="0"
         y="0"
         width="1"
         height="1" />
      <use
         id="use3132"
         xlink:href="#SVGCleanerId_4"
         x="0"
         y="0"
         width="1"
         height="1" />
    </g>
    <g
       clip-path="url(#clipPath4254)"
       id="g3134"
       transform="translate(-168.5402,5.94041)"
       style="opacity:0.75400002">
      <use
         id="use3136"
         xlink:href="#SVGCleanerId_3-2"
         x="0"
         y="0"
         width="1"
         height="1" />
      <use
         id="use3138"
         xlink:href="#SVGCleanerId_4"
         x="0"
         y="0"
         width="1"
         height="1" />
    </g>
    <g
       clip-path="url(#clipPath4250)"
       id="g3140"
       transform="translate(-168.5402,17.94041)"
       style="opacity:0.75400002">
      <use
         id="use3142"
         xlink:href="#SVGCleanerId_3-2"
         x="0"
         y="0"
         width="1"
         height="1" />
      <use
         id="use3144"
         xlink:href="#SVGCleanerId_4"
         x="0"
         y="0"
         width="1"
         height="1" />
    </g>
    <g
       clip-path="url(#clipPath4246)"
       id="g3146"
       transform="translate(-168.5402,29.94041)"
       style="opacity:0.75400002">
      <use
         id="use3148"
         xlink:href="#SVGCleanerId_3-2"
         x="0"
         y="0"
         width="1"
         height="1" />
      <use
         id="use3150"
         xlink:href="#SVGCleanerId_4"
         x="0"
         y="0"
         width="1"
         height="1" />
    </g>
    <g
       clip-path="url(#clipPath4242)"
       id="g3152"
       transform="translate(-168.5402,41.94041)"
       style="opacity:0.75400002">
      <use
         id="use3154"
         xlink:href="#SVGCleanerId_3-2"
         x="0"
         y="0"
         width="1"
         height="1" />
      <use
         id="use3156"
         xlink:href="#SVGCleanerId_4"
         x="0"
         y="0"
         width="1"
         height="1" />
    </g>
    <g
       clip-path="url(#clipPath4238)"
       id="g3158"
       transform="translate(-168.5402,53.94041)"
       style="opacity:0.75400002">
      <use
         id="use3160"
         xlink:href="#SVGCleanerId_3-2"
         x="0"
         y="0"
         width="1"
         height="1" />
      <use
         id="use3162"
         xlink:href="#SVGCleanerId_4"
         x="0"
         y="0"
         width="1"
         height="1" />
    </g>
    <use
       clip-path="url(#clipPath4234)"
       id="use3166"
       transform="matrix(0.65548,0,0,0.70183,-73.2702,59.40541)"
       xlink:href="#SVGCleanerId_1-2"
       style="fill:none;stroke:#666;stroke-width:10.89999962;filter:url(#filter4423)"
       x="0"
       y="0"
       width="1"
       height="1" />
    <use
       clip-path="url(#clipPath4230)"
       id="use3168"
       transform="matrix(0.65548,0,0,0.70183,-71.9102,57.70641)"
       xlink:href="#SVGCleanerId_1-2"
       style="stroke:#f60;stroke-width:10.89999962"
       x="0"
       y="0"
       width="1"
       height="1" />
    <use
       clip-path="url(#clipPath4226)"
       id="use3178"
       transform="matrix(0.65548,0,0,0.70183,-91.7202,54.74641)"
       xlink:href="#SVGCleanerId_1-2"
       style="fill:none;stroke:#666;stroke-width:10.89999962;filter:url(#filter4423)"
       x="0"
       y="0"
       width="1"
       height="1" />
    <use
       clip-path="url(#clipPath4222)"
       transform="translate(-200.1102,96.10641)"
       id="use3180"
       xlink:href="#SVGCleanerId_2-5"
       style="fill:none;stroke:#2a7fff;stroke-width:7.39300013"
       x="0"
       y="0"
       width="1"
       height="1" />
  </g>
  <path
     d="m 5.4316,73.44 v 5.0663 c 0,6.668 5.3645,12.032 12.032,12.032 h 61.049 c 6.668,0 12.032,-5.3645 12.032,-12.032 V 73.44 c 0,6.6681 -5.3645,12.032 -12.032,12.032 h -61.049 c -6.668,0 -12.032,-5.3643 -12.032,-12.032 z"
     fill-opacity="0.118"
     inkscape:connector-curvature="0"
     id="path25" />
  <path
     d="m 5.4316,77.54 v 1.0133 c 0,6.668 5.3645,12.032 12.032,12.032 h 61.049 c 6.668,0 12.032,-5.3645 12.032,-12.032 V 77.54 c 0,6.6681 -5.3645,12.032 -12.032,12.032 h -61.049 c -6.668,0 -12.032,-5.3644 -12.032,-12.032 z"
     fill-opacity="0.098"
     inkscape:connector-curvature="0"
     id="path27" />
</svg>
