<svg height="96" width="96" xmlns="http://www.w3.org/2000/svg" xmlns:xlink="http://www.w3.org/1999/xlink" xmlns:sodipodi="http://sodipodi.sourceforge.net/DTD/sodipodi-0.dtd" xmlns:inkscape="http://www.inkscape.org/namespaces/inkscape">
 <defs>
  <linearGradient id="linearGradient4750">
   <stop stop-color="#dde9af" stop-opacity="0.581"/>
   <stop stop-color="#fafcf3" stop-opacity="0.581" offset="0.154"/>
   <stop stop-color="#c7d2ad" stop-opacity="0" offset="1"/>
  </linearGradient>
  <linearGradient id="linearGradient3898">
   <stop stop-color="#455a30"/>
   <stop stop-color="#86b05c" offset="1"/>
  </linearGradient>
  <linearGradient id="linearGradient3839">
   <stop stop-color="#d5dc9d"/>
   <stop stop-color="#f5f1cf" offset="1"/>
  </linearGradient>
  <linearGradient x2="0" y1="90" y2="5.988" gradientUnits="userSpaceOnUse" id="linearGradient3617">
   <stop stop-color="#a9b075"/>
   <stop stop-color="#ece8c7" offset="1"/>
  </linearGradient>
  <linearGradient x2="0" y1="92.54" y2="7.02" gradientUnits="userSpaceOnUse" id="ButtonShadow-0" gradientTransform="matrix(1.0059 0 0 0.99417 100 0)">
   <stop/>
   <stop stop-opacity="0.588" offset="1"/>
  </linearGradient>
  <linearGradient x2="0" xlink:href="#ButtonShadow-0" y1="6.132" y2="90.24" gradientUnits="userSpaceOnUse" id="linearGradient3780" gradientTransform="matrix(1.0238 0 0 1.0119 -1.143 -98.07)"/>
  <linearGradient x2="0" xlink:href="#ButtonShadow-0" y1="6.132" y2="90.24" gradientUnits="userSpaceOnUse" id="linearGradient3721" gradientTransform="matrix(1 0 0 1 0 -97)"/>
  <radialGradient cy="38" r="4" xlink:href="#linearGradient3898" gradientUnits="userSpaceOnUse" id="radialGradient3912" cx="13.5" gradientTransform="matrix(1 0 0 1.375 0 -14.25)"/>
  <linearGradient x2="0" xlink:href="#linearGradient3839" y1="48" y2="5.988" gradientUnits="userSpaceOnUse" id="linearGradient4383"/>
  <radialGradient cy="16" r="3.887" xlink:href="#linearGradient3898" gradientUnits="userSpaceOnUse" id="radialGradient4385" cx="13.5" gradientTransform="matrix(1 0 0 1.6431 0 -10.29)"/>
  <radialGradient cy="28" r="8.375" gradientUnits="userSpaceOnUse" id="radialGradient4393" cx="48" gradientTransform="matrix(1 0 0 1.4776 0 -13.373)">
   <stop stop-color="#829f66"/>
   <stop stop-color="#546741" offset="1"/>
  </radialGradient>
  <linearGradient x2="0" xlink:href="#linearGradient3839" y1="33.869" y2="15.761" gradientUnits="userSpaceOnUse" id="linearGradient4395" gradientTransform="matrix(1.1141 0 0 1.1141 -3.301 0.673)"/>
  <linearGradient x1="6" x2="32" xlink:href="#linearGradient4750" gradientUnits="userSpaceOnUse" id="linearGradient4756"/>
  <linearGradient x1="6" x2="32" xlink:href="#linearGradient4750" gradientUnits="userSpaceOnUse" id="linearGradient4763" gradientTransform="matrix(-1 0 0 1 96 0)"/>
  <linearGradient x2="0" y1="64" y2="80.11" gradientUnits="userSpaceOnUse" id="linearGradient4801">
   <stop stop-color="#d5b742"/>
   <stop stop-color="#f5e6aa" offset="0.349"/>
   <stop stop-color="#e0bf55" offset="0.571"/>
   <stop stop-color="#8a6e24" offset="1"/>
  </linearGradient>
  <radialGradient cy="68.802" r="8" gradientUnits="userSpaceOnUse" id="radialGradient4812" cx="64" gradientTransform="matrix(1.2627 0 0 1.2102 -16.814 -14.46)">
   <stop stop-color="#f8eec3"/>
   <stop stop-color="#f0d57b" offset="0.7"/>
   <stop stop-color="#dcb740" offset="1"/>
  </radialGradient>
  <linearGradient x2="0" y1="78" y2="60" gradientUnits="userSpaceOnUse" id="linearGradient4863">
   <stop stop-color="#8f7227"/>
   <stop stop-color="#8f7227" stop-opacity="0" offset="1"/>
  </linearGradient>
  <linearGradient x1="56" x2="72" gradientUnits="userSpaceOnUse" id="linearGradient4874">
   <stop stop-color="#d5b742"/>
   <stop stop-color="#f5e6aa" offset="0.188"/>
   <stop stop-color="#e0bf55" offset="0.375"/>
   <stop stop-color="#8a6e24" offset="1"/>
  </linearGradient>
  <rect x="6" rx="6" y="6" fill="url(#linearGradient3617)" height="84" id="SVGCleanerId_0" width="84"/>
  <path d="m74 11c0.55228 0 1 0.44772 1 1s-0.44772 1-1 1-1-0.44772-1-1 0.44772-1 1-1zm2.5 2c0.82843 0 1.5 0.67157 1.5 1.5s-0.67157 1.5-1.5 1.5c-0.18294 0-0.36915-0.03379-0.53125-0.09375 0.003 0.035 0.031 0.059 0.031 0.094 0 0.55228-0.44772 1-1 1s-1-0.44772-1-1 0.44772-1 1-1c0.0352 0 0.05949 0.0277 0.09375 0.03125-0.06-0.162-0.094-0.348-0.094-0.531 0-0.828 0.672-1.5 1.5-1.5zm-0.5 7c0.55228 0 1 0.44772 1 1s-0.44772 1-1 1-1-0.44772-1-1 0.44772-1 1-1zm6.5 3c1.3807 0 2.5 1.1193 2.5 2.5s-1.1193 2.5-2.5 2.5-2.5-1.1193-2.5-2.5c0-0.17259 0.0292-0.33726 0.0625-0.5-0.02132 0.0014-0.04084 0-0.0625 0-0.55228 0-1-0.44772-1-1s0.44772-1 1-1c0.39926 0 0.71469 0.25542 0.875 0.59375 0.436-0.37 1.008-0.594 1.625-0.594zm-6 0c0.82843 0 1.5 0.67157 1.5 1.5s-0.67157 1.5-1.5 1.5c-0.18294 0-0.36915-0.03379-0.53125-0.09375 0.003 0.035 0.031 0.059 0.031 0.094 0 0.55228-0.44772 1-1 1s-1-0.44772-1-1 0.44772-1 1-1c0.0352 0 0.05949 0.0277 0.09375 0.03125-0.06-0.162-0.094-0.348-0.094-0.531 0-0.828 0.672-1.5 1.5-1.5zm3 4c0.828 0 1.5 0.672 1.5 1.5s-0.672 1.5-1.5 1.5-1.5-0.672-1.5-1.5 0.672-1.5 1.5-1.5zm3.5 3c0.55228 0 1 0.44772 1 1s-0.44772 1-1 1-1-0.44772-1-1 0.44772-1 1-1z" fill="#91a977" color="#000000" id="SVGCleanerId_1" opacity="0.5"/>
  <path d="m22 11c-0.55228 0-1 0.44772-1 1s0.44772 1 1 1 1-0.44772 1-1-0.44772-1-1-1zm-2.5 2c-0.82843 0-1.5 0.67157-1.5 1.5s0.67157 1.5 1.5 1.5c0.18294 0 0.36915-0.03379 0.53125-0.09375-0.003 0.035-0.031 0.059-0.031 0.094 0 0.55228 0.44772 1 1 1s1-0.44772 1-1-0.44772-1-1-1c-0.0352 0-0.05949 0.0277-0.09375 0.03125 0.06-0.162 0.094-0.348 0.094-0.531 0-0.828-0.672-1.5-1.5-1.5zm0.5 7c-0.55228 0-1 0.44772-1 1s0.44772 1 1 1 1-0.44772 1-1-0.44772-1-1-1zm-6.5 3c-1.3807 0-2.5 1.1193-2.5 2.5s1.1193 2.5 2.5 2.5 2.5-1.1193 2.5-2.5c0-0.17259-0.0292-0.33726-0.0625-0.5 0.02132 0.0014 0.04084 0 0.0625 0 0.55228 0 1-0.44772 1-1s-0.44772-1-1-1c-0.39926 0-0.71469 0.25542-0.875 0.59375-0.436-0.37-1.008-0.594-1.625-0.594zm6 0c-0.82843 0-1.5 0.67157-1.5 1.5s0.67157 1.5 1.5 1.5c0.18294 0 0.36915-0.03379 0.53125-0.09375-0.003 0.035-0.031 0.059-0.031 0.094 0 0.55228 0.44772 1 1 1s1-0.44772 1-1-0.44772-1-1-1c-0.0352 0-0.05949 0.0277-0.09375 0.03125 0.06-0.162 0.094-0.348 0.094-0.531 0-0.828-0.672-1.5-1.5-1.5zm-3 4c-0.828 0-1.5 0.672-1.5 1.5s0.672 1.5 1.5 1.5 1.5-0.672 1.5-1.5-0.672-1.5-1.5-1.5zm-3.5 3c-0.55228 0-1 0.44772-1 1s0.44772 1 1 1 1-0.44772 1-1-0.44772-1-1-1z" fill="#91a977" color="#000000" id="SVGCleanerId_2" opacity="0.5"/>
  <path d="m11.906 8c-2.2089 0-3.906 1.7226-3.906 3.938v30.125c0 2.214 1.6971 3.937 3.906 3.937h72.188c2.209 0 3.906-1.723 3.906-3.938v-30.125c0-2.2144-1.697-3.937-3.906-3.937h-72.188zm3.625 2h64.938c1.988 0 3.531 1.518 3.531 3.5v27c0 1.9818-1.543 3.5-3.5312 3.5h-64.938c-1.988 0-3.531-1.518-3.531-3.5v-27c0-1.982 1.543-3.5 3.531-3.5z" fill="#50643d" id="SVGCleanerId_3"/>
  <path d="m14 8c-0.601 0-1.133 0.2681-1.5 0.6875-0.275-0.3146-0.642-0.5299-1.062-0.625-0.01-0.0022-0.022 0.0021-0.032 0-1.062 0.1291-1.9504 0.6473-2.5622 1.4375 0.0896 0.1499 0.1562 0.3127 0.1562 0.5h1c0-0.55228 0.44772-1 1-1s1 0.44772 1 1h1c0-0.55228 0.44772-1 1-1s1 0.44772 1 1h0.531 0.469c0-0.55228 0.44772-1 1-1s1 0.44772 1 1h1c0-0.55228 0.44772-1 1-1s1 0.44772 1 1h1c0-0.55228 0.44772-1 1-1s1 0.44772 1 1h1c0-0.55228 0.44772-1 1-1s1 0.44772 1 1h1c0-0.55228 0.44772-1 1-1s1 0.44772 1 1h1c0-0.55228 0.44772-1 1-1s1 0.44772 1 1h1c0-0.55228 0.44772-1 1-1s1 0.44772 1 1h1c0-0.55228 0.44772-1 1-1s1 0.44772 1 1h1c0-0.55228 0.44772-1 1-1s1 0.44772 1 1h1c0-0.55228 0.44772-1 1-1s1 0.44772 1 1h1c0-0.55228 0.44772-1 1-1s1 0.44772 1 1h1c0-0.55228 0.44772-1 1-1s1 0.44772 1 1h1c0-0.55228 0.44772-1 1-1s1 0.44772 1 1h1c0-0.55228 0.44772-1 1-1s1 0.44772 1 1h1c0-0.55228 0.44772-1 1-1s1 0.44772 1 1h1c0-0.55228 0.44772-1 1-1s1 0.44772 1 1h1c0-0.55228 0.44772-1 1-1s1 0.44772 1 1h1c0-0.55228 0.44772-1 1-1s1 0.44772 1 1h1c0-0.55228 0.44772-1 1-1s1 0.44772 1 1h1c0-0.55228 0.44772-1 1-1s1 0.44772 1 1h1c0-0.1381 0.043-0.2554 0.094-0.375 0.152-0.3589 0.492-0.625 0.906-0.625 0.55228 0 1 0.44772 1 1h1c0-0.55228 0.44772-1 1-1s1 0.44772 1 1h1c0-0.55228 0.44772-1 1-1s1 0.44772 1 1h1c0-0.55228 0.44772-1 1-1s1 0.44772 1 1h0.5c-0.488-0.8951-1.305-1.5281-2.312-1.8125-0.01-0.0028-0.022 0.0027-0.032 0-0.254 0.1194-0.473 0.2903-0.656 0.5-0.367-0.4194-0.899-0.6875-1.5-0.6875s-1.133 0.2681-1.5 0.6875c-0.367-0.4194-0.899-0.6875-1.5-0.6875s-1.133 0.2681-1.5 0.6875c-0.02-0.0226-0.042-0.0408-0.062-0.0625-0.076-0.0796-0.163-0.1523-0.25-0.2188-0.025-0.0179-0.038-0.0456-0.063-0.0624-0.078-0.0541-0.164-0.0824-0.25-0.125-0.013-0.0062-0.019-0.0254-0.031-0.0313-0.127-0.0597-0.266-0.0933-0.406-0.125-0.143-0.0321-0.286-0.0625-0.438-0.0625-0.301 0-0.588 0.0686-0.844 0.1875-0.013 0.0063-0.018 0.0246-0.031 0.0313-0.213 0.1043-0.401 0.2369-0.563 0.4062-0.02 0.0212-0.043 0.0405-0.062 0.0625-0.367-0.4194-0.899-0.6875-1.5-0.6875s-1.133 0.2681-1.5 0.6875c-0.367-0.4194-0.899-0.6875-1.5-0.6875s-1.133 0.2681-1.5 0.6875c-0.367-0.4194-0.899-0.6875-1.5-0.6875s-1.133 0.2681-1.5 0.6875c-0.367-0.4194-0.899-0.6875-1.5-0.6875s-1.133 0.2681-1.5 0.6875c-0.367-0.4194-0.899-0.6875-1.5-0.6875s-1.133 0.2681-1.5 0.6875c-0.367-0.4194-0.899-0.6875-1.5-0.6875s-1.133 0.2681-1.5 0.6875c-0.367-0.4194-0.899-0.6875-1.5-0.6875s-1.133 0.2681-1.5 0.6875c-0.367-0.4194-0.899-0.6875-1.5-0.6875s-1.133 0.2681-1.5 0.6875c-0.367-0.4194-0.899-0.6875-1.5-0.6875s-1.133 0.2681-1.5 0.6875c-0.367-0.4194-0.899-0.6875-1.5-0.6875s-1.133 0.2681-1.5 0.6875c-0.367-0.4194-0.899-0.6875-1.5-0.6875s-1.133 0.2681-1.5 0.6875c-0.367-0.4194-0.899-0.6875-1.5-0.6875s-1.133 0.2681-1.5 0.6875c-0.367-0.4194-0.899-0.6875-1.5-0.6875s-1.133 0.2681-1.5 0.6875c-0.367-0.4194-0.899-0.6875-1.5-0.6875s-1.133 0.2681-1.5 0.6875c-0.367-0.4194-0.899-0.6875-1.5-0.6875s-1.133 0.2681-1.5 0.6875c-0.367-0.4194-0.899-0.6875-1.5-0.6875s-1.133 0.2681-1.5 0.6875c-0.367-0.4194-0.899-0.6875-1.5-0.6875s-1.133 0.2681-1.5 0.6875c-0.367-0.4194-0.899-0.6875-1.5-0.6875s-1.133 0.2681-1.5 0.6875c-0.367-0.4194-0.899-0.6875-1.5-0.6875s-1.133 0.2681-1.5 0.6875c-0.367-0.4194-0.899-0.6875-1.5-0.6875s-1.133 0.2681-1.5 0.6875c-0.367-0.4194-0.899-0.6875-1.5-0.6875z" fill="#78955e" color="#000000" id="SVGCleanerId_4"/>
  <path d="m14 46c-0.60085 0-1.1334-0.26805-1.5-0.6875-0.27496 0.31459-0.64206 0.52995-1.0625 0.625-0.0098 0.0022-0.02138-0.0021-0.03125 0-1.062-0.13-1.9504-0.648-2.5622-1.438 0.0896-0.15 0.1562-0.313 0.1562-0.5h1c0 0.55228 0.44772 1 1 1s1-0.44772 1-1h1c0 0.55228 0.44772 1 1 1s1-0.44772 1-1h0.531 0.469c0 0.55228 0.44772 1 1 1s1-0.44772 1-1h1c0 0.55228 0.44772 1 1 1s1-0.44772 1-1h1c0 0.55228 0.44772 1 1 1s1-0.44772 1-1h1c0 0.55228 0.44772 1 1 1s1-0.44772 1-1h1c0 0.55228 0.44772 1 1 1s1-0.44772 1-1h1c0 0.55228 0.44772 1 1 1s1-0.44772 1-1h1c0 0.55228 0.44772 1 1 1s1-0.44772 1-1h1c0 0.55228 0.44772 1 1 1s1-0.44772 1-1h1c0 0.55228 0.44772 1 1 1s1-0.44772 1-1h1c0 0.55228 0.44772 1 1 1s1-0.44772 1-1h1c0 0.55228 0.44772 1 1 1s1-0.44772 1-1h1c0 0.55228 0.44772 1 1 1s1-0.44772 1-1h1c0 0.55228 0.44772 1 1 1s1-0.44772 1-1h1c0 0.55228 0.44772 1 1 1s1-0.44772 1-1h1c0 0.55228 0.44772 1 1 1s1-0.44772 1-1h1c0 0.55228 0.44772 1 1 1s1-0.44772 1-1h1c0 0.55228 0.44772 1 1 1s1-0.44772 1-1h1c0 0.55228 0.44772 1 1 1s1-0.44772 1-1h1c0 0.55228 0.44772 1 1 1s1-0.44772 1-1h1c0 0.55228 0.44772 1 1 1s1-0.44772 1-1h1c0 0.13807 0.04315 0.25536 0.09375 0.375 0.152 0.359 0.492 0.625 0.906 0.625 0.55228 0 1-0.44772 1-1h1c0 0.55228 0.44772 1 1 1s1-0.44772 1-1h1c0 0.55228 0.44772 1 1 1s1-0.44772 1-1h1c0 0.55228 0.44772 1 1 1s1-0.44772 1-1h0.5c-0.48815 0.89507-1.3053 1.5281-2.3125 1.8125-0.0099 0.0028-0.02129-0.0027-0.03125 0-0.254-0.119-0.473-0.29-0.656-0.5-0.367 0.42-0.899 0.688-1.5 0.688s-1.133-0.268-1.5-0.688c-0.367 0.42-0.899 0.688-1.5 0.688-0.60085 0-1.1334-0.26805-1.5-0.6875-0.01975 0.0226-0.04176 0.04081-0.0625 0.0625-0.0758 0.07964-0.16241 0.1523-0.25 0.21875-0.02413 0.01793-0.03755 0.04565-0.0625 0.0625-0.07816 0.05408-0.16439 0.08237-0.25 0.125-0.01257 0.0062-0.01853 0.02534-0.03125 0.03125-0.12703 0.05972-0.2661 0.09332-0.40625 0.125-0.143 0.032-0.286 0.062-0.438 0.062-0.301 0-0.588-0.069-0.844-0.188-0.013-0.006-0.018-0.024-0.031-0.031-0.213-0.104-0.401-0.237-0.563-0.406-0.02-0.021-0.043-0.04-0.062-0.063-0.367 0.42-0.899 0.688-1.5 0.688s-1.133-0.268-1.5-0.688c-0.367 0.42-0.899 0.688-1.5 0.688s-1.133-0.268-1.5-0.688c-0.367 0.42-0.899 0.688-1.5 0.688s-1.133-0.268-1.5-0.688c-0.367 0.42-0.899 0.688-1.5 0.688s-1.133-0.268-1.5-0.688c-0.367 0.42-0.899 0.688-1.5 0.688s-1.133-0.268-1.5-0.688c-0.367 0.42-0.899 0.688-1.5 0.688s-1.133-0.268-1.5-0.688c-0.367 0.42-0.899 0.688-1.5 0.688s-1.133-0.268-1.5-0.688c-0.367 0.42-0.899 0.688-1.5 0.688s-1.133-0.268-1.5-0.688c-0.367 0.42-0.899 0.688-1.5 0.688s-1.133-0.268-1.5-0.688c-0.367 0.42-0.899 0.688-1.5 0.688s-1.133-0.268-1.5-0.688c-0.367 0.42-0.899 0.688-1.5 0.688s-1.133-0.268-1.5-0.688c-0.367 0.42-0.899 0.688-1.5 0.688s-1.133-0.268-1.5-0.688c-0.367 0.42-0.899 0.688-1.5 0.688s-1.133-0.268-1.5-0.688c-0.367 0.42-0.899 0.688-1.5 0.688s-1.133-0.268-1.5-0.688c-0.367 0.42-0.899 0.688-1.5 0.688s-1.133-0.268-1.5-0.688c-0.367 0.42-0.899 0.688-1.5 0.688s-1.133-0.268-1.5-0.688c-0.367 0.42-0.899 0.688-1.5 0.688s-1.133-0.268-1.5-0.688c-0.367 0.42-0.899 0.688-1.5 0.688s-1.133-0.268-1.5-0.688c-0.367 0.42-0.899 0.688-1.5 0.688s-1.133-0.268-1.5-0.688c-0.367 0.42-0.899 0.688-1.5 0.688s-1.133-0.268-1.5-0.688c-0.367 0.42-0.899 0.688-1.5 0.688z" fill="#78955e" color="#000000" id="SVGCleanerId_5"/>
  <path d="m86 8.5v0.6875c0.55228 0 1 0.44772 1 1s-0.44772 1-1 1v1c0.55228 0 1 0.44772 1 1s-0.44772 1-1 1v1c0.55228 0 1 0.44772 1 1s-0.44772 1-1 1v1c0.55228 0 1 0.44772 1 1s-0.44772 1-1 1v1c0.55228 0 1 0.44772 1 1s-0.44772 1-1 1v1c0.55228 0 1 0.44772 1 1s-0.44772 1-1 1v1c0.55228 0 1 0.44772 1 1s-0.44772 1-1 1v1c0.55228 0 1 0.44772 1 1s-0.44772 1-1 1v1c0.55228 0 1 0.44772 1 1s-0.44772 1-1 1v1c0.55228 0 1 0.44772 1 1s-0.44772 1-1 1v1c0.55228 0 1 0.44772 1 1s-0.44772 1-1 1v1c0.55228 0 1 0.44772 1 1s-0.44772 1-1 1v1c0.15269 0 0.2768 0.03256 0.40625 0.09375 0.77971-0.56105 1.3361-1.4096 1.5312-2.4062 0.0058-0.02972-0.0052-0.06377 0-0.09375-0.0021-0.0099 0.0022-0.02144 0-0.03125-0.09505-0.42044-0.31041-0.78754-0.625-1.0625 0.41945-0.36662 0.6875-0.89915 0.6875-1.5s-0.26805-1.1334-0.6875-1.5c0.41945-0.36662 0.6875-0.89915 0.6875-1.5s-0.26805-1.1334-0.6875-1.5c0.41945-0.36662 0.6875-0.89915 0.6875-1.5s-0.26805-1.1334-0.6875-1.5c0.41945-0.36662 0.6875-0.89915 0.6875-1.5s-0.26805-1.1334-0.6875-1.5c0.41945-0.36662 0.6875-0.89915 0.6875-1.5s-0.26805-1.1334-0.6875-1.5c0.41945-0.36662 0.6875-0.89915 0.6875-1.5s-0.26805-1.1334-0.6875-1.5c0.41945-0.36662 0.6875-0.89915 0.6875-1.5s-0.26805-1.1334-0.6875-1.5c0.41945-0.36662 0.6875-0.89915 0.6875-1.5s-0.26805-1.1334-0.6875-1.5c0.41945-0.36662 0.6875-0.89915 0.6875-1.5s-0.26805-1.1334-0.6875-1.5c0.41945-0.36662 0.6875-0.89915 0.6875-1.5s-0.26805-1.1334-0.6875-1.5c0.24147-0.21105 0.41239-0.5101 0.53125-0.8125-0.275-1.0384-0.937-1.876-1.844-2.376z" fill="#78955e" color="#000000" id="SVGCleanerId_6"/>
  <path d="m10 8.5v0.6875c-0.55228 0-1 0.44772-1 1s0.44772 1 1 1v1c-0.55228 0-1 0.44772-1 1s0.44772 1 1 1v1c-0.55228 0-1 0.44772-1 1s0.44772 1 1 1v1c-0.55228 0-1 0.44772-1 1s0.44772 1 1 1v1c-0.55228 0-1 0.44772-1 1s0.44772 1 1 1v1c-0.55228 0-1 0.44772-1 1s0.44772 1 1 1v1c-0.55228 0-1 0.44772-1 1s0.44772 1 1 1v1c-0.55228 0-1 0.44772-1 1s0.44772 1 1 1v1c-0.55228 0-1 0.44772-1 1s0.44772 1 1 1v1c-0.55228 0-1 0.44772-1 1s0.44772 1 1 1v1c-0.55228 0-1 0.44772-1 1s0.44772 1 1 1v1c-0.55228 0-1 0.44772-1 1s0.44772 1 1 1v1c-0.15269 0-0.2768 0.03256-0.40625 0.09375-0.7798-0.562-1.3362-1.41-1.5313-2.407-0.0058-0.02972 0.0052-0.06377 0-0.09375 0.0021-0.0099-0.0022-0.02144 0-0.03125 0.09505-0.42044 0.31041-0.78754 0.625-1.0625-0.4194-0.367-0.6875-0.9-0.6875-1.5 0-0.601 0.2681-1.134 0.6875-1.5-0.4194-0.367-0.6875-0.9-0.6875-1.5 0-0.601 0.2681-1.134 0.6875-1.5-0.4194-0.367-0.6875-0.9-0.6875-1.5 0-0.601 0.2681-1.134 0.6875-1.5-0.4194-0.367-0.6875-0.9-0.6875-1.5 0-0.601 0.2681-1.134 0.6875-1.5-0.4194-0.367-0.6875-0.9-0.6875-1.5 0-0.601 0.2681-1.134 0.6875-1.5-0.4194-0.367-0.6875-0.9-0.6875-1.5 0-0.601 0.2681-1.134 0.6875-1.5-0.4194-0.367-0.6875-0.9-0.6875-1.5 0-0.601 0.2681-1.134 0.6875-1.5-0.4194-0.367-0.6875-0.9-0.6875-1.5 0-0.601 0.2681-1.134 0.6875-1.5-0.4194-0.367-0.6875-0.9-0.6875-1.5 0-0.601 0.2681-1.134 0.6875-1.5-0.4194-0.367-0.6875-0.9-0.6875-1.5 0-0.601 0.2681-1.134 0.6875-1.5-0.2415-0.212-0.4124-0.511-0.5313-0.813 0.275-1.0374 0.9363-1.875 1.8438-2.375z" fill="#78955e" color="#000000" id="SVGCleanerId_7"/>
  <path d="m17 16a3.5 6 0 1 1 -7 0 3.5 6 0 1 1 7 0z" stroke-width="0.775" fill="url(#radialGradient4385)" color="#000000" stroke="#edecc5" id="SVGCleanerId_8"/>
  <path d="m15.937 17.541 1.6128 2.0087-2.0087-1.6128 0.39235 2.5459l-0.933-2.401-0.933 2.401 0.392-2.546-2.009 1.613 1.613-2.009-2.546 0.392 2.401-0.933-2.401-0.933 2.546 0.392-1.613-2.009 2.009 1.613-0.392-2.546 0.933 2.401 0.933-2.401-0.392 2.546 2.009-1.613-1.613 2.009 2.546-0.392-2.401 0.933 2.401 0.93318z" fill="#efedc7" color="#000000" id="SVGCleanerId_9" opacity="0.4"/>
  <path d="m14.75 12.969a0.56886 0.56886 0 0 0 -0.09375 0.0625l-2.2188 1.125a0.56886 0.56886 0 0 0 -0.3125 0.5v0.59375a0.56886 0.56886 0 0 0 0.75 0.53125c0.17376-0.0619 0.28121-0.08283 0.40625-0.125v4.6562c-0.000001 0.10895 0.01432 0.07692 0.03125 0.0625 0.0091-0.0061-0.0068 0.02134-0.09375 0.03125-0.11365 0.01296-0.28906 0.02223-0.5 0.03125a0.56886 0.56886 0 0 0 -0.53 0.562v0.5625a0.56886 0.56886 0 0 0 0.562 0.563h4.5a0.56886 0.56886 0 0 0 0.5625 -0.5625v-0.59375a0.56886 0.56886 0 0 0 -0.562 -0.562c-0.34702 0-0.46296-0.03656-0.5-0.03125v-6.8125a0.56886 0.56886 0 0 0 -0.562 -0.562l-1.2812-0.03125a0.56886 0.56886 0 0 0 -0.15625 0z" id="SVGCleanerId_10" opacity="0.15"/>
  <path d="m17.245 21.568h-4.4829v-0.57813c0.43781-0.01871 0.70723-0.05051 0.80826-0.09542 0.17213-0.08232 0.25819-0.27129 0.2582-0.56691v-5.0966c-0.000002-0.12348-0.0019-0.19083-0.0057-0.20206-0.01871-0.07109-0.07485-0.10664-0.16839-0.10665-0.04491 0.000006-0.36671 0.10665-0.96543 0.31994v-0.57252l2.2227-1.1282 1.2667 0.01152v6.9822c-0.000004 0.19458 0.07109 0.31807 0.21329 0.37046 0.12348 0.04865 0.40787 0.07297 0.85317 0.07297v0.58936" id="SVGCleanerId_11" opacity="0.3"/>
  <path d="m17.245 21.005h-4.4829v-0.57813c0.43781-0.01871 0.70723-0.05051 0.80826-0.09542 0.17213-0.08232 0.25819-0.27129 0.2582-0.56691v-5.0966c-0.000002-0.12348-0.0019-0.19083-0.0057-0.20206-0.01871-0.07109-0.07485-0.10664-0.16839-0.10665-0.04491 0.000006-0.36671 0.10665-0.96543 0.31994v-0.57252l2.2227-1.1282 1.2667 0.01152v6.9822c-0.000004 0.19458 0.07109 0.31807 0.21329 0.37046 0.12348 0.04865 0.40787 0.07297 0.85317 0.07297v0.58936" fill="#f1eeca" id="SVGCleanerId_12"/>
  <path d="m17 38a3.5 5 0 1 1 -7 0 3.5 5 0 1 1 7 0z" stroke-width="0.75" fill="url(#radialGradient3912)" color="#000000" stroke="#edecc5" id="SVGCleanerId_13" stroke-dashoffset="8.6" stroke-linecap="round"/>
  <path d="m14.863 41.45h-2.7053v-0.34889c0.2642-0.01129 0.42679-0.03048 0.48777-0.05758 0.10387-0.04968 0.15581-0.16372 0.15581-0.34211v-3.0756c-0.000001-0.07451-0.0011-0.11516-0.0034-0.12194-0.01129-0.0429-0.04517-0.06435-0.10162-0.06436-0.0271 0.000004-0.2213 0.06436-0.58261 0.19307v-0.3455l1.3414-0.68084 0.76439 0.007v4.2136c-0.000003 0.11742 0.0429 0.19194 0.12872 0.22356 0.07452 0.02936 0.24614 0.04404 0.51486 0.04404v0.35566" id="SVGCleanerId_14" opacity="0.3"/>
  <path d="m14.863 41.11h-2.7053v-0.34889c0.2642-0.01129 0.42679-0.03048 0.48777-0.05758 0.10387-0.04968 0.15581-0.16372 0.15581-0.34211v-3.0756c-0.000001-0.07452-0.0011-0.11516-0.0034-0.12194-0.01129-0.0429-0.04517-0.06435-0.10162-0.06436-0.0271 0.000003-0.2213 0.06436-0.58261 0.19307v-0.3455l1.3414-0.68084 0.76439 0.007v4.2136c-0.000003 0.11743 0.0429 0.19195 0.12872 0.22356 0.07452 0.02936 0.24614 0.04404 0.51486 0.04404v0.35566" fill="#f1eeca" id="SVGCleanerId_15"/>
  <path d="m35 33c-0.55228 0-1 0.44772-1 1s0.44772 1 1 1 1-0.44772 1-1-0.44772-1-1-1zm1.5 2c-0.828 0-1.5 0.672-1.5 1.5s0.672 1.5 1.5 1.5 1.5-0.672 1.5-1.5-0.672-1.5-1.5-1.5zm-3.5 1c-0.55228 0-1 0.44772-1 1s0.44772 1 1 1 1-0.44772 1-1-0.44772-1-1-1zm7 1c-1.5091 0-2.8188 0.82863-3.5 2.0625-0.16-0.041-0.327-0.062-0.5-0.062-1.1046 0-2 0.89543-2 2s0.89543 2 2 2c0.17259 0 0.34024-0.0214 0.5-0.0625 0.681 1.233 1.991 2.062 3.5 2.062 2.2091 0 4-1.7909 4-4s-1.7909-4-4-4z" fill="#91a977" color="#000000" id="SVGCleanerId_16" opacity="0.5"/>
  <path d="m40 16v2c1.108 0 2 0.892 2 2v18c0 1.108-0.892 2-2 2h16c-1.108 0-2-0.892-2-2v-18c0-1.108 0.892-2 2-2v-2h-16z" fill="#87a26b" color="#000000" id="SVGCleanerId_17" opacity="0.4"/>
  <path d="m61 33c0.55228 0 1 0.44772 1 1s-0.44772 1-1 1-1-0.44772-1-1 0.44772-1 1-1zm-1.5 2c0.828 0 1.5 0.672 1.5 1.5s-0.672 1.5-1.5 1.5-1.5-0.672-1.5-1.5 0.672-1.5 1.5-1.5zm3.5 1c0.55228 0 1 0.44772 1 1s-0.44772 1-1 1-1-0.44772-1-1 0.44772-1 1-1zm-7 1c1.5091 0 2.8188 0.82863 3.5 2.0625 0.16-0.041 0.327-0.062 0.5-0.062 1.1046 0 2 0.89543 2 2s-0.89543 2-2 2c-0.17259 0-0.34024-0.0214-0.5-0.0625-0.681 1.233-1.991 2.062-3.5 2.062-2.2091 0-4-1.7909-4-4s1.7909-4 4-4z" fill="#91a977" color="#000000" id="SVGCleanerId_18" opacity="0.5"/>
  <path d="m56 28a8 12 0 1 1 -16 0 8 12 0 1 1 16 0z" stroke-width="0.75" fill="url(#radialGradient4393)" color="#000000" stroke="#f0eec9" id="SVGCleanerId_19"/>
  <path d="m46 20v3.4688c-2.1586 0.5146-3.625 2.0736-3.625 4.125 0 1.016 0.40308 1.9611 1.125 2.6562 0.65665 0.63476 1.3364 0.99526 2.5 1.3125v3.125c-0.95422-0.58668-1.7925-1.5692-2.5312-3.0312h-1.1875l0.125 4.625h1.125l1.0312-0.5c0.412 0.244 0.915 0.439 1.437 0.593v3.625h1v-3.4062c0.44227 0.07114 0.88729 0.125 1.3438 0.125 0.2241 0 0.44206-0.044 0.65625-0.0625v3.344h1v-3.5c2.2501-0.53604 3.7188-2.1353 3.7188-4.3125 0-1.123-0.40759-2.0816-1.1562-2.75-0.607-0.537-1.167-0.782-2.563-1.157v-2.781c0.64444 0.50232 1.2284 1.2514 1.8438 2.2812h1.25l-0.09375-4.25h-1.1562l-0.969 0.594c-0.284-0.165-0.585-0.291-0.875-0.406v-3.719h-1v3.4062c-0.45196-0.09226-0.94619-0.125-1.4688-0.125-0.18717 0-0.35089 0.01732-0.53125 0.03125v-3.312h-1zm1.5625 4.6562c0.51211 0 0.99319 0.10838 1.4375 0.28125v3.0938l-2-0.5v-2.8125c0.18033-0.0285 0.36278-0.0625 0.5625-0.0625zm-1.562 0.406v2.125c-0.48453-0.23282-0.6875-0.50795-0.6875-0.96875 0-0.46791 0.26822-0.88105 0.6875-1.1562zm1 6.75 1.7812 0.40625c0.0864 0.01901 0.13898 0.0421 0.21875 0.0625v3c-0.20487 0.03293-0.42006 0.0625-0.65625 0.0625-0.47881 0-0.91909-0.0601-1.3438-0.1875v-3.3438zm3 0.84375c0.45345 0.27257 0.65625 0.60706 0.65625 1.0938 0 0.49431-0.23794 0.91273-0.65625 1.1875v-2.2812z" fill="url(#linearGradient4395)" id="SVGCleanerId_20"/>
  <path d="m37 41.781c-0.35211 0-0.65974 0.09633-0.90625 0.3125-0.3229 0.27677-0.5 0.72491-0.5 1.1562 0 0.78291 0.61514 1.3438 1.4062 1.3438 0.36177 0 0.65543-0.08284 0.90625-0.28125 0.32112-0.25764 0.53125-0.65582 0.53125-1.0938 0-0.43772-0.21997-0.85872-0.53125-1.125-0.251-0.217-0.552-0.312-0.906-0.312zm11.812 0c-0.35211 0-0.65974 0.09633-0.90625 0.3125-0.2903 0.24882-0.43818 0.64317-0.46875 1.0312-0.01564-0.4537-0.18612-0.83853-0.53125-1.0625-0.2308-0.15387-0.51913-0.21875-1-0.21875h-1.1875a0.15627 0.15627 0 0 0 -0.03125 0 0.15627 0.15627 0 0 0 -0.0625 0.03125 0.15627 0.15627 0 0 0 -0.03125 0.03125 0.15627 0.15627 0 0 0 -0.03125 0.0625 0.15627 0.15627 0 0 0 0 0.03125v0.1875a0.15627 0.15627 0 0 0 0 0.03125 0.15627 0.15627 0 0 0 0.03125 0.0625 0.15627 0.15627 0 0 0 0.03125 0.03125 0.15627 0.15627 0 0 0 0.0625 0.03125 0.15627 0.15627 0 0 0 0.03125 0h0.03125c0.07337 0 0.1213-0.0011 0.15625 0 0.0019 0.02417 0 0.04281 0 0.125v1.4375c0 0.10274 0.002 0.14252 0 0.15625 0.03193-0.03903 0.000997 0-0.15625 0h-0.03125a0.15627 0.15627 0 0 0 -0.03125 0 0.15627 0.15627 0 0 0 -0.0625 0.03125 0.15627 0.15627 0 0 0 -0.03125 0.03125 0.15627 0.15627 0 0 0 -0.03125 0.0625 0.15627 0.15627 0 0 0 0 0.03125v0.1875a0.15627 0.15627 0 0 0 0 0.03125 0.15627 0.15627 0 0 0 0.03125 0.0625 0.15627 0.15627 0 0 0 0.03125 0.03125 0.15627 0.15627 0 0 0 0.0625 0.03125 0.15627 0.15627 0 0 0 0.03125 0h1.2188c0.43773 0 0.76044-0.08385 1-0.25 0.30953-0.21563 0.44042-0.57475 0.46875-1 0.01498 0.36166 0.14309 0.68054 0.375 0.90625 0.24594 0.23936 0.60444 0.375 1 0.375 0.36177 0 0.6811-0.07843 0.9375-0.28125 0.32546-0.26112 0.5-0.66419 0.5-1.0938 0-0.42928-0.18429-0.85494-0.5-1.125-0.25105-0.21733-0.55218-0.3125-0.90625-0.3125zm7.2812 0a0.15627 0.15627 0 0 0 -0.031 0.031 0.15627 0.15627 0 0 0 -0.031 0.032 0.15627 0.15627 0 0 0 -0.031 0.031l-0.75 1.7812c-0.073 0.172-0.136 0.29-0.188 0.344l0.03125-0.5a0.15627 0.15627 0 0 0 0 -0.03125 0.15627 0.15627 0 0 0 0 -0.03125 0.15627 0.15627 0 0 0 -0.031 -0.032 0.15627 0.15627 0 0 0 -0.031 -0.031 0.15627 0.15627 0 0 0 -0.031 -0.031 0.15627 0.15627 0 0 0 -0.03125 0 0.15627 0.15627 0 0 0 -0.03125 0h-0.1875a0.15627 0.15627 0 0 0 -0.03125 0 0.15627 0.15627 0 0 0 -0.0625 0.03125 0.15627 0.15627 0 0 0 -0.03125 0.03125 0.15627 0.15627 0 0 0 -0.03125 0.0625c-0.06358 0.21936-0.11344 0.31573-0.1875 0.40625-0.108 0.12907-0.2399 0.1875-0.4375 0.1875h-0.0625c-0.06737 0-0.09796 0.000445-0.125 0a0.15627 0.15627 0 0 0 -0.03125 0c-0.000675-0.0019 0-0.0168 0-0.0625v-1.5312c0-0.08219-0.0019-0.10082 0-0.125 0.03466-0.0011 0.08152 0 0.15625 0h0.0625a0.15627 0.15627 0 0 0 0.03125 0 0.15627 0.15627 0 0 0 0.0625 -0.03125 0.15627 0.15627 0 0 0 0.03125 -0.03125 0.15627 0.15627 0 0 0 0.03125 -0.0625 0.15627 0.15627 0 0 0 0 -0.03125v-0.1875a0.15627 0.15627 0 0 0 0 -0.03125 0.15627 0.15627 0 0 0 -0.03125 -0.0625 0.15627 0.15627 0 0 0 -0.031 -0.031 0.15627 0.15627 0 0 0 -0.062 -0.031 0.15627 0.15627 0 0 0 -0.03125 0h-1.3125a0.15627 0.15627 0 0 0 -0.03125 0 0.15627 0.15627 0 0 0 -0.063 0.031 0.15627 0.15627 0 0 0 -0.031 0.031 0.15627 0.15627 0 0 0 -0.031 0.063 0.15627 0.15627 0 0 0 0 0.031v0.1875a0.15627 0.15627 0 0 0 0 0.03125 0.15627 0.15627 0 0 0 0.03125 0.0625 0.15627 0.15627 0 0 0 0.03125 0.03125 0.15627 0.15627 0 0 0 0.0625 0.03125 0.15627 0.15627 0 0 0 0.03125 0h0.0625c0.05869 0 0.09034-0.000447 0.125 0-0.0024 0.03587 0 0.06185 0 0.125v1.4375c0 0.08006-0.0029 0.11936 0 0.15625 0.0024-0.0087 0.000797 0-0.125 0h-0.0625l0.032-0.562a0.15627 0.15627 0 0 0 0 -0.03125 0.15627 0.15627 0 0 0 -0.03125 -0.0625 0.15627 0.15627 0 0 0 -0.03125 -0.03125 0.15627 0.15627 0 0 0 -0.03125 -0.03125 0.15627 0.15627 0 0 0 -0.03125 0 0.15627 0.15627 0 0 0 -0.03125 0h-0.1875a0.15627 0.15627 0 0 0 -0.03125 0 0.15627 0.15627 0 0 0 -0.0625 0.03125 0.15627 0.15627 0 0 0 -0.03125 0.03125 0.15627 0.15627 0 0 0 -0.03125 0.0625c-0.064 0.219-0.114 0.315-0.188 0.406-0.108 0.12907-0.2399 0.1875-0.4375 0.1875h-0.0625c-0.06737 0-0.09796 0.000445-0.125 0 0.000341-0.01814 0-0.02214 0-0.0625v-1.5312c0-0.06315 0.0024-0.08913 0-0.125 0.03463-0.000444 0.06522 0 0.125 0h0.0625a0.15627 0.15627 0 0 0 0.03125 0 0.15627 0.15627 0 0 0 0.0625 -0.03125 0.15627 0.15627 0 0 0 0.03125 -0.03125 0.15627 0.15627 0 0 0 0.03125 -0.0625 0.15627 0.15627 0 0 0 0 -0.03125v-0.1875a0.15627 0.15627 0 0 0 0 -0.03125 0.15627 0.15627 0 0 0 -0.03125 -0.0625 0.15627 0.15627 0 0 0 -0.03125 -0.03125 0.15627 0.15627 0 0 0 -0.0625 -0.03125 0.15627 0.15627 0 0 0 -0.03125 0h-1.3125a0.15627 0.15627 0 0 0 -0.03125 0 0.15627 0.15627 0 0 0 -0.0625 0.03125 0.15627 0.15627 0 0 0 -0.03125 0.03125 0.15627 0.15627 0 0 0 -0.03125 0.0625 0.15627 0.15627 0 0 0 0 0.03125v0.1875a0.15627 0.15627 0 0 0 0 0.03125 0.15627 0.15627 0 0 0 0.03125 0.0625 0.15627 0.15627 0 0 0 0.03125 0.03125 0.15627 0.15627 0 0 0 0.0625 0.03125 0.15627 0.15627 0 0 0 0.03125 0h0.0625c0.05869 0 0.09034-0.000447 0.125 0-0.0024 0.03587 0 0.06185 0 0.125v1.4375c0 0.08006-0.0029 0.11936 0 0.15625 0.0024-0.0087 0.000797 0-0.125 0h-0.0625a0.15627 0.15627 0 0 0 -0.03125 0 0.15627 0.15627 0 0 0 -0.0625 0.03125 0.15627 0.15627 0 0 0 -0.03125 0.03125 0.15627 0.15627 0 0 0 -0.03125 0.0625 0.15627 0.15627 0 0 0 0 0.03125v0.1875a0.15627 0.15627 0 0 0 0 0.03125 0.15627 0.15627 0 0 0 0.03125 0.0625 0.15627 0.15627 0 0 0 0.03125 0.03125 0.15627 0.15627 0 0 0 0.0625 0.03125 0.15627 0.15627 0 0 0 0.03125 0h2.25a0.15627 0.15627 0 0 0 0.03125 0 0.15627 0.15627 0 0 0 0.03125 -0.03125 0.15627 0.15627 0 0 0 0.03125 0 0.15627 0.15627 0 0 0 0.03125 0.03125 0.15627 0.15627 0 0 0 0.03125 0h2.2188a0.15627 0.15627 0 0 0 0.03125 0 0.15627 0.15627 0 0 0 0.03125 0h0.96875a0.15627 0.15627 0 0 0 0.03125 0 0.15627 0.15627 0 0 0 0.062 -0.031 0.15627 0.15627 0 0 0 0.031 -0.031 0.15627 0.15627 0 0 0 0.03125 -0.0625 0.15627 0.15627 0 0 0 0 -0.03125v-0.1875a0.15627 0.15627 0 0 0 0 -0.03125 0.15627 0.15627 0 0 0 -0.031 -0.062 0.15627 0.15627 0 0 0 -0.031 -0.031 0.15627 0.15627 0 0 0 -0.062 -0.032 0.15627 0.15627 0 0 0 -0.03125 0c-0.10956-0.0061-0.17289-0.0224-0.1875-0.03125-0.01461-0.0088 0 0.0097 0-0.03125 0-0.01049-0.0062-0.01455 0-0.03125s0.04019-0.04399 0.0625-0.09375h-0.03125v-0.03125h0.625l0.09375 0.21875h-0.0625a0.15627 0.15627 0 0 0 -0.03125 0 0.15627 0.15627 0 0 0 -0.0625 0.03125 0.15627 0.15627 0 0 0 -0.03125 0.03125 0.15627 0.15627 0 0 0 -0.03125 0.0625 0.15627 0.15627 0 0 0 0 0.03125v0.1875a0.15627 0.15627 0 0 0 0 0.03125 0.15627 0.15627 0 0 0 0.03125 0.0625 0.15627 0.15627 0 0 0 0.03125 0.03125 0.15627 0.15627 0 0 0 0.0625 0.03125 0.15627 0.15627 0 0 0 0.03125 0h1.1875 1.3438a0.15627 0.15627 0 0 0 0.03125 0 0.15627 0.15627 0 0 0 0.0625 -0.03125 0.15627 0.15627 0 0 0 0.03125 -0.03125 0.15627 0.15627 0 0 0 0.03125 -0.0625 0.15627 0.15627 0 0 0 0 -0.03125v-0.09375c0.04087 0.06455 0.09436 0.11388 0.15625 0.15625 0.12378 0.08474 0.27205 0.125 0.4375 0.125 0.20547 0 0.39875-0.06466 0.53125-0.1875s0.1875-0.29373 0.1875-0.5v-0.0625a0.15627 0.15627 0 0 0 0 -0.03125 0.15627 0.15627 0 0 0 -0.03125 -0.0625 0.15627 0.15627 0 0 0 -0.03125 -0.03125 0.15627 0.15627 0 0 0 -0.0625 -0.03125 0.15627 0.15627 0 0 0 -0.03125 0h-0.1875a0.15627 0.15627 0 0 0 -0.03125 0 0.15627 0.15627 0 0 0 -0.0625 0.03125 0.15627 0.15627 0 0 0 -0.03125 0.03125 0.15627 0.15627 0 0 0 -0.03125 0.03125v-0.03125a0.15627 0.15627 0 0 0 0 -0.03125c-0.028-0.168-0.09-0.321-0.187-0.439-0.01-0.011-0.021-0.02-0.031-0.031a0.15627 0.15627 0 0 0 0 -0.03125c0.24832-0.1262 0.40625-0.35602 0.40625-0.625 0-0.256-0.141-0.461-0.344-0.594-0.174-0.11-0.429-0.156-0.75-0.156h-1.4062a0.15627 0.15627 0 0 0 -0.03125 0 0.15627 0.15627 0 0 0 -0.0625 0.03125 0.15627 0.15627 0 0 0 -0.03125 0.03125 0.15627 0.15627 0 0 0 -0.03125 0.0625 0.15627 0.15627 0 0 0 0 0.03125v0.1875a0.15627 0.15627 0 0 0 0 0.03125 0.15627 0.15627 0 0 0 0.03125 0.0625 0.15627 0.15627 0 0 0 0.03125 0.03125 0.15627 0.15627 0 0 0 0.0625 0.03125 0.15627 0.15627 0 0 0 0.03125 0h0.0625c0.06963 0 0.09737-0.0011 0.125 0 0.0018 0.02325 0 0.04146 0 0.125v1.4375c0 0.10443 0.0019 0.14409 0 0.15625-0.01349 0.0042-0.04738 0-0.125 0h-0.0625c-0.08358-0.0029-0.1174-0.02582-0.125-0.03125-0.0076-0.0054 0.00009-0.01764-0.03125-0.09375l-0.876-2.062a0.15627 0.15627 0 0 0 -0.031 -0.031 0.15627 0.15627 0 0 0 -0.031 -0.032 0.15627 0.15627 0 0 0 -0.0625 -0.03125 0.15627 0.15627 0 0 0 -0.03125 0h-0.25a0.15627 0.15627 0 0 0 -0.03125 0 0.15627 0.15627 0 0 0 -0.03125 0zm-17.688 0.0625a0.15627 0.15627 0 0 0 -0.03 0.031 0.15627 0.15627 0 0 0 -0.03125 0.03125 0.15627 0.15627 0 0 0 -0.03125 0.0625 0.15627 0.15627 0 0 0 0 0.03125v0.1875a0.15627 0.15627 0 0 0 0 0.03125 0.15627 0.15627 0 0 0 0.03125 0.0625 0.15627 0.15627 0 0 0 0.03125 0.03125 0.15627 0.15627 0 0 0 0.0625 0.03125 0.15627 0.15627 0 0 0 0.03125 0c0.08843 0.002 0.138 0.03631 0.1875 0.09375v1.25c0 0.14202-0.02181 0.24038-0.03125 0.28125-0.0094 0.04086-0.0078 0.03795-0.03125 0.0625-0.01546 0.01643-0.03264 0.0255-0.15625 0.03125a0.15627 0.15627 0 0 0 -0.03125 0 0.15627 0.15627 0 0 0 -0.03125 0 0.15627 0.15627 0 0 0 -0.03125 0.03125 0.15627 0.15627 0 0 0 -0.03125 0.03125 0.15627 0.15627 0 0 0 -0.03125 0.03125 0.15627 0.15627 0 0 0 0 0.03125 0.15627 0.15627 0 0 0 0 0.03125v0.1875a0.15627 0.15627 0 0 0 0 0.03125 0.15627 0.15627 0 0 0 0.03125 0.0625 0.15627 0.15627 0 0 0 0.03125 0.03125 0.15627 0.15627 0 0 0 0.0625 0.03125 0.15627 0.15627 0 0 0 0.03125 0h0.96875a0.15627 0.15627 0 0 0 0.03125 0 0.15627 0.15627 0 0 0 0.063 -0.031 0.15627 0.15627 0 0 0 0.031 -0.031 0.15627 0.15627 0 0 0 0.03125 -0.0625 0.15627 0.15627 0 0 0 0 -0.03125v-0.1875a0.15627 0.15627 0 0 0 0 -0.03125 0.15627 0.15627 0 0 0 -0.031 -0.062 0.15627 0.15627 0 0 0 -0.031 -0.031 0.15627 0.15627 0 0 0 -0.062 -0.032 0.15627 0.15627 0 0 0 -0.03125 0c-0.124-0.005-0.142-0.014-0.157-0.031-0.023-0.024-0.022-0.021-0.031-0.062-0.01-0.041-0.031-0.139-0.031-0.281v-0.65625l1.2812 1.5a0.15627 0.15627 0 0 0 0.031 0.03 0.15627 0.15627 0 0 0 0.0625 0.03125 0.15627 0.15627 0 0 0 0.03125 0h0.21875a0.15627 0.15627 0 0 0 0.03125 0 0.15627 0.15627 0 0 0 0.0625 -0.03125 0.15627 0.15627 0 0 0 0.03125 -0.03125 0.15627 0.15627 0 0 0 0.03125 -0.0625 0.15627 0.15627 0 0 0 0 -0.03125v-1.7188c0-0.14923-0.0048-0.23704 0-0.28125 0.0048-0.04422 0.01504-0.04552 0.03125-0.0625 0.01088-0.01156 0.04795-0.02854 0.15625-0.03125a0.15627 0.15627 0 0 0 0.03125 0 0.15627 0.15627 0 0 0 0.03125 0h0.0625c0.05869 0 0.09034-0.000447 0.125 0-0.0024 0.03587 0 0.06185 0 0.125v1.4375c0 0.07893-0.0029 0.11939 0 0.15625 0.0024-0.0087 0.000797 0-0.125 0h-0.0625a0.15627 0.15627 0 0 0 -0.03125 0 0.15627 0.15627 0 0 0 -0.0625 0.03125 0.15627 0.15627 0 0 0 -0.03125 0.03125 0.15627 0.15627 0 0 0 -0.03125 0.0625 0.15627 0.15627 0 0 0 0 0.03125v0.1875a0.15627 0.15627 0 0 0 0 0.03125 0.15627 0.15627 0 0 0 0.03125 0.0625 0.15627 0.15627 0 0 0 0.03125 0.03125 0.15627 0.15627 0 0 0 0.0625 0.03125 0.15627 0.15627 0 0 0 0.03125 0h2.25a0.15627 0.15627 0 0 0 0.03125 0 0.15627 0.15627 0 0 0 0.0625 -0.03125 0.15627 0.15627 0 0 0 0.03125 -0.03125 0.15627 0.15627 0 0 0 0.03125 -0.0625 0.15627 0.15627 0 0 0 0 -0.03125l0.064-0.906a0.15627 0.15627 0 0 0 0 -0.03125 0.15627 0.15627 0 0 0 0 -0.03125 0.15627 0.15627 0 0 0 -0.03125 -0.03125 0.15627 0.15627 0 0 0 -0.03125 -0.03125 0.15627 0.15627 0 0 0 -0.03125 -0.03125 0.15627 0.15627 0 0 0 -0.03125 0 0.15627 0.15627 0 0 0 -0.03125 0h-0.1875a0.15627 0.15627 0 0 0 -0.03125 0 0.15627 0.15627 0 0 0 -0.0625 0.03125 0.15627 0.15627 0 0 0 -0.03125 0.03125 0.15627 0.15627 0 0 0 -0.03125 0.0625c-0.03608 0.12886-0.10931 0.16777-0.15625 0.25v-1.125c0.04595 0.08203 0.08628 0.17826 0.125 0.3125a0.15627 0.15627 0 0 0 0.03125 0.0625 0.15627 0.15627 0 0 0 0.03125 0.03125 0.15627 0.15627 0 0 0 0.0625 0.03125 0.15627 0.15627 0 0 0 0.03125 0h0.15625a0.15627 0.15627 0 0 0 0.03125 0 0.15627 0.15627 0 0 0 0.062 -0.031 0.15627 0.15627 0 0 0 0.03125 -0.03125 0.15627 0.15627 0 0 0 0.03125 -0.0625 0.15627 0.15627 0 0 0 0 -0.03125v-0.875a0.15627 0.15627 0 0 0 0 -0.03125 0.15627 0.15627 0 0 0 -0.03125 -0.0625 0.15627 0.15627 0 0 0 -0.031 -0.031 0.15627 0.15627 0 0 0 -0.062 -0.031 0.15627 0.15627 0 0 0 -0.03125 0h-2.25a0.15627 0.15627 0 0 0 -0.03125 0 0.15627 0.15627 0 0 0 -0.03125 0h-0.9375a0.15627 0.15627 0 0 0 -0.03125 0 0.15627 0.15627 0 0 0 -0.0625 0.03125 0.15627 0.15627 0 0 0 -0.03125 0.03125 0.15627 0.15627 0 0 0 -0.03125 0.0625 0.15627 0.15627 0 0 0 0 0.03125v0.1875a0.15627 0.15627 0 0 0 0 0.03125 0.15627 0.15627 0 0 0 0.03125 0.0625 0.15627 0.15627 0 0 0 0.03125 0.03125 0.15627 0.15627 0 0 0 0.0625 0.03125 0.15627 0.15627 0 0 0 0.03125 0c0.10446 0.0027 0.1476 0.02206 0.15625 0.03125 0.02343 0.02455 0.02181 0.02164 0.03125 0.0625 0.0094 0.04086 0.03125 0.13924 0.03125 0.28125v0.375l-1.0312-1.1875a0.15627 0.15627 0 0 0 -0.031 -0.031 0.15627 0.15627 0 0 0 -0.0625 -0.03125 0.15627 0.15627 0 0 0 -0.03125 0h-0.8125a0.15627 0.15627 0 0 0 -0.03125 0 0.15627 0.15627 0 0 0 -0.03125 0zm-1.375 0.4375c0.13284 0 0.20425 0.02083 0.28125 0.15625 0.08507 0.15467 0.125 0.46696 0.125 0.8125 0 0.32327-0.05221 0.5521-0.125 0.6875s-0.14073 0.1875-0.28125 0.1875c-0.15115 0-0.24379-0.02865-0.3125-0.15625-0.09568-0.17977-0.15625-0.4554-0.15625-0.78125 0-0.33744 0.06433-0.59589 0.15625-0.75 0.06942-0.1173 0.14602-0.15625 0.3125-0.15625zm11.781 0c0.13284 0 0.20425 0.02083 0.28125 0.15625 0.0911 0.16564 0.15625 0.47603 0.15625 0.8125 0 0.32086-0.04572 0.55144-0.125 0.6875s-0.17198 0.1875-0.3125 0.1875c-0.15115 0-0.24379-0.02865-0.3125-0.15625-0.0899-0.1689-0.125-0.44607-0.125-0.78125 0-0.3465 0.03957-0.60678 0.125-0.75 0.06942-0.1173 0.14602-0.15625 0.3125-0.15625zm-6.5 0.0625c0.03121-0.006 0.09293 0 0.15625 0h0.09375c0.1258 0 0.23168 0.04684 0.3125 0.09375h-0.1875a0.15627 0.15627 0 0 0 -0.03125 0 0.15627 0.15627 0 0 0 -0.0625 0.03125 0.15627 0.15627 0 0 0 -0.03 0.031 0.15627 0.15627 0 0 0 -0.031 0.062c-0.01523 0.12735-0.0444 0.23267-0.09375 0.28125-0.02793 0.0275-0.08492 0.01879-0.125 0.03125v-0.40625c0-0.06637-0.0024-0.10778 0-0.125zm3.5 0c-0.02763 0.02763-0.03942 0 0.03125 0h0.09375c0.1968 0 0.29047 0.03841 0.375 0.15625s0.15625 0.34146 0.15625 0.65625c0 0.33294-0.09217 0.66262-0.15625 0.75-0.06478 0.09285-0.18771 0.15625-0.375 0.15625h-0.09375c-0.01696 0-0.02147 0.000919-0.03125 0 0.01982 0.02442 0 0.01833 0-0.0625v-1.625c0-0.07067 0.02763-0.05888 0-0.03125zm12.875 0c-0.02278 0.01967-0.0055 0 0.09375 0h0.0625c0.13185 0 0.21058 0.02658 0.25 0.0625s0.0625 0.09496 0.0625 0.21875c0 0.14626-0.01848 0.1871-0.0625 0.21875s-0.16552 0.0625-0.375 0.0625h-0.03125v-0.5c0-0.02817-0.0015-0.04853 0-0.0625zm-2.5938 0.75 0.0625 0.1875h-0.15625l0.09375-0.1875zm2.5938 0.3125h0.03125c0.12309 0 0.17698 0.01956 0.1875 0.03125 0.01787 0.02123 0.02778 0.01286 0.03125 0.03125 0.0035 0.01839-0.0068 0.05987 0 0.15625 0.01934 0.21597 0.05096 0.37692 0.0625 0.4375a0.15627 0.15627 0 0 0 -0.03125 0 0.15627 0.15627 0 0 0 -0.03125 0h-0.09375c-0.15524 0-0.1867-0.03383-0.15625 0-0.0019-0.01216 0-0.05182 0-0.15625v-0.5zm-16.375 0.03125c0.04008 0.01246 0.09707 0.0038 0.125 0.03125 0.04935 0.04858 0.07852 0.1539 0.09375 0.28125a0.15627 0.15627 0 0 0 0 0.03125 0.15627 0.15627 0 0 0 0.03125 0.03125 0.15627 0.15627 0 0 0 0.03125 0.03125 0.15627 0.15627 0 0 0 0.0625 0.03125 0.15627 0.15627 0 0 0 0.03125 0h0.1875a0.15627 0.15627 0 0 0 0.03125 0 0.15627 0.15627 0 0 0 0.0625 -0.03125c-0.01698 0.0207-0.01338 0.07731-0.03125 0.09375-0.09746 0.08965-0.20237 0.125-0.375 0.125h-0.09375c-0.06737 0-0.09796 0.000445-0.125 0a0.15627 0.15627 0 0 0 -0.03125 0c-0.000675-0.0019 0-0.0168 0-0.0625v-0.5625z" fill="#536741" id="SVGCleanerId_21"/>
  <path d="m27.062 22-0.65625 1.0938-1.1562-0.5-0.28125 1.2188-1.25-0.09375 0.09375 1.25-1.2188 0.28125 0.5 1.1562l-1.094 0.656 0.844 0.938-0.844 0.938 1.0938 0.65625-0.5 1.1562 1.2188 0.28125-0.09375 1.25 1.25-0.09375 0.28125 1.2188 1.1562-0.5 0.656 1.093 0.938-0.844 0.938 0.844 0.65625-1.0938 1.1562 0.5 0.28125-1.2188 1.25 0.09375-0.09375-1.25 1.2188-0.28125-0.5-1.1562 1.093-0.656-0.844-0.938 0.844-0.938-1.0938-0.65625 0.5-1.1562-1.2188-0.28125 0.09375-1.25-1.25 0.09375-0.28125-1.2188-1.1562 0.5-0.656-1.093-0.938 0.844-0.938-0.844zm0.938 2c2.2091 0 4 1.7909 4 4s-1.7909 4-4 4-4-1.7909-4-4 1.7909-4 4-4z" fill="#546841" color="#000000" id="SVGCleanerId_22" opacity="0.8"/>
  <path d="m67.062 22-0.65625 1.0938-1.1562-0.5-0.28125 1.2188-1.25-0.09375 0.09375 1.25-1.2188 0.28125 0.5 1.1562l-1.094 0.656 0.844 0.938-0.844 0.938 1.0938 0.65625-0.5 1.1562 1.2188 0.28125-0.09375 1.25 1.25-0.09375 0.28125 1.2188 1.1562-0.5 0.656 1.093 0.938-0.844 0.938 0.844 0.65625-1.0938 1.1562 0.5 0.28125-1.2188 1.25 0.09375-0.09375-1.25 1.2188-0.28125-0.5-1.1562 1.093-0.656-0.844-0.938 0.844-0.938-1.0938-0.65625 0.5-1.1562-1.2188-0.28125 0.09375-1.25-1.25 0.09375-0.28125-1.2188-1.1562 0.5-0.656-1.093-0.938 0.844-0.938-0.844zm0.938 3c1.6569 0 3 1.3431 3 3s-1.3431 3-3 3-3-1.3431-3-3 1.3431-3 3-3z" fill="#2ca02c" color="#000000" id="SVGCleanerId_23" opacity="0.8"/>
  <path d="m72 28a4 4 0 1 1 -8 0 4 4 0 1 1 8 0z" fill="#3fa93f" color="#000000" id="SVGCleanerId_24" opacity="0.6"/>
  <path d="m68 24c-2.2091 0-4 1.7909-4 4s1.7909 4 4 4 4-1.7909 4-4-1.7909-4-4-4zm0 1c1.6569 0 3 1.3431 3 3s-1.3431 3-3 3-3-1.3431-3-3 1.3431-3 3-3z" fill="#afe9af" color="#000000" id="SVGCleanerId_25" opacity="0.75"/>
  <path d="m34.81 19.661h-7.14v0.564h0.216c0.972 0 1.08 0.06 1.08 0.564v0.348 5.712 0.348c0 0.504-0.108 0.564-1.08 0.564h-0.216v0.564h4.116v-0.564h-0.396c-0.972 0-1.08-0.06-1.08-0.564v-0.348-2.724h0.24c0.744 0 1.032 0.072 1.284 0.324 0.3 0.312 0.42 0.696 0.444 1.404h0.564v-3.936h-0.564c-0.06 1.176-0.54 1.644-1.68 1.644h-0.288v-2.736c0-0.516 0.108-0.6 0.756-0.6h0.552c1.98 0 2.496 0.456 2.832 2.508h0.528l-0.168-3.072" fill="#637551" id="SVGCleanerId_26" opacity="0.8"/>
  <path d="m72 72a8 8 0 1 1 -16 0 8 8 0 1 1 16 0z" color="#000000" id="SVGCleanerId_27"/>
  <path d="m58.094 55.062c-0.03324 0.54768-0.07947 1.0656-0.1875 2.25-0.18283 0.15061-0.21875 0.20296-0.21875 0.3125 0 0.14377 0.13799 0.25 0.3125 0.25 0.18283 0 0.34375-0.13064 0.34375-0.28125 0-0.02738-0.02294-0.08392-0.03125-0.125 0.24931-0.17115 0.59678-0.25 0.9375-0.25 0.62327 0 0.9375 0.38563 0.9375 1.125 0 0.82837-0.36643 1.2812-1.0312 1.2812-0.37396 0-0.71875-0.16873-0.71875-0.3125 0-0.04108 0.01896-0.05953 0.09375-0.09375 0.3241-0.13007 0.4375-0.26723 0.4375-0.5 0-0.33546-0.26368-0.53125-0.6875-0.53125-0.48199 0-0.8125 0.26305-0.8125 0.6875 0 0.6846 0.75944 1.125 1.9062 1.125 1.3629 0 2.2812-0.68113 2.2812-1.6875 0-0.88999-0.86582-1.5625-2.0625-1.5625-0.39058 0-0.63902 0.04462-1.1875 0.25l0.125-0.875c0.39058 0.06846 0.70715 0.125 1.0312 0.125 0.68975 0 1.2467-0.19579 1.5625-0.53125 0.1579-0.17115 0.28125-0.44314 0.28125-0.59375 0-0.04108-0.02095-0.0625-0.0625-0.0625-0.03324 0-0.07515-0.01374-0.125 0-0.27424 0.05477-0.8518 0.125-1.5 0.125-0.68975 0-1.1098-0.036-1.625-0.125zm6.2812 0c-1.2465 0-2.1562 1.0448-2.1562 2.4688s0.90971 2.4688 2.1562 2.4688c1.2216 0 2.1562-1.0478 2.1562-2.4375 0-0.80783-0.22845-1.3996-0.71875-1.9062-0.39-0.39-0.88-0.594-1.437-0.594zm0 0.34375c0.24931 0 0.43984 0.12468 0.53125 0.34375 0.10803 0.22592 0.1875 0.95972 0.1875 1.7812 0 0.6983-0.08146 1.4547-0.15625 1.6875-0.09141 0.27384-0.27995 0.4375-0.5625 0.4375-0.25762 0-0.46278-0.12468-0.5625-0.34375-0.09972-0.22592-0.15625-0.97342-0.15625-1.7812 0-0.6983 0.05021-1.4547 0.125-1.6875 0.09141-0.27384 0.30289-0.4375 0.59375-0.4375z" fill="#917428" id="SVGCleanerId_28" opacity="0.5"/>
  <path d="m61.188 55.625c-0.02241 0.03042-0.03812 0.06732-0.0625 0.09375-0.31579 0.33546-0.87275 0.53125-1.5625 0.53125-0.3241 0-0.64067-0.05654-1.0312-0.125l-0.126 0.875c0.04-0.015 0.057-0.018 0.094-0.031l0.03125-0.28125c0.26824 0.04702 0.49391 0.07243 0.71875 0.09375 0.11124-0.01318 0.21778-0.03125 0.34375-0.03125 0.14958 0 0.2993 0.01112 0.4375 0.03125 0.0097-0.0014 0.02165 0.0015 0.03125 0 0.46244-0.07079 0.82566-0.24841 1.0625-0.5 0.1579-0.17115 0.28125-0.44314 0.28125-0.59375 0-0.04108-0.02095-0.0625-0.0625-0.0625-0.03324 0-0.07515-0.01374-0.125 0-0.0067 0.0013-0.02419-0.0014-0.03125 0zm3.1875 0c-0.18963 0-0.35923 0.04774-0.53125 0.09375-0.02172 0.03927-0.04727 0.07936-0.0625 0.125-0.07479 0.23276-0.125 0.9892-0.125 1.6875 0 0.10378-0.0018 0.18044 0 0.28125 0.01141-0.60752 0.0604-1.2052 0.125-1.4062 0.09141-0.27384 0.30289-0.4375 0.59375-0.4375 0.24931 0 0.43984 0.12468 0.53125 0.34375 0.09448 0.19759 0.13952 0.8065 0.15625 1.5 0.0028-0.0962 0.03125-0.18574 0.03125-0.28125 0-0.82153-0.07947-1.5553-0.1875-1.7812-0.0087-0.02094-0.02074-0.04331-0.03125-0.0625-0.15997-0.03924-0.326-0.0625-0.5-0.0625zm-4.7812 1.6875c-0.39058 0-0.63902 0.04462-1.1875 0.25l0.03125-0.15625c-0.04042 0.02116-0.08846 0.03742-0.125 0.0625 0.0083 0.04108 0.03125 0.09762 0.03125 0.125 0 0.15061-0.16092 0.28125-0.34375 0.28125-0.03787 0-0.06036-0.02195-0.09375-0.03125-0.0015 0.01608 0.0015 0.01491 0 0.03125-0.18283 0.15061-0.21875 0.20296-0.21875 0.3125 0 0.05751 0.02484 0.11515 0.0625 0.15625 0.13789-0.09219 0.32038-0.15625 0.53125-0.15625 0.02326 0 0.04022-0.0012 0.0625 0 0.0018-0.01102 0-0.01995 0-0.03125 0-0.02738-0.02294-0.08392-0.03125-0.125 0.24931-0.17115 0.59678-0.25 0.9375-0.25 0.54536 0 0.83758 0.30587 0.90625 0.875 0.01392-0.10025 0.03125-0.19759 0.03125-0.3125 0-0.51898-0.1609-0.87187-0.46875-1.0312-0.04166-0.0017-0.08248 0-0.125 0zm2.6562 0.5c-0.0088 0.09642-0.03125 0.18082-0.03125 0.28125 0 1.424 0.90971 2.4688 2.1562 2.4688 1.2216 0 2.1562-1.0478 2.1562-2.4375 0-0.11248-0.0223-0.20805-0.03125-0.3125-0.09087 1.0645-0.73436 1.8645-1.625 2.0938-0.10308 0.19636-0.26454 0.3125-0.5 0.3125-0.24246 0-0.42589-0.11686-0.53125-0.3125-0.88-0.235-1.497-1.031-1.595-2.094zm-0.625 0.875c-0.1701 0.70394-0.84796 1.1704-1.8125 1.2812-0.16646 0.14165-0.3887 0.21875-0.65625 0.21875-0.37396 0-0.71875-0.16873-0.71875-0.3125 0-0.01369 0.02567-0.02116 0.03125-0.03125-0.46734-0.13353-0.81171-0.33588-0.9375-0.65625-0.03103 0.07761-0.0625 0.15512-0.0625 0.25 0 0.6846 0.75944 1.125 1.9062 1.125 1.3629 0 2.2812-0.68113 2.2812-1.6875 0-0.06719-0.02161-0.12298-0.03125-0.1875zm-2.751 0.313c-0.06886 0.07964-0.1817 0.15371-0.34375 0.21875-0.07479 0.03422-0.09375 0.05267-0.09375 0.09375 0 0.10308 0.16809 0.2239 0.40625 0.28125 0.01097 0.0026 0.02004-0.0024 0.03125 0 0.07519-0.08184 0.09375-0.19132 0.09375-0.3125 0-0.1125-0.03834-0.20228-0.09375-0.28125z" fill="#fff" id="SVGCleanerId_29" opacity="0.3"/>
  <path d="m28.481 12.06v0.21542h0.05984c0.20745 0 0.29122 0.01596 0.32713 0.05585 0.02793 0.0359 0.02793 0.04787 0.02793 0.30319v1.7314c0 0.25133 0 0.26729-0.02793 0.2992-0.0359 0.04388-0.11968 0.05984-0.32713 0.05984h-0.05984v0.21543h1.6157c0.41489 0 0.62633-0.03191 0.82979-0.11968 0.25532-0.11569 0.42287-0.36702 0.42287-0.63431 0-0.27926-0.15958-0.50665-0.45479-0.6383-0.13564-0.06383-0.25532-0.09574-0.46277-0.12367 0.19548-0.03191 0.30718-0.05984 0.41888-0.1117 0.23936-0.11569 0.36702-0.30718 0.36702-0.54654 0-0.22739-0.11968-0.43883-0.31516-0.54654-0.22-0.126-0.407-0.158-0.882-0.158h-1.5399m1.133 1.2926v-0.84574c0-0.11569 0.008-0.14761 0.04787-0.17952 0.03989-0.0359 0.09973-0.05186 0.17553-0.05186h0.11968c0.35106 0 0.53856 0.17553 0.53856 0.50665 0 0.19548-0.06782 0.35106-0.19548 0.4508-0.10771 0.08777-0.24335 0.11968-0.49069 0.11968h-0.19548m0 0.21942h0.27527c0.25133 0 0.36702 0.02394 0.47872 0.09574 0.13564 0.09176 0.21942 0.26729 0.21942 0.47473 0 0.19149-0.07181 0.36702-0.1875 0.46277-0.09973 0.08378-0.23138 0.11968-0.42287 0.11968h-0.11968c-0.13963 0-0.20745-0.02394-0.23138-0.07979-0.01197-0.03191-0.01197-0.04388-0.01197-0.17553v-0.89761" id="SVGCleanerId_30"/>
  <path d="m32.914 12-0.90558 2.1144c-0.18351 0.43085-0.33112 0.58644-0.56649 0.61037v0.21543h1.1529v-0.21543c-0.28723-0.01596-0.39894-0.09175-0.39894-0.27527 0-0.06782 0.01197-0.1117 0.06383-0.22739l0.06383-0.1516h0.99335l0.1516 0.39096c0.03191 0.07181 0.04787 0.13165 0.04787 0.16356 0 0.07181-0.05186 0.09575-0.23138 0.09575l-0.06782 0.004v0.21543h1.4003v-0.21543c-0.22739-0.008-0.29122-0.04787-0.375-0.25133l-1.025-2.472h-0.304m-0.08378 0.84973 0.38697 0.95346h-0.78989l0.40293-0.95346" id="SVGCleanerId_31"/>
  <path d="m35.622 12.06h-1.0053v0.21942c0.17952 0.004 0.32314 0.07979 0.42287 0.2234v1.5718c0 0.35106-0.01995 0.4508-0.10372 0.53856-0.06383 0.06782-0.15559 0.09973-0.32713 0.10771v0.21542h1.137v-0.21542c-0.17154-0.008-0.27128-0.03989-0.33511-0.10771-0.08378-0.08777-0.10372-0.1875-0.10372-0.53856v-1.3125l1.8551 2.2061h0.26729v-2.0426c0-0.35505 0.01995-0.45479 0.10372-0.54255 0.06383-0.06782 0.17553-0.10372 0.33511-0.10771v-0.21542h-1.137v0.21542c0.15558 0.004 0.2633 0.03989 0.32713 0.10771 0.08378 0.08777 0.10372 0.19149 0.10372 0.54255v0.9375l-1.5399-1.8032" id="SVGCleanerId_32"/>
  <path d="m39.4 13.592 0.55851 0.91356c0.03192 0.05585 0.04787 0.09176 0.04787 0.12766 0 0.06383-0.08777 0.09175-0.27128 0.09175h-0.05186v0.21543h1.4521v-0.21543c-0.21942-0.01197-0.23537-0.01995-0.41888-0.30718l-0.82979-1.3245 0.33112-0.34707c0.34707-0.3391 0.54654-0.45479 0.80984-0.47074v-0.21542h-1.3444v0.21542h0.09575c0.19548 0 0.2992 0.04787 0.2992 0.13963 0 0.04388-0.05984 0.13963-0.13165 0.21942l-0.88165 0.93351v-0.93351c0-0.25133 0-0.26729 0.02793-0.2992 0.0359-0.04388 0.12367-0.05984 0.33112-0.05984h0.05984v-0.21542h-1.5519v0.21542h0.05984c0.20745 0 0.29122 0.01596 0.32713 0.05984 0.02793 0.03191 0.02793 0.04787 0.02793 0.2992v1.7314c0 0.25133 0 0.26729-0.02793 0.2992-0.0359 0.04388-0.11968 0.05984-0.32713 0.05984h-0.05984v0.21543h1.5519v-0.21543h-0.05984c-0.20745 0-0.29521-0.01596-0.33112-0.05984-0.02793-0.03191-0.02793-0.04787-0.02793-0.2992v-0.42287l0.33511-0.35106" id="SVGCleanerId_33"/>
  <path d="m43.93 12c-0.38697 0-0.7141 0.1117-0.9734 0.3391-0.33511 0.28723-0.53457 0.73803-0.53457 1.2048 0 0.84574 0.62234 1.4561 1.488 1.4561 0.40691 0 0.72207-0.09973 0.98936-0.31117 0.34308-0.27527 0.53458-0.68218 0.53458-1.1489 0-0.46277-0.20346-0.91755-0.53458-1.2008-0.267-0.231-0.578-0.339-0.969-0.339m0.004 0.20745c0.21542 0 0.38298 0.10372 0.49867 0.30718 0.13165 0.23936 0.20346 0.5984 0.20346 1.0293 0 0.80984-0.24734 1.2487-0.70213 1.2487-0.23138 0-0.39894-0.09973-0.51064-0.30718-0.13165-0.24734-0.20346-0.5984-0.20346-1.0173 0-0.43085 0.06782-0.75 0.20346-0.97739 0.11569-0.19548 0.27527-0.28324 0.51064-0.28324" id="SVGCleanerId_34"/>
  <path d="m48.323 12.06h-2.641v0.21542h0.05984c0.20745 0 0.29122 0.01596 0.32713 0.05984 0.02792 0.03191 0.02792 0.04787 0.02792 0.2992v1.7314c0 0.25133 0 0.26729-0.02792 0.2992-0.0359 0.04388-0.11968 0.05984-0.32713 0.05984h-0.05984v0.21543h1.5957v-0.21543h-0.10372c-0.21144 0-0.29521-0.01596-0.33112-0.05984-0.02793-0.03191-0.02793-0.04787-0.02793-0.2992v-0.80585h0.06782c0.31516 0 0.50665 0.19947 0.55053 0.56649h0.21542v-1.3524h-0.21542c-0.04388 0.37101-0.23537 0.56649-0.55053 0.56649h-0.06782v-0.72208c0-0.16356 0.008-0.20745 0.03989-0.25532 0.04388-0.05984 0.13963-0.08777 0.30319-0.08777h0.0758c0.29521 0 0.53856 0.10771 0.6742 0.29521 0.08378 0.11569 0.17154 0.31516 0.23138 0.5266h0.20745l-0.02394-1.0372" id="SVGCleanerId_35"/>
  <path d="m52.351 12.06h-2.641v0.21542h0.05984c0.20745 0 0.29122 0.01596 0.32713 0.05984 0.02793 0.03191 0.02793 0.04787 0.02793 0.2992v1.7314c0 0.25133 0 0.26729-0.02793 0.2992-0.0359 0.04388-0.11968 0.05984-0.32713 0.05984h-0.05984v0.21543h1.5957v-0.21543h-0.10372c-0.21144 0-0.29521-0.01596-0.33112-0.05984-0.02793-0.03191-0.02793-0.04787-0.02793-0.2992v-0.80585h0.06782c0.31516 0 0.50665 0.19947 0.55053 0.56649h0.21543v-1.3524h-0.21543c-0.04388 0.37101-0.23537 0.56649-0.55053 0.56649h-0.06782v-0.72208c0-0.16356 0.008-0.20745 0.03989-0.25532 0.04388-0.05984 0.13963-0.08777 0.30319-0.08777h0.0758c0.29521 0 0.53856 0.10771 0.6742 0.29521 0.08378 0.11569 0.17154 0.31516 0.23138 0.5266h0.20745l-0.02394-1.0372" id="SVGCleanerId_36"/>
  <path d="m53.905 12-0.90558 2.1144c-0.18351 0.43085-0.33112 0.58644-0.56649 0.61037v0.21543h1.1529v-0.21543c-0.28723-0.01596-0.39894-0.09175-0.39894-0.27527 0-0.06782 0.01197-0.1117 0.06383-0.22739l0.06383-0.1516h0.99335l0.1516 0.39096c0.03191 0.07181 0.04787 0.13165 0.04787 0.16356 0 0.07181-0.05186 0.09575-0.23138 0.09575l-0.06782 0.004v0.21543h1.4003v-0.21543c-0.22739-0.008-0.29122-0.04787-0.375-0.25133l-1.024-2.472h-0.304m-0.08378 0.84973 0.38697 0.95346h-0.78989l0.40292-0.95346" id="SVGCleanerId_37"/>
  <path d="m58.277 12.06h-2.6769v0.21542h0.05984c0.20745 0 0.29122 0.01596 0.32713 0.05984 0.02793 0.03191 0.02793 0.04787 0.02793 0.2992v1.7314c0 0.25133 0 0.26729-0.02793 0.2992-0.0359 0.04388-0.11968 0.05984-0.32713 0.05984h-0.05984v0.21543h2.7088l0.04787-1.0731h-0.21144c-0.16755 0.5984-0.4508 0.85771-0.93351 0.85771h-0.11968c-0.19548 0-0.24734-0.008-0.29521-0.05585-0.05186-0.04787-0.06383-0.09175-0.06383-0.2234v-0.88564h0.06782c0.31117 0 0.50665 0.19947 0.55053 0.56649h0.21543v-1.3524h-0.21543c-0.04388 0.36702-0.23936 0.56649-0.55053 0.56649h-0.06782v-0.72208c0-0.16356 0.008-0.20745 0.03989-0.25532 0.04388-0.05984 0.13963-0.08777 0.30319-0.08777h0.1117c0.29521 0 0.53856 0.10771 0.6742 0.29521 0.08378 0.11968 0.17154 0.31915 0.23138 0.5266h0.20745l-0.02394-1.0372" id="SVGCleanerId_38"/>
  <path d="m59.644 12.06h-1.0053v0.21942c0.17952 0.004 0.32314 0.07979 0.42287 0.2234v1.5718c0 0.35106-0.01995 0.4508-0.10372 0.53856-0.06383 0.06782-0.15558 0.09973-0.32713 0.10771v0.21542h1.137v-0.21542c-0.17154-0.008-0.27128-0.03989-0.33511-0.10771-0.08378-0.08777-0.10372-0.1875-0.10372-0.53856v-1.3125l1.8551 2.2061h0.26729v-2.0426c0-0.35505 0.01995-0.45479 0.10372-0.54255 0.06383-0.06782 0.17553-0.10372 0.33511-0.10771v-0.21542h-1.137v0.21542c0.15558 0.004 0.2633 0.03989 0.32713 0.10771 0.08378 0.08777 0.10372 0.19149 0.10372 0.54255v0.9375l-1.5399-1.8032" id="SVGCleanerId_39"/>
  <path d="m64.423 12.06h-2.2859l-0.04787 1.0053h0.20346c0.06782-0.21543 0.12766-0.34308 0.21542-0.46277 0.17553-0.24734 0.36303-0.32314 0.7859-0.32314h0.29521l-1.5997 2.4295v0.23138h2.3697l0.06383-1.1011h-0.21144c-0.07181 0.38298-0.25931 0.6742-0.51463 0.80186-0.12367 0.06383-0.23537 0.07979-0.51862 0.07979h-0.35505l1.5997-2.4375v-0.2234" id="SVGCleanerId_40"/>
  <path d="m65.959 12-0.90558 2.1144c-0.18351 0.43085-0.33112 0.58644-0.56649 0.61037v0.21543h1.1529v-0.21543c-0.28723-0.01596-0.39894-0.09175-0.39894-0.27527 0-0.06782 0.01197-0.1117 0.06383-0.22739l0.06383-0.1516h0.99335l0.1516 0.39096c0.03191 0.07181 0.04787 0.13165 0.04787 0.16356 0 0.07181-0.05186 0.09575-0.23138 0.09575l-0.06782 0.004v0.21543h1.4003v-0.21543c-0.22739-0.008-0.29122-0.04787-0.375-0.25133l-1.025-2.472h-0.303m-0.08378 0.84973 0.38697 0.95346h-0.78989l0.40293-0.95346" id="SVGCleanerId_41"/>
  <path d="m37.013 41.75c-0.32247 0-0.59508 0.09309-0.81117 0.28258-0.27926 0.23936-0.44548 0.61503-0.44548 1.004 0 0.70479 0.51862 1.2134 1.24 1.2134 0.3391 0 0.60173-0.08311 0.82447-0.25931 0.2859-0.22939 0.44548-0.56848 0.44548-0.95745 0-0.38564-0.16955-0.76463-0.44548-1.0007-0.22274-0.19282-0.48205-0.28258-0.80785-0.28258m0.0033 0.17287c0.17952 0 0.31915 0.08644 0.41556 0.25598 0.10971 0.19947 0.16955 0.49867 0.16955 0.85771 0 0.67487-0.20612 1.0406-0.58511 1.0406-0.19282 0-0.33245-0.08311-0.42553-0.25598-0.10971-0.20612-0.16955-0.49867-0.16955-0.84774 0-0.35904 0.05652-0.625 0.16955-0.8145 0.09641-0.1629 0.22939-0.23604 0.42553-0.23604" id="SVGCleanerId_42"/>
  <path d="m39.297 41.8h-0.83777v0.18285c0.1496 0.0033 0.26928 0.06649 0.35239 0.18617v1.3098c0 0.29255-0.01662 0.37566-0.08644 0.4488-0.05319 0.05652-0.12966 0.08311-0.27261 0.08976v0.17952h0.94747v-0.17952c-0.14295-0.0066-0.22606-0.03325-0.27926-0.08976-0.06981-0.07314-0.08644-0.15625-0.08644-0.4488v-1.0938l1.5459 1.8384h0.22274v-1.7021c0-0.29588 0.01662-0.37899 0.08644-0.45213 0.05319-0.05652 0.14628-0.08644 0.27926-0.08976v-0.17952h-0.94747v0.17952c0.12965 0.0033 0.21942 0.03324 0.27261 0.08976 0.06981 0.07314 0.08644 0.15958 0.08644 0.45213v0.78125l-1.2832-1.5027" id="SVGCleanerId_43"/>
  <path d="m43.456 41.8h-2.2307v0.17952h0.04987c0.17287 0 0.24269 0.0133 0.27261 0.04987 0.02327 0.0266 0.02327 0.03989 0.02327 0.24934v1.4428c0 0.20944 0 0.22274-0.02327 0.24934-0.02992 0.03657-0.09973 0.04987-0.27261 0.04987h-0.04987v0.17952h2.2573l0.03989-0.89428h-0.1762c-0.13963 0.49867-0.37567 0.71476-0.77793 0.71476h-0.09973c-0.1629 0-0.20612-0.0066-0.24601-0.04654-0.04322-0.03989-0.05319-0.07646-0.05319-0.18617v-0.73803h0.05652c0.25931 0 0.42221 0.16622 0.45878 0.47208h0.17952v-1.127h-0.17952c-0.03657 0.30585-0.19947 0.47208-0.45878 0.47208h-0.05652v-0.60173c0-0.1363 0.0066-0.17287 0.03325-0.21277 0.03657-0.04987 0.11636-0.07314 0.25266-0.07314h0.09309c0.24601 0 0.4488 0.08976 0.56184 0.24601 0.06981 0.09973 0.14295 0.26596 0.19282 0.43883h0.17287l-0.01995-0.86436" id="SVGCleanerId_44"/>
  <path d="m45.061 43.721c0 0.20944 0 0.22274-0.02327 0.24934-0.02992 0.03657-0.09973 0.04987-0.27261 0.04987h-0.04987v0.17952h1.2234c0.41888 0 0.68484-0.05984 0.89096-0.20279 0.29588-0.20612 0.45878-0.56848 0.45878-1.0239 0-0.44548-0.1629-0.79122-0.4754-0.99402-0.19947-0.13298-0.44548-0.17952-0.91423-0.17952h-1.1835v0.17952h0.04987c0.17287 0 0.24269 0.0133 0.27261 0.04987 0.02327 0.0266 0.02327 0.03989 0.02327 0.24934v1.4428m0.79787 0.2992c-0.1629 0-0.19947-0.03989-0.19947-0.21609v-1.6257c0-0.15958 0.03989-0.19947 0.19947-0.19947h0.08311c0.4621 0 0.68484 0.32247 0.68484 0.98737 0 0.35572-0.06981 0.67819-0.17952 0.82779-0.09973 0.14295-0.29588 0.22606-0.51862 0.22606h-0.06981" id="SVGCleanerId_45"/>
  <path d="m48.811 41.75c-0.32247 0-0.59508 0.09309-0.81117 0.28258-0.27926 0.23936-0.44548 0.61503-0.44548 1.004 0 0.70479 0.51862 1.2134 1.24 1.2134 0.3391 0 0.60173-0.08311 0.82447-0.25931 0.2859-0.22939 0.44548-0.56848 0.44548-0.95745 0-0.38564-0.16955-0.76463-0.44548-1.0007-0.22274-0.19282-0.48205-0.28258-0.80785-0.28258m0.0033 0.17287c0.17952 0 0.31915 0.08644 0.41556 0.25598 0.10971 0.19947 0.16955 0.49867 0.16955 0.85771 0 0.67487-0.20612 1.0406-0.58511 1.0406-0.19282 0-0.33245-0.08311-0.42553-0.25598-0.10971-0.20612-0.16955-0.49867-0.16955-0.84774 0-0.35904 0.05652-0.625 0.16955-0.8145 0.09641-0.1629 0.22939-0.23604 0.42553-0.23604" id="SVGCleanerId_46"/>
  <path d="m52.351 43.306c-0.06649 0.22939-0.12633 0.35572-0.21609 0.46543-0.1363 0.1629-0.3258 0.24934-0.56184 0.24934h-0.06981c-0.1629 0-0.20612-0.0066-0.24601-0.04654-0.04322-0.03989-0.05319-0.07646-0.05319-0.18617v-1.5093c0-0.20944 0-0.22274 0.02327-0.24934 0.02992-0.03657 0.09973-0.04987 0.27593-0.04987h0.07314v-0.17952h-1.3165v0.17952h0.04987c0.17287 0 0.24269 0.0133 0.27261 0.04987 0.02327 0.0266 0.02327 0.03989 0.02327 0.24934v1.4395c0 0.21277 0 0.22606-0.02327 0.25266-0.02992 0.03657-0.09973 0.04987-0.27261 0.04987h-0.04987v0.17952h2.2274l0.03989-0.89428h-0.1762" id="SVGCleanerId_47"/>
  <path d="m54.754 43.306c-0.06649 0.22939-0.12633 0.35572-0.21609 0.46543-0.1363 0.1629-0.3258 0.24934-0.56184 0.24934h-0.06981c-0.1629 0-0.20612-0.0066-0.24601-0.04654-0.04322-0.03989-0.05319-0.07646-0.05319-0.18617v-1.5093c0-0.20944 0-0.22274 0.02327-0.24934 0.02992-0.03657 0.09973-0.04987 0.27593-0.04987h0.07314v-0.17952h-1.3165v0.17952h0.04987c0.17287 0 0.24269 0.0133 0.27261 0.04987 0.02327 0.0266 0.02327 0.03989 0.02327 0.24934v1.4395c0 0.21277 0 0.22606-0.02327 0.25266-0.02992 0.03657-0.09973 0.04987-0.27261 0.04987h-0.04987v0.17952h2.2274l0.03989-0.89428h-0.1762" id="SVGCleanerId_48"/>
  <path d="m56.169 41.75-0.75466 1.762c-0.15292 0.35904-0.27593 0.4887-0.47207 0.50864v0.17952h0.96077v-0.17952c-0.23936-0.0133-0.33245-0.07646-0.33245-0.22939 0-0.05652 0.01-0.09309 0.05319-0.1895l0.05319-0.12633h0.82779l0.12633 0.3258c0.0266 0.05984 0.03989 0.10971 0.03989 0.1363 0 0.05984-0.04322 0.07979-0.19282 0.07979l-0.05652 0.0033v0.17952h1.1669v-0.17952c-0.1895-0.0066-0.24269-0.03989-0.3125-0.20944l-0.85439-2.0612h-0.25266m-0.06981 0.70811 0.32247 0.79455h-0.65824l0.33577-0.79455" id="SVGCleanerId_49"/>
  <path d="m58.538 43.047h0.18617c0.14295 0 0.23604 0.03325 0.29588 0.09973 0.05319 0.06316 0.06649 0.10306 0.07979 0.29255 0.01995 0.22274 0.03657 0.36237 0.04654 0.41556 0.05652 0.25931 0.24269 0.39561 0.53192 0.39561 0.35904 0 0.56516-0.20279 0.56516-0.55519v-0.03989h-0.17952c-0.0033 0.20944-0.05319 0.31582-0.15293 0.31582-0.03657 0-0.07646-0.01995-0.09641-0.04987-0.01995-0.0266-0.02327-0.04987-0.03989-0.15625 0-0.0133-0.0066-0.04654-0.0133-0.09309l-0.02327-0.12633c-0.04987-0.2992-0.1762-0.4488-0.46543-0.54521 0.1762-0.03324 0.26263-0.05652 0.34574-0.09641 0.20279-0.10306 0.31915-0.2859 0.31915-0.502 0-0.19947-0.09641-0.36902-0.26928-0.48205-0.12633-0.07979-0.34907-0.11968-0.65492-0.11968h-1.4195v0.17952h0.04987c0.17287 0 0.24269 0.0133 0.27261 0.04654 0.02327 0.02992 0.02327 0.03989 0.02327 0.25266v1.4395c0 0.21277 0 0.22274-0.02327 0.25266-0.02992 0.03325-0.09973 0.04654-0.27261 0.04654h-0.04987v0.17952h1.3298v-0.17952h-0.08644c-0.17287 0-0.24601-0.0133-0.27593-0.04654-0.02327-0.02992-0.02327-0.03989-0.02327-0.25266v-0.67154m0-0.18285v-0.67154c0-0.1895 0.02327-0.21277 0.23604-0.21277h0.07979c0.30918 0 0.4488 0.1363 0.4488 0.43883 0 0.3391-0.13963 0.44548-0.58178 0.44548h-0.18284" id="SVGCleanerId_50"/>
  <path d="m64 66c-3.6277 0-6.676 2.104-7.6562 5h-0.344v2c0 3.866 3.5817 7 8 7s8-3.134 8-7v-2h-0.34375c-0.98-2.896-4.028-5-7.656-5z" fill="url(#linearGradient4874)" color="#000000" id="SVGCleanerId_51"/>
  <path d="m64 64c-4.4183 0-8 3.134-8 7s3.5817 7 8 7 8-3.134 8-7-3.5817-7-8-7zm-0.71875 1c0.23146-0.02049 0.48098 0 0.71875 0 3.8042 0 6.875 2.6713 6.875 6s-3.0708 6-6.875 6-6.875-2.6713-6.875-6c0-3.1207 2.6843-5.6926 6.1562-6z" fill="url(#linearGradient4863)" color="#000000" id="SVGCleanerId_52" opacity="0.5"/>
  <path d="m57.094 70.625c-0.0086 0.12426-0.03125 0.2488-0.03125 0.375 0 3.3597 3.0978 6.0625 6.9375 6.0625s6.9375-2.7028 6.9375-6.0625c0-0.1262-0.02263-0.25074-0.03125-0.375-0.3544 3.0661-3.3066 5.4375-6.9062 5.4375-3.5997 0-6.5518-2.3714-6.9062-5.4375z" fill="#fff" color="#000000" id="SVGCleanerId_53" opacity="0.4"/>
 </defs>
 <path d="m12-95.031c-5.5111 0-10.031 4.5202-10.031 10.031v71c0 5.5111 4.5202 10.031 10.031 10.031h72c5.5111 0 10.031-4.5202 10.031-10.031v-71c0-5.5111-4.5202-10.031-10.031-10.031h-72z" fill="url(#linearGradient3780)" opacity="0.08" transform="matrix(1 0 0 -1 0 0)"/>
 <path d="m12-94.031c-4.9716 0-9.0312 4.0596-9.0312 9.0312v71c0 4.9716 4.0596 9.0312 9.0312 9.0312h72c4.9716 0 9.0312-4.0596 9.0312-9.0312v-71c0-4.9716-4.0596-9.0312-9.0312-9.0312h-72z" fill="url(#linearGradient3780)" opacity="0.1" transform="matrix(1 0 0 -1 0 0)"/>
 <path d="m12-93c-4.4091 0-8 3.5909-8 8v71c0 4.4091 3.5909 8 8 8h72c4.4091 0 8-3.5909 8-8v-71c0-4.4091-3.5909-8-8-8h-72z" fill="url(#linearGradient3780)" opacity="0.2" transform="matrix(1 0 0 -1 0 0)"/>
 <rect x="5" rx="7" y="-92" fill="url(#linearGradient3780)" height="85" opacity="0.3" width="86" transform="matrix(1 0 0 -1 0 0)"/>
 <rect x="6" rx="6" y="-91" fill="url(#linearGradient3721)" height="84" opacity="0.45" width="84" transform="matrix(1 0 0 -1 0 0)"/>
 <use xlink:href="#SVGCleanerId_0"/>
 <rect x="6" rx="6" y="6" fill="url(#linearGradient4383)" height="42" width="84"/>
 <path d="m6 40v44c0 3.324 2.676 6 6 6h20v-50h-26z" fill="url(#linearGradient4756)" opacity="0.8"/>
 <path d="m90 40v44c0 3.324-2.676 6-6 6h-20v-50h26z" fill="url(#linearGradient4763)" opacity="0.4"/>
 <use xlink:href="#SVGCleanerId_1"/>
 <use xlink:href="#SVGCleanerId_2"/>
 <use xlink:href="#SVGCleanerId_3"/>
 <use xlink:href="#SVGCleanerId_4"/>
 <use xlink:href="#SVGCleanerId_5"/>
 <use xlink:href="#SVGCleanerId_6"/>
 <use xlink:href="#SVGCleanerId_7"/>
 <use xlink:href="#SVGCleanerId_8" transform="matrix(1.4286 0 0 1.1667 -4.286 -1.667)"/>
 <use xlink:href="#SVGCleanerId_9" transform="matrix(1.1767 0 0 1.6893 -2.651 -11.719)"/>
 <use xlink:href="#SVGCleanerId_10"/>
 <use xlink:href="#SVGCleanerId_11"/>
 <use xlink:href="#SVGCleanerId_12"/>
 <use xlink:href="#SVGCleanerId_13" transform="matrix(1 0 0 1 0 1)"/>
 <use xlink:href="#SVGCleanerId_10" transform="matrix(0.60347 0 0 0.60347 4.455 28.434)"/>
 <use xlink:href="#SVGCleanerId_14"/>
 <use xlink:href="#SVGCleanerId_15"/>
 <g transform="matrix(1 0 0 1 66 0)">
  <use xlink:href="#SVGCleanerId_8" transform="matrix(1.4286 0 0 1.1667 -4.286 -1.667)"/>
  <use xlink:href="#SVGCleanerId_9" transform="matrix(1.1767 0 0 1.6893 -2.651 -11.719)"/>
  <use xlink:href="#SVGCleanerId_10"/>
  <use xlink:href="#SVGCleanerId_11"/>
  <use xlink:href="#SVGCleanerId_12"/>
 </g>
 <g transform="matrix(1 0 0 1 69 0)">
  <use xlink:href="#SVGCleanerId_13" transform="matrix(1 0 0 1 0 1)"/>
  <use xlink:href="#SVGCleanerId_10" transform="matrix(0.60347 0 0 0.60347 4.455 28.434)"/>
  <use xlink:href="#SVGCleanerId_14"/>
  <use xlink:href="#SVGCleanerId_15"/>
 </g>
 <use xlink:href="#SVGCleanerId_16"/>
 <use xlink:href="#SVGCleanerId_17"/>
 <use xlink:href="#SVGCleanerId_18"/>
 <use xlink:href="#SVGCleanerId_19" transform="matrix(1.25 0 0 1.0833 -12 -0.333)"/>
 <use xlink:href="#SVGCleanerId_20"/>
 <g fill="#536741">
  <use xlink:href="#SVGCleanerId_30"/>
  <use xlink:href="#SVGCleanerId_31"/>
  <use xlink:href="#SVGCleanerId_32"/>
  <use xlink:href="#SVGCleanerId_33"/>
  <use xlink:href="#SVGCleanerId_34"/>
  <use xlink:href="#SVGCleanerId_35"/>
  <use xlink:href="#SVGCleanerId_36"/>
  <use xlink:href="#SVGCleanerId_37"/>
  <use xlink:href="#SVGCleanerId_38"/>
  <use xlink:href="#SVGCleanerId_39"/>
  <use xlink:href="#SVGCleanerId_40"/>
  <use xlink:href="#SVGCleanerId_41"/>
 </g>
 <rect x="32" rx="2" y="41" fill="#87a26b" color="#000000" height="4" width="32"/>
 <use xlink:href="#SVGCleanerId_21"/>
 <g fill="#e0e4b1">
  <use xlink:href="#SVGCleanerId_42"/>
  <use xlink:href="#SVGCleanerId_43"/>
  <use xlink:href="#SVGCleanerId_44"/>
  <use xlink:href="#SVGCleanerId_45"/>
  <use xlink:href="#SVGCleanerId_46"/>
  <use xlink:href="#SVGCleanerId_47"/>
  <use xlink:href="#SVGCleanerId_48"/>
  <use xlink:href="#SVGCleanerId_49"/>
  <use xlink:href="#SVGCleanerId_50"/>
 </g>
 <use xlink:href="#SVGCleanerId_22"/>
 <use xlink:href="#SVGCleanerId_23"/>
 <use xlink:href="#SVGCleanerId_24" transform="matrix(0.5 0 0 0.5 34 14)"/>
 <use xlink:href="#SVGCleanerId_25"/>
 <use xlink:href="#SVGCleanerId_26" transform="matrix(0.5771 0 0 0.5771 9.923 14.15)"/>
 <g transform="matrix(1 0 0 1 0 -60)">
  <use xlink:href="#SVGCleanerId_1"/>
  <use xlink:href="#SVGCleanerId_2"/>
  <use xlink:href="#SVGCleanerId_3"/>
  <use xlink:href="#SVGCleanerId_4"/>
  <use xlink:href="#SVGCleanerId_5"/>
  <use xlink:href="#SVGCleanerId_6"/>
  <use xlink:href="#SVGCleanerId_7"/>
  <use xlink:href="#SVGCleanerId_8" transform="matrix(1.4286 0 0 1.1667 -4.286 -1.667)"/>
  <use xlink:href="#SVGCleanerId_9" transform="matrix(1.1767 0 0 1.6893 -2.651 -11.719)"/>
  <use xlink:href="#SVGCleanerId_10"/>
  <use xlink:href="#SVGCleanerId_11"/>
  <use xlink:href="#SVGCleanerId_12"/>
  <use xlink:href="#SVGCleanerId_13" transform="matrix(1 0 0 1 0 1)"/>
  <use xlink:href="#SVGCleanerId_10" transform="matrix(0.60347 0 0 0.60347 4.455 28.434)"/>
  <use xlink:href="#SVGCleanerId_14"/>
  <use xlink:href="#SVGCleanerId_15"/>
  <g transform="matrix(1 0 0 1 66 0)">
   <use xlink:href="#SVGCleanerId_8" transform="matrix(1.4286 0 0 1.1667 -4.286 -1.667)"/>
   <use xlink:href="#SVGCleanerId_9" transform="matrix(1.1767 0 0 1.6893 -2.651 -11.719)"/>
   <use xlink:href="#SVGCleanerId_10"/>
   <use xlink:href="#SVGCleanerId_11"/>
   <use xlink:href="#SVGCleanerId_12"/>
  </g>
  <g transform="matrix(1 0 0 1 69 0)">
   <use xlink:href="#SVGCleanerId_13" transform="matrix(1 0 0 1 0 1)"/>
   <use xlink:href="#SVGCleanerId_10" transform="matrix(0.60347 0 0 0.60347 4.455 28.434)"/>
   <use xlink:href="#SVGCleanerId_14"/>
   <use xlink:href="#SVGCleanerId_15"/>
  </g>
  <use xlink:href="#SVGCleanerId_16"/>
  <use xlink:href="#SVGCleanerId_17"/>
  <use xlink:href="#SVGCleanerId_18"/>
  <use xlink:href="#SVGCleanerId_19" transform="matrix(1.25 0 0 1.0833 -12 -0.333)"/>
  <use xlink:href="#SVGCleanerId_20"/>
  <g fill="#536741">
   <use xlink:href="#SVGCleanerId_30"/>
   <use xlink:href="#SVGCleanerId_31"/>
   <use xlink:href="#SVGCleanerId_32"/>
   <use xlink:href="#SVGCleanerId_33"/>
   <use xlink:href="#SVGCleanerId_34"/>
   <use xlink:href="#SVGCleanerId_35"/>
   <use xlink:href="#SVGCleanerId_36"/>
   <use xlink:href="#SVGCleanerId_37"/>
   <use xlink:href="#SVGCleanerId_38"/>
   <use xlink:href="#SVGCleanerId_39"/>
   <use xlink:href="#SVGCleanerId_40"/>
   <use xlink:href="#SVGCleanerId_41"/>
  </g>
  <use xlink:href="#SVGCleanerId_21"/>
  <g fill="#e0e4b1">
   <use xlink:href="#SVGCleanerId_42"/>
   <use xlink:href="#SVGCleanerId_43"/>
   <use xlink:href="#SVGCleanerId_44"/>
   <use xlink:href="#SVGCleanerId_45"/>
   <use xlink:href="#SVGCleanerId_46"/>
   <use xlink:href="#SVGCleanerId_47"/>
   <use xlink:href="#SVGCleanerId_48"/>
   <use xlink:href="#SVGCleanerId_49"/>
   <use xlink:href="#SVGCleanerId_50"/>
  </g>
  <use xlink:href="#SVGCleanerId_22"/>
  <use xlink:href="#SVGCleanerId_23"/>
  <use xlink:href="#SVGCleanerId_24" transform="matrix(0.5 0 0 0.5 34 14)"/>
  <use xlink:href="#SVGCleanerId_25"/>
  <use xlink:href="#SVGCleanerId_26" transform="matrix(0.5771 0 0 0.5771 9.923 14.15)"/>
 </g>
 <path d="m6 42v1c0 3.324 2.676 6 6 6h72c3.324 0 6-2.676 6-6v-1c0 3.324-2.676 6-6 6h-72c-3.324 0-6-2.676-6-6zm0 3v1c0 3.324 2.676 6 6 6h72c3.324 0 6-2.676 6-6v-1c0 3.324-2.676 6-6 6h-72c-3.324 0-6-2.676-6-6zm0 3v1c0 3.324 2.676 6 6 6h72c3.324 0 6-2.676 6-6v-1c0 3.324-2.676 6-6 6h-72c-3.324 0-6-2.676-6-6zm0 3v1c0 3.324 2.676 6 6 6h72c3.324 0 6-2.676 6-6v-1c0 3.324-2.676 6-6 6h-72c-3.324 0-6-2.676-6-6zm0 3v1c0 3.324 2.676 6 6 6h72c3.324 0 6-2.676 6-6v-1c0 3.324-2.676 6-6 6h-72c-3.324 0-6-2.676-6-6zm0 3v1c0 3.324 2.676 6 6 6h72c3.324 0 6-2.676 6-6v-1c0 3.324-2.676 6-6 6h-72c-3.324 0-6-2.676-6-6zm0 3v1c0 3.324 2.676 6 6 6h72c3.324 0 6-2.676 6-6v-1c0 3.324-2.676 6-6 6h-72c-3.324 0-6-2.676-6-6zm0 3v1c0 3.324 2.676 6 6 6h72c3.324 0 6-2.676 6-6v-1c0 3.324-2.676 6-6 6h-72c-3.324 0-6-2.676-6-6zm0 3v1c0 3.324 2.676 6 6 6h72c3.324 0 6-2.676 6-6v-1c0 3.324-2.676 6-6 6h-72c-3.324 0-6-2.676-6-6zm0 3v1c0 3.324 2.676 6 6 6h72c3.324 0 6-2.676 6-6v-1c0 3.324-2.676 6-6 6h-72c-3.324 0-6-2.676-6-6zm0 3v1c0 3.324 2.676 6 6 6h72c3.324 0 6-2.676 6-6v-1c0 3.324-2.676 6-6 6h-72c-3.324 0-6-2.676-6-6zm0 3v1c0 3.324 2.676 6 6 6h72c3.324 0 6-2.676 6-6v-1c0 3.324-2.676 6-6 6h-72c-3.324 0-6-2.676-6-6zm0 3v1c0 3.324 2.676 6 6 6h72c3.324 0 6-2.676 6-6v-1c0 3.324-2.676 6-6 6h-72c-3.324 0-6-2.676-6-6zm0 3v1c0 3.324 2.676 6 6 6h72c3.324 0 6-2.676 6-6v-1c0 3.324-2.676 6-6 6h-72c-3.324 0-6-2.676-6-6z" fill="#46522d" opacity="0.3"/>
 <path d="m62 50.062c-5.3355 0-9.9375 3.887-9.9375 8.9375v2c0 0.23357 0.02455 0.3919 0.03125 0.46875-0.0026-0.03027 0.002 0.05994 0 0.0625-0.0041 0.0051-0.01185-0.02186 0 0.125-0.01 0.09-0.031 0.172-0.031 0.344v2c0 0.23357 0.02455 0.3919 0.03125 0.46875-0.0026-0.03027 0.002 0.05994 0 0.0625-0.0041 0.0051-0.01185-0.02186 0 0.125-0.01 0.09-0.031 0.172-0.031 0.344v2c0 0.23357 0.02455 0.3919 0.03125 0.46875-0.0026-0.03027 0.002 0.05994 0 0.0625-0.0041 0.0051-0.01185-0.02186 0 0.125-0.01 0.09-0.031 0.172-0.031 0.344v2c0 0.23357 0.02455 0.3919 0.03125 0.46875-0.0026-0.03027 0.002 0.05994 0 0.0625-0.0041 0.0051-0.01185-0.02186 0 0.125-0.01 0.09-0.031 0.172-0.031 0.344v2c0 0.09301-0.0057 0.11776 0 0.1875-1.7473-2.458-4.6662-4.125-8.0625-4.125-5.3355 0-9.9375 3.887-9.9375 8.9375v2c0 0.23357 0.02455 0.3919 0.03125 0.46875-0.0026-0.03027 0.002 0.05994 0 0.0625-0.0041 0.0051-0.01185-0.02186 0 0.125-0.01 0.09-0.031 0.172-0.031 0.344v2c0 0.23357 0.02455 0.3919 0.03125 0.46875-0.0026-0.03027 0.002 0.05994 0 0.0625-0.0041 0.0051-0.01185-0.02186 0 0.125-0.01 0.09-0.031 0.172-0.031 0.344v2c0 5.0505 4.602 8.9375 9.9375 8.9375 3.6216 0 6.7843-1.8242 8.4688-4.5625 1.1762 3.8386 5.0727 6.5625 9.5312 6.5625 3.8743 0 7.12-2.1356 8.7188-5.1875 1.8054 1.891 4.3399 3.1875 7.2812 3.1875 5.3355 0 9.9375-3.887 9.9375-8.9375v-2c0-0.17156-0.02072-0.25438-0.03125-0.34375 0.0042-0.05232-0.0025-0.09032 0-0.125 0.000628-0.0087-0.000429-0.02229 0-0.03125 0.000858-0.01793 0.000159-0.04004 0-0.0625 0.0016-0.0092-0.0014-0.02242 0-0.03125-0.000388-0.0132 0.000734-0.01551 0-0.03125-0.000275-0.0059 0.000402-0.02396 0-0.03125-0.000402-0.0073 0.0012-0.02013 0-0.03125s0.0027-0.01387 0-0.03125c0.0077-0.08383 0.03125-0.16432 0.03125-0.28125v-2c0-0.17156-0.02072-0.25438-0.03125-0.34375 0.0042-0.05232-0.0025-0.09032 0-0.125 0.000628-0.0087-0.000429-0.02229 0-0.03125 0.000858-0.01793 0.000159-0.04004 0-0.0625 0.0016-0.0092-0.0014-0.02242 0-0.03125-0.000388-0.0132 0.000734-0.01551 0-0.03125 0-0.01228 0.000023-0.02163 0-0.03125-0.000402-0.0073 0.0012-0.02013 0-0.03125s0.0027-0.01387 0-0.03125c0.0077-0.08383 0.03125-0.16432 0.03125-0.28125v-2c0-0.17156-0.02072-0.25438-0.03125-0.34375 0.0042-0.05232-0.0025-0.09032 0-0.125 0.000628-0.0087-0.000429-0.02229 0-0.03125 0.000858-0.01793 0.000159-0.04004 0-0.0625 0.0016-0.0092-0.0014-0.02242 0-0.03125-0.000388-0.0132 0.000734-0.01551 0-0.03125-0.000275-0.0059 0.000402-0.02396 0-0.03125-0.000402-0.0073 0.0012-0.02013 0-0.03125s0.0027-0.01387 0-0.03125c0.0077-0.08383 0.03125-0.16432 0.03125-0.28125v-2c0-0.17156-0.02072-0.25438-0.03125-0.34375 0.0042-0.05232-0.0025-0.09032 0-0.125 0.000628-0.0087-0.000429-0.02229 0-0.03125 0.000858-0.01793 0.000159-0.04004 0-0.0625 0.0016-0.0092-0.0014-0.02242 0-0.03125-0.000388-0.0132 0.000734-0.01551 0-0.03125 0-0.01228 0.000023-0.02163 0-0.03125-0.000402-0.0073 0.0012-0.02013 0-0.03125s0.0027-0.01387 0-0.03125c0.0077-0.08383 0.03125-0.16432 0.03125-0.28125v-2c0-5.0505-4.602-8.9375-9.9375-8.9375-2.3026 0-4.391 0.77317-6.0625 2v-0.0625c0-0.17156-0.02072-0.25438-0.03125-0.34375 0.0042-0.05232-0.0025-0.09032 0-0.125 0.000628-0.0087-0.000429-0.02229 0-0.03125 0.000858-0.01793 0.000159-0.04004 0-0.0625 0.0016-0.0092-0.0014-0.02242 0-0.03125-0.000388-0.0132 0.000734-0.01551 0-0.03125-0.000275-0.0059 0.000402-0.02396 0-0.03125-0.000402-0.0073 0.0012-0.02013 0-0.03125s0.0027-0.01387 0-0.03125c0.0077-0.08383 0.03125-0.16432 0.03125-0.28125v-2c0-0.17156-0.02072-0.25438-0.03125-0.34375 0.0042-0.05234-0.0025-0.09032 0-0.125 0.000629-0.0087-0.000429-0.02228 0-0.03125 0.000859-0.01793 0.00016-0.04002 0-0.0625 0.0016-0.0092-0.0014-0.02242 0-0.03125-0.00039-0.01322 0.000736-0.0155 0-0.03125-0.000276-0.0059 0.000403-0.02395 0-0.03125s0.0012-0.02011 0-0.03125 0.0027-0.01383 0-0.03125c0.0077-0.08383 0.03125-0.16432 0.03125-0.28125v-2c0-5.0505-4.602-8.9375-9.9375-8.9375z" color="#000000" opacity="0.08"/>
 <path d="m62 50.844c-4.9608 0-9.1562 3.5817-9.1562 8.1562v2c0 0.17103 0.02061 0.28424 0.03125 0.40625 0.0049 0.05608-0.0037 0.14191 0 0.1875-0.011 0.122-0.031 0.235-0.031 0.406v2c0 0.17103 0.02061 0.28424 0.03125 0.40625 0.0049 0.05608-0.0037 0.14191 0 0.1875-0.011 0.122-0.031 0.235-0.031 0.406v2c0 0.17103 0.02061 0.28424 0.03125 0.40625 0.0049 0.05608-0.0037 0.14191 0 0.1875-0.011 0.122-0.031 0.235-0.031 0.406v2c0 0.17103 0.02061 0.28424 0.03125 0.40625 0.0049 0.05608-0.0037 0.14191 0 0.1875-0.011 0.122-0.031 0.235-0.031 0.406v2c0 0.17103 0.02061 0.28424 0.03125 0.40625 0.0049 0.05608-0.0037 0.14191 0 0.1875-0.011 0.122-0.031 0.235-0.031 0.406v2c0 0.17103 0.02061 0.28424 0.03125 0.40625 0.0049 0.05608-0.0037 0.14191 0 0.1875-0.0033 0.03788-0.02823 0.08236-0.03125 0.125-0.72703-3.9091-4.3824-6.875-8.8438-6.875-4.9608 0-9.1562 3.5817-9.1562 8.1562v2c0 0.17103 0.02061 0.28424 0.03125 0.40625 0.0049 0.05608-0.0037 0.14191 0 0.1875-0.011 0.122-0.031 0.235-0.031 0.406v2c0 0.17103 0.02061 0.28424 0.03125 0.40625 0.0049 0.05608-0.0037 0.14191 0 0.1875-0.011 0.122-0.031 0.235-0.031 0.406v2c0 4.5746 4.1955 8.1562 9.1562 8.1562 4.4498 0 8.1026-2.95 8.8438-6.8438v0.6875c0 4.5746 4.1955 8.1562 9.1562 8.1562 3.9991 0 7.3574-2.3907 8.5625-5.6875 1.6608 2.1735 4.3287 3.6875 7.4375 3.6875 4.9608 0 9.1562-3.5817 9.1562-8.1562v-2c0-0.17103-0.02061-0.28424-0.03125-0.40625 0.01658-0.20468 0.0084-0.25504 0-0.125a1.1474 1.1474 0 0 0 0 -0.0625 1.1474 1.1474 0 0 0 0 -0.0625 1.1474 1.1474 0 0 0 0 -0.03125c0.0023 0.04932 0.03125-0.02839 0.03125-0.3125v-2c0-0.17103-0.02061-0.28424-0.03125-0.40625 0.01658-0.20468 0.0084-0.25504 0-0.125a1.1474 1.1474 0 0 0 0 -0.0625 1.1474 1.1474 0 0 0 0 -0.0625 1.1474 1.1474 0 0 0 0 -0.03125c0.0023 0.04932 0.03125-0.02839 0.03125-0.3125v-2c0-0.17103-0.02061-0.28424-0.03125-0.40625 0.01658-0.20468 0.0084-0.25504 0-0.125a1.1474 1.1474 0 0 0 0 -0.0625 1.1474 1.1474 0 0 0 0 -0.0625 1.1474 1.1474 0 0 0 0 -0.03125c0.0023 0.04932 0.03125-0.02839 0.03125-0.3125v-2c0-0.17103-0.02061-0.28424-0.03125-0.40625 0.01658-0.20468 0.0084-0.25504 0-0.125a1.1474 1.1474 0 0 0 0 -0.0625 1.1474 1.1474 0 0 0 0 -0.0625 1.1474 1.1474 0 0 0 0 -0.03125c0.0023 0.04932 0.03125-0.02839 0.03125-0.3125v-2c0-4.5746-4.1955-8.1562-9.1562-8.1562-2.7465 0-5.1488 1.1868-6.8438 2.9375v-1.7812c0-0.17103-0.02061-0.28424-0.03125-0.40625 0.01658-0.20468 0.0084-0.25504 0-0.125a1.1474 1.1474 0 0 0 0 -0.0625 1.1474 1.1474 0 0 0 0 -0.0625 1.1474 1.1474 0 0 0 0 -0.03125c0.0023 0.04932 0.03125-0.02839 0.03125-0.3125v-2c0-0.17103-0.02061-0.28424-0.03125-0.40625 0.01659-0.20476 0.0084-0.25506 0-0.125a1.1474 1.1474 0 0 0 0 -0.0625 1.1474 1.1474 0 0 0 0 -0.0625 1.1474 1.1474 0 0 0 0 -0.03125c0.0023 0.04932 0.03125-0.02839 0.03125-0.3125v-2c0-4.5746-4.1955-8.1562-9.1562-8.1562z" color="#000000" opacity="0.15"/>
 <path d="m62 52c-4.4183 0-8 3.134-8 7v2c0 0.16822 0.01791 0.33474 0.03125 0.5-0.013 0.165-0.031 0.332-0.031 0.5v2c0 0.16822 0.01791 0.33474 0.03125 0.5-0.013 0.165-0.031 0.332-0.031 0.5v2c0 0.16822 0.01791 0.33474 0.03125 0.5-0.013 0.165-0.031 0.332-0.031 0.5v2c0 0.16822 0.01791 0.33474 0.03125 0.5-0.013 0.165-0.031 0.332-0.031 0.5v2c0 0.16822 0.01791 0.33474 0.03125 0.5-0.013 0.165-0.031 0.332-0.031 0.5v2c0 0.16822 0.01791 0.33474 0.03125 0.5-0.013 0.165-0.031 0.332-0.031 0.5v2c0 0.16822 0.01791 0.33474 0.03125 0.5-0.013 0.165-0.031 0.332-0.031 0.5v2c0 0.16822 0.01791 0.33474 0.03125 0.5-0.013 0.165-0.031 0.332-0.031 0.5v2c0 0.16822 0.01791 0.33474 0.03125 0.5-0.013 0.165-0.031 0.332-0.031 0.5v2c0 3.866 3.5817 7 8 7s8-3.134 8-7v-2c0-0.16822-0.01791-0.33474-0.03125-0.5 0.0025-0.03087-0.002-0.06278 0-0.09375-0.0039-0.04105 0.0047-0.08415 0-0.125 0.004-0.094 0.031-0.186 0.031-0.281v1c0 3.866 3.5817 7 8 7s8-3.134 8-7v-2c0-0.16822-0.01791-0.33474-0.03125-0.5 0.0025-0.03087-0.002-0.06278 0-0.09375-0.0039-0.04105 0.0047-0.08415 0-0.125 0.004-0.094 0.031-0.186 0.031-0.281v-2c0-0.16822-0.01791-0.33474-0.03125-0.5 0.0025-0.03087-0.002-0.06278 0-0.09375-0.0039-0.04105 0.0047-0.08415 0-0.125 0.004-0.094 0.031-0.186 0.031-0.281v-2c0-0.16822-0.01791-0.33474-0.03125-0.5 0.0025-0.03087-0.002-0.06278 0-0.09375-0.0039-0.04105 0.0047-0.08415 0-0.125 0.004-0.094 0.031-0.186 0.031-0.281v-2c0-0.16822-0.01791-0.33474-0.03125-0.5 0.0025-0.03087-0.002-0.06278 0-0.09375-0.0039-0.04105 0.0047-0.08415 0-0.125 0.004-0.094 0.031-0.186 0.031-0.281v-2c0-3.866-3.5817-7-8-7-4.1421 0-7.5591 2.7515-7.9688 6.2812-0.027 0.236-0.031 0.477-0.031 0.719v-1c0-0.16822-0.01791-0.33474-0.03125-0.5 0.0025-0.03087-0.002-0.06278 0-0.09375-0.0039-0.04105 0.0047-0.08415 0-0.125 0.004-0.094 0.031-0.186 0.031-0.281v-2c0-0.16822-0.01791-0.33474-0.03125-0.5 0.0025-0.03087-0.002-0.06278 0-0.09375-0.0039-0.04105 0.0047-0.08415 0-0.125 0.004-0.094 0.031-0.186 0.031-0.281v-2c0-0.16822-0.01791-0.33474-0.03125-0.5 0.0025-0.03087-0.002-0.06278 0-0.09375-0.0039-0.04105 0.0047-0.08415 0-0.125 0.004-0.094 0.031-0.186 0.031-0.281v-2c0-0.16822-0.01791-0.33474-0.03125-0.5 0.0025-0.03086-0.002-0.06278 0-0.09375-0.0039-0.04105 0.0047-0.08415 0-0.125 0.004-0.094 0.031-0.186 0.031-0.281v-2c0-3.866-3.5817-7-8-7zm-18 19c-4.4183 0-8 3.134-8 7v2c0 0.16822 0.01791 0.33474 0.03125 0.5-0.013 0.165-0.031 0.332-0.031 0.5v2c0 0.16822 0.01791 0.33474 0.03125 0.5-0.013 0.165-0.031 0.332-0.031 0.5v2c0 3.866 3.5817 7 8 7s8-3.134 8-7v-2c0-0.16822-0.01791-0.33474-0.03125-0.5 0.0025-0.03087-0.002-0.06278 0-0.09375-0.0039-0.04105 0.0047-0.08415 0-0.125 0.004-0.094 0.031-0.186 0.031-0.281v-2c0-0.16822-0.01791-0.33474-0.03125-0.5 0.0025-0.03087-0.002-0.06278 0-0.09375-0.0039-0.04105 0.0047-0.08415 0-0.125 0.004-0.094 0.031-0.186 0.031-0.281v-2c0-3.866-3.5817-7-8-7zm26 2v1c0 0.16822 0.01791 0.33474 0.03125 0.5-0.013 0.165-0.031 0.332-0.031 0.5v-1c0-0.16822-0.01791-0.33474-0.03125-0.5 0.0025-0.03087-0.002-0.06278 0-0.09375-0.0039-0.04105 0.0047-0.08415 0-0.125 0.004-0.094 0.031-0.186 0.031-0.281zm0 3v1c0 0.16822 0.01791 0.33474 0.03125 0.5-0.013 0.165-0.031 0.332-0.031 0.5v-1c0-0.16822-0.01791-0.33474-0.03125-0.5 0.0025-0.03087-0.002-0.06278 0-0.09375-0.0039-0.04105 0.0047-0.08415 0-0.125 0.004-0.094 0.031-0.186 0.031-0.281zm0 3v1c0 0.16822 0.01791 0.33474 0.03125 0.5-0.013 0.165-0.031 0.332-0.031 0.5v-1c0-0.16822-0.01791-0.33474-0.03125-0.5 0.0025-0.03087-0.002-0.06278 0-0.09375-0.0039-0.04105 0.0047-0.08415 0-0.125 0.004-0.094 0.031-0.186 0.031-0.281zm0 3v1c0 0.16822 0.01791 0.33474 0.03125 0.5-0.013 0.165-0.031 0.332-0.031 0.5v-1c0-0.16822-0.01791-0.33474-0.03125-0.5 0.0025-0.03087-0.002-0.06278 0-0.09375-0.0039-0.04105 0.0047-0.08415 0-0.125 0.004-0.094 0.031-0.186 0.031-0.281z" color="#000000" opacity="0.3"/>
 <g transform="matrix(1 0 0 1 14 12)">
  <use xlink:href="#SVGCleanerId_51"/>
  <use xlink:href="#SVGCleanerId_27" fill="url(#radialGradient4812)" transform="matrix(1 0 0 0.875 0 8)"/>
  <use xlink:href="#SVGCleanerId_52"/>
  <use xlink:href="#SVGCleanerId_53"/>
 </g>
 <g transform="matrix(1 0 0 1 14 9)">
  <use xlink:href="#SVGCleanerId_51"/>
  <use xlink:href="#SVGCleanerId_27" fill="url(#radialGradient4812)" transform="matrix(1 0 0 0.875 0 8)"/>
  <use xlink:href="#SVGCleanerId_52"/>
  <use xlink:href="#SVGCleanerId_53"/>
 </g>
 <g transform="matrix(1 0 0 1 14 6)">
  <use xlink:href="#SVGCleanerId_51"/>
  <use xlink:href="#SVGCleanerId_27" fill="url(#radialGradient4812)" transform="matrix(1 0 0 0.875 0 8)"/>
  <use xlink:href="#SVGCleanerId_52"/>
  <use xlink:href="#SVGCleanerId_53"/>
 </g>
 <g transform="matrix(1 0 0 1 14 3)">
  <use xlink:href="#SVGCleanerId_51"/>
  <use xlink:href="#SVGCleanerId_27" fill="url(#radialGradient4812)" transform="matrix(1 0 0 0.875 0 8)"/>
  <use xlink:href="#SVGCleanerId_52"/>
  <use xlink:href="#SVGCleanerId_53"/>
 </g>
 <use xlink:href="#SVGCleanerId_27" fill="url(#linearGradient4801)" transform="matrix(1 0 0 0.75 50 16)"/>
 <g transform="matrix(1 0 0 1 14 0)">
  <use xlink:href="#SVGCleanerId_51"/>
  <use xlink:href="#SVGCleanerId_27" fill="url(#radialGradient4812)" transform="matrix(1 0 0 0.875 0 8)"/>
  <use xlink:href="#SVGCleanerId_52"/>
  <use xlink:href="#SVGCleanerId_53"/>
 </g>
 <g transform="matrix(1 0 0 1 -2 14)">
  <use xlink:href="#SVGCleanerId_51"/>
  <use xlink:href="#SVGCleanerId_27" fill="url(#radialGradient4812)" transform="matrix(1 0 0 0.875 0 8)"/>
  <use xlink:href="#SVGCleanerId_52"/>
  <use xlink:href="#SVGCleanerId_53"/>
 </g>
 <g transform="matrix(1 0 0 1 -2 11)">
  <use xlink:href="#SVGCleanerId_51"/>
  <use xlink:href="#SVGCleanerId_27" fill="url(#radialGradient4812)" transform="matrix(1 0 0 0.875 0 8)"/>
  <use xlink:href="#SVGCleanerId_52"/>
  <use xlink:href="#SVGCleanerId_53"/>
 </g>
 <g transform="matrix(1 0 0 1 -2 8)">
  <use xlink:href="#SVGCleanerId_51"/>
  <use xlink:href="#SVGCleanerId_27" fill="url(#radialGradient4812)" transform="matrix(1 0 0 0.875 0 8)"/>
  <use xlink:href="#SVGCleanerId_52"/>
  <use xlink:href="#SVGCleanerId_53"/>
 </g>
 <g transform="matrix(1 0 0 1 -2 5)">
  <use xlink:href="#SVGCleanerId_51"/>
  <use xlink:href="#SVGCleanerId_27" fill="url(#radialGradient4812)" transform="matrix(1 0 0 0.875 0 8)"/>
  <use xlink:href="#SVGCleanerId_52"/>
  <use xlink:href="#SVGCleanerId_53"/>
 </g>
 <g transform="matrix(1 0 0 1 -2 2)">
  <use xlink:href="#SVGCleanerId_51"/>
  <use xlink:href="#SVGCleanerId_27" fill="url(#radialGradient4812)" transform="matrix(1 0 0 0.875 0 8)"/>
  <use xlink:href="#SVGCleanerId_52"/>
  <use xlink:href="#SVGCleanerId_53"/>
 </g>
 <g transform="matrix(1 0 0 1 -2 -1)">
  <use xlink:href="#SVGCleanerId_51"/>
  <use xlink:href="#SVGCleanerId_27" fill="url(#radialGradient4812)" transform="matrix(1 0 0 0.875 0 8)"/>
  <use xlink:href="#SVGCleanerId_52"/>
  <use xlink:href="#SVGCleanerId_53"/>
 </g>
 <g transform="matrix(1 0 0 1 -2 -4)">
  <use xlink:href="#SVGCleanerId_51"/>
  <use xlink:href="#SVGCleanerId_27" fill="url(#radialGradient4812)" transform="matrix(1 0 0 0.875 0 8)"/>
  <use xlink:href="#SVGCleanerId_52"/>
  <use xlink:href="#SVGCleanerId_53"/>
 </g>
 <g transform="matrix(1 0 0 1 -2 -7)">
  <use xlink:href="#SVGCleanerId_51"/>
  <use xlink:href="#SVGCleanerId_27" fill="url(#radialGradient4812)" transform="matrix(1 0 0 0.875 0 8)"/>
  <use xlink:href="#SVGCleanerId_52"/>
  <use xlink:href="#SVGCleanerId_53"/>
 </g>
 <g transform="matrix(1 0 0 1 -2 -10)">
  <use xlink:href="#SVGCleanerId_51"/>
  <use xlink:href="#SVGCleanerId_27" fill="url(#radialGradient4812)" transform="matrix(1 0 0 0.875 0 8)"/>
  <use xlink:href="#SVGCleanerId_52"/>
  <use xlink:href="#SVGCleanerId_53"/>
 </g>
 <g transform="matrix(1 0 0 1 -2 -13)">
  <use xlink:href="#SVGCleanerId_51"/>
  <use xlink:href="#SVGCleanerId_27" fill="url(#radialGradient4812)" transform="matrix(1 0 0 0.875 0 8)"/>
  <use xlink:href="#SVGCleanerId_52"/>
  <use xlink:href="#SVGCleanerId_53"/>
 </g>
 <g transform="matrix(1 0 0 1 -20 12)">
  <use xlink:href="#SVGCleanerId_51"/>
  <use xlink:href="#SVGCleanerId_27" fill="url(#radialGradient4812)" transform="matrix(1 0 0 0.875 0 8)"/>
  <use xlink:href="#SVGCleanerId_52"/>
  <use xlink:href="#SVGCleanerId_53"/>
 </g>
 <g transform="matrix(1 0 0 1 -20 9)">
  <use xlink:href="#SVGCleanerId_51"/>
  <use xlink:href="#SVGCleanerId_27" fill="url(#radialGradient4812)" transform="matrix(1 0 0 0.875 0 8)"/>
  <use xlink:href="#SVGCleanerId_52"/>
  <use xlink:href="#SVGCleanerId_53"/>
 </g>
 <g transform="matrix(1 0 0 1 -20 6)">
  <use xlink:href="#SVGCleanerId_51"/>
  <use xlink:href="#SVGCleanerId_27" fill="url(#radialGradient4812)" transform="matrix(1 0 0 0.875 0 8)"/>
  <use xlink:href="#SVGCleanerId_52"/>
  <use xlink:href="#SVGCleanerId_53"/>
 </g>
 <use xlink:href="#SVGCleanerId_28"/>
 <use xlink:href="#SVGCleanerId_29"/>
 <g transform="matrix(1 0 0 1 16 13)">
  <use xlink:href="#SVGCleanerId_28"/>
  <use xlink:href="#SVGCleanerId_29"/>
 </g>
 <g transform="matrix(1 0 0 1 -18 19)">
  <use xlink:href="#SVGCleanerId_28"/>
  <use xlink:href="#SVGCleanerId_29"/>
 </g>
</svg>
