<?xml version="1.0" encoding="UTF-8" standalone="no"?>
<svg
   xmlns:dc="http://purl.org/dc/elements/1.1/"
   xmlns:cc="http://creativecommons.org/ns#"
   xmlns:rdf="http://www.w3.org/1999/02/22-rdf-syntax-ns#"
   xmlns:svg="http://www.w3.org/2000/svg"
   xmlns="http://www.w3.org/2000/svg"
   xmlns:xlink="http://www.w3.org/1999/xlink"
   xmlns:sodipodi="http://sodipodi.sourceforge.net/DTD/sodipodi-0.dtd"
   xmlns:inkscape="http://www.inkscape.org/namespaces/inkscape"
   height="96"
   width="96"
   id="svg2"
   version="1.1"
   inkscape:version="0.91 r13725"
   sodipodi:docname="bookmark-missing.svg">
  <metadata
     id="metadata108">
    <rdf:RDF>
      <cc:Work
         rdf:about="">
        <dc:format>image/svg+xml</dc:format>
        <dc:type
           rdf:resource="http://purl.org/dc/dcmitype/StillImage" />
      </cc:Work>
    </rdf:RDF>
  </metadata>
  <sodipodi:namedview
     pagecolor="#ffffff"
     bordercolor="#666666"
     borderopacity="1"
     objecttolerance="10"
     gridtolerance="10"
     guidetolerance="10"
     inkscape:pageopacity="0"
     inkscape:pageshadow="2"
     inkscape:window-width="1366"
     inkscape:window-height="716"
     id="namedview106"
     showgrid="false"
     inkscape:zoom="1.2291667"
     inkscape:cx="12.934125"
     inkscape:cy="46.417167"
     inkscape:window-x="0"
     inkscape:window-y="24"
     inkscape:window-maximized="1"
     inkscape:current-layer="svg2" />
  <defs
     id="defs4">
    <linearGradient
       x2="0"
       y1="20.221"
       y2="138.66"
       gradientUnits="userSpaceOnUse"
       id="linearGradient3613-3">
      <stop
         stop-color="#fff"
         id="stop7" />
      <stop
         stop-color="#fff"
         stop-opacity="0"
         offset="1"
         id="stop9" />
    </linearGradient>
    <clipPath
       id="clipPath3613-29">
      <use
         xlink:href="#SVGCleanerId_1"
         id="use12" />
    </clipPath>
    <filter
       x="-0.192"
       y="-0.192"
       height="1.384"
       color-interpolation-filters="sRGB"
       id="filter3794-0"
       width="1.384">
      <feGaussianBlur
         stdDeviation="5.28"
         id="feGaussianBlur15" />
    </filter>
    <clipPath
       id="clipPath3613-25">
      <use
         xlink:href="#SVGCleanerId_1"
         id="use18" />
    </clipPath>
    <clipPath
       id="clipPath3860">
      <use
         xlink:href="#SVGCleanerId_2"
         id="use21" />
    </clipPath>
    <filter
       x="-0.166"
       y="-0.197"
       height="1.394"
       color-interpolation-filters="sRGB"
       id="filter3870"
       width="1.331">
      <feGaussianBlur
         stdDeviation="5.17031"
         id="feGaussianBlur24" />
    </filter>
    <linearGradient
       x2="0"
       xlink:href="#linearGradient3613-3"
       y1="22.933"
       y2="81.48"
       gradientUnits="userSpaceOnUse"
       id="linearGradient5696" />
    <linearGradient
       x1="93.01"
       x2="6.187"
       gradientUnits="userSpaceOnUse"
       id="linearGradient4640"
       gradientTransform="translate(-137.89831,3.6610169)">
      <stop
         stop-color="#a3a6a6"
         id="stop28" />
      <stop
         stop-color="#ccc"
         offset="1"
         id="stop30" />
    </linearGradient>
    <linearGradient
       x2="0"
       y1="0.481"
       y2="96.03"
       gradientUnits="userSpaceOnUse"
       id="linearGradient6647"
       gradientTransform="matrix(0.70536,0,0,0.70536,34.929,10.589)">
      <stop
         stop-opacity="0.569"
         id="stop33" />
      <stop
         stop-opacity="0"
         offset="0.07"
         id="stop35" />
      <stop
         stop-color="#3c3c3c"
         stop-opacity="0.09"
         offset="0.203"
         id="stop37" />
      <stop
         stop-color="#888"
         stop-opacity="0.137"
         offset="0.266"
         id="stop39" />
      <stop
         stop-color="#bbb"
         stop-opacity="0.184"
         offset="0.35"
         id="stop41" />
      <stop
         stop-color="#757575"
         stop-opacity="0.137"
         offset="0.439"
         id="stop43" />
      <stop
         stop-color="#383838"
         stop-opacity="0.09"
         offset="0.498"
         id="stop45" />
      <stop
         stop-color="#8a8a8a"
         stop-opacity="0.192"
         offset="0.659"
         id="stop47" />
      <stop
         stop-color="#292929"
         stop-opacity="0.61"
         offset="1"
         id="stop49" />
    </linearGradient>
    <rect
       x="15"
       stroke-width="0.5"
       rx="12"
       y="15"
       fill="url(#linearGradient3613-3)"
       stroke="#fff"
       height="66"
       filter="url(#filter3794-0)"
       id="SVGCleanerId_0"
       width="66"
       stroke-linecap="round" />
    <rect
       x="6"
       rx="6"
       y="6"
       height="84"
       id="SVGCleanerId_1"
       width="84" />
    <rect
       x="6"
       rx="6"
       y="18"
       height="72"
       id="SVGCleanerId_2"
       width="84" />
    <linearGradient
       inkscape:collect="always"
       id="linearGradient4342">
      <stop
         style="stop-color:#8e8e8e;stop-opacity:1"
         offset="0"
         id="stop4344" />
      <stop
         style="stop-color:#404040;stop-opacity:1"
         offset="1"
         id="stop4346" />
    </linearGradient>
    <linearGradient
       inkscape:collect="always"
       id="linearGradient4366">
      <stop
         style="stop-color:#787878;stop-opacity:1"
         offset="0"
         id="stop4368" />
      <stop
         style="stop-color:#a1a1a1;stop-opacity:1"
         offset="1"
         id="stop4370" />
    </linearGradient>
    <linearGradient
       inkscape:collect="always"
       id="linearGradient4334">
      <stop
         style="stop-color:white;stop-opacity:1;"
         offset="0"
         id="stop4336" />
      <stop
         style="stop-color:white;stop-opacity:0;"
         offset="1"
         id="stop4338" />
    </linearGradient>
    <linearGradient
       id="linearGradient3613-3-0"
       gradientUnits="userSpaceOnUse"
       y2="138.66"
       y1="20.221"
       x2="0">
      <stop
         id="stop7-9"
         stop-color="#fff" />
      <stop
         id="stop9-9"
         offset="1"
         stop-opacity="0"
         stop-color="#fff" />
    </linearGradient>
    <clipPath
       id="clipPath3613-29-9">
      <use
         id="use12-3"
         xlink:href="#SVGCleanerId_1-8" />
    </clipPath>
    <filter
       width="1.384"
       id="filter3794-0-8"
       color-interpolation-filters="sRGB"
       height="1.384"
       y="-0.192"
       x="-0.192">
      <feGaussianBlur
         id="feGaussianBlur15-5"
         stdDeviation="5.28" />
    </filter>
    <clipPath
       id="clipPath3613-25-6">
      <use
         id="use18-5"
         xlink:href="#SVGCleanerId_1-8" />
    </clipPath>
    <clipPath
       id="clipPath3860-6">
      <use
         id="use21-2"
         xlink:href="#SVGCleanerId_2-6" />
    </clipPath>
    <filter
       width="1.331"
       id="filter3870-4"
       color-interpolation-filters="sRGB"
       height="1.394"
       y="-0.197"
       x="-0.166">
      <feGaussianBlur
         id="feGaussianBlur24-9"
         stdDeviation="5.17031" />
    </filter>
    <linearGradient
       id="linearGradient5696-9"
       gradientUnits="userSpaceOnUse"
       y2="81.48"
       y1="22.933"
       xlink:href="#linearGradient3613-3-0"
       x2="0" />
    <linearGradient
       gradientTransform="translate(-134.64407,-6.50847)"
       id="linearGradient4640-2"
       gradientUnits="userSpaceOnUse"
       x2="6.187"
       x1="93.01">
      <stop
         id="stop28-1"
         stop-opacity="0.077"
         stop-color="#be8e4a" />
      <stop
         id="stop30-6"
         offset="1"
         stop-color="#a67c25" />
    </linearGradient>
    <linearGradient
       gradientTransform="matrix(0.70536,0,0,0.70536,34.929,10.589)"
       id="linearGradient5567"
       gradientUnits="userSpaceOnUse"
       y2="96.03"
       y1="0.481"
       x2="0">
      <stop
         id="stop33-8"
         stop-opacity="0.569" />
      <stop
         id="stop35-7"
         offset="0.07"
         stop-opacity="0" />
      <stop
         id="stop37-0"
         offset="0.203"
         stop-opacity="0.09"
         stop-color="#750202" />
      <stop
         id="stop39-4"
         offset="0.266"
         stop-opacity="0.137"
         stop-color="#e47b04" />
      <stop
         id="stop41-8"
         offset="0.35"
         stop-opacity="0.184"
         stop-color="#ffc906" />
      <stop
         id="stop43-7"
         offset="0.439"
         stop-opacity="0.137"
         stop-color="#b76403" />
      <stop
         id="stop45-7"
         offset="0.498"
         stop-opacity="0.09"
         stop-color="#700000" />
      <stop
         id="stop47-2"
         offset="0.659"
         stop-opacity="0.192"
         stop-color="#fda100" />
      <stop
         id="stop49-0"
         offset="1"
         stop-opacity="0.61"
         stop-color="#7c0000" />
    </linearGradient>
    <rect
       style="fill:url(#linearGradient3613-3-0);filter:url(#filter3794-0-8)"
       stroke-linecap="round"
       width="66"
       id="SVGCleanerId_0-9"
       filter="url(#filter3794-0)"
       height="66"
       stroke="#fff"
       fill="url(#linearGradient3613-3)"
       y="15"
       rx="12"
       stroke-width="0.5"
       x="15" />
    <rect
       width="84"
       id="SVGCleanerId_1-8"
       height="84"
       y="6"
       rx="6"
       x="6" />
    <rect
       width="84"
       id="SVGCleanerId_2-6"
       height="72"
       y="18"
       rx="6"
       x="6" />
    <linearGradient
       gradientUnits="userSpaceOnUse"
       y2="48"
       x2="90.498787"
       y1="48"
       x1="5.4987845"
       id="linearGradient4348-5"
       xlink:href="#linearGradient4342"
       inkscape:collect="always"
       gradientTransform="translate(0,1.2665987e-6)" />
    <filter
       height="1.2617019"
       y="-0.13085099"
       width="1.0798804"
       x="-0.03994016"
       id="filter4356-0"
       style="color-interpolation-filters:sRGB"
       inkscape:collect="always">
      <feGaussianBlur
         id="feGaussianBlur4358-7"
         stdDeviation="1.1452528"
         inkscape:collect="always" />
    </filter>
    <filter
       height="1.0548589"
       y="-0.027429426"
       width="1.0426656"
       x="-0.021332815"
       id="filter14336"
       style="color-interpolation-filters:sRGB"
       inkscape:collect="always">
      <feGaussianBlur
         id="feGaussianBlur14338"
         stdDeviation="0.75553722"
         inkscape:collect="always" />
    </filter>
    <linearGradient
       gradientUnits="userSpaceOnUse"
       y2="26.095018"
       x2="52.384773"
       y1="88.512177"
       x1="52.384773"
       id="linearGradient4372-9"
       xlink:href="#linearGradient4366"
       inkscape:collect="always"
       gradientTransform="translate(1.2665987e-6,0)" />
    <linearGradient
       gradientUnits="userSpaceOnUse"
       y2="96.539803"
       x2="50.707542"
       y1="81.682442"
       x1="50.707542"
       id="linearGradient14237"
       xlink:href="#linearGradient14231"
       inkscape:collect="always" />
    <linearGradient
       id="linearGradient14231"
       inkscape:collect="always">
      <stop
         id="stop14233"
         offset="0"
         style="stop-color:#000000;stop-opacity:1;" />
      <stop
         id="stop14235"
         offset="1"
         style="stop-color:#000000;stop-opacity:0;" />
    </linearGradient>
    <linearGradient
       gradientUnits="userSpaceOnUse"
       y2="76.719681"
       x2="49.876652"
       y1="87.937508"
       x1="49.876652"
       id="linearGradient14245"
       xlink:href="#linearGradient4334"
       inkscape:collect="always" />
  </defs>
  <rect
     id="rect4364-5"
     transform="matrix(0,1,1,0,0,0)"
     width="88"
     height="88"
     y="4.0000014"
     rx="11.845899"
     x="4"
     style="opacity:0.1;fill:#000000;fill-opacity:1;stroke:none" />
  <rect
     style="opacity:0.1;fill:#000000;fill-opacity:1;stroke:none"
     x="4.5"
     rx="11.711287"
     y="4.5000014"
     height="87"
     width="87"
     transform="matrix(0,1,1,0,0,0)"
     id="rect4362-2" />
  <rect
     id="rect4360-8"
     transform="matrix(0,1,1,0,0,0)"
     width="86"
     height="86"
     y="5.0000014"
     rx="11.576674"
     x="5"
     style="opacity:0.1;fill:#000000;fill-opacity:1;stroke:none" />
  <rect
     style="fill:url(#linearGradient4348-5);fill-opacity:1.0;stroke:none"
     x="5.4987845"
     y="5.5000014"
     height="85"
     width="85"
     transform="matrix(0,1,1,0,0,0)"
     id="rect4300-1"
     rx="11.442062" />
  <rect
     id="rect4350-1"
     width="68.818123"
     visibility="visible"
     height="21.005625"
     y="14.873075"
     display="inline"
     x="15.389151"
     style="color:#000000;display:inline;visibility:visible;opacity:0.397;fill:#000000;fill-opacity:1;fill-rule:nonzero;stroke:none;stroke-width:2.5;filter:url(#filter4356-0)" />
  <rect
     style="color:#000000;display:inline;visibility:visible;fill:#ececec;fill-opacity:1;fill-rule:nonzero;stroke:none;stroke-width:2.5"
     x="15.389151"
     display="inline"
     y="14.873075"
     height="21.005625"
     visibility="visible"
     width="68.818123"
     id="rect4302-9" />
  <rect
     style="color:#000000;display:inline;visibility:visible;opacity:0.397;fill:#000000;fill-opacity:1;fill-rule:nonzero;stroke:none;stroke-width:2.5;filter:url(#filter4356-0)"
     x="10.499328"
     display="inline"
     y="21.632536"
     height="21.005625"
     visibility="visible"
     width="68.818123"
     id="rect14346" />
  <rect
     id="rect14348"
     width="68.818123"
     visibility="visible"
     height="21.005625"
     y="21.632536"
     display="inline"
     x="10.499328"
     style="color:#000000;display:inline;visibility:visible;fill:#ececec;fill-opacity:1;fill-rule:nonzero;stroke:none;stroke-width:2.5" />
  <path
     id="path14328"
     inkscape:connector-curvature="0"
     d="m 40.562501,22.667872 -8.765625,13.447266 -26.2968747,0 0,41.205046 c 0,6.339088 5.1160397,11.455132 11.4550777,11.455132 l 62.089844,0 c 6.339039,0 11.455078,-5.116044 11.455078,-11.455132 l 0,-54.652312 -49.9375,0 z"
     style="opacity:0.125;fill:#000000;fill-opacity:1;stroke:none;filter:url(#filter14336)" />
  <path
     style="fill:url(#linearGradient4372-9);fill-opacity:1.0;stroke:none"
     d="m 40.562501,24.393694 -8.765625,13.447266 -26.2968747,0 0,41.205046 c 0,6.339088 5.1160397,11.455132 11.4550777,11.455132 l 62.089844,0 c 6.339039,0 11.455078,-5.116044 11.455078,-11.455132 l 0,-54.652312 -49.9375,0 z"
     inkscape:connector-curvature="0"
     id="path4304-3" />
  <g
     id="g14291"
     transform="translate(1.2665987e-6,0)">
    <path
       d="m 5.2922679,73.685059 0,5.0663 c 0,6.668 5.3645011,12.032 12.0320011,12.032 l 61.049,0 c 6.668,0 12.032,-5.3645 12.032,-12.032 l 0,-5.0663 c 0,6.6681 -5.3645,12.032 -12.032,12.032 l -61.049,0 c -6.668,0 -12.0320011,-5.3643 -12.0320011,-12.032 z"
       id="path64"
       inkscape:connector-curvature="0"
       style="opacity:0.4;fill:url(#linearGradient14237);fill-opacity:1" />
    <path
       inkscape:connector-curvature="0"
       id="path14214"
       d="m 5.2929688,72.717592 0,1.15039 c 0,6.667718 5.3632502,12.031248 12.0312502,12.031248 l 61.048828,0 c 6.6675,0 12.03125,-5.36313 12.03125,-12.031248 l 0,-1.15039 c 0,6.668098 -5.36375,12.031248 -12.03125,12.031248 l -61.048828,0 c -6.668,0 -12.0312502,-5.36355 -12.0312502,-12.031248 z"
       style="opacity:0.5;fill:url(#linearGradient14245);fill-opacity:1" />
  </g>
  <g
     id="g88"
     transform="matrix(1,0,0,0.88703,1.8688571,11.844298)">
    <path
       style="opacity:0.05"
       inkscape:connector-curvature="0"
       id="path90"
       d="M 77.781,9.9688 C 77.511,9.9584 77.223,9.964 76.906,10 76.86086,10.0051 76.82702,9.9932 76.781,10 l -22.875,0 a 0.94004,0.94004 0 0 0 -0.156,0 c -0.08984,0.01423 -0.12037,0.04227 -0.1875,0.0625 l -0.5625,0 c -2.1665,0 -3.9375,1.771 -3.9375,3.9375 l 0,0.03125 a 0.94004,0.94004 0 0 0 0.938,0.938 l 2.8125,0 c 0.24908,0.17452 0.44152,0.29886 0.59375,0.34375 l 0,63.719 c -0.0411,2.6092 3.7251,3.5639 5,1.3438 l 0.032,0.03 0.062,-0.094 9.594,-13.562 c 3.3569,4.7015 6.6574,9.469 10.094,14.125 a 0.94004,0.94004 0 0 0 0.093,0.125 c 1.7482,1.7023 4.7508,0.02545 4.5,-2.3125 l 0.03125,0 c -3.3e-5,-0.05208 3.3e-5,-0.10417 0,-0.15625 -0.01346,-21.374 0.01674,-42.749 -0.03125,-64.125 a 0.94004,0.94004 0 0 0 0,-0.0625 c -0.20656,-2.661 -2.6284,-4.2841 -5,-4.375 z M 53,11 53.969,11 77,11 c 1.662,0 3,1.338 3,3 l 0,0.03125 0.0625,50.156 0,12 0,2.125 -11.969,-16.938 -12,16.938 0,-14.125 0,-45.188 -0.094,0.001 0,-4.9688 -6,0 0,-0.031 c 0,-1.662 1.338,-3 3,-3 z" />
    <path
       style="opacity:0.1"
       inkscape:connector-curvature="0"
       id="path92"
       d="m 77.75,10.906 c -0.28353,-0.01087 -0.56372,-0.01023 -0.84375,0.03125 l -23,0 c -0.088,0.014 -0.146,0.037 -0.218,0.063 l 0.28125,0 22,0 1.031,0 c 1.662,0 3,1.338 3,3 l 0.0625,50.188 0,12 0,2.125 -11.969,-16.938 -12,16.938 0,-14.125 0,-45.188 -0.094,0 0,-5 c 0,-1.4759 -1.0686,-2.6827 -2.4688,-2.9375 -0.01026,-0.0019 -0.02095,0.0018 -0.03125,0 -0.79056,0.46336 -0.42352,1.8146 -0.46875,2.625 0.05117,1.0014 1.6314,0.54264 1.3125,1.5938 l 0,63.75 c -0.02695,1.7111 2.5317,2.3675 3.3125,0.84375 l 10.438,-14.75 c 3.626,5.0498 7.1628,10.2 10.844,15.188 1.1503,1.1201 3.2085,-0.07211 2.9375,-1.625 -0.01371,-21.427 0.01685,-42.855 -0.03125,-64.281 -0.16467,-2.1214 -2.109,-3.4239 -4.0938,-3.5 z" />
    <path
       style="opacity:0.15"
       inkscape:connector-curvature="0"
       id="path94"
       d="m 54,11.938 0,1.562 c 0.76467,0 1.3438,0.56165 1.3438,1.3125 l 0,50.094 0,14.094 a 0.77798,0.77798 0 0 0 1.406,0.438 l 11.344,-16.032 11.375,16.032 a 0.77798,0.77798 0 0 0 1.406,-0.438 l 0,-2.0938 0,-12 0,-50.094 c 0,-1.0203 -0.538,-1.8963 -1.3438,-2.4062 0.291,0.462 0.469,1.005 0.469,1.594 l 0.0625,50.188 0,12 0,2.125 -11.969,-16.938 -12,16.938 0,-14.125 0,-45.188 -0.094,0 0,-5 c 0,-0.79923 -0.30644,-1.5259 -0.8125,-2.0625 l -1.1875,0 z" />
    <path
       style="opacity:0.3"
       inkscape:connector-curvature="0"
       id="path96"
       d="m 54,12.719 c 0.94735,0 1.7286,0.61356 2,1.4688 l 0,-0.188 c 0,-0.46494 -0.12528,-0.88922 -0.3125,-1.2812 l -1.6875,0 z m 26,1.5 0.0625,49.969 0,12 0,2.125 -11.968,-16.938 -11.969,16.906 0,0.719 11.969,-16.906 12,16.906 0,-2.0938 0,-12 0,-50.094 c 0,-0.21466 -0.03485,-0.39881 -0.09375,-0.59375 z" />
    <path
       style="fill:#646464"
       inkscape:connector-curvature="0"
       id="path98"
       d="m 53,11 c 1.662,0 3,1.338 3,3 l 0,5 0.09375,0 0,45.188 0,14.125 12,-16.938 11.969,16.938 0,-2.125 0,-12 L 79.99975,14 c 0,-1.662 -1.338,-3 -3,-3 l -1.0312,0 -22,0 -0.969,0 z" />
    <path
       style="fill:#828282"
       inkscape:connector-curvature="0"
       id="path100"
       d="M 54.875,11 C 56.047,11 58,11.283 58,13.125 L 58,71.594 68.094,58 l 9.875,13.594 0,-58.469 C 77.969,11.953 77.016,11 75.844,11 l -1.969,0 C 75.047,11 76,11.953 76,13.125 l 0,52.562 -7.9062,-11.312 -8.1562,11.312 0,-52.562 c 0,-1.976 -1.953,-2.125 -3.126,-2.125 l -1.9375,0 z" />
    <path
       style="fill:#323232"
       inkscape:connector-curvature="0"
       id="path102"
       d="m 53,11 c -1.662,0 -3,1.338 -3,3 l 0,0.03125 6,0 0,-0.031 c 0,-1.662 -1.338,-3 -3,-3 z" />
    <path
       inkscape:connector-curvature="0"
       style="fill:url(#linearGradient6647)"
       id="path104"
       d="m 53,11 c 1.662,0 3,1.338 3,3 l 0,5 0.0937,0 0,45.188 0,14.125 12,-16.938 11.969,16.938 0,-2.125 0,-12 L 79.9997,14 c 0,-1.596 -1.243,-2.868 -2.812,-2.969 -0.068,-0.019 -0.124,-0.028 -0.188,-0.031 l -23.031,0 -0.969,0 z" />
  </g>
</svg>
