<?xml version="1.0" encoding="UTF-8" standalone="no"?>
<svg
   xmlns:dc="http://purl.org/dc/elements/1.1/"
   xmlns:cc="http://creativecommons.org/ns#"
   xmlns:rdf="http://www.w3.org/1999/02/22-rdf-syntax-ns#"
   xmlns:svg="http://www.w3.org/2000/svg"
   xmlns="http://www.w3.org/2000/svg"
   xmlns:xlink="http://www.w3.org/1999/xlink"
   xmlns:sodipodi="http://sodipodi.sourceforge.net/DTD/sodipodi-0.dtd"
   xmlns:inkscape="http://www.inkscape.org/namespaces/inkscape"
   height="96"
   width="96"
   id="svg2"
   version="1.1"
   inkscape:version="0.91 r13725"
   sodipodi:docname="gnome-fs-bookmark-missing.svg">
  <metadata
     id="metadata108">
    <rdf:RDF>
      <cc:Work
         rdf:about="">
        <dc:format>image/svg+xml</dc:format>
        <dc:type
           rdf:resource="http://purl.org/dc/dcmitype/StillImage" />
      </cc:Work>
    </rdf:RDF>
  </metadata>
  <sodipodi:namedview
     pagecolor="#ffffff"
     bordercolor="#666666"
     borderopacity="1"
     objecttolerance="10"
     gridtolerance="10"
     guidetolerance="10"
     inkscape:pageopacity="0"
     inkscape:pageshadow="2"
     inkscape:window-width="1366"
     inkscape:window-height="716"
     id="namedview106"
     showgrid="false"
     inkscape:zoom="3.4766083"
     inkscape:cx="20.450987"
     inkscape:cy="50.025431"
     inkscape:window-x="0"
     inkscape:window-y="24"
     inkscape:window-maximized="1"
     inkscape:current-layer="svg2" />
  <defs
     id="defs4">
    <linearGradient
       x2="0"
       y1="20.221"
       y2="138.66"
       gradientUnits="userSpaceOnUse"
       id="linearGradient3613-3">
      <stop
         stop-color="#fff"
         id="stop7" />
      <stop
         stop-color="#fff"
         stop-opacity="0"
         offset="1"
         id="stop9" />
    </linearGradient>
    <clipPath
       id="clipPath3613-29">
      <use
         xlink:href="#SVGCleanerId_1"
         id="use12" />
    </clipPath>
    <filter
       x="-0.192"
       y="-0.192"
       height="1.384"
       color-interpolation-filters="sRGB"
       id="filter3794-0"
       width="1.384">
      <feGaussianBlur
         stdDeviation="5.28"
         id="feGaussianBlur15" />
    </filter>
    <clipPath
       id="clipPath3613-25">
      <use
         xlink:href="#SVGCleanerId_1"
         id="use18" />
    </clipPath>
    <clipPath
       id="clipPath3860">
      <use
         xlink:href="#SVGCleanerId_2"
         id="use21" />
    </clipPath>
    <filter
       x="-0.166"
       y="-0.197"
       height="1.394"
       color-interpolation-filters="sRGB"
       id="filter3870"
       width="1.331">
      <feGaussianBlur
         stdDeviation="5.17031"
         id="feGaussianBlur24" />
    </filter>
    <linearGradient
       x2="0"
       xlink:href="#linearGradient3613-3"
       y1="22.933"
       y2="81.48"
       gradientUnits="userSpaceOnUse"
       id="linearGradient5696" />
    <linearGradient
       x1="93.01"
       x2="6.187"
       gradientUnits="userSpaceOnUse"
       id="linearGradient4640"
       gradientTransform="translate(-137.89831,3.6610169)">
      <stop
         stop-color="#a3a6a6"
         id="stop28" />
      <stop
         stop-color="#ccc"
         offset="1"
         id="stop30" />
    </linearGradient>
    <linearGradient
       x2="0"
       y1="0.481"
       y2="96.03"
       gradientUnits="userSpaceOnUse"
       id="linearGradient6647"
       gradientTransform="matrix(0.70536,0,0,0.70536,34.929,10.589)">
      <stop
         stop-opacity="0.569"
         id="stop33" />
      <stop
         stop-opacity="0"
         offset="0.07"
         id="stop35" />
      <stop
         stop-color="#3c3c3c"
         stop-opacity="0.09"
         offset="0.203"
         id="stop37" />
      <stop
         stop-color="#888"
         stop-opacity="0.137"
         offset="0.266"
         id="stop39" />
      <stop
         stop-color="#bbb"
         stop-opacity="0.184"
         offset="0.35"
         id="stop41" />
      <stop
         stop-color="#757575"
         stop-opacity="0.137"
         offset="0.439"
         id="stop43" />
      <stop
         stop-color="#383838"
         stop-opacity="0.09"
         offset="0.498"
         id="stop45" />
      <stop
         stop-color="#8a8a8a"
         stop-opacity="0.192"
         offset="0.659"
         id="stop47" />
      <stop
         stop-color="#292929"
         stop-opacity="0.61"
         offset="1"
         id="stop49" />
    </linearGradient>
    <rect
       x="15"
       stroke-width="0.5"
       rx="12"
       y="15"
       fill="url(#linearGradient3613-3)"
       stroke="#fff"
       height="66"
       filter="url(#filter3794-0)"
       id="SVGCleanerId_0"
       width="66"
       stroke-linecap="round" />
    <rect
       x="6"
       rx="6"
       y="6"
       height="84"
       id="SVGCleanerId_1"
       width="84" />
    <rect
       x="6"
       rx="6"
       y="18"
       height="72"
       id="SVGCleanerId_2"
       width="84" />
    <linearGradient
       inkscape:collect="always"
       xlink:href="#linearGradient4342"
       id="linearGradient4348"
       x1="5.4987845"
       y1="48"
       x2="90.498787"
       y2="48"
       gradientUnits="userSpaceOnUse" />
    <linearGradient
       inkscape:collect="always"
       id="linearGradient4342">
      <stop
         style="stop-color:#8e8e8e;stop-opacity:1"
         offset="0"
         id="stop4344" />
      <stop
         style="stop-color:#404040;stop-opacity:1"
         offset="1"
         id="stop4346" />
    </linearGradient>
    <filter
       inkscape:collect="always"
       style="color-interpolation-filters:sRGB"
       id="filter4356"
       x="-0.03994016"
       width="1.0798804"
       y="-0.13085099"
       height="1.2617019">
      <feGaussianBlur
         inkscape:collect="always"
         stdDeviation="1.1452528"
         id="feGaussianBlur4358" />
    </filter>
    <linearGradient
       inkscape:collect="always"
       xlink:href="#linearGradient4366"
       id="linearGradient4372"
       x1="52.384773"
       y1="88.512177"
       x2="52.384773"
       y2="26.095018"
       gradientUnits="userSpaceOnUse" />
    <linearGradient
       inkscape:collect="always"
       id="linearGradient4366">
      <stop
         style="stop-color:#787878;stop-opacity:1"
         offset="0"
         id="stop4368" />
      <stop
         style="stop-color:#a1a1a1;stop-opacity:1"
         offset="1"
         id="stop4370" />
    </linearGradient>
    <linearGradient
       inkscape:collect="always"
       xlink:href="#linearGradient4334"
       id="linearGradient4340"
       x1="44.359856"
       y1="-20.334562"
       x2="45.070312"
       y2="45.913132"
       gradientUnits="userSpaceOnUse" />
    <linearGradient
       inkscape:collect="always"
       id="linearGradient4334">
      <stop
         style="stop-color:white;stop-opacity:1;"
         offset="0"
         id="stop4336" />
      <stop
         style="stop-color:white;stop-opacity:0;"
         offset="1"
         id="stop4338" />
    </linearGradient>
    <filter
       inkscape:collect="always"
       style="color-interpolation-filters:sRGB"
       id="filter4390"
       x="-0.061865166"
       width="1.1237303"
       y="-0.079545341"
       height="1.1590908">
      <feGaussianBlur
         inkscape:collect="always"
         stdDeviation="1.8044006"
         id="feGaussianBlur4392" />
    </filter>
  </defs>
  <rect
     id="rect4364"
     transform="matrix(0,1,1,0,0,0)"
     width="88"
     height="88"
     y="4"
     rx="11.845899"
     x="4"
     style="opacity:0.1;fill:black;fill-opacity:1;stroke:none" />
  <rect
     style="opacity:0.1;fill:black;fill-opacity:1;stroke:none"
     x="4.5"
     rx="11.711287"
     y="4.5"
     height="87"
     width="87"
     transform="matrix(0,1,1,0,0,0)"
     id="rect4362" />
  <rect
     id="rect4360"
     transform="matrix(0,1,1,0,0,0)"
     width="86"
     height="86"
     y="5"
     rx="11.576674"
     x="5"
     style="opacity:0.1;fill:black;fill-opacity:1;stroke:none" />
  <rect
     style="fill:url(#linearGradient4348);fill-opacity:1;stroke:none"
     x="5.4987845"
     rx="11.442062"
     y="5.5"
     height="85"
     width="85"
     transform="matrix(0,1,1,0,0,0)"
     id="rect4300" />
  <rect
     id="rect4350"
     width="68.818123"
     visibility="visible"
     height="21.005625"
     y="17.749441"
     display="inline"
     x="14.813876"
     style="color:black;display:inline;visibility:visible;opacity:0.397;fill:black;fill-opacity:1;fill-rule:nonzero;stroke:none;stroke-width:2.5;filter:url(#filter4356)" />
  <rect
     style="color:black;display:inline;visibility:visible;fill:#e6e6e6;fill-opacity:1;fill-rule:nonzero;stroke:none;stroke-width:2.5"
     x="14.813876"
     display="inline"
     y="17.749441"
     height="21.005625"
     visibility="visible"
     width="68.818123"
     id="rect4302" />
  <path
     style="fill:url(#linearGradient4372);fill-opacity:1;stroke:none"
     d="m 40.5625,24.393694 -8.765625,13.447266 -26.296875,0 0,41.205046 c 0,6.339088 5.11604,11.455132 11.455078,11.455132 l 62.089844,0 C 85.383961,90.501138 90.5,85.385094 90.5,79.046006 l 0,-54.652312 -49.9375,0 z"
     inkscape:connector-curvature="0"
     id="path4304" />
  <path
     style="fill:url(#linearGradient4340);fill-opacity:1;stroke:none"
     d="m 40.562499,24.393694 -8.76562,13.447266 -26.296879,0 0,2.300781 26.007809,0 8.76563,-13.447266 49.937504,0 0,54.652344 c 0,0.0969 -0.0113,0.1908 -0.0137,0.28711 0.19156,-0.832341 0.30273,-1.696334 0.30273,-2.587891 l 0,-54.652344 -49.937504,0 z"
     id="path4319"
     inkscape:connector-curvature="0" />
  <path
     style="fill-opacity:0.11799999"
     inkscape:connector-curvature="0"
     id="path64-9"
     d="m 5.2922679,73.685059 0,5.0663 c 0,6.668 5.3645011,12.032 12.0320011,12.032 l 61.049,0 c 6.668,0 12.032,-5.3645 12.032,-12.032 l 0,-5.0663 c 0,6.6681 -5.3645,12.032 -12.032,12.032 l -61.049,0 c -6.668,0 -12.0320011,-5.3643 -12.0320011,-12.032 z" />
  <path
     id="path4374"
     inkscape:connector-curvature="0"
     d="m 42.716463,30.138487 -7.21875,11.074219 -21.65625,0 0,33.933567 c 0,5.220425 4.213209,9.433638 9.433594,9.433638 l 51.132812,0 c 5.220385,0 9.433594,-4.213213 9.433594,-9.433638 l 0,-45.007786 -41.125,0 z"
     style="opacity:0.08900003;fill:white;fill-opacity:1;stroke:none;filter:url(#filter4390)" />
  <g
     id="g88"
     transform="matrix(1,0,0,0.88703,6.2801358,11.915355)">
    <path
       style="opacity:0.05"
       inkscape:connector-curvature="0"
       id="path90"
       d="M 77.781,9.9688 C 77.511,9.9584 77.223,9.964 76.906,10 76.86086,10.0051 76.82702,9.9932 76.781,10 l -22.875,0 a 0.94004,0.94004 0 0 0 -0.156,0 c -0.08984,0.01423 -0.12037,0.04227 -0.1875,0.0625 l -0.5625,0 c -2.1665,0 -3.9375,1.771 -3.9375,3.9375 l 0,0.03125 a 0.94004,0.94004 0 0 0 0.938,0.938 l 2.8125,0 c 0.24908,0.17452 0.44152,0.29886 0.59375,0.34375 l 0,63.719 c -0.0411,2.6092 3.7251,3.5639 5,1.3438 l 0.032,0.03 0.062,-0.094 9.594,-13.562 c 3.3569,4.7015 6.6574,9.469 10.094,14.125 a 0.94004,0.94004 0 0 0 0.093,0.125 c 1.7482,1.7023 4.7508,0.02545 4.5,-2.3125 l 0.03125,0 c -3.3e-5,-0.05208 3.3e-5,-0.10417 0,-0.15625 -0.01346,-21.374 0.01674,-42.749 -0.03125,-64.125 a 0.94004,0.94004 0 0 0 0,-0.0625 c -0.20656,-2.661 -2.6284,-4.2841 -5,-4.375 z M 53,11 53.969,11 77,11 c 1.662,0 3,1.338 3,3 l 0,0.03125 0.0625,50.156 0,12 0,2.125 -11.969,-16.938 -12,16.938 0,-14.125 0,-45.188 -0.094,0.001 0,-4.9688 -6,0 0,-0.031 c 0,-1.662 1.338,-3 3,-3 z" />
    <path
       style="opacity:0.1"
       inkscape:connector-curvature="0"
       id="path92"
       d="m 77.75,10.906 c -0.28353,-0.01087 -0.56372,-0.01023 -0.84375,0.03125 l -23,0 c -0.088,0.014 -0.146,0.037 -0.218,0.063 l 0.28125,0 22,0 1.031,0 c 1.662,0 3,1.338 3,3 l 0.0625,50.188 0,12 0,2.125 -11.969,-16.938 -12,16.938 0,-14.125 0,-45.188 -0.094,0 0,-5 c 0,-1.4759 -1.0686,-2.6827 -2.4688,-2.9375 -0.01026,-0.0019 -0.02095,0.0018 -0.03125,0 -0.79056,0.46336 -0.42352,1.8146 -0.46875,2.625 0.05117,1.0014 1.6314,0.54264 1.3125,1.5938 l 0,63.75 c -0.02695,1.7111 2.5317,2.3675 3.3125,0.84375 l 10.438,-14.75 c 3.626,5.0498 7.1628,10.2 10.844,15.188 1.1503,1.1201 3.2085,-0.07211 2.9375,-1.625 -0.01371,-21.427 0.01685,-42.855 -0.03125,-64.281 -0.16467,-2.1214 -2.109,-3.4239 -4.0938,-3.5 z" />
    <path
       style="opacity:0.15"
       inkscape:connector-curvature="0"
       id="path94"
       d="m 54,11.938 0,1.562 c 0.76467,0 1.3438,0.56165 1.3438,1.3125 l 0,50.094 0,14.094 a 0.77798,0.77798 0 0 0 1.406,0.438 l 11.344,-16.032 11.375,16.032 a 0.77798,0.77798 0 0 0 1.406,-0.438 l 0,-2.0938 0,-12 0,-50.094 c 0,-1.0203 -0.538,-1.8963 -1.3438,-2.4062 0.291,0.462 0.469,1.005 0.469,1.594 l 0.0625,50.188 0,12 0,2.125 -11.969,-16.938 -12,16.938 0,-14.125 0,-45.188 -0.094,0 0,-5 c 0,-0.79923 -0.30644,-1.5259 -0.8125,-2.0625 l -1.1875,0 z" />
    <path
       style="opacity:0.3"
       inkscape:connector-curvature="0"
       id="path96"
       d="m 54,12.719 c 0.94735,0 1.7286,0.61356 2,1.4688 l 0,-0.188 c 0,-0.46494 -0.12528,-0.88922 -0.3125,-1.2812 l -1.6875,0 z m 26,1.5 0.0625,49.969 0,12 0,2.125 -11.968,-16.938 -11.969,16.906 0,0.719 11.969,-16.906 12,16.906 0,-2.0938 0,-12 0,-50.094 c 0,-0.21466 -0.03485,-0.39881 -0.09375,-0.59375 z" />
    <path
       style="fill:#646464"
       inkscape:connector-curvature="0"
       id="path98"
       d="m 53,11 c 1.662,0 3,1.338 3,3 l 0,5 0.09375,0 0,45.188 0,14.125 12,-16.938 11.969,16.938 0,-2.125 0,-12 L 79.99975,14 c 0,-1.662 -1.338,-3 -3,-3 l -1.0312,0 -22,0 -0.969,0 z" />
    <path
       style="fill:#828282"
       inkscape:connector-curvature="0"
       id="path100"
       d="M 54.875,11 C 56.047,11 58,11.283 58,13.125 L 58,71.594 68.094,58 l 9.875,13.594 0,-58.469 C 77.969,11.953 77.016,11 75.844,11 l -1.969,0 C 75.047,11 76,11.953 76,13.125 l 0,52.562 -7.9062,-11.312 -8.1562,11.312 0,-52.562 c 0,-1.976 -1.953,-2.125 -3.126,-2.125 l -1.9375,0 z" />
    <path
       style="fill:#323232"
       inkscape:connector-curvature="0"
       id="path102"
       d="m 53,11 c -1.662,0 -3,1.338 -3,3 l 0,0.03125 6,0 0,-0.031 c 0,-1.662 -1.338,-3 -3,-3 z" />
    <path
       inkscape:connector-curvature="0"
       style="fill:url(#linearGradient6647)"
       id="path104"
       d="m 53,11 c 1.662,0 3,1.338 3,3 l 0,5 0.0937,0 0,45.188 0,14.125 12,-16.938 11.969,16.938 0,-2.125 0,-12 L 79.9997,14 c 0,-1.596 -1.243,-2.868 -2.812,-2.969 -0.068,-0.019 -0.124,-0.028 -0.188,-0.031 l -23.031,0 -0.969,0 z" />
  </g>
</svg>
