<?xml version="1.0" encoding="UTF-8" standalone="no"?>
<svg
   xmlns:dc="http://purl.org/dc/elements/1.1/"
   xmlns:cc="http://creativecommons.org/ns#"
   xmlns:rdf="http://www.w3.org/1999/02/22-rdf-syntax-ns#"
   xmlns:svg="http://www.w3.org/2000/svg"
   xmlns="http://www.w3.org/2000/svg"
   xmlns:xlink="http://www.w3.org/1999/xlink"
   xmlns:sodipodi="http://sodipodi.sourceforge.net/DTD/sodipodi-0.dtd"
   xmlns:inkscape="http://www.inkscape.org/namespaces/inkscape"
   height="96"
   width="96"
   id="svg2"
   version="1.1"
   inkscape:version="0.91 r13725"
   sodipodi:docname="folder-download.svg">
  <metadata
     id="metadata91">
    <rdf:RDF>
      <cc:Work
         rdf:about="">
        <dc:format>image/svg+xml</dc:format>
        <dc:type
           rdf:resource="http://purl.org/dc/dcmitype/StillImage" />
      </cc:Work>
    </rdf:RDF>
  </metadata>
  <sodipodi:namedview
     pagecolor="#ffffff"
     bordercolor="#666666"
     borderopacity="1"
     objecttolerance="10"
     gridtolerance="10"
     guidetolerance="10"
     inkscape:pageopacity="0"
     inkscape:pageshadow="2"
     inkscape:window-width="1366"
     inkscape:window-height="716"
     id="namedview89"
     showgrid="false"
     inkscape:zoom="4.9166667"
     inkscape:cx="53.975948"
     inkscape:cy="35.649233"
     inkscape:window-x="0"
     inkscape:window-y="24"
     inkscape:window-maximized="1"
     inkscape:current-layer="svg2" />
  <defs
     id="defs4">
    <linearGradient
       gradientTransform="matrix(1 0 0 1 0 -2)"
       id="linearGradient4314"
       gradientUnits="userSpaceOnUse"
       y2="31.478"
       y1="76.14"
       x2="0">
      <stop
         id="stop4316"
         stop-opacity="0.784"
         stop-color="#aa7932"
         style="stop-color:black;stop-opacity:0.78431374" />
      <stop
         id="stop4318"
         offset="1"
         stop-opacity="0.392"
         stop-color="#aa7932"
         style="stop-color:black;stop-opacity:0.39215687" />
    </linearGradient>
    <linearGradient
       x2="0"
       y1="20.221"
       y2="138.66"
       gradientUnits="userSpaceOnUse"
       id="linearGradient3613-3">
      <stop
         stop-color="#fff"
         id="stop7" />
      <stop
         stop-color="#fff"
         stop-opacity="0"
         offset="1"
         id="stop9" />
    </linearGradient>
    <clipPath
       id="clipPath3613-29">
      <use
         xlink:href="#SVGCleanerId_1"
         id="use12" />
    </clipPath>
    <filter
       x="-0.192"
       y="-0.192"
       height="1.384"
       color-interpolation-filters="sRGB"
       id="filter3794-0"
       width="1.384">
      <feGaussianBlur
         stdDeviation="5.28"
         id="feGaussianBlur15" />
    </filter>
    <clipPath
       id="clipPath3613-25">
      <use
         xlink:href="#SVGCleanerId_1"
         id="use18" />
    </clipPath>
    <clipPath
       id="clipPath3860">
      <rect
         x="6"
         rx="6"
         y="18"
         height="72"
         width="84"
         id="rect21" />
    </clipPath>
    <filter
       x="-0.166"
       y="-0.197"
       height="1.394"
       color-interpolation-filters="sRGB"
       id="filter3870"
       width="1.331">
      <feGaussianBlur
         stdDeviation="5.17031"
         id="feGaussianBlur24" />
    </filter>
    <linearGradient
       x2="0"
       xlink:href="#linearGradient3613-3"
       y1="22.933"
       y2="81.48"
       gradientUnits="userSpaceOnUse"
       id="linearGradient5696" />
    <linearGradient
       x1="93.01"
       x2="6.187"
       gradientUnits="userSpaceOnUse"
       id="linearGradient4640"
       gradientTransform="translate(-133.01695,2.0339)">
      <stop
         stop-color="#be8e4a"
         stop-opacity="0.077"
         id="stop28" />
      <stop
         stop-color="#a67c25"
         offset="1"
         id="stop30" />
    </linearGradient>
    <linearGradient
       x2="0"
       y1="76.14"
       y2="31.478"
       gradientUnits="userSpaceOnUse"
       id="linearGradient3086"
       gradientTransform="matrix(1 0 0 1 0 -2)">
      <stop
         stop-color="#aa7932"
         stop-opacity="0.784"
         id="stop33" />
      <stop
         stop-color="#aa7932"
         stop-opacity="0.392"
         offset="1"
         id="stop35" />
    </linearGradient>
    <rect
       x="15"
       stroke-width="0.5"
       rx="12"
       y="15"
       fill="url(#linearGradient3613-3)"
       stroke="#fff"
       height="66"
       filter="url(#filter3794-0)"
       id="SVGCleanerId_0"
       width="66"
       stroke-linecap="round" />
    <rect
       x="6"
       rx="6"
       y="6"
       height="84"
       id="SVGCleanerId_1"
       width="84" />
    <linearGradient
       inkscape:collect="always"
       xlink:href="#linearGradient4314"
       id="linearGradient4225"
       gradientUnits="userSpaceOnUse"
       gradientTransform="translate(20.014063,2.2094209)"
       y1="76.14"
       x2="0"
       y2="31.478" />
    <linearGradient
       inkscape:collect="always"
       xlink:href="#linearGradient4342"
       id="linearGradient4348"
       x1="5.4987845"
       y1="48"
       x2="90.498787"
       y2="48"
       gradientUnits="userSpaceOnUse" />
    <linearGradient
       inkscape:collect="always"
       id="linearGradient4342">
      <stop
         style="stop-color:#3eadf3;stop-opacity:1;"
         offset="0"
         id="stop4344" />
      <stop
         style="stop-color:#005285;stop-opacity:1"
         offset="1"
         id="stop4346" />
    </linearGradient>
    <filter
       inkscape:collect="always"
       style="color-interpolation-filters:sRGB"
       id="filter4356"
       x="-0.03994016"
       width="1.0798804"
       y="-0.13085099"
       height="1.2617019">
      <feGaussianBlur
         inkscape:collect="always"
         stdDeviation="1.1452528"
         id="feGaussianBlur4358" />
    </filter>
    <linearGradient
       inkscape:collect="always"
       xlink:href="#linearGradient4366"
       id="linearGradient4372"
       x1="52.384773"
       y1="88.512177"
       x2="52.384773"
       y2="26.095018"
       gradientUnits="userSpaceOnUse" />
    <linearGradient
       inkscape:collect="always"
       id="linearGradient4366">
      <stop
         style="stop-color:#389edd;stop-opacity:1"
         offset="0"
         id="stop4368" />
      <stop
         style="stop-color:#66bff7;stop-opacity:1"
         offset="1"
         id="stop4370" />
    </linearGradient>
    <linearGradient
       inkscape:collect="always"
       xlink:href="#linearGradient4334"
       id="linearGradient4340"
       x1="44.359856"
       y1="-20.334562"
       x2="45.070312"
       y2="45.913132"
       gradientUnits="userSpaceOnUse" />
    <linearGradient
       inkscape:collect="always"
       id="linearGradient4334">
      <stop
         style="stop-color:white;stop-opacity:1;"
         offset="0"
         id="stop4336" />
      <stop
         style="stop-color:white;stop-opacity:0;"
         offset="1"
         id="stop4338" />
    </linearGradient>
    <filter
       inkscape:collect="always"
       style="color-interpolation-filters:sRGB"
       id="filter4390"
       x="-0.061865166"
       width="1.1237303"
       y="-0.079545341"
       height="1.1590908">
      <feGaussianBlur
         inkscape:collect="always"
         stdDeviation="1.8044006"
         id="feGaussianBlur4392" />
    </filter>
  </defs>
  <rect
     id="rect4364"
     transform="matrix(0,1,1,0,0,0)"
     width="88"
     height="88"
     y="4"
     rx="11.845899"
     x="4"
     style="opacity:0.1;fill:black;fill-opacity:1;stroke:none" />
  <rect
     style="opacity:0.1;fill:black;fill-opacity:1;stroke:none"
     x="4.5"
     rx="11.711287"
     y="4.5"
     height="87"
     width="87"
     transform="matrix(0,1,1,0,0,0)"
     id="rect4362" />
  <rect
     id="rect4360"
     transform="matrix(0,1,1,0,0,0)"
     width="86"
     height="86"
     y="5"
     rx="11.576674"
     x="5"
     style="opacity:0.1;fill:black;fill-opacity:1;stroke:none" />
  <rect
     style="fill:url(#linearGradient4348);fill-opacity:1;stroke:none"
     x="5.4987845"
     rx="11.442062"
     y="5.5"
     height="85"
     width="85"
     transform="matrix(0,1,1,0,0,0)"
     id="rect4300" />
  <rect
     id="rect4350"
     width="68.818123"
     visibility="visible"
     height="21.005625"
     y="17.749441"
     display="inline"
     x="14.813876"
     style="color:black;display:inline;visibility:visible;opacity:0.397;fill:black;fill-opacity:1;fill-rule:nonzero;stroke:none;stroke-width:2.5;filter:url(#filter4356)" />
  <rect
     style="color:black;display:inline;visibility:visible;fill:#e6e6e6;fill-opacity:1;fill-rule:nonzero;stroke:none;stroke-width:2.5"
     x="14.813876"
     display="inline"
     y="17.749441"
     height="21.005625"
     visibility="visible"
     width="68.818123"
     id="rect4302" />
  <path
     style="fill:url(#linearGradient4372);fill-opacity:1;stroke:none"
     d="m 40.5625,24.393694 -8.765625,13.447266 -26.296875,0 0,41.205046 c 0,6.339088 5.11604,11.455132 11.455078,11.455132 l 62.089844,0 C 85.383961,90.501138 90.5,85.385094 90.5,79.046006 l 0,-54.652312 -49.9375,0 z"
     inkscape:connector-curvature="0"
     id="path4304" />
  <path
     style="fill:url(#linearGradient4340);fill-opacity:1;stroke:none"
     d="m 40.562499,24.393694 -8.76562,13.447266 -26.296879,0 0,2.300781 26.007809,0 8.76563,-13.447266 49.937504,0 0,54.652344 c 0,0.0969 -0.0113,0.1908 -0.0137,0.28711 0.19156,-0.832341 0.30273,-1.696334 0.30273,-2.587891 l 0,-54.652344 -49.937504,0 z"
     id="path4319"
     inkscape:connector-curvature="0" />
  <path
     style="fill-opacity:0.11799999"
     inkscape:connector-curvature="0"
     id="path64"
     d="m 5.2922679,73.685059 0,5.0663 c 0,6.668 5.3645011,12.032 12.0320011,12.032 l 61.049,0 c 6.668,0 12.032,-5.3645 12.032,-12.032 l 0,-5.0663 c 0,6.6681 -5.3645,12.032 -12.032,12.032 l -61.049,0 c -6.668,0 -12.0320011,-5.3643 -12.0320011,-12.032 z" />
  <path
     id="path4374"
     inkscape:connector-curvature="0"
     d="m 42.716463,29.731708 -7.21875,11.074219 -21.65625,0 0,33.933567 c 0,5.220425 4.213209,9.433638 9.433594,9.433638 l 51.132812,0 c 5.220385,0 9.433594,-4.213213 9.433594,-9.433638 l 0,-45.007786 -41.125,0 z"
     style="opacity:0.08900003;fill:white;fill-opacity:1;stroke:none;filter:url(#filter4390)" />
  <g
     id="g4320">
    <path
       style="opacity:0.05;fill:white"
       inkscape:connector-curvature="0"
       id="path75"
       d="m 59.825713,32.037031 a 1.9766,1.9766 0 0 0 -1.781,1.969 l 0,4 a 1.9766,1.9766 0 0 0 1.969,1.969 l 16,0 a 1.9766,1.9766 0 0 0 1.969,-1.969 l 0,-4 a 1.9766,1.9766 0 0 0 -1.969,-1.969 l -16,0 a 1.9766,1.9766 0 0 0 -0.1875,0 z m 0.188,1.969 16,0 0,4 -16,0 0,-4 z m -0.1875,6.0312 a 1.9766,1.9766 0 0 0 -1.781,1.969 l 0,8 a 1.9766,1.9766 0 0 0 1.969,1.969 l 16,0 a 1.9766,1.9766 0 0 0 1.969,-1.969 l 0,-8 a 1.9766,1.9766 0 0 0 -1.969,-1.969 l -16,0 a 1.9766,1.9766 0 0 0 -0.1875,0 z m 0.188,1.969 16,0 0,8 -16,0 0,-8 z m -0.188,10.031 a 1.9766,1.9766 0 0 0 -1.781,1.969 l 0,6.0312 -6.0312,0 a 1.9766,1.9766 0 0 0 -1.4062,3.375 l 8,8 8,8 a 1.9766,1.9766 0 0 0 2.8125,0 l 8,-8 8,-8 a 1.9766,1.9766 0 0 0 -1.406,-3.375 l -6.0312,0 0,-6.0312 a 1.9766,1.9766 0 0 0 -1.969,-1.969 l -16,0 a 1.9766,1.9766 0 0 0 -0.1875,0 z m 0.188,1.969 16,0 0,8 8,0 -8,8 -8,8 -8,-8 -8,-8 8,0 0,-8 z" />
    <path
       style="opacity:0.1;fill:white"
       inkscape:connector-curvature="0"
       id="path77"
       d="m 59.825855,33.037031 a 0.97638,0.97638 0 0 0 -0.781,0.969 l 0,4 a 0.97638,0.97638 0 0 0 0.969,0.969 l 16,0 a 0.97638,0.97638 0 0 0 0.969,-0.969 l 0,-4 a 0.97638,0.97638 0 0 0 -0.969,-0.969 l -16,0 a 0.97638,0.97638 0 0 0 -0.1875,0 z m 0.188,0.969 16,0 0,4 -16,0 0,-4 z m -0.1875,7.0312 a 0.97638,0.97638 0 0 0 -0.781,0.969 l 0,8 a 0.97638,0.97638 0 0 0 0.969,0.969 l 16,0 a 0.97638,0.97638 0 0 0 0.969,-0.969 l 0,-8 a 0.97638,0.97638 0 0 0 -0.969,-0.969 l -16,0 a 0.97638,0.97638 0 0 0 -0.1875,0 z m 0.188,0.969 16,0 0,8 -16,0 0,-8 z m -0.188,11.031 a 0.97638,0.97638 0 0 0 -0.781,0.969 l 0,7.0312 -7.0312,0 a 0.97638,0.97638 0 0 0 -0.6875,1.6562 l 8,8 8,8 a 0.97638,0.97638 0 0 0 1.375,0 l 8,-8 8,-8 a 0.97638,0.97638 0 0 0 -0.687,-1.656 l -7.0312,0 0,-7.0312 a 0.97638,0.97638 0 0 0 -0.969,-0.969 l -16,0 a 0.97638,0.97638 0 0 0 -0.1875,0 z m 0.188,0.969 16,0 0,8 8,0 -8,8 -8,8 -8,-8 -8,-8 8,0 0,-8 z" />
    <path
       inkscape:connector-curvature="0"
       style="opacity:0.9;fill:#59b2e9;fill-opacity:1"
       id="path79"
       d="m 60.014063,34.006031 0,4 16,0 0,-4 -16,0 z m 0,8 0,8 16,0 0,-8 -16,0 z m 0,12 0,8 -8,0 8,8 8,8 8,-8 8,-8 -8,0 0,-8 -16,0 z" />
    <path
       inkscape:connector-curvature="0"
       style="opacity:0.25;fill:#2f96d7;fill-opacity:1"
       id="path81"
       d="m 60.014063,34.006031 0,4 16,0 0,-4 -16,0 z m 0,8 0,8 16,0 0,-8 -16,0 z m 2,2 12,0 0,4 -12,0 0,-4 z m -2,10 0,8 -8,0 8,8 8,8 8,-8 8,-8 -8,0 0,-8 -16,0 z m 2,2 12,0 0,6 a 2.0002,2.0002 0 0 0 2,2 l 3.1875,0 -4.5938,4.5938 -6.594,6.594 -6.594,-6.594 -4.594,-4.594 3.188,0 a 2.0002,2.0002 0 0 0 2,-2 l 0,-6 z" />
    <path
       inkscape:connector-curvature="0"
       style="fill:#318bc3;fill-opacity:1"
       id="path83"
       d="m 60.014063,34.006031 0,1 16,0 0,-1 -16,0 z m 0,8 0,1 16,0 0,-1 -16,0 z m 0,12 0,1 16,0 0,-1 -16,0 z m -8,8 1,1 7,0 0,-1 -8,0 z m 24,0 0,1 7,0 1,-1 -8,0 z" />
    <path
       inkscape:connector-curvature="0"
       style="opacity:0.5;fill:url(#linearGradient4225)"
       id="path85"
       d="m 60.014063,34.209421 0,4 16,0 0,-4 -16,0 z m 1,1 14,0 0,2 -14,0 0,-2 z m -1,7 0,8 16,0 0,-8 -16,0 z m 1,1 14,0 0,6 -14,0 0,-6 z m -1,11 0,8 -8,0 8,8 8,8 8,-8 8,-8 -8,0 0,-8 -16,0 z m 1,1 14,0 0,7 a 1.0001,1.0001 0 0 0 1,1 l 5.5625,0 -6.2812,6.2812 -7.281,7.281 -7.281,-7.281 -6.281,-6.281 5.562,0 a 1.0001,1.0001 0 0 0 1,-1 l 0,-7 z" />
    <path
       style="opacity:0.2;fill:white"
       inkscape:connector-curvature="0"
       id="path87"
       d="m 60.014063,38.006031 0,1 16,0 0,-1 -16,0 z m 0,12 0,1 16,0 0,-1 -16,0 z m -8,13 8,8 8,8 8,-8 8,-8 -1,0 -7,7 -8,8 -8,-8 -7,-7 -1,0 z" />
  </g>
</svg>
