<?xml version="1.0" encoding="UTF-8" standalone="no"?>
<svg
   xmlns:dc="http://purl.org/dc/elements/1.1/"
   xmlns:cc="http://creativecommons.org/ns#"
   xmlns:rdf="http://www.w3.org/1999/02/22-rdf-syntax-ns#"
   xmlns:svg="http://www.w3.org/2000/svg"
   xmlns="http://www.w3.org/2000/svg"
   xmlns:xlink="http://www.w3.org/1999/xlink"
   xmlns:sodipodi="http://sodipodi.sourceforge.net/DTD/sodipodi-0.dtd"
   xmlns:inkscape="http://www.inkscape.org/namespaces/inkscape"
   height="96"
   width="96"
   id="svg2"
   version="1.1"
   inkscape:version="0.91 r13725"
   sodipodi:docname="folder-dropbox.svg">
  <metadata
     id="metadata87">
    <rdf:RDF>
      <cc:Work
         rdf:about="">
        <dc:format>image/svg+xml</dc:format>
        <dc:type
           rdf:resource="http://purl.org/dc/dcmitype/StillImage" />
      </cc:Work>
    </rdf:RDF>
  </metadata>
  <sodipodi:namedview
     pagecolor="#ffffff"
     bordercolor="#666666"
     borderopacity="1"
     objecttolerance="10"
     gridtolerance="10"
     guidetolerance="10"
     inkscape:pageopacity="0"
     inkscape:pageshadow="2"
     inkscape:window-width="1366"
     inkscape:window-height="716"
     id="namedview85"
     showgrid="false"
     inkscape:zoom="4"
     inkscape:cx="21.790445"
     inkscape:cy="37.089233"
     inkscape:window-x="0"
     inkscape:window-y="24"
     inkscape:window-maximized="1"
     inkscape:current-layer="svg2" />
  <defs
     id="defs4">
    <linearGradient
       inkscape:collect="always"
       id="linearGradient17258">
      <stop
         style="stop-color:#ffffff;stop-opacity:1;"
         offset="0"
         id="stop17260" />
      <stop
         style="stop-color:#e0e0e0;stop-opacity:1"
         offset="1"
         id="stop17262" />
    </linearGradient>
    <linearGradient
       gradientTransform="matrix(1 0 0 1 0.17 954.94)"
       id="linearGradient4321"
       gradientUnits="userSpaceOnUse"
       y2="31.732"
       y1="75.57"
       x2="0">
      <stop
         id="stop4323"
         stop-opacity="0.784"
         stop-color="#aa7932"
         style="stop-color:#2b91d1;stop-opacity:1" />
      <stop
         id="stop4325"
         offset="1"
         stop-opacity="0.392"
         stop-color="#aa7932"
         style="stop-color:#2a8fcf;stop-opacity:1" />
    </linearGradient>
    <linearGradient
       x2="0"
       y1="20.221"
       y2="138.66"
       gradientUnits="userSpaceOnUse"
       id="linearGradient3613-3">
      <stop
         stop-color="#fff"
         id="stop7" />
      <stop
         stop-color="#fff"
         stop-opacity="0"
         offset="1"
         id="stop9" />
    </linearGradient>
    <clipPath
       id="clipPath3613-29">
      <use
         xlink:href="#SVGCleanerId_1"
         id="use12" />
    </clipPath>
    <filter
       x="-0.192"
       y="-0.192"
       height="1.384"
       color-interpolation-filters="sRGB"
       id="filter3794-0"
       width="1.384">
      <feGaussianBlur
         stdDeviation="5.28"
         id="feGaussianBlur15" />
    </filter>
    <clipPath
       id="clipPath3613-25">
      <use
         xlink:href="#SVGCleanerId_1"
         id="use18" />
    </clipPath>
    <clipPath
       id="clipPath3860">
      <rect
         x="6"
         rx="6"
         y="18"
         height="72"
         width="84"
         id="rect21" />
    </clipPath>
    <filter
       x="-0.166"
       y="-0.197"
       height="1.394"
       color-interpolation-filters="sRGB"
       id="filter3870"
       width="1.331">
      <feGaussianBlur
         stdDeviation="5.17031"
         id="feGaussianBlur24" />
    </filter>
    <linearGradient
       x2="0"
       xlink:href="#linearGradient3613-3"
       y1="22.933"
       y2="81.48"
       gradientUnits="userSpaceOnUse"
       id="linearGradient5696" />
    <linearGradient
       x1="93.01"
       x2="6.187"
       gradientUnits="userSpaceOnUse"
       id="linearGradient4640"
       gradientTransform="translate(-159.86441,-12.20339)">
      <stop
         stop-color="#be8e4a"
         stop-opacity="0.077"
         id="stop28" />
      <stop
         stop-color="#a67c25"
         offset="1"
         id="stop30" />
    </linearGradient>
    <linearGradient
       x2="0"
       y1="75.57"
       y2="31.732"
       gradientUnits="userSpaceOnUse"
       id="linearGradient4157"
       gradientTransform="matrix(1 0 0 1 0.17 954.94)">
      <stop
         stop-color="#aa7932"
         stop-opacity="0.784"
         id="stop33" />
      <stop
         stop-color="#aa7932"
         stop-opacity="0.392"
         offset="1"
         id="stop35" />
    </linearGradient>
    <rect
       x="15"
       stroke-width="0.5"
       rx="12"
       y="15"
       fill="url(#linearGradient3613-3)"
       stroke="#fff"
       height="66"
       filter="url(#filter3794-0)"
       id="SVGCleanerId_0"
       width="66"
       stroke-linecap="round" />
    <rect
       x="6"
       rx="6"
       y="6"
       height="84"
       id="SVGCleanerId_1"
       width="84" />
    <linearGradient
       inkscape:collect="always"
       xlink:href="#linearGradient4342"
       id="linearGradient4348"
       x1="5.4987845"
       y1="48"
       x2="90.498787"
       y2="48"
       gradientUnits="userSpaceOnUse" />
    <linearGradient
       inkscape:collect="always"
       id="linearGradient4342">
      <stop
         style="stop-color:#3ebcf3;stop-opacity:1"
         offset="0"
         id="stop4344" />
      <stop
         style="stop-color:#005285;stop-opacity:1"
         offset="1"
         id="stop4346" />
    </linearGradient>
    <filter
       inkscape:collect="always"
       style="color-interpolation-filters:sRGB"
       id="filter4356"
       x="-0.03994016"
       width="1.0798804"
       y="-0.13085099"
       height="1.2617019">
      <feGaussianBlur
         inkscape:collect="always"
         stdDeviation="1.1452528"
         id="feGaussianBlur4358" />
    </filter>
    <filter
       inkscape:collect="always"
       style="color-interpolation-filters:sRGB"
       id="filter14336"
       x="-0.021332815"
       width="1.0426656"
       y="-0.027429426"
       height="1.0548589">
      <feGaussianBlur
         inkscape:collect="always"
         stdDeviation="0.75553722"
         id="feGaussianBlur14338" />
    </filter>
    <linearGradient
       inkscape:collect="always"
       xlink:href="#linearGradient4366"
       id="linearGradient4372"
       x1="52.384773"
       y1="88.512177"
       x2="52.384773"
       y2="26.095018"
       gradientUnits="userSpaceOnUse" />
    <linearGradient
       inkscape:collect="always"
       id="linearGradient4366">
      <stop
         style="stop-color:#389edd;stop-opacity:1"
         offset="0"
         id="stop4368" />
      <stop
         style="stop-color:#66d7f7;stop-opacity:1"
         offset="1"
         id="stop4370" />
    </linearGradient>
    <linearGradient
       inkscape:collect="always"
       xlink:href="#linearGradient14231"
       id="linearGradient14237"
       x1="50.707542"
       y1="81.682442"
       x2="50.707542"
       y2="96.539803"
       gradientUnits="userSpaceOnUse" />
    <linearGradient
       inkscape:collect="always"
       id="linearGradient14231">
      <stop
         style="stop-color:#000000;stop-opacity:1;"
         offset="0"
         id="stop14233" />
      <stop
         style="stop-color:#000000;stop-opacity:0;"
         offset="1"
         id="stop14235" />
    </linearGradient>
    <linearGradient
       inkscape:collect="always"
       xlink:href="#linearGradient14239"
       id="linearGradient14245"
       x1="49.876652"
       y1="87.937508"
       x2="49.876652"
       y2="76.719681"
       gradientUnits="userSpaceOnUse" />
    <linearGradient
       inkscape:collect="always"
       id="linearGradient14239">
      <stop
         style="stop-color:#ffffff;stop-opacity:1;"
         offset="0"
         id="stop14241" />
      <stop
         style="stop-color:#ffffff;stop-opacity:0;"
         offset="1"
         id="stop14243" />
    </linearGradient>
    <filter
       inkscape:collect="always"
       style="color-interpolation-filters:sRGB"
       id="filter14355"
       x="-0.080426388"
       width="1.1608528"
       y="-0.087905954"
       height="1.1758119">
      <feGaussianBlur
         inkscape:collect="always"
         stdDeviation="1.1728848"
         id="feGaussianBlur14357" />
    </filter>
    <linearGradient
       inkscape:collect="always"
       xlink:href="#linearGradient17258"
       id="linearGradient17264"
       x1="63.685078"
       y1="39.924084"
       x2="64.935074"
       y2="70.174088"
       gradientUnits="userSpaceOnUse" />
  </defs>
  <rect
     id="rect4364"
     transform="matrix(0,1,1,0,0,0)"
     width="88"
     height="88"
     y="4"
     rx="11.845899"
     x="4"
     style="opacity:0.1;fill:#000000;fill-opacity:1;stroke:none" />
  <rect
     style="opacity:0.1;fill:#000000;fill-opacity:1;stroke:none"
     x="4.5"
     rx="11.711287"
     y="4.5"
     height="87"
     width="87"
     transform="matrix(0,1,1,0,0,0)"
     id="rect4362" />
  <rect
     id="rect4360"
     transform="matrix(0,1,1,0,0,0)"
     width="86"
     height="86"
     y="5"
     rx="11.576674"
     x="5"
     style="opacity:0.1;fill:#000000;fill-opacity:1;stroke:none" />
  <rect
     style="fill:url(#linearGradient4348);fill-opacity:1;stroke:none"
     x="5.4987845"
     y="5.5"
     height="85"
     width="85"
     transform="matrix(0,1,1,0,0,0)"
     id="rect4300"
     rx="11.442062" />
  <rect
     id="rect4350"
     width="68.818123"
     visibility="visible"
     height="21.005625"
     y="14.873075"
     display="inline"
     x="15.38915"
     style="color:#000000;display:inline;visibility:visible;opacity:0.397;fill:#000000;fill-opacity:1;fill-rule:nonzero;stroke:none;stroke-width:2.5;filter:url(#filter4356)" />
  <rect
     style="color:#000000;display:inline;visibility:visible;fill:#ececec;fill-opacity:1;fill-rule:nonzero;stroke:none;stroke-width:2.5"
     x="15.38915"
     display="inline"
     y="14.873075"
     height="21.005625"
     visibility="visible"
     width="68.818123"
     id="rect4302" />
  <rect
     style="color:#000000;display:inline;visibility:visible;opacity:0.397;fill:#000000;fill-opacity:1;fill-rule:nonzero;stroke:none;stroke-width:2.5;filter:url(#filter4356)"
     x="10.499327"
     display="inline"
     y="21.632536"
     height="21.005625"
     visibility="visible"
     width="68.818123"
     id="rect14346" />
  <rect
     id="rect14348"
     width="68.818123"
     visibility="visible"
     height="21.005625"
     y="21.632536"
     display="inline"
     x="10.499327"
     style="color:#000000;display:inline;visibility:visible;fill:#ececec;fill-opacity:1;fill-rule:nonzero;stroke:none;stroke-width:2.5" />
  <path
     id="path14328"
     inkscape:connector-curvature="0"
     d="m 40.5625,22.667872 -8.765625,13.447266 -26.296875,0 0,41.205046 c 0,6.339088 5.11604,11.455132 11.455078,11.455132 l 62.089844,0 C 85.383961,88.775316 90.5,83.659272 90.5,77.320184 l 0,-54.652312 -49.9375,0 z"
     style="opacity:0.125;fill:#000000;fill-opacity:1;stroke:none;filter:url(#filter14336)" />
  <path
     style="fill:url(#linearGradient4372);fill-opacity:1;stroke:none"
     d="m 40.5625,24.393694 -8.765625,13.447266 -26.296875,0 0,41.205046 c 0,6.339088 5.11604,11.455132 11.455078,11.455132 l 62.089844,0 C 85.383961,90.501138 90.5,85.385094 90.5,79.046006 l 0,-54.652312 -49.9375,0 z"
     inkscape:connector-curvature="0"
     id="path4304" />
  <g
     id="g14291">
    <path
       d="m 5.2922679,73.685059 0,5.0663 c 0,6.668 5.3645011,12.032 12.0320011,12.032 l 61.049,0 c 6.668,0 12.032,-5.3645 12.032,-12.032 l 0,-5.0663 c 0,6.6681 -5.3645,12.032 -12.032,12.032 l -61.049,0 c -6.668,0 -12.0320011,-5.3643 -12.0320011,-12.032 z"
       id="path64"
       inkscape:connector-curvature="0"
       style="opacity:0.4;fill:url(#linearGradient14237);fill-opacity:1" />
    <path
       inkscape:connector-curvature="0"
       id="path14214"
       d="m 5.2929688,72.717592 0,1.15039 c 0,6.667718 5.3632502,12.031248 12.0312502,12.031248 l 61.048828,0 c 6.6675,0 12.03125,-5.36313 12.03125,-12.031248 l 0,-1.15039 c 0,6.668098 -5.36375,12.031248 -12.03125,12.031248 l -61.048828,0 c -6.668,0 -12.0312502,-5.36355 -12.0312502,-12.031248 z"
       style="opacity:0.5;fill:url(#linearGradient14245);fill-opacity:1" />
  </g>
  <path
     d="m 56.789428,41.163087 -10.471538,6.373963 7.094869,5.99459 10.281596,-6.336048 10.319439,6.355042 -10.319439,6.35497 7.094869,6.013584 10.395852,-6.639591 -7.11379,-5.728963 7.05688,-5.994589 -10.471538,-6.35497 -6.905145,5.956601 -6.962055,-5.994589 z m -3.452573,12.368771 -7.151779,5.747957 10.414774,6.639591 7.075874,-6.013584 -10.339088,-6.373964 z m 10.339088,7.588208 -7.075875,6.013512 -3.111114,-1.991841 0,0.910555 10.243753,7.132785 10.358009,-7.132785 0,-1.024375 -3.300765,2.105661 -7.11379,-6.013512 z"
     id="path13529"
     style="opacity:0.3;fill:#000000;fill-opacity:1;filter:url(#filter14355)"
     inkscape:connector-curvature="0" />
  <path
     inkscape:connector-curvature="0"
     style="opacity:1;fill:url(#linearGradient17264);fill-opacity:1"
     id="path75"
     d="m 56.789428,41.163087 -10.471538,6.373963 7.094869,5.99459 10.281596,-6.336048 10.319439,6.355042 -10.319439,6.35497 7.094869,6.013584 10.395852,-6.639591 -7.11379,-5.728963 7.05688,-5.994589 -10.471538,-6.35497 -6.905145,5.956601 -6.962055,-5.994589 z m -3.452573,12.368771 -7.151779,5.747957 10.414774,6.639591 7.075874,-6.013584 -10.339088,-6.373964 z m 10.339088,7.588208 -7.075875,6.013512 -3.111114,-1.991841 0,0.910555 10.243753,7.132785 10.358009,-7.132785 0,-1.024375 -3.300765,2.105661 -7.11379,-6.013512 z" />
</svg>
