<svg height="96" width="96" xmlns="http://www.w3.org/2000/svg" xmlns:xlink="http://www.w3.org/1999/xlink" xmlns:sodipodi="http://sodipodi.sourceforge.net/DTD/sodipodi-0.dtd" xmlns:inkscape="http://www.inkscape.org/namespaces/inkscape">
 <defs>
  <linearGradient x2="0" y1="20.221" y2="138.66" gradientUnits="userSpaceOnUse" id="linearGradient3613-3">
   <stop stop-color="#fff"/>
   <stop stop-color="#fff" stop-opacity="0" offset="1"/>
  </linearGradient>
  <clipPath id="clipPath3613-29">
   <rect x="6" rx="6" y="6" height="84" width="84"/>
  </clipPath>
  <filter x="-0.192" y="-0.192" height="1.384" color-interpolation-filters="sRGB" id="filter3794-0" width="1.384">
   <feGaussianBlur stdDeviation="5.28"/>
  </filter>
  <clipPath id="clipPath3860">
   <rect x="6" rx="6" y="18" height="72" width="84"/>
  </clipPath>
  <filter x="-0.166" y="-0.197" height="1.394" color-interpolation-filters="sRGB" id="filter3870" width="1.331">
   <feGaussianBlur stdDeviation="5.17031"/>
  </filter>
  <linearGradient x2="0" xlink:href="#linearGradient3613-3" y1="22.933" y2="81.48" gradientUnits="userSpaceOnUse" id="linearGradient5696"/>
  <linearGradient x1="93.01" x2="6.187" gradientUnits="userSpaceOnUse" id="linearGradient4640" gradientTransform="matrix(1 0 0 1 0 956.36)">
   <stop stop-color="#be8e4a" stop-opacity="0.077"/>
   <stop stop-color="#a67c25" offset="1"/>
  </linearGradient>
 </defs>
 <g transform="matrix(1 0 0 1 0 -956.36)">
  <rect x="3" rx="12.724" y="959.35" fill-opacity="0.02" height="89.98" width="89.98"/>
  <rect x="3.608" rx="12.552" y="959.96" fill-opacity="0.039" height="88.76" width="88.76"/>
  <rect x="4.216" rx="12.38" y="960.57" fill-opacity="0.078" height="87.55" width="87.55"/>
  <rect x="4.824" rx="12.208" y="961.18" fill-opacity="0.157" height="86.33" width="86.33"/>
  <path d="m17.469 961.77c-6.2512 0-11.355 4.7568-11.969 10.844v63.469c0.61364 6.0834 5.7175 10.812 11.969 10.812h61.031c6.4543 0 11.671-5.0367 12-11.406v-62.281c-0.32117-6.3771-5.5404-11.438-12-11.438h-61.031z" fill="#cc993d"/>
  <rect x="15" stroke-width="0.5" rx="12" y="15" clip-path="url(#clipPath3613-29)" fill="url(#linearGradient3613-3)" stroke="#fff" height="66" filter="url(#filter3794-0)" opacity="0.05" stroke-linecap="round" width="66" transform="matrix(1.0149 0 0 1.0238 -0.838 955.22)"/>
  <path d="m17.469 961.77c-6.2512 0-11.355 4.7568-11.969 10.844v63.469c0.07233 0.717 0.21463 1.4198 0.40625 2.0937-0.14675-1.3295-0.26905-2.6965-0.34375-4.0937v-49.281c0-2.3816 0.62452-7.9128 6.625-7.9189h12.75c4.9632 0 7.6402-0.55772 10.125 4.1689 3.0657 4.2041 4.006 4.8869 9.5625 4.2812h40.656c3.7739-0.0442 5.1676 1.5874 5.2188 5.4375v-17.562c-0.32117-6.3771-5.5404-11.438-12-11.438zm73.031 69.73c-0.04406 2.2078-0.18649 4.3503-0.40625 6.4063 0.21124-0.7976 0.36211-1.6143 0.40625-2.4688zm-1.0625 8.2813c-0.13416 0.2981-0.28057 0.5904-0.4375 0.875 0.1575-0.2841 0.30285-0.5773 0.4375-0.875zm-0.438 0.9c-0.15693 0.2845-0.32144 0.5427-0.5 0.8125 0.17482-0.2638 0.34595-0.5347 0.5-0.8125zm-81.906 0.25c0.15696 0.2676 0.32348 0.5274 0.5 0.7812-0.1807-0.2598-0.33982-0.5069-0.5-0.7812zm76.188 4.9375c-0.26128 0.1134-0.54176 0.2175-0.8125 0.3125 0.27423-0.096 0.5479-0.198 0.8125-0.3125zm-69.625 0.375c0.2786 0.093 0.55637 0.1773 0.84375 0.25-0.28437-0.072-0.56799-0.1586-0.84375-0.25zm67.625 0.2812c-0.24437 0.058-0.4999 0.1135-0.75 0.1563 0.25388-0.043 0.50195-0.097 0.75-0.1563z" fill="url(#linearGradient4640)"/>
  <path d="m28.25 976.71c-0.98771 0.0223-2.0717 0.10149-3.3125 0.10149h-12.75c-6.0005 0.007-6.625 6.9193-6.625 9.4989v0.81233c0-2.5796 0.62452-9.3619 6.625-9.3685h12.75c4.9632 0 7.7652 0.3123 10.125 4.6193 3.0657 4.5536 4.006 5.293 9.5625 4.6371h40.656c3.7739-0.0479 5.1676 1.7193 5.2188 5.8894v-0.8123c-0.05112-4.1701-1.4448-5.9373-5.2188-5.8894h-40.656c-5.5565 0.65596-6.4968-0.0835-9.5625-4.6371-1.8636-3.8396-3.8494-4.9182-6.8125-4.8513z" fill="#f9f9f9" opacity="0.55"/>
  <path d="m15.969 22.531c-2.8459 0.0043-5.4332 2.5916-5.4375 5.4375v48.062c0.0043 2.8459 2.5916 5.4332 5.4375 5.4375h64.062c2.8459-0.0043 5.4332-2.5916 5.4375-5.4375v-48.062c-0.0043-2.8459-2.5916-5.4332-5.4375-5.4375z" clip-path="url(#clipPath3860)" fill="url(#linearGradient5696)" filter="url(#filter3870)" opacity="0.15" transform="matrix(0.94641 0 0 0.84994 2.933 964.94)"/>
  <path d="m5.3323 1029.9v5.0663c0 6.668 5.3645 12.032 12.032 12.032h61.049c6.668 0 12.032-5.3645 12.032-12.032v-5.0663c0 6.6681-5.3645 12.032-12.032 12.032h-61.049c-6.668 0-12.032-5.3643-12.032-12.032z" fill-opacity="0.118"/>
  <path d="m5.3323 1033.9v1.0133c0 6.668 5.3645 12.032 12.032 12.032h61.049c6.668 0 12.032-5.3645 12.032-12.032v-1.0133c0 6.6681-5.3645 12.032-12.032 12.032h-61.049c-6.668 0-12.032-5.3644-12.032-12.032z" fill-opacity="0.098"/>
  <path d="m80.844 960.33-67.349 7.0934c-2.288 0.24105-3.971 2.2053-3.7486 4.3972l0.47251 4.5256c0.67306-0.20317 1.4364-0.32006 2.3311-0.32098h12.852c5.003 0 7.7016-1.0352 10.206 3.8195 3.0903 4.3181 4.0382 5.0193 9.6393 4.3973h40.983c0.44165-0.005 0.85026 0.0222 1.2285 0.0642l-2.11-20.45c-0.22243-2.1919-2.2166-3.7717-4.5046-3.5306z" fill-opacity="0.133" opacity="0.675"/>
  <path d="m80.844 961.26-67.349 7.0934c-2.288 0.24105-3.971 2.2053-3.7486 4.3972l0.37801 3.6269c0.69457-0.22131 1.4889-0.3521 2.4256-0.35307h12.852c5.003 0 7.7016-1.0352 10.206 3.8195 3.0903 4.3181 4.0382 5.0193 9.6393 4.3973h40.983c0.40776-0.005 0.7804 0.0289 1.134 0.0642l-2.016-19.52c-0.22243-2.1919-2.2166-3.7717-4.5046-3.5306z" fill-opacity="0.133" opacity="0.675"/>
  <path d="m80.221 961.83-66.812 7.0934c-2.2698 0.24103-3.9394 2.2053-3.7188 4.3972l0.28125 2.8566c0.70954-0.24011 1.5291-0.38416 2.5-0.38517h12.75c4.9632 0 7.6402-1.0352 10.125 3.8195 3.0657 4.3181 4.006 5.0193 9.5625 4.3973h40.656c0.37089-0.004 0.7056 0.035 1.0312 0.0642l-1.9062-18.712c-0.22066-2.1919-2.199-3.7717-4.4688-3.5306z" fill="#eaf0f8"/>
 </g>
</svg>
