<?xml version="1.0" encoding="UTF-8" standalone="no"?>
<svg
   xmlns:dc="http://purl.org/dc/elements/1.1/"
   xmlns:cc="http://creativecommons.org/ns#"
   xmlns:rdf="http://www.w3.org/1999/02/22-rdf-syntax-ns#"
   xmlns:svg="http://www.w3.org/2000/svg"
   xmlns="http://www.w3.org/2000/svg"
   xmlns:xlink="http://www.w3.org/1999/xlink"
   xmlns:sodipodi="http://sodipodi.sourceforge.net/DTD/sodipodi-0.dtd"
   xmlns:inkscape="http://www.inkscape.org/namespaces/inkscape"
   height="96"
   width="96"
   id="svg2"
   version="1.1"
   inkscape:version="0.91 r13725"
   sodipodi:docname="folder-ubuntu.svg">
  <metadata
     id="metadata91">
    <rdf:RDF>
      <cc:Work
         rdf:about="">
        <dc:format>image/svg+xml</dc:format>
        <dc:type
           rdf:resource="http://purl.org/dc/dcmitype/StillImage" />
      </cc:Work>
    </rdf:RDF>
  </metadata>
  <sodipodi:namedview
     pagecolor="#ffffff"
     bordercolor="#666666"
     borderopacity="1"
     objecttolerance="10"
     gridtolerance="10"
     guidetolerance="10"
     inkscape:pageopacity="0"
     inkscape:pageshadow="2"
     inkscape:window-width="1366"
     inkscape:window-height="716"
     id="namedview89"
     showgrid="false"
     inkscape:zoom="5.6568542"
     inkscape:cx="54.76269"
     inkscape:cy="60.892154"
     inkscape:window-x="0"
     inkscape:window-y="24"
     inkscape:window-maximized="1"
     inkscape:current-layer="svg2" />
  <defs
     id="defs4">
    <linearGradient
       inkscape:collect="always"
       id="linearGradient14300">
      <stop
         style="stop-color:#ffffff;stop-opacity:1;"
         offset="0"
         id="stop14302" />
      <stop
         style="stop-color:#e0e0e0;stop-opacity:1"
         offset="1"
         id="stop14304" />
    </linearGradient>
    <linearGradient
       x2="0"
       y1="20.221"
       y2="138.66"
       gradientUnits="userSpaceOnUse"
       id="linearGradient3613-3">
      <stop
         stop-color="#fff"
         id="stop7" />
      <stop
         stop-color="#fff"
         stop-opacity="0"
         offset="1"
         id="stop9" />
    </linearGradient>
    <clipPath
       id="clipPath3613-29">
      <use
         xlink:href="#SVGCleanerId_1"
         id="use12" />
    </clipPath>
    <filter
       x="-0.192"
       y="-0.192"
       height="1.384"
       color-interpolation-filters="sRGB"
       id="filter3794-0"
       width="1.384">
      <feGaussianBlur
         stdDeviation="5.28"
         id="feGaussianBlur15" />
    </filter>
    <clipPath
       id="clipPath3613-25">
      <use
         xlink:href="#SVGCleanerId_1"
         id="use18" />
    </clipPath>
    <clipPath
       id="clipPath3860">
      <rect
         x="6"
         rx="6"
         y="18"
         height="72"
         width="84"
         id="rect21" />
    </clipPath>
    <filter
       x="-0.166"
       y="-0.197"
       height="1.394"
       color-interpolation-filters="sRGB"
       id="filter3870"
       width="1.331">
      <feGaussianBlur
         stdDeviation="5.17031"
         id="feGaussianBlur24" />
    </filter>
    <linearGradient
       x2="0"
       xlink:href="#linearGradient3613-3"
       y1="22.933"
       y2="81.48"
       gradientUnits="userSpaceOnUse"
       id="linearGradient5696" />
    <linearGradient
       x1="93.01"
       x2="6.187"
       gradientUnits="userSpaceOnUse"
       id="linearGradient4640"
       gradientTransform="translate(-109.42373,-7.32203)">
      <stop
         stop-color="#be8e4a"
         stop-opacity="0.077"
         id="stop28" />
      <stop
         stop-color="#a67c25"
         offset="1"
         id="stop30" />
    </linearGradient>
    <linearGradient
       x2="0"
       y1="75.81"
       y2="32.19"
       gradientUnits="userSpaceOnUse"
       id="linearGradient3092-6"
       gradientTransform="matrix(1.0742 0 0 1.0741 -3.263 -6.105)">
      <stop
         stop-color="#aa7932"
         stop-opacity="0.784"
         id="stop33" />
      <stop
         stop-color="#aa7932"
         stop-opacity="0.392"
         offset="1"
         id="stop35" />
    </linearGradient>
    <rect
       x="15"
       stroke-width="0.5"
       rx="12"
       y="15"
       fill="url(#linearGradient3613-3)"
       stroke="#fff"
       height="66"
       filter="url(#filter3794-0)"
       id="SVGCleanerId_0"
       width="66"
       stroke-linecap="round" />
    <rect
       x="6"
       rx="6"
       y="6"
       height="84"
       id="SVGCleanerId_1"
       width="84" />
    <linearGradient
       inkscape:collect="always"
       xlink:href="#linearGradient4342"
       id="linearGradient4348"
       x1="5.4987845"
       y1="48"
       x2="90.498787"
       y2="48"
       gradientUnits="userSpaceOnUse" />
    <linearGradient
       inkscape:collect="always"
       id="linearGradient4342">
      <stop
         style="stop-color:#3ebcf3;stop-opacity:1"
         offset="0"
         id="stop4344" />
      <stop
         style="stop-color:#005285;stop-opacity:1"
         offset="1"
         id="stop4346" />
    </linearGradient>
    <filter
       inkscape:collect="always"
       style="color-interpolation-filters:sRGB"
       id="filter4356"
       x="-0.03994016"
       width="1.0798804"
       y="-0.13085099"
       height="1.2617019">
      <feGaussianBlur
         inkscape:collect="always"
         stdDeviation="1.1452528"
         id="feGaussianBlur4358" />
    </filter>
    <filter
       inkscape:collect="always"
       style="color-interpolation-filters:sRGB"
       id="filter14336"
       x="-0.021332815"
       width="1.0426656"
       y="-0.027429426"
       height="1.0548589">
      <feGaussianBlur
         inkscape:collect="always"
         stdDeviation="0.75553722"
         id="feGaussianBlur14338" />
    </filter>
    <linearGradient
       inkscape:collect="always"
       xlink:href="#linearGradient4366"
       id="linearGradient4372"
       x1="52.384773"
       y1="88.512177"
       x2="52.384773"
       y2="26.095018"
       gradientUnits="userSpaceOnUse" />
    <linearGradient
       inkscape:collect="always"
       id="linearGradient4366">
      <stop
         style="stop-color:#389edd;stop-opacity:1"
         offset="0"
         id="stop4368" />
      <stop
         style="stop-color:#66d7f7;stop-opacity:1"
         offset="1"
         id="stop4370" />
    </linearGradient>
    <linearGradient
       inkscape:collect="always"
       xlink:href="#linearGradient14231"
       id="linearGradient14237"
       x1="50.707542"
       y1="81.682442"
       x2="50.707542"
       y2="96.539803"
       gradientUnits="userSpaceOnUse" />
    <linearGradient
       inkscape:collect="always"
       id="linearGradient14231">
      <stop
         style="stop-color:#000000;stop-opacity:1;"
         offset="0"
         id="stop14233" />
      <stop
         style="stop-color:#000000;stop-opacity:0;"
         offset="1"
         id="stop14235" />
    </linearGradient>
    <linearGradient
       inkscape:collect="always"
       xlink:href="#linearGradient14239"
       id="linearGradient14245"
       x1="49.876652"
       y1="87.937508"
       x2="49.876652"
       y2="76.719681"
       gradientUnits="userSpaceOnUse" />
    <linearGradient
       inkscape:collect="always"
       id="linearGradient14239">
      <stop
         style="stop-color:#ffffff;stop-opacity:1;"
         offset="0"
         id="stop14241" />
      <stop
         style="stop-color:#ffffff;stop-opacity:0;"
         offset="1"
         id="stop14243" />
    </linearGradient>
    <filter
       inkscape:collect="always"
       style="color-interpolation-filters:sRGB"
       id="filter14290"
       x="-0.084509252"
       width="1.1690185"
       y="-0.083496848"
       height="1.1669937">
      <feGaussianBlur
         inkscape:collect="always"
         stdDeviation="1.2176624"
         id="feGaussianBlur14292" />
    </filter>
    <linearGradient
       inkscape:collect="always"
       xlink:href="#linearGradient14300"
       id="linearGradient14306"
       x1="71.952744"
       y1="38.960602"
       x2="71.952744"
       y2="69.366196"
       gradientUnits="userSpaceOnUse" />
  </defs>
  <rect
     id="rect4364"
     transform="matrix(0,1,1,0,0,0)"
     width="88"
     height="88"
     y="4"
     rx="11.845899"
     x="4"
     style="opacity:0.1;fill:#000000;fill-opacity:1;stroke:none" />
  <rect
     style="opacity:0.1;fill:#000000;fill-opacity:1;stroke:none"
     x="4.5"
     rx="11.711287"
     y="4.5"
     height="87"
     width="87"
     transform="matrix(0,1,1,0,0,0)"
     id="rect4362" />
  <rect
     id="rect4360"
     transform="matrix(0,1,1,0,0,0)"
     width="86"
     height="86"
     y="5"
     rx="11.576674"
     x="5"
     style="opacity:0.1;fill:#000000;fill-opacity:1;stroke:none" />
  <rect
     style="fill:url(#linearGradient4348);fill-opacity:1;stroke:none"
     x="5.4987845"
     y="5.5"
     height="85"
     width="85"
     transform="matrix(0,1,1,0,0,0)"
     id="rect4300"
     rx="11.442062" />
  <rect
     id="rect4350"
     width="68.818123"
     visibility="visible"
     height="21.005625"
     y="14.873075"
     display="inline"
     x="15.38915"
     style="color:#000000;display:inline;visibility:visible;opacity:0.397;fill:#000000;fill-opacity:1;fill-rule:nonzero;stroke:none;stroke-width:2.5;filter:url(#filter4356)" />
  <rect
     style="color:#000000;display:inline;visibility:visible;fill:#ececec;fill-opacity:1;fill-rule:nonzero;stroke:none;stroke-width:2.5"
     x="15.38915"
     display="inline"
     y="14.873075"
     height="21.005625"
     visibility="visible"
     width="68.818123"
     id="rect4302" />
  <rect
     style="color:#000000;display:inline;visibility:visible;opacity:0.397;fill:#000000;fill-opacity:1;fill-rule:nonzero;stroke:none;stroke-width:2.5;filter:url(#filter4356)"
     x="10.499327"
     display="inline"
     y="21.632536"
     height="21.005625"
     visibility="visible"
     width="68.818123"
     id="rect14346" />
  <rect
     id="rect14348"
     width="68.818123"
     visibility="visible"
     height="21.005625"
     y="21.632536"
     display="inline"
     x="10.499327"
     style="color:#000000;display:inline;visibility:visible;fill:#ececec;fill-opacity:1;fill-rule:nonzero;stroke:none;stroke-width:2.5" />
  <path
     id="path14328"
     inkscape:connector-curvature="0"
     d="m 40.5625,22.667872 -8.765625,13.447266 -26.296875,0 0,41.205046 c 0,6.339088 5.11604,11.455132 11.455078,11.455132 l 62.089844,0 C 85.383961,88.775316 90.5,83.659272 90.5,77.320184 l 0,-54.652312 -49.9375,0 z"
     style="opacity:0.125;fill:#000000;fill-opacity:1;stroke:none;filter:url(#filter14336)" />
  <path
     style="fill:url(#linearGradient4372);fill-opacity:1;stroke:none"
     d="m 40.5625,24.393694 -8.765625,13.447266 -26.296875,0 0,41.205046 c 0,6.339088 5.11604,11.455132 11.455078,11.455132 l 62.089844,0 C 85.383961,90.501138 90.5,85.385094 90.5,79.046006 l 0,-54.652312 -49.9375,0 z"
     inkscape:connector-curvature="0"
     id="path4304" />
  <g
     id="g14291">
    <path
       d="m 5.2922679,73.685059 0,5.0663 c 0,6.668 5.3645011,12.032 12.0320011,12.032 l 61.049,0 c 6.668,0 12.032,-5.3645 12.032,-12.032 l 0,-5.0663 c 0,6.6681 -5.3645,12.032 -12.032,12.032 l -61.049,0 c -6.668,0 -12.0320011,-5.3643 -12.0320011,-12.032 z"
       id="path64"
       inkscape:connector-curvature="0"
       style="opacity:0.4;fill:url(#linearGradient14237);fill-opacity:1" />
    <path
       inkscape:connector-curvature="0"
       id="path14214"
       d="m 5.2929688,72.717592 0,1.15039 c 0,6.667718 5.3632502,12.031248 12.0312502,12.031248 l 61.048828,0 c 6.6675,0 12.03125,-5.36313 12.03125,-12.031248 l 0,-1.15039 c 0,6.668098 -5.36375,12.031248 -12.03125,12.031248 l -61.048828,0 c -6.668,0 -12.0312502,-5.36355 -12.0312502,-12.031248 z"
       style="opacity:0.5;fill:url(#linearGradient14245);fill-opacity:1" />
  </g>
  <path
     inkscape:connector-curvature="0"
     style="opacity:0.3;fill:#000000;fill-opacity:1;filter:url(#filter14290)"
     id="path13460"
     d="m 74.273881,38.077609 c -1.957992,0 -3.543418,1.586981 -3.543418,3.543344 0,1.956363 1.585426,3.543344 3.543418,3.543344 1.957992,0 3.543418,-1.586981 3.543418,-3.543344 0,-1.956363 -1.585426,-3.543344 -3.543418,-3.543344 z m -7.483174,2.775181 c -2.185265,2.82e-4 -4.400743,0.551792 -6.393022,1.536253 -0.07085,0.03514 -0.115028,0.0975 -0.136282,0.17345 -0.02154,0.07595 -0.01716,0.156128 0.02478,0.223006 l 2.874413,4.546852 c 0.07283,0.115621 0.220799,0.164497 0.346906,0.111503 1.063863,-0.449731 2.167788,-0.669019 3.283267,-0.669019 4.10297,0 7.682379,3.040293 8.32591,7.07432 0.02153,0.13546 0.135689,0.235396 0.27257,0.235396 l 5.401882,0 c 0.07878,0 0.157632,-0.02835 0.210625,-0.08672 0.05299,-0.05837 0.0817,-0.131839 0.07434,-0.210618 -0.291329,-2.993122 -1.570985,-5.891083 -3.59296,-8.140034 -0.09125,-0.102017 -0.243957,-0.111696 -0.359296,-0.03718 -0.815336,0.526533 -1.740421,0.80534 -2.67617,0.80534 -2.729933,0 -4.943189,-2.217775 -4.943412,-4.930971 2.83e-4,-0.0014 0,-0.09458 0,-0.09911 0,-0.135178 -0.101358,-0.261715 -0.235403,-0.284953 -0.853549,-0.147924 -1.682141,-0.247785 -2.477927,-0.247785 z m -8.672483,2.973422 c -0.03741,0.0092 -0.08076,0.02562 -0.111504,0.04956 -2.343074,1.804626 -4.100231,4.342536 -4.955853,7.148671 -0.03344,0.109675 -0.0036,0.225932 0.08673,0.297342 1.177461,0.932638 1.883197,2.368179 1.883197,3.840671 0,1.472494 -0.705432,2.908034 -1.883197,3.840672 -0.08984,0.07113 -0.120168,0.187387 -0.08673,0.297342 0.848735,2.782586 2.592118,5.310795 4.906237,7.111497 0.06207,0.04846 0.132972,0.07555 0.210625,0.06195 0.07737,-0.01333 0.14362,-0.07026 0.185846,-0.136282 l 2.899146,-4.534485 c 0.07397,-0.115902 0.05388,-0.26832 -0.04956,-0.359288 -1.816253,-1.598015 -2.861971,-3.889325 -2.861971,-6.281423 0,-2.409945 1.051495,-4.707549 2.886779,-6.306157 0.103439,-0.0904 0.135349,-0.242816 0.06196,-0.359288 l -2.874413,-4.546852 c -0.04194,-0.06632 -0.108475,-0.11029 -0.185846,-0.123893 -0.03869,-0.0068 -0.0741,-0.0092 -0.111504,0 z m -7.991186,7.780871 c -2.003832,0 -3.630135,1.627711 -3.630135,3.630063 0,2.002424 1.626303,3.617694 3.630135,3.617694 2.003832,0 3.630135,-1.61527 3.630135,-3.617694 0,-2.002426 -1.626303,-3.630063 -3.630135,-3.630063 z m 30.66435,4.683186 -5.401881,0.01239 c -0.136311,2.83e-4 -0.263137,0.101069 -0.28496,0.235396 -0.652084,4.00396 -4.221754,7.024778 -8.313321,7.024778 -1.128438,0 -2.244656,-0.233019 -3.320442,-0.693798 -0.125825,-0.05356 -0.27294,-0.01565 -0.346906,0.09911 l -2.899147,4.546853 c -0.04223,0.0666 -0.04575,0.146775 -0.02478,0.223006 0.02097,0.07595 0.06573,0.138311 0.136289,0.17345 2.007831,1.005137 4.244489,1.536254 6.454931,1.536254 0.819854,0 1.675772,-0.08208 2.539837,-0.235396 0.121293,-0.02125 0.208558,-0.113259 0.223014,-0.235396 0.287922,-2.48674 2.390987,-4.36105 4.893869,-4.36105 0.77594,0 1.57454,0.195836 2.292051,0.569905 0.109104,0.05696 0.235692,0.03858 0.322129,-0.04956 2.262872,-2.307602 3.693451,-5.350043 4.014253,-8.548813 0.0079,-0.0785 -0.02105,-0.15196 -0.07434,-0.210618 -0.05329,-0.05867 -0.131839,-0.08701 -0.210625,-0.08672 z m -6.381247,9.576685 c -2.003832,0 -3.630136,1.613197 -3.630136,3.605328 0,1.992057 1.626304,3.605327 3.630136,3.605327 2.003832,0 3.630135,-1.613196 3.630135,-3.605327 0,-1.992058 -1.626303,-3.605328 -3.630135,-3.605328 z" />
  <path
     d="m 74.273881,38.077609 c -1.957992,0 -3.543418,1.586981 -3.543418,3.543344 0,1.956363 1.585426,3.543344 3.543418,3.543344 1.957992,0 3.543418,-1.586981 3.543418,-3.543344 0,-1.956363 -1.585426,-3.543344 -3.543418,-3.543344 z m -7.483174,2.775181 c -2.185265,2.82e-4 -4.400743,0.551792 -6.393022,1.536253 -0.07085,0.03514 -0.115028,0.0975 -0.136282,0.17345 -0.02154,0.07595 -0.01716,0.156128 0.02478,0.223006 l 2.874413,4.546852 c 0.07283,0.115621 0.220799,0.164497 0.346906,0.111503 1.063863,-0.449731 2.167788,-0.669019 3.283267,-0.669019 4.10297,0 7.682379,3.040293 8.32591,7.07432 0.02153,0.13546 0.135689,0.235396 0.27257,0.235396 l 5.401882,0 c 0.07878,0 0.157632,-0.02835 0.210625,-0.08672 0.05299,-0.05837 0.0817,-0.131839 0.07434,-0.210618 -0.291329,-2.993122 -1.570985,-5.891083 -3.59296,-8.140034 -0.09125,-0.102017 -0.243957,-0.111696 -0.359296,-0.03718 -0.815336,0.526533 -1.740421,0.80534 -2.67617,0.80534 -2.729933,0 -4.943189,-2.217775 -4.943412,-4.930971 2.83e-4,-0.0014 0,-0.09458 0,-0.09911 0,-0.135178 -0.101358,-0.261715 -0.235403,-0.284953 -0.853549,-0.147924 -1.682141,-0.247785 -2.477927,-0.247785 z m -8.672483,2.973422 c -0.03741,0.0092 -0.08076,0.02562 -0.111504,0.04956 -2.343074,1.804626 -4.100231,4.342536 -4.955853,7.148671 -0.03344,0.109675 -0.0036,0.225932 0.08673,0.297342 1.177461,0.932638 1.883197,2.368179 1.883197,3.840671 0,1.472494 -0.705432,2.908034 -1.883197,3.840672 -0.08984,0.07113 -0.120168,0.187387 -0.08673,0.297342 0.848735,2.782586 2.592118,5.310795 4.906237,7.111497 0.06207,0.04846 0.132972,0.07555 0.210625,0.06195 0.07737,-0.01333 0.14362,-0.07026 0.185846,-0.136282 l 2.899146,-4.534485 c 0.07397,-0.115902 0.05388,-0.26832 -0.04956,-0.359288 -1.816253,-1.598015 -2.861971,-3.889325 -2.861971,-6.281423 0,-2.409945 1.051495,-4.707549 2.886779,-6.306157 0.103439,-0.0904 0.135349,-0.242816 0.06196,-0.359288 l -2.874413,-4.546852 c -0.04194,-0.06632 -0.108475,-0.11029 -0.185846,-0.123893 -0.03869,-0.0068 -0.0741,-0.0092 -0.111504,0 z m -7.991186,7.780871 c -2.003832,0 -3.630135,1.627711 -3.630135,3.630063 0,2.002424 1.626303,3.617694 3.630135,3.617694 2.003832,0 3.630135,-1.61527 3.630135,-3.617694 0,-2.002426 -1.626303,-3.630063 -3.630135,-3.630063 z m 30.66435,4.683186 -5.401881,0.01239 c -0.136311,2.83e-4 -0.263137,0.101069 -0.28496,0.235396 -0.652084,4.00396 -4.221754,7.024778 -8.313321,7.024778 -1.128438,0 -2.244656,-0.233019 -3.320442,-0.693798 -0.125825,-0.05356 -0.27294,-0.01565 -0.346906,0.09911 l -2.899147,4.546853 c -0.04223,0.0666 -0.04575,0.146775 -0.02478,0.223006 0.02097,0.07595 0.06573,0.138311 0.136289,0.17345 2.007831,1.005137 4.244489,1.536254 6.454931,1.536254 0.819854,0 1.675772,-0.08208 2.539837,-0.235396 0.121293,-0.02125 0.208558,-0.113259 0.223014,-0.235396 0.287922,-2.48674 2.390987,-4.36105 4.893869,-4.36105 0.77594,0 1.57454,0.195836 2.292051,0.569905 0.109104,0.05696 0.235692,0.03858 0.322129,-0.04956 2.262872,-2.307602 3.693451,-5.350043 4.014253,-8.548813 0.0079,-0.0785 -0.02105,-0.15196 -0.07434,-0.210618 -0.05329,-0.05867 -0.131839,-0.08701 -0.210625,-0.08672 z m -6.381247,9.576685 c -2.003832,0 -3.630136,1.613197 -3.630136,3.605328 0,1.992057 1.626304,3.605327 3.630136,3.605327 2.003832,0 3.630135,-1.613196 3.630135,-3.605327 0,-1.992058 -1.626303,-3.605328 -3.630135,-3.605328 z"
     id="path79"
     style="opacity:1;fill:url(#linearGradient14306);fill-opacity:1"
     inkscape:connector-curvature="0" />
</svg>
