<svg height="16" width="16" xmlns="http://www.w3.org/2000/svg" xmlns:sodipodi="http://sodipodi.sourceforge.net/DTD/sodipodi-0.dtd" xmlns:inkscape="http://www.inkscape.org/namespaces/inkscape">
 <path d="M 1.75,0 C 1.3345,0 1,0.3345 1,0.75 l 0,13.5 C 1,14.6655 1.3345,15 1.75,15 l 12.5,0 C 14.6655,15 15,14.6655 15,14.25 L 15,0.75 C 15,0.3345 14.6655,0 14.25,0 L 1.75,0 z M 2,1 3,1 3,2 2,2 2,1 z m 2.5,0 7,0 C 11.777,1 12,1.223 12,1.5 l 0,5 C 12,6.777 11.777,7 11.5,7 l -7,0 C 4.223,7 4,6.777 4,6.5 l 0,-5 C 4,1.223 4.223,1 4.5,1 z m 8.5,0 1,0 0,1 -1,0 0,-1 z M 2,3 3,3 3,4 2,4 2,3 z m 11,0 1,0 0,1 -1,0 0,-1 z M 2,5 3,5 3,6 2,6 2,5 z m 11,0 1,0 0,1 -1,0 0,-1 z M 2,7 3,7 3,8 2,8 2,7 z m 11,0 1,0 0,1 -1,0 0,-1 z m -8.5,1 7,0 C 11.777,8 12,8.223 12,8.5 l 0,5 c 0,0.277 -0.223,0.5 -0.5,0.5 l -7,0 C 4.223,14 4,13.777 4,13.5 l 0,-5 C 4,8.223 4.223,8 4.5,8 z M 2,9 3,9 3,10 2,10 2,9 z m 11,0 1,0 0,1 -1,0 0,-1 z m -11,2 1,0 0,1 -1,0 0,-1 z m 11,0 1,0 0,1 -1,0 0,-1 z m -11,2 1,0 0,1 -1,0 0,-1 z m 11,0 1,0 0,1 -1,0 0,-1 z" stroke-width="1" display="inline" fill="#bebebe" color="#bebebe" fill-opacity="1" fill-rule="nonzero" stroke="none" visibility="visible" inkscape:connector-curvature="0"/>
</svg>
