<?xml version="1.0" encoding="UTF-8" standalone="no"?>
<svg
   xmlns:dc="http://purl.org/dc/elements/1.1/"
   xmlns:cc="http://creativecommons.org/ns#"
   xmlns:rdf="http://www.w3.org/1999/02/22-rdf-syntax-ns#"
   xmlns:svg="http://www.w3.org/2000/svg"
   xmlns="http://www.w3.org/2000/svg"
   xmlns:xlink="http://www.w3.org/1999/xlink"
   xmlns:sodipodi="http://sodipodi.sourceforge.net/DTD/sodipodi-0.dtd"
   xmlns:inkscape="http://www.inkscape.org/namespaces/inkscape"
   height="96"
   width="96"
   id="svg2"
   version="1.1"
   inkscape:version="0.91 r13725"
   sodipodi:docname="folder-open.svg">
  <metadata
     id="metadata61">
    <rdf:RDF>
      <cc:Work
         rdf:about="">
        <dc:format>image/svg+xml</dc:format>
        <dc:type
           rdf:resource="http://purl.org/dc/dcmitype/StillImage" />
      </cc:Work>
    </rdf:RDF>
  </metadata>
  <sodipodi:namedview
     pagecolor="#ffffff"
     bordercolor="#666666"
     borderopacity="1"
     objecttolerance="10"
     gridtolerance="10"
     guidetolerance="10"
     inkscape:pageopacity="0"
     inkscape:pageshadow="2"
     inkscape:window-width="1366"
     inkscape:window-height="716"
     id="namedview59"
     showgrid="false"
     inkscape:zoom="3.4766083"
     inkscape:cx="-2.6333698"
     inkscape:cy="64.492465"
     inkscape:window-x="0"
     inkscape:window-y="24"
     inkscape:window-maximized="1"
     inkscape:current-layer="svg2" />
  <defs
     id="defs4">
    <linearGradient
       x2="0"
       y1="20.221"
       y2="138.66"
       gradientUnits="userSpaceOnUse"
       id="linearGradient3613-3">
      <stop
         stop-color="#fff"
         id="stop7" />
      <stop
         stop-color="#fff"
         stop-opacity="0"
         offset="1"
         id="stop9" />
    </linearGradient>
    <clipPath
       id="clipPath3613-29">
      <rect
         x="6"
         rx="6"
         y="6"
         height="84"
         width="84"
         id="rect12" />
    </clipPath>
    <filter
       x="-0.192"
       y="-0.192"
       height="1.384"
       color-interpolation-filters="sRGB"
       id="filter3794-0"
       width="1.384">
      <feGaussianBlur
         stdDeviation="5.28"
         id="feGaussianBlur15" />
    </filter>
    <clipPath
       id="clipPath3860">
      <rect
         x="6"
         rx="6"
         y="18"
         height="72"
         width="84"
         id="rect18" />
    </clipPath>
    <filter
       x="-0.166"
       y="-0.197"
       height="1.394"
       color-interpolation-filters="sRGB"
       id="filter3870"
       width="1.331">
      <feGaussianBlur
         stdDeviation="5.17031"
         id="feGaussianBlur21" />
    </filter>
    <linearGradient
       x2="0"
       xlink:href="#linearGradient3613-3"
       y1="22.933"
       y2="81.48"
       gradientUnits="userSpaceOnUse"
       id="linearGradient5696" />
    <linearGradient
       x1="93.01"
       x2="6.187"
       gradientUnits="userSpaceOnUse"
       id="linearGradient4640"
       gradientTransform="translate(0,956.36)">
      <stop
         stop-color="#be8e4a"
         stop-opacity="0.077"
         id="stop25" />
      <stop
         stop-color="#a67c25"
         offset="1"
         id="stop27" />
    </linearGradient>
    <linearGradient
       inkscape:collect="always"
       xlink:href="#linearGradient4342"
       id="linearGradient4348"
       x1="5.4987845"
       y1="48"
       x2="90.498787"
       y2="48"
       gradientUnits="userSpaceOnUse" />
    <linearGradient
       inkscape:collect="always"
       id="linearGradient4342">
      <stop
         style="stop-color:#3eadf3;stop-opacity:1;"
         offset="0"
         id="stop4344" />
      <stop
         style="stop-color:#005285;stop-opacity:1"
         offset="1"
         id="stop4346" />
    </linearGradient>
    <linearGradient
       inkscape:collect="always"
       xlink:href="#linearGradient4366"
       id="linearGradient4372"
       x1="52.384773"
       y1="88.512177"
       x2="52.384773"
       y2="26.095018"
       gradientUnits="userSpaceOnUse" />
    <linearGradient
       inkscape:collect="always"
       id="linearGradient4366">
      <stop
         style="stop-color:#389edd;stop-opacity:1"
         offset="0"
         id="stop4368" />
      <stop
         style="stop-color:#66bff7;stop-opacity:1"
         offset="1"
         id="stop4370" />
    </linearGradient>
    <linearGradient
       inkscape:collect="always"
       xlink:href="#linearGradient4334"
       id="linearGradient4340"
       x1="44.359856"
       y1="-20.334562"
       x2="45.070312"
       y2="45.913132"
       gradientUnits="userSpaceOnUse" />
    <linearGradient
       inkscape:collect="always"
       id="linearGradient4334">
      <stop
         style="stop-color:white;stop-opacity:1;"
         offset="0"
         id="stop4336" />
      <stop
         style="stop-color:white;stop-opacity:0;"
         offset="1"
         id="stop4338" />
    </linearGradient>
    <filter
       inkscape:collect="always"
       style="color-interpolation-filters:sRGB"
       id="filter4390"
       x="-0.061865166"
       width="1.1237303"
       y="-0.079545341"
       height="1.1590908">
      <feGaussianBlur
         inkscape:collect="always"
         stdDeviation="1.8044006"
         id="feGaussianBlur4392" />
    </filter>
    <filter
       inkscape:collect="always"
       style="color-interpolation-filters:sRGB"
       id="filter4257"
       x="-0.048614862"
       width="1.0972297"
       y="-0.097137109"
       height="1.1942742">
      <feGaussianBlur
         inkscape:collect="always"
         stdDeviation="1.4645354"
         id="feGaussianBlur4259" />
    </filter>
  </defs>
  <rect
     id="rect4364"
     transform="matrix(0,1,1,0,0,0)"
     width="88"
     height="88"
     y="4"
     rx="11.845899"
     x="4"
     style="opacity:0.1;fill:black;fill-opacity:1;stroke:none" />
  <rect
     style="opacity:0.1;fill:black;fill-opacity:1;stroke:none"
     x="4.5"
     rx="11.711287"
     y="4.5"
     height="87"
     width="87"
     transform="matrix(0,1,1,0,0,0)"
     id="rect4362" />
  <rect
     id="rect4360"
     transform="matrix(0,1,1,0,0,0)"
     width="86"
     height="86"
     y="5"
     rx="11.576674"
     x="5"
     style="opacity:0.1;fill:black;fill-opacity:1;stroke:none" />
  <rect
     style="fill:url(#linearGradient4348);fill-opacity:1;stroke:none"
     x="5.4987845"
     rx="11.442062"
     y="5.5"
     height="85"
     width="85"
     transform="matrix(0,1,1,0,0,0)"
     id="rect4300" />
  <rect
     transform="matrix(0.99031639,-0.13882888,0.13196332,0.9912546,0,0)"
     id="rect4251"
     width="69.437561"
     visibility="visible"
     height="26.778158"
     y="16.95405"
     display="inline"
     x="9.1964216"
     style="color:black;display:inline;visibility:visible;fill:black;fill-opacity:1;fill-rule:nonzero;stroke:none;stroke-width:2.5;filter:url(#filter4257);opacity:0.681" />
  <rect
     style="color:black;display:inline;visibility:visible;fill:#e6e6e6;fill-opacity:1;fill-rule:nonzero;stroke:none;stroke-width:2.5"
     x="9.1964216"
     display="inline"
     y="16.95405"
     height="26.778158"
     visibility="visible"
     width="69.437561"
     id="rect4302"
     transform="matrix(0.99031639,-0.13882888,0.13196332,0.9912546,0,0)" />
  <path
     style="fill:url(#linearGradient4372);fill-opacity:1;stroke:none"
     d="m 40.5625,24.393694 -8.765625,13.447266 -26.296875,0 0,41.205046 c 0,6.339088 5.11604,11.455132 11.455078,11.455132 l 62.089844,0 C 85.383961,90.501138 90.5,85.385094 90.5,79.046006 l 0,-54.652312 -49.9375,0 z"
     inkscape:connector-curvature="0"
     id="path4304" />
  <path
     style="fill:url(#linearGradient4340);fill-opacity:1;stroke:none"
     d="m 40.562499,24.393694 -8.76562,13.447266 -26.296879,0 0,2.300781 26.007809,0 8.76563,-13.447266 49.937504,0 0,54.652344 c 0,0.0969 -0.0113,0.1908 -0.0137,0.28711 0.19156,-0.832341 0.30273,-1.696334 0.30273,-2.587891 l 0,-54.652344 -49.937504,0 z"
     id="path4319"
     inkscape:connector-curvature="0" />
  <path
     style="fill-opacity:0.11799999"
     inkscape:connector-curvature="0"
     id="path64"
     d="m 5.2922679,73.685059 0,5.0663 c 0,6.668 5.3645011,12.032 12.0320011,12.032 l 61.049,0 c 6.668,0 12.032,-5.3645 12.032,-12.032 l 0,-5.0663 c 0,6.6681 -5.3645,12.032 -12.032,12.032 l -61.049,0 c -6.668,0 -12.0320011,-5.3643 -12.0320011,-12.032 z" />
  <path
     id="path4374"
     inkscape:connector-curvature="0"
     d="m 42.716463,29.731708 -7.21875,11.074219 -21.65625,0 0,33.933567 c 0,5.220425 4.213209,9.433638 9.433594,9.433638 l 51.132812,0 c 5.220385,0 9.433594,-4.213213 9.433594,-9.433638 l 0,-45.007786 -41.125,0 z"
     style="opacity:0.08900003;fill:white;fill-opacity:1;stroke:none;filter:url(#filter4390)" />
</svg>
