<?xml version="1.0" encoding="UTF-8" standalone="no"?>
<svg
   xmlns:dc="http://purl.org/dc/elements/1.1/"
   xmlns:cc="http://creativecommons.org/ns#"
   xmlns:rdf="http://www.w3.org/1999/02/22-rdf-syntax-ns#"
   xmlns:svg="http://www.w3.org/2000/svg"
   xmlns="http://www.w3.org/2000/svg"
   xmlns:xlink="http://www.w3.org/1999/xlink"
   xmlns:sodipodi="http://sodipodi.sourceforge.net/DTD/sodipodi-0.dtd"
   xmlns:inkscape="http://www.inkscape.org/namespaces/inkscape"
   height="96"
   width="96"
   id="svg2"
   version="1.1"
   inkscape:version="0.91 r13725"
   sodipodi:docname="folder-saved-search.svg">
  <metadata
     id="metadata91">
    <rdf:RDF>
      <cc:Work
         rdf:about="">
        <dc:format>image/svg+xml</dc:format>
        <dc:type
           rdf:resource="http://purl.org/dc/dcmitype/StillImage" />
      </cc:Work>
    </rdf:RDF>
  </metadata>
  <sodipodi:namedview
     pagecolor="#ffffff"
     bordercolor="#666666"
     borderopacity="1"
     objecttolerance="10"
     gridtolerance="10"
     guidetolerance="10"
     inkscape:pageopacity="0"
     inkscape:pageshadow="2"
     inkscape:window-width="1366"
     inkscape:window-height="716"
     id="namedview89"
     showgrid="false"
     inkscape:zoom="2"
     inkscape:cx="74.337173"
     inkscape:cy="-20.708124"
     inkscape:window-x="0"
     inkscape:window-y="24"
     inkscape:window-maximized="1"
     inkscape:current-layer="svg2" />
  <defs
     id="defs4">
    <linearGradient
       x2="0"
       y1="20.221"
       y2="138.66"
       gradientUnits="userSpaceOnUse"
       id="linearGradient3613-3">
      <stop
         stop-color="#fff"
         id="stop7" />
      <stop
         stop-color="#fff"
         stop-opacity="0"
         offset="1"
         id="stop9" />
    </linearGradient>
    <clipPath
       id="clipPath3613-29">
      <use
         xlink:href="#SVGCleanerId_1"
         id="use12" />
    </clipPath>
    <filter
       x="-0.192"
       y="-0.192"
       height="1.384"
       color-interpolation-filters="sRGB"
       id="filter3794-0"
       width="1.384">
      <feGaussianBlur
         stdDeviation="5.28"
         id="feGaussianBlur15" />
    </filter>
    <clipPath
       id="clipPath3613-25">
      <use
         xlink:href="#SVGCleanerId_1"
         id="use18" />
    </clipPath>
    <clipPath
       id="clipPath3860">
      <rect
         x="6"
         rx="6"
         y="18"
         height="72"
         width="84"
         id="rect21" />
    </clipPath>
    <filter
       x="-0.166"
       y="-0.197"
       height="1.394"
       color-interpolation-filters="sRGB"
       id="filter3870"
       width="1.331">
      <feGaussianBlur
         stdDeviation="5.17031"
         id="feGaussianBlur24" />
    </filter>
    <linearGradient
       x2="0"
       xlink:href="#linearGradient3613-3"
       y1="22.933"
       y2="81.48"
       gradientUnits="userSpaceOnUse"
       id="linearGradient5696" />
    <linearGradient
       x1="93.01"
       x2="6.187"
       gradientUnits="userSpaceOnUse"
       id="linearGradient4640"
       gradientTransform="translate(-139.52542,12.20339)">
      <stop
         stop-color="#be8e4a"
         stop-opacity="0.077"
         id="stop28" />
      <stop
         stop-color="#a67c25"
         offset="1"
         id="stop30" />
    </linearGradient>
    <linearGradient
       x2="0"
       y1="18.869"
       y2="1.833"
       gradientUnits="userSpaceOnUse"
       id="linearGradient3104-3"
       gradientTransform="matrix(2.5842 0 0 2.5842 18.12 24.973)">
      <stop
         stop-color="#aa7932"
         stop-opacity="0.784"
         id="stop33" />
      <stop
         stop-color="#aa7932"
         stop-opacity="0.392"
         offset="1"
         id="stop35" />
    </linearGradient>
    <rect
       x="15"
       stroke-width="0.5"
       rx="12"
       y="15"
       fill="url(#linearGradient3613-3)"
       stroke="#fff"
       height="66"
       filter="url(#filter3794-0)"
       id="SVGCleanerId_0"
       width="66"
       stroke-linecap="round" />
    <rect
       x="6"
       rx="6"
       y="6"
       height="84"
       id="SVGCleanerId_1"
       width="84" />
    <linearGradient
       inkscape:collect="always"
       xlink:href="#linearGradient4342"
       id="linearGradient4348"
       x1="5.4987845"
       y1="48"
       x2="90.498787"
       y2="48"
       gradientUnits="userSpaceOnUse" />
    <linearGradient
       inkscape:collect="always"
       id="linearGradient4342">
      <stop
         style="stop-color:#3eadf3;stop-opacity:1;"
         offset="0"
         id="stop4344" />
      <stop
         style="stop-color:#005285;stop-opacity:1"
         offset="1"
         id="stop4346" />
    </linearGradient>
    <filter
       inkscape:collect="always"
       style="color-interpolation-filters:sRGB"
       id="filter4356"
       x="-0.03994016"
       width="1.0798804"
       y="-0.13085099"
       height="1.2617019">
      <feGaussianBlur
         inkscape:collect="always"
         stdDeviation="1.1452528"
         id="feGaussianBlur4358" />
    </filter>
    <linearGradient
       inkscape:collect="always"
       xlink:href="#linearGradient4366"
       id="linearGradient4372"
       x1="52.384773"
       y1="88.512177"
       x2="52.384773"
       y2="26.095018"
       gradientUnits="userSpaceOnUse" />
    <linearGradient
       inkscape:collect="always"
       id="linearGradient4366">
      <stop
         style="stop-color:#389edd;stop-opacity:1"
         offset="0"
         id="stop4368" />
      <stop
         style="stop-color:#66bff7;stop-opacity:1"
         offset="1"
         id="stop4370" />
    </linearGradient>
    <linearGradient
       inkscape:collect="always"
       xlink:href="#linearGradient4334"
       id="linearGradient4340"
       x1="44.359856"
       y1="-20.334562"
       x2="45.070312"
       y2="45.913132"
       gradientUnits="userSpaceOnUse" />
    <linearGradient
       inkscape:collect="always"
       id="linearGradient4334">
      <stop
         style="stop-color:white;stop-opacity:1;"
         offset="0"
         id="stop4336" />
      <stop
         style="stop-color:white;stop-opacity:0;"
         offset="1"
         id="stop4338" />
    </linearGradient>
    <filter
       inkscape:collect="always"
       style="color-interpolation-filters:sRGB"
       id="filter4390"
       x="-0.061865166"
       width="1.1237303"
       y="-0.079545341"
       height="1.1590908">
      <feGaussianBlur
         inkscape:collect="always"
         stdDeviation="1.8044006"
         id="feGaussianBlur4392" />
    </filter>
  </defs>
  <rect
     id="rect4364"
     transform="matrix(0,1,1,0,0,0)"
     width="88"
     height="88"
     y="4"
     rx="11.845899"
     x="4"
     style="opacity:0.1;fill:black;fill-opacity:1;stroke:none" />
  <rect
     style="opacity:0.1;fill:black;fill-opacity:1;stroke:none"
     x="4.5"
     rx="11.711287"
     y="4.5"
     height="87"
     width="87"
     transform="matrix(0,1,1,0,0,0)"
     id="rect4362" />
  <rect
     id="rect4360"
     transform="matrix(0,1,1,0,0,0)"
     width="86"
     height="86"
     y="5"
     rx="11.576674"
     x="5"
     style="opacity:0.1;fill:black;fill-opacity:1;stroke:none" />
  <rect
     style="fill:url(#linearGradient4348);fill-opacity:1;stroke:none"
     x="5.4987845"
     rx="11.442062"
     y="5.5"
     height="85"
     width="85"
     transform="matrix(0,1,1,0,0,0)"
     id="rect4300" />
  <rect
     id="rect4350"
     width="68.818123"
     visibility="visible"
     height="21.005625"
     y="17.749441"
     display="inline"
     x="14.813876"
     style="color:black;display:inline;visibility:visible;opacity:0.397;fill:black;fill-opacity:1;fill-rule:nonzero;stroke:none;stroke-width:2.5;filter:url(#filter4356)" />
  <rect
     style="color:black;display:inline;visibility:visible;fill:#e6e6e6;fill-opacity:1;fill-rule:nonzero;stroke:none;stroke-width:2.5"
     x="14.813876"
     display="inline"
     y="17.749441"
     height="21.005625"
     visibility="visible"
     width="68.818123"
     id="rect4302" />
  <path
     style="fill:url(#linearGradient4372);fill-opacity:1;stroke:none"
     d="m 40.5625,24.393694 -8.765625,13.447266 -26.296875,0 0,41.205046 c 0,6.339088 5.11604,11.455132 11.455078,11.455132 l 62.089844,0 C 85.383961,90.501138 90.5,85.385094 90.5,79.046006 l 0,-54.652312 -49.9375,0 z"
     inkscape:connector-curvature="0"
     id="path4304" />
  <path
     style="fill:url(#linearGradient4340);fill-opacity:1;stroke:none"
     d="m 40.562499,24.393694 -8.76562,13.447266 -26.296879,0 0,2.300781 26.007809,0 8.76563,-13.447266 49.937504,0 0,54.652344 c 0,0.0969 -0.0113,0.1908 -0.0137,0.28711 0.19156,-0.832341 0.30273,-1.696334 0.30273,-2.587891 l 0,-54.652344 -49.937504,0 z"
     id="path4319"
     inkscape:connector-curvature="0" />
  <path
     style="fill-opacity:0.11799999"
     inkscape:connector-curvature="0"
     id="path64"
     d="m 5.2922679,73.685059 0,5.0663 c 0,6.668 5.3645011,12.032 12.0320011,12.032 l 61.049,0 c 6.668,0 12.032,-5.3645 12.032,-12.032 l 0,-5.0663 c 0,6.6681 -5.3645,12.032 -12.032,12.032 l -61.049,0 c -6.668,0 -12.0320011,-5.3643 -12.0320011,-12.032 z" />
  <path
     id="path4374"
     inkscape:connector-curvature="0"
     d="m 42.716463,29.731708 -7.21875,11.074219 -21.65625,0 0,33.933567 c 0,5.220425 4.213209,9.433638 9.433594,9.433638 l 51.132812,0 c 5.220385,0 9.433594,-4.213213 9.433594,-9.433638 l 0,-45.007786 -41.125,0 z"
     style="opacity:0.08900003;fill:white;fill-opacity:1;stroke:none;filter:url(#filter4390)" />
  <g
     id="g4370"
     transform="matrix(0.93713932,0,0,0.93713932,5.280297,7.028854)">
    <path
       style="opacity:0.05;fill:white"
       inkscape:connector-curvature="0"
       id="path75"
       d="m 53.513326,31.984564 c -4.4866,0 -8.991,1.691 -12.406,5.0938 -6.8344,6.8094 -6.8344,17.941 0,24.75 5.7593,5.7382 14.548,6.641 21.281,2.6875 0.34737,0.02725 0.71355,0.03673 1,0.09375 0.19392,0.0386 0.07969,-0.03663 0.15625,0 0.0041,0.18838 -0.0059,0.38784 0,0.75 0.01537,0.93752 0.27177,2.532 1.5,3.7188 l -0.031,0.03 0.094,0.094 9.406,9.531 c 0,0 0.02999,0.02996 0.03125,0.03125 0.04704,0.04831 0.94182,0.96484 2.3438,1.1875 1.4394,0.22861 3.3421,-0.34826 5.0312,-2.0312 1.6909,-1.6847 2.2622,-3.5896 2.0312,-5.0312 -0.21891,-1.3666 -1.0643,-2.2216 -1.1562,-2.3125 l -0.062,-0.063 -9.406,-9.531 c -0.02156,-0.02382 -0.04063,-0.0394 -0.0625,-0.0625 -1.1965,-1.264 -2.8646,-1.461 -3.8125,-1.4688 -0.34687,-0.0028 -0.53057,0.0019 -0.71875,0 -0.03463,-0.07217 0.04512,0.02628 0,-0.1875 -0.06,-0.284 -0.096,-0.631 -0.125,-0.969 3.966,-6.708 3.105,-15.478 -2.656,-21.218 -3.42,-3.408 -7.951,-5.094 -12.438,-5.094 z m 0,2 c 3.9762,0 7.9684,1.5107 11,4.5312 5.2858,5.2664 5.9615,13.375 2.0312,19.375 0.05134,1.0199 0.20956,2.6656 0.875,3.25 0.90605,0.79574 3.0254,-0.3386 4.4062,1.1875 l 9.532,9.656 c 0,0 1.8774,1.7577 -0.875,4.5 -2.7524,2.7423 -4.5,0.875 -4.5,0.875 l -9.531,-9.656 c -1.532,-1.376 -0.42,-3.504 -1.219,-4.407 -0.587,-0.662 -2.226,-0.792 -3.25,-0.843 -6.0222,3.9159 -14.152,3.2039 -19.438,-2.0625 -6.0632,-6.041 -6.0632,-15.834 0,-21.875 3.032,-3.02 6.993,-4.531 10.969,-4.531 z m 0.0625,5.1562 c -2.8582,0 -5.4381,1.1012 -7.3125,2.9688 -1.8744,1.8676 -3.0625,4.496 -3.0625,7.3438 0,5.6955 4.6585,10.313 10.375,10.312 5.7165,0 10.344,-4.617 10.344,-10.312 0,-5.6955 -4.6273,-10.312 -10.344,-10.312 z m 0,2 c 4.6317,0 8.3438,3.7082 8.3438,8.3125 0,4.6043 -3.7121,8.3125 -8.3438,8.3125 -4.6317,2e-6 -8.375,-3.7155 -8.375,-8.3125 0,-2.2874 0.99359,-4.4054 2.5,-5.9062 1.5002,-1.4947 3.5342,-2.4062 5.875,-2.4062 z" />
    <path
       style="opacity:0.1;fill:white"
       inkscape:connector-curvature="0"
       id="path77"
       d="m 53.513326,32.953564 c -4.2404,0 -8.4886,1.5942 -11.719,4.8125 -6.4624,6.4387 -6.4624,16.936 0,23.375 5.519,5.4988 13.956,6.2796 20.344,2.375 0.45598,0.0269 0.98857,0.06689 1.4375,0.15625 0.5175,0.10301 0.87889,0.3169 0.875,0.3125 -0.01457,-0.01646 0.03999,0.03681 0.0625,0.28125 0.02251,0.24444 -0.0073,0.61556 0,1.0625 0.01432,0.87341 0.19369,2.1502 1.1875,3.0938 0.02329,0.02211 0.03828,0.04074 0.0625,0.0625 l 9.469,9.593 c 0,0 0.69077,0.72809 1.8125,0.90625 1.12173,0.17816 2.6493,-0.21746 4.1875,-1.75 1.5391,-1.5334 1.93,-3.064 1.75,-4.1875 -0.17338,-1.0824 -0.82508,-1.7326 -0.875,-1.7812 l -0.031,-0.032 -9.469,-9.594 c -0.01093,-0.01208 -0.02023,-0.01941 -0.03125,-0.03125 -0.95149,-1.0226 -2.2421,-1.1803 -3.125,-1.1875 -0.44654,-0.0036 -0.81915,0.02058 -1.0625,0 -0.24335,-0.02058 -0.29846,-0.07762 -0.28125,-0.0625 0.0011,9.74e-4 -0.23442,-0.38819 -0.34375,-0.90625 -0.09457,-0.4481 -0.12817,-0.95875 -0.15625,-1.4062 3.9188,-6.3645 3.1768,-14.781 -2.3438,-20.281 -3.2327,-3.2208 -7.5096,-4.8125 -11.75,-4.8125 z m 0,1.0312 c 3.9762,0 7.9684,1.5107 11,4.5312 5.2858,5.2664 5.9615,13.375 2.0312,19.375 0.05134,1.0199 0.20956,2.6656 0.875,3.25 0.90605,0.79574 3.0254,-0.3386 4.4062,1.1875 l 9.532,9.656 c 0,0 1.8774,1.7577 -0.875,4.5 -2.7524,2.7423 -4.5,0.875 -4.5,0.875 l -9.531,-9.656 c -1.532,-1.376 -0.42,-3.504 -1.219,-4.407 -0.587,-0.662 -2.226,-0.792 -3.25,-0.843 -6.0222,3.9159 -14.152,3.2039 -19.438,-2.0625 -6.0632,-6.041 -6.0632,-15.834 0,-21.875 3.032,-3.02 6.993,-4.531 10.969,-4.531 z m 0.0625,5.1562 c -2.8582,0 -5.4381,1.1012 -7.3125,2.9688 -1.8744,1.8676 -3.0625,4.496 -3.0625,7.3438 0,5.6955 4.6585,10.313 10.375,10.312 5.7165,0 10.344,-4.617 10.344,-10.312 0,-5.6955 -4.6273,-10.312 -10.344,-10.312 z m 0,1.0312 c 5.155,0 9.3125,4.1505 9.3125,9.2812 0,5.1308 -4.1575,9.2812 -9.3125,9.2812 -5.155,2e-6 -9.3438,-4.1543 -9.3438,-9.2812 0,-2.5578 1.0973,-4.916 2.7812,-6.5938 1.6807,-1.6746 3.9721,-2.6875 6.5625,-2.6875 z" />
    <path
       inkscape:connector-curvature="0"
       style="opacity:0.9;fill:#51ade5;fill-opacity:1"
       id="path79"
       d="m 42.529326,38.515564 c -6.0632,6.041 -6.0632,15.847 0,21.888 5.2858,5.2664 13.429,5.9678 19.451,2.052 1.0236,0.05117 2.6743,0.192 3.2609,0.85499 0.79867,0.90273 -0.33032,3.0131 1.2014,4.3889 l 9.5261,9.6524 c 0,0 1.7671,1.8873 4.5195,-0.85499 2.7524,-2.74229 0.85814,-4.5029 0.85814,-4.5029 l -9.526,-9.653 c -1.3809,-1.5261 -3.499,-0.40125 -4.4051,-1.197 -0.66544,-0.58442 -0.80679,-2.2291 -0.85813,-3.249 3.9303,-6.0001 3.2263,-14.113 -2.0595,-19.38 -6.0632,-6.041 -15.905,-6.041 -21.968,0 z m 3.7186,3.591 c 1.8744,-1.8676 4.4645,-2.964 7.3227,-2.964 5.7165,0 10.355,4.6214 10.355,10.317 0,5.6955 -4.6383,10.317 -10.355,10.317 -5.7165,2e-6 -10.355,-4.6214 -10.355,-10.317 0,-2.8478 1.1576,-5.4854 3.0321,-7.3529 z" />
    <path
       inkscape:connector-curvature="0"
       style="opacity:0.25;fill:#288dcc;fill-opacity:1"
       id="path81"
       d="m 53.513326,33.984564 c -3.9762,0 -7.9371,1.5107 -10.969,4.5312 -6.0632,6.041 -6.0632,15.834 0,21.875 5.2858,5.2664 13.415,5.9784 19.438,2.0625 1.0236,0.05117 2.6634,0.18076 3.25,0.84375 0.79867,0.90273 -0.31296,3.0304 1.2188,4.4062 l 9.531,9.657 c 0,0 1.7476,1.8673 4.5,-0.875 2.7524,-2.7423 0.875,-4.5 0.875,-4.5 l -9.5312,-9.6562 c -1.3809,-1.5261 -3.5002,-0.39176 -4.4062,-1.1875 -0.66544,-0.58442 -0.82366,-2.2301 -0.875,-3.25 3.9303,-6.0001 3.2545,-14.109 -2.0312,-19.375 -3.032,-3.021 -7.024,-4.532 -11.001,-4.532 z m 0,1.9375 c 3.4839,0 6.9683,1.3217 9.625,3.9688 4.6377,4.6207 5.2157,11.694 1.7812,16.938 a 1.9441,1.9441 0 0 0 -0.312,1.155 c 0.02807,0.55765 0.0839,1.3067 0.25,2.0938 0.06215,0.2945 0.14655,0.62135 0.25,0.9375 -0.331,-0.108 -0.663,-0.22 -0.969,-0.281 -0.786,-0.156 -1.52,-0.192 -2.062,-0.219 a 1.9441,1.9441 0 0 0 -1.1562,0.3125 c -5.2617,3.4213 -12.358,2.8124 -17,-1.8125 -5.3191,-5.2996 -5.3191,-13.825 0,-19.125 2.6615,-2.6517 6.1099,-3.9688 9.5938,-3.9688 z m 0.0625,1.2812 c -3.3575,0 -6.452,1.3039 -8.6875,3.5312 -2.2295,2.2213 -3.625,5.3303 -3.625,8.7188 0,6.7555 5.5493,12.25 12.312,12.25 6.7632,0 12.281,-5.5016 12.281,-12.25 0,-6.7484 -5.5181,-12.25 -12.281,-12.25 z m 0,1.9375 c 5.7165,0 10.344,4.617 10.344,10.312 0,5.6955 -4.6273,10.312 -10.344,10.312 -5.7165,2e-6 -10.375,-4.617 -10.375,-10.312 0,-2.8478 1.1881,-5.4762 3.0625,-7.3438 1.8744,-1.8676 4.4543,-2.9688 7.3125,-2.9688 z m 13.5,23.844 c 0.36862,0.13102 0.77528,0.38196 1.0625,0.40625 0.54216,0.04585 0.94553,-0.0027 1.2812,0 0.67143,0.0055 0.77104,0.03149 0.96875,0.25 a 1.9441,1.9441 0 0 0 0.0625,0.0625 l 9.532,9.657 a 1.9441,1.9441 0 0 0 0.03125,0.03125 c 0,0 0.0079,-0.02089 0.03125,0.125 0.02337,0.14589 0.13502,0.52516 -0.9375,1.5938 -1.0742,1.0702 -1.4481,0.92938 -1.5938,0.90625 -0.14564,-0.02313 -0.125,0 -0.125,0 a 1.9441,1.9441 0 0 0 -0.031,-0.031 l -9.5312,-9.6562 a 1.9441,1.9441 0 0 0 -0.0625,-0.0625 c -0.222,-0.2 -0.24,-0.297 -0.251,-0.97 -0.005,-0.336 0.019,-0.771 -0.031,-1.312 -0.025,-0.276 -0.284,-0.649 -0.406,-1 z" />
    <path
       inkscape:connector-curvature="0"
       style="opacity:0.1;fill:black"
       id="path83"
       d="m 53.513326,33.984564 c -3.9762,0 -7.9371,1.5107 -10.969,4.5312 -3.158,3.1465 -4.6629,7.3123 -4.5312,11.438 0.12362,-3.7913 1.6287,-7.5456 4.5312,-10.438 6.0632,-6.041 15.906,-6.041 21.969,0 2.8866,2.876 4.3548,6.6088 4.5,10.375 0.10748,-4.1012 -1.3574,-8.244 -4.5,-11.375 -3.031,-3.02 -7.023,-4.531 -11,-4.531 z m -10.281,15.969 c -0.0079,0.16598 -0.03125,0.33245 -0.03125,0.5 0,5.6955 4.6585,10.313 10.375,10.312 5.7165,0 10.344,-4.617 10.344,-10.312 0,-0.16755 -0.02331,-0.3344 -0.03125,-0.5 -0.26188,5.4637 -4.7642,9.8125 -10.312,9.8125 -5.5483,2e-6 -10.082,-4.3488 -10.344,-9.8125 z m 23.375,8.8125 c -0.02506,0.03903 -0.03705,0.08614 -0.0625,0.125 0.05134,1.0199 0.20956,2.6656 0.875,3.25 0.90605,0.79574 3.0254,-0.3386 4.4062,1.1875 l 9.531,9.656 c 0,0 0.4162,0.421 0.5625,1.1562 0.275,-1.355 -0.563,-2.156 -0.563,-2.156 l -9.5312,-9.6562 c -1.3809,-1.5261 -3.5002,-0.39176 -4.4062,-1.1875 -0.49908,-0.43831 -0.71989,-1.4548 -0.8125,-2.375 z" />
    <path
       inkscape:connector-curvature="0"
       style="opacity:0.5;fill:#298fce;fill-opacity:1"
       id="path85"
       d="m 53.491229,33.984565 c -3.9762,0 -7.9371,1.5107 -10.969,4.5312 -6.0632,6.041 -6.0632,15.834 0,21.875 5.2858,5.2664 13.415,5.9784 19.438,2.0625 1.0236,0.05117 2.6634,0.18076 3.25,0.84375 0.79867,0.90273 -0.31296,3.0304 1.2188,4.4062 l 9.531,9.657 c 0,0 1.7476,1.8673 4.5,-0.875 2.7524,-2.7423 0.875,-4.5 0.875,-4.5 l -9.5312,-9.6562 c -1.3809,-1.5261 -3.5002,-0.39176 -4.4062,-1.1875 -0.66544,-0.58442 -0.82366,-2.2301 -0.875,-3.25 3.9303,-6.0001 3.2545,-14.109 -2.0312,-19.375 -3.032,-3.021 -7.024,-4.532 -11.001,-4.532 z m 0,1 c 3.7194,0 7.4452,1.4243 10.281,4.25 4.9478,4.9296 5.5779,12.488 1.9062,18.094 a 1.014,1.014 0 0 0 -0.15625,0.625 c 0.02692,0.53483 0.07033,1.2342 0.21875,1.9375 0.14842,0.70327 0.34268,1.4227 1,2 0.4635,0.40707 0.98839,0.52452 1.4375,0.5625 0.44911,0.03798 0.87977,0.02823 1.25,0.03125 0.74045,0.006 1.1915,0.05222 1.625,0.53125 a 1.014,1.014 0 0 0 0.032,0.031 l 9.5312,9.6562 a 1.014,1.014 0 0 0 0.032,0.032 c 0,0 0.20912,0.17467 0.28125,0.625 0.07213,0.45033 0.0303,1.1929 -1.1875,2.4062 -1.2187,1.2142 -1.9567,1.2589 -2.4062,1.1875 -0.451,-0.072 -0.626,-0.281 -0.626,-0.281 a 1.014,1.014 0 0 0 -0.031,-0.032 l -9.531,-9.656 a 1.014,1.014 0 0 0 -0.032,-0.031 c -0.482,-0.433 -0.55,-0.915 -0.562,-1.657 -0.006,-0.37 0.01,-0.77 -0.032,-1.218 -0.041,-0.449 -0.154,-0.977 -0.562,-1.438 -0.58225,-0.65811 -1.2976,-0.86019 -2,-1 -0.70235,-0.13981 -1.41,-0.16113 -1.9375,-0.1875 a 1.014,1.014 0 0 0 -0.625,0.15625 c -5.6255,3.6579 -13.206,2.9943 -18.156,-1.9375 -5.6751,-5.6543 -5.6751,-14.783 0,-20.438 2.8386,-2.8282 6.5306,-4.25 10.25,-4.25 z m 0.0625,3.1562 c -3.1186,0 -5.9685,1.1948 -8.0312,3.25 -2.0596,2.0521 -3.3438,4.9327 -3.3438,8.0625 0,6.2484 5.1126,11.313 11.375,11.312 6.2624,0 11.344,-5.0678 11.344,-11.312 0,-6.2447 -5.0814,-11.312 -11.344,-11.312 z m 0,1 c 5.7165,0 10.344,4.617 10.344,10.312 0,5.6955 -4.6273,10.312 -10.344,10.312 -5.7165,2e-6 -10.375,-4.617 -10.375,-10.312 0,-2.8478 1.1881,-5.4762 3.0625,-7.3438 1.8744,-1.8676 4.4543,-2.9688 7.3125,-2.9688 z" />
    <path
       style="opacity:0.2;fill:white"
       inkscape:connector-curvature="0"
       id="path87"
       d="m 53.576326,39.140564 c -2.8582,0 -5.4381,1.1012 -7.3125,2.9688 -1.8744,1.8676 -3.0625,4.496 -3.0625,7.3438 0,0.16755 0.02331,0.3344 0.03125,0.5 0.12677,-2.6551 1.2671,-5.0861 3.0312,-6.8438 1.8744,-1.8676 4.4543,-2.9688 7.3125,-2.9688 5.5483,0 10.051,4.3488 10.312,9.8125 0.0079,-0.1656 0.03125,-0.33245 0.03125,-0.5 0,-5.6955 -4.6273,-10.312 -10.344,-10.312 z m 15.438,10.75 c -0.0733,2.797 -0.87515,5.5671 -2.4688,8 0.01284,0.25497 0.03163,0.56826 0.0625,0.875 1.7316,-2.6968 2.5252,-5.7893 2.4062,-8.875 z m -31,0.0625 c -0.13461,4.1286 1.3705,8.2884 4.5312,11.438 5.2858,5.2664 13.415,5.9784 19.438,2.0625 1.0236,0.05117 2.6634,0.18076 3.25,0.84375 0.79867,0.90273 -0.31296,3.0304 1.2188,4.4062 l 9.53,9.657 c 0,0 1.7476,1.8673 4.5,-0.875 1.4215,-1.4163 1.5938,-2.5584 1.4375,-3.3438 -0.135,0.661 -0.536,1.445 -1.438,2.344 -2.752,2.742 -4.5,0.875 -4.5,0.875 l -9.531,-9.656 c -1.532,-1.376 -0.42,-3.504 -1.219,-4.407 -0.587,-0.662 -2.226,-0.792 -3.25,-0.843 -6.022,3.916 -14.152,3.204 -19.438,-2.063 -2.905,-2.894 -4.41,-6.642 -4.531,-10.437 z" />
  </g>
</svg>
