<svg height="16" width="16" xmlns="http://www.w3.org/2000/svg" xmlns:sodipodi="http://sodipodi.sourceforge.net/DTD/sodipodi-0.dtd" xmlns:inkscape="http://www.inkscape.org/namespaces/inkscape">
 <path d="m 9.9412957,0 c -0.0645,0.008 -0.12753,0.0279 -0.1875,0.0625 L 4.6912957,3 8.6600457,3 9.4725457,2.53125 9.7537957,3 12.035046,3 10.441296,0.25 C 10.337416,0.07008 10.134666,-0.02423 9.9412957,0 z m -6.9375,3.9687504 -2.75000003,1.59375 c -0.23989,0.1385 -0.326,0.44761 -0.1875,0.6875 L 3.0037957,11.3125 l 0,-3.9687496 -0.46875,-0.8125 0.46875,-0.28125 0,-2.28125 z m 1.5,0.03125 c -0.277,0 -0.5,0.223 -0.5,0.5 l 0,10.9999996 c 0,0.277 0.223,0.5 0.5,0.5 l 11.0000003,0 c 0.277,0 0.5,-0.223 0.5,-0.5 l 0,-10.9999996 c 0,-0.277 -0.223,-0.5 -0.5,-0.5 l -11.0000003,0 z m 1.5,2 8.0000003,0 0,6.9999996 -8.0000003,0 0,-6.9999996 z" stroke-width="1" display="inline" fill="#bebebe" color="#000000" fill-opacity="1" fill-rule="nonzero" stroke="none" visibility="visible" inkscape:connector-curvature="0"/>
</svg>
