<?xml version="1.0" encoding="UTF-8" standalone="no"?>
<svg
   xmlns:dc="http://purl.org/dc/elements/1.1/"
   xmlns:cc="http://creativecommons.org/ns#"
   xmlns:rdf="http://www.w3.org/1999/02/22-rdf-syntax-ns#"
   xmlns:svg="http://www.w3.org/2000/svg"
   xmlns="http://www.w3.org/2000/svg"
   xmlns:xlink="http://www.w3.org/1999/xlink"
   xmlns:sodipodi="http://sodipodi.sourceforge.net/DTD/sodipodi-0.dtd"
   xmlns:inkscape="http://www.inkscape.org/namespaces/inkscape"
   height="96"
   width="96"
   id="svg2"
   version="1.1"
   inkscape:version="0.91 r13725"
   sodipodi:docname="folder-recent.svg">
  <metadata
     id="metadata91">
    <rdf:RDF>
      <cc:Work
         rdf:about="">
        <dc:format>image/svg+xml</dc:format>
        <dc:type
           rdf:resource="http://purl.org/dc/dcmitype/StillImage" />
      </cc:Work>
    </rdf:RDF>
  </metadata>
  <sodipodi:namedview
     pagecolor="#ffffff"
     bordercolor="#666666"
     borderopacity="1"
     objecttolerance="10"
     gridtolerance="10"
     guidetolerance="10"
     inkscape:pageopacity="0"
     inkscape:pageshadow="2"
     inkscape:window-width="1366"
     inkscape:window-height="716"
     id="namedview89"
     showgrid="false"
     inkscape:zoom="1.7383042"
     inkscape:cx="-47.867118"
     inkscape:cy="102.43733"
     inkscape:window-x="0"
     inkscape:window-y="24"
     inkscape:window-maximized="1"
     inkscape:current-layer="svg2" />
  <defs
     id="defs4">
    <linearGradient
       x2="0"
       y1="20.221"
       y2="138.66"
       gradientUnits="userSpaceOnUse"
       id="linearGradient3613-3">
      <stop
         stop-color="#fff"
         id="stop7" />
      <stop
         stop-color="#fff"
         stop-opacity="0"
         offset="1"
         id="stop9" />
    </linearGradient>
    <clipPath
       id="clipPath3613-29">
      <use
         xlink:href="#SVGCleanerId_1"
         id="use12" />
    </clipPath>
    <filter
       x="-0.192"
       y="-0.192"
       height="1.384"
       color-interpolation-filters="sRGB"
       id="filter3794-0"
       width="1.384">
      <feGaussianBlur
         stdDeviation="5.28"
         id="feGaussianBlur15" />
    </filter>
    <clipPath
       id="clipPath3613-25">
      <use
         xlink:href="#SVGCleanerId_1"
         id="use18" />
    </clipPath>
    <clipPath
       id="clipPath3860">
      <rect
         x="6"
         rx="6"
         y="18"
         height="72"
         width="84"
         id="rect21" />
    </clipPath>
    <filter
       x="-0.166"
       y="-0.197"
       height="1.394"
       color-interpolation-filters="sRGB"
       id="filter3870"
       width="1.331">
      <feGaussianBlur
         stdDeviation="5.17031"
         id="feGaussianBlur24" />
    </filter>
    <linearGradient
       x2="0"
       xlink:href="#linearGradient3613-3"
       y1="22.933"
       y2="81.48"
       gradientUnits="userSpaceOnUse"
       id="linearGradient5696" />
    <linearGradient
       x1="93.01"
       x2="6.187"
       gradientUnits="userSpaceOnUse"
       id="linearGradient4640">
      <stop
         stop-color="#be8e4a"
         stop-opacity="0.077"
         id="stop28" />
      <stop
         stop-color="#a67c25"
         offset="1"
         id="stop30" />
    </linearGradient>
    <linearGradient
       x2="0"
       y1="76"
       y2="32"
       gradientUnits="userSpaceOnUse"
       id="linearGradient3117"
       gradientTransform="matrix(1 0 0 1 0 -2)">
      <stop
         stop-color="#aa7932"
         stop-opacity="0.784"
         id="stop33" />
      <stop
         stop-color="#aa7932"
         stop-opacity="0.392"
         offset="1"
         id="stop35" />
    </linearGradient>
    <rect
       x="15"
       stroke-width="0.5"
       rx="12"
       y="15"
       fill="url(#linearGradient3613-3)"
       stroke="#fff"
       height="66"
       filter="url(#filter3794-0)"
       id="SVGCleanerId_0"
       width="66"
       stroke-linecap="round" />
    <rect
       x="6"
       rx="6"
       y="6"
       height="84"
       id="SVGCleanerId_1"
       width="84" />
    <linearGradient
       inkscape:collect="always"
       xlink:href="#linearGradient4342"
       id="linearGradient4348"
       x1="5.4987845"
       y1="48"
       x2="90.498787"
       y2="48"
       gradientUnits="userSpaceOnUse" />
    <linearGradient
       inkscape:collect="always"
       id="linearGradient4342">
      <stop
         style="stop-color:#3eadf3;stop-opacity:1;"
         offset="0"
         id="stop4344" />
      <stop
         style="stop-color:#005285;stop-opacity:1"
         offset="1"
         id="stop4346" />
    </linearGradient>
    <filter
       inkscape:collect="always"
       style="color-interpolation-filters:sRGB"
       id="filter4356"
       x="-0.03994016"
       width="1.0798804"
       y="-0.13085099"
       height="1.2617019">
      <feGaussianBlur
         inkscape:collect="always"
         stdDeviation="1.1452528"
         id="feGaussianBlur4358" />
    </filter>
    <linearGradient
       inkscape:collect="always"
       xlink:href="#linearGradient4366"
       id="linearGradient4372"
       x1="52.384773"
       y1="88.512177"
       x2="52.384773"
       y2="26.095018"
       gradientUnits="userSpaceOnUse" />
    <linearGradient
       inkscape:collect="always"
       id="linearGradient4366">
      <stop
         style="stop-color:#389edd;stop-opacity:1"
         offset="0"
         id="stop4368" />
      <stop
         style="stop-color:#66bff7;stop-opacity:1"
         offset="1"
         id="stop4370" />
    </linearGradient>
    <linearGradient
       inkscape:collect="always"
       xlink:href="#linearGradient4334"
       id="linearGradient4340"
       x1="44.359856"
       y1="-20.334562"
       x2="45.070312"
       y2="45.913132"
       gradientUnits="userSpaceOnUse" />
    <linearGradient
       inkscape:collect="always"
       id="linearGradient4334">
      <stop
         style="stop-color:white;stop-opacity:1;"
         offset="0"
         id="stop4336" />
      <stop
         style="stop-color:white;stop-opacity:0;"
         offset="1"
         id="stop4338" />
    </linearGradient>
    <filter
       inkscape:collect="always"
       style="color-interpolation-filters:sRGB"
       id="filter4390"
       x="-0.061865166"
       width="1.1237303"
       y="-0.079545341"
       height="1.1590908">
      <feGaussianBlur
         inkscape:collect="always"
         stdDeviation="1.8044006"
         id="feGaussianBlur4392" />
    </filter>
  </defs>
  <rect
     id="rect4364"
     transform="matrix(0,1,1,0,0,0)"
     width="88"
     height="88"
     y="4"
     rx="11.845899"
     x="4"
     style="opacity:0.1;fill:black;fill-opacity:1;stroke:none" />
  <rect
     style="opacity:0.1;fill:black;fill-opacity:1;stroke:none"
     x="4.5"
     rx="11.711287"
     y="4.5"
     height="87"
     width="87"
     transform="matrix(0,1,1,0,0,0)"
     id="rect4362" />
  <rect
     id="rect4360"
     transform="matrix(0,1,1,0,0,0)"
     width="86"
     height="86"
     y="5"
     rx="11.576674"
     x="5"
     style="opacity:0.1;fill:black;fill-opacity:1;stroke:none" />
  <rect
     style="fill:url(#linearGradient4348);fill-opacity:1;stroke:none"
     x="5.4987845"
     rx="11.442062"
     y="5.5"
     height="85"
     width="85"
     transform="matrix(0,1,1,0,0,0)"
     id="rect4300" />
  <rect
     id="rect4350"
     width="68.818123"
     visibility="visible"
     height="21.005625"
     y="17.749441"
     display="inline"
     x="14.813876"
     style="color:black;display:inline;visibility:visible;opacity:0.397;fill:black;fill-opacity:1;fill-rule:nonzero;stroke:none;stroke-width:2.5;filter:url(#filter4356)" />
  <rect
     style="color:black;display:inline;visibility:visible;fill:#e6e6e6;fill-opacity:1;fill-rule:nonzero;stroke:none;stroke-width:2.5"
     x="14.813876"
     display="inline"
     y="17.749441"
     height="21.005625"
     visibility="visible"
     width="68.818123"
     id="rect4302" />
  <path
     style="fill:url(#linearGradient4372);fill-opacity:1;stroke:none"
     d="m 40.5625,24.393694 -8.765625,13.447266 -26.296875,0 0,41.205046 c 0,6.339088 5.11604,11.455132 11.455078,11.455132 l 62.089844,0 C 85.383961,90.501138 90.5,85.385094 90.5,79.046006 l 0,-54.652312 -49.9375,0 z"
     inkscape:connector-curvature="0"
     id="path4304" />
  <path
     style="fill:url(#linearGradient4340);fill-opacity:1;stroke:none"
     d="m 40.562499,24.393694 -8.76562,13.447266 -26.296879,0 0,2.300781 26.007809,0 8.76563,-13.447266 49.937504,0 0,54.652344 c 0,0.0969 -0.0113,0.1908 -0.0137,0.28711 0.19156,-0.832341 0.30273,-1.696334 0.30273,-2.587891 l 0,-54.652344 -49.937504,0 z"
     id="path4319"
     inkscape:connector-curvature="0" />
  <path
     style="fill-opacity:0.11799999"
     inkscape:connector-curvature="0"
     id="path64"
     d="m 5.2922679,73.685059 0,5.0663 c 0,6.668 5.3645011,12.032 12.0320011,12.032 l 61.049,0 c 6.668,0 12.032,-5.3645 12.032,-12.032 l 0,-5.0663 c 0,6.6681 -5.3645,12.032 -12.032,12.032 l -61.049,0 c -6.668,0 -12.0320011,-5.3643 -12.0320011,-12.032 z" />
  <path
     id="path4374"
     inkscape:connector-curvature="0"
     d="m 42.716463,29.731708 -7.21875,11.074219 -21.65625,0 0,33.933567 c 0,5.220425 4.213209,9.433638 9.433594,9.433638 l 51.132812,0 c 5.220385,0 9.433594,-4.213213 9.433594,-9.433638 l 0,-45.007786 -41.125,0 z"
     style="opacity:0.08900003;fill:white;fill-opacity:1;stroke:none;filter:url(#filter4390)" />
  <g
     id="g4314"
     transform="matrix(0.90000005,0,0,0.90000005,10.274935,7.039715)">
    <path
       style="color:black;opacity:0.05;fill:white"
       inkscape:connector-curvature="0"
       id="path75"
       d="m 58.838838,32.688435 c -12.053311,0 -21.860371,9.330248 -22.867774,21.127627 l -2.100759,0 a 1.9469108,1.9469108 0 0 0 -1.680606,2.941061 l 3.361213,5.76208 3.361213,5.76208 a 1.9469108,1.9469108 0 0 0 3.361214,0 l 3.361213,-5.76208 3.361213,-5.76208 a 1.9469108,1.9469108 0 0 0 -1.680606,-2.941541 l -1.680607,0 c 0.772973,-5.280947 4.561454,-9.518572 9.603466,-10.923944 -0.162298,0.422553 -0.269857,0.875837 -0.269857,1.350248 l 0,10.894172 0.06002,0 c -0.148748,0.970623 0.03157,1.941917 0.570206,2.731034 l -0.03001,0 c 0.02022,0.03137 0.01024,0.03135 0.03001,0.06002 0.01285,0.01864 0.0174,0.01247 0.03001,0.03001 0.215368,0.299368 0.441414,0.501435 0.480174,0.540195 l 6.782448,6.812507 c 1.206291,1.206291 3.166743,1.565845 4.651727,0.600216 -2.345935,2.014135 -5.354509,3.271133 -8.703142,3.271133 -2.450708,0 -4.71146,-0.652844 -6.692463,-1.80065 a 1.9469108,1.9469108 0 0 0 -2.670916,0.72026 l -2.88104,5.011857 a 1.9469108,1.9469108 0 0 0 0.72026,2.640953 c 3.394057,1.961701 7.332438,3.091164 11.524159,3.091164 12.719792,-9.6e-4 23.07713,-10.358299 23.07713,-23.07905 0,-12.720752 -10.357338,-23.078091 -23.07809,-23.078091 z m 0,1.950465 c 11.668212,0 21.127627,9.459126 21.127627,21.127626 0,11.6685 -9.459127,21.127626 -21.127627,21.127626 -3.845516,0 -7.457764,-1.025746 -10.563813,-2.821018 l 2.88104,-5.011857 c 2.262577,1.311833 4.880482,2.071467 7.682773,2.071467 8.486584,0 15.365547,-6.878963 15.365547,-15.365546 0,-8.486583 -6.878963,-15.365546 -15.365547,-15.365546 -8.486583,0 -15.365546,6.878963 -15.365546,15.365546 l 3.841386,0 -3.361213,5.76208 -3.361213,5.76208 -3.361213,-5.76208 -3.361214,-5.76208 3.841387,0 c 0,-11.668212 9.459414,-21.127626 21.127626,-21.127626 z m 0,7.682773 c 1.064064,0 1.920693,0.856629 1.920693,1.920693 l 0,10.744358 6.242254,6.212291 c 0.752403,0.752403 0.851414,1.849531 0.240086,2.460888 l -0.509944,0.508984 c -0.611328,0.611328 -1.708456,0.512316 -2.460888,-0.240087 l -6.782448,-6.812507 c -0.09604,-0.09604 -0.195911,-0.185347 -0.270818,-0.299628 -0.385099,-0.538755 -0.490737,-1.167782 -0.299628,-1.680607 l 0,-10.894172 c 0,-1.064064 0.856629,-1.920693 1.920693,-1.920693 z m 3.6013,0.570206 c 5.657402,1.576889 9.813783,6.700338 9.813783,12.874407 0,3.348632 -1.257094,6.35711 -3.271133,8.703141 0.965628,-1.484888 0.606113,-3.445339 -0.600217,-4.651727 l -5.671999,-5.642036 0,-9.933826 c 0,-0.474498 -0.108087,-0.927503 -0.270098,-1.35044 z" />
    <path
       style="color:black;opacity:0.1;fill:white"
       inkscape:connector-curvature="0"
       id="path77"
       d="m 58.838838,33.678553 c -11.85836,0 -21.482954,9.395071 -21.9977,21.127626 l -2.971313,0 a 0.96044268,0.96044268 0 0 0 -0.840303,1.44052 l 3.361213,5.76208 3.361214,5.76208 a 0.96044268,0.96044268 0 0 0 1.680606,0 l 3.361213,-5.76208 3.361214,-5.76208 a 0.96044268,0.96044268 0 0 0 -0.840304,-1.44052 l -2.790959,0 c 0.500341,-7.509911 6.67633,-13.444853 14.314927,-13.444853 7.967132,0 14.4052,6.438068 14.4052,14.4052 0,7.967132 -6.438068,14.4052 -14.4052,14.4052 -2.629045,0 -5.079177,-0.720318 -7.2026,-1.950657 a 0.96044268,0.96044268 0 0 0 -1.320476,0.36013 l -2.88104,5.011858 a 0.96044268,0.96044268 0 0 0 0.36013,1.320476 c 3.247892,1.876518 7.027816,2.940582 11.043986,2.940582 12.187759,0 22.087973,-9.900214 22.087973,-22.087973 0,-12.18776 -9.900214,-22.087973 -22.087973,-22.087973 z m 0,7.682773 c -1.579482,0 -2.88104,1.301558 -2.88104,2.88104 l 0,10.894172 0.03001,0 c -0.164805,0.748552 -0.02769,1.537227 0.420152,2.190743 0.01743,0.02705 0.01272,0.03565 0.03001,0.06002 0.145982,0.205802 0.29691,0.356941 0.36013,0.420152 l 6.782448,6.812507 c 1.052732,1.052732 2.787118,1.294355 3.841386,0.240086 l 0.510185,-0.510184 c 1.054268,-1.054268 0.812606,-2.788655 -0.240087,-3.841387 l -5.972396,-5.942625 0,-10.323726 c 0,-1.579482 -1.301558,-2.88104 -2.88104,-2.88104 z m 0,-6.722426 c 11.668212,0 21.127627,9.459126 21.127627,21.127626 0,11.6685 -9.459127,21.127626 -21.127627,21.127626 -3.845516,0 -7.457764,-1.025746 -10.563813,-2.821018 l 2.88104,-5.011857 c 2.262577,1.311833 4.880482,2.071467 7.682773,2.071467 8.486584,0 15.365547,-6.878963 15.365547,-15.365546 0,-8.486583 -6.878963,-15.365546 -15.365547,-15.365546 -8.486583,0 -15.365546,6.878963 -15.365546,15.365546 l 3.841386,0 -3.361213,5.76208 -3.361213,5.76208 -3.361213,-5.76208 -3.361214,-5.76208 3.841387,0 c 0,-11.668212 9.459414,-21.127626 21.127626,-21.127626 z m 0,7.682773 c 1.064064,0 1.920693,0.856629 1.920693,1.920693 l 0,10.744358 6.242254,6.212291 c 0.752403,0.752403 0.851414,1.849531 0.240086,2.460888 l -0.509944,0.508984 c -0.611328,0.611328 -1.708456,0.512316 -2.460888,-0.240087 l -6.782448,-6.812507 c -0.09604,-0.09604 -0.195911,-0.185347 -0.270818,-0.299628 -0.385099,-0.538755 -0.490737,-1.167782 -0.299628,-1.680607 l 0,-10.894172 c 0,-1.064064 0.856629,-1.920693 1.920693,-1.920693 z" />
    <path
       inkscape:connector-curvature="0"
       style="color:black;opacity:0.9;fill:#4fabe3;fill-opacity:1"
       id="path79"
       d="m 58.838838,34.6389 c -11.668212,0 -21.127626,9.459414 -21.127626,21.127626 l -3.841387,0 3.361214,5.76208 3.361213,5.76208 3.361213,-5.76208 3.361213,-5.76208 -3.841386,0 c 0,-8.486199 6.879347,-15.365547 15.365546,-15.365547 8.486199,0 15.365547,6.879348 15.365547,15.365547 0,8.486199 -6.879348,15.365546 -15.365547,15.365546 -2.802675,0 -5.42058,-0.759961 -7.682773,-2.070699 l -2.88104,5.011089 c 3.105761,1.795848 6.718585,2.821498 10.563813,2.821498 11.668212,0 21.127627,-9.459414 21.127627,-21.127626 0,-11.668212 -9.459415,-21.127627 -21.127627,-21.127627 z m 0,7.682773 c -1.064064,0 -1.920693,0.856629 -1.920693,1.920693 l 0,10.894172 c -0.190735,0.513142 -0.08553,1.142141 0.300108,1.680607 0.07404,0.114886 0.173909,0.20392 0.270098,0.300108 l 6.781968,6.812699 c 0.752403,0.752403 1.849531,0.851415 2.460888,0.240087 l 0.510904,-0.509944 c 0.611328,-0.611328 0.512317,-1.708457 -0.240086,-2.460888 l -6.242253,-6.211522 0,-10.744359 c 0,-1.064064 -0.85663,-1.920693 -1.920694,-1.920693 z" />
    <path
       inkscape:connector-curvature="0"
       style="color:black;opacity:0.25;fill:#298dcd;fill-opacity:1"
       id="path81"
       d="m 58.838838,34.6389 c -11.668212,0 -21.127626,9.459414 -21.127626,21.127626 l -3.841387,0 3.361214,5.76208 3.361213,5.76208 3.361213,-5.76208 3.361213,-5.76208 -3.841386,0 c 0,-8.486199 6.879347,-15.365547 15.365546,-15.365547 8.486199,0 15.365547,6.879348 15.365547,15.365547 0,8.486199 -6.879348,15.365546 -15.365547,15.365546 -2.802675,0 -5.42058,-0.759961 -7.682773,-2.070699 l -2.88104,5.011089 c 3.105761,1.795848 6.718585,2.821498 10.563813,2.821498 11.668212,0 21.127627,-9.459414 21.127627,-21.127626 0,-11.668212 -9.459415,-21.127627 -21.127627,-21.127627 z m 0,1.89073 c 10.641601,0 19.236704,8.595103 19.236704,19.236704 0,10.641601 -8.595103,19.236703 -19.236704,19.236703 -2.820826,0 -5.424614,-0.745104 -7.832779,-1.830612 l 0.990117,-1.710378 c 2.114972,0.929068 4.385519,1.560564 6.84247,1.560564 9.51281,0 17.256469,-7.743467 17.256469,-17.256469 0,-9.513194 -7.743275,-17.256469 -17.256469,-17.256469 -9.513194,0 -17.256469,7.743275 -17.256469,17.256469 a 1.8998538,1.8998538 0 0 0 1.890923,1.890922 l 0.540195,0 -1.710378,2.910811 -1.710377,2.940581 -1.710377,-2.940581 -1.710378,-2.910811 0.540195,0 a 1.8998538,1.8998538 0 0 0 1.890923,-1.890922 c 0,-10.641602 8.595102,-19.236704 19.236703,-19.236704 z m 0,5.791851 c -1.064064,0 -1.920693,0.856629 -1.920693,1.920693 l 0,10.894172 c -0.190735,0.513142 -0.08553,1.142141 0.300108,1.680607 0.07404,0.114886 0.173909,0.20392 0.270098,0.300108 l 6.781968,6.812699 c 0.752403,0.752403 1.849531,0.851415 2.460888,0.240087 l 0.510904,-0.509944 c 0.611328,-0.611328 0.512317,-1.708457 -0.240086,-2.460888 l -6.242253,-6.211522 0,-10.744359 c 0,-1.064064 -0.85663,-1.920693 -1.920694,-1.920693 z m 0,1.89073 c 0.04452,0 0.03001,-0.01451 0.03001,0.03001 l 0,10.744358 A 1.8998538,1.8998538 0 0 0 59.289,56.187013 l -0.449443,-0.420632 c -0.0733,-0.0733 -0.117719,-0.09546 -0.120043,-0.09003 -0.0017,-0.0055 -9.26e-4,-0.03533 0,-0.03001 a 1.8998538,1.8998538 0 0 0 0.09003,-0.510184 l 0,-10.894172 c 0,-0.04452 -0.01451,-0.03001 0.03001,-0.03001 z m 0.570206,12.124377 6.242253,6.21229 -0.03001,0.03001 -6.21229,-6.242253 z" />
    <path
       inkscape:connector-curvature="0"
       style="color:black;opacity:0.1;fill:black"
       id="path83"
       d="m 58.838838,34.6389 c -11.668212,0 -21.127626,9.459414 -21.127626,21.127626 l -3.841387,0 0.570206,0.960346 3.270941,0 c 0,-11.668211 9.459414,-21.127626 21.127626,-21.127626 11.506874,0 20.870254,9.203002 21.127626,20.647453 0.0038,-0.161338 0,-0.317875 0,-0.480173 0,-11.668212 -9.459414,-21.127626 -21.127626,-21.127626 z m 0,7.682773 c -1.064064,0 -1.920693,0.856629 -1.920693,1.920693 l 0,0.960347 c 0,-1.064064 0.856629,-1.920694 1.920693,-1.920694 1.064064,0 1.920693,0.85663 1.920693,1.920694 l 0,-0.960347 c 0,-1.064064 -0.856629,-1.920693 -1.920693,-1.920693 z m 1.920693,12.665051 0,0.960347 6.242254,6.21229 c 0.28215,0.28215 0.474824,0.625032 0.570206,0.960347 0.194787,-0.601753 -0.0059,-1.356394 -0.570206,-1.920693 l -6.242254,-6.212483 z m -3.841386,0.150054 c -0.116058,0.312248 -0.0996,0.668834 0,1.020369 0.0061,-0.01903 -0.007,-0.04129 0,-0.06002 l 0,-0.960347 z m -13.385312,0.629988 c -0.01921,0.321716 -0.05954,0.633829 -0.05954,0.960347 l 3.27094,0 0.570446,-0.960347 -3.781845,0 z m 30.640821,0.480173 c -0.257373,8.259942 -7.011491,14.885373 -15.334816,14.885373 -2.802291,0 -5.420196,-0.759634 -7.682773,-2.070507 l -2.88104,5.011857 c 0.134497,0.07773 0.283782,0.135246 0.420152,0.210076 l 2.460408,-4.262019 c 2.262577,1.310874 4.880482,2.070508 7.682773,2.070508 8.486199,0 15.365546,-6.879347 15.365546,-15.365547 0,-0.163239 -0.02496,-0.318162 -0.03001,-0.480173 z" />
    <path
       inkscape:connector-curvature="0"
       style="color:black;opacity:0.5;fill:#4ca9e2;fill-opacity:1"
       id="path85"
       d="m 58.838838,34.508538 c -11.668212,0 -21.127626,9.459414 -21.127626,21.127626 l -3.841387,0 3.361214,5.76208 3.361213,5.76208 3.361213,-5.76208 3.361213,-5.76208 -3.841386,0 c 0,-8.486199 6.879347,-15.365547 15.365546,-15.365547 8.486199,0 15.365547,6.879348 15.365547,15.365547 0,8.486199 -6.879348,15.365546 -15.365547,15.365546 -2.802675,0 -5.42058,-0.759961 -7.682773,-2.070699 l -2.88104,5.011089 c 3.105761,1.795848 6.718585,2.821498 10.563813,2.821498 11.668212,0 21.127627,-9.459414 21.127627,-21.127626 0,-11.668212 -9.459415,-21.127627 -21.127627,-21.127627 z m 0,0.900324 c 11.177475,0 20.226821,9.049923 20.226821,20.226822 0,11.177474 -9.049922,20.226821 -20.226821,20.226821 -3.359773,0 -6.487622,-0.894294 -9.273299,-2.340845 l 1.980715,-3.451294 c 2.203995,1.120725 4.650959,1.832341 7.292872,1.832341 8.977321,0 16.266352,-7.289031 16.266352,-16.266351 0,-8.977321 -7.289031,-16.266352 -16.266352,-16.266352 -8.97732,0 -16.266351,7.289031 -16.266351,16.266352 a 0.9086896,0.9086896 0 0 0 0.900805,0.900805 l 2.280823,0 -2.580931,4.41164 -2.581412,4.410873 -2.581412,-4.411833 -2.580451,-4.410872 2.280823,0 a 0.9086896,0.9086896 0 0 0 0.900805,-0.900805 c 0,-11.177475 9.049346,-20.226821 20.226821,-20.226821 z m 0,6.781969 c -1.064064,0 -1.920693,0.856629 -1.920693,1.920693 l 0,10.894172 c -0.190735,0.513142 -0.08553,1.14214 0.300108,1.680607 0.07404,0.114886 0.173909,0.20392 0.270098,0.300108 l 6.781968,6.812699 c 0.752403,0.752403 1.849531,0.851415 2.460888,0.240087 l 0.510904,-0.509944 c 0.611328,-0.611328 0.512317,-1.708457 -0.240086,-2.460888 l -6.242253,-6.211523 0,-10.744358 c 0,-1.064064 -0.85663,-1.920693 -1.920694,-1.920693 z m 0,0.900325 c 0.576419,0 1.020369,0.443949 1.020369,1.020368 l 0,10.744358 a 0.9086896,0.9086896 0 0 0 0.270097,0.630228 l 6.242253,6.21229 c 0.468304,0.468294 0.432377,1.008172 0.240087,1.200433 l -0.510184,0.510185 c -0.19229,0.19229 -0.73213,0.228216 -1.200434,-0.240087 l -6.781968,-6.812699 c -0.120302,-0.120303 -0.161741,-0.168195 -0.150054,-0.150054 a 0.9086896,0.9086896 0 0 0 0,-0.06002 c -0.236245,-0.330359 -0.2785,-0.627106 -0.210316,-0.810533 a 0.9086896,0.9086896 0 0 0 0.06002,-0.330119 l 0,-10.894172 c 0,-0.57642 0.443949,-1.020369 1.020368,-1.020369 z" />
    <path
       style="color:black;opacity:0.2;fill:white"
       inkscape:connector-curvature="0"
       id="path87"
       d="m 58.838838,40.400979 c -8.486199,0 -15.365546,6.879348 -15.365546,15.365547 l 0.06002,0 c 0.502262,-8.0333 7.14594,-14.4052 15.306005,-14.4052 8.323325,0 15.077443,6.625432 15.335776,14.885373 0.0048,-0.162298 0.02977,-0.316914 0.02977,-0.480173 0,-8.486584 -6.878963,-15.365547 -15.365547,-15.365547 z m -1.920693,15.755448 c -0.162961,0.50229 -0.07145,1.101709 0.300108,1.620585 0.07404,0.114886 0.173909,0.20392 0.270098,0.300108 l 6.781968,6.812699 c 0.752403,0.752403 1.849531,0.851415 2.460888,0.240087 l 0.510904,-0.509944 c 0.382084,-0.382084 0.489086,-0.941688 0.33012,-1.500542 -0.06493,0.200578 -0.17729,0.387365 -0.33012,0.540195 l -0.509944,0.509944 c -0.611327,0.611328 -1.708456,0.512316 -2.460888,-0.240087 l -6.782448,-6.812507 c -0.09604,-0.09603 -0.195911,-0.185347 -0.270818,-0.299628 -0.150774,-0.211276 -0.235285,-0.434077 -0.299628,-0.660718 z m 23.04832,0.09027 C 79.709092,67.691148 70.345712,76.89415 58.838838,76.89415 c -3.679088,0 -7.130574,-0.957466 -10.143181,-2.611182 L 48.275025,75.033 c 3.105761,1.795849 6.718585,2.821499 10.563813,2.821499 11.668212,0 21.127627,-9.459127 21.127627,-21.127627 0,-0.161933 0.0036,-0.319104 0,-0.480173 z m -46.09664,0.480173 3.361214,5.76208 3.361213,5.76208 3.361213,-5.76208 3.361213,-5.76208 -0.570446,0 -2.790767,4.801734 -3.361213,5.76208 -3.361213,-5.76208 -2.790768,-4.801734 -0.570446,0 z" />
  </g>
</svg>
