<svg height="16" width="16" xmlns="http://www.w3.org/2000/svg" xmlns:sodipodi="http://sodipodi.sourceforge.net/DTD/sodipodi-0.dtd" xmlns:inkscape="http://www.inkscape.org/namespaces/inkscape">
 <path d="m 3,5e-7 c -0.554,0 -1,0.446 -1,1 L 2,15 c 0,0.554 0.446,1 1,1 l 10,0 c 0.554,0 1,-0.446 1,-1 l 0,-9.9999995 c 0,-0.554 -4.446,-5 -5,-5 z m 0.5,1 5.5,0 0,4 4,0 L 13,14.5 c 0,0.276999 -0.223,0.5 -0.5,0.5 l -9,0 C 3.223,15 3,14.776999 3,14.5 L 3,1.5000005 c 0,-0.277 0.223,-0.5 0.5,-0.5 z" stroke-width="1" display="inline" fill="#bebebe" color="#bebebe" fill-opacity="1" fill-rule="nonzero" stroke="none" visibility="visible" sodipodi:nodetypes="sssssssssscccssssss" inkscape:connector-curvature="0"/>
</svg>
