<?xml version="1.0" encoding="UTF-8" standalone="no"?>
<svg
   xmlns:dc="http://purl.org/dc/elements/1.1/"
   xmlns:cc="http://creativecommons.org/ns#"
   xmlns:rdf="http://www.w3.org/1999/02/22-rdf-syntax-ns#"
   xmlns:svg="http://www.w3.org/2000/svg"
   xmlns="http://www.w3.org/2000/svg"
   xmlns:xlink="http://www.w3.org/1999/xlink"
   xmlns:sodipodi="http://sodipodi.sourceforge.net/DTD/sodipodi-0.dtd"
   xmlns:inkscape="http://www.inkscape.org/namespaces/inkscape"
   height="96"
   width="96"
   id="svg2"
   version="1.1"
   inkscape:version="0.91 r13725"
   sodipodi:docname="folder-dropbox.svg">
  <metadata
     id="metadata87">
    <rdf:RDF>
      <cc:Work
         rdf:about="">
        <dc:format>image/svg+xml</dc:format>
        <dc:type
           rdf:resource="http://purl.org/dc/dcmitype/StillImage" />
      </cc:Work>
    </rdf:RDF>
  </metadata>
  <sodipodi:namedview
     pagecolor="#ffffff"
     bordercolor="#666666"
     borderopacity="1"
     objecttolerance="10"
     gridtolerance="10"
     guidetolerance="10"
     inkscape:pageopacity="0"
     inkscape:pageshadow="2"
     inkscape:window-width="1366"
     inkscape:window-height="716"
     id="namedview85"
     showgrid="false"
     inkscape:zoom="3.4766084"
     inkscape:cx="28.314678"
     inkscape:cy="46.78204"
     inkscape:window-x="0"
     inkscape:window-y="24"
     inkscape:window-maximized="1"
     inkscape:current-layer="g7503" />
  <defs
     id="defs4">
    <linearGradient
       gradientTransform="matrix(1 0 0 1 0.17 954.94)"
       id="linearGradient4321"
       gradientUnits="userSpaceOnUse"
       y2="31.732"
       y1="75.57"
       x2="0">
      <stop
         id="stop4323"
         stop-opacity="0.784"
         stop-color="#aa7932"
         style="stop-color:#2b91d1;stop-opacity:1" />
      <stop
         id="stop4325"
         offset="1"
         stop-opacity="0.392"
         stop-color="#aa7932"
         style="stop-color:#2a8fcf;stop-opacity:1" />
    </linearGradient>
    <linearGradient
       x2="0"
       y1="20.221"
       y2="138.66"
       gradientUnits="userSpaceOnUse"
       id="linearGradient3613-3">
      <stop
         stop-color="#fff"
         id="stop7" />
      <stop
         stop-color="#fff"
         stop-opacity="0"
         offset="1"
         id="stop9" />
    </linearGradient>
    <clipPath
       id="clipPath3613-29">
      <use
         xlink:href="#SVGCleanerId_1"
         id="use12" />
    </clipPath>
    <filter
       x="-0.192"
       y="-0.192"
       height="1.384"
       color-interpolation-filters="sRGB"
       id="filter3794-0"
       width="1.384">
      <feGaussianBlur
         stdDeviation="5.28"
         id="feGaussianBlur15" />
    </filter>
    <clipPath
       id="clipPath3613-25">
      <use
         xlink:href="#SVGCleanerId_1"
         id="use18" />
    </clipPath>
    <clipPath
       id="clipPath3860">
      <rect
         x="6"
         rx="6"
         y="18"
         height="72"
         width="84"
         id="rect21" />
    </clipPath>
    <filter
       x="-0.166"
       y="-0.197"
       height="1.394"
       color-interpolation-filters="sRGB"
       id="filter3870"
       width="1.331">
      <feGaussianBlur
         stdDeviation="5.17031"
         id="feGaussianBlur24" />
    </filter>
    <linearGradient
       x2="0"
       xlink:href="#linearGradient3613-3"
       y1="22.933"
       y2="81.48"
       gradientUnits="userSpaceOnUse"
       id="linearGradient5696" />
    <linearGradient
       x1="93.01"
       x2="6.187"
       gradientUnits="userSpaceOnUse"
       id="linearGradient4640"
       gradientTransform="translate(-159.86441,-12.20339)">
      <stop
         stop-color="#be8e4a"
         stop-opacity="0.077"
         id="stop28" />
      <stop
         stop-color="#a67c25"
         offset="1"
         id="stop30" />
    </linearGradient>
    <linearGradient
       x2="0"
       y1="75.57"
       y2="31.732"
       gradientUnits="userSpaceOnUse"
       id="linearGradient4157"
       gradientTransform="matrix(1 0 0 1 0.17 954.94)">
      <stop
         stop-color="#aa7932"
         stop-opacity="0.784"
         id="stop33" />
      <stop
         stop-color="#aa7932"
         stop-opacity="0.392"
         offset="1"
         id="stop35" />
    </linearGradient>
    <rect
       x="15"
       stroke-width="0.5"
       rx="12"
       y="15"
       fill="url(#linearGradient3613-3)"
       stroke="#fff"
       height="66"
       filter="url(#filter3794-0)"
       id="SVGCleanerId_0"
       width="66"
       stroke-linecap="round" />
    <rect
       x="6"
       rx="6"
       y="6"
       height="84"
       id="SVGCleanerId_1"
       width="84" />
    <linearGradient
       inkscape:collect="always"
       xlink:href="#linearGradient5040"
       id="linearGradient4348"
       x1="5.4987845"
       y1="48"
       x2="90.498787"
       y2="48"
       gradientUnits="userSpaceOnUse" />
    <linearGradient
       x2="0"
       y1="90"
       y2="5.9879999"
       gradientUnits="userSpaceOnUse"
       id="linearGradient5040">
      <stop
         stop-color="#d70751"
         id="stop5042" />
      <stop
         stop-color="#e7466b"
         offset="1"
         id="stop5044" />
    </linearGradient>
    <filter
       inkscape:collect="always"
       style="color-interpolation-filters:sRGB"
       id="filter4356"
       x="-0.03994016"
       width="1.0798804"
       y="-0.13085099"
       height="1.2617019">
      <feGaussianBlur
         inkscape:collect="always"
         stdDeviation="1.1452528"
         id="feGaussianBlur4358" />
    </filter>
    <linearGradient
       inkscape:collect="always"
       xlink:href="#linearGradient3617"
       id="linearGradient4372"
       x1="52.384773"
       y1="88.512177"
       x2="52.384773"
       y2="26.095018"
       gradientUnits="userSpaceOnUse" />
    <linearGradient
       x2="0"
       y1="90"
       y2="5.9879999"
       gradientUnits="userSpaceOnUse"
       id="linearGradient3617">
      <stop
         stop-color="#d70751"
         id="stop4436" />
      <stop
         stop-color="#e7466b"
         offset="1"
         id="stop4438" />
    </linearGradient>
    <linearGradient
       inkscape:collect="always"
       xlink:href="#linearGradient4334"
       id="linearGradient4340"
       x1="44.359856"
       y1="-20.334562"
       x2="45.070312"
       y2="45.913132"
       gradientUnits="userSpaceOnUse" />
    <linearGradient
       inkscape:collect="always"
       id="linearGradient4334">
      <stop
         style="stop-color:white;stop-opacity:1;"
         offset="0"
         id="stop4336" />
      <stop
         style="stop-color:white;stop-opacity:0;"
         offset="1"
         id="stop4338" />
    </linearGradient>
    <filter
       inkscape:collect="always"
       style="color-interpolation-filters:sRGB"
       id="filter4390"
       x="-0.061865166"
       width="1.1237303"
       y="-0.079545341"
       height="1.1590908">
      <feGaussianBlur
         inkscape:collect="always"
         stdDeviation="1.8044006"
         id="feGaussianBlur4392" />
    </filter>
  </defs>
  <g
     id="g5065">
    <rect
       style="opacity:0.1;fill:#000000;fill-opacity:1;stroke:none"
       x="4"
       rx="11.845899"
       y="4"
       height="88"
       width="88"
       transform="matrix(0,1,1,0,0,0)"
       id="rect4364" />
    <rect
       id="rect4362"
       transform="matrix(0,1,1,0,0,0)"
       width="87"
       height="87"
       y="4.5"
       rx="11.711287"
       x="4.5"
       style="opacity:0.1;fill:#000000;fill-opacity:1;stroke:none" />
    <rect
       style="opacity:0.1;fill:#000000;fill-opacity:1;stroke:none"
       x="5"
       rx="11.576674"
       y="5"
       height="86"
       width="86"
       transform="matrix(0,1,1,0,0,0)"
       id="rect4360" />
    <rect
       id="rect4300"
       transform="matrix(0,1,1,0,0,0)"
       width="85"
       height="85"
       y="5.5"
       rx="11.442062"
       x="5.4987845"
       style="fill:url(#linearGradient4348);fill-opacity:1;stroke:none" />
    <rect
       style="color:#000000;display:inline;visibility:visible;opacity:0.397;fill:#000000;fill-opacity:1;fill-rule:nonzero;stroke:none;stroke-width:2.5;filter:url(#filter4356)"
       x="14.813876"
       display="inline"
       y="17.749441"
       height="21.005625"
       visibility="visible"
       width="68.818123"
       id="rect4350" />
    <rect
       id="rect4302"
       width="68.818123"
       visibility="visible"
       height="21.005625"
       y="17.749441"
       display="inline"
       x="14.813876"
       style="color:#000000;display:inline;visibility:visible;fill:#e6e6e6;fill-opacity:1;fill-rule:nonzero;stroke:none;stroke-width:2.5" />
    <path
       id="path4304"
       inkscape:connector-curvature="0"
       d="m 40.5625,24.393694 -8.765625,13.447266 -26.296875,0 0,41.205046 c 0,6.339088 5.11604,11.455132 11.455078,11.455132 l 62.089844,0 C 85.383961,90.501138 90.5,85.385094 90.5,79.046006 l 0,-54.652312 -49.9375,0 z"
       style="fill:url(#linearGradient4372);fill-opacity:1;stroke:none" />
    <path
       inkscape:connector-curvature="0"
       id="path4319"
       d="m 40.562499,24.393694 -8.76562,13.447266 -26.296879,0 0,2.300781 26.007809,0 8.76563,-13.447266 49.937504,0 0,54.652344 c 0,0.0969 -0.0113,0.1908 -0.0137,0.28711 0.19156,-0.832341 0.30273,-1.696334 0.30273,-2.587891 l 0,-54.652344 -49.937504,0 z"
       style="fill:url(#linearGradient4340);fill-opacity:1;stroke:none" />
    <path
       d="m 5.2922679,73.685059 0,5.0663 c 0,6.668 5.3645011,12.032 12.0320011,12.032 l 61.049,0 c 6.668,0 12.032,-5.3645 12.032,-12.032 l 0,-5.0663 c 0,6.6681 -5.3645,12.032 -12.032,12.032 l -61.049,0 c -6.668,0 -12.0320011,-5.3643 -12.0320011,-12.032 z"
       id="path64"
       inkscape:connector-curvature="0"
       style="fill-opacity:0.11799999" />
    <path
       style="opacity:0.08900003;fill:#ffffff;fill-opacity:1;stroke:none;filter:url(#filter4390)"
       d="m 42.716463,29.731708 -7.21875,11.074219 -21.65625,0 0,33.933567 c 0,5.220425 4.213209,9.433638 9.433594,9.433638 l 51.132812,0 c 5.220385,0 9.433594,-4.213213 9.433594,-9.433638 l 0,-45.007786 -41.125,0 z"
       inkscape:connector-curvature="0"
       id="path4374" />
  </g>
  <g
     id="g7503">
    <path
       d="m 50.305812,31.987462 a 2.0041,2.0041 0 0 0 -0.84375,0.28125 l -14.406,8.75 a 2.0041,2.0041 0 0 0 -0.25,3.25 l 7.8438,6.62505 -7.9688,6.4375 a 2.0041,2.0041 0 0 0 0.15625,3.25 l 9.1875,5.875 a 2.0041,2.0041 0 0 0 -0.0625,0.4687 l 0,1.25 a 2.0041,2.0041 0 0 0 0.84375,1.6563 l 14.062,9.8125 a 2.0041,2.0041 0 0 0 2.2812,0 l 14.25,-9.8125 a 2.0041,2.0041 0 0 0 0.875,-1.6563 l 0,-1.4062 a 2.0041,2.0041 0 0 0 -0.0625,-0.5 l 8.875,-5.6875 a 2.0041,2.0041 0 0 0 0.15625,-3.25 l -7.8438,-6.3438 7.8438,-6.68755 a 2.0041,2.0041 0 0 0 -0.28125,-3.25 l -14.375,-8.7188 a 2.0041,2.0041 0 0 0 -2.3438,0.1875 l -8.1875,7.0625 -8.25,-7.125 a 2.0041,2.0041 0 0 0 -1.5,-0.46875 z m 0.1875,2 9.5625,8.25 9.5,-8.1875 14.375,8.7188 -9.6875,8.25 9.75,7.875 -14.281,9.125 -9.75,-8.2813 -9.75,8.2813 -14.281,-9.125 9.8125,-7.9063 14.219,8.75 14.188,-8.7187 -14.188,-8.75 -14.125,8.7187 -9.75,-8.25 14.406,-8.75 z m 9.4688,10.656 10.344,6.375 -10.344,6.3437 -10.312,-6.3437 10.312,-6.375 z m 0,16.75 9.75,8.2812 4.5625,-2.9062 0,1.4062 -14.25,9.8125 -14.062,-9.8125 0,-1.25 4.25,2.75 9.75,-8.2812 z"
       id="path73"
       inkscape:connector-curvature="0"
       style="opacity:0.05;fill:white" />
    <path
       d="m 50.486687,31.977348 -14.389,8.7585 9.7491,8.2372 14.128,-8.7064 14.18,8.7325 -14.18,8.7324 9.7491,8.2633 14.285,-9.1235 -9.7751,-7.8722 9.6969,-8.2372 -14.389,-8.7324 -9.4884,8.185 -9.5666,-8.2372 z m -4.7442,16.996 -9.8273,7.8983 14.311,9.1235 9.723,-8.2633 -14.207,-8.7585 z m 14.207,10.427 -9.723,8.2632 -4.275,-2.737 0,1.2512 14.076,9.8012 14.233,-9.8012 0,-1.4076 -4.5356,2.8934 -9.7751,-8.2632 z"
       id="path75"
       style="opacity:0.9;fill:#fce4ec;fill-opacity:1"
       inkscape:connector-curvature="0" />
    <path
       d="m 50.493387,31.977348 -14.406,8.75 9.75,8.25 14.125,-8.7187 14.188,8.75 -14.188,8.7187 9.75,8.2813 14.281,-9.125 -9.75,-7.875 9.6875,-8.25 -14.375,-8.7188 -9.5,8.1875 -9.5625,-8.25 z m 9.4688,25.75 -14.219,-8.75 -9.8125,7.9063 14.281,9.125 9.75,-8.2813 z m -9.625,-23.812 7.0625,6.0938 -11.438,7.0312 -7.2188,-6.0937 11.594,-7.0312 z m 19.375,0.0625 11.562,7 -7.1875,6.125 -11.438,-7.0312 7.0625,-6.0938 z m -23.844,16.906 11.438,7.0625 -7.2188,6.125 -11.5,-7.3438 7.2812,-5.8437 z m 28.219,0 7.25,5.8437 -11.5,7.3438 -7.2188,-6.125 11.469,-7.0625 z m -14.125,8.5 -9.75,8.2812 -4.25,-2.75 0,1.25 14.062,9.8125 14.25,-9.8125 0,-1.4062 -4.5625,2.9062 -9.75,-8.2812 z m 0,2.0312 8.2812,7.0313 -8.1875,5.625 -8.25,-5.7188 8.1562,-6.9375 z"
       id="path77"
       style="opacity:0.05;fill:black"
       inkscape:connector-curvature="0" />
  </g>
</svg>
