<svg height="96" width="96" xmlns="http://www.w3.org/2000/svg" xmlns:xlink="http://www.w3.org/1999/xlink" xmlns:sodipodi="http://sodipodi.sourceforge.net/DTD/sodipodi-0.dtd" xmlns:inkscape="http://www.inkscape.org/namespaces/inkscape">
 <defs>
  <linearGradient x2="0" y1="20.221" y2="138.66" gradientUnits="userSpaceOnUse" id="linearGradient3613-3">
   <stop stop-color="#fff"/>
   <stop stop-color="#fff" stop-opacity="0" offset="1"/>
  </linearGradient>
  <clipPath id="clipPath3613-29">
   <use xlink:href="#SVGCleanerId_1"/>
  </clipPath>
  <filter x="-0.192" y="-0.192" height="1.384" color-interpolation-filters="sRGB" id="filter3794-0" width="1.384">
   <feGaussianBlur stdDeviation="5.28"/>
  </filter>
  <clipPath id="clipPath3613-25">
   <use xlink:href="#SVGCleanerId_1"/>
  </clipPath>
  <clipPath id="clipPath3860">
   <rect x="6" rx="6" y="18" height="72" width="84"/>
  </clipPath>
  <filter x="-0.166" y="-0.197" height="1.394" color-interpolation-filters="sRGB" id="filter3870" width="1.331">
   <feGaussianBlur stdDeviation="5.17031"/>
  </filter>
  <linearGradient x2="0" xlink:href="#linearGradient3613-3" y1="22.933" y2="81.48" gradientUnits="userSpaceOnUse" id="linearGradient5696"/>
  <linearGradient x1="93.01" x2="6.187" gradientUnits="userSpaceOnUse" id="linearGradient4640" gradientTransform="matrix(1 0 0 1 0 956.36)">
   <stop stop-color="#be8e4a" stop-opacity="0.077"/>
   <stop stop-color="#a67c25" offset="1"/>
  </linearGradient>
  <linearGradient x2="0" y1="75.72" y2="31.848" gradientUnits="userSpaceOnUse" id="linearGradient3089" gradientTransform="matrix(1 0 0 1 0 -2)">
   <stop stop-color="#aa7932" stop-opacity="0.784"/>
   <stop stop-color="#aa7932" stop-opacity="0.392" offset="1"/>
  </linearGradient>
  <rect x="15" stroke-width="0.5" rx="12" y="15" fill="url(#linearGradient3613-3)" stroke="#fff" height="66" filter="url(#filter3794-0)" id="SVGCleanerId_0" width="66" stroke-linecap="round"/>
  <rect x="6" rx="6" y="6" height="84" id="SVGCleanerId_1" width="84"/>
  <path d="m39.875 30.156v26.344c-1.8502-0.72456-4.2549-0.83122-6.75-0.15625-4.6631 1.2614-7.7903 4.7796-6.9688 7.875 0.82155 3.0954 5.2744 4.6052 9.9375 3.3438 3.9617-1.0717 6.7997-3.7785 7.0625-6.4688h0.03125v-19.375l16.625 2.0938v18.75c-1.8502-0.72456-4.2862-0.86247-6.7812-0.1875-4.6631 1.2614-7.7903 4.8108-6.9688 7.9062 0.82155 3.0954 5.2744 4.6052 9.9375 3.3438 3.9617-1.0717 6.7997-3.8097 7.0625-6.5h0.03125v-33.844l-23.219-3.125zm1.75 1.9688 19.719 2.6562v3.2812a1.7489 1.7489 0 0 0 -1.282 -0.906l-16.625-2.375a1.7489 1.7489 0 0 0 -1.8125 0.9375v-3.5938zm1.5625 4.375 16.625 2.375v2.125l-16.625-2.0938v-2.4062zm-1.5625 3.1562a1.7489 1.7489 0 0 0 0.53125 0.65625 1.7489 1.7489 0 0 0 -0.53125 0.625v-1.2812zm19.719 2.1875v1.1562a1.7489 1.7489 0 0 0 -0.5 -0.59375 1.7489 1.7489 0 0 0 0.5 -0.5625zm-19.906 15.438v3.4688a1.7489 1.7489 0 0 0 -0.03125 0.1875c-0.15538 1.5908-2.3328 4.0046-5.7812 4.9375-2.0263 0.54816-3.9658 0.47529-5.375 0s-2.1783-1.235-2.4062-2.0938c-0.22751-0.85723 0.07077-1.9121 1.0625-3.0312s2.6564-2.1693 4.6875-2.7188c2.1769-0.58888 4.2308-0.46446 5.6562 0.09375a1.7489 1.7489 0 0 0 2.1875 -0.84375zm19.906 6.125v3.375a1.7489 1.7489 0 0 0 -0.03125 0.1875c-0.15551 1.5921-2.341 4.0381-5.7812 4.9688-2.0263 0.54816-3.9658 0.47529-5.375 0s-2.1783-1.235-2.4062-2.0938c-0.22714-0.85583 0.06942-1.9357 1.0625-3.0625s2.6599-2.1703 4.6875-2.7188c2.1602-0.58437 4.2524-0.437 5.6875 0.125a1.7489 1.7489 0 0 0 2.1562 -0.78125z" fill="url(#linearGradient3089)" id="SVGCleanerId_2" opacity="0.25"/>
 </defs>
 <g transform="matrix(1 0 0 1 0 -956.36)">
  <rect x="3" rx="12.724" y="959.35" fill-opacity="0.02" height="89.98" width="89.98"/>
  <rect x="3.608" rx="12.552" y="959.96" fill-opacity="0.039" height="88.76" width="88.76"/>
  <rect x="4.216" rx="12.38" y="960.57" fill-opacity="0.078" height="87.55" width="87.55"/>
  <rect x="4.824" rx="12.208" y="961.18" fill-opacity="0.157" height="86.33" width="86.33"/>
  <path d="m17.469 961.77c-6.2512 0-11.355 4.7568-11.969 10.844v63.469c0.61364 6.0834 5.7175 10.812 11.969 10.812h61.031c6.4543 0 11.671-5.0367 12-11.406v-62.281c-0.32117-6.3771-5.5404-11.438-12-11.438h-61.031z" fill="#cc993d"/>
  <use xlink:href="#SVGCleanerId_0" clip-path="url(#clipPath3613-29)" opacity="0.05" transform="matrix(1.0149 0 0 1.0238 -0.838 955.22)"/>
  <path d="m17.469 961.77c-6.2512 0-11.355 4.7568-11.969 10.844v63.469c0.07233 0.717 0.21463 1.4198 0.40625 2.0937-0.14675-1.3295-0.26905-2.6965-0.34375-4.0937v-59.281c0-2.3816 0.62452-7.4626 6.625-7.4688h12.75c4.9632 0 7.6402-1.0079 10.125 3.7188 3.0657 4.2041 4.006 4.8869 9.5625 4.2812h40.656c3.7739-0.0442 5.1676 1.5874 5.2188 5.4375v-7.5625c-0.32117-6.3771-5.5404-11.438-12-11.438h-61.031zm73.031 69.73c-0.04406 2.2078-0.18649 4.3503-0.40625 6.4063 0.21124-0.7976 0.36211-1.6143 0.40625-2.4688v-3.9375zm-1.0625 8.2813c-0.13416 0.2981-0.28057 0.5904-0.4375 0.875 0.1575-0.2841 0.30285-0.5773 0.4375-0.875zm-0.438 0.9c-0.15693 0.2845-0.32144 0.5427-0.5 0.8125 0.17482-0.2638 0.34595-0.5347 0.5-0.8125zm-81.906 0.25c0.15696 0.2676 0.32348 0.5274 0.5 0.7812-0.1807-0.2598-0.33982-0.5069-0.5-0.7812zm76.188 4.9375c-0.26128 0.1134-0.54176 0.2175-0.8125 0.3125 0.27423-0.096 0.5479-0.198 0.8125-0.3125zm-69.625 0.375c0.2786 0.093 0.55637 0.1773 0.84375 0.25-0.28437-0.072-0.56799-0.1586-0.84375-0.25zm67.625 0.2812c-0.24437 0.058-0.4999 0.1135-0.75 0.1563 0.25388-0.043 0.50195-0.097 0.75-0.1563z" fill="url(#linearGradient4640)"/>
  <use xlink:href="#SVGCleanerId_0" clip-path="url(#clipPath3613-25)" opacity="0.1" transform="matrix(1.0168 0 0 1.021 -0.61 955.51)"/>
  <path d="m28.25 966.31c-0.98771 0.0223-2.0717 0.10149-3.3125 0.10149h-12.75c-6.0005 0.007-6.625 6.3566-6.625 8.9362v0.81233c0-2.5796 0.62452-8.0829 6.625-8.0895h12.75c4.9632 0 7.7652-0.96667 10.125 3.3403 3.0657 4.5536 4.006 5.293 9.5625 4.6371h40.656c3.7739-0.0479 5.1676 1.7193 5.2188 5.8894v-0.81234c-0.05112-4.1701-1.4448-5.9373-5.2188-5.8894h-40.656c-5.5565 0.65596-6.4968-0.0835-9.5625-4.6371-1.8636-3.8396-3.8494-4.3555-6.8125-4.2885z" fill="#f9f9f9" opacity="0.55"/>
  <path d="m35.742 968.8c0.0231 0.043 0.0394 0.081 0.0625 0.125 0.034 0.047 0.0603 0.079 0.0937 0.125h45.625c2.0566 0 3.7188 1.6621 3.7188 3.7187v-0.25c0-2.0566-1.6621-3.7187-3.7188-3.7187h-45.781z" fill="#fff" fill-opacity="0.59" opacity="0.205"/>
  <path d="m35.742 969.05c0.0231 0.043 0.0394 0.081 0.0625 0.125 0.0241 0.033 0.0386 0.061 0.0625 0.094h45.656c2.0566 0 3.7188 1.6621 3.7188 3.7187v-0.2187c0-2.0566-1.6621-3.7188-3.7188-3.7188l-45.781 0.0001z" fill="#fff" fill-opacity="0.59" opacity="0.518"/>
  <path d="m35.742 969.27c0.0231 0.043 0.0394 0.081 0.0625 0.125 0.0335 0.046 0.0607 0.08 0.0937 0.125h45.625c0.25708 0 0.50773 0.013 0.75 0.063 0.24227 0.049 0.46498 0.1248 0.6875 0.2188 0.23229 0.096 0.45057 0.2049 0.65625 0.3437 0.2043 0.138 0.35868 0.294 0.53125 0.4688 0.32871 0.3328 0.62762 0.7185 0.8125 1.1562 0.004 0.01-0.004 0.023 0 0.031 0.18093 0.4379 0.28125 0.9336 0.28125 1.4375v-0.25c0-2.0566-1.6621-3.7187-3.7188-3.7187h-45.781z" fill="#fff" fill-opacity="0.59" opacity="0.747"/>
  <path d="m35.751 969.5c0.0231 0.043 0.0394 0.081 0.0625 0.125 3.0657 4.2041 4.006 4.8869 9.5625 4.2813h39.875v-0.6875c0-2.0567-1.6621-3.7188-3.7188-3.7188h-45.781z" fill="#fff" fill-opacity="0.83"/>
  <path d="m15.969 22.531c-2.8459 0.0043-5.4332 2.5916-5.4375 5.4375v48.062c0.0043 2.8459 2.5916 5.4332 5.4375 5.4375h64.062c2.8459-0.0043 5.4332-2.5916 5.4375-5.4375v-48.062c-0.0043-2.8459-2.5916-5.4332-5.4375-5.4375z" clip-path="url(#clipPath3860)" fill="url(#linearGradient5696)" filter="url(#filter3870)" opacity="0.15" transform="matrix(0.94641 0 0 0.84994 2.933 964.94)"/>
  <path d="m5.3323 1029.9v5.0663c0 6.668 5.3645 12.032 12.032 12.032h61.049c6.668 0 12.032-5.3645 12.032-12.032v-5.0663c0 6.6681-5.3645 12.032-12.032 12.032h-61.049c-6.668 0-12.032-5.3643-12.032-12.032z" fill-opacity="0.118"/>
  <path d="m5.3323 1033.9v1.0133c0 6.668 5.3645 12.032 12.032 12.032h61.049c6.668 0 12.032-5.3645 12.032-12.032v-1.0133c0 6.6681-5.3645 12.032-12.032 12.032h-61.049c-6.668 0-12.032-5.3644-12.032-12.032z" fill-opacity="0.098"/>
  <g transform="matrix(1 0 0 1 -0.675 957.93)">
   <path d="m39.719 28.031a2.1289 2.1289 0 0 0 -1.9688 2.125v23.781c-1.654-0.1775-3.395-0.14116-5.1875 0.34375-2.6973 0.72966-4.9715 2.1108-6.5625 3.9062s-2.5401 4.1743-1.9062 6.5625c0.63337 2.3864 2.6332 4.0146 4.9062 4.7812 2.273 0.76664 4.9532 0.82497 7.6562 0.09375 4.229-1.143 7.526-3.868 8.344-7.436a2.1289 2.1289 0 0 0 0.3125 -1.0938v-16.938l12.375 1.5625v14.281c-1.6596-0.188-3.4136-0.17583-5.2188 0.3125-2.7015 0.73082-4.9731 2.1029-6.5625 3.9062-1.5894 1.8034-2.5406 4.2038-1.9062 6.5938 0.63337 2.3864 2.6332 4.0146 4.9062 4.7812 2.273 0.76664 4.9532 0.82497 7.6562 0.09375 4.238-1.1464 7.5276-3.8974 8.3438-7.4688a2.1289 2.1289 0 0 0 0.3125 -1.0938v-33.844a2.1289 2.1289 0 0 0 -1.8438 -2.125l-23.219-3.125a2.1289 2.1289 0 0 0 -0.4375 0zm0.15625 2.125 23.219 3.125v33.844h-0.03125c-0.26277 2.6903-3.1008 5.4283-7.0625 6.5-4.6631 1.2614-9.116-0.2483-9.9375-3.3438-0.82154-3.0954 2.3057-6.6448 6.9688-7.9062 2.4951-0.67497 4.931-0.53706 6.7812 0.1875v-18.75l-16.625-2.0938v19.375h-0.03125c-0.26277 2.6903-3.1008 5.397-7.0625 6.4688-4.6631 1.2614-9.116-0.2483-9.9375-3.3438-0.82154-3.0954 2.3057-6.6136 6.9688-7.875 2.4951-0.67497 4.8998-0.56832 6.75 0.15625v-26.344zm3.3125 6.3438v2.4062l16.625 2.0938v-2.125l-16.625-2.375z" fill="#fff" opacity="0.05"/>
   <path d="m39.688 28.969a1.1794 1.1794 0 0 0 -1 1.1875v24.938c-1.8063-0.37748-3.7885-0.43944-5.875 0.125-2.5341 0.68553-4.6807 1.9639-6.125 3.5938-1.4443 1.6298-2.1906 3.7054-1.6562 5.7188 0.53409 2.0124 2.2197 3.4297 4.2812 4.125s4.5564 0.71765 7.0938 0.03125c4.0874-1.1057 7.1816-3.7676 7.7812-6.9688a1.1794 1.1794 0 0 0 0.15625 -0.4375 1.1794 1.1794 0 0 0 0 -0.0625 1.1794 1.1794 0 0 0 0.03125 -0.125v-18.062l14.25 1.8125v16.281c-1.8102-0.38548-3.8124-0.44144-5.9062 0.125-2.5365 0.68617-4.6817 1.9873-6.125 3.625s-2.1909 3.7044-1.6562 5.7188c0.53409 2.0124 2.2197 3.4297 4.2812 4.125s4.5564 0.71765 7.0938 0.03125c4.0927-1.1072 7.1821-3.7968 7.7812-7a1.1794 1.1794 0 0 0 0.15625 -0.4375 1.1794 1.1794 0 0 0 0 -0.0625 1.1794 1.1794 0 0 0 0.03125 -0.125v-33.844a1.1794 1.1794 0 0 0 -1.032 -1.156l-23.219-3.125a1.1794 1.1794 0 0 0 -0.21875 -0.03125 1.1794 1.1794 0 0 0 -0.125 0zm0.1875 1.1875 23.219 3.125v33.844h-0.03125c-0.26277 2.6903-3.1008 5.4283-7.0625 6.5-4.6631 1.2614-9.116-0.2483-9.9375-3.3438-0.82154-3.0954 2.3057-6.6448 6.9688-7.9062 2.4951-0.67497 4.931-0.53706 6.7812 0.1875v-18.75l-16.625-2.0938v19.375h-0.03125c-0.26277 2.6903-3.1008 5.397-7.0625 6.4688-4.6631 1.2614-9.116-0.2483-9.9375-3.3438-0.82154-3.0954 2.3057-6.6136 6.9688-7.875 2.4951-0.67497 4.8998-0.56832 6.75 0.15625v-26.344zm3.3125 6.3438v2.4062l16.625 2.0938v-2.125l-16.625-2.375zm1.1875 1.3438 1.875 0.28125-1.875-0.25v-0.03125z" fill="#fff" opacity="0.1"/>
   <path d="m39.881 30.164-0.000002 26.346c-1.8502-0.72456-4.268-0.84838-6.7631-0.17341-4.6631 1.2614-7.7896 4.8027-6.968 7.8982 0.82155 3.0954 5.2688 4.5878 9.9318 3.3264 3.9617-1.0717 6.7999-3.789 7.0626-6.4793h0.03153v-19.375l16.632 2.0967v18.76c-1.8502-0.72456-4.268-0.84838-6.7631-0.17341-4.6631 1.2614-7.7896 4.8027-6.968 7.8982 0.82155 3.0954 5.2688 4.5878 9.9318 3.3264 3.9617-1.0717 6.7999-3.789 7.0626-6.4793h0.03153v-33.85l-23.221-3.1214zm3.2948 6.3401 16.632 2.3805v2.1282l-16.632-2.0967v-2.412z" fill="url(#linearGradient3089)" opacity="0.9"/>
   <use xlink:href="#SVGCleanerId_2"/>
   <path d="m39.875 30.156v1l23.219 3.125v-1l-23.219-3.125zm3.3125 8.75v1l16.625 2.0938v-1l-16.625-2.0938zm-7.3125 17c-0.88806 0.0389-1.8143 0.18439-2.75 0.4375-4.4368 1.2002-7.485 4.4572-7.0625 7.4375 0.28889-2.6783 3.1205-5.3711 7.0625-6.4375 2.4951-0.67497 4.8998-0.56832 6.75 0.15625v-1c-1.1564-0.45285-2.5199-0.65858-4-0.59375zm20.781 6.0312c-1.1476-0.03715-2.3775 0.10002-3.625 0.4375-4.3716 1.1826-7.3789 4.3683-7.0625 7.3125 0.37924-2.6268 3.1963-5.2666 7.0625-6.3125 2.4951-0.67497 4.931-0.53706 6.7812 0.1875v-1c-0.9251-0.36228-2.0086-0.58785-3.1562-0.625z" fill="url(#linearGradient3089)"/>
   <path d="m39.875 30.156v26.344c-1.8502-0.72456-4.2549-0.83122-6.75-0.15625-4.6631 1.2614-7.7903 4.7796-6.9688 7.875 0.82155 3.0954 5.2744 4.6052 9.9375 3.3438 3.9617-1.0717 6.7997-3.7785 7.0625-6.4688h0.03125v-19.375l16.625 2.0938v18.75c-1.8502-0.72456-4.2862-0.86247-6.7812-0.1875-4.6631 1.2614-7.7903 4.8108-6.9688 7.9062 0.82155 3.0954 5.2744 4.6052 9.9375 3.3438 3.9617-1.0717 6.7997-3.8097 7.0625-6.5h0.03125v-33.844l-23.219-3.125zm0.78125 0.90625 21.656 2.9062v32.938a0.79106 0.79106 0 0 0 -0.03125 0.15625c-0.21425 2.1936-2.7742 4.8046-6.5 5.8125-2.1935 0.59338-4.3149 0.516-5.9375-0.03125s-2.7032-1.5139-3.0312-2.75c-0.32771-1.2348 0.14089-2.6436 1.2812-3.9375 1.1404-1.2939 2.9622-2.4377 5.1562-3.0312 2.3436-0.63399 4.6188-0.46353 6.2812 0.1875a0.79106 0.79106 0 0 0 1.0625 -0.75v-18.75a0.79106 0.79106 0 0 0 -0.6875 -0.78125l-16.625-2.0938a0.79106 0.79106 0 0 0 -0.875 0.78125v19.156a0.79106 0.79106 0 0 0 -0.029 0.157c-0.2142 2.193-2.7704 4.7723-6.5 5.7812-2.1935 0.59338-4.3149 0.516-5.9375-0.03125s-2.7032-1.5139-3.0312-2.75c-0.32788-1.2354 0.1415-2.6201 1.2812-3.9062 1.1397-1.2862 2.9606-2.4373 5.1562-3.0312 2.3511-0.63603 4.5919-0.49307 6.25 0.15625a0.79106 0.79106 0 0 0 1.0625 -0.75v-25.438zm2.4062 4.6562a0.79106 0.79106 0 0 0 -0.656 0.782v2.4062a0.79106 0.79106 0 0 0 0.6875 0.78125l16.625 2.0938a0.79106 0.79106 0 0 0 0.875 -0.781v-2.125a0.79106 0.79106 0 0 0 -0.656 -0.781l-16.625-2.375a0.79106 0.79106 0 0 0 -0.25 0zm0.125 0.78125 16.625 2.375v2.125l-16.625-2.0938v-2.4062z" fill="url(#linearGradient3089)" opacity="0.5"/>
   <path d="m43.188 36.5v1l16.625 2.375v-1l-16.625-2.375zm0 5.2188v1l16.625 2.0938v-1l-16.625-2.0938zm-0.03125 19.375c-0.26277 2.6903-3.1008 5.397-7.0625 6.4688-4.6631 1.2614-9.116-0.2483-9.9375-3.3438-0.03987-0.15022-0.0722-0.28549-0.09375-0.4375-0.05284 0.48987-0.03328 0.95887 0.09375 1.4375 0.82155 3.0954 5.2744 4.6052 9.9375 3.3438 3.9617-1.0717 6.7997-3.7785 7.0625-6.4688h0.03125v-1h-0.03125zm19.905 6.031c-0.26277 2.6903-3.1008 5.4283-7.0625 6.5-4.6631 1.2614-9.116-0.2483-9.9375-3.3438-0.04607-0.1736-0.07209-0.35533-0.09375-0.53125-0.06761 0.52083-0.0413 1.0224 0.09375 1.5312 0.82155 3.0954 5.2744 4.6052 9.9375 3.3438 3.9617-1.0717 6.7997-3.8097 7.0625-6.5h0.03125v-1h-0.03125z" fill="#fff" opacity="0.2"/>
   <use xlink:href="#SVGCleanerId_2"/>
  </g>
 </g>
</svg>
