<?xml version="1.0" encoding="UTF-8" standalone="no"?>
<svg
   xmlns:dc="http://purl.org/dc/elements/1.1/"
   xmlns:cc="http://creativecommons.org/ns#"
   xmlns:rdf="http://www.w3.org/1999/02/22-rdf-syntax-ns#"
   xmlns:svg="http://www.w3.org/2000/svg"
   xmlns="http://www.w3.org/2000/svg"
   xmlns:xlink="http://www.w3.org/1999/xlink"
   xmlns:sodipodi="http://sodipodi.sourceforge.net/DTD/sodipodi-0.dtd"
   xmlns:inkscape="http://www.inkscape.org/namespaces/inkscape"
   height="96"
   width="96"
   id="svg2"
   version="1.1"
   inkscape:version="0.91 r13725"
   sodipodi:docname="folder-ubuntu.svg">
  <metadata
     id="metadata91">
    <rdf:RDF>
      <cc:Work
         rdf:about="">
        <dc:format>image/svg+xml</dc:format>
        <dc:type
           rdf:resource="http://purl.org/dc/dcmitype/StillImage" />
      </cc:Work>
    </rdf:RDF>
  </metadata>
  <sodipodi:namedview
     pagecolor="#ffffff"
     bordercolor="#666666"
     borderopacity="1"
     objecttolerance="10"
     gridtolerance="10"
     guidetolerance="10"
     inkscape:pageopacity="0"
     inkscape:pageshadow="2"
     inkscape:window-width="1366"
     inkscape:window-height="716"
     id="namedview89"
     showgrid="false"
     inkscape:zoom="3.4766084"
     inkscape:cx="-8.113649"
     inkscape:cy="57.417008"
     inkscape:window-x="0"
     inkscape:window-y="24"
     inkscape:window-maximized="1"
     inkscape:current-layer="svg2" />
  <defs
     id="defs4">
    <linearGradient
       x2="0"
       y1="20.221"
       y2="138.66"
       gradientUnits="userSpaceOnUse"
       id="linearGradient3613-3">
      <stop
         stop-color="#fff"
         id="stop7" />
      <stop
         stop-color="#fff"
         stop-opacity="0"
         offset="1"
         id="stop9" />
    </linearGradient>
    <clipPath
       id="clipPath3613-29">
      <use
         xlink:href="#SVGCleanerId_1"
         id="use12" />
    </clipPath>
    <filter
       x="-0.192"
       y="-0.192"
       height="1.384"
       color-interpolation-filters="sRGB"
       id="filter3794-0"
       width="1.384">
      <feGaussianBlur
         stdDeviation="5.28"
         id="feGaussianBlur15" />
    </filter>
    <clipPath
       id="clipPath3613-25">
      <use
         xlink:href="#SVGCleanerId_1"
         id="use18" />
    </clipPath>
    <clipPath
       id="clipPath3860">
      <rect
         x="6"
         rx="6"
         y="18"
         height="72"
         width="84"
         id="rect21" />
    </clipPath>
    <filter
       x="-0.166"
       y="-0.197"
       height="1.394"
       color-interpolation-filters="sRGB"
       id="filter3870"
       width="1.331">
      <feGaussianBlur
         stdDeviation="5.17031"
         id="feGaussianBlur24" />
    </filter>
    <linearGradient
       x2="0"
       xlink:href="#linearGradient3613-3"
       y1="22.933"
       y2="81.48"
       gradientUnits="userSpaceOnUse"
       id="linearGradient5696" />
    <linearGradient
       x1="93.01"
       x2="6.187"
       gradientUnits="userSpaceOnUse"
       id="linearGradient4640"
       gradientTransform="translate(-109.42373,-7.32203)">
      <stop
         stop-color="#be8e4a"
         stop-opacity="0.077"
         id="stop28" />
      <stop
         stop-color="#a67c25"
         offset="1"
         id="stop30" />
    </linearGradient>
    <linearGradient
       x2="0"
       y1="75.81"
       y2="32.19"
       gradientUnits="userSpaceOnUse"
       id="linearGradient3092-6"
       gradientTransform="matrix(1.0742 0 0 1.0741 -3.263 -6.105)">
      <stop
         stop-color="#aa7932"
         stop-opacity="0.784"
         id="stop33" />
      <stop
         stop-color="#aa7932"
         stop-opacity="0.392"
         offset="1"
         id="stop35" />
    </linearGradient>
    <rect
       x="15"
       stroke-width="0.5"
       rx="12"
       y="15"
       fill="url(#linearGradient3613-3)"
       stroke="#fff"
       height="66"
       filter="url(#filter3794-0)"
       id="SVGCleanerId_0"
       width="66"
       stroke-linecap="round" />
    <rect
       x="6"
       rx="6"
       y="6"
       height="84"
       id="SVGCleanerId_1"
       width="84" />
    <linearGradient
       inkscape:collect="always"
       xlink:href="#linearGradient5040"
       id="linearGradient4348"
       x1="5.4987845"
       y1="48"
       x2="90.498787"
       y2="48"
       gradientUnits="userSpaceOnUse" />
    <linearGradient
       x2="0"
       y1="90"
       y2="5.9879999"
       gradientUnits="userSpaceOnUse"
       id="linearGradient5040">
      <stop
         stop-color="#d70751"
         id="stop5042" />
      <stop
         stop-color="#e7466b"
         offset="1"
         id="stop5044" />
    </linearGradient>
    <filter
       inkscape:collect="always"
       style="color-interpolation-filters:sRGB"
       id="filter4356"
       x="-0.03994016"
       width="1.0798804"
       y="-0.13085099"
       height="1.2617019">
      <feGaussianBlur
         inkscape:collect="always"
         stdDeviation="1.1452528"
         id="feGaussianBlur4358" />
    </filter>
    <linearGradient
       inkscape:collect="always"
       xlink:href="#linearGradient3617"
       id="linearGradient4372"
       x1="52.384773"
       y1="88.512177"
       x2="52.384773"
       y2="26.095018"
       gradientUnits="userSpaceOnUse" />
    <linearGradient
       x2="0"
       y1="90"
       y2="5.9879999"
       gradientUnits="userSpaceOnUse"
       id="linearGradient3617">
      <stop
         stop-color="#d70751"
         id="stop4436" />
      <stop
         stop-color="#e7466b"
         offset="1"
         id="stop4438" />
    </linearGradient>
    <linearGradient
       inkscape:collect="always"
       xlink:href="#linearGradient4334"
       id="linearGradient4340"
       x1="44.359856"
       y1="-20.334562"
       x2="45.070312"
       y2="45.913132"
       gradientUnits="userSpaceOnUse" />
    <linearGradient
       inkscape:collect="always"
       id="linearGradient4334">
      <stop
         style="stop-color:white;stop-opacity:1;"
         offset="0"
         id="stop4336" />
      <stop
         style="stop-color:white;stop-opacity:0;"
         offset="1"
         id="stop4338" />
    </linearGradient>
    <filter
       inkscape:collect="always"
       style="color-interpolation-filters:sRGB"
       id="filter4390-2"
       x="-0.061865166"
       width="1.1237303"
       y="-0.079545341"
       height="1.1590908">
      <feGaussianBlur
         inkscape:collect="always"
         stdDeviation="1.8044006"
         id="feGaussianBlur4392-2" />
    </filter>
  </defs>
  <g
     id="g5065">
    <rect
       style="opacity:0.1;fill:#000000;fill-opacity:1;stroke:none"
       x="4"
       rx="11.845899"
       y="4"
       height="88"
       width="88"
       transform="matrix(0,1,1,0,0,0)"
       id="rect4364" />
    <rect
       id="rect4362"
       transform="matrix(0,1,1,0,0,0)"
       width="87"
       height="87"
       y="4.5"
       rx="11.711287"
       x="4.5"
       style="opacity:0.1;fill:#000000;fill-opacity:1;stroke:none" />
    <rect
       style="opacity:0.1;fill:#000000;fill-opacity:1;stroke:none"
       x="5"
       rx="11.576674"
       y="5"
       height="86"
       width="86"
       transform="matrix(0,1,1,0,0,0)"
       id="rect4360" />
    <rect
       id="rect4300"
       transform="matrix(0,1,1,0,0,0)"
       width="85"
       height="85"
       y="5.5"
       rx="11.442062"
       x="5.4987845"
       style="fill:url(#linearGradient4348);fill-opacity:1;stroke:none" />
    <rect
       style="color:#000000;display:inline;visibility:visible;opacity:0.397;fill:#000000;fill-opacity:1;fill-rule:nonzero;stroke:none;stroke-width:2.5;filter:url(#filter4356)"
       x="14.813876"
       display="inline"
       y="17.749441"
       height="21.005625"
       visibility="visible"
       width="68.818123"
       id="rect4350" />
    <rect
       id="rect4302"
       width="68.818123"
       visibility="visible"
       height="21.005625"
       y="17.749441"
       display="inline"
       x="14.813876"
       style="color:#000000;display:inline;visibility:visible;fill:#e6e6e6;fill-opacity:1;fill-rule:nonzero;stroke:none;stroke-width:2.5" />
    <path
       id="path4304"
       inkscape:connector-curvature="0"
       d="m 40.5625,24.393694 -8.765625,13.447266 -26.296875,0 0,41.205046 c 0,6.339088 5.11604,11.455132 11.455078,11.455132 l 62.089844,0 C 85.383961,90.501138 90.5,85.385094 90.5,79.046006 l 0,-54.652312 -49.9375,0 z"
       style="fill:url(#linearGradient4372);fill-opacity:1;stroke:none" />
    <path
       inkscape:connector-curvature="0"
       id="path4319"
       d="m 40.562499,24.393694 -8.76562,13.447266 -26.296879,0 0,2.300781 26.007809,0 8.76563,-13.447266 49.937504,0 0,54.652344 c 0,0.0969 -0.0113,0.1908 -0.0137,0.28711 0.19156,-0.832341 0.30273,-1.696334 0.30273,-2.587891 l 0,-54.652344 -49.937504,0 z"
       style="fill:url(#linearGradient4340);fill-opacity:1;stroke:none" />
    <path
       d="m 5.2922679,73.685059 0,5.0663 c 0,6.668 5.3645011,12.032 12.0320011,12.032 l 61.049,0 c 6.668,0 12.032,-5.3645 12.032,-12.032 l 0,-5.0663 c 0,6.6681 -5.3645,12.032 -12.032,12.032 l -61.049,0 c -6.668,0 -12.0320011,-5.3643 -12.0320011,-12.032 z"
       id="path64"
       inkscape:connector-curvature="0"
       style="fill-opacity:0.11799999" />
    <path
       style="opacity:0.08900003;fill:#ffffff;fill-opacity:1;stroke:none;filter:url(#filter4390-2)"
       d="m 42.716463,29.731708 -7.21875,11.074219 -21.65625,0 0,33.933567 c 0,5.220425 4.213209,9.433638 9.433594,9.433638 l 51.132812,0 c 5.220385,0 9.433594,-4.213213 9.433594,-9.433638 l 0,-45.007786 -41.125,0 z"
       inkscape:connector-curvature="0"
       id="path4374-8" />
  </g>
  <g
     id="g4314"
     transform="matrix(0.87803079,0,0,0.87803079,9.819556,8.618966)"
     style="fill:#fce4ec">
    <path
       style="opacity:0.05;fill:#fce4ec"
       inkscape:connector-curvature="0"
       id="path75"
       d="m 71.009829,30.045682 c -2.8028,0 -5.222,1.7424 -6.25,4.1875 -0.068,-0.016 -0.083,-0.081 -0.156,-0.093 -1.242,-0.215 -2.473,-0.344 -3.688,-0.344 -3.2818,4.25e-4 -6.5448,0.82093 -9.5,2.2812 -0.78366,0.38876 -1.1071,0.98936 -1.25,1.5 -0.03081,0.10863 0.07104,0.31497 0.0625,0.46875 -0.171,-0.078 -0.304,-0.179 -0.53,-0.219 -0.204,-0.036 -0.524,-0.078 -0.969,0.032 -0.097,0.023 -0.356,0.045 -0.875,0.437 l -0.03125,0 0,-0.03125 c -3.4367,2.6469 -5.9779,6.3334 -7.2812,10.438 -0.67701,-0.2242 -1.3765,-0.40625 -2.125,-0.40625 -3.7911,0 -6.9062,3.1173 -6.9062,6.9062 0,3.789 3.1152,6.9062 6.9062,6.9062 0.77178,0 1.4923,-0.19975 2.1875,-0.4375 1.31,4.0093 3.809,7.6143 7.1562,10.219 l 0,-0.03125 0.03125,0 c 0.29242,0.2238 0.95787,0.64974 1.8125,0.5 0.23072,-0.03973 0.35744,-0.14031 0.53125,-0.21875 0.0081,0.15118 -0.09099,0.36525 -0.0625,0.46875 0.14498,0.52506 0.43928,1.1118 1.2188,1.5 2.9954,1.4996 6.3251,2.2812 9.625,2.2812 1.2139,0 2.4628,-0.12444 3.7188,-0.34375 0.76048,2.9769 3.3584,5.25 6.5625,5.25 3.7826,0 6.9062,-3.0944 6.9062,-6.875 0,-1.7442 -0.72279,-3.2916 -1.8125,-4.5 3.3403,-3.435 5.43,-7.9393 5.9062,-12.688 0.06378,-0.62956 -0.21395,-1.36 -0.625,-1.8125 -0.12818,-0.14113 -0.34551,-0.11329 -0.5,-0.21875 0.17186,-0.10285 0.34225,-0.13872 0.5,-0.3125 0.4146,-0.45672 0.68254,-1.1974 0.625,-1.8125 -0.436,-4.477 -2.32,-8.793 -5.344,-12.156 -0.12259,-0.13706 -0.29965,-0.11636 -0.4375,-0.21875 0.80502,-1.115 1.375,-2.4072 1.375,-3.875 0,-3.7205 -3.0584,-6.7812 -6.7812,-6.7812 z m 0,2 c 2.644,0 4.7812,2.1394 4.7812,4.7812 0,2.6418 -2.1373,4.7812 -4.7812,4.7812 -2.644,0 -4.7812,-2.1394 -4.7812,-4.7812 0,-2.6418 2.1373,-4.7812 4.7812,-4.7812 z m -10.094,3.75 c 1.0746,0 2.1911,0.11275 3.3438,0.3125 0.18101,0.03138 0.3125,0.22371 0.3125,0.40625 0,0.0061 3.83e-4,0.1231 0,0.125 3.83e-4,3.6637 3.0011,6.6562 6.6875,6.6562 1.2636,0 2.4928,-0.38274 3.5938,-1.0938 0.15575,-0.10063 0.37678,-0.07526 0.5,0.0625 2.7304,3.0365 4.4504,6.9582 4.8438,11 0.01,0.10638 -0.02219,0.20242 -0.09375,0.28125 -0.07156,0.07883 -0.17486,0.09375 -0.28125,0.09375 l -7.3125,0 c -0.18484,0 -0.31467,-0.12958 -0.34375,-0.3125 -0.86869,-5.4474 -5.7095,-9.5312 -11.25,-9.5312 -1.5062,0 -3.0009,0.29895 -4.4375,0.90625 -0.1703,0.07156 -0.3704,-1.18e-4 -0.46875,-0.15625 l -3.875,-6.1562 c -0.055,-0.091 -0.059,-0.179 -0.03,-0.281 0.0287,-0.10256 0.09183,-0.20254 0.1875,-0.25 2.6903,-1.3294 5.6741,-2.0621 8.625,-2.0625 z m -11.719,4 c 0.05051,-0.01239 0.10401,-0.0092 0.15625,0 0.10447,0.01837 0.19336,0.09795 0.25,0.1875 l 3.875,6.125 c 0.09911,0.15728 0.04593,0.37793 -0.09375,0.5 -2.4782,2.1587 -3.875,5.2457 -3.875,8.5 0,3.2302 1.3911,6.3108 3.8438,8.4688 0.13967,0.12284 0.16238,0.34349 0.0625,0.5 l -3.9062,6.125 c -0.05702,0.08916 -0.14553,0.16951 -0.25,0.1875 -0.105,0.019 -0.197,-0.028 -0.281,-0.093 -3.125,-2.432 -5.479,-5.836 -6.625,-9.594 -0.04516,-0.14848 0.0037,-0.3102 0.125,-0.40625 1.5904,-1.2594 2.5312,-3.1991 2.5312,-5.1875 0,-1.9884 -0.9412,-3.9281 -2.5312,-5.1875 -0.12201,-0.09643 -0.17016,-0.25815 -0.125,-0.40625 1.1553,-3.7892 3.5235,-7.2194 6.6875,-9.6562 0.04152,-0.03233 0.10574,-0.05011 0.15625,-0.0625 z m 11.719,6 c 4.5577,0 8.57,3.3839 9.2812,7.8438 0.08945,0.56268 0.51502,1.0753 1.0625,1.4688 -0.54466,0.34981 -0.9812,0.83841 -1.0938,1.5312 -0.72044,4.4237 -4.7126,7.8125 -9.25,7.8125 -1.248,0 -2.5066,-0.26202 -3.7188,-0.78125 -0.53658,-0.22839 -1.1602,-0.18433 -1.75,0.03125 -0.03152,-0.59691 -0.25963,-1.1662 -0.78125,-1.625 -2.0255,-1.7821 -3.1562,-4.3128 -3.1562,-6.9688 0,-2.682 1.1407,-5.2172 3.1875,-7 0.48822,-0.42668 0.70272,-0.9975 0.75,-1.625 0.56203,0.24282 1.1802,0.32818 1.8125,0.0625 1.1951,-0.50523 2.4146,-0.75 3.6562,-0.75 z m -22.5,4.5 c 2.7059,0 4.9062,2.2023 4.9062,4.9062 0,2.704 -2.2003,4.9062 -4.9062,4.9062 -2.7059,0 -4.9062,-2.2023 -4.9062,-4.9062 0,-2.704 2.2003,-4.9062 4.9062,-4.9062 z m 34.094,6.3438 7.3125,0 c 0.10639,-3.82e-4 0.2093,0.04578 0.28125,0.125 0.07195,0.07921 0.10449,0.17524 0.09375,0.28125 -0.4332,4.3192 -2.3505,8.4151 -5.4062,11.531 -0.11672,0.11901 -0.29017,0.13942 -0.4375,0.0625 -0.96895,-0.50513 -2.046,-0.75 -3.0938,-0.75 -3.3799,0 -6.2362,2.517 -6.625,5.875 -0.01952,0.16493 -0.11746,0.2838 -0.28125,0.3125 -1.1668,0.20703 -2.3304,0.3125 -3.4375,0.3125 -2.9849,0 -6.0074,-0.70515 -8.7188,-2.0625 -0.09528,-0.04745 -0.15918,-0.14744 -0.1875,-0.25 -0.02833,-0.10294 -0.02577,-0.19132 0.03125,-0.28125 l 3.9062,-6.1562 c 0.09988,-0.15498 0.29884,-0.19732 0.46875,-0.125 1.4527,0.62223 2.9762,0.9375 4.5,0.9375 5.5252,0 10.338,-4.0932 11.219,-9.5 0.02947,-0.18139 0.19093,-0.31212 0.375,-0.3125 z m -1.8125,12.938 c 0.16472,-0.01661 0.33088,0 0.5,0 2.7059,0 4.9062,2.1537 4.9062,4.8438 0,2.69 -2.2003,4.875 -4.9062,4.875 -2.7059,0 -4.9062,-2.185 -4.9062,-4.875 0,-2.5219 1.9354,-4.5946 4.4062,-4.8438 z" />
    <path
       style="opacity:0.1;fill:#fce4ec"
       inkscape:connector-curvature="0"
       id="path77"
       d="m 71.009829,31.014682 c -2.856,0 -5.1454,2.1224 -5.625,4.8438 -0.1762,-0.36381 -0.43159,-0.6623 -0.9375,-0.75 -1.1986,-0.20772 -2.3847,-0.34375 -3.5312,-0.34375 -3.1212,4.04e-4 -6.2671,0.75945 -9.0938,2.1562 -0.44985,0.22316 -0.63126,0.59361 -0.71875,0.90625 -0.07772,0.274 -0.05031,0.79564 0.15625,1.125 l 3.875,6.1562 c 0.35829,0.56879 1.0878,0.80954 1.75,0.53125 1.3123,-0.55476 2.6612,-0.8125 4.0312,-0.8125 5.0345,0 9.4311,3.7173 10.219,8.6562 0.093,0.578 0.71,1.188 1.376,1.188 l 7.3125,0 c 0.203,0 0.672,-0.041 1.032,-0.438 0.248,-0.273 0.409,-0.694 0.375,-1.062 -0.414,-4.258 -2.253,-8.361 -5.125,-11.562 -0.0055,-0.0061 0.0055,-0.02511 0,-0.03125 -0.40969,-0.44088 -0.97828,-0.50721 -1.5,-0.3125 1.3146,-1.0675 2.2188,-2.6212 2.2188,-4.4375 0,-3.1971 -2.6131,-5.8125 -5.8125,-5.8125 z m 0,1.0312 c 2.644,0 4.7812,2.1394 4.7812,4.7812 0,2.6418 -2.1373,4.7812 -4.7812,4.7812 -2.644,0 -4.7812,-2.1394 -4.7812,-4.7812 0,-2.6418 2.1373,-4.7812 4.7812,-4.7812 z m -10.094,3.75 c 1.0746,0 2.1911,0.11275 3.3438,0.3125 0.18101,0.03138 0.3125,0.22371 0.3125,0.40625 0,0.0061 3.83e-4,0.1231 0,0.125 3.83e-4,3.6637 3.0011,6.6562 6.6875,6.6562 1.2636,0 2.4928,-0.38274 3.5938,-1.0938 0.15575,-0.10063 0.37678,-0.07526 0.5,0.0625 2.7304,3.0365 4.4504,6.9582 4.8438,11 0.01,0.10638 -0.02219,0.20242 -0.09375,0.28125 -0.07156,0.07883 -0.17486,0.09375 -0.28125,0.09375 l -7.3125,0 c -0.18484,0 -0.31467,-0.12958 -0.34375,-0.3125 -0.86869,-5.4474 -5.7095,-9.5312 -11.25,-9.5312 -1.5062,0 -3.0009,0.29895 -4.4375,0.90625 -0.1703,0.07156 -0.3704,-1.18e-4 -0.46875,-0.15625 l -3.875,-6.1562 c -0.055,-0.091 -0.059,-0.179 -0.03,-0.281 0.0287,-0.10256 0.09183,-0.20254 0.1875,-0.25 2.6903,-1.3294 5.6741,-2.0621 8.625,-2.0625 z m -11.625,2.9688 c -0.10044,-0.0049 -0.21697,1.55e-4 -0.34375,0.03125 -0.07575,0.01858 -0.22806,0.01392 -0.53125,0.25 -3.3373,2.5703 -5.8433,6.1574 -7.0625,10.156 -0.13216,0.43338 0.13322,0.86053 0.40625,1.2188 -0.96443,-0.67815 -2.0822,-1.1562 -3.3438,-1.1562 -3.2646,0 -5.9375,2.675 -5.9375,5.9375 0,3.2625 2.6729,5.9375 5.9375,5.9375 1.2274,0 2.3008,-0.47999 3.25,-1.125 -0.1657,0.32209 -0.42037,0.64532 -0.3125,1 1.2103,3.9677 3.7051,7.5301 7,10.094 0.18651,0.14563 0.59537,0.36857 1.0938,0.28125 0.51391,-0.08849 0.77121,-0.36497 0.9375,-0.625 l 3.9062,-6.125 c 0.37401,-0.58609 0.30722,-1.3537 -0.25,-1.8438 -2.2327,-1.9644 -3.5,-4.753 -3.5,-7.6875 0,-2.9597 1.2751,-5.7536 3.5312,-7.7188 0.505,-0.443 0.7,-1.18 0.281,-1.845 l -3.875,-6.125 c -0.16946,-0.26793 -0.43159,-0.53605 -0.9375,-0.625 -0.06522,-0.01149 -0.14956,-0.02635 -0.25,-0.03125 z m -0.093,1.031 c 0.05051,-0.01239 0.10401,-0.0092 0.15625,0 0.10447,0.01837 0.19336,0.09795 0.25,0.1875 l 3.875,6.125 c 0.09911,0.15728 0.04593,0.37793 -0.09375,0.5 -2.4782,2.1587 -3.875,5.2457 -3.875,8.5 0,3.2302 1.3911,6.3108 3.8438,8.4688 0.13967,0.12284 0.16238,0.34349 0.0625,0.5 l -3.9062,6.125 c -0.05702,0.08916 -0.14553,0.16951 -0.25,0.1875 -0.105,0.019 -0.197,-0.028 -0.281,-0.093 -3.125,-2.432 -5.479,-5.836 -6.625,-9.594 -0.04516,-0.14848 0.0037,-0.3102 0.125,-0.40625 1.5904,-1.2594 2.5312,-3.1991 2.5312,-5.1875 0,-1.9884 -0.9412,-3.9281 -2.5312,-5.1875 -0.12201,-0.09643 -0.17016,-0.25815 -0.125,-0.40625 1.1553,-3.7892 3.5235,-7.2194 6.6875,-9.6562 0.04152,-0.03233 0.10574,-0.05011 0.15625,-0.0625 z m -10.781,10.5 c 2.7059,0 4.9062,2.2023 4.9062,4.9062 0,2.704 -2.2003,4.9062 -4.9062,4.9062 -2.7059,0 -4.9062,-2.2023 -4.9062,-4.9062 0,-2.704 2.2003,-4.9062 4.9062,-4.9062 z m 34.094,5.3125 c -0.67031,0.0014 -1.2939,0.4958 -1.4062,1.1875 -0.79812,4.9007 -5.1708,8.625 -10.188,8.625 -1.3818,0 -2.7649,-0.27455 -4.0938,-0.84375 -0.56965,-0.24246 -1.3591,-0.10654 -1.75,0.5 l -3.907,6.155 c -0.21292,0.33581 -0.2288,0.8614 -0.15625,1.125 0.08838,0.32006 0.27124,0.65214 0.71875,0.875 2.8576,1.4306 6.0404,2.1875 9.1875,2.1875 1.1725,0 2.4015,-0.12666 3.625,-0.34375 0.28556,-0.05004 0.54738,-0.21194 0.75,-0.4375 0.12256,3.1457 2.7233,5.6875 5.9062,5.6875 3.2602,0 5.9375,-2.6548 5.9375,-5.9062 0,-2.0228 -1.0882,-3.7255 -2.6562,-4.7812 0.38344,0.01446 0.78139,-0.05712 1.0625,-0.34375 3.2208,-3.2844 5.2306,-7.6012 5.6875,-12.156 0.039,-0.376 -0.127,-0.791 -0.374,-1.063 -0.267,-0.293 -0.625,-0.47 -1.031,-0.468 l -7.3125,0 z m 0,1.0312 7.3125,0 c 0.10639,-3.82e-4 0.2093,0.04578 0.28125,0.125 0.07195,0.07921 0.10449,0.17524 0.09375,0.28125 -0.4332,4.3192 -2.3505,8.4151 -5.4062,11.531 -0.11672,0.11901 -0.29017,0.13942 -0.4375,0.0625 -0.96895,-0.50513 -2.046,-0.75 -3.0938,-0.75 -3.3799,0 -6.2362,2.517 -6.625,5.875 -0.01952,0.16493 -0.11746,0.2838 -0.28125,0.3125 -1.1668,0.20703 -2.3304,0.3125 -3.4375,0.3125 -2.9849,0 -6.0074,-0.70515 -8.7188,-2.0625 -0.09528,-0.04745 -0.15918,-0.14744 -0.1875,-0.25 -0.02833,-0.10294 -0.02577,-0.19132 0.03125,-0.28125 l 3.9062,-6.1562 c 0.09988,-0.15498 0.29884,-0.19732 0.46875,-0.125 1.4527,0.62223 2.9762,0.9375 4.5,0.9375 5.5252,0 10.338,-4.0932 11.219,-9.5 0.02947,-0.18139 0.19093,-0.31212 0.375,-0.3125 z m -1.8125,12.938 c 0.16472,-0.01661 0.33088,0 0.5,0 2.7059,0 4.9062,2.1537 4.9062,4.8438 0,2.69 -2.2003,4.875 -4.9062,4.875 -2.7059,0 -4.9062,-2.185 -4.9062,-4.875 0,-2.5219 1.9354,-4.5946 4.4062,-4.8438 z" />
    <path
       inkscape:connector-curvature="0"
       style="opacity:0.9;fill:#fce4ec;fill-opacity:1"
       id="path79"
       d="m 71.014829,32.039682 c -2.644,0 -4.7849,2.143 -4.7849,4.7848 0,2.6418 2.1409,4.7848 4.7849,4.7848 2.644,0 4.7849,-2.143 4.7849,-4.7848 0,-2.6418 -2.1409,-4.7848 -4.7849,-4.7848 z m -10.105,3.7475 c -2.9509,3.82e-4 -5.9426,0.74512 -8.6329,2.0745 -0.09567,0.04746 -0.15533,0.13166 -0.18403,0.23422 -0.02909,0.10256 -0.02318,0.21083 0.03346,0.30114 l 3.8815,6.1399 c 0.09835,0.15613 0.29816,0.22213 0.46845,0.15057 1.4366,-0.6073 2.9273,-0.90342 4.4336,-0.90342 5.5405,0 10.374,4.1055 11.243,9.5529 0.02908,0.18292 0.18323,0.31787 0.36807,0.31787 l 7.2945,0 c 0.10638,0 0.21286,-0.03828 0.28442,-0.11711 0.07156,-0.07883 0.11033,-0.17803 0.10038,-0.28441 -0.3934,-4.0418 -2.1214,-7.9551 -4.8518,-10.992 -0.12322,-0.13776 -0.32943,-0.15083 -0.48518,-0.0502 -1.101,0.71101 -2.3502,1.0875 -3.6138,1.0875 -3.6864,0 -6.6751,-2.9948 -6.6754,-6.6586 3.83e-4,-0.0019 0,-0.12772 0,-0.13384 0,-0.18254 -0.13687,-0.35341 -0.31788,-0.38479 -1.1526,-0.19975 -2.2715,-0.3346 -3.3461,-0.3346 z m -11.711,4.0152 c -0.05051,0.01239 -0.10905,0.03459 -0.15057,0.06692 -3.164,2.4369 -5.5368,5.864 -6.6922,9.6533 -0.04516,0.1481 -0.0049,0.30509 0.11711,0.40152 1.59,1.2594 2.543,3.1979 2.543,5.1863 0,1.9884 -0.95259,3.9269 -2.543,5.1863 -0.12131,0.09605 -0.16227,0.25304 -0.11711,0.40152 1.1461,3.7575 3.5003,7.1715 6.6252,9.6031 0.08381,0.06544 0.17956,0.10202 0.28442,0.08365 0.10447,-0.01799 0.19394,-0.09487 0.25096,-0.18403 l 3.9149,-6.1232 c 0.09988,-0.15651 0.07275,-0.36233 -0.06692,-0.48517 -2.4526,-2.1579 -3.8647,-5.252 -3.8647,-8.4822 0,-3.2543 1.4199,-6.3569 3.8982,-8.5156 0.13968,-0.12207 0.18277,-0.32789 0.08366,-0.48517 l -3.8815,-6.1399 c -0.05664,-0.08955 -0.14648,-0.14893 -0.25096,-0.1673 -0.05224,-0.0092 -0.10006,-0.01239 -0.15057,0 z m -10.791,10.507 c -2.7059,0 -4.902,2.198 -4.902,4.9019 0,2.704 2.1961,4.8852 4.902,4.8852 2.7059,0 4.902,-2.1812 4.902,-4.8852 0,-2.704 -2.1961,-4.9019 -4.902,-4.9019 z m 41.408,6.324 -7.2945,0.01673 c -0.18407,3.83e-4 -0.35533,0.13648 -0.3848,0.31787 -0.88055,5.4068 -5.7009,9.486 -11.226,9.486 -1.5238,0 -3.0311,-0.31466 -4.4838,-0.93688 -0.16991,-0.07232 -0.36857,-0.02114 -0.46845,0.13384 l -3.9149,6.1399 c -0.05702,0.08993 -0.06179,0.1982 -0.03346,0.30114 0.02832,0.10256 0.08875,0.18677 0.18404,0.23422 2.7113,1.3573 5.7316,2.0745 8.7165,2.0745 1.1071,0 2.2629,-0.11084 3.4297,-0.31787 0.16379,-0.0287 0.28163,-0.15294 0.30115,-0.31787 0.3888,-3.358 3.2287,-5.889 6.6085,-5.889 1.0478,0 2.1262,0.26445 3.0951,0.76958 0.14733,0.07692 0.31827,0.05209 0.43499,-0.06692 3.0557,-3.1161 4.9875,-7.2245 5.4207,-11.544 0.01074,-0.10601 -0.02843,-0.2052 -0.10038,-0.28441 -0.07195,-0.07922 -0.17803,-0.11749 -0.28442,-0.11711 z m -8.617,12.932 c -2.7059,0 -4.902,2.1784 -4.902,4.8685 0,2.69 2.1961,4.8685 4.902,4.8685 2.7059,0 4.902,-2.1784 4.902,-4.8685 0,-2.69 -2.1961,-4.8685 -4.902,-4.8685 z" />
    <path
       inkscape:connector-curvature="0"
       style="opacity:0.25;fill:#fce4ec;fill-opacity:1"
       id="path81"
       d="m 71.009829,32.045682 c -2.644,0 -4.7812,2.1394 -4.7812,4.7812 0,2.6418 2.1373,4.7812 4.7812,4.7812 2.644,0 4.7812,-2.1394 4.7812,-4.7812 0,-2.6418 -2.1373,-4.7812 -4.7812,-4.7812 z m 0,1.9688 c 1.5813,0 2.8125,1.2332 2.8125,2.8125 0,1.5793 -1.2312,2.8125 -2.8125,2.8125 -1.5813,0 -2.8125,-1.2332 -2.8125,-2.8125 0,-1.5793 1.2312,-2.8125 2.8125,-2.8125 z m -10.094,1.781 c -2.9509,3.82e-4 -5.9347,0.73309 -8.625,2.0625 -0.09567,0.04746 -0.1588,0.14744 -0.1875,0.25 -0.02909,0.10256 -0.02539,0.19094 0.03125,0.28125 l 3.875,6.1562 c 0.09835,0.15613 0.29846,0.22781 0.46875,0.15625 1.4366,-0.6073 2.9313,-0.90625 4.4375,-0.90625 5.5405,0 10.381,4.0839 11.25,9.5312 0.02908,0.18292 0.15891,0.3125 0.34375,0.3125 l 7.3125,0 c 0.10638,0 0.209691,-0.01492 0.281251,-0.09375 0.0716,-0.07883 0.1037,-0.17487 0.0937,-0.28125 -0.393401,-4.0418 -2.113301,-7.9635 -4.843801,-11 -0.12322,-0.13776 -0.34425,-0.16313 -0.5,-0.0625 -1.101,0.71101 -2.3301,1.0938 -3.5938,1.0938 -3.6864,0 -6.6871,-2.9925 -6.6875,-6.6562 3.83e-4,-0.0019 0,-0.11888 0,-0.125 0,-0.18254 -0.13149,-0.37487 -0.3125,-0.40625 -1.152,-0.2 -2.269,-0.313 -3.344,-0.313 z m 0,1.9688 c 0.61484,0 1.2973,0.106 1.9688,0.1875 0.2865,1.7622 0.96342,3.3863 2.1562,4.625 -1.3174,-0.43422 -2.6834,-0.75 -4.125,-0.75 -1.3106,0 -2.6031,0.26679 -3.875,0.65625 l -2.187,-3.469 c 1.9711,-0.74318 4.0188,-1.2497 6.0625,-1.25 z m -11.718,2.031 c -0.05051,0.01239 -0.11473,0.03017 -0.15625,0.0625 -3.164,2.4369 -5.5322,5.867 -6.6875,9.6562 -0.04516,0.1481 0.003,0.30982 0.125,0.40625 1.59,1.2594 2.5312,3.1991 2.5312,5.1875 0,1.9884 -0.94082,3.9281 -2.5312,5.1875 -0.12131,0.09605 -0.17016,0.25777 -0.125,0.40625 1.1461,3.7575 3.5,7.1622 6.625,9.5938 0.08381,0.06544 0.1764,0.11212 0.28125,0.09375 0.10447,-0.01799 0.19298,-0.09834 0.25,-0.1875 l 3.9062,-6.125 c 0.09988,-0.15651 0.07717,-0.37716 -0.0625,-0.5 -2.4526,-2.1579 -3.8438,-5.2386 -3.8438,-8.4688 0,-3.2543 1.3968,-6.3413 3.875,-8.5 0.13968,-0.12207 0.19286,-0.34272 0.09375,-0.5 l -3.875,-6.125 c -0.05664,-0.08955 -0.14553,-0.16913 -0.25,-0.1875 -0.05224,-0.0092 -0.10574,-0.01239 -0.15625,0 z m -0.1875,2.9062 2.1562,3.4375 c -2.2743,2.4458 -3.625,5.6171 -3.625,8.9688 0,3.3326 1.3095,6.4952 3.5625,8.9375 l -2.1562,3.375 c -1.9515,-1.8834 -3.5154,-4.126 -4.4062,-6.6562 1.4443,-1.5758 2.4375,-3.5068 2.4375,-5.6562 0,-2.1496 -0.99347,-4.0806 -2.4375,-5.6562 0.90404,-2.5725 2.4776,-4.8526 4.4688,-6.75 z m 25.469,1.8125 c 1.6482,2.0988 2.7349,4.5519 3.2812,7.1562 l -4.125,0 c -0.74912,-2.7125 -2.1966,-5.0991 -4.3125,-6.8125 0.64404,0.15414 1.2485,0.40625 1.9375,0.40625 1.1249,0 2.193,-0.32 3.2188,-0.75 z m -36.063,5.781 c -2.7059,0 -4.9062,2.2023 -4.9062,4.9062 0,2.704 2.2003,4.9062 4.9062,4.9062 2.7059,0 4.9062,-2.2023 4.9062,-4.9062 0,-2.704 -2.2003,-4.9062 -4.9062,-4.9062 z m 0,1.9688 c 1.637,0 2.9375,1.3023 2.9375,2.9375 0,1.6352 -1.3005,2.9375 -2.9375,2.9375 -1.637,0 -2.9375,-1.3023 -2.9375,-2.9375 0,-1.6352 1.3005,-2.9375 2.9375,-2.9375 z m 34.094,4.375 c -0.18407,3.83e-4 -0.34553,0.13111 -0.375,0.3125 -0.88055,5.4068 -5.6936,9.5 -11.219,9.5 -1.5238,0 -3.0473,-0.31527 -4.5,-0.9375 -0.16991,-0.07232 -0.36887,-0.02998 -0.46875,0.125 l -3.905,6.156 c -0.05702,0.08993 -0.05958,0.17831 -0.03125,0.28125 0.02832,0.10256 0.09222,0.20255 0.1875,0.25 2.7113,1.3573 5.7338,2.0625 8.7188,2.0625 1.1071,0 2.2707,-0.10547 3.4375,-0.3125 0.16379,-0.0287 0.26173,-0.14757 0.28125,-0.3125 0.3888,-3.358 3.2451,-5.875 6.625,-5.875 1.0478,0 2.1248,0.24487 3.0938,0.75 0.14733,0.07692 0.32078,0.05651 0.4375,-0.0625 3.0557,-3.1161 4.9731,-7.212 5.406201,-11.531 0.0107,-0.10601 -0.0218,-0.20204 -0.0937,-0.28125 -0.072,-0.07922 -0.174861,-0.12538 -0.281251,-0.125 l -7.3125,0 z m 1.0938,1.9688 4.1562,0 c -0.60804,2.884 -1.8588,5.5797 -3.8125,7.8125 -0.8865,-0.28908 -1.7832,-0.5 -2.6875,-0.5 -3.8861,0 -7.1448,2.6698 -8.1875,6.3125 -0.73091,0.09131 -1.4721,0.1875 -2.1562,0.1875 -2.0886,0 -4.1684,-0.50018 -6.1562,-1.25 l 2.1875,-3.4375 c 1.2961,0.40723 2.627,0.6875 3.9688,0.6875 6.0067,0 11.106,-4.1596 12.688,-9.8125 z m -2.9062,10.969 c -2.4709,0.24918 -4.4062,2.3219 -4.4062,4.8438 0,2.69 2.2003,4.875 4.9062,4.875 2.7059,0 4.9062,-2.185 4.9062,-4.875 0,-2.69 -2.2003,-4.8438 -4.9062,-4.8438 -0.16912,0 -0.33528,-0.01661 -0.5,0 z m 0.5,1.9688 c 1.6606,0 2.9375,1.2592 2.9375,2.875 0,1.6158 -1.2921,2.9062 -2.9375,2.9062 -1.6454,0 -2.9375,-1.2905 -2.9375,-2.9062 0,-1.6158 1.2769,-2.875 2.9375,-2.875 z" />
    <path
       inkscape:connector-curvature="0"
       style="opacity:0.5;fill:#fce4ec;fill-opacity:1"
       id="path83"
       d="m 71.009829,32.045682 c -2.644,0 -4.7812,2.1394 -4.7812,4.7812 0,2.6418 2.1373,4.7812 4.7812,4.7812 2.644,0 4.7812,-2.1394 4.7812,-4.7812 0,-2.6418 -2.1373,-4.7812 -4.7812,-4.7812 z m 0,0.96875 c 2.115,0 3.8125,1.6996 3.8125,3.8125 0,2.113 -1.6975,3.8125 -3.8125,3.8125 -2.115,0 -3.8125,-1.6995 -3.8125,-3.8125 0,-2.1129 1.6975,-3.8125 3.8125,-3.8125 z m -10.094,2.781 c -2.9509,3.82e-4 -5.9347,0.73309 -8.625,2.0625 -0.09567,0.04746 -0.1588,0.14744 -0.1875,0.25 -0.02909,0.10256 -0.02539,0.19094 0.03125,0.28125 l 3.875,6.1562 c 0.09835,0.15613 0.29846,0.22781 0.46875,0.15625 1.4366,-0.6073 2.9313,-0.90625 4.4375,-0.90625 5.5405,0 10.381,4.0839 11.25,9.5312 0.02908,0.18292 0.15891,0.3125 0.34375,0.3125 l 7.3125,0 c 0.10638,0 0.20969,-0.01492 0.28125,-0.09375 0.07156,-0.07883 0.1037,-0.17487 0.09375,-0.28125 -0.3934,-4.0418 -2.1133,-7.9635 -4.8438,-11 -0.12322,-0.13776 -0.34425,-0.16313 -0.5,-0.0625 -1.101,0.71101 -2.3301,1.0938 -3.5938,1.0938 -3.6864,0 -6.6871,-2.9925 -6.6875,-6.6562 3.83e-4,-0.0019 0,-0.11888 0,-0.125 0,-0.18254 -0.13149,-0.37487 -0.3125,-0.40625 -1.152,-0.2 -2.269,-0.313 -3.344,-0.313 z m 0,0.96875 c 0.87803,0 1.8241,0.13295 2.7812,0.28125 0.22664,4.0009 3.4906,7.2188 7.5625,7.2188 1.2648,0 2.4776,-0.38872 3.5938,-1 2.2748,2.6509 3.7107,5.9628 4.1875,9.4062 l -6.0938,0 c -1.1683,-5.6591 -6.1925,-9.8438 -12.031,-9.8438 -1.4639,0 -2.9079,0.28654 -4.3125,0.8125 l -3.219,-5.157 c 2.3894,-1.0736 4.9729,-1.7184 7.5312,-1.7188 z m -11.718,3.031 c -0.05051,0.01239 -0.11473,0.03017 -0.15625,0.0625 -3.164,2.4369 -5.5322,5.867 -6.6875,9.6562 -0.04516,0.1481 0.003,0.30982 0.125,0.40625 1.59,1.2594 2.5312,3.1991 2.5312,5.1875 0,1.9884 -0.94082,3.9281 -2.5312,5.1875 -0.12131,0.09605 -0.17016,0.25777 -0.125,0.40625 1.1461,3.7575 3.5,7.1622 6.625,9.5938 0.08381,0.06544 0.1764,0.11212 0.28125,0.09375 0.10447,-0.01799 0.19298,-0.09834 0.25,-0.1875 l 3.9062,-6.125 c 0.09988,-0.15651 0.07717,-0.37716 -0.0625,-0.5 -2.4526,-2.1579 -3.8438,-5.2386 -3.8438,-8.4688 0,-3.2543 1.3968,-6.3413 3.875,-8.5 0.13968,-0.12207 0.19286,-0.34272 0.09375,-0.5 l -3.875,-6.125 c -0.05664,-0.08955 -0.14553,-0.16913 -0.25,-0.1875 -0.05224,-0.0092 -0.10574,-0.01239 -0.15625,0 z m -0.03125,1.3438 3.2188,5.0938 c -2.4516,2.3215 -3.8438,5.511 -3.8438,8.875 0,3.342 1.3854,6.5239 3.8125,8.8438 l -3.25,5.0625 c -2.626,-2.21 -4.645,-5.108 -5.689,-8.344 1.5755,-1.4402 2.5625,-3.4435 2.5625,-5.5625 0,-2.1191 -0.98737,-4.1224 -2.5625,-5.5625 1.0532,-3.2673 3.0919,-6.19 5.75,-8.4062 z m -10.75,9.1562 c -2.7059,0 -4.9062,2.2023 -4.9062,4.9062 0,2.704 2.2003,4.9062 4.9062,4.9062 2.7059,0 4.9062,-2.2023 4.9062,-4.9062 0,-2.704 -2.2003,-4.9062 -4.9062,-4.9062 z m 0,0.96875 c 2.1739,0 3.9375,1.7655 3.9375,3.9375 0,2.172 -1.7636,3.9375 -3.9375,3.9375 -2.1739,0 -3.9375,-1.7655 -3.9375,-3.9375 0,-2.172 1.7636,-3.9375 3.9375,-3.9375 z m 34.094,5.375 c -0.18407,3.83e-4 -0.34553,0.13111 -0.375,0.3125 -0.88055,5.4068 -5.6936,9.5 -11.219,9.5 -1.5238,0 -3.0473,-0.31527 -4.5,-0.9375 -0.16991,-0.07232 -0.36887,-0.02998 -0.46875,0.125 l -3.906,6.156 c -0.05702,0.08993 -0.05958,0.17831 -0.03125,0.28125 0.02832,0.10256 0.09222,0.20255 0.1875,0.25 2.7113,1.3573 5.7338,2.0625 8.7188,2.0625 1.1071,0 2.2707,-0.10547 3.4375,-0.3125 0.16379,-0.0287 0.26173,-0.14757 0.28125,-0.3125 0.3888,-3.358 3.2451,-5.875 6.625,-5.875 1.0478,0 2.1248,0.24487 3.0938,0.75 0.14733,0.07692 0.32078,0.05651 0.4375,-0.0625 3.0557,-3.1161 4.9731,-7.212 5.4062,-11.531 0.01074,-0.10601 -0.0218,-0.20204 -0.09375,-0.28125 -0.07195,-0.07922 -0.17486,-0.12538 -0.28125,-0.125 l -7.3125,0 z m 0.40625,0.96875 6.1875,0 c -0.517,3.74 -2.171,7.269 -4.781,10.031 -0.985,-0.428 -2.031,-0.719 -3.063,-0.719 -3.6844,0 -6.7625,2.6424 -7.4375,6.2188 -0.983,0.155 -1.98,0.281 -2.906,0.281 -2.612,0 -5.241,-0.65 -7.656,-1.75 l 3.25,-5.0938 c 1.4311,0.54855 2.9098,0.84375 4.4062,0.84375 5.825,0 10.82,-4.1937 12,-9.8125 z m -2.2188,11.969 c -2.4709,0.24918 -4.4062,2.3219 -4.4062,4.8438 0,2.69 2.2003,4.875 4.9062,4.875 2.7059,0 4.9062,-2.185 4.9062,-4.875 0,-2.69 -2.2003,-4.8438 -4.9062,-4.8438 -0.16912,0 -0.33528,-0.01661 -0.5,0 z m 0.5,0.96875 c 2.1856,0 3.9375,1.7197 3.9375,3.875 0,2.1553 -1.7595,3.9062 -3.9375,3.9062 -2.178,0 -3.9375,-1.751 -3.9375,-3.9062 0,-2.1553 1.7519,-3.875 3.9375,-3.875 z m -18.312,1.7188 c -0.0089,0.02197 0.01126,0.04475 0,0.0625 l -0.03125,0 0.03125,-0.0625 z" />
    <path
       inkscape:connector-curvature="0"
       style="opacity:0.1;fill:#fce4ec"
       id="path85"
       d="m 71.009829,32.045682 c -2.644,0 -4.7812,2.1394 -4.7812,4.7812 0,0.1709 0.04502,0.33372 0.0625,0.5 0.25266,-2.4041 2.2458,-4.2812 4.7188,-4.2812 2.4729,0 4.4661,1.8771 4.7188,4.2812 0.01748,-0.16628 0.0625,-0.3291 0.0625,-0.5 0,-2.6418 -2.1373,-4.7812 -4.7812,-4.7812 z m -10.094,3.75 c -2.9509,3.82e-4 -5.9347,0.73309 -8.625,2.0625 -0.09567,0.04746 -0.1588,0.14744 -0.1875,0.25 -0.02909,0.10256 -0.02539,0.19094 0.03125,0.28125 l 0.25,0.40625 c 2.6638,-1.2981 5.6176,-1.9996 8.5312,-2 1.0746,0 2.1911,0.11275 3.3438,0.3125 0.18101,0.03138 0.3125,0.22371 0.3125,0.40625 0,0.0061 3.83e-4,0.1231 0,0.125 3.83e-4,3.6637 3.0011,6.6562 6.6875,6.6562 1.2636,0 2.4928,-0.38274 3.5938,-1.0938 0.15575,-0.10063 0.37678,-0.07526 0.5,0.0625 2.5705,2.8587 4.2335,6.4928 4.75,10.281 0.07156,-0.07883 0.1037,-0.17487 0.09375,-0.28125 -0.3934,-4.0418 -2.1133,-7.9635 -4.8438,-11 -0.12322,-0.13776 -0.34425,-0.16313 -0.5,-0.0625 -1.101,0.71101 -2.3301,1.0938 -3.5938,1.0938 -3.6864,0 -6.6871,-2.9925 -6.6875,-6.6562 3.83e-4,-0.0019 0,-0.11888 0,-0.125 0,-0.18254 -0.13149,-0.37487 -0.3125,-0.40625 -1.153,-0.2 -2.27,-0.313 -3.345,-0.313 z m -11.719,4 c -0.05051,0.01239 -0.11473,0.03017 -0.15625,0.0625 -3.164,2.4369 -5.5322,5.867 -6.6875,9.6562 -0.04516,0.1481 0.003,0.30982 0.125,0.40625 0.0233,0.01846 0.03947,0.04375 0.0625,0.0625 1.2094,-3.5766 3.4853,-6.8031 6.5,-9.125 0.04152,-0.03233 0.10574,-0.05011 0.15625,-0.0625 0.05051,-0.01239 0.10401,-0.0092 0.15625,0 0.10447,0.01837 0.19336,0.09795 0.25,0.1875 l 3.6562,5.75 c 0.04434,-0.03986 0.07996,-0.08576 0.125,-0.125 0.13968,-0.12207 0.19286,-0.34272 0.09375,-0.5 l -3.875,-6.125 c -0.05664,-0.08955 -0.14553,-0.16913 -0.25,-0.1875 -0.05224,-0.0092 -0.10574,-0.01239 -0.15625,0 z m -10.781,10.5 c -2.7059,0 -4.9062,2.2023 -4.9062,4.9062 0,0.169 0.0145,0.33549 0.03125,0.5 0.25118,-2.4695 2.3382,-4.4062 4.875,-4.4062 2.5368,0 4.6238,1.9368 4.875,4.4062 0.01675,-0.16451 0.03125,-0.331 0.03125,-0.5 0,-2.704 -2.2003,-4.9062 -4.9062,-4.9062 z m 6.5625,5.3125 c -0.14364,1.8109 -1.0422,3.5332 -2.5,4.6875 -0.12131,0.09605 -0.17016,0.25777 -0.125,0.40625 0.05516,0.18085 0.12679,0.35207 0.1875,0.53125 1.5486,-1.2604 2.4688,-3.1658 2.4688,-5.125 0,-0.16584 -0.01817,-0.33522 -0.03125,-0.5 z m 4.5625,0 c -0.0074,0.16608 -0.03125,0.33302 -0.03125,0.5 0,3.1568 1.337,6.1625 3.6875,8.3125 l 0.21875,-0.34375 c 0.09988,-0.15651 0.07717,-0.37716 -0.0625,-0.5 -2.3268,-2.0472 -3.6759,-4.9196 -3.8125,-7.9688 z m 22.969,1.0312 c -0.18407,3.83e-4 -0.34553,0.13111 -0.375,0.3125 -0.88055,5.4068 -5.6936,9.5 -11.219,9.5 -1.5238,0 -3.0473,-0.31527 -4.5,-0.9375 -0.16991,-0.07232 -0.36887,-0.02998 -0.46875,0.125 l -3.904,6.156 c -0.05702,0.08993 -0.05958,0.17831 -0.03125,0.28125 0.02832,0.10256 0.09222,0.20255 0.1875,0.25 0.04178,0.02092 0.08307,0.04189 0.125,0.0625 l 3.625,-5.75 c 0.09988,-0.15498 0.29884,-0.19732 0.46875,-0.125 1.4527,0.62223 2.9762,0.9375 4.5,0.9375 5.5252,0 10.338,-4.0932 11.219,-9.5 0.02947,-0.18139 0.19093,-0.31212 0.375,-0.3125 l 7.3125,0 c 0.10639,-3.82e-4 0.2093,0.04578 0.28125,0.125 0.03384,-0.24179 0.06935,-0.47549 0.09375,-0.71875 0.01074,-0.10601 -0.0218,-0.20204 -0.09375,-0.28125 -0.07195,-0.07922 -0.17486,-0.12538 -0.28125,-0.125 l -7.3125,0 z m -1.8125,12.938 c -2.4709,0.24918 -4.4062,2.3219 -4.4062,4.8438 0,0.16812 0.0145,0.33628 0.03125,0.5 0.25118,-2.4558 2.3382,-4.3438 4.875,-4.3438 2.5368,0 4.6238,1.8879 4.875,4.3438 0.01675,-0.16372 0.03125,-0.33188 0.03125,-0.5 0,-2.69 -2.2003,-4.8438 -4.9062,-4.8438 -0.16912,0 -0.33528,-0.01661 -0.5,0 z" />
    <path
       style="opacity:0.2;fill:#fce4ec"
       inkscape:connector-curvature="0"
       id="path87"
       d="m 66.291829,37.326682 c -0.01748,0.16628 -0.0625,0.3291 -0.0625,0.5 0,2.6418 2.1373,4.7812 4.7812,4.7812 2.644,0 4.7812,-2.1394 4.7812,-4.7812 0,-0.1709 -0.04502,-0.33372 -0.0625,-0.5 -0.25266,2.4041 -2.2458,4.2812 -4.7188,4.2812 -2.4729,0 -4.4661,-1.8771 -4.7188,-4.2812 z m -13.907,1.469 c -0.03402,0.01658 -0.05983,0.04574 -0.09375,0.0625 -0.09567,0.04746 -0.1588,0.14744 -0.1875,0.25 -0.02909,0.10256 -0.02539,0.19094 0.03125,0.28125 l 3.875,6.1562 c 0.09835,0.15613 0.29846,0.22781 0.46875,0.15625 1.4366,-0.6073 2.9313,-0.90625 4.4375,-0.90625 5.5405,0 10.381,4.0839 11.25,9.5312 0.02908,0.18292 0.15891,0.3125 0.34375,0.3125 l 7.3125,0 c 0.10638,0 0.20969,-0.01492 0.28125,-0.09375 0.07156,-0.07883 0.1037,-0.17487 0.09375,-0.28125 -0.022,-0.237 -0.061,-0.483 -0.093,-0.719 -0.07156,0.07883 -0.17486,0.09375 -0.28125,0.09375 l -7.3125,0 c -0.18484,0 -0.31467,-0.12958 -0.34375,-0.3125 -0.86869,-5.4474 -5.7095,-9.5312 -11.25,-9.5312 -1.5062,0 -3.0009,0.29895 -4.4375,0.90625 -0.1703,0.07156 -0.3704,-1.18e-4 -0.46875,-0.15625 l -3.625,-5.75 z m 0.875,7.9375 c -2.3953,2.1529 -3.75,5.1799 -3.75,8.375 0,0.16574 0.02386,0.33508 0.03125,0.5 0.13734,-3.0705 1.4927,-5.9521 3.8438,-8 0.13968,-0.12207 0.19286,-0.34272 0.09375,-0.5 l -0.21875,-0.375 z m -10.719,3.25 c -0.05989,0.17711 -0.13299,0.35246 -0.1875,0.53125 -0.04516,0.1481 0.003,0.30982 0.125,0.40625 1.4574,1.1543 2.3563,2.8766 2.5,4.6875 0.01307,-0.16478 0.03125,-0.33416 0.03125,-0.5 0,-1.9592 -0.92047,-3.8646 -2.4688,-5.125 z m -9,5.7188 c -0.01675,0.16463 -0.03125,0.331 -0.03125,0.5 0,2.704 2.2003,4.9062 4.9062,4.9062 2.7059,0 4.9062,-2.2023 4.9062,-4.9062 0,-0.169 -0.0145,-0.33537 -0.03125,-0.5 -0.25118,2.4676 -2.3382,4.4062 -4.875,4.4062 -2.5368,0 -4.6238,-1.9386 -4.875,-4.4062 z m 46.562,2.0625 c -0.56697,4.0512 -2.4289,7.8719 -5.3125,10.812 -0.11672,0.11901 -0.29017,0.13942 -0.4375,0.0625 -0.96895,-0.50513 -2.046,-0.75 -3.0938,-0.75 -3.3799,0 -6.2362,2.517 -6.625,5.875 -0.01952,0.16493 -0.11746,0.2838 -0.28125,0.3125 -1.1668,0.20703 -2.3304,0.3125 -3.4375,0.3125 -2.9389,0 -5.9149,-0.68302 -8.5938,-2 l -0.279,0.407 c -0.05702,0.08993 -0.05958,0.17831 -0.03125,0.28125 0.02832,0.10256 0.09222,0.20255 0.1875,0.25 2.7113,1.3573 5.7338,2.0625 8.7188,2.0625 1.1071,0 2.2707,-0.10547 3.4375,-0.3125 0.16379,-0.0287 0.26173,-0.14757 0.28125,-0.3125 0.3888,-3.358 3.2451,-5.875 6.625,-5.875 1.0478,0 2.1248,0.24487 3.0938,0.75 0.14733,0.07692 0.32078,0.05651 0.4375,-0.0625 3.0557,-3.1161 4.9731,-7.212 5.4062,-11.531 0.01074,-0.10601 -0.0218,-0.20204 -0.09375,-0.28125 z m -37.561,3.468 c -0.02303,0.01875 -0.03919,0.04404 -0.0625,0.0625 -0.12131,0.09605 -0.17016,0.25777 -0.125,0.40625 1.1461,3.7575 3.5,7.1622 6.625,9.5938 0.08381,0.06544 0.1764,0.11212 0.28125,0.09375 0.10447,-0.01799 0.19298,-0.09834 0.25,-0.1875 l 3.9062,-6.125 c 0.09988,-0.15651 0.07717,-0.37716 -0.0625,-0.5 -0.056,-0.05 -0.102,-0.107 -0.156,-0.157 l -3.6875,5.7812 c -0.05702,0.08916 -0.14553,0.16951 -0.25,0.1875 -0.105,0.019 -0.197,-0.028 -0.281,-0.093 -2.975,-2.314 -5.237,-5.519 -6.437,-9.063 z m 23.781,13.688 c -0.01675,0.16372 -0.03125,0.33188 -0.03125,0.5 0,2.69 2.2003,4.875 4.9062,4.875 2.7059,0 4.9062,-2.185 4.9062,-4.875 0,-0.16812 -0.0145,-0.33628 -0.03125,-0.5 -0.25118,2.4558 -2.3382,4.375 -4.875,4.375 -2.5368,0 -4.6238,-1.9192 -4.875,-4.375 z" />
  </g>
</svg>
