<svg height="16" width="16" xmlns="http://www.w3.org/2000/svg" xmlns:sodipodi="http://sodipodi.sourceforge.net/DTD/sodipodi-0.dtd" xmlns:inkscape="http://www.inkscape.org/namespaces/inkscape">
 <path d="m 6,1 0,1 -3.5,0 0,2 11,0 0,-2 L 10,2 10,1 z M 3.96875,5 c -0.554,0 -1,0.446 -1,1 l 0,8 c 0,0.554 0.446,1 1,1 l 8,0 c 0.554,0 1,-0.446 1,-1 l 0,-8 c 0,-0.554 -0.446,-1 -1,-1 z M 6,7 7,7 7,13 6,13 z m 3,0 1,0 0,6 -1,0 z" stroke-width="1" display="inline" fill="#bebebe" color="#bebebe" fill-opacity="1" fill-rule="nonzero" stroke="none" visibility="visible"/>
</svg>
