<?xml version="1.0" encoding="UTF-8" standalone="no"?>
<svg
   xmlns:dc="http://purl.org/dc/elements/1.1/"
   xmlns:cc="http://creativecommons.org/ns#"
   xmlns:rdf="http://www.w3.org/1999/02/22-rdf-syntax-ns#"
   xmlns:svg="http://www.w3.org/2000/svg"
   xmlns="http://www.w3.org/2000/svg"
   xmlns:xlink="http://www.w3.org/1999/xlink"
   xmlns:sodipodi="http://sodipodi.sourceforge.net/DTD/sodipodi-0.dtd"
   xmlns:inkscape="http://www.inkscape.org/namespaces/inkscape"
   height="96"
   width="96"
   id="svg2"
   version="1.1"
   inkscape:version="0.91 r13725"
   sodipodi:docname="emptytrash.svg">
  <metadata
     id="metadata82">
    <rdf:RDF>
      <cc:Work
         rdf:about="">
        <dc:format>image/svg+xml</dc:format>
        <dc:type
           rdf:resource="http://purl.org/dc/dcmitype/StillImage" />
      </cc:Work>
    </rdf:RDF>
  </metadata>
  <sodipodi:namedview
     pagecolor="#ffffff"
     bordercolor="#666666"
     borderopacity="1"
     objecttolerance="10"
     gridtolerance="10"
     guidetolerance="10"
     inkscape:pageopacity="0"
     inkscape:pageshadow="2"
     inkscape:window-width="640"
     inkscape:window-height="480"
     id="namedview80"
     showgrid="false"
     inkscape:zoom="3.4766083"
     inkscape:cx="84.176417"
     inkscape:cy="50.335927"
     inkscape:current-layer="svg2" />
  <defs
     id="defs4">
    <linearGradient
       inkscape:collect="always"
       id="linearGradient14428">
      <stop
         style="stop-color:#696969;stop-opacity:1"
         offset="0"
         id="stop14430" />
      <stop
         id="stop14436"
         offset="0.15509164"
         style="stop-color:#cfcfcf;stop-opacity:1" />
      <stop
         style="stop-color:#979797;stop-opacity:1"
         offset="0.31041092"
         id="stop14438" />
      <stop
         id="stop14440"
         offset="0.47260693"
         style="stop-color:#9d9d9d;stop-opacity:1" />
      <stop
         style="stop-color:#c1c1c1;stop-opacity:1"
         offset="0.68389094"
         id="stop14442" />
      <stop
         id="stop14444"
         offset="0.9011209"
         style="stop-color:#f2f2f2;stop-opacity:1" />
      <stop
         style="stop-color:#696969;stop-opacity:1"
         offset="1"
         id="stop14432" />
    </linearGradient>
    <linearGradient
       inkscape:collect="always"
       id="linearGradient14420">
      <stop
         style="stop-color:#000000;stop-opacity:1;"
         offset="0"
         id="stop14422" />
      <stop
         style="stop-color:#000000;stop-opacity:0.24725275"
         offset="1"
         id="stop14424" />
    </linearGradient>
    <linearGradient
       id="linearGradient14406"
       inkscape:collect="always">
      <stop
         id="stop14408"
         offset="0"
         style="stop-color:#ffffff;stop-opacity:1;" />
      <stop
         id="stop14410"
         offset="1"
         style="stop-color:#508900;stop-opacity:1" />
    </linearGradient>
    <linearGradient
       inkscape:collect="always"
       id="linearGradient14377">
      <stop
         style="stop-color:#000000;stop-opacity:1;"
         offset="0"
         id="stop14379" />
      <stop
         style="stop-color:#000000;stop-opacity:0;"
         offset="1"
         id="stop14381" />
    </linearGradient>
    <linearGradient
       inkscape:collect="always"
       id="linearGradient14295">
      <stop
         style="stop-color:#ffffff;stop-opacity:1;"
         offset="0"
         id="stop14297" />
      <stop
         style="stop-color:#ffffff;stop-opacity:0;"
         offset="1"
         id="stop14299" />
    </linearGradient>
    <linearGradient
       id="linearGradient14289">
      <stop
         id="stop14291"
         stop-color="#828282"
         style="stop-color:#616161;stop-opacity:1" />
      <stop
         id="stop14293"
         offset="1"
         stop-color="#5a5a5a"
         style="stop-color:#222222;stop-opacity:1" />
    </linearGradient>
    <linearGradient
       inkscape:collect="always"
       id="linearGradient14210">
      <stop
         style="stop-color:#ffffff;stop-opacity:1;"
         offset="0"
         id="stop14212" />
      <stop
         style="stop-color:#e0e0e0;stop-opacity:1"
         offset="1"
         id="stop14214" />
    </linearGradient>
    <clipPath
       id="clipPath3613-55">
      <rect
         x="6"
         rx="6"
         y="6"
         height="84"
         width="84"
         id="rect7" />
    </clipPath>
    <filter
       x="-0.192"
       y="-0.192"
       height="1.384"
       color-interpolation-filters="sRGB"
       id="filter3794-41"
       width="1.384">
      <feGaussianBlur
         stdDeviation="5.28"
         id="feGaussianBlur10" />
    </filter>
    <linearGradient
       x2="0"
       y1="90"
       y2="5.9879999"
       gradientUnits="userSpaceOnUse"
       id="linearGradient3182"
       gradientTransform="matrix(1.125,0,0,1.0417,-7.75,-3.25)"
       xlink:href="#linearGradient14406">
      <stop
         stop-color="#8c8c8c"
         id="stop13"
         style="stop-color:#959595;stop-opacity:1" />
      <stop
         stop-color="#dcdcdc"
         offset="1"
         id="stop15"
         style="stop-color:#ffffff;stop-opacity:1" />
    </linearGradient>
    <linearGradient
       x2="0"
       y1="20.221"
       y2="138.66"
       gradientUnits="userSpaceOnUse"
       id="linearGradient90466">
      <stop
         stop-color="#fff"
         id="stop18" />
      <stop
         stop-color="#fff"
         stop-opacity="0"
         offset="1"
         id="stop20" />
    </linearGradient>
    <filter
       color-interpolation-filters="sRGB"
       id="filter3276">
      <feGaussianBlur
         stdDeviation="0.56242"
         id="feGaussianBlur23" />
    </filter>
    <linearGradient
       x1="87.23"
       x2="69.921"
       xlink:href="#linearGradient4360"
       gradientUnits="userSpaceOnUse"
       id="linearGradient3659" />
    <linearGradient
       id="linearGradient4360">
      <stop
         stop-color="#6e6e6e"
         id="stop27" />
      <stop
         stop-color="#8c8c8c"
         offset="1"
         id="stop29" />
    </linearGradient>
    <linearGradient
       x1="82.86"
       x2="86.75"
       xlink:href="#linearGradient4368"
       y1="87.43"
       y2="97.97"
       gradientUnits="userSpaceOnUse"
       id="linearGradient3661" />
    <linearGradient
       id="linearGradient4368">
      <stop
         stop-color="#828282"
         id="stop33" />
      <stop
         stop-color="#5a5a5a"
         offset="1"
         id="stop35" />
    </linearGradient>
    <linearGradient
       x1="52.11"
       x2="61.13"
       xlink:href="#linearGradient4368"
       y1="76.54"
       y2="68.3"
       gradientUnits="userSpaceOnUse"
       id="linearGradient3663" />
    <linearGradient
       x1="66.74"
       x2="75.28"
       xlink:href="#linearGradient4360"
       y1="63.59"
       y2="80.82"
       gradientUnits="userSpaceOnUse"
       id="linearGradient3665" />
    <linearGradient
       x1="43.24"
       x2="48.19"
       xlink:href="#linearGradient4360"
       y1="104.22"
       y2="93.47"
       gradientUnits="userSpaceOnUse"
       id="linearGradient3667" />
    <linearGradient
       x1="60.41"
       x2="46.921"
       xlink:href="#linearGradient4368"
       y1="106.16"
       y2="110.66"
       gradientUnits="userSpaceOnUse"
       id="linearGradient3669" />
    <linearGradient
       inkscape:collect="always"
       xlink:href="#linearGradient14406"
       id="linearGradient14216"
       x1="62.523319"
       y1="64.620247"
       x2="62.523319"
       y2="108.85394"
       gradientUnits="userSpaceOnUse" />
    <filter
       inkscape:collect="always"
       style="color-interpolation-filters:sRGB"
       id="filter14262"
       x="-0.046548687"
       width="1.0930974"
       y="-0.049544725"
       height="1.0990894">
      <feGaussianBlur
         inkscape:collect="always"
         stdDeviation="1.1248263"
         id="feGaussianBlur14264" />
    </filter>
    <linearGradient
       inkscape:collect="always"
       xlink:href="#linearGradient14231"
       id="linearGradient14237"
       x1="50.707542"
       y1="81.682442"
       x2="50.707542"
       y2="96.539803"
       gradientUnits="userSpaceOnUse" />
    <linearGradient
       inkscape:collect="always"
       id="linearGradient14231">
      <stop
         style="stop-color:#000000;stop-opacity:1;"
         offset="0"
         id="stop14233" />
      <stop
         style="stop-color:#000000;stop-opacity:0;"
         offset="1"
         id="stop14235" />
    </linearGradient>
    <linearGradient
       inkscape:collect="always"
       xlink:href="#linearGradient14295"
       id="linearGradient14245"
       x1="49.876652"
       y1="87.937508"
       x2="49.876652"
       y2="76.719681"
       gradientUnits="userSpaceOnUse" />
    <linearGradient
       inkscape:collect="always"
       xlink:href="#linearGradient14210"
       id="linearGradient14326"
       gradientUnits="userSpaceOnUse"
       x1="62.523319"
       y1="64.620247"
       x2="62.523319"
       y2="108.85394" />
    <linearGradient
       inkscape:collect="always"
       xlink:href="#linearGradient14210"
       id="linearGradient14328"
       gradientUnits="userSpaceOnUse"
       x1="62.523319"
       y1="64.620247"
       x2="62.523319"
       y2="108.85394" />
    <linearGradient
       inkscape:collect="always"
       xlink:href="#linearGradient14210"
       id="linearGradient14330"
       gradientUnits="userSpaceOnUse"
       x1="62.523319"
       y1="64.620247"
       x2="62.523319"
       y2="108.85394" />
    <linearGradient
       inkscape:collect="always"
       xlink:href="#linearGradient14210"
       id="linearGradient14332"
       gradientUnits="userSpaceOnUse"
       x1="62.523319"
       y1="64.620247"
       x2="62.523319"
       y2="108.85394" />
    <linearGradient
       inkscape:collect="always"
       xlink:href="#linearGradient14210"
       id="linearGradient14334"
       gradientUnits="userSpaceOnUse"
       x1="62.523319"
       y1="64.620247"
       x2="62.523319"
       y2="108.85394" />
    <linearGradient
       inkscape:collect="always"
       xlink:href="#linearGradient14210"
       id="linearGradient14336"
       gradientUnits="userSpaceOnUse"
       x1="62.523319"
       y1="64.620247"
       x2="62.523319"
       y2="108.85394" />
    <linearGradient
       inkscape:collect="always"
       xlink:href="#linearGradient14210"
       id="linearGradient14338"
       gradientUnits="userSpaceOnUse"
       x1="62.523319"
       y1="64.620247"
       x2="62.523319"
       y2="108.85394" />
    <linearGradient
       inkscape:collect="always"
       xlink:href="#linearGradient14210"
       id="linearGradient14340"
       gradientUnits="userSpaceOnUse"
       x1="62.523319"
       y1="64.620247"
       x2="62.523319"
       y2="108.85394" />
    <linearGradient
       inkscape:collect="always"
       xlink:href="#linearGradient14210"
       id="linearGradient14342"
       gradientUnits="userSpaceOnUse"
       x1="62.523319"
       y1="64.620247"
       x2="62.523319"
       y2="108.85394" />
    <linearGradient
       inkscape:collect="always"
       xlink:href="#linearGradient14210"
       id="linearGradient14344"
       gradientUnits="userSpaceOnUse"
       x1="62.523319"
       y1="64.620247"
       x2="62.523319"
       y2="108.85394" />
    <linearGradient
       inkscape:collect="always"
       xlink:href="#linearGradient14210"
       id="linearGradient14346"
       gradientUnits="userSpaceOnUse"
       x1="62.523319"
       y1="64.620247"
       x2="62.523319"
       y2="108.85394" />
    <linearGradient
       inkscape:collect="always"
       xlink:href="#linearGradient14210"
       id="linearGradient14348"
       gradientUnits="userSpaceOnUse"
       x1="62.523319"
       y1="64.620247"
       x2="62.523319"
       y2="108.85394" />
    <linearGradient
       inkscape:collect="always"
       xlink:href="#linearGradient14210"
       id="linearGradient14350"
       gradientUnits="userSpaceOnUse"
       x1="62.523319"
       y1="64.620247"
       x2="62.523319"
       y2="108.85394" />
    <linearGradient
       inkscape:collect="always"
       xlink:href="#linearGradient14295"
       id="linearGradient14366"
       gradientUnits="userSpaceOnUse"
       x1="49.876652"
       y1="87.937508"
       x2="49.876652"
       y2="76.719681"
       gradientTransform="translate(0,-43.145499)" />
    <linearGradient
       inkscape:collect="always"
       xlink:href="#linearGradient14377"
       id="linearGradient14383"
       x1="53.874001"
       y1="28.356203"
       x2="53.874001"
       y2="48.924126"
       gradientUnits="userSpaceOnUse"
       gradientTransform="translate(0,-0.86290998)" />
    <linearGradient
       inkscape:collect="always"
       xlink:href="#linearGradient14420"
       id="linearGradient14426"
       x1="47.338425"
       y1="-45.334461"
       x2="47.338425"
       y2="-3.627147"
       gradientUnits="userSpaceOnUse" />
    <linearGradient
       inkscape:collect="always"
       xlink:href="#linearGradient14428"
       id="linearGradient14434"
       x1="5.437"
       y1="47.7032"
       x2="90.5"
       y2="47.703201"
       gradientUnits="userSpaceOnUse" />
  </defs>
  <rect
     x="3.608"
     rx="12.552"
     y="3.6"
     fill-opacity="0.039"
     height="88.76"
     width="88.76"
     id="rect42" />
  <rect
     x="4.216"
     rx="12.38"
     y="4.21"
     fill-opacity="0.078"
     height="87.55"
     width="87.55"
     id="rect44" />
  <rect
     x="4.824"
     rx="12.208"
     y="4.82"
     fill-opacity="0.157"
     height="86.33"
     width="86.33"
     id="rect46" />
  <path
     d="m 17.469,5.4062 c -6.668,0 -12.032,5.3948 -12.032,12.063 l 5e-4,61.031 c 0,5.418 3.5332,9.982 8.4375,11.5 l 68.187,0 c 4.715,-1.457 8.172,-5.734 8.438,-10.875 l 0,-62.281 c -0.321,-6.377 -5.54,-11.438 -12,-11.438 l -61.031,2e-4 z"
     fill="url(#linearGradient3182)"
     opacity="0.9"
     inkscape:connector-curvature="0"
     id="path48"
     style="fill-opacity:1;fill:url(#linearGradient14434);opacity:1" />
  <path
     style="opacity:0.5;fill:url(#linearGradient14366);fill-opacity:1"
     d="m 5.2929688,30.226933 0,0.496094 c 0,6.667718 5.3632502,12.03125 12.0312502,12.03125 l 61.048828,0 c 6.6675,0 12.03125,-5.363133 12.03125,-12.03125 l 0,-0.496094 c 0,6.668118 -5.36375,12.03125 -12.03125,12.03125 l -61.048828,0 c -6.668,0 -12.0312502,-5.363532 -12.0312502,-12.03125 z"
     id="path14364"
     inkscape:connector-curvature="0" />
  <g
     id="g62"
     transform="matrix(0.62074,0,0,0.62074,8.2741647,9.1955967)"
     style="fill:url(#linearGradient14338);fill-opacity:1">
    <path
       style="fill:url(#linearGradient14326);fill-opacity:1"
       id="path64"
       inkscape:connector-curvature="0"
       d="m 66.74,106.88 6.3317,-11.357 0.0301,4.1536 13.326,-0.03009 c 2.3811,-0.25234 4.4687,-1.2201 5.9805,-3.0399 -4.825,9.8683 -6.2147,16.851 -16.226,16.855 l -3.0806,0 -0.0301,4.6151 -6.3317,-11.197 z" />
    <path
       style="fill:url(#linearGradient14328);fill-opacity:1"
       id="path66"
       inkscape:connector-curvature="0"
       d="M 81.24,97.921 75.36,87.086 87.241,79.893 92.99,91.41 c 0.17409,2.7563 -4.2769,6.592 -7.0396,6.5622 l -4.7107,-0.05088 z" />
    <path
       style="fill:url(#linearGradient14330);fill-opacity:1"
       id="path68"
       inkscape:connector-curvature="0"
       d="m 45.109,73.92 6.07,-9.0957 c 5.8874,-2.1923 9.2977,2.5406 11.45,5.524 l -5.719,10.976 -11.801,-7.404 z" />
    <path
       style="fill:url(#linearGradient14332);fill-opacity:1"
       id="path70"
       inkscape:connector-curvature="0"
       d="M 69.091,78.447 C 67.87,75.569 66.239,72.278 64.199,69.416 62.373,66.853 60.166,64.618 58.495,63.619 l 15.353,-0.03009 c 2.7572,0.24748 4.0968,1.8546 5.5591,4.0532 l 2.2076,3.8827 3.4117,-2.1771 -6.422,11.437 -13.848,0.03009 4.3349,-2.3677 z" />
    <path
       style="fill:url(#linearGradient14334);fill-opacity:1"
       id="path72"
       inkscape:connector-curvature="0"
       d="m 47.847,82.694 7.3428,10.731 -3.7316,-1.8255 -5.9163,11.938 c -0.83607,2.2434 -0.90083,4.5431 0.05403,6.7077 -6.682,-8.719 -12.313,-13.077 -7.8518,-22.037 l 1.3739,-2.7568 -4.1179,-2.0852 12.847,-0.67259 z" />
    <path
       style="fill:url(#linearGradient14336);fill-opacity:1"
       id="path74"
       inkscape:connector-curvature="0"
       d="m 49.529,99.667 13.538,-0.42958 -0.07542,13.84 -12.875,0.009 c -2.5451,-1.0735 -3.9936,-6.7673 -2.7347,-9.2263 l 2.1465,-4.1929 z" />
  </g>
  <g
     id="g14232"
     transform="matrix(0.62074,0,0,0.62074,8.2741647,9.1955967)"
     style="opacity:0.3;fill:#000000;fill-opacity:1;filter:url(#filter14262)">
    <path
       style="fill:#000000;fill-opacity:1"
       id="path14234"
       inkscape:connector-curvature="0"
       d="m 66.74,106.88 6.3317,-11.357 0.0301,4.1536 13.326,-0.03009 c 2.3811,-0.25234 4.4687,-1.2201 5.9805,-3.0399 -4.825,9.8683 -6.2147,16.851 -16.226,16.855 l -3.0806,0 -0.0301,4.6151 -6.3317,-11.197 z" />
    <path
       style="fill:#000000;fill-opacity:1"
       id="path14236"
       inkscape:connector-curvature="0"
       d="M 81.24,97.921 75.36,87.086 87.241,79.893 92.99,91.41 c 0.17409,2.7563 -4.2769,6.592 -7.0396,6.5622 l -4.7107,-0.05088 z" />
    <path
       style="fill:#000000;fill-opacity:1"
       id="path14238"
       inkscape:connector-curvature="0"
       d="m 45.109,73.92 6.07,-9.0957 c 5.8874,-2.1923 9.2977,2.5406 11.45,5.524 l -5.719,10.976 -11.801,-7.404 z" />
    <path
       style="fill:#000000;fill-opacity:1"
       id="path14240"
       inkscape:connector-curvature="0"
       d="M 69.091,78.447 C 67.87,75.569 66.239,72.278 64.199,69.416 62.373,66.853 60.166,64.618 58.495,63.619 l 15.353,-0.03009 c 2.7572,0.24748 4.0968,1.8546 5.5591,4.0532 l 2.2076,3.8827 3.4117,-2.1771 -6.422,11.437 -13.848,0.03009 4.3349,-2.3677 z" />
    <path
       style="fill:#000000;fill-opacity:1"
       id="path14242"
       inkscape:connector-curvature="0"
       d="m 47.847,82.694 7.3428,10.731 -3.7316,-1.8255 -5.9163,11.938 c -0.83607,2.2434 -0.90083,4.5431 0.05403,6.7077 -6.682,-8.719 -12.313,-13.077 -7.8518,-22.037 l 1.3739,-2.7568 -4.1179,-2.0852 12.847,-0.67259 z" />
    <path
       style="fill:#000000;fill-opacity:1"
       id="path14244"
       inkscape:connector-curvature="0"
       d="m 49.529,99.667 13.538,-0.42958 -0.07542,13.84 -12.875,0.009 c -2.5451,-1.0735 -3.9936,-6.7673 -2.7347,-9.2263 l 2.1465,-4.1929 z" />
  </g>
  <g
     style="fill:url(#linearGradient14216);fill-opacity:1"
     transform="matrix(0.62074,0,0,0.62074,8.2741647,9.1955967)"
     id="g14218">
    <path
       d="m 66.74,106.88 6.3317,-11.357 0.0301,4.1536 13.326,-0.03009 c 2.3811,-0.25234 4.4687,-1.2201 5.9805,-3.0399 -4.825,9.8683 -6.2147,16.851 -16.226,16.855 l -3.0806,0 -0.0301,4.6151 -6.3317,-11.197 z"
       inkscape:connector-curvature="0"
       id="path14220"
       style="fill:url(#linearGradient14340);fill-opacity:1" />
    <path
       d="M 81.24,97.921 75.36,87.086 87.241,79.893 92.99,91.41 c 0.17409,2.7563 -4.2769,6.592 -7.0396,6.5622 l -4.7107,-0.05088 z"
       inkscape:connector-curvature="0"
       id="path14222"
       style="fill:url(#linearGradient14342);fill-opacity:1" />
    <path
       d="m 45.109,73.92 6.07,-9.0957 c 5.8874,-2.1923 9.2977,2.5406 11.45,5.524 l -5.719,10.976 -11.801,-7.404 z"
       inkscape:connector-curvature="0"
       id="path14224"
       style="fill:url(#linearGradient14344);fill-opacity:1" />
    <path
       d="M 69.091,78.447 C 67.87,75.569 66.239,72.278 64.199,69.416 62.373,66.853 60.166,64.618 58.495,63.619 l 15.353,-0.03009 c 2.7572,0.24748 4.0968,1.8546 5.5591,4.0532 l 2.2076,3.8827 3.4117,-2.1771 -6.422,11.437 -13.848,0.03009 4.3349,-2.3677 z"
       inkscape:connector-curvature="0"
       id="path14226"
       style="fill:url(#linearGradient14346);fill-opacity:1" />
    <path
       d="m 47.847,82.694 7.3428,10.731 -3.7316,-1.8255 -5.9163,11.938 c -0.83607,2.2434 -0.90083,4.5431 0.05403,6.7077 -6.682,-8.719 -12.313,-13.077 -7.8518,-22.037 l 1.3739,-2.7568 -4.1179,-2.0852 12.847,-0.67259 z"
       inkscape:connector-curvature="0"
       id="path14228"
       style="fill:url(#linearGradient14348);fill-opacity:1" />
    <path
       d="m 49.529,99.667 13.538,-0.42958 -0.07542,13.84 -12.875,0.009 c -2.5451,-1.0735 -3.9936,-6.7673 -2.7347,-9.2263 l 2.1465,-4.1929 z"
       inkscape:connector-curvature="0"
       id="path14230"
       style="fill:url(#linearGradient14350);fill-opacity:1" />
  </g>
  <path
     style="opacity:0.4;fill:url(#linearGradient14237);fill-opacity:1"
     inkscape:connector-curvature="0"
     id="path64-7"
     d="m 5.2922679,73.685059 0,5.0663 c 0,6.668 5.3645011,12.032 12.0320011,12.032 l 61.049,0 c 6.668,0 12.032,-5.3645 12.032,-12.032 l 0,-5.0663 c 0,6.6681 -5.3645,12.032 -12.032,12.032 l -61.049,0 c -6.668,0 -12.0320011,-5.3643 -12.0320011,-12.032 z" />
  <path
     style="opacity:0.5;fill:url(#linearGradient14245);fill-opacity:1"
     d="m 5.2929688,72.717592 0,1.15039 c 0,6.667718 5.3632502,12.031248 12.0312502,12.031248 l 61.048828,0 c 6.6675,0 12.03125,-5.36313 12.03125,-12.031248 l 0,-1.15039 c 0,6.668098 -5.36375,12.031248 -12.03125,12.031248 l -61.048828,0 c -6.668,0 -12.0312502,-5.36355 -12.0312502,-12.031248 z"
     id="path14214"
     inkscape:connector-curvature="0" />
  <rect
     style="opacity:0.95;fill:url(#linearGradient14426);fill-opacity:1;fill-rule:nonzero;stroke:none;stroke-width:3;stroke-linejoin:round;stroke-miterlimit:4;stroke-dasharray:none;stroke-opacity:1"
     id="rect14352"
     width="79.728813"
     height="31.728813"
     x="7.9322019"
     y="-39.050846"
     rx="10.208606"
     transform="scale(1,-1)" />
  <path
     style="opacity:0.5;fill:url(#linearGradient14383);fill-opacity:1"
     d="m 5.2929688,30.690737 0,1.15039 c 0,6.667718 5.3632502,12.031248 12.0312502,12.031248 l 61.048828,0 c 6.6675,0 12.03125,-5.36313 12.03125,-12.031248 l 0,-1.15039 c 0,6.668098 -5.36375,12.031248 -12.03125,12.031248 l -61.048828,0 c -6.668,0 -12.0312502,-5.36355 -12.0312502,-12.031248 z"
     id="path14368"
     inkscape:connector-curvature="0" />
</svg>
