<?xml version="1.0" encoding="UTF-8" standalone="no"?>
<svg
   xmlns:dc="http://purl.org/dc/elements/1.1/"
   xmlns:cc="http://creativecommons.org/ns#"
   xmlns:rdf="http://www.w3.org/1999/02/22-rdf-syntax-ns#"
   xmlns:svg="http://www.w3.org/2000/svg"
   xmlns="http://www.w3.org/2000/svg"
   xmlns:sodipodi="http://sodipodi.sourceforge.net/DTD/sodipodi-0.dtd"
   xmlns:inkscape="http://www.inkscape.org/namespaces/inkscape"
   height="96"
   width="96"
   id="svg2"
   version="1.1"
   inkscape:version="0.91 r13725"
   sodipodi:docname="desktop.svg">
  <metadata
     id="metadata73">
    <rdf:RDF>
      <cc:Work
         rdf:about="">
        <dc:format>image/svg+xml</dc:format>
        <dc:type
           rdf:resource="http://purl.org/dc/dcmitype/StillImage" />
      </cc:Work>
    </rdf:RDF>
  </metadata>
  <sodipodi:namedview
     pagecolor="#ffffff"
     bordercolor="#666666"
     borderopacity="1"
     objecttolerance="10"
     gridtolerance="10"
     guidetolerance="10"
     inkscape:pageopacity="0"
     inkscape:pageshadow="2"
     inkscape:window-width="1366"
     inkscape:window-height="716"
     id="namedview71"
     showgrid="false"
     inkscape:zoom="3.4766083"
     inkscape:cx="12.110977"
     inkscape:cy="56.935725"
     inkscape:window-x="0"
     inkscape:window-y="24"
     inkscape:window-maximized="1"
     inkscape:current-layer="svg2" />
  <defs
     id="defs4">
    <clipPath
       clipPathUnits="userSpaceOnUse"
       id="clipPath4637">
      <rect
         x="-46.872"
         rx="7.163"
         y="971.67"
         height="56"
         width="69.68"
         id="rect7" />
    </clipPath>
    <radialGradient
       cy="-15.871"
       r="35.938"
       gradientUnits="userSpaceOnUse"
       id="radialGradient4612"
       cx="56.07"
       gradientTransform="matrix(-0.00226,-1.0568,1.3856,0,10.224,1077.8)">
      <stop
         stop-color="#4490e6"
         id="stop10" />
      <stop
         stop-color="#103d8f"
         offset="1"
         id="stop12" />
    </radialGradient>
    <clipPath
       clipPathUnits="userSpaceOnUse"
       id="clipPath4614">
      <path
         d="m19.326 968.74c-6.2954 0-11.344 4.8851-11.344 10.923v55.267c0 6.0382 5.0491 10.895 11.344 10.895h57.641c6.2954 0 11.344-4.8567 11.344-10.895v-55.267c0-6.0381-5.0491-10.923-11.344-10.923h-57.641z"
         id="path15" />
    </clipPath>
  </defs>
  <rect
     style="fill-opacity:0.02000002"
     id="rect19"
     width="89.620003"
     height="89.980003"
     y="2.9899757"
     rx="12.724"
     x="3.3529999" />
  <rect
     style="fill-opacity:0.03900003"
     id="rect21"
     width="88.410004"
     height="88.760002"
     y="3.6000221"
     rx="12.552"
     x="3.9590001" />
  <rect
     style="fill-opacity:0.078"
     id="rect23"
     width="87.199997"
     height="87.550003"
     y="4.2100072"
     rx="12.38"
     x="4.5640001" />
  <rect
     style="fill-opacity:0.15700001"
     id="rect25"
     width="85.990997"
     height="86.330002"
     y="4.8199925"
     rx="12.208"
     x="5.1700001" />
  <g
     clip-path="url(#clipPath4637)"
     transform="matrix(1.238148,0,0,1.5122284,62.86495,-1464.237)"
     id="g29">
    <path
       d="m 24.076,1029.6 0,-61.521 -71.937,0 0,61.521 71.937,0 z"
       id="path31"
       style="fill:url(#radialGradient4612)"
       inkscape:connector-curvature="0" />
  </g>
  <path
     d="m 33.78704,73.83201 0,15.936153 47.26822,0 c 0.198783,0 0.390413,-0.03975 0.586263,-0.05963 0.0078,-0.164099 0.03664,-0.304345 0.03664,-0.472088 l 0,-9.030413 c 0,-3.514214 -3.848851,-6.374351 -6.030697,-6.374351 l -41.86029,0 z"
     id="path35"
     inkscape:connector-curvature="0"
     style="opacity:0.71399997;fill-opacity:0.20700001" />
  <rect
     x="37.4711"
     rx="2.0730751"
     y="76.592705"
     height="6.8157396"
     width="6.7836499"
     id="rect59"
     style="opacity:0.71399997;fill:navy;fill-opacity:0.59200003" />
  <rect
     x="48.063301"
     rx="2.0730751"
     y="76.592705"
     height="6.8157396"
     width="6.7836499"
     id="rect61"
     style="opacity:0.71399997;fill:navy;fill-opacity:0.59200003" />
  <rect
     x="58.644951"
     rx="2.0730751"
     y="76.592705"
     height="6.8157396"
     width="6.7836499"
     id="rect63"
     style="opacity:0.71399997;fill:navy;fill-opacity:0.59200003" />
  <rect
     x="69.226601"
     rx="2.0730751"
     y="76.592705"
     height="6.8157396"
     width="6.7836499"
     id="rect65"
     style="opacity:0.71399997;fill:navy;fill-opacity:0.59200003" />
  <path
     style="fill-opacity:0.294"
     inkscape:connector-curvature="0"
     id="path67"
     d="m 5.7756,73.44 0,5.0663 c 0,6.668 5.3434,12.032 11.985,12.032 l 60.809,0 c 6.6418,0 11.985,-5.3645 11.985,-12.032 l 0,-5.0663 c 0,6.6681 -5.3434,12.032 -11.985,12.032 l -60.809,0 c -6.6418,0 -11.985,-5.3643 -11.985,-12.032 z" />
  <path
     style="fill-opacity:0.169"
     inkscape:connector-curvature="0"
     id="path69"
     d="m 5.7756,77.54 0,1.0133 c 0,6.668 5.3434,12.032 11.985,12.032 l 60.809,0 c 6.6418,0 11.985,-5.3645 11.985,-12.032 l 0,-1.0133 c 0,6.6681 -5.3434,12.032 -11.985,12.032 l -60.809,0 c -6.6418,0 -11.985,-5.3644 -11.985,-12.032 z" />
  <path
     d="m 14.87933,5.111421 c -5.560694,0 -10.039802,4.833742 -10.039802,10.834729 l 0,63.031235 c 0,6.000877 4.479108,10.834729 10.039802,10.834729 l 18.906655,0 0,-84.7009139 -18.906655,0 z"
     id="path33"
     inkscape:connector-curvature="0"
     style="opacity:1;fill-opacity:1;fill:#1a1a1a" />
  <path
     d="m 33.78704,5.354367 0,6.010484 56.354935,0 C 88.819005,8.3148849 86.249869,6.0448858 83.106707,5.354367 l -49.320195,0 z M 9.896565,6.5406061 C 9.683666,6.6721171 9.4761686,6.827978 9.2736508,6.9755788 9.4809583,6.8246651 9.6785492,6.6748227 9.896565,6.5406061 Z"
     id="path37"
     inkscape:connector-curvature="0"
     style="opacity:1;fill-opacity:1;fill:#1a1a1a" />
  <rect
     x="8.7845955"
     rx="0"
     y="10.378922"
     height="5.8527904"
     width="20.95863"
     id="rect39"
     style="opacity:1;fill-opacity:1;fill:#292929" />
  <rect
     x="8.7845955"
     rx="0"
     y="17.965456"
     height="5.8527904"
     width="20.95863"
     id="rect41"
     style="opacity:1;fill-opacity:1;fill:#292929" />
  <rect
     x="8.7845955"
     rx="0"
     y="25.563046"
     height="5.8527904"
     width="20.95863"
     id="rect43"
     style="opacity:1;fill-opacity:1;fill:#292929" />
  <rect
     x="8.7845955"
     rx="0"
     y="33.160637"
     height="5.8527904"
     width="20.95863"
     id="rect45"
     style="opacity:1;fill-opacity:1;fill:#292929" />
  <rect
     x="8.7845955"
     rx="0"
     y="40.703022"
     height="5.8527904"
     width="20.95863"
     id="rect47"
     style="opacity:1;fill-opacity:1;fill:#292929" />
  <rect
     x="8.7845955"
     rx="0"
     y="48.322655"
     height="5.8527904"
     width="20.95863"
     id="rect49"
     style="opacity:1;fill-opacity:1;fill:#292929" />
  <rect
     x="8.7845955"
     rx="0"
     y="55.942348"
     height="5.8527904"
     width="20.95863"
     id="rect51"
     style="opacity:1;fill-opacity:1;fill:#292929" />
  <rect
     x="8.7845955"
     rx="0"
     y="63.562046"
     height="5.8527904"
     width="20.95863"
     id="rect53"
     style="opacity:1;fill-opacity:1;fill:#292929" />
  <rect
     x="8.7845955"
     rx="0"
     y="71.071205"
     height="5.8527904"
     width="20.95863"
     id="rect55"
     style="opacity:1;fill-opacity:1;fill:#292929" />
  <rect
     x="8.7845955"
     rx="0"
     y="78.690903"
     height="5.8527904"
     width="20.95863"
     id="rect57"
     style="opacity:1;fill-opacity:1;fill:#292929" />
</svg>
