<svg height="96" width="96" xmlns="http://www.w3.org/2000/svg" xmlns:xlink="http://www.w3.org/1999/xlink" xmlns:sodipodi="http://sodipodi.sourceforge.net/DTD/sodipodi-0.dtd" xmlns:inkscape="http://www.inkscape.org/namespaces/inkscape">
 <defs>
  <clipPath id="clipPath3613-55">
   <rect x="6" rx="6" y="6" height="84" width="84"/>
  </clipPath>
  <filter x="-0.192" y="-0.192" height="1.384" color-interpolation-filters="sRGB" id="filter3794-41" width="1.384">
   <feGaussianBlur stdDeviation="5.28"/>
  </filter>
  <linearGradient x2="0" y1="90" y2="5.988" gradientUnits="userSpaceOnUse" id="linearGradient3182" gradientTransform="matrix(1.125 0 0 1.0417 -7.75 -3.25)">
   <stop stop-color="#8c8c8c"/>
   <stop stop-color="#dcdcdc" offset="1"/>
  </linearGradient>
  <linearGradient x2="0" y1="20.221" y2="138.66" gradientUnits="userSpaceOnUse" id="linearGradient90466">
   <stop stop-color="#fff"/>
   <stop stop-color="#fff" stop-opacity="0" offset="1"/>
  </linearGradient>
  <filter color-interpolation-filters="sRGB" id="filter3276">
   <feGaussianBlur stdDeviation="0.56242"/>
  </filter>
  <linearGradient x1="87.23" x2="69.921" xlink:href="#linearGradient4360" gradientUnits="userSpaceOnUse" id="linearGradient3659"/>
  <linearGradient id="linearGradient4360">
   <stop stop-color="#6e6e6e"/>
   <stop stop-color="#8c8c8c" offset="1"/>
  </linearGradient>
  <linearGradient x1="82.86" x2="86.75" xlink:href="#linearGradient4368" y1="87.43" y2="97.97" gradientUnits="userSpaceOnUse" id="linearGradient3661"/>
  <linearGradient id="linearGradient4368">
   <stop stop-color="#828282"/>
   <stop stop-color="#5a5a5a" offset="1"/>
  </linearGradient>
  <linearGradient x1="52.11" x2="61.13" xlink:href="#linearGradient4368" y1="76.54" y2="68.3" gradientUnits="userSpaceOnUse" id="linearGradient3663"/>
  <linearGradient x1="66.74" x2="75.28" xlink:href="#linearGradient4360" y1="63.59" y2="80.82" gradientUnits="userSpaceOnUse" id="linearGradient3665"/>
  <linearGradient x1="43.24" x2="48.19" xlink:href="#linearGradient4360" y1="104.22" y2="93.47" gradientUnits="userSpaceOnUse" id="linearGradient3667"/>
  <linearGradient x1="60.41" x2="46.921" xlink:href="#linearGradient4368" y1="106.16" y2="110.66" gradientUnits="userSpaceOnUse" id="linearGradient3669"/>
  <linearGradient x1="47.23" x2="46.27" xlink:href="#linearGradient4368" y1="8.07" y2="36.952" gradientUnits="userSpaceOnUse" id="linearGradient4282" inkscape:collect="always"/>
 </defs>
 <rect x="3.608" rx="12.552" y="3.6" fill-opacity="0.039" height="88.76" width="88.76"/>
 <rect x="4.216" rx="12.38" y="4.21" fill-opacity="0.078" height="87.55" width="87.55"/>
 <rect x="4.824" rx="12.208" y="4.82" fill-opacity="0.157" height="86.33" width="86.33"/>
 <path d="m 17.469,5.4062 c -6.668,0 -12.032,5.3948 -12.032,12.063 l 5e-4,61.031 c 0,5.418 3.5332,9.982 8.4375,11.5 l 68.187,0 c 4.715,-1.457 8.172,-5.734 8.438,-10.875 l 0,-62.281 c -0.321,-6.377 -5.54,-11.438 -12,-11.438 l -61.031,2e-4 z" fill="url(#linearGradient3182)" opacity="0.9" inkscape:connector-curvature="0"/>
 <path d="m 5.4316,73.44 0,5.0663 c 0,6.668 5.3645,12.032 12.032,12.032 l 61.049,0 c 6.668,0 12.032,-5.3645 12.032,-12.032 l 0,-5.0663 c 0,6.6681 -5.3645,12.032 -12.032,12.032 l -61.049,0 c -6.668,0 -12.032,-5.3643 -12.032,-12.032 z" fill-opacity="0.235" inkscape:connector-curvature="0"/>
 <path d="m 5.4316,77.54 0,1.0133 c 0,6.668 5.3645,12.032 12.032,12.032 l 61.049,0 c 6.668,0 12.032,-5.3645 12.032,-12.032 l 0,-1.0133 c 0,6.6681 -5.3645,12.032 -12.032,12.032 l -61.049,0 c -6.668,0 -12.032,-5.3644 -12.032,-12.032 z" fill-opacity="0.098" inkscape:connector-curvature="0"/>
 <rect x="15" stroke-width="0.5" rx="12" y="15" clip-path="url(#clipPath3613-55)" fill="url(#linearGradient90466)" stroke="#ffffff" height="66" filter="url(#filter3794-41)" opacity="0.3" width="66" stroke-linecap="round" transform="matrix(1 0 0 1 -0.5 -2.5)"/>
 <g transform="matrix(1 0 0 1 0 -2.478)">
  <path d="m 75.778,90.69 6.3317,-11.357 0.0301,4.1536 13.326,-0.03009 c 2.3811,-0.25234 4.4687,-1.2201 5.9805,-3.0399 -4.825,9.8683 -6.2147,16.851 -16.226,16.855 l -3.0806,0 -0.0301,4.6151 -6.3317,-11.197 z m 14.5,-8.9587 -5.8802,-10.835 11.881,-7.1935 5.7497,11.518 c 0.17409,2.7563 -4.2769,6.592 -7.0396,6.5622 l -4.7107,-0.05088 z m -36.131,-24.001 6.07,-9.096 c 5.8874,-2.1923 9.2977,2.5406 11.45,5.524 l -5.719,10.976 -11.801,-7.404 z m 23.982,4.5275 c -1.221,-2.878 -2.852,-6.17 -4.892,-9.032 -1.826,-2.563 -4.033,-4.798 -5.704,-5.797 l 15.353,-0.03009 c 2.7572,0.24748 4.0968,1.8546 5.5591,4.0532 l 2.2076,3.8827 3.4117,-2.1771 -6.422,11.437 -13.848,0.03009 4.3349,-2.3677 z m -21.244,4.2464 7.3428,10.731 -3.7316,-1.8255 -5.9163,11.938 c -0.83607,2.2434 -0.90083,4.5431 0.05403,6.7077 -6.682,-8.719 -12.313,-13.077 -7.852,-22.038 l 1.3739,-2.7568 -4.1179,-2.0852 12.847,-0.67259 z m 1.6825,16.973 13.538,-0.42958 -0.07542,13.84 -12.875,0.0086 c -2.5451,-1.0735 -3.9936,-6.7673 -2.7347,-9.2263 l 2.1465,-4.1929 z" filter="url(#filter3276)" opacity="0.8" inkscape:connector-curvature="0" transform="matrix(0.62074 0 0 0.62074 2.664 22.255)"/>
  <path d="m 75.778,92.69 6.3317,-11.357 0.0301,4.1536 13.326,-0.03009 c 2.3811,-0.25235 4.4687,-1.2201 5.9805,-3.0399 -4.825,9.8683 -6.2147,16.851 -16.226,16.855 l -3.0806,0 -0.0301,4.6151 -6.3317,-11.197 z m 14.5,-8.9587 -5.8802,-10.835 11.881,-7.1935 5.7497,11.518 c 0.17409,2.7563 -4.2769,6.592 -7.0396,6.5622 l -4.7107,-0.05088 z m -36.131,-24.001 6.07,-9.096 c 5.8874,-2.1923 9.2977,2.5406 11.45,5.524 l -5.719,10.976 -11.801,-7.404 z m 23.982,4.5275 c -1.221,-2.878 -2.852,-6.17 -4.892,-9.032 -1.826,-2.563 -4.033,-4.798 -5.704,-5.797 l 15.353,-0.03009 c 2.7572,0.24748 4.0968,1.8546 5.5591,4.0532 l 2.2076,3.8827 3.4117,-2.1771 -6.422,11.437 -13.848,0.03009 4.3349,-2.3677 z m -21.244,4.2464 7.3428,10.731 -3.7316,-1.8255 -5.9163,11.938 c -0.83607,2.2434 -0.90083,4.5431 0.05403,6.7077 -6.682,-8.719 -12.313,-13.077 -7.852,-22.038 l 1.3739,-2.7568 -4.1179,-2.0852 12.847,-0.67259 z m 1.6825,16.973 13.538,-0.42959 -0.07542,13.84 -12.875,0.0086 c -2.5451,-1.0735 -3.9936,-6.7673 -2.7347,-9.2263 l 2.1465,-4.1929 z" fill="#ffffff" filter="url(#filter3276)" opacity="0.8" inkscape:connector-curvature="0" transform="matrix(0.62074 0 0 0.62074 2.664 22.01)"/>
  <g transform="matrix(0.62074 0 0 0.62074 8.274 12.705)">
   <path d="m 66.74,106.88 6.3317,-11.357 0.0301,4.1536 13.326,-0.03009 c 2.3811,-0.25234 4.4687,-1.2201 5.9805,-3.0399 -4.825,9.8683 -6.2147,16.851 -16.226,16.855 l -3.0806,0 -0.0301,4.6151 -6.3317,-11.197 z" fill="url(#linearGradient3659)" inkscape:connector-curvature="0"/>
   <path d="M 81.24,97.921 75.36,87.086 87.241,79.893 92.99,91.41 c 0.17409,2.7563 -4.2769,6.592 -7.0396,6.5622 l -4.7107,-0.05088 z" fill="url(#linearGradient3661)" inkscape:connector-curvature="0"/>
   <path d="m 45.109,73.92 6.07,-9.0957 c 5.8874,-2.1923 9.2977,2.5406 11.45,5.524 l -5.719,10.976 -11.801,-7.404 z" fill="url(#linearGradient3663)" inkscape:connector-curvature="0"/>
   <path d="M 69.091,78.447 C 67.87,75.569 66.239,72.278 64.199,69.416 62.373,66.853 60.166,64.618 58.495,63.619 l 15.353,-0.03009 c 2.7572,0.24748 4.0968,1.8546 5.5591,4.0532 l 2.2076,3.8827 3.4117,-2.1771 -6.422,11.437 -13.848,0.03009 4.3349,-2.3677 z" fill="url(#linearGradient3665)" inkscape:connector-curvature="0"/>
   <path d="m 47.847,82.694 7.3428,10.731 -3.7316,-1.8255 -5.9163,11.938 c -0.83607,2.2434 -0.90083,4.5431 0.05403,6.7077 -6.682,-8.719 -12.313,-13.077 -7.8518,-22.037 l 1.3739,-2.7568 -4.1179,-2.0852 12.847,-0.67259 z" fill="url(#linearGradient3667)" inkscape:connector-curvature="0"/>
   <path d="m 49.529,99.667 13.538,-0.42958 -0.07542,13.84 -12.875,0.009 c -2.5451,-1.0735 -3.9936,-6.7673 -2.7347,-9.2263 l 2.1465,-4.1929 z" fill="url(#linearGradient3669)" inkscape:connector-curvature="0"/>
  </g>
 </g>
 <path d="m 19.227256,7.0737928 c -6.269836,0 -11.2508308,5.0097172 -11.2505864,11.2797392 l 4.702e-4,12.06472 c 1.985e-4,5.094479 1.2592719,7.323 5.8707222,8.750356 l 68.241276,0 c 4.433453,-1.369999 5.621077,-3.328658 5.871192,-8.162675 l 0,-13.240079 C 87.658499,11.769639 82.814088,7.0737728 76.739833,7.0737928 l -57.512577,1.898e-4 z" fill="url(#linearGradient4282)" fill-opacity="1" opacity="0.9" sodipodi:nodetypes="cssccccscc" inkscape:connector-curvature="0"/>
 <path d="m 5.5332031,34.417969 0,2 c 2.106e-4,5.094479 1.3351435,6.305695 6.2285159,7.733051 l 72.414062,0 c 4.704493,-1.369999 5.96311,-2.311144 6.228516,-7.145161 l 0,-2 c -0.265406,4.834017 -1.524023,6.792111 -6.228516,8.16211 l -72.414062,0 c -4.8933724,-1.427356 -6.2283053,-3.655521 -6.2285159,-8.75 z" fill="#999999" opacity="0.9" sodipodi:nodetypes="ccccccccc" inkscape:connector-curvature="0"/>
</svg>
