<svg height="96" width="96" xmlns="http://www.w3.org/2000/svg" xmlns:sodipodi="http://sodipodi.sourceforge.net/DTD/sodipodi-0.dtd" xmlns:inkscape="http://www.inkscape.org/namespaces/inkscape">
 <defs>
  <clipPath clipPathUnits="userSpaceOnUse" id="clipPath4637">
   <rect x="-46.872" rx="7.163" y="971.67" height="56" width="69.68"/>
  </clipPath>
  <radialGradient cy="-15.871" r="35.938" gradientUnits="userSpaceOnUse" id="radialGradient4612" cx="56.07" gradientTransform="matrix(-0.00226 -1.0568 1.3856 0 10.224 1077.8)">
   <stop stop-color="#4490e6"/>
   <stop stop-color="#103d8f" offset="1"/>
  </radialGradient>
  <clipPath clipPathUnits="userSpaceOnUse" id="clipPath4614">
   <path d="m19.326 968.74c-6.2954 0-11.344 4.8851-11.344 10.923v55.267c0 6.0382 5.0491 10.895 11.344 10.895h57.641c6.2954 0 11.344-4.8567 11.344-10.895v-55.267c0-6.0381-5.0491-10.923-11.344-10.923h-57.641z"/>
  </clipPath>
 </defs>
 <g transform="matrix(1 0 0 1 0 -956.36)">
  <rect x="3.353" rx="12.724" y="959.35" fill-opacity="0.02" height="89.98" width="89.62"/>
  <rect x="3.959" rx="12.552" y="959.96" fill-opacity="0.039" height="88.76" width="88.41"/>
  <rect x="4.564" rx="12.38" y="960.57" fill-opacity="0.078" height="87.55" width="87.2"/>
  <rect x="5.17" rx="12.208" y="961.18" fill-opacity="0.157" height="86.33" width="85.991"/>
  <g clip-path="url(#clipPath4614)" transform="matrix(1.055 0 0 1.1043 -2.64 -108.01)">
   <g clip-path="url(#clipPath4637)" transform="matrix(1.1736 0 0 1.3694 62.09 -362.1)">
    <path d="m24.076 1029.6v-61.521h-71.937v61.521h71.937z" fill="url(#radialGradient4612)"/>
   </g>
   <path d="m16.606 968.47c-5.2708 0-9.5164 4.3772-9.5164 9.8114v57.078c0 5.4341 4.2456 9.8114 9.5164 9.8114h17.921v-76.701h-17.921z" fill-opacity="0.592" opacity="0.714"/>
   <path d="m34.528 1030.7v14.431h44.804c0.18842 0 0.37006-0.036 0.5557-0.054 0.0074-0.1486 0.03473-0.2756 0.03473-0.4275v-8.1775c0-3.1823-3.6482-5.7723-5.7163-5.7723h-39.678z" fill-opacity="0.207" opacity="0.714"/>
   <path d="m34.528 968.69v5.4428h53.417c-1.254-2.7619-3.6892-4.8175-6.6685-5.4428h-46.749zm-22.645 1.0742c-0.2018 0.11909-0.39848 0.26023-0.59044 0.39389 0.1965-0.13666 0.38379-0.27235 0.59044-0.39389z" fill-opacity="0.845" opacity="0.714"/>
   <rect x="10.829" rx="0" y="973.24" fill-opacity="0.23" height="5.3" opacity="0.714" width="19.866"/>
   <rect x="10.829" rx="0" y="980.11" fill-opacity="0.23" height="5.3" opacity="0.714" width="19.866"/>
   <rect x="10.829" rx="0" y="986.99" fill-opacity="0.23" height="5.3" opacity="0.714" width="19.866"/>
   <rect x="10.829" rx="0" y="993.87" fill-opacity="0.23" height="5.3" opacity="0.714" width="19.866"/>
   <rect x="10.829" rx="0" y="1000.7" fill-opacity="0.23" height="5.3" opacity="0.714" width="19.866"/>
   <rect x="10.829" rx="0" y="1007.6" fill-opacity="0.23" height="5.3" opacity="0.714" width="19.866"/>
   <rect x="10.829" rx="0" y="1014.5" fill-opacity="0.23" height="5.3" opacity="0.714" width="19.866"/>
   <rect x="10.829" rx="0" y="1021.4" fill-opacity="0.23" height="5.3" opacity="0.714" width="19.866"/>
   <rect x="10.829" rx="0" y="1028.2" fill-opacity="0.23" height="5.3" opacity="0.714" width="19.866"/>
   <rect x="10.829" rx="0" y="1035.1" fill-opacity="0.23" height="5.3" opacity="0.714" width="19.866"/>
   <rect x="38.02" rx="1.965" y="1033.2" fill="#000080" fill-opacity="0.592" height="6.172" opacity="0.714" width="6.43"/>
   <rect x="48.06" rx="1.965" y="1033.2" fill="#000080" fill-opacity="0.592" height="6.172" opacity="0.714" width="6.43"/>
   <rect x="58.09" rx="1.965" y="1033.2" fill="#000080" fill-opacity="0.592" height="6.172" opacity="0.714" width="6.43"/>
   <rect x="68.12" rx="1.965" y="1033.2" fill="#000080" fill-opacity="0.592" height="6.172" opacity="0.714" width="6.43"/>
  </g>
  <path d="m5.7756 1029.8v5.0663c0 6.668 5.3434 12.032 11.985 12.032h60.809c6.6418 0 11.985-5.3645 11.985-12.032v-5.0663c0 6.6681-5.3434 12.032-11.985 12.032h-60.809c-6.6418 0-11.985-5.3643-11.985-12.032z" fill-opacity="0.294"/>
  <path d="m5.7756 1033.9v1.0133c0 6.668 5.3434 12.032 11.985 12.032h60.809c6.6418 0 11.985-5.3645 11.985-12.032v-1.0133c0 6.6681-5.3434 12.032-11.985 12.032h-60.809c-6.6418 0-11.985-5.3644-11.985-12.032z" fill-opacity="0.169"/>
 </g>
</svg>
