<?xml version="1.0" encoding="UTF-8"?>
<svg xmlns="http://www.w3.org/2000/svg" xmlns:xlink="http://www.w3.org/1999/xlink" width="76pt" height="76pt" viewBox="0 0 76 76" version="1.1">
<defs>
<linearGradient id="linear0" gradientUnits="userSpaceOnUse" x1="0" y1="6.132" x2="0" y2="90.24" gradientTransform="matrix(0.810516,0,0,-0.801087,-0.904875,77.63875)">
<stop offset="0" style="stop-color:rgb(0%,0%,0%);stop-opacity:0.0784314;"/>
<stop offset="1" style="stop-color:rgb(0%,0%,0%);stop-opacity:0.0461361;"/>
</linearGradient>
<linearGradient id="linear1" gradientUnits="userSpaceOnUse" x1="0" y1="6.132" x2="0" y2="90.24" gradientTransform="matrix(0.810516,0,0,-0.801087,-0.904875,77.63875)">
<stop offset="0" style="stop-color:rgb(0%,0%,0%);stop-opacity:0.101961;"/>
<stop offset="1" style="stop-color:rgb(0%,0%,0%);stop-opacity:0.0599769;"/>
</linearGradient>
<linearGradient id="linear2" gradientUnits="userSpaceOnUse" x1="0" y1="6.132" x2="0" y2="90.24" gradientTransform="matrix(0.810516,0,0,-0.801087,-0.904875,77.63875)">
<stop offset="0" style="stop-color:rgb(0%,0%,0%);stop-opacity:0.2;"/>
<stop offset="1" style="stop-color:rgb(0%,0%,0%);stop-opacity:0.117647;"/>
</linearGradient>
<linearGradient id="linear3" gradientUnits="userSpaceOnUse" x1="0" y1="6.132" x2="0" y2="90.24" gradientTransform="matrix(0.810516,0,0,-0.801087,-0.904875,77.63875)">
<stop offset="0" style="stop-color:rgb(0%,0%,0%);stop-opacity:0.298039;"/>
<stop offset="1" style="stop-color:rgb(0%,0%,0%);stop-opacity:0.175317;"/>
</linearGradient>
<linearGradient id="linear4" gradientUnits="userSpaceOnUse" x1="0" y1="6.132" x2="0" y2="90.24" gradientTransform="matrix(0.791667,0,0,-0.791667,0,76.791667)">
<stop offset="0" style="stop-color:rgb(0%,0%,0%);stop-opacity:0.45098;"/>
<stop offset="1" style="stop-color:rgb(0%,0%,0%);stop-opacity:0.265283;"/>
</linearGradient>
<linearGradient id="linear5" gradientUnits="userSpaceOnUse" x1="0" y1="90" x2="0" y2="5.988" gradientTransform="matrix(0.791667,0,0,0.791667,0,0)">
<stop offset="0" style="stop-color:rgb(66.27451%,4.705882%,4.705882%);stop-opacity:1;"/>
<stop offset="1" style="stop-color:rgb(94.117647%,33.333333%,18.823529%);stop-opacity:1;"/>
</linearGradient>
<linearGradient id="linear6" gradientUnits="userSpaceOnUse" x1="0" y1="6" x2="0" y2="63.893" gradientTransform="matrix(0.791667,0,0,0.791667,0,0)">
<stop offset="0" style="stop-color:rgb(100%,100%,100%);stop-opacity:0.4;"/>
<stop offset="1" style="stop-color:rgb(100%,100%,100%);stop-opacity:0;"/>
</linearGradient>
<radialGradient id="radial0" gradientUnits="userSpaceOnUse" cx="48" cy="90.17" fx="48" fy="90.17" r="42" gradientTransform="matrix(0.916204,0,0,0.788429,-5.977875,0.155958)">
<stop offset="0" style="stop-color:rgb(100%,100%,100%);stop-opacity:0.2;"/>
<stop offset="1" style="stop-color:rgb(100%,100%,100%);stop-opacity:0;"/>
</radialGradient>
<linearGradient id="linear7" gradientUnits="userSpaceOnUse" x1="0" y1="16.385" x2="0" y2="1.092" gradientTransform="matrix(-3.567084,0,0,3.075063,64.227917,11.130833)">
<stop offset="0" style="stop-color:rgb(86.27451%,86.27451%,86.27451%);stop-opacity:1;"/>
<stop offset="0.307" style="stop-color:rgb(92.156863%,92.156863%,92.156863%);stop-opacity:1;"/>
<stop offset="0.707" style="stop-color:rgb(100%,100%,100%);stop-opacity:1;"/>
<stop offset="0.845" style="stop-color:rgb(98.039216%,98.039216%,98.039216%);stop-opacity:1;"/>
<stop offset="1" style="stop-color:rgb(94.117647%,94.117647%,94.117647%);stop-opacity:1;"/>
</linearGradient>
</defs>
<g id="surface1">
<path style=" stroke:none;fill-rule:nonzero;fill:url(#linear0);" d="M 9.5 75.234375 C 5.136719 75.234375 1.558594 71.65625 1.558594 67.292969 L 1.558594 11.082031 C 1.558594 6.71875 5.136719 3.140625 9.5 3.140625 L 66.5 3.140625 C 70.863281 3.140625 74.441406 6.71875 74.441406 11.082031 L 74.441406 67.292969 C 74.441406 71.65625 70.863281 75.234375 66.5 75.234375 Z M 9.5 75.234375 "/>
<path style=" stroke:none;fill-rule:nonzero;fill:url(#linear1);" d="M 9.5 74.441406 C 5.5625 74.441406 2.351562 71.226562 2.351562 67.292969 L 2.351562 11.082031 C 2.351562 7.148438 5.5625 3.933594 9.5 3.933594 L 66.5 3.933594 C 70.4375 3.933594 73.648438 7.148438 73.648438 11.082031 L 73.648438 67.292969 C 73.648438 71.226562 70.4375 74.441406 66.5 74.441406 Z M 9.5 74.441406 "/>
<path style=" stroke:none;fill-rule:nonzero;fill:url(#linear2);" d="M 9.5 73.625 C 6.007812 73.625 3.167969 70.78125 3.167969 67.292969 L 3.167969 11.082031 C 3.167969 7.59375 6.007812 4.75 9.5 4.75 L 66.5 4.75 C 69.992188 4.75 72.832031 7.59375 72.832031 11.082031 L 72.832031 67.292969 C 72.832031 70.78125 69.992188 73.625 66.5 73.625 Z M 9.5 73.625 "/>
<path style=" stroke:none;fill-rule:nonzero;fill:url(#linear3);" d="M 9.5 72.832031 L 66.5 72.832031 C 69.5625 72.832031 72.042969 70.351562 72.042969 67.292969 L 72.042969 11.082031 C 72.042969 8.023438 69.5625 5.542969 66.5 5.542969 L 9.5 5.542969 C 6.4375 5.542969 3.957031 8.023438 3.957031 11.082031 L 3.957031 67.292969 C 3.957031 70.351562 6.4375 72.832031 9.5 72.832031 Z M 9.5 72.832031 "/>
<path style=" stroke:none;fill-rule:nonzero;fill:url(#linear4);" d="M 9.5 72.042969 L 66.5 72.042969 C 69.125 72.042969 71.25 69.914062 71.25 67.292969 L 71.25 10.292969 C 71.25 7.667969 69.125 5.542969 66.5 5.542969 L 9.5 5.542969 C 6.875 5.542969 4.75 7.667969 4.75 10.292969 L 4.75 67.292969 C 4.75 69.914062 6.875 72.042969 9.5 72.042969 Z M 9.5 72.042969 "/>
<path style=" stroke:none;fill-rule:nonzero;fill:url(#linear5);" d="M 9.5 4.75 L 66.5 4.75 C 69.125 4.75 71.25 6.875 71.25 9.5 L 71.25 66.5 C 71.25 69.125 69.125 71.25 66.5 71.25 L 9.5 71.25 C 6.875 71.25 4.75 69.125 4.75 66.5 L 4.75 9.5 C 4.75 6.875 6.875 4.75 9.5 4.75 Z M 9.5 4.75 "/>
<path style=" stroke:none;fill-rule:nonzero;fill:url(#linear6);" d="M 9.5 4.75 C 6.867188 4.75 4.75 6.867188 4.75 9.5 L 4.75 66.5 C 4.75 66.765625 4.78125 67.015625 4.824219 67.265625 C 4.863281 67.5 4.902344 67.738281 4.972656 67.960938 C 4.980469 67.984375 4.988281 68.011719 4.996094 68.035156 C 5.074219 68.261719 5.183594 68.46875 5.292969 68.675781 C 5.410156 68.894531 5.542969 69.101562 5.691406 69.296875 C 5.835938 69.488281 5.984375 69.671875 6.160156 69.839844 C 6.507812 70.179688 6.90625 70.484375 7.347656 70.707031 C 7.566406 70.816406 7.800781 70.902344 8.039062 70.976562 C 7.835938 70.898438 7.65625 70.789062 7.472656 70.679688 C 7.464844 70.675781 7.453125 70.683594 7.445312 70.679688 C 7.421875 70.664062 7.398438 70.648438 7.371094 70.632812 C 7.277344 70.570312 7.191406 70.503906 7.101562 70.433594 C 7.015625 70.371094 6.929688 70.304688 6.851562 70.234375 C 6.710938 70.109375 6.578125 69.960938 6.457031 69.816406 C 6.371094 69.710938 6.285156 69.605469 6.210938 69.492188 C 6.191406 69.464844 6.179688 69.425781 6.160156 69.394531 C 6.109375 69.3125 6.058594 69.234375 6.011719 69.148438 C 5.933594 68.992188 5.847656 68.816406 5.789062 68.652344 C 5.78125 68.636719 5.769531 68.621094 5.765625 68.601562 C 5.738281 68.53125 5.734375 68.453125 5.714844 68.378906 C 5.691406 68.296875 5.660156 68.21875 5.640625 68.132812 C 5.582031 67.863281 5.542969 67.578125 5.542969 67.292969 L 5.542969 10.292969 C 5.542969 8.089844 7.296875 6.332031 9.5 6.332031 L 66.5 6.332031 C 68.703125 6.332031 70.457031 8.089844 70.457031 10.292969 L 70.457031 67.292969 C 70.457031 67.578125 70.417969 67.863281 70.359375 68.132812 C 70.324219 68.296875 70.289062 68.449219 70.234375 68.601562 C 70.230469 68.621094 70.21875 68.636719 70.210938 68.652344 C 70.160156 68.789062 70.101562 68.941406 70.039062 69.074219 C 70.003906 69.136719 69.976562 69.207031 69.9375 69.269531 C 69.894531 69.347656 69.839844 69.421875 69.789062 69.492188 C 69.714844 69.605469 69.628906 69.710938 69.542969 69.816406 C 69.429688 69.953125 69.304688 70.089844 69.171875 70.210938 C 69.164062 70.21875 69.15625 70.226562 69.148438 70.234375 C 69.039062 70.335938 68.921875 70.421875 68.800781 70.507812 C 68.71875 70.566406 68.640625 70.628906 68.554688 70.679688 C 68.546875 70.683594 68.535156 70.675781 68.527344 70.679688 C 68.34375 70.789062 68.164062 70.898438 67.960938 70.976562 C 68.199219 70.902344 68.433594 70.816406 68.652344 70.707031 C 69.09375 70.484375 69.492188 70.179688 69.839844 69.839844 C 70.015625 69.671875 70.164062 69.488281 70.308594 69.296875 C 70.457031 69.101562 70.589844 68.894531 70.707031 68.675781 C 70.816406 68.46875 70.925781 68.261719 71.003906 68.035156 C 71.011719 68.007812 71.019531 67.984375 71.027344 67.960938 C 71.097656 67.738281 71.136719 67.5 71.175781 67.265625 C 71.21875 67.015625 71.25 66.765625 71.25 66.5 L 71.25 9.5 C 71.25 6.867188 69.132812 4.75 66.5 4.75 Z M 9.5 4.75 "/>
<path style=" stroke:none;fill-rule:nonzero;fill:url(#radial0);" d="M 9.5 71.25 C 6.867188 71.25 4.75 69.132812 4.75 66.5 L 4.75 9.5 C 4.75 9.234375 4.78125 8.984375 4.824219 8.734375 C 4.863281 8.5 4.902344 8.261719 4.972656 8.039062 C 4.980469 8.015625 4.988281 7.988281 4.996094 7.964844 C 5.074219 7.738281 5.183594 7.53125 5.292969 7.324219 C 5.410156 7.105469 5.542969 6.898438 5.691406 6.703125 C 5.835938 6.511719 5.984375 6.328125 6.160156 6.160156 C 6.507812 5.820312 6.90625 5.515625 7.347656 5.292969 C 7.566406 5.183594 7.800781 5.097656 8.039062 5.023438 C 7.835938 5.101562 7.65625 5.210938 7.472656 5.320312 C 7.464844 5.324219 7.453125 5.316406 7.445312 5.320312 C 7.421875 5.335938 7.398438 5.351562 7.371094 5.367188 C 7.277344 5.429688 7.191406 5.496094 7.101562 5.566406 C 7.015625 5.628906 6.929688 5.695312 6.851562 5.765625 C 6.710938 5.890625 6.578125 6.039062 6.457031 6.183594 C 6.371094 6.289062 6.285156 6.394531 6.210938 6.507812 C 6.191406 6.535156 6.179688 6.574219 6.160156 6.605469 C 6.109375 6.6875 6.058594 6.765625 6.011719 6.851562 C 5.933594 7.007812 5.847656 7.183594 5.789062 7.347656 C 5.78125 7.363281 5.769531 7.378906 5.765625 7.398438 C 5.738281 7.46875 5.734375 7.546875 5.714844 7.621094 C 5.691406 7.703125 5.660156 7.78125 5.640625 7.867188 C 5.582031 8.136719 5.542969 8.421875 5.542969 8.707031 L 5.542969 65.707031 C 5.542969 67.910156 7.296875 69.667969 9.5 69.667969 L 66.5 69.667969 C 68.703125 69.667969 70.457031 67.910156 70.457031 65.707031 L 70.457031 8.707031 C 70.457031 8.421875 70.417969 8.136719 70.359375 7.867188 C 70.324219 7.703125 70.289062 7.550781 70.234375 7.398438 C 70.230469 7.378906 70.21875 7.363281 70.210938 7.347656 C 70.160156 7.210938 70.101562 7.058594 70.039062 6.925781 C 70.003906 6.863281 69.976562 6.792969 69.9375 6.730469 C 69.894531 6.652344 69.839844 6.578125 69.789062 6.507812 C 69.714844 6.394531 69.628906 6.289062 69.542969 6.183594 C 69.429688 6.046875 69.304688 5.910156 69.171875 5.789062 C 69.164062 5.78125 69.15625 5.773438 69.148438 5.765625 C 69.039062 5.664062 68.921875 5.578125 68.800781 5.492188 C 68.71875 5.433594 68.640625 5.371094 68.554688 5.320312 C 68.546875 5.316406 68.535156 5.324219 68.527344 5.320312 C 68.34375 5.210938 68.164062 5.101562 67.960938 5.023438 C 68.199219 5.097656 68.433594 5.183594 68.652344 5.292969 C 69.09375 5.515625 69.492188 5.820312 69.839844 6.160156 C 70.015625 6.328125 70.164062 6.511719 70.308594 6.703125 C 70.457031 6.898438 70.589844 7.105469 70.707031 7.324219 C 70.816406 7.53125 70.925781 7.738281 71.003906 7.964844 C 71.011719 7.992188 71.019531 8.015625 71.027344 8.039062 C 71.097656 8.261719 71.136719 8.5 71.175781 8.734375 C 71.21875 8.984375 71.25 9.234375 71.25 9.5 L 71.25 66.5 C 71.25 69.132812 69.132812 71.25 66.5 71.25 Z M 9.5 71.25 "/>
<path style=" stroke:none;fill-rule:nonzero;fill:rgb(33.333333%,0%,0%);fill-opacity:0.0784314;" d="M 33.621094 13.707031 C 32.007812 14.003906 32.160156 15.988281 31.660156 17.195312 C 30.777344 20.304688 29.898438 23.414062 29.019531 26.519531 C 24.136719 25.75 19.257812 24.8125 14.375 24.144531 C 12.886719 24.164062 12.398438 26.300781 13.597656 27.078125 C 16.4375 29.910156 19.277344 32.742188 22.117188 35.574219 C 18.398438 37.109375 14.609375 38.511719 10.933594 40.128906 C 9.605469 40.953125 10.433594 43.144531 11.949219 43.046875 C 15.527344 43.640625 19.105469 44.234375 22.6875 44.828125 C 19.480469 48.722656 16.132812 52.527344 13.011719 56.480469 C 12.410156 57.808594 13.992188 59.167969 15.253906 58.527344 C 19.808594 57.234375 24.367188 55.941406 28.921875 54.648438 C 29.773438 57.46875 30.476562 60.355469 31.417969 63.136719 C 32.082031 64.246094 33.714844 64.003906 34.339844 62.984375 C 36.515625 60.808594 38.695312 58.632812 40.871094 56.457031 C 44.976562 58.890625 49.074219 61.441406 53.191406 63.804688 C 54.515625 64.304688 55.734375 62.726562 55.125 61.507812 C 54.25 57.382812 53.375 53.257812 52.496094 49.132812 C 56.527344 48.789062 60.578125 48.566406 64.59375 48.144531 C 66.039062 47.734375 66.003906 45.617188 64.675781 45.085938 C 61.648438 42.921875 58.617188 40.757812 55.589844 38.59375 C 57.71875 37.257812 60.042969 36.019531 62.046875 34.636719 C 63.089844 33.582031 62.023438 31.761719 60.613281 31.9375 C 58.738281 31.722656 56.867188 31.507812 54.996094 31.296875 C 57.65625 26.996094 60.410156 22.730469 63.011719 18.40625 C 63.535156 17.003906 61.75 15.714844 60.5625 16.578125 C 54.527344 19.339844 48.488281 22.101562 42.453125 24.863281 C 39.9375 21.296875 37.496094 17.640625 34.933594 14.125 C 34.601562 13.769531 34.089844 13.667969 33.621094 13.707031 Z M 36.417969 32.457031 C 37.472656 32.457031 38.527344 32.457031 39.582031 32.457031 C 39.582031 35.097656 39.582031 37.734375 39.582031 40.375 C 38.527344 40.375 37.472656 40.375 36.417969 40.375 C 36.417969 37.734375 36.417969 35.097656 36.417969 32.457031 Z M 36.417969 45.125 C 37.472656 45.125 38.527344 45.125 39.582031 45.125 C 39.582031 46.179688 39.582031 47.234375 39.582031 48.292969 C 38.527344 48.292969 37.472656 48.292969 36.417969 48.292969 C 36.417969 47.234375 36.417969 46.179688 36.417969 45.125 Z M 36.417969 45.125 "/>
<path style=" stroke:none;fill-rule:nonzero;fill:rgb(33.333333%,0%,0%);fill-opacity:0.14902;" d="M 33.746094 14.523438 C 33.433594 14.5625 33.179688 14.789062 33.101562 15.089844 L 29.613281 27.460938 L 14.621094 24.960938 C 14.289062 24.90625 13.960938 25.074219 13.804688 25.371094 C 13.652344 25.671875 13.714844 26.039062 13.953125 26.273438 L 23.550781 35.871094 L 11.578125 40.695312 C 11.25 40.824219 11.046875 41.15625 11.089844 41.507812 C 11.128906 41.855469 11.402344 42.132812 11.75 42.179688 L 24.21875 44.234375 L 13.902344 56.578125 C 13.679688 56.839844 13.65625 57.21875 13.847656 57.503906 C 14.035156 57.792969 14.390625 57.917969 14.71875 57.816406 L 29.488281 53.636719 L 32.039062 62.515625 C 32.117188 62.777344 32.324219 62.976562 32.589844 63.042969 C 32.851562 63.109375 33.132812 63.03125 33.324219 62.839844 L 40.746094 55.441406 L 53.289062 62.960938 C 53.554688 63.117188 53.886719 63.097656 54.132812 62.914062 C 54.382812 62.730469 54.496094 62.421875 54.425781 62.121094 L 51.507812 48.390625 L 64.175781 47.402344 C 64.492188 47.375 64.761719 47.152344 64.847656 46.84375 C 64.9375 46.539062 64.824219 46.207031 64.570312 46.015625 L 54.105469 38.542969 L 61.253906 34.238281 C 61.542969 34.074219 61.691406 33.742188 61.625 33.414062 C 61.558594 33.089844 61.289062 32.84375 60.957031 32.804688 L 53.609375 31.964844 L 62.144531 18.308594 C 62.324219 18.019531 62.292969 17.652344 62.074219 17.394531 C 61.851562 17.140625 61.492188 17.058594 61.179688 17.195312 L 42.179688 25.902344 L 34.488281 14.84375 C 34.320312 14.605469 34.03125 14.480469 33.746094 14.523438 Z M 35.625 31.640625 L 40.375 31.640625 C 40.398438 31.640625 40.398438 31.640625 40.398438 31.667969 L 40.398438 41.167969 C 40.398438 41.191406 40.398438 41.191406 40.375 41.191406 L 35.625 41.191406 C 35.601562 41.191406 35.601562 41.191406 35.601562 41.167969 L 35.601562 31.667969 C 35.601562 31.640625 35.601562 31.640625 35.625 31.640625 Z M 35.625 44.308594 L 40.375 44.308594 C 40.398438 44.308594 40.398438 44.308594 40.398438 44.332031 L 40.398438 49.082031 C 40.398438 49.109375 40.398438 49.109375 40.375 49.109375 L 35.625 49.109375 C 35.601562 49.109375 35.601562 49.109375 35.601562 49.082031 L 35.601562 44.332031 C 35.601562 44.308594 35.601562 44.308594 35.625 44.308594 Z M 35.625 44.308594 "/>
<path style=" stroke:none;fill-rule:nonzero;fill:rgb(33.333333%,0%,0%);fill-opacity:0.298039;" d="M 33.84375 15.289062 L 30.15625 28.351562 L 14.496094 25.730469 L 24.9375 36.167969 L 11.875 41.414062 L 25.679688 43.691406 L 14.496094 57.074219 L 30.007812 52.671875 L 32.78125 62.292969 L 40.621094 54.476562 L 53.683594 62.292969 L 50.566406 47.699219 L 64.125 46.632812 L 52.695312 38.46875 L 60.859375 33.570312 L 52.300781 32.582031 L 61.503906 17.886719 L 41.910156 26.867188 Z M 35.625 30.875 L 40.375 30.875 C 40.8125 30.875 41.167969 31.226562 41.167969 31.667969 L 41.167969 41.167969 C 41.167969 41.605469 40.8125 41.957031 40.375 41.957031 L 35.625 41.957031 C 35.1875 41.957031 34.832031 41.605469 34.832031 41.167969 L 34.832031 31.667969 C 34.832031 31.226562 35.1875 30.875 35.625 30.875 Z M 35.625 43.542969 L 40.375 43.542969 C 40.8125 43.542969 41.167969 43.894531 41.167969 44.332031 L 41.167969 49.082031 C 41.167969 49.523438 40.8125 49.875 40.375 49.875 L 35.625 49.875 C 35.1875 49.875 34.832031 49.523438 34.832031 49.082031 L 34.832031 44.332031 C 34.832031 43.894531 35.1875 43.542969 35.625 43.542969 Z M 35.625 43.542969 "/>
<path style=" stroke:none;fill-rule:nonzero;fill:url(#linear7);" d="M 33.84375 14.496094 L 30.15625 27.558594 L 14.496094 24.9375 L 24.9375 35.378906 L 11.875 40.621094 L 25.679688 42.898438 L 14.496094 56.28125 L 30.007812 51.878906 L 32.78125 61.503906 L 40.621094 53.683594 L 53.683594 61.503906 L 50.566406 46.90625 L 64.125 45.84375 L 52.695312 37.679688 L 60.859375 32.78125 L 52.300781 31.789062 L 61.503906 17.09375 L 41.910156 26.074219 Z M 35.625 30.082031 L 40.375 30.082031 C 40.8125 30.082031 41.167969 30.4375 41.167969 30.875 L 41.167969 40.375 C 41.167969 40.8125 40.8125 41.167969 40.375 41.167969 L 35.625 41.167969 C 35.1875 41.167969 34.832031 40.8125 34.832031 40.375 L 34.832031 30.875 C 34.832031 30.4375 35.1875 30.082031 35.625 30.082031 Z M 35.625 42.75 L 40.375 42.75 C 40.8125 42.75 41.167969 43.101562 41.167969 43.542969 L 41.167969 48.292969 C 41.167969 48.730469 40.8125 49.082031 40.375 49.082031 L 35.625 49.082031 C 35.1875 49.082031 34.832031 48.730469 34.832031 48.292969 L 34.832031 43.542969 C 34.832031 43.101562 35.1875 42.75 35.625 42.75 Z M 35.625 42.75 "/>
<path style=" stroke:none;fill-rule:nonzero;fill:rgb(100%,100%,100%);fill-opacity:0.4;" d="M 33.84375 14.496094 L 30.15625 27.558594 L 14.496094 24.9375 L 16.402344 26.84375 L 30.15625 29.144531 L 33.84375 16.082031 L 41.910156 27.660156 L 60.117188 19.320312 L 61.503906 17.09375 L 41.910156 26.074219 Z M 53.214844 31.890625 L 52.300781 33.375 L 58.65625 34.117188 L 60.859375 32.78125 Z M 23.800781 35.824219 L 11.875 40.621094 L 14.671875 41.09375 L 24.9375 36.960938 Z M 53.90625 38.542969 L 52.695312 39.261719 L 62.121094 45.992188 L 64.125 45.84375 Z M 34.832031 40.375 L 34.832031 41.957031 C 34.832031 42.398438 35.1875 42.75 35.625 42.75 L 40.375 42.75 C 40.8125 42.75 41.167969 42.398438 41.167969 41.957031 L 41.167969 40.375 C 41.167969 40.8125 40.8125 41.167969 40.375 41.167969 L 35.625 41.167969 C 35.1875 41.167969 34.832031 40.8125 34.832031 40.375 Z M 24.515625 44.285156 L 14.496094 56.28125 L 16.230469 55.789062 L 25.679688 44.480469 Z M 34.832031 48.292969 L 34.832031 49.875 C 34.832031 50.3125 35.1875 50.667969 35.625 50.667969 L 40.375 50.667969 C 40.8125 50.667969 41.167969 50.3125 41.167969 49.875 L 41.167969 48.292969 C 41.167969 48.730469 40.8125 49.082031 40.375 49.082031 L 35.625 49.082031 C 35.1875 49.082031 34.832031 48.730469 34.832031 48.292969 Z M 50.890625 48.464844 L 50.566406 48.488281 L 53.289062 61.28125 L 53.683594 61.503906 Z M 50.890625 48.464844 "/>
<path style=" stroke:none;fill-rule:nonzero;fill:rgb(100%,100%,100%);fill-opacity:0.8;" d="M 33.84375 14.496094 L 30.15625 27.558594 L 14.496094 24.9375 L 15.4375 25.878906 L 30.15625 28.351562 L 33.84375 15.289062 L 41.910156 26.867188 L 60.808594 18.207031 L 61.503906 17.09375 L 41.910156 26.074219 Z M 52.769531 31.839844 L 52.300781 32.582031 L 59.746094 33.449219 L 60.859375 32.78125 Z M 24.367188 35.601562 L 11.875 40.621094 L 13.261719 40.84375 L 24.9375 36.167969 Z M 53.289062 38.097656 L 52.695312 38.46875 L 63.136719 45.917969 L 64.125 45.84375 Z M 34.832031 40.375 L 34.832031 41.167969 C 34.832031 41.605469 35.1875 41.957031 35.625 41.957031 L 40.375 41.957031 C 40.8125 41.957031 41.167969 41.605469 41.167969 41.167969 L 41.167969 40.375 C 41.167969 40.8125 40.8125 41.167969 40.375 41.167969 L 35.625 41.167969 C 35.1875 41.167969 34.832031 40.8125 34.832031 40.375 Z M 25.109375 43.589844 L 14.496094 56.28125 L 15.363281 56.035156 L 25.679688 43.691406 Z M 50.742188 47.671875 L 50.566406 47.699219 L 53.488281 61.378906 L 53.683594 61.503906 Z M 34.832031 48.292969 L 34.832031 49.082031 C 34.832031 49.523438 35.1875 49.875 35.625 49.875 L 40.375 49.875 C 40.8125 49.875 41.167969 49.523438 41.167969 49.082031 L 41.167969 48.292969 C 41.167969 48.730469 40.8125 49.082031 40.375 49.082031 L 35.625 49.082031 C 35.1875 49.082031 34.832031 48.730469 34.832031 48.292969 Z M 34.832031 48.292969 "/>
</g>
</svg>
