<?xml version="1.0" encoding="UTF-8"?>
<svg xmlns="http://www.w3.org/2000/svg" xmlns:xlink="http://www.w3.org/1999/xlink" width="76pt" height="76pt" viewBox="0 0 76 76" version="1.1">
<defs>
<filter id="alpha" filterUnits="objectBoundingBox" x="0%" y="0%" width="100%" height="100%">
  <feColorMatrix type="matrix" in="SourceGraphic" values="0 0 0 0 1 0 0 0 0 1 0 0 0 0 1 0 0 0 1 0"/>
</filter>
<mask id="mask0">
  <g filter="url(#alpha)">
<rect x="0" y="0" width="76" height="76" style="fill:rgb(0%,0%,0%);fill-opacity:0.4;stroke:none;"/>
  </g>
</mask>
<clipPath id="clip1">
  <rect width="76" height="76"/>
</clipPath>
<g id="surface6" clip-path="url(#clip1)">
<path style="fill:none;stroke-width:1.7;stroke-linecap:round;stroke-linejoin:miter;stroke:rgb(0%,0%,0%);stroke-opacity:0.298039;stroke-miterlimit:4;" d="M 16.867488 -1.150493 C 16.867488 -1.150493 19.480152 1.272204 19.480152 6.485197 C 19.480152 11.671053 16.862554 14.150493 16.862554 14.150493 " transform="matrix(3.166667,0,0,3.166667,3.133163,22.166667)"/>
<path style="fill:none;stroke-width:1.7;stroke-linecap:round;stroke-linejoin:miter;stroke:rgb(87.45098%,85.882353%,82.352941%);stroke-opacity:1;stroke-miterlimit:4;" d="M 16.867488 -2.149671 C 16.867488 -2.149671 19.480152 0.273026 19.480152 5.484786 C 19.480152 10.671875 16.862554 13.150082 16.862554 13.150082 " transform="matrix(3.166667,0,0,3.166667,3.133163,22.166667)"/>
</g>
<mask id="mask1">
  <g filter="url(#alpha)">
<rect x="0" y="0" width="76" height="76" style="fill:rgb(0%,0%,0%);fill-opacity:0.4;stroke:none;"/>
  </g>
</mask>
<clipPath id="clip2">
  <rect width="76" height="76"/>
</clipPath>
<g id="surface9" clip-path="url(#clip2)">
<path style="fill:none;stroke-width:1.7;stroke-linecap:round;stroke-linejoin:miter;stroke:rgb(0%,0%,0%);stroke-opacity:0.298039;stroke-miterlimit:4;" d="M 13.893393 1.095806 C 13.893393 1.095806 15.738787 2.840049 15.672175 6.5 C 15.606797 10.189556 13.863787 11.904194 13.863787 11.904194 " transform="matrix(3.166667,0,0,3.166667,3.133163,22.166667)"/>
<path style="fill:none;stroke-width:1.7;stroke-linecap:round;stroke-linejoin:miter;stroke:rgb(87.45098%,85.882353%,82.352941%);stroke-opacity:1;stroke-miterlimit:4;" d="M 13.893393 0.0953947 C 13.893393 0.0953947 15.738787 1.840872 15.672175 5.499589 C 15.606797 9.190378 13.863787 10.905016 13.863787 10.905016 " transform="matrix(3.166667,0,0,3.166667,3.133163,22.166667)"/>
</g>
</defs>
<g id="surface1">
<path style=" stroke:none;fill-rule:evenodd;fill:rgb(0%,0%,0%);fill-opacity:0.298039;" d="M 25.339844 25.332031 C 24.375 25.332031 23.546875 25.738281 22.964844 26.421875 L 15.839844 34.832031 L 9.507812 34.832031 C 7.757812 34.832031 6.339844 36.25 6.339844 38 C 6.320312 41.152344 6.347656 44.378906 6.339844 47.5 C 6.339844 49.246094 7.757812 50.667969 9.507812 50.667969 L 15.839844 50.667969 L 22.667969 58.484375 C 23.210938 59.449219 24.15625 60.164062 25.339844 60.164062 C 27.089844 60.164062 28.507812 58.746094 28.507812 57 L 28.507812 28.5 C 28.507812 26.75 27.089844 25.332031 25.339844 25.332031 Z M 25.339844 25.332031 "/>
<path style="fill:none;stroke-width:1.7;stroke-linecap:round;stroke-linejoin:miter;stroke:rgb(0%,0%,0%);stroke-opacity:0.298039;stroke-miterlimit:4;" d="M 10.862554 3.222451 C 10.862554 3.222451 11.846929 4.016859 11.8716 6.451891 C 11.896271 8.857319 10.862554 9.777549 10.862554 9.777549 " transform="matrix(3.166667,0,0,3.166667,3.133163,22.166667)"/>
<use xlink:href="#surface6" mask="url(#mask0)"/>
<use xlink:href="#surface9" mask="url(#mask1)"/>
<path style="fill:none;stroke-width:1.7;stroke-linecap:round;stroke-linejoin:miter;stroke:rgb(87.45098%,85.882353%,82.352941%);stroke-opacity:1;stroke-miterlimit:4;" d="M 10.862554 2.222039 C 10.862554 2.222039 11.846929 3.016447 11.8716 5.452714 C 11.896271 7.858141 10.862554 8.778372 10.862554 8.778372 " transform="matrix(3.166667,0,0,3.166667,3.133163,22.166667)"/>
<path style=" stroke:none;fill-rule:evenodd;fill:rgb(87.45098%,85.882353%,82.352941%);fill-opacity:1;" d="M 25.339844 22.167969 C 24.375 22.167969 23.546875 22.570312 22.964844 23.253906 L 15.839844 31.667969 L 9.507812 31.667969 C 7.757812 31.667969 6.339844 33.085938 6.339844 34.832031 C 6.320312 37.988281 6.347656 41.210938 6.339844 44.332031 C 6.339844 46.082031 7.757812 47.5 9.507812 47.5 L 15.839844 47.5 L 22.667969 55.316406 C 23.210938 56.285156 24.15625 57 25.339844 57 C 27.089844 57 28.507812 55.582031 28.507812 53.832031 L 28.507812 25.332031 C 28.507812 23.585938 27.089844 22.164062 25.339844 22.164062 Z M 25.339844 22.167969 "/>
</g>
</svg>
