<?xml version="1.0" encoding="UTF-8"?>
<svg xmlns="http://www.w3.org/2000/svg" xmlns:xlink="http://www.w3.org/1999/xlink" width="76pt" height="76pt" viewBox="0 0 76 76" version="1.1">
<defs>
<linearGradient id="linear0" gradientUnits="userSpaceOnUse" x1="0" y1="-33.968" x2="0" y2="-43.829" gradientTransform="matrix(3.518515,0,0,3.518515,2.815167,174.99)">
<stop offset="0" style="stop-color:rgb(66.666667%,66.666667%,66.666667%);stop-opacity:1;"/>
<stop offset="1" style="stop-color:rgb(94.117647%,94.117647%,94.117647%);stop-opacity:1;"/>
</linearGradient>
<linearGradient id="linear1" gradientUnits="userSpaceOnUse" x1="11" y1="0" x2="19" y2="0" gradientTransform="matrix(0,-2.375,2.34749,0,21.641,73.625)">
<stop offset="0" style="stop-color:rgb(78.431373%,0%,0%);stop-opacity:1;"/>
<stop offset="1" style="stop-color:rgb(95.294118%,37.647059%,30.196078%);stop-opacity:1;"/>
</linearGradient>
</defs>
<g id="surface1">
<path style=" stroke:none;fill-rule:evenodd;fill:rgb(0%,0%,0%);fill-opacity:0.101961;" d="M 42.625 27.734375 C 42.625 27.734375 42.550781 27.757812 42.550781 27.757812 C 42.550781 27.757812 42.476562 27.757812 42.476562 27.757812 C 42.476562 27.757812 42.402344 27.78125 42.402344 27.78125 C 42.40625 27.78125 42.304688 27.808594 42.304688 27.808594 C 42.304688 27.808594 42.203125 27.855469 42.207031 27.855469 C 42.207031 27.855469 42.082031 27.90625 42.082031 27.90625 C 42.082031 27.90625 41.980469 27.957031 41.984375 27.957031 C 41.984375 27.957031 41.90625 28.03125 41.910156 28.03125 C 41.910156 28.03125 41.808594 28.078125 41.808594 28.078125 C 41.808594 28.078125 41.734375 28.152344 41.734375 28.152344 C 41.734375 28.152344 41.683594 28.207031 41.660156 28.226562 C 41.652344 28.234375 41.636719 28.253906 41.636719 28.253906 L 36.886719 33.050781 C 36.886719 33.050781 36.785156 33.175781 36.789062 33.175781 C 36.789062 33.175781 36.714844 33.277344 36.714844 33.273438 C 36.714844 33.273438 36.640625 33.398438 36.640625 33.398438 C 36.640625 33.398438 36.566406 33.546875 36.566406 33.546875 C 36.566406 33.546875 36.515625 33.671875 36.515625 33.671875 C 36.515625 33.667969 36.492188 33.820312 36.492188 33.820312 C 36.492188 33.816406 36.464844 33.96875 36.464844 33.96875 C 36.464844 33.964844 36.464844 34.117188 36.464844 34.117188 C 36.464844 34.113281 36.464844 34.265625 36.464844 34.265625 C 36.464844 34.261719 36.492188 34.414062 36.492188 34.414062 C 36.492188 34.410156 36.515625 34.5625 36.515625 34.5625 C 36.515625 34.558594 36.566406 34.6875 36.566406 34.683594 C 36.566406 34.683594 36.640625 34.835938 36.640625 34.832031 C 36.640625 34.832031 36.714844 34.957031 36.714844 34.957031 C 36.714844 34.957031 36.789062 35.058594 36.789062 35.054688 C 36.785156 35.054688 36.886719 35.179688 36.886719 35.179688 L 40.449219 38.792969 L 36.886719 42.402344 C 36.886719 42.402344 36.785156 42.527344 36.789062 42.527344 C 36.789062 42.527344 36.714844 42.628906 36.714844 42.625 C 36.714844 42.625 36.640625 42.75 36.640625 42.75 C 36.640625 42.75 36.566406 42.898438 36.566406 42.898438 C 36.566406 42.898438 36.515625 43.023438 36.515625 43.023438 C 36.515625 43.019531 36.492188 43.171875 36.492188 43.171875 C 36.492188 43.167969 36.464844 43.320312 36.464844 43.320312 C 36.464844 43.316406 36.464844 43.46875 36.464844 43.46875 C 36.464844 43.464844 36.464844 43.617188 36.464844 43.617188 C 36.464844 43.613281 36.492188 43.765625 36.492188 43.765625 C 36.492188 43.761719 36.515625 43.914062 36.515625 43.914062 C 36.515625 43.910156 36.566406 44.039062 36.566406 44.035156 C 36.566406 44.035156 36.640625 44.1875 36.640625 44.183594 C 36.640625 44.183594 36.714844 44.308594 36.714844 44.308594 C 36.714844 44.308594 36.789062 44.410156 36.789062 44.40625 C 36.785156 44.40625 36.886719 44.53125 36.886719 44.53125 L 41.660156 49.355469 C 41.660156 49.355469 41.761719 49.457031 41.761719 49.453125 C 41.757812 49.453125 41.886719 49.554688 41.882812 49.554688 C 41.882812 49.554688 42.007812 49.628906 42.007812 49.628906 C 42.007812 49.628906 42.15625 49.703125 42.15625 49.703125 C 42.15625 49.703125 42.304688 49.75 42.304688 49.75 C 42.304688 49.75 42.429688 49.800781 42.429688 49.800781 C 42.425781 49.800781 42.578125 49.824219 42.578125 49.824219 C 42.574219 49.824219 42.75 49.824219 42.75 49.824219 C 42.75 49.824219 42.898438 49.824219 42.898438 49.824219 C 42.898438 49.824219 43.046875 49.800781 43.046875 49.800781 C 43.046875 49.800781 43.195312 49.777344 43.195312 49.777344 C 43.195312 49.777344 43.320312 49.726562 43.320312 49.726562 C 43.316406 49.726562 43.46875 49.675781 43.46875 49.675781 C 43.464844 49.675781 43.59375 49.601562 43.589844 49.601562 C 43.589844 49.601562 43.714844 49.503906 43.714844 49.503906 C 43.714844 49.503906 43.839844 49.402344 43.839844 49.40625 L 47.476562 45.792969 L 50.964844 49.355469 C 50.964844 49.355469 51.011719 49.40625 51.011719 49.40625 C 51.011719 49.40625 51.085938 49.453125 51.085938 49.453125 C 51.085938 49.453125 51.136719 49.503906 51.136719 49.503906 C 51.136719 49.503906 51.210938 49.554688 51.210938 49.554688 C 51.210938 49.554688 51.261719 49.601562 51.261719 49.601562 C 51.261719 49.601562 51.335938 49.652344 51.335938 49.652344 C 51.335938 49.652344 51.410156 49.675781 51.410156 49.675781 C 51.410156 49.675781 51.484375 49.703125 51.484375 49.703125 C 51.484375 49.703125 51.53125 49.726562 51.53125 49.726562 C 51.53125 49.726562 51.605469 49.75 51.605469 49.75 C 51.605469 49.75 51.679688 49.777344 51.679688 49.777344 C 51.679688 49.777344 51.78125 49.800781 51.78125 49.800781 C 51.78125 49.800781 51.855469 49.824219 51.855469 49.824219 C 51.855469 49.824219 51.929688 49.824219 51.929688 49.824219 C 51.929688 49.824219 52.003906 49.824219 52.003906 49.824219 C 52.003906 49.824219 52.078125 49.824219 52.078125 49.824219 C 52.078125 49.824219 52.152344 49.824219 52.152344 49.824219 C 52.152344 49.824219 52.226562 49.824219 52.226562 49.824219 C 52.226562 49.824219 52.300781 49.824219 52.300781 49.824219 C 52.300781 49.824219 52.375 49.800781 52.375 49.800781 C 52.375 49.800781 52.472656 49.777344 52.472656 49.777344 C 52.472656 49.777344 52.546875 49.75 52.546875 49.75 C 52.546875 49.75 52.621094 49.726562 52.621094 49.726562 C 52.621094 49.726562 52.671875 49.703125 52.671875 49.703125 C 52.671875 49.703125 52.746094 49.675781 52.746094 49.675781 C 52.746094 49.675781 52.820312 49.652344 52.820312 49.652344 C 52.820312 49.652344 52.894531 49.601562 52.894531 49.601562 C 52.894531 49.601562 52.941406 49.554688 52.941406 49.554688 C 52.941406 49.554688 53.015625 49.503906 53.015625 49.503906 C 53.015625 49.503906 53.066406 49.453125 53.066406 49.453125 C 53.066406 49.453125 53.140625 49.40625 53.140625 49.40625 C 53.140625 49.40625 53.191406 49.355469 53.191406 49.355469 L 58.113281 44.382812 C 58.113281 44.382812 58.214844 44.257812 58.210938 44.257812 C 58.210938 44.261719 58.3125 44.132812 58.3125 44.136719 C 58.3125 44.136719 58.386719 44.011719 58.386719 44.011719 C 58.386719 44.011719 58.433594 43.863281 58.433594 43.863281 C 58.433594 43.863281 58.484375 43.738281 58.484375 43.738281 C 58.484375 43.742188 58.507812 43.589844 58.507812 43.589844 C 58.507812 43.59375 58.535156 43.441406 58.535156 43.441406 C 58.535156 43.445312 58.535156 43.292969 58.535156 43.292969 C 58.535156 43.296875 58.535156 43.121094 58.535156 43.121094 C 58.535156 43.121094 58.507812 42.972656 58.507812 42.972656 C 58.507812 42.972656 58.460938 42.847656 58.460938 42.847656 C 58.460938 42.851562 58.410156 42.699219 58.410156 42.699219 C 58.410156 42.703125 58.335938 42.550781 58.335938 42.550781 C 58.335938 42.554688 58.261719 42.425781 58.261719 42.429688 C 58.261719 42.429688 58.160156 42.304688 58.164062 42.304688 C 58.164062 42.304688 58.0625 42.203125 58.0625 42.207031 L 54.574219 38.792969 L 58.0625 35.378906 C 58.0625 35.378906 58.164062 35.277344 58.164062 35.277344 C 58.160156 35.28125 58.261719 35.152344 58.261719 35.15625 C 58.261719 35.15625 58.335938 35.03125 58.335938 35.03125 C 58.335938 35.03125 58.410156 34.882812 58.410156 34.882812 C 58.410156 34.882812 58.460938 34.734375 58.460938 34.734375 C 58.460938 34.734375 58.507812 34.609375 58.507812 34.609375 C 58.507812 34.613281 58.535156 34.460938 58.535156 34.460938 C 58.535156 34.464844 58.535156 34.289062 58.535156 34.289062 C 58.535156 34.289062 58.535156 34.140625 58.535156 34.140625 C 58.535156 34.140625 58.507812 33.992188 58.507812 33.992188 C 58.507812 33.992188 58.484375 33.84375 58.484375 33.84375 C 58.484375 33.84375 58.433594 33.71875 58.433594 33.71875 C 58.433594 33.722656 58.386719 33.570312 58.386719 33.570312 C 58.386719 33.574219 58.3125 33.445312 58.3125 33.449219 C 58.3125 33.449219 58.210938 33.324219 58.210938 33.324219 C 58.214844 33.324219 58.113281 33.199219 58.113281 33.199219 L 53.191406 28.226562 C 53.191406 28.226562 53.140625 28.179688 53.140625 28.179688 C 53.140625 28.179688 53.066406 28.128906 53.066406 28.128906 C 53.066406 28.128906 53.015625 28.078125 53.015625 28.078125 C 53.015625 28.078125 52.941406 28.03125 52.941406 28.03125 C 52.941406 28.03125 52.894531 27.980469 52.894531 27.980469 C 52.894531 27.980469 52.820312 27.929688 52.820312 27.929688 C 52.820312 27.929688 52.746094 27.90625 52.746094 27.90625 C 52.746094 27.90625 52.671875 27.882812 52.671875 27.882812 C 52.671875 27.882812 52.621094 27.855469 52.621094 27.855469 C 52.621094 27.855469 52.546875 27.832031 52.546875 27.832031 C 52.546875 27.832031 52.472656 27.808594 52.472656 27.808594 C 52.472656 27.808594 52.375 27.78125 52.375 27.78125 C 52.375 27.78125 52.300781 27.757812 52.300781 27.757812 C 52.300781 27.757812 52.226562 27.757812 52.226562 27.757812 C 52.226562 27.757812 52.152344 27.757812 52.152344 27.757812 C 52.152344 27.757812 52.078125 27.757812 52.078125 27.757812 C 52.078125 27.757812 52.003906 27.757812 52.003906 27.757812 C 52.003906 27.757812 51.929688 27.757812 51.929688 27.757812 C 51.929688 27.757812 51.855469 27.757812 51.855469 27.757812 C 51.855469 27.757812 51.78125 27.78125 51.78125 27.78125 C 51.78125 27.78125 51.679688 27.808594 51.679688 27.808594 C 51.679688 27.808594 51.605469 27.832031 51.605469 27.832031 C 51.605469 27.832031 51.53125 27.855469 51.53125 27.855469 C 51.53125 27.855469 51.484375 27.882812 51.484375 27.882812 C 51.484375 27.882812 51.410156 27.90625 51.410156 27.90625 C 51.410156 27.90625 51.335938 27.929688 51.335938 27.929688 C 51.335938 27.929688 51.261719 27.980469 51.261719 27.980469 C 51.261719 27.980469 51.210938 28.03125 51.210938 28.03125 C 51.210938 28.03125 51.136719 28.078125 51.136719 28.078125 C 51.136719 28.078125 51.085938 28.128906 51.085938 28.128906 C 51.085938 28.128906 51.011719 28.179688 51.011719 28.179688 C 51.011719 28.179688 50.964844 28.226562 50.964844 28.226562 L 47.476562 31.789062 L 43.863281 28.203125 C 43.863281 28.203125 43.847656 28.1875 43.839844 28.179688 C 43.820312 28.164062 43.789062 28.128906 43.789062 28.128906 C 43.789062 28.128906 43.738281 28.078125 43.738281 28.078125 C 43.738281 28.078125 43.691406 28.03125 43.691406 28.03125 C 43.691406 28.03125 43.617188 28.003906 43.617188 28.003906 C 43.617188 28.003906 43.542969 27.957031 43.542969 27.957031 C 43.542969 27.957031 43.492188 27.90625 43.492188 27.90625 C 43.492188 27.90625 43.417969 27.882812 43.417969 27.882812 C 43.417969 27.882812 43.34375 27.855469 43.34375 27.855469 C 43.34375 27.855469 43.269531 27.832031 43.269531 27.832031 C 43.269531 27.832031 43.195312 27.808594 43.195312 27.808594 C 43.195312 27.808594 43.121094 27.78125 43.121094 27.78125 C 43.121094 27.78125 43.046875 27.757812 43.046875 27.757812 C 43.046875 27.757812 42.972656 27.757812 42.972656 27.757812 C 42.972656 27.757812 42.898438 27.734375 42.898438 27.734375 C 42.898438 27.734375 42.824219 27.734375 42.824219 27.734375 C 42.824219 27.734375 42.75 27.734375 42.75 27.734375 C 42.734375 27.734375 42.71875 27.734375 42.699219 27.734375 C 42.699219 27.734375 42.625 27.734375 42.625 27.734375 Z M 42.625 27.734375 "/>
<path style=" stroke:none;fill-rule:evenodd;fill:rgb(0%,0%,0%);fill-opacity:0.14902;" d="M 42.601562 28.550781 C 42.457031 28.585938 42.328125 28.664062 42.230469 28.773438 L 37.457031 33.597656 C 37.179688 33.886719 37.179688 34.34375 37.457031 34.636719 L 41.5625 38.792969 L 37.457031 42.949219 C 37.179688 43.238281 37.179688 43.695312 37.457031 43.988281 L 42.230469 48.8125 C 42.519531 49.109375 42.992188 49.121094 43.292969 48.835938 L 47.476562 44.679688 L 51.53125 48.8125 C 51.675781 48.960938 51.871094 49.042969 52.078125 49.042969 C 52.28125 49.042969 52.480469 48.960938 52.621094 48.8125 L 57.542969 43.839844 C 57.832031 43.539062 57.820312 43.0625 57.519531 42.773438 L 53.4375 38.792969 L 57.519531 34.808594 C 57.820312 34.519531 57.832031 34.046875 57.542969 33.746094 L 52.621094 28.773438 C 52.480469 28.625 52.28125 28.539062 52.078125 28.539062 C 51.871094 28.539062 51.675781 28.625 51.53125 28.773438 L 47.476562 32.902344 L 43.292969 28.746094 C 43.113281 28.566406 42.851562 28.492188 42.601562 28.550781 Z M 42.601562 28.550781 "/>
<path style=" stroke:none;fill-rule:evenodd;fill:rgb(0%,0%,0%);fill-opacity:0.298039;" d="M 38 43.46875 L 42.769531 48.292969 L 47.464844 43.617188 L 52.085938 48.292969 L 57 43.320312 L 52.378906 38.792969 L 57 34.265625 L 52.085938 29.292969 L 47.464844 33.96875 L 42.769531 29.292969 L 38 34.117188 L 42.621094 38.792969 Z M 38 43.46875 "/>
<path style=" stroke:none;fill-rule:nonzero;fill:rgb(0%,0%,0%);fill-opacity:0.0784314;" d="M 24.171875 19.050781 C 22.75 19.210938 21.664062 19.980469 20.757812 20.804688 C 19.847656 21.632812 19.082031 22.527344 18.28125 23.132812 C 17.246094 23.949219 16.457031 24.933594 15.683594 25.382812 C 13.152344 25.480469 10.371094 25.011719 7.59375 25.804688 C 7.578125 25.8125 7.5625 25.820312 7.546875 25.828125 C 6.011719 26.414062 5.023438 27.613281 4.503906 28.945312 C 3.992188 30.253906 3.894531 31.699219 4.007812 33.027344 C 4.007812 33.050781 4.007812 33.078125 4.007812 33.101562 C 4.066406 37.800781 3.882812 42.542969 4.105469 47.300781 C 4.105469 47.335938 4.105469 47.367188 4.105469 47.402344 C 4.625 50.722656 7.949219 52.566406 11.035156 52.175781 C 11.066406 52.171875 11.101562 52.179688 11.132812 52.175781 L 15.90625 52.175781 C 17.925781 54.023438 19.847656 56.035156 22.019531 57.839844 C 22.050781 57.867188 22.082031 57.894531 22.117188 57.914062 C 23.144531 58.511719 24.226562 58.664062 25.183594 58.433594 C 26.144531 58.207031 26.964844 57.628906 27.609375 56.902344 C 28.871094 55.480469 29.535156 53.453125 29.242188 51.582031 C 29.234375 51.535156 29.25 51.480469 29.242188 51.433594 C 29.230469 42.535156 29.257812 33.644531 29.21875 24.738281 C 29.21875 24.722656 29.21875 24.707031 29.21875 24.691406 C 29.144531 23.398438 28.703125 22.066406 27.882812 20.980469 C 27.058594 19.890625 25.800781 19.066406 24.269531 19.050781 C 24.238281 19.046875 24.203125 19.046875 24.171875 19.050781 Z M 24.171875 19.050781 "/>
<path style=" stroke:none;fill-rule:nonzero;fill:rgb(0%,0%,0%);fill-opacity:0.101961;" d="M 24.269531 19.816406 C 21.894531 20.085938 20.539062 22.398438 18.753906 23.75 C 17.800781 24.503906 16.992188 25.605469 15.957031 26.148438 C 13.246094 26.292969 10.445312 25.796875 7.816406 26.546875 C 5.183594 27.554688 4.542969 30.515625 4.773438 33.027344 C 4.835938 37.777344 4.648438 42.539062 4.875 47.277344 C 5.324219 50.164062 8.296875 51.800781 11.035156 51.410156 L 16.203125 51.410156 C 18.328125 53.335938 20.3125 55.417969 22.511719 57.246094 C 26.027344 59.289062 29.070312 54.8125 28.476562 51.582031 C 28.464844 42.632812 28.492188 33.6875 28.449219 24.738281 C 28.324219 22.472656 26.792969 19.839844 24.269531 19.816406 Z M 24.269531 19.816406 "/>
<path style=" stroke:none;fill-rule:nonzero;fill:rgb(0%,0%,0%);fill-opacity:0.14902;" d="M 24.269531 20.65625 C 23.996094 20.65625 23.769531 20.75 23.601562 20.804688 C 23.59375 20.804688 23.585938 20.804688 23.578125 20.804688 C 23.28125 20.921875 22.894531 21.09375 22.5625 21.398438 L 16.453125 26.992188 L 9.746094 26.992188 C 7.453125 26.992188 5.617188 28.851562 5.617188 31.195312 L 5.617188 46.261719 C 5.617188 48.605469 7.429688 50.566406 9.746094 50.566406 L 16.550781 50.566406 L 22.5625 56.207031 C 22.570312 56.214844 22.578125 56.226562 22.585938 56.234375 C 23.089844 56.667969 23.695312 56.925781 24.320312 56.925781 C 24.941406 56.925781 25.550781 56.667969 26.050781 56.234375 C 27.0625 55.359375 27.640625 53.882812 27.632812 52.324219 L 27.632812 25.308594 C 27.648438 23.972656 27.222656 22.699219 26.472656 21.796875 C 25.894531 21.101562 25.105469 20.65625 24.269531 20.65625 Z M 24.269531 20.65625 "/>
<path style=" stroke:none;fill-rule:nonzero;fill:rgb(0%,0%,0%);fill-opacity:0.298039;" d="M 24.269531 21.375 C 24.078125 21.375 24.015625 21.40625 23.824219 21.472656 C 23.574219 21.570312 23.277344 21.714844 23.058594 21.917969 L 16.722656 27.707031 L 9.746094 27.707031 C 7.828125 27.707031 6.332031 29.214844 6.332031 31.195312 L 6.332031 46.261719 C 6.332031 48.246094 7.828125 49.851562 9.746094 49.851562 L 16.824219 49.851562 L 23.058594 55.6875 C 23.847656 56.375 24.789062 56.375 25.582031 55.6875 C 26.375 55.003906 26.921875 53.691406 26.917969 52.324219 L 26.917969 25.308594 C 26.929688 24.136719 26.539062 22.976562 25.925781 22.242188 C 25.46875 21.691406 24.847656 21.375 24.269531 21.375 Z M 24.269531 21.375 "/>
<path style=" stroke:none;fill-rule:nonzero;fill:url(#linear0);" d="M 24.269531 20.582031 C 24.078125 20.582031 24.015625 20.617188 23.824219 20.683594 C 23.574219 20.777344 23.277344 20.925781 23.058594 21.128906 L 16.722656 26.917969 L 9.746094 26.917969 C 7.828125 26.917969 6.332031 28.421875 6.332031 30.40625 L 6.332031 45.472656 C 6.332031 47.453125 7.828125 49.058594 9.746094 49.058594 L 16.824219 49.058594 L 23.058594 54.898438 C 23.847656 55.585938 24.789062 55.582031 25.582031 54.898438 C 26.375 54.210938 26.921875 52.898438 26.917969 51.53125 L 26.917969 24.515625 C 26.929688 23.347656 26.539062 22.183594 25.925781 21.449219 C 25.46875 20.898438 24.847656 20.582031 24.269531 20.582031 Z M 24.269531 20.582031 "/>
<path style=" stroke:none;fill-rule:nonzero;fill:rgb(100%,100%,100%);fill-opacity:0.6;" d="M 24.269531 20.582031 C 24.078125 20.582031 24.015625 20.617188 23.824219 20.683594 C 23.574219 20.777344 23.277344 20.925781 23.058594 21.128906 L 16.722656 26.917969 L 9.746094 26.917969 C 7.828125 26.917969 6.332031 28.421875 6.332031 30.40625 L 6.332031 31.988281 C 6.332031 30.003906 7.828125 28.5 9.746094 28.5 L 16.722656 28.5 L 23.058594 22.710938 C 23.277344 22.507812 23.574219 22.363281 23.824219 22.265625 C 24.015625 22.199219 24.078125 22.167969 24.269531 22.167969 C 24.847656 22.167969 25.46875 22.480469 25.925781 23.03125 C 26.539062 23.769531 26.929688 24.929688 26.917969 26.101562 L 26.917969 24.515625 C 26.929688 23.347656 26.539062 22.183594 25.925781 21.449219 C 25.46875 20.898438 24.847656 20.582031 24.269531 20.582031 Z M 24.269531 20.582031 "/>
<path style=" stroke:none;fill-rule:evenodd;fill:url(#linear1);" d="M 38 42.675781 L 42.769531 47.5 L 47.464844 42.824219 L 52.085938 47.5 L 57 42.527344 L 52.378906 38 L 57 33.472656 L 52.085938 28.5 L 47.464844 33.175781 L 42.769531 28.5 L 38 33.324219 L 42.621094 38 Z M 38 42.675781 "/>
<path style=" stroke:none;fill-rule:evenodd;fill:rgb(100%,100%,100%);fill-opacity:0.2;" d="M 42.773438 28.5 L 38 33.324219 L 38.792969 34.117188 L 42.773438 30.082031 L 47.476562 34.757812 L 52.078125 30.082031 L 56.207031 34.238281 L 57 33.472656 L 52.078125 28.5 L 47.476562 33.175781 Z M 42.621094 37.980469 L 38 42.675781 L 38.792969 43.46875 L 42.625 39.582031 Z M 52.390625 38.019531 L 52.375 39.582031 L 56.207031 43.34375 L 57 42.527344 Z M 52.390625 38.019531 "/>
</g>
</svg>
