<?xml version="1.0" encoding="UTF-8"?>
<svg xmlns="http://www.w3.org/2000/svg" xmlns:xlink="http://www.w3.org/1999/xlink" width="76pt" height="76pt" viewBox="0 0 76 76" version="1.1">
<g id="surface1">
<path style=" stroke:none;fill-rule:nonzero;fill:rgb(80%,80%,80%);fill-opacity:1;" d="M 71.777344 33.777344 C 71.777344 31.4375 69.894531 29.554688 67.554688 29.554688 L 63.332031 29.554688 L 63.332031 21.109375 C 63.332031 18.773438 61.449219 16.890625 59.109375 16.890625 L 8.445312 16.890625 C 6.105469 16.890625 4.222656 18.773438 4.222656 21.109375 L 4.222656 54.890625 C 4.222656 57.226562 6.105469 59.109375 8.445312 59.109375 L 59.109375 59.109375 C 61.449219 59.109375 63.332031 57.226562 63.332031 54.890625 L 63.332031 46.445312 L 67.554688 46.445312 C 69.894531 46.445312 71.777344 44.5625 71.777344 42.222656 Z M 67.554688 35.890625 L 67.554688 40.109375 C 67.554688 41.28125 66.613281 42.222656 65.445312 42.222656 L 63.332031 42.222656 L 63.332031 33.777344 L 65.445312 33.777344 C 66.613281 33.777344 67.554688 34.71875 67.554688 35.890625 Z M 59.109375 23.222656 L 59.109375 52.777344 C 59.109375 53.949219 58.167969 54.890625 57 54.890625 L 10.554688 54.890625 C 9.386719 54.890625 8.445312 53.949219 8.445312 52.777344 L 8.445312 23.222656 C 8.445312 22.050781 9.386719 21.109375 10.554688 21.109375 L 57 21.109375 C 58.167969 21.109375 59.109375 22.050781 59.109375 23.222656 Z M 59.109375 23.222656 "/>
<path style=" stroke:none;fill-rule:nonzero;fill:rgb(80%,80%,80%);fill-opacity:1;" d="M 54.890625 38 C 54.890625 40.339844 53.273438 42.222656 51.269531 42.222656 L 33.175781 42.222656 C 31.167969 42.222656 29.554688 40.339844 29.554688 38 C 29.554688 35.660156 31.167969 33.777344 33.175781 33.777344 L 51.269531 33.777344 C 53.273438 33.777344 54.890625 35.660156 54.890625 38 Z M 54.890625 38 "/>
<path style=" stroke:none;fill-rule:nonzero;fill:rgb(80%,80%,80%);fill-opacity:1;" d="M 25.332031 36.945312 L 25.332031 39.054688 C 25.332031 40.808594 23.921875 42.222656 22.167969 42.222656 L 20.054688 42.222656 C 18.300781 42.222656 16.890625 40.808594 16.890625 39.054688 L 16.890625 36.945312 C 16.890625 35.191406 18.300781 33.777344 20.054688 33.777344 L 22.167969 33.777344 C 23.921875 33.777344 25.332031 35.191406 25.332031 36.945312 Z M 25.332031 36.945312 "/>
</g>
</svg>
