<svg display="inline" height="16" width="16" xmlns="http://www.w3.org/2000/svg" xmlns:sodipodi="http://sodipodi.sourceforge.net/DTD/sodipodi-0.dtd" xmlns:inkscape="http://www.inkscape.org/namespaces/inkscape">
 <path d="m 8,6 c -2.209139,0 -4,1.790861 -4,4 0,1.479209 0.8062088,2.745415 2,3.4375 L 6,20 l 2,2 2,-2 0,-1 -1,-1 1,-1 0,0 -1,-1 1,-1 0,-1.5625 C 11.193791,12.745415 12,11.479209 12,10 12,7.790861 10.209139,6 8,6 z M 8,8 C 8.552285,8 9,8.4477153 9,9 9,9.5522847 8.552285,10 8,10 7.447715,10 7,9.5522847 7,9 7,8.4477153 7.447715,8 8,8 z" stroke-width="1" fill="#cccccc" color="#000000" fill-opacity="1" fill-rule="nonzero" stroke="none" opacity="1" visibility="visible" sodipodi:nodetypes="cscccccccccccsccsssc" inkscape:label="Icon" inkscape:groupmode="layer" inkscape:connector-curvature="0" transform="matrix(1 0 0 1 0 -6)"/>
</svg>
