<?xml version="1.0" encoding="UTF-8"?>
<svg xmlns="http://www.w3.org/2000/svg" xmlns:xlink="http://www.w3.org/1999/xlink" width="76pt" height="76pt" viewBox="0 0 76 76" version="1.1">
<defs>
<linearGradient id="linear0" gradientUnits="userSpaceOnUse" x1="0" y1="6.132" x2="0" y2="90.24" gradientTransform="matrix(0.810516,0,0,-0.801087,-0.904875,77.63875)">
<stop offset="0" style="stop-color:rgb(0%,0%,0%);stop-opacity:0.0784314;"/>
<stop offset="1" style="stop-color:rgb(0%,0%,0%);stop-opacity:0.0461361;"/>
</linearGradient>
<linearGradient id="linear1" gradientUnits="userSpaceOnUse" x1="0" y1="6.132" x2="0" y2="90.24" gradientTransform="matrix(0.810516,0,0,-0.801087,-0.904875,77.63875)">
<stop offset="0" style="stop-color:rgb(0%,0%,0%);stop-opacity:0.101961;"/>
<stop offset="1" style="stop-color:rgb(0%,0%,0%);stop-opacity:0.0599769;"/>
</linearGradient>
<linearGradient id="linear2" gradientUnits="userSpaceOnUse" x1="0" y1="6.132" x2="0" y2="90.24" gradientTransform="matrix(0.810516,0,0,-0.801087,-0.904875,77.63875)">
<stop offset="0" style="stop-color:rgb(0%,0%,0%);stop-opacity:0.2;"/>
<stop offset="1" style="stop-color:rgb(0%,0%,0%);stop-opacity:0.117647;"/>
</linearGradient>
<linearGradient id="linear3" gradientUnits="userSpaceOnUse" x1="0" y1="6.132" x2="0" y2="90.24" gradientTransform="matrix(0.810516,0,0,-0.801087,-0.904875,77.63875)">
<stop offset="0" style="stop-color:rgb(0%,0%,0%);stop-opacity:0.298039;"/>
<stop offset="1" style="stop-color:rgb(0%,0%,0%);stop-opacity:0.175317;"/>
</linearGradient>
<linearGradient id="linear4" gradientUnits="userSpaceOnUse" x1="0" y1="6.132" x2="0" y2="90.24" gradientTransform="matrix(0.791667,0,0,-0.791667,0,76.791667)">
<stop offset="0" style="stop-color:rgb(0%,0%,0%);stop-opacity:0.45098;"/>
<stop offset="1" style="stop-color:rgb(0%,0%,0%);stop-opacity:0.265283;"/>
</linearGradient>
<linearGradient id="linear5" gradientUnits="userSpaceOnUse" x1="0" y1="90" x2="0" y2="5.988" gradientTransform="matrix(0.791667,0,0,0.791667,0,0)">
<stop offset="0" style="stop-color:rgb(90.196078%,90.196078%,90.196078%);stop-opacity:1;"/>
<stop offset="1" style="stop-color:rgb(96.078431%,96.078431%,96.078431%);stop-opacity:1;"/>
</linearGradient>
<linearGradient id="linear6" gradientUnits="userSpaceOnUse" x1="0" y1="6" x2="0" y2="63.893" gradientTransform="matrix(0.791667,0,0,0.791667,0,0)">
<stop offset="0" style="stop-color:rgb(100%,100%,100%);stop-opacity:0.501961;"/>
<stop offset="1" style="stop-color:rgb(100%,100%,100%);stop-opacity:0;"/>
</linearGradient>
<radialGradient id="radial0" gradientUnits="userSpaceOnUse" cx="48" cy="90.17" fx="48" fy="90.17" r="42" gradientTransform="matrix(0.916204,0,0,0.788429,-5.977875,0.155958)">
<stop offset="0" style="stop-color:rgb(100%,100%,100%);stop-opacity:0.4;"/>
<stop offset="1" style="stop-color:rgb(100%,100%,100%);stop-opacity:0;"/>
</radialGradient>
<filter id="alpha" filterUnits="objectBoundingBox" x="0%" y="0%" width="100%" height="100%">
  <feColorMatrix type="matrix" in="SourceGraphic" values="0 0 0 0 1 0 0 0 0 1 0 0 0 0 1 0 0 0 1 0"/>
</filter>
<mask id="mask0">
  <g filter="url(#alpha)">
<rect x="0" y="0" width="76" height="76" style="fill:rgb(0%,0%,0%);fill-opacity:0.298039;stroke:none;"/>
  </g>
</mask>
<clipPath id="clip1">
  <rect width="76" height="76"/>
</clipPath>
<g id="surface6" clip-path="url(#clip1)">
<path style=" stroke:none;fill-rule:nonzero;fill:rgb(0%,0%,0%);fill-opacity:1;" d="M 57 38.003906 C 57 48.496094 48.496094 57.003906 38 57.003906 C 27.507812 57.003906 19 48.496094 19 38.003906 C 19 27.511719 27.507812 19.003906 38 19.003906 C 48.496094 19.003906 57 27.511719 57 38.003906 Z M 57 38.003906 "/>
</g>
<radialGradient id="radial1" gradientUnits="userSpaceOnUse" cx="13.13" cy="35.957" fx="13.13" fy="35.957" r="21.466" gradientTransform="matrix(1.268499,0,0,0.980929,21.343709,-16.111596)">
<stop offset="0" style="stop-color:rgb(100%,100%,100%);stop-opacity:1;"/>
<stop offset="1" style="stop-color:rgb(67.843137%,67.843137%,67.843137%);stop-opacity:1;"/>
</radialGradient>
<linearGradient id="linear7" gradientUnits="userSpaceOnUse" x1="-8.334" y1="0" x2="34.598" y2="0" gradientTransform="matrix(0,0.716537,-0.716537,0,78.375,27.795417)">
<stop offset="0" style="stop-color:rgb(27.45098%,27.45098%,27.45098%);stop-opacity:0.6;"/>
<stop offset="0.796" style="stop-color:rgb(100%,100%,100%);stop-opacity:0.6;"/>
<stop offset="1" style="stop-color:rgb(44.313725%,44.313725%,44.313725%);stop-opacity:0.6;"/>
</linearGradient>
<radialGradient id="radial2" gradientUnits="userSpaceOnUse" cx="13.13" cy="56.35" fx="13.13" fy="56.35" r="21.466" gradientTransform="matrix(0.688663,0,0,0.688663,28.956792,-1.618167)">
<stop offset="0" style="stop-color:rgb(100%,100%,100%);stop-opacity:1;"/>
<stop offset="0.8" style="stop-color:rgb(92.941176%,92.941176%,92.941176%);stop-opacity:1;"/>
<stop offset="0.9" style="stop-color:rgb(77.647059%,77.647059%,77.647059%);stop-opacity:1;"/>
<stop offset="1" style="stop-color:rgb(49.019608%,49.019608%,49.019608%);stop-opacity:1;"/>
</radialGradient>
</defs>
<g id="surface1">
<path style=" stroke:none;fill-rule:nonzero;fill:url(#linear0);" d="M 9.5 3.140625 C 5.136719 3.140625 1.558594 6.71875 1.558594 11.082031 L 1.558594 67.292969 C 1.558594 71.65625 5.136719 75.234375 9.5 75.234375 L 66.5 75.234375 C 70.863281 75.234375 74.441406 71.65625 74.441406 67.292969 L 74.441406 11.082031 C 74.441406 6.71875 70.863281 3.140625 66.5 3.140625 Z M 9.5 4.75 L 66.5 4.75 C 69.132812 4.75 71.25 6.867188 71.25 9.5 L 71.25 66.5 C 71.25 69.132812 69.132812 71.25 66.5 71.25 L 9.5 71.25 C 6.867188 71.25 4.75 69.132812 4.75 66.5 L 4.75 9.5 C 4.75 6.867188 6.867188 4.75 9.5 4.75 Z M 9.5 4.75 "/>
<path style=" stroke:none;fill-rule:nonzero;fill:url(#linear1);" d="M 9.5 3.933594 C 5.5625 3.933594 2.351562 7.148438 2.351562 11.082031 L 2.351562 67.292969 C 2.351562 71.226562 5.5625 74.441406 9.5 74.441406 L 66.5 74.441406 C 70.4375 74.441406 73.648438 71.226562 73.648438 67.292969 L 73.648438 11.082031 C 73.648438 7.148438 70.4375 3.933594 66.5 3.933594 Z M 9.5 4.75 L 66.5 4.75 C 69.132812 4.75 71.25 6.867188 71.25 9.5 L 71.25 66.5 C 71.25 69.132812 69.132812 71.25 66.5 71.25 L 9.5 71.25 C 6.867188 71.25 4.75 69.132812 4.75 66.5 L 4.75 9.5 C 4.75 6.867188 6.867188 4.75 9.5 4.75 Z M 9.5 4.75 "/>
<path style=" stroke:none;fill-rule:nonzero;fill:url(#linear2);" d="M 8.855469 4.773438 C 5.667969 5.101562 3.167969 7.8125 3.167969 11.082031 L 3.167969 67.292969 C 3.167969 70.78125 6.007812 73.625 9.5 73.625 L 66.5 73.625 C 69.992188 73.625 72.832031 70.78125 72.832031 67.292969 L 72.832031 11.082031 C 72.832031 7.761719 70.253906 5.03125 66.996094 4.773438 C 69.394531 5.015625 71.25 7.03125 71.25 9.5 L 71.25 66.5 C 71.25 69.132812 69.132812 71.25 66.5 71.25 L 9.5 71.25 C 6.867188 71.25 4.75 69.132812 4.75 66.5 L 4.75 9.5 C 4.75 7.03125 6.605469 5.015625 9.003906 4.773438 C 8.957031 4.777344 8.90625 4.769531 8.855469 4.773438 Z M 8.855469 4.773438 "/>
<path style=" stroke:none;fill-rule:nonzero;fill:url(#linear3);" d="M 5.097656 7.71875 C 4.382812 8.652344 3.957031 9.816406 3.957031 11.082031 L 3.957031 67.292969 C 3.957031 70.363281 6.429688 72.832031 9.5 72.832031 L 66.5 72.832031 C 69.570312 72.832031 72.042969 70.363281 72.042969 67.292969 L 72.042969 11.082031 C 72.042969 9.816406 71.617188 8.652344 70.902344 7.71875 C 71.125 8.269531 71.25 8.871094 71.25 9.5 L 71.25 66.5 C 71.25 69.132812 69.132812 71.25 66.5 71.25 L 9.5 71.25 C 6.867188 71.25 4.75 69.132812 4.75 66.5 L 4.75 9.5 C 4.75 8.871094 4.875 8.269531 5.097656 7.71875 Z M 5.097656 7.71875 "/>
<path style=" stroke:none;fill-rule:nonzero;fill:url(#linear4);" d="M 4.75 66.5 L 4.75 67.292969 C 4.75 69.921875 6.867188 72.042969 9.5 72.042969 L 66.5 72.042969 C 69.132812 72.042969 71.25 69.921875 71.25 67.292969 L 71.25 66.5 C 71.25 69.132812 69.132812 71.25 66.5 71.25 L 9.5 71.25 C 6.867188 71.25 4.75 69.132812 4.75 66.5 Z M 4.75 66.5 "/>
<path style=" stroke:none;fill-rule:nonzero;fill:url(#linear5);" d="M 9.5 4.75 L 66.5 4.75 C 69.125 4.75 71.25 6.875 71.25 9.5 L 71.25 66.5 C 71.25 69.125 69.125 71.25 66.5 71.25 L 9.5 71.25 C 6.875 71.25 4.75 69.125 4.75 66.5 L 4.75 9.5 C 4.75 6.875 6.875 4.75 9.5 4.75 Z M 9.5 4.75 "/>
<path style=" stroke:none;fill-rule:nonzero;fill:url(#linear6);" d="M 9.5 4.75 C 6.867188 4.75 4.75 6.867188 4.75 9.5 L 4.75 66.5 C 4.75 66.765625 4.78125 67.015625 4.824219 67.265625 C 4.863281 67.5 4.902344 67.738281 4.972656 67.960938 C 4.980469 67.984375 4.988281 68.011719 4.996094 68.035156 C 5.074219 68.261719 5.183594 68.46875 5.292969 68.675781 C 5.410156 68.894531 5.542969 69.101562 5.691406 69.296875 C 5.835938 69.488281 5.984375 69.671875 6.160156 69.839844 C 6.507812 70.179688 6.90625 70.484375 7.347656 70.707031 C 7.566406 70.816406 7.800781 70.902344 8.039062 70.976562 C 7.835938 70.898438 7.65625 70.789062 7.472656 70.679688 C 7.464844 70.675781 7.453125 70.683594 7.445312 70.679688 C 7.421875 70.664062 7.398438 70.648438 7.371094 70.632812 C 7.277344 70.570312 7.191406 70.503906 7.101562 70.433594 C 7.015625 70.371094 6.929688 70.304688 6.851562 70.234375 C 6.710938 70.109375 6.578125 69.960938 6.457031 69.816406 C 6.371094 69.710938 6.285156 69.605469 6.210938 69.492188 C 6.191406 69.464844 6.179688 69.425781 6.160156 69.394531 C 6.109375 69.3125 6.058594 69.234375 6.011719 69.148438 C 5.933594 68.992188 5.847656 68.816406 5.789062 68.652344 C 5.78125 68.636719 5.769531 68.621094 5.765625 68.601562 C 5.738281 68.53125 5.734375 68.453125 5.714844 68.378906 C 5.691406 68.296875 5.660156 68.21875 5.640625 68.132812 C 5.582031 67.863281 5.542969 67.578125 5.542969 67.292969 L 5.542969 10.292969 C 5.542969 8.089844 7.296875 6.332031 9.5 6.332031 L 66.5 6.332031 C 68.703125 6.332031 70.457031 8.089844 70.457031 10.292969 L 70.457031 67.292969 C 70.457031 67.578125 70.417969 67.863281 70.359375 68.132812 C 70.324219 68.296875 70.289062 68.449219 70.234375 68.601562 C 70.230469 68.621094 70.21875 68.636719 70.210938 68.652344 C 70.160156 68.789062 70.101562 68.941406 70.039062 69.074219 C 70.003906 69.136719 69.976562 69.207031 69.9375 69.269531 C 69.894531 69.347656 69.839844 69.421875 69.789062 69.492188 C 69.714844 69.605469 69.628906 69.710938 69.542969 69.816406 C 69.429688 69.953125 69.304688 70.089844 69.171875 70.210938 C 69.164062 70.21875 69.15625 70.226562 69.148438 70.234375 C 69.039062 70.335938 68.921875 70.421875 68.800781 70.507812 C 68.71875 70.566406 68.640625 70.628906 68.554688 70.679688 C 68.546875 70.683594 68.535156 70.675781 68.527344 70.679688 C 68.34375 70.789062 68.164062 70.898438 67.960938 70.976562 C 68.199219 70.902344 68.433594 70.816406 68.652344 70.707031 C 69.09375 70.484375 69.492188 70.179688 69.839844 69.839844 C 70.015625 69.671875 70.164062 69.488281 70.308594 69.296875 C 70.457031 69.101562 70.589844 68.894531 70.707031 68.675781 C 70.816406 68.46875 70.925781 68.261719 71.003906 68.035156 C 71.011719 68.007812 71.019531 67.984375 71.027344 67.960938 C 71.097656 67.738281 71.136719 67.5 71.175781 67.265625 C 71.21875 67.015625 71.25 66.765625 71.25 66.5 L 71.25 9.5 C 71.25 6.867188 69.132812 4.75 66.5 4.75 Z M 9.5 4.75 "/>
<path style=" stroke:none;fill-rule:nonzero;fill:url(#radial0);" d="M 9.5 71.25 C 6.867188 71.25 4.75 69.132812 4.75 66.5 L 4.75 9.5 C 4.75 9.234375 4.78125 8.984375 4.824219 8.734375 C 4.863281 8.5 4.902344 8.261719 4.972656 8.039062 C 4.980469 8.015625 4.988281 7.988281 4.996094 7.964844 C 5.074219 7.738281 5.183594 7.53125 5.292969 7.324219 C 5.410156 7.105469 5.542969 6.898438 5.691406 6.703125 C 5.835938 6.511719 5.984375 6.328125 6.160156 6.160156 C 6.507812 5.820312 6.90625 5.515625 7.347656 5.292969 C 7.566406 5.183594 7.800781 5.097656 8.039062 5.023438 C 7.835938 5.101562 7.65625 5.210938 7.472656 5.320312 C 7.464844 5.324219 7.453125 5.316406 7.445312 5.320312 C 7.421875 5.335938 7.398438 5.351562 7.371094 5.367188 C 7.277344 5.429688 7.191406 5.496094 7.101562 5.566406 C 7.015625 5.628906 6.929688 5.695312 6.851562 5.765625 C 6.710938 5.890625 6.578125 6.039062 6.457031 6.183594 C 6.371094 6.289062 6.285156 6.394531 6.210938 6.507812 C 6.191406 6.535156 6.179688 6.574219 6.160156 6.605469 C 6.109375 6.6875 6.058594 6.765625 6.011719 6.851562 C 5.933594 7.007812 5.847656 7.183594 5.789062 7.347656 C 5.78125 7.363281 5.769531 7.378906 5.765625 7.398438 C 5.738281 7.46875 5.734375 7.546875 5.714844 7.621094 C 5.691406 7.703125 5.660156 7.78125 5.640625 7.867188 C 5.582031 8.136719 5.542969 8.421875 5.542969 8.707031 L 5.542969 65.707031 C 5.542969 67.910156 7.296875 69.667969 9.5 69.667969 L 66.5 69.667969 C 68.703125 69.667969 70.457031 67.910156 70.457031 65.707031 L 70.457031 8.707031 C 70.457031 8.421875 70.417969 8.136719 70.359375 7.867188 C 70.324219 7.703125 70.289062 7.550781 70.234375 7.398438 C 70.230469 7.378906 70.21875 7.363281 70.210938 7.347656 C 70.160156 7.210938 70.101562 7.058594 70.039062 6.925781 C 70.003906 6.863281 69.976562 6.792969 69.9375 6.730469 C 69.894531 6.652344 69.839844 6.578125 69.789062 6.507812 C 69.714844 6.394531 69.628906 6.289062 69.542969 6.183594 C 69.429688 6.046875 69.304688 5.910156 69.171875 5.789062 C 69.164062 5.78125 69.15625 5.773438 69.148438 5.765625 C 69.039062 5.664062 68.921875 5.578125 68.800781 5.492188 C 68.71875 5.433594 68.640625 5.371094 68.554688 5.320312 C 68.546875 5.316406 68.535156 5.324219 68.527344 5.320312 C 68.34375 5.210938 68.164062 5.101562 67.960938 5.023438 C 68.199219 5.097656 68.433594 5.183594 68.652344 5.292969 C 69.09375 5.515625 69.492188 5.820312 69.839844 6.160156 C 70.015625 6.328125 70.164062 6.511719 70.308594 6.703125 C 70.457031 6.898438 70.589844 7.105469 70.707031 7.324219 C 70.816406 7.53125 70.925781 7.738281 71.003906 7.964844 C 71.011719 7.992188 71.019531 8.015625 71.027344 8.039062 C 71.097656 8.261719 71.136719 8.5 71.175781 8.734375 C 71.21875 8.984375 71.25 9.234375 71.25 9.5 L 71.25 66.5 C 71.25 69.132812 69.132812 71.25 66.5 71.25 Z M 9.5 71.25 "/>
<path style=" stroke:none;fill-rule:nonzero;fill:rgb(86.27451%,86.27451%,86.27451%);fill-opacity:1;" d="M 12.667969 12.667969 L 12.667969 19 L 19 19 L 19 12.667969 Z M 19 19 L 19 25.332031 L 25.332031 25.332031 L 25.332031 19 Z M 25.332031 19 L 31.667969 19 L 31.667969 12.667969 L 25.332031 12.667969 Z M 31.667969 19 L 31.667969 25.332031 L 38 25.332031 L 38 19 Z M 38 19 L 44.332031 19 L 44.332031 12.667969 L 38 12.667969 Z M 44.332031 19 L 44.332031 25.332031 L 50.667969 25.332031 L 50.667969 19 Z M 50.667969 19 L 57 19 L 57 12.667969 L 50.667969 12.667969 Z M 57 19 L 57 25.332031 L 63.332031 25.332031 L 63.332031 19 Z M 57 25.332031 L 50.667969 25.332031 L 50.667969 31.667969 L 57 31.667969 Z M 57 31.667969 L 57 38 L 63.332031 38 L 63.332031 31.667969 Z M 57 38 L 50.667969 38 L 50.667969 44.332031 L 57 44.332031 Z M 57 44.332031 L 57 50.667969 L 63.332031 50.667969 L 63.332031 44.332031 Z M 57 50.667969 L 50.667969 50.667969 L 50.667969 57 L 57 57 Z M 57 57 L 57 63.332031 L 63.332031 63.332031 L 63.332031 57 Z M 50.667969 57 L 44.332031 57 L 44.332031 63.332031 L 50.667969 63.332031 Z M 44.332031 57 L 44.332031 50.667969 L 38 50.667969 L 38 57 Z M 38 57 L 31.667969 57 L 31.667969 63.332031 L 38 63.332031 Z M 31.667969 57 L 31.667969 50.667969 L 25.332031 50.667969 L 25.332031 57 Z M 25.332031 57 L 19 57 L 19 63.332031 L 25.332031 63.332031 Z M 19 57 L 19 50.667969 L 12.667969 50.667969 L 12.667969 57 Z M 19 50.667969 L 25.332031 50.667969 L 25.332031 44.332031 L 19 44.332031 Z M 19 44.332031 L 19 38 L 12.667969 38 L 12.667969 44.332031 Z M 19 38 L 25.332031 38 L 25.332031 31.667969 L 19 31.667969 Z M 19 31.667969 L 19 25.332031 L 12.667969 25.332031 L 12.667969 31.667969 Z M 25.332031 31.667969 L 31.667969 31.667969 L 31.667969 25.332031 L 25.332031 25.332031 Z M 31.667969 31.667969 L 31.667969 38 L 38 38 L 38 31.667969 Z M 38 31.667969 L 44.332031 31.667969 L 44.332031 25.332031 L 38 25.332031 Z M 44.332031 31.667969 L 44.332031 38 L 50.667969 38 L 50.667969 31.667969 Z M 44.332031 38 L 38 38 L 38 44.332031 L 44.332031 44.332031 Z M 44.332031 44.332031 L 44.332031 50.667969 L 50.667969 50.667969 L 50.667969 44.332031 Z M 38 44.332031 L 31.667969 44.332031 L 31.667969 50.667969 L 38 50.667969 Z M 31.667969 44.332031 L 31.667969 38 L 25.332031 38 L 25.332031 44.332031 Z M 31.667969 44.332031 "/>
<path style=" stroke:none;fill-rule:nonzero;fill:rgb(0%,0%,0%);fill-opacity:0.0509804;" d="M 37.996094 16.671875 C 26.246094 16.671875 16.667969 26.246094 16.667969 37.996094 C 16.667969 49.746094 26.246094 59.324219 37.996094 59.324219 C 49.746094 59.324219 59.320312 49.746094 59.320312 37.996094 C 59.320312 26.246094 49.746094 16.671875 37.996094 16.671875 Z M 37.996094 16.671875 "/>
<path style=" stroke:none;fill-rule:nonzero;fill:rgb(0%,0%,0%);fill-opacity:0.101961;" d="M 37.996094 17.390625 C 26.632812 17.390625 17.390625 26.636719 17.390625 37.996094 C 17.390625 49.359375 26.632812 58.605469 37.996094 58.605469 C 49.359375 58.605469 58.601562 49.359375 58.601562 37.996094 C 58.601562 26.636719 49.359375 17.390625 37.996094 17.390625 Z M 37.996094 17.390625 "/>
<path style=" stroke:none;fill-rule:nonzero;fill:rgb(0%,0%,0%);fill-opacity:0.14902;" d="M 37.996094 18.191406 C 27.066406 18.191406 18.191406 27.066406 18.191406 37.996094 C 18.191406 48.925781 27.066406 57.800781 37.996094 57.800781 C 48.925781 57.800781 57.800781 48.925781 57.800781 37.996094 C 57.800781 27.066406 48.925781 18.191406 37.996094 18.191406 Z M 37.996094 18.191406 "/>
<use xlink:href="#surface6" mask="url(#mask0)"/>
<path style=" stroke:none;fill-rule:nonzero;fill:url(#radial1);" d="M 57 37.210938 C 57 47.707031 48.496094 56.210938 38 56.210938 C 27.507812 56.210938 19 47.707031 19 37.210938 C 19 26.71875 27.507812 18.210938 38 18.210938 C 48.496094 18.210938 57 26.71875 57 37.210938 Z M 57 37.210938 "/>
<path style=" stroke:none;fill-rule:nonzero;fill:url(#linear7);" d="M 54.011719 37.199219 C 54.011719 28.359375 46.839844 21.191406 38.003906 21.191406 C 29.164062 21.191406 21.992188 28.359375 21.992188 37.199219 C 21.992188 46.039062 29.164062 53.210938 38.003906 53.210938 C 46.839844 53.210938 54.011719 46.039062 54.011719 37.199219 Z M 54.011719 37.199219 "/>
<path style=" stroke:none;fill-rule:nonzero;fill:rgb(100%,100%,100%);fill-opacity:1;" d="M 52.476562 37.210938 C 52.476562 45.207031 45.996094 51.6875 38 51.6875 C 30.003906 51.6875 23.523438 45.207031 23.523438 37.210938 C 23.523438 29.214844 30.003906 22.734375 38 22.734375 C 45.996094 22.734375 52.476562 29.214844 52.476562 37.210938 Z M 52.476562 37.210938 "/>
<path style=" stroke:none;fill-rule:nonzero;fill:rgb(0%,0%,0%);fill-opacity:0.14902;" d="M 38 22.730469 C 30.003906 22.730469 23.523438 29.214844 23.523438 37.207031 C 23.523438 45.203125 30.003906 51.683594 38 51.683594 C 45.996094 51.683594 52.476562 45.203125 52.476562 37.207031 C 52.476562 29.214844 45.996094 22.730469 38 22.730469 Z M 38 24.511719 C 45.015625 24.511719 50.695312 30.191406 50.695312 37.207031 C 50.695312 44.226562 45.015625 49.902344 38 49.902344 C 30.984375 49.902344 25.304688 44.226562 25.304688 37.207031 C 25.304688 30.191406 30.984375 24.511719 38 24.511719 Z M 38 24.511719 "/>
<path style=" stroke:none;fill-rule:nonzero;fill:url(#radial2);" d="M 52.78125 37.1875 C 52.78125 45.351562 46.164062 51.972656 38 51.972656 C 29.835938 51.972656 23.21875 45.351562 23.21875 37.1875 C 23.21875 29.023438 29.835938 22.40625 38 22.40625 C 46.164062 22.40625 52.78125 29.023438 52.78125 37.1875 Z M 52.78125 37.1875 "/>
<path style=" stroke:none;fill-rule:nonzero;fill:rgb(0%,0%,0%);fill-opacity:0.501961;" d="M 38 22.558594 C 29.90625 22.558594 23.347656 29.113281 23.347656 37.207031 C 23.347656 45.300781 29.90625 51.859375 38 51.859375 C 46.09375 51.859375 52.648438 45.300781 52.648438 37.207031 C 52.648438 29.113281 46.09375 22.558594 38 22.558594 Z M 38 22.957031 C 45.863281 22.957031 52.222656 29.34375 52.222656 37.207031 C 52.222656 45.074219 45.863281 51.457031 38 51.457031 C 30.132812 51.457031 23.773438 45.074219 23.773438 37.207031 C 23.773438 29.34375 30.132812 22.957031 38 22.957031 Z M 38 22.957031 "/>
<path style=" stroke:none;fill-rule:nonzero;fill:rgb(83.137255%,0%,0%);fill-opacity:1;" d="M 45.398438 44.023438 L 44.757812 44.664062 L 38.359375 38.265625 L 39 37.625 Z M 45.398438 44.023438 "/>
<path style=" stroke:none;fill-rule:nonzero;fill:rgb(0%,0%,0%);fill-opacity:1;" d="M 39.808594 37.207031 C 39.808594 38.207031 39 39.019531 38 39.019531 C 37 39.019531 36.191406 38.207031 36.191406 37.207031 C 36.191406 36.207031 37 35.398438 38 35.398438 C 39 35.398438 39.808594 36.207031 39.808594 37.207031 Z M 39.808594 37.207031 "/>
<path style=" stroke:none;fill-rule:nonzero;fill:rgb(0%,0%,0%);fill-opacity:1;" d="M 29.863281 37.136719 L 33.421875 36.664062 L 37.074219 36.230469 L 37.167969 37.136719 L 37.074219 38.039062 L 33.421875 37.605469 Z M 29.863281 37.136719 "/>
<path style=" stroke:none;fill-rule:nonzero;fill:rgb(100%,100%,100%);fill-opacity:1;" d="M 38.894531 37.207031 C 38.894531 37.703125 38.496094 38.105469 38 38.105469 C 37.503906 38.105469 37.105469 37.703125 37.105469 37.207031 C 37.105469 36.714844 37.503906 36.3125 38 36.3125 C 38.496094 36.3125 38.894531 36.714844 38.894531 37.207031 Z M 38.894531 37.207031 "/>
<path style=" stroke:none;fill-rule:nonzero;fill:rgb(70.196078%,70.196078%,70.196078%);fill-opacity:1;" d="M 28.007812 32.351562 C 27.628906 32.132812 27.5 31.648438 27.71875 31.269531 C 27.9375 30.890625 28.421875 30.761719 28.800781 30.980469 C 29.175781 31.199219 29.308594 31.683594 29.089844 32.0625 C 28.871094 32.441406 28.386719 32.570312 28.007812 32.351562 Z M 28.007812 32.351562 "/>
<path style=" stroke:none;fill-rule:nonzero;fill:rgb(70.196078%,70.196078%,70.196078%);fill-opacity:1;" d="M 31.773438 28.007812 C 31.554688 27.628906 31.683594 27.144531 32.0625 26.925781 C 32.441406 26.707031 32.925781 26.835938 33.144531 27.214844 C 33.363281 27.59375 33.230469 28.078125 32.855469 28.296875 C 32.476562 28.515625 31.992188 28.386719 31.773438 28.007812 Z M 31.773438 28.007812 "/>
<path style=" stroke:none;fill-rule:nonzero;fill:rgb(70.196078%,70.196078%,70.196078%);fill-opacity:1;" d="M 42.855469 27.214844 C 43.074219 26.835938 43.558594 26.707031 43.9375 26.925781 C 44.316406 27.144531 44.445312 27.628906 44.226562 28.007812 C 44.007812 28.386719 43.523438 28.515625 43.144531 28.296875 C 42.765625 28.078125 42.636719 27.59375 42.855469 27.214844 Z M 42.855469 27.214844 "/>
<path style=" stroke:none;fill-rule:nonzero;fill:rgb(70.196078%,70.196078%,70.196078%);fill-opacity:1;" d="M 47.203125 30.980469 C 47.582031 30.761719 48.066406 30.890625 48.285156 31.269531 C 48.503906 31.648438 48.371094 32.132812 47.996094 32.351562 C 47.617188 32.570312 47.132812 32.441406 46.914062 32.0625 C 46.695312 31.683594 46.824219 31.199219 47.203125 30.980469 Z M 47.203125 30.980469 "/>
<path style=" stroke:none;fill-rule:nonzero;fill:rgb(70.196078%,70.196078%,70.196078%);fill-opacity:1;" d="M 47.996094 42.0625 C 48.371094 42.28125 48.503906 42.765625 48.285156 43.144531 C 48.066406 43.523438 47.582031 43.652344 47.203125 43.433594 C 46.824219 43.214844 46.695312 42.730469 46.914062 42.355469 C 47.132812 41.976562 47.617188 41.84375 47.996094 42.0625 Z M 47.996094 42.0625 "/>
<path style=" stroke:none;fill-rule:nonzero;fill:rgb(70.196078%,70.196078%,70.196078%);fill-opacity:1;" d="M 44.226562 46.410156 C 44.445312 46.789062 44.316406 47.273438 43.9375 47.492188 C 43.558594 47.710938 43.074219 47.582031 42.855469 47.203125 C 42.636719 46.824219 42.765625 46.339844 43.144531 46.121094 C 43.523438 45.902344 44.007812 46.03125 44.226562 46.410156 Z M 44.226562 46.410156 "/>
<path style=" stroke:none;fill-rule:nonzero;fill:rgb(70.196078%,70.196078%,70.196078%);fill-opacity:1;" d="M 33.144531 47.203125 C 32.925781 47.582031 32.441406 47.710938 32.0625 47.492188 C 31.683594 47.273438 31.554688 46.789062 31.773438 46.410156 C 31.992188 46.03125 32.476562 45.902344 32.855469 46.121094 C 33.230469 46.339844 33.363281 46.824219 33.144531 47.203125 Z M 33.144531 47.203125 "/>
<path style=" stroke:none;fill-rule:nonzero;fill:rgb(70.196078%,70.196078%,70.196078%);fill-opacity:1;" d="M 28.800781 43.433594 C 28.421875 43.652344 27.9375 43.523438 27.71875 43.144531 C 27.5 42.765625 27.628906 42.28125 28.007812 42.0625 C 28.386719 41.84375 28.871094 41.976562 29.089844 42.355469 C 29.308594 42.730469 29.175781 43.214844 28.800781 43.433594 Z M 28.800781 43.433594 "/>
<path style=" stroke:none;fill-rule:nonzero;fill:rgb(40%,40%,40%);fill-opacity:1;" d="M 37.207031 26.125 C 37.207031 25.6875 37.5625 25.332031 38 25.332031 C 38.4375 25.332031 38.792969 25.6875 38.792969 26.125 C 38.792969 26.5625 38.4375 26.917969 38 26.917969 C 37.5625 26.917969 37.207031 26.5625 37.207031 26.125 Z M 37.207031 26.125 "/>
<path style=" stroke:none;fill-rule:nonzero;fill:rgb(40%,40%,40%);fill-opacity:1;" d="M 38.792969 48.292969 C 38.792969 48.730469 38.4375 49.082031 38 49.082031 C 37.5625 49.082031 37.207031 48.730469 37.207031 48.292969 C 37.207031 47.855469 37.5625 47.5 38 47.5 C 38.4375 47.5 38.792969 47.855469 38.792969 48.292969 Z M 38.792969 48.292969 "/>
<path style=" stroke:none;fill-rule:nonzero;fill:rgb(40%,40%,40%);fill-opacity:1;" d="M 49.082031 36.417969 C 49.519531 36.417969 49.875 36.769531 49.875 37.207031 C 49.875 37.644531 49.519531 38 49.082031 38 C 48.644531 38 48.292969 37.644531 48.292969 37.207031 C 48.292969 36.769531 48.644531 36.417969 49.082031 36.417969 Z M 49.082031 36.417969 "/>
<path style=" stroke:none;fill-rule:nonzero;fill:rgb(40%,40%,40%);fill-opacity:1;" d="M 26.917969 38 C 26.480469 38 26.125 37.644531 26.125 37.207031 C 26.125 36.769531 26.480469 36.417969 26.917969 36.417969 C 27.355469 36.417969 27.707031 36.769531 27.707031 37.207031 C 27.707031 37.644531 27.355469 38 26.917969 38 Z M 26.917969 38 "/>
<path style=" stroke:none;fill-rule:nonzero;fill:rgb(0%,0%,0%);fill-opacity:1;" d="M 44.042969 26.933594 L 41.773438 31.804688 L 39.402344 36.777344 L 38.546875 36.453125 L 37.835938 35.875 L 40.957031 31.332031 Z M 44.042969 26.933594 "/>
</g>
</svg>
