<?xml version="1.0" encoding="UTF-8"?>
<svg xmlns="http://www.w3.org/2000/svg" xmlns:xlink="http://www.w3.org/1999/xlink" width="76pt" height="76pt" viewBox="0 0 76 76" version="1.1">
<defs>
<linearGradient id="linear0" gradientUnits="userSpaceOnUse" x1="0" y1="6.132" x2="0" y2="90.24" gradientTransform="matrix(0.810516,0,0,-0.801087,-0.904875,77.63875)">
<stop offset="0" style="stop-color:rgb(0%,0%,0%);stop-opacity:0.0784314;"/>
<stop offset="1" style="stop-color:rgb(0%,0%,0%);stop-opacity:0.0461361;"/>
</linearGradient>
<linearGradient id="linear1" gradientUnits="userSpaceOnUse" x1="0" y1="6.132" x2="0" y2="90.24" gradientTransform="matrix(0.810516,0,0,-0.801087,-0.904875,77.63875)">
<stop offset="0" style="stop-color:rgb(0%,0%,0%);stop-opacity:0.101961;"/>
<stop offset="1" style="stop-color:rgb(0%,0%,0%);stop-opacity:0.0599769;"/>
</linearGradient>
<linearGradient id="linear2" gradientUnits="userSpaceOnUse" x1="0" y1="6.132" x2="0" y2="90.24" gradientTransform="matrix(0.810516,0,0,-0.801087,-0.904875,77.63875)">
<stop offset="0" style="stop-color:rgb(0%,0%,0%);stop-opacity:0.2;"/>
<stop offset="1" style="stop-color:rgb(0%,0%,0%);stop-opacity:0.117647;"/>
</linearGradient>
<linearGradient id="linear3" gradientUnits="userSpaceOnUse" x1="0" y1="6.132" x2="0" y2="90.24" gradientTransform="matrix(0.810516,0,0,-0.801087,-0.904875,77.63875)">
<stop offset="0" style="stop-color:rgb(0%,0%,0%);stop-opacity:0.298039;"/>
<stop offset="1" style="stop-color:rgb(0%,0%,0%);stop-opacity:0.175317;"/>
</linearGradient>
<linearGradient id="linear4" gradientUnits="userSpaceOnUse" x1="0" y1="6.132" x2="0" y2="90.24" gradientTransform="matrix(0.791667,0,0,-0.791667,0,76.791667)">
<stop offset="0" style="stop-color:rgb(0%,0%,0%);stop-opacity:0.45098;"/>
<stop offset="1" style="stop-color:rgb(0%,0%,0%);stop-opacity:0.265283;"/>
</linearGradient>
<linearGradient id="linear5" gradientUnits="userSpaceOnUse" x1="0" y1="90" x2="0" y2="5.988" gradientTransform="matrix(0.791667,0,0,0.791667,0,0)">
<stop offset="0" style="stop-color:rgb(90.196078%,90.196078%,90.196078%);stop-opacity:1;"/>
<stop offset="1" style="stop-color:rgb(96.078431%,96.078431%,96.078431%);stop-opacity:1;"/>
</linearGradient>
<linearGradient id="linear6" gradientUnits="userSpaceOnUse" x1="0" y1="6" x2="0" y2="63.893" gradientTransform="matrix(0.791667,0,0,0.791667,0,0)">
<stop offset="0" style="stop-color:rgb(100%,100%,100%);stop-opacity:0.501961;"/>
<stop offset="1" style="stop-color:rgb(100%,100%,100%);stop-opacity:0;"/>
</linearGradient>
<radialGradient id="radial0" gradientUnits="userSpaceOnUse" cx="48" cy="90.17" fx="48" fy="90.17" r="42" gradientTransform="matrix(0.916204,0,0,0.788429,-5.977875,0.155958)">
<stop offset="0" style="stop-color:rgb(100%,100%,100%);stop-opacity:0.4;"/>
<stop offset="1" style="stop-color:rgb(100%,100%,100%);stop-opacity:0;"/>
</radialGradient>
<clipPath id="clip1">
  <path d="M 9 15 L 67 15 L 67 61 L 9 61 Z M 9 15 "/>
</clipPath>
<clipPath id="clip2">
  <path d="M 11.875 15.832031 L 64.125 15.832031 C 65.4375 15.832031 66.5 16.898438 66.5 18.207031 L 66.5 57.792969 C 66.5 59.101562 65.4375 60.167969 64.125 60.167969 L 11.875 60.167969 C 10.5625 60.167969 9.5 59.101562 9.5 57.792969 L 9.5 18.207031 C 9.5 16.898438 10.5625 15.832031 11.875 15.832031 Z M 11.875 15.832031 "/>
</clipPath>
<linearGradient id="linear7" gradientUnits="userSpaceOnUse" x1="0" y1="48" x2="0" y2="72" spreadMethod="reflect" gradientTransform="matrix(0.791667,0,0,0.791667,0,0)">
<stop offset="0" style="stop-color:rgb(6.27451%,6.27451%,6.27451%);stop-opacity:1;"/>
<stop offset="1" style="stop-color:rgb(27.058824%,27.058824%,27.058824%);stop-opacity:1;"/>
</linearGradient>
<linearGradient id="linear8" gradientUnits="userSpaceOnUse" x1="0" y1="56" x2="0" y2="0" gradientTransform="matrix(0.791667,0,0,0.791667,0,0)">
<stop offset="0" style="stop-color:rgb(100%,100%,100%);stop-opacity:0.2;"/>
<stop offset="1" style="stop-color:rgb(100%,100%,100%);stop-opacity:0;"/>
</linearGradient>
<linearGradient id="linear9" gradientUnits="userSpaceOnUse" x1="0" y1="80" x2="0" y2="-40.07" gradientTransform="matrix(0.791667,0,0,0.791667,-15.833333,0)">
<stop offset="0" style="stop-color:rgb(0%,0%,0%);stop-opacity:0.298039;"/>
<stop offset="1" style="stop-color:rgb(0%,0%,0%);stop-opacity:0;"/>
</linearGradient>
<linearGradient id="linear10" gradientUnits="userSpaceOnUse" x1="0" y1="121.37" x2="0" y2="6.634" gradientTransform="matrix(0.36607,0,0,0.36607,24.571,24.571)">
<stop offset="0" style="stop-color:rgb(72.941176%,0%,0%);stop-opacity:1;"/>
<stop offset="1" style="stop-color:rgb(100%,20%,11.764706%);stop-opacity:1;"/>
</linearGradient>
<linearGradient id="linear11" gradientUnits="userSpaceOnUse" x1="0" y1="28" x2="0" y2="91.01" gradientTransform="matrix(0.791667,0,0,0.791667,0,0)">
<stop offset="0" style="stop-color:rgb(100%,96.470588%,83.529412%);stop-opacity:0.501961;"/>
<stop offset="1" style="stop-color:rgb(100%,96.470588%,83.529412%);stop-opacity:0;"/>
</linearGradient>
</defs>
<g id="surface1">
<path style=" stroke:none;fill-rule:nonzero;fill:url(#linear0);" d="M 9.5 75.234375 C 5.136719 75.234375 1.558594 71.65625 1.558594 67.292969 L 1.558594 11.082031 C 1.558594 6.71875 5.136719 3.140625 9.5 3.140625 L 66.5 3.140625 C 70.863281 3.140625 74.441406 6.71875 74.441406 11.082031 L 74.441406 67.292969 C 74.441406 71.65625 70.863281 75.234375 66.5 75.234375 Z M 9.5 75.234375 "/>
<path style=" stroke:none;fill-rule:nonzero;fill:url(#linear1);" d="M 9.5 74.441406 C 5.5625 74.441406 2.351562 71.226562 2.351562 67.292969 L 2.351562 11.082031 C 2.351562 7.148438 5.5625 3.933594 9.5 3.933594 L 66.5 3.933594 C 70.4375 3.933594 73.648438 7.148438 73.648438 11.082031 L 73.648438 67.292969 C 73.648438 71.226562 70.4375 74.441406 66.5 74.441406 Z M 9.5 74.441406 "/>
<path style=" stroke:none;fill-rule:nonzero;fill:url(#linear2);" d="M 9.5 73.625 C 6.007812 73.625 3.167969 70.78125 3.167969 67.292969 L 3.167969 11.082031 C 3.167969 7.59375 6.007812 4.75 9.5 4.75 L 66.5 4.75 C 69.992188 4.75 72.832031 7.59375 72.832031 11.082031 L 72.832031 67.292969 C 72.832031 70.78125 69.992188 73.625 66.5 73.625 Z M 9.5 73.625 "/>
<path style=" stroke:none;fill-rule:nonzero;fill:url(#linear3);" d="M 9.5 72.832031 L 66.5 72.832031 C 69.5625 72.832031 72.042969 70.351562 72.042969 67.292969 L 72.042969 11.082031 C 72.042969 8.023438 69.5625 5.542969 66.5 5.542969 L 9.5 5.542969 C 6.4375 5.542969 3.957031 8.023438 3.957031 11.082031 L 3.957031 67.292969 C 3.957031 70.351562 6.4375 72.832031 9.5 72.832031 Z M 9.5 72.832031 "/>
<path style=" stroke:none;fill-rule:nonzero;fill:url(#linear4);" d="M 9.5 72.042969 L 66.5 72.042969 C 69.125 72.042969 71.25 69.914062 71.25 67.292969 L 71.25 10.292969 C 71.25 7.667969 69.125 5.542969 66.5 5.542969 L 9.5 5.542969 C 6.875 5.542969 4.75 7.667969 4.75 10.292969 L 4.75 67.292969 C 4.75 69.914062 6.875 72.042969 9.5 72.042969 Z M 9.5 72.042969 "/>
<path style=" stroke:none;fill-rule:nonzero;fill:url(#linear5);" d="M 9.5 4.75 L 66.5 4.75 C 69.125 4.75 71.25 6.875 71.25 9.5 L 71.25 66.5 C 71.25 69.125 69.125 71.25 66.5 71.25 L 9.5 71.25 C 6.875 71.25 4.75 69.125 4.75 66.5 L 4.75 9.5 C 4.75 6.875 6.875 4.75 9.5 4.75 Z M 9.5 4.75 "/>
<path style=" stroke:none;fill-rule:nonzero;fill:url(#linear6);" d="M 9.5 4.75 C 6.867188 4.75 4.75 6.867188 4.75 9.5 L 4.75 66.5 C 4.75 66.765625 4.78125 67.015625 4.824219 67.265625 C 4.863281 67.5 4.902344 67.738281 4.972656 67.960938 C 4.980469 67.984375 4.988281 68.011719 4.996094 68.035156 C 5.074219 68.261719 5.183594 68.46875 5.292969 68.675781 C 5.410156 68.894531 5.542969 69.101562 5.691406 69.296875 C 5.835938 69.488281 5.984375 69.671875 6.160156 69.839844 C 6.507812 70.179688 6.90625 70.484375 7.347656 70.707031 C 7.566406 70.816406 7.800781 70.902344 8.039062 70.976562 C 7.835938 70.898438 7.65625 70.789062 7.472656 70.679688 C 7.464844 70.675781 7.453125 70.683594 7.445312 70.679688 C 7.421875 70.664062 7.398438 70.648438 7.371094 70.632812 C 7.277344 70.570312 7.191406 70.503906 7.101562 70.433594 C 7.015625 70.371094 6.929688 70.304688 6.851562 70.234375 C 6.710938 70.109375 6.578125 69.960938 6.457031 69.816406 C 6.371094 69.710938 6.285156 69.605469 6.210938 69.492188 C 6.191406 69.464844 6.179688 69.425781 6.160156 69.394531 C 6.109375 69.3125 6.058594 69.234375 6.011719 69.148438 C 5.933594 68.992188 5.847656 68.816406 5.789062 68.652344 C 5.78125 68.636719 5.769531 68.621094 5.765625 68.601562 C 5.738281 68.53125 5.734375 68.453125 5.714844 68.378906 C 5.691406 68.296875 5.660156 68.21875 5.640625 68.132812 C 5.582031 67.863281 5.542969 67.578125 5.542969 67.292969 L 5.542969 10.292969 C 5.542969 8.089844 7.296875 6.332031 9.5 6.332031 L 66.5 6.332031 C 68.703125 6.332031 70.457031 8.089844 70.457031 10.292969 L 70.457031 67.292969 C 70.457031 67.578125 70.417969 67.863281 70.359375 68.132812 C 70.324219 68.296875 70.289062 68.449219 70.234375 68.601562 C 70.230469 68.621094 70.21875 68.636719 70.210938 68.652344 C 70.160156 68.789062 70.101562 68.941406 70.039062 69.074219 C 70.003906 69.136719 69.976562 69.207031 69.9375 69.269531 C 69.894531 69.347656 69.839844 69.421875 69.789062 69.492188 C 69.714844 69.605469 69.628906 69.710938 69.542969 69.816406 C 69.429688 69.953125 69.304688 70.089844 69.171875 70.210938 C 69.164062 70.21875 69.15625 70.226562 69.148438 70.234375 C 69.039062 70.335938 68.921875 70.421875 68.800781 70.507812 C 68.71875 70.566406 68.640625 70.628906 68.554688 70.679688 C 68.546875 70.683594 68.535156 70.675781 68.527344 70.679688 C 68.34375 70.789062 68.164062 70.898438 67.960938 70.976562 C 68.199219 70.902344 68.433594 70.816406 68.652344 70.707031 C 69.09375 70.484375 69.492188 70.179688 69.839844 69.839844 C 70.015625 69.671875 70.164062 69.488281 70.308594 69.296875 C 70.457031 69.101562 70.589844 68.894531 70.707031 68.675781 C 70.816406 68.46875 70.925781 68.261719 71.003906 68.035156 C 71.011719 68.007812 71.019531 67.984375 71.027344 67.960938 C 71.097656 67.738281 71.136719 67.5 71.175781 67.265625 C 71.21875 67.015625 71.25 66.765625 71.25 66.5 L 71.25 9.5 C 71.25 6.867188 69.132812 4.75 66.5 4.75 Z M 9.5 4.75 "/>
<path style=" stroke:none;fill-rule:nonzero;fill:url(#radial0);" d="M 9.5 71.25 C 6.867188 71.25 4.75 69.132812 4.75 66.5 L 4.75 9.5 C 4.75 9.234375 4.78125 8.984375 4.824219 8.734375 C 4.863281 8.5 4.902344 8.261719 4.972656 8.039062 C 4.980469 8.015625 4.988281 7.988281 4.996094 7.964844 C 5.074219 7.738281 5.183594 7.53125 5.292969 7.324219 C 5.410156 7.105469 5.542969 6.898438 5.691406 6.703125 C 5.835938 6.511719 5.984375 6.328125 6.160156 6.160156 C 6.507812 5.820312 6.90625 5.515625 7.347656 5.292969 C 7.566406 5.183594 7.800781 5.097656 8.039062 5.023438 C 7.835938 5.101562 7.65625 5.210938 7.472656 5.320312 C 7.464844 5.324219 7.453125 5.316406 7.445312 5.320312 C 7.421875 5.335938 7.398438 5.351562 7.371094 5.367188 C 7.277344 5.429688 7.191406 5.496094 7.101562 5.566406 C 7.015625 5.628906 6.929688 5.695312 6.851562 5.765625 C 6.710938 5.890625 6.578125 6.039062 6.457031 6.183594 C 6.371094 6.289062 6.285156 6.394531 6.210938 6.507812 C 6.191406 6.535156 6.179688 6.574219 6.160156 6.605469 C 6.109375 6.6875 6.058594 6.765625 6.011719 6.851562 C 5.933594 7.007812 5.847656 7.183594 5.789062 7.347656 C 5.78125 7.363281 5.769531 7.378906 5.765625 7.398438 C 5.738281 7.46875 5.734375 7.546875 5.714844 7.621094 C 5.691406 7.703125 5.660156 7.78125 5.640625 7.867188 C 5.582031 8.136719 5.542969 8.421875 5.542969 8.707031 L 5.542969 65.707031 C 5.542969 67.910156 7.296875 69.667969 9.5 69.667969 L 66.5 69.667969 C 68.703125 69.667969 70.457031 67.910156 70.457031 65.707031 L 70.457031 8.707031 C 70.457031 8.421875 70.417969 8.136719 70.359375 7.867188 C 70.324219 7.703125 70.289062 7.550781 70.234375 7.398438 C 70.230469 7.378906 70.21875 7.363281 70.210938 7.347656 C 70.160156 7.210938 70.101562 7.058594 70.039062 6.925781 C 70.003906 6.863281 69.976562 6.792969 69.9375 6.730469 C 69.894531 6.652344 69.839844 6.578125 69.789062 6.507812 C 69.714844 6.394531 69.628906 6.289062 69.542969 6.183594 C 69.429688 6.046875 69.304688 5.910156 69.171875 5.789062 C 69.164062 5.78125 69.15625 5.773438 69.148438 5.765625 C 69.039062 5.664062 68.921875 5.578125 68.800781 5.492188 C 68.71875 5.433594 68.640625 5.371094 68.554688 5.320312 C 68.546875 5.316406 68.535156 5.324219 68.527344 5.320312 C 68.34375 5.210938 68.164062 5.101562 67.960938 5.023438 C 68.199219 5.097656 68.433594 5.183594 68.652344 5.292969 C 69.09375 5.515625 69.492188 5.820312 69.839844 6.160156 C 70.015625 6.328125 70.164062 6.511719 70.308594 6.703125 C 70.457031 6.898438 70.589844 7.105469 70.707031 7.324219 C 70.816406 7.53125 70.925781 7.738281 71.003906 7.964844 C 71.011719 7.992188 71.019531 8.015625 71.027344 8.039062 C 71.097656 8.261719 71.136719 8.5 71.175781 8.734375 C 71.21875 8.984375 71.25 9.234375 71.25 9.5 L 71.25 66.5 C 71.25 69.132812 69.132812 71.25 66.5 71.25 Z M 9.5 71.25 "/>
<g clip-path="url(#clip1)" clip-rule="nonzero">
<g clip-path="url(#clip2)" clip-rule="nonzero">
<path style=" stroke:none;fill-rule:nonzero;fill:url(#linear7);" d="M 9.5 15.832031 L 66.5 15.832031 L 66.5 60.167969 L 9.5 60.167969 Z M 9.5 15.832031 "/>
</g>
</g>
<path style=" stroke:none;fill-rule:nonzero;fill:rgb(0%,0%,0%);fill-opacity:0.101961;" d="M 38 20.707031 C 28.035156 20.707031 19.914062 28.824219 19.914062 38.792969 C 19.914062 48.757812 28.035156 56.875 38 56.875 C 47.964844 56.875 56.085938 48.757812 56.085938 38.792969 C 56.085938 28.824219 47.964844 20.707031 38 20.707031 Z M 38 30.207031 C 42.753906 30.207031 46.585938 34.039062 46.585938 38.792969 C 46.585938 38.992188 46.480469 39.246094 46.4375 39.460938 L 37.332031 30.355469 C 37.542969 30.3125 37.800781 30.207031 38 30.207031 Z M 29.589844 37.726562 L 39.0625 47.203125 C 38.710938 47.265625 38.355469 47.375 38 47.375 C 33.246094 47.375 29.414062 43.542969 29.414062 38.792969 C 29.414062 38.4375 29.527344 38.078125 29.589844 37.726562 Z M 29.589844 37.726562 "/>
<path style=" stroke:none;fill-rule:nonzero;fill:rgb(0%,0%,0%);fill-opacity:0.14902;" d="M 38 21.351562 C 28.382812 21.351562 20.558594 29.175781 20.558594 38.792969 C 20.558594 48.40625 28.382812 56.234375 38 56.234375 C 47.617188 56.234375 55.441406 48.40625 55.441406 38.792969 C 55.441406 29.175781 47.617188 21.351562 38 21.351562 Z M 38 29.5625 C 43.101562 29.5625 47.226562 33.691406 47.226562 38.792969 C 47.226562 39.480469 46.988281 40.101562 46.832031 40.746094 L 36.046875 29.960938 C 36.6875 29.800781 37.3125 29.5625 38 29.5625 Z M 29.167969 36.417969 L 40.375 47.625 C 39.609375 47.847656 38.828125 48.019531 38 48.019531 C 32.898438 48.019531 28.773438 43.894531 28.773438 38.792969 C 28.773438 37.964844 28.941406 37.183594 29.167969 36.417969 Z M 29.167969 36.417969 "/>
<path style=" stroke:none;fill-rule:nonzero;fill:url(#linear8);" d="M 9.5 4.75 C 6.867188 4.75 4.75 6.867188 4.75 9.5 L 4.75 51.753906 C 17.148438 43.007812 38.738281 37.207031 63.332031 37.207031 C 66.011719 37.207031 68.652344 37.296875 71.25 37.429688 L 71.25 9.5 C 71.25 6.867188 69.132812 4.75 66.5 4.75 Z M 9.5 4.75 "/>
<path style=" stroke:none;fill-rule:nonzero;fill:rgb(0%,0%,0%);fill-opacity:0.298039;" d="M 38 22.117188 C 28.796875 22.117188 21.324219 29.589844 21.324219 38.792969 C 21.324219 47.992188 28.796875 55.464844 38 55.464844 C 47.203125 55.464844 54.675781 47.992188 54.675781 38.792969 C 54.675781 29.589844 47.203125 22.117188 38 22.117188 Z M 38 28.796875 C 43.515625 28.796875 47.996094 33.277344 47.996094 38.792969 C 47.996094 40.039062 47.726562 41.203125 47.300781 42.304688 L 34.488281 29.488281 C 35.589844 29.066406 36.75 28.796875 38 28.796875 Z M 28.820312 34.980469 L 41.808594 47.96875 C 40.628906 48.464844 39.359375 48.785156 38 48.785156 C 32.484375 48.785156 28.003906 44.308594 28.003906 38.792969 C 28.003906 37.433594 28.328125 36.164062 28.820312 34.980469 Z M 28.820312 34.980469 "/>
<path style=" stroke:none;fill-rule:nonzero;fill:url(#linear9);" d="M 11.875 15.832031 C 10.558594 15.832031 9.5 16.894531 9.5 18.207031 L 9.5 57.792969 C 9.5 59.105469 10.558594 60.167969 11.875 60.167969 L 64.125 60.167969 C 65.441406 60.167969 66.5 59.105469 66.5 57.792969 L 66.5 18.207031 C 66.5 16.894531 65.441406 15.832031 64.125 15.832031 Z M 11.875 16.601562 L 64.125 16.601562 C 65.03125 16.601562 65.734375 17.300781 65.734375 18.207031 L 65.734375 57.792969 C 65.734375 58.699219 65.03125 59.398438 64.125 59.398438 L 11.875 59.398438 C 10.96875 59.398438 10.265625 58.699219 10.265625 57.792969 L 10.265625 18.207031 C 10.265625 17.300781 10.96875 16.601562 11.875 16.601562 Z M 11.875 16.601562 "/>
<path style=" stroke:none;fill-rule:nonzero;fill:rgb(100%,100%,100%);fill-opacity:0.698039;" d="M 9.5 57.792969 L 9.5 58.582031 C 9.5 59.898438 10.558594 60.957031 11.875 60.957031 L 64.125 60.957031 C 65.441406 60.957031 66.5 59.898438 66.5 58.582031 L 66.5 57.792969 C 66.5 59.105469 65.441406 60.167969 64.125 60.167969 L 11.875 60.167969 C 10.558594 60.167969 9.5 59.105469 9.5 57.792969 Z M 9.5 57.792969 "/>
<path style="fill-rule:nonzero;fill:url(#linear10);stroke-width:1;stroke-linecap:round;stroke-linejoin:miter;stroke:rgb(62.745098%,0%,0%);stroke-opacity:1;stroke-miterlimit:4;" d="M 48 27.498355 C 36.685855 27.498355 27.498355 36.685855 27.498355 48 C 27.498355 59.314145 36.685855 68.501645 48 68.501645 C 59.314145 68.501645 68.501645 59.314145 68.501645 48 C 68.501645 36.685855 59.314145 27.498355 48 27.498355 Z M 48 34.820724 C 55.273026 34.820724 61.179276 40.726974 61.179276 48 C 61.179276 49.963816 60.740132 51.824013 59.965461 53.501645 L 42.488487 36.034539 C 44.166118 35.259868 46.03125 34.820724 48 34.820724 Z M 36.192434 42.167763 L 53.847039 59.807566 C 52.080592 60.680921 50.101974 61.179276 48 61.179276 C 40.726974 61.179276 34.820724 55.273026 34.820724 48 C 34.820724 45.902961 35.324013 43.924342 36.192434 42.167763 Z M 36.192434 42.167763 " transform="matrix(0.791667,0,0,0.791667,0,0)"/>
<path style=" stroke:none;fill-rule:nonzero;fill:url(#linear11);" d="M 38 21.769531 C 29.042969 21.769531 21.769531 29.042969 21.769531 38 C 21.769531 38.132812 21.769531 38.265625 21.769531 38.394531 C 21.980469 29.617188 29.171875 22.5625 38 22.5625 C 46.828125 22.5625 54.019531 29.617188 54.230469 38.394531 C 54.230469 38.265625 54.230469 38.132812 54.230469 38 C 54.230469 29.042969 46.957031 21.769531 38 21.769531 Z M 34.214844 29.09375 C 34.023438 29.167969 33.832031 29.230469 33.644531 29.316406 L 47.476562 43.144531 C 48.085938 41.820312 48.441406 40.347656 48.441406 38.792969 C 48.441406 38.632812 48.421875 38.480469 48.414062 38.320312 C 48.371094 39.757812 48.042969 41.117188 47.476562 42.355469 Z M 27.585938 38.445312 C 27.582031 38.5625 27.558594 38.675781 27.558594 38.792969 C 27.558594 44.550781 32.242188 49.230469 38 49.230469 C 39.664062 49.230469 41.230469 48.835938 42.625 48.144531 L 42.058594 47.574219 C 40.804688 48.109375 39.445312 48.441406 38 48.441406 C 32.390625 48.441406 27.820312 43.996094 27.585938 38.445312 Z M 27.585938 38.445312 "/>
</g>
</svg>
