<svg display="inline" height="16" width="16" xmlns="http://www.w3.org/2000/svg" xmlns:sodipodi="http://sodipodi.sourceforge.net/DTD/sodipodi-0.dtd" xmlns:inkscape="http://www.inkscape.org/namespaces/inkscape">
 <path d="M 1 2 C 0.446 2 -6.7943336e-18 2.446 0 3 L 0 13 C 0 13.554 0.446 14 1 14 L 15 14 C 15.554 14 16 13.554 16 13 L 16 3 C 16 2.446 15.554 2 15 2 L 1 2 z M 1 3 L 8 10 L 15 3 L 15 4 L 8 11 L 1 4 L 1 3 z M 4.5 8.5 L 5 9 L 1.03125 13 L 1 11.9375 L 4.5 8.5 z M 11.5 8.5 L 15 11.9375 L 14.96875 13 L 11 9 L 11.5 8.5 z " stroke-width="1.5" fill="#cccccc" color="#000000" fill-opacity="1" fill-rule="nonzero" stroke="none" visibility="visible" inkscape:label="Icon" inkscape:groupmode="layer" transform="matrix(1 0 0 1 0 0)"/>
</svg>
