<?xml version="1.0" encoding="UTF-8"?>
<svg xmlns="http://www.w3.org/2000/svg" xmlns:xlink="http://www.w3.org/1999/xlink" width="76pt" height="76pt" viewBox="0 0 76 76" version="1.1">
<g id="surface1">
<path style=" stroke:none;fill-rule:nonzero;fill:rgb(100%,100%,100%);fill-opacity:0.2;" d="M 57.59375 14.175781 C 57.230469 14.175781 56.882812 14.3125 56.628906 14.570312 L 46.957031 24.246094 L 42.550781 24.246094 C 42.191406 24.242188 41.820312 24.382812 41.5625 24.640625 L 35.15625 31.046875 C 34.632812 31.558594 34.632812 32.519531 35.15625 33.027344 L 42.996094 40.871094 C 43.257812 41.132812 43.617188 41.273438 43.988281 41.265625 C 44.34375 41.261719 44.699219 41.121094 44.953125 40.871094 L 51.382812 34.4375 C 51.640625 34.179688 51.78125 33.835938 51.78125 33.472656 L 51.78125 29.042969 L 61.429688 19.394531 C 61.949219 18.886719 61.949219 17.925781 61.429688 17.417969 L 58.582031 14.570312 C 58.328125 14.3125 57.957031 14.175781 57.59375 14.175781 Z M 32.011719 34.734375 C 31.65625 34.738281 31.300781 34.902344 31.046875 35.15625 L 24.617188 41.5625 C 24.359375 41.820312 24.21875 42.191406 24.21875 42.550781 L 24.21875 46.957031 L 14.570312 56.628906 C 14.050781 57.136719 14.050781 58.074219 14.570312 58.582031 L 17.417969 61.429688 C 17.925781 61.949219 18.863281 61.949219 19.371094 61.429688 L 29.042969 51.78125 L 33.449219 51.78125 C 33.808594 51.78125 34.179688 51.640625 34.4375 51.382812 L 40.84375 44.953125 C 41.367188 44.441406 41.367188 43.507812 40.84375 42.996094 L 33.003906 35.15625 C 32.742188 34.894531 32.382812 34.726562 32.011719 34.734375 Z M 32.011719 34.734375 "/>
</g>
</svg>
