<?xml version="1.0" encoding="UTF-8"?>
<svg xmlns="http://www.w3.org/2000/svg" xmlns:xlink="http://www.w3.org/1999/xlink" width="76pt" height="76pt" viewBox="0 0 76 76" version="1.1">
<defs>
<linearGradient id="linear0" gradientUnits="userSpaceOnUse" x1="0" y1="79.81" x2="0" y2="10.985" gradientTransform="matrix(0.713212,0,0,0.713212,2.706708,4.825208)">
<stop offset="0" style="stop-color:rgb(66.666667%,66.666667%,66.666667%);stop-opacity:1;"/>
<stop offset="1" style="stop-color:rgb(94.117647%,94.117647%,94.117647%);stop-opacity:1;"/>
</linearGradient>
</defs>
<g id="surface1">
<path style=" stroke:none;fill-rule:nonzero;fill:rgb(0%,0%,0%);fill-opacity:0.0509804;" d="M 57.59375 12.640625 C 56.792969 12.640625 56.011719 12.976562 55.34375 13.507812 C 55.292969 13.546875 55.238281 13.566406 55.195312 13.605469 C 55.09375 13.664062 55.015625 13.71875 54.996094 13.730469 C 54.996094 13.730469 54.972656 13.730469 54.972656 13.730469 L 46.015625 22.710938 L 42.550781 22.710938 C 41.597656 22.703125 40.652344 23.078125 39.929688 23.800781 L 33.523438 30.183594 C 33.523438 30.191406 33.523438 30.199219 33.523438 30.207031 C 33.449219 30.277344 33.390625 30.363281 33.347656 30.453125 C 33.339844 30.480469 33.332031 30.503906 33.324219 30.527344 C 32.230469 31.871094 32.222656 33.753906 33.300781 35.105469 C 33.386719 35.214844 33.421875 35.351562 33.523438 35.453125 C 33.523438 35.453125 33.523438 35.476562 33.523438 35.476562 L 41.363281 43.292969 C 42.027344 43.957031 42.898438 44.324219 43.8125 44.359375 C 43.832031 44.359375 43.847656 44.359375 43.863281 44.359375 C 43.863281 44.359375 43.929688 44.382812 43.9375 44.382812 C 43.953125 44.382812 43.96875 44.382812 43.988281 44.382812 C 44.011719 44.382812 44.035156 44.382812 44.0625 44.382812 C 44.09375 44.382812 44.125 44.359375 44.160156 44.359375 C 44.183594 44.351562 44.210938 44.34375 44.234375 44.332031 C 45.089844 44.273438 45.929688 43.945312 46.585938 43.292969 L 53.015625 36.863281 C 53.707031 36.171875 54.113281 35.246094 54.105469 34.265625 L 54.105469 30.777344 L 63.0625 21.84375 C 63.0625 21.835938 63.0625 21.828125 63.0625 21.820312 C 63.132812 21.75 63.191406 21.664062 63.234375 21.574219 C 63.242188 21.546875 63.253906 21.523438 63.257812 21.5 C 64.441406 20.046875 64.417969 17.921875 63.0625 16.574219 L 60.242188 13.730469 L 60.214844 13.730469 C 60.140625 13.652344 60.050781 13.625 59.96875 13.558594 C 59.929688 13.535156 59.871094 13.507812 59.871094 13.507812 C 59.175781 12.960938 58.375 12.640625 57.59375 12.640625 Z M 57.59375 12.640625 "/>
<path style=" stroke:none;fill-rule:nonzero;fill:rgb(0%,0%,0%);fill-opacity:0.101961;" d="M 57.59375 13.457031 C 56.871094 13.457031 56.125 13.738281 55.566406 14.300781 C 55.558594 14.304688 55.546875 14.292969 55.539062 14.300781 L 46.335938 23.527344 L 42.550781 23.527344 C 41.808594 23.519531 41.066406 23.804688 40.5 24.367188 L 34.089844 30.75 L 34.089844 30.777344 C 32.957031 31.902344 32.957031 33.753906 34.089844 34.882812 C 34.097656 34.886719 34.085938 34.902344 34.089844 34.90625 L 41.933594 42.726562 C 42.488281 43.28125 43.222656 43.578125 43.988281 43.566406 C 43.976562 43.566406 44.003906 43.566406 44.035156 43.566406 C 44.753906 43.554688 45.464844 43.273438 46.015625 42.726562 L 52.449219 36.292969 C 52.992188 35.75 53.296875 35.023438 53.289062 34.265625 L 53.289062 30.453125 L 62.492188 21.277344 L 62.492188 21.25 C 63.625 20.125 63.625 18.273438 62.492188 17.144531 L 59.671875 14.300781 C 59.667969 14.292969 59.652344 14.304688 59.648438 14.300781 C 59.066406 13.71875 58.300781 13.457031 57.59375 13.457031 Z M 57.59375 13.457031 "/>
<path style=" stroke:none;fill-rule:nonzero;fill:rgb(0%,0%,0%);fill-opacity:0.14902;" d="M 57.59375 14.175781 C 57.03125 14.175781 56.472656 14.375 56.058594 14.792969 L 46.609375 24.246094 L 42.550781 24.246094 C 41.976562 24.238281 41.417969 24.441406 40.992188 24.863281 L 34.585938 31.269531 C 33.707031 32.132812 33.707031 33.527344 34.585938 34.386719 L 42.429688 42.230469 C 42.839844 42.640625 43.40625 42.855469 43.988281 42.847656 C 43.996094 42.847656 44.003906 42.847656 44.011719 42.847656 C 44.566406 42.839844 45.113281 42.636719 45.519531 42.230469 L 51.953125 35.796875 C 52.359375 35.390625 52.578125 34.839844 52.570312 34.265625 L 52.570312 30.183594 L 61.996094 20.757812 C 62.878906 19.894531 62.878906 18.5 61.996094 17.640625 L 59.152344 14.792969 C 58.722656 14.355469 58.15625 14.175781 57.59375 14.175781 Z M 57.59375 14.175781 "/>
<path style=" stroke:none;fill-rule:nonzero;fill:rgb(0%,0%,0%);fill-opacity:0.298039;" d="M 57.59375 14.96875 C 57.230469 14.96875 56.882812 15.101562 56.628906 15.363281 L 46.957031 25.035156 L 42.550781 25.035156 C 42.191406 25.035156 41.820312 25.175781 41.5625 25.433594 L 35.15625 31.839844 C 34.632812 32.347656 34.632812 33.308594 35.15625 33.820312 L 42.996094 41.660156 C 43.257812 41.921875 43.617188 42.066406 43.988281 42.058594 C 44.34375 42.054688 44.699219 41.914062 44.953125 41.660156 L 51.382812 35.230469 C 51.640625 34.972656 51.78125 34.625 51.78125 34.265625 L 51.78125 29.835938 L 61.429688 20.1875 C 61.949219 19.679688 61.949219 18.71875 61.429688 18.207031 L 58.582031 15.363281 C 58.328125 15.101562 57.957031 14.96875 57.59375 14.96875 Z M 57.59375 14.96875 "/>
<path style=" stroke:none;fill-rule:nonzero;fill:url(#linear0);" d="M 57.59375 14.175781 C 57.230469 14.175781 56.882812 14.3125 56.628906 14.570312 L 46.957031 24.246094 L 42.550781 24.246094 C 42.191406 24.242188 41.820312 24.382812 41.5625 24.640625 L 35.15625 31.046875 C 34.632812 31.558594 34.632812 32.519531 35.15625 33.027344 L 42.996094 40.871094 C 43.257812 41.132812 43.617188 41.273438 43.988281 41.265625 C 44.34375 41.261719 44.699219 41.121094 44.953125 40.871094 L 51.382812 34.4375 C 51.640625 34.179688 51.78125 33.835938 51.78125 33.472656 L 51.78125 29.042969 L 61.429688 19.394531 C 61.949219 18.886719 61.949219 17.925781 61.429688 17.417969 L 58.582031 14.570312 C 58.328125 14.3125 57.957031 14.175781 57.59375 14.175781 Z M 57.59375 14.175781 "/>
<path style=" stroke:none;fill-rule:nonzero;fill:rgb(100%,100%,100%);fill-opacity:0.2;" d="M 32.011719 34.734375 C 31.65625 34.738281 31.300781 34.902344 31.046875 35.15625 L 24.617188 41.5625 C 24.359375 41.820312 24.21875 42.191406 24.21875 42.550781 L 24.21875 46.957031 L 14.570312 56.628906 C 14.050781 57.136719 14.050781 58.074219 14.570312 58.582031 L 17.417969 61.429688 C 17.925781 61.949219 18.863281 61.949219 19.371094 61.429688 L 29.042969 51.78125 L 33.449219 51.78125 C 33.808594 51.78125 34.179688 51.640625 34.4375 51.382812 L 40.84375 44.953125 C 41.367188 44.441406 41.367188 43.507812 40.84375 42.996094 L 33.003906 35.15625 C 32.742188 34.894531 32.382812 34.726562 32.011719 34.734375 Z M 32.011719 34.734375 "/>
<path style=" stroke:none;fill-rule:nonzero;fill:rgb(100%,100%,100%);fill-opacity:0.74902;" d="M 57.59375 14.175781 C 57.230469 14.175781 56.882812 14.3125 56.628906 14.570312 L 46.957031 24.246094 L 42.550781 24.246094 C 42.191406 24.242188 41.820312 24.382812 41.5625 24.640625 L 35.15625 31.046875 C 34.800781 31.394531 34.679688 31.953125 34.808594 32.433594 C 34.867188 32.207031 34.988281 32.003906 35.15625 31.839844 L 41.5625 25.433594 C 41.820312 25.175781 42.191406 25.035156 42.550781 25.035156 L 46.957031 25.035156 L 56.628906 15.363281 C 56.882812 15.101562 57.230469 14.96875 57.59375 14.96875 C 57.957031 14.96875 58.328125 15.101562 58.582031 15.363281 L 61.429688 18.207031 C 61.59375 18.371094 61.714844 18.578125 61.773438 18.800781 C 61.902344 18.320312 61.78125 17.761719 61.429688 17.417969 L 58.582031 14.570312 C 58.328125 14.3125 57.957031 14.175781 57.59375 14.175781 Z M 57.59375 14.175781 "/>
<path style=" stroke:none;fill-rule:nonzero;fill:rgb(0%,0%,0%);fill-opacity:0.141176;" d="M 61.773438 18.011719 C 61.714844 18.234375 61.59375 18.441406 61.429688 18.605469 L 51.78125 28.253906 L 51.78125 29.042969 L 61.429688 19.394531 C 61.78125 19.050781 61.902344 18.492188 61.773438 18.011719 Z M 34.808594 31.640625 C 34.679688 32.121094 34.800781 32.679688 35.15625 33.027344 L 42.996094 40.871094 C 43.257812 41.132812 43.617188 41.273438 43.988281 41.265625 C 44.34375 41.261719 44.699219 41.121094 44.953125 40.871094 L 51.382812 34.4375 C 51.640625 34.179688 51.78125 33.835938 51.78125 33.472656 L 51.78125 32.679688 C 51.78125 33.042969 51.640625 33.390625 51.382812 33.644531 L 44.953125 40.078125 C 44.699219 40.328125 44.34375 40.472656 43.988281 40.472656 C 43.617188 40.484375 43.257812 40.339844 42.996094 40.078125 L 35.15625 32.234375 C 34.988281 32.074219 34.867188 31.867188 34.808594 31.640625 Z M 34.808594 31.640625 "/>
</g>
</svg>
