<svg display="inline" height="16" width="16" xmlns="http://www.w3.org/2000/svg" xmlns:sodipodi="http://sodipodi.sourceforge.net/DTD/sodipodi-0.dtd" xmlns:inkscape="http://www.inkscape.org/namespaces/inkscape">
 <g inkscape:label="Icon" inkscape:groupmode="layer" transform="matrix(1 0 0 1 0 -6)">
  <path d="M 2 2 C 1.446 2 1 2.446 1 3 L 1 13 C 1 13.554 1.446 14 2 14 L 14 14 C 14.554 14 15 13.554 15 13 L 15 3 C 15 2.446 14.554 2 14 2 L 2 2 z M 5.5 4 L 7 4 L 7 10 L 9 10 L 9 4 L 10.5 4 C 10.777 4 11 4.223 11 4.5 L 11 11.5 C 11 11.777 10.777 12 10.5 12 L 5.5 12 C 5.223 12 5 11.777 5 11.5 L 5 4.5 C 5 4.223 5.223 4 5.5 4 z " stroke-width="0.8" fill="#cccccc" color="#000000" fill-opacity="1" fill-rule="nonzero" stroke="none" visibility="visible" transform="matrix(1 0 0 1 0 6)"/>
  <path d="m -15.5,10 c -0.277,0 -0.5,0.223 -0.5,0.5 l 0,7 c 0,0.277 0.223,0.5 0.5,0.5 l 6,0 c 0.277,0 0.5,-0.223 0.5,-0.5 l 0,-1.5 -5,0 0,-1 3,0 0,-2 -3,0 0,-1 5,0 0,-1.5 C -9,10.223 -9.223,10 -9.5,10 l -6,0 z" stroke-width="0.8" fill="#ff0000" color="#000000" fill-opacity="1" fill-rule="nonzero" stroke="none" visibility="visible" inkscape:connector-curvature="0"/>
  <path d="m -14.5,10 c -0.277,0 -0.5,0.223 -0.5,0.5 l 0,7 c 0,0.277 0.223,0.5 0.5,0.5 l 5,0 c 0.277,0 0.5,-0.223 0.5,-0.5 l 0,-7 C -9,10.223 -9.223,10 -9.5,10 l -1.5,0 0,6 -2,0 0,-6 -1.5,0 z" stroke-width="0.8" fill="#ffffff" color="#000000" fill-opacity="1" fill-rule="nonzero" stroke="none" visibility="visible" inkscape:connector-curvature="0"/>
 </g>
</svg>
