<?xml version="1.0" encoding="UTF-8"?>
<svg xmlns="http://www.w3.org/2000/svg" xmlns:xlink="http://www.w3.org/1999/xlink" width="76pt" height="76pt" viewBox="0 0 76 76" version="1.1">
<defs>
<linearGradient id="linear0" gradientUnits="userSpaceOnUse" x1="0" y1="79.81" x2="0" y2="10.985" gradientTransform="matrix(0.713212,0,0,0.713212,2.706708,4.825208)">
<stop offset="0" style="stop-color:rgb(66.666667%,66.666667%,66.666667%);stop-opacity:1;"/>
<stop offset="1" style="stop-color:rgb(94.117647%,94.117647%,94.117647%);stop-opacity:1;"/>
</linearGradient>
</defs>
<g id="surface1">
<path style=" stroke:none;fill-rule:nonzero;fill:rgb(0%,0%,0%);fill-opacity:0.0784314;" d="M 57.59375 12.667969 C 55.207031 12.691406 53.992188 14.976562 52.359375 16.367188 C 50.238281 18.488281 48.113281 20.613281 45.992188 22.734375 C 43.820312 22.867188 41.195312 22.160156 39.617188 24.113281 C 37.558594 26.210938 35.378906 28.230469 33.398438 30.378906 C 32.109375 31.5 33.292969 33.777344 31.214844 33.3125 C 29.191406 33.949219 28.035156 35.902344 26.484375 37.234375 C 25.0625 38.8125 23.230469 40.082031 22.179688 41.945312 C 21.609375 43.519531 22.160156 45.335938 21.816406 46.886719 C 18.832031 49.921875 15.722656 52.878906 12.816406 55.960938 C 11.363281 57.625 11.730469 60.265625 13.484375 61.554688 C 15.050781 62.953125 16.417969 65.28125 18.851562 64.855469 C 21.25 64.386719 22.523438 62.109375 24.265625 60.617188 C 26.179688 58.699219 28.09375 56.785156 30.007812 54.871094 C 32.175781 54.738281 34.808594 55.449219 36.382812 53.496094 C 38.445312 51.359375 40.683594 49.339844 42.640625 47.132812 C 43.832031 45.867188 42.796875 43.929688 44.871094 44.21875 C 46.824219 43.644531 47.917969 41.742188 49.40625 40.472656 C 50.855469 38.863281 52.707031 37.550781 53.808594 35.671875 C 54.398438 34.089844 53.839844 32.261719 54.183594 30.695312 C 57.167969 27.671875 60.277344 24.722656 63.183594 21.648438 C 64.628906 19.996094 64.296875 17.34375 62.539062 16.054688 C 61.023438 14.738281 59.851562 12.621094 57.59375 12.667969 Z M 60.214844 13.730469 C 60.242188 13.8125 60.261719 13.695312 60.214844 13.730469 Z M 54.972656 13.753906 C 55.054688 13.730469 54.9375 13.710938 54.972656 13.753906 Z M 54.972656 13.753906 "/>
<path style=" stroke:none;fill-rule:nonzero;fill:rgb(0%,0%,0%);fill-opacity:0.101961;" d="M 57.59375 13.457031 C 56.871094 13.457031 56.121094 13.738281 55.566406 14.300781 C 55.558594 14.304688 55.546875 14.292969 55.539062 14.300781 L 46.335938 23.527344 L 42.550781 23.527344 C 41.808594 23.519531 41.066406 23.804688 40.5 24.367188 L 34.089844 30.75 L 34.089844 30.777344 C 32.960938 31.898438 32.941406 33.753906 34.066406 34.882812 C 33.546875 34.363281 32.832031 34.007812 32.011719 34.015625 C 32.027344 34.015625 32 34.015625 31.964844 34.015625 C 31.1875 34.03125 30.496094 34.371094 29.984375 34.882812 L 23.550781 41.289062 C 22.988281 41.855469 22.703125 42.597656 22.710938 43.34375 L 22.710938 47.128906 L 13.507812 56.332031 L 13.507812 56.355469 C 12.382812 57.476562 12.382812 59.320312 13.507812 60.4375 C 13.511719 60.445312 13.503906 60.457031 13.507812 60.464844 L 16.351562 63.285156 C 17.472656 64.410156 19.316406 64.410156 20.433594 63.285156 L 20.460938 63.285156 L 29.664062 54.082031 L 33.449219 54.082031 C 34.191406 54.085938 34.933594 53.804688 35.5 53.238281 L 41.910156 46.832031 L 41.910156 46.808594 C 43.03125 45.691406 43.050781 43.84375 41.933594 42.726562 C 42.488281 43.28125 43.222656 43.578125 43.988281 43.566406 C 43.976562 43.566406 44.003906 43.566406 44.035156 43.566406 C 44.753906 43.554688 45.464844 43.273438 46.015625 42.726562 L 52.449219 36.292969 C 52.992188 35.75 53.296875 35.023438 53.289062 34.265625 L 53.289062 30.453125 L 62.492188 21.277344 L 62.492188 21.25 C 63.625 20.125 63.625 18.269531 62.492188 17.144531 L 59.671875 14.300781 C 59.667969 14.292969 59.652344 14.304688 59.648438 14.300781 C 59.066406 13.71875 58.300781 13.457031 57.59375 13.457031 Z M 57.59375 13.457031 "/>
<path style=" stroke:none;fill-rule:nonzero;fill:rgb(0%,0%,0%);fill-opacity:0.14902;" d="M 57.59375 14.175781 C 57.03125 14.175781 56.472656 14.375 56.058594 14.792969 L 46.609375 24.246094 L 42.550781 24.246094 C 41.976562 24.238281 41.417969 24.441406 40.992188 24.863281 L 34.585938 31.269531 C 33.707031 32.132812 33.707031 33.527344 34.585938 34.386719 L 42.429688 42.230469 C 42.839844 42.640625 43.40625 42.855469 43.988281 42.847656 C 43.996094 42.847656 44.003906 42.847656 44.011719 42.847656 C 44.566406 42.839844 45.113281 42.636719 45.519531 42.230469 L 51.953125 35.796875 C 52.359375 35.390625 52.578125 34.839844 52.570312 34.265625 L 52.570312 30.183594 L 61.996094 20.757812 C 62.878906 19.894531 62.878906 18.5 61.996094 17.640625 L 59.152344 14.792969 C 58.722656 14.355469 58.15625 14.175781 57.59375 14.175781 Z M 31.988281 34.734375 C 31.398438 34.746094 30.867188 34.988281 30.480469 35.378906 L 24.046875 41.785156 C 23.625 42.210938 23.421875 42.765625 23.429688 43.34375 L 23.429688 47.402344 L 14.003906 56.851562 C 13.132812 57.703125 13.132812 59.09375 14.003906 59.945312 L 16.847656 62.789062 C 17.699219 63.660156 19.089844 63.660156 19.941406 62.789062 L 29.390625 53.363281 L 33.449219 53.363281 C 34.023438 53.367188 34.582031 53.167969 35.007812 52.746094 L 41.414062 46.3125 C 42.285156 45.460938 42.285156 44.070312 41.414062 43.21875 L 33.570312 35.378906 C 33.179688 34.984375 32.628906 34.726562 32.011719 34.734375 C 32.003906 34.734375 31.996094 34.734375 31.988281 34.734375 Z M 31.988281 34.734375 "/>
<path style=" stroke:none;fill-rule:nonzero;fill:rgb(0%,0%,0%);fill-opacity:0.298039;" d="M 57.59375 14.96875 C 57.230469 14.96875 56.882812 15.101562 56.628906 15.363281 L 46.957031 25.035156 L 42.550781 25.035156 C 42.191406 25.035156 41.820312 25.175781 41.5625 25.433594 L 35.15625 31.839844 C 34.632812 32.347656 34.632812 33.308594 35.15625 33.820312 L 42.996094 41.660156 C 43.257812 41.921875 43.617188 42.066406 43.988281 42.058594 C 44.34375 42.054688 44.699219 41.914062 44.953125 41.660156 L 51.382812 35.230469 C 51.640625 34.972656 51.78125 34.625 51.78125 34.265625 L 51.78125 29.835938 L 61.429688 20.1875 C 61.949219 19.679688 61.949219 18.71875 61.429688 18.207031 L 58.582031 15.363281 C 58.328125 15.101562 57.957031 14.96875 57.59375 14.96875 Z M 32.011719 35.527344 C 31.65625 35.527344 31.300781 35.695312 31.046875 35.945312 L 24.617188 42.355469 C 24.359375 42.609375 24.21875 42.980469 24.21875 43.34375 L 24.21875 47.746094 L 14.570312 57.421875 C 14.050781 57.929688 14.050781 58.867188 14.570312 59.375 L 17.417969 62.21875 C 17.925781 62.742188 18.863281 62.742188 19.371094 62.21875 L 29.042969 52.570312 L 33.449219 52.570312 C 33.808594 52.574219 34.179688 52.433594 34.4375 52.175781 L 40.84375 45.742188 C 41.367188 45.234375 41.367188 44.296875 40.84375 43.789062 L 33.003906 35.945312 C 32.742188 35.683594 32.382812 35.515625 32.011719 35.527344 Z M 32.011719 35.527344 "/>
<path style=" stroke:none;fill-rule:nonzero;fill:url(#linear0);" d="M 57.59375 14.175781 C 57.230469 14.175781 56.882812 14.3125 56.628906 14.570312 L 46.957031 24.246094 L 42.550781 24.246094 C 42.191406 24.242188 41.820312 24.382812 41.5625 24.640625 L 35.15625 31.046875 C 34.632812 31.558594 34.632812 32.519531 35.15625 33.027344 L 42.996094 40.871094 C 43.257812 41.132812 43.617188 41.273438 43.988281 41.265625 C 44.34375 41.261719 44.699219 41.121094 44.953125 40.871094 L 51.382812 34.4375 C 51.640625 34.179688 51.78125 33.835938 51.78125 33.472656 L 51.78125 29.042969 L 61.429688 19.394531 C 61.949219 18.886719 61.949219 17.925781 61.429688 17.417969 L 58.582031 14.570312 C 58.328125 14.3125 57.957031 14.175781 57.59375 14.175781 Z M 32.011719 34.734375 C 31.65625 34.738281 31.300781 34.902344 31.046875 35.15625 L 24.617188 41.5625 C 24.359375 41.820312 24.21875 42.191406 24.21875 42.550781 L 24.21875 46.957031 L 14.570312 56.628906 C 14.050781 57.136719 14.050781 58.074219 14.570312 58.582031 L 17.417969 61.429688 C 17.925781 61.949219 18.863281 61.949219 19.371094 61.429688 L 29.042969 51.78125 L 33.449219 51.78125 C 33.808594 51.78125 34.179688 51.640625 34.4375 51.382812 L 40.84375 44.953125 C 41.367188 44.441406 41.367188 43.507812 40.84375 42.996094 L 33.003906 35.15625 C 32.742188 34.894531 32.382812 34.726562 32.011719 34.734375 Z M 32.011719 34.734375 "/>
<path style=" stroke:none;fill-rule:nonzero;fill:rgb(100%,100%,100%);fill-opacity:0.74902;" d="M 57.59375 14.175781 C 57.230469 14.175781 56.882812 14.3125 56.628906 14.570312 L 46.957031 24.246094 L 42.550781 24.246094 C 42.191406 24.242188 41.820312 24.382812 41.5625 24.640625 L 35.15625 31.046875 C 34.800781 31.394531 34.679688 31.953125 34.808594 32.433594 C 34.867188 32.207031 34.988281 32.003906 35.15625 31.839844 L 41.5625 25.433594 C 41.820312 25.175781 42.191406 25.035156 42.550781 25.035156 L 46.957031 25.035156 L 56.628906 15.363281 C 56.882812 15.101562 57.230469 14.96875 57.59375 14.96875 C 57.957031 14.96875 58.328125 15.101562 58.582031 15.363281 L 61.429688 18.207031 C 61.59375 18.371094 61.714844 18.578125 61.773438 18.800781 C 61.902344 18.320312 61.78125 17.761719 61.429688 17.417969 L 58.582031 14.570312 C 58.328125 14.3125 57.957031 14.175781 57.59375 14.175781 Z M 32.011719 34.734375 C 31.65625 34.738281 31.300781 34.902344 31.046875 35.15625 L 24.617188 41.5625 C 24.359375 41.820312 24.21875 42.191406 24.21875 42.550781 L 24.21875 43.34375 C 24.21875 42.980469 24.359375 42.609375 24.617188 42.355469 L 31.046875 35.945312 C 31.300781 35.695312 31.65625 35.527344 32.011719 35.527344 C 32.382812 35.515625 32.742188 35.683594 33.003906 35.945312 L 40.84375 43.789062 C 41.007812 43.949219 41.105469 44.164062 41.167969 44.382812 C 41.308594 43.902344 41.207031 43.351562 40.84375 42.996094 L 33.003906 35.15625 C 32.742188 34.894531 32.382812 34.726562 32.011719 34.734375 Z M 24.21875 46.957031 L 14.570312 56.628906 C 14.214844 56.976562 14.121094 57.515625 14.25 57.988281 C 14.3125 57.777344 14.414062 57.578125 14.570312 57.421875 L 24.21875 47.746094 Z M 24.21875 46.957031 "/>
<path style=" stroke:none;fill-rule:nonzero;fill:rgb(0%,0%,0%);fill-opacity:0.141176;" d="M 61.773438 18.011719 C 61.714844 18.234375 61.59375 18.441406 61.429688 18.605469 L 51.78125 28.253906 L 51.78125 29.042969 L 61.429688 19.394531 C 61.78125 19.050781 61.902344 18.492188 61.773438 18.011719 Z M 34.808594 31.640625 C 34.679688 32.121094 34.800781 32.679688 35.15625 33.027344 L 42.996094 40.871094 C 43.257812 41.132812 43.617188 41.273438 43.988281 41.265625 C 44.34375 41.261719 44.699219 41.121094 44.953125 40.871094 L 51.382812 34.4375 C 51.640625 34.179688 51.78125 33.835938 51.78125 33.472656 L 51.78125 32.679688 C 51.78125 33.042969 51.640625 33.390625 51.382812 33.644531 L 44.953125 40.078125 C 44.699219 40.328125 44.34375 40.472656 43.988281 40.472656 C 43.617188 40.484375 43.257812 40.339844 42.996094 40.078125 L 35.15625 32.234375 C 34.988281 32.074219 34.867188 31.867188 34.808594 31.640625 Z M 41.167969 43.589844 C 41.105469 43.800781 41.003906 44.003906 40.84375 44.160156 L 34.4375 50.59375 C 34.179688 50.847656 33.808594 50.992188 33.449219 50.988281 L 29.042969 50.988281 L 19.371094 60.636719 C 18.863281 61.15625 17.925781 61.15625 17.417969 60.636719 L 14.570312 57.792969 C 14.40625 57.628906 14.308594 57.417969 14.25 57.199219 C 14.109375 57.675781 14.210938 58.230469 14.570312 58.582031 L 17.417969 61.429688 C 17.925781 61.949219 18.863281 61.949219 19.371094 61.429688 L 29.042969 51.78125 L 33.449219 51.78125 C 33.808594 51.78125 34.179688 51.640625 34.4375 51.382812 L 40.84375 44.953125 C 41.199219 44.601562 41.296875 44.066406 41.167969 43.589844 Z M 41.167969 43.589844 "/>
</g>
</svg>
