<?xml version="1.0" encoding="UTF-8"?>
<svg xmlns="http://www.w3.org/2000/svg" xmlns:xlink="http://www.w3.org/1999/xlink" width="76pt" height="76pt" viewBox="0 0 76 76" version="1.1">
<defs>
<linearGradient id="linear0" gradientUnits="userSpaceOnUse" x1="0" y1="6.132" x2="0" y2="90.24" gradientTransform="matrix(0.810516,0,0,-0.801087,-0.904875,77.63875)">
<stop offset="0" style="stop-color:rgb(0%,0%,0%);stop-opacity:0.0784314;"/>
<stop offset="1" style="stop-color:rgb(0%,0%,0%);stop-opacity:0.0461361;"/>
</linearGradient>
<linearGradient id="linear1" gradientUnits="userSpaceOnUse" x1="0" y1="6.132" x2="0" y2="90.24" gradientTransform="matrix(0.810516,0,0,-0.801087,-0.904875,77.63875)">
<stop offset="0" style="stop-color:rgb(0%,0%,0%);stop-opacity:0.101961;"/>
<stop offset="1" style="stop-color:rgb(0%,0%,0%);stop-opacity:0.0599769;"/>
</linearGradient>
<linearGradient id="linear2" gradientUnits="userSpaceOnUse" x1="0" y1="6.132" x2="0" y2="90.24" gradientTransform="matrix(0.810516,0,0,-0.801087,-0.904875,77.63875)">
<stop offset="0" style="stop-color:rgb(0%,0%,0%);stop-opacity:0.2;"/>
<stop offset="1" style="stop-color:rgb(0%,0%,0%);stop-opacity:0.117647;"/>
</linearGradient>
<linearGradient id="linear3" gradientUnits="userSpaceOnUse" x1="0" y1="6.132" x2="0" y2="90.24" gradientTransform="matrix(0.810516,0,0,-0.801087,-0.904875,77.63875)">
<stop offset="0" style="stop-color:rgb(0%,0%,0%);stop-opacity:0.298039;"/>
<stop offset="1" style="stop-color:rgb(0%,0%,0%);stop-opacity:0.175317;"/>
</linearGradient>
<linearGradient id="linear4" gradientUnits="userSpaceOnUse" x1="0" y1="6.132" x2="0" y2="90.24" gradientTransform="matrix(0.791667,0,0,-0.791667,0,76.791667)">
<stop offset="0" style="stop-color:rgb(0%,0%,0%);stop-opacity:0.45098;"/>
<stop offset="1" style="stop-color:rgb(0%,0%,0%);stop-opacity:0.265283;"/>
</linearGradient>
<radialGradient id="radial0" gradientUnits="userSpaceOnUse" cx="48" cy="90.17" fx="48" fy="90.17" r="42" gradientTransform="matrix(0.916204,0,0,0.788429,-5.977875,0.155958)">
<stop offset="0" style="stop-color:rgb(100%,100%,100%);stop-opacity:0.14902;"/>
<stop offset="1" style="stop-color:rgb(100%,100%,100%);stop-opacity:0;"/>
</radialGradient>
<linearGradient id="linear5" gradientUnits="userSpaceOnUse" x1="11" y1="0" x2="19" y2="0" gradientTransform="matrix(0,-2.375,2.34749,0,26.394167,87.875)">
<stop offset="0" style="stop-color:rgb(78.431373%,0%,0%);stop-opacity:1;"/>
<stop offset="1" style="stop-color:rgb(95.294118%,37.647059%,30.196078%);stop-opacity:1;"/>
</linearGradient>
</defs>
<g id="surface1">
<path style=" stroke:none;fill-rule:nonzero;fill:url(#linear0);" d="M 9.5 3.140625 C 5.136719 3.140625 1.558594 6.71875 1.558594 11.082031 L 1.558594 67.292969 C 1.558594 71.65625 5.136719 75.234375 9.5 75.234375 L 66.5 75.234375 C 70.863281 75.234375 74.441406 71.65625 74.441406 67.292969 L 74.441406 11.082031 C 74.441406 6.71875 70.863281 3.140625 66.5 3.140625 Z M 9.5 4.75 L 66.5 4.75 C 69.132812 4.75 71.25 6.867188 71.25 9.5 L 71.25 66.5 C 71.25 69.132812 69.132812 71.25 66.5 71.25 L 9.5 71.25 C 6.867188 71.25 4.75 69.132812 4.75 66.5 L 4.75 9.5 C 4.75 6.867188 6.867188 4.75 9.5 4.75 Z M 9.5 4.75 "/>
<path style=" stroke:none;fill-rule:nonzero;fill:url(#linear1);" d="M 9.5 3.933594 C 5.5625 3.933594 2.351562 7.148438 2.351562 11.082031 L 2.351562 67.292969 C 2.351562 71.226562 5.5625 74.441406 9.5 74.441406 L 66.5 74.441406 C 70.4375 74.441406 73.648438 71.226562 73.648438 67.292969 L 73.648438 11.082031 C 73.648438 7.148438 70.4375 3.933594 66.5 3.933594 Z M 9.5 4.75 L 66.5 4.75 C 69.132812 4.75 71.25 6.867188 71.25 9.5 L 71.25 66.5 C 71.25 69.132812 69.132812 71.25 66.5 71.25 L 9.5 71.25 C 6.867188 71.25 4.75 69.132812 4.75 66.5 L 4.75 9.5 C 4.75 6.867188 6.867188 4.75 9.5 4.75 Z M 9.5 4.75 "/>
<path style=" stroke:none;fill-rule:nonzero;fill:url(#linear2);" d="M 8.855469 4.773438 C 5.667969 5.101562 3.167969 7.8125 3.167969 11.082031 L 3.167969 67.292969 C 3.167969 70.78125 6.007812 73.625 9.5 73.625 L 66.5 73.625 C 69.992188 73.625 72.832031 70.78125 72.832031 67.292969 L 72.832031 11.082031 C 72.832031 7.761719 70.253906 5.03125 66.996094 4.773438 C 69.394531 5.015625 71.25 7.03125 71.25 9.5 L 71.25 66.5 C 71.25 69.132812 69.132812 71.25 66.5 71.25 L 9.5 71.25 C 6.867188 71.25 4.75 69.132812 4.75 66.5 L 4.75 9.5 C 4.75 7.03125 6.605469 5.015625 9.003906 4.773438 C 8.957031 4.777344 8.90625 4.769531 8.855469 4.773438 Z M 8.855469 4.773438 "/>
<path style=" stroke:none;fill-rule:nonzero;fill:url(#linear3);" d="M 5.097656 7.71875 C 4.382812 8.652344 3.957031 9.816406 3.957031 11.082031 L 3.957031 67.292969 C 3.957031 70.363281 6.429688 72.832031 9.5 72.832031 L 66.5 72.832031 C 69.570312 72.832031 72.042969 70.363281 72.042969 67.292969 L 72.042969 11.082031 C 72.042969 9.816406 71.617188 8.652344 70.902344 7.71875 C 71.125 8.269531 71.25 8.871094 71.25 9.5 L 71.25 66.5 C 71.25 69.132812 69.132812 71.25 66.5 71.25 L 9.5 71.25 C 6.867188 71.25 4.75 69.132812 4.75 66.5 L 4.75 9.5 C 4.75 8.871094 4.875 8.269531 5.097656 7.71875 Z M 5.097656 7.71875 "/>
<path style=" stroke:none;fill-rule:nonzero;fill:url(#linear4);" d="M 4.75 66.5 L 4.75 67.292969 C 4.75 69.921875 6.867188 72.042969 9.5 72.042969 L 66.5 72.042969 C 69.132812 72.042969 71.25 69.921875 71.25 67.292969 L 71.25 66.5 C 71.25 69.132812 69.132812 71.25 66.5 71.25 L 9.5 71.25 C 6.867188 71.25 4.75 69.132812 4.75 66.5 Z M 4.75 66.5 "/>
<path style=" stroke:none;fill-rule:nonzero;fill:rgb(0%,0%,0%);fill-opacity:0.6;" d="M 9.5 4.75 L 66.5 4.75 C 69.125 4.75 71.25 6.875 71.25 9.5 L 71.25 66.5 C 71.25 69.125 69.125 71.25 66.5 71.25 L 9.5 71.25 C 6.875 71.25 4.75 69.125 4.75 66.5 L 4.75 9.5 C 4.75 6.875 6.875 4.75 9.5 4.75 Z M 9.5 4.75 "/>
<path style=" stroke:none;fill-rule:nonzero;fill:url(#radial0);" d="M 9.5 71.25 C 6.867188 71.25 4.75 69.132812 4.75 66.5 L 4.75 9.5 C 4.75 9.234375 4.78125 8.984375 4.824219 8.734375 C 4.863281 8.5 4.902344 8.261719 4.972656 8.039062 C 4.980469 8.015625 4.988281 7.988281 4.996094 7.964844 C 5.074219 7.738281 5.183594 7.53125 5.292969 7.324219 C 5.410156 7.105469 5.542969 6.898438 5.691406 6.703125 C 5.835938 6.511719 5.984375 6.328125 6.160156 6.160156 C 6.507812 5.820312 6.90625 5.515625 7.347656 5.292969 C 7.566406 5.183594 7.800781 5.097656 8.039062 5.023438 C 7.835938 5.101562 7.65625 5.210938 7.472656 5.320312 C 7.464844 5.324219 7.453125 5.316406 7.445312 5.320312 C 7.421875 5.335938 7.398438 5.351562 7.371094 5.367188 C 7.277344 5.429688 7.191406 5.496094 7.101562 5.566406 C 7.015625 5.628906 6.929688 5.695312 6.851562 5.765625 C 6.710938 5.890625 6.578125 6.039062 6.457031 6.183594 C 6.371094 6.289062 6.285156 6.394531 6.210938 6.507812 C 6.191406 6.535156 6.179688 6.574219 6.160156 6.605469 C 6.109375 6.6875 6.058594 6.765625 6.011719 6.851562 C 5.933594 7.007812 5.847656 7.183594 5.789062 7.347656 C 5.78125 7.363281 5.769531 7.378906 5.765625 7.398438 C 5.738281 7.46875 5.734375 7.546875 5.714844 7.621094 C 5.691406 7.703125 5.660156 7.78125 5.640625 7.867188 C 5.582031 8.136719 5.542969 8.421875 5.542969 8.707031 L 5.542969 65.707031 C 5.542969 67.910156 7.296875 69.667969 9.5 69.667969 L 66.5 69.667969 C 68.703125 69.667969 70.457031 67.910156 70.457031 65.707031 L 70.457031 8.707031 C 70.457031 8.421875 70.417969 8.136719 70.359375 7.867188 C 70.324219 7.703125 70.289062 7.550781 70.234375 7.398438 C 70.230469 7.378906 70.21875 7.363281 70.210938 7.347656 C 70.160156 7.210938 70.101562 7.058594 70.039062 6.925781 C 70.003906 6.863281 69.976562 6.792969 69.9375 6.730469 C 69.894531 6.652344 69.839844 6.578125 69.789062 6.507812 C 69.714844 6.394531 69.628906 6.289062 69.542969 6.183594 C 69.429688 6.046875 69.304688 5.910156 69.171875 5.789062 C 69.164062 5.78125 69.15625 5.773438 69.148438 5.765625 C 69.039062 5.664062 68.921875 5.578125 68.800781 5.492188 C 68.71875 5.433594 68.640625 5.371094 68.554688 5.320312 C 68.546875 5.316406 68.535156 5.324219 68.527344 5.320312 C 68.34375 5.210938 68.164062 5.101562 67.960938 5.023438 C 68.199219 5.097656 68.433594 5.183594 68.652344 5.292969 C 69.09375 5.515625 69.492188 5.820312 69.839844 6.160156 C 70.015625 6.328125 70.164062 6.511719 70.308594 6.703125 C 70.457031 6.898438 70.589844 7.105469 70.707031 7.324219 C 70.816406 7.53125 70.925781 7.738281 71.003906 7.964844 C 71.011719 7.992188 71.019531 8.015625 71.027344 8.039062 C 71.097656 8.261719 71.136719 8.5 71.175781 8.734375 C 71.21875 8.984375 71.25 9.234375 71.25 9.5 L 71.25 66.5 C 71.25 69.132812 69.132812 71.25 66.5 71.25 Z M 9.5 71.25 "/>
<path style=" stroke:none;fill-rule:nonzero;fill:rgb(100%,100%,100%);fill-opacity:0.2;" d="M 57.59375 14.175781 C 57.230469 14.175781 56.882812 14.3125 56.628906 14.570312 L 50.914062 20.285156 L 46.511719 20.285156 C 46.148438 20.285156 45.777344 20.425781 45.519531 20.683594 L 39.113281 27.089844 C 38.59375 27.597656 38.59375 28.558594 39.113281 29.070312 L 46.957031 36.910156 C 47.21875 37.171875 47.574219 37.316406 47.945312 37.308594 C 48.300781 37.304688 48.660156 37.164062 48.910156 36.910156 L 55.34375 30.480469 C 55.597656 30.222656 55.742188 29.875 55.738281 29.515625 L 55.738281 25.085938 L 61.429688 19.394531 C 61.949219 18.886719 61.949219 17.925781 61.429688 17.417969 L 58.582031 14.570312 C 58.328125 14.3125 57.957031 14.175781 57.59375 14.175781 Z M 28.054688 38.691406 C 27.699219 38.695312 27.339844 38.863281 27.089844 39.113281 L 20.65625 45.519531 C 20.402344 45.777344 20.257812 46.148438 20.261719 46.511719 L 20.261719 50.914062 L 14.570312 56.628906 C 14.050781 57.136719 14.050781 58.074219 14.570312 58.582031 L 17.417969 61.429688 C 17.925781 61.949219 18.863281 61.949219 19.371094 61.429688 L 25.085938 55.738281 L 29.488281 55.738281 C 29.851562 55.742188 30.222656 55.597656 30.480469 55.34375 L 36.886719 48.910156 C 37.40625 48.402344 37.40625 47.464844 36.886719 46.957031 L 29.042969 39.113281 C 28.78125 38.851562 28.425781 38.683594 28.054688 38.691406 Z M 28.054688 38.691406 "/>
<path style=" stroke:none;fill-rule:evenodd;fill:rgb(0%,0%,0%);fill-opacity:0.101961;" d="M 47.375 41.984375 C 47.375 41.984375 47.300781 42.007812 47.300781 42.007812 C 47.300781 42.007812 47.226562 42.007812 47.226562 42.007812 C 47.226562 42.007812 47.152344 42.03125 47.152344 42.03125 C 47.15625 42.03125 47.054688 42.058594 47.054688 42.058594 C 47.054688 42.058594 46.953125 42.105469 46.957031 42.105469 C 46.957031 42.105469 46.832031 42.15625 46.832031 42.15625 C 46.832031 42.15625 46.730469 42.207031 46.734375 42.207031 C 46.734375 42.207031 46.65625 42.28125 46.660156 42.28125 C 46.660156 42.28125 46.558594 42.328125 46.558594 42.328125 C 46.558594 42.328125 46.484375 42.402344 46.484375 42.402344 C 46.484375 42.402344 46.433594 42.457031 46.410156 42.476562 C 46.402344 42.484375 46.386719 42.503906 46.386719 42.503906 L 41.636719 47.300781 C 41.636719 47.300781 41.535156 47.425781 41.539062 47.425781 C 41.539062 47.425781 41.464844 47.527344 41.464844 47.523438 C 41.464844 47.523438 41.390625 47.648438 41.390625 47.648438 C 41.390625 47.648438 41.316406 47.796875 41.316406 47.796875 C 41.316406 47.796875 41.265625 47.921875 41.265625 47.921875 C 41.265625 47.917969 41.242188 48.070312 41.242188 48.070312 C 41.242188 48.066406 41.214844 48.21875 41.214844 48.21875 C 41.214844 48.214844 41.214844 48.367188 41.214844 48.367188 C 41.214844 48.363281 41.214844 48.515625 41.214844 48.515625 C 41.214844 48.511719 41.242188 48.664062 41.242188 48.664062 C 41.242188 48.660156 41.265625 48.8125 41.265625 48.8125 C 41.265625 48.808594 41.316406 48.9375 41.316406 48.933594 C 41.316406 48.933594 41.390625 49.085938 41.390625 49.082031 C 41.390625 49.082031 41.464844 49.207031 41.464844 49.207031 C 41.464844 49.207031 41.539062 49.308594 41.539062 49.304688 C 41.535156 49.304688 41.636719 49.429688 41.636719 49.429688 L 45.199219 53.042969 L 41.636719 56.652344 C 41.636719 56.652344 41.535156 56.777344 41.539062 56.777344 C 41.539062 56.777344 41.464844 56.878906 41.464844 56.875 C 41.464844 56.875 41.390625 57 41.390625 57 C 41.390625 57 41.316406 57.148438 41.316406 57.148438 C 41.316406 57.148438 41.265625 57.273438 41.265625 57.273438 C 41.265625 57.269531 41.242188 57.421875 41.242188 57.421875 C 41.242188 57.417969 41.214844 57.570312 41.214844 57.570312 C 41.214844 57.566406 41.214844 57.71875 41.214844 57.71875 C 41.214844 57.714844 41.214844 57.867188 41.214844 57.867188 C 41.214844 57.863281 41.242188 58.015625 41.242188 58.015625 C 41.242188 58.011719 41.265625 58.164062 41.265625 58.164062 C 41.265625 58.160156 41.316406 58.289062 41.316406 58.285156 C 41.316406 58.285156 41.390625 58.4375 41.390625 58.433594 C 41.390625 58.433594 41.464844 58.558594 41.464844 58.558594 C 41.464844 58.558594 41.539062 58.660156 41.539062 58.65625 C 41.535156 58.65625 41.636719 58.78125 41.636719 58.78125 L 46.410156 63.605469 C 46.410156 63.605469 46.511719 63.707031 46.511719 63.703125 C 46.507812 63.703125 46.636719 63.804688 46.632812 63.804688 C 46.632812 63.804688 46.757812 63.878906 46.757812 63.878906 C 46.757812 63.878906 46.90625 63.953125 46.90625 63.953125 C 46.90625 63.953125 47.054688 64 47.054688 64 C 47.054688 64 47.179688 64.050781 47.179688 64.050781 C 47.175781 64.050781 47.328125 64.074219 47.328125 64.074219 C 47.324219 64.074219 47.5 64.074219 47.5 64.074219 C 47.5 64.074219 47.648438 64.074219 47.648438 64.074219 C 47.648438 64.074219 47.796875 64.050781 47.796875 64.050781 C 47.796875 64.050781 47.945312 64.027344 47.945312 64.027344 C 47.945312 64.027344 48.070312 63.976562 48.070312 63.976562 C 48.066406 63.976562 48.21875 63.925781 48.21875 63.925781 C 48.214844 63.925781 48.34375 63.851562 48.339844 63.851562 C 48.339844 63.851562 48.464844 63.753906 48.464844 63.753906 C 48.464844 63.753906 48.589844 63.652344 48.589844 63.65625 L 52.226562 60.042969 L 55.714844 63.605469 C 55.714844 63.605469 55.761719 63.65625 55.761719 63.65625 C 55.761719 63.65625 55.835938 63.703125 55.835938 63.703125 C 55.835938 63.703125 55.886719 63.753906 55.886719 63.753906 C 55.886719 63.753906 55.960938 63.804688 55.960938 63.804688 C 55.960938 63.804688 56.011719 63.851562 56.011719 63.851562 C 56.011719 63.851562 56.085938 63.902344 56.085938 63.902344 C 56.085938 63.902344 56.160156 63.925781 56.160156 63.925781 C 56.160156 63.925781 56.234375 63.953125 56.234375 63.953125 C 56.234375 63.953125 56.28125 63.976562 56.28125 63.976562 C 56.28125 63.976562 56.355469 64 56.355469 64 C 56.355469 64 56.429688 64.027344 56.429688 64.027344 C 56.429688 64.027344 56.53125 64.050781 56.53125 64.050781 C 56.53125 64.050781 56.605469 64.074219 56.605469 64.074219 C 56.605469 64.074219 56.679688 64.074219 56.679688 64.074219 C 56.679688 64.074219 56.753906 64.074219 56.753906 64.074219 C 56.753906 64.074219 56.828125 64.074219 56.828125 64.074219 C 56.828125 64.074219 56.902344 64.074219 56.902344 64.074219 C 56.902344 64.074219 56.976562 64.074219 56.976562 64.074219 C 56.976562 64.074219 57.050781 64.074219 57.050781 64.074219 C 57.050781 64.074219 57.125 64.050781 57.125 64.050781 C 57.125 64.050781 57.222656 64.027344 57.222656 64.027344 C 57.222656 64.027344 57.296875 64 57.296875 64 C 57.296875 64 57.371094 63.976562 57.371094 63.976562 C 57.371094 63.976562 57.421875 63.953125 57.421875 63.953125 C 57.421875 63.953125 57.496094 63.925781 57.496094 63.925781 C 57.496094 63.925781 57.570312 63.902344 57.570312 63.902344 C 57.570312 63.902344 57.644531 63.851562 57.644531 63.851562 C 57.644531 63.851562 57.691406 63.804688 57.691406 63.804688 C 57.691406 63.804688 57.765625 63.753906 57.765625 63.753906 C 57.765625 63.753906 57.816406 63.703125 57.816406 63.703125 C 57.816406 63.703125 57.890625 63.65625 57.890625 63.65625 C 57.890625 63.65625 57.941406 63.605469 57.941406 63.605469 L 62.863281 58.632812 C 62.863281 58.632812 62.964844 58.507812 62.960938 58.507812 C 62.960938 58.511719 63.0625 58.382812 63.0625 58.386719 C 63.0625 58.386719 63.136719 58.261719 63.136719 58.261719 C 63.136719 58.261719 63.183594 58.113281 63.183594 58.113281 C 63.183594 58.113281 63.234375 57.988281 63.234375 57.988281 C 63.234375 57.992188 63.257812 57.839844 63.257812 57.839844 C 63.257812 57.84375 63.285156 57.691406 63.285156 57.691406 C 63.285156 57.695312 63.285156 57.542969 63.285156 57.542969 C 63.285156 57.546875 63.285156 57.371094 63.285156 57.371094 C 63.285156 57.371094 63.257812 57.222656 63.257812 57.222656 C 63.257812 57.222656 63.210938 57.097656 63.210938 57.097656 C 63.210938 57.101562 63.160156 56.949219 63.160156 56.949219 C 63.160156 56.953125 63.085938 56.800781 63.085938 56.800781 C 63.085938 56.804688 63.011719 56.675781 63.011719 56.679688 C 63.011719 56.679688 62.910156 56.554688 62.914062 56.554688 C 62.914062 56.554688 62.8125 56.453125 62.8125 56.457031 L 59.324219 53.042969 L 62.8125 49.628906 C 62.8125 49.628906 62.914062 49.527344 62.914062 49.527344 C 62.910156 49.53125 63.011719 49.402344 63.011719 49.40625 C 63.011719 49.40625 63.085938 49.28125 63.085938 49.28125 C 63.085938 49.28125 63.160156 49.132812 63.160156 49.132812 C 63.160156 49.132812 63.210938 48.984375 63.210938 48.984375 C 63.210938 48.984375 63.257812 48.859375 63.257812 48.859375 C 63.257812 48.863281 63.285156 48.710938 63.285156 48.710938 C 63.285156 48.714844 63.285156 48.539062 63.285156 48.539062 C 63.285156 48.539062 63.285156 48.390625 63.285156 48.390625 C 63.285156 48.390625 63.257812 48.242188 63.257812 48.242188 C 63.257812 48.242188 63.234375 48.09375 63.234375 48.09375 C 63.234375 48.09375 63.183594 47.96875 63.183594 47.96875 C 63.183594 47.972656 63.136719 47.820312 63.136719 47.820312 C 63.136719 47.824219 63.0625 47.695312 63.0625 47.699219 C 63.0625 47.699219 62.960938 47.574219 62.960938 47.574219 C 62.964844 47.574219 62.863281 47.449219 62.863281 47.449219 L 57.941406 42.476562 C 57.941406 42.476562 57.890625 42.429688 57.890625 42.429688 C 57.890625 42.429688 57.816406 42.378906 57.816406 42.378906 C 57.816406 42.378906 57.765625 42.328125 57.765625 42.328125 C 57.765625 42.328125 57.691406 42.28125 57.691406 42.28125 C 57.691406 42.28125 57.644531 42.230469 57.644531 42.230469 C 57.644531 42.230469 57.570312 42.179688 57.570312 42.179688 C 57.570312 42.179688 57.496094 42.15625 57.496094 42.15625 C 57.496094 42.15625 57.421875 42.132812 57.421875 42.132812 C 57.421875 42.132812 57.371094 42.105469 57.371094 42.105469 C 57.371094 42.105469 57.296875 42.082031 57.296875 42.082031 C 57.296875 42.082031 57.222656 42.058594 57.222656 42.058594 C 57.222656 42.058594 57.125 42.03125 57.125 42.03125 C 57.125 42.03125 57.050781 42.007812 57.050781 42.007812 C 57.050781 42.007812 56.976562 42.007812 56.976562 42.007812 C 56.976562 42.007812 56.902344 42.007812 56.902344 42.007812 C 56.902344 42.007812 56.828125 42.007812 56.828125 42.007812 C 56.828125 42.007812 56.753906 42.007812 56.753906 42.007812 C 56.753906 42.007812 56.679688 42.007812 56.679688 42.007812 C 56.679688 42.007812 56.605469 42.007812 56.605469 42.007812 C 56.605469 42.007812 56.53125 42.03125 56.53125 42.03125 C 56.53125 42.03125 56.429688 42.058594 56.429688 42.058594 C 56.429688 42.058594 56.355469 42.082031 56.355469 42.082031 C 56.355469 42.082031 56.28125 42.105469 56.28125 42.105469 C 56.28125 42.105469 56.234375 42.132812 56.234375 42.132812 C 56.234375 42.132812 56.160156 42.15625 56.160156 42.15625 C 56.160156 42.15625 56.085938 42.179688 56.085938 42.179688 C 56.085938 42.179688 56.011719 42.230469 56.011719 42.230469 C 56.011719 42.230469 55.960938 42.28125 55.960938 42.28125 C 55.960938 42.28125 55.886719 42.328125 55.886719 42.328125 C 55.886719 42.328125 55.835938 42.378906 55.835938 42.378906 C 55.835938 42.378906 55.761719 42.429688 55.761719 42.429688 C 55.761719 42.429688 55.714844 42.476562 55.714844 42.476562 L 52.226562 46.039062 L 48.613281 42.453125 C 48.613281 42.453125 48.597656 42.4375 48.589844 42.429688 C 48.570312 42.414062 48.539062 42.378906 48.539062 42.378906 C 48.539062 42.378906 48.488281 42.328125 48.488281 42.328125 C 48.488281 42.328125 48.441406 42.28125 48.441406 42.28125 C 48.441406 42.28125 48.367188 42.253906 48.367188 42.253906 C 48.367188 42.253906 48.292969 42.207031 48.292969 42.207031 C 48.292969 42.207031 48.242188 42.15625 48.242188 42.15625 C 48.242188 42.15625 48.167969 42.132812 48.167969 42.132812 C 48.167969 42.132812 48.09375 42.105469 48.09375 42.105469 C 48.09375 42.105469 48.019531 42.082031 48.019531 42.082031 C 48.019531 42.082031 47.945312 42.058594 47.945312 42.058594 C 47.945312 42.058594 47.871094 42.03125 47.871094 42.03125 C 47.871094 42.03125 47.796875 42.007812 47.796875 42.007812 C 47.796875 42.007812 47.722656 42.007812 47.722656 42.007812 C 47.722656 42.007812 47.648438 41.984375 47.648438 41.984375 C 47.648438 41.984375 47.574219 41.984375 47.574219 41.984375 C 47.574219 41.984375 47.5 41.984375 47.5 41.984375 C 47.484375 41.984375 47.46875 41.984375 47.449219 41.984375 C 47.449219 41.984375 47.375 41.984375 47.375 41.984375 Z M 47.375 41.984375 "/>
<path style=" stroke:none;fill-rule:evenodd;fill:rgb(0%,0%,0%);fill-opacity:0.14902;" d="M 47.351562 42.800781 C 47.207031 42.835938 47.078125 42.914062 46.980469 43.023438 L 42.207031 47.847656 C 41.929688 48.136719 41.929688 48.59375 42.207031 48.886719 L 46.3125 53.042969 L 42.207031 57.199219 C 41.929688 57.488281 41.929688 57.945312 42.207031 58.238281 L 46.980469 63.0625 C 47.269531 63.359375 47.742188 63.371094 48.042969 63.085938 L 52.226562 58.929688 L 56.28125 63.0625 C 56.425781 63.210938 56.621094 63.292969 56.828125 63.292969 C 57.03125 63.292969 57.230469 63.210938 57.371094 63.0625 L 62.292969 58.089844 C 62.582031 57.789062 62.570312 57.3125 62.269531 57.023438 L 58.1875 53.042969 L 62.269531 49.058594 C 62.570312 48.769531 62.582031 48.296875 62.292969 47.996094 L 57.371094 43.023438 C 57.230469 42.875 57.03125 42.789062 56.828125 42.789062 C 56.621094 42.789062 56.425781 42.875 56.28125 43.023438 L 52.226562 47.152344 L 48.042969 42.996094 C 47.863281 42.816406 47.601562 42.742188 47.351562 42.800781 Z M 47.351562 42.800781 "/>
<path style=" stroke:none;fill-rule:evenodd;fill:rgb(0%,0%,0%);fill-opacity:0.298039;" d="M 42.75 57.71875 L 47.519531 62.542969 L 52.214844 57.867188 L 56.835938 62.542969 L 61.75 57.570312 L 57.128906 53.042969 L 61.75 48.515625 L 56.835938 43.542969 L 52.214844 48.21875 L 47.519531 43.542969 L 42.75 48.367188 L 47.371094 53.042969 Z M 42.75 57.71875 "/>
<path style=" stroke:none;fill-rule:evenodd;fill:url(#linear5);" d="M 42.75 56.925781 L 47.519531 61.75 L 52.214844 57.074219 L 56.835938 61.75 L 61.75 56.777344 L 57.128906 52.25 L 61.75 47.722656 L 56.835938 42.75 L 52.214844 47.425781 L 47.519531 42.75 L 42.75 47.574219 L 47.371094 52.25 Z M 42.75 56.925781 "/>
<path style=" stroke:none;fill-rule:evenodd;fill:rgb(100%,100%,100%);fill-opacity:0.2;" d="M 47.523438 42.75 L 42.75 47.574219 L 43.542969 48.367188 L 47.523438 44.332031 L 52.226562 49.007812 L 56.828125 44.332031 L 60.957031 48.488281 L 61.75 47.722656 L 56.828125 42.75 L 52.226562 47.425781 Z M 47.371094 52.230469 L 42.75 56.925781 L 43.542969 57.71875 L 47.375 53.832031 Z M 57.140625 52.269531 L 57.125 53.832031 L 60.957031 57.59375 L 61.75 56.777344 Z M 57.140625 52.269531 "/>
</g>
</svg>
