<?xml version="1.0" encoding="UTF-8"?>
<svg xmlns="http://www.w3.org/2000/svg" xmlns:xlink="http://www.w3.org/1999/xlink" width="76pt" height="76pt" viewBox="0 0 76 76" version="1.1">
<defs>
<linearGradient id="linear0" gradientUnits="userSpaceOnUse" x1="0" y1="-2" x2="0" y2="-66" gradientTransform="matrix(0.59375,0,0,0.585936,0.483708,62.921667)">
<stop offset="0" style="stop-color:rgb(66.666667%,66.666667%,66.666667%);stop-opacity:1;"/>
<stop offset="1" style="stop-color:rgb(94.117647%,94.117647%,94.117647%);stop-opacity:1;"/>
</linearGradient>
<linearGradient id="linear1" gradientUnits="userSpaceOnUse" x1="0" y1="-2" x2="0" y2="-50" gradientTransform="matrix(0.59375,0,0,0.598959,1.979167,62.945417)">
<stop offset="0" style="stop-color:rgb(66.666667%,66.666667%,66.666667%);stop-opacity:1;"/>
<stop offset="1" style="stop-color:rgb(94.117647%,94.117647%,94.117647%);stop-opacity:1;"/>
</linearGradient>
<linearGradient id="linear2" gradientUnits="userSpaceOnUse" x1="0" y1="-2" x2="0" y2="-34" gradientTransform="matrix(0.59375,0,0,0.624997,3.5625,63.000833)">
<stop offset="0" style="stop-color:rgb(66.666667%,66.666667%,66.666667%);stop-opacity:1;"/>
<stop offset="1" style="stop-color:rgb(94.117647%,94.117647%,94.117647%);stop-opacity:1;"/>
</linearGradient>
<linearGradient id="linear3" gradientUnits="userSpaceOnUse" x1="0" y1="30" x2="0" y2="73" gradientTransform="matrix(0.791667,0,0,0.791667,0,0)">
<stop offset="0" style="stop-color:rgb(100%,100%,100%);stop-opacity:0.6;"/>
<stop offset="1" style="stop-color:rgb(100%,100%,100%);stop-opacity:0;"/>
</linearGradient>
<linearGradient id="linear4" gradientUnits="userSpaceOnUse" x1="0" y1="42" x2="0" y2="73" gradientTransform="matrix(0.791667,0,0,0.791667,0,0)">
<stop offset="0" style="stop-color:rgb(100%,100%,100%);stop-opacity:0.6;"/>
<stop offset="1" style="stop-color:rgb(100%,100%,100%);stop-opacity:0;"/>
</linearGradient>
<linearGradient id="linear5" gradientUnits="userSpaceOnUse" x1="0" y1="54" x2="0" y2="74" gradientTransform="matrix(0.791667,0,0,0.791667,0,0)">
<stop offset="0" style="stop-color:rgb(100%,100%,100%);stop-opacity:0.6;"/>
<stop offset="1" style="stop-color:rgb(100%,100%,100%);stop-opacity:0;"/>
</linearGradient>
</defs>
<g id="surface1">
<path style=" stroke:none;fill-rule:nonzero;fill:rgb(0%,0%,0%);fill-opacity:0.0784314;" d="M 41.957031 22.167969 C 39.359375 22.167969 37.207031 24.289062 37.207031 26.890625 L 37.207031 32.929688 C 36.367188 32.164062 35.261719 31.667969 34.042969 31.667969 L 29.292969 31.667969 C 26.671875 31.667969 24.542969 33.832031 24.542969 36.441406 L 24.542969 42.476562 C 23.703125 41.691406 22.617188 41.167969 21.375 41.167969 L 16.625 41.167969 C 13.960938 41.167969 11.875 43.417969 11.875 46.039062 L 11.875 60.042969 C 11.875 62.664062 13.960938 64.917969 16.625 64.917969 L 21.375 64.917969 C 23.078125 64.917969 24.496094 63.964844 25.332031 62.617188 C 26.171875 63.960938 27.597656 64.917969 29.292969 64.917969 L 34.042969 64.917969 C 35.738281 64.917969 37.160156 63.960938 38 62.617188 C 38.839844 63.960938 40.265625 64.917969 41.957031 64.917969 L 46.808594 64.917969 C 49.183594 64.917969 51.105469 63.136719 51.433594 60.859375 C 51.445312 60.820312 51.453125 60.777344 51.457031 60.734375 L 51.457031 26.371094 C 51.453125 26.339844 51.445312 26.304688 51.433594 26.273438 C 51.113281 23.988281 49.191406 22.167969 46.808594 22.167969 Z M 41.957031 22.167969 "/>
<path style=" stroke:none;fill-rule:nonzero;fill:rgb(0%,0%,0%);fill-opacity:0.101961;" d="M 41.957031 22.957031 C 39.785156 22.957031 38 24.71875 38 26.890625 L 38 36.441406 C 38 34.257812 36.230469 32.457031 34.042969 32.457031 L 29.292969 32.457031 C 27.101562 32.457031 25.332031 34.257812 25.332031 36.441406 L 25.332031 46.039062 C 25.332031 43.832031 23.59375 41.957031 21.375 41.957031 L 16.625 41.957031 C 14.40625 41.957031 12.667969 43.832031 12.667969 46.039062 L 12.667969 60.042969 C 12.667969 62.253906 14.40625 64.125 16.625 64.125 L 21.375 64.125 C 23.5625 64.125 25.285156 62.308594 25.332031 60.140625 C 25.332031 62.328125 27.101562 64.125 29.292969 64.125 L 34.042969 64.125 C 36.214844 64.125 37.972656 62.351562 38 60.191406 C 38 62.363281 39.785156 64.125 41.957031 64.125 L 46.808594 64.125 C 48.789062 64.125 50.390625 62.640625 50.667969 60.734375 L 50.667969 26.371094 C 50.398438 24.453125 48.796875 22.957031 46.808594 22.957031 Z M 41.957031 22.957031 "/>
<path style=" stroke:none;fill-rule:nonzero;fill:rgb(0%,0%,0%);fill-opacity:0.14902;" d="M 41.957031 23.800781 C 40.242188 23.800781 38.839844 25.1875 38.839844 26.890625 L 38.839844 60.191406 C 38.839844 61.898438 40.242188 63.285156 41.957031 63.285156 L 46.808594 63.285156 C 48.523438 63.285156 49.925781 61.898438 49.925781 60.191406 L 49.925781 26.890625 C 49.925781 25.1875 48.523438 23.800781 46.808594 23.800781 Z M 29.292969 33.300781 C 27.570312 33.300781 26.175781 34.714844 26.175781 36.441406 L 26.175781 60.140625 C 26.175781 61.867188 27.570312 63.285156 29.292969 63.285156 L 34.042969 63.285156 C 35.765625 63.285156 37.160156 61.867188 37.160156 60.140625 L 37.160156 36.441406 C 37.160156 34.714844 35.765625 33.300781 34.042969 33.300781 Z M 16.625 42.800781 C 14.886719 42.800781 13.507812 44.273438 13.507812 46.039062 L 13.507812 60.042969 C 13.507812 61.808594 14.886719 63.285156 16.625 63.285156 L 21.375 63.285156 C 23.113281 63.285156 24.492188 61.808594 24.492188 60.042969 L 24.492188 46.039062 C 24.492188 44.273438 23.113281 42.800781 21.375 42.800781 Z M 16.625 42.800781 "/>
<path style=" stroke:none;fill-rule:nonzero;fill:rgb(0%,0%,0%);fill-opacity:0.298039;" d="M 41.957031 24.542969 C 40.644531 24.542969 39.582031 25.59375 39.582031 26.890625 L 39.582031 60.191406 C 39.582031 61.488281 40.644531 62.542969 41.957031 62.542969 L 46.808594 62.542969 C 48.121094 62.542969 49.183594 61.488281 49.183594 60.191406 L 49.183594 26.890625 C 49.183594 25.59375 48.121094 24.542969 46.808594 24.542969 Z M 29.292969 34.042969 C 27.976562 34.042969 26.917969 35.113281 26.917969 36.441406 L 26.917969 60.140625 C 26.917969 61.46875 27.976562 62.542969 29.292969 62.542969 L 34.042969 62.542969 C 35.355469 62.542969 36.417969 61.46875 36.417969 60.140625 L 36.417969 36.441406 C 36.417969 35.113281 35.355469 34.042969 34.042969 34.042969 Z M 16.625 43.542969 C 15.308594 43.542969 14.25 44.65625 14.25 46.039062 L 14.25 60.042969 C 14.25 61.429688 15.308594 62.542969 16.625 62.542969 L 21.375 62.542969 C 22.691406 62.542969 23.75 61.429688 23.75 60.042969 L 23.75 46.039062 C 23.75 44.65625 22.691406 43.542969 21.375 43.542969 Z M 16.625 43.542969 "/>
<path style=" stroke:none;fill-rule:nonzero;fill:rgb(100%,100%,100%);fill-opacity:0.2;" d="M 54.625 14.25 L 59.375 14.25 C 60.6875 14.25 61.75 15.3125 61.75 16.625 L 61.75 59.375 C 61.75 60.6875 60.6875 61.75 59.375 61.75 L 54.625 61.75 C 53.3125 61.75 52.25 60.6875 52.25 59.375 L 52.25 16.625 C 52.25 15.3125 53.3125 14.25 54.625 14.25 Z M 54.625 14.25 "/>
<path style=" stroke:none;fill-rule:nonzero;fill:url(#linear0);" d="M 41.957031 23.75 L 46.796875 23.75 C 48.105469 23.75 49.171875 24.800781 49.171875 26.09375 L 49.171875 59.40625 C 49.171875 60.699219 48.105469 61.75 46.796875 61.75 L 41.957031 61.75 C 40.648438 61.75 39.582031 60.699219 39.582031 59.40625 L 39.582031 26.09375 C 39.582031 24.800781 40.648438 23.75 41.957031 23.75 Z M 41.957031 23.75 "/>
<path style=" stroke:none;fill-rule:nonzero;fill:url(#linear1);" d="M 29.292969 33.25 L 34.042969 33.25 C 35.351562 33.25 36.417969 34.324219 36.417969 35.648438 L 36.417969 59.351562 C 36.417969 60.675781 35.351562 61.75 34.042969 61.75 L 29.292969 61.75 C 27.980469 61.75 26.917969 60.675781 26.917969 59.351562 L 26.917969 35.648438 C 26.917969 34.324219 27.980469 33.25 29.292969 33.25 Z M 29.292969 33.25 "/>
<path style=" stroke:none;fill-rule:nonzero;fill:url(#linear2);" d="M 16.625 42.75 L 21.375 42.75 C 22.6875 42.75 23.75 43.871094 23.75 45.25 L 23.75 59.25 C 23.75 60.628906 22.6875 61.75 21.375 61.75 L 16.625 61.75 C 15.3125 61.75 14.25 60.628906 14.25 59.25 L 14.25 45.25 C 14.25 43.871094 15.3125 42.75 16.625 42.75 Z M 16.625 42.75 "/>
<path style=" stroke:none;fill-rule:nonzero;fill:url(#linear3);" d="M 41.957031 23.75 C 40.644531 23.75 39.582031 24.800781 39.582031 26.101562 L 39.582031 59.398438 C 39.582031 60.699219 40.644531 61.75 41.957031 61.75 L 46.808594 61.75 C 48.121094 61.75 49.183594 60.699219 49.183594 59.398438 L 49.183594 26.101562 C 49.183594 24.800781 48.121094 23.75 46.808594 23.75 Z M 41.957031 24.542969 L 46.808594 24.542969 C 47.703125 24.542969 48.390625 25.230469 48.390625 26.101562 L 48.390625 59.398438 C 48.390625 60.269531 47.703125 60.957031 46.808594 60.957031 L 41.957031 60.957031 C 41.0625 60.957031 40.375 60.269531 40.375 59.398438 L 40.375 26.101562 C 40.375 25.230469 41.0625 24.542969 41.957031 24.542969 Z M 41.957031 24.542969 "/>
<path style=" stroke:none;fill-rule:nonzero;fill:url(#linear4);" d="M 29.292969 33.25 C 27.976562 33.25 26.917969 34.324219 26.917969 35.648438 L 26.917969 59.351562 C 26.917969 60.675781 27.976562 61.75 29.292969 61.75 L 34.042969 61.75 C 35.355469 61.75 36.417969 60.675781 36.417969 59.351562 L 36.417969 35.648438 C 36.417969 34.324219 35.355469 33.25 34.042969 33.25 Z M 29.292969 34.042969 L 34.042969 34.042969 C 34.929688 34.042969 35.625 34.742188 35.625 35.648438 L 35.625 59.351562 C 35.625 60.257812 34.929688 60.957031 34.042969 60.957031 L 29.292969 60.957031 C 28.402344 60.957031 27.707031 60.257812 27.707031 59.351562 L 27.707031 35.648438 C 27.707031 34.742188 28.402344 34.042969 29.292969 34.042969 Z M 29.292969 34.042969 "/>
<path style=" stroke:none;fill-rule:nonzero;fill:url(#linear5);" d="M 16.625 42.75 C 15.308594 42.75 14.25 43.863281 14.25 45.25 L 14.25 59.25 C 14.25 60.636719 15.308594 61.75 16.625 61.75 L 21.375 61.75 C 22.691406 61.75 23.75 60.636719 23.75 59.25 L 23.75 45.25 C 23.75 43.863281 22.691406 42.75 21.375 42.75 Z M 16.625 43.589844 L 21.375 43.589844 C 22.210938 43.589844 22.910156 44.296875 22.910156 45.25 L 22.910156 59.25 C 22.910156 60.203125 22.210938 60.910156 21.375 60.910156 L 16.625 60.910156 C 15.789062 60.910156 15.089844 60.203125 15.089844 59.25 L 15.089844 45.25 C 15.089844 44.296875 15.789062 43.589844 16.625 43.589844 Z M 16.625 43.589844 "/>
</g>
</svg>
