<?xml version="1.0" encoding="UTF-8"?>
<svg xmlns="http://www.w3.org/2000/svg" xmlns:xlink="http://www.w3.org/1999/xlink" width="76pt" height="76pt" viewBox="0 0 76 76" version="1.1">
<defs>
<linearGradient id="linear0" gradientUnits="userSpaceOnUse" x1="0" y1="-2" x2="0" y2="-34" gradientTransform="matrix(0.59375,0,0,0.624997,3.5625,63.000833)">
<stop offset="0" style="stop-color:rgb(66.666667%,66.666667%,66.666667%);stop-opacity:1;"/>
<stop offset="1" style="stop-color:rgb(94.117647%,94.117647%,94.117647%);stop-opacity:1;"/>
</linearGradient>
<linearGradient id="linear1" gradientUnits="userSpaceOnUse" x1="0" y1="54" x2="0" y2="74" gradientTransform="matrix(0.791667,0,0,0.791667,0,0)">
<stop offset="0" style="stop-color:rgb(100%,100%,100%);stop-opacity:0.6;"/>
<stop offset="1" style="stop-color:rgb(100%,100%,100%);stop-opacity:0;"/>
</linearGradient>
</defs>
<g id="surface1">
<path style=" stroke:none;fill-rule:nonzero;fill:rgb(0%,0%,0%);fill-opacity:0.0784314;" d="M 16.625 41.191406 C 13.96875 41.191406 11.898438 43.425781 11.898438 46.039062 L 11.898438 60.042969 C 11.898438 62.660156 13.96875 64.890625 16.625 64.890625 L 21.375 64.890625 C 23.988281 64.890625 26.042969 62.734375 26.101562 60.167969 C 26.101562 60.160156 26.101562 60.148438 26.101562 60.140625 L 26.101562 46.039062 C 26.101562 43.425781 24.03125 41.191406 21.375 41.191406 Z M 16.625 41.191406 "/>
<path style=" stroke:none;fill-rule:nonzero;fill:rgb(0%,0%,0%);fill-opacity:0.101961;" d="M 16.625 41.957031 C 14.40625 41.957031 12.667969 43.832031 12.667969 46.039062 L 12.667969 60.042969 C 12.667969 62.253906 14.40625 64.125 16.625 64.125 L 21.375 64.125 C 23.5625 64.125 25.285156 62.308594 25.332031 60.140625 L 25.332031 46.039062 C 25.332031 43.832031 23.59375 41.957031 21.375 41.957031 Z M 16.625 41.957031 "/>
<path style=" stroke:none;fill-rule:nonzero;fill:rgb(0%,0%,0%);fill-opacity:0.14902;" d="M 16.625 42.800781 C 14.886719 42.800781 13.507812 44.273438 13.507812 46.039062 L 13.507812 60.042969 C 13.507812 61.808594 14.886719 63.285156 16.625 63.285156 L 21.375 63.285156 C 23.113281 63.285156 24.492188 61.808594 24.492188 60.042969 L 24.492188 46.039062 C 24.492188 44.273438 23.113281 42.800781 21.375 42.800781 Z M 16.625 42.800781 "/>
<path style=" stroke:none;fill-rule:nonzero;fill:rgb(0%,0%,0%);fill-opacity:0.298039;" d="M 16.625 43.542969 C 15.308594 43.542969 14.25 44.65625 14.25 46.039062 L 14.25 60.042969 C 14.25 61.429688 15.308594 62.542969 16.625 62.542969 L 21.375 62.542969 C 22.691406 62.542969 23.75 61.429688 23.75 60.042969 L 23.75 46.039062 C 23.75 44.65625 22.691406 43.542969 21.375 43.542969 Z M 16.625 43.542969 "/>
<path style=" stroke:none;fill-rule:nonzero;fill:rgb(100%,100%,100%);fill-opacity:0.2;" d="M 54.625 14.25 L 59.375 14.25 C 60.6875 14.25 61.75 15.3125 61.75 16.625 L 61.75 59.375 C 61.75 60.6875 60.6875 61.75 59.375 61.75 L 54.625 61.75 C 53.3125 61.75 52.25 60.6875 52.25 59.375 L 52.25 16.625 C 52.25 15.3125 53.3125 14.25 54.625 14.25 Z M 54.625 14.25 "/>
<path style=" stroke:none;fill-rule:nonzero;fill:rgb(100%,100%,100%);fill-opacity:0.2;" d="M 41.957031 23.75 L 46.796875 23.75 C 48.105469 23.75 49.171875 24.800781 49.171875 26.09375 L 49.171875 59.40625 C 49.171875 60.699219 48.105469 61.75 46.796875 61.75 L 41.957031 61.75 C 40.648438 61.75 39.582031 60.699219 39.582031 59.40625 L 39.582031 26.09375 C 39.582031 24.800781 40.648438 23.75 41.957031 23.75 Z M 41.957031 23.75 "/>
<path style=" stroke:none;fill-rule:nonzero;fill:rgb(100%,100%,100%);fill-opacity:0.2;" d="M 29.292969 33.25 L 34.042969 33.25 C 35.351562 33.25 36.417969 34.324219 36.417969 35.648438 L 36.417969 59.351562 C 36.417969 60.675781 35.351562 61.75 34.042969 61.75 L 29.292969 61.75 C 27.980469 61.75 26.917969 60.675781 26.917969 59.351562 L 26.917969 35.648438 C 26.917969 34.324219 27.980469 33.25 29.292969 33.25 Z M 29.292969 33.25 "/>
<path style=" stroke:none;fill-rule:nonzero;fill:url(#linear0);" d="M 16.625 42.75 L 21.375 42.75 C 22.6875 42.75 23.75 43.871094 23.75 45.25 L 23.75 59.25 C 23.75 60.628906 22.6875 61.75 21.375 61.75 L 16.625 61.75 C 15.3125 61.75 14.25 60.628906 14.25 59.25 L 14.25 45.25 C 14.25 43.871094 15.3125 42.75 16.625 42.75 Z M 16.625 42.75 "/>
<path style=" stroke:none;fill-rule:nonzero;fill:url(#linear1);" d="M 16.625 42.75 C 15.308594 42.75 14.25 43.863281 14.25 45.25 L 14.25 59.25 C 14.25 60.636719 15.308594 61.75 16.625 61.75 L 21.375 61.75 C 22.691406 61.75 23.75 60.636719 23.75 59.25 L 23.75 45.25 C 23.75 43.863281 22.691406 42.75 21.375 42.75 Z M 16.625 43.589844 L 21.375 43.589844 C 22.210938 43.589844 22.910156 44.296875 22.910156 45.25 L 22.910156 59.25 C 22.910156 60.203125 22.210938 60.910156 21.375 60.910156 L 16.625 60.910156 C 15.789062 60.910156 15.089844 60.203125 15.089844 59.25 L 15.089844 45.25 C 15.089844 44.296875 15.789062 43.589844 16.625 43.589844 Z M 16.625 43.589844 "/>
</g>
</svg>
