<?xml version="1.0" encoding="UTF-8"?>
<svg xmlns="http://www.w3.org/2000/svg" xmlns:xlink="http://www.w3.org/1999/xlink" width="76pt" height="76pt" viewBox="0 0 76 76" version="1.1">
<defs>
<linearGradient id="linear0" gradientUnits="userSpaceOnUse" x1="0" y1="-2" x2="0" y2="-34" gradientTransform="matrix(0.791667,0,0,0.791667,-6.333333,71.25)">
<stop offset="0" style="stop-color:rgb(66.666667%,66.666667%,66.666667%);stop-opacity:1;"/>
<stop offset="1" style="stop-color:rgb(94.117647%,94.117647%,94.117647%);stop-opacity:1;"/>
</linearGradient>
<linearGradient id="linear1" gradientUnits="userSpaceOnUse" x1="0" y1="-18" x2="0" y2="14.14" gradientTransform="matrix(0.791667,0,0,0.791667,0,58.583333)">
<stop offset="0" style="stop-color:rgb(100%,100%,100%);stop-opacity:0.6;"/>
<stop offset="1" style="stop-color:rgb(100%,100%,100%);stop-opacity:0;"/>
</linearGradient>
</defs>
<g id="surface1">
<path style=" stroke:none;fill-rule:nonzero;fill:rgb(0%,0%,0%);fill-opacity:0.0784314;" d="M 11.082031 42.75 C 8.039062 42.75 5.542969 45.25 5.542969 48.292969 L 5.542969 67.292969 C 5.542969 70.335938 8.039062 72.832031 11.082031 72.832031 L 17.417969 72.832031 C 20.460938 72.832031 22.957031 70.335938 22.957031 67.292969 L 22.957031 48.292969 C 22.957031 45.25 20.460938 42.75 17.417969 42.75 Z M 11.082031 42.75 "/>
<path style=" stroke:none;fill-rule:nonzero;fill:rgb(0%,0%,0%);fill-opacity:0.101961;" d="M 11.082031 43.566406 C 8.484375 43.566406 6.359375 45.691406 6.359375 48.292969 L 6.359375 67.292969 C 6.359375 69.890625 8.484375 72.015625 11.082031 72.015625 L 17.417969 72.015625 C 20.015625 72.015625 22.140625 69.890625 22.140625 67.292969 L 22.140625 48.292969 C 22.140625 45.691406 20.015625 43.566406 17.417969 43.566406 Z M 11.082031 43.566406 "/>
<path style=" stroke:none;fill-rule:nonzero;fill:rgb(0%,0%,0%);fill-opacity:0.14902;" d="M 11.082031 44.308594 C 8.894531 44.308594 7.101562 46.105469 7.101562 48.292969 L 7.101562 67.292969 C 7.101562 69.480469 8.894531 71.273438 11.082031 71.273438 L 17.417969 71.273438 C 19.605469 71.273438 21.398438 69.480469 21.398438 67.292969 L 21.398438 48.292969 C 21.398438 46.105469 19.605469 44.308594 17.417969 44.308594 Z M 11.082031 44.308594 "/>
<path style=" stroke:none;fill-rule:nonzero;fill:rgb(0%,0%,0%);fill-opacity:0.298039;" d="M 11.082031 45.125 C 9.328125 45.125 7.917969 46.539062 7.917969 48.292969 L 7.917969 67.292969 C 7.917969 69.046875 9.328125 70.457031 11.082031 70.457031 L 17.417969 70.457031 C 19.171875 70.457031 20.582031 69.046875 20.582031 67.292969 L 20.582031 48.292969 C 20.582031 46.539062 19.171875 45.125 17.417969 45.125 Z M 11.082031 45.125 "/>
<path style=" stroke:none;fill-rule:nonzero;fill:rgb(100%,100%,100%);fill-opacity:0.2;" d="M 58.582031 6.332031 L 64.917969 6.332031 C 66.664062 6.332031 68.082031 7.75 68.082031 9.5 L 68.082031 66.5 C 68.082031 68.25 66.664062 69.667969 64.917969 69.667969 L 58.582031 69.667969 C 56.835938 69.667969 55.417969 68.25 55.417969 66.5 L 55.417969 9.5 C 55.417969 7.75 56.835938 6.332031 58.582031 6.332031 Z M 58.582031 6.332031 "/>
<path style=" stroke:none;fill-rule:nonzero;fill:rgb(100%,100%,100%);fill-opacity:0.2;" d="M 42.75 19 L 49.082031 19 C 50.832031 19 52.25 20.417969 52.25 22.167969 L 52.25 66.5 C 52.25 68.25 50.832031 69.667969 49.082031 69.667969 L 42.75 69.667969 C 41 69.667969 39.582031 68.25 39.582031 66.5 L 39.582031 22.167969 C 39.582031 20.417969 41 19 42.75 19 Z M 42.75 19 "/>
<path style=" stroke:none;fill-rule:nonzero;fill:rgb(100%,100%,100%);fill-opacity:0.2;" d="M 26.917969 31.667969 L 33.25 31.667969 C 35 31.667969 36.417969 33.085938 36.417969 34.832031 L 36.417969 66.5 C 36.417969 68.25 35 69.667969 33.25 69.667969 L 26.917969 69.667969 C 25.167969 69.667969 23.75 68.25 23.75 66.5 L 23.75 34.832031 C 23.75 33.085938 25.167969 31.667969 26.917969 31.667969 Z M 26.917969 31.667969 "/>
<path style=" stroke:none;fill-rule:nonzero;fill:url(#linear0);" d="M 11.082031 44.332031 L 17.417969 44.332031 C 19.164062 44.332031 20.582031 45.75 20.582031 47.5 L 20.582031 66.5 C 20.582031 68.25 19.164062 69.667969 17.417969 69.667969 L 11.082031 69.667969 C 9.335938 69.667969 7.917969 68.25 7.917969 66.5 L 7.917969 47.5 C 7.917969 45.75 9.335938 44.332031 11.082031 44.332031 Z M 11.082031 44.332031 "/>
<path style=" stroke:none;fill-rule:nonzero;fill:url(#linear1);" d="M 11.082031 44.332031 C 9.328125 44.332031 7.917969 45.746094 7.917969 47.5 L 7.917969 66.5 C 7.917969 67.925781 8.855469 69.09375 10.144531 69.492188 C 9.28125 69.132812 8.683594 68.300781 8.683594 67.292969 L 8.683594 48.292969 C 8.683594 46.949219 9.738281 45.890625 11.082031 45.890625 L 17.417969 45.890625 C 18.761719 45.890625 19.816406 46.949219 19.816406 48.292969 L 19.816406 67.292969 C 19.816406 68.300781 19.21875 69.132812 18.355469 69.492188 C 19.644531 69.09375 20.582031 67.925781 20.582031 66.5 L 20.582031 47.5 C 20.582031 45.746094 19.171875 44.332031 17.417969 44.332031 Z M 11.082031 44.332031 "/>
</g>
</svg>
