<?xml version="1.0" encoding="UTF-8"?>
<svg xmlns="http://www.w3.org/2000/svg" xmlns:xlink="http://www.w3.org/1999/xlink" width="76pt" height="76pt" viewBox="0 0 76 76" version="1.1">
<g id="surface1">
<path style=" stroke:none;fill-rule:nonzero;fill:rgb(100%,100%,100%);fill-opacity:0.2;" d="M 58.582031 6.332031 L 64.917969 6.332031 C 66.664062 6.332031 68.082031 7.75 68.082031 9.5 L 68.082031 66.5 C 68.082031 68.25 66.664062 69.667969 64.917969 69.667969 L 58.582031 69.667969 C 56.835938 69.667969 55.417969 68.25 55.417969 66.5 L 55.417969 9.5 C 55.417969 7.75 56.835938 6.332031 58.582031 6.332031 Z M 58.582031 6.332031 "/>
<path style=" stroke:none;fill-rule:nonzero;fill:rgb(100%,100%,100%);fill-opacity:0.2;" d="M 42.75 19 L 49.082031 19 C 50.832031 19 52.25 20.417969 52.25 22.167969 L 52.25 66.5 C 52.25 68.25 50.832031 69.667969 49.082031 69.667969 L 42.75 69.667969 C 41 69.667969 39.582031 68.25 39.582031 66.5 L 39.582031 22.167969 C 39.582031 20.417969 41 19 42.75 19 Z M 42.75 19 "/>
<path style=" stroke:none;fill-rule:nonzero;fill:rgb(100%,100%,100%);fill-opacity:0.2;" d="M 26.917969 31.667969 L 33.25 31.667969 C 35 31.667969 36.417969 33.085938 36.417969 34.832031 L 36.417969 66.5 C 36.417969 68.25 35 69.667969 33.25 69.667969 L 26.917969 69.667969 C 25.167969 69.667969 23.75 68.25 23.75 66.5 L 23.75 34.832031 C 23.75 33.085938 25.167969 31.667969 26.917969 31.667969 Z M 26.917969 31.667969 "/>
<path style=" stroke:none;fill-rule:nonzero;fill:rgb(100%,100%,100%);fill-opacity:0.2;" d="M 11.082031 44.332031 L 17.417969 44.332031 C 19.164062 44.332031 20.582031 45.75 20.582031 47.5 L 20.582031 66.5 C 20.582031 68.25 19.164062 69.667969 17.417969 69.667969 L 11.082031 69.667969 C 9.335938 69.667969 7.917969 68.25 7.917969 66.5 L 7.917969 47.5 C 7.917969 45.75 9.335938 44.332031 11.082031 44.332031 Z M 11.082031 44.332031 "/>
</g>
</svg>
