<svg display="inline" height="16" width="16" xmlns="http://www.w3.org/2000/svg" xmlns:sodipodi="http://sodipodi.sourceforge.net/DTD/sodipodi-0.dtd" xmlns:inkscape="http://www.inkscape.org/namespaces/inkscape">
 <g inkscape:label="Icon" inkscape:groupmode="layer" transform="matrix(1 0 0 1 0 -6)">
  <path d="M 8 0 C 8 0 6 3 2 3 C 2 14 8 16 8 16 C 8 16 14 14 14 3 C 10 3 8 1.7347235e-18 8 0 z M 8 3 C 8.9002113 3.7401502 10.082069 4.3257046 11.6875 4.75 C 11.407775 8.6731037 10.304423 10.971034 9.28125 12.25 C 8.7464114 12.918548 8.3414285 13.288206 8 13.53125 C 7.6585715 13.288206 7.2535886 12.918548 6.71875 12.25 C 5.6955772 10.971034 4.5922252 8.6731037 4.3125 4.75 C 5.9179309 4.3257046 7.0997887 3.7401502 8 3 z " fill="#cccccc" fill-opacity="1" stroke="none" transform="matrix(1 0 0 1 0 6)"/>
  <path d="M 8,4 C 7.2481269,4.5264131 6.3473933,4.9647743 5.28125,5.3125 5.6294862,8.6229243 6.5396792,10.674599 7.375,11.71875 7.652314,12.065392 7.8055767,12.159349 8,12.34375 8.1944233,12.159349 8.347686,12.065392 8.625,11.71875 9.4603209,10.674599 10.370514,8.6229242 10.71875,5.3125 9.6526067,4.9647743 8.7518731,4.5264131 8,4 z" fill="#cccccc" fill-opacity="1" stroke="none" opacity="0.45" sodipodi:type="inkscape:offset" inkscape:original="M 8 3 C 7.0997887 3.7401502 5.9179309 4.3257046 4.3125 4.75 C 4.5922252 8.6731037 5.6955772 10.971034 6.71875 12.25 C 7.2535886 12.918548 7.6585715 13.288206 8 13.53125 C 8.3414285 13.288206 8.7464114 12.918548 9.28125 12.25 C 10.304423 10.971034 11.407775 8.6731037 11.6875 4.75 C 10.082069 4.3257046 8.9002113 3.7401502 8 3 z " inkscape:radius="-0.85959965" transform="matrix(1 0 0 1 0 6)"/>
 </g>
</svg>
