<svg viewBox="0 0 16 16" height="16" width="16" xmlns="http://www.w3.org/2000/svg" xmlns:sodipodi="http://sodipodi.sourceforge.net/DTD/sodipodi-0.dtd" xmlns:inkscape="http://www.inkscape.org/namespaces/inkscape">
 <path stroke="none" stroke-dasharray="none" stroke-dashoffset="0" stroke-linecap="butt" stroke-linejoin="miter" color="#000000" stroke-miterlimit="4" stroke-opacity="1" color-interpolation="sRGB" image-rendering="auto" stroke-width="1" color-interpolation-filters="linearRGB" color-rendering="auto" d="M 8 2 C 5.784 2 4 3.784 4 6 L 4 10 C 4 12.216 5.784 14 8 14 C 10.216 14 12 12.216 12 10 L 12 6 C 12 3.784 10.216 2 8 2 z M 8 3 C 9.662 3 11 4.338 11 6 L 11 10 C 11 11.662 9.662 13 8 13 C 6.338 13 5 11.662 5 10 L 5 6 C 5 4.338 6.338 3 8 3 z M 7.5 5 L 7.5 7.4570312 L 8.5 7.4570312 L 8.5 5 L 7.5 5 z " text-rendering="auto" display="inline" visibility="visible" fill="#666666" fill-opacity="1" opacity="1" fill-rule="nonzero" shape-rendering="auto"/>
</svg>
