<svg height="16" width="16" xmlns="http://www.w3.org/2000/svg" xmlns:sodipodi="http://sodipodi.sourceforge.net/DTD/sodipodi-0.dtd" xmlns:inkscape="http://www.inkscape.org/namespaces/inkscape">
 <g transform="matrix(1 0 0 1 -281 -448)">
  <path d="m284.03 449c-1.6692 0-3.0312 1.3621-3.0312 3.0312v7.9375c0 1.6692 1.3621 3.0312 3.0312 3.0312h8.9375c1.6692 0 3.0312-1.3621 3.0312-3.0312v-7.9375c0-1.6692-1.3621-3.0312-3.0312-3.0312h-8.9375zm0 2h8.9375c0.59578 0 1.0312 0.43547 1.0312 1.0312v5.9688h-11v-5.9688c0-0.59578 0.43547-1.0312 1.0312-1.0312zm-1.0312 8h5v2h-3.9688c-0.59578 0-1.0312-0.43547-1.0312-1.0312v-0.96875zm6 0h5v0.96875c0 0.59578-0.43547 1.0312-1.0312 1.0312h-3.9688v-2z" fill="#666666" color="#666666"/>
  <rect x="283" rx="0" y="451" fill="#666666" color="#666666" height="7" opacity="0.35" width="11"/>
 </g>
</svg>
