<svg height="96" width="96" xmlns="http://www.w3.org/2000/svg" xmlns:xlink="http://www.w3.org/1999/xlink" xmlns:sodipodi="http://sodipodi.sourceforge.net/DTD/sodipodi-0.dtd" xmlns:inkscape="http://www.inkscape.org/namespaces/inkscape">
 <defs>
  <filter x="-0.192" y="-0.192" height="1.384" color-interpolation-filters="sRGB" id="filter3794-787" width="1.384">
   <feGaussianBlur stdDeviation="5.28"/>
  </filter>
  <linearGradient x2="0" y1="20.221" y2="138.66" gradientUnits="userSpaceOnUse" id="linearGradient3613">
   <stop stop-color="#ffffff" stop-opacity="1"/>
   <stop stop-color="#ffffff" stop-opacity="0" offset="1"/>
  </linearGradient>
  <clipPath id="clipPath3613">
   <use xlink:href="#SVGCleanerId_0"/>
  </clipPath>
  <radialGradient cy="47.906" r="59.41" gradientUnits="userSpaceOnUse" id="radialGradient3816" cx="47.844">
   <stop/>
   <stop stop-opacity="0" offset="1"/>
  </radialGradient>
  <clipPath id="clipPath3820">
   <use xlink:href="#SVGCleanerId_0"/>
  </clipPath>
  <clipPath clipPathUnits="userSpaceOnUse" id="clipPath4710">
   <path d="m -82.526923,3.0059201 c -6.400899,0 -11.534532,5.1312405 -11.534532,11.4736699 l 1.92e-4,58.04937 c 0,6.342239 5.133441,11.443233 11.534533,11.443233 l 58.604559,0 c 6.400899,0 11.534532,-5.100994 11.534532,-11.443233 l 0,-58.04937 c 0,-6.3422391 -5.133633,-11.4736699 -11.534532,-11.4736699 l -58.604559,1.902e-4 z" inkscape:connector-curvature="0"/>
  </clipPath>
  <rect x="6" rx="6" y="6" height="84" id="SVGCleanerId_0" width="84"/>
 </defs>
 <g transform="matrix(1 0 0 1 0 -956.36)">
  <rect x="3.353" rx="12.724" y="959.35" fill-opacity="0.02" height="89.98" width="89.62"/>
  <rect x="3.959" rx="12.552" y="959.96" fill-opacity="0.039" height="88.76" width="88.41"/>
  <rect x="4.564" rx="12.38" y="960.57" fill-opacity="0.078" height="87.55" width="87.2"/>
  <rect x="5.17" rx="12.208" y="961.18" fill-opacity="0.157" height="86.33" width="85.991"/>
 </g>
 <g clip-path="url(#clipPath4710)" transform="matrix(1.03767 0 0 1.05136 103.39 2.246)">
  <path d="m -52.768895,43.074855 c -7.634194,13.222815 -9.638974,28.131201 -6.8125,42 l 23.96875,0 c -10.607655,-10.826531 -17.15625,-25.639138 -17.15625,-42 z" fill="#00df16" fill-opacity="1" stroke="none" inkscape:connector-curvature="0"/>
  <path d="m -52.768895,43.168605 c -16.102792,9.296952 -26.278432,24.909871 -29.1875,41.90625 l 22.3125,0 c -2.809443,-13.843589 -0.746732,-28.705037 6.875,-41.90625 z" fill="#04abcf" fill-opacity="1" stroke="none" inkscape:connector-curvature="0"/>
  <path d="m -52.831395,43.231105 c -16.392798,0 -31.255755,6.543237 -42.09375,17.1875 l 0,18.65625 c 0,3.324 2.676,6 6,6 l 6.9375,0 c 2.920478,-16.97165 13.072551,-32.557833 29.15625,-41.84375 z" fill="#1a36d8" fill-opacity="1" stroke="none" inkscape:connector-curvature="0"/>
  <path d="m -83.456395,35.199855 c -3.867844,0.03537 -7.700843,0.450847 -11.46875,1.21875 l 0,23.96875 c 10.82653,-10.607662 25.639138,-17.156257 42,-17.15625 -9.630404,-5.560118 -20.162449,-8.126074 -30.53125,-8.03125 z" fill="#370099" fill-opacity="1" stroke="none" inkscape:connector-curvature="0"/>
  <path d="m -94.925145,14.043605 0,22.3125 c 13.843588,-2.809446 28.705036,-0.746753 41.90625,6.875 -9.296954,-16.102792 -24.909871,-26.278433 -41.90625,-29.1875 z" fill="#650199" fill-opacity="1" stroke="none" inkscape:connector-curvature="0"/>
  <path d="m -88.925145,1.0748554 c -3.324,0 -6,2.676 -6,6 l 0,6.9374996 c 16.971655,2.920477 32.55784,13.072546 41.84375,29.15625 0,-16.392798 -6.543235,-31.255752 -17.1875,-42.0937496 l -18.65625,0 z" fill="#9c009b" fill-opacity="1" stroke="none" inkscape:connector-curvature="0"/>
  <path d="m -70.237645,1.0748554 c 10.607661,10.8265306 17.156268,25.6391306 17.15625,41.9999996 7.634194,-13.222815 9.638971,-28.131201 6.8125,-41.9999996 l -23.96875,0 z" fill="#d10737" fill-opacity="1" stroke="none" inkscape:connector-curvature="0"/>
  <path d="m -46.206395,1.0748554 c 2.809448,13.8435876 0.746741,28.7050296 -6.875,41.9062496 16.102802,-9.296968 26.278433,-24.909869 29.1875,-41.9062496 l -22.3125,0 z" fill="#fd0005" fill-opacity="1" stroke="none" inkscape:connector-curvature="0"/>
  <path d="m -23.862645,1.0748554 c -2.920493,16.9716606 -13.07254,32.5578326 -29.15625,41.8437496 16.39281,-7e-6 31.255752,-6.543236 42.09375,-17.1875 l 0,-18.6562496 c 0,-3.324 -2.676,-6 -6,-6 l -6.9375,0 z" fill="#ff6500" fill-opacity="1" stroke="none" inkscape:connector-curvature="0"/>
  <path d="m -10.925145,25.762355 c -10.826532,10.607663 -25.639131,17.156257 -42,17.15625 13.222825,7.634192 28.131197,9.638974 42,6.8125 l 0,-23.96875 z" fill="#fdad00" fill-opacity="1" stroke="none" inkscape:connector-curvature="0"/>
  <path d="m -52.831395,42.918605 c 9.296964,16.102817 24.909866,26.278436 41.90625,29.1875 l 0,-22.3125 c -13.843588,2.809447 -28.705028,0.746751 -41.90625,-6.875 z" fill="#fffd01" fill-opacity="1" stroke="none" inkscape:connector-curvature="0"/>
  <path d="m -52.768895,42.981105 c 0,16.392812 6.54323,31.255753 17.1875,42.09375 l 18.65625,0 c 3.324,0 6,-2.676 6,-6 l 0,-6.9375 c -16.971665,-2.920477 -32.55783,-13.072546 -41.84375,-29.15625 z" fill="#b6fd00" fill-opacity="1" stroke="none" inkscape:connector-curvature="0"/>
  <path d="M 48.09375,-11.5 C 59.51633,11.081702 52.97547,34.449286 48.625,45.53125 46.6442,25.474019 35.46993,5.9488874 18.34375,-3.65625 39.5512,10.204707 45.60943,33.740989 47.375,45.5 35.63453,29.094526 16.18462,17.754965 -3.46875,18 21.80176,19.398765 38.76681,36.723419 46.1875,46.03125 27.82488,37.71278 5.32248,37.656226 -11.5625,47.6875 11.03664,36.256098 34.42849,42.774514 45.5,47.125 25.43165,49.097163 5.89144,60.271065 -3.71875,77.40625 10.15354,56.181456 33.71942,50.135017 45.46875,48.375 29.04629,60.113105 17.69231,79.552813 17.9375,99.21875 19.33627,73.948231 36.66092,56.983176 45.96875,49.5625 37.65028,67.925126 37.59372,90.427519 47.625,107.3125 36.1936,84.71336 42.71201,61.321507 47.0625,50.25 49.03259,70.321012 60.20641,89.857351 77.34375,99.46875 56.10294,85.585994 50.0674,62.021592 48.3125,50.28125 60.05017,66.706808 79.48804,78.05772 99.15625,77.8125 73.87066,76.412902 56.88244,59.085054 49.46875,49.78125 67.83612,58.1114 90.35709,58.192239 107.25,48.15625 84.6683,59.578834 61.30072,53.037974 50.21875,48.6875 70.27846,46.708628 89.79999,35.534427 99.40625,18.40625 85.53497,39.62951 62.0002,45.676991 50.25,47.4375 66.65841,35.697438 77.99506,16.249276 77.75,-3.40625 76.3504,21.879332 59.02255,38.867564 49.71875,46.28125 58.0489,27.913882 58.12973,5.3929133 48.09375,-11.5 Z M 47.8125,47.78125 c 0.0346,2.57e-4 0.0621,-0.004 0.0937,0 0.0338,0.02204 0.0347,0.06938 0.0625,0.09375 -2.7e-4,0.03662 -0.0268,0.06043 -0.0312,0.09375 -0.014,0.02029 -0.0164,0.04453 -0.0312,0.0625 -0.0482,-3.58e-4 -0.0824,-0.0239 -0.125,-0.03125 -0.007,-0.0048 -0.0245,0.005 -0.0312,0 -0.0128,-0.02324 -0.0213,-0.03969 -0.0312,-0.0625 0.002,-0.03567 0.0256,-0.06125 0.0312,-0.09375 0.003,-0.0082 -0.004,-0.02305 0,-0.03125 0.0232,-0.01278 0.0397,-0.02128 0.0625,-0.03125 z M 48,47.96875 c 0.0329,0.108189 0.0662,0.210213 0.0625,0.3125 C 48.0502,48.18248 48.0117,48.065051 48,47.96875 Z" clip-path="url(#clipPath3820)" fill="url(#radialGradient3816)" fill-opacity="1" stroke="none" inkscape:connector-curvature="0" transform="matrix(1 0 0 1 -100.93 -4.925)"/>
  <rect stroke="#ffffff" stroke-dasharray="none" clip-path="url(#clipPath3613)" stroke-dashoffset="0" stroke-linecap="round" height="66" stroke-linejoin="miter" stroke-miterlimit="4" stroke-opacity="1" stroke-width="0.5" width="66" fill="url(#linearGradient3613)" fill-opacity="1" opacity="0.1" x="15" fill-rule="nonzero" filter="url(#filter3794-787)" y="15" rx="12" transform="matrix(1 0 0 1 -100.93 -4.925)"/>
 </g>
 <path d="m 5.7756,77.54 0,1.0133 c 0,6.668 5.3434,12.032 11.985,12.032 l 60.809,0 c 6.6418,0 11.985,-5.3645 11.985,-12.032 l 0,-1.0133 c 0,6.6681 -5.3434,12.032 -11.985,12.032 l -60.809,0 c -6.6418,0 -11.985,-5.3644 -11.985,-12.032 z" fill-opacity="0.098" inkscape:connector-curvature="0"/>
 <path d="m 5.7756,73.44 0,5.0663 c 0,6.668 5.3434,12.032 11.985,12.032 l 60.809,0 c 6.6418,0 11.985,-5.3645 11.985,-12.032 l 0,-5.0663 c 0,6.6681 -5.3434,12.032 -11.985,12.032 l -60.809,0 c -6.6418,0 -11.985,-5.3643 -11.985,-12.032 z" fill-opacity="0.235" inkscape:connector-curvature="0"/>
</svg>
