<svg height="96" width="96" xmlns="http://www.w3.org/2000/svg" xmlns:sodipodi="http://sodipodi.sourceforge.net/DTD/sodipodi-0.dtd" xmlns:inkscape="http://www.inkscape.org/namespaces/inkscape">
 <defs>
  <clipPath id="clipPath3865">
   <path d="m -88,6 c -3.324,0 -6,2.676 -6,6 l 0,72 c 0,3.324 2.676,6 6,6 l 72,0 c 3.324,0 6,-2.676 6,-6 l 0,-72 c 0,-3.324 -2.676,-6 -6,-6 l -72,0 z m 33.625,22 c 1.880448,-0.06833 3.788449,0.959903 4.75,2.90625 0.579908,1.173833 0.630329,3.073374 0.125,4.40625 -0.761049,2.007369 -2.527947,3.21875 -4.6875,3.21875 -1.137164,0 -1.202239,0.0223 -1.125,0.375 0.04475,0.204342 0.323856,4.66007 0.625,9.90625 0.412151,7.179997 0.511906,9.704677 0.375,10.21875 -0.100033,0.375618 -0.156526,0.731501 -0.125,0.78125 1.574006,0.888629 3.192056,1.799209 4.90625,2.3125 1.336222,-1.877455 3.772107,-4.744143 4.25,-4.96875 3.317966,-0.462086 6.880559,-0.480621 10.1875,0.03125 5.657377,6.560115 11.174834,13.764075 16.1875,20.84375 l -41.25,0.09375 8.71875,-13.75 c -0.03569,-0.02979 -2.808198,-1.483462 -6.1875,-3.25 -5.496689,-2.873399 -6.638586,-3.372067 -6.625,-2.90625 0.0022,0.07386 0.421884,1.875646 0.9375,4 l 1.1875,3.84375 0.03125,5.625 c 0.01843,5.443247 -0.0022,5.661679 -0.34375,6 -0.375441,0.371853 -1.112829,0.396687 -3.3125,0.1875 -0.792649,-0.07539 -1.840876,-0.406019 -2.125,-0.6875 l 0.03125,-11.625 -0.9375,-3.6875 -0.9375,-3.6875 -5.1875,9 c -2.848853,4.962604 -5.472239,9.333029 -5.8125,9.6875 -0.86375,0.899818 -1.354531,0.838846 -2.84375,-0.25 -1.275231,-0.932391 -1.572539,-1.383605 -1.40625,-2.25 0.149834,-0.780644 0.01677,-0.546097 6.09375,-11.125 3.011727,-5.242855 5.523305,-9.703165 5.5625,-9.90625 0.06098,-0.31595 -0.193363,-0.503911 -1.78125,-1.34375 -1.833623,-0.96981 -1.875906,-0.977232 -2.125,-0.625 -0.442438,0.625627 -1.074526,0.451733 -2.3125,-0.65625 -1.698831,-1.520448 -1.745074,-1.297229 2,-8.28125 1.698047,-3.166613 3.271023,-5.951186 3.5,-6.1875 l 0.40625,-0.40625 7.4375,-0.0625 7.4375,-0.0625 L -59,34.9375 c -0.591495,-1.88561 0.02988,-4.22107 1.46875,-5.59375 0.915574,-0.873465 2.027981,-1.302753 3.15625,-1.34375 z m -14.5,13.25 c -0.253538,1.82e-4 -0.598734,0.01989 -1.03125,0.03125 L -71.75,41.34375 -73.71875,45 c -1.084031,2.025217 -1.949573,3.738343 -1.90625,3.78125 0.110518,0.109463 3.300355,1.74815 3.40625,1.75 0.04772,8.18e-4 0.962794,-1.959126 2.03125,-4.34375 1.068455,-2.384626 1.96681,-4.487517 2.03125,-4.65625 0.08147,-0.213327 0.04187,-0.281796 -0.71875,-0.28125 z m 9.4375,7 c -0.147081,-0.02701 -0.580386,0.857379 -1.6875,3.34375 -0.896631,2.013671 -1.656072,3.720382 -1.6875,3.78125 -0.06085,0.117854 3.815701,2.179108 3.9375,2.09375 0.03957,-0.02773 -0.03025,-2.019282 -0.15625,-4.40625 -0.126001,-2.386971 -0.285188,-4.532318 -0.34375,-4.75 -0.01033,-0.0384 -0.04149,-0.05864 -0.0625,-0.0625 z" inkscape:connector-curvature="0"/>
  </clipPath>
  <filter x="-0.105" y="-0.139" height="1.278" color-interpolation-filters="sRGB" id="filter3861" width="1.211">
   <feGaussianBlur stdDeviation="2.9051"/>
  </filter>
  <clipPath id="clipPath3873">
   <path d="m -55.763593,76.871041 c -0.792649,-0.07539 -1.81409,-0.394056 -2.098214,-0.675537 l 0.0091,-11.629569 -0.938143,-3.695097 -0.938143,-3.695097 -5.179737,9.022914 c -2.848853,4.962604 -5.458134,9.312939 -5.798395,9.66741 -0.86375,0.899818 -1.365788,0.859482 -2.855007,-0.229364 -1.275231,-0.932391 -1.561174,-1.396213 -1.394885,-2.262608 0.149834,-0.780644 0.01978,-0.543388 6.096765,-11.122291 3.011727,-5.242855 5.507937,-9.698625 5.547132,-9.90171 0.06098,-0.31595 -0.196572,-0.510905 -1.784459,-1.350744 -1.833623,-0.96981 -1.858729,-0.977254 -2.107823,-0.625022 -0.442438,0.625627 -1.076735,0.443555 -2.314709,-0.664428 -1.698831,-1.520448 -1.757699,-1.275786 1.987375,-8.259807 1.698047,-3.166613 3.274703,-5.950827 3.50368,-6.187141 l 0.416322,-0.429663 7.438682,-0.04987 7.438685,-0.04987 -0.253918,-0.809459 c -0.591495,-1.88561 0.0095,-4.19663 1.448371,-5.56931 2.441532,-2.329241 6.363975,-1.555682 7.902456,1.558473 0.579908,1.173833 0.635892,3.055549 0.130563,4.388425 -0.761049,2.007369 -2.533852,3.225841 -4.693405,3.225841 -1.137164,0 -1.193753,0.01883 -1.116514,0.371533 0.04475,0.204342 0.327755,4.66386 0.628899,9.91004 0.412151,7.179997 0.502564,9.707373 0.365658,10.221446 -0.100033,0.375618 -0.156083,0.723641 -0.124557,0.77339 1.574006,0.888629 3.190563,1.801476 4.904757,2.314767 1.336222,-1.877455 3.797333,-4.729212 4.275226,-4.953819 3.317966,-0.462086 6.852918,-0.488971 10.159859,0.0229 5.657377,6.560115 11.18443,13.764926 16.197096,20.844601 l -41.233706,0.08249 8.713509,-13.734918 c -0.03569,-0.02979 -2.829765,-1.499502 -6.209067,-3.26604 -5.496689,-2.873399 -6.619512,-3.366421 -6.605926,-2.900604 0.0022,0.07386 0.425783,1.872406 0.941399,3.99676 l 1.19002,3.862467 0.01906,5.627061 c 0.01843,5.443247 0.0075,5.638485 -0.334064,5.976806 -0.375441,0.371853 -1.134271,0.403831 -3.333942,0.194644 z m 6.720887,-24.807932 c -0.126001,-2.386971 -0.277007,-4.518048 -0.335569,-4.73573 -0.08264,-0.307176 -0.471447,0.423869 -1.73672,3.265436 -0.896631,2.013671 -1.655958,3.711021 -1.687386,3.771889 -0.06085,0.117854 3.795022,2.174125 3.916821,2.088767 0.03957,-0.02773 -0.03115,-2.003394 -0.157146,-4.390362 z m -11.15999,-6.878865 c 1.068455,-2.384626 1.995368,-4.473735 2.059808,-4.642468 0.108626,-0.284436 -0.01879,-0.30322 -1.748855,-0.257798 l -1.866016,0.04899 -1.970962,3.682213 c -1.084031,2.025217 -1.935518,3.717322 -1.892195,3.760229 0.110518,0.109463 3.282916,1.741151 3.388811,1.743001 0.04772,8.18e-4 0.960953,-1.949543 2.029409,-4.334167 z" inkscape:connector-curvature="0"/>
  </clipPath>
  <filter color-interpolation-filters="sRGB" id="filter3881">
   <feGaussianBlur stdDeviation="0.58102"/>
  </filter>
  <linearGradient x2="0" y1="11.35" y2="36.27" gradientUnits="userSpaceOnUse" id="linearGradient3193" gradientTransform="matrix(0.71698 0 0 0.75 2.041 0.756)">
   <stop/>
   <stop stop-opacity="0" offset="1"/>
  </linearGradient>
  <linearGradient x2="0" y1="90" y2="5.988" gradientUnits="userSpaceOnUse" id="linearGradient4706" inkscape:collect="always" gradientTransform="matrix(1.09201 0 0 1.06295 -2.993 -3.225)">
   <stop stop-color="#d18c1d" stop-opacity="1"/>
   <stop stop-color="#ffcf0f" stop-opacity="1" offset="1"/>
  </linearGradient>
 </defs>
 <g transform="matrix(1 0 0 1 0 -956.36)">
  <rect x="3.353" rx="12.724" y="959.35" fill-opacity="0.02" height="89.98" width="89.62"/>
  <rect x="3.959" rx="12.552" y="959.96" fill-opacity="0.039" height="88.76" width="88.41"/>
  <rect x="4.564" rx="12.38" y="960.57" fill-opacity="0.078" height="87.55" width="87.2"/>
  <rect x="5.17" rx="12.208" y="961.18" fill-opacity="0.157" height="86.33" width="85.991"/>
 </g>
 <path d="M 17.75 5.40625 C 11.108 5.40625 5.78125 10.80055 5.78125 17.46875 L 5.78125 78.5 C 5.78125 85.168 11.1078 90.53125 17.75 90.53125 L 78.5625 90.53125 C 85.2045 90.53125 90.53125 85.168 90.53125 78.5 L 90.53125 17.46875 C 90.53125 10.80075 85.2045 5.40625 78.5625 5.40625 L 17.75 5.40625 z " fill="url(#linearGradient4706)" fill-opacity="1" fill-rule="nonzero" stroke="none"/>
 <path d="m 5.7756,77.54 0,1.0133 c 0,6.668 5.3434,12.032 11.985,12.032 l 60.809,0 c 6.6418,0 11.985,-5.3645 11.985,-12.032 l 0,-1.0133 c 0,6.6681 -5.3434,12.032 -11.985,12.032 l -60.809,0 c -6.6418,0 -11.985,-5.3644 -11.985,-12.032 z" fill-opacity="0.098" inkscape:connector-curvature="0"/>
 <path d="m 5.7756,73.44 0,5.0663 c 0,6.668 5.3434,12.032 11.985,12.032 l 60.809,0 c 6.6418,0 11.985,-5.3645 11.985,-12.032 l 0,-5.0663 c 0,6.6681 -5.3434,12.032 -11.985,12.032 l -60.809,0 c -6.6418,0 -11.985,-5.3643 -11.985,-12.032 z" fill-opacity="0.235" inkscape:connector-curvature="0"/>
 <g transform="matrix(1 0 0 1 -0.789 -0.6)">
  <path d="m -65.763593,77.871041 c -0.792649,-0.07539 -1.81409,-0.394056 -2.098214,-0.675537 l 0.0091,-11.629569 -0.938143,-3.695097 -0.938143,-3.695097 -5.179737,9.022914 c -2.848853,4.962604 -5.458134,9.312939 -5.798395,9.66741 -0.86375,0.899818 -1.365788,0.859482 -2.855007,-0.229364 -1.275231,-0.932391 -1.561174,-1.396213 -1.394885,-2.262608 0.149834,-0.780644 0.01978,-0.543388 6.096765,-11.122291 3.011727,-5.242855 5.507937,-9.698625 5.547132,-9.90171 0.06098,-0.31595 -0.196572,-0.510905 -1.784459,-1.350744 -1.833623,-0.96981 -1.858729,-0.977254 -2.107823,-0.625022 -0.442438,0.625627 -1.076735,0.443555 -2.314709,-0.664428 -1.698831,-1.520448 -1.757699,-1.275786 1.987375,-8.259807 1.698047,-3.166613 3.274703,-5.950827 3.50368,-6.187141 l 0.416322,-0.429663 7.438682,-0.04987 7.438685,-0.04987 -0.253918,-0.809459 c -0.591495,-1.88561 0.0095,-4.19663 1.448371,-5.56931 2.441532,-2.329241 6.363975,-1.555682 7.902456,1.558473 0.579908,1.173833 0.635892,3.055549 0.130563,4.388425 -0.761049,2.007369 -2.533852,3.225841 -4.693405,3.225841 -1.137164,0 -1.193753,0.01883 -1.116514,0.371533 0.04475,0.204342 0.327755,4.66386 0.628899,9.91004 0.412151,7.179997 0.502564,9.707373 0.365658,10.221446 -0.100033,0.375618 -0.156083,0.723641 -0.124557,0.77339 1.574006,0.888629 3.190563,1.801476 4.904757,2.314767 1.336222,-1.877455 3.797333,-4.729212 4.275226,-4.953819 3.317966,-0.462086 6.852918,-0.488971 10.159859,0.0229 5.657377,6.560115 11.18443,13.764926 16.197096,20.844601 l -41.233706,0.08249 8.713509,-13.734918 c -0.03569,-0.02979 -2.829765,-1.499502 -6.209067,-3.26604 -5.496689,-2.873399 -6.619512,-3.366421 -6.605926,-2.900604 0.0022,0.07386 0.425783,1.872406 0.941399,3.99676 l 1.19002,3.862467 0.01906,5.627061 c 0.01843,5.443247 0.0075,5.638485 -0.334064,5.976806 -0.375441,0.371853 -1.134271,0.403831 -3.333942,0.194644 z m 6.720887,-24.807932 c -0.126001,-2.386971 -0.277007,-4.518048 -0.335569,-4.73573 -0.08264,-0.307176 -0.471447,0.423869 -1.73672,3.265436 -0.896631,2.013671 -1.655958,3.711021 -1.687386,3.771889 -0.06085,0.117854 3.795022,2.174125 3.916821,2.088767 0.03957,-0.02773 -0.03115,-2.003394 -0.157146,-4.390362 z m -11.15999,-6.878865 c 1.068455,-2.384626 1.995368,-4.473735 2.059808,-4.642468 0.108626,-0.284436 -0.01879,-0.30322 -1.748855,-0.257798 l -1.866016,0.04899 -1.970962,3.682213 c -1.084031,2.025217 -1.935518,3.717322 -1.892195,3.760229 0.110518,0.109463 3.282916,1.741151 3.388811,1.743001 0.04772,8.18e-4 0.960953,-1.949543 2.029409,-4.334167 z" display="inline" clip-path="url(#clipPath3865)" fill="#feeeb7" fill-opacity="1" filter="url(#filter3861)" opacity="0.8" inkscape:connector-curvature="0" transform="matrix(1 0 0 1 100 0)"/>
  <path d="m 34.236407,77.871041 c -0.792649,-0.07539 -1.81409,-0.394056 -2.098214,-0.675537 l 0.0091,-11.629569 -0.938143,-3.695097 -0.938143,-3.695097 -5.179737,9.022914 c -2.848853,4.962604 -5.458134,9.312939 -5.798395,9.66741 -0.86375,0.899818 -1.365788,0.859482 -2.855007,-0.229364 -1.275231,-0.932391 -1.561174,-1.396213 -1.394885,-2.262608 0.149834,-0.780644 0.01978,-0.543388 6.096765,-11.122291 3.011727,-5.242855 5.507937,-9.698625 5.547132,-9.90171 0.06098,-0.31595 -0.196572,-0.510905 -1.784459,-1.350744 -1.833623,-0.96981 -1.858729,-0.977254 -2.107823,-0.625022 -0.442438,0.625627 -1.076735,0.443555 -2.314709,-0.664428 -1.698831,-1.520448 -1.757699,-1.275786 1.987375,-8.259807 1.698047,-3.166613 3.274703,-5.950827 3.50368,-6.187141 l 0.416322,-0.429663 7.438682,-0.04987 7.438685,-0.04987 -0.253918,-0.809459 c -0.591495,-1.88561 0.0095,-4.19663 1.448371,-5.56931 2.441532,-2.329241 6.363975,-1.555682 7.902456,1.558473 0.579908,1.173833 0.635892,3.055549 0.130563,4.388425 -0.761049,2.007369 -2.533852,3.225841 -4.693405,3.225841 -1.137164,0 -1.193753,0.01883 -1.116514,0.371533 0.04475,0.204342 0.327755,4.66386 0.628899,9.91004 0.412151,7.179997 0.502564,9.707373 0.365658,10.221446 -0.100033,0.375618 -0.156083,0.723641 -0.124557,0.77339 1.574006,0.888629 3.190563,1.801476 4.904757,2.314767 1.336222,-1.877455 3.797333,-4.729212 4.275226,-4.953819 3.317966,-0.462086 6.852918,-0.488971 10.159859,0.0229 5.657377,6.560115 11.18443,13.764926 16.197096,20.844601 l -41.233706,0.08249 8.713509,-13.734918 c -0.03569,-0.02979 -2.829765,-1.499502 -6.209067,-3.26604 -5.496689,-2.873399 -6.619512,-3.366421 -6.605926,-2.900604 0.0022,0.07386 0.425783,1.872406 0.941399,3.99676 l 1.19002,3.862467 0.01906,5.627061 c 0.01843,5.443247 0.0075,5.638485 -0.334064,5.976806 -0.375441,0.371853 -1.134271,0.403831 -3.333942,0.194644 z m 6.720887,-24.807932 c -0.126001,-2.386971 -0.277007,-4.518048 -0.335569,-4.73573 -0.08264,-0.307176 -0.471447,0.423869 -1.73672,3.265436 -0.896631,2.013671 -1.655958,3.711021 -1.687386,3.771889 -0.06085,0.117854 3.795022,2.174125 3.916821,2.088767 0.03957,-0.02773 -0.03115,-2.003394 -0.157146,-4.390362 z m -11.15999,-6.878865 c 1.068455,-2.384626 1.995368,-4.473735 2.059808,-4.642468 0.108626,-0.284436 -0.01879,-0.30322 -1.748855,-0.257798 l -1.866016,0.04899 -1.970962,3.682213 c -1.084031,2.025217 -1.935518,3.717322 -1.892195,3.760229 0.110518,0.109463 3.282916,1.741151 3.388811,1.743001 0.04772,8.18e-4 0.960953,-1.949543 2.029409,-4.334167 z" display="inline" fill="#3a2d01" fill-opacity="1" inkscape:connector-curvature="0"/>
  <path d="m -55.763593,77.871041 c -0.792649,-0.07539 -1.81409,-0.394056 -2.098214,-0.675537 l 0.0091,-11.629569 -0.938143,-3.695097 -0.938143,-3.695097 -5.179737,9.022914 c -2.848853,4.962604 -5.458134,9.312939 -5.798395,9.66741 -0.86375,0.899818 -1.365788,0.859482 -2.855007,-0.229364 -1.275231,-0.932391 -1.561174,-1.396213 -1.394885,-2.262608 0.149834,-0.780644 0.01978,-0.543388 6.096765,-11.122291 3.011727,-5.242855 5.507937,-9.698625 5.547132,-9.90171 0.06098,-0.31595 -0.196572,-0.510905 -1.784459,-1.350744 -1.833623,-0.96981 -1.858729,-0.977254 -2.107823,-0.625022 -0.442438,0.625627 -1.076735,0.443555 -2.314709,-0.664428 -1.698831,-1.520448 -1.757699,-1.275786 1.987375,-8.259807 1.698047,-3.166613 3.274703,-5.950827 3.50368,-6.187141 l 0.416322,-0.429663 7.438682,-0.04987 7.438685,-0.04987 -0.253918,-0.809459 c -0.591495,-1.88561 0.0095,-4.19663 1.448371,-5.56931 2.441532,-2.329241 6.363975,-1.555682 7.902456,1.558473 0.579908,1.173833 0.635892,3.055549 0.130563,4.388425 -0.761049,2.007369 -2.533852,3.225841 -4.693405,3.225841 -1.137164,0 -1.193753,0.01883 -1.116514,0.371533 0.04475,0.204342 0.327755,4.66386 0.628899,9.91004 0.412151,7.179997 0.502564,9.707373 0.365658,10.221446 -0.100033,0.375618 -0.156083,0.723641 -0.124557,0.77339 1.574006,0.888629 3.190563,1.801476 4.904757,2.314767 1.336222,-1.877455 3.797333,-4.729212 4.275226,-4.953819 3.317966,-0.462086 6.852918,-0.488971 10.159859,0.0229 5.657377,6.560115 11.18443,13.764926 16.197096,20.844601 l -41.233706,0.08249 8.713509,-13.734918 c -0.03569,-0.02979 -2.829765,-1.499502 -6.209067,-3.26604 -5.496689,-2.873399 -6.619512,-3.366421 -6.605926,-2.900604 0.0022,0.07386 0.425783,1.872406 0.941399,3.99676 l 1.19002,3.862467 0.01906,5.627061 c 0.01843,5.443247 0.0075,5.638485 -0.334064,5.976806 -0.375441,0.371853 -1.134271,0.403831 -3.333942,0.194644 z m 6.720887,-24.807932 c -0.126001,-2.386971 -0.277007,-4.518048 -0.335569,-4.73573 -0.08264,-0.307176 -0.471447,0.423869 -1.73672,3.265436 -0.896631,2.013671 -1.655958,3.711021 -1.687386,3.771889 -0.06085,0.117854 3.795022,2.174125 3.916821,2.088767 0.03957,-0.02773 -0.03115,-2.003394 -0.157146,-4.390362 z m -11.15999,-6.878865 c 1.068455,-2.384626 1.995368,-4.473735 2.059808,-4.642468 0.108626,-0.284436 -0.01879,-0.30322 -1.748855,-0.257798 l -1.866016,0.04899 -1.970962,3.682213 c -1.084031,2.025217 -1.935518,3.717322 -1.892195,3.760229 0.110518,0.109463 3.282916,1.741151 3.388811,1.743001 0.04772,8.18e-4 0.960953,-1.949543 2.029409,-4.334167 z" stroke-width="1" display="inline" clip-path="url(#clipPath3873)" fill="none" stroke="#000000" stroke-dasharray="none" filter="url(#filter3881)" opacity="0.8" stroke-miterlimit="4" inkscape:connector-curvature="0" transform="matrix(1 0 0 1 90 1)"/>
 </g>
 <path d="M 17.75 5.40625 C 16.684668 5.40625 15.658842 5.5578136 14.677734 5.8183594 L 9.2109375 17.255859 L 20.683594 17.255859 L 26.345703 5.40625 L 17.75 5.40625 z M 33.515625 5.40625 L 27.853516 17.255859 L 39.324219 17.255859 L 44.988281 5.40625 L 33.515625 5.40625 z M 53.591797 5.40625 L 47.927734 17.255859 L 59.400391 17.255859 L 65.0625 5.40625 L 53.591797 5.40625 z M 73.667969 5.40625 L 68.003906 17.255859 L 79.474609 17.255859 L 84.40625 6.9375 C 82.680088 5.9654192 80.690676 5.40625 78.5625 5.40625 L 73.667969 5.40625 z " fill="url(#linearGradient3193)" fill-opacity="1" fill-rule="evenodd" stroke="none" opacity="0.8"/>
</svg>
