<svg height="96" width="96" xmlns="http://www.w3.org/2000/svg" xmlns:xlink="http://www.w3.org/1999/xlink" xmlns:sodipodi="http://sodipodi.sourceforge.net/DTD/sodipodi-0.dtd" xmlns:inkscape="http://www.inkscape.org/namespaces/inkscape">
 <defs>
  <linearGradient id="linearGradient3737">
   <stop stop-color="#fff"/>
   <stop stop-color="#fff" stop-opacity="0" offset="1"/>
  </linearGradient>
  <radialGradient cy="61.949" r="58.02" gradientUnits="userSpaceOnUse" id="radialGradient3169" cx="63.98" inkscape:collect="always" gradientTransform="matrix(1.09 0 0 0.81096 -21.864 -5.477)">
   <stop stop-color="#7bb8f0"/>
   <stop stop-color="#b5d5f2" stop-opacity="0.122" offset="1"/>
  </radialGradient>
  <linearGradient x2="0" y1="90" y2="5.988" gradientUnits="userSpaceOnUse" id="linearGradient3215" inkscape:collect="always" gradientTransform="matrix(1.452 0 0 1.40406 -19.07 -17.704)">
   <stop stop-color="#156ab9"/>
   <stop stop-color="#5ba1e4" offset="1"/>
  </linearGradient>
  <radialGradient cy="67.13" r="3.125" gradientUnits="userSpaceOnUse" id="radialGradient4103" cx="74.38">
   <stop stop-color="#ffffff" stop-opacity="1"/>
   <stop stop-color="#ffffff" stop-opacity="1" offset="0.306"/>
   <stop stop-color="#ffffff" stop-opacity="0.641" offset="0.519"/>
   <stop stop-color="#ffffff" stop-opacity="0" offset="1"/>
  </radialGradient>
  <radialGradient cy="2.217" r="58.38" xlink:href="#linearGradient3737" gradientUnits="userSpaceOnUse" id="radialGradient3471" cx="63.875" gradientTransform="matrix(0.84391 0 0 0.33117 -5.816 32.793)"/>
  <radialGradient cy="68.45" r="43.77" xlink:href="#linearGradient3737" gradientUnits="userSpaceOnUse" id="radialGradient3468" cx="64.23" gradientTransform="matrix(0.97474 0 0 0.92611 -14.268 -12.601)"/>
  <radialGradient cy="70.61" r="25.484" xlink:href="#linearGradient3737" gradientUnits="userSpaceOnUse" id="radialGradient3465" cx="49.23" gradientTransform="matrix(0.51922 -0.47906 1.20268 1.30003 -72.74 -19.888)"/>
  <radialGradient cy="75.974" r="58.5" xlink:href="#linearGradient3737" gradientUnits="userSpaceOnUse" id="radialGradient3462" cx="69.75" gradientTransform="matrix(0.7069 0 0 0.26398 2.935 34.09)"/>
  <path d="m 77.5,67.125 a 3.125,3.125 0 1 1 -6.25,0 3.125,3.125 0 1 1 6.25,0 z" display="inline" fill="url(#radialGradient4103)" fill-opacity="1" stroke="none" fill-rule="evenodd" id="SVGCleanerId_0"/>
 </defs>
 <g transform="matrix(1 0 0 1 0 -956.36)">
  <rect x="3.353" rx="12.724" y="959.35" fill-opacity="0.02" height="89.98" width="89.62"/>
  <rect x="3.959" rx="12.552" y="959.96" fill-opacity="0.039" height="88.76" width="88.41"/>
  <rect x="4.564" rx="12.38" y="960.57" fill-opacity="0.078" height="87.55" width="87.2"/>
  <rect x="5.17" rx="12.208" y="961.18" fill-opacity="0.157" height="86.33" width="85.991"/>
 </g>
 <path d="M 17.75 5.40625 C 11.1082 5.40625 5.78125 10.80135 5.78125 17.46875 L 5.78125 78.5 C 5.78125 85.168 11.108 90.53125 17.75 90.53125 L 78.5625 90.53125 C 85.2043 90.53125 90.53125 85.1678 90.53125 78.5 L 90.53125 17.46875 C 90.53125 10.80075 85.2045 5.40625 78.5625 5.40625 L 17.75 5.40625 z " fill="url(#linearGradient3215)"/>
 <path d="m5.7756 77.54v1.0133c0 6.668 5.3434 12.032 11.985 12.032h60.809c6.6418 0 11.985-5.3645 11.985-12.032v-1.013c0 6.6681-5.3434 12.032-11.985 12.032h-60.809c-6.6418 0-11.985-5.3644-11.985-12.032z" fill-opacity="0.098"/>
 <path d="m5.7756 73.44v5.0663c0 6.668 5.3434 12.032 11.985 12.032h60.809c6.6418 0 11.985-5.3645 11.985-12.032v-5.066c0 6.6681-5.3434 12.032-11.985 12.032h-60.809c-6.6418 0-11.985-5.3643-11.985-12.032z" fill-opacity="0.235"/>
 <path d="m 36.149018,5.7002679 c 1.6501,2.1378617 0.11259,5.7078461 2.6015,5.6724341 1.2119,1.653089 -2.4154,0.493109 0.2036,1.767142 1.5061,1.144387 -1.5934,1.798212 0.27178,2.825169 -2.1497,1.070185 0.34844,5.597558 1.9451,6.730656 2.628,2.134484 1.1622,-4.519075 4.0945,-4.865189 1.5934,-1.754984 4.3918,-2.88152 6.3793,-4.647022 -1.9423,-0.152128 -3.0765,-1.318554 -1.237,-2.041081 3.3854,3.346995 0.8489,-1.5850624 -1.0251,-2.3659661 1.8134,-0.5565231 3.577,-0.1489824 3.3254,-1.592589 1.9163,-1.3526153 -1.8423,-1.789335 -3.1839,-1.483554 h -13.375 z M 8.3470195,7.0964973 C 5.8973213,7.7699102 5.7264213,13.418221 8.1887195,10.282254 8.7930189,8.9939024 11.586018,7.4418397 8.3470195,7.0964973 z M 19.794018,7.2928571 c -1.4123,2.1365103 0.20491,3.8495199 1.3799,1.2435801 0.83171,-1.0882291 -0.61793,-1.2037292 -1.3799,-1.2435801 z m 3.529,0.4799768 c -2.7288,1.220229 -0.6726,4.0656601 -0.60506,4.6984511 2.8746,0.959442 4.4732,-0.6273 5.5607,2.084598 2.7352,1.520896 -0.0538,4.163504 -1.0805,4.851776 1.8493,-1.553896 5.4042,4.22468 4.4723,1.171694 -1.1118,-0.783191 2.9852,1.258151 0.85962,-1.287194 -1.9561,-3.040538 0.15527,-1.361203 0.97995,-0.651577 2.8049,-2.426563 -3.1736,-2.719897 -1.6812,-5.217189 -1.309,-1.021843 -3.024,-4.1172836 -5.34,-3.5122836 -1.55,1.9346506 -0.214,-4.2143538 -2.488,-1.1374388 -0.11789,1.7199564 -0.0429,3.9024944 -0.70571,0.9227941 -0.44407,-0.5216414 0.764,-1.7343341 0.0273,-1.9232641 z m -5.5649,0.021807 c -1.832,0.589176 -1.734,2.9768531 0.519,3.2325541 0.771,-0.848158 0.306,-3.0717995 -0.519,-3.2324576 z m -7.149,0.7636323 C 8.2300195,9.1020978 9.2011186,10.952801 9.9295483,11.474047 c -2.9448979,0.711681 4.4956997,0.909585 0.7926797,1.360334 -3.0807982,1.187037 2.9667,2.585582 3.9588,1.178159 3.8044,0.89763 0.13691,-2.93816 -0.19704,-5.0174508 -1.6128,-1.6698785 -0.0636,3.8496168 -1.5219,0.1778525 -0.50879,1.0903513 -2.1265,0.1606774 -2.353,-0.6145913 z m 75.601,0.2399737 c -3.1924,1.2053691 1.9842,5.7542591 0.69765,1.6159391 -0.12817,-0.4996994 0.28819,-1.820018 -0.69765,-1.6159391 z m -66.665,1.8323691 c -2.2941,2.079967 2.916,3.800021 -0.65889,5.349672 -0.53602,-1.93166 -1.4583,0.966457 -3.5035,-0.593528 -3.5159,1.412343 -5.3139,-0.735698 -8.2574976,-2.208107 -1.7679991,-0.212339 -1.1037994,1.620764 -1.2208991,3.337152 v 14.230539 c 1.7334985,1.759616 0.6763294,0.77635 0,0.291018 0.9514691,3.126318 -0.41957,7.696436 3.3308973,9.514912 0.6375597,1.140913 3.3128994,6.001762 3.4361994,4.547346 -1.3412,-1.355124 -2.7173997,-5.417602 -0.4479,-1.796765 2.0328,3.441847 4.7748,5.674271 8.7805,6.493289 2.1901,0.718725 3.9912,3.189327 5.9171,2.645792 1.089,2.769782 -3.2274,5.429662 0.14491,8.01312 1.7605,2.615301 4.7162,4.330724 3.116,8.002411 -1.1191,3.586004 -0.63993,7.493419 -1.6078,10.83501 -0.30039,2.033748 2.938,7.195647 2.6575,3.062152 0.94557,-2.87245 0.92064,-6.033119 3.1476,-8.067349 3.0471,0.02325 0.58237,-3.161152 3.607,-2.745178 1.8456,-2.334029 2.3802,-5.118382 5.4949,-6.045181 0.37205,-2.833082 5.1788,-7.172104 0.21314,-8.275192 -1.3496,-0.641783 -4.8245,-0.872552 -4.5589,-1.189256 0.53803,-2.811177 -4.4935,-3.611476 -6.6342,-4.761652 -2.8108,-1.924906 -7.0342,3.197624 -8.0245,-1.216177 -0.59088,-1.388703 -2.7513,-1.411282 -1.7584,-3.554161 -1.7894,1.716966 -5.2893,1.195141 -4.373,-2.120688 1.3916,-2.792652 6.7356,-2.924749 7.6463,0.434269 -1.2644,-3.704592 2.4439,-6.588428 4.5025,-9.224088 0.41916,-1.259791 2.9097,-2.342037 2.0527,-0.667797 1.4602,-0.05081 3.6733,-2.59301 1.0794,-1.419677 -0.0367,-2.318396 -2.273,-1.659071 -2.998,-1.329842 1.3438,-2.057677 8.245,-0.932733 5.3551,-4.29618 -2.2393,-0.875398 -2.053,-5.983812 -4.318,-3.137897 0.1906,-1.75344 -4.61,-5.185926 -4.5052,-2.245546 0.58599,2.631125 0.10714,5.66211 -1.1399,7.3867 -0.26025,-3.855407 -7.0757,-3.003293 -6.1994,-7.1117 1.2695,-1.958098 2.7529,-4.665838 2.8942,-4.422293 2.275,-0.838037 4.1046,-3.275688 1.4678,-4.878216 -0.14092,1.396712 -1.983,4.278329 -1.7237,0.793082 -1.7058,1.951247 -1.3162,-3.104898 -2.9138,-3.629328 z m 54.45,1.352615 c -3.9959,0.943058 -5.5801,4.625312 -7.5568,7.675113 -2.9139,1.26751 -2.8029,6.710875 0.45241,4.972294 0.87128,1.468115 -0.60951,3.78217 1.9283,1.862572 2.047,-2.613564 0.35794,-6.840463 3.8414,-8.488438 0.25374,1.281405 -3.2133,6.06612 0.83699,5.279716 3.6616,0.133293 -2.6618,0.35199 -0.88099,2.608546 -1.8503,-1.059185 -0.88884,2.892617 -3.304,1.973054 -2.0923,1.098072 -3.4643,-0.509831 -2.985,-2.271212 -1.646,0.926413 0.5177,3.53988 -2.3396,3.696968 -0.64005,2.192765 -5.9034,1.862282 -2.9102,4.095091 1.3289,3.322775 -4.9515,0.208305 -3.1685,4.195828 1.5254,3.943021 4.7224,-1.306492 6.0194,-2.320809 2.5025,-1.8728 6.2107,3.193284 3.9588,3.381635 2.5251,-0.326855 2.0062,-2.643766 -0.0169,-3.540749 -1.0927,-2.734081 3.459,1.340843 3.2066,2.711695 1.606,2.901398 0.94462,-2.970582 2.5788,-0.370884 -0.1908,2.742284 6.5742,0.644775 3.3444,4.139767 -2.7769,0.539619 -5.5101,-0.690675 -7.9008,0.09734 -2.2251,-0.019 -2.1135,-2.312704 -2.9236,-2.887117 -2.8304,0.221863 -6.3279,0.196775 -8.2228,2.402827 -2.049,2.712274 -5.0038,6.503903 -2.7705,9.967555 2.2349,5.132179 7.7772,0.26621 10.963,3.297204 0.94693,1.263747 -0.8206,2.76602 1.2967,4.134942 0.79672,2.915968 -0.90448,5.68469 1.0523,8.472227 1.0118,2.621477 1.6398,6.545296 5.4058,4.149803 3.9858,-2.314152 2.9242,-6.580033 6.2129,-8.942816 -2.6023,-4.858917 3.1836,-6.989348 4.6272,-10.93343 -3.154,0.445481 -5.9638,-2.588283 -6.7258,-5.641847 -1.3249,-1.48317 -0.98368,-3.670146 0.49633,-0.883872 2.0343,1.901749 2.0782,7.544851 5.8413,4.641813 1.7204,-0.694236 6.4186,-3.342459 2.6751,-4.547638 -2.413,1.686188 -5.0752,-5.038487 -1.5318,-1.138018 2.576,1.054457 4.38,1.682617 4.38,-1.813265 v -28.44756 c -0.8024,0.791103 -2.8638,2.252204 -3.9043,1.281308 -1.7904,0.240534 -4.1539,3.601442 -3.5912,0.352541 -1.5562,-0.09943 -0.27858,2.913073 -2.4166,2.99731 -0.21529,1.548782 -2.1599,0.286801 -1.4294,1.757589 -1.5006,-1.026957 -2.7707,-4.269548 0.18614,-2.234353 4.391,-1.270983 -2.8956,-4.137837 -3.458,-4.830741 0.94545,-0.218553 -1.0286,-1.169089 -1.2668,-0.850861 z m -36.24,0.850861 c -1.4615,1.174878 2.7785,1.396133 0,0 z m -19.522,0.632693 c -1.6346,1.649713 2.6033,1.516555 0,0 z m 9.4784,1.6363 c -1.2379,1.956458 1.829,0.722305 0,0 z m 27.101,2.312608 c -1.4492,1.609668 -3.362,-0.423636 -3.3932,0.959944 0.26265,0.418058 1.3147,3.401801 3.6194,1.199966 1.237,-0.503154 0.74995,-1.771581 -0.22622,-2.159862 z m -30.856,0.959944 c -2.7488,2.316081 4.6683,2.529423 0.58232,0.26563 l -0.58232,-0.26563 z m 36.262,6.414163 c -1.9791,1.245124 0.94943,3.889372 -0.0431,5.131505 -1.2401,2.084599 4.6083,-0.14684 1.4846,-1.809984 -0.22257,-1.42894 -1.83,-3.172345 -1.4415,-3.321521 z m -1.3347,2.508968 c -2.7574,0.75212 -0.62595,4.63525 0.35067,0.977939 0.0549,-0.21204 0.12936,-0.984983 -0.35067,-0.977939 z m -22.079,2.814362 c -2.5652,1.687633 -0.39843,3.372081 1.4816,2.612792 -0.38596,-1.018177 -1.4642,-1.659747 -1.4816,-2.612792 z m 48.455,2.836169 c 1.28,0.623217 -2.3455,1.687825 -0.0498,2.784642 1.336,1.515782 0.83231,4.769566 -1.3392,2.466704 0.40344,-2.571204 -2.9436,-4.491381 1.389,-5.251346 z m -6.5829,0.02181 c -0.17366,1.651834 3.694,4.219565 -0.47504,3.381634 -2.2048,0.249527 -5.507,-0.065 -2.7294,-2.715555 0.87765,-0.508336 3.1821,1.753826 1.9829,-0.360646 0.42513,-0.02617 0.82107,-0.180999 1.2216,-0.305433 z m -12.735,3.576932 c -1.6081,0.999554 1.112,1.765984 0,0 z m -40.379,9.315853 c -0.27111,0.872619 5.086,1.756914 1.3893,0.358909 l -0.55107,-0.187145 -0.83822,-0.171764 z m 4.1624,1.24358 c -1.6249,1.591528 3.3478,0.47548 0,0 z m 54.337,14.595276 c -3.5307,0.0879 -3.0613,8.874306 -0.60013,3.675258 0.2334,-1.128177 1.1689,-2.617231 0.60013,-3.675258 z" fill="url(#radialGradient3169)" opacity="0.8" inkscape:connector-curvature="0"/>
 <g transform="matrix(1 0 0 1 1.83 -2.971)">
  <use xlink:href="#SVGCleanerId_0" inkscape:connector-curvature="0" transform="matrix(1.35724 0 0 1.35544 -73.27 -53.872)"/>
  <use xlink:href="#SVGCleanerId_0" inkscape:connector-curvature="0" transform="matrix(1.07448 0 0 1.07305 -39.514 -14.09)"/>
  <use xlink:href="#SVGCleanerId_0" inkscape:connector-curvature="0" transform="matrix(1.58345 0 0 1.58134 -53.33 -72.39)"/>
  <use xlink:href="#SVGCleanerId_0" opacity="0.6" inkscape:connector-curvature="0" transform="matrix(1.02193 0 0 1.02058 -15.636 -16.922)"/>
  <use xlink:href="#SVGCleanerId_0" opacity="0.6" inkscape:connector-curvature="0" transform="matrix(0.79409 0 0 0.79303 -44.28 -21.768)"/>
  <use xlink:href="#SVGCleanerId_0" opacity="0.6" inkscape:connector-curvature="0" transform="matrix(0.56552 0 0 0.56477 38.457 3.262)"/>
  <path stroke-opacity="1" d="M 7.1767242,47.701508 C 35.275882,28.287687 72.387975,27.228751 89.000056,49.289911" stroke-width="2" display="inline" fill="none" stroke="url(#radialGradient3471)" stroke-dasharray="none" stroke-linecap="butt" stroke-linejoin="miter" stroke-miterlimit="4" inkscape:connector-curvature="0"/>
  <path stroke-opacity="1" d="M 27.676739,88.823511 C 26.616393,73.292454 56.129343,28.640665 88.823332,20.875137" stroke-width="2" display="inline" fill="none" stroke="url(#radialGradient3468)" stroke-dasharray="none" stroke-linecap="butt" stroke-linejoin="miter" stroke-miterlimit="4" inkscape:connector-curvature="0"/>
  <path stroke-opacity="1" d="M 7,29.523112 C 58.250036,38.347576 38.633643,89 38.633643,89" stroke-width="2" display="inline" fill="none" stroke="url(#radialGradient3465)" stroke-dasharray="none" stroke-linecap="butt" stroke-linejoin="miter" stroke-miterlimit="4" inkscape:connector-curvature="0"/>
  <path stroke-opacity="1" d="M 7.1767242,67.821286 C 58.42676,56.349483 89.17678,37.641619 89.17678,37.641619" stroke-width="1.5" display="inline" fill="none" stroke="url(#radialGradient3462)" stroke-dasharray="none" opacity="0.6" stroke-linecap="butt" stroke-linejoin="miter" stroke-miterlimit="4" inkscape:connector-curvature="0"/>
 </g>
</svg>
