<svg height="96" width="96" xmlns="http://www.w3.org/2000/svg" xmlns:xlink="http://www.w3.org/1999/xlink" xmlns:sodipodi="http://sodipodi.sourceforge.net/DTD/sodipodi-0.dtd" xmlns:inkscape="http://www.inkscape.org/namespaces/inkscape">
 <defs>
  <filter x="-0.192" y="-0.192" height="1.384" color-interpolation-filters="sRGB" id="filter3794-787" width="1.384">
   <feGaussianBlur stdDeviation="5.28"/>
  </filter>
  <linearGradient id="linearGradient3737">
   <stop stop-color="#ffffff" stop-opacity="1"/>
   <stop stop-color="#ffffff" stop-opacity="0" offset="1"/>
  </linearGradient>
  <linearGradient x2="0" y1="54.04" y2="76.918" gradientUnits="userSpaceOnUse" id="linearGradient3799">
   <stop stop-color="#ffb100" stop-opacity="1"/>
   <stop stop-color="#ffb100" stop-opacity="0" offset="1"/>
  </linearGradient>
  <clipPath id="clipPath3789">
   <path d="m 16.428571,67.428571 14.107143,-9.821428 7.321429,4.464286 6.071428,-10.535715 9.107143,17.321429 L 63.75,61.535714 70,67.071429 l 12.857143,-3.392858 5,41.071429 -73.214286,-3.03571 1.785714,-34.285719 z" inkscape:connector-curvature="0"/>
  </clipPath>
  <filter x="-0.217" y="-0.268" height="1.537" color-interpolation-filters="sRGB" id="filter3801" width="1.434">
   <feGaussianBlur stdDeviation="4.3125"/>
  </filter>
  <linearGradient x2="0" y1="32.607" y2="63.44" gradientUnits="userSpaceOnUse" id="linearGradient3740">
   <stop stop-color="#cbf44b" stop-opacity="1"/>
   <stop stop-color="#cbf44b" stop-opacity="0" offset="1"/>
  </linearGradient>
  <clipPath id="clipPath3730">
   <path d="M 13.571429,58.321429 31.785714,46.892857 41.25,45.642857 50.535714,30.107143 54.821429,36 68.035714,21.357143 84.642857,39.75 l -0.178572,72.5 -71.428571,-5.89286 0.535715,-48.035711 z" inkscape:connector-curvature="0"/>
  </clipPath>
  <filter x="-0.267" y="-0.218" height="1.436" color-interpolation-filters="sRGB" id="filter3746" width="1.534">
   <feGaussianBlur stdDeviation="4.98214"/>
  </filter>
  <linearGradient x2="0" xlink:href="#linearGradient3737" y1="79.39" y2="18.316" gradientUnits="userSpaceOnUse" id="linearGradient3813"/>
  <linearGradient x2="0" xlink:href="#linearGradient3737" y1="20.221" y2="138.66" gradientUnits="userSpaceOnUse" id="linearGradient3613"/>
  <clipPath id="clipPath3613">
   <use xlink:href="#SVGCleanerId_1"/>
  </clipPath>
  <linearGradient x2="0" y1="90" y2="5.988" gradientUnits="userSpaceOnUse" id="linearGradient3617" gradientTransform="matrix(1.04843 0 0 1.05811 -0.874 -3.548)">
   <stop stop-color="#243c53" stop-opacity="1"/>
   <stop stop-color="#4975a7" stop-opacity="1" offset="1"/>
  </linearGradient>
  <path d="m 16.28871,15.185621 1.586549,2.747984 1.58655,2.747985 -3.173099,-1e-6 -3.1731,0 1.58655,-2.747984 z" fill="#ffffff" fill-opacity="1" stroke="none" id="SVGCleanerId_0"/>
  <rect x="6" rx="6" y="6" height="84" id="SVGCleanerId_1" width="84"/>
 </defs>
 <g transform="matrix(1 0 0 1 0 -956.36)">
  <rect x="3.353" rx="12.724" y="959.35" fill-opacity="0.02" height="89.98" width="89.62"/>
  <rect x="3.959" rx="12.552" y="959.96" fill-opacity="0.039" height="88.76" width="88.41"/>
  <rect x="4.564" rx="12.38" y="960.57" fill-opacity="0.078" height="87.55" width="87.2"/>
  <rect x="5.17" rx="12.208" y="961.18" fill-opacity="0.157" height="86.33" width="85.991"/>
 </g>
 <path d="M 17.75 5.40625 C 11.108 5.40625 5.78125 10.80055 5.78125 17.46875 L 5.78125 78.5 C 5.78125 85.168 11.1078 90.53125 17.75 90.53125 L 78.5625 90.53125 C 85.2045 90.53125 90.53125 85.168 90.53125 78.5 L 90.53125 17.46875 C 90.53125 10.80075 85.2045 5.40625 78.5625 5.40625 L 17.75 5.40625 z " fill="url(#linearGradient3617)" fill-opacity="1" fill-rule="nonzero" stroke="none"/>
 <path d="m 5.7756,77.54 0,1.0133 c 0,6.668 5.3434,12.032 11.985,12.032 l 60.809,0 c 6.6418,0 11.985,-5.3645 11.985,-12.032 l 0,-1.0133 c 0,6.6681 -5.3434,12.032 -11.985,12.032 l -60.809,0 c -6.6418,0 -11.985,-5.3644 -11.985,-12.032 z" fill-opacity="0.098" inkscape:connector-curvature="0"/>
 <path d="m 5.7756,73.44 0,5.0663 c 0,6.668 5.3434,12.032 11.985,12.032 l 60.809,0 c 6.6418,0 11.985,-5.3645 11.985,-12.032 l 0,-5.0663 c 0,6.6681 -5.3434,12.032 -11.985,12.032 l -60.809,0 c -6.6418,0 -11.985,-5.3643 -11.985,-12.032 z" fill-opacity="0.235" inkscape:connector-curvature="0"/>
 <rect stroke="#ffffff" stroke-dasharray="none" clip-path="url(#clipPath3613)" stroke-dashoffset="0" stroke-linecap="round" height="66" stroke-linejoin="miter" stroke-miterlimit="4" stroke-opacity="1" stroke-width="0.5" width="66" fill="url(#linearGradient3613)" fill-opacity="1" opacity="0.1" x="15" fill-rule="nonzero" filter="url(#filter3794-787)" y="15" rx="12" transform="matrix(1 0 0 1 -0.99 -1.979)"/>
 <g transform="matrix(1 0 0 1 -0.99 -1.979)">
  <path d="m 16.25,14.0625 c -1.826628,0.36099 -1.987318,2.638002 -2.900582,3.957415 -0.601567,1.35109 -2.092895,3.047183 -0.661918,4.386335 0.792964,0.590965 1.818861,0.407026 1.375,1.751019 -0.04302,1.946227 0.08514,4.063629 -0.0625,5.905231 -2.692836,0.01603 -2.649526,4.944425 0.0625,4.875 -0.04261,2.353222 0.0846,4.876265 -0.0625,7.125 -2.692836,0.01603 -2.649526,4.944425 0.0625,4.875 -0.04261,2.353222 0.0846,4.876265 -0.0625,7.125 -2.692836,0.01603 -2.649526,4.944425 0.0625,4.875 -0.04261,2.353222 0.0846,4.876265 -0.0625,7.125 -2.692836,0.01603 -2.649526,4.944425 0.0625,4.875 0,2.375 0,4.75 0,7.125 -1.488558,-0.32974 -3.281355,0.631821 -3,2.34409 -0.331729,1.609202 1.213788,2.884063 2.750679,2.53091 0.544019,0.487746 -0.04503,2.386871 1.280571,2.75 1.471543,0.728559 4.021683,0.140702 3.84375,-1.890795 -0.378302,-1.613412 1.90981,-0.560412 2.846127,-0.859205 17.426291,0 34.852582,0 52.278873,0 -0.09503,1.702685 2.124838,2.604402 3.326747,1.508501 C 79.053183,83.493558 81.012057,82.86771 82.46875,81.75 83.570278,80.513397 82.51293,78.693225 81.11642,78.417585 79.385211,77.703552 77.789495,76.457497 76,76.0625 c -1.043394,-0.0064 -1.985942,0.947741 -1.9375,2 -18.375,0 -36.75,0 -55.125,0 0,-18.375 0,-36.75 0,-55.125 1.702685,0.09502 2.604402,-2.124838 1.508501,-3.326747 C 19.469814,17.926101 18.86631,15.92214 17.6875,14.46875 17.260573,14.161754 16.774149,14.029311 16.25,14.0625 Z" fill="#000000" fill-opacity="1" stroke="none" opacity="0.08" inkscape:connector-curvature="0"/>
  <path d="m 16.40625,15.0625 a 0.93784364,0.93784364 0 0 0 -0.75,0.53125 l -1.25,2.5 -1.25,2.5 A 0.93784364,0.93784364 0 0 0 14,21.9375 l 1.0625,0 0,9.125 -1.0625,0 A 0.93784364,0.93784364 0 0 0 13.0625,32 l 0,1 A 0.93784364,0.93784364 0 0 0 14,33.9375 l 1.0625,0 0,9.125 -1.0625,0 A 0.93784364,0.93784364 0 0 0 13.0625,44 l 0,1 A 0.93784364,0.93784364 0 0 0 14,45.9375 l 1.0625,0 0,9.125 -1.0625,0 A 0.93784364,0.93784364 0 0 0 13.0625,56 l 0,1 A 0.93784364,0.93784364 0 0 0 14,57.9375 l 1.0625,0 0,9.125 -1.0625,0 A 0.93784364,0.93784364 0 0 0 13.0625,68 l 0,1 A 0.93784364,0.93784364 0 0 0 14,69.9375 l 1.0625,0 0,9.125 -2.0625,0 A 0.93784364,0.93784364 0 0 0 12.0625,80 l 0,1 A 0.93784364,0.93784364 0 0 0 13,81.9375 l 2.0625,0 0,2.0625 A 0.93784364,0.93784364 0 0 0 16,84.9375 l 1,0 A 0.93784364,0.93784364 0 0 0 17.9375,84 l 0,-2.0625 57.125,0 0,1.0625 a 0.93784364,0.93784364 0 0 0 1.34375,0.84375 l 2.5,-1.25 2.5,-1.25 a 0.93784364,0.93784364 0 0 0 0,-1.6875 l -2.5,-1.25 -2.5,-1.25 A 0.93784364,0.93784364 0 0 0 75.0625,78 l 0,1.0625 -57.125,0 0,-57.125 1.0625,0 a 0.93784364,0.93784364 0 0 0 0.84375,-1.34375 l -1.25,-2.5 -1.25,-2.5 a 0.93784364,0.93784364 0 0 0 -0.9375,-0.53125 z" fill="#000000" fill-opacity="1" stroke="none" opacity="0.12" inkscape:connector-curvature="0"/>
  <path d="M 16.5,16 15.25,18.5 14,21 l 2,0 0,11 -2,0 0,1 2,0 0,11 -2,0 0,1 2,0 0,11 -2,0 0,1 2,0 0,11 -2,0 0,1 2,0 0,11 -3,0 0,1 3,0 0,3 1,0 0,-3 59,0 0,2 2.5,-1.25 L 81,80.5 78.5,79.25 76,78 76,80 17,80 17,21 19,21 17.75,18.5 16.5,16 Z" fill="#000000" fill-opacity="1" stroke="none" opacity="0.2" inkscape:connector-curvature="0"/>
  <rect x="16" y="20" fill="#ffffff" fill-opacity="1" stroke="none" height="63" width="1"/>
  <rect x="79" y="-76" fill="#ffffff" fill-opacity="1" stroke="none" height="63" width="1" transform="matrix(0 1 -1 0 0 0)"/>
  <use xlink:href="#SVGCleanerId_0" inkscape:connector-curvature="0" transform="matrix(0.78787 0 0 0.90976 3.667 1.185)"/>
  <use xlink:href="#SVGCleanerId_0" inkscape:connector-curvature="0" transform="matrix(0 0.78787 -0.90976 0 94.82 66.67)"/>
  <rect x="14" y="67" fill="#ffffff" fill-opacity="1" stroke="none" height="1" width="2"/>
  <rect x="14" y="55" fill="#ffffff" fill-opacity="1" stroke="none" height="1" width="2"/>
  <rect x="14" y="43" fill="#ffffff" fill-opacity="1" stroke="none" height="1" width="2"/>
  <rect x="14" y="31" fill="#ffffff" fill-opacity="1" stroke="none" height="1" width="2"/>
  <rect x="28" y="17" fill="url(#linearGradient3813)" fill-opacity="1" stroke="none" height="63" opacity="0.4" width="1"/>
  <rect x="40" y="17" fill="url(#linearGradient3813)" fill-opacity="1" stroke="none" height="63" opacity="0.4" width="1"/>
  <rect x="52" y="17" fill="url(#linearGradient3813)" fill-opacity="1" stroke="none" height="63" opacity="0.4" width="1"/>
  <rect x="64" y="17" fill="url(#linearGradient3813)" fill-opacity="1" stroke="none" height="63" opacity="0.4" width="1"/>
 </g>
 <g transform="matrix(1 0 0 1 -0.99 -1.979)">
  <rect x="25.536" y="40.464" clip-path="url(#clipPath3789)" fill="url(#linearGradient3799)" fill-opacity="1" stroke="none" height="38.571" filter="url(#filter3801)" opacity="0.4" width="47.679"/>
  <rect x="26.429" rx="0" y="16.536" clip-path="url(#clipPath3730)" fill="url(#linearGradient3740)" fill-opacity="1" stroke="none" height="54.821" filter="url(#filter3746)" opacity="0.2" width="44.821" transform="matrix(1 0 0 1 0 -3)"/>
  <path stroke-opacity="1" d="M 75.99169,26.514834 68.104444,18.424389 54.86985,33.208704 50.520138,27.533474 41.466536,42.638196 32.090216,43.86408 22.00831,49.99169" stroke-width="2.02" display="inline" fill="none" stroke="#cbf44b" stroke-dasharray="none" stroke-dashoffset="0" stroke-linecap="round" stroke-linejoin="miter" stroke-miterlimit="4" inkscape:connector-curvature="0"/>
  <path stroke-opacity="1" d="m 75.991789,65.647639 -5.936191,1.565662 -6.469211,-5.652461 -10.888398,7.430949 -8.711861,-17.24541 -6.537625,10.433274 -7.534784,-4.315035 -7.905508,5.740769" stroke-width="2.02" display="inline" fill="none" stroke="#ffb100" stroke-dasharray="none" stroke-dashoffset="0" stroke-linecap="round" stroke-linejoin="miter" stroke-miterlimit="4" inkscape:connector-curvature="0"/>
 </g>
</svg>
