<svg display="inline" height="16" width="16" xmlns="http://www.w3.org/2000/svg" xmlns:sodipodi="http://sodipodi.sourceforge.net/DTD/sodipodi-0.dtd" xmlns:inkscape="http://www.inkscape.org/namespaces/inkscape">
 <path d="M 7.90625 3 C 7.3960414 3.0000097 6.8822948 3.042881 6.34375 3.15625 C 5.8051983 3.2639692 5.2600601 3.4351709 4.6875 3.65625 L 4.6875 5.09375 C 5.1636883 4.8329869 5.6403743 4.6616436 6.15625 4.53125 C 6.6721193 4.4008728 7.2057781 4.3125084 7.75 4.3125 C 8.6060035 4.3125084 9.2794721 4.5094329 9.75 4.90625 C 10.226183 5.297414 10.468742 5.8738022 10.46875 6.59375 L 10.46875 6.75 L 8.25 6.75 C 6.8270936 6.750006 5.7824519 7.0182881 5.0625 7.5625 C 4.5854583 7.9259628 4.2588091 8.4064898 4.09375 9 L 3 9 L 3 10 L 3.96875 10 C 3.9757966 10.903615 4.2779413 11.644101 4.84375 12.1875 C 5.4219788 12.731718 6.18119 13 7.15625 13 C 7.9272201 13 8.5921145 12.865859 9.125 12.59375 C 9.6578731 12.315973 10.1116 11.890733 10.46875 11.3125 L 10.46875 13 L 12.03125 13 L 12.03125 10 L 13 10 L 13 9 L 12.03125 9 L 12.03125 7.3125 C 12.031241 5.8612597 11.680263 4.7767937 11 4.0625 C 10.31972 3.3482236 9.2837947 3.0000097 7.90625 3 z M 8.90625 7.96875 L 10.46875 7.96875 L 10.46875 8.3125 C 10.468748 8.5565947 10.438307 8.7779564 10.40625 9 L 5.71875 9 C 5.8453089 8.7561119 6.0374843 8.5508099 6.28125 8.40625 C 6.7687745 8.117139 7.6420729 7.9687548 8.90625 7.96875 z M 5.53125 10 L 10.125 10 C 9.9984568 10.28513 9.851005 10.552986 9.65625 10.78125 C 9.1347018 11.393496 8.4610915 11.687501 7.59375 11.6875 C 6.9644943 11.687501 6.4622272 11.54188 6.09375 11.21875 C 5.75868 10.915096 5.5592556 10.499306 5.53125 10 z " fill="#bebebe" fill-opacity="1" stroke="none" inkscape:label="Calque 1" inkscape:groupmode="layer"/>
</svg>
