<svg height="16" width="16" xmlns="http://www.w3.org/2000/svg" xmlns:sodipodi="http://sodipodi.sourceforge.net/DTD/sodipodi-0.dtd" xmlns:inkscape="http://www.inkscape.org/namespaces/inkscape">
 <g inkscape:label="Calque 1" inkscape:groupmode="layer">
  <path d="M 8 1 C 4.1360002 1 1 4.1360001 1 8 C 1 11.864 4.1360002 15 8 15 C 11.864 15 15 11.864 15 8 C 15 4.1360001 11.864 1 8 1 z M 8 2 C 11.312 2 14 4.6880001 14 8 C 14 11.312 11.312 14 8 14 C 4.6880002 14 2 11.312 2 8 C 2 4.6880001 4.6880002 2 8 2 z " fill="#ffffff" fill-opacity="1" stroke="none" opacity="0.15"/>
  <path d="M 8,2 C 4.6880002,2 2,4.6880001 2,8 c 0,3.312 2.6880002,6 6,6 3.312,0 6,-2.688 6,-6 C 14,4.6880001 11.312,2 8,2 z" fill="#d40000" fill-opacity="1" stroke="none" inkscape:connector-curvature="0"/>
 </g>
</svg>
