<svg display="inline" height="16" width="16" xmlns="http://www.w3.org/2000/svg" xmlns:sodipodi="http://sodipodi.sourceforge.net/DTD/sodipodi-0.dtd" xmlns:inkscape="http://www.inkscape.org/namespaces/inkscape">
 <path stroke-opacity="1" d="M 7.5 1 C 7.223 1 7.0000001 1.223 7 1.5 L 7 6.5 C 7 6.777 7.2230001 7.0000001 7.5 7 L 8.5 7 C 8.777 7 9.0000001 6.7770001 9 6.5 L 9 1.5 C 9 1.223 8.7770001 0.99999998 8.5 1 L 7.5 1 z M 6 2.34375 C 3.6692215 3.1673889 2 5.38835 2 8 C 2 11.312 4.6880002 14 8 14 C 11.312 14 14 11.312 14 8 C 14 5.38835 12.330779 3.1673889 10 2.34375 L 10 4.5625 C 11.193787 5.2548393 12 6.5215541 12 8 C 12 10.208 10.208 12 8 12 C 5.7920001 12 4 10.208 4 8 C 4 6.5215539 4.8062133 5.2548393 6 4.5625 L 6 2.34375 z " stroke-width="2" fill="#bebebe" fill-opacity="1" fill-rule="nonzero" stroke="none" stroke-dasharray="none" opacity="1" stroke-dashoffset="0" stroke-linecap="square" stroke-linejoin="round" stroke-miterlimit="4" inkscape:label="Icon" inkscape:groupmode="layer" transform="matrix(1 0 0 1 0 0)"/>
</svg>
