<svg height="16" width="16" xmlns="http://www.w3.org/2000/svg" xmlns:sodipodi="http://sodipodi.sourceforge.net/DTD/sodipodi-0.dtd" xmlns:inkscape="http://www.inkscape.org/namespaces/inkscape">
 <path stroke-opacity="1" d="M 8 0 L 5 3 L 11 3 L 8 0 z M 4.5 4 C 4.223 4 4 4.223 4 4.5 L 4 11.5 C 4 11.777 4.223 12 4.5 12 L 11.5 12 C 11.777 12 12 11.777 12 11.5 L 12 4.5 C 12 4.223 11.777 4 11.5 4 L 4.5 4 z M 3 5 L 0 8 L 3 11 L 3 5 z M 6 5 L 7 5 L 7 6 L 6 6 L 6 5 z M 8 5 L 9 5 L 9 6 L 8 6 L 8 5 z M 10 5 L 11 5 L 11 6 L 10 6 L 10 5 z M 13 5 L 13 11 L 16 8 L 13 5 z M 6 7 L 10 7 L 10 10 L 6 10 L 6 7 z M 5 13 L 8 16 L 11 13 L 5 13 z " stroke-width="1" display="inline" fill="#bebebe" fill-opacity="1" stroke="none" opacity="1" stroke-linecap="butt" stroke-linejoin="miter" inkscape:label="Cross" inkscape:groupmode="layer" transform="matrix(1 0 0 1 0 0)"/>
</svg>
