<?xml version="1.0" encoding="UTF-8"?>
<svg xmlns="http://www.w3.org/2000/svg" xmlns:xlink="http://www.w3.org/1999/xlink" width="12pt" height="12pt" viewBox="0 0 12 12" version="1.1">
<g id="surface1">
<path style=" stroke:none;fill-rule:evenodd;fill:rgb(100%,100%,100%);fill-opacity:0.298039;" d="M 6 2.183594 C 3.351562 2.183594 1.199219 4.136719 1.199219 6.546875 C 1.199219 8.953125 3.351562 10.910156 6 10.910156 C 8.648438 10.910156 10.800781 8.953125 10.800781 6.546875 C 10.800781 4.136719 8.648438 2.183594 6 2.183594 Z M 6 4.910156 C 6.992188 4.910156 7.800781 5.640625 7.800781 6.546875 C 7.800781 7.449219 6.992188 8.183594 6 8.183594 C 5.007812 8.183594 4.199219 7.449219 4.199219 6.546875 C 4.199219 5.640625 5.007812 4.910156 6 4.910156 Z M 6 4.910156 "/>
<path style=" stroke:none;fill-rule:evenodd;fill:rgb(23.529412%,23.529412%,23.529412%);fill-opacity:0.4;" d="M 6 1.636719 C 3.351562 1.636719 1.199219 3.589844 1.199219 6 C 1.199219 8.410156 3.351562 10.363281 6 10.363281 C 8.648438 10.363281 10.800781 8.410156 10.800781 6 C 10.800781 3.589844 8.648438 1.636719 6 1.636719 Z M 6 4.363281 C 6.992188 4.363281 7.800781 5.097656 7.800781 6 C 7.800781 6.902344 6.992188 7.636719 6 7.636719 C 5.007812 7.636719 4.199219 6.902344 4.199219 6 C 4.199219 5.097656 5.007812 4.363281 6 4.363281 Z M 6 4.363281 "/>
<path style=" stroke:none;fill-rule:nonzero;fill:rgb(23.529412%,23.529412%,23.529412%);fill-opacity:1;" d="M 6 1.636719 L 6 4.363281 C 6.992188 4.363281 7.800781 5.097656 7.800781 6 C 7.800781 6.902344 6.992188 7.636719 6 7.636719 C 5.007812 7.636719 4.199219 6.902344 4.199219 6 L 1.199219 6 C 1.199219 8.410156 3.351562 10.363281 6 10.363281 C 8.648438 10.363281 10.800781 8.410156 10.800781 6 C 10.800781 3.589844 8.648438 1.636719 6 1.636719 Z M 6 1.636719 "/>
</g>
</svg>
