<?xml version="1.0" encoding="UTF-8"?>
<svg xmlns="http://www.w3.org/2000/svg" xmlns:xlink="http://www.w3.org/1999/xlink" width="12pt" height="12pt" viewBox="0 0 12 12" version="1.1">
<g id="surface1">
<path style=" stroke:none;fill-rule:nonzero;fill:rgb(100%,100%,100%);fill-opacity:1;" d="M 4.097656 2.480469 C 4.21875 2.414062 4.371094 2.460938 4.4375 2.582031 L 5.386719 4.339844 C 5.453125 4.464844 5.40625 4.613281 5.285156 4.679688 C 5.164062 4.746094 5.011719 4.699219 4.949219 4.578125 L 3.996094 2.820312 C 3.929688 2.699219 3.976562 2.546875 4.097656 2.480469 Z M 4.097656 2.480469 "/>
<path style=" stroke:none;fill-rule:nonzero;fill:rgb(100%,100%,100%);fill-opacity:0.576471;" d="M 2.480469 7.902344 C 2.414062 7.78125 2.460938 7.628906 2.582031 7.5625 L 4.339844 6.613281 C 4.464844 6.546875 4.613281 6.59375 4.679688 6.714844 C 4.746094 6.835938 4.699219 6.988281 4.578125 7.050781 L 2.820312 8.003906 C 2.699219 8.070312 2.546875 8.023438 2.480469 7.902344 Z M 2.480469 7.902344 "/>
<path style=" stroke:none;fill-rule:nonzero;fill:rgb(100%,100%,100%);fill-opacity:0.333333;" d="M 7.902344 9.519531 C 7.78125 9.585938 7.628906 9.539062 7.5625 9.417969 L 6.613281 7.660156 C 6.546875 7.535156 6.59375 7.386719 6.714844 7.320312 C 6.835938 7.253906 6.988281 7.300781 7.050781 7.421875 L 8.003906 9.179688 C 8.070312 9.300781 8.023438 9.453125 7.902344 9.519531 Z M 7.902344 9.519531 "/>
<path style=" stroke:none;fill-rule:nonzero;fill:rgb(100%,100%,100%);fill-opacity:0.188235;" d="M 9.519531 4.097656 C 9.585938 4.21875 9.539062 4.371094 9.417969 4.4375 L 7.660156 5.386719 C 7.535156 5.453125 7.386719 5.40625 7.320312 5.285156 C 7.253906 5.164062 7.300781 5.011719 7.421875 4.949219 L 9.179688 3.996094 C 9.300781 3.929688 9.453125 3.976562 9.519531 4.097656 Z M 9.519531 4.097656 "/>
<path style=" stroke:none;fill-rule:nonzero;fill:rgb(100%,100%,100%);fill-opacity:0.831373;" d="M 2.59375 3.902344 C 2.664062 3.785156 2.820312 3.75 2.9375 3.820312 L 4.640625 4.871094 C 4.757812 4.941406 4.792969 5.097656 4.722656 5.214844 C 4.648438 5.332031 4.496094 5.367188 4.378906 5.296875 L 2.675781 4.246094 C 2.558594 4.175781 2.519531 4.023438 2.59375 3.902344 Z M 2.59375 3.902344 "/>
<path style=" stroke:none;fill-rule:nonzero;fill:rgb(100%,100%,100%);fill-opacity:0.694118;" d="M 2 5.886719 C 2.003906 5.75 2.121094 5.640625 2.257812 5.644531 L 4.257812 5.699219 C 4.394531 5.703125 4.503906 5.820312 4.5 5.957031 C 4.496094 6.097656 4.382812 6.203125 4.242188 6.199219 L 2.246094 6.144531 C 2.105469 6.140625 1.996094 6.027344 2 5.886719 Z M 2 5.886719 "/>
<path style=" stroke:none;fill-rule:nonzero;fill:rgb(100%,100%,100%);fill-opacity:0.482353;" d="M 3.902344 9.40625 C 3.785156 9.335938 3.75 9.179688 3.820312 9.0625 L 4.871094 7.359375 C 4.941406 7.242188 5.097656 7.207031 5.214844 7.277344 C 5.332031 7.351562 5.367188 7.503906 5.296875 7.621094 L 4.246094 9.324219 C 4.175781 9.441406 4.023438 9.480469 3.902344 9.40625 Z M 3.902344 9.40625 "/>
<path style=" stroke:none;fill-rule:nonzero;fill:rgb(100%,100%,100%);fill-opacity:0.403922;" d="M 5.886719 10 C 5.75 9.996094 5.640625 9.878906 5.644531 9.742188 L 5.699219 7.742188 C 5.703125 7.605469 5.820312 7.496094 5.957031 7.5 C 6.097656 7.503906 6.203125 7.617188 6.199219 7.757812 L 6.144531 9.753906 C 6.140625 9.894531 6.027344 10.003906 5.886719 10 Z M 5.886719 10 "/>
<path style=" stroke:none;fill-rule:nonzero;fill:rgb(100%,100%,100%);fill-opacity:0.278431;" d="M 9.40625 8.097656 C 9.335938 8.214844 9.179688 8.25 9.0625 8.179688 L 7.359375 7.128906 C 7.242188 7.058594 7.207031 6.902344 7.277344 6.785156 C 7.351562 6.667969 7.503906 6.632812 7.621094 6.703125 L 9.324219 7.753906 C 9.441406 7.824219 9.480469 7.976562 9.40625 8.097656 Z M 9.40625 8.097656 "/>
<path style=" stroke:none;fill-rule:nonzero;fill:rgb(100%,100%,100%);fill-opacity:0.231373;" d="M 10 6.113281 C 9.996094 6.25 9.878906 6.359375 9.742188 6.355469 L 7.742188 6.300781 C 7.605469 6.296875 7.496094 6.179688 7.5 6.042969 C 7.503906 5.902344 7.617188 5.796875 7.757812 5.800781 L 9.753906 5.855469 C 9.894531 5.859375 10.003906 5.972656 10 6.113281 Z M 10 6.113281 "/>
<path style=" stroke:none;fill-rule:nonzero;fill:rgb(100%,100%,100%);fill-opacity:0.160784;" d="M 8.097656 2.59375 C 8.214844 2.664062 8.25 2.820312 8.179688 2.9375 L 7.128906 4.640625 C 7.058594 4.757812 6.902344 4.792969 6.785156 4.722656 C 6.667969 4.648438 6.632812 4.496094 6.703125 4.378906 L 7.753906 2.675781 C 7.824219 2.558594 7.976562 2.519531 8.097656 2.59375 Z M 8.097656 2.59375 "/>
<path style=" stroke:none;fill-rule:nonzero;fill:rgb(100%,100%,100%);fill-opacity:0.129412;" d="M 6.113281 2 C 6.25 2.003906 6.359375 2.121094 6.355469 2.257812 L 6.300781 4.257812 C 6.296875 4.394531 6.179688 4.503906 6.042969 4.5 C 5.902344 4.496094 5.796875 4.382812 5.800781 4.242188 L 5.855469 2.246094 C 5.859375 2.105469 5.972656 1.996094 6.113281 2 Z M 6.113281 2 "/>
</g>
</svg>
