<?xml version="1.0" encoding="UTF-8"?>
<svg xmlns="http://www.w3.org/2000/svg" xmlns:xlink="http://www.w3.org/1999/xlink" width="12pt" height="12pt" viewBox="0 0 12 12" version="1.1">
<g id="surface1">
<path style=" stroke:none;fill-rule:nonzero;fill:rgb(100%,100%,100%);fill-opacity:1;" d="M 2 5.917969 C 2.003906 5.78125 2.117188 5.667969 2.257812 5.671875 L 4.253906 5.714844 C 4.394531 5.714844 4.503906 5.832031 4.5 5.96875 C 4.496094 6.105469 4.382812 6.214844 4.246094 6.214844 L 2.246094 6.171875 C 2.109375 6.167969 1.996094 6.054688 2 5.917969 Z M 2 5.917969 "/>
<path style=" stroke:none;fill-rule:nonzero;fill:rgb(100%,100%,100%);fill-opacity:0.576471;" d="M 5.917969 10 C 5.78125 9.996094 5.667969 9.882812 5.671875 9.742188 L 5.714844 7.746094 C 5.714844 7.605469 5.832031 7.496094 5.96875 7.5 C 6.105469 7.503906 6.214844 7.617188 6.214844 7.753906 L 6.171875 9.753906 C 6.167969 9.890625 6.054688 10.003906 5.917969 10 Z M 5.917969 10 "/>
<path style=" stroke:none;fill-rule:nonzero;fill:rgb(100%,100%,100%);fill-opacity:0.333333;" d="M 10 6.082031 C 9.996094 6.21875 9.882812 6.332031 9.742188 6.328125 L 7.746094 6.285156 C 7.605469 6.285156 7.496094 6.167969 7.5 6.03125 C 7.503906 5.894531 7.617188 5.785156 7.753906 5.785156 L 9.753906 5.828125 C 9.890625 5.832031 10.003906 5.945312 10 6.082031 Z M 10 6.082031 "/>
<path style=" stroke:none;fill-rule:nonzero;fill:rgb(100%,100%,100%);fill-opacity:0.188235;" d="M 6.082031 2 C 6.21875 2.003906 6.332031 2.117188 6.328125 2.257812 L 6.285156 4.253906 C 6.285156 4.394531 6.167969 4.503906 6.03125 4.5 C 5.894531 4.496094 5.785156 4.382812 5.785156 4.246094 L 5.828125 2.246094 C 5.832031 2.109375 5.945312 1.996094 6.082031 2 Z M 6.082031 2 "/>
<path style=" stroke:none;fill-rule:nonzero;fill:rgb(100%,100%,100%);fill-opacity:0.831373;" d="M 2.496094 7.929688 C 2.429688 7.808594 2.472656 7.65625 2.59375 7.589844 L 4.347656 6.625 C 4.46875 6.558594 4.621094 6.601562 4.6875 6.722656 C 4.753906 6.84375 4.707031 6.996094 4.585938 7.0625 L 2.835938 8.027344 C 2.714844 8.09375 2.5625 8.050781 2.496094 7.929688 Z M 2.496094 7.929688 "/>
<path style=" stroke:none;fill-rule:nonzero;fill:rgb(100%,100%,100%);fill-opacity:0.694118;" d="M 3.929688 9.421875 C 3.8125 9.351562 3.773438 9.195312 3.84375 9.078125 L 4.878906 7.367188 C 4.953125 7.25 5.105469 7.210938 5.222656 7.285156 C 5.339844 7.355469 5.378906 7.507812 5.308594 7.625 L 4.273438 9.335938 C 4.199219 9.457031 4.046875 9.492188 3.929688 9.421875 Z M 3.929688 9.421875 "/>
<path style=" stroke:none;fill-rule:nonzero;fill:rgb(100%,100%,100%);fill-opacity:0.482353;" d="M 7.929688 9.503906 C 7.808594 9.570312 7.65625 9.527344 7.589844 9.40625 L 6.625 7.652344 C 6.558594 7.53125 6.601562 7.378906 6.722656 7.3125 C 6.84375 7.246094 6.996094 7.292969 7.0625 7.414062 L 8.027344 9.164062 C 8.09375 9.285156 8.050781 9.4375 7.929688 9.503906 Z M 7.929688 9.503906 "/>
<path style=" stroke:none;fill-rule:nonzero;fill:rgb(100%,100%,100%);fill-opacity:0.403922;" d="M 9.421875 8.070312 C 9.351562 8.1875 9.195312 8.226562 9.078125 8.15625 L 7.367188 7.121094 C 7.25 7.046875 7.210938 6.894531 7.285156 6.777344 C 7.355469 6.660156 7.507812 6.621094 7.625 6.691406 L 9.335938 7.726562 C 9.457031 7.800781 9.492188 7.953125 9.421875 8.070312 Z M 9.421875 8.070312 "/>
<path style=" stroke:none;fill-rule:nonzero;fill:rgb(100%,100%,100%);fill-opacity:0.278431;" d="M 9.503906 4.070312 C 9.570312 4.191406 9.527344 4.34375 9.40625 4.410156 L 7.652344 5.375 C 7.53125 5.441406 7.378906 5.398438 7.3125 5.277344 C 7.246094 5.15625 7.292969 5.003906 7.414062 4.9375 L 9.164062 3.972656 C 9.285156 3.90625 9.4375 3.949219 9.503906 4.070312 Z M 9.503906 4.070312 "/>
<path style=" stroke:none;fill-rule:nonzero;fill:rgb(100%,100%,100%);fill-opacity:0.231373;" d="M 8.070312 2.578125 C 8.1875 2.648438 8.226562 2.804688 8.15625 2.921875 L 7.121094 4.632812 C 7.046875 4.75 6.894531 4.789062 6.777344 4.714844 C 6.660156 4.644531 6.621094 4.492188 6.691406 4.375 L 7.726562 2.664062 C 7.800781 2.542969 7.953125 2.507812 8.070312 2.578125 Z M 8.070312 2.578125 "/>
<path style=" stroke:none;fill-rule:nonzero;fill:rgb(100%,100%,100%);fill-opacity:0.160784;" d="M 4.070312 2.496094 C 4.191406 2.429688 4.34375 2.472656 4.410156 2.59375 L 5.375 4.347656 C 5.441406 4.46875 5.398438 4.621094 5.277344 4.6875 C 5.15625 4.753906 5.003906 4.707031 4.9375 4.585938 L 3.972656 2.835938 C 3.90625 2.714844 3.949219 2.5625 4.070312 2.496094 Z M 4.070312 2.496094 "/>
<path style=" stroke:none;fill-rule:nonzero;fill:rgb(100%,100%,100%);fill-opacity:0.129412;" d="M 2.578125 3.929688 C 2.648438 3.8125 2.804688 3.773438 2.921875 3.84375 L 4.632812 4.878906 C 4.75 4.953125 4.789062 5.105469 4.714844 5.222656 C 4.644531 5.339844 4.492188 5.378906 4.375 5.308594 L 2.664062 4.273438 C 2.542969 4.199219 2.507812 4.046875 2.578125 3.929688 Z M 2.578125 3.929688 "/>
<path style=" stroke:none;fill-rule:nonzero;fill:rgb(100%,100%,100%);fill-opacity:0.239216;" d="M 11 10 C 11 10.550781 10.550781 11 10 11 C 9.449219 11 9 10.550781 9 10 C 9 9.449219 9.449219 9 10 9 C 10.550781 9 11 9.449219 11 10 Z M 11 10 "/>
</g>
</svg>
