<?xml version="1.0" encoding="UTF-8"?>
<svg xmlns="http://www.w3.org/2000/svg" xmlns:xlink="http://www.w3.org/1999/xlink" width="12pt" height="12pt" viewBox="0 0 12 12" version="1.1">
<g id="surface1">
<path style=" stroke:none;fill-rule:nonzero;fill:rgb(100%,100%,100%);fill-opacity:1;" d="M 8.066406 2.574219 C 8.1875 2.648438 8.222656 2.800781 8.152344 2.917969 L 7.117188 4.632812 C 7.046875 4.75 6.894531 4.789062 6.773438 4.714844 C 6.65625 4.644531 6.621094 4.492188 6.691406 4.371094 L 7.722656 2.660156 C 7.796875 2.542969 7.949219 2.503906 8.066406 2.574219 Z M 8.066406 2.574219 "/>
<path style=" stroke:none;fill-rule:nonzero;fill:rgb(100%,100%,100%);fill-opacity:0.576471;" d="M 2.574219 3.933594 C 2.648438 3.8125 2.800781 3.777344 2.917969 3.847656 L 4.632812 4.882812 C 4.75 4.953125 4.789062 5.105469 4.714844 5.226562 C 4.644531 5.34375 4.492188 5.378906 4.371094 5.308594 L 2.660156 4.277344 C 2.542969 4.203125 2.503906 4.050781 2.574219 3.933594 Z M 2.574219 3.933594 "/>
<path style=" stroke:none;fill-rule:nonzero;fill:rgb(100%,100%,100%);fill-opacity:0.333333;" d="M 3.933594 9.425781 C 3.8125 9.351562 3.777344 9.199219 3.847656 9.082031 L 4.882812 7.367188 C 4.953125 7.25 5.105469 7.210938 5.226562 7.285156 C 5.34375 7.355469 5.378906 7.507812 5.308594 7.628906 L 4.277344 9.339844 C 4.203125 9.457031 4.050781 9.496094 3.933594 9.425781 Z M 3.933594 9.425781 "/>
<path style=" stroke:none;fill-rule:nonzero;fill:rgb(100%,100%,100%);fill-opacity:0.188235;" d="M 9.425781 8.066406 C 9.351562 8.1875 9.199219 8.222656 9.082031 8.152344 L 7.367188 7.117188 C 7.25 7.046875 7.210938 6.894531 7.285156 6.773438 C 7.355469 6.65625 7.507812 6.621094 7.628906 6.691406 L 9.339844 7.722656 C 9.457031 7.796875 9.496094 7.949219 9.425781 8.066406 Z M 9.425781 8.066406 "/>
<path style=" stroke:none;fill-rule:nonzero;fill:rgb(100%,100%,100%);fill-opacity:0.831373;" d="M 6.078125 2 C 6.214844 2.003906 6.328125 2.117188 6.324219 2.253906 L 6.285156 4.253906 C 6.28125 4.394531 6.167969 4.503906 6.03125 4.5 C 5.890625 4.496094 5.78125 4.382812 5.785156 4.246094 L 5.824219 2.246094 C 5.828125 2.109375 5.941406 2 6.078125 2 Z M 6.078125 2 "/>
<path style=" stroke:none;fill-rule:nonzero;fill:rgb(100%,100%,100%);fill-opacity:0.694118;" d="M 4.070312 2.496094 C 4.1875 2.429688 4.339844 2.472656 4.40625 2.59375 L 5.375 4.347656 C 5.441406 4.46875 5.398438 4.621094 5.277344 4.6875 C 5.15625 4.753906 5.003906 4.710938 4.9375 4.589844 L 3.96875 2.835938 C 3.902344 2.714844 3.949219 2.5625 4.070312 2.496094 Z M 4.070312 2.496094 "/>
<path style=" stroke:none;fill-rule:nonzero;fill:rgb(100%,100%,100%);fill-opacity:0.482353;" d="M 2 5.921875 C 2.003906 5.785156 2.117188 5.671875 2.253906 5.675781 L 4.253906 5.714844 C 4.394531 5.71875 4.503906 5.832031 4.5 5.96875 C 4.496094 6.109375 4.382812 6.21875 4.246094 6.214844 L 2.246094 6.175781 C 2.109375 6.171875 2 6.058594 2 5.921875 Z M 2 5.921875 "/>
<path style=" stroke:none;fill-rule:nonzero;fill:rgb(100%,100%,100%);fill-opacity:0.403922;" d="M 2.496094 7.929688 C 2.429688 7.8125 2.472656 7.660156 2.59375 7.59375 L 4.347656 6.625 C 4.46875 6.558594 4.621094 6.601562 4.6875 6.722656 C 4.753906 6.84375 4.710938 6.996094 4.589844 7.0625 L 2.835938 8.03125 C 2.714844 8.097656 2.5625 8.050781 2.496094 7.929688 Z M 2.496094 7.929688 "/>
<path style=" stroke:none;fill-rule:nonzero;fill:rgb(100%,100%,100%);fill-opacity:0.278431;" d="M 5.921875 10 C 5.785156 9.996094 5.671875 9.882812 5.675781 9.746094 L 5.714844 7.746094 C 5.71875 7.605469 5.832031 7.496094 5.96875 7.5 C 6.109375 7.503906 6.21875 7.617188 6.214844 7.753906 L 6.175781 9.753906 C 6.171875 9.890625 6.058594 10 5.921875 10 Z M 5.921875 10 "/>
<path style=" stroke:none;fill-rule:nonzero;fill:rgb(100%,100%,100%);fill-opacity:0.231373;" d="M 7.929688 9.503906 C 7.8125 9.570312 7.660156 9.527344 7.59375 9.40625 L 6.625 7.652344 C 6.558594 7.53125 6.601562 7.378906 6.722656 7.3125 C 6.84375 7.246094 6.996094 7.289062 7.0625 7.410156 L 8.03125 9.164062 C 8.097656 9.285156 8.050781 9.4375 7.929688 9.503906 Z M 7.929688 9.503906 "/>
<path style=" stroke:none;fill-rule:nonzero;fill:rgb(100%,100%,100%);fill-opacity:0.160784;" d="M 10 6.078125 C 9.996094 6.214844 9.882812 6.328125 9.746094 6.324219 L 7.746094 6.285156 C 7.605469 6.28125 7.496094 6.167969 7.5 6.03125 C 7.503906 5.890625 7.617188 5.78125 7.753906 5.785156 L 9.753906 5.824219 C 9.890625 5.828125 10 5.941406 10 6.078125 Z M 10 6.078125 "/>
<path style=" stroke:none;fill-rule:nonzero;fill:rgb(100%,100%,100%);fill-opacity:0.129412;" d="M 9.503906 4.070312 C 9.570312 4.1875 9.527344 4.339844 9.40625 4.40625 L 7.652344 5.375 C 7.53125 5.441406 7.378906 5.398438 7.3125 5.277344 C 7.246094 5.15625 7.289062 5.003906 7.410156 4.9375 L 9.164062 3.96875 C 9.285156 3.902344 9.4375 3.949219 9.503906 4.070312 Z M 9.503906 4.070312 "/>
<path style=" stroke:none;fill-rule:nonzero;fill:rgb(100%,100%,100%);fill-opacity:0.168627;" d="M 11 10 C 11 10.550781 10.550781 11 10 11 C 9.449219 11 9 10.550781 9 10 C 9 9.449219 9.449219 9 10 9 C 10.550781 9 11 9.449219 11 10 Z M 11 10 "/>
</g>
</svg>
