<?xml version="1.0" encoding="UTF-8"?>
<svg xmlns="http://www.w3.org/2000/svg" xmlns:xlink="http://www.w3.org/1999/xlink" width="12pt" height="12pt" viewBox="0 0 12 12" version="1.1">
<g id="surface1">
<path style=" stroke:none;fill-rule:nonzero;fill:rgb(100%,100%,100%);fill-opacity:1;" d="M 9.730469 4.550781 C 9.777344 4.679688 9.714844 4.824219 9.585938 4.875 L 7.722656 5.597656 C 7.59375 5.648438 7.449219 5.585938 7.398438 5.457031 C 7.347656 5.328125 7.410156 5.183594 7.539062 5.132812 L 9.40625 4.410156 C 9.535156 4.359375 9.679688 4.421875 9.730469 4.550781 Z M 9.730469 4.550781 "/>
<path style=" stroke:none;fill-rule:nonzero;fill:rgb(100%,100%,100%);fill-opacity:0.576471;" d="M 4.550781 2.269531 C 4.679688 2.222656 4.824219 2.285156 4.875 2.414062 L 5.597656 4.277344 C 5.648438 4.40625 5.585938 4.550781 5.457031 4.601562 C 5.328125 4.652344 5.183594 4.589844 5.132812 4.460938 L 4.410156 2.59375 C 4.359375 2.464844 4.421875 2.320312 4.550781 2.269531 Z M 4.550781 2.269531 "/>
<path style=" stroke:none;fill-rule:nonzero;fill:rgb(100%,100%,100%);fill-opacity:0.333333;" d="M 2.269531 7.449219 C 2.222656 7.320312 2.285156 7.175781 2.414062 7.125 L 4.277344 6.402344 C 4.40625 6.351562 4.550781 6.414062 4.601562 6.542969 C 4.652344 6.671875 4.589844 6.816406 4.460938 6.867188 L 2.59375 7.589844 C 2.464844 7.640625 2.320312 7.578125 2.269531 7.449219 Z M 2.269531 7.449219 "/>
<path style=" stroke:none;fill-rule:nonzero;fill:rgb(100%,100%,100%);fill-opacity:0.188235;" d="M 7.449219 9.730469 C 7.320312 9.777344 7.175781 9.714844 7.125 9.585938 L 6.402344 7.722656 C 6.351562 7.59375 6.414062 7.449219 6.542969 7.398438 C 6.671875 7.347656 6.816406 7.410156 6.867188 7.539062 L 7.589844 9.40625 C 7.640625 9.535156 7.578125 9.679688 7.449219 9.730469 Z M 7.449219 9.730469 "/>
<path style=" stroke:none;fill-rule:nonzero;fill:rgb(100%,100%,100%);fill-opacity:0.831373;" d="M 8.503906 2.882812 C 8.613281 2.96875 8.628906 3.125 8.542969 3.234375 L 7.289062 4.792969 C 7.203125 4.898438 7.046875 4.917969 6.9375 4.832031 C 6.832031 4.742188 6.816406 4.585938 6.902344 4.480469 L 8.152344 2.917969 C 8.238281 2.8125 8.398438 2.796875 8.503906 2.882812 Z M 8.503906 2.882812 "/>
<path style=" stroke:none;fill-rule:nonzero;fill:rgb(100%,100%,100%);fill-opacity:0.694118;" d="M 6.609375 2.046875 C 6.746094 2.066406 6.839844 2.195312 6.820312 2.332031 L 6.515625 4.308594 C 6.492188 4.445312 6.367188 4.539062 6.230469 4.515625 C 6.09375 4.496094 6 4.367188 6.019531 4.230469 L 6.324219 2.253906 C 6.347656 2.121094 6.472656 2.027344 6.609375 2.046875 Z M 6.609375 2.046875 "/>
<path style=" stroke:none;fill-rule:nonzero;fill:rgb(100%,100%,100%);fill-opacity:0.482353;" d="M 2.882812 3.496094 C 2.96875 3.386719 3.125 3.371094 3.234375 3.457031 L 4.792969 4.710938 C 4.898438 4.796875 4.917969 4.953125 4.832031 5.0625 C 4.742188 5.167969 4.585938 5.183594 4.480469 5.097656 L 2.917969 3.847656 C 2.8125 3.761719 2.796875 3.601562 2.882812 3.496094 Z M 2.882812 3.496094 "/>
<path style=" stroke:none;fill-rule:nonzero;fill:rgb(100%,100%,100%);fill-opacity:0.403922;" d="M 2.046875 5.390625 C 2.066406 5.253906 2.195312 5.160156 2.332031 5.179688 L 4.308594 5.484375 C 4.445312 5.507812 4.539062 5.632812 4.515625 5.769531 C 4.496094 5.90625 4.367188 6 4.230469 5.980469 L 2.253906 5.675781 C 2.121094 5.652344 2.027344 5.527344 2.046875 5.390625 Z M 2.046875 5.390625 "/>
<path style=" stroke:none;fill-rule:nonzero;fill:rgb(100%,100%,100%);fill-opacity:0.278431;" d="M 3.496094 9.117188 C 3.386719 9.03125 3.371094 8.875 3.457031 8.765625 L 4.710938 7.207031 C 4.796875 7.101562 4.953125 7.082031 5.0625 7.167969 C 5.167969 7.257812 5.183594 7.414062 5.097656 7.519531 L 3.847656 9.082031 C 3.761719 9.1875 3.601562 9.203125 3.496094 9.117188 Z M 3.496094 9.117188 "/>
<path style=" stroke:none;fill-rule:nonzero;fill:rgb(100%,100%,100%);fill-opacity:0.231373;" d="M 5.390625 9.953125 C 5.253906 9.933594 5.160156 9.804688 5.179688 9.667969 L 5.484375 7.691406 C 5.507812 7.554688 5.632812 7.460938 5.769531 7.484375 C 5.90625 7.503906 6 7.632812 5.980469 7.769531 L 5.675781 9.746094 C 5.652344 9.878906 5.527344 9.972656 5.390625 9.953125 Z M 5.390625 9.953125 "/>
<path style=" stroke:none;fill-rule:nonzero;fill:rgb(100%,100%,100%);fill-opacity:0.160784;" d="M 9.117188 8.503906 C 9.03125 8.613281 8.875 8.628906 8.765625 8.542969 L 7.207031 7.289062 C 7.101562 7.203125 7.082031 7.046875 7.167969 6.9375 C 7.257812 6.832031 7.414062 6.816406 7.519531 6.902344 L 9.082031 8.152344 C 9.1875 8.238281 9.203125 8.398438 9.117188 8.503906 Z M 9.117188 8.503906 "/>
<path style=" stroke:none;fill-rule:nonzero;fill:rgb(100%,100%,100%);fill-opacity:0.129412;" d="M 9.953125 6.609375 C 9.933594 6.746094 9.804688 6.839844 9.667969 6.820312 L 7.691406 6.515625 C 7.554688 6.492188 7.460938 6.367188 7.484375 6.230469 C 7.503906 6.09375 7.632812 6 7.769531 6.019531 L 9.746094 6.324219 C 9.878906 6.347656 9.972656 6.472656 9.953125 6.609375 Z M 9.953125 6.609375 "/>
<path style=" stroke:none;fill-rule:nonzero;fill:rgb(100%,100%,100%);fill-opacity:0.239216;" d="M 11 10 C 11 10.550781 10.550781 11 10 11 C 9.449219 11 9 10.550781 9 10 C 9 9.449219 9.449219 9 10 9 C 10.550781 9 11 9.449219 11 10 Z M 11 10 "/>
</g>
</svg>
