<?xml version="1.0" encoding="UTF-8"?>
<svg xmlns="http://www.w3.org/2000/svg" xmlns:xlink="http://www.w3.org/1999/xlink" width="12pt" height="12pt" viewBox="0 0 12 12" version="1.1">
<g id="surface1">
<path style=" stroke:none;fill-rule:nonzero;fill:rgb(100%,100%,100%);fill-opacity:1;" d="M 2.84375 3.539062 C 2.929688 3.433594 3.085938 3.414062 3.195312 3.496094 L 4.773438 4.726562 C 4.882812 4.8125 4.902344 4.96875 4.816406 5.078125 C 4.730469 5.1875 4.574219 5.207031 4.464844 5.121094 L 2.890625 3.890625 C 2.78125 3.808594 2.761719 3.648438 2.84375 3.539062 Z M 2.84375 3.539062 "/>
<path style=" stroke:none;fill-rule:nonzero;fill:rgb(100%,100%,100%);fill-opacity:0.576471;" d="M 3.539062 9.15625 C 3.433594 9.070312 3.414062 8.914062 3.496094 8.804688 L 4.726562 7.226562 C 4.8125 7.117188 4.96875 7.097656 5.078125 7.183594 C 5.1875 7.269531 5.207031 7.425781 5.121094 7.535156 L 3.890625 9.109375 C 3.808594 9.21875 3.648438 9.238281 3.539062 9.15625 Z M 3.539062 9.15625 "/>
<path style=" stroke:none;fill-rule:nonzero;fill:rgb(100%,100%,100%);fill-opacity:0.333333;" d="M 9.15625 8.460938 C 9.070312 8.566406 8.914062 8.585938 8.804688 8.503906 L 7.226562 7.273438 C 7.117188 7.1875 7.097656 7.03125 7.183594 6.921875 C 7.269531 6.8125 7.425781 6.792969 7.535156 6.878906 L 9.109375 8.109375 C 9.21875 8.191406 9.238281 8.351562 9.15625 8.460938 Z M 9.15625 8.460938 "/>
<path style=" stroke:none;fill-rule:nonzero;fill:rgb(100%,100%,100%);fill-opacity:0.188235;" d="M 8.460938 2.84375 C 8.566406 2.929688 8.585938 3.085938 8.503906 3.195312 L 7.273438 4.773438 C 7.1875 4.882812 7.03125 4.902344 6.921875 4.816406 C 6.8125 4.730469 6.792969 4.574219 6.878906 4.464844 L 8.109375 2.890625 C 8.191406 2.78125 8.351562 2.761719 8.460938 2.84375 Z M 8.460938 2.84375 "/>
<path style=" stroke:none;fill-rule:nonzero;fill:rgb(100%,100%,100%);fill-opacity:0.831373;" d="M 2.039062 5.449219 C 2.058594 5.3125 2.183594 5.214844 2.320312 5.234375 L 4.300781 5.511719 C 4.4375 5.53125 4.535156 5.65625 4.515625 5.792969 C 4.496094 5.929688 4.367188 6.023438 4.230469 6.007812 L 2.25 5.730469 C 2.113281 5.710938 2.019531 5.585938 2.039062 5.449219 Z M 2.039062 5.449219 "/>
<path style=" stroke:none;fill-rule:nonzero;fill:rgb(100%,100%,100%);fill-opacity:0.694118;" d="M 2.292969 7.503906 C 2.242188 7.375 2.304688 7.230469 2.429688 7.175781 L 4.285156 6.425781 C 4.414062 6.375 4.558594 6.433594 4.609375 6.5625 C 4.660156 6.691406 4.601562 6.835938 4.472656 6.890625 L 2.617188 7.640625 C 2.492188 7.691406 2.34375 7.628906 2.292969 7.503906 Z M 2.292969 7.503906 "/>
<path style=" stroke:none;fill-rule:nonzero;fill:rgb(100%,100%,100%);fill-opacity:0.482353;" d="M 5.449219 9.960938 C 5.3125 9.941406 5.214844 9.816406 5.234375 9.679688 L 5.511719 7.699219 C 5.53125 7.5625 5.65625 7.464844 5.792969 7.484375 C 5.929688 7.503906 6.023438 7.632812 6.007812 7.769531 L 5.730469 9.75 C 5.710938 9.886719 5.585938 9.980469 5.449219 9.960938 Z M 5.449219 9.960938 "/>
<path style=" stroke:none;fill-rule:nonzero;fill:rgb(100%,100%,100%);fill-opacity:0.403922;" d="M 7.503906 9.707031 C 7.375 9.757812 7.230469 9.695312 7.175781 9.570312 L 6.425781 7.714844 C 6.375 7.585938 6.433594 7.441406 6.5625 7.390625 C 6.691406 7.339844 6.835938 7.398438 6.890625 7.527344 L 7.640625 9.382812 C 7.691406 9.507812 7.628906 9.65625 7.503906 9.707031 Z M 7.503906 9.707031 "/>
<path style=" stroke:none;fill-rule:nonzero;fill:rgb(100%,100%,100%);fill-opacity:0.278431;" d="M 9.960938 6.550781 C 9.941406 6.6875 9.816406 6.785156 9.679688 6.765625 L 7.699219 6.488281 C 7.5625 6.46875 7.464844 6.34375 7.484375 6.207031 C 7.503906 6.070312 7.632812 5.976562 7.769531 5.992188 L 9.75 6.269531 C 9.886719 6.289062 9.980469 6.414062 9.960938 6.550781 Z M 9.960938 6.550781 "/>
<path style=" stroke:none;fill-rule:nonzero;fill:rgb(100%,100%,100%);fill-opacity:0.231373;" d="M 9.707031 4.496094 C 9.757812 4.625 9.695312 4.769531 9.570312 4.824219 L 7.714844 5.574219 C 7.585938 5.625 7.441406 5.566406 7.390625 5.4375 C 7.339844 5.308594 7.398438 5.164062 7.527344 5.109375 L 9.382812 4.359375 C 9.507812 4.308594 9.65625 4.371094 9.707031 4.496094 Z M 9.707031 4.496094 "/>
<path style=" stroke:none;fill-rule:nonzero;fill:rgb(100%,100%,100%);fill-opacity:0.160784;" d="M 6.550781 2.039062 C 6.6875 2.058594 6.785156 2.183594 6.765625 2.320312 L 6.488281 4.300781 C 6.46875 4.4375 6.34375 4.535156 6.207031 4.515625 C 6.070312 4.496094 5.976562 4.367188 5.992188 4.230469 L 6.269531 2.25 C 6.289062 2.113281 6.414062 2.019531 6.550781 2.039062 Z M 6.550781 2.039062 "/>
<path style=" stroke:none;fill-rule:nonzero;fill:rgb(100%,100%,100%);fill-opacity:0.129412;" d="M 4.496094 2.292969 C 4.625 2.242188 4.769531 2.304688 4.824219 2.429688 L 5.574219 4.285156 C 5.625 4.414062 5.566406 4.558594 5.4375 4.609375 C 5.308594 4.660156 5.164062 4.601562 5.109375 4.472656 L 4.359375 2.617188 C 4.308594 2.492188 4.371094 2.34375 4.496094 2.292969 Z M 4.496094 2.292969 "/>
</g>
</svg>
