<?xml version="1.0" encoding="UTF-8"?>
<svg xmlns="http://www.w3.org/2000/svg" xmlns:xlink="http://www.w3.org/1999/xlink" width="12pt" height="12pt" viewBox="0 0 12 12" version="1.1">
<g id="surface1">
<path style=" stroke:none;fill-rule:nonzero;fill:rgb(100%,100%,100%);fill-opacity:1;" d="M 5.894531 2 C 6.035156 1.996094 6.148438 2.105469 6.152344 2.246094 L 6.203125 4.242188 C 6.207031 4.382812 6.097656 4.496094 5.960938 4.5 C 5.824219 4.503906 5.707031 4.394531 5.703125 4.257812 L 5.652344 2.257812 C 5.648438 2.121094 5.757812 2.003906 5.894531 2 Z M 5.894531 2 "/>
<path style=" stroke:none;fill-rule:nonzero;fill:rgb(100%,100%,100%);fill-opacity:0.576471;" d="M 2 6.105469 C 1.996094 5.964844 2.105469 5.851562 2.246094 5.847656 L 4.242188 5.796875 C 4.382812 5.792969 4.496094 5.902344 4.5 6.039062 C 4.503906 6.175781 4.394531 6.292969 4.257812 6.296875 L 2.257812 6.347656 C 2.121094 6.351562 2.003906 6.242188 2 6.105469 Z M 2 6.105469 "/>
<path style=" stroke:none;fill-rule:nonzero;fill:rgb(100%,100%,100%);fill-opacity:0.333333;" d="M 6.105469 10 C 5.964844 10.003906 5.851562 9.894531 5.847656 9.753906 L 5.796875 7.757812 C 5.792969 7.617188 5.902344 7.503906 6.039062 7.5 C 6.175781 7.496094 6.292969 7.605469 6.296875 7.742188 L 6.347656 9.742188 C 6.351562 9.878906 6.242188 9.996094 6.105469 10 Z M 6.105469 10 "/>
<path style=" stroke:none;fill-rule:nonzero;fill:rgb(100%,100%,100%);fill-opacity:0.188235;" d="M 10 5.894531 C 10.003906 6.035156 9.894531 6.148438 9.753906 6.152344 L 7.757812 6.203125 C 7.617188 6.207031 7.503906 6.097656 7.5 5.960938 C 7.496094 5.824219 7.605469 5.707031 7.742188 5.703125 L 9.742188 5.652344 C 9.878906 5.648438 9.996094 5.757812 10 5.894531 Z M 10 5.894531 "/>
<path style=" stroke:none;fill-rule:nonzero;fill:rgb(100%,100%,100%);fill-opacity:0.831373;" d="M 3.910156 2.589844 C 4.027344 2.515625 4.183594 2.554688 4.253906 2.671875 L 5.296875 4.378906 C 5.371094 4.496094 5.332031 4.648438 5.214844 4.722656 C 5.097656 4.792969 4.945312 4.757812 4.871094 4.636719 L 3.828125 2.933594 C 3.753906 2.816406 3.792969 2.660156 3.910156 2.589844 Z M 3.910156 2.589844 "/>
<path style=" stroke:none;fill-rule:nonzero;fill:rgb(100%,100%,100%);fill-opacity:0.694118;" d="M 2.484375 4.089844 C 2.550781 3.96875 2.703125 3.925781 2.824219 3.992188 L 4.582031 4.945312 C 4.703125 5.011719 4.746094 5.164062 4.683594 5.285156 C 4.617188 5.40625 4.464844 5.449219 4.34375 5.382812 L 2.585938 4.429688 C 2.464844 4.363281 2.417969 4.210938 2.484375 4.089844 Z M 2.484375 4.089844 "/>
<path style=" stroke:none;fill-rule:nonzero;fill:rgb(100%,100%,100%);fill-opacity:0.482353;" d="M 2.589844 8.089844 C 2.515625 7.972656 2.554688 7.816406 2.671875 7.746094 L 4.378906 6.703125 C 4.496094 6.628906 4.648438 6.667969 4.722656 6.785156 C 4.792969 6.902344 4.757812 7.054688 4.636719 7.128906 L 2.933594 8.171875 C 2.816406 8.246094 2.660156 8.207031 2.589844 8.089844 Z M 2.589844 8.089844 "/>
<path style=" stroke:none;fill-rule:nonzero;fill:rgb(100%,100%,100%);fill-opacity:0.403922;" d="M 4.089844 9.515625 C 3.96875 9.449219 3.925781 9.296875 3.992188 9.175781 L 4.945312 7.417969 C 5.011719 7.296875 5.164062 7.253906 5.285156 7.316406 C 5.40625 7.382812 5.449219 7.535156 5.382812 7.65625 L 4.429688 9.414062 C 4.363281 9.535156 4.210938 9.582031 4.089844 9.515625 Z M 4.089844 9.515625 "/>
<path style=" stroke:none;fill-rule:nonzero;fill:rgb(100%,100%,100%);fill-opacity:0.278431;" d="M 8.089844 9.410156 C 7.972656 9.484375 7.816406 9.445312 7.746094 9.328125 L 6.703125 7.621094 C 6.628906 7.503906 6.667969 7.351562 6.785156 7.277344 C 6.902344 7.207031 7.054688 7.242188 7.128906 7.363281 L 8.171875 9.066406 C 8.246094 9.183594 8.207031 9.339844 8.089844 9.410156 Z M 8.089844 9.410156 "/>
<path style=" stroke:none;fill-rule:nonzero;fill:rgb(100%,100%,100%);fill-opacity:0.231373;" d="M 9.515625 7.910156 C 9.449219 8.03125 9.296875 8.074219 9.175781 8.007812 L 7.417969 7.054688 C 7.296875 6.988281 7.253906 6.835938 7.316406 6.714844 C 7.382812 6.59375 7.535156 6.550781 7.65625 6.617188 L 9.414062 7.570312 C 9.535156 7.636719 9.582031 7.789062 9.515625 7.910156 Z M 9.515625 7.910156 "/>
<path style=" stroke:none;fill-rule:nonzero;fill:rgb(100%,100%,100%);fill-opacity:0.160784;" d="M 9.410156 3.910156 C 9.484375 4.027344 9.445312 4.183594 9.328125 4.253906 L 7.621094 5.296875 C 7.503906 5.371094 7.351562 5.332031 7.277344 5.214844 C 7.207031 5.097656 7.242188 4.945312 7.363281 4.871094 L 9.066406 3.828125 C 9.183594 3.753906 9.339844 3.792969 9.410156 3.910156 Z M 9.410156 3.910156 "/>
<path style=" stroke:none;fill-rule:nonzero;fill:rgb(100%,100%,100%);fill-opacity:0.129412;" d="M 7.910156 2.484375 C 8.03125 2.550781 8.074219 2.703125 8.007812 2.824219 L 7.054688 4.582031 C 6.988281 4.703125 6.835938 4.746094 6.714844 4.683594 C 6.59375 4.617188 6.550781 4.464844 6.617188 4.34375 L 7.570312 2.585938 C 7.636719 2.464844 7.789062 2.417969 7.910156 2.484375 Z M 7.910156 2.484375 "/>
</g>
</svg>
