<?xml version="1.0" encoding="UTF-8"?>
<svg xmlns="http://www.w3.org/2000/svg" xmlns:xlink="http://www.w3.org/1999/xlink" width="12pt" height="12pt" viewBox="0 0 12 12" version="1.1">
<g id="surface1">
<path style=" stroke:none;fill-rule:nonzero;fill:rgb(100%,100%,100%);fill-opacity:1;" d="M 9.945312 6.664062 C 9.921875 6.796875 9.792969 6.890625 9.65625 6.867188 L 7.683594 6.535156 C 7.546875 6.511719 7.457031 6.382812 7.480469 6.25 C 7.503906 6.113281 7.632812 6.019531 7.765625 6.042969 L 9.738281 6.375 C 9.875 6.398438 9.96875 6.527344 9.945312 6.664062 Z M 9.945312 6.664062 "/>
<path style=" stroke:none;fill-rule:nonzero;fill:rgb(100%,100%,100%);fill-opacity:0.576471;" d="M 6.664062 2.054688 C 6.796875 2.078125 6.890625 2.207031 6.867188 2.34375 L 6.535156 4.316406 C 6.511719 4.453125 6.382812 4.542969 6.25 4.519531 C 6.113281 4.496094 6.019531 4.367188 6.042969 4.234375 L 6.375 2.261719 C 6.398438 2.125 6.527344 2.03125 6.664062 2.054688 Z M 6.664062 2.054688 "/>
<path style=" stroke:none;fill-rule:nonzero;fill:rgb(100%,100%,100%);fill-opacity:0.333333;" d="M 2.054688 5.335938 C 2.078125 5.203125 2.207031 5.109375 2.34375 5.132812 L 4.316406 5.464844 C 4.453125 5.488281 4.542969 5.617188 4.519531 5.75 C 4.496094 5.886719 4.367188 5.980469 4.234375 5.957031 L 2.261719 5.625 C 2.125 5.601562 2.03125 5.472656 2.054688 5.335938 Z M 2.054688 5.335938 "/>
<path style=" stroke:none;fill-rule:nonzero;fill:rgb(100%,100%,100%);fill-opacity:0.188235;" d="M 5.335938 9.945312 C 5.203125 9.921875 5.109375 9.792969 5.132812 9.65625 L 5.464844 7.683594 C 5.488281 7.546875 5.617188 7.457031 5.75 7.480469 C 5.886719 7.503906 5.980469 7.632812 5.957031 7.765625 L 5.625 9.738281 C 5.601562 9.875 5.472656 9.96875 5.335938 9.945312 Z M 5.335938 9.945312 "/>
<path style=" stroke:none;fill-rule:nonzero;fill:rgb(100%,100%,100%);fill-opacity:0.831373;" d="M 9.746094 4.601562 C 9.796875 4.730469 9.730469 4.875 9.601562 4.921875 L 7.726562 5.621094 C 7.597656 5.671875 7.453125 5.605469 7.40625 5.476562 C 7.355469 5.347656 7.421875 5.203125 7.550781 5.152344 L 9.425781 4.453125 C 9.554688 4.40625 9.699219 4.472656 9.746094 4.601562 Z M 9.746094 4.601562 "/>
<path style=" stroke:none;fill-rule:nonzero;fill:rgb(100%,100%,100%);fill-opacity:0.694118;" d="M 8.546875 2.914062 C 8.652344 3.003906 8.667969 3.160156 8.578125 3.265625 L 7.308594 4.808594 C 7.21875 4.914062 7.0625 4.929688 6.953125 4.84375 C 6.847656 4.753906 6.832031 4.597656 6.921875 4.492188 L 8.195312 2.949219 C 8.28125 2.84375 8.441406 2.828125 8.546875 2.914062 Z M 8.546875 2.914062 "/>
<path style=" stroke:none;fill-rule:nonzero;fill:rgb(100%,100%,100%);fill-opacity:0.482353;" d="M 4.601562 2.253906 C 4.730469 2.203125 4.875 2.269531 4.921875 2.398438 L 5.621094 4.273438 C 5.671875 4.402344 5.605469 4.546875 5.476562 4.59375 C 5.347656 4.644531 5.203125 4.578125 5.152344 4.449219 L 4.453125 2.574219 C 4.40625 2.445312 4.472656 2.300781 4.601562 2.253906 Z M 4.601562 2.253906 "/>
<path style=" stroke:none;fill-rule:nonzero;fill:rgb(100%,100%,100%);fill-opacity:0.403922;" d="M 2.914062 3.453125 C 3.003906 3.347656 3.160156 3.332031 3.265625 3.421875 L 4.808594 4.691406 C 4.914062 4.78125 4.929688 4.9375 4.84375 5.046875 C 4.753906 5.152344 4.597656 5.167969 4.492188 5.078125 L 2.949219 3.804688 C 2.84375 3.71875 2.828125 3.558594 2.914062 3.453125 Z M 2.914062 3.453125 "/>
<path style=" stroke:none;fill-rule:nonzero;fill:rgb(100%,100%,100%);fill-opacity:0.278431;" d="M 2.253906 7.398438 C 2.203125 7.269531 2.269531 7.125 2.398438 7.078125 L 4.273438 6.378906 C 4.402344 6.328125 4.546875 6.394531 4.59375 6.523438 C 4.644531 6.652344 4.578125 6.796875 4.449219 6.847656 L 2.574219 7.546875 C 2.445312 7.59375 2.300781 7.527344 2.253906 7.398438 Z M 2.253906 7.398438 "/>
<path style=" stroke:none;fill-rule:nonzero;fill:rgb(100%,100%,100%);fill-opacity:0.231373;" d="M 3.453125 9.085938 C 3.347656 8.996094 3.332031 8.839844 3.421875 8.734375 L 4.691406 7.191406 C 4.78125 7.085938 4.9375 7.070312 5.046875 7.15625 C 5.152344 7.246094 5.167969 7.402344 5.078125 7.507812 L 3.804688 9.050781 C 3.71875 9.15625 3.558594 9.171875 3.453125 9.085938 Z M 3.453125 9.085938 "/>
<path style=" stroke:none;fill-rule:nonzero;fill:rgb(100%,100%,100%);fill-opacity:0.160784;" d="M 7.398438 9.746094 C 7.269531 9.796875 7.125 9.730469 7.078125 9.601562 L 6.378906 7.726562 C 6.328125 7.597656 6.394531 7.453125 6.523438 7.40625 C 6.652344 7.355469 6.796875 7.421875 6.847656 7.550781 L 7.546875 9.425781 C 7.59375 9.554688 7.527344 9.699219 7.398438 9.746094 Z M 7.398438 9.746094 "/>
<path style=" stroke:none;fill-rule:nonzero;fill:rgb(100%,100%,100%);fill-opacity:0.129412;" d="M 9.085938 8.546875 C 8.996094 8.652344 8.839844 8.667969 8.734375 8.578125 L 7.191406 7.308594 C 7.085938 7.21875 7.070312 7.0625 7.15625 6.953125 C 7.246094 6.847656 7.402344 6.832031 7.507812 6.921875 L 9.050781 8.195312 C 9.15625 8.28125 9.171875 8.441406 9.085938 8.546875 Z M 9.085938 8.546875 "/>
</g>
</svg>
