<?xml version="1.0" encoding="UTF-8"?>
<svg xmlns="http://www.w3.org/2000/svg" xmlns:xlink="http://www.w3.org/1999/xlink" width="12pt" height="12pt" viewBox="0 0 12 12" version="1.1">
<g id="surface1">
<path style=" stroke:none;fill-rule:nonzero;fill:rgb(100%,100%,100%);fill-opacity:1;" d="M 4.089844 2.484375 C 4.210938 2.417969 4.363281 2.464844 4.429688 2.585938 L 5.382812 4.34375 C 5.449219 4.464844 5.40625 4.617188 5.285156 4.683594 C 5.164062 4.746094 5.011719 4.703125 4.945312 4.582031 L 3.992188 2.824219 C 3.925781 2.703125 3.96875 2.550781 4.089844 2.484375 Z M 4.089844 2.484375 "/>
<path style=" stroke:none;fill-rule:nonzero;fill:rgb(100%,100%,100%);fill-opacity:0.576471;" d="M 2.484375 7.910156 C 2.417969 7.789062 2.464844 7.636719 2.585938 7.570312 L 4.34375 6.617188 C 4.464844 6.550781 4.617188 6.59375 4.683594 6.714844 C 4.746094 6.835938 4.703125 6.988281 4.582031 7.054688 L 2.824219 8.007812 C 2.703125 8.074219 2.550781 8.03125 2.484375 7.910156 Z M 2.484375 7.910156 "/>
<path style=" stroke:none;fill-rule:nonzero;fill:rgb(100%,100%,100%);fill-opacity:0.333333;" d="M 7.910156 9.515625 C 7.789062 9.582031 7.636719 9.535156 7.570312 9.414062 L 6.617188 7.65625 C 6.550781 7.535156 6.59375 7.382812 6.714844 7.316406 C 6.835938 7.253906 6.988281 7.296875 7.054688 7.417969 L 8.007812 9.175781 C 8.074219 9.296875 8.03125 9.449219 7.910156 9.515625 Z M 7.910156 9.515625 "/>
<path style=" stroke:none;fill-rule:nonzero;fill:rgb(100%,100%,100%);fill-opacity:0.188235;" d="M 9.515625 4.089844 C 9.582031 4.210938 9.535156 4.363281 9.414062 4.429688 L 7.65625 5.382812 C 7.535156 5.449219 7.382812 5.40625 7.316406 5.285156 C 7.253906 5.164062 7.296875 5.011719 7.417969 4.945312 L 9.175781 3.992188 C 9.296875 3.925781 9.449219 3.96875 9.515625 4.089844 Z M 9.515625 4.089844 "/>
<path style=" stroke:none;fill-rule:nonzero;fill:rgb(100%,100%,100%);fill-opacity:0.831373;" d="M 2.589844 3.910156 C 2.660156 3.792969 2.816406 3.753906 2.933594 3.828125 L 4.636719 4.871094 C 4.757812 4.945312 4.792969 5.097656 4.722656 5.214844 C 4.648438 5.332031 4.496094 5.371094 4.378906 5.296875 L 2.671875 4.253906 C 2.554688 4.183594 2.515625 4.027344 2.589844 3.910156 Z M 2.589844 3.910156 "/>
<path style=" stroke:none;fill-rule:nonzero;fill:rgb(100%,100%,100%);fill-opacity:0.694118;" d="M 2 5.894531 C 2.003906 5.757812 2.121094 5.648438 2.257812 5.652344 L 4.257812 5.703125 C 4.394531 5.707031 4.503906 5.824219 4.5 5.960938 C 4.496094 6.097656 4.382812 6.207031 4.242188 6.203125 L 2.246094 6.152344 C 2.105469 6.148438 1.996094 6.035156 2 5.894531 Z M 2 5.894531 "/>
<path style=" stroke:none;fill-rule:nonzero;fill:rgb(100%,100%,100%);fill-opacity:0.482353;" d="M 3.910156 9.410156 C 3.792969 9.339844 3.753906 9.183594 3.828125 9.066406 L 4.871094 7.363281 C 4.945312 7.242188 5.097656 7.207031 5.214844 7.277344 C 5.332031 7.351562 5.371094 7.503906 5.296875 7.621094 L 4.253906 9.328125 C 4.183594 9.445312 4.027344 9.484375 3.910156 9.410156 Z M 3.910156 9.410156 "/>
<path style=" stroke:none;fill-rule:nonzero;fill:rgb(100%,100%,100%);fill-opacity:0.403922;" d="M 5.894531 10 C 5.757812 9.996094 5.648438 9.878906 5.652344 9.742188 L 5.703125 7.742188 C 5.707031 7.605469 5.824219 7.496094 5.960938 7.5 C 6.097656 7.503906 6.207031 7.617188 6.203125 7.757812 L 6.152344 9.753906 C 6.148438 9.894531 6.035156 10.003906 5.894531 10 Z M 5.894531 10 "/>
<path style=" stroke:none;fill-rule:nonzero;fill:rgb(100%,100%,100%);fill-opacity:0.278431;" d="M 9.410156 8.089844 C 9.339844 8.207031 9.183594 8.246094 9.066406 8.171875 L 7.363281 7.128906 C 7.242188 7.054688 7.207031 6.902344 7.277344 6.785156 C 7.351562 6.667969 7.503906 6.628906 7.621094 6.703125 L 9.328125 7.746094 C 9.445312 7.816406 9.484375 7.972656 9.410156 8.089844 Z M 9.410156 8.089844 "/>
<path style=" stroke:none;fill-rule:nonzero;fill:rgb(100%,100%,100%);fill-opacity:0.231373;" d="M 10 6.105469 C 9.996094 6.242188 9.878906 6.351562 9.742188 6.347656 L 7.742188 6.296875 C 7.605469 6.292969 7.496094 6.175781 7.5 6.039062 C 7.503906 5.902344 7.617188 5.792969 7.757812 5.796875 L 9.753906 5.847656 C 9.894531 5.851562 10.003906 5.964844 10 6.105469 Z M 10 6.105469 "/>
<path style=" stroke:none;fill-rule:nonzero;fill:rgb(100%,100%,100%);fill-opacity:0.160784;" d="M 8.089844 2.589844 C 8.207031 2.660156 8.246094 2.816406 8.171875 2.933594 L 7.128906 4.636719 C 7.054688 4.757812 6.902344 4.792969 6.785156 4.722656 C 6.667969 4.648438 6.628906 4.496094 6.703125 4.378906 L 7.746094 2.671875 C 7.816406 2.554688 7.972656 2.515625 8.089844 2.589844 Z M 8.089844 2.589844 "/>
<path style=" stroke:none;fill-rule:nonzero;fill:rgb(100%,100%,100%);fill-opacity:0.129412;" d="M 6.105469 2 C 6.242188 2.003906 6.351562 2.121094 6.347656 2.257812 L 6.296875 4.257812 C 6.292969 4.394531 6.175781 4.503906 6.039062 4.5 C 5.902344 4.496094 5.792969 4.382812 5.796875 4.242188 L 5.847656 2.246094 C 5.851562 2.105469 5.964844 1.996094 6.105469 2 Z M 6.105469 2 "/>
<path style=" stroke:none;fill-rule:nonzero;fill:rgb(100%,100%,100%);fill-opacity:0.0509804;" d="M 10.5 7 C 11.054688 7 11.5 7.457031 11.5 8.015625 L 11 8 C 11 7.722656 10.777344 7.5 10.5 7.5 C 10.222656 7.5 10 7.722656 10 8 L 10 9 L 11.5 9 C 11.777344 9 12 9.222656 12 9.5 L 12 11 C 12 11.277344 11.777344 11.5 11.5 11.5 L 9.5 11.5 C 9.222656 11.5 9 11.277344 9 11 L 9 9.5 C 9 9.222656 9.222656 9 9.5 9 L 9.5 8.015625 C 9.5 7.457031 9.945312 7 10.5 7 Z M 10.5 7 "/>
</g>
</svg>
