<?xml version="1.0" encoding="UTF-8"?>
<svg xmlns="http://www.w3.org/2000/svg" xmlns:xlink="http://www.w3.org/1999/xlink" width="12pt" height="12pt" viewBox="0 0 12 12" version="1.1">
<g id="surface1">
<path style=" stroke:none;fill-rule:nonzero;fill:rgb(100%,100%,100%);fill-opacity:1;" d="M 9.914062 6.832031 C 9.882812 6.964844 9.75 7.054688 9.617188 7.023438 L 7.660156 6.609375 C 7.523438 6.578125 7.4375 6.445312 7.46875 6.3125 C 7.496094 6.175781 7.628906 6.089844 7.765625 6.121094 L 9.71875 6.535156 C 9.855469 6.5625 9.941406 6.695312 9.914062 6.832031 Z M 9.914062 6.832031 "/>
<path style=" stroke:none;fill-rule:nonzero;fill:rgb(100%,100%,100%);fill-opacity:0.576471;" d="M 6.832031 2.085938 C 6.964844 2.117188 7.054688 2.25 7.023438 2.382812 L 6.609375 4.339844 C 6.578125 4.476562 6.445312 4.5625 6.3125 4.53125 C 6.175781 4.503906 6.089844 4.371094 6.121094 4.234375 L 6.535156 2.28125 C 6.5625 2.144531 6.695312 2.058594 6.832031 2.085938 Z M 6.832031 2.085938 "/>
<path style=" stroke:none;fill-rule:nonzero;fill:rgb(100%,100%,100%);fill-opacity:0.333333;" d="M 2.085938 5.167969 C 2.117188 5.035156 2.25 4.945312 2.382812 4.976562 L 4.339844 5.390625 C 4.476562 5.421875 4.5625 5.554688 4.53125 5.6875 C 4.503906 5.824219 4.371094 5.910156 4.234375 5.878906 L 2.28125 5.464844 C 2.144531 5.4375 2.058594 5.304688 2.085938 5.167969 Z M 2.085938 5.167969 "/>
<path style=" stroke:none;fill-rule:nonzero;fill:rgb(100%,100%,100%);fill-opacity:0.188235;" d="M 5.167969 9.914062 C 5.035156 9.882812 4.945312 9.75 4.976562 9.617188 L 5.390625 7.660156 C 5.421875 7.523438 5.554688 7.4375 5.6875 7.46875 C 5.824219 7.496094 5.910156 7.628906 5.878906 7.765625 L 5.464844 9.71875 C 5.4375 9.855469 5.304688 9.941406 5.167969 9.914062 Z M 5.167969 9.914062 "/>
<path style=" stroke:none;fill-rule:nonzero;fill:rgb(100%,100%,100%);fill-opacity:0.831373;" d="M 9.804688 4.765625 C 9.847656 4.894531 9.773438 5.035156 9.644531 5.078125 L 7.742188 5.695312 C 7.609375 5.738281 7.46875 5.667969 7.425781 5.535156 C 7.382812 5.40625 7.457031 5.265625 7.585938 5.222656 L 9.488281 4.601562 C 9.621094 4.5625 9.761719 4.632812 9.804688 4.765625 Z M 9.804688 4.765625 "/>
<path style=" stroke:none;fill-rule:nonzero;fill:rgb(100%,100%,100%);fill-opacity:0.694118;" d="M 8.675781 3.027344 C 8.777344 3.121094 8.789062 3.277344 8.695312 3.378906 L 7.355469 4.867188 C 7.265625 4.96875 7.105469 4.976562 7.003906 4.886719 C 6.902344 4.792969 6.894531 4.636719 6.984375 4.53125 L 8.324219 3.046875 C 8.414062 2.941406 8.574219 2.933594 8.675781 3.027344 Z M 8.675781 3.027344 "/>
<path style=" stroke:none;fill-rule:nonzero;fill:rgb(100%,100%,100%);fill-opacity:0.482353;" d="M 4.765625 2.195312 C 4.894531 2.152344 5.035156 2.226562 5.078125 2.355469 L 5.695312 4.257812 C 5.738281 4.390625 5.667969 4.53125 5.535156 4.574219 C 5.40625 4.617188 5.265625 4.542969 5.222656 4.414062 L 4.601562 2.511719 C 4.5625 2.378906 4.632812 2.238281 4.765625 2.195312 Z M 4.765625 2.195312 "/>
<path style=" stroke:none;fill-rule:nonzero;fill:rgb(100%,100%,100%);fill-opacity:0.403922;" d="M 3.027344 3.324219 C 3.121094 3.222656 3.277344 3.210938 3.378906 3.304688 L 4.867188 4.644531 C 4.96875 4.734375 4.976562 4.894531 4.886719 4.996094 C 4.792969 5.097656 4.636719 5.105469 4.53125 5.015625 L 3.046875 3.675781 C 2.941406 3.585938 2.933594 3.425781 3.027344 3.324219 Z M 3.027344 3.324219 "/>
<path style=" stroke:none;fill-rule:nonzero;fill:rgb(100%,100%,100%);fill-opacity:0.278431;" d="M 2.195312 7.234375 C 2.152344 7.105469 2.226562 6.964844 2.355469 6.921875 L 4.257812 6.304688 C 4.390625 6.261719 4.53125 6.332031 4.574219 6.464844 C 4.617188 6.59375 4.542969 6.734375 4.414062 6.777344 L 2.511719 7.398438 C 2.378906 7.4375 2.238281 7.367188 2.195312 7.234375 Z M 2.195312 7.234375 "/>
<path style=" stroke:none;fill-rule:nonzero;fill:rgb(100%,100%,100%);fill-opacity:0.231373;" d="M 3.324219 8.972656 C 3.222656 8.878906 3.210938 8.722656 3.304688 8.621094 L 4.644531 7.132812 C 4.734375 7.03125 4.894531 7.023438 4.996094 7.113281 C 5.097656 7.207031 5.105469 7.363281 5.015625 7.46875 L 3.675781 8.953125 C 3.585938 9.058594 3.425781 9.066406 3.324219 8.972656 Z M 3.324219 8.972656 "/>
<path style=" stroke:none;fill-rule:nonzero;fill:rgb(100%,100%,100%);fill-opacity:0.160784;" d="M 7.234375 9.804688 C 7.105469 9.847656 6.964844 9.773438 6.921875 9.644531 L 6.304688 7.742188 C 6.261719 7.609375 6.332031 7.46875 6.464844 7.425781 C 6.59375 7.382812 6.734375 7.457031 6.777344 7.585938 L 7.398438 9.488281 C 7.4375 9.621094 7.367188 9.761719 7.234375 9.804688 Z M 7.234375 9.804688 "/>
<path style=" stroke:none;fill-rule:nonzero;fill:rgb(100%,100%,100%);fill-opacity:0.129412;" d="M 8.972656 8.675781 C 8.878906 8.777344 8.722656 8.789062 8.621094 8.695312 L 7.132812 7.355469 C 7.03125 7.265625 7.023438 7.105469 7.113281 7.003906 C 7.207031 6.902344 7.363281 6.894531 7.46875 6.984375 L 8.953125 8.324219 C 9.058594 8.414062 9.066406 8.574219 8.972656 8.675781 Z M 8.972656 8.675781 "/>
<path style=" stroke:none;fill-rule:nonzero;fill:rgb(100%,100%,100%);fill-opacity:0.298039;" d="M 10.5 7 C 11.054688 7 11.5 7.457031 11.5 8.015625 L 11 8 C 11 7.722656 10.777344 7.5 10.5 7.5 C 10.222656 7.5 10 7.722656 10 8 L 10 9 L 11.5 9 C 11.777344 9 12 9.222656 12 9.5 L 12 11 C 12 11.277344 11.777344 11.5 11.5 11.5 L 9.5 11.5 C 9.222656 11.5 9 11.277344 9 11 L 9 9.5 C 9 9.222656 9.222656 9 9.5 9 L 9.5 8.015625 C 9.5 7.457031 9.945312 7 10.5 7 Z M 10.5 7 "/>
</g>
</svg>
