<?xml version="1.0" encoding="UTF-8"?>
<svg xmlns="http://www.w3.org/2000/svg" xmlns:xlink="http://www.w3.org/1999/xlink" width="12pt" height="12pt" viewBox="0 0 12 12" version="1.1">
<g id="surface1">
<path style=" stroke:none;fill-rule:nonzero;fill:rgb(100%,100%,100%);fill-opacity:1;" d="M 2.890625 3.484375 C 2.976562 3.375 3.136719 3.359375 3.242188 3.445312 L 4.796875 4.703125 C 4.90625 4.792969 4.921875 4.949219 4.835938 5.054688 C 4.746094 5.164062 4.589844 5.179688 4.484375 5.09375 L 2.929688 3.835938 C 2.820312 3.746094 2.804688 3.589844 2.890625 3.484375 Z M 2.890625 3.484375 "/>
<path style=" stroke:none;fill-rule:nonzero;fill:rgb(100%,100%,100%);fill-opacity:0.576471;" d="M 3.484375 9.109375 C 3.375 9.023438 3.359375 8.863281 3.445312 8.757812 L 4.703125 7.203125 C 4.792969 7.09375 4.949219 7.078125 5.054688 7.164062 C 5.164062 7.253906 5.179688 7.410156 5.09375 7.515625 L 3.835938 9.070312 C 3.746094 9.179688 3.589844 9.195312 3.484375 9.109375 Z M 3.484375 9.109375 "/>
<path style=" stroke:none;fill-rule:nonzero;fill:rgb(100%,100%,100%);fill-opacity:0.333333;" d="M 9.109375 8.515625 C 9.023438 8.625 8.863281 8.640625 8.757812 8.554688 L 7.203125 7.296875 C 7.09375 7.207031 7.078125 7.050781 7.164062 6.945312 C 7.253906 6.835938 7.410156 6.820312 7.515625 6.90625 L 9.070312 8.164062 C 9.179688 8.253906 9.195312 8.410156 9.109375 8.515625 Z M 9.109375 8.515625 "/>
<path style=" stroke:none;fill-rule:nonzero;fill:rgb(100%,100%,100%);fill-opacity:0.188235;" d="M 8.515625 2.890625 C 8.625 2.976562 8.640625 3.136719 8.554688 3.242188 L 7.296875 4.796875 C 7.207031 4.90625 7.050781 4.921875 6.945312 4.835938 C 6.835938 4.746094 6.820312 4.589844 6.90625 4.484375 L 8.164062 2.929688 C 8.253906 2.820312 8.410156 2.804688 8.515625 2.890625 Z M 8.515625 2.890625 "/>
<path style=" stroke:none;fill-rule:nonzero;fill:rgb(100%,100%,100%);fill-opacity:0.831373;" d="M 2.050781 5.375 C 2.070312 5.238281 2.199219 5.144531 2.335938 5.167969 L 4.3125 5.480469 C 4.445312 5.5 4.539062 5.628906 4.519531 5.765625 C 4.496094 5.902344 4.367188 5.996094 4.234375 5.972656 L 2.257812 5.660156 C 2.121094 5.640625 2.027344 5.511719 2.050781 5.375 Z M 2.050781 5.375 "/>
<path style=" stroke:none;fill-rule:nonzero;fill:rgb(100%,100%,100%);fill-opacity:0.694118;" d="M 2.265625 7.433594 C 2.214844 7.304688 2.28125 7.160156 2.410156 7.109375 L 4.277344 6.394531 C 4.40625 6.34375 4.550781 6.410156 4.601562 6.539062 C 4.648438 6.667969 4.585938 6.8125 4.457031 6.859375 L 2.589844 7.578125 C 2.460938 7.625 2.316406 7.5625 2.265625 7.433594 Z M 2.265625 7.433594 "/>
<path style=" stroke:none;fill-rule:nonzero;fill:rgb(100%,100%,100%);fill-opacity:0.482353;" d="M 5.375 9.949219 C 5.238281 9.929688 5.144531 9.800781 5.167969 9.664062 L 5.480469 7.6875 C 5.5 7.554688 5.628906 7.460938 5.765625 7.480469 C 5.902344 7.503906 5.996094 7.632812 5.972656 7.765625 L 5.660156 9.742188 C 5.640625 9.878906 5.511719 9.972656 5.375 9.949219 Z M 5.375 9.949219 "/>
<path style=" stroke:none;fill-rule:nonzero;fill:rgb(100%,100%,100%);fill-opacity:0.403922;" d="M 7.433594 9.734375 C 7.304688 9.785156 7.160156 9.71875 7.109375 9.589844 L 6.394531 7.722656 C 6.34375 7.59375 6.410156 7.449219 6.539062 7.398438 C 6.667969 7.351562 6.8125 7.414062 6.859375 7.542969 L 7.578125 9.410156 C 7.625 9.539062 7.5625 9.683594 7.433594 9.734375 Z M 7.433594 9.734375 "/>
<path style=" stroke:none;fill-rule:nonzero;fill:rgb(100%,100%,100%);fill-opacity:0.278431;" d="M 9.949219 6.625 C 9.929688 6.761719 9.800781 6.855469 9.664062 6.832031 L 7.6875 6.519531 C 7.554688 6.5 7.460938 6.371094 7.480469 6.234375 C 7.503906 6.097656 7.632812 6.003906 7.765625 6.027344 L 9.742188 6.339844 C 9.878906 6.359375 9.972656 6.488281 9.949219 6.625 Z M 9.949219 6.625 "/>
<path style=" stroke:none;fill-rule:nonzero;fill:rgb(100%,100%,100%);fill-opacity:0.231373;" d="M 9.734375 4.566406 C 9.785156 4.695312 9.71875 4.839844 9.589844 4.890625 L 7.722656 5.605469 C 7.59375 5.65625 7.449219 5.589844 7.398438 5.460938 C 7.351562 5.332031 7.414062 5.1875 7.542969 5.140625 L 9.410156 4.421875 C 9.539062 4.375 9.683594 4.4375 9.734375 4.566406 Z M 9.734375 4.566406 "/>
<path style=" stroke:none;fill-rule:nonzero;fill:rgb(100%,100%,100%);fill-opacity:0.160784;" d="M 6.625 2.050781 C 6.761719 2.070312 6.855469 2.199219 6.832031 2.335938 L 6.519531 4.3125 C 6.5 4.445312 6.371094 4.539062 6.234375 4.519531 C 6.097656 4.496094 6.003906 4.367188 6.027344 4.234375 L 6.339844 2.257812 C 6.359375 2.121094 6.488281 2.027344 6.625 2.050781 Z M 6.625 2.050781 "/>
<path style=" stroke:none;fill-rule:nonzero;fill:rgb(100%,100%,100%);fill-opacity:0.129412;" d="M 4.566406 2.265625 C 4.695312 2.214844 4.839844 2.28125 4.890625 2.410156 L 5.605469 4.277344 C 5.65625 4.40625 5.589844 4.550781 5.460938 4.601562 C 5.332031 4.648438 5.1875 4.585938 5.140625 4.457031 L 4.421875 2.589844 C 4.375 2.460938 4.4375 2.316406 4.566406 2.265625 Z M 4.566406 2.265625 "/>
<path style=" stroke:none;fill-rule:nonzero;fill:rgb(100%,100%,100%);fill-opacity:0.101961;" d="M 10.5 7 C 11.054688 7 11.5 7.457031 11.5 8.015625 L 11 8 C 11 7.722656 10.777344 7.5 10.5 7.5 C 10.222656 7.5 10 7.722656 10 8 L 10 9 L 11.5 9 C 11.777344 9 12 9.222656 12 9.5 L 12 11 C 12 11.277344 11.777344 11.5 11.5 11.5 L 9.5 11.5 C 9.222656 11.5 9 11.277344 9 11 L 9 9.5 C 9 9.222656 9.222656 9 9.5 9 L 9.5 8.015625 C 9.5 7.457031 9.945312 7 10.5 7 Z M 10.5 7 "/>
</g>
</svg>
