<?xml version="1.0" encoding="UTF-8"?>
<svg xmlns="http://www.w3.org/2000/svg" xmlns:xlink="http://www.w3.org/1999/xlink" width="12pt" height="12pt" viewBox="0 0 12 12" version="1.1">
<g id="surface1">
<path style=" stroke:none;fill-rule:nonzero;fill:rgb(100%,100%,100%);fill-opacity:1;" d="M 9.890625 5.066406 C 9.921875 5.199219 9.839844 5.335938 9.703125 5.367188 L 7.761719 5.835938 C 7.625 5.867188 7.492188 5.785156 7.457031 5.648438 C 7.425781 5.515625 7.507812 5.378906 7.644531 5.347656 L 9.589844 4.882812 C 9.722656 4.847656 9.855469 4.933594 9.890625 5.066406 Z M 9.890625 5.066406 "/>
<path style=" stroke:none;fill-rule:nonzero;fill:rgb(100%,100%,100%);fill-opacity:0.576471;" d="M 5.066406 2.109375 C 5.199219 2.078125 5.335938 2.160156 5.367188 2.296875 L 5.835938 4.238281 C 5.867188 4.375 5.785156 4.507812 5.648438 4.542969 C 5.515625 4.574219 5.378906 4.492188 5.347656 4.355469 L 4.882812 2.410156 C 4.847656 2.277344 4.933594 2.144531 5.066406 2.109375 Z M 5.066406 2.109375 "/>
<path style=" stroke:none;fill-rule:nonzero;fill:rgb(100%,100%,100%);fill-opacity:0.333333;" d="M 2.109375 6.933594 C 2.078125 6.800781 2.160156 6.664062 2.296875 6.632812 L 4.238281 6.164062 C 4.375 6.132812 4.507812 6.214844 4.542969 6.351562 C 4.574219 6.484375 4.492188 6.621094 4.355469 6.652344 L 2.410156 7.117188 C 2.277344 7.152344 2.144531 7.066406 2.109375 6.933594 Z M 2.109375 6.933594 "/>
<path style=" stroke:none;fill-rule:nonzero;fill:rgb(100%,100%,100%);fill-opacity:0.188235;" d="M 6.933594 9.890625 C 6.800781 9.921875 6.664062 9.839844 6.632812 9.703125 L 6.164062 7.761719 C 6.132812 7.625 6.214844 7.492188 6.351562 7.457031 C 6.484375 7.425781 6.621094 7.507812 6.652344 7.644531 L 7.117188 9.589844 C 7.152344 9.722656 7.066406 9.855469 6.933594 9.890625 Z M 6.933594 9.890625 "/>
<path style=" stroke:none;fill-rule:nonzero;fill:rgb(100%,100%,100%);fill-opacity:0.831373;" d="M 8.902344 3.246094 C 8.996094 3.347656 8.992188 3.503906 8.890625 3.601562 L 7.441406 4.976562 C 7.339844 5.070312 7.183594 5.066406 7.089844 4.96875 C 6.992188 4.867188 6.996094 4.710938 7.097656 4.613281 L 8.546875 3.238281 C 8.648438 3.140625 8.804688 3.144531 8.902344 3.246094 Z M 8.902344 3.246094 "/>
<path style=" stroke:none;fill-rule:nonzero;fill:rgb(100%,100%,100%);fill-opacity:0.694118;" d="M 7.136719 2.164062 C 7.269531 2.203125 7.34375 2.34375 7.304688 2.476562 L 6.738281 4.394531 C 6.699219 4.527344 6.558594 4.601562 6.425781 4.5625 C 6.292969 4.523438 6.21875 4.382812 6.257812 4.25 L 6.824219 2.332031 C 6.863281 2.199219 7.003906 2.125 7.136719 2.164062 Z M 7.136719 2.164062 "/>
<path style=" stroke:none;fill-rule:nonzero;fill:rgb(100%,100%,100%);fill-opacity:0.482353;" d="M 3.246094 3.097656 C 3.347656 3.003906 3.503906 3.007812 3.601562 3.109375 L 4.976562 4.558594 C 5.070312 4.660156 5.066406 4.816406 4.96875 4.910156 C 4.867188 5.007812 4.710938 5.003906 4.613281 4.902344 L 3.238281 3.453125 C 3.140625 3.351562 3.144531 3.195312 3.246094 3.097656 Z M 3.246094 3.097656 "/>
<path style=" stroke:none;fill-rule:nonzero;fill:rgb(100%,100%,100%);fill-opacity:0.403922;" d="M 2.164062 4.863281 C 2.203125 4.730469 2.34375 4.65625 2.476562 4.695312 L 4.394531 5.261719 C 4.527344 5.300781 4.601562 5.441406 4.5625 5.574219 C 4.523438 5.707031 4.382812 5.78125 4.25 5.742188 L 2.332031 5.175781 C 2.199219 5.136719 2.125 4.996094 2.164062 4.863281 Z M 2.164062 4.863281 "/>
<path style=" stroke:none;fill-rule:nonzero;fill:rgb(100%,100%,100%);fill-opacity:0.278431;" d="M 3.097656 8.753906 C 3.003906 8.652344 3.007812 8.496094 3.109375 8.398438 L 4.558594 7.023438 C 4.660156 6.929688 4.816406 6.933594 4.910156 7.03125 C 5.007812 7.132812 5.003906 7.289062 4.902344 7.386719 L 3.453125 8.761719 C 3.351562 8.859375 3.195312 8.855469 3.097656 8.753906 Z M 3.097656 8.753906 "/>
<path style=" stroke:none;fill-rule:nonzero;fill:rgb(100%,100%,100%);fill-opacity:0.231373;" d="M 4.863281 9.835938 C 4.730469 9.796875 4.65625 9.65625 4.695312 9.523438 L 5.261719 7.605469 C 5.300781 7.472656 5.441406 7.398438 5.574219 7.4375 C 5.707031 7.476562 5.78125 7.617188 5.742188 7.75 L 5.175781 9.667969 C 5.136719 9.800781 4.996094 9.875 4.863281 9.835938 Z M 4.863281 9.835938 "/>
<path style=" stroke:none;fill-rule:nonzero;fill:rgb(100%,100%,100%);fill-opacity:0.160784;" d="M 8.753906 8.902344 C 8.652344 8.996094 8.496094 8.992188 8.398438 8.890625 L 7.023438 7.441406 C 6.929688 7.339844 6.933594 7.183594 7.03125 7.089844 C 7.132812 6.992188 7.289062 6.996094 7.386719 7.097656 L 8.761719 8.546875 C 8.859375 8.648438 8.855469 8.804688 8.753906 8.902344 Z M 8.753906 8.902344 "/>
<path style=" stroke:none;fill-rule:nonzero;fill:rgb(100%,100%,100%);fill-opacity:0.129412;" d="M 9.835938 7.136719 C 9.796875 7.269531 9.65625 7.34375 9.523438 7.304688 L 7.605469 6.738281 C 7.472656 6.699219 7.398438 6.558594 7.4375 6.425781 C 7.476562 6.292969 7.617188 6.21875 7.75 6.257812 L 9.667969 6.824219 C 9.800781 6.863281 9.875 7.003906 9.835938 7.136719 Z M 9.835938 7.136719 "/>
<path style=" stroke:none;fill-rule:nonzero;fill:rgb(100%,100%,100%);fill-opacity:0.25098;" d="M 10.5 7 C 11.054688 7 11.5 7.457031 11.5 8.015625 L 11 8 C 11 7.722656 10.777344 7.5 10.5 7.5 C 10.222656 7.5 10 7.722656 10 8 L 10 9 L 11.5 9 C 11.777344 9 12 9.222656 12 9.5 L 12 11 C 12 11.277344 11.777344 11.5 11.5 11.5 L 9.5 11.5 C 9.222656 11.5 9 11.277344 9 11 L 9 9.5 C 9 9.222656 9.222656 9 9.5 9 L 9.5 8.015625 C 9.5 7.457031 9.945312 7 10.5 7 Z M 10.5 7 "/>
</g>
</svg>
