<?xml version="1.0" encoding="UTF-8"?>
<svg xmlns="http://www.w3.org/2000/svg" xmlns:xlink="http://www.w3.org/1999/xlink" width="12pt" height="12pt" viewBox="0 0 12 12" version="1.1">
<g id="surface1">
<path style=" stroke:none;fill-rule:nonzero;fill:rgb(100%,100%,100%);fill-opacity:1;" d="M 9.042969 3.402344 C 9.132812 3.507812 9.117188 3.664062 9.015625 3.753906 L 7.492188 5.054688 C 7.386719 5.144531 7.230469 5.128906 7.140625 5.027344 C 7.050781 4.921875 7.0625 4.761719 7.167969 4.671875 L 8.6875 3.375 C 8.792969 3.285156 8.953125 3.296875 9.042969 3.402344 Z M 9.042969 3.402344 "/>
<path style=" stroke:none;fill-rule:nonzero;fill:rgb(100%,100%,100%);fill-opacity:0.576471;" d="M 3.402344 2.957031 C 3.507812 2.867188 3.664062 2.882812 3.753906 2.984375 L 5.054688 4.507812 C 5.144531 4.613281 5.128906 4.769531 5.027344 4.859375 C 4.921875 4.949219 4.761719 4.9375 4.671875 4.832031 L 3.375 3.3125 C 3.285156 3.207031 3.296875 3.046875 3.402344 2.957031 Z M 3.402344 2.957031 "/>
<path style=" stroke:none;fill-rule:nonzero;fill:rgb(100%,100%,100%);fill-opacity:0.333333;" d="M 2.957031 8.597656 C 2.867188 8.492188 2.882812 8.335938 2.984375 8.246094 L 4.507812 6.945312 C 4.613281 6.855469 4.769531 6.871094 4.859375 6.972656 C 4.949219 7.078125 4.9375 7.238281 4.832031 7.328125 L 3.3125 8.625 C 3.207031 8.714844 3.046875 8.703125 2.957031 8.597656 Z M 2.957031 8.597656 "/>
<path style=" stroke:none;fill-rule:nonzero;fill:rgb(100%,100%,100%);fill-opacity:0.188235;" d="M 8.597656 9.042969 C 8.492188 9.132812 8.335938 9.117188 8.246094 9.015625 L 6.945312 7.492188 C 6.855469 7.386719 6.871094 7.230469 6.972656 7.140625 C 7.078125 7.050781 7.238281 7.0625 7.328125 7.167969 L 8.625 8.6875 C 8.714844 8.792969 8.703125 8.953125 8.597656 9.042969 Z M 8.597656 9.042969 "/>
<path style=" stroke:none;fill-rule:nonzero;fill:rgb(100%,100%,100%);fill-opacity:0.831373;" d="M 7.335938 2.230469 C 7.464844 2.277344 7.535156 2.417969 7.488281 2.546875 L 6.820312 4.433594 C 6.773438 4.5625 6.632812 4.632812 6.5 4.585938 C 6.371094 4.539062 6.300781 4.398438 6.347656 4.265625 L 7.015625 2.382812 C 7.0625 2.25 7.203125 2.183594 7.335938 2.230469 Z M 7.335938 2.230469 "/>
<path style=" stroke:none;fill-rule:nonzero;fill:rgb(100%,100%,100%);fill-opacity:0.694118;" d="M 5.269531 2.066406 C 5.40625 2.042969 5.539062 2.132812 5.5625 2.265625 L 5.925781 4.234375 C 5.953125 4.371094 5.863281 4.5 5.726562 4.523438 C 5.589844 4.550781 5.460938 4.460938 5.433594 4.324219 L 5.070312 2.359375 C 5.046875 2.222656 5.136719 2.09375 5.269531 2.066406 Z M 5.269531 2.066406 "/>
<path style=" stroke:none;fill-rule:nonzero;fill:rgb(100%,100%,100%);fill-opacity:0.482353;" d="M 2.230469 4.664062 C 2.277344 4.535156 2.417969 4.464844 2.546875 4.511719 L 4.433594 5.179688 C 4.5625 5.226562 4.632812 5.367188 4.585938 5.5 C 4.539062 5.628906 4.398438 5.699219 4.265625 5.652344 L 2.382812 4.984375 C 2.25 4.9375 2.183594 4.796875 2.230469 4.664062 Z M 2.230469 4.664062 "/>
<path style=" stroke:none;fill-rule:nonzero;fill:rgb(100%,100%,100%);fill-opacity:0.403922;" d="M 2.066406 6.730469 C 2.042969 6.59375 2.132812 6.460938 2.265625 6.4375 L 4.234375 6.074219 C 4.371094 6.046875 4.5 6.136719 4.523438 6.273438 C 4.550781 6.410156 4.460938 6.539062 4.324219 6.566406 L 2.359375 6.929688 C 2.222656 6.953125 2.09375 6.863281 2.066406 6.730469 Z M 2.066406 6.730469 "/>
<path style=" stroke:none;fill-rule:nonzero;fill:rgb(100%,100%,100%);fill-opacity:0.278431;" d="M 4.664062 9.769531 C 4.535156 9.722656 4.464844 9.582031 4.511719 9.453125 L 5.179688 7.566406 C 5.226562 7.4375 5.367188 7.367188 5.5 7.414062 C 5.628906 7.460938 5.699219 7.601562 5.652344 7.734375 L 4.984375 9.617188 C 4.9375 9.75 4.796875 9.816406 4.664062 9.769531 Z M 4.664062 9.769531 "/>
<path style=" stroke:none;fill-rule:nonzero;fill:rgb(100%,100%,100%);fill-opacity:0.231373;" d="M 6.730469 9.933594 C 6.59375 9.957031 6.460938 9.867188 6.4375 9.734375 L 6.074219 7.765625 C 6.046875 7.628906 6.136719 7.5 6.273438 7.476562 C 6.410156 7.449219 6.539062 7.539062 6.566406 7.675781 L 6.929688 9.640625 C 6.953125 9.777344 6.863281 9.90625 6.730469 9.933594 Z M 6.730469 9.933594 "/>
<path style=" stroke:none;fill-rule:nonzero;fill:rgb(100%,100%,100%);fill-opacity:0.160784;" d="M 9.769531 7.335938 C 9.722656 7.464844 9.582031 7.535156 9.453125 7.488281 L 7.566406 6.820312 C 7.4375 6.773438 7.367188 6.632812 7.414062 6.5 C 7.460938 6.371094 7.601562 6.300781 7.734375 6.347656 L 9.617188 7.015625 C 9.75 7.0625 9.816406 7.203125 9.769531 7.335938 Z M 9.769531 7.335938 "/>
<path style=" stroke:none;fill-rule:nonzero;fill:rgb(100%,100%,100%);fill-opacity:0.129412;" d="M 9.933594 5.269531 C 9.957031 5.40625 9.867188 5.539062 9.734375 5.5625 L 7.765625 5.925781 C 7.628906 5.953125 7.5 5.863281 7.476562 5.726562 C 7.449219 5.589844 7.539062 5.460938 7.675781 5.433594 L 9.640625 5.070312 C 9.777344 5.046875 9.90625 5.136719 9.933594 5.269531 Z M 9.933594 5.269531 "/>
<path style=" stroke:none;fill-rule:nonzero;fill:rgb(100%,100%,100%);fill-opacity:0.2;" d="M 10.5 7 C 11.054688 7 11.5 7.457031 11.5 8.015625 L 11 8 C 11 7.722656 10.777344 7.5 10.5 7.5 C 10.222656 7.5 10 7.722656 10 8 L 10 9 L 11.5 9 C 11.777344 9 12 9.222656 12 9.5 L 12 11 C 12 11.277344 11.777344 11.5 11.5 11.5 L 9.5 11.5 C 9.222656 11.5 9 11.277344 9 11 L 9 9.5 C 9 9.222656 9.222656 9 9.5 9 L 9.5 8.015625 C 9.5 7.457031 9.945312 7 10.5 7 Z M 10.5 7 "/>
</g>
</svg>
