<?xml version="1.0" encoding="UTF-8"?>
<svg xmlns="http://www.w3.org/2000/svg" xmlns:xlink="http://www.w3.org/1999/xlink" width="12pt" height="12pt" viewBox="0 0 12 12" version="1.1">
<g id="surface1">
<path style=" stroke:none;fill-rule:nonzero;fill:rgb(100%,100%,100%);fill-opacity:1;" d="M 7.816406 9.5625 C 7.691406 9.625 7.542969 9.578125 7.480469 9.453125 L 6.570312 7.671875 C 6.507812 7.550781 6.558594 7.398438 6.679688 7.335938 C 6.804688 7.273438 6.953125 7.324219 7.015625 7.445312 L 7.925781 9.226562 C 7.988281 9.351562 7.9375 9.5 7.816406 9.5625 Z M 7.816406 9.5625 "/>
<path style=" stroke:none;fill-rule:nonzero;fill:rgb(100%,100%,100%);fill-opacity:0.576471;" d="M 9.5625 4.183594 C 9.625 4.308594 9.578125 4.457031 9.453125 4.519531 L 7.671875 5.429688 C 7.550781 5.492188 7.398438 5.441406 7.335938 5.320312 C 7.273438 5.195312 7.324219 5.046875 7.445312 4.984375 L 9.226562 4.074219 C 9.351562 4.011719 9.5 4.0625 9.5625 4.183594 Z M 9.5625 4.183594 "/>
<path style=" stroke:none;fill-rule:nonzero;fill:rgb(100%,100%,100%);fill-opacity:0.333333;" d="M 4.183594 2.4375 C 4.308594 2.375 4.457031 2.421875 4.519531 2.546875 L 5.429688 4.328125 C 5.492188 4.449219 5.441406 4.601562 5.320312 4.664062 C 5.195312 4.726562 5.046875 4.675781 4.984375 4.554688 L 4.074219 2.773438 C 4.011719 2.648438 4.0625 2.5 4.183594 2.4375 Z M 4.183594 2.4375 "/>
<path style=" stroke:none;fill-rule:nonzero;fill:rgb(100%,100%,100%);fill-opacity:0.188235;" d="M 2.4375 7.816406 C 2.375 7.691406 2.421875 7.542969 2.546875 7.480469 L 4.328125 6.570312 C 4.449219 6.507812 4.601562 6.558594 4.664062 6.679688 C 4.726562 6.804688 4.675781 6.953125 4.554688 7.015625 L 2.773438 7.925781 C 2.648438 7.988281 2.5 7.9375 2.4375 7.816406 Z M 2.4375 7.816406 "/>
<path style=" stroke:none;fill-rule:nonzero;fill:rgb(100%,100%,100%);fill-opacity:0.831373;" d="M 9.355469 8.179688 C 9.28125 8.292969 9.125 8.328125 9.007812 8.253906 L 7.332031 7.164062 C 7.214844 7.085938 7.183594 6.933594 7.257812 6.816406 C 7.332031 6.699219 7.488281 6.667969 7.605469 6.742188 L 9.28125 7.832031 C 9.398438 7.90625 9.429688 8.0625 9.355469 8.179688 Z M 9.355469 8.179688 "/>
<path style=" stroke:none;fill-rule:nonzero;fill:rgb(100%,100%,100%);fill-opacity:0.694118;" d="M 9.996094 6.210938 C 9.988281 6.347656 9.871094 6.453125 9.730469 6.445312 L 7.734375 6.339844 C 7.597656 6.335938 7.492188 6.214844 7.496094 6.078125 C 7.503906 5.941406 7.621094 5.835938 7.761719 5.84375 L 9.757812 5.945312 C 9.894531 5.953125 10 6.070312 9.996094 6.210938 Z M 9.996094 6.210938 "/>
<path style=" stroke:none;fill-rule:nonzero;fill:rgb(100%,100%,100%);fill-opacity:0.482353;" d="M 8.179688 2.644531 C 8.292969 2.71875 8.328125 2.875 8.253906 2.992188 L 7.164062 4.667969 C 7.085938 4.785156 6.933594 4.816406 6.816406 4.742188 C 6.699219 4.667969 6.667969 4.511719 6.742188 4.394531 L 7.832031 2.71875 C 7.90625 2.601562 8.0625 2.570312 8.179688 2.644531 Z M 8.179688 2.644531 "/>
<path style=" stroke:none;fill-rule:nonzero;fill:rgb(100%,100%,100%);fill-opacity:0.403922;" d="M 6.210938 2.003906 C 6.347656 2.011719 6.453125 2.128906 6.445312 2.269531 L 6.339844 4.265625 C 6.335938 4.402344 6.214844 4.507812 6.078125 4.503906 C 5.941406 4.496094 5.835938 4.378906 5.84375 4.238281 L 5.945312 2.242188 C 5.953125 2.105469 6.070312 2 6.210938 2.003906 Z M 6.210938 2.003906 "/>
<path style=" stroke:none;fill-rule:nonzero;fill:rgb(100%,100%,100%);fill-opacity:0.278431;" d="M 2.644531 3.820312 C 2.71875 3.707031 2.875 3.671875 2.992188 3.746094 L 4.667969 4.835938 C 4.785156 4.914062 4.816406 5.066406 4.742188 5.183594 C 4.667969 5.300781 4.511719 5.332031 4.394531 5.257812 L 2.71875 4.167969 C 2.601562 4.09375 2.570312 3.9375 2.644531 3.820312 Z M 2.644531 3.820312 "/>
<path style=" stroke:none;fill-rule:nonzero;fill:rgb(100%,100%,100%);fill-opacity:0.231373;" d="M 2.003906 5.789062 C 2.011719 5.652344 2.128906 5.546875 2.269531 5.554688 L 4.265625 5.660156 C 4.402344 5.664062 4.507812 5.785156 4.503906 5.921875 C 4.496094 6.058594 4.378906 6.164062 4.238281 6.15625 L 2.242188 6.054688 C 2.105469 6.046875 2 5.929688 2.003906 5.789062 Z M 2.003906 5.789062 "/>
<path style=" stroke:none;fill-rule:nonzero;fill:rgb(100%,100%,100%);fill-opacity:0.160784;" d="M 3.820312 9.355469 C 3.707031 9.28125 3.671875 9.125 3.746094 9.007812 L 4.835938 7.332031 C 4.914062 7.214844 5.066406 7.183594 5.183594 7.257812 C 5.300781 7.332031 5.332031 7.488281 5.257812 7.605469 L 4.167969 9.28125 C 4.09375 9.398438 3.9375 9.429688 3.820312 9.355469 Z M 3.820312 9.355469 "/>
<path style=" stroke:none;fill-rule:nonzero;fill:rgb(100%,100%,100%);fill-opacity:0.129412;" d="M 5.789062 9.996094 C 5.652344 9.988281 5.546875 9.871094 5.554688 9.730469 L 5.660156 7.734375 C 5.664062 7.597656 5.785156 7.492188 5.921875 7.496094 C 6.058594 7.503906 6.164062 7.621094 6.15625 7.761719 L 6.054688 9.757812 C 6.046875 9.894531 5.929688 10 5.789062 9.996094 Z M 5.789062 9.996094 "/>
<path style=" stroke:none;fill-rule:nonzero;fill:rgb(100%,100%,100%);fill-opacity:0.4;" d="M 10.5 7 C 11.054688 7 11.5 7.457031 11.5 8.015625 L 11 8 C 11 7.722656 10.777344 7.5 10.5 7.5 C 10.222656 7.5 10 7.722656 10 8 L 10 9 L 11.5 9 C 11.777344 9 12 9.222656 12 9.5 L 12 11 C 12 11.277344 11.777344 11.5 11.5 11.5 L 9.5 11.5 C 9.222656 11.5 9 11.277344 9 11 L 9 9.5 C 9 9.222656 9.222656 9 9.5 9 L 9.5 8.015625 C 9.5 7.457031 9.945312 7 10.5 7 Z M 10.5 7 "/>
</g>
</svg>
