<svg height="96" width="96" xmlns="http://www.w3.org/2000/svg" xmlns:xlink="http://www.w3.org/1999/xlink" xmlns:sodipodi="http://sodipodi.sourceforge.net/DTD/sodipodi-0.dtd" xmlns:inkscape="http://www.inkscape.org/namespaces/inkscape">
 <defs>
  <linearGradient x2="0" y1="92.54" y2="7.02" gradientUnits="userSpaceOnUse" id="ButtonShadow-0" gradientTransform="matrix(1.0059 0 0 0.99417 100 0)">
   <stop stop-color="#000000" stop-opacity="1"/>
   <stop stop-color="#000000" stop-opacity="0.588" offset="1"/>
  </linearGradient>
  <linearGradient x2="0" xlink:href="#ButtonShadow-0" y1="6.132" y2="90.24" gradientUnits="userSpaceOnUse" id="linearGradient3780" gradientTransform="matrix(1.02381 0 0 -1.0119 -1.143 98.07)"/>
  <linearGradient x2="0" xlink:href="#ButtonShadow-0" y1="6.132" y2="90.24" gradientUnits="userSpaceOnUse" id="linearGradient3721" gradientTransform="matrix(1 0 0 -1 0 97)"/>
  <radialGradient cy="90.17" r="42" gradientUnits="userSpaceOnUse" id="radialGradient3619-3" cx="48" gradientTransform="matrix(1.15731 0 0 0.99591 -7.551 0.197)">
   <stop stop-color="#ffffff" stop-opacity="1"/>
   <stop stop-color="#ffffff" stop-opacity="0" offset="1"/>
  </radialGradient>
  <linearGradient x2="0" y1="1.842" y2="20.237" gradientUnits="userSpaceOnUse" id="linearGradient3867" gradientTransform="matrix(2.77417 0 0 3.26163 2.82 13.993)">
   <stop stop-color="#f0f0f0" stop-opacity="1"/>
   <stop stop-color="#aaaaaa" stop-opacity="1" offset="1"/>
  </linearGradient>
  <rect x="6" rx="6" y="6" fill="#000000" fill-opacity="1" stroke="none" fill-rule="nonzero" height="84" id="SVGCleanerId_0" opacity="0.6" width="84"/>
 </defs>
 <path d="M 12,3.96875 C 6.4889098,3.96875 1.96875,8.4889098 1.96875,14 l 0,71 c 0,5.51109 4.5201597,10.03125 10.03125,10.03125 l 72,0 c 5.51109,0 10.03125,-4.52016 10.03125,-10.03125 l 0,-71 C 94.03125,8.4889097 89.51109,3.96875 84,3.96875 l -72,0 z M 12,6 84,6 c 3.324,0 6,2.676 6,6 l 0,72 c 0,3.324 -2.676,6 -6,6 L 12,90 C 8.676,90 6,87.324 6,84 L 6,12 C 6,8.676 8.676,6 12,6 z" display="inline" fill="url(#linearGradient3780)" fill-opacity="1" fill-rule="nonzero" stroke="none" opacity="0.08" inkscape:connector-curvature="0"/>
 <path d="M 12,4.96875 C 7.0283671,4.96875 2.96875,9.0283671 2.96875,14 l 0,71 c 0,4.971633 4.059617,9.03125 9.03125,9.03125 l 72,0 c 4.971633,0 9.03125,-4.059617 9.03125,-9.03125 l 0,-71 C 93.03125,9.028367 88.971633,4.96875 84,4.96875 l -72,0 z M 12,6 84,6 c 3.324,0 6,2.676 6,6 l 0,72 c 0,3.324 -2.676,6 -6,6 L 12,90 C 8.676,90 6,87.324 6,84 L 6,12 C 6,8.676 8.676,6 12,6 z" display="inline" fill="url(#linearGradient3780)" fill-opacity="1" fill-rule="nonzero" stroke="none" opacity="0.1" inkscape:connector-curvature="0"/>
 <path d="M 11.1875,6.03125 C 7.159982,6.4419011 4,9.8664375 4,14 l 0,71 c 0,4.409133 3.590867,8 8,8 l 72,0 c 4.409133,0 8,-3.590867 8,-8 L 92,14 C 92,9.8029382 88.741028,6.3539584 84.625,6.03125 87.657886,6.337417 90,8.88375 90,12 l 0,72 c 0,3.324 -2.676,6 -6,6 L 12,90 C 8.676,90 6,87.324 6,84 L 6,12 c 0,-3.11625 2.342114,-5.662583 5.375,-5.96875 -0.06227,0.00488 -0.12563,-0.00631 -0.1875,0 z" display="inline" fill="url(#linearGradient3780)" fill-opacity="1" fill-rule="nonzero" stroke="none" opacity="0.2" inkscape:connector-curvature="0"/>
 <path d="M 6.4375,9.75 C 5.5380109,10.927446 5,12.397277 5,14 l 0,71 c 0,3.878 3.122,7 7,7 l 72,0 c 3.878,0 7,-3.122 7,-7 L 91,14 C 91,12.397277 90.461989,10.927446 89.5625,9.75 89.841816,10.444095 90,11.203625 90,12 l 0,72 c 0,3.324 -2.676,6 -6,6 L 12,90 C 8.676,90 6,87.324 6,84 L 6,12 C 6,11.203625 6.1581836,10.444095 6.4375,9.75 z" display="inline" fill="url(#linearGradient3780)" fill-opacity="1" fill-rule="nonzero" stroke="none" opacity="0.3" inkscape:connector-curvature="0"/>
 <path d="m 6,84 0,1 c 0,3.324 2.676,6 6,6 l 72,0 c 3.324,0 6,-2.676 6,-6 l 0,-1 c 0,3.324 -2.676,6 -6,6 L 12,90 C 8.676,90 6,87.324 6,84 z" display="inline" fill="url(#linearGradient3721)" fill-opacity="1" fill-rule="nonzero" stroke="none" opacity="0.45" inkscape:connector-curvature="0"/>
 <g display="inline">
  <use xlink:href="#SVGCleanerId_0"/>
  <path d="M 12,90 C 8.676,90 6,87.324 6,84 L 6,82 6,14 6,12 c 0,-0.334721 0.04135,-0.6507 0.09375,-0.96875 0.0487,-0.295596 0.09704,-0.596915 0.1875,-0.875 C 6.29113,10.12587 6.302142,10.09265 6.3125,10.0625 6.411365,9.774729 6.5473802,9.515048 6.6875,9.25 6.8320918,8.976493 7.0031161,8.714385 7.1875,8.46875 7.3718839,8.223115 7.5612765,7.995278 7.78125,7.78125 8.221197,7.353194 8.72416,6.966724 9.28125,6.6875 9.559795,6.547888 9.8547231,6.440553 10.15625,6.34375 9.9000482,6.443972 9.6695391,6.580022 9.4375,6.71875 c -0.00741,0.0044 -0.023866,-0.0045 -0.03125,0 -0.031933,0.0193 -0.062293,0.04251 -0.09375,0.0625 -0.120395,0.0767 -0.2310226,0.163513 -0.34375,0.25 -0.1061728,0.0808 -0.2132809,0.161112 -0.3125,0.25 C 8.4783201,7.442683 8.3087904,7.626638 8.15625,7.8125 8.0486711,7.942755 7.9378561,8.077785 7.84375,8.21875 7.818661,8.25713 7.805304,8.30462 7.78125,8.34375 7.716487,8.446782 7.6510225,8.548267 7.59375,8.65625 7.4927417,8.850956 7.3880752,9.071951 7.3125,9.28125 7.30454,9.30306 7.288911,9.3218 7.28125,9.34375 7.2494249,9.4357 7.2454455,9.530581 7.21875,9.625 7.1884177,9.731618 7.1483606,9.828031 7.125,9.9375 7.0521214,10.279012 7,10.635705 7,11 l 0,2 0,68 0,2 c 0,2.781848 2.2181517,5 5,5 l 2,0 68,0 2,0 c 2.781848,0 5,-2.218152 5,-5 l 0,-2 0,-68 0,-2 C 89,10.635705 88.94788,10.279012 88.875,9.9375 88.83085,9.730607 88.78662,9.539842 88.71875,9.34375 88.71105,9.3218 88.69545,9.30306 88.6875,9.28125 88.62476,9.107511 88.549117,8.913801 88.46875,8.75 88.42717,8.6672 88.38971,8.580046 88.34375,8.5 88.28915,8.40279 88.216976,8.31165 88.15625,8.21875 88.06214,8.077785 87.951329,7.942755 87.84375,7.8125 87.700576,7.63805 87.540609,7.465502 87.375,7.3125 87.36383,7.3023 87.35502,7.29135 87.34375,7.28125 87.205364,7.155694 87.058659,7.046814 86.90625,6.9375 86.803679,6.86435 86.701932,6.784136 86.59375,6.71875 c -0.0074,-0.0045 -0.02384,0.0044 -0.03125,0 -0.232039,-0.138728 -0.462548,-0.274778 -0.71875,-0.375 0.301527,0.0968 0.596455,0.204138 0.875,0.34375 0.55709,0.279224 1.060053,0.665694 1.5,1.09375 0.219973,0.214028 0.409366,0.441865 0.59375,0.6875 0.184384,0.245635 0.355408,0.507743 0.5,0.78125 0.14012,0.265048 0.276135,0.524729 0.375,0.8125 0.01041,0.03078 0.02133,0.06274 0.03125,0.09375 0.09046,0.278085 0.1388,0.579404 0.1875,0.875 C 89.95865,11.3493 90,11.665279 90,12 l 0,2 0,68 0,2 c 0,3.324 -2.676,6 -6,6 l -72,0 z" fill="url(#radialGradient3619-3)" fill-opacity="1" fill-rule="nonzero" stroke="none" opacity="0.15" inkscape:connector-curvature="0"/>
 </g>
 <g display="inline">
  <path d="m 42,18.9375 c -4.324072,-0.105874 -8.201676,3.801866 -8.0625,8.125 -1.675111,0.520213 -2.229228,0.798245 -3.4375,-0.125 -2.84956,0.141787 -5.799076,-0.386076 -8.545602,0.518653 -3.027369,1.169351 -4.328678,4.509178 -4.016898,7.55086 0.02237,7.386559 -0.04499,14.775409 0.03411,22.16052 0.283716,3.773836 4.079908,6.365948 7.70051,5.894967 1.758572,-0.08759 3.578063,0.172944 5.300676,-0.125395 0.513248,-1.291692 2.70431,-0.22122 2.975249,0.476074 0.113216,4.565486 4.581309,8.183239 9.056629,7.649321 1.336918,0.02142 3.199394,-0.04246 4.214075,0.03125 -1.321797,0.36652 -0.849424,2.408335 -2.453371,1.84375 -2.177447,0.09084 -4.398018,-0.190097 -6.546629,0.15625 -1.733433,0.770166 -1.287939,2.970849 -1.1875,4.5 0.612798,1.941196 2.914046,1.401054 4.480438,1.46875 1.475271,0 2.950541,0 4.425812,0 0.04211,1.666657 1.830925,2.22563 3.234621,2 3.804891,-0.06055 7.62901,0.122371 11.421629,-0.09375 1.469375,-0.138979 0.952856,-2.407588 2.473425,-1.90625 2.233208,-0.09149 4.509725,0.191 6.714075,-0.15625 1.733433,-0.770166 1.287939,-2.970849 1.1875,-4.5 -0.612798,-1.941196 -2.914046,-1.401054 -4.480438,-1.46875 -1.475271,0 -2.950541,0 -4.425812,0 0.350592,-1.217011 -2.457091,-2.157556 -0.370325,-1.875 3.208715,-0.06937 6.827445,0.514609 9.428225,-1.847382 2.536317,-1.929757 3.161641,-5.221864 2.9421,-8.224469 -0.0275,-11.603494 0.05526,-23.210503 -0.04184,-34.811779 -0.342177,-4.401589 -4.697198,-7.744468 -9.025335,-7.24137 -7.665109,0 -15.330217,0 -22.995325,0 z m 14.1875,10.125 c 2.398464,0.0422 4.811278,-0.08559 7.200511,0.06598 1.00557,0.825008 0.370032,2.382352 0.549489,3.550659 0,9.106956 0,18.213911 0,27.320866 -0.315043,1.550818 -2.302937,0.730607 -3.449188,0.9375 -1.433604,0 -2.867208,0 -4.300812,0 2.627144,-2.498951 1.703268,-6.244418 1.875,-9.460877 C 58.04015,45.269726 58.10751,39.060446 58.02828,32.855053 57.881645,31.424965 57.191712,30.080533 56.1875,29.0625 z m -18.125,8 c 3.291667,0 6.583333,0 9.875,0 0,5.291667 0,10.583333 0,15.875 -3.291667,0 -6.583333,0 -9.875,0 0,-5.291667 0,-10.583333 0,-15.875 z" fill="#000000" fill-opacity="1" stroke="none" opacity="0.1" inkscape:connector-curvature="0"/>
  <path d="m 42,17.9375 c -3.898469,0 -7.0625,3.164031 -7.0625,7.0625 a 1.0704734,1.0704734 0 0 0 0.5,0.9375 l -0.9375,0 c -1.574096,0 -2.985169,0.662496 -4,1.71875 l 0,-1.71875 -6,0 c -3.067469,0 -5.5625,2.495031 -5.5625,5.5625 l 0,23 c 0,3.067469 2.495031,5.5625 5.5625,5.5625 l 6,0 0,-1.71875 c 1.014831,1.056254 2.425904,1.71875 4,1.71875 l 1,0 A 1.0704734,1.0704734 0 0 0 34.9375,61 c 0,3.898469 3.164031,7.0625 7.0625,7.0625 l 7.9375,0 0,1.875 -1.9375,0 A 1.0704734,1.0704734 0 0 0 46.9375,71 l 0,0.9375 -7.9375,0 A 1.0704734,1.0704734 0 0 0 37.9375,73 l 0,2 A 1.0704734,1.0704734 0 0 0 39,76.0625 l 7.9375,0 0,0.9375 A 1.0704734,1.0704734 0 0 0 48,78.0625 l 12,0 A 1.0704734,1.0704734 0 0 0 61.0625,77 l 0,-0.9375 7.9375,0 A 1.0704734,1.0704734 0 0 0 70.0625,75 l 0,-2 A 1.0704734,1.0704734 0 0 0 69,71.9375 l -7.9375,0 0,-0.9375 A 1.0704734,1.0704734 0 0 0 60,69.9375 l -1.9375,0 0,-1.875 7.9375,0 c 3.898469,0 7.0625,-3.164031 7.0625,-7.0625 l 0,-36 c 0,-3.898469 -3.164031,-7.0625 -7.0625,-7.0625 l -24,0 z m 10.125,8.125 10.875,0 c 1.087531,0 1.9375,0.849969 1.9375,1.9375 l 0,30 c 0,1.087531 -0.849969,1.9375 -1.9375,1.9375 l -10.875,0 c 2.76003,-0.326848 4.9375,-2.592186 4.9375,-5.4375 l 0,-23 c 0,-2.845314 -2.17747,-5.110652 -4.9375,-5.4375 z M 30.1875,28.125 c -0.742765,0.946696 -1.25,2.083434 -1.25,3.375 l 0,23 c 0,1.291566 0.507235,2.428304 1.25,3.375 -1.759153,-0.161703 -3.125,-1.567803 -3.125,-3.375 l 0,-3 0,-17 0,-3 c 0,-1.807197 1.365847,-3.213297 3.125,-3.375 z m 7.3125,5.9375 11,0 c 0.256531,0 0.4375,0.180969 0.4375,0.4375 l 0,17 c 0,0.256531 -0.180969,0.4375 -0.4375,0.4375 l -11,0 c -0.256531,0 -0.4375,-0.180969 -0.4375,-0.4375 l 0,-17 c 0,-0.256531 0.180969,-0.4375 0.4375,-0.4375 z" fill="#000000" fill-opacity="1" stroke="none" opacity="0.15" transform="matrix(1 0 0 1 0 2)"/>
  <path d="m 42,21 c -3.324,0 -6,2.676 -6,6 l 27,0 c 1.662,0 3,1.338 3,3 l 0,30 c 0,1.662 -1.338,3 -3,3 l -27,0 c 0,3.324 2.676,6 6,6 l 9,0 0,4 -3,0 0,2 -9,0 0,2 9,0 0,2 12,0 0,-2 9,0 0,-2 -9,0 0,-2 -3,0 0,-4 9,0 c 3.324,0 6,-2.676 6,-6 l 0,-36 c 0,-3.324 -2.676,-6 -6,-6 L 42,21 z M 24.5,29 C 22.007,29 20,31.007 20,33.5 l 0,23 c 0,2.493 2.007,4.5 4.5,4.5 l 6,0 C 28.007,61 26,58.993 26,56.5 l 0,-3 0,-17 0,-3 C 26,31.007 28.007,29 30.5,29 l -6,0 z m 10,0 C 32.007,29 30,31.007 30,33.5 l 0,23 c 0,2.493 2.007,4.5 4.5,4.5 l 17,0 c 2.493,0 4.5,-2.007 4.5,-4.5 l 0,-23 C 56,31.007 53.993,29 51.5,29 l -17,0 z m 3,6 11,0 c 0.831,0 1.5,0.669 1.5,1.5 l 0,17 c 0,0.831 -0.669,1.5 -1.5,1.5 l -11,0 C 36.669,55 36,54.331 36,53.5 l 0,-17 C 36,35.669 36.669,35 37.5,35 z" fill="#000000" fill-opacity="1" stroke="none" opacity="0.3" inkscape:connector-curvature="0"/>
  <text x="104" font-size="4" font-stretch="normal" font-style="normal" letter-spacing="0" font-variant="normal" y="48" font-weight="normal" text-anchor="start" line-height="125%" fill="#000000" fill-opacity="1" stroke="none" word-spacing="0" writing-mode="lr-tb" font-family="Liberation Sans"><tspan x="104" y="48">Shadow opacity : 30, 15, 10, (8)</tspan>
  </text>
  <text x="124" font-size="4" font-stretch="normal" font-style="normal" letter-spacing="0" font-variant="normal" y="32" font-weight="normal" text-anchor="start" line-height="125%" fill="#000000" fill-opacity="1" stroke="none" word-spacing="0" writing-mode="lr-tb" font-family="Liberation Sans"><tspan x="124" y="32">Bevel opacity : 30 / 10</tspan>
  </text>
  <text x="124" font-size="4" font-stretch="normal" font-style="normal" letter-spacing="0" font-variant="normal" y="8" font-weight="normal" text-anchor="start" line-height="125%" fill="#000000" fill-opacity="1" stroke="none" word-spacing="0" writing-mode="lr-tb" font-family="Liberation Sans"><tspan x="124" y="8">Bevel opacity : 75 / 15</tspan>
  </text>
  <path d="m 42,20 c -3.324,0 -6,2.676 -6,6 l 27,0 c 1.662,0 3,1.338 3,3 l 0,30 c 0,1.662 -1.338,3 -3,3 l -27,0 c 0,3.324 2.676,6 6,6 l 9,0 0,4 -3,0 0,2 -9,0 0,2 9,0 0,2 12,0 0,-2 9,0 0,-2 -9,0 0,-2 -3,0 0,-4 9,0 c 3.324,0 6,-2.676 6,-6 l 0,-36 c 0,-3.324 -2.676,-6 -6,-6 L 42,20 z M 24.5,28 C 22.007,28 20,30.007 20,32.5 l 0,23 c 0,2.493 2.007,4.5 4.5,4.5 l 6,0 C 28.007,60 26,57.993 26,55.5 l 0,-3 0,-17 0,-3 C 26,30.007 28.007,28 30.5,28 l -6,0 z m 10,0 C 32.007,28 30,30.007 30,32.5 l 0,23 c 0,2.493 2.007,4.5 4.5,4.5 l 17,0 c 2.493,0 4.5,-2.007 4.5,-4.5 l 0,-23 C 56,30.007 53.993,28 51.5,28 l -17,0 z m 3,6 11,0 c 0.831,0 1.5,0.669 1.5,1.5 l 0,17 c 0,0.831 -0.669,1.5 -1.5,1.5 l -11,0 C 36.669,54 36,53.331 36,52.5 l 0,-17 C 36,34.669 36.669,34 37.5,34 z" fill="url(#linearGradient3867)" fill-opacity="1" stroke="none" inkscape:connector-curvature="0"/>
  <path d="m 42,20 c -3.324,0 -6,2.676 -6,6 l 0.09375,0 C 36.56513,23.152831 39.015138,21 42,21 l 24,0 c 3.324,0 6,2.676 6,6 l 0,-1 c 0,-3.324 -2.676,-6 -6,-6 L 42,20 z M 24.5,28 C 22.007,28 20,30.007 20,32.5 l 0,1 C 20,31.007 22.007,29 24.5,29 l 3.1875,0 c 0.769484,-0.615373 1.746145,-1 2.8125,-1 l -6,0 z m 10,0 C 32.007,28 30,30.007 30,32.5 l 0,1 C 30,31.007 32.007,29 34.5,29 l 17,0 c 2.493,0 4.5,2.007 4.5,4.5 l 0,-1 C 56,30.007 53.993,28 51.5,28 l -17,0 z m 1.5,24.5 0,1 c 0,0.831 0.669,1.5 1.5,1.5 l 11,0 c 0.831,0 1.5,-0.669 1.5,-1.5 l 0,-1 c 0,0.831 -0.669,1.5 -1.5,1.5 l -11,0 C 36.669,54 36,53.331 36,52.5 z m -10,3 0,1 c 0,1.426645 0.658031,2.67671 1.6875,3.5 L 30.5,60 C 28.007,60 26,57.993 26,55.5 z M 66,59 c 0,1.662 -1.338,3 -3,3 l -27,0 c 0,0.339138 0.04019,0.676507 0.09375,1 L 63,63 c 1.662,0 3,-1.338 3,-3 l 0,-1 z m -18,13 0,1 3,0 0,-1 -3,0 z m 9,0 0,1 3,0 0,-1 -3,0 z m -18,2 0,1 9,0 0,-1 -9,0 z m 21,0 0,1 9,0 0,-1 -9,0 z" fill="#ffffff" fill-opacity="1" stroke="none" opacity="0.75" inkscape:connector-curvature="0"/>
  <path d="M 36.09375,25 C 36.040192,25.323493 36,25.660862 36,26 l 27,0 c 1.662,0 3,1.338 3,3 l 0,-1 c 0,-1.662 -1.338,-3 -3,-3 L 36.09375,25 z M 27.6875,28 C 26.658031,28.82329 26,30.073355 26,31.5 l 0,1 C 26,30.007 28.007,28 30.5,28 l -2.8125,0 z M 37.5,33 C 36.669,33 36,33.669 36,34.5 l 0,1 C 36,34.669 36.669,34 37.5,34 l 11,0 c 0.831,0 1.5,0.669 1.5,1.5 l 0,-1 C 50,33.669 49.331,33 48.5,33 l -11,0 z M 20,54.5 l 0,1 c 0,2.493 2.007,4.5 4.5,4.5 l 6,0 c -1.066355,0 -2.043016,-0.384627 -2.8125,-1 L 24.5,59 C 22.007,59 20,56.993 20,54.5 z m 10,0 0,1 c 0,2.493 2.007,4.5 4.5,4.5 l 17,0 c 2.493,0 4.5,-2.007 4.5,-4.5 l 0,-1 c 0,2.493 -2.007,4.5 -4.5,4.5 l -17,0 C 32.007,59 30,56.993 30,54.5 z M 72,61 c 0,3.324 -2.676,6 -6,6 l -9,0 0,1 9,0 c 3.324,0 6,-2.676 6,-6 l 0,-1 z m -36,1 c 0,3.324 2.676,6 6,6 l 9,0 0,-1 -9,0 c -2.984862,0 -5.43487,-2.152831 -5.90625,-5 L 36,62 z m 3,13 0,1 9,0 0,-1 -9,0 z m 21,0 0,1 9,0 0,-1 -9,0 z m -12,2 0,1 12,0 0,-1 -12,0 z" fill="#000000" fill-opacity="1" stroke="none" opacity="0.15" inkscape:connector-curvature="0"/>
 </g>
</svg>
