<?xml version="1.0" encoding="UTF-8" standalone="no"?>
<svg
   xmlns:dc="http://purl.org/dc/elements/1.1/"
   xmlns:cc="http://creativecommons.org/ns#"
   xmlns:rdf="http://www.w3.org/1999/02/22-rdf-syntax-ns#"
   xmlns:svg="http://www.w3.org/2000/svg"
   xmlns="http://www.w3.org/2000/svg"
   xmlns:xlink="http://www.w3.org/1999/xlink"
   xmlns:sodipodi="http://sodipodi.sourceforge.net/DTD/sodipodi-0.dtd"
   xmlns:inkscape="http://www.inkscape.org/namespaces/inkscape"
   height="96"
   width="96"
   id="svg2"
   version="1.1"
   inkscape:version="0.91 r13725"
   sodipodi:docname="add-folder-to-archive.svg">
  <metadata
     id="metadata82">
    <rdf:RDF>
      <cc:Work
         rdf:about="">
        <dc:format>image/svg+xml</dc:format>
        <dc:type
           rdf:resource="http://purl.org/dc/dcmitype/StillImage" />
      </cc:Work>
    </rdf:RDF>
  </metadata>
  <sodipodi:namedview
     pagecolor="#ffffff"
     bordercolor="#666666"
     borderopacity="1"
     objecttolerance="10"
     gridtolerance="10"
     guidetolerance="10"
     inkscape:pageopacity="0"
     inkscape:pageshadow="2"
     inkscape:window-width="1366"
     inkscape:window-height="716"
     id="namedview80"
     showgrid="false"
     inkscape:zoom="2.4583333"
     inkscape:cx="90.915254"
     inkscape:cy="47.999999"
     inkscape:window-x="0"
     inkscape:window-y="26"
     inkscape:window-maximized="1"
     inkscape:current-layer="svg2" />
  <defs
     id="defs4">
    <linearGradient
       id="linearGradient3637">
      <stop
         stop-color="#1a1a1a"
         stop-opacity="1"
         id="stop7" />
      <stop
         stop-color="#4d4d4d"
         stop-opacity="1"
         offset="1"
         id="stop9" />
    </linearGradient>
    <linearGradient
       x2="0"
       y1="92.54"
       y2="7.02"
       gradientUnits="userSpaceOnUse"
       id="ButtonShadow-0"
       gradientTransform="matrix(1.0059 0 0 0.99417 100 0)">
      <stop
         stop-color="#000000"
         stop-opacity="1"
         id="stop12" />
      <stop
         stop-color="#000000"
         stop-opacity="0.588"
         offset="1"
         id="stop14" />
    </linearGradient>
    <linearGradient
       x2="0"
       xlink:href="#ButtonShadow-0"
       y1="6.132"
       y2="90.24"
       gradientUnits="userSpaceOnUse"
       id="linearGradient3780"
       gradientTransform="matrix(1.02381 0 0 -1.0119 -1.143 98.07)" />
    <linearGradient
       x2="0"
       xlink:href="#ButtonShadow-0"
       y1="6.132"
       y2="90.24"
       gradientUnits="userSpaceOnUse"
       id="linearGradient3721"
       gradientTransform="matrix(1 0 0 -1 0 97)" />
    <radialGradient
       cy="90.17"
       r="42"
       gradientUnits="userSpaceOnUse"
       id="radialGradient3619-3"
       cx="48"
       gradientTransform="matrix(1.15731 0 0 0.99591 -7.551 0.197)">
      <stop
         stop-color="#ffffff"
         stop-opacity="1"
         id="stop19" />
      <stop
         stop-color="#ffffff"
         stop-opacity="0"
         offset="1"
         id="stop21" />
    </radialGradient>
    <linearGradient
       x2="0"
       xlink:href="#linearGradient3637"
       y1="1.842"
       y2="20.237"
       gradientUnits="userSpaceOnUse"
       id="linearGradient4065"
       gradientTransform="matrix(2.77417,0,0,3.26163,-87.18,13.993)" />
    <linearGradient
       x2="0"
       xlink:href="#linearGradient3637"
       y1="1.842"
       y2="20.237"
       gradientUnits="userSpaceOnUse"
       id="linearGradient3105"
       gradientTransform="matrix(2.77417,0,0,3.26163,2.82,13.993)" />
    <rect
       x="6"
       rx="6"
       y="6"
       fill="#000000"
       fill-opacity="1"
       stroke="none"
       fill-rule="nonzero"
       height="84"
       id="SVGCleanerId_0"
       opacity="0.6"
       width="84" />
  </defs>
  <g
     id="g3383"
     transform="matrix(1.2856378,0,0,1.2856378,-11.112998,-16.282)">
    <path
       d="m 42,18.9375 c -4.126565,-0.09845 -7.81557,3.4967 -7.96875,7.59375 -2.357614,-0.891842 -4.948764,-0.351551 -7.422115,-0.5 -2.481105,-0.247052 -5.334238,0.534552 -6.303045,3.097958 -0.469139,1.520159 -0.605207,3.297103 -0.18109,4.839542 0.524706,1.455784 -2.75807,3.034999 -2.206342,5.234499 -0.0067,6.018961 -0.04881,12.041032 0.02165,18.058881 0.28042,3.776655 4.079939,6.365825 7.700861,5.89412 2.775861,0 5.551723,0 8.327584,0 -0.0372,4.575176 4.350502,8.405983 8.86869,7.90625 1.48127,0 2.96254,0 4.44381,0 -1.412269,0.196305 -0.846732,2.391874 -2.348678,1.875 -2.17371,0.04324 -4.360693,-0.08577 -6.526322,0.0625 -1.85712,0.564422 -1.446052,2.695137 -1.46875,4.1875 0.09839,1.652547 1.903524,2.08221 3.266166,1.875 1.911278,0 3.822556,0 5.733834,0 -0.01883,1.616733 1.736805,2.242765 3.098678,2 3.850812,-0.04306 7.714816,0.08529 11.557572,-0.0625 1.501343,-0.145475 0.953922,-2.442088 2.473678,-1.9375 2.17371,-0.04324 4.360693,0.08577 6.526322,-0.0625 1.85712,-0.564422 1.446052,-2.695137 1.46875,-4.1875 -0.09839,-1.652547 -1.903524,-2.08221 -3.266166,-1.875 -1.911278,0 -3.822556,0 -5.733834,0 0.418733,-1.217469 -2.454578,-2.166157 -0.338822,-1.875 3.199026,-0.06667 6.805799,0.508133 9.398386,-1.846088 2.536961,-1.930103 3.159325,-5.223589 2.940436,-8.226268 -0.02748,-11.603546 0.05522,-23.210599 -0.0418,-34.811934 -0.339699,-4.403551 -4.697104,-7.744817 -9.025632,-7.24071 -7.665024,0 -15.330048,0 -22.995072,0 z m 9.0625,10.125 c 4.108414,0.04275 8.230743,-0.08561 12.33044,0.06433 0.998806,0.826206 0.365208,2.384532 0.54456,3.552975 0,9.10673 0,18.213461 0,27.320192 -0.305249,1.554152 -2.304507,0.728593 -3.44982,0.9375 -1.402143,0 -2.804287,0 -4.20643,0 2.492473,-2.620455 1.574267,-6.324188 1.75,-9.567127 C 57.96243,47.053117 58.174425,42.71773 57.914834,38.412701 58.197544,36.397714 54.963846,35.264045 55.625,33.8125 56.340194,31.843257 54.257387,29.925117 52.547617,29.320227 52.069498,29.159479 51.566768,29.072777 51.0625,29.0625 Z"
       inkscape:connector-curvature="0"
       id="path44"
       style="opacity:0.1;fill:black;fill-opacity:1;stroke:none" />
    <path
       d="m 42,20.0625 c -3.820152,0 -6.9375,3.117348 -6.9375,6.9375 A 0.92453634,0.92453634 0 0 0 36,27.9375 l 27,0 c 1.165848,0 2.0625,0.896652 2.0625,2.0625 l 0,30 c 0,1.165848 -0.896652,2.0625 -2.0625,2.0625 l -27,0 A 0.92453634,0.92453634 0 0 0 35.0625,63 c 0,3.820152 3.117348,6.9375 6.9375,6.9375 l 8.0625,0 0,2.125 -2.0625,0 A 0.92453634,0.92453634 0 0 0 47.0625,73 l 0,1.0625 -8.0625,0 A 0.92453634,0.92453634 0 0 0 38.0625,75 l 0,2 A 0.92453634,0.92453634 0 0 0 39,77.9375 l 8.0625,0 0,1.0625 A 0.92453634,0.92453634 0 0 0 48,79.9375 l 12,0 A 0.92453634,0.92453634 0 0 0 60.9375,79 l 0,-1.0625 8.0625,0 A 0.92453634,0.92453634 0 0 0 69.9375,77 l 0,-2 A 0.92453634,0.92453634 0 0 0 69,74.0625 l -8.0625,0 0,-1.0625 A 0.92453634,0.92453634 0 0 0 60,72.0625 l -2.0625,0 0,-2.125 8.0625,0 c 3.820152,0 6.9375,-3.117348 6.9375,-6.9375 l 0,-36 c 0,-3.820152 -3.117348,-6.9375 -6.9375,-6.9375 l -24,0 z m -17.03125,7.09375 c -2.158152,0 -3.9375,1.779348 -3.9375,3.9375 l 0,1.90625 a 0.92453634,0.92453634 0 0 0 0.9375,0.9375 l 31.78125,0 a 0.92453634,0.92453634 0 0 0 0.84375,-1.28125 c -0.574432,-1.445904 -1.969099,-2.5 -3.625,-2.5 l -15.25,0 c -0.43041,-1.699325 -1.921914,-3 -3.75,-3 l -7,0 z m -0.5,7 c -2.989152,0 -5.4375,2.448348 -5.4375,5.4375 l 0,17 c 0,2.989152 2.448348,5.4375 5.4375,5.4375 l 4.5,0 22.53125,0 c 3.051919,0 5.341667,-2.607261 5.40625,-5.40625 a 0.92453634,0.92453634 0 0 0 0,-0.03125 l 0,-17 c 0,-2.989152 -2.448348,-5.4375 -5.4375,-5.4375 l -3,0 -15,0 -9,0 z"
       id="path46"
       inkscape:connector-curvature="0"
       style="opacity:0.15;fill:black;fill-opacity:1;stroke:none" />
    <path
       d="m 42,21 c -3.324,0 -6,2.676 -6,6 l 27,0 c 1.662,0 3,1.338 3,3 l 0,30 c 0,1.662 -1.338,3 -3,3 l -27,0 c 0,3.324 2.676,6 6,6 l 9,0 0,4 -3,0 0,2 -9,0 0,2 9,0 0,2 12,0 0,-2 9,0 0,-2 -9,0 0,-2 -3,0 0,-4 9,0 c 3.324,0 6,-2.676 6,-6 l 0,-36 c 0,-3.324 -2.676,-6 -6,-6 l -24,0 z m -17.03125,7.09375 c -1.662,0 -3,1.338 -3,3 l 0,1.90625 31.78125,0 c -0.440564,-1.108944 -1.512703,-1.90625 -2.78125,-1.90625 l -16,0 c 0,-1.662 -1.338,-3 -3,-3 l -7,0 z m -0.5,7 c -2.493,0 -4.5,2.007 -4.5,4.5 l 0,17 c 0,2.493 2.007,4.5 4.5,4.5 l 4.5,0 22.53125,0 c 2.513527,0 4.415584,-2.195801 4.46875,-4.5 l 0,-17 c 0,-2.493 -2.007,-4.5 -4.5,-4.5 l -3,0 -15,0 -9,0 z"
       inkscape:connector-curvature="0"
       id="path48"
       style="opacity:0.3;fill:black;fill-opacity:1;stroke:none" />
    <path
       d="m 42,20 c -3.324,0 -6,2.676 -6,6 l 27,0 c 1.662,0 3,1.338 3,3 l 0,30 c 0,1.662 -1.338,3 -3,3 l -27,0 c 0,3.324 2.676,6 6,6 l 9,0 0,4 -3,0 0,2 -9,0 0,2 9,0 0,2 12,0 0,-2 9,0 0,-2 -9,0 0,-2 -3,0 0,-4 9,0 c 3.324,0 6,-2.676 6,-6 l 0,-36 c 0,-3.324 -2.676,-6 -6,-6 l -24,0 z m -17.03125,7.09375 c -1.662,0 -3,1.338 -3,3 l 0,1.90625 31.78125,0 c -0.440564,-1.108944 -1.512703,-1.90625 -2.78125,-1.90625 l -16,0 c 0,-1.662 -1.338,-3 -3,-3 l -7,0 z m -0.5,7 c -2.493,0 -4.5,2.007 -4.5,4.5 l 0,17 c 0,2.493 2.007,4.5 4.5,4.5 l 4.5,0 22.53125,0 c 2.513527,0 4.415584,-2.195801 4.46875,-4.5 l 0,-17 c 0,-2.493 -2.007,-4.5 -4.5,-4.5 l -3,0 -15,0 -9,0 z"
       inkscape:connector-curvature="0"
       id="path74"
       style="fill:url(#linearGradient3105);fill-opacity:1;stroke:none" />
    <path
       d="m 42,20 c -3.324,0 -6,2.676 -6,6 l 0.09375,0 C 36.56513,23.152831 39.015138,21 42,21 l 24,0 c 3.324,0 6,2.676 6,6 l 0,-1 c 0,-3.324 -2.676,-6 -6,-6 l -24,0 z m -17.03125,7.09375 c -1.662,0 -3,1.338 -3,3 l 0,1 c 0,-1.662 1.338,-3 3,-3 l 7,0 c 1.662,0 3,1.338 3,3 l 16,0 c 0.840412,0 1.583533,0.347585 2.125,0.90625 L 53.75,32 c -0.440564,-1.108944 -1.512703,-1.90625 -2.78125,-1.90625 l -16,0 c 0,-1.662 -1.338,-3 -3,-3 l -7,0 z m -0.5,7 c -2.493,0 -4.5,2.007 -4.5,4.5 l 0,1 c 0,-2.493 2.007,-4.5 4.5,-4.5 l 9,0 15,0 3,0 c 2.493,0 4.5,2.007 4.5,4.5 l 0,-1 c 0,-2.493 -2.007,-4.5 -4.5,-4.5 l -3,0 -15,0 -9,0 z M 66,59 c 0,1.662 -1.338,3 -3,3 l -27,0 c 0,0.339138 0.04019,0.676507 0.09375,1 L 63,63 c 1.662,0 3,-1.338 3,-3 l 0,-1 z m -18,13 0,1 3,0 0,-1 -3,0 z m 9,0 0,1 3,0 0,-1 -3,0 z m -18,2 0,1 9,0 0,-1 -9,0 z m 21,0 0,1 9,0 0,-1 -9,0 z"
       inkscape:connector-curvature="0"
       id="path76"
       style="opacity:0.75;fill:white;fill-opacity:1;stroke:none" />
    <path
       d="M 36.09375,25 C 36.040192,25.323493 36,25.660862 36,26 l 27,0 c 1.662,0 3,1.338 3,3 l 0,-1 c 0,-1.662 -1.338,-3 -3,-3 l -26.90625,0 z m -14.125,6 0,1 31.78125,0 c -0.14869,-0.374269 -0.380408,-0.715397 -0.65625,-1 l -31.125,0 z m -2,23.59375 0,1 c 0,2.493 2.007,4.5 4.5,4.5 l 4.5,0 22.53125,0 c 2.513527,0 4.415584,-2.195801 4.46875,-4.5 l 0,-1 c -0.05317,2.304199 -1.955223,4.5 -4.46875,4.5 l -22.53125,0 -4.5,0 c -2.493,0 -4.5,-2.007 -4.5,-4.5 z M 72,61 c 0,3.324 -2.676,6 -6,6 l -9,0 0,1 9,0 c 3.324,0 6,-2.676 6,-6 l 0,-1 z m -36,1 c 0,3.324 2.676,6 6,6 l 9,0 0,-1 -9,0 c -2.984862,0 -5.43487,-2.152831 -5.90625,-5 L 36,62 Z m 3,13 0,1 9,0 0,-1 -9,0 z m 21,0 0,1 9,0 0,-1 -9,0 z m -12,2 0,1 12,0 0,-1 -12,0 z"
       inkscape:connector-curvature="0"
       id="path78"
       style="opacity:0.15;fill:black;fill-opacity:1;stroke:none" />
  </g>
</svg>
