<?xml version="1.0" encoding="UTF-8" standalone="no"?>
<svg
   xmlns:dc="http://purl.org/dc/elements/1.1/"
   xmlns:cc="http://creativecommons.org/ns#"
   xmlns:rdf="http://www.w3.org/1999/02/22-rdf-syntax-ns#"
   xmlns:svg="http://www.w3.org/2000/svg"
   xmlns="http://www.w3.org/2000/svg"
   xmlns:xlink="http://www.w3.org/1999/xlink"
   xmlns:sodipodi="http://sodipodi.sourceforge.net/DTD/sodipodi-0.dtd"
   xmlns:inkscape="http://www.inkscape.org/namespaces/inkscape"
   height="96"
   width="96"
   id="svg2"
   version="1.1"
   inkscape:version="0.91 r13725"
   sodipodi:docname="add-files-to-archive.svg">
  <metadata
     id="metadata68">
    <rdf:RDF>
      <cc:Work
         rdf:about="">
        <dc:format>image/svg+xml</dc:format>
        <dc:type
           rdf:resource="http://purl.org/dc/dcmitype/StillImage" />
      </cc:Work>
    </rdf:RDF>
  </metadata>
  <sodipodi:namedview
     pagecolor="#ffffff"
     bordercolor="#666666"
     borderopacity="1"
     objecttolerance="10"
     gridtolerance="10"
     guidetolerance="10"
     inkscape:pageopacity="0"
     inkscape:pageshadow="2"
     inkscape:window-width="1366"
     inkscape:window-height="708"
     id="namedview66"
     showgrid="false"
     inkscape:zoom="4.9166667"
     inkscape:cx="33.478918"
     inkscape:cy="48.178838"
     inkscape:window-x="0"
     inkscape:window-y="24"
     inkscape:window-maximized="1"
     inkscape:current-layer="svg2" />
  <defs
     id="defs4">
    <linearGradient
       x2="0"
       y1="92.54"
       y2="7.02"
       gradientUnits="userSpaceOnUse"
       id="ButtonShadow-0"
       gradientTransform="matrix(1.0059 0 0 0.99417 100 0)">
      <stop
         stop-color="#000000"
         stop-opacity="1"
         id="stop7" />
      <stop
         stop-color="#000000"
         stop-opacity="0.588"
         offset="1"
         id="stop9" />
    </linearGradient>
    <linearGradient
       x2="0"
       xlink:href="#ButtonShadow-0"
       y1="6.132"
       y2="90.24"
       gradientUnits="userSpaceOnUse"
       id="linearGradient3780"
       gradientTransform="matrix(1.02381 0 0 -1.0119 -1.143 98.07)" />
    <linearGradient
       x2="0"
       xlink:href="#ButtonShadow-0"
       y1="6.132"
       y2="90.24"
       gradientUnits="userSpaceOnUse"
       id="linearGradient3721"
       gradientTransform="matrix(1 0 0 -1 0 97)" />
    <radialGradient
       cy="90.17"
       r="42"
       gradientUnits="userSpaceOnUse"
       id="radialGradient3619-3"
       cx="48"
       gradientTransform="matrix(1.15731 0 0 0.99591 -7.551 0.197)">
      <stop
         stop-color="#ffffff"
         stop-opacity="1"
         id="stop14" />
      <stop
         stop-color="#ffffff"
         stop-opacity="0"
         offset="1"
         id="stop16" />
    </radialGradient>
    <linearGradient
       x2="0"
       y1="1.842"
       y2="20.237"
       gradientUnits="userSpaceOnUse"
       id="linearGradient3867"
       gradientTransform="matrix(3.5667506,0,0,4.193478,-7.5137017,1.7073545)">
      <stop
         stop-color="#1a1a1a"
         stop-opacity="1"
         id="stop19" />
      <stop
         stop-color="#4d4d4d"
         stop-opacity="1"
         offset="1"
         id="stop21" />
    </linearGradient>
    <rect
       x="6"
       rx="6"
       y="6"
       fill="#000000"
       fill-opacity="1"
       stroke="none"
       fill-rule="nonzero"
       height="84"
       id="SVGCleanerId_0"
       opacity="0.6"
       width="84" />
  </defs>
  <path
     style="fill:url(#linearGradient3867);fill-opacity:1;stroke:none"
     id="path60"
     inkscape:connector-curvature="0"
     d="m 42.860028,9.430555 c -4.273667,0 -7.7142,3.440533 -7.7142,7.714201 l 34.713902,0 c 2.136834,0 3.857101,1.720266 3.857101,3.8571 l 0,38.571003 c 0,2.136833 -1.720267,3.8571 -3.857101,3.8571 l -34.713902,0 c 0,4.273667 3.440533,7.714201 7.7142,7.714201 l 11.571301,0 0,5.1428 -3.8571,0 0,2.5714 -11.571301,0 0,2.571401 11.571301,0 0,2.5714 15.428401,0 0,-2.5714 11.571301,0 0,-2.571401 -11.571301,0 0,-2.5714 -3.8571,0 0,-5.1428 11.571301,0 c 4.273667,0 7.7142,-3.440534 7.7142,-7.714201 l 0,-46.285203 c 0,-4.273668 -3.440533,-7.714201 -7.7142,-7.714201 l -30.856803,0 z M 20.360276,19.716156 c -3.20525,0 -5.78565,2.5804 -5.78565,5.78565 l 0,29.571103 c 0,3.20525 2.5804,5.78565 5.78565,5.78565 l 7.714201,0 c -3.20525,0 -5.78565,-2.5804 -5.78565,-5.78565 l 0,-3.857101 0,-21.856901 0,-3.857101 c 0,-3.20525 2.5804,-5.78565 5.78565,-5.78565 l -7.714201,0 z m 12.857001,0 c -3.20525,0 -5.78565,2.5804 -5.78565,5.78565 l 0,29.571103 c 0,3.20525 2.5804,5.78565 5.78565,5.78565 l 21.856902,0 c 3.20525,0 5.785651,-2.5804 5.785651,-5.78565 l 0,-29.571103 c 0,-3.20525 -2.580401,-5.78565 -5.785651,-5.78565 l -21.856902,0 z m 3.857101,7.7142 14.142701,0 c 1.068417,0 1.92855,0.860134 1.92855,1.928551 l 0,21.856901 c 0,1.068417 -0.860133,1.92855 -1.92855,1.92855 l -14.142701,0 c -1.068417,0 -1.92855,-0.860133 -1.92855,-1.92855 l 0,-21.856901 c 0,-1.068417 0.860133,-1.928551 1.92855,-1.928551 z" />
  <path
     style="opacity:0.75;fill:#ffffff;fill-opacity:1;stroke:none"
     id="path62"
     inkscape:connector-curvature="0"
     d="m 42.860028,9.430555 c -4.273667,0 -7.7142,3.440533 -7.7142,7.714201 l 0.120534,0 c 0.606053,-3.660606 3.756029,-6.428501 7.593666,-6.428501 l 30.856803,0 c 4.273667,0 7.7142,3.440534 7.7142,7.714201 l 0,-1.2857 c 0,-4.273668 -3.440533,-7.714201 -7.7142,-7.714201 l -30.856803,0 z M 20.360276,19.716156 c -3.20525,0 -5.78565,2.5804 -5.78565,5.78565 l 0,1.2857 c 0,-3.20525 2.5804,-5.78565 5.78565,-5.78565 l 4.09817,0 c 0.989325,-0.791185 2.245018,-1.2857 3.616031,-1.2857 l -7.714201,0 z m 12.857001,0 c -3.20525,0 -5.78565,2.5804 -5.78565,5.78565 l 0,1.2857 c 0,-3.20525 2.5804,-5.78565 5.78565,-5.78565 l 21.856902,0 c 3.20525,0 5.785651,2.5804 5.785651,5.78565 l 0,-1.2857 c 0,-3.20525 -2.580401,-5.78565 -5.785651,-5.78565 l -21.856902,0 z m 1.928551,31.499652 0,1.2857 c 0,1.068417 0.860133,1.92855 1.92855,1.92855 l 14.142701,0 c 1.068417,0 1.92855,-0.860133 1.92855,-1.92855 l 0,-1.2857 c 0,1.068417 -0.860133,1.92855 -1.92855,1.92855 l -14.142701,0 c -1.068417,0 -1.92855,-0.860133 -1.92855,-1.92855 z m -12.857001,3.857101 0,1.2857 c 0,1.834237 0.84603,3.441446 2.169619,4.49995 l 3.616031,0 c -3.20525,0 -5.78565,-2.5804 -5.78565,-5.78565 z m 51.428004,4.49995 c 0,2.136833 -1.720267,3.8571 -3.857101,3.8571 l -34.713902,0 c 0,0.43603 0.05167,0.869785 0.120534,1.2857 l 34.593368,0 c 2.136834,0 3.857101,-1.720266 3.857101,-3.8571 l 0,-1.2857 z m -23.142602,16.714101 0,1.2857 3.8571,0 0,-1.2857 -3.8571,0 z m 11.571301,0 0,1.2857 3.8571,0 0,-1.2857 -3.8571,0 z m -23.142602,2.5714 0,1.2857 11.571301,0 0,-1.2857 -11.571301,0 z m 26.999702,0 0,1.2857 11.571301,0 0,-1.2857 -11.571301,0 z" />
  <path
     style="opacity:0.15;fill:#000000;fill-opacity:1;stroke:none"
     id="path64"
     inkscape:connector-curvature="0"
     d="m 35.266362,15.859055 c -0.06886,0.415915 -0.120534,0.849671 -0.120534,1.285701 l 34.713902,0 c 2.136834,0 3.857101,1.720266 3.857101,3.8571 l 0,-1.2857 c 0,-2.136834 -1.720267,-3.857101 -3.857101,-3.857101 l -34.593368,0 z m -10.807916,3.857101 c -1.323589,1.058504 -2.169619,2.665713 -2.169619,4.49995 l 0,1.2857 c 0,-3.20525 2.5804,-5.78565 5.78565,-5.78565 l -3.616031,0 z m 12.615932,6.4285 c -1.068417,0 -1.92855,0.860134 -1.92855,1.92855 l 0,1.285701 c 0,-1.068417 0.860133,-1.928551 1.92855,-1.928551 l 14.142701,0 c 1.068417,0 1.92855,0.860134 1.92855,1.928551 l 0,-1.285701 c 0,-1.068416 -0.860133,-1.92855 -1.92855,-1.92855 l -14.142701,0 z m -22.499752,27.642552 0,1.285701 c 0,3.20525 2.5804,5.78565 5.78565,5.78565 l 7.714201,0 c -1.371013,0 -2.626706,-0.494515 -3.616031,-1.2857 l -4.09817,0 c -3.20525,0 -5.78565,-2.5804 -5.78565,-5.785651 z m 12.857001,0 0,1.285701 c 0,3.20525 2.5804,5.78565 5.78565,5.78565 l 21.856902,0 c 3.20525,0 5.785651,-2.5804 5.785651,-5.78565 l 0,-1.285701 c 0,3.205251 -2.580401,5.785651 -5.785651,5.785651 l -21.856902,0 c -3.20525,0 -5.78565,-2.5804 -5.78565,-5.785651 z m 53.999404,8.357051 c 0,4.273667 -3.440533,7.714201 -7.7142,7.714201 l -11.571301,0 0,1.2857 11.571301,0 c 4.273667,0 7.7142,-3.440534 7.7142,-7.714201 l 0,-1.2857 z m -46.285203,1.2857 c 0,4.273667 3.440533,7.714201 7.7142,7.714201 l 11.571301,0 0,-1.2857 -11.571301,0 c -3.837637,0 -6.987613,-2.767895 -7.593666,-6.428501 l -0.120534,0 z m 3.8571,16.714101 0,1.285701 11.571301,0 0,-1.285701 -11.571301,0 z m 26.999702,0 0,1.285701 11.571301,0 0,-1.285701 -11.571301,0 z m -15.428401,2.571401 0,1.2857 15.428401,0 0,-1.2857 -15.428401,0 z" />
</svg>
