<?xml version="1.0" encoding="UTF-8" standalone="no"?>
<svg
   xmlns:dc="http://purl.org/dc/elements/1.1/"
   xmlns:cc="http://creativecommons.org/ns#"
   xmlns:rdf="http://www.w3.org/1999/02/22-rdf-syntax-ns#"
   xmlns:svg="http://www.w3.org/2000/svg"
   xmlns="http://www.w3.org/2000/svg"
   xmlns:xlink="http://www.w3.org/1999/xlink"
   xmlns:sodipodi="http://sodipodi.sourceforge.net/DTD/sodipodi-0.dtd"
   xmlns:inkscape="http://www.inkscape.org/namespaces/inkscape"
   height="96"
   width="96"
   id="svg2"
   version="1.1"
   inkscape:version="0.91 r13725"
   sodipodi:docname="add-files-to-archive.svg">
  <metadata
     id="metadata68">
    <rdf:RDF>
      <cc:Work
         rdf:about="">
        <dc:format>image/svg+xml</dc:format>
        <dc:type
           rdf:resource="http://purl.org/dc/dcmitype/StillImage" />
      </cc:Work>
    </rdf:RDF>
  </metadata>
  <sodipodi:namedview
     pagecolor="#ffffff"
     bordercolor="#666666"
     borderopacity="1"
     objecttolerance="10"
     gridtolerance="10"
     guidetolerance="10"
     inkscape:pageopacity="0"
     inkscape:pageshadow="2"
     inkscape:window-width="1366"
     inkscape:window-height="716"
     id="namedview66"
     showgrid="false"
     inkscape:zoom="2.4583333"
     inkscape:cx="74.644066"
     inkscape:cy="47.999999"
     inkscape:window-x="0"
     inkscape:window-y="26"
     inkscape:window-maximized="1"
     inkscape:current-layer="svg2" />
  <defs
     id="defs4">
    <linearGradient
       x2="0"
       y1="92.54"
       y2="7.02"
       gradientUnits="userSpaceOnUse"
       id="ButtonShadow-0"
       gradientTransform="matrix(1.0059 0 0 0.99417 100 0)">
      <stop
         stop-color="#000000"
         stop-opacity="1"
         id="stop7" />
      <stop
         stop-color="#000000"
         stop-opacity="0.588"
         offset="1"
         id="stop9" />
    </linearGradient>
    <linearGradient
       x2="0"
       xlink:href="#ButtonShadow-0"
       y1="6.132"
       y2="90.24"
       gradientUnits="userSpaceOnUse"
       id="linearGradient3780"
       gradientTransform="matrix(1.02381 0 0 -1.0119 -1.143 98.07)" />
    <linearGradient
       x2="0"
       xlink:href="#ButtonShadow-0"
       y1="6.132"
       y2="90.24"
       gradientUnits="userSpaceOnUse"
       id="linearGradient3721"
       gradientTransform="matrix(1 0 0 -1 0 97)" />
    <radialGradient
       cy="90.17"
       r="42"
       gradientUnits="userSpaceOnUse"
       id="radialGradient3619-3"
       cx="48"
       gradientTransform="matrix(1.15731 0 0 0.99591 -7.551 0.197)">
      <stop
         stop-color="#ffffff"
         stop-opacity="1"
         id="stop14" />
      <stop
         stop-color="#ffffff"
         stop-opacity="0"
         offset="1"
         id="stop16" />
    </radialGradient>
    <linearGradient
       x2="0"
       y1="1.842"
       y2="20.237"
       gradientUnits="userSpaceOnUse"
       id="linearGradient3867"
       gradientTransform="matrix(2.77417,0,0,3.26163,2.82,13.993)">
      <stop
         stop-color="#1a1a1a"
         stop-opacity="1"
         id="stop19" />
      <stop
         stop-color="#4d4d4d"
         stop-opacity="1"
         offset="1"
         id="stop21" />
    </linearGradient>
    <rect
       x="6"
       rx="6"
       y="6"
       fill="#000000"
       fill-opacity="1"
       stroke="none"
       fill-rule="nonzero"
       height="84"
       id="SVGCleanerId_0"
       opacity="0.6"
       width="84" />
  </defs>
  <g
     id="g3350"
     transform="matrix(1.2857001,0,0,1.2857001,-11.139376,-16.283447)">
    <path
       d="m 42,18.9375 c -4.324072,-0.105874 -8.201676,3.801866 -8.0625,8.125 -1.675111,0.520213 -2.229228,0.798245 -3.4375,-0.125 -2.84956,0.141787 -5.799076,-0.386076 -8.545602,0.518653 -3.027369,1.169351 -4.328678,4.509178 -4.016898,7.55086 0.02237,7.386559 -0.04499,14.775409 0.03411,22.16052 0.283716,3.773836 4.079908,6.365948 7.70051,5.894967 1.758572,-0.08759 3.578063,0.172944 5.300676,-0.125395 0.513248,-1.291692 2.70431,-0.22122 2.975249,0.476074 0.113216,4.565486 4.581309,8.183239 9.056629,7.649321 1.336918,0.02142 3.199394,-0.04246 4.214075,0.03125 -1.321797,0.36652 -0.849424,2.408335 -2.453371,1.84375 -2.177447,0.09084 -4.398018,-0.190097 -6.546629,0.15625 -1.733433,0.770166 -1.287939,2.970849 -1.1875,4.5 0.612798,1.941196 2.914046,1.401054 4.480438,1.46875 1.475271,0 2.950541,0 4.425812,0 0.04211,1.666657 1.830925,2.22563 3.234621,2 3.804891,-0.06055 7.62901,0.122371 11.421629,-0.09375 1.469375,-0.138979 0.952856,-2.407588 2.473425,-1.90625 2.233208,-0.09149 4.509725,0.191 6.714075,-0.15625 1.733433,-0.770166 1.287939,-2.970849 1.1875,-4.5 -0.612798,-1.941196 -2.914046,-1.401054 -4.480438,-1.46875 -1.475271,0 -2.950541,0 -4.425812,0 0.350592,-1.217011 -2.457091,-2.157556 -0.370325,-1.875 3.208715,-0.06937 6.827445,0.514609 9.428225,-1.847382 2.536317,-1.929757 3.161641,-5.221864 2.9421,-8.224469 -0.0275,-11.603494 0.05526,-23.210503 -0.04184,-34.811779 -0.342177,-4.401589 -4.697198,-7.744468 -9.025335,-7.24137 -7.665109,0 -15.330217,0 -22.995325,0 z m 14.1875,10.125 c 2.398464,0.0422 4.811278,-0.08559 7.200511,0.06598 1.00557,0.825008 0.370032,2.382352 0.549489,3.550659 0,9.106956 0,18.213911 0,27.320866 -0.315043,1.550818 -2.302937,0.730607 -3.449188,0.9375 -1.433604,0 -2.867208,0 -4.300812,0 2.627144,-2.498951 1.703268,-6.244418 1.875,-9.460877 C 58.04015,45.269726 58.10751,39.060446 58.02828,32.855053 57.881645,31.424965 57.191712,30.080533 56.1875,29.0625 Z m -18.125,8 c 3.291667,0 6.583333,0 9.875,0 0,5.291667 0,10.583333 0,15.875 -3.291667,0 -6.583333,0 -9.875,0 0,-5.291667 0,-10.583333 0,-15.875 z"
       inkscape:connector-curvature="0"
       id="path42"
       style="opacity:0.1;fill:black;fill-opacity:1;stroke:none" />
    <path
       d="m 42,19.9375 c -3.898469,0 -7.0625,3.164031 -7.0625,7.0625 a 1.0704734,1.0704734 0 0 0 0.5,0.9375 l -0.9375,0 c -1.574096,0 -2.985169,0.662496 -4,1.71875 l 0,-1.71875 -6,0 c -3.067469,0 -5.5625,2.495031 -5.5625,5.5625 l 0,23 c 0,3.067469 2.495031,5.5625 5.5625,5.5625 l 6,0 0,-1.71875 c 1.014831,1.056254 2.425904,1.71875 4,1.71875 l 1,0 A 1.0704734,1.0704734 0 0 0 34.9375,63 c 0,3.898469 3.164031,7.0625 7.0625,7.0625 l 7.9375,0 0,1.875 -1.9375,0 A 1.0704734,1.0704734 0 0 0 46.9375,73 l 0,0.9375 -7.9375,0 A 1.0704734,1.0704734 0 0 0 37.9375,75 l 0,2 A 1.0704734,1.0704734 0 0 0 39,78.0625 l 7.9375,0 0,0.9375 A 1.0704734,1.0704734 0 0 0 48,80.0625 l 12,0 A 1.0704734,1.0704734 0 0 0 61.0625,79 l 0,-0.9375 7.9375,0 A 1.0704734,1.0704734 0 0 0 70.0625,77 l 0,-2 A 1.0704734,1.0704734 0 0 0 69,73.9375 l -7.9375,0 0,-0.9375 A 1.0704734,1.0704734 0 0 0 60,71.9375 l -1.9375,0 0,-1.875 7.9375,0 c 3.898469,0 7.0625,-3.164031 7.0625,-7.0625 l 0,-36 c 0,-3.898469 -3.164031,-7.0625 -7.0625,-7.0625 l -24,0 z m 10.125,8.125 10.875,0 c 1.087531,0 1.9375,0.849969 1.9375,1.9375 l 0,30 c 0,1.087531 -0.849969,1.9375 -1.9375,1.9375 l -10.875,0 c 2.76003,-0.326848 4.9375,-2.592186 4.9375,-5.4375 l 0,-23 c 0,-2.845314 -2.17747,-5.110652 -4.9375,-5.4375 z M 30.1875,30.125 c -0.742765,0.946696 -1.25,2.083434 -1.25,3.375 l 0,23 c 0,1.291566 0.507235,2.428304 1.25,3.375 -1.759153,-0.161703 -3.125,-1.567803 -3.125,-3.375 l 0,-3 0,-17 0,-3 c 0,-1.807197 1.365847,-3.213297 3.125,-3.375 z m 7.3125,5.9375 11,0 c 0.256531,0 0.4375,0.180969 0.4375,0.4375 l 0,17 c 0,0.256531 -0.180969,0.4375 -0.4375,0.4375 l -11,0 c -0.256531,0 -0.4375,-0.180969 -0.4375,-0.4375 l 0,-17 c 0,-0.256531 0.180969,-0.4375 0.4375,-0.4375 z"
       id="path44"
       inkscape:connector-curvature="0"
       style="opacity:0.15;fill:black;fill-opacity:1;stroke:none" />
    <path
       d="m 42,21 c -3.324,0 -6,2.676 -6,6 l 27,0 c 1.662,0 3,1.338 3,3 l 0,30 c 0,1.662 -1.338,3 -3,3 l -27,0 c 0,3.324 2.676,6 6,6 l 9,0 0,4 -3,0 0,2 -9,0 0,2 9,0 0,2 12,0 0,-2 9,0 0,-2 -9,0 0,-2 -3,0 0,-4 9,0 c 3.324,0 6,-2.676 6,-6 l 0,-36 c 0,-3.324 -2.676,-6 -6,-6 L 42,21 Z M 24.5,29 C 22.007,29 20,31.007 20,33.5 l 0,23 c 0,2.493 2.007,4.5 4.5,4.5 l 6,0 C 28.007,61 26,58.993 26,56.5 l 0,-3 0,-17 0,-3 C 26,31.007 28.007,29 30.5,29 l -6,0 z m 10,0 C 32.007,29 30,31.007 30,33.5 l 0,23 c 0,2.493 2.007,4.5 4.5,4.5 l 17,0 c 2.493,0 4.5,-2.007 4.5,-4.5 l 0,-23 C 56,31.007 53.993,29 51.5,29 l -17,0 z m 3,6 11,0 c 0.831,0 1.5,0.669 1.5,1.5 l 0,17 c 0,0.831 -0.669,1.5 -1.5,1.5 l -11,0 C 36.669,55 36,54.331 36,53.5 l 0,-17 C 36,35.669 36.669,35 37.5,35 Z"
       inkscape:connector-curvature="0"
       id="path46"
       style="opacity:0.3;fill:black;fill-opacity:1;stroke:none" />
    <path
       d="m 42,20 c -3.324,0 -6,2.676 -6,6 l 27,0 c 1.662,0 3,1.338 3,3 l 0,30 c 0,1.662 -1.338,3 -3,3 l -27,0 c 0,3.324 2.676,6 6,6 l 9,0 0,4 -3,0 0,2 -9,0 0,2 9,0 0,2 12,0 0,-2 9,0 0,-2 -9,0 0,-2 -3,0 0,-4 9,0 c 3.324,0 6,-2.676 6,-6 l 0,-36 c 0,-3.324 -2.676,-6 -6,-6 L 42,20 Z M 24.5,28 C 22.007,28 20,30.007 20,32.5 l 0,23 c 0,2.493 2.007,4.5 4.5,4.5 l 6,0 C 28.007,60 26,57.993 26,55.5 l 0,-3 0,-17 0,-3 C 26,30.007 28.007,28 30.5,28 l -6,0 z m 10,0 C 32.007,28 30,30.007 30,32.5 l 0,23 c 0,2.493 2.007,4.5 4.5,4.5 l 17,0 c 2.493,0 4.5,-2.007 4.5,-4.5 l 0,-23 C 56,30.007 53.993,28 51.5,28 l -17,0 z m 3,6 11,0 c 0.831,0 1.5,0.669 1.5,1.5 l 0,17 c 0,0.831 -0.669,1.5 -1.5,1.5 l -11,0 C 36.669,54 36,53.331 36,52.5 l 0,-17 C 36,34.669 36.669,34 37.5,34 Z"
       inkscape:connector-curvature="0"
       id="path60"
       style="fill:url(#linearGradient3867);fill-opacity:1;stroke:none" />
    <path
       d="m 42,20 c -3.324,0 -6,2.676 -6,6 l 0.09375,0 C 36.56513,23.152831 39.015138,21 42,21 l 24,0 c 3.324,0 6,2.676 6,6 l 0,-1 c 0,-3.324 -2.676,-6 -6,-6 L 42,20 Z M 24.5,28 C 22.007,28 20,30.007 20,32.5 l 0,1 C 20,31.007 22.007,29 24.5,29 l 3.1875,0 c 0.769484,-0.615373 1.746145,-1 2.8125,-1 l -6,0 z m 10,0 C 32.007,28 30,30.007 30,32.5 l 0,1 C 30,31.007 32.007,29 34.5,29 l 17,0 c 2.493,0 4.5,2.007 4.5,4.5 l 0,-1 C 56,30.007 53.993,28 51.5,28 l -17,0 z m 1.5,24.5 0,1 c 0,0.831 0.669,1.5 1.5,1.5 l 11,0 c 0.831,0 1.5,-0.669 1.5,-1.5 l 0,-1 c 0,0.831 -0.669,1.5 -1.5,1.5 l -11,0 C 36.669,54 36,53.331 36,52.5 Z m -10,3 0,1 c 0,1.426645 0.658031,2.67671 1.6875,3.5 L 30.5,60 C 28.007,60 26,57.993 26,55.5 Z M 66,59 c 0,1.662 -1.338,3 -3,3 l -27,0 c 0,0.339138 0.04019,0.676507 0.09375,1 L 63,63 c 1.662,0 3,-1.338 3,-3 l 0,-1 z m -18,13 0,1 3,0 0,-1 -3,0 z m 9,0 0,1 3,0 0,-1 -3,0 z m -18,2 0,1 9,0 0,-1 -9,0 z m 21,0 0,1 9,0 0,-1 -9,0 z"
       inkscape:connector-curvature="0"
       id="path62"
       style="opacity:0.75;fill:white;fill-opacity:1;stroke:none" />
    <path
       d="M 36.09375,25 C 36.040192,25.323493 36,25.660862 36,26 l 27,0 c 1.662,0 3,1.338 3,3 l 0,-1 c 0,-1.662 -1.338,-3 -3,-3 L 36.09375,25 Z M 27.6875,28 C 26.658031,28.82329 26,30.073355 26,31.5 l 0,1 C 26,30.007 28.007,28 30.5,28 l -2.8125,0 z M 37.5,33 C 36.669,33 36,33.669 36,34.5 l 0,1 C 36,34.669 36.669,34 37.5,34 l 11,0 c 0.831,0 1.5,0.669 1.5,1.5 l 0,-1 C 50,33.669 49.331,33 48.5,33 l -11,0 z M 20,54.5 l 0,1 c 0,2.493 2.007,4.5 4.5,4.5 l 6,0 c -1.066355,0 -2.043016,-0.384627 -2.8125,-1 L 24.5,59 C 22.007,59 20,56.993 20,54.5 Z m 10,0 0,1 c 0,2.493 2.007,4.5 4.5,4.5 l 17,0 c 2.493,0 4.5,-2.007 4.5,-4.5 l 0,-1 c 0,2.493 -2.007,4.5 -4.5,4.5 l -17,0 C 32.007,59 30,56.993 30,54.5 Z M 72,61 c 0,3.324 -2.676,6 -6,6 l -9,0 0,1 9,0 c 3.324,0 6,-2.676 6,-6 l 0,-1 z m -36,1 c 0,3.324 2.676,6 6,6 l 9,0 0,-1 -9,0 c -2.984862,0 -5.43487,-2.152831 -5.90625,-5 L 36,62 Z m 3,13 0,1 9,0 0,-1 -9,0 z m 21,0 0,1 9,0 0,-1 -9,0 z m -12,2 0,1 12,0 0,-1 -12,0 z"
       inkscape:connector-curvature="0"
       id="path64"
       style="opacity:0.15;fill:black;fill-opacity:1;stroke:none" />
  </g>
</svg>
