<?xml version="1.0" encoding="UTF-8" standalone="no"?>
<svg
   xmlns:dc="http://purl.org/dc/elements/1.1/"
   xmlns:cc="http://creativecommons.org/ns#"
   xmlns:rdf="http://www.w3.org/1999/02/22-rdf-syntax-ns#"
   xmlns:svg="http://www.w3.org/2000/svg"
   xmlns="http://www.w3.org/2000/svg"
   xmlns:xlink="http://www.w3.org/1999/xlink"
   xmlns:sodipodi="http://sodipodi.sourceforge.net/DTD/sodipodi-0.dtd"
   xmlns:inkscape="http://www.inkscape.org/namespaces/inkscape"
   height="96"
   width="96"
   id="svg2"
   version="1.1"
   inkscape:version="0.91 r13725"
   sodipodi:docname="add-folder-to-archive.svg">
  <metadata
     id="metadata82">
    <rdf:RDF>
      <cc:Work
         rdf:about="">
        <dc:format>image/svg+xml</dc:format>
        <dc:type
           rdf:resource="http://purl.org/dc/dcmitype/StillImage" />
      </cc:Work>
    </rdf:RDF>
  </metadata>
  <sodipodi:namedview
     pagecolor="#ffffff"
     bordercolor="#666666"
     borderopacity="1"
     objecttolerance="10"
     gridtolerance="10"
     guidetolerance="10"
     inkscape:pageopacity="0"
     inkscape:pageshadow="2"
     inkscape:window-width="1366"
     inkscape:window-height="708"
     id="namedview80"
     showgrid="false"
     inkscape:zoom="3.4766083"
     inkscape:cx="92.540399"
     inkscape:cy="53.364868"
     inkscape:window-x="0"
     inkscape:window-y="24"
     inkscape:window-maximized="1"
     inkscape:current-layer="svg2" />
  <defs
     id="defs4">
    <linearGradient
       id="linearGradient3637">
      <stop
         stop-color="#1a1a1a"
         stop-opacity="1"
         id="stop7" />
      <stop
         stop-color="#4d4d4d"
         stop-opacity="1"
         offset="1"
         id="stop9" />
    </linearGradient>
    <linearGradient
       x2="0"
       y1="92.54"
       y2="7.02"
       gradientUnits="userSpaceOnUse"
       id="ButtonShadow-0"
       gradientTransform="matrix(1.0059 0 0 0.99417 100 0)">
      <stop
         stop-color="#000000"
         stop-opacity="1"
         id="stop12" />
      <stop
         stop-color="#000000"
         stop-opacity="0.588"
         offset="1"
         id="stop14" />
    </linearGradient>
    <linearGradient
       x2="0"
       xlink:href="#ButtonShadow-0"
       y1="6.132"
       y2="90.24"
       gradientUnits="userSpaceOnUse"
       id="linearGradient3780"
       gradientTransform="matrix(1.02381 0 0 -1.0119 -1.143 98.07)" />
    <linearGradient
       x2="0"
       xlink:href="#ButtonShadow-0"
       y1="6.132"
       y2="90.24"
       gradientUnits="userSpaceOnUse"
       id="linearGradient3721"
       gradientTransform="matrix(1 0 0 -1 0 97)" />
    <radialGradient
       cy="90.17"
       r="42"
       gradientUnits="userSpaceOnUse"
       id="radialGradient3619-3"
       cx="48"
       gradientTransform="matrix(1.15731 0 0 0.99591 -7.551 0.197)">
      <stop
         stop-color="#ffffff"
         stop-opacity="1"
         id="stop19" />
      <stop
         stop-color="#ffffff"
         stop-opacity="0"
         offset="1"
         id="stop21" />
    </radialGradient>
    <linearGradient
       x2="0"
       xlink:href="#linearGradient3637"
       y1="1.842"
       y2="20.237"
       gradientUnits="userSpaceOnUse"
       id="linearGradient4065"
       gradientTransform="matrix(2.77417,0,0,3.26163,-87.18,13.993)" />
    <linearGradient
       x2="0"
       xlink:href="#linearGradient3637"
       y1="1.842"
       y2="20.237"
       gradientUnits="userSpaceOnUse"
       id="linearGradient3105"
       gradientTransform="matrix(3.5665778,0,0,4.1932748,-7.4874994,1.7079297)" />
    <rect
       x="6"
       rx="6"
       y="6"
       fill="#000000"
       fill-opacity="1"
       stroke="none"
       fill-rule="nonzero"
       height="84"
       id="SVGCleanerId_0"
       opacity="0.6"
       width="84" />
  </defs>
  <path
     style="fill:url(#linearGradient3105);fill-opacity:1;stroke:none"
     id="path74"
     inkscape:connector-curvature="0"
     d="m 42.88379,9.430756 c -4.27346,0 -7.713827,3.440367 -7.713827,7.713827 l 34.71222,0 c 2.13673,0 3.856914,1.720183 3.856914,3.856913 l 0,38.569134 c 0,2.13673 -1.720184,3.856914 -3.856914,3.856914 l -34.71222,0 c 0,4.27346 3.440367,7.713826 7.713827,7.713826 l 11.57074,0 0,5.142552 -3.856914,0 0,2.571275 -11.57074,0 0,2.571276 11.57074,0 0,2.571275 15.427654,0 0,-2.571275 11.57074,0 0,-2.571276 -11.57074,0 0,-2.571275 -3.856913,0 0,-5.142552 11.57074,0 c 4.27346,0 7.713827,-3.440366 7.713827,-7.713826 l 0,-46.282961 c 0,-4.27346 -3.440367,-7.713827 -7.713827,-7.713827 l -30.855307,0 z m -21.896019,9.119993 c -2.13673,0 -3.856914,1.720184 -3.856914,3.856914 l 0,2.450747 40.859177,0 c -0.566406,-1.425701 -1.944788,-2.450747 -3.57568,-2.450747 l -20.570205,0 c 0,-2.13673 -1.720184,-3.856914 -3.856914,-3.856914 l -8.999464,0 z m -0.642819,8.999465 c -3.205095,0 -5.78537,2.580275 -5.78537,5.78537 l 0,21.855842 c 0,3.205095 2.580275,5.785371 5.78537,5.785371 l 5.78537,0 28.967027,0 c 3.231485,0 5.676841,-2.823005 5.745194,-5.785371 l 0,-21.855842 c 0,-3.205095 -2.580275,-5.78537 -5.78537,-5.78537 l -3.856914,0 -19.284567,0 -11.57074,0 z" />
  <path
     style="opacity:0.75;fill:#ffffff;fill-opacity:1;stroke:none"
     id="path76"
     inkscape:connector-curvature="0"
     d="m 42.88379,9.430756 c -4.27346,0 -7.713827,3.440367 -7.713827,7.713827 l 0.120528,0 c 0.606024,-3.660428 3.755847,-6.428189 7.593299,-6.428189 l 30.855307,0 c 4.27346,0 7.713827,3.440367 7.713827,7.713827 l 0,-1.285638 c 0,-4.27346 -3.440367,-7.713827 -7.713827,-7.713827 l -30.855307,0 z m -21.896019,9.119993 c -2.13673,0 -3.856914,1.720184 -3.856914,3.856914 l 0,1.285637 c 0,-2.13673 1.720184,-3.856913 3.856914,-3.856913 l 8.999464,0 c 2.13673,0 3.856914,1.720183 3.856914,3.856913 l 20.570205,0 c 1.080465,0 2.03585,0.446869 2.73198,1.16511 l 0.8437,0 c -0.566406,-1.425701 -1.944788,-2.450747 -3.57568,-2.450747 l -20.570205,0 c 0,-2.13673 -1.720184,-3.856914 -3.856914,-3.856914 l -8.999464,0 z m -0.642819,8.999465 c -3.205095,0 -5.78537,2.580275 -5.78537,5.78537 l 0,1.285638 c 0,-3.205095 2.580275,-5.78537 5.78537,-5.78537 l 11.57074,0 19.284567,0 3.856914,0 c 3.205095,0 5.78537,2.580275 5.78537,5.78537 l 0,-1.285638 c 0,-3.205095 -2.580275,-5.78537 -5.78537,-5.78537 l -3.856914,0 -19.284567,0 -11.57074,0 z M 73.739097,59.57063 c 0,2.13673 -1.720184,3.856914 -3.856914,3.856914 l -34.71222,0 c 0,0.436008 0.05167,0.869743 0.120528,1.285637 l 34.591692,0 c 2.13673,0 3.856914,-1.720183 3.856914,-3.856913 l 0,-1.285638 z m -23.141481,16.713292 0,1.285637 3.856914,0 0,-1.285637 -3.856914,0 z m 11.570741,0 0,1.285637 3.856913,0 0,-1.285637 -3.856913,0 z m -23.141481,2.571275 0,1.285638 11.57074,0 0,-1.285638 -11.57074,0 z m 26.998394,0 0,1.285638 11.57074,0 0,-1.285638 -11.57074,0 z" />
</svg>
