<svg height="96" width="96" xmlns="http://www.w3.org/2000/svg" xmlns:xlink="http://www.w3.org/1999/xlink" xmlns:sodipodi="http://sodipodi.sourceforge.net/DTD/sodipodi-0.dtd" xmlns:inkscape="http://www.inkscape.org/namespaces/inkscape">
 <defs>
  <linearGradient x2="0" y1="92.54" y2="7.02" gradientUnits="userSpaceOnUse" id="ButtonShadow-0" gradientTransform="matrix(1.0059 0 0 0.99417 100 0)">
   <stop stop-color="#000000" stop-opacity="1"/>
   <stop stop-color="#000000" stop-opacity="0.588" offset="1"/>
  </linearGradient>
  <linearGradient x2="0" xlink:href="#ButtonShadow-0" y1="6.132" y2="90.24" gradientUnits="userSpaceOnUse" id="linearGradient3780" gradientTransform="matrix(1.02381 0 0 -1.0119 -1.143 98.07)"/>
  <linearGradient x2="0" xlink:href="#ButtonShadow-0" y1="6.132" y2="90.24" gradientUnits="userSpaceOnUse" id="linearGradient3721" gradientTransform="matrix(1 0 0 -1 0 97)"/>
  <radialGradient cy="90.17" r="42" gradientUnits="userSpaceOnUse" id="radialGradient3619-3" cx="48" gradientTransform="matrix(1.15731 0 0 0.99591 -7.551 0.197)">
   <stop stop-color="#ffffff" stop-opacity="1"/>
   <stop stop-color="#ffffff" stop-opacity="0" offset="1"/>
  </radialGradient>
  <linearGradient x1="3" x2="19" gradientUnits="userSpaceOnUse" id="linearGradient3139" gradientTransform="matrix(0 3.125 -3.125 0 84.38 11.625)">
   <stop stop-color="#f0f0f0" stop-opacity="1"/>
   <stop stop-color="#aaaaaa" stop-opacity="1" offset="1"/>
  </linearGradient>
  <rect x="6" rx="6" y="6" fill="#000000" fill-opacity="1" stroke="none" fill-rule="nonzero" height="84" id="SVGCleanerId_0" opacity="0.6" width="84"/>
 </defs>
 <path d="M 12,3.96875 C 6.4889098,3.96875 1.96875,8.4889098 1.96875,14 l 0,71 c 0,5.51109 4.5201597,10.03125 10.03125,10.03125 l 72,0 c 5.51109,0 10.03125,-4.52016 10.03125,-10.03125 l 0,-71 C 94.03125,8.4889097 89.51109,3.96875 84,3.96875 l -72,0 z M 12,6 84,6 c 3.324,0 6,2.676 6,6 l 0,72 c 0,3.324 -2.676,6 -6,6 L 12,90 C 8.676,90 6,87.324 6,84 L 6,12 C 6,8.676 8.676,6 12,6 z" display="inline" fill="url(#linearGradient3780)" fill-opacity="1" fill-rule="nonzero" stroke="none" opacity="0.08" inkscape:connector-curvature="0"/>
 <path d="M 12,4.96875 C 7.0283671,4.96875 2.96875,9.0283671 2.96875,14 l 0,71 c 0,4.971633 4.059617,9.03125 9.03125,9.03125 l 72,0 c 4.971633,0 9.03125,-4.059617 9.03125,-9.03125 l 0,-71 C 93.03125,9.028367 88.971633,4.96875 84,4.96875 l -72,0 z M 12,6 84,6 c 3.324,0 6,2.676 6,6 l 0,72 c 0,3.324 -2.676,6 -6,6 L 12,90 C 8.676,90 6,87.324 6,84 L 6,12 C 6,8.676 8.676,6 12,6 z" display="inline" fill="url(#linearGradient3780)" fill-opacity="1" fill-rule="nonzero" stroke="none" opacity="0.1" inkscape:connector-curvature="0"/>
 <path d="M 11.1875,6.03125 C 7.159982,6.4419011 4,9.8664375 4,14 l 0,71 c 0,4.409133 3.590867,8 8,8 l 72,0 c 4.409133,0 8,-3.590867 8,-8 L 92,14 C 92,9.8029382 88.741028,6.3539584 84.625,6.03125 87.657886,6.337417 90,8.88375 90,12 l 0,72 c 0,3.324 -2.676,6 -6,6 L 12,90 C 8.676,90 6,87.324 6,84 L 6,12 c 0,-3.11625 2.342114,-5.662583 5.375,-5.96875 -0.06227,0.00488 -0.12563,-0.00631 -0.1875,0 z" display="inline" fill="url(#linearGradient3780)" fill-opacity="1" fill-rule="nonzero" stroke="none" opacity="0.2" inkscape:connector-curvature="0"/>
 <path d="M 6.4375,9.75 C 5.5380109,10.927446 5,12.397277 5,14 l 0,71 c 0,3.878 3.122,7 7,7 l 72,0 c 3.878,0 7,-3.122 7,-7 L 91,14 C 91,12.397277 90.461989,10.927446 89.5625,9.75 89.841816,10.444095 90,11.203625 90,12 l 0,72 c 0,3.324 -2.676,6 -6,6 L 12,90 C 8.676,90 6,87.324 6,84 L 6,12 C 6,11.203625 6.1581836,10.444095 6.4375,9.75 z" display="inline" fill="url(#linearGradient3780)" fill-opacity="1" fill-rule="nonzero" stroke="none" opacity="0.3" inkscape:connector-curvature="0"/>
 <path d="m 6,84 0,1 c 0,3.324 2.676,6 6,6 l 72,0 c 3.324,0 6,-2.676 6,-6 l 0,-1 c 0,3.324 -2.676,6 -6,6 L 12,90 C 8.676,90 6,87.324 6,84 z" display="inline" fill="url(#linearGradient3721)" fill-opacity="1" fill-rule="nonzero" stroke="none" opacity="0.45" inkscape:connector-curvature="0"/>
 <g display="inline">
  <use xlink:href="#SVGCleanerId_0"/>
  <path d="M 12,90 C 8.676,90 6,87.324 6,84 L 6,82 6,14 6,12 c 0,-0.334721 0.04135,-0.6507 0.09375,-0.96875 0.0487,-0.295596 0.09704,-0.596915 0.1875,-0.875 C 6.29113,10.12587 6.302142,10.09265 6.3125,10.0625 6.411365,9.774729 6.5473802,9.515048 6.6875,9.25 6.8320918,8.976493 7.0031161,8.714385 7.1875,8.46875 7.3718839,8.223115 7.5612765,7.995278 7.78125,7.78125 8.221197,7.353194 8.72416,6.966724 9.28125,6.6875 9.559795,6.547888 9.8547231,6.440553 10.15625,6.34375 9.9000482,6.443972 9.6695391,6.580022 9.4375,6.71875 c -0.00741,0.0044 -0.023866,-0.0045 -0.03125,0 -0.031933,0.0193 -0.062293,0.04251 -0.09375,0.0625 -0.120395,0.0767 -0.2310226,0.163513 -0.34375,0.25 -0.1061728,0.0808 -0.2132809,0.161112 -0.3125,0.25 C 8.4783201,7.442683 8.3087904,7.626638 8.15625,7.8125 8.0486711,7.942755 7.9378561,8.077785 7.84375,8.21875 7.818661,8.25713 7.805304,8.30462 7.78125,8.34375 7.716487,8.446782 7.6510225,8.548267 7.59375,8.65625 7.4927417,8.850956 7.3880752,9.071951 7.3125,9.28125 7.30454,9.30306 7.288911,9.3218 7.28125,9.34375 7.2494249,9.4357 7.2454455,9.530581 7.21875,9.625 7.1884177,9.731618 7.1483606,9.828031 7.125,9.9375 7.0521214,10.279012 7,10.635705 7,11 l 0,2 0,68 0,2 c 0,2.781848 2.2181517,5 5,5 l 2,0 68,0 2,0 c 2.781848,0 5,-2.218152 5,-5 l 0,-2 0,-68 0,-2 C 89,10.635705 88.94788,10.279012 88.875,9.9375 88.83085,9.730607 88.78662,9.539842 88.71875,9.34375 88.71105,9.3218 88.69545,9.30306 88.6875,9.28125 88.62476,9.107511 88.549117,8.913801 88.46875,8.75 88.42717,8.6672 88.38971,8.580046 88.34375,8.5 88.28915,8.40279 88.216976,8.31165 88.15625,8.21875 88.06214,8.077785 87.951329,7.942755 87.84375,7.8125 87.700576,7.63805 87.540609,7.465502 87.375,7.3125 87.36383,7.3023 87.35502,7.29135 87.34375,7.28125 87.205364,7.155694 87.058659,7.046814 86.90625,6.9375 86.803679,6.86435 86.701932,6.784136 86.59375,6.71875 c -0.0074,-0.0045 -0.02384,0.0044 -0.03125,0 -0.232039,-0.138728 -0.462548,-0.274778 -0.71875,-0.375 0.301527,0.0968 0.596455,0.204138 0.875,0.34375 0.55709,0.279224 1.060053,0.665694 1.5,1.09375 0.219973,0.214028 0.409366,0.441865 0.59375,0.6875 0.184384,0.245635 0.355408,0.507743 0.5,0.78125 0.14012,0.265048 0.276135,0.524729 0.375,0.8125 0.01041,0.03078 0.02133,0.06274 0.03125,0.09375 0.09046,0.278085 0.1388,0.579404 0.1875,0.875 C 89.95865,11.3493 90,11.665279 90,12 l 0,2 0,68 0,2 c 0,3.324 -2.676,6 -6,6 l -72,0 z" fill="url(#radialGradient3619-3)" fill-opacity="1" fill-rule="nonzero" stroke="none" opacity="0.15" inkscape:connector-curvature="0"/>
 </g>
 <g display="inline">
  <path d="m 48,22 c -14.888876,0 -27,12.111124 -27,27 0,2.216974 0.273829,4.367666 0.78125,6.4375 l -0.03125,0 c -1.25e-4,-5.66e-4 0.02737,0.01673 0.03125,0.03125 0.0122,0.04563 0.03179,0.126738 0.03125,0.125 -7.16e-4,-0.0023 0.06341,0.189722 0.0625,0.1875 -9.07e-4,-0.0022 0.06359,0.127138 0.0625,0.125 -0.0011,-0.0021 0.09502,0.158288 0.09375,0.15625 -0.0013,-0.002 0.09519,0.158173 0.09375,0.15625 -4.02e-4,-5.38e-4 0.01907,0.01633 0.03125,0.03125 -0.0066,0.01528 -0.03148,0.03185 -0.03125,0.03125 9.34e-4,-0.0025 -0.0632,0.190064 -0.0625,0.1875 6.97e-4,-0.0026 -0.0317,0.190118 -0.03125,0.1875 4.54e-4,-0.0026 -0.03146,0.190149 -0.03125,0.1875 1.72e-4,-0.0022 0.0014,0.113245 0,0.15625 -2.8e-4,0.0086 7e-6,0.03169 0,0.03125 L 22,63 16,63 c 0.0028,3.5e-5 -0.190313,2.46e-4 -0.1875,0 0.0028,-2.46e-4 -0.190275,0.03178 -0.1875,0.03125 0.0028,-5.25e-4 -0.190209,0.03205 -0.1875,0.03125 0.0027,-7.99e-4 -0.190116,0.06356 -0.1875,0.0625 0.0026,-0.0011 -0.189997,0.09507 -0.1875,0.09375 0.0025,-0.0013 -0.189853,0.09531 -0.1875,0.09375 0.0024,-0.0016 -0.158436,0.126788 -0.15625,0.125 0.0022,-0.0018 -0.158247,0.126997 -0.15625,0.125 0.002,-0.002 -0.126788,0.158436 -0.125,0.15625 0.0018,-0.0022 -0.126562,0.158603 -0.125,0.15625 0.0016,-0.0024 -0.09507,0.189997 -0.09375,0.1875 0.0013,-0.0025 -0.09482,0.190116 -0.09375,0.1875 0.0011,-0.0026 -0.0633,0.190209 -0.0625,0.1875 7.99e-4,-0.0027 -0.03177,0.190275 -0.03125,0.1875 5.25e-4,-0.0028 -0.0315,0.190313 -0.03125,0.1875 2.46e-4,-0.0028 3.5e-5,0.190324 0,0.1875 l 0,8 c 3.5e-5,-0.0028 2.46e-4,0.190313 0,0.1875 -2.46e-4,-0.0028 0.03177,0.190275 0.03125,0.1875 -5.25e-4,-0.0028 0.03205,0.190209 0.03125,0.1875 -7.99e-4,-0.0027 0.06357,0.190116 0.0625,0.1875 -0.0011,-0.0026 0.09507,0.189997 0.09375,0.1875 -0.0013,-0.0025 0.09531,0.189853 0.09375,0.1875 -0.0016,-0.0024 0.126788,0.158436 0.125,0.15625 -0.0018,-0.0022 0.126997,0.158247 0.125,0.15625 -0.002,-0.002 0.158436,0.126788 0.15625,0.125 -0.0022,-0.0018 0.158603,0.126562 0.15625,0.125 -0.0024,-0.0016 0.189997,0.09507 0.1875,0.09375 -0.0025,-0.0013 0.190116,0.09481 0.1875,0.09375 -0.0026,-0.0011 0.190209,0.0633 0.1875,0.0625 -0.0027,-7.99e-4 0.190275,0.03177 0.1875,0.03125 -0.0028,-5.25e-4 0.190313,0.0315 0.1875,0.03125 -0.0028,-2.46e-4 0.190324,-3.5e-5 0.1875,0 l 6,0 0,6 c 3.5e-5,-0.0028 2.46e-4,0.190313 0,0.1875 -2.46e-4,-0.0028 0.03177,0.190275 0.03125,0.1875 -5.25e-4,-0.0028 0.03205,0.190209 0.03125,0.1875 -7.99e-4,-0.0027 0.06357,0.190116 0.0625,0.1875 -0.0011,-0.0026 0.09507,0.189997 0.09375,0.1875 -0.0013,-0.0025 0.09531,0.189853 0.09375,0.1875 -0.0016,-0.0024 0.126788,0.158436 0.125,0.15625 -0.0018,-0.0022 0.126997,0.158247 0.125,0.15625 -0.002,-0.002 0.158436,0.126788 0.15625,0.125 -0.0022,-0.0018 0.158603,0.126562 0.15625,0.125 -0.0024,-0.0016 0.189997,0.09507 0.1875,0.09375 -0.0025,-0.0013 0.190116,0.09481 0.1875,0.09375 -0.0026,-0.0011 0.190209,0.0633 0.1875,0.0625 -0.0027,-7.99e-4 0.190275,0.03177 0.1875,0.03125 -0.0028,-5.25e-4 0.190313,0.0315 0.1875,0.03125 -0.0028,-2.46e-4 0.190324,-3.5e-5 0.1875,0 l 8,0 c -0.0028,-3.5e-5 0.190313,-2.46e-4 0.1875,0 -0.0028,2.46e-4 0.190275,-0.03177 0.1875,-0.03125 -0.0028,5.25e-4 0.190209,-0.03205 0.1875,-0.03125 -0.0027,7.99e-4 0.190116,-0.06356 0.1875,-0.0625 -0.0026,0.0011 0.189997,-0.09507 0.1875,-0.09375 -0.0025,0.0013 0.189853,-0.09531 0.1875,-0.09375 -0.0024,0.0016 0.158436,-0.126788 0.15625,-0.125 -0.0022,0.0018 0.158247,-0.126997 0.15625,-0.125 -0.002,0.002 0.126788,-0.158436 0.125,-0.15625 -0.0018,0.0022 0.126562,-0.158603 0.125,-0.15625 -0.0016,0.0024 0.09507,-0.189997 0.09375,-0.1875 -0.0013,0.0025 0.09481,-0.190116 0.09375,-0.1875 -0.0011,0.0026 0.0633,-0.190209 0.0625,-0.1875 -7.99e-4,0.0027 0.03178,-0.190275 0.03125,-0.1875 -5.25e-4,0.0028 0.0315,-0.190313 0.03125,-0.1875 -2.46e-4,0.0028 -3.5e-5,-0.190324 0,-0.1875 l 0,-6 6,0 c -0.0028,-3.5e-5 0.190313,-2.46e-4 0.1875,0 -0.0028,2.46e-4 0.190275,-0.03177 0.1875,-0.03125 -0.0028,5.25e-4 0.190209,-0.03205 0.1875,-0.03125 -0.0027,7.99e-4 0.190116,-0.06356 0.1875,-0.0625 0.0056,0.0046 0.03156,2.3e-4 0.03125,0 -0.0019,-0.0014 0.158288,0.09502 0.15625,0.09375 -0.002,-0.0013 0.158388,0.09484 0.15625,0.09375 -0.0021,-0.0011 0.127222,0.06341 0.125,0.0625 -0.0022,-9.07e-4 0.189791,0.06322 0.1875,0.0625 -0.0017,-5.43e-4 0.07937,0.01905 0.125,0.03125 0.01452,0.0039 0.03182,0.03137 0.03125,0.03125 l 0,-0.03125 C 43.632334,75.726171 45.783026,76 48,76 62.888876,76 75,63.888876 75,49 75,34.111124 62.888876,22 48,22 z m -3.375,10.59375 c -1.059254,0.910834 -1.75,2.227811 -1.75,3.71875 l 0,12.875 c 0,2.68537 2.166892,4.893545 4.84375,4.9375 0.02889,4.74e-4 0.04854,1.17e-4 0.0625,0 0.007,-5.8e-5 0.02793,0 0.03125,0 0.101566,0.0011 0.227133,0 0.1875,0 l 0.1875,0 10.75,0 c 2.816897,0 5.125,-2.308103 5.125,-5.125 0,-2.816897 -2.308103,-5.125 -5.125,-5.125 l -5.8125,0 0,-7.5625 c 0,-1.490939 -0.690746,-2.807915 -1.75,-3.71875 C 59.018423,34.148848 64.75,40.882234 64.75,49 c 0,9.277444 -7.472553,16.75 -16.75,16.75 -1.87905,0 -3.650218,-0.333159 -5.34375,-0.90625 l 0,0.03125 c 0.0016,5.77e-4 -0.09538,-0.06298 -0.09375,-0.0625 0.0016,4.8e-4 -0.126659,-0.03163 -0.125,-0.03125 0.0017,3.81e-4 -0.126678,-2.8e-4 -0.125,0 0.0017,2.8e-4 -0.126692,-0.03143 -0.125,-0.03125 0.0017,1.79e-4 -0.09545,-7.7e-5 -0.09375,0 0.0013,5.8e-5 -0.05982,5.39e-4 -0.09375,0 -0.0082,-0.05904 -0.0316,-0.126875 -0.03125,-0.125 5.25e-4,0.0028 -0.03205,-0.190209 -0.03125,-0.1875 7.99e-4,0.0027 -0.06356,-0.190116 -0.0625,-0.1875 0.0011,0.0026 -0.09507,-0.189997 -0.09375,-0.1875 0.0013,0.0025 -0.09531,-0.189853 -0.09375,-0.1875 0.0016,0.0024 -0.126788,-0.158436 -0.125,-0.15625 0.0018,0.0022 -0.126997,-0.158247 -0.125,-0.15625 0.002,0.002 -0.158436,-0.126788 -0.15625,-0.125 0.0022,0.0018 -0.158603,-0.126562 -0.15625,-0.125 0.0024,0.0016 -0.189997,-0.09507 -0.1875,-0.09375 0.0025,0.0013 -0.190116,-0.09481 -0.1875,-0.09375 0.0026,0.0011 -0.190209,-0.0633 -0.1875,-0.0625 0.0027,7.99e-4 -0.190275,-0.03178 -0.1875,-0.03125 0.0028,5.25e-4 -0.190313,-0.0315 -0.1875,-0.03125 0.0028,2.46e-4 -0.190324,3.5e-5 -0.1875,0 l -6,0 0,-6 c -3.5e-5,0.0028 -2.46e-4,-0.190313 0,-0.1875 2.46e-4,0.0028 -0.03178,-0.190275 -0.03125,-0.1875 5.25e-4,0.0028 -0.03205,-0.190209 -0.03125,-0.1875 7.99e-4,0.0027 -0.06356,-0.190116 -0.0625,-0.1875 0.0011,0.0026 -0.09507,-0.189997 -0.09375,-0.1875 0.0013,0.0025 -0.09531,-0.189853 -0.09375,-0.1875 0.0016,0.0024 -0.126788,-0.158436 -0.125,-0.15625 0.0018,0.0022 -0.126997,-0.158247 -0.125,-0.15625 0.002,0.002 -0.158436,-0.126788 -0.15625,-0.125 0.0022,0.0018 -0.158603,-0.126562 -0.15625,-0.125 0.0024,0.0016 -0.189997,-0.09507 -0.1875,-0.09375 0.0025,0.0013 -0.190116,-0.09481 -0.1875,-0.09375 0.0026,0.0011 -0.190209,-0.0633 -0.1875,-0.0625 0.0027,7.99e-4 -0.190275,-0.03178 -0.1875,-0.03125 0.0019,3.55e-4 -0.06596,-0.02307 -0.125,-0.03125 -5.39e-4,-0.03393 -5.8e-5,-0.09502 0,-0.09375 7.7e-5,0.0017 -1.79e-4,-0.09544 0,-0.09375 1.79e-4,0.0017 -0.03153,-0.126678 -0.03125,-0.125 2.8e-4,0.0017 -3.81e-4,-0.126659 0,-0.125 3.81e-4,0.0017 -0.03173,-0.126633 -0.03125,-0.125 4.8e-4,0.0016 -0.06308,-0.09535 -0.0625,-0.09375 l 0.03125,0 C 31.583159,52.650218 31.25,50.87905 31.25,49 c 0,-8.117766 5.731579,-14.851152 13.375,-16.40625 z" stroke-width="1" fill="#000000" color="#000000" fill-opacity="1" fill-rule="nonzero" stroke="none" opacity="0.1" visibility="visible" transform="matrix(1 0 0 1 2 -2)"/>
  <path d="m 48,23.03125 c -14.324228,0 -25.96875,11.644522 -25.96875,25.96875 0,2.144089 0.257726,4.220572 0.75,6.21875 a 0.95692595,0.95692595 0 0 0 0.9375,0.75 l 6.53125,0 A 0.95692595,0.95692595 0 0 0 31.15625,54.6875 C 30.548413,52.89129 30.21875,50.993891 30.21875,49 c 0,-9.838232 7.943022,-17.78125 17.78125,-17.78125 9.838232,0 17.78125,7.943018 17.78125,17.78125 0,9.838229 -7.943018,17.78125 -17.78125,17.78125 -1.993891,0 -3.89129,-0.329663 -5.6875,-0.9375 A 0.95692595,0.95692595 0 0 0 41.03125,66.75 l 0,6.53125 a 0.95692595,0.95692595 0 0 0 0.75,0.9375 c 1.998178,0.492274 4.074661,0.75 6.21875,0.75 C 62.324228,74.96875 73.96875,63.324228 73.96875,49 73.96875,34.675772 62.324228,23.03125 48,23.03125 z m -0.1875,9.375 c -2.13664,0 -3.90625,1.769608 -3.90625,3.90625 l 0,12.875 c 0,2.115311 1.736067,3.871641 3.84375,3.90625 0.02125,3.49e-4 0.04117,0 0.0625,0 0.08412,0.0019 0.167607,0 0.1875,0 l 0.1875,0 10.75,0 c 2.244783,0 4.09375,-1.848967 4.09375,-4.09375 0,-2.244783 -1.848967,-4.09375 -4.09375,-4.09375 l -6.84375,0 0,-8.59375 c 0,-2.136641 -1.769609,-3.90625 -3.90625,-3.90625 l -0.375,0 z M 24,56.03125 A 0.95692595,0.95692595 0 0 0 23.03125,57 l 0,7.03125 -7.03125,0 A 0.95692595,0.95692595 0 0 0 15.03125,65 l 0,8 A 0.95692595,0.95692595 0 0 0 16,73.96875 l 7.03125,0 0,7.03125 A 0.95692595,0.95692595 0 0 0 24,81.96875 l 8,0 A 0.95692595,0.95692595 0 0 0 32.96875,81 l 0,-7.03125 7.03125,0 A 0.95692595,0.95692595 0 0 0 40.96875,73 l 0,-8 A 0.95692595,0.95692595 0 0 0 40,64.03125 l -7.03125,0 0,-7.03125 A 0.95692595,0.95692595 0 0 0 32,56.03125 l -8,0 z" stroke-width="1" fill="#000000" color="#000000" fill-opacity="1" fill-rule="nonzero" stroke="none" opacity="0.15" visibility="visible" transform="matrix(1 0 0 1 2 -2)"/>
  <path d="m 50,22 c -13.807119,0 -25,11.192881 -25,25 0,2.068482 0.245172,4.07771 0.71875,6 L 32.25,53 c -0.638801,-1.887711 -1,-3.896572 -1,-6 0,-10.355341 8.394663,-18.75 18.75,-18.75 10.355341,0 18.75,8.394659 18.75,18.75 0,10.355338 -8.394659,18.75 -18.75,18.75 -2.103428,0 -4.112289,-0.361199 -6,-1 l 0,6.53125 C 45.92229,71.754828 47.931518,72 50,72 63.807119,72 75,60.807119 75,47 75,33.192881 63.807119,22 50,22 z m -0.1875,9.375 c -1.612449,0 -2.9375,1.32505 -2.9375,2.9375 l 0,12.875 c 0,1.61245 1.325051,2.9375 2.9375,2.9375 0.06678,0.0044 0.119625,0 0.1875,0 l 0.1875,0 10.75,0 c 1.73125,0 3.125,-1.39375 3.125,-3.125 0,-1.73125 -1.39375,-3.125 -3.125,-3.125 l -7.8125,0 0,-9.5625 c 0,-1.61245 -1.32505,-2.9375 -2.9375,-2.9375 l -0.375,0 z M 26,55 l 0,8 -8,0 0,8 8,0 0,8 8,0 0,-8 8,0 0,-8 -8,0 0,-8 -8,0 z" stroke-width="1" fill="#000000" color="#000000" fill-opacity="1" fill-rule="nonzero" stroke="none" opacity="0.3" visibility="visible" inkscape:connector-curvature="0"/>
  <text x="104" font-size="4" font-stretch="normal" font-style="normal" letter-spacing="0" font-variant="normal" y="48" font-weight="normal" text-anchor="start" line-height="125%" fill="#000000" fill-opacity="1" stroke="none" word-spacing="0" writing-mode="lr-tb" font-family="Liberation Sans"><tspan x="104" y="48">Shadow opacity : 30, 15, 10, (8)</tspan>
  </text>
  <text x="124" font-size="4" font-stretch="normal" font-style="normal" letter-spacing="0" font-variant="normal" y="32" font-weight="normal" text-anchor="start" line-height="125%" fill="#000000" fill-opacity="1" stroke="none" word-spacing="0" writing-mode="lr-tb" font-family="Liberation Sans"><tspan x="124" y="32">Bevel opacity : 30 / 10</tspan>
  </text>
  <text x="124" font-size="4" font-stretch="normal" font-style="normal" letter-spacing="0" font-variant="normal" y="8" font-weight="normal" text-anchor="start" line-height="125%" fill="#000000" fill-opacity="1" stroke="none" word-spacing="0" writing-mode="lr-tb" font-family="Liberation Sans"><tspan x="124" y="8">Bevel opacity : 75 / 15</tspan>
  </text>
  <path d="m 50,21 c -13.807119,0 -25,11.192881 -25,25 0,2.068482 0.245172,4.07771 0.71875,6 L 32.25,52 c -0.638801,-1.887711 -1,-3.896572 -1,-6 0,-10.355341 8.394663,-18.75 18.75,-18.75 10.355341,0 18.75,8.394659 18.75,18.75 0,10.355338 -8.394659,18.75 -18.75,18.75 -2.103428,0 -4.112289,-0.361199 -6,-1 l 0,6.53125 C 45.92229,70.754828 47.931518,71 50,71 63.807119,71 75,59.807119 75,46 75,32.192881 63.807119,21 50,21 z m -0.1875,9.375 c -1.612449,0 -2.9375,1.32505 -2.9375,2.9375 l 0,12.875 c 0,1.61245 1.325051,2.9375 2.9375,2.9375 0.06678,0.0044 0.119625,0 0.1875,0 l 0.1875,0 10.75,0 c 1.73125,0 3.125,-1.39375 3.125,-3.125 0,-1.73125 -1.39375,-3.125 -3.125,-3.125 l -7.8125,0 0,-9.5625 c 0,-1.61245 -1.32505,-2.9375 -2.9375,-2.9375 l -0.375,0 z M 26,54 l 0,8 -8,0 0,8 8,0 0,8 8,0 0,-8 8,0 0,-8 -8,0 0,-8 -8,0 z" stroke-width="1" fill="url(#linearGradient3139)" color="#000000" fill-opacity="1" fill-rule="nonzero" stroke="none" visibility="visible" inkscape:connector-curvature="0"/>
  <path d="m 50,21 c -13.807119,0 -25,11.192881 -25,25 0,0.179334 -0.0037,0.352824 0,0.53125 C 25.251753,32.942059 36.350643,22 50,22 63.63884,22 74.731749,32.925367 75,46.5 75.00331,46.332513 75,46.168279 75,46 75,32.192881 63.807119,21 50,21 z m -0.1875,9.375 c -1.612449,0 -2.9375,1.32505 -2.9375,2.9375 l 0,1 c 0,-1.61245 1.325051,-2.9375 2.9375,-2.9375 l 0.375,0 c 1.61245,0 2.9375,1.32505 2.9375,2.9375 l 0,-1 c 0,-1.61245 -1.32505,-2.9375 -2.9375,-2.9375 l -0.375,0 z m 3.3125,12.5 0,1 7.8125,0 c 1.557696,0 2.820624,1.137738 3.0625,2.625 0.02695,-0.165706 0.0625,-0.326446 0.0625,-0.5 0,-1.73125 -1.39375,-3.125 -3.125,-3.125 l -7.8125,0 z M 68.71875,46.5 C 68.449556,56.620493 60.18547,64.75 50,64.75 c -2.103428,0 -4.112289,-0.361199 -6,-1 l 0,1 c 1.887711,0.638801 3.896572,1 6,1 10.355341,0 18.75,-8.394662 18.75,-18.75 0,-0.169871 -0.02676,-0.331213 -0.03125,-0.5 z m -37.4375,0.0625 C 31.277807,46.710374 31.25,46.851298 31.25,47 c 0,1.736784 0.242052,3.407126 0.6875,5 L 32.25,52 C 31.668727,50.282289 31.339831,48.460807 31.28125,46.5625 z M 26,54 l 0,1 8,0 0,-1 -8,0 z m -8,8 0,1 8,0 0,-1 -8,0 z m 16,0 0,1 8,0 0,-1 -8,0 z" stroke-width="1" fill="#ffffff" color="#000000" fill-opacity="1" fill-rule="nonzero" stroke="none" opacity="0.75" visibility="visible" inkscape:connector-curvature="0"/>
  <path d="m 50,26.25 c -10.355337,0 -18.75,8.394659 -18.75,18.75 0,0.189426 0.02545,0.374627 0.03125,0.5625 C 31.517574,35.41267 39.793365,27.25 50,27.25 60.18547,27.25 68.449556,35.379504 68.71875,45.5 68.72324,45.331213 68.75,45.169871 68.75,45 68.75,34.644659 60.355341,26.25 50,26.25 z m -3.125,18.9375 0,1 c 0,1.61245 1.325051,2.9375 2.9375,2.9375 0.06678,0.0044 0.119625,0 0.1875,0 l 0.1875,0 10.75,0 c 1.73125,0 3.125,-1.39375 3.125,-3.125 0,-0.173554 -0.03555,-0.334294 -0.0625,-0.5 -0.241876,1.487262 -1.504804,2.625 -3.0625,2.625 l -10.75,0 -0.1875,0 c -0.06788,0 -0.12072,0.0044 -0.1875,0 -1.612449,0 -2.9375,-1.32505 -2.9375,-2.9375 z M 75,45.5 C 74.731749,59.074633 63.63884,70 50,70 47.931518,70 45.92229,69.754828 44,69.28125 l 0,1 C 45.92229,70.754828 47.931518,71 50,71 63.807119,71 75,59.807119 75,46 c 0,-0.168279 0.0033,-0.332513 0,-0.5 z m -50,0.03125 c -0.0029,0.157067 0,0.310988 0,0.46875 0,2.068482 0.245172,4.07771 0.71875,6 L 32.25,52 c -0.111348,-0.329043 -0.218464,-0.663736 -0.3125,-1 l -6.21875,0 C 25.286231,49.24437 25.038711,47.410824 25,45.53125 z M 18,69 l 0,1 8,0 0,-1 -8,0 z m 16,0 0,1 8,0 0,-1 -8,0 z m -8,8 0,1 8,0 0,-1 -8,0 z" stroke-width="1" fill="#000000" color="#000000" fill-opacity="1" fill-rule="nonzero" stroke="none" opacity="0.15" visibility="visible" inkscape:connector-curvature="0"/>
 </g>
</svg>
