<?xml version="1.0" encoding="UTF-8" standalone="no"?>
<svg
   xmlns:dc="http://purl.org/dc/elements/1.1/"
   xmlns:cc="http://creativecommons.org/ns#"
   xmlns:rdf="http://www.w3.org/1999/02/22-rdf-syntax-ns#"
   xmlns:svg="http://www.w3.org/2000/svg"
   xmlns="http://www.w3.org/2000/svg"
   xmlns:xlink="http://www.w3.org/1999/xlink"
   xmlns:sodipodi="http://sodipodi.sourceforge.net/DTD/sodipodi-0.dtd"
   xmlns:inkscape="http://www.inkscape.org/namespaces/inkscape"
   height="96"
   width="96"
   id="svg2"
   version="1.1"
   inkscape:version="0.91 r13725"
   sodipodi:docname="appointment-new.svg">
  <metadata
     id="metadata68">
    <rdf:RDF>
      <cc:Work
         rdf:about="">
        <dc:format>image/svg+xml</dc:format>
        <dc:type
           rdf:resource="http://purl.org/dc/dcmitype/StillImage" />
      </cc:Work>
    </rdf:RDF>
  </metadata>
  <sodipodi:namedview
     pagecolor="#ffffff"
     bordercolor="#666666"
     borderopacity="1"
     objecttolerance="10"
     gridtolerance="10"
     guidetolerance="10"
     inkscape:pageopacity="0"
     inkscape:pageshadow="2"
     inkscape:window-width="1366"
     inkscape:window-height="716"
     id="namedview66"
     showgrid="false"
     inkscape:zoom="2.4583333"
     inkscape:cx="42.101694"
     inkscape:cy="47.999999"
     inkscape:window-x="0"
     inkscape:window-y="26"
     inkscape:window-maximized="1"
     inkscape:current-layer="svg2" />
  <defs
     id="defs4">
    <linearGradient
       x2="0"
       y1="92.54"
       y2="7.02"
       gradientUnits="userSpaceOnUse"
       id="ButtonShadow-0"
       gradientTransform="matrix(1.0059 0 0 0.99417 100 0)">
      <stop
         stop-color="#000000"
         stop-opacity="1"
         id="stop7" />
      <stop
         stop-color="#000000"
         stop-opacity="0.588"
         offset="1"
         id="stop9" />
    </linearGradient>
    <linearGradient
       x2="0"
       xlink:href="#ButtonShadow-0"
       y1="6.132"
       y2="90.24"
       gradientUnits="userSpaceOnUse"
       id="linearGradient3780"
       gradientTransform="matrix(1.02381 0 0 -1.0119 -1.143 98.07)" />
    <linearGradient
       x2="0"
       xlink:href="#ButtonShadow-0"
       y1="6.132"
       y2="90.24"
       gradientUnits="userSpaceOnUse"
       id="linearGradient3721"
       gradientTransform="matrix(1 0 0 -1 0 97)" />
    <radialGradient
       cy="90.17"
       r="42"
       gradientUnits="userSpaceOnUse"
       id="radialGradient3619-3"
       cx="48"
       gradientTransform="matrix(1.15731 0 0 0.99591 -7.551 0.197)">
      <stop
         stop-color="#ffffff"
         stop-opacity="1"
         id="stop14" />
      <stop
         stop-color="#ffffff"
         stop-opacity="0"
         offset="1"
         id="stop16" />
    </radialGradient>
    <linearGradient
       x1="3"
       x2="19"
       gradientUnits="userSpaceOnUse"
       id="linearGradient3139"
       gradientTransform="matrix(0,3.125,-3.125,0,84.38,11.625)">
      <stop
         stop-color="#1a1a1a"
         stop-opacity="1"
         id="stop19" />
      <stop
         stop-color="#4d4d4d"
         stop-opacity="1"
         offset="1"
         id="stop21" />
    </linearGradient>
    <rect
       x="6"
       rx="6"
       y="6"
       fill="#000000"
       fill-opacity="1"
       stroke="none"
       fill-rule="nonzero"
       height="84"
       id="SVGCleanerId_0"
       opacity="0.6"
       width="84" />
  </defs>
  <g
     id="g3369"
     transform="matrix(1.3114754,0,0,1.3114754,-12.983605,-18.229509)">
    <path
       d="m 50,20 c -14.888876,0 -27,12.111124 -27,27 0,2.216974 0.273829,4.367666 0.78125,6.4375 l -0.03125,0 c -1.25e-4,-5.66e-4 0.02737,0.01673 0.03125,0.03125 0.0122,0.04563 0.03179,0.126738 0.03125,0.125 -7.16e-4,-0.0023 0.06341,0.189722 0.0625,0.1875 -9.07e-4,-0.0022 0.06359,0.127138 0.0625,0.125 -0.0011,-0.0021 0.09502,0.158288 0.09375,0.15625 -0.0013,-0.002 0.09519,0.158173 0.09375,0.15625 -4.02e-4,-5.38e-4 0.01907,0.01633 0.03125,0.03125 -0.0066,0.01528 -0.03148,0.03185 -0.03125,0.03125 9.34e-4,-0.0025 -0.0632,0.190064 -0.0625,0.1875 6.97e-4,-0.0026 -0.0317,0.190118 -0.03125,0.1875 4.54e-4,-0.0026 -0.03146,0.190149 -0.03125,0.1875 1.72e-4,-0.0022 0.0014,0.113245 0,0.15625 -2.8e-4,0.0086 7e-6,0.03169 0,0.03125 L 24,61 18,61 c 0.0028,3.5e-5 -0.190313,2.46e-4 -0.1875,0 0.0028,-2.46e-4 -0.190275,0.03178 -0.1875,0.03125 0.0028,-5.25e-4 -0.190209,0.03205 -0.1875,0.03125 0.0027,-7.99e-4 -0.190116,0.06356 -0.1875,0.0625 0.0026,-0.0011 -0.189997,0.09507 -0.1875,0.09375 0.0025,-0.0013 -0.189853,0.09531 -0.1875,0.09375 0.0024,-0.0016 -0.158436,0.126788 -0.15625,0.125 0.0022,-0.0018 -0.158247,0.126997 -0.15625,0.125 0.002,-0.002 -0.126788,0.158436 -0.125,0.15625 0.0018,-0.0022 -0.126562,0.158603 -0.125,0.15625 0.0016,-0.0024 -0.09507,0.189997 -0.09375,0.1875 0.0013,-0.0025 -0.09482,0.190116 -0.09375,0.1875 0.0011,-0.0026 -0.0633,0.190209 -0.0625,0.1875 7.99e-4,-0.0027 -0.03177,0.190275 -0.03125,0.1875 5.25e-4,-0.0028 -0.0315,0.190313 -0.03125,0.1875 2.46e-4,-0.0028 3.5e-5,0.190324 0,0.1875 l 0,8 c 3.5e-5,-0.0028 2.46e-4,0.190313 0,0.1875 -2.46e-4,-0.0028 0.03177,0.190275 0.03125,0.1875 -5.25e-4,-0.0028 0.03205,0.190209 0.03125,0.1875 -7.99e-4,-0.0027 0.06357,0.190116 0.0625,0.1875 -0.0011,-0.0026 0.09507,0.189997 0.09375,0.1875 -0.0013,-0.0025 0.09531,0.189853 0.09375,0.1875 -0.0016,-0.0024 0.126788,0.158436 0.125,0.15625 -0.0018,-0.0022 0.126997,0.158247 0.125,0.15625 -0.002,-0.002 0.158436,0.126788 0.15625,0.125 -0.0022,-0.0018 0.158603,0.126562 0.15625,0.125 -0.0024,-0.0016 0.189997,0.09507 0.1875,0.09375 -0.0025,-0.0013 0.190116,0.09481 0.1875,0.09375 -0.0026,-0.0011 0.190209,0.0633 0.1875,0.0625 -0.0027,-7.99e-4 0.190275,0.03177 0.1875,0.03125 -0.0028,-5.25e-4 0.190313,0.0315 0.1875,0.03125 -0.0028,-2.46e-4 0.190324,-3.5e-5 0.1875,0 l 6,0 0,6 c 3.5e-5,-0.0028 2.46e-4,0.190313 0,0.1875 -2.46e-4,-0.0028 0.03177,0.190275 0.03125,0.1875 -5.25e-4,-0.0028 0.03205,0.190209 0.03125,0.1875 -7.99e-4,-0.0027 0.06357,0.190116 0.0625,0.1875 -0.0011,-0.0026 0.09507,0.189997 0.09375,0.1875 -0.0013,-0.0025 0.09531,0.189853 0.09375,0.1875 -0.0016,-0.0024 0.126788,0.158436 0.125,0.15625 -0.0018,-0.0022 0.126997,0.158247 0.125,0.15625 -0.002,-0.002 0.158436,0.126788 0.15625,0.125 -0.0022,-0.0018 0.158603,0.126562 0.15625,0.125 -0.0024,-0.0016 0.189997,0.09507 0.1875,0.09375 -0.0025,-0.0013 0.190116,0.09481 0.1875,0.09375 -0.0026,-0.0011 0.190209,0.0633 0.1875,0.0625 -0.0027,-7.99e-4 0.190275,0.03177 0.1875,0.03125 -0.0028,-5.25e-4 0.190313,0.0315 0.1875,0.03125 -0.0028,-2.46e-4 0.190324,-3.5e-5 0.1875,0 l 8,0 c -0.0028,-3.5e-5 0.190313,-2.46e-4 0.1875,0 -0.0028,2.46e-4 0.190275,-0.03177 0.1875,-0.03125 -0.0028,5.25e-4 0.190209,-0.03205 0.1875,-0.03125 -0.0027,7.99e-4 0.190116,-0.06356 0.1875,-0.0625 -0.0026,0.0011 0.189997,-0.09507 0.1875,-0.09375 -0.0025,0.0013 0.189853,-0.09531 0.1875,-0.09375 -0.0024,0.0016 0.158436,-0.126788 0.15625,-0.125 -0.0022,0.0018 0.158247,-0.126997 0.15625,-0.125 -0.002,0.002 0.126788,-0.158436 0.125,-0.15625 -0.0018,0.0022 0.126562,-0.158603 0.125,-0.15625 -0.0016,0.0024 0.09507,-0.189997 0.09375,-0.1875 -0.0013,0.0025 0.09481,-0.190116 0.09375,-0.1875 -0.0011,0.0026 0.0633,-0.190209 0.0625,-0.1875 -7.99e-4,0.0027 0.03178,-0.190275 0.03125,-0.1875 -5.25e-4,0.0028 0.0315,-0.190313 0.03125,-0.1875 -2.46e-4,0.0028 -3.5e-5,-0.190324 0,-0.1875 l 0,-6 6,0 c -0.0028,-3.5e-5 0.190313,-2.46e-4 0.1875,0 -0.0028,2.46e-4 0.190275,-0.03177 0.1875,-0.03125 -0.0028,5.25e-4 0.190209,-0.03205 0.1875,-0.03125 -0.0027,7.99e-4 0.190116,-0.06356 0.1875,-0.0625 0.0056,0.0046 0.03156,2.3e-4 0.03125,0 -0.0019,-0.0014 0.158288,0.09502 0.15625,0.09375 -0.002,-0.0013 0.158388,0.09484 0.15625,0.09375 -0.0021,-0.0011 0.127222,0.06341 0.125,0.0625 -0.0022,-9.07e-4 0.189791,0.06322 0.1875,0.0625 -0.0017,-5.43e-4 0.07937,0.01905 0.125,0.03125 0.01452,0.0039 0.03182,0.03137 0.03125,0.03125 l 0,-0.03125 C 45.632334,73.726171 47.783026,74 50,74 64.888876,74 77,61.888876 77,47 77,32.111124 64.888876,20 50,20 Z m -3.375,10.59375 c -1.059254,0.910834 -1.75,2.227811 -1.75,3.71875 l 0,12.875 c 0,2.68537 2.166892,4.893545 4.84375,4.9375 0.02889,4.74e-4 0.04854,1.17e-4 0.0625,0 0.007,-5.8e-5 0.02793,0 0.03125,0 0.101566,0.0011 0.227133,0 0.1875,0 l 0.1875,0 10.75,0 c 2.816897,0 5.125,-2.308103 5.125,-5.125 0,-2.816897 -2.308103,-5.125 -5.125,-5.125 l -5.8125,0 0,-7.5625 c 0,-1.490939 -0.690746,-2.807915 -1.75,-3.71875 C 61.018423,32.148848 66.75,38.882234 66.75,47 c 0,9.277444 -7.472553,16.75 -16.75,16.75 -1.87905,0 -3.650218,-0.333159 -5.34375,-0.90625 l 0,0.03125 c 0.0016,5.77e-4 -0.09538,-0.06298 -0.09375,-0.0625 0.0016,4.8e-4 -0.126659,-0.03163 -0.125,-0.03125 0.0017,3.81e-4 -0.126678,-2.8e-4 -0.125,0 0.0017,2.8e-4 -0.126692,-0.03143 -0.125,-0.03125 0.0017,1.79e-4 -0.09545,-7.7e-5 -0.09375,0 0.0013,5.8e-5 -0.05982,5.39e-4 -0.09375,0 -0.0082,-0.05904 -0.0316,-0.126875 -0.03125,-0.125 5.25e-4,0.0028 -0.03205,-0.190209 -0.03125,-0.1875 7.99e-4,0.0027 -0.06356,-0.190116 -0.0625,-0.1875 0.0011,0.0026 -0.09507,-0.189997 -0.09375,-0.1875 0.0013,0.0025 -0.09531,-0.189853 -0.09375,-0.1875 0.0016,0.0024 -0.126788,-0.158436 -0.125,-0.15625 0.0018,0.0022 -0.126997,-0.158247 -0.125,-0.15625 0.002,0.002 -0.158436,-0.126788 -0.15625,-0.125 0.0022,0.0018 -0.158603,-0.126562 -0.15625,-0.125 0.0024,0.0016 -0.189997,-0.09507 -0.1875,-0.09375 0.0025,0.0013 -0.190116,-0.09481 -0.1875,-0.09375 0.0026,0.0011 -0.190209,-0.0633 -0.1875,-0.0625 0.0027,7.99e-4 -0.190275,-0.03178 -0.1875,-0.03125 0.0028,5.25e-4 -0.190313,-0.0315 -0.1875,-0.03125 0.0028,2.46e-4 -0.190324,3.5e-5 -0.1875,0 l -6,0 0,-6 c -3.5e-5,0.0028 -2.46e-4,-0.190313 0,-0.1875 2.46e-4,0.0028 -0.03178,-0.190275 -0.03125,-0.1875 5.25e-4,0.0028 -0.03205,-0.190209 -0.03125,-0.1875 7.99e-4,0.0027 -0.06356,-0.190116 -0.0625,-0.1875 0.0011,0.0026 -0.09507,-0.189997 -0.09375,-0.1875 0.0013,0.0025 -0.09531,-0.189853 -0.09375,-0.1875 0.0016,0.0024 -0.126788,-0.158436 -0.125,-0.15625 0.0018,0.0022 -0.126997,-0.158247 -0.125,-0.15625 0.002,0.002 -0.158436,-0.126788 -0.15625,-0.125 0.0022,0.0018 -0.158603,-0.126562 -0.15625,-0.125 0.0024,0.0016 -0.189997,-0.09507 -0.1875,-0.09375 0.0025,0.0013 -0.190116,-0.09481 -0.1875,-0.09375 0.0026,0.0011 -0.190209,-0.0633 -0.1875,-0.0625 0.0027,7.99e-4 -0.190275,-0.03178 -0.1875,-0.03125 0.0019,3.55e-4 -0.06596,-0.02307 -0.125,-0.03125 -5.39e-4,-0.03393 -5.8e-5,-0.09502 0,-0.09375 7.7e-5,0.0017 -1.79e-4,-0.09544 0,-0.09375 1.79e-4,0.0017 -0.03153,-0.126678 -0.03125,-0.125 2.8e-4,0.0017 -3.81e-4,-0.126659 0,-0.125 3.81e-4,0.0017 -0.03173,-0.126633 -0.03125,-0.125 4.8e-4,0.0016 -0.06308,-0.09535 -0.0625,-0.09375 l 0.03125,0 C 33.583159,50.650218 33.25,48.87905 33.25,47 c 0,-8.117766 5.731579,-14.851152 13.375,-16.40625 z"
       visibility="visible"
       id="path42"
       inkscape:connector-curvature="0"
       style="color:black;visibility:visible;opacity:0.1;fill:black;fill-opacity:1;fill-rule:nonzero;stroke:none;stroke-width:1" />
    <path
       d="m 50,21.03125 c -14.324228,0 -25.96875,11.644522 -25.96875,25.96875 0,2.144089 0.257726,4.220572 0.75,6.21875 a 0.95692595,0.95692595 0 0 0 0.9375,0.75 l 6.53125,0 A 0.95692595,0.95692595 0 0 0 33.15625,52.6875 C 32.548413,50.89129 32.21875,48.993891 32.21875,47 c 0,-9.838232 7.943022,-17.78125 17.78125,-17.78125 9.838232,0 17.78125,7.943018 17.78125,17.78125 0,9.838229 -7.943018,17.78125 -17.78125,17.78125 -1.993891,0 -3.89129,-0.329663 -5.6875,-0.9375 A 0.95692595,0.95692595 0 0 0 43.03125,64.75 l 0,6.53125 a 0.95692595,0.95692595 0 0 0 0.75,0.9375 c 1.998178,0.492274 4.074661,0.75 6.21875,0.75 C 64.324228,72.96875 75.96875,61.324228 75.96875,47 75.96875,32.675772 64.324228,21.03125 50,21.03125 Z m -0.1875,9.375 c -2.13664,0 -3.90625,1.769608 -3.90625,3.90625 l 0,12.875 c 0,2.115311 1.736067,3.871641 3.84375,3.90625 0.02125,3.49e-4 0.04117,0 0.0625,0 0.08412,0.0019 0.167607,0 0.1875,0 l 0.1875,0 10.75,0 c 2.244783,0 4.09375,-1.848967 4.09375,-4.09375 0,-2.244783 -1.848967,-4.09375 -4.09375,-4.09375 l -6.84375,0 0,-8.59375 c 0,-2.136641 -1.769609,-3.90625 -3.90625,-3.90625 l -0.375,0 z M 26,54.03125 A 0.95692595,0.95692595 0 0 0 25.03125,55 l 0,7.03125 -7.03125,0 A 0.95692595,0.95692595 0 0 0 17.03125,63 l 0,8 A 0.95692595,0.95692595 0 0 0 18,71.96875 l 7.03125,0 0,7.03125 A 0.95692595,0.95692595 0 0 0 26,79.96875 l 8,0 A 0.95692595,0.95692595 0 0 0 34.96875,79 l 0,-7.03125 7.03125,0 A 0.95692595,0.95692595 0 0 0 42.96875,71 l 0,-8 A 0.95692595,0.95692595 0 0 0 42,62.03125 l -7.03125,0 0,-7.03125 A 0.95692595,0.95692595 0 0 0 34,54.03125 l -8,0 z"
       visibility="visible"
       id="path44"
       inkscape:connector-curvature="0"
       style="color:black;visibility:visible;opacity:0.15;fill:black;fill-opacity:1;fill-rule:nonzero;stroke:none;stroke-width:1" />
    <path
       d="m 50,22 c -13.807119,0 -25,11.192881 -25,25 0,2.068482 0.245172,4.07771 0.71875,6 L 32.25,53 c -0.638801,-1.887711 -1,-3.896572 -1,-6 0,-10.355341 8.394663,-18.75 18.75,-18.75 10.355341,0 18.75,8.394659 18.75,18.75 0,10.355338 -8.394659,18.75 -18.75,18.75 -2.103428,0 -4.112289,-0.361199 -6,-1 l 0,6.53125 C 45.92229,71.754828 47.931518,72 50,72 63.807119,72 75,60.807119 75,47 75,33.192881 63.807119,22 50,22 Z m -0.1875,9.375 c -1.612449,0 -2.9375,1.32505 -2.9375,2.9375 l 0,12.875 c 0,1.61245 1.325051,2.9375 2.9375,2.9375 0.06678,0.0044 0.119625,0 0.1875,0 l 0.1875,0 10.75,0 c 1.73125,0 3.125,-1.39375 3.125,-3.125 0,-1.73125 -1.39375,-3.125 -3.125,-3.125 l -7.8125,0 0,-9.5625 c 0,-1.61245 -1.32505,-2.9375 -2.9375,-2.9375 l -0.375,0 z M 26,55 l 0,8 -8,0 0,8 8,0 0,8 8,0 0,-8 8,0 0,-8 -8,0 0,-8 -8,0 z"
       visibility="visible"
       inkscape:connector-curvature="0"
       id="path46"
       style="color:black;visibility:visible;opacity:0.3;fill:black;fill-opacity:1;fill-rule:nonzero;stroke:none;stroke-width:1" />
    <path
       d="m 50,21 c -13.807119,0 -25,11.192881 -25,25 0,2.068482 0.245172,4.07771 0.71875,6 L 32.25,52 c -0.638801,-1.887711 -1,-3.896572 -1,-6 0,-10.355341 8.394663,-18.75 18.75,-18.75 10.355341,0 18.75,8.394659 18.75,18.75 0,10.355338 -8.394659,18.75 -18.75,18.75 -2.103428,0 -4.112289,-0.361199 -6,-1 l 0,6.53125 C 45.92229,70.754828 47.931518,71 50,71 63.807119,71 75,59.807119 75,46 75,32.192881 63.807119,21 50,21 Z m -0.1875,9.375 c -1.612449,0 -2.9375,1.32505 -2.9375,2.9375 l 0,12.875 c 0,1.61245 1.325051,2.9375 2.9375,2.9375 0.06678,0.0044 0.119625,0 0.1875,0 l 0.1875,0 10.75,0 c 1.73125,0 3.125,-1.39375 3.125,-3.125 0,-1.73125 -1.39375,-3.125 -3.125,-3.125 l -7.8125,0 0,-9.5625 c 0,-1.61245 -1.32505,-2.9375 -2.9375,-2.9375 l -0.375,0 z M 26,54 l 0,8 -8,0 0,8 8,0 0,8 8,0 0,-8 8,0 0,-8 -8,0 0,-8 -8,0 z"
       visibility="visible"
       inkscape:connector-curvature="0"
       id="path60"
       style="color:black;visibility:visible;fill:url(#linearGradient3139);fill-opacity:1;fill-rule:nonzero;stroke:none;stroke-width:1" />
    <path
       d="m 50,21 c -13.807119,0 -25,11.192881 -25,25 0,0.179334 -0.0037,0.352824 0,0.53125 C 25.251753,32.942059 36.350643,22 50,22 63.63884,22 74.731749,32.925367 75,46.5 75.00331,46.332513 75,46.168279 75,46 75,32.192881 63.807119,21 50,21 Z m -0.1875,9.375 c -1.612449,0 -2.9375,1.32505 -2.9375,2.9375 l 0,1 c 0,-1.61245 1.325051,-2.9375 2.9375,-2.9375 l 0.375,0 c 1.61245,0 2.9375,1.32505 2.9375,2.9375 l 0,-1 c 0,-1.61245 -1.32505,-2.9375 -2.9375,-2.9375 l -0.375,0 z m 3.3125,12.5 0,1 7.8125,0 c 1.557696,0 2.820624,1.137738 3.0625,2.625 0.02695,-0.165706 0.0625,-0.326446 0.0625,-0.5 0,-1.73125 -1.39375,-3.125 -3.125,-3.125 l -7.8125,0 z M 68.71875,46.5 C 68.449556,56.620493 60.18547,64.75 50,64.75 c -2.103428,0 -4.112289,-0.361199 -6,-1 l 0,1 c 1.887711,0.638801 3.896572,1 6,1 10.355341,0 18.75,-8.394662 18.75,-18.75 0,-0.169871 -0.02676,-0.331213 -0.03125,-0.5 z m -37.4375,0.0625 C 31.277807,46.710374 31.25,46.851298 31.25,47 c 0,1.736784 0.242052,3.407126 0.6875,5 L 32.25,52 C 31.668727,50.282289 31.339831,48.460807 31.28125,46.5625 Z M 26,54 l 0,1 8,0 0,-1 -8,0 z m -8,8 0,1 8,0 0,-1 -8,0 z m 16,0 0,1 8,0 0,-1 -8,0 z"
       visibility="visible"
       inkscape:connector-curvature="0"
       id="path62"
       style="color:black;visibility:visible;opacity:0.75;fill:white;fill-opacity:1;fill-rule:nonzero;stroke:none;stroke-width:1" />
    <path
       d="m 50,26.25 c -10.355337,0 -18.75,8.394659 -18.75,18.75 0,0.189426 0.02545,0.374627 0.03125,0.5625 C 31.517574,35.41267 39.793365,27.25 50,27.25 60.18547,27.25 68.449556,35.379504 68.71875,45.5 68.72324,45.331213 68.75,45.169871 68.75,45 68.75,34.644659 60.355341,26.25 50,26.25 Z m -3.125,18.9375 0,1 c 0,1.61245 1.325051,2.9375 2.9375,2.9375 0.06678,0.0044 0.119625,0 0.1875,0 l 0.1875,0 10.75,0 c 1.73125,0 3.125,-1.39375 3.125,-3.125 0,-0.173554 -0.03555,-0.334294 -0.0625,-0.5 -0.241876,1.487262 -1.504804,2.625 -3.0625,2.625 l -10.75,0 -0.1875,0 c -0.06788,0 -0.12072,0.0044 -0.1875,0 -1.612449,0 -2.9375,-1.32505 -2.9375,-2.9375 z M 75,45.5 C 74.731749,59.074633 63.63884,70 50,70 47.931518,70 45.92229,69.754828 44,69.28125 l 0,1 C 45.92229,70.754828 47.931518,71 50,71 63.807119,71 75,59.807119 75,46 c 0,-0.168279 0.0033,-0.332513 0,-0.5 z m -50,0.03125 c -0.0029,0.157067 0,0.310988 0,0.46875 0,2.068482 0.245172,4.07771 0.71875,6 L 32.25,52 c -0.111348,-0.329043 -0.218464,-0.663736 -0.3125,-1 l -6.21875,0 C 25.286231,49.24437 25.038711,47.410824 25,45.53125 Z M 18,69 l 0,1 8,0 0,-1 -8,0 z m 16,0 0,1 8,0 0,-1 -8,0 z m -8,8 0,1 8,0 0,-1 -8,0 z"
       visibility="visible"
       inkscape:connector-curvature="0"
       id="path64"
       style="color:black;visibility:visible;opacity:0.15;fill:black;fill-opacity:1;fill-rule:nonzero;stroke:none;stroke-width:1" />
  </g>
</svg>
