<?xml version="1.0" encoding="UTF-8" standalone="no"?>
<svg
   xmlns:dc="http://purl.org/dc/elements/1.1/"
   xmlns:cc="http://creativecommons.org/ns#"
   xmlns:rdf="http://www.w3.org/1999/02/22-rdf-syntax-ns#"
   xmlns:svg="http://www.w3.org/2000/svg"
   xmlns="http://www.w3.org/2000/svg"
   xmlns:xlink="http://www.w3.org/1999/xlink"
   xmlns:sodipodi="http://sodipodi.sourceforge.net/DTD/sodipodi-0.dtd"
   xmlns:inkscape="http://www.inkscape.org/namespaces/inkscape"
   height="96"
   width="96"
   id="svg2"
   version="1.1"
   inkscape:version="0.91 r13725"
   sodipodi:docname="bookmark-new.svg">
  <metadata
     id="metadata68">
    <rdf:RDF>
      <cc:Work
         rdf:about="">
        <dc:format>image/svg+xml</dc:format>
        <dc:type
           rdf:resource="http://purl.org/dc/dcmitype/StillImage" />
      </cc:Work>
    </rdf:RDF>
  </metadata>
  <sodipodi:namedview
     pagecolor="#ffffff"
     bordercolor="#666666"
     borderopacity="1"
     objecttolerance="10"
     gridtolerance="10"
     guidetolerance="10"
     inkscape:pageopacity="0"
     inkscape:pageshadow="2"
     inkscape:window-width="1366"
     inkscape:window-height="708"
     id="namedview66"
     showgrid="false"
     inkscape:zoom="3.4766083"
     inkscape:cx="23.399325"
     inkscape:cy="40.255704"
     inkscape:window-x="0"
     inkscape:window-y="24"
     inkscape:window-maximized="1"
     inkscape:current-layer="svg2" />
  <defs
     id="defs4">
    <linearGradient
       x2="0"
       y1="92.54"
       y2="7.02"
       gradientUnits="userSpaceOnUse"
       id="ButtonShadow-0"
       gradientTransform="matrix(1.0059 0 0 0.99417 100 0)">
      <stop
         stop-color="#000000"
         stop-opacity="1"
         id="stop7" />
      <stop
         stop-color="#000000"
         stop-opacity="0.588"
         offset="1"
         id="stop9" />
    </linearGradient>
    <linearGradient
       x2="0"
       xlink:href="#ButtonShadow-0"
       y1="6.132"
       y2="90.24"
       gradientUnits="userSpaceOnUse"
       id="linearGradient3780"
       gradientTransform="matrix(1.02381 0 0 -1.0119 -1.143 98.07)" />
    <linearGradient
       x2="0"
       xlink:href="#ButtonShadow-0"
       y1="6.132"
       y2="90.24"
       gradientUnits="userSpaceOnUse"
       id="linearGradient3721"
       gradientTransform="matrix(1 0 0 -1 0 97)" />
    <radialGradient
       cy="90.17"
       r="42"
       gradientUnits="userSpaceOnUse"
       id="radialGradient3619-3"
       cx="48"
       gradientTransform="matrix(1.15731 0 0 0.99591 -7.551 0.197)">
      <stop
         stop-color="#ffffff"
         stop-opacity="1"
         id="stop14" />
      <stop
         stop-color="#ffffff"
         stop-opacity="0"
         offset="1"
         id="stop16" />
    </radialGradient>
    <linearGradient
       x2="0"
       y1="5.532"
       y2="20.283"
       gradientUnits="userSpaceOnUse"
       id="linearGradient3877"
       gradientTransform="matrix(4.2493462,0,0,4.9992416,-7.31655,-18.042791)">
      <stop
         stop-color="#1a1a1a"
         stop-opacity="1"
         id="stop19" />
      <stop
         stop-color="#4d4d4d"
         stop-opacity="1"
         offset="1"
         id="stop21" />
    </linearGradient>
    <rect
       x="6"
       rx="6"
       y="6"
       fill="#000000"
       fill-opacity="1"
       stroke="none"
       fill-rule="nonzero"
       height="84"
       id="SVGCleanerId_0"
       opacity="0.6"
       width="84" />
  </defs>
  <path
     style="fill:url(#linearGradient3877);fill-opacity:1;stroke:none"
     id="path60"
     inkscape:connector-curvature="0"
     d="m 61.819479,9.6116208 c -2.553424,0 -4.609069,2.0556442 -4.609069,4.6090682 l 0,4.609069 0,64.52696 13.827206,-18.436274 13.827206,18.436274 0,-64.52696 0,-4.609069 c 0,-2.553424 -2.055645,-4.6090682 -4.609069,-4.6090682 l -18.436274,0 z M 23.410574,46.48417 l 0,12.290849 -12.29085,0 0,12.29085 12.29085,0 0,12.290849 12.29085,0 0,-12.290849 12.290849,0 0,-12.29085 -12.290849,0 0,-12.290849 -12.29085,0 z" />
  <path
     style="opacity:0.75;fill:#ffffff;fill-opacity:1;stroke:none"
     id="path62"
     inkscape:connector-curvature="0"
     d="m 61.819479,9.6116208 c -2.553424,0 -4.609069,2.0556442 -4.609069,4.6090682 l 0,1.536357 c 0,-2.553424 2.055645,-4.609069 4.609069,-4.609069 l 18.436274,0 c 2.553424,0 4.609069,2.055645 4.609069,4.609069 l 0,-1.536357 c 0,-2.553424 -2.055645,-4.6090682 -4.609069,-4.6090682 l -18.436274,0 z M 23.410574,46.48417 l 0,1.536356 12.29085,0 0,-1.536356 -12.29085,0 z m -12.29085,12.290849 0,1.536356 12.29085,0 0,-1.536356 -12.29085,0 z m 24.5817,0 0,1.536356 12.290849,0 0,-1.536356 -12.290849,0 z" />
  <path
     style="opacity:0.15;fill:#000000;fill-opacity:1;stroke:none"
     id="path64"
     inkscape:connector-curvature="0"
     d="m 71.037616,63.384088 -13.827206,18.436274 0,1.536356 13.827206,-18.436274 13.827206,18.436274 0,-1.536356 -13.827206,-18.436274 z m -59.917892,6.145425 0,1.536356 12.29085,0 0,-1.536356 -12.29085,0 z m 24.5817,0 0,1.536356 12.290849,0 0,-1.536356 -12.290849,0 z m -12.29085,12.290849 0,1.536356 12.29085,0 0,-1.536356 -12.29085,0 z" />
</svg>
