<?xml version="1.0" encoding="UTF-8" standalone="no"?>
<svg
   xmlns:dc="http://purl.org/dc/elements/1.1/"
   xmlns:cc="http://creativecommons.org/ns#"
   xmlns:rdf="http://www.w3.org/1999/02/22-rdf-syntax-ns#"
   xmlns:svg="http://www.w3.org/2000/svg"
   xmlns="http://www.w3.org/2000/svg"
   xmlns:xlink="http://www.w3.org/1999/xlink"
   xmlns:sodipodi="http://sodipodi.sourceforge.net/DTD/sodipodi-0.dtd"
   xmlns:inkscape="http://www.inkscape.org/namespaces/inkscape"
   height="96"
   width="96"
   id="svg2"
   version="1.1"
   inkscape:version="0.91 r13725"
   sodipodi:docname="bookmark-new.svg">
  <metadata
     id="metadata68">
    <rdf:RDF>
      <cc:Work
         rdf:about="">
        <dc:format>image/svg+xml</dc:format>
        <dc:type
           rdf:resource="http://purl.org/dc/dcmitype/StillImage" />
      </cc:Work>
    </rdf:RDF>
  </metadata>
  <sodipodi:namedview
     pagecolor="#ffffff"
     bordercolor="#666666"
     borderopacity="1"
     objecttolerance="10"
     gridtolerance="10"
     guidetolerance="10"
     inkscape:pageopacity="0"
     inkscape:pageshadow="2"
     inkscape:window-width="1366"
     inkscape:window-height="716"
     id="namedview66"
     showgrid="false"
     inkscape:zoom="2.4583333"
     inkscape:cx="-49.627119"
     inkscape:cy="47.999999"
     inkscape:window-x="0"
     inkscape:window-y="26"
     inkscape:window-maximized="1"
     inkscape:current-layer="svg2" />
  <defs
     id="defs4">
    <linearGradient
       x2="0"
       y1="92.54"
       y2="7.02"
       gradientUnits="userSpaceOnUse"
       id="ButtonShadow-0"
       gradientTransform="matrix(1.0059 0 0 0.99417 100 0)">
      <stop
         stop-color="#000000"
         stop-opacity="1"
         id="stop7" />
      <stop
         stop-color="#000000"
         stop-opacity="0.588"
         offset="1"
         id="stop9" />
    </linearGradient>
    <linearGradient
       x2="0"
       xlink:href="#ButtonShadow-0"
       y1="6.132"
       y2="90.24"
       gradientUnits="userSpaceOnUse"
       id="linearGradient3780"
       gradientTransform="matrix(1.02381 0 0 -1.0119 -1.143 98.07)" />
    <linearGradient
       x2="0"
       xlink:href="#ButtonShadow-0"
       y1="6.132"
       y2="90.24"
       gradientUnits="userSpaceOnUse"
       id="linearGradient3721"
       gradientTransform="matrix(1 0 0 -1 0 97)" />
    <radialGradient
       cy="90.17"
       r="42"
       gradientUnits="userSpaceOnUse"
       id="radialGradient3619-3"
       cx="48"
       gradientTransform="matrix(1.15731 0 0 0.99591 -7.551 0.197)">
      <stop
         stop-color="#ffffff"
         stop-opacity="1"
         id="stop14" />
      <stop
         stop-color="#ffffff"
         stop-opacity="0"
         offset="1"
         id="stop16" />
    </radialGradient>
    <linearGradient
       x2="0"
       y1="5.532"
       y2="20.283"
       gradientUnits="userSpaceOnUse"
       id="linearGradient3877"
       gradientTransform="matrix(2.76586,0,0,3.25396,10,6)">
      <stop
         stop-color="#1a1a1a"
         stop-opacity="1"
         id="stop19" />
      <stop
         stop-color="#4d4d4d"
         stop-opacity="1"
         offset="1"
         id="stop21" />
    </linearGradient>
    <rect
       x="6"
       rx="6"
       y="6"
       fill="#000000"
       fill-opacity="1"
       stroke="none"
       fill-rule="nonzero"
       height="84"
       id="SVGCleanerId_0"
       opacity="0.6"
       width="84" />
  </defs>
  <g
     id="g3369"
     transform="matrix(1.5363562,0,0,1.5363562,-22.680112,-27.260928)">
    <path
       d="m 55,23 c -3.069415,-0.09587 -5.414769,2.941483 -5,5.882469 0.02084,14.861062 -0.04168,29.730378 0.03125,44.586281 0.360862,1.760433 2.96925,2.0856 3.770483,0.483605 C 56.201156,70.759903 58.600578,67.567452 61,64.375 c 2.573496,3.375866 5.059379,6.827835 7.6875,10.15625 C 69.989783,75.769076 72.334708,74.46552 72,72.705844 71.9827,57.634131 72.03458,42.560663 71.9741,27.490047 71.760832,24.539642 68.767326,22.614595 65.970452,23 62.313635,23 58.656817,23 55,23 Z M 29.90625,46.96875 C 28.422928,46.998321 27.754834,48.589853 28,49.882469 28,51.588313 28,53.294156 28,55 25.803466,55.03872 23.594852,54.92067 21.40625,55.0625 19.745334,55.534192 19.980141,57.418536 20,58.764939 c 0.03991,2.274797 -0.08101,4.561984 0.0625,6.828811 0.471692,1.660916 2.356036,1.426109 3.702439,1.40625 1.411687,0 2.823374,0 4.235061,0 0.03872,2.196534 -0.07933,4.405148 0.0625,6.59375 0.471692,1.660916 2.356036,1.426109 3.702439,1.40625 2.274797,-0.03991 4.561984,0.08101 6.828811,-0.0625 C 40.254666,74.465808 40.019859,72.581464 40,71.235061 40,69.823374 40,68.411687 40,67 42.196534,66.96128 44.405148,67.07933 46.59375,66.9375 48.254666,66.465808 48.019859,64.581464 48,63.235061 47.960093,60.960264 48.081007,58.673077 47.9375,56.40625 47.465808,54.745334 45.581464,54.980141 44.235061,55 42.823374,55 41.411687,55 40,55 39.961279,52.803466 40.079329,50.594852 39.9375,48.40625 39.465808,46.745334 37.581464,46.980141 36.235061,47 34.127439,46.97861 32.005304,47.04243 29.90625,46.96875 Z"
       inkscape:connector-curvature="0"
       id="path42"
       style="opacity:0.1;fill:black;fill-opacity:1;stroke:none" />
    <path
       d="m 55,24 c -2.201637,0 -4,1.798363 -4,4 l 0,3 0,42 a 1.0055678,1.0055678 0 0 0 1.8125,0.59375 L 61,62.6875 69.1875,73.59375 A 1.0055678,1.0055678 0 0 0 71,73 l 0,-42 0,-3 c 0,-2.201637 -1.798363,-4 -4,-4 L 55,24 Z M 29.8125,48 A 1.0055678,1.0055678 0 0 0 29,49 l 0,7 -7,0 a 1.0055678,1.0055678 0 0 0 -1,1 l 0,8 a 1.0055678,1.0055678 0 0 0 1,1 l 7,0 0,7 a 1.0055678,1.0055678 0 0 0 1,1 l 8,0 a 1.0055678,1.0055678 0 0 0 1,-1 l 0,-7 7,0 a 1.0055678,1.0055678 0 0 0 1,-1 l 0,-8 a 1.0055678,1.0055678 0 0 0 -1,-1 l -7,0 0,-7 a 1.0055678,1.0055678 0 0 0 -1,-1 l -8,0 a 1.0055678,1.0055678 0 0 0 -0.1875,0 z"
       id="path44"
       inkscape:connector-curvature="0"
       style="opacity:0.15;fill:black;fill-opacity:1;stroke:none" />
    <path
       d="m 55,25 c -1.662,0 -3,1.338 -3,3 l 0,3 0,42 9,-12 9,12 0,-42 0,-3 c 0,-1.662 -1.338,-3 -3,-3 l -12,0 z m -25,24 0,8 -8,0 0,8 8,0 0,8 8,0 0,-8 8,0 0,-8 -8,0 0,-8 -8,0 z"
       inkscape:connector-curvature="0"
       id="path46"
       style="opacity:0.3;fill:black;fill-opacity:1;stroke:none" />
    <path
       d="m 55,24 c -1.662,0 -3,1.338 -3,3 l 0,3 0,42 9,-12 9,12 0,-42 0,-3 c 0,-1.662 -1.338,-3 -3,-3 l -12,0 z m -25,24 0,8 -8,0 0,8 8,0 0,8 8,0 0,-8 8,0 0,-8 -8,0 0,-8 -8,0 z"
       inkscape:connector-curvature="0"
       id="path60"
       style="fill:url(#linearGradient3877);fill-opacity:1;stroke:none" />
    <path
       d="m 55,24 c -1.662,0 -3,1.338 -3,3 l 0,1 c 0,-1.662 1.338,-3 3,-3 l 12,0 c 1.662,0 3,1.338 3,3 l 0,-1 c 0,-1.662 -1.338,-3 -3,-3 l -12,0 z m -25,24 0,1 8,0 0,-1 -8,0 z m -8,8 0,1 8,0 0,-1 -8,0 z m 16,0 0,1 8,0 0,-1 -8,0 z"
       inkscape:connector-curvature="0"
       id="path62"
       style="opacity:0.75;fill:white;fill-opacity:1;stroke:none" />
    <path
       d="m 61,59 -9,12 0,1 9,-12 9,12 0,-1 -9,-12 z m -39,4 0,1 8,0 0,-1 -8,0 z m 16,0 0,1 8,0 0,-1 -8,0 z m -8,8 0,1 8,0 0,-1 -8,0 z"
       inkscape:connector-curvature="0"
       id="path64"
       style="opacity:0.15;fill:black;fill-opacity:1;stroke:none" />
  </g>
</svg>
