<?xml version="1.0" encoding="UTF-8" standalone="no"?>
<svg
   xmlns:dc="http://purl.org/dc/elements/1.1/"
   xmlns:cc="http://creativecommons.org/ns#"
   xmlns:rdf="http://www.w3.org/1999/02/22-rdf-syntax-ns#"
   xmlns:svg="http://www.w3.org/2000/svg"
   xmlns="http://www.w3.org/2000/svg"
   xmlns:xlink="http://www.w3.org/1999/xlink"
   xmlns:sodipodi="http://sodipodi.sourceforge.net/DTD/sodipodi-0.dtd"
   xmlns:inkscape="http://www.inkscape.org/namespaces/inkscape"
   height="96"
   width="96"
   id="svg2"
   version="1.1"
   inkscape:version="0.91 r13725"
   sodipodi:docname="call-start.svg">
  <metadata
     id="metadata68">
    <rdf:RDF>
      <cc:Work
         rdf:about="">
        <dc:format>image/svg+xml</dc:format>
        <dc:type
           rdf:resource="http://purl.org/dc/dcmitype/StillImage" />
      </cc:Work>
    </rdf:RDF>
  </metadata>
  <sodipodi:namedview
     pagecolor="#ffffff"
     bordercolor="#666666"
     borderopacity="1"
     objecttolerance="10"
     gridtolerance="10"
     guidetolerance="10"
     inkscape:pageopacity="0"
     inkscape:pageshadow="2"
     inkscape:window-width="1366"
     inkscape:window-height="716"
     id="namedview66"
     showgrid="false"
     inkscape:zoom="2.4583333"
     inkscape:cx="25.830508"
     inkscape:cy="47.999999"
     inkscape:window-x="0"
     inkscape:window-y="26"
     inkscape:window-maximized="1"
     inkscape:current-layer="svg2" />
  <defs
     id="defs4">
    <linearGradient
       x2="0"
       y1="92.54"
       y2="7.02"
       gradientUnits="userSpaceOnUse"
       id="ButtonShadow-0"
       gradientTransform="matrix(1.0059 0 0 0.99417 100 0)">
      <stop
         stop-color="#000000"
         stop-opacity="1"
         id="stop7" />
      <stop
         stop-color="#000000"
         stop-opacity="0.588"
         offset="1"
         id="stop9" />
    </linearGradient>
    <linearGradient
       x2="0"
       xlink:href="#ButtonShadow-0"
       y1="6.132"
       y2="90.24"
       gradientUnits="userSpaceOnUse"
       id="linearGradient3780"
       gradientTransform="matrix(1.02381 0 0 -1.0119 -1.143 98.07)" />
    <linearGradient
       x2="0"
       xlink:href="#ButtonShadow-0"
       y1="6.132"
       y2="90.24"
       gradientUnits="userSpaceOnUse"
       id="linearGradient3721"
       gradientTransform="matrix(1 0 0 -1 0 97)" />
    <radialGradient
       cy="90.17"
       r="42"
       gradientUnits="userSpaceOnUse"
       id="radialGradient3619-3"
       cx="48"
       gradientTransform="matrix(1.15731 0 0 0.99591 -7.551 0.197)">
      <stop
         stop-color="#ffffff"
         stop-opacity="1"
         id="stop14" />
      <stop
         stop-color="#ffffff"
         stop-opacity="0"
         offset="1"
         id="stop16" />
    </radialGradient>
    <linearGradient
       x1="652.02"
       x2="627.67"
       y1="347.86"
       y2="349.29"
       gradientUnits="userSpaceOnUse"
       id="linearGradient7313"
       gradientTransform="matrix(0.17835588,-3.0044199,3.0375451,0.17630864,-1106.4532,1894.1473)">
      <stop
         stop-color="#1a1a1a"
         stop-opacity="1"
         id="stop19" />
      <stop
         stop-color="#4d4d4d"
         stop-opacity="1"
         offset="1"
         id="stop21" />
    </linearGradient>
    <rect
       x="6"
       rx="6"
       y="6"
       fill="#000000"
       fill-opacity="1"
       stroke="none"
       fill-rule="nonzero"
       height="84"
       id="SVGCleanerId_0"
       opacity="0.6"
       width="84" />
  </defs>
  <g
     id="g3369"
     transform="translate(-14.039958,13.029433)">
    <path
       d="m 83.849469,-5.0264664 c -0.484149,-0.015993 -0.963755,0.035126 -1.443071,0.096205 -0.404765,0.051581 -1.263125,0.1707904 -2.0203,0.7215355 -0.458559,0.3335472 -0.758315,0.7290272 -0.865842,0.8658426 -0.194314,0.2472416 -0.351482,0.50461 -0.529126,0.7696379 -0.359952,0.5370148 -0.790163,1.2204609 -1.154457,1.87599225 C 77.209198,0.43150513 75.29221,3.900166 73.50746,7.0472275 c -1.90838,3.3650395 -2.894143,5.0729645 -3.46337,6.3976145 -0.267289,0.622009 -0.592948,1.375594 -0.577229,2.308914 0.01566,0.929454 0.350239,1.596797 0.481024,1.875992 0.348367,0.743558 0.810855,1.313345 1.250661,1.82789 0.481555,0.563387 1.06412,1.107016 1.683583,1.731685 1.267621,1.278276 2.813842,2.693666 4.329213,3.944394 1.013247,0.836346 1.433591,1.33226 1.539276,1.443071 -0.05167,0.142229 -0.08525,0.303518 -0.144307,0.432921 -0.260413,0.570624 -0.613246,1.313601 -1.058252,2.116504 -0.910383,1.642563 -2.158539,3.62819 -3.319064,5.291261 -4.474934,6.41287 -10.055817,11.354385 -17.316851,15.296552 -0.888483,0.482314 -1.536407,0.804093 -1.924095,0.962047 -0.14911,0.06076 0.03362,0.0375 -0.0481,0.0481 -0.253748,-0.20066 -0.65885,-0.59392 -1.298764,-1.250662 -1.374015,-1.410173 -2.923317,-2.679559 -4.329213,-3.655779 -1.320397,-0.916853 -2.617272,-1.864456 -4.47352,-1.972197 -0.558457,-0.03242 -1.086564,0.08158 -1.154457,0.0962 -0.220103,0.04743 -0.385105,0.07972 -0.625331,0.144307 -0.493689,0.132747 -1.151155,0.355716 -1.875992,0.577229 -1.456426,0.445087 -3.286854,1.04943 -5.195056,1.683583 -3.838385,1.27561 -7.815653,2.652678 -9.716677,3.46337 -1.263792,0.539053 -2.795889,1.435749 -3.511473,3.174756 -0.622251,1.512189 -0.673293,2.977429 -0.721536,5.050748 -0.03764,1.617204 -0.02637,2.684373 0.0962,3.703883 0.133979,1.114411 0.522035,1.981442 0.913945,2.741835 3.090293,5.995585 10.654773,10.015589 18.134592,10.438213 3.437922,0.195354 5.813161,-0.147878 9.909087,-1.443071 9.050826,-2.862199 17.753825,-8.017656 26.504404,-15.488962 5.625631,-4.803193 8.721641,-7.980141 11.929387,-12.121796 2.843943,-3.671964 6.377544,-9.698077 8.1293,-13.949686 0.621786,-1.509071 1.518166,-3.929045 2.308913,-6.253308 0.785802,-2.309709 1.457972,-4.284882 1.731692,-5.531772 0.8509,-3.880754 0.1407,-9.34897 -1.34687,-13.276253 C 99.623229,4.9397989 98.476338,3.0178932 97.173824,1.3230459 95.889917,-0.34759004 94.520097,-1.8113119 92.844611,-2.7656552 91.117595,-3.7495479 88.91088,-4.2767237 86.831815,-4.6416475 85.798872,-4.8229526 84.812396,-4.9946634 83.849469,-5.0264664 Z"
       id="path42"
       inkscape:connector-curvature="0"
       style="opacity:0.1;fill:black;fill-opacity:1" />
    <path
       d="m 83.801366,-3.4871907 c -0.420083,-0.013853 -0.821074,-5.126e-4 -1.202559,0.048102 -0.381485,0.04861 -0.787817,0.1093809 -1.298764,0.4810236 -0.34769,0.252903 -0.420491,0.3777999 -0.577228,0.5772284 -0.156737,0.1994286 -0.313617,0.423678 -0.481024,0.6734332 -0.334812,0.4995103 -0.717698,1.11887331 -1.058252,1.73168514 -0.630807,1.13475256 -2.589055,4.63933386 -4.377315,7.79258326 -1.909278,3.3666241 -2.867009,5.0412901 -3.367166,6.2052061 -0.250078,0.581958 -0.44276,1.099378 -0.432921,1.683582 0.0099,0.584205 0.216725,1.042609 0.336717,1.298764 0.261014,0.557112 0.576444,0.935666 1.010149,1.443071 0.433705,0.507406 0.975318,1.066378 1.587378,1.683583 1.224122,1.234411 2.758733,2.63138 4.233008,3.848189 1.189864,0.982128 1.806918,1.609216 2.0203,1.924095 0.213382,0.314879 0.226298,0.295119 0.192409,0.865843 0.01941,-0.327087 -0.116646,0.278221 -0.384819,0.865842 -0.268171,0.587622 -0.633799,1.360101 -1.106354,2.212709 -0.945109,1.705216 -2.224367,3.728966 -3.415268,5.435567 -4.605611,6.600141 -10.401222,11.735663 -17.845978,15.777576 -1.839641,0.99865 -2.670198,1.281866 -2.934244,1.250662 -0.264046,-0.0312 -0.832571,-0.412723 -2.164607,-1.779788 -1.296011,-1.330119 -2.765133,-2.544316 -4.088701,-3.46337 -1.323567,-0.919054 -2.296163,-1.601875 -3.703882,-1.683583 -0.472658,-0.02743 -0.539645,0.0089 -0.721535,0.0481 -0.18189,0.03919 -0.341593,0.08095 -0.577229,0.144307 -0.471269,0.126713 -1.118259,0.31226 -1.82789,0.529126 -1.41926,0.433729 -3.233759,1.047771 -5.146953,1.683583 -3.826388,1.271623 -7.866573,2.667317 -9.620473,3.415268 -1.100067,0.469217 -2.20482,1.168865 -2.693733,2.357015 -0.488912,1.18815 -0.529109,2.453567 -0.577228,4.521623 -0.03756,1.614094 -0.05557,2.600989 0.0481,3.46337 0.103671,0.862381 0.406229,1.555715 0.769638,2.260811 2.732259,5.300952 9.905769,9.178092 16.883931,9.572371 3.32295,0.188822 5.315616,-0.07687 9.331859,-1.346866 8.817371,-2.788372 17.340173,-7.827636 25.975277,-15.200348 5.587014,-4.770221 8.590547,-7.818797 11.736978,-11.881284 2.717851,-3.509161 6.271329,-9.570562 7.93689,-13.61297 0.596522,-1.447753 1.477957,-3.856039 2.260811,-6.157103 0.782854,-2.301063 1.454122,-4.342169 1.683582,-5.387465 0.73602,-3.35676 0.0675,-8.803479 -1.298763,-12.4104104 C 98.246291,5.6435266 97.189833,3.8226065 95.971265,2.2369909 94.752697,0.65137527 93.467344,-0.67380874 92.074973,-1.4668913 90.652318,-2.2773877 88.592845,-2.7991575 86.591304,-3.1504741 85.590533,-3.3261316 84.641535,-3.4594422 83.801366,-3.4871907 Z"
       id="path44"
       inkscape:connector-curvature="0"
       style="opacity:0.15;fill:black;fill-opacity:1" />
    <path
       d="m 98.715761,19.4564 c -0.350479,1.596582 -2.730341,8.572589 -3.863276,11.322208 -1.573783,3.819655 -5.125917,9.933158 -7.710025,13.269637 -3.088115,3.987193 -5.979934,6.908385 -11.528931,11.646147 -8.518188,7.272889 -16.909237,12.172891 -25.494928,14.887997 -3.957068,1.251286 -5.512542,1.482712 -8.735593,1.299567 -6.436727,-0.363688 -13.294345,-4.198445 -15.633915,-8.737526 -0.663668,-1.287666 -0.73135,-1.804924 -0.656572,-5.017987 0.09511,-4.08764 0.349209,-4.684995 2.353123,-5.539734 3.20089,-1.365019 16.446807,-5.775258 17.21217,-5.730838 1.263138,0.07332 4.330463,2.210582 6.77883,4.723383 2.718127,2.789607 3.162997,2.842034 6.89971,0.813558 7.630505,-4.14276 13.66255,-9.474202 18.399397,-16.262412 2.45725,-3.521323 5.08859,-8.26351 5.148881,-9.279184 0.08568,-1.442889 -0.304818,-2.016897 -2.734886,-4.022704 -2.855871,-2.357124 -5.959828,-5.476637 -6.414011,-6.446047 -0.462968,-0.988339 -0.42402,-1.07787 3.392927,-7.8082806 1.789243,-3.1549842 3.777519,-6.679864 4.418543,-7.83299547 0.640873,-1.15322229 1.398487,-2.26634953 1.683577,-2.47371763 0.929858,-0.6763516 6.980316,0.3513689 9.067776,1.54060869 2.118348,1.20659361 5.051383,5.03538491 6.219219,8.11862041 1.216385,3.2113306 1.796846,8.7985216 1.197964,11.5298646 z"
       inkscape:connector-curvature="0"
       id="path46"
       style="opacity:0.3;fill:black;fill-opacity:1" />
    <path
       d="m 98.715761,17.917125 c -0.350479,1.596581 -2.730341,8.572588 -3.863276,11.322207 -1.573783,3.819656 -5.125917,9.933158 -7.710025,13.269637 -3.088115,3.987194 -5.979934,6.908385 -11.528931,11.646148 -8.518188,7.272888 -16.909237,12.172891 -25.494928,14.887996 -3.957068,1.251287 -5.512542,1.482712 -8.735593,1.299567 -6.436727,-0.363687 -13.294345,-4.198445 -15.633915,-8.737526 -0.663668,-1.287665 -0.73135,-1.804924 -0.656572,-5.017986 0.09511,-4.087641 0.349209,-4.684995 2.353123,-5.539735 3.20089,-1.365019 16.446807,-5.775258 17.21217,-5.730837 1.263138,0.07332 4.330463,2.210581 6.77883,4.723383 2.718127,2.789606 3.162997,2.842034 6.89971,0.813558 7.630505,-4.142761 13.66255,-9.474202 18.399397,-16.262413 2.45725,-3.521322 5.08859,-8.263509 5.148881,-9.279183 0.08568,-1.44289 -0.304818,-2.016898 -2.734886,-4.022705 -2.855871,-2.357124 -5.959828,-5.476637 -6.414011,-6.446047 -0.462968,-0.988339 -0.42402,-1.07787 3.392927,-7.8082803 1.789243,-3.1549842 3.777519,-6.67986402 4.418543,-7.83299549 0.640873,-1.15322231 1.398487,-2.26634951 1.683577,-2.47371761 0.929858,-0.6763516 6.980316,0.3513689 9.067776,1.5406087 2.118348,1.20659357 5.051383,5.0353849 6.219219,8.1186203 1.216385,3.2113309 1.796846,8.7985214 1.197964,11.5298644 z"
       inkscape:connector-curvature="0"
       id="path60"
       style="fill:url(#linearGradient7313);fill-opacity:1" />
    <path
       d="m 83.753264,-3.4871907 c -0.730608,-0.019826 -1.306811,0.02332 -1.539276,0.1924095 -0.285089,0.2073681 -1.04271,1.3481007 -1.683583,2.50132302 -0.641023,1.15313147 -2.636174,4.68570148 -4.425417,7.84068568 -3.816947,6.7304105 -3.830134,6.8042435 -3.367166,7.7925835 0.373764,-0.948742 1.306211,-2.619233 3.367166,-6.2533078 1.789243,-3.1549842 3.784394,-6.6875542 4.425417,-7.84068567 0.640873,-1.15322229 1.398494,-2.29395493 1.683583,-2.50132303 0.929858,-0.6763516 7.003888,0.3981383 9.091347,1.58737807 2.118349,1.20659363 5.037369,4.99796203 6.205206,8.08119753 0.828835,2.1881769 1.328567,5.4862669 1.394968,8.2255049 C 99.057082,13.196229 98.504374,8.9975745 97.510541,6.3737944 96.342704,3.2905589 93.423684,-0.50080955 91.305335,-1.7074031 89.739741,-2.5993334 85.945089,-3.4277346 83.753264,-3.4871907 Z M 81.781067,25.710946 c -0.457202,1.499861 -2.815595,5.695888 -5.050748,8.898937 -4.736848,6.788211 -10.744599,12.115839 -18.375104,16.2586 -3.736714,2.028476 -4.208614,1.971866 -6.926741,-0.81774 -2.448367,-2.512802 -5.519296,-4.640716 -6.782434,-4.714032 -0.765363,-0.04442 -14.019757,4.359162 -17.220647,5.724181 -2.003913,0.85474 -2.213801,1.444132 -2.308913,5.531773 -0.02447,1.051333 -0.02192,1.7615 0,2.357015 0.0042,-0.278852 -0.0077,-0.484876 0,-0.81774 0.09511,-4.08764 0.305,-4.677032 2.308913,-5.531772 3.20089,-1.365019 16.455284,-5.768602 17.220647,-5.724181 1.263138,0.07332 4.334067,2.20123 6.782434,4.714031 2.718127,2.789607 3.190027,2.846217 6.926741,0.817741 7.630505,-4.142761 13.638256,-9.47039 18.375104,-16.2586 2.45725,-3.521323 5.086661,-8.268083 5.146953,-9.283757 0.02606,-0.438878 0.0099,-0.811607 -0.09621,-1.154456 z"
       inkscape:connector-curvature="0"
       id="path62"
       style="opacity:0.75;fill:white;fill-opacity:1" />
    <path
       d="m 72.737822,13.300535 c -0.318458,0.808355 -0.212989,1.084589 0,1.539276 0.454183,0.969409 3.541744,4.088593 6.397615,6.445717 1.690922,1.395707 2.403037,2.101818 2.64563,2.886142 0.04542,-0.149033 0.09076,-0.293018 0.09621,-0.384819 0.08568,-1.442889 -0.311767,-2.034792 -2.741835,-4.040599 -2.855871,-2.357124 -5.943432,-5.476307 -6.397615,-6.445717 z m 26.167687,1.298764 c -0.03394,0.658888 -0.08284,1.280055 -0.192409,1.779787 -0.350479,1.596582 -2.715255,8.554438 -3.848189,11.304057 -1.573784,3.819655 -5.160373,9.939774 -7.744481,13.276253 -3.088115,3.987193 -5.947469,6.903009 -11.496466,11.640772 -8.518189,7.272889 -16.908563,12.196628 -25.494254,14.911734 -3.957068,1.251286 -5.53158,1.481908 -8.754631,1.298763 -6.436727,-0.363687 -13.293699,-4.215549 -15.633268,-8.75463 -0.446512,-0.866334 -0.58025,-1.421144 -0.625331,-2.64563 -0.0362,2.412856 0.03042,3.030638 0.625331,4.184906 2.339569,4.53908 9.196541,8.390942 15.633268,8.75463 3.223051,0.183145 4.797563,-0.04747 8.754631,-1.298764 8.585691,-2.715105 16.976065,-7.638845 25.494254,-14.911733 5.548997,-4.737763 8.408351,-7.653579 11.496466,-11.640773 2.584108,-3.336478 6.170697,-9.456597 7.744481,-13.276253 1.132934,-2.749619 3.49771,-9.707474 3.848189,-11.304056 0.190807,-0.870225 0.223458,-2.038244 0.192409,-3.319063 z"
       inkscape:connector-curvature="0"
       id="path64"
       style="opacity:0.15;fill:black;fill-opacity:1" />
  </g>
</svg>
