<?xml version="1.0" encoding="UTF-8" standalone="no"?>
<svg
   xmlns:dc="http://purl.org/dc/elements/1.1/"
   xmlns:cc="http://creativecommons.org/ns#"
   xmlns:rdf="http://www.w3.org/1999/02/22-rdf-syntax-ns#"
   xmlns:svg="http://www.w3.org/2000/svg"
   xmlns="http://www.w3.org/2000/svg"
   xmlns:xlink="http://www.w3.org/1999/xlink"
   xmlns:sodipodi="http://sodipodi.sourceforge.net/DTD/sodipodi-0.dtd"
   xmlns:inkscape="http://www.inkscape.org/namespaces/inkscape"
   height="96"
   width="96"
   id="svg2"
   version="1.1"
   inkscape:version="0.91 r13725"
   sodipodi:docname="call-start.svg">
  <metadata
     id="metadata68">
    <rdf:RDF>
      <cc:Work
         rdf:about="">
        <dc:format>image/svg+xml</dc:format>
        <dc:type
           rdf:resource="http://purl.org/dc/dcmitype/StillImage" />
      </cc:Work>
    </rdf:RDF>
  </metadata>
  <sodipodi:namedview
     pagecolor="#ffffff"
     bordercolor="#666666"
     borderopacity="1"
     objecttolerance="10"
     gridtolerance="10"
     guidetolerance="10"
     inkscape:pageopacity="0"
     inkscape:pageshadow="2"
     inkscape:window-width="1366"
     inkscape:window-height="708"
     id="namedview66"
     showgrid="false"
     inkscape:zoom="2.4583333"
     inkscape:cx="-37.627119"
     inkscape:cy="47.999998"
     inkscape:window-x="0"
     inkscape:window-y="24"
     inkscape:window-maximized="1"
     inkscape:current-layer="svg2" />
  <defs
     id="defs4">
    <linearGradient
       x2="0"
       y1="92.54"
       y2="7.02"
       gradientUnits="userSpaceOnUse"
       id="ButtonShadow-0"
       gradientTransform="matrix(1.0059 0 0 0.99417 100 0)">
      <stop
         stop-color="#000000"
         stop-opacity="1"
         id="stop7" />
      <stop
         stop-color="#000000"
         stop-opacity="0.588"
         offset="1"
         id="stop9" />
    </linearGradient>
    <linearGradient
       x2="0"
       xlink:href="#ButtonShadow-0"
       y1="6.132"
       y2="90.24"
       gradientUnits="userSpaceOnUse"
       id="linearGradient3780"
       gradientTransform="matrix(1.02381 0 0 -1.0119 -1.143 98.07)" />
    <linearGradient
       x2="0"
       xlink:href="#ButtonShadow-0"
       y1="6.132"
       y2="90.24"
       gradientUnits="userSpaceOnUse"
       id="linearGradient3721"
       gradientTransform="matrix(1 0 0 -1 0 97)" />
    <radialGradient
       cy="90.17"
       r="42"
       gradientUnits="userSpaceOnUse"
       id="radialGradient3619-3"
       cx="48"
       gradientTransform="matrix(1.15731 0 0 0.99591 -7.551 0.197)">
      <stop
         stop-color="#ffffff"
         stop-opacity="1"
         id="stop14" />
      <stop
         stop-color="#ffffff"
         stop-opacity="0"
         offset="1"
         id="stop16" />
    </radialGradient>
    <linearGradient
       x1="652.02"
       x2="627.67"
       y1="347.86"
       y2="349.29"
       gradientUnits="userSpaceOnUse"
       id="linearGradient7313"
       gradientTransform="matrix(0.17835588,-3.0044199,3.0375451,0.17630864,-1120.4932,1907.1767)">
      <stop
         stop-color="#1a1a1a"
         stop-opacity="1"
         id="stop19" />
      <stop
         stop-color="#4d4d4d"
         stop-opacity="1"
         offset="1"
         id="stop21" />
    </linearGradient>
    <rect
       x="6"
       rx="6"
       y="6"
       fill="#000000"
       fill-opacity="1"
       stroke="none"
       fill-rule="nonzero"
       height="84"
       id="SVGCleanerId_0"
       opacity="0.6"
       width="84" />
  </defs>
  <path
     style="fill:url(#linearGradient7313);fill-opacity:1"
     id="path60"
     inkscape:connector-curvature="0"
     d="m 84.675803,30.946558 c -0.350479,1.596581 -2.730341,8.572588 -3.863276,11.322207 -1.573783,3.819656 -5.125917,9.933158 -7.710025,13.269637 -3.088115,3.987194 -5.979934,6.908385 -11.528931,11.646148 -8.518188,7.272888 -16.909237,12.172891 -25.494928,14.887996 -3.957068,1.251287 -5.512542,1.482712 -8.735593,1.299567 -6.436727,-0.363687 -13.294345,-4.198445 -15.633915,-8.737526 -0.663668,-1.287665 -0.73135,-1.804924 -0.656572,-5.017986 0.09511,-4.087641 0.349209,-4.684995 2.353123,-5.539735 3.20089,-1.365019 16.446807,-5.775258 17.21217,-5.730837 1.263138,0.07332 4.330463,2.210581 6.77883,4.723383 2.718127,2.789606 3.162997,2.842034 6.89971,0.813558 7.630505,-4.142761 13.66255,-9.474202 18.399397,-16.262413 2.45725,-3.521322 5.08859,-8.263509 5.148881,-9.279183 0.08568,-1.44289 -0.304818,-2.016898 -2.734886,-4.022705 -2.855871,-2.357124 -5.959828,-5.476637 -6.414011,-6.446047 -0.462968,-0.988339 -0.42402,-1.07787 3.392927,-7.80828 1.789243,-3.154985 3.777519,-6.679864 4.418543,-7.832996 0.640873,-1.153222 1.398487,-2.2663493 1.683577,-2.4737174 0.929858,-0.6763516 6.980316,0.3513684 9.067776,1.5406084 2.118348,1.206594 5.051383,5.035385 6.219219,8.118621 1.216385,3.21133 1.796846,8.798521 1.197964,11.529864 z" />
  <path
     style="opacity:0.75;fill:#ffffff;fill-opacity:1"
     id="path62"
     inkscape:connector-curvature="0"
     d="m 69.713306,9.5422423 c -0.730608,-0.019826 -1.306811,0.02332 -1.539276,0.1924095 -0.285089,0.2073681 -1.04271,1.3481002 -1.683583,2.5013232 -0.641023,1.153131 -2.636174,4.685701 -4.425417,7.840685 -3.816947,6.730411 -3.830134,6.804244 -3.367166,7.792584 0.373764,-0.948742 1.306211,-2.619233 3.367166,-6.253308 1.789243,-3.154984 3.784394,-6.687554 4.425417,-7.840685 0.640873,-1.153223 1.398494,-2.293955 1.683583,-2.501324 0.929858,-0.676351 7.003888,0.398139 9.091347,1.587379 2.118349,1.206593 5.037369,4.997962 6.205206,8.081197 0.828835,2.188177 1.328567,5.486267 1.394968,8.225505 0.151573,-2.942346 -0.401135,-7.141001 -1.394968,-9.764781 C 82.302746,16.319992 79.383726,12.528623 77.265377,11.32203 75.699783,10.4301 71.905131,9.6016984 69.713306,9.5422423 Z M 67.741109,38.740379 c -0.457202,1.499861 -2.815595,5.695888 -5.050748,8.898937 -4.736848,6.788211 -10.744599,12.115839 -18.375104,16.2586 -3.736714,2.028476 -4.208614,1.971866 -6.926741,-0.81774 -2.448367,-2.512802 -5.519296,-4.640716 -6.782434,-4.714032 -0.765363,-0.04442 -14.019757,4.359162 -17.220647,5.724181 -2.003913,0.85474 -2.213801,1.444132 -2.308913,5.531773 -0.02447,1.051333 -0.02192,1.7615 0,2.357015 0.0042,-0.278852 -0.0077,-0.484876 0,-0.81774 0.09511,-4.08764 0.305,-4.677032 2.308913,-5.531772 3.20089,-1.365019 16.455284,-5.768602 17.220647,-5.724181 1.263138,0.07332 4.334067,2.20123 6.782434,4.714031 2.718127,2.789607 3.190027,2.846217 6.926741,0.817741 7.630505,-4.142761 13.638256,-9.47039 18.375104,-16.2586 2.45725,-3.521323 5.086661,-8.268083 5.146953,-9.283757 0.02606,-0.438878 0.0099,-0.811607 -0.09621,-1.154456 z" />
  <path
     style="opacity:0.15;fill:#000000;fill-opacity:1"
     id="path64"
     inkscape:connector-curvature="0"
     d="m 58.697864,26.329968 c -0.318458,0.808355 -0.212989,1.084589 0,1.539276 0.454183,0.969409 3.541744,4.088593 6.397615,6.445717 1.690922,1.395707 2.403037,2.101818 2.64563,2.886142 0.04542,-0.149033 0.09076,-0.293018 0.09621,-0.384819 0.08568,-1.442889 -0.311767,-2.034792 -2.741835,-4.040599 -2.855871,-2.357124 -5.943432,-5.476307 -6.397615,-6.445717 z m 26.167687,1.298764 c -0.03394,0.658888 -0.08284,1.280055 -0.192409,1.779787 -0.350479,1.596582 -2.715255,8.554438 -3.848189,11.304057 -1.573784,3.819655 -5.160373,9.939774 -7.744481,13.276253 -3.088115,3.987193 -5.947469,6.903009 -11.496466,11.640772 -8.518189,7.272889 -16.908563,12.196628 -25.494254,14.911734 -3.957068,1.251286 -5.53158,1.481908 -8.754631,1.298763 -6.436727,-0.363687 -13.293699,-4.215549 -15.633268,-8.75463 -0.446512,-0.866334 -0.58025,-1.421144 -0.625331,-2.64563 -0.0362,2.412856 0.03042,3.030638 0.625331,4.184906 2.339569,4.53908 9.196541,8.390942 15.633268,8.75463 3.223051,0.183145 4.797563,-0.04747 8.754631,-1.298764 8.585691,-2.715105 16.976065,-7.638845 25.494254,-14.911733 5.548997,-4.737763 8.408351,-7.653579 11.496466,-11.640773 2.584108,-3.336478 6.170697,-9.456597 7.744481,-13.276253 1.132934,-2.749619 3.49771,-9.707474 3.848189,-11.304056 0.190807,-0.870225 0.223458,-2.038244 0.192409,-3.319063 z" />
</svg>
