<?xml version="1.0" encoding="UTF-8" standalone="no"?>
<svg
   xmlns:dc="http://purl.org/dc/elements/1.1/"
   xmlns:cc="http://creativecommons.org/ns#"
   xmlns:rdf="http://www.w3.org/1999/02/22-rdf-syntax-ns#"
   xmlns:svg="http://www.w3.org/2000/svg"
   xmlns="http://www.w3.org/2000/svg"
   xmlns:xlink="http://www.w3.org/1999/xlink"
   xmlns:sodipodi="http://sodipodi.sourceforge.net/DTD/sodipodi-0.dtd"
   xmlns:inkscape="http://www.inkscape.org/namespaces/inkscape"
   height="96"
   width="96"
   id="svg2"
   version="1.1"
   inkscape:version="0.91 r13725"
   sodipodi:docname="call-stop.svg">
  <metadata
     id="metadata68">
    <rdf:RDF>
      <cc:Work
         rdf:about="">
        <dc:format>image/svg+xml</dc:format>
        <dc:type
           rdf:resource="http://purl.org/dc/dcmitype/StillImage" />
      </cc:Work>
    </rdf:RDF>
  </metadata>
  <sodipodi:namedview
     pagecolor="#ffffff"
     bordercolor="#666666"
     borderopacity="1"
     objecttolerance="10"
     gridtolerance="10"
     guidetolerance="10"
     inkscape:pageopacity="0"
     inkscape:pageshadow="2"
     inkscape:window-width="760"
     inkscape:window-height="480"
     id="namedview66"
     showgrid="false"
     inkscape:zoom="2.4583333"
     inkscape:cx="42.101695"
     inkscape:cy="47.999999"
     inkscape:window-x="109"
     inkscape:window-y="133"
     inkscape:window-maximized="0"
     inkscape:current-layer="svg2" />
  <defs
     id="defs4">
    <linearGradient
       x2="0"
       y1="92.54"
       y2="7.02"
       gradientUnits="userSpaceOnUse"
       id="ButtonShadow-0"
       gradientTransform="matrix(1.0059 0 0 0.99417 100 0)">
      <stop
         stop-color="#000000"
         stop-opacity="1"
         id="stop7" />
      <stop
         stop-color="#000000"
         stop-opacity="0.588"
         offset="1"
         id="stop9" />
    </linearGradient>
    <linearGradient
       x2="0"
       xlink:href="#ButtonShadow-0"
       y1="6.132"
       y2="90.24"
       gradientUnits="userSpaceOnUse"
       id="linearGradient3780"
       gradientTransform="matrix(1.02381 0 0 -1.0119 -1.143 98.07)" />
    <linearGradient
       x2="0"
       xlink:href="#ButtonShadow-0"
       y1="6.132"
       y2="90.24"
       gradientUnits="userSpaceOnUse"
       id="linearGradient3721"
       gradientTransform="matrix(1 0 0 -1 0 97)" />
    <radialGradient
       cy="90.17"
       r="42"
       gradientUnits="userSpaceOnUse"
       id="radialGradient3619-3"
       cx="48"
       gradientTransform="matrix(1.15731 0 0 0.99591 -7.551 0.197)">
      <stop
         stop-color="#ffffff"
         stop-opacity="1"
         id="stop14" />
      <stop
         stop-color="#ffffff"
         stop-opacity="0"
         offset="1"
         id="stop16" />
    </radialGradient>
    <linearGradient
       x1="647.28"
       x2="639.47"
       y1="349.1"
       y2="357.89"
       gradientUnits="userSpaceOnUse"
       id="linearGradient3811"
       gradientTransform="matrix(-1.37831,1.2009,-1.22514,-1.3503,1354.9,-244.77)">
      <stop
         stop-color="#c80000"
         stop-opacity="1"
         id="stop19" />
      <stop
         stop-color="#f3604d"
         stop-opacity="1"
         offset="1"
         id="stop21" />
    </linearGradient>
    <rect
       x="6"
       rx="6"
       y="6"
       fill="#000000"
       fill-opacity="1"
       stroke="none"
       fill-rule="nonzero"
       height="84"
       id="SVGCleanerId_0"
       opacity="0.6"
       width="84" />
  </defs>
  <g
     id="g3369"
     transform="matrix(1.3333982,0,0,1.3333982,-16.054172,-21.323556)">
    <path
       d="M 45.5625,39 C 37.940318,39.038173 30.536137,41.664555 24.016896,45.479858 20.00141,48.536883 17.237116,53.771097 18.25,58.875 c 1.008519,2.417736 2.61421,5.877093 5.625,5.90625 3.699107,-0.819115 7.322636,-1.981701 10.980357,-2.97406 2.608536,-0.547908 2.757325,-3.510108 2.575082,-5.64717 0.04618,-1.849125 -1.095881,-4.523376 1.780847,-4.375447 5.982122,-1.82043 12.495334,-1.63464 18.413714,0.340427 0.156251,2.467703 -0.168694,5.400077 1.640289,7.353311 3.286063,2.014045 6.85903,3.570708 10.390961,5.115439 2.427106,1.238273 4.655792,-0.74987 6.209577,-2.422839 2.982301,-2.756305 2.477962,-7.462534 0.95339,-10.846686 C 75.171292,47.442781 71.716731,44.685013 67.876879,43.142399 60.903708,39.983792 53.1515,39.032625 45.5625,39 Z"
       inkscape:connector-curvature="0"
       id="path42"
       style="opacity:0.1;fill:black;fill-opacity:1" />
    <path
       d="m 45.5625,40 c -1.596617,0.01671 -3.033928,0.141066 -4.59375,0.34375 -2.696383,0.350382 -6.846562,1.4513 -9.3125,2.46875 C 30.771826,43.177406 29.336801,43.850598 28,44.5 c -1.336801,0.649402 -2.503246,1.209938 -3.0625,1.5625 -1.789224,1.128528 -3.859032,3.723062 -4.84375,5.84375 -0.477207,1.027505 -0.771358,2.238509 -0.9375,3.4375 -0.166142,1.198991 -0.198,2.332302 0.0625,3.28125 0.267985,0.976562 0.911629,2.04893 1.625,3.03125 0.356685,0.49116 0.739874,0.948899 1.09375,1.3125 0.176938,0.181801 0.341448,0.327797 0.53125,0.46875 0.189802,0.140953 0.360592,0.285614 0.75,0.34375 0.258341,0.03857 0.37805,0.01777 0.53125,0 0.1532,-0.01777 0.32165,-0.02799 0.5,-0.0625 0.356701,-0.06903 0.773241,-0.194478 1.1875,-0.3125 0.762287,-0.217068 3.117683,-0.880717 5.25,-1.46875 2.275242,-0.627438 3.432104,-0.909888 4.15625,-1.1875 0.362073,-0.138806 0.642803,-0.274458 0.90625,-0.53125 0.263447,-0.256792 0.406346,-0.583329 0.46875,-0.75 0.138531,-0.370107 0.155269,-0.659773 0.1875,-1.0625 C 36.43848,58.003523 36.43496,57.52229 36.4375,57 36.4426,55.955421 36.38579,54.730765 36.28125,53.59375 36.197453,52.682029 36.208318,52.193508 36.25,52 c 0.04168,-0.193508 0.04639,-0.174397 0.3125,-0.40625 -0.164083,0.142963 0.132891,-0.08241 0.5,-0.21875 0.367109,-0.136339 0.867514,-0.274079 1.4375,-0.4375 1.139972,-0.326843 2.564635,-0.681958 3.8125,-0.90625 4.826969,-0.867655 9.535445,-0.626079 14.46875,0.78125 1.219825,0.348048 1.681882,0.601683 1.75,0.6875 0.06812,0.08582 0.14664,0.453701 0.125,1.59375 -0.02122,1.117691 0.07651,2.266031 0.25,3.21875 0.173489,0.952719 0.310425,1.655802 0.90625,2.3125 0.208063,0.229319 0.247033,0.220477 0.34375,0.28125 0.09672,0.06077 0.183621,0.115355 0.3125,0.1875 0.257757,0.14429 0.602259,0.326041 1,0.53125 0.795482,0.410418 1.843797,0.937599 2.9375,1.46875 2.187405,1.062302 4.54471,2.141845 5.625,2.5625 0.672706,0.26189 1.441239,0.44715 2.1875,0.15625 0.746261,-0.2909 1.328756,-0.825338 2.25,-1.6875 0.716929,-0.670945 1.133878,-1.079688 1.46875,-1.5 0.334872,-0.420312 0.536436,-0.856755 0.6875,-1.3125 1.14183,-3.445025 -0.283866,-8.128359 -3.125,-11.25 -1.345752,-1.479578 -2.319756,-2.195257 -4.59375,-3.34375 -4.995469,-2.522884 -10.850238,-4.004576 -17.75,-4.5 C 48.926191,40.058616 47.163704,39.983247 45.5625,40 Z"
       id="path44"
       inkscape:connector-curvature="0"
       style="opacity:0.15;fill:black;fill-opacity:1" />
    <path
       d="m 25.482773,46.905576 c 0.842007,-0.530814 4.884637,-2.493801 6.561568,-3.185688 2.329496,-0.961154 6.50067,-2.065669 9.053704,-2.397424 3.050962,-0.396444 5.555884,-0.422647 9.986534,-0.104495 6.801435,0.488364 12.520156,1.930956 17.375501,4.383072 2.237751,1.130188 3.004528,1.685045 4.306186,3.116144 2.600422,2.857163 3.877096,7.364986 2.912654,10.274813 -0.273612,0.825462 -0.468754,1.073528 -1.893103,2.406519 -1.812039,1.695827 -2.179764,1.842796 -3.408787,1.364326 -1.963027,-0.764384 -9.549745,-4.453464 -9.85844,-4.793695 -0.509462,-0.561512 -0.897622,-2.757017 -0.857841,-4.852092 0.04415,-2.325888 -0.123757,-2.534949 -2.603868,-3.242589 -5.064707,-1.444814 -9.959592,-1.713681 -14.930763,-0.820105 -2.578774,0.46351 -5.761175,1.37235 -6.227128,1.778328 -0.661946,0.576738 -0.743362,0.984441 -0.571296,2.856544 0.202276,2.200079 0.180501,4.828063 -0.04496,5.430417 -0.229918,0.614075 -0.285385,0.635751 -4.837348,1.891034 -2.133801,0.588442 -4.513167,1.250381 -5.28752,1.470885 -0.774325,0.220605 -1.581295,0.375167 -1.79331,0.343516 -0.69151,-0.103237 -2.838689,-3.08017 -3.217796,-4.461673 -0.384825,-1.401839 0.01739,-4.259243 0.853193,-6.058864 0.870357,-1.874401 3.042721,-4.490665 4.482894,-5.399034 z"
       inkscape:connector-curvature="0"
       id="path46"
       style="opacity:0.3;fill:black;fill-opacity:1" />
    <path
       d="m 25.482773,45.905576 c 0.842007,-0.530814 4.884637,-2.493801 6.561568,-3.185688 2.329496,-0.961154 6.50067,-2.065669 9.053704,-2.397424 3.050962,-0.396444 5.555884,-0.422647 9.986534,-0.104495 6.801435,0.488364 12.520156,1.930956 17.375501,4.383072 2.237751,1.130188 3.004528,1.685045 4.306186,3.116144 2.600422,2.857163 3.877096,7.364986 2.912654,10.274813 -0.273612,0.825462 -0.468754,1.073528 -1.893103,2.406519 -1.812039,1.695827 -2.179764,1.842796 -3.408787,1.364326 -1.963027,-0.764384 -9.549745,-4.453464 -9.85844,-4.793695 -0.509462,-0.561512 -0.897622,-2.757017 -0.857841,-4.852092 0.04415,-2.325888 -0.123757,-2.534949 -2.603868,-3.242589 -5.064707,-1.444814 -9.959592,-1.713681 -14.930763,-0.820105 -2.578774,0.46351 -5.761175,1.37235 -6.227128,1.778328 -0.661946,0.576738 -0.743362,0.984441 -0.571296,2.856544 0.202276,2.200079 0.180501,4.828063 -0.04496,5.430417 -0.229918,0.614075 -0.285385,0.635751 -4.837348,1.891034 -2.133801,0.588442 -4.513167,1.250381 -5.28752,1.470885 -0.774325,0.220605 -1.581295,0.375167 -1.79331,0.343516 -0.69151,-0.103237 -2.838689,-3.08017 -3.217796,-4.461673 -0.384825,-1.401839 0.01739,-4.259243 0.853193,-6.058864 0.870357,-1.874401 3.042721,-4.490665 4.482894,-5.399034 z"
       inkscape:connector-curvature="0"
       id="path60"
       style="fill:url(#linearGradient3811);fill-opacity:1" />
    <path
       d="m 45.5625,40 c -1.561432,0.01634 -2.943269,0.114278 -4.46875,0.3125 -2.553034,0.331755 -6.733004,1.445096 -9.0625,2.40625 -1.676931,0.691887 -5.720493,2.656686 -6.5625,3.1875 -1.440173,0.908369 -3.598393,3.531849 -4.46875,5.40625 -0.698154,1.50324 -1.081663,3.735496 -0.96875,5.25 0.06843,-1.393098 0.412994,-3.053367 0.96875,-4.25 0.870357,-1.874401 3.028577,-4.497881 4.46875,-5.40625 0.842007,-0.530814 4.885569,-2.495613 6.5625,-3.1875 2.329496,-0.961154 6.509466,-2.074495 9.0625,-2.40625 3.050962,-0.396444 5.56935,-0.411902 10,-0.09375 6.801435,0.488364 12.519655,1.922884 17.375,4.375 2.237751,1.130188 3.010842,1.693901 4.3125,3.125 1.904652,2.0927 3.063606,5.068994 3.1875,7.65625 0.183715,-2.785379 -1.033623,-6.28972 -3.1875,-8.65625 -1.301658,-1.431099 -2.074749,-1.994812 -4.3125,-3.125 -4.855345,-2.452116 -10.573565,-3.886636 -17.375,-4.375 C 48.878425,40.059674 47.123932,39.983663 45.5625,40 Z M 35.28125,52.125 c -0.02769,0.379971 -0.03505,0.841095 0.03125,1.5625 0.07878,0.856851 0.144237,1.752029 0.15625,2.59375 0.02186,-1.063838 -0.0443,-2.376116 -0.15625,-3.59375 -0.02093,-0.227707 -0.01841,-0.375183 -0.03125,-0.5625 z"
       inkscape:connector-curvature="0"
       id="path62"
       style="opacity:0.3;fill:white;fill-opacity:1" />
    <path
       d="m 47.6875,46.53125 c -1.855712,0.0074 -3.698311,0.196159 -5.5625,0.53125 -2.578774,0.46351 -5.752797,1.375272 -6.21875,1.78125 -0.581433,0.506589 -0.717725,0.928532 -0.625,2.28125 0.04416,-0.606084 0.218131,-0.926755 0.625,-1.28125 0.465953,-0.405978 3.639976,-1.31774 6.21875,-1.78125 4.971171,-0.893576 9.872793,-0.632314 14.9375,0.8125 2.061863,0.588303 2.521338,0.848077 2.59375,2.25 0.04415,-2.325888 -0.113639,-2.54236 -2.59375,-3.25 -3.165442,-0.903009 -6.282147,-1.356153 -9.375,-1.34375 z m 11.96875,4.8125 c 0.0052,0.229693 0.0055,0.490514 0,0.78125 -0.03978,2.095075 0.365538,4.282238 0.875,4.84375 0.308695,0.340231 7.880723,4.016866 9.84375,4.78125 1.229023,0.47847 1.594211,0.352077 3.40625,-1.34375 1.424349,-1.332991 1.632638,-1.580788 1.90625,-2.40625 0.258046,-0.778554 0.326508,-1.679875 0.28125,-2.625 -0.03809,0.577469 -0.115636,1.125324 -0.28125,1.625 -0.273612,0.825462 -0.481901,1.073259 -1.90625,2.40625 -1.812039,1.695827 -2.177227,1.82222 -3.40625,1.34375 -1.963027,-0.764384 -9.535055,-4.441019 -9.84375,-4.78125 -0.491659,-0.54189 -0.884889,-2.598406 -0.875,-4.625 z m -24.1875,3.9375 c -0.01763,0.858354 -0.08682,1.574769 -0.1875,1.84375 -0.229918,0.614075 -0.291787,0.619717 -4.84375,1.875 -2.133801,0.588442 -4.506897,1.248246 -5.28125,1.46875 -0.774325,0.220605 -1.569235,0.375401 -1.78125,0.34375 -0.69151,-0.103237 -2.839643,-3.055997 -3.21875,-4.4375 -0.06338,-0.23087 -0.102738,-0.513898 -0.125,-0.8125 -0.03448,0.701988 -0.0039,1.342794 0.125,1.8125 0.379107,1.381503 2.52724,4.334263 3.21875,4.4375 0.212015,0.03165 1.006925,-0.123145 1.78125,-0.34375 0.774353,-0.220504 3.147449,-0.880308 5.28125,-1.46875 4.551963,-1.255283 4.613832,-1.260925 4.84375,-1.875 0.137652,-0.367759 0.206332,-1.524242 0.1875,-2.84375 z"
       inkscape:connector-curvature="0"
       id="path64"
       style="opacity:0.1;fill:black;fill-opacity:1" />
  </g>
</svg>
