<svg height="96" width="96" xmlns="http://www.w3.org/2000/svg" xmlns:xlink="http://www.w3.org/1999/xlink" xmlns:sodipodi="http://sodipodi.sourceforge.net/DTD/sodipodi-0.dtd" xmlns:inkscape="http://www.inkscape.org/namespaces/inkscape">
 <defs>
  <linearGradient x2="0" y1="92.54" y2="7.02" gradientUnits="userSpaceOnUse" id="ButtonShadow-0" gradientTransform="matrix(1.0059 0 0 0.99417 100 0)">
   <stop stop-color="#000000" stop-opacity="1"/>
   <stop stop-color="#000000" stop-opacity="0.588" offset="1"/>
  </linearGradient>
  <linearGradient x2="0" xlink:href="#ButtonShadow-0" y1="6.132" y2="90.24" gradientUnits="userSpaceOnUse" id="linearGradient3780" gradientTransform="matrix(1.02381 0 0 -1.0119 -1.143 98.07)"/>
  <linearGradient x2="0" xlink:href="#ButtonShadow-0" y1="6.132" y2="90.24" gradientUnits="userSpaceOnUse" id="linearGradient3721" gradientTransform="matrix(1 0 0 -1 0 97)"/>
  <radialGradient cy="90.17" r="42" gradientUnits="userSpaceOnUse" id="radialGradient3619-3" cx="48" gradientTransform="matrix(1.15731 0 0 0.99591 -7.551 0.197)">
   <stop stop-color="#ffffff" stop-opacity="1"/>
   <stop stop-color="#ffffff" stop-opacity="0" offset="1"/>
  </radialGradient>
  <linearGradient x1="647.28" x2="639.47" y1="349.1" y2="357.89" gradientUnits="userSpaceOnUse" id="linearGradient3811" gradientTransform="matrix(-1.37831 1.2009 -1.22514 -1.3503 1354.9 -244.77)">
   <stop stop-color="#c80000" stop-opacity="1"/>
   <stop stop-color="#f3604d" stop-opacity="1" offset="1"/>
  </linearGradient>
  <rect x="6" rx="6" y="6" fill="#000000" fill-opacity="1" stroke="none" fill-rule="nonzero" height="84" id="SVGCleanerId_0" opacity="0.6" width="84"/>
 </defs>
 <path d="M 12,3.96875 C 6.4889098,3.96875 1.96875,8.4889098 1.96875,14 l 0,71 c 0,5.51109 4.5201597,10.03125 10.03125,10.03125 l 72,0 c 5.51109,0 10.03125,-4.52016 10.03125,-10.03125 l 0,-71 C 94.03125,8.4889097 89.51109,3.96875 84,3.96875 l -72,0 z M 12,6 84,6 c 3.324,0 6,2.676 6,6 l 0,72 c 0,3.324 -2.676,6 -6,6 L 12,90 C 8.676,90 6,87.324 6,84 L 6,12 C 6,8.676 8.676,6 12,6 z" display="inline" fill="url(#linearGradient3780)" fill-opacity="1" fill-rule="nonzero" stroke="none" opacity="0.08" inkscape:connector-curvature="0"/>
 <path d="M 12,4.96875 C 7.0283671,4.96875 2.96875,9.0283671 2.96875,14 l 0,71 c 0,4.971633 4.059617,9.03125 9.03125,9.03125 l 72,0 c 4.971633,0 9.03125,-4.059617 9.03125,-9.03125 l 0,-71 C 93.03125,9.028367 88.971633,4.96875 84,4.96875 l -72,0 z M 12,6 84,6 c 3.324,0 6,2.676 6,6 l 0,72 c 0,3.324 -2.676,6 -6,6 L 12,90 C 8.676,90 6,87.324 6,84 L 6,12 C 6,8.676 8.676,6 12,6 z" display="inline" fill="url(#linearGradient3780)" fill-opacity="1" fill-rule="nonzero" stroke="none" opacity="0.1" inkscape:connector-curvature="0"/>
 <path d="M 11.1875,6.03125 C 7.159982,6.4419011 4,9.8664375 4,14 l 0,71 c 0,4.409133 3.590867,8 8,8 l 72,0 c 4.409133,0 8,-3.590867 8,-8 L 92,14 C 92,9.8029382 88.741028,6.3539584 84.625,6.03125 87.657886,6.337417 90,8.88375 90,12 l 0,72 c 0,3.324 -2.676,6 -6,6 L 12,90 C 8.676,90 6,87.324 6,84 L 6,12 c 0,-3.11625 2.342114,-5.662583 5.375,-5.96875 -0.06227,0.00488 -0.12563,-0.00631 -0.1875,0 z" display="inline" fill="url(#linearGradient3780)" fill-opacity="1" fill-rule="nonzero" stroke="none" opacity="0.2" inkscape:connector-curvature="0"/>
 <path d="M 6.4375,9.75 C 5.5380109,10.927446 5,12.397277 5,14 l 0,71 c 0,3.878 3.122,7 7,7 l 72,0 c 3.878,0 7,-3.122 7,-7 L 91,14 C 91,12.397277 90.461989,10.927446 89.5625,9.75 89.841816,10.444095 90,11.203625 90,12 l 0,72 c 0,3.324 -2.676,6 -6,6 L 12,90 C 8.676,90 6,87.324 6,84 L 6,12 C 6,11.203625 6.1581836,10.444095 6.4375,9.75 z" display="inline" fill="url(#linearGradient3780)" fill-opacity="1" fill-rule="nonzero" stroke="none" opacity="0.3" inkscape:connector-curvature="0"/>
 <path d="m 6,84 0,1 c 0,3.324 2.676,6 6,6 l 72,0 c 3.324,0 6,-2.676 6,-6 l 0,-1 c 0,3.324 -2.676,6 -6,6 L 12,90 C 8.676,90 6,87.324 6,84 z" display="inline" fill="url(#linearGradient3721)" fill-opacity="1" fill-rule="nonzero" stroke="none" opacity="0.45" inkscape:connector-curvature="0"/>
 <g display="inline">
  <use xlink:href="#SVGCleanerId_0"/>
  <path d="M 12,90 C 8.676,90 6,87.324 6,84 L 6,82 6,14 6,12 c 0,-0.334721 0.04135,-0.6507 0.09375,-0.96875 0.0487,-0.295596 0.09704,-0.596915 0.1875,-0.875 C 6.29113,10.12587 6.302142,10.09265 6.3125,10.0625 6.411365,9.774729 6.5473802,9.515048 6.6875,9.25 6.8320918,8.976493 7.0031161,8.714385 7.1875,8.46875 7.3718839,8.223115 7.5612765,7.995278 7.78125,7.78125 8.221197,7.353194 8.72416,6.966724 9.28125,6.6875 9.559795,6.547888 9.8547231,6.440553 10.15625,6.34375 9.9000482,6.443972 9.6695391,6.580022 9.4375,6.71875 c -0.00741,0.0044 -0.023866,-0.0045 -0.03125,0 -0.031933,0.0193 -0.062293,0.04251 -0.09375,0.0625 -0.120395,0.0767 -0.2310226,0.163513 -0.34375,0.25 -0.1061728,0.0808 -0.2132809,0.161112 -0.3125,0.25 C 8.4783201,7.442683 8.3087904,7.626638 8.15625,7.8125 8.0486711,7.942755 7.9378561,8.077785 7.84375,8.21875 7.818661,8.25713 7.805304,8.30462 7.78125,8.34375 7.716487,8.446782 7.6510225,8.548267 7.59375,8.65625 7.4927417,8.850956 7.3880752,9.071951 7.3125,9.28125 7.30454,9.30306 7.288911,9.3218 7.28125,9.34375 7.2494249,9.4357 7.2454455,9.530581 7.21875,9.625 7.1884177,9.731618 7.1483606,9.828031 7.125,9.9375 7.0521214,10.279012 7,10.635705 7,11 l 0,2 0,68 0,2 c 0,2.781848 2.2181517,5 5,5 l 2,0 68,0 2,0 c 2.781848,0 5,-2.218152 5,-5 l 0,-2 0,-68 0,-2 C 89,10.635705 88.94788,10.279012 88.875,9.9375 88.83085,9.730607 88.78662,9.539842 88.71875,9.34375 88.71105,9.3218 88.69545,9.30306 88.6875,9.28125 88.62476,9.107511 88.549117,8.913801 88.46875,8.75 88.42717,8.6672 88.38971,8.580046 88.34375,8.5 88.28915,8.40279 88.216976,8.31165 88.15625,8.21875 88.06214,8.077785 87.951329,7.942755 87.84375,7.8125 87.700576,7.63805 87.540609,7.465502 87.375,7.3125 87.36383,7.3023 87.35502,7.29135 87.34375,7.28125 87.205364,7.155694 87.058659,7.046814 86.90625,6.9375 86.803679,6.86435 86.701932,6.784136 86.59375,6.71875 c -0.0074,-0.0045 -0.02384,0.0044 -0.03125,0 -0.232039,-0.138728 -0.462548,-0.274778 -0.71875,-0.375 0.301527,0.0968 0.596455,0.204138 0.875,0.34375 0.55709,0.279224 1.060053,0.665694 1.5,1.09375 0.219973,0.214028 0.409366,0.441865 0.59375,0.6875 0.184384,0.245635 0.355408,0.507743 0.5,0.78125 0.14012,0.265048 0.276135,0.524729 0.375,0.8125 0.01041,0.03078 0.02133,0.06274 0.03125,0.09375 0.09046,0.278085 0.1388,0.579404 0.1875,0.875 C 89.95865,11.3493 90,11.665279 90,12 l 0,2 0,68 0,2 c 0,3.324 -2.676,6 -6,6 l -72,0 z" fill="url(#radialGradient3619-3)" fill-opacity="1" fill-rule="nonzero" stroke="none" opacity="0.15" inkscape:connector-curvature="0"/>
 </g>
 <g display="inline">
  <path d="M 45.5625,39 C 37.940318,39.038173 30.536137,41.664555 24.016896,45.479858 20.00141,48.536883 17.237116,53.771097 18.25,58.875 c 1.008519,2.417736 2.61421,5.877093 5.625,5.90625 3.699107,-0.819115 7.322636,-1.981701 10.980357,-2.97406 2.608536,-0.547908 2.757325,-3.510108 2.575082,-5.64717 0.04618,-1.849125 -1.095881,-4.523376 1.780847,-4.375447 5.982122,-1.82043 12.495334,-1.63464 18.413714,0.340427 0.156251,2.467703 -0.168694,5.400077 1.640289,7.353311 3.286063,2.014045 6.85903,3.570708 10.390961,5.115439 2.427106,1.238273 4.655792,-0.74987 6.209577,-2.422839 2.982301,-2.756305 2.477962,-7.462534 0.95339,-10.846686 C 75.171292,47.442781 71.716731,44.685013 67.876879,43.142399 60.903708,39.983792 53.1515,39.032625 45.5625,39 z" fill="#000000" fill-opacity="1" opacity="0.1" inkscape:connector-curvature="0"/>
  <path d="m 45.5625,40 c -1.596617,0.01671 -3.033928,0.141066 -4.59375,0.34375 -2.696383,0.350382 -6.846562,1.4513 -9.3125,2.46875 C 30.771826,43.177406 29.336801,43.850598 28,44.5 c -1.336801,0.649402 -2.503246,1.209938 -3.0625,1.5625 -1.789224,1.128528 -3.859032,3.723062 -4.84375,5.84375 -0.477207,1.027505 -0.771358,2.238509 -0.9375,3.4375 -0.166142,1.198991 -0.198,2.332302 0.0625,3.28125 0.267985,0.976562 0.911629,2.04893 1.625,3.03125 0.356685,0.49116 0.739874,0.948899 1.09375,1.3125 0.176938,0.181801 0.341448,0.327797 0.53125,0.46875 0.189802,0.140953 0.360592,0.285614 0.75,0.34375 0.258341,0.03857 0.37805,0.01777 0.53125,0 0.1532,-0.01777 0.32165,-0.02799 0.5,-0.0625 0.356701,-0.06903 0.773241,-0.194478 1.1875,-0.3125 0.762287,-0.217068 3.117683,-0.880717 5.25,-1.46875 2.275242,-0.627438 3.432104,-0.909888 4.15625,-1.1875 0.362073,-0.138806 0.642803,-0.274458 0.90625,-0.53125 0.263447,-0.256792 0.406346,-0.583329 0.46875,-0.75 0.138531,-0.370107 0.155269,-0.659773 0.1875,-1.0625 0.03223,-0.402727 0.02871,-0.88396 0.03125,-1.40625 0.0051,-1.044579 -0.05171,-2.269235 -0.15625,-3.40625 C 36.197453,52.682029 36.208318,52.193508 36.25,52 c 0.04168,-0.193508 0.04639,-0.174397 0.3125,-0.40625 -0.164083,0.142963 0.132891,-0.08241 0.5,-0.21875 0.367109,-0.136339 0.867514,-0.274079 1.4375,-0.4375 1.139972,-0.326843 2.564635,-0.681958 3.8125,-0.90625 4.826969,-0.867655 9.535445,-0.626079 14.46875,0.78125 1.219825,0.348048 1.681882,0.601683 1.75,0.6875 0.06812,0.08582 0.14664,0.453701 0.125,1.59375 -0.02122,1.117691 0.07651,2.266031 0.25,3.21875 0.173489,0.952719 0.310425,1.655802 0.90625,2.3125 0.208063,0.229319 0.247033,0.220477 0.34375,0.28125 0.09672,0.06077 0.183621,0.115355 0.3125,0.1875 0.257757,0.14429 0.602259,0.326041 1,0.53125 0.795482,0.410418 1.843797,0.937599 2.9375,1.46875 2.187405,1.062302 4.54471,2.141845 5.625,2.5625 0.672706,0.26189 1.441239,0.44715 2.1875,0.15625 0.746261,-0.2909 1.328756,-0.825338 2.25,-1.6875 0.716929,-0.670945 1.133878,-1.079688 1.46875,-1.5 0.334872,-0.420312 0.536436,-0.856755 0.6875,-1.3125 1.14183,-3.445025 -0.283866,-8.128359 -3.125,-11.25 -1.345752,-1.479578 -2.319756,-2.195257 -4.59375,-3.34375 -4.995469,-2.522884 -10.850238,-4.004576 -17.75,-4.5 C 48.926191,40.058616 47.163704,39.983247 45.5625,40 z" fill="#000000" fill-opacity="1" opacity="0.15"/>
  <path d="m 25.482773,46.905576 c 0.842007,-0.530814 4.884637,-2.493801 6.561568,-3.185688 2.329496,-0.961154 6.50067,-2.065669 9.053704,-2.397424 3.050962,-0.396444 5.555884,-0.422647 9.986534,-0.104495 6.801435,0.488364 12.520156,1.930956 17.375501,4.383072 2.237751,1.130188 3.004528,1.685045 4.306186,3.116144 2.600422,2.857163 3.877096,7.364986 2.912654,10.274813 -0.273612,0.825462 -0.468754,1.073528 -1.893103,2.406519 -1.812039,1.695827 -2.179764,1.842796 -3.408787,1.364326 -1.963027,-0.764384 -9.549745,-4.453464 -9.85844,-4.793695 -0.509462,-0.561512 -0.897622,-2.757017 -0.857841,-4.852092 0.04415,-2.325888 -0.123757,-2.534949 -2.603868,-3.242589 -5.064707,-1.444814 -9.959592,-1.713681 -14.930763,-0.820105 -2.578774,0.46351 -5.761175,1.37235 -6.227128,1.778328 -0.661946,0.576738 -0.743362,0.984441 -0.571296,2.856544 0.202276,2.200079 0.180501,4.828063 -0.04496,5.430417 -0.229918,0.614075 -0.285385,0.635751 -4.837348,1.891034 -2.133801,0.588442 -4.513167,1.250381 -5.28752,1.470885 -0.774325,0.220605 -1.581295,0.375167 -1.79331,0.343516 -0.69151,-0.103237 -2.838689,-3.08017 -3.217796,-4.461673 -0.384825,-1.401839 0.01739,-4.259243 0.853193,-6.058864 0.870357,-1.874401 3.042721,-4.490665 4.482894,-5.399034 z" fill="#000000" fill-opacity="1" opacity="0.3" inkscape:connector-curvature="0"/>
  <text x="104" font-size="4" font-stretch="normal" font-style="normal" letter-spacing="0" font-variant="normal" y="48" font-weight="normal" text-anchor="start" line-height="125%" fill="#000000" fill-opacity="1" stroke="none" word-spacing="0" writing-mode="lr-tb" font-family="Liberation Sans"><tspan x="104" y="48">Shadow opacity : 30, 15, 10, (8)</tspan>
  </text>
  <text x="124" font-size="4" font-stretch="normal" font-style="normal" letter-spacing="0" font-variant="normal" y="32" font-weight="normal" text-anchor="start" line-height="125%" fill="#000000" fill-opacity="1" stroke="none" word-spacing="0" writing-mode="lr-tb" font-family="Liberation Sans"><tspan x="124" y="32">Bevel opacity : 30 / 10</tspan>
  </text>
  <text x="124" font-size="4" font-stretch="normal" font-style="normal" letter-spacing="0" font-variant="normal" y="8" font-weight="normal" text-anchor="start" line-height="125%" fill="#000000" fill-opacity="1" stroke="none" word-spacing="0" writing-mode="lr-tb" font-family="Liberation Sans"><tspan x="124" y="8">Bevel opacity : 75 / 15</tspan>
  </text>
  <path d="m 25.482773,45.905576 c 0.842007,-0.530814 4.884637,-2.493801 6.561568,-3.185688 2.329496,-0.961154 6.50067,-2.065669 9.053704,-2.397424 3.050962,-0.396444 5.555884,-0.422647 9.986534,-0.104495 6.801435,0.488364 12.520156,1.930956 17.375501,4.383072 2.237751,1.130188 3.004528,1.685045 4.306186,3.116144 2.600422,2.857163 3.877096,7.364986 2.912654,10.274813 -0.273612,0.825462 -0.468754,1.073528 -1.893103,2.406519 -1.812039,1.695827 -2.179764,1.842796 -3.408787,1.364326 -1.963027,-0.764384 -9.549745,-4.453464 -9.85844,-4.793695 -0.509462,-0.561512 -0.897622,-2.757017 -0.857841,-4.852092 0.04415,-2.325888 -0.123757,-2.534949 -2.603868,-3.242589 -5.064707,-1.444814 -9.959592,-1.713681 -14.930763,-0.820105 -2.578774,0.46351 -5.761175,1.37235 -6.227128,1.778328 -0.661946,0.576738 -0.743362,0.984441 -0.571296,2.856544 0.202276,2.200079 0.180501,4.828063 -0.04496,5.430417 -0.229918,0.614075 -0.285385,0.635751 -4.837348,1.891034 -2.133801,0.588442 -4.513167,1.250381 -5.28752,1.470885 -0.774325,0.220605 -1.581295,0.375167 -1.79331,0.343516 -0.69151,-0.103237 -2.838689,-3.08017 -3.217796,-4.461673 -0.384825,-1.401839 0.01739,-4.259243 0.853193,-6.058864 0.870357,-1.874401 3.042721,-4.490665 4.482894,-5.399034 z" fill="url(#linearGradient3811)" fill-opacity="1" inkscape:connector-curvature="0"/>
  <path d="m 45.5625,40 c -1.561432,0.01634 -2.943269,0.114278 -4.46875,0.3125 -2.553034,0.331755 -6.733004,1.445096 -9.0625,2.40625 -1.676931,0.691887 -5.720493,2.656686 -6.5625,3.1875 -1.440173,0.908369 -3.598393,3.531849 -4.46875,5.40625 -0.698154,1.50324 -1.081663,3.735496 -0.96875,5.25 0.06843,-1.393098 0.412994,-3.053367 0.96875,-4.25 0.870357,-1.874401 3.028577,-4.497881 4.46875,-5.40625 0.842007,-0.530814 4.885569,-2.495613 6.5625,-3.1875 2.329496,-0.961154 6.509466,-2.074495 9.0625,-2.40625 3.050962,-0.396444 5.56935,-0.411902 10,-0.09375 6.801435,0.488364 12.519655,1.922884 17.375,4.375 2.237751,1.130188 3.010842,1.693901 4.3125,3.125 1.904652,2.0927 3.063606,5.068994 3.1875,7.65625 0.183715,-2.785379 -1.033623,-6.28972 -3.1875,-8.65625 -1.301658,-1.431099 -2.074749,-1.994812 -4.3125,-3.125 -4.855345,-2.452116 -10.573565,-3.886636 -17.375,-4.375 C 48.878425,40.059674 47.123932,39.983663 45.5625,40 z M 35.28125,52.125 c -0.02769,0.379971 -0.03505,0.841095 0.03125,1.5625 0.07878,0.856851 0.144237,1.752029 0.15625,2.59375 0.02186,-1.063838 -0.0443,-2.376116 -0.15625,-3.59375 -0.02093,-0.227707 -0.01841,-0.375183 -0.03125,-0.5625 z" fill="#ffffff" fill-opacity="1" opacity="0.3" inkscape:connector-curvature="0"/>
  <path d="m 47.6875,46.53125 c -1.855712,0.0074 -3.698311,0.196159 -5.5625,0.53125 -2.578774,0.46351 -5.752797,1.375272 -6.21875,1.78125 -0.581433,0.506589 -0.717725,0.928532 -0.625,2.28125 0.04416,-0.606084 0.218131,-0.926755 0.625,-1.28125 0.465953,-0.405978 3.639976,-1.31774 6.21875,-1.78125 4.971171,-0.893576 9.872793,-0.632314 14.9375,0.8125 2.061863,0.588303 2.521338,0.848077 2.59375,2.25 0.04415,-2.325888 -0.113639,-2.54236 -2.59375,-3.25 -3.165442,-0.903009 -6.282147,-1.356153 -9.375,-1.34375 z m 11.96875,4.8125 c 0.0052,0.229693 0.0055,0.490514 0,0.78125 -0.03978,2.095075 0.365538,4.282238 0.875,4.84375 0.308695,0.340231 7.880723,4.016866 9.84375,4.78125 1.229023,0.47847 1.594211,0.352077 3.40625,-1.34375 1.424349,-1.332991 1.632638,-1.580788 1.90625,-2.40625 0.258046,-0.778554 0.326508,-1.679875 0.28125,-2.625 -0.03809,0.577469 -0.115636,1.125324 -0.28125,1.625 -0.273612,0.825462 -0.481901,1.073259 -1.90625,2.40625 -1.812039,1.695827 -2.177227,1.82222 -3.40625,1.34375 -1.963027,-0.764384 -9.535055,-4.441019 -9.84375,-4.78125 -0.491659,-0.54189 -0.884889,-2.598406 -0.875,-4.625 z m -24.1875,3.9375 c -0.01763,0.858354 -0.08682,1.574769 -0.1875,1.84375 -0.229918,0.614075 -0.291787,0.619717 -4.84375,1.875 -2.133801,0.588442 -4.506897,1.248246 -5.28125,1.46875 -0.774325,0.220605 -1.569235,0.375401 -1.78125,0.34375 -0.69151,-0.103237 -2.839643,-3.055997 -3.21875,-4.4375 -0.06338,-0.23087 -0.102738,-0.513898 -0.125,-0.8125 -0.03448,0.701988 -0.0039,1.342794 0.125,1.8125 0.379107,1.381503 2.52724,4.334263 3.21875,4.4375 0.212015,0.03165 1.006925,-0.123145 1.78125,-0.34375 0.774353,-0.220504 3.147449,-0.880308 5.28125,-1.46875 4.551963,-1.255283 4.613832,-1.260925 4.84375,-1.875 0.137652,-0.367759 0.206332,-1.524242 0.1875,-2.84375 z" fill="#000000" fill-opacity="1" opacity="0.1" inkscape:connector-curvature="0"/>
 </g>
</svg>
