<?xml version="1.0" encoding="UTF-8" standalone="no"?>
<svg
   xmlns:dc="http://purl.org/dc/elements/1.1/"
   xmlns:cc="http://creativecommons.org/ns#"
   xmlns:rdf="http://www.w3.org/1999/02/22-rdf-syntax-ns#"
   xmlns:svg="http://www.w3.org/2000/svg"
   xmlns="http://www.w3.org/2000/svg"
   xmlns:xlink="http://www.w3.org/1999/xlink"
   xmlns:sodipodi="http://sodipodi.sourceforge.net/DTD/sodipodi-0.dtd"
   xmlns:inkscape="http://www.inkscape.org/namespaces/inkscape"
   height="96"
   width="96"
   id="svg2"
   version="1.1"
   inkscape:version="0.91 r13725"
   sodipodi:docname="dialog-apply.svg">
  <metadata
     id="metadata68">
    <rdf:RDF>
      <cc:Work
         rdf:about="">
        <dc:format>image/svg+xml</dc:format>
        <dc:type
           rdf:resource="http://purl.org/dc/dcmitype/StillImage" />
      </cc:Work>
    </rdf:RDF>
  </metadata>
  <sodipodi:namedview
     pagecolor="#ffffff"
     bordercolor="#666666"
     borderopacity="1"
     objecttolerance="10"
     gridtolerance="10"
     guidetolerance="10"
     inkscape:pageopacity="0"
     inkscape:pageshadow="2"
     inkscape:window-width="760"
     inkscape:window-height="480"
     id="namedview66"
     showgrid="false"
     inkscape:zoom="2.4583333"
     inkscape:cx="123.45763"
     inkscape:cy="47.999999"
     inkscape:window-x="75"
     inkscape:window-y="99"
     inkscape:window-maximized="0"
     inkscape:current-layer="svg2" />
  <defs
     id="defs4">
    <linearGradient
       x2="0"
       y1="92.54"
       y2="7.02"
       gradientUnits="userSpaceOnUse"
       id="ButtonShadow-0"
       gradientTransform="matrix(1.0059 0 0 0.99417 100 0)">
      <stop
         stop-color="#000000"
         stop-opacity="1"
         id="stop7" />
      <stop
         stop-color="#000000"
         stop-opacity="0.588"
         offset="1"
         id="stop9" />
    </linearGradient>
    <linearGradient
       x2="0"
       xlink:href="#ButtonShadow-0"
       y1="6.132"
       y2="90.24"
       gradientUnits="userSpaceOnUse"
       id="linearGradient3780"
       gradientTransform="matrix(1.02381 0 0 -1.0119 -1.143 98.07)" />
    <linearGradient
       x2="0"
       xlink:href="#ButtonShadow-0"
       y1="6.132"
       y2="90.24"
       gradientUnits="userSpaceOnUse"
       id="linearGradient3721"
       gradientTransform="matrix(1 0 0 -1 0 97)" />
    <radialGradient
       cy="90.17"
       r="42"
       gradientUnits="userSpaceOnUse"
       id="radialGradient3619-3"
       cx="48"
       gradientTransform="matrix(1.15731 0 0 0.99591 -7.551 0.197)">
      <stop
         stop-color="#ffffff"
         stop-opacity="1"
         id="stop14" />
      <stop
         stop-color="#ffffff"
         stop-opacity="0"
         offset="1"
         id="stop16" />
    </radialGradient>
    <linearGradient
       x2="0"
       y1="5.655"
       y2="18.1"
       gradientUnits="userSpaceOnUse"
       id="linearGradient3018"
       gradientTransform="matrix(3.69877,0,0,2.89143,10.902,15.338)">
      <stop
         stop-color="#1a1a1a"
         stop-opacity="1"
         id="stop19" />
      <stop
         stop-color="#4d4d4d"
         stop-opacity="1"
         offset="1"
         id="stop21" />
    </linearGradient>
    <rect
       x="6"
       rx="6"
       y="6"
       fill="#000000"
       fill-opacity="1"
       stroke="none"
       fill-rule="nonzero"
       height="84"
       id="SVGCleanerId_0"
       opacity="0.6"
       width="84" />
  </defs>
  <g
     id="g3369"
     transform="matrix(1.5384064,0,0,1.5384064,-22.787654,-30.440332)">
    <path
       d="m 59.65625,31 c -1.377191,0.224683 -1.80803,1.713982 -1.625,2.918497 -0.0712,3.658404 0.173557,7.334983 -0.193498,10.977414 -0.15401,2.465578 -3.21818,1.920269 -4.962557,2.045891 C 49.916797,46.961201 46.958398,46.980601 44,47 43.95925,44.148051 44.0821,41.277915 43.9375,38.4375 43.538677,36.964676 41.489572,36.522677 40.466337,37.642435 33.845038,42.618815 27.200543,47.570961 20.59375,52.5625 19.572981,53.535206 19.973352,55.304226 21.201134,55.908663 27.848029,60.867785 34.450091,65.897475 41.125,70.8125 42.547889,71.54145 44.318453,70.160088 44,68.606359 44,66.070906 44,63.535453 44,61 49.820111,60.96166 55.645565,61.07898 61.462136,60.93702 67.497667,60.423364 72.314326,54.637147 72,48.637609 71.9791,43.290401 72.041759,37.937255 71.96875,32.59375 71.737709,31.241657 70.275021,30.828553 69.081503,31 c -3.141706,1.5e-5 -6.283743,-2e-5 -9.425253,0 z"
       inkscape:connector-curvature="0"
       id="path42"
       style="opacity:0.1;fill:black;fill-opacity:1;stroke:none" />
    <path
       d="M 59.9375,31.96875 A 1.0329599,1.0329599 0 0 0 59,33 l 0,9.28125 c 0,2.667328 -0.30311,4.028096 -0.90625,4.65625 -0.60314,0.628154 -1.905017,0.96875 -4.5625,0.96875 l -10.5,0.0625 0,-8.96875 A 1.0329599,1.0329599 0 0 0 41.375,38.1875 l -20,15 a 1.0329599,1.0329599 0 0 0 0,1.625 l 20,15 A 1.0329599,1.0329599 0 0 0 43.03125,69 l 0,-8.96875 17.21875,0 c 6.009549,0 10.78125,-5.018168 10.78125,-11 L 71.03125,33 A 1.0329599,1.0329599 0 0 0 70,31.96875 l -9.96875,0 a 1.0329599,1.0329599 0 0 0 -0.09375,0 z"
       id="path44"
       inkscape:connector-curvature="0"
       style="opacity:0.15;fill:black;fill-opacity:1;stroke:none" />
    <path
       d="m 60.03587,33 0,9.296131 c 0,5.465054 -1.024404,6.642753 -6.489455,6.642753 L 42,49 42,39 22,54 42,69 42,59 60.235178,59 C 65.670384,59 70,54.476282 70,49.04108 L 70,33 Z"
       inkscape:connector-curvature="0"
       id="path46"
       style="opacity:0.3;fill:black;fill-opacity:1;stroke:none" />
    <path
       d="m 60.03587,32 0,9.296131 c 0,5.465054 -1.024404,6.642753 -6.489455,6.642753 L 42,48 42,38 22,53 42,68 42,58 60.235178,58 C 65.670384,58 70,53.476282 70,48.04108 L 70,32 Z"
       inkscape:connector-curvature="0"
       id="path60"
       style="fill:url(#linearGradient3018);fill-opacity:1;stroke:none" />
    <path
       d="m 60.03125,32 0,1 L 70,33 70,32 60.03125,32 Z M 42,38 22,53 22.65625,53.5 42,39 42,38 Z m 18.03125,3.28125 c 0,5.465054 -1.034949,6.65625 -6.5,6.65625 L 42,48 l 0,1 11.53125,-0.0625 c 5.465051,0 6.5,-1.191196 6.5,-6.65625 l 0,-1 z"
       inkscape:connector-curvature="0"
       id="path62"
       style="opacity:0.75;fill:white;fill-opacity:1;stroke:none" />
    <path
       d="M 70,47.03125 C 70,52.466452 65.685206,57 60.25,57 L 42,57 l 0,1 18.25,0 C 65.685206,58 70,53.466452 70,48.03125 l 0,-1 z M 22.65625,52.5 22,53 42,68 42,67 22.65625,52.5 Z"
       inkscape:connector-curvature="0"
       id="path64"
       style="opacity:0.15;fill:black;fill-opacity:1;stroke:none" />
  </g>
</svg>
