<svg height="96" width="96" xmlns="http://www.w3.org/2000/svg" xmlns:xlink="http://www.w3.org/1999/xlink" xmlns:sodipodi="http://sodipodi.sourceforge.net/DTD/sodipodi-0.dtd" xmlns:inkscape="http://www.inkscape.org/namespaces/inkscape">
 <defs>
  <linearGradient x2="0" y1="92.54" y2="7.02" gradientUnits="userSpaceOnUse" id="ButtonShadow-0" gradientTransform="matrix(1.0059 0 0 0.99417 100 0)">
   <stop stop-color="#000000" stop-opacity="1"/>
   <stop stop-color="#000000" stop-opacity="0.588" offset="1"/>
  </linearGradient>
  <linearGradient x2="0" xlink:href="#ButtonShadow-0" y1="6.132" y2="90.24" gradientUnits="userSpaceOnUse" id="linearGradient3780" gradientTransform="matrix(1.02381 0 0 -1.0119 -1.143 98.07)"/>
  <linearGradient x2="0" xlink:href="#ButtonShadow-0" y1="6.132" y2="90.24" gradientUnits="userSpaceOnUse" id="linearGradient3721" gradientTransform="matrix(1 0 0 -1 0 97)"/>
  <radialGradient cy="90.17" r="42" gradientUnits="userSpaceOnUse" id="radialGradient3619-3" cx="48" gradientTransform="matrix(1.15731 0 0 0.99591 -7.551 0.197)">
   <stop stop-color="#ffffff" stop-opacity="1"/>
   <stop stop-color="#ffffff" stop-opacity="0" offset="1"/>
  </radialGradient>
  <linearGradient x2="0" y1="20" y2="68" gradientUnits="userSpaceOnUse" id="linearGradient3131" gradientTransform="matrix(1 0 0 1 -4 2)">
   <stop stop-color="#f0f0f0" stop-opacity="1"/>
   <stop stop-color="#aaaaaa" stop-opacity="1" offset="1"/>
  </linearGradient>
  <rect x="6" rx="6" y="6" fill="#000000" fill-opacity="1" stroke="none" fill-rule="nonzero" height="84" id="SVGCleanerId_0" opacity="0.6" width="84"/>
 </defs>
 <path d="M 12,3.96875 C 6.4889098,3.96875 1.96875,8.4889098 1.96875,14 l 0,71 c 0,5.51109 4.5201597,10.03125 10.03125,10.03125 l 72,0 c 5.51109,0 10.03125,-4.52016 10.03125,-10.03125 l 0,-71 C 94.03125,8.4889097 89.51109,3.96875 84,3.96875 l -72,0 z M 12,6 84,6 c 3.324,0 6,2.676 6,6 l 0,72 c 0,3.324 -2.676,6 -6,6 L 12,90 C 8.676,90 6,87.324 6,84 L 6,12 C 6,8.676 8.676,6 12,6 z" display="inline" fill="url(#linearGradient3780)" fill-opacity="1" fill-rule="nonzero" stroke="none" opacity="0.08" inkscape:connector-curvature="0"/>
 <path d="M 12,4.96875 C 7.0283671,4.96875 2.96875,9.0283671 2.96875,14 l 0,71 c 0,4.971633 4.059617,9.03125 9.03125,9.03125 l 72,0 c 4.971633,0 9.03125,-4.059617 9.03125,-9.03125 l 0,-71 C 93.03125,9.028367 88.971633,4.96875 84,4.96875 l -72,0 z M 12,6 84,6 c 3.324,0 6,2.676 6,6 l 0,72 c 0,3.324 -2.676,6 -6,6 L 12,90 C 8.676,90 6,87.324 6,84 L 6,12 C 6,8.676 8.676,6 12,6 z" display="inline" fill="url(#linearGradient3780)" fill-opacity="1" fill-rule="nonzero" stroke="none" opacity="0.1" inkscape:connector-curvature="0"/>
 <path d="M 11.1875,6.03125 C 7.159982,6.4419011 4,9.8664375 4,14 l 0,71 c 0,4.409133 3.590867,8 8,8 l 72,0 c 4.409133,0 8,-3.590867 8,-8 L 92,14 C 92,9.8029382 88.741028,6.3539584 84.625,6.03125 87.657886,6.337417 90,8.88375 90,12 l 0,72 c 0,3.324 -2.676,6 -6,6 L 12,90 C 8.676,90 6,87.324 6,84 L 6,12 c 0,-3.11625 2.342114,-5.662583 5.375,-5.96875 -0.06227,0.00488 -0.12563,-0.00631 -0.1875,0 z" display="inline" fill="url(#linearGradient3780)" fill-opacity="1" fill-rule="nonzero" stroke="none" opacity="0.2" inkscape:connector-curvature="0"/>
 <path d="M 6.4375,9.75 C 5.5380109,10.927446 5,12.397277 5,14 l 0,71 c 0,3.878 3.122,7 7,7 l 72,0 c 3.878,0 7,-3.122 7,-7 L 91,14 C 91,12.397277 90.461989,10.927446 89.5625,9.75 89.841816,10.444095 90,11.203625 90,12 l 0,72 c 0,3.324 -2.676,6 -6,6 L 12,90 C 8.676,90 6,87.324 6,84 L 6,12 C 6,11.203625 6.1581836,10.444095 6.4375,9.75 z" display="inline" fill="url(#linearGradient3780)" fill-opacity="1" fill-rule="nonzero" stroke="none" opacity="0.3" inkscape:connector-curvature="0"/>
 <path d="m 6,84 0,1 c 0,3.324 2.676,6 6,6 l 72,0 c 3.324,0 6,-2.676 6,-6 l 0,-1 c 0,3.324 -2.676,6 -6,6 L 12,90 C 8.676,90 6,87.324 6,84 z" display="inline" fill="url(#linearGradient3721)" fill-opacity="1" fill-rule="nonzero" stroke="none" opacity="0.45" inkscape:connector-curvature="0"/>
 <g display="inline">
  <use xlink:href="#SVGCleanerId_0"/>
  <path d="M 12,90 C 8.676,90 6,87.324 6,84 L 6,82 6,14 6,12 c 0,-0.334721 0.04135,-0.6507 0.09375,-0.96875 0.0487,-0.295596 0.09704,-0.596915 0.1875,-0.875 C 6.29113,10.12587 6.302142,10.09265 6.3125,10.0625 6.411365,9.774729 6.5473802,9.515048 6.6875,9.25 6.8320918,8.976493 7.0031161,8.714385 7.1875,8.46875 7.3718839,8.223115 7.5612765,7.995278 7.78125,7.78125 8.221197,7.353194 8.72416,6.966724 9.28125,6.6875 9.559795,6.547888 9.8547231,6.440553 10.15625,6.34375 9.9000482,6.443972 9.6695391,6.580022 9.4375,6.71875 c -0.00741,0.0044 -0.023866,-0.0045 -0.03125,0 -0.031933,0.0193 -0.062293,0.04251 -0.09375,0.0625 -0.120395,0.0767 -0.2310226,0.163513 -0.34375,0.25 -0.1061728,0.0808 -0.2132809,0.161112 -0.3125,0.25 C 8.4783201,7.442683 8.3087904,7.626638 8.15625,7.8125 8.0486711,7.942755 7.9378561,8.077785 7.84375,8.21875 7.818661,8.25713 7.805304,8.30462 7.78125,8.34375 7.716487,8.446782 7.6510225,8.548267 7.59375,8.65625 7.4927417,8.850956 7.3880752,9.071951 7.3125,9.28125 7.30454,9.30306 7.288911,9.3218 7.28125,9.34375 7.2494249,9.4357 7.2454455,9.530581 7.21875,9.625 7.1884177,9.731618 7.1483606,9.828031 7.125,9.9375 7.0521214,10.279012 7,10.635705 7,11 l 0,2 0,68 0,2 c 0,2.781848 2.2181517,5 5,5 l 2,0 68,0 2,0 c 2.781848,0 5,-2.218152 5,-5 l 0,-2 0,-68 0,-2 C 89,10.635705 88.94788,10.279012 88.875,9.9375 88.83085,9.730607 88.78662,9.539842 88.71875,9.34375 88.71105,9.3218 88.69545,9.30306 88.6875,9.28125 88.62476,9.107511 88.549117,8.913801 88.46875,8.75 88.42717,8.6672 88.38971,8.580046 88.34375,8.5 88.28915,8.40279 88.216976,8.31165 88.15625,8.21875 88.06214,8.077785 87.951329,7.942755 87.84375,7.8125 87.700576,7.63805 87.540609,7.465502 87.375,7.3125 87.36383,7.3023 87.35502,7.29135 87.34375,7.28125 87.205364,7.155694 87.058659,7.046814 86.90625,6.9375 86.803679,6.86435 86.701932,6.784136 86.59375,6.71875 c -0.0074,-0.0045 -0.02384,0.0044 -0.03125,0 -0.232039,-0.138728 -0.462548,-0.274778 -0.71875,-0.375 0.301527,0.0968 0.596455,0.204138 0.875,0.34375 0.55709,0.279224 1.060053,0.665694 1.5,1.09375 0.219973,0.214028 0.409366,0.441865 0.59375,0.6875 0.184384,0.245635 0.355408,0.507743 0.5,0.78125 0.14012,0.265048 0.276135,0.524729 0.375,0.8125 0.01041,0.03078 0.02133,0.06274 0.03125,0.09375 0.09046,0.278085 0.1388,0.579404 0.1875,0.875 C 89.95865,11.3493 90,11.665279 90,12 l 0,2 0,68 0,2 c 0,3.324 -2.676,6 -6,6 l -72,0 z" fill="url(#radialGradient3619-3)" fill-opacity="1" fill-rule="nonzero" stroke="none" opacity="0.15" inkscape:connector-curvature="0"/>
 </g>
 <g display="inline">
  <path d="m 67.625,21 c -1.552347,0.199958 -2.090212,1.867226 -1.875,3.222629 -0.03765,6.061637 0.07853,12.127778 -0.06423,18.186356 0.469702,2.111011 -2.1636,2.868025 -1.498273,0.526884 -0.0192,-4.337866 0.03874,-8.677702 -0.02957,-13.014314 -0.246531,-3.28032 -3.549805,-5.521055 -6.69306,-5.109055 -9.51419,0.0196 -19.030384,-0.03928 -28.543316,0.02957 -3.28032,0.246531 -5.521055,3.549805 -5.109055,6.69306 0.01964,12.180855 -0.03932,24.363718 0.02957,36.543316 0.246531,3.28032 3.549805,5.521055 6.69306,5.109055 9.51419,-0.0196 19.030384,0.03928 28.543316,-0.02957 3.28032,-0.246531 5.521055,-3.549805 5.109055,-6.69306 0,-3.748707 0,-7.497414 0,-11.246121 5.811248,0.504302 11.48063,-4.135301 11.942133,-9.987259 C 76.261153,37.887067 76.151498,30.534963 76.1875,23.1875 76.206816,21.5836 74.531093,20.754347 73.112747,21 71.283498,21 69.454249,21 67.625,21 z M 34.1875,35.1875 c 6.541667,0 13.083333,0 19.625,0 0,3.197917 0,6.395833 0,9.59375 -1.032067,0.137732 -1.873754,0.08508 -1.5,-1.183005 C 52.23845,41.81888 52.466799,40.007812 52.1875,38.25 51.649188,36.631195 49.385771,36.355848 48.314569,37.613433 43.673849,41.248447 38.987563,44.835168 34.375,48.5 c -0.424334,0.376841 -0.07241,-1.563361 -0.1875,-2.116009 0,-3.732164 0,-7.464327 0,-11.196491 z m 0,16.0625 c 1.673457,1.616565 3.68232,2.913879 5.485573,4.406906 3.068958,2.382911 6.124869,4.783913 9.201927,7.155594 -4.895833,0 -9.791667,0 -14.6875,0 0,-3.854167 0,-7.708333 0,-11.5625 z m 18.125,3.96875 c 1.032067,-0.137732 1.873754,-0.08508 1.5,1.183005 0,2.136915 0,4.27383 0,6.410745 -0.593071,-0.111337 -2.549144,0.231659 -2.21875,-0.1875 1.208444,-1.195748 0.54918,-3.064187 0.71875,-4.582512 0,-0.941246 0,-1.882492 0,-2.823738 z" stroke-width="2" fill="#000000" color="#000000" fill-opacity="1" fill-rule="nonzero" stroke="none" opacity="0.1" visibility="visible" inkscape:connector-curvature="0"/>
  <path d="m 67.71875,22.03125 a 1.1699878,1.1699878 0 0 0 -0.9375,1.15625 l 0,17.71875 c 0,2.418155 -0.298176,3.59764 -0.78125,4.09375 -0.399877,0.410668 -1.449331,0.664562 -3.09375,0.75 a 1.1699878,1.1699878 0 0 0 0.25,-0.75 l 0,-14.5 c 0,-2.566873 -2.089377,-4.65625 -4.65625,-4.65625 l -29,0 c -2.566873,0 -4.65625,2.089377 -4.65625,4.65625 l 0,37 c 0,2.566873 2.089377,4.65625 4.65625,4.65625 l 29,0 c 2.566873,0 4.65625,-2.089377 4.65625,-4.65625 l 0,-12.5 a 1.1699878,1.1699878 0 0 0 -0.3125,-0.8125 l 2.1875,0 c 5.586964,0 10.125,-4.501879 10.125,-10.09375 l 0,-20.90625 A 1.1699878,1.1699878 0 0 0 74,22.03125 l -6.0625,0 a 1.1699878,1.1699878 0 0 0 -0.21875,0 z M 34,34.15625 l 20,0 c 0.480127,0 0.84375,0.363623 0.84375,0.84375 l 0,10 a 1.1699878,1.1699878 0 0 0 0.3125,0.8125 l -3.875,0 0,-6.8125 a 1.1699878,1.1699878 0 0 0 -1.875,-0.9375 l -14.125,11 a 1.1699878,1.1699878 0 0 0 0,1.875 l 14.125,11 A 1.1699878,1.1699878 0 0 0 51.28125,61 l 0,-6.8125 3.875,0 A 1.1699878,1.1699878 0 0 0 54.84375,55 l 0,8 c 0,0.480127 -0.363623,0.84375 -0.84375,0.84375 l -20,0 c -0.480127,0 -0.84375,-0.363623 -0.84375,-0.84375 l 0,-28 c 0,-0.480127 0.363623,-0.84375 0.84375,-0.84375 z" stroke-width="2" fill="#000000" color="#000000" fill-opacity="1" fill-rule="nonzero" stroke="none" opacity="0.15" visibility="visible"/>
  <path d="m 67.9375,23.1875 0,17.71875 c 0,4.989397 -0.979358,6.0625 -5.96875,6.0625 l -11.84375,0 L 50.125,39 36,50 l 14.125,11 0,-7.96875 14.90625,0 C 69.993396,53.03125 74,49.055892 74,44.09375 l 0,-20.90625 -6.0625,0 z M 29.5,27 C 27.561,27 26,28.561 26,30.5 l 0,37 c 0,1.939 1.561,3.5 3.5,3.5 l 29,0 c 1.939,0 3.5,-1.561 3.5,-3.5 l 0,-12.5 -6,0 0,8 c 0,1.108 -0.892,2 -2,2 l -20,0 c -1.108,0 -2,-0.892 -2,-2 l 0,-28 c 0,-1.108 0.892,-2 2,-2 l 20,0 c 1.108,0 2,0.892 2,2 l 0,10 6,0 0,-14.5 C 62,28.561 60.439,27 58.5,27 l -29,0 z" stroke-width="2" fill="#000000" color="#000000" fill-opacity="1" fill-rule="nonzero" stroke="none" opacity="0.3" visibility="visible" inkscape:connector-curvature="0"/>
  <text x="104" font-size="4" font-stretch="normal" font-style="normal" letter-spacing="0" font-variant="normal" y="48" font-weight="normal" text-anchor="start" line-height="125%" fill="#000000" fill-opacity="1" stroke="none" word-spacing="0" writing-mode="lr-tb" font-family="Liberation Sans"><tspan x="104" y="48">Shadow opacity : 30, 15, 10, (8)</tspan>
  </text>
  <text x="124" font-size="4" font-stretch="normal" font-style="normal" letter-spacing="0" font-variant="normal" y="32" font-weight="normal" text-anchor="start" line-height="125%" fill="#000000" fill-opacity="1" stroke="none" word-spacing="0" writing-mode="lr-tb" font-family="Liberation Sans"><tspan x="124" y="32">Bevel opacity : 30 / 10</tspan>
  </text>
  <text x="124" font-size="4" font-stretch="normal" font-style="normal" letter-spacing="0" font-variant="normal" y="8" font-weight="normal" text-anchor="start" line-height="125%" fill="#000000" fill-opacity="1" stroke="none" word-spacing="0" writing-mode="lr-tb" font-family="Liberation Sans"><tspan x="124" y="8">Bevel opacity : 75 / 15</tspan>
  </text>
  <path d="m 67.9375,22.1875 0,17.71875 c 0,4.989397 -0.979358,6.0625 -5.96875,6.0625 l -11.84375,0 L 50.125,38 36,49 l 14.125,11 0,-7.96875 14.90625,0 C 69.993396,52.03125 74,48.055892 74,43.09375 l 0,-20.90625 -6.0625,0 z M 29.5,26 C 27.561,26 26,27.561 26,29.5 l 0,37 c 0,1.939 1.561,3.5 3.5,3.5 l 29,0 c 1.939,0 3.5,-1.561 3.5,-3.5 l 0,-12.5 -6,0 0,8 c 0,1.108 -0.892,2 -2,2 l -20,0 c -1.108,0 -2,-0.892 -2,-2 l 0,-28 c 0,-1.108 0.892,-2 2,-2 l 20,0 c 1.108,0 2,0.892 2,2 l 0,10 6,0 0,-14.5 C 62,27.561 60.439,26 58.5,26 l -29,0 z" stroke-width="2" fill="url(#linearGradient3131)" color="#000000" fill-opacity="1" fill-rule="nonzero" stroke="none" visibility="visible" inkscape:connector-curvature="0"/>
  <path d="m 67.9375,22.1875 0,1 6.0625,0 0,-1 -6.0625,0 z M 29.5,26 C 27.561,26 26,27.561 26,29.5 l 0,1 C 26,28.561 27.561,27 29.5,27 l 29,0 c 1.939,0 3.5,1.561 3.5,3.5 l 0,-1 C 62,27.561 60.439,26 58.5,26 l -29,0 z M 50.125,38 36,49 36.65625,49.5 50.125,39 l 0,-1 z m 17.8125,1.90625 c 0,4.989397 -0.979358,6.0625 -5.96875,6.0625 l -11.84375,0 0,1 11.84375,0 c 4.989392,0 5.96875,-1.073103 5.96875,-6.0625 l 0,-1 z M 56,54 l 0,1 6,0 0,-1 -6,0 z m -24,8 0,1 c 0,1.108 0.892,2 2,2 l 20,0 c 1.108,0 2,-0.892 2,-2 l 0,-1 c 0,1.108 -0.892,2 -2,2 l -20,0 c -1.108,0 -2,-0.892 -2,-2 z" stroke-width="2" fill="#ffffff" color="#000000" fill-opacity="1" fill-rule="nonzero" stroke="none" opacity="0.75" visibility="visible" inkscape:connector-curvature="0"/>
  <path d="m 34,31 c -1.108,0 -2,0.892 -2,2 l 0,1 c 0,-1.108 0.892,-2 2,-2 l 20,0 c 1.108,0 2,0.892 2,2 l 0,-1 c 0,-1.108 -0.892,-2 -2,-2 l -20,0 z m 40,11.09375 c 0,4.962142 -4.006604,8.9375 -8.96875,8.9375 l -14.90625,0 0,1 14.90625,0 C 69.993396,52.03125 74,48.055892 74,43.09375 l 0,-1 z M 56,43 l 0,1 6,0 0,-1 -6,0 z M 36.65625,48.5 36,49 l 14.125,11 0,-1 L 36.65625,48.5 z M 26,65.5 l 0,1 c 0,1.939 1.561,3.5 3.5,3.5 l 29,0 c 1.939,0 3.5,-1.561 3.5,-3.5 l 0,-1 c 0,1.939 -1.561,3.5 -3.5,3.5 l -29,0 C 27.561,69 26,67.439 26,65.5 z" stroke-width="2" fill="#000000" color="#000000" fill-opacity="1" fill-rule="nonzero" stroke="none" opacity="0.15" visibility="visible" inkscape:connector-curvature="0"/>
 </g>
</svg>
