<svg display="inline" height="96" width="96" xmlns="http://www.w3.org/2000/svg" xmlns:xlink="http://www.w3.org/1999/xlink" xmlns:sodipodi="http://sodipodi.sourceforge.net/DTD/sodipodi-0.dtd" xmlns:inkscape="http://www.inkscape.org/namespaces/inkscape">
 <defs>
  <linearGradient x2="0" y1="92.54" y2="7.02" gradientUnits="userSpaceOnUse" id="ButtonShadow-0" gradientTransform="matrix(1.0059 0 0 0.99417 100 0)">
   <stop stop-color="#000000" stop-opacity="1"/>
   <stop stop-color="#000000" stop-opacity="0.588" offset="1"/>
  </linearGradient>
  <linearGradient x2="0" xlink:href="#ButtonShadow-0" y1="6.132" y2="90.24" gradientUnits="userSpaceOnUse" id="linearGradient3780" gradientTransform="matrix(1.02381 0 0 -1.0119 -1.143 98.07)"/>
  <linearGradient x2="0" xlink:href="#ButtonShadow-0" y1="6.132" y2="90.24" gradientUnits="userSpaceOnUse" id="linearGradient3721-6" gradientTransform="matrix(1 0 0 -1 0 97)"/>
  <radialGradient cy="90.17" r="42" gradientUnits="userSpaceOnUse" id="radialGradient3619-3" cx="48" gradientTransform="matrix(1.15731 0 0 0.99591 -7.551 0.197)">
   <stop stop-color="#ffffff" stop-opacity="1"/>
   <stop stop-color="#ffffff" stop-opacity="0" offset="1"/>
  </radialGradient>
  <linearGradient x2="0" y1="17.478" y2="0.922" gradientUnits="userSpaceOnUse" id="linearGradient3181" gradientTransform="matrix(2.46593 0 0 2.89923 10.507 21.327)">
   <stop stop-color="#aaaaaa" stop-opacity="1"/>
   <stop stop-color="#f0f0f0" stop-opacity="1" offset="1"/>
  </linearGradient>
  <path d="m 33.34375,24 c -2.216,0 -4,1.784 -4,4 l 0,14.65625 -1.34375,0 c -2.216,0 -4,1.784 -4,4 L 24,60 c 0,2.216 1.784,4 4,4 l 1.34375,0 0,4 c 0,2.216 1.784,4 4,4 l 29.3125,0 c 0.628102,0 1.222096,-0.150391 1.75,-0.40625 l -4.875,-4.9375 -23.53125,0 c -0.738666,0 -1.34375,-0.573834 -1.34375,-1.3125 l 0,-1.34375 0,-2.65625 6.9375,0 C 40.743603,60.801708 39.931874,60.179147 39.1875,59.4375 35.365306,55.629309 34.142542,50.193714 35.53125,45.34375 l -0.875,0 0,-2.6875 0,-12 c 0,-0.738666 0.605084,-1.3125 1.34375,-1.3125 l 24,0 c 0.738666,0 1.34375,0.573834 1.34375,1.3125 l 0,10.71875 c 2.972604,4.492629 3.088725,10.29879 0.4375,14.96875 0.01474,0.166843 0.03977,0.321184 0.0625,0.46875 0.09179,7.72e-4 0.106915,-0.002 0.21875,0 0.78271,0.01369 2.254104,0.200644 3.3125,1.3125 0.02179,0.02289 0.04107,0.03881 0.0625,0.0625 l 4.96875,5 C 71.376023,62.45892 72,61.311732 72,60 l 0,-13.34375 c 0,-2.215996 -1.784,-4 -4,-4 l -1.25,0 -0.09375,0 0,-14.65625 c 0,-2.216 -1.784,-4 -4,-4 l -29.3125,0 z m 4,10.65625 0,2.6875 4.0625,0 c 2.397019,-1.594929 5.166012,-2.40625 7.9375,-2.40625 2.771632,0 5.561972,0.810229 7.96875,2.40625 l 1.4375,0 0,-2.6875 -21.40625,0 z m 12,2.34375 c -3.162926,0 -6.307237,1.191074 -8.71875,3.59375 -4.823025,4.805354 -4.823024,12.600895 0,17.40625 4.204602,4.189197 10.678352,4.771137 15.46875,1.65625 0.814264,0.04071 2.127161,0.128868 2.59375,0.65625 0.635306,0.718079 -0.280903,2.405587 0.9375,3.5 L 67.21875,71.5 c 0,0 1.404371,1.493859 3.59375,-0.6875 C 73.001883,68.631141 71.5,67.21875 71.5,67.21875 L 63.90625,59.5625 c -1.09844,-1.21394 -2.779282,-0.335775 -3.5,-0.96875 -0.529324,-0.464878 -0.646657,-1.751219 -0.6875,-2.5625 3.126342,-4.772845 2.579602,-11.248306 -1.625,-15.4375 C 55.682237,38.191074 52.506676,37 49.34375,37 z m -12,3 0,1.40625 C 37.665487,40.919906 38.018874,40.452273 38.40625,40 l -1.0625,0 z m 12.0625,1.09375 c 4.547192,0 8.21875,3.688219 8.21875,8.21875 0,4.530534 -3.671556,8.21875 -8.21875,8.21875 -4.547189,2e-6 -8.25,-3.688216 -8.25,-8.21875 10e-7,-2.265266 0.915232,-4.358196 2.40625,-5.84375 1.491019,-1.485555 3.570154,-2.375 5.84375,-2.375 z m -4.8125,4.25 c -0.870533,1.066413 -1.374999,2.469078 -1.375,3.96875 0,3.415207 2.747174,6.156252 6.1875,6.15625 3.440333,0 6.15625,-2.731629 6.15625,-6.15625 0,-1.514638 -0.547267,-2.901596 -1.4375,-3.96875 l -9.53125,0 z m 20.75,5.3125 c 0.736002,0 1.3125,0.60775 1.3125,1.34375 4e-6,0.736 -0.5765,1.34375 -1.3125,1.34375 C 64.607752,53.34375 64,52.736 64,52 c 2e-6,-0.736 0.60775,-1.34375 1.34375,-1.34375 z" fill-opacity="1" stroke="none" id="SVGCleanerId_0"/>
 </defs>
 <path d="M 12,3.96875 C 6.4889098,3.96875 1.96875,8.4889098 1.96875,14 l 0,71 c 0,5.51109 4.5201597,10.03125 10.03125,10.03125 l 72,0 c 5.51109,0 10.03125,-4.52016 10.03125,-10.03125 l 0,-71 C 94.03125,8.4889097 89.51109,3.96875 84,3.96875 l -72,0 z M 12,6 84,6 c 3.324,0 6,2.676 6,6 l 0,72 c 0,3.324 -2.676,6 -6,6 L 12,90 C 8.676,90 6,87.324 6,84 L 6,12 C 6,8.676 8.676,6 12,6 z" fill="url(#linearGradient3780)" fill-opacity="1" fill-rule="nonzero" stroke="none" opacity="0.08" inkscape:connector-curvature="0"/>
 <path d="M 12,4.96875 C 7.0283671,4.96875 2.96875,9.0283671 2.96875,14 l 0,71 c 0,4.971633 4.059617,9.03125 9.03125,9.03125 l 72,0 c 4.971633,0 9.03125,-4.059617 9.03125,-9.03125 l 0,-71 C 93.03125,9.028367 88.971633,4.96875 84,4.96875 l -72,0 z M 12,6 84,6 c 3.324,0 6,2.676 6,6 l 0,72 c 0,3.324 -2.676,6 -6,6 L 12,90 C 8.676,90 6,87.324 6,84 L 6,12 C 6,8.676 8.676,6 12,6 z" fill="url(#linearGradient3780)" fill-opacity="1" fill-rule="nonzero" stroke="none" opacity="0.1" inkscape:connector-curvature="0"/>
 <path d="M 11.1875,6.03125 C 7.159982,6.4419011 4,9.8664375 4,14 l 0,71 c 0,4.409133 3.590867,8 8,8 l 72,0 c 4.409133,0 8,-3.590867 8,-8 L 92,14 C 92,9.8029382 88.741028,6.3539584 84.625,6.03125 87.657886,6.337417 90,8.88375 90,12 l 0,72 c 0,3.324 -2.676,6 -6,6 L 12,90 C 8.676,90 6,87.324 6,84 L 6,12 c 0,-3.11625 2.342114,-5.662583 5.375,-5.96875 -0.06227,0.00488 -0.12563,-0.00631 -0.1875,0 z" fill="url(#linearGradient3780)" fill-opacity="1" fill-rule="nonzero" stroke="none" opacity="0.2" inkscape:connector-curvature="0"/>
 <path d="M 6.4375,9.75 C 5.5380109,10.927446 5,12.397277 5,14 l 0,71 c 0,3.878 3.122,7 7,7 l 72,0 c 3.878,0 7,-3.122 7,-7 L 91,14 C 91,12.397277 90.461989,10.927446 89.5625,9.75 89.841816,10.444095 90,11.203625 90,12 l 0,72 c 0,3.324 -2.676,6 -6,6 L 12,90 C 8.676,90 6,87.324 6,84 L 6,12 C 6,11.203625 6.1581836,10.444095 6.4375,9.75 z" fill="url(#linearGradient3780)" fill-opacity="1" fill-rule="nonzero" stroke="none" opacity="0.3" inkscape:connector-curvature="0"/>
 <path d="m 6,84 0,1 c 0,3.324 2.676,6 6,6 l 72,0 c 3.324,0 6,-2.676 6,-6 l 0,-1 c 0,3.324 -2.676,6 -6,6 L 12,90 C 8.676,90 6,87.324 6,84 z" fill="url(#linearGradient3721-6)" fill-opacity="1" fill-rule="nonzero" stroke="none" opacity="0.45" inkscape:connector-curvature="0"/>
 <rect x="6" rx="6" y="6" fill="#000000" fill-opacity="1" fill-rule="nonzero" stroke="none" height="84" opacity="0.6" width="84"/>
 <path d="M 12,90 C 8.676,90 6,87.324 6,84 L 6,82 6,14 6,12 c 0,-0.334721 0.04135,-0.6507 0.09375,-0.96875 0.0487,-0.295596 0.09704,-0.596915 0.1875,-0.875 C 6.29113,10.12587 6.302142,10.09265 6.3125,10.0625 6.411365,9.774729 6.5473802,9.515048 6.6875,9.25 6.8320918,8.976493 7.0031161,8.714385 7.1875,8.46875 7.3718839,8.223115 7.5612765,7.995278 7.78125,7.78125 8.221197,7.353194 8.72416,6.966724 9.28125,6.6875 9.559795,6.547888 9.8547231,6.440553 10.15625,6.34375 9.9000482,6.443972 9.6695391,6.580022 9.4375,6.71875 c -0.00741,0.0044 -0.023866,-0.0045 -0.03125,0 -0.031933,0.0193 -0.062293,0.04251 -0.09375,0.0625 -0.120395,0.0767 -0.2310226,0.163513 -0.34375,0.25 -0.1061728,0.0808 -0.2132809,0.161112 -0.3125,0.25 C 8.4783201,7.442683 8.3087904,7.626638 8.15625,7.8125 8.0486711,7.942755 7.9378561,8.077785 7.84375,8.21875 7.818661,8.25713 7.805304,8.30462 7.78125,8.34375 7.716487,8.446782 7.6510225,8.548267 7.59375,8.65625 7.4927417,8.850956 7.3880752,9.071951 7.3125,9.28125 7.30454,9.30306 7.288911,9.3218 7.28125,9.34375 7.2494249,9.4357 7.2454455,9.530581 7.21875,9.625 7.1884177,9.731618 7.1483606,9.828031 7.125,9.9375 7.0521214,10.279012 7,10.635705 7,11 l 0,2 0,68 0,2 c 0,2.781848 2.2181517,5 5,5 l 2,0 68,0 2,0 c 2.781848,0 5,-2.218152 5,-5 l 0,-2 0,-68 0,-2 C 89,10.635705 88.94788,10.279012 88.875,9.9375 88.83085,9.730607 88.78662,9.539842 88.71875,9.34375 88.71105,9.3218 88.69545,9.30306 88.6875,9.28125 88.62476,9.107511 88.549117,8.913801 88.46875,8.75 88.42717,8.6672 88.38971,8.580046 88.34375,8.5 88.28915,8.40279 88.216976,8.31165 88.15625,8.21875 88.06214,8.077785 87.951329,7.942755 87.84375,7.8125 87.700576,7.63805 87.540609,7.465502 87.375,7.3125 87.36383,7.3023 87.35502,7.29135 87.34375,7.28125 87.205364,7.155694 87.058659,7.046814 86.90625,6.9375 86.803679,6.86435 86.701932,6.784136 86.59375,6.71875 c -0.0074,-0.0045 -0.02384,0.0044 -0.03125,0 -0.232039,-0.138728 -0.462548,-0.274778 -0.71875,-0.375 0.301527,0.0968 0.596455,0.204138 0.875,0.34375 0.55709,0.279224 1.060053,0.665694 1.5,1.09375 0.219973,0.214028 0.409366,0.441865 0.59375,0.6875 0.184384,0.245635 0.355408,0.507743 0.5,0.78125 0.14012,0.265048 0.276135,0.524729 0.375,0.8125 0.01041,0.03078 0.02133,0.06274 0.03125,0.09375 0.09046,0.278085 0.1388,0.579404 0.1875,0.875 C 89.95865,11.3493 90,11.665279 90,12 l 0,2 0,68 0,2 c 0,3.324 -2.676,6 -6,6 l -72,0 z" fill="url(#radialGradient3619-3)" fill-opacity="1" fill-rule="nonzero" stroke="none" opacity="0.15" inkscape:connector-curvature="0"/>
 <path d="m 33.34375,23 c -3.585088,-0.107184 -6.447476,3.405822 -6,6.882718 0,3.966178 0,7.932355 0,11.898532 -3.303704,0.26787 -5.751536,3.522599 -5.34375,6.757718 0.01738,4.343179 -0.03524,8.688028 0.02719,13.030131 -0.0968,3.197299 3.492905,4.707193 5.316561,5.74726 -0.191587,2.479926 0.351274,5.252573 2.64836,6.657125 2.351561,1.591208 5.260235,0.857873 7.912352,1.026516 8.481923,-0.0255 16.967405,0.05118 25.447089,-0.03865 1.816718,-0.566119 2.843687,-1.136155 4.523449,0.0074 3.337106,0.315381 6.751192,-3.186144 5.993457,-6.537535 0.20304,-1.380751 -2.69606,-2.269425 -1.603793,-3.246622 C 74.523948,63.10306 73.919734,59.910778 74,57.174887 73.94201,53.629539 74.124197,50.069723 73.892929,46.534739 73.737068,43.571209 70.281538,42.389137 68.65625,41.339891 68.61377,36.923513 68.74357,32.498594 68.58695,28.087845 68.174482,24.783826 64.81463,22.60436 61.626412,23 52.198858,23 42.771304,23 33.34375,23 z m 3.3125,9.34375 c 7.5625,0 15.125,0 22.6875,0 0.297945,1.343024 -0.26266,1.510475 -1.476468,1.3125 C 50.89155,33.67709 43.90892,33.61457 36.9375,33.6875 36.376679,34.09673 36.778356,32.58223 36.65625,32.34375 z m 12.75,11.75 c 2.229501,0.325179 -0.124115,0.249095 -1.050546,0.25 -0.646625,0.06748 1.066779,-0.31367 1.050546,-0.25 z m 15.9375,8.25 c 2.592087,1.679605 -2.589837,1.566236 0,0 z m -3.9375,5.53125 c 0.972858,0.268424 -0.395855,1.001977 0,0 z M 56.375,62.71875 c 0.839748,0.01241 1.093848,2.769104 1.143261,2.9375 -6.954004,0 -13.908007,0 -20.862011,0 -0.248381,-1.12724 0.184286,-1.573432 1.324078,-1.3125 1.510084,-0.10775 3.095106,0.238052 4.550922,-0.21875 1.092273,-1.961379 2.777274,0.01574 4.555988,0.07084 3.144053,0.60635 6.49466,0.102276 9.287762,-1.477087 z" fill="#000000" fill-opacity="1" stroke="none" opacity="0.1" inkscape:connector-curvature="0"/>
 <path d="m 33.34375,22.9375 c -2.794539,0 -5.0625,2.267961 -5.0625,5.0625 l 0,13.59375 -0.28125,0 c -2.794539,0 -5.0625,2.267961 -5.0625,5.0625 l 0,13.34375 c 0,2.794539 2.267961,5.0625 5.0625,5.0625 l 0.28125,0 0,2.9375 c 0,2.794539 2.267961,5.0625 5.0625,5.0625 l 29.3125,0 c 0.80017,0 1.554449,-0.178034 2.21875,-0.5 a 1.0780582,1.0780582 0 0 0 0.53125,-1.34375 L 66.4375,72.25 c 0,0 0.61834,0.623885 1.59375,0.78125 0.97541,0.157365 2.267766,-0.209894 3.53125,-1.46875 1.264402,-1.259768 1.627679,-2.554288 1.46875,-3.53125 C 72.874834,67.069733 72.269757,66.487797 72.25,66.46875 L 70,64.1875 a 1.0780582,1.0780582 0 0 0 1.0625,-0.125 c 1.226687,-0.921597 2,-2.408922 2,-4.0625 l 0,-13.34375 c 0,-2.794536 -2.26796,-5.0625 -5.0625,-5.0625 l -0.28125,0 0,-13.59375 c 0,-2.794539 -2.267961,-5.0625 -5.0625,-5.0625 l -29.3125,0 z M 36,30.40625 l 24,0 c 0.180394,0 0.28125,0.100008 0.28125,0.25 l 0,10.71875 a 1.0780582,1.0780582 0 0 0 0.15625,0.59375 c 0.0838,0.126649 0.108612,0.277384 0.1875,0.40625 -0.539049,-0.872242 -1.023975,-1.77675 -1.78125,-2.53125 -0.541872,-0.539887 -1.112964,-1.009814 -1.71875,-1.4375 a 1.0780582,1.0780582 0 0 0 0.1875,0 l 1.4375,0 a 1.0780582,1.0780582 0 0 0 1.0625,-1.0625 l 0,-2.6875 A 1.0780582,1.0780582 0 0 0 58.75,33.59375 l -21.40625,0 a 1.0780582,1.0780582 0 0 0 -1.0625,1.0625 l 0,2.6875 a 1.0780582,1.0780582 0 0 0 1.0625,1.0625 l 4.0625,0 a 1.0780582,1.0780582 0 0 0 0.21875,0 c -0.610566,0.430873 -1.202976,0.89248 -1.75,1.4375 -0.176907,0.176259 -0.303797,0.378999 -0.46875,0.5625 a 1.0780582,1.0780582 0 0 0 -1,-1.46875 l -1.0625,0 A 1.0780582,1.0780582 0 0 0 36.28125,40 l 0,1.40625 a 1.0780582,1.0780582 0 0 0 1.6875,0.875 c -0.595622,0.961487 -1.046117,1.977243 -1.375,3.03125 a 1.0780582,1.0780582 0 0 0 -0.875,-1.03125 l 0,-1.625 0,-12 c 0,-0.149992 0.100856,-0.25 0.28125,-0.25 z m 11.96875,5.8125 c -0.954446,0.09952 -1.893616,0.228523 -2.8125,0.53125 0.915877,-0.306845 1.861617,-0.430552 2.8125,-0.53125 z m 2.8125,0 c 0.931945,0.102834 1.84946,0.231403 2.75,0.53125 -0.898121,-0.292435 -1.82004,-0.431006 -2.75,-0.53125 z m -1.375,5.9375 c 2.022798,0 3.829761,0.84881 5.125,2.1875 A 1.0780582,1.0780582 0 0 0 54.125,44.28125 l -9.53125,0 A 1.0780582,1.0780582 0 0 0 44.25,44.3125 c 0.02601,-0.02678 0.03608,-0.06742 0.0625,-0.09375 1.288479,-1.283758 3.101288,-2.0625 5.09375,-2.0625 z M 61.9375,45.1875 c 0.03072,0.09618 0.06531,0.184502 0.09375,0.28125 -0.02889,-0.09555 -0.06268,-0.186238 -0.09375,-0.28125 z m 3.40625,6.53125 c 0.142594,0 0.25,0.108145 0.25,0.28125 10e-7,0.173096 -0.10741,0.28125 -0.25,0.28125 -0.142587,0 -0.28125,-0.138662 -0.28125,-0.28125 0,-0.142594 0.13866,-0.28125 0.28125,-0.28125 z M 61.0625,57.5625 a 1.0780582,1.0780582 0 0 0 0.3125,0.21875 c -0.04966,-0.0016 -0.149832,0.0035 -0.1875,0 -0.169505,-0.01575 -0.131268,-0.0604 -0.0625,0 0.02916,0.02561 -0.03661,-0.162343 -0.0625,-0.21875 z m -19.65625,2.25 c 4.381869,3.289214 10.205988,3.716242 14.84375,0.9375 0.350965,0.02097 0.737662,0.0631 1.0625,0.125 0.391919,0.07468 0.641929,0.246028 0.5625,0.15625 -0.06521,-0.07371 -0.04486,-0.104797 -0.03125,0.0625 0.01361,0.167297 0.02975,0.47925 0.03125,0.84375 0.0029,0.709703 0.118968,1.809838 0.96875,2.625 0.02311,0.02217 0.03831,0.04077 0.0625,0.0625 l 1,1.03125 a 1.0780582,1.0780582 0 0 0 -0.375,-0.0625 l -23.53125,0 c -0.180394,0 -0.28125,-0.100008 -0.28125,-0.25 l 0,-1.34375 0,-1.59375 5.875,0 A 1.0780582,1.0780582 0 0 0 42.1875,60.4375 c -0.279692,-0.178328 -0.51449,-0.428656 -0.78125,-0.625 z" fill="#000000" fill-opacity="1" stroke="none" opacity="0.15" transform="matrix(1 0 0 1 0 1)"/>
 <use xlink:href="#SVGCleanerId_0" fill="#000000" opacity="0.3" transform="matrix(1 0 0 1 0 1)"/>
 <use xlink:href="#SVGCleanerId_0" fill="url(#linearGradient3181)" inkscape:connector-curvature="0"/>
 <path d="m 33.34375,24 c -2.216,0 -4,1.784 -4,4 l 0,1 c 0,-2.216 1.784,-4 4,-4 l 29.3125,0 c 2.216,0 4,1.784 4,4 l 0,-1 c 0,-2.216 -1.784,-4 -4,-4 l -29.3125,0 z m 4,10.65625 0,1 7.53125,0 c 1.453369,-0.480492 2.953509,-0.71875 4.46875,-0.71875 1.51532,0 3.039235,0.238375 4.5,0.71875 l 4.90625,0 0,-1 -21.40625,0 z m 12,2.34375 c -3.162926,0 -6.307237,1.191074 -8.71875,3.59375 -2.5385,2.529199 -3.727425,5.873571 -3.59375,9.1875 0.123359,-2.977796 1.312649,-5.914757 3.59375,-8.1875 C 43.036513,39.191074 46.180824,38 49.34375,38 c 3.162926,0 6.338487,1.191074 8.75,3.59375 2.277332,2.268987 3.464988,5.210913 3.59375,8.1875 0.124755,-3.310329 -1.061345,-6.664375 -3.59375,-9.1875 C 55.682237,38.191074 52.506676,37 49.34375,37 z m -12,3 0,1 0.28125,0 c 0.243909,-0.341726 0.503178,-0.675343 0.78125,-1 l -1.0625,0 z M 28,42.65625 c -2.216,0 -4,1.784 -4,4 l 0,1 c 0,-2.216 1.784,-4 4,-4 l 1.34375,0 0,-1 -1.34375,0 z m 38.65625,0 0,1 0.09375,0 1.25,0 c 2.216,0 4,1.784004 4,4 l 0,-1 c 0,-2.215996 -1.784,-4 -4,-4 l -1.25,0 -0.09375,0 z m -32,2.6875 0,1 0.625,0 c 0.0709,-0.33905 0.154304,-0.665788 0.25,-1 l -0.875,0 z m 9.9375,0 c -0.870533,1.066413 -1.374999,2.469078 -1.375,3.96875 0,0.21345 0.01029,0.417321 0.03125,0.625 0.07812,-1.354347 0.547819,-2.618725 1.34375,-3.59375 l 9.53125,0 c 0.778954,0.93376 1.289329,2.111498 1.40625,3.40625 0.01025,-0.147158 0.03125,-0.287513 0.03125,-0.4375 0,-1.514638 -0.547267,-2.901596 -1.4375,-3.96875 l -9.53125,0 z M 35,49.71875 c -0.157279,3.866169 1.233122,7.775195 4.1875,10.71875 0.32979,0.328582 0.677535,0.621065 1.03125,0.90625 l 1.375,0 C 40.743603,60.801708 39.931874,60.179147 39.1875,59.4375 36.488155,56.748044 35.102122,53.252056 35,49.71875 z m 28.65625,0.0625 c -0.09307,2.272918 -0.715089,4.519392 -1.875,6.5625 0.01474,0.166843 0.03977,0.321184 0.0625,0.46875 0.09179,7.72e-4 0.106915,-0.002 0.21875,0 1.128405,-2.196362 1.657714,-4.630953 1.59375,-7.03125 z M 41.1875,49.8125 c -0.0099,0.165883 -0.03125,0.332044 -0.03125,0.5 0,4.530534 3.702811,8.218752 8.25,8.21875 4.547194,0 8.21875,-3.688216 8.21875,-8.21875 0,-0.167955 -0.0213,-0.334505 -0.03125,-0.5 -0.258431,4.298675 -3.808879,7.71875 -8.1875,7.71875 -4.378616,2e-6 -7.95817,-3.420075 -8.21875,-7.71875 z m 22.90625,2.71875 C 64.039751,52.675975 64,52.837647 64,53 c 0,0.736 0.607752,1.34375 1.34375,1.34375 0.736,0 1.312504,-0.60775 1.3125,-1.34375 0,-0.162353 -0.04212,-0.324025 -0.09375,-0.46875 -0.19664,0.48143 -0.66675,0.8125 -1.21875,0.8125 -0.551998,0 -1.04457,-0.33107 -1.25,-0.8125 z M 59.8125,56.875 c -0.03303,0.05214 -0.05986,0.104509 -0.09375,0.15625 0.04084,0.811281 0.158176,2.097622 0.6875,2.5625 0.720718,0.632975 2.40156,-0.24519 3.5,0.96875 L 71.5,68.21875 c 0,0 0.299544,0.282577 0.4375,0.78125 C 72.184209,67.89353 71.5,67.21875 71.5,67.21875 L 63.90625,59.5625 c -1.09844,-1.21394 -2.779282,-0.335775 -3.5,-0.96875 C 60.038281,58.270582 59.894983,57.556564 59.8125,56.875 z m -25.15625,8.46875 0,1 c 0,0.738666 0.605084,1.3125 1.34375,1.3125 l 23.53125,0 4.15625,4.21875 c 0.248166,-0.06739 0.492369,-0.17153 0.71875,-0.28125 l -4.875,-4.9375 -23.53125,0 c -0.738666,0 -1.34375,-0.573834 -1.34375,-1.3125 z" fill="#ffffff" fill-opacity="1" stroke="none" opacity="0.75" inkscape:connector-curvature="0"/>
 <path d="m 36,28.34375 c -0.738666,0 -1.34375,0.573834 -1.34375,1.3125 l 0,1 c 0,-0.738666 0.605084,-1.3125 1.34375,-1.3125 l 24,0 c 0.738666,0 1.34375,0.573834 1.34375,1.3125 l 0,-1 c 0,-0.738666 -0.605084,-1.3125 -1.34375,-1.3125 l -24,0 z m 8.875,6.3125 c -1.20495,0.398363 -2.382241,0.964558 -3.46875,1.6875 l -4.0625,0 0,1 4.0625,0 c 2.397019,-1.594929 5.166012,-2.40625 7.9375,-2.40625 2.771632,0 5.561972,0.810229 7.96875,2.40625 l 1.4375,0 0,-1 -1.4375,0 c -1.090933,-0.723437 -2.257668,-1.289234 -3.46875,-1.6875 l -8.96875,0 z M 37.625,40 c -0.09587,0.134325 -0.190467,0.26902 -0.28125,0.40625 l 0,1 C 37.665487,40.919906 38.018874,40.452273 38.40625,40 L 37.625,40 z m 11.78125,0.09375 c -2.273596,0 -4.352731,0.889445 -5.84375,2.375 -1.491018,1.485554 -2.406249,3.578484 -2.40625,5.84375 0,0.167956 0.02122,0.334505 0.03125,0.5 0.123928,-2.071436 0.994532,-3.968341 2.375,-5.34375 1.491019,-1.485555 3.570154,-2.375 5.84375,-2.375 4.378619,0 7.929069,3.420078 8.1875,7.71875 0.0099,-0.165495 0.03125,-0.332044 0.03125,-0.5 0,-4.530531 -3.671558,-8.21875 -8.21875,-8.21875 z m 11.9375,0.28125 0,1 c 1.486302,2.246314 2.243297,4.809386 2.3125,7.40625 0.119664,-2.922323 -0.64041,-5.879146 -2.3125,-8.40625 z m -26.0625,4.96875 c -0.231348,1.106351 -0.313765,2.250009 -0.28125,3.375 0.0462,-1.135644 0.215949,-2.273833 0.53125,-3.375 l -0.25,0 z m 1.75,3.4375 C 36.893786,52.099529 38.083077,55.467389 40.625,58 c 4.204602,4.189197 10.678352,4.771137 15.46875,1.65625 0.814264,0.04071 2.127161,0.128868 2.59375,0.65625 0.13951,0.157686 0.221091,0.359114 0.25,0.59375 -0.0027,-0.648438 0.06765,-1.23471 -0.25,-1.59375 C 58.220911,58.785118 56.908014,58.69696 56.09375,58.65625 51.303352,61.771137 44.829602,61.189197 40.625,57 38.340475,54.723845 37.151551,51.763623 37.03125,48.78125 z m 24.65625,0 c -0.08238,2.185876 -0.725384,4.351809 -1.96875,6.25 0.01245,0.247305 0.05758,0.544882 0.09375,0.84375 1.363495,-2.152306 1.981392,-4.634289 1.875,-7.09375 z M 43.25,48.9375 c -0.0073,0.126942 -0.03125,0.246483 -0.03125,0.375 0,3.415207 2.747174,6.156252 6.1875,6.15625 3.440333,0 6.15625,-2.731629 6.15625,-6.15625 0,-0.126414 -0.02374,-0.250476 -0.03125,-0.375 -0.310978,3.121906 -2.899688,5.53125 -6.125,5.53125 -3.225306,2e-6 -5.841838,-2.416066 -6.15625,-5.53125 z m 22.09375,0.71875 C 64.60775,49.65625 64.000002,50.264 64,51 c 0,0.162353 0.03975,0.324025 0.09375,0.46875 0.20543,-0.48143 0.698,-0.8125 1.25,-0.8125 0.552002,0 1.02211,0.33107 1.21875,0.8125 0.05163,-0.144725 0.09375,-0.306397 0.09375,-0.46875 0,-0.736 -0.576498,-1.34375 -1.3125,-1.34375 z M 62.0625,55.8125 c -0.09241,0.179866 -0.180909,0.354507 -0.28125,0.53125 0.01474,0.166843 0.03977,0.321184 0.0625,0.46875 0.09179,7.72e-4 0.106915,-0.002 0.21875,0 0.78271,0.01369 2.254104,0.200644 3.3125,1.3125 0.02179,0.02289 0.04107,0.03881 0.0625,0.0625 l 4.96875,5 C 71.376023,62.45892 72,61.311732 72,60 l 0,-1 c 0,1.311732 -0.623977,2.45892 -1.59375,3.1875 l -4.96875,-5 C 65.41607,57.16381 65.39679,57.14789 65.375,57.125 64.316604,56.013144 62.84521,55.82619 62.0625,55.8125 z M 24,59 l 0,1 c 0,2.216 1.784,4 4,4 l 1.34375,0 0,-1 L 28,63 c -2.216,0 -4,-1.784 -4,-4 z m 10.65625,1.34375 0,1 6.9375,0 c -0.473495,-0.301894 -0.930339,-0.641489 -1.375,-1 l -5.5625,0 z M 58.9375,61 c 0.06745,0.828852 -0.226302,1.99169 0.6875,2.8125 L 67.21875,71.5 c 0,0 1.404371,1.493859 3.59375,-0.6875 1.219228,-1.21476 1.298374,-2.1858 1.125,-2.8125 -0.115628,0.518583 -0.426329,1.11639 -1.125,1.8125 C 68.623121,71.993859 67.21875,70.5 67.21875,70.5 L 59.625,62.8125 C 59.044244,62.290844 58.947484,61.621943 58.9375,61 z m -29.59375,6 0,1 c 0,2.216 1.784,4 4,4 l 29.3125,0 c 0.628102,0 1.222096,-0.150391 1.75,-0.40625 L 63.6875,70.875 C 63.356961,70.964755 63.015003,71 62.65625,71 l -29.3125,0 c -2.216,0 -4,-1.784 -4,-4 z" fill="#000000" fill-opacity="1" stroke="none" opacity="0.15" inkscape:connector-curvature="0"/>
</svg>
