<svg display="inline" height="16" width="16" xmlns="http://www.w3.org/2000/svg" xmlns:sodipodi="http://sodipodi.sourceforge.net/DTD/sodipodi-0.dtd" xmlns:inkscape="http://www.inkscape.org/namespaces/inkscape">
 <path d="M 1.5,0 C 0.669,0 0,0.669 0,1.5 l 0,9 C 0,11.331 0.669,12 1.5,12 L 6,12 8.5,12 C 9.331,12 10,11.331 10,10.5 l 0,-9 C 10,0.669 9.331,0 8.5,0 z m 1,2 5,0 C 7.777,2 8,2.223 8,2.5 l 0,7 C 8,9.777 7.777,10 7.5,10 L 6,10 2.5,10 C 2.223,10 2,9.777 2,9.5 l 0,-7 C 2,2.223 2.223,2 2.5,2 z m 8.5,3 0,1 3,0 0,-1 z m 0,2 0,2 3,0 0,-2 z m 0,3 0,3 -2,0 3.5,3 3.5,-3 -2,0 0,-3 z" fill="#bebebe" fill-opacity="1" stroke="none" sodipodi:nodetypes="cccccccccccccccccccccccccccccccccccccc" inkscape:label="Calque 1" inkscape:groupmode="layer" inkscape:connector-curvature="0"/>
</svg>
