<?xml version="1.0" encoding="UTF-8" standalone="no"?>
<svg
   xmlns:dc="http://purl.org/dc/elements/1.1/"
   xmlns:cc="http://creativecommons.org/ns#"
   xmlns:rdf="http://www.w3.org/1999/02/22-rdf-syntax-ns#"
   xmlns:svg="http://www.w3.org/2000/svg"
   xmlns="http://www.w3.org/2000/svg"
   xmlns:xlink="http://www.w3.org/1999/xlink"
   xmlns:sodipodi="http://sodipodi.sourceforge.net/DTD/sodipodi-0.dtd"
   xmlns:inkscape="http://www.inkscape.org/namespaces/inkscape"
   display="inline"
   height="96"
   width="96"
   id="svg2"
   version="1.1"
   inkscape:version="0.91 r13725"
   sodipodi:docname="document-print.svg">
  <metadata
     id="metadata51">
    <rdf:RDF>
      <cc:Work
         rdf:about="">
        <dc:format>image/svg+xml</dc:format>
        <dc:type
           rdf:resource="http://purl.org/dc/dcmitype/StillImage" />
      </cc:Work>
    </rdf:RDF>
  </metadata>
  <sodipodi:namedview
     pagecolor="#ffffff"
     bordercolor="#666666"
     borderopacity="1"
     objecttolerance="10"
     gridtolerance="10"
     guidetolerance="10"
     inkscape:pageopacity="0"
     inkscape:pageshadow="2"
     inkscape:window-width="760"
     inkscape:window-height="480"
     id="namedview49"
     showgrid="false"
     inkscape:zoom="2.4583333"
     inkscape:cx="-15.864407"
     inkscape:cy="47.999999"
     inkscape:window-x="604"
     inkscape:window-y="41"
     inkscape:window-maximized="0"
     inkscape:current-layer="svg2" />
  <defs
     id="defs4">
    <linearGradient
       x2="0"
       y1="17.478"
       y2="0.922"
       gradientUnits="userSpaceOnUse"
       id="linearGradient2869"
       gradientTransform="matrix(2.46593,0,0,2.89923,10.507,21.327)">
      <stop
         stop-color="#4d4d4d"
         stop-opacity="1"
         id="stop7" />
      <stop
         stop-color="#1a1a1a"
         stop-opacity="1"
         offset="1"
         id="stop9" />
    </linearGradient>
    <linearGradient
       x2="0"
       y1="92.54"
       y2="7.02"
       gradientUnits="userSpaceOnUse"
       id="ButtonShadow-0"
       gradientTransform="matrix(1.0059 0 0 0.99417 100 0)">
      <stop
         stop-color="#000000"
         stop-opacity="1"
         id="stop12" />
      <stop
         stop-color="#000000"
         stop-opacity="0.588"
         offset="1"
         id="stop14" />
    </linearGradient>
    <linearGradient
       x2="0"
       xlink:href="#ButtonShadow-0"
       y1="6.132"
       y2="90.24"
       gradientUnits="userSpaceOnUse"
       id="linearGradient3780"
       gradientTransform="matrix(1.02381 0 0 -1.0119 -1.143 98.07)" />
    <linearGradient
       x2="0"
       xlink:href="#ButtonShadow-0"
       y1="6.132"
       y2="90.24"
       gradientUnits="userSpaceOnUse"
       id="linearGradient3721-6"
       gradientTransform="matrix(1 0 0 -1 0 97)" />
    <radialGradient
       cy="90.17"
       r="42"
       gradientUnits="userSpaceOnUse"
       id="radialGradient3619-3"
       cx="48"
       gradientTransform="matrix(1.15731 0 0 0.99591 -7.551 0.197)">
      <stop
         stop-color="#ffffff"
         stop-opacity="1"
         id="stop19" />
      <stop
         stop-color="#ffffff"
         stop-opacity="0"
         offset="1"
         id="stop21" />
    </radialGradient>
  </defs>
  <g
     id="g3408"
     transform="matrix(1.5366146,0,0,1.5366146,-25.757501,-27.294115)">
    <path
       id="path37"
       d="m 33.34375,22.96875 c -3.307134,0 -6.03125,2.724116 -6.03125,6.03125 l 0,12.78125 c -2.972529,0.359261 -5.34375,2.811079 -5.34375,5.875 l 0,13.34375 c 0,3.063921 2.371221,5.515739 5.34375,5.875 l 0,2.125 c 0,3.307134 2.724116,6.03125 6.03125,6.03125 l 29.3125,0 c 3.307134,0 6.03125,-2.724116 6.03125,-6.03125 l 0,-2.125 C 71.660029,66.515739 74.03125,64.063921 74.03125,61 l 0,-13.34375 c 0,-3.063918 -2.37122,-5.515739 -5.34375,-5.875 L 68.6875,29 c 0,-3.307134 -2.724116,-6.03125 -6.03125,-6.03125 l -29.3125,0 z m 3.34375,9.40625 22.625,0 0,1.34375 c -0.03775,-0.0092 -0.190019,-0.06299 -0.1875,-0.0625 0.0029,5.64e-4 -0.190444,-2.75e-4 -0.1875,0 0.0029,2.75e-4 -0.190457,-0.03123 -0.1875,-0.03125 l -21.34375,0 c 8.31e-4,4e-5 -0.03943,-1.7e-5 -0.0625,0 -0.01154,9e-6 -0.01732,-3e-6 -0.03125,0 0.0017,8.1e-5 -0.0693,1.2e-5 -0.125,0 -0.04178,-9e-6 -0.095,6.1e-5 -0.09375,0 a 1.0529589,1.0529589 0 0 0 -0.125,0.03125 c 0.0026,-4.95e-4 -0.190024,0.03197 -0.1875,0.03125 0.0015,-4.22e-4 -0.04534,0.01514 -0.09375,0.03125 l 0,-1.34375 z m 22.625,7.90625 0,3.375 0,0.65625 -4.0625,0 c 0.01073,-0.03027 0.03155,-0.06349 0.03125,-0.0625 -8.48e-4,0.0028 0.06306,-0.221652 0.0625,-0.21875 -5.64e-4,0.0029 2.75e-4,-0.190444 0,-0.1875 -2.75e-4,0.0029 0.03123,-0.190457 0.03125,-0.1875 L 55.375,41 c -1.7e-5,0.003 -0.03153,-0.190444 -0.03125,-0.1875 2.75e-4,0.0029 -5.64e-4,-0.190402 0,-0.1875 5.64e-4,0.0029 -0.06335,-0.221583 -0.0625,-0.21875 1.27e-4,4.25e-4 0.0025,-0.02417 0,-0.03125 l 3.46875,0 c -0.003,-1.7e-5 0.190444,-0.03153 0.1875,-0.03125 -0.0029,2.75e-4 0.190402,-5.64e-4 0.1875,0 -0.0025,4.9e-4 0.149746,-0.0533 0.1875,-0.0625 z M 60,52.3125 c 0.371043,0 0.6875,0.316457 0.6875,0.6875 0,0.371043 -0.316457,0.6875 -0.6875,0.6875 -0.371043,0 -0.6875,-0.316457 -0.6875,-0.6875 -2e-6,-0.371065 0.316443,-0.6875 0.6875,-0.6875 z m 5.34375,0 c 0.371065,0 0.6875,0.316435 0.6875,0.6875 -2e-6,0.371026 -0.316467,0.6875 -0.6875,0.6875 -0.139034,0 -0.381849,-0.08967 -0.53125,-0.25 C 64.663099,53.277168 64.625,53.091101 64.625,53 c 0,-0.09112 0.03811,-0.277177 0.1875,-0.4375 0.149392,-0.160323 0.392197,-0.25 0.53125,-0.25 z M 36.6875,64.375 l 22.625,0 0,0.625 0,0.625 -22.625,0 0,-0.625 0,-0.625 z"
       inkscape:connector-curvature="0"
       style="opacity:0.1;fill:black;fill-opacity:1;stroke:none" />
    <path
       id="path39"
       d="M 33.34375,24.03125 C 30.610867,24.03125 28.375,26.267117 28.375,29 l 0,13.6875 -0.375,0 c -2.732883,0 -4.96875,2.235867 -4.96875,4.96875 l 0,13.34375 c 0,2.732883 2.235867,4.96875 4.96875,4.96875 l 0.375,0 0,3.03125 c 0,2.732883 2.235867,4.96875 4.96875,4.96875 l 29.3125,0 c 2.732883,0 4.96875,-2.235867 4.96875,-4.96875 l 0,-3.03125 0.375,0 c 2.732883,0 4.96875,-2.235867 4.96875,-4.96875 l 0,-13.34375 C 72.96875,44.923371 70.732884,42.6875 68,42.6875 l -0.375,0 0,-13.6875 c 0,-2.732883 -2.235867,-4.96875 -4.96875,-4.96875 l -29.3125,0 z M 36,31.3125 l 24,0 c 0.239891,0 0.375,0.131022 0.375,0.34375 l 0,12 0,1.71875 -24.75,0 0,-1.71875 0,-12 c 0,-0.212728 0.135109,-0.34375 0.375,-0.34375 z m 1.25,3.375 a 0.96316664,0.96316664 0 0 0 -0.875,0.96875 l 0,2.6875 a 0.96316664,0.96316664 0 0 0 0.96875,0.96875 l 21.40625,0 a 0.96316664,0.96316664 0 0 0 0.96875,-0.96875 l 0,-2.6875 A 0.96316664,0.96316664 0 0 0 58.75,34.6875 l -21.40625,0 a 0.96316664,0.96316664 0 0 0 -0.09375,0 z m 0,5.34375 A 0.96316664,0.96316664 0 0 0 36.375,41 l 0,2.65625 a 0.96316664,0.96316664 0 0 0 0.96875,0.96875 l 16,0 a 0.96316664,0.96316664 0 0 0 0.96875,-0.96875 l 0,-2.65625 a 0.96316664,0.96316664 0 0 0 -0.96875,-0.96875 l -16,0 a 0.96316664,0.96316664 0 0 0 -0.09375,0 z M 60,52.625 c 0.205832,0 0.375,0.169168 0.375,0.375 10e-7,0.205828 -0.169168,0.375 -0.375,0.375 -0.205832,0 -0.375,-0.169168 -0.375,-0.375 0,-0.205832 0.169168,-0.375 0.375,-0.375 z m 5.34375,0 c 0.205835,0 0.34375,0.141906 0.34375,0.375 10e-7,0.233086 -0.137918,0.375 -0.34375,0.375 -0.205828,0 -0.375,-0.16917 -0.375,-0.375 10e-7,-0.205835 0.169168,-0.375 0.375,-0.375 z M 35.625,63.3125 l 24.75,0 0,1.6875 0,1.34375 c 0,0.212728 -0.135109,0.34375 -0.375,0.34375 l -24,0 c -0.239891,0 -0.375,-0.131022 -0.375,-0.34375 l 0,-1.34375 0,-1.6875 z"
       inkscape:connector-curvature="0"
       style="opacity:0.15;fill:black;fill-opacity:1;stroke:none" />
    <path
       id="path41"
       inkscape:connector-curvature="0"
       d="m 33.333334,25 c -2.216,0 -4,1.784 -4,4 l 0,14.666666 -1.333334,0 c -2.216,0 -4,1.784 -4,4 L 24,61 c 0,2.216 1.784,4 4,4 l 1.333334,0 0,4 c 0,2.216 1.784,4 4,4 l 29.333332,0 c 2.216,0 4,-1.784 4,-4 l 0,-4 L 68,65 c 2.216,0 4,-1.784 4,-4 l 0,-13.333334 c 0,-2.215996 -1.784,-4 -4,-4 l -1.25,0 -0.08334,0 0,-14.666666 c 0,-2.216 -1.784,-4 -4,-4 L 33.333334,25 Z M 36,30.333334 l 24,0 c 0.738666,0 1.333334,0.594666 1.333334,1.333332 l 0,12 0,2.666668 -26.666668,0 0,-2.666668 0,-12 c 0,-0.738666 0.594668,-1.333332 1.333334,-1.333332 z m 1.333334,5.333332 0,2.666668 21.416666,0 0,-2.666668 -21.416666,0 z m 0,5.333334 0,2.666666 16,0 0,-2.666666 -16,0 z M 60,51.666666 c 0.736,0 1.333334,0.597334 1.333334,1.333334 C 61.333336,53.736 60.736,54.333334 60,54.333334 59.264,54.333334 58.666666,53.736 58.666666,53 58.666666,52.264 59.264,51.666666 60,51.666666 Z m 5.333334,0 c 0.736002,0 1.333332,0.597334 1.333332,1.333334 4e-6,0.736 -0.597332,1.333334 -1.333332,1.333334 C 64.597336,54.333334 64,53.736 64,53 c 2e-6,-0.736 0.597334,-1.333334 1.333334,-1.333334 z m -30.666668,10.666668 26.666668,0 0,2.666666 0,1.333334 c 0,0.738666 -0.594668,1.333332 -1.333334,1.333332 l -24,0 c -0.738666,0 -1.333334,-0.594666 -1.333334,-1.333332 l 0,-1.333334 0,-2.666666 z"
       style="opacity:0.3;fill:black;fill-opacity:1;stroke:none" />
    <path
       id="path43"
       inkscape:connector-curvature="0"
       d="m 33.333334,24 c -2.216,0 -4,1.784 -4,4 l 0,14.666666 -1.333334,0 c -2.216,0 -4,1.784 -4,4 L 24,60 c 0,2.216 1.784,4 4,4 l 1.333334,0 0,4 c 0,2.216 1.784,4 4,4 l 29.333332,0 c 2.216,0 4,-1.784 4,-4 l 0,-4 L 68,64 c 2.216,0 4,-1.784 4,-4 l 0,-13.333334 c 0,-2.215996 -1.784,-4 -4,-4 l -1.25,0 -0.08334,0 0,-14.666666 c 0,-2.216 -1.784,-4 -4,-4 L 33.333334,24 Z M 36,29.333334 l 24,0 c 0.738666,0 1.333334,0.594666 1.333334,1.333332 l 0,12 0,2.666668 -26.666668,0 0,-2.666668 0,-12 c 0,-0.738666 0.594668,-1.333332 1.333334,-1.333332 z m 1.333334,5.333332 0,2.666668 21.416666,0 0,-2.666668 -21.416666,0 z m 0,5.333334 0,2.666666 16,0 0,-2.666666 -16,0 z M 60,50.666666 c 0.736,0 1.333334,0.597334 1.333334,1.333334 C 61.333336,52.736 60.736,53.333334 60,53.333334 59.264,53.333334 58.666666,52.736 58.666666,52 58.666666,51.264 59.264,50.666666 60,50.666666 Z m 5.333334,0 c 0.736002,0 1.333332,0.597334 1.333332,1.333334 4e-6,0.736 -0.597332,1.333334 -1.333332,1.333334 C 64.597336,53.333334 64,52.736 64,52 c 2e-6,-0.736 0.597334,-1.333334 1.333334,-1.333334 z m -30.666668,10.666668 26.666668,0 0,2.666666 0,1.333334 c 0,0.738666 -0.594668,1.333332 -1.333334,1.333332 l -24,0 c -0.738666,0 -1.333334,-0.594666 -1.333334,-1.333332 l 0,-1.333334 0,-2.666666 z"
       style="fill:url(#linearGradient2869);fill-opacity:1;stroke:none" />
    <path
       id="path45"
       inkscape:connector-curvature="0"
       d="m 33.34375,24 c -2.216,0 -4,1.784 -4,4 l 0,1 c 0,-2.216 1.784,-4 4,-4 l 29.3125,0 c 2.216,0 4,1.784 4,4 l 0,-1 c 0,-2.216 -1.784,-4 -4,-4 l -29.3125,0 z m 4,10.65625 0,1 21.40625,0 0,-1 -21.40625,0 z m 0,5.34375 0,1 16,0 0,-1 -16,0 z M 28,42.65625 c -2.216,0 -4,1.784 -4,4 l 0,1 c 0,-2.216 1.784,-4 4,-4 l 1.34375,0 0,-1 -1.34375,0 z m 38.65625,0 0,1 0.09375,0 1.25,0 c 2.216,0 4,1.784004 4,4 l 0,-1 c 0,-2.215996 -1.784,-4 -4,-4 l -1.25,0 -0.09375,0 z m -32,2.6875 0,1 26.6875,0 0,-1 -26.6875,0 z M 58.78125,52.5 c -0.06066,0.15238 -0.125,0.326082 -0.125,0.5 0,0.736 0.60775,1.34375 1.34375,1.34375 0.736,0 1.343752,-0.60775 1.34375,-1.34375 0,-0.173918 -0.06434,-0.34762 -0.125,-0.5 -0.196034,0.492475 -0.656668,0.84375 -1.21875,0.84375 -0.562082,0 -1.022716,-0.351275 -1.21875,-0.84375 z m 5.3125,0.03125 C 64.040542,52.675185 64,52.837647 64,53 c 0,0.736 0.607752,1.34375 1.34375,1.34375 0.736,0 1.312504,-0.60775 1.3125,-1.34375 0,-0.162353 -0.04054,-0.324815 -0.09375,-0.46875 -0.202499,0.4785 -0.66675,0.8125 -1.21875,0.8125 -0.551998,0 -1.047499,-0.334 -1.25,-0.8125 z m -29.4375,12.8125 0,1 c 0,0.738666 0.605084,1.3125 1.34375,1.3125 l 24,0 c 0.738666,0 1.34375,-0.573834 1.34375,-1.3125 l 0,-1 c 0,0.738666 -0.605084,1.3125 -1.34375,1.3125 l -24,0 c -0.738666,0 -1.34375,-0.573834 -1.34375,-1.3125 z"
       style="opacity:0.75;fill:white;fill-opacity:1;stroke:none" />
    <path
       id="path47"
       inkscape:connector-curvature="0"
       d="m 36,28.34375 c -0.738666,0 -1.34375,0.573834 -1.34375,1.3125 l 0,1 c 0,-0.738666 0.605084,-1.3125 1.34375,-1.3125 l 24,0 c 0.738666,0 1.34375,0.573834 1.34375,1.3125 l 0,-1 c 0,-0.738666 -0.605084,-1.3125 -1.34375,-1.3125 l -24,0 z m 1.34375,8 0,1 21.40625,0 0,-1 -21.40625,0 z m 0,5.3125 0,1 16,0 0,-1 -16,0 z m 22.65625,8 c -0.736,0 -1.34375,0.60775 -1.34375,1.34375 0,0.173918 0.06434,0.34762 0.125,0.5 0.196034,-0.492475 0.656668,-0.84375 1.21875,-0.84375 0.562082,0 1.022716,0.351275 1.21875,0.84375 0.06066,-0.15238 0.125,-0.326082 0.125,-0.5 0,-0.736 -0.60775,-1.34375 -1.34375,-1.34375 z m 5.34375,0 C 64.60775,49.65625 64.000002,50.264 64,51 c 0,0.162353 0.04054,0.324815 0.09375,0.46875 0.2025,-0.4785 0.698,-0.8125 1.25,-0.8125 0.552002,0 1.016251,0.334 1.21875,0.8125 0.05321,-0.143935 0.09375,-0.306397 0.09375,-0.46875 0,-0.736 -0.576498,-1.34375 -1.3125,-1.34375 z M 24,59 l 0,1 c 0,2.216 1.784,4 4,4 l 1.34375,0 0,-1 L 28,63 c -2.216,0 -4,-1.784 -4,-4 z m 48,0 c 0,2.216 -1.784,4 -4,4 l -1.34375,0 0,1 L 68,64 c 2.216,0 4,-1.784 4,-4 l 0,-1 z m -37.34375,1.34375 0,1 26.6875,0 0,-1 -26.6875,0 z M 29.34375,67 l 0,1 c 0,2.216 1.784,4 4,4 l 29.3125,0 c 2.216,0 4,-1.784 4,-4 l 0,-1 c 0,2.216 -1.784,4 -4,4 l -29.3125,0 c -2.216,0 -4,-1.784 -4,-4 z"
       style="opacity:0.15;fill:black;fill-opacity:1;stroke:none" />
  </g>
</svg>
