<?xml version="1.0" encoding="UTF-8" standalone="no"?>
<svg
   xmlns:dc="http://purl.org/dc/elements/1.1/"
   xmlns:cc="http://creativecommons.org/ns#"
   xmlns:rdf="http://www.w3.org/1999/02/22-rdf-syntax-ns#"
   xmlns:svg="http://www.w3.org/2000/svg"
   xmlns="http://www.w3.org/2000/svg"
   xmlns:xlink="http://www.w3.org/1999/xlink"
   xmlns:sodipodi="http://sodipodi.sourceforge.net/DTD/sodipodi-0.dtd"
   xmlns:inkscape="http://www.inkscape.org/namespaces/inkscape"
   display="inline"
   height="96"
   width="96"
   id="svg2"
   version="1.1"
   inkscape:version="0.91 r13725"
   sodipodi:docname="document-page-setup.svg">
  <metadata
     id="metadata65">
    <rdf:RDF>
      <cc:Work
         rdf:about="">
        <dc:format>image/svg+xml</dc:format>
        <dc:type
           rdf:resource="http://purl.org/dc/dcmitype/StillImage" />
      </cc:Work>
    </rdf:RDF>
  </metadata>
  <sodipodi:namedview
     pagecolor="#ffffff"
     bordercolor="#666666"
     borderopacity="1"
     objecttolerance="10"
     gridtolerance="10"
     guidetolerance="10"
     inkscape:pageopacity="0"
     inkscape:pageshadow="2"
     inkscape:window-width="760"
     inkscape:window-height="480"
     id="namedview63"
     showgrid="false"
     inkscape:zoom="2.4583333"
     inkscape:cx="49.220339"
     inkscape:cy="47.999999"
     inkscape:window-x="604"
     inkscape:window-y="41"
     inkscape:window-maximized="0"
     inkscape:current-layer="svg2" />
  <defs
     id="defs4">
    <linearGradient
       id="linearGradient4081">
      <stop
         stop-color="#4d4d4d"
         stop-opacity="1"
         id="stop7" />
      <stop
         stop-color="#1a1a1a"
         stop-opacity="1"
         offset="1"
         id="stop9" />
    </linearGradient>
    <linearGradient
       x2="0"
       xlink:href="#linearGradient4081"
       y1="72.09"
       y2="23.729"
       gradientUnits="userSpaceOnUse"
       id="linearGradient3746"
       gradientTransform="matrix(1.26316 0 0 1 81.05 0)" />
    <linearGradient
       x2="0"
       xlink:href="#linearGradient4081"
       y1="74"
       y2="21.914"
       gradientUnits="userSpaceOnUse"
       id="linearGradient3762" />
    <radialGradient
       cy="90.17"
       r="42"
       gradientUnits="userSpaceOnUse"
       id="radialGradient3619-5"
       cx="48"
       gradientTransform="matrix(1.15731 0 0 0.99591 -7.551 0.197)">
      <stop
         stop-color="#ffffff"
         stop-opacity="1"
         id="stop14" />
      <stop
         stop-color="#ffffff"
         stop-opacity="0"
         offset="1"
         id="stop16" />
    </radialGradient>
    <linearGradient
       x2="0"
       y1="92.54"
       y2="7.02"
       gradientUnits="userSpaceOnUse"
       id="ButtonShadow-0"
       gradientTransform="matrix(1.0059 0 0 0.99417 100 0)">
      <stop
         stop-color="#000000"
         stop-opacity="1"
         id="stop19" />
      <stop
         stop-color="#000000"
         stop-opacity="0.588"
         offset="1"
         id="stop21" />
    </linearGradient>
    <linearGradient
       x2="0"
       xlink:href="#ButtonShadow-0"
       y1="6.132"
       y2="90.24"
       gradientUnits="userSpaceOnUse"
       id="linearGradient3780"
       gradientTransform="matrix(1.02381 0 0 -1.0119 -1.143 98.07)" />
    <linearGradient
       x2="0"
       xlink:href="#ButtonShadow-0"
       y1="6.132"
       y2="90.24"
       gradientUnits="userSpaceOnUse"
       id="linearGradient3721-5"
       gradientTransform="matrix(1 0 0 -1 0 97)" />
  </defs>
  <g
     id="g3400"
     transform="matrix(1.4230892,0,0,1.4230892,-20.311985,-21.731373)">
    <path
       id="path39"
       inkscape:connector-curvature="0"
       visibility="visible"
       d="m 30.59375,20.9375 c -3.87864,-0.104067 -7.088905,3.65889 -6.65625,7.458076 0.02281,14.209578 -0.0457,28.422037 0.03439,42.629807 0.275894,3.669385 3.895109,6.4765 7.509048,6.037117 11.534782,-0.02322 23.072561,0.04653 34.605463,-0.03504 3.680475,-0.294819 6.404576,-3.972922 5.976096,-7.570898 -0.02281,-14.160289 0.0457,-28.32346 -0.03439,-42.481942 -0.275894,-3.669385 -3.895109,-6.4765 -7.509048,-6.037117 -11.308437,0 -22.616873,0 -33.925309,0 z m 3.46875,10.125 c 0.941743,-8.58e-4 1.459665,-0.129729 0.46875,0.46875 -0.614745,1.000904 -0.458868,0.570095 -0.46875,-0.418441 l 0,-0.05031 z m 2.6875,0 c 8.395833,0 16.791667,0 25.1875,0 0,11.083333 0,22.166667 0,33.25 C 60.238641,61.70581 58.214223,59.300325 56.390571,56.770761 50.035599,48.33678 43.746249,39.833205 37.350458,31.442531 37.180278,31.279501 36.963164,31.166087 36.75,31.0625 Z m 5.3125,20.125 c 1.9375,2.583333 3.875,5.166667 5.8125,7.75 -1.9375,0 -3.875,0 -5.8125,0 0,-2.583333 0,-5.166667 0,-7.75 z m 19.875,14.46875 c 0.221095,1.054429 -0.122478,1.544189 -1.21875,1.28125 0.558417,-0.236107 1.052072,-0.686386 1.21875,-1.28125 z m -27.875,0.03125 c 0.01477,0.609501 1.120698,1.187601 1.102135,1.25 -1.281847,0.18027 -1.146514,-0.111902 -1.102135,-1.25 z"
       style="color:black;visibility:visible;opacity:0.1;fill:black;fill-opacity:1;fill-rule:nonzero;stroke:none;stroke-width:1" />
    <path
       id="path41"
       visibility="visible"
       d="m 30.59375,21.96875 c -3.104529,0 -5.625,2.56515 -5.625,5.6875 l 0,42.6875 c 0,3.12235 2.520471,5.6875 5.625,5.6875 l 34.8125,0 c 3.104529,0 5.625,-2.56515 5.625,-5.6875 l 0,-42.6875 c 0,-3.12235 -2.520471,-5.6875 -5.625,-5.6875 l -34.8125,0 z M 34,30.03125 l 1,0 26,0 1,0 c 0.553473,0 0.96875,0.415277 0.96875,0.96875 l 0,1 0,34 0,1 c 0,0.553473 -0.415277,0.96875 -0.96875,0.96875 l -1,0 -26,0 -1,0 c -0.553473,0 -0.96875,-0.415277 -0.96875,-0.96875 l 0,-1 0,-34 0,-1 c 0,-0.553473 0.415277,-0.96875 0.96875,-0.96875 z m 1.8125,1.9375 A 1.0333146,1.0333146 0 0 0 34.96875,33 l 0,32 A 1.0333146,1.0333146 0 0 0 36,66.03125 l 24,0 A 1.0333146,1.0333146 0 0 0 60.8125,64.375 l -24,-32 a 1.0333146,1.0333146 0 0 0 -1,-0.40625 z m 5.21875,16.125 8.90625,11.875 -8.90625,0 0,-11.875 z"
       inkscape:connector-curvature="0"
       style="color:black;visibility:visible;opacity:0.15;fill:black;fill-opacity:1;fill-rule:nonzero;stroke:none;stroke-width:1" />
    <path
       id="path43"
       inkscape:connector-curvature="0"
       visibility="visible"
       d="M 30.59375,23 C 28.054583,23 26,25.084107 26,27.65625 l 0,42.6875 C 26,72.915893 28.054583,75 30.59375,75 l 34.8125,0 C 67.945417,75 70,72.915893 70,70.34375 l 0,-42.6875 C 70,25.084107 67.945417,23 65.40625,23 l -34.8125,0 z M 34,29 l 1,0 26,0 1,0 c 1.108,0 2,0.892 2,2 l 0,1 0,34 0,1 c 0,1.108 -0.892,2 -2,2 l -1,0 -26,0 -1,0 c -1.108,0 -2,-0.892 -2,-2 l 0,-1 0,-34 0,-1 c 0,-1.108 0.892,-2 2,-2 z m 2,4 0,32 24,0 -24,-32 z m 4,12 12,16 -12,0 0,-16 z"
       style="color:black;visibility:visible;opacity:0.3;fill:black;fill-opacity:1;fill-rule:nonzero;stroke:none;stroke-width:1" />
    <path
       id="path57"
       inkscape:connector-curvature="0"
       visibility="visible"
       d="M 30.59375,22 C 28.054583,22 26,24.084107 26,26.65625 l 0,42.6875 C 26,71.915893 28.054583,74 30.59375,74 l 34.8125,0 C 67.945417,74 70,71.915893 70,69.34375 l 0,-42.6875 C 70,24.084107 67.945417,22 65.40625,22 l -34.8125,0 z M 34,28 l 1,0 26,0 1,0 c 1.108,0 2,0.892 2,2 l 0,1 0,34 0,1 c 0,1.108 -0.892,2 -2,2 l -1,0 -26,0 -1,0 c -1.108,0 -2,-0.892 -2,-2 l 0,-1 0,-34 0,-1 c 0,-1.108 0.892,-2 2,-2 z m 2,4 0,32 24,0 -24,-32 z m 4,12 12,16 -12,0 0,-16 z"
       style="color:black;visibility:visible;fill:url(#linearGradient3762);fill-opacity:1;fill-rule:nonzero;stroke:none;stroke-width:1" />
    <path
       id="path59"
       inkscape:connector-curvature="0"
       visibility="visible"
       d="M 30.59375,22 C 28.054583,22 26,24.084107 26,26.65625 l 0,1 C 26,25.084107 28.054583,23 30.59375,23 l 34.8125,0 C 67.945417,23 70,25.084107 70,27.65625 l 0,-1 C 70,24.084107 67.945417,22 65.40625,22 l -34.8125,0 z M 36,32 36,33 59.25,64 60,64 36,32 Z m 4,28 0,1 12,0 L 51.25,60 40,60 Z m -8,6 0,1 c 0,1.108 0.892,2 2,2 l 1,0 26,0 1,0 c 1.108,0 2,-0.892 2,-2 l 0,-1 c 0,1.108 -0.892,2 -2,2 l -1,0 -26,0 -1,0 c -1.108,0 -2,-0.892 -2,-2 z"
       style="color:black;visibility:visible;opacity:0.75;fill:white;fill-opacity:1;fill-rule:nonzero;stroke:none;stroke-width:1" />
    <path
       id="path61"
       inkscape:connector-curvature="0"
       visibility="visible"
       d="m 34,27 c -1.108,0 -2,0.892 -2,2 l 0,1 c 0,-1.108 0.892,-2 2,-2 l 1,0 26,0 1,0 c 1.108,0 2,0.892 2,2 l 0,-1 c 0,-1.108 -0.892,-2 -2,-2 l -1,0 -26,0 -1,0 z m 6,16 0,1 L 51.25,59 52,59 40,43 Z m -4,20 0,1 24,0 L 59.25,63 36,63 Z m -10,5.34375 0,1 C 26,71.915893 28.054583,74 30.59375,74 l 34.8125,0 C 67.945417,74 70,71.915893 70,69.34375 l 0,-1 C 70,70.915893 67.945417,73 65.40625,73 l -34.8125,0 C 28.054583,73 26,70.915893 26,68.34375 Z"
       style="color:black;visibility:visible;opacity:0.15;fill:black;fill-opacity:1;fill-rule:nonzero;stroke:none;stroke-width:1" />
  </g>
</svg>
