<svg display="inline" height="96" width="96" xmlns="http://www.w3.org/2000/svg" xmlns:xlink="http://www.w3.org/1999/xlink" xmlns:sodipodi="http://sodipodi.sourceforge.net/DTD/sodipodi-0.dtd" xmlns:inkscape="http://www.inkscape.org/namespaces/inkscape">
 <defs>
  <radialGradient cy="90.17" r="42" gradientUnits="userSpaceOnUse" id="radialGradient3619-5" cx="48" gradientTransform="matrix(1.15731 0 0 0.99591 -7.551 0.197)">
   <stop stop-color="#ffffff" stop-opacity="1"/>
   <stop stop-color="#ffffff" stop-opacity="0" offset="1"/>
  </radialGradient>
  <linearGradient x2="0" y1="92.54" y2="7.02" gradientUnits="userSpaceOnUse" id="ButtonShadow-0" gradientTransform="matrix(1.0059 0 0 0.99417 100 0)">
   <stop stop-color="#000000" stop-opacity="1"/>
   <stop stop-color="#000000" stop-opacity="0.588" offset="1"/>
  </linearGradient>
  <linearGradient x2="0" xlink:href="#ButtonShadow-0" y1="6.132" y2="90.24" gradientUnits="userSpaceOnUse" id="linearGradient3780" gradientTransform="matrix(1.02381 0 0 -1.0119 -1.143 98.07)"/>
  <linearGradient x2="0" xlink:href="#ButtonShadow-0" y1="6.132" y2="90.24" gradientUnits="userSpaceOnUse" id="linearGradient3721-5" gradientTransform="matrix(1 0 0 -1 0 97)"/>
  <linearGradient x2="0" y1="74" y2="21.914" gradientUnits="userSpaceOnUse" id="linearGradient3195" gradientTransform="matrix(1 0 0 1 80 0)">
   <stop stop-color="#aaaaaa" stop-opacity="1"/>
   <stop stop-color="#f0f0f0" stop-opacity="1" offset="1"/>
  </linearGradient>
 </defs>
 <path d="M 12,3.96875 C 6.4889098,3.96875 1.96875,8.4889098 1.96875,14 l 0,71 c 0,5.51109 4.5201597,10.03125 10.03125,10.03125 l 72,0 c 5.51109,0 10.03125,-4.52016 10.03125,-10.03125 l 0,-71 C 94.03125,8.4889097 89.51109,3.96875 84,3.96875 l -72,0 z M 12,6 84,6 c 3.324,0 6,2.676 6,6 l 0,72 c 0,3.324 -2.676,6 -6,6 L 12,90 C 8.676,90 6,87.324 6,84 L 6,12 C 6,8.676 8.676,6 12,6 z" fill="url(#linearGradient3780)" fill-opacity="1" fill-rule="nonzero" stroke="none" opacity="0.08" inkscape:connector-curvature="0"/>
 <path d="M 12,4.96875 C 7.0283671,4.96875 2.96875,9.0283671 2.96875,14 l 0,71 c 0,4.971633 4.059617,9.03125 9.03125,9.03125 l 72,0 c 4.971633,0 9.03125,-4.059617 9.03125,-9.03125 l 0,-71 C 93.03125,9.028367 88.971633,4.96875 84,4.96875 l -72,0 z M 12,6 84,6 c 3.324,0 6,2.676 6,6 l 0,72 c 0,3.324 -2.676,6 -6,6 L 12,90 C 8.676,90 6,87.324 6,84 L 6,12 C 6,8.676 8.676,6 12,6 z" fill="url(#linearGradient3780)" fill-opacity="1" fill-rule="nonzero" stroke="none" opacity="0.1" inkscape:connector-curvature="0"/>
 <path d="M 11.1875,6.03125 C 7.159982,6.4419011 4,9.8664375 4,14 l 0,71 c 0,4.409133 3.590867,8 8,8 l 72,0 c 4.409133,0 8,-3.590867 8,-8 L 92,14 C 92,9.8029382 88.741028,6.3539584 84.625,6.03125 87.657886,6.337417 90,8.88375 90,12 l 0,72 c 0,3.324 -2.676,6 -6,6 L 12,90 C 8.676,90 6,87.324 6,84 L 6,12 c 0,-3.11625 2.342114,-5.662583 5.375,-5.96875 -0.06227,0.00488 -0.12563,-0.00631 -0.1875,0 z" fill="url(#linearGradient3780)" fill-opacity="1" fill-rule="nonzero" stroke="none" opacity="0.2" inkscape:connector-curvature="0"/>
 <path d="M 6.4375,9.75 C 5.5380109,10.927446 5,12.397277 5,14 l 0,71 c 0,3.878 3.122,7 7,7 l 72,0 c 3.878,0 7,-3.122 7,-7 L 91,14 C 91,12.397277 90.461989,10.927446 89.5625,9.75 89.841816,10.444095 90,11.203625 90,12 l 0,72 c 0,3.324 -2.676,6 -6,6 L 12,90 C 8.676,90 6,87.324 6,84 L 6,12 C 6,11.203625 6.1581836,10.444095 6.4375,9.75 z" fill="url(#linearGradient3780)" fill-opacity="1" fill-rule="nonzero" stroke="none" opacity="0.3" inkscape:connector-curvature="0"/>
 <path d="m 6,84 0,1 c 0,3.324 2.676,6 6,6 l 72,0 c 3.324,0 6,-2.676 6,-6 l 0,-1 c 0,3.324 -2.676,6 -6,6 L 12,90 C 8.676,90 6,87.324 6,84 z" fill="url(#linearGradient3721-5)" fill-opacity="1" fill-rule="nonzero" stroke="none" opacity="0.45" inkscape:connector-curvature="0"/>
 <rect x="6" rx="6" y="6" fill="#000000" fill-opacity="1" fill-rule="nonzero" stroke="none" height="84" opacity="0.6" width="84"/>
 <path d="M 12,90 C 8.676,90 6,87.324 6,84 L 6,82 6,14 6,12 c 0,-0.334721 0.04135,-0.6507 0.09375,-0.96875 0.0487,-0.295596 0.09704,-0.596915 0.1875,-0.875 C 6.29113,10.12587 6.302142,10.09265 6.3125,10.0625 6.411365,9.774729 6.5473802,9.515048 6.6875,9.25 6.8320918,8.976493 7.0031161,8.714385 7.1875,8.46875 7.3718839,8.223115 7.5612765,7.995278 7.78125,7.78125 8.221197,7.353194 8.72416,6.966724 9.28125,6.6875 9.559795,6.547888 9.8547231,6.440553 10.15625,6.34375 9.9000482,6.443972 9.6695391,6.580022 9.4375,6.71875 c -0.00741,0.0044 -0.023866,-0.0045 -0.03125,0 -0.031933,0.0193 -0.062293,0.04251 -0.09375,0.0625 -0.120395,0.0767 -0.2310226,0.163513 -0.34375,0.25 -0.1061728,0.0808 -0.2132809,0.161112 -0.3125,0.25 C 8.4783201,7.442683 8.3087904,7.626638 8.15625,7.8125 8.0486711,7.942755 7.9378561,8.077785 7.84375,8.21875 7.818661,8.25713 7.805304,8.30462 7.78125,8.34375 7.716487,8.446782 7.6510225,8.548267 7.59375,8.65625 7.4927417,8.850956 7.3880752,9.071951 7.3125,9.28125 7.30454,9.30306 7.288911,9.3218 7.28125,9.34375 7.2494249,9.4357 7.2454455,9.530581 7.21875,9.625 7.1884177,9.731618 7.1483606,9.828031 7.125,9.9375 7.0521214,10.279012 7,10.635705 7,11 l 0,2 0,68 0,2 c 0,2.781848 2.2181517,5 5,5 l 2,0 68,0 2,0 c 2.781848,0 5,-2.218152 5,-5 l 0,-2 0,-68 0,-2 C 89,10.635705 88.94788,10.279012 88.875,9.9375 88.83085,9.730607 88.78662,9.539842 88.71875,9.34375 88.71105,9.3218 88.69545,9.30306 88.6875,9.28125 88.62476,9.107511 88.549117,8.913801 88.46875,8.75 88.42717,8.6672 88.38971,8.580046 88.34375,8.5 88.28915,8.40279 88.216976,8.31165 88.15625,8.21875 88.06214,8.077785 87.951329,7.942755 87.84375,7.8125 87.700576,7.63805 87.540609,7.465502 87.375,7.3125 87.36383,7.3023 87.35502,7.29135 87.34375,7.28125 87.205364,7.155694 87.058659,7.046814 86.90625,6.9375 86.803679,6.86435 86.701932,6.784136 86.59375,6.71875 c -0.0074,-0.0045 -0.02384,0.0044 -0.03125,0 -0.232039,-0.138728 -0.462548,-0.274778 -0.71875,-0.375 0.301527,0.0968 0.596455,0.204138 0.875,0.34375 0.55709,0.279224 1.060053,0.665694 1.5,1.09375 0.219973,0.214028 0.409366,0.441865 0.59375,0.6875 0.184384,0.245635 0.355408,0.507743 0.5,0.78125 0.14012,0.265048 0.276135,0.524729 0.375,0.8125 0.01041,0.03078 0.02133,0.06274 0.03125,0.09375 0.09046,0.278085 0.1388,0.579404 0.1875,0.875 C 89.95865,11.3493 90,11.665279 90,12 l 0,2 0,68 0,2 c 0,3.324 -2.676,6 -6,6 l -72,0 z" fill="url(#radialGradient3619-5)" fill-opacity="1" fill-rule="nonzero" stroke="none" opacity="0.15" inkscape:connector-curvature="0"/>
 <path d="m 30.59375,21.03125 c -4.32312,-0.126519 -7.210047,4.294579 -6.5625,8.30058 0.02247,13.894532 -0.04503,27.79133 0.03389,41.68444 0.285725,4.20013 4.627701,6.552014 8.483454,5.95248 11.175875,-0.02289 22.354108,0.04587 33.528504,-0.03453 4.206634,-0.313854 6.472684,-4.704549 5.891652,-8.545317 -0.08847,-4.028668 0.17378,-8.110958 -0.125,-12.107656 -1.43011,-1.124773 -0.26301,-1.835985 0.767758,-2.908882 1.043734,-1.641091 3.702744,-2.741043 3.263492,-4.966118 -1.389656,-2.085723 -3.569172,-3.659252 -5.25,-5.5625 2.257901,-0.947049 1.03493,-3.888336 1.34375,-5.753437 -0.207647,-3.993141 0.491126,-8.113066 -0.515824,-12.000402 -1.337816,-3.651252 -5.427843,-4.373919 -8.83931,-4.058661 -10.673289,0 -21.346577,0 -32.019866,0 z m 80,0 c -4.32312,-0.126519 -7.21005,4.294579 -6.5625,8.30058 0,4.566474 0,9.132947 0,13.69942 -1.53491,-0.157402 -3.99947,-0.148266 -4,1.96875 0.15387,3.300019 -0.303532,6.693181 0.21875,9.9375 0.72862,1.42643 2.55255,0.931574 3.78125,1.0625 0.0807,5.221166 -0.16663,10.463093 0.13336,15.670473 0.65597,3.899208 4.7597,5.811329 8.38398,5.298277 11.17588,-0.02289 22.35411,0.04587 33.52851,-0.03453 4.20663,-0.313854 6.47268,-4.704549 5.89165,-8.545317 -0.0225,-13.801444 0.045,-27.605153 -0.0339,-41.405176 -0.28573,-4.20013 -4.6277,-6.552014 -8.48345,-5.95248 -10.95256,0 -21.90511,0 -32.85766,0 z M 34,30.96875 C 43.339257,30.99001 52.713636,30.92648 62.03125,31 c -0.228303,1.209197 0.440574,3.315574 -0.28125,4.03125 -2.521865,0.473958 -1.538393,3.560914 -1.71875,5.351161 0.455639,2.176375 -0.24366,3.197813 -2.51337,2.648839 -3.413531,0.11331 -6.893064,-0.221221 -10.26788,0.15625 -2.09892,1.049899 -0.904945,3.864504 -1.21875,5.722187 0.287921,2.1285 -0.63,4.608457 0.5625,6.496563 1.867834,1.183618 4.325093,0.279913 6.432991,0.5625 2.334836,0 4.669673,0 7.004509,0 0.235194,2.359151 -0.470763,4.91007 0.34375,7.15625 0.408332,0.983044 2.205668,0.352235 1.65625,1.74404 0.533524,2.045763 -0.538826,2.540712 -2.427567,2.16221 C 51.063234,67.009901 42.487547,67.073622 33.96875,67 33.989659,54.993968 33.926977,42.953178 34,30.96875 z m 80,0 c 9.33926,0.02126 18.71364,-0.04227 28.03125,0.03125 -0.0209,12.006064 0.0418,24.046776 -0.0312,36.03125 C 132.66079,67.00999 123.28641,67.07352 113.9688,67 c 0.0421,-3.655788 -0.0842,-7.480036 0.0625,-11.03125 0.23519,2.359151 -0.47076,4.91007 0.34375,7.15625 1.1445,1.580175 3.2497,0.587433 4.00959,-0.838518 3.77646,-4.22538 7.87146,-8.265994 11.45911,-12.598982 0.6028,-2.233605 -2.14307,-3.277922 -3.22971,-4.830669 -3.31011,-3.174437 -6.39813,-6.692076 -9.83279,-9.669331 -1.79869,-0.809077 -3.25815,1.291928 -2.75,2.960804 -0.0446,1.568358 0.0873,3.494187 -0.0625,4.851696 0.0217,-4.005603 -0.0429,-8.047426 0.0312,-12.03125 z" stroke-width="1" fill="#000000" color="#000000" fill-opacity="1" fill-rule="nonzero" stroke="none" opacity="0.1" visibility="visible" inkscape:connector-curvature="0"/>
 <path d="m -49.40625,22.0625 c -3.054549,0 -5.53125,2.52004 -5.53125,5.59375 l 0,42.6875 c 0,3.07371 2.476701,5.59375 5.53125,5.59375 l 34.8125,0 c 3.054549,0 5.53125,-2.52004 5.53125,-5.59375 L -9.0625,57 a 0.94196583,0.94196583 0 0 0 -1.65625,-0.625 l -6,7 A 0.94196583,0.94196583 0 0 0 -16.9375,64 l 0,2 0,1 c 0,0.602495 -0.460005,1.0625 -1.0625,1.0625 l -1,0 -26,0 -1,0 c -0.602495,0 -1.0625,-0.460005 -1.0625,-1.0625 l 0,-1 0,-34 0,-1 c 0,-0.602495 0.460005,-1.0625 1.0625,-1.0625 l 1,0 26,0 1,0 c 0.602495,0 1.0625,0.460005 1.0625,1.0625 l 0,1 0,3 a 0.94196583,0.94196583 0 0 0 0.28125,0.65625 l 6,6 A 0.94196583,0.94196583 0 0 0 -9.0625,41 l 0,-13.34375 c 0,-3.07371 -2.476701,-5.59375 -5.53125,-5.59375 l -34.8125,0 z m 80,0 c -3.054549,0 -5.53125,2.52004 -5.53125,5.59375 L 25.0625,43 A 0.94196583,0.94196583 0 0 0 26,43.9375 l 6,0 A 0.94196583,0.94196583 0 0 0 32.9375,43 l 0,-11 0,-1 c 0,-0.602495 0.460005,-1.0625 1.0625,-1.0625 l 1,0 26,0 1,0 c 0.602495,0 1.0625,0.460005 1.0625,1.0625 l 0,1 0,34 0,1 c 0,0.602495 -0.460005,1.0625 -1.0625,1.0625 l -1,0 -26,0 -1,0 c -0.602495,0 -1.0625,-0.460005 -1.0625,-1.0625 l 0,-1 0,-10 A 0.94196583,0.94196583 0 0 0 32,55.0625 l -6,0 A 0.94196583,0.94196583 0 0 0 25.0625,56 l 0,14.34375 c 0,3.07371 2.476701,5.59375 5.53125,5.59375 l 34.8125,0 c 3.054549,0 5.53125,-2.52004 5.53125,-5.59375 l 0,-42.6875 c 0,-3.07371 -2.476701,-5.59375 -5.53125,-5.59375 l -34.8125,0 z m -48.6875,14 A 0.94196583,0.94196583 0 0 0 -18.9375,37 l 0,7.0625 -13.0625,0 A 0.94196583,0.94196583 0 0 0 -32.9375,45 l 0,9 A 0.94196583,0.94196583 0 0 0 -32,54.9375 l 13.0625,0 0,7.0625 a 0.94196583,0.94196583 0 0 0 1.625,0.625 l 12,-13 a 0.94196583,0.94196583 0 0 0 -0.03125,-1.28125 l -12,-12 a 0.94196583,0.94196583 0 0 0 -0.75,-0.28125 z m 54,0 A 0.94196583,0.94196583 0 0 0 35.0625,37 l 0,7.0625 -13.0625,0 A 0.94196583,0.94196583 0 0 0 21.0625,45 l 0,9 A 0.94196583,0.94196583 0 0 0 22,54.9375 l 13.0625,0 0,7.0625 a 0.94196583,0.94196583 0 0 0 1.625,0.625 l 12,-13 a 0.94196583,0.94196583 0 0 0 -0.03125,-1.28125 l -12,-12 a 0.94196583,0.94196583 0 0 0 -0.75,-0.28125 z" stroke-width="1" fill="#000000" color="#000000" fill-opacity="1" fill-rule="nonzero" stroke="none" opacity="0.15" visibility="visible" transform="matrix(1 0 0 1 80 0)"/>
 <path d="M 30.59375,23 C 28.054583,23 26,25.084107 26,27.65625 l 0,42.6875 C 26,72.915893 28.054583,75 30.59375,75 l 34.8125,0 C 67.945417,75 70,72.915893 70,70.34375 L 70,57 l -6,7 0,2 0,1 c 0,1.108 -0.892,2 -2,2 l -1,0 -26,0 -1,0 c -1.108,0 -2,-0.892 -2,-2 l 0,-1 0,-34 0,-1 c 0,-1.108 0.892,-2 2,-2 l 1,0 26,0 1,0 c 1.108,0 2,0.892 2,2 l 0,1 0,3 6,6 0,-13.34375 C 70,25.084107 67.945417,23 65.40625,23 l -34.8125,0 z m 80,0 C 108.05458,23 106,25.084107 106,27.65625 L 106,43 l 6,0 0,-11 0,-1 c 0,-1.108 0.892,-2 2,-2 l 1,0 26,0 1,0 c 1.108,0 2,0.892 2,2 l 0,1 0,34 0,1 c 0,1.108 -0.892,2 -2,2 l -1,0 -26,0 -1,0 c -1.108,0 -2,-0.892 -2,-2 l 0,-1 0,-10 -6,0 0,14.34375 C 106,72.915893 108.05458,75 110.59375,75 l 34.8125,0 C 147.94542,75 150,72.915893 150,70.34375 l 0,-42.6875 C 150,25.084107 147.94542,23 145.40625,23 l -34.8125,0 z M 62,37 l 0,8 -14,0 0,9 14,0 0,8 L 74,49 62,37 z m 54,0 0,8 -14,0 0,9 14,0 0,8 12,-13 -12,-12 z" stroke-width="1" fill="#000000" color="#000000" fill-opacity="1" fill-rule="nonzero" stroke="none" opacity="0.3" visibility="visible" inkscape:connector-curvature="0"/>
 <path d="M 30.59375,22 C 28.054583,22 26,24.084107 26,26.65625 l 0,42.6875 C 26,71.915893 28.054583,74 30.59375,74 l 34.8125,0 C 67.945417,74 70,71.915893 70,69.34375 L 70,56 l -6,7 0,2 0,1 c 0,1.108 -0.892,2 -2,2 l -1,0 -26,0 -1,0 c -1.108,0 -2,-0.892 -2,-2 l 0,-1 0,-34 0,-1 c 0,-1.108 0.892,-2 2,-2 l 1,0 26,0 1,0 c 1.108,0 2,0.892 2,2 l 0,1 0,3 6,6 0,-13.34375 C 70,24.084107 67.945417,22 65.40625,22 l -34.8125,0 z m 80,0 C 108.05458,22 106,24.084107 106,26.65625 L 106,42 l 6,0 0,-11 0,-1 c 0,-1.108 0.892,-2 2,-2 l 1,0 26,0 1,0 c 1.108,0 2,0.892 2,2 l 0,1 0,34 0,1 c 0,1.108 -0.892,2 -2,2 l -1,0 -26,0 -1,0 c -1.108,0 -2,-0.892 -2,-2 l 0,-1 0,-10 -6,0 0,14.34375 C 106,71.915893 108.05458,74 110.59375,74 l 34.8125,0 C 147.94542,74 150,71.915893 150,69.34375 l 0,-42.6875 C 150,24.084107 147.94542,22 145.40625,22 l -34.8125,0 z M 62,36 l 0,8 -14,0 0,9 14,0 0,8 L 74,48 62,36 z m 54,0 0,8 -14,0 0,9 14,0 0,8 12,-13 -12,-12 z" stroke-width="1" fill="url(#linearGradient3195)" color="#000000" fill-opacity="1" fill-rule="nonzero" stroke="none" visibility="visible" inkscape:connector-curvature="0"/>
 <path d="M 30.59375,22 C 28.054583,22 26,24.084107 26,26.65625 l 0,1 C 26,25.084107 28.054583,23 30.59375,23 l 34.8125,0 C 67.945417,23 70,25.084107 70,27.65625 l 0,-1 C 70,24.084107 67.945417,22 65.40625,22 l -34.8125,0 z m 80,0 C 108.05458,22 106,24.084107 106,26.65625 l 0,1 C 106,25.084107 108.05458,23 110.59375,23 l 34.8125,0 C 147.94542,23 150,25.084107 150,27.65625 l 0,-1 C 150,24.084107 147.94542,22 145.40625,22 l -34.8125,0 z M 62,36 62,37 73.53125,48.53125 74,48 62,36 z m 54,0 0,1 11.53125,11.53125 L 128,48 116,36 z m -68,8 0,1 14,0 0,-1 -14,0 z m 54,0 0,1 14,0 0,-1 -14,0 z m 4,11 0,1 6,0 0,-1 -6,0 z m -36,1 -6,7 0,1 6,-7 0,-1 z m -38,10 0,1 c 0,1.108 0.892,2 2,2 l 1,0 26,0 1,0 c 1.108,0 2,-0.892 2,-2 l 0,-1 c 0,1.108 -0.892,2 -2,2 l -1,0 -26,0 -1,0 c -1.108,0 -2,-0.892 -2,-2 z m 80,0 0,1 c 0,1.108 0.892,2 2,2 l 1,0 26,0 1,0 c 1.108,0 2,-0.892 2,-2 l 0,-1 c 0,1.108 -0.892,2 -2,2 l -1,0 -26,0 -1,0 c -1.108,0 -2,-0.892 -2,-2 z" stroke-width="1" fill="#ffffff" color="#000000" fill-opacity="1" fill-rule="nonzero" stroke="none" opacity="0.75" visibility="visible" inkscape:connector-curvature="0"/>
 <path d="m 34,27 c -1.108,0 -2,0.892 -2,2 l 0,1 c 0,-1.108 0.892,-2 2,-2 l 1,0 26,0 1,0 c 1.108,0 2,0.892 2,2 l 0,-1 c 0,-1.108 -0.892,-2 -2,-2 l -1,0 -26,0 -1,0 z m 80,0 c -1.108,0 -2,0.892 -2,2 l 0,1 c 0,-1.108 0.892,-2 2,-2 l 1,0 26,0 1,0 c 1.108,0 2,0.892 2,2 l 0,-1 c 0,-1.108 -0.892,-2 -2,-2 l -1,0 -26,0 -1,0 z m -50,6 0,1 6,6 0,-1 -6,-6 z m 42,8 0,1 6,0 0,-1 -6,0 z M 73.53125,47.53125 62,60 62,61 74,48 73.53125,47.53125 z m 54,0 L 116,60 l 0,1 12,-13 -0.46875,-0.46875 z M 48,52 l 0,1 14,0 0,-1 -14,0 z m 54,0 0,1 14,0 0,-1 -14,0 z m -76,16.34375 0,1 C 26,71.915893 28.054583,74 30.59375,74 l 34.8125,0 C 67.945417,74 70,71.915893 70,69.34375 l 0,-1 C 70,70.915893 67.945417,73 65.40625,73 l -34.8125,0 C 28.054583,73 26,70.915893 26,68.34375 z m 80,0 0,1 C 106,71.915893 108.05458,74 110.59375,74 l 34.8125,0 C 147.94542,74 150,71.915893 150,69.34375 l 0,-1 C 150,70.915893 147.94542,73 145.40625,73 l -34.8125,0 C 108.05458,73 106,70.915893 106,68.34375 z" stroke-width="1" fill="#000000" color="#000000" fill-opacity="1" fill-rule="nonzero" stroke="none" opacity="0.15" visibility="visible" inkscape:connector-curvature="0"/>
</svg>
