<svg display="inline" height="16" width="16" xmlns="http://www.w3.org/2000/svg" xmlns:sodipodi="http://sodipodi.sourceforge.net/DTD/sodipodi-0.dtd" xmlns:inkscape="http://www.inkscape.org/namespaces/inkscape">
 <path d="M 1.5,0 C 0.669,0 0,0.669 0,1.5 l 0,9 C 0,11.331 0.669,12 1.5,12 L 6,12 8.5,12 C 9.331,12 10,11.331 10,10.5 l 0,-9 C 10,0.669 9.331,0 8.5,0 z m 1,2 5,0 C 7.777,2 8,2.223 8,2.5 l 0,7 C 8,9.777 7.777,10 7.5,10 L 6,10 2.5,10 C 2.223,10 2,9.777 2,9.5 l 0,-7 C 2,2.223 2.223,2 2.5,2 z m 8.5,3 0,1 3,0 0,-1 z m 0,2 0,2 3,0 0,-2 z m 0,3 0,3 L 8.9945825,13 12.5,16 16,13 14,13 14,10 z M 0.99458255,13 c -0.559653,0 -1,0.45099 -1,1 0,0.54901 0.440347,1 1,1 0.55965295,0 1.03124995,-0.450991 1.03124995,-1 0,-0.54901 -0.471597,-1 -1.03124995,-1 z m 2.99999995,0 c -0.559653,0 -1,0.45099 -1,1 0,0.54901 0.4403471,1 1,1 0.559653,0 1.03125,-0.450991 1.03125,-1 0,-0.54901 -0.471597,-1 -1.03125,-1 z m 3,0 c -0.559653,0 -1,0.45099 -1,1 0,0.54901 0.4403466,1 1,1 0.559653,0 1.03125,-0.450991 1.03125,-1 0,-0.54901 -0.4715975,-1 -1.03125,-1 z" fill="#bebebe" fill-opacity="1" stroke="none" sodipodi:nodetypes="cccccccccccccccccccccccccccccccccccccccsssccsssccsssc" inkscape:label="Calque 1" inkscape:groupmode="layer" inkscape:connector-curvature="0"/>
</svg>
