<?xml version="1.0" encoding="UTF-8" standalone="no"?>
<svg
   xmlns:dc="http://purl.org/dc/elements/1.1/"
   xmlns:cc="http://creativecommons.org/ns#"
   xmlns:rdf="http://www.w3.org/1999/02/22-rdf-syntax-ns#"
   xmlns:svg="http://www.w3.org/2000/svg"
   xmlns="http://www.w3.org/2000/svg"
   xmlns:xlink="http://www.w3.org/1999/xlink"
   xmlns:sodipodi="http://sodipodi.sourceforge.net/DTD/sodipodi-0.dtd"
   xmlns:inkscape="http://www.inkscape.org/namespaces/inkscape"
   display="inline"
   height="96"
   width="96"
   id="svg2"
   version="1.1"
   inkscape:version="0.91 r13725"
   sodipodi:docname="document-open.svg">
  <metadata
     id="metadata73">
    <rdf:RDF>
      <cc:Work
         rdf:about="">
        <dc:format>image/svg+xml</dc:format>
        <dc:type
           rdf:resource="http://purl.org/dc/dcmitype/StillImage" />
      </cc:Work>
    </rdf:RDF>
  </metadata>
  <sodipodi:namedview
     pagecolor="#ffffff"
     bordercolor="#666666"
     borderopacity="1"
     objecttolerance="10"
     gridtolerance="10"
     guidetolerance="10"
     inkscape:pageopacity="0"
     inkscape:pageshadow="2"
     inkscape:window-width="760"
     inkscape:window-height="480"
     id="namedview71"
     showgrid="false"
     inkscape:zoom="2.4583333"
     inkscape:cx="-15.864407"
     inkscape:cy="80.542372"
     inkscape:window-x="75"
     inkscape:window-y="99"
     inkscape:window-maximized="0"
     inkscape:current-layer="svg2" />
  <defs
     id="defs4">
    <linearGradient
       id="linearGradient4081">
      <stop
         stop-color="#4d4d4d"
         stop-opacity="1"
         id="stop7" />
      <stop
         stop-color="#1a1a1a"
         stop-opacity="1"
         offset="1"
         id="stop9" />
    </linearGradient>
    <linearGradient
       x1="29.827"
       x2="65.69"
       xlink:href="#linearGradient4081"
       gradientUnits="userSpaceOnUse"
       id="linearGradient3034"
       gradientTransform="matrix(0 -1 -1 0 96 16)" />
    <linearGradient
       x2="0"
       y1="92.54"
       y2="7.02"
       gradientUnits="userSpaceOnUse"
       id="ButtonShadow-0"
       gradientTransform="matrix(1.0059 0 0 0.99417 100 0)">
      <stop
         stop-color="#000000"
         stop-opacity="1"
         id="stop13" />
      <stop
         stop-color="#000000"
         stop-opacity="0.588"
         offset="1"
         id="stop15" />
    </linearGradient>
    <linearGradient
       x2="0"
       xlink:href="#ButtonShadow-0"
       y1="6.132"
       y2="90.24"
       gradientUnits="userSpaceOnUse"
       id="linearGradient3780"
       gradientTransform="matrix(1.02381 0 0 -1.0119 -1.143 98.07)" />
    <linearGradient
       x2="0"
       xlink:href="#ButtonShadow-0"
       y1="6.132"
       y2="90.24"
       gradientUnits="userSpaceOnUse"
       id="linearGradient3721-4"
       gradientTransform="matrix(1 0 0 -1 0 97)" />
    <radialGradient
       cy="90.17"
       r="42"
       gradientUnits="userSpaceOnUse"
       id="radialGradient3619-8"
       cx="48"
       gradientTransform="matrix(1.15731 0 0 0.99591 -7.551 0.197)">
      <stop
         stop-color="#ffffff"
         stop-opacity="1"
         id="stop20" />
      <stop
         stop-color="#ffffff"
         stop-opacity="0"
         offset="1"
         id="stop22" />
    </radialGradient>
    <linearGradient
       x2="0"
       xlink:href="#linearGradient4081"
       y1="74"
       y2="23.99"
       gradientUnits="userSpaceOnUse"
       id="linearGradient3161" />
  </defs>
  <g
     id="g3361"
     transform="matrix(1.4797688,0,0,1.4797688,-23.028902,-25.98844)">
    <path
       id="path39"
       visibility="visible"
       d="m 29,22.96875 c -1.367998,0 -2.65828,0.53165 -3.625,1.4375 -0.815521,0.76417 -1.222243,1.877896 -1.25,3.0625 A 1.0194844,1.0194844 0 0 0 23.96875,28 l 0,5 c 10e-6,-9.74e-4 0.03134,0.18847 0.03125,0.1875 -8.7e-5,-9.7e-4 0.03143,0.188457 0.03125,0.1875 -1.83e-4,-9.57e-4 0.03153,0.219684 0.03125,0.21875 -2.77e-4,-9.34e-4 0.06287,0.188402 0.0625,0.1875 -3.68e-4,-9.02e-4 0.09421,0.157111 0.09375,0.15625 -4.56e-4,-8.61e-4 0.09429,0.188311 0.09375,0.1875 -5.39e-4,-8.11e-4 0.125617,0.157004 0.125,0.15625 -1.455995,1.102497 -2.46875,2.7672 -2.46875,4.71875 l 0,24 c 0,3.304529 2.726721,6.03125 6.03125,6.03125 l 6.96875,0 0,1.96875 c 0,3.304529 2.726721,6.03125 6.03125,6.03125 l 22,0 c 3.304529,0 6.03125,-2.726721 6.03125,-6.03125 l 0,-2.1875 c 2.802812,-0.508578 5,-2.87138 5,-5.8125 l 0,-24 c 0,-1.924027 -0.994261,-3.602668 -2.46875,-4.71875 -6.17e-4,7.54e-4 0.125539,-0.157061 0.125,-0.15625 -5.39e-4,8.11e-4 0.09421,-0.188361 0.09375,-0.1875 -4.56e-4,8.61e-4 0.09412,-0.157152 0.09375,-0.15625 -3.68e-4,9.02e-4 0.06278,-0.188434 0.0625,-0.1875 -2.77e-4,9.34e-4 0.03143,-0.219707 0.03125,-0.21875 -1.83e-4,9.57e-4 0.03134,-0.18847 0.03125,-0.1875 -8.7e-5,9.7e-4 0.03124,-0.188474 0.03125,-0.1875 0,-3.304529 -2.726721,-6.03125 -6.03125,-6.03125 l -21.1875,0 c -0.495748,-2.246873 -2.425927,-4 -4.8125,-4 l -11,0 z m 16.03125,22.0625 13.9375,0 0,21.9375 -13.9375,0 0,-21.9375 z"
       inkscape:connector-curvature="0"
       style="color:black;visibility:visible;opacity:0.1;fill:black;fill-opacity:1;fill-rule:nonzero;stroke:none;stroke-width:1" />
    <path
       id="path41"
       visibility="visible"
       d="m 29,24 c -1.103046,0 -2.162497,0.430046 -2.9375,1.15625 -0.731655,0.685585 -1.146217,1.733356 -1,2.84375 L 25,28 l 0,5 a 0.98998956,0.98998956 0 0 0 1,1 l 2,0 c -2.747277,0 -5,2.252723 -5,5 l 0,24 c 0,2.747277 2.252723,5 5,5 l 8,0 0,3 c 0,2.747277 2.252723,5 5,5 l 22,0 c 2.747277,0 5,-2.252723 5,-5 l 0,-3 c 2.747277,0 5,-2.252723 5,-5 l 0,-24 c 0,-2.689768 -2.102198,-5 -5,-5 l 2,0 a 0.98998956,0.98998956 0 0 0 1,-1 c 0,-2.747277 -2.252723,-5 -5,-5 l -22,0 c 0,-2.193277 -1.806723,-4 -4,-4 l -11,0 z m 15.5,20 15,0 c 0.299723,0 0.5,0.200277 0.5,0.5 l 0,23 c 0,0.299723 -0.200277,0.5 -0.5,0.5 l -15,0 C 44.200277,68 44,67.799723 44,67.5 l 0,-23 C 44,44.200277 44.200277,44 44.5,44 Z"
       inkscape:connector-curvature="0"
       style="color:black;visibility:visible;opacity:0.15;fill:black;fill-opacity:1;fill-rule:nonzero;stroke:none;stroke-width:1" />
    <path
       id="path43"
       inkscape:connector-curvature="0"
       visibility="visible"
       d="m 29,25 c -1.662,0 -3.325945,1.370275 -3,3 l 0,5 44,0 c 0,-2.216 -1.784,-4 -4,-4 l -23,0 0,-1 c 0,-1.662 -1.338,-3 -3,-3 l -11,0 z m -1,10 c -2.216,0 -4,1.784 -4,4 l 0,24 c 0,2.216 1.784,4 4,4 l 9,0 0,4 c 0,2.216 1.784,4 4,4 l 22,0 c 2.216,0 4,-1.784 4,-4 l 0,-4 1,0 c 2.216,0 4,-1.784 4,-4 l 0,-24 c 0,-2.216 -1.590888,-4 -4,-4 l -5,0 -22,0 -13,0 z m 16.5,8 15,0 c 0.831,0 1.5,0.669 1.5,1.5 l 0,23 c 0,0.831 -0.669,1.5 -1.5,1.5 l -15,0 C 43.669,69 43,68.331 43,67.5 l 0,-23 C 43,43.669 43.669,43 44.5,43 Z"
       style="color:black;visibility:visible;opacity:0.3;fill:black;fill-opacity:1;fill-rule:nonzero;stroke:none;stroke-width:1" />
    <path
       id="path65"
       inkscape:connector-curvature="0"
       visibility="visible"
       d="m 29,24 c -1.662,0 -3.325945,1.370275 -3,3 l 0,5 44,0 c 0,-2.216 -1.784,-4 -4,-4 l -23,0 0,-1 c 0,-1.662 -1.338,-3 -3,-3 l -11,0 z m -1,10 c -2.216,0 -4,1.784 -4,4 l 0,24 c 0,2.216 1.784,4 4,4 l 9,0 0,4 c 0,2.216 1.784,4 4,4 l 22,0 c 2.216,0 4,-1.784 4,-4 l 0,-4 1,0 c 2.216,0 4,-1.784 4,-4 l 0,-24 c 0,-2.216 -1.590888,-4 -4,-4 l -5,0 -22,0 -13,0 z m 16.5,8 15,0 c 0.831,0 1.5,0.669 1.5,1.5 l 0,23 c 0,0.831 -0.669,1.5 -1.5,1.5 l -15,0 C 43.669,68 43,67.331 43,66.5 l 0,-23 C 43,42.669 43.669,42 44.5,42 Z"
       style="color:black;visibility:visible;fill:url(#linearGradient3161);fill-opacity:1;fill-rule:nonzero;stroke:none;stroke-width:1" />
    <path
       id="path67"
       inkscape:connector-curvature="0"
       visibility="visible"
       d="m 29,24 c -1.662,0 -3.325945,1.370275 -3,3 l 0,0.25 C 26.217131,25.973665 27.603187,25 29,25 l 11,0 c 1.662,0 3,1.338 3,3 l 0,-1 c 0,-1.662 -1.338,-3 -3,-3 l -11,0 z m 14,4 0,1 23,0 c 1.868974,0 3.400465,1.273103 3.84375,3 L 70,32 c 0,-2.216 -1.784,-4 -4,-4 l -23,0 z m -15,6 c -2.216,0 -4,1.784 -4,4 l 0,1 c 0,-2.216 1.784,-4 4,-4 l 13,0 22,0 5,0 c 2.409112,0 4,1.784 4,4 l 0,-1 c 0,-2.216 -1.590888,-4 -4,-4 l -5,0 -22,0 -13,0 z m 15,32.5 0,1 c 0,0.831 0.669,1.5 1.5,1.5 l 15,0 c 0.831,0 1.5,-0.669 1.5,-1.5 l 0,-1 c 0,0.831 -0.669,1.5 -1.5,1.5 l -15,0 C 43.669,68 43,67.331 43,66.5 Z"
       style="color:black;visibility:visible;opacity:0.75;fill:white;fill-opacity:1;fill-rule:nonzero;stroke:none;stroke-width:1" />
    <path
       id="path69"
       inkscape:connector-curvature="0"
       visibility="visible"
       d="m 26,26.25 c -0.04122,0.242314 -0.05201,0.489963 0,0.75 l 0,-0.75 z m 0,4.75 0,1 44,0 c 0,-0.347026 -0.07394,-0.679355 -0.15625,-1 L 26,31 Z M 44.5,41 C 43.669,41 43,41.669 43,42.5 l 0,1 C 43,42.669 43.669,42 44.5,42 l 15,0 c 0.831,0 1.5,0.669 1.5,1.5 l 0,-1 C 61,41.669 60.331,41 59.5,41 l -15,0 z M 24,61 l 0,1 c 0,2.216 1.784,4 4,4 l 9,0 0,-1 -9,0 c -2.216,0 -4,-1.784 -4,-4 z m 48,0 c 0,2.216 -1.784,4 -4,4 l -1,0 0,1 1,0 c 2.216,0 4,-1.784 4,-4 l 0,-1 z m -35,8 0,1 c 0,2.216 1.784,4 4,4 l 22,0 c 2.216,0 4,-1.784 4,-4 l 0,-1 c 0,2.216 -1.784,4 -4,4 l -22,0 c -2.216,0 -4,-1.784 -4,-4 z"
       style="color:black;visibility:visible;opacity:0.15;fill:black;fill-opacity:1;fill-rule:nonzero;stroke:none;stroke-width:1" />
  </g>
</svg>
