<?xml version="1.0" encoding="UTF-8" standalone="no"?>
<svg
   xmlns:dc="http://purl.org/dc/elements/1.1/"
   xmlns:cc="http://creativecommons.org/ns#"
   xmlns:rdf="http://www.w3.org/1999/02/22-rdf-syntax-ns#"
   xmlns:svg="http://www.w3.org/2000/svg"
   xmlns="http://www.w3.org/2000/svg"
   xmlns:xlink="http://www.w3.org/1999/xlink"
   xmlns:sodipodi="http://sodipodi.sourceforge.net/DTD/sodipodi-0.dtd"
   xmlns:inkscape="http://www.inkscape.org/namespaces/inkscape"
   height="96"
   width="96"
   id="svg2"
   version="1.1"
   inkscape:version="0.91 r13725"
   sodipodi:docname="document-revert.svg">
  <metadata
     id="metadata68">
    <rdf:RDF>
      <cc:Work
         rdf:about="">
        <dc:format>image/svg+xml</dc:format>
        <dc:type
           rdf:resource="http://purl.org/dc/dcmitype/StillImage" />
      </cc:Work>
    </rdf:RDF>
  </metadata>
  <sodipodi:namedview
     pagecolor="#ffffff"
     bordercolor="#666666"
     borderopacity="1"
     objecttolerance="10"
     gridtolerance="10"
     guidetolerance="10"
     inkscape:pageopacity="0"
     inkscape:pageshadow="2"
     inkscape:window-width="760"
     inkscape:window-height="480"
     id="namedview66"
     showgrid="false"
     inkscape:zoom="2.4583333"
     inkscape:cx="98.033893"
     inkscape:cy="80.542372"
     inkscape:window-x="604"
     inkscape:window-y="49"
     inkscape:window-maximized="0"
     inkscape:current-layer="svg2" />
  <defs
     id="defs4">
    <linearGradient
       x2="0"
       y1="92.54"
       y2="7.02"
       gradientUnits="userSpaceOnUse"
       id="ButtonShadow-0"
       gradientTransform="matrix(1.0059 0 0 0.99417 100 0)">
      <stop
         stop-color="#000000"
         stop-opacity="1"
         id="stop7" />
      <stop
         stop-color="#000000"
         stop-opacity="0.588"
         offset="1"
         id="stop9" />
    </linearGradient>
    <linearGradient
       x2="0"
       xlink:href="#ButtonShadow-0"
       y1="6.132"
       y2="90.24"
       gradientUnits="userSpaceOnUse"
       id="linearGradient3780"
       gradientTransform="matrix(1.02381 0 0 -1.0119 -1.143 98.07)" />
    <linearGradient
       x2="0"
       xlink:href="#ButtonShadow-0"
       y1="6.132"
       y2="90.24"
       gradientUnits="userSpaceOnUse"
       id="linearGradient3721"
       gradientTransform="matrix(1 0 0 -1 0 97)" />
    <radialGradient
       cy="90.17"
       r="42"
       gradientUnits="userSpaceOnUse"
       id="radialGradient3619-3"
       cx="48"
       gradientTransform="matrix(1.15731 0 0 0.99591 -7.551 0.197)">
      <stop
         stop-color="#ffffff"
         stop-opacity="1"
         id="stop14" />
      <stop
         stop-color="#ffffff"
         stop-opacity="0"
         offset="1"
         id="stop16" />
    </radialGradient>
    <linearGradient
       x2="0"
       y1="20"
       y2="68"
       gradientUnits="userSpaceOnUse"
       id="linearGradient3131"
       gradientTransform="translate(-4,2)">
      <stop
         stop-color="#1a1a1a"
         stop-opacity="1"
         id="stop19" />
      <stop
         stop-color="#4d4d4d"
         stop-opacity="1"
         offset="1"
         id="stop21" />
    </linearGradient>
    <rect
       x="6"
       rx="6"
       y="6"
       fill="#000000"
       fill-opacity="1"
       stroke="none"
       fill-rule="nonzero"
       height="84"
       id="SVGCleanerId_0"
       opacity="0.6"
       width="84" />
  </defs>
  <g
     id="g3440"
     transform="matrix(1.5257645,0,0,1.5257645,-28.257842,-23.858711)">
    <path
       d="m 67.625,21 c -1.552347,0.199958 -2.090212,1.867226 -1.875,3.222629 -0.03765,6.061637 0.07853,12.127778 -0.06423,18.186356 0.469702,2.111011 -2.1636,2.868025 -1.498273,0.526884 -0.0192,-4.337866 0.03874,-8.677702 -0.02957,-13.014314 -0.246531,-3.28032 -3.549805,-5.521055 -6.69306,-5.109055 -9.51419,0.0196 -19.030384,-0.03928 -28.543316,0.02957 -3.28032,0.246531 -5.521055,3.549805 -5.109055,6.69306 0.01964,12.180855 -0.03932,24.363718 0.02957,36.543316 0.246531,3.28032 3.549805,5.521055 6.69306,5.109055 9.51419,-0.0196 19.030384,0.03928 28.543316,-0.02957 3.28032,-0.246531 5.521055,-3.549805 5.109055,-6.69306 0,-3.748707 0,-7.497414 0,-11.246121 5.811248,0.504302 11.48063,-4.135301 11.942133,-9.987259 C 76.261153,37.887067 76.151498,30.534963 76.1875,23.1875 76.206816,21.5836 74.531093,20.754347 73.112747,21 71.283498,21 69.454249,21 67.625,21 Z M 34.1875,35.1875 c 6.541667,0 13.083333,0 19.625,0 0,3.197917 0,6.395833 0,9.59375 -1.032067,0.137732 -1.873754,0.08508 -1.5,-1.183005 C 52.23845,41.81888 52.466799,40.007812 52.1875,38.25 51.649188,36.631195 49.385771,36.355848 48.314569,37.613433 43.673849,41.248447 38.987563,44.835168 34.375,48.5 c -0.424334,0.376841 -0.07241,-1.563361 -0.1875,-2.116009 0,-3.732164 0,-7.464327 0,-11.196491 z m 0,16.0625 c 1.673457,1.616565 3.68232,2.913879 5.485573,4.406906 3.068958,2.382911 6.124869,4.783913 9.201927,7.155594 -4.895833,0 -9.791667,0 -14.6875,0 0,-3.854167 0,-7.708333 0,-11.5625 z m 18.125,3.96875 c 1.032067,-0.137732 1.873754,-0.08508 1.5,1.183005 0,2.136915 0,4.27383 0,6.410745 -0.593071,-0.111337 -2.549144,0.231659 -2.21875,-0.1875 1.208444,-1.195748 0.54918,-3.064187 0.71875,-4.582512 0,-0.941246 0,-1.882492 0,-2.823738 z"
       visibility="visible"
       inkscape:connector-curvature="0"
       id="path42"
       style="color:black;visibility:visible;opacity:0.1;fill:black;fill-opacity:1;fill-rule:nonzero;stroke:none;stroke-width:2" />
    <path
       d="m 67.71875,22.03125 a 1.1699878,1.1699878 0 0 0 -0.9375,1.15625 l 0,17.71875 c 0,2.418155 -0.298176,3.59764 -0.78125,4.09375 -0.399877,0.410668 -1.449331,0.664562 -3.09375,0.75 a 1.1699878,1.1699878 0 0 0 0.25,-0.75 l 0,-14.5 c 0,-2.566873 -2.089377,-4.65625 -4.65625,-4.65625 l -29,0 c -2.566873,0 -4.65625,2.089377 -4.65625,4.65625 l 0,37 c 0,2.566873 2.089377,4.65625 4.65625,4.65625 l 29,0 c 2.566873,0 4.65625,-2.089377 4.65625,-4.65625 l 0,-12.5 a 1.1699878,1.1699878 0 0 0 -0.3125,-0.8125 l 2.1875,0 c 5.586964,0 10.125,-4.501879 10.125,-10.09375 l 0,-20.90625 A 1.1699878,1.1699878 0 0 0 74,22.03125 l -6.0625,0 a 1.1699878,1.1699878 0 0 0 -0.21875,0 z M 34,34.15625 l 20,0 c 0.480127,0 0.84375,0.363623 0.84375,0.84375 l 0,10 a 1.1699878,1.1699878 0 0 0 0.3125,0.8125 l -3.875,0 0,-6.8125 a 1.1699878,1.1699878 0 0 0 -1.875,-0.9375 l -14.125,11 a 1.1699878,1.1699878 0 0 0 0,1.875 l 14.125,11 A 1.1699878,1.1699878 0 0 0 51.28125,61 l 0,-6.8125 3.875,0 A 1.1699878,1.1699878 0 0 0 54.84375,55 l 0,8 c 0,0.480127 -0.363623,0.84375 -0.84375,0.84375 l -20,0 c -0.480127,0 -0.84375,-0.363623 -0.84375,-0.84375 l 0,-28 c 0,-0.480127 0.363623,-0.84375 0.84375,-0.84375 z"
       visibility="visible"
       id="path44"
       inkscape:connector-curvature="0"
       style="color:black;visibility:visible;opacity:0.15;fill:black;fill-opacity:1;fill-rule:nonzero;stroke:none;stroke-width:2" />
    <path
       d="m 67.9375,23.1875 0,17.71875 c 0,4.989397 -0.979358,6.0625 -5.96875,6.0625 l -11.84375,0 L 50.125,39 36,50 l 14.125,11 0,-7.96875 14.90625,0 C 69.993396,53.03125 74,49.055892 74,44.09375 l 0,-20.90625 -6.0625,0 z M 29.5,27 C 27.561,27 26,28.561 26,30.5 l 0,37 c 0,1.939 1.561,3.5 3.5,3.5 l 29,0 c 1.939,0 3.5,-1.561 3.5,-3.5 l 0,-12.5 -6,0 0,8 c 0,1.108 -0.892,2 -2,2 l -20,0 c -1.108,0 -2,-0.892 -2,-2 l 0,-28 c 0,-1.108 0.892,-2 2,-2 l 20,0 c 1.108,0 2,0.892 2,2 l 0,10 6,0 0,-14.5 C 62,28.561 60.439,27 58.5,27 l -29,0 z"
       visibility="visible"
       inkscape:connector-curvature="0"
       id="path46"
       style="color:black;visibility:visible;opacity:0.3;fill:black;fill-opacity:1;fill-rule:nonzero;stroke:none;stroke-width:2" />
    <path
       d="m 67.9375,22.1875 0,17.71875 c 0,4.989397 -0.979358,6.0625 -5.96875,6.0625 l -11.84375,0 L 50.125,38 36,49 l 14.125,11 0,-7.96875 14.90625,0 C 69.993396,52.03125 74,48.055892 74,43.09375 l 0,-20.90625 -6.0625,0 z M 29.5,26 C 27.561,26 26,27.561 26,29.5 l 0,37 c 0,1.939 1.561,3.5 3.5,3.5 l 29,0 c 1.939,0 3.5,-1.561 3.5,-3.5 l 0,-12.5 -6,0 0,8 c 0,1.108 -0.892,2 -2,2 l -20,0 c -1.108,0 -2,-0.892 -2,-2 l 0,-28 c 0,-1.108 0.892,-2 2,-2 l 20,0 c 1.108,0 2,0.892 2,2 l 0,10 6,0 0,-14.5 C 62,27.561 60.439,26 58.5,26 l -29,0 z"
       visibility="visible"
       inkscape:connector-curvature="0"
       id="path60"
       style="color:black;visibility:visible;fill:url(#linearGradient3131);fill-opacity:1;fill-rule:nonzero;stroke:none;stroke-width:2" />
    <path
       d="m 67.9375,22.1875 0,1 6.0625,0 0,-1 -6.0625,0 z M 29.5,26 C 27.561,26 26,27.561 26,29.5 l 0,1 C 26,28.561 27.561,27 29.5,27 l 29,0 c 1.939,0 3.5,1.561 3.5,3.5 l 0,-1 C 62,27.561 60.439,26 58.5,26 l -29,0 z M 50.125,38 36,49 36.65625,49.5 50.125,39 l 0,-1 z m 17.8125,1.90625 c 0,4.989397 -0.979358,6.0625 -5.96875,6.0625 l -11.84375,0 0,1 11.84375,0 c 4.989392,0 5.96875,-1.073103 5.96875,-6.0625 l 0,-1 z M 56,54 l 0,1 6,0 0,-1 -6,0 z m -24,8 0,1 c 0,1.108 0.892,2 2,2 l 20,0 c 1.108,0 2,-0.892 2,-2 l 0,-1 c 0,1.108 -0.892,2 -2,2 l -20,0 c -1.108,0 -2,-0.892 -2,-2 z"
       visibility="visible"
       inkscape:connector-curvature="0"
       id="path62"
       style="color:black;visibility:visible;opacity:0.75;fill:white;fill-opacity:1;fill-rule:nonzero;stroke:none;stroke-width:2" />
    <path
       d="m 34,31 c -1.108,0 -2,0.892 -2,2 l 0,1 c 0,-1.108 0.892,-2 2,-2 l 20,0 c 1.108,0 2,0.892 2,2 l 0,-1 c 0,-1.108 -0.892,-2 -2,-2 l -20,0 z m 40,11.09375 c 0,4.962142 -4.006604,8.9375 -8.96875,8.9375 l -14.90625,0 0,1 14.90625,0 C 69.993396,52.03125 74,48.055892 74,43.09375 l 0,-1 z M 56,43 l 0,1 6,0 0,-1 -6,0 z M 36.65625,48.5 36,49 l 14.125,11 0,-1 L 36.65625,48.5 Z M 26,65.5 l 0,1 c 0,1.939 1.561,3.5 3.5,3.5 l 29,0 c 1.939,0 3.5,-1.561 3.5,-3.5 l 0,-1 c 0,1.939 -1.561,3.5 -3.5,3.5 l -29,0 C 27.561,69 26,67.439 26,65.5 Z"
       visibility="visible"
       inkscape:connector-curvature="0"
       id="path64"
       style="color:black;visibility:visible;opacity:0.15;fill:black;fill-opacity:1;fill-rule:nonzero;stroke:none;stroke-width:2" />
  </g>
</svg>
