<?xml version="1.0" encoding="UTF-8" standalone="no"?>
<svg
   xmlns:dc="http://purl.org/dc/elements/1.1/"
   xmlns:cc="http://creativecommons.org/ns#"
   xmlns:rdf="http://www.w3.org/1999/02/22-rdf-syntax-ns#"
   xmlns:svg="http://www.w3.org/2000/svg"
   xmlns="http://www.w3.org/2000/svg"
   xmlns:xlink="http://www.w3.org/1999/xlink"
   xmlns:sodipodi="http://sodipodi.sourceforge.net/DTD/sodipodi-0.dtd"
   xmlns:inkscape="http://www.inkscape.org/namespaces/inkscape"
   height="96"
   width="96"
   id="svg2"
   version="1.1"
   inkscape:version="0.91 r13725"
   sodipodi:docname="document-send.svg">
  <metadata
     id="metadata68">
    <rdf:RDF>
      <cc:Work
         rdf:about="">
        <dc:format>image/svg+xml</dc:format>
        <dc:type
           rdf:resource="http://purl.org/dc/dcmitype/StillImage" />
      </cc:Work>
    </rdf:RDF>
  </metadata>
  <sodipodi:namedview
     pagecolor="#ffffff"
     bordercolor="#666666"
     borderopacity="1"
     objecttolerance="10"
     gridtolerance="10"
     guidetolerance="10"
     inkscape:pageopacity="0"
     inkscape:pageshadow="2"
     inkscape:window-width="760"
     inkscape:window-height="480"
     id="namedview66"
     showgrid="false"
     inkscape:zoom="2.4583333"
     inkscape:cx="163.75554"
     inkscape:cy="47.999999"
     inkscape:window-x="134"
     inkscape:window-y="159"
     inkscape:window-maximized="0"
     inkscape:current-layer="svg2" />
  <defs
     id="defs4">
    <linearGradient
       x2="0"
       y1="92.54"
       y2="7.02"
       gradientUnits="userSpaceOnUse"
       id="ButtonShadow-0"
       gradientTransform="matrix(1.0059 0 0 0.99417 100 0)">
      <stop
         stop-color="#000000"
         stop-opacity="1"
         id="stop7" />
      <stop
         stop-color="#000000"
         stop-opacity="0.588"
         offset="1"
         id="stop9" />
    </linearGradient>
    <linearGradient
       x2="0"
       xlink:href="#ButtonShadow-0"
       y1="6.132"
       y2="90.24"
       gradientUnits="userSpaceOnUse"
       id="linearGradient3780"
       gradientTransform="matrix(1.02381 0 0 -1.0119 -1.143 98.07)" />
    <linearGradient
       x2="0"
       xlink:href="#ButtonShadow-0"
       y1="6.132"
       y2="90.24"
       gradientUnits="userSpaceOnUse"
       id="linearGradient3721"
       gradientTransform="matrix(1 0 0 -1 0 97)" />
    <radialGradient
       cy="90.17"
       r="42"
       gradientUnits="userSpaceOnUse"
       id="radialGradient3619-3"
       cx="48"
       gradientTransform="matrix(1.15731 0 0 0.99591 -7.551 0.197)">
      <stop
         stop-color="#ffffff"
         stop-opacity="1"
         id="stop14" />
      <stop
         stop-color="#ffffff"
         stop-opacity="0"
         offset="1"
         id="stop16" />
    </radialGradient>
    <linearGradient
       x2="0"
       y1="24"
       y2="76"
       gradientUnits="userSpaceOnUse"
       id="linearGradient3100"
       gradientTransform="translate(8,2)">
      <stop
         stop-color="#1a1a1a"
         stop-opacity="1"
         id="stop19" />
      <stop
         stop-color="#4d4d4d"
         stop-opacity="1"
         offset="1"
         id="stop21" />
    </linearGradient>
    <rect
       x="6"
       rx="6"
       y="6"
       fill="#000000"
       fill-opacity="1"
       stroke="none"
       fill-rule="nonzero"
       height="84"
       id="SVGCleanerId_0"
       opacity="0.6"
       width="84" />
  </defs>
  <g
     id="g3369"
     transform="matrix(1.3319438,0,0,1.3319438,-13.269352,-17.265246)">
    <path
       d="m 41.5,24.96875 c -3.030762,0 -5.53125,2.500488 -5.53125,5.53125 l 0,8.09375 c 1.02e-4,5.11e-4 -0.0314,-0.187999 -0.03125,-0.1875 1.52e-4,4.99e-4 -0.0627,-0.187981 -0.0625,-0.1875 2e-4,4.81e-4 -0.094,-0.156709 -0.09375,-0.15625 2.46e-4,4.59e-4 -0.09404,-0.187933 -0.09375,-0.1875 2.9e-4,4.33e-4 -0.125331,-0.156653 -0.125,-0.15625 3.31e-4,4.03e-4 -0.125368,-0.156618 -0.125,-0.15625 3.68e-4,3.68e-4 -0.156653,-0.125331 -0.15625,-0.125 4.03e-4,3.31e-4 -0.156683,-0.12529 -0.15625,-0.125 4.33e-4,2.9e-4 -0.187959,-0.094 -0.1875,-0.09375 4.59e-4,2.46e-4 -0.156731,-0.09395 -0.15625,-0.09375 4.81e-4,2e-4 -0.187999,-0.06265 -0.1875,-0.0625 4.99e-4,1.52e-4 -0.188011,-0.03135 -0.1875,-0.03125 5.11e-4,1.02e-4 -0.219269,-0.0313 -0.21875,-0.03125 5.19e-4,5.2e-5 -0.188021,-0.03125 -0.1875,-0.03125 l -5.9375,0 c 1.42e-4,7e-6 -0.04043,-3e-6 -0.0625,0 -0.01104,10e-7 -0.01799,0 -0.03125,0 2.84e-4,1.3e-5 -0.07197,2e-6 -0.125,0 -0.03977,-10e-7 -0.09396,1e-5 -0.09375,0 A 1.0176264,1.0176264 0 0 0 27.625,37 c 4.56e-4,-8.8e-5 -0.187947,0.03138 -0.1875,0.03125 4.47e-4,-1.27e-4 -0.156684,0.06267 -0.15625,0.0625 4.34e-4,-1.66e-4 -0.156668,0.0627 -0.15625,0.0625 4.18e-4,-2.03e-4 -0.156649,0.09399 -0.15625,0.09375 3.99e-4,-2.38e-4 -0.156626,0.09402 -0.15625,0.09375 3.76e-4,-2.72e-4 -0.125351,0.125304 -0.125,0.125 3.51e-4,-3.04e-4 -0.125323,0.125334 -0.125,0.125 3.23e-4,-3.34e-4 -0.125293,0.125361 -0.125,0.125 2.93e-4,-3.61e-4 -0.09401,0.125385 -0.09375,0.125 2.6e-4,-3.85e-4 -0.09398,0.156656 -0.09375,0.15625 2.26e-4,-4.06e-4 -0.09394,0.156674 -0.09375,0.15625 1.9e-4,-4.24e-4 -0.06265,0.156689 -0.0625,0.15625 1.52e-4,-4.39e-4 -0.06261,0.187951 -0.0625,0.1875 1.13e-4,-4.51e-4 -0.03132,0.156709 -0.03125,0.15625 7.3e-5,-4.59e-4 -3.3e-5,0.187963 0,0.1875 2.8e-5,-3.88e-4 -0.03015,0.116202 -0.03125,0.15625 -2.14e-4,0.0078 1e-6,0.03133 0,0.03125 l 0,3.96875 c -1e-6,-5.21e-4 0.0313,0.188019 0.03125,0.1875 -5.2e-5,-5.19e-4 0.03135,0.219261 0.03125,0.21875 -1.02e-4,-5.11e-4 0.0314,0.187999 0.03125,0.1875 -1.52e-4,-4.99e-4 0.0627,0.187981 0.0625,0.1875 -2e-4,-4.81e-4 0.094,0.156709 0.09375,0.15625 -2.46e-4,-4.59e-4 0.09404,0.187933 0.09375,0.1875 -2.9e-4,-4.33e-4 0.125331,0.156653 0.125,0.15625 -3.31e-4,-4.03e-4 0.125368,0.156618 0.125,0.15625 -3.68e-4,-3.68e-4 0.156653,0.125331 0.15625,0.125 -4.03e-4,-3.31e-4 0.156683,0.12529 0.15625,0.125 -4.33e-4,-2.9e-4 0.187959,0.094 0.1875,0.09375 -4.59e-4,-2.46e-4 0.156731,0.09395 0.15625,0.09375 -4.81e-4,-2e-4 0.187999,0.06265 0.1875,0.0625 -4.99e-4,-1.52e-4 0.188011,0.03135 0.1875,0.03125 -5.11e-4,-1.02e-4 0.219269,0.0313 0.21875,0.03125 -5.19e-4,-5.2e-5 0.188021,0.03125 0.1875,0.03125 l 6,0 c -5.21e-4,10e-7 0.188019,-0.0313 0.1875,-0.03125 -5.19e-4,5.2e-5 0.219261,-0.03135 0.21875,-0.03125 -5.11e-4,1.02e-4 0.187999,-0.0314 0.1875,-0.03125 -4.99e-4,1.52e-4 0.187981,-0.0627 0.1875,-0.0625 -4.81e-4,2e-4 0.156709,-0.094 0.15625,-0.09375 -4.59e-4,2.46e-4 0.187933,-0.09404 0.1875,-0.09375 -4.33e-4,2.9e-4 0.156653,-0.125331 0.15625,-0.125 -4.03e-4,3.31e-4 0.156618,-0.125368 0.15625,-0.125 -3.68e-4,3.68e-4 0.125331,-0.156653 0.125,-0.15625 -3.31e-4,4.03e-4 0.12529,-0.156683 0.125,-0.15625 -2.9e-4,4.33e-4 0.094,-0.187959 0.09375,-0.1875 -2.46e-4,4.59e-4 0.09395,-0.156731 0.09375,-0.15625 -2e-4,4.81e-4 0.06265,-0.187999 0.0625,-0.1875 -1.52e-4,4.99e-4 0.03135,-0.188011 0.03125,-0.1875 l 0,5.1875 c 1.02e-4,5.11e-4 -0.0314,-0.187999 -0.03125,-0.1875 1.52e-4,4.99e-4 -0.0627,-0.187981 -0.0625,-0.1875 2e-4,4.81e-4 -0.094,-0.156709 -0.09375,-0.15625 2.46e-4,4.59e-4 -0.09404,-0.187933 -0.09375,-0.1875 2.9e-4,4.33e-4 -0.125331,-0.156653 -0.125,-0.15625 3.31e-4,4.03e-4 -0.125368,-0.156618 -0.125,-0.15625 3.68e-4,3.68e-4 -0.156653,-0.125331 -0.15625,-0.125 4.03e-4,3.31e-4 -0.156683,-0.12529 -0.15625,-0.125 4.33e-4,2.9e-4 -0.187959,-0.094 -0.1875,-0.09375 4.59e-4,2.46e-4 -0.156731,-0.09395 -0.15625,-0.09375 4.81e-4,2e-4 -0.187999,-0.06265 -0.1875,-0.0625 4.99e-4,1.52e-4 -0.188011,-0.03135 -0.1875,-0.03125 5.11e-4,1.02e-4 -0.219269,-0.0313 -0.21875,-0.03125 5.19e-4,5.2e-5 -0.188021,-0.03125 -0.1875,-0.03125 l -15.9375,0 c 1.42e-4,7e-6 -0.04043,-3e-6 -0.0625,0 -0.01104,10e-7 -0.01799,0 -0.03125,0 2.84e-4,1.3e-5 -0.07197,2e-6 -0.125,0 -0.03977,-10e-7 -0.09396,1e-5 -0.09375,0 A 1.0176264,1.0176264 0 0 0 17.625,47 c 4.56e-4,-8.8e-5 -0.187947,0.03138 -0.1875,0.03125 4.47e-4,-1.27e-4 -0.156684,0.06267 -0.15625,0.0625 4.34e-4,-1.66e-4 -0.156668,0.0627 -0.15625,0.0625 4.18e-4,-2.03e-4 -0.156649,0.09399 -0.15625,0.09375 3.99e-4,-2.38e-4 -0.156626,0.09402 -0.15625,0.09375 3.76e-4,-2.72e-4 -0.125351,0.125304 -0.125,0.125 3.51e-4,-3.04e-4 -0.125323,0.125334 -0.125,0.125 3.23e-4,-3.34e-4 -0.125293,0.125361 -0.125,0.125 2.93e-4,-3.61e-4 -0.09401,0.125385 -0.09375,0.125 2.6e-4,-3.85e-4 -0.09398,0.156656 -0.09375,0.15625 2.26e-4,-4.06e-4 -0.09394,0.156674 -0.09375,0.15625 1.9e-4,-4.24e-4 -0.06265,0.156689 -0.0625,0.15625 1.52e-4,-4.39e-4 -0.06261,0.187951 -0.0625,0.1875 1.13e-4,-4.51e-4 -0.03132,0.156709 -0.03125,0.15625 7.3e-5,-4.59e-4 -3.3e-5,0.187963 0,0.1875 2.8e-5,-3.88e-4 -0.03015,0.116202 -0.03125,0.15625 -2.14e-4,0.0078 10e-7,0.03133 0,0.03125 l 0,3.96875 c -10e-7,-5.21e-4 0.0313,0.188019 0.03125,0.1875 -5.2e-5,-5.19e-4 0.03135,0.219261 0.03125,0.21875 -1.02e-4,-5.11e-4 0.0314,0.187999 0.03125,0.1875 -1.52e-4,-4.99e-4 0.0627,0.187981 0.0625,0.1875 -2e-4,-4.81e-4 0.094,0.156709 0.09375,0.15625 -2.46e-4,-4.59e-4 0.09404,0.187933 0.09375,0.1875 -2.9e-4,-4.33e-4 0.125331,0.156653 0.125,0.15625 -3.31e-4,-4.03e-4 0.125368,0.156618 0.125,0.15625 -3.68e-4,-3.68e-4 0.156653,0.125331 0.15625,0.125 -4.03e-4,-3.31e-4 0.156683,0.12529 0.15625,0.125 -4.33e-4,-2.9e-4 0.187959,0.094 0.1875,0.09375 -4.59e-4,-2.46e-4 0.156731,0.09395 0.15625,0.09375 -4.81e-4,-2e-4 0.187999,0.06265 0.1875,0.0625 -4.99e-4,-1.52e-4 0.188011,0.03135 0.1875,0.03125 -5.11e-4,-1.02e-4 0.219269,0.0313 0.21875,0.03125 -5.19e-4,-5.2e-5 0.188021,0.03125 0.1875,0.03125 l 16,0 c -5.21e-4,10e-7 0.188019,-0.0313 0.1875,-0.03125 -5.19e-4,5.2e-5 0.219261,-0.03135 0.21875,-0.03125 -5.11e-4,1.02e-4 0.187999,-0.0314 0.1875,-0.03125 -4.99e-4,1.52e-4 0.187981,-0.0627 0.1875,-0.0625 -4.81e-4,2e-4 0.156709,-0.094 0.15625,-0.09375 -4.59e-4,2.46e-4 0.187933,-0.09404 0.1875,-0.09375 -4.33e-4,2.9e-4 0.156653,-0.125331 0.15625,-0.125 -4.03e-4,3.31e-4 0.156618,-0.125368 0.15625,-0.125 -3.68e-4,3.68e-4 0.125331,-0.156653 0.125,-0.15625 -3.31e-4,4.03e-4 0.12529,-0.156683 0.125,-0.15625 -2.9e-4,4.33e-4 0.094,-0.187959 0.09375,-0.1875 -2.46e-4,4.59e-4 0.09395,-0.156731 0.09375,-0.15625 -2e-4,4.81e-4 0.06265,-0.187999 0.0625,-0.1875 -1.52e-4,4.99e-4 0.03135,-0.188011 0.03125,-0.1875 l 0,5.1875 c 1.02e-4,5.11e-4 -0.0314,-0.187999 -0.03125,-0.1875 1.52e-4,4.99e-4 -0.0627,-0.187981 -0.0625,-0.1875 2e-4,4.81e-4 -0.094,-0.156709 -0.09375,-0.15625 2.46e-4,4.59e-4 -0.09404,-0.187933 -0.09375,-0.1875 2.9e-4,4.33e-4 -0.125331,-0.156653 -0.125,-0.15625 3.31e-4,4.03e-4 -0.125368,-0.156618 -0.125,-0.15625 3.68e-4,3.68e-4 -0.156653,-0.125331 -0.15625,-0.125 4.03e-4,3.31e-4 -0.156683,-0.12529 -0.15625,-0.125 4.33e-4,2.9e-4 -0.187959,-0.094 -0.1875,-0.09375 4.59e-4,2.46e-4 -0.156731,-0.09395 -0.15625,-0.09375 4.81e-4,2e-4 -0.187999,-0.06265 -0.1875,-0.0625 4.99e-4,1.52e-4 -0.188011,-0.03135 -0.1875,-0.03125 5.11e-4,1.02e-4 -0.219269,-0.0313 -0.21875,-0.03125 5.19e-4,5.2e-5 -0.188021,-0.03125 -0.1875,-0.03125 l -9.9375,0 c 1.42e-4,7e-6 -0.04043,-3e-6 -0.0625,0 -0.01104,10e-7 -0.01799,0 -0.03125,0 2.84e-4,1.3e-5 -0.07197,2e-6 -0.125,0 -0.03977,-10e-7 -0.09396,1e-5 -0.09375,0 A 1.0176264,1.0176264 0 0 0 23.625,57 c 4.56e-4,-8.8e-5 -0.187947,0.03138 -0.1875,0.03125 4.47e-4,-1.27e-4 -0.156684,0.06267 -0.15625,0.0625 4.34e-4,-1.66e-4 -0.156668,0.0627 -0.15625,0.0625 4.18e-4,-2.03e-4 -0.156649,0.09399 -0.15625,0.09375 3.99e-4,-2.38e-4 -0.156626,0.09402 -0.15625,0.09375 3.76e-4,-2.72e-4 -0.125351,0.125304 -0.125,0.125 3.51e-4,-3.04e-4 -0.125323,0.125334 -0.125,0.125 3.23e-4,-3.34e-4 -0.125293,0.125361 -0.125,0.125 2.93e-4,-3.61e-4 -0.09401,0.125385 -0.09375,0.125 2.6e-4,-3.85e-4 -0.09398,0.156656 -0.09375,0.15625 2.26e-4,-4.06e-4 -0.09394,0.156674 -0.09375,0.15625 1.9e-4,-4.24e-4 -0.06265,0.156689 -0.0625,0.15625 1.52e-4,-4.39e-4 -0.06261,0.187951 -0.0625,0.1875 1.13e-4,-4.51e-4 -0.03132,0.156709 -0.03125,0.15625 7.3e-5,-4.59e-4 -3.3e-5,0.187963 0,0.1875 2.8e-5,-3.88e-4 -0.03015,0.116202 -0.03125,0.15625 -2.14e-4,0.0078 1e-6,0.03133 0,0.03125 l 0,3.96875 c -1e-6,-5.21e-4 0.0313,0.188019 0.03125,0.1875 -5.2e-5,-5.19e-4 0.03135,0.219261 0.03125,0.21875 -1.02e-4,-5.11e-4 0.0314,0.187999 0.03125,0.1875 -1.52e-4,-4.99e-4 0.0627,0.187981 0.0625,0.1875 -2e-4,-4.81e-4 0.094,0.156709 0.09375,0.15625 -2.46e-4,-4.59e-4 0.09404,0.187933 0.09375,0.1875 -2.9e-4,-4.33e-4 0.125331,0.156653 0.125,0.15625 -3.31e-4,-4.03e-4 0.125368,0.156618 0.125,0.15625 -3.68e-4,-3.68e-4 0.156653,0.125331 0.15625,0.125 -4.03e-4,-3.31e-4 0.156683,0.12529 0.15625,0.125 -4.33e-4,-2.9e-4 0.187959,0.094 0.1875,0.09375 -4.59e-4,-2.46e-4 0.156731,0.09395 0.15625,0.09375 -4.81e-4,-2e-4 0.187999,0.06265 0.1875,0.0625 -4.99e-4,-1.52e-4 0.188011,0.03135 0.1875,0.03125 -5.11e-4,-1.02e-4 0.219269,0.0313 0.21875,0.03125 -5.19e-4,-5.2e-5 0.188021,0.03125 0.1875,0.03125 l 10,0 c -5.21e-4,10e-7 0.188019,-0.0313 0.1875,-0.03125 -5.19e-4,5.2e-5 0.219261,-0.03135 0.21875,-0.03125 -5.11e-4,1.02e-4 0.187999,-0.0314 0.1875,-0.03125 -4.99e-4,1.52e-4 0.187981,-0.0627 0.1875,-0.0625 -4.81e-4,2e-4 0.156709,-0.094 0.15625,-0.09375 -4.59e-4,2.46e-4 0.187933,-0.09404 0.1875,-0.09375 -4.33e-4,2.9e-4 0.156653,-0.125331 0.15625,-0.125 -4.03e-4,3.31e-4 0.156618,-0.125368 0.15625,-0.125 -3.68e-4,3.68e-4 0.125331,-0.156653 0.125,-0.15625 -3.31e-4,4.03e-4 0.12529,-0.156683 0.125,-0.15625 -2.9e-4,4.33e-4 0.094,-0.187959 0.09375,-0.1875 -2.46e-4,4.59e-4 0.09395,-0.156731 0.09375,-0.15625 -2e-4,4.81e-4 0.06265,-0.187999 0.0625,-0.1875 -1.52e-4,4.99e-4 0.03135,-0.188011 0.03125,-0.1875 l 0,4.09375 c 0,3.030762 2.500488,5.53125 5.53125,5.53125 l 29,0 c 3.030762,0 5.53125,-2.500488 5.53125,-5.53125 l 0,-37 c 0,-3.030762 -2.500488,-5.53125 -5.53125,-5.53125 l -29,0 z m 4.53125,10.0625 19.9375,0 0,27.9375 -19.9375,0 0,-27.9375 z"
       visibility="visible"
       id="path42"
       inkscape:connector-curvature="0"
       style="color:black;visibility:visible;opacity:0.1;fill:black;fill-opacity:1;fill-rule:nonzero;stroke:none;stroke-width:2" />
    <path
       d="M 41.5,26 C 39.023509,26 37,28.023509 37,30.5 l 0,37 c 0,2.476491 2.023509,4.5 4.5,4.5 l 29,0 c 2.476491,0 4.5,-2.023509 4.5,-4.5 l 0,-37 C 75,28.023509 72.976491,26 70.5,26 l -29,0 z m 4.5,8 20,0 c 0.570509,0 1,0.429491 1,1 l 0,28 c 0,0.570509 -0.429491,1 -1,1 l -20,0 c -0.570509,0 -1,-0.429491 -1,-1 l 0,-28 c 0,-0.570509 0.429491,-1 1,-1 z M 27.90625,38 A 1.0015684,1.0015684 0 0 0 27,39 l 0,4 a 1.0015684,1.0015684 0 0 0 1,1 l 6,0 a 1.0015684,1.0015684 0 0 0 1,-1 l 0,-4 a 1.0015684,1.0015684 0 0 0 -1,-1 l -6,0 a 1.0015684,1.0015684 0 0 0 -0.09375,0 z m -10,10 A 1.0015684,1.0015684 0 0 0 17,49 l 0,4 a 1.0015684,1.0015684 0 0 0 1,1 l 16,0 a 1.0015684,1.0015684 0 0 0 1,-1 l 0,-4 a 1.0015684,1.0015684 0 0 0 -1,-1 l -16,0 a 1.0015684,1.0015684 0 0 0 -0.09375,0 z m 6,10 A 1.0015684,1.0015684 0 0 0 23,59 l 0,4 a 1.0015684,1.0015684 0 0 0 1,1 l 10,0 a 1.0015684,1.0015684 0 0 0 1,-1 l 0,-4 a 1.0015684,1.0015684 0 0 0 -1,-1 l -10,0 a 1.0015684,1.0015684 0 0 0 -0.09375,0 z"
       visibility="visible"
       id="path44"
       inkscape:connector-curvature="0"
       style="color:black;visibility:visible;opacity:0.15;fill:black;fill-opacity:1;fill-rule:nonzero;stroke:none;stroke-width:2" />
    <path
       d="M 41.5,27 C 39.561,27 38,28.561 38,30.5 l 0,37 c 0,1.939 1.561,3.5 3.5,3.5 l 29,0 c 1.939,0 3.5,-1.561 3.5,-3.5 l 0,-37 C 74,28.561 72.439,27 70.5,27 Z m 4.5,6 20,0 c 1.108,0 2,0.892 2,2 l 0,28 c 0,1.108 -0.892,2 -2,2 l -20,0 c -1.108,0 -2,-0.892 -2,-2 l 0,-28 c 0,-1.108 0.892,-2 2,-2 z m -18,6 0,4 6,0 0,-4 z m -10,10 0,4 16,0 0,-4 z m 6,10 0,4 10,0 0,-4 z"
       visibility="visible"
       inkscape:connector-curvature="0"
       id="path46"
       style="color:black;visibility:visible;opacity:0.3;fill:black;fill-opacity:1;fill-rule:nonzero;stroke:none;stroke-width:2" />
    <path
       d="M 41.5,26 C 39.561,26 38,27.561 38,29.5 l 0,37 c 0,1.939 1.561,3.5 3.5,3.5 l 29,0 c 1.939,0 3.5,-1.561 3.5,-3.5 l 0,-37 C 74,27.561 72.439,26 70.5,26 Z m 4.5,6 20,0 c 1.108,0 2,0.892 2,2 l 0,28 c 0,1.108 -0.892,2 -2,2 l -20,0 c -1.108,0 -2,-0.892 -2,-2 l 0,-28 c 0,-1.108 0.892,-2 2,-2 z m -18,6 0,4 6,0 0,-4 z m -10,10 0,4 16,0 0,-4 z m 6,10 0,4 10,0 0,-4 z"
       visibility="visible"
       inkscape:connector-curvature="0"
       id="path60"
       style="color:black;visibility:visible;fill:url(#linearGradient3100);fill-opacity:1;fill-rule:nonzero;stroke:none;stroke-width:2" />
    <path
       d="M 41.5,26 C 39.561,26 38,27.561 38,29.5 l 0,1 C 38,28.561 39.561,27 41.5,27 l 29,0 c 1.939,0 3.5,1.561 3.5,3.5 l 0,-1 C 74,27.561 72.439,26 70.5,26 l -29,0 z M 28,38 l 0,1 6,0 0,-1 -6,0 z m -10,10 0,1 16,0 0,-1 -16,0 z m 6,10 0,1 10,0 0,-1 -10,0 z m 20,4 0,1 c 0,1.108 0.892,2 2,2 l 20,0 c 1.108,0 2,-0.892 2,-2 l 0,-1 c 0,1.108 -0.892,2 -2,2 l -20,0 c -1.108,0 -2,-0.892 -2,-2 z"
       visibility="visible"
       inkscape:connector-curvature="0"
       id="path62"
       style="color:black;visibility:visible;opacity:0.75;fill:white;fill-opacity:1;fill-rule:nonzero;stroke:none;stroke-width:2" />
    <path
       d="m 46,31 c -1.108,0 -2,0.892 -2,2 l 0,1 c 0,-1.108 0.892,-2 2,-2 l 20,0 c 1.108,0 2,0.892 2,2 l 0,-1 c 0,-1.108 -0.892,-2 -2,-2 l -20,0 z m -18,10 0,1 6,0 0,-1 -6,0 z m -10,10 0,1 16,0 0,-1 -16,0 z m 6,10 0,1 10,0 0,-1 -10,0 z m 14,4.5 0,1 c 0,1.939 1.561,3.5 3.5,3.5 l 29,0 c 1.939,0 3.5,-1.561 3.5,-3.5 l 0,-1 c 0,1.939 -1.561,3.5 -3.5,3.5 l -29,0 C 39.561,69 38,67.439 38,65.5 Z"
       visibility="visible"
       inkscape:connector-curvature="0"
       id="path64"
       style="color:black;visibility:visible;opacity:0.15;fill:black;fill-opacity:1;fill-rule:nonzero;stroke:none;stroke-width:2" />
  </g>
</svg>
