<?xml version="1.0" encoding="UTF-8" standalone="no"?>
<svg
   xmlns:dc="http://purl.org/dc/elements/1.1/"
   xmlns:cc="http://creativecommons.org/ns#"
   xmlns:rdf="http://www.w3.org/1999/02/22-rdf-syntax-ns#"
   xmlns:svg="http://www.w3.org/2000/svg"
   xmlns="http://www.w3.org/2000/svg"
   xmlns:xlink="http://www.w3.org/1999/xlink"
   xmlns:sodipodi="http://sodipodi.sourceforge.net/DTD/sodipodi-0.dtd"
   xmlns:inkscape="http://www.inkscape.org/namespaces/inkscape"
   display="inline"
   height="96"
   width="96"
   id="svg2"
   version="1.1"
   inkscape:version="0.91 r13725"
   sodipodi:docname="document-properties.svg">
  <metadata
     id="metadata51">
    <rdf:RDF>
      <cc:Work
         rdf:about="">
        <dc:format>image/svg+xml</dc:format>
        <dc:type
           rdf:resource="http://purl.org/dc/dcmitype/StillImage" />
      </cc:Work>
    </rdf:RDF>
  </metadata>
  <sodipodi:namedview
     pagecolor="#ffffff"
     bordercolor="#666666"
     borderopacity="1"
     objecttolerance="10"
     gridtolerance="10"
     guidetolerance="10"
     inkscape:pageopacity="0"
     inkscape:pageshadow="2"
     inkscape:window-width="760"
     inkscape:window-height="480"
     id="namedview49"
     showgrid="false"
     inkscape:zoom="2.4583333"
     inkscape:cx="-55.525424"
     inkscape:cy="47.999999"
     inkscape:window-x="143"
     inkscape:window-y="167"
     inkscape:window-maximized="0"
     inkscape:current-layer="svg2" />
  <defs
     id="defs4">
    <linearGradient
       x2="0"
       y1="70"
       y2="23.729"
       gradientUnits="userSpaceOnUse"
       id="linearGradient3818">
      <stop
         stop-color="#4d4d4d"
         stop-opacity="1"
         id="stop7" />
      <stop
         stop-color="#1a1a1a"
         stop-opacity="1"
         offset="1"
         id="stop9" />
    </linearGradient>
    <linearGradient
       x2="0"
       y1="92.54"
       y2="7.02"
       gradientUnits="userSpaceOnUse"
       id="ButtonShadow-0"
       gradientTransform="matrix(1.0059 0 0 0.99417 100 0)">
      <stop
         stop-color="#000000"
         stop-opacity="1"
         id="stop12" />
      <stop
         stop-color="#000000"
         stop-opacity="0.588"
         offset="1"
         id="stop14" />
    </linearGradient>
    <linearGradient
       x2="0"
       xlink:href="#ButtonShadow-0"
       y1="6.132"
       y2="90.24"
       gradientUnits="userSpaceOnUse"
       id="linearGradient3780"
       gradientTransform="matrix(1.02381 0 0 -1.0119 -1.143 98.07)" />
    <linearGradient
       x2="0"
       xlink:href="#ButtonShadow-0"
       y1="6.132"
       y2="90.24"
       gradientUnits="userSpaceOnUse"
       id="linearGradient3721-5"
       gradientTransform="matrix(1 0 0 -1 0 97)" />
    <radialGradient
       cy="90.17"
       r="42"
       gradientUnits="userSpaceOnUse"
       id="radialGradient3619-6"
       cx="48"
       gradientTransform="matrix(1.15731 0 0 0.99591 -7.551 0.197)">
      <stop
         stop-color="#ffffff"
         stop-opacity="1"
         id="stop19" />
      <stop
         stop-color="#ffffff"
         stop-opacity="0"
         offset="1"
         id="stop21" />
    </radialGradient>
  </defs>
  <g
     id="g3420"
     transform="matrix(1.536613,0,0,1.536613,-25.757424,-25.7551)">
    <path
       id="path37"
       d="m 23.625,22.96875 c -5.81e-4,1.02e-4 -0.15568,0.06235 -0.15625,0.0625 -5.7e-4,1.54e-4 -0.186946,0.03105 -0.1875,0.03125 -5.54e-4,2.03e-4 -0.155716,0.0935 -0.15625,0.09375 -5.34e-4,2.52e-4 -0.155741,0.0622 -0.15625,0.0625 -5.09e-4,2.98e-4 -0.155769,0.09341 -0.15625,0.09375 -4.81e-4,3.42e-4 -0.124551,0.124616 -0.125,0.125 -4.49e-4,3.84e-4 -0.155837,0.124578 -0.15625,0.125 -4.13e-4,4.22e-4 -0.09338,0.124543 -0.09375,0.125 -3.74e-4,4.57e-4 -0.124668,0.155762 -0.125,0.15625 -3.32e-4,4.88e-4 -0.09346,0.155734 -0.09375,0.15625 -2.87e-4,5.16e-4 -0.06226,0.155711 -0.0625,0.15625 -2.4e-4,5.39e-4 -0.09356,0.155692 -0.09375,0.15625 -1.91e-4,5.58e-4 -0.03111,0.186927 -0.03125,0.1875 -1.41e-4,5.73e-4 -0.03116,0.155667 -0.03125,0.15625 -9e-5,5.83e-4 -0.03121,0.186911 -0.03125,0.1875 -3.1e-5,4.91e-4 7.93e-4,0.114597 0,0.15625 l 0,0.03125 0,5.96875 c -7e-6,6.6e-4 -5.9e-5,0.186842 0,0.1875 5.9e-5,6.58e-4 0.03113,0.186851 0.03125,0.1875 1.24e-4,6.49e-4 0.06231,0.218117 0.0625,0.21875 1.88e-4,6.33e-4 0.06225,0.186889 0.0625,0.1875 2.5e-4,6.11e-4 0.06219,0.186916 0.0625,0.1875 3.09e-4,5.84e-4 0.124634,0.1557 0.125,0.15625 3.66e-4,5.5e-4 0.124582,0.155739 0.125,0.15625 4.18e-4,5.11e-4 0.124533,0.155783 0.125,0.15625 4.67e-4,4.67e-4 0.155739,0.124582 0.15625,0.125 5.11e-4,4.18e-4 0.1557,0.124634 0.15625,0.125 5.5e-4,3.66e-4 0.155666,0.124691 0.15625,0.125 5.84e-4,3.09e-4 0.186889,0.06225 0.1875,0.0625 6.11e-4,2.5e-4 0.186867,0.06231 0.1875,0.0625 5.5e-4,1.63e-4 0.148464,0.05303 0.1875,0.0625 -0.04867,0.01081 -0.124568,0.03113 -0.125,0.03125 -5.7e-4,1.54e-4 -0.186946,0.03105 -0.1875,0.03125 -5.54e-4,2.03e-4 -0.155716,0.0935 -0.15625,0.09375 -5.34e-4,2.52e-4 -0.155741,0.0622 -0.15625,0.0625 -5.09e-4,2.98e-4 -0.155769,0.09341 -0.15625,0.09375 -4.81e-4,3.42e-4 -0.124551,0.124616 -0.125,0.125 -4.49e-4,3.84e-4 -0.155837,0.124578 -0.15625,0.125 -4.13e-4,4.22e-4 -0.09338,0.124543 -0.09375,0.125 -3.74e-4,4.57e-4 -0.124668,0.155762 -0.125,0.15625 -3.32e-4,4.88e-4 -0.09346,0.155734 -0.09375,0.15625 -2.87e-4,5.16e-4 -0.06226,0.155711 -0.0625,0.15625 -2.4e-4,5.39e-4 -0.09356,0.155692 -0.09375,0.15625 -1.91e-4,5.58e-4 -0.03111,0.186927 -0.03125,0.1875 -1.41e-4,5.73e-4 -0.03116,0.155667 -0.03125,0.15625 -9e-5,5.83e-4 -0.03121,0.186911 -0.03125,0.1875 -3.1e-5,4.91e-4 7.93e-4,0.114597 0,0.15625 l 0,0.03125 0,5.96875 c -7e-6,6.6e-4 -5.9e-5,0.186842 0,0.1875 5.9e-5,6.58e-4 0.03113,0.186851 0.03125,0.1875 1.24e-4,6.49e-4 0.06231,0.218117 0.0625,0.21875 1.88e-4,6.33e-4 0.06225,0.186889 0.0625,0.1875 2.5e-4,6.11e-4 0.06219,0.186916 0.0625,0.1875 3.09e-4,5.84e-4 0.124634,0.1557 0.125,0.15625 3.66e-4,5.5e-4 0.124582,0.155739 0.125,0.15625 4.18e-4,5.11e-4 0.124533,0.155783 0.125,0.15625 4.67e-4,4.67e-4 0.155739,0.124582 0.15625,0.125 5.11e-4,4.18e-4 0.1557,0.124634 0.15625,0.125 5.5e-4,3.66e-4 0.155666,0.124691 0.15625,0.125 5.84e-4,3.09e-4 0.186889,0.06225 0.1875,0.0625 6.11e-4,2.5e-4 0.186867,0.06231 0.1875,0.0625 5.5e-4,1.63e-4 0.148464,0.05303 0.1875,0.0625 -0.04867,0.01081 -0.124568,0.03113 -0.125,0.03125 -5.7e-4,1.54e-4 -0.186946,0.03105 -0.1875,0.03125 -5.54e-4,2.03e-4 -0.155716,0.0935 -0.15625,0.09375 -5.34e-4,2.52e-4 -0.155741,0.0622 -0.15625,0.0625 -5.09e-4,2.98e-4 -0.155769,0.09341 -0.15625,0.09375 -4.81e-4,3.42e-4 -0.124551,0.124616 -0.125,0.125 -4.49e-4,3.84e-4 -0.155837,0.124578 -0.15625,0.125 -4.13e-4,4.22e-4 -0.09338,0.124543 -0.09375,0.125 -3.74e-4,4.57e-4 -0.124668,0.155762 -0.125,0.15625 -3.32e-4,4.88e-4 -0.09346,0.155734 -0.09375,0.15625 -2.87e-4,5.16e-4 -0.06226,0.155711 -0.0625,0.15625 -2.4e-4,5.39e-4 -0.09356,0.155692 -0.09375,0.15625 -1.91e-4,5.58e-4 -0.03111,0.186927 -0.03125,0.1875 -1.41e-4,5.73e-4 -0.03116,0.155667 -0.03125,0.15625 -9e-5,5.83e-4 -0.03121,0.186911 -0.03125,0.1875 -3.1e-5,4.91e-4 7.93e-4,0.114597 0,0.15625 l 0,0.03125 0,5.96875 c -7e-6,6.6e-4 -5.9e-5,0.186842 0,0.1875 5.9e-5,6.58e-4 0.03113,0.186851 0.03125,0.1875 1.24e-4,6.49e-4 0.06231,0.218117 0.0625,0.21875 1.88e-4,6.33e-4 0.06225,0.186889 0.0625,0.1875 2.5e-4,6.11e-4 0.06219,0.186916 0.0625,0.1875 3.09e-4,5.84e-4 0.124634,0.1557 0.125,0.15625 3.66e-4,5.5e-4 0.124582,0.155739 0.125,0.15625 4.18e-4,5.11e-4 0.124533,0.155783 0.125,0.15625 4.67e-4,4.67e-4 0.155739,0.124582 0.15625,0.125 5.11e-4,4.18e-4 0.1557,0.124634 0.15625,0.125 5.5e-4,3.66e-4 0.155666,0.124691 0.15625,0.125 5.84e-4,3.09e-4 0.186889,0.06225 0.1875,0.0625 6.11e-4,2.5e-4 0.186867,0.06231 0.1875,0.0625 5.5e-4,1.63e-4 0.148464,0.05303 0.1875,0.0625 -0.04867,0.01081 -0.124568,0.03113 -0.125,0.03125 -5.7e-4,1.54e-4 -0.186946,0.03105 -0.1875,0.03125 -5.54e-4,2.03e-4 -0.155716,0.0935 -0.15625,0.09375 -5.34e-4,2.52e-4 -0.155741,0.0622 -0.15625,0.0625 -5.09e-4,2.98e-4 -0.155769,0.09341 -0.15625,0.09375 -4.81e-4,3.42e-4 -0.124551,0.124616 -0.125,0.125 -4.49e-4,3.84e-4 -0.155837,0.124578 -0.15625,0.125 -4.13e-4,4.22e-4 -0.09338,0.124543 -0.09375,0.125 -3.74e-4,4.57e-4 -0.124668,0.155762 -0.125,0.15625 -3.32e-4,4.88e-4 -0.09346,0.155734 -0.09375,0.15625 -2.87e-4,5.16e-4 -0.06226,0.155711 -0.0625,0.15625 -2.4e-4,5.39e-4 -0.09356,0.155692 -0.09375,0.15625 -1.91e-4,5.58e-4 -0.03111,0.186927 -0.03125,0.1875 -1.41e-4,5.73e-4 -0.03116,0.155667 -0.03125,0.15625 -9e-5,5.83e-4 -0.03121,0.186911 -0.03125,0.1875 -3.1e-5,4.91e-4 7.93e-4,0.114597 0,0.15625 l 0,0.03125 0,5.96875 c -7e-6,6.6e-4 -5.9e-5,0.186842 0,0.1875 5.9e-5,6.58e-4 0.03113,0.186851 0.03125,0.1875 1.24e-4,6.49e-4 0.06231,0.218117 0.0625,0.21875 1.88e-4,6.33e-4 0.06225,0.186889 0.0625,0.1875 2.5e-4,6.11e-4 0.06219,0.186916 0.0625,0.1875 3.09e-4,5.84e-4 0.124634,0.1557 0.125,0.15625 3.66e-4,5.5e-4 0.124582,0.155739 0.125,0.15625 4.18e-4,5.11e-4 0.124533,0.155783 0.125,0.15625 4.67e-4,4.67e-4 0.155739,0.124582 0.15625,0.125 5.11e-4,4.18e-4 0.1557,0.124634 0.15625,0.125 5.5e-4,3.66e-4 0.155666,0.124691 0.15625,0.125 5.84e-4,3.09e-4 0.186889,0.06225 0.1875,0.0625 6.11e-4,2.5e-4 0.186867,0.06231 0.1875,0.0625 5.5e-4,1.63e-4 0.148464,0.05303 0.1875,0.0625 -0.04867,0.01081 -0.124568,0.03113 -0.125,0.03125 -5.7e-4,1.54e-4 -0.186946,0.03105 -0.1875,0.03125 -5.54e-4,2.03e-4 -0.155716,0.0935 -0.15625,0.09375 -5.34e-4,2.52e-4 -0.155741,0.0622 -0.15625,0.0625 -5.09e-4,2.98e-4 -0.155769,0.09341 -0.15625,0.09375 -4.81e-4,3.42e-4 -0.124551,0.124616 -0.125,0.125 -4.49e-4,3.84e-4 -0.155837,0.124578 -0.15625,0.125 -4.13e-4,4.22e-4 -0.09338,0.124543 -0.09375,0.125 -3.74e-4,4.57e-4 -0.124668,0.155762 -0.125,0.15625 -3.32e-4,4.88e-4 -0.09346,0.155734 -0.09375,0.15625 -2.87e-4,5.16e-4 -0.06226,0.155711 -0.0625,0.15625 -2.4e-4,5.39e-4 -0.09356,0.155692 -0.09375,0.15625 -1.91e-4,5.58e-4 -0.03111,0.186927 -0.03125,0.1875 -1.41e-4,5.73e-4 -0.03116,0.155667 -0.03125,0.15625 -9e-5,5.83e-4 -0.03121,0.186911 -0.03125,0.1875 -3.1e-5,4.91e-4 7.93e-4,0.114597 0,0.15625 l 0,0.03125 0,5.96875 c -7e-6,6.6e-4 -5.9e-5,0.186842 0,0.1875 5.9e-5,6.58e-4 0.03113,0.186851 0.03125,0.1875 1.24e-4,6.49e-4 0.06231,0.218117 0.0625,0.21875 1.88e-4,6.33e-4 0.06225,0.186889 0.0625,0.1875 2.5e-4,6.11e-4 0.06219,0.186916 0.0625,0.1875 3.09e-4,5.84e-4 0.124634,0.1557 0.125,0.15625 3.66e-4,5.5e-4 0.124582,0.155739 0.125,0.15625 4.18e-4,5.11e-4 0.124533,0.155783 0.125,0.15625 4.67e-4,4.67e-4 0.155739,0.124582 0.15625,0.125 5.11e-4,4.18e-4 0.1557,0.124634 0.15625,0.125 5.5e-4,3.66e-4 0.155666,0.124691 0.15625,0.125 5.84e-4,3.09e-4 0.186889,0.06225 0.1875,0.0625 6.11e-4,2.5e-4 0.186867,0.06231 0.1875,0.0625 6.33e-4,1.88e-4 0.218101,0.06238 0.21875,0.0625 6.49e-4,1.24e-4 0.186842,0.03119 0.1875,0.03125 6.58e-4,5.9e-5 0.18684,7e-6 0.1875,0 l 6,0 c 6.6e-4,7e-6 0.186842,5.9e-5 0.1875,0 6.58e-4,-5.9e-5 0.186851,-0.03113 0.1875,-0.03125 6.49e-4,-1.24e-4 0.218117,-0.06231 0.21875,-0.0625 6.33e-4,-1.88e-4 0.186889,-0.06225 0.1875,-0.0625 6.11e-4,-2.5e-4 0.186916,-0.06219 0.1875,-0.0625 5.84e-4,-3.09e-4 0.1557,-0.124634 0.15625,-0.125 5.5e-4,-3.66e-4 0.155739,-0.124582 0.15625,-0.125 5.11e-4,-4.18e-4 0.155783,-0.124533 0.15625,-0.125 4.67e-4,-4.67e-4 0.124582,-0.155739 0.125,-0.15625 4.18e-4,-5.11e-4 0.124634,-0.1557 0.125,-0.15625 3.66e-4,-5.5e-4 0.124691,-0.155666 0.125,-0.15625 3.09e-4,-5.84e-4 0.06225,-0.186889 0.0625,-0.1875 2.5e-4,-6.11e-4 0.06231,-0.186867 0.0625,-0.1875 1.88e-4,-6.33e-4 0.06238,-0.218101 0.0625,-0.21875 1.24e-4,6.49e-4 0.06231,0.218117 0.0625,0.21875 1.88e-4,6.33e-4 0.06225,0.186889 0.0625,0.1875 2.5e-4,6.11e-4 0.06219,0.186916 0.0625,0.1875 3.09e-4,5.84e-4 0.124634,0.1557 0.125,0.15625 3.66e-4,5.5e-4 0.124582,0.155739 0.125,0.15625 4.18e-4,5.11e-4 0.124533,0.155783 0.125,0.15625 4.67e-4,4.67e-4 0.155739,0.124582 0.15625,0.125 5.11e-4,4.18e-4 0.1557,0.124634 0.15625,0.125 5.5e-4,3.66e-4 0.155666,0.124691 0.15625,0.125 5.84e-4,3.09e-4 0.186889,0.06225 0.1875,0.0625 6.11e-4,2.5e-4 0.186867,0.06231 0.1875,0.0625 6.33e-4,1.88e-4 0.218101,0.06238 0.21875,0.0625 6.49e-4,1.24e-4 0.186842,0.03119 0.1875,0.03125 6.58e-4,5.9e-5 0.18684,7e-6 0.1875,0 l 38,0 c 6.6e-4,7e-6 0.186842,5.9e-5 0.1875,0 6.58e-4,-5.9e-5 0.186851,-0.03113 0.1875,-0.03125 6.49e-4,-1.24e-4 0.218117,-0.06231 0.21875,-0.0625 6.33e-4,-1.88e-4 0.186889,-0.06225 0.1875,-0.0625 6.11e-4,-2.5e-4 0.186916,-0.06219 0.1875,-0.0625 5.84e-4,-3.09e-4 0.1557,-0.124634 0.15625,-0.125 5.5e-4,-3.66e-4 0.155739,-0.124582 0.15625,-0.125 5.11e-4,-4.18e-4 0.155783,-0.124533 0.15625,-0.125 4.67e-4,-4.67e-4 0.124582,-0.155739 0.125,-0.15625 4.18e-4,-5.11e-4 0.124634,-0.1557 0.125,-0.15625 3.66e-4,-5.5e-4 0.124691,-0.155666 0.125,-0.15625 3.09e-4,-5.84e-4 0.06225,-0.186889 0.0625,-0.1875 2.5e-4,-6.11e-4 0.06231,-0.186867 0.0625,-0.1875 1.88e-4,-6.33e-4 0.06238,-0.218101 0.0625,-0.21875 1.24e-4,-6.49e-4 0.03119,-0.186842 0.03125,-0.1875 5.9e-5,-6.58e-4 7e-6,-0.18684 0,-0.1875 l 0,-6 c 7e-6,-6.6e-4 5.9e-5,-0.186842 0,-0.1875 -5.9e-5,-6.58e-4 -0.03113,-0.186851 -0.03125,-0.1875 -1.24e-4,-6.49e-4 -0.06231,-0.218117 -0.0625,-0.21875 -1.88e-4,-6.33e-4 -0.06225,-0.186889 -0.0625,-0.1875 -2.5e-4,-6.11e-4 -0.06219,-0.186916 -0.0625,-0.1875 -3.09e-4,-5.84e-4 -0.124634,-0.1557 -0.125,-0.15625 -3.66e-4,-5.5e-4 -0.124582,-0.155739 -0.125,-0.15625 -4.18e-4,-5.11e-4 -0.124533,-0.155783 -0.125,-0.15625 -4.67e-4,-4.67e-4 -0.155739,-0.124582 -0.15625,-0.125 -5.11e-4,-4.18e-4 -0.1557,-0.124634 -0.15625,-0.125 -5.5e-4,-3.66e-4 -0.155666,-0.124691 -0.15625,-0.125 -5.84e-4,-3.09e-4 -0.186889,-0.06225 -0.1875,-0.0625 -6.11e-4,-2.5e-4 -0.186867,-0.06231 -0.1875,-0.0625 C 72.593117,63.062312 72.375649,63.00012 72.375,63 c 6.49e-4,-1.24e-4 0.218117,-0.06231 0.21875,-0.0625 6.33e-4,-1.88e-4 0.186889,-0.06225 0.1875,-0.0625 6.11e-4,-2.5e-4 0.186916,-0.06219 0.1875,-0.0625 5.84e-4,-3.09e-4 0.1557,-0.124634 0.15625,-0.125 5.5e-4,-3.66e-4 0.155739,-0.124582 0.15625,-0.125 5.11e-4,-4.18e-4 0.155783,-0.124533 0.15625,-0.125 4.67e-4,-4.67e-4 0.124582,-0.155739 0.125,-0.15625 4.18e-4,-5.11e-4 0.124634,-0.1557 0.125,-0.15625 3.66e-4,-5.5e-4 0.124691,-0.155666 0.125,-0.15625 3.09e-4,-5.84e-4 0.06225,-0.186889 0.0625,-0.1875 2.5e-4,-6.11e-4 0.06231,-0.186867 0.0625,-0.1875 1.88e-4,-6.33e-4 0.06238,-0.218101 0.0625,-0.21875 1.24e-4,-6.49e-4 0.03119,-0.186842 0.03125,-0.1875 5.9e-5,-6.58e-4 7e-6,-0.18684 0,-0.1875 l 0,-6 c 7e-6,-6.6e-4 5.9e-5,-0.186842 0,-0.1875 -5.9e-5,-6.58e-4 -0.03113,-0.186851 -0.03125,-0.1875 -1.24e-4,-6.49e-4 -0.06231,-0.218117 -0.0625,-0.21875 -1.88e-4,-6.33e-4 -0.06225,-0.186889 -0.0625,-0.1875 -2.5e-4,-6.11e-4 -0.06219,-0.186916 -0.0625,-0.1875 -3.09e-4,-5.84e-4 -0.124634,-0.1557 -0.125,-0.15625 -3.66e-4,-5.5e-4 -0.124582,-0.155739 -0.125,-0.15625 -4.18e-4,-5.11e-4 -0.124533,-0.155783 -0.125,-0.15625 -4.67e-4,-4.67e-4 -0.155739,-0.124582 -0.15625,-0.125 -5.11e-4,-4.18e-4 -0.1557,-0.124634 -0.15625,-0.125 -5.5e-4,-3.66e-4 -0.155666,-0.124691 -0.15625,-0.125 -5.84e-4,-3.09e-4 -0.186889,-0.06225 -0.1875,-0.0625 -6.11e-4,-2.5e-4 -0.186867,-0.06231 -0.1875,-0.0625 C 72.593117,53.062312 72.375649,53.00012 72.375,53 c 6.49e-4,-1.24e-4 0.218117,-0.06231 0.21875,-0.0625 6.33e-4,-1.88e-4 0.186889,-0.06225 0.1875,-0.0625 6.11e-4,-2.5e-4 0.186916,-0.06219 0.1875,-0.0625 5.84e-4,-3.09e-4 0.1557,-0.124634 0.15625,-0.125 5.5e-4,-3.66e-4 0.155739,-0.124582 0.15625,-0.125 5.11e-4,-4.18e-4 0.155783,-0.124533 0.15625,-0.125 4.67e-4,-4.67e-4 0.124582,-0.155739 0.125,-0.15625 4.18e-4,-5.11e-4 0.124634,-0.1557 0.125,-0.15625 3.66e-4,-5.5e-4 0.124691,-0.155666 0.125,-0.15625 3.09e-4,-5.84e-4 0.06225,-0.186889 0.0625,-0.1875 2.5e-4,-6.11e-4 0.06231,-0.186867 0.0625,-0.1875 1.88e-4,-6.33e-4 0.06238,-0.218101 0.0625,-0.21875 1.24e-4,-6.49e-4 0.03119,-0.186842 0.03125,-0.1875 5.9e-5,-6.58e-4 7e-6,-0.18684 0,-0.1875 l 0,-6 c 7e-6,-6.6e-4 5.9e-5,-0.186842 0,-0.1875 -5.9e-5,-6.58e-4 -0.03113,-0.186851 -0.03125,-0.1875 -1.24e-4,-6.49e-4 -0.06231,-0.218117 -0.0625,-0.21875 -1.88e-4,-6.33e-4 -0.06225,-0.186889 -0.0625,-0.1875 -2.5e-4,-6.11e-4 -0.06219,-0.186916 -0.0625,-0.1875 -3.09e-4,-5.84e-4 -0.124634,-0.1557 -0.125,-0.15625 -3.66e-4,-5.5e-4 -0.124582,-0.155739 -0.125,-0.15625 -4.18e-4,-5.11e-4 -0.124533,-0.155783 -0.125,-0.15625 -4.67e-4,-4.67e-4 -0.155739,-0.124582 -0.15625,-0.125 -5.11e-4,-4.18e-4 -0.1557,-0.124634 -0.15625,-0.125 -5.5e-4,-3.66e-4 -0.155666,-0.124691 -0.15625,-0.125 -5.84e-4,-3.09e-4 -0.186889,-0.06225 -0.1875,-0.0625 -6.11e-4,-2.5e-4 -0.186867,-0.06231 -0.1875,-0.0625 C 72.593117,43.062312 72.375649,43.00012 72.375,43 c 6.49e-4,-1.24e-4 0.218117,-0.06231 0.21875,-0.0625 6.33e-4,-1.88e-4 0.186889,-0.06225 0.1875,-0.0625 6.11e-4,-2.5e-4 0.186916,-0.06219 0.1875,-0.0625 5.84e-4,-3.09e-4 0.1557,-0.124634 0.15625,-0.125 5.5e-4,-3.66e-4 0.155739,-0.124582 0.15625,-0.125 5.11e-4,-4.18e-4 0.155783,-0.124533 0.15625,-0.125 4.67e-4,-4.67e-4 0.124582,-0.155739 0.125,-0.15625 4.18e-4,-5.11e-4 0.124634,-0.1557 0.125,-0.15625 3.66e-4,-5.5e-4 0.124691,-0.155666 0.125,-0.15625 3.09e-4,-5.84e-4 0.06225,-0.186889 0.0625,-0.1875 2.5e-4,-6.11e-4 0.06231,-0.186867 0.0625,-0.1875 1.88e-4,-6.33e-4 0.06238,-0.218101 0.0625,-0.21875 1.24e-4,-6.49e-4 0.03119,-0.186842 0.03125,-0.1875 5.9e-5,-6.58e-4 7e-6,-0.18684 0,-0.1875 l 0,-6 c 7e-6,-6.6e-4 5.9e-5,-0.186842 0,-0.1875 -5.9e-5,-6.58e-4 -0.03113,-0.186851 -0.03125,-0.1875 -1.24e-4,-6.49e-4 -0.06231,-0.218117 -0.0625,-0.21875 -1.88e-4,-6.33e-4 -0.06225,-0.186889 -0.0625,-0.1875 -2.5e-4,-6.11e-4 -0.06219,-0.186916 -0.0625,-0.1875 -3.09e-4,-5.84e-4 -0.124634,-0.1557 -0.125,-0.15625 -3.66e-4,-5.5e-4 -0.124582,-0.155739 -0.125,-0.15625 -4.18e-4,-5.11e-4 -0.124533,-0.155783 -0.125,-0.15625 -4.67e-4,-4.67e-4 -0.155739,-0.124582 -0.15625,-0.125 -5.11e-4,-4.18e-4 -0.1557,-0.124634 -0.15625,-0.125 -5.5e-4,-3.66e-4 -0.155666,-0.124691 -0.15625,-0.125 -5.84e-4,-3.09e-4 -0.186889,-0.06225 -0.1875,-0.0625 -6.11e-4,-2.5e-4 -0.186867,-0.06231 -0.1875,-0.0625 C 72.593117,33.062312 72.375649,33.00012 72.375,33 c 6.49e-4,-1.24e-4 0.218117,-0.06231 0.21875,-0.0625 6.33e-4,-1.88e-4 0.186889,-0.06225 0.1875,-0.0625 6.11e-4,-2.5e-4 0.186916,-0.06219 0.1875,-0.0625 5.84e-4,-3.09e-4 0.1557,-0.124634 0.15625,-0.125 5.5e-4,-3.66e-4 0.155739,-0.124582 0.15625,-0.125 5.11e-4,-4.18e-4 0.155783,-0.124533 0.15625,-0.125 4.67e-4,-4.67e-4 0.124582,-0.155739 0.125,-0.15625 4.18e-4,-5.11e-4 0.124634,-0.1557 0.125,-0.15625 3.66e-4,-5.5e-4 0.124691,-0.155666 0.125,-0.15625 3.09e-4,-5.84e-4 0.06225,-0.186889 0.0625,-0.1875 2.5e-4,-6.11e-4 0.06231,-0.186867 0.0625,-0.1875 1.88e-4,-6.33e-4 0.06238,-0.218101 0.0625,-0.21875 1.24e-4,-6.49e-4 0.03119,-0.186842 0.03125,-0.1875 5.9e-5,-6.58e-4 7e-6,-0.18684 0,-0.1875 l 0,-6 c 7e-6,-6.6e-4 5.9e-5,-0.186842 0,-0.1875 -5.9e-5,-6.58e-4 -0.03113,-0.186851 -0.03125,-0.1875 -1.24e-4,-6.49e-4 -0.06231,-0.218117 -0.0625,-0.21875 -1.88e-4,-6.33e-4 -0.06225,-0.186889 -0.0625,-0.1875 -2.5e-4,-6.11e-4 -0.06219,-0.186916 -0.0625,-0.1875 -3.09e-4,-5.84e-4 -0.124634,-0.1557 -0.125,-0.15625 -3.66e-4,-5.5e-4 -0.124582,-0.155739 -0.125,-0.15625 -4.18e-4,-5.11e-4 -0.124533,-0.155783 -0.125,-0.15625 -4.67e-4,-4.67e-4 -0.155739,-0.124582 -0.15625,-0.125 -5.11e-4,-4.18e-4 -0.1557,-0.124634 -0.15625,-0.125 -5.5e-4,-3.66e-4 -0.155666,-0.124691 -0.15625,-0.125 -5.84e-4,-3.09e-4 -0.186889,-0.06225 -0.1875,-0.0625 -6.11e-4,-2.5e-4 -0.186867,-0.06231 -0.1875,-0.0625 C 72.593117,23.062312 72.375649,23.00012 72.375,23 c -6.49e-4,-1.24e-4 -0.186842,-0.03119 -0.1875,-0.03125 -6.58e-4,-5.9e-5 -0.18684,-7e-6 -0.1875,0 l -37.96875,0 c -1.22e-4,-6e-6 -0.01936,3e-6 -0.03125,0 -0.02378,-7e-6 -0.02696,-2e-6 -0.0625,0 -2.44e-4,-1.1e-5 -0.02696,2e-6 -0.0625,0 -0.05331,-3e-6 -0.09338,-1.7e-5 -0.09375,0 a 1.0013279,1.0013279 0 0 0 -0.15625,0 c -5.81e-4,1.02e-4 -0.15568,0.06235 -0.15625,0.0625 -5.7e-4,1.54e-4 -0.186946,0.03105 -0.1875,0.03125 -5.54e-4,2.03e-4 -0.155716,0.0935 -0.15625,0.09375 -5.34e-4,2.52e-4 -0.155741,0.0622 -0.15625,0.0625 -5.09e-4,2.98e-4 -0.155769,0.09341 -0.15625,0.09375 -4.81e-4,3.42e-4 -0.124551,0.124616 -0.125,0.125 -4.49e-4,3.84e-4 -0.155837,0.124578 -0.15625,0.125 -4.13e-4,4.22e-4 -0.09338,0.124543 -0.09375,0.125 -3.74e-4,4.57e-4 -0.124668,0.155762 -0.125,0.15625 -3.32e-4,4.88e-4 -0.09346,0.155734 -0.09375,0.15625 -2.87e-4,5.16e-4 -0.06226,0.155711 -0.0625,0.15625 -2.4e-4,5.39e-4 -0.09356,0.155692 -0.09375,0.15625 -1.91e-4,5.58e-4 -0.03111,0.186927 -0.03125,0.1875 -1.14e-4,4.63e-4 -0.02243,0.08077 -0.03125,0.125 -1.24e-4,-6.49e-4 -0.06231,-0.218117 -0.0625,-0.21875 -1.88e-4,-6.33e-4 -0.06225,-0.186889 -0.0625,-0.1875 -2.5e-4,-6.11e-4 -0.06219,-0.186916 -0.0625,-0.1875 -3.09e-4,-5.84e-4 -0.124634,-0.1557 -0.125,-0.15625 -3.66e-4,-5.5e-4 -0.124582,-0.155739 -0.125,-0.15625 -4.18e-4,-5.11e-4 -0.124533,-0.155783 -0.125,-0.15625 -4.67e-4,-4.67e-4 -0.155739,-0.124582 -0.15625,-0.125 -5.11e-4,-4.18e-4 -0.1557,-0.124634 -0.15625,-0.125 -5.5e-4,-3.66e-4 -0.155666,-0.124691 -0.15625,-0.125 -5.84e-4,-3.09e-4 -0.186889,-0.06225 -0.1875,-0.0625 -6.11e-4,-2.5e-4 -0.186867,-0.06231 -0.1875,-0.0625 C 30.593117,23.062312 30.375649,23.00012 30.375,23 c -6.49e-4,-1.24e-4 -0.186842,-0.03119 -0.1875,-0.03125 -6.58e-4,-5.9e-5 -0.18684,-7e-6 -0.1875,0 l -5.96875,0 c -1.22e-4,-6e-6 -0.01936,3e-6 -0.03125,0 -0.02378,-7e-6 -0.02696,-2e-6 -0.0625,0 -2.44e-4,-1.1e-5 -0.02696,2e-6 -0.0625,0 -0.05331,-3e-6 -0.09338,-1.7e-5 -0.09375,0 a 1.0013279,1.0013279 0 0 0 -0.15625,0 z M 32,31.375 c 1.24e-4,6.49e-4 0.06231,0.218117 0.0625,0.21875 1.88e-4,6.33e-4 0.06225,0.186889 0.0625,0.1875 2.5e-4,6.11e-4 0.06219,0.186916 0.0625,0.1875 3.09e-4,5.84e-4 0.124634,0.1557 0.125,0.15625 3.66e-4,5.5e-4 0.124582,0.155739 0.125,0.15625 4.18e-4,5.11e-4 0.124533,0.155783 0.125,0.15625 4.67e-4,4.67e-4 0.155739,0.124582 0.15625,0.125 5.11e-4,4.18e-4 0.1557,0.124634 0.15625,0.125 5.5e-4,3.66e-4 0.155666,0.124691 0.15625,0.125 5.84e-4,3.09e-4 0.186889,0.06225 0.1875,0.0625 6.11e-4,2.5e-4 0.186867,0.06231 0.1875,0.0625 5.5e-4,1.63e-4 0.148464,0.05303 0.1875,0.0625 -0.04867,0.01081 -0.124568,0.03113 -0.125,0.03125 -5.7e-4,1.54e-4 -0.186946,0.03105 -0.1875,0.03125 -5.54e-4,2.03e-4 -0.155716,0.0935 -0.15625,0.09375 -5.34e-4,2.52e-4 -0.155741,0.0622 -0.15625,0.0625 -5.09e-4,2.98e-4 -0.155769,0.09341 -0.15625,0.09375 -4.81e-4,3.42e-4 -0.124551,0.124616 -0.125,0.125 -4.49e-4,3.84e-4 -0.155837,0.124578 -0.15625,0.125 -4.13e-4,4.22e-4 -0.09338,0.124543 -0.09375,0.125 -3.74e-4,4.57e-4 -0.124668,0.155762 -0.125,0.15625 -3.32e-4,4.88e-4 -0.09346,0.155734 -0.09375,0.15625 -2.87e-4,5.16e-4 -0.06226,0.155711 -0.0625,0.15625 -2.4e-4,5.39e-4 -0.09356,0.155692 -0.09375,0.15625 -1.91e-4,5.58e-4 -0.03111,0.186927 -0.03125,0.1875 -1.14e-4,4.63e-4 -0.02243,0.08077 -0.03125,0.125 -1.24e-4,-6.49e-4 -0.06231,-0.218117 -0.0625,-0.21875 -1.88e-4,-6.33e-4 -0.06225,-0.186889 -0.0625,-0.1875 -2.5e-4,-6.11e-4 -0.06219,-0.186916 -0.0625,-0.1875 -3.09e-4,-5.84e-4 -0.124634,-0.1557 -0.125,-0.15625 -3.66e-4,-5.5e-4 -0.124582,-0.155739 -0.125,-0.15625 -4.18e-4,-5.11e-4 -0.124533,-0.155783 -0.125,-0.15625 -4.67e-4,-4.67e-4 -0.155739,-0.124582 -0.15625,-0.125 -5.11e-4,-4.18e-4 -0.1557,-0.124634 -0.15625,-0.125 -5.5e-4,-3.66e-4 -0.155666,-0.124691 -0.15625,-0.125 -5.84e-4,-3.09e-4 -0.186889,-0.06225 -0.1875,-0.0625 -6.11e-4,-2.5e-4 -0.186867,-0.06231 -0.1875,-0.0625 C 30.593117,33.062312 30.375649,33.00012 30.375,33 c 6.49e-4,-1.24e-4 0.218117,-0.06231 0.21875,-0.0625 6.33e-4,-1.88e-4 0.186889,-0.06225 0.1875,-0.0625 6.11e-4,-2.5e-4 0.186916,-0.06219 0.1875,-0.0625 5.84e-4,-3.09e-4 0.1557,-0.124634 0.15625,-0.125 5.5e-4,-3.66e-4 0.155739,-0.124582 0.15625,-0.125 5.11e-4,-4.18e-4 0.155783,-0.124533 0.15625,-0.125 4.67e-4,-4.67e-4 0.124582,-0.155739 0.125,-0.15625 4.18e-4,-5.11e-4 0.124634,-0.1557 0.125,-0.15625 3.66e-4,-5.5e-4 0.124691,-0.155666 0.125,-0.15625 3.09e-4,-5.84e-4 0.06225,-0.186889 0.0625,-0.1875 2.5e-4,-6.11e-4 0.06231,-0.186867 0.0625,-0.1875 1.88e-4,-6.33e-4 0.06238,-0.218101 0.0625,-0.21875 z m 0,10 c 1.24e-4,6.49e-4 0.06231,0.218117 0.0625,0.21875 1.88e-4,6.33e-4 0.06225,0.186889 0.0625,0.1875 2.5e-4,6.11e-4 0.06219,0.186916 0.0625,0.1875 3.09e-4,5.84e-4 0.124634,0.1557 0.125,0.15625 3.66e-4,5.5e-4 0.124582,0.155739 0.125,0.15625 4.18e-4,5.11e-4 0.124533,0.155783 0.125,0.15625 4.67e-4,4.67e-4 0.155739,0.124582 0.15625,0.125 5.11e-4,4.18e-4 0.1557,0.124634 0.15625,0.125 5.5e-4,3.66e-4 0.155666,0.124691 0.15625,0.125 5.84e-4,3.09e-4 0.186889,0.06225 0.1875,0.0625 6.11e-4,2.5e-4 0.186867,0.06231 0.1875,0.0625 5.5e-4,1.63e-4 0.148464,0.05303 0.1875,0.0625 -0.04867,0.01081 -0.124568,0.03113 -0.125,0.03125 -5.7e-4,1.54e-4 -0.186946,0.03105 -0.1875,0.03125 -5.54e-4,2.03e-4 -0.155716,0.0935 -0.15625,0.09375 -5.34e-4,2.52e-4 -0.155741,0.0622 -0.15625,0.0625 -5.09e-4,2.98e-4 -0.155769,0.09341 -0.15625,0.09375 -4.81e-4,3.42e-4 -0.124551,0.124616 -0.125,0.125 -4.49e-4,3.84e-4 -0.155837,0.124578 -0.15625,0.125 -4.13e-4,4.22e-4 -0.09338,0.124543 -0.09375,0.125 -3.74e-4,4.57e-4 -0.124668,0.155762 -0.125,0.15625 -3.32e-4,4.88e-4 -0.09346,0.155734 -0.09375,0.15625 -2.87e-4,5.16e-4 -0.06226,0.155711 -0.0625,0.15625 -2.4e-4,5.39e-4 -0.09356,0.155692 -0.09375,0.15625 -1.91e-4,5.58e-4 -0.03111,0.186927 -0.03125,0.1875 -1.14e-4,4.63e-4 -0.02243,0.08077 -0.03125,0.125 -1.24e-4,-6.49e-4 -0.06231,-0.218117 -0.0625,-0.21875 -1.88e-4,-6.33e-4 -0.06225,-0.186889 -0.0625,-0.1875 -2.5e-4,-6.11e-4 -0.06219,-0.186916 -0.0625,-0.1875 -3.09e-4,-5.84e-4 -0.124634,-0.1557 -0.125,-0.15625 -3.66e-4,-5.5e-4 -0.124582,-0.155739 -0.125,-0.15625 -4.18e-4,-5.11e-4 -0.124533,-0.155783 -0.125,-0.15625 -4.67e-4,-4.67e-4 -0.155739,-0.124582 -0.15625,-0.125 -5.11e-4,-4.18e-4 -0.1557,-0.124634 -0.15625,-0.125 -5.5e-4,-3.66e-4 -0.155666,-0.124691 -0.15625,-0.125 -5.84e-4,-3.09e-4 -0.186889,-0.06225 -0.1875,-0.0625 -6.11e-4,-2.5e-4 -0.186867,-0.06231 -0.1875,-0.0625 C 30.593117,43.062312 30.375649,43.00012 30.375,43 c 6.49e-4,-1.24e-4 0.218117,-0.06231 0.21875,-0.0625 6.33e-4,-1.88e-4 0.186889,-0.06225 0.1875,-0.0625 6.11e-4,-2.5e-4 0.186916,-0.06219 0.1875,-0.0625 5.84e-4,-3.09e-4 0.1557,-0.124634 0.15625,-0.125 5.5e-4,-3.66e-4 0.155739,-0.124582 0.15625,-0.125 5.11e-4,-4.18e-4 0.155783,-0.124533 0.15625,-0.125 4.67e-4,-4.67e-4 0.124582,-0.155739 0.125,-0.15625 4.18e-4,-5.11e-4 0.124634,-0.1557 0.125,-0.15625 3.66e-4,-5.5e-4 0.124691,-0.155666 0.125,-0.15625 3.09e-4,-5.84e-4 0.06225,-0.186889 0.0625,-0.1875 2.5e-4,-6.11e-4 0.06231,-0.186867 0.0625,-0.1875 1.88e-4,-6.33e-4 0.06238,-0.218101 0.0625,-0.21875 z m 0,10 c 1.24e-4,6.49e-4 0.06231,0.218117 0.0625,0.21875 1.88e-4,6.33e-4 0.06225,0.186889 0.0625,0.1875 2.5e-4,6.11e-4 0.06219,0.186916 0.0625,0.1875 3.09e-4,5.84e-4 0.124634,0.1557 0.125,0.15625 3.66e-4,5.5e-4 0.124582,0.155739 0.125,0.15625 4.18e-4,5.11e-4 0.124533,0.155783 0.125,0.15625 4.67e-4,4.67e-4 0.155739,0.124582 0.15625,0.125 5.11e-4,4.18e-4 0.1557,0.124634 0.15625,0.125 5.5e-4,3.66e-4 0.155666,0.124691 0.15625,0.125 5.84e-4,3.09e-4 0.186889,0.06225 0.1875,0.0625 6.11e-4,2.5e-4 0.186867,0.06231 0.1875,0.0625 5.5e-4,1.63e-4 0.148464,0.05303 0.1875,0.0625 -0.04867,0.01081 -0.124568,0.03113 -0.125,0.03125 -5.7e-4,1.54e-4 -0.186946,0.03105 -0.1875,0.03125 -5.54e-4,2.03e-4 -0.155716,0.0935 -0.15625,0.09375 -5.34e-4,2.52e-4 -0.155741,0.0622 -0.15625,0.0625 -5.09e-4,2.98e-4 -0.155769,0.09341 -0.15625,0.09375 -4.81e-4,3.42e-4 -0.124551,0.124616 -0.125,0.125 -4.49e-4,3.84e-4 -0.155837,0.124578 -0.15625,0.125 -4.13e-4,4.22e-4 -0.09338,0.124543 -0.09375,0.125 -3.74e-4,4.57e-4 -0.124668,0.155762 -0.125,0.15625 -3.32e-4,4.88e-4 -0.09346,0.155734 -0.09375,0.15625 -2.87e-4,5.16e-4 -0.06226,0.155711 -0.0625,0.15625 -2.4e-4,5.39e-4 -0.09356,0.155692 -0.09375,0.15625 -1.91e-4,5.58e-4 -0.03111,0.186927 -0.03125,0.1875 -1.14e-4,4.63e-4 -0.02243,0.08077 -0.03125,0.125 -1.24e-4,-6.49e-4 -0.06231,-0.218117 -0.0625,-0.21875 -1.88e-4,-6.33e-4 -0.06225,-0.186889 -0.0625,-0.1875 -2.5e-4,-6.11e-4 -0.06219,-0.186916 -0.0625,-0.1875 -3.09e-4,-5.84e-4 -0.124634,-0.1557 -0.125,-0.15625 -3.66e-4,-5.5e-4 -0.124582,-0.155739 -0.125,-0.15625 -4.18e-4,-5.11e-4 -0.124533,-0.155783 -0.125,-0.15625 -4.67e-4,-4.67e-4 -0.155739,-0.124582 -0.15625,-0.125 -5.11e-4,-4.18e-4 -0.1557,-0.124634 -0.15625,-0.125 -5.5e-4,-3.66e-4 -0.155666,-0.124691 -0.15625,-0.125 -5.84e-4,-3.09e-4 -0.186889,-0.06225 -0.1875,-0.0625 -6.11e-4,-2.5e-4 -0.186867,-0.06231 -0.1875,-0.0625 C 30.593117,53.062312 30.375649,53.00012 30.375,53 c 6.49e-4,-1.24e-4 0.218117,-0.06231 0.21875,-0.0625 6.33e-4,-1.88e-4 0.186889,-0.06225 0.1875,-0.0625 6.11e-4,-2.5e-4 0.186916,-0.06219 0.1875,-0.0625 5.84e-4,-3.09e-4 0.1557,-0.124634 0.15625,-0.125 5.5e-4,-3.66e-4 0.155739,-0.124582 0.15625,-0.125 5.11e-4,-4.18e-4 0.155783,-0.124533 0.15625,-0.125 4.67e-4,-4.67e-4 0.124582,-0.155739 0.125,-0.15625 4.18e-4,-5.11e-4 0.124634,-0.1557 0.125,-0.15625 3.66e-4,-5.5e-4 0.124691,-0.155666 0.125,-0.15625 3.09e-4,-5.84e-4 0.06225,-0.186889 0.0625,-0.1875 2.5e-4,-6.11e-4 0.06231,-0.186867 0.0625,-0.1875 1.88e-4,-6.33e-4 0.06238,-0.218101 0.0625,-0.21875 z m 0,10 c 1.24e-4,6.49e-4 0.06231,0.218117 0.0625,0.21875 1.88e-4,6.33e-4 0.06225,0.186889 0.0625,0.1875 2.5e-4,6.11e-4 0.06219,0.186916 0.0625,0.1875 3.09e-4,5.84e-4 0.124634,0.1557 0.125,0.15625 3.66e-4,5.5e-4 0.124582,0.155739 0.125,0.15625 4.18e-4,5.11e-4 0.124533,0.155783 0.125,0.15625 4.67e-4,4.67e-4 0.155739,0.124582 0.15625,0.125 5.11e-4,4.18e-4 0.1557,0.124634 0.15625,0.125 5.5e-4,3.66e-4 0.155666,0.124691 0.15625,0.125 5.84e-4,3.09e-4 0.186889,0.06225 0.1875,0.0625 6.11e-4,2.5e-4 0.186867,0.06231 0.1875,0.0625 5.5e-4,1.63e-4 0.148464,0.05303 0.1875,0.0625 -0.04867,0.01081 -0.124568,0.03113 -0.125,0.03125 -5.7e-4,1.54e-4 -0.186946,0.03105 -0.1875,0.03125 -5.54e-4,2.03e-4 -0.155716,0.0935 -0.15625,0.09375 -5.34e-4,2.52e-4 -0.155741,0.0622 -0.15625,0.0625 -5.09e-4,2.98e-4 -0.155769,0.09341 -0.15625,0.09375 -4.81e-4,3.42e-4 -0.124551,0.124616 -0.125,0.125 -4.49e-4,3.84e-4 -0.155837,0.124578 -0.15625,0.125 -4.13e-4,4.22e-4 -0.09338,0.124543 -0.09375,0.125 -3.74e-4,4.57e-4 -0.124668,0.155762 -0.125,0.15625 -3.32e-4,4.88e-4 -0.09346,0.155734 -0.09375,0.15625 -2.87e-4,5.16e-4 -0.06226,0.155711 -0.0625,0.15625 -2.4e-4,5.39e-4 -0.09356,0.155692 -0.09375,0.15625 -1.91e-4,5.58e-4 -0.03111,0.186927 -0.03125,0.1875 -1.14e-4,4.63e-4 -0.02243,0.08077 -0.03125,0.125 -1.24e-4,-6.49e-4 -0.06231,-0.218117 -0.0625,-0.21875 -1.88e-4,-6.33e-4 -0.06225,-0.186889 -0.0625,-0.1875 -2.5e-4,-6.11e-4 -0.06219,-0.186916 -0.0625,-0.1875 -3.09e-4,-5.84e-4 -0.124634,-0.1557 -0.125,-0.15625 -3.66e-4,-5.5e-4 -0.124582,-0.155739 -0.125,-0.15625 -4.18e-4,-5.11e-4 -0.124533,-0.155783 -0.125,-0.15625 -4.67e-4,-4.67e-4 -0.155739,-0.124582 -0.15625,-0.125 -5.11e-4,-4.18e-4 -0.1557,-0.124634 -0.15625,-0.125 -5.5e-4,-3.66e-4 -0.155666,-0.124691 -0.15625,-0.125 -5.84e-4,-3.09e-4 -0.186889,-0.06225 -0.1875,-0.0625 -6.11e-4,-2.5e-4 -0.186867,-0.06231 -0.1875,-0.0625 C 30.593117,63.062312 30.375649,63.00012 30.375,63 c 6.49e-4,-1.24e-4 0.218117,-0.06231 0.21875,-0.0625 6.33e-4,-1.88e-4 0.186889,-0.06225 0.1875,-0.0625 6.11e-4,-2.5e-4 0.186916,-0.06219 0.1875,-0.0625 5.84e-4,-3.09e-4 0.1557,-0.124634 0.15625,-0.125 5.5e-4,-3.66e-4 0.155739,-0.124582 0.15625,-0.125 5.11e-4,-4.18e-4 0.155783,-0.124533 0.15625,-0.125 4.67e-4,-4.67e-4 0.124582,-0.155739 0.125,-0.15625 4.18e-4,-5.11e-4 0.124634,-0.1557 0.125,-0.15625 3.66e-4,-5.5e-4 0.124691,-0.155666 0.125,-0.15625 3.09e-4,-5.84e-4 0.06225,-0.186889 0.0625,-0.1875 2.5e-4,-6.11e-4 0.06231,-0.186867 0.0625,-0.1875 1.88e-4,-6.33e-4 0.06238,-0.218101 0.0625,-0.21875 z"
       inkscape:connector-curvature="0"
       style="opacity:0.1;fill:black;fill-opacity:1;stroke:none" />
    <path
       id="path39"
       d="M 23.90625,23.96875 A 1.021158,1.021158 0 0 0 22.96875,25 l 0,6 A 1.021158,1.021158 0 0 0 24,32.03125 l 6,0 A 1.021158,1.021158 0 0 0 31.03125,31 l 0,-6 A 1.021158,1.021158 0 0 0 30,23.96875 l -6,0 a 1.021158,1.021158 0 0 0 -0.09375,0 z m 10,0 A 1.021158,1.021158 0 0 0 32.96875,25 l 0,6 A 1.021158,1.021158 0 0 0 34,32.03125 l 38,0 A 1.021158,1.021158 0 0 0 73.03125,31 l 0,-6 A 1.021158,1.021158 0 0 0 72,23.96875 l -38,0 a 1.021158,1.021158 0 0 0 -0.09375,0 z m -10,10 A 1.021158,1.021158 0 0 0 22.96875,35 l 0,6 A 1.021158,1.021158 0 0 0 24,42.03125 l 6,0 A 1.021158,1.021158 0 0 0 31.03125,41 l 0,-6 A 1.021158,1.021158 0 0 0 30,33.96875 l -6,0 a 1.021158,1.021158 0 0 0 -0.09375,0 z m 10,0 A 1.021158,1.021158 0 0 0 32.96875,35 l 0,6 A 1.021158,1.021158 0 0 0 34,42.03125 l 38,0 A 1.021158,1.021158 0 0 0 73.03125,41 l 0,-6 A 1.021158,1.021158 0 0 0 72,33.96875 l -38,0 a 1.021158,1.021158 0 0 0 -0.09375,0 z m -10,10 A 1.021158,1.021158 0 0 0 22.96875,45 l 0,6 A 1.021158,1.021158 0 0 0 24,52.03125 l 6,0 A 1.021158,1.021158 0 0 0 31.03125,51 l 0,-6 A 1.021158,1.021158 0 0 0 30,43.96875 l -6,0 a 1.021158,1.021158 0 0 0 -0.09375,0 z m 10,0 A 1.021158,1.021158 0 0 0 32.96875,45 l 0,6 A 1.021158,1.021158 0 0 0 34,52.03125 l 38,0 A 1.021158,1.021158 0 0 0 73.03125,51 l 0,-6 A 1.021158,1.021158 0 0 0 72,43.96875 l -38,0 a 1.021158,1.021158 0 0 0 -0.09375,0 z m -10,10 A 1.021158,1.021158 0 0 0 22.96875,55 l 0,6 A 1.021158,1.021158 0 0 0 24,62.03125 l 6,0 A 1.021158,1.021158 0 0 0 31.03125,61 l 0,-6 A 1.021158,1.021158 0 0 0 30,53.96875 l -6,0 a 1.021158,1.021158 0 0 0 -0.09375,0 z m 10,0 A 1.021158,1.021158 0 0 0 32.96875,55 l 0,6 A 1.021158,1.021158 0 0 0 34,62.03125 l 38,0 A 1.021158,1.021158 0 0 0 73.03125,61 l 0,-6 A 1.021158,1.021158 0 0 0 72,53.96875 l -38,0 a 1.021158,1.021158 0 0 0 -0.09375,0 z m -10,10 A 1.021158,1.021158 0 0 0 22.96875,65 l 0,6 A 1.021158,1.021158 0 0 0 24,72.03125 l 6,0 A 1.021158,1.021158 0 0 0 31.03125,71 l 0,-6 A 1.021158,1.021158 0 0 0 30,63.96875 l -6,0 a 1.021158,1.021158 0 0 0 -0.09375,0 z m 10,0 A 1.021158,1.021158 0 0 0 32.96875,65 l 0,6 A 1.021158,1.021158 0 0 0 34,72.03125 l 38,0 A 1.021158,1.021158 0 0 0 73.03125,71 l 0,-6 A 1.021158,1.021158 0 0 0 72,63.96875 l -38,0 a 1.021158,1.021158 0 0 0 -0.09375,0 z"
       inkscape:connector-curvature="0"
       style="opacity:0.15;fill:black;fill-opacity:1;stroke:none" />
    <path
       id="path41"
       inkscape:connector-curvature="0"
       d="m 24,25 0,6 6,0 0,-6 -6,0 z m 10,0 0,6 38,0 0,-6 -38,0 z m -8,2 2,0 0,2 -2,0 0,-2 z m -2,8 0,6 6,0 0,-6 -6,0 z m 10,0 0,6 38,0 0,-6 -38,0 z m -8,2 2,0 0,2 -2,0 0,-2 z m -2,8 0,6 6,0 0,-6 -6,0 z m 10,0 0,6 38,0 0,-6 -38,0 z m -8,2 2,0 0,2 -2,0 0,-2 z m -2,8 0,6 6,0 0,-6 -6,0 z m 10,0 0,6 38,0 0,-6 -38,0 z m -8,2 2,0 0,2 -2,0 0,-2 z m -2,8 0,6 6,0 0,-6 -6,0 z m 10,0 0,6 38,0 0,-6 -38,0 z m -8,2 2,0 0,2 -2,0 0,-2 z"
       style="opacity:0.3;fill:black;fill-opacity:1;stroke:none" />
    <path
       id="path43"
       inkscape:connector-curvature="0"
       d="m 24,24 0,6 6,0 0,-6 -6,0 z m 10,0 0,6 38,0 0,-6 -38,0 z m -8,2 2,0 0,2 -2,0 0,-2 z m -2,8 0,6 6,0 0,-6 -6,0 z m 10,0 0,6 38,0 0,-6 -38,0 z m -8,2 2,0 0,2 -2,0 0,-2 z m -2,8 0,6 6,0 0,-6 -6,0 z m 10,0 0,6 38,0 0,-6 -38,0 z m -8,2 2,0 0,2 -2,0 0,-2 z m -2,8 0,6 6,0 0,-6 -6,0 z m 10,0 0,6 38,0 0,-6 -38,0 z m -8,2 2,0 0,2 -2,0 0,-2 z m -2,8 0,6 6,0 0,-6 -6,0 z m 10,0 0,6 38,0 0,-6 -38,0 z m -8,2 2,0 0,2 -2,0 0,-2 z"
       style="fill:url(#linearGradient3818);fill-opacity:1;stroke:none" />
    <path
       id="path45"
       inkscape:connector-curvature="0"
       d="m 24,24 0,1 6,0 0,-1 -6,0 z m 10,0 0,1 38,0 0,-1 -38,0 z m -8,4 0,1 2,0 0,-1 -2,0 z m -2,6 0,1 6,0 0,-1 -6,0 z m 10,0 0,1 38,0 0,-1 -38,0 z m -8,4 0,1 2,0 0,-1 -2,0 z m -2,6 0,1 6,0 0,-1 -6,0 z m 10,0 0,1 38,0 0,-1 -38,0 z m -8,4 0,1 2,0 0,-1 -2,0 z m -2,6 0,1 6,0 0,-1 -6,0 z m 10,0 0,1 38,0 0,-1 -38,0 z m -8,4 0,1 2,0 0,-1 -2,0 z m -2,6 0,1 6,0 0,-1 -6,0 z m 10,0 0,1 38,0 0,-1 -38,0 z m -8,4 0,1 2,0 0,-1 -2,0 z"
       style="opacity:0.75;fill:white;fill-opacity:1;stroke:none" />
    <path
       id="path47"
       inkscape:connector-curvature="0"
       d="m 26,25 0,1 2,0 0,-1 -2,0 z m -2,4 0,1 6,0 0,-1 -6,0 z m 10,0 0,1 38,0 0,-1 -38,0 z m -8,6 0,1 2,0 0,-1 -2,0 z m -2,4 0,1 6,0 0,-1 -6,0 z m 10,0 0,1 38,0 0,-1 -38,0 z m -8,6 0,1 2,0 0,-1 -2,0 z m -2,4 0,1 6,0 0,-1 -6,0 z m 10,0 0,1 38,0 0,-1 -38,0 z m -8,6 0,1 2,0 0,-1 -2,0 z m -2,4 0,1 6,0 0,-1 -6,0 z m 10,0 0,1 38,0 0,-1 -38,0 z m -8,6 0,1 2,0 0,-1 -2,0 z m -2,4 0,1 6,0 0,-1 -6,0 z m 10,0 0,1 38,0 0,-1 -38,0 z"
       style="opacity:0.15;fill:black;fill-opacity:1;stroke:none" />
  </g>
</svg>
