<?xml version="1.0" encoding="UTF-8" standalone="no"?>
<svg
   xmlns:dc="http://purl.org/dc/elements/1.1/"
   xmlns:cc="http://creativecommons.org/ns#"
   xmlns:rdf="http://www.w3.org/1999/02/22-rdf-syntax-ns#"
   xmlns:svg="http://www.w3.org/2000/svg"
   xmlns="http://www.w3.org/2000/svg"
   xmlns:xlink="http://www.w3.org/1999/xlink"
   xmlns:sodipodi="http://sodipodi.sourceforge.net/DTD/sodipodi-0.dtd"
   xmlns:inkscape="http://www.inkscape.org/namespaces/inkscape"
   display="inline"
   height="96"
   width="96"
   id="svg2"
   version="1.1"
   inkscape:version="0.91 r13725"
   sodipodi:docname="document-print.svg">
  <metadata
     id="metadata51">
    <rdf:RDF>
      <cc:Work
         rdf:about="">
        <dc:format>image/svg+xml</dc:format>
        <dc:type
           rdf:resource="http://purl.org/dc/dcmitype/StillImage" />
      </cc:Work>
    </rdf:RDF>
  </metadata>
  <sodipodi:namedview
     pagecolor="#ffffff"
     bordercolor="#666666"
     borderopacity="1"
     objecttolerance="10"
     gridtolerance="10"
     guidetolerance="10"
     inkscape:pageopacity="0"
     inkscape:pageshadow="2"
     inkscape:window-width="760"
     inkscape:window-height="480"
     id="namedview49"
     showgrid="false"
     inkscape:zoom="6.9532167"
     inkscape:cx="48.98308"
     inkscape:cy="7.6610751"
     inkscape:window-x="138"
     inkscape:window-y="112"
     inkscape:window-maximized="0"
     inkscape:current-layer="svg2" />
  <defs
     id="defs4">
    <linearGradient
       x2="0"
       y1="17.478"
       y2="0.922"
       gradientUnits="userSpaceOnUse"
       id="linearGradient2869"
       gradientTransform="matrix(3.789184,0,0,4.4549991,-9.6122914,5.4772646)">
      <stop
         stop-color="#4d4d4d"
         stop-opacity="1"
         id="stop7" />
      <stop
         stop-color="#1a1a1a"
         stop-opacity="1"
         offset="1"
         id="stop9" />
    </linearGradient>
    <linearGradient
       x2="0"
       y1="92.54"
       y2="7.02"
       gradientUnits="userSpaceOnUse"
       id="ButtonShadow-0"
       gradientTransform="matrix(1.0059 0 0 0.99417 100 0)">
      <stop
         stop-color="#000000"
         stop-opacity="1"
         id="stop12" />
      <stop
         stop-color="#000000"
         stop-opacity="0.588"
         offset="1"
         id="stop14" />
    </linearGradient>
    <linearGradient
       x2="0"
       xlink:href="#ButtonShadow-0"
       y1="6.132"
       y2="90.24"
       gradientUnits="userSpaceOnUse"
       id="linearGradient3780"
       gradientTransform="matrix(1.02381 0 0 -1.0119 -1.143 98.07)" />
    <linearGradient
       x2="0"
       xlink:href="#ButtonShadow-0"
       y1="6.132"
       y2="90.24"
       gradientUnits="userSpaceOnUse"
       id="linearGradient3721-6"
       gradientTransform="matrix(1 0 0 -1 0 97)" />
    <radialGradient
       cy="90.17"
       r="42"
       gradientUnits="userSpaceOnUse"
       id="radialGradient3619-3"
       cx="48"
       gradientTransform="matrix(1.15731 0 0 0.99591 -7.551 0.197)">
      <stop
         stop-color="#ffffff"
         stop-opacity="1"
         id="stop19" />
      <stop
         stop-color="#ffffff"
         stop-opacity="0"
         offset="1"
         id="stop21" />
    </radialGradient>
  </defs>
  <path
     style="fill:url(#linearGradient2869);fill-opacity:1;stroke:none"
     d="m 25.462987,9.5846354 c -3.405138,0 -6.146459,2.7413206 -6.146459,6.1464586 l 0,22.537013 -2.04882,0 c -3.405138,0 -6.146459,2.74132 -6.146459,6.146458 l 0,20.488196 c 0,3.405138 2.741321,6.146458 6.146459,6.146458 l 2.04882,0 0,6.146459 c 0,3.405138 2.741321,6.146458 6.146459,6.146458 l 45.074026,0 c 3.405138,0 6.146458,-2.74132 6.146458,-6.146458 l 0,-6.146459 2.048821,0 c 3.405138,0 6.146458,-2.74132 6.146458,-6.146458 l 0,-20.488196 c 0,-3.405131 -2.74132,-6.146458 -6.146458,-6.146458 l -1.920768,0 -0.128062,0 0,-22.537013 c 0,-3.405138 -2.74132,-6.1464586 -6.146458,-6.1464586 l -45.074017,0 z m 4.097638,8.1952786 36.87875,0 c 1.135045,0 2.04882,0.913773 2.04882,2.048818 l 0,18.439375 0,4.097641 -40.976391,0 0,-4.097641 0,-18.439375 c 0,-1.135045 0.913776,-2.048818 2.048821,-2.048818 z m 2.04882,8.195276 0,4.097641 32.909162,0 0,-4.097641 -32.909162,0 z m 0,8.195279 0,4.097638 24.585834,0 0,-4.097638 -24.585834,0 z m 34.82993,16.390555 c 1.130948,0 2.04882,0.917872 2.04882,2.04882 4e-6,1.130949 -0.917872,2.048821 -2.04882,2.048821 -1.130948,0 -2.04882,-0.917872 -2.04882,-2.048821 0,-1.130948 0.917872,-2.04882 2.04882,-2.04882 z m 8.195279,0 c 1.130951,0 2.048817,0.917872 2.048817,2.04882 6e-6,1.130949 -0.917869,2.048821 -2.048817,2.048821 -1.130945,0 -2.048821,-0.917872 -2.048821,-2.048821 3e-6,-1.130948 0.917873,-2.04882 2.048821,-2.04882 z m -47.12285,16.390557 40.976391,0 0,4.097638 0,2.048821 c 0,1.135045 -0.913775,2.048817 -2.04882,2.048817 l -36.87875,0 c -1.135045,0 -2.048821,-0.913772 -2.048821,-2.048817 l 0,-2.048821 0,-4.097638 z"
     inkscape:connector-curvature="0"
     id="path43" />
  <path
     style="opacity:0.75;fill:#ffffff;fill-opacity:1;stroke:none"
     d="m 25.478992,9.5846354 c -3.405138,0 -6.146458,2.7413206 -6.146458,6.1464586 l 0,1.536614 c 0,-3.405138 2.74132,-6.146458 6.146458,-6.146458 l 45.042016,0 c 3.405137,0 6.146458,2.74132 6.146458,6.146458 l 0,-1.536614 c 0,-3.405138 -2.741321,-6.1464586 -6.146458,-6.1464586 l -45.042016,0 z m 6.146458,16.3745496 0,1.536614 32.893157,0 0,-1.536614 -32.893157,0 z m 0,8.211284 0,1.536615 24.585834,0 0,-1.536615 -24.585834,0 z m -14.357742,4.081633 c -3.405138,0 -6.146459,2.74132 -6.146459,6.146458 l 0,1.536615 c 0,-3.405138 2.741321,-6.146459 6.146459,-6.146459 l 2.064826,0 0,-1.536614 -2.064826,0 z m 59.399758,0 0,1.536614 0.144058,0 1.920768,0 c 3.405138,0 6.146458,2.741327 6.146458,6.146459 l 0,-1.536615 c 0,-3.405132 -2.74132,-6.146458 -6.146458,-6.146458 l -1.920768,0 -0.144058,0 z m -49.171667,4.129651 0,1.536615 41.008402,0 0,-1.536615 -41.008402,0 z m 37.070827,10.996399 c -0.09321,0.234149 -0.192077,0.501062 -0.192077,0.768307 0,1.130948 0.933878,2.064826 2.064826,2.064826 1.130948,0 2.064829,-0.933878 2.064826,-2.064826 0,-0.267245 -0.09887,-0.534158 -0.192077,-0.768307 -0.301229,0.756744 -1.009046,1.296518 -1.872749,1.296518 -0.863703,0 -1.57152,-0.539774 -1.872749,-1.296518 z m 8.163265,0.04802 c -0.08176,0.221172 -0.144058,0.470814 -0.144058,0.720288 0,1.130948 0.933881,2.064826 2.064826,2.064826 1.130949,0 2.016813,-0.933878 2.016807,-2.064826 0,-0.249474 -0.06229,-0.499116 -0.144058,-0.720288 -0.311163,0.73527 -1.024537,1.248499 -1.872749,1.248499 -0.848208,0 -1.609602,-0.513229 -1.920768,-1.248499 z m -45.234092,19.687874 0,1.536615 c 0,1.135045 0.929781,2.016807 2.064826,2.016807 l 36.87875,0 c 1.135045,0 2.064826,-0.881762 2.064826,-2.016807 l 0,-1.536615 c 0,1.135045 -0.929781,2.016807 -2.064826,2.016807 l -36.87875,0 c -1.135045,0 -2.064826,-0.881762 -2.064826,-2.016807 z"
     inkscape:connector-curvature="0"
     id="path45" />
  <path
     style="opacity:0.15;fill:#000000;fill-opacity:1;stroke:none"
     d="m 29.560625,16.259305 c -1.135045,0 -2.064826,0.881762 -2.064826,2.016807 l 0,1.536614 c 0,-1.135045 0.929781,-2.016806 2.064826,-2.016806 l 36.87875,0 c 1.135045,0 2.064826,0.881761 2.064826,2.016806 l 0,-1.536614 c 0,-1.135045 -0.929781,-2.016807 -2.064826,-2.016807 l -36.87875,0 z m 2.064825,12.292917 0,1.536614 32.893157,0 0,-1.536614 -32.893157,0 z m 0,8.163265 0,1.536615 24.585834,0 0,-1.536615 -24.585834,0 z m 34.813925,12.292917 c -1.130948,0 -2.064826,0.933877 -2.064826,2.064826 0,0.267245 0.09887,0.534158 0.192077,0.768307 0.301229,-0.756744 1.009046,-1.296519 1.872749,-1.296519 0.863703,0 1.57152,0.539775 1.872749,1.296519 0.09321,-0.234149 0.192077,-0.501062 0.192077,-0.768307 0,-1.130949 -0.933878,-2.064826 -2.064826,-2.064826 z m 8.211284,0 c -1.130948,0 -2.064823,0.933877 -2.064826,2.064826 0,0.249474 0.0623,0.499115 0.144058,0.720288 0.311164,-0.73527 1.072557,-1.2485 1.920768,-1.2485 0.848215,0 1.561586,0.51323 1.872749,1.2485 0.08176,-0.221173 0.144058,-0.470814 0.144058,-0.720288 0,-1.130949 -0.885855,-2.064826 -2.016807,-2.064826 z m -63.52941,14.357742 0,1.536615 c 0,3.405138 2.741321,6.146458 6.146459,6.146458 l 2.064826,0 0,-1.536614 -2.064826,0 c -3.405138,0 -6.146459,-2.741321 -6.146459,-6.146459 z m 73.757501,0 c 0,3.405138 -2.74132,6.146459 -6.146458,6.146459 l -2.064826,0 0,1.536614 2.064826,0 c 3.405138,0 6.146458,-2.74132 6.146458,-6.146458 l 0,-1.536615 z m -57.382951,2.064826 0,1.536615 41.008402,0 0,-1.536615 -41.008402,0 z m -8.163265,10.228091 0,1.536615 c 0,3.405138 2.74132,6.146458 6.146458,6.146458 l 45.042016,0 c 3.405137,0 6.146458,-2.74132 6.146458,-6.146458 l 0,-1.536615 c 0,3.405138 -2.741321,6.146459 -6.146458,6.146459 l -45.042016,0 c -3.405138,0 -6.146458,-2.741321 -6.146458,-6.146459 z"
     inkscape:connector-curvature="0"
     id="path47" />
</svg>
