<svg height="16" width="16" xmlns="http://www.w3.org/2000/svg" xmlns:sodipodi="http://sodipodi.sourceforge.net/DTD/sodipodi-0.dtd" xmlns:inkscape="http://www.inkscape.org/namespaces/inkscape">
 <path d="m 0.359,7.0163191 3.1964787,4.8062519 3.4363003,-4.8062519 -2.2321542,0 C 4.954073,4.8389483 6.7477141,3.1470005 8.9449141,3.1470005 c 2.3273939,1.2e-6 4.2085409,1.9088008 4.2085409,4.2704064 0,2.3616041 -1.881147,4.2704051 -4.2085409,4.2704051 l 0,2.147 c 3.4910909,0 6.3244379,-2.874998 6.3244379,-6.4174051 C 15.269353,3.8749998 12.436005,1 8.9449141,1 5.5864088,1 2.8477449,3.660275 2.6437286,7.0163191 l -2.2847286,0 z M 8.6398474,3.5868692 8.013594,8.2740819 11.896528,9.5991908 9.3372957,7.324121 8.6398474,3.5868692 z" display="inline" fill="#bebebe" fill-opacity="1" stroke="none" sodipodi:nodetypes="ccccssccssccccccc" inkscape:transform-center-x="0.88591109" inkscape:transform-center-y="-0.582594" inkscape:label="Arrow" inkscape:groupmode="layer" inkscape:connector-curvature="0"/>
</svg>
