<?xml version="1.0" encoding="UTF-8" standalone="no"?>
<svg
   xmlns:dc="http://purl.org/dc/elements/1.1/"
   xmlns:cc="http://creativecommons.org/ns#"
   xmlns:rdf="http://www.w3.org/1999/02/22-rdf-syntax-ns#"
   xmlns:svg="http://www.w3.org/2000/svg"
   xmlns="http://www.w3.org/2000/svg"
   xmlns:xlink="http://www.w3.org/1999/xlink"
   xmlns:sodipodi="http://sodipodi.sourceforge.net/DTD/sodipodi-0.dtd"
   xmlns:inkscape="http://www.inkscape.org/namespaces/inkscape"
   display="inline"
   height="96"
   width="96"
   id="svg2"
   version="1.1"
   inkscape:version="0.91 r13725"
   sodipodi:docname="document-page-setup.svg">
  <metadata
     id="metadata65">
    <rdf:RDF>
      <cc:Work
         rdf:about="">
        <dc:format>image/svg+xml</dc:format>
        <dc:type
           rdf:resource="http://purl.org/dc/dcmitype/StillImage" />
      </cc:Work>
    </rdf:RDF>
  </metadata>
  <sodipodi:namedview
     pagecolor="#ffffff"
     bordercolor="#666666"
     borderopacity="1"
     objecttolerance="10"
     gridtolerance="10"
     guidetolerance="10"
     inkscape:pageopacity="0"
     inkscape:pageshadow="2"
     inkscape:window-width="760"
     inkscape:window-height="480"
     id="namedview63"
     showgrid="false"
     inkscape:zoom="6.9532167"
     inkscape:cx="73.220515"
     inkscape:cy="26.680717"
     inkscape:window-x="182"
     inkscape:window-y="156"
     inkscape:window-maximized="0"
     inkscape:current-layer="svg2" />
  <defs
     id="defs4">
    <linearGradient
       id="linearGradient4081">
      <stop
         stop-color="#4d4d4d"
         stop-opacity="1"
         id="stop7" />
      <stop
         stop-color="#1a1a1a"
         stop-opacity="1"
         offset="1"
         id="stop9" />
    </linearGradient>
    <linearGradient
       x2="0"
       xlink:href="#linearGradient4081"
       y1="72.09"
       y2="23.729"
       gradientUnits="userSpaceOnUse"
       id="linearGradient3746"
       gradientTransform="matrix(1.26316 0 0 1 81.05 0)" />
    <linearGradient
       x2="0"
       xlink:href="#linearGradient4081"
       y1="74"
       y2="21.914"
       gradientUnits="userSpaceOnUse"
       id="linearGradient3762"
       gradientTransform="matrix(1.4230892,0,0,1.4230892,-20.311985,-21.731373)" />
    <radialGradient
       cy="90.17"
       r="42"
       gradientUnits="userSpaceOnUse"
       id="radialGradient3619-5"
       cx="48"
       gradientTransform="matrix(1.15731 0 0 0.99591 -7.551 0.197)">
      <stop
         stop-color="#ffffff"
         stop-opacity="1"
         id="stop14" />
      <stop
         stop-color="#ffffff"
         stop-opacity="0"
         offset="1"
         id="stop16" />
    </radialGradient>
    <linearGradient
       x2="0"
       y1="92.54"
       y2="7.02"
       gradientUnits="userSpaceOnUse"
       id="ButtonShadow-0"
       gradientTransform="matrix(1.0059 0 0 0.99417 100 0)">
      <stop
         stop-color="#000000"
         stop-opacity="1"
         id="stop19" />
      <stop
         stop-color="#000000"
         stop-opacity="0.588"
         offset="1"
         id="stop21" />
    </linearGradient>
    <linearGradient
       x2="0"
       xlink:href="#ButtonShadow-0"
       y1="6.132"
       y2="90.24"
       gradientUnits="userSpaceOnUse"
       id="linearGradient3780"
       gradientTransform="matrix(1.02381 0 0 -1.0119 -1.143 98.07)" />
    <linearGradient
       x2="0"
       xlink:href="#ButtonShadow-0"
       y1="6.132"
       y2="90.24"
       gradientUnits="userSpaceOnUse"
       id="linearGradient3721-5"
       gradientTransform="matrix(1 0 0 -1 0 97)" />
  </defs>
  <path
     style="color:#000000;visibility:visible;fill:url(#linearGradient3762);fill-opacity:1;fill-rule:nonzero;stroke:none;stroke-width:1"
     d="m 23.22565,9.5765894 c -3.613461,0 -6.537316,2.9658706 -6.537316,6.6262586 l 0,60.748121 c 0,3.660389 2.923855,6.626259 6.537316,6.626259 l 49.541293,0 c 3.613461,0 6.537316,-2.96587 6.537316,-6.626259 l 0,-60.748121 c 0,-3.660388 -2.923855,-6.6262586 -6.537316,-6.6262586 l -49.541293,0 z m 4.847398,8.5385356 1.423089,0 37.000319,0 1.423089,0 c 1.576783,0 2.846179,1.269395 2.846179,2.846178 l 0,1.423089 0,48.385033 0,1.423089 c 0,1.576783 -1.269396,2.846179 -2.846179,2.846179 l -1.423089,0 -37.000319,0 -1.423089,0 c -1.576783,0 -2.846179,-1.269396 -2.846179,-2.846179 l 0,-1.423089 0,-48.385033 0,-1.423089 c 0,-1.576783 1.269396,-2.846178 2.846179,-2.846178 z m 2.846178,5.692356 0,45.538855 34.154141,0 -34.154141,-45.538855 z m 5.692357,17.077071 17.07707,22.769427 -17.07707,0 0,-22.769427 z"
     visibility="visible"
     inkscape:connector-curvature="0"
     id="path57" />
  <path
     style="color:#000000;visibility:visible;opacity:0.75;fill:#ffffff;fill-opacity:1;fill-rule:nonzero;stroke:none;stroke-width:1"
     d="m 23.22565,9.5765894 c -3.613461,0 -6.537316,2.9658706 -6.537316,6.6262586 l 0,1.42309 c 0,-3.660389 2.923855,-6.626259 6.537316,-6.626259 l 49.541293,0 c 3.613461,0 6.537316,2.96587 6.537316,6.626259 l 0,-1.42309 c 0,-3.660388 -2.923855,-6.6262586 -6.537316,-6.6262586 l -49.541293,0 z m 7.693576,14.2308916 0,1.42309 33.086824,44.115765 1.067317,0 -34.154141,-45.538855 z m 5.692357,39.846498 0,1.423089 17.07707,0 -1.067317,-1.423089 -16.009753,0 z m -11.384714,8.538535 0,1.423089 c 0,1.576783 1.269396,2.846179 2.846179,2.846179 l 1.423089,0 37.000319,0 1.423089,0 c 1.576783,0 2.846179,-1.269396 2.846179,-2.846179 l 0,-1.423089 c 0,1.576783 -1.269396,2.846179 -2.846179,2.846179 l -1.423089,0 -37.000319,0 -1.423089,0 c -1.576783,0 -2.846179,-1.269396 -2.846179,-2.846179 z"
     visibility="visible"
     inkscape:connector-curvature="0"
     id="path59" />
  <path
     style="color:#000000;visibility:visible;opacity:0.15;fill:#000000;fill-opacity:1;fill-rule:nonzero;stroke:none;stroke-width:1"
     d="m 28.073048,16.692035 c -1.576783,0 -2.846179,1.269396 -2.846179,2.846179 l 0,1.423089 c 0,-1.576783 1.269396,-2.846178 2.846179,-2.846178 l 1.423089,0 37.000319,0 1.423089,0 c 1.576783,0 2.846179,1.269395 2.846179,2.846178 l 0,-1.423089 c 0,-1.576783 -1.269396,-2.846179 -2.846179,-2.846179 l -1.423089,0 -37.000319,0 -1.423089,0 z m 8.538535,22.769428 0,1.423089 16.009753,21.346338 1.067317,0 -17.07707,-22.769427 z m -5.692357,28.461784 0,1.423089 34.154141,0 -1.067317,-1.423089 -33.086824,0 z m -14.230892,7.604633 0,1.423089 c 0,3.660389 2.923855,6.626259 6.537316,6.626259 l 49.541293,0 c 3.613461,0 6.537316,-2.96587 6.537316,-6.626259 l 0,-1.423089 c 0,3.660388 -2.923855,6.626259 -6.537316,6.626259 l -49.541293,0 c -3.613461,0 -6.537316,-2.965871 -6.537316,-6.626259 z"
     visibility="visible"
     inkscape:connector-curvature="0"
     id="path61" />
</svg>
