<svg display="inline" height="96" width="96" xmlns="http://www.w3.org/2000/svg" xmlns:xlink="http://www.w3.org/1999/xlink" xmlns:sodipodi="http://sodipodi.sourceforge.net/DTD/sodipodi-0.dtd" xmlns:inkscape="http://www.inkscape.org/namespaces/inkscape">
 <defs>
  <linearGradient x2="0" y1="92.54" y2="7.02" gradientUnits="userSpaceOnUse" id="ButtonShadow-0" gradientTransform="matrix(1.0059 0 0 0.99417 100 0)">
   <stop stop-color="#000000" stop-opacity="1"/>
   <stop stop-color="#000000" stop-opacity="0.588" offset="1"/>
  </linearGradient>
  <linearGradient x2="0" xlink:href="#ButtonShadow-0" y1="6.132" y2="90.24" gradientUnits="userSpaceOnUse" id="linearGradient3780" gradientTransform="matrix(1.02381 0 0 -1.0119 -1.143 98.07)"/>
  <linearGradient x2="0" xlink:href="#ButtonShadow-0" y1="6.132" y2="90.24" gradientUnits="userSpaceOnUse" id="linearGradient3721-7" gradientTransform="matrix(1 0 0 -1 0 97)"/>
  <radialGradient cy="90.17" r="42" gradientUnits="userSpaceOnUse" id="radialGradient3619-2" cx="48" gradientTransform="matrix(1.15731 0 0 0.99591 -7.551 0.197)">
   <stop stop-color="#ffffff" stop-opacity="1"/>
   <stop stop-color="#ffffff" stop-opacity="0" offset="1"/>
  </radialGradient>
  <linearGradient x2="0" y1="24" y2="72" gradientUnits="userSpaceOnUse" id="linearGradient4002">
   <stop stop-color="#f0f0f0" stop-opacity="1"/>
   <stop stop-color="#aaaaaa" stop-opacity="1" offset="1"/>
  </linearGradient>
 </defs>
 <path d="M 12,3.96875 C 6.4889098,3.96875 1.96875,8.4889098 1.96875,14 l 0,71 c 0,5.51109 4.5201597,10.03125 10.03125,10.03125 l 72,0 c 5.51109,0 10.03125,-4.52016 10.03125,-10.03125 l 0,-71 C 94.03125,8.4889097 89.51109,3.96875 84,3.96875 l -72,0 z M 12,6 84,6 c 3.324,0 6,2.676 6,6 l 0,72 c 0,3.324 -2.676,6 -6,6 L 12,90 C 8.676,90 6,87.324 6,84 L 6,12 C 6,8.676 8.676,6 12,6 z" fill="url(#linearGradient3780)" fill-opacity="1" fill-rule="nonzero" stroke="none" opacity="0.08" inkscape:connector-curvature="0"/>
 <path d="M 12,4.96875 C 7.0283671,4.96875 2.96875,9.0283671 2.96875,14 l 0,71 c 0,4.971633 4.059617,9.03125 9.03125,9.03125 l 72,0 c 4.971633,0 9.03125,-4.059617 9.03125,-9.03125 l 0,-71 C 93.03125,9.028367 88.971633,4.96875 84,4.96875 l -72,0 z M 12,6 84,6 c 3.324,0 6,2.676 6,6 l 0,72 c 0,3.324 -2.676,6 -6,6 L 12,90 C 8.676,90 6,87.324 6,84 L 6,12 C 6,8.676 8.676,6 12,6 z" fill="url(#linearGradient3780)" fill-opacity="1" fill-rule="nonzero" stroke="none" opacity="0.1" inkscape:connector-curvature="0"/>
 <path d="M 11.1875,6.03125 C 7.159982,6.4419011 4,9.8664375 4,14 l 0,71 c 0,4.409133 3.590867,8 8,8 l 72,0 c 4.409133,0 8,-3.590867 8,-8 L 92,14 C 92,9.8029382 88.741028,6.3539584 84.625,6.03125 87.657886,6.337417 90,8.88375 90,12 l 0,72 c 0,3.324 -2.676,6 -6,6 L 12,90 C 8.676,90 6,87.324 6,84 L 6,12 c 0,-3.11625 2.342114,-5.662583 5.375,-5.96875 -0.06227,0.00488 -0.12563,-0.00631 -0.1875,0 z" fill="url(#linearGradient3780)" fill-opacity="1" fill-rule="nonzero" stroke="none" opacity="0.2" inkscape:connector-curvature="0"/>
 <path d="M 6.4375,9.75 C 5.5380109,10.927446 5,12.397277 5,14 l 0,71 c 0,3.878 3.122,7 7,7 l 72,0 c 3.878,0 7,-3.122 7,-7 L 91,14 C 91,12.397277 90.461989,10.927446 89.5625,9.75 89.841816,10.444095 90,11.203625 90,12 l 0,72 c 0,3.324 -2.676,6 -6,6 L 12,90 C 8.676,90 6,87.324 6,84 L 6,12 C 6,11.203625 6.1581836,10.444095 6.4375,9.75 z" fill="url(#linearGradient3780)" fill-opacity="1" fill-rule="nonzero" stroke="none" opacity="0.3" inkscape:connector-curvature="0"/>
 <path d="m 6,84 0,1 c 0,3.324 2.676,6 6,6 l 72,0 c 3.324,0 6,-2.676 6,-6 l 0,-1 c 0,3.324 -2.676,6 -6,6 L 12,90 C 8.676,90 6,87.324 6,84 z" fill="url(#linearGradient3721-7)" fill-opacity="1" fill-rule="nonzero" stroke="none" opacity="0.45" inkscape:connector-curvature="0"/>
 <rect x="6" rx="6" y="6" fill="#000000" fill-opacity="1" fill-rule="nonzero" stroke="none" height="84" opacity="0.6" width="84"/>
 <path d="M 12,90 C 8.676,90 6,87.324 6,84 L 6,82 6,14 6,12 c 0,-0.334721 0.04135,-0.6507 0.09375,-0.96875 0.0487,-0.295596 0.09704,-0.596915 0.1875,-0.875 C 6.29113,10.12587 6.302142,10.09265 6.3125,10.0625 6.411365,9.774729 6.5473802,9.515048 6.6875,9.25 6.8320918,8.976493 7.0031161,8.714385 7.1875,8.46875 7.3718839,8.223115 7.5612765,7.995278 7.78125,7.78125 8.221197,7.353194 8.72416,6.966724 9.28125,6.6875 9.559795,6.547888 9.8547231,6.440553 10.15625,6.34375 9.9000482,6.443972 9.6695391,6.580022 9.4375,6.71875 c -0.00741,0.0044 -0.023866,-0.0045 -0.03125,0 -0.031933,0.0193 -0.062293,0.04251 -0.09375,0.0625 -0.120395,0.0767 -0.2310226,0.163513 -0.34375,0.25 -0.1061728,0.0808 -0.2132809,0.161112 -0.3125,0.25 C 8.4783201,7.442683 8.3087904,7.626638 8.15625,7.8125 8.0486711,7.942755 7.9378561,8.077785 7.84375,8.21875 7.818661,8.25713 7.805304,8.30462 7.78125,8.34375 7.716487,8.446782 7.6510225,8.548267 7.59375,8.65625 7.4927417,8.850956 7.3880752,9.071951 7.3125,9.28125 7.30454,9.30306 7.288911,9.3218 7.28125,9.34375 7.2494249,9.4357 7.2454455,9.530581 7.21875,9.625 7.1884177,9.731618 7.1483606,9.828031 7.125,9.9375 7.0521214,10.279012 7,10.635705 7,11 l 0,2 0,68 0,2 c 0,2.781848 2.2181517,5 5,5 l 2,0 68,0 2,0 c 2.781848,0 5,-2.218152 5,-5 l 0,-2 0,-68 0,-2 C 89,10.635705 88.94788,10.279012 88.875,9.9375 88.83085,9.730607 88.78662,9.539842 88.71875,9.34375 88.71105,9.3218 88.69545,9.30306 88.6875,9.28125 88.62476,9.107511 88.549117,8.913801 88.46875,8.75 88.42717,8.6672 88.38971,8.580046 88.34375,8.5 88.28915,8.40279 88.216976,8.31165 88.15625,8.21875 88.06214,8.077785 87.951329,7.942755 87.84375,7.8125 87.700576,7.63805 87.540609,7.465502 87.375,7.3125 87.36383,7.3023 87.35502,7.29135 87.34375,7.28125 87.205364,7.155694 87.058659,7.046814 86.90625,6.9375 86.803679,6.86435 86.701932,6.784136 86.59375,6.71875 c -0.0074,-0.0045 -0.02384,0.0044 -0.03125,0 -0.232039,-0.138728 -0.462548,-0.274778 -0.71875,-0.375 0.301527,0.0968 0.596455,0.204138 0.875,0.34375 0.55709,0.279224 1.060053,0.665694 1.5,1.09375 0.219973,0.214028 0.409366,0.441865 0.59375,0.6875 0.184384,0.245635 0.355408,0.507743 0.5,0.78125 0.14012,0.265048 0.276135,0.524729 0.375,0.8125 0.01041,0.03078 0.02133,0.06274 0.03125,0.09375 0.09046,0.278085 0.1388,0.579404 0.1875,0.875 C 89.95865,11.3493 90,11.665279 90,12 l 0,2 0,68 0,2 c 0,3.324 -2.676,6 -6,6 l -72,0 z" fill="url(#radialGradient3619-2)" fill-opacity="1" fill-rule="nonzero" stroke="none" opacity="0.15" inkscape:connector-curvature="0"/>
 <path d="M 27.59375,23 C 24.521902,23 22,25.521902 22,28.59375 l 0,26.84375 c 0,3.069103 2.505515,5.625 5.59375,5.625 l 20.8125,0 c 0.0016,0.0411 0,0.09375 0,0.09375 l 0.03125,0.125 0.03125,0.15625 0.03125,0.125 0.03125,0.15625 0.0625,0.125 0.0625,0.125 0.0625,0.125 0.09375,0.125 0.09375,0.09375 10.75,12 0.0625,0.09375 0.09375,0.0625 0.0625,0.0625 0.09375,0.0625 0.09375,0.0625 0.09375,0.0625 0.09375,0.0625 0.09375,0.03125 0.09375,0.03125 0.09375,0.0625 0.09375,0.03125 0.125,0 0.09375,0.03125 0.09375,0 0.125,0.03125 0.09375,0 0.09375,0 0.125,-0.03125 0.09375,0 0.09375,-0.03125 0.125,0 0.09375,-0.03125 0.09375,-0.0625 0.09375,-0.03125 0.09375,-0.03125 0.09375,-0.0625 0.09375,-0.0625 0.09375,-0.0625 0.09375,-0.0625 0.0625,-0.0625 0.09375,-0.0625 0.0625,-0.09375 10.84375,-12 0.09375,-0.09375 0.09375,-0.125 0.0625,-0.125 0.0625,-0.125 0.0625,-0.125 0.03125,-0.15625 0.03125,-0.125 0.03125,-0.15625 L 74,61.15625 74,61 74,60.875 73.96875,60.71875 73.9375,60.59375 73.90625,60.4375 73.875,60.3125 73.8125,60.1875 73.75,60.03125 73.6875,59.9375 73.59375,59.8125 73.5,59.6875 73.40625,59.59375 73.3125,59.5 73.1875,59.40625 73.09375,59.3125 72.96875,59.25 72.84375,59.1875 72.6875,59.125 72.5625,59.09375 72.4375,59.0625 72.28125,59.03125 72.15625,59 72,59 l -4,0 0,-3.84375 0,-0.1875 -0.03125,-0.1875 -0.0625,-0.21875 -0.0625,-0.15625 -0.09375,-0.1875 c -10e-7,-3e-6 -0.07355,-0.122506 -0.09375,-0.15625 -0.0031,-0.0052 0,-0.03125 0,-0.03125 0.0202,-0.03374 0.09375,-0.156247 0.09375,-0.15625 l 0.09375,-0.1875 0.0625,-0.15625 0.0625,-0.21875 L 68,53.125 l 0,-0.1875 0,-3.84375 0,-0.1875 -0.03125,-0.1875 L 67.90625,48.5 67.84375,48.34375 67.75,48.15625 c -10e-7,-2e-6 -0.03668,-0.113122 -0.0625,-0.15625 0.02988,-0.04992 0.0625,-0.124998 0.0625,-0.125 l 0.09375,-0.1875 0.0625,-0.15625 0.0625,-0.21875 L 68,47.125 l 0,-0.1875 0,-1.90625 0,-0.1875 -0.03125,-0.1875 -0.0625,-0.21875 -0.0625,-0.15625 L 67.75,44.09375 67.65625,43.90625 67.53125,43.75 67.40625,43.625 67.28125,43.5 67.125,43.375 66.9375,43.28125 66.75,43.1875 66.59375,43.125 66.375,43.0625 l -0.1875,-0.03125 -0.1875,0 -9.875,0 -0.03125,0 -0.0625,0 -0.0625,0 -0.09375,0 a 0.99834447,0.99834447 0 0 0 -0.15625,0.03125 l -0.15625,0.03125 -0.1875,0.0625 -0.15625,0.0625 -0.15625,0.09375 -0.125,0.09375 -0.15625,0.09375 -0.125,0.125 -0.125,0.125 -0.09375,0.15625 -0.09375,0.125 -0.0625,0.15625 -0.0625,0.1875 -0.0625,0.15625 -0.03125,0.15625 -0.03125,0.1875 c 0,2e-6 0.001,0.115753 0,0.15625 -2e-4,0.0081 0,0.03125 0,0.03125 l 0,1.875 0,0.1875 0.03125,0.1875 0.0625,0.21875 0.0625,0.15625 0.09375,0.1875 c 10e-7,2e-6 0.03262,0.07508 0.0625,0.125 -0.02659,0.04329 -0.0625,0.09375 -0.0625,0.09375 l -0.0625,0.15625 -0.0625,0.1875 -0.0625,0.15625 L 54.125,48.75 54.09375,48.9375 c 0,2e-6 0.001,0.115753 0,0.15625 -2e-4,0.0081 0,0.03125 0,0.03125 l 0,3.8125 0,0.1875 0.03125,0.1875 0.0625,0.21875 0.0625,0.15625 0.09375,0.1875 c 10e-7,3e-6 0.07355,0.122506 0.09375,0.15625 0.0031,0.0052 0,0.03125 0,0.03125 -0.02068,0.03367 -0.09375,0.09375 -0.09375,0.09375 L 54.28125,54.3125 54.21875,54.5 54.15625,54.65625 54.125,54.8125 54.09375,55 c 0,2e-6 0.001,0.115753 0,0.15625 -2e-4,0.0081 0,0.03125 0,0.03125 l 0,3.8125 -1.375,0 c 0.813573,-0.979545 1.34375,-2.205012 1.34375,-3.5625 l 0,-26.84375 C 54.0625,25.521902 51.540598,23 48.46875,23 l -20.875,0 z m 4.375,9.96875 12.125,0 0,18.125 -12.125,0 0,-18.125 z m -4.96875,32 c -2.761206,0 -5.03125,2.270044 -5.03125,5.03125 0,2.761206 2.270044,5.03125 5.03125,5.03125 2.705645,0 4.911245,-2.189486 5,-4.875 0.08875,2.685514 2.294355,4.875 5,4.875 2.705645,0 4.911245,-2.189486 5,-4.875 0.08875,2.685514 2.294355,4.875 5,4.875 2.761206,0 5.03125,-2.270044 5.03125,-5.03125 0,-2.761206 -2.270044,-5.03125 -5.03125,-5.03125 -2.705645,0 -4.911245,2.189486 -5,4.875 -0.08875,-2.685514 -2.294355,-4.875 -5,-4.875 -2.705645,0 -4.911245,2.189486 -5,4.875 -0.08875,-2.685514 -2.294355,-4.875 -5,-4.875 z" fill="#000000" fill-opacity="1" stroke="none" opacity="0.1" inkscape:connector-curvature="0"/>
 <path d="M 27.59375,24 C 25.065675,24 23,26.065675 23,28.59375 l 0,26.84375 c 0,2.528075 2.055247,4.625 4.59375,4.625 l 20.875,0 c 2.538503,0 4.59375,-2.096925 4.59375,-4.625 l 0,-26.84375 C 53.0625,26.065675 50.996825,24 48.46875,24 l -20.875,0 z m 3.59375,7.96875 13.71875,0 c 0.11027,0 0.1875,0.0772 0.1875,0.21875 l 0,19.6875 c 0,0.141552 -0.07723,0.21875 -0.1875,0.21875 l -13.71875,0 c -0.11027,0 -0.21875,-0.10848 -0.21875,-0.21875 l 0,-19.6875 c 0,-0.11027 0.10848,-0.21875 0.21875,-0.21875 z m 24.71875,12.0625 a 0.99834447,0.99834447 0 0 0 -0.8125,1 l 0,1.90625 a 0.99834447,0.99834447 0 0 0 1,1 l 9.90625,0 a 0.99834447,0.99834447 0 0 0 1,-1 l 0,-1.90625 a 0.99834447,0.99834447 0 0 0 -1,-1 l -9.90625,0 a 0.99834447,0.99834447 0 0 0 -0.09375,0 0.99834447,0.99834447 0 0 0 -0.09375,0 z m 0,4.0625 a 0.99834447,0.99834447 0 0 0 -0.8125,1 l 0,3.84375 a 0.99834447,0.99834447 0 0 0 1,1 l 9.90625,0 a 0.99834447,0.99834447 0 0 0 1,-1 l 0,-3.84375 a 0.99834447,0.99834447 0 0 0 -1,-1 l -9.90625,0 a 0.99834447,0.99834447 0 0 0 -0.09375,0 0.99834447,0.99834447 0 0 0 -0.09375,0 z m 0,6.0625 a 0.99834447,0.99834447 0 0 0 -0.8125,1 l 0,4.84375 -4.6875,0 a 0.99834447,0.99834447 0 0 0 -0.75,1.65625 l 10.75,12 a 0.99834447,0.99834447 0 0 0 1.5,0 l 10.84375,-12 A 0.99834447,0.99834447 0 0 0 72,60 l -5,0 0,-4.84375 a 0.99834447,0.99834447 0 0 0 -1,-1 l -9.90625,0 a 0.99834447,0.99834447 0 0 0 -0.09375,0 0.99834447,0.99834447 0 0 0 -0.09375,0 z M 27,65.96875 c -2.215784,0 -4.03125,1.815466 -4.03125,4.03125 0,2.215784 1.815466,4.03125 4.03125,4.03125 2.215784,0 4.03125,-1.815466 4.03125,-4.03125 0,-2.215784 -1.815466,-4.03125 -4.03125,-4.03125 z m 10,0 c -2.215784,0 -4.03125,1.815466 -4.03125,4.03125 0,2.215784 1.815466,4.03125 4.03125,4.03125 2.215784,0 4.03125,-1.815466 4.03125,-4.03125 0,-2.215784 -1.815466,-4.03125 -4.03125,-4.03125 z m 10,0 c -2.215784,0 -4.03125,1.815466 -4.03125,4.03125 0,2.215784 1.815466,4.03125 4.03125,4.03125 2.215784,0 4.03125,-1.815466 4.03125,-4.03125 0,-2.215784 -1.815466,-4.03125 -4.03125,-4.03125 z" fill="#000000" fill-opacity="1" stroke="none" opacity="0.15" inkscape:connector-curvature="0"/>
 <path d="M 27.59375,25 C 25.59935,25 24,26.59935 24,28.59375 l 0,26.84375 c 0,1.9944 1.59935,3.625 3.59375,3.625 l 20.875,0 c 1.9944,0 3.59375,-1.6306 3.59375,-3.625 l 0,-26.84375 C 52.0625,26.59935 50.46315,25 48.46875,25 l -20.875,0 z m 3.59375,5.96875 13.71875,0 c 0.6648,0 1.1875,0.55395 1.1875,1.21875 l 0,19.6875 c 0,0.6648 -0.5227,1.21875 -1.1875,1.21875 l -13.71875,0 c -0.6648,0 -1.21875,-0.55395 -1.21875,-1.21875 l 0,-19.6875 c 0,-0.6648 0.55395,-1.21875 1.21875,-1.21875 z m 24.90625,14.0625 0,1.90625 9.90625,0 0,-1.90625 -9.90625,0 z m 0,4.0625 0,3.84375 9.90625,0 0,-3.84375 -9.90625,0 z m 0,6.0625 0,5.84375 -5.6875,0 10.75,12 L 72,61 l -6,0 0,-5.84375 -9.90625,0 z M 27,67 c -1.656854,0 -3,1.343146 -3,3 0,1.656854 1.343146,3 3,3 1.656854,0 3,-1.343146 3,-3 0,-1.656854 -1.343146,-3 -3,-3 z m 10,0 c -1.656854,0 -3,1.343146 -3,3 0,1.656854 1.343146,3 3,3 1.656854,0 3,-1.343146 3,-3 0,-1.656854 -1.343146,-3 -3,-3 z m 10,0 c -1.656854,0 -3,1.343146 -3,3 0,1.656854 1.343146,3 3,3 1.656854,0 3,-1.343146 3,-3 0,-1.656854 -1.343146,-3 -3,-3 z" fill="#000000" fill-opacity="1" stroke="none" opacity="0.3" inkscape:connector-curvature="0"/>
 <path d="M 27.59375,24 C 25.59935,24 24,25.59935 24,27.59375 l 0,26.84375 c 0,1.9944 1.59935,3.625 3.59375,3.625 l 20.875,0 c 1.9944,0 3.59375,-1.6306 3.59375,-3.625 l 0,-26.84375 C 52.0625,25.59935 50.46315,24 48.46875,24 l -20.875,0 z m 3.59375,5.96875 13.71875,0 c 0.6648,0 1.1875,0.55395 1.1875,1.21875 l 0,19.6875 c 0,0.6648 -0.5227,1.21875 -1.1875,1.21875 l -13.71875,0 c -0.6648,0 -1.21875,-0.55395 -1.21875,-1.21875 l 0,-19.6875 c 0,-0.6648 0.55395,-1.21875 1.21875,-1.21875 z m 24.90625,14.0625 0,1.90625 9.90625,0 0,-1.90625 -9.90625,0 z m 0,4.0625 0,3.84375 9.90625,0 0,-3.84375 -9.90625,0 z m 0,6.0625 0,5.84375 -5.6875,0 10.75,12 L 72,60 l -6,0 0,-5.84375 -9.90625,0 z M 27,66 c -1.656854,0 -3,1.343146 -3,3 0,1.656854 1.343146,3 3,3 1.656854,0 3,-1.343146 3,-3 0,-1.656854 -1.343146,-3 -3,-3 z m 10,0 c -1.656854,0 -3,1.343146 -3,3 0,1.656854 1.343146,3 3,3 1.656854,0 3,-1.343146 3,-3 0,-1.656854 -1.343146,-3 -3,-3 z m 10,0 c -1.656854,0 -3,1.343146 -3,3 0,1.656854 1.343146,3 3,3 1.656854,0 3,-1.343146 3,-3 0,-1.656854 -1.343146,-3 -3,-3 z" stroke-width="2" fill="url(#linearGradient4002)" color="#000000" fill-opacity="1" fill-rule="nonzero" stroke="none" visibility="visible" inkscape:connector-curvature="0"/>
 <path d="M 27.59375,24 C 25.59935,24 24,25.59935 24,27.59375 l 0,1 C 24,26.59935 25.59935,25 27.59375,25 l 20.875,0 c 1.9944,0 3.59375,1.59935 3.59375,3.59375 l 0,-1 C 52.0625,25.59935 50.46315,24 48.46875,24 l -20.875,0 z m 28.5,20.03125 0,1 9.90625,0 0,-1 -9.90625,0 z m 0,4.0625 0,1 9.90625,0 0,-1 -9.90625,0 z m -26.125,2.78125 0,1 c 0,0.6648 0.55395,1.21875 1.21875,1.21875 l 13.71875,0 c 0.6648,0 1.1875,-0.55395 1.1875,-1.21875 l 0,-1 c 0,0.6648 -0.5227,1.21875 -1.1875,1.21875 l -13.71875,0 c -0.6648,0 -1.21875,-0.55395 -1.21875,-1.21875 z m 26.125,3.28125 0,1 9.90625,0 0,-1 -9.90625,0 z M 50.40625,60 l 0.90625,1 4.78125,0 0,-1 -5.6875,0 z M 66,60 66,61 71.09375,61 72,60 66,60 z m -39,6 c -1.656854,0 -3,1.343146 -3,3 0,0.174764 0.03382,0.333425 0.0625,0.5 C 24.305716,68.087354 25.51791,67 27,67 c 1.48209,0 2.694284,1.087354 2.9375,2.5 C 29.966179,69.333425 30,69.174764 30,69 30,67.343146 28.656854,66 27,66 z m 10,0 c -1.656854,0 -3,1.343146 -3,3 0,0.174764 0.03382,0.333425 0.0625,0.5 C 34.305716,68.087354 35.51791,67 37,67 c 1.48209,0 2.694284,1.087354 2.9375,2.5 C 39.966179,69.333425 40,69.174764 40,69 40,67.343146 38.656854,66 37,66 z m 10,0 c -1.656854,0 -3,1.343146 -3,3 0,0.174764 0.03382,0.333425 0.0625,0.5 C 44.305716,68.087354 45.51791,67 47,67 c 1.48209,0 2.694284,1.087354 2.9375,2.5 C 49.966179,69.333425 50,69.174764 50,69 50,67.343146 48.656854,66 47,66 z" stroke-width="2" fill="#ffffff" color="#000000" fill-opacity="1" fill-rule="nonzero" stroke="none" opacity="0.75" visibility="visible" inkscape:connector-curvature="0"/>
 <path d="m 31.1875,28.96875 c -0.6648,0 -1.21875,0.55395 -1.21875,1.21875 l 0,1 c 0,-0.6648 0.55395,-1.21875 1.21875,-1.21875 l 13.71875,0 c 0.6648,0 1.1875,0.55395 1.1875,1.21875 l 0,-1 c 0,-0.6648 -0.5227,-1.21875 -1.1875,-1.21875 l -13.71875,0 z m 24.90625,15.96875 0,1 9.90625,0 0,-1 -9.90625,0 z m 0,6 0,1 9.90625,0 0,-1 -9.90625,0 z M 24,53.4375 l 0,1 c 0,1.9944 1.59935,3.625 3.59375,3.625 l 20.875,0 c 1.9944,0 3.59375,-1.6306 3.59375,-3.625 l 0,-1 c 0,1.9944 -1.59935,3.625 -3.59375,3.625 l -20.875,0 C 25.59935,57.0625 24,55.4319 24,53.4375 z M 50.40625,60 61.15625,72 72,60 71.09375,60 61.15625,71 51.3125,60 50.40625,60 z M 24.0625,68.5 C 24.033821,68.666575 24,68.825236 24,69 c 0,1.656854 1.343146,3 3,3 1.656854,0 3,-1.343146 3,-3 0,-0.174764 -0.03382,-0.333425 -0.0625,-0.5 C 29.694284,69.912646 28.48209,71 27,71 25.51791,71 24.305716,69.912646 24.0625,68.5 z m 10,0 C 34.033821,68.666575 34,68.825236 34,69 c 0,1.656854 1.343146,3 3,3 1.656854,0 3,-1.343146 3,-3 0,-0.174764 -0.03382,-0.333425 -0.0625,-0.5 C 39.694284,69.912646 38.48209,71 37,71 35.51791,71 34.305716,69.912646 34.0625,68.5 z m 10,0 C 44.033821,68.666575 44,68.825236 44,69 c 0,1.656854 1.343146,3 3,3 1.656854,0 3,-1.343146 3,-3 0,-0.174764 -0.03382,-0.333425 -0.0625,-0.5 C 49.694284,69.912646 48.48209,71 47,71 45.51791,71 44.305716,69.912646 44.0625,68.5 z" stroke-width="2" fill="#000000" color="#000000" fill-opacity="1" fill-rule="nonzero" stroke="none" opacity="0.15" visibility="visible" inkscape:connector-curvature="0"/>
</svg>
