<?xml version="1.0" encoding="UTF-8" standalone="no"?>
<svg
   xmlns:dc="http://purl.org/dc/elements/1.1/"
   xmlns:cc="http://creativecommons.org/ns#"
   xmlns:rdf="http://www.w3.org/1999/02/22-rdf-syntax-ns#"
   xmlns:svg="http://www.w3.org/2000/svg"
   xmlns="http://www.w3.org/2000/svg"
   xmlns:xlink="http://www.w3.org/1999/xlink"
   xmlns:sodipodi="http://sodipodi.sourceforge.net/DTD/sodipodi-0.dtd"
   xmlns:inkscape="http://www.inkscape.org/namespaces/inkscape"
   display="inline"
   height="96"
   width="96"
   id="svg2"
   version="1.1"
   inkscape:version="0.91 r13725"
   sodipodi:docname="document-save.svg">
  <metadata
     id="metadata51">
    <rdf:RDF>
      <cc:Work
         rdf:about="">
        <dc:format>image/svg+xml</dc:format>
        <dc:type
           rdf:resource="http://purl.org/dc/dcmitype/StillImage" />
      </cc:Work>
    </rdf:RDF>
  </metadata>
  <sodipodi:namedview
     pagecolor="#ffffff"
     bordercolor="#666666"
     borderopacity="1"
     objecttolerance="10"
     gridtolerance="10"
     guidetolerance="10"
     inkscape:pageopacity="0"
     inkscape:pageshadow="2"
     inkscape:window-width="760"
     inkscape:window-height="480"
     id="namedview49"
     showgrid="false"
     inkscape:zoom="2.4583333"
     inkscape:cx="-15.864407"
     inkscape:cy="47.999999"
     inkscape:window-x="75"
     inkscape:window-y="99"
     inkscape:window-maximized="0"
     inkscape:current-layer="svg2" />
  <defs
     id="defs4">
    <linearGradient
       x2="0"
       y1="20.237"
       y2="1.842"
       gradientUnits="userSpaceOnUse"
       id="linearGradient2862"
       gradientTransform="matrix(2.21934,0,0,2.6093,4.656,19.19)">
      <stop
         stop-color="#4d4d4d"
         stop-opacity="1"
         id="stop7" />
      <stop
         stop-color="#1a1a1a"
         stop-opacity="1"
         offset="1"
         id="stop9" />
    </linearGradient>
    <linearGradient
       x2="0"
       y1="92.54"
       y2="7.02"
       gradientUnits="userSpaceOnUse"
       id="ButtonShadow-0"
       gradientTransform="matrix(1.0059 0 0 0.99417 100 0)">
      <stop
         stop-color="#000000"
         stop-opacity="1"
         id="stop12" />
      <stop
         stop-color="#000000"
         stop-opacity="0.588"
         offset="1"
         id="stop14" />
    </linearGradient>
    <linearGradient
       x2="0"
       xlink:href="#ButtonShadow-0"
       y1="6.132"
       y2="90.24"
       gradientUnits="userSpaceOnUse"
       id="linearGradient3780"
       gradientTransform="matrix(1.02381 0 0 -1.0119 -1.143 98.07)" />
    <linearGradient
       x2="0"
       xlink:href="#ButtonShadow-0"
       y1="6.132"
       y2="90.24"
       gradientUnits="userSpaceOnUse"
       id="linearGradient3721-7"
       gradientTransform="matrix(1 0 0 -1 0 97)" />
    <radialGradient
       cy="90.17"
       r="42"
       gradientUnits="userSpaceOnUse"
       id="radialGradient3619-2"
       cx="48"
       gradientTransform="matrix(1.15731 0 0 0.99591 -7.551 0.197)">
      <stop
         stop-color="#ffffff"
         stop-opacity="1"
         id="stop19" />
      <stop
         stop-color="#ffffff"
         stop-opacity="0"
         offset="1"
         id="stop21" />
    </radialGradient>
  </defs>
  <g
     id="g3448"
     transform="matrix(1.5384615,0,0,1.5384615,-25.846152,-27.384614)">
    <path
       id="path37"
       d="M 27.59375,23 C 24.521902,23 22,25.521902 22,28.59375 l 0,26.84375 c 0,3.069103 2.505515,5.625 5.59375,5.625 l 20.8125,0 c 0.0016,0.0411 0,0.09375 0,0.09375 0,2e-6 0.03125,0.124998 0.03125,0.125 0,2e-6 0.03125,0.156248 0.03125,0.15625 10e-7,2e-6 0.03125,0.124998 0.03125,0.125 10e-7,2e-6 0.03125,0.156248 0.03125,0.15625 10e-7,2e-6 0.0625,0.124998 0.0625,0.125 10e-7,2e-6 0.0625,0.124998 0.0625,0.125 10e-7,2e-6 0.0625,0.124998 0.0625,0.125 10e-7,2e-6 0.09375,0.124998 0.09375,0.125 10e-7,2e-6 0.09375,0.09375 0.09375,0.09375 l 10.75,12 c 10e-7,10e-7 0.0625,0.09375 0.0625,0.09375 10e-7,10e-7 0.09375,0.0625 0.09375,0.0625 10e-7,10e-7 0.0625,0.0625 0.0625,0.0625 10e-7,10e-7 0.09375,0.0625 0.09375,0.0625 10e-7,10e-7 0.09375,0.0625 0.09375,0.0625 10e-7,10e-7 0.09375,0.0625 0.09375,0.0625 2e-6,10e-7 0.09375,0.0625 0.09375,0.0625 2e-6,10e-7 0.09375,0.03125 0.09375,0.03125 2e-6,10e-7 0.09375,0.03125 0.09375,0.03125 2e-6,10e-7 0.09375,0.0625 0.09375,0.0625 2e-6,10e-7 0.09375,0.03125 0.09375,0.03125 2e-6,0 0.124998,0 0.125,0 2e-6,0 0.09375,0.03125 0.09375,0.03125 2e-6,0 0.09375,0 0.09375,0 2e-6,0 0.124998,0.03125 0.125,0.03125 2e-6,0 0.09375,0 0.09375,0 2e-6,0 0.09375,0 0.09375,0 2e-6,0 0.124998,-0.03125 0.125,-0.03125 2e-6,0 0.09375,0 0.09375,0 2e-6,0 0.09375,-0.03125 0.09375,-0.03125 2e-6,0 0.124998,0 0.125,0 2e-6,0 0.09375,-0.03125 0.09375,-0.03125 2e-6,-10e-7 0.09375,-0.0625 0.09375,-0.0625 2e-6,-10e-7 0.09375,-0.03125 0.09375,-0.03125 2e-6,-10e-7 0.09375,-0.03125 0.09375,-0.03125 2e-6,-10e-7 0.09375,-0.0625 0.09375,-0.0625 2e-6,-10e-7 0.09375,-0.0625 0.09375,-0.0625 10e-7,-10e-7 0.09375,-0.0625 0.09375,-0.0625 10e-7,-10e-7 0.09375,-0.0625 0.09375,-0.0625 10e-7,-10e-7 0.0625,-0.0625 0.0625,-0.0625 10e-7,-10e-7 0.09375,-0.0625 0.09375,-0.0625 10e-7,-10e-7 0.0625,-0.09375 0.0625,-0.09375 l 10.84375,-12 c 2e-6,-2e-6 0.09375,-0.09375 0.09375,-0.09375 10e-7,-2e-6 0.09375,-0.124998 0.09375,-0.125 10e-7,-2e-6 0.0625,-0.124998 0.0625,-0.125 10e-7,-2e-6 0.0625,-0.124998 0.0625,-0.125 10e-7,-2e-6 0.0625,-0.124998 0.0625,-0.125 10e-7,-2e-6 0.03125,-0.156248 0.03125,-0.15625 10e-7,-2e-6 0.03125,-0.124998 0.03125,-0.125 10e-7,-2e-6 0.03125,-0.156248 0.03125,-0.15625 0,-2e-6 0.03125,-0.124998 0.03125,-0.125 0,-2e-6 0,-0.156248 0,-0.15625 0,-2e-6 0,-0.124998 0,-0.125 0,-2e-6 -0.03125,-0.156248 -0.03125,-0.15625 0,-2e-6 -0.03125,-0.124998 -0.03125,-0.125 0,-2e-6 -0.03125,-0.156248 -0.03125,-0.15625 -10e-7,-2e-6 -0.03125,-0.124998 -0.03125,-0.125 -10e-7,-2e-6 -0.0625,-0.124998 -0.0625,-0.125 -10e-7,-2e-6 -0.0625,-0.156248 -0.0625,-0.15625 -10e-7,-2e-6 -0.0625,-0.09375 -0.0625,-0.09375 -10e-7,-2e-6 -0.09375,-0.124998 -0.09375,-0.125 -10e-7,-2e-6 -0.09375,-0.124998 -0.09375,-0.125 -2e-6,-2e-6 -0.09375,-0.09375 -0.09375,-0.09375 -2e-6,-2e-6 -0.09375,-0.09375 -0.09375,-0.09375 -2e-6,-2e-6 -0.124998,-0.09375 -0.125,-0.09375 -2e-6,-10e-7 -0.09375,-0.09375 -0.09375,-0.09375 -2e-6,-10e-7 -0.124998,-0.0625 -0.125,-0.0625 -2e-6,-10e-7 -0.124998,-0.0625 -0.125,-0.0625 -2e-6,-10e-7 -0.156248,-0.0625 -0.15625,-0.0625 -2e-6,-10e-7 -0.124998,-0.03125 -0.125,-0.03125 -2e-6,-10e-7 -0.124998,-0.03125 -0.125,-0.03125 -2e-6,-10e-7 -0.156248,-0.03125 -0.15625,-0.03125 -2e-6,0 -0.124998,-0.03125 -0.125,-0.03125 -2e-6,0 -0.156248,0 -0.15625,0 l -4,0 0,-3.84375 c 0,-3e-6 0,-0.187497 0,-0.1875 0,-3e-6 -0.03125,-0.187497 -0.03125,-0.1875 -10e-7,-3e-6 -0.0625,-0.218747 -0.0625,-0.21875 -10e-7,-3e-6 -0.0625,-0.156247 -0.0625,-0.15625 -10e-7,-3e-6 -0.09375,-0.187497 -0.09375,-0.1875 -10e-7,-3e-6 -0.07355,-0.122506 -0.09375,-0.15625 -0.0031,-0.0052 0,-0.03125 0,-0.03125 0.0202,-0.03374 0.09375,-0.156247 0.09375,-0.15625 2e-6,-3e-6 0.09375,-0.187497 0.09375,-0.1875 10e-7,-3e-6 0.0625,-0.156247 0.0625,-0.15625 10e-7,-3e-6 0.0625,-0.218747 0.0625,-0.21875 10e-7,-3e-6 0.03125,-0.187497 0.03125,-0.1875 0,-3e-6 0,-0.187497 0,-0.1875 l 0,-3.84375 c 0,-3e-6 0,-0.187497 0,-0.1875 0,-3e-6 -0.03125,-0.187497 -0.03125,-0.1875 -10e-7,-3e-6 -0.0625,-0.218747 -0.0625,-0.21875 -10e-7,-3e-6 -0.0625,-0.156247 -0.0625,-0.15625 -10e-7,-3e-6 -0.09375,-0.187497 -0.09375,-0.1875 -10e-7,-2e-6 -0.03668,-0.113122 -0.0625,-0.15625 0.02988,-0.04992 0.0625,-0.124998 0.0625,-0.125 2e-6,-3e-6 0.09375,-0.187497 0.09375,-0.1875 10e-7,-3e-6 0.0625,-0.156247 0.0625,-0.15625 10e-7,-3e-6 0.0625,-0.218747 0.0625,-0.21875 10e-7,-3e-6 0.03125,-0.187497 0.03125,-0.1875 0,-3e-6 0,-0.187497 0,-0.1875 l 0,-1.90625 c 0,-3e-6 0,-0.187497 0,-0.1875 0,-3e-6 -0.03125,-0.187497 -0.03125,-0.1875 -10e-7,-3e-6 -0.0625,-0.218747 -0.0625,-0.21875 -10e-7,-3e-6 -0.0625,-0.156247 -0.0625,-0.15625 -10e-7,-3e-6 -0.09375,-0.187497 -0.09375,-0.1875 -2e-6,-3e-6 -0.09375,-0.187497 -0.09375,-0.1875 -2e-6,-3e-6 -0.124998,-0.156247 -0.125,-0.15625 -2e-6,-3e-6 -0.124998,-0.124998 -0.125,-0.125 -2e-6,-2e-6 -0.124997,-0.124998 -0.125,-0.125 -3e-6,-2e-6 -0.156247,-0.124998 -0.15625,-0.125 -3e-6,-2e-6 -0.187497,-0.09375 -0.1875,-0.09375 -3e-6,-2e-6 -0.187497,-0.09375 -0.1875,-0.09375 -3e-6,-10e-7 -0.156247,-0.0625 -0.15625,-0.0625 -3e-6,-10e-7 -0.218747,-0.0625 -0.21875,-0.0625 -3e-6,-10e-7 -0.187497,-0.03125 -0.1875,-0.03125 -3e-6,0 -0.187497,0 -0.1875,0 l -9.875,0 c -10e-7,0 -0.01925,0 -0.03125,0 -0.024,0 -0.0265,0 -0.0625,0 -10e-7,0 -0.0265,0 -0.0625,0 -0.054,0 -0.09375,0 -0.09375,0 a 0.99834447,0.99834447 0 0 0 -0.15625,0.03125 c -3e-6,10e-7 -0.156247,0.03125 -0.15625,0.03125 -3e-6,10e-7 -0.187497,0.0625 -0.1875,0.0625 -3e-6,10e-7 -0.156247,0.0625 -0.15625,0.0625 -3e-6,10e-7 -0.156247,0.09375 -0.15625,0.09375 -3e-6,10e-7 -0.124998,0.09375 -0.125,0.09375 -2e-6,2e-6 -0.156248,0.09375 -0.15625,0.09375 -2e-6,2e-6 -0.124998,0.124998 -0.125,0.125 -2e-6,2e-6 -0.124998,0.124998 -0.125,0.125 -2e-6,2e-6 -0.09375,0.156248 -0.09375,0.15625 -2e-6,2e-6 -0.09375,0.124997 -0.09375,0.125 -10e-7,3e-6 -0.0625,0.156247 -0.0625,0.15625 -10e-7,3e-6 -0.0625,0.187497 -0.0625,0.1875 -10e-7,3e-6 -0.0625,0.156247 -0.0625,0.15625 -10e-7,3e-6 -0.03125,0.156247 -0.03125,0.15625 0,3e-6 -0.03125,0.187497 -0.03125,0.1875 0,2e-6 10e-4,0.115753 0,0.15625 -2e-4,0.0081 0,0.03125 0,0.03125 l 0,1.875 c 0,3e-6 0,0.187497 0,0.1875 0,3e-6 0.03125,0.187497 0.03125,0.1875 10e-7,3e-6 0.0625,0.218747 0.0625,0.21875 10e-7,3e-6 0.0625,0.156247 0.0625,0.15625 10e-7,3e-6 0.09375,0.187497 0.09375,0.1875 10e-7,2e-6 0.03262,0.07508 0.0625,0.125 -0.02659,0.04329 -0.0625,0.09375 -0.0625,0.09375 -10e-7,3e-6 -0.0625,0.156247 -0.0625,0.15625 -10e-7,3e-6 -0.0625,0.187497 -0.0625,0.1875 -10e-7,3e-6 -0.0625,0.156247 -0.0625,0.15625 -10e-7,3e-6 -0.03125,0.156247 -0.03125,0.15625 0,3e-6 -0.03125,0.187497 -0.03125,0.1875 0,2e-6 10e-4,0.115753 0,0.15625 -2e-4,0.0081 0,0.03125 0,0.03125 l 0,3.8125 c 0,3e-6 0,0.187497 0,0.1875 0,3e-6 0.03125,0.187497 0.03125,0.1875 10e-7,3e-6 0.0625,0.218747 0.0625,0.21875 10e-7,3e-6 0.0625,0.156247 0.0625,0.15625 10e-7,3e-6 0.09375,0.187497 0.09375,0.1875 10e-7,3e-6 0.07355,0.122506 0.09375,0.15625 0.0031,0.0052 0,0.03125 0,0.03125 -0.02068,0.03367 -0.09375,0.09375 -0.09375,0.09375 -10e-7,3e-6 -0.0625,0.156247 -0.0625,0.15625 -10e-7,3e-6 -0.0625,0.187497 -0.0625,0.1875 -10e-7,3e-6 -0.0625,0.156247 -0.0625,0.15625 -10e-7,3e-6 -0.03125,0.156247 -0.03125,0.15625 0,3e-6 -0.03125,0.187497 -0.03125,0.1875 0,2e-6 10e-4,0.115753 0,0.15625 -2e-4,0.0081 0,0.03125 0,0.03125 l 0,3.8125 -1.375,0 c 0.813573,-0.979545 1.34375,-2.205012 1.34375,-3.5625 l 0,-26.84375 C 54.0625,25.521902 51.540598,23 48.46875,23 l -20.875,0 z m 4.375,9.96875 12.125,0 0,18.125 -12.125,0 0,-18.125 z"
       inkscape:connector-curvature="0"
       style="opacity:0.1;fill:black;fill-opacity:1;stroke:none" />
    <path
       id="path39"
       d="M 27.59375,24 C 25.065675,24 23,26.065675 23,28.59375 l 0,26.84375 c 0,2.528075 2.055247,4.625 4.59375,4.625 l 20.875,0 c 2.538503,0 4.59375,-2.096925 4.59375,-4.625 l 0,-26.84375 C 53.0625,26.065675 50.996825,24 48.46875,24 l -20.875,0 z m 3.59375,7.96875 13.71875,0 c 0.11027,0 0.1875,0.0772 0.1875,0.21875 l 0,19.6875 c 0,0.141552 -0.07723,0.21875 -0.1875,0.21875 l -13.71875,0 c -0.11027,0 -0.21875,-0.10848 -0.21875,-0.21875 l 0,-19.6875 c 0,-0.11027 0.10848,-0.21875 0.21875,-0.21875 z M 56,44.03125 a 0.99834447,0.99834447 0 0 0 -0.90625,1 l 0,1.90625 a 0.99834447,0.99834447 0 0 0 1,1 l 9.90625,0 a 0.99834447,0.99834447 0 0 0 1,-1 l 0,-1.90625 a 0.99834447,0.99834447 0 0 0 -1,-1 l -9.90625,0 a 0.99834447,0.99834447 0 0 0 -0.09375,0 z m 0,4.0625 a 0.99834447,0.99834447 0 0 0 -0.90625,1 l 0,3.84375 a 0.99834447,0.99834447 0 0 0 1,1 l 9.90625,0 a 0.99834447,0.99834447 0 0 0 1,-1 l 0,-3.84375 a 0.99834447,0.99834447 0 0 0 -1,-1 l -9.90625,0 a 0.99834447,0.99834447 0 0 0 -0.09375,0 z m 0,6.0625 a 0.99834447,0.99834447 0 0 0 -0.90625,1 l 0,4.84375 -4.6875,0 a 0.99834447,0.99834447 0 0 0 -0.75,1.65625 l 10.75,12 a 0.99834447,0.99834447 0 0 0 1.5,0 l 10.84375,-12 A 0.99834447,0.99834447 0 0 0 72,60 l -5,0 0,-4.84375 a 0.99834447,0.99834447 0 0 0 -1,-1 l -9.90625,0 a 0.99834447,0.99834447 0 0 0 -0.09375,0 z"
       inkscape:connector-curvature="0"
       style="opacity:0.15;fill:black;fill-opacity:1;stroke:none" />
    <path
       id="path41"
       inkscape:connector-curvature="0"
       d="M 27.6,25 C 25.6056,25 24,26.6056 24,28.6 l 0,26.849101 c 0,1.9944 1.6056,3.6 3.6,3.6 l 20.853293,0 c 1.9944,0 3.6,-1.6056 3.6,-3.6 l 0,-26.849101 c 0,-1.9944 -1.6056,-3.6 -3.6,-3.6 L 27.6,25 Z m 3.57964,5.978491 13.722159,0 c 0.6648,0 1.2,0.5352 1.2,1.2 0,0 0,12.502948 0,19.702948 0,0.6648 -0.5352,1.2 -1.2,1.2 l -13.722159,0 c -0.6648,0 -1.2,-0.5352 -1.2,-1.2 l 0,-19.702948 c 0,-0.6648 0.5352,-1.2 1.2,-1.2 z m 24.906885,14.062669 0,1.893414 9.910334,0 0,-1.893414 -9.910334,0 z m 0,4.040122 0,3.850152 9.910334,0 0,-3.850152 -9.910334,0 z m 0,6.060182 0,5.858536 L 50.4,61 61.166726,73 72,61 l -6.003141,0 0,-5.858536 -9.910334,0 z"
       style="opacity:0.3;fill:black;fill-opacity:1;stroke:none" />
    <path
       id="path43"
       inkscape:connector-curvature="0"
       d="M 27.6,24 C 25.6056,24 24,25.6056 24,27.6 l 0,26.849101 c 0,1.9944 1.6056,3.6 3.6,3.6 l 20.853293,0 c 1.9944,0 3.6,-1.6056 3.6,-3.6 l 0,-26.849101 c 0,-1.9944 -1.6056,-3.6 -3.6,-3.6 L 27.6,24 Z m 3.57964,5.978491 13.722159,0 c 0.6648,0 1.2,0.5352 1.2,1.2 0,0 0,12.502948 0,19.702948 0,0.6648 -0.5352,1.2 -1.2,1.2 l -13.722159,0 c -0.6648,0 -1.2,-0.5352 -1.2,-1.2 l 0,-19.702948 c 0,-0.6648 0.5352,-1.2 1.2,-1.2 z m 24.906885,14.062669 0,1.893414 9.910334,0 0,-1.893414 -9.910334,0 z m 0,4.040122 0,3.850152 9.910334,0 0,-3.850152 -9.910334,0 z m 0,6.060182 0,5.858536 L 50.4,60 61.166726,72 72,60 l -6.003141,0 0,-5.858536 -9.910334,0 z"
       style="fill:url(#linearGradient2862);fill-opacity:1;stroke:none" />
    <path
       id="path45"
       inkscape:connector-curvature="0"
       d="M 27.59375,24 C 25.59935,24 24,25.59935 24,27.59375 l 0,1 C 24,26.59935 25.59935,25 27.59375,25 l 20.875,0 c 1.9944,0 3.59375,1.59935 3.59375,3.59375 l 0,-1 C 52.0625,25.59935 50.46315,24 48.46875,24 l -20.875,0 z m 28.5,20.03125 0,1 9.90625,0 0,-1 -9.90625,0 z m 0,4.0625 0,1 9.90625,0 0,-1 -9.90625,0 z m -26.125,2.78125 0,1 c 0,0.6648 0.55395,1.21875 1.21875,1.21875 l 13.71875,0 c 0.6648,0 1.1875,-0.55395 1.1875,-1.21875 l 0,-1 c 0,0.6648 -0.5227,1.21875 -1.1875,1.21875 l -13.71875,0 c -0.6648,0 -1.21875,-0.55395 -1.21875,-1.21875 z m 26.125,3.28125 0,1 9.90625,0 0,-1 -9.90625,0 z M 50.40625,60 l 0.90625,1 4.78125,0 0,-1 -5.6875,0 z M 66,60 66,61 71.09375,61 72,60 66,60 Z"
       style="opacity:0.75;fill:white;fill-opacity:1;stroke:none" />
    <path
       id="path47"
       inkscape:connector-curvature="0"
       d="m 31.1875,28.96875 c -0.6648,0 -1.21875,0.55395 -1.21875,1.21875 l 0,1 c 0,-0.6648 0.55395,-1.21875 1.21875,-1.21875 l 13.71875,0 c 0.6648,0 1.1875,0.55395 1.1875,1.21875 l 0,-1 c 0,-0.6648 -0.5227,-1.21875 -1.1875,-1.21875 l -13.71875,0 z m 24.90625,15.96875 0,1 9.90625,0 0,-1 -9.90625,0 z m 0,6 0,1 9.90625,0 0,-1 -9.90625,0 z M 24,53.4375 l 0,1 c 0,1.9944 1.59935,3.625 3.59375,3.625 l 20.875,0 c 1.9944,0 3.59375,-1.6306 3.59375,-3.625 l 0,-1 c 0,1.9944 -1.59935,3.625 -3.59375,3.625 l -20.875,0 C 25.59935,57.0625 24,55.4319 24,53.4375 Z M 50.40625,60 61.15625,72 72,60 71.09375,60 61.15625,71 51.3125,60 50.40625,60 Z"
       style="opacity:0.15;fill:black;fill-opacity:1;stroke:none" />
  </g>
</svg>
