<?xml version="1.0" encoding="UTF-8" standalone="no"?>
<svg
   xmlns:dc="http://purl.org/dc/elements/1.1/"
   xmlns:cc="http://creativecommons.org/ns#"
   xmlns:rdf="http://www.w3.org/1999/02/22-rdf-syntax-ns#"
   xmlns:svg="http://www.w3.org/2000/svg"
   xmlns="http://www.w3.org/2000/svg"
   xmlns:xlink="http://www.w3.org/1999/xlink"
   xmlns:sodipodi="http://sodipodi.sourceforge.net/DTD/sodipodi-0.dtd"
   xmlns:inkscape="http://www.inkscape.org/namespaces/inkscape"
   display="inline"
   height="96"
   width="96"
   id="svg2"
   version="1.1"
   inkscape:version="0.91 r13725"
   sodipodi:docname="document-save-as.svg">
  <metadata
     id="metadata51">
    <rdf:RDF>
      <cc:Work
         rdf:about="">
        <dc:format>image/svg+xml</dc:format>
        <dc:type
           rdf:resource="http://purl.org/dc/dcmitype/StillImage" />
      </cc:Work>
    </rdf:RDF>
  </metadata>
  <sodipodi:namedview
     pagecolor="#ffffff"
     bordercolor="#666666"
     borderopacity="1"
     objecttolerance="10"
     gridtolerance="10"
     guidetolerance="10"
     inkscape:pageopacity="0"
     inkscape:pageshadow="2"
     inkscape:window-width="760"
     inkscape:window-height="480"
     id="namedview49"
     showgrid="false"
     inkscape:zoom="4.9166667"
     inkscape:cx="66.997872"
     inkscape:cy="7.7172637"
     inkscape:window-x="202"
     inkscape:window-y="228"
     inkscape:window-maximized="0"
     inkscape:current-layer="svg2" />
  <defs
     id="defs4">
    <linearGradient
       x2="0"
       y1="92.54"
       y2="7.02"
       gradientUnits="userSpaceOnUse"
       id="ButtonShadow-0"
       gradientTransform="matrix(1.0059 0 0 0.99417 100 0)">
      <stop
         stop-color="#000000"
         stop-opacity="1"
         id="stop7" />
      <stop
         stop-color="#000000"
         stop-opacity="0.588"
         offset="1"
         id="stop9" />
    </linearGradient>
    <linearGradient
       x2="0"
       xlink:href="#ButtonShadow-0"
       y1="6.132"
       y2="90.24"
       gradientUnits="userSpaceOnUse"
       id="linearGradient3780"
       gradientTransform="matrix(1.02381 0 0 -1.0119 -1.143 98.07)" />
    <linearGradient
       x2="0"
       xlink:href="#ButtonShadow-0"
       y1="6.132"
       y2="90.24"
       gradientUnits="userSpaceOnUse"
       id="linearGradient3721-7"
       gradientTransform="matrix(1 0 0 -1 0 97)" />
    <radialGradient
       cy="90.17"
       r="42"
       gradientUnits="userSpaceOnUse"
       id="radialGradient3619-2"
       cx="48"
       gradientTransform="matrix(1.15731 0 0 0.99591 -7.551 0.197)">
      <stop
         stop-color="#ffffff"
         stop-opacity="1"
         id="stop14" />
      <stop
         stop-color="#ffffff"
         stop-opacity="0"
         offset="1"
         id="stop16" />
    </radialGradient>
    <linearGradient
       x2="0"
       y1="24"
       y2="72"
       gradientUnits="userSpaceOnUse"
       id="linearGradient4002"
       gradientTransform="matrix(1.5375375,0,0,1.5375375,-25.777776,-27.363362)">
      <stop
         stop-color="#1a1a1a"
         stop-opacity="1"
         id="stop19" />
      <stop
         stop-color="#4d4d4d"
         stop-opacity="1"
         offset="1"
         id="stop21" />
    </linearGradient>
  </defs>
  <path
     style="color:#000000;visibility:visible;fill:url(#linearGradient4002);fill-opacity:1;fill-rule:nonzero;stroke:none;stroke-width:2"
     d="m 16.648649,9.537538 c -3.066464,0 -5.525525,2.459061 -5.525525,5.525525 l 0,41.273273 c 0,3.066464 2.459061,5.573573 5.525525,5.573573 l 32.096096,0 c 3.066464,0 5.525525,-2.507109 5.525525,-5.573573 l 0,-41.273273 c 0,-3.066464 -2.459061,-5.525525 -5.525525,-5.525525 l -32.096096,0 z m 5.525526,9.177177 21.093092,0 c 1.022155,0 1.825826,0.851719 1.825826,1.873874 l 0,30.270269 c 0,1.022155 -0.803671,1.873874 -1.825826,1.873874 l -21.093092,0 c -1.022155,0 -1.873874,-0.851719 -1.873874,-1.873874 l 0,-30.270269 c 0,-1.022155 0.851719,-1.873874 1.873874,-1.873874 z m 38.294293,21.621621 0,2.930931 15.231231,0 0,-2.930931 -15.231231,0 z m 0,6.246246 0,5.90991 15.231231,0 0,-5.90991 -15.231231,0 z m 0,9.321321 0,8.984985 -8.744744,0 16.528528,18.45045 16.672672,-18.45045 -9.225225,0 0,-8.984985 -15.231231,0 z m -44.732731,18.21021 c -2.547476,0 -4.612613,2.065137 -4.612613,4.612613 0,2.547475 2.065137,4.612612 4.612613,4.612612 2.547475,0 4.612612,-2.065137 4.612612,-4.612612 0,-2.547476 -2.065137,-4.612613 -4.612612,-4.612613 z m 15.375374,0 c -2.547475,0 -4.612612,2.065137 -4.612612,4.612613 0,2.547475 2.065137,4.612612 4.612612,4.612612 2.547476,0 4.612613,-2.065137 4.612613,-4.612612 0,-2.547476 -2.065137,-4.612613 -4.612613,-4.612613 z m 15.375375,0 c -2.547475,0 -4.612612,2.065137 -4.612612,4.612613 0,2.547475 2.065137,4.612612 4.612612,4.612612 2.547476,0 4.612613,-2.065137 4.612613,-4.612612 0,-2.547476 -2.065137,-4.612613 -4.612613,-4.612613 z"
     visibility="visible"
     inkscape:connector-curvature="0"
     id="path43" />
  <path
     style="color:#000000;visibility:visible;opacity:0.75;fill:#ffffff;fill-opacity:1;fill-rule:nonzero;stroke:none;stroke-width:2"
     d="m 16.648649,9.537538 c -3.066464,0 -5.525525,2.459061 -5.525525,5.525525 l 0,1.537538 c 0,-3.066465 2.459061,-5.525525 5.525525,-5.525525 l 32.096096,0 c 3.066464,0 5.525525,2.45906 5.525525,5.525525 l 0,-1.537538 c 0,-3.066464 -2.459061,-5.525525 -5.525525,-5.525525 l -32.096096,0 z m 43.819819,30.798798 0,1.537538 15.231231,0 0,-1.537538 -15.231231,0 z m 0,6.246246 0,1.537538 15.231231,0 0,-1.537538 -15.231231,0 z m -40.168167,4.276276 0,1.537538 c 0,1.022155 0.851719,1.873874 1.873874,1.873874 l 21.093092,0 c 1.022155,0 1.825826,-0.851719 1.825826,-1.873874 l 0,-1.537538 c 0,1.022155 -0.803671,1.873874 -1.825826,1.873874 l -21.093092,0 c -1.022155,0 -1.873874,-0.851719 -1.873874,-1.873874 z m 40.168167,5.045045 0,1.537538 15.231231,0 0,-1.537538 -15.231231,0 z m -8.744744,8.984985 1.393393,1.537538 7.351351,0 0,-1.537538 -8.744744,0 z m 23.975975,0 0,1.537538 7.831832,0 1.393393,-1.537538 -9.225225,0 z m -59.963962,9.225225 c -2.547476,0 -4.612613,2.065137 -4.612613,4.612613 0,0.268706 0.052,0.512653 0.0961,0.768768 0.373954,-2.171996 2.237748,-3.843843 4.516517,-3.843843 2.278768,0 4.142562,1.671847 4.516516,3.843843 0.04409,-0.256115 0.0961,-0.500062 0.0961,-0.768768 0,-2.547476 -2.065137,-4.612613 -4.612612,-4.612613 z m 15.375374,0 c -2.547475,0 -4.612612,2.065137 -4.612612,4.612613 0,0.268706 0.052,0.512653 0.0961,0.768768 0.373954,-2.171996 2.237748,-3.843843 4.516516,-3.843843 2.278769,0 4.142563,1.671847 4.516517,3.843843 0.04409,-0.256115 0.0961,-0.500062 0.0961,-0.768768 0,-2.547476 -2.065137,-4.612613 -4.612613,-4.612613 z m 15.375375,0 c -2.547475,0 -4.612612,2.065137 -4.612612,4.612613 0,0.268706 0.052,0.512653 0.0961,0.768768 0.373954,-2.171996 2.237748,-3.843843 4.516516,-3.843843 2.278769,0 4.142563,1.671847 4.516517,3.843843 0.04409,-0.256115 0.0961,-0.500062 0.0961,-0.768768 0,-2.547476 -2.065137,-4.612613 -4.612613,-4.612613 z"
     visibility="visible"
     inkscape:connector-curvature="0"
     id="path45" />
  <path
     style="color:#000000;visibility:visible;opacity:0.15;fill:#000000;fill-opacity:1;fill-rule:nonzero;stroke:none;stroke-width:2"
     d="m 22.174175,17.177177 c -1.022155,0 -1.873874,0.851719 -1.873874,1.873874 l 0,1.537538 c 0,-1.022155 0.851719,-1.873874 1.873874,-1.873874 l 21.093092,0 c 1.022155,0 1.825826,0.851719 1.825826,1.873874 l 0,-1.537538 c 0,-1.022155 -0.803671,-1.873874 -1.825826,-1.873874 l -21.093092,0 z m 38.294293,24.552552 0,1.537538 15.231231,0 0,-1.537538 -15.231231,0 z m 0,9.225225 0,1.537538 15.231231,0 0,-1.537538 -15.231231,0 z m -49.345344,3.843844 0,1.537538 c 0,3.066464 2.459061,5.573573 5.525525,5.573573 l 32.096096,0 c 3.066464,0 5.525525,-2.507109 5.525525,-5.573573 l 0,-1.537538 c 0,3.066465 -2.459061,5.573574 -5.525525,5.573574 l -32.096096,0 c -3.066464,0 -5.525525,-2.507109 -5.525525,-5.573574 z m 40.6006,10.09009 16.528528,18.45045 16.672672,-18.45045 -1.393393,0 L 68.252252,81.8018 53.117117,64.888888 l -1.393393,0 z M 11.21922,77.957957 c -0.0441,0.256115 -0.0961,0.500062 -0.0961,0.768769 0,2.547475 2.065137,4.612612 4.612613,4.612612 2.547475,0 4.612612,-2.065137 4.612612,-4.612612 0,-0.268707 -0.052,-0.512654 -0.0961,-0.768769 -0.373954,2.171996 -2.237748,3.843843 -4.516516,3.843843 -2.278769,0 -4.142563,-1.671847 -4.516517,-3.843843 z m 15.375375,0 c -0.0441,0.256115 -0.0961,0.500062 -0.0961,0.768769 0,2.547475 2.065137,4.612612 4.612612,4.612612 2.547476,0 4.612613,-2.065137 4.612613,-4.612612 0,-0.268707 -0.052,-0.512654 -0.0961,-0.768769 -0.373954,2.171996 -2.237748,3.843843 -4.516517,3.843843 -2.278768,0 -4.142562,-1.671847 -4.516516,-3.843843 z m 15.375375,0 c -0.0441,0.256115 -0.0961,0.500062 -0.0961,0.768769 0,2.547475 2.065137,4.612612 4.612612,4.612612 2.547476,0 4.612613,-2.065137 4.612613,-4.612612 0,-0.268707 -0.052,-0.512654 -0.0961,-0.768769 -0.373954,2.171996 -2.237748,3.843843 -4.516517,3.843843 -2.278768,0 -4.142562,-1.671847 -4.516516,-3.843843 z"
     visibility="visible"
     inkscape:connector-curvature="0"
     id="path47" />
</svg>
