<?xml version="1.0" encoding="UTF-8" standalone="no"?>
<svg
   xmlns:dc="http://purl.org/dc/elements/1.1/"
   xmlns:cc="http://creativecommons.org/ns#"
   xmlns:rdf="http://www.w3.org/1999/02/22-rdf-syntax-ns#"
   xmlns:svg="http://www.w3.org/2000/svg"
   xmlns="http://www.w3.org/2000/svg"
   xmlns:xlink="http://www.w3.org/1999/xlink"
   xmlns:sodipodi="http://sodipodi.sourceforge.net/DTD/sodipodi-0.dtd"
   xmlns:inkscape="http://www.inkscape.org/namespaces/inkscape"
   height="96"
   width="96"
   id="svg2"
   version="1.1"
   inkscape:version="0.91 r13725"
   sodipodi:docname="document-new.svg">
  <metadata
     id="metadata68">
    <rdf:RDF>
      <cc:Work
         rdf:about="">
        <dc:format>image/svg+xml</dc:format>
        <dc:type
           rdf:resource="http://purl.org/dc/dcmitype/StillImage" />
      </cc:Work>
    </rdf:RDF>
  </metadata>
  <sodipodi:namedview
     pagecolor="#ffffff"
     bordercolor="#666666"
     borderopacity="1"
     objecttolerance="10"
     gridtolerance="10"
     guidetolerance="10"
     inkscape:pageopacity="0"
     inkscape:pageshadow="2"
     inkscape:window-width="760"
     inkscape:window-height="480"
     id="namedview66"
     showgrid="false"
     inkscape:zoom="4.9166667"
     inkscape:cx="48.126583"
     inkscape:cy="29.04326"
     inkscape:window-x="270"
     inkscape:window-y="244"
     inkscape:window-maximized="0"
     inkscape:current-layer="svg2" />
  <defs
     id="defs4">
    <linearGradient
       x2="0"
       y1="92.54"
       y2="7.02"
       gradientUnits="userSpaceOnUse"
       id="ButtonShadow-0"
       gradientTransform="matrix(1.0059 0 0 0.99417 100 0)">
      <stop
         stop-color="#000000"
         stop-opacity="1"
         id="stop7" />
      <stop
         stop-color="#000000"
         stop-opacity="0.588"
         offset="1"
         id="stop9" />
    </linearGradient>
    <linearGradient
       x2="0"
       xlink:href="#ButtonShadow-0"
       y1="6.132"
       y2="90.24"
       gradientUnits="userSpaceOnUse"
       id="linearGradient3780"
       gradientTransform="matrix(1.02381 0 0 -1.0119 -1.143 98.07)" />
    <linearGradient
       x2="0"
       xlink:href="#ButtonShadow-0"
       y1="6.132"
       y2="90.24"
       gradientUnits="userSpaceOnUse"
       id="linearGradient3721"
       gradientTransform="matrix(1 0 0 -1 0 97)" />
    <radialGradient
       cy="90.17"
       r="42"
       gradientUnits="userSpaceOnUse"
       id="radialGradient3619-3"
       cx="48"
       gradientTransform="matrix(1.15731 0 0 0.99591 -7.551 0.197)">
      <stop
         stop-color="#ffffff"
         stop-opacity="1"
         id="stop14" />
      <stop
         stop-color="#ffffff"
         stop-opacity="0"
         offset="1"
         id="stop16" />
    </radialGradient>
    <linearGradient
       x2="0"
       y1="24"
       y2="76"
       gradientUnits="userSpaceOnUse"
       id="linearGradient3879"
       gradientTransform="matrix(1.4253865,0,0,1.4253865,-14.716915,-24.694803)">
      <stop
         stop-color="#1a1a1a"
         stop-opacity="1"
         id="stop19" />
      <stop
         stop-color="#4d4d4d"
         stop-opacity="1"
         offset="1"
         id="stop21" />
    </linearGradient>
    <rect
       x="6"
       rx="6"
       y="6"
       fill="#000000"
       fill-opacity="1"
       stroke="none"
       fill-rule="nonzero"
       height="84"
       id="SVGCleanerId_0"
       opacity="0.6"
       width="84" />
  </defs>
  <path
     style="color:#000000;visibility:visible;fill:url(#linearGradient3879);fill-opacity:1;fill-rule:nonzero;stroke:none;stroke-width:2"
     id="path60"
     inkscape:connector-curvature="0"
     visibility="visible"
     d="m 33.033533,9.514473 c -2.763825,0 -4.988853,2.225028 -4.988853,4.988853 l 0,32.071196 8.552319,0 0,-25.656957 c 0,-1.579328 1.271445,-2.850773 2.850773,-2.850773 l 28.50773,0 c 1.579328,0 2.850773,1.271445 2.850773,2.850773 l 0,39.910822 c 0,1.579328 -1.271445,2.850773 -2.850773,2.850773 l -14.253865,0 0,8.552319 20.668104,0 c 2.763825,0 4.988853,-2.225028 4.988853,-4.988853 l 0,-52.7393 c 0,-2.763825 -2.225028,-4.988853 -4.988853,-4.988853 l -41.336208,0 z m -4.988853,39.910822 0,11.403092 -11.403092,0 0,11.403092 11.403092,0 0,11.403092 11.403092,0 0,-11.403092 11.403092,0 0,-11.403092 -11.403092,0 0,-11.403092 -11.403092,0 z" />
  <path
     style="color:#000000;visibility:visible;opacity:0.75;fill:#ffffff;fill-opacity:1;fill-rule:nonzero;stroke:none;stroke-width:2"
     id="path62"
     inkscape:connector-curvature="0"
     visibility="visible"
     d="m 33.033533,9.514473 c -2.763825,0 -4.988853,2.225028 -4.988853,4.988853 l 0,1.425386 c 0,-2.763824 2.225028,-4.988853 4.988853,-4.988853 l 41.336208,0 c 2.763825,0 4.988853,2.225029 4.988853,4.988853 l 0,-1.425386 c 0,-2.763825 -2.225028,-4.988853 -4.988853,-4.988853 l -41.336208,0 z m -4.988853,39.910822 0,1.425386 11.403092,0 0,-1.425386 -11.403092,0 z m -11.403092,11.403092 0,1.425386 11.403092,0 0,-1.425386 -11.403092,0 z m 22.806184,0 0,1.425386 11.403092,0 0,-1.425386 -11.403092,0 z m 31.358503,0 c 0,1.579328 -1.271445,2.850773 -2.850773,2.850773 l -14.253865,0 0,1.425386 14.253865,0 c 1.579328,0 2.850773,-1.271444 2.850773,-2.850773 l 0,-1.425386 z" />
  <path
     style="color:#000000;visibility:visible;opacity:0.15;fill:#000000;fill-opacity:1;fill-rule:nonzero;stroke:none;stroke-width:2"
     id="path64"
     inkscape:connector-curvature="0"
     visibility="visible"
     d="m 39.447772,16.641405 c -1.579328,0 -2.850773,1.271445 -2.850773,2.850773 l 0,1.425387 c 0,-1.579328 1.271445,-2.850773 2.850773,-2.850773 l 28.50773,0 c 1.579328,0 2.850773,1.271445 2.850773,2.850773 l 0,-1.425387 c 0,-1.579328 -1.271445,-2.850773 -2.850773,-2.850773 l -28.50773,0 z m -11.403092,28.50773 0,1.425387 8.552319,0 0,-1.425387 -8.552319,0 z M 79.358594,65.81724 c 0,2.763824 -2.225028,4.988852 -4.988853,4.988852 l -20.668104,0 0,1.425387 20.668104,0 c 2.763825,0 4.988853,-2.225028 4.988853,-4.988853 l 0,-1.425386 z m -62.717006,4.988852 0,1.425387 11.403092,0 0,-1.425387 -11.403092,0 z m 22.806184,0 0,1.425387 11.403092,0 0,-1.425387 -11.403092,0 z m -11.403092,11.403092 0,1.425387 11.403092,0 0,-1.425387 -11.403092,0 z" />
</svg>
