<?xml version="1.0" encoding="UTF-8" standalone="no"?>
<svg
   xmlns:dc="http://purl.org/dc/elements/1.1/"
   xmlns:cc="http://creativecommons.org/ns#"
   xmlns:rdf="http://www.w3.org/1999/02/22-rdf-syntax-ns#"
   xmlns:svg="http://www.w3.org/2000/svg"
   xmlns="http://www.w3.org/2000/svg"
   xmlns:xlink="http://www.w3.org/1999/xlink"
   xmlns:sodipodi="http://sodipodi.sourceforge.net/DTD/sodipodi-0.dtd"
   xmlns:inkscape="http://www.inkscape.org/namespaces/inkscape"
   height="96"
   width="96"
   id="svg2"
   version="1.1"
   inkscape:version="0.91 r13725"
   sodipodi:docname="edit-find-replace.svg">
  <metadata
     id="metadata68">
    <rdf:RDF>
      <cc:Work
         rdf:about="">
        <dc:format>image/svg+xml</dc:format>
        <dc:type
           rdf:resource="http://purl.org/dc/dcmitype/StillImage" />
      </cc:Work>
    </rdf:RDF>
  </metadata>
  <sodipodi:namedview
     pagecolor="#ffffff"
     bordercolor="#666666"
     borderopacity="1"
     objecttolerance="10"
     gridtolerance="10"
     guidetolerance="10"
     inkscape:pageopacity="0"
     inkscape:pageshadow="2"
     inkscape:window-width="760"
     inkscape:window-height="480"
     id="namedview66"
     showgrid="false"
     inkscape:zoom="6.9532167"
     inkscape:cx="57.881282"
     inkscape:cy="16.434419"
     inkscape:window-x="138"
     inkscape:window-y="112"
     inkscape:window-maximized="0"
     inkscape:current-layer="svg2" />
  <defs
     id="defs4">
    <linearGradient
       x2="0"
       y1="92.54"
       y2="7.02"
       gradientUnits="userSpaceOnUse"
       id="ButtonShadow-0"
       gradientTransform="matrix(1.0059 0 0 0.99417 100 0)">
      <stop
         stop-color="#000000"
         stop-opacity="1"
         id="stop7" />
      <stop
         stop-color="#000000"
         stop-opacity="0.588"
         offset="1"
         id="stop9" />
    </linearGradient>
    <linearGradient
       x2="0"
       xlink:href="#ButtonShadow-0"
       y1="6.132"
       y2="90.24"
       gradientUnits="userSpaceOnUse"
       id="linearGradient3780"
       gradientTransform="matrix(1.02381 0 0 -1.0119 -1.143 98.07)" />
    <linearGradient
       x2="0"
       xlink:href="#ButtonShadow-0"
       y1="6.132"
       y2="90.24"
       gradientUnits="userSpaceOnUse"
       id="linearGradient3721"
       gradientTransform="matrix(1 0 0 -1 0 97)" />
    <radialGradient
       cy="90.17"
       r="42"
       gradientUnits="userSpaceOnUse"
       id="radialGradient3619-3"
       cx="48"
       gradientTransform="matrix(1.15731 0 0 0.99591 -7.551 0.197)">
      <stop
         stop-color="#ffffff"
         stop-opacity="1"
         id="stop14" />
      <stop
         stop-color="#ffffff"
         stop-opacity="0"
         offset="1"
         id="stop16" />
    </radialGradient>
    <linearGradient
       x2="0"
       y1="1.996"
       y2="18.974"
       gradientUnits="userSpaceOnUse"
       id="linearGradient3018"
       gradientTransform="matrix(4.3342812,0,0,4.3342812,-2.1345417,1.1138583)">
      <stop
         stop-color="#1a1a1a"
         stop-opacity="1"
         id="stop19" />
      <stop
         stop-color="#4d4d4d"
         stop-opacity="1"
         offset="1"
         id="stop21" />
    </linearGradient>
    <rect
       x="6"
       rx="6"
       y="6"
       fill="#000000"
       fill-opacity="1"
       stroke="none"
       fill-rule="nonzero"
       height="84"
       id="SVGCleanerId_0"
       opacity="0.6"
       width="84" />
  </defs>
  <path
     style="fill:url(#linearGradient3018);fill-opacity:1;stroke:none"
     id="path60"
     inkscape:connector-curvature="0"
     d="m 37.127758,9.5451634 c -6.668984,0 -13.31656,2.5250866 -18.4012,7.5910956 -10.1692778,10.132017 -10.1692762,26.574293 0,36.706311 8.865337,8.83286 22.522008,10.026925 32.622493,3.459233 1.716861,0.08582 4.493325,0.329372 5.47712,1.441348 1.339532,1.514058 -0.5511,5.043318 2.017886,7.350871 l 15.95091,16.191134 c 0,0 2.974821,3.158014 7.591096,-1.441347 4.616278,-4.599362 1.441347,-7.543051 1.441347,-7.543051 L 67.828455,57.109624 C 65.512411,54.550049 61.949164,56.426356 60.429539,55.091737 59.313469,54.111549 59.122353,51.373238 59.036237,49.662663 65.628082,39.59919 64.442345,25.969109 55.577003,17.136259 50.492364,12.07025 43.796742,9.5451634 37.127758,9.5451634 Z m 0.09609,8.6480836 c 9.587687,0 17.392257,7.743608 17.392257,17.296167 0,9.552565 -7.804565,17.296168 -17.392257,17.296168 -9.587681,4e-6 -17.344212,-7.743603 -17.344212,-17.296168 0,-4.77628 1.94897,-9.167228 5.09276,-12.299496 3.14379,-3.132272 7.457609,-4.996671 12.251452,-4.996671 z M 15.699729,74.117522 c -2.547309,0 -4.612312,2.065002 -4.612312,4.612311 0,2.547309 2.065003,4.612311 4.612312,4.612311 2.547309,0 4.612311,-2.065002 4.612311,-4.612311 0,-2.547309 -2.065002,-4.612311 -4.612311,-4.612311 z m 15.374371,0 c -2.547309,0 -4.612312,2.065002 -4.612312,4.612311 0,2.547309 2.065003,4.612311 4.612312,4.612311 2.547309,0 4.612311,-2.065002 4.612311,-4.612311 0,-2.547309 -2.065002,-4.612311 -4.612311,-4.612311 z m 15.374371,0 c -2.547309,0 -4.612312,2.065002 -4.612312,4.612311 0,2.547309 2.065003,4.612311 4.612312,4.612311 2.547309,0 4.612311,-2.065002 4.612311,-4.612311 0,-2.547309 -2.065002,-4.612311 -4.612311,-4.612311 z" />
  <path
     style="opacity:0.75;fill:#ffffff;fill-opacity:1;stroke:none"
     id="path62"
     inkscape:connector-curvature="0"
     d="m 37.127758,9.5451634 c -6.668984,0 -13.31656,2.5250866 -18.4012,7.5910956 -5.280255,5.260908 -7.794239,12.225133 -7.591096,19.121874 0.188092,-6.385736 2.702074,-12.713329 7.591096,-17.584437 5.08464,-5.066009 11.732216,-7.591096 18.4012,-7.591096 6.668984,0 13.364606,2.525087 18.449245,7.591096 4.85158,4.833798 7.403475,11.103889 7.639141,17.440302 C 63.367765,29.261687 60.822204,22.362235 55.577003,17.136259 50.492364,12.07025 43.796742,9.5451634 37.127758,9.5451634 Z M 19.927681,36.258133 c -0.01122,0.255903 -0.04804,0.510423 -0.04804,0.768719 0,9.552564 7.756531,17.296172 17.344212,17.296167 9.587692,0 17.392257,-7.743603 17.392257,-17.296167 0,-0.258294 -0.03674,-0.513186 -0.04804,-0.768719 C 54.161696,45.453 46.552295,52.785582 37.223848,52.785582 27.895412,52.785586 20.331587,45.453 19.927681,36.258133 Z M 59.132327,51.10401 c -0.02403,0.0371 -0.07186,0.05908 -0.09609,0.09609 0.08611,1.710575 0.277232,4.448886 1.393302,5.429075 1.519625,1.334618 5.082872,-0.541689 7.398916,2.017886 L 83.82741,74.838195 c 0,0 0.781091,0.737174 1.008943,2.017886 C 85.2716,74.612975 83.82741,73.300758 83.82741,73.300758 L 67.828455,57.109624 C 65.512411,54.550049 61.949164,56.426356 60.429539,55.091737 59.592486,54.356597 59.274724,52.641755 59.132327,51.10401 Z M 15.699729,74.117522 c -2.547309,0 -4.612312,2.065002 -4.612312,4.612311 0,0.268689 0.052,0.51262 0.09609,0.768718 0.37393,-2.171854 2.237602,-3.843592 4.516222,-3.843592 2.27862,0 4.142292,1.671738 4.516221,3.843592 0.04409,-0.256098 0.09609,-0.500029 0.09609,-0.768718 0,-2.547309 -2.065002,-4.612311 -4.612311,-4.612311 z m 15.374371,0 c -2.547309,0 -4.612312,2.065002 -4.612312,4.612311 0,0.268689 0.052,0.51262 0.09609,0.768718 0.37393,-2.171854 2.237602,-3.843592 4.516222,-3.843592 2.27862,0 4.142292,1.671738 4.516221,3.843592 0.04409,-0.256098 0.09609,-0.500029 0.09609,-0.768718 0,-2.547309 -2.065002,-4.612311 -4.612311,-4.612311 z m 15.374371,0 c -2.547309,0 -4.612312,2.065002 -4.612312,4.612311 0,0.268689 0.052,0.51262 0.09609,0.768718 0.37393,-2.171854 2.237602,-3.843592 4.516222,-3.843592 2.27862,0 4.142292,1.671738 4.516221,3.843592 0.04409,-0.256098 0.09609,-0.500029 0.09609,-0.768718 0,-2.547309 -2.065002,-4.612311 -4.612311,-4.612311 z" />
  <path
     style="opacity:0.15;fill:#000000;fill-opacity:1;stroke:none"
     id="path64"
     inkscape:connector-curvature="0"
     d="m 37.223848,16.65581 c -4.793843,0 -9.107662,1.864399 -12.251452,4.996671 -3.14379,3.132268 -5.09276,7.523216 -5.09276,12.299496 0,0.258296 0.03682,0.513186 0.04804,0.768719 0.19731,-4.476147 2.070937,-8.567899 5.044715,-11.530778 3.14379,-3.132272 7.457609,-4.996671 12.251452,-4.996671 9.328443,0 16.937848,7.332586 17.344212,16.527449 0.01122,-0.255533 0.04804,-0.510423 0.04804,-0.768719 0,-9.552559 -7.80457,-17.296167 -17.392257,-17.296167 z m 25.992296,17.920751 c -0.104638,4.729341 -1.488142,9.439269 -4.179907,13.548665 0.02082,0.413452 0.05143,0.899105 0.09609,1.393302 2.919015,-4.522985 4.276709,-9.755655 4.083817,-14.941967 z m -52.080682,0.144135 c -0.203143,6.896741 2.310841,13.860964 7.591096,19.121874 8.865337,8.83286 22.522008,10.026925 32.622493,3.459233 1.716861,0.08582 4.493325,0.329372 5.47712,1.441348 0.334883,0.378514 0.477228,0.861509 0.528494,1.441347 0.0048,-1.20252 0.07429,-2.297458 -0.528494,-2.978784 -0.983795,-1.111976 -3.760259,-1.355528 -5.47712,-1.441348 C 41.248566,62.332058 27.591895,61.137993 18.726558,52.305133 13.837537,47.434025 11.323554,41.106432 11.135462,34.720696 Z m 46.219203,25.848161 c 0.06546,1.7023 -0.308899,3.909878 1.489392,5.525165 l 15.95091,16.191134 c 0,0 2.974821,3.158014 7.591096,-1.441347 2.308139,-2.299682 2.666987,-4.166278 2.45029,-5.47712 -0.226108,1.105507 -0.939326,2.434257 -2.45029,3.939683 -4.616275,4.599361 -7.591096,1.441347 -7.591096,1.441347 L 58.844057,64.556585 C 57.559564,63.402807 57.370571,61.928874 57.354665,60.568857 Z M 11.183507,77.961114 c -0.04409,0.256099 -0.09609,0.50003 -0.09609,0.768719 0,2.547309 2.065003,4.612311 4.612312,4.612311 2.547309,0 4.612311,-2.065002 4.612311,-4.612311 0,-0.268689 -0.052,-0.51262 -0.09609,-0.768719 -0.373929,2.171855 -2.237601,3.843593 -4.516221,3.843593 -2.27862,0 -4.142292,-1.671738 -4.516222,-3.843593 z m 15.374371,0 c -0.04409,0.256099 -0.09609,0.50003 -0.09609,0.768719 0,2.547309 2.065003,4.612311 4.612312,4.612311 2.547309,0 4.612311,-2.065002 4.612311,-4.612311 0,-0.268689 -0.052,-0.51262 -0.09609,-0.768719 -0.373929,2.171855 -2.237601,3.843593 -4.516221,3.843593 -2.27862,0 -4.142292,-1.671738 -4.516222,-3.843593 z m 15.374371,0 c -0.04409,0.256099 -0.09609,0.50003 -0.09609,0.768719 0,2.547309 2.065003,4.612311 4.612312,4.612311 2.547309,0 4.612311,-2.065002 4.612311,-4.612311 0,-0.268689 -0.052,-0.51262 -0.09609,-0.768719 -0.373929,2.171855 -2.237601,3.843593 -4.516221,3.843593 -2.27862,0 -4.142292,-1.671738 -4.516222,-3.843593 z" />
</svg>
