<?xml version="1.0" encoding="UTF-8" standalone="no"?>
<svg
   xmlns:dc="http://purl.org/dc/elements/1.1/"
   xmlns:cc="http://creativecommons.org/ns#"
   xmlns:rdf="http://www.w3.org/1999/02/22-rdf-syntax-ns#"
   xmlns:svg="http://www.w3.org/2000/svg"
   xmlns="http://www.w3.org/2000/svg"
   xmlns:xlink="http://www.w3.org/1999/xlink"
   xmlns:sodipodi="http://sodipodi.sourceforge.net/DTD/sodipodi-0.dtd"
   xmlns:inkscape="http://www.inkscape.org/namespaces/inkscape"
   display="inline"
   height="96"
   width="96"
   id="svg2"
   version="1.1"
   inkscape:version="0.91 r13725"
   sodipodi:docname="edit-select-all.svg">
  <metadata
     id="metadata65">
    <rdf:RDF>
      <cc:Work
         rdf:about="">
        <dc:format>image/svg+xml</dc:format>
        <dc:type
           rdf:resource="http://purl.org/dc/dcmitype/StillImage" />
      </cc:Work>
    </rdf:RDF>
  </metadata>
  <sodipodi:namedview
     pagecolor="#ffffff"
     bordercolor="#666666"
     borderopacity="1"
     objecttolerance="10"
     gridtolerance="10"
     guidetolerance="10"
     inkscape:pageopacity="0"
     inkscape:pageshadow="2"
     inkscape:window-width="760"
     inkscape:window-height="480"
     id="namedview63"
     showgrid="false"
     inkscape:zoom="2.4583333"
     inkscape:cx="1.7071482"
     inkscape:cy="49.105931"
     inkscape:window-x="66"
     inkscape:window-y="91"
     inkscape:window-maximized="0"
     inkscape:current-layer="svg2" />
  <defs
     id="defs4">
    <linearGradient
       id="linearGradient4081">
      <stop
         stop-color="#4d4d4d"
         stop-opacity="1"
         id="stop7" />
      <stop
         stop-color="#1a1a1a"
         stop-opacity="1"
         offset="1"
         id="stop9" />
    </linearGradient>
    <linearGradient
       x2="0"
       xlink:href="#linearGradient4081"
       y1="72.09"
       y2="23.729"
       gradientUnits="userSpaceOnUse"
       id="linearGradient3746"
       gradientTransform="matrix(1.26316 0 0 1 81.05 0)" />
    <linearGradient
       x2="0"
       xlink:href="#linearGradient4081"
       y1="74"
       y2="21.914"
       gradientUnits="userSpaceOnUse"
       id="linearGradient3762" />
    <radialGradient
       cy="90.17"
       r="42"
       gradientUnits="userSpaceOnUse"
       id="radialGradient3619-5"
       cx="48"
       gradientTransform="matrix(1.15731 0 0 0.99591 -7.551 0.197)">
      <stop
         stop-color="#ffffff"
         stop-opacity="1"
         id="stop14" />
      <stop
         stop-color="#ffffff"
         stop-opacity="0"
         offset="1"
         id="stop16" />
    </radialGradient>
    <linearGradient
       x2="0"
       y1="92.54"
       y2="7.02"
       gradientUnits="userSpaceOnUse"
       id="ButtonShadow-0"
       gradientTransform="matrix(1.0059 0 0 0.99417 100 0)">
      <stop
         stop-color="#000000"
         stop-opacity="1"
         id="stop19" />
      <stop
         stop-color="#000000"
         stop-opacity="0.588"
         offset="1"
         id="stop21" />
    </linearGradient>
    <linearGradient
       x2="0"
       xlink:href="#ButtonShadow-0"
       y1="6.132"
       y2="90.24"
       gradientUnits="userSpaceOnUse"
       id="linearGradient3780"
       gradientTransform="matrix(1.02381 0 0 -1.0119 -1.143 98.07)" />
    <linearGradient
       x2="0"
       xlink:href="#ButtonShadow-0"
       y1="6.132"
       y2="90.24"
       gradientUnits="userSpaceOnUse"
       id="linearGradient3721-5"
       gradientTransform="matrix(1 0 0 -1 0 97)" />
  </defs>
  <g
     id="g3406"
     transform="matrix(1.4262508,0,0,1.4262508,-20.463699,-21.886289)">
    <path
       id="path39"
       inkscape:connector-curvature="0"
       visibility="visible"
       d="M 30.59375,21 C 26.746934,20.894021 23.567834,24.627571 24,28.393814 24.02259,42.602133 23.95475,56.8133 24.03402,71.019836 24.304444,74.659844 27.89644,77.438264 31.478825,77 43.012433,76.97711 54.54899,77.04592 66.080743,76.96534 69.731888,76.675963 72.427322,73.025129 72,69.458674 71.977406,55.299525 72.045246,41.137529 71.965979,26.980164 71.695555,23.340156 68.103559,20.561736 64.521174,21 53.212032,21 41.902891,21 30.59375,21 Z M 34,31 c 9.333333,0 18.666667,0 28,0 0,1.270833 0,2.541667 0,3.8125 C 61.903344,33.392351 60.373041,32.759038 59.114924,33 51.284949,33 43.454975,33 35.625,33 34.757503,33.167429 34.037723,33.946382 34,34.84375 34,33.5625 34,32.28125 34,31 Z m 0,8.1875 C 34.07973,40.105912 34.818837,40.851201 35.71875,41 34.808412,41.09408 34.039379,41.923284 34,42.84375 34,41.625 34,40.40625 34,39.1875 Z m 28,0 c 0,1.208333 0,2.416667 0,3.625 C 61.918056,41.868935 61.129466,41.083829 60.1875,41 61.141313,40.909522 61.907391,40.140626 62,39.1875 Z m -28,8 C 34.07973,48.105912 34.818837,48.851201 35.71875,49 34.808412,49.09408 34.039379,49.923284 34,50.84375 34,49.625 34,48.40625 34,47.1875 Z m 28,0 c 0,1.208333 0,2.416667 0,3.625 C 61.918056,49.868935 61.129466,49.083829 60.1875,49 61.141313,48.909522 61.907391,48.140626 62,47.1875 Z m -28,8 c 0.08194,0.943565 0.870534,1.728671 1.8125,1.8125 -0.943565,0.08194 -1.728671,0.870534 -1.8125,1.8125 0,-1.208333 0,-2.416667 0,-3.625 z m 28,0 c 0,3.9375 0,7.875 0,11.8125 -1.9375,0 -3.875,0 -5.8125,0 C 57.607649,66.90334 58.240962,65.373041 58,64.114924 58.149167,62.953405 57.92158,61.427138 56.59375,61.09375 55.691266,60.963811 57.390472,60.850975 57.521438,60.3141 58.305024,59.392293 57.900986,58.100335 58,57 c 1.295567,-0.0444 3.065154,0.357524 3.78125,-1.0625 0.09209,-0.242913 0.198799,-0.488397 0.21875,-0.75 z m -28,8 c 0.09666,1.420149 1.626959,2.053462 2.885076,1.8125 3.704975,0 7.409949,0 11.114924,0 -0.03031,1.013822 0.809966,1.915013 1.8125,2 -5.270833,0 -10.541667,0 -15.8125,0 0,-1.270833 0,-2.541667 0,-3.8125 z"
       style="color:black;visibility:visible;opacity:0.1;fill:black;fill-opacity:1;fill-rule:nonzero;stroke:none;stroke-width:1" />
    <path
       id="path41"
       visibility="visible"
       d="M 30.59375,22 C 27.503638,22 25,24.54793 25,27.65625 l 0,42.6875 C 25,73.45207 27.503638,76 30.59375,76 l 34.8125,0 C 68.496362,76 71,73.45207 71,70.34375 l 0,-42.6875 C 71,24.54793 68.496362,22 65.40625,22 l -34.8125,0 z M 34,30 l 1,0 26,0 1,0 c 0.567613,0 1,0.432387 1,1 l 0,1 0,34 0,1 c 0,0.567613 -0.432387,1 -1,1 l -1,0 -26,0 -1,0 c -0.567613,0 -1,-0.432387 -1,-1 l 0,-1 0,-34 0,-1 c 0,-0.567613 0.432387,-1 1,-1 z m 1.8125,4 A 1.0069645,1.0069645 0 0 0 35,35 l 0,4 a 1.0069645,1.0069645 0 0 0 1,1 l 24,0 a 1.0069645,1.0069645 0 0 0 1,-1 l 0,-4 a 1.0069645,1.0069645 0 0 0 -1,-1 l -24,0 a 1.0069645,1.0069645 0 0 0 -0.1875,0 z m 0,8 A 1.0069645,1.0069645 0 0 0 35,43 l 0,4 a 1.0069645,1.0069645 0 0 0 1,1 l 24,0 a 1.0069645,1.0069645 0 0 0 1,-1 l 0,-4 a 1.0069645,1.0069645 0 0 0 -1,-1 l -24,0 a 1.0069645,1.0069645 0 0 0 -0.1875,0 z m 0,8 A 1.0069645,1.0069645 0 0 0 35,51 l 0,4 a 1.0069645,1.0069645 0 0 0 1,1 l 13.8125,0 A 1.0069645,1.0069645 0 0 0 49,57 l 0,1.8125 A 1.0069645,1.0069645 0 0 0 48,58 l -12,0 a 1.0069645,1.0069645 0 0 0 -1,1 l 0,4 a 1.0069645,1.0069645 0 0 0 1,1 l 12,0 a 1.0069645,1.0069645 0 0 0 1,-0.84375 L 49,65 a 1.0069645,1.0069645 0 0 0 1,1 l 6,0 a 1.0069645,1.0069645 0 0 0 1,-1 l 0,-2 a 1.0069645,1.0069645 0 0 0 -1,-1 l -1,0 0,-2 1,0 a 1.0069645,1.0069645 0 0 0 1,-1 l 0,-2 A 1.0069645,1.0069645 0 0 0 56.15625,56 L 60,56 a 1.0069645,1.0069645 0 0 0 1,-1 l 0,-4 a 1.0069645,1.0069645 0 0 0 -1,-1 l -24,0 a 1.0069645,1.0069645 0 0 0 -0.1875,0 z M 49,59.1875 A 1.0069645,1.0069645 0 0 0 50,60 l 1,0 0,2 -1,0 a 1.0069645,1.0069645 0 0 0 -1,0.84375 l 0,-3.65625 z"
       inkscape:connector-curvature="0"
       style="color:black;visibility:visible;opacity:0.15;fill:black;fill-opacity:1;fill-rule:nonzero;stroke:none;stroke-width:1" />
    <path
       id="path43"
       inkscape:connector-curvature="0"
       visibility="visible"
       d="M 30.59375,23 C 28.054583,23 26,25.084107 26,27.65625 l 0,42.6875 C 26,72.915893 28.054583,75 30.59375,75 l 34.8125,0 C 67.945417,75 70,72.915893 70,70.34375 l 0,-42.6875 C 70,25.084107 67.945417,23 65.40625,23 l -34.8125,0 z M 34,29 l 1,0 26,0 1,0 c 1.108,0 2,0.892 2,2 l 0,1 0,34 0,1 c 0,1.108 -0.892,2 -2,2 l -1,0 -26,0 -1,0 c -1.108,0 -2,-0.892 -2,-2 l 0,-1 0,-34 0,-1 c 0,-1.108 0.892,-2 2,-2 z m 2,6 0,4 24,0 0,-4 -24,0 z m 0,8 0,4 24,0 0,-4 -24,0 z m 0,8 0,4 24,0 0,-4 -24,0 z m 14,6 0,2 2,0 0,4 -2,0 0,2 6,0 0,-2 -2,0 0,-4 2,0 0,-2 -6,0 z m -14,2 0,4 12,0 0,-4 -12,0 z"
       style="color:black;visibility:visible;opacity:0.3;fill:black;fill-opacity:1;fill-rule:nonzero;stroke:none;stroke-width:1" />
    <path
       id="path57"
       inkscape:connector-curvature="0"
       visibility="visible"
       d="M 30.59375,22 C 28.054583,22 26,24.084107 26,26.65625 l 0,42.6875 C 26,71.915893 28.054583,74 30.59375,74 l 34.8125,0 C 67.945417,74 70,71.915893 70,69.34375 l 0,-42.6875 C 70,24.084107 67.945417,22 65.40625,22 l -34.8125,0 z M 34,28 l 1,0 26,0 1,0 c 1.108,0 2,0.892 2,2 l 0,1 0,34 0,1 c 0,1.108 -0.892,2 -2,2 l -1,0 -26,0 -1,0 c -1.108,0 -2,-0.892 -2,-2 l 0,-1 0,-34 0,-1 c 0,-1.108 0.892,-2 2,-2 z m 2,6 0,4 24,0 0,-4 -24,0 z m 0,8 0,4 24,0 0,-4 -24,0 z m 0,8 0,4 24,0 0,-4 -24,0 z m 14,6 0,2 2,0 0,4 -2,0 0,2 6,0 0,-2 -2,0 0,-4 2,0 0,-2 -6,0 z m -14,2 0,4 12,0 0,-4 -12,0 z"
       style="color:black;visibility:visible;fill:url(#linearGradient3762);fill-opacity:1;fill-rule:nonzero;stroke:none;stroke-width:1" />
    <path
       id="path59"
       inkscape:connector-curvature="0"
       visibility="visible"
       d="M 30.59375,22 C 28.054583,22 26,24.084107 26,26.65625 l 0,1 C 26,25.084107 28.054583,23 30.59375,23 l 34.8125,0 C 67.945417,23 70,25.084107 70,27.65625 l 0,-1 C 70,24.084107 67.945417,22 65.40625,22 l -34.8125,0 z M 36,34 l 0,1 24,0 0,-1 -24,0 z m 0,8 0,1 24,0 0,-1 -24,0 z m 0,8 0,1 24,0 0,-1 -24,0 z m 14,6 0,1 6,0 0,-1 -6,0 z m -14,2 0,1 12,0 0,-1 -12,0 z m 14,4 0,1 2,0 0,-1 -2,0 z m 4,0 0,1 2,0 0,-1 -2,0 z m -22,4 0,1 c 0,1.108 0.892,2 2,2 l 1,0 26,0 1,0 c 1.108,0 2,-0.892 2,-2 l 0,-1 c 0,1.108 -0.892,2 -2,2 l -1,0 -26,0 -1,0 c -1.108,0 -2,-0.892 -2,-2 z"
       style="color:black;visibility:visible;opacity:0.75;fill:white;fill-opacity:1;fill-rule:nonzero;stroke:none;stroke-width:1" />
    <path
       id="path61"
       inkscape:connector-curvature="0"
       visibility="visible"
       d="m 34,27 c -1.108,0 -2,0.892 -2,2 l 0,1 c 0,-1.108 0.892,-2 2,-2 l 1,0 26,0 1,0 c 1.108,0 2,0.892 2,2 l 0,-1 c 0,-1.108 -0.892,-2 -2,-2 l -1,0 -26,0 -1,0 z m 2,10 0,1 24,0 0,-1 -24,0 z m 0,8 0,1 24,0 0,-1 -24,0 z m 0,8 0,1 24,0 0,-1 -24,0 z m 14,4 0,1 2,0 0,-1 -2,0 z m 4,0 0,1 2,0 0,-1 -2,0 z m -18,4 0,1 12,0 0,-1 -12,0 z m 14,2 0,1 6,0 0,-1 -6,0 z m -24,5.34375 0,1 C 26,71.915893 28.054583,74 30.59375,74 l 34.8125,0 C 67.945417,74 70,71.915893 70,69.34375 l 0,-1 C 70,70.915893 67.945417,73 65.40625,73 l -34.8125,0 C 28.054583,73 26,70.915893 26,68.34375 Z"
       style="color:black;visibility:visible;opacity:0.15;fill:black;fill-opacity:1;fill-rule:nonzero;stroke:none;stroke-width:1" />
  </g>
</svg>
