<svg height="96" width="96" xmlns="http://www.w3.org/2000/svg" xmlns:xlink="http://www.w3.org/1999/xlink" xmlns:sodipodi="http://sodipodi.sourceforge.net/DTD/sodipodi-0.dtd" xmlns:inkscape="http://www.inkscape.org/namespaces/inkscape">
 <defs>
  <linearGradient x2="0" y1="92.54" y2="7.02" gradientUnits="userSpaceOnUse" id="ButtonShadow-0" gradientTransform="matrix(1.0059 0 0 0.99417 100 0)">
   <stop stop-color="#000000" stop-opacity="1"/>
   <stop stop-color="#000000" stop-opacity="0.588" offset="1"/>
  </linearGradient>
  <linearGradient x2="0" xlink:href="#ButtonShadow-0" y1="6.132" y2="90.24" gradientUnits="userSpaceOnUse" id="linearGradient3780" gradientTransform="matrix(1.02381 0 0 -1.0119 -1.143 98.07)"/>
  <linearGradient x2="0" xlink:href="#ButtonShadow-0" y1="6.132" y2="90.24" gradientUnits="userSpaceOnUse" id="linearGradient3721" gradientTransform="matrix(1 0 0 -1 0 97)"/>
  <radialGradient cy="90.17" r="42" gradientUnits="userSpaceOnUse" id="radialGradient3619-3" cx="48" gradientTransform="matrix(1.15731 0 0 0.99591 -7.551 0.197)">
   <stop stop-color="#ffffff" stop-opacity="1"/>
   <stop stop-color="#ffffff" stop-opacity="0" offset="1"/>
  </radialGradient>
  <linearGradient x2="0" y1="1.996" y2="18.974" gradientUnits="userSpaceOnUse" id="linearGradient3018" gradientTransform="matrix(2.81916 0 0 2.81916 15.4 18.516)">
   <stop stop-color="#f0f0f0" stop-opacity="1"/>
   <stop stop-color="#aaaaaa" stop-opacity="1" offset="1"/>
  </linearGradient>
  <rect x="6" rx="6" y="6" fill="#000000" fill-opacity="1" stroke="none" fill-rule="nonzero" height="84" id="SVGCleanerId_0" opacity="0.6" width="84"/>
 </defs>
 <path d="M 12,3.96875 C 6.4889098,3.96875 1.96875,8.4889098 1.96875,14 l 0,71 c 0,5.51109 4.5201597,10.03125 10.03125,10.03125 l 72,0 c 5.51109,0 10.03125,-4.52016 10.03125,-10.03125 l 0,-71 C 94.03125,8.4889097 89.51109,3.96875 84,3.96875 l -72,0 z M 12,6 84,6 c 3.324,0 6,2.676 6,6 l 0,72 c 0,3.324 -2.676,6 -6,6 L 12,90 C 8.676,90 6,87.324 6,84 L 6,12 C 6,8.676 8.676,6 12,6 z" display="inline" fill="url(#linearGradient3780)" fill-opacity="1" fill-rule="nonzero" stroke="none" opacity="0.08" inkscape:connector-curvature="0"/>
 <path d="M 12,4.96875 C 7.0283671,4.96875 2.96875,9.0283671 2.96875,14 l 0,71 c 0,4.971633 4.059617,9.03125 9.03125,9.03125 l 72,0 c 4.971633,0 9.03125,-4.059617 9.03125,-9.03125 l 0,-71 C 93.03125,9.028367 88.971633,4.96875 84,4.96875 l -72,0 z M 12,6 84,6 c 3.324,0 6,2.676 6,6 l 0,72 c 0,3.324 -2.676,6 -6,6 L 12,90 C 8.676,90 6,87.324 6,84 L 6,12 C 6,8.676 8.676,6 12,6 z" display="inline" fill="url(#linearGradient3780)" fill-opacity="1" fill-rule="nonzero" stroke="none" opacity="0.1" inkscape:connector-curvature="0"/>
 <path d="M 11.1875,6.03125 C 7.159982,6.4419011 4,9.8664375 4,14 l 0,71 c 0,4.409133 3.590867,8 8,8 l 72,0 c 4.409133,0 8,-3.590867 8,-8 L 92,14 C 92,9.8029382 88.741028,6.3539584 84.625,6.03125 87.657886,6.337417 90,8.88375 90,12 l 0,72 c 0,3.324 -2.676,6 -6,6 L 12,90 C 8.676,90 6,87.324 6,84 L 6,12 c 0,-3.11625 2.342114,-5.662583 5.375,-5.96875 -0.06227,0.00488 -0.12563,-0.00631 -0.1875,0 z" display="inline" fill="url(#linearGradient3780)" fill-opacity="1" fill-rule="nonzero" stroke="none" opacity="0.2" inkscape:connector-curvature="0"/>
 <path d="M 6.4375,9.75 C 5.5380109,10.927446 5,12.397277 5,14 l 0,71 c 0,3.878 3.122,7 7,7 l 72,0 c 3.878,0 7,-3.122 7,-7 L 91,14 C 91,12.397277 90.461989,10.927446 89.5625,9.75 89.841816,10.444095 90,11.203625 90,12 l 0,72 c 0,3.324 -2.676,6 -6,6 L 12,90 C 8.676,90 6,87.324 6,84 L 6,12 C 6,11.203625 6.1581836,10.444095 6.4375,9.75 z" display="inline" fill="url(#linearGradient3780)" fill-opacity="1" fill-rule="nonzero" stroke="none" opacity="0.3" inkscape:connector-curvature="0"/>
 <path d="m 6,84 0,1 c 0,3.324 2.676,6 6,6 l 72,0 c 3.324,0 6,-2.676 6,-6 l 0,-1 c 0,3.324 -2.676,6 -6,6 L 12,90 C 8.676,90 6,87.324 6,84 z" display="inline" fill="url(#linearGradient3721)" fill-opacity="1" fill-rule="nonzero" stroke="none" opacity="0.45" inkscape:connector-curvature="0"/>
 <g display="inline">
  <use xlink:href="#SVGCleanerId_0"/>
  <path d="M 12,90 C 8.676,90 6,87.324 6,84 L 6,82 6,14 6,12 c 0,-0.334721 0.04135,-0.6507 0.09375,-0.96875 0.0487,-0.295596 0.09704,-0.596915 0.1875,-0.875 C 6.29113,10.12587 6.302142,10.09265 6.3125,10.0625 6.411365,9.774729 6.5473802,9.515048 6.6875,9.25 6.8320918,8.976493 7.0031161,8.714385 7.1875,8.46875 7.3718839,8.223115 7.5612765,7.995278 7.78125,7.78125 8.221197,7.353194 8.72416,6.966724 9.28125,6.6875 9.559795,6.547888 9.8547231,6.440553 10.15625,6.34375 9.9000482,6.443972 9.6695391,6.580022 9.4375,6.71875 c -0.00741,0.0044 -0.023866,-0.0045 -0.03125,0 -0.031933,0.0193 -0.062293,0.04251 -0.09375,0.0625 -0.120395,0.0767 -0.2310226,0.163513 -0.34375,0.25 -0.1061728,0.0808 -0.2132809,0.161112 -0.3125,0.25 C 8.4783201,7.442683 8.3087904,7.626638 8.15625,7.8125 8.0486711,7.942755 7.9378561,8.077785 7.84375,8.21875 7.818661,8.25713 7.805304,8.30462 7.78125,8.34375 7.716487,8.446782 7.6510225,8.548267 7.59375,8.65625 7.4927417,8.850956 7.3880752,9.071951 7.3125,9.28125 7.30454,9.30306 7.288911,9.3218 7.28125,9.34375 7.2494249,9.4357 7.2454455,9.530581 7.21875,9.625 7.1884177,9.731618 7.1483606,9.828031 7.125,9.9375 7.0521214,10.279012 7,10.635705 7,11 l 0,2 0,68 0,2 c 0,2.781848 2.2181517,5 5,5 l 2,0 68,0 2,0 c 2.781848,0 5,-2.218152 5,-5 l 0,-2 0,-68 0,-2 C 89,10.635705 88.94788,10.279012 88.875,9.9375 88.83085,9.730607 88.78662,9.539842 88.71875,9.34375 88.71105,9.3218 88.69545,9.30306 88.6875,9.28125 88.62476,9.107511 88.549117,8.913801 88.46875,8.75 88.42717,8.6672 88.38971,8.580046 88.34375,8.5 88.28915,8.40279 88.216976,8.31165 88.15625,8.21875 88.06214,8.077785 87.951329,7.942755 87.84375,7.8125 87.700576,7.63805 87.540609,7.465502 87.375,7.3125 87.36383,7.3023 87.35502,7.29135 87.34375,7.28125 87.205364,7.155694 87.058659,7.046814 86.90625,6.9375 86.803679,6.86435 86.701932,6.784136 86.59375,6.71875 c -0.0074,-0.0045 -0.02384,0.0044 -0.03125,0 -0.232039,-0.138728 -0.462548,-0.274778 -0.71875,-0.375 0.301527,0.0968 0.596455,0.204138 0.875,0.34375 0.55709,0.279224 1.060053,0.665694 1.5,1.09375 0.219973,0.214028 0.409366,0.441865 0.59375,0.6875 0.184384,0.245635 0.355408,0.507743 0.5,0.78125 0.14012,0.265048 0.276135,0.524729 0.375,0.8125 0.01041,0.03078 0.02133,0.06274 0.03125,0.09375 0.09046,0.278085 0.1388,0.579404 0.1875,0.875 C 89.95865,11.3493 90,11.665279 90,12 l 0,2 0,68 0,2 c 0,3.324 -2.676,6 -6,6 l -72,0 z" fill="url(#radialGradient3619-3)" fill-opacity="1" fill-rule="nonzero" stroke="none" opacity="0.15" inkscape:connector-curvature="0"/>
 </g>
 <g display="inline">
  <path d="m 40.9375,23 c -4.843952,0 -9.713417,1.820697 -13.40625,5.5 -7.385878,7.358815 -7.385877,19.391184 0,26.75 6.235791,6.212947 15.784038,7.171398 23.0625,2.875 0.411355,0.02642 0.844548,0.03012 1.15625,0.09375 0.132966,0.02714 0.232013,0.08487 0.34375,0.125 1.88e-4,0.194814 -0.0049,0.45197 0,0.875 0.01088,0.930421 0.340094,2.249073 1.25,3.40625 0.0058,0.0074 -0.0059,0.02388 0,0.03125 0.0097,0.02119 0.02011,0.04204 0.03125,0.0625 0.03412,0.185723 0.121892,0.361271 0.25,0.5 l 10.375,10.5 c 0.03005,0.02257 0.06136,0.04344 0.09375,0.0625 0.0491,0.03589 0.101472,0.06732 0.15625,0.09375 0.114588,0.101855 0.240781,0.242786 0.4375,0.375 0.41011,0.275632 1.022437,0.595464 1.78125,0.71875 1.553731,0.252438 3.511847,-0.331059 5.34375,-2.15625 1.834352,-1.827629 2.413005,-3.790593 2.15625,-5.34375 -0.240365,-1.45401 -1.113301,-2.274545 -1.25,-2.40625 -0.0019,-0.0018 0.0016,-0.0297 0,-0.03125 l 0,-0.03125 -10.3125,-10.4375 c -0.06587,-0.07279 -0.07204,-0.07517 -0.03125,-0.03125 -1.277141,-1.374959 -3.009631,-1.548902 -4.0625,-1.5625 -0.411495,-0.0053 -0.642888,-6.89e-4 -0.84375,0 C 57.43544,52.867372 57.398583,52.777817 57.375,52.65625 57.313315,52.338275 57.276618,51.908324 57.25,51.5 61.564838,44.243482 60.61263,34.714768 54.375,28.5 50.677933,24.816479 45.781127,23 40.9375,23 z M 41,32.625 c 5.156365,0 9.3125,4.12946 9.3125,9.25 0,5.120544 -4.15613,9.25 -9.3125,9.25 -5.156756,3e-6 -9.28125,-4.122074 -9.28125,-9.25 0,-2.55645 1.073419,-4.892063 2.75,-6.5625 C 36.149205,33.638202 38.403641,32.625 41,32.625 z" fill="#000000" fill-opacity="1" stroke="none" opacity="0.1" inkscape:connector-curvature="0"/>
  <path d="m 40.9375,24 c -4.591276,0 -9.18841,1.732481 -12.6875,5.21875 -6.999344,6.973697 -6.999343,18.338802 0,25.3125 6.002554,5.980564 15.228555,6.850372 22.15625,2.5625 0.489012,0.03056 1.040205,0.05601 1.53125,0.15625 0.58132,0.118672 1.029171,0.368578 1.0625,0.40625 0.01179,0.01333 0.06933,0.09876 0.09375,0.375 0.02442,0.276244 -0.0056,0.707659 0,1.1875 0.01103,0.94295 0.217153,2.253103 1.28125,3.25 L 54.34375,62.5 64.71875,73 64.75,73 c 0.02679,0.02773 0.712218,0.77983 1.875,0.96875 1.18509,0.192544 2.809608,-0.221937 4.46875,-1.875 1.658758,-1.652679 2.070454,-3.286413 1.875,-4.46875 -0.189053,-1.143615 -0.89012,-1.829546 -0.9375,-1.875 L 72,65.71875 61.65625,55.25 c -0.01094,-0.01209 -0.02023,-0.01938 -0.03125,-0.03125 -1.003651,-1.080522 -2.357535,-1.237666 -3.3125,-1.25 -0.482726,-0.0062 -0.907386,0.02483 -1.1875,0 C 56.844886,53.94392 56.763184,53.88658 56.75,53.875 56.71414,53.84351 56.486189,53.416908 56.375,52.84375 56.281078,52.3596 56.247801,51.804778 56.21875,51.3125 60.523781,44.407739 59.659762,35.200258 53.65625,29.21875 50.154919,25.730248 45.528776,24 40.9375,24 z M 41,31.625 c 5.695303,0 10.3125,4.583807 10.3125,10.25 0,5.666196 -4.617193,10.25 -10.3125,10.25 -5.695299,3e-6 -10.28125,-4.580436 -10.28125,-10.25 0,-2.833402 1.171882,-5.428696 3.03125,-7.28125 C 35.610543,32.740024 38.142361,31.625 41,31.625 z" fill="#000000" fill-opacity="1" stroke="none" opacity="0.15" inkscape:connector-curvature="0"/>
  <path d="m 40.9375,25 c -4.337728,0 -8.661532,1.6424 -11.96875,4.9375 -6.614435,6.590199 -6.614434,17.2848 0,23.875 5.766309,5.745185 14.64906,6.521844 21.21875,2.25 1.116703,0.05582 2.922607,0.214234 3.5625,0.9375 0.871276,0.984794 -0.358454,3.280341 1.3125,4.78125 l 10.375,10.53125 c 0,0 1.934922,2.054077 4.9375,-0.9375 3.00258,-2.991577 0.9375,-4.90625 0.9375,-4.90625 L 60.90625,55.9375 C 59.399818,54.272668 57.082164,55.49308 56.09375,54.625 55.367821,53.987453 55.243513,52.206365 55.1875,51.09375 59.475054,44.548134 58.703812,35.682678 52.9375,29.9375 49.630282,26.6424 45.275228,25 40.9375,25 z M 41,30.625 c 6.236149,0 11.3125,5.036699 11.3125,11.25 0,6.213304 -5.076348,11.25 -11.3125,11.25 -6.236145,3e-6 -11.28125,-5.036696 -11.28125,-11.25 0,-3.106651 1.267675,-5.962669 3.3125,-8 2.044825,-2.037333 4.850676,-3.25 7.96875,-3.25 z" fill="#000000" fill-opacity="1" stroke="none" opacity="0.3" inkscape:connector-curvature="0"/>
  <text x="104" font-size="4" font-stretch="normal" font-style="normal" letter-spacing="0" font-variant="normal" y="48" font-weight="normal" text-anchor="start" line-height="125%" fill="#000000" fill-opacity="1" stroke="none" word-spacing="0" writing-mode="lr-tb" font-family="Liberation Sans"><tspan x="104" y="48">Shadow opacity : 30, 15, 10, (8)</tspan>
  </text>
  <text x="124" font-size="4" font-stretch="normal" font-style="normal" letter-spacing="0" font-variant="normal" y="32" font-weight="normal" text-anchor="start" line-height="125%" fill="#000000" fill-opacity="1" stroke="none" word-spacing="0" writing-mode="lr-tb" font-family="Liberation Sans"><tspan x="124" y="32">Bevel opacity : 30 / 10</tspan>
  </text>
  <text x="124" font-size="4" font-stretch="normal" font-style="normal" letter-spacing="0" font-variant="normal" y="8" font-weight="normal" text-anchor="start" line-height="125%" fill="#000000" fill-opacity="1" stroke="none" word-spacing="0" writing-mode="lr-tb" font-family="Liberation Sans"><tspan x="124" y="8">Bevel opacity : 75 / 15</tspan>
  </text>
  <path d="m 40.9375,24 c -4.337728,0 -8.661532,1.6424 -11.96875,4.9375 -6.614435,6.590199 -6.614434,17.2848 0,23.875 5.766309,5.745185 14.64906,6.521844 21.21875,2.25 1.116703,0.05582 2.922607,0.214234 3.5625,0.9375 0.871276,0.984794 -0.358454,3.280341 1.3125,4.78125 l 10.375,10.53125 c 0,0 1.934922,2.054077 4.9375,-0.9375 3.00258,-2.991577 0.9375,-4.90625 0.9375,-4.90625 L 60.90625,54.9375 C 59.399818,53.272668 57.082164,54.49308 56.09375,53.625 55.367821,52.987453 55.243513,51.206365 55.1875,50.09375 59.475054,43.548134 58.703812,34.682678 52.9375,28.9375 49.630282,25.6424 45.275228,24 40.9375,24 z M 41,29.625 c 6.236149,0 11.3125,5.036699 11.3125,11.25 0,6.213304 -5.076348,11.25 -11.3125,11.25 -6.236145,3e-6 -11.28125,-5.036696 -11.28125,-11.25 0,-3.106651 1.267675,-5.962669 3.3125,-8 2.044825,-2.037333 4.850676,-3.25 7.96875,-3.25 z" fill="url(#linearGradient3018)" fill-opacity="1" stroke="none" inkscape:connector-curvature="0"/>
  <path d="m 40.9375,24 c -4.337728,0 -8.661532,1.6424 -11.96875,4.9375 -3.434453,3.421869 -5.069631,7.951631 -4.9375,12.4375 0.122341,-4.153494 1.757518,-8.26917 4.9375,-11.4375 C 32.275968,26.6424 36.599772,25 40.9375,25 c 4.337728,0 8.692782,1.6424 12,4.9375 3.155628,3.144062 4.815465,7.222337 4.96875,11.34375 C 58.004869,36.82428 56.349152,32.336648 52.9375,28.9375 49.630282,25.6424 45.275228,24 40.9375,24 z M 29.75,41.375 c -0.0073,0.166448 -0.03125,0.331996 -0.03125,0.5 0,6.213304 5.045105,11.250003 11.28125,11.25 6.236152,0 11.3125,-5.036696 11.3125,-11.25 0,-0.168003 -0.0239,-0.333793 -0.03125,-0.5 -0.264313,5.980646 -5.213719,10.75 -11.28125,10.75 -6.067524,3e-6 -10.987286,-4.769354 -11.25,-10.75 z m 25.5,9.65625 c -0.01563,0.02413 -0.04674,0.03843 -0.0625,0.0625 0.05601,1.112615 0.180321,2.893703 0.90625,3.53125 0.988414,0.86808 3.306068,-0.352332 4.8125,1.3125 L 71.3125,66.46875 c 0,0 0.508047,0.479482 0.65625,1.3125 0.283099,-1.458991 -0.65625,-2.3125 -0.65625,-2.3125 L 60.90625,54.9375 C 59.399818,53.272668 57.082164,54.49308 56.09375,53.625 55.549303,53.14684 55.34262,52.03145 55.25,51.03125 z" fill="#ffffff" fill-opacity="1" stroke="none" opacity="0.75" inkscape:connector-curvature="0"/>
  <path d="m 41,28.625 c -3.118074,0 -5.923925,1.212667 -7.96875,3.25 -2.044825,2.037331 -3.3125,4.893349 -3.3125,8 0,0.168004 0.02395,0.333793 0.03125,0.5 0.128337,-2.911434 1.347006,-5.572845 3.28125,-7.5 2.044825,-2.037333 4.850676,-3.25 7.96875,-3.25 6.067528,0 11.016937,4.769357 11.28125,10.75 0.0073,-0.166207 0.03125,-0.331996 0.03125,-0.5 0,-6.213301 -5.076351,-11.25 -11.3125,-11.25 z m 16.90625,11.65625 c -0.06806,3.07612 -0.967937,6.139613 -2.71875,8.8125 0.01354,0.268923 0.03345,0.584808 0.0625,0.90625 1.898624,-2.941899 2.781713,-6.345401 2.65625,-9.71875 z m -33.875,0.09375 c -0.132131,4.485869 1.503047,9.01563 4.9375,12.4375 5.766309,5.745185 14.64906,6.521844 21.21875,2.25 1.116703,0.05582 2.922607,0.214234 3.5625,0.9375 0.217819,0.246198 0.310405,0.560354 0.34375,0.9375 C 54.09685,56.155341 54.14207,55.443157 53.75,55 53.110107,54.276734 51.304203,54.11832 50.1875,54.0625 43.61781,58.334344 34.735059,57.557685 28.96875,51.8125 25.788769,48.64417 24.153591,44.528494 24.03125,40.375 z m 30.0625,16.8125 c 0.04258,1.107232 -0.200918,2.543114 0.96875,3.59375 l 10.375,10.53125 c 0,0 1.934922,2.054077 4.9375,-0.9375 1.50129,-1.495789 1.734697,-2.709885 1.59375,-3.5625 -0.147068,0.719058 -0.610969,1.583321 -1.59375,2.5625 -3.002578,2.991577 -4.9375,0.9375 -4.9375,0.9375 L 55.0625,59.78125 C 54.227023,59.030795 54.104096,58.0721 54.09375,57.1875 z" fill="#000000" fill-opacity="1" stroke="none" opacity="0.15" inkscape:connector-curvature="0"/>
 </g>
</svg>
