<?xml version="1.0" encoding="UTF-8" standalone="no"?>
<svg
   xmlns:dc="http://purl.org/dc/elements/1.1/"
   xmlns:cc="http://creativecommons.org/ns#"
   xmlns:rdf="http://www.w3.org/1999/02/22-rdf-syntax-ns#"
   xmlns:svg="http://www.w3.org/2000/svg"
   xmlns="http://www.w3.org/2000/svg"
   xmlns:xlink="http://www.w3.org/1999/xlink"
   xmlns:sodipodi="http://sodipodi.sourceforge.net/DTD/sodipodi-0.dtd"
   xmlns:inkscape="http://www.inkscape.org/namespaces/inkscape"
   display="inline"
   height="96"
   width="96"
   id="svg2"
   version="1.1"
   inkscape:version="0.91 r13725"
   sodipodi:docname="edit-paste.svg">
  <metadata
     id="metadata51">
    <rdf:RDF>
      <cc:Work
         rdf:about="">
        <dc:format>image/svg+xml</dc:format>
        <dc:type
           rdf:resource="http://purl.org/dc/dcmitype/StillImage" />
      </cc:Work>
    </rdf:RDF>
  </metadata>
  <sodipodi:namedview
     pagecolor="#ffffff"
     bordercolor="#666666"
     borderopacity="1"
     objecttolerance="10"
     gridtolerance="10"
     guidetolerance="10"
     inkscape:pageopacity="0"
     inkscape:pageshadow="2"
     inkscape:window-width="760"
     inkscape:window-height="480"
     id="namedview49"
     showgrid="false"
     inkscape:zoom="4.9166667"
     inkscape:cx="52.748609"
     inkscape:cy="30.487005"
     inkscape:window-x="94"
     inkscape:window-y="68"
     inkscape:window-maximized="0"
     inkscape:current-layer="svg2" />
  <defs
     id="defs4">
    <linearGradient
       x2="0"
       y1="76"
       y2="20"
       gradientUnits="userSpaceOnUse"
       id="linearGradient3765"
       gradientTransform="matrix(1.3333333,0,0,1.3333333,-18.666665,-17.333332)">
      <stop
         stop-color="#4d4d4d"
         stop-opacity="1"
         id="stop7" />
      <stop
         stop-color="#1a1a1a"
         stop-opacity="1"
         offset="1"
         id="stop9" />
    </linearGradient>
    <radialGradient
       cy="90.17"
       r="42"
       gradientUnits="userSpaceOnUse"
       id="radialGradient3619-7"
       cx="48"
       gradientTransform="matrix(1.15731 0 0 0.99591 -7.551 0.197)">
      <stop
         stop-color="#ffffff"
         stop-opacity="1"
         id="stop12" />
      <stop
         stop-color="#ffffff"
         stop-opacity="0"
         offset="1"
         id="stop14" />
    </radialGradient>
    <linearGradient
       x2="0"
       y1="92.54"
       y2="7.02"
       gradientUnits="userSpaceOnUse"
       id="ButtonShadow-0"
       gradientTransform="matrix(1.0059 0 0 0.99417 100 0)">
      <stop
         stop-color="#000000"
         stop-opacity="1"
         id="stop17" />
      <stop
         stop-color="#000000"
         stop-opacity="0.588"
         offset="1"
         id="stop19" />
    </linearGradient>
    <linearGradient
       x2="0"
       xlink:href="#ButtonShadow-0"
       y1="6.132"
       y2="90.24"
       gradientUnits="userSpaceOnUse"
       id="linearGradient3780-9"
       gradientTransform="matrix(1.02381 0 0 -1.0119 -1.143 98.07)" />
    <linearGradient
       x2="0"
       xlink:href="#ButtonShadow-0"
       y1="6.132"
       y2="90.24"
       gradientUnits="userSpaceOnUse"
       id="linearGradient3721-9"
       gradientTransform="matrix(1 0 0 -1 0 97)" />
  </defs>
  <path
     style="color:#000000;visibility:visible;fill:url(#linearGradient3765);fill-opacity:1;fill-rule:nonzero;stroke:none;stroke-width:1"
     d="m 36,9.333334 c -0.738666,0 -1.333333,0.5946667 -1.333333,1.333333 l 0,1.333334 -1.333333,0 C 32.594667,12.000001 32,12.594667 32,13.333334 l 0,1.333333 -6.666666,0 -1.333333,0 c -2.954667,0 -5.333334,2.378667 -5.333334,5.333333 l 0,1.333334 0,50.666665 0,1.333333 c 0,2.954667 2.378667,5.333334 5.333334,5.333334 l 1.333333,0 4,0 c 0,2.954666 2.378666,5.333333 5.333333,5.333333 l 37.333332,0 c 2.954667,0 5.333334,-2.378667 5.333334,-5.333333 l 0,-47.999999 c 0,-2.954667 -2.378667,-5.333333 -5.333334,-5.333333 l 0,-4 0,-1.333334 c 0,-2.954666 -2.378666,-5.333333 -5.333333,-5.333333 l -1.333333,0 -6.666667,0 0,-1.333333 c 0,-0.738667 -0.594666,-1.333333 -1.333333,-1.333333 l -1.333333,0 0,-1.333334 C 56,9.9280007 55.405333,9.333334 54.666667,9.333334 L 36,9.333334 Z m 5.333334,2.666667 7.999999,0 c 0.738667,0 1.333334,0.594666 1.333334,1.333333 l 0,2.666667 c 0,0.738666 -0.594667,1.333333 -1.333334,1.333333 l -7.999999,0 C 40.594667,17.333334 40,16.738667 40,16.000001 l 0,-2.666667 c 0,-0.738667 0.594667,-1.333333 1.333334,-1.333333 z M 40,33.333333 l 26.666666,0 c 1.477333,0 2.666667,1.189334 2.666667,2.666667 l 0,37.333332 c 0,1.477334 -1.189334,2.666667 -2.666667,2.666667 l -26.666666,0 c -1.477333,0 -2.666666,-1.189333 -2.666666,-2.666667 l 0,-37.333332 c 0,-1.477333 1.189333,-2.666667 2.666666,-2.666667 z"
     visibility="visible"
     inkscape:connector-curvature="0"
     id="path43" />
  <path
     style="color:#000000;visibility:visible;opacity:0.75;fill:#ffffff;fill-opacity:1;fill-rule:nonzero;stroke:none;stroke-width:1"
     d="m 36,9.333334 c -0.738666,0 -1.333333,0.5946667 -1.333333,1.333333 l 0,1.333334 c 0,-0.738667 0.594667,-1.333334 1.333333,-1.333334 l 18.666667,0 C 55.405333,10.666667 56,11.261334 56,12.000001 l 0,-1.333334 C 56,9.9280007 55.405333,9.333334 54.666667,9.333334 L 36,9.333334 Z m 20,2.666667 0,1.333333 1.333333,0 c 0.738667,0 1.333333,0.594667 1.333333,1.333333 l 0,-1.333333 c 0,-0.738667 -0.594666,-1.333333 -1.333333,-1.333333 l -1.333333,0 z m 2.666666,2.666666 0,1.333334 6.666667,0 1.333333,0 c 2.954667,0 5.333333,2.378666 5.333333,5.333333 l 0,-1.333334 c 0,-2.954666 -2.378666,-5.333333 -5.333333,-5.333333 l -1.333333,0 -6.666667,0 z m -23.999999,-2.666666 -1.333333,0 C 32.594667,12.000001 32,12.594667 32,13.333334 l 0,1.333333 c 0,-0.738666 0.594667,-1.333333 1.333334,-1.333333 l 1.333333,0 0,-1.333333 z M 32,14.666667 l -6.666666,0 -1.333333,0 c -2.954667,0 -5.333334,2.378667 -5.333334,5.333333 l 0,1.333334 c 0,-2.954667 2.378667,-5.333333 5.333334,-5.333333 l 1.333333,0 6.666666,0 0,-1.333334 z m 8,1.333334 0,1.333333 c 0,0.738666 0.594667,1.333333 1.333334,1.333333 l 7.999999,0 c 0.738667,0 1.333334,-0.594667 1.333334,-1.333333 l 0,-1.333333 c 0,0.738666 -0.594667,1.333333 -1.333334,1.333333 l -7.999999,0 C 40.594667,17.333334 40,16.738667 40,16.000001 Z m 31.999999,9.333333 0,1.333333 c 2.954667,0 5.333334,2.378667 5.333334,5.333333 l 0,-1.333333 c 0,-2.954667 -2.378667,-5.333333 -5.333334,-5.333333 z m -34.666665,47.999998 0,1.333334 c 0,1.477333 1.189333,2.666666 2.666666,2.666666 l 26.666666,0 c 1.477333,0 2.666667,-1.189333 2.666667,-2.666666 l 0,-1.333334 c 0,1.477334 -1.189334,2.666667 -2.666667,2.666667 l -26.666666,0 c -1.477333,0 -2.666666,-1.189333 -2.666666,-2.666667 z"
     visibility="visible"
     inkscape:connector-curvature="0"
     id="path45" />
  <path
     style="color:#000000;visibility:visible;opacity:0.15;fill:#000000;fill-opacity:1;fill-rule:nonzero;stroke:none;stroke-width:1"
     d="M 41.333334,10.666667 C 40.594667,10.666667 40,11.261334 40,12.000001 l 0,1.333333 c 0,-0.738667 0.594667,-1.333333 1.333334,-1.333333 l 7.999999,0 c 0.738667,0 1.333334,0.594666 1.333334,1.333333 l 0,-1.333333 c 0,-0.738667 -0.594667,-1.333334 -1.333334,-1.333334 l -7.999999,0 z M 40,32 c -1.477333,0 -2.666666,1.189333 -2.666666,2.666667 l 0,1.333333 c 0,-1.477333 1.189333,-2.666667 2.666666,-2.666667 l 26.666666,0 c 1.477333,0 2.666667,1.189334 2.666667,2.666667 l 0,-1.333333 C 69.333333,33.189333 68.143999,32 66.666666,32 L 40,32 Z m -21.333333,39.999999 0,1.333333 c 0,2.954667 2.378667,5.333334 5.333334,5.333334 l 1.333333,0 4,0 c 0,2.954666 2.378666,5.333333 5.333333,5.333333 l 37.333332,0 c 2.954667,0 5.333334,-2.378667 5.333334,-5.333333 l 0,-1.333334 c 0,2.954667 -2.378667,5.333334 -5.333334,5.333334 l -37.333332,0 c -2.954667,0 -5.333333,-2.378667 -5.333333,-5.333334 l -4,0 -1.333333,0 c -2.954667,0 -5.333334,-2.378666 -5.333334,-5.333333 z"
     visibility="visible"
     inkscape:connector-curvature="0"
     id="path47" />
</svg>
