<?xml version="1.0" encoding="UTF-8" standalone="no"?>
<svg
   xmlns:dc="http://purl.org/dc/elements/1.1/"
   xmlns:cc="http://creativecommons.org/ns#"
   xmlns:rdf="http://www.w3.org/1999/02/22-rdf-syntax-ns#"
   xmlns:svg="http://www.w3.org/2000/svg"
   xmlns="http://www.w3.org/2000/svg"
   xmlns:xlink="http://www.w3.org/1999/xlink"
   xmlns:sodipodi="http://sodipodi.sourceforge.net/DTD/sodipodi-0.dtd"
   xmlns:inkscape="http://www.inkscape.org/namespaces/inkscape"
   height="96"
   width="96"
   id="svg2"
   version="1.1"
   inkscape:version="0.91 r13725"
   sodipodi:docname="edit-clear.svg">
  <metadata
     id="metadata73">
    <rdf:RDF>
      <cc:Work
         rdf:about="">
        <dc:format>image/svg+xml</dc:format>
        <dc:type
           rdf:resource="http://purl.org/dc/dcmitype/StillImage" />
      </cc:Work>
    </rdf:RDF>
  </metadata>
  <sodipodi:namedview
     pagecolor="#ffffff"
     bordercolor="#666666"
     borderopacity="1"
     objecttolerance="10"
     gridtolerance="10"
     guidetolerance="10"
     inkscape:pageopacity="0"
     inkscape:pageshadow="2"
     inkscape:window-width="760"
     inkscape:window-height="480"
     id="namedview71"
     showgrid="false"
     inkscape:zoom="2.4583333"
     inkscape:cx="16.677966"
     inkscape:cy="47.999999"
     inkscape:window-x="604"
     inkscape:window-y="49"
     inkscape:window-maximized="0"
     inkscape:current-layer="svg2" />
  <defs
     id="defs4">
    <linearGradient
       x2="0"
       y1="92.54"
       y2="7.02"
       gradientUnits="userSpaceOnUse"
       id="ButtonShadow-0"
       gradientTransform="matrix(1.0059 0 0 0.99417 100 0)">
      <stop
         stop-color="#000000"
         stop-opacity="1"
         id="stop7" />
      <stop
         stop-color="#000000"
         stop-opacity="0.588"
         offset="1"
         id="stop9" />
    </linearGradient>
    <linearGradient
       x2="0"
       xlink:href="#ButtonShadow-0"
       y1="6.132"
       y2="90.24"
       gradientUnits="userSpaceOnUse"
       id="linearGradient3780"
       gradientTransform="matrix(1.02381 0 0 -1.0119 -1.143 98.07)" />
    <linearGradient
       x2="0"
       xlink:href="#ButtonShadow-0"
       y1="6.132"
       y2="90.24"
       gradientUnits="userSpaceOnUse"
       id="linearGradient3721"
       gradientTransform="matrix(1 0 0 -1 0 97)" />
    <radialGradient
       cy="90.17"
       r="42"
       gradientUnits="userSpaceOnUse"
       id="radialGradient3619-3"
       cx="48"
       gradientTransform="matrix(1.15731 0 0 0.99591 -7.551 0.197)">
      <stop
         stop-color="#ffffff"
         stop-opacity="1"
         id="stop14" />
      <stop
         stop-color="#ffffff"
         stop-opacity="0"
         offset="1"
         id="stop16" />
    </radialGradient>
    <linearGradient
       x2="0"
       y1="5.999"
       y2="16.972"
       gradientUnits="userSpaceOnUse"
       id="linearGradient3019"
       gradientTransform="matrix(3.32308 0 0 3.281 12.03 10.315)">
      <stop
         stop-color="#1a1a1a"
         stop-opacity="1"
         id="stop19" />
      <stop
         stop-color="#4d4d4d"
         stop-opacity="1"
         offset="1"
         id="stop21" />
    </linearGradient>
    <rect
       x="6"
       rx="6"
       y="6"
       fill="#000000"
       fill-opacity="1"
       stroke="none"
       fill-rule="nonzero"
       height="84"
       id="SVGCleanerId_0"
       opacity="0.6"
       width="84" />
    <path
       d="M 41.938462,30 22,48.045487 41.938462,66 l 29.907692,0 0,-36 -29.907692,0 z m 5.105769,6.569992 6.957692,6.869589 6.957692,-6.869589 4.673077,4.613904 -6.957692,6.869589 6.957692,6.869592 -4.673077,4.613901 -6.957692,-6.869589 -6.957692,6.869589 -4.673077,-4.613901 6.957692,-6.869592 -6.957692,-6.869589 4.673077,-4.613904 z"
       fill="url(#linearGradient3019)"
       fill-opacity="1"
       stroke="none"
       id="SVGCleanerId_1" />
  </defs>
  <g
     id="g3374"
     transform="matrix(1.4820342,0,0,1.4820342,-21.587446,-24.612966)">
    <path
       d="m 41.6875,28.9375 c -1.356989,0.347273 -2.158735,1.680686 -3.250522,2.487471 -5.984232,5.421264 -12.009595,10.839437 -17.968228,16.262529 -1.015138,1.080446 -0.363005,2.695212 0.755549,3.383777 6.529763,5.881621 13.056734,11.770059 19.588201,17.647473 1.288054,0.661805 2.818443,0.211773 4.217405,0.34375 9.072624,-0.02084 18.151173,0.04168 27.220095,-0.03125 1.400712,-0.225788 1.83381,-1.74382 1.65625,-2.972417 C 73.88544,54.237878 73.94789,42.411004 73.875,30.59375 73.649212,29.193038 72.13118,28.75994 70.902583,28.9375 c -9.738361,0 -19.476722,0 -29.215083,0 z m 5.34375,11.5 c 1.955257,1.892044 3.857358,3.894902 5.84375,5.71875 1.198125,0.872515 2.562376,-0.02433 3.327387,-1.006244 1.588787,-1.570835 3.177575,-3.141671 4.766363,-4.712506 0.59375,0.583333 1.1875,1.166667 1.78125,1.75 -1.900944,1.925317 -3.922964,3.787916 -5.75,5.75 -0.870565,1.196175 0.01832,2.568377 1.014936,3.318694 1.567938,1.550019 3.135876,3.100037 4.703814,4.650056 -0.583333,0.572917 -1.166667,1.145833 -1.75,1.71875 -1.955071,-1.881714 -3.858895,-3.872651 -5.84375,-5.6875 -1.198611,-0.873007 -2.560883,0.02584 -3.32955,1.004049 -1.588067,1.561151 -3.176133,3.122301 -4.7642,4.683451 -0.583333,-0.5625 -1.166667,-1.125 -1.75,-1.6875 1.941272,-1.972894 4.02417,-3.824771 5.875,-5.875 0.779772,-1.288686 -0.273951,-2.528469 -1.235525,-3.319497 -1.546492,-1.528917 -3.092983,-3.057835 -4.639475,-4.586753 0.583333,-0.572917 1.166667,-1.145833 1.75,-1.71875 z"
       inkscape:connector-curvature="0"
       id="path43"
       style="opacity:0.1;fill:black;fill-opacity:1;stroke:none" />
    <path
       d="m 41.9375,30 a 0.98855194,0.98855194 0 0 0 -0.65625,0.28125 L 21.34375,48.3125 a 0.98855194,0.98855194 0 0 0 0,1.4375 l 19.9375,17.96875 A 0.98855194,0.98855194 0 0 0 41.9375,68 l 29.90625,0 a 0.98855194,0.98855194 0 0 0 1,-1 l 0,-36 a 0.98855194,0.98855194 0 0 0 -1,-1 L 41.9375,30 Z m 5.09375,8.9375 6.28125,6.21875 a 0.98855194,0.98855194 0 0 0 1.375,0 L 60.96875,38.9375 64.25,42.1875 58,48.375 a 0.98855194,0.98855194 0 0 0 0,1.375 l 6.21875,6.15625 -3.25,3.21875 -6.28125,-6.1875 a 0.98855194,0.98855194 0 0 0 -1.375,0 l -6.28125,6.1875 -3.25,-3.1875 6.25,-6.15625 a 0.98855194,0.98855194 0 0 0 0,-1.4375 l -6.25,-6.1875 3.25,-3.21875 z"
       id="path45"
       inkscape:connector-curvature="0"
       style="opacity:0.15;fill:black;fill-opacity:1;stroke:none" />
    <path
       d="M 41.938462,31 22,49.045487 41.938462,67 l 29.907692,0 0,-36 -29.907692,0 z m 5.105769,6.569992 6.957692,6.869589 6.957692,-6.869589 4.673077,4.613904 -6.957692,6.869589 6.957692,6.869592 -4.673077,4.613901 -6.957692,-6.869589 -6.957692,6.869589 -4.673077,-4.613901 6.957692,-6.869592 -6.957692,-6.869589 4.673077,-4.613904 z"
       inkscape:connector-curvature="0"
       id="path47"
       style="opacity:0.3;fill:black;fill-opacity:1;stroke:none" />
    <use
       xlink:href="#SVGCleanerId_1"
       inkscape:connector-curvature="0"
       id="use61"
       x="0"
       y="0"
       width="100%"
       height="100%" />
    <use
       xlink:href="#SVGCleanerId_1"
       inkscape:connector-curvature="0"
       id="use63"
       x="0"
       y="0"
       width="100%"
       height="100%" />
    <use
       xlink:href="#SVGCleanerId_1"
       inkscape:connector-curvature="0"
       id="use65"
       x="0"
       y="0"
       width="100%"
       height="100%" />
    <path
       d="M 41.9375,30 22,48.03125 l 0.5625,0.5 L 41.9375,31 l 29.90625,0 0,-1 -29.90625,0 z m 0.9375,11.6875 -0.5,0.5 6.46875,6.375 0.5,-0.5 -6.46875,-6.375 z m 22.25,0 -6.4375,6.375 0.5,0.5 6.4375,-6.375 -0.5,-0.5 z M 54,52.65625 l -6.96875,6.875 -4.15625,-4.09375 -0.5,0.5 4.65625,4.59375 6.96875,-6.875 6.96875,6.875 4.65625,-4.59375 -0.5,-0.5 -4.15625,4.09375 L 54,52.65625 Z"
       inkscape:connector-curvature="0"
       id="path67"
       style="opacity:0.75;fill:white;fill-opacity:1;stroke:none" />
    <path
       d="m 47.03125,35.5625 -4.65625,4.625 0.5,0.5 4.15625,-4.125 6.96875,6.875 6.96875,-6.875 4.15625,4.125 0.5,-0.5 -4.65625,-4.625 L 54,42.4375 47.03125,35.5625 Z M 22.5625,47.53125 22,48.03125 41.9375,66 l 29.90625,0 0,-1 -29.90625,0 -19.375,-17.46875 z m 26.28125,0.03125 -6.46875,6.375 0.5,0.5 6.46875,-6.375 -0.5,-0.5 z m 10.34375,0 -0.5,0.5 6.4375,6.375 0.5,-0.5 -6.4375,-6.375 z"
       inkscape:connector-curvature="0"
       id="path69"
       style="opacity:0.15;fill:black;fill-opacity:1;stroke:none" />
  </g>
</svg>
