<?xml version="1.0" encoding="UTF-8" standalone="no"?>
<svg
   xmlns:dc="http://purl.org/dc/elements/1.1/"
   xmlns:cc="http://creativecommons.org/ns#"
   xmlns:rdf="http://www.w3.org/1999/02/22-rdf-syntax-ns#"
   xmlns:svg="http://www.w3.org/2000/svg"
   xmlns="http://www.w3.org/2000/svg"
   xmlns:xlink="http://www.w3.org/1999/xlink"
   xmlns:sodipodi="http://sodipodi.sourceforge.net/DTD/sodipodi-0.dtd"
   xmlns:inkscape="http://www.inkscape.org/namespaces/inkscape"
   height="96"
   width="96"
   id="svg2"
   version="1.1"
   inkscape:version="0.91 r13725"
   sodipodi:docname="edit-copy.svg">
  <metadata
     id="metadata68">
    <rdf:RDF>
      <cc:Work
         rdf:about="">
        <dc:format>image/svg+xml</dc:format>
        <dc:type
           rdf:resource="http://purl.org/dc/dcmitype/StillImage" />
      </cc:Work>
    </rdf:RDF>
  </metadata>
  <sodipodi:namedview
     pagecolor="#ffffff"
     bordercolor="#666666"
     borderopacity="1"
     objecttolerance="10"
     gridtolerance="10"
     guidetolerance="10"
     inkscape:pageopacity="0"
     inkscape:pageshadow="2"
     inkscape:window-width="760"
     inkscape:window-height="480"
     id="namedview66"
     showgrid="false"
     inkscape:zoom="4.9166667"
     inkscape:cx="25.019855"
     inkscape:cy="14.805546"
     inkscape:window-x="70"
     inkscape:window-y="96"
     inkscape:window-maximized="0"
     inkscape:current-layer="svg2" />
  <defs
     id="defs4">
    <linearGradient
       x2="0"
       y1="92.54"
       y2="7.02"
       gradientUnits="userSpaceOnUse"
       id="ButtonShadow-0"
       gradientTransform="matrix(1.0059 0 0 0.99417 100 0)">
      <stop
         stop-color="#000000"
         stop-opacity="1"
         id="stop7" />
      <stop
         stop-color="#000000"
         stop-opacity="0.588"
         offset="1"
         id="stop9" />
    </linearGradient>
    <linearGradient
       x2="0"
       xlink:href="#ButtonShadow-0"
       y1="6.132"
       y2="90.24"
       gradientUnits="userSpaceOnUse"
       id="linearGradient3780"
       gradientTransform="matrix(1.02381 0 0 -1.0119 -1.143 98.07)" />
    <linearGradient
       x2="0"
       xlink:href="#ButtonShadow-0"
       y1="6.132"
       y2="90.24"
       gradientUnits="userSpaceOnUse"
       id="linearGradient3721"
       gradientTransform="matrix(1 0 0 -1 0 97)" />
    <radialGradient
       cy="90.17"
       r="42"
       gradientUnits="userSpaceOnUse"
       id="radialGradient3619-3"
       cx="48"
       gradientTransform="matrix(1.15731 0 0 0.99591 -7.551 0.197)">
      <stop
         stop-color="#ffffff"
         stop-opacity="1"
         id="stop14" />
      <stop
         stop-color="#ffffff"
         stop-opacity="0"
         offset="1"
         id="stop16" />
    </radialGradient>
    <linearGradient
       x2="0"
       y1="24"
       y2="76"
       gradientUnits="userSpaceOnUse"
       id="linearGradient3895"
       gradientTransform="matrix(1.4285714,0,0,1.4285714,-14.857141,-24.857142)">
      <stop
         stop-color="#1a1a1a"
         stop-opacity="1"
         id="stop19" />
      <stop
         stop-color="#4d4d4d"
         stop-opacity="1"
         offset="1"
         id="stop21" />
    </linearGradient>
    <rect
       x="6"
       rx="6"
       y="6"
       fill="#000000"
       fill-opacity="1"
       stroke="none"
       fill-rule="nonzero"
       height="84"
       id="SVGCleanerId_0"
       opacity="0.6"
       width="84" />
  </defs>
  <path
     style="color:#000000;visibility:visible;fill:url(#linearGradient3895);fill-opacity:1;fill-rule:nonzero;stroke:none;stroke-width:2"
     id="path60"
     inkscape:connector-curvature="0"
     visibility="visible"
     d="m 33,9.4285718 c -2.769999,0 -4.999999,2.2300002 -4.999999,5.0000002 l 0,52.857141 c 0,2.77 2.23,5 4.999999,5 l 41.428571,0 c 2.77,0 5,-2.23 5,-5 l 0,-52.857141 c 0,-2.77 -2.23,-5.0000002 -5,-5.0000002 L 33,9.4285718 Z M 39.071429,18 68.357143,18 c 1.385,0 2.5,1.115 2.5,2.5 l 0,40.714285 c 0,1.385 -1.115,2.5 -2.5,2.5 l -29.285714,0 c -1.385,0 -2.5,-1.115 -2.5,-2.5 l 0,-40.714285 c 0,-1.385 1.115,-2.5 2.5,-2.5 z m -17.5,2.857143 c -2.77,0 -5,2.23 -5,5 l 0,52.857142 c 0,2.77 2.23,5 5,5 l 41.428571,0 c 2.77,0 5,-2.23 5,-5 l 0,-3.571429 -11.071429,0 -29.285713,0 c -1.385,0 -2.5,-1.115 -2.5,-2.5 l 0,-40.714285 0,-11.071428 -3.571429,0 z" />
  <path
     style="color:#000000;visibility:visible;opacity:0.75;fill:#ffffff;fill-opacity:1;fill-rule:nonzero;stroke:none;stroke-width:2"
     id="path62"
     inkscape:connector-curvature="0"
     visibility="visible"
     d="m 33,9.4285718 c -2.769999,0 -4.999999,2.2300002 -4.999999,5.0000002 l 0,1.428571 c 0,-2.77 2.23,-5 4.999999,-5 l 41.428571,0 c 2.77,0 5,2.23 5,5 l 0,-1.428571 c 0,-2.77 -2.23,-5.0000002 -5,-5.0000002 L 33,9.4285718 Z M 21.571429,20.857143 c -2.77,0 -5,2.23 -5,5 l 0,1.428571 c 0,-2.77 2.23,-5 5,-5 l 3.571429,0 0,-1.428571 -3.571429,0 z m 15,40.357142 0,1.428571 c 0,1.385 1.115,2.5 2.5,2.5 l 29.285714,0 c 1.385,0 2.5,-1.115 2.5,-2.5 l 0,-1.428571 c 0,1.385 -1.115,2.5 -2.5,2.5 l -29.285714,0 c -1.385,0 -2.5,-1.115 -2.5,-2.5 z m -11.428571,11.428571 0,1.428572 c 0,1.385 1.115,2.5 2.5,2.5 l 29.285713,0 11.071429,0 0,-1.428572 -11.071429,0 -29.285713,0 c -1.385,0 -2.5,-1.115 -2.5,-2.5 z" />
  <path
     style="color:#000000;visibility:visible;opacity:0.15;fill:#000000;fill-opacity:1;fill-rule:nonzero;stroke:none;stroke-width:2"
     id="path64"
     inkscape:connector-curvature="0"
     visibility="visible"
     d="m 39.071429,16.571429 c -1.385,0 -2.5,1.115 -2.5,2.5 l 0,1.428571 c 0,-1.385 1.115,-2.5 2.5,-2.5 l 29.285714,0 c 1.385,0 2.5,1.115 2.5,2.5 l 0,-1.428571 c 0,-1.385 -1.115,-2.5 -2.5,-2.5 l -29.285714,0 z m -11.071428,49.285713 0,1.428571 c 0,2.77 2.23,5 4.999999,5 l 41.428571,0 c 2.77,0 5,-2.23 5,-5 l 0,-1.428571 c 0,2.77 -2.23,5 -5,5 l -41.428571,0 c -2.769999,0 -4.999999,-2.23 -4.999999,-5 z m -11.428572,11.428571 0,1.428572 c 0,2.77 2.23,5 5,5 l 41.428571,0 c 2.77,0 5,-2.23 5,-5 l 0,-1.428572 c 0,2.77 -2.23,5 -5,5 l -41.428571,0 c -2.77,0 -5,-2.23 -5,-5 z" />
</svg>
