<?xml version="1.0" encoding="UTF-8" standalone="no"?>
<svg
   xmlns:dc="http://purl.org/dc/elements/1.1/"
   xmlns:cc="http://creativecommons.org/ns#"
   xmlns:rdf="http://www.w3.org/1999/02/22-rdf-syntax-ns#"
   xmlns:svg="http://www.w3.org/2000/svg"
   xmlns="http://www.w3.org/2000/svg"
   xmlns:xlink="http://www.w3.org/1999/xlink"
   xmlns:sodipodi="http://sodipodi.sourceforge.net/DTD/sodipodi-0.dtd"
   xmlns:inkscape="http://www.inkscape.org/namespaces/inkscape"
   height="96"
   width="96"
   id="svg2"
   version="1.1"
   inkscape:version="0.91 r13725"
   sodipodi:docname="edit-undo.svg">
  <metadata
     id="metadata68">
    <rdf:RDF>
      <cc:Work
         rdf:about="">
        <dc:format>image/svg+xml</dc:format>
        <dc:type
           rdf:resource="http://purl.org/dc/dcmitype/StillImage" />
      </cc:Work>
    </rdf:RDF>
  </metadata>
  <sodipodi:namedview
     pagecolor="#ffffff"
     bordercolor="#666666"
     borderopacity="1"
     objecttolerance="10"
     gridtolerance="10"
     guidetolerance="10"
     inkscape:pageopacity="0"
     inkscape:pageshadow="2"
     inkscape:window-width="760"
     inkscape:window-height="480"
     id="namedview66"
     showgrid="false"
     inkscape:zoom="2.4583333"
     inkscape:cx="42.101695"
     inkscape:cy="47.999999"
     inkscape:window-x="75"
     inkscape:window-y="99"
     inkscape:window-maximized="0"
     inkscape:current-layer="svg2" />
  <defs
     id="defs4">
    <linearGradient
       x2="0"
       y1="92.54"
       y2="7.02"
       gradientUnits="userSpaceOnUse"
       id="ButtonShadow-0"
       gradientTransform="matrix(1.0059 0 0 0.99417 100 0)">
      <stop
         stop-color="#000000"
         stop-opacity="1"
         id="stop7" />
      <stop
         stop-color="#000000"
         stop-opacity="0.588"
         offset="1"
         id="stop9" />
    </linearGradient>
    <linearGradient
       x2="0"
       xlink:href="#ButtonShadow-0"
       y1="6.132"
       y2="90.24"
       gradientUnits="userSpaceOnUse"
       id="linearGradient3780"
       gradientTransform="matrix(1.02381 0 0 -1.0119 -1.143 98.07)" />
    <linearGradient
       x2="0"
       xlink:href="#ButtonShadow-0"
       y1="6.132"
       y2="90.24"
       gradientUnits="userSpaceOnUse"
       id="linearGradient3721"
       gradientTransform="matrix(1 0 0 -1 0 97)" />
    <radialGradient
       cy="90.17"
       r="42"
       gradientUnits="userSpaceOnUse"
       id="radialGradient3619-3"
       cx="48"
       gradientTransform="matrix(1.15731 0 0 0.99591 -7.551 0.197)">
      <stop
         stop-color="#ffffff"
         stop-opacity="1"
         id="stop14" />
      <stop
         stop-color="#ffffff"
         stop-opacity="0"
         offset="1"
         id="stop16" />
    </radialGradient>
    <linearGradient
       x2="0"
       y1="21.511"
       y2="10.134"
       gradientUnits="userSpaceOnUse"
       id="linearGradient3919"
       gradientTransform="matrix(-4.38419,0,0,-2.10957,82.23,77.38)">
      <stop
         stop-color="#1a1a1a"
         stop-opacity="1"
         id="stop19" />
      <stop
         stop-color="#4d4d4d"
         stop-opacity="1"
         offset="1"
         id="stop21" />
    </linearGradient>
    <rect
       x="6"
       rx="6"
       y="6"
       fill="#000000"
       fill-opacity="1"
       stroke="none"
       fill-rule="nonzero"
       height="84"
       id="SVGCleanerId_0"
       opacity="0.6"
       width="84" />
  </defs>
  <g
     id="g3398"
     transform="matrix(1.4823388,0,0,1.4823388,-23.175435,-18.635606)">
    <path
       d="m 50.125,30.9375 c -6.002907,-0.02456 -11.93163,2.100208 -16.8125,6.09375 l -4.65625,-4.625 0,0.03125 c 5.8e-4,5.99e-4 -0.02679,0.0043 -0.03125,0 0,0 0.03125,-0.03125 0.03125,-0.03125 -0.0223,-0.02138 -0.09685,-0.06529 -0.09375,-0.0625 0.0037,0.0033 -0.09769,-0.09683 -0.09375,-0.09375 0.0039,0.0031 -0.129145,-0.09655 -0.125,-0.09375 0.0041,0.0028 -0.09808,-0.06501 -0.09375,-0.0625 0.0043,0.0025 -0.129492,-0.06471 -0.125,-0.0625 0.0045,0.0022 -0.129634,-0.06439 -0.125,-0.0625 0.0046,0.0019 -0.129753,-0.03282 -0.125,-0.03125 0.0048,0.0016 -0.1611,-0.06374 -0.15625,-0.0625 0.0049,0.0012 -0.129924,-0.03215 -0.125,-0.03125 0.0049,8.98e-4 -0.129974,-5.56e-4 -0.125,0 0.005,5.56e-4 -0.16125,-0.03146 -0.15625,-0.03125 0.005,2.12e-4 -0.130003,1.34e-4 -0.125,0 0.005,-1.34e-4 -0.129982,0.03173 -0.125,0.03125 0.005,-4.78e-4 -0.161187,8.21e-4 -0.15625,0 0.0049,-8.21e-4 -0.129869,0.03241 -0.125,0.03125 0.0049,-0.0012 -0.129777,0.03274 -0.125,0.03125 0.0048,-0.0015 -0.129663,0.06432 -0.125,0.0625 0.0047,-0.0018 -0.129526,0.03339 -0.125,0.03125 0.0045,-0.0021 -0.129368,0.06494 -0.125,0.0625 0.0044,-0.0024 -0.129189,0.09649 -0.125,0.09375 0.0042,-0.0027 -0.09774,0.06552 -0.09375,0.0625 0.004,-0.003 -0.128772,0.09704 -0.125,0.09375 0.0038,-0.0033 -0.09729,0.09729 -0.09375,0.09375 0.0035,-0.0035 -0.09703,0.09753 -0.09375,0.09375 0.0033,-0.0038 -0.09677,0.09775 -0.09375,0.09375 0.003,-0.004 -0.06523,0.129193 -0.0625,0.125 0.0027,-0.0042 -0.06494,0.129372 -0.0625,0.125 0.0024,-0.0044 -0.06463,0.12953 -0.0625,0.125 0.0021,-0.0045 -0.06431,0.129666 -0.0625,0.125 0.0018,-0.0047 -0.06398,0.129779 -0.0625,0.125 0.0015,-0.0048 -0.0324,0.129871 -0.03125,0.125 0.0012,-0.0049 -0.03206,0.129938 -0.03125,0.125 L 21.0625,56.625 l 0.03125,0 c -0.0053,0.03307 -0.03169,0.09711 -0.03125,0.09375 5.78e-4,-0.0044 -3.09e-4,0.129417 0,0.125 3.09e-4,-0.0044 -0.03129,0.129428 -0.03125,0.125 3.9e-5,-0.0044 2.32e-4,0.129422 0,0.125 -2.32e-4,-0.0044 0.03175,0.129399 0.03125,0.125 -5.01e-4,-0.0044 7.69e-4,0.09811 0,0.09375 -7.69e-4,-0.0044 0.03228,0.129306 0.03125,0.125 -0.001,-0.0043 0.03254,0.129234 0.03125,0.125 -0.0013,-0.0042 0.0328,0.129147 0.03125,0.125 -0.0016,-0.0041 0.0643,0.09779 0.0625,0.09375 -0.0018,-0.004 0.06454,0.128928 0.0625,0.125 -0.002,-0.0039 0.03353,0.09754 0.03125,0.09375 -0.0023,-0.0038 0.09626,0.0974 0.09375,0.09375 -0.0025,-0.0036 0.06523,0.09724 0.0625,0.09375 -0.0027,-0.0035 0.06543,0.09707 0.0625,0.09375 -0.0029,-0.0033 0.09688,0.09688 0.09375,0.09375 -0.0031,-0.0031 0.09707,0.09668 0.09375,0.09375 -0.0033,-0.0029 0.09724,0.06523 0.09375,0.0625 -0.0035,-0.0027 0.0974,0.06501 0.09375,0.0625 -0.0036,-0.0025 0.09755,0.09603 0.09375,0.09375 -0.0038,-0.0023 0.09768,0.0333 0.09375,0.03125 -0.0039,-0.002 0.129045,0.0643 0.125,0.0625 -0.004,-0.0018 0.0979,0.06405 0.09375,0.0625 -0.0041,-0.0016 0.129234,0.03254 0.125,0.03125 -0.0042,-0.0013 0.129306,0.03228 0.125,0.03125 -0.0043,-10e-4 0.129361,0.03202 0.125,0.03125 -0.0044,-7.69e-4 0.09815,5.01e-4 0.09375,0 -0.0044,-5.01e-4 0.129422,0.03148 0.125,0.03125 -0.0044,-2.32e-4 0.129428,-3.9e-5 0.125,0 -0.0044,3.9e-5 0.129417,-0.03156 0.125,-0.03125 -0.0044,3.09e-4 0.12939,-5.78e-4 0.125,0 -0.0034,4.42e-4 0.06068,-0.02592 0.09375,-0.03125 l 0,0.03125 23.21875,-4.21875 c -0.0049,8.13e-4 0.129871,-0.0324 0.125,-0.03125 -0.0049,0.0012 0.129779,-0.03274 0.125,-0.03125 -0.0048,0.0015 0.129666,-0.06431 0.125,-0.0625 -0.0047,0.0018 0.12953,-0.06463 0.125,-0.0625 -0.0045,0.0021 0.129372,-0.06494 0.125,-0.0625 -0.0044,0.0024 0.129193,-0.06523 0.125,-0.0625 -0.0042,0.0027 0.128995,-0.06551 0.125,-0.0625 -0.004,0.003 0.09753,-0.09703 0.09375,-0.09375 -0.0038,0.0033 0.09729,-0.09729 0.09375,-0.09375 -0.0035,0.0035 0.09704,-0.09752 0.09375,-0.09375 -0.0033,0.0038 0.09677,-0.12899 0.09375,-0.125 -0.003,0.004 0.06524,-0.09794 0.0625,-0.09375 -0.0027,0.0042 0.09619,-0.129368 0.09375,-0.125 -0.0024,0.0044 0.06464,-0.129526 0.0625,-0.125 -0.0021,0.0045 0.03307,-0.129663 0.03125,-0.125 -0.0018,0.0047 0.06399,-0.129777 0.0625,-0.125 -0.0015,0.0048 0.03241,-0.129869 0.03125,-0.125 -0.0012,0.0049 0.03207,-0.129937 0.03125,-0.125 -8.21e-4,0.0049 4.78e-4,-0.161232 0,-0.15625 -4.78e-4,0.005 0.03138,-0.130003 0.03125,-0.125 -1.34e-4,0.005 -2.12e-4,-0.13 0,-0.125 2.12e-4,0.005 -0.03181,-0.161224 -0.03125,-0.15625 5.56e-4,0.005 -8.98e-4,-0.129924 0,-0.125 8.98e-4,0.0049 -0.03249,-0.12985 -0.03125,-0.125 0.0012,0.0048 -0.06407,-0.161003 -0.0625,-0.15625 0.0016,0.0048 -0.03314,-0.129634 -0.03125,-0.125 0.0019,0.0046 -0.06471,-0.129492 -0.0625,-0.125 0.0022,0.0045 -0.06501,-0.129329 -0.0625,-0.125 0.0025,0.0043 -0.0653,-0.0979 -0.0625,-0.09375 0.0028,0.0041 -0.09683,-0.128942 -0.09375,-0.125 0.0031,0.0039 -0.0971,-0.09747 -0.09375,-0.09375 0.0028,0.0031 -0.07237,-0.0402 -0.09375,-0.0625 0,0 0.03125,-0.03125 0.03125,-0.03125 l -0.03125,0 -4.4375,-4.4375 c 4.84481,-3.176162 11.308615,-2.863482 15.5625,1.375 1.380276,1.375279 2.372033,2.987211 2.96875,4.71875 -0.0022,-0.0064 0.06531,0.193709 0.0625,0.1875 -0.0028,-0.0062 0.09714,0.162168 0.09375,0.15625 -0.0034,-0.0059 0.09768,0.161824 0.09375,0.15625 -0.0039,-0.0056 0.129432,0.16143 0.125,0.15625 -0.0044,-0.0052 0.129899,0.129741 0.125,0.125 -0.0049,-0.0047 0.130322,0.12926 0.125,0.125 -0.0053,-0.0043 0.161949,0.128741 0.15625,0.125 -0.0057,-0.0037 0.162275,0.09694 0.15625,0.09375 -0.006,-0.0032 0.162548,0.06511 0.15625,0.0625 -0.0063,-0.0026 0.194015,0.06451 0.1875,0.0625 -0.0065,-0.002 0.194175,0.06389 0.1875,0.0625 -0.0067,-0.0014 0.194276,0.032 0.1875,0.03125 -0.0068,-7.53e-4 0.194316,1.13e-4 0.1875,0 -0.0068,-1.13e-4 0.194297,-5.27e-4 0.1875,0 -0.0068,5.27e-4 0.162967,-0.03241 0.15625,-0.03125 -0.0067,0.0012 0.194078,-0.03304 0.1875,-0.03125 L 73.53125,51.75 c -0.007,0.0018 0.194286,-0.065 0.1875,-0.0625 -0.0068,0.0025 0.194003,-0.06567 0.1875,-0.0625 -0.0065,0.0032 0.162405,-0.09755 0.15625,-0.09375 -0.0062,0.0038 0.161996,-0.129391 0.15625,-0.125 -0.0057,0.0044 0.16153,-0.129942 0.15625,-0.125 -0.0053,0.0049 0.161012,-0.161693 0.15625,-0.15625 -0.0048,0.0054 0.09795,-0.162141 0.09375,-0.15625 -0.0042,0.0059 0.128588,-0.162529 0.125,-0.15625 -0.0036,0.0063 0.09669,-0.162855 0.09375,-0.15625 -0.0029,0.0066 0.06477,-0.194366 0.0625,-0.1875 -0.0023,0.0069 0.06408,-0.194558 0.0625,-0.1875 -0.0016,0.0071 0.03212,-0.22593 0.03125,-0.21875 -8.66e-4,0.0072 1.47e-4,-0.194731 0,-0.1875 -1.47e-4,0.0072 -5.74e-4,-0.194709 0,-0.1875 5.74e-4,0.0072 -0.03254,-0.225866 -0.03125,-0.21875 0.0013,0.0071 -0.03324,-0.194452 -0.03125,-0.1875 C 73.727417,45.323895 71.532729,41.583905 68.40625,38.46875 63.378368,33.459074 56.749433,30.964608 50.125,30.9375 Z"
       id="path42"
       inkscape:connector-curvature="0"
       style="opacity:0.1;fill:black;fill-opacity:1;stroke:none" />
    <path
       d="M 50.125,32.03125 C 44.052101,32.0064 38.008134,34.199417 33.1875,38.46875 L 27.875,33.1875 a 0.8795599,0.8795599 0 0 0 -1.5,0.46875 L 22.15625,56.8125 a 0.8795599,0.8795599 0 0 0 1.03125,1.03125 L 46.40625,53.625 a 0.8795599,0.8795599 0 0 0 0.46875,-1.5 l -5.5,-5.46875 c 5.334873,-4.342251 13.188323,-4.106188 18.15625,0.84375 1.503737,1.498294 2.570575,3.275392 3.21875,5.15625 a 0.8795599,0.8795599 0 0 0 1.0625,0.5625 L 73.25,50.6875 a 0.8795599,0.8795599 0 0 0 0.625,-1.09375 C 72.716675,45.805662 70.622925,42.237067 67.625,39.25 62.808434,34.450875 56.476824,32.057242 50.125,32.03125 Z"
       id="path44"
       inkscape:connector-curvature="0"
       style="opacity:0.15;fill:black;fill-opacity:1;stroke:none" />
    <path
       d="m 27.250524,33.824866 -4.223923,23.130641 23.214686,-4.208632 -6.195093,-6.172664 c 5.66404,-5.301056 14.56907,-5.191292 20.094615,0.314245 1.602617,1.596817 2.756778,3.474765 3.446725,5.476835 l 9.439067,-2.513954 C 71.9099,46.199373 69.907446,42.748073 67.01173,39.862845 57.715741,30.60052 42.577135,30.624211 33.085173,39.638376 l -5.834649,-5.813525 z"
       inkscape:connector-curvature="0"
       id="path46"
       style="opacity:0.3;fill:black;fill-opacity:1;stroke:none" />
    <path
       d="m 27.250524,32.824866 -4.223923,23.130641 23.214686,-4.208632 -6.195093,-6.172664 c 5.66404,-5.301056 14.56907,-5.191292 20.094615,0.314245 1.602617,1.596817 2.756778,3.474765 3.446725,5.476835 l 9.439067,-2.513954 C 71.9099,45.199373 69.907446,41.748073 67.01173,38.862845 57.715741,29.60052 42.577135,29.624211 33.085173,38.638376 l -5.834649,-5.813525 z"
       inkscape:connector-curvature="0"
       id="path60"
       style="fill:url(#linearGradient3919);fill-opacity:1;stroke:none" />
    <path
       d="m 48.96875,31.90625 c -5.747435,0.244058 -11.425643,2.49336 -15.875,6.71875 L 27.25,32.8125 23.03125,55.96875 23.21875,55.9375 27.25,33.8125 33.09375,39.625 C 42.585712,30.610835 57.704011,30.612675 67,39.875 c 2.651905,2.6423 4.559426,5.751339 5.71875,9.0625 l 0.3125,-0.09375 C 71.914549,45.191786 69.895716,41.760228 67,38.875 62.061506,33.95439 55.48251,31.629651 48.96875,31.90625 Z m -8.375,14.21875 c -0.180565,0.153127 -0.387901,0.27409 -0.5625,0.4375 l 5.375,5.34375 L 46.25,51.75 40.59375,46.125 Z"
       inkscape:connector-curvature="0"
       id="path62"
       style="opacity:0.75;fill:white;fill-opacity:1;stroke:none" />
    <path
       d="m 50.15625,40.6875 c -3.624956,-0.053 -7.29298,1.224472 -10.125,3.875 l 0.5625,0.5625 c 5.676997,-4.814356 14.207285,-4.585824 19.5625,0.75 1.602617,1.596817 2.747553,3.49793 3.4375,5.5 l 9.4375,-2.53125 c -0.09402,-0.307485 -0.205914,-0.601828 -0.3125,-0.90625 l -9.125,2.4375 c -0.689947,-2.00207 -1.834883,-3.903183 -3.4375,-5.5 -2.762773,-2.752769 -6.375044,-4.134499 -10,-4.1875 z m -4.75,10.21875 -22.1875,4.03125 -0.1875,1.03125 L 46.25,51.75 45.40625,50.90625 Z"
       inkscape:connector-curvature="0"
       id="path64"
       style="opacity:0.15;fill:black;fill-opacity:1;stroke:none" />
  </g>
</svg>
