<svg height="96" width="96" xmlns="http://www.w3.org/2000/svg" xmlns:xlink="http://www.w3.org/1999/xlink" xmlns:sodipodi="http://sodipodi.sourceforge.net/DTD/sodipodi-0.dtd" xmlns:inkscape="http://www.inkscape.org/namespaces/inkscape">
 <defs>
  <linearGradient x2="0" y1="92.54" y2="7.02" gradientUnits="userSpaceOnUse" id="ButtonShadow-0" gradientTransform="matrix(1.0059 0 0 0.99417 100 0)">
   <stop stop-color="#000000" stop-opacity="1"/>
   <stop stop-color="#000000" stop-opacity="0.588" offset="1"/>
  </linearGradient>
  <linearGradient x2="0" xlink:href="#ButtonShadow-0" y1="6.132" y2="90.24" gradientUnits="userSpaceOnUse" id="linearGradient3780" gradientTransform="matrix(1.02381 0 0 -1.0119 -1.143 98.07)"/>
  <linearGradient x2="0" xlink:href="#ButtonShadow-0" y1="6.132" y2="90.24" gradientUnits="userSpaceOnUse" id="linearGradient3721" gradientTransform="matrix(1 0 0 -1 0 97)"/>
  <radialGradient cy="90.17" r="42" gradientUnits="userSpaceOnUse" id="radialGradient3619-3" cx="48" gradientTransform="matrix(1.15731 0 0 0.99591 -7.551 0.197)">
   <stop stop-color="#ffffff" stop-opacity="1"/>
   <stop stop-color="#ffffff" stop-opacity="0" offset="1"/>
  </radialGradient>
  <linearGradient x1="85" x2="30" gradientUnits="userSpaceOnUse" id="linearGradient3149" gradientTransform="matrix(0 -1 1 0 2 102)">
   <stop stop-color="#f0f0f0" stop-opacity="1"/>
   <stop stop-color="#aaaaaa" stop-opacity="1" offset="1"/>
  </linearGradient>
  <rect x="6" rx="6" y="6" fill="#000000" fill-opacity="1" stroke="none" fill-rule="nonzero" height="84" id="SVGCleanerId_0" opacity="0.6" width="84"/>
 </defs>
 <path d="M 12,3.96875 C 6.4889098,3.96875 1.96875,8.4889098 1.96875,14 l 0,71 c 0,5.51109 4.5201597,10.03125 10.03125,10.03125 l 72,0 c 5.51109,0 10.03125,-4.52016 10.03125,-10.03125 l 0,-71 C 94.03125,8.4889097 89.51109,3.96875 84,3.96875 l -72,0 z M 12,6 84,6 c 3.324,0 6,2.676 6,6 l 0,72 c 0,3.324 -2.676,6 -6,6 L 12,90 C 8.676,90 6,87.324 6,84 L 6,12 C 6,8.676 8.676,6 12,6 z" display="inline" fill="url(#linearGradient3780)" fill-opacity="1" fill-rule="nonzero" stroke="none" opacity="0.08" inkscape:connector-curvature="0"/>
 <path d="M 12,4.96875 C 7.0283671,4.96875 2.96875,9.0283671 2.96875,14 l 0,71 c 0,4.971633 4.059617,9.03125 9.03125,9.03125 l 72,0 c 4.971633,0 9.03125,-4.059617 9.03125,-9.03125 l 0,-71 C 93.03125,9.028367 88.971633,4.96875 84,4.96875 l -72,0 z M 12,6 84,6 c 3.324,0 6,2.676 6,6 l 0,72 c 0,3.324 -2.676,6 -6,6 L 12,90 C 8.676,90 6,87.324 6,84 L 6,12 C 6,8.676 8.676,6 12,6 z" display="inline" fill="url(#linearGradient3780)" fill-opacity="1" fill-rule="nonzero" stroke="none" opacity="0.1" inkscape:connector-curvature="0"/>
 <path d="M 11.1875,6.03125 C 7.159982,6.4419011 4,9.8664375 4,14 l 0,71 c 0,4.409133 3.590867,8 8,8 l 72,0 c 4.409133,0 8,-3.590867 8,-8 L 92,14 C 92,9.8029382 88.741028,6.3539584 84.625,6.03125 87.657886,6.337417 90,8.88375 90,12 l 0,72 c 0,3.324 -2.676,6 -6,6 L 12,90 C 8.676,90 6,87.324 6,84 L 6,12 c 0,-3.11625 2.342114,-5.662583 5.375,-5.96875 -0.06227,0.00488 -0.12563,-0.00631 -0.1875,0 z" display="inline" fill="url(#linearGradient3780)" fill-opacity="1" fill-rule="nonzero" stroke="none" opacity="0.2" inkscape:connector-curvature="0"/>
 <path d="M 6.4375,9.75 C 5.5380109,10.927446 5,12.397277 5,14 l 0,71 c 0,3.878 3.122,7 7,7 l 72,0 c 3.878,0 7,-3.122 7,-7 L 91,14 C 91,12.397277 90.461989,10.927446 89.5625,9.75 89.841816,10.444095 90,11.203625 90,12 l 0,72 c 0,3.324 -2.676,6 -6,6 L 12,90 C 8.676,90 6,87.324 6,84 L 6,12 C 6,11.203625 6.1581836,10.444095 6.4375,9.75 z" display="inline" fill="url(#linearGradient3780)" fill-opacity="1" fill-rule="nonzero" stroke="none" opacity="0.3" inkscape:connector-curvature="0"/>
 <path d="m 6,84 0,1 c 0,3.324 2.676,6 6,6 l 72,0 c 3.324,0 6,-2.676 6,-6 l 0,-1 c 0,3.324 -2.676,6 -6,6 L 12,90 C 8.676,90 6,87.324 6,84 z" display="inline" fill="url(#linearGradient3721)" fill-opacity="1" fill-rule="nonzero" stroke="none" opacity="0.45" inkscape:connector-curvature="0"/>
 <g display="inline">
  <use xlink:href="#SVGCleanerId_0"/>
  <path d="M 12,90 C 8.676,90 6,87.324 6,84 L 6,82 6,14 6,12 c 0,-0.334721 0.04135,-0.6507 0.09375,-0.96875 0.0487,-0.295596 0.09704,-0.596915 0.1875,-0.875 C 6.29113,10.12587 6.302142,10.09265 6.3125,10.0625 6.411365,9.774729 6.5473802,9.515048 6.6875,9.25 6.8320918,8.976493 7.0031161,8.714385 7.1875,8.46875 7.3718839,8.223115 7.5612765,7.995278 7.78125,7.78125 8.221197,7.353194 8.72416,6.966724 9.28125,6.6875 9.559795,6.547888 9.8547231,6.440553 10.15625,6.34375 9.9000482,6.443972 9.6695391,6.580022 9.4375,6.71875 c -0.00741,0.0044 -0.023866,-0.0045 -0.03125,0 -0.031933,0.0193 -0.062293,0.04251 -0.09375,0.0625 -0.120395,0.0767 -0.2310226,0.163513 -0.34375,0.25 -0.1061728,0.0808 -0.2132809,0.161112 -0.3125,0.25 C 8.4783201,7.442683 8.3087904,7.626638 8.15625,7.8125 8.0486711,7.942755 7.9378561,8.077785 7.84375,8.21875 7.818661,8.25713 7.805304,8.30462 7.78125,8.34375 7.716487,8.446782 7.6510225,8.548267 7.59375,8.65625 7.4927417,8.850956 7.3880752,9.071951 7.3125,9.28125 7.30454,9.30306 7.288911,9.3218 7.28125,9.34375 7.2494249,9.4357 7.2454455,9.530581 7.21875,9.625 7.1884177,9.731618 7.1483606,9.828031 7.125,9.9375 7.0521214,10.279012 7,10.635705 7,11 l 0,2 0,68 0,2 c 0,2.781848 2.2181517,5 5,5 l 2,0 68,0 2,0 c 2.781848,0 5,-2.218152 5,-5 l 0,-2 0,-68 0,-2 C 89,10.635705 88.94788,10.279012 88.875,9.9375 88.83085,9.730607 88.78662,9.539842 88.71875,9.34375 88.71105,9.3218 88.69545,9.30306 88.6875,9.28125 88.62476,9.107511 88.549117,8.913801 88.46875,8.75 88.42717,8.6672 88.38971,8.580046 88.34375,8.5 88.28915,8.40279 88.216976,8.31165 88.15625,8.21875 88.06214,8.077785 87.951329,7.942755 87.84375,7.8125 87.700576,7.63805 87.540609,7.465502 87.375,7.3125 87.36383,7.3023 87.35502,7.29135 87.34375,7.28125 87.205364,7.155694 87.058659,7.046814 86.90625,6.9375 86.803679,6.86435 86.701932,6.784136 86.59375,6.71875 c -0.0074,-0.0045 -0.02384,0.0044 -0.03125,0 -0.232039,-0.138728 -0.462548,-0.274778 -0.71875,-0.375 0.301527,0.0968 0.596455,0.204138 0.875,0.34375 0.55709,0.279224 1.060053,0.665694 1.5,1.09375 0.219973,0.214028 0.409366,0.441865 0.59375,0.6875 0.184384,0.245635 0.355408,0.507743 0.5,0.78125 0.14012,0.265048 0.276135,0.524729 0.375,0.8125 0.01041,0.03078 0.02133,0.06274 0.03125,0.09375 0.09046,0.278085 0.1388,0.579404 0.1875,0.875 C 89.95865,11.3493 90,11.665279 90,12 l 0,2 0,68 0,2 c 0,3.324 -2.676,6 -6,6 l -72,0 z" fill="url(#radialGradient3619-3)" fill-opacity="1" fill-rule="nonzero" stroke="none" opacity="0.15" inkscape:connector-curvature="0"/>
 </g>
 <g display="inline">
  <path d="m 54.75,16.03125 c -0.0044,5.72e-4 -0.1519,0.03031 -0.15625,0.03125 -0.0044,9.39e-4 -0.151994,0.0612 -0.15625,0.0625 -0.0043,0.0013 -0.152118,0.0296 -0.15625,0.03125 -0.0041,0.0017 -0.15227,0.06051 -0.15625,0.0625 -0.004,0.002 -0.1212,0.09143 -0.125,0.09375 -0.0038,0.0023 -0.152657,0.09113 -0.15625,0.09375 -0.0036,0.0026 -0.121639,0.09083 -0.125,0.09375 -0.0029,0.0026 -0.06995,0.102367 -0.09375,0.125 -0.0034,0.0032 -0.03086,-3.98e-4 -0.03125,0 l -14.96875,15 a 0.90407626,0.90407626 0 0 0 -0.03125,0 c -0.0027,0.0028 -0.09121,0.09079 -0.09375,0.09375 -0.0025,0.003 -0.09144,0.121859 -0.09375,0.125 -0.0023,0.0031 -0.06042,0.09045 -0.0625,0.09375 -0.0021,0.0033 -0.06067,0.121555 -0.0625,0.125 -0.0018,0.0034 -0.06093,0.15268 -0.0625,0.15625 -0.0016,0.0036 -0.06119,0.121324 -0.0625,0.125 -0.0013,0.0037 -0.06147,0.121238 -0.0625,0.125 -0.001,0.0038 -0.0305,0.152423 -0.03125,0.15625 -7.54e-4,0.0038 4.72e-4,0.121128 0,0.125 -4.72e-4,0.0039 -0.03106,0.152354 -0.03125,0.15625 -1.86e-4,0.0039 -1e-4,0.152351 0,0.15625 1e-4,0.0039 0.03086,0.121118 0.03125,0.125 3.85e-4,0.0039 -6.69e-4,0.152407 0,0.15625 6.69e-4,0.0038 0.0303,0.121216 0.03125,0.125 9.49e-4,0.0038 0.03003,0.152546 0.03125,0.15625 0.0012,0.0037 0.06101,0.121396 0.0625,0.125 0.0015,0.0036 0.06075,0.121515 0.0625,0.125 0.0018,0.0035 0.0605,0.121652 0.0625,0.125 0.002,0.0033 0.09151,0.121808 0.09375,0.125 0.0022,0.0032 0.06003,0.121981 0.0625,0.125 0.0025,0.003 0.09107,0.09092 0.09375,0.09375 0.0027,0.0028 0.122115,0.122375 0.125,0.125 0.0029,0.0026 0.09068,0.09134 0.09375,0.09375 0.0031,0.0024 0.121762,0.06032 0.125,0.0625 0.0032,0.0022 0.121611,0.09182 0.125,0.09375 0.0034,0.0019 0.121479,0.06082 0.125,0.0625 0.0035,0.0017 0.121365,0.06108 0.125,0.0625 0.0036,0.0014 0.152521,0.0301 0.15625,0.03125 0.0037,0.0011 0.121197,0.03038 0.125,0.03125 0.0038,8.69e-4 0.152394,0.03066 0.15625,0.03125 0.0039,5.88e-4 0.121111,0.03095 0.125,0.03125 0.0039,3.04e-4 0.152349,-1.8e-5 0.15625,0 l 6.03125,0 0,0.0625 c -0.01233,-4.08e-4 -0.03035,10e-7 -0.03125,0 l -18.5,0 c -3.002658,0 -5.46875,2.466092 -5.46875,5.46875 l 0,29 c 0,3.002658 2.466092,5.46875 5.46875,5.46875 l 41,0 c 3.002658,0 5.46875,-2.466092 5.46875,-5.46875 l 0,-29 c 0,-3.002658 -2.466092,-5.46875 -5.46875,-5.46875 l -4.5,0 c -7.3e-4,1.1e-5 -0.02259,-4.18e-4 -0.03125,0 l 0,-0.0625 6.03125,0 c 0.0039,-1.8e-5 0.152361,3.04e-4 0.15625,0 0.0039,-3.04e-4 0.121144,-0.03066 0.125,-0.03125 0.0039,-5.88e-4 0.152447,-0.03038 0.15625,-0.03125 0.0038,-8.69e-4 0.121271,-0.0301 0.125,-0.03125 0.0037,-0.0011 0.152615,-0.02983 0.15625,-0.03125 0.0036,-0.0014 0.121479,-0.06082 0.125,-0.0625 0.0035,-0.0017 0.121611,-0.06057 0.125,-0.0625 0.0034,-0.0019 0.121762,-0.09157 0.125,-0.09375 0.0032,-0.0022 0.12193,-0.06009 0.125,-0.0625 0.0031,-0.0024 0.09086,-0.09112 0.09375,-0.09375 0.0029,-0.0026 0.122315,-0.12217 0.125,-0.125 0.0027,-0.0028 0.09128,-0.09073 0.09375,-0.09375 0.0025,-0.003 0.06026,-0.121808 0.0625,-0.125 0.0022,-0.0032 0.09175,-0.121652 0.09375,-0.125 0.002,-0.0033 0.06075,-0.121515 0.0625,-0.125 0.0018,-0.0035 0.06101,-0.121396 0.0625,-0.125 0.0015,-0.0036 0.06128,-0.121296 0.0625,-0.125 0.0012,-0.0037 0.0303,-0.152466 0.03125,-0.15625 9.49e-4,-0.0038 0.03058,-0.121157 0.03125,-0.125 6.69e-4,-0.0038 -3.85e-4,-0.152368 0,-0.15625 3.85e-4,-0.0039 0.03115,-0.121101 0.03125,-0.125 1e-4,-0.0039 1.86e-4,-0.152354 0,-0.15625 -1.86e-4,-0.0039 -0.03078,-0.152378 -0.03125,-0.15625 -4.72e-4,-0.0039 7.54e-4,-0.121173 0,-0.125 -7.54e-4,-0.0038 -0.03022,-0.152488 -0.03125,-0.15625 -0.001,-0.0038 -0.06119,-0.121324 -0.0625,-0.125 -0.0013,-0.0037 -0.06093,-0.12143 -0.0625,-0.125 -0.0016,-0.0036 -0.06067,-0.152805 -0.0625,-0.15625 -0.0018,-0.0034 -0.06042,-0.121698 -0.0625,-0.125 -0.0021,-0.0033 -0.06019,-0.09061 -0.0625,-0.09375 -0.0023,-0.0031 -0.09121,-0.122037 -0.09375,-0.125 -0.0025,-0.003 -0.091,-0.09098 -0.09375,-0.09375 a 0.90407626,0.90407626 0 0 0 -0.03125,0 l -14.96875,-15 c -3.51e-4,-3.58e-4 -0.02749,0.0036 -0.03125,0 -0.0188,-0.01818 -0.06065,-0.09206 -0.0625,-0.09375 -0.0022,-0.002 -0.09142,-0.06061 -0.09375,-0.0625 -0.0023,-0.0019 -0.06006,-0.06074 -0.0625,-0.0625 -0.0024,-0.0018 -0.09122,-0.06088 -0.09375,-0.0625 -0.0025,-0.0016 -0.09113,-0.06103 -0.09375,-0.0625 -0.0026,-0.0015 -0.122302,-0.06118 -0.125,-0.0625 -0.0027,-0.0013 -0.09098,-0.03008 -0.09375,-0.03125 -0.0028,-0.0012 -0.09092,-0.03024 -0.09375,-0.03125 -0.0028,-0.001 -0.122118,-0.06165 -0.125,-0.0625 -0.0029,-8.49e-4 -0.09082,6.85e-4 -0.09375,0 -0.0029,-6.85e-4 -0.09079,-0.03073 -0.09375,-0.03125 -0.003,-5.19e-4 -0.122016,-0.0309 -0.125,-0.03125 -0.003,-3.51e-4 -0.09075,1.82e-4 -0.09375,0 -0.003,-1.82e-4 -0.121995,1.2e-5 -0.125,0 -0.003,-1.2e-5 -0.121999,-1.58e-4 -0.125,0 -0.003,1.58e-4 -0.09076,-3.27e-4 -0.09375,0 a 0.90407626,0.90407626 0 0 0 -0.03125,0 z m -22.78125,28.9375 14.03125,0 c 7.3e-4,-1.1e-5 0.02259,4.18e-4 0.03125,0 l 0,6.03125 c 2e-6,0.0026 -1.3e-4,0.09115 0,0.09375 1.3e-4,0.0026 -2.58e-4,0.09116 0,0.09375 2.58e-4,0.0026 0.03086,0.09117 0.03125,0.09375 3.85e-4,0.0026 -5.1e-4,0.09119 0,0.09375 5.1e-4,0.0026 0.03061,0.09122 0.03125,0.09375 6.35e-4,0.0025 0.03049,0.09126 0.03125,0.09375 7.58e-4,0.0025 0.03037,0.0913 0.03125,0.09375 8.8e-4,0.0025 0.03025,0.09134 0.03125,0.09375 9.99e-4,0.0024 0.03013,0.09139 0.03125,0.09375 0.0011,0.0024 0.06127,0.09145 0.0625,0.09375 0.0012,0.0023 0.02991,0.06026 0.03125,0.0625 0.0013,0.0022 0.06105,0.09158 0.0625,0.09375 0.0014,0.0022 0.0297,0.06041 0.03125,0.0625 0.0016,0.0021 0.06085,0.09173 0.0625,0.09375 0.0017,0.002 0.06075,0.06057 0.0625,0.0625 0.0018,0.0019 0.09191,0.06066 0.09375,0.0625 0.0018,0.0018 0.06057,0.092 0.0625,0.09375 0.0019,0.0018 0.06048,0.06085 0.0625,0.0625 0.002,0.0017 0.09166,0.06095 0.09375,0.0625 0.0021,0.0016 0.06033,0.0298 0.0625,0.03125 0.0022,0.0014 0.09151,0.06116 0.09375,0.0625 0.0022,0.0013 0.0602,0.03002 0.0625,0.03125 0.0023,0.0012 0.09139,0.06138 0.09375,0.0625 0.0024,0.0011 0.09134,0.03025 0.09375,0.03125 0.0024,9.99e-4 0.0913,0.03037 0.09375,0.03125 0.0025,8.8e-4 0.09126,0.03049 0.09375,0.03125 0.0025,7.58e-4 0.09122,0.03061 0.09375,0.03125 0.0025,6.35e-4 0.09119,0.03074 0.09375,0.03125 0.0026,5.1e-4 0.09117,-3.85e-4 0.09375,0 0.0026,3.85e-4 0.09116,0.03099 0.09375,0.03125 0.0026,2.58e-4 0.09115,-1.3e-4 0.09375,0 0.0026,1.3e-4 0.09114,-2e-6 0.09375,0 l 14,0 c 0.0026,-2e-6 0.09115,1.3e-4 0.09375,0 0.0026,-1.3e-4 0.09116,2.58e-4 0.09375,0 0.0026,-2.58e-4 0.09117,-0.03086 0.09375,-0.03125 0.0026,-3.85e-4 0.09119,5.1e-4 0.09375,0 0.0026,-5.1e-4 0.09122,-0.03061 0.09375,-0.03125 0.0025,-6.35e-4 0.09126,-0.03049 0.09375,-0.03125 0.0025,-7.58e-4 0.0913,-0.03037 0.09375,-0.03125 0.0025,-8.8e-4 0.09134,-0.03025 0.09375,-0.03125 0.0024,-9.99e-4 0.09139,-0.03013 0.09375,-0.03125 0.0024,-0.0011 0.09145,-0.06127 0.09375,-0.0625 0.0023,-0.0012 0.06026,-0.02991 0.0625,-0.03125 0.0022,-0.0013 0.09158,-0.06105 0.09375,-0.0625 0.0022,-0.0014 0.06041,-0.0297 0.0625,-0.03125 0.0021,-0.0016 0.09173,-0.06085 0.09375,-0.0625 0.002,-0.0017 0.06057,-0.06075 0.0625,-0.0625 0.0019,-0.0018 0.06066,-0.09191 0.0625,-0.09375 0.0018,-0.0018 0.092,-0.06057 0.09375,-0.0625 0.0018,-0.0019 0.06085,-0.06048 0.0625,-0.0625 0.0017,-0.002 0.06095,-0.09166 0.0625,-0.09375 0.0016,-0.0021 0.0298,-0.06033 0.03125,-0.0625 0.0014,-0.0022 0.06116,-0.09151 0.0625,-0.09375 0.0013,-0.0022 0.03002,-0.0602 0.03125,-0.0625 0.0012,-0.0023 0.06138,-0.09139 0.0625,-0.09375 0.0011,-0.0024 0.03025,-0.09134 0.03125,-0.09375 9.99e-4,-0.0024 0.03037,-0.0913 0.03125,-0.09375 8.8e-4,-0.0025 0.03049,-0.09126 0.03125,-0.09375 7.58e-4,-0.0025 0.03061,-0.09122 0.03125,-0.09375 6.35e-4,-0.0025 0.03074,-0.09119 0.03125,-0.09375 5.1e-4,-0.0026 -3.85e-4,-0.09117 0,-0.09375 3.85e-4,-0.0026 0.03099,-0.09116 0.03125,-0.09375 2.58e-4,-0.0026 -1.3e-4,-0.09115 0,-0.09375 1.3e-4,-0.0026 -2e-6,-0.09114 0,-0.09375 l 0,-6.03125 c 0.01233,4.08e-4 0.03035,-10e-7 0.03125,0 l 0.03125,0 0,20.0625 -32.0625,0 0,-20.0625 z" stroke-width="2" fill="#000000" color="#000000" fill-opacity="1" fill-rule="nonzero" stroke="none" opacity="0.1" visibility="visible"/>
  <path d="M 54.875,16.9375 A 1.0635054,1.0635054 0 0 0 54.25,17.25 l -15,15 A 1.0635054,1.0635054 0 0 0 40,34.0625 l 6.9375,0 0,2.4375 A 1.0635054,1.0635054 0 0 0 46,35.9375 l -18.5,0 c -2.509729,0 -4.5625,2.052771 -4.5625,4.5625 l 0,29 c 0,2.509729 2.052771,4.5625 4.5625,4.5625 l 41,0 c 2.509729,0 4.5625,-2.052771 4.5625,-4.5625 l 0,-29 c 0,-2.509729 -2.052771,-4.5625 -4.5625,-4.5625 l -4.5,0 a 1.0635054,1.0635054 0 0 0 -0.9375,0.59375 l 0,-2.46875 6.9375,0 A 1.0635054,1.0635054 0 0 0 70.75,32.25 l -15,-15 a 1.0635054,1.0635054 0 0 0 -0.875,-0.3125 z m -7.9375,26.53125 0,7.53125 A 1.0635054,1.0635054 0 0 0 48,52.0625 l 14,0 A 1.0635054,1.0635054 0 0 0 63.0625,51 l 0,-7.5 A 1.0635054,1.0635054 0 0 0 64,44.0625 l 0.25,0 c 0.398771,0 0.6875,0.288729 0.6875,0.6875 l 0,20.5 c 0,0.398771 -0.288729,0.6875 -0.6875,0.6875 l -32.5,0 c -0.398771,0 -0.6875,-0.288729 -0.6875,-0.6875 l 0,-20.5 c 0,-0.398771 0.288729,-0.6875 0.6875,-0.6875 l 14.25,0 a 1.0635054,1.0635054 0 0 0 0.9375,-0.59375 z" stroke-width="2" fill="#000000" color="#000000" fill-opacity="1" fill-rule="nonzero" stroke="none" opacity="0.15" visibility="visible"/>
  <path d="m 55,18 -15,15 8,0 0,18 14,0 0,-18 8,0 L 55,18 z M 27.5,37 C 25.561,37 24,38.561 24,40.5 l 0,29 c 0,1.939 1.561,3.5 3.5,3.5 l 41,0 c 1.939,0 3.5,-1.561 3.5,-3.5 l 0,-29 C 72,38.561 70.439,37 68.5,37 l -4.5,0 0,6 0.25,0 c 0.9695,0 1.75,0.7805 1.75,1.75 l 0,20.5 C 66,66.2195 65.2195,67 64.25,67 l -32.5,0 C 30.7805,67 30,66.2195 30,65.25 l 0,-20.5 C 30,43.7805 30.7805,43 31.75,43 L 46,43 46,37 27.5,37 z" stroke-width="2" fill="#000000" color="#000000" fill-opacity="1" fill-rule="nonzero" stroke="none" opacity="0.3" visibility="visible" inkscape:connector-curvature="0"/>
  <text x="104" font-size="4" font-stretch="normal" font-style="normal" letter-spacing="0" font-variant="normal" y="48" font-weight="normal" text-anchor="start" line-height="125%" fill="#000000" fill-opacity="1" stroke="none" word-spacing="0" writing-mode="lr-tb" font-family="Liberation Sans"><tspan x="104" y="48">Shadow opacity : 30, 15, 10, (8)</tspan>
  </text>
  <text x="124" font-size="4" font-stretch="normal" font-style="normal" letter-spacing="0" font-variant="normal" y="32" font-weight="normal" text-anchor="start" line-height="125%" fill="#000000" fill-opacity="1" stroke="none" word-spacing="0" writing-mode="lr-tb" font-family="Liberation Sans"><tspan x="124" y="32">Bevel opacity : 30 / 10</tspan>
  </text>
  <text x="124" font-size="4" font-stretch="normal" font-style="normal" letter-spacing="0" font-variant="normal" y="8" font-weight="normal" text-anchor="start" line-height="125%" fill="#000000" fill-opacity="1" stroke="none" word-spacing="0" writing-mode="lr-tb" font-family="Liberation Sans"><tspan x="124" y="8">Bevel opacity : 75 / 15</tspan>
  </text>
  <path d="m 55,17 -15,15 8,0 0,18 14,0 0,-18 8,0 L 55,17 z M 27.5,36 C 25.561,36 24,37.561 24,39.5 l 0,29 c 0,1.939 1.561,3.5 3.5,3.5 l 41,0 c 1.939,0 3.5,-1.561 3.5,-3.5 l 0,-29 C 72,37.561 70.439,36 68.5,36 l -4.5,0 0,6 0.25,0 c 0.9695,0 1.75,0.7805 1.75,1.75 l 0,20.5 C 66,65.2195 65.2195,66 64.25,66 l -32.5,0 C 30.7805,66 30,65.2195 30,64.25 l 0,-20.5 C 30,42.7805 30.7805,42 31.75,42 L 46,42 46,36 27.5,36 z" stroke-width="2" fill="url(#linearGradient3149)" color="#000000" fill-opacity="1" fill-rule="nonzero" stroke="none" visibility="visible" inkscape:connector-curvature="0"/>
  <path d="M 55,17 40,32 41,32 55,18 69,32 70,32 55,17 z M 27.5,36 C 25.561,36 24,37.561 24,39.5 l 0,1 C 24,38.561 25.561,37 27.5,37 l 18.5,0 0,-1 -18.5,0 z m 36.5,0 0,1 4.5,0 c 1.939,0 3.5,1.561 3.5,3.5 l 0,-1 C 72,37.561 70.439,36 68.5,36 L 64,36 z m -34,28.25 0,1 c 0,0.9695 0.7805,1.75 1.75,1.75 l 32.5,0 C 65.2195,67 66,66.2195 66,65.25 l 0,-1 C 66,65.2195 65.2195,66 64.25,66 l -32.5,0 C 30.7805,66 30,65.2195 30,64.25 z" stroke-width="2" fill="#ffffff" color="#000000" fill-opacity="1" fill-rule="nonzero" stroke="none" opacity="0.75" visibility="visible" inkscape:connector-curvature="0"/>
  <path d="m 41,31 -1,1 8,0 0,-1 -7,0 z m 21,0 0,1 8,0 -1,-1 -7,0 z M 31.75,41 C 30.7805,41 30,41.7805 30,42.75 l 0,1 C 30,42.7805 30.7805,42 31.75,42 L 46,42 46,41 31.75,41 z m 32.25,0 0,1 0.25,0 c 0.9695,0 1.75,0.7805 1.75,1.75 l 0,-1 C 66,41.7805 65.2195,41 64.25,41 L 64,41 z m -16,8 0,1 14,0 0,-1 -14,0 z m -24,18.5 0,1 c 0,1.939 1.561,3.5 3.5,3.5 l 41,0 c 1.939,0 3.5,-1.561 3.5,-3.5 l 0,-1 c 0,1.939 -1.561,3.5 -3.5,3.5 l -41,0 C 25.561,71 24,69.439 24,67.5 z" stroke-width="2" fill="#000000" color="#000000" fill-opacity="1" fill-rule="nonzero" stroke="none" opacity="0.15" visibility="visible" inkscape:connector-curvature="0"/>
 </g>
</svg>
