<?xml version="1.0" encoding="UTF-8" standalone="no"?>
<svg
   xmlns:dc="http://purl.org/dc/elements/1.1/"
   xmlns:cc="http://creativecommons.org/ns#"
   xmlns:rdf="http://www.w3.org/1999/02/22-rdf-syntax-ns#"
   xmlns:svg="http://www.w3.org/2000/svg"
   xmlns="http://www.w3.org/2000/svg"
   xmlns:xlink="http://www.w3.org/1999/xlink"
   xmlns:sodipodi="http://sodipodi.sourceforge.net/DTD/sodipodi-0.dtd"
   xmlns:inkscape="http://www.inkscape.org/namespaces/inkscape"
   height="96"
   width="96"
   id="svg2"
   version="1.1"
   inkscape:version="0.91 r13725"
   sodipodi:docname="extract-archive.svg">
  <metadata
     id="metadata68">
    <rdf:RDF>
      <cc:Work
         rdf:about="">
        <dc:format>image/svg+xml</dc:format>
        <dc:type
           rdf:resource="http://purl.org/dc/dcmitype/StillImage" />
      </cc:Work>
    </rdf:RDF>
  </metadata>
  <sodipodi:namedview
     pagecolor="#ffffff"
     bordercolor="#666666"
     borderopacity="1"
     objecttolerance="10"
     gridtolerance="10"
     guidetolerance="10"
     inkscape:pageopacity="0"
     inkscape:pageshadow="2"
     inkscape:window-width="760"
     inkscape:window-height="480"
     id="namedview66"
     showgrid="false"
     inkscape:zoom="3.4766083"
     inkscape:cx="6.9360439"
     inkscape:cy="36.085698"
     inkscape:window-x="168"
     inkscape:window-y="192"
     inkscape:window-maximized="0"
     inkscape:current-layer="svg2" />
  <defs
     id="defs4">
    <linearGradient
       x2="0"
       y1="92.54"
       y2="7.02"
       gradientUnits="userSpaceOnUse"
       id="ButtonShadow-0"
       gradientTransform="matrix(1.0059 0 0 0.99417 100 0)">
      <stop
         stop-color="#000000"
         stop-opacity="1"
         id="stop7" />
      <stop
         stop-color="#000000"
         stop-opacity="0.588"
         offset="1"
         id="stop9" />
    </linearGradient>
    <linearGradient
       x2="0"
       xlink:href="#ButtonShadow-0"
       y1="6.132"
       y2="90.24"
       gradientUnits="userSpaceOnUse"
       id="linearGradient3780"
       gradientTransform="matrix(1.02381 0 0 -1.0119 -1.143 98.07)" />
    <linearGradient
       x2="0"
       xlink:href="#ButtonShadow-0"
       y1="6.132"
       y2="90.24"
       gradientUnits="userSpaceOnUse"
       id="linearGradient3721"
       gradientTransform="matrix(1 0 0 -1 0 97)" />
    <radialGradient
       cy="90.17"
       r="42"
       gradientUnits="userSpaceOnUse"
       id="radialGradient3619-3"
       cx="48"
       gradientTransform="matrix(1.15731 0 0 0.99591 -7.551 0.197)">
      <stop
         stop-color="#ffffff"
         stop-opacity="1"
         id="stop14" />
      <stop
         stop-color="#ffffff"
         stop-opacity="0"
         offset="1"
         id="stop16" />
    </radialGradient>
    <linearGradient
       x1="85"
       x2="30"
       gradientUnits="userSpaceOnUse"
       id="linearGradient3149"
       gradientTransform="matrix(0,-1.357367,1.357367,0,-14.438882,124.69133)">
      <stop
         stop-color="#1a1a1a"
         stop-opacity="1"
         id="stop19" />
      <stop
         stop-color="#4d4d4d"
         stop-opacity="1"
         offset="1"
         id="stop21" />
    </linearGradient>
    <rect
       x="6"
       rx="6"
       y="6"
       fill="#000000"
       fill-opacity="1"
       stroke="none"
       fill-rule="nonzero"
       height="84"
       id="SVGCleanerId_0"
       opacity="0.6"
       width="84" />
  </defs>
  <path
     style="color:#000000;visibility:visible;fill:url(#linearGradient3149);fill-opacity:1;fill-rule:nonzero;stroke:none;stroke-width:2"
     id="path60"
     inkscape:connector-curvature="0"
     visibility="visible"
     d="m 57.501569,9.315132 -20.360505,20.360505 10.858936,0 0,24.432606 19.003138,0 0,-24.432606 10.858936,0 L 57.501569,9.315132 Z M 20.173977,35.105105 c -2.631935,0 -4.750785,2.11885 -4.750785,4.750785 l 0,39.363642 c 0,2.631935 2.11885,4.750785 4.750785,4.750785 l 55.652047,0 c 2.631934,0 4.750784,-2.11885 4.750784,-4.750785 l 0,-39.363642 c 0,-2.631935 -2.11885,-4.750785 -4.750784,-4.750785 l -6.108152,0 0,8.144202 0.339342,0 c 1.315967,0 2.375392,1.059425 2.375392,2.375392 l 0,27.826024 c 0,1.315967 -1.059425,2.375392 -2.375392,2.375392 l -44.114428,0 c -1.315967,0 -2.375392,-1.059425 -2.375392,-2.375392 l 0,-27.826024 c 0,-1.315967 1.059425,-2.375392 2.375392,-2.375392 l 19.34248,0 0,-8.144202 -25.111289,0 z" />
  <path
     style="color:#000000;visibility:visible;opacity:0.75;fill:#ffffff;fill-opacity:1;fill-rule:nonzero;stroke:none;stroke-width:2"
     id="path62"
     inkscape:connector-curvature="0"
     visibility="visible"
     d="m 57.501569,9.315132 -20.360505,20.360505 1.357367,0 19.003138,-19.003138 19.003138,19.003138 1.357367,0 L 57.501569,9.315132 Z M 20.173977,35.105105 c -2.631935,0 -4.750785,2.11885 -4.750785,4.750785 l 0,1.357366 c 0,-2.631934 2.11885,-4.750784 4.750785,-4.750784 l 25.111289,0 0,-1.357367 -25.111289,0 z m 49.543895,0 0,1.357367 6.108152,0 c 2.631934,0 4.750784,2.11885 4.750784,4.750784 l 0,-1.357366 c 0,-2.631935 -2.11885,-4.750785 -4.750784,-4.750785 l -6.108152,0 z m -46.150478,38.345618 0,1.357367 c 0,1.315967 1.059425,2.375392 2.375392,2.375392 l 44.114428,0 c 1.315967,0 2.375392,-1.059425 2.375392,-2.375392 l 0,-1.357367 c 0,1.315967 -1.059425,2.375392 -2.375392,2.375392 l -44.114428,0 c -1.315967,0 -2.375392,-1.059425 -2.375392,-2.375392 z" />
  <path
     style="color:#000000;visibility:visible;opacity:0.15;fill:#000000;fill-opacity:1;fill-rule:nonzero;stroke:none;stroke-width:2"
     id="path64"
     inkscape:connector-curvature="0"
     visibility="visible"
     d="m 38.498431,28.31827 -1.357367,1.357367 10.858936,0 0,-1.357367 -9.501569,0 z m 28.504707,0 0,1.357367 10.858936,0 -1.357367,-1.357367 -9.501569,0 z M 25.942786,41.89194 c -1.315967,0 -2.375392,1.059425 -2.375392,2.375392 l 0,1.357367 c 0,-1.315967 1.059425,-2.375392 2.375392,-2.375392 l 19.34248,0 0,-1.357367 -19.34248,0 z m 43.775086,0 0,1.357367 0.339342,0 c 1.315967,0 2.375392,1.059425 2.375392,2.375392 l 0,-1.357367 c 0,-1.315967 -1.059425,-2.375392 -2.375392,-2.375392 l -0.339342,0 z M 48,52.750876 l 0,1.357367 19.003138,0 0,-1.357367 -19.003138,0 z m -32.576808,25.11129 0,1.357366 c 0,2.631935 2.11885,4.750785 4.750785,4.750785 l 55.652047,0 c 2.631934,0 4.750784,-2.11885 4.750784,-4.750785 l 0,-1.357366 c 0,2.631934 -2.11885,4.750784 -4.750784,4.750784 l -55.652047,0 c -2.631935,0 -4.750785,-2.11885 -4.750785,-4.750784 z" />
</svg>
