<?xml version="1.0" encoding="UTF-8" standalone="no"?>
<svg
   xmlns:dc="http://purl.org/dc/elements/1.1/"
   xmlns:cc="http://creativecommons.org/ns#"
   xmlns:rdf="http://www.w3.org/1999/02/22-rdf-syntax-ns#"
   xmlns:svg="http://www.w3.org/2000/svg"
   xmlns="http://www.w3.org/2000/svg"
   xmlns:xlink="http://www.w3.org/1999/xlink"
   xmlns:sodipodi="http://sodipodi.sourceforge.net/DTD/sodipodi-0.dtd"
   xmlns:inkscape="http://www.inkscape.org/namespaces/inkscape"
   display="inline"
   height="96"
   width="96"
   id="svg2"
   version="1.1"
   inkscape:version="0.91 r13725"
   sodipodi:docname="folder-move.svg">
  <metadata
     id="metadata75">
    <rdf:RDF>
      <cc:Work
         rdf:about="">
        <dc:format>image/svg+xml</dc:format>
        <dc:type
           rdf:resource="http://purl.org/dc/dcmitype/StillImage" />
      </cc:Work>
    </rdf:RDF>
  </metadata>
  <sodipodi:namedview
     pagecolor="#ffffff"
     bordercolor="#666666"
     borderopacity="1"
     objecttolerance="10"
     gridtolerance="10"
     guidetolerance="10"
     inkscape:pageopacity="0"
     inkscape:pageshadow="2"
     inkscape:window-width="760"
     inkscape:window-height="480"
     id="namedview73"
     showgrid="false"
     inkscape:zoom="2.4583333"
     inkscape:cx="-15.864407"
     inkscape:cy="47.999999"
     inkscape:window-x="604"
     inkscape:window-y="41"
     inkscape:window-maximized="0"
     inkscape:current-layer="svg2" />
  <defs
     id="defs4">
    <linearGradient
       id="linearGradient4081">
      <stop
         stop-color="#4d4d4d"
         stop-opacity="1"
         id="stop7" />
      <stop
         stop-color="#1a1a1a"
         stop-opacity="1"
         offset="1"
         id="stop9" />
    </linearGradient>
    <linearGradient
       x1="29.827"
       x2="65.69"
       xlink:href="#linearGradient4081"
       gradientUnits="userSpaceOnUse"
       id="linearGradient3034"
       gradientTransform="matrix(0 -1 -1 0 96 16)" />
    <linearGradient
       x2="0"
       y1="92.54"
       y2="7.02"
       gradientUnits="userSpaceOnUse"
       id="ButtonShadow-0"
       gradientTransform="matrix(1.0059 0 0 0.99417 100 0)">
      <stop
         stop-color="#000000"
         stop-opacity="1"
         id="stop13" />
      <stop
         stop-color="#000000"
         stop-opacity="0.588"
         offset="1"
         id="stop15" />
    </linearGradient>
    <linearGradient
       x2="0"
       xlink:href="#ButtonShadow-0"
       y1="6.132"
       y2="90.24"
       gradientUnits="userSpaceOnUse"
       id="linearGradient3780"
       gradientTransform="matrix(1.02381 0 0 -1.0119 -1.143 98.07)" />
    <linearGradient
       x2="0"
       xlink:href="#ButtonShadow-0"
       y1="6.132"
       y2="90.24"
       gradientUnits="userSpaceOnUse"
       id="linearGradient3721-4"
       gradientTransform="matrix(1 0 0 -1 0 97)" />
    <radialGradient
       cy="90.17"
       r="42"
       gradientUnits="userSpaceOnUse"
       id="radialGradient3619-8"
       cx="48"
       gradientTransform="matrix(1.15731 0 0 0.99591 -7.551 0.197)">
      <stop
         stop-color="#ffffff"
         stop-opacity="1"
         id="stop20" />
      <stop
         stop-color="#ffffff"
         stop-opacity="0"
         offset="1"
         id="stop22" />
    </radialGradient>
    <linearGradient
       x2="0"
       xlink:href="#linearGradient4081"
       y1="60"
       y2="24"
       gradientUnits="userSpaceOnUse"
       id="linearGradient4048"
       gradientTransform="translate(12,14)" />
  </defs>
  <g
     id="g3436"
     transform="matrix(1.4545455,0,0,1.4545455,-23.272729,-24.000002)">
    <path
       id="path39"
       visibility="visible"
       d="m 42,37 c -2.734943,0 -5,2.265057 -5,5 l 0,5 c 0,2e-6 0,0.09375 0,0.09375 0,2e-6 0.03125,0.09375 0.03125,0.09375 0,2e-6 0,0.09375 0,0.09375 0,2e-6 0,0.09375 0,0.09375 0,2e-6 0.03125,0.09375 0.03125,0.09375 0,2e-6 0.03125,0.09375 0.03125,0.09375 0,2e-6 0.03125,0.09375 0.03125,0.09375 10e-7,2e-6 0.03125,0.09375 0.03125,0.09375 10e-7,2e-6 0.03125,0.09375 0.03125,0.09375 C 35.337335,48.86694 34,50.752294 34,53 l 0,18 c 0,3.286313 2.713687,6 6,6 l 30,0 c 3.286313,0 6,-2.713687 6,-6 l 0,-18 c 0,-2.247706 -1.337335,-4.13306 -3.1875,-5.15625 10e-7,-10e-7 0.03125,-0.09375 0.03125,-0.09375 10e-7,-2e-6 0.03125,-0.09375 0.03125,-0.09375 10e-7,-2e-6 0.03125,-0.09375 0.03125,-0.09375 0,-2e-6 0.03125,-0.09375 0.03125,-0.09375 0,-2e-6 0.03125,-0.09375 0.03125,-0.09375 0,-2e-6 0,-0.09375 0,-0.09375 0,-2e-6 0,-0.09375 0,-0.09375 0,-2e-6 0.03125,-0.09375 0.03125,-0.09375 C 73,47.093748 73,47 73,47 73,43.713687 70.286313,41 67,41 L 54.78125,41 C 54.299937,38.752958 52.381404,37 50,37 l -8,0 z"
       inkscape:connector-curvature="0"
       style="color:black;visibility:visible;opacity:0.1;fill:black;fill-opacity:1;fill-rule:nonzero;stroke:none;stroke-width:1" />
    <path
       id="path41"
       visibility="visible"
       d="m 42,38 c -2.191954,0 -4,1.808046 -4,4 l 0,5 a 0.98752461,0.98752461 0 0 0 1,1 l 1,0 c -2.745954,0 -5,2.254046 -5,5 l 0,18 c 0,2.745954 2.254046,5 5,5 l 30,0 c 2.745954,0 5,-2.254046 5,-5 l 0,-18 c 0,-2.745954 -2.254046,-5 -5,-5 l 1,0 a 0.98752461,0.98752461 0 0 0 1,-1 c 0,-2.745954 -2.254046,-5 -5,-5 l -13,0 c 0,-2.191954 -1.808046,-4 -4,-4 l -8,0 z"
       inkscape:connector-curvature="0"
       style="color:black;visibility:visible;opacity:0.15;fill:black;fill-opacity:1;fill-rule:nonzero;stroke:none;stroke-width:1" />
    <path
       id="path43"
       inkscape:connector-curvature="0"
       visibility="visible"
       d="m 42,39 c -1.662,0 -3,1.338 -3,3 l 0,5 32,0 c 0,-2.216 -1.784,-4 -4,-4 l -14,0 0,-1 c 0,-1.662 -1.338,-3 -3,-3 l -8,0 z m -2,10 c -2.216,0 -4,1.784 -4,4 l 0,18 c 0,2.216 1.784,4 4,4 l 30,0 c 2.216,0 4,-1.784 4,-4 l 0,-18 c 0,-2.216 -1.784,-4 -4,-4 l -30,0 z"
       style="color:black;visibility:visible;opacity:0.3;fill:black;fill-opacity:1;fill-rule:nonzero;stroke:none;stroke-width:1" />
    <path
       id="path65"
       inkscape:connector-curvature="0"
       visibility="visible"
       d="m 28,22 c -1.662,0 -3,1.338 -3,3 l 0,5 32,0 c 0,-2.216 -1.784,-4 -4,-4 l -14,0 0,-1 c 0,-1.662 -1.338,-3 -3,-3 l -8,0 z m -2,10 c -2.216,0 -4,1.784 -4,4 l 0,18 c 0,2.216 1.784,4 4,4 l 8,0 0,-6 c 0,-2.245203 1.337425,-4.132229 3.1875,-5.15625 A 1.9876203,1.9876203 0 0 1 37,46 l 0,-5 c 0,-2.728655 2.271345,-5 5,-5 l 8,0 c 2.375929,0 4.298797,1.755878 4.78125,4 L 60,40 60,36 c 0,-2.216 -1.784,-4 -4,-4 l -30,0 z"
       style="color:black;visibility:visible;opacity:0.3;fill:white;fill-opacity:1;fill-rule:nonzero;stroke:none;stroke-width:1" />
    <path
       id="path67"
       inkscape:connector-curvature="0"
       visibility="visible"
       d="m 42,38 c -1.662,0 -3,1.338 -3,3 l 0,5 32,0 c 0,-2.216 -1.784,-4 -4,-4 l -14,0 0,-1 c 0,-1.662 -1.338,-3 -3,-3 l -8,0 z m -2,10 c -2.216,0 -4,1.784 -4,4 l 0,18 c 0,2.216 1.784,4 4,4 l 30,0 c 2.216,0 4,-1.784 4,-4 l 0,-18 c 0,-2.216 -1.784,-4 -4,-4 l -30,0 z"
       style="color:black;visibility:visible;fill:url(#linearGradient4048);fill-opacity:1;fill-rule:nonzero;stroke:none;stroke-width:1" />
    <path
       id="path69"
       inkscape:connector-curvature="0"
       visibility="visible"
       d="m 42,38 c -1.662,0 -3,1.338 -3,3 l 0,1 c 0,-1.662 1.338,-3 3,-3 l 8,0 c 1.662,0 3,1.338 3,3 l 0,-1 c 0,-1.662 -1.338,-3 -3,-3 l -8,0 z m 11,4 0,1 14,0 c 1.868974,0 3.400465,1.273103 3.84375,3 L 71,46 c 0,-2.216 -1.784,-4 -4,-4 l -14,0 z m -13,6 c -2.216,0 -4,1.784 -4,4 l 0,1 c 0,-2.216 1.784,-4 4,-4 l 30,0 c 2.216,0 4,1.784 4,4 l 0,-1 c 0,-2.216 -1.784,-4 -4,-4 l -30,0 z"
       style="color:black;visibility:visible;opacity:0.75;fill:white;fill-opacity:1;fill-rule:nonzero;stroke:none;stroke-width:1" />
    <path
       id="path71"
       inkscape:connector-curvature="0"
       visibility="visible"
       d="m 39,45 0,1 32,0 c 0,-0.347026 -0.07394,-0.679355 -0.15625,-1 L 39,45 Z m -3,24 0,1 c 0,2.216 1.784,4 4,4 l 30,0 c 2.216,0 4,-1.784 4,-4 l 0,-1 c 0,2.216 -1.784,4 -4,4 l -30,0 c -2.216,0 -4,-1.784 -4,-4 z"
       style="color:black;visibility:visible;opacity:0.15;fill:black;fill-opacity:1;fill-rule:nonzero;stroke:none;stroke-width:1" />
  </g>
</svg>
