<?xml version="1.0" encoding="UTF-8" standalone="no"?>
<svg
   xmlns:dc="http://purl.org/dc/elements/1.1/"
   xmlns:cc="http://creativecommons.org/ns#"
   xmlns:rdf="http://www.w3.org/1999/02/22-rdf-syntax-ns#"
   xmlns:svg="http://www.w3.org/2000/svg"
   xmlns="http://www.w3.org/2000/svg"
   xmlns:xlink="http://www.w3.org/1999/xlink"
   xmlns:sodipodi="http://sodipodi.sourceforge.net/DTD/sodipodi-0.dtd"
   xmlns:inkscape="http://www.inkscape.org/namespaces/inkscape"
   display="inline"
   height="96"
   width="96"
   id="svg2"
   version="1.1"
   inkscape:version="0.91 r13725"
   sodipodi:docname="folder-copy.svg">
  <metadata
     id="metadata73">
    <rdf:RDF>
      <cc:Work
         rdf:about="">
        <dc:format>image/svg+xml</dc:format>
        <dc:type
           rdf:resource="http://purl.org/dc/dcmitype/StillImage" />
      </cc:Work>
    </rdf:RDF>
  </metadata>
  <sodipodi:namedview
     pagecolor="#ffffff"
     bordercolor="#666666"
     borderopacity="1"
     objecttolerance="10"
     gridtolerance="10"
     guidetolerance="10"
     inkscape:pageopacity="0"
     inkscape:pageshadow="2"
     inkscape:window-width="1366"
     inkscape:window-height="708"
     id="namedview71"
     showgrid="false"
     inkscape:zoom="4.9166667"
     inkscape:cx="20.801474"
     inkscape:cy="45.212238"
     inkscape:window-x="0"
     inkscape:window-y="24"
     inkscape:window-maximized="1"
     inkscape:current-layer="svg2" />
  <defs
     id="defs4">
    <linearGradient
       id="linearGradient4081">
      <stop
         stop-color="#4d4d4d"
         stop-opacity="1"
         id="stop7" />
      <stop
         stop-color="#1a1a1a"
         stop-opacity="1"
         offset="1"
         id="stop9" />
    </linearGradient>
    <linearGradient
       x1="29.827"
       x2="65.69"
       xlink:href="#linearGradient4081"
       gradientUnits="userSpaceOnUse"
       id="linearGradient3034"
       gradientTransform="matrix(0 -1 -1 0 96 16)" />
    <linearGradient
       x2="0"
       y1="92.54"
       y2="7.02"
       gradientUnits="userSpaceOnUse"
       id="ButtonShadow-0"
       gradientTransform="matrix(1.0059 0 0 0.99417 100 0)">
      <stop
         stop-color="#000000"
         stop-opacity="1"
         id="stop13" />
      <stop
         stop-color="#000000"
         stop-opacity="0.588"
         offset="1"
         id="stop15" />
    </linearGradient>
    <linearGradient
       x2="0"
       xlink:href="#ButtonShadow-0"
       y1="6.132"
       y2="90.24"
       gradientUnits="userSpaceOnUse"
       id="linearGradient3780"
       gradientTransform="matrix(1.02381 0 0 -1.0119 -1.143 98.07)" />
    <linearGradient
       x2="0"
       xlink:href="#ButtonShadow-0"
       y1="6.132"
       y2="90.24"
       gradientUnits="userSpaceOnUse"
       id="linearGradient3721-4"
       gradientTransform="matrix(1 0 0 -1 0 97)" />
    <radialGradient
       cy="90.17"
       r="42"
       gradientUnits="userSpaceOnUse"
       id="radialGradient3619-8"
       cx="48"
       gradientTransform="matrix(1.15731 0 0 0.99591 -7.551 0.197)">
      <stop
         stop-color="#ffffff"
         stop-opacity="1"
         id="stop20" />
      <stop
         stop-color="#ffffff"
         stop-opacity="0"
         offset="1"
         id="stop22" />
    </radialGradient>
    <linearGradient
       x2="0"
       xlink:href="#linearGradient4081"
       y1="60"
       y2="8"
       gradientUnits="userSpaceOnUse"
       id="linearGradient3984"
       gradientTransform="matrix(1.42447,0,0,1.42447,-3.287792,-1.853482)" />
  </defs>
  <path
     style="color:#000000;visibility:visible;fill:#cccccc;fill-opacity:1;fill-rule:nonzero;stroke:none;stroke-width:1"
     d="m 19.503728,9.542278 c -2.367469,0 -4.27341,1.905941 -4.27341,4.27341 l 0,7.12235 45.58304,0 c 0,-3.156626 -2.541254,-5.69788 -5.69788,-5.69788 l -19.94258,0 0,-1.42447 c 0,-2.367469 -1.905941,-4.27341 -4.27341,-4.27341 l -11.39576,0 z m -2.84894,14.2447 c -3.156626,0 -5.69788,2.541254 -5.69788,5.69788 l 0,25.64046 c 0,3.156626 2.541254,5.69788 5.69788,5.69788 l 11.39576,0 0,-8.54682 c 0,-3.198224 1.905122,-5.886236 4.540498,-7.344923 a 2.8313055,2.8313055 0 0 1 -0.267088,-1.201897 l 0,-7.12235 c 0,-3.886887 3.235463,-7.12235 7.12235,-7.12235 l 11.39576,0 c 3.38444,0 6.123507,2.501196 6.810747,5.69788 l 7.433953,0 0,-5.69788 c 0,-3.156626 -2.541254,-5.69788 -5.69788,-5.69788 l -42.7341,0 z m 22.79152,8.54682 c -2.367469,0 -4.27341,1.905941 -4.27341,4.27341 l 0,7.12235 45.58304,0 c 0,-3.156626 -2.541254,-5.69788 -5.69788,-5.69788 l -19.94258,0 0,-1.42447 c 0,-2.367469 -1.905941,-4.27341 -4.27341,-4.27341 l -11.39576,0 z m -2.84894,14.2447 c -3.156626,0 -5.69788,2.541254 -5.69788,5.69788 l 0,25.64046 c 0,3.156626 2.541254,5.69788 5.69788,5.69788 l 42.7341,0 c 3.156626,0 5.69788,-2.541254 5.69788,-5.69788 l 0,-25.64046 c 0,-3.156626 -2.541254,-5.69788 -5.69788,-5.69788 l -42.7341,0 z"
     visibility="visible"
     inkscape:connector-curvature="0"
     id="path65" />
</svg>
