<?xml version="1.0" encoding="UTF-8" standalone="no"?>
<svg
   xmlns:dc="http://purl.org/dc/elements/1.1/"
   xmlns:cc="http://creativecommons.org/ns#"
   xmlns:rdf="http://www.w3.org/1999/02/22-rdf-syntax-ns#"
   xmlns:svg="http://www.w3.org/2000/svg"
   xmlns="http://www.w3.org/2000/svg"
   xmlns:xlink="http://www.w3.org/1999/xlink"
   xmlns:sodipodi="http://sodipodi.sourceforge.net/DTD/sodipodi-0.dtd"
   xmlns:inkscape="http://www.inkscape.org/namespaces/inkscape"
   display="inline"
   height="96"
   width="96"
   id="svg2"
   version="1.1"
   inkscape:version="0.91 r13725"
   sodipodi:docname="folder-new.svg">
  <metadata
     id="metadata73">
    <rdf:RDF>
      <cc:Work
         rdf:about="">
        <dc:format>image/svg+xml</dc:format>
        <dc:type
           rdf:resource="http://purl.org/dc/dcmitype/StillImage" />
      </cc:Work>
    </rdf:RDF>
  </metadata>
  <sodipodi:namedview
     pagecolor="#ffffff"
     bordercolor="#666666"
     borderopacity="1"
     objecttolerance="10"
     gridtolerance="10"
     guidetolerance="10"
     inkscape:pageopacity="0"
     inkscape:pageshadow="2"
     inkscape:window-width="760"
     inkscape:window-height="480"
     id="namedview71"
     showgrid="false"
     inkscape:zoom="2.4583333"
     inkscape:cx="-15.864407"
     inkscape:cy="47.999999"
     inkscape:window-x="100"
     inkscape:window-y="125"
     inkscape:window-maximized="0"
     inkscape:current-layer="svg2" />
  <defs
     id="defs4">
    <linearGradient
       id="linearGradient4081">
      <stop
         stop-color="#4d4d4d"
         stop-opacity="1"
         id="stop7" />
      <stop
         stop-color="#1a1a1a"
         stop-opacity="1"
         offset="1"
         id="stop9" />
    </linearGradient>
    <linearGradient
       x1="29.827"
       x2="65.69"
       xlink:href="#linearGradient4081"
       gradientUnits="userSpaceOnUse"
       id="linearGradient3034"
       gradientTransform="matrix(0 -1 -1 0 96 16)" />
    <linearGradient
       x2="0"
       y1="92.54"
       y2="7.02"
       gradientUnits="userSpaceOnUse"
       id="ButtonShadow-0"
       gradientTransform="matrix(1.0059 0 0 0.99417 100 0)">
      <stop
         stop-color="#000000"
         stop-opacity="1"
         id="stop13" />
      <stop
         stop-color="#000000"
         stop-opacity="0.588"
         offset="1"
         id="stop15" />
    </linearGradient>
    <linearGradient
       x2="0"
       xlink:href="#ButtonShadow-0"
       y1="6.132"
       y2="90.24"
       gradientUnits="userSpaceOnUse"
       id="linearGradient3780"
       gradientTransform="matrix(1.02381 0 0 -1.0119 -1.143 98.07)" />
    <linearGradient
       x2="0"
       xlink:href="#ButtonShadow-0"
       y1="6.132"
       y2="90.24"
       gradientUnits="userSpaceOnUse"
       id="linearGradient3721-4"
       gradientTransform="matrix(1 0 0 -1 0 97)" />
    <radialGradient
       cy="90.17"
       r="42"
       gradientUnits="userSpaceOnUse"
       id="radialGradient3619-8"
       cx="48"
       gradientTransform="matrix(1.15731 0 0 0.99591 -7.551 0.197)">
      <stop
         stop-color="#ffffff"
         stop-opacity="1"
         id="stop20" />
      <stop
         stop-color="#ffffff"
         stop-opacity="0"
         offset="1"
         id="stop22" />
    </radialGradient>
    <linearGradient
       x2="0"
       xlink:href="#linearGradient4081"
       y1="74"
       y2="23.99"
       gradientUnits="userSpaceOnUse"
       id="linearGradient3308" />
  </defs>
  <g
     id="g3445"
     transform="matrix(1.4695752,0,0,1.4695752,-22.539544,-25.47876)">
    <path
       id="path39"
       visibility="visible"
       d="m 29,22.78125 c -2.857997,0 -5.21875,2.360753 -5.21875,5.21875 l 0,5 c -9e-6,-0.0046 0.03171,0.22336 0.03125,0.21875 -4.62e-4,-0.0046 0.03216,0.223293 0.03125,0.21875 -9.11e-4,-0.0045 0.0326,0.223182 0.03125,0.21875 -0.0013,-0.0044 0.09553,0.191779 0.09375,0.1875 -0.0018,-0.0043 0.09594,0.191584 0.09375,0.1875 -0.0022,-0.0041 0.09633,0.191351 0.09375,0.1875 -7.93e-4,-0.0012 0.0141,0.03944 0.03125,0.0625 -1.416171,1.1253 -2.40625,2.773857 -2.40625,4.71875 l 0,17.96875 0,0.03125 c 0.0011,0.03952 0.03145,0.159407 0.03125,0.15625 -2.44e-4,-0.0038 5.43e-4,0.191236 0,0.1875 -5.43e-4,-0.0037 0.03209,0.159931 0.03125,0.15625 -8.39e-4,-0.0037 0.06363,0.191102 0.0625,0.1875 -0.0011,-0.0036 0.06391,0.159751 0.0625,0.15625 -0.0014,-0.0035 0.06419,0.159627 0.0625,0.15625 0.0017,-0.0034 -0.06391,0.159751 -0.0625,0.15625 0.0014,-0.0035 -0.06363,0.159852 -0.0625,0.15625 0.0011,-0.0036 -0.06334,0.191181 -0.0625,0.1875 8.39e-4,-0.0037 -0.03179,0.159986 -0.03125,0.15625 5.43e-4,-0.0037 -2.44e-4,0.191268 0,0.1875 2.04e-4,-0.0032 -0.03019,0.116735 -0.03125,0.15625 -2.06e-4,0.0076 9e-6,0.03186 0,0.03125 l 0,7.96875 c -9e-6,-0.0046 0.03171,0.22336 0.03125,0.21875 -4.62e-4,-0.0046 0.03216,0.223293 0.03125,0.21875 -9.11e-4,-0.0045 0.0326,0.223182 0.03125,0.21875 -0.0013,-0.0044 0.09553,0.191779 0.09375,0.1875 -0.0018,-0.0043 0.09594,0.191584 0.09375,0.1875 -0.0022,-0.0041 0.09633,0.191351 0.09375,0.1875 -0.0026,-0.0039 0.12794,0.191081 0.125,0.1875 -0.0029,-0.0036 0.159526,0.159526 0.15625,0.15625 -0.0033,-0.0033 0.159831,0.15919 0.15625,0.15625 -0.0036,-0.0029 0.191351,0.127576 0.1875,0.125 -0.0039,-0.0026 0.191584,0.09594 0.1875,0.09375 -0.0041,-0.0022 0.191779,0.09553 0.1875,0.09375 -0.0043,-0.0018 0.191932,0.0951 0.1875,0.09375 -0.0044,-0.0014 0.223293,0.03216 0.21875,0.03125 -0.0045,-9.11e-4 0.22336,0.03171 0.21875,0.03125 -0.0046,-4.62e-4 0.223383,0.03126 0.21875,0.03125 l 5.78125,0 0,5.78125 c -9e-6,-0.0046 0.03171,0.22336 0.03125,0.21875 -4.62e-4,-0.0046 0.03216,0.223293 0.03125,0.21875 -9.11e-4,-0.0045 0.0326,0.223182 0.03125,0.21875 -0.0013,-0.0044 0.09553,0.191779 0.09375,0.1875 -0.0018,-0.0043 0.09594,0.191584 0.09375,0.1875 -0.0022,-0.0041 0.09633,0.191351 0.09375,0.1875 -0.0026,-0.0039 0.12794,0.191081 0.125,0.1875 -0.0029,-0.0036 0.159526,0.159526 0.15625,0.15625 -0.0033,-0.0033 0.159831,0.15919 0.15625,0.15625 -0.0036,-0.0029 0.191351,0.127576 0.1875,0.125 -0.0039,-0.0026 0.191584,0.09594 0.1875,0.09375 -0.0041,-0.0022 0.191779,0.09553 0.1875,0.09375 -0.0043,-0.0018 0.191932,0.0951 0.1875,0.09375 -0.0044,-0.0014 0.223293,0.03216 0.21875,0.03125 -0.0045,-9.11e-4 0.22336,0.03171 0.21875,0.03125 -0.0046,-4.62e-4 0.223383,0.03126 0.21875,0.03125 l 8,0 c -0.0046,9e-6 0.22336,-0.03171 0.21875,-0.03125 -0.0046,4.62e-4 0.223293,-0.03216 0.21875,-0.03125 -0.0045,9.11e-4 0.223182,-0.0326 0.21875,-0.03125 -0.0044,0.0014 0.191779,-0.09553 0.1875,-0.09375 -0.0043,0.0018 0.191584,-0.09594 0.1875,-0.09375 -0.0041,0.0022 0.191351,-0.09633 0.1875,-0.09375 -0.0039,0.0026 0.191081,-0.12794 0.1875,-0.125 -0.0036,0.0029 0.159526,-0.159526 0.15625,-0.15625 -0.0033,0.0033 0.15919,-0.159831 0.15625,-0.15625 -0.0029,0.0036 0.127576,-0.191351 0.125,-0.1875 -0.0026,0.0039 0.09594,-0.191584 0.09375,-0.1875 -0.0022,0.0041 0.09553,-0.191779 0.09375,-0.1875 -0.0018,0.0043 0.0951,-0.191932 0.09375,-0.1875 -0.0014,0.0044 0.03216,-0.223293 0.03125,-0.21875 -9.11e-4,0.0045 0.03171,-0.22336 0.03125,-0.21875 -4.62e-4,0.0046 0.03126,-0.223383 0.03125,-0.21875 l 0,-5.78125 5.75,0 c -6.12e-4,-9e-6 0.0236,2.06e-4 0.03125,0 0.03952,-0.0011 0.159407,-0.03145 0.15625,-0.03125 -0.0038,2.44e-4 0.191236,-5.43e-4 0.1875,0 -0.0037,5.43e-4 0.159931,-0.03209 0.15625,-0.03125 -0.0037,8.39e-4 0.191102,-0.06363 0.1875,-0.0625 -0.0036,0.0011 0.159751,-0.06391 0.15625,-0.0625 -0.0035,0.0014 0.159627,-0.06419 0.15625,-0.0625 -0.0034,-0.0017 0.159751,0.06391 0.15625,0.0625 -0.0035,-0.0014 0.159852,0.06363 0.15625,0.0625 -0.0036,-0.0011 0.191181,0.06334 0.1875,0.0625 -0.0037,-8.39e-4 0.159986,0.03179 0.15625,0.03125 -0.0037,-5.43e-4 0.191268,2.44e-4 0.1875,0 -0.0032,-2.04e-4 0.116735,0.03019 0.15625,0.03125 0.0076,2.06e-4 0.03186,-9e-6 0.03125,0 l 17.96875,0 c 3.409856,0 6.21875,-2.808894 6.21875,-6.21875 l 0,-24 c 0,-1.937209 -0.991412,-3.591048 -2.40625,-4.71875 0.01715,-0.02306 0.03204,-0.06368 0.03125,-0.0625 -0.0026,0.0039 0.09594,-0.191584 0.09375,-0.1875 -0.0022,0.0041 0.09553,-0.191779 0.09375,-0.1875 -0.0018,0.0043 0.0951,-0.191932 0.09375,-0.1875 -0.0014,0.0044 0.03216,-0.223293 0.03125,-0.21875 -9.11e-4,0.0045 0.03171,-0.22336 0.03125,-0.21875 -4.62e-4,0.0046 0.03126,-0.223383 0.03125,-0.21875 0,-3.409856 -2.808894,-6.21875 -6.21875,-6.21875 l -21.03125,0 c -0.570144,-2.2556 -2.545759,-4 -4.96875,-4 l -11,0 z"
       inkscape:connector-curvature="0"
       style="color:black;visibility:visible;opacity:0.1;fill:black;fill-opacity:1;fill-rule:nonzero;stroke:none;stroke-width:1" />
    <path
       id="path41"
       visibility="visible"
       d="m 29,23.96875 c -2.216527,0 -4.03125,1.814723 -4.03125,4.03125 l 0,5 A 1.0333146,1.0333146 0 0 0 26,34.03125 l 1.6875,0 C 25.068082,34.200847 22.96875,36.339276 22.96875,39 l 0,18 a 1.0333146,1.0333146 0 0 0 0.71875,1 1.0333146,1.0333146 0 0 0 -0.71875,1 l 0,8 A 1.0333146,1.0333146 0 0 0 24,68.03125 l 6.96875,0 0,6.96875 A 1.0333146,1.0333146 0 0 0 32,76.03125 l 8,0 A 1.0333146,1.0333146 0 0 0 41.03125,75 l 0,-6.96875 6.96875,0 a 1.0333146,1.0333146 0 0 0 1,-0.71875 1.0333146,1.0333146 0 0 0 1,0.71875 l 18,0 c 2.770527,0 5.03125,-2.260723 5.03125,-5.03125 l 0,-24 c 0,-2.651288 -2.079982,-4.798449 -4.71875,-4.96875 l 1.6875,0 A 1.0333146,1.0333146 0 0 0 71.03125,33 c 0,-2.770527 -2.260723,-5.03125 -5.03125,-5.03125 l -21.96875,0 c -0.01735,-2.202012 -1.825379,-4 -4.03125,-4 l -11,0 z m 2.03125,26.0625 0.59375,0 A 1.0333146,1.0333146 0 0 0 31.03125,50.625 l 0,-0.59375 z m 9.34375,0 0.59375,0 0,0.59375 A 1.0333146,1.0333146 0 0 0 40.375,50.03125 Z m -9.40625,7.34375 0,0.59375 -0.59375,0 A 1.0333146,1.0333146 0 0 0 30.96875,57.375 Z m 10.0625,0 a 1.0333146,1.0333146 0 0 0 0.59375,0.59375 l -0.59375,0 0,-0.59375 z m 7.34375,0.65625 0.59375,0 0,0.59375 A 1.0333146,1.0333146 0 0 0 48.375,58.03125 Z"
       inkscape:connector-curvature="0"
       style="color:black;visibility:visible;opacity:0.15;fill:black;fill-opacity:1;fill-rule:nonzero;stroke:none;stroke-width:1" />
    <path
       id="path43"
       inkscape:connector-curvature="0"
       visibility="visible"
       d="m 29,25 c -1.662,0 -3,1.338 -3,3 l 0,5 44,0 c 0,-2.216 -1.784,-4 -4,-4 l -23,0 0,-1 c 0,-1.662 -1.338,-3 -3,-3 z m -1,10 c -2.216,0 -4,1.784 -4,4 l 0,18 6,0 0,-8 12,0 0,8 8,0 0,10 18,0 c 2.216,0 4,-1.784 4,-4 l 0,-24 c 0,-2.216 -1.75239,-4 -4,-4 l -5,0 -22,0 z m 4,16 0,8 -8,0 0,8 8,0 0,8 8,0 0,-8 8,0 0,-8 -8,0 0,-8 z"
       style="color:black;visibility:visible;opacity:0.3;fill:black;fill-opacity:1;fill-rule:nonzero;stroke:none;stroke-width:1" />
    <path
       id="path65"
       inkscape:connector-curvature="0"
       visibility="visible"
       d="m 29,24 c -1.662,0 -3,1.338 -3,3 l 0,5 44,0 c 0,-2.216 -1.784,-4 -4,-4 l -23,0 0,-1 c 0,-1.662 -1.338,-3 -3,-3 z m -1,10 c -2.216,0 -4,1.784 -4,4 l 0,18 6,0 0,-8 12,0 0,8 8,0 0,10 18,0 c 2.216,0 4,-1.784 4,-4 l 0,-24 c 0,-2.216 -1.75239,-4 -4,-4 l -5,0 -22,0 z m 4,16 0,8 -8,0 0,8 8,0 0,8 8,0 0,-8 8,0 0,-8 -8,0 0,-8 z"
       style="color:black;visibility:visible;fill:url(#linearGradient3308);fill-opacity:1;fill-rule:nonzero;stroke:none;stroke-width:1" />
    <path
       id="path67"
       inkscape:connector-curvature="0"
       visibility="visible"
       d="m 29,24 c -1.662,0 -3,1.338 -3,3 l 0,1 c 0,-1.662 1.338,-3 3,-3 l 11,0 c 1.662,0 3,1.338 3,3 l 0,-1 c 0,-1.662 -1.338,-3 -3,-3 l -11,0 z m 14,4 0,1 23,0 c 1.868974,0 3.400465,1.273103 3.84375,3 L 70,32 c 0,-2.216 -1.784,-4 -4,-4 l -23,0 z m -15,6 c -2.216,0 -4,1.784 -4,4 l 0,1 c 0,-2.216 1.784,-4 4,-4 l 13,0 22,0 5,0 c 2.24761,0 4,1.784 4,4 l 0,-1 c 0,-2.216 -1.75239,-4 -4,-4 l -5,0 -22,0 -13,0 z m 4,16 0,1 8,0 0,-1 -8,0 z m -8,8 0,1 8,0 0,-1 -8,0 z m 16,0 0,1 8,0 0,-1 -8,0 z"
       style="color:black;visibility:visible;opacity:0.75;fill:white;fill-opacity:1;fill-rule:nonzero;stroke:none;stroke-width:1" />
    <path
       id="path69"
       inkscape:connector-curvature="0"
       visibility="visible"
       d="m 26,31 0,1 44,0 c 0,-0.347026 -0.07394,-0.679355 -0.15625,-1 L 26,31 Z m 4,16 0,1 12,0 0,-1 -12,0 z m -6,8 0,1 6,0 0,-1 -6,0 z m 18,0 0,1 8,0 0,-1 -8,0 z m 30,6 c 0,2.216 -1.784,4 -4,4 l -18,0 0,1 18,0 c 2.216,0 4,-1.784 4,-4 l 0,-1 z m -48,4 0,1 8,0 0,-1 -8,0 z m 16,0 0,1 8,0 0,-1 -8,0 z m -8,8 0,1 8,0 0,-1 -8,0 z"
       style="color:black;visibility:visible;opacity:0.15;fill:black;fill-opacity:1;fill-rule:nonzero;stroke:none;stroke-width:1" />
  </g>
</svg>
