<?xml version="1.0" encoding="UTF-8" standalone="no"?>
<svg
   xmlns:dc="http://purl.org/dc/elements/1.1/"
   xmlns:cc="http://creativecommons.org/ns#"
   xmlns:rdf="http://www.w3.org/1999/02/22-rdf-syntax-ns#"
   xmlns:svg="http://www.w3.org/2000/svg"
   xmlns="http://www.w3.org/2000/svg"
   xmlns:xlink="http://www.w3.org/1999/xlink"
   xmlns:sodipodi="http://sodipodi.sourceforge.net/DTD/sodipodi-0.dtd"
   xmlns:inkscape="http://www.inkscape.org/namespaces/inkscape"
   display="inline"
   height="96"
   width="96"
   id="svg2"
   version="1.1"
   inkscape:version="0.91 r13725"
   sodipodi:docname="folder-new.svg">
  <metadata
     id="metadata73">
    <rdf:RDF>
      <cc:Work
         rdf:about="">
        <dc:format>image/svg+xml</dc:format>
        <dc:type
           rdf:resource="http://purl.org/dc/dcmitype/StillImage" />
      </cc:Work>
    </rdf:RDF>
  </metadata>
  <sodipodi:namedview
     pagecolor="#ffffff"
     bordercolor="#666666"
     borderopacity="1"
     objecttolerance="10"
     gridtolerance="10"
     guidetolerance="10"
     inkscape:pageopacity="0"
     inkscape:pageshadow="2"
     inkscape:window-width="760"
     inkscape:window-height="480"
     id="namedview71"
     showgrid="false"
     inkscape:zoom="9.8333333"
     inkscape:cx="46.497747"
     inkscape:cy="17.813031"
     inkscape:window-x="36"
     inkscape:window-y="60"
     inkscape:window-maximized="0"
     inkscape:current-layer="svg2" />
  <defs
     id="defs4">
    <linearGradient
       id="linearGradient4081">
      <stop
         stop-color="#4d4d4d"
         stop-opacity="1"
         id="stop7" />
      <stop
         stop-color="#1a1a1a"
         stop-opacity="1"
         offset="1"
         id="stop9" />
    </linearGradient>
    <linearGradient
       x1="29.827"
       x2="65.69"
       xlink:href="#linearGradient4081"
       gradientUnits="userSpaceOnUse"
       id="linearGradient3034"
       gradientTransform="matrix(0 -1 -1 0 96 16)" />
    <linearGradient
       x2="0"
       y1="92.54"
       y2="7.02"
       gradientUnits="userSpaceOnUse"
       id="ButtonShadow-0"
       gradientTransform="matrix(1.0059 0 0 0.99417 100 0)">
      <stop
         stop-color="#000000"
         stop-opacity="1"
         id="stop13" />
      <stop
         stop-color="#000000"
         stop-opacity="0.588"
         offset="1"
         id="stop15" />
    </linearGradient>
    <linearGradient
       x2="0"
       xlink:href="#ButtonShadow-0"
       y1="6.132"
       y2="90.24"
       gradientUnits="userSpaceOnUse"
       id="linearGradient3780"
       gradientTransform="matrix(1.02381 0 0 -1.0119 -1.143 98.07)" />
    <linearGradient
       x2="0"
       xlink:href="#ButtonShadow-0"
       y1="6.132"
       y2="90.24"
       gradientUnits="userSpaceOnUse"
       id="linearGradient3721-4"
       gradientTransform="matrix(1 0 0 -1 0 97)" />
    <radialGradient
       cy="90.17"
       r="42"
       gradientUnits="userSpaceOnUse"
       id="radialGradient3619-8"
       cx="48"
       gradientTransform="matrix(1.15731 0 0 0.99591 -7.551 0.197)">
      <stop
         stop-color="#ffffff"
         stop-opacity="1"
         id="stop20" />
      <stop
         stop-color="#ffffff"
         stop-opacity="0"
         offset="1"
         id="stop22" />
    </radialGradient>
    <linearGradient
       x2="0"
       xlink:href="#linearGradient4081"
       y1="74"
       y2="23.99"
       gradientUnits="userSpaceOnUse"
       id="linearGradient3308"
       gradientTransform="matrix(1.4695752,0,0,1.4695752,-22.539544,-25.47876)" />
  </defs>
  <path
     style="color:#000000;visibility:visible;fill:url(#linearGradient3308);fill-opacity:1;fill-rule:nonzero;stroke:none;stroke-width:1"
     d="m 20.078137,9.7910448 c -2.442434,0 -4.408726,1.9662912 -4.408726,4.4087252 l 0,7.347876 64.661309,0 c 0,-3.256578 -2.621722,-5.8783 -5.878301,-5.8783 l -33.800229,0 0,-1.469576 c 0,-2.442434 -1.966292,-4.4087252 -4.408726,-4.4087252 z M 18.608562,24.486797 c -3.256579,0 -5.878301,2.621722 -5.878301,5.878301 l 0,26.452353 8.817451,0 0,-11.756601 17.634902,0 0,11.756601 11.756602,0 0,14.695752 26.452354,0 c 3.256578,0 5.8783,-2.621722 5.8783,-5.878301 l 0,-35.269804 c 0,-3.256579 -2.575268,-5.878301 -5.8783,-5.878301 l -7.347876,0 -32.330655,0 z M 24.486862,48 l 0,11.756602 -11.756601,0 0,11.756601 11.756601,0 0,11.756602 11.756602,0 0,-11.756602 11.756602,0 0,-11.756601 -11.756602,0 0,-11.756602 z"
     visibility="visible"
     inkscape:connector-curvature="0"
     id="path65" />
  <path
     style="color:#000000;visibility:visible;opacity:0.75;fill:#ffffff;fill-opacity:1;fill-rule:nonzero;stroke:none;stroke-width:1"
     d="m 20.078137,9.7910448 c -2.442434,0 -4.408726,1.9662912 -4.408726,4.4087252 l 0,1.469576 c 0,-2.442434 1.966292,-4.408726 4.408726,-4.408726 l 16.165327,0 c 2.442434,0 4.408726,1.966292 4.408726,4.408726 l 0,-1.469576 c 0,-2.442434 -1.966292,-4.4087252 -4.408726,-4.4087252 l -16.165327,0 z m 20.574053,5.8783012 0,1.469575 33.800229,0 c 2.746598,0 4.997239,1.87092 5.64868,4.408725 l 0.229621,0 c 0,-3.256578 -2.621722,-5.8783 -5.878301,-5.8783 l -33.800229,0 z m -22.043628,8.817451 c -3.256579,0 -5.878301,2.621722 -5.878301,5.878301 l 0,1.469575 c 0,-3.256579 2.621722,-5.878301 5.878301,-5.878301 l 19.104477,0 32.330655,0 7.347876,0 c 3.303032,0 5.8783,2.621722 5.8783,5.878301 l 0,-1.469575 c 0,-3.256579 -2.575268,-5.878301 -5.8783,-5.878301 l -7.347876,0 -32.330655,0 -19.104477,0 z M 24.486862,48 l 0,1.469575 11.756602,0 0,-1.469575 -11.756602,0 z m -11.756601,11.756602 0,1.469575 11.756601,0 0,-1.469575 -11.756601,0 z m 23.513203,0 0,1.469575 11.756602,0 0,-1.469575 -11.756602,0 z"
     visibility="visible"
     inkscape:connector-curvature="0"
     id="path67" />
  <path
     style="color:#000000;visibility:visible;opacity:0.15;fill:#000000;fill-opacity:1;fill-rule:nonzero;stroke:none;stroke-width:1"
     d="m 15.669411,20.078071 0,1.469575 64.661309,0 c 0,-0.50998 -0.10866,-0.998363 -0.229621,-1.469575 l -64.431688,0 z m 5.878301,23.513203 0,1.469576 17.634902,0 0,-1.469576 -17.634902,0 z m -8.817451,11.756602 0,1.469575 8.817451,0 0,-1.469575 -8.817451,0 z m 26.452353,0 0,1.469575 11.756602,0 0,-1.469575 -11.756602,0 z m 44.087256,8.817451 c 0,3.256579 -2.621722,5.878301 -5.8783,5.878301 l -26.452354,0 0,1.469575 26.452354,0 c 3.256578,0 5.8783,-2.621722 5.8783,-5.878301 l 0,-1.469575 z m -70.539609,5.878301 0,1.469575 11.756601,0 0,-1.469575 -11.756601,0 z m 23.513203,0 0,1.469575 11.756602,0 0,-1.469575 -11.756602,0 z m -11.756602,11.756602 0,1.469575 11.756602,0 0,-1.469575 -11.756602,0 z"
     visibility="visible"
     inkscape:connector-curvature="0"
     id="path69" />
</svg>
