<?xml version="1.0" encoding="UTF-8" standalone="no"?>
<svg
   xmlns:dc="http://purl.org/dc/elements/1.1/"
   xmlns:cc="http://creativecommons.org/ns#"
   xmlns:rdf="http://www.w3.org/1999/02/22-rdf-syntax-ns#"
   xmlns:svg="http://www.w3.org/2000/svg"
   xmlns="http://www.w3.org/2000/svg"
   xmlns:xlink="http://www.w3.org/1999/xlink"
   xmlns:sodipodi="http://sodipodi.sourceforge.net/DTD/sodipodi-0.dtd"
   xmlns:inkscape="http://www.inkscape.org/namespaces/inkscape"
   display="inline"
   height="96"
   width="96"
   id="svg2"
   version="1.1"
   inkscape:version="0.91 r13725"
   sodipodi:docname="format-justify-center.svg">
  <metadata
     id="metadata51">
    <rdf:RDF>
      <cc:Work
         rdf:about="">
        <dc:format>image/svg+xml</dc:format>
        <dc:type
           rdf:resource="http://purl.org/dc/dcmitype/StillImage" />
      </cc:Work>
    </rdf:RDF>
  </metadata>
  <sodipodi:namedview
     pagecolor="#ffffff"
     bordercolor="#666666"
     borderopacity="1"
     objecttolerance="10"
     gridtolerance="10"
     guidetolerance="10"
     inkscape:pageopacity="0"
     inkscape:pageshadow="2"
     inkscape:window-width="760"
     inkscape:window-height="480"
     id="namedview49"
     showgrid="false"
     inkscape:zoom="6.9532167"
     inkscape:cx="40.414154"
     inkscape:cy="-2.2955321"
     inkscape:window-x="406"
     inkscape:window-y="168"
     inkscape:window-maximized="0"
     inkscape:current-layer="svg2" />
  <defs
     id="defs4">
    <radialGradient
       cy="90.17"
       r="42"
       gradientUnits="userSpaceOnUse"
       id="radialGradient3619-2"
       cx="48"
       gradientTransform="matrix(1.15731 0 0 0.99591 -7.551 0.197)">
      <stop
         stop-color="#ffffff"
         stop-opacity="1"
         id="stop7" />
      <stop
         stop-color="#ffffff"
         stop-opacity="0"
         offset="1"
         id="stop9" />
    </radialGradient>
    <linearGradient
       x2="0"
       y1="92.54"
       y2="7.02"
       gradientUnits="userSpaceOnUse"
       id="ButtonShadow-0"
       gradientTransform="matrix(1.0059 0 0 0.99417 100 0)">
      <stop
         stop-color="#000000"
         stop-opacity="1"
         id="stop12" />
      <stop
         stop-color="#000000"
         stop-opacity="0.588"
         offset="1"
         id="stop14" />
    </linearGradient>
    <linearGradient
       x2="0"
       xlink:href="#ButtonShadow-0"
       y1="6.132"
       y2="90.24"
       gradientUnits="userSpaceOnUse"
       id="linearGradient3780"
       gradientTransform="matrix(1.02381 0 0 -1.0119 -1.143 98.07)" />
    <linearGradient
       x2="0"
       xlink:href="#ButtonShadow-0"
       y1="6.132"
       y2="90.24"
       gradientUnits="userSpaceOnUse"
       id="linearGradient3721-9"
       gradientTransform="matrix(1 0 0 -1 0 97)" />
    <linearGradient
       x2="0"
       y1="72.09"
       y2="23.729"
       gradientUnits="userSpaceOnUse"
       id="linearGradient4013"
       gradientTransform="matrix(-1.8340769,0,0,1.5328683,137.94036,-27.125509)">
      <stop
         stop-color="#4d4d4d"
         stop-opacity="1"
         id="stop19" />
      <stop
         stop-color="#1a1a1a"
         stop-opacity="1"
         offset="1"
         id="stop21" />
    </linearGradient>
  </defs>
  <path
     style="fill:url(#linearGradient4013);fill-opacity:1;stroke:none"
     d="m 20.40002,9.6633302 0,9.1972098 55.183259,0 0,-9.1972098 -55.183259,0 z m -9.19721,15.3286828 0,9.19721 73.577679,0 0,-9.19721 -73.577679,0 z m 15.328683,15.328683 0,9.19721 42.920313,0 0,-9.19721 -42.920313,0 z m 9.19721,16.861552 0,7.664341 -21.460156,0 0,9.19721 21.460156,0 0,9.19721 L 47.991649,69.445194 35.728703,57.182248 Z m 12.262946,12.262946 12.262947,13.795815 0,-9.19721 21.460156,0 0,-9.19721 -21.460156,0 0,-7.664341 -12.262947,12.262946 z"
     inkscape:connector-curvature="0"
     id="path43" />
  <path
     style="opacity:0.75;fill:#ffffff;fill-opacity:1;stroke:none"
     d="m 20.40002,9.6633302 0,1.5328688 55.183259,0 0,-1.5328688 -55.183259,0 z m -9.19721,15.3286828 0,1.532869 73.577679,0 0,-1.532869 -73.577679,0 z m 15.328683,15.328683 0,1.532869 42.920313,0 0,-1.532869 -42.920313,0 z m 9.19721,16.861552 0,1.532868 11.544414,11.544414 0.718532,-0.814336 -12.262946,-12.262946 z m 12.262946,12.262946 0.718532,0.814336 11.544415,-11.544414 0,-1.532868 -12.262947,12.262946 z m -33.723102,-4.598605 0,1.532868 21.460156,0 0,-1.532868 -21.460156,0 z m 45.986049,0 0,1.532868 21.460156,0 0,-1.532868 -21.460156,0 z"
     inkscape:connector-curvature="0"
     id="path45" />
  <path
     style="opacity:0.15;fill:#000000;fill-opacity:1;stroke:none"
     d="m 20.40002,17.327672 0,1.532868 55.183259,0 0,-1.532868 -55.183259,0 z m -9.19721,15.328683 0,1.532868 73.577679,0 0,-1.532868 -73.577679,0 z m 15.328683,15.328683 0,1.532868 42.920313,0 0,-1.532868 -42.920313,0 z m 20.741624,20.741624 -11.544414,12.981478 0,1.532869 12.262946,-13.795815 -0.718532,-0.718532 z m 0.718532,0.718532 12.262947,13.795815 0,-1.532869 -11.544415,-12.981478 -0.718532,0.718532 z m -33.723102,3.065737 0,1.532868 21.460156,0 0,-1.532868 -21.460156,0 z m 45.986049,0 0,1.532868 21.460156,0 0,-1.532868 -21.460156,0 z"
     inkscape:connector-curvature="0"
     id="path47" />
</svg>
