<?xml version="1.0" encoding="UTF-8" standalone="no"?>
<svg
   xmlns:dc="http://purl.org/dc/elements/1.1/"
   xmlns:cc="http://creativecommons.org/ns#"
   xmlns:rdf="http://www.w3.org/1999/02/22-rdf-syntax-ns#"
   xmlns:svg="http://www.w3.org/2000/svg"
   xmlns="http://www.w3.org/2000/svg"
   xmlns:xlink="http://www.w3.org/1999/xlink"
   xmlns:sodipodi="http://sodipodi.sourceforge.net/DTD/sodipodi-0.dtd"
   xmlns:inkscape="http://www.inkscape.org/namespaces/inkscape"
   display="inline"
   height="96"
   width="96"
   id="svg2"
   version="1.1"
   inkscape:version="0.91 r13725"
   sodipodi:docname="format-justify-fill.svg">
  <metadata
     id="metadata51">
    <rdf:RDF>
      <cc:Work
         rdf:about="">
        <dc:format>image/svg+xml</dc:format>
        <dc:type
           rdf:resource="http://purl.org/dc/dcmitype/StillImage" />
      </cc:Work>
    </rdf:RDF>
  </metadata>
  <sodipodi:namedview
     pagecolor="#ffffff"
     bordercolor="#666666"
     borderopacity="1"
     objecttolerance="10"
     gridtolerance="10"
     guidetolerance="10"
     inkscape:pageopacity="0"
     inkscape:pageshadow="2"
     inkscape:window-width="640"
     inkscape:window-height="480"
     id="namedview49"
     showgrid="false"
     inkscape:zoom="39.333333"
     inkscape:cx="30.873063"
     inkscape:cy="10.686079"
     inkscape:window-x="138"
     inkscape:window-y="112"
     inkscape:window-maximized="0"
     inkscape:current-layer="svg2" />
  <defs
     id="defs4">
    <linearGradient
       x2="0"
       y1="72.09"
       y2="23.729"
       gradientUnits="userSpaceOnUse"
       id="linearGradient3746"
       gradientTransform="matrix(1.9398239,0,0,1.5356914,-54.80993,-27.224904)">
      <stop
         stop-color="#4d4d4d"
         stop-opacity="1"
         id="stop7" />
      <stop
         stop-color="#1a1a1a"
         stop-opacity="1"
         offset="1"
         id="stop9" />
    </linearGradient>
    <radialGradient
       cy="90.17"
       r="42"
       gradientUnits="userSpaceOnUse"
       id="radialGradient3619-2"
       cx="48"
       gradientTransform="matrix(1.15731 0 0 0.99591 -7.551 0.197)">
      <stop
         stop-color="#ffffff"
         stop-opacity="1"
         id="stop12" />
      <stop
         stop-color="#ffffff"
         stop-opacity="0"
         offset="1"
         id="stop14" />
    </radialGradient>
    <linearGradient
       x2="0"
       y1="92.54"
       y2="7.02"
       gradientUnits="userSpaceOnUse"
       id="ButtonShadow-0"
       gradientTransform="matrix(1.0059 0 0 0.99417 100 0)">
      <stop
         stop-color="#000000"
         stop-opacity="1"
         id="stop17" />
      <stop
         stop-color="#000000"
         stop-opacity="0.588"
         offset="1"
         id="stop19" />
    </linearGradient>
    <linearGradient
       x2="0"
       xlink:href="#ButtonShadow-0"
       y1="6.132"
       y2="90.24"
       gradientUnits="userSpaceOnUse"
       id="linearGradient3780"
       gradientTransform="matrix(1.02381 0 0 -1.0119 -1.143 98.07)" />
    <linearGradient
       x2="0"
       xlink:href="#ButtonShadow-0"
       y1="6.132"
       y2="90.24"
       gradientUnits="userSpaceOnUse"
       id="linearGradient3721-9"
       gradientTransform="matrix(1 0 0 -1 0 97)" />
  </defs>
  <path
     style="fill:url(#linearGradient3746);fill-opacity:1;stroke:none"
     d="m 11.143409,9.6316896 0,9.2141484 73.713187,0 0,-9.2141484 -73.713187,0 z m 0,15.3569144 0,9.214148 73.713187,0 0,-9.214148 -73.713187,0 z m 0,15.356914 0,9.214148 73.713187,0 0,-9.214148 -73.713187,0 z m 18.428296,16.892605 -12.285531,12.285531 12.285531,13.821223 0,-9.214149 36.856594,0 0,9.214149 12.285531,-13.821223 -12.285531,-12.285531 0,7.678457 -36.856594,0 0,-7.678457 z"
     inkscape:connector-curvature="0"
     id="path43" />
  <path
     style="opacity:0.75;fill:#ffffff;fill-opacity:1;stroke:none"
     d="m 11.143409,9.6316896 0,1.5356914 73.713187,0 0,-1.5356914 -73.713187,0 z m 0,15.3569144 0,1.535691 73.713187,0 0,-1.535691 -73.713187,0 z m 0,15.356914 0,1.535691 73.713187,0 0,-1.535691 -73.713187,0 z m 18.428296,16.892605 -12.285531,12.285531 0.719856,0.815836 11.565675,-11.565676 0,-1.535691 z m 36.856594,0 0,1.535691 L 77.993975,70.33949 78.71383,69.523654 66.428299,57.238123 Z m -36.856594,7.678457 0,1.535691 36.856594,0 0,-1.535691 -36.856594,0 z"
     inkscape:connector-curvature="0"
     id="path45" />
  <path
     style="opacity:0.15;fill:#000000;fill-opacity:1;stroke:none"
     d="m 11.143409,17.310147 0,1.535691 73.713187,0 0,-1.535691 -73.713187,0 z m 0,15.356914 0,1.535691 73.713187,0 0,-1.535691 -73.713187,0 z m 0,15.356914 0,1.535691 73.713187,0 0,-1.535691 -73.713187,0 z m 6.862621,20.779824 -0.719856,0.719855 12.285531,13.821223 0,-1.535692 L 18.00603,68.803799 Z m 59.987945,0 -11.565676,13.005386 0,1.535692 12.285531,-13.821223 -0.719855,-0.719855 z m -48.42227,3.791238 0,1.535691 36.856594,0 0,-1.535691 -36.856594,0 z"
     inkscape:connector-curvature="0"
     id="path47" />
</svg>
