<?xml version="1.0" encoding="UTF-8" standalone="no"?>
<svg
   xmlns:dc="http://purl.org/dc/elements/1.1/"
   xmlns:cc="http://creativecommons.org/ns#"
   xmlns:rdf="http://www.w3.org/1999/02/22-rdf-syntax-ns#"
   xmlns:svg="http://www.w3.org/2000/svg"
   xmlns="http://www.w3.org/2000/svg"
   xmlns:xlink="http://www.w3.org/1999/xlink"
   xmlns:sodipodi="http://sodipodi.sourceforge.net/DTD/sodipodi-0.dtd"
   xmlns:inkscape="http://www.inkscape.org/namespaces/inkscape"
   height="96"
   width="96"
   id="svg2"
   version="1.1"
   inkscape:version="0.91 r13725"
   sodipodi:docname="format-text-italic.svg">
  <metadata
     id="metadata68">
    <rdf:RDF>
      <cc:Work
         rdf:about="">
        <dc:format>image/svg+xml</dc:format>
        <dc:type
           rdf:resource="http://purl.org/dc/dcmitype/StillImage" />
      </cc:Work>
    </rdf:RDF>
  </metadata>
  <sodipodi:namedview
     pagecolor="#ffffff"
     bordercolor="#666666"
     borderopacity="1"
     objecttolerance="10"
     gridtolerance="10"
     guidetolerance="10"
     inkscape:pageopacity="0"
     inkscape:pageshadow="2"
     inkscape:window-width="640"
     inkscape:window-height="480"
     id="namedview66"
     showgrid="false"
     inkscape:zoom="2.4583333"
     inkscape:cx="22.98305"
     inkscape:cy="47.999999"
     inkscape:window-x="75"
     inkscape:window-y="99"
     inkscape:window-maximized="0"
     inkscape:current-layer="svg2" />
  <defs
     id="defs4">
    <linearGradient
       x2="0"
       y1="92.54"
       y2="7.02"
       gradientUnits="userSpaceOnUse"
       id="ButtonShadow-0"
       gradientTransform="matrix(1.0059 0 0 0.99417 100 0)">
      <stop
         stop-color="#000000"
         stop-opacity="1"
         id="stop7" />
      <stop
         stop-color="#000000"
         stop-opacity="0.588"
         offset="1"
         id="stop9" />
    </linearGradient>
    <linearGradient
       x2="0"
       xlink:href="#ButtonShadow-0"
       y1="6.132"
       y2="90.24"
       gradientUnits="userSpaceOnUse"
       id="linearGradient3780"
       gradientTransform="matrix(1.02381 0 0 -1.0119 -1.143 98.07)" />
    <linearGradient
       x2="0"
       xlink:href="#ButtonShadow-0"
       y1="6.132"
       y2="90.24"
       gradientUnits="userSpaceOnUse"
       id="linearGradient3721"
       gradientTransform="matrix(1 0 0 -1 0 97)" />
    <radialGradient
       cy="90.17"
       r="42"
       gradientUnits="userSpaceOnUse"
       id="radialGradient3619-3"
       cx="48"
       gradientTransform="matrix(1.15731 0 0 0.99591 -7.551 0.197)">
      <stop
         stop-color="#ffffff"
         stop-opacity="1"
         id="stop14" />
      <stop
         stop-color="#ffffff"
         stop-opacity="0"
         offset="1"
         id="stop16" />
    </radialGradient>
    <linearGradient
       x2="0"
       y1="5.886"
       y2="17.767"
       gradientUnits="userSpaceOnUse"
       id="linearGradient3047"
       gradientTransform="matrix(3,0,0,3,15.16,12)">
      <stop
         stop-color="#1a1a1a"
         stop-opacity="1"
         id="stop19" />
      <stop
         stop-color="#4d4d4d"
         stop-opacity="1"
         offset="1"
         id="stop21" />
    </linearGradient>
    <rect
       x="6"
       rx="6"
       y="6"
       fill="#000000"
       fill-opacity="1"
       stroke="none"
       fill-rule="nonzero"
       height="84"
       id="SVGCleanerId_0"
       opacity="0.6"
       width="84" />
  </defs>
  <g
     id="g3427"
     transform="matrix(1.9999975,0,0,1.9999975,-47.983856,-49.999928)">
    <path
       d="m 51.625,29 c -1.997402,4e-5 -4.033512,0.227445 -6.15625,0.65625 -2.085393,0.404343 -4.312802,1.018327 -6.625,1.84375 -0.01013,0.0036 -0.02112,-0.0036 -0.03125,0 -0.03252,0.01275 -0.09306,0.03095 -0.09375,0.03125 -9.08e-4,3.9e-4 -0.124119,0.06205 -0.125,0.0625 -8.81e-4,4.47e-4 -0.124149,0.062 -0.125,0.0625 -8.51e-4,5.02e-4 -0.09293,0.06194 -0.09375,0.0625 -8.17e-4,5.56e-4 -0.09297,0.06189 -0.09375,0.0625 -7.8e-4,6.07e-4 -0.09301,0.0931 -0.09375,0.09375 -7.4e-4,6.55e-4 -0.09305,0.09305 -0.09375,0.09375 -6.97e-4,7.01e-4 -0.0931,0.09301 -0.09375,0.09375 -6.51e-4,7.44e-4 -0.09315,0.09297 -0.09375,0.09375 -6.02e-4,7.84e-4 -0.06195,0.09293 -0.0625,0.09375 -5.51e-4,8.21e-4 -0.062,0.124146 -0.0625,0.125 -4.98e-4,8.54e-4 -0.06206,0.09287 -0.0625,0.09375 -4.42e-4,8.84e-4 -0.06211,0.12409 -0.0625,0.125 -3.85e-4,9.1e-4 -0.03092,0.124067 -0.03125,0.125 -3.26e-4,9.33e-4 -0.06223,0.124048 -0.0625,0.125 -2.66e-4,9.52e-4 -0.03104,0.124033 -0.03125,0.125 l -1.0625,5.21875 c -2.12e-4,0.0011 1.39e-4,0.123937 0,0.125 -1.39e-4,0.0011 -0.03119,0.15518 -0.03125,0.15625 -6.5e-5,0.0011 -9e-6,0.123928 0,0.125 9e-6,0.0011 -8.3e-5,0.123931 0,0.125 8.3e-5,0.0011 0.03109,0.155189 0.03125,0.15625 1.56e-4,0.0011 0.03102,0.123953 0.03125,0.125 2.29e-4,10e-4 0.03095,0.123971 0.03125,0.125 3.01e-4,10e-4 0.03088,0.155244 0.03125,0.15625 3.71e-4,10e-4 0.06206,0.124022 0.0625,0.125 4.4e-4,9.78e-4 0.06199,0.124055 0.0625,0.125 5.06e-4,9.45e-4 0.06193,0.09284 0.0625,0.09375 5.7e-4,9.08e-4 0.06187,0.124134 0.0625,0.125 6.32e-4,8.66e-4 0.09306,0.12418 0.09375,0.125 6.9e-4,8.2e-4 0.093,0.09298 0.09375,0.09375 7.45e-4,7.71e-4 0.09295,0.09303 0.09375,0.09375 7.97e-4,7.18e-4 0.124156,0.09309 0.125,0.09375 8.44e-4,6.61e-4 0.09286,0.0619 0.09375,0.0625 8.88e-4,6.01e-4 0.124073,0.09321 0.125,0.09375 9.27e-4,5.38e-4 0.124038,0.06203 0.125,0.0625 9.62e-4,4.73e-4 0.124007,0.06209 0.125,0.0625 9.93e-4,4.05e-4 0.123982,0.03091 0.125,0.03125 10e-4,3.36e-4 0.123961,0.03099 0.125,0.03125 10e-4,2.64e-4 0.155195,0.03106 0.15625,0.03125 0.0011,1.92e-4 0.123934,0.03113 0.125,0.03125 0.0011,1.19e-4 0.123929,-4.5e-5 0.125,0 0.0011,4.5e-5 0.155178,2.9e-5 0.15625,0 0.0011,-2.9e-5 0.123933,1.03e-4 0.125,0 0.0011,-1.03e-4 0.155193,-0.03107 0.15625,-0.03125 0.0011,-1.77e-4 0.123957,2.49e-4 0.125,0 10e-4,-2.49e-4 0.123977,-0.06218 0.125,-0.0625 10e-4,-3.21e-4 0.124002,-0.03086 0.125,-0.03125 9.98e-4,-3.91e-4 0.124031,-0.06204 0.125,-0.0625 a 0.97450643,0.97450643 0 0 0 0.03125,0 c 1.766874,-0.873916 3.584026,-1.535123 5.375,-1.96875 1.802733,-0.431886 3.593853,-0.624972 5.40625,-0.625 2.78374,2.8e-5 4.421565,0.62744 5.3125,1.53125 0.715517,0.705325 0.951654,1.714659 0.84375,3.15625 l -6.0625,0 c -5.378338,2.3e-5 -9.834574,1.035504 -13.25,3.28125 -3.395951,2.248366 -5.637877,5.712051 -6.5,10 -0.732297,3.707235 -0.148415,7.089314 1.96875,9.59375 C 34.532119,67.832585 37.828494,69 41.71875,69 c 3.010315,0 5.76357,-0.537522 8.1875,-1.65625 0.45241,-0.213157 0.849008,-0.553486 1.28125,-0.8125 -0.0025,0.0094 4.8e-5,0.03105 0,0.03125 -2.06e-4,8.73e-4 -0.0311,0.09287 -0.03125,0.09375 -1.55e-4,8.84e-4 1.04e-4,0.124109 0,0.125 -1.04e-4,8.91e-4 5.2e-5,0.124104 0,0.125 C 51.156198,66.907146 51.125,66.9991 51.125,67 c 0,8.97e-4 0.0312,0.124104 0.03125,0.125 5.1e-5,8.96e-4 -1.03e-4,0.124109 0,0.125 1.03e-4,8.91e-4 -1.54e-4,0.09287 0,0.09375 1.54e-4,8.84e-4 0.03104,0.124127 0.03125,0.125 2.05e-4,8.73e-4 0.03099,0.12414 0.03125,0.125 2.55e-4,8.6e-4 0.03095,0.09291 0.03125,0.09375 3.05e-4,8.44e-4 0.06215,0.09292 0.0625,0.09375 3.53e-4,8.25e-4 0.03085,0.124197 0.03125,0.125 4e-4,8.03e-4 0.06205,0.09297 0.0625,0.09375 4.46e-4,7.78e-4 0.06201,0.093 0.0625,0.09375 4.9e-4,7.51e-4 0.06197,0.09303 0.0625,0.09375 5.33e-4,7.22e-4 0.06193,0.09306 0.0625,0.09375 5.74e-4,6.9e-4 0.09314,0.0931 0.09375,0.09375 6.12e-4,6.55e-4 0.06185,0.09313 0.0625,0.09375 6.49e-4,6.19e-4 0.09307,0.06192 0.09375,0.0625 6.84e-4,5.8e-4 0.09303,0.06196 0.09375,0.0625 7.16e-4,5.4e-4 0.093,0.062 0.09375,0.0625 7.46e-4,4.98e-4 0.09298,0.06205 0.09375,0.0625 7.74e-4,4.54e-4 0.09295,0.06209 0.09375,0.0625 7.99e-4,4.08e-4 0.124179,0.06214 0.125,0.0625 8.21e-4,3.61e-4 0.09291,0.03094 0.09375,0.03125 8.41e-4,3.13e-4 0.124143,0.03099 0.125,0.03125 8.57e-4,2.64e-4 0.09288,0.03104 0.09375,0.03125 8.71e-4,2.14e-4 0.124118,0.03109 0.125,0.03125 8.82e-4,1.63e-4 0.09286,0.03114 0.09375,0.03125 8.9e-4,1.12e-4 0.124105,-6e-5 0.125,0 8.95e-4,6e-5 0.124103,-8e-6 0.125,0 l 5.625,0 c 0.0013,10e-7 0.154931,1.12e-4 0.15625,0 0.0013,-1.12e-4 0.186195,-0.03103 0.1875,-0.03125 0.0013,-2.24e-4 0.154969,-0.03091 0.15625,-0.03125 0.0013,-3.35e-4 0.155002,-0.03081 0.15625,-0.03125 0.0012,-4.43e-4 0.155045,-0.0932 0.15625,-0.09375 0.0012,-5.47e-4 0.155096,-0.06185 0.15625,-0.0625 0.0012,-6.48e-4 0.155155,-0.09301 0.15625,-0.09375 0.0011,-7.44e-4 0.123973,-0.09292 0.125,-0.09375 10e-4,-8.35e-4 0.124048,-0.124081 0.125,-0.125 9.52e-4,-9.19e-4 0.124129,-0.124003 0.125,-0.125 8.71e-4,-9.97e-4 0.124218,-0.123932 0.125,-0.125 7.82e-4,-0.0011 0.09306,-0.123869 0.09375,-0.125 6.89e-4,-0.0011 0.06191,-0.155065 0.0625,-0.15625 5.9e-4,-0.0012 0.06201,-0.155019 0.0625,-0.15625 4.86e-4,-0.0012 0.06212,-0.154982 0.0625,-0.15625 3.04e-4,-0.001 0.02055,-0.11395 0.03125,-0.15625 0.0027,-0.01058 0.0312,-0.03099 0.03125,-0.03125 l -0.03125,0 L 65.25,47 a 0.97450643,0.97450643 0 0 0 0.03125,-0.0625 0.97450643,0.97450643 0 0 0 0,-0.125 C 66.349143,41.352088 65.976766,36.827178 63.5625,33.625 61.129341,30.397964 56.928759,29.000038 51.625,29 Z m 0,21.875 2.96875,0 c -0.735083,2.737039 -1.899429,4.945218 -3.65625,6.625 -2.004233,1.883458 -4.112325,2.781256 -6.75,2.78125 -1.932122,6e-6 -2.956962,-0.442501 -3.5625,-1.09375 -0.637724,-0.697876 -0.829993,-1.414323 -0.5,-3.03125 a 0.97450643,0.97450643 0 0 0 0,-0.03125 c 0.409271,-2.097554 1.167111,-3.13174 2.625,-3.90625 1.393616,-0.73272 4.481492,-1.343735 8.875,-1.34375 z"
       id="path42"
       inkscape:connector-curvature="0"
       style="opacity:0.1;fill:black;fill-opacity:1;stroke:none" />
    <path
       d="m 51.625,29.96875 c -1.917084,3.8e-5 -3.89385,0.237109 -5.96875,0.65625 -2.050053,0.397491 -4.226516,0.96783 -6.5,1.78125 A 1.020933,1.020933 0 0 0 38.5,33.15625 L 37.4375,38.375 A 1.020933,1.020933 0 0 0 38.875,39.5 c 1.834693,-0.90746 3.73425,-1.581032 5.59375,-2.03125 1.879087,-0.450178 3.741548,-0.656221 5.625,-0.65625 2.927808,2.9e-5 4.853436,0.649368 6,1.8125 1.107413,1.091639 1.463343,2.61649 1.09375,4.8125 l -7,0 c -5.25244,2.2e-5 -9.514337,1.018001 -12.71875,3.125 -3.179291,2.104922 -5.243315,5.300612 -6.0625,9.375 -0.692789,3.507225 -0.147523,6.536633 1.75,8.78125 1.903287,2.22825 4.862611,3.3125 8.5625,3.3125 2.895434,0 5.50526,-0.512051 7.78125,-1.5625 1.16123,-0.547124 2.272499,-1.281676 3.3125,-2.125 l -0.65625,2.375 a 1.020933,1.020933 0 0 0 0.96875,1.3125 l 5.625,0 a 1.020933,1.020933 0 0 0 1,-0.8125 l 4.5625,-20.4375 a 1.020933,1.020933 0 0 0 0,-0.03125 c 1.07082,-5.375269 0.662646,-9.621361 -1.53125,-12.53125 -2.191399,-2.906396 -6.022498,-4.249963 -11.15625,-4.25 z m 0,19.9375 4.3125,0 a 1.020933,1.020933 0 0 0 0,0.03125 c -0.701767,3.508703 -2.149517,6.213117 -4.3125,8.28125 -2.158314,2.03655 -4.565719,3.031256 -7.4375,3.03125 -2.08905,6e-6 -3.442934,-0.504652 -4.28125,-1.40625 -0.842103,-0.921533 -1.115547,-2.083864 -0.75,-3.875 a 1.020933,1.020933 0 0 0 0,-0.03125 c 0.446591,-2.288822 1.433779,-3.695281 3.125,-4.59375 1.692589,-0.889911 4.870721,-1.437485 9.34375,-1.4375 z"
       id="path44"
       inkscape:connector-curvature="0"
       style="opacity:0.15;fill:black;fill-opacity:1;stroke:none" />
    <path
       d="m 51.614816,48.877551 c -4.551039,1.5e-5 -7.816343,0.520424 -9.795917,1.561223 -1.959197,1.040832 -3.183685,2.81634 -3.673469,5.32653 -0.408175,2.000007 -0.07144,3.591843 1.010204,4.775511 1.081619,1.163267 2.755086,1.744901 5.020407,1.744895 3.122429,6e-6 5.846915,-1.102035 8.173469,-3.306119 2.326502,-2.224482 3.857111,-5.173458 4.591835,-8.84694 l 0.27552,-1.2551 -5.60204,0 M 63.308701,46.551021 58.763515,67 l -5.632652,0 1.667636,-6.091838 c -1.693904,2.081633 -3.602066,3.622448 -5.724491,4.622447 -2.122467,0.979593 -4.571445,1.469388 -7.346937,1.469388 -3.510215,0 -6.102049,-0.979593 -7.775509,-2.938776 -1.673475,-1.979586 -2.183678,-4.622441 -1.530612,-7.92857 0.775504,-3.85713 2.642848,-6.765288 5.60204,-8.724488 2.979577,-1.959162 7.030593,-2.938755 12.153059,-2.938776 l 7.897958,0 0.12246,-0.551019 c 0.510153,-2.591814 0.05097,-4.591812 -1.37757,-6.000003 -1.408191,-1.428539 -3.653087,-2.142824 -6.734693,-2.142854 -1.959204,3e-5 -3.918387,0.23472 -5.87755,0.704082 -1.938791,0.469416 -3.857157,1.173497 -5.755102,2.112242 l 1.040816,-5.204081 c 2.224475,-0.795885 4.336718,-1.387719 6.336735,-1.775508 2.020386,-0.408129 3.948957,-0.61221 5.785713,-0.612246 4.959152,3.6e-5 8.408129,1.285749 10.346939,3.857142 1.938738,2.571458 2.387715,6.469412 1.346937,11.693879"
       inkscape:connector-curvature="0"
       id="path46"
       style="opacity:0.3;fill:black;fill-opacity:1;stroke:none" />
    <path
       d="m 51.614816,47.877551 c -4.551039,1.5e-5 -7.816343,0.520424 -9.795917,1.561223 -1.959197,1.040832 -3.183685,2.81634 -3.673469,5.32653 -0.408175,2.000007 -0.07144,3.591843 1.010204,4.775511 1.081619,1.163267 2.755086,1.744901 5.020407,1.744895 3.122429,6e-6 5.846915,-1.102035 8.173469,-3.306119 2.326502,-2.224482 3.857111,-5.173458 4.591835,-8.84694 l 0.27552,-1.2551 -5.60204,0 M 63.308701,45.551021 58.763515,66 l -5.632652,0 1.667636,-6.091838 c -1.693904,2.081633 -3.602066,3.622448 -5.724491,4.622447 -2.122467,0.979593 -4.571445,1.469388 -7.346937,1.469388 -3.510215,0 -6.102049,-0.979593 -7.775509,-2.938776 -1.673475,-1.979586 -2.183678,-4.622441 -1.530612,-7.92857 0.775504,-3.85713 2.642848,-6.765288 5.60204,-8.724488 2.979577,-1.959162 7.030593,-2.938755 12.153059,-2.938776 l 7.897958,0 0.12246,-0.551019 c 0.510153,-2.591814 0.05097,-4.591812 -1.37757,-6.000003 -1.408191,-1.428539 -3.653087,-2.142824 -6.734693,-2.142854 -1.959204,3e-5 -3.918387,0.23472 -5.87755,0.704082 -1.938791,0.469416 -3.857157,1.173497 -5.755102,2.112242 l 1.040816,-5.204081 c 2.224475,-0.795885 4.336718,-1.387719 6.336735,-1.775508 2.020386,-0.408129 3.948957,-0.61221 5.785713,-0.612246 4.959152,3.6e-5 8.408129,1.285749 10.346939,3.857142 1.938738,2.571458 2.387715,6.469412 1.346937,11.693879"
       inkscape:connector-curvature="0"
       id="path60"
       style="fill:url(#linearGradient3047);fill-opacity:1;stroke:none" />
    <path
       d="m 51.625,30 c -1.836756,3.6e-5 -3.760864,0.216871 -5.78125,0.625 -2.000017,0.387789 -4.119275,0.954115 -6.34375,1.75 l -1.0625,5.21875 C 38.50894,37.55841 38.58475,37.53467 38.65625,37.5 L 39.5,33.375 c 2.224475,-0.795885 4.343733,-1.362211 6.34375,-1.75 2.020386,-0.408129 3.944494,-0.624964 5.78125,-0.625 4.959152,3.6e-5 8.40494,1.272357 10.34375,3.84375 1.176507,1.560468 1.795721,3.618795 1.875,6.15625 0.06776,-2.999737 -0.549017,-5.397524 -1.875,-7.15625 C 60.02994,31.272357 56.584152,30.000036 51.625,30 Z m 6.75,11.4375 c -0.02426,0.472764 -0.08505,0.948249 -0.1875,1.46875 l -0.125,0.5625 -7.875,0 c -5.122466,2.1e-5 -9.176673,0.978338 -12.15625,2.9375 -2.959192,1.9592 -4.849496,4.86162 -5.625,8.71875 -0.213714,1.081921 -0.254187,2.091389 -0.21875,3.03125 0.03363,-0.643374 0.0798,-1.327825 0.21875,-2.03125 0.775504,-3.85713 2.665808,-6.75955 5.625,-8.71875 2.979577,-1.959162 7.033784,-2.937479 12.15625,-2.9375 l 7.875,0 0.125,-0.5625 c 0.177156,-0.900034 0.244129,-1.711449 0.1875,-2.46875 z M 57,48.875 l -0.0625,0.25 c -0.734724,3.673482 -2.267248,6.619268 -4.59375,8.84375 -2.326554,2.204084 -5.033821,3.312506 -8.15625,3.3125 -2.265321,6e-6 -3.949631,-0.586733 -5.03125,-1.75 C 38.480222,58.791457 38.094067,57.902424 38,56.84375 c -0.104677,1.500641 0.277414,2.72577 1.15625,3.6875 1.081619,1.163267 2.765929,1.750006 5.03125,1.75 3.122429,6e-6 5.829696,-1.108416 8.15625,-3.3125 2.326502,-2.224482 3.859026,-5.170268 4.59375,-8.84375 l 0.28125,-1.25 -0.21875,0 z m -2.1875,12.03125 c -0.128333,0.157707 -0.275458,0.286001 -0.40625,0.4375 L 53.125,66 l 0.28125,0 1.40625,-5.09375 z"
       inkscape:connector-curvature="0"
       id="path62"
       style="opacity:0.75;fill:white;fill-opacity:1;stroke:none" />
    <path
       d="m 50.09375,33.78125 c -1.959204,3e-5 -3.915837,0.218138 -5.875,0.6875 -1.865811,0.451746 -3.734518,1.144842 -5.5625,2.03125 l -0.21875,1.09375 c 1.897945,-0.938745 3.842459,-1.655584 5.78125,-2.125 1.959163,-0.469362 3.915796,-0.68747 5.875,-0.6875 3.081606,3e-5 5.310559,0.696461 6.71875,2.125 0.932465,0.919182 1.456056,2.107764 1.5625,3.53125 0.09656,-1.881347 -0.420846,-3.405859 -1.5625,-4.53125 -1.408191,-1.428539 -3.637144,-2.12497 -6.71875,-2.125 z M 63.84375,40 c -0.03131,1.38622 -0.202303,2.911262 -0.53125,4.5625 L 58.75,65 53.40625,65 53.125,66 58.75,66 63.3125,45.5625 C 63.72169,43.508458 63.895113,41.643956 63.84375,40 Z M 51.625,46.875 c -4.551039,1.5e-5 -7.832926,0.521701 -9.8125,1.5625 -1.959197,1.040832 -3.166466,2.80231 -3.65625,5.3125 -0.153066,0.750003 -0.21269,1.458545 -0.15625,2.09375 0.02416,-0.346302 0.07972,-0.718749 0.15625,-1.09375 0.489784,-2.51019 1.697053,-4.271668 3.65625,-5.3125 1.979574,-1.040799 5.261461,-1.562485 9.8125,-1.5625 l 5.375,0 0.21875,-1 -5.59375,0 z M 32.1875,57.15625 c -0.124432,2.380513 0.43258,4.347849 1.75,5.90625 1.67346,1.959183 4.271035,2.9375 7.78125,2.9375 2.775492,0 5.221283,-0.489157 7.34375,-1.46875 1.961627,-0.924238 3.748173,-2.339312 5.34375,-4.1875 l 0.40625,-1.4375 c -1.693904,2.081633 -3.627575,3.625001 -5.75,4.625 C 46.940033,64.510843 44.494242,65 41.71875,65 c -3.510215,0 -6.10779,-0.978317 -7.78125,-2.9375 -1.125835,-1.331772 -1.677149,-2.97409 -1.75,-4.90625 z"
       inkscape:connector-curvature="0"
       id="path64"
       style="opacity:0.15;fill:black;fill-opacity:1;stroke:none" />
  </g>
</svg>
