<?xml version="1.0" encoding="UTF-8" standalone="no"?>
<svg
   xmlns:dc="http://purl.org/dc/elements/1.1/"
   xmlns:cc="http://creativecommons.org/ns#"
   xmlns:rdf="http://www.w3.org/1999/02/22-rdf-syntax-ns#"
   xmlns:svg="http://www.w3.org/2000/svg"
   xmlns="http://www.w3.org/2000/svg"
   xmlns:xlink="http://www.w3.org/1999/xlink"
   xmlns:sodipodi="http://sodipodi.sourceforge.net/DTD/sodipodi-0.dtd"
   xmlns:inkscape="http://www.inkscape.org/namespaces/inkscape"
   height="96"
   width="96"
   id="svg2"
   version="1.1"
   inkscape:version="0.91 r13725"
   sodipodi:docname="format-indent-more.svg">
  <metadata
     id="metadata68">
    <rdf:RDF>
      <cc:Work
         rdf:about="">
        <dc:format>image/svg+xml</dc:format>
        <dc:type
           rdf:resource="http://purl.org/dc/dcmitype/StillImage" />
      </cc:Work>
    </rdf:RDF>
  </metadata>
  <sodipodi:namedview
     pagecolor="#ffffff"
     bordercolor="#666666"
     borderopacity="1"
     objecttolerance="10"
     gridtolerance="10"
     guidetolerance="10"
     inkscape:pageopacity="0"
     inkscape:pageshadow="2"
     inkscape:window-width="760"
     inkscape:window-height="480"
     id="namedview66"
     showgrid="false"
     inkscape:zoom="2.4583333"
     inkscape:cx="47.38983"
     inkscape:cy="47.999999"
     inkscape:window-x="66"
     inkscape:window-y="91"
     inkscape:window-maximized="0"
     inkscape:current-layer="svg2" />
  <defs
     id="defs4">
    <linearGradient
       x2="0"
       y1="92.54"
       y2="7.02"
       gradientUnits="userSpaceOnUse"
       id="ButtonShadow-0"
       gradientTransform="matrix(1.0059 0 0 0.99417 100 0)">
      <stop
         stop-color="#000000"
         stop-opacity="1"
         id="stop7" />
      <stop
         stop-color="#000000"
         stop-opacity="0.588"
         offset="1"
         id="stop9" />
    </linearGradient>
    <linearGradient
       x2="0"
       xlink:href="#ButtonShadow-0"
       y1="6.132"
       y2="90.24"
       gradientUnits="userSpaceOnUse"
       id="linearGradient3780"
       gradientTransform="matrix(1.02381 0 0 -1.0119 -1.143 98.07)" />
    <linearGradient
       x2="0"
       xlink:href="#ButtonShadow-0"
       y1="6.132"
       y2="90.24"
       gradientUnits="userSpaceOnUse"
       id="linearGradient3721"
       gradientTransform="matrix(1 0 0 -1 0 97)" />
    <radialGradient
       cy="90.17"
       r="42"
       gradientUnits="userSpaceOnUse"
       id="radialGradient3619-3"
       cx="48"
       gradientTransform="matrix(1.15731 0 0 0.99591 -7.551 0.197)">
      <stop
         stop-color="#ffffff"
         stop-opacity="1"
         id="stop14" />
      <stop
         stop-color="#ffffff"
         stop-opacity="0"
         offset="1"
         id="stop16" />
    </radialGradient>
    <linearGradient
       x2="0"
       y1="4"
       y2="18.04"
       gradientUnits="userSpaceOnUse"
       id="linearGradient3042"
       gradientTransform="matrix(-3,0,0,3,81,16)">
      <stop
         stop-color="#1a1a1a"
         stop-opacity="1"
         id="stop19" />
      <stop
         stop-color="#4d4d4d"
         stop-opacity="1"
         offset="1"
         id="stop21" />
    </linearGradient>
    <rect
       x="6"
       rx="6"
       y="6"
       fill="#000000"
       fill-opacity="1"
       stroke="none"
       fill-rule="nonzero"
       height="84"
       id="SVGCleanerId_0"
       opacity="0.6"
       width="84" />
  </defs>
  <g
     id="g3460"
     transform="matrix(1.5366106,0,0,1.5366106,-25.757267,-28.828216)">
    <path
       d="m 23.625,26.96875 c -8.32e-4,1.53e-4 -0.155435,0.06227 -0.15625,0.0625 -8.15e-4,2.25e-4 -0.186708,0.0622 -0.1875,0.0625 -7.92e-4,2.96e-4 -0.155487,0.06214 -0.15625,0.0625 -7.63e-4,3.64e-4 -0.155522,0.06207 -0.15625,0.0625 -7.28e-4,4.3e-4 -0.155562,0.124508 -0.15625,0.125 -6.88e-4,4.92e-4 -0.124358,0.0932 -0.125,0.09375 -6.42e-4,5.51e-4 -0.155659,0.124395 -0.15625,0.125 -5.91e-4,6.05e-4 -0.09321,0.124345 -0.09375,0.125 -5.36e-4,6.55e-4 -0.124524,0.155551 -0.125,0.15625 -4.76e-4,6.99e-4 -0.09334,0.155512 -0.09375,0.15625 -4.13e-4,7.38e-4 -0.06215,0.155478 -0.0625,0.15625 -3.46e-4,7.72e-4 -0.06222,0.155451 -0.0625,0.15625 -2.77e-4,7.99e-4 -0.06229,0.18668 -0.0625,0.1875 -2.06e-4,8.2e-4 -0.03112,0.155415 -0.03125,0.15625 -1.33e-4,8.35e-4 -0.03119,0.186656 -0.03125,0.1875 -4.9e-5,7.03e-4 0.0011,0.114819 0,0.15625 -2.13e-4,0.0083 -3e-6,0.03111 0,0.03125 l 0,5.96875 c -1e-6,9.46e-4 -9.2e-5,0.186559 0,0.1875 9.2e-5,9.41e-4 0.03107,0.217822 0.03125,0.21875 1.84e-4,9.28e-4 0.06223,0.186595 0.0625,0.1875 2.74e-4,9.05e-4 0.06214,0.186626 0.0625,0.1875 3.61e-4,8.74e-4 0.09331,0.186666 0.09375,0.1875 4.45e-4,8.34e-4 0.09323,0.155463 0.09375,0.15625 5.25e-4,7.87e-4 0.1244,0.155519 0.125,0.15625 6e-4,7.31e-4 0.124331,0.155581 0.125,0.15625 6.69e-4,6.69e-4 0.155519,0.1244 0.15625,0.125 7.31e-4,6e-4 0.155463,0.124475 0.15625,0.125 7.87e-4,5.25e-4 0.155416,0.09331 0.15625,0.09375 8.34e-4,4.45e-4 0.186626,0.09339 0.1875,0.09375 8.74e-4,3.61e-4 0.186595,0.06223 0.1875,0.0625 9.05e-4,2.74e-4 0.186572,0.06232 0.1875,0.0625 9.28e-4,1.84e-4 0.217809,0.03116 0.21875,0.03125 9.41e-4,9.2e-5 0.186554,10e-7 0.1875,0 l 32,0 c 9.46e-4,10e-7 0.186559,9.2e-5 0.1875,0 9.41e-4,-9.2e-5 0.217822,-0.03107 0.21875,-0.03125 9.28e-4,-1.84e-4 0.186595,-0.06223 0.1875,-0.0625 9.05e-4,-2.74e-4 0.186626,-0.06214 0.1875,-0.0625 8.74e-4,-3.61e-4 0.186666,-0.09331 0.1875,-0.09375 8.34e-4,-4.45e-4 0.155463,-0.09322 0.15625,-0.09375 7.87e-4,-5.25e-4 0.155519,-0.1244 0.15625,-0.125 7.31e-4,-6e-4 0.155581,-0.124331 0.15625,-0.125 6.69e-4,-6.69e-4 0.1244,-0.155519 0.125,-0.15625 6e-4,-7.31e-4 0.124475,-0.155463 0.125,-0.15625 5.25e-4,-7.87e-4 0.09331,-0.155416 0.09375,-0.15625 4.45e-4,-8.34e-4 0.09339,-0.186626 0.09375,-0.1875 3.61e-4,-8.74e-4 0.06223,-0.186595 0.0625,-0.1875 2.74e-4,-9.05e-4 0.06232,-0.186572 0.0625,-0.1875 1.84e-4,-9.28e-4 0.03116,-0.217809 0.03125,-0.21875 9.2e-5,-9.41e-4 10e-7,-0.186554 0,-0.1875 l 0,-6 c 10e-7,-9.46e-4 9.2e-5,-0.186559 0,-0.1875 -9.2e-5,-9.41e-4 -0.03107,-0.217822 -0.03125,-0.21875 -1.84e-4,-9.28e-4 -0.06223,-0.186595 -0.0625,-0.1875 -2.74e-4,-9.05e-4 -0.06214,-0.186626 -0.0625,-0.1875 -3.61e-4,-8.74e-4 -0.09331,-0.186666 -0.09375,-0.1875 -4.45e-4,-8.34e-4 -0.09322,-0.155463 -0.09375,-0.15625 -5.25e-4,-7.87e-4 -0.1244,-0.155519 -0.125,-0.15625 -6e-4,-7.31e-4 -0.124331,-0.155581 -0.125,-0.15625 -6.69e-4,-6.69e-4 -0.155519,-0.1244 -0.15625,-0.125 -7.31e-4,-6e-4 -0.155463,-0.124475 -0.15625,-0.125 -7.87e-4,-5.25e-4 -0.155416,-0.09331 -0.15625,-0.09375 -8.34e-4,-4.45e-4 -0.186626,-0.09339 -0.1875,-0.09375 -8.74e-4,-3.61e-4 -0.186595,-0.06223 -0.1875,-0.0625 -9.05e-4,-2.74e-4 -0.186572,-0.06232 -0.1875,-0.0625 -9.28e-4,-1.84e-4 -0.217809,-0.03116 -0.21875,-0.03125 -9.41e-4,-9.2e-5 -0.186554,-1e-6 -0.1875,0 l -31.96875,0 c -1.75e-4,-8e-6 -0.01941,5e-6 -0.03125,0 -0.02368,-10e-6 -0.02716,-3e-6 -0.0625,0 -3.5e-4,-1.6e-5 -0.02716,3e-6 -0.0625,0 -0.05301,-5e-6 -0.09323,-2.4e-5 -0.09375,0 a 1.0011302,1.0011302 0 0 0 -0.15625,0 z m 0.0625,12 C 23.686649,38.968879 23.500836,38.999795 23.5,39 c -8.36e-4,2.05e-4 -0.155435,0.06222 -0.15625,0.0625 -8.15e-4,2.79e-4 -0.186714,0.06215 -0.1875,0.0625 -7.86e-4,3.51e-4 -0.155498,0.09333 -0.15625,0.09375 -7.52e-4,4.2e-4 -0.155539,0.09327 -0.15625,0.09375 -7.11e-4,4.85e-4 -0.124335,0.0932 -0.125,0.09375 -6.65e-4,5.47e-4 -0.155636,0.124396 -0.15625,0.125 -6.14e-4,6.04e-4 -0.124443,0.155593 -0.125,0.15625 -5.57e-4,6.57e-4 -0.09325,0.124296 -0.09375,0.125 -4.96e-4,7.04e-4 -0.09332,0.155505 -0.09375,0.15625 -4.31e-4,7.45e-4 -0.09339,0.155469 -0.09375,0.15625 -3.63e-4,7.81e-4 -0.06221,0.18669 -0.0625,0.1875 -2.92e-4,8.1e-4 -0.06228,0.155417 -0.0625,0.15625 -2.18e-4,8.33e-4 -0.03111,0.186651 -0.03125,0.1875 -1.43e-4,8.49e-4 -0.03118,0.186641 -0.03125,0.1875 -6.6e-5,8.59e-4 -1.1e-5,0.155389 0,0.15625 l 0,18 c 3e-6,6.67e-4 -4.9e-5,0.155585 0,0.15625 4.9e-5,6.65e-4 0.03115,0.12434 0.03125,0.125 9.5e-5,6.6e-4 -1.41e-4,0.155598 0,0.15625 1.41e-4,6.52e-4 0.06231,0.124359 0.0625,0.125 1.86e-4,6.41e-4 0.03102,0.124374 0.03125,0.125 2.3e-4,6.26e-4 0.06223,0.124391 0.0625,0.125 2.73e-4,6.09e-4 0.06219,0.124412 0.0625,0.125 3.14e-4,5.88e-4 0.06215,0.124435 0.0625,0.125 3.54e-4,5.65e-4 0.06211,0.124461 0.0625,0.125 3.93e-4,5.39e-4 0.09332,0.124489 0.09375,0.125 4.29e-4,5.11e-4 0.09329,0.09327 0.09375,0.09375 4.63e-4,4.8e-4 0.09325,0.0933 0.09375,0.09375 4.96e-4,4.47e-4 0.124475,0.09334 0.125,0.09375 5.25e-4,4.11e-4 0.124447,0.09338 0.125,0.09375 5.53e-4,3.74e-4 0.09317,0.06217 0.09375,0.0625 5.77e-4,3.35e-4 0.124401,0.06221 0.125,0.0625 5.99e-4,2.94e-4 0.124382,0.06225 0.125,0.0625 6.18e-4,2.52e-4 0.155616,0.06229 0.15625,0.0625 6.34e-4,2.08e-4 0.124353,0.03109 0.125,0.03125 6.47e-4,1.64e-4 0.124343,0.03113 0.125,0.03125 6.57e-4,1.19e-4 0.155587,-7.3e-5 0.15625,0 6.63e-4,7.3e-5 0.124333,0.03122 0.125,0.03125 6.67e-4,2.7e-5 0.155583,2e-5 0.15625,0 6.67e-4,-2e-5 0.124336,6.6e-5 0.125,0 6.64e-4,-6.6e-5 0.155592,-0.03114 0.15625,-0.03125 6.58e-4,-1.12e-4 0.124352,-0.03109 0.125,-0.03125 6.48e-4,-1.57e-4 0.155614,-0.03105 0.15625,-0.03125 6.36e-4,-2.02e-4 0.12438,-0.06226 0.125,-0.0625 6.2e-4,-2.45e-4 0.124398,-0.06221 0.125,-0.0625 6.02e-4,-2.88e-4 0.124419,-0.06217 0.125,-0.0625 5.81e-4,-3.29e-4 0.124444,-0.06213 0.125,-0.0625 4.64e-4,-3.07e-4 0.06713,-0.04351 0.09375,-0.0625 l 12,-9 A 1.0011302,1.0011302 0 0 0 37.25,51.59375 c 4.31e-4,-3.36e-4 0.09334,-0.06214 0.09375,-0.0625 4.11e-4,-3.6e-4 0.06211,-0.09337 0.0625,-0.09375 3.9e-4,-3.82e-4 0.09338,-0.0621 0.09375,-0.0625 3.68e-4,-4.04e-4 0.06216,-0.09333 0.0625,-0.09375 3.44e-4,-4.24e-4 0.06218,-0.09331 0.0625,-0.09375 3.2e-4,-4.43e-4 0.09346,-0.09329 0.09375,-0.09375 2.94e-4,-4.61e-4 0.03098,-0.09327 0.03125,-0.09375 2.67e-4,-4.77e-4 0.06226,-0.09326 0.0625,-0.09375 2.4e-4,-4.91e-4 0.06229,-0.124496 0.0625,-0.125 2.12e-4,-5.04e-4 0.03107,-0.09323 0.03125,-0.09375 1.83e-4,-5.15e-4 0.0311,-0.124475 0.03125,-0.125 1.53e-4,-5.25e-4 0.03113,-0.09322 0.03125,-0.09375 1.23e-4,-5.32e-4 0.03116,-0.124461 0.03125,-0.125 9.3e-5,-5.39e-4 -6.2e-5,-0.124457 0,-0.125 6.2e-5,-5.43e-4 0.03122,-0.0932 0.03125,-0.09375 3.1e-5,-5.46e-4 0,-0.124454 0,-0.125 0,-5.46e-4 3.1e-5,-0.124454 0,-0.125 -3.1e-5,-5.46e-4 -0.03119,-0.09321 -0.03125,-0.09375 -6.2e-5,-5.43e-4 9.3e-5,-0.124461 0,-0.125 -9.3e-5,-5.39e-4 -0.03113,-0.124468 -0.03125,-0.125 -1.23e-4,-5.32e-4 -0.0311,-0.09322 -0.03125,-0.09375 -1.53e-4,-5.25e-4 -0.03107,-0.124485 -0.03125,-0.125 -1.83e-4,-5.15e-4 -0.03104,-0.09325 -0.03125,-0.09375 -2.12e-4,-5.04e-4 -0.06226,-0.124509 -0.0625,-0.125 C 37.81226,49.093259 37.75027,49.00048 37.75,49 37.749733,48.999523 37.71904,48.90671 37.71875,48.90625 37.718456,48.905789 37.62532,48.81294 37.625,48.8125 37.62468,48.812057 37.56284,48.71917 37.5625,48.71875 37.562156,48.718326 37.50037,48.6254 37.5,48.625 c -3.68e-4,-4.04e-4 -0.09336,-0.06212 -0.09375,-0.0625 -3.9e-4,-3.82e-4 -0.06209,-0.09339 -0.0625,-0.09375 -4.11e-4,-3.6e-4 -0.09332,-0.06216 -0.09375,-0.0625 A 1.0011302,1.0011302 0 0 0 37.21875,48.375 L 25.25,39.40625 c -1.46e-4,-1.17e-4 -0.01645,-0.01994 -0.03125,-0.03125 -0.02368,-0.0181 -0.06226,-0.03107 -0.0625,-0.03125 -3.94e-4,-2.86e-4 -0.06209,-0.06224 -0.0625,-0.0625 -4.08e-4,-2.65e-4 -0.09333,-0.06226 -0.09375,-0.0625 -4.21e-4,-2.44e-4 -0.09332,-0.03103 -0.09375,-0.03125 -4.33e-4,-2.23e-4 -0.09331,-0.0623 -0.09375,-0.0625 -4.43e-4,-2.01e-4 -0.0933,-0.03107 -0.09375,-0.03125 -4.53e-4,-1.78e-4 -0.09329,-0.0311 -0.09375,-0.03125 -4.61e-4,-1.55e-4 -0.09328,-0.03112 -0.09375,-0.03125 C 24.530781,39.031119 24.43798,39.00011 24.4375,39 c -4.75e-4,-1.07e-4 -0.12452,8.3e-5 -0.125,0 -4.8e-4,-8.3e-5 -0.09327,-0.03119 -0.09375,-0.03125 -4.83e-4,-5.9e-5 -0.09326,3.4e-5 -0.09375,0 -4.85e-4,-3.4e-5 -0.09326,1e-5 -0.09375,0 -4.87e-4,-1e-5 -0.124514,-1.5e-5 -0.125,0 -4.86e-4,1.5e-5 -0.09326,-3.9e-5 -0.09375,0 -4.85e-4,3.9e-5 -0.09327,-6.4e-5 -0.09375,0 a 1.0011302,1.0011302 0 0 0 -0.03125,0 z m 17.9375,0 c -8.32e-4,1.53e-4 -0.155435,0.06227 -0.15625,0.0625 -8.15e-4,2.25e-4 -0.186708,0.0622 -0.1875,0.0625 -7.92e-4,2.96e-4 -0.155487,0.06214 -0.15625,0.0625 -7.63e-4,3.64e-4 -0.155522,0.06207 -0.15625,0.0625 -7.28e-4,4.3e-4 -0.155562,0.124508 -0.15625,0.125 -6.88e-4,4.92e-4 -0.124358,0.0932 -0.125,0.09375 -6.42e-4,5.51e-4 -0.155659,0.124395 -0.15625,0.125 -5.91e-4,6.05e-4 -0.09321,0.124345 -0.09375,0.125 -5.36e-4,6.55e-4 -0.124524,0.155551 -0.125,0.15625 -4.76e-4,6.99e-4 -0.09334,0.155512 -0.09375,0.15625 -4.13e-4,7.38e-4 -0.06215,0.155478 -0.0625,0.15625 -3.46e-4,7.72e-4 -0.06222,0.155451 -0.0625,0.15625 -2.77e-4,7.99e-4 -0.06229,0.18668 -0.0625,0.1875 -2.06e-4,8.2e-4 -0.03112,0.155415 -0.03125,0.15625 -1.33e-4,8.35e-4 -0.03119,0.186656 -0.03125,0.1875 -4.9e-5,7.03e-4 0.0011,0.114819 0,0.15625 -2.13e-4,0.0083 -3e-6,0.03111 0,0.03125 l 0,5.96875 c -10e-7,9.46e-4 -9.2e-5,0.186559 0,0.1875 9.2e-5,9.41e-4 0.03107,0.217822 0.03125,0.21875 1.84e-4,9.28e-4 0.06223,0.186595 0.0625,0.1875 2.74e-4,9.05e-4 0.06214,0.186626 0.0625,0.1875 3.61e-4,8.74e-4 0.09331,0.186666 0.09375,0.1875 4.45e-4,8.34e-4 0.09322,0.155463 0.09375,0.15625 5.25e-4,7.87e-4 0.1244,0.155519 0.125,0.15625 6e-4,7.31e-4 0.124331,0.155581 0.125,0.15625 6.69e-4,6.69e-4 0.155519,0.1244 0.15625,0.125 7.31e-4,6e-4 0.155463,0.124475 0.15625,0.125 7.87e-4,5.25e-4 0.155416,0.09331 0.15625,0.09375 8.34e-4,4.45e-4 0.186626,0.09339 0.1875,0.09375 8.74e-4,3.61e-4 0.186595,0.06223 0.1875,0.0625 9.05e-4,2.74e-4 0.186572,0.06232 0.1875,0.0625 9.28e-4,1.84e-4 0.217809,0.03116 0.21875,0.03125 9.41e-4,9.2e-5 0.186554,10e-7 0.1875,0 l 30,0 c 9.46e-4,10e-7 0.186559,9.2e-5 0.1875,0 9.41e-4,-9.2e-5 0.217822,-0.03107 0.21875,-0.03125 9.28e-4,-1.84e-4 0.186595,-0.06223 0.1875,-0.0625 9.05e-4,-2.74e-4 0.186626,-0.06214 0.1875,-0.0625 8.74e-4,-3.61e-4 0.186666,-0.09331 0.1875,-0.09375 8.34e-4,-4.45e-4 0.155463,-0.09322 0.15625,-0.09375 7.87e-4,-5.25e-4 0.155519,-0.1244 0.15625,-0.125 7.31e-4,-6e-4 0.155581,-0.124331 0.15625,-0.125 6.69e-4,-6.69e-4 0.1244,-0.155519 0.125,-0.15625 6e-4,-7.31e-4 0.124475,-0.155463 0.125,-0.15625 5.25e-4,-7.87e-4 0.09331,-0.155416 0.09375,-0.15625 4.45e-4,-8.34e-4 0.09339,-0.186626 0.09375,-0.1875 3.61e-4,-8.74e-4 0.06223,-0.186595 0.0625,-0.1875 2.74e-4,-9.05e-4 0.06232,-0.186572 0.0625,-0.1875 1.84e-4,-9.28e-4 0.03116,-0.217809 0.03125,-0.21875 9.2e-5,-9.41e-4 10e-7,-0.186554 0,-0.1875 l 0,-6 c 10e-7,-9.46e-4 9.2e-5,-0.186559 0,-0.1875 -9.2e-5,-9.41e-4 -0.03107,-0.217822 -0.03125,-0.21875 -1.84e-4,-9.28e-4 -0.06223,-0.186595 -0.0625,-0.1875 -2.74e-4,-9.05e-4 -0.06214,-0.186626 -0.0625,-0.1875 -3.61e-4,-8.74e-4 -0.09331,-0.186666 -0.09375,-0.1875 -4.45e-4,-8.34e-4 -0.09323,-0.155463 -0.09375,-0.15625 -5.25e-4,-7.87e-4 -0.1244,-0.155519 -0.125,-0.15625 -6e-4,-7.31e-4 -0.124331,-0.155581 -0.125,-0.15625 -6.69e-4,-6.69e-4 -0.155519,-0.1244 -0.15625,-0.125 -7.31e-4,-6e-4 -0.155463,-0.124475 -0.15625,-0.125 -7.87e-4,-5.25e-4 -0.155416,-0.09331 -0.15625,-0.09375 -8.34e-4,-4.45e-4 -0.186626,-0.09339 -0.1875,-0.09375 -8.74e-4,-3.61e-4 -0.186595,-0.06223 -0.1875,-0.0625 -9.05e-4,-2.74e-4 -0.186572,-0.06232 -0.1875,-0.0625 -9.28e-4,-1.84e-4 -0.217809,-0.03116 -0.21875,-0.03125 -9.41e-4,-9.2e-5 -0.186554,-10e-7 -0.1875,0 l -29.96875,0 c -1.75e-4,-8e-6 -0.01941,5e-6 -0.03125,0 -0.02368,-1e-5 -0.02716,-3e-6 -0.0625,0 -3.5e-4,-1.6e-5 -0.02716,3e-6 -0.0625,0 -0.05301,-5e-6 -0.09322,-2.4e-5 -0.09375,0 a 1.0011302,1.0011302 0 0 0 -0.15625,0 z m 0,12 c -8.32e-4,1.53e-4 -0.155435,0.06227 -0.15625,0.0625 -8.15e-4,2.25e-4 -0.186708,0.0622 -0.1875,0.0625 -7.92e-4,2.96e-4 -0.155487,0.06214 -0.15625,0.0625 -7.63e-4,3.64e-4 -0.155522,0.06207 -0.15625,0.0625 -7.28e-4,4.3e-4 -0.155562,0.124508 -0.15625,0.125 -6.88e-4,4.92e-4 -0.124358,0.0932 -0.125,0.09375 -6.42e-4,5.51e-4 -0.155659,0.124395 -0.15625,0.125 -5.91e-4,6.05e-4 -0.09321,0.124345 -0.09375,0.125 -5.36e-4,6.55e-4 -0.124524,0.155551 -0.125,0.15625 -4.76e-4,6.99e-4 -0.09334,0.155512 -0.09375,0.15625 -4.13e-4,7.38e-4 -0.06215,0.155478 -0.0625,0.15625 -3.46e-4,7.72e-4 -0.06222,0.155451 -0.0625,0.15625 -2.77e-4,7.99e-4 -0.06229,0.18668 -0.0625,0.1875 -2.06e-4,8.2e-4 -0.03112,0.155415 -0.03125,0.15625 -1.33e-4,8.35e-4 -0.03119,0.186656 -0.03125,0.1875 -4.9e-5,7.03e-4 0.0011,0.114819 0,0.15625 -2.13e-4,0.0083 -3e-6,0.03111 0,0.03125 l 0,5.96875 c -10e-7,9.46e-4 -9.2e-5,0.186559 0,0.1875 9.2e-5,9.41e-4 0.03107,0.217822 0.03125,0.21875 1.84e-4,9.28e-4 0.06223,0.186595 0.0625,0.1875 2.74e-4,9.05e-4 0.06214,0.186626 0.0625,0.1875 3.61e-4,8.74e-4 0.09331,0.186666 0.09375,0.1875 4.45e-4,8.34e-4 0.09322,0.155463 0.09375,0.15625 5.25e-4,7.87e-4 0.1244,0.155519 0.125,0.15625 6e-4,7.31e-4 0.124331,0.155581 0.125,0.15625 6.69e-4,6.69e-4 0.155519,0.1244 0.15625,0.125 7.31e-4,6e-4 0.155463,0.124475 0.15625,0.125 7.87e-4,5.25e-4 0.155416,0.09331 0.15625,0.09375 8.34e-4,4.45e-4 0.186626,0.09339 0.1875,0.09375 8.74e-4,3.61e-4 0.186595,0.06223 0.1875,0.0625 9.05e-4,2.74e-4 0.186572,0.06232 0.1875,0.0625 9.28e-4,1.84e-4 0.217809,0.03116 0.21875,0.03125 9.41e-4,9.2e-5 0.186554,10e-7 0.1875,0 l 24,0 c 9.46e-4,10e-7 0.186559,9.2e-5 0.1875,0 9.41e-4,-9.2e-5 0.217822,-0.03107 0.21875,-0.03125 9.28e-4,-1.84e-4 0.186595,-0.06223 0.1875,-0.0625 9.05e-4,-2.74e-4 0.186626,-0.06214 0.1875,-0.0625 8.74e-4,-3.61e-4 0.186666,-0.09331 0.1875,-0.09375 8.34e-4,-4.45e-4 0.155463,-0.09322 0.15625,-0.09375 7.87e-4,-5.25e-4 0.155519,-0.1244 0.15625,-0.125 7.31e-4,-6e-4 0.155581,-0.124331 0.15625,-0.125 6.69e-4,-6.69e-4 0.1244,-0.155519 0.125,-0.15625 6e-4,-7.31e-4 0.124475,-0.155463 0.125,-0.15625 5.25e-4,-7.87e-4 0.09331,-0.155416 0.09375,-0.15625 4.45e-4,-8.34e-4 0.09339,-0.186626 0.09375,-0.1875 3.61e-4,-8.74e-4 0.06223,-0.186595 0.0625,-0.1875 2.74e-4,-9.05e-4 0.06232,-0.186572 0.0625,-0.1875 1.84e-4,-9.28e-4 0.03116,-0.217809 0.03125,-0.21875 9.2e-5,-9.41e-4 10e-7,-0.186554 0,-0.1875 l 0,-6 c 10e-7,-9.46e-4 9.2e-5,-0.186559 0,-0.1875 -9.2e-5,-9.41e-4 -0.03107,-0.217822 -0.03125,-0.21875 -1.84e-4,-9.28e-4 -0.06223,-0.186595 -0.0625,-0.1875 -2.74e-4,-9.05e-4 -0.06214,-0.186626 -0.0625,-0.1875 -3.61e-4,-8.74e-4 -0.09331,-0.186666 -0.09375,-0.1875 -4.45e-4,-8.34e-4 -0.09323,-0.155463 -0.09375,-0.15625 -5.25e-4,-7.87e-4 -0.1244,-0.155519 -0.125,-0.15625 -6e-4,-7.31e-4 -0.124331,-0.155581 -0.125,-0.15625 -6.69e-4,-6.69e-4 -0.155519,-0.1244 -0.15625,-0.125 -7.31e-4,-6e-4 -0.155463,-0.124475 -0.15625,-0.125 -7.87e-4,-5.25e-4 -0.155416,-0.09331 -0.15625,-0.09375 -8.34e-4,-4.45e-4 -0.186626,-0.09339 -0.1875,-0.09375 -8.74e-4,-3.61e-4 -0.186595,-0.06223 -0.1875,-0.0625 -9.05e-4,-2.74e-4 -0.186572,-0.06232 -0.1875,-0.0625 -9.28e-4,-1.84e-4 -0.217809,-0.03116 -0.21875,-0.03125 -9.41e-4,-9.2e-5 -0.186554,-10e-7 -0.1875,0 l -23.96875,0 c -1.75e-4,-8e-6 -0.01941,5e-6 -0.03125,0 -0.02368,-1e-5 -0.02716,-3e-6 -0.0625,0 -3.5e-4,-1.6e-5 -0.02716,3e-6 -0.0625,0 -0.05301,-5e-6 -0.09322,-2.4e-5 -0.09375,0 a 1.0011302,1.0011302 0 0 0 -0.15625,0 z m -18,12 c -8.32e-4,1.53e-4 -0.155435,0.06227 -0.15625,0.0625 -8.15e-4,2.25e-4 -0.186708,0.0622 -0.1875,0.0625 -7.92e-4,2.96e-4 -0.155487,0.06214 -0.15625,0.0625 -7.63e-4,3.64e-4 -0.155522,0.06207 -0.15625,0.0625 -7.28e-4,4.3e-4 -0.155562,0.124508 -0.15625,0.125 -6.88e-4,4.92e-4 -0.124358,0.0932 -0.125,0.09375 -6.42e-4,5.51e-4 -0.155659,0.124395 -0.15625,0.125 -5.91e-4,6.05e-4 -0.09321,0.124345 -0.09375,0.125 -5.36e-4,6.55e-4 -0.124524,0.155551 -0.125,0.15625 -4.76e-4,6.99e-4 -0.09334,0.155512 -0.09375,0.15625 -4.13e-4,7.38e-4 -0.06215,0.155478 -0.0625,0.15625 -3.46e-4,7.72e-4 -0.06222,0.155451 -0.0625,0.15625 -2.77e-4,7.99e-4 -0.06229,0.18668 -0.0625,0.1875 -2.06e-4,8.2e-4 -0.03112,0.155415 -0.03125,0.15625 -1.33e-4,8.35e-4 -0.03119,0.186656 -0.03125,0.1875 -4.9e-5,7.03e-4 0.0011,0.114819 0,0.15625 -2.13e-4,0.0083 -3e-6,0.03111 0,0.03125 l 0,5.96875 c -1e-6,9.46e-4 -9.2e-5,0.186559 0,0.1875 9.2e-5,9.41e-4 0.03107,0.217822 0.03125,0.21875 1.84e-4,9.28e-4 0.06223,0.186595 0.0625,0.1875 2.74e-4,9.05e-4 0.06214,0.186626 0.0625,0.1875 3.61e-4,8.74e-4 0.09331,0.186666 0.09375,0.1875 4.45e-4,8.34e-4 0.09323,0.155463 0.09375,0.15625 5.25e-4,7.87e-4 0.1244,0.155519 0.125,0.15625 6e-4,7.31e-4 0.124331,0.155581 0.125,0.15625 6.69e-4,6.69e-4 0.155519,0.1244 0.15625,0.125 7.31e-4,6e-4 0.155463,0.124475 0.15625,0.125 7.87e-4,5.25e-4 0.155416,0.09331 0.15625,0.09375 8.34e-4,4.45e-4 0.186626,0.09339 0.1875,0.09375 8.74e-4,3.61e-4 0.186595,0.06223 0.1875,0.0625 9.05e-4,2.74e-4 0.186572,0.06232 0.1875,0.0625 9.28e-4,1.84e-4 0.217809,0.03116 0.21875,0.03125 9.41e-4,9.2e-5 0.186554,10e-7 0.1875,0 l 32,0 c 9.46e-4,10e-7 0.186559,9.2e-5 0.1875,0 9.41e-4,-9.2e-5 0.217822,-0.03107 0.21875,-0.03125 9.28e-4,-1.84e-4 0.186595,-0.06223 0.1875,-0.0625 9.05e-4,-2.74e-4 0.186626,-0.06214 0.1875,-0.0625 8.74e-4,-3.61e-4 0.186666,-0.09331 0.1875,-0.09375 8.34e-4,-4.45e-4 0.155463,-0.09323 0.15625,-0.09375 7.87e-4,-5.25e-4 0.155519,-0.1244 0.15625,-0.125 7.31e-4,-6e-4 0.155581,-0.124331 0.15625,-0.125 6.69e-4,-6.69e-4 0.1244,-0.155519 0.125,-0.15625 6e-4,-7.31e-4 0.124475,-0.155463 0.125,-0.15625 5.25e-4,-7.87e-4 0.09331,-0.155416 0.09375,-0.15625 4.45e-4,-8.34e-4 0.09339,-0.186626 0.09375,-0.1875 3.61e-4,-8.74e-4 0.06223,-0.186595 0.0625,-0.1875 2.74e-4,-9.05e-4 0.06232,-0.186572 0.0625,-0.1875 1.84e-4,-9.28e-4 0.03116,-0.217809 0.03125,-0.21875 9.2e-5,-9.41e-4 10e-7,-0.186554 0,-0.1875 l 0,-6 c 10e-7,-9.46e-4 9.2e-5,-0.186559 0,-0.1875 -9.2e-5,-9.41e-4 -0.03107,-0.217822 -0.03125,-0.21875 -1.84e-4,-9.28e-4 -0.06223,-0.186595 -0.0625,-0.1875 -2.74e-4,-9.05e-4 -0.06214,-0.186626 -0.0625,-0.1875 -3.61e-4,-8.74e-4 -0.09331,-0.186666 -0.09375,-0.1875 -4.45e-4,-8.34e-4 -0.09322,-0.155463 -0.09375,-0.15625 -5.25e-4,-7.87e-4 -0.1244,-0.155519 -0.125,-0.15625 -6e-4,-7.31e-4 -0.124331,-0.155581 -0.125,-0.15625 -6.69e-4,-6.69e-4 -0.155519,-0.1244 -0.15625,-0.125 -7.31e-4,-6e-4 -0.155463,-0.124475 -0.15625,-0.125 -7.87e-4,-5.25e-4 -0.155416,-0.09331 -0.15625,-0.09375 -8.34e-4,-4.45e-4 -0.186626,-0.09339 -0.1875,-0.09375 -8.74e-4,-3.61e-4 -0.186595,-0.06223 -0.1875,-0.0625 -9.05e-4,-2.74e-4 -0.186572,-0.06232 -0.1875,-0.0625 -9.28e-4,-1.84e-4 -0.217809,-0.03116 -0.21875,-0.03125 -9.41e-4,-9.2e-5 -0.186554,-10e-7 -0.1875,0 l -31.96875,0 c -1.75e-4,-8e-6 -0.01941,5e-6 -0.03125,0 -0.02368,-1e-5 -0.02716,-3e-6 -0.0625,0 -3.5e-4,-1.6e-5 -0.02716,3e-6 -0.0625,0 -0.05301,-5e-6 -0.09323,-2.4e-5 -0.09375,0 a 1.0011302,1.0011302 0 0 0 -0.15625,0 z"
       id="path42"
       inkscape:connector-curvature="0"
       style="opacity:0.1;fill:black;fill-opacity:1;stroke:none" />
    <path
       d="M 23.90625,27.96875 A 1.0298822,1.0298822 0 0 0 22.96875,29 l 0,6 A 1.0298822,1.0298822 0 0 0 24,36.03125 l 32,0 A 1.0298822,1.0298822 0 0 0 57.03125,35 l 0,-6 A 1.0298822,1.0298822 0 0 0 56,27.96875 l -32,0 a 1.0298822,1.0298822 0 0 0 -0.09375,0 z m -0.0625,12 A 1.0298822,1.0298822 0 0 0 22.96875,41 l 0,18 a 1.0298822,1.0298822 0 0 0 1.65625,0.8125 l 12,-9 a 1.0298822,1.0298822 0 0 0 0,-1.625 l -12,-9 a 1.0298822,1.0298822 0 0 0 -0.78125,-0.21875 z m 18.0625,0 A 1.0298822,1.0298822 0 0 0 40.96875,41 l 0,6 A 1.0298822,1.0298822 0 0 0 42,48.03125 l 30,0 A 1.0298822,1.0298822 0 0 0 73.03125,47 l 0,-6 A 1.0298822,1.0298822 0 0 0 72,39.96875 l -30,0 a 1.0298822,1.0298822 0 0 0 -0.09375,0 z m 0,12 A 1.0298822,1.0298822 0 0 0 40.96875,53 l 0,6 A 1.0298822,1.0298822 0 0 0 42,60.03125 l 24,0 A 1.0298822,1.0298822 0 0 0 67.03125,59 l 0,-6 A 1.0298822,1.0298822 0 0 0 66,51.96875 l -24,0 a 1.0298822,1.0298822 0 0 0 -0.09375,0 z m -18,12 A 1.0298822,1.0298822 0 0 0 22.96875,65 l 0,6 A 1.0298822,1.0298822 0 0 0 24,72.03125 l 32,0 A 1.0298822,1.0298822 0 0 0 57.03125,71 l 0,-6 A 1.0298822,1.0298822 0 0 0 56,63.96875 l -32,0 a 1.0298822,1.0298822 0 0 0 -0.09375,0 z"
       id="path44"
       inkscape:connector-curvature="0"
       style="opacity:0.15;fill:black;fill-opacity:1;stroke:none" />
    <path
       d="m 55.999918,29 0,6 -32,0 0,-6 z m 16,12 0,6 -30,0 0,-6 z m -48,0 12,9 -12,9 z m 42,12 0,6 -24,0 0,-6 z m -10,12 0,6 -32,0 0,-6 z"
       inkscape:connector-curvature="0"
       id="path46"
       style="opacity:0.3;fill:black;fill-opacity:1;stroke:none" />
    <path
       d="m 55.999918,28 0,6 -32,0 0,-6 z m 16,12 0,6 -30,0 0,-6 z m -48,0 12,9 -12,9 z m 42,12 0,6 -24,0 0,-6 z m -10,12 0,6 -32,0 0,-6 z"
       inkscape:connector-curvature="0"
       id="path60"
       style="fill:url(#linearGradient3042);fill-opacity:1;stroke:none" />
    <path
       d="m 55.999918,28 0,1 -32,0 0,-1 z m 16,12 0,1 -30,0 0,-1 z m -48,0 12,9 -0.65625,0.5 -11.34375,-8.5 z m 42,12 0,1 -24,0 0,-1 z m -10,12 0,1 -32,0 0,-1 z"
       inkscape:connector-curvature="0"
       id="path62"
       style="opacity:0.75;fill:white;fill-opacity:1;stroke:none" />
    <path
       d="m 55.999918,33 0,1 -32,0 0,-1 z m 16,12 0,1 -30,0 0,-1 z m -36.65625,3.5 0.65625,0.5 -12,9 0,-1 z m 30.65625,8.5 0,1 -24,0 0,-1 z m -10,12 0,1 -32,0 0,-1 z"
       inkscape:connector-curvature="0"
       id="path64"
       style="opacity:0.15;fill:black;fill-opacity:1;stroke:none" />
  </g>
</svg>
