<?xml version="1.0" encoding="UTF-8" standalone="no"?>
<!-- Created with Inkscape (http://www.inkscape.org/) -->

<svg
   xmlns:dc="http://purl.org/dc/elements/1.1/"
   xmlns:cc="http://creativecommons.org/ns#"
   xmlns:rdf="http://www.w3.org/1999/02/22-rdf-syntax-ns#"
   xmlns:svg="http://www.w3.org/2000/svg"
   xmlns="http://www.w3.org/2000/svg"
   xmlns:sodipodi="http://sodipodi.sourceforge.net/DTD/sodipodi-0.dtd"
   xmlns:inkscape="http://www.inkscape.org/namespaces/inkscape"
   width="16"
   height="16"
   id="svg2"
   sodipodi:version="0.32"
   inkscape:version="0.48.5 r10040"
   version="1.0"
   sodipodi:docname="format-text-underline-symbolic.svg"
   inkscape:output_extension="org.inkscape.output.svg.inkscape"
   inkscape:export-filename="/home/matt/.icons/Sirocco/scalable/mimetypes/text-plain.png"
   inkscape:export-xdpi="90"
   inkscape:export-ydpi="90"
   sodipodi:modified="true"
   style="display:inline">
  <sodipodi:namedview
     id="base"
     pagecolor="#ffffff"
     bordercolor="#666666"
     borderopacity="1.0"
     inkscape:pageopacity="0.0"
     inkscape:pageshadow="2"
     inkscape:zoom="24.785767"
     inkscape:cx="-5.2466747"
     inkscape:cy="5.5349974"
     inkscape:document-units="px"
     inkscape:current-layer="layer1"
     width="128px"
     height="128px"
     inkscape:showpageshadow="false"
     inkscape:window-width="1920"
     inkscape:window-height="1028"
     inkscape:window-x="0"
     inkscape:window-y="25"
     showguides="true"
     inkscape:guide-bbox="true"
     showgrid="true"
     inkscape:window-maximized="1"
     inkscape:snap-global="true">
    <sodipodi:guide
       id="guide2226"
       position="32.637397,117.99844"
       orientation="horizontal" />
    <sodipodi:guide
       id="guide2230"
       position="110,57.402344"
       orientation="vertical" />
    <sodipodi:guide
       id="guide2232"
       position="33.760911"
       orientation="horizontal" />
    <sodipodi:guide
       id="guide2231"
       position="46.774696"
       orientation="horizontal" />
    <inkscape:grid
       enabled="true"
       visible="true"
       id="grid3231"
       type="xygrid" />
    <sodipodi:guide
       orientation="1,0"
       position="100,67.625"
       id="guide2713" />
  </sodipodi:namedview>
  <defs
     id="defs4" />
  <metadata
     id="metadata7">
    <rdf:RDF>
      <cc:Work
         rdf:about="">
        <dc:format>image/svg+xml</dc:format>
        <dc:type
           rdf:resource="http://purl.org/dc/dcmitype/StillImage" />
      </cc:Work>
    </rdf:RDF>
  </metadata>
  <g
     style="display:inline"
     inkscape:label="Calque 1"
     id="layer1"
     inkscape:groupmode="layer">
    <path
       style="font-size:17.41496658000000153px;font-style:normal;font-variant:normal;font-weight:normal;font-stretch:normal;text-align:start;line-height:125%;writing-mode:lr-tb;text-anchor:start;fill:#bebebe;fill-opacity:1;stroke:none;font-family:Sans;-inkscape-font-specification:Sans"
       d="M 7.90625 3 C 7.3960414 3.0000097 6.8822948 3.042881 6.34375 3.15625 C 5.8051983 3.2639692 5.2600601 3.4351709 4.6875 3.65625 L 4.6875 5.09375 C 5.1636883 4.8329869 5.6403743 4.6616436 6.15625 4.53125 C 6.6721193 4.4008728 7.2057781 4.3125084 7.75 4.3125 C 8.6060035 4.3125084 9.2794721 4.5094329 9.75 4.90625 C 10.226183 5.297414 10.468742 5.8738022 10.46875 6.59375 L 10.46875 6.75 L 8.25 6.75 C 6.8270936 6.750006 5.7824519 7.0182881 5.0625 7.5625 C 4.3482129 8.1067224 3.968749 8.8973253 3.96875 9.96875 C 3.968749 10.887119 4.2711863 11.637614 4.84375 12.1875 C 5.4219788 12.731718 6.18119 13 7.15625 13 C 7.9272201 13 8.5921145 12.865859 9.125 12.59375 C 9.6578731 12.315973 10.1116 11.890733 10.46875 11.3125 L 10.46875 13 L 12.03125 13 L 12.03125 7.3125 C 12.031241 5.8612597 11.680263 4.7767937 11 4.0625 C 10.31972 3.3482236 9.2837947 3.0000097 7.90625 3 z M 8.90625 7.96875 L 10.46875 7.96875 L 10.46875 8.3125 C 10.468742 9.3329116 10.183453 10.163339 9.65625 10.78125 C 9.1347018 11.393496 8.4610915 11.687501 7.59375 11.6875 C 6.9644943 11.687501 6.4622272 11.54188 6.09375 11.21875 C 5.7309354 10.889953 5.5312474 10.430558 5.53125 9.875 C 5.5312474 9.1777246 5.7937187 8.6953697 6.28125 8.40625 C 6.7687745 8.117139 7.6420729 7.9687548 8.90625 7.96875 z M 4 14 L 4 15 L 12 15 L 12 14 L 4 14 z "
       id="path3631" />
  </g>
</svg>
