<?xml version="1.0" encoding="UTF-8" standalone="no"?>
<svg
   xmlns:dc="http://purl.org/dc/elements/1.1/"
   xmlns:cc="http://creativecommons.org/ns#"
   xmlns:rdf="http://www.w3.org/1999/02/22-rdf-syntax-ns#"
   xmlns:svg="http://www.w3.org/2000/svg"
   xmlns="http://www.w3.org/2000/svg"
   xmlns:xlink="http://www.w3.org/1999/xlink"
   xmlns:sodipodi="http://sodipodi.sourceforge.net/DTD/sodipodi-0.dtd"
   xmlns:inkscape="http://www.inkscape.org/namespaces/inkscape"
   height="96"
   width="96"
   id="svg2"
   version="1.1"
   inkscape:version="0.91 r13725"
   sodipodi:docname="format-text-bold.svg">
  <metadata
     id="metadata68">
    <rdf:RDF>
      <cc:Work
         rdf:about="">
        <dc:format>image/svg+xml</dc:format>
        <dc:type
           rdf:resource="http://purl.org/dc/dcmitype/StillImage" />
      </cc:Work>
    </rdf:RDF>
  </metadata>
  <sodipodi:namedview
     pagecolor="#ffffff"
     bordercolor="#666666"
     borderopacity="1"
     objecttolerance="10"
     gridtolerance="10"
     guidetolerance="10"
     inkscape:pageopacity="0"
     inkscape:pageshadow="2"
     inkscape:window-width="640"
     inkscape:window-height="480"
     id="namedview66"
     showgrid="false"
     inkscape:zoom="2.4583333"
     inkscape:cx="22.98305"
     inkscape:cy="47.999999"
     inkscape:window-x="75"
     inkscape:window-y="99"
     inkscape:window-maximized="0"
     inkscape:current-layer="svg2" />
  <defs
     id="defs4">
    <linearGradient
       x2="0"
       y1="92.54"
       y2="7.02"
       gradientUnits="userSpaceOnUse"
       id="ButtonShadow-0"
       gradientTransform="matrix(1.0059 0 0 0.99417 100 0)">
      <stop
         stop-color="#000000"
         stop-opacity="1"
         id="stop7" />
      <stop
         stop-color="#000000"
         stop-opacity="0.588"
         offset="1"
         id="stop9" />
    </linearGradient>
    <linearGradient
       x2="0"
       xlink:href="#ButtonShadow-0"
       y1="6.132"
       y2="90.24"
       gradientUnits="userSpaceOnUse"
       id="linearGradient3780"
       gradientTransform="matrix(1.02381 0 0 -1.0119 -1.143 98.07)" />
    <linearGradient
       x2="0"
       xlink:href="#ButtonShadow-0"
       y1="6.132"
       y2="90.24"
       gradientUnits="userSpaceOnUse"
       id="linearGradient3721"
       gradientTransform="matrix(1 0 0 -1 0 97)" />
    <radialGradient
       cy="90.17"
       r="42"
       gradientUnits="userSpaceOnUse"
       id="radialGradient3619-3"
       cx="48"
       gradientTransform="matrix(1.15731 0 0 0.99591 -7.551 0.197)">
      <stop
         stop-color="#ffffff"
         stop-opacity="1"
         id="stop14" />
      <stop
         stop-color="#ffffff"
         stop-opacity="0"
         offset="1"
         id="stop16" />
    </radialGradient>
    <linearGradient
       x2="0"
       y1="4.563"
       y2="11.478"
       gradientUnits="userSpaceOnUse"
       id="linearGradient3034"
       gradientTransform="matrix(5.22449,0,0,5.22449,-11.841,6.16)">
      <stop
         stop-color="#1a1a1a"
         stop-opacity="1"
         id="stop19" />
      <stop
         stop-color="#4d4d4d"
         stop-opacity="1"
         offset="1"
         id="stop21" />
    </linearGradient>
    <rect
       x="6"
       rx="6"
       y="6"
       fill="#000000"
       fill-opacity="1"
       stroke="none"
       fill-rule="nonzero"
       height="84"
       id="SVGCleanerId_0"
       opacity="0.6"
       width="84" />
  </defs>
  <g
     id="g3485"
     transform="matrix(1.998285,0,0,1.998285,-47.934802,-49.950265)">
    <path
       d="m 47.84375,29 c -5.059376,0.01303 -10.126083,0.653749 -15.03125,1.875 -0.972612,0.462333 -1.295108,1.574675 -1.15625,2.574029 0.02147,2.67188 -0.04254,5.354282 0.03125,8.019721 0.199754,1.430834 2.082237,2.158667 3.200784,1.25027 4.387212,-2.179993 9.507349,-2.907628 14.337296,-2.133586 0.774798,-0.13097 3.844339,1.461204 2.169141,1.570816 -5.779416,0.0019 -11.903377,-0.229224 -17.098142,2.719 -4.60107,2.585117 -6.287559,8.378263 -5.44946,13.342637 0.713244,5.103792 4.854386,9.379547 9.894783,10.365512 3.920798,0.768132 8.237236,0.57214 11.818003,-1.338949 1.094014,-0.935408 2.049508,-2.052355 1.721345,-0.0257 0.12476,1.301034 1.471668,1.980721 2.667779,1.78125 3.599475,-0.02067 7.205802,0.04145 10.800971,-0.03125 1.272612,-0.237221 1.766001,-1.589957 1.59375,-2.747825 C 67.32048,59.151578 67.39179,52.080651 67.3053,45.012354 67.139046,40.771001 65.807308,36.382344 62.698672,33.381872 58.762927,29.685056 53.003514,29.04288 47.84375,29 Z m 0.75,23.6875 c 1.1875,0 2.375,0 3.5625,0 -0.06666,2.87591 -2.74214,5.425666 -5.661953,5.017489 -2.059721,0.263833 -3.673699,-2.185894 -2.352585,-3.850581 1.209291,-1.0378 2.935133,-1.127257 4.452038,-1.166908 z"
       inkscape:connector-curvature="0"
       id="path42"
       style="opacity:0.1;fill:black;fill-opacity:1;stroke:none" />
    <path
       d="m 47.84375,30 c -2.413822,3.7e-5 -4.841856,0.157386 -7.25,0.46875 -2.406689,0.290494 -4.80155,0.700355 -7.1875,1.28125 a 1.0147292,1.0147292 0 0 0 -0.75,1 l 0,8.34375 A 1.0147292,1.0147292 0 0 0 34.125,42 c 1.648126,-0.891904 3.432289,-1.548641 5.375,-2 1.93976,-0.45063 4.06866,-0.718724 6.34375,-0.71875 2.804013,2.6e-5 4.781849,0.441157 5.875,1.09375 a 1.0147292,1.0147292 0 0 0 0.03125,0 c 1.03406,0.601946 1.462329,1.423257 1.5,2.78125 l -5.40625,0 c -6.025234,2.1e-5 -10.569715,0.901957 -13.625,2.96875 -3.033879,2.067549 -4.562503,5.436623 -4.5625,9.6875 -3e-6,3.532906 1.225251,6.577337 3.625,8.84375 C 35.702158,66.899493 38.87729,68 42.625,68 c 2.752747,0 5.173382,-0.470574 7.1875,-1.5 1.268559,-0.662481 2.394684,-1.65775 3.46875,-2.78125 l 0,3.28125 a 1.0147292,1.0147292 0 0 0 1,1 l 11.0625,0 a 1.0147292,1.0147292 0 0 0 1,-1 l 0,-20.4375 c -4e-5,-5.64762 -1.440862,-9.912933 -4.46875,-12.59375 l 0.03125,-0.03125 c -0.0062,-0.0056 -0.02499,0.0056 -0.03125,0 C 58.858037,31.248117 54.149795,30.000037 47.84375,30 Z m 0.75,21.6875 4.6875,0 0,0.25 c -2.4e-5,2.016039 -0.610438,3.570177 -1.84375,4.875 -1.232651,1.277241 -2.662771,1.906255 -4.46875,1.90625 -1.49728,5e-6 -2.504282,-0.34727 -3.21875,-0.9375 -0.695292,-0.602579 -1.031263,-1.334817 -1.03125,-2.5 -1.2e-5,-1.252242 0.393568,-1.991392 1.28125,-2.59375 0.909537,-0.606355 2.42069,-0.999986 4.59375,-1 z"
       id="path44"
       inkscape:connector-curvature="0"
       style="opacity:0.15;fill:black;fill-opacity:1;stroke:none" />
    <path
       d="m 48.596939,50.683675 c -2.28573,1.5e-5 -4.01022,0.387771 -5.173468,1.163265 -1.142873,0.775524 -1.714301,1.91838 -1.714286,3.428571 -1.5e-5,1.387764 0.459181,2.479599 1.377552,3.275511 0.938757,0.775518 2.234676,1.163271 3.887751,1.163265 2.061201,6e-6 3.795894,-0.734688 5.204082,-2.204082 1.408137,-1.489785 2.112219,-3.346926 2.112246,-5.571429 l 0,-1.255101 -5.693877,0 m 16.744896,-4.132653 0,20.448978 -11.051019,0 0,-5.969388 c -1.469415,2.081637 -3.122475,3.60204 -4.959186,4.561227 C 47.49488,66.530611 45.260186,67 42.627551,67 c -3.551031,0 -6.438783,-1.030608 -8.663264,-3.091839 -2.204086,-2.081622 -3.306125,-4.775499 -3.306122,-8.081628 -3e-6,-4.020396 1.377547,-6.969372 4.132652,-8.84694 2.775501,-1.877529 7.122437,-2.816304 13.040816,-2.816325 l 6.459183,0 0,-0.857145 c -2.7e-5,-1.734669 -0.683697,-2.999973 -2.051019,-3.795918 -1.36737,-0.816297 -3.500022,-1.224462 -6.397962,-1.224489 -2.346951,2.7e-5 -4.530625,0.23472 -6.551018,0.704082 -2.020417,0.469413 -3.897966,1.173495 -5.632653,2.112243 l 0,-8.357142 c 2.34693,-0.571395 4.704071,-0.999966 7.071429,-1.285713 2.367332,-0.306087 4.734674,-0.45915 7.10204,-0.459186 6.183648,3.6e-5 10.642824,1.224525 13.377552,3.67347 2.755062,2.428599 4.132611,6.38778 4.13265,11.877549"
       inkscape:connector-curvature="0"
       id="path46"
       style="opacity:0.3;fill:black;fill-opacity:1;stroke:none" />
    <path
       d="m 48.596939,49.683675 c -2.28573,1.5e-5 -4.01022,0.387771 -5.173468,1.163265 -1.142873,0.775524 -1.714301,1.91838 -1.714286,3.428571 -1.5e-5,1.387764 0.459181,2.479599 1.377552,3.275511 0.938757,0.775518 2.234676,1.163271 3.887751,1.163265 2.061201,6e-6 3.795894,-0.734688 5.204082,-2.204082 1.408137,-1.489785 2.112219,-3.346926 2.112246,-5.571429 l 0,-1.255101 -5.693877,0 m 16.744896,-4.132653 0,20.448978 -11.051019,0 0,-5.969388 c -1.469415,2.081637 -3.122475,3.60204 -4.959186,4.561227 C 47.49488,65.530611 45.260186,66 42.627551,66 c -3.551031,0 -6.438783,-1.030608 -8.663264,-3.091839 -2.204086,-2.081622 -3.306125,-4.775499 -3.306122,-8.081628 -3e-6,-4.020396 1.377547,-6.969372 4.132652,-8.84694 2.775501,-1.877529 7.122437,-2.816304 13.040816,-2.816325 l 6.459183,0 0,-0.857145 c -2.7e-5,-1.734669 -0.683697,-2.999973 -2.051019,-3.795918 -1.36737,-0.816297 -3.500022,-1.224462 -6.397962,-1.224489 -2.346951,2.7e-5 -4.530625,0.23472 -6.551018,0.704082 -2.020417,0.469413 -3.897966,1.173495 -5.632653,2.112243 l 0,-8.357142 c 2.34693,-0.571395 4.704071,-0.999966 7.071429,-1.285713 2.367332,-0.306087 4.734674,-0.45915 7.10204,-0.459186 6.183648,3.6e-5 10.642824,1.224525 13.377552,3.67347 2.755062,2.428599 4.132611,6.38778 4.13265,11.877549"
       inkscape:connector-curvature="0"
       id="path60"
       style="fill:url(#linearGradient3034);fill-opacity:1;stroke:none" />
    <path
       d="m 47.84375,30 c -2.367366,3.6e-5 -4.757668,0.162663 -7.125,0.46875 -2.367358,0.285747 -4.71557,0.709855 -7.0625,1.28125 l 0,1 c 2.34693,-0.571395 4.695142,-0.995503 7.0625,-1.28125 2.367332,-0.306087 4.757634,-0.468714 7.125,-0.46875 6.183648,3.6e-5 10.640272,1.238555 13.375,3.6875 2.755062,2.428599 4.124961,6.385231 4.125,11.875 l 0,-1 c -3.9e-5,-5.489769 -1.369938,-9.446401 -4.125,-11.875 C 58.484022,31.238555 54.027398,30.000036 47.84375,30 Z m 0,13.15625 c -5.918379,2.1e-5 -10.286999,0.934971 -13.0625,2.8125 -2.755105,1.877568 -4.125003,4.823354 -4.125,8.84375 0,0.159074 0.02615,0.312511 0.03125,0.46875 0.121468,-3.740071 1.466004,-6.521725 4.09375,-8.3125 2.775501,-1.877529 7.144121,-2.812479 13.0625,-2.8125 l 6.4375,0 0,-0.84375 c -10e-7,-0.05407 0.0013,-0.103089 0,-0.15625 l -6.4375,0 z m 6.4375,7.78125 c -2.7e-5,2.224503 -0.685613,4.072715 -2.09375,5.5625 -1.408188,1.469394 -3.157549,2.218756 -5.21875,2.21875 -1.653075,6e-6 -2.936243,-0.380732 -3.875,-1.15625 C 42.286488,56.862881 41.847658,55.906924 41.75,54.75 c -0.01593,0.168076 -0.03125,0.352931 -0.03125,0.53125 -1.5e-5,1.387764 0.456629,2.485338 1.375,3.28125 0.938757,0.775518 2.221925,1.156256 3.875,1.15625 2.061201,6e-6 3.810562,-0.749356 5.21875,-2.21875 1.408137,-1.489785 2.093723,-3.337997 2.09375,-5.5625 l 0,-1 z"
       inkscape:connector-curvature="0"
       id="path62"
       style="opacity:0.75;fill:white;fill-opacity:1;stroke:none" />
    <path
       d="m 45.84375,36.28125 c -2.346951,2.7e-5 -4.542107,0.249388 -6.5625,0.71875 -2.020417,0.469413 -3.890313,1.155002 -5.625,2.09375 l 0,1 c 1.734687,-0.938748 3.604583,-1.624337 5.625,-2.09375 2.020393,-0.469362 4.215549,-0.718723 6.5625,-0.71875 2.89794,2.7e-5 5.03888,0.402453 6.40625,1.21875 1.3247,0.771134 1.989931,2.004004 2.03125,3.65625 l 0,-0.84375 C 54.281223,39.577831 53.617322,38.295945 52.25,37.5 50.88263,36.683703 48.74169,36.281277 45.84375,36.28125 Z m 2.75,12.40625 c -2.28573,1.5e-5 -3.993002,0.380756 -5.15625,1.15625 -1.142873,0.775524 -1.718765,1.927309 -1.71875,3.4375 -2e-6,0.156753 0.01953,0.288299 0.03125,0.4375 0.12499,-1.241063 0.687486,-2.196417 1.6875,-2.875 1.163248,-0.775494 2.87052,-1.156235 5.15625,-1.15625 l 5.6875,0 0,-1 -5.6875,0 z M 30.6875,54.28125 c -0.0059,0.18127 -0.03125,0.345402 -0.03125,0.53125 -3e-6,3.306129 1.108414,6.012128 3.3125,8.09375 C 36.193231,64.967481 39.073969,66 42.625,66 c 2.632635,0 4.882,-0.467478 6.71875,-1.40625 1.836711,-0.959187 3.468085,-2.480863 4.9375,-4.5625 l 0,-1 c -1.469415,2.081637 -3.100789,3.603313 -4.9375,4.5625 C 47.507,64.532522 45.257635,65 42.625,65 39.073969,65 36.193231,63.967481 33.96875,61.90625 31.870713,59.924785 30.788444,57.372223 30.6875,54.28125 Z M 54.28125,65 l 0,1 11.0625,0 0,-1 -11.0625,0 z"
       inkscape:connector-curvature="0"
       id="path64"
       style="opacity:0.15;fill:black;fill-opacity:1;stroke:none" />
  </g>
</svg>
