<?xml version="1.0" encoding="UTF-8" standalone="no"?>
<svg
   xmlns:dc="http://purl.org/dc/elements/1.1/"
   xmlns:cc="http://creativecommons.org/ns#"
   xmlns:rdf="http://www.w3.org/1999/02/22-rdf-syntax-ns#"
   xmlns:svg="http://www.w3.org/2000/svg"
   xmlns="http://www.w3.org/2000/svg"
   xmlns:xlink="http://www.w3.org/1999/xlink"
   xmlns:sodipodi="http://sodipodi.sourceforge.net/DTD/sodipodi-0.dtd"
   xmlns:inkscape="http://www.inkscape.org/namespaces/inkscape"
   display="inline"
   height="96"
   width="96"
   id="svg2"
   version="1.1"
   inkscape:version="0.91 r13725"
   sodipodi:docname="format-justify-left.svg">
  <metadata
     id="metadata51">
    <rdf:RDF>
      <cc:Work
         rdf:about="">
        <dc:format>image/svg+xml</dc:format>
        <dc:type
           rdf:resource="http://purl.org/dc/dcmitype/StillImage" />
      </cc:Work>
    </rdf:RDF>
  </metadata>
  <sodipodi:namedview
     pagecolor="#ffffff"
     bordercolor="#666666"
     borderopacity="1"
     objecttolerance="10"
     gridtolerance="10"
     guidetolerance="10"
     inkscape:pageopacity="0"
     inkscape:pageshadow="2"
     inkscape:window-width="640"
     inkscape:window-height="480"
     id="namedview49"
     showgrid="false"
     inkscape:zoom="9.8333333"
     inkscape:cx="35.749182"
     inkscape:cy="18.697622"
     inkscape:window-x="94"
     inkscape:window-y="68"
     inkscape:window-maximized="0"
     inkscape:current-layer="svg2" />
  <defs
     id="defs4">
    <linearGradient
       x2="0"
       y1="72.09"
       y2="23.729"
       gradientUnits="userSpaceOnUse"
       id="linearGradient3746"
       gradientTransform="matrix(1.9400763,0,0,1.5358912,-54.827451,-27.224254)">
      <stop
         stop-color="#4d4d4d"
         stop-opacity="1"
         id="stop7" />
      <stop
         stop-color="#1a1a1a"
         stop-opacity="1"
         offset="1"
         id="stop9" />
    </linearGradient>
    <radialGradient
       cy="90.17"
       r="42"
       gradientUnits="userSpaceOnUse"
       id="radialGradient3619-2"
       cx="48"
       gradientTransform="matrix(1.15731 0 0 0.99591 -7.551 0.197)">
      <stop
         stop-color="#ffffff"
         stop-opacity="1"
         id="stop12" />
      <stop
         stop-color="#ffffff"
         stop-opacity="0"
         offset="1"
         id="stop14" />
    </radialGradient>
    <linearGradient
       x2="0"
       y1="92.54"
       y2="7.02"
       gradientUnits="userSpaceOnUse"
       id="ButtonShadow-0"
       gradientTransform="matrix(1.0059 0 0 0.99417 100 0)">
      <stop
         stop-color="#000000"
         stop-opacity="1"
         id="stop17" />
      <stop
         stop-color="#000000"
         stop-opacity="0.588"
         offset="1"
         id="stop19" />
    </linearGradient>
    <linearGradient
       x2="0"
       xlink:href="#ButtonShadow-0"
       y1="6.132"
       y2="90.24"
       gradientUnits="userSpaceOnUse"
       id="linearGradient3780"
       gradientTransform="matrix(1.02381 0 0 -1.0119 -1.143 98.07)" />
    <linearGradient
       x2="0"
       xlink:href="#ButtonShadow-0"
       y1="6.132"
       y2="90.24"
       gradientUnits="userSpaceOnUse"
       id="linearGradient3721-9"
       gradientTransform="matrix(1 0 0 -1 0 97)" />
  </defs>
  <path
     style="fill:url(#linearGradient3746);fill-opacity:1;stroke:none"
     d="m 11.134469,9.6371348 0,9.2153472 58.363865,0 0,-9.2153472 z m 0,15.3589122 0,9.215347 73.722777,0 0,-9.215347 z m 0,15.358912 0,9.215347 43.004953,0 0,-9.215347 z m 12.287129,16.894803 -12.287129,12.28713 12.287129,13.82302 0,-9.215347 21.502477,0 0,-9.215347 -21.502477,0 z"
     inkscape:connector-curvature="0"
     id="path43" />
  <path
     style="opacity:0.75;fill:#ffffff;fill-opacity:1;stroke:none"
     d="m 11.134469,9.6371348 0,1.5358912 58.363865,0 0,-1.5358912 -58.363865,0 z m 0,15.3589122 0,1.535891 73.722777,0 0,-1.535891 -73.722777,0 z m 0,15.358912 0,1.535891 43.004953,0 0,-1.535891 -43.004953,0 z m 12.287129,16.894803 -12.287129,12.28713 0.719949,0.815942 11.56718,-11.567181 0,-1.535891 z m 0,7.679456 0,1.535891 21.502477,0 0,-1.535891 -21.502477,0 z"
     inkscape:connector-curvature="0"
     id="path45" />
  <path
     style="opacity:0.15;fill:#000000;fill-opacity:1;stroke:none"
     d="m 11.134469,17.316591 0,1.535891 58.363865,0 0,-1.535891 -58.363865,0 z m 0,15.358912 0,1.535891 73.722777,0 0,-1.535891 -73.722777,0 z m 0,15.358912 0,1.535891 43.004953,0 0,-1.535891 -43.004953,0 z m 0.719949,20.782528 -0.719949,0.719949 12.287129,13.82302 0,-1.535891 -11.56718,-13.007078 z m 11.56718,3.791731 0,1.535891 21.502477,0 0,-1.535891 -21.502477,0 z"
     inkscape:connector-curvature="0"
     id="path47" />
</svg>
