<svg height="96" width="96" xmlns="http://www.w3.org/2000/svg" xmlns:xlink="http://www.w3.org/1999/xlink" xmlns:sodipodi="http://sodipodi.sourceforge.net/DTD/sodipodi-0.dtd" xmlns:inkscape="http://www.inkscape.org/namespaces/inkscape">
 <defs>
  <linearGradient x2="0" y1="92.54" y2="7.02" gradientUnits="userSpaceOnUse" id="ButtonShadow-0" gradientTransform="matrix(1.0059 0 0 0.99417 100 0)">
   <stop stop-color="#000000" stop-opacity="1"/>
   <stop stop-color="#000000" stop-opacity="0.588" offset="1"/>
  </linearGradient>
  <linearGradient x2="0" xlink:href="#ButtonShadow-0" y1="6.132" y2="90.24" gradientUnits="userSpaceOnUse" id="linearGradient3780" gradientTransform="matrix(1.02381 0 0 -1.0119 -1.143 98.07)"/>
  <linearGradient x2="0" xlink:href="#ButtonShadow-0" y1="6.132" y2="90.24" gradientUnits="userSpaceOnUse" id="linearGradient3721" gradientTransform="matrix(1 0 0 -1 0 97)"/>
  <radialGradient cy="90.17" r="42" gradientUnits="userSpaceOnUse" id="radialGradient3619-3" cx="48" gradientTransform="matrix(1.15731 0 0 0.99591 -7.551 0.197)">
   <stop stop-color="#ffffff" stop-opacity="1"/>
   <stop stop-color="#ffffff" stop-opacity="0" offset="1"/>
  </radialGradient>
  <linearGradient x2="0" y1="4" y2="18.04" gradientUnits="userSpaceOnUse" id="linearGradient3042" gradientTransform="matrix(-3 0 0 3 81 16)">
   <stop stop-color="#f0f0f0" stop-opacity="1"/>
   <stop stop-color="#aaaaaa" stop-opacity="1" offset="1"/>
  </linearGradient>
  <rect x="6" rx="6" y="6" fill="#000000" fill-opacity="1" stroke="none" fill-rule="nonzero" height="84" id="SVGCleanerId_0" opacity="0.6" width="84"/>
 </defs>
 <path d="M 12,3.96875 C 6.4889098,3.96875 1.96875,8.4889098 1.96875,14 l 0,71 c 0,5.51109 4.5201597,10.03125 10.03125,10.03125 l 72,0 c 5.51109,0 10.03125,-4.52016 10.03125,-10.03125 l 0,-71 C 94.03125,8.4889097 89.51109,3.96875 84,3.96875 l -72,0 z M 12,6 84,6 c 3.324,0 6,2.676 6,6 l 0,72 c 0,3.324 -2.676,6 -6,6 L 12,90 C 8.676,90 6,87.324 6,84 L 6,12 C 6,8.676 8.676,6 12,6 z" display="inline" fill="url(#linearGradient3780)" fill-opacity="1" fill-rule="nonzero" stroke="none" opacity="0.08" inkscape:connector-curvature="0"/>
 <path d="M 12,4.96875 C 7.0283671,4.96875 2.96875,9.0283671 2.96875,14 l 0,71 c 0,4.971633 4.059617,9.03125 9.03125,9.03125 l 72,0 c 4.971633,0 9.03125,-4.059617 9.03125,-9.03125 l 0,-71 C 93.03125,9.028367 88.971633,4.96875 84,4.96875 l -72,0 z M 12,6 84,6 c 3.324,0 6,2.676 6,6 l 0,72 c 0,3.324 -2.676,6 -6,6 L 12,90 C 8.676,90 6,87.324 6,84 L 6,12 C 6,8.676 8.676,6 12,6 z" display="inline" fill="url(#linearGradient3780)" fill-opacity="1" fill-rule="nonzero" stroke="none" opacity="0.1" inkscape:connector-curvature="0"/>
 <path d="M 11.1875,6.03125 C 7.159982,6.4419011 4,9.8664375 4,14 l 0,71 c 0,4.409133 3.590867,8 8,8 l 72,0 c 4.409133,0 8,-3.590867 8,-8 L 92,14 C 92,9.8029382 88.741028,6.3539584 84.625,6.03125 87.657886,6.337417 90,8.88375 90,12 l 0,72 c 0,3.324 -2.676,6 -6,6 L 12,90 C 8.676,90 6,87.324 6,84 L 6,12 c 0,-3.11625 2.342114,-5.662583 5.375,-5.96875 -0.06227,0.00488 -0.12563,-0.00631 -0.1875,0 z" display="inline" fill="url(#linearGradient3780)" fill-opacity="1" fill-rule="nonzero" stroke="none" opacity="0.2" inkscape:connector-curvature="0"/>
 <path d="M 6.4375,9.75 C 5.5380109,10.927446 5,12.397277 5,14 l 0,71 c 0,3.878 3.122,7 7,7 l 72,0 c 3.878,0 7,-3.122 7,-7 L 91,14 C 91,12.397277 90.461989,10.927446 89.5625,9.75 89.841816,10.444095 90,11.203625 90,12 l 0,72 c 0,3.324 -2.676,6 -6,6 L 12,90 C 8.676,90 6,87.324 6,84 L 6,12 C 6,11.203625 6.1581836,10.444095 6.4375,9.75 z" display="inline" fill="url(#linearGradient3780)" fill-opacity="1" fill-rule="nonzero" stroke="none" opacity="0.3" inkscape:connector-curvature="0"/>
 <path d="m 6,84 0,1 c 0,3.324 2.676,6 6,6 l 72,0 c 3.324,0 6,-2.676 6,-6 l 0,-1 c 0,3.324 -2.676,6 -6,6 L 12,90 C 8.676,90 6,87.324 6,84 z" display="inline" fill="url(#linearGradient3721)" fill-opacity="1" fill-rule="nonzero" stroke="none" opacity="0.45" inkscape:connector-curvature="0"/>
 <g display="inline">
  <use xlink:href="#SVGCleanerId_0"/>
  <path d="M 12,90 C 8.676,90 6,87.324 6,84 L 6,82 6,14 6,12 c 0,-0.334721 0.04135,-0.6507 0.09375,-0.96875 0.0487,-0.295596 0.09704,-0.596915 0.1875,-0.875 C 6.29113,10.12587 6.302142,10.09265 6.3125,10.0625 6.411365,9.774729 6.5473802,9.515048 6.6875,9.25 6.8320918,8.976493 7.0031161,8.714385 7.1875,8.46875 7.3718839,8.223115 7.5612765,7.995278 7.78125,7.78125 8.221197,7.353194 8.72416,6.966724 9.28125,6.6875 9.559795,6.547888 9.8547231,6.440553 10.15625,6.34375 9.9000482,6.443972 9.6695391,6.580022 9.4375,6.71875 c -0.00741,0.0044 -0.023866,-0.0045 -0.03125,0 -0.031933,0.0193 -0.062293,0.04251 -0.09375,0.0625 -0.120395,0.0767 -0.2310226,0.163513 -0.34375,0.25 -0.1061728,0.0808 -0.2132809,0.161112 -0.3125,0.25 C 8.4783201,7.442683 8.3087904,7.626638 8.15625,7.8125 8.0486711,7.942755 7.9378561,8.077785 7.84375,8.21875 7.818661,8.25713 7.805304,8.30462 7.78125,8.34375 7.716487,8.446782 7.6510225,8.548267 7.59375,8.65625 7.4927417,8.850956 7.3880752,9.071951 7.3125,9.28125 7.30454,9.30306 7.288911,9.3218 7.28125,9.34375 7.2494249,9.4357 7.2454455,9.530581 7.21875,9.625 7.1884177,9.731618 7.1483606,9.828031 7.125,9.9375 7.0521214,10.279012 7,10.635705 7,11 l 0,2 0,68 0,2 c 0,2.781848 2.2181517,5 5,5 l 2,0 68,0 2,0 c 2.781848,0 5,-2.218152 5,-5 l 0,-2 0,-68 0,-2 C 89,10.635705 88.94788,10.279012 88.875,9.9375 88.83085,9.730607 88.78662,9.539842 88.71875,9.34375 88.71105,9.3218 88.69545,9.30306 88.6875,9.28125 88.62476,9.107511 88.549117,8.913801 88.46875,8.75 88.42717,8.6672 88.38971,8.580046 88.34375,8.5 88.28915,8.40279 88.216976,8.31165 88.15625,8.21875 88.06214,8.077785 87.951329,7.942755 87.84375,7.8125 87.700576,7.63805 87.540609,7.465502 87.375,7.3125 87.36383,7.3023 87.35502,7.29135 87.34375,7.28125 87.205364,7.155694 87.058659,7.046814 86.90625,6.9375 86.803679,6.86435 86.701932,6.784136 86.59375,6.71875 c -0.0074,-0.0045 -0.02384,0.0044 -0.03125,0 -0.232039,-0.138728 -0.462548,-0.274778 -0.71875,-0.375 0.301527,0.0968 0.596455,0.204138 0.875,0.34375 0.55709,0.279224 1.060053,0.665694 1.5,1.09375 0.219973,0.214028 0.409366,0.441865 0.59375,0.6875 0.184384,0.245635 0.355408,0.507743 0.5,0.78125 0.14012,0.265048 0.276135,0.524729 0.375,0.8125 0.01041,0.03078 0.02133,0.06274 0.03125,0.09375 0.09046,0.278085 0.1388,0.579404 0.1875,0.875 C 89.95865,11.3493 90,11.665279 90,12 l 0,2 0,68 0,2 c 0,3.324 -2.676,6 -6,6 l -72,0 z" fill="url(#radialGradient3619-3)" fill-opacity="1" fill-rule="nonzero" stroke="none" opacity="0.15" inkscape:connector-curvature="0"/>
 </g>
 <g display="inline">
  <path d="m 23.625,26.96875 c -8.32e-4,1.53e-4 -0.155435,0.06227 -0.15625,0.0625 -8.15e-4,2.25e-4 -0.186708,0.0622 -0.1875,0.0625 -7.92e-4,2.96e-4 -0.155487,0.06214 -0.15625,0.0625 -7.63e-4,3.64e-4 -0.155522,0.06207 -0.15625,0.0625 -7.28e-4,4.3e-4 -0.155562,0.124508 -0.15625,0.125 -6.88e-4,4.92e-4 -0.124358,0.0932 -0.125,0.09375 -6.42e-4,5.51e-4 -0.155659,0.124395 -0.15625,0.125 -5.91e-4,6.05e-4 -0.09321,0.124345 -0.09375,0.125 -5.36e-4,6.55e-4 -0.124524,0.155551 -0.125,0.15625 -4.76e-4,6.99e-4 -0.09334,0.155512 -0.09375,0.15625 -4.13e-4,7.38e-4 -0.06215,0.155478 -0.0625,0.15625 -3.46e-4,7.72e-4 -0.06222,0.155451 -0.0625,0.15625 -2.77e-4,7.99e-4 -0.06229,0.18668 -0.0625,0.1875 -2.06e-4,8.2e-4 -0.03112,0.155415 -0.03125,0.15625 -1.33e-4,8.35e-4 -0.03119,0.186656 -0.03125,0.1875 -4.9e-5,7.03e-4 0.0011,0.114819 0,0.15625 -2.13e-4,0.0083 -3e-6,0.03111 0,0.03125 l 0,5.96875 c -1e-6,9.46e-4 -9.2e-5,0.186559 0,0.1875 9.2e-5,9.41e-4 0.03107,0.217822 0.03125,0.21875 1.84e-4,9.28e-4 0.06223,0.186595 0.0625,0.1875 2.74e-4,9.05e-4 0.06214,0.186626 0.0625,0.1875 3.61e-4,8.74e-4 0.09331,0.186666 0.09375,0.1875 4.45e-4,8.34e-4 0.09323,0.155463 0.09375,0.15625 5.25e-4,7.87e-4 0.1244,0.155519 0.125,0.15625 6e-4,7.31e-4 0.124331,0.155581 0.125,0.15625 6.69e-4,6.69e-4 0.155519,0.1244 0.15625,0.125 7.31e-4,6e-4 0.155463,0.124475 0.15625,0.125 7.87e-4,5.25e-4 0.155416,0.09331 0.15625,0.09375 8.34e-4,4.45e-4 0.186626,0.09339 0.1875,0.09375 8.74e-4,3.61e-4 0.186595,0.06223 0.1875,0.0625 9.05e-4,2.74e-4 0.186572,0.06232 0.1875,0.0625 9.28e-4,1.84e-4 0.217809,0.03116 0.21875,0.03125 9.41e-4,9.2e-5 0.186554,10e-7 0.1875,0 l 32,0 c 9.46e-4,10e-7 0.186559,9.2e-5 0.1875,0 9.41e-4,-9.2e-5 0.217822,-0.03107 0.21875,-0.03125 9.28e-4,-1.84e-4 0.186595,-0.06223 0.1875,-0.0625 9.05e-4,-2.74e-4 0.186626,-0.06214 0.1875,-0.0625 8.74e-4,-3.61e-4 0.186666,-0.09331 0.1875,-0.09375 8.34e-4,-4.45e-4 0.155463,-0.09322 0.15625,-0.09375 7.87e-4,-5.25e-4 0.155519,-0.1244 0.15625,-0.125 7.31e-4,-6e-4 0.155581,-0.124331 0.15625,-0.125 6.69e-4,-6.69e-4 0.1244,-0.155519 0.125,-0.15625 6e-4,-7.31e-4 0.124475,-0.155463 0.125,-0.15625 5.25e-4,-7.87e-4 0.09331,-0.155416 0.09375,-0.15625 4.45e-4,-8.34e-4 0.09339,-0.186626 0.09375,-0.1875 3.61e-4,-8.74e-4 0.06223,-0.186595 0.0625,-0.1875 2.74e-4,-9.05e-4 0.06232,-0.186572 0.0625,-0.1875 1.84e-4,-9.28e-4 0.03116,-0.217809 0.03125,-0.21875 9.2e-5,-9.41e-4 10e-7,-0.186554 0,-0.1875 l 0,-6 c 10e-7,-9.46e-4 9.2e-5,-0.186559 0,-0.1875 -9.2e-5,-9.41e-4 -0.03107,-0.217822 -0.03125,-0.21875 -1.84e-4,-9.28e-4 -0.06223,-0.186595 -0.0625,-0.1875 -2.74e-4,-9.05e-4 -0.06214,-0.186626 -0.0625,-0.1875 -3.61e-4,-8.74e-4 -0.09331,-0.186666 -0.09375,-0.1875 -4.45e-4,-8.34e-4 -0.09322,-0.155463 -0.09375,-0.15625 -5.25e-4,-7.87e-4 -0.1244,-0.155519 -0.125,-0.15625 -6e-4,-7.31e-4 -0.124331,-0.155581 -0.125,-0.15625 -6.69e-4,-6.69e-4 -0.155519,-0.1244 -0.15625,-0.125 -7.31e-4,-6e-4 -0.155463,-0.124475 -0.15625,-0.125 -7.87e-4,-5.25e-4 -0.155416,-0.09331 -0.15625,-0.09375 -8.34e-4,-4.45e-4 -0.186626,-0.09339 -0.1875,-0.09375 -8.74e-4,-3.61e-4 -0.186595,-0.06223 -0.1875,-0.0625 -9.05e-4,-2.74e-4 -0.186572,-0.06232 -0.1875,-0.0625 -9.28e-4,-1.84e-4 -0.217809,-0.03116 -0.21875,-0.03125 -9.41e-4,-9.2e-5 -0.186554,-1e-6 -0.1875,0 l -31.96875,0 c -1.75e-4,-8e-6 -0.01941,5e-6 -0.03125,0 -0.02368,-10e-6 -0.02716,-3e-6 -0.0625,0 -3.5e-4,-1.6e-5 -0.02716,3e-6 -0.0625,0 -0.05301,-5e-6 -0.09323,-2.4e-5 -0.09375,0 a 1.0011302,1.0011302 0 0 0 -0.15625,0 z m 0.0625,12 C 23.686649,38.968879 23.500836,38.999795 23.5,39 c -8.36e-4,2.05e-4 -0.155435,0.06222 -0.15625,0.0625 -8.15e-4,2.79e-4 -0.186714,0.06215 -0.1875,0.0625 -7.86e-4,3.51e-4 -0.155498,0.09333 -0.15625,0.09375 -7.52e-4,4.2e-4 -0.155539,0.09327 -0.15625,0.09375 -7.11e-4,4.85e-4 -0.124335,0.0932 -0.125,0.09375 -6.65e-4,5.47e-4 -0.155636,0.124396 -0.15625,0.125 -6.14e-4,6.04e-4 -0.124443,0.155593 -0.125,0.15625 -5.57e-4,6.57e-4 -0.09325,0.124296 -0.09375,0.125 -4.96e-4,7.04e-4 -0.09332,0.155505 -0.09375,0.15625 -4.31e-4,7.45e-4 -0.09339,0.155469 -0.09375,0.15625 -3.63e-4,7.81e-4 -0.06221,0.18669 -0.0625,0.1875 -2.92e-4,8.1e-4 -0.06228,0.155417 -0.0625,0.15625 -2.18e-4,8.33e-4 -0.03111,0.186651 -0.03125,0.1875 -1.43e-4,8.49e-4 -0.03118,0.186641 -0.03125,0.1875 -6.6e-5,8.59e-4 -1.1e-5,0.155389 0,0.15625 l 0,18 c 3e-6,6.67e-4 -4.9e-5,0.155585 0,0.15625 4.9e-5,6.65e-4 0.03115,0.12434 0.03125,0.125 9.5e-5,6.6e-4 -1.41e-4,0.155598 0,0.15625 1.41e-4,6.52e-4 0.06231,0.124359 0.0625,0.125 1.86e-4,6.41e-4 0.03102,0.124374 0.03125,0.125 2.3e-4,6.26e-4 0.06223,0.124391 0.0625,0.125 2.73e-4,6.09e-4 0.06219,0.124412 0.0625,0.125 3.14e-4,5.88e-4 0.06215,0.124435 0.0625,0.125 3.54e-4,5.65e-4 0.06211,0.124461 0.0625,0.125 3.93e-4,5.39e-4 0.09332,0.124489 0.09375,0.125 4.29e-4,5.11e-4 0.09329,0.09327 0.09375,0.09375 4.63e-4,4.8e-4 0.09325,0.0933 0.09375,0.09375 4.96e-4,4.47e-4 0.124475,0.09334 0.125,0.09375 5.25e-4,4.11e-4 0.124447,0.09338 0.125,0.09375 5.53e-4,3.74e-4 0.09317,0.06217 0.09375,0.0625 5.77e-4,3.35e-4 0.124401,0.06221 0.125,0.0625 5.99e-4,2.94e-4 0.124382,0.06225 0.125,0.0625 6.18e-4,2.52e-4 0.155616,0.06229 0.15625,0.0625 6.34e-4,2.08e-4 0.124353,0.03109 0.125,0.03125 6.47e-4,1.64e-4 0.124343,0.03113 0.125,0.03125 6.57e-4,1.19e-4 0.155587,-7.3e-5 0.15625,0 6.63e-4,7.3e-5 0.124333,0.03122 0.125,0.03125 6.67e-4,2.7e-5 0.155583,2e-5 0.15625,0 6.67e-4,-2e-5 0.124336,6.6e-5 0.125,0 6.64e-4,-6.6e-5 0.155592,-0.03114 0.15625,-0.03125 6.58e-4,-1.12e-4 0.124352,-0.03109 0.125,-0.03125 6.48e-4,-1.57e-4 0.155614,-0.03105 0.15625,-0.03125 6.36e-4,-2.02e-4 0.12438,-0.06226 0.125,-0.0625 6.2e-4,-2.45e-4 0.124398,-0.06221 0.125,-0.0625 6.02e-4,-2.88e-4 0.124419,-0.06217 0.125,-0.0625 5.81e-4,-3.29e-4 0.124444,-0.06213 0.125,-0.0625 4.64e-4,-3.07e-4 0.06713,-0.04351 0.09375,-0.0625 l 12,-9 A 1.0011302,1.0011302 0 0 0 37.25,51.59375 c 4.31e-4,-3.36e-4 0.09334,-0.06214 0.09375,-0.0625 4.11e-4,-3.6e-4 0.06211,-0.09337 0.0625,-0.09375 3.9e-4,-3.82e-4 0.09338,-0.0621 0.09375,-0.0625 3.68e-4,-4.04e-4 0.06216,-0.09333 0.0625,-0.09375 3.44e-4,-4.24e-4 0.06218,-0.09331 0.0625,-0.09375 3.2e-4,-4.43e-4 0.09346,-0.09329 0.09375,-0.09375 2.94e-4,-4.61e-4 0.03098,-0.09327 0.03125,-0.09375 2.67e-4,-4.77e-4 0.06226,-0.09326 0.0625,-0.09375 2.4e-4,-4.91e-4 0.06229,-0.124496 0.0625,-0.125 2.12e-4,-5.04e-4 0.03107,-0.09323 0.03125,-0.09375 1.83e-4,-5.15e-4 0.0311,-0.124475 0.03125,-0.125 1.53e-4,-5.25e-4 0.03113,-0.09322 0.03125,-0.09375 1.23e-4,-5.32e-4 0.03116,-0.124461 0.03125,-0.125 9.3e-5,-5.39e-4 -6.2e-5,-0.124457 0,-0.125 6.2e-5,-5.43e-4 0.03122,-0.0932 0.03125,-0.09375 3.1e-5,-5.46e-4 0,-0.124454 0,-0.125 0,-5.46e-4 3.1e-5,-0.124454 0,-0.125 -3.1e-5,-5.46e-4 -0.03119,-0.09321 -0.03125,-0.09375 -6.2e-5,-5.43e-4 9.3e-5,-0.124461 0,-0.125 -9.3e-5,-5.39e-4 -0.03113,-0.124468 -0.03125,-0.125 -1.23e-4,-5.32e-4 -0.0311,-0.09322 -0.03125,-0.09375 -1.53e-4,-5.25e-4 -0.03107,-0.124485 -0.03125,-0.125 -1.83e-4,-5.15e-4 -0.03104,-0.09325 -0.03125,-0.09375 -2.12e-4,-5.04e-4 -0.06226,-0.124509 -0.0625,-0.125 -2.4e-4,-4.91e-4 -0.06223,-0.09327 -0.0625,-0.09375 -2.67e-4,-4.77e-4 -0.03096,-0.09329 -0.03125,-0.09375 -2.94e-4,-4.61e-4 -0.09343,-0.09331 -0.09375,-0.09375 -3.2e-4,-4.43e-4 -0.06216,-0.09333 -0.0625,-0.09375 -3.44e-4,-4.24e-4 -0.06213,-0.09335 -0.0625,-0.09375 -3.68e-4,-4.04e-4 -0.09336,-0.06212 -0.09375,-0.0625 -3.9e-4,-3.82e-4 -0.06209,-0.09339 -0.0625,-0.09375 -4.11e-4,-3.6e-4 -0.09332,-0.06216 -0.09375,-0.0625 A 1.0011302,1.0011302 0 0 0 37.21875,48.375 L 25.25,39.40625 c -1.46e-4,-1.17e-4 -0.01645,-0.01994 -0.03125,-0.03125 -0.02368,-0.0181 -0.06226,-0.03107 -0.0625,-0.03125 -3.94e-4,-2.86e-4 -0.06209,-0.06224 -0.0625,-0.0625 -4.08e-4,-2.65e-4 -0.09333,-0.06226 -0.09375,-0.0625 -4.21e-4,-2.44e-4 -0.09332,-0.03103 -0.09375,-0.03125 -4.33e-4,-2.23e-4 -0.09331,-0.0623 -0.09375,-0.0625 -4.43e-4,-2.01e-4 -0.0933,-0.03107 -0.09375,-0.03125 -4.53e-4,-1.78e-4 -0.09329,-0.0311 -0.09375,-0.03125 -4.61e-4,-1.55e-4 -0.09328,-0.03112 -0.09375,-0.03125 -4.69e-4,-1.31e-4 -0.09327,-0.03114 -0.09375,-0.03125 -4.75e-4,-1.07e-4 -0.12452,8.3e-5 -0.125,0 -4.8e-4,-8.3e-5 -0.09327,-0.03119 -0.09375,-0.03125 -4.83e-4,-5.9e-5 -0.09326,3.4e-5 -0.09375,0 -4.85e-4,-3.4e-5 -0.09326,1e-5 -0.09375,0 -4.87e-4,-1e-5 -0.124514,-1.5e-5 -0.125,0 -4.86e-4,1.5e-5 -0.09326,-3.9e-5 -0.09375,0 -4.85e-4,3.9e-5 -0.09327,-6.4e-5 -0.09375,0 a 1.0011302,1.0011302 0 0 0 -0.03125,0 z m 17.9375,0 c -8.32e-4,1.53e-4 -0.155435,0.06227 -0.15625,0.0625 -8.15e-4,2.25e-4 -0.186708,0.0622 -0.1875,0.0625 -7.92e-4,2.96e-4 -0.155487,0.06214 -0.15625,0.0625 -7.63e-4,3.64e-4 -0.155522,0.06207 -0.15625,0.0625 -7.28e-4,4.3e-4 -0.155562,0.124508 -0.15625,0.125 -6.88e-4,4.92e-4 -0.124358,0.0932 -0.125,0.09375 -6.42e-4,5.51e-4 -0.155659,0.124395 -0.15625,0.125 -5.91e-4,6.05e-4 -0.09321,0.124345 -0.09375,0.125 -5.36e-4,6.55e-4 -0.124524,0.155551 -0.125,0.15625 -4.76e-4,6.99e-4 -0.09334,0.155512 -0.09375,0.15625 -4.13e-4,7.38e-4 -0.06215,0.155478 -0.0625,0.15625 -3.46e-4,7.72e-4 -0.06222,0.155451 -0.0625,0.15625 -2.77e-4,7.99e-4 -0.06229,0.18668 -0.0625,0.1875 -2.06e-4,8.2e-4 -0.03112,0.155415 -0.03125,0.15625 -1.33e-4,8.35e-4 -0.03119,0.186656 -0.03125,0.1875 -4.9e-5,7.03e-4 0.0011,0.114819 0,0.15625 -2.13e-4,0.0083 -3e-6,0.03111 0,0.03125 l 0,5.96875 c -10e-7,9.46e-4 -9.2e-5,0.186559 0,0.1875 9.2e-5,9.41e-4 0.03107,0.217822 0.03125,0.21875 1.84e-4,9.28e-4 0.06223,0.186595 0.0625,0.1875 2.74e-4,9.05e-4 0.06214,0.186626 0.0625,0.1875 3.61e-4,8.74e-4 0.09331,0.186666 0.09375,0.1875 4.45e-4,8.34e-4 0.09322,0.155463 0.09375,0.15625 5.25e-4,7.87e-4 0.1244,0.155519 0.125,0.15625 6e-4,7.31e-4 0.124331,0.155581 0.125,0.15625 6.69e-4,6.69e-4 0.155519,0.1244 0.15625,0.125 7.31e-4,6e-4 0.155463,0.124475 0.15625,0.125 7.87e-4,5.25e-4 0.155416,0.09331 0.15625,0.09375 8.34e-4,4.45e-4 0.186626,0.09339 0.1875,0.09375 8.74e-4,3.61e-4 0.186595,0.06223 0.1875,0.0625 9.05e-4,2.74e-4 0.186572,0.06232 0.1875,0.0625 9.28e-4,1.84e-4 0.217809,0.03116 0.21875,0.03125 9.41e-4,9.2e-5 0.186554,10e-7 0.1875,0 l 30,0 c 9.46e-4,10e-7 0.186559,9.2e-5 0.1875,0 9.41e-4,-9.2e-5 0.217822,-0.03107 0.21875,-0.03125 9.28e-4,-1.84e-4 0.186595,-0.06223 0.1875,-0.0625 9.05e-4,-2.74e-4 0.186626,-0.06214 0.1875,-0.0625 8.74e-4,-3.61e-4 0.186666,-0.09331 0.1875,-0.09375 8.34e-4,-4.45e-4 0.155463,-0.09322 0.15625,-0.09375 7.87e-4,-5.25e-4 0.155519,-0.1244 0.15625,-0.125 7.31e-4,-6e-4 0.155581,-0.124331 0.15625,-0.125 6.69e-4,-6.69e-4 0.1244,-0.155519 0.125,-0.15625 6e-4,-7.31e-4 0.124475,-0.155463 0.125,-0.15625 5.25e-4,-7.87e-4 0.09331,-0.155416 0.09375,-0.15625 4.45e-4,-8.34e-4 0.09339,-0.186626 0.09375,-0.1875 3.61e-4,-8.74e-4 0.06223,-0.186595 0.0625,-0.1875 2.74e-4,-9.05e-4 0.06232,-0.186572 0.0625,-0.1875 1.84e-4,-9.28e-4 0.03116,-0.217809 0.03125,-0.21875 9.2e-5,-9.41e-4 10e-7,-0.186554 0,-0.1875 l 0,-6 c 10e-7,-9.46e-4 9.2e-5,-0.186559 0,-0.1875 -9.2e-5,-9.41e-4 -0.03107,-0.217822 -0.03125,-0.21875 -1.84e-4,-9.28e-4 -0.06223,-0.186595 -0.0625,-0.1875 -2.74e-4,-9.05e-4 -0.06214,-0.186626 -0.0625,-0.1875 -3.61e-4,-8.74e-4 -0.09331,-0.186666 -0.09375,-0.1875 -4.45e-4,-8.34e-4 -0.09323,-0.155463 -0.09375,-0.15625 -5.25e-4,-7.87e-4 -0.1244,-0.155519 -0.125,-0.15625 -6e-4,-7.31e-4 -0.124331,-0.155581 -0.125,-0.15625 -6.69e-4,-6.69e-4 -0.155519,-0.1244 -0.15625,-0.125 -7.31e-4,-6e-4 -0.155463,-0.124475 -0.15625,-0.125 -7.87e-4,-5.25e-4 -0.155416,-0.09331 -0.15625,-0.09375 -8.34e-4,-4.45e-4 -0.186626,-0.09339 -0.1875,-0.09375 -8.74e-4,-3.61e-4 -0.186595,-0.06223 -0.1875,-0.0625 -9.05e-4,-2.74e-4 -0.186572,-0.06232 -0.1875,-0.0625 -9.28e-4,-1.84e-4 -0.217809,-0.03116 -0.21875,-0.03125 -9.41e-4,-9.2e-5 -0.186554,-10e-7 -0.1875,0 l -29.96875,0 c -1.75e-4,-8e-6 -0.01941,5e-6 -0.03125,0 -0.02368,-1e-5 -0.02716,-3e-6 -0.0625,0 -3.5e-4,-1.6e-5 -0.02716,3e-6 -0.0625,0 -0.05301,-5e-6 -0.09322,-2.4e-5 -0.09375,0 a 1.0011302,1.0011302 0 0 0 -0.15625,0 z m 0,12 c -8.32e-4,1.53e-4 -0.155435,0.06227 -0.15625,0.0625 -8.15e-4,2.25e-4 -0.186708,0.0622 -0.1875,0.0625 -7.92e-4,2.96e-4 -0.155487,0.06214 -0.15625,0.0625 -7.63e-4,3.64e-4 -0.155522,0.06207 -0.15625,0.0625 -7.28e-4,4.3e-4 -0.155562,0.124508 -0.15625,0.125 -6.88e-4,4.92e-4 -0.124358,0.0932 -0.125,0.09375 -6.42e-4,5.51e-4 -0.155659,0.124395 -0.15625,0.125 -5.91e-4,6.05e-4 -0.09321,0.124345 -0.09375,0.125 -5.36e-4,6.55e-4 -0.124524,0.155551 -0.125,0.15625 -4.76e-4,6.99e-4 -0.09334,0.155512 -0.09375,0.15625 -4.13e-4,7.38e-4 -0.06215,0.155478 -0.0625,0.15625 -3.46e-4,7.72e-4 -0.06222,0.155451 -0.0625,0.15625 -2.77e-4,7.99e-4 -0.06229,0.18668 -0.0625,0.1875 -2.06e-4,8.2e-4 -0.03112,0.155415 -0.03125,0.15625 -1.33e-4,8.35e-4 -0.03119,0.186656 -0.03125,0.1875 -4.9e-5,7.03e-4 0.0011,0.114819 0,0.15625 -2.13e-4,0.0083 -3e-6,0.03111 0,0.03125 l 0,5.96875 c -10e-7,9.46e-4 -9.2e-5,0.186559 0,0.1875 9.2e-5,9.41e-4 0.03107,0.217822 0.03125,0.21875 1.84e-4,9.28e-4 0.06223,0.186595 0.0625,0.1875 2.74e-4,9.05e-4 0.06214,0.186626 0.0625,0.1875 3.61e-4,8.74e-4 0.09331,0.186666 0.09375,0.1875 4.45e-4,8.34e-4 0.09322,0.155463 0.09375,0.15625 5.25e-4,7.87e-4 0.1244,0.155519 0.125,0.15625 6e-4,7.31e-4 0.124331,0.155581 0.125,0.15625 6.69e-4,6.69e-4 0.155519,0.1244 0.15625,0.125 7.31e-4,6e-4 0.155463,0.124475 0.15625,0.125 7.87e-4,5.25e-4 0.155416,0.09331 0.15625,0.09375 8.34e-4,4.45e-4 0.186626,0.09339 0.1875,0.09375 8.74e-4,3.61e-4 0.186595,0.06223 0.1875,0.0625 9.05e-4,2.74e-4 0.186572,0.06232 0.1875,0.0625 9.28e-4,1.84e-4 0.217809,0.03116 0.21875,0.03125 9.41e-4,9.2e-5 0.186554,10e-7 0.1875,0 l 24,0 c 9.46e-4,10e-7 0.186559,9.2e-5 0.1875,0 9.41e-4,-9.2e-5 0.217822,-0.03107 0.21875,-0.03125 9.28e-4,-1.84e-4 0.186595,-0.06223 0.1875,-0.0625 9.05e-4,-2.74e-4 0.186626,-0.06214 0.1875,-0.0625 8.74e-4,-3.61e-4 0.186666,-0.09331 0.1875,-0.09375 8.34e-4,-4.45e-4 0.155463,-0.09322 0.15625,-0.09375 7.87e-4,-5.25e-4 0.155519,-0.1244 0.15625,-0.125 7.31e-4,-6e-4 0.155581,-0.124331 0.15625,-0.125 6.69e-4,-6.69e-4 0.1244,-0.155519 0.125,-0.15625 6e-4,-7.31e-4 0.124475,-0.155463 0.125,-0.15625 5.25e-4,-7.87e-4 0.09331,-0.155416 0.09375,-0.15625 4.45e-4,-8.34e-4 0.09339,-0.186626 0.09375,-0.1875 3.61e-4,-8.74e-4 0.06223,-0.186595 0.0625,-0.1875 2.74e-4,-9.05e-4 0.06232,-0.186572 0.0625,-0.1875 1.84e-4,-9.28e-4 0.03116,-0.217809 0.03125,-0.21875 9.2e-5,-9.41e-4 10e-7,-0.186554 0,-0.1875 l 0,-6 c 10e-7,-9.46e-4 9.2e-5,-0.186559 0,-0.1875 -9.2e-5,-9.41e-4 -0.03107,-0.217822 -0.03125,-0.21875 -1.84e-4,-9.28e-4 -0.06223,-0.186595 -0.0625,-0.1875 -2.74e-4,-9.05e-4 -0.06214,-0.186626 -0.0625,-0.1875 -3.61e-4,-8.74e-4 -0.09331,-0.186666 -0.09375,-0.1875 -4.45e-4,-8.34e-4 -0.09323,-0.155463 -0.09375,-0.15625 -5.25e-4,-7.87e-4 -0.1244,-0.155519 -0.125,-0.15625 -6e-4,-7.31e-4 -0.124331,-0.155581 -0.125,-0.15625 -6.69e-4,-6.69e-4 -0.155519,-0.1244 -0.15625,-0.125 -7.31e-4,-6e-4 -0.155463,-0.124475 -0.15625,-0.125 -7.87e-4,-5.25e-4 -0.155416,-0.09331 -0.15625,-0.09375 -8.34e-4,-4.45e-4 -0.186626,-0.09339 -0.1875,-0.09375 -8.74e-4,-3.61e-4 -0.186595,-0.06223 -0.1875,-0.0625 -9.05e-4,-2.74e-4 -0.186572,-0.06232 -0.1875,-0.0625 -9.28e-4,-1.84e-4 -0.217809,-0.03116 -0.21875,-0.03125 -9.41e-4,-9.2e-5 -0.186554,-10e-7 -0.1875,0 l -23.96875,0 c -1.75e-4,-8e-6 -0.01941,5e-6 -0.03125,0 -0.02368,-1e-5 -0.02716,-3e-6 -0.0625,0 -3.5e-4,-1.6e-5 -0.02716,3e-6 -0.0625,0 -0.05301,-5e-6 -0.09322,-2.4e-5 -0.09375,0 a 1.0011302,1.0011302 0 0 0 -0.15625,0 z m -18,12 c -8.32e-4,1.53e-4 -0.155435,0.06227 -0.15625,0.0625 -8.15e-4,2.25e-4 -0.186708,0.0622 -0.1875,0.0625 -7.92e-4,2.96e-4 -0.155487,0.06214 -0.15625,0.0625 -7.63e-4,3.64e-4 -0.155522,0.06207 -0.15625,0.0625 -7.28e-4,4.3e-4 -0.155562,0.124508 -0.15625,0.125 -6.88e-4,4.92e-4 -0.124358,0.0932 -0.125,0.09375 -6.42e-4,5.51e-4 -0.155659,0.124395 -0.15625,0.125 -5.91e-4,6.05e-4 -0.09321,0.124345 -0.09375,0.125 -5.36e-4,6.55e-4 -0.124524,0.155551 -0.125,0.15625 -4.76e-4,6.99e-4 -0.09334,0.155512 -0.09375,0.15625 -4.13e-4,7.38e-4 -0.06215,0.155478 -0.0625,0.15625 -3.46e-4,7.72e-4 -0.06222,0.155451 -0.0625,0.15625 -2.77e-4,7.99e-4 -0.06229,0.18668 -0.0625,0.1875 -2.06e-4,8.2e-4 -0.03112,0.155415 -0.03125,0.15625 -1.33e-4,8.35e-4 -0.03119,0.186656 -0.03125,0.1875 -4.9e-5,7.03e-4 0.0011,0.114819 0,0.15625 -2.13e-4,0.0083 -3e-6,0.03111 0,0.03125 l 0,5.96875 c -1e-6,9.46e-4 -9.2e-5,0.186559 0,0.1875 9.2e-5,9.41e-4 0.03107,0.217822 0.03125,0.21875 1.84e-4,9.28e-4 0.06223,0.186595 0.0625,0.1875 2.74e-4,9.05e-4 0.06214,0.186626 0.0625,0.1875 3.61e-4,8.74e-4 0.09331,0.186666 0.09375,0.1875 4.45e-4,8.34e-4 0.09323,0.155463 0.09375,0.15625 5.25e-4,7.87e-4 0.1244,0.155519 0.125,0.15625 6e-4,7.31e-4 0.124331,0.155581 0.125,0.15625 6.69e-4,6.69e-4 0.155519,0.1244 0.15625,0.125 7.31e-4,6e-4 0.155463,0.124475 0.15625,0.125 7.87e-4,5.25e-4 0.155416,0.09331 0.15625,0.09375 8.34e-4,4.45e-4 0.186626,0.09339 0.1875,0.09375 8.74e-4,3.61e-4 0.186595,0.06223 0.1875,0.0625 9.05e-4,2.74e-4 0.186572,0.06232 0.1875,0.0625 9.28e-4,1.84e-4 0.217809,0.03116 0.21875,0.03125 9.41e-4,9.2e-5 0.186554,10e-7 0.1875,0 l 32,0 c 9.46e-4,10e-7 0.186559,9.2e-5 0.1875,0 9.41e-4,-9.2e-5 0.217822,-0.03107 0.21875,-0.03125 9.28e-4,-1.84e-4 0.186595,-0.06223 0.1875,-0.0625 9.05e-4,-2.74e-4 0.186626,-0.06214 0.1875,-0.0625 8.74e-4,-3.61e-4 0.186666,-0.09331 0.1875,-0.09375 8.34e-4,-4.45e-4 0.155463,-0.09323 0.15625,-0.09375 7.87e-4,-5.25e-4 0.155519,-0.1244 0.15625,-0.125 7.31e-4,-6e-4 0.155581,-0.124331 0.15625,-0.125 6.69e-4,-6.69e-4 0.1244,-0.155519 0.125,-0.15625 6e-4,-7.31e-4 0.124475,-0.155463 0.125,-0.15625 5.25e-4,-7.87e-4 0.09331,-0.155416 0.09375,-0.15625 4.45e-4,-8.34e-4 0.09339,-0.186626 0.09375,-0.1875 3.61e-4,-8.74e-4 0.06223,-0.186595 0.0625,-0.1875 2.74e-4,-9.05e-4 0.06232,-0.186572 0.0625,-0.1875 1.84e-4,-9.28e-4 0.03116,-0.217809 0.03125,-0.21875 9.2e-5,-9.41e-4 10e-7,-0.186554 0,-0.1875 l 0,-6 c 10e-7,-9.46e-4 9.2e-5,-0.186559 0,-0.1875 -9.2e-5,-9.41e-4 -0.03107,-0.217822 -0.03125,-0.21875 -1.84e-4,-9.28e-4 -0.06223,-0.186595 -0.0625,-0.1875 -2.74e-4,-9.05e-4 -0.06214,-0.186626 -0.0625,-0.1875 -3.61e-4,-8.74e-4 -0.09331,-0.186666 -0.09375,-0.1875 -4.45e-4,-8.34e-4 -0.09322,-0.155463 -0.09375,-0.15625 -5.25e-4,-7.87e-4 -0.1244,-0.155519 -0.125,-0.15625 -6e-4,-7.31e-4 -0.124331,-0.155581 -0.125,-0.15625 -6.69e-4,-6.69e-4 -0.155519,-0.1244 -0.15625,-0.125 -7.31e-4,-6e-4 -0.155463,-0.124475 -0.15625,-0.125 -7.87e-4,-5.25e-4 -0.155416,-0.09331 -0.15625,-0.09375 -8.34e-4,-4.45e-4 -0.186626,-0.09339 -0.1875,-0.09375 -8.74e-4,-3.61e-4 -0.186595,-0.06223 -0.1875,-0.0625 -9.05e-4,-2.74e-4 -0.186572,-0.06232 -0.1875,-0.0625 -9.28e-4,-1.84e-4 -0.217809,-0.03116 -0.21875,-0.03125 -9.41e-4,-9.2e-5 -0.186554,-10e-7 -0.1875,0 l -31.96875,0 c -1.75e-4,-8e-6 -0.01941,5e-6 -0.03125,0 -0.02368,-1e-5 -0.02716,-3e-6 -0.0625,0 -3.5e-4,-1.6e-5 -0.02716,3e-6 -0.0625,0 -0.05301,-5e-6 -0.09323,-2.4e-5 -0.09375,0 a 1.0011302,1.0011302 0 0 0 -0.15625,0 z" fill="#000000" fill-opacity="1" stroke="none" opacity="0.1"/>
  <path d="M 23.90625,27.96875 A 1.0298822,1.0298822 0 0 0 22.96875,29 l 0,6 A 1.0298822,1.0298822 0 0 0 24,36.03125 l 32,0 A 1.0298822,1.0298822 0 0 0 57.03125,35 l 0,-6 A 1.0298822,1.0298822 0 0 0 56,27.96875 l -32,0 a 1.0298822,1.0298822 0 0 0 -0.09375,0 z m -0.0625,12 A 1.0298822,1.0298822 0 0 0 22.96875,41 l 0,18 a 1.0298822,1.0298822 0 0 0 1.65625,0.8125 l 12,-9 a 1.0298822,1.0298822 0 0 0 0,-1.625 l -12,-9 a 1.0298822,1.0298822 0 0 0 -0.78125,-0.21875 z m 18.0625,0 A 1.0298822,1.0298822 0 0 0 40.96875,41 l 0,6 A 1.0298822,1.0298822 0 0 0 42,48.03125 l 30,0 A 1.0298822,1.0298822 0 0 0 73.03125,47 l 0,-6 A 1.0298822,1.0298822 0 0 0 72,39.96875 l -30,0 a 1.0298822,1.0298822 0 0 0 -0.09375,0 z m 0,12 A 1.0298822,1.0298822 0 0 0 40.96875,53 l 0,6 A 1.0298822,1.0298822 0 0 0 42,60.03125 l 24,0 A 1.0298822,1.0298822 0 0 0 67.03125,59 l 0,-6 A 1.0298822,1.0298822 0 0 0 66,51.96875 l -24,0 a 1.0298822,1.0298822 0 0 0 -0.09375,0 z m -18,12 A 1.0298822,1.0298822 0 0 0 22.96875,65 l 0,6 A 1.0298822,1.0298822 0 0 0 24,72.03125 l 32,0 A 1.0298822,1.0298822 0 0 0 57.03125,71 l 0,-6 A 1.0298822,1.0298822 0 0 0 56,63.96875 l -32,0 a 1.0298822,1.0298822 0 0 0 -0.09375,0 z" fill="#000000" fill-opacity="1" stroke="none" opacity="0.15"/>
  <path d="m 55.999918,29 0,6 -32,0 0,-6 z m 16,12 0,6 -30,0 0,-6 z m -48,0 12,9 -12,9 z m 42,12 0,6 -24,0 0,-6 z m -10,12 0,6 -32,0 0,-6 z" fill="#000000" fill-opacity="1" stroke="none" opacity="0.3" inkscape:connector-curvature="0"/>
  <text x="104" font-size="4" font-stretch="normal" font-style="normal" letter-spacing="0" font-variant="normal" y="48" font-weight="normal" text-anchor="start" line-height="125%" fill="#000000" fill-opacity="1" stroke="none" word-spacing="0" writing-mode="lr-tb" font-family="Liberation Sans"><tspan x="104" y="48">Shadow opacity : 30, 15, 10, (8)</tspan>
  </text>
  <text x="124" font-size="4" font-stretch="normal" font-style="normal" letter-spacing="0" font-variant="normal" y="32" font-weight="normal" text-anchor="start" line-height="125%" fill="#000000" fill-opacity="1" stroke="none" word-spacing="0" writing-mode="lr-tb" font-family="Liberation Sans"><tspan x="124" y="32">Bevel opacity : 30 / 10</tspan>
  </text>
  <text x="124" font-size="4" font-stretch="normal" font-style="normal" letter-spacing="0" font-variant="normal" y="8" font-weight="normal" text-anchor="start" line-height="125%" fill="#000000" fill-opacity="1" stroke="none" word-spacing="0" writing-mode="lr-tb" font-family="Liberation Sans"><tspan x="124" y="8">Bevel opacity : 75 / 15</tspan>
  </text>
  <path d="m 55.999918,28 0,6 -32,0 0,-6 z m 16,12 0,6 -30,0 0,-6 z m -48,0 12,9 -12,9 z m 42,12 0,6 -24,0 0,-6 z m -10,12 0,6 -32,0 0,-6 z" fill="url(#linearGradient3042)" fill-opacity="1" stroke="none" inkscape:connector-curvature="0"/>
  <path d="m 55.999918,28 0,1 -32,0 0,-1 z m 16,12 0,1 -30,0 0,-1 z m -48,0 12,9 -0.65625,0.5 -11.34375,-8.5 z m 42,12 0,1 -24,0 0,-1 z m -10,12 0,1 -32,0 0,-1 z" fill="#ffffff" fill-opacity="1" stroke="none" opacity="0.75" inkscape:connector-curvature="0"/>
  <path d="m 55.999918,33 0,1 -32,0 0,-1 z m 16,12 0,1 -30,0 0,-1 z m -36.65625,3.5 0.65625,0.5 -12,9 0,-1 z m 30.65625,8.5 0,1 -24,0 0,-1 z m -10,12 0,1 -32,0 0,-1 z" fill="#000000" fill-opacity="1" stroke="none" opacity="0.15" inkscape:connector-curvature="0"/>
 </g>
</svg>
