<?xml version="1.0" encoding="UTF-8" standalone="no"?>
<svg
   xmlns:dc="http://purl.org/dc/elements/1.1/"
   xmlns:cc="http://creativecommons.org/ns#"
   xmlns:rdf="http://www.w3.org/1999/02/22-rdf-syntax-ns#"
   xmlns:svg="http://www.w3.org/2000/svg"
   xmlns="http://www.w3.org/2000/svg"
   xmlns:xlink="http://www.w3.org/1999/xlink"
   xmlns:sodipodi="http://sodipodi.sourceforge.net/DTD/sodipodi-0.dtd"
   xmlns:inkscape="http://www.inkscape.org/namespaces/inkscape"
   height="96"
   width="96"
   id="svg2"
   version="1.1"
   inkscape:version="0.91 r13725"
   sodipodi:docname="format-indent-less.svg">
  <metadata
     id="metadata68">
    <rdf:RDF>
      <cc:Work
         rdf:about="">
        <dc:format>image/svg+xml</dc:format>
        <dc:type
           rdf:resource="http://purl.org/dc/dcmitype/StillImage" />
      </cc:Work>
    </rdf:RDF>
  </metadata>
  <sodipodi:namedview
     pagecolor="#ffffff"
     bordercolor="#666666"
     borderopacity="1"
     objecttolerance="10"
     gridtolerance="10"
     guidetolerance="10"
     inkscape:pageopacity="0"
     inkscape:pageshadow="2"
     inkscape:window-width="760"
     inkscape:window-height="480"
     id="namedview66"
     showgrid="false"
     inkscape:zoom="2.4583333"
     inkscape:cx="9.559322"
     inkscape:cy="47.999999"
     inkscape:window-x="604"
     inkscape:window-y="49"
     inkscape:window-maximized="0"
     inkscape:current-layer="svg2" />
  <defs
     id="defs4">
    <linearGradient
       x2="0"
       y1="92.54"
       y2="7.02"
       gradientUnits="userSpaceOnUse"
       id="ButtonShadow-0"
       gradientTransform="matrix(1.0059 0 0 0.99417 100 0)">
      <stop
         stop-color="#000000"
         stop-opacity="1"
         id="stop7" />
      <stop
         stop-color="#000000"
         stop-opacity="0.588"
         offset="1"
         id="stop9" />
    </linearGradient>
    <linearGradient
       x2="0"
       xlink:href="#ButtonShadow-0"
       y1="6.132"
       y2="90.24"
       gradientUnits="userSpaceOnUse"
       id="linearGradient3780"
       gradientTransform="matrix(1.02381 0 0 -1.0119 -1.143 98.07)" />
    <linearGradient
       x2="0"
       xlink:href="#ButtonShadow-0"
       y1="6.132"
       y2="90.24"
       gradientUnits="userSpaceOnUse"
       id="linearGradient3721"
       gradientTransform="matrix(1 0 0 -1 0 97)" />
    <radialGradient
       cy="90.17"
       r="42"
       gradientUnits="userSpaceOnUse"
       id="radialGradient3619-3"
       cx="48"
       gradientTransform="matrix(1.15731 0 0 0.99591 -7.551 0.197)">
      <stop
         stop-color="#ffffff"
         stop-opacity="1"
         id="stop14" />
      <stop
         stop-color="#ffffff"
         stop-opacity="0"
         offset="1"
         id="stop16" />
    </radialGradient>
    <linearGradient
       x2="0"
       y1="4"
       y2="18.04"
       gradientUnits="userSpaceOnUse"
       id="linearGradient3042"
       gradientTransform="matrix(3,0,0,3,15,16)">
      <stop
         stop-color="#1a1a1a"
         stop-opacity="1"
         id="stop19" />
      <stop
         stop-color="#4d4d4d"
         stop-opacity="1"
         offset="1"
         id="stop21" />
    </linearGradient>
    <rect
       x="6"
       rx="6"
       y="6"
       fill="#000000"
       fill-opacity="1"
       stroke="none"
       fill-rule="nonzero"
       height="84"
       id="SVGCleanerId_0"
       opacity="0.6"
       width="84" />
  </defs>
  <g
     id="g3440"
     transform="matrix(1.5415769,0,0,1.5415769,-25.999063,-29.078845)">
    <path
       d="m 39.71875,27.09375 c -1.387083,0.176777 -1.803621,1.683157 -1.625,2.874522 0.0658,1.859136 -0.129865,3.760702 0.09375,5.594228 0.330786,1.272871 1.793036,1.483514 2.919097,1.34375 10.421096,-0.02093 20.855765,0.04179 31.268403,-0.03125 1.30741,-0.240948 1.720107,-1.674689 1.53125,-2.843272 -0.0658,-1.859136 0.129865,-3.760702 -0.09375,-5.594228 -0.330786,-1.272871 -1.793036,-1.483514 -2.919097,-1.34375 -10.391551,0 -20.783102,0 -31.174653,0 z m -16,12 c -1.387083,0.176777 -1.803621,1.683157 -1.625,2.874522 0.0658,1.859136 -0.129865,3.760702 0.09375,5.594228 0.330786,1.272871 1.793036,1.483514 2.919097,1.34375 10.421096,-0.02093 20.855765,0.04179 31.268403,-0.03125 1.30741,-0.240948 1.720107,-1.674689 1.53125,-2.843272 -0.0658,-1.859136 0.129865,-3.760702 -0.09375,-5.594228 -0.330786,-1.272871 -1.793036,-1.483514 -2.919097,-1.34375 -10.391551,0 -20.783102,0 -31.174653,0 z m 48.03125,0 c -1.434687,0.481091 -2.484372,1.725801 -3.752152,2.532864 -3.160752,2.418859 -6.44272,4.736339 -9.529098,7.217136 -0.782518,1.007924 -0.272107,2.49807 0.848889,3.019479 3.972725,2.953301 7.900342,5.977615 11.901111,8.886771 1.368447,0.668401 2.985242,-0.703546 2.6875,-2.164974 -0.02113,-5.995773 0.04207,-12.001928 -0.03125,-17.991276 -0.212016,-0.959897 -1.15066,-1.608141 -2.125,-1.5 z m -48.03125,12 c -1.387083,0.176777 -1.803621,1.683157 -1.625,2.874522 0.0658,1.859136 -0.129865,3.760702 0.09375,5.594228 0.330786,1.272871 1.793036,1.483514 2.919097,1.34375 8.421102,-0.02088 16.855756,0.04174 25.268403,-0.03125 1.30741,-0.240948 1.720107,-1.674689 1.53125,-2.843272 -0.0658,-1.859136 0.129865,-3.760702 -0.09375,-5.594228 -0.330786,-1.272871 -1.793036,-1.483514 -2.919097,-1.34375 -8.391551,0 -16.783102,0 -25.174653,0 z m 16,12 c -1.387083,0.176777 -1.803621,1.683157 -1.625,2.874522 0.0658,1.859136 -0.129865,3.760702 0.09375,5.594228 0.330786,1.272871 1.793036,1.483514 2.919097,1.34375 10.421096,-0.02093 20.855765,0.04179 31.268403,-0.03125 1.30741,-0.240948 1.720107,-1.674689 1.53125,-2.843272 -0.0658,-1.859136 0.129865,-3.760702 -0.09375,-5.594228 -0.330786,-1.272871 -1.793036,-1.483514 -2.919097,-1.34375 -10.391551,0 -20.783102,0 -31.174653,0 z"
       inkscape:connector-curvature="0"
       id="path42"
       style="opacity:0.1;fill:black;fill-opacity:1;stroke:none" />
    <path
       d="M 39.8125,28 A 1.0045735,1.0045735 0 0 0 39,29 l 0,6 a 1.0045735,1.0045735 0 0 0 1,1 l 32,0 a 1.0045735,1.0045735 0 0 0 1,-1 l 0,-6 a 1.0045735,1.0045735 0 0 0 -1,-1 l -32,0 a 1.0045735,1.0045735 0 0 0 -0.1875,0 z m -16,12 A 1.0045735,1.0045735 0 0 0 23,41 l 0,6 a 1.0045735,1.0045735 0 0 0 1,1 l 32,0 a 1.0045735,1.0045735 0 0 0 1,-1 l 0,-6 a 1.0045735,1.0045735 0 0 0 -1,-1 l -32,0 a 1.0045735,1.0045735 0 0 0 -0.1875,0 z m 48.0625,0 a 1.0045735,1.0045735 0 0 0 -0.46875,0.1875 l -12,9 a 1.0045735,1.0045735 0 0 0 0,1.625 l 12,9 A 1.0045735,1.0045735 0 0 0 73,59 L 73,41 A 1.0045735,1.0045735 0 0 0 71.875,40 Z M 23.8125,52 A 1.0045735,1.0045735 0 0 0 23,53 l 0,6 a 1.0045735,1.0045735 0 0 0 1,1 l 26,0 a 1.0045735,1.0045735 0 0 0 1,-1 l 0,-6 a 1.0045735,1.0045735 0 0 0 -1,-1 l -26,0 a 1.0045735,1.0045735 0 0 0 -0.1875,0 z m 16,12 A 1.0045735,1.0045735 0 0 0 39,65 l 0,6 a 1.0045735,1.0045735 0 0 0 1,1 l 32,0 a 1.0045735,1.0045735 0 0 0 1,-1 l 0,-6 a 1.0045735,1.0045735 0 0 0 -1,-1 l -32,0 a 1.0045735,1.0045735 0 0 0 -0.1875,0 z"
       id="path44"
       inkscape:connector-curvature="0"
       style="opacity:0.15;fill:black;fill-opacity:1;stroke:none" />
    <path
       d="m 40,29 0,6 32,0 0,-6 z m -16,12 0,6 32,0 0,-6 z m 48,0 -12,9 12,9 z m -48,12 0,6 26,0 0,-6 z m 16,12 0,6 32,0 0,-6 z"
       inkscape:connector-curvature="0"
       id="path46"
       style="opacity:0.3;fill:black;fill-opacity:1;stroke:none" />
    <path
       d="m 40,28 0,6 32,0 0,-6 z m -16,12 0,6 32,0 0,-6 z m 48,0 -12,9 12,9 z m -48,12 0,6 26,0 0,-6 z m 16,12 0,6 32,0 0,-6 z"
       inkscape:connector-curvature="0"
       id="path60"
       style="fill:url(#linearGradient3042);fill-opacity:1;stroke:none" />
    <path
       d="m 40,28 0,1 32,0 0,-1 -32,0 z m -16,12 0,1 32,0 0,-1 -32,0 z m 48,0 -12,9 0.65625,0.5 L 72,41 72,40 Z m -48,12 0,1 26,0 0,-1 -26,0 z m 16,12 0,1 32,0 0,-1 -32,0 z"
       inkscape:connector-curvature="0"
       id="path62"
       style="opacity:0.75;fill:white;fill-opacity:1;stroke:none" />
    <path
       d="m 40,33 0,1 32,0 0,-1 -32,0 z m -16,12 0,1 32,0 0,-1 -32,0 z M 60.65625,48.5 60,49 72,58 72,57 60.65625,48.5 Z M 24,57 l 0,1 26,0 0,-1 -26,0 z m 16,12 0,1 32,0 0,-1 -32,0 z"
       inkscape:connector-curvature="0"
       id="path64"
       style="opacity:0.15;fill:black;fill-opacity:1;stroke:none" />
  </g>
</svg>
