<?xml version="1.0" encoding="UTF-8" standalone="no"?>
<svg
   xmlns:dc="http://purl.org/dc/elements/1.1/"
   xmlns:cc="http://creativecommons.org/ns#"
   xmlns:rdf="http://www.w3.org/1999/02/22-rdf-syntax-ns#"
   xmlns:svg="http://www.w3.org/2000/svg"
   xmlns="http://www.w3.org/2000/svg"
   xmlns:xlink="http://www.w3.org/1999/xlink"
   xmlns:sodipodi="http://sodipodi.sourceforge.net/DTD/sodipodi-0.dtd"
   xmlns:inkscape="http://www.inkscape.org/namespaces/inkscape"
   height="96"
   width="96"
   id="svg2"
   version="1.1"
   inkscape:version="0.91 r13725"
   sodipodi:docname="format-text-strikethrough.svg">
  <metadata
     id="metadata68">
    <rdf:RDF>
      <cc:Work
         rdf:about="">
        <dc:format>image/svg+xml</dc:format>
        <dc:type
           rdf:resource="http://purl.org/dc/dcmitype/StillImage" />
      </cc:Work>
    </rdf:RDF>
  </metadata>
  <sodipodi:namedview
     pagecolor="#ffffff"
     bordercolor="#666666"
     borderopacity="1"
     objecttolerance="10"
     gridtolerance="10"
     guidetolerance="10"
     inkscape:pageopacity="0"
     inkscape:pageshadow="2"
     inkscape:window-width="640"
     inkscape:window-height="480"
     id="namedview66"
     showgrid="false"
     inkscape:zoom="2.4583333"
     inkscape:cx="22.98305"
     inkscape:cy="47.999999"
     inkscape:window-x="66"
     inkscape:window-y="91"
     inkscape:window-maximized="0"
     inkscape:current-layer="svg2" />
  <defs
     id="defs4">
    <linearGradient
       x2="0"
       y1="92.54"
       y2="7.02"
       gradientUnits="userSpaceOnUse"
       id="ButtonShadow-0"
       gradientTransform="matrix(1.0059 0 0 0.99417 100 0)">
      <stop
         stop-color="#000000"
         stop-opacity="1"
         id="stop7" />
      <stop
         stop-color="#000000"
         stop-opacity="0.588"
         offset="1"
         id="stop9" />
    </linearGradient>
    <linearGradient
       x2="0"
       xlink:href="#ButtonShadow-0"
       y1="6.132"
       y2="90.24"
       gradientUnits="userSpaceOnUse"
       id="linearGradient3780"
       gradientTransform="matrix(1.02381 0 0 -1.0119 -1.143 98.07)" />
    <linearGradient
       x2="0"
       xlink:href="#ButtonShadow-0"
       y1="6.132"
       y2="90.24"
       gradientUnits="userSpaceOnUse"
       id="linearGradient3721"
       gradientTransform="matrix(1 0 0 -1 0 97)" />
    <radialGradient
       cy="90.17"
       r="42"
       gradientUnits="userSpaceOnUse"
       id="radialGradient3619-3"
       cx="48"
       gradientTransform="matrix(1.15731 0 0 0.99591 -7.551 0.197)">
      <stop
         stop-color="#ffffff"
         stop-opacity="1"
         id="stop14" />
      <stop
         stop-color="#ffffff"
         stop-opacity="0"
         offset="1"
         id="stop16" />
    </radialGradient>
    <linearGradient
       x2="0"
       y1="3.133"
       y2="19.05"
       gradientUnits="userSpaceOnUse"
       id="linearGradient3823"
       gradientTransform="matrix(3,0,0,3,15,20)">
      <stop
         stop-color="#1a1a1a"
         stop-opacity="1"
         id="stop19" />
      <stop
         stop-color="#4d4d4d"
         stop-opacity="1"
         offset="1"
         id="stop21" />
    </linearGradient>
    <rect
       x="6"
       rx="6"
       y="6"
       fill="#000000"
       fill-opacity="1"
       stroke="none"
       fill-rule="nonzero"
       height="84"
       id="SVGCleanerId_0"
       opacity="0.6"
       width="84" />
  </defs>
  <g
     id="g3447"
     transform="matrix(1.7344273,0,0,1.7381858,-35.25251,-35.449652)">
    <path
       d="M 47.71875,27.96875 C 43.208352,28.05702 38.700303,29.007902 34.5,30.625 c -1.370505,0.951835 -0.779337,2.750665 -0.90625,4.160637 0.119129,1.304324 -0.287511,2.72244 0.3125,3.933113 0.715005,1.138908 2.324995,1.115631 3.30973,0.336815 4.115456,-2.076686 8.996436,-2.835394 13.504007,-1.780074 1.857777,0.281062 4.587811,2.763134 3.72623,4.193259 -5.972574,0.05705 -12.358047,-0.521996 -17.705081,2.662577 -1.79119,1.164643 -3.282074,2.874213 -4.209886,4.837423 -2.040314,0.03851 -4.092612,-0.07909 -6.125,0.0625 -1.290847,0.371932 -1.573979,1.774023 -1.4375,2.945505 0.03834,1.870993 -0.07887,3.753923 0.0625,5.616995 0.371932,1.290847 1.774023,1.573979 2.945505,1.4375 1.247332,0 2.494663,0 3.741995,0 0.666199,3.051743 2.628109,5.74519 5.417762,7.171876 4.456571,2.373974 9.938279,2.304033 14.636814,0.692385 1.247272,-0.01536 2.951116,-2.225864 3.382924,-1.779228 -0.141534,1.14656 0.193067,2.492222 1.4375,2.852467 2.250387,0.119509 4.527264,0.0663 6.78125,0.03125 1.355037,-0.190736 1.83443,-1.654424 1.65625,-2.854661 0,-2.038029 0,-4.076059 0,-6.114089 1.519707,-0.03564 3.050629,0.07507 4.5625,-0.0625 1.290847,-0.371932 1.573979,-1.774023 1.4375,-2.945505 -0.03834,-1.870993 0.07887,-3.753923 -0.0625,-5.616995 -0.371932,-1.290847 -1.774023,-1.573979 -2.945505,-1.4375 -0.997332,0 -1.994663,0 -2.991995,0 C 65.09614,44.090822 65.10421,38.906605 62.373358,34.64746 59.350866,29.651006 53.244852,27.888773 47.71875,27.96875 Z M 44.625,59.03125 c 1.0625,0 2.125,0 3.1875,0 -1.045978,0.338031 -2.136157,0.296778 -3.1875,0 z"
       inkscape:connector-curvature="0"
       id="path42"
       style="opacity:0.1;fill:black;fill-opacity:1;stroke:none" />
    <path
       d="m 47.71875,29 c -1.988692,3.8e-5 -4.036725,0.269508 -6.09375,0.6875 -2.042397,0.39434 -4.142949,0.89845 -6.34375,1.71875 a 0.98877404,0.98877404 0 0 0 -0.65625,0.9375 l 0,5.25 a 0.98877404,0.98877404 0 0 0 1.46875,0.875 c 1.719459,-0.908918 3.451973,-1.616171 5.28125,-2.0625 1.832916,-0.447168 3.71856,-0.624971 5.6875,-0.625 3.042132,2.9e-5 5.2497,0.690689 6.78125,1.9375 1.439858,1.141745 2.143724,2.693415 2.25,4.78125 l -7.15625,0 c -5.424203,2.1e-5 -9.567936,0.954296 -12.5,3.09375 a 0.98877404,0.98877404 0 0 0 0,0.03125 C 34.883644,46.767821 33.871416,48.29857 33.15625,50 L 27,50 a 0.98877404,0.98877404 0 0 0 -1,1 l 0,6 a 0.98877404,0.98877404 0 0 0 1,1 l 5.46875,0 c 0.466265,2.240441 1.367228,4.26983 3.03125,5.8125 a 0.98877404,0.98877404 0 0 0 0.03125,0 c 2.368511,2.151858 5.566961,3.1875 9.375,3.1875 2.994548,0 5.598194,-0.564338 7.75,-1.625 1.327177,-0.667833 2.480492,-1.618078 3.53125,-2.71875 l 0,3.34375 a 0.98877404,0.98877404 0 0 0 1,1 L 63,67 a 0.98877404,0.98877404 0 0 0 1,-1 l 0,-8 5,0 a 0.98877404,0.98877404 0 0 0 1,-1 l 0,-6 a 0.98877404,0.98877404 0 0 0 -1,-1 l -5,0 0,-4.4375 C 63.999966,40.17318 62.645815,35.964736 59.875,33.15625 57.109203,30.352986 53.019377,29.000037 47.71875,29 Z m 3.65625,19.90625 4.8125,0 0,0.21875 c -3e-6,0.307669 -0.01736,0.586734 -0.03125,0.875 l -13.25,0 c 1.671888,-0.665498 4.404471,-1.093737 8.46875,-1.09375 z M 41,58 52.46875,58 c -1.629289,1.429596 -3.539637,2.312505 -6.0625,2.3125 -2.160743,6e-6 -3.698458,-0.543889 -4.875,-1.53125 C 41.279953,58.561415 41.191634,58.249897 41,58 Z"
       id="path44"
       inkscape:connector-curvature="0"
       style="opacity:0.15;fill:black;fill-opacity:1;stroke:none" />
    <path
       d="m 47.71875,30 c -1.902765,3.6e-5 -3.897808,0.24813 -5.90625,0.65625 -2.008467,0.387789 -4.052203,0.891615 -6.1875,1.6875 l 0,5.25 c 1.77589,-0.938748 3.607349,-1.686834 5.53125,-2.15625 1.923874,-0.469359 3.876636,-0.65622 5.90625,-0.65625 3.192369,3e-5 5.651469,0.72771 7.40625,2.15625 1.775874,1.408191 2.71872,3.408189 2.71875,6 l 0,0.5625 -8.25,0 c -5.306572,2.1e-5 -9.221272,0.947088 -11.90625,2.90625 C 35.434484,47.58063 34.399844,49.145337 33.75,51 l -6.75,0 0,6 6.1875,0 c 0.338093,2.441643 1.292429,4.510707 3,6.09375 C 38.343937,65.052933 41.269873,66 44.90625,66 c 2.875251,0 5.325162,-0.520407 7.3125,-1.5 1.987287,-0.999999 3.636798,-2.512113 4.96875,-4.59375 l 0,6.09375 5.8125,0 0,-9 6,0 0,-6 -6,0 0,-5.4375 C 62.999967,40.338036 61.693215,36.415206 59.15625,33.84375 56.619222,31.272354 52.856145,30.000036 47.71875,30 Z m 3.65625,17.90625 5.8125,0 0,1.21875 c -6e-6,0.654981 -0.0285,1.267884 -0.09375,1.875 l -17.25,0 c 0.429358,-0.623841 0.985678,-1.19199 1.6875,-1.59375 1.818167,-1.040814 5.129142,-1.499985 9.84375,-1.5 z M 39.1875,57 54.84375,57 c -0.22278,0.310755 -0.402099,0.649956 -0.65625,0.9375 -1.945056,2.204082 -4.546596,3.375006 -7.78125,3.375 -2.346743,6e-6 -4.157056,-0.617982 -5.53125,-1.78125 C 40.076012,58.832295 39.52408,57.985239 39.1875,57 Z"
       inkscape:connector-curvature="0"
       id="path46"
       style="opacity:0.3;fill:black;fill-opacity:1;stroke:none" />
    <path
       d="m 47.71875,29 c -1.902765,3.6e-5 -3.897808,0.24813 -5.90625,0.65625 -2.008467,0.387789 -4.052203,0.891615 -6.1875,1.6875 l 0,5.25 c 1.77589,-0.938748 3.607349,-1.686834 5.53125,-2.15625 1.923874,-0.469359 3.876636,-0.65622 5.90625,-0.65625 3.192369,3e-5 5.651469,0.72771 7.40625,2.15625 1.775874,1.408191 2.71872,3.408189 2.71875,6 l 0,0.5625 -8.25,0 c -5.306572,2.1e-5 -9.221272,0.947088 -11.90625,2.90625 C 35.434484,46.58063 34.399844,48.145337 33.75,50 l -6.75,0 0,6 6.1875,0 c 0.338093,2.441643 1.292429,4.510707 3,6.09375 C 38.343937,64.052933 41.269873,65 44.90625,65 c 2.875251,0 5.325162,-0.520407 7.3125,-1.5 1.987287,-0.999999 3.636798,-2.512113 4.96875,-4.59375 l 0,6.09375 5.8125,0 0,-9 6,0 0,-6 -6,0 0,-5.4375 C 62.999967,39.338036 61.693215,35.415206 59.15625,32.84375 56.619222,30.272354 52.856145,29.000036 47.71875,29 Z m 3.65625,17.90625 5.8125,0 0,1.21875 c -6e-6,0.654981 -0.0285,1.267884 -0.09375,1.875 l -17.25,0 c 0.429358,-0.623841 0.985678,-1.19199 1.6875,-1.59375 1.818167,-1.040814 5.129142,-1.499985 9.84375,-1.5 z M 39.1875,56 54.84375,56 c -0.22278,0.310755 -0.402099,0.649956 -0.65625,0.9375 -1.945056,2.204082 -4.546596,3.375006 -7.78125,3.375 -2.346743,6e-6 -4.157056,-0.617982 -5.53125,-1.78125 C 40.076012,57.832295 39.52408,56.985239 39.1875,56 Z"
       inkscape:connector-curvature="0"
       id="path60"
       style="fill:url(#linearGradient3823);fill-opacity:1;stroke:none" />
    <path
       d="m 47.71875,29 c -1.902765,3.6e-5 -3.897808,0.24813 -5.90625,0.65625 -2.008467,0.387789 -4.052203,0.891615 -6.1875,1.6875 l 0,1 c 2.135297,-0.795885 4.179033,-1.299711 6.1875,-1.6875 2.008442,-0.40812 4.003485,-0.656214 5.90625,-0.65625 5.137395,3.6e-5 8.900472,1.272354 11.4375,3.84375 2.536965,2.571456 3.843717,6.494286 3.84375,11.71875 l 0,-1 C 62.999967,39.338036 61.693215,35.415206 59.15625,32.84375 56.619222,30.272354 52.856145,29.000036 47.71875,29 Z m 1.21875,13.5 c -5.306572,2.1e-5 -9.221272,0.947088 -11.90625,2.90625 C 35.434484,46.58063 34.399844,48.145337 33.75,50 l -6.75,0 0,1 6.75,0 c 0.649844,-1.854663 1.684484,-3.41937 3.28125,-4.59375 C 39.716228,44.447088 43.630928,43.500021 48.9375,43.5 l 8.25,0 0,-0.5625 c -2e-6,-0.151021 0.0064,-0.290498 0,-0.4375 l -8.25,0 z m 8.25,5.625 c -6e-6,0.654981 -0.0285,1.267884 -0.09375,1.875 L 40.75,50 c -0.343102,0.305336 -0.654318,0.633952 -0.90625,1 l 17.25,0 c 0.06525,-0.607116 0.09374,-1.220019 0.09375,-1.875 l 0,-1 z M 63,50 l 0,1 6,0 0,-1 -6,0 z m -23.8125,7 c 0.33658,0.985239 0.888512,1.832295 1.6875,2.53125 1.374194,1.163268 3.184507,1.781256 5.53125,1.78125 3.234654,6e-6 5.836194,-1.170918 7.78125,-3.375 C 54.441651,57.649956 54.62097,57.310755 54.84375,57 L 54.125,57 c -1.93847,2.160725 -4.517089,3.312506 -7.71875,3.3125 -2.346743,6e-6 -4.157056,-0.617982 -5.53125,-1.78125 C 40.36078,58.08141 39.943007,57.569885 39.625,57 l -0.4375,0 z"
       inkscape:connector-curvature="0"
       id="path62"
       style="opacity:0.75;fill:white;fill-opacity:1;stroke:none" />
    <path
       d="m 47.0625,32.78125 c -2.029614,3e-5 -3.982376,0.186891 -5.90625,0.65625 -1.923901,0.469416 -3.75536,1.217502 -5.53125,2.15625 l 0,1 c 1.77589,-0.938748 3.607349,-1.686834 5.53125,-2.15625 1.923874,-0.469359 3.876636,-0.65622 5.90625,-0.65625 3.192369,3e-5 5.651469,0.72771 7.40625,2.15625 1.672396,1.326138 2.615602,3.18666 2.71875,5.5625 l 0,-0.5625 c -3e-5,-2.591811 -0.942876,-4.591809 -2.71875,-6 -1.754781,-1.42854 -4.213881,-2.15622 -7.40625,-2.15625 z m 4.3125,13.125 c -4.714608,1.5e-5 -8.025583,0.459186 -9.84375,1.5 C 40.829428,47.80801 40.273108,48.376159 39.84375,49 L 40.75,49 c 0.241633,-0.215036 0.491232,-0.427729 0.78125,-0.59375 1.818167,-1.040814 5.129142,-1.499985 9.84375,-1.5 l 5.8125,0 0,-1 -5.8125,0 z M 27,55 l 0,1 6.1875,0 c 0.338093,2.441643 1.292429,4.510707 3,6.09375 C 38.343937,64.052933 41.269873,65 44.90625,65 c 2.875251,0 5.325162,-0.520407 7.3125,-1.5 1.987287,-0.999999 3.636798,-2.512113 4.96875,-4.59375 l 0,-1 C 55.855548,59.987887 54.206037,61.500001 52.21875,62.5 50.231412,63.479593 47.781501,64 44.90625,64 41.269873,64 38.343937,63.052933 36.1875,61.09375 34.479929,59.510707 33.525593,57.441643 33.1875,55 L 27,55 Z m 12.1875,0 c 0.119961,0.351149 0.261392,0.684406 0.4375,1 l 14.5,0 c 0.01998,-0.02227 0.04266,-0.04002 0.0625,-0.0625 C 54.441651,55.649956 54.62097,55.310755 54.84375,55 L 39.1875,55 Z M 63,55 l 0,1 6,0 0,-1 -6,0 z m -5.8125,9 0,1 5.8125,0 0,-1 -5.8125,0 z"
       inkscape:connector-curvature="0"
       id="path64"
       style="opacity:0.15;fill:black;fill-opacity:1;stroke:none" />
  </g>
</svg>
