<?xml version="1.0" encoding="UTF-8" standalone="no"?>
<svg
   xmlns:dc="http://purl.org/dc/elements/1.1/"
   xmlns:cc="http://creativecommons.org/ns#"
   xmlns:rdf="http://www.w3.org/1999/02/22-rdf-syntax-ns#"
   xmlns:svg="http://www.w3.org/2000/svg"
   xmlns="http://www.w3.org/2000/svg"
   xmlns:xlink="http://www.w3.org/1999/xlink"
   xmlns:sodipodi="http://sodipodi.sourceforge.net/DTD/sodipodi-0.dtd"
   xmlns:inkscape="http://www.inkscape.org/namespaces/inkscape"
   display="inline"
   height="96"
   width="96"
   id="svg2"
   version="1.1"
   inkscape:version="0.91 r13725"
   sodipodi:docname="format-justify-center.svg">
  <metadata
     id="metadata51">
    <rdf:RDF>
      <cc:Work
         rdf:about="">
        <dc:format>image/svg+xml</dc:format>
        <dc:type
           rdf:resource="http://purl.org/dc/dcmitype/StillImage" />
      </cc:Work>
    </rdf:RDF>
  </metadata>
  <sodipodi:namedview
     pagecolor="#ffffff"
     bordercolor="#666666"
     borderopacity="1"
     objecttolerance="10"
     gridtolerance="10"
     guidetolerance="10"
     inkscape:pageopacity="0"
     inkscape:pageshadow="2"
     inkscape:window-width="760"
     inkscape:window-height="480"
     id="namedview49"
     showgrid="false"
     inkscape:zoom="2.4583333"
     inkscape:cx="-15.864407"
     inkscape:cy="47.999999"
     inkscape:window-x="604"
     inkscape:window-y="49"
     inkscape:window-maximized="0"
     inkscape:current-layer="svg2" />
  <defs
     id="defs4">
    <radialGradient
       cy="90.17"
       r="42"
       gradientUnits="userSpaceOnUse"
       id="radialGradient3619-2"
       cx="48"
       gradientTransform="matrix(1.15731 0 0 0.99591 -7.551 0.197)">
      <stop
         stop-color="#ffffff"
         stop-opacity="1"
         id="stop7" />
      <stop
         stop-color="#ffffff"
         stop-opacity="0"
         offset="1"
         id="stop9" />
    </radialGradient>
    <linearGradient
       x2="0"
       y1="92.54"
       y2="7.02"
       gradientUnits="userSpaceOnUse"
       id="ButtonShadow-0"
       gradientTransform="matrix(1.0059 0 0 0.99417 100 0)">
      <stop
         stop-color="#000000"
         stop-opacity="1"
         id="stop12" />
      <stop
         stop-color="#000000"
         stop-opacity="0.588"
         offset="1"
         id="stop14" />
    </linearGradient>
    <linearGradient
       x2="0"
       xlink:href="#ButtonShadow-0"
       y1="6.132"
       y2="90.24"
       gradientUnits="userSpaceOnUse"
       id="linearGradient3780"
       gradientTransform="matrix(1.02381 0 0 -1.0119 -1.143 98.07)" />
    <linearGradient
       x2="0"
       xlink:href="#ButtonShadow-0"
       y1="6.132"
       y2="90.24"
       gradientUnits="userSpaceOnUse"
       id="linearGradient3721-9"
       gradientTransform="matrix(1 0 0 -1 0 97)" />
    <linearGradient
       x2="0"
       y1="72.09"
       y2="23.729"
       gradientUnits="userSpaceOnUse"
       id="linearGradient4013"
       gradientTransform="matrix(-1.1965,0,0,1,106.68,0)">
      <stop
         stop-color="#4d4d4d"
         stop-opacity="1"
         id="stop19" />
      <stop
         stop-color="#1a1a1a"
         stop-opacity="1"
         offset="1"
         id="stop21" />
    </linearGradient>
  </defs>
  <g
     id="g3468"
     transform="matrix(1.5328683,0,0,1.5328683,-25.586029,-27.125509)">
    <path
       id="path37"
       inkscape:connector-curvature="0"
       d="m 29.65625,22.9375 c -2.124202,0.404202 -1.728098,2.888155 -1.71875,4.495169 0.261509,1.767933 -0.753774,4.255284 1.09375,5.379831 0.02069,0.293636 -2.515493,0.04034 -3.478329,0.125 -1.443891,-0.213176 -3.508313,0.06344 -3.615421,1.90625 0.105333,2.304491 -0.210615,4.671371 0.15625,6.9375 0.982837,2.075741 3.646139,1.027489 5.444678,1.28125 1.914274,0 3.828548,0 5.742822,0 -2.092297,0.872729 -1.12616,3.511277 -1.34375,5.254776 0.06571,1.645531 -0.543011,4.220328 1.65625,4.713974 9.598126,0.052 19.214376,0.05219 28.8125,0 2.34838,-0.575819 1.51371,-3.371497 1.65625,-5.127374 -0.1549,-1.631483 0.641726,-4.0976 -1.375,-4.841376 3.297403,-0.06542 6.630233,0.129082 9.90625,-0.09375 2.234683,-0.76431 1.259768,-3.517832 1.46875,-5.286026 -0.06571,-1.645531 0.543011,-4.220328 -1.65625,-4.713974 -1.901083,-0.07285 -3.813358,-0.01047 -5.71875,-0.03125 2.132241,-0.842009 1.156785,-3.505117 1.375,-5.254776 -0.06571,-1.645531 0.543011,-4.220328 -1.65625,-4.713974 -12.244476,-0.07291 -24.501445,-0.01043 -36.75,-0.03125 z m 10.09375,31 c -1.999852,0.264479 -1.924577,2.525106 -1.8125,4.052866 0.418293,1.766045 -2.069923,0.625583 -3.096124,0.947134 -3.200173,0.101588 -6.460487,-0.20487 -9.622626,0.15625 -2.075741,0.982837 -1.027489,3.646139 -1.28125,5.444678 0.02394,1.589279 -0.455158,4.041614 1.65625,4.492822 4.109412,0.07291 8.230028,0.01042 12.34375,0.03125 0.246559,1.79509 -0.598388,3.956935 0.65625,5.46875 1.308174,1.228561 3.08895,0.135158 3.84977,-1.148467 C 44.29568,71.296855 46.14784,69.210928 48,67.125 c 2.335205,2.525044 4.489257,5.265514 6.9375,7.65625 1.600753,1.0218 3.561459,-0.69965 3.125,-2.444705 0.329092,-1.057125 -0.806865,-3.5793 0.884607,-3.274045 3.877976,-0.06225 7.789881,0.124663 11.646643,-0.09375 2.234683,-0.76431 1.259768,-3.517832 1.46875,-5.286026 -0.06571,-1.645531 0.543011,-4.220328 -1.65625,-4.713974 -4.109412,-0.07291 -8.230028,-0.01042 -12.34375,-0.03125 -0.133253,-1.649114 0.626061,-4.12135 -1.40625,-4.875 -2.125493,-0.56687 -3.151217,1.933904 -4.595796,3.002046 C 50.706969,58.418031 49.353485,59.771515 48,61.125 45.573042,58.820669 43.376059,56.214538 40.8125,54.09375 40.461314,53.980459 40.121728,53.90243 39.75,53.9375 Z"
       style="opacity:0.1;fill:black;fill-opacity:1;stroke:none" />
    <path
       id="path39"
       d="M 29.90625,23.96875 A 1.0342898,1.0342898 0 0 0 28.96875,25 l 0,6 A 1.0342898,1.0342898 0 0 0 30,32.03125 l 36,0 A 1.0342898,1.0342898 0 0 0 67.03125,31 l 0,-6 A 1.0342898,1.0342898 0 0 0 66,23.96875 l -36,0 a 1.0342898,1.0342898 0 0 0 -0.09375,0 z m -6,10 A 1.0342898,1.0342898 0 0 0 22.96875,35 l 0,6 A 1.0342898,1.0342898 0 0 0 24,42.03125 l 48,0 A 1.0342898,1.0342898 0 0 0 73.03125,41 l 0,-6 A 1.0342898,1.0342898 0 0 0 72,33.96875 l -48,0 a 1.0342898,1.0342898 0 0 0 -0.09375,0 z m 10,10 A 1.0342898,1.0342898 0 0 0 32.96875,45 l 0,6 A 1.0342898,1.0342898 0 0 0 34,52.03125 l 28,0 A 1.0342898,1.0342898 0 0 0 63.03125,51 l 0,-6 A 1.0342898,1.0342898 0 0 0 62,43.96875 l -28,0 a 1.0342898,1.0342898 0 0 0 -0.09375,0 z m 5.96875,11 A 1.0342898,1.0342898 0 0 0 38.96875,56 l 0,3.96875 -12.96875,0 A 1.0342898,1.0342898 0 0 0 24.96875,61 l 0,6 A 1.0342898,1.0342898 0 0 0 26,68.03125 l 12.96875,0 0,4.96875 a 1.0342898,1.0342898 0 0 0 1.8125,0.6875 L 48,65.5625 l 7.21875,8.125 A 1.0342898,1.0342898 0 0 0 57.03125,73 l 0,-4.96875 12.96875,0 A 1.0342898,1.0342898 0 0 0 71.03125,67 l 0,-6 A 1.0342898,1.0342898 0 0 0 70,59.96875 l -12.96875,0 0,-3.96875 a 1.0342898,1.0342898 0 0 0 -1.75,-0.71875 L 48,62.5625 40.71875,55.28125 A 1.0342898,1.0342898 0 0 0 39.875,54.96875 Z"
       inkscape:connector-curvature="0"
       style="opacity:0.15;fill:black;fill-opacity:1;stroke:none" />
    <path
       id="path41"
       inkscape:connector-curvature="0"
       d="m 30,25 0,6 36,0 0,-6 -36,0 z m -6,10 0,6 48,0 0,-6 -48,0 z m 10,10 0,6 28,0 0,-6 -28,0 z m 6,11 0,5 -14,0 0,6 14,0 0,6 8,-9 -8,-8 z m 8,8 8,9 0,-6 14,0 0,-6 -14,0 0,-5 -8,8 z"
       style="opacity:0.3;fill:black;fill-opacity:1;stroke:none" />
    <path
       id="path43"
       inkscape:connector-curvature="0"
       d="m 30,24 0,6 36,0 0,-6 -36,0 z m -6,10 0,6 48,0 0,-6 -48,0 z m 10,10 0,6 28,0 0,-6 -28,0 z m 6,11 0,5 -14,0 0,6 14,0 0,6 8,-9 -8,-8 z m 8,8 8,9 0,-6 14,0 0,-6 -14,0 0,-5 -8,8 z"
       style="fill:url(#linearGradient4013);fill-opacity:1;stroke:none" />
    <path
       id="path45"
       inkscape:connector-curvature="0"
       d="m 30,24 0,1 36,0 0,-1 -36,0 z m -6,10 0,1 48,0 0,-1 -48,0 z m 10,10 0,1 28,0 0,-1 -28,0 z m 6,11 0,1 7.53125,7.53125 L 48,63 40,55 Z m 8,8 0.46875,0.53125 L 56,56 l 0,-1 -8,8 z m -22,-3 0,1 14,0 0,-1 -14,0 z m 30,0 0,1 14,0 0,-1 -14,0 z"
       style="opacity:0.75;fill:white;fill-opacity:1;stroke:none" />
    <path
       id="path47"
       inkscape:connector-curvature="0"
       d="m 30,29 0,1 36,0 0,-1 -36,0 z m -6,10 0,1 48,0 0,-1 -48,0 z m 10,10 0,1 28,0 0,-1 -28,0 z M 47.53125,62.53125 40,71 l 0,1 8,-9 -0.46875,-0.46875 z M 48,63 56,72 56,71 48.46875,62.53125 48,63 Z m -22,2 0,1 14,0 0,-1 -14,0 z m 30,0 0,1 14,0 0,-1 -14,0 z"
       style="opacity:0.15;fill:black;fill-opacity:1;stroke:none" />
  </g>
</svg>
