<svg display="inline" height="96" width="96" xmlns="http://www.w3.org/2000/svg" xmlns:xlink="http://www.w3.org/1999/xlink" xmlns:sodipodi="http://sodipodi.sourceforge.net/DTD/sodipodi-0.dtd" xmlns:inkscape="http://www.inkscape.org/namespaces/inkscape">
 <defs>
  <radialGradient cy="90.17" r="42" gradientUnits="userSpaceOnUse" id="radialGradient3619-2" cx="48" gradientTransform="matrix(1.15731 0 0 0.99591 -7.551 0.197)">
   <stop stop-color="#ffffff" stop-opacity="1"/>
   <stop stop-color="#ffffff" stop-opacity="0" offset="1"/>
  </radialGradient>
  <linearGradient x2="0" y1="92.54" y2="7.02" gradientUnits="userSpaceOnUse" id="ButtonShadow-0" gradientTransform="matrix(1.0059 0 0 0.99417 100 0)">
   <stop stop-color="#000000" stop-opacity="1"/>
   <stop stop-color="#000000" stop-opacity="0.588" offset="1"/>
  </linearGradient>
  <linearGradient x2="0" xlink:href="#ButtonShadow-0" y1="6.132" y2="90.24" gradientUnits="userSpaceOnUse" id="linearGradient3780" gradientTransform="matrix(1.02381 0 0 -1.0119 -1.143 98.07)"/>
  <linearGradient x2="0" xlink:href="#ButtonShadow-0" y1="6.132" y2="90.24" gradientUnits="userSpaceOnUse" id="linearGradient3721-9" gradientTransform="matrix(1 0 0 -1 0 97)"/>
  <linearGradient x2="0" y1="72.09" y2="23.729" gradientUnits="userSpaceOnUse" id="linearGradient4013" gradientTransform="matrix(-1.1965 0 0 1 106.68 0)">
   <stop stop-color="#aaaaaa" stop-opacity="1"/>
   <stop stop-color="#f0f0f0" stop-opacity="1" offset="1"/>
  </linearGradient>
 </defs>
 <path d="M 12,3.96875 C 6.4889098,3.96875 1.96875,8.4889098 1.96875,14 l 0,71 c 0,5.51109 4.5201597,10.03125 10.03125,10.03125 l 72,0 c 5.51109,0 10.03125,-4.52016 10.03125,-10.03125 l 0,-71 C 94.03125,8.4889097 89.51109,3.96875 84,3.96875 l -72,0 z M 12,6 84,6 c 3.324,0 6,2.676 6,6 l 0,72 c 0,3.324 -2.676,6 -6,6 L 12,90 C 8.676,90 6,87.324 6,84 L 6,12 C 6,8.676 8.676,6 12,6 z" fill="url(#linearGradient3780)" fill-opacity="1" fill-rule="nonzero" stroke="none" opacity="0.08" inkscape:connector-curvature="0"/>
 <path d="M 12,4.96875 C 7.0283671,4.96875 2.96875,9.0283671 2.96875,14 l 0,71 c 0,4.971633 4.059617,9.03125 9.03125,9.03125 l 72,0 c 4.971633,0 9.03125,-4.059617 9.03125,-9.03125 l 0,-71 C 93.03125,9.028367 88.971633,4.96875 84,4.96875 l -72,0 z M 12,6 84,6 c 3.324,0 6,2.676 6,6 l 0,72 c 0,3.324 -2.676,6 -6,6 L 12,90 C 8.676,90 6,87.324 6,84 L 6,12 C 6,8.676 8.676,6 12,6 z" fill="url(#linearGradient3780)" fill-opacity="1" fill-rule="nonzero" stroke="none" opacity="0.1" inkscape:connector-curvature="0"/>
 <path d="M 11.1875,6.03125 C 7.159982,6.4419011 4,9.8664375 4,14 l 0,71 c 0,4.409133 3.590867,8 8,8 l 72,0 c 4.409133,0 8,-3.590867 8,-8 L 92,14 C 92,9.8029382 88.741028,6.3539584 84.625,6.03125 87.657886,6.337417 90,8.88375 90,12 l 0,72 c 0,3.324 -2.676,6 -6,6 L 12,90 C 8.676,90 6,87.324 6,84 L 6,12 c 0,-3.11625 2.342114,-5.662583 5.375,-5.96875 -0.06227,0.00488 -0.12563,-0.00631 -0.1875,0 z" fill="url(#linearGradient3780)" fill-opacity="1" fill-rule="nonzero" stroke="none" opacity="0.2" inkscape:connector-curvature="0"/>
 <path d="M 6.4375,9.75 C 5.5380109,10.927446 5,12.397277 5,14 l 0,71 c 0,3.878 3.122,7 7,7 l 72,0 c 3.878,0 7,-3.122 7,-7 L 91,14 C 91,12.397277 90.461989,10.927446 89.5625,9.75 89.841816,10.444095 90,11.203625 90,12 l 0,72 c 0,3.324 -2.676,6 -6,6 L 12,90 C 8.676,90 6,87.324 6,84 L 6,12 C 6,11.203625 6.1581836,10.444095 6.4375,9.75 z" fill="url(#linearGradient3780)" fill-opacity="1" fill-rule="nonzero" stroke="none" opacity="0.3" inkscape:connector-curvature="0"/>
 <path d="m 6,84 0,1 c 0,3.324 2.676,6 6,6 l 72,0 c 3.324,0 6,-2.676 6,-6 l 0,-1 c 0,3.324 -2.676,6 -6,6 L 12,90 C 8.676,90 6,87.324 6,84 z" fill="url(#linearGradient3721-9)" fill-opacity="1" fill-rule="nonzero" stroke="none" opacity="0.45" inkscape:connector-curvature="0"/>
 <rect x="6" rx="6" y="6" fill="#000000" fill-opacity="1" fill-rule="nonzero" stroke="none" height="84" opacity="0.6" width="84"/>
 <path d="M 12,90 C 8.676,90 6,87.324 6,84 L 6,82 6,14 6,12 c 0,-0.334721 0.04135,-0.6507 0.09375,-0.96875 0.0487,-0.295596 0.09704,-0.596915 0.1875,-0.875 C 6.29113,10.12587 6.302142,10.09265 6.3125,10.0625 6.411365,9.774729 6.5473802,9.515048 6.6875,9.25 6.8320918,8.976493 7.0031161,8.714385 7.1875,8.46875 7.3718839,8.223115 7.5612765,7.995278 7.78125,7.78125 8.221197,7.353194 8.72416,6.966724 9.28125,6.6875 9.559795,6.547888 9.8547231,6.440553 10.15625,6.34375 9.9000482,6.443972 9.6695391,6.580022 9.4375,6.71875 c -0.00741,0.0044 -0.023866,-0.0045 -0.03125,0 -0.031933,0.0193 -0.062293,0.04251 -0.09375,0.0625 -0.120395,0.0767 -0.2310226,0.163513 -0.34375,0.25 -0.1061728,0.0808 -0.2132809,0.161112 -0.3125,0.25 C 8.4783201,7.442683 8.3087904,7.626638 8.15625,7.8125 8.0486711,7.942755 7.9378561,8.077785 7.84375,8.21875 7.818661,8.25713 7.805304,8.30462 7.78125,8.34375 7.716487,8.446782 7.6510225,8.548267 7.59375,8.65625 7.4927417,8.850956 7.3880752,9.071951 7.3125,9.28125 7.30454,9.30306 7.288911,9.3218 7.28125,9.34375 7.2494249,9.4357 7.2454455,9.530581 7.21875,9.625 7.1884177,9.731618 7.1483606,9.828031 7.125,9.9375 7.0521214,10.279012 7,10.635705 7,11 l 0,2 0,68 0,2 c 0,2.781848 2.2181517,5 5,5 l 2,0 68,0 2,0 c 2.781848,0 5,-2.218152 5,-5 l 0,-2 0,-68 0,-2 C 89,10.635705 88.94788,10.279012 88.875,9.9375 88.83085,9.730607 88.78662,9.539842 88.71875,9.34375 88.71105,9.3218 88.69545,9.30306 88.6875,9.28125 88.62476,9.107511 88.549117,8.913801 88.46875,8.75 88.42717,8.6672 88.38971,8.580046 88.34375,8.5 88.28915,8.40279 88.216976,8.31165 88.15625,8.21875 88.06214,8.077785 87.951329,7.942755 87.84375,7.8125 87.700576,7.63805 87.540609,7.465502 87.375,7.3125 87.36383,7.3023 87.35502,7.29135 87.34375,7.28125 87.205364,7.155694 87.058659,7.046814 86.90625,6.9375 86.803679,6.86435 86.701932,6.784136 86.59375,6.71875 c -0.0074,-0.0045 -0.02384,0.0044 -0.03125,0 -0.232039,-0.138728 -0.462548,-0.274778 -0.71875,-0.375 0.301527,0.0968 0.596455,0.204138 0.875,0.34375 0.55709,0.279224 1.060053,0.665694 1.5,1.09375 0.219973,0.214028 0.409366,0.441865 0.59375,0.6875 0.184384,0.245635 0.355408,0.507743 0.5,0.78125 0.14012,0.265048 0.276135,0.524729 0.375,0.8125 0.01041,0.03078 0.02133,0.06274 0.03125,0.09375 0.09046,0.278085 0.1388,0.579404 0.1875,0.875 C 89.95865,11.3493 90,11.665279 90,12 l 0,2 0,68 0,2 c 0,3.324 -2.676,6 -6,6 l -72,0 z" fill="url(#radialGradient3619-2)" fill-opacity="1" fill-rule="nonzero" stroke="none" opacity="0.15" inkscape:connector-curvature="0"/>
 <path d="m 29.65625,22.9375 c -2.124202,0.404202 -1.728098,2.888155 -1.71875,4.495169 0.261509,1.767933 -0.753774,4.255284 1.09375,5.379831 0.02069,0.293636 -2.515493,0.04034 -3.478329,0.125 -1.443891,-0.213176 -3.508313,0.06344 -3.615421,1.90625 0.105333,2.304491 -0.210615,4.671371 0.15625,6.9375 0.982837,2.075741 3.646139,1.027489 5.444678,1.28125 1.914274,0 3.828548,0 5.742822,0 -2.092297,0.872729 -1.12616,3.511277 -1.34375,5.254776 0.06571,1.645531 -0.543011,4.220328 1.65625,4.713974 9.598126,0.052 19.214376,0.05219 28.8125,0 2.34838,-0.575819 1.51371,-3.371497 1.65625,-5.127374 -0.1549,-1.631483 0.641726,-4.0976 -1.375,-4.841376 3.297403,-0.06542 6.630233,0.129082 9.90625,-0.09375 2.234683,-0.76431 1.259768,-3.517832 1.46875,-5.286026 -0.06571,-1.645531 0.543011,-4.220328 -1.65625,-4.713974 -1.901083,-0.07285 -3.813358,-0.01047 -5.71875,-0.03125 2.132241,-0.842009 1.156785,-3.505117 1.375,-5.254776 -0.06571,-1.645531 0.543011,-4.220328 -1.65625,-4.713974 -12.244476,-0.07291 -24.501445,-0.01043 -36.75,-0.03125 z m 10.09375,31 c -1.999852,0.264479 -1.924577,2.525106 -1.8125,4.052866 0.418293,1.766045 -2.069923,0.625583 -3.096124,0.947134 -3.200173,0.101588 -6.460487,-0.20487 -9.622626,0.15625 -2.075741,0.982837 -1.027489,3.646139 -1.28125,5.444678 0.02394,1.589279 -0.455158,4.041614 1.65625,4.492822 4.109412,0.07291 8.230028,0.01042 12.34375,0.03125 0.246559,1.79509 -0.598388,3.956935 0.65625,5.46875 1.308174,1.228561 3.08895,0.135158 3.84977,-1.148467 C 44.29568,71.296855 46.14784,69.210928 48,67.125 c 2.335205,2.525044 4.489257,5.265514 6.9375,7.65625 1.600753,1.0218 3.561459,-0.69965 3.125,-2.444705 0.329092,-1.057125 -0.806865,-3.5793 0.884607,-3.274045 3.877976,-0.06225 7.789881,0.124663 11.646643,-0.09375 2.234683,-0.76431 1.259768,-3.517832 1.46875,-5.286026 -0.06571,-1.645531 0.543011,-4.220328 -1.65625,-4.713974 -4.109412,-0.07291 -8.230028,-0.01042 -12.34375,-0.03125 -0.133253,-1.649114 0.626061,-4.12135 -1.40625,-4.875 -2.125493,-0.56687 -3.151217,1.933904 -4.595796,3.002046 C 50.706969,58.418031 49.353485,59.771515 48,61.125 45.573042,58.820669 43.376059,56.214538 40.8125,54.09375 40.461314,53.980459 40.121728,53.90243 39.75,53.9375 z" fill="#000000" fill-opacity="1" stroke="none" opacity="0.1" inkscape:connector-curvature="0"/>
 <path d="M 29.90625,23.96875 A 1.0342898,1.0342898 0 0 0 28.96875,25 l 0,6 A 1.0342898,1.0342898 0 0 0 30,32.03125 l 36,0 A 1.0342898,1.0342898 0 0 0 67.03125,31 l 0,-6 A 1.0342898,1.0342898 0 0 0 66,23.96875 l -36,0 a 1.0342898,1.0342898 0 0 0 -0.09375,0 z m -6,10 A 1.0342898,1.0342898 0 0 0 22.96875,35 l 0,6 A 1.0342898,1.0342898 0 0 0 24,42.03125 l 48,0 A 1.0342898,1.0342898 0 0 0 73.03125,41 l 0,-6 A 1.0342898,1.0342898 0 0 0 72,33.96875 l -48,0 a 1.0342898,1.0342898 0 0 0 -0.09375,0 z m 10,10 A 1.0342898,1.0342898 0 0 0 32.96875,45 l 0,6 A 1.0342898,1.0342898 0 0 0 34,52.03125 l 28,0 A 1.0342898,1.0342898 0 0 0 63.03125,51 l 0,-6 A 1.0342898,1.0342898 0 0 0 62,43.96875 l -28,0 a 1.0342898,1.0342898 0 0 0 -0.09375,0 z m 5.96875,11 A 1.0342898,1.0342898 0 0 0 38.96875,56 l 0,3.96875 -12.96875,0 A 1.0342898,1.0342898 0 0 0 24.96875,61 l 0,6 A 1.0342898,1.0342898 0 0 0 26,68.03125 l 12.96875,0 0,4.96875 a 1.0342898,1.0342898 0 0 0 1.8125,0.6875 L 48,65.5625 l 7.21875,8.125 A 1.0342898,1.0342898 0 0 0 57.03125,73 l 0,-4.96875 12.96875,0 A 1.0342898,1.0342898 0 0 0 71.03125,67 l 0,-6 A 1.0342898,1.0342898 0 0 0 70,59.96875 l -12.96875,0 0,-3.96875 a 1.0342898,1.0342898 0 0 0 -1.75,-0.71875 L 48,62.5625 40.71875,55.28125 A 1.0342898,1.0342898 0 0 0 39.875,54.96875 z" fill="#000000" fill-opacity="1" stroke="none" opacity="0.15"/>
 <path d="m 30,25 0,6 36,0 0,-6 -36,0 z m -6,10 0,6 48,0 0,-6 -48,0 z m 10,10 0,6 28,0 0,-6 -28,0 z m 6,11 0,5 -14,0 0,6 14,0 0,6 8,-9 -8,-8 z m 8,8 8,9 0,-6 14,0 0,-6 -14,0 0,-5 -8,8 z" fill="#000000" fill-opacity="1" stroke="none" opacity="0.3" inkscape:connector-curvature="0"/>
 <path d="m 30,24 0,6 36,0 0,-6 -36,0 z m -6,10 0,6 48,0 0,-6 -48,0 z m 10,10 0,6 28,0 0,-6 -28,0 z m 6,11 0,5 -14,0 0,6 14,0 0,6 8,-9 -8,-8 z m 8,8 8,9 0,-6 14,0 0,-6 -14,0 0,-5 -8,8 z" fill="url(#linearGradient4013)" fill-opacity="1" stroke="none" inkscape:connector-curvature="0"/>
 <path d="m 30,24 0,1 36,0 0,-1 -36,0 z m -6,10 0,1 48,0 0,-1 -48,0 z m 10,10 0,1 28,0 0,-1 -28,0 z m 6,11 0,1 7.53125,7.53125 L 48,63 40,55 z m 8,8 0.46875,0.53125 L 56,56 l 0,-1 -8,8 z m -22,-3 0,1 14,0 0,-1 -14,0 z m 30,0 0,1 14,0 0,-1 -14,0 z" fill="#ffffff" fill-opacity="1" stroke="none" opacity="0.75" inkscape:connector-curvature="0"/>
 <path d="m 30,29 0,1 36,0 0,-1 -36,0 z m -6,10 0,1 48,0 0,-1 -48,0 z m 10,10 0,1 28,0 0,-1 -28,0 z M 47.53125,62.53125 40,71 l 0,1 8,-9 -0.46875,-0.46875 z M 48,63 56,72 56,71 48.46875,62.53125 48,63 z m -22,2 0,1 14,0 0,-1 -14,0 z m 30,0 0,1 14,0 0,-1 -14,0 z" fill="#000000" fill-opacity="1" stroke="none" opacity="0.15" inkscape:connector-curvature="0"/>
</svg>
