<?xml version="1.0" encoding="UTF-8" standalone="no"?>
<svg
   xmlns:dc="http://purl.org/dc/elements/1.1/"
   xmlns:cc="http://creativecommons.org/ns#"
   xmlns:rdf="http://www.w3.org/1999/02/22-rdf-syntax-ns#"
   xmlns:svg="http://www.w3.org/2000/svg"
   xmlns="http://www.w3.org/2000/svg"
   xmlns:xlink="http://www.w3.org/1999/xlink"
   xmlns:sodipodi="http://sodipodi.sourceforge.net/DTD/sodipodi-0.dtd"
   xmlns:inkscape="http://www.inkscape.org/namespaces/inkscape"
   display="inline"
   height="96"
   width="96"
   id="svg2"
   version="1.1"
   inkscape:version="0.91 r13725"
   sodipodi:docname="format-justify-left.svg">
  <metadata
     id="metadata51">
    <rdf:RDF>
      <cc:Work
         rdf:about="">
        <dc:format>image/svg+xml</dc:format>
        <dc:type
           rdf:resource="http://purl.org/dc/dcmitype/StillImage" />
      </cc:Work>
    </rdf:RDF>
  </metadata>
  <sodipodi:namedview
     pagecolor="#ffffff"
     bordercolor="#666666"
     borderopacity="1"
     objecttolerance="10"
     gridtolerance="10"
     guidetolerance="10"
     inkscape:pageopacity="0"
     inkscape:pageshadow="2"
     inkscape:window-width="640"
     inkscape:window-height="480"
     id="namedview49"
     showgrid="false"
     inkscape:zoom="2.4583333"
     inkscape:cx="22.98305"
     inkscape:cy="47.999999"
     inkscape:window-x="66"
     inkscape:window-y="91"
     inkscape:window-maximized="0"
     inkscape:current-layer="svg2" />
  <defs
     id="defs4">
    <linearGradient
       x2="0"
       y1="72.09"
       y2="23.729"
       gradientUnits="userSpaceOnUse"
       id="linearGradient3746"
       gradientTransform="matrix(1.26316,0,0,1,-18.947,0)">
      <stop
         stop-color="#4d4d4d"
         stop-opacity="1"
         id="stop7" />
      <stop
         stop-color="#1a1a1a"
         stop-opacity="1"
         offset="1"
         id="stop9" />
    </linearGradient>
    <radialGradient
       cy="90.17"
       r="42"
       gradientUnits="userSpaceOnUse"
       id="radialGradient3619-2"
       cx="48"
       gradientTransform="matrix(1.15731 0 0 0.99591 -7.551 0.197)">
      <stop
         stop-color="#ffffff"
         stop-opacity="1"
         id="stop12" />
      <stop
         stop-color="#ffffff"
         stop-opacity="0"
         offset="1"
         id="stop14" />
    </radialGradient>
    <linearGradient
       x2="0"
       y1="92.54"
       y2="7.02"
       gradientUnits="userSpaceOnUse"
       id="ButtonShadow-0"
       gradientTransform="matrix(1.0059 0 0 0.99417 100 0)">
      <stop
         stop-color="#000000"
         stop-opacity="1"
         id="stop17" />
      <stop
         stop-color="#000000"
         stop-opacity="0.588"
         offset="1"
         id="stop19" />
    </linearGradient>
    <linearGradient
       x2="0"
       xlink:href="#ButtonShadow-0"
       y1="6.132"
       y2="90.24"
       gradientUnits="userSpaceOnUse"
       id="linearGradient3780"
       gradientTransform="matrix(1.02381 0 0 -1.0119 -1.143 98.07)" />
    <linearGradient
       x2="0"
       xlink:href="#ButtonShadow-0"
       y1="6.132"
       y2="90.24"
       gradientUnits="userSpaceOnUse"
       id="linearGradient3721-9"
       gradientTransform="matrix(1 0 0 -1 0 97)" />
  </defs>
  <g
     id="g3457"
     transform="matrix(1.5358912,0,0,1.5358912,-25.72692,-27.224254)">
    <path
       id="path37"
       inkscape:connector-curvature="0"
       d="M 23.65625,23 C 22.175365,23.200442 21.826363,24.813112 22,26.060821 c 0.08599,1.899617 -0.171004,3.854892 0.125,5.720429 0.283089,0.619966 0.868378,1.100259 1.53125,1.21875 -1.480885,0.200442 -1.829887,1.813112 -1.65625,3.060821 0.08599,1.899617 -0.171004,3.854892 0.125,5.720429 0.283089,0.619966 0.868378,1.100259 1.53125,1.21875 -1.480885,0.200442 -1.829887,1.813112 -1.65625,3.060821 0.08599,1.899617 -0.171004,3.854892 0.125,5.720429 C 22.610587,53.016519 24.027307,53.118008 25.176652,53 34.282712,52.97897 43.402404,53.04194 52.5,52.96875 53.764537,52.662269 54.199175,51.288655 54,50.117511 53.934521,48.188062 54.12945,46.216354 53.90625,44.3125 53.642963,43.630195 53.015519,43.089341 52.28125,43 59.019076,42.978752 65.77065,43.042228 72.5,42.96875 73.764537,42.662269 74.199175,41.288655 74,40.117511 73.934521,38.188062 74.12945,36.216354 73.90625,34.3125 73.496815,33.082513 72.110662,32.847469 70.970429,33 68.074036,33 65.177643,33 62.28125,33 63.581029,32.85751 64.236288,31.465778 64,30.264592 63.934451,28.286128 64.129527,26.265369 63.90625,24.3125 63.496815,23.082513 62.110662,22.847469 60.970429,23 48.532386,23 36.09421,23 23.65625,23 Z M 31.875,53.96875 c -1.589781,0.317477 -2.397568,1.946925 -3.596069,2.917524 -1.98825,2.061352 -4.141654,4.029492 -6.028931,6.144976 -0.907742,1.600994 0.811374,2.830268 1.715734,3.930201 2.303783,2.543027 4.516999,5.179571 6.878016,7.663549 C 32.187545,75.662583 34.284031,74.366485 34,72.705837 34,71.470558 34,70.235279 34,69 38.194296,68.95686 42.416447,69.08536 46.59375,68.9375 47.808021,68.592315 48.181092,67.252802 48,66.117511 47.934521,64.188062 48.12945,62.216354 47.90625,60.3125 47.496815,59.082513 46.110662,58.847469 44.970429,59 41.31362,59 37.65681,59 34,59 c -0.167826,-1.413302 0.404613,-3.033274 -0.4375,-4.28125 -0.423237,-0.501719 -1.028743,-0.767655 -1.6875,-0.75 z"
       style="opacity:0.1;fill:black;fill-opacity:1;stroke:none" />
    <path
       id="path39"
       d="M 23.90625,23.9375 A 1.0583464,1.0583464 0 0 0 22.9375,25 l 0,6 A 1.0583464,1.0583464 0 0 0 24,32.0625 l 38,0 A 1.0583464,1.0583464 0 0 0 63.0625,31 l 0,-6 A 1.0583464,1.0583464 0 0 0 62,23.9375 l -38,0 a 1.0583464,1.0583464 0 0 0 -0.09375,0 z m 0,10 A 1.0583464,1.0583464 0 0 0 22.9375,35 l 0,6 A 1.0583464,1.0583464 0 0 0 24,42.0625 l 48,0 A 1.0583464,1.0583464 0 0 0 73.0625,41 l 0,-6 A 1.0583464,1.0583464 0 0 0 72,33.9375 l -48,0 a 1.0583464,1.0583464 0 0 0 -0.09375,0 z m 0,10 A 1.0583464,1.0583464 0 0 0 22.9375,45 l 0,6 A 1.0583464,1.0583464 0 0 0 24,52.0625 l 28,0 A 1.0583464,1.0583464 0 0 0 53.0625,51 l 0,-6 A 1.0583464,1.0583464 0 0 0 52,43.9375 l -28,0 a 1.0583464,1.0583464 0 0 0 -0.09375,0 z m 7.96875,11 A 1.0583464,1.0583464 0 0 0 31.25,55.25 l -8,8 a 1.0583464,1.0583464 0 0 0 -0.03125,1.4375 l 8,9 A 1.0583464,1.0583464 0 0 0 33.0625,73 l 0,-4.9375 12.9375,0 A 1.0583464,1.0583464 0 0 0 47.0625,67 l 0,-6 A 1.0583464,1.0583464 0 0 0 46,59.9375 l -12.9375,0 0,-3.9375 A 1.0583464,1.0583464 0 0 0 31.875,54.9375 Z"
       inkscape:connector-curvature="0"
       style="opacity:0.15;fill:black;fill-opacity:1;stroke:none" />
    <path
       id="path41"
       inkscape:connector-curvature="0"
       d="m 24,25 0,6 38,0 0,-6 z m 0,10 0,6 48,0 0,-6 z m 0,10 0,6 28,0 0,-6 z m 8,11 -8,8 8,9 0,-6 14,0 0,-6 -14,0 z"
       style="opacity:0.3;fill:black;fill-opacity:1;stroke:none" />
    <path
       id="path43"
       inkscape:connector-curvature="0"
       d="m 24,24 0,6 38,0 0,-6 z m 0,10 0,6 48,0 0,-6 z m 0,10 0,6 28,0 0,-6 z m 8,11 -8,8 8,9 0,-6 14,0 0,-6 -14,0 z"
       style="fill:url(#linearGradient3746);fill-opacity:1;stroke:none" />
    <path
       id="path45"
       inkscape:connector-curvature="0"
       d="m 24,24 0,1 38,0 0,-1 -38,0 z m 0,10 0,1 48,0 0,-1 -48,0 z m 0,10 0,1 28,0 0,-1 -28,0 z m 8,11 -8,8 0.46875,0.53125 L 32,56 32,55 Z m 0,5 0,1 14,0 0,-1 -14,0 z"
       style="opacity:0.75;fill:white;fill-opacity:1;stroke:none" />
    <path
       id="path47"
       inkscape:connector-curvature="0"
       d="m 24,29 0,1 38,0 0,-1 -38,0 z m 0,10 0,1 48,0 0,-1 -48,0 z m 0,10 0,1 28,0 0,-1 -28,0 z M 24.46875,62.53125 24,63 l 8,9 0,-1 -7.53125,-8.46875 z M 32,65 l 0,1 14,0 0,-1 -14,0 z"
       style="opacity:0.15;fill:black;fill-opacity:1;stroke:none" />
  </g>
</svg>
