<?xml version="1.0" encoding="UTF-8" standalone="no"?>
<svg
   xmlns:dc="http://purl.org/dc/elements/1.1/"
   xmlns:cc="http://creativecommons.org/ns#"
   xmlns:rdf="http://www.w3.org/1999/02/22-rdf-syntax-ns#"
   xmlns:svg="http://www.w3.org/2000/svg"
   xmlns="http://www.w3.org/2000/svg"
   xmlns:xlink="http://www.w3.org/1999/xlink"
   xmlns:sodipodi="http://sodipodi.sourceforge.net/DTD/sodipodi-0.dtd"
   xmlns:inkscape="http://www.inkscape.org/namespaces/inkscape"
   display="inline"
   height="96"
   width="96"
   id="svg2"
   version="1.1"
   inkscape:version="0.91 r13725"
   sodipodi:docname="format-justify-right.svg">
  <metadata
     id="metadata51">
    <rdf:RDF>
      <cc:Work
         rdf:about="">
        <dc:format>image/svg+xml</dc:format>
        <dc:type
           rdf:resource="http://purl.org/dc/dcmitype/StillImage" />
      </cc:Work>
    </rdf:RDF>
  </metadata>
  <sodipodi:namedview
     pagecolor="#ffffff"
     bordercolor="#666666"
     borderopacity="1"
     objecttolerance="10"
     gridtolerance="10"
     guidetolerance="10"
     inkscape:pageopacity="0"
     inkscape:pageshadow="2"
     inkscape:window-width="640"
     inkscape:window-height="480"
     id="namedview49"
     showgrid="false"
     inkscape:zoom="3.0625"
     inkscape:cx="33.632653"
     inkscape:cy="48"
     inkscape:window-x="66"
     inkscape:window-y="91"
     inkscape:window-maximized="0"
     inkscape:current-layer="svg2" />
  <defs
     id="defs4">
    <radialGradient
       cy="90.17"
       r="42"
       gradientUnits="userSpaceOnUse"
       id="radialGradient3619-2"
       cx="48"
       gradientTransform="matrix(1.15731 0 0 0.99591 -7.551 0.197)">
      <stop
         stop-color="#ffffff"
         stop-opacity="1"
         id="stop7" />
      <stop
         stop-color="#ffffff"
         stop-opacity="0"
         offset="1"
         id="stop9" />
    </radialGradient>
    <linearGradient
       x2="0"
       y1="92.54"
       y2="7.02"
       gradientUnits="userSpaceOnUse"
       id="ButtonShadow-0"
       gradientTransform="matrix(1.0059 0 0 0.99417 100 0)">
      <stop
         stop-color="#000000"
         stop-opacity="1"
         id="stop12" />
      <stop
         stop-color="#000000"
         stop-opacity="0.588"
         offset="1"
         id="stop14" />
    </linearGradient>
    <linearGradient
       x2="0"
       xlink:href="#ButtonShadow-0"
       y1="6.132"
       y2="90.24"
       gradientUnits="userSpaceOnUse"
       id="linearGradient3780"
       gradientTransform="matrix(1.02381 0 0 -1.0119 -1.143 98.07)" />
    <linearGradient
       x2="0"
       xlink:href="#ButtonShadow-0"
       y1="6.132"
       y2="90.24"
       gradientUnits="userSpaceOnUse"
       id="linearGradient3721-9"
       gradientTransform="matrix(1 0 0 -1 0 97)" />
    <linearGradient
       x2="0"
       y1="72.09"
       y2="23.729"
       gradientUnits="userSpaceOnUse"
       id="linearGradient3965"
       gradientTransform="matrix(-1.26316,0,0,1,114.95,0)">
      <stop
         stop-color="#4d4d4d"
         stop-opacity="1"
         id="stop19" />
      <stop
         stop-color="#1a1a1a"
         stop-opacity="1"
         offset="1"
         id="stop21" />
    </linearGradient>
  </defs>
  <g
     id="g3465"
     transform="matrix(1.5358912,0,0,1.5358912,-25.72692,-27.224254)">
    <path
       id="path37"
       inkscape:connector-curvature="0"
       d="m 72.349144,23 c 1.480885,0.200442 1.829887,1.813112 1.65625,3.060821 -0.08599,1.899617 0.171004,3.854892 -0.125,5.720429 -0.283089,0.619966 -0.868378,1.100259 -1.53125,1.21875 1.480885,0.200442 1.829887,1.813112 1.65625,3.060821 -0.08599,1.899617 0.171004,3.854892 -0.125,5.720429 -0.283089,0.619966 -0.868378,1.100259 -1.53125,1.21875 1.480885,0.200442 1.829887,1.813112 1.65625,3.060821 -0.08599,1.899617 0.171004,3.854892 -0.125,5.720429 -0.485587,1.235269 -1.902307,1.336758 -3.051652,1.21875 -9.10606,-0.02103 -18.225752,0.04194 -27.323348,-0.03125 -1.264537,-0.306481 -1.699175,-1.680095 -1.5,-2.851239 0.06548,-1.929449 -0.12945,-3.901157 0.09375,-5.805011 0.263287,-0.682305 0.890731,-1.223159 1.625,-1.3125 -6.737826,-0.02125 -13.4894,0.04223 -20.21875,-0.03125 -1.264537,-0.306481 -1.699175,-1.680095 -1.5,-2.851239 0.06548,-1.929449 -0.12945,-3.901157 0.09375,-5.805011 0.409435,-1.229987 1.795588,-1.465031 2.935821,-1.3125 2.896393,0 5.792786,0 8.689179,0 -1.299779,-0.14249 -1.955038,-1.534222 -1.71875,-2.735408 0.06555,-1.978464 -0.129527,-3.999223 0.09375,-5.952092 0.409435,-1.229987 1.795588,-1.465031 2.935821,-1.3125 12.438043,0 24.876219,0 37.314179,0 z m -8.21875,30.96875 c 1.589781,0.317477 2.397568,1.946925 3.596069,2.917524 1.98825,2.061352 4.141654,4.029492 6.028931,6.144976 0.907742,1.600994 -0.811374,2.830268 -1.715734,3.930201 -2.303783,2.543027 -4.516999,5.179571 -6.878016,7.663549 -1.343795,1.037583 -3.440281,-0.258515 -3.15625,-1.919163 0,-1.235279 0,-2.470558 0,-3.705837 -4.194296,-0.04314 -8.416447,0.08536 -12.59375,-0.0625 -1.214271,-0.345185 -1.587342,-1.684698 -1.40625,-2.819989 0.06548,-1.929449 -0.12945,-3.901157 0.09375,-5.805011 0.409435,-1.229987 1.795588,-1.465031 2.935821,-1.3125 3.656809,0 7.313619,0 10.970429,0 0.167826,-1.413302 -0.404613,-3.033274 0.4375,-4.28125 0.423237,-0.501719 1.028743,-0.767655 1.6875,-0.75 z"
       style="opacity:0.1;fill:black;fill-opacity:1;stroke:none" />
    <path
       id="path39"
       transform="matrix(-1,0,0,1,96.01,0)"
       d="M 23.90625,23.9375 A 1.0583464,1.0583464 0 0 0 22.9375,25 l 0,6 A 1.0583464,1.0583464 0 0 0 24,32.0625 l 38,0 A 1.0583464,1.0583464 0 0 0 63.0625,31 l 0,-6 A 1.0583464,1.0583464 0 0 0 62,23.9375 l -38,0 a 1.0583464,1.0583464 0 0 0 -0.09375,0 z m 0,10 A 1.0583464,1.0583464 0 0 0 22.9375,35 l 0,6 A 1.0583464,1.0583464 0 0 0 24,42.0625 l 48,0 A 1.0583464,1.0583464 0 0 0 73.0625,41 l 0,-6 A 1.0583464,1.0583464 0 0 0 72,33.9375 l -48,0 a 1.0583464,1.0583464 0 0 0 -0.09375,0 z m 0,10 A 1.0583464,1.0583464 0 0 0 22.9375,45 l 0,6 A 1.0583464,1.0583464 0 0 0 24,52.0625 l 28,0 A 1.0583464,1.0583464 0 0 0 53.0625,51 l 0,-6 A 1.0583464,1.0583464 0 0 0 52,43.9375 l -28,0 a 1.0583464,1.0583464 0 0 0 -0.09375,0 z m 7.96875,11 A 1.0583464,1.0583464 0 0 0 31.25,55.25 l -8,8 a 1.0583464,1.0583464 0 0 0 -0.03125,1.4375 l 8,9 A 1.0583464,1.0583464 0 0 0 33.0625,73 l 0,-4.9375 12.9375,0 A 1.0583464,1.0583464 0 0 0 47.0625,67 l 0,-6 A 1.0583464,1.0583464 0 0 0 46,59.9375 l -12.9375,0 0,-3.9375 A 1.0583464,1.0583464 0 0 0 31.875,54.9375 Z"
       inkscape:connector-curvature="0"
       style="opacity:0.15;fill:black;fill-opacity:1;stroke:none" />
    <path
       id="path41"
       inkscape:connector-curvature="0"
       d="m 72.005394,25 0,6 -38,0 0,-6 z m 0,10 0,6 -48,0 0,-6 z m 0,10 0,6 -28,0 0,-6 z m -8,11 8,8 -8,9 0,-6 -14,0 0,-6 14,0 z"
       style="opacity:0.3;fill:black;fill-opacity:1;stroke:none" />
    <path
       id="path43"
       inkscape:connector-curvature="0"
       d="m 72.005394,24 0,6 -38,0 0,-6 z m 0,10 0,6 -48,0 0,-6 z m 0,10 0,6 -28,0 0,-6 z m -8,11 8,8 -8,9 0,-6 -14,0 0,-6 14,0 z"
       style="fill:url(#linearGradient3965);fill-opacity:1;stroke:none" />
    <path
       id="path45"
       inkscape:connector-curvature="0"
       d="m 72.005394,24 0,1 -38,0 0,-1 38,0 z m 0,10 0,1 -48,0 0,-1 48,0 z m 0,10 0,1 -28,0 0,-1 28,0 z m -8,11 8,8 -0.46875,0.53125 L 64.005394,56 l 0,-1 z m 0,5 0,1 -14,0 0,-1 14,0 z"
       style="opacity:0.75;fill:white;fill-opacity:1;stroke:none" />
    <path
       id="path47"
       inkscape:connector-curvature="0"
       d="m 72.005394,29 0,1 -38,0 0,-1 38,0 z m 0,10 0,1 -48,0 0,-1 48,0 z m 0,10 0,1 -28,0 0,-1 28,0 z m -0.46875,13.53125 0.46875,0.46875 -8,9 0,-1 7.53125,-8.46875 z M 64.005394,65 l 0,1 -14,0 0,-1 14,0 z"
       style="opacity:0.15;fill:black;fill-opacity:1;stroke:none" />
  </g>
</svg>
