<?xml version="1.0" encoding="UTF-8" standalone="no"?>
<svg
   xmlns:dc="http://purl.org/dc/elements/1.1/"
   xmlns:cc="http://creativecommons.org/ns#"
   xmlns:rdf="http://www.w3.org/1999/02/22-rdf-syntax-ns#"
   xmlns:svg="http://www.w3.org/2000/svg"
   xmlns="http://www.w3.org/2000/svg"
   xmlns:xlink="http://www.w3.org/1999/xlink"
   xmlns:sodipodi="http://sodipodi.sourceforge.net/DTD/sodipodi-0.dtd"
   xmlns:inkscape="http://www.inkscape.org/namespaces/inkscape"
   height="96"
   width="96"
   id="svg2"
   version="1.1"
   inkscape:version="0.91 r13725"
   sodipodi:docname="format-text-italic.svg">
  <metadata
     id="metadata68">
    <rdf:RDF>
      <cc:Work
         rdf:about="">
        <dc:format>image/svg+xml</dc:format>
        <dc:type
           rdf:resource="http://purl.org/dc/dcmitype/StillImage" />
      </cc:Work>
    </rdf:RDF>
  </metadata>
  <sodipodi:namedview
     pagecolor="#ffffff"
     bordercolor="#666666"
     borderopacity="1"
     objecttolerance="10"
     gridtolerance="10"
     guidetolerance="10"
     inkscape:pageopacity="0"
     inkscape:pageshadow="2"
     inkscape:window-width="640"
     inkscape:window-height="480"
     id="namedview66"
     showgrid="false"
     inkscape:zoom="4.9166667"
     inkscape:cx="69.451639"
     inkscape:cy="31.534316"
     inkscape:window-x="124"
     inkscape:window-y="148"
     inkscape:window-maximized="0"
     inkscape:current-layer="svg2" />
  <defs
     id="defs4">
    <linearGradient
       x2="0"
       y1="92.54"
       y2="7.02"
       gradientUnits="userSpaceOnUse"
       id="ButtonShadow-0"
       gradientTransform="matrix(1.0059 0 0 0.99417 100 0)">
      <stop
         stop-color="#000000"
         stop-opacity="1"
         id="stop7" />
      <stop
         stop-color="#000000"
         stop-opacity="0.588"
         offset="1"
         id="stop9" />
    </linearGradient>
    <linearGradient
       x2="0"
       xlink:href="#ButtonShadow-0"
       y1="6.132"
       y2="90.24"
       gradientUnits="userSpaceOnUse"
       id="linearGradient3780"
       gradientTransform="matrix(1.02381 0 0 -1.0119 -1.143 98.07)" />
    <linearGradient
       x2="0"
       xlink:href="#ButtonShadow-0"
       y1="6.132"
       y2="90.24"
       gradientUnits="userSpaceOnUse"
       id="linearGradient3721"
       gradientTransform="matrix(1 0 0 -1 0 97)" />
    <radialGradient
       cy="90.17"
       r="42"
       gradientUnits="userSpaceOnUse"
       id="radialGradient3619-3"
       cx="48"
       gradientTransform="matrix(1.15731 0 0 0.99591 -7.551 0.197)">
      <stop
         stop-color="#ffffff"
         stop-opacity="1"
         id="stop14" />
      <stop
         stop-color="#ffffff"
         stop-opacity="0"
         offset="1"
         id="stop16" />
    </radialGradient>
    <linearGradient
       x2="0"
       y1="5.886"
       y2="17.767"
       gradientUnits="userSpaceOnUse"
       id="linearGradient3047"
       gradientTransform="matrix(5.9999925,0,0,5.9999925,-17.663894,-25.999958)">
      <stop
         stop-color="#1a1a1a"
         stop-opacity="1"
         id="stop19" />
      <stop
         stop-color="#4d4d4d"
         stop-opacity="1"
         offset="1"
         id="stop21" />
    </linearGradient>
    <rect
       x="6"
       rx="6"
       y="6"
       fill="#000000"
       fill-opacity="1"
       stroke="none"
       fill-rule="nonzero"
       height="84"
       id="SVGCleanerId_0"
       opacity="0.6"
       width="84" />
  </defs>
  <path
     style="fill:url(#linearGradient3047);fill-opacity:1;stroke:none"
     id="path60"
     inkscape:connector-curvature="0"
     d="m 55.245647,45.755054 c -9.102067,3e-5 -15.632666,1.040847 -19.59181,3.122442 -3.918389,2.081662 -6.367362,5.632673 -7.346928,10.653047 -0.816349,4.000009 -0.14288,7.183677 2.020405,9.55101 2.163235,2.326531 5.510165,3.489798 10.040802,3.489786 6.24485,1.2e-5 11.693815,-2.204067 16.346917,-6.61223 4.652998,-4.448958 7.714212,-10.346903 9.183659,-17.693858 l 0.551039,-2.510197 -11.204066,0 M 78.633388,41.102 l -9.090361,40.897907 -11.26529,0 3.335268,-12.183661 c -3.387804,4.163261 -7.204123,7.244887 -11.448968,9.244883 -4.244928,1.959183 -9.142878,2.938772 -14.693855,2.938772 -7.020422,0 -12.204083,-1.959184 -15.550999,-5.877545 -3.346946,-3.959167 -4.36735,-9.24487 -3.06122,-15.85712 1.551006,-7.71425 5.285689,-13.530559 11.204066,-17.448954 5.959146,-3.918319 14.061168,-5.877503 24.306088,-5.877545 l 15.795896,0 0.24492,-1.102036 c 1.020304,-5.183622 0.101939,-9.183613 -2.755137,-11.999991 -2.816379,-2.857075 -7.306165,-4.285643 -13.469369,-4.285703 -3.918403,6e-5 -7.836764,0.469439 -11.755086,1.408162 -3.877577,0.938831 -7.714304,2.346991 -11.510189,4.224479 l 2.081629,-10.408149 c 4.448945,-1.591768 8.673425,-2.775435 12.673454,-3.551012 4.040767,-0.816257 7.897905,-1.224418 11.571412,-1.22449 9.918292,7.2e-5 16.816237,2.571495 20.693852,7.714274 3.877471,5.14291 4.775424,12.938808 2.693871,23.387729" />
  <path
     style="opacity:0.75;fill:#ffffff;fill-opacity:1;stroke:none"
     id="path62"
     inkscape:connector-curvature="0"
     d="m 55.266015,9.999997 c -3.673507,7.2e-5 -7.521719,0.433741 -11.562486,1.249998 -4.000029,0.775577 -8.238539,1.908228 -12.687484,3.499996 l -2.124997,10.437487 c 0.14288,-0.07068 0.2945,-0.11816 0.437499,-0.1875 l 1.687498,-8.249989 c 4.448945,-1.591768 8.687455,-2.724419 12.687484,-3.499996 4.040767,-0.816257 7.888979,-1.249927 11.562486,-1.249998 9.918292,7.1e-5 16.809859,2.54471 20.687474,7.68749 2.353011,3.120932 3.591438,7.237581 3.749995,12.312485 0.13552,-5.999467 -1.098032,-10.795035 -3.749995,-14.312483 -3.877615,-5.142779 -10.769182,-7.687418 -20.687474,-7.68749 z m 13.499983,22.874971 c -0.04852,0.945527 -0.1701,1.896496 -0.374999,2.937497 l -0.25,1.124998 -15.74998,0 c -10.24492,4.2e-5 -18.353324,1.956674 -24.31247,5.874993 -5.918377,3.918395 -9.69898,9.723228 -11.249986,17.437478 -0.427427,2.163839 -0.508373,4.182773 -0.437499,6.062493 0.06726,-1.286747 0.159599,-2.655647 0.437499,-4.062495 1.551006,-7.714251 5.331609,-13.519083 11.249986,-17.437479 5.959146,-3.918319 14.06755,-5.87495 24.31247,-5.874992 l 15.74998,0 0.25,-1.124999 c 0.354311,-1.800066 0.488257,-3.422893 0.374999,-4.937494 z m -2.749996,14.874982 -0.125,0.499999 c -1.469447,7.346955 -4.534491,13.23852 -9.187489,17.687478 -4.653102,4.408163 -10.067629,6.625004 -16.312479,6.624992 -4.530637,1.2e-5 -7.899253,-1.173465 -10.062488,-3.499996 -1.352054,-1.479584 -2.124363,-3.257648 -2.312497,-5.374993 -0.209354,3.001278 0.554827,5.451533 2.312497,7.374991 2.163235,2.326531 5.531851,3.500007 10.062488,3.499995 6.24485,1.2e-5 11.659377,-2.216829 16.312479,-6.624991 4.652998,-4.448959 7.718042,-10.340523 9.187489,-17.687478 l 0.562499,-2.499997 -0.437499,0 z m -4.374995,24.06247 c -0.256666,0.315413 -0.550915,0.572001 -0.812499,0.874999 l -2.562497,9.312488 0.562499,0 2.812497,-10.187487 z" />
  <path
     style="opacity:0.15;fill:#000000;fill-opacity:1;stroke:none"
     id="path64"
     inkscape:connector-curvature="0"
     d="m 52.203519,17.562488 c -3.918403,6e-5 -7.831664,0.436275 -11.749986,1.374998 -3.731617,0.903491 -7.469026,2.289681 -11.124986,4.062495 l -0.437499,2.187497 c 3.795885,-1.877488 7.684908,-3.311164 11.562485,-4.249995 3.918322,-0.938722 7.831583,-1.374938 11.749986,-1.374998 6.163204,6e-5 10.621104,1.39292 13.437483,4.249995 1.864928,1.838361 2.912108,4.215522 3.124996,7.062491 0.19312,-3.762689 -0.841691,-6.81171 -3.124996,-9.062489 -2.816379,-2.857074 -7.274279,-4.249934 -13.437483,-4.249994 z m 27.499965,12.437484 c -0.06262,2.772437 -0.404605,5.822517 -1.062498,9.124989 l -9.124989,40.874949 -10.687487,0 -0.562499,1.999997 11.249986,0 9.124989,-40.874949 C 79.459365,37.016879 79.80621,33.28788 79.703484,29.999972 Z M 55.266015,43.749955 c -9.102067,3e-5 -15.665832,1.043401 -19.624976,3.124996 -3.918389,2.081661 -6.332924,5.604613 -7.31249,10.624987 -0.306132,1.500004 -0.42538,2.917086 -0.3125,4.187494 0.04832,-0.692603 0.15944,-1.437496 0.3125,-2.187497 0.979566,-5.020374 3.394101,-8.543325 7.31249,-10.624987 3.959144,-2.081595 10.522909,-3.124966 19.624976,-3.124996 l 10.749987,0 0.437499,-1.999997 -11.187486,0 z M 16.391064,64.312429 c -0.248864,4.76102 0.865158,8.695687 3.499995,11.812485 3.346916,3.918361 8.542059,5.874993 15.562481,5.874993 5.550977,0 10.442553,-0.978313 14.687481,-2.937496 3.923249,-1.848474 7.496337,-4.678618 10.687487,-8.37499 l 0.812499,-2.874996 c -3.387804,4.163261 -7.255141,7.249993 -11.499986,9.249988 -4.244928,1.959184 -9.136504,2.937497 -14.687481,2.937497 -7.020422,0 -12.215565,-1.956632 -15.562481,-5.874993 -2.251667,-2.663541 -3.354294,-5.948173 -3.499995,-9.812488 z" />
</svg>
