<?xml version="1.0" encoding="UTF-8" standalone="no"?>
<svg
   xmlns:dc="http://purl.org/dc/elements/1.1/"
   xmlns:cc="http://creativecommons.org/ns#"
   xmlns:rdf="http://www.w3.org/1999/02/22-rdf-syntax-ns#"
   xmlns:svg="http://www.w3.org/2000/svg"
   xmlns="http://www.w3.org/2000/svg"
   xmlns:xlink="http://www.w3.org/1999/xlink"
   xmlns:sodipodi="http://sodipodi.sourceforge.net/DTD/sodipodi-0.dtd"
   xmlns:inkscape="http://www.inkscape.org/namespaces/inkscape"
   height="96"
   width="96"
   id="svg2"
   version="1.1"
   inkscape:version="0.91 r13725"
   sodipodi:docname="format-text-direction-rtl.svg">
  <metadata
     id="metadata68">
    <rdf:RDF>
      <cc:Work
         rdf:about="">
        <dc:format>image/svg+xml</dc:format>
        <dc:type
           rdf:resource="http://purl.org/dc/dcmitype/StillImage" />
      </cc:Work>
    </rdf:RDF>
  </metadata>
  <sodipodi:namedview
     pagecolor="#ffffff"
     bordercolor="#666666"
     borderopacity="1"
     objecttolerance="10"
     gridtolerance="10"
     guidetolerance="10"
     inkscape:pageopacity="0"
     inkscape:pageshadow="2"
     inkscape:window-width="640"
     inkscape:window-height="480"
     id="namedview66"
     showgrid="false"
     inkscape:zoom="2.4583333"
     inkscape:cx="22.98305"
     inkscape:cy="47.999999"
     inkscape:window-x="75"
     inkscape:window-y="99"
     inkscape:window-maximized="0"
     inkscape:current-layer="svg2" />
  <defs
     id="defs4">
    <linearGradient
       x2="0"
       y1="92.54"
       y2="7.02"
       gradientUnits="userSpaceOnUse"
       id="ButtonShadow-0"
       gradientTransform="matrix(1.0059 0 0 0.99417 100 0)">
      <stop
         stop-color="#000000"
         stop-opacity="1"
         id="stop7" />
      <stop
         stop-color="#000000"
         stop-opacity="0.588"
         offset="1"
         id="stop9" />
    </linearGradient>
    <linearGradient
       x2="0"
       xlink:href="#ButtonShadow-0"
       y1="6.132"
       y2="90.24"
       gradientUnits="userSpaceOnUse"
       id="linearGradient3780"
       gradientTransform="matrix(1.02381 0 0 -1.0119 -1.143 98.07)" />
    <linearGradient
       x2="0"
       xlink:href="#ButtonShadow-0"
       y1="6.132"
       y2="90.24"
       gradientUnits="userSpaceOnUse"
       id="linearGradient3721"
       gradientTransform="matrix(1 0 0 -1 0 97)" />
    <radialGradient
       cy="90.17"
       r="42"
       gradientUnits="userSpaceOnUse"
       id="radialGradient3619-3"
       cx="48"
       gradientTransform="matrix(1.15731 0 0 0.99591 -7.551 0.197)">
      <stop
         stop-color="#ffffff"
         stop-opacity="1"
         id="stop14" />
      <stop
         stop-color="#ffffff"
         stop-opacity="0"
         offset="1"
         id="stop16" />
    </radialGradient>
    <linearGradient
       x2="0"
       y1="1.996"
       y2="18.974"
       gradientUnits="userSpaceOnUse"
       id="linearGradient3941"
       gradientTransform="matrix(-2.99536,0,0,2.99536,81.14,16.17)">
      <stop
         stop-color="#1a1a1a"
         stop-opacity="1"
         id="stop19" />
      <stop
         stop-color="#4d4d4d"
         stop-opacity="1"
         offset="1"
         id="stop21" />
    </linearGradient>
    <rect
       x="6"
       rx="6"
       y="6"
       fill="#000000"
       fill-opacity="1"
       stroke="none"
       fill-rule="nonzero"
       height="84"
       id="SVGCleanerId_0"
       opacity="0.6"
       width="84" />
  </defs>
  <g
     id="g3525"
     transform="matrix(1.4392683,0,0,1.4392683,-22.508682,-22.942995)">
    <path
       d="m 63,21.5 c -2.286105,-0.05191 -3.392472,2.191335 -4.944691,3.478501 -9.918682,9.948981 -19.885403,19.863445 -29.774059,29.833999 -2.196507,5.154517 -4.188223,10.499433 -6.3125,15.65625 -0.561776,1.755292 1.62789,3.341301 3.132034,2.322547 5.019628,-2.03954 10.113283,-3.956775 15.086716,-6.072547 10.930329,-10.857479 21.820563,-21.81006 32.71875,-32.6875 0.744531,-1.282536 0.781149,-3.161569 -0.21875,-4.3125 -2.615365,-2.51896 -5.144518,-5.179392 -7.75,-7.6875 C 64.360995,21.682727 63.65615,21.67712 63,21.5 Z m -1.25,35.4375 c -1.555014,0.448801 -2.609224,1.881681 -3.939433,2.764046 -2.482252,2.041408 -5.09813,3.968142 -7.498067,6.079704 -0.868157,1.151877 -0.169817,2.71846 1.012121,3.328447 3.310681,2.59002 6.520551,5.333389 9.894129,7.827803 1.501837,0.615953 3.173799,-0.827373 2.84375,-2.403036 -0.253155,-1.209346 0.135346,-1.777037 1.396609,-1.471964 2.981483,-0.02126 5.969983,0.04227 8.947141,-0.03125 1.631661,-0.291399 1.790739,-2.090296 1.65625,-3.427859 -0.06027,-2.395054 0.122018,-4.823219 -0.09375,-7.197141 -0.487571,-1.79421 -2.559425,-1.465788 -3.986074,-1.46875 -2.640059,0 -5.280117,0 -7.920176,0 0.001,-1.349307 0.304465,-3.180934 -1.21875,-3.84375 C 62.484568,56.962396 62.133398,56.906127 61.75,56.9375 Z m -28.6875,3.75 c 0.622054,1.158004 1.849726,1.331935 0.0057,1.818816 -1.447956,0.965569 -0.783498,-0.170564 -0.333838,-1.092987 0.109371,-0.241943 0.218743,-0.483886 0.328114,-0.725829 z"
       inkscape:connector-curvature="0"
       id="path42"
       style="opacity:0.1;fill:black;fill-opacity:1;stroke:none" />
    <path
       d="m 63,22.5 c -0.406896,0 -0.831713,0.07374 -1.21875,0.28125 l -0.0625,0.03125 A 1.0669569,1.0669569 0 0 0 61.4375,23.03125 L 29.25,55.25 A 1.0669569,1.0669569 0 0 0 29,55.59375 l -6,15 A 1.0669569,1.0669569 0 0 0 24.40625,72 l 15,-6 A 1.0669569,1.0669569 0 0 0 39.75,65.75 L 71.96875,33.5625 A 1.0669569,1.0669569 0 0 0 72.125,33.40625 c 0.121295,-0.187536 0.132474,-0.246325 0.0625,-0.125 C 72.420171,32.877808 72.5,32.429059 72.5,32 c 0,-0.429059 -0.07983,-0.877808 -0.3125,-1.28125 0.06997,0.121325 0.0588,0.06254 -0.0625,-0.125 A 1.0669569,1.0669569 0 0 0 71.96875,30.4375 L 64.5625,23.03125 A 1.0669569,1.0669569 0 0 0 64.40625,22.875 C 64.218714,22.753705 64.159925,22.742526 64.28125,22.8125 63.877808,22.579829 63.429059,22.5 63,22.5 Z m -1.125,35.4375 a 1.0669569,1.0669569 0 0 0 -0.53125,0.21875 l -10,8 a 1.0669569,1.0669569 0 0 0 0,1.6875 l 10,8 A 1.0669569,1.0669569 0 0 0 63.0625,75 l 0,-2.9375 10.9375,0 A 1.0669569,1.0669569 0 0 0 75.0625,71 l 0,-8 A 1.0669569,1.0669569 0 0 0 74,61.9375 l -10.9375,0 0,-2.9375 A 1.0669569,1.0669569 0 0 0 61.875,57.9375 Z m -28,0.46875 0.0625,1.625 A 1.0669569,1.0669569 0 0 0 35,61.0625 l 1.53125,0 -0.375,1.15625 -6.0625,2.6875 2.6875,-6.0625 1.09375,-0.4375 z"
       id="path44"
       inkscape:connector-curvature="0"
       style="opacity:0.15;fill:black;fill-opacity:1;stroke:none" />
    <path
       d="m 63,23.5625 c -0.273736,0 -0.528539,0.05978 -0.75,0.1875 L 62.1875,23.78125 30,56 24,71 39,65 71.21875,32.8125 c 0.01258,-0.01945 0.01964,-0.04237 0.03125,-0.0625 0.12772,-0.221461 0.1875,-0.476264 0.1875,-0.75 0,-0.273736 -0.05978,-0.528539 -0.1875,-0.75 -0.01161,-0.02013 -0.01867,-0.04305 -0.03125,-0.0625 L 63.8125,23.78125 C 63.79305,23.76867 63.77013,23.76161 63.75,23.75 63.528539,23.62228 63.273736,23.5625 63,23.5625 Z M 34.875,56.8125 35,60 l 3,0 -1,3 -9,4 4,-9 2.875,-1.1875 z M 62,59 l -10,8 10,8 0,-4 12,0 0,-8 -12,0 0,-4 z"
       inkscape:connector-curvature="0"
       id="path46"
       style="opacity:0.3;fill:black;fill-opacity:1;stroke:none" />
    <path
       d="m 63,22.5625 c -0.273736,0 -0.528539,0.05978 -0.75,0.1875 L 62.1875,22.78125 30,55 24,70 39,64 71.21875,31.8125 c 0.01258,-0.01945 0.01964,-0.04237 0.03125,-0.0625 0.12772,-0.221461 0.1875,-0.476264 0.1875,-0.75 0,-0.273736 -0.05978,-0.528539 -0.1875,-0.75 -0.01161,-0.02013 -0.01867,-0.04305 -0.03125,-0.0625 L 63.8125,22.78125 C 63.79305,22.76867 63.77013,22.76161 63.75,22.75 63.528539,22.62228 63.273736,22.5625 63,22.5625 Z M 34.875,55.8125 35,59 l 3,0 -1,3 -9,4 4,-9 2.875,-1.1875 z M 62,58 l -10,8 10,8 0,-4 12,0 0,-8 -12,0 0,-4 z"
       inkscape:connector-curvature="0"
       id="path60"
       style="fill:url(#linearGradient3941);fill-opacity:1;stroke:none" />
    <path
       d="m 63,22.5625 c -0.273736,0 -0.528539,0.05978 -0.75,0.1875 L 62.1875,22.78125 30,55 24,70 24.46875,69.8125 30,56 62.1875,23.78125 62.25,23.75 c 0.221461,-0.12772 0.476264,-0.1875 0.75,-0.1875 0.273736,0 0.528539,0.05978 0.75,0.1875 0.02013,0.01161 0.04305,0.01867 0.0625,0.03125 l 7.40625,7.40625 c 0.01258,0.01945 0.01964,0.04237 0.03125,0.0625 0.04724,0.08191 0.09594,0.159697 0.125,0.25 0.04952,-0.15385 0.0625,-0.327509 0.0625,-0.5 0,-0.273736 -0.05978,-0.528539 -0.1875,-0.75 -0.01161,-0.02013 -0.01867,-0.04305 -0.03125,-0.0625 L 63.8125,22.78125 C 63.79305,22.76867 63.77013,22.76161 63.75,22.75 63.528539,22.62228 63.273736,22.5625 63,22.5625 Z M 62,58 52,66 52.625,66.5 62,59 62,58 Z M 37.65625,60 37,62 28.5625,65.75 28,67 l 9,-4 1,-3 -0.34375,0 z M 62,62 l 0,1 12,0 0,-1 -12,0 z"
       inkscape:connector-curvature="0"
       id="path62"
       style="opacity:0.75;fill:white;fill-opacity:1;stroke:none" />
    <path
       d="m 71.375,30.5 c -0.02906,0.0903 -0.07776,0.16809 -0.125,0.25 -0.01161,0.02013 -0.01867,0.04305 -0.03125,0.0625 L 39,63 24.46875,68.8125 24,70 39,64 71.21875,31.8125 c 0.01258,-0.01945 0.01964,-0.04237 0.03125,-0.0625 0.12772,-0.221461 0.1875,-0.476264 0.1875,-0.75 0,-0.172491 -0.01298,-0.34615 -0.0625,-0.5 z M 34.875,54.8125 32,56 28,65 28.5625,64.75 32,57 34.875,55.8125 35,59 37.65625,59 38,58 35,58 34.875,54.8125 Z M 52.625,65.5 52,66 62,74 62,73 52.625,65.5 Z M 62,69 l 0,1 12,0 0,-1 -12,0 z"
       inkscape:connector-curvature="0"
       id="path64"
       style="opacity:0.15;fill:black;fill-opacity:1;stroke:none" />
  </g>
</svg>
