<?xml version="1.0" encoding="UTF-8" standalone="no"?>
<svg
   xmlns:dc="http://purl.org/dc/elements/1.1/"
   xmlns:cc="http://creativecommons.org/ns#"
   xmlns:rdf="http://www.w3.org/1999/02/22-rdf-syntax-ns#"
   xmlns:svg="http://www.w3.org/2000/svg"
   xmlns="http://www.w3.org/2000/svg"
   xmlns:xlink="http://www.w3.org/1999/xlink"
   xmlns:sodipodi="http://sodipodi.sourceforge.net/DTD/sodipodi-0.dtd"
   xmlns:inkscape="http://www.inkscape.org/namespaces/inkscape"
   display="inline"
   height="96"
   width="96"
   id="svg2"
   version="1.1"
   inkscape:version="0.91 r13725"
   sodipodi:docname="format-justify-fill.svg">
  <metadata
     id="metadata51">
    <rdf:RDF>
      <cc:Work
         rdf:about="">
        <dc:format>image/svg+xml</dc:format>
        <dc:type
           rdf:resource="http://purl.org/dc/dcmitype/StillImage" />
      </cc:Work>
    </rdf:RDF>
  </metadata>
  <sodipodi:namedview
     pagecolor="#ffffff"
     bordercolor="#666666"
     borderopacity="1"
     objecttolerance="10"
     gridtolerance="10"
     guidetolerance="10"
     inkscape:pageopacity="0"
     inkscape:pageshadow="2"
     inkscape:window-width="640"
     inkscape:window-height="480"
     id="namedview49"
     showgrid="false"
     inkscape:zoom="2.4583333"
     inkscape:cx="22.98305"
     inkscape:cy="47.999999"
     inkscape:window-x="724"
     inkscape:window-y="49"
     inkscape:window-maximized="0"
     inkscape:current-layer="svg2" />
  <defs
     id="defs4">
    <linearGradient
       x2="0"
       y1="72.09"
       y2="23.729"
       gradientUnits="userSpaceOnUse"
       id="linearGradient3746"
       gradientTransform="matrix(1.26316,0,0,1,-18.947,0)">
      <stop
         stop-color="#4d4d4d"
         stop-opacity="1"
         id="stop7" />
      <stop
         stop-color="#1a1a1a"
         stop-opacity="1"
         offset="1"
         id="stop9" />
    </linearGradient>
    <radialGradient
       cy="90.17"
       r="42"
       gradientUnits="userSpaceOnUse"
       id="radialGradient3619-2"
       cx="48"
       gradientTransform="matrix(1.15731 0 0 0.99591 -7.551 0.197)">
      <stop
         stop-color="#ffffff"
         stop-opacity="1"
         id="stop12" />
      <stop
         stop-color="#ffffff"
         stop-opacity="0"
         offset="1"
         id="stop14" />
    </radialGradient>
    <linearGradient
       x2="0"
       y1="92.54"
       y2="7.02"
       gradientUnits="userSpaceOnUse"
       id="ButtonShadow-0"
       gradientTransform="matrix(1.0059 0 0 0.99417 100 0)">
      <stop
         stop-color="#000000"
         stop-opacity="1"
         id="stop17" />
      <stop
         stop-color="#000000"
         stop-opacity="0.588"
         offset="1"
         id="stop19" />
    </linearGradient>
    <linearGradient
       x2="0"
       xlink:href="#ButtonShadow-0"
       y1="6.132"
       y2="90.24"
       gradientUnits="userSpaceOnUse"
       id="linearGradient3780"
       gradientTransform="matrix(1.02381 0 0 -1.0119 -1.143 98.07)" />
    <linearGradient
       x2="0"
       xlink:href="#ButtonShadow-0"
       y1="6.132"
       y2="90.24"
       gradientUnits="userSpaceOnUse"
       id="linearGradient3721-9"
       gradientTransform="matrix(1 0 0 -1 0 97)" />
  </defs>
  <g
     id="g3476"
     transform="matrix(1.5356914,0,0,1.5356914,-25.713185,-27.224904)">
    <path
       id="path37"
       d="m 23.78125,22.9375 c -4.82e-4,2.5e-5 -0.09327,0.0312 -0.09375,0.03125 a 1.0139272,1.0139272 0 0 0 -0.125,0 c -7.63e-4,1.72e-4 -0.186754,0.06226 -0.1875,0.0625 -7.46e-4,2.36e-4 -0.155527,0.0622 -0.15625,0.0625 -7.23e-4,2.99e-4 -0.155555,0.06214 -0.15625,0.0625 -6.95e-4,3.59e-4 -0.155588,0.09333 -0.15625,0.09375 -6.62e-4,4.17e-4 -0.124376,0.09328 -0.125,0.09375 -6.24e-4,4.72e-4 -0.155669,0.124477 -0.15625,0.125 -5.81e-4,5.23e-4 -0.124465,0.124429 -0.125,0.125 -5.35e-4,5.71e-4 -0.09327,0.124386 -0.09375,0.125 -4.84e-4,6.14e-4 -0.12457,0.124347 -0.125,0.125 -4.3e-4,6.53e-4 -0.06213,0.155562 -0.0625,0.15625 -3.73e-4,6.88e-4 -0.09344,0.155533 -0.09375,0.15625 -3.13e-4,7.17e-4 -0.06225,0.155509 -0.0625,0.15625 -2.51e-4,7.41e-4 -0.06231,0.186741 -0.0625,0.1875 -1.87e-4,7.59e-4 -0.03113,0.155477 -0.03125,0.15625 -1.21e-4,7.73e-4 5.5e-5,0.18672 0,0.1875 -5.5e-5,7.8e-4 -1.2e-5,0.155468 0,0.15625 l 0,6 c 9e-6,8.89e-4 -9.5e-5,0.217866 0,0.21875 9.5e-5,8.84e-4 0.03107,0.186629 0.03125,0.1875 1.8e-4,8.71e-4 0.06224,0.18665 0.0625,0.1875 2.63e-4,8.5e-4 0.06216,0.18668 0.0625,0.1875 3.44e-4,8.2e-4 0.06208,0.186717 0.0625,0.1875 4.22e-4,7.83e-4 0.124504,0.155512 0.125,0.15625 4.96e-4,7.38e-4 0.124435,0.155563 0.125,0.15625 5.65e-4,6.87e-4 0.124371,0.155621 0.125,0.15625 6.29e-4,6.29e-4 0.155563,0.124435 0.15625,0.125 6.87e-4,5.65e-4 0.155512,0.124504 0.15625,0.125 7.38e-4,4.96e-4 0.155467,0.124578 0.15625,0.125 7.83e-4,4.22e-4 0.18668,0.06216 0.1875,0.0625 8.2e-4,3.44e-4 0.18665,0.06224 0.1875,0.0625 5.52e-4,1.71e-4 0.06815,0.01662 0.125,0.03125 -0.03681,0.0099 -0.155616,0.0623 -0.15625,0.0625 -7.46e-4,2.36e-4 -0.155527,0.0622 -0.15625,0.0625 -7.23e-4,2.99e-4 -0.155555,0.06214 -0.15625,0.0625 -6.95e-4,3.59e-4 -0.155588,0.09333 -0.15625,0.09375 -6.62e-4,4.17e-4 -0.124376,0.09328 -0.125,0.09375 -6.24e-4,4.72e-4 -0.155669,0.124477 -0.15625,0.125 -5.81e-4,5.23e-4 -0.124465,0.124429 -0.125,0.125 -5.35e-4,5.71e-4 -0.09327,0.124386 -0.09375,0.125 -4.84e-4,6.14e-4 -0.12457,0.124347 -0.125,0.125 -4.3e-4,6.53e-4 -0.06213,0.155562 -0.0625,0.15625 -3.73e-4,6.88e-4 -0.09344,0.155533 -0.09375,0.15625 -3.13e-4,7.17e-4 -0.06225,0.155509 -0.0625,0.15625 -2.51e-4,7.41e-4 -0.06231,0.186741 -0.0625,0.1875 -1.87e-4,7.59e-4 -0.03113,0.155477 -0.03125,0.15625 -1.21e-4,7.73e-4 5.5e-5,0.18672 0,0.1875 -5.5e-5,7.8e-4 -1.2e-5,0.155468 0,0.15625 l 0,6 c 9e-6,8.89e-4 -9.5e-5,0.217866 0,0.21875 9.5e-5,8.84e-4 0.03107,0.186629 0.03125,0.1875 1.8e-4,8.71e-4 0.06224,0.18665 0.0625,0.1875 2.63e-4,8.5e-4 0.06216,0.18668 0.0625,0.1875 3.44e-4,8.2e-4 0.06208,0.186717 0.0625,0.1875 4.22e-4,7.83e-4 0.124504,0.155512 0.125,0.15625 4.96e-4,7.38e-4 0.124435,0.155563 0.125,0.15625 5.65e-4,6.87e-4 0.124371,0.155621 0.125,0.15625 6.29e-4,6.29e-4 0.155563,0.124435 0.15625,0.125 6.87e-4,5.65e-4 0.155512,0.124504 0.15625,0.125 7.38e-4,4.96e-4 0.155467,0.124578 0.15625,0.125 7.83e-4,4.22e-4 0.18668,0.06216 0.1875,0.0625 8.2e-4,3.44e-4 0.18665,0.06224 0.1875,0.0625 5.52e-4,1.71e-4 0.06815,0.01662 0.125,0.03125 -0.03681,0.0099 -0.155616,0.0623 -0.15625,0.0625 -7.46e-4,2.36e-4 -0.155527,0.0622 -0.15625,0.0625 -7.23e-4,2.99e-4 -0.155555,0.06214 -0.15625,0.0625 -6.95e-4,3.59e-4 -0.155588,0.09333 -0.15625,0.09375 -6.62e-4,4.17e-4 -0.124376,0.09328 -0.125,0.09375 -6.24e-4,4.72e-4 -0.155669,0.124477 -0.15625,0.125 -5.81e-4,5.23e-4 -0.124465,0.124429 -0.125,0.125 -5.35e-4,5.71e-4 -0.09327,0.124386 -0.09375,0.125 -4.84e-4,6.14e-4 -0.12457,0.124347 -0.125,0.125 -4.3e-4,6.53e-4 -0.06213,0.155562 -0.0625,0.15625 -3.73e-4,6.88e-4 -0.09344,0.155533 -0.09375,0.15625 -3.13e-4,7.17e-4 -0.06225,0.155509 -0.0625,0.15625 -2.51e-4,7.41e-4 -0.06231,0.186741 -0.0625,0.1875 -1.87e-4,7.59e-4 -0.03113,0.155477 -0.03125,0.15625 -1.21e-4,7.73e-4 5.5e-5,0.18672 0,0.1875 -5.5e-5,7.8e-4 -1.2e-5,0.155468 0,0.15625 l 0,6 c 9e-6,8.89e-4 -9.5e-5,0.217866 0,0.21875 9.5e-5,8.84e-4 0.03107,0.186629 0.03125,0.1875 1.8e-4,8.71e-4 0.06224,0.18665 0.0625,0.1875 2.63e-4,8.5e-4 0.06216,0.18668 0.0625,0.1875 3.44e-4,8.2e-4 0.06208,0.186717 0.0625,0.1875 4.22e-4,7.83e-4 0.124504,0.155512 0.125,0.15625 4.96e-4,7.38e-4 0.124435,0.155563 0.125,0.15625 5.65e-4,6.87e-4 0.124371,0.155621 0.125,0.15625 6.29e-4,6.29e-4 0.155563,0.124435 0.15625,0.125 6.87e-4,5.65e-4 0.155512,0.124504 0.15625,0.125 7.38e-4,4.96e-4 0.155467,0.124578 0.15625,0.125 7.83e-4,4.22e-4 0.18668,0.06216 0.1875,0.0625 8.2e-4,3.44e-4 0.18665,0.06224 0.1875,0.0625 8.5e-4,2.63e-4 0.186629,0.06232 0.1875,0.0625 8.71e-4,1.8e-4 0.186616,0.03115 0.1875,0.03125 8.84e-4,9.5e-5 0.217861,-9e-6 0.21875,0 l 48,0 c 8.89e-4,-9e-6 0.217866,9.5e-5 0.21875,0 8.84e-4,-9.5e-5 0.186629,-0.03107 0.1875,-0.03125 8.71e-4,-1.8e-4 0.18665,-0.06224 0.1875,-0.0625 8.5e-4,-2.63e-4 0.18668,-0.06216 0.1875,-0.0625 8.2e-4,-3.44e-4 0.186717,-0.06208 0.1875,-0.0625 7.83e-4,-4.22e-4 0.155512,-0.124504 0.15625,-0.125 7.38e-4,-4.96e-4 0.155563,-0.124435 0.15625,-0.125 6.87e-4,-5.65e-4 0.155621,-0.124371 0.15625,-0.125 6.29e-4,-6.29e-4 0.124435,-0.155563 0.125,-0.15625 5.65e-4,-6.87e-4 0.124504,-0.155512 0.125,-0.15625 4.96e-4,-7.38e-4 0.124578,-0.155467 0.125,-0.15625 4.22e-4,-7.83e-4 0.06216,-0.18668 0.0625,-0.1875 3.44e-4,-8.2e-4 0.06224,-0.18665 0.0625,-0.1875 2.63e-4,-8.5e-4 0.06232,-0.186629 0.0625,-0.1875 1.8e-4,-8.71e-4 0.03115,-0.186616 0.03125,-0.1875 9.5e-5,-8.84e-4 -9e-6,-0.217861 0,-0.21875 l 0,-6 c -9e-6,-8.89e-4 9.5e-5,-0.217866 0,-0.21875 -9.5e-5,-8.84e-4 -0.03107,-0.186629 -0.03125,-0.1875 -1.8e-4,-8.71e-4 -0.06224,-0.18665 -0.0625,-0.1875 -2.63e-4,-8.5e-4 -0.06216,-0.18668 -0.0625,-0.1875 -3.44e-4,-8.2e-4 -0.06208,-0.186717 -0.0625,-0.1875 -4.22e-4,-7.83e-4 -0.124504,-0.155512 -0.125,-0.15625 -4.96e-4,-7.38e-4 -0.124435,-0.155563 -0.125,-0.15625 -5.65e-4,-6.87e-4 -0.124371,-0.155621 -0.125,-0.15625 -6.29e-4,-6.29e-4 -0.155563,-0.124435 -0.15625,-0.125 -6.87e-4,-5.65e-4 -0.155512,-0.124504 -0.15625,-0.125 -7.38e-4,-4.96e-4 -0.155467,-0.124578 -0.15625,-0.125 -7.83e-4,-4.22e-4 -0.18668,-0.06216 -0.1875,-0.0625 -8.2e-4,-3.44e-4 -0.18665,-0.06224 -0.1875,-0.0625 -8.5e-4,-2.63e-4 -0.186629,-0.06232 -0.1875,-0.0625 8.71e-4,-1.8e-4 0.18665,-0.06224 0.1875,-0.0625 8.5e-4,-2.63e-4 0.18668,-0.06216 0.1875,-0.0625 8.2e-4,-3.44e-4 0.186717,-0.06208 0.1875,-0.0625 7.83e-4,-4.22e-4 0.155512,-0.124504 0.15625,-0.125 7.38e-4,-4.96e-4 0.155563,-0.124435 0.15625,-0.125 6.87e-4,-5.65e-4 0.155621,-0.124371 0.15625,-0.125 6.29e-4,-6.29e-4 0.124435,-0.155563 0.125,-0.15625 5.65e-4,-6.87e-4 0.124504,-0.155512 0.125,-0.15625 4.96e-4,-7.38e-4 0.124578,-0.155467 0.125,-0.15625 4.22e-4,-7.83e-4 0.06216,-0.18668 0.0625,-0.1875 3.44e-4,-8.2e-4 0.06224,-0.18665 0.0625,-0.1875 2.63e-4,-8.5e-4 0.06232,-0.186629 0.0625,-0.1875 1.8e-4,-8.71e-4 0.03115,-0.186616 0.03125,-0.1875 9.5e-5,-8.84e-4 -9e-6,-0.217861 0,-0.21875 l 0,-6 c -9e-6,-8.89e-4 9.5e-5,-0.217866 0,-0.21875 -9.5e-5,-8.84e-4 -0.03107,-0.186629 -0.03125,-0.1875 -1.8e-4,-8.71e-4 -0.06224,-0.18665 -0.0625,-0.1875 -2.63e-4,-8.5e-4 -0.06216,-0.18668 -0.0625,-0.1875 -3.44e-4,-8.2e-4 -0.06208,-0.186717 -0.0625,-0.1875 -4.22e-4,-7.83e-4 -0.124504,-0.155512 -0.125,-0.15625 -4.96e-4,-7.38e-4 -0.124435,-0.155563 -0.125,-0.15625 -5.65e-4,-6.87e-4 -0.124371,-0.155621 -0.125,-0.15625 -6.29e-4,-6.29e-4 -0.155563,-0.124435 -0.15625,-0.125 -6.87e-4,-5.65e-4 -0.155512,-0.124504 -0.15625,-0.125 -7.38e-4,-4.96e-4 -0.155467,-0.124578 -0.15625,-0.125 -7.83e-4,-4.22e-4 -0.18668,-0.06216 -0.1875,-0.0625 -8.2e-4,-3.44e-4 -0.18665,-0.06224 -0.1875,-0.0625 -8.5e-4,-2.63e-4 -0.186629,-0.06232 -0.1875,-0.0625 8.71e-4,-1.8e-4 0.18665,-0.06224 0.1875,-0.0625 8.5e-4,-2.63e-4 0.18668,-0.06216 0.1875,-0.0625 8.2e-4,-3.44e-4 0.186717,-0.06208 0.1875,-0.0625 7.83e-4,-4.22e-4 0.155512,-0.124504 0.15625,-0.125 7.38e-4,-4.96e-4 0.155563,-0.124435 0.15625,-0.125 6.87e-4,-5.65e-4 0.155621,-0.124371 0.15625,-0.125 6.29e-4,-6.29e-4 0.124435,-0.155563 0.125,-0.15625 5.65e-4,-6.87e-4 0.124504,-0.155512 0.125,-0.15625 4.96e-4,-7.38e-4 0.124578,-0.155467 0.125,-0.15625 4.22e-4,-7.83e-4 0.06216,-0.18668 0.0625,-0.1875 3.44e-4,-8.2e-4 0.06224,-0.18665 0.0625,-0.1875 2.63e-4,-8.5e-4 0.06232,-0.186629 0.0625,-0.1875 1.8e-4,-8.71e-4 0.03115,-0.186616 0.03125,-0.1875 9.5e-5,-8.84e-4 -9e-6,-0.217861 0,-0.21875 l 0,-6 c -9e-6,-8.89e-4 9.5e-5,-0.217866 0,-0.21875 -9.5e-5,-8.84e-4 -0.03107,-0.186629 -0.03125,-0.1875 -1.8e-4,-8.71e-4 -0.06224,-0.18665 -0.0625,-0.1875 -2.63e-4,-8.5e-4 -0.06216,-0.18668 -0.0625,-0.1875 -3.44e-4,-8.2e-4 -0.06208,-0.186717 -0.0625,-0.1875 -4.22e-4,-7.83e-4 -0.124504,-0.155512 -0.125,-0.15625 -4.96e-4,-7.38e-4 -0.124435,-0.155563 -0.125,-0.15625 -5.65e-4,-6.87e-4 -0.124371,-0.155621 -0.125,-0.15625 -6.29e-4,-6.29e-4 -0.155563,-0.124435 -0.15625,-0.125 -6.87e-4,-5.65e-4 -0.155512,-0.124504 -0.15625,-0.125 -7.38e-4,-4.96e-4 -0.155467,-0.124578 -0.15625,-0.125 -7.83e-4,-4.22e-4 -0.18668,-0.06216 -0.1875,-0.0625 -8.2e-4,-3.44e-4 -0.18665,-0.06224 -0.1875,-0.0625 -8.5e-4,-2.63e-4 -0.186629,-0.06232 -0.1875,-0.0625 -8.71e-4,-1.8e-4 -0.186616,-0.03115 -0.1875,-0.03125 -8.84e-4,-9.5e-5 -0.217861,9e-6 -0.21875,0 l -47.90625,0 C 24.09327,22.968699 24.00048,22.93753 24,22.9375 c -4.82e-4,-2.5e-5 -0.124517,0 -0.125,0 -4.83e-4,0 -0.09327,-2.5e-5 -0.09375,0 z M 59.9375,53.90625 c -5.12e-4,1.9e-5 -0.12449,0.0312 -0.125,0.03125 -8.54e-4,8.5e-5 -0.186658,0.03108 -0.1875,0.03125 -8.42e-4,1.65e-4 -0.186677,0.03101 -0.1875,0.03125 -8.23e-4,2.43e-4 -0.186703,0.06218 -0.1875,0.0625 -7.97e-4,3.18e-4 -0.186736,0.09336 -0.1875,0.09375 -7.64e-4,3.91e-4 -0.155526,0.09329 -0.15625,0.09375 -7.24e-4,4.61e-4 -0.155573,0.09322 -0.15625,0.09375 -6.77e-4,5.27e-4 -0.155625,0.124412 -0.15625,0.125 -6.25e-4,5.88e-4 -0.124432,0.155607 -0.125,0.15625 -5.68e-4,6.43e-4 -0.124495,0.124306 -0.125,0.125 -5.05e-4,6.94e-4 -0.09331,0.186762 -0.09375,0.1875 -4.38e-4,7.38e-4 -0.09338,0.155475 -0.09375,0.15625 -3.67e-4,7.75e-4 -0.06221,0.186694 -0.0625,0.1875 -2.93e-4,8.06e-4 -0.06228,0.18667 -0.0625,0.1875 -2.17e-4,8.3e-4 -0.06236,0.186653 -0.0625,0.1875 -1.38e-4,8.47e-4 5.9e-5,0.186644 0,0.1875 -4.9e-5,7.13e-4 9.36e-4,0.111661 0,0.15625 -1.87e-4,0.0089 -4e-6,0.03111 0,0.03125 l 0,2.9375 -19.9375,0 0,-2.96875 c -2e-6,-4.81e-4 2.7e-5,-0.12452 0,-0.125 -2.7e-5,-4.8e-4 5.2e-5,-0.09327 0,-0.09375 -5.2e-5,-4.78e-4 7.7e-5,-0.09327 0,-0.09375 -7.7e-5,-4.75e-4 -0.03115,-0.12453 -0.03125,-0.125 -1.02e-4,-4.7e-4 -0.03112,-0.09329 -0.03125,-0.09375 -1.26e-4,-4.64e-4 -0.0311,-0.09329 -0.03125,-0.09375 -1.5e-4,-4.57e-4 -0.03108,-0.124552 -0.03125,-0.125 -1.74e-4,-4.48e-4 -0.03105,-0.09331 -0.03125,-0.09375 -1.97e-4,-4.39e-4 -0.06228,-0.09332 -0.0625,-0.09375 -2.2e-4,-4.28e-4 -0.06226,-0.09334 -0.0625,-0.09375 -2.42e-4,-4.15e-4 -0.03099,-0.09335 -0.03125,-0.09375 -2.64e-4,-4.02e-4 -0.06222,-0.09336 -0.0625,-0.09375 -2.84e-4,-3.88e-4 -0.0622,-0.06213 -0.0625,-0.0625 -3.04e-4,-3.72e-4 -0.09343,-0.09339 -0.09375,-0.09375 -3.23e-4,-3.56e-4 -0.06216,-0.09341 -0.0625,-0.09375 -3.42e-4,-3.39e-4 -0.09339,-0.06218 -0.09375,-0.0625 -3.59e-4,-3.2e-4 -0.06213,-0.0622 -0.0625,-0.0625 -3.75e-4,-3.01e-4 -0.09336,-0.06222 -0.09375,-0.0625 -3.9e-4,-2.81e-4 -0.09334,-0.06224 -0.09375,-0.0625 -4.05e-4,-2.6e-4 -0.09333,-0.06226 -0.09375,-0.0625 -4.18e-4,-2.38e-4 -0.09332,-0.06228 -0.09375,-0.0625 -4.3e-4,-2.16e-4 -0.09331,-0.03106 -0.09375,-0.03125 -4.4e-4,-1.93e-4 -0.0933,-0.03108 -0.09375,-0.03125 -4.5e-4,-1.7e-4 -0.09329,-0.06235 -0.09375,-0.0625 -4.58e-4,-1.46e-4 -0.124535,1.22e-4 -0.125,0 C 36.499535,54.031128 36.40672,54.0001 36.40625,54 c -4.71e-4,-9.7e-5 -0.09327,-0.03118 -0.09375,-0.03125 -4.75e-4,-7.3e-5 -0.124521,4.8e-5 -0.125,0 -4.79e-4,-4.8e-5 -0.09327,-0.03123 -0.09375,-0.03125 -4.8e-4,-2.2e-5 -0.124519,-3e-6 -0.125,0 -4.81e-4,3e-6 -0.09327,-2.8e-5 -0.09375,0 -3.67e-4,2.1e-5 -0.06424,0.02875 -0.09375,0.03125 -0.0091,7.69e-4 -0.03114,-1.2e-5 -0.03125,0 -0.04375,0.0057 -0.124394,-1.05e-4 -0.125,0 -7.58e-4,1.31e-4 -0.186756,0.06231 -0.1875,0.0625 -7.44e-4,1.94e-4 -0.155525,0.03099 -0.15625,0.03125 -7.25e-4,2.56e-4 -0.155549,0.06218 -0.15625,0.0625 -7.01e-4,3.16e-4 -0.155578,0.09338 -0.15625,0.09375 -6.72e-4,3.73e-4 -0.155611,0.09332 -0.15625,0.09375 -6.39e-4,4.28e-4 -0.124399,0.09327 -0.125,0.09375 -6.01e-4,4.8e-4 -0.124442,0.09322 -0.125,0.09375 a 1.0139272,1.0139272 0 0 0 -0.03125,0.03125 l -8,8 c -6.17e-4,6.19e-4 -0.124445,0.155575 -0.125,0.15625 -5.55e-4,6.75e-4 -0.124512,0.155526 -0.125,0.15625 -4.88e-4,7.24e-4 -0.09333,0.155482 -0.09375,0.15625 -4.17e-4,7.68e-4 -0.09341,0.186696 -0.09375,0.1875 -3.42e-4,8.04e-4 -0.06224,0.186667 -0.0625,0.1875 -2.64e-4,8.33e-4 -0.06232,0.186646 -0.0625,0.1875 -1.84e-4,8.54e-4 -0.03115,0.186632 -0.03125,0.1875 -1.02e-4,8.68e-4 1.9e-5,0.186626 0,0.1875 -1.9e-5,8.74e-4 -6.4e-5,0.186629 0,0.1875 6.4e-5,8.71e-4 0.0311,0.217889 0.03125,0.21875 1.47e-4,8.61e-4 0.03102,0.186657 0.03125,0.1875 2.28e-4,8.43e-4 0.06219,0.186682 0.0625,0.1875 3.07e-4,8.18e-4 0.09337,0.155465 0.09375,0.15625 3.84e-4,7.85e-4 0.09329,0.186755 0.09375,0.1875 4.57e-4,7.45e-4 0.09323,0.155552 0.09375,0.15625 5.25e-4,6.98e-4 0.124411,0.155605 0.125,0.15625 l 8,9 c 4.61e-4,5.08e-4 0.09325,0.09328 0.09375,0.09375 4.98e-4,4.72e-4 0.124468,0.124566 0.125,0.125 5.32e-4,4.34e-4 0.124438,0.09336 0.125,0.09375 5.62e-4,3.93e-4 0.12441,0.06215 0.125,0.0625 5.9e-4,3.5e-4 0.124385,0.09345 0.125,0.09375 6.15e-4,3.05e-4 0.155614,0.06224 0.15625,0.0625 6.36e-4,2.58e-4 0.155597,0.03104 0.15625,0.03125 6.53e-4,2.1e-4 0.124333,0.06234 0.125,0.0625 6.67e-4,1.6e-4 0.155573,0.03114 0.15625,0.03125 6.77e-4,1.1e-4 0.155567,-5.9e-5 0.15625,0 6.83e-4,5.9e-5 0.155564,-8e-6 0.15625,0 6.86e-4,8e-6 0.155565,4.3e-5 0.15625,0 6.85e-4,-4.3e-5 0.155571,9.5e-5 0.15625,0 6.79e-4,-9.5e-5 0.15558,-0.0311 0.15625,-0.03125 6.7e-4,-1.45e-4 0.124342,-0.03105 0.125,-0.03125 6.58e-4,-1.95e-4 0.155609,-0.06226 0.15625,-0.0625 6.41e-4,-2.43e-4 0.155629,-0.06221 0.15625,-0.0625 6.21e-4,-2.91e-4 0.124402,-0.06216 0.125,-0.0625 5.98e-4,-3.36e-4 0.124429,-0.09337 0.125,-0.09375 5.71e-4,-3.8e-4 0.124459,-0.09333 0.125,-0.09375 5.41e-4,-4.22e-4 0.124492,-0.09329 0.125,-0.09375 5.08e-4,-4.61e-4 0.09328,-0.09325 0.09375,-0.09375 4.72e-4,-4.97e-4 0.124566,-0.124469 0.125,-0.125 4.34e-4,-5.31e-4 0.09336,-0.124438 0.09375,-0.125 3.93e-4,-5.62e-4 0.06215,-0.12441 0.0625,-0.125 3.5e-4,-5.9e-4 0.09345,-0.124385 0.09375,-0.125 3.05e-4,-6.15e-4 0.06224,-0.155614 0.0625,-0.15625 2.58e-4,-6.36e-4 0.03104,-0.124347 0.03125,-0.125 2.1e-4,-6.53e-4 0.06234,-0.155583 0.0625,-0.15625 1.6e-4,-6.67e-4 0.03114,-0.155573 0.03125,-0.15625 1.1e-4,-6.77e-4 -5.9e-5,-0.155567 0,-0.15625 5.9e-5,-6.83e-4 -8e-6,-0.155564 0,-0.15625 l 0,-3.96875 19.9375,0 0,3.96875 c 8e-6,6.86e-4 -5.9e-5,0.155567 0,0.15625 5.9e-5,6.83e-4 -1.1e-4,0.155573 0,0.15625 1.1e-4,6.77e-4 0.03109,0.155583 0.03125,0.15625 1.6e-4,6.67e-4 0.06229,0.155597 0.0625,0.15625 2.1e-4,6.53e-4 0.03099,0.124364 0.03125,0.125 2.58e-4,6.36e-4 0.0622,0.155635 0.0625,0.15625 3.05e-4,6.15e-4 0.0934,0.12441 0.09375,0.125 3.5e-4,5.9e-4 0.06211,0.124438 0.0625,0.125 3.93e-4,5.62e-4 0.09332,0.124469 0.09375,0.125 4.34e-4,5.31e-4 0.124528,0.124503 0.125,0.125 4.72e-4,4.97e-4 0.09324,0.09329 0.09375,0.09375 5.08e-4,4.61e-4 0.124459,0.09333 0.125,0.09375 5.41e-4,4.22e-4 0.124429,0.09337 0.125,0.09375 5.71e-4,3.8e-4 0.124402,0.09341 0.125,0.09375 5.98e-4,3.36e-4 0.124379,0.06221 0.125,0.0625 6.21e-4,2.91e-4 0.155609,0.06226 0.15625,0.0625 6.41e-4,2.43e-4 0.155592,0.0623 0.15625,0.0625 6.58e-4,1.95e-4 0.12433,0.0311 0.125,0.03125 6.7e-4,1.45e-4 0.155571,0.03115 0.15625,0.03125 6.79e-4,9.5e-5 0.155565,-4.3e-5 0.15625,0 6.85e-4,4.3e-5 0.155564,8e-6 0.15625,0 6.86e-4,-8e-6 0.155567,5.9e-5 0.15625,0 6.83e-4,-5.9e-5 0.155573,1.1e-4 0.15625,0 C 60.344427,75.03114 60.499333,75.00016 60.5,75 c 6.67e-4,-1.6e-4 0.124347,-0.06229 0.125,-0.0625 6.53e-4,-2.1e-4 0.155614,-0.03099 0.15625,-0.03125 6.36e-4,-2.58e-4 0.155635,-0.0622 0.15625,-0.0625 6.15e-4,-3.05e-4 0.12441,-0.0934 0.125,-0.09375 5.9e-4,-3.5e-4 0.124438,-0.06211 0.125,-0.0625 5.62e-4,-3.93e-4 0.124468,-0.09332 0.125,-0.09375 5.32e-4,-4.34e-4 0.124502,-0.124528 0.125,-0.125 4.98e-4,-4.72e-4 0.09329,-0.09324 0.09375,-0.09375 l 8,-9 c 5.89e-4,-6.45e-4 0.124475,-0.155552 0.125,-0.15625 5.25e-4,-6.98e-4 0.09329,-0.155505 0.09375,-0.15625 4.57e-4,-7.45e-4 0.09337,-0.186715 0.09375,-0.1875 3.84e-4,-7.85e-4 0.09344,-0.155432 0.09375,-0.15625 3.07e-4,-8.18e-4 0.06227,-0.186657 0.0625,-0.1875 2.28e-4,-8.43e-4 0.0311,-0.186639 0.03125,-0.1875 1.47e-4,-8.61e-4 0.03119,-0.217879 0.03125,-0.21875 6.4e-5,-8.71e-4 1.9e-5,-0.186626 0,-0.1875 -1.9e-5,-8.74e-4 1.02e-4,-0.186632 0,-0.1875 -1.02e-4,-8.68e-4 -0.03107,-0.186646 -0.03125,-0.1875 -1.84e-4,-8.54e-4 -0.06224,-0.186667 -0.0625,-0.1875 -2.64e-4,-8.33e-4 -0.06216,-0.186696 -0.0625,-0.1875 -3.42e-4,-8.04e-4 -0.09333,-0.186732 -0.09375,-0.1875 -4.17e-4,-7.68e-4 -0.09326,-0.155526 -0.09375,-0.15625 -4.88e-4,-7.24e-4 -0.124445,-0.155575 -0.125,-0.15625 -5.55e-4,-6.75e-4 -0.124383,-0.155631 -0.125,-0.15625 l -8,-8 c -3.56e-4,-3.68e-4 -0.06212,-0.06215 -0.0625,-0.0625 -3.76e-4,-3.48e-4 -0.09336,-0.09342 -0.09375,-0.09375 -3.95e-4,-3.26e-4 -0.09334,-0.0622 -0.09375,-0.0625 -4.13e-4,-3.03e-4 -0.09332,-0.06222 -0.09375,-0.0625 -4.29e-4,-2.8e-4 -0.09331,-0.06224 -0.09375,-0.0625 -4.44e-4,-2.56e-4 -0.09329,-0.06227 -0.09375,-0.0625 -4.58e-4,-2.3e-4 -0.12453,-0.03105 -0.125,-0.03125 -4.7e-4,-2.04e-4 -0.09327,-0.03107 -0.09375,-0.03125 -4.8e-4,-1.78e-4 -0.12451,-0.06235 -0.125,-0.0625 -4.9e-4,-1.51e-4 -0.09325,-0.03113 -0.09375,-0.03125 -4.97e-4,-1.23e-4 -0.124497,9.5e-5 -0.125,0 -5.03e-4,-9.5e-5 -0.09324,-0.03118 -0.09375,-0.03125 -5.08e-4,-6.7e-5 -0.124489,3.9e-5 -0.125,0 -5.11e-4,-3.9e-5 -0.124488,-0.03124 -0.125,-0.03125 -5.12e-4,-1e-5 -0.09324,-1.9e-5 -0.09375,0 z"
       inkscape:connector-curvature="0"
       style="opacity:0.1;fill:black;fill-opacity:1;stroke:none" />
    <path
       id="path39"
       d="M 23.78125,23.96875 A 1.0413455,1.0413455 0 0 0 22.96875,25 l 0,6 A 1.0413455,1.0413455 0 0 0 24,32.03125 l 48,0 A 1.0413455,1.0413455 0 0 0 73.03125,31 l 0,-6 A 1.0413455,1.0413455 0 0 0 72,23.96875 l -48,0 a 1.0413455,1.0413455 0 0 0 -0.21875,0 z m 0,10 A 1.0413455,1.0413455 0 0 0 22.96875,35 l 0,6 A 1.0413455,1.0413455 0 0 0 24,42.03125 l 48,0 A 1.0413455,1.0413455 0 0 0 73.03125,41 l 0,-6 A 1.0413455,1.0413455 0 0 0 72,33.96875 l -48,0 a 1.0413455,1.0413455 0 0 0 -0.21875,0 z m 0,10 A 1.0413455,1.0413455 0 0 0 22.96875,45 l 0,6 A 1.0413455,1.0413455 0 0 0 24,52.03125 l 48,0 A 1.0413455,1.0413455 0 0 0 73.03125,51 l 0,-6 A 1.0413455,1.0413455 0 0 0 72,43.96875 l -48,0 a 1.0413455,1.0413455 0 0 0 -0.21875,0 z m 12.09375,11 A 1.0413455,1.0413455 0 0 0 35.25,55.25 l -8,8 a 1.0413455,1.0413455 0 0 0 -0.03125,1.4375 l 8,9 A 1.0413455,1.0413455 0 0 0 37.03125,73 l 0,-4.96875 21.9375,0 0,4.96875 a 1.0413455,1.0413455 0 0 0 1.8125,0.6875 l 8,-9 A 1.0413455,1.0413455 0 0 0 68.75,63.25 l -8,-8 A 1.0413455,1.0413455 0 0 0 58.96875,56 l 0,3.96875 -21.9375,0 0,-3.96875 A 1.0413455,1.0413455 0 0 0 35.875,54.96875 Z"
       inkscape:connector-curvature="0"
       style="opacity:0.15;fill:black;fill-opacity:1;stroke:none" />
    <path
       id="path41"
       inkscape:connector-curvature="0"
       d="m 24,25 0,6 48,0 0,-6 -48,0 z m 0,10 0,6 48,0 0,-6 -48,0 z m 0,10 0,6 48,0 0,-6 -48,0 z m 12,11 -8,8 8,9 0,-6 24,0 0,6 8,-9 -8,-8 0,5 -24,0 0,-5 z"
       style="opacity:0.3;fill:black;fill-opacity:1;stroke:none" />
    <path
       id="path43"
       inkscape:connector-curvature="0"
       d="m 24,24 0,6 48,0 0,-6 -48,0 z m 0,10 0,6 48,0 0,-6 -48,0 z m 0,10 0,6 48,0 0,-6 -48,0 z m 12,11 -8,8 8,9 0,-6 24,0 0,6 8,-9 -8,-8 0,5 -24,0 0,-5 z"
       style="fill:url(#linearGradient3746);fill-opacity:1;stroke:none" />
    <path
       id="path45"
       inkscape:connector-curvature="0"
       d="m 24,24 0,1 48,0 0,-1 -48,0 z m 0,10 0,1 48,0 0,-1 -48,0 z m 0,10 0,1 48,0 0,-1 -48,0 z m 12,11 -8,8 0.46875,0.53125 L 36,56 36,55 Z m 24,0 0,1 7.53125,7.53125 L 68,63 60,55 Z m -24,5 0,1 24,0 0,-1 -24,0 z"
       style="opacity:0.75;fill:white;fill-opacity:1;stroke:none" />
    <path
       id="path47"
       inkscape:connector-curvature="0"
       d="m 24,29 0,1 48,0 0,-1 -48,0 z m 0,10 0,1 48,0 0,-1 -48,0 z m 0,10 0,1 48,0 0,-1 -48,0 z M 28.46875,62.53125 28,63 l 8,9 0,-1 -7.53125,-8.46875 z m 39.0625,0 L 60,71 l 0,1 8,-9 -0.46875,-0.46875 z M 36,65 l 0,1 24,0 0,-1 -24,0 z"
       style="opacity:0.15;fill:black;fill-opacity:1;stroke:none" />
  </g>
</svg>
