<?xml version="1.0" encoding="UTF-8" standalone="no"?>
<svg
   xmlns:dc="http://purl.org/dc/elements/1.1/"
   xmlns:cc="http://creativecommons.org/ns#"
   xmlns:rdf="http://www.w3.org/1999/02/22-rdf-syntax-ns#"
   xmlns:svg="http://www.w3.org/2000/svg"
   xmlns="http://www.w3.org/2000/svg"
   xmlns:xlink="http://www.w3.org/1999/xlink"
   xmlns:sodipodi="http://sodipodi.sourceforge.net/DTD/sodipodi-0.dtd"
   xmlns:inkscape="http://www.inkscape.org/namespaces/inkscape"
   height="96"
   width="96"
   id="svg2"
   version="1.1"
   inkscape:version="0.91 r13725"
   sodipodi:docname="go-bottom.svg">
  <metadata
     id="metadata68">
    <rdf:RDF>
      <cc:Work
         rdf:about="">
        <dc:format>image/svg+xml</dc:format>
        <dc:type
           rdf:resource="http://purl.org/dc/dcmitype/StillImage" />
      </cc:Work>
    </rdf:RDF>
  </metadata>
  <sodipodi:namedview
     pagecolor="#ffffff"
     bordercolor="#666666"
     borderopacity="1"
     objecttolerance="10"
     gridtolerance="10"
     guidetolerance="10"
     inkscape:pageopacity="0"
     inkscape:pageshadow="2"
     inkscape:window-width="760"
     inkscape:window-height="480"
     id="namedview66"
     showgrid="false"
     inkscape:zoom="2.4583333"
     inkscape:cx="-15.864407"
     inkscape:cy="47.999999"
     inkscape:window-x="109"
     inkscape:window-y="133"
     inkscape:window-maximized="0"
     inkscape:current-layer="svg2" />
  <defs
     id="defs4">
    <linearGradient
       x2="0"
       y1="92.54"
       y2="7.02"
       gradientUnits="userSpaceOnUse"
       id="ButtonShadow-0"
       gradientTransform="matrix(1.0059 0 0 0.99417 100 0)">
      <stop
         stop-color="#000000"
         stop-opacity="1"
         id="stop7" />
      <stop
         stop-color="#000000"
         stop-opacity="0.588"
         offset="1"
         id="stop9" />
    </linearGradient>
    <linearGradient
       x2="0"
       xlink:href="#ButtonShadow-0"
       y1="6.132"
       y2="90.24"
       gradientUnits="userSpaceOnUse"
       id="linearGradient3780"
       gradientTransform="matrix(1.02381 0 0 -1.0119 -1.143 98.07)" />
    <linearGradient
       x2="0"
       xlink:href="#ButtonShadow-0"
       y1="6.132"
       y2="90.24"
       gradientUnits="userSpaceOnUse"
       id="linearGradient3721"
       gradientTransform="matrix(1 0 0 -1 0 97)" />
    <radialGradient
       cy="90.17"
       r="42"
       gradientUnits="userSpaceOnUse"
       id="radialGradient3619-3"
       cx="48"
       gradientTransform="matrix(1.15731 0 0 0.99591 -7.551 0.197)">
      <stop
         stop-color="#ffffff"
         stop-opacity="1"
         id="stop14" />
      <stop
         stop-color="#ffffff"
         stop-opacity="0"
         offset="1"
         id="stop16" />
    </radialGradient>
    <linearGradient
       x2="0"
       y1="16.767"
       y2="1.862"
       gradientUnits="userSpaceOnUse"
       id="linearGradient3862"
       gradientTransform="matrix(2.79232,0,0,-3.22312,15,80)">
      <stop
         stop-color="#1a1a1a"
         stop-opacity="1"
         id="stop19" />
      <stop
         stop-color="#4d4d4d"
         stop-opacity="1"
         offset="1"
         id="stop21" />
    </linearGradient>
    <rect
       x="6"
       rx="6"
       y="6"
       fill="#000000"
       fill-opacity="1"
       stroke="none"
       fill-rule="nonzero"
       height="84"
       id="SVGCleanerId_0"
       opacity="0.6"
       width="84" />
  </defs>
  <g
     id="g3485"
     transform="matrix(1.4271242,0,0,1.4271242,-20.523828,-21.914949)">
    <path
       d="m 37.875,21 c -1.491576,0.124489 -1.967232,1.745039 -1.78125,3.010726 0,4.361008 0,8.722016 0,13.083024 -2.53815,0.05982 -5.10597,-0.121382 -7.625,0.09375 -1.512393,0.349859 -1.880671,2.374167 -0.85601,3.441106 C 33.20016,49.419071 38.78758,58.209535 44.375,67 39.521697,67.02085 34.661493,66.95832 29.8125,67.03125 28.257389,67.12067 27.818805,68.830798 28,70.119401 28.0826,71.992363 27.821775,73.906057 28.15625,75.75 28.912155,77.493804 31.023923,76.895668 32.518652,77 43.740737,76.97914 54.969726,77.0417 66.1875,76.96875 67.742611,76.879328 68.181195,75.169202 68,73.880599 67.917404,72.007637 68.178225,70.093943 67.84375,68.25 67.087845,66.506196 64.976077,67.104332 63.481348,67 59.529232,67 55.577116,67 51.625,67 57.345833,57.964034 63.133236,48.965737 68.8125,39.90625 c 0.696607,-1.431842 -0.704802,-3.084313 -2.232275,-2.8125 -2.193409,0 -4.386817,0 -6.580225,0 C 59.97915,32.334197 60.04169,27.567742 59.96875,22.8125 59.879328,21.257389 58.169202,20.818805 56.880599,21 50.5454,21 44.2102,21 37.875,21 Z"
       inkscape:connector-curvature="0"
       id="path42"
       style="opacity:0.1;fill:black;fill-opacity:1;stroke:none" />
    <path
       d="m 38,22 a 0.99958806,0.99958806 0 0 0 -0.90625,1 l 0,15.09375 -8.09375,0 A 0.99958806,0.99958806 0 0 0 28.15625,39.625 L 46.1875,68 30,68 a 0.99958806,0.99958806 0 0 0 -1,1 l 0,6 a 0.99958806,0.99958806 0 0 0 1,1 l 36,0 a 0.99958806,0.99958806 0 0 0 1,-1 l 0,-6 A 0.99958806,0.99958806 0 0 0 66,68 L 49.8125,68 67.84375,39.625 A 0.99958806,0.99958806 0 0 0 67,38.09375 l -8,0 L 59,23 A 0.99958806,0.99958806 0 0 0 58,22 L 38.09375,22 A 0.99958806,0.99958806 0 0 0 38,22 Z"
       id="path44"
       inkscape:connector-curvature="0"
       style="opacity:0.15;fill:black;fill-opacity:1;stroke:none" />
    <path
       d="m 38.09375,23 0,16.09375 -9.09375,0 L 48,69 67,39.09375 l -9,0 L 58,23 38.09375,23 Z M 48,69 l -18,0 0,6 36,0 0,-6 -18,0 z"
       inkscape:connector-curvature="0"
       id="path46"
       style="opacity:0.3;fill:black;fill-opacity:1;stroke:none" />
    <path
       d="m 38.09375,22 0,16.09375 -9.09375,0 L 48,68 67,38.09375 l -9,0 L 58,22 38.09375,22 Z M 48,68 l -18,0 0,6 36,0 0,-6 -18,0 z"
       inkscape:connector-curvature="0"
       id="path60"
       style="fill:url(#linearGradient3862);fill-opacity:1;stroke:none" />
    <path
       d="m 38.09375,22 0,1 L 58,23 58,22 38.09375,22 Z M 29,38.09375 l 0.625,1 8.46875,0 0,-1 -9.09375,0 z m 29,0 0,1 8.375,0 0.625,-1 -9,0 z M 30,68 30,69 48,69 47.375,68 30,68 Z m 18,1 18,0 0,-1 L 48.625,68 48,69 Z"
       inkscape:connector-curvature="0"
       id="path62"
       style="opacity:0.75;fill:white;fill-opacity:1;stroke:none" />
    <path
       d="M 29,38.09375 47.375,67 48,67 29.625,38.09375 l -0.625,0 z M 48,67 48.625,67 67,38.09375 l -0.625,0 L 48,67 Z m -18,6 0,1 36,0 0,-1 -36,0 z"
       inkscape:connector-curvature="0"
       id="path64"
       style="opacity:0.15;fill:black;fill-opacity:1;stroke:none" />
  </g>
</svg>
