<?xml version="1.0" encoding="UTF-8" standalone="no"?>
<svg
   xmlns:dc="http://purl.org/dc/elements/1.1/"
   xmlns:cc="http://creativecommons.org/ns#"
   xmlns:rdf="http://www.w3.org/1999/02/22-rdf-syntax-ns#"
   xmlns:svg="http://www.w3.org/2000/svg"
   xmlns="http://www.w3.org/2000/svg"
   xmlns:xlink="http://www.w3.org/1999/xlink"
   xmlns:sodipodi="http://sodipodi.sourceforge.net/DTD/sodipodi-0.dtd"
   xmlns:inkscape="http://www.inkscape.org/namespaces/inkscape"
   height="96"
   width="96"
   id="svg2"
   version="1.1"
   inkscape:version="0.91 r13725"
   sodipodi:docname="go-jump.svg">
  <metadata
     id="metadata68">
    <rdf:RDF>
      <cc:Work
         rdf:about="">
        <dc:format>image/svg+xml</dc:format>
        <dc:type
           rdf:resource="http://purl.org/dc/dcmitype/StillImage" />
      </cc:Work>
    </rdf:RDF>
  </metadata>
  <sodipodi:namedview
     pagecolor="#ffffff"
     bordercolor="#666666"
     borderopacity="1"
     objecttolerance="10"
     gridtolerance="10"
     guidetolerance="10"
     inkscape:pageopacity="0"
     inkscape:pageshadow="2"
     inkscape:window-width="640"
     inkscape:window-height="480"
     id="namedview66"
     showgrid="false"
     inkscape:zoom="2.4583333"
     inkscape:cx="35.516929"
     inkscape:cy="44.949152"
     inkscape:window-x="717"
     inkscape:window-y="99"
     inkscape:window-maximized="0"
     inkscape:current-layer="svg2" />
  <defs
     id="defs4">
    <linearGradient
       x2="0"
       y1="92.54"
       y2="7.02"
       gradientUnits="userSpaceOnUse"
       id="ButtonShadow-0"
       gradientTransform="matrix(1.0059 0 0 0.99417 100 0)">
      <stop
         stop-color="#000000"
         stop-opacity="1"
         id="stop7" />
      <stop
         stop-color="#000000"
         stop-opacity="0.588"
         offset="1"
         id="stop9" />
    </linearGradient>
    <linearGradient
       x2="0"
       xlink:href="#ButtonShadow-0"
       y1="6.132"
       y2="90.24"
       gradientUnits="userSpaceOnUse"
       id="linearGradient3780"
       gradientTransform="matrix(1.02381 0 0 -1.0119 -1.143 98.07)" />
    <linearGradient
       x2="0"
       xlink:href="#ButtonShadow-0"
       y1="6.132"
       y2="90.24"
       gradientUnits="userSpaceOnUse"
       id="linearGradient3721"
       gradientTransform="matrix(1 0 0 -1 0 97)" />
    <radialGradient
       cy="90.17"
       r="42"
       gradientUnits="userSpaceOnUse"
       id="radialGradient3619-3"
       cx="48"
       gradientTransform="matrix(1.15731 0 0 0.99591 -7.551 0.197)">
      <stop
         stop-color="#ffffff"
         stop-opacity="1"
         id="stop14" />
      <stop
         stop-color="#ffffff"
         stop-opacity="0"
         offset="1"
         id="stop16" />
    </radialGradient>
    <linearGradient
       x2="0"
       y1="-1.131"
       y2="16.588"
       gradientUnits="userSpaceOnUse"
       id="linearGradient3875"
       gradientTransform="matrix(3.39307,0,0,2.65246,24,29)">
      <stop
         stop-color="#1a1a1a"
         stop-opacity="1"
         id="stop19" />
      <stop
         stop-color="#4d4d4d"
         stop-opacity="1"
         offset="1"
         id="stop21" />
    </linearGradient>
    <rect
       x="6"
       rx="6"
       y="6"
       fill="#000000"
       fill-opacity="1"
       stroke="none"
       fill-rule="nonzero"
       height="84"
       id="SVGCleanerId_0"
       opacity="0.6"
       width="84" />
  </defs>
  <g
     id="g3545"
     transform="matrix(1.4812287,0,0,1.4812287,-21.766836,-26.799735)">
    <path
       d="m 54.09375,25.09375 c -1.422813,0.04031 -2.015857,1.566305 -1.78125,2.795479 0.06969,1.935894 -0.13535,3.92345 0.09375,5.829521 0.383193,1.268378 1.84322,1.373143 2.966889,1.25 2.646848,0.106459 5.367711,-0.300873 7.942589,0.435989 1.245929,1.231801 0.793704,3.32106 0.903022,4.9684 -0.04982,4.759235 0.108379,9.526244 -0.09663,14.27977 0.192781,2.68821 -2.929013,2.361684 -4.769399,2.378341 -1.096741,0 -2.193483,0 -3.290225,0 -0.06374,-2.548083 0.126855,-5.127477 -0.09375,-7.65625 -0.425849,-1.414745 -2.363649,-1.639841 -3.338311,-0.64188 -5.973065,3.970101 -12.008548,7.892423 -17.942939,11.89188 -1.120546,0.979501 -0.52119,2.811625 0.775811,3.29562 5.962857,3.927999 11.903983,7.893766 17.880439,11.79813 1.383836,0.712929 3.062188,-0.656926 2.71875,-2.163365 0,-2.226795 0,-4.45359 0,-6.680385 3.280485,-0.105764 6.605116,0.275534 9.842487,-0.342438 5.095358,-1.200894 8.632907,-6.404921 8.157513,-11.569996 -0.03469,-6.690926 0.07113,-13.386302 -0.05616,-20.074301 C 73.565192,29.146608 67.996961,24.601804 62.298271,25.125 59.565402,25.103419 56.818057,25.167676 54.09375,25.09375 Z M 27,55.125 c -4.321754,-0.150673 -7.88833,4.439238 -6.657979,8.590049 0.934689,4.199242 6.216929,6.522079 9.930867,4.328292 3.846385,-1.915771 4.823359,-7.58588 1.812836,-10.662223 C 30.805693,55.959192 28.91506,55.113169 27,55.125 Z"
       inkscape:connector-curvature="0"
       id="path42"
       style="opacity:0.15;fill:black;fill-opacity:1;stroke:none" />
    <path
       d="m 54,26 a 1.0064727,1.0064727 0 0 0 -0.8125,1 l 0,6.09375 a 1.0064727,1.0064727 0 0 0 1,1 l 5.90625,0 c 2.434401,0 3.614301,0.318507 4.15625,0.875 0.541949,0.556493 0.84375,1.778075 0.84375,4.21875 l 0,13.625 c 0,2.440675 -0.301801,3.662257 -0.84375,4.21875 -0.541949,0.556493 -1.721849,0.875 -4.15625,0.875 l -4.90625,0 0,-7.90625 A 1.0064727,1.0064727 0 0 0 53.625,49.15625 l -18.1875,12 a 1.0064727,1.0064727 0 0 0 0,1.6875 l 18.1875,12 A 1.0064727,1.0064727 0 0 0 55.1875,74 l 0,-8 8,0 c 5.526125,0 10,-4.473878 10,-10 l 0,-20 c 0,-5.526122 -4.473875,-10 -10,-10 l -9,0 A 1.0064727,1.0064727 0 0 0 54,26 Z M 27,56 c -3.305308,0 -6,2.694692 -6,6 0,3.305309 2.694693,6 6,6 3.305307,0 6,-2.694691 6,-6 0,-3.305308 -2.694692,-6 -6,-6 z"
       id="path44"
       inkscape:connector-curvature="0"
       style="opacity:0.15;fill:black;fill-opacity:1;stroke:none" />
    <path
       d="m 54.1875,27 0,6.09375 5.90625,0 c 5.013381,0 6,1.080366 6,6.09375 l 0,13.625 c 0,5.013384 -0.986619,6.09375 -6,6.09375 l -5.90625,0 L 54.1875,50 36,62 l 18.1875,12 0,-9 9,0 c 4.986003,0 9,-4.014 9,-9 l 0,-20 c 0,-4.986 -4.013997,-9 -9,-9 l -9,0 z M 27,57 c -2.761424,0 -5,2.238576 -5,5 0,2.761426 2.238576,5 5,5 2.761424,0 5,-2.238574 5,-5 0,-2.761424 -2.238576,-5 -5,-5 z"
       inkscape:connector-curvature="0"
       id="path46"
       style="opacity:0.3;fill:black;fill-opacity:1;stroke:none" />
    <path
       d="m 54.1875,26 0,6.09375 5.90625,0 c 5.013381,0 6,1.080366 6,6.09375 l 0,13.625 c 0,5.013384 -0.986619,6.09375 -6,6.09375 l -5.90625,0 L 54.1875,49 36,61 l 18.1875,12 0,-9 9,0 c 4.986003,0 9,-4.014 9,-9 l 0,-20 c 0,-4.986 -4.013997,-9 -9,-9 l -9,0 z M 27,56 c -2.761424,0 -5,2.238576 -5,5 0,2.761426 2.238576,5 5,5 2.761424,0 5,-2.238574 5,-5 0,-2.761424 -2.238576,-5 -5,-5 z"
       inkscape:connector-curvature="0"
       id="path60"
       style="fill:url(#linearGradient3875);fill-opacity:1;stroke:none" />
    <path
       d="m 54.1875,26 0,1 9,0 c 4.986003,0 9,4.014 9,9 l 0,-1 c 0,-4.986 -4.013997,-9 -9,-9 l -9,0 z m 0,23 L 36,61 36.75,61.5 54.1875,50 l 0,-1 z m 11.90625,2.8125 c 0,5.013384 -0.986619,6.09375 -6,6.09375 l -5.90625,0 0,1 5.90625,0 c 5.013381,0 6,-1.080366 6,-6.09375 l 0,-1 z M 27,56 c -2.761424,0 -5,2.238576 -5,5 0,0.172589 0.01418,0.331915 0.03125,0.5 C 22.2873,58.978719 24.411165,57 27,57 c 2.588835,0 4.7127,1.978719 4.96875,4.5 C 31.98582,61.331915 32,61.172589 32,61 32,58.238576 29.761424,56 27,56 Z"
       inkscape:connector-curvature="0"
       id="path62"
       style="opacity:0.75;fill:white;fill-opacity:1;stroke:none" />
    <path
       d="m 54.1875,31.09375 0,1 5.90625,0 c 5.013381,0 6,1.080366 6,6.09375 l 0,-1 c 0,-5.013384 -0.986619,-6.09375 -6,-6.09375 l -5.90625,0 z M 72.1875,54 c 0,4.986 -4.013997,9 -9,9 l -9,0 0,1 9,0 c 4.986003,0 9,-4.014 9,-9 l 0,-1 z M 22.03125,60.5 C 22.01418,60.668085 22,60.827411 22,61 c 0,2.761426 2.238576,5 5,5 2.761424,0 5,-2.238574 5,-5 0,-0.172589 -0.01418,-0.331915 -0.03125,-0.5 C 31.7127,63.021282 29.588835,65 27,65 24.411165,65 22.2873,63.021282 22.03125,60.5 Z M 36.75,60.5 36,61 l 18.1875,12 0,-1 L 36.75,60.5 Z"
       inkscape:connector-curvature="0"
       id="path64"
       style="opacity:0.15;fill:black;fill-opacity:1;stroke:none" />
  </g>
</svg>
