<?xml version="1.0" encoding="UTF-8" standalone="no"?>
<svg
   xmlns:dc="http://purl.org/dc/elements/1.1/"
   xmlns:cc="http://creativecommons.org/ns#"
   xmlns:rdf="http://www.w3.org/1999/02/22-rdf-syntax-ns#"
   xmlns:svg="http://www.w3.org/2000/svg"
   xmlns="http://www.w3.org/2000/svg"
   xmlns:xlink="http://www.w3.org/1999/xlink"
   xmlns:sodipodi="http://sodipodi.sourceforge.net/DTD/sodipodi-0.dtd"
   xmlns:inkscape="http://www.inkscape.org/namespaces/inkscape"
   height="96"
   width="96"
   id="svg2"
   version="1.1"
   inkscape:version="0.91 r13725"
   sodipodi:docname="go-next.svg">
  <metadata
     id="metadata68">
    <rdf:RDF>
      <cc:Work
         rdf:about="">
        <dc:format>image/svg+xml</dc:format>
        <dc:type
           rdf:resource="http://purl.org/dc/dcmitype/StillImage" />
      </cc:Work>
    </rdf:RDF>
  </metadata>
  <sodipodi:namedview
     pagecolor="#ffffff"
     bordercolor="#666666"
     borderopacity="1"
     objecttolerance="10"
     gridtolerance="10"
     guidetolerance="10"
     inkscape:pageopacity="0"
     inkscape:pageshadow="2"
     inkscape:window-width="640"
     inkscape:window-height="480"
     id="namedview66"
     showgrid="false"
     inkscape:zoom="2.4583333"
     inkscape:cx="22.98305"
     inkscape:cy="47.999999"
     inkscape:window-x="66"
     inkscape:window-y="91"
     inkscape:window-maximized="0"
     inkscape:current-layer="svg2" />
  <defs
     id="defs4">
    <linearGradient
       x2="0"
       y1="92.54"
       y2="7.02"
       gradientUnits="userSpaceOnUse"
       id="ButtonShadow-0"
       gradientTransform="matrix(1.0059 0 0 0.99417 100 0)">
      <stop
         stop-color="#000000"
         stop-opacity="1"
         id="stop7" />
      <stop
         stop-color="#000000"
         stop-opacity="0.588"
         offset="1"
         id="stop9" />
    </linearGradient>
    <linearGradient
       x2="0"
       xlink:href="#ButtonShadow-0"
       y1="6.132"
       y2="90.24"
       gradientUnits="userSpaceOnUse"
       id="linearGradient3780"
       gradientTransform="matrix(1.02381 0 0 -1.0119 -1.143 98.07)" />
    <linearGradient
       x2="0"
       xlink:href="#ButtonShadow-0"
       y1="6.132"
       y2="90.24"
       gradientUnits="userSpaceOnUse"
       id="linearGradient3721"
       gradientTransform="matrix(1 0 0 -1 0 97)" />
    <radialGradient
       cy="90.17"
       r="42"
       gradientUnits="userSpaceOnUse"
       id="radialGradient3619-3"
       cx="48"
       gradientTransform="matrix(1.15731 0 0 0.99591 -7.551 0.197)">
      <stop
         stop-color="#ffffff"
         stop-opacity="1"
         id="stop14" />
      <stop
         stop-color="#ffffff"
         stop-opacity="0"
         offset="1"
         id="stop16" />
    </radialGradient>
    <linearGradient
       x1="18.693"
       x2="4.943"
       gradientUnits="userSpaceOnUse"
       id="linearGradient3022"
       gradientTransform="matrix(0,-2.76354,-3.22312,0,80.03,80.66)">
      <stop
         stop-color="#1a1a1a"
         stop-opacity="1"
         id="stop19" />
      <stop
         stop-color="#4d4d4d"
         stop-opacity="1"
         offset="1"
         id="stop21" />
    </linearGradient>
    <rect
       x="6"
       rx="6"
       y="6"
       fill="#000000"
       fill-opacity="1"
       stroke="none"
       fill-rule="nonzero"
       height="84"
       id="SVGCleanerId_0"
       opacity="0.6"
       width="84" />
  </defs>
  <g
     id="g3456"
     transform="matrix(1.6020675,0,0,1.6020675,-30.523206,-30.441902)">
    <path
       d="m 24.082,58.976588 c 0.023,1.405385 1.513177,2.084392 2.750526,1.875 4.447741,0 8.895483,0 13.343224,0 0.04037,2.508229 -0.08159,5.034547 0.0625,7.53125 0.269555,1.525208 2.304816,2.018249 3.377411,0.970516 9.890134,-6.294944 19.819357,-12.56852 29.685089,-18.876766 1.196123,-0.94369 0.714797,-2.935075 -0.658661,-3.435734 C 62.745169,40.762462 52.863395,34.456461 42.957,28.195338 c -1.396637,-0.675014 -3.033781,0.669549 -2.78125,2.172138 0,2.213454 0,4.426908 0,6.640362 -4.769966,0.0209 -9.546847,-0.04176 -14.3125,0.03125 -1.502471,0.08111 -1.958239,1.726736 -1.78125,2.979867 0,6.319211 0,12.638422 0,18.957633 z"
       inkscape:connector-curvature="0"
       id="path42"
       style="opacity:0.15;fill:black;fill-opacity:1;stroke:none" />
    <path
       d="m 25.035,59.08375 a 1.0065069,1.0065069 0 0 0 1,0.8125 l 15.09375,0 0,8.09375 A 1.0065069,1.0065069 0 0 0 42.66,68.83375 l 29.90625,-19 a 1.0065069,1.0065069 0 0 0 0,-1.6875 l -29.90625,-19 A 1.0065069,1.0065069 0 0 0 41.12875,29.99 l 0,8 -15.09375,0 a 1.0065069,1.0065069 0 0 0 -1,1 l 0,19.90625 a 1.0065069,1.0065069 0 0 0 0,0.1875 z"
       id="path44"
       inkscape:connector-curvature="0"
       style="opacity:0.15;fill:black;fill-opacity:1;stroke:none" />
    <path
       d="m 26.027338,58.907217 16.09375,0 0,9.092783 29.90625,-19 -29.90625,-19 0,9 -16.09375,0 z"
       inkscape:connector-curvature="0"
       id="path46"
       style="opacity:0.3;fill:black;fill-opacity:1;stroke:none" />
    <path
       d="m 26.027338,57.907217 16.09375,0 0,9.092783 29.90625,-19 -29.90625,-19 0,9 -16.09375,0 z"
       inkscape:connector-curvature="0"
       id="path60"
       style="fill:url(#linearGradient3022);fill-opacity:1;stroke:none" />
    <path
       d="m 42.121088,29 29.90625,19 -0.78125,0.5 -29.125,-18.5 0,-1 z m 0,9 0,1 -16.09375,0 0,-1 16.09375,0 z"
       inkscape:connector-curvature="0"
       id="path62"
       style="opacity:0.75;fill:white;fill-opacity:1;stroke:none" />
    <path
       d="m 71.246088,47.5 0.78125,0.5 -29.90625,19 0,-1 29.125,-18.5 z m -29.125,9.40625 0,1 -16.09375,0 0,-1 16.09375,0 z"
       inkscape:connector-curvature="0"
       id="path64"
       style="opacity:0.15;fill:black;fill-opacity:1;stroke:none" />
  </g>
</svg>
