<?xml version="1.0" encoding="UTF-8" standalone="no"?>
<svg
   xmlns:dc="http://purl.org/dc/elements/1.1/"
   xmlns:cc="http://creativecommons.org/ns#"
   xmlns:rdf="http://www.w3.org/1999/02/22-rdf-syntax-ns#"
   xmlns:svg="http://www.w3.org/2000/svg"
   xmlns="http://www.w3.org/2000/svg"
   xmlns:xlink="http://www.w3.org/1999/xlink"
   xmlns:sodipodi="http://sodipodi.sourceforge.net/DTD/sodipodi-0.dtd"
   xmlns:inkscape="http://www.inkscape.org/namespaces/inkscape"
   height="96"
   width="96"
   id="svg2"
   version="1.1"
   inkscape:version="0.91 r13725"
   sodipodi:docname="go-top.svg">
  <metadata
     id="metadata68">
    <rdf:RDF>
      <cc:Work
         rdf:about="">
        <dc:format>image/svg+xml</dc:format>
        <dc:type
           rdf:resource="http://purl.org/dc/dcmitype/StillImage" />
      </cc:Work>
    </rdf:RDF>
  </metadata>
  <sodipodi:namedview
     pagecolor="#ffffff"
     bordercolor="#666666"
     borderopacity="1"
     objecttolerance="10"
     gridtolerance="10"
     guidetolerance="10"
     inkscape:pageopacity="0"
     inkscape:pageshadow="2"
     inkscape:window-width="640"
     inkscape:window-height="480"
     id="namedview66"
     showgrid="false"
     inkscape:zoom="2.4583333"
     inkscape:cx="22.98305"
     inkscape:cy="47.999999"
     inkscape:window-x="100"
     inkscape:window-y="125"
     inkscape:window-maximized="0"
     inkscape:current-layer="svg2" />
  <defs
     id="defs4">
    <linearGradient
       x2="0"
       y1="92.54"
       y2="7.02"
       gradientUnits="userSpaceOnUse"
       id="ButtonShadow-0"
       gradientTransform="matrix(1.0059 0 0 0.99417 100 0)">
      <stop
         stop-color="#000000"
         stop-opacity="1"
         id="stop7" />
      <stop
         stop-color="#000000"
         stop-opacity="0.588"
         offset="1"
         id="stop9" />
    </linearGradient>
    <linearGradient
       x2="0"
       xlink:href="#ButtonShadow-0"
       y1="6.132"
       y2="90.24"
       gradientUnits="userSpaceOnUse"
       id="linearGradient3780"
       gradientTransform="matrix(1.02381 0 0 -1.0119 -1.143 98.07)" />
    <linearGradient
       x2="0"
       xlink:href="#ButtonShadow-0"
       y1="6.132"
       y2="90.24"
       gradientUnits="userSpaceOnUse"
       id="linearGradient3721"
       gradientTransform="matrix(1 0 0 -1 0 97)" />
    <radialGradient
       cy="90.17"
       r="42"
       gradientUnits="userSpaceOnUse"
       id="radialGradient3619-3"
       cx="48"
       gradientTransform="matrix(1.15731 0 0 0.99591 -7.551 0.197)">
      <stop
         stop-color="#ffffff"
         stop-opacity="1"
         id="stop14" />
      <stop
         stop-color="#ffffff"
         stop-opacity="0"
         offset="1"
         id="stop16" />
    </radialGradient>
    <linearGradient
       x1="12.534"
       x2="12.533"
       y1="3.103"
       y2="17.832"
       gradientUnits="userSpaceOnUse"
       id="linearGradient3862"
       gradientTransform="matrix(2.79232,0,0,3.22312,15,16)">
      <stop
         stop-color="#1a1a1a"
         stop-opacity="1"
         id="stop19" />
      <stop
         stop-color="#4d4d4d"
         stop-opacity="1"
         offset="1"
         id="stop21" />
    </linearGradient>
    <rect
       x="6"
       rx="6"
       y="6"
       fill="#000000"
       fill-opacity="1"
       stroke="none"
       fill-rule="nonzero"
       height="84"
       id="SVGCleanerId_0"
       opacity="0.6"
       width="84" />
  </defs>
  <g
     id="g3496"
     transform="matrix(1.4271242,0,0,1.4271242,-20.523828,-21.914949)">
    <path
       d="M 37.875,76.980189 C 36.383424,76.8557 35.907768,75.23515 36.09375,73.969463 c 0,-4.361008 0,-8.722016 0,-13.083024 -2.53815,-0.05982 -5.10597,0.121382 -7.625,-0.09375 C 26.956357,60.44283 26.588079,58.418522 27.61274,57.351583 33.20016,48.561118 38.78758,39.770654 44.375,30.980189 39.521697,30.959339 34.661493,31.021869 29.8125,30.948939 28.257389,30.859519 27.818805,29.149391 28,27.860788 c 0.0826,-1.872962 -0.178225,-3.786656 0.15625,-5.630599 0.755905,-1.743804 2.867673,-1.145668 4.362402,-1.25 11.222085,0.02086 22.451074,-0.0417 33.668848,0.03125 1.555111,0.08942 1.993695,1.799548 1.8125,3.088151 -0.0826,1.872962 0.178225,3.786656 -0.15625,5.630599 -0.755905,1.743804 -2.867673,1.145668 -4.362402,1.25 -3.952116,0 -7.904232,0 -11.856348,0 5.720833,9.035966 11.508236,18.034263 17.1875,27.09375 0.696607,1.431842 -0.704802,3.084313 -2.232275,2.8125 -2.193409,0 -4.386817,0 -6.580225,0 -0.02085,4.759553 0.04169,9.526008 -0.03125,14.28125 -0.08942,1.555111 -1.799548,1.993695 -3.088151,1.8125 -6.335199,0 -12.670399,0 -19.005599,0 z"
       inkscape:connector-curvature="0"
       id="path42"
       style="opacity:0.1;fill:black;fill-opacity:1;stroke:none" />
    <path
       d="m 38,76 a 0.99958806,0.99958806 0 0 1 -0.90625,-1 l 0,-15.09375 -8.09375,0 A 0.99958806,0.99958806 0 0 1 28.15625,58.375 L 46.1875,30 30,30 a 0.99958806,0.99958806 0 0 1 -1,-1 l 0,-6 a 0.99958806,0.99958806 0 0 1 1,-1 l 36,0 a 0.99958806,0.99958806 0 0 1 1,1 l 0,6 a 0.99958806,0.99958806 0 0 1 -1,1 L 49.8125,30 67.84375,58.375 A 0.99958806,0.99958806 0 0 1 67,59.90625 l -8,0 L 59,75 a 0.99958806,0.99958806 0 0 1 -1,1 L 38.09375,76 A 0.99958806,0.99958806 0 0 1 38,76 Z"
       id="path44"
       inkscape:connector-curvature="0"
       style="opacity:0.15;fill:black;fill-opacity:1;stroke:none" />
    <path
       d="m 38.09375,75 0,-16.09375 -9.09375,0 L 48,29 l 19,29.90625 -9,0 L 58,75 38.09375,75 Z M 48,29 l -18,0 0,-6 36,0 0,6 -18,0 z"
       inkscape:connector-curvature="0"
       id="path46"
       style="opacity:0.3;fill:black;fill-opacity:1;stroke:none" />
    <path
       d="m 38.09375,74 0,-16.09375 -9.09375,0 L 48,28 l 19,29.90625 -9,0 L 58,74 38.09375,74 Z M 48,28 l -18,0 0,-6 36,0 0,6 -18,0 z"
       inkscape:connector-curvature="0"
       id="path60"
       style="fill:url(#linearGradient3862);fill-opacity:1;stroke:none" />
    <path
       d="m 38.09375,74 0,-1 L 58,73 58,74 38.09375,74 Z M 29,57.90625 l 0.625,-1 8.46875,0 0,1 -9.09375,0 z m 29,0 0,-1 8.375,0 0.625,1 -9,0 z M 30,28 30,27 48,27 47.375,28 30,28 Z m 18,-1 18,0 0,1 L 48.625,28 48,27 Z"
       inkscape:connector-curvature="0"
       id="path62"
       style="opacity:0.15;fill:black;fill-opacity:1;stroke:none" />
    <path
       d="M 29,57.90625 47.375,29 48,29 29.625,57.90625 l -0.625,0 z M 48,29 48.625,29 67,57.90625 l -0.625,0 L 48,29 Z m -18,-6 0,-1 36,0 0,1 -36,0 z"
       inkscape:connector-curvature="0"
       id="path64"
       style="opacity:0.75;fill:white;fill-opacity:1;stroke:none" />
  </g>
</svg>
