<?xml version="1.0" encoding="UTF-8" standalone="no"?>
<svg
   xmlns:dc="http://purl.org/dc/elements/1.1/"
   xmlns:cc="http://creativecommons.org/ns#"
   xmlns:rdf="http://www.w3.org/1999/02/22-rdf-syntax-ns#"
   xmlns:svg="http://www.w3.org/2000/svg"
   xmlns="http://www.w3.org/2000/svg"
   xmlns:xlink="http://www.w3.org/1999/xlink"
   xmlns:sodipodi="http://sodipodi.sourceforge.net/DTD/sodipodi-0.dtd"
   xmlns:inkscape="http://www.inkscape.org/namespaces/inkscape"
   height="96"
   width="96"
   id="svg2"
   version="1.1"
   inkscape:version="0.91 r13725"
   sodipodi:docname="go-up.svg">
  <metadata
     id="metadata68">
    <rdf:RDF>
      <cc:Work
         rdf:about="">
        <dc:format>image/svg+xml</dc:format>
        <dc:type
           rdf:resource="http://purl.org/dc/dcmitype/StillImage" />
      </cc:Work>
    </rdf:RDF>
  </metadata>
  <sodipodi:namedview
     pagecolor="#ffffff"
     bordercolor="#666666"
     borderopacity="1"
     objecttolerance="10"
     gridtolerance="10"
     guidetolerance="10"
     inkscape:pageopacity="0"
     inkscape:pageshadow="2"
     inkscape:window-width="640"
     inkscape:window-height="480"
     id="namedview66"
     showgrid="false"
     inkscape:zoom="2.4583333"
     inkscape:cx="34.954476"
     inkscape:cy="47.999999"
     inkscape:window-x="75"
     inkscape:window-y="99"
     inkscape:window-maximized="0"
     inkscape:current-layer="svg2" />
  <defs
     id="defs4">
    <linearGradient
       x2="0"
       y1="92.54"
       y2="7.02"
       gradientUnits="userSpaceOnUse"
       id="ButtonShadow-0"
       gradientTransform="matrix(1.0059 0 0 0.99417 100 0)">
      <stop
         stop-color="#000000"
         stop-opacity="1"
         id="stop7" />
      <stop
         stop-color="#000000"
         stop-opacity="0.588"
         offset="1"
         id="stop9" />
    </linearGradient>
    <linearGradient
       x2="0"
       xlink:href="#ButtonShadow-0"
       y1="6.132"
       y2="90.24"
       gradientUnits="userSpaceOnUse"
       id="linearGradient3780"
       gradientTransform="matrix(1.02381 0 0 -1.0119 -1.143 98.07)" />
    <linearGradient
       x2="0"
       xlink:href="#ButtonShadow-0"
       y1="6.132"
       y2="90.24"
       gradientUnits="userSpaceOnUse"
       id="linearGradient3721"
       gradientTransform="matrix(1 0 0 -1 0 97)" />
    <radialGradient
       cy="90.17"
       r="42"
       gradientUnits="userSpaceOnUse"
       id="radialGradient3619-3"
       cx="48"
       gradientTransform="matrix(1.15731 0 0 0.99591 -7.551 0.197)">
      <stop
         stop-color="#ffffff"
         stop-opacity="1"
         id="stop14" />
      <stop
         stop-color="#ffffff"
         stop-opacity="0"
         offset="1"
         id="stop16" />
    </radialGradient>
    <linearGradient
       x2="0"
       y1="2.482"
       y2="16.13"
       gradientUnits="userSpaceOnUse"
       id="linearGradient3022"
       gradientTransform="matrix(2.76354,0,0,3.22312,15.34,14)">
      <stop
         stop-color="#1a1a1a"
         stop-opacity="1"
         id="stop19" />
      <stop
         stop-color="#4d4d4d"
         stop-opacity="1"
         offset="1"
         id="stop21" />
    </linearGradient>
    <rect
       x="6"
       rx="6"
       y="6"
       fill="#000000"
       fill-opacity="1"
       stroke="none"
       fill-rule="nonzero"
       height="84"
       id="SVGCleanerId_0"
       opacity="0.6"
       width="84" />
  </defs>
  <g
     id="g3516"
     transform="matrix(1.6020675,0,0,1.6020675,-28.921138,-25.635699)">
    <path
       d="m 38,70.894588 c -1.405385,-0.023 -2.084392,-1.513177 -1.875,-2.750526 0,-4.447741 0,-8.895483 0,-13.343224 -2.508229,-0.04037 -5.034547,0.08159 -7.53125,-0.0625 C 27.068542,54.468783 26.575501,52.433522 27.623234,51.360927 33.918178,41.470793 40.191754,31.54157 46.5,21.675838 c 0.94369,-1.196123 2.935075,-0.714797 3.435734,0.658661 6.278392,9.89692 12.584393,19.778694 18.845516,29.685089 0.675014,1.396637 -0.669549,3.033781 -2.172138,2.78125 -2.213454,0 -4.426908,0 -6.640362,0 -0.0209,4.769966 0.04176,9.546847 -0.03125,14.3125 -0.08111,1.502471 -1.726736,1.958239 -2.979867,1.78125 -6.319211,0 -12.638422,0 -18.957633,0 z"
       inkscape:connector-curvature="0"
       id="path42"
       style="opacity:0.15;fill:black;fill-opacity:1;stroke:none" />
    <path
       d="m 37.90625,69.98 a 1.0065069,1.0065069 0 0 1 -0.8125,-1 l 0,-15.09375 -8.09375,0 A 1.0065069,1.0065069 0 0 1 28.15625,52.355 l 19,-29.90625 a 1.0065069,1.0065069 0 0 1 1.6875,0 l 19,29.90625 A 1.0065069,1.0065069 0 0 1 67,53.88625 l -8,0 0,15.09375 a 1.0065069,1.0065069 0 0 1 -1,1 l -19.90625,0 a 1.0065069,1.0065069 0 0 1 -0.1875,0 z"
       id="path44"
       inkscape:connector-curvature="0"
       style="opacity:0.15;fill:black;fill-opacity:1;stroke:none" />
    <path
       d="m 38.092783,69 0,-16.09375 L 29,52.90625 48,23 l 19,29.90625 -9,0 L 58,69 Z"
       inkscape:connector-curvature="0"
       id="path46"
       style="opacity:0.3;fill:black;fill-opacity:1;stroke:none" />
    <path
       d="m 38.092783,68 0,-16.09375 L 29,51.90625 48,22 l 19,29.90625 -9,0 L 58,68 Z"
       inkscape:connector-curvature="0"
       id="path60"
       style="fill:url(#linearGradient3022);fill-opacity:1;stroke:none" />
    <path
       d="m 38.09375,68 0,-1 L 58,67 58,68 38.09375,68 Z M 29,51.90625 l 0.625,-1 8.46875,0 0,1 -9.09375,0 z m 29,0 0,-1 8.375,0 0.625,1 -9,0 z"
       inkscape:connector-curvature="0"
       id="path62"
       style="opacity:0.15;fill:black;fill-opacity:1;stroke:none" />
    <path
       d="M 29,51.90625 48,22 l 19,29.90625 -0.625,0 L 48,23 29.625,51.90625 l -0.625,0 z"
       inkscape:connector-curvature="0"
       id="path64"
       style="opacity:0.75;fill:white;fill-opacity:1;stroke:none" />
  </g>
</svg>
