<svg height="96" width="96" xmlns="http://www.w3.org/2000/svg" xmlns:xlink="http://www.w3.org/1999/xlink" xmlns:sodipodi="http://sodipodi.sourceforge.net/DTD/sodipodi-0.dtd" xmlns:inkscape="http://www.inkscape.org/namespaces/inkscape">
 <defs>
  <linearGradient x2="0" y1="92.54" y2="7.02" gradientUnits="userSpaceOnUse" id="ButtonShadow-0" gradientTransform="matrix(1.0059 0 0 0.99417 100 0)">
   <stop stop-color="#000000" stop-opacity="1"/>
   <stop stop-color="#000000" stop-opacity="0.588" offset="1"/>
  </linearGradient>
  <linearGradient x2="0" xlink:href="#ButtonShadow-0" y1="6.132" y2="90.24" gradientUnits="userSpaceOnUse" id="linearGradient3780" gradientTransform="matrix(1.02381 0 0 -1.0119 -1.143 98.07)"/>
  <linearGradient x2="0" xlink:href="#ButtonShadow-0" y1="6.132" y2="90.24" gradientUnits="userSpaceOnUse" id="linearGradient3721" gradientTransform="matrix(1 0 0 -1 0 97)"/>
  <radialGradient cy="90.17" r="42" gradientUnits="userSpaceOnUse" id="radialGradient3619-3" cx="48" gradientTransform="matrix(1.15731 0 0 0.99591 -7.551 0.197)">
   <stop stop-color="#ffffff" stop-opacity="1"/>
   <stop stop-color="#ffffff" stop-opacity="0" offset="1"/>
  </radialGradient>
  <linearGradient id="linearGradient3183-0">
   <stop stop-color="#c80000" stop-opacity="1"/>
   <stop stop-color="#f3604d" stop-opacity="1" offset="1"/>
  </linearGradient>
  <linearGradient x2="0" xlink:href="#linearGradient3183-0" y1="19" y2="2.999" gradientUnits="userSpaceOnUse" id="linearGradient3812" gradientTransform="matrix(3 0 0 3 -75 15)"/>
  <linearGradient x2="0" xlink:href="#linearGradient3183-0" y1="19" y2="2.999" gradientUnits="userSpaceOnUse" id="linearGradient3900" gradientTransform="matrix(3.25 0 0 3.25 12.25 12.25)"/>
  <linearGradient x2="0" xlink:href="#linearGradient3183-0" y1="19" y2="2.999" gradientUnits="userSpaceOnUse" id="linearGradient3944" gradientTransform="matrix(3.125 0 0 3.125 13.625 93.63)"/>
  <rect x="6" rx="6" y="6" fill="#000000" fill-opacity="1" stroke="none" fill-rule="nonzero" height="84" id="SVGCleanerId_0" opacity="0.6" width="84"/>
 </defs>
 <path d="M 12,3.96875 C 6.4889098,3.96875 1.96875,8.4889098 1.96875,14 l 0,71 c 0,5.51109 4.5201597,10.03125 10.03125,10.03125 l 72,0 c 5.51109,0 10.03125,-4.52016 10.03125,-10.03125 l 0,-71 C 94.03125,8.4889097 89.51109,3.96875 84,3.96875 l -72,0 z M 12,6 84,6 c 3.324,0 6,2.676 6,6 l 0,72 c 0,3.324 -2.676,6 -6,6 L 12,90 C 8.676,90 6,87.324 6,84 L 6,12 C 6,8.676 8.676,6 12,6 z" display="inline" fill="url(#linearGradient3780)" fill-opacity="1" fill-rule="nonzero" stroke="none" opacity="0.08" inkscape:connector-curvature="0"/>
 <path d="M 12,4.96875 C 7.0283671,4.96875 2.96875,9.0283671 2.96875,14 l 0,71 c 0,4.971633 4.059617,9.03125 9.03125,9.03125 l 72,0 c 4.971633,0 9.03125,-4.059617 9.03125,-9.03125 l 0,-71 C 93.03125,9.028367 88.971633,4.96875 84,4.96875 l -72,0 z M 12,6 84,6 c 3.324,0 6,2.676 6,6 l 0,72 c 0,3.324 -2.676,6 -6,6 L 12,90 C 8.676,90 6,87.324 6,84 L 6,12 C 6,8.676 8.676,6 12,6 z" display="inline" fill="url(#linearGradient3780)" fill-opacity="1" fill-rule="nonzero" stroke="none" opacity="0.1" inkscape:connector-curvature="0"/>
 <path d="M 11.1875,6.03125 C 7.159982,6.4419011 4,9.8664375 4,14 l 0,71 c 0,4.409133 3.590867,8 8,8 l 72,0 c 4.409133,0 8,-3.590867 8,-8 L 92,14 C 92,9.8029382 88.741028,6.3539584 84.625,6.03125 87.657886,6.337417 90,8.88375 90,12 l 0,72 c 0,3.324 -2.676,6 -6,6 L 12,90 C 8.676,90 6,87.324 6,84 L 6,12 c 0,-3.11625 2.342114,-5.662583 5.375,-5.96875 -0.06227,0.00488 -0.12563,-0.00631 -0.1875,0 z" display="inline" fill="url(#linearGradient3780)" fill-opacity="1" fill-rule="nonzero" stroke="none" opacity="0.2" inkscape:connector-curvature="0"/>
 <path d="M 6.4375,9.75 C 5.5380109,10.927446 5,12.397277 5,14 l 0,71 c 0,3.878 3.122,7 7,7 l 72,0 c 3.878,0 7,-3.122 7,-7 L 91,14 C 91,12.397277 90.461989,10.927446 89.5625,9.75 89.841816,10.444095 90,11.203625 90,12 l 0,72 c 0,3.324 -2.676,6 -6,6 L 12,90 C 8.676,90 6,87.324 6,84 L 6,12 C 6,11.203625 6.1581836,10.444095 6.4375,9.75 z" display="inline" fill="url(#linearGradient3780)" fill-opacity="1" fill-rule="nonzero" stroke="none" opacity="0.3" inkscape:connector-curvature="0"/>
 <path d="m 6,84 0,1 c 0,3.324 2.676,6 6,6 l 72,0 c 3.324,0 6,-2.676 6,-6 l 0,-1 c 0,3.324 -2.676,6 -6,6 L 12,90 C 8.676,90 6,87.324 6,84 z" display="inline" fill="url(#linearGradient3721)" fill-opacity="1" fill-rule="nonzero" stroke="none" opacity="0.45" inkscape:connector-curvature="0"/>
 <g display="inline">
  <use xlink:href="#SVGCleanerId_0"/>
  <path d="M 12,90 C 8.676,90 6,87.324 6,84 L 6,82 6,14 6,12 c 0,-0.334721 0.04135,-0.6507 0.09375,-0.96875 0.0487,-0.295596 0.09704,-0.596915 0.1875,-0.875 C 6.29113,10.12587 6.302142,10.09265 6.3125,10.0625 6.411365,9.774729 6.5473802,9.515048 6.6875,9.25 6.8320918,8.976493 7.0031161,8.714385 7.1875,8.46875 7.3718839,8.223115 7.5612765,7.995278 7.78125,7.78125 8.221197,7.353194 8.72416,6.966724 9.28125,6.6875 9.559795,6.547888 9.8547231,6.440553 10.15625,6.34375 9.9000482,6.443972 9.6695391,6.580022 9.4375,6.71875 c -0.00741,0.0044 -0.023866,-0.0045 -0.03125,0 -0.031933,0.0193 -0.062293,0.04251 -0.09375,0.0625 -0.120395,0.0767 -0.2310226,0.163513 -0.34375,0.25 -0.1061728,0.0808 -0.2132809,0.161112 -0.3125,0.25 C 8.4783201,7.442683 8.3087904,7.626638 8.15625,7.8125 8.0486711,7.942755 7.9378561,8.077785 7.84375,8.21875 7.818661,8.25713 7.805304,8.30462 7.78125,8.34375 7.716487,8.446782 7.6510225,8.548267 7.59375,8.65625 7.4927417,8.850956 7.3880752,9.071951 7.3125,9.28125 7.30454,9.30306 7.288911,9.3218 7.28125,9.34375 7.2494249,9.4357 7.2454455,9.530581 7.21875,9.625 7.1884177,9.731618 7.1483606,9.828031 7.125,9.9375 7.0521214,10.279012 7,10.635705 7,11 l 0,2 0,68 0,2 c 0,2.781848 2.2181517,5 5,5 l 2,0 68,0 2,0 c 2.781848,0 5,-2.218152 5,-5 l 0,-2 0,-68 0,-2 C 89,10.635705 88.94788,10.279012 88.875,9.9375 88.83085,9.730607 88.78662,9.539842 88.71875,9.34375 88.71105,9.3218 88.69545,9.30306 88.6875,9.28125 88.62476,9.107511 88.549117,8.913801 88.46875,8.75 88.42717,8.6672 88.38971,8.580046 88.34375,8.5 88.28915,8.40279 88.216976,8.31165 88.15625,8.21875 88.06214,8.077785 87.951329,7.942755 87.84375,7.8125 87.700576,7.63805 87.540609,7.465502 87.375,7.3125 87.36383,7.3023 87.35502,7.29135 87.34375,7.28125 87.205364,7.155694 87.058659,7.046814 86.90625,6.9375 86.803679,6.86435 86.701932,6.784136 86.59375,6.71875 c -0.0074,-0.0045 -0.02384,0.0044 -0.03125,0 -0.232039,-0.138728 -0.462548,-0.274778 -0.71875,-0.375 0.301527,0.0968 0.596455,0.204138 0.875,0.34375 0.55709,0.279224 1.060053,0.665694 1.5,1.09375 0.219973,0.214028 0.409366,0.441865 0.59375,0.6875 0.184384,0.245635 0.355408,0.507743 0.5,0.78125 0.14012,0.265048 0.276135,0.524729 0.375,0.8125 0.01041,0.03078 0.02133,0.06274 0.03125,0.09375 0.09046,0.278085 0.1388,0.579404 0.1875,0.875 C 89.95865,11.3493 90,11.665279 90,12 l 0,2 0,68 0,2 c 0,3.324 -2.676,6 -6,6 l -72,0 z" fill="url(#radialGradient3619-3)" fill-opacity="1" fill-rule="nonzero" stroke="none" opacity="0.15" inkscape:connector-curvature="0"/>
 </g>
 <g display="inline">
  <path d="M 48,20.875 C 32.496797,20.875 19.875,33.496798 19.875,49 19.875,64.503202 32.496797,77.125 48,77.125 63.503201,77.125 76.125003,64.503212 76.125,49 76.125,33.496797 63.503203,20.875 48,20.875 z M 39.25,35.75 46.5,43 c 0.02491,0.02295 0.125544,0.156705 0.125,0.15625 -6.05e-4,-5.05e-4 0.188152,0.125443 0.1875,0.125 -6.52e-4,-4.43e-4 0.188193,0.09413 0.1875,0.09375 -6.93e-4,-3.76e-4 0.188227,0.09405 0.1875,0.09375 -7.27e-4,-3.05e-4 0.188253,0.06273 0.1875,0.0625 -7.53e-4,-2.32e-4 0.219523,0.06266 0.21875,0.0625 -7.73e-4,-1.56e-4 0.188284,0.03133 0.1875,0.03125 -7.84e-4,-7.8e-5 0.219538,0 0.21875,0 -7.88e-4,0 0.219534,-7.8e-5 0.21875,0 -7.84e-4,7.8e-5 0.188273,-0.03141 0.1875,-0.03125 -7.73e-4,1.56e-4 0.219503,-0.06273 0.21875,-0.0625 -7.53e-4,2.32e-4 0.188227,-0.0628 0.1875,-0.0625 -7.27e-4,3.05e-4 0.188193,-0.09413 0.1875,-0.09375 -6.93e-4,3.76e-4 0.188152,-0.09419 0.1875,-0.09375 -6.52e-4,4.43e-4 0.188105,-0.125505 0.1875,-0.125 C 49.374456,43.156705 49.475092,43.022953 49.5,43 l 0.03125,0 7.1875,-7.25 4.53125,4.5 -7.25,7.21875 c 5.6e-5,-5.5e-5 0.0025,0.02848 0,0.03125 -0.02295,0.02491 -0.156705,0.125544 -0.15625,0.125 5.05e-4,-6.05e-4 -0.125443,0.188152 -0.125,0.1875 4.43e-4,-6.52e-4 -0.09413,0.188193 -0.09375,0.1875 3.76e-4,-6.93e-4 -0.09405,0.188227 -0.09375,0.1875 3.05e-4,-7.27e-4 -0.06273,0.188253 -0.0625,0.1875 2.32e-4,-7.53e-4 -0.06266,0.219523 -0.0625,0.21875 1.56e-4,-7.73e-4 -0.03133,0.188284 -0.03125,0.1875 7.8e-5,-7.84e-4 0,0.219538 0,0.21875 0,-7.88e-4 7.8e-5,0.219534 0,0.21875 -7.8e-5,-7.84e-4 0.03141,0.188273 0.03125,0.1875 -1.56e-4,-7.73e-4 0.06273,0.219503 0.0625,0.21875 -2.32e-4,-7.53e-4 0.0628,0.188227 0.0625,0.1875 -3.05e-4,-7.27e-4 0.09413,0.188193 0.09375,0.1875 -3.76e-4,-6.93e-4 0.09419,0.188152 0.09375,0.1875 -4.43e-4,-6.52e-4 0.125505,0.188105 0.125,0.1875 -4.55e-4,-5.44e-4 0.133297,0.100092 0.15625,0.125 0.0025,0.0028 5.6e-5,0.03131 0,0.03125 L 61.25,57.75 56.71875,62.25 49.53125,55 c 5.5e-5,5.6e-5 -0.02848,0.0025 -0.03125,0 -0.02491,-0.02295 -0.125544,-0.156705 -0.125,-0.15625 6.05e-4,5.05e-4 -0.188152,-0.125443 -0.1875,-0.125 6.52e-4,4.43e-4 -0.188193,-0.09413 -0.1875,-0.09375 6.93e-4,3.76e-4 -0.188227,-0.09405 -0.1875,-0.09375 7.27e-4,3.05e-4 -0.188253,-0.06273 -0.1875,-0.0625 7.53e-4,2.32e-4 -0.219523,-0.06266 -0.21875,-0.0625 7.73e-4,1.56e-4 -0.188284,-0.03133 -0.1875,-0.03125 7.84e-4,7.8e-5 -0.219538,0 -0.21875,0 7.88e-4,0 -0.219534,7.8e-5 -0.21875,0 7.84e-4,-7.8e-5 -0.188273,0.03141 -0.1875,0.03125 7.73e-4,-1.56e-4 -0.219503,0.06273 -0.21875,0.0625 7.53e-4,-2.32e-4 -0.188227,0.0628 -0.1875,0.0625 7.27e-4,-3.05e-4 -0.188193,0.09413 -0.1875,0.09375 6.93e-4,-3.76e-4 -0.188152,0.09419 -0.1875,0.09375 6.52e-4,-4.43e-4 -0.188105,0.125505 -0.1875,0.125 5.44e-4,-4.55e-4 -0.100092,0.133297 -0.125,0.15625 -0.0028,0.0025 -0.03131,5.6e-5 -0.03125,0 l -7.21875,7.25 -4.5,-4.5 7.21875,-7.21875 0,-0.03125 c 0.02295,-0.02491 0.156705,-0.125544 0.15625,-0.125 -5.05e-4,6.05e-4 0.125443,-0.188152 0.125,-0.1875 -4.43e-4,6.52e-4 0.09413,-0.188193 0.09375,-0.1875 -3.76e-4,6.93e-4 0.09405,-0.188227 0.09375,-0.1875 -3.05e-4,7.27e-4 0.06273,-0.188253 0.0625,-0.1875 -2.32e-4,7.53e-4 0.06266,-0.219523 0.0625,-0.21875 -1.56e-4,7.73e-4 0.03133,-0.188284 0.03125,-0.1875 -7.8e-5,7.84e-4 0,-0.219538 0,-0.21875 0,7.88e-4 -7.8e-5,-0.219534 0,-0.21875 7.8e-5,7.84e-4 -0.03141,-0.188273 -0.03125,-0.1875 1.56e-4,7.73e-4 -0.06273,-0.219503 -0.0625,-0.21875 2.32e-4,7.53e-4 -0.0628,-0.188227 -0.0625,-0.1875 3.05e-4,7.27e-4 -0.09413,-0.188193 -0.09375,-0.1875 3.76e-4,6.93e-4 -0.09419,-0.188152 -0.09375,-0.1875 4.43e-4,6.52e-4 -0.125505,-0.188105 -0.125,-0.1875 4.55e-4,5.44e-4 -0.133297,-0.100092 -0.15625,-0.125 L 34.75,40.25 l 4.5,-4.5 z" fill="#000000" fill-opacity="1" stroke="none" opacity="0.1"/>
  <path d="M 48,21.9375 C 33.079651,21.9375 20.9375,34.079652 20.9375,49 20.9375,63.920348 33.079651,76.0625 48,76.0625 62.920347,76.0625 75.062503,63.920358 75.0625,49 75.0625,34.079652 62.920348,21.9375 48,21.9375 z m -8.75,12.3125 8,8 a 1.0505333,1.0505333 0 0 0 1.5,0 l 7.96875,-8 6.03125,6 -8,8 a 1.0505333,1.0505333 0 0 0 0,1.5 l 8,8 -6.03125,6 -7.96875,-8 a 1.0505333,1.0505333 0 0 0 -1.5,0 l -8,8 -6,-6 7.96875,-8 a 1.0505333,1.0505333 0 0 0 0,-1.5 l -7.96875,-8 6,-6 z" fill="#000000" fill-opacity="1" stroke="none" opacity="0.15"/>
  <path d="M 48,23 C 33.647999,23 22,34.648 22,49 22,63.352 33.647999,75 48,75 62.352,75 74.000003,63.35201 74,49 74,34.648 62.352,23 48,23 z M 39.265624,32.75 48,41.484378 56.734374,32.75 64.25,40.265622 55.515624,49 64.25,57.734378 56.734374,65.25 48,56.515622 39.265624,65.25 31.75,57.734378 40.484374,49 31.75,40.265622 39.265624,32.75 z" fill="#000000" fill-opacity="1" stroke="none" opacity="0.3" inkscape:connector-curvature="0"/>
  <path d="M 48,22.75 C 33.520899,22.75 21.75,34.520897 21.75,49 21.75,63.479103 33.520899,75.25 48,75.25 62.4791,75.25 74.250003,63.479107 74.25,49 74.25,34.520897 62.4791,22.75 48,22.75 z m -8.0625,14.4375 6.46875,6.46875 c -0.0029,-0.0028 0.159406,0.158782 0.15625,0.15625 -0.0032,-0.0025 0.190886,0.127216 0.1875,0.125 -0.0034,-0.0022 0.191083,0.126879 0.1875,0.125 -0.0036,-0.0019 0.222498,0.09528 0.21875,0.09375 -0.0037,-0.0015 0.191378,0.06366 0.1875,0.0625 -0.0039,-0.0012 0.222721,0.06328 0.21875,0.0625 -0.004,-7.77e-4 0.222777,0.03164 0.21875,0.03125 -0.004,-3.9e-4 0.222796,0 0.21875,0 -0.004,0 0.222777,-3.9e-4 0.21875,0 -0.004,3.9e-4 0.222721,-0.03203 0.21875,-0.03125 -0.004,7.77e-4 0.222628,-0.06366 0.21875,-0.0625 -0.0039,0.0012 0.191248,-0.06403 0.1875,-0.0625 -0.0037,0.0015 0.222333,-0.09563 0.21875,-0.09375 -0.0036,0.0019 0.190886,-0.127216 0.1875,-0.125 -0.0034,0.0022 0.190656,-0.127532 0.1875,-0.125 -0.0032,0.0025 0.159147,-0.159075 0.15625,-0.15625 l 6.46875,-6.46875 3.75,3.75 -6.46875,6.46875 c 0.0028,-0.0029 -0.158782,0.159406 -0.15625,0.15625 0.0025,-0.0032 -0.127216,0.190886 -0.125,0.1875 0.0022,-0.0034 -0.126879,0.191083 -0.125,0.1875 0.0019,-0.0036 -0.09528,0.222498 -0.09375,0.21875 0.0015,-0.0037 -0.06366,0.191378 -0.0625,0.1875 0.0012,-0.0039 -0.06328,0.222721 -0.0625,0.21875 7.77e-4,-0.004 -0.03164,0.222777 -0.03125,0.21875 3.9e-4,-0.004 0,0.222796 0,0.21875 0,-0.004 3.9e-4,0.222777 0,0.21875 -3.9e-4,-0.004 0.03203,0.222721 0.03125,0.21875 -7.77e-4,-0.004 0.06366,0.222628 0.0625,0.21875 -0.0012,-0.0039 0.06403,0.191248 0.0625,0.1875 -0.0015,-0.0037 0.09563,0.222333 0.09375,0.21875 -0.0019,-0.0036 0.127216,0.190886 0.125,0.1875 -0.0022,-0.0034 0.127532,0.190656 0.125,0.1875 -0.0025,-0.0032 0.159075,0.159147 0.15625,0.15625 l 6.46875,6.46875 -3.75,3.75 -6.46875,-6.46875 c 0.0029,0.0028 -0.159406,-0.158782 -0.15625,-0.15625 0.0032,0.0025 -0.190886,-0.127216 -0.1875,-0.125 0.0034,0.0022 -0.191083,-0.126879 -0.1875,-0.125 0.0036,0.0019 -0.222498,-0.09528 -0.21875,-0.09375 0.0037,0.0015 -0.191378,-0.06366 -0.1875,-0.0625 0.0039,0.0012 -0.222721,-0.06328 -0.21875,-0.0625 0.004,7.77e-4 -0.222777,-0.03164 -0.21875,-0.03125 0.004,3.9e-4 -0.222796,0 -0.21875,0 0.004,0 -0.222777,3.9e-4 -0.21875,0 0.004,-3.9e-4 -0.222721,0.03203 -0.21875,0.03125 0.004,-7.77e-4 -0.222628,0.06366 -0.21875,0.0625 0.0039,-0.0012 -0.191248,0.06403 -0.1875,0.0625 0.0037,-0.0015 -0.222333,0.09563 -0.21875,0.09375 0.0036,-0.0019 -0.190886,0.127216 -0.1875,0.125 0.0034,-0.0022 -0.190656,0.127532 -0.1875,0.125 0.0032,-0.0025 -0.159147,0.159075 -0.15625,0.15625 l -6.46875,6.46875 -3.75,-3.75 6.46875,-6.46875 c -0.0028,0.0029 0.158782,-0.159406 0.15625,-0.15625 -0.0025,0.0032 0.127216,-0.190886 0.125,-0.1875 -0.0022,0.0034 0.126879,-0.191083 0.125,-0.1875 -0.0019,0.0036 0.09528,-0.222498 0.09375,-0.21875 -0.0015,0.0037 0.06366,-0.191378 0.0625,-0.1875 -0.0012,0.0039 0.06328,-0.222721 0.0625,-0.21875 -7.77e-4,0.004 0.03164,-0.222777 0.03125,-0.21875 -3.9e-4,0.004 0,-0.222796 0,-0.21875 0,0.004 -3.9e-4,-0.222777 0,-0.21875 3.9e-4,0.004 -0.03203,-0.222721 -0.03125,-0.21875 7.77e-4,0.004 -0.06366,-0.222628 -0.0625,-0.21875 0.0012,0.0039 -0.06403,-0.191248 -0.0625,-0.1875 0.0015,0.0037 -0.09563,-0.222333 -0.09375,-0.21875 0.0019,0.0036 -0.127216,-0.190886 -0.125,-0.1875 0.0022,0.0034 -0.127532,-0.190656 -0.125,-0.1875 0.0025,0.0032 -0.159075,-0.159147 -0.15625,-0.15625 l -6.46875,-6.46875 3.75,-3.75 z" fill="#000000" fill-opacity="1" stroke="none" opacity="0.1" transform="matrix(1 0 0 1 -90 0)"/>
  <path d="M 48,23.9375 C 34.170752,23.9375 22.9375,35.17075 22.9375,49 22.9375,62.82925 34.170752,74.0625 48,74.0625 61.829247,74.0625 73.062503,62.829254 73.0625,49 73.0625,35.17075 61.829247,23.9375 48,23.9375 z M 39.9375,35.5 47.25,42.8125 a 1.0743774,1.0743774 0 0 0 1.5,0 L 56.0625,35.5 61.5,40.9375 54.1875,48.25 a 1.0743774,1.0743774 0 0 0 0,1.5 L 61.5,57.0625 56.0625,62.5 48.75,55.1875 a 1.0743774,1.0743774 0 0 0 -1.5,0 L 39.9375,62.5 34.5,57.0625 41.8125,49.75 a 1.0743774,1.0743774 0 0 0 0,-1.5 L 34.5,40.9375 39.9375,35.5 z" fill="#000000" fill-opacity="1" stroke="none" opacity="0.15" transform="matrix(1 0 0 1 -90 0)"/>
  <path d="m -42,25 c -13.248001,0 -24,10.751997 -24,24 0,13.248003 10.751999,24 24,24 13.248,0 24.000003,-10.751994 24,-24 0,-13.248003 -10.752,-24 -24,-24 z M -50.0625,34 -42,42.0625 -33.9375,34 -27,40.9375 -35.0625,49 -27,57.0625 -33.9375,64 -42,55.9375 -50.0625,64 -57,57.0625 -48.9375,49 -57,40.9375 -50.0625,34 z" fill="#000000" fill-opacity="1" stroke="none" opacity="0.3" inkscape:connector-curvature="0"/>
  <text x="104" font-size="4" font-stretch="normal" font-style="normal" letter-spacing="0" font-variant="normal" y="48" font-weight="normal" text-anchor="start" line-height="125%" fill="#000000" fill-opacity="1" stroke="none" word-spacing="0" writing-mode="lr-tb" font-family="Liberation Sans"><tspan x="104" y="48">Shadow opacity : 30, 15, 10, (8)</tspan>
  </text>
  <text x="124" font-size="4" font-stretch="normal" font-style="normal" letter-spacing="0" font-variant="normal" y="32" font-weight="normal" text-anchor="start" line-height="125%" fill="#000000" fill-opacity="1" stroke="none" word-spacing="0" writing-mode="lr-tb" font-family="Liberation Sans"><tspan x="124" y="32">Bevel opacity : 30 / 10</tspan>
  </text>
  <text x="124" font-size="4" font-stretch="normal" font-style="normal" letter-spacing="0" font-variant="normal" y="8" font-weight="normal" text-anchor="start" line-height="125%" fill="#000000" fill-opacity="1" stroke="none" word-spacing="0" writing-mode="lr-tb" font-family="Liberation Sans"><tspan x="124" y="8">Bevel opacity : 75 / 15</tspan>
  </text>
  <path d="m -42,24 c -13.248001,0 -24,10.751997 -24,24 0,13.248003 10.751999,24 24,24 13.248,0 24.000003,-10.751994 24,-24 0,-13.248003 -10.752,-24 -24,-24 z M -50.0625,33 -42,41.0625 -33.9375,33 -27,39.9375 -35.0625,48 -27,56.0625 -33.9375,63 -42,54.9375 -50.0625,63 -57,56.0625 -48.9375,48 -57,39.9375 -50.0625,33 z" fill="url(#linearGradient3812)" fill-opacity="1" stroke="none" inkscape:connector-curvature="0"/>
  <path d="m -42,24 c -13.248001,0 -24,10.751997 -24,24 0,0.165497 -0.0033,0.335299 0,0.5 0.264004,-13.019652 10.917496,-23.5 24,-23.5 13.082503,0 23.735996,10.480348 24,23.5 0.0033,-0.164702 0,-0.334503 0,-0.5 0,-13.248003 -10.752,-24 -24,-24 z m -14.5,16.4375 -0.5,0.5 7.5625,7.5625 0.5,-0.5 -7.5625,-7.5625 z m 29,0 -7.5625,7.5625 0.5,0.5 7.5625,-7.5625 -0.5,-0.5 z M -42,54.9375 -50.0625,63 -56.5,56.5625 -57,57.0625 -50.0625,64 -42,55.9375 -33.9375,64 -27,57.0625 -27.5,56.5625 -33.9375,63 -42,54.9375 z" fill="#ffffff" fill-opacity="1" stroke="none" opacity="0.3" inkscape:connector-curvature="0"/>
  <path d="M -50.0625,32 -57,38.9375 l 0.5,0.5 L -50.0625,33 -42,41.0625 -33.9375,33 -27.5,39.4375 -27,38.9375 -33.9375,32 -42,40.0625 -50.0625,32 z M -66,47.5 c -0.0033,0.164701 0,0.334503 0,0.5 0,13.248003 10.751999,24 24,24 13.248,0 24.000003,-10.751994 24,-24 0,-0.165497 0.0033,-0.335299 0,-0.5 C -18.264001,60.519655 -28.917497,71 -42,71 -55.082504,71 -65.735996,60.519652 -66,47.5 z m 16.5625,0 -7.5625,7.5625 0.5,0.5 7.5625,-7.5625 -0.5,-0.5 z m 14.875,0 -0.5,0.5 7.5625,7.5625 0.5,-0.5 -7.5625,-7.5625 z" fill="#000000" fill-opacity="1" stroke="none" opacity="0.1" inkscape:connector-curvature="0"/>
  <path d="M 48,22 C 33.647999,22 22,33.648 22,48 22,62.352 33.647999,74 48,74 62.352,74 74.000003,62.35201 74,48 74,33.648 62.352,22 48,22 z M 39.265624,31.75 48,40.484378 56.734374,31.75 64.25,39.265622 55.515624,48 64.25,56.734378 56.734374,64.25 48,55.515622 39.265624,64.25 31.75,56.734378 40.484374,48 31.75,39.265622 39.265624,31.75 z" fill="url(#linearGradient3900)" fill-opacity="1" stroke="none" inkscape:connector-curvature="0"/>
  <path d="M 48,22 C 33.128113,22 21,34.128111 21,49 21,63.871889 33.128113,76 48,76 62.871885,76 75.000003,63.871892 75,49 75,34.128111 62.871886,22 48,22 z m -8.40625,14.1875 7,7 c 0.0014,0.0014 0.06101,0.06112 0.0625,0.0625 0.0015,0.0014 0.06094,0.0612 0.0625,0.0625 0.0016,0.0013 0.09213,0.06128 0.09375,0.0625 0.0016,0.0012 0.06082,0.06136 0.0625,0.0625 0.0017,0.0011 0.09202,0.06145 0.09375,0.0625 0.0017,0.0011 0.09197,0.03028 0.09375,0.03125 0.0018,9.67e-4 0.09192,0.06162 0.09375,0.0625 0.0018,8.77e-4 0.06063,0.03046 0.0625,0.03125 0.0019,7.85e-4 0.09184,0.03056 0.09375,0.03125 0.0019,6.92e-4 0.09181,0.03065 0.09375,0.03125 0.0019,5.96e-4 0.09178,0.03075 0.09375,0.03125 0.002,4.99e-4 0.09176,0.03085 0.09375,0.03125 0.002,4.01e-4 0.122994,-3.01e-4 0.125,0 0.002,3.01e-4 0.09173,-2.01e-4 0.09375,0 0.002,2.01e-4 0.09172,0.03115 0.09375,0.03125 0.002,1.01e-4 0.09172,0 0.09375,0 0.002,0 0.09172,1.01e-4 0.09375,0 0.002,-1.01e-4 0.09173,-0.03105 0.09375,-0.03125 0.002,-2.01e-4 0.09174,3.01e-4 0.09375,0 0.002,-3.01e-4 0.123011,4.01e-4 0.125,0 0.002,-4.01e-4 0.09178,-0.03075 0.09375,-0.03125 0.002,-4.99e-4 0.09181,-0.03065 0.09375,-0.03125 0.0019,-5.96e-4 0.09184,-0.03056 0.09375,-0.03125 0.0019,-6.92e-4 0.09188,-0.03046 0.09375,-0.03125 0.0019,-7.85e-4 0.06067,-0.03037 0.0625,-0.03125 0.0018,-8.77e-4 0.09197,-0.06153 0.09375,-0.0625 0.0018,-9.67e-4 0.09202,-0.0302 0.09375,-0.03125 0.0017,-0.0011 0.09207,-0.06136 0.09375,-0.0625 0.0017,-0.0011 0.06088,-0.06128 0.0625,-0.0625 0.0016,-0.0012 0.09219,-0.0612 0.09375,-0.0625 0.0016,-0.0013 0.06101,-0.06112 0.0625,-0.0625 0.0015,-0.0014 0.06108,-0.06105 0.0625,-0.0625 l 7,-7 4.40625,4.40625 -7,7 c -0.0014,0.0014 -0.06112,0.06101 -0.0625,0.0625 -0.0014,0.0015 -0.0612,0.06094 -0.0625,0.0625 -0.0013,0.0016 -0.06128,0.09213 -0.0625,0.09375 -0.0012,0.0016 -0.06136,0.06082 -0.0625,0.0625 -0.0011,0.0017 -0.06145,0.09202 -0.0625,0.09375 -0.0011,0.0017 -0.03028,0.09197 -0.03125,0.09375 -9.67e-4,0.0018 -0.06162,0.09192 -0.0625,0.09375 -8.77e-4,0.0018 -0.03046,0.06063 -0.03125,0.0625 -7.85e-4,0.0019 -0.03056,0.09184 -0.03125,0.09375 -6.92e-4,0.0019 -0.03065,0.09181 -0.03125,0.09375 -5.96e-4,0.0019 -0.03075,0.09178 -0.03125,0.09375 -4.99e-4,0.002 -0.03085,0.09176 -0.03125,0.09375 -4.01e-4,0.002 3.01e-4,0.122994 0,0.125 -3.01e-4,0.002 2.01e-4,0.09173 0,0.09375 -2.01e-4,0.002 -0.03115,0.09172 -0.03125,0.09375 -1.01e-4,0.002 0,0.09172 0,0.09375 0,0.002 -1.01e-4,0.09172 0,0.09375 1.01e-4,0.002 0.03105,0.09173 0.03125,0.09375 2.01e-4,0.002 -3.01e-4,0.09174 0,0.09375 3.01e-4,0.002 -4.01e-4,0.123011 0,0.125 4.01e-4,0.002 0.03075,0.09178 0.03125,0.09375 4.99e-4,0.002 0.03065,0.09181 0.03125,0.09375 5.96e-4,0.0019 0.03056,0.09184 0.03125,0.09375 6.92e-4,0.0019 0.03046,0.09188 0.03125,0.09375 7.85e-4,0.0019 0.03037,0.06067 0.03125,0.0625 8.77e-4,0.0018 0.06153,0.09197 0.0625,0.09375 9.67e-4,0.0018 0.0302,0.09202 0.03125,0.09375 0.0011,0.0017 0.06136,0.09207 0.0625,0.09375 0.0011,0.0017 0.06128,0.06088 0.0625,0.0625 0.0012,0.0016 0.0612,0.09219 0.0625,0.09375 0.0013,0.0016 0.06112,0.06101 0.0625,0.0625 0.0014,0.0015 0.06105,0.06108 0.0625,0.0625 l 7,7 -4.40625,4.40625 -7,-7 c -0.0014,-0.0014 -0.06101,-0.06112 -0.0625,-0.0625 -0.0015,-0.0014 -0.06094,-0.0612 -0.0625,-0.0625 -0.0016,-0.0013 -0.09213,-0.06128 -0.09375,-0.0625 -0.0016,-0.0012 -0.06082,-0.06136 -0.0625,-0.0625 -0.0017,-0.0011 -0.09202,-0.06145 -0.09375,-0.0625 -0.0017,-0.0011 -0.09197,-0.03028 -0.09375,-0.03125 -0.0018,-9.67e-4 -0.09192,-0.06162 -0.09375,-0.0625 -0.0018,-8.77e-4 -0.06063,-0.03046 -0.0625,-0.03125 -0.0019,-7.85e-4 -0.09184,-0.03056 -0.09375,-0.03125 -0.0019,-6.92e-4 -0.09181,-0.03065 -0.09375,-0.03125 -0.0019,-5.96e-4 -0.09178,-0.03075 -0.09375,-0.03125 -0.002,-4.99e-4 -0.09176,-0.03085 -0.09375,-0.03125 -0.002,-4.01e-4 -0.122994,3.01e-4 -0.125,0 -0.002,-3.01e-4 -0.09173,2.01e-4 -0.09375,0 -0.002,-2.01e-4 -0.09172,-0.03115 -0.09375,-0.03125 -0.002,-1.01e-4 -0.09172,0 -0.09375,0 -0.002,0 -0.09172,-1.01e-4 -0.09375,0 -0.002,1.01e-4 -0.09173,0.03105 -0.09375,0.03125 -0.002,2.01e-4 -0.09174,-3.01e-4 -0.09375,0 -0.002,3.01e-4 -0.123011,-4.01e-4 -0.125,0 -0.002,4.01e-4 -0.09178,0.03075 -0.09375,0.03125 -0.002,4.99e-4 -0.09181,0.03065 -0.09375,0.03125 -0.0019,5.96e-4 -0.09184,0.03056 -0.09375,0.03125 -0.0019,6.92e-4 -0.09188,0.03046 -0.09375,0.03125 -0.0019,7.85e-4 -0.06067,0.03037 -0.0625,0.03125 -0.0018,8.77e-4 -0.09197,0.06153 -0.09375,0.0625 -0.0018,9.67e-4 -0.09202,0.0302 -0.09375,0.03125 -0.0017,0.0011 -0.09207,0.06136 -0.09375,0.0625 -0.0017,0.0011 -0.06088,0.06128 -0.0625,0.0625 -0.0016,0.0012 -0.09219,0.0612 -0.09375,0.0625 -0.0016,0.0013 -0.06101,0.06112 -0.0625,0.0625 -0.0015,0.0014 -0.06108,0.06105 -0.0625,0.0625 l -7,7 -4.40625,-4.40625 7,-7 c 0.0014,-0.0014 0.06112,-0.06101 0.0625,-0.0625 0.0014,-0.0015 0.0612,-0.06094 0.0625,-0.0625 0.0013,-0.0016 0.06128,-0.09213 0.0625,-0.09375 0.0012,-0.0016 0.06136,-0.06082 0.0625,-0.0625 0.0011,-0.0017 0.06145,-0.09202 0.0625,-0.09375 0.0011,-0.0017 0.03028,-0.09197 0.03125,-0.09375 9.67e-4,-0.0018 0.06162,-0.09192 0.0625,-0.09375 8.77e-4,-0.0018 0.03046,-0.06063 0.03125,-0.0625 7.85e-4,-0.0019 0.03056,-0.09184 0.03125,-0.09375 6.92e-4,-0.0019 0.03065,-0.09181 0.03125,-0.09375 5.96e-4,-0.0019 0.03075,-0.09178 0.03125,-0.09375 4.99e-4,-0.002 0.03085,-0.09176 0.03125,-0.09375 4.01e-4,-0.002 -3.01e-4,-0.122994 0,-0.125 3.01e-4,-0.002 -2.01e-4,-0.09173 0,-0.09375 2.01e-4,-0.002 0.03115,-0.09172 0.03125,-0.09375 1.01e-4,-0.002 0,-0.09172 0,-0.09375 0,-0.002 1.01e-4,-0.09172 0,-0.09375 -1.01e-4,-0.002 -0.03105,-0.09173 -0.03125,-0.09375 -2.01e-4,-0.002 3.01e-4,-0.09174 0,-0.09375 -3.01e-4,-0.002 4.01e-4,-0.123011 0,-0.125 -4.01e-4,-0.002 -0.03075,-0.09178 -0.03125,-0.09375 -4.99e-4,-0.002 -0.03065,-0.09181 -0.03125,-0.09375 -5.96e-4,-0.0019 -0.03056,-0.09184 -0.03125,-0.09375 -6.92e-4,-0.0019 -0.03046,-0.09188 -0.03125,-0.09375 -7.85e-4,-0.0019 -0.03037,-0.06067 -0.03125,-0.0625 -8.77e-4,-0.0018 -0.06153,-0.09197 -0.0625,-0.09375 -9.67e-4,-0.0018 -0.0302,-0.09202 -0.03125,-0.09375 -0.0011,-0.0017 -0.06136,-0.09207 -0.0625,-0.09375 -0.0011,-0.0017 -0.06128,-0.06088 -0.0625,-0.0625 -0.0012,-0.0016 -0.0612,-0.09219 -0.0625,-0.09375 -0.0013,-0.0016 -0.06112,-0.06101 -0.0625,-0.0625 -0.0014,-0.0015 -0.06105,-0.06108 -0.0625,-0.0625 l -7,-7 4.40625,-4.40625 z" fill="#000000" fill-opacity="1" stroke="none" opacity="0.1" transform="matrix(1 0 0 1 0 80)"/>
  <path d="M 48,22.9375 C 33.631662,22.9375 21.9375,34.63166 21.9375,49 21.9375,63.36834 33.631662,75.0625 48,75.0625 62.368336,75.0625 74.062503,63.368343 74.0625,49 74.0625,34.63166 62.368337,22.9375 48,22.9375 z M 39.59375,34.875 47.25,42.53125 a 1.0505132,1.0505132 0 0 0 1.5,0 L 56.40625,34.875 62.125,40.59375 54.46875,48.25 a 1.0505132,1.0505132 0 0 0 0,1.5 L 62.125,57.40625 56.40625,63.125 48.75,55.46875 a 1.0505132,1.0505132 0 0 0 -1.5,0 L 39.59375,63.125 33.875,57.40625 41.53125,49.75 a 1.0505132,1.0505132 0 0 0 0,-1.5 L 33.875,40.59375 39.59375,34.875 z" fill="#000000" fill-opacity="1" stroke="none" opacity="0.15" transform="matrix(1 0 0 1 0 80)"/>
  <path d="m 48,104 c -13.800001,0 -25,11.2 -25,25 0,13.8 11.199999,25 25,25 13.8,0 25.000003,-11.19999 25,-25 0,-13.8 -11.2,-25 -25,-25 z M 39.601562,113.375 48,121.77344 56.398437,113.375 63.625,120.60156 55.226562,129 63.625,137.39844 56.398437,144.625 48,136.22656 39.601562,144.625 32.375,137.39844 40.773437,129 32.375,120.60156 39.601562,113.375 z" fill="#000000" fill-opacity="1" stroke="none" opacity="0.3" inkscape:connector-curvature="0"/>
  <path d="m 48,103 c -13.800001,0 -25,11.2 -25,25 0,13.8 11.199999,25 25,25 13.8,0 25.000003,-11.19999 25,-25 0,-13.8 -11.2,-25 -25,-25 z M 39.601562,112.375 48,120.77344 56.398437,112.375 63.625,119.60156 55.226562,128 63.625,136.39844 56.398437,143.625 48,135.22656 39.601562,143.625 32.375,136.39844 40.773437,128 32.375,119.60156 39.601562,112.375 z" fill="url(#linearGradient3944)" fill-opacity="1" stroke="none" inkscape:connector-curvature="0"/>
  <path d="m 48,103 c -13.800001,0 -25,11.2 -25,25 0,0.16819 -0.0033,0.33259 0,0.5 0.268419,-13.56794 11.368192,-24.5 25,-24.5 13.631807,0 24.731581,10.93206 25,24.5 0.0033,-0.16741 0,-0.33181 0,-0.5 0,-13.8 -11.2,-25 -25,-25 z m -15.125,17.09375 -0.5,0.5 7.90625,7.90625 0.5,-0.5 -7.90625,-7.90625 z m 30.25,0 -7.90625,7.90625 0.5,0.5 7.90625,-7.90625 -0.5,-0.5 z M 48,135.21875 39.59375,143.625 32.875,136.90625 l -0.5,0.5 7.21875,7.21875 8.40625,-8.40625 8.40625,8.40625 7.21875,-7.21875 -0.5,-0.5 L 56.40625,143.625 48,135.21875 z" fill="#ffffff" fill-opacity="1" stroke="none" opacity="0.3" inkscape:connector-curvature="0"/>
  <path d="m 39.59375,111.375 -7.21875,7.21875 0.5,0.5 6.71875,-6.71875 8.40625,8.40625 8.40625,-8.40625 6.71875,6.71875 0.5,-0.5 L 56.40625,111.375 48,119.78125 39.59375,111.375 z M 23,127.5 c -0.0033,0.16741 0,0.33181 0,0.5 0,13.8 11.199999,25 25,25 13.8,0 25.000003,-11.19999 25,-25 0,-0.16819 0.0033,-0.33259 0,-0.5 C 72.731584,141.06795 61.631807,152 48,152 34.368192,152 23.268419,141.06794 23,127.5 z m 17.28125,0 -7.90625,7.90625 0.5,0.5 7.90625,-7.90625 -0.5,-0.5 z m 15.4375,0 -0.5,0.5 7.90625,7.90625 0.5,-0.5 L 55.71875,127.5 z" fill="#000000" fill-opacity="1" stroke="none" opacity="0.2" inkscape:connector-curvature="0"/>
  <path d="m 48,22 c -14.352001,0 -26,11.648 -26,26 0,0.166794 -0.0031,0.333951 0,0.5 C 22.266397,34.378107 33.814793,23 48,23 62.185206,23 73.733603,34.378107 74,48.5 74.003132,48.333951 74,48.166794 74,48 74,33.648 62.352,22 48,22 z m -15.75,17.75 -0.5,0.5 8.21875,8.25 0.5,-0.5 L 32.25,39.75 z m 31.5,0 -8.25,8.25 0.5,0.5 8.25,-8.25 -0.5,-0.5 z M 48,55.5 l -8.75,8.75 -7,-7 -0.5,0.5 7.5,7.5 8.75,-8.75 8.71875,8.75 7.53125,-7.5 -0.5,-0.5 -7.03125,7 L 48,55.5 z" fill="#ffffff" fill-opacity="1" stroke="none" opacity="0.3" inkscape:connector-curvature="0"/>
  <path d="m 39.25,30.75 -7.5,7.5 0.5,0.5 7,-7 8.75,8.75 8.71875,-8.75 7.03125,7 0.5,-0.5 -7.53125,-7.5 L 48,39.5 39.25,30.75 z M 22,47.5 c -0.0031,0.166049 0,0.333206 0,0.5 0,14.352 11.647999,26 26,26 14.352,0 26.000003,-11.64799 26,-26 0,-0.166794 0.0031,-0.333951 0,-0.5 C 73.733606,61.621903 62.185206,73 48,73 33.814793,73 22.266397,61.621893 22,47.5 z m 17.96875,0 -8.21875,8.25 0.5,0.5 8.21875,-8.25 -0.5,-0.5 z M 56,47.5 55.5,48 l 8.25,8.25 0.5,-0.5 L 56,47.5 z" fill="#000000" fill-opacity="1" stroke="none" opacity="0.1" inkscape:connector-curvature="0"/>
 </g>
</svg>
