<?xml version="1.0" encoding="UTF-8" standalone="no"?>
<svg
   xmlns:dc="http://purl.org/dc/elements/1.1/"
   xmlns:cc="http://creativecommons.org/ns#"
   xmlns:rdf="http://www.w3.org/1999/02/22-rdf-syntax-ns#"
   xmlns:svg="http://www.w3.org/2000/svg"
   xmlns="http://www.w3.org/2000/svg"
   xmlns:xlink="http://www.w3.org/1999/xlink"
   xmlns:sodipodi="http://sodipodi.sourceforge.net/DTD/sodipodi-0.dtd"
   xmlns:inkscape="http://www.inkscape.org/namespaces/inkscape"
   height="96"
   width="96"
   id="svg2"
   version="1.1"
   inkscape:version="0.91 r13725"
   sodipodi:docname="gtk-edit.svg">
  <metadata
     id="metadata68">
    <rdf:RDF>
      <cc:Work
         rdf:about="">
        <dc:format>image/svg+xml</dc:format>
        <dc:type
           rdf:resource="http://purl.org/dc/dcmitype/StillImage" />
      </cc:Work>
    </rdf:RDF>
  </metadata>
  <sodipodi:namedview
     pagecolor="#ffffff"
     bordercolor="#666666"
     borderopacity="1"
     objecttolerance="10"
     gridtolerance="10"
     guidetolerance="10"
     inkscape:pageopacity="0"
     inkscape:pageshadow="2"
     inkscape:window-width="640"
     inkscape:window-height="480"
     id="namedview66"
     showgrid="false"
     inkscape:zoom="2.4583333"
     inkscape:cx="22.98305"
     inkscape:cy="47.999999"
     inkscape:window-x="708"
     inkscape:window-y="91"
     inkscape:window-maximized="0"
     inkscape:current-layer="svg2" />
  <defs
     id="defs4">
    <linearGradient
       x2="0"
       y1="92.54"
       y2="7.02"
       gradientUnits="userSpaceOnUse"
       id="ButtonShadow-0"
       gradientTransform="matrix(1.0059 0 0 0.99417 100 0)">
      <stop
         stop-color="#000000"
         stop-opacity="1"
         id="stop7" />
      <stop
         stop-color="#000000"
         stop-opacity="0.588"
         offset="1"
         id="stop9" />
    </linearGradient>
    <linearGradient
       x2="0"
       xlink:href="#ButtonShadow-0"
       y1="6.132"
       y2="90.24"
       gradientUnits="userSpaceOnUse"
       id="linearGradient3780"
       gradientTransform="matrix(1.02381 0 0 -1.0119 -1.143 98.07)" />
    <linearGradient
       x2="0"
       xlink:href="#ButtonShadow-0"
       y1="6.132"
       y2="90.24"
       gradientUnits="userSpaceOnUse"
       id="linearGradient3721"
       gradientTransform="matrix(1 0 0 -1 0 97)" />
    <radialGradient
       cy="90.17"
       r="42"
       gradientUnits="userSpaceOnUse"
       id="radialGradient3619-3"
       cx="48"
       gradientTransform="matrix(1.15731 0 0 0.99591 -7.551 0.197)">
      <stop
         stop-color="#ffffff"
         stop-opacity="1"
         id="stop14" />
      <stop
         stop-color="#ffffff"
         stop-opacity="0"
         offset="1"
         id="stop16" />
    </radialGradient>
    <linearGradient
       x2="0"
       y1="1.996"
       y2="18.974"
       gradientUnits="userSpaceOnUse"
       id="linearGradient3900"
       gradientTransform="matrix(2.99536,0,0,2.99536,14.862,18.17)">
      <stop
         stop-color="#1a1a1a"
         stop-opacity="1"
         id="stop19" />
      <stop
         stop-color="#4d4d4d"
         stop-opacity="1"
         offset="1"
         id="stop21" />
    </linearGradient>
    <rect
       x="6"
       rx="6"
       y="6"
       fill="#000000"
       fill-opacity="1"
       stroke="none"
       fill-rule="nonzero"
       height="84"
       id="SVGCleanerId_0"
       opacity="0.6"
       width="84" />
  </defs>
  <g
     id="g3369"
     transform="matrix(1.4824918,0,0,1.4824918,-23.121691,-26.606919)">
    <path
       d="m 33,23.34375 c -1.294123,0.141402 -2.421421,0.689269 -3.225331,1.725331 -2.266777,2.307736 -4.63451,4.552114 -6.837169,6.899669 -0.697835,1.388686 -0.70765,3.173211 0.28125,4.40625 10.805102,10.773922 21.586039,21.606509 32.40625,32.34375 3.459453,1.585315 7.08646,2.865693 10.611357,4.332043 1.921068,0.669728 3.755578,1.70367 5.732393,2.136707 1.723201,0.08286 2.787091,-2.002558 1.895019,-3.418702 C 71.846848,66.789325 69.911388,61.762395 67.84375,56.8125 64.461041,53.211715 60.835173,49.772167 57.358525,46.233525 49.90085,38.796673 42.481865,31.315211 35,23.90625 34.349559,23.680026 33.687867,23.433357 33,23.34375 Z m 29.9375,39.75 c 0.390877,0.844161 1.179819,2.083426 -0.24045,1.12992 -1.270595,-0.348287 6.61e-4,-0.404762 0.24045,-1.12992 z M 27,66.78125 c -3.779852,-0.156807 -6.55751,4.442514 -4.584307,7.696264 1.600173,3.304704 6.699502,3.674111 8.713214,0.597256 0.84457,-0.898947 2.286758,2.501384 4.156509,2.092581 2.212706,0.754241 4.427257,-1.765052 5.391539,-2.373965 1.7856,3.133112 6.765018,3.204537 8.644532,0.114498 2.276118,-3.041484 -0.02622,-7.867399 -3.791639,-8.09944 -2.159657,-0.660719 -4.265684,1.850017 -5.206803,2.39817 -1.668872,-2.919056 -6.211131,-3.253121 -8.241334,-0.54981 -0.964815,1.761218 -2.335398,-2.356515 -4.367128,-1.824153 L 27.360967,66.79426 27,66.78125 Z"
       inkscape:connector-curvature="0"
       id="path42"
       style="opacity:0.1;fill:black;fill-opacity:1;stroke:none" />
    <path
       d="m 33,24.53125 c -0.421983,0 -0.854849,0.11586 -1.25,0.34375 0.114881,-0.06626 0.05488,-0.05384 -0.125,0.0625 a 1.0183487,1.0183487 0 0 0 -0.15625,0.125 l -7.40625,7.40625 a 1.0183487,1.0183487 0 0 0 -0.125,0.15625 c -0.116343,0.179878 -0.128757,0.239881 -0.0625,0.125 -0.227883,0.395145 -0.34375,0.828012 -0.34375,1.25 0,0.421983 0.11586,0.854849 0.34375,1.25 -0.06626,-0.114881 -0.05384,-0.05488 0.0625,0.125 a 1.0183487,1.0183487 0 0 0 0.125,0.15625 l 32.21875,32.1875 A 1.0183487,1.0183487 0 0 0 56.625,67.9375 l 15,6 a 1.0183487,1.0183487 0 0 0 1.3125,-1.3125 l -6,-15 A 1.0183487,1.0183487 0 0 0 66.71875,57.28125 L 34.53125,25.0625 a 1.0183487,1.0183487 0 0 0 -0.25,-0.1875 l -0.03125,0 c -0.0092,-0.0053 -0.02202,0.0052 -0.03125,0 C 33.830716,24.658392 33.41218,24.53125 33,24.53125 Z m 29.09375,35.78125 1.125,0.46875 L 66,67 l -6.1875,-2.75 -0.40625,-1.21875 1.59375,0 a 1.0183487,1.0183487 0 0 0 1.03125,-1 l 0.0625,-1.71875 z M 27,67.96875 c -2.206937,0 -4.03125,1.824316 -4.03125,4.03125 0,2.206936 1.824312,4.031254 4.03125,4.03125 2.206934,0 4.031251,-1.824312 4.03125,-4.03125 0,-2.206935 -1.824316,-4.031246 -4.03125,-4.03125 z m 9,0 c -2.206937,0 -4.03125,1.824316 -4.03125,4.03125 0,2.206936 1.824312,4.031254 4.03125,4.03125 2.206934,0 4.03125,-1.824312 4.03125,-4.03125 0,-2.206936 -1.824317,-4.031246 -4.03125,-4.03125 z m 9,0 c -2.206937,0 -4.03125,1.824316 -4.03125,4.03125 0,2.206936 1.824312,4.031254 4.03125,4.03125 2.206934,0 4.03125,-1.824312 4.03125,-4.03125 0,-2.206936 -1.824317,-4.031246 -4.03125,-4.03125 z"
       id="path44"
       inkscape:connector-curvature="0"
       style="opacity:0.15;fill:black;fill-opacity:1;stroke:none" />
    <path
       d="m 33,25.5625 c -0.273736,0 -0.528539,0.05978 -0.75,0.1875 -0.02013,0.01161 -0.04305,0.01867 -0.0625,0.03125 l -7.40625,7.40625 c -0.01258,0.01945 -0.01964,0.04237 -0.03125,0.0625 -0.127718,0.221461 -0.1875,0.476264 -0.1875,0.75 0,0.273736 0.05978,0.528539 0.1875,0.75 0.01161,0.02013 0.01867,0.04305 0.03125,0.0625 L 57,67 72,73 66,58 33.8125,25.78125 33.75,25.75 C 33.528539,25.622282 33.273736,25.5625 33,25.5625 Z M 61.125,58.8125 64,60 l 4,9 -9,-4 -1,-3 3,0 0.125,-3.1875 z M 27,69 c -1.656,0 -3,1.344003 -3,3 0,1.656 1.344,3.000003 3,3 1.656,0 3.000001,-1.343997 3,-3 0,-1.656 -1.343999,-2.999997 -3,-3 z m 9,0 c -1.656,0 -3,1.344003 -3,3 0,1.656 1.344,3.000003 3,3 1.656,0 3,-1.343997 3,-3 0,-1.656 -1.344,-2.999997 -3,-3 z m 9,0 c -1.656,0 -3,1.344003 -3,3 0,1.656 1.344,3.000003 3,3 1.656,0 3,-1.343997 3,-3 0,-1.656 -1.344,-2.999997 -3,-3 z"
       inkscape:connector-curvature="0"
       id="path46"
       style="opacity:0.3;fill:black;fill-opacity:1;stroke:none" />
    <path
       d="m 33,24.5625 c -0.273736,0 -0.528539,0.05978 -0.75,0.1875 -0.02013,0.01161 -0.04305,0.01867 -0.0625,0.03125 l -7.40625,7.40625 c -0.01258,0.01945 -0.01964,0.04237 -0.03125,0.0625 -0.127718,0.221461 -0.1875,0.476264 -0.1875,0.75 0,0.273736 0.05978,0.528539 0.1875,0.75 0.01161,0.02013 0.01867,0.04305 0.03125,0.0625 L 57,66 72,72 66,57 33.8125,24.78125 33.75,24.75 C 33.528539,24.622282 33.273736,24.5625 33,24.5625 Z M 61.125,57.8125 64,59 l 4,9 -9,-4 -1,-3 3,0 0.125,-3.1875 z M 27,68 c -1.656,0 -3,1.344003 -3,3 0,1.656 1.344,3.000003 3,3 1.656,0 3.000001,-1.343997 3,-3 0,-1.656 -1.343999,-2.999997 -3,-3 z m 9,0 c -1.656,0 -3,1.344003 -3,3 0,1.656 1.344,3.000003 3,3 1.656,0 3,-1.343997 3,-3 0,-1.656 -1.344,-2.999997 -3,-3 z m 9,0 c -1.656,0 -3,1.344003 -3,3 0,1.656 1.344,3.000003 3,3 1.656,0 3,-1.343997 3,-3 0,-1.656 -1.344,-2.999997 -3,-3 z"
       inkscape:connector-curvature="0"
       id="path60"
       style="fill:url(#linearGradient3900);fill-opacity:1;stroke:none" />
    <path
       d="m 33,24.5625 c -0.273736,0 -0.528539,0.05978 -0.75,0.1875 -0.02013,0.01161 -0.04305,0.01867 -0.0625,0.03125 l -7.40625,7.40625 c -0.01258,0.01945 -0.01964,0.04237 -0.03125,0.0625 -0.127718,0.221461 -0.1875,0.476264 -0.1875,0.75 0,0.172491 0.01298,0.34615 0.0625,0.5 0.02906,-0.0903 0.07776,-0.16809 0.125,-0.25 0.01161,-0.02013 0.01867,-0.04305 0.03125,-0.0625 l 7.40625,-7.40625 c 0.01945,-0.01258 0.04237,-0.01964 0.0625,-0.03125 0.221461,-0.12772 0.476264,-0.1875 0.75,-0.1875 0.273736,0 0.528539,0.05978 0.75,0.1875 L 33.8125,25.78125 66,58 71.53125,71.8125 72,72 66,57 33.8125,24.78125 33.75,24.75 C 33.528539,24.622282 33.273736,24.5625 33,24.5625 Z M 58,62 59,65 68,69 67.4375,67.75 59,64 58.34375,62 58,62 Z m -31,6 c -1.656,0 -3,1.344003 -3,3 0,0.174674 0.03381,0.33348 0.0625,0.5 C 24.305851,70.087823 25.518674,69 27,69 c 1.481327,3e-6 2.694149,1.087822 2.9375,2.5 C 29.966195,71.33348 30,71.174674 30,71 30,69.344 28.656001,68.000003 27,68 Z m 9,0 c -1.656,0 -3,1.344003 -3,3 0,0.174674 0.03381,0.33348 0.0625,0.5 C 33.305851,70.087823 34.518674,69 36,69 c 1.481326,3e-6 2.694149,1.087822 2.9375,2.5 C 38.966195,71.33348 39,71.174674 39,71 39,69.344 37.656,68.000003 36,68 Z m 9,0 c -1.656,0 -3,1.344003 -3,3 0,0.174674 0.03381,0.33348 0.0625,0.5 C 42.305851,70.087823 43.518674,69 45,69 c 1.481326,3e-6 2.694149,1.087822 2.9375,2.5 C 47.966195,71.33348 48,71.174674 48,71 48,69.344 46.656,68.000003 45,68 Z"
       inkscape:connector-curvature="0"
       id="path62"
       style="opacity:0.75;fill:white;fill-opacity:1;stroke:none" />
    <path
       d="m 24.625,32.5 c -0.04952,0.15385 -0.0625,0.327509 -0.0625,0.5 0,0.273736 0.05978,0.528539 0.1875,0.75 0.01161,0.02013 0.01867,0.04305 0.03125,0.0625 L 57,66 72,72 71.53125,70.8125 57,65 24.78125,32.8125 C 24.76867,32.79305 24.76161,32.77013 24.75,32.75 24.702761,32.66809 24.654064,32.590303 24.625,32.5 Z M 61.125,56.8125 61,60 58,60 58.34375,61 61,61 61.125,57.8125 64,59 67.4375,66.75 68,67 64,58 61.125,56.8125 Z M 24.0625,70.5 C 24.033805,70.66652 24,70.825326 24,71 c 0,1.656 1.344,3.000003 3,3 1.656,0 3.000001,-1.343997 3,-3 0,-0.174674 -0.03381,-0.33348 -0.0625,-0.5 C 29.694149,71.91218 28.481326,73 27,73 c -1.481326,3e-6 -2.694149,-1.087821 -2.9375,-2.5 z m 9,0 C 33.033805,70.66652 33,70.825326 33,71 c 0,1.656 1.344,3.000003 3,3 1.656,0 3,-1.343997 3,-3 0,-0.174674 -0.03381,-0.33348 -0.0625,-0.5 C 38.694149,71.91218 37.481326,73 36,73 c -1.481326,3e-6 -2.694149,-1.087821 -2.9375,-2.5 z m 9,0 C 42.033805,70.66652 42,70.825326 42,71 c 0,1.656 1.344,3.000003 3,3 1.656,0 3,-1.343997 3,-3 0,-0.174674 -0.03381,-0.33348 -0.0625,-0.5 C 47.694149,71.91218 46.481326,73 45,73 c -1.481326,3e-6 -2.694149,-1.087821 -2.9375,-2.5 z"
       inkscape:connector-curvature="0"
       id="path64"
       style="opacity:0.15;fill:black;fill-opacity:1;stroke:none" />
  </g>
</svg>
