<svg height="96" width="96" xmlns="http://www.w3.org/2000/svg" xmlns:xlink="http://www.w3.org/1999/xlink" xmlns:sodipodi="http://sodipodi.sourceforge.net/DTD/sodipodi-0.dtd" xmlns:inkscape="http://www.inkscape.org/namespaces/inkscape">
 <defs>
  <linearGradient x2="0" y1="92.54" y2="7.02" gradientUnits="userSpaceOnUse" id="ButtonShadow-0" gradientTransform="matrix(1.0059 0 0 0.99417 100 0)">
   <stop stop-color="#000000" stop-opacity="1"/>
   <stop stop-color="#000000" stop-opacity="0.588" offset="1"/>
  </linearGradient>
  <linearGradient x2="0" xlink:href="#ButtonShadow-0" y1="6.132" y2="90.24" gradientUnits="userSpaceOnUse" id="linearGradient3780" gradientTransform="matrix(1.02381 0 0 -1.0119 -1.143 98.07)"/>
  <linearGradient x2="0" xlink:href="#ButtonShadow-0" y1="6.132" y2="90.24" gradientUnits="userSpaceOnUse" id="linearGradient3721" gradientTransform="matrix(1 0 0 -1 0 97)"/>
  <radialGradient cy="90.17" r="42" gradientUnits="userSpaceOnUse" id="radialGradient3619-3" cx="48" gradientTransform="matrix(1.15731 0 0 0.99591 -7.551 0.197)">
   <stop stop-color="#ffffff" stop-opacity="1"/>
   <stop stop-color="#ffffff" stop-opacity="0" offset="1"/>
  </radialGradient>
  <linearGradient x2="0" y1="1.996" y2="18.974" gradientUnits="userSpaceOnUse" id="linearGradient3900" gradientTransform="matrix(2.99536 0 0 2.99536 14.862 18.17)">
   <stop stop-color="#f0f0f0" stop-opacity="1"/>
   <stop stop-color="#aaaaaa" stop-opacity="1" offset="1"/>
  </linearGradient>
  <rect x="6" rx="6" y="6" fill="#000000" fill-opacity="1" stroke="none" fill-rule="nonzero" height="84" id="SVGCleanerId_0" opacity="0.6" width="84"/>
 </defs>
 <path d="M 12,3.96875 C 6.4889098,3.96875 1.96875,8.4889098 1.96875,14 l 0,71 c 0,5.51109 4.5201597,10.03125 10.03125,10.03125 l 72,0 c 5.51109,0 10.03125,-4.52016 10.03125,-10.03125 l 0,-71 C 94.03125,8.4889097 89.51109,3.96875 84,3.96875 l -72,0 z M 12,6 84,6 c 3.324,0 6,2.676 6,6 l 0,72 c 0,3.324 -2.676,6 -6,6 L 12,90 C 8.676,90 6,87.324 6,84 L 6,12 C 6,8.676 8.676,6 12,6 z" display="inline" fill="url(#linearGradient3780)" fill-opacity="1" fill-rule="nonzero" stroke="none" opacity="0.08" inkscape:connector-curvature="0"/>
 <path d="M 12,4.96875 C 7.0283671,4.96875 2.96875,9.0283671 2.96875,14 l 0,71 c 0,4.971633 4.059617,9.03125 9.03125,9.03125 l 72,0 c 4.971633,0 9.03125,-4.059617 9.03125,-9.03125 l 0,-71 C 93.03125,9.028367 88.971633,4.96875 84,4.96875 l -72,0 z M 12,6 84,6 c 3.324,0 6,2.676 6,6 l 0,72 c 0,3.324 -2.676,6 -6,6 L 12,90 C 8.676,90 6,87.324 6,84 L 6,12 C 6,8.676 8.676,6 12,6 z" display="inline" fill="url(#linearGradient3780)" fill-opacity="1" fill-rule="nonzero" stroke="none" opacity="0.1" inkscape:connector-curvature="0"/>
 <path d="M 11.1875,6.03125 C 7.159982,6.4419011 4,9.8664375 4,14 l 0,71 c 0,4.409133 3.590867,8 8,8 l 72,0 c 4.409133,0 8,-3.590867 8,-8 L 92,14 C 92,9.8029382 88.741028,6.3539584 84.625,6.03125 87.657886,6.337417 90,8.88375 90,12 l 0,72 c 0,3.324 -2.676,6 -6,6 L 12,90 C 8.676,90 6,87.324 6,84 L 6,12 c 0,-3.11625 2.342114,-5.662583 5.375,-5.96875 -0.06227,0.00488 -0.12563,-0.00631 -0.1875,0 z" display="inline" fill="url(#linearGradient3780)" fill-opacity="1" fill-rule="nonzero" stroke="none" opacity="0.2" inkscape:connector-curvature="0"/>
 <path d="M 6.4375,9.75 C 5.5380109,10.927446 5,12.397277 5,14 l 0,71 c 0,3.878 3.122,7 7,7 l 72,0 c 3.878,0 7,-3.122 7,-7 L 91,14 C 91,12.397277 90.461989,10.927446 89.5625,9.75 89.841816,10.444095 90,11.203625 90,12 l 0,72 c 0,3.324 -2.676,6 -6,6 L 12,90 C 8.676,90 6,87.324 6,84 L 6,12 C 6,11.203625 6.1581836,10.444095 6.4375,9.75 z" display="inline" fill="url(#linearGradient3780)" fill-opacity="1" fill-rule="nonzero" stroke="none" opacity="0.3" inkscape:connector-curvature="0"/>
 <path d="m 6,84 0,1 c 0,3.324 2.676,6 6,6 l 72,0 c 3.324,0 6,-2.676 6,-6 l 0,-1 c 0,3.324 -2.676,6 -6,6 L 12,90 C 8.676,90 6,87.324 6,84 z" display="inline" fill="url(#linearGradient3721)" fill-opacity="1" fill-rule="nonzero" stroke="none" opacity="0.45" inkscape:connector-curvature="0"/>
 <g display="inline">
  <use xlink:href="#SVGCleanerId_0"/>
  <path d="M 12,90 C 8.676,90 6,87.324 6,84 L 6,82 6,14 6,12 c 0,-0.334721 0.04135,-0.6507 0.09375,-0.96875 0.0487,-0.295596 0.09704,-0.596915 0.1875,-0.875 C 6.29113,10.12587 6.302142,10.09265 6.3125,10.0625 6.411365,9.774729 6.5473802,9.515048 6.6875,9.25 6.8320918,8.976493 7.0031161,8.714385 7.1875,8.46875 7.3718839,8.223115 7.5612765,7.995278 7.78125,7.78125 8.221197,7.353194 8.72416,6.966724 9.28125,6.6875 9.559795,6.547888 9.8547231,6.440553 10.15625,6.34375 9.9000482,6.443972 9.6695391,6.580022 9.4375,6.71875 c -0.00741,0.0044 -0.023866,-0.0045 -0.03125,0 -0.031933,0.0193 -0.062293,0.04251 -0.09375,0.0625 -0.120395,0.0767 -0.2310226,0.163513 -0.34375,0.25 -0.1061728,0.0808 -0.2132809,0.161112 -0.3125,0.25 C 8.4783201,7.442683 8.3087904,7.626638 8.15625,7.8125 8.0486711,7.942755 7.9378561,8.077785 7.84375,8.21875 7.818661,8.25713 7.805304,8.30462 7.78125,8.34375 7.716487,8.446782 7.6510225,8.548267 7.59375,8.65625 7.4927417,8.850956 7.3880752,9.071951 7.3125,9.28125 7.30454,9.30306 7.288911,9.3218 7.28125,9.34375 7.2494249,9.4357 7.2454455,9.530581 7.21875,9.625 7.1884177,9.731618 7.1483606,9.828031 7.125,9.9375 7.0521214,10.279012 7,10.635705 7,11 l 0,2 0,68 0,2 c 0,2.781848 2.2181517,5 5,5 l 2,0 68,0 2,0 c 2.781848,0 5,-2.218152 5,-5 l 0,-2 0,-68 0,-2 C 89,10.635705 88.94788,10.279012 88.875,9.9375 88.83085,9.730607 88.78662,9.539842 88.71875,9.34375 88.71105,9.3218 88.69545,9.30306 88.6875,9.28125 88.62476,9.107511 88.549117,8.913801 88.46875,8.75 88.42717,8.6672 88.38971,8.580046 88.34375,8.5 88.28915,8.40279 88.216976,8.31165 88.15625,8.21875 88.06214,8.077785 87.951329,7.942755 87.84375,7.8125 87.700576,7.63805 87.540609,7.465502 87.375,7.3125 87.36383,7.3023 87.35502,7.29135 87.34375,7.28125 87.205364,7.155694 87.058659,7.046814 86.90625,6.9375 86.803679,6.86435 86.701932,6.784136 86.59375,6.71875 c -0.0074,-0.0045 -0.02384,0.0044 -0.03125,0 -0.232039,-0.138728 -0.462548,-0.274778 -0.71875,-0.375 0.301527,0.0968 0.596455,0.204138 0.875,0.34375 0.55709,0.279224 1.060053,0.665694 1.5,1.09375 0.219973,0.214028 0.409366,0.441865 0.59375,0.6875 0.184384,0.245635 0.355408,0.507743 0.5,0.78125 0.14012,0.265048 0.276135,0.524729 0.375,0.8125 0.01041,0.03078 0.02133,0.06274 0.03125,0.09375 0.09046,0.278085 0.1388,0.579404 0.1875,0.875 C 89.95865,11.3493 90,11.665279 90,12 l 0,2 0,68 0,2 c 0,3.324 -2.676,6 -6,6 l -72,0 z" fill="url(#radialGradient3619-3)" fill-opacity="1" fill-rule="nonzero" stroke="none" opacity="0.15" inkscape:connector-curvature="0"/>
 </g>
 <g display="inline">
  <path d="m 33,23.34375 c -1.294123,0.141402 -2.421421,0.689269 -3.225331,1.725331 -2.266777,2.307736 -4.63451,4.552114 -6.837169,6.899669 -0.697835,1.388686 -0.70765,3.173211 0.28125,4.40625 10.805102,10.773922 21.586039,21.606509 32.40625,32.34375 3.459453,1.585315 7.08646,2.865693 10.611357,4.332043 1.921068,0.669728 3.755578,1.70367 5.732393,2.136707 1.723201,0.08286 2.787091,-2.002558 1.895019,-3.418702 C 71.846848,66.789325 69.911388,61.762395 67.84375,56.8125 64.461041,53.211715 60.835173,49.772167 57.358525,46.233525 49.90085,38.796673 42.481865,31.315211 35,23.90625 34.349559,23.680026 33.687867,23.433357 33,23.34375 z m 29.9375,39.75 c 0.390877,0.844161 1.179819,2.083426 -0.24045,1.12992 -1.270595,-0.348287 6.61e-4,-0.404762 0.24045,-1.12992 z M 27,66.78125 c -3.779852,-0.156807 -6.55751,4.442514 -4.584307,7.696264 1.600173,3.304704 6.699502,3.674111 8.713214,0.597256 0.84457,-0.898947 2.286758,2.501384 4.156509,2.092581 2.212706,0.754241 4.427257,-1.765052 5.391539,-2.373965 1.7856,3.133112 6.765018,3.204537 8.644532,0.114498 2.276118,-3.041484 -0.02622,-7.867399 -3.791639,-8.09944 -2.159657,-0.660719 -4.265684,1.850017 -5.206803,2.39817 -1.668872,-2.919056 -6.211131,-3.253121 -8.241334,-0.54981 -0.964815,1.761218 -2.335398,-2.356515 -4.367128,-1.824153 L 27.360967,66.79426 27,66.78125 z" fill="#000000" fill-opacity="1" stroke="none" opacity="0.1" inkscape:connector-curvature="0"/>
  <path d="m 33,24.53125 c -0.421983,0 -0.854849,0.11586 -1.25,0.34375 0.114881,-0.06626 0.05488,-0.05384 -0.125,0.0625 a 1.0183487,1.0183487 0 0 0 -0.15625,0.125 l -7.40625,7.40625 a 1.0183487,1.0183487 0 0 0 -0.125,0.15625 c -0.116343,0.179878 -0.128757,0.239881 -0.0625,0.125 -0.227883,0.395145 -0.34375,0.828012 -0.34375,1.25 0,0.421983 0.11586,0.854849 0.34375,1.25 -0.06626,-0.114881 -0.05384,-0.05488 0.0625,0.125 a 1.0183487,1.0183487 0 0 0 0.125,0.15625 l 32.21875,32.1875 A 1.0183487,1.0183487 0 0 0 56.625,67.9375 l 15,6 a 1.0183487,1.0183487 0 0 0 1.3125,-1.3125 l -6,-15 A 1.0183487,1.0183487 0 0 0 66.71875,57.28125 L 34.53125,25.0625 a 1.0183487,1.0183487 0 0 0 -0.25,-0.1875 l -0.03125,0 c -0.0092,-0.0053 -0.02202,0.0052 -0.03125,0 C 33.830716,24.658392 33.41218,24.53125 33,24.53125 z m 29.09375,35.78125 1.125,0.46875 L 66,67 l -6.1875,-2.75 -0.40625,-1.21875 1.59375,0 a 1.0183487,1.0183487 0 0 0 1.03125,-1 l 0.0625,-1.71875 z M 27,67.96875 c -2.206937,0 -4.03125,1.824316 -4.03125,4.03125 0,2.206936 1.824312,4.031254 4.03125,4.03125 2.206934,0 4.031251,-1.824312 4.03125,-4.03125 0,-2.206935 -1.824316,-4.031246 -4.03125,-4.03125 z m 9,0 c -2.206937,0 -4.03125,1.824316 -4.03125,4.03125 0,2.206936 1.824312,4.031254 4.03125,4.03125 2.206934,0 4.03125,-1.824312 4.03125,-4.03125 0,-2.206936 -1.824317,-4.031246 -4.03125,-4.03125 z m 9,0 c -2.206937,0 -4.03125,1.824316 -4.03125,4.03125 0,2.206936 1.824312,4.031254 4.03125,4.03125 2.206934,0 4.03125,-1.824312 4.03125,-4.03125 0,-2.206936 -1.824317,-4.031246 -4.03125,-4.03125 z" fill="#000000" fill-opacity="1" stroke="none" opacity="0.15"/>
  <path d="m 33,25.5625 c -0.273736,0 -0.528539,0.05978 -0.75,0.1875 -0.02013,0.01161 -0.04305,0.01867 -0.0625,0.03125 l -7.40625,7.40625 c -0.01258,0.01945 -0.01964,0.04237 -0.03125,0.0625 -0.127718,0.221461 -0.1875,0.476264 -0.1875,0.75 0,0.273736 0.05978,0.528539 0.1875,0.75 0.01161,0.02013 0.01867,0.04305 0.03125,0.0625 L 57,67 72,73 66,58 33.8125,25.78125 33.75,25.75 C 33.528539,25.622282 33.273736,25.5625 33,25.5625 z M 61.125,58.8125 64,60 l 4,9 -9,-4 -1,-3 3,0 0.125,-3.1875 z M 27,69 c -1.656,0 -3,1.344003 -3,3 0,1.656 1.344,3.000003 3,3 1.656,0 3.000001,-1.343997 3,-3 0,-1.656 -1.343999,-2.999997 -3,-3 z m 9,0 c -1.656,0 -3,1.344003 -3,3 0,1.656 1.344,3.000003 3,3 1.656,0 3,-1.343997 3,-3 0,-1.656 -1.344,-2.999997 -3,-3 z m 9,0 c -1.656,0 -3,1.344003 -3,3 0,1.656 1.344,3.000003 3,3 1.656,0 3,-1.343997 3,-3 0,-1.656 -1.344,-2.999997 -3,-3 z" fill="#000000" fill-opacity="1" stroke="none" opacity="0.3" inkscape:connector-curvature="0"/>
  <text x="104" font-size="4" font-stretch="normal" font-style="normal" letter-spacing="0" font-variant="normal" y="48" font-weight="normal" text-anchor="start" line-height="125%" fill="#000000" fill-opacity="1" stroke="none" word-spacing="0" writing-mode="lr-tb" font-family="Liberation Sans"><tspan x="104" y="48">Shadow opacity : 30, 15, 10, (8)</tspan>
  </text>
  <text x="124" font-size="4" font-stretch="normal" font-style="normal" letter-spacing="0" font-variant="normal" y="32" font-weight="normal" text-anchor="start" line-height="125%" fill="#000000" fill-opacity="1" stroke="none" word-spacing="0" writing-mode="lr-tb" font-family="Liberation Sans"><tspan x="124" y="32">Bevel opacity : 30 / 10</tspan>
  </text>
  <text x="124" font-size="4" font-stretch="normal" font-style="normal" letter-spacing="0" font-variant="normal" y="8" font-weight="normal" text-anchor="start" line-height="125%" fill="#000000" fill-opacity="1" stroke="none" word-spacing="0" writing-mode="lr-tb" font-family="Liberation Sans"><tspan x="124" y="8">Bevel opacity : 75 / 15</tspan>
  </text>
  <path d="m 33,24.5625 c -0.273736,0 -0.528539,0.05978 -0.75,0.1875 -0.02013,0.01161 -0.04305,0.01867 -0.0625,0.03125 l -7.40625,7.40625 c -0.01258,0.01945 -0.01964,0.04237 -0.03125,0.0625 -0.127718,0.221461 -0.1875,0.476264 -0.1875,0.75 0,0.273736 0.05978,0.528539 0.1875,0.75 0.01161,0.02013 0.01867,0.04305 0.03125,0.0625 L 57,66 72,72 66,57 33.8125,24.78125 33.75,24.75 C 33.528539,24.622282 33.273736,24.5625 33,24.5625 z M 61.125,57.8125 64,59 l 4,9 -9,-4 -1,-3 3,0 0.125,-3.1875 z M 27,68 c -1.656,0 -3,1.344003 -3,3 0,1.656 1.344,3.000003 3,3 1.656,0 3.000001,-1.343997 3,-3 0,-1.656 -1.343999,-2.999997 -3,-3 z m 9,0 c -1.656,0 -3,1.344003 -3,3 0,1.656 1.344,3.000003 3,3 1.656,0 3,-1.343997 3,-3 0,-1.656 -1.344,-2.999997 -3,-3 z m 9,0 c -1.656,0 -3,1.344003 -3,3 0,1.656 1.344,3.000003 3,3 1.656,0 3,-1.343997 3,-3 0,-1.656 -1.344,-2.999997 -3,-3 z" fill="url(#linearGradient3900)" fill-opacity="1" stroke="none" inkscape:connector-curvature="0"/>
  <path d="m 33,24.5625 c -0.273736,0 -0.528539,0.05978 -0.75,0.1875 -0.02013,0.01161 -0.04305,0.01867 -0.0625,0.03125 l -7.40625,7.40625 c -0.01258,0.01945 -0.01964,0.04237 -0.03125,0.0625 -0.127718,0.221461 -0.1875,0.476264 -0.1875,0.75 0,0.172491 0.01298,0.34615 0.0625,0.5 0.02906,-0.0903 0.07776,-0.16809 0.125,-0.25 0.01161,-0.02013 0.01867,-0.04305 0.03125,-0.0625 l 7.40625,-7.40625 c 0.01945,-0.01258 0.04237,-0.01964 0.0625,-0.03125 0.221461,-0.12772 0.476264,-0.1875 0.75,-0.1875 0.273736,0 0.528539,0.05978 0.75,0.1875 L 33.8125,25.78125 66,58 71.53125,71.8125 72,72 66,57 33.8125,24.78125 33.75,24.75 C 33.528539,24.622282 33.273736,24.5625 33,24.5625 z M 58,62 59,65 68,69 67.4375,67.75 59,64 58.34375,62 58,62 z m -31,6 c -1.656,0 -3,1.344003 -3,3 0,0.174674 0.03381,0.33348 0.0625,0.5 C 24.305851,70.087823 25.518674,69 27,69 c 1.481327,3e-6 2.694149,1.087822 2.9375,2.5 C 29.966195,71.33348 30,71.174674 30,71 30,69.344 28.656001,68.000003 27,68 z m 9,0 c -1.656,0 -3,1.344003 -3,3 0,0.174674 0.03381,0.33348 0.0625,0.5 C 33.305851,70.087823 34.518674,69 36,69 c 1.481326,3e-6 2.694149,1.087822 2.9375,2.5 C 38.966195,71.33348 39,71.174674 39,71 39,69.344 37.656,68.000003 36,68 z m 9,0 c -1.656,0 -3,1.344003 -3,3 0,0.174674 0.03381,0.33348 0.0625,0.5 C 42.305851,70.087823 43.518674,69 45,69 c 1.481326,3e-6 2.694149,1.087822 2.9375,2.5 C 47.966195,71.33348 48,71.174674 48,71 48,69.344 46.656,68.000003 45,68 z" fill="#ffffff" fill-opacity="1" stroke="none" opacity="0.75" inkscape:connector-curvature="0"/>
  <path d="m 24.625,32.5 c -0.04952,0.15385 -0.0625,0.327509 -0.0625,0.5 0,0.273736 0.05978,0.528539 0.1875,0.75 0.01161,0.02013 0.01867,0.04305 0.03125,0.0625 L 57,66 72,72 71.53125,70.8125 57,65 24.78125,32.8125 C 24.76867,32.79305 24.76161,32.77013 24.75,32.75 24.702761,32.66809 24.654064,32.590303 24.625,32.5 z M 61.125,56.8125 61,60 58,60 58.34375,61 61,61 61.125,57.8125 64,59 67.4375,66.75 68,67 64,58 61.125,56.8125 z M 24.0625,70.5 C 24.033805,70.66652 24,70.825326 24,71 c 0,1.656 1.344,3.000003 3,3 1.656,0 3.000001,-1.343997 3,-3 0,-0.174674 -0.03381,-0.33348 -0.0625,-0.5 C 29.694149,71.91218 28.481326,73 27,73 c -1.481326,3e-6 -2.694149,-1.087821 -2.9375,-2.5 z m 9,0 C 33.033805,70.66652 33,70.825326 33,71 c 0,1.656 1.344,3.000003 3,3 1.656,0 3,-1.343997 3,-3 0,-0.174674 -0.03381,-0.33348 -0.0625,-0.5 C 38.694149,71.91218 37.481326,73 36,73 c -1.481326,3e-6 -2.694149,-1.087821 -2.9375,-2.5 z m 9,0 C 42.033805,70.66652 42,70.825326 42,71 c 0,1.656 1.344,3.000003 3,3 1.656,0 3,-1.343997 3,-3 0,-0.174674 -0.03381,-0.33348 -0.0625,-0.5 C 47.694149,71.91218 46.481326,73 45,73 c -1.481326,3e-6 -2.694149,-1.087821 -2.9375,-2.5 z" fill="#000000" fill-opacity="1" stroke="none" opacity="0.15" inkscape:connector-curvature="0"/>
 </g>
</svg>
