<?xml version="1.0" encoding="UTF-8" standalone="no"?>
<svg
   xmlns:dc="http://purl.org/dc/elements/1.1/"
   xmlns:cc="http://creativecommons.org/ns#"
   xmlns:rdf="http://www.w3.org/1999/02/22-rdf-syntax-ns#"
   xmlns:svg="http://www.w3.org/2000/svg"
   xmlns="http://www.w3.org/2000/svg"
   xmlns:xlink="http://www.w3.org/1999/xlink"
   xmlns:sodipodi="http://sodipodi.sourceforge.net/DTD/sodipodi-0.dtd"
   xmlns:inkscape="http://www.inkscape.org/namespaces/inkscape"
   height="96"
   width="96"
   id="svg2"
   version="1.1"
   inkscape:version="0.91 r13725"
   sodipodi:docname="gtk-edit.svg">
  <metadata
     id="metadata68">
    <rdf:RDF>
      <cc:Work
         rdf:about="">
        <dc:format>image/svg+xml</dc:format>
        <dc:type
           rdf:resource="http://purl.org/dc/dcmitype/StillImage" />
      </cc:Work>
    </rdf:RDF>
  </metadata>
  <sodipodi:namedview
     pagecolor="#ffffff"
     bordercolor="#666666"
     borderopacity="1"
     objecttolerance="10"
     gridtolerance="10"
     guidetolerance="10"
     inkscape:pageopacity="0"
     inkscape:pageshadow="2"
     inkscape:window-width="640"
     inkscape:window-height="480"
     id="namedview66"
     showgrid="false"
     inkscape:zoom="4.9166667"
     inkscape:cx="76.985956"
     inkscape:cy="32.340435"
     inkscape:window-x="80"
     inkscape:window-y="104"
     inkscape:window-maximized="0"
     inkscape:current-layer="svg2" />
  <defs
     id="defs4">
    <linearGradient
       x2="0"
       y1="92.54"
       y2="7.02"
       gradientUnits="userSpaceOnUse"
       id="ButtonShadow-0"
       gradientTransform="matrix(1.0059 0 0 0.99417 100 0)">
      <stop
         stop-color="#000000"
         stop-opacity="1"
         id="stop7" />
      <stop
         stop-color="#000000"
         stop-opacity="0.588"
         offset="1"
         id="stop9" />
    </linearGradient>
    <linearGradient
       x2="0"
       xlink:href="#ButtonShadow-0"
       y1="6.132"
       y2="90.24"
       gradientUnits="userSpaceOnUse"
       id="linearGradient3780"
       gradientTransform="matrix(1.02381 0 0 -1.0119 -1.143 98.07)" />
    <linearGradient
       x2="0"
       xlink:href="#ButtonShadow-0"
       y1="6.132"
       y2="90.24"
       gradientUnits="userSpaceOnUse"
       id="linearGradient3721"
       gradientTransform="matrix(1 0 0 -1 0 97)" />
    <radialGradient
       cy="90.17"
       r="42"
       gradientUnits="userSpaceOnUse"
       id="radialGradient3619-3"
       cx="48"
       gradientTransform="matrix(1.15731 0 0 0.99591 -7.551 0.197)">
      <stop
         stop-color="#ffffff"
         stop-opacity="1"
         id="stop14" />
      <stop
         stop-color="#ffffff"
         stop-opacity="0"
         offset="1"
         id="stop16" />
    </radialGradient>
    <linearGradient
       x2="0"
       y1="1.996"
       y2="18.974"
       gradientUnits="userSpaceOnUse"
       id="linearGradient3900"
       gradientTransform="matrix(4.4405966,0,0,4.4405966,-1.0888979,0.32995701)">
      <stop
         stop-color="#1a1a1a"
         stop-opacity="1"
         id="stop19" />
      <stop
         stop-color="#4d4d4d"
         stop-opacity="1"
         offset="1"
         id="stop21" />
    </linearGradient>
    <rect
       x="6"
       rx="6"
       y="6"
       fill="#000000"
       fill-opacity="1"
       stroke="none"
       fill-rule="nonzero"
       height="84"
       id="SVGCleanerId_0"
       opacity="0.6"
       width="84" />
  </defs>
  <path
     style="fill:url(#linearGradient3900);fill-opacity:1;stroke:none"
     id="path60"
     inkscape:connector-curvature="0"
     d="m 25.800538,9.8067858 c -0.405811,0 -0.783554,0.088623 -1.111868,0.2779672 -0.02984,0.01721 -0.06382,0.02768 -0.09266,0.04633 L 13.616309,21.110786 c -0.01865,0.02883 -0.02912,0.06281 -0.04633,0.09266 -0.189341,0.328314 -0.277967,0.706057 -0.277967,1.111868 0,0.405812 0.08862,0.783555 0.277967,1.111869 0.01721,0.02984 0.02768,0.06382 0.04633,0.09266 L 61.380342,71.23754 83.617719,80.132491 74.722768,57.895114 27.005063,10.131081 26.912407,10.084753 C 26.584093,9.8954122 26.20635,9.8067858 25.800538,9.8067858 Z m 41.695082,49.2928522 4.262164,1.760459 5.929967,13.342426 -13.342426,-5.929967 -1.482492,-4.447475 4.447476,0 0.185311,-4.725443 z M 16.905588,74.202523 c -2.455007,0 -4.447476,1.992474 -4.447476,4.447476 0,2.455006 1.992469,4.44748 4.447476,4.447475 2.455006,0 4.447476,-1.992464 4.447475,-4.447475 0,-2.455007 -1.992467,-4.447471 -4.447475,-4.447476 z m 13.342426,0 c -2.455007,0 -4.447476,1.992474 -4.447476,4.447476 0,2.455006 1.992469,4.44748 4.447476,4.447475 2.455006,0 4.447475,-1.992464 4.447475,-4.447475 0,-2.455007 -1.992469,-4.447471 -4.447475,-4.447476 z m 13.342426,0 c -2.455006,0 -4.447475,1.992474 -4.447475,4.447476 0,2.455006 1.992469,4.44748 4.447475,4.447475 2.455006,0 4.447475,-1.992464 4.447475,-4.447475 0,-2.455007 -1.992469,-4.447471 -4.447475,-4.447476 z" />
  <path
     style="opacity:0.75;fill:#ffffff;fill-opacity:1;stroke:none"
     id="path62"
     inkscape:connector-curvature="0"
     d="m 25.800538,9.8067858 c -0.405811,0 -0.783554,0.088623 -1.111868,0.2779672 -0.02984,0.01721 -0.06382,0.02768 -0.09266,0.04633 L 13.616309,21.110786 c -0.01865,0.02883 -0.02912,0.06281 -0.04633,0.09266 -0.189341,0.328314 -0.277967,0.706057 -0.277967,1.111868 0,0.255717 0.01924,0.513165 0.09266,0.741246 0.04308,-0.133869 0.115278,-0.249192 0.185311,-0.370623 0.01721,-0.02984 0.02768,-0.06382 0.04633,-0.09265 L 24.596014,11.613573 c 0.02883,-0.01865 0.06281,-0.02912 0.09266,-0.04633 0.328314,-0.189344 0.706057,-0.277967 1.111868,-0.277967 0.405812,0 0.783555,0.08862 1.111869,0.277967 l 0.09266,0.04633 47.717705,47.764032 8.200033,20.476918 0.694918,0.277968 -8.894951,-22.237377 -47.717705,-47.764033 -0.09266,-0.04633 C 26.584093,9.8954122 26.20635,9.8067858 25.800538,9.8067858 Z M 62.862833,65.307573 64.345325,69.755048 77.687751,75.685015 76.85385,73.8319 64.345325,68.272556 63.37244,65.307573 l -0.509607,0 z m -45.957245,8.89495 c -2.455007,0 -4.447476,1.992474 -4.447476,4.447476 0,0.258953 0.05012,0.494381 0.09266,0.741246 0.360766,-2.093541 2.158766,-3.70623 4.35482,-3.70623 2.196055,5e-6 3.994053,1.612687 4.354819,3.70623 0.04254,-0.246865 0.09266,-0.482293 0.09266,-0.741246 0,-2.455007 -1.992467,-4.447471 -4.447475,-4.447476 z m 13.342426,0 c -2.455007,0 -4.447476,1.992474 -4.447476,4.447476 0,0.258953 0.05012,0.494381 0.09266,0.741246 0.360766,-2.093541 2.158766,-3.70623 4.35482,-3.70623 2.196053,5e-6 3.994054,1.612687 4.354819,3.70623 0.04254,-0.246865 0.09266,-0.482293 0.09266,-0.741246 0,-2.455007 -1.992469,-4.447471 -4.447475,-4.447476 z m 13.342426,0 c -2.455006,0 -4.447475,1.992474 -4.447475,4.447476 0,0.258953 0.05012,0.494381 0.09266,0.741246 0.360766,-2.093541 2.158766,-3.70623 4.35482,-3.70623 2.196054,5e-6 3.994054,1.612687 4.35482,3.70623 0.04254,-0.246865 0.09266,-0.482293 0.09266,-0.741246 0,-2.455007 -1.992469,-4.447471 -4.447475,-4.447476 z" />
  <path
     style="opacity:0.15;fill:#000000;fill-opacity:1;stroke:none"
     id="path64"
     inkscape:connector-curvature="0"
     d="m 13.38467,21.574064 c -0.07341,0.228082 -0.09266,0.48553 -0.09266,0.741246 0,0.405812 0.08862,0.783555 0.277967,1.111869 0.01721,0.02984 0.02768,0.06382 0.04633,0.09266 L 61.380342,71.23754 83.617719,80.132491 82.922801,78.372032 61.380342,69.755048 13.616309,22.037343 c -0.01865,-0.02883 -0.02912,-0.06281 -0.04633,-0.09266 -0.07003,-0.12143 -0.142224,-0.236749 -0.185311,-0.370623 z m 54.11095,36.043082 -0.185311,4.725443 -4.447476,0 0.509607,1.482492 3.937869,0 0.185311,-4.725443 4.262164,1.760459 5.096066,11.489312 0.833901,0.370623 L 71.757784,59.377605 67.49562,57.617146 Z M 12.550768,77.908753 c -0.04254,0.246864 -0.09266,0.482293 -0.09266,0.741246 0,2.455006 1.992469,4.44748 4.447476,4.447475 2.455006,0 4.447476,-1.992464 4.447475,-4.447475 0,-0.258953 -0.05012,-0.494382 -0.09266,-0.741246 -0.360766,2.093545 -2.158766,3.706229 -4.354819,3.706229 -2.196054,5e-6 -3.994054,-1.612685 -4.35482,-3.706229 z m 13.342426,0 c -0.04254,0.246864 -0.09266,0.482293 -0.09266,0.741246 0,2.455006 1.992469,4.44748 4.447476,4.447475 2.455006,0 4.447475,-1.992464 4.447475,-4.447475 0,-0.258953 -0.05012,-0.494382 -0.09266,-0.741246 -0.360765,2.093545 -2.158766,3.706229 -4.354819,3.706229 -2.196054,5e-6 -3.994054,-1.612685 -4.35482,-3.706229 z m 13.342426,0 c -0.04254,0.246864 -0.09266,0.482293 -0.09266,0.741246 0,2.455006 1.992469,4.44748 4.447475,4.447475 2.455006,0 4.447475,-1.992464 4.447475,-4.447475 0,-0.258953 -0.05012,-0.494382 -0.09266,-0.741246 -0.360766,2.093545 -2.158766,3.706229 -4.35482,3.706229 -2.196054,5e-6 -3.994054,-1.612685 -4.35482,-3.706229 z" />
</svg>
