<svg height="96" width="96" xmlns="http://www.w3.org/2000/svg" xmlns:xlink="http://www.w3.org/1999/xlink" xmlns:sodipodi="http://sodipodi.sourceforge.net/DTD/sodipodi-0.dtd" xmlns:inkscape="http://www.inkscape.org/namespaces/inkscape">
 <defs>
  <linearGradient x2="0" y1="92.54" y2="7.02" gradientUnits="userSpaceOnUse" id="ButtonShadow-0" gradientTransform="matrix(1.0059 0 0 0.99417 100 0)">
   <stop stop-color="#000000" stop-opacity="1"/>
   <stop stop-color="#000000" stop-opacity="0.588" offset="1"/>
  </linearGradient>
  <linearGradient x2="0" xlink:href="#ButtonShadow-0" y1="6.132" y2="90.24" gradientUnits="userSpaceOnUse" id="linearGradient3780" gradientTransform="matrix(1.02381 0 0 -1.0119 -1.143 98.07)"/>
  <linearGradient x2="0" xlink:href="#ButtonShadow-0" y1="6.132" y2="90.24" gradientUnits="userSpaceOnUse" id="linearGradient3721" gradientTransform="matrix(1 0 0 -1 0 97)"/>
  <radialGradient cy="90.17" r="42" gradientUnits="userSpaceOnUse" id="radialGradient3619-3" cx="48" gradientTransform="matrix(1.15731 0 0 0.99591 -7.551 0.197)">
   <stop stop-color="#ffffff" stop-opacity="1"/>
   <stop stop-color="#ffffff" stop-opacity="0" offset="1"/>
  </radialGradient>
  <linearGradient x2="0" y1="3.15" y2="18" gradientUnits="userSpaceOnUse" id="linearGradient3887" gradientTransform="matrix(3 0 0 3 16 22)">
   <stop stop-color="#f0f0f0" stop-opacity="1"/>
   <stop stop-color="#aaaaaa" stop-opacity="1" offset="1"/>
  </linearGradient>
  <rect x="6" rx="6" y="6" fill="#000000" fill-opacity="1" stroke="none" fill-rule="nonzero" height="84" id="SVGCleanerId_0" opacity="0.6" width="84"/>
 </defs>
 <path d="M 12,3.96875 C 6.4889098,3.96875 1.96875,8.4889098 1.96875,14 l 0,71 c 0,5.51109 4.5201597,10.03125 10.03125,10.03125 l 72,0 c 5.51109,0 10.03125,-4.52016 10.03125,-10.03125 l 0,-71 C 94.03125,8.4889097 89.51109,3.96875 84,3.96875 l -72,0 z M 12,6 84,6 c 3.324,0 6,2.676 6,6 l 0,72 c 0,3.324 -2.676,6 -6,6 L 12,90 C 8.676,90 6,87.324 6,84 L 6,12 C 6,8.676 8.676,6 12,6 z" display="inline" fill="url(#linearGradient3780)" fill-opacity="1" fill-rule="nonzero" stroke="none" opacity="0.08" inkscape:connector-curvature="0"/>
 <path d="M 12,4.96875 C 7.0283671,4.96875 2.96875,9.0283671 2.96875,14 l 0,71 c 0,4.971633 4.059617,9.03125 9.03125,9.03125 l 72,0 c 4.971633,0 9.03125,-4.059617 9.03125,-9.03125 l 0,-71 C 93.03125,9.028367 88.971633,4.96875 84,4.96875 l -72,0 z M 12,6 84,6 c 3.324,0 6,2.676 6,6 l 0,72 c 0,3.324 -2.676,6 -6,6 L 12,90 C 8.676,90 6,87.324 6,84 L 6,12 C 6,8.676 8.676,6 12,6 z" display="inline" fill="url(#linearGradient3780)" fill-opacity="1" fill-rule="nonzero" stroke="none" opacity="0.1" inkscape:connector-curvature="0"/>
 <path d="M 11.1875,6.03125 C 7.159982,6.4419011 4,9.8664375 4,14 l 0,71 c 0,4.409133 3.590867,8 8,8 l 72,0 c 4.409133,0 8,-3.590867 8,-8 L 92,14 C 92,9.8029382 88.741028,6.3539584 84.625,6.03125 87.657886,6.337417 90,8.88375 90,12 l 0,72 c 0,3.324 -2.676,6 -6,6 L 12,90 C 8.676,90 6,87.324 6,84 L 6,12 c 0,-3.11625 2.342114,-5.662583 5.375,-5.96875 -0.06227,0.00488 -0.12563,-0.00631 -0.1875,0 z" display="inline" fill="url(#linearGradient3780)" fill-opacity="1" fill-rule="nonzero" stroke="none" opacity="0.2" inkscape:connector-curvature="0"/>
 <path d="M 6.4375,9.75 C 5.5380109,10.927446 5,12.397277 5,14 l 0,71 c 0,3.878 3.122,7 7,7 l 72,0 c 3.878,0 7,-3.122 7,-7 L 91,14 C 91,12.397277 90.461989,10.927446 89.5625,9.75 89.841816,10.444095 90,11.203625 90,12 l 0,72 c 0,3.324 -2.676,6 -6,6 L 12,90 C 8.676,90 6,87.324 6,84 L 6,12 C 6,11.203625 6.1581836,10.444095 6.4375,9.75 z" display="inline" fill="url(#linearGradient3780)" fill-opacity="1" fill-rule="nonzero" stroke="none" opacity="0.3" inkscape:connector-curvature="0"/>
 <path d="m 6,84 0,1 c 0,3.324 2.676,6 6,6 l 72,0 c 3.324,0 6,-2.676 6,-6 l 0,-1 c 0,3.324 -2.676,6 -6,6 L 12,90 C 8.676,90 6,87.324 6,84 z" display="inline" fill="url(#linearGradient3721)" fill-opacity="1" fill-rule="nonzero" stroke="none" opacity="0.45" inkscape:connector-curvature="0"/>
 <g display="inline">
  <use xlink:href="#SVGCleanerId_0"/>
  <path d="M 12,90 C 8.676,90 6,87.324 6,84 L 6,82 6,14 6,12 c 0,-0.334721 0.04135,-0.6507 0.09375,-0.96875 0.0487,-0.295596 0.09704,-0.596915 0.1875,-0.875 C 6.29113,10.12587 6.302142,10.09265 6.3125,10.0625 6.411365,9.774729 6.5473802,9.515048 6.6875,9.25 6.8320918,8.976493 7.0031161,8.714385 7.1875,8.46875 7.3718839,8.223115 7.5612765,7.995278 7.78125,7.78125 8.221197,7.353194 8.72416,6.966724 9.28125,6.6875 9.559795,6.547888 9.8547231,6.440553 10.15625,6.34375 9.9000482,6.443972 9.6695391,6.580022 9.4375,6.71875 c -0.00741,0.0044 -0.023866,-0.0045 -0.03125,0 -0.031933,0.0193 -0.062293,0.04251 -0.09375,0.0625 -0.120395,0.0767 -0.2310226,0.163513 -0.34375,0.25 -0.1061728,0.0808 -0.2132809,0.161112 -0.3125,0.25 C 8.4783201,7.442683 8.3087904,7.626638 8.15625,7.8125 8.0486711,7.942755 7.9378561,8.077785 7.84375,8.21875 7.818661,8.25713 7.805304,8.30462 7.78125,8.34375 7.716487,8.446782 7.6510225,8.548267 7.59375,8.65625 7.4927417,8.850956 7.3880752,9.071951 7.3125,9.28125 7.30454,9.30306 7.288911,9.3218 7.28125,9.34375 7.2494249,9.4357 7.2454455,9.530581 7.21875,9.625 7.1884177,9.731618 7.1483606,9.828031 7.125,9.9375 7.0521214,10.279012 7,10.635705 7,11 l 0,2 0,68 0,2 c 0,2.781848 2.2181517,5 5,5 l 2,0 68,0 2,0 c 2.781848,0 5,-2.218152 5,-5 l 0,-2 0,-68 0,-2 C 89,10.635705 88.94788,10.279012 88.875,9.9375 88.83085,9.730607 88.78662,9.539842 88.71875,9.34375 88.71105,9.3218 88.69545,9.30306 88.6875,9.28125 88.62476,9.107511 88.549117,8.913801 88.46875,8.75 88.42717,8.6672 88.38971,8.580046 88.34375,8.5 88.28915,8.40279 88.216976,8.31165 88.15625,8.21875 88.06214,8.077785 87.951329,7.942755 87.84375,7.8125 87.700576,7.63805 87.540609,7.465502 87.375,7.3125 87.36383,7.3023 87.35502,7.29135 87.34375,7.28125 87.205364,7.155694 87.058659,7.046814 86.90625,6.9375 86.803679,6.86435 86.701932,6.784136 86.59375,6.71875 c -0.0074,-0.0045 -0.02384,0.0044 -0.03125,0 -0.232039,-0.138728 -0.462548,-0.274778 -0.71875,-0.375 0.301527,0.0968 0.596455,0.204138 0.875,0.34375 0.55709,0.279224 1.060053,0.665694 1.5,1.09375 0.219973,0.214028 0.409366,0.441865 0.59375,0.6875 0.184384,0.245635 0.355408,0.507743 0.5,0.78125 0.14012,0.265048 0.276135,0.524729 0.375,0.8125 0.01041,0.03078 0.02133,0.06274 0.03125,0.09375 0.09046,0.278085 0.1388,0.579404 0.1875,0.875 C 89.95865,11.3493 90,11.665279 90,12 l 0,2 0,68 0,2 c 0,3.324 -2.676,6 -6,6 l -72,0 z" fill="url(#radialGradient3619-3)" fill-opacity="1" fill-rule="nonzero" stroke="none" opacity="0.15" inkscape:connector-curvature="0"/>
 </g>
 <g display="inline">
  <path d="m 53.875,29.9375 c -1.601973,0.03059 -2.082081,1.790103 -1.875,3.108034 0.02082,8.713127 -0.04165,17.433149 0.03125,26.141966 0.102119,1.612545 1.897385,1.95417 3.203824,1.78125 2.010758,-0.08908 4.064765,0.187641 6.046176,-0.15625 1.437241,-1.58684 3.422185,1.117609 5.41281,0.608455 4.074947,0.352262 7.987403,-2.166793 9.63344,-5.836146 C 78.747556,50.702798 78.417492,44.24734 74.9375,39.96875 72.389364,36.958103 68.156118,35.361755 64.308961,36.636871 62.717453,37.658165 62.216644,37.469419 62.5,35.792095 62.353463,34.143162 62.839764,32.356107 62.15625,30.8125 c -1.101565,-1.426177 -3.093554,-0.693613 -4.63252,-0.875 -1.216243,0 -2.432487,0 -3.64873,0 z m -22.6875,0.09375 c -1.717652,0.02646 -1.992766,1.948253 -2.504518,3.207731 -3.160123,8.508122 -6.443357,16.980865 -9.526732,25.511019 -0.240362,1.422136 1.235523,2.486473 2.570662,2.21875 2.323681,-0.0809 4.70307,0.163482 6.991838,-0.125 1.583546,-0.570318 1.544838,-2.588817 2.219995,-3.897783 0.02358,-1.347103 1.320176,-0.87939 2.241991,-0.945967 2.096005,0 4.192009,0 6.288014,0 0.653737,1.474611 0.798824,3.244451 1.84375,4.5 1.329036,0.883359 3.062826,0.299759 4.574101,0.46875 1.560758,-0.116288 3.207532,0.250743 4.707149,-0.21875 1.291806,-0.637428 1.198831,-2.261899 0.572434,-3.357895 C 47.830237,48.56876 44.57187,39.703252 41.1875,30.90625 c -1.088581,-1.433446 -3.096574,-0.690514 -4.63252,-0.875 -1.78916,0 -3.57832,0 -5.36748,0 z m 4.21875,14.25 c 0.322917,0.9375 0.645833,1.875 0.96875,2.8125 -0.824017,-0.09871 -2.55014,0.445981 -1.6282,-0.897967 0.219817,-0.638178 0.439633,-1.276355 0.65945,-1.914533 z m 29.4375,0.65625 c 3.214535,0.347706 2.795691,5.519439 1.341142,7.558335 -3.575124,1.792739 -4.223793,-3.338399 -3.468391,-5.689986 0.200157,-1.03213 0.904547,-2.148609 2.127249,-1.868349 z M 35.8125,67.03125 c -1.668064,0.04491 -2.428456,2.380927 -1.15625,3.40625 4.088139,4.057117 8.13784,8.157287 12.25,12.1875 1.470118,1.05125 2.803733,-0.47485 3.729601,-1.48282 3.680394,-3.733039 7.46696,-7.401768 11.082899,-11.17343 0.922951,-1.448899 -0.591299,-3.27886 -2.193622,-2.9375 -7.904209,0 -15.808419,0 -23.712628,0 z" fill="#000000" fill-opacity="1" stroke="none" opacity="0.1" inkscape:connector-curvature="0"/>
  <path d="m 53.96875,31.03125 a 0.86371451,0.86371451 0 0 0 -0.875,0.875 l 0,27.09375 a 0.86371451,0.86371451 0 0 0 0.875,0.875 l 6.5625,0 A 0.86371451,0.86371451 0 0 0 61.40625,59 l 0,-0.78125 c 0.538921,0.46689 1.118022,0.876648 1.71875,1.1875 a 0.86371451,0.86371451 0 0 0 0.03125,0 c 1.219803,0.617749 2.584589,0.9375 4.125,0.9375 2.730754,0 5.083117,-1.067562 6.84375,-3.21875 a 0.86371451,0.86371451 0 0 0 0,-0.03125 c 1.758312,-2.161515 2.656225,-4.945409 2.65625,-8.21875 -2.5e-5,-3.262656 -0.906279,-6.069177 -2.65625,-8.21875 -0.0054,-0.0067 -0.02581,0.0067 -0.03125,0 -1.751425,-2.142269 -4.071593,-3.343727 -6.8125,-3.34375 -1.524659,2.2e-5 -2.903907,0.311429 -4.125,0.9375 -0.0087,0.0045 -0.02257,-0.0045 -0.03125,0 l 0,0.03125 c -0.592205,0.304058 -1.190144,0.696732 -1.71875,1.15625 l 0,-7.53125 a 0.86371451,0.86371451 0 0 0 -0.875,-0.875 l -6.5625,0 z m -22.75,0.09375 a 0.86371451,0.86371451 0 0 0 -0.8125,0.5625 l -10.125,27 a 0.86371451,0.86371451 0 0 0 0.8125,1.1875 l 7.03125,0 a 0.86371451,0.86371451 0 0 0 0.8125,-0.59375 l 1.5625,-4.375 9.75,0 1.5,4.375 a 0.86371451,0.86371451 0 0 0 0.8125,0.59375 l 7.125,0 A 0.86371451,0.86371451 0 0 0 50.5,58.6875 l -10.125,-27 A 0.86371451,0.86371451 0 0 0 39.5625,31.125 l -8.34375,0 z m 4.21875,9.8125 2.4375,7.25 -4.96875,0 2.53125,-7.25 z m 29.40625,2.90625 c 1.198484,1.3e-5 1.924751,0.327023 2.5,1.125 0.59109,0.806574 0.937483,2.091762 0.9375,3.90625 -1.7e-5,1.814507 -0.346417,3.0997 -0.9375,3.90625 -0.57525,0.797995 -1.301521,1.125003 -2.5,1.125 -1.19851,3e-6 -1.892333,-0.340447 -2.5,-1.15625 -0.586831,-0.822909 -0.937508,-2.088161 -0.9375,-3.875 -8e-6,-1.80171 0.348322,-3.102317 0.9375,-3.90625 0.606443,-0.823839 1.296524,-1.124987 2.5,-1.125 z M 36,68.125 a 0.86371451,0.86371451 0 0 0 -0.625,1.5 l 12,12 a 0.86371451,0.86371451 0 0 0 1.25,0 l 12,-12 A 0.86371451,0.86371451 0 0 0 60,68.125 l -24,0 z" fill="#000000" fill-opacity="1" stroke="none" opacity="0.15"/>
  <path d="m 53.96875,31.90625 0,27.09375 6.5625,0 0,-3 c 0.900258,1.181385 1.905066,2.058417 3,2.625 1.09491,0.554499 2.326587,0.84375 3.75,0.84375 2.518305,0 4.569423,-0.929241 6.1875,-2.90625 1.618029,-1.989063 2.437476,-4.565265 2.4375,-7.6875 -2.4e-5,-3.122217 -0.819471,-5.710473 -2.4375,-7.6875 -1.618077,-1.989045 -3.669195,-2.999979 -6.1875,-3 -1.423413,2.1e-5 -2.65509,0.2772 -3.75,0.84375 -1.094934,0.554547 -2.099742,1.443633 -3,2.625 l 0,-9.75 -6.5625,0 z M 31.21875,32 l -10.125,27 7.03125,0 1.78125,-4.96875 10.96875,0 1.6875,4.96875 7.125,0 -10.125,-27 -8.34375,0 z m 4.21875,6.28125 3.65625,10.78125 -7.40625,0 3.75,-10.78125 z m 29.40625,4.6875 c 1.399053,1.5e-5 2.457534,0.487401 3.1875,1.5 0.742095,1.012629 1.124982,2.477472 1.125,4.40625 -1.8e-5,1.928796 -0.382905,3.393639 -1.125,4.40625 -0.729966,1.01262 -1.788447,1.500003 -3.1875,1.5 -1.39908,3e-6 -2.433231,-0.48738 -3.1875,-1.5 -0.742125,-1.024662 -1.125009,-2.489505 -1.125,-4.40625 -9e-6,-1.916724 0.382875,-3.393621 1.125,-4.40625 0.754269,-1.024656 1.78842,-1.499985 3.1875,-1.5 z M 36,69 48,81 60,69 36,69 z" fill="#000000" fill-opacity="1" stroke="none" opacity="0.3" inkscape:connector-curvature="0"/>
  <text x="104" font-size="4" font-stretch="normal" font-style="normal" letter-spacing="0" font-variant="normal" y="48" font-weight="normal" text-anchor="start" line-height="125%" fill="#000000" fill-opacity="1" stroke="none" word-spacing="0" writing-mode="lr-tb" font-family="Liberation Sans"><tspan x="104" y="48">Shadow opacity : 30, 15, 10, (8)</tspan>
  </text>
  <text x="124" font-size="4" font-stretch="normal" font-style="normal" letter-spacing="0" font-variant="normal" y="32" font-weight="normal" text-anchor="start" line-height="125%" fill="#000000" fill-opacity="1" stroke="none" word-spacing="0" writing-mode="lr-tb" font-family="Liberation Sans"><tspan x="124" y="32">Bevel opacity : 30 / 10</tspan>
  </text>
  <text x="124" font-size="4" font-stretch="normal" font-style="normal" letter-spacing="0" font-variant="normal" y="8" font-weight="normal" text-anchor="start" line-height="125%" fill="#000000" fill-opacity="1" stroke="none" word-spacing="0" writing-mode="lr-tb" font-family="Liberation Sans"><tspan x="124" y="8">Bevel opacity : 75 / 15</tspan>
  </text>
  <path d="m 53.96875,30.90625 0,27.09375 6.5625,0 0,-3 c 0.900258,1.181385 1.905066,2.058417 3,2.625 1.09491,0.554499 2.326587,0.84375 3.75,0.84375 2.518305,0 4.569423,-0.929241 6.1875,-2.90625 1.618029,-1.989063 2.437476,-4.565265 2.4375,-7.6875 -2.4e-5,-3.122217 -0.819471,-5.710473 -2.4375,-7.6875 -1.618077,-1.989045 -3.669195,-2.999979 -6.1875,-3 -1.423413,2.1e-5 -2.65509,0.2772 -3.75,0.84375 -1.094934,0.554547 -2.099742,1.443633 -3,2.625 l 0,-9.75 -6.5625,0 z M 31.21875,31 l -10.125,27 7.03125,0 1.78125,-4.96875 10.96875,0 1.6875,4.96875 7.125,0 -10.125,-27 -8.34375,0 z m 4.21875,6.28125 3.65625,10.78125 -7.40625,0 3.75,-10.78125 z m 29.40625,4.6875 c 1.399053,1.5e-5 2.457534,0.487401 3.1875,1.5 0.742095,1.012629 1.124982,2.477472 1.125,4.40625 -1.8e-5,1.928796 -0.382905,3.393639 -1.125,4.40625 -0.729966,1.01262 -1.788447,1.500003 -3.1875,1.5 -1.39908,3e-6 -2.433231,-0.48738 -3.1875,-1.5 -0.742125,-1.024662 -1.125009,-2.489505 -1.125,-4.40625 -9e-6,-1.916724 0.382875,-3.393621 1.125,-4.40625 0.754269,-1.024656 1.78842,-1.499985 3.1875,-1.5 z M 36,68 48,80 60,68 36,68 z" fill="url(#linearGradient3887)" fill-opacity="1" stroke="none" inkscape:connector-curvature="0"/>
  <path d="m 53.96875,30.90625 0,1 6.5625,0 0,-1 -6.5625,0 z M 31.21875,31 l -10.125,27 0.375,0 9.75,-26 8.34375,0 9.75,26 0.375,0 -10.125,-27 -8.34375,0 z m 36.0625,6.1875 c -1.423413,2.1e-5 -2.65509,0.2772 -3.75,0.84375 -1.094934,0.554547 -2.099742,1.443633 -3,2.625 l 0,1 c 0.900258,-1.181367 1.905066,-2.070453 3,-2.625 1.09491,-0.56655 2.326587,-0.843729 3.75,-0.84375 2.518305,2.1e-5 4.569423,1.010955 6.1875,3 1.530632,1.870239 2.353795,4.288709 2.4375,7.1875 0.0048,-0.165454 -10e-7,-0.331354 0,-0.5 -2.4e-5,-3.122217 -0.819471,-5.710473 -2.4375,-7.6875 -1.618077,-1.989045 -3.669195,-2.999979 -6.1875,-3 z m -35.25,10.875 -0.34375,1 7.40625,0 -0.34375,-1 -6.71875,0 z M 60.5625,48.375 c -0.0066,0.170789 -0.03125,0.321568 -0.03125,0.5 -9e-6,1.916745 0.382875,3.381588 1.125,4.40625 0.754269,1.01262 1.78842,1.500003 3.1875,1.5 1.399053,3e-6 2.457534,-0.48738 3.1875,-1.5 0.742095,-1.012611 1.124982,-2.477454 1.125,-4.40625 -2e-6,-0.175479 -0.02493,-0.332192 -0.03125,-0.5 -0.06317,1.676664 -0.41917,2.985766 -1.09375,3.90625 -0.729966,1.01262 -1.788447,1.500003 -3.1875,1.5 -1.39908,3e-6 -2.433231,-0.48738 -3.1875,-1.5 C 60.983211,51.351976 60.626958,50.037098 60.5625,48.375 z M 36,68 l 1,1 22,0 1,-1 -24,0 z" fill="#ffffff" fill-opacity="1" stroke="none" opacity="0.75" inkscape:connector-curvature="0"/>
  <path d="m 35.4375,36.28125 -3.75,10.78125 0.34375,0 3.40625,-9.78125 3.3125,9.78125 0.34375,0 -3.65625,-10.78125 z m 29.40625,4.6875 c -1.39908,1.5e-5 -2.433231,0.475344 -3.1875,1.5 -0.742125,1.012629 -1.125009,2.489526 -1.125,4.40625 -10e-7,0.178434 0.02463,0.329389 0.03125,0.5 0.06446,-1.663834 0.420711,-2.987889 1.09375,-3.90625 0.754269,-1.024656 1.78842,-1.499985 3.1875,-1.5 1.399053,1.5e-5 2.457534,0.487401 3.1875,1.5 0.67458,0.920501 1.030584,2.2296 1.09375,3.90625 0.0063,-0.167809 0.03125,-0.324519 0.03125,-0.5 -1.8e-5,-1.928778 -0.382905,-3.393621 -1.125,-4.40625 -0.729966,-1.012599 -1.788447,-1.499985 -3.1875,-1.5 z m 11.0625,6.40625 c -0.0837,2.897674 -0.906868,5.305875 -2.4375,7.1875 -1.618077,1.977009 -3.669195,2.90625 -6.1875,2.90625 -1.423413,0 -2.65509,-0.289251 -3.75,-0.84375 -1.094934,-0.566583 -2.099742,-1.443615 -3,-2.625 l 0,1 c 0.900258,1.181385 1.905066,2.058417 3,2.625 1.09491,0.554499 2.326587,0.84375 3.75,0.84375 2.518305,0 4.569423,-0.929241 6.1875,-2.90625 1.618029,-1.989063 2.437476,-4.565265 2.4375,-7.6875 -10e-7,-0.168645 0.0048,-0.334483 0,-0.5 z m -46,4.65625 L 28.125,57 l -6.65625,0 -0.375,1 7.03125,0 1.78125,-4.96875 10.96875,0 1.6875,4.96875 7.125,0 -0.375,-1 -6.75,0 -1.6875,-4.96875 -10.96875,0 z M 53.96875,57 l 0,1 6.5625,0 0,-1 -6.5625,0 z M 36,68 48,80 60,68 59,68 48,79 37,68 36,68 z" fill="#000000" fill-opacity="1" stroke="none" opacity="0.15" inkscape:connector-curvature="0"/>
 </g>
</svg>
