<?xml version="1.0" encoding="UTF-8" standalone="no"?>
<svg
   xmlns:dc="http://purl.org/dc/elements/1.1/"
   xmlns:cc="http://creativecommons.org/ns#"
   xmlns:rdf="http://www.w3.org/1999/02/22-rdf-syntax-ns#"
   xmlns:svg="http://www.w3.org/2000/svg"
   xmlns="http://www.w3.org/2000/svg"
   xmlns:xlink="http://www.w3.org/1999/xlink"
   xmlns:sodipodi="http://sodipodi.sourceforge.net/DTD/sodipodi-0.dtd"
   xmlns:inkscape="http://www.inkscape.org/namespaces/inkscape"
   height="96"
   width="96"
   id="svg2"
   version="1.1"
   inkscape:version="0.91 r13725"
   sodipodi:docname="insert-text.svg">
  <metadata
     id="metadata68">
    <rdf:RDF>
      <cc:Work
         rdf:about="">
        <dc:format>image/svg+xml</dc:format>
        <dc:type
           rdf:resource="http://purl.org/dc/dcmitype/StillImage" />
      </cc:Work>
    </rdf:RDF>
  </metadata>
  <sodipodi:namedview
     pagecolor="#ffffff"
     bordercolor="#666666"
     borderopacity="1"
     objecttolerance="10"
     gridtolerance="10"
     guidetolerance="10"
     inkscape:pageopacity="0"
     inkscape:pageshadow="2"
     inkscape:window-width="640"
     inkscape:window-height="480"
     id="namedview66"
     showgrid="false"
     inkscape:zoom="2.4583333"
     inkscape:cx="22.98305"
     inkscape:cy="47.999999"
     inkscape:window-x="66"
     inkscape:window-y="91"
     inkscape:window-maximized="0"
     inkscape:current-layer="svg2" />
  <defs
     id="defs4">
    <linearGradient
       x2="0"
       y1="92.54"
       y2="7.02"
       gradientUnits="userSpaceOnUse"
       id="ButtonShadow-0"
       gradientTransform="matrix(1.0059 0 0 0.99417 100 0)">
      <stop
         stop-color="#000000"
         stop-opacity="1"
         id="stop7" />
      <stop
         stop-color="#000000"
         stop-opacity="0.588"
         offset="1"
         id="stop9" />
    </linearGradient>
    <linearGradient
       x2="0"
       xlink:href="#ButtonShadow-0"
       y1="6.132"
       y2="90.24"
       gradientUnits="userSpaceOnUse"
       id="linearGradient3780"
       gradientTransform="matrix(1.02381 0 0 -1.0119 -1.143 98.07)" />
    <linearGradient
       x2="0"
       xlink:href="#ButtonShadow-0"
       y1="6.132"
       y2="90.24"
       gradientUnits="userSpaceOnUse"
       id="linearGradient3721"
       gradientTransform="matrix(1 0 0 -1 0 97)" />
    <radialGradient
       cy="90.17"
       r="42"
       gradientUnits="userSpaceOnUse"
       id="radialGradient3619-3"
       cx="48"
       gradientTransform="matrix(1.15731 0 0 0.99591 -7.551 0.197)">
      <stop
         stop-color="#ffffff"
         stop-opacity="1"
         id="stop14" />
      <stop
         stop-color="#ffffff"
         stop-opacity="0"
         offset="1"
         id="stop16" />
    </radialGradient>
    <linearGradient
       x2="0"
       y1="3.15"
       y2="18"
       gradientUnits="userSpaceOnUse"
       id="linearGradient3887"
       gradientTransform="matrix(3,0,0,3,16,22)">
      <stop
         stop-color="#1a1a1a"
         stop-opacity="1"
         id="stop19" />
      <stop
         stop-color="#4d4d4d"
         stop-opacity="1"
         offset="1"
         id="stop21" />
    </linearGradient>
    <rect
       x="6"
       rx="6"
       y="6"
       fill="#000000"
       fill-opacity="1"
       stroke="none"
       fill-rule="nonzero"
       height="84"
       id="SVGCleanerId_0"
       opacity="0.6"
       width="84" />
  </defs>
  <g
     id="g3552"
     transform="matrix(1.3614273,0,0,1.3614273,-18.044548,-28.843003)">
    <path
       d="m 53.875,29.9375 c -1.601973,0.03059 -2.082081,1.790103 -1.875,3.108034 0.02082,8.713127 -0.04165,17.433149 0.03125,26.141966 0.102119,1.612545 1.897385,1.95417 3.203824,1.78125 2.010758,-0.08908 4.064765,0.187641 6.046176,-0.15625 1.437241,-1.58684 3.422185,1.117609 5.41281,0.608455 4.074947,0.352262 7.987403,-2.166793 9.63344,-5.836146 C 78.747556,50.702798 78.417492,44.24734 74.9375,39.96875 72.389364,36.958103 68.156118,35.361755 64.308961,36.636871 62.717453,37.658165 62.216644,37.469419 62.5,35.792095 62.353463,34.143162 62.839764,32.356107 62.15625,30.8125 c -1.101565,-1.426177 -3.093554,-0.693613 -4.63252,-0.875 -1.216243,0 -2.432487,0 -3.64873,0 z m -22.6875,0.09375 c -1.717652,0.02646 -1.992766,1.948253 -2.504518,3.207731 -3.160123,8.508122 -6.443357,16.980865 -9.526732,25.511019 -0.240362,1.422136 1.235523,2.486473 2.570662,2.21875 2.323681,-0.0809 4.70307,0.163482 6.991838,-0.125 1.583546,-0.570318 1.544838,-2.588817 2.219995,-3.897783 0.02358,-1.347103 1.320176,-0.87939 2.241991,-0.945967 2.096005,0 4.192009,0 6.288014,0 0.653737,1.474611 0.798824,3.244451 1.84375,4.5 1.329036,0.883359 3.062826,0.299759 4.574101,0.46875 1.560758,-0.116288 3.207532,0.250743 4.707149,-0.21875 1.291806,-0.637428 1.198831,-2.261899 0.572434,-3.357895 C 47.830237,48.56876 44.57187,39.703252 41.1875,30.90625 c -1.088581,-1.433446 -3.096574,-0.690514 -4.63252,-0.875 -1.78916,0 -3.57832,0 -5.36748,0 z m 4.21875,14.25 c 0.322917,0.9375 0.645833,1.875 0.96875,2.8125 -0.824017,-0.09871 -2.55014,0.445981 -1.6282,-0.897967 0.219817,-0.638178 0.439633,-1.276355 0.65945,-1.914533 z m 29.4375,0.65625 c 3.214535,0.347706 2.795691,5.519439 1.341142,7.558335 -3.575124,1.792739 -4.223793,-3.338399 -3.468391,-5.689986 0.200157,-1.03213 0.904547,-2.148609 2.127249,-1.868349 z M 35.8125,67.03125 c -1.668064,0.04491 -2.428456,2.380927 -1.15625,3.40625 4.088139,4.057117 8.13784,8.157287 12.25,12.1875 1.470118,1.05125 2.803733,-0.47485 3.729601,-1.48282 3.680394,-3.733039 7.46696,-7.401768 11.082899,-11.17343 0.922951,-1.448899 -0.591299,-3.27886 -2.193622,-2.9375 -7.904209,0 -15.808419,0 -23.712628,0 z"
       inkscape:connector-curvature="0"
       id="path42"
       style="opacity:0.1;fill:black;fill-opacity:1;stroke:none" />
    <path
       d="m 53.96875,31.03125 a 0.86371451,0.86371451 0 0 0 -0.875,0.875 l 0,27.09375 a 0.86371451,0.86371451 0 0 0 0.875,0.875 l 6.5625,0 A 0.86371451,0.86371451 0 0 0 61.40625,59 l 0,-0.78125 c 0.538921,0.46689 1.118022,0.876648 1.71875,1.1875 a 0.86371451,0.86371451 0 0 0 0.03125,0 c 1.219803,0.617749 2.584589,0.9375 4.125,0.9375 2.730754,0 5.083117,-1.067562 6.84375,-3.21875 a 0.86371451,0.86371451 0 0 0 0,-0.03125 c 1.758312,-2.161515 2.656225,-4.945409 2.65625,-8.21875 -2.5e-5,-3.262656 -0.906279,-6.069177 -2.65625,-8.21875 -0.0054,-0.0067 -0.02581,0.0067 -0.03125,0 -1.751425,-2.142269 -4.071593,-3.343727 -6.8125,-3.34375 -1.524659,2.2e-5 -2.903907,0.311429 -4.125,0.9375 -0.0087,0.0045 -0.02257,-0.0045 -0.03125,0 l 0,0.03125 c -0.592205,0.304058 -1.190144,0.696732 -1.71875,1.15625 l 0,-7.53125 a 0.86371451,0.86371451 0 0 0 -0.875,-0.875 l -6.5625,0 z m -22.75,0.09375 a 0.86371451,0.86371451 0 0 0 -0.8125,0.5625 l -10.125,27 a 0.86371451,0.86371451 0 0 0 0.8125,1.1875 l 7.03125,0 a 0.86371451,0.86371451 0 0 0 0.8125,-0.59375 l 1.5625,-4.375 9.75,0 1.5,4.375 a 0.86371451,0.86371451 0 0 0 0.8125,0.59375 l 7.125,0 A 0.86371451,0.86371451 0 0 0 50.5,58.6875 l -10.125,-27 A 0.86371451,0.86371451 0 0 0 39.5625,31.125 l -8.34375,0 z m 4.21875,9.8125 2.4375,7.25 -4.96875,0 2.53125,-7.25 z m 29.40625,2.90625 c 1.198484,1.3e-5 1.924751,0.327023 2.5,1.125 0.59109,0.806574 0.937483,2.091762 0.9375,3.90625 -1.7e-5,1.814507 -0.346417,3.0997 -0.9375,3.90625 -0.57525,0.797995 -1.301521,1.125003 -2.5,1.125 -1.19851,3e-6 -1.892333,-0.340447 -2.5,-1.15625 -0.586831,-0.822909 -0.937508,-2.088161 -0.9375,-3.875 -8e-6,-1.80171 0.348322,-3.102317 0.9375,-3.90625 0.606443,-0.823839 1.296524,-1.124987 2.5,-1.125 z M 36,68.125 a 0.86371451,0.86371451 0 0 0 -0.625,1.5 l 12,12 a 0.86371451,0.86371451 0 0 0 1.25,0 l 12,-12 A 0.86371451,0.86371451 0 0 0 60,68.125 l -24,0 z"
       id="path44"
       inkscape:connector-curvature="0"
       style="opacity:0.15;fill:black;fill-opacity:1;stroke:none" />
    <path
       d="m 53.96875,31.90625 0,27.09375 6.5625,0 0,-3 c 0.900258,1.181385 1.905066,2.058417 3,2.625 1.09491,0.554499 2.326587,0.84375 3.75,0.84375 2.518305,0 4.569423,-0.929241 6.1875,-2.90625 1.618029,-1.989063 2.437476,-4.565265 2.4375,-7.6875 -2.4e-5,-3.122217 -0.819471,-5.710473 -2.4375,-7.6875 -1.618077,-1.989045 -3.669195,-2.999979 -6.1875,-3 -1.423413,2.1e-5 -2.65509,0.2772 -3.75,0.84375 -1.094934,0.554547 -2.099742,1.443633 -3,2.625 l 0,-9.75 -6.5625,0 z M 31.21875,32 l -10.125,27 7.03125,0 1.78125,-4.96875 10.96875,0 1.6875,4.96875 7.125,0 -10.125,-27 -8.34375,0 z m 4.21875,6.28125 3.65625,10.78125 -7.40625,0 3.75,-10.78125 z m 29.40625,4.6875 c 1.399053,1.5e-5 2.457534,0.487401 3.1875,1.5 0.742095,1.012629 1.124982,2.477472 1.125,4.40625 -1.8e-5,1.928796 -0.382905,3.393639 -1.125,4.40625 -0.729966,1.01262 -1.788447,1.500003 -3.1875,1.5 -1.39908,3e-6 -2.433231,-0.48738 -3.1875,-1.5 -0.742125,-1.024662 -1.125009,-2.489505 -1.125,-4.40625 -9e-6,-1.916724 0.382875,-3.393621 1.125,-4.40625 0.754269,-1.024656 1.78842,-1.499985 3.1875,-1.5 z M 36,69 48,81 60,69 36,69 Z"
       inkscape:connector-curvature="0"
       id="path46"
       style="opacity:0.3;fill:black;fill-opacity:1;stroke:none" />
    <path
       d="m 53.96875,30.90625 0,27.09375 6.5625,0 0,-3 c 0.900258,1.181385 1.905066,2.058417 3,2.625 1.09491,0.554499 2.326587,0.84375 3.75,0.84375 2.518305,0 4.569423,-0.929241 6.1875,-2.90625 1.618029,-1.989063 2.437476,-4.565265 2.4375,-7.6875 -2.4e-5,-3.122217 -0.819471,-5.710473 -2.4375,-7.6875 -1.618077,-1.989045 -3.669195,-2.999979 -6.1875,-3 -1.423413,2.1e-5 -2.65509,0.2772 -3.75,0.84375 -1.094934,0.554547 -2.099742,1.443633 -3,2.625 l 0,-9.75 -6.5625,0 z M 31.21875,31 l -10.125,27 7.03125,0 1.78125,-4.96875 10.96875,0 1.6875,4.96875 7.125,0 -10.125,-27 -8.34375,0 z m 4.21875,6.28125 3.65625,10.78125 -7.40625,0 3.75,-10.78125 z m 29.40625,4.6875 c 1.399053,1.5e-5 2.457534,0.487401 3.1875,1.5 0.742095,1.012629 1.124982,2.477472 1.125,4.40625 -1.8e-5,1.928796 -0.382905,3.393639 -1.125,4.40625 -0.729966,1.01262 -1.788447,1.500003 -3.1875,1.5 -1.39908,3e-6 -2.433231,-0.48738 -3.1875,-1.5 -0.742125,-1.024662 -1.125009,-2.489505 -1.125,-4.40625 -9e-6,-1.916724 0.382875,-3.393621 1.125,-4.40625 0.754269,-1.024656 1.78842,-1.499985 3.1875,-1.5 z M 36,68 48,80 60,68 36,68 Z"
       inkscape:connector-curvature="0"
       id="path60"
       style="fill:url(#linearGradient3887);fill-opacity:1;stroke:none" />
    <path
       d="m 53.96875,30.90625 0,1 6.5625,0 0,-1 -6.5625,0 z M 31.21875,31 l -10.125,27 0.375,0 9.75,-26 8.34375,0 9.75,26 0.375,0 -10.125,-27 -8.34375,0 z m 36.0625,6.1875 c -1.423413,2.1e-5 -2.65509,0.2772 -3.75,0.84375 -1.094934,0.554547 -2.099742,1.443633 -3,2.625 l 0,1 c 0.900258,-1.181367 1.905066,-2.070453 3,-2.625 1.09491,-0.56655 2.326587,-0.843729 3.75,-0.84375 2.518305,2.1e-5 4.569423,1.010955 6.1875,3 1.530632,1.870239 2.353795,4.288709 2.4375,7.1875 0.0048,-0.165454 -10e-7,-0.331354 0,-0.5 -2.4e-5,-3.122217 -0.819471,-5.710473 -2.4375,-7.6875 -1.618077,-1.989045 -3.669195,-2.999979 -6.1875,-3 z m -35.25,10.875 -0.34375,1 7.40625,0 -0.34375,-1 -6.71875,0 z M 60.5625,48.375 c -0.0066,0.170789 -0.03125,0.321568 -0.03125,0.5 -9e-6,1.916745 0.382875,3.381588 1.125,4.40625 0.754269,1.01262 1.78842,1.500003 3.1875,1.5 1.399053,3e-6 2.457534,-0.48738 3.1875,-1.5 0.742095,-1.012611 1.124982,-2.477454 1.125,-4.40625 -2e-6,-0.175479 -0.02493,-0.332192 -0.03125,-0.5 -0.06317,1.676664 -0.41917,2.985766 -1.09375,3.90625 -0.729966,1.01262 -1.788447,1.500003 -3.1875,1.5 -1.39908,3e-6 -2.433231,-0.48738 -3.1875,-1.5 C 60.983211,51.351976 60.626958,50.037098 60.5625,48.375 Z M 36,68 l 1,1 22,0 1,-1 -24,0 z"
       inkscape:connector-curvature="0"
       id="path62"
       style="opacity:0.75;fill:white;fill-opacity:1;stroke:none" />
    <path
       d="m 35.4375,36.28125 -3.75,10.78125 0.34375,0 3.40625,-9.78125 3.3125,9.78125 0.34375,0 -3.65625,-10.78125 z m 29.40625,4.6875 c -1.39908,1.5e-5 -2.433231,0.475344 -3.1875,1.5 -0.742125,1.012629 -1.125009,2.489526 -1.125,4.40625 -10e-7,0.178434 0.02463,0.329389 0.03125,0.5 0.06446,-1.663834 0.420711,-2.987889 1.09375,-3.90625 0.754269,-1.024656 1.78842,-1.499985 3.1875,-1.5 1.399053,1.5e-5 2.457534,0.487401 3.1875,1.5 0.67458,0.920501 1.030584,2.2296 1.09375,3.90625 0.0063,-0.167809 0.03125,-0.324519 0.03125,-0.5 -1.8e-5,-1.928778 -0.382905,-3.393621 -1.125,-4.40625 -0.729966,-1.012599 -1.788447,-1.499985 -3.1875,-1.5 z m 11.0625,6.40625 c -0.0837,2.897674 -0.906868,5.305875 -2.4375,7.1875 -1.618077,1.977009 -3.669195,2.90625 -6.1875,2.90625 -1.423413,0 -2.65509,-0.289251 -3.75,-0.84375 -1.094934,-0.566583 -2.099742,-1.443615 -3,-2.625 l 0,1 c 0.900258,1.181385 1.905066,2.058417 3,2.625 1.09491,0.554499 2.326587,0.84375 3.75,0.84375 2.518305,0 4.569423,-0.929241 6.1875,-2.90625 1.618029,-1.989063 2.437476,-4.565265 2.4375,-7.6875 -10e-7,-0.168645 0.0048,-0.334483 0,-0.5 z m -46,4.65625 L 28.125,57 l -6.65625,0 -0.375,1 7.03125,0 1.78125,-4.96875 10.96875,0 1.6875,4.96875 7.125,0 -0.375,-1 -6.75,0 -1.6875,-4.96875 -10.96875,0 z M 53.96875,57 l 0,1 6.5625,0 0,-1 -6.5625,0 z M 36,68 48,80 60,68 59,68 48,79 37,68 36,68 Z"
       inkscape:connector-curvature="0"
       id="path64"
       style="opacity:0.15;fill:black;fill-opacity:1;stroke:none" />
  </g>
</svg>
