<?xml version="1.0" encoding="UTF-8" standalone="no"?>
<svg
   xmlns:dc="http://purl.org/dc/elements/1.1/"
   xmlns:cc="http://creativecommons.org/ns#"
   xmlns:rdf="http://www.w3.org/1999/02/22-rdf-syntax-ns#"
   xmlns:svg="http://www.w3.org/2000/svg"
   xmlns="http://www.w3.org/2000/svg"
   xmlns:xlink="http://www.w3.org/1999/xlink"
   xmlns:sodipodi="http://sodipodi.sourceforge.net/DTD/sodipodi-0.dtd"
   xmlns:inkscape="http://www.inkscape.org/namespaces/inkscape"
   height="96"
   width="96"
   id="svg2"
   version="1.1"
   inkscape:version="0.91 r13725"
   sodipodi:docname="insert-image.svg">
  <metadata
     id="metadata68">
    <rdf:RDF>
      <cc:Work
         rdf:about="">
        <dc:format>image/svg+xml</dc:format>
        <dc:type
           rdf:resource="http://purl.org/dc/dcmitype/StillImage" />
      </cc:Work>
    </rdf:RDF>
  </metadata>
  <sodipodi:namedview
     pagecolor="#ffffff"
     bordercolor="#666666"
     borderopacity="1"
     objecttolerance="10"
     gridtolerance="10"
     guidetolerance="10"
     inkscape:pageopacity="0"
     inkscape:pageshadow="2"
     inkscape:window-width="1366"
     inkscape:window-height="708"
     id="namedview66"
     showgrid="false"
     inkscape:zoom="6.9532167"
     inkscape:cx="34.515911"
     inkscape:cy="38.892875"
     inkscape:window-x="0"
     inkscape:window-y="24"
     inkscape:window-maximized="1"
     inkscape:current-layer="svg2" />
  <defs
     id="defs4">
    <linearGradient
       x2="0"
       y1="92.54"
       y2="7.02"
       gradientUnits="userSpaceOnUse"
       id="ButtonShadow-0"
       gradientTransform="matrix(1.0059 0 0 0.99417 100 0)">
      <stop
         stop-color="#000000"
         stop-opacity="1"
         id="stop7" />
      <stop
         stop-color="#000000"
         stop-opacity="0.588"
         offset="1"
         id="stop9" />
    </linearGradient>
    <linearGradient
       x2="0"
       xlink:href="#ButtonShadow-0"
       y1="6.132"
       y2="90.24"
       gradientUnits="userSpaceOnUse"
       id="linearGradient3780"
       gradientTransform="matrix(1.02381 0 0 -1.0119 -1.143 98.07)" />
    <linearGradient
       x2="0"
       xlink:href="#ButtonShadow-0"
       y1="6.132"
       y2="90.24"
       gradientUnits="userSpaceOnUse"
       id="linearGradient3721"
       gradientTransform="matrix(1 0 0 -1 0 97)" />
    <radialGradient
       cy="90.17"
       r="42"
       gradientUnits="userSpaceOnUse"
       id="radialGradient3619-3"
       cx="48"
       gradientTransform="matrix(1.15731,0,0,0.99591,-7.551,0.197)">
      <stop
         stop-color="#ffffff"
         stop-opacity="1"
         id="stop14" />
      <stop
         stop-color="#ffffff"
         stop-opacity="0"
         offset="1"
         id="stop16" />
    </radialGradient>
    <linearGradient
       x2="0"
       y1="-0.667"
       y2="18"
       gradientUnits="userSpaceOnUse"
       id="linearGradient3117"
       gradientTransform="matrix(3.8612142,0,0,3.8612142,1.6645358,14.585857)">
      <stop
         stop-color="#1a1a1a"
         stop-opacity="1"
         id="stop19" />
      <stop
         stop-color="#4d4d4d"
         stop-opacity="1"
         offset="1"
         id="stop21" />
    </linearGradient>
    <rect
       x="6"
       rx="6"
       y="6"
       fill="#000000"
       fill-opacity="1"
       stroke="none"
       fill-rule="nonzero"
       height="84"
       id="SVGCleanerId_0"
       opacity="0.6"
       width="84" />
  </defs>
  <path
     style="fill:url(#linearGradient3117);fill-opacity:1;stroke:none"
     id="path60"
     inkscape:connector-curvature="0"
     d="m 21.332596,9.4375718 c -2.333577,0 -4.223203,1.9268542 -4.223203,4.3036452 l 0,42.875566 c 0,2.376791 1.889626,4.303645 4.223203,4.303645 l 53.333021,0 c 2.333576,0 4.223203,-1.926854 4.223203,-4.303645 l 0,-42.875566 c 0,-2.376791 -1.889627,-4.3036452 -4.223203,-4.3036452 l -53.333021,0 z m 40.703633,8.5670692 c 3.101804,0 5.630937,2.592357 5.630937,5.7516 0,3.159243 -2.529134,5.711379 -5.630937,5.711379 -3.101805,0 -5.630938,-2.552136 -5.630938,-5.711379 0,-3.159243 2.529133,-5.7516 5.630938,-5.7516 z m -19.66806,11.462979 14.037122,12.870714 4.223203,-4.303645 12.629388,10.015025 0,7.159334 -50.517552,0 0,-12.870714 6.998451,-8.60729 5.630937,4.303645 6.998451,-8.567069 z m -9.81392,39.175236 15.444857,15.444857 15.444857,-15.444857 -30.889714,0 z" />
  <path
     style="opacity:0.75;fill:#ffffff;fill-opacity:1;stroke:none"
     id="path62"
     inkscape:connector-curvature="0"
     d="m 21.332596,9.4375718 c -2.333577,0 -4.223203,1.9268542 -4.223203,4.3036452 l 0,1.287071 c 0,-2.376791 1.889626,-4.303645 4.223203,-4.303645 l 53.333021,0 c 2.333576,0 4.223203,1.926854 4.223203,4.303645 l 0,-1.287071 c 0,-2.376791 -1.889627,-4.3036452 -4.223203,-4.3036452 l -53.333021,0 z M 56.485733,24.399777 c -0.02352,0.212274 -0.08044,0.425176 -0.08044,0.643536 0,3.159242 2.529133,5.711379 5.630938,5.711379 3.101803,0 5.630937,-2.552137 5.630937,-5.711379 0,-0.21836 -0.05693,-0.431262 -0.08044,-0.643536 -0.316751,2.85411 -2.663081,5.067843 -5.550495,5.067843 -2.887415,0 -5.233745,-2.213733 -5.550496,-5.067843 z m -33.745403,30.809271 0,1.287072 50.517552,0 0,-1.287072 -50.517552,0 z m 9.813919,13.433808 1.287072,1.287072 28.315571,0 1.287071,-1.287072 -30.889714,0 z" />
  <path
     style="opacity:0.15;fill:#000000;fill-opacity:1;stroke:none"
     id="path64"
     inkscape:connector-curvature="0"
     d="m 62.036229,16.717569 c -3.101805,0 -5.630938,2.592358 -5.630938,5.751601 0,0.218359 0.05693,0.431619 0.08044,0.643535 0.316751,-2.858929 2.663081,-5.108064 5.550496,-5.108064 2.887414,0 5.233744,2.249135 5.550495,5.108064 0.02352,-0.211916 0.08044,-0.425176 0.08044,-0.643535 0,-3.159243 -2.529133,-5.751601 -5.630937,-5.751601 z m -19.66806,11.46298 -6.998451,8.567069 -5.630937,-4.303645 -6.998451,8.60729 0,1.287071 6.998451,-8.60729 5.630937,4.303645 6.998451,-8.567069 14.037122,12.870714 4.223203,-4.303645 12.629388,10.015025 0,-1.287072 L 60.628494,36.747618 56.405291,41.051263 42.368169,28.180549 Z m -25.258776,27.149162 0,1.287072 c 0,2.376791 1.889626,4.303645 4.223203,4.303645 l 53.333021,0 c 2.333576,0 4.223203,-1.926854 4.223203,-4.303645 l 0,-1.287072 c 0,2.376791 -1.889627,4.303645 -4.223203,4.303645 l -53.333021,0 c -2.333577,0 -4.223203,-1.926854 -4.223203,-4.303645 z m 15.444856,13.313145 15.444857,15.444857 15.444857,-15.444857 -1.287071,0 -14.157786,14.157786 -14.157785,-14.157786 -1.287072,0 z" />
</svg>
