<?xml version="1.0" encoding="UTF-8" standalone="no"?>
<svg
   xmlns:dc="http://purl.org/dc/elements/1.1/"
   xmlns:cc="http://creativecommons.org/ns#"
   xmlns:rdf="http://www.w3.org/1999/02/22-rdf-syntax-ns#"
   xmlns:svg="http://www.w3.org/2000/svg"
   xmlns="http://www.w3.org/2000/svg"
   xmlns:xlink="http://www.w3.org/1999/xlink"
   xmlns:sodipodi="http://sodipodi.sourceforge.net/DTD/sodipodi-0.dtd"
   xmlns:inkscape="http://www.inkscape.org/namespaces/inkscape"
   height="96"
   width="96"
   id="svg2"
   version="1.1"
   inkscape:version="0.91 r13725"
   sodipodi:docname="insert-link.svg">
  <metadata
     id="metadata68">
    <rdf:RDF>
      <cc:Work
         rdf:about="">
        <dc:format>image/svg+xml</dc:format>
        <dc:type
           rdf:resource="http://purl.org/dc/dcmitype/StillImage" />
      </cc:Work>
    </rdf:RDF>
  </metadata>
  <sodipodi:namedview
     pagecolor="#ffffff"
     bordercolor="#666666"
     borderopacity="1"
     objecttolerance="10"
     gridtolerance="10"
     guidetolerance="10"
     inkscape:pageopacity="0"
     inkscape:pageshadow="2"
     inkscape:window-width="640"
     inkscape:window-height="480"
     id="namedview66"
     showgrid="false"
     inkscape:zoom="13.906433"
     inkscape:cx="57.319791"
     inkscape:cy="25.685112"
     inkscape:window-x="226"
     inkscape:window-y="200"
     inkscape:window-maximized="0"
     inkscape:current-layer="svg2" />
  <defs
     id="defs4">
    <linearGradient
       x2="0"
       y1="92.54"
       y2="7.02"
       gradientUnits="userSpaceOnUse"
       id="ButtonShadow-0"
       gradientTransform="matrix(1.0059 0 0 0.99417 100 0)">
      <stop
         stop-color="#000000"
         stop-opacity="1"
         id="stop7" />
      <stop
         stop-color="#000000"
         stop-opacity="0.588"
         offset="1"
         id="stop9" />
    </linearGradient>
    <linearGradient
       x2="0"
       xlink:href="#ButtonShadow-0"
       y1="6.132"
       y2="90.24"
       gradientUnits="userSpaceOnUse"
       id="linearGradient3780"
       gradientTransform="matrix(1.02381 0 0 -1.0119 -1.143 98.07)" />
    <linearGradient
       x2="0"
       xlink:href="#ButtonShadow-0"
       y1="6.132"
       y2="90.24"
       gradientUnits="userSpaceOnUse"
       id="linearGradient3721"
       gradientTransform="matrix(1 0 0 -1 0 97)" />
    <radialGradient
       cy="90.17"
       r="42"
       gradientUnits="userSpaceOnUse"
       id="radialGradient3619-3"
       cx="48"
       gradientTransform="matrix(1.15731 0 0 0.99591 -7.551 0.197)">
      <stop
         stop-color="#ffffff"
         stop-opacity="1"
         id="stop14" />
      <stop
         stop-color="#ffffff"
         stop-opacity="0"
         offset="1"
         id="stop16" />
    </radialGradient>
    <linearGradient
       x2="0"
       y1="2"
       y2="18"
       gradientUnits="userSpaceOnUse"
       id="linearGradient4179"
       gradientTransform="matrix(3.7484451,0,0,3.7484451,3.0162474,8.0629732)">
      <stop
         stop-color="#1a1a1a"
         stop-opacity="1"
         id="stop19" />
      <stop
         stop-color="#4d4d4d"
         stop-opacity="1"
         offset="1"
         id="stop21" />
    </linearGradient>
    <rect
       x="6"
       rx="6"
       y="6"
       fill="#000000"
       fill-opacity="1"
       stroke="none"
       fill-rule="nonzero"
       height="84"
       id="SVGCleanerId_0"
       opacity="0.6"
       width="84" />
  </defs>
  <path
     style="fill:url(#linearGradient4179);fill-opacity:1;stroke:none"
     id="path60"
     inkscape:connector-curvature="0"
     d="m 18.010028,18.058827 c -4.153277,0 -7.49689,3.343613 -7.49689,7.49689 l 0,14.99378 c 0,4.153278 3.343613,7.496891 7.49689,7.496891 l 18.742225,0 c 4.153277,0 7.496891,-3.343613 7.496891,-7.496891 l -9.371113,0 -5.622668,0 -9.371113,0 c -1.038319,0 -1.874222,-0.835903 -1.874222,-1.874222 l 0,-11.245335 c 0,-1.03832 0.835903,-1.874223 1.874222,-1.874223 l 9.371113,0 5.622668,0 9.371113,0 c 0,-4.153277 -3.343614,-7.49689 -7.496891,-7.49689 l -18.742225,0 z m 41.232896,0 c -4.153277,0 -7.49689,3.343613 -7.49689,7.49689 l 9.371112,0 5.622668,0 9.371113,0 c 1.038319,0 1.874222,0.835903 1.874222,1.874223 l 0,11.245335 c 0,1.038319 -0.835903,1.874222 -1.874222,1.874222 l -9.371113,0 -5.622668,0 -9.371112,0 c 0,4.153278 3.343613,7.496891 7.49689,7.496891 l 18.742225,0 c 4.153278,0 7.496891,-3.343613 7.496891,-7.496891 l 0,-14.99378 c 0,-4.153277 -3.343613,-7.49689 -7.496891,-7.49689 l -18.742225,0 z M 33.003808,29.304162 c -2.076638,0 -3.748445,1.671807 -3.748445,3.748445 0,2.076639 1.671807,3.748445 3.748445,3.748445 l 29.987561,0 c 2.076639,0 3.748445,-1.671806 3.748445,-3.748445 0,-2.076638 -1.671806,-3.748445 -3.748445,-3.748445 l -29.987561,0 z m 0,31.237043 14.993781,14.99378 14.99378,-14.99378 -29.987561,0 z" />
  <path
     style="opacity:0.75;fill:#ffffff;fill-opacity:1;stroke:none"
     id="path62"
     inkscape:connector-curvature="0"
     d="m 18.010028,18.058827 c -4.153277,0 -7.49689,3.343613 -7.49689,7.49689 l 0,1.249482 c 0,-4.153277 3.343613,-7.49689 7.49689,-7.49689 l 18.742225,0 c 3.729531,0 6.790771,2.689922 7.379752,6.247408 l 0.117139,0 c 0,-4.153277 -3.343614,-7.49689 -7.496891,-7.49689 l -18.742225,0 z m 41.232896,0 c -4.153277,0 -7.49689,3.343613 -7.49689,7.49689 l 0.117139,0 c 0.58898,-3.557486 3.65022,-6.247408 7.379751,-6.247408 l 18.742225,0 c 4.153278,0 7.496891,3.343613 7.496891,7.49689 l 0,-1.249482 c 0,-4.153277 -3.343613,-7.49689 -7.496891,-7.49689 l -18.742225,0 z M 33.003808,29.304162 c -2.076638,0 -3.748445,1.671807 -3.748445,3.748445 0,0.219043 0.04238,0.416194 0.07809,0.624741 0.302872,-1.768591 1.812757,-3.123704 3.670352,-3.123704 l 29.987561,0 c 1.857596,0 3.367481,1.355113 3.670352,3.123704 0.03571,-0.208547 0.07809,-0.405698 0.07809,-0.624741 0,-2.076638 -1.671806,-3.748445 -3.748445,-3.748445 l -29.987561,0 z m -14.99378,9.371113 0,1.249482 c 0,1.038319 0.835903,1.874222 1.874222,1.874222 l 9.371113,0 5.622668,0 9.253974,0 c 0.06692,-0.404198 0.117139,-0.825735 0.117139,-1.249482 l -9.371113,0 -5.622668,0 -9.371113,0 c -1.038319,0 -1.874222,-0.835903 -1.874222,-1.874222 z m 59.975121,0 c 0,1.038319 -0.835903,1.874222 -1.874222,1.874222 l -9.371113,0 -5.622668,0 -9.371112,0 c 0,0.423747 0.05022,0.845284 0.117139,1.249482 l 9.253973,0 5.622668,0 9.371113,0 c 1.038319,0 1.874222,-0.835903 1.874222,-1.874222 l 0,-1.249482 z m -44.981341,21.86593 1.249482,1.249481 27.488597,0 1.249482,-1.249481 -29.987561,0 z" />
  <path
     style="opacity:0.15;fill:#000000;fill-opacity:1;stroke:none"
     id="path64"
     inkscape:connector-curvature="0"
     d="m 19.88425,24.306235 c -1.038319,0 -1.874222,0.835904 -1.874222,1.874223 l 0,1.249482 c 0,-1.03832 0.835903,-1.874223 1.874222,-1.874223 l 9.371113,0 5.622668,0 9.371113,0 c 0,-0.423747 -0.05022,-0.845283 -0.117139,-1.249482 l -9.253974,0 -5.622668,0 -9.371113,0 z m 31.978923,0 c -0.06692,0.404199 -0.117139,0.825735 -0.117139,1.249482 l 9.371112,0 5.622668,0 9.371113,0 c 1.038319,0 1.874222,0.835903 1.874222,1.874223 l 0,-1.249482 c 0,-1.038319 -0.835903,-1.874223 -1.874222,-1.874223 l -9.371113,0 -5.622668,0 -9.253973,0 z m -22.529717,8.121631 c -0.03571,0.208548 -0.07809,0.405698 -0.07809,0.624741 0,2.076639 1.671807,3.748445 3.748445,3.748445 l 29.987561,0 c 2.076639,0 3.748445,-1.671806 3.748445,-3.748445 0,-0.219043 -0.04238,-0.416193 -0.07809,-0.624741 -0.302871,1.768592 -1.812756,3.123705 -3.670352,3.123705 l -29.987561,0 c -1.857595,0 -3.36748,-1.355113 -3.670352,-3.123705 z m -18.820318,6.87215 0,1.249481 c 0,4.153278 3.343613,7.496891 7.49689,7.496891 l 18.742225,0 c 4.153277,0 7.496891,-3.343613 7.496891,-7.496891 l -0.117139,0 c -0.588981,3.557486 -3.650221,6.247409 -7.379752,6.247409 l -18.742225,0 c -4.153277,0 -7.49689,-3.343613 -7.49689,-7.49689 z m 74.968902,0 c 0,4.153277 -3.343613,7.49689 -7.496891,7.49689 l -18.742225,0 c -3.729531,0 -6.790771,-2.689923 -7.379751,-6.247409 l -0.117139,0 c 0,4.153278 3.343613,7.496891 7.49689,7.496891 l 18.742225,0 c 4.153278,0 7.496891,-3.343613 7.496891,-7.496891 l 0,-1.249481 z m -52.478232,21.241189 14.993781,14.99378 14.99378,-14.99378 -1.249482,0 -13.744298,13.744298 -13.744299,-13.744298 -1.249482,0 z" />
</svg>
