<?xml version="1.0" encoding="UTF-8" standalone="no"?>
<svg
   xmlns:dc="http://purl.org/dc/elements/1.1/"
   xmlns:cc="http://creativecommons.org/ns#"
   xmlns:rdf="http://www.w3.org/1999/02/22-rdf-syntax-ns#"
   xmlns:svg="http://www.w3.org/2000/svg"
   xmlns="http://www.w3.org/2000/svg"
   xmlns:xlink="http://www.w3.org/1999/xlink"
   xmlns:sodipodi="http://sodipodi.sourceforge.net/DTD/sodipodi-0.dtd"
   xmlns:inkscape="http://www.inkscape.org/namespaces/inkscape"
   height="96"
   width="96"
   id="svg2"
   version="1.1"
   inkscape:version="0.91 r13725"
   sodipodi:docname="insert-object.svg">
  <metadata
     id="metadata68">
    <rdf:RDF>
      <cc:Work
         rdf:about="">
        <dc:format>image/svg+xml</dc:format>
        <dc:type
           rdf:resource="http://purl.org/dc/dcmitype/StillImage" />
      </cc:Work>
    </rdf:RDF>
  </metadata>
  <sodipodi:namedview
     pagecolor="#ffffff"
     bordercolor="#666666"
     borderopacity="1"
     objecttolerance="10"
     gridtolerance="10"
     guidetolerance="10"
     inkscape:pageopacity="0"
     inkscape:pageshadow="2"
     inkscape:window-width="640"
     inkscape:window-height="480"
     id="namedview66"
     showgrid="false"
     inkscape:zoom="2.4583333"
     inkscape:cx="22.98305"
     inkscape:cy="47.999999"
     inkscape:window-x="100"
     inkscape:window-y="125"
     inkscape:window-maximized="0"
     inkscape:current-layer="svg2" />
  <defs
     id="defs4">
    <linearGradient
       x2="0"
       y1="92.54"
       y2="7.02"
       gradientUnits="userSpaceOnUse"
       id="ButtonShadow-0"
       gradientTransform="matrix(1.0059 0 0 0.99417 100 0)">
      <stop
         stop-color="#000000"
         stop-opacity="1"
         id="stop7" />
      <stop
         stop-color="#000000"
         stop-opacity="0.588"
         offset="1"
         id="stop9" />
    </linearGradient>
    <linearGradient
       x2="0"
       xlink:href="#ButtonShadow-0"
       y1="6.132"
       y2="90.24"
       gradientUnits="userSpaceOnUse"
       id="linearGradient3780"
       gradientTransform="matrix(1.02381 0 0 -1.0119 -1.143 98.07)" />
    <linearGradient
       x2="0"
       xlink:href="#ButtonShadow-0"
       y1="6.132"
       y2="90.24"
       gradientUnits="userSpaceOnUse"
       id="linearGradient3721"
       gradientTransform="matrix(1 0 0 -1 0 97)" />
    <radialGradient
       cy="90.17"
       r="42"
       gradientUnits="userSpaceOnUse"
       id="radialGradient3619-3"
       cx="48"
       gradientTransform="matrix(1.15731 0 0 0.99591 -7.551 0.197)">
      <stop
         stop-color="#ffffff"
         stop-opacity="1"
         id="stop14" />
      <stop
         stop-color="#ffffff"
         stop-opacity="0"
         offset="1"
         id="stop16" />
    </radialGradient>
    <linearGradient
       x2="0"
       y1="2"
       y2="18"
       gradientUnits="userSpaceOnUse"
       id="linearGradient4179"
       gradientTransform="matrix(3,0,0,3,12,26)">
      <stop
         stop-color="#1a1a1a"
         stop-opacity="1"
         id="stop19" />
      <stop
         stop-color="#4d4d4d"
         stop-opacity="1"
         offset="1"
         id="stop21" />
    </linearGradient>
    <rect
       x="6"
       rx="6"
       y="6"
       fill="#000000"
       fill-opacity="1"
       stroke="none"
       fill-rule="nonzero"
       height="84"
       id="SVGCleanerId_0"
       opacity="0.6"
       width="84" />
  </defs>
  <g
     id="g3504"
     transform="matrix(1.3809784,0,0,1.3809784,-18.290649,-26.552542)">
    <path
       d="m 34.5,25.0625 c -3.71801,-0.09881 -6.851377,3.478496 -6.4375,7.140319 0.02219,8.983414 -0.04449,17.969676 0.03351,26.951303 0.27944,3.528976 3.780021,6.196043 7.247374,5.783378 8.93656,-0.02219 17.875968,0.04448 26.81074,-0.03351 3.528976,-0.27944 6.196043,-3.780021 5.783378,-7.247374 -0.02219,-8.93656 0.04448,-17.875968 -0.03351,-26.81074 -0.27944,-3.528976 -3.780021,-6.196043 -7.247374,-5.783378 -8.718873,0 -17.437745,0 -26.156618,0 z m 3.4375,9.875 c 6.708333,0 13.416667,0 20.125,0 0,6.708333 0,13.416667 0,20.125 -6.708333,0 -13.416667,0 -20.125,0 0,-6.708333 0,-13.416667 0,-20.125 z M 36,67.0625 c -1.380821,-0.08684 -2.540024,1.676459 -1.6875,2.90625 2.461455,2.677379 5.157483,5.174487 7.708481,7.783002 1.691495,1.639992 3.309556,3.391385 5.041519,4.966998 1.077283,0.603433 2.262391,-0.06176 2.908861,-0.971361 3.875806,-3.897668 7.819264,-7.776206 11.653639,-11.684889 0.984838,-1.337404 -0.34739,-3.258873 -1.937377,-3 -7.895875,0 -15.791749,0 -23.687623,0 z"
       inkscape:connector-curvature="0"
       id="path42"
       style="opacity:0.1;fill:black;fill-opacity:1;stroke:none" />
    <path
       d="M 34.5,26 C 31.471483,26 29,28.471483 29,31.5 l 0,27 c 0,3.028517 2.471483,5.5 5.5,5.5 l 27,0 c 3.028517,0 5.5,-2.471483 5.5,-5.5 l 0,-27 C 67,28.471483 64.528517,26 61.5,26 l -27,0 z m 3,8 21,0 c 0.295483,0 0.5,0.204517 0.5,0.5 l 0,21 c 0,0.295483 -0.204517,0.5 -0.5,0.5 l -21,0 C 37.204517,56 37,55.795483 37,55.5 l 0,-21 C 37,34.204517 37.204517,34 37.5,34 Z m -1.59375,34 a 0.99789131,0.99789131 0 0 0 -0.625,1.71875 l 12,12 a 0.99789131,0.99789131 0 0 0 1.4375,0 l 12,-12 A 0.99789131,0.99789131 0 0 0 60,68 l -24,0 a 0.99789131,0.99789131 0 0 0 -0.09375,0 z"
       id="path44"
       inkscape:connector-curvature="0"
       style="opacity:0.15;fill:black;fill-opacity:1;stroke:none" />
    <path
       d="M 34.5,27 C 32.007,27 30,29.007 30,31.5 l 0,27 c 0,2.493 2.007,4.5 4.5,4.5 l 27,0 c 2.493,0 4.5,-2.007 4.5,-4.5 l 0,-27 C 66,29.007 63.993,27 61.5,27 Z m 3,6 21,0 c 0.831,0 1.5,0.669 1.5,1.5 l 0,21 c 0,0.831 -0.669,1.5 -1.5,1.5 l -21,0 C 36.669,57 36,56.331 36,55.5 l 0,-21 C 36,33.669 36.669,33 37.5,33 Z M 36,69 48,81 60,69 Z"
       inkscape:connector-curvature="0"
       id="path58"
       style="opacity:0.3;fill:black;fill-opacity:1;stroke:none" />
    <path
       d="M 34.5,26 C 32.007,26 30,28.007 30,30.5 l 0,27 c 0,2.493 2.007,4.5 4.5,4.5 l 27,0 c 2.493,0 4.5,-2.007 4.5,-4.5 l 0,-27 C 66,28.007 63.993,26 61.5,26 Z m 3,6 21,0 c 0.831,0 1.5,0.669 1.5,1.5 l 0,21 c 0,0.831 -0.669,1.5 -1.5,1.5 l -21,0 C 36.669,56 36,55.331 36,54.5 l 0,-21 C 36,32.669 36.669,32 37.5,32 Z M 36,68 48,80 60,68 Z"
       inkscape:connector-curvature="0"
       id="path60"
       style="fill:url(#linearGradient4179);fill-opacity:1;stroke:none" />
    <path
       d="M 34.5,26 C 32.007,26 30,28.007 30,30.5 l 0,1 C 30,29.007 32.007,27 34.5,27 l 27,0 c 2.493,0 4.5,2.007 4.5,4.5 l 0,-1 C 66,28.007 63.993,26 61.5,26 l -27,0 z m 1.5,28.5 0,1 c 0,0.831 0.669,1.5 1.5,1.5 l 21,0 c 0.831,0 1.5,-0.669 1.5,-1.5 l 0,-1 c 0,0.831 -0.669,1.5 -1.5,1.5 l -21,0 C 36.669,56 36,55.331 36,54.5 Z m 0,13.5 1,1 22,0 1,-1 -24,0 z"
       inkscape:connector-curvature="0"
       id="path62"
       style="opacity:0.75;fill:white;fill-opacity:1;stroke:none" />
    <path
       d="M 37.5,31 C 36.669,31 36,31.669 36,32.5 l 0,1 C 36,32.669 36.669,32 37.5,32 l 21,0 c 0.831,0 1.5,0.669 1.5,1.5 l 0,-1 C 60,31.669 59.331,31 58.5,31 l -21,0 z m -7.5,25.5 0,1 c 0,2.493 2.007,4.5 4.5,4.5 l 27,0 c 2.493,0 4.5,-2.007 4.5,-4.5 l 0,-1 c 0,2.493 -2.007,4.5 -4.5,4.5 l -27,0 C 32.007,61 30,58.993 30,56.5 Z M 36,68 48,80 60,68 59,68 48,79 37,68 36,68 Z"
       inkscape:connector-curvature="0"
       id="path64"
       style="opacity:0.15;fill:black;fill-opacity:1;stroke:none" />
  </g>
</svg>
