<?xml version="1.0" encoding="UTF-8" standalone="no"?>
<svg
   xmlns:dc="http://purl.org/dc/elements/1.1/"
   xmlns:cc="http://creativecommons.org/ns#"
   xmlns:rdf="http://www.w3.org/1999/02/22-rdf-syntax-ns#"
   xmlns:svg="http://www.w3.org/2000/svg"
   xmlns="http://www.w3.org/2000/svg"
   xmlns:xlink="http://www.w3.org/1999/xlink"
   xmlns:sodipodi="http://sodipodi.sourceforge.net/DTD/sodipodi-0.dtd"
   xmlns:inkscape="http://www.inkscape.org/namespaces/inkscape"
   height="96"
   width="96"
   id="svg2"
   version="1.1"
   inkscape:version="0.91 r13725"
   sodipodi:docname="internet-radio-new.svg">
  <metadata
     id="metadata78">
    <rdf:RDF>
      <cc:Work
         rdf:about="">
        <dc:format>image/svg+xml</dc:format>
        <dc:type
           rdf:resource="http://purl.org/dc/dcmitype/StillImage" />
      </cc:Work>
    </rdf:RDF>
  </metadata>
  <sodipodi:namedview
     pagecolor="#ffffff"
     bordercolor="#666666"
     borderopacity="1"
     objecttolerance="10"
     gridtolerance="10"
     guidetolerance="10"
     inkscape:pageopacity="0"
     inkscape:pageshadow="2"
     inkscape:window-width="640"
     inkscape:window-height="480"
     id="namedview76"
     showgrid="false"
     inkscape:zoom="2.4583333"
     inkscape:cx="22.98305"
     inkscape:cy="47.999999"
     inkscape:window-x="699"
     inkscape:window-y="83"
     inkscape:window-maximized="0"
     inkscape:current-layer="svg2" />
  <defs
     id="defs4">
    <linearGradient
       id="linearGradient3737">
      <stop
         stop-color="#ffffff"
         stop-opacity="1"
         id="stop7" />
      <stop
         stop-color="#ffffff"
         stop-opacity="0"
         offset="1"
         id="stop9" />
    </linearGradient>
    <linearGradient
       x2="0"
       y1="92.54"
       y2="7.02"
       gradientUnits="userSpaceOnUse"
       id="ButtonShadow-0"
       gradientTransform="matrix(1.0059 0 0 0.99417 100 0)">
      <stop
         stop-color="#000000"
         stop-opacity="1"
         id="stop12" />
      <stop
         stop-color="#000000"
         stop-opacity="0.588"
         offset="1"
         id="stop14" />
    </linearGradient>
    <linearGradient
       x2="0"
       xlink:href="#ButtonShadow-0"
       y1="6.132"
       y2="90.24"
       gradientUnits="userSpaceOnUse"
       id="linearGradient3780"
       gradientTransform="matrix(1.02381 0 0 -1.0119 -1.143 98.07)" />
    <linearGradient
       x2="0"
       xlink:href="#ButtonShadow-0"
       y1="6.132"
       y2="90.24"
       gradientUnits="userSpaceOnUse"
       id="linearGradient3721"
       gradientTransform="matrix(1 0 0 -1 0 97)" />
    <radialGradient
       cy="90.17"
       r="42"
       xlink:href="#linearGradient3737"
       gradientUnits="userSpaceOnUse"
       id="radialGradient3619-3"
       cx="48"
       gradientTransform="matrix(1.15731 0 0 0.99591 -7.551 0.197)" />
    <linearGradient
       x1="7"
       x2="15"
       xlink:href="#linearGradient3737"
       gradientUnits="userSpaceOnUse"
       id="linearGradient3699"
       gradientTransform="matrix(0,2.7,-2.7,0,72.4,10.2)" />
    <linearGradient
       x1="4"
       x2="18"
       xlink:href="#linearGradient3737"
       gradientUnits="userSpaceOnUse"
       id="linearGradient3676"
       gradientTransform="matrix(0,2.7,-2.7,0,75.1,12.9)" />
    <linearGradient
       x2="0"
       y1="7"
       y2="21.04"
       gradientUnits="userSpaceOnUse"
       id="linearGradient3856"
       gradientTransform="matrix(2.7,0,0,2.7,18.4,18.3)">
      <stop
         stop-color="#1a1a1a"
         stop-opacity="1"
         id="stop22" />
      <stop
         stop-color="#4d4d4d"
         stop-opacity="1"
         offset="1"
         id="stop24" />
    </linearGradient>
    <linearGradient
       x1="1"
       x2="21"
       xlink:href="#linearGradient3737"
       gradientUnits="userSpaceOnUse"
       id="linearGradient3089"
       gradientTransform="matrix(0,2.7,-2.7,0,77.8,15.6)" />
    <rect
       x="6"
       rx="6"
       y="6"
       fill="#000000"
       fill-opacity="1"
       stroke="none"
       fill-rule="nonzero"
       height="84"
       id="SVGCleanerId_0"
       opacity="0.6"
       width="84" />
  </defs>
  <g
     id="g3575"
     transform="matrix(1.3428451,0,0,1.3428451,-16.590849,-16.574066)">
    <path
       d="m 48.09375,34.96875 c -3.261185,0 -5.90625,2.69249 -5.90625,5.9375 0,0.857573 0.324964,1.532071 0.625,2.1875 l -10,32.34375 c 7.8e-5,-2.37e-4 -0.03131,0.09399 -0.03125,0.09375 6.4e-5,-2.41e-4 -4.9e-5,0.09399 0,0.09375 4.9e-5,-2.44e-4 -0.03128,0.125247 -0.03125,0.125 3.5e-5,-2.47e-4 -2e-5,0.094 0,0.09375 2e-5,-2.48e-4 -0.03126,0.125249 -0.03125,0.125 6e-6,-2.49e-4 9e-6,0.094 0,0.09375 -9e-6,-2.49e-4 0.03127,0.125248 0.03125,0.125 -2.3e-5,-2.48e-4 3.8e-5,0.094 0,0.09375 -3.8e-5,-2.46e-4 0.0313,0.125244 0.03125,0.125 -5.2e-5,-2.44e-4 0.03132,0.09399 0.03125,0.09375 -6.6e-5,-2.4e-4 0.03133,0.125236 0.03125,0.125 -8e-5,-2.36e-4 0.03134,0.09398 0.03125,0.09375 -9.4e-5,-2.31e-4 0.03136,0.09398 0.03125,0.09375 -1.08e-4,-2.25e-4 0.06262,0.09397 0.0625,0.09375 -1.21e-4,-2.18e-4 0.06263,0.09396 0.0625,0.09375 -1.33e-4,-2.11e-4 0.06265,0.09395 0.0625,0.09375 -1.45e-4,-2.02e-4 0.06266,0.09394 0.0625,0.09375 -1.57e-4,-1.93e-4 0.06267,0.09393 0.0625,0.09375 -1.68e-4,-1.84e-4 0.06268,0.06267 0.0625,0.0625 -1.78e-4,-1.74e-4 0.09394,0.09391 0.09375,0.09375 -1.88e-4,-1.63e-4 0.09395,0.06265 0.09375,0.0625 -1.98e-4,-1.52e-4 0.09396,0.06264 0.09375,0.0625 -2.06e-4,-1.4e-4 0.09396,0.06263 0.09375,0.0625 -2.14e-4,-1.27e-4 0.09397,0.03136 0.09375,0.03125 -2.21e-4,-1.15e-4 0.09398,0.0626 0.09375,0.0625 -2.27e-4,-1.01e-4 0.09398,0.03134 0.09375,0.03125 -2.33e-4,-8.8e-5 0.09399,0.03132 0.09375,0.03125 -2.38e-4,-7.4e-5 0.125242,0.03131 0.125,0.03125 -2.42e-4,-6e-5 0.09399,0.0313 0.09375,0.03125 -2.45e-4,-4.6e-5 0.125247,0.03128 0.125,0.03125 -2.47e-4,-3.1e-5 0.094,1.7e-5 0.09375,0 -2.49e-4,-1.7e-5 0.125249,2e-6 0.125,0 l 5.40625,0 c -3.49e-4,-3e-6 0.156598,-2.5e-5 0.15625,0 -3.48e-4,2.5e-5 0.156595,-0.0313 0.15625,-0.03125 -3.45e-4,5.4e-5 0.125339,-0.03133 0.125,-0.03125 -3.39e-4,8.2e-5 0.156582,-0.03136 0.15625,-0.03125 -3.32e-4,1.1e-4 0.156571,-0.06264 0.15625,-0.0625 -3.21e-4,1.37e-4 0.125309,-0.06266 0.125,-0.0625 -3.09e-4,1.63e-4 0.125295,-0.06269 0.125,-0.0625 -2.95e-4,1.87e-4 0.125278,-0.09396 0.125,-0.09375 -2.78e-4,2.11e-4 0.12526,-0.09398 0.125,-0.09375 -2.6e-4,2.33e-4 0.12524,-0.125254 0.125,-0.125 -2.4e-4,2.54e-4 0.09397,-0.09402 0.09375,-0.09375 -2.18e-4,2.73e-4 0.09394,-0.12529 0.09375,-0.125 -1.95e-4,2.9e-4 0.09392,-0.156555 0.09375,-0.15625 -1.7e-4,3.05e-4 0.06265,-0.125318 0.0625,-0.125 -1.45e-4,3.18e-4 0.06262,-0.125329 0.0625,-0.125 -1.18e-4,3.29e-4 0.03134,-0.156587 0.03125,-0.15625 l 0.375,-1.3125 11.8125,0 0.375,1.3125 c -9.1e-5,-3.37e-4 0.03137,0.156579 0.03125,0.15625 -1.18e-4,-3.29e-4 0.06265,0.125318 0.0625,0.125 -1.45e-4,-3.18e-4 0.06267,0.125305 0.0625,0.125 -1.7e-4,-3.05e-4 0.09394,0.15654 0.09375,0.15625 -1.95e-4,-2.9e-4 0.09397,0.125273 0.09375,0.125 -2.18e-4,-2.73e-4 0.09399,0.094 0.09375,0.09375 -2.4e-4,-2.54e-4 0.12526,0.125233 0.125,0.125 -2.6e-4,-2.33e-4 0.125278,0.09396 0.125,0.09375 -2.78e-4,-2.11e-4 0.125295,0.09394 0.125,0.09375 -2.95e-4,-1.87e-4 0.125309,0.06266 0.125,0.0625 -3.09e-4,-1.63e-4 0.125321,0.06264 0.125,0.0625 -3.21e-4,-1.37e-4 0.156582,0.06261 0.15625,0.0625 -3.32e-4,-1.1e-4 0.156589,0.03133 0.15625,0.03125 -3.39e-4,-8.2e-5 0.125345,0.0313 0.125,0.03125 -3.45e-4,-5.4e-5 0.156598,0.03127 0.15625,0.03125 -3.48e-4,-2.5e-5 0.156599,-3e-6 0.15625,0 l 5.40625,0 c -2.49e-4,2e-6 0.125249,-1.7e-5 0.125,0 -2.49e-4,1.7e-5 0.094,-3.1e-5 0.09375,0 -2.47e-4,3.1e-5 0.125245,-0.0313 0.125,-0.03125 -2.45e-4,4.6e-5 0.09399,-0.03131 0.09375,-0.03125 -2.42e-4,6e-5 0.125238,-0.03132 0.125,-0.03125 -2.38e-4,7.4e-5 0.09398,-0.03134 0.09375,-0.03125 -2.33e-4,8.8e-5 0.09398,-0.03135 0.09375,-0.03125 -2.27e-4,1.01e-4 0.09397,-0.06261 0.09375,-0.0625 -2.21e-4,1.15e-4 0.09396,-0.03138 0.09375,-0.03125 -2.14e-4,1.27e-4 0.09396,-0.06264 0.09375,-0.0625 -2.06e-4,1.4e-4 0.09395,-0.06265 0.09375,-0.0625 -1.98e-4,1.52e-4 0.09394,-0.06266 0.09375,-0.0625 -1.88e-4,1.63e-4 0.09393,-0.09392 0.09375,-0.09375 -1.78e-4,1.74e-4 0.06267,-0.06268 0.0625,-0.0625 -1.68e-4,1.84e-4 0.06266,-0.09394 0.0625,-0.09375 -1.57e-4,1.93e-4 0.06265,-0.09395 0.0625,-0.09375 -1.45e-4,2.02e-4 0.06263,-0.09396 0.0625,-0.09375 -1.33e-4,2.11e-4 0.06262,-0.09397 0.0625,-0.09375 -1.21e-4,2.18e-4 0.06261,-0.09398 0.0625,-0.09375 -1.08e-4,2.25e-4 0.03134,-0.09398 0.03125,-0.09375 -9.4e-5,2.31e-4 0.03133,-0.09399 0.03125,-0.09375 -8e-5,2.36e-4 0.03132,-0.12524 0.03125,-0.125 -6.6e-5,2.4e-4 0.0313,-0.09399 0.03125,-0.09375 -5.2e-5,2.44e-4 0.03129,-0.125246 0.03125,-0.125 -3.8e-5,2.46e-4 2.3e-5,-0.094 0,-0.09375 -2.3e-5,2.48e-4 0.03126,-0.125249 0.03125,-0.125 -9e-6,2.49e-4 -6e-6,-0.094 0,-0.09375 6e-6,2.49e-4 -0.03127,-0.125248 -0.03125,-0.125 2e-5,2.48e-4 -3.5e-5,-0.094 0,-0.09375 3.5e-5,2.47e-4 -0.0313,-0.125244 -0.03125,-0.125 4.9e-5,2.44e-4 -6.4e-5,-0.09399 0,-0.09375 6.4e-5,2.41e-4 -0.03133,-0.09399 -0.03125,-0.09375 l -10,-32.3125 c 0.309595,-0.644846 0.65625,-1.331174 0.65625,-2.21875 0,-3.259204 -2.678296,-5.9375 -5.9375,-5.9375 z m -1.25,24 2.53125,0 0.375,1.21875 -3.28125,0 0.375,-1.21875 z m -2.28125,8.09375 7.0625,0 0.375,1.25 -7.8125,0 0.375,-1.25 z"
       visibility="visible"
       id="path46"
       inkscape:connector-curvature="0"
       style="color:black;visibility:visible;opacity:0.1;fill:black;fill-opacity:1;fill-rule:nonzero;stroke:none;stroke-width:1" />
    <path
       d="m 48.09375,35.90625 c -2.742278,0 -4.96875,2.266375 -4.96875,5 0,0.801312 0.305164,1.546784 0.65625,2.25 l -10.0625,32.5625 a 0.92908338,0.92908338 0 0 0 0.875,1.21875 l 5.40625,0 A 0.92908338,0.92908338 0 0 0 40.90625,76.25 l 0.5625,-2 13.25,0 0.5625,2 a 0.92908338,0.92908338 0 0 0 0.90625,0.6875 l 5.40625,0 a 0.92908338,0.92908338 0 0 0 0.875,-1.21875 l -10.0625,-32.5625 c 0.356646,-0.694064 0.6875,-1.42957 0.6875,-2.25 0,-2.742278 -2.257722,-5 -5,-5 z m -1.96875,22.125 3.96875,0 L 51,61.125 l -5.78125,0 0.90625,-3.09375 z m -2.28125,8.09375 8.5,0 0.90625,3.125 -10.3125,0 0.90625,-3.125 z"
       visibility="visible"
       id="path48"
       inkscape:connector-curvature="0"
       style="color:black;visibility:visible;opacity:0.15;fill:black;fill-opacity:1;fill-rule:nonzero;stroke:none;stroke-width:1" />
    <path
       d="m 48.1,36.85 c -2.236753,0 -4.05,1.813247 -4.05,4.05 0,0.838782 0.238312,1.63174 0.675,2.278125 L 34.6,76 l 5.4,0 0.759375,-2.7 14.68125,0 L 56.2,76 61.6,76 51.475,43.178125 C 51.91169,42.53174 52.15,41.738782 52.15,40.9 c 0,-2.236753 -1.813247,-4.05 -4.05,-4.05 z m -2.7,20.25 5.4,0 1.434375,4.978125 -8.26875,0 L 45.4,57.1 Z m -2.278125,8.1 9.95625,0 1.434375,4.978125 -12.825,0 L 43.121875,65.2 Z"
       visibility="visible"
       inkscape:connector-curvature="0"
       id="path50"
       style="color:black;visibility:visible;opacity:0.3;fill:black;fill-opacity:1;fill-rule:nonzero;stroke:none;stroke-width:1" />
    <path
       d="m 75.1,45.3 c 0,-14.911687 -12.088313,-27 -27,-27 -14.911687,0 -27,12.088313 -27,27 0,14.911687 12.088313,27 27,27 14.911687,0 27,-12.088313 27,-27 z m -2.7,0 c 0,3.595992 -0.7811,7.009548 -2.182891,10.080258 C 66.387311,63.769674 57.924527,69.6 48.1,69.6 34.67948,69.6 23.8,58.72052 23.8,45.3 23.8,31.87948 34.67948,21 48.1,21 61.52052,21 72.4,31.87948 72.4,45.3 Z"
       visibility="visible"
       inkscape:connector-curvature="0"
       id="path64"
       style="color:black;visibility:visible;opacity:0.3;fill:url(#linearGradient3089);fill-opacity:1;stroke:none;stroke-width:1" />
    <path
       d="M 67,42.6 C 67,32.161819 58.538181,23.7 48.1,23.7 c -10.438181,0 -18.9,8.461819 -18.9,18.9 0,10.438181 8.461819,18.9 18.9,18.9 10.438181,0 18.9,-8.461819 18.9,-18.9 z m -2.7,0 c 0,8.947014 -7.252986,16.2 -16.2,16.2 -8.947014,0 -16.2,-7.252986 -16.2,-16.2 0,-8.947014 7.252986,-16.2 16.2,-16.2 8.947014,0 16.2,7.252986 16.2,16.2 z"
       visibility="visible"
       inkscape:connector-curvature="0"
       id="path66"
       style="color:black;visibility:visible;opacity:0.3;fill:url(#linearGradient3676);fill-opacity:1;fill-rule:nonzero;stroke:none;stroke-width:1" />
    <path
       d="m 58.9,39.9 c 0,-5.964675 -4.835325,-10.8 -10.8,-10.8 -5.964675,0 -10.8,4.835325 -10.8,10.8 0,5.964675 4.835325,10.8 10.8,10.8 5.964675,0 10.8,-4.835325 10.8,-10.8 z m -2.7,0 c 0,4.473505 -3.626495,8.1 -8.1,8.1 -4.473505,0 -8.1,-3.626495 -8.1,-8.1 0,-4.473505 3.626495,-8.1 8.1,-8.1 4.473505,0 8.1,3.626495 8.1,8.1 z"
       visibility="visible"
       inkscape:connector-curvature="0"
       id="path68"
       style="color:black;visibility:visible;opacity:0.3;fill:url(#linearGradient3699);fill-opacity:1;fill-rule:nonzero;stroke:none;stroke-width:1" />
    <path
       d="m 48.1,35.85 c -2.236753,0 -4.05,1.813247 -4.05,4.05 0,0.838782 0.238312,1.63174 0.675,2.278125 L 34.6,75 l 5.4,0 0.759375,-2.7 14.68125,0 L 56.2,75 61.6,75 51.475,42.178125 C 51.91169,41.53174 52.15,40.738782 52.15,39.9 c 0,-2.236753 -1.813247,-4.05 -4.05,-4.05 z m -2.7,20.25 5.4,0 1.434375,4.978125 -8.26875,0 L 45.4,56.1 Z m -2.278125,8.1 9.95625,0 1.434375,4.978125 -12.825,0 L 43.121875,64.2 Z"
       visibility="visible"
       inkscape:connector-curvature="0"
       id="path70"
       style="color:black;visibility:visible;fill:url(#linearGradient3856);fill-opacity:1;fill-rule:nonzero;stroke:none;stroke-width:1" />
    <path
       d="m 48.09375,35.84375 c -2.236753,0 -4.03125,1.825747 -4.03125,4.0625 0,0.199237 0.0049,0.401034 0.03125,0.59375 0.2074,-2.042237 1.903044,-3.65625 4,-3.65625 2.075119,0 3.763609,1.582148 4,3.59375 0.02121,-0.173428 0.0625,-0.352697 0.0625,-0.53125 0,-2.236753 -1.825747,-4.0625 -4.0625,-4.0625 z M 44.53125,42.8125 34.59375,75 l 0.3125,0 9.8125,-31.8125 c -0.07612,-0.112681 -0.123643,-0.253945 -0.1875,-0.375 z m 7.125,0 c -0.06386,0.121055 -0.111374,0.262319 -0.1875,0.375 L 61.28125,75 l 0.3125,0 -9.9375,-32.1875 z m -7.40625,18.25 -0.28125,1 8.28125,0 -0.28125,-1 -7.71875,0 z m -2.28125,8.125 -0.28125,1 12.8125,0 -0.28125,-1 -12.25,0 z"
       visibility="visible"
       inkscape:connector-curvature="0"
       id="path72"
       style="color:black;visibility:visible;opacity:0.75;fill:white;fill-opacity:1;fill-rule:nonzero;stroke:none;stroke-width:1" />
    <path
       d="m 52.09375,39.4375 c -0.07844,0.64128 -0.281269,1.241212 -0.625,1.75 l 0.1875,0.625 c 0.302455,-0.573371 0.5,-1.213688 0.5,-1.90625 0,-0.161634 -0.04409,-0.312063 -0.0625,-0.46875 z m -8,0.09375 c -0.01181,0.126017 -0.03125,0.245893 -0.03125,0.375 0,0.692562 0.166296,1.332879 0.46875,1.90625 l 0.1875,-0.625 c -0.327516,-0.484789 -0.537505,-1.04907 -0.625,-1.65625 z m 1.3125,15.5625 -1.4375,4.96875 0.28125,0 1.15625,-3.96875 5.40625,0 1.15625,3.96875 0.28125,0 -1.4375,-4.96875 -5.40625,0 z m -2.28125,8.09375 -1.4375,5 0.28125,0 1.15625,-4 9.9375,0 1.15625,4 0.28125,0 -1.4375,-5 -9.9375,0 z M 40.75,71.3125 40,74 34.90625,74 34.59375,75 40,75 l 0.75,-2.6875 14.6875,0 0.75,2.6875 5.40625,0 -0.3125,-1 -5.09375,0 -0.75,-2.6875 -14.6875,0 z"
       visibility="visible"
       inkscape:connector-curvature="0"
       id="path74"
       style="color:black;visibility:visible;opacity:0.15;fill:black;fill-opacity:1;fill-rule:nonzero;stroke:none;stroke-width:1" />
  </g>
</svg>
