<?xml version="1.0" encoding="UTF-8" standalone="no"?>
<svg
   xmlns:dc="http://purl.org/dc/elements/1.1/"
   xmlns:cc="http://creativecommons.org/ns#"
   xmlns:rdf="http://www.w3.org/1999/02/22-rdf-syntax-ns#"
   xmlns:svg="http://www.w3.org/2000/svg"
   xmlns="http://www.w3.org/2000/svg"
   xmlns:xlink="http://www.w3.org/1999/xlink"
   xmlns:sodipodi="http://sodipodi.sourceforge.net/DTD/sodipodi-0.dtd"
   xmlns:inkscape="http://www.inkscape.org/namespaces/inkscape"
   height="96"
   width="96"
   id="svg2"
   version="1.1"
   inkscape:version="0.91 r13725"
   sodipodi:docname="add.svg">
  <metadata
     id="metadata68">
    <rdf:RDF>
      <cc:Work
         rdf:about="">
        <dc:format>image/svg+xml</dc:format>
        <dc:type
           rdf:resource="http://purl.org/dc/dcmitype/StillImage" />
      </cc:Work>
    </rdf:RDF>
  </metadata>
  <sodipodi:namedview
     pagecolor="#ffffff"
     bordercolor="#666666"
     borderopacity="1"
     objecttolerance="10"
     gridtolerance="10"
     guidetolerance="10"
     inkscape:pageopacity="0"
     inkscape:pageshadow="2"
     inkscape:window-width="1366"
     inkscape:window-height="719"
     id="namedview66"
     showgrid="false"
     inkscape:zoom="2.4583333"
     inkscape:cx="31.322032"
     inkscape:cy="47.999998"
     inkscape:window-x="0"
     inkscape:window-y="24"
     inkscape:window-maximized="1"
     inkscape:current-layer="svg2" />
  <defs
     id="defs4">
    <linearGradient
       x2="0"
       y1="92.54"
       y2="7.02"
       gradientUnits="userSpaceOnUse"
       id="ButtonShadow-0"
       gradientTransform="matrix(1.0059 0 0 0.99417 100 0)">
      <stop
         stop-color="#000000"
         stop-opacity="1"
         id="stop7" />
      <stop
         stop-color="#000000"
         stop-opacity="0.588"
         offset="1"
         id="stop9" />
    </linearGradient>
    <linearGradient
       x2="0"
       xlink:href="#ButtonShadow-0"
       y1="6.132"
       y2="90.24"
       gradientUnits="userSpaceOnUse"
       id="linearGradient3780"
       gradientTransform="matrix(1.02381 0 0 -1.0119 -1.143 98.07)" />
    <linearGradient
       x2="0"
       xlink:href="#ButtonShadow-0"
       y1="6.132"
       y2="90.24"
       gradientUnits="userSpaceOnUse"
       id="linearGradient3721"
       gradientTransform="matrix(1 0 0 -1 0 97)" />
    <radialGradient
       cy="90.17"
       r="42"
       gradientUnits="userSpaceOnUse"
       id="radialGradient3619-3"
       cx="48"
       gradientTransform="matrix(1.15731 0 0 0.99591 -7.551 0.197)">
      <stop
         stop-color="#ffffff"
         stop-opacity="1"
         id="stop14" />
      <stop
         stop-color="#ffffff"
         stop-opacity="0"
         offset="1"
         id="stop16" />
    </radialGradient>
    <linearGradient
       x2="0"
       y1="4.654"
       y2="17.346"
       gradientUnits="userSpaceOnUse"
       id="linearGradient3017"
       gradientTransform="matrix(3.46698,0,0,3.46698,9.863,9.863)">
      <stop
         stop-color="#1a1a1a"
         stop-opacity="1"
         id="stop19" />
      <stop
         stop-color="#4d4d4d"
         stop-opacity="1"
         offset="1"
         id="stop21" />
    </linearGradient>
    <rect
       x="6"
       rx="6"
       y="6"
       fill="#000000"
       fill-opacity="1"
       stroke="none"
       fill-rule="nonzero"
       height="84"
       id="SVGCleanerId_0"
       opacity="0.6"
       width="84" />
  </defs>
  <g
     id="g3408"
     transform="matrix(1.2415884,0,0,1.2415884,-11.596243,-12.837832)">
    <path
       d="m 41.625,24.875 c -1.477784,0.210834 -1.972366,1.817084 -1.78125,3.111551 0,4.337817 0,8.675633 0,13.013449 -4.686756,0.02089 -9.379447,-0.04174 -14.0625,0.03125 -1.52815,0.07874 -2.104175,1.73987 -1.90625,3.049051 0.04152,3.825807 -0.08314,7.664402 0.0625,11.482199 0.202843,1.506424 1.877514,1.877326 3.154273,1.71875 4.250659,0 8.501318,0 12.751977,0 0.02087,4.645091 -0.04171,9.296112 0.03125,13.9375 0.07874,1.52815 1.73987,2.104175 3.049051,1.90625 3.805019,-0.04093 7.622674,0.08234 11.419699,-0.0625 1.506424,-0.202843 1.877326,-1.877514 1.71875,-3.154273 0,-4.208992 0,-8.417985 0,-12.626977 C 60.780501,57.2603 65.504453,57.32308 70.21875,57.25 71.7469,57.17126 72.322925,55.51013 72.125,54.200949 72.08348,50.375142 72.20814,46.536547 72.0625,42.71875 71.859657,41.212326 70.184986,40.841424 68.908227,41 64.626318,41 60.344409,41 56.0625,41 56.04165,36.261158 56.10419,31.51639 56.03125,26.78125 55.95251,25.2531 54.29138,24.677075 52.982199,24.875 c -3.785733,0 -7.571466,0 -11.357199,0 z"
       inkscape:connector-curvature="0"
       id="path42"
       style="opacity:0.1;fill:black;fill-opacity:1;stroke:none" />
    <path
       d="M 41.75,25.96875 A 1.0387467,1.0387467 0 0 0 40.9375,27 l 0,15.09375 -14.9375,0 A 1.0387467,1.0387467 0 0 0 24.96875,43.125 l 0,12.03125 A 1.0387467,1.0387467 0 0 0 26,56.1875 l 14.9375,0 0,14.8125 a 1.0387467,1.0387467 0 0 0 1.03125,1.03125 l 11.96875,0 A 1.0387467,1.0387467 0 0 0 54.96875,71 l 0,-14.8125 15.03125,0 a 1.0387467,1.0387467 0 0 0 1.03125,-1.03125 l 0,-12.03125 A 1.0387467,1.0387467 0 0 0 70,42.09375 l -15.03125,0 0,-15.09375 A 1.0387467,1.0387467 0 0 0 53.9375,25.96875 l -11.96875,0 a 1.0387467,1.0387467 0 0 0 -0.21875,0 z"
       id="path44"
       inkscape:connector-curvature="0"
       style="opacity:0.15;fill:black;fill-opacity:1;stroke:none" />
    <path
       d="m 41.962323,27.000001 0,16.110793 -15.962323,0 0,12.032952 15.962323,0 0,15.856254 11.971642,0 0,-15.856254 16.066035,0 0,-12.032952 -16.066035,0 0,-16.110793 z"
       inkscape:connector-curvature="0"
       id="path46"
       style="opacity:0.3;fill:black;fill-opacity:1;stroke:none" />
    <path
       d="m 41.962323,26.000001 0,16.110793 -15.962323,0 0,12.032952 15.962323,0 0,15.856254 11.971642,0 0,-15.856254 16.066035,0 0,-12.032952 -16.066035,0 0,-16.110793 z"
       inkscape:connector-curvature="0"
       id="path60"
       style="fill:url(#linearGradient3017);fill-opacity:1;stroke:none" />
    <path
       d="m 41.96875,26 0,1 11.96875,0 0,-1 -11.96875,0 z M 26,42.125 l 0,1 15.96875,0 0,-1 -15.96875,0 z m 27.9375,0 0,1 16.0625,0 0,-1 -16.0625,0 z"
       inkscape:connector-curvature="0"
       id="path62"
       style="opacity:0.75;fill:white;fill-opacity:1;stroke:none" />
    <path
       d="m 26,53.15625 0,1 15.96875,0 0,-1 -15.96875,0 z m 27.9375,0 0,1 16.0625,0 0,-1 -16.0625,0 z M 41.96875,69 l 0,1 11.96875,0 0,-1 -11.96875,0 z"
       inkscape:connector-curvature="0"
       id="path64"
       style="opacity:0.15;fill:black;fill-opacity:1;stroke:none" />
  </g>
</svg>
