<?xml version="1.0" encoding="UTF-8" standalone="no"?>
<svg
   xmlns:dc="http://purl.org/dc/elements/1.1/"
   xmlns:cc="http://creativecommons.org/ns#"
   xmlns:rdf="http://www.w3.org/1999/02/22-rdf-syntax-ns#"
   xmlns:svg="http://www.w3.org/2000/svg"
   xmlns="http://www.w3.org/2000/svg"
   xmlns:xlink="http://www.w3.org/1999/xlink"
   xmlns:sodipodi="http://sodipodi.sourceforge.net/DTD/sodipodi-0.dtd"
   xmlns:inkscape="http://www.inkscape.org/namespaces/inkscape"
   height="96"
   width="96"
   id="svg2"
   version="1.1"
   inkscape:version="0.91 r13725"
   sodipodi:docname="lock.svg">
  <metadata
     id="metadata68">
    <rdf:RDF>
      <cc:Work
         rdf:about="">
        <dc:format>image/svg+xml</dc:format>
        <dc:type
           rdf:resource="http://purl.org/dc/dcmitype/StillImage" />
      </cc:Work>
    </rdf:RDF>
  </metadata>
  <sodipodi:namedview
     pagecolor="#ffffff"
     bordercolor="#666666"
     borderopacity="1"
     objecttolerance="10"
     gridtolerance="10"
     guidetolerance="10"
     inkscape:pageopacity="0"
     inkscape:pageshadow="2"
     inkscape:window-width="640"
     inkscape:window-height="480"
     id="namedview66"
     showgrid="false"
     inkscape:zoom="2.4583333"
     inkscape:cx="22.98305"
     inkscape:cy="47.999999"
     inkscape:window-x="91"
     inkscape:window-y="117"
     inkscape:window-maximized="0"
     inkscape:current-layer="svg2" />
  <defs
     id="defs4">
    <linearGradient
       x2="0"
       y1="92.54"
       y2="7.02"
       gradientUnits="userSpaceOnUse"
       id="ButtonShadow-0"
       gradientTransform="matrix(1.0059 0 0 0.99417 100 0)">
      <stop
         stop-color="#000000"
         stop-opacity="1"
         id="stop7" />
      <stop
         stop-color="#000000"
         stop-opacity="0.588"
         offset="1"
         id="stop9" />
    </linearGradient>
    <linearGradient
       x2="0"
       xlink:href="#ButtonShadow-0"
       y1="6.132"
       y2="90.24"
       gradientUnits="userSpaceOnUse"
       id="linearGradient3780"
       gradientTransform="matrix(1.02381 0 0 -1.0119 -1.143 98.07)" />
    <linearGradient
       x2="0"
       xlink:href="#ButtonShadow-0"
       y1="6.132"
       y2="90.24"
       gradientUnits="userSpaceOnUse"
       id="linearGradient3721"
       gradientTransform="matrix(1 0 0 -1 0 97)" />
    <radialGradient
       cy="90.17"
       r="42"
       gradientUnits="userSpaceOnUse"
       id="radialGradient3619-3"
       cx="48"
       gradientTransform="matrix(1.15731 0 0 0.99591 -7.551 0.197)">
      <stop
         stop-color="#ffffff"
         stop-opacity="1"
         id="stop14" />
      <stop
         stop-color="#ffffff"
         stop-opacity="0"
         offset="1"
         id="stop16" />
    </radialGradient>
    <linearGradient
       x2="0"
       y1="-1"
       y2="12"
       gradientUnits="userSpaceOnUse"
       id="linearGradient3048"
       gradientTransform="matrix(3.0000455,0,0,3.0000455,12.416734,31.999407)">
      <stop
         stop-color="#1a1a1a"
         stop-opacity="1"
         id="stop19" />
      <stop
         stop-color="#4d4d4d"
         stop-opacity="1"
         offset="1"
         id="stop21" />
    </linearGradient>
    <rect
       x="6"
       rx="6"
       y="6"
       fill="#000000"
       fill-opacity="1"
       stroke="none"
       fill-rule="nonzero"
       height="84"
       id="SVGCleanerId_0"
       opacity="0.6"
       width="84" />
  </defs>
  <g
     id="g3448"
     transform="matrix(1.8137382,0,0,1.8137382,-39.069279,-40.895534)">
    <path
       d="m 42.000183,26.968081 c -2.712746,-0.143559 -5.445569,1.732337 -5.877072,4.493744 -0.305814,2.658815 -0.08914,5.35363 -0.15427,8.0287 -0.08654,0.633803 0.352858,1.793553 -0.683274,1.477768 -2.965824,-0.239872 -5.626959,2.539337 -5.316817,5.486842 0.01717,6.685672 -0.03448,13.373532 0.02607,20.057825 0.211924,2.774289 2.970643,4.850658 5.688532,4.518289 8.609779,-0.01729 17.221759,0.03463 25.830157,-0.02607 2.774289,-0.211924 4.850658,-2.970643 4.51829,-5.688532 -0.01717,-6.609753 0.03448,-13.221693 -0.02607,-19.830066 -0.211924,-2.774287 -2.970643,-4.850656 -5.688532,-4.518288 -0.625612,-0.07691 -0.124798,-1.280238 -0.28549,-1.822064 -0.05874,-2.542346 0.136701,-5.101401 -0.139227,-7.630017 -0.384546,-2.805066 -3.150242,-4.710657 -5.892115,-4.548131 -4.000061,0 -8.000121,0 -12.000182,0 z m 2.031281,8.062622 c 2.645873,0 5.291747,0 7.93762,0 0,1.979197 0,3.958393 0,5.93759 -2.645873,0 -5.291747,0 -7.93762,0 0,-1.979197 0,-3.958393 0,-5.93759 z"
       inkscape:connector-curvature="0"
       id="path42"
       style="opacity:0.1;fill:black;fill-opacity:1;stroke:none" />
    <path
       d="m 42.000183,28.061847 c -1.427711,0 -2.701022,0.426035 -3.593805,1.31252 -0.892782,0.886486 -1.34377,2.175917 -1.34377,3.625055 l 0,9.062638 -2.062531,0 c -2.168273,0 -3.93756,1.769287 -3.93756,3.937559 l 0,20.000304 c 0,2.168273 1.769287,3.93756 3.93756,3.93756 l 26.000394,0 c 2.168273,0 3.93756,-1.769287 3.93756,-3.93756 l 0,-20.000304 c 0,-2.168272 -1.769287,-3.937559 -3.93756,-3.937559 l -2.062531,0 0,-9.062638 c 0,-1.379568 -0.41067,-2.654037 -1.281269,-3.562554 -0.870599,-0.908517 -2.147879,-1.375021 -3.656306,-1.375021 l -12.000182,0 z m 1.500023,5.875089 9.000136,0 c 0.324765,0 0.562509,0.237744 0.562509,0.562509 l 0,7.562615 -10.125154,0 0,-7.562615 c 0,-0.324765 0.237744,-0.562509 0.562509,-0.562509 z"
       id="path44"
       inkscape:connector-curvature="0"
       style="opacity:0.15;fill:black;fill-opacity:1;stroke:none" />
    <path
       d="m 42.000184,28.99936 c -2.47977,0 -4.000062,1.481351 -4.000062,4.000061 l 0,10.000152 -3.000045,0 c -1.662025,0 -3.000046,1.33802 -3.000046,3.000045 l 0,20.000305 c 0,1.662025 1.338021,3.000046 3.000046,3.000046 l 26.000394,0 c 1.662026,0 3.000046,-1.338021 3.000046,-3.000046 l 0,-20.000305 c 0,-1.662025 -1.33802,-3.000045 -3.000046,-3.000045 l -3.000045,0 0,-10.000152 c 0,-2.401889 -1.36453,-4.000061 -4.000061,-4.000061 z m 1.500023,4.000061 9.000135,0 c 0.831013,0 1.500023,0.66901 1.500023,1.500023 l 0,8.500129 -12.000181,0 0,-8.500129 c 0,-0.831013 0.66901,-1.500023 1.500023,-1.500023 z"
       inkscape:connector-curvature="0"
       id="path46"
       style="opacity:0.3;fill:black;fill-opacity:1;stroke:none" />
    <path
       d="m 42.000184,27.999345 c -2.47977,0 -4.000062,1.481351 -4.000062,4.000061 l 0,10.000152 -3.000045,0 c -1.662025,0 -3.000046,1.33802 -3.000046,3.000045 l 0,20.000305 c 0,1.662025 1.338021,3.000045 3.000046,3.000045 l 26.000394,0 c 1.662026,0 3.000046,-1.33802 3.000046,-3.000045 l 0,-20.000305 c 0,-1.662025 -1.33802,-3.000045 -3.000046,-3.000045 l -3.000045,0 0,-10.000152 c 0,-2.40189 -1.36453,-4.000061 -4.000061,-4.000061 z m 1.500023,4.000061 9.000135,0 c 0.831013,0 1.500023,0.66901 1.500023,1.500023 l 0,8.500129 -12.000181,0 0,-8.500129 c 0,-0.831013 0.66901,-1.500023 1.500023,-1.500023 z"
       inkscape:connector-curvature="0"
       id="path60"
       style="fill:url(#linearGradient3048);fill-opacity:1;stroke:none" />
    <path
       d="m 42.000183,27.999346 c -2.47977,0 -4.000061,1.481351 -4.000061,4.000061 l 0,1.000015 c 0,-2.51871 1.520291,-4.000061 4.000061,-4.000061 l 12.000182,0 c 2.635531,0 4.000061,1.598172 4.000061,4.000061 l 0,-1.000015 c 0,-2.40189 -1.36453,-4.000061 -4.000061,-4.000061 l -12.000182,0 z m -7.000106,14.000213 c -1.662025,0 -3.000046,1.33802 -3.000046,3.000045 l 0,1.000015 c 0,-1.662025 1.338021,-3.000045 3.000046,-3.000045 l 3.000045,0 0,-1.000015 -3.000045,0 z m 7.000106,0 0,1.000015 12.000182,0 0,-1.000015 -12.000182,0 z m 16.000243,0 0,1.000015 3.000045,0 c 1.662026,0 3.000046,1.33802 3.000046,3.000045 l 0,-1.000015 c 0,-1.662025 -1.33802,-3.000045 -3.000046,-3.000045 l -3.000045,0 z"
       inkscape:connector-curvature="0"
       id="path62"
       style="opacity:0.75;fill:white;fill-opacity:1;stroke:none" />
    <path
       d="m 43.500206,30.999392 c -0.831013,0 -1.500023,0.66901 -1.500023,1.500022 l 0,1.000016 c 0,-0.831013 0.66901,-1.500023 1.500023,-1.500023 l 9.000136,0 c 0.831013,0 1.500023,0.66901 1.500023,1.500023 l 0,-1.000016 c 0,-0.831012 -0.66901,-1.500022 -1.500023,-1.500022 l -9.000136,0 z m -11.500175,33.000501 0,1.000015 c 0,1.662025 1.338021,3.000045 3.000046,3.000045 l 26.000394,0 c 1.662026,0 3.000046,-1.33802 3.000046,-3.000045 l 0,-1.000015 c 0,1.662025 -1.33802,3.000045 -3.000046,3.000045 l -26.000394,0 c -1.662025,0 -3.000046,-1.33802 -3.000046,-3.000045 z"
       inkscape:connector-curvature="0"
       id="path64"
       style="opacity:0.15;fill:black;fill-opacity:1;stroke:none" />
  </g>
</svg>
