<?xml version="1.0" encoding="UTF-8" standalone="no"?>
<svg
   xmlns:dc="http://purl.org/dc/elements/1.1/"
   xmlns:cc="http://creativecommons.org/ns#"
   xmlns:rdf="http://www.w3.org/1999/02/22-rdf-syntax-ns#"
   xmlns:svg="http://www.w3.org/2000/svg"
   xmlns="http://www.w3.org/2000/svg"
   xmlns:xlink="http://www.w3.org/1999/xlink"
   xmlns:sodipodi="http://sodipodi.sourceforge.net/DTD/sodipodi-0.dtd"
   xmlns:inkscape="http://www.inkscape.org/namespaces/inkscape"
   display="inline"
   height="96"
   width="96"
   id="svg2"
   version="1.1"
   inkscape:version="0.91 r13725"
   sodipodi:docname="mail-send-receive.svg">
  <metadata
     id="metadata70">
    <rdf:RDF>
      <cc:Work
         rdf:about="">
        <dc:format>image/svg+xml</dc:format>
        <dc:type
           rdf:resource="http://purl.org/dc/dcmitype/StillImage" />
      </cc:Work>
    </rdf:RDF>
  </metadata>
  <sodipodi:namedview
     pagecolor="#ffffff"
     bordercolor="#666666"
     borderopacity="1"
     objecttolerance="10"
     gridtolerance="10"
     guidetolerance="10"
     inkscape:pageopacity="0"
     inkscape:pageshadow="2"
     inkscape:window-width="640"
     inkscape:window-height="480"
     id="namedview68"
     showgrid="false"
     inkscape:zoom="2.4583333"
     inkscape:cx="22.98305"
     inkscape:cy="47.999999"
     inkscape:window-x="75"
     inkscape:window-y="99"
     inkscape:window-maximized="0"
     inkscape:current-layer="svg2" />
  <defs
     id="defs4">
    <linearGradient
       id="linearGradient4081">
      <stop
         stop-color="#4d4d4d"
         stop-opacity="1"
         id="stop7" />
      <stop
         stop-color="#1a1a1a"
         stop-opacity="1"
         offset="1"
         id="stop9" />
    </linearGradient>
    <linearGradient
       x2="0"
       xlink:href="#linearGradient4081"
       y1="72"
       y2="24"
       gradientUnits="userSpaceOnUse"
       id="linearGradient2995"
       gradientTransform="matrix(1 0 0 1 80 0)" />
    <linearGradient
       x2="0"
       y1="92.54"
       y2="7.02"
       gradientUnits="userSpaceOnUse"
       id="ButtonShadow-0"
       gradientTransform="matrix(1.0059 0 0 0.99417 100 0)">
      <stop
         stop-color="#000000"
         stop-opacity="1"
         id="stop13" />
      <stop
         stop-color="#000000"
         stop-opacity="0.588"
         offset="1"
         id="stop15" />
    </linearGradient>
    <linearGradient
       x2="0"
       xlink:href="#ButtonShadow-0"
       y1="6.132"
       y2="90.24"
       gradientUnits="userSpaceOnUse"
       id="linearGradient3780"
       gradientTransform="matrix(1.02381 0 0 -1.0119 -1.143 98.07)" />
    <linearGradient
       x2="0"
       xlink:href="#ButtonShadow-0"
       y1="6.132"
       y2="90.24"
       gradientUnits="userSpaceOnUse"
       id="linearGradient3721-1"
       gradientTransform="matrix(1 0 0 -1 0 97)" />
    <radialGradient
       cy="90.17"
       r="42"
       gradientUnits="userSpaceOnUse"
       id="radialGradient3619-1"
       cx="48"
       gradientTransform="matrix(1.15731 0 0 0.99591 -7.551 0.197)">
      <stop
         stop-color="#ffffff"
         stop-opacity="1"
         id="stop20" />
      <stop
         stop-color="#ffffff"
         stop-opacity="0"
         offset="1"
         id="stop22" />
    </radialGradient>
    <linearGradient
       x2="0"
       xlink:href="#linearGradient4081"
       y1="76"
       y2="39"
       gradientUnits="userSpaceOnUse"
       id="linearGradient3175" />
    <linearGradient
       x2="0"
       xlink:href="#linearGradient4081"
       y1="63"
       y2="20"
       gradientUnits="userSpaceOnUse"
       id="linearGradient3177" />
  </defs>
  <g
     id="g3360"
     transform="matrix(1.3256432,0,0,1.3256432,-15.630874,-17.101509)">
    <path
       id="path40"
       inkscape:connector-curvature="0"
       visibility="visible"
       d="m 51.75,18.96875 c -1.694364,0.165224 -1.952076,2.065225 -1.78125,3.424036 0,4.931572 0,9.863143 0,14.794714 -2.224709,0.08217 -4.485916,-0.165529 -6.6875,0.125 -1.6239,0.596701 -1.652692,2.878676 -0.283454,3.777012 5.279632,5.57619 10.495155,11.220396 15.814704,16.754238 1.352399,1.031947 2.809997,-0.175013 3.620592,-1.272774 C 67.524186,51.109779 72.730271,45.731195 77.75,40.21875 c 0.920768,-1.474975 -0.601061,-3.398482 -2.260576,-3.03125 -1.850641,0 -3.701283,0 -5.551924,0 -0.02083,-5.530388 0.04167,-11.067673 -0.03125,-16.59375 -0.356079,-1.743892 -2.302641,-1.716096 -3.701921,-1.625 -4.818109,0 -9.636219,0 -14.454329,0 z m -16,21 c -1.605376,0.443597 -2.393934,2.164513 -3.613837,3.197696 C 27.522139,48.121531 22.792634,52.993655 18.25,58 c -0.920768,1.474975 0.601061,3.398482 2.260576,3.03125 1.850641,0 3.701283,0 5.551924,0 0.02083,5.530388 -0.04167,11.067673 0.03125,16.59375 0.356079,1.743892 2.302641,1.716096 3.701921,1.625 4.869344,-0.02067 9.745541,0.04146 14.610579,-0.03125 1.743892,-0.356079 1.716096,-2.302641 1.625,-3.701921 0,-4.828526 0,-9.657053 0,-14.485579 2.224709,-0.08217 4.485916,0.165529 6.6875,-0.125 1.6239,-0.596701 1.652692,-2.878676 0.283454,-3.777012 C 47.711915,51.543345 42.487007,45.884511 37.15625,40.34375 36.747251,40.048568 36.248821,39.942016 35.75,39.96875 Z"
       style="color:black;visibility:visible;opacity:0.1;fill:black;fill-opacity:1;fill-rule:nonzero;stroke:none;stroke-width:2" />
    <path
       id="path42"
       visibility="visible"
       d="M 51.90625,20.0625 A 0.93307872,0.93307872 0 0 0 51.0625,21 l 0,17.28125 -7.0625,0 a 0.93307872,0.93307872 0 0 0 -0.6875,1.5625 l 16,17 a 0.93307872,0.93307872 0 0 0 1.375,0 l 16,-17 A 0.93307872,0.93307872 0 0 0 76,38.28125 l -7.15625,0 0,-17.28125 a 0.93307872,0.93307872 0 0 0 -0.9375,-0.9375 L 52,20.0625 a 0.93307872,0.93307872 0 0 0 -0.09375,0 z m -16,21 A 0.93307872,0.93307872 0 0 0 35.3125,41.375 l -16,17 A 0.93307872,0.93307872 0 0 0 20,59.9375 l 7.15625,0 0,17.28125 a 0.93307872,0.93307872 0 0 0 0.9375,0.9375 l 15.90625,0 a 0.93307872,0.93307872 0 0 0 0.9375,-0.9375 l 0,-17.28125 7.0625,0 a 0.93307872,0.93307872 0 0 0 0.6875,-1.5625 l -16,-17 a 0.93307872,0.93307872 0 0 0 -0.78125,-0.3125 z"
       inkscape:connector-curvature="0"
       style="color:black;visibility:visible;opacity:0.15;fill:black;fill-opacity:1;fill-rule:nonzero;stroke:none;stroke-width:2" />
    <path
       id="path44"
       inkscape:connector-curvature="0"
       visibility="visible"
       d="m 52,21 0,18.21875 -8,0 16,17 16,-17 -8.09375,0 L 67.90625,21 52,21 Z m -16,21 -16,17 8.09375,0 0,18.21875 15.90625,0 L 44,59 52,59 36,42 Z"
       style="color:black;visibility:visible;opacity:0.3;fill:black;fill-opacity:1;fill-rule:nonzero;stroke:none;stroke-width:2" />
    <path
       id="path60"
       inkscape:connector-curvature="0"
       visibility="visible"
       d="m 52,20 0,18.21875 -8,0 16,17 16,-17 -8.09375,0 L 67.90625,20 52,20 Z"
       style="color:black;visibility:visible;fill:url(#linearGradient3177);fill-opacity:1;fill-rule:nonzero;stroke:none;stroke-width:2" />
    <path
       id="path62"
       inkscape:connector-curvature="0"
       visibility="visible"
       d="m 36,41 -16,17 8.09375,0 0,18.21875 15.90625,0 L 44,58 52,58 36,41 Z"
       style="color:black;visibility:visible;fill:url(#linearGradient3175);fill-opacity:1;fill-rule:nonzero;stroke:none;stroke-width:2" />
    <path
       id="path64"
       inkscape:connector-curvature="0"
       visibility="visible"
       d="m 52,20 0,1 15.90625,0 0,-1 L 52,20 Z m -8,18.21875 0.9375,1 7.0625,0 0,-1 -8,0 z m 23.90625,0 0,1 7.15625,0 0.9375,-1 -8.09375,0 z M 36,41 20,58 20.9375,58 36,42 51.0625,58 52,58 36,41 Z"
       style="color:black;visibility:visible;opacity:0.75;fill:white;fill-opacity:1;fill-rule:nonzero;stroke:none;stroke-width:2" />
    <path
       id="path66"
       inkscape:connector-curvature="0"
       visibility="visible"
       d="m 44,38.21875 16,17 16,-17 -0.9375,0 -15.0625,16 -15.0625,-16 -0.9375,0 z M 20.9375,57 20,58 l 8.09375,0 0,-1 -7.15625,0 z M 44,57 44,58 52,58 51.0625,57 44,57 Z m -15.90625,18.21875 0,1 15.90625,0 0,-1 -15.90625,0 z"
       style="color:black;visibility:visible;opacity:0.15;fill:black;fill-opacity:1;fill-rule:nonzero;stroke:none;stroke-width:2" />
  </g>
</svg>
