<?xml version="1.0" encoding="UTF-8" standalone="no"?>
<svg
   xmlns:dc="http://purl.org/dc/elements/1.1/"
   xmlns:cc="http://creativecommons.org/ns#"
   xmlns:rdf="http://www.w3.org/1999/02/22-rdf-syntax-ns#"
   xmlns:svg="http://www.w3.org/2000/svg"
   xmlns="http://www.w3.org/2000/svg"
   xmlns:xlink="http://www.w3.org/1999/xlink"
   xmlns:sodipodi="http://sodipodi.sourceforge.net/DTD/sodipodi-0.dtd"
   xmlns:inkscape="http://www.inkscape.org/namespaces/inkscape"
   display="inline"
   height="96"
   width="96"
   id="svg2"
   version="1.1"
   inkscape:version="0.91 r13725"
   sodipodi:docname="mail-attachment.svg">
  <metadata
     id="metadata51">
    <rdf:RDF>
      <cc:Work
         rdf:about="">
        <dc:format>image/svg+xml</dc:format>
        <dc:type
           rdf:resource="http://purl.org/dc/dcmitype/StillImage" />
      </cc:Work>
    </rdf:RDF>
  </metadata>
  <sodipodi:namedview
     pagecolor="#ffffff"
     bordercolor="#666666"
     borderopacity="1"
     objecttolerance="10"
     gridtolerance="10"
     guidetolerance="10"
     inkscape:pageopacity="0"
     inkscape:pageshadow="2"
     inkscape:window-width="640"
     inkscape:window-height="480"
     id="namedview49"
     showgrid="false"
     inkscape:zoom="4.9166667"
     inkscape:cx="46.032724"
     inkscape:cy="-6.7004925"
     inkscape:window-x="256"
     inkscape:window-y="252"
     inkscape:window-maximized="0"
     inkscape:current-layer="svg2" />
  <defs
     id="defs4">
    <linearGradient
       x2="0"
       y1="23.279"
       y2="6.516"
       gradientUnits="userSpaceOnUse"
       id="linearGradient2881"
       gradientTransform="matrix(3.4936458,0,0,4.455301,4.6890565,-19.681928)">
      <stop
         stop-color="#4d4d4d"
         stop-opacity="1"
         id="stop7" />
      <stop
         stop-color="#1a1a1a"
         stop-opacity="1"
         offset="1"
         id="stop9" />
    </linearGradient>
    <radialGradient
       cy="90.17"
       r="42"
       gradientUnits="userSpaceOnUse"
       id="radialGradient3619-5"
       cx="48"
       gradientTransform="matrix(1.15731 0 0 0.99591 -7.551 0.197)">
      <stop
         stop-color="#ffffff"
         stop-opacity="1"
         id="stop12" />
      <stop
         stop-color="#ffffff"
         stop-opacity="0"
         offset="1"
         id="stop14" />
    </radialGradient>
    <linearGradient
       x2="0"
       y1="92.54"
       y2="7.02"
       gradientUnits="userSpaceOnUse"
       id="ButtonShadow-0"
       gradientTransform="matrix(1.0059 0 0 0.99417 100 0)">
      <stop
         stop-color="#000000"
         stop-opacity="1"
         id="stop17" />
      <stop
         stop-color="#000000"
         stop-opacity="0.588"
         offset="1"
         id="stop19" />
    </linearGradient>
    <linearGradient
       x2="0"
       xlink:href="#ButtonShadow-0"
       y1="6.132"
       y2="90.24"
       gradientUnits="userSpaceOnUse"
       id="linearGradient3780"
       gradientTransform="matrix(1.02381 0 0 -1.0119 -1.143 98.07)" />
    <linearGradient
       x2="0"
       xlink:href="#ButtonShadow-0"
       y1="6.132"
       y2="90.24"
       gradientUnits="userSpaceOnUse"
       id="linearGradient3721-2"
       gradientTransform="matrix(1 0 0 -1 0 97)" />
  </defs>
  <path
     style="fill:url(#linearGradient2881);fill-opacity:1;stroke:none"
     d="m 49.591959,9.3791504 c -1.046157,0.015722 -2.117975,0.4095609 -2.839636,1.1639776 L 18.743188,38.478599 c -1.009924,0.979677 -1.392648,2.518628 -1.032595,3.879927 0.360065,1.36129 1.346474,2.356624 2.710561,2.715944 1.364104,0.359333 2.890534,-0.02648 3.872231,-1.034643 l 26.847467,-26.771492 21.942636,0 0,22.503573 L 38.36249,74.432584 24.422459,60.464847 47.268621,37.702613 l 5.292045,0 0,5.561225 -14.456326,14.48506 c -1.009931,0.979682 -1.392657,2.389302 -1.032594,3.750596 0.360065,1.361295 1.475553,2.356621 2.839635,2.715949 1.364094,0.359333 2.761452,-0.02648 3.743157,-1.034643 l 15.618,-15.649039 c 0.755969,-0.720184 1.27491,-1.671938 1.290744,-2.715953 l 0,-10.993122 c 0.01655,-1.056993 -0.411754,-2.096907 -1.16167,-2.84528 -0.749895,-0.748364 -1.780475,-1.180217 -2.83964,-1.163978 l -10.842244,0 c -1.046157,0.01614 -2.117976,0.409561 -2.839636,1.163978 L 16.032626,57.748898 c -1.524778,1.521963 -1.528248,4.035812 0,5.561229 l 19.490227,19.399631 c 1.528555,1.525111 4.025104,1.521664 5.550197,0 L 79.795356,44.039827 c 0.755969,-0.720184 1.274927,-1.671939 1.29074,-2.715953 L 80.95705,13.388408 c -0.005,-1.220267 -0.571966,-2.367886 -1.548917,-3.103941 C 78.72152,9.7326869 77.965352,9.3874831 77.084794,9.3791504 l -27.492835,0 z"
     inkscape:connector-curvature="0"
     id="path43" />
  <path
     style="opacity:0.75;fill:#ffffff;fill-opacity:1;stroke:none"
     d="m 49.58154,9.3791504 c -1.046157,0.015722 -2.122799,0.4092258 -2.844461,1.1636426 L 18.723453,38.470224 c -0.95704,0.928377 -1.34523,2.35759 -1.077448,3.663321 0.119861,-0.853944 0.456481,-1.681819 1.077448,-2.284188 L 46.737079,11.921926 c 0.721662,-0.754417 1.798304,-1.147921 2.844461,-1.163643 l 27.496452,0 c 0.880558,0.0083 1.640673,0.353276 2.327286,0.905055 0.976951,0.736056 1.546559,1.882781 1.551524,3.103048 l 0,-1.379132 c -0.005,-1.220267 -0.574573,-2.366993 -1.551524,-3.103048 C 78.718665,9.7324262 77.95855,9.3874831 77.077992,9.3791504 l -27.496452,0 z M 45.70273,29.807549 c -1.046157,0.01614 -2.079703,0.409226 -2.801363,1.163643 L 16.051384,57.73498 c -0.919811,0.918112 -1.267135,2.199445 -1.077448,3.404733 0.143375,-0.745273 0.505655,-1.454864 1.077448,-2.0256 L 42.901367,32.350324 c 0.72166,-0.754417 1.755206,-1.147507 2.801363,-1.163643 l 10.860668,0 c 1.059165,-0.01625 2.094565,0.415279 2.84446,1.163643 0.749916,0.748373 1.180193,1.787468 1.163643,2.844461 l 0,-1.379132 c 0.01655,-1.056994 -0.413727,-2.096089 -1.163643,-2.844461 -0.749895,-0.748364 -1.785295,-1.179882 -2.84446,-1.163643 l -10.860668,0 z m 27.367159,9.955612 -34.6938,34.650702 -13.274149,-13.27415 -0.689566,0.689566 13.963715,13.963716 34.6938,-34.650702 0,-1.379132 z M 52.555294,43.25409 38.117502,57.73498 c -0.932965,0.905023 -1.306105,2.186039 -1.077447,3.447831 0.143334,-0.758496 0.495517,-1.504197 1.077447,-2.068698 l 14.437792,-14.480891 0,-1.379132 z"
     inkscape:connector-curvature="0"
     id="path45" />
  <path
     style="opacity:0.15;fill:#000000;fill-opacity:1;stroke:none"
     d="M 51.133064,15.886931 24.28308,42.65072 c -0.981697,1.008163 -2.514706,1.393682 -3.87881,1.034349 -1.364086,-0.359321 -2.355101,-1.353876 -2.715167,-2.715167 -0.01885,-0.07128 -0.0283,-0.143337 -0.0431,-0.215489 -0.07508,0.534888 -0.09557,1.070337 0.0431,1.594621 0.360066,1.361291 1.351081,2.355847 2.715167,2.715167 1.364104,0.359333 2.897113,-0.02619 3.87881,-1.034349 l 26.849984,-26.763788 21.936825,0 0,-1.379133 -21.936825,0 z m -3.87881,20.428399 -22.84188,22.755685 0.689566,0.689566 22.152314,-22.066119 5.30104,0 0,-1.379132 -5.30104,0 z m 33.831842,3.663321 c -0.02917,1.027168 -0.547339,1.961764 -1.292937,2.672069 L 41.091256,81.309525 c -1.525093,1.521664 -4.031073,1.52511 -5.559627,0 L 16.051384,61.915475 c -0.573093,-0.572031 -0.934601,-1.280003 -1.077448,-2.0256 -0.193144,1.206917 0.153742,2.482739 1.077448,3.404733 l 19.480245,19.394049 c 1.528554,1.525111 4.034534,1.521664 5.559627,0 L 79.793159,44.029852 c 0.755969,-0.720184 1.277124,-1.671153 1.292937,-2.715167 l 0,-1.336034 z m -20.514595,3.447831 c -0.01583,1.044014 -0.536968,1.994982 -1.292936,2.715166 L 43.634032,61.786182 c -0.981705,1.008163 -2.342324,1.393682 -3.706419,1.034349 -1.364082,-0.359329 -2.484395,-1.353872 -2.84446,-2.715167 -0.02745,-0.103738 -0.02423,-0.197594 -0.0431,-0.301685 -0.105421,0.557862 -0.10949,1.103913 0.0431,1.680817 0.360065,1.361295 1.480378,2.355838 2.84446,2.715167 1.364095,0.359333 2.724714,-0.02619 3.706419,-1.034349 L 59.278565,47.520781 c 0.755968,-0.720184 1.277103,-1.671153 1.292936,-2.715167 l 0,-1.379132 z"
     inkscape:connector-curvature="0"
     id="path47" />
</svg>
