<svg height="96" width="96" xmlns="http://www.w3.org/2000/svg" xmlns:xlink="http://www.w3.org/1999/xlink" xmlns:sodipodi="http://sodipodi.sourceforge.net/DTD/sodipodi-0.dtd" xmlns:inkscape="http://www.inkscape.org/namespaces/inkscape">
 <defs>
  <linearGradient id="linearGradient3737">
   <stop stop-color="#ffffff" stop-opacity="1"/>
   <stop stop-color="#ffffff" stop-opacity="0" offset="1"/>
  </linearGradient>
  <filter x="-0.192" y="-0.192" height="1.384" color-interpolation-filters="sRGB" id="filter3794" width="1.384">
   <feGaussianBlur stdDeviation="5.28"/>
  </filter>
  <linearGradient x2="0" xlink:href="#linearGradient3737" y1="20.221" y2="138.66" gradientUnits="userSpaceOnUse" id="linearGradient3613"/>
  <clipPath id="clipPath3613">
   <rect x="6" rx="6" y="6" height="84" width="84"/>
  </clipPath>
  <linearGradient x2="0" y1="92.54" y2="7.02" gradientUnits="userSpaceOnUse" id="ButtonShadow-4" gradientTransform="matrix(1.0059 0 0 0.99417 0 0)">
   <stop stop-color="#000000" stop-opacity="1"/>
   <stop stop-color="#000000" stop-opacity="0.588" offset="1"/>
  </linearGradient>
  <linearGradient x2="0" xlink:href="#ButtonColor-6" y1="90" y2="5.988" gradientUnits="userSpaceOnUse" id="linearGradient2982"/>
  <linearGradient x2="0" xlink:href="#linearGradient3737" y1="6" y2="74.09" gradientUnits="userSpaceOnUse" id="linearGradient2984"/>
  <radialGradient cy="89.69" r="42" xlink:href="#linearGradient3737" gradientUnits="userSpaceOnUse" id="radialGradient2986" cx="47.967" gradientTransform="matrix(1.33411 0 0 0.95759 -16.03 2.111)"/>
  <linearGradient x2="0" y1="122" y2="5.425" gradientUnits="userSpaceOnUse" id="ButtonColor-6">
   <stop stop-color="#dcdcdc" stop-opacity="1"/>
   <stop stop-color="#f5f5f5" stop-opacity="1" offset="1"/>
  </linearGradient>
  <linearGradient x2="0" xlink:href="#ButtonShadow-4" y1="91.15" y2="7.291" gradientUnits="userSpaceOnUse" id="linearGradient3660" gradientTransform="matrix(1.02381 0 0 1.0119 -1.143 -0.083)"/>
  <linearGradient x2="0" xlink:href="#ButtonShadow-4" y1="91.15" y2="7.291" gradientUnits="userSpaceOnUse" id="linearGradient3643"/>
  <linearGradient x2="0" y1="78.923" y2="16.641" gradientUnits="userSpaceOnUse" id="linearGradient4073">
   <stop stop-color="#4d81cf" stop-opacity="1"/>
   <stop stop-color="#9cb8e4" stop-opacity="1" offset="1"/>
  </linearGradient>
  <linearGradient x1="39.819" x2="44.586" xlink:href="#linearGradient3737" y1="13.06" y2="29.471" gradientUnits="userSpaceOnUse" id="linearGradient3982" gradientTransform="matrix(-0.96032 0.27889 0.27889 0.96032 111.44 15.295)"/>
  <linearGradient x2="0" xlink:href="#linearGradient3737" y1="56.924" y2="89.995" gradientUnits="userSpaceOnUse" id="linearGradient3980" gradientTransform="matrix(1 0 0 1 -10 -3)"/>
  <linearGradient x2="0" xlink:href="#linearGradient3737" y1="28.946" y2="48.09" gradientUnits="userSpaceOnUse" id="linearGradient3929" gradientTransform="matrix(1 0 0 1 44.28 16.233)"/>
  <linearGradient x2="0" xlink:href="#linearGradient3737" y1="27.41" y2="56.865" gradientUnits="userSpaceOnUse" id="linearGradient3926" gradientTransform="matrix(-1 0 0 1 80.942 38.33)"/>
  <linearGradient x2="0" xlink:href="#linearGradient3737" y1="63.14" y2="76.55" gradientUnits="userSpaceOnUse" id="linearGradient3235" gradientTransform="matrix(-1 0 0 1 85.59 12)"/>
  <clipPath id="clipPath4146">
   <rect x="16" y="26" height="64" width="64"/>
  </clipPath>
  <linearGradient x2="0" xlink:href="#ButtonColor-6" y1="68.26" y2="27.22" gradientUnits="userSpaceOnUse" id="linearGradient4184"/>
 </defs>
 <g display="inline">
  <path d="M 43.09375,3.96875 C 41.952738,3.9830955 40.91089,4.1673997 40.3125,4.0625 A 1.0281567,1.0281567 0 0 0 39.96875,4.03125 C 39.411847,4.1118086 38.33328,3.9633236 37.1875,4 c -0.57289,0.018338 -1.187117,0.076135 -1.78125,0.375 -0.594133,0.298865 -1.150664,0.8705016 -1.4375,1.59375 a 1.0281567,1.0281567 0 0 0 -0.0625,0.4375 c 0.05783,0.7808722 -0.428666,1.5621849 -1.0625,1.9375 C 32.217988,8.714285 31.634111,8.7704838 30.96875,8.125 30.807137,7.9532497 30.652005,7.2878304 30.40625,6.40625 30.283372,5.9654598 30.12251,5.4601289 29.75,5 29.37749,4.5398711 28.756577,4.1683221 28.0625,4.0625 a 1.0281567,1.0281567 0 0 0 -0.125,0 C 25.266249,3.9866864 22.589392,4.0529222 19.96875,4.03125 A 1.0281567,1.0281567 0 0 0 19.78125,4.0625 C 18.948106,4.2121718 18.289214,4.7359346 17.9375,5.3125 17.585786,5.8890654 17.455364,6.4519653 17.34375,6.9375 17.232136,7.4230347 17.120365,7.8087855 17,8.03125 c -0.120365,0.2224645 -0.170767,0.2942628 -0.46875,0.375 a 1.0281567,1.0281567 0 0 0 -0.125,0.0625 C 15.935872,8.6670518 15.656284,8.6507984 15.4375,8.59375 15.218716,8.5367016 15.031339,8.4124972 14.8125,8.15625 14.374823,7.6437556 13.987177,6.6287553 13.78125,5.75 A 1.0281567,1.0281567 0 0 0 13.59375,5.375 C 13.044279,4.6774661 12.260526,4.2514105 11.5,4.125 10.739474,3.9985895 10.000137,4.1015228 9.3125,4.3125 7.9372267,4.7344543 6.7327111,5.5650488 5.90625,6.125 a 1.0281567,1.0281567 0 0 0 -0.125,0.09375 C 4.9067247,7.0181816 3.8424417,8.0842745 3.09375,9.375 2.3450583,10.665725 1.8810728,12.259188 2.46875,13.84375 A 1.0281567,1.0281567 0 0 0 2.53125,14 c 0.3771886,0.673751 1.0134927,1.091051 1.5625,1.3125 0.5490073,0.221449 1.0352959,0.299955 1.4375,0.40625 0.4022041,0.106295 0.6919109,0.240589 0.8125,0.34375 0.1205891,0.103161 0.1877431,0.155108 0.21875,0.59375 a 1.0281567,1.0281567 0 0 0 0.03125,0.15625 c 0.1995515,0.894642 0.017971,1.062067 -0.5,1.40625 C 5.5757786,18.562933 4.6256584,18.809805 3.75,19.03125 A 1.0281567,1.0281567 0 0 0 3.40625,19.1875 c -1.2182608,0.852373 -1.460717,2.264372 -1.4375,3.375 0.023217,1.110628 0.1984961,2.129459 0.09375,2.71875 a 1.0281567,1.0281567 0 0 0 -0.03125,0.3125 C 2.1036265,26.159371 1.9423173,27.282292 2,28.4375 c 0.028841,0.577604 0.1113701,1.192873 0.4375,1.78125 0.3261299,0.588377 0.9420253,1.095032 1.6875,1.34375 A 1.0281567,1.0281567 0 0 0 4.59375,31.625 C 5.6563792,31.473503 6.2933903,32.168187 6.5,33.03125 6.6033049,33.462782 6.5419587,33.885606 6.375,34.1875 6.2080413,34.489394 5.939737,34.748537 5.3125,34.875 l 0,0.03125 c -1.0546439,-0.02393 -2.0395875,0.41056 -2.625,1.15625 -0.6195746,0.789206 -0.8422657,1.825366 -0.625,2.875 l -0.03125,0 c 0.1528444,2.10571 -0.3650771,4.61548 0.25,7.15625 A 1.0281567,1.0281567 0 0 0 2.375,46.3125 c 0.3741954,0.707847 1.0209555,1.15147 1.59375,1.375 0.5727945,0.22353 1.1091923,0.307694 1.53125,0.40625 0.4220577,0.09856 0.6861728,0.209539 0.8125,0.3125 0.1263272,0.102961 0.2144139,0.191587 0.25,0.65625 a 1.0281567,1.0281567 0 0 0 0.03125,0.125 c 0.2030651,0.896445 0.017796,1.062622 -0.5,1.40625 C 5.5759538,50.937378 4.6276016,51.185529 3.75,51.40625 A 1.0281567,1.0281567 0 0 0 3.40625,51.5625 c -1.2182608,0.852373 -1.460717,2.264372 -1.4375,3.375 0.023217,1.110628 0.1984961,2.129459 0.09375,2.71875 a 1.0281567,1.0281567 0 0 0 -0.03125,0.3125 C 2.1036265,58.534371 1.9423173,59.657292 2,60.8125 c 0.028841,0.577604 0.1113701,1.192873 0.4375,1.78125 0.3261299,0.588377 0.9420253,1.095032 1.6875,1.34375 A 1.0281567,1.0281567 0 0 0 4.59375,64 C 5.6563788,63.848504 6.2933902,64.543186 6.5,65.40625 6.6033049,65.837782 6.5419587,66.260606 6.375,66.5625 6.2080413,66.864394 5.939737,67.123537 5.3125,67.25 l 0,0.03125 c -1.0546439,-0.02393 -2.0395875,0.410559 -2.625,1.15625 -0.6195746,0.789206 -0.8422657,1.825366 -0.625,2.875 l -0.03125,0 c 0.1528444,2.10571 -0.3650771,4.61548 0.25,7.15625 A 1.0281567,1.0281567 0 0 0 2.375,78.6875 c 0.3741954,0.707847 1.0209555,1.15147 1.59375,1.375 0.5727945,0.22353 1.1091924,0.307694 1.53125,0.40625 0.4220576,0.09856 0.6861727,0.209539 0.8125,0.3125 0.1263273,0.102961 0.2144138,0.191587 0.25,0.65625 a 1.0281567,1.0281567 0 0 0 0.03125,0.125 c 0.1079854,0.467806 0.04831,0.707729 -0.03125,0.875 -0.07956,0.167271 -0.2118036,0.321931 -0.5,0.5 C 5.4861073,83.293638 4.431635,83.565744 3.46875,84 A 1.0281567,1.0281567 0 0 0 3.1875,84.1875 c -0.6292459,0.613303 -0.9497881,1.426131 -1,2.1875 -0.050212,0.761369 0.1355877,1.468234 0.40625,2.125 0.5413246,1.313532 1.4312439,2.451173 2.03125,3.21875 a 1.0281567,1.0281567 0 0 0 0.09375,0.125 c 0.8845134,0.82949 2.1002839,1.800171 3.5,2.4375 1.3997161,0.637329 3.120582,0.951834 4.65625,0.09375 a 1.0281567,1.0281567 0 0 0 0.1875,-0.125 c 1.039584,-0.930618 1.083562,-2.202458 1.28125,-2.90625 0.09884,-0.351896 0.213734,-0.552184 0.3125,-0.65625 0.09877,-0.104066 0.222333,-0.18502 0.65625,-0.21875 a 1.0281567,1.0281567 0 0 0 0.125,-0.03125 c 0.873509,-0.204383 1.053521,-0.01428 1.40625,0.5 0.352729,0.514276 0.619295,1.440637 0.84375,2.3125 a 1.0281567,1.0281567 0 0 0 0.15625,0.34375 c 0.852373,1.218261 2.264372,1.460717 3.375,1.4375 1.110628,-0.02322 2.129459,-0.198496 2.71875,-0.09375 a 1.0281567,1.0281567 0 0 0 0.34375,0.03125 c 0.558817,-0.08213 1.661688,0.06587 2.8125,0.03125 0.575406,-0.01731 1.184259,-0.07664 1.78125,-0.375 0.596991,-0.298356 1.148397,-0.868111 1.4375,-1.59375 A 1.0281567,1.0281567 0 0 0 30.375,92.5625 c -0.07824,-0.877365 0.485092,-1.633681 1.1875,-1.96875 0.676357,-0.322642 1.289449,-0.313873 1.875,0.46875 0.141771,0.470961 0.252796,1.228686 0.59375,2.03125 0.186389,0.438737 0.465887,0.880292 0.90625,1.25 0.440363,0.369708 1.060196,0.615664 1.71875,0.625 a 1.0281567,1.0281567 0 0 0 0.0625,0 c 2.533291,-0.141759 5.355045,0.29659 8.21875,-0.21875 a 1.0281567,1.0281567 0 0 0 0.21875,-0.0625 c 0.693375,-0.311193 1.168425,-0.894337 1.40625,-1.4375 0.237825,-0.543163 0.320651,-1.052226 0.40625,-1.46875 0.0856,-0.416524 0.184775,-0.746082 0.28125,-0.90625 0.09647,-0.160168 0.128196,-0.202921 0.4375,-0.28125 a 1.0281567,1.0281567 0 0 0 0.15625,-0.0625 c 0.833963,-0.355345 1.206736,-0.174321 1.65625,0.28125 0.449514,0.455571 0.797029,1.32753 0.84375,2.09375 a 1.0281567,1.0281567 0 0 0 0.125,0.4375 c 0.366282,0.659938 0.93549,1.129583 1.53125,1.375 0.59576,0.245417 1.19159,0.310391 1.75,0.3125 1.11682,0.0042 2.177784,-0.186475 2.75,-0.09375 a 1.0281567,1.0281567 0 0 0 0.3125,0 c 0.578715,-0.09628 1.648904,0.09405 2.78125,0.09375 0.566173,-1.5e-4 1.177687,-0.06885 1.78125,-0.3125 0.603563,-0.243653 1.188585,-0.710071 1.5625,-1.375 a 1.0281567,1.0281567 0 0 0 0.125,-0.4375 c 0.04672,-0.76622 0.394236,-1.638179 0.84375,-2.09375 0.449514,-0.455571 0.822287,-0.636595 1.65625,-0.28125 a 1.0281567,1.0281567 0 0 0 0.15625,0.0625 c 0.266536,0.06883 0.3119,0.107055 0.4375,0.34375 0.1256,0.236695 0.220533,0.686299 0.34375,1.1875 0.123217,0.501201 0.272615,1.080824 0.65625,1.65625 0.383635,0.575426 1.111611,1.06768 1.96875,1.15625 a 1.0281567,1.0281567 0 0 0 0.125,0 c 2.616836,-0.05044 5.467209,0.274271 8.3125,-0.125 A 1.0281567,1.0281567 0 0 0 77.78125,94.75 c 0.729908,-0.274141 1.23774,-0.85419 1.5,-1.40625 0.26226,-0.55206 0.345305,-1.06878 0.4375,-1.5 0.0922,-0.43122 0.179265,-0.767217 0.28125,-0.9375 0.101985,-0.170283 0.15586,-0.236196 0.46875,-0.3125 a 1.0281567,1.0281567 0 0 0 0.15625,-0.0625 c 0.510206,-0.218756 0.75453,-0.180087 0.9375,-0.125 0.18297,0.05509 0.375042,0.18252 0.59375,0.46875 0.437416,0.572461 0.837118,1.649083 1.34375,2.625 a 1.0281567,1.0281567 0 0 0 0.1875,0.25 c 0.585259,0.586223 1.343492,0.896447 2.0625,0.9375 0.719008,0.04105 1.391441,-0.147273 2,-0.40625 1.217117,-0.517953 2.231602,-1.346524 2.9375,-1.90625 a 1.0281567,1.0281567 0 0 0 0.125,-0.125 c 0.704789,-0.777484 1.660877,-1.834275 2.3125,-3.09375 0.651623,-1.259475 1.02658,-2.880412 0.21875,-4.34375 A 1.0281567,1.0281567 0 0 0 93.25,84.6875 C 92.386163,83.538908 91.10861,83.455042 90.375,83.25 90.008195,83.147479 89.764725,83.036409 89.65625,82.9375 89.547775,82.838591 89.469433,82.765697 89.4375,82.34375 A 1.0281567,1.0281567 0 0 0 89.40625,82.1875 c -0.199551,-0.894643 -0.01797,-1.062067 0.5,-1.40625 0.517971,-0.344183 1.468091,-0.591055 2.34375,-0.8125 a 1.0281567,1.0281567 0 0 0 0.34375,-0.15625 c 1.218261,-0.852373 1.460717,-2.264372 1.4375,-3.375 -0.02322,-1.110628 -0.198496,-2.129459 -0.09375,-2.71875 a 1.0281567,1.0281567 0 0 0 0.03125,-0.3125 C 93.896374,72.840629 94.057683,71.717708 94,70.5625 93.971159,69.984896 93.88863,69.369627 93.5625,68.78125 93.23637,68.192873 92.620475,67.686218 91.875,67.4375 A 1.0281567,1.0281567 0 0 0 91.40625,67.375 C 90.343621,67.526496 89.70661,66.831813 89.5,65.96875 c -0.103305,-0.431531 -0.04196,-0.854356 0.125,-1.15625 0.166959,-0.301894 0.435263,-0.561037 1.0625,-0.6875 l 0,-0.03125 c 1.054644,0.02393 2.039588,-0.41056 2.625,-1.15625 0.619575,-0.789206 0.842266,-1.825366 0.625,-2.875 l 0.03125,0 c -0.152845,-2.10571 0.365077,-4.61548 -0.25,-7.15625 A 1.0281567,1.0281567 0 0 0 93.625,52.6875 C 93.250804,51.979654 92.604044,51.53603 92.03125,51.3125 91.458456,51.08897 90.922058,51.004806 90.5,50.90625 c -0.422058,-0.09856 -0.686173,-0.209539 -0.8125,-0.3125 -0.126327,-0.102961 -0.214414,-0.191587 -0.25,-0.65625 a 1.0281567,1.0281567 0 0 0 -0.03125,-0.125 c -0.203064,-0.896442 -0.0178,-1.062621 0.5,-1.40625 0.517797,-0.343629 1.466149,-0.591779 2.34375,-0.8125 a 1.0281567,1.0281567 0 0 0 0.34375,-0.15625 c 1.218261,-0.852373 1.460717,-2.264372 1.4375,-3.375 -0.02322,-1.110628 -0.198496,-2.129459 -0.09375,-2.71875 a 1.0281567,1.0281567 0 0 0 0.03125,-0.3125 C 93.896374,40.465629 94.057683,39.342708 94,38.1875 93.971159,37.609896 93.88863,36.994627 93.5625,36.40625 93.23637,35.817873 92.620475,35.311218 91.875,35.0625 A 1.0281567,1.0281567 0 0 0 91.40625,35 C 90.343621,35.151495 89.70661,34.456813 89.5,33.59375 c -0.103305,-0.431531 -0.04196,-0.854356 0.125,-1.15625 0.166959,-0.301894 0.435263,-0.561037 1.0625,-0.6875 l 0,-0.03125 c 1.054644,0.02393 2.039588,-0.41056 2.625,-1.15625 0.619575,-0.789206 0.842266,-1.825366 0.625,-2.875 l 0.03125,0 c -0.152845,-2.10571 0.365077,-4.61548 -0.25,-7.15625 A 1.0281567,1.0281567 0 0 0 93.625,20.3125 C 93.250804,19.604654 92.604044,19.16103 92.03125,18.9375 91.458456,18.71397 90.922058,18.629806 90.5,18.53125 c -0.422058,-0.09856 -0.686173,-0.209539 -0.8125,-0.3125 -0.126327,-0.102961 -0.214414,-0.191587 -0.25,-0.65625 a 1.0281567,1.0281567 0 0 0 -0.03125,-0.125 c -0.107986,-0.467806 -0.04831,-0.707729 0.03125,-0.875 0.07956,-0.167271 0.211804,-0.321931 0.5,-0.5 0.576393,-0.356138 1.630864,-0.628243 2.59375,-1.0625 a 1.0281567,1.0281567 0 0 0 0.28125,-0.1875 c 0.602852,-0.565592 0.92704,-1.316291 1,-2.03125 0.07296,-0.714959 -0.085,-1.380818 -0.3125,-2 -0.455009,-1.2383641 -1.238869,-2.3257859 -1.75,-3.0625 a 1.0281567,1.0281567 0 0 0 -0.09375,-0.125 C 90.911784,6.8326165 89.883392,5.8354511 88.65625,5.125 87.429108,4.4145489 85.845655,3.9642762 84.34375,4.6875 a 1.0281567,1.0281567 0 0 0 -0.125,0.09375 C 83.033364,5.5810904 82.852588,6.8597681 82.625,7.59375 82.511206,7.960741 82.415723,8.1990975 82.3125,8.3125 82.209277,8.4259025 82.108998,8.5003311 81.71875,8.53125 a 1.0281567,1.0281567 0 0 0 -0.125,0.03125 c -0.821581,0.1851352 -1.075199,-0.020962 -1.4375,-0.5 -0.362301,-0.4790385 -0.628149,-1.3324377 -0.75,-2.125 A 1.0281567,1.0281567 0 0 0 79.25,5.5625 C 78.845027,4.9147519 78.236174,4.4444261 77.625,4.21875 77.013826,3.9930739 76.412972,3.9615744 75.84375,3.96875 74.705305,3.9831012 73.658947,4.1670592 73.0625,4.0625 A 1.0281567,1.0281567 0 0 0 72.71875,4.03125 C 72.161847,4.1118086 71.08328,3.9633236 69.9375,4 c -0.57289,0.018338 -1.187117,0.076135 -1.78125,0.375 -0.594133,0.298865 -1.150664,0.8705016 -1.4375,1.59375 a 1.0281567,1.0281567 0 0 0 -0.0625,0.46875 c 0.07824,0.8773654 -0.485092,1.6336809 -1.1875,1.96875 C 64.792393,8.7288918 64.179301,8.7201229 63.59375,7.9375 63.451979,7.4665392 63.340954,6.7088143 63,5.90625 62.813611,5.4675127 62.534113,5.0259584 62.09375,4.65625 61.653387,4.2865416 61.033554,4.0405866 60.375,4.03125 a 1.0281567,1.0281567 0 0 0 -0.0625,0 C 57.779208,4.1730085 54.957455,3.7346595 52.09375,4.25 a 1.0281567,1.0281567 0 0 0 -0.25,0.0625 c -0.690514,0.3144904 -1.136031,0.8961383 -1.375,1.4375 -0.238969,0.5413617 -0.317675,1.0535876 -0.40625,1.46875 -0.08857,0.4151624 -0.182442,0.7143306 -0.28125,0.875 -0.09881,0.1606694 -0.154089,0.2338268 -0.46875,0.3125 a 1.0281567,1.0281567 0 0 0 -0.15625,0.0625 C 48.280735,8.8442864 47.968318,8.661553 47.53125,8.1875 47.094182,7.713447 46.752934,6.7807096 46.65625,5.96875 A 1.0281567,1.0281567 0 0 0 46.5,5.5625 C 46.093579,4.912436 45.488294,4.443727 44.875,4.21875 44.261706,3.993773 43.664211,3.9615778 43.09375,3.96875 z" fill="url(#linearGradient3660)" fill-opacity="1" fill-rule="nonzero" stroke="none" opacity="0.08"/>
  <path d="m 20.15625,6 a 1.0086732,1.0086732 0 0 0 -0.8125,1 c 0,1.9650322 -1.592327,3.5625 -3.59375,3.5625 -1.983857,0 -3.566575,-1.559709 -3.59375,-3.5 a 1.0086732,1.0086732 0 0 0 -1.125,-1 C 7.6081248,6.4721085 4.8492196,9.0136878 4.15625,12.34375 A 1.0086732,1.0086732 0 0 0 5.125,13.5625 c 1.9396044,0.0644 3.46875,1.638259 3.46875,3.5625 0,1.965034 -1.5923231,3.5625 -3.59375,3.5625 a 1.0086732,1.0086732 0 0 0 -1,1 L 4,28.75 a 1.0086732,1.0086732 0 0 0 1,1 c 2.0014269,0 3.59375,1.597466 3.59375,3.5625 0,1.965034 -1.5923231,3.5625 -3.59375,3.5625 a 1.0086732,1.0086732 0 0 0 -1,1 l 0,7.0625 a 1.0086732,1.0086732 0 0 0 1,1 c 2.0014267,0 3.59375,1.597467 3.59375,3.5625 0,1.965034 -1.5923231,3.5625 -3.59375,3.5625 a 1.0086732,1.0086732 0 0 0 -1,1 l 0,7.0625 a 1.0086732,1.0086732 0 0 0 1,1 c 2.0014267,0 3.59375,1.597467 3.59375,3.5625 C 8.59375,67.652535 7.0014272,69.25 5,69.25 a 1.0086732,1.0086732 0 0 0 -1,1 l 0,7.0625 a 1.0086732,1.0086732 0 0 0 1,1 c 2.0014248,-3e-6 3.59375,1.597467 3.59375,3.5625 0,1.924238 -1.5291419,3.498089 -3.46875,3.5625 a 1.0086732,1.0086732 0 0 0 -0.96875,1.21875 c 0.6929696,3.330063 3.451875,5.871641 6.875,6.28125 a 1.0086732,1.0086732 0 0 0 1.125,-1 c 0.02717,-1.94029 1.609894,-3.5 3.59375,-3.5 2.001423,0 3.59375,1.597468 3.59375,3.5625 a 1.0086732,1.0086732 0 0 0 1,1 l 7.1875,0 a 1.0086732,1.0086732 0 0 0 1,-1 c 0,-1.965032 1.592327,-3.5625 3.59375,-3.5625 2.001435,0 3.625,1.605825 3.625,3.5625 a 1.0086732,1.0086732 0 0 0 1,1 l 7.15625,0 a 1.0086732,1.0086732 0 0 0 1,-1 c 0,-1.965032 1.592327,-3.5625 3.59375,-3.5625 2.001435,0 3.625,1.605825 3.625,3.5625 a 1.0086732,1.0086732 0 0 0 1,1 l 7.15625,0 a 1.0086732,1.0086732 0 0 0 1,-1 c 0,-1.956675 1.623565,-3.5625 3.625,-3.5625 2.001423,0 3.59375,1.597468 3.59375,3.5625 a 1.0086732,1.0086732 0 0 0 1,1 l 7.15625,0 a 1.0086732,1.0086732 0 0 0 1,-1 c -8e-6,-1.956668 1.623577,-3.5625 3.625,-3.5625 1.930812,0 3.456945,1.501521 3.5625,3.375 a 1.0086732,1.0086732 0 0 0 1.25,0.90625 c 2.888364,-0.781055 5.136029,-3.112045 5.75,-6.0625 A 1.0086732,1.0086732 0 0 0 90.875,85.4375 c -1.939609,-0.06441 -3.46875,-1.638259 -3.46875,-3.5625 0,-1.965037 1.592326,-3.5625 3.59375,-3.5625 a 1.0086732,1.0086732 0 0 0 1,-1 L 92,70.25 a 1.0086732,1.0086732 0 0 0 -1,-1 c -2.001423,10e-7 -3.59375,-1.597467 -3.59375,-3.5625 0,-1.965032 1.592327,-3.5625 3.59375,-3.5625 a 1.0086732,1.0086732 0 0 0 1,-1 l 0,-7.0625 a 1.0086732,1.0086732 0 0 0 -1,-1 c -2.001423,10e-7 -3.59375,-1.597468 -3.59375,-3.5625 0,-1.965032 1.592327,-3.5625 3.59375,-3.5625 a 1.0086732,1.0086732 0 0 0 1,-1 l 0,-7.0625 a 1.0086732,1.0086732 0 0 0 -1,-1 c -2.001423,10e-7 -3.59375,-1.597468 -3.59375,-3.5625 0,-1.965033 1.592327,-3.5625 3.59375,-3.5625 a 1.0086732,1.0086732 0 0 0 1,-1 l 0,-7.0625 a 1.0086732,1.0086732 0 0 0 -1,-1 c -2.001423,1e-6 -3.59375,-1.597468 -3.59375,-3.5625 0,-1.924241 1.529141,-3.498089 3.46875,-3.5625 a 1.0086732,1.0086732 0 0 0 0.96875,-1.21875 c -0.613971,-2.9504552 -2.861636,-5.2814447 -5.75,-6.0625 a 1.0086732,1.0086732 0 0 0 -1.25,0.90625 c -0.105571,1.8734915 -1.631688,3.375 -3.5625,3.375 -2.001435,0 -3.625,-1.6058245 -3.625,-3.5625 a 1.0086732,1.0086732 0 0 0 -1,-1 L 69.5,6 a 1.0086732,1.0086732 0 0 0 -1,1 c 0,1.9650322 -1.592327,3.5625 -3.59375,3.5625 -2.001435,0 -3.625,-1.6058245 -3.625,-3.5625 a 1.0086732,1.0086732 0 0 0 -1,-1 L 53.125,6 a 1.0086732,1.0086732 0 0 0 -1,1 c 0,1.9566755 -1.623565,3.5625 -3.625,3.5625 -2.001423,0 -3.59375,-1.5974678 -3.59375,-3.5625 a 1.0086732,1.0086732 0 0 0 -1,-1 L 36.75,6 a 1.0086732,1.0086732 0 0 0 -1,1 c 8e-6,1.956668 -1.623577,3.5625 -3.625,3.5625 -2.001423,0 -3.59375,-1.5974678 -3.59375,-3.5625 a 1.0086732,1.0086732 0 0 0 -1,-1 l -7.1875,0 a 1.0086732,1.0086732 0 0 0 -0.1875,0 z" fill="url(#linearGradient3660)" fill-opacity="1" fill-rule="nonzero" stroke="none" opacity="0.2"/>
  <path d="M 12,7 C 8.8423036,7 6.2807978,9.4087223 6.03125,12.5 8.5006537,12.517094 10.5,14.526594 10.5,17 c 0,2.484001 -2.016,4.5 -4.5,4.5 l 0,7 c 2.484,0 4.5,2.016 4.5,4.5 0,2.484001 -2.016,4.5 -4.5,4.5 l 0,7 c 2.484,0 4.5,2.016 4.5,4.5 0,2.484001 -2.016,4.5 -4.5,4.5 l 0,7 c 2.484,0 4.5,2.016 4.5,4.5 0,2.484001 -2.016,4.5 -4.5,4.5 l 0,7 c 2.484,-4e-6 4.5,2.016 4.5,4.5 0,2.473403 -1.9993463,4.482906 -4.46875,4.5 C 6.2807978,88.591278 8.8423036,91 12,91 c 0,-2.484 2.016,-4.5 4.5,-4.5 2.484001,0 4.5,2.016 4.5,4.5 l 7,0 c 0,-2.484 2.016,-4.5 4.5,-4.5 2.484001,0 4.5,2.016 4.5,4.5 l 7,0 c 0,-2.484 2.016,-4.5 4.5,-4.5 2.484001,0 4.5,2.016 4.5,4.5 l 7,0 c 0,-2.484 2.016,-4.5 4.5,-4.5 2.484001,0 4.5,2.016 4.5,4.5 l 7,0 c -4e-6,-2.484 2.016,-4.5 4.5,-4.5 2.452216,0 4.449324,1.966103 4.5,4.40625 C 87.688537,90.461133 89.746004,88.259273 89.96875,85.5 87.499346,85.4829 85.5,83.473406 85.5,81 c 0,-2.484004 2.016,-4.5 4.5,-4.5 l 0,-7 c -2.484,10e-7 -4.5,-2.016 -4.5,-4.5 0,-2.484 2.016,-4.5 4.5,-4.5 l 0,-7 c -2.484,10e-7 -4.5,-2.016 -4.5,-4.5 0,-2.484 2.016,-4.5 4.5,-4.5 l 0,-7 c -2.484,10e-7 -4.5,-2.016 -4.5,-4.5 0,-2.484 2.016,-4.5 4.5,-4.5 l 0,-7 c -2.484,1e-6 -4.5,-2.016 -4.5,-4.5 0,-2.473406 1.999346,-4.482906 4.46875,-4.5 C 89.746004,9.7407268 87.688537,7.538867 85,7.09375 84.94932,9.5338976 82.952219,11.5 80.5,11.5 78.015996,11.5 76,9.4840001 76,7 l -7,0 c 10e-7,2.4840004 -2.016,4.5 -4.5,4.5 C 62.016,11.5 60,9.4840001 60,7 l -7,0 c 10e-7,2.4840004 -2.016,4.5 -4.5,4.5 C 46.016,11.5 44,9.4840001 44,7 l -7,0 c 10e-7,2.4840004 -2.016,4.5 -4.5,4.5 C 30.016,11.5 28,9.4840001 28,7 l -7,0 c 1e-6,2.4840004 -2.016,4.5 -4.5,4.5 C 14.016,11.5 12,9.4840001 12,7 z" fill="url(#linearGradient3643)" fill-opacity="1" fill-rule="nonzero" stroke="none" opacity="0.45" inkscape:connector-curvature="0"/>
  <path d="m 20.34375,7 c 0,2.5135714 -2.05061,4.5625 -4.59375,4.5625 -2.52145,0 -4.55896,-2.0159905 -4.59375,-4.5 -2.996139,0.3585157 -5.394264,2.5891385 -6,5.5 2.47044,0.08203 4.4375,2.100949 4.4375,4.5625 0,2.513572 -2.050607,4.5625 -4.59375,4.5625 L 5,28.75 c 2.543143,0 4.59375,2.048928 4.59375,4.5625 0,2.513572 -2.050607,4.5625 -4.59375,4.5625 l 0,7.0625 c 2.543143,0 4.59375,2.048929 4.59375,4.5625 0,2.513572 -2.050607,4.5625 -4.59375,4.5625 l 0,7.0625 c 2.543143,0 4.59375,2.048929 4.59375,4.5625 C 9.59375,68.201073 7.543143,70.25 5,70.25 l 0,7.0625 c 2.543143,-4e-6 4.59375,2.048929 4.59375,4.5625 0,2.461548 -1.96706,4.480461 -4.4375,4.5625 0.605736,2.910862 3.003861,5.141484 6,5.5 0.03479,-2.484009 2.0723,-4.5 4.59375,-4.5 2.54314,0 4.59375,2.048929 4.59375,4.5625 l 7.1875,0 c 0,-2.513571 2.05061,-4.5625 4.59375,-4.5625 2.54315,0 4.625,2.048929 4.625,4.5625 l 7.15625,0 c 0,-2.513571 2.05061,-4.5625 4.59375,-4.5625 2.54315,0 4.625,2.048929 4.625,4.5625 l 7.15625,0 c 0,-2.513571 2.08185,-4.5625 4.625,-4.5625 2.54314,0 4.59375,2.048929 4.59375,4.5625 l 7.15625,0 c -1e-5,-2.513571 2.08186,-4.5625 4.625,-4.5625 2.45596,0 4.4276,1.918171 4.5625,4.3125 2.52264,-0.682158 4.46306,-2.732219 5,-5.3125 -2.47044,-0.08204 -4.4375,-2.100949 -4.4375,-4.5625 0,-2.513575 2.05061,-4.5625 4.59375,-4.5625 L 91,70.25 c -2.54314,10e-7 -4.59375,-2.048928 -4.59375,-4.5625 0,-2.513571 2.05061,-4.5625 4.59375,-4.5625 l 0,-7.0625 c -2.54314,10e-7 -4.59375,-2.048929 -4.59375,-4.5625 0,-2.513571 2.05061,-4.5625 4.59375,-4.5625 l 0,-7.0625 c -2.54314,10e-7 -4.59375,-2.048929 -4.59375,-4.5625 0,-2.513572 2.05061,-4.5625 4.59375,-4.5625 l 0,-7.0625 c -2.54314,1e-6 -4.59375,-2.048929 -4.59375,-4.5625 0,-2.461551 1.96706,-4.480461 4.4375,-4.5625 -0.53694,-2.5802811 -2.47736,-4.6303417 -5,-5.3125 -0.13492,2.3943302 -2.10654,4.3125 -4.5625,4.3125 -2.54315,0 -4.625,-2.0489286 -4.625,-4.5625 L 69.5,7 c 0,2.5135714 -2.05061,4.5625 -4.59375,4.5625 -2.54315,0 -4.625,-2.0489286 -4.625,-4.5625 L 53.125,7 c 0,2.5135714 -2.08185,4.5625 -4.625,4.5625 -2.54314,0 -4.59375,-2.0489286 -4.59375,-4.5625 L 36.75,7 c 1e-5,2.5135714 -2.08186,4.5625 -4.625,4.5625 -2.54314,0 -4.59375,-2.0489286 -4.59375,-4.5625 l -7.1875,0 z" fill="url(#linearGradient3660)" fill-opacity="1" fill-rule="nonzero" stroke="none" opacity="0.3" inkscape:connector-curvature="0"/>
  <path d="M 19.96875,5.0625 C 17.638449,5.4811317 19.017788,8.8183066 16.798178,9.4196996 14.277216,10.482485 13.229024,7.9107889 12.78125,6 11.174497,3.9602826 8.065659,5.8813091 6.4561833,6.9717752 4.7948494,8.4904539 2.542463,11.086699 3.4375,13.5 4.4004828,15.220122 7.4236383,14.031711 7.6055278,16.604824 8.1516443,19.053209 5.7304522,19.593637 4,20.03125 2.2713702,21.24071 3.3742577,23.725528 3.0625,25.479447 3.2757272,27.145811 2.2936161,29.878471 4.4375,30.59375 7.6467002,30.136222 9.0363109,35.180548 5.5450236,35.884457 3.847302,35.634382 2.6423519,37.298076 3.0625,38.886186 3.2296286,41.188687 2.73956,43.606129 3.28125,45.84375 4.2477586,47.672046 7.3983233,46.287667 7.6036697,48.968959 8.1589757,51.420396 5.7344997,51.970015 4,52.40625 c -1.7286298,1.20946 -0.6257423,3.694278 -0.9375,5.448197 0.2132272,1.666364 -0.7688839,4.399024 1.375,5.114303 3.2091998,-0.457528 4.5988113,4.586799 1.1075238,5.290707 -1.6977217,-0.250075 -2.9026719,1.413619 -2.4825238,3.001729 0.1671286,2.302501 -0.32294,4.719943 0.21875,6.957564 0.9665088,1.828296 4.1170724,0.443917 4.3224195,3.125209 0.5870661,2.543242 -2.0477463,2.849547 -3.6974195,3.593541 -1.8374172,1.790864 0.3533881,4.639552 1.5458945,6.165104 1.6687135,1.564907 4.5830745,3.673544 6.9228555,2.366146 1.330571,-1.191105 0.352699,-3.84968 2.833692,-4.042535 2.41031,-0.563963 3.030256,1.831448 3.478808,3.573785 1.20946,1.72863 3.694278,0.625742 5.448197,0.9375 1.68507,-0.247643 4.380784,0.795171 5.208053,-1.28125 -0.239447,-2.685137 3.289932,-4.615455 5.013433,-2.117964 0.437479,1.22199 0.475583,3.373362 2.299067,3.399214 2.683689,-0.150175 5.46253,0.286003 8.09375,-0.1875 1.79819,-0.807044 0.555747,-3.626222 2.701822,-4.1697 2.328414,-0.992119 3.80159,1.269431 3.923178,3.26345 1.043785,1.880609 3.577273,0.816348 5.28915,1.09375 1.734053,-0.288484 4.300398,0.803154 5.3671,-1.09375 0.121588,-1.994019 1.594764,-4.255569 3.923178,-3.26345 2.16926,0.560156 0.855076,4.076998 3.264322,4.32595 2.706983,-0.05218 5.515658,0.249931 8.1875,-0.125 1.916491,-0.719801 0.637248,-3.66501 2.823044,-4.198058 2.667281,-1.143621 3.288381,1.73641 4.176956,3.448058 1.677995,1.68076 4.249866,-0.341504 5.660505,-1.460037 C 91.453783,90.041119 93.631286,87.474977 92.4375,85.3125 91.348477,83.864491 88.581223,84.862794 88.394472,82.395177 87.848356,79.946791 90.269547,79.406363 92,78.96875 c 1.72863,-1.20946 0.625742,-3.694278 0.9375,-5.448197 -0.213227,-1.666364 0.768884,-4.399024 -1.375,-5.114303 -3.209199,0.457525 -4.59881,-4.586796 -1.107522,-5.290707 1.697721,0.250074 2.90267,-1.41362 2.482522,-3.001729 -0.167129,-2.302501 0.32294,-4.719943 -0.21875,-6.957564 -0.966509,-1.828295 -4.117072,-0.443918 -4.322419,-3.12521 -0.555305,-2.451433 1.86917,-3.001055 3.603669,-3.43729 1.72863,-1.20946 0.625742,-3.694278 0.9375,-5.448197 -0.213227,-1.666364 0.768884,-4.399024 -1.375,-5.114303 -3.209199,0.457525 -4.59881,-4.586797 -1.107522,-5.290707 1.697721,0.250074 2.90267,-1.41362 2.482522,-3.001729 C 92.770371,25.436313 93.26044,23.018871 92.71875,20.78125 91.752241,18.952955 88.601678,20.337332 88.396331,17.65604 87.809263,15.112797 90.444077,14.806495 92.09375,14.0625 93.831581,12.432077 91.934787,9.7989953 90.900639,8.3084357 89.448185,6.8234625 87.007768,4.5528479 84.78125,5.625 83.279989,6.6379772 84.17178,9.3872126 81.80513,9.5747195 79.498776,10.094434 78.648341,7.8716636 78.375,6.09375 77.216651,4.2409879 74.6407,5.3739083 72.864303,5.0625 71.188243,5.3049496 68.507596,4.275901 67.6875,6.34375 67.926947,9.0288872 64.397568,10.959205 62.674067,8.461714 62.236588,7.2397241 62.198484,5.0883522 60.375,5.0625 57.691311,5.2126745 54.91247,4.7764965 52.28125,5.25 50.487021,6.0671709 51.711295,8.8769237 49.551962,9.416811 47.151645,10.446384 45.859722,8.0649532 45.625,6.09375 44.466651,4.2409879 41.8907,5.3739083 40.114303,5.0625 38.438243,5.3049496 35.757596,4.275901 34.9375,6.34375 35.117141,8.7694301 32.199997,10.815017 30.234085,8.8587823 29.238407,7.800652 29.82118,5.3857089 27.90625,5.09375 25.271599,5.018975 22.612046,5.08436 19.96875,5.0625 z" fill="url(#linearGradient3660)" fill-opacity="1" fill-rule="nonzero" stroke="none" opacity="0.1" inkscape:connector-curvature="0"/>
 </g>
 <path d="M 12,6 C 8.8423036,6 6.2807978,8.4087223 6.03125,11.5 8.5006537,11.517094 10.5,13.526594 10.5,16 c 0,2.484001 -2.016,4.5 -4.5,4.5 l 0,7 c 2.484,0 4.5,2.016 4.5,4.5 0,2.484001 -2.016,4.5 -4.5,4.5 l 0,7 c 2.484,0 4.5,2.016 4.5,4.5 0,2.484001 -2.016,4.5 -4.5,4.5 l 0,7 c 2.484,0 4.5,2.016 4.5,4.5 0,2.484001 -2.016,4.5 -4.5,4.5 l 0,7 c 2.484,-4e-6 4.5,2.016 4.5,4.5 0,2.473403 -1.9993463,4.482906 -4.46875,4.5 C 6.2807978,87.591278 8.8423036,90 12,90 c 0,-2.484 2.016,-4.5 4.5,-4.5 2.484001,0 4.5,2.016 4.5,4.5 l 7,0 c 0,-2.484 2.016,-4.5 4.5,-4.5 2.484001,0 4.5,2.016 4.5,4.5 l 7,0 c 0,-2.484 2.016,-4.5 4.5,-4.5 2.484001,0 4.5,2.016 4.5,4.5 l 7,0 c 0,-2.484 2.016,-4.5 4.5,-4.5 2.484001,0 4.5,2.016 4.5,4.5 l 7,0 c -4e-6,-2.484 2.016,-4.5 4.5,-4.5 2.452216,0 4.449324,1.966103 4.5,4.40625 C 87.688537,89.461133 89.746004,87.259273 89.96875,84.5 87.499346,84.482903 85.5,82.473406 85.5,80 c 0,-2.484004 2.016,-4.5 4.5,-4.5 l 0,-7 c -2.484,10e-7 -4.5,-2.016 -4.5,-4.5 0,-2.484 2.016,-4.5 4.5,-4.5 l 0,-7 c -2.484,10e-7 -4.5,-2.016 -4.5,-4.5 0,-2.484 2.016,-4.5 4.5,-4.5 l 0,-7 c -2.484,10e-7 -4.5,-2.016 -4.5,-4.5 0,-2.484 2.016,-4.5 4.5,-4.5 l 0,-7 c -2.484,1e-6 -4.5,-2.016 -4.5,-4.5 0,-2.473406 1.999346,-4.482906 4.46875,-4.5 C 89.746004,8.7407268 87.688537,6.538867 85,6.09375 84.949321,8.5338976 82.952219,10.5 80.5,10.5 78.015996,10.5 76,8.4840001 76,6 l -7,0 c 10e-7,2.4840004 -2.016,4.5 -4.5,4.5 C 62.016,10.5 60,8.4840001 60,6 l -7,0 c 10e-7,2.4840004 -2.016,4.5 -4.5,4.5 C 46.016,10.5 44,8.4840001 44,6 l -7,0 c 10e-7,2.4840004 -2.016,4.5 -4.5,4.5 C 30.016,10.5 28,8.4840001 28,6 l -7,0 c 1e-6,2.4840004 -2.016,4.5 -4.5,4.5 C 14.016,10.5 12,8.4840001 12,6 z" fill="url(#linearGradient2982)" fill-opacity="1" fill-rule="nonzero" stroke="none" inkscape:connector-curvature="0"/>
 <path d="m 12,6 c -3.1576964,0 -5.7192022,2.4087223 -5.96875,5.5 0.3875592,0.0027 0.7665092,0.06132 1.125,0.15625 C 7.6623387,9.7083063 9.2475019,8.2914957 11.28125,8 c 0.513582,2.458142 2.613584,4.375 5.21875,4.375 2.650061,0 4.786743,-1.978914 5.25,-4.5 l 5.5,0 c 0.463258,2.521086 2.599939,4.5 5.25,4.5 2.650061,0 4.786743,-1.978914 5.25,-4.5 l 5.5,0 c 0.463258,2.521086 2.599939,4.5 5.25,4.5 2.650061,0 4.786743,-1.978914 5.25,-4.5 l 5.5,0 c 0.463258,2.521086 2.599939,4.5 5.25,4.5 2.650061,0 4.786743,-1.978914 5.25,-4.5 l 5.5,0 c 0.463258,2.521085 2.599936,4.5 5.25,4.5 2.533754,0 4.599245,-1.797591 5.1875,-4.15625 1.565145,0.5523941 2.734682,1.812675 3.15625,3.4375 0.358491,-0.09493 0.737441,-0.153567 1.125,-0.15625 C 89.746004,8.7407268 87.688537,6.538867 85,6.09375 84.949321,8.5338976 82.952219,10.5 80.5,10.5 78.015996,10.5 76,8.4840001 76,6 l -7,0 c 10e-7,2.4840004 -2.016,4.5 -4.5,4.5 C 62.016,10.5 60,8.4840001 60,6 l -7,0 c 10e-7,2.4840004 -2.016,4.5 -4.5,4.5 C 46.016,10.5 44,8.4840001 44,6 l -7,0 c 10e-7,2.4840004 -2.016,4.5 -4.5,4.5 C 30.016,10.5 28,8.4840001 28,6 l -7,0 c 1e-6,2.4840004 -2.016,4.5 -4.5,4.5 C 14.016,10.5 12,8.4840001 12,6 z M 8.03125,12 C 9.4964802,12.742423 10.5,14.246206 10.5,16 c 0,2.484001 -2.016,4.5 -4.5,4.5 l 0,7 c 0.3210719,0 0.6354089,0.02973 0.9375,0.09375 l 0,-5.40625 c 2.5210853,-0.463258 4.5,-2.599938 4.5,-5.25 0,-2.251307 -1.432067,-4.133632 -3.40625,-4.9375 z m 79.9375,0 c -1.974183,0.803868 -3.40625,2.686193 -3.40625,4.9375 0,2.650061 1.978914,4.786743 4.5,5.25 l 0,5.40625 C 89.364591,27.52973 89.678928,27.5 90,27.5 l 0,-7 c -2.484,1e-6 -4.5,-2.016 -4.5,-4.5 0,-1.753794 1.00352,-3.257577 2.46875,-4 z M 8.1875,28.09375 C 9.5566917,28.865674 10.5,30.317187 10.5,32 c 0,2.484001 -2.016,4.5 -4.5,4.5 l 0,7 c 0.3210719,0 0.6354089,0.02973 0.9375,0.09375 l 0,-5.40625 c 2.5210853,-0.463258 4.5,-2.599938 4.5,-5.25 0,-2.189151 -1.359088,-4.009194 -3.25,-4.84375 z m 79.625,0 c -1.890912,0.834556 -3.25,2.654599 -3.25,4.84375 0,2.650061 1.978914,4.786743 4.5,5.25 l 0,5.40625 C 89.364591,43.52973 89.678928,43.5 90,43.5 l 0,-7 c -2.484,10e-7 -4.5,-2.016 -4.5,-4.5 0,-1.682813 0.943308,-3.134326 2.3125,-3.90625 z m -79.625,16 C 9.5566917,44.865674 10.5,46.317187 10.5,48 c 0,2.484001 -2.016,4.5 -4.5,4.5 l 0,7 c 0.3210719,0 0.6354089,0.02973 0.9375,0.09375 l 0,-5.40625 c 2.5210853,-0.463258 4.5,-2.599938 4.5,-5.25 0,-2.189151 -1.359088,-4.009194 -3.25,-4.84375 z m 79.625,0 c -1.890912,0.834556 -3.25,2.654599 -3.25,4.84375 0,2.650061 1.978914,4.786743 4.5,5.25 l 0,5.40625 C 89.364591,59.52973 89.678928,59.5 90,59.5 l 0,-7 c -2.484,10e-7 -4.5,-2.016 -4.5,-4.5 0,-1.682813 0.943308,-3.134326 2.3125,-3.90625 z m -79.625,16 C 9.5566917,60.865674 10.5,62.317187 10.5,64 c 0,2.484001 -2.016,4.5 -4.5,4.5 l 0,7 c 0.3210719,-10e-7 0.6354089,0.02973 0.9375,0.09375 l 0,-5.40625 c 2.5210853,-0.463258 4.5,-2.599938 4.5,-5.25 0,-2.189151 -1.359088,-4.009194 -3.25,-4.84375 z m 79.625,0 c -1.890912,0.834556 -3.25,2.654599 -3.25,4.84375 0,2.650061 1.978914,4.786743 4.5,5.25 l 0,5.40625 C 89.364591,75.52973 89.678928,75.5 90,75.5 l 0,-7 c -2.484,10e-7 -4.5,-2.016 -4.5,-4.5 0,-1.682813 0.943308,-3.134326 2.3125,-3.90625 z m -79.625,16 C 9.5566917,76.865674 10.5,78.317187 10.5,80 10.5,82.473403 8.5006537,84.482906 6.03125,84.5 6.2807978,87.591278 8.8423036,90 12,90 c 0,-2.162928 1.527437,-3.974973 3.5625,-4.40625 -2.154233,0.400506 -3.831866,2.130376 -4.28125,4.28125 -2.0541834,-0.294425 -3.6354873,-1.740587 -4.125,-3.71875 2.4131399,-0.548077 4.28125,-2.64583 4.28125,-5.21875 0,-2.189151 -1.359087,-4.009195 -3.25,-4.84375 z m 79.625,0 c -1.890912,0.834555 -3.25,2.654597 -3.25,4.84375 0,2.572922 1.868111,4.670672 4.28125,5.21875 -0.408658,1.653304 -1.572152,2.940917 -3.15625,3.5 -0.514722,-2.063828 -2.149193,-3.686183 -4.25,-4.0625 2.010646,0.421213 3.518381,2.188088 3.5625,4.3125 C 87.688537,89.461133 89.746004,87.259273 89.96875,84.5 87.499346,84.482903 85.5,82.473406 85.5,80 c 0,-1.682816 0.943308,-3.134327 2.3125,-3.90625 z m -70.34375,9.5 C 19.488914,86.036288 21,87.847644 21,90 l 0.75,0 c -0.405351,-2.205949 -2.090608,-3.993005 -4.28125,-4.40625 z m 14.0625,0 C 29.340608,86.006995 27.655351,87.794051 27.25,90 L 28,90 c 0,-2.152356 1.511086,-3.963712 3.53125,-4.40625 z m 1.9375,0 C 35.488914,86.036288 37,87.847644 37,90 l 0.75,0 c -0.405351,-2.205949 -2.090608,-3.993005 -4.28125,-4.40625 z m 14.0625,0 C 45.340608,86.006995 43.655351,87.794051 43.25,90 L 44,90 c 0,-2.152356 1.511086,-3.963712 3.53125,-4.40625 z m 1.9375,0 C 51.488914,86.036288 53,87.847644 53,90 l 0.75,0 c -0.405351,-2.205949 -2.090608,-3.993005 -4.28125,-4.40625 z m 14.0625,0 C 61.340608,86.006995 59.655351,87.794051 59.25,90 L 60,90 c 0,-2.152356 1.511086,-3.963712 3.53125,-4.40625 z m 1.9375,0 C 67.488914,86.036288 69,87.847644 69,90 l 0.75,0 c -0.405351,-2.205949 -2.090608,-3.993005 -4.28125,-4.40625 z m 14.0625,0 C 77.340608,86.006994 75.655349,87.794049 75.25,90 L 76,90 c -3e-6,-2.152356 1.511085,-3.963712 3.53125,-4.40625 z" fill="url(#linearGradient2984)" fill-opacity="1" fill-rule="nonzero" stroke="none" opacity="0.8" inkscape:connector-curvature="0"/>
 <path d="M 6.53125,9.5625 C 6.2652074,10.164261 6.0868357,10.811431 6.03125,11.5 8.157335,11.51472 9.9218068,13.006965 10.375,15 10.44877,14.676904 10.5,14.345348 10.5,14 10.5,11.69755 8.7626861,9.8279996 6.53125,9.5625 z m 82.9375,0 C 87.237314,9.8279996 85.5,11.69755 85.5,14 c 0,0.345348 0.05123,0.676904 0.125,1 0.453193,-1.993035 2.217665,-3.485283 4.34375,-3.5 -0.05569,-0.689818 -0.23378,-1.336098 -0.5,-1.9375 z M 6,25.5 l 0,2 c 2.138652,0 3.9181313,1.499149 4.375,3.5 0.07377,-0.323096 0.125,-0.654652 0.125,-1 0,-2.484 -2.016,-4.5 -4.5,-4.5 z m 84,0 c -2.484,0 -4.5,2.016 -4.5,4.5 0,0.345348 0.05123,0.676904 0.125,1 0.456869,-2.000851 2.236348,-3.5 4.375,-3.5 l 0,-2 z m -84,16 0,2 c 2.138652,0 3.9181313,1.499149 4.375,3.5 0.07377,-0.323096 0.125,-0.654652 0.125,-1 0,-2.484 -2.016,-4.5 -4.5,-4.5 z m 84,0 c -2.484,0 -4.5,2.016 -4.5,4.5 0,0.345348 0.05123,0.676904 0.125,1 0.456869,-2.000851 2.236348,-3.5 4.375,-3.5 l 0,-2 z m -84,16 0,2 c 2.138652,0 3.9181313,1.499149 4.375,3.5 0.07377,-0.323096 0.125,-0.654652 0.125,-1 0,-2.484 -2.016,-4.5 -4.5,-4.5 z m 84,0 c -2.484,0 -4.5,2.016 -4.5,4.5 0,0.345348 0.05123,0.676904 0.125,1 0.456869,-2.000851 2.236348,-3.5 4.375,-3.5 l 0,-2 z m -84,16 0,2 c 2.138652,-3e-6 3.9181313,1.499148 4.375,3.5 0.07318,-0.321834 0.125,-0.656125 0.125,-1 0,-2.484 -2.016,-4.500004 -4.5,-4.5 z m 84,0 c -2.484,0 -4.5,2.015996 -4.5,4.5 0,0.343875 0.05182,0.678166 0.125,1 0.456869,-2.000853 2.236348,-3.5 4.375,-3.5 l 0,-2 z m -73.5,10 C 14.016,83.5 12,85.516 12,88 9.5456675,88 7.4595845,86.537299 6.53125,84.4375 6.3655667,84.457213 6.2019294,84.498819 6.03125,84.5 6.2807978,87.591278 8.8423036,90 12,90 c 0,-2.484 2.016,-4.5 4.5,-4.5 2.484001,0 4.5,2.016 4.5,4.5 l 7,0 c 0,-2.484 2.016,-4.5 4.5,-4.5 2.484001,0 4.5,2.016 4.5,4.5 l 7,0 c 0,-2.484 2.016,-4.5 4.5,-4.5 2.484001,0 4.5,2.016 4.5,4.5 l 7,0 c 0,-2.484 2.016,-4.5 4.5,-4.5 2.484001,0 4.5,2.016 4.5,4.5 l 7,0 c -4e-6,-2.484 2.016,-4.5 4.5,-4.5 2.452216,0 4.449324,1.966103 4.5,4.40625 2.688537,-0.445117 4.746004,-2.646977 4.96875,-5.40625 -0.170679,-0.0012 -0.334317,-0.04279 -0.5,-0.0625 C 88.670091,86.241706 87.016403,87.572412 85,87.90625 84.949324,85.466103 82.952216,83.5 80.5,83.5 78.016,83.5 75.999996,85.516 76,88 l -7,0 c 0,-2.484 -2.015999,-4.5 -4.5,-4.5 -2.484,0 -4.5,2.016 -4.5,4.5 l -7,0 c 0,-2.484 -2.015999,-4.5 -4.5,-4.5 -2.484,0 -4.5,2.016 -4.5,4.5 l -7,0 c 0,-2.484 -2.015999,-4.5 -4.5,-4.5 -2.484,0 -4.5,2.016 -4.5,4.5 l -7,0 c 0,-2.484 -2.015999,-4.5 -4.5,-4.5 z" fill="url(#radialGradient2986)" fill-opacity="1" fill-rule="nonzero" stroke="none" opacity="0.3" inkscape:connector-curvature="0"/>
 <g display="inline">
  <rect x="16" y="16" fill="url(#linearGradient4073)" fill-opacity="1" fill-rule="nonzero" stroke="none" height="64" width="64"/>
  <g clip-path="url(#clipPath4146)" opacity="0.8" transform="matrix(1 0 0 1 0 -10)">
   <path d="m 63.175794,37.576905 c 1.369476,-0.397707 2.807779,0.367992 3.205487,1.737469 0.262772,0.904832 0.01648,1.836087 -0.581625,2.479326 0.586553,0.478664 1.089738,1.056139 1.505518,1.710498 0.675277,-0.471862 1.39641,-0.882052 2.192631,-1.189959 -0.06956,-0.139988 -0.145615,-0.277311 -0.190748,-0.432721 -0.408457,-1.406491 0.403578,-2.883197 1.810068,-3.291654 1.030523,-0.299273 2.089976,0.06539 2.74654,0.829435 0.716458,-1.339395 1.929589,-2.411629 3.485864,-2.899711 -0.365462,-1.258437 0.359975,-2.577663 1.618413,-2.943125 1.184938,-0.344117 2.406347,0.292537 2.852109,1.417058 0.324269,-0.235887 0.702109,-0.431687 1.109389,-0.549965 1.887657,-0.548192 3.866495,0.539963 4.414688,2.42762 0.01796,0.06184 0.0078,0.126802 0.02228,0.188776 0.561904,-0.244831 1.133537,-0.459353 1.735737,-0.634238 1.602475,-0.465372 3.198285,-0.632208 4.779415,-0.574459 0.79208,-1.35483 2.08729,-2.428468 3.71337,-2.900697 3.36817,-0.978147 6.88309,0.954696 7.86124,4.322868 0.14672,0.505224 0.22646,1.01969 0.24699,1.522786 2.14913,-0.330399 4.24991,0.963796 4.87265,3.108152 0.12227,0.421021 0.17183,0.835673 0.16855,1.252696 0.2622,0.121854 0.51679,0.249167 0.76579,0.395888 0.63234,-0.964536 1.59387,-1.731977 2.81117,-2.085493 2.62791,-0.76317 5.33539,0.66766 6.06631,3.184536 0.73092,2.516876 -0.78897,5.175372 -3.41689,5.938542 -0.39479,0.114651 -0.79196,0.161401 -1.18396,0.181128 0.12908,3.889379 -2.36252,7.519728 -6.27254,8.655233 -1.22894,0.356896 -2.47953,0.422032 -3.66904,0.251997 -1.92,2.790095 -4.74823,4.958448 -8.25444,5.976689 -4.73744,1.37579 -9.602786,0.33061 -13.287237,-2.389162 -0.585007,0.617655 -1.333104,1.103049 -2.209076,1.35744 -2.331035,0.676952 -4.754739,-0.41753 -5.805842,-2.511733 -0.02951,0.0088 -0.06039,0.01754 -0.09003,0.02614 -3.469958,1.007707 -7.019558,0.122007 -9.602656,-2.027384 -0.854661,1.601925 -2.336349,2.85875 -4.217701,3.405112 -3.396856,0.986478 -6.953971,-0.707802 -8.344283,-3.857177 -0.398342,0.22718 -0.808409,0.430016 -1.268154,0.56353 -3.146095,0.913654 -6.444159,-0.899938 -7.357814,-4.046033 -0.913654,-3.146096 0.899938,-6.44416 4.046034,-7.357814 0.328869,-0.09551 0.658222,-0.151626 0.986469,-0.188857 0.336169,-0.608133 0.871585,-1.066644 1.552717,-1.26445 0.704334,-0.204545 1.442393,-0.08217 2.065929,0.278645 -0.128873,-3.224369 1.928678,-6.254798 5.167095,-7.195264 0.70473,-0.20466 1.409116,-0.264071 2.106545,-0.253808 -0.06387,-1.172217 0.667285,-2.276416 1.843037,-2.617865 z" stroke-width="1.5" fill="url(#linearGradient3982)" color="#000000" fill-opacity="1" fill-rule="nonzero" stroke="none" visibility="visible" inkscape:connector-curvature="0"/>
   <path d="m 20.5,50.3125 c -0.950448,0 -1.828481,0.305591 -2.53125,0.8125 -0.580044,-0.08942 -1.176174,-0.15625 -1.78125,-0.15625 -2.643739,0 -5.050411,0.91554 -7,2.40625 C 8.962304,53.33941 8.735827,53.3125 8.5,53.3125 c -2.312525,0 -4.1875,1.771853 -4.1875,3.96875 0,0.823837 0.267268,1.583883 0.71875,2.21875 -0.267997,0.977691 -0.40625,1.999741 -0.40625,3.0625 0,1.073475 0.133008,2.107256 0.40625,3.09375 C 4.411327,65.37723 3.723921,65.21875 3,65.21875 c -2.736488,0 -4.9375,2.201013 -4.9375,4.9375 0,2.736488 2.201012,4.96875 4.9375,4.96875 0.36612,0 0.719001,-0.04965 1.0625,-0.125 -6.43e-4,0.04129 0,0.08355 0,0.125 0,4.316713 3.495787,7.8125 7.8125,7.8125 2.785961,0 5.209665,-1.462067 6.59375,-3.65625 2.041092,1.840971 4.753634,2.96875 7.71875,2.96875 4.014997,0 7.532983,-2.07204 9.59375,-5.1875 1.294164,0.971148 2.882433,1.5625 4.625,1.5625 2.724975,0 5.119177,-1.435314 6.5,-3.5625 0.693167,0.556164 1.542148,0.90625 2.5,0.90625 1.309291,0 2.478909,-0.629504 3.21875,-1.59375 0.322673,0.203233 0.71549,0.34375 1.125,0.34375 1.156262,0 2.09375,-0.937488 2.09375,-2.09375 0,-1.156262 -0.937488,-2.09375 -2.09375,-2.09375 -0.180666,0 -0.364014,0.01947 -0.53125,0.0625 C 52.711419,69.137709 51.398958,68.067364 49.8125,67.90625 49.72627,66.558185 48.619837,65.5 47.25,65.5 c -0.381196,0 -0.736814,0.07047 -1.0625,0.21875 -1.418341,-1.583489 -3.488111,-2.59375 -5.78125,-2.59375 -1.024452,0 -1.979942,0.201263 -2.875,0.5625 -0.224258,-2.373424 -2.22414,-4.25 -4.65625,-4.25 -0.280177,0 -0.545883,0.04651 -0.8125,0.09375 0.03207,-0.217664 0.0625,-0.429674 0.0625,-0.65625 0,-2.505235 -2.057265,-4.53125 -4.5625,-4.53125 -0.939463,0 -1.807279,0.260895 -2.53125,0.75 -0.124657,-0.147579 -0.243234,-0.296374 -0.375,-0.4375 0.01212,-0.123274 0.03125,-0.248717 0.03125,-0.375 0,-2.196897 -1.874975,-3.96875 -4.1875,-3.96875 z" stroke-width="1.5" fill="url(#linearGradient3980)" color="#000000" fill-opacity="1" fill-rule="nonzero" stroke="none" visibility="visible" inkscape:connector-curvature="0"/>
   <path d="m 94.09,34.889421 c -1.79508,0 -3.28711,1.334802 -3.53125,3.0625 -0.99024,0.397809 -1.89622,0.908493 -2.71875,1.5625 -0.48316,-0.508483 -1.14945,-0.84375 -1.90625,-0.84375 -1.4646,0 -2.65625,1.191651 -2.65625,2.65625 0,0.01073 -1.3e-4,0.02055 0,0.03125 -1.03573,0.06809 -2.02712,0.266793 -2.96875,0.59375 -0.550274,-0.637053 -1.373388,-1.03125 -2.281252,-1.03125 -1.636798,0 -2.967312,1.308529 -3,2.9375 -0.04347,-0.0022 -0.08097,-0.03125 -0.125,-0.03125 -1.203669,0 -2.223302,0.869855 -2.46875,2 -2.45358,0.166046 -4.562623,1.519821 -5.78125,3.5 -0.4926,-0.208352 -1.025254,-0.3125 -1.59375,-0.3125 -2.273983,0 -4.125,1.851017 -4.125,4.125 0,2.273983 1.851017,4.09375 4.125,4.09375 0.534254,0 1.0316,-0.09607 1.5,-0.28125 1.286055,2.183281 3.657764,3.625 6.375,3.625 0.877767,0 1.718823,-0.156911 2.5,-0.4375 2.085815,2.410336 5.156042,3.9375 8.593752,3.9375 3.57421,0 6.75837,-1.640646 8.84375,-4.21875 1.21505,1.383268 2.98292,2.28125 4.96875,2.28125 1.54469,0 2.96664,-0.551752 4.09375,-1.4375 1.05752,0.549176 2.2573,0.875 3.53125,0.875 1.54894,0 2.98131,-0.460945 4.1875,-1.25 0.49805,0.257126 1.05711,0.40625 1.65625,0.40625 1.74332,0 3.21295,-1.235953 3.5625,-2.875 0.23611,1.540136 1.55007,2.71875 3.15625,2.71875 1.77293,0 3.21875,-1.414564 3.21875,-3.1875 0,-1.615065 -1.19735,-2.962289 -2.75,-3.1875 0.0458,-0.258658 0.0937,-0.540686 0.0937,-0.8125 0,-2.505235 -2.02602,-4.53125 -4.53125,-4.53125 -0.84008,0 -1.63779,0.258215 -2.3125,0.65625 -0.22398,-0.319863 -0.44981,-0.655928 -0.71875,-0.9375 0.10594,-0.250475 0.15625,-0.523434 0.15625,-0.8125 0,-1.156262 -0.93749,-2.09375 -2.09375,-2.09375 -0.0932,0 -0.1913,0.01945 -0.28125,0.03125 -0.0172,-1.796731 -1.48046,-3.25 -3.28125,-3.25 -0.47744,0 -0.93457,0.09784 -1.34375,0.28125 -1.42514,-2.522984 -3.82747,-4.414808 -6.6875,-5.1875 -0.40134,-1.525904 -1.75435,-2.65625 -3.40625,-2.65625 z" stroke-width="1.5" fill="url(#linearGradient3929)" color="#000000" fill-opacity="1" fill-rule="nonzero" stroke="none" visibility="visible" inkscape:connector-curvature="0"/>
   <path d="m 10.66061,61.762622 c 3.026368,0.307343 5.375,2.892545 5.375,5.999999 0,0.502248 -0.07128,0.971235 -0.1875,1.4375 1.355555,-0.829233 2.950813,-1.3125 4.65625,-1.3125 0.697126,0 1.380076,0.09893 2.03125,0.25 0.475056,-1.362518 1.756773,-2.34375 3.28125,-2.34375 1.927104,0 3.46875,1.572896 3.46875,3.5 0,0.923053 -0.352247,1.75095 -0.9375,2.375 0.196494,-0.02238 0.391268,0 0.59375,0 2.890656,0 5.25,2.328094 5.25,5.21875 0,2.890656 -2.359344,5.25 -5.25,5.25 -0.403981,0 -0.778551,-0.06962 -1.15625,-0.15625 -1.011736,1.427012 -2.435578,2.519337 -4.09375,3.15625 0.0042,0.11543 0.03125,0.227305 0.03125,0.34375 0,5.241723 -4.258277,9.46875 -9.5,9.46875 -1.530417,0 -2.969848,-0.356599 -4.25,-1 -2.624598,1.783448 -5.806379,2.84375 -9.21875,2.84375 -6.838671,0 -12.693371,-4.205133 -15.156251,-10.15625 -4.78516,-0.596606 -8.5,-4.646976 -8.5,-9.59375 0,-5.357349 4.33015,-9.71875 9.6875,-9.71875 1.15953,0 2.28176,0.220606 3.3125,0.59375 0.85422,-0.731187 1.78936,-1.393203 2.78125,-1.9375 -0.0827,-0.233328 -0.15625,-0.488331 -0.15625,-0.75 0,-1.233347 1.01665,-2.21875 2.25,-2.21875 0.94828,0 1.76987,0.572443 2.09375,1.40625 1.05684,-0.242785 2.15727,-0.406213 3.281251,-0.4375 0.31043,-1.285581 1.462817,-2.21875 2.84375,-2.21875 1.174447,0 2.188572,0.690101 2.65625,1.6875 1.078785,-1.054211 2.554466,-1.6875 4.1875,-1.6875 0.207164,0 0.423242,-0.02049 0.625,0 z" stroke-width="1.5" fill="url(#linearGradient3926)" color="#000000" fill-opacity="1" fill-rule="nonzero" stroke="none" opacity="0.8" visibility="visible" inkscape:connector-curvature="0"/>
   <path d="m 7.65625,74.65625 c 3.500466,0 6.464046,2.18625 7.625,5.28125 2.922683,0.05208 5.28125,2.439881 5.28125,5.375 0,2.96774 -2.40726,5.375 -5.375,5.375 -1.175339,0 -2.240467,-0.391098 -3.125,-1.03125 -1.273613,0.821117 -2.778216,1.3125 -4.40625,1.3125 -0.412169,0 -0.822986,-0.03481 -1.21875,-0.09375 -0.460796,0.558357 -1.157023,0.9375 -1.9375,0.9375 -1.110012,0 -2.04265,-0.720393 -2.375,-1.71875 -0.573002,0.172103 -1.183445,0.28125 -1.8125,0.28125 -3.468787,0 -6.28125,-2.812463 -6.28125,-6.28125 0,-2.905109 1.97757,-5.344769 4.65625,-6.0625 -0.02473,-0.153233 -0.0625,-0.308535 -0.0625,-0.46875 0,-1.618767 1.318733,-2.90625 2.9375,-2.90625 0.866194,0 1.650919,0.371372 2.1875,0.96875 1.15693,-0.628482 2.497055,-0.96875 3.90625,-0.96875 z" stroke-width="1.5" fill="url(#linearGradient3235)" color="#000000" fill-opacity="1" fill-rule="nonzero" stroke="none" opacity="0.8" visibility="visible" inkscape:connector-curvature="0"/>
  </g>
  <path d="m 48.375,24.75 c -7.722632,-0.07249 -15.798159,3.431059 -19.9375,10.34375 -0.0077,0.01286 -0.02358,0.01837 -0.03125,0.03125 C 24.471897,41.396442 24.045911,49.143477 25.5,56.0625 27.071787,63.65467 33.08745,69.93449 40.53125,72 46.189037,73.644729 52.33689,73.668064 58,72.03125 A 1.2345937,1.2345937 0 0 0 58.09375,72 c 0.971341,-0.36554 1.604725,-1.20613 1.84375,-2.03125 0.232818,-0.803692 0.17039,-1.613589 -0.03125,-2.34375 -0.0036,-0.01513 0.0033,-0.04693 0,-0.0625 -0.189798,-0.885787 0.03727,-2.460077 -0.9375,-4 1.284702,-0.08728 2.562872,-0.256076 3.6875,-0.65625 a 1.2345937,1.2345937 0 0 0 0.03125,0 c 5.158568,-1.938033 7.577808,-7.313797 8.28125,-12.125 1.049233,-6.695966 -0.678114,-13.925553 -5.4375,-19 C 61.136241,27.031277 54.654374,24.744738 48.375,24.75 z m 11.71875,18.96875 c 0.488199,2.062081 0.493011,4.218741 0.03125,6.3125 0.002,-2.097501 -0.02961,-4.207712 -0.03125,-6.3125 z M 49.25,44.6875 c -0.03425,0.250784 -0.07725,0.493659 -0.03125,0.9375 l -0.03125,0 c -0.01872,2.561315 0.03874,5.21396 0,7.65625 -1.549695,0.136664 -3.013326,-0.848353 -3.1875,-2.5 a 1.2345937,1.2345937 0 0 0 0,-0.09375 c -0.21501,-1.117491 -0.2469,-2.457475 0.03125,-3.53125 0.27392,-1.057445 0.775705,-1.803361 1.6875,-2.25 0.422025,-0.156004 0.956395,-0.203464 1.53125,-0.21875 z" fill="#072045" fill-opacity="1" stroke="none" opacity="0.05"/>
  <path d="m 48.375,26 c -7.355239,-0.06904 -15.050256,3.266387 -18.908916,9.745309 -3.729393,5.919145 -4.146095,13.374563 -2.737428,20.077453 1.471165,7.106136 7.155433,13.061583 14.137987,14.999106 5.42977,1.578444 11.352669,1.606579 16.782812,0.0371 1.180258,-0.444161 1.386486,-1.874756 1.072527,-2.960534 C 58.42326,66.652137 58.644869,65.213181 57.90625,64.125 57.121879,63.120706 55.764694,63.387301 54.725637,63.75136 49.0855,64.918205 42.430946,64.539613 38.108554,60.294357 33.922888,55.742264 33.410471,48.838443 35.006411,43.099624 36.243,38.888789 39.646252,35.392791 43.925178,34.280593 48.574597,32.954937 54.068653,33.642465 57.71875,37 53.595889,35.618642 49.01203,35.13091 44.773923,36.268105 c -5.096147,1.38482 -8.594995,6.498258 -8.745106,11.685821 -0.274094,3.805472 0.764944,7.775608 3.35483,10.638325 2.248486,2.640779 5.860791,3.58315 9.210103,3.657749 1.915426,0.158133 3.974917,-0.708079 5.598735,-0.950628 2.310134,1.618821 5.503232,1.347145 8.05261,0.440006 4.558662,-1.712653 6.837348,-6.594667 7.500693,-11.131627 C 70.741457,44.253619 69.099042,37.382399 64.640373,32.628576 60.525503,28.181368 54.35317,25.99499 48.375,26 z m 10.34375,12.0625 c 3.442665,3.910092 3.848248,9.767184 2.038572,14.490258 C 60.43945,54.031457 58.454859,55.345566 58.875,53.082197 58.8538,48.222532 58.917161,43.354495 58.84375,38.5 c -0.02821,-0.149649 -0.05573,-0.300079 -0.125,-0.4375 z m -9.25,5.34375 c 1.54671,-0.410264 0.793986,1.34869 0.96875,2.226781 -0.02098,2.871364 0.04182,5.963628 -0.03125,8.679469 -2.530324,0.917962 -5.337188,-0.667842 -5.624349,-3.390912 -0.486134,-2.526625 -0.202935,-5.92816 2.426935,-7.170231 0.717187,-0.282223 1.496684,-0.342151 2.259914,-0.345107 z" fill="#072045" fill-opacity="1" stroke="none" opacity="0.1" inkscape:connector-curvature="0"/>
  <path d="m 16.4375,16 c -0.03654,0.0073 -0.06024,0.01707 -0.09375,0.03125 -0.07367,0.02998 -0.134622,0.06872 -0.1875,0.125 -0.09518,0.101305 -0.159464,0.22767 -0.15625,0.375 l 0,62.90625 0,0.03125 c 0.0019,0.05425 0.01433,0.10669 0.03125,0.15625 0.01558,0.04455 0.03654,0.08657 0.0625,0.125 0.01089,0.01749 0.01848,0.04637 0.03125,0.0625 0.0088,0.01017 0.02176,0.02176 0.03125,0.03125 0.05288,0.05628 0.113827,0.09502 0.1875,0.125 0.02947,0.01199 0.06172,0.02443 0.09375,0.03125 0.03461,0.0069 0.05711,-4e-6 0.09375,0 l 16.0625,0 3.8125,0 1.65625,0 27.96875,0 13.4375,0 c 0.07531,-7e-6 0.122246,-0.0036 0.1875,-0.03125 0.195763,-0.08281 0.343729,-0.274073 0.34375,-0.5 5.91e-4,-0.0104 -10e-7,-0.02071 0,-0.03125 l 0,-62.90625 c -7e-6,-0.07531 -0.0036,-0.122246 -0.03125,-0.1875 -0.08281,-0.195763 -0.274074,-0.343727 -0.5,-0.34375 l -13.4375,0 -27.96875,0 -1.65625,0 -3.8125,0 -16.0625,0 c -0.03777,-0.004 -0.05597,-0.004 -0.09375,0 z m 0.65625,1.09375 14.6875,0 4.15625,0 1.125,0 30.75,0 11.09375,0 0,61.8125 -11.09375,0 -30.75,0 -1.125,0 -4.15625,0 -14.6875,0 0,-61.8125 z" fill="#3365a8" fill-opacity="1" fill-rule="nonzero" stroke="none" opacity="0.6" inkscape:connector-curvature="0"/>
  <path d="m 48.375,27 c -2.83857,3.5e-5 -5.544671,0.459396 -8.125,1.375 -2.559111,0.920241 -4.857662,2.27805 -6.84375,4.125 -1.968278,1.828054 -3.534621,4.162882 -4.6875,6.90625 C 27.550683,42.185782 26.999997,45.386705 27,49 c -3e-6,3.739495 0.551233,7.000007 1.71875,9.8125 a 1.0055049,1.0055049 0 0 0 0,0.03125 c 1.188802,2.748053 2.834142,5.047121 4.875,6.84375 2.027318,1.819045 4.370701,3.149152 7.0625,4 2.671708,0.878276 5.50454,1.312493 8.5,1.3125 1.705538,-7e-6 3.321749,-0.106872 4.8125,-0.34375 1.483277,-0.230476 2.508179,-0.437024 3.21875,-0.6875 a 1.0055049,1.0055049 0 0 0 0.65625,-1.0625 l -0.5,-3.625 A 1.0055049,1.0055049 0 0 0 56,64.46875 c -0.21848,0.07935 -1.043078,0.278013 -2.28125,0.5 -1.14438,0.210553 -2.68448,0.343746 -4.5625,0.34375 -2.369084,-4e-6 -4.503796,-0.35716 -6.46875,-1.0625 -1.925464,-0.671601 -3.606395,-1.667629 -5.03125,-3 -1.386323,-1.354601 -2.448988,-3.031494 -3.25,-5.0625 C 33.613656,54.147442 33.187493,51.756309 33.1875,49 c -7e-6,-2.628537 0.38996,-4.949738 1.125,-6.96875 0.772583,-2.037257 1.80267,-3.680421 3.125,-5.03125 a 1.0055049,1.0055049 0 0 0 0,-0.03125 c 1.329591,-1.388399 2.922878,-2.425913 4.78125,-3.15625 1.854351,-0.759076 3.89706,-1.15622 6.15625,-1.15625 2.267617,3e-5 4.288177,0.373355 6.03125,1.09375 1.803266,0.73272 3.298415,1.707369 4.53125,2.96875 1.23706,1.265821 2.173258,2.764133 2.84375,4.46875 0.66861,1.669694 1.031213,3.45251 1.03125,5.375 -3.7e-5,1.170638 -0.124439,2.341422 -0.3125,3.5 -0.184697,1.106689 -0.433553,2.061818 -0.8125,2.90625 A 1.0055049,1.0055049 0 0 0 61.65625,53 c -0.344658,0.831883 -0.796359,1.473492 -1.3125,1.9375 a 1.0055049,1.0055049 0 0 0 0,0.03125 c -0.453785,0.429384 -0.884659,0.593754 -1.5,0.59375 -0.317497,3e-6 -0.475503,-0.09911 -0.65625,-0.3125 -0.09411,-0.111084 -0.312529,-0.603709 -0.3125,-1.53125 l 0,-14.90625 A 1.0055049,1.0055049 0 0 0 57.21875,37.875 c -0.831842,-0.288963 -1.948315,-0.578598 -3.375,-0.84375 -1.445678,-0.275016 -3.013717,-0.374974 -4.71875,-0.375 -1.866918,2.7e-5 -3.584815,0.293536 -5.125,0.9375 a 1.0055049,1.0055049 0 0 0 -0.03125,0 c -1.486891,0.636517 -2.744206,1.549314 -3.8125,2.6875 -1.03744,1.107708 -1.843528,2.41569 -2.375,3.9375 -0.530069,1.482449 -0.781264,3.060314 -0.78125,4.71875 -1.4e-5,1.945982 0.272644,3.685735 0.84375,5.21875 0.561547,1.507454 1.357222,2.822333 2.40625,3.90625 a 1.0055049,1.0055049 0 0 0 0,0.03125 c 1.036922,1.035742 2.25725,1.83756 3.65625,2.375 a 1.0055049,1.0055049 0 0 0 0.03125,0 c 1.432772,0.536677 2.995844,0.781252 4.65625,0.78125 1.08466,2e-6 2.184662,-0.123593 3.28125,-0.40625 a 1.0055049,1.0055049 0 0 0 0.03125,0 c 0.838356,-0.243116 1.498442,-0.558264 2.15625,-0.875 0.449861,0.358531 0.895385,0.736698 1.4375,0.96875 0.85627,0.366566 1.865826,0.500002 3,0.5 1.450372,2e-6 2.824304,-0.319172 4.125,-0.96875 1.307621,-0.653068 2.472436,-1.619455 3.40625,-2.875 0.930317,-1.286694 1.64333,-2.849082 2.15625,-4.625 0.556393,-1.806314 0.812455,-3.837005 0.8125,-6.125 -4.5e-5,-3.043055 -0.550334,-5.798971 -1.65625,-8.25 C 66.25034,36.136553 64.767658,34.031169 62.875,32.3125 60.985059,30.562109 58.774726,29.262104 56.28125,28.375 53.791617,27.455292 51.151089,27.000035 48.375,27 z m 1.09375,15.40625 c 0.654661,1.9e-5 1.216501,0.03476 1.71875,0.09375 0.142253,0.01672 0.132776,0.01387 0.25,0.03125 l 0,10.625 c -3.4e-5,0.441405 0.02978,0.856831 0.0625,1.28125 0.01352,0.175668 0.071,0.355525 0.09375,0.53125 -0.319575,0.12761 -0.618286,0.254951 -1,0.34375 -0.613195,0.116664 -1.248608,0.187506 -1.875,0.1875 -1.649185,5e-6 -2.756648,-0.50768 -3.6875,-1.65625 -0.926935,-1.143682 -1.437517,-2.759985 -1.4375,-4.90625 -1.7e-5,-2.007142 0.488686,-3.550602 1.46875,-4.78125 0.926117,-1.162916 2.299253,-1.749981 4.40625,-1.75 z" fill="#072045" fill-opacity="1" stroke="none" opacity="0.15"/>
  <path d="m 58.45387,60.485207 c -1.040079,2e-6 -1.901367,-0.146255 -2.583866,-0.43877 -0.682561,-0.29251 -1.251336,-0.682527 -1.706326,-1.170053 -0.715061,0.390021 -1.576349,0.731286 -2.583866,1.023796 -1.007571,0.260014 -2.015115,0.39002 -3.022635,0.390018 -1.560093,2e-6 -2.990155,-0.243759 -4.290193,-0.731283 -1.267575,-0.487518 -2.372623,-1.20255 -3.315148,-2.145096 -0.942558,-0.975038 -1.67384,-2.16134 -2.193849,-3.55891 -0.520037,-1.397552 -0.780048,-3.022623 -0.780035,-4.875218 -1.3e-5,-1.560055 0.243748,-3.022619 0.731283,-4.387697 0.487507,-1.397543 1.202539,-2.600096 2.145096,-3.607662 0.975027,-1.040024 2.145078,-1.852559 3.510158,-2.437609 1.397541,-0.585002 2.97386,-0.877514 4.728962,-0.877539 1.657548,2.5e-5 3.168864,0.13003 4.533953,0.390017 1.397532,0.260036 2.470079,0.520047 3.217644,0.780035 l 0,14.918169 c -3.2e-5,1.040054 0.178726,1.771336 0.536274,2.193848 0.357483,0.422525 0.828754,0.633785 1.413814,0.633779 0.845002,6e-6 1.576285,-0.292507 2.193848,-0.87754 0.649992,-0.585018 1.170015,-1.348802 1.56007,-2.291352 0.422481,-0.942532 0.731244,-1.998829 0.926291,-3.168892 0.19497,-1.202541 0.292474,-2.421344 0.292513,-3.656414 -3.9e-5,-2.047574 -0.357554,-3.965158 -1.072548,-5.752758 -0.715069,-1.820058 -1.738864,-3.412628 -3.071387,-4.777714 -1.332594,-1.365034 -2.957665,-2.437581 -4.875219,-3.217645 -1.885113,-0.780004 -4.013956,-1.170021 -6.386536,-1.170052 -2.372628,3.1e-5 -4.550223,0.406299 -6.532793,1.218804 -1.982604,0.780064 -3.688929,1.917614 -5.11898,3.412653 -1.430074,1.462591 -2.551373,3.26642 -3.3639,5.411493 -0.780043,2.145115 -1.17006,4.582722 -1.170053,7.312828 -7e-6,2.860139 0.422511,5.378999 1.267557,7.556589 0.845028,2.1451 2.01508,3.948929 3.510157,5.411492 1.527555,1.430064 3.315133,2.502611 5.362741,3.217645 2.080073,0.74753 4.355173,1.121296 6.825306,1.1213 1.917559,-4e-6 3.493878,-0.113759 4.728962,-0.341265 1.267526,-0.227514 2.080062,-0.406272 2.437609,-0.536274 l 0.487522,3.607661 c -0.552556,0.195002 -1.560101,0.406262 -3.022636,0.633779 -1.430091,0.227503 -2.973909,0.341258 -4.631457,0.341265 -2.892651,-7e-6 -5.622771,-0.422526 -8.190367,-1.267557 -2.567629,-0.812542 -4.810228,-2.080097 -6.727802,-3.80267 -1.917594,-1.690077 -3.445161,-3.851422 -4.582706,-6.484041 -1.105053,-2.665113 -1.657577,-5.817751 -1.657574,-9.457924 -3e-6,-3.51014 0.552521,-6.581525 1.657574,-9.214163 1.105044,-2.632593 2.583859,-4.810188 4.436449,-6.532793 1.885074,-1.755048 4.046418,-3.071355 6.484041,-3.948927 2.470092,-0.877505 5.070206,-1.316275 7.80035,-1.316309 2.665093,3.4e-5 5.183953,0.438804 7.556589,1.316309 2.372572,0.84507 4.452664,2.096375 6.240279,3.753918 1.787541,1.625101 3.201353,3.607688 4.241441,5.947767 1.040003,2.307625 1.560026,4.923989 1.560069,7.849102 -4.3e-5,2.210112 -0.260054,4.160198 -0.780035,5.850262 -0.487563,1.690084 -1.153843,3.120147 -1.998839,4.290192 -0.845078,1.137556 -1.852622,1.998844 -3.022636,2.583866 -1.170088,0.585029 -2.405143,0.877542 -3.705166,0.87754 M 48.703433,56.53628 c 0.682506,6e-6 1.365036,-0.065 2.047592,-0.195009 0.715005,-0.162501 1.348783,-0.390011 1.901335,-0.682531 -0.09753,-0.422511 -0.162535,-0.84503 -0.195009,-1.267557 -0.03253,-0.42251 -0.04878,-0.828778 -0.04875,-1.218804 l 0,-11.456764 c -0.195036,-0.06498 -0.568802,-0.129985 -1.1213,-0.195009 -0.552551,-0.06498 -1.170078,-0.09748 -1.852583,-0.0975 -2.307626,2.1e-5 -4.030202,0.715052 -5.167732,2.145096 -1.137569,1.430082 -1.706344,3.233911 -1.706326,5.411493 -1.8e-5,2.307615 0.552506,4.143945 1.657574,5.508997 1.105029,1.365068 2.600094,2.047598 4.485201,2.047592" fill="#072045" fill-opacity="1" stroke="none" opacity="0.3" inkscape:connector-curvature="0" transform="matrix(1.0006 0 0 0.99942 0 0)"/>
  <text x="24.717" font-size="48.752" font-stretch="normal" font-style="normal" letter-spacing="0" font-variant="normal" y="61.58" font-weight="normal" text-anchor="start" line-height="125%" fill="url(#linearGradient4184)" fill-opacity="1" stroke="none" word-spacing="0" writing-mode="lr-tb" font-family="Ubuntu" transform="matrix(1.0006 0 0 0.99942 0 0)"><tspan x="24.717" y="61.58">@</tspan>
  </text>
  <path d="m 48.375,27 c -2.731728,3.5e-5 -5.309724,0.435504 -7.78125,1.3125 -2.439038,0.877063 -4.613832,2.183471 -6.5,3.9375 -1.853666,1.721605 -3.331815,3.900185 -4.4375,6.53125 C 28.550555,41.412361 27.999997,44.491896 28,48 c 0,0.169121 -0.0024,0.332985 0,0.5 0.05127,-3.296408 0.604459,-6.21591 1.65625,-8.71875 1.105685,-2.631065 2.583834,-4.809645 4.4375,-6.53125 1.886168,-1.754029 4.060962,-3.060437 6.5,-3.9375 2.471526,-0.876996 5.049522,-1.312465 7.78125,-1.3125 2.66664,3.5e-5 5.188487,0.435504 7.5625,1.3125 2.37395,0.84458 4.461346,2.093418 6.25,3.75 1.788579,1.624158 3.209309,3.598779 4.25,5.9375 0.971691,2.153547 1.46686,4.589609 1.53125,7.28125 0.0024,-0.146499 0.03125,-0.28864 0.03125,-0.4375 -4.3e-5,-2.923415 -0.521892,-5.537464 -1.5625,-7.84375 -1.040691,-2.338721 -2.461421,-4.313342 -4.25,-5.9375 -1.788654,-1.656582 -3.87605,-2.90542 -6.25,-3.75 C 53.563487,27.435504 51.04164,27.000035 48.375,27 z m 0.75,9.65625 c -1.75612,2.5e-5 -3.351647,0.290338 -4.75,0.875 -1.365872,0.58471 -2.524407,1.398079 -3.5,2.4375 -0.943105,1.006981 -1.66846,2.197018 -2.15625,3.59375 -0.487818,1.364286 -0.718763,2.81585 -0.71875,4.375 -10e-7,0.126457 0.02882,0.250665 0.03125,0.375 0.05836,-1.31915 0.267476,-2.575315 0.6875,-3.75 0.48779,-1.396732 1.213145,-2.586769 2.15625,-3.59375 0.975593,-1.039421 2.134128,-1.85279 3.5,-2.4375 1.398353,-0.584662 2.99388,-0.874975 4.75,-0.875 1.65851,2.5e-5 3.165369,0.115164 4.53125,0.375 1.398344,0.259885 2.470751,0.521413 3.21875,0.78125 l 0,-1 C 56.127001,37.552663 55.054594,37.291135 53.65625,37.03125 52.290369,36.771414 50.78351,36.656275 49.125,36.65625 z M 63.78125,46 c -0.02045,1.084349 -0.109337,2.159648 -0.28125,3.21875 -0.195161,1.169385 -0.483524,2.214265 -0.90625,3.15625 -0.390281,0.942004 -0.91213,1.727821 -1.5625,2.3125 -0.617922,0.584693 -1.342007,0.875006 -2.1875,0.875 -0.585399,6e-6 -1.079809,-0.23397 -1.4375,-0.65625 -0.357756,-0.422267 -0.531282,-1.148049 -0.53125,-2.1875 l 0,1 c -3.2e-5,1.039451 0.173494,1.765233 0.53125,2.1875 0.357691,0.42228 0.852101,0.656256 1.4375,0.65625 0.845493,6e-6 1.569578,-0.290307 2.1875,-0.875 0.65037,-0.584679 1.172219,-1.370496 1.5625,-2.3125 0.422726,-0.941985 0.711089,-1.986865 0.90625,-3.15625 0.195083,-1.201843 0.312461,-2.421896 0.3125,-3.65625 -4e-6,-0.19196 -0.02495,-0.372827 -0.03125,-0.5625 z M 42.625,48.46875 c -0.0064,0.159186 -0.03125,0.305352 -0.03125,0.46875 -1.8e-5,2.306276 0.550541,4.16699 1.65625,5.53125 1.10567,1.364276 2.582549,2.031256 4.46875,2.03125 0.682902,6e-6 1.379548,-0.05756 2.0625,-0.1875 0.71542,-0.162407 1.353377,-0.39515 1.90625,-0.6875 -0.07301,-0.315926 -0.08843,-0.621566 -0.125,-0.9375 -0.524631,0.263306 -1.116122,0.47401 -1.78125,0.625 -0.682952,0.129937 -1.379598,0.187506 -2.0625,0.1875 -1.886201,6e-6 -3.36308,-0.666974 -4.46875,-2.03125 -1.018616,-1.256801 -1.544782,-2.943739 -1.625,-5 z M 32.21875,48.5 c -0.0031,0.16837 -0.03125,0.329343 -0.03125,0.5 -7e-6,2.85848 0.435714,5.386174 1.28125,7.5625 0.845519,2.143856 2.004054,3.944535 3.5,5.40625 1.528441,1.429234 3.326204,2.504131 5.375,3.21875 2.081281,0.747096 4.340933,1.124996 6.8125,1.125 1.918673,-4e-6 3.5142,-0.116375 4.75,-0.34375 1.268262,-0.227381 2.079745,-0.432573 2.4375,-0.5625 l 0.375,2.65625 c 0.03151,-0.01031 0.096,-0.02103 0.125,-0.03125 l -0.5,-3.625 c -0.357755,0.129927 -1.169238,0.335119 -2.4375,0.5625 -1.2358,0.227375 -2.831327,0.343746 -4.75,0.34375 -2.471567,-4e-6 -4.731219,-0.377904 -6.8125,-1.125 -2.048796,-0.714619 -3.846559,-1.789516 -5.375,-3.21875 -1.495946,-1.461715 -2.654481,-3.262394 -3.5,-5.40625 -0.795017,-2.046293 -1.202505,-4.413134 -1.25,-7.0625 z" fill="#ffffff" fill-opacity="1" stroke="none" inkscape:connector-curvature="0"/>
 </g>
 <rect stroke="#ffffff" stroke-dasharray="none" clip-path="url(#clipPath3613)" stroke-dashoffset="0" stroke-linecap="round" height="66" stroke-linejoin="miter" stroke-miterlimit="4" stroke-opacity="1" stroke-width="0.5" width="66" fill="url(#linearGradient3613)" fill-opacity="1" opacity="0.1" x="15" fill-rule="nonzero" filter="url(#filter3794)" y="15" rx="12"/>
</svg>
