<svg display="inline" height="96" width="96" xmlns="http://www.w3.org/2000/svg" xmlns:xlink="http://www.w3.org/1999/xlink" xmlns:sodipodi="http://sodipodi.sourceforge.net/DTD/sodipodi-0.dtd" xmlns:inkscape="http://www.inkscape.org/namespaces/inkscape">
 <defs>
  <linearGradient x2="0" y1="23.279" y2="6.516" gradientUnits="userSpaceOnUse" id="linearGradient2881" gradientTransform="matrix(2.53322 0 0 3.23051 16.605 -0.072)">
   <stop stop-color="#aaaaaa" stop-opacity="1"/>
   <stop stop-color="#f0f0f0" stop-opacity="1" offset="1"/>
  </linearGradient>
  <radialGradient cy="90.17" r="42" gradientUnits="userSpaceOnUse" id="radialGradient3619-5" cx="48" gradientTransform="matrix(1.15731 0 0 0.99591 -7.551 0.197)">
   <stop stop-color="#ffffff" stop-opacity="1"/>
   <stop stop-color="#ffffff" stop-opacity="0" offset="1"/>
  </radialGradient>
  <linearGradient x2="0" y1="92.54" y2="7.02" gradientUnits="userSpaceOnUse" id="ButtonShadow-0" gradientTransform="matrix(1.0059 0 0 0.99417 100 0)">
   <stop stop-color="#000000" stop-opacity="1"/>
   <stop stop-color="#000000" stop-opacity="0.588" offset="1"/>
  </linearGradient>
  <linearGradient x2="0" xlink:href="#ButtonShadow-0" y1="6.132" y2="90.24" gradientUnits="userSpaceOnUse" id="linearGradient3780" gradientTransform="matrix(1.02381 0 0 -1.0119 -1.143 98.07)"/>
  <linearGradient x2="0" xlink:href="#ButtonShadow-0" y1="6.132" y2="90.24" gradientUnits="userSpaceOnUse" id="linearGradient3721-2" gradientTransform="matrix(1 0 0 -1 0 97)"/>
 </defs>
 <path d="M 12,3.96875 C 6.4889098,3.96875 1.96875,8.4889098 1.96875,14 l 0,71 c 0,5.51109 4.5201597,10.03125 10.03125,10.03125 l 72,0 c 5.51109,0 10.03125,-4.52016 10.03125,-10.03125 l 0,-71 C 94.03125,8.4889097 89.51109,3.96875 84,3.96875 l -72,0 z M 12,6 84,6 c 3.324,0 6,2.676 6,6 l 0,72 c 0,3.324 -2.676,6 -6,6 L 12,90 C 8.676,90 6,87.324 6,84 L 6,12 C 6,8.676 8.676,6 12,6 z" fill="url(#linearGradient3780)" fill-opacity="1" fill-rule="nonzero" stroke="none" opacity="0.08" inkscape:connector-curvature="0"/>
 <path d="M 12,4.96875 C 7.0283671,4.96875 2.96875,9.0283671 2.96875,14 l 0,71 c 0,4.971633 4.059617,9.03125 9.03125,9.03125 l 72,0 c 4.971633,0 9.03125,-4.059617 9.03125,-9.03125 l 0,-71 C 93.03125,9.028367 88.971633,4.96875 84,4.96875 l -72,0 z M 12,6 84,6 c 3.324,0 6,2.676 6,6 l 0,72 c 0,3.324 -2.676,6 -6,6 L 12,90 C 8.676,90 6,87.324 6,84 L 6,12 C 6,8.676 8.676,6 12,6 z" fill="url(#linearGradient3780)" fill-opacity="1" fill-rule="nonzero" stroke="none" opacity="0.1" inkscape:connector-curvature="0"/>
 <path d="M 11.1875,6.03125 C 7.159982,6.4419011 4,9.8664375 4,14 l 0,71 c 0,4.409133 3.590867,8 8,8 l 72,0 c 4.409133,0 8,-3.590867 8,-8 L 92,14 C 92,9.8029382 88.741028,6.3539584 84.625,6.03125 87.657886,6.337417 90,8.88375 90,12 l 0,72 c 0,3.324 -2.676,6 -6,6 L 12,90 C 8.676,90 6,87.324 6,84 L 6,12 c 0,-3.11625 2.342114,-5.662583 5.375,-5.96875 -0.06227,0.00488 -0.12563,-0.00631 -0.1875,0 z" fill="url(#linearGradient3780)" fill-opacity="1" fill-rule="nonzero" stroke="none" opacity="0.2" inkscape:connector-curvature="0"/>
 <path d="M 6.4375,9.75 C 5.5380109,10.927446 5,12.397277 5,14 l 0,71 c 0,3.878 3.122,7 7,7 l 72,0 c 3.878,0 7,-3.122 7,-7 L 91,14 C 91,12.397277 90.461989,10.927446 89.5625,9.75 89.841816,10.444095 90,11.203625 90,12 l 0,72 c 0,3.324 -2.676,6 -6,6 L 12,90 C 8.676,90 6,87.324 6,84 L 6,12 C 6,11.203625 6.1581836,10.444095 6.4375,9.75 z" fill="url(#linearGradient3780)" fill-opacity="1" fill-rule="nonzero" stroke="none" opacity="0.3" inkscape:connector-curvature="0"/>
 <path d="m 6,84 0,1 c 0,3.324 2.676,6 6,6 l 72,0 c 3.324,0 6,-2.676 6,-6 l 0,-1 c 0,3.324 -2.676,6 -6,6 L 12,90 C 8.676,90 6,87.324 6,84 z" fill="url(#linearGradient3721-2)" fill-opacity="1" fill-rule="nonzero" stroke="none" opacity="0.45" inkscape:connector-curvature="0"/>
 <rect x="6" rx="6" y="6" fill="#000000" fill-opacity="1" fill-rule="nonzero" stroke="none" height="84" opacity="0.6" width="84"/>
 <path d="M 12,90 C 8.676,90 6,87.324 6,84 L 6,82 6,14 6,12 c 0,-0.334721 0.04135,-0.6507 0.09375,-0.96875 0.0487,-0.295596 0.09704,-0.596915 0.1875,-0.875 C 6.29113,10.12587 6.302142,10.09265 6.3125,10.0625 6.411365,9.774729 6.5473802,9.515048 6.6875,9.25 6.8320918,8.976493 7.0031161,8.714385 7.1875,8.46875 7.3718839,8.223115 7.5612765,7.995278 7.78125,7.78125 8.221197,7.353194 8.72416,6.966724 9.28125,6.6875 9.559795,6.547888 9.8547231,6.440553 10.15625,6.34375 9.9000482,6.443972 9.6695391,6.580022 9.4375,6.71875 c -0.00741,0.0044 -0.023866,-0.0045 -0.03125,0 -0.031933,0.0193 -0.062293,0.04251 -0.09375,0.0625 -0.120395,0.0767 -0.2310226,0.163513 -0.34375,0.25 -0.1061728,0.0808 -0.2132809,0.161112 -0.3125,0.25 C 8.4783201,7.442683 8.3087904,7.626638 8.15625,7.8125 8.0486711,7.942755 7.9378561,8.077785 7.84375,8.21875 7.818661,8.25713 7.805304,8.30462 7.78125,8.34375 7.716487,8.446782 7.6510225,8.548267 7.59375,8.65625 7.4927417,8.850956 7.3880752,9.071951 7.3125,9.28125 7.30454,9.30306 7.288911,9.3218 7.28125,9.34375 7.2494249,9.4357 7.2454455,9.530581 7.21875,9.625 7.1884177,9.731618 7.1483606,9.828031 7.125,9.9375 7.0521214,10.279012 7,10.635705 7,11 l 0,2 0,68 0,2 c 0,2.781848 2.2181517,5 5,5 l 2,0 68,0 2,0 c 2.781848,0 5,-2.218152 5,-5 l 0,-2 0,-68 0,-2 C 89,10.635705 88.94788,10.279012 88.875,9.9375 88.83085,9.730607 88.78662,9.539842 88.71875,9.34375 88.71105,9.3218 88.69545,9.30306 88.6875,9.28125 88.62476,9.107511 88.549117,8.913801 88.46875,8.75 88.42717,8.6672 88.38971,8.580046 88.34375,8.5 88.28915,8.40279 88.216976,8.31165 88.15625,8.21875 88.06214,8.077785 87.951329,7.942755 87.84375,7.8125 87.700576,7.63805 87.540609,7.465502 87.375,7.3125 87.36383,7.3023 87.35502,7.29135 87.34375,7.28125 87.205364,7.155694 87.058659,7.046814 86.90625,6.9375 86.803679,6.86435 86.701932,6.784136 86.59375,6.71875 c -0.0074,-0.0045 -0.02384,0.0044 -0.03125,0 -0.232039,-0.138728 -0.462548,-0.274778 -0.71875,-0.375 0.301527,0.0968 0.596455,0.204138 0.875,0.34375 0.55709,0.279224 1.060053,0.665694 1.5,1.09375 0.219973,0.214028 0.409366,0.441865 0.59375,0.6875 0.184384,0.245635 0.355408,0.507743 0.5,0.78125 0.14012,0.265048 0.276135,0.524729 0.375,0.8125 0.01041,0.03078 0.02133,0.06274 0.03125,0.09375 0.09046,0.278085 0.1388,0.579404 0.1875,0.875 C 89.95865,11.3493 90,11.665279 90,12 l 0,2 0,68 0,2 c 0,3.324 -2.676,6 -6,6 l -72,0 z" fill="url(#radialGradient3619-5)" fill-opacity="1" fill-rule="nonzero" stroke="none" opacity="0.15" inkscape:connector-curvature="0"/>
 <path d="m 49.125,20 c -1.060694,0.01594 -2.136319,0.426485 -3.03125,1.15625 -0.05476,0.04465 -0.134308,0.04613 -0.1875,0.09375 -0.116047,0.06757 -0.214208,0.13523 -0.25,0.15625 l 0,0.03125 c -0.0021,0.0012 -0.03121,-4e-5 -0.03125,0 L 25.375,41.625 a 0.94994298,0.94994298 0 0 0 0,0.03125 0.94994298,0.94994298 0 0 0 -0.28125,0.46875 0.94994298,0.94994298 0 0 0 0,0.03125 c -0.97017,1.221374 -1.394043,2.79144 -1,4.28125 0.438439,1.657596 1.710978,2.936672 3.375,3.375 0.582761,0.153511 1.191891,0.0597 1.78125,0 l -5.8125,5.8125 c -1.889954,1.886463 -1.892826,5.016931 0,6.90625 l 14.125,14.0625 c 1.890644,1.886384 4.955969,1.883538 6.84375,0 l 28.0625,-28 a 0.94994298,0.94994298 0 0 0 0,-0.03125 0.94994298,0.94994298 0 0 0 0.1875,-0.21875 A 0.94994298,0.94994298 0 0 0 72.6875,48.25 c 0.717258,-0.787532 1.29358,-1.813407 1.3125,-3.0625 1.8e-5,-0.0012 1.8e-5,-0.03002 0,-0.03125 l -0.09375,-20.25 c -0.006,-1.48409 -0.646137,-2.919367 -1.84375,-3.84375 0.17856,0.143492 0.174048,0.130946 -0.03125,-0.03125 C 71.256416,20.419099 70.227906,20.010732 69.09375,20 l -19.9375,0 c -0.0012,-1.8e-5 -0.03002,-1.8e-5 -0.03125,0 z m 2,9.71875 13.0625,0 0,13.46875 -5.21875,5.21875 c 0.04373,-0.235125 0.152439,-0.43621 0.15625,-0.6875 1.8e-5,-0.0012 1.8e-5,-0.03002 0,-0.03125 l 0,-7.9375 c 5.5e-4,-0.03516 7.1e-5,-0.04057 0,-0.03125 0.01007,-1.314723 -0.515153,-2.579551 -1.4375,-3.5 -0.918169,-0.916295 -2.150852,-1.415884 -3.46875,-1.40625 l -0.03125,0 -7.84375,0 c -0.0012,-1.8e-5 -0.03002,-1.8e-5 -0.03125,0 -0.114735,0.0018 -0.228958,0.05298 -0.34375,0.0625 L 51.125,29.71875 z m -2.8125,14.8125 1,0 0,1.21875 -9.875,9.875 a 0.94994298,0.94994298 0 0 0 -0.28125,0.46875 c -0.955224,1.185375 -1.394164,2.72853 -1,4.21875 0.462753,1.749526 1.852476,2.949238 3.46875,3.375 0.678439,0.178716 1.365183,0.11812 2.03125,0 l -2.625,2.65625 L 33.75,59.0625 48.3125,44.53125 z" fill="#000000" fill-opacity="1" stroke="none" opacity="0.1"/>
 <path d="m 49.125,20.9375 c -1.008933,0.01516 -2.019289,0.371581 -2.78125,1.15625 -0.0063,0.0065 -0.02496,-0.0066 -0.03125,0 l -20.28125,20.21875 0,0.03125 C 25.008353,43.350696 24.641592,44.832421 25,46.1875 c 0.352798,1.333816 1.380696,2.366287 2.71875,2.71875 1.355738,0.357129 2.837216,-0.01258 3.84375,-1.03125 l 0.03125,0 19.125,-19.09375 14.40625,0 0,14.8125 -24.09375,24.0625 -8.625,-8.625 15.5,-15.4375 2.34375,0 0,2.53125 -10.15625,10.15625 0,0.03125 c -0.989712,0.97405 -1.385348,2.411257 -1.03125,3.75 0.369089,1.39541 1.490663,2.370549 2.8125,2.71875 1.33404,0.351416 2.756078,-0.0567 3.71875,-1.03125 l 0.03125,0 11.3125,-11.3125 0,-0.03125 c 0.70303,-0.677006 1.23338,-1.591645 1.25,-2.6875 a 1.0766021,1.0766021 0 0 0 0,-0.03125 l 0,-7.9375 c 1.62e-4,-0.01036 -7.9e-5,-0.0209 0,-0.03125 0.0081,-1.058219 -0.412833,-2.070613 -1.15625,-2.8125 -0.740736,-0.739224 -1.752837,-1.163996 -2.8125,-1.15625 l -0.03125,0 -7.84375,0 a 1.0766021,1.0766021 0 0 0 -0.03125,0 c -1.00881,0.01556 -2.002616,0.38629 -2.75,1.15625 -0.0062,0.0064 -0.02508,-0.0065 -0.03125,0 L 24.09375,56.3125 c -1.524242,1.521427 -1.526964,4.007115 0,5.53125 l 14.125,14.0625 c 1.525367,1.52193 4.008599,1.519228 5.53125,0 l 28.0625,-28 0,-0.03125 c 0.703023,-0.676999 1.233401,-1.591618 1.25,-2.6875 a 1.0766021,1.0766021 0 0 0 0,-0.03125 l -0.09375,-20.25 c -0.0049,-1.201991 -0.545078,-2.356689 -1.5,-3.09375 -0.01,-0.008 -0.02118,-0.0233 -0.03125,-0.03125 -0.625077,-0.493837 -1.444516,-0.835241 -2.34375,-0.84375 l -19.9375,0 a 1.0766021,1.0766021 0 0 0 -0.03125,0 z" fill="#000000" fill-opacity="1" stroke="none" opacity="0.15"/>
 <path d="m 49.163805,22 c -0.758562,0.0114 -1.53573,0.29697 -2.059002,0.843993 L 26.79556,43.099822 c -0.732289,0.710358 -1.0098,1.826241 -0.748728,2.81331 0.261081,0.987063 0.97632,1.708773 1.96541,1.969314 0.989103,0.26055 2.095908,-0.0192 2.80773,-0.750213 l 19.466925,-19.411836 15.910464,0 0,16.317195 L 41.021389,69.169825 30.913563,59.041909 47.479167,42.53716 l 3.837228,0 0,4.032408 -10.482189,10.503024 c -0.732294,0.710361 -1.009806,1.732467 -0.748727,2.719533 0.261081,0.987066 1.069914,1.70877 2.059001,1.969317 0.989096,0.26055 2.002311,-0.0192 2.714139,-0.750213 L 56.18313,49.664212 c 0.548148,-0.522201 0.924429,-1.212312 0.93591,-1.96932 l 0,-7.971042 c 0.012,-0.766419 -0.29856,-1.520454 -0.842319,-2.063094 -0.543744,-0.542634 -1.291011,-0.855768 -2.059005,-0.843993 l -7.861641,0 c -0.758562,0.0117 -1.535731,0.29697 -2.059002,0.843993 L 24.830149,57.072592 c -1.105607,1.103565 -1.108123,2.926341 0,4.032411 L 38.962387,75.17155 c 1.108345,1.105848 2.918577,1.103349 4.024412,0 L 71.064093,47.132233 C 71.612241,46.610032 71.988534,45.919921 72,45.162913 L 71.90643,24.907087 C 71.90283,24.022279 71.491701,23.190148 70.78332,22.656439 70.285461,22.256347 69.737169,22.006042 69.098682,22 l -19.934877,0 z" fill="#000000" fill-opacity="1" stroke="none" opacity="0.3" inkscape:connector-curvature="0"/>
 <path d="m 49.163805,21 c -0.758562,0.0114 -1.53573,0.29697 -2.059002,0.843993 L 26.79556,42.099822 c -0.732289,0.710358 -1.0098,1.826241 -0.748728,2.81331 0.261081,0.987063 0.97632,1.708773 1.96541,1.969314 0.989103,0.26055 2.095908,-0.0192 2.80773,-0.750213 l 19.466925,-19.411836 15.910464,0 0,16.317195 L 41.021389,68.169825 30.913563,58.041909 47.479167,41.53716 l 3.837228,0 0,4.032408 -10.482189,10.503024 c -0.732294,0.710361 -1.009806,1.732467 -0.748727,2.719533 0.261081,0.987066 1.069914,1.70877 2.059001,1.969317 0.989096,0.26055 2.002311,-0.0192 2.714139,-0.750213 L 56.18313,48.664212 c 0.548148,-0.522201 0.924429,-1.212312 0.93591,-1.96932 l 0,-7.971042 c 0.012,-0.766419 -0.29856,-1.520454 -0.842319,-2.063094 -0.543744,-0.542634 -1.291011,-0.855768 -2.059005,-0.843993 l -7.861641,0 c -0.758562,0.0117 -1.535731,0.29697 -2.059002,0.843993 L 24.830149,56.072592 c -1.105607,1.103565 -1.108123,2.926341 0,4.032411 L 38.962387,74.17155 c 1.108345,1.105848 2.918577,1.103349 4.024412,0 L 71.064093,46.132233 C 71.612241,45.610032 71.988534,44.919921 72,44.162913 L 71.90643,23.907087 C 71.90283,23.022279 71.491701,22.190148 70.78332,21.656439 70.285461,21.256347 69.737169,21.006042 69.098682,21 l -19.934877,0 z" fill="url(#linearGradient2881)" fill-opacity="1" stroke="none" inkscape:connector-curvature="0"/>
 <path d="m 49.15625,21 c -0.758562,0.0114 -1.539228,0.296727 -2.0625,0.84375 l -20.3125,20.25 C 26.087307,42.76691 25.805833,43.803223 26,44.75 c 0.08691,-0.619189 0.330991,-1.219476 0.78125,-1.65625 l 20.3125,-20.25 C 47.617022,22.296727 48.397688,22.0114 49.15625,22 l 19.9375,0 c 0.638487,0.006 1.189641,0.256158 1.6875,0.65625 0.708381,0.533709 1.1214,1.365192 1.125,2.25 l 0,-1 c -0.0036,-0.884808 -0.416619,-1.716291 -1.125,-2.25 C 70.283391,21.256158 69.732237,21.006042 69.09375,21 l -19.9375,0 z m -2.8125,14.8125 c -0.758562,0.0117 -1.507979,0.296727 -2.03125,0.84375 L 24.84375,56.0625 c -0.666949,0.665717 -0.918791,1.594803 -0.78125,2.46875 0.10396,-0.540393 0.366647,-1.054913 0.78125,-1.46875 L 44.3125,37.65625 c 0.523271,-0.547023 1.272688,-0.83205 2.03125,-0.84375 l 7.875,0 c 0.767994,-0.01178 1.518756,0.301116 2.0625,0.84375 0.543759,0.54264 0.85575,1.296081 0.84375,2.0625 l 0,-1 c 0.012,-0.766419 -0.299991,-1.51986 -0.84375,-2.0625 -0.543744,-0.542634 -1.294506,-0.855525 -2.0625,-0.84375 l -7.875,0 z m 19.84375,7.21875 -25.15625,25.125 -9.625,-9.625 -0.5,0.5 10.125,10.125 25.15625,-25.125 0,-1 z m -14.875,2.53125 -10.46875,10.5 c -0.676487,0.656226 -0.947048,1.585083 -0.78125,2.5 0.103931,-0.549981 0.359296,-1.090684 0.78125,-1.5 l 10.46875,-10.5 0,-1 z" fill="#ffffff" fill-opacity="1" stroke="none" opacity="0.75" inkscape:connector-curvature="0"/>
 <path d="M 50.28125,25.71875 30.8125,45.125 C 30.100678,45.856013 28.989103,46.13555 28,45.875 27.01091,45.614459 26.292331,44.893313 26.03125,43.90625 26.017579,43.854562 26.010729,43.802317 26,43.75 c -0.05444,0.387844 -0.0693,0.776095 0.03125,1.15625 0.261081,0.987063 0.97966,1.708209 1.96875,1.96875 0.989103,0.26055 2.100678,-0.01899 2.8125,-0.75 l 19.46875,-19.40625 15.90625,0 0,-1 -15.90625,0 z m -2.8125,14.8125 -16.5625,16.5 0.5,0.5 16.0625,-16 3.84375,0 0,-1 -3.84375,0 z M 72,43.1875 c -0.02115,0.744793 -0.396872,1.422463 -0.9375,1.9375 L 43,73.15625 c -1.105835,1.103349 -2.922905,1.105848 -4.03125,0 l -14.125,-14.0625 C 24.428204,58.678974 24.166077,58.165628 24.0625,57.625 c -0.140048,0.875128 0.111477,1.800218 0.78125,2.46875 l 14.125,14.0625 c 1.108345,1.105848 2.925415,1.103349 4.03125,0 L 71.0625,46.125 C 71.610648,45.602799 71.988534,44.913258 72,44.15625 l 0,-0.96875 z m -14.875,2.5 c -0.01148,0.757008 -0.389352,1.446549 -0.9375,1.96875 L 44.84375,59 c -0.711828,0.731013 -1.698404,1.01055 -2.6875,0.75 -0.989087,-0.260547 -1.801419,-0.981684 -2.0625,-1.96875 -0.0199,-0.07522 -0.01757,-0.143274 -0.03125,-0.21875 -0.07644,0.404502 -0.07939,0.80044 0.03125,1.21875 0.261081,0.987066 1.073413,1.708203 2.0625,1.96875 0.989096,0.26055 1.975672,-0.01899 2.6875,-0.75 L 56.1875,48.65625 c 0.548148,-0.522201 0.926019,-1.211742 0.9375,-1.96875 l 0,-1 z" fill="#000000" fill-opacity="1" stroke="none" opacity="0.15" inkscape:connector-curvature="0"/>
</svg>
