<svg display="inline" height="96" width="96" xmlns="http://www.w3.org/2000/svg" xmlns:xlink="http://www.w3.org/1999/xlink" xmlns:sodipodi="http://sodipodi.sourceforge.net/DTD/sodipodi-0.dtd" xmlns:inkscape="http://www.inkscape.org/namespaces/inkscape">
 <defs>
  <linearGradient id="linearGradient4081">
   <stop stop-color="#aaaaaa" stop-opacity="1"/>
   <stop stop-color="#f0f0f0" stop-opacity="1" offset="1"/>
  </linearGradient>
  <linearGradient x2="0" xlink:href="#linearGradient4081" y1="72" y2="24" gradientUnits="userSpaceOnUse" id="linearGradient2995" gradientTransform="matrix(1 0 0 1 80 0)"/>
  <linearGradient x2="0" y1="92.54" y2="7.02" gradientUnits="userSpaceOnUse" id="ButtonShadow-0" gradientTransform="matrix(1.0059 0 0 0.99417 100 0)">
   <stop stop-color="#000000" stop-opacity="1"/>
   <stop stop-color="#000000" stop-opacity="0.588" offset="1"/>
  </linearGradient>
  <linearGradient x2="0" xlink:href="#ButtonShadow-0" y1="6.132" y2="90.24" gradientUnits="userSpaceOnUse" id="linearGradient3780" gradientTransform="matrix(1.02381 0 0 -1.0119 -1.143 98.07)"/>
  <linearGradient x2="0" xlink:href="#ButtonShadow-0" y1="6.132" y2="90.24" gradientUnits="userSpaceOnUse" id="linearGradient3721-1" gradientTransform="matrix(1 0 0 -1 0 97)"/>
  <radialGradient cy="90.17" r="42" gradientUnits="userSpaceOnUse" id="radialGradient3619-1" cx="48" gradientTransform="matrix(1.15731 0 0 0.99591 -7.551 0.197)">
   <stop stop-color="#ffffff" stop-opacity="1"/>
   <stop stop-color="#ffffff" stop-opacity="0" offset="1"/>
  </radialGradient>
  <linearGradient x2="0" xlink:href="#linearGradient4081" y1="76" y2="39" gradientUnits="userSpaceOnUse" id="linearGradient3175"/>
  <linearGradient x2="0" xlink:href="#linearGradient4081" y1="63" y2="20" gradientUnits="userSpaceOnUse" id="linearGradient3177"/>
 </defs>
 <path d="M 12,3.96875 C 6.4889098,3.96875 1.96875,8.4889098 1.96875,14 l 0,71 c 0,5.51109 4.5201597,10.03125 10.03125,10.03125 l 72,0 c 5.51109,0 10.03125,-4.52016 10.03125,-10.03125 l 0,-71 C 94.03125,8.4889097 89.51109,3.96875 84,3.96875 l -72,0 z M 12,6 84,6 c 3.324,0 6,2.676 6,6 l 0,72 c 0,3.324 -2.676,6 -6,6 L 12,90 C 8.676,90 6,87.324 6,84 L 6,12 C 6,8.676 8.676,6 12,6 z" fill="url(#linearGradient3780)" fill-opacity="1" fill-rule="nonzero" stroke="none" opacity="0.08" inkscape:connector-curvature="0"/>
 <path d="M 12,4.96875 C 7.0283671,4.96875 2.96875,9.0283671 2.96875,14 l 0,71 c 0,4.971633 4.059617,9.03125 9.03125,9.03125 l 72,0 c 4.971633,0 9.03125,-4.059617 9.03125,-9.03125 l 0,-71 C 93.03125,9.028367 88.971633,4.96875 84,4.96875 l -72,0 z M 12,6 84,6 c 3.324,0 6,2.676 6,6 l 0,72 c 0,3.324 -2.676,6 -6,6 L 12,90 C 8.676,90 6,87.324 6,84 L 6,12 C 6,8.676 8.676,6 12,6 z" fill="url(#linearGradient3780)" fill-opacity="1" fill-rule="nonzero" stroke="none" opacity="0.1" inkscape:connector-curvature="0"/>
 <path d="M 11.1875,6.03125 C 7.159982,6.4419011 4,9.8664375 4,14 l 0,71 c 0,4.409133 3.590867,8 8,8 l 72,0 c 4.409133,0 8,-3.590867 8,-8 L 92,14 C 92,9.8029382 88.741028,6.3539584 84.625,6.03125 87.657886,6.337417 90,8.88375 90,12 l 0,72 c 0,3.324 -2.676,6 -6,6 L 12,90 C 8.676,90 6,87.324 6,84 L 6,12 c 0,-3.11625 2.342114,-5.662583 5.375,-5.96875 -0.06227,0.00488 -0.12563,-0.00631 -0.1875,0 z" fill="url(#linearGradient3780)" fill-opacity="1" fill-rule="nonzero" stroke="none" opacity="0.2" inkscape:connector-curvature="0"/>
 <path d="M 6.4375,9.75 C 5.5380109,10.927446 5,12.397277 5,14 l 0,71 c 0,3.878 3.122,7 7,7 l 72,0 c 3.878,0 7,-3.122 7,-7 L 91,14 C 91,12.397277 90.461989,10.927446 89.5625,9.75 89.841816,10.444095 90,11.203625 90,12 l 0,72 c 0,3.324 -2.676,6 -6,6 L 12,90 C 8.676,90 6,87.324 6,84 L 6,12 C 6,11.203625 6.1581836,10.444095 6.4375,9.75 z" fill="url(#linearGradient3780)" fill-opacity="1" fill-rule="nonzero" stroke="none" opacity="0.3" inkscape:connector-curvature="0"/>
 <path d="m 6,84 0,1 c 0,3.324 2.676,6 6,6 l 72,0 c 3.324,0 6,-2.676 6,-6 l 0,-1 c 0,3.324 -2.676,6 -6,6 L 12,90 C 8.676,90 6,87.324 6,84 z" fill="url(#linearGradient3721-1)" fill-opacity="1" fill-rule="nonzero" stroke="none" opacity="0.45" inkscape:connector-curvature="0"/>
 <rect x="6" rx="6" y="6" fill="#000000" fill-opacity="1" fill-rule="nonzero" stroke="none" height="84" opacity="0.6" width="84"/>
 <path d="M 12,90 C 8.676,90 6,87.324 6,84 L 6,82 6,14 6,12 c 0,-0.334721 0.04135,-0.6507 0.09375,-0.96875 0.0487,-0.295596 0.09704,-0.596915 0.1875,-0.875 C 6.29113,10.12587 6.302142,10.09265 6.3125,10.0625 6.411365,9.774729 6.5473802,9.515048 6.6875,9.25 6.8320918,8.976493 7.0031161,8.714385 7.1875,8.46875 7.3718839,8.223115 7.5612765,7.995278 7.78125,7.78125 8.221197,7.353194 8.72416,6.966724 9.28125,6.6875 9.559795,6.547888 9.8547231,6.440553 10.15625,6.34375 9.9000482,6.443972 9.6695391,6.580022 9.4375,6.71875 c -0.00741,0.0044 -0.023866,-0.0045 -0.03125,0 -0.031933,0.0193 -0.062293,0.04251 -0.09375,0.0625 -0.120395,0.0767 -0.2310226,0.163513 -0.34375,0.25 -0.1061728,0.0808 -0.2132809,0.161112 -0.3125,0.25 C 8.4783201,7.442683 8.3087904,7.626638 8.15625,7.8125 8.0486711,7.942755 7.9378561,8.077785 7.84375,8.21875 7.818661,8.25713 7.805304,8.30462 7.78125,8.34375 7.716487,8.446782 7.6510225,8.548267 7.59375,8.65625 7.4927417,8.850956 7.3880752,9.071951 7.3125,9.28125 7.30454,9.30306 7.288911,9.3218 7.28125,9.34375 7.2494249,9.4357 7.2454455,9.530581 7.21875,9.625 7.1884177,9.731618 7.1483606,9.828031 7.125,9.9375 7.0521214,10.279012 7,10.635705 7,11 l 0,2 0,68 0,2 c 0,2.781848 2.2181517,5 5,5 l 2,0 68,0 2,0 c 2.781848,0 5,-2.218152 5,-5 l 0,-2 0,-68 0,-2 C 89,10.635705 88.94788,10.279012 88.875,9.9375 88.83085,9.730607 88.78662,9.539842 88.71875,9.34375 88.71105,9.3218 88.69545,9.30306 88.6875,9.28125 88.62476,9.107511 88.549117,8.913801 88.46875,8.75 88.42717,8.6672 88.38971,8.580046 88.34375,8.5 88.28915,8.40279 88.216976,8.31165 88.15625,8.21875 88.06214,8.077785 87.951329,7.942755 87.84375,7.8125 87.700576,7.63805 87.540609,7.465502 87.375,7.3125 87.36383,7.3023 87.35502,7.29135 87.34375,7.28125 87.205364,7.155694 87.058659,7.046814 86.90625,6.9375 86.803679,6.86435 86.701932,6.784136 86.59375,6.71875 c -0.0074,-0.0045 -0.02384,0.0044 -0.03125,0 -0.232039,-0.138728 -0.462548,-0.274778 -0.71875,-0.375 0.301527,0.0968 0.596455,0.204138 0.875,0.34375 0.55709,0.279224 1.060053,0.665694 1.5,1.09375 0.219973,0.214028 0.409366,0.441865 0.59375,0.6875 0.184384,0.245635 0.355408,0.507743 0.5,0.78125 0.14012,0.265048 0.276135,0.524729 0.375,0.8125 0.01041,0.03078 0.02133,0.06274 0.03125,0.09375 0.09046,0.278085 0.1388,0.579404 0.1875,0.875 C 89.95865,11.3493 90,11.665279 90,12 l 0,2 0,68 0,2 c 0,3.324 -2.676,6 -6,6 l -72,0 z" fill="url(#radialGradient3619-1)" fill-opacity="1" fill-rule="nonzero" stroke="none" opacity="0.15" inkscape:connector-curvature="0"/>
 <path d="m 51.75,18.96875 c -1.694364,0.165224 -1.952076,2.065225 -1.78125,3.424036 0,4.931572 0,9.863143 0,14.794714 -2.224709,0.08217 -4.485916,-0.165529 -6.6875,0.125 -1.6239,0.596701 -1.652692,2.878676 -0.283454,3.777012 5.279632,5.57619 10.495155,11.220396 15.814704,16.754238 1.352399,1.031947 2.809997,-0.175013 3.620592,-1.272774 C 67.524186,51.109779 72.730271,45.731195 77.75,40.21875 c 0.920768,-1.474975 -0.601061,-3.398482 -2.260576,-3.03125 -1.850641,0 -3.701283,0 -5.551924,0 -0.02083,-5.530388 0.04167,-11.067673 -0.03125,-16.59375 -0.356079,-1.743892 -2.302641,-1.716096 -3.701921,-1.625 -4.818109,0 -9.636219,0 -14.454329,0 z m -16,21 c -1.605376,0.443597 -2.393934,2.164513 -3.613837,3.197696 C 27.522139,48.121531 22.792634,52.993655 18.25,58 c -0.920768,1.474975 0.601061,3.398482 2.260576,3.03125 1.850641,0 3.701283,0 5.551924,0 0.02083,5.530388 -0.04167,11.067673 0.03125,16.59375 0.356079,1.743892 2.302641,1.716096 3.701921,1.625 4.869344,-0.02067 9.745541,0.04146 14.610579,-0.03125 1.743892,-0.356079 1.716096,-2.302641 1.625,-3.701921 0,-4.828526 0,-9.657053 0,-14.485579 2.224709,-0.08217 4.485916,0.165529 6.6875,-0.125 1.6239,-0.596701 1.652692,-2.878676 0.283454,-3.777012 C 47.711915,51.543345 42.487007,45.884511 37.15625,40.34375 36.747251,40.048568 36.248821,39.942016 35.75,39.96875 z" stroke-width="2" fill="#000000" color="#000000" fill-opacity="1" fill-rule="nonzero" stroke="none" opacity="0.1" visibility="visible" inkscape:connector-curvature="0"/>
 <path d="M 51.90625,20.0625 A 0.93307872,0.93307872 0 0 0 51.0625,21 l 0,17.28125 -7.0625,0 a 0.93307872,0.93307872 0 0 0 -0.6875,1.5625 l 16,17 a 0.93307872,0.93307872 0 0 0 1.375,0 l 16,-17 A 0.93307872,0.93307872 0 0 0 76,38.28125 l -7.15625,0 0,-17.28125 a 0.93307872,0.93307872 0 0 0 -0.9375,-0.9375 L 52,20.0625 a 0.93307872,0.93307872 0 0 0 -0.09375,0 z m -16,21 A 0.93307872,0.93307872 0 0 0 35.3125,41.375 l -16,17 A 0.93307872,0.93307872 0 0 0 20,59.9375 l 7.15625,0 0,17.28125 a 0.93307872,0.93307872 0 0 0 0.9375,0.9375 l 15.90625,0 a 0.93307872,0.93307872 0 0 0 0.9375,-0.9375 l 0,-17.28125 7.0625,0 a 0.93307872,0.93307872 0 0 0 0.6875,-1.5625 l -16,-17 a 0.93307872,0.93307872 0 0 0 -0.78125,-0.3125 z" stroke-width="2" fill="#000000" color="#000000" fill-opacity="1" fill-rule="nonzero" stroke="none" opacity="0.15" visibility="visible"/>
 <path d="m 52,21 0,18.21875 -8,0 16,17 16,-17 -8.09375,0 L 67.90625,21 52,21 z m -16,21 -16,17 8.09375,0 0,18.21875 15.90625,0 L 44,59 52,59 36,42 z" stroke-width="2" fill="#000000" color="#000000" fill-opacity="1" fill-rule="nonzero" stroke="none" opacity="0.3" visibility="visible" inkscape:connector-curvature="0"/>
 <path d="M 48,21.90625 C 33.065307,21.90625 20.90625,34.065307 20.90625,49 20.90625,63.934693 33.065307,76.09375 48,76.09375 62.934693,76.09375 75.09375,63.934693 75.09375,49 75.09375,34.065307 62.934693,21.90625 48,21.90625 z m 4.09375,16.1875 2.78125,0 0,5.875 c -2.24e-4,-0.108481 -4.56e-4,0.05614 0,0.125 -2.8e-5,0.02336 -7.2e-5,0.186779 0,0.1875 2.53e-4,0.0096 -7e-6,0.124955 0,0.125 0,0 0.03125,0.0625 0.03125,0.0625 0,0 0,0.03125 0,0.03125 0,0 0,0.03125 0,0.03125 1.8e-5,6.5e-5 -0.0016,0.02608 0,0.03125 0.0031,0.01033 0.03015,0.0278 0.03125,0.03125 0.002,0.006 -0.0017,0.02604 0,0.03125 0.0035,0.01041 -0.0039,0.01958 0,0.03125 0.0039,0.01167 0.02869,0.02361 0.03125,0.03125 0.0017,0.0051 -0.0017,0.02627 0,0.03125 -1.77e-4,-7.04e-4 0.0078,0.05459 0,0.03125 0.0091,0.0302 0.02528,0.0759 0.03125,0.09375 0.0078,0.02335 0.03104,0.03056 0.03125,0.03125 4.23e-4,0.0014 0.03076,0.123635 0.03125,0.125 3.72e-4,0.001 0.0171,0.08486 0.03125,0.125 0.0039,0.01168 0.02794,0.02132 0.03125,0.03125 8.39e-4,0.0025 -0.0017,0.02625 0,0.03125 0.0025,0.0077 -0.0039,0.01956 0,0.03125 0.0039,0.01169 0.02779,0.02086 0.03125,0.03125 0.0058,0.01424 -1.2e-5,0.03122 0,0.03125 0.0018,0.005 -2.5e-5,0.03119 0,0.03125 0,0 0.03125,0 0.03125,0 0,0 0,0.03125 0,0.03125 0,0 0,0.03125 0,0.03125 0,0 0,0.03125 0,0.03125 0,0 0.04677,0.0028 0.0625,0.03125 0.01573,0.02846 0.03125,0.0625 0.03125,0.0625 0,0 -0.0056,0.02197 0,0.03125 0,0 0.9375,-0.625 0.9375,-0.625 3.1e-5,3.8e-5 -0.435152,0.392249 -0.65625,0.59375 -0.05885,0.04298 -0.1875,0.125 -0.1875,0.125 0,0 -0.02622,0.0071 -0.03125,0 -0.01097,-0.01641 0.0269,0.02458 0.03125,0.03125 0.0043,0.0067 0.01786,0.01096 0.03125,0.03125 0.04284,0.06492 0.06197,0.124283 0.0625,0.125 4e-6,6e-6 -0.0035,0.02708 0,0.03125 l -1.96875,1.8125 -1.96875,-1.875 c 0.04088,-0.06051 0.103567,-0.155198 0.0625,-0.09375 0.0034,-0.0037 -0.0065,-0.02399 0,-0.03125 0.01199,-0.01937 0.03125,-0.03125 0.03125,-0.03125 0,0 -0.03048,6.38e-4 -0.03125,0 -0.0355,-0.02927 -0.84375,-0.71875 -0.84375,-0.71875 0,0 0.9375,0.625 0.9375,0.625 0.0056,-0.0093 0,-0.03125 0,-0.03125 0.0063,-0.01502 0.02947,-0.02661 0.03125,-0.03125 0.0025,-0.0054 -0.0037,-0.02314 0,-0.03125 0.01573,-0.02846 0.0625,-0.03125 0.0625,-0.03125 0,0 0,-0.03125 0,-0.03125 0,0 0,-0.03125 0,-0.03125 2.5e-5,-6.3e-5 0.02943,-0.05752 0.03125,-0.0625 -2.7e-5,5.7e-5 0.01732,-0.02827 0.03125,-0.0625 0.0039,-0.01169 -0.0025,-0.02358 0,-0.03125 0.0017,-0.005 -8.39e-4,-0.02876 0,-0.03125 0.0033,-0.0099 0.02737,-0.01957 0.03125,-0.03125 0.01415,-0.04014 0.03088,-0.123964 0.03125,-0.125 4.9e-4,-0.0014 0.03083,-0.123612 0.03125,-0.125 2.11e-4,-6.94e-4 0.02345,-0.0079 0.03125,-0.03125 0.006,-0.01785 0.02213,-0.06355 0.03125,-0.09375 -0.0078,0.02334 1.77e-4,-0.03195 0,-0.03125 0.0017,-0.005 -0.0017,-0.0262 0,-0.03125 0.0026,-0.0076 0.02733,-0.01958 0.03125,-0.03125 0.0039,-0.01167 -0.0035,-0.02084 0,-0.03125 0.0017,-0.0052 -0.002,-0.02524 0,-0.03125 0.0011,-0.0035 0.02814,-0.02092 0.03125,-0.03125 0,0 0,-0.03125 0,-0.03125 0,0 0,-0.03125 0,-0.03125 0,0 0,-0.03125 0,-0.03125 7e-6,-4.5e-5 0.031,-0.17789 0.03125,-0.1875 2.53e-4,-0.0096 -4.1e-5,-0.02797 0,-0.03125 0.0011,-0.02595 -0.001,-0.08899 0,-0.125 -3.7e-5,7.25e-4 -2.8e-5,-0.05461 0,-0.03125 4.56e-4,-0.06886 2.24e-4,-0.233481 0,-0.125 l 0,-5.875 z m -0.40625,7.4375 c -0.01859,0.03094 -0.0625,0.0625 -0.0625,0.0625 0.0047,-0.0086 0.03125,0 0.03125,0 0,0 0.03125,-0.0625 0.03125,-0.0625 z m 3.59375,0 c 0,0 0.03125,0.0625 0.03125,0.0625 0,0 0.02652,-0.0086 0.03125,0 0,0 -0.04391,-0.03156 -0.0625,-0.0625 z m -12.8125,4.78125 1.96875,1.875 c -0.04088,0.06051 -0.103567,0.155198 -0.0625,0.09375 0,0 0.01065,0.04528 0,0.0625 0.0355,0.02927 0.84375,0.71875 0.84375,0.71875 0,0 -0.9375,-0.625 -0.9375,-0.625 -1.1e-5,2.5e-5 0.0042,0.02124 0,0.03125 0,0 0.0029,0.02598 0,0.03125 -0.0058,0.01054 -0.02077,0.01228 -0.03125,0.03125 -0.01573,0.02846 -0.0625,0.03125 -0.0625,0.03125 0,0 0,0.03125 0,0.03125 0,0 0,0.03125 0,0.03125 -2.5e-5,6.3e-5 -0.02943,0.05752 -0.03125,0.0625 2.7e-5,-5.7e-5 -0.01732,0.02827 -0.03125,0.0625 -0.0039,0.01169 0.0025,0.02358 0,0.03125 -0.0017,0.005 8.39e-4,0.02876 0,0.03125 2.78e-4,-6.7e-4 -0.039,0.05461 -0.03125,0.03125 -0.01415,0.04014 -0.03088,0.123964 -0.03125,0.125 -4.9e-4,0.0014 -0.03083,0.123612 -0.03125,0.125 -2.11e-4,6.94e-4 -0.02345,0.0079 -0.03125,0.03125 -0.006,0.01785 -0.02213,0.06355 -0.03125,0.09375 -0.0039,0.01167 0.0033,0.02129 0,0.03125 -0.0017,0.005 0.0017,0.0262 0,0.03125 -0.0026,0.0076 -0.02733,0.01958 -0.03125,0.03125 -0.0039,0.01167 0.0035,0.02084 0,0.03125 -0.0017,0.0052 0.002,0.02524 0,0.03125 -0.0011,0.0035 -0.02814,0.02092 -0.03125,0.03125 0,0 0,0.03125 0,0.03125 0,0 0,0.03125 0,0.03125 0,0 0,0.03125 0,0.03125 -7e-6,4.5e-5 -0.031,0.17789 -0.03125,0.1875 7.2e-5,-7.21e-4 4.5e-5,0.117116 0,0.09375 -0.0014,0.037 -1.4e-5,0.08207 0,0.09375 -4.56e-4,0.06886 -2.24e-4,0.233481 0,0.125 l 0,5.875 -2.78125,0 0,-5.875 c 2.24e-4,0.108481 4.56e-4,-0.05614 0,-0.125 -2.8e-5,0.02336 -3.7e-5,-0.03198 0,-0.03125 -5.08e-4,-0.018 9.28e-4,-0.03783 0,-0.0625 -3e-5,0.01558 0.0016,-0.03741 0,-0.0625 -4.1e-5,-0.0033 2.53e-4,-0.02164 0,-0.03125 -2.53e-4,-0.0096 7e-6,-0.124955 0,-0.125 0,0 -0.03125,-0.0625 -0.03125,-0.0625 0,0 0,-0.03125 0,-0.03125 0,0 0,-0.03125 0,-0.03125 -1.8e-5,-6.5e-5 0.0016,-0.02608 0,-0.03125 -0.0016,-0.0052 -0.03041,0.0027 -0.03125,0 4e-6,2.1e-5 0.0027,-0.02099 0,-0.03125 -0.002,-0.006 0.0017,-0.02604 0,-0.03125 -0.0035,-0.01041 0.0039,-0.01958 0,-0.03125 -0.0039,-0.01167 -0.02869,-0.02361 -0.03125,-0.03125 -0.0017,-0.0051 0.0017,-0.02627 0,-0.03125 1.77e-4,7.04e-4 -0.0078,-0.05459 0,-0.03125 -0.0091,-0.0302 -0.02528,-0.0759 -0.03125,-0.09375 -0.0078,-0.02335 -0.03104,-0.03056 -0.03125,-0.03125 -4.23e-4,-0.0014 -0.03076,-0.123635 -0.03125,-0.125 -3.72e-4,-0.001 -0.0171,-0.08486 -0.03125,-0.125 0.0078,0.02336 -0.03153,-0.03192 -0.03125,-0.03125 -8.39e-4,-0.0025 0.0017,-0.02625 0,-0.03125 -5.16e-4,-0.0015 0.006,-0.01642 0,-0.03125 -0.0039,-0.01169 -0.02779,-0.02086 -0.03125,-0.03125 -0.001,-0.003 0.0023,-0.02452 0,-0.03125 -0.0018,-0.005 2.5e-5,-0.03119 0,-0.03125 0,0 -0.03125,0 -0.03125,0 0,0 0,-0.03125 0,-0.03125 0,0 0,-0.03125 0,-0.03125 0,0 0,-0.03125 0,-0.03125 0,0 -0.04677,-0.0028 -0.0625,-0.03125 -0.0018,-0.0051 0.0059,-0.01579 0,-0.03125 -0.0047,-0.0084 -0.02834,0.0053 -0.03125,0 0,0 0,-0.03125 0,-0.03125 0,0 0,-0.03125 0,-0.03125 0,0 -0.9375,0.625 -0.9375,0.625 -3.1e-5,-3.8e-5 0.435152,-0.392249 0.65625,-0.59375 0.05885,-0.04298 0.1875,-0.125 0.1875,-0.125 0.0025,0.0036 0.0026,-0.02725 0,-0.03125 -0.01304,-0.01451 -0.02687,-0.02665 -0.03125,-0.03125 -0.04284,-0.06492 -0.06197,-0.124283 -0.0625,-0.125 -4e-6,-6e-6 0.0035,-0.02708 0,-0.03125 l 1.96875,-1.8125 z m -1.78125,2.125 c 0,0 -0.03125,-0.0625 -0.03125,-0.0625 0,0 -0.02652,0.0086 -0.03125,0 0,0 0.04391,0.03156 0.0625,0.0625 z m 3.59375,0 c 0.01859,-0.03094 0.0625,-0.0625 0.0625,-0.0625 -0.0047,0.0086 -0.03125,0 -0.03125,0 0,0 -0.03125,0.0625 -0.03125,0.0625 z" fill="#000000" fill-opacity="1" stroke="none" opacity="0.08" transform="matrix(1 0 0 1 80 0)"/>
 <path d="M 48,23.03125 C 33.675722,23.03125 22.03125,34.675722 22.03125,49 22.03125,63.324278 33.675722,74.96875 48,74.96875 62.324278,74.96875 73.96875,63.324278 73.96875,49 73.96875,34.675722 62.324278,23.03125 48,23.03125 z m 2.96875,13.9375 5.03125,0 0,7 c 3e-6,0.0015 -7.4e-5,0.0923 0,0.09375 7.4e-5,0.0014 -1.44e-4,0.09231 0,0.09375 1.44e-4,0.0014 -2.15e-4,0.09231 0,0.09375 2.15e-4,0.0014 0.03097,0.09233 0.03125,0.09375 2.85e-4,0.0014 0.0309,0.09234 0.03125,0.09375 3.54e-4,0.0014 0.03083,0.09236 0.03125,0.09375 4.23e-4,0.0014 0.03076,0.09239 0.03125,0.09375 4.9e-4,0.0014 0.03069,0.09241 0.03125,0.09375 5.56e-4,0.0013 0.03063,0.09244 0.03125,0.09375 6.21e-4,0.0013 0.03057,0.09247 0.03125,0.09375 6.85e-4,0.0013 0.06175,0.06126 0.0625,0.0625 7.46e-4,0.0012 0.03044,0.09254 0.03125,0.09375 8.06e-4,0.0012 0.06164,0.09258 0.0625,0.09375 8.65e-4,0.0012 0.06158,0.06138 0.0625,0.0625 9.21e-4,0.0011 0.06153,0.06142 0.0625,0.0625 9.74e-4,0.0011 0.06147,0.09272 0.0625,0.09375 0.001,0.001 0.09267,0.06153 0.09375,0.0625 0.0011,9.74e-4 0.06138,0.06158 0.0625,0.0625 0.0011,9.21e-4 0.06133,0.06164 0.0625,0.0625 0.0012,8.65e-4 0.09254,0.06169 0.09375,0.0625 0.0012,8.06e-4 0.09251,0.0305 0.09375,0.03125 0.0012,7.46e-4 0.06122,0.06182 0.0625,0.0625 0.0013,6.85e-4 0.09244,0.03063 0.09375,0.03125 9.18e-4,4.35e-4 0.03672,0.01981 0.0625,0.03125 L 53.5,49.21875 49.8125,45.75 c 0.01105,-0.0049 0.03086,1.86e-4 0.03125,0 0.0013,-6.21e-4 0.09247,-0.03057 0.09375,-0.03125 0.0013,-6.85e-4 0.06126,-0.06175 0.0625,-0.0625 0.0012,-7.46e-4 0.09254,-0.03044 0.09375,-0.03125 0.0012,-8.06e-4 0.09258,-0.06164 0.09375,-0.0625 0.0012,-8.65e-4 0.06138,-0.06158 0.0625,-0.0625 0.0011,-9.21e-4 0.06142,-0.06153 0.0625,-0.0625 0.0011,-9.74e-4 0.09272,-0.06147 0.09375,-0.0625 0.001,-0.001 0.06153,-0.09267 0.0625,-0.09375 9.74e-4,-0.0011 0.06158,-0.06138 0.0625,-0.0625 9.21e-4,-0.0011 0.06164,-0.06133 0.0625,-0.0625 8.65e-4,-0.0012 0.06169,-0.09254 0.0625,-0.09375 8.06e-4,-0.0012 0.0305,-0.09251 0.03125,-0.09375 7.46e-4,-0.0012 0.06182,-0.06122 0.0625,-0.0625 6.85e-4,-0.0013 0.03063,-0.09244 0.03125,-0.09375 6.21e-4,-0.0013 0.03069,-0.09241 0.03125,-0.09375 5.56e-4,-0.0013 0.03076,-0.09239 0.03125,-0.09375 4.9e-4,-0.0014 0.03083,-0.09236 0.03125,-0.09375 4.23e-4,-0.0014 0.0309,-0.09234 0.03125,-0.09375 3.54e-4,-0.0014 0.03097,-0.09233 0.03125,-0.09375 2.85e-4,-0.0014 0.03104,-0.09231 0.03125,-0.09375 2.15e-4,-0.0014 -1.44e-4,-0.09231 0,-0.09375 1.44e-4,-0.0014 -7.4e-5,-0.0923 0,-0.09375 7.4e-5,-0.0014 -3e-6,-0.0923 0,-0.09375 l 0,-7 z m -8.5,11.78125 3.6875,3.46875 c -0.01105,0.0049 -0.03086,-1.86e-4 -0.03125,0 -0.0013,6.21e-4 -0.09247,0.03057 -0.09375,0.03125 -0.0013,6.85e-4 -0.06126,0.06175 -0.0625,0.0625 -0.0012,7.46e-4 -0.09254,0.03044 -0.09375,0.03125 -0.0012,8.06e-4 -0.09258,0.06164 -0.09375,0.0625 -0.0012,8.65e-4 -0.06138,0.06158 -0.0625,0.0625 -0.0011,9.21e-4 -0.06142,0.06153 -0.0625,0.0625 -0.0011,9.74e-4 -0.09272,0.06147 -0.09375,0.0625 -0.001,0.001 -0.06153,0.09267 -0.0625,0.09375 -9.74e-4,0.0011 -0.06158,0.06138 -0.0625,0.0625 -9.21e-4,0.0011 -0.06164,0.06133 -0.0625,0.0625 -8.65e-4,0.0012 -0.06169,0.09254 -0.0625,0.09375 -8.06e-4,0.0012 -0.0305,0.09251 -0.03125,0.09375 -7.46e-4,0.0012 -0.06182,0.06122 -0.0625,0.0625 -6.85e-4,0.0013 -0.03063,0.09244 -0.03125,0.09375 -6.21e-4,0.0013 -0.03069,0.09241 -0.03125,0.09375 -5.56e-4,0.0013 -0.03076,0.09239 -0.03125,0.09375 -4.9e-4,0.0014 -0.03083,0.09236 -0.03125,0.09375 -4.23e-4,0.0014 -0.0309,0.09234 -0.03125,0.09375 -3.54e-4,0.0014 -0.03097,0.09233 -0.03125,0.09375 -2.85e-4,0.0014 -0.03104,0.09231 -0.03125,0.09375 -2.15e-4,0.0014 1.44e-4,0.09231 0,0.09375 -1.44e-4,0.0014 7.4e-5,0.0923 0,0.09375 -7.4e-5,0.0014 3e-6,0.0923 0,0.09375 l 0,7 -5.03125,0 0,-7 c -3e-6,-0.0015 7.4e-5,-0.0923 0,-0.09375 -7.4e-5,-0.0014 1.44e-4,-0.09231 0,-0.09375 -1.44e-4,-0.0014 2.15e-4,-0.09231 0,-0.09375 -2.15e-4,-0.0014 -0.03097,-0.09233 -0.03125,-0.09375 -2.85e-4,-0.0014 -0.0309,-0.09234 -0.03125,-0.09375 -3.54e-4,-0.0014 -0.03083,-0.09236 -0.03125,-0.09375 -4.23e-4,-0.0014 -0.03076,-0.09239 -0.03125,-0.09375 -4.9e-4,-0.0014 -0.03069,-0.09241 -0.03125,-0.09375 -5.56e-4,-0.0013 -0.03063,-0.09244 -0.03125,-0.09375 -6.21e-4,-0.0013 -0.03057,-0.09247 -0.03125,-0.09375 -6.85e-4,-0.0013 -0.06175,-0.06126 -0.0625,-0.0625 -7.46e-4,-0.0012 -0.03044,-0.09254 -0.03125,-0.09375 -8.06e-4,-0.0012 -0.06164,-0.09258 -0.0625,-0.09375 -8.65e-4,-0.0012 -0.06158,-0.06138 -0.0625,-0.0625 -9.21e-4,-0.0011 -0.06153,-0.06142 -0.0625,-0.0625 -9.74e-4,-0.0011 -0.06147,-0.09272 -0.0625,-0.09375 -0.001,-0.001 -0.09267,-0.06153 -0.09375,-0.0625 -0.0011,-9.74e-4 -0.06138,-0.06158 -0.0625,-0.0625 -0.0011,-9.21e-4 -0.06133,-0.06164 -0.0625,-0.0625 -0.0012,-8.65e-4 -0.09254,-0.06169 -0.09375,-0.0625 -0.0012,-8.06e-4 -0.09251,-0.0305 -0.09375,-0.03125 -0.0012,-7.46e-4 -0.06122,-0.06182 -0.0625,-0.0625 -0.0013,-6.85e-4 -0.09244,-0.03063 -0.09375,-0.03125 -9.18e-4,-4.35e-4 -0.03672,-0.01981 -0.0625,-0.03125 l 3.6875,-3.4375 z" fill="#000000" fill-opacity="1" stroke="none" opacity="0.1" transform="matrix(1 0 0 1 80 0)"/>
 <path d="M 48,23.96875 C 34.186928,23.96875 22.96875,35.186928 22.96875,49 22.96875,62.813072 34.186928,74.03125 48,74.03125 61.813072,74.03125 73.03125,62.813072 73.03125,49 73.03125,35.186928 61.813072,23.96875 48,23.96875 z m 2.03125,12.0625 6.90625,0 0,7.9375 A 1.033035,1.033035 0 0 0 57.96875,45 L 59.375,45 53.5,50.53125 47.625,45 49,45 a 1.033035,1.033035 0 0 0 1.03125,-1.03125 l 0,-7.9375 z m -7.5625,11.40625 5.875,5.53125 -1.375,0 A 1.033035,1.033035 0 0 0 45.9375,54 l 0,7.9375 -6.90625,0 0,-7.9375 A 1.033035,1.033035 0 0 0 38,52.96875 l -1.40625,0 5.875,-5.53125 z" fill="#000000" fill-opacity="1" stroke="none" opacity="0.15" transform="matrix(1 0 0 1 80 0)"/>
 <path d="m 128,25 c -13.25483,0 -24,10.745166 -24,24 0,13.254834 10.74517,24 24,24 13.25483,0 24,-10.745166 24,-24 0,-13.254834 -10.74517,-24 -24,-24 z m 1,10 8.96875,0 0,8.96875 4,0 -8.46875,8 -8.5,-8 4,0 L 129,35 z m -6.53125,11 8.5,8 -4,0 0,8.96875 -8.96875,0 0,-8.96875 -4,0 8.46875,-8 z" fill="#000000" fill-opacity="1" stroke="none" opacity="0.3" inkscape:connector-curvature="0"/>
 <path d="m 128,24 c -13.25483,0 -24,10.745166 -24,24 0,13.254834 10.74517,24 24,24 13.25483,0 24,-10.745166 24,-24 0,-13.254834 -10.74517,-24 -24,-24 z m 1,10 8.96875,0 0,8.96875 4,0 -8.46875,8 -8.5,-8 4,0 L 129,34 z m -6.53125,11 8.5,8 -4,0 0,8.96875 -8.96875,0 0,-8.96875 -4,0 8.46875,-8 z" fill="url(#linearGradient2995)" fill-opacity="1" stroke="none" inkscape:connector-curvature="0"/>
 <path d="m 128,24 c -13.25483,0 -24,10.745166 -24,24 0,0.165582 -0.003,0.335217 0,0.5 0.26384,-13.026064 10.91075,-23.5 24,-23.5 13.08925,0 23.73616,10.473936 24,23.5 0.003,-0.164783 0,-0.334418 0,-0.5 0,-13.254834 -10.74517,-24 -24,-24 z m -3,19.96875 8.5,8 8.46875,-8 -1.0625,0 -7.40625,7 -7.4375,-7 -1.0625,0 z M 115.0625,53 114,54 l 4,0 0,-1 -2.9375,0 z m 11.90625,0 0,1 4,0 -1.0625,-1 -2.9375,0 z M 118,61.96875 l 0,1 8.96875,0 0,-1 -8.96875,0 z" fill="#ffffff" fill-opacity="1" stroke="none" opacity="0.75" inkscape:connector-curvature="0"/>
 <path d="m 129,33 0,1 8.96875,0 0,-1 L 129,33 z m -4,8.96875 1.0625,1 2.9375,0 0,-1 -4,0 z m 12.96875,0 0,1 2.9375,0 1.0625,-1 -4,0 z M 122.46875,44 114,52 l 1.0625,0 7.40625,-7 7.4375,7 1.0625,0 -8.5,-8 z M 104,47.5 c -0.003,0.164783 0,0.334418 0,0.5 0,13.254834 10.74517,24 24,24 13.25483,0 24,-10.745166 24,-24 0,-0.165582 0.003,-0.335217 0,-0.5 C 151.73616,60.526064 141.08925,71 128,71 114.91075,71 104.26384,60.526064 104,47.5 z" fill="#000000" fill-opacity="1" stroke="none" opacity="0.15" inkscape:connector-curvature="0"/>
 <path d="m 52,20 0,18.21875 -8,0 16,17 16,-17 -8.09375,0 L 67.90625,20 52,20 z" stroke-width="2" fill="url(#linearGradient3177)" color="#000000" fill-opacity="1" fill-rule="nonzero" stroke="none" visibility="visible" inkscape:connector-curvature="0"/>
 <path d="m 36,41 -16,17 8.09375,0 0,18.21875 15.90625,0 L 44,58 52,58 36,41 z" stroke-width="2" fill="url(#linearGradient3175)" color="#000000" fill-opacity="1" fill-rule="nonzero" stroke="none" visibility="visible" inkscape:connector-curvature="0"/>
 <path d="m 52,20 0,1 15.90625,0 0,-1 L 52,20 z m -8,18.21875 0.9375,1 7.0625,0 0,-1 -8,0 z m 23.90625,0 0,1 7.15625,0 0.9375,-1 -8.09375,0 z M 36,41 20,58 20.9375,58 36,42 51.0625,58 52,58 36,41 z" stroke-width="2" fill="#ffffff" color="#000000" fill-opacity="1" fill-rule="nonzero" stroke="none" opacity="0.75" visibility="visible" inkscape:connector-curvature="0"/>
 <path d="m 44,38.21875 16,17 16,-17 -0.9375,0 -15.0625,16 -15.0625,-16 -0.9375,0 z M 20.9375,57 20,58 l 8.09375,0 0,-1 -7.15625,0 z M 44,57 44,58 52,58 51.0625,57 44,57 z m -15.90625,18.21875 0,1 15.90625,0 0,-1 -15.90625,0 z" stroke-width="2" fill="#000000" color="#000000" fill-opacity="1" fill-rule="nonzero" stroke="none" opacity="0.15" visibility="visible" inkscape:connector-curvature="0"/>
</svg>
