<svg height="96" width="96" xmlns="http://www.w3.org/2000/svg" xmlns:xlink="http://www.w3.org/1999/xlink" xmlns:sodipodi="http://sodipodi.sourceforge.net/DTD/sodipodi-0.dtd" xmlns:inkscape="http://www.inkscape.org/namespaces/inkscape">
 <defs>
  <linearGradient id="linearGradient3641">
   <stop stop-color="#000000" stop-opacity="1"/>
   <stop stop-color="#000000" stop-opacity="0" offset="1"/>
  </linearGradient>
  <linearGradient id="linearGradient3737">
   <stop stop-color="#ffffff" stop-opacity="1"/>
   <stop stop-color="#ffffff" stop-opacity="0" offset="1"/>
  </linearGradient>
  <linearGradient id="linearGradient3700">
   <stop stop-color="#dcdcdc" stop-opacity="1"/>
   <stop stop-color="#f0f0f0" stop-opacity="1" offset="1"/>
  </linearGradient>
  <filter x="-0.192" y="-0.192" height="1.384" color-interpolation-filters="sRGB" id="filter3794" width="1.384">
   <feGaussianBlur stdDeviation="5.28"/>
  </filter>
  <linearGradient x2="0" xlink:href="#linearGradient3737" y1="20.221" y2="138.66" gradientUnits="userSpaceOnUse" id="linearGradient3613"/>
  <clipPath id="clipPath3613">
   <use xlink:href="#SVGCleanerId_0"/>
  </clipPath>
  <linearGradient x2="0" xlink:href="#linearGradient3700" y1="88" y2="32" gradientUnits="userSpaceOnUse" id="linearGradient3627"/>
  <linearGradient x2="0" y1="88" y2="36" gradientUnits="userSpaceOnUse" id="linearGradient3635">
   <stop stop-color="#d5d5d5" stop-opacity="1"/>
   <stop stop-color="#f1f1f1" stop-opacity="1" offset="1"/>
  </linearGradient>
  <filter color-interpolation-filters="sRGB" id="filter3649">
   <feGaussianBlur stdDeviation="1.38"/>
  </filter>
  <filter color-interpolation-filters="sRGB" id="filter3665">
   <feGaussianBlur stdDeviation="0.69"/>
  </filter>
  <linearGradient x2="0" xlink:href="#linearGradient3737" y1="6" y2="63.893" gradientUnits="userSpaceOnUse" id="linearGradient3687"/>
  <linearGradient x2="0" xlink:href="#linearGradient3700" y1="90" y2="5.988" gradientUnits="userSpaceOnUse" id="linearGradient3689"/>
  <clipPath id="clipPath3696">
   <use xlink:href="#SVGCleanerId_1"/>
  </clipPath>
  <linearGradient x2="0" xlink:href="#linearGradient3641" y1="32" y2="80" gradientUnits="userSpaceOnUse" id="linearGradient3701" gradientTransform="matrix(1 0 0 1 100 0)"/>
  <clipPath id="clipPath3703">
   <use xlink:href="#SVGCleanerId_1"/>
  </clipPath>
  <linearGradient x2="0" xlink:href="#linearGradient3641" y1="62" y2="21" gradientUnits="userSpaceOnUse" id="linearGradient3707" gradientTransform="matrix(1 0 0 1 100 -1)"/>
  <radialGradient cy="90.17" r="42" xlink:href="#linearGradient3737" gradientUnits="userSpaceOnUse" id="radialGradient2858" cx="48" gradientTransform="matrix(1.15731 0 0 0.99591 -7.551 0.197)"/>
  <linearGradient x2="0" y1="92.54" y2="7.02" gradientUnits="userSpaceOnUse" id="ButtonShadow-0" gradientTransform="matrix(1.0059 0 0 0.99417 100 0)">
   <stop stop-color="#000000" stop-opacity="1"/>
   <stop stop-color="#000000" stop-opacity="0.588" offset="1"/>
  </linearGradient>
  <linearGradient x2="0" xlink:href="#ButtonShadow-0" y1="6.132" y2="90.24" gradientUnits="userSpaceOnUse" id="linearGradient3780" gradientTransform="matrix(1.02381 0 0 1.0119 -1.143 -98.07)"/>
  <linearGradient x2="0" xlink:href="#ButtonShadow-0" y1="6.132" y2="90.24" gradientUnits="userSpaceOnUse" id="linearGradient3721" gradientTransform="matrix(1 0 0 1 0 -97)"/>
  <linearGradient x2="0" xlink:href="#linearGradient3655" y1="16.07" y2="11.246" gradientUnits="userSpaceOnUse" id="linearGradient4042" gradientTransform="matrix(-4.3075 0 0 5.59561 56.764 -5.93)"/>
  <linearGradient id="linearGradient3655">
   <stop stop-color="#ff6600" stop-opacity="1"/>
   <stop stop-color="#ffb62d" stop-opacity="1" offset="1"/>
  </linearGradient>
  <linearGradient x2="0" xlink:href="#linearGradient3737" y1="16.07" y2="11.246" gradientUnits="userSpaceOnUse" id="linearGradient3954" gradientTransform="matrix(-4.3075 0 0 -5.59561 56.764 140.93)"/>
  <linearGradient x2="0" xlink:href="#linearGradient3655" y1="16.07" y2="11.246" gradientUnits="userSpaceOnUse" id="linearGradient3998" gradientTransform="matrix(-4.3075 0 0 5.59561 70.76 -5.93)"/>
  <linearGradient x2="0" xlink:href="#linearGradient3737" y1="16.07" y2="11.246" gradientUnits="userSpaceOnUse" id="linearGradient4000" gradientTransform="matrix(-4.3075 0 0 -5.59561 70.76 140.93)"/>
  <rect x="6" rx="6" y="6" height="84" id="SVGCleanerId_0" width="84"/>
  <rect x="106" rx="6" y="6" height="84" id="SVGCleanerId_1" width="84"/>
 </defs>
 <g display="inline">
  <path d="m 12,-95.03125 c -5.5110903,0 -10.03125,4.52016 -10.03125,10.03125 l 0,71 c 0,5.5110902 4.5201598,10.03125 10.03125,10.03125 l 72,0 c 5.51109,0 10.03125,-4.5201597 10.03125,-10.03125 l 0,-71 c 0,-5.51109 -4.52016,-10.03125 -10.03125,-10.03125 l -72,0 z" fill="url(#linearGradient3780)" fill-opacity="1" fill-rule="nonzero" stroke="none" opacity="0.08" transform="matrix(1 0 0 -1 0 0)"/>
  <path d="m 12,-94.03125 c -4.971633,0 -9.03125,4.059617 -9.03125,9.03125 l 0,71 c 0,4.9716329 4.0596171,9.03125 9.03125,9.03125 l 72,0 c 4.971633,0 9.03125,-4.059617 9.03125,-9.03125 l 0,-71 c 0,-4.971633 -4.059617,-9.03125 -9.03125,-9.03125 l -72,0 z" fill="url(#linearGradient3780)" fill-opacity="1" fill-rule="nonzero" stroke="none" opacity="0.1" transform="matrix(1 0 0 -1 0 0)"/>
  <path d="m 12,-93 c -4.4091333,0 -8,3.590867 -8,8 l 0,71 c 0,4.4091333 3.5908667,8 8,8 l 72,0 c 4.409133,0 8,-3.5908667 8,-8 l 0,-71 c 0,-4.409133 -3.590867,-8 -8,-8 l -72,0 z" fill="url(#linearGradient3780)" fill-opacity="1" fill-rule="nonzero" stroke="none" opacity="0.2" transform="matrix(1 0 0 -1 0 0)"/>
  <rect x="5" rx="7" y="-92" fill="url(#linearGradient3780)" fill-opacity="1" fill-rule="nonzero" stroke="none" height="85" opacity="0.3" width="86" transform="matrix(1 0 0 -1 0 0)"/>
  <rect x="6" rx="6" y="-91" fill="url(#linearGradient3721)" fill-opacity="1" fill-rule="nonzero" stroke="none" height="84" opacity="0.45" width="84" transform="matrix(1 0 0 -1 0 0)"/>
 </g>
 <use xlink:href="#SVGCleanerId_0" fill="url(#linearGradient3689)" fill-opacity="1" fill-rule="nonzero" stroke="none"/>
 <path d="m 112,89 c -3.324,0 -6,-2.676 -6,-6 l 0,-6 42,-42 42,42 0,6 c 0,3.324 -2.676,6 -6,6 l -72,0 z" clip-path="url(#clipPath3696)" fill="url(#linearGradient3701)" fill-opacity="1" stroke="none" filter="url(#filter3665)" opacity="0.3" inkscape:connector-curvature="0" transform="matrix(1 0 0 1 -100 -1)"/>
 <path d="M 12,90 C 8.676,90 6,87.324 6,84 l 0,-6 42,-42 42,42 0,6 c 0,3.324 -2.676,6 -6,6 l -72,0 z" fill="url(#linearGradient3635)" fill-opacity="1" stroke="none" inkscape:connector-curvature="0"/>
 <path d="M 48,36 6,78 6,79 48,37 90,79 90,78 48,36 z" fill="#ffffff" fill-opacity="1" stroke="none" opacity="0.4" inkscape:connector-curvature="0"/>
 <path d="m 112,7 c -3.324,0 -6,2.676 -6,6 l 0,6 42,42 42,-42 0,-6 c 0,-3.324 -2.676,-6 -6,-6 l -72,0 z" clip-path="url(#clipPath3703)" fill="url(#linearGradient3707)" fill-opacity="1" stroke="none" filter="url(#filter3649)" opacity="0.4" inkscape:connector-curvature="0" transform="matrix(1 0 0 1 -100 1)"/>
 <path d="M 12,6 C 8.676,6 6,8.676 6,12 l 0,6 42,42 42,-42 0,-6 C 90,8.676 87.324,6 84,6 L 12,6 z" fill="url(#linearGradient3627)" fill-opacity="1" stroke="none" inkscape:connector-curvature="0"/>
 <path d="M 6,17 6,18 48,60 90,18 90,17 48,59 6,17 z" fill="#ffffff" fill-opacity="1" stroke="none" opacity="0.6" inkscape:connector-curvature="0"/>
 <g display="inline">
  <rect stroke="#ffffff" stroke-dasharray="none" clip-path="url(#clipPath3613)" stroke-dashoffset="0" stroke-linecap="round" height="66" stroke-linejoin="miter" stroke-miterlimit="4" stroke-opacity="1" stroke-width="0.5" width="66" fill="url(#linearGradient3613)" fill-opacity="1" opacity="0.1" x="15" fill-rule="nonzero" filter="url(#filter3794)" y="15" rx="12"/>
  <path d="M 12,6 C 8.676,6 6,8.676 6,12 l 0,2 0,68 0,2 c 0,0.334721 0.04135,0.6507 0.09375,0.96875 0.0487,0.295596 0.09704,0.596915 0.1875,0.875 0.0099,0.03038 0.02089,0.0636 0.03125,0.09375 0.09886,0.287771 0.23488,0.547452 0.375,0.8125 0.144592,0.273507 0.315616,0.535615 0.5,0.78125 0.184384,0.245635 0.373776,0.473472 0.59375,0.6875 0.439947,0.428056 0.94291,0.814526 1.5,1.09375 0.278545,0.139612 0.573473,0.246947 0.875,0.34375 -0.256202,-0.100222 -0.486711,-0.236272 -0.71875,-0.375 -0.0074,-0.0044 -0.02387,0.0045 -0.03125,0 -0.03193,-0.0193 -0.06229,-0.04251 -0.09375,-0.0625 -0.120395,-0.0767 -0.231023,-0.163513 -0.34375,-0.25 -0.106173,-0.0808 -0.213281,-0.161112 -0.3125,-0.25 C 8.47832,88.557317 8.30879,88.373362 8.15625,88.1875 8.048671,88.057245 7.937856,87.922215 7.84375,87.78125 7.81866,87.74287 7.8053,87.69538 7.78125,87.65625 7.71649,87.553218 7.651022,87.451733 7.59375,87.34375 7.492742,87.149044 7.388075,86.928049 7.3125,86.71875 7.3045,86.69694 7.28891,86.6782 7.28125,86.65625 7.24942,86.5643 7.24545,86.469419 7.21875,86.375 7.188418,86.268382 7.148361,86.171969 7.125,86.0625 7.052121,85.720988 7,85.364295 7,85 L 7,83 7,15 7,13 C 7,10.218152 9.218152,8 12,8 l 2,0 68,0 2,0 c 2.781848,0 5,2.218152 5,5 l 0,2 0,68 0,2 c 0,0.364295 -0.05212,0.720988 -0.125,1.0625 -0.04415,0.206893 -0.08838,0.397658 -0.15625,0.59375 -0.0077,0.02195 -0.0233,0.04069 -0.03125,0.0625 -0.06274,0.173739 -0.138383,0.367449 -0.21875,0.53125 -0.04158,0.0828 -0.07904,0.169954 -0.125,0.25 -0.0546,0.09721 -0.126774,0.18835 -0.1875,0.28125 -0.09411,0.140965 -0.204921,0.275995 -0.3125,0.40625 -0.143174,0.17445 -0.303141,0.346998 -0.46875,0.5 -0.01117,0.0102 -0.01998,0.02115 -0.03125,0.03125 -0.138386,0.125556 -0.285091,0.234436 -0.4375,0.34375 -0.102571,0.07315 -0.204318,0.153364 -0.3125,0.21875 -0.0074,0.0045 -0.02384,-0.0044 -0.03125,0 -0.232039,0.138728 -0.462548,0.274778 -0.71875,0.375 0.301527,-0.0968 0.596455,-0.204138 0.875,-0.34375 0.55709,-0.279224 1.060053,-0.665694 1.5,-1.09375 0.219973,-0.214028 0.409366,-0.441865 0.59375,-0.6875 0.184384,-0.245635 0.355408,-0.507743 0.5,-0.78125 0.14012,-0.265048 0.276135,-0.524729 0.375,-0.8125 0.01041,-0.03078 0.02133,-0.06274 0.03125,-0.09375 0.09046,-0.278085 0.1388,-0.579404 0.1875,-0.875 C 89.95865,84.6507 90,84.334721 90,84 l 0,-2 0,-68 0,-2 C 90,8.676 87.324,6 84,6 L 12,6 z" fill="url(#linearGradient3687)" fill-opacity="1" fill-rule="nonzero" stroke="none" opacity="0.6" inkscape:connector-curvature="0"/>
  <path d="M 12,90 C 8.676,90 6,87.324 6,84 L 6,82 6,14 6,12 c 0,-0.334721 0.04135,-0.6507 0.09375,-0.96875 0.0487,-0.295596 0.09704,-0.596915 0.1875,-0.875 C 6.29113,10.12587 6.302142,10.09265 6.3125,10.0625 6.411365,9.774729 6.5473802,9.515048 6.6875,9.25 6.8320918,8.976493 7.0031161,8.714385 7.1875,8.46875 7.3718839,8.223115 7.5612765,7.995278 7.78125,7.78125 8.221197,7.353194 8.72416,6.966724 9.28125,6.6875 9.559795,6.547888 9.8547231,6.440553 10.15625,6.34375 9.9000482,6.443972 9.6695391,6.580022 9.4375,6.71875 c -0.00741,0.0044 -0.023866,-0.0045 -0.03125,0 -0.031933,0.0193 -0.062293,0.04251 -0.09375,0.0625 -0.120395,0.0767 -0.2310226,0.163513 -0.34375,0.25 -0.1061728,0.0808 -0.2132809,0.161112 -0.3125,0.25 C 8.4783201,7.442683 8.3087904,7.626638 8.15625,7.8125 8.0486711,7.942755 7.9378561,8.077785 7.84375,8.21875 7.818661,8.25713 7.805304,8.30462 7.78125,8.34375 7.716487,8.446782 7.6510225,8.548267 7.59375,8.65625 7.4927417,8.850956 7.3880752,9.071951 7.3125,9.28125 7.30454,9.30306 7.288911,9.3218 7.28125,9.34375 7.2494249,9.4357 7.2454455,9.530581 7.21875,9.625 7.1884177,9.731618 7.1483606,9.828031 7.125,9.9375 7.0521214,10.279012 7,10.635705 7,11 l 0,2 0,68 0,2 c 0,2.781848 2.2181517,5 5,5 l 2,0 68,0 2,0 c 2.781848,0 5,-2.218152 5,-5 l 0,-2 0,-68 0,-2 C 89,10.635705 88.94788,10.279012 88.875,9.9375 88.83085,9.730607 88.78662,9.539842 88.71875,9.34375 88.71105,9.3218 88.69545,9.30306 88.6875,9.28125 88.62476,9.107511 88.549117,8.913801 88.46875,8.75 88.42717,8.6672 88.38971,8.580046 88.34375,8.5 88.28915,8.40279 88.216976,8.31165 88.15625,8.21875 88.06214,8.077785 87.951329,7.942755 87.84375,7.8125 87.700576,7.63805 87.540609,7.465502 87.375,7.3125 87.36383,7.3023 87.35502,7.29135 87.34375,7.28125 87.205364,7.155694 87.058659,7.046814 86.90625,6.9375 86.803679,6.86435 86.701932,6.784136 86.59375,6.71875 c -0.0074,-0.0045 -0.02384,0.0044 -0.03125,0 -0.232039,-0.138728 -0.462548,-0.274778 -0.71875,-0.375 0.301527,0.0968 0.596455,0.204138 0.875,0.34375 0.55709,0.279224 1.060053,0.665694 1.5,1.09375 0.219973,0.214028 0.409366,0.441865 0.59375,0.6875 0.184384,0.245635 0.355408,0.507743 0.5,0.78125 0.14012,0.265048 0.276135,0.524729 0.375,0.8125 0.01041,0.03078 0.02133,0.06274 0.03125,0.09375 0.09046,0.278085 0.1388,0.579404 0.1875,0.875 C 89.95865,11.3493 90,11.665279 90,12 l 0,2 0,68 0,2 c 0,3.324 -2.676,6 -6,6 l -72,0 z" fill="url(#radialGradient2858)" fill-opacity="1" fill-rule="nonzero" stroke="none" opacity="0.3" inkscape:connector-curvature="0"/>
 </g>
 <path d="m 22.875,50.03125 c -1.316957,0.225165 -2.17759,1.450285 -3.270046,2.147447 C 13.252353,57.184964 6.8575189,62.1647 0.53125,67.1875 -0.38922782,68.213827 0.1077001,69.824503 1.2758628,70.419874 8.1863468,75.839106 15.077362,81.284767 22,86.6875 c 1.329887,0.840457 3.178177,-0.38422 2.96875,-1.939109 0,-2.239047 0,-4.478094 0,-6.717141 3.726305,2.894866 7.39248,5.880296 11.15625,8.71875 1.329572,0.7212 3.040898,-0.508658 2.84375,-2.001609 0,-2.259881 0,-4.519761 0,-6.779641 3.496761,-0.0408 7.020095,0.08216 10.5,-0.0625 1.24514,-0.283509 1.664605,-1.654916 1.5,-2.786883 -0.02082,-4.798517 0.04165,-9.610552 -0.03125,-14.400617 -0.14872,-1.277809 -1.532828,-1.879448 -2.692328,-1.6875 -3.092141,0 -6.184281,0 -9.276422,0 -0.03985,-2.477037 0.08087,-4.971966 -0.0625,-7.4375 -0.251255,-1.560505 -2.412954,-2.054054 -3.421708,-0.89175 -3.505264,2.755584 -7.010528,5.511167 -10.515792,8.26675 -0.04237,-2.454839 0.08434,-4.937114 -0.0625,-7.375 -0.167778,-0.924115 -1.087085,-1.635055 -2.03125,-1.5625 z" display="inline" fill="#000000" fill-opacity="1" stroke="none" opacity="0.1" inkscape:connector-curvature="0"/>
 <path d="m 22.875,51 a 1.0025602,1.0025602 0 0 0 -0.5,0.21875 l -21,16.5 a 1.0025602,1.0025602 0 0 0 0,1.5625 l 21,16.5 A 1.0025602,1.0025602 0 0 0 24,85 l 0,-8 1.1875,0 11.1875,8.78125 A 1.0025602,1.0025602 0 0 0 38,85 l 0,-8 11,0 a 1.0025602,1.0025602 0 0 0 1,-1 l 0,-15 a 1.0025602,1.0025602 0 0 0 -1,-1 l -11,0 0,-8 A 1.0025602,1.0025602 0 0 0 36.375,51.21875 L 25.1875,60 24,60 24,52 a 1.0025602,1.0025602 0 0 0 -1.125,-1 z" display="inline" fill="#000000" fill-opacity="1" stroke="none" opacity="0.15"/>
 <path d="M 23,52 2,68.5 23,85 23,76 25.53125,76 37,85 37,76 49,76 49,61 37,61 37,52 25.53125,61 23,61 23,52 z" display="inline" fill="#000000" fill-opacity="1" stroke="none" opacity="0.3" inkscape:connector-curvature="0"/>
 <path d="m 23,51 0,9 12,0 0,15 -12,0 0,9 L 2,67.5 z" display="inline" fill="url(#linearGradient4042)" fill-opacity="1" stroke="none" inkscape:connector-curvature="0"/>
 <path d="M 23,84 2,67.5 23,51 l 0,9 12,0 0,15 -12,0 0,9 z M 22,81.9375 22,75 a 0.99864514,0.99864514 0 0 1 1,-1 l 11,0 0,-13 -11,0 A 0.99864514,0.99864514 0 0 1 22,60 L 22,53.0625 3.625,67.5 22,81.9375 z" display="inline" fill="url(#linearGradient3954)" fill-opacity="1" stroke="none" opacity="0.6" inkscape:connector-curvature="0"/>
 <path d="m 37,51 0,9 12,0 0,15 -12,0 0,9 -21,-16.5 z" display="inline" fill="url(#linearGradient3998)" fill-opacity="1" stroke="none" inkscape:connector-curvature="0"/>
 <path d="M 37,84 16,67.5 37,51 l 0,9 12,0 0,15 -12,0 0,9 z M 36,81.9375 36,75 a 0.99864514,0.99864514 0 0 1 1,-1 l 11,0 0,-13 -11,0 A 0.99864514,0.99864514 0 0 1 36,60 L 36,53.0625 17.625,67.5 36,81.9375 z" display="inline" fill="url(#linearGradient4000)" fill-opacity="1" stroke="none" opacity="0.6" inkscape:connector-curvature="0"/>
 <path d="M 23.53125,60 14,67.5 l 9.53125,7.5 2,0 L 16,67.5 25.53125,60 l -2,0 z" display="inline" fill="#803300" fill-opacity="1" stroke="none" opacity="0.1" inkscape:connector-curvature="0"/>
 <path d="M 24.53125,60 15,67.5 l 9.53125,7.5 1,0 L 16,67.5 25.53125,60 l -1,0 z" display="inline" fill="#803300" fill-opacity="1" stroke="none" opacity="0.2" inkscape:connector-curvature="0"/>
</svg>
