<svg height="96" width="96" xmlns="http://www.w3.org/2000/svg" xmlns:sodipodi="http://sodipodi.sourceforge.net/DTD/sodipodi-0.dtd" xmlns:inkscape="http://www.inkscape.org/namespaces/inkscape">
 <defs>
  <linearGradient x2="0" y1="20.221" y2="138.66" gradientUnits="userSpaceOnUse" id="linearGradient90466">
   <stop stop-color="#fff"/>
   <stop stop-color="#fff" stop-opacity="0" offset="1"/>
  </linearGradient>
  <clipPath id="clipPath3613-55">
   <rect x="6" rx="6" y="6" height="84" width="84"/>
  </clipPath>
  <filter x="-0.192" y="-0.192" height="1.384" color-interpolation-filters="sRGB" id="filter3794-41" width="1.384">
   <feGaussianBlur stdDeviation="5.28"/>
  </filter>
  <linearGradient x2="0" y1="90" y2="5.988" gradientUnits="userSpaceOnUse" id="linearGradient3182" gradientTransform="matrix(-1.125 0 0 1.0417 103.72 953.2)">
   <stop stop-color="#8c8c8c"/>
   <stop stop-color="#dcdcdc" offset="1"/>
  </linearGradient>
  <linearGradient x1="4" x2="18" gradientUnits="userSpaceOnUse" id="linearGradient3152" gradientTransform="matrix(0 2.5714 -2.5714 0 75.79 973.58)">
   <stop stop-color="#a50000"/>
   <stop stop-color="#e73800" offset="1"/>
  </linearGradient>
 </defs>
 <g transform="matrix(1 0 0 1 0 -956.36)">
  <rect x="-92.36" rx="12.552" y="960.05" fill-opacity="0.039" height="88.76" width="88.76" transform="matrix(-1 0 0 1 0 0)"/>
  <rect x="-91.75" rx="12.38" y="960.66" fill-opacity="0.078" height="87.55" width="87.55" transform="matrix(-1 0 0 1 0 0)"/>
  <rect x="-91.15" rx="12.208" y="961.26" fill-opacity="0.157" height="86.33" width="86.33" transform="matrix(-1 0 0 1 0 0)"/>
  <path d="m78.502 961.86c6.668 0 12.031 5.3945 12.031 12.062v61.031c0 5.4178-3.5332 9.9818-8.4375 11.5h-68.188c-4.7148-1.4568-8.1719-5.7337-8.4375-10.875v-62.281c0.32117-6.3771 5.5404-11.438 12-11.438h61.031z" fill="url(#linearGradient3182)" opacity="0.9"/>
  <path d="m90.539 1029.9v5.0663c0 6.668-5.3645 12.032-12.032 12.032h-61.049c-6.668 0-12.032-5.3645-12.032-12.032v-5.0663c0 6.6681 5.3645 12.032 12.032 12.032h61.049c6.668 0 12.032-5.3643 12.032-12.032z" fill-opacity="0.235"/>
  <path d="m90.539 1033.9v1.0133c0 6.668-5.3645 12.032-12.032 12.032h-61.049c-6.668 0-12.032-5.3645-12.032-12.032v-1.0133c0 6.6681 5.3645 12.032 12.032 12.032h61.049c6.668 0 12.032-5.3644 12.032-12.032z" fill-opacity="0.098"/>
  <rect x="15" stroke-width="0.5" rx="12" y="15" clip-path="url(#clipPath3613-55)" fill="url(#linearGradient90466)" stroke="#fff" height="66" filter="url(#filter3794-41)" opacity="0.3" stroke-linecap="round" width="66" transform="matrix(-1 0 0 1 96.47 953.95)"/>
  <path d="m47.5 1019.9a18 18 0 1 1 0 -36 18 18 0 0 1 0 36z" fill="url(#linearGradient3152)"/>
  <path d="m29.531 1002.4c-0.0046 0.1674-0.03125 0.3314-0.03125 0.5 0 9.9411 8.0589 18 18 18s18-8.0589 18-18c0-0.1686-0.02664-0.3326-0.03125-0.5-0.26696 9.708-8.1962 17.5-17.969 17.5-9.7725 0-17.702-7.792-17.969-17.5z" fill="#fff" opacity="0.6"/>
  <path d="m47.5 983.86c-9.9411 0-18 8.0588-18 18 0 9.9411 8.0589 18 18 18s18-8.0589 18-18c0-9.9413-8.0589-18-18-18zm0 2c8.8366 0 16 7.1634 16 16 0 8.8365-7.1634 16-16 16s-16-7.1635-16-16c0-8.8367 7.1634-16 16-16z" fill="#500" opacity="0.15"/>
  <path d="m47.5 983.86c-9.9411 0-18 8.0588-18 18 0 9.9411 8.0589 18 18 18s18-8.0589 18-18c0-9.9413-8.0589-18-18-18zm0 1c9.3888 0 17 7.6111 17 17 0 9.3888-7.6112 17-17 17s-17-7.6112-17-17c0-9.389 7.6112-17 17-17z" fill="#500" opacity="0.3"/>
  <path d="m47.5 983.86c-9.9411 0-18 8.0588-18 18 0 0.1686 0.02664 0.3325 0.03125 0.5 0.26696-9.7082 8.1962-17.5 17.969-17.5 9.7725 0 17.702 7.7919 17.969 17.5 0.0046-0.1675 0.03125-0.3314 0.03125-0.5 0-9.9413-8.0589-18-18-18z" fill="#500" opacity="0.6"/>
 </g>
</svg>
