<?xml version="1.0" encoding="UTF-8" standalone="no"?>
<svg
   xmlns:dc="http://purl.org/dc/elements/1.1/"
   xmlns:cc="http://creativecommons.org/ns#"
   xmlns:rdf="http://www.w3.org/1999/02/22-rdf-syntax-ns#"
   xmlns:svg="http://www.w3.org/2000/svg"
   xmlns="http://www.w3.org/2000/svg"
   xmlns:xlink="http://www.w3.org/1999/xlink"
   xmlns:sodipodi="http://sodipodi.sourceforge.net/DTD/sodipodi-0.dtd"
   xmlns:inkscape="http://www.inkscape.org/namespaces/inkscape"
   height="96"
   width="96"
   id="svg2"
   version="1.1"
   inkscape:version="0.91 r13725"
   sodipodi:docname="media-playback-pause.svg">
  <metadata
     id="metadata56">
    <rdf:RDF>
      <cc:Work
         rdf:about="">
        <dc:format>image/svg+xml</dc:format>
        <dc:type
           rdf:resource="http://purl.org/dc/dcmitype/StillImage" />
      </cc:Work>
    </rdf:RDF>
  </metadata>
  <sodipodi:namedview
     pagecolor="#ffffff"
     bordercolor="#666666"
     borderopacity="1"
     objecttolerance="10"
     gridtolerance="10"
     guidetolerance="10"
     inkscape:pageopacity="0"
     inkscape:pageshadow="2"
     inkscape:window-width="1366"
     inkscape:window-height="719"
     id="namedview54"
     showgrid="false"
     inkscape:zoom="2.4583333"
     inkscape:cx="-55.118643"
     inkscape:cy="47.999996"
     inkscape:window-x="0"
     inkscape:window-y="24"
     inkscape:window-maximized="1"
     inkscape:current-layer="svg2" />
  <defs
     id="defs4">
    <clipPath
       id="clipPath3613-55">
      <use
         xlink:href="#SVGCleanerId_0"
         id="use7" />
    </clipPath>
    <filter
       x="-0.192"
       y="-0.192"
       height="1.384"
       color-interpolation-filters="sRGB"
       id="filter3794-41"
       width="1.384">
      <feGaussianBlur
         stdDeviation="5.28"
         id="feGaussianBlur10" />
    </filter>
    <linearGradient
       x2="0"
       y1="90"
       y2="5.988"
       gradientUnits="userSpaceOnUse"
       id="linearGradient3182"
       gradientTransform="matrix(1.125,0,0,1.0417,-7.75,-3.25)">
      <stop
         stop-color="#8c8c8c"
         id="stop13" />
      <stop
         stop-color="#dcdcdc"
         offset="1"
         id="stop15" />
    </linearGradient>
    <linearGradient
       x2="0"
       y1="20.221"
       y2="138.66"
       gradientUnits="userSpaceOnUse"
       id="linearGradient90466">
      <stop
         stop-color="#fff"
         id="stop18" />
      <stop
         stop-color="#fff"
         stop-opacity="0"
         offset="1"
         id="stop20" />
    </linearGradient>
    <linearGradient
       x2="0"
       y1="36"
       y2="68"
       gradientUnits="userSpaceOnUse"
       id="linearGradient19228"
       gradientTransform="translate(3.984,-5)">
      <stop
         stop-color="#1e1e1e"
         id="stop23" />
      <stop
         stop-color="#505050"
         offset="1"
         id="stop25" />
    </linearGradient>
    <rect
       x="6"
       rx="6"
       y="6"
       height="84"
       id="SVGCleanerId_0"
       width="84" />
    <linearGradient
       gradientTransform="matrix(0,0.85741,0.77886,0,25.22,969.81)"
       id="linearGradient16881"
       gradientUnits="userSpaceOnUse"
       x2="55.49"
       x1="24.508">
      <stop
         id="stop7"
         stop-color="#1e1e1e" />
      <stop
         id="stop9"
         offset="1"
         stop-color="#505050" />
    </linearGradient>
    <linearGradient
       id="linearGradient90466-8"
       gradientUnits="userSpaceOnUse"
       y2="138.66"
       y1="20.221"
       x2="0">
      <stop
         id="stop12"
         stop-color="#fff" />
      <stop
         id="stop14"
         offset="1"
         stop-opacity="0"
         stop-color="#fff" />
    </linearGradient>
    <clipPath
       id="clipPath3613-55-8">
      <rect
         id="rect17"
         width="84"
         height="84"
         y="6"
         rx="6"
         x="6" />
    </clipPath>
    <filter
       width="1.384"
       id="filter3794-41-4"
       color-interpolation-filters="sRGB"
       height="1.384"
       y="-0.192"
       x="-0.192">
      <feGaussianBlur
         id="feGaussianBlur20"
         stdDeviation="5.28" />
    </filter>
    <linearGradient
       gradientTransform="matrix(-1.125,0,0,1.0417,103.72,-3.16)"
       id="linearGradient3182-0"
       gradientUnits="userSpaceOnUse"
       y2="5.988"
       y1="90"
       x2="0">
      <stop
         id="stop23-2"
         stop-color="#8c8c8c" />
      <stop
         id="stop25-3"
         offset="1"
         stop-color="#dcdcdc" />
    </linearGradient>
  </defs>
  <g
     id="g4153"
     transform="matrix(0.6875,0,0,0.6875,15,15)">
    <g
       transform="matrix(1.6,0,0,1.6,-28.799999,-28.800001)"
       id="g3448">
      <g
         id="g3351"
         transform="matrix(1.5133172,0,0,1.5133172,-24.615013,-23.912833)">
        <path
           d="m 33.984,31 c -1.108,0 -2,0.892 -2,2 l 0,28 c 0,1.108 0.892,2 2,2 l 8,0 c 1.108,0 2,-0.892 2,-2 l 0,-28 c 0,-1.108 -0.892,-2 -2,-2 l -8,0 z m 20,0 c -1.108,0 -2,0.892 -2,2 l 0,28 c 0,1.108 0.892,2 2,2 l 8,0 c 1.108,0 2,-0.892 2,-2 l 0,-28 c 0,-1.108 -0.892,-2 -2,-2 l -8,0 z"
           id="path44"
           style="color:black;fill:url(#linearGradient19228)"
           inkscape:connector-curvature="0" />
        <path
           d="m 31.984,61.04 0,1 c 0,1.108 0.892,2 2,2 l 8,0 c 1.108,0 2,-0.892 2,-2 l 0,-1 c 0,1.108 -0.892,2 -2,2 l -8,0 c -1.108,0 -2,-0.892 -2,-2 z m 20,0 0,1 c 0,1.108 0.892,2 2,2 l 8,0 c 1.108,0 2,-0.892 2,-2 l 0,-1 c 0,1.108 -0.892,2 -2,2 l -8,0 c -1.108,0 -2,-0.892 -2,-2 z"
           id="path46"
           inkscape:connector-curvature="0"
           style="color:black;opacity:0.6;fill:white" />
        <path
           d="m 33.984,31 c -1.108,0 -2,0.892 -2,2 l 0,28 c 0,1.108 0.892,2 2,2 l 8,0 c 1.108,0 2,-0.892 2,-2 l 0,-28 c 0,-1.108 -0.892,-2 -2,-2 l -8,0 z m 20,0 c -1.108,0 -2,0.892 -2,2 l 0,28 c 0,1.108 0.892,2 2,2 l 8,0 c 1.108,0 2,-0.892 2,-2 l 0,-28 c 0,-1.108 -0.892,-2 -2,-2 l -8,0 z m -20,2 8,0 0,28 -8,0 0,-28 z m 20,0 8,0 0,28 -8,0 0,-28 z"
           id="path48"
           inkscape:connector-curvature="0"
           style="color:black;opacity:0.1" />
        <path
           d="m 33.984,31 c -1.108,0 -2,0.892 -2,2 l 0,28 c 0,1.108 0.892,2 2,2 l 8,0 c 1.108,0 2,-0.892 2,-2 l 0,-28 c 0,-1.108 -0.892,-2 -2,-2 l -8,0 z m 20,0 c -1.108,0 -2,0.892 -2,2 l 0,28 c 0,1.108 0.892,2 2,2 l 8,0 c 1.108,0 2,-0.892 2,-2 l 0,-28 c 0,-1.108 -0.892,-2 -2,-2 l -8,0 z m -20,0.9375 8,0 c 0.60407,0 1.0625,0.45843 1.0625,1.0625 l 0,28 c 0,0.6041 -0.45843,1.0625 -1.0625,1.0625 l -8,0 c -0.60407,0 -1.0625,-0.4584 -1.0625,-1.0625 l 0,-28 c 0,-0.60407 0.45843,-1.0625 1.0625,-1.0625 z m 20,0 8,0 c 0.60407,0 1.0625,0.45843 1.0625,1.0625 l 0,28 c 0,0.6041 -0.45843,1.0625 -1.0625,1.0625 l -8,0 c -0.60407,0 -1.0625,-0.4584 -1.0625,-1.0625 l 0,-28 c 0,-0.60407 0.45843,-1.0625 1.0625,-1.0625 z"
           id="path50"
           inkscape:connector-curvature="0"
           style="color:black;opacity:0.2" />
        <path
           d="m 33.984,31 c -1.108,0 -2,0.892 -2,2 l 0,1 c 0,-1.108 0.892,-2 2,-2 l 8,0 c 1.108,0 2,0.892 2,2 l 0,-1 c 0,-1.108 -0.892,-2 -2,-2 l -8,0 z m 20,0 c -1.108,0 -2,0.892 -2,2 l 0,1 c 0,-1.108 0.892,-2 2,-2 l 8,0 c 1.108,0 2,0.892 2,2 l 0,-1 c 0,-1.108 -0.892,-2 -2,-2 l -8,0 z"
           id="path52"
           inkscape:connector-curvature="0"
           style="color:black;opacity:0.6" />
      </g>
    </g>
  </g>
</svg>
