<?xml version="1.0" encoding="UTF-8" standalone="no"?>
<svg
   xmlns:dc="http://purl.org/dc/elements/1.1/"
   xmlns:cc="http://creativecommons.org/ns#"
   xmlns:rdf="http://www.w3.org/1999/02/22-rdf-syntax-ns#"
   xmlns:svg="http://www.w3.org/2000/svg"
   xmlns="http://www.w3.org/2000/svg"
   xmlns:sodipodi="http://sodipodi.sourceforge.net/DTD/sodipodi-0.dtd"
   xmlns:inkscape="http://www.inkscape.org/namespaces/inkscape"
   height="96"
   width="96"
   id="svg2"
   version="1.1"
   inkscape:version="0.91 r13725"
   sodipodi:docname="media-skip-backward.svg">
  <metadata
     id="metadata57">
    <rdf:RDF>
      <cc:Work
         rdf:about="">
        <dc:format>image/svg+xml</dc:format>
        <dc:type
           rdf:resource="http://purl.org/dc/dcmitype/StillImage" />
      </cc:Work>
    </rdf:RDF>
  </metadata>
  <sodipodi:namedview
     pagecolor="#ffffff"
     bordercolor="#666666"
     borderopacity="1"
     objecttolerance="10"
     gridtolerance="10"
     guidetolerance="10"
     inkscape:pageopacity="0"
     inkscape:pageshadow="2"
     inkscape:window-width="694"
     inkscape:window-height="480"
     id="namedview55"
     showgrid="false"
     inkscape:zoom="2.4583333"
     inkscape:cx="-26.033899"
     inkscape:cy="47.999998"
     inkscape:window-x="25"
     inkscape:window-y="49"
     inkscape:window-maximized="0"
     inkscape:current-layer="svg2" />
  <defs
     id="defs4">
    <linearGradient
       x1="24.508"
       x2="55.49"
       gradientUnits="userSpaceOnUse"
       id="linearGradient16881"
       gradientTransform="matrix(0,0.85741,0.77886,0,25.22,969.81)">
      <stop
         stop-color="#1e1e1e"
         id="stop7" />
      <stop
         stop-color="#505050"
         offset="1"
         id="stop9" />
    </linearGradient>
    <linearGradient
       x2="0"
       y1="20.221"
       y2="138.66"
       gradientUnits="userSpaceOnUse"
       id="linearGradient90466">
      <stop
         stop-color="#fff"
         id="stop12" />
      <stop
         stop-color="#fff"
         stop-opacity="0"
         offset="1"
         id="stop14" />
    </linearGradient>
    <clipPath
       id="clipPath3613-55">
      <rect
         x="6"
         rx="6"
         y="6"
         height="84"
         width="84"
         id="rect17" />
    </clipPath>
    <filter
       x="-0.192"
       y="-0.192"
       height="1.384"
       color-interpolation-filters="sRGB"
       id="filter3794-41"
       width="1.384">
      <feGaussianBlur
         stdDeviation="5.28"
         id="feGaussianBlur20" />
    </filter>
    <linearGradient
       x2="0"
       y1="90"
       y2="5.988"
       gradientUnits="userSpaceOnUse"
       id="linearGradient3182"
       gradientTransform="matrix(1.125,0,0,1.0417,-7.756,-3.16)">
      <stop
         stop-color="#8c8c8c"
         id="stop23" />
      <stop
         stop-color="#dcdcdc"
         offset="1"
         id="stop25" />
    </linearGradient>
  </defs>
  <g
     id="g3614"
     transform="matrix(1.5384656,0,0,1.5384656,-26.150859,-24.830962)">
    <g
       transform="translate(9.307,-956.979)"
       id="g43">
      <path
         d="m 18.891,987.8 c 1.108,0 2,0.892 2,2 l 0,12.063 19.656,-12.531 a 1.5495,1.7058 0 0 1 2.3438,1.4688 l 0,11.063 19.656,-12.531 a 1.5495,1.7058 0 0 1 2.3438,1.4688 l 0,26.594 a 1.5495,1.7058 0 0 1 -2.3438,1.4688 l -19.656,-12.5 0,11.031 a 1.5495,1.7058 0 0 1 -2.3438,1.4688 l -19.656,-12.5 0,11.438 c 0,1.108 -0.892,2 -2,2 l -4,0 c -1.108,0 -2,-0.892 -2,-2 l 0,-28 c 0,-1.108 0.892,-2 2,-2 l 4,0 z"
         id="path45"
         style="color:black;fill:url(#linearGradient16881)"
         inkscape:connector-curvature="0" />
      <path
         d="m 42.891,1006.4 19.656,12.5 a 1.5495,1.7058 0 0 0 2.3438,-1.3125 l 0,0.8437 A 1.5495,1.7058 0 0 1 62.547,1019.9 l -19.656,-12.5 0,-1 z m -22,0 19.656,12.5 a 1.5495,1.7058 0 0 0 2.3438,-1.3125 l 0,0.8437 A 1.5495,1.7058 0 0 1 40.547,1019.9 l -19.656,-12.5 0,-1 z m 0,11.438 0,1 c 0,1.108 -0.892,2 -2,2 l -4,0 c -1.108,0 -2,-0.892 -2,-2 l 0,-1 c 0,1.108 0.892,2 2,2 l 4,0 c 1.108,0 2,-0.892 2,-2 z"
         id="path47"
         inkscape:connector-curvature="0"
         style="color:black;opacity:0.6;fill:white" />
      <path
         d="m 18.891,987.8 c 1.108,0 2,0.892 2,2 l 0,12.063 19.656,-12.531 a 1.5495,1.7058 0 0 1 2.3438,1.4688 l 0,11.063 19.656,-12.531 a 1.5495,1.7058 0 0 1 2.3438,1.4688 l 0,26.594 a 1.5495,1.7058 0 0 1 -2.3438,1.4688 l -19.656,-12.5 0,11.031 a 1.5495,1.7058 0 0 1 -2.3438,1.4688 l -19.656,-12.5 0,11.438 c 0,1.108 -0.892,2 -2,2 l -4,0 c -1.108,0 -2,-0.892 -2,-2 l 0,-28 c 0,-1.108 0.892,-2 2,-2 l 4,0 z m 0.0313,1.9688 c -0.001,-0.001 -0.005,0 -0.0313,0 l -4,0 c -0.0521,0 -0.0313,-0.0208 -0.0313,0.0313 l 0,28 c 0,0.052 -0.0208,0.031 0.0313,0.031 l 4,0 c 0.0521,0 0.0313,0.021 0.0313,-0.031 l 0,-11.438 a 1.9676,1.9676 0 0 1 3.0312,-1.6562 l 18.969,12.062 0,-10.406 a 1.9676,1.9676 0 0 1 3.0312,-1.6562 l 18.969,12.062 0,-25.344 -18.969,12.094 a 1.9676,1.9676 0 0 1 -3.0312,-1.6563 l 0,-10.437 -18.969,12.094 a 1.9676,1.9676 0 0 1 -3.0312,-1.6563 l 0,-12.062 c 0,-0.026 0.001,-0.0299 0,-0.0313 z"
         id="path49"
         inkscape:connector-curvature="0"
         style="color:black;opacity:0.1" />
      <path
         d="m 18.891,987.8 c 1.108,0 2,0.892 2,2 l 0,12.063 19.656,-12.531 a 1.5495,1.7058 0 0 1 2.3438,1.4688 l 0,11.063 19.656,-12.531 a 1.5495,1.7058 0 0 1 2.3438,1.4688 l 0,26.594 a 1.5495,1.7058 0 0 1 -2.3438,1.4688 l -19.656,-12.5 0,11.031 a 1.5495,1.7058 0 0 1 -2.3438,1.4688 l -19.656,-12.5 0,11.438 c 0,1.108 -0.892,2 -2,2 l -4,0 c -1.108,0 -2,-0.892 -2,-2 l 0,-28 c 0,-1.108 0.892,-2 2,-2 l 4,0 z m 0,0.9375 -4,0 c -0.603,0 -1.0625,0.4595 -1.0625,1.0625 l 0,28 c 0,0.603 0.4595,1.0625 1.0625,1.0625 l 4,0 c 0.60299,0 1.0625,-0.4595 1.0625,-1.0625 l 0,-11.438 a 0.94103,0.94103 0 0 1 1.4375,-0.7813 l 19.656,12.5 a 0.94103,0.94103 0 0 1 0.0313,0 c 0.0473,0.031 -0.0181,-0.028 0.0313,0 0.0494,0.028 -0.02,0.01 0.0313,0.031 0.0512,0.024 -0.0216,0.011 0.0313,0.031 0.0529,0.021 -0.023,-0.017 0.0313,0 0.0542,0.017 -0.0241,-0.013 0.0313,0 0.0553,0.013 -0.0249,-0.01 0.0313,0 0.0561,0.01 -0.0254,0.027 0.0313,0.031 0.0566,0 -0.0256,-6e-4 0.0313,0 0.0569,7e-4 -0.0255,0 0.0313,0 0.0567,0 -0.0251,-0.024 0.0313,-0.031 0.0563,-0.01 0.007,0.012 0.0625,0 0.0556,-0.012 -0.0234,0.016 0.0313,0 0.0546,-0.016 -0.0221,0.019 0.0313,0 0.0533,-0.019 -0.0205,-0.01 0.0313,-0.031 0.0518,-0.023 -0.0187,0.027 0.0313,0 0.05,-0.027 -0.0167,0 0.0313,-0.031 0.048,-0.03 -0.0145,0 0.0313,-0.031 0.0229,-0.017 0.0346,-0.01 0.0313,0 0.0434,-0.036 -0.01,0.01 0.0313,-0.031 0.0408,-0.039 -0.007,0.01 0.0313,-0.031 0.0381,-0.042 -0.004,-0.019 0.0313,-0.063 0.0353,-0.044 -0.001,0.015 0.0313,-0.031 0.0324,-0.046 0.002,0.017 0.0313,-0.031 0.0293,-0.048 0.005,-0.013 0.0313,-0.063 0.0263,-0.05 -0.0231,0.02 0,-0.031 0.0231,-0.051 0.0114,-0.01 0.0313,-0.063 0.0199,-0.053 0.0146,0.023 0.0313,-0.031 0.0166,-0.054 -0.0133,-0.01 0,-0.063 0.0133,-0.055 -0.01,-0.01 0,-0.063 0.01,-0.055 0.0246,0.025 0.0313,-0.031 0.007,-0.056 -0.003,-0.01 0,-0.063 0.003,-0.056 1.2e-4,-0.01 0,-0.063 l 0,-11.031 a 0.94103,0.94103 0 0 1 1.4375,-0.7813 l 19.656,12.5 a 0.94103,0.94103 0 0 1 0.0313,0 c 0.0473,0.031 -0.0181,-0.028 0.0313,0 0.0494,0.028 -0.02,0.01 0.0313,0.031 0.0512,0.024 -0.0216,0.011 0.0313,0.031 0.0529,0.021 -0.023,-0.017 0.0313,0 0.0542,0.017 -0.0241,-0.013 0.0313,0 0.0553,0.013 -0.0249,-0.01 0.0313,0 0.0561,0.01 -0.0254,0.027 0.0313,0.031 0.0566,0 -0.0256,-6e-4 0.0313,0 0.0569,7e-4 -0.0255,0 0.0313,0 0.0567,0 -0.0251,-0.024 0.0313,-0.031 0.0563,-0.01 0.007,0.012 0.0625,0 0.0556,-0.012 -0.0234,0.016 0.0313,0 0.0546,-0.016 -0.0221,0.019 0.0313,0 0.0533,-0.019 -0.0205,-0.01 0.0313,-0.031 0.0518,-0.023 -0.0187,0.027 0.0313,0 0.05,-0.027 -0.0167,-10e-4 0.0313,-0.031 0.048,-0.03 -0.0145,0 0.0313,-0.031 0.0229,-0.017 0.0346,-0.01 0.0313,0 0.0434,-0.036 -0.01,0.01 0.0313,-0.031 0.0408,-0.039 -0.007,0.01 0.0313,-0.031 0.0381,-0.042 -0.004,-0.019 0.0313,-0.063 0.0353,-0.044 -10e-4,0.015 0.0313,-0.031 0.0324,-0.046 0.002,0.017 0.0313,-0.031 0.0293,-0.048 0.005,-0.013 0.0313,-0.063 0.0263,-0.05 -0.0231,0.02 0,-0.031 0.0231,-0.051 0.0114,-0.01 0.0313,-0.063 0.0199,-0.053 0.0146,0.023 0.0313,-0.031 0.0166,-0.054 -0.0133,-0.01 0,-0.063 0.0133,-0.055 -0.01,-0.01 0,-0.063 0.01,-0.055 0.0246,0.025 0.0313,-0.031 0.007,-0.056 -0.003,-0.01 0,-0.063 0.003,-0.056 1.2e-4,-0.01 0,-0.063 l 0,-26.594 c 1.2e-4,-0.0563 0.003,-0.006 0,-0.0625 -0.003,-0.0562 0.007,-0.007 0,-0.0625 -0.007,-0.0559 -0.0213,0.0242 -0.0313,-0.0313 -0.01,-0.0554 0.0133,-0.008 0,-0.0625 -0.0133,-0.0547 0.0166,-0.009 0,-0.0625 -0.0166,-0.0538 -0.0114,0.0215 -0.0313,-0.0313 -0.0199,-0.0527 -0.008,-0.0111 -0.0313,-0.0625 -0.0231,-0.0514 0.0263,0.0186 0,-0.0313 -0.0263,-0.0498 -0.002,-0.0144 -0.0313,-0.0625 -0.0294,-0.0481 10e-4,0.0149 -0.0313,-0.0313 -0.0324,-0.0462 0.004,0.0127 -0.0313,-0.0313 -0.0353,-0.044 0.007,-0.0209 -0.0313,-0.0625 -0.0381,-0.0416 0.01,0.008 -0.0313,-0.0313 -0.0408,-0.039 0.0121,0.005 -0.0313,-0.0313 0.003,0.009 -0.008,0.0166 -0.0313,0 -0.0458,-0.0332 0.0167,-0.001 -0.0313,-0.0313 -0.048,-0.0301 0.0187,-0.005 -0.0313,-0.0313 -0.05,-0.0267 0.0205,0.0231 -0.0313,0 -0.0518,-0.0231 0.0221,-0.0118 -0.0313,-0.0313 -0.0533,-0.0194 0.0234,0.0156 -0.0313,0 -0.0546,-0.0156 0.0244,0.0116 -0.0313,0 -0.0556,-0.0116 -0.006,0.008 -0.0625,0 -0.0563,-0.008 0.0255,-0.0278 -0.0313,-0.0313 -0.0568,-0.003 0.0256,-6.5e-4 -0.0313,0 -0.0569,6.5e-4 0.0254,-0.005 -0.0313,0 -0.0567,0.005 0.0249,0.0224 -0.0313,0.0313 -0.0561,0.009 0.0241,-0.0129 -0.0313,0 -0.0553,0.0129 0.023,-0.0168 -0.0313,0 -0.0542,0.0168 0.0216,-0.0206 -0.0313,0 -0.0529,0.0206 0.02,0.007 -0.0313,0.0313 -0.0512,0.0243 0.0181,0.004 -0.0313,0.0313 -0.0494,0.0278 0.016,-0.0311 -0.0313,0 a 0.94103,0.94103 0 0 1 -0.0313,0 l -19.658,12.532 a 0.94103,0.94103 0 0 1 -1.4375,-0.7812 l 0,-11.063 c 1.2e-4,-0.0563 0.003,-0.006 0,-0.0625 -0.003,-0.0562 0.007,-0.007 0,-0.0625 -0.007,-0.0559 -0.0213,0.0242 -0.0313,-0.0313 -0.01,-0.0554 0.0133,-0.008 0,-0.0625 -0.0133,-0.0547 0.0166,-0.009 0,-0.0625 -0.0166,-0.0538 -0.0114,0.0215 -0.0313,-0.0313 -0.0199,-0.0527 -0.008,-0.0111 -0.0313,-0.0625 -0.0231,-0.0514 0.0263,0.0186 0,-0.0313 -0.0263,-0.0498 -0.002,-0.0144 -0.0313,-0.0625 -0.0294,-0.0481 0.001,0.0149 -0.0313,-0.0313 -0.0324,-0.0462 0.004,0.0127 -0.0313,-0.0313 -0.0353,-0.044 0.007,-0.0209 -0.0313,-0.0625 -0.0381,-0.0416 0.01,0.008 -0.0313,-0.0313 -0.0408,-0.039 0.0121,0.005 -0.0313,-0.0313 0.003,0.009 -0.008,0.0166 -0.0313,0 -0.0458,-0.0332 0.0167,-10e-4 -0.0313,-0.0313 -0.048,-0.0301 0.0187,-0.005 -0.0313,-0.0313 -0.05,-0.0267 0.0205,0.0231 -0.0313,0 -0.0518,-0.0231 0.0221,-0.0118 -0.0313,-0.0313 -0.0533,-0.0194 0.0234,0.0156 -0.0313,0 -0.0546,-0.0156 0.0244,0.0116 -0.0313,0 -0.0556,-0.0116 -0.006,0.008 -0.0625,0 -0.0563,-0.008 0.0255,-0.0278 -0.0313,-0.0313 -0.0568,-0.003 0.0256,-6.5e-4 -0.0313,0 -0.0569,6.5e-4 0.0254,-0.005 -0.0313,0 -0.0567,0.005 0.0249,0.0224 -0.0313,0.0313 -0.0561,0.009 0.0241,-0.0129 -0.0313,0 -0.0553,0.0129 0.023,-0.0168 -0.0313,0 -0.0542,0.0168 0.0216,-0.0206 -0.0313,0 -0.0529,0.0206 0.02,0.007 -0.0313,0.0313 -0.0512,0.0243 0.0181,0.004 -0.0313,0.0313 -0.0494,0.0278 0.016,-0.0311 -0.0313,0 a 0.94103,0.94103 0 0 1 -0.0313,0 l -19.655,12.532 a 0.94103,0.94103 0 0 1 -1.4375,-0.7812 l 0,-12.063 c 0,-0.603 -0.45951,-1.0625 -1.0625,-1.0625 z"
         id="path51"
         inkscape:connector-curvature="0"
         style="color:black;opacity:0.2" />
      <path
         d="m 18.891,987.8 c 1.108,0 2,0.892 2,2 l 0,1 c 0,-1.108 -0.892,-2 -2,-2 l -4,0 c -1.108,0 -2,0.892 -2,2 l 0,-1 c 0,-1.108 0.892,-2 2,-2 l 4,0 z m 44.531,1.2812 a 1.5495,1.7058 0 0 1 1.4688,1.7188 l 0,0.8125 a 1.5495,1.7058 0 0 0 -2.3438,-1.2812 l -19.656,12.531 0,-1 19.656,-12.531 a 1.5495,1.7058 0 0 1 0.875,-0.25 z m -22,0 a 1.5495,1.7058 0 0 1 1.4688,1.7188 l 0,0.8125 a 1.5495,1.7058 0 0 0 -2.3438,-1.2812 l -19.656,12.531 0,-1 19.656,-12.531 a 1.5495,1.7058 0 0 1 0.875,-0.25 z"
         id="path53"
         inkscape:connector-curvature="0"
         style="color:black;opacity:0.6" />
    </g>
  </g>
</svg>
