<svg display="inline" height="96" width="96" xmlns="http://www.w3.org/2000/svg" xmlns:xlink="http://www.w3.org/1999/xlink" xmlns:sodipodi="http://sodipodi.sourceforge.net/DTD/sodipodi-0.dtd" xmlns:inkscape="http://www.inkscape.org/namespaces/inkscape">
 <defs>
  <linearGradient id="linearGradient4081">
   <stop stop-color="#aaaaaa" stop-opacity="1"/>
   <stop stop-color="#f0f0f0" stop-opacity="1" offset="1"/>
  </linearGradient>
  <linearGradient x2="0" xlink:href="#linearGradient4081" y1="72" y2="24" gradientUnits="userSpaceOnUse" id="linearGradient3796" gradientTransform="matrix(1 0 0 1 0 -80)"/>
  <linearGradient x2="0" xlink:href="#linearGradient4081" y1="72" y2="24" gradientUnits="userSpaceOnUse" id="linearGradient3856" gradientTransform="matrix(1 0 0 1 4 0)"/>
  <linearGradient x2="0" y1="92.54" y2="7.02" gradientUnits="userSpaceOnUse" id="ButtonShadow-0" gradientTransform="matrix(1.0059 0 0 0.99417 100 0)">
   <stop stop-color="#000000" stop-opacity="1"/>
   <stop stop-color="#000000" stop-opacity="0.588" offset="1"/>
  </linearGradient>
  <linearGradient x2="0" xlink:href="#ButtonShadow-0" y1="6.132" y2="90.24" gradientUnits="userSpaceOnUse" id="linearGradient3780" gradientTransform="matrix(1.02381 0 0 -1.0119 -1.143 98.07)"/>
  <linearGradient x2="0" xlink:href="#ButtonShadow-0" y1="6.132" y2="90.24" gradientUnits="userSpaceOnUse" id="linearGradient3721-4" gradientTransform="matrix(1 0 0 -1 0 97)"/>
  <radialGradient cy="90.17" r="42" gradientUnits="userSpaceOnUse" id="radialGradient3619-5" cx="48" gradientTransform="matrix(1.15731 0 0 0.99591 -7.551 0.197)">
   <stop stop-color="#ffffff" stop-opacity="1"/>
   <stop stop-color="#ffffff" stop-opacity="0" offset="1"/>
  </radialGradient>
 </defs>
 <path d="M 12,3.96875 C 6.4889098,3.96875 1.96875,8.4889098 1.96875,14 l 0,71 c 0,5.51109 4.5201597,10.03125 10.03125,10.03125 l 72,0 c 5.51109,0 10.03125,-4.52016 10.03125,-10.03125 l 0,-71 C 94.03125,8.4889097 89.51109,3.96875 84,3.96875 l -72,0 z M 12,6 84,6 c 3.324,0 6,2.676 6,6 l 0,72 c 0,3.324 -2.676,6 -6,6 L 12,90 C 8.676,90 6,87.324 6,84 L 6,12 C 6,8.676 8.676,6 12,6 z" fill="url(#linearGradient3780)" fill-opacity="1" fill-rule="nonzero" stroke="none" opacity="0.08" inkscape:connector-curvature="0"/>
 <path d="M 12,4.96875 C 7.0283671,4.96875 2.96875,9.0283671 2.96875,14 l 0,71 c 0,4.971633 4.059617,9.03125 9.03125,9.03125 l 72,0 c 4.971633,0 9.03125,-4.059617 9.03125,-9.03125 l 0,-71 C 93.03125,9.028367 88.971633,4.96875 84,4.96875 l -72,0 z M 12,6 84,6 c 3.324,0 6,2.676 6,6 l 0,72 c 0,3.324 -2.676,6 -6,6 L 12,90 C 8.676,90 6,87.324 6,84 L 6,12 C 6,8.676 8.676,6 12,6 z" fill="url(#linearGradient3780)" fill-opacity="1" fill-rule="nonzero" stroke="none" opacity="0.1" inkscape:connector-curvature="0"/>
 <path d="M 11.1875,6.03125 C 7.159982,6.4419011 4,9.8664375 4,14 l 0,71 c 0,4.409133 3.590867,8 8,8 l 72,0 c 4.409133,0 8,-3.590867 8,-8 L 92,14 C 92,9.8029382 88.741028,6.3539584 84.625,6.03125 87.657886,6.337417 90,8.88375 90,12 l 0,72 c 0,3.324 -2.676,6 -6,6 L 12,90 C 8.676,90 6,87.324 6,84 L 6,12 c 0,-3.11625 2.342114,-5.662583 5.375,-5.96875 -0.06227,0.00488 -0.12563,-0.00631 -0.1875,0 z" fill="url(#linearGradient3780)" fill-opacity="1" fill-rule="nonzero" stroke="none" opacity="0.2" inkscape:connector-curvature="0"/>
 <path d="M 6.4375,9.75 C 5.5380109,10.927446 5,12.397277 5,14 l 0,71 c 0,3.878 3.122,7 7,7 l 72,0 c 3.878,0 7,-3.122 7,-7 L 91,14 C 91,12.397277 90.461989,10.927446 89.5625,9.75 89.841816,10.444095 90,11.203625 90,12 l 0,72 c 0,3.324 -2.676,6 -6,6 L 12,90 C 8.676,90 6,87.324 6,84 L 6,12 C 6,11.203625 6.1581836,10.444095 6.4375,9.75 z" fill="url(#linearGradient3780)" fill-opacity="1" fill-rule="nonzero" stroke="none" opacity="0.3" inkscape:connector-curvature="0"/>
 <path d="m 6,84 0,1 c 0,3.324 2.676,6 6,6 l 72,0 c 3.324,0 6,-2.676 6,-6 l 0,-1 c 0,3.324 -2.676,6 -6,6 L 12,90 C 8.676,90 6,87.324 6,84 z" fill="url(#linearGradient3721-4)" fill-opacity="1" fill-rule="nonzero" stroke="none" opacity="0.45" inkscape:connector-curvature="0"/>
 <rect x="6" rx="6" y="6" fill="#000000" fill-opacity="1" fill-rule="nonzero" stroke="none" height="84" opacity="0.6" width="84"/>
 <path d="M 12,90 C 8.676,90 6,87.324 6,84 L 6,82 6,14 6,12 c 0,-0.334721 0.04135,-0.6507 0.09375,-0.96875 0.0487,-0.295596 0.09704,-0.596915 0.1875,-0.875 C 6.29113,10.12587 6.302142,10.09265 6.3125,10.0625 6.411365,9.774729 6.5473802,9.515048 6.6875,9.25 6.8320918,8.976493 7.0031161,8.714385 7.1875,8.46875 7.3718839,8.223115 7.5612765,7.995278 7.78125,7.78125 8.221197,7.353194 8.72416,6.966724 9.28125,6.6875 9.559795,6.547888 9.8547231,6.440553 10.15625,6.34375 9.9000482,6.443972 9.6695391,6.580022 9.4375,6.71875 c -0.00741,0.0044 -0.023866,-0.0045 -0.03125,0 -0.031933,0.0193 -0.062293,0.04251 -0.09375,0.0625 -0.120395,0.0767 -0.2310226,0.163513 -0.34375,0.25 -0.1061728,0.0808 -0.2132809,0.161112 -0.3125,0.25 C 8.4783201,7.442683 8.3087904,7.626638 8.15625,7.8125 8.0486711,7.942755 7.9378561,8.077785 7.84375,8.21875 7.818661,8.25713 7.805304,8.30462 7.78125,8.34375 7.716487,8.446782 7.6510225,8.548267 7.59375,8.65625 7.4927417,8.850956 7.3880752,9.071951 7.3125,9.28125 7.30454,9.30306 7.288911,9.3218 7.28125,9.34375 7.2494249,9.4357 7.2454455,9.530581 7.21875,9.625 7.1884177,9.731618 7.1483606,9.828031 7.125,9.9375 7.0521214,10.279012 7,10.635705 7,11 l 0,2 0,68 0,2 c 0,2.781848 2.2181517,5 5,5 l 2,0 68,0 2,0 c 2.781848,0 5,-2.218152 5,-5 l 0,-2 0,-68 0,-2 C 89,10.635705 88.94788,10.279012 88.875,9.9375 88.83085,9.730607 88.78662,9.539842 88.71875,9.34375 88.71105,9.3218 88.69545,9.30306 88.6875,9.28125 88.62476,9.107511 88.549117,8.913801 88.46875,8.75 88.42717,8.6672 88.38971,8.580046 88.34375,8.5 88.28915,8.40279 88.216976,8.31165 88.15625,8.21875 88.06214,8.077785 87.951329,7.942755 87.84375,7.8125 87.700576,7.63805 87.540609,7.465502 87.375,7.3125 87.36383,7.3023 87.35502,7.29135 87.34375,7.28125 87.205364,7.155694 87.058659,7.046814 86.90625,6.9375 86.803679,6.86435 86.701932,6.784136 86.59375,6.71875 c -0.0074,-0.0045 -0.02384,0.0044 -0.03125,0 -0.232039,-0.138728 -0.462548,-0.274778 -0.71875,-0.375 0.301527,0.0968 0.596455,0.204138 0.875,0.34375 0.55709,0.279224 1.060053,0.665694 1.5,1.09375 0.219973,0.214028 0.409366,0.441865 0.59375,0.6875 0.184384,0.245635 0.355408,0.507743 0.5,0.78125 0.14012,0.265048 0.276135,0.524729 0.375,0.8125 0.01041,0.03078 0.02133,0.06274 0.03125,0.09375 0.09046,0.278085 0.1388,0.579404 0.1875,0.875 C 89.95865,11.3493 90,11.665279 90,12 l 0,2 0,68 0,2 c 0,3.324 -2.676,6 -6,6 l -72,0 z" fill="url(#radialGradient3619-5)" fill-opacity="1" fill-rule="nonzero" stroke="none" opacity="0.15" inkscape:connector-curvature="0"/>
 <path d="m 52,22.96875 c -9.508347,-0.117142 -18.673698,5.622116 -22.96875,14.0625 -1.035624,-0.952612 -2.10981,-2.690095 -3.75,-2.0625 -1.859878,0.734267 -1.1948,2.984446 -1.3125,4.529749 0.290449,1.266579 -0.183315,1.768945 -1.45814,1.470251 -1.806431,0.12378 -3.712173,-0.272673 -5.44811,0.25 -1.688061,0.938575 -0.918508,3.129504 -1.09375,4.69753 0.06139,3.223456 -0.123571,6.466308 0.09375,9.67747 0.634562,1.955392 2.964719,1.343315 4.529749,1.4375 1.1255,0 2.251001,0 3.376501,0 0.128778,1.647002 -0.28144,3.38685 0.25,4.96875 0.719494,1.366696 2.769858,1.314658 3.565962,0.06612 1.413993,-2.378473 1.959366,0.666129 3.003614,1.84657 5.685779,8.378202 16.548104,12.762616 26.4482,10.588311 C 68.455918,72.365263 77.421386,62.076272 77.978284,50.668124 78.838399,39.678598 71.842612,28.684173 61.53111,24.778618 58.506084,23.579683 55.253265,22.966324 52,22.96875 z m 0,22.0625 c 3.260378,-0.200117 5.226235,4.117868 3.076226,6.510917 -1.913425,2.54365 -6.504326,1.4596 -6.966091,-1.730107 C 47.55398,47.412858 49.518857,44.944773 52,45.03125 z" fill="#000000" fill-opacity="1" stroke="none" opacity="0.1" inkscape:connector-curvature="0"/>
 <path d="m 52,24.03125 c -9.841669,0 -18.346265,5.716324 -22.40625,14 a 0.96008596,0.96008596 0 0 0 0.1875,1.125 L 39.625,49 29.78125,58.84375 a 0.96008596,0.96008596 0 0 0 -0.1875,1.125 c 4.059985,8.283676 12.564581,14 22.40625,14 C 65.773651,73.96875 76.96875,62.773651 76.96875,49 76.96875,35.226349 65.773651,24.03125 52,24.03125 z m -26.09375,11.875 a 0.96008596,0.96008596 0 0 0 -0.875,0.96875 l 0,5.15625 -7.03125,0 A 0.96008596,0.96008596 0 0 0 17.03125,43 l 0,12 A 0.96008596,0.96008596 0 0 0 18,55.96875 l 7.03125,0 0,5.03125 a 0.96008596,0.96008596 0 0 0 1.65625,0.6875 l 12,-12.09375 a 0.96008596,0.96008596 0 0 0 0,-1.375 l -12,-12.03125 A 0.96008596,0.96008596 0 0 0 25.90625,35.90625 z M 52,39.96875 c 5.004031,0 9.03125,4.027219 9.03125,9.03125 0,5.004031 -4.027219,9.03125 -9.03125,9.03125 -5.004031,0 -9.03125,-4.027219 -9.03125,-9.03125 0,-5.004031 4.027219,-9.03125 9.03125,-9.03125 z m 0,0.0625 c -4.937095,0 -8.96875,4.031655 -8.96875,8.96875 0,4.937095 4.031655,8.96875 8.96875,8.96875 4.937095,0 8.96875,-4.031655 8.96875,-8.96875 0,-4.937095 -4.031655,-8.96875 -8.96875,-8.96875 z m 0,3.9375 c 2.794891,0 5.03125,2.236359 5.03125,5.03125 0,2.794891 -2.236359,5.03125 -5.03125,5.03125 -2.794891,0 -5.03125,-2.236359 -5.03125,-5.03125 0,-2.794891 2.236359,-5.03125 5.03125,-5.03125 z" fill="#000000" fill-opacity="1" stroke="none" opacity="0.15"/>
 <path d="M 52,25 C 42.530217,25 34.373069,30.502683 30.46875,38.46875 L 41,49 30.46875,59.53125 C 34.373069,67.497317 42.530217,73 52,73 65.254834,73 76,62.254834 76,49 76,35.745166 65.254834,25 52,25 z M 26,36.875 26,43 l -8,0 0,12 8,0 0,6 L 38,48.90625 26,36.875 z M 52,39 c 5.522848,0 10,4.477152 10,10 0,5.522848 -4.477152,10 -10,10 -5.522848,0 -10,-4.477152 -10,-10 0,-5.522848 4.477152,-10 10,-10 z m 0,2 c -4.418278,0 -8,3.581722 -8,8 0,4.418278 3.581722,8 8,8 4.418278,0 8,-3.581722 8,-8 0,-4.418278 -3.581722,-8 -8,-8 z m 0,2 c 3.313708,0 6,2.686292 6,6 0,3.313708 -2.686292,6 -6,6 -3.313708,0 -6,-2.686292 -6,-6 0,-3.313708 2.686292,-6 6,-6 z" fill="#000000" fill-opacity="1" stroke="none" opacity="0.3" inkscape:connector-curvature="0"/>
 <path d="M 52,24 C 42.530217,24 34.373069,29.502683 30.46875,37.46875 L 41,48 30.46875,58.53125 C 34.373069,66.497317 42.530217,72 52,72 65.254834,72 76,61.254834 76,48 76,34.745166 65.254834,24 52,24 z M 26,35.875 26,42 l -8,0 0,12 8,0 0,6 L 38,47.90625 26,35.875 z M 52,38 c 5.522848,0 10,4.477152 10,10 0,5.522848 -4.477152,10 -10,10 -5.522848,0 -10,-4.477152 -10,-10 0,-5.522848 4.477152,-10 10,-10 z m 0,2 c -4.418278,0 -8,3.581722 -8,8 0,4.418278 3.581722,8 8,8 4.418278,0 8,-3.581722 8,-8 0,-4.418278 -3.581722,-8 -8,-8 z m 0,2 c 3.313708,0 6,2.686292 6,6 0,3.313708 -2.686292,6 -6,6 -3.313708,0 -6,-2.686292 -6,-6 0,-3.313708 2.686292,-6 6,-6 z" fill="url(#linearGradient3856)" fill-opacity="1" stroke="none" inkscape:connector-curvature="0"/>
 <path d="m 48,-56 c -13.254834,0 -24,10.745166 -24,24 0,13.254834 10.745166,24 24,24 13.254834,0 24,-10.745166 24,-24 0,-13.254834 -10.745166,-24 -24,-24 z m 0,14 c 5.522848,0 10,4.477152 10,10 0,5.522848 -4.477152,10 -10,10 -5.522848,0 -10,-4.477152 -10,-10 0,-5.522848 4.477152,-10 10,-10 z m 0,2 c -4.418278,0 -8,3.581722 -8,8 0,4.418278 3.581722,8 8,8 4.418278,0 8,-3.581722 8,-8 0,-4.418278 -3.581722,-8 -8,-8 z m 0,2 c 3.313708,0 6,2.686292 6,6 0,3.313708 -2.686292,6 -6,6 -3.313708,0 -6,-2.686292 -6,-6 0,-3.313708 2.686292,-6 6,-6 z" fill="url(#linearGradient3796)" fill-opacity="1" stroke="none" inkscape:connector-curvature="0"/>
 <path d="M 52,24 C 42.530217,24 34.373069,29.502683 30.46875,37.46875 L 30.8125,37.8125 C 34.836079,30.203735 42.793777,25 52,25 65.089252,25 75.736161,35.473936 76,48.5 76.003338,48.335217 76,48.165582 76,48 76,34.745166 65.254834,24 52,24 z m -26,11.875 0,1 11.5,11.53125 0.5,-0.5 L 26,35.875 z M 52,40 c -4.418278,0 -8,3.581722 -8,8 0,0.170091 0.02079,0.332546 0.03125,0.5 C 44.292493,44.317655 47.751813,41 52,41 c 4.248187,0 7.707507,3.317655 7.96875,7.5 C 59.97921,48.332546 60,48.170091 60,48 60,43.581722 56.418278,40 52,40 z m -34,2 0,1 8,0 0,-1 -8,0 z m 22.5,6.5 -10.03125,10.03125 c 0.108664,0.221709 0.228561,0.438423 0.34375,0.65625 L 41,49 40.5,48.5 z m 1.53125,0 C 42.023121,48.665362 42,48.832622 42,49 c 0,5.522848 4.477152,10 10,10 5.522848,0 10,-4.477152 10,-10 0,-0.167378 -0.02312,-0.334638 -0.03125,-0.5 C 61.708657,53.790952 57.35547,58 52,58 46.64453,58 42.291343,53.790952 42.03125,48.5 z m 4,0.125 C 46.023779,48.747591 46,48.875529 46,49 c 0,3.313708 2.686292,6 6,6 3.313708,0 6,-2.686292 6,-6 0,-0.124471 -0.02378,-0.252409 -0.03125,-0.375 C 57.66149,51.650536 55.106601,54 52,54 48.893399,54 46.33851,51.650536 46.03125,48.625 z" fill="#ffffff" fill-opacity="1" stroke="none" opacity="0.75" inkscape:connector-curvature="0"/>
 <path d="m 30.8125,36.8125 c -0.115189,0.217827 -0.235086,0.434541 -0.34375,0.65625 L 40.5,47.5 41,47 30.8125,36.8125 z M 52,37 c -5.522848,0 -10,4.477152 -10,10 0,0.167378 0.02312,0.334638 0.03125,0.5 C 42.291343,42.209048 46.64453,38 52,38 c 5.35547,0 9.708657,4.209048 9.96875,9.5 C 61.976879,47.334638 62,47.167378 62,47 62,41.477152 57.522848,37 52,37 z m 0,4 c -3.313708,0 -6,2.686292 -6,6 0,0.124471 0.02378,0.252409 0.03125,0.375 C 46.33851,44.349464 48.893399,42 52,42 c 3.106601,0 5.66149,2.349464 5.96875,5.375 C 57.976221,47.252409 58,47.124471 58,47 58,43.686292 55.313708,41 52,41 z M 37.5,47.40625 26,59 l 0,1 12,-12.09375 -0.5,-0.5 z M 44.03125,47.5 C 44.02079,47.667454 44,47.829909 44,48 c 0,4.418278 3.581722,8 8,8 4.418278,0 8,-3.581722 8,-8 0,-0.170091 -0.02079,-0.332546 -0.03125,-0.5 C 59.707507,51.682345 56.248187,55 52,55 47.751813,55 44.292493,51.682345 44.03125,47.5 z M 76,47.5 C 75.736161,60.526064 65.089252,71 52,71 42.793777,71 34.836079,65.796265 30.8125,58.1875 l -0.34375,0.34375 C 34.373069,66.497317 42.530217,72 52,72 65.254834,72 76,61.254834 76,48 c 0,-0.165582 0.0033,-0.335217 0,-0.5 z m -58,5.5 0,1 8,0 0,-1 -8,0 z" fill="#000000" fill-opacity="1" stroke="none" opacity="0.15" inkscape:connector-curvature="0"/>
</svg>
