<?xml version="1.0" encoding="UTF-8" standalone="no"?>
<svg
   xmlns:dc="http://purl.org/dc/elements/1.1/"
   xmlns:cc="http://creativecommons.org/ns#"
   xmlns:rdf="http://www.w3.org/1999/02/22-rdf-syntax-ns#"
   xmlns:svg="http://www.w3.org/2000/svg"
   xmlns="http://www.w3.org/2000/svg"
   xmlns:xlink="http://www.w3.org/1999/xlink"
   xmlns:sodipodi="http://sodipodi.sourceforge.net/DTD/sodipodi-0.dtd"
   xmlns:inkscape="http://www.inkscape.org/namespaces/inkscape"
   display="inline"
   height="96"
   width="96"
   id="svg2"
   version="1.1"
   inkscape:version="0.91 r13725"
   sodipodi:docname="media-optical-copy.svg">
  <metadata
     id="metadata69">
    <rdf:RDF>
      <cc:Work
         rdf:about="">
        <dc:format>image/svg+xml</dc:format>
        <dc:type
           rdf:resource="http://purl.org/dc/dcmitype/StillImage" />
      </cc:Work>
    </rdf:RDF>
  </metadata>
  <sodipodi:namedview
     pagecolor="#ffffff"
     bordercolor="#666666"
     borderopacity="1"
     objecttolerance="10"
     gridtolerance="10"
     guidetolerance="10"
     inkscape:pageopacity="0"
     inkscape:pageshadow="2"
     inkscape:window-width="760"
     inkscape:window-height="480"
     id="namedview67"
     showgrid="false"
     inkscape:zoom="2.4583333"
     inkscape:cx="81.762711"
     inkscape:cy="47.999999"
     inkscape:window-x="604"
     inkscape:window-y="99"
     inkscape:window-maximized="0"
     inkscape:current-layer="svg2" />
  <defs
     id="defs4">
    <linearGradient
       id="linearGradient4081">
      <stop
         stop-color="#4d4d4d"
         stop-opacity="1"
         id="stop7" />
      <stop
         stop-color="#1a1a1a"
         stop-opacity="1"
         offset="1"
         id="stop9" />
    </linearGradient>
    <linearGradient
       x2="0"
       xlink:href="#linearGradient4081"
       y1="72"
       y2="24"
       gradientUnits="userSpaceOnUse"
       id="linearGradient3856"
       gradientTransform="matrix(1 0 0 1 104 0)" />
    <linearGradient
       x1="27"
       x2="69"
       xlink:href="#linearGradient4081"
       gradientUnits="userSpaceOnUse"
       id="linearGradient3940"
       gradientTransform="matrix(0,-1,1,0,4,100)" />
    <linearGradient
       x2="0"
       y1="92.54"
       y2="7.02"
       gradientUnits="userSpaceOnUse"
       id="ButtonShadow-0"
       gradientTransform="matrix(1.0059 0 0 0.99417 100 0)">
      <stop
         stop-color="#000000"
         stop-opacity="1"
         id="stop14" />
      <stop
         stop-color="#000000"
         stop-opacity="0.588"
         offset="1"
         id="stop16" />
    </linearGradient>
    <linearGradient
       x2="0"
       xlink:href="#ButtonShadow-0"
       y1="6.132"
       y2="90.24"
       gradientUnits="userSpaceOnUse"
       id="linearGradient3780"
       gradientTransform="matrix(1.02381 0 0 -1.0119 -1.143 98.07)" />
    <linearGradient
       x2="0"
       xlink:href="#ButtonShadow-0"
       y1="6.132"
       y2="90.24"
       gradientUnits="userSpaceOnUse"
       id="linearGradient3721-8"
       gradientTransform="matrix(1 0 0 -1 0 97)" />
    <radialGradient
       cy="90.17"
       r="42"
       gradientUnits="userSpaceOnUse"
       id="radialGradient3619-1"
       cx="48"
       gradientTransform="matrix(1.15731 0 0 0.99591 -7.551 0.197)">
      <stop
         stop-color="#ffffff"
         stop-opacity="1"
         id="stop21" />
      <stop
         stop-color="#ffffff"
         stop-opacity="0"
         offset="1"
         id="stop23" />
    </radialGradient>
  </defs>
  <g
     id="g3431"
     transform="matrix(1.509434,0,0,1.509434,-25.962266,-26.716983)">
    <path
       id="path39"
       visibility="visible"
       d="M 52,30 C 39.319633,30 29,40.319633 29,53 29,65.680367 39.319633,76 52,76 64.680367,76 75,65.680367 75,53 75,40.319633 64.680367,30 52,30 Z m 0,20 c 1.688536,0 3,1.311464 3,3 0,1.688536 -1.311464,3 -3,3 -1.688536,0 -3,-1.311464 -3,-3 0,-1.688536 1.311464,-3 3,-3 z"
       inkscape:connector-curvature="0"
       style="color:black;visibility:visible;opacity:0.1;fill:black;fill-opacity:1;fill-rule:nonzero;stroke:none;stroke-width:1" />
    <path
       id="path41"
       visibility="visible"
       d="M 52,31 C 39.86445,31 30,40.86445 30,53 30,65.13555 39.86445,75 52,75 64.13555,75 74,65.13555 74,53 74,40.86445 64.13555,31 52,31 Z m 0,18 c 2.223852,0 4,1.776148 4,4 0,2.223852 -1.776148,4 -4,4 -2.223852,0 -4,-1.776148 -4,-4 0,-2.223852 1.776148,-4 4,-4 z"
       inkscape:connector-curvature="0"
       style="color:black;visibility:visible;opacity:0.15;fill:black;fill-opacity:1;fill-rule:nonzero;stroke:none;stroke-width:1" />
    <path
       id="path43"
       inkscape:connector-curvature="0"
       visibility="visible"
       d="M 31,53 C 31,64.59798 40.40202,74 52,74 63.59798,74 73,64.59798 73,53 73,41.40202 63.59798,32 52,32 40.40202,32 31,41.40202 31,53 Z m 12,0 c 0,-4.970563 4.029437,-9 9,-9 4.970563,0 9,4.029437 9,9 0,4.970563 -4.029437,9 -9,9 -4.970563,0 -9,-4.029437 -9,-9 z m 2,0 c 0,3.865993 3.134007,7 7,7 3.865993,0 7,-3.134007 7,-7 0,-3.865993 -3.134007,-7 -7,-7 -3.865993,0 -7,3.134007 -7,7 z m 2,0 c 0,-2.761423 2.238577,-5 5,-5 2.761423,0 5,2.238577 5,5 0,2.761423 -2.238577,5 -5,5 -2.761423,0 -5,-2.238577 -5,-5 z"
       style="color:black;visibility:visible;opacity:0.3;fill:black;fill-opacity:1;fill-rule:nonzero;stroke:none;stroke-width:1" />
    <path
       id="path59"
       inkscape:connector-curvature="0"
       visibility="visible"
       d="M 31,52 C 31,63.59798 40.40202,73 52,73 63.59798,73 73,63.59798 73,52 73,40.40202 63.59798,31 52,31 40.40202,31 31,40.40202 31,52 Z m 12,0 c 0,-4.970563 4.029437,-9 9,-9 4.970563,0 9,4.029437 9,9 0,4.970563 -4.029437,9 -9,9 -4.970563,0 -9,-4.029437 -9,-9 z m 2,0 c 0,3.865993 3.134007,7 7,7 3.865993,0 7,-3.134007 7,-7 0,-3.865993 -3.134007,-7 -7,-7 -3.865993,0 -7,3.134007 -7,7 z m 2,0 c 0,-2.761423 2.238577,-5 5,-5 2.761423,0 5,2.238577 5,5 0,2.761423 -2.238577,5 -5,5 -2.761423,0 -5,-2.238577 -5,-5 z"
       style="color:black;visibility:visible;fill:url(#linearGradient3940);fill-opacity:1;fill-rule:nonzero;stroke:none;stroke-width:1" />
    <path
       id="path61"
       inkscape:connector-curvature="0"
       visibility="visible"
       d="m 44,23 c -11.59798,0 -21,9.40202 -21,21 0,6.429493 2.917588,12.179144 7.46875,16.03125 C 29.534711,57.528361 29,54.828539 29,52 29,39.297451 39.297451,29 52,29 c 2.828539,0 5.528361,0.534711 8.03125,1.46875 C 56.179144,25.917588 50.429493,23 44,23 Z"
       style="color:black;visibility:visible;opacity:0.2;fill:white;fill-opacity:1;fill-rule:nonzero;stroke:none;stroke-width:1" />
    <path
       id="path63"
       inkscape:connector-curvature="0"
       visibility="visible"
       d="m 52,31 c -11.59798,0 -21,9.40202 -21,21 0,0.16555 -0.0038,0.335366 0,0.5 C 31.263131,41.130813 40.56757,32 52,32 63.43243,32 72.736869,41.130813 73,52.5 73.00381,52.335366 73,52.16555 73,52 73,40.40202 63.59798,31 52,31 Z m 0,14 c -3.865993,0 -7,3.134007 -7,7 0,0.168225 0.01958,0.334745 0.03125,0.5 C 45.287779,48.867514 48.302232,46 52,46 c 3.697768,0 6.712221,2.867514 6.96875,6.5 C 58.98042,52.334745 59,52.168225 59,52 59,48.134007 55.865993,45 52,45 Z m -8.96875,7.5 C 43.021776,52.669195 43,52.828436 43,53 c 0,4.970563 4.029437,9 9,9 4.970563,0 9,-4.029437 9,-9 0,-0.171564 -0.02178,-0.330805 -0.03125,-0.5 C 60.703743,57.232721 56.798999,61 52,61 47.201001,61 43.296257,57.232721 43.03125,52.5 Z m 4,0 C 47.01418,52.668085 47,52.827411 47,53 c 0,2.761423 2.238577,5 5,5 2.761423,0 5,-2.238577 5,-5 0,-0.172589 -0.01418,-0.331915 -0.03125,-0.5 C 56.7127,55.02128 54.588834,57 52,57 49.411166,57 47.2873,55.02128 47.03125,52.5 Z"
       style="color:black;visibility:visible;opacity:0.75;fill:white;fill-opacity:1;fill-rule:nonzero;stroke:none;stroke-width:1" />
    <path
       id="path65"
       inkscape:connector-curvature="0"
       visibility="visible"
       d="m 52,42 c -4.970563,0 -9,4.029437 -9,9 0,0.171564 0.02178,0.330805 0.03125,0.5 C 43.296257,46.767279 47.201001,43 52,43 c 4.798999,0 8.703743,3.767279 8.96875,8.5 C 60.978224,51.330805 61,51.171564 61,51 61,46.029437 56.970563,42 52,42 Z m 0,4 c -2.761423,0 -5,2.238577 -5,5 0,0.172589 0.01418,0.331915 0.03125,0.5 C 47.2873,48.97872 49.411166,47 52,47 c 2.588834,0 4.7127,1.97872 4.96875,4.5 C 56.98582,51.331915 57,51.172589 57,51 57,48.238577 54.761423,46 52,46 Z m -21,5.5 c -0.0038,0.164634 0,0.33445 0,0.5 0,11.59798 9.40202,21 21,21 11.59798,0 21,-9.40202 21,-21 0,-0.16555 0.0038,-0.335366 0,-0.5 C 72.736869,62.869187 63.43243,72 52,72 40.56757,72 31.263131,62.869187 31,51.5 Z m 14.03125,0 C 45.01958,51.665255 45,51.831775 45,52 c 0,3.865993 3.134007,7 7,7 3.865993,0 7,-3.134007 7,-7 0,-0.168225 -0.01958,-0.334745 -0.03125,-0.5 C 58.712221,55.132486 55.697768,58 52,58 48.302232,58 45.287779,55.132486 45.03125,51.5 Z"
       style="color:black;visibility:visible;opacity:0.15;fill:black;fill-opacity:1;fill-rule:nonzero;stroke:none;stroke-width:1" />
  </g>
</svg>
