<?xml version="1.0" encoding="UTF-8" standalone="no"?>
<svg
   xmlns:dc="http://purl.org/dc/elements/1.1/"
   xmlns:cc="http://creativecommons.org/ns#"
   xmlns:rdf="http://www.w3.org/1999/02/22-rdf-syntax-ns#"
   xmlns:svg="http://www.w3.org/2000/svg"
   xmlns="http://www.w3.org/2000/svg"
   xmlns:sodipodi="http://sodipodi.sourceforge.net/DTD/sodipodi-0.dtd"
   xmlns:inkscape="http://www.inkscape.org/namespaces/inkscape"
   height="96"
   width="96"
   id="svg2"
   version="1.1"
   inkscape:version="0.91 r13725"
   sodipodi:docname="media-record.svg">
  <metadata
     id="metadata55">
    <rdf:RDF>
      <cc:Work
         rdf:about="">
        <dc:format>image/svg+xml</dc:format>
        <dc:type
           rdf:resource="http://purl.org/dc/dcmitype/StillImage" />
      </cc:Work>
    </rdf:RDF>
  </metadata>
  <sodipodi:namedview
     pagecolor="#ffffff"
     bordercolor="#666666"
     borderopacity="1"
     objecttolerance="10"
     gridtolerance="10"
     guidetolerance="10"
     inkscape:pageopacity="0"
     inkscape:pageshadow="2"
     inkscape:window-width="640"
     inkscape:window-height="480"
     id="namedview53"
     showgrid="false"
     inkscape:zoom="2.4583333"
     inkscape:cx="-12.813561"
     inkscape:cy="47.999997"
     inkscape:window-x="75"
     inkscape:window-y="99"
     inkscape:window-maximized="0"
     inkscape:current-layer="svg2" />
  <defs
     id="defs4">
    <linearGradient
       x2="0"
       y1="20.221"
       y2="138.66"
       gradientUnits="userSpaceOnUse"
       id="linearGradient90466">
      <stop
         stop-color="#fff"
         id="stop7" />
      <stop
         stop-color="#fff"
         stop-opacity="0"
         offset="1"
         id="stop9" />
    </linearGradient>
    <clipPath
       id="clipPath3613-55">
      <rect
         x="6"
         rx="6"
         y="6"
         height="84"
         width="84"
         id="rect12" />
    </clipPath>
    <filter
       x="-0.192"
       y="-0.192"
       height="1.384"
       color-interpolation-filters="sRGB"
       id="filter3794-41"
       width="1.384">
      <feGaussianBlur
         stdDeviation="5.28"
         id="feGaussianBlur15" />
    </filter>
    <linearGradient
       x2="0"
       y1="90"
       y2="5.988"
       gradientUnits="userSpaceOnUse"
       id="linearGradient3182"
       gradientTransform="matrix(-1.125,0,0,1.0417,103.72,-3.16)">
      <stop
         stop-color="#8c8c8c"
         id="stop18" />
      <stop
         stop-color="#dcdcdc"
         offset="1"
         id="stop20" />
    </linearGradient>
    <linearGradient
       x1="4"
       x2="18"
       gradientUnits="userSpaceOnUse"
       id="linearGradient3152"
       gradientTransform="matrix(0,2.5714,-2.5714,0,75.79,17.22)">
      <stop
         stop-color="#a50000"
         id="stop23" />
      <stop
         stop-color="#e73800"
         offset="1"
         id="stop25" />
    </linearGradient>
  </defs>
  <g
     id="g3605">
    <g
       transform="matrix(0.75,0,0,0.75,12,12)"
       id="g3351">
      <g
         id="g3353"
         transform="matrix(2.1598272,0,0,2.1598272,-54.592062,-51.395248)">
        <path
           d="m 47.5,63.54 a 18,18 0 1 1 0,-36 18,18 0 0 1 0,36 z"
           id="path43"
           style="fill:url(#linearGradient3152)"
           inkscape:connector-curvature="0" />
        <path
           d="m 29.531,46.04 c -0.0046,0.1674 -0.03125,0.3314 -0.03125,0.5 0,9.9411 8.0589,18 18,18 9.9411,0 18,-8.0589 18,-18 0,-0.1686 -0.02664,-0.3326 -0.03125,-0.5 -0.26696,9.708 -8.1962,17.5 -17.969,17.5 -9.7725,0 -17.702,-7.792 -17.969,-17.5 z"
           id="path45"
           inkscape:connector-curvature="0"
           style="opacity:0.6;fill:white" />
        <path
           d="m 47.5,27.5 c -9.9411,0 -18,8.0588 -18,18 0,9.9411 8.0589,18 18,18 9.9411,0 18,-8.0589 18,-18 0,-9.9413 -8.0589,-18 -18,-18 z m 0,2 c 8.8366,0 16,7.1634 16,16 0,8.8365 -7.1634,16 -16,16 -8.8366,0 -16,-7.1635 -16,-16 0,-8.8367 7.1634,-16 16,-16 z"
           id="path47"
           inkscape:connector-curvature="0"
           style="opacity:0.15;fill:#500" />
        <path
           d="m 47.5,27.5 c -9.9411,0 -18,8.0588 -18,18 0,9.9411 8.0589,18 18,18 9.9411,0 18,-8.0589 18,-18 0,-9.9413 -8.0589,-18 -18,-18 z m 0,1 c 9.3888,0 17,7.6111 17,17 0,9.3888 -7.6112,17 -17,17 -9.3888,0 -17,-7.6112 -17,-17 0,-9.389 7.6112,-17 17,-17 z"
           id="path49"
           inkscape:connector-curvature="0"
           style="opacity:0.3;fill:#500" />
        <path
           d="m 47.5,27.5 c -9.9411,0 -18,8.0588 -18,18 0,0.1686 0.02664,0.3325 0.03125,0.5 0.26696,-9.7082 8.1962,-17.5 17.969,-17.5 9.7725,0 17.702,7.7919 17.969,17.5 0.0046,-0.1675 0.03125,-0.3314 0.03125,-0.5 0,-9.9413 -8.0589,-18 -18,-18 z"
           id="path51"
           inkscape:connector-curvature="0"
           style="opacity:0.6;fill:#500" />
      </g>
    </g>
  </g>
</svg>
