<svg height="96" width="96" xmlns="http://www.w3.org/2000/svg" xmlns:sodipodi="http://sodipodi.sourceforge.net/DTD/sodipodi-0.dtd" xmlns:inkscape="http://www.inkscape.org/namespaces/inkscape">
 <defs>
  <linearGradient x1="24.508" x2="55.49" gradientUnits="userSpaceOnUse" id="linearGradient16881" gradientTransform="matrix(0 0.85741 0.77886 0 25.22 969.81)">
   <stop stop-color="#1e1e1e"/>
   <stop stop-color="#505050" offset="1"/>
  </linearGradient>
  <linearGradient x2="0" y1="20.221" y2="138.66" gradientUnits="userSpaceOnUse" id="linearGradient90466">
   <stop stop-color="#fff"/>
   <stop stop-color="#fff" stop-opacity="0" offset="1"/>
  </linearGradient>
  <clipPath id="clipPath3613-55">
   <rect x="6" rx="6" y="6" height="84" width="84"/>
  </clipPath>
  <filter x="-0.192" y="-0.192" height="1.384" color-interpolation-filters="sRGB" id="filter3794-41" width="1.384">
   <feGaussianBlur stdDeviation="5.28"/>
  </filter>
  <linearGradient x2="0" y1="90" y2="5.988" gradientUnits="userSpaceOnUse" id="linearGradient3182" gradientTransform="matrix(1.125 0 0 1.0417 -7.756 953.2)">
   <stop stop-color="#8c8c8c"/>
   <stop stop-color="#dcdcdc" offset="1"/>
  </linearGradient>
 </defs>
 <g transform="matrix(1 0 0 1 0 -956.36)">
  <rect x="3.601" rx="12.552" y="960.05" fill-opacity="0.039" height="88.76" width="88.76"/>
  <rect x="4.209" rx="12.38" y="960.66" fill-opacity="0.078" height="87.55" width="87.55"/>
  <rect x="4.817" rx="12.208" y="961.26" fill-opacity="0.157" height="86.33" width="86.33"/>
  <path d="m17.462 961.86c-6.668 0-12.031 5.3945-12.031 12.062v61.031c0 5.4178 3.5332 9.9818 8.4375 11.5h68.188c4.7148-1.4568 8.1719-5.7337 8.4375-10.875v-62.281c-0.32117-6.3771-5.5404-11.438-12-11.438h-61.031z" fill="url(#linearGradient3182)" opacity="0.9"/>
  <path d="m5.4253 1029.9v5.0663c0 6.668 5.3645 12.032 12.032 12.032h61.049c6.668 0 12.032-5.3645 12.032-12.032v-5.0663c0 6.6681-5.3645 12.032-12.032 12.032h-61.049c-6.668 0-12.032-5.3643-12.032-12.032z" fill-opacity="0.235"/>
  <path d="m5.4253 1033.9v1.0133c0 6.668 5.3645 12.032 12.032 12.032h61.049c6.668 0 12.032-5.3645 12.032-12.032v-1.0133c0 6.6681-5.3645 12.032-12.032 12.032h-61.049c-6.668 0-12.032-5.3644-12.032-12.032z" fill-opacity="0.098"/>
  <rect x="15" stroke-width="0.5" rx="12" y="15" clip-path="url(#clipPath3613-55)" fill="url(#linearGradient90466)" stroke="#fff" height="66" filter="url(#filter3794-41)" opacity="0.3" stroke-linecap="round" width="66" transform="matrix(1 0 0 1 -0.506 953.95)"/>
  <g transform="matrix(1 0 0 1 9.307 -0.619)">
   <path d="m18.891 987.8c1.108 0 2 0.892 2 2v12.063l19.656-12.531a1.5495 1.7058 0 0 1 2.3438 1.4688v11.063l19.656-12.531a1.5495 1.7058 0 0 1 2.3438 1.4688v26.594a1.5495 1.7058 0 0 1 -2.3438 1.4688l-19.656-12.5v11.031a1.5495 1.7058 0 0 1 -2.3438 1.4688l-19.656-12.5v11.438c0 1.108-0.892 2-2 2h-4c-1.108 0-2-0.892-2-2v-28c0-1.108 0.892-2 2-2h4z" fill="url(#linearGradient16881)" color="#000000"/>
   <path d="m42.891 1006.4 19.656 12.5a1.5495 1.7058 0 0 0 2.3438 -1.3125v0.8437a1.5495 1.7058 0 0 1 -2.3438 1.4688l-19.656-12.5v-1zm-22 0 19.656 12.5a1.5495 1.7058 0 0 0 2.3438 -1.3125v0.8437a1.5495 1.7058 0 0 1 -2.3438 1.4688l-19.656-12.5v-1zm0 11.438v1c0 1.108-0.892 2-2 2h-4c-1.108 0-2-0.892-2-2v-1c0 1.108 0.892 2 2 2h4c1.108 0 2-0.892 2-2z" fill="#fff" color="#000000" opacity="0.6"/>
   <path d="m18.891 987.8c1.108 0 2 0.892 2 2v12.063l19.656-12.531a1.5495 1.7058 0 0 1 2.3438 1.4688v11.063l19.656-12.531a1.5495 1.7058 0 0 1 2.3438 1.4688v26.594a1.5495 1.7058 0 0 1 -2.3438 1.4688l-19.656-12.5v11.031a1.5495 1.7058 0 0 1 -2.3438 1.4688l-19.656-12.5v11.438c0 1.108-0.892 2-2 2h-4c-1.108 0-2-0.892-2-2v-28c0-1.108 0.892-2 2-2h4zm0.0313 1.9688c-0.001-0.001-0.005 0-0.0313 0h-4c-0.0521 0-0.0313-0.0208-0.0313 0.0313v28c0 0.052-0.0208 0.031 0.0313 0.031h4c0.0521 0 0.0313 0.021 0.0313-0.031v-11.438a1.9676 1.9676 0 0 1 3.0312 -1.6562l18.969 12.062v-10.406a1.9676 1.9676 0 0 1 3.0312 -1.6562l18.969 12.062v-25.344l-18.969 12.094a1.9676 1.9676 0 0 1 -3.0312 -1.6563v-10.437l-18.969 12.094a1.9676 1.9676 0 0 1 -3.0312 -1.6563v-12.062c0-0.026 0.001-0.0299 0-0.0313z" color="#000000" opacity="0.1"/>
   <path d="m18.891 987.8c1.108 0 2 0.892 2 2v12.063l19.656-12.531a1.5495 1.7058 0 0 1 2.3438 1.4688v11.063l19.656-12.531a1.5495 1.7058 0 0 1 2.3438 1.4688v26.594a1.5495 1.7058 0 0 1 -2.3438 1.4688l-19.656-12.5v11.031a1.5495 1.7058 0 0 1 -2.3438 1.4688l-19.656-12.5v11.438c0 1.108-0.892 2-2 2h-4c-1.108 0-2-0.892-2-2v-28c0-1.108 0.892-2 2-2h4zm0 0.9375h-4c-0.603 0-1.0625 0.4595-1.0625 1.0625v28c0 0.603 0.4595 1.0625 1.0625 1.0625h4c0.60299 0 1.0625-0.4595 1.0625-1.0625v-11.438a0.94103 0.94103 0 0 1 1.4375 -0.7813l19.656 12.5a0.94103 0.94103 0 0 1 0.0313 0c0.0473 0.031-0.0181-0.028 0.0313 0s-0.02 0.01 0.0313 0.031c0.0512 0.024-0.0216 0.011 0.0313 0.031 0.0529 0.021-0.023-0.017 0.0313 0 0.0542 0.017-0.0241-0.013 0.0313 0 0.0553 0.013-0.0249-0.01 0.0313 0 0.0561 0.01-0.0254 0.027 0.0313 0.031 0.0566 0-0.0256-0.0006 0.0313 0 0.0569 0.0007-0.0255 0 0.0313 0 0.0567 0-0.0251-0.024 0.0313-0.031 0.0563-0.01 0.007 0.012 0.0625 0 0.0556-0.012-0.0234 0.016 0.0313 0 0.0546-0.016-0.0221 0.019 0.0313 0 0.0533-0.019-0.0205-0.01 0.0313-0.031 0.0518-0.023-0.0187 0.027 0.0313 0s-0.0167-0.001 0.0313-0.031-0.0145 0 0.0313-0.031c0.0229-0.017 0.0346-0.01 0.0313 0 0.0434-0.036-0.01 0.01 0.0313-0.031 0.0408-0.039-0.007 0.01 0.0313-0.031 0.0381-0.042-0.004-0.019 0.0313-0.063s-0.001 0.015 0.0313-0.031c0.0324-0.046 0.002 0.017 0.0313-0.031s0.005-0.013 0.0313-0.063-0.0231 0.02 0-0.031 0.0114-0.01 0.0313-0.063 0.0146 0.023 0.0313-0.031c0.0166-0.054-0.0133-0.01 0-0.063 0.0133-0.055-0.01-0.01 0-0.063 0.01-0.055 0.0246 0.025 0.0313-0.031 0.007-0.056-0.003-0.01 0-0.063 0.003-0.056 0.00012-0.01 0-0.063v-11.031a0.94103 0.94103 0 0 1 1.4375 -0.7813l19.656 12.5a0.94103 0.94103 0 0 1 0.0313 0c0.0473 0.031-0.0181-0.028 0.0313 0s-0.02 0.01 0.0313 0.031c0.0512 0.024-0.0216 0.011 0.0313 0.031 0.0529 0.021-0.023-0.017 0.0313 0 0.0542 0.017-0.0241-0.013 0.0313 0 0.0553 0.013-0.0249-0.01 0.0313 0 0.0561 0.01-0.0254 0.027 0.0313 0.031 0.0566 0-0.0256-0.0006 0.0313 0 0.0569 0.0007-0.0255 0 0.0313 0 0.0567 0-0.0251-0.024 0.0313-0.031 0.0563-0.01 0.007 0.012 0.0625 0 0.0556-0.012-0.0234 0.016 0.0313 0 0.0546-0.016-0.0221 0.019 0.0313 0 0.0533-0.019-0.0205-0.01 0.0313-0.031 0.0518-0.023-0.0187 0.027 0.0313 0s-0.0167-0.001 0.0313-0.031-0.0145 0 0.0313-0.031c0.0229-0.017 0.0346-0.01 0.0313 0 0.0434-0.036-0.01 0.01 0.0313-0.031 0.0408-0.039-0.007 0.01 0.0313-0.031 0.0381-0.042-0.004-0.019 0.0313-0.063s-0.001 0.015 0.0313-0.031c0.0324-0.046 0.002 0.017 0.0313-0.031s0.005-0.013 0.0313-0.063-0.0231 0.02 0-0.031 0.0114-0.01 0.0313-0.063 0.0146 0.023 0.0313-0.031c0.0166-0.054-0.0133-0.01 0-0.063 0.0133-0.055-0.01-0.01 0-0.063 0.01-0.055 0.0246 0.025 0.0313-0.031 0.007-0.056-0.003-0.01 0-0.063 0.003-0.056 0.00012-0.01 0-0.063v-26.594c0.00012-0.0563 0.003-0.006 0-0.0625-0.003-0.0562 0.007-0.007 0-0.0625-0.007-0.0559-0.0213 0.0242-0.0313-0.0313-0.01-0.0554 0.0133-0.008 0-0.0625-0.0133-0.0547 0.0166-0.009 0-0.0625-0.0166-0.0538-0.0114 0.0215-0.0313-0.0313-0.0199-0.0527-0.008-0.0111-0.0313-0.0625-0.0231-0.0514 0.0263 0.0186 0-0.0313-0.0263-0.0498-0.002-0.0144-0.0313-0.0625-0.0294-0.0481 0.001 0.0149-0.0313-0.0313-0.0324-0.0462 0.004 0.0127-0.0313-0.0313s0.007-0.0209-0.0313-0.0625c-0.0381-0.0416 0.01 0.008-0.0313-0.0313-0.0408-0.039 0.0121 0.005-0.0313-0.0313 0.003 0.009-0.008 0.0166-0.0313 0-0.0458-0.0332 0.0167-0.001-0.0313-0.0313-0.048-0.0301 0.0187-0.005-0.0313-0.0313-0.05-0.0267 0.0205 0.0231-0.0313 0s0.0221-0.0118-0.0313-0.0313c-0.0533-0.0194 0.0234 0.0156-0.0313 0-0.0546-0.0156 0.0244 0.0116-0.0313 0-0.0556-0.0116-0.006 0.008-0.0625 0-0.0563-0.008 0.0255-0.0278-0.0313-0.0313-0.0568-0.003 0.0256-0.00065-0.0313 0s0.0254-0.005-0.0313 0 0.0249 0.0224-0.0313 0.0313c-0.0561 0.009 0.0241-0.0129-0.0313 0-0.0553 0.0129 0.023-0.0168-0.0313 0-0.0542 0.0168 0.0216-0.0206-0.0313 0s0.02 0.007-0.0313 0.0313c-0.0512 0.0243 0.0181 0.004-0.0313 0.0313-0.0494 0.0278 0.016-0.0311-0.0313 0a0.94103 0.94103 0 0 1 -0.0313 0l-19.658 12.532a0.94103 0.94103 0 0 1 -1.4375 -0.7812v-11.063c0.00012-0.0563 0.003-0.006 0-0.0625-0.003-0.0562 0.007-0.007 0-0.0625-0.007-0.0559-0.0213 0.0242-0.0313-0.0313-0.01-0.0554 0.0133-0.008 0-0.0625-0.0133-0.0547 0.0166-0.009 0-0.0625-0.0166-0.0538-0.0114 0.0215-0.0313-0.0313-0.0199-0.0527-0.008-0.0111-0.0313-0.0625-0.0231-0.0514 0.0263 0.0186 0-0.0313-0.0263-0.0498-0.002-0.0144-0.0313-0.0625-0.0294-0.0481 0.001 0.0149-0.0313-0.0313-0.0324-0.0462 0.004 0.0127-0.0313-0.0313s0.007-0.0209-0.0313-0.0625c-0.0381-0.0416 0.01 0.008-0.0313-0.0313-0.0408-0.039 0.0121 0.005-0.0313-0.0313 0.003 0.009-0.008 0.0166-0.0313 0-0.0458-0.0332 0.0167-0.001-0.0313-0.0313-0.048-0.0301 0.0187-0.005-0.0313-0.0313-0.05-0.0267 0.0205 0.0231-0.0313 0s0.0221-0.0118-0.0313-0.0313c-0.0533-0.0194 0.0234 0.0156-0.0313 0-0.0546-0.0156 0.0244 0.0116-0.0313 0-0.0556-0.0116-0.006 0.008-0.0625 0-0.0563-0.008 0.0255-0.0278-0.0313-0.0313-0.0568-0.003 0.0256-0.00065-0.0313 0s0.0254-0.005-0.0313 0 0.0249 0.0224-0.0313 0.0313c-0.0561 0.009 0.0241-0.0129-0.0313 0-0.0553 0.0129 0.023-0.0168-0.0313 0-0.0542 0.0168 0.0216-0.0206-0.0313 0s0.02 0.007-0.0313 0.0313c-0.0512 0.0243 0.0181 0.004-0.0313 0.0313-0.0494 0.0278 0.016-0.0311-0.0313 0a0.94103 0.94103 0 0 1 -0.0313 0l-19.655 12.532a0.94103 0.94103 0 0 1 -1.4375 -0.7812v-12.063c0-0.603-0.45951-1.0625-1.0625-1.0625z" color="#000000" opacity="0.2"/>
   <path d="m18.891 987.8c1.108 0 2 0.892 2 2v1c0-1.108-0.892-2-2-2h-4c-1.108 0-2 0.892-2 2v-1c0-1.108 0.892-2 2-2h4zm44.531 1.2812a1.5495 1.7058 0 0 1 1.4688 1.7188v0.8125a1.5495 1.7058 0 0 0 -2.3438 -1.2812l-19.656 12.531v-1l19.656-12.531a1.5495 1.7058 0 0 1 0.875 -0.25zm-22 0a1.5495 1.7058 0 0 1 1.4688 1.7188v0.8125a1.5495 1.7058 0 0 0 -2.3438 -1.2812l-19.656 12.531v-1l19.656-12.531a1.5495 1.7058 0 0 1 0.875 -0.25z" color="#000000" opacity="0.6"/>
  </g>
 </g>
</svg>
