<svg display="inline" height="96" width="96" xmlns="http://www.w3.org/2000/svg" xmlns:xlink="http://www.w3.org/1999/xlink" xmlns:sodipodi="http://sodipodi.sourceforge.net/DTD/sodipodi-0.dtd" xmlns:inkscape="http://www.inkscape.org/namespaces/inkscape">
 <defs>
  <linearGradient id="linearGradient4081">
   <stop stop-color="#aaaaaa" stop-opacity="1"/>
   <stop stop-color="#f0f0f0" stop-opacity="1" offset="1"/>
  </linearGradient>
  <linearGradient x2="0" xlink:href="#linearGradient4081" y1="72" y2="24" gradientUnits="userSpaceOnUse" id="linearGradient3856" gradientTransform="matrix(1 0 0 1 104 0)"/>
  <linearGradient x1="27" x2="69" xlink:href="#linearGradient4081" gradientUnits="userSpaceOnUse" id="linearGradient3940" gradientTransform="matrix(0 -1 1 0 4 100)"/>
  <linearGradient x2="0" y1="92.54" y2="7.02" gradientUnits="userSpaceOnUse" id="ButtonShadow-0" gradientTransform="matrix(1.0059 0 0 0.99417 100 0)">
   <stop stop-color="#000000" stop-opacity="1"/>
   <stop stop-color="#000000" stop-opacity="0.588" offset="1"/>
  </linearGradient>
  <linearGradient x2="0" xlink:href="#ButtonShadow-0" y1="6.132" y2="90.24" gradientUnits="userSpaceOnUse" id="linearGradient3780" gradientTransform="matrix(1.02381 0 0 -1.0119 -1.143 98.07)"/>
  <linearGradient x2="0" xlink:href="#ButtonShadow-0" y1="6.132" y2="90.24" gradientUnits="userSpaceOnUse" id="linearGradient3721-8" gradientTransform="matrix(1 0 0 -1 0 97)"/>
  <radialGradient cy="90.17" r="42" gradientUnits="userSpaceOnUse" id="radialGradient3619-1" cx="48" gradientTransform="matrix(1.15731 0 0 0.99591 -7.551 0.197)">
   <stop stop-color="#ffffff" stop-opacity="1"/>
   <stop stop-color="#ffffff" stop-opacity="0" offset="1"/>
  </radialGradient>
 </defs>
 <path d="M 12,3.96875 C 6.4889098,3.96875 1.96875,8.4889098 1.96875,14 l 0,71 c 0,5.51109 4.5201597,10.03125 10.03125,10.03125 l 72,0 c 5.51109,0 10.03125,-4.52016 10.03125,-10.03125 l 0,-71 C 94.03125,8.4889097 89.51109,3.96875 84,3.96875 l -72,0 z M 12,6 84,6 c 3.324,0 6,2.676 6,6 l 0,72 c 0,3.324 -2.676,6 -6,6 L 12,90 C 8.676,90 6,87.324 6,84 L 6,12 C 6,8.676 8.676,6 12,6 z" fill="url(#linearGradient3780)" fill-opacity="1" fill-rule="nonzero" stroke="none" opacity="0.08" inkscape:connector-curvature="0"/>
 <path d="M 12,4.96875 C 7.0283671,4.96875 2.96875,9.0283671 2.96875,14 l 0,71 c 0,4.971633 4.059617,9.03125 9.03125,9.03125 l 72,0 c 4.971633,0 9.03125,-4.059617 9.03125,-9.03125 l 0,-71 C 93.03125,9.028367 88.971633,4.96875 84,4.96875 l -72,0 z M 12,6 84,6 c 3.324,0 6,2.676 6,6 l 0,72 c 0,3.324 -2.676,6 -6,6 L 12,90 C 8.676,90 6,87.324 6,84 L 6,12 C 6,8.676 8.676,6 12,6 z" fill="url(#linearGradient3780)" fill-opacity="1" fill-rule="nonzero" stroke="none" opacity="0.1" inkscape:connector-curvature="0"/>
 <path d="M 11.1875,6.03125 C 7.159982,6.4419011 4,9.8664375 4,14 l 0,71 c 0,4.409133 3.590867,8 8,8 l 72,0 c 4.409133,0 8,-3.590867 8,-8 L 92,14 C 92,9.8029382 88.741028,6.3539584 84.625,6.03125 87.657886,6.337417 90,8.88375 90,12 l 0,72 c 0,3.324 -2.676,6 -6,6 L 12,90 C 8.676,90 6,87.324 6,84 L 6,12 c 0,-3.11625 2.342114,-5.662583 5.375,-5.96875 -0.06227,0.00488 -0.12563,-0.00631 -0.1875,0 z" fill="url(#linearGradient3780)" fill-opacity="1" fill-rule="nonzero" stroke="none" opacity="0.2" inkscape:connector-curvature="0"/>
 <path d="M 6.4375,9.75 C 5.5380109,10.927446 5,12.397277 5,14 l 0,71 c 0,3.878 3.122,7 7,7 l 72,0 c 3.878,0 7,-3.122 7,-7 L 91,14 C 91,12.397277 90.461989,10.927446 89.5625,9.75 89.841816,10.444095 90,11.203625 90,12 l 0,72 c 0,3.324 -2.676,6 -6,6 L 12,90 C 8.676,90 6,87.324 6,84 L 6,12 C 6,11.203625 6.1581836,10.444095 6.4375,9.75 z" fill="url(#linearGradient3780)" fill-opacity="1" fill-rule="nonzero" stroke="none" opacity="0.3" inkscape:connector-curvature="0"/>
 <path d="m 6,84 0,1 c 0,3.324 2.676,6 6,6 l 72,0 c 3.324,0 6,-2.676 6,-6 l 0,-1 c 0,3.324 -2.676,6 -6,6 L 12,90 C 8.676,90 6,87.324 6,84 z" fill="url(#linearGradient3721-8)" fill-opacity="1" fill-rule="nonzero" stroke="none" opacity="0.45" inkscape:connector-curvature="0"/>
 <rect x="6" rx="6" y="6" fill="#000000" fill-opacity="1" fill-rule="nonzero" stroke="none" height="84" opacity="0.6" width="84"/>
 <path d="M 12,90 C 8.676,90 6,87.324 6,84 L 6,82 6,14 6,12 c 0,-0.334721 0.04135,-0.6507 0.09375,-0.96875 0.0487,-0.295596 0.09704,-0.596915 0.1875,-0.875 C 6.29113,10.12587 6.302142,10.09265 6.3125,10.0625 6.411365,9.774729 6.5473802,9.515048 6.6875,9.25 6.8320918,8.976493 7.0031161,8.714385 7.1875,8.46875 7.3718839,8.223115 7.5612765,7.995278 7.78125,7.78125 8.221197,7.353194 8.72416,6.966724 9.28125,6.6875 9.559795,6.547888 9.8547231,6.440553 10.15625,6.34375 9.9000482,6.443972 9.6695391,6.580022 9.4375,6.71875 c -0.00741,0.0044 -0.023866,-0.0045 -0.03125,0 -0.031933,0.0193 -0.062293,0.04251 -0.09375,0.0625 -0.120395,0.0767 -0.2310226,0.163513 -0.34375,0.25 -0.1061728,0.0808 -0.2132809,0.161112 -0.3125,0.25 C 8.4783201,7.442683 8.3087904,7.626638 8.15625,7.8125 8.0486711,7.942755 7.9378561,8.077785 7.84375,8.21875 7.818661,8.25713 7.805304,8.30462 7.78125,8.34375 7.716487,8.446782 7.6510225,8.548267 7.59375,8.65625 7.4927417,8.850956 7.3880752,9.071951 7.3125,9.28125 7.30454,9.30306 7.288911,9.3218 7.28125,9.34375 7.2494249,9.4357 7.2454455,9.530581 7.21875,9.625 7.1884177,9.731618 7.1483606,9.828031 7.125,9.9375 7.0521214,10.279012 7,10.635705 7,11 l 0,2 0,68 0,2 c 0,2.781848 2.2181517,5 5,5 l 2,0 68,0 2,0 c 2.781848,0 5,-2.218152 5,-5 l 0,-2 0,-68 0,-2 C 89,10.635705 88.94788,10.279012 88.875,9.9375 88.83085,9.730607 88.78662,9.539842 88.71875,9.34375 88.71105,9.3218 88.69545,9.30306 88.6875,9.28125 88.62476,9.107511 88.549117,8.913801 88.46875,8.75 88.42717,8.6672 88.38971,8.580046 88.34375,8.5 88.28915,8.40279 88.216976,8.31165 88.15625,8.21875 88.06214,8.077785 87.951329,7.942755 87.84375,7.8125 87.700576,7.63805 87.540609,7.465502 87.375,7.3125 87.36383,7.3023 87.35502,7.29135 87.34375,7.28125 87.205364,7.155694 87.058659,7.046814 86.90625,6.9375 86.803679,6.86435 86.701932,6.784136 86.59375,6.71875 c -0.0074,-0.0045 -0.02384,0.0044 -0.03125,0 -0.232039,-0.138728 -0.462548,-0.274778 -0.71875,-0.375 0.301527,0.0968 0.596455,0.204138 0.875,0.34375 0.55709,0.279224 1.060053,0.665694 1.5,1.09375 0.219973,0.214028 0.409366,0.441865 0.59375,0.6875 0.184384,0.245635 0.355408,0.507743 0.5,0.78125 0.14012,0.265048 0.276135,0.524729 0.375,0.8125 0.01041,0.03078 0.02133,0.06274 0.03125,0.09375 0.09046,0.278085 0.1388,0.579404 0.1875,0.875 C 89.95865,11.3493 90,11.665279 90,12 l 0,2 0,68 0,2 c 0,3.324 -2.676,6 -6,6 l -72,0 z" fill="url(#radialGradient3619-1)" fill-opacity="1" fill-rule="nonzero" stroke="none" opacity="0.15" inkscape:connector-curvature="0"/>
 <path d="M 52,30 C 39.319633,30 29,40.319633 29,53 29,65.680367 39.319633,76 52,76 64.680367,76 75,65.680367 75,53 75,40.319633 64.680367,30 52,30 z m 0,20 c 1.688536,0 3,1.311464 3,3 0,1.688536 -1.311464,3 -3,3 -1.688536,0 -3,-1.311464 -3,-3 0,-1.688536 1.311464,-3 3,-3 z" stroke-width="1" fill="#000000" color="#000000" fill-opacity="1" fill-rule="nonzero" stroke="none" opacity="0.1" visibility="visible"/>
 <path d="M 52,31 C 39.86445,31 30,40.86445 30,53 30,65.13555 39.86445,75 52,75 64.13555,75 74,65.13555 74,53 74,40.86445 64.13555,31 52,31 z m 0,18 c 2.223852,0 4,1.776148 4,4 0,2.223852 -1.776148,4 -4,4 -2.223852,0 -4,-1.776148 -4,-4 0,-2.223852 1.776148,-4 4,-4 z" stroke-width="1" fill="#000000" color="#000000" fill-opacity="1" fill-rule="nonzero" stroke="none" opacity="0.15" visibility="visible"/>
 <path d="M 31,53 C 31,64.59798 40.40202,74 52,74 63.59798,74 73,64.59798 73,53 73,41.40202 63.59798,32 52,32 40.40202,32 31,41.40202 31,53 z m 12,0 c 0,-4.970563 4.029437,-9 9,-9 4.970563,0 9,4.029437 9,9 0,4.970563 -4.029437,9 -9,9 -4.970563,0 -9,-4.029437 -9,-9 z m 2,0 c 0,3.865993 3.134007,7 7,7 3.865993,0 7,-3.134007 7,-7 0,-3.865993 -3.134007,-7 -7,-7 -3.865993,0 -7,3.134007 -7,7 z m 2,0 c 0,-2.761423 2.238577,-5 5,-5 2.761423,0 5,2.238577 5,5 0,2.761423 -2.238577,5 -5,5 -2.761423,0 -5,-2.238577 -5,-5 z" stroke-width="1" fill="#000000" color="#000000" fill-opacity="1" fill-rule="nonzero" stroke="none" opacity="0.3" visibility="visible" inkscape:connector-curvature="0"/>
 <path d="M 52,22.03125 C 42.531097,21.914594 33.519702,27.348946 28.84375,35.5 c -0.282709,-0.298713 -0.504858,-0.552191 -0.875,-0.84375 -0.733494,-0.577769 -1.874267,-1.005203 -3.03125,-0.5625 -0.636677,0.251356 -1.136615,0.680875 -1.4375,1.1875 -0.300885,0.506625 -0.420312,1.055025 -0.46875,1.5625 -0.09688,1.014949 0.04594,1.990524 0,2.59375 a 0.94714867,0.94714867 0 0 0 0,0.28125 c 0.113509,0.494987 0.01436,0.549073 0.125,0.4375 0.110639,-0.111573 0.0595,-0.0086 -0.4375,-0.125 a 0.94714867,0.94714867 0 0 0 -0.28125,0 c -1.623767,0.111264 -3.611518,-0.334398 -5.65625,0.28125 a 0.94714867,0.94714867 0 0 0 -0.1875,0.09375 c -1.169733,0.65038 -1.546555,1.875127 -1.59375,2.875 -0.0472,0.999873 0.09649,1.947475 0.03125,2.53125 a 0.94714867,0.94714867 0 0 0 0,0.125 c 0.06047,3.17512 -0.128925,6.428481 0.09375,9.71875 a 0.94714867,0.94714867 0 0 0 0.03125,0.21875 c 0.21568,0.664613 0.622582,1.200017 1.125,1.53125 0.502418,0.331233 1.075992,0.468978 1.59375,0.53125 1.035516,0.124545 2.024682,-0.0068 2.65625,0.03125 a 0.94714867,0.94714867 0 0 0 0.0625,0 l 2.40625,0 c -0.03225,1.289839 -0.216742,2.768392 0.3125,4.34375 a 0.94714867,0.94714867 0 0 0 0.0625,0.125 c 1.069339,2.031234 4.033862,1.983272 5.21875,0.125 a 0.94714867,0.94714867 0 0 0 0,-0.03125 c 0.160821,-0.270516 0.08693,-0.179066 0.125,-0.21875 0.278769,0.424757 0.632898,1.344418 1.28125,2.125 0.02121,0.03125 0.04116,0.06261 0.0625,0.09375 5.925678,8.645947 17.117251,13.145421 27.375,10.90625 0.0099,-0.0019 0.02134,0.0019 0.03125,0 11.653821,-2.23348 20.843846,-12.867772 21.4375,-24.71875 5.18e-4,-0.01034 -5.05e-4,-0.02091 0,-0.03125 C 79.785613,39.262049 72.593971,27.966137 61.875,23.90625 58.737071,22.662567 55.373283,22.028735 52,22.03125 z m -0.03125,23.9375 a 0.94714867,0.94714867 0 0 0 0.09375,0 c 2.407937,-0.147795 3.863232,3.176688 2.28125,4.9375 a 0.94714867,0.94714867 0 0 0 -0.03125,0.0625 c -1.401787,1.863493 -4.91065,1.062855 -5.25,-1.28125 a 0.94714867,0.94714867 0 0 0 0,-0.09375 c -0.413911,-1.785574 1.069386,-3.689021 2.90625,-3.625 z" fill="#000000" fill-opacity="1" stroke="none" opacity="0.08" transform="matrix(1 0 0 1 100 0)"/>
 <path d="m 152,22.96875 c -9.50835,-0.117142 -18.6737,5.622116 -22.96875,14.0625 -1.03562,-0.952612 -2.10981,-2.690095 -3.75,-2.0625 -1.85988,0.734267 -1.1948,2.984446 -1.3125,4.529749 0.29045,1.266579 -0.18331,1.768945 -1.45814,1.470251 -1.80643,0.12378 -3.71217,-0.272673 -5.44811,0.25 -1.68806,0.938575 -0.91851,3.129504 -1.09375,4.69753 0.0614,3.223456 -0.12357,6.466308 0.0937,9.67747 0.63456,1.955392 2.96472,1.343315 4.52975,1.4375 1.1255,0 2.251,0 3.3765,0 0.12878,1.647002 -0.28144,3.38685 0.25,4.96875 0.71949,1.366696 2.76986,1.314658 3.56596,0.06612 1.414,-2.378473 1.95937,0.666129 3.00362,1.84657 5.68577,8.378202 16.5481,12.762616 26.4482,10.588311 11.21939,-2.135738 20.18486,-12.424729 20.74175,-23.832877 C 178.8384,39.678598 171.84261,28.684173 161.53111,24.778618 158.50608,23.579683 155.25327,22.966324 152,22.96875 z m 0,22.0625 c 3.26038,-0.200117 5.22624,4.117868 3.07623,6.510917 -1.91343,2.54365 -6.50433,1.4596 -6.96609,-1.730107 -0.55616,-2.399202 1.40872,-4.867287 3.88986,-4.78081 z" fill="#000000" fill-opacity="1" stroke="none" opacity="0.1" inkscape:connector-curvature="0"/>
 <path d="m 52,24.03125 c -9.841669,0 -18.346265,5.716324 -22.40625,14 a 0.96008596,0.96008596 0 0 0 0.1875,1.125 L 39.625,49 29.78125,58.84375 a 0.96008596,0.96008596 0 0 0 -0.1875,1.125 c 4.059985,8.283676 12.564581,14 22.40625,14 C 65.773651,73.96875 76.96875,62.773651 76.96875,49 76.96875,35.226349 65.773651,24.03125 52,24.03125 z m -26.09375,11.875 a 0.96008596,0.96008596 0 0 0 -0.875,0.96875 l 0,5.15625 -7.03125,0 A 0.96008596,0.96008596 0 0 0 17.03125,43 l 0,12 A 0.96008596,0.96008596 0 0 0 18,55.96875 l 7.03125,0 0,5.03125 a 0.96008596,0.96008596 0 0 0 1.65625,0.6875 l 12,-12.09375 a 0.96008596,0.96008596 0 0 0 0,-1.375 l -12,-12.03125 A 0.96008596,0.96008596 0 0 0 25.90625,35.90625 z M 52,39.96875 c 5.004031,0 9.03125,4.027219 9.03125,9.03125 0,5.004031 -4.027219,9.03125 -9.03125,9.03125 -5.004031,0 -9.03125,-4.027219 -9.03125,-9.03125 0,-5.004031 4.027219,-9.03125 9.03125,-9.03125 z m 0,0.0625 c -4.937095,0 -8.96875,4.031655 -8.96875,8.96875 0,4.937095 4.031655,8.96875 8.96875,8.96875 4.937095,0 8.96875,-4.031655 8.96875,-8.96875 0,-4.937095 -4.031655,-8.96875 -8.96875,-8.96875 z m 0,3.9375 c 2.794891,0 5.03125,2.236359 5.03125,5.03125 0,2.794891 -2.236359,5.03125 -5.03125,5.03125 -2.794891,0 -5.03125,-2.236359 -5.03125,-5.03125 0,-2.794891 2.236359,-5.03125 5.03125,-5.03125 z" fill="#000000" fill-opacity="1" stroke="none" opacity="0.15" transform="matrix(1 0 0 1 100 0)"/>
 <path d="m 152,25 c -9.46978,0 -17.62693,5.502683 -21.53125,13.46875 L 141,49 130.46875,59.53125 C 134.37307,67.497317 142.53022,73 152,73 165.25483,73 176,62.254834 176,49 176,35.745166 165.25483,25 152,25 z m -26,11.875 0,6.125 -8,0 0,12 8,0 0,6 L 138,48.90625 126,36.875 z M 152,39 c 5.52285,0 10,4.477152 10,10 0,5.522848 -4.47715,10 -10,10 -5.52285,0 -10,-4.477152 -10,-10 0,-5.522848 4.47715,-10 10,-10 z m 0,2 c -4.41828,0 -8,3.581722 -8,8 0,4.418278 3.58172,8 8,8 4.41828,0 8,-3.581722 8,-8 0,-4.418278 -3.58172,-8 -8,-8 z m 0,2 c 3.31371,0 6,2.686292 6,6 0,3.313708 -2.68629,6 -6,6 -3.31371,0 -6,-2.686292 -6,-6 0,-3.313708 2.68629,-6 6,-6 z" fill="#000000" fill-opacity="1" stroke="none" opacity="0.3" inkscape:connector-curvature="0"/>
 <path d="m 152,24 c -9.46978,0 -17.62693,5.502683 -21.53125,13.46875 L 141,48 130.46875,58.53125 C 134.37307,66.497317 142.53022,72 152,72 165.25483,72 176,61.254834 176,48 176,34.745166 165.25483,24 152,24 z m -26,11.875 0,6.125 -8,0 0,12 8,0 0,6 L 138,47.90625 126,35.875 z M 152,38 c 5.52285,0 10,4.477152 10,10 0,5.522848 -4.47715,10 -10,10 -5.52285,0 -10,-4.477152 -10,-10 0,-5.522848 4.47715,-10 10,-10 z m 0,2 c -4.41828,0 -8,3.581722 -8,8 0,4.418278 3.58172,8 8,8 4.41828,0 8,-3.581722 8,-8 0,-4.418278 -3.58172,-8 -8,-8 z m 0,2 c 3.31371,0 6,2.686292 6,6 0,3.313708 -2.68629,6 -6,6 -3.31371,0 -6,-2.686292 -6,-6 0,-3.313708 2.68629,-6 6,-6 z" fill="url(#linearGradient3856)" fill-opacity="1" stroke="none" inkscape:connector-curvature="0"/>
 <path d="m 152,24 c -9.46978,0 -17.62693,5.502683 -21.53125,13.46875 l 0.34375,0.34375 C 134.83608,30.203735 142.79378,25 152,25 c 13.08925,0 23.73616,10.473936 24,23.5 0.003,-0.164783 0,-0.334418 0,-0.5 0,-13.254834 -10.74517,-24 -24,-24 z m -26,11.875 0,1 11.5,11.53125 0.5,-0.5 L 126,35.875 z M 152,40 c -4.41828,0 -8,3.581722 -8,8 0,0.170091 0.0208,0.332546 0.0312,0.5 0.26124,-4.182345 3.72056,-7.5 7.96875,-7.5 4.24819,0 7.70751,3.317655 7.96875,7.5 C 159.97921,48.332546 160,48.170091 160,48 c 0,-4.418278 -3.58172,-8 -8,-8 z m -34,2 0,1 8,0 0,-1 -8,0 z m 22.5,6.5 -10.03125,10.03125 c 0.10866,0.221709 0.22856,0.438423 0.34375,0.65625 L 141,49 140.5,48.5 z m 1.53125,0 C 142.02312,48.665362 142,48.832622 142,49 c 0,5.522848 4.47715,10 10,10 5.52285,0 10,-4.477152 10,-10 0,-0.167378 -0.0231,-0.334638 -0.0312,-0.5 -0.26014,5.290952 -4.61333,9.5 -9.9688,9.5 -5.35547,0 -9.70866,-4.209048 -9.96875,-9.5 z m 4,0.125 C 146.02378,48.747591 146,48.875529 146,49 c 0,3.313708 2.68629,6 6,6 3.31371,0 6,-2.686292 6,-6 0,-0.124471 -0.0238,-0.252409 -0.0312,-0.375 C 157.66149,51.650536 155.1066,54 152,54 c -3.1066,0 -5.66149,-2.349464 -5.96875,-5.375 z" fill="#ffffff" fill-opacity="1" stroke="none" opacity="0.75" inkscape:connector-curvature="0"/>
 <path d="m 130.8125,36.8125 c -0.11519,0.217827 -0.23509,0.434541 -0.34375,0.65625 L 140.5,47.5 141,47 130.8125,36.8125 z M 152,37 c -5.52285,0 -10,4.477152 -10,10 0,0.167378 0.0231,0.334638 0.0312,0.5 0.26009,-5.290952 4.61328,-9.5 9.96875,-9.5 5.35547,0 9.70866,4.209048 9.96875,9.5 C 161.97688,47.334638 162,47.167378 162,47 162,41.477152 157.52285,37 152,37 z m 0,4 c -3.31371,0 -6,2.686292 -6,6 0,0.124471 0.0238,0.252409 0.0312,0.375 C 146.33851,44.349464 148.8934,42 152,42 c 3.1066,0 5.66149,2.349464 5.96875,5.375 C 157.97622,47.252409 158,47.124471 158,47 c 0,-3.313708 -2.68629,-6 -6,-6 z M 137.5,47.40625 126,59 l 0,1 12,-12.09375 -0.5,-0.5 z M 144.03125,47.5 C 144.02079,47.667454 144,47.829909 144,48 c 0,4.418278 3.58172,8 8,8 4.41828,0 8,-3.581722 8,-8 0,-0.170091 -0.0208,-0.332546 -0.0312,-0.5 -0.26129,4.182345 -3.72061,7.5 -7.9688,7.5 -4.24819,0 -7.70751,-3.317655 -7.96875,-7.5 z M 176,47.5 C 175.73616,60.526064 165.08925,71 152,71 142.79378,71 134.83608,65.796265 130.8125,58.1875 l -0.34375,0.34375 C 134.37307,66.497317 142.53022,72 152,72 c 13.25483,0 24,-10.745166 24,-24 0,-0.165582 0.003,-0.335217 0,-0.5 z m -58,5.5 0,1 8,0 0,-1 -8,0 z" fill="#000000" fill-opacity="1" stroke="none" opacity="0.15" inkscape:connector-curvature="0"/>
 <path d="M 31,52 C 31,63.59798 40.40202,73 52,73 63.59798,73 73,63.59798 73,52 73,40.40202 63.59798,31 52,31 40.40202,31 31,40.40202 31,52 z m 12,0 c 0,-4.970563 4.029437,-9 9,-9 4.970563,0 9,4.029437 9,9 0,4.970563 -4.029437,9 -9,9 -4.970563,0 -9,-4.029437 -9,-9 z m 2,0 c 0,3.865993 3.134007,7 7,7 3.865993,0 7,-3.134007 7,-7 0,-3.865993 -3.134007,-7 -7,-7 -3.865993,0 -7,3.134007 -7,7 z m 2,0 c 0,-2.761423 2.238577,-5 5,-5 2.761423,0 5,2.238577 5,5 0,2.761423 -2.238577,5 -5,5 -2.761423,0 -5,-2.238577 -5,-5 z" stroke-width="1" fill="url(#linearGradient3940)" color="#000000" fill-opacity="1" fill-rule="nonzero" stroke="none" visibility="visible" inkscape:connector-curvature="0"/>
 <path d="m 44,23 c -11.59798,0 -21,9.40202 -21,21 0,6.429493 2.917588,12.179144 7.46875,16.03125 C 29.534711,57.528361 29,54.828539 29,52 29,39.297451 39.297451,29 52,29 c 2.828539,0 5.528361,0.534711 8.03125,1.46875 C 56.179144,25.917588 50.429493,23 44,23 z" stroke-width="1" fill="#ffffff" color="#000000" fill-opacity="1" fill-rule="nonzero" stroke="none" opacity="0.2" visibility="visible" inkscape:connector-curvature="0"/>
 <path d="m 52,31 c -11.59798,0 -21,9.40202 -21,21 0,0.16555 -0.0038,0.335366 0,0.5 C 31.263131,41.130813 40.56757,32 52,32 63.43243,32 72.736869,41.130813 73,52.5 73.00381,52.335366 73,52.16555 73,52 73,40.40202 63.59798,31 52,31 z m 0,14 c -3.865993,0 -7,3.134007 -7,7 0,0.168225 0.01958,0.334745 0.03125,0.5 C 45.287779,48.867514 48.302232,46 52,46 c 3.697768,0 6.712221,2.867514 6.96875,6.5 C 58.98042,52.334745 59,52.168225 59,52 59,48.134007 55.865993,45 52,45 z m -8.96875,7.5 C 43.021776,52.669195 43,52.828436 43,53 c 0,4.970563 4.029437,9 9,9 4.970563,0 9,-4.029437 9,-9 0,-0.171564 -0.02178,-0.330805 -0.03125,-0.5 C 60.703743,57.232721 56.798999,61 52,61 47.201001,61 43.296257,57.232721 43.03125,52.5 z m 4,0 C 47.01418,52.668085 47,52.827411 47,53 c 0,2.761423 2.238577,5 5,5 2.761423,0 5,-2.238577 5,-5 0,-0.172589 -0.01418,-0.331915 -0.03125,-0.5 C 56.7127,55.02128 54.588834,57 52,57 49.411166,57 47.2873,55.02128 47.03125,52.5 z" stroke-width="1" fill="#ffffff" color="#000000" fill-opacity="1" fill-rule="nonzero" stroke="none" opacity="0.75" visibility="visible" inkscape:connector-curvature="0"/>
 <path d="m 52,42 c -4.970563,0 -9,4.029437 -9,9 0,0.171564 0.02178,0.330805 0.03125,0.5 C 43.296257,46.767279 47.201001,43 52,43 c 4.798999,0 8.703743,3.767279 8.96875,8.5 C 60.978224,51.330805 61,51.171564 61,51 61,46.029437 56.970563,42 52,42 z m 0,4 c -2.761423,0 -5,2.238577 -5,5 0,0.172589 0.01418,0.331915 0.03125,0.5 C 47.2873,48.97872 49.411166,47 52,47 c 2.588834,0 4.7127,1.97872 4.96875,4.5 C 56.98582,51.331915 57,51.172589 57,51 57,48.238577 54.761423,46 52,46 z m -21,5.5 c -0.0038,0.164634 0,0.33445 0,0.5 0,11.59798 9.40202,21 21,21 11.59798,0 21,-9.40202 21,-21 0,-0.16555 0.0038,-0.335366 0,-0.5 C 72.736869,62.869187 63.43243,72 52,72 40.56757,72 31.263131,62.869187 31,51.5 z m 14.03125,0 C 45.01958,51.665255 45,51.831775 45,52 c 0,3.865993 3.134007,7 7,7 3.865993,0 7,-3.134007 7,-7 0,-0.168225 -0.01958,-0.334745 -0.03125,-0.5 C 58.712221,55.132486 55.697768,58 52,58 48.302232,58 45.287779,55.132486 45.03125,51.5 z" stroke-width="1" fill="#000000" color="#000000" fill-opacity="1" fill-rule="nonzero" stroke="none" opacity="0.15" visibility="visible" inkscape:connector-curvature="0"/>
</svg>
