<?xml version="1.0" encoding="UTF-8" standalone="no"?>
<svg
   xmlns:dc="http://purl.org/dc/elements/1.1/"
   xmlns:cc="http://creativecommons.org/ns#"
   xmlns:rdf="http://www.w3.org/1999/02/22-rdf-syntax-ns#"
   xmlns:svg="http://www.w3.org/2000/svg"
   xmlns="http://www.w3.org/2000/svg"
   xmlns:xlink="http://www.w3.org/1999/xlink"
   xmlns:sodipodi="http://sodipodi.sourceforge.net/DTD/sodipodi-0.dtd"
   xmlns:inkscape="http://www.inkscape.org/namespaces/inkscape"
   display="inline"
   height="96"
   width="96"
   id="svg2"
   version="1.1"
   inkscape:version="0.91 r13725"
   sodipodi:docname="media-optical-burn.svg">
  <metadata
     id="metadata55">
    <rdf:RDF>
      <cc:Work
         rdf:about="">
        <dc:format>image/svg+xml</dc:format>
        <dc:type
           rdf:resource="http://purl.org/dc/dcmitype/StillImage" />
      </cc:Work>
    </rdf:RDF>
  </metadata>
  <sodipodi:namedview
     pagecolor="#ffffff"
     bordercolor="#666666"
     borderopacity="1"
     objecttolerance="10"
     gridtolerance="10"
     guidetolerance="10"
     inkscape:pageopacity="0"
     inkscape:pageshadow="2"
     inkscape:window-width="640"
     inkscape:window-height="480"
     id="namedview53"
     showgrid="false"
     inkscape:zoom="2.4583333"
     inkscape:cx="22.98305"
     inkscape:cy="47.999999"
     inkscape:window-x="66"
     inkscape:window-y="91"
     inkscape:window-maximized="0"
     inkscape:current-layer="svg2" />
  <defs
     id="defs4">
    <linearGradient
       id="linearGradient4081">
      <stop
         stop-color="#4d4d4d"
         stop-opacity="1"
         id="stop7" />
      <stop
         stop-color="#1a1a1a"
         stop-opacity="1"
         offset="1"
         id="stop9" />
    </linearGradient>
    <linearGradient
       x2="0"
       xlink:href="#linearGradient4081"
       y1="72"
       y2="24"
       gradientUnits="userSpaceOnUse"
       id="linearGradient3796"
       gradientTransform="matrix(1 0 0 1 0 -80)" />
    <linearGradient
       x2="0"
       xlink:href="#linearGradient4081"
       y1="72"
       y2="24"
       gradientUnits="userSpaceOnUse"
       id="linearGradient3856"
       gradientTransform="translate(4,0)" />
    <linearGradient
       x2="0"
       y1="92.54"
       y2="7.02"
       gradientUnits="userSpaceOnUse"
       id="ButtonShadow-0"
       gradientTransform="matrix(1.0059 0 0 0.99417 100 0)">
      <stop
         stop-color="#000000"
         stop-opacity="1"
         id="stop14" />
      <stop
         stop-color="#000000"
         stop-opacity="0.588"
         offset="1"
         id="stop16" />
    </linearGradient>
    <linearGradient
       x2="0"
       xlink:href="#ButtonShadow-0"
       y1="6.132"
       y2="90.24"
       gradientUnits="userSpaceOnUse"
       id="linearGradient3780"
       gradientTransform="matrix(1.02381 0 0 -1.0119 -1.143 98.07)" />
    <linearGradient
       x2="0"
       xlink:href="#ButtonShadow-0"
       y1="6.132"
       y2="90.24"
       gradientUnits="userSpaceOnUse"
       id="linearGradient3721-4"
       gradientTransform="matrix(1 0 0 -1 0 97)" />
    <radialGradient
       cy="90.17"
       r="42"
       gradientUnits="userSpaceOnUse"
       id="radialGradient3619-5"
       cx="48"
       gradientTransform="matrix(1.15731 0 0 0.99591 -7.551 0.197)">
      <stop
         stop-color="#ffffff"
         stop-opacity="1"
         id="stop21" />
      <stop
         stop-color="#ffffff"
         stop-opacity="0"
         offset="1"
         id="stop23" />
    </radialGradient>
  </defs>
  <g
     id="g3440"
     transform="matrix(1.288068,0,0,1.288068,-12.53329,-15.128785)">
    <path
       id="path39"
       inkscape:connector-curvature="0"
       d="m 52,22.96875 c -9.508347,-0.117142 -18.673698,5.622116 -22.96875,14.0625 -1.035624,-0.952612 -2.10981,-2.690095 -3.75,-2.0625 -1.859878,0.734267 -1.1948,2.984446 -1.3125,4.529749 0.290449,1.266579 -0.183315,1.768945 -1.45814,1.470251 -1.806431,0.12378 -3.712173,-0.272673 -5.44811,0.25 -1.688061,0.938575 -0.918508,3.129504 -1.09375,4.69753 0.06139,3.223456 -0.123571,6.466308 0.09375,9.67747 0.634562,1.955392 2.964719,1.343315 4.529749,1.4375 1.1255,0 2.251001,0 3.376501,0 0.128778,1.647002 -0.28144,3.38685 0.25,4.96875 0.719494,1.366696 2.769858,1.314658 3.565962,0.06612 1.413993,-2.378473 1.959366,0.666129 3.003614,1.84657 5.685779,8.378202 16.548104,12.762616 26.4482,10.588311 C 68.455918,72.365263 77.421386,62.076272 77.978284,50.668124 78.838399,39.678598 71.842612,28.684173 61.53111,24.778618 58.506084,23.579683 55.253265,22.966324 52,22.96875 Z m 0,22.0625 c 3.260378,-0.200117 5.226235,4.117868 3.076226,6.510917 -1.913425,2.54365 -6.504326,1.4596 -6.966091,-1.730107 C 47.55398,47.412858 49.518857,44.944773 52,45.03125 Z"
       style="opacity:0.1;fill:black;fill-opacity:1;stroke:none" />
    <path
       id="path41"
       d="m 52,24.03125 c -9.841669,0 -18.346265,5.716324 -22.40625,14 a 0.96008596,0.96008596 0 0 0 0.1875,1.125 L 39.625,49 29.78125,58.84375 a 0.96008596,0.96008596 0 0 0 -0.1875,1.125 c 4.059985,8.283676 12.564581,14 22.40625,14 C 65.773651,73.96875 76.96875,62.773651 76.96875,49 76.96875,35.226349 65.773651,24.03125 52,24.03125 Z m -26.09375,11.875 a 0.96008596,0.96008596 0 0 0 -0.875,0.96875 l 0,5.15625 -7.03125,0 A 0.96008596,0.96008596 0 0 0 17.03125,43 l 0,12 A 0.96008596,0.96008596 0 0 0 18,55.96875 l 7.03125,0 0,5.03125 a 0.96008596,0.96008596 0 0 0 1.65625,0.6875 l 12,-12.09375 a 0.96008596,0.96008596 0 0 0 0,-1.375 l -12,-12.03125 A 0.96008596,0.96008596 0 0 0 25.90625,35.90625 Z M 52,39.96875 c 5.004031,0 9.03125,4.027219 9.03125,9.03125 0,5.004031 -4.027219,9.03125 -9.03125,9.03125 -5.004031,0 -9.03125,-4.027219 -9.03125,-9.03125 0,-5.004031 4.027219,-9.03125 9.03125,-9.03125 z m 0,0.0625 c -4.937095,0 -8.96875,4.031655 -8.96875,8.96875 0,4.937095 4.031655,8.96875 8.96875,8.96875 4.937095,0 8.96875,-4.031655 8.96875,-8.96875 0,-4.937095 -4.031655,-8.96875 -8.96875,-8.96875 z m 0,3.9375 c 2.794891,0 5.03125,2.236359 5.03125,5.03125 0,2.794891 -2.236359,5.03125 -5.03125,5.03125 -2.794891,0 -5.03125,-2.236359 -5.03125,-5.03125 0,-2.794891 2.236359,-5.03125 5.03125,-5.03125 z"
       inkscape:connector-curvature="0"
       style="opacity:0.15;fill:black;fill-opacity:1;stroke:none" />
    <path
       id="path43"
       inkscape:connector-curvature="0"
       d="M 52,25 C 42.530217,25 34.373069,30.502683 30.46875,38.46875 L 41,49 30.46875,59.53125 C 34.373069,67.497317 42.530217,73 52,73 65.254834,73 76,62.254834 76,49 76,35.745166 65.254834,25 52,25 Z M 26,36.875 26,43 l -8,0 0,12 8,0 0,6 L 38,48.90625 26,36.875 Z M 52,39 c 5.522848,0 10,4.477152 10,10 0,5.522848 -4.477152,10 -10,10 -5.522848,0 -10,-4.477152 -10,-10 0,-5.522848 4.477152,-10 10,-10 z m 0,2 c -4.418278,0 -8,3.581722 -8,8 0,4.418278 3.581722,8 8,8 4.418278,0 8,-3.581722 8,-8 0,-4.418278 -3.581722,-8 -8,-8 z m 0,2 c 3.313708,0 6,2.686292 6,6 0,3.313708 -2.686292,6 -6,6 -3.313708,0 -6,-2.686292 -6,-6 0,-3.313708 2.686292,-6 6,-6 z"
       style="opacity:0.3;fill:black;fill-opacity:1;stroke:none" />
    <path
       id="path45"
       inkscape:connector-curvature="0"
       d="M 52,24 C 42.530217,24 34.373069,29.502683 30.46875,37.46875 L 41,48 30.46875,58.53125 C 34.373069,66.497317 42.530217,72 52,72 65.254834,72 76,61.254834 76,48 76,34.745166 65.254834,24 52,24 Z M 26,35.875 26,42 l -8,0 0,12 8,0 0,6 L 38,47.90625 26,35.875 Z M 52,38 c 5.522848,0 10,4.477152 10,10 0,5.522848 -4.477152,10 -10,10 -5.522848,0 -10,-4.477152 -10,-10 0,-5.522848 4.477152,-10 10,-10 z m 0,2 c -4.418278,0 -8,3.581722 -8,8 0,4.418278 3.581722,8 8,8 4.418278,0 8,-3.581722 8,-8 0,-4.418278 -3.581722,-8 -8,-8 z m 0,2 c 3.313708,0 6,2.686292 6,6 0,3.313708 -2.686292,6 -6,6 -3.313708,0 -6,-2.686292 -6,-6 0,-3.313708 2.686292,-6 6,-6 z"
       style="fill:url(#linearGradient3856);fill-opacity:1;stroke:none" />
    <path
       id="path49"
       inkscape:connector-curvature="0"
       d="M 52,24 C 42.530217,24 34.373069,29.502683 30.46875,37.46875 L 30.8125,37.8125 C 34.836079,30.203735 42.793777,25 52,25 65.089252,25 75.736161,35.473936 76,48.5 76.003338,48.335217 76,48.165582 76,48 76,34.745166 65.254834,24 52,24 Z m -26,11.875 0,1 11.5,11.53125 0.5,-0.5 L 26,35.875 Z M 52,40 c -4.418278,0 -8,3.581722 -8,8 0,0.170091 0.02079,0.332546 0.03125,0.5 C 44.292493,44.317655 47.751813,41 52,41 c 4.248187,0 7.707507,3.317655 7.96875,7.5 C 59.97921,48.332546 60,48.170091 60,48 60,43.581722 56.418278,40 52,40 Z m -34,2 0,1 8,0 0,-1 -8,0 z m 22.5,6.5 -10.03125,10.03125 c 0.108664,0.221709 0.228561,0.438423 0.34375,0.65625 L 41,49 40.5,48.5 Z m 1.53125,0 C 42.023121,48.665362 42,48.832622 42,49 c 0,5.522848 4.477152,10 10,10 5.522848,0 10,-4.477152 10,-10 0,-0.167378 -0.02312,-0.334638 -0.03125,-0.5 C 61.708657,53.790952 57.35547,58 52,58 46.64453,58 42.291343,53.790952 42.03125,48.5 Z m 4,0.125 C 46.023779,48.747591 46,48.875529 46,49 c 0,3.313708 2.686292,6 6,6 3.313708,0 6,-2.686292 6,-6 0,-0.124471 -0.02378,-0.252409 -0.03125,-0.375 C 57.66149,51.650536 55.106601,54 52,54 48.893399,54 46.33851,51.650536 46.03125,48.625 Z"
       style="opacity:0.75;fill:white;fill-opacity:1;stroke:none" />
    <path
       id="path51"
       inkscape:connector-curvature="0"
       d="m 30.8125,36.8125 c -0.115189,0.217827 -0.235086,0.434541 -0.34375,0.65625 L 40.5,47.5 41,47 30.8125,36.8125 Z M 52,37 c -5.522848,0 -10,4.477152 -10,10 0,0.167378 0.02312,0.334638 0.03125,0.5 C 42.291343,42.209048 46.64453,38 52,38 c 5.35547,0 9.708657,4.209048 9.96875,9.5 C 61.976879,47.334638 62,47.167378 62,47 62,41.477152 57.522848,37 52,37 Z m 0,4 c -3.313708,0 -6,2.686292 -6,6 0,0.124471 0.02378,0.252409 0.03125,0.375 C 46.33851,44.349464 48.893399,42 52,42 c 3.106601,0 5.66149,2.349464 5.96875,5.375 C 57.976221,47.252409 58,47.124471 58,47 58,43.686292 55.313708,41 52,41 Z M 37.5,47.40625 26,59 l 0,1 12,-12.09375 -0.5,-0.5 z M 44.03125,47.5 C 44.02079,47.667454 44,47.829909 44,48 c 0,4.418278 3.581722,8 8,8 4.418278,0 8,-3.581722 8,-8 0,-0.170091 -0.02079,-0.332546 -0.03125,-0.5 C 59.707507,51.682345 56.248187,55 52,55 47.751813,55 44.292493,51.682345 44.03125,47.5 Z M 76,47.5 C 75.736161,60.526064 65.089252,71 52,71 42.793777,71 34.836079,65.796265 30.8125,58.1875 l -0.34375,0.34375 C 34.373069,66.497317 42.530217,72 52,72 65.254834,72 76,61.254834 76,48 c 0,-0.165582 0.0033,-0.335217 0,-0.5 z m -58,5.5 0,1 8,0 0,-1 -8,0 z"
       style="opacity:0.15;fill:black;fill-opacity:1;stroke:none" />
  </g>
</svg>
