<?xml version="1.0" encoding="UTF-8" standalone="no"?>
<svg
   xmlns:dc="http://purl.org/dc/elements/1.1/"
   xmlns:cc="http://creativecommons.org/ns#"
   xmlns:rdf="http://www.w3.org/1999/02/22-rdf-syntax-ns#"
   xmlns:svg="http://www.w3.org/2000/svg"
   xmlns="http://www.w3.org/2000/svg"
   xmlns:sodipodi="http://sodipodi.sourceforge.net/DTD/sodipodi-0.dtd"
   xmlns:inkscape="http://www.inkscape.org/namespaces/inkscape"
   height="96"
   width="96"
   id="svg2"
   version="1.1"
   inkscape:version="0.91 r13725"
   sodipodi:docname="media-playlist-repeat.svg">
  <metadata
     id="metadata57">
    <rdf:RDF>
      <cc:Work
         rdf:about="">
        <dc:format>image/svg+xml</dc:format>
        <dc:type
           rdf:resource="http://purl.org/dc/dcmitype/StillImage" />
      </cc:Work>
    </rdf:RDF>
  </metadata>
  <sodipodi:namedview
     pagecolor="#ffffff"
     bordercolor="#666666"
     borderopacity="1"
     objecttolerance="10"
     gridtolerance="10"
     guidetolerance="10"
     inkscape:pageopacity="0"
     inkscape:pageshadow="2"
     inkscape:window-width="640"
     inkscape:window-height="480"
     id="namedview55"
     showgrid="false"
     inkscape:zoom="2.4583333"
     inkscape:cx="22.98305"
     inkscape:cy="47.999999"
     inkscape:window-x="66"
     inkscape:window-y="91"
     inkscape:window-maximized="0"
     inkscape:current-layer="svg2" />
  <defs
     id="defs4">
    <linearGradient
       x2="0"
       y1="20.221"
       y2="138.66"
       gradientUnits="userSpaceOnUse"
       id="linearGradient90466">
      <stop
         stop-color="#fff"
         id="stop7" />
      <stop
         stop-color="#fff"
         stop-opacity="0"
         offset="1"
         id="stop9" />
    </linearGradient>
    <clipPath
       id="clipPath3613-55">
      <rect
         x="6"
         rx="6"
         y="6"
         height="84"
         width="84"
         id="rect12" />
    </clipPath>
    <filter
       x="-0.192"
       y="-0.192"
       height="1.384"
       color-interpolation-filters="sRGB"
       id="filter3794-41"
       width="1.384">
      <feGaussianBlur
         stdDeviation="5.28"
         id="feGaussianBlur15" />
    </filter>
    <linearGradient
       x2="0"
       y1="90"
       y2="5.988"
       gradientUnits="userSpaceOnUse"
       id="linearGradient3182"
       gradientTransform="matrix(-1.125,0,0,1.0417,103.72,-3.16)">
      <stop
         stop-color="#8c8c8c"
         id="stop18" />
      <stop
         stop-color="#dcdcdc"
         offset="1"
         id="stop20" />
    </linearGradient>
    <linearGradient
       x2="0"
       y1="5.547"
       y2="19.983"
       gradientUnits="userSpaceOnUse"
       id="linearGradient9010"
       gradientTransform="matrix(3.3282,0,0,2.7042,14.984,957.36)">
      <stop
         stop-color="#1e1e1e"
         id="stop23" />
      <stop
         stop-color="#505050"
         offset="1"
         id="stop25" />
    </linearGradient>
  </defs>
  <g
     id="g3590"
     transform="matrix(1.6666667,0,0,1.6666667,-31.166668,-28.250002)">
    <g
       transform="translate(-0.484,-947.11)"
       id="g43">
      <path
         d="m 31.484,973.36 c -4.155,0 -7.5,3.345 -7.5,7.5 l 0,17 c 0,4.155 3.345,7.5 7.5,7.5 l 5.5,0 0.0937,0 c 1.0636,-0.049 1.9062,-0.9238 1.9062,-2 l 0,-2 c 0,-1.108 -0.892,-2 -2,-2 l -4,0 c -1.662,0 -3,-1.338 -3,-3 l 0,-14 c 0,-1.662 1.338,-3 3,-3 l 30,0 c 1.662,0 3,1.338 3,3 l 0,14 c 0,1.662 -1.338,3 -3,3 -1.0484,-0.049 -1.8845,0 -3,0 l 0,-6 -15,9 15,9 0,-6 4.5,0 c 4.155,0 7.5,-3.345 7.5,-7.5 l 0,-17 c 0,-4.155 -3.345,-7.5 -7.5,-7.5 l -33,0 z"
         id="path45"
         style="fill:url(#linearGradient9010)"
         inkscape:connector-curvature="0" />
      <path
         d="m 31.484,973.36 c -4.155,0 -7.5,3.345 -7.5,7.5 l 0,17 c 0,4.155 3.345,7.5 7.5,7.5 l 5.5,0 0.0937,0 c 1.0636,-0.049 1.9062,-0.9238 1.9062,-2 l 0,-2 c 0,-1.108 -0.892,-2 -2,-2 l -4,0 c -1.662,0 -3,-1.338 -3,-3 l 0,-14 c 0,-1.662 1.338,-3 3,-3 l 30,0 c 1.662,0 3,1.338 3,3 l 0,14 c 0,1.662 -1.338,3 -3,3 -1.0484,-0.049 -1.8845,0 -3,0 l 0,-6 -15,9 15,9 0,-6 4.5,0 c 4.155,0 7.5,-3.345 7.5,-7.5 l 0,-17 c 0,-4.155 -3.345,-7.5 -7.5,-7.5 l -33,0 z m 0,1 33,0 c 3.6232,0 6.5,2.8768 6.5,6.5 l 0,17 c 0,3.6232 -2.8768,6.5 -6.5,6.5 l -4.5,0 a 0.99093,0.99093 0 0 0 -1,1 l 0,4.25 -12.094,-7.25 12.094,-7.25 0,4.25 a 0.99093,0.99093 0 0 0 1,1 c 1.1445,0 1.9755,-0.046 2.9688,0 a 0.99093,0.99093 0 0 0 0.0313,0 c 2.1938,0 4,-1.8062 4,-4 l 0,-14 c 0,-2.1938 -1.8062,-4 -4,-4 l -30,0 c -2.1938,0 -4,1.8062 -4,4 l 0,14 c 0,2.1938 1.8062,4 4,4 l 4,0 c 0.57622,0 1,0.4238 1,1 l 0,2 c 0,0.5591 -0.39117,0.9748 -0.9375,1 a 0.99093,0.99093 0 0 0 -0.0313,0 l -0.0313,0 -5.5,0 c -3.6232,0 -6.5,-2.8768 -6.5,-6.5 l 0,-17 c 0,-3.6232 2.8768,-6.5 6.5,-6.5 z"
         id="path47"
         inkscape:connector-curvature="0"
         style="opacity:0.2" />
      <path
         d="m 31.484,973.36 c -4.155,0 -7.5,3.345 -7.5,7.5 l 0,17 c 0,4.155 3.345,7.5 7.5,7.5 l 5.5,0 0.0937,0 c 1.0636,-0.049 1.9062,-0.9238 1.9062,-2 l 0,-2 c 0,-1.108 -0.892,-2 -2,-2 l -4,0 c -1.662,0 -3,-1.338 -3,-3 l 0,-14 c 0,-1.662 1.338,-3 3,-3 l 30,0 c 1.662,0 3,1.338 3,3 l 0,14 c 0,1.662 -1.338,3 -3,3 -1.0484,-0.049 -1.8845,0 -3,0 l 0,-6 -15,9 15,9 0,-6 4.5,0 c 4.155,0 7.5,-3.345 7.5,-7.5 l 0,-17 c 0,-4.155 -3.345,-7.5 -7.5,-7.5 l -33,0 z m 0,1.9688 33,0 c 3.0914,0 5.5312,2.4398 5.5312,5.5312 l 0,17 c 0,3.0914 -2.4398,5.5313 -5.5312,5.5313 l -4.5,0 a 1.9819,1.9819 0 0 0 -1.9688,1.9687 l 0,2.5 -9.1875,-5.5 9.1875,-5.5 0,2.5 a 1.9819,1.9819 0 0 0 1.9688,1.9688 c 1.1734,0 1.9681,-0.044 2.9062,0 a 1.9819,1.9819 0 0 0 0.0937,0 c 2.7256,0 4.9688,-2.2432 4.9688,-4.9688 l 0,-14 c 0,-2.7256 -2.2432,-4.9688 -4.9688,-4.9688 l -30,0 c -2.7256,0 -4.9688,2.2432 -4.9688,4.9688 l 0,14 c 0,2.7256 2.2432,4.9688 4.9688,4.9688 l 4,0 c 0.0444,0 0.0313,-0.013 0.0313,0.031 l 0,2 c 0,0.042 -0.002,0.03 -0.0313,0.031 l -5.5,0 c -3.0914,0 -5.5312,-2.4399 -5.5312,-5.5313 l 0,-17 c 0,-3.0914 2.4398,-5.5312 5.5312,-5.5312 z"
         id="path49"
         inkscape:connector-curvature="0"
         style="opacity:0.1" />
      <path
         d="m 31.484,973.36 c -4.155,0 -7.5,3.345 -7.5,7.5 l 0,1 c 0,-4.155 3.345,-7.5 7.5,-7.5 l 33,0 c 4.155,0 7.5,3.345 7.5,7.5 l 0,-1 c 0,-4.155 -3.345,-7.5 -7.5,-7.5 l -33,0 z m 28.5,20 -15,9 0.84375,0.5 14.156,-8.5 0,-1 z m -30,3 0,1 c 0,1.662 1.338,3 3,3 l 4,0 c 1.108,0 2,0.892 2,2 l 0,-1 c 0,-1.108 -0.892,-2 -2,-2 l -4,0 c -1.662,0 -3,-1.338 -3,-3 z m 36,0 c 0,1.662 -1.338,3 -3,3 -1.0484,-0.049 -1.8845,0 -3,0 l 0,1 c 1.1155,0 1.9516,-0.049 3,0 1.662,0 3,-1.338 3,-3 l 0,-1 z"
         id="path51"
         inkscape:connector-curvature="0"
         style="opacity:0.6" />
      <path
         d="m 32.984,979.36 c -1.662,0 -3,1.338 -3,3 l 0,1 c 0,-1.662 1.338,-3 3,-3 l 30,0 c 1.662,0 3,1.338 3,3 l 0,-1 c 0,-1.662 -1.338,-3 -3,-3 l -30,0 z m -9,18.5 0,1 c 0,4.155 3.345,7.5 7.5,7.5 l 5.5,0 0.0937,0 c 1.0636,-0.049 1.9062,-0.9238 1.9062,-2 l 0,-1 c 0,1.0762 -0.8426,1.9508 -1.9062,2 l -0.0937,0 -5.5,0 c -4.155,0 -7.5,-3.345 -7.5,-7.5 z m 48,0 c 0,4.155 -3.345,7.5 -7.5,7.5 l -4.5,0 0,1 4.5,0 c 4.155,0 7.5,-3.345 7.5,-7.5 l 0,-1 z m -26.156,5 -0.84375,0.5 15,9 0,-1 -14.156,-8.5 z"
         id="path53"
         inkscape:connector-curvature="0"
         style="opacity:0.6;fill:white" />
    </g>
  </g>
</svg>
