<svg height="96" width="96" xmlns="http://www.w3.org/2000/svg" xmlns:xlink="http://www.w3.org/1999/xlink" xmlns:sodipodi="http://sodipodi.sourceforge.net/DTD/sodipodi-0.dtd" xmlns:inkscape="http://www.inkscape.org/namespaces/inkscape">
 <defs>
  <clipPath id="clipPath3613-55">
   <use xlink:href="#SVGCleanerId_0"/>
  </clipPath>
  <filter x="-0.192" y="-0.192" height="1.384" color-interpolation-filters="sRGB" id="filter3794-41" width="1.384">
   <feGaussianBlur stdDeviation="5.28"/>
  </filter>
  <linearGradient x2="0" y1="90" y2="5.988" gradientUnits="userSpaceOnUse" id="linearGradient3182" gradientTransform="matrix(1.125 0 0 1.0417 -7.75 -3.25)">
   <stop stop-color="#8c8c8c"/>
   <stop stop-color="#dcdcdc" offset="1"/>
  </linearGradient>
  <linearGradient x2="0" y1="20.221" y2="138.66" gradientUnits="userSpaceOnUse" id="linearGradient90466">
   <stop stop-color="#fff"/>
   <stop stop-color="#fff" stop-opacity="0" offset="1"/>
  </linearGradient>
  <linearGradient x2="0" y1="36" y2="68" gradientUnits="userSpaceOnUse" id="linearGradient19228" gradientTransform="matrix(1 0 0 1 3.984 951.36)">
   <stop stop-color="#1e1e1e"/>
   <stop stop-color="#505050" offset="1"/>
  </linearGradient>
  <rect x="6" rx="6" y="6" height="84" id="SVGCleanerId_0" width="84"/>
 </defs>
 <g transform="matrix(1 0 0 1 0 -956.36)">
  <rect x="3.608" rx="12.552" y="959.96" fill-opacity="0.039" height="88.76" width="88.76"/>
  <rect x="4.216" rx="12.38" y="960.57" fill-opacity="0.078" height="87.55" width="87.55"/>
  <rect x="4.824" rx="12.208" y="961.18" fill-opacity="0.157" height="86.33" width="86.33"/>
  <path d="m17.469 5.4062c-6.668 0-12.032 5.3948-12.032 12.063l0.0005 61.031c0 5.418 3.5332 9.982 8.4375 11.5h68.187c4.715-1.457 8.172-5.734 8.438-10.875v-62.281c-0.321-6.377-5.54-11.438-12-11.438l-61.031 0.0002z" fill="url(#linearGradient3182)" opacity="0.9" transform="matrix(1 0 0 1 0 956.36)"/>
  <path d="m5.4316 1029.8v5.0663c0 6.668 5.3645 12.032 12.032 12.032h61.049c6.668 0 12.032-5.3645 12.032-12.032v-5.0663c0 6.6681-5.3645 12.032-12.032 12.032h-61.049c-6.668 0-12.032-5.3643-12.032-12.032z" fill-opacity="0.235"/>
  <path d="m5.4316 1033.9v1.0133c0 6.668 5.3645 12.032 12.032 12.032h61.049c6.668 0 12.032-5.3645 12.032-12.032v-1.0133c0 6.6681-5.3645 12.032-12.032 12.032h-61.049c-6.668 0-12.032-5.3644-12.032-12.032z" fill-opacity="0.098"/>
  <rect x="15" stroke-width="0.5" rx="12" y="15" clip-path="url(#clipPath3613-55)" fill="url(#linearGradient90466)" stroke="#fff" height="66" filter="url(#filter3794-41)" opacity="0.3" stroke-linecap="round" width="66" transform="matrix(1 0 0 1 -0.5 953.86)"/>
  <path d="m33.984 987.36c-1.108 0-2 0.892-2 2v28c0 1.108 0.892 2 2 2h8c1.108 0 2-0.892 2-2v-28c0-1.108-0.892-2-2-2h-8zm20 0c-1.108 0-2 0.892-2 2v28c0 1.108 0.892 2 2 2h8c1.108 0 2-0.892 2-2v-28c0-1.108-0.892-2-2-2h-8z" fill="url(#linearGradient19228)" color="#000000"/>
  <path d="m31.984 1017.4v1c0 1.108 0.892 2 2 2h8c1.108 0 2-0.892 2-2v-1c0 1.108-0.892 2-2 2h-8c-1.108 0-2-0.892-2-2zm20 0v1c0 1.108 0.892 2 2 2h8c1.108 0 2-0.892 2-2v-1c0 1.108-0.892 2-2 2h-8c-1.108 0-2-0.892-2-2z" fill="#fff" color="#000000" opacity="0.6"/>
  <path d="m33.984 987.36c-1.108 0-2 0.892-2 2v28c0 1.108 0.892 2 2 2h8c1.108 0 2-0.892 2-2v-28c0-1.108-0.892-2-2-2h-8zm20 0c-1.108 0-2 0.892-2 2v28c0 1.108 0.892 2 2 2h8c1.108 0 2-0.892 2-2v-28c0-1.108-0.892-2-2-2h-8zm-20 2h8v28h-8v-28zm20 0h8v28h-8v-28z" color="#000000" opacity="0.1"/>
  <path d="m33.984 987.36c-1.108 0-2 0.892-2 2v28c0 1.108 0.892 2 2 2h8c1.108 0 2-0.892 2-2v-28c0-1.108-0.892-2-2-2h-8zm20 0c-1.108 0-2 0.892-2 2v28c0 1.108 0.892 2 2 2h8c1.108 0 2-0.892 2-2v-28c0-1.108-0.892-2-2-2h-8zm-20 0.9375h8c0.60407 0 1.0625 0.45843 1.0625 1.0625v28c0 0.6041-0.45843 1.0625-1.0625 1.0625h-8c-0.60407 0-1.0625-0.4584-1.0625-1.0625v-28c0-0.60407 0.45843-1.0625 1.0625-1.0625zm20 0h8c0.60407 0 1.0625 0.45843 1.0625 1.0625v28c0 0.6041-0.45843 1.0625-1.0625 1.0625h-8c-0.60407 0-1.0625-0.4584-1.0625-1.0625v-28c0-0.60407 0.45843-1.0625 1.0625-1.0625z" color="#000000" opacity="0.2"/>
  <path d="m33.984 987.36c-1.108 0-2 0.892-2 2v1c0-1.108 0.892-2 2-2h8c1.108 0 2 0.892 2 2v-1c0-1.108-0.892-2-2-2h-8zm20 0c-1.108 0-2 0.892-2 2v1c0-1.108 0.892-2 2-2h8c1.108 0 2 0.892 2 2v-1c0-1.108-0.892-2-2-2h-8z" color="#000000" opacity="0.6"/>
 </g>
</svg>
