<?xml version="1.0" encoding="UTF-8" standalone="no"?>
<svg
   xmlns:dc="http://purl.org/dc/elements/1.1/"
   xmlns:cc="http://creativecommons.org/ns#"
   xmlns:rdf="http://www.w3.org/1999/02/22-rdf-syntax-ns#"
   xmlns:svg="http://www.w3.org/2000/svg"
   xmlns="http://www.w3.org/2000/svg"
   xmlns:xlink="http://www.w3.org/1999/xlink"
   xmlns:sodipodi="http://sodipodi.sourceforge.net/DTD/sodipodi-0.dtd"
   xmlns:inkscape="http://www.inkscape.org/namespaces/inkscape"
   height="96"
   width="96"
   id="svg2"
   version="1.1"
   inkscape:version="0.91 r13725"
   sodipodi:docname="stock_media-play.svg">
  <metadata
     id="metadata56">
    <rdf:RDF>
      <cc:Work
         rdf:about="">
        <dc:format>image/svg+xml</dc:format>
        <dc:type
           rdf:resource="http://purl.org/dc/dcmitype/StillImage" />
        <dc:title />
      </cc:Work>
    </rdf:RDF>
  </metadata>
  <sodipodi:namedview
     pagecolor="#ffffff"
     bordercolor="#666666"
     borderopacity="1"
     objecttolerance="10"
     gridtolerance="10"
     guidetolerance="10"
     inkscape:pageopacity="0"
     inkscape:pageshadow="2"
     inkscape:window-width="1366"
     inkscape:window-height="719"
     id="namedview54"
     showgrid="false"
     inkscape:zoom="2.4583333"
     inkscape:cx="-103.9322"
     inkscape:cy="47.999996"
     inkscape:window-x="0"
     inkscape:window-y="24"
     inkscape:window-maximized="1"
     inkscape:current-layer="svg2" />
  <defs
     id="defs4">
    <clipPath
       id="clipPath3613-55">
      <use
         xlink:href="#SVGCleanerId_0"
         id="use7" />
    </clipPath>
    <filter
       x="-0.192"
       y="-0.192"
       height="1.384"
       color-interpolation-filters="sRGB"
       id="filter3794-41"
       width="1.384">
      <feGaussianBlur
         stdDeviation="5.28"
         id="feGaussianBlur10" />
    </filter>
    <linearGradient
       x2="0"
       y1="90"
       y2="5.988"
       gradientUnits="userSpaceOnUse"
       id="linearGradient3182"
       gradientTransform="matrix(1.125,0,0,1.0417,-7.75,-3.25)">
      <stop
         stop-color="#8c8c8c"
         id="stop13" />
      <stop
         stop-color="#dcdcdc"
         offset="1"
         id="stop15" />
    </linearGradient>
    <linearGradient
       x2="0"
       y1="20.221"
       y2="138.66"
       gradientUnits="userSpaceOnUse"
       id="linearGradient90466">
      <stop
         stop-color="#fff"
         id="stop18" />
      <stop
         stop-color="#fff"
         stop-opacity="0"
         offset="1"
         id="stop20" />
    </linearGradient>
    <linearGradient
       x1="24.508"
       x2="55.49"
       gradientUnits="userSpaceOnUse"
       id="linearGradient24854"
       gradientTransform="matrix(0,1.1034,-0.976,0,83.55,2.06)">
      <stop
         stop-color="#1e1e1e"
         id="stop23" />
      <stop
         stop-color="#505050"
         offset="1"
         id="stop25" />
    </linearGradient>
    <rect
       x="6"
       rx="6"
       y="6"
       height="84"
       id="SVGCleanerId_0"
       width="84" />
  </defs>
  <g
     id="g3456"
     transform="matrix(1.1,0,0,1.1,-4.7999997,-4.8000004)">
    <g
       transform="matrix(1.2612197,0,0,1.2612197,-13.622899,-10.896013)"
       id="g3351">
      <path
         inkscape:connector-curvature="0"
         style="color:black;fill:url(#linearGradient24854)"
         id="path44"
         d="M 63.909,46.14 A 1.9417,2.1953 0 0 0 62.933,44.3467 L 36.764,27.2427 a 1.9417,2.1953 0 0 0 -2.928,1.8966 l 0,34.207 a 1.9417,2.1953 0 0 0 2.928,1.8966 l 26.169,-17.103 a 1.9417,2.1953 0 0 0 0.976,-2 z" />
      <path
         style="color:black;opacity:0.6;fill:white"
         inkscape:connector-curvature="0"
         id="path46"
         d="m 63.836,46.74 a 1.9417,2.1953 0 0 1 -0.90625,1.375 l -26.156,17.094 a 1.9417,2.1953 0 0 1 -2.9375,-1.6875 l 0,0.7813 a 1.9417,2.1953 0 0 0 2.9375,1.9062 l 26.156,-17.094 a 1.9417,2.1953 0 0 0 0.96875,-2 1.9417,2.1953 0 0 0 -0.0625,-0.375 z" />
      <path
         style="color:black;opacity:0.1"
         inkscape:connector-curvature="0"
         id="path48"
         d="m 35.648,26.88 a 1.9417,2.1953 0 0 0 -1.8125,2.2188 l 0,34.188 A 1.9417,2.1953 0 0 0 36.773,65.193 L 62.929,48.099 a 1.9417,2.1953 0 0 0 0.96875,-2 A 1.9417,2.1953 0 0 0 62.929,44.2863 L 36.773,27.1923 a 1.9417,2.1953 0 0 0 -1.125,-0.3125 z m 0.15625,2.2812 26.062,17.032 -26.062,17.031 0,-34.063 z" />
      <path
         style="color:black;opacity:0.2"
         inkscape:connector-curvature="0"
         id="path50"
         d="m 35.648,26.88 c -1.4233,0.10866 -1.9722,1.6701 -1.8125,2.904 0.005,11.24 -0.0104,22.482 0.008,33.722 -0.0136,1.5089 1.8885,2.6412 3.0936,1.5799 8.7164,-5.7048 17.449,-11.386 26.155,-17.106 1.3114,-1.046 0.93921,-3.3044 -0.57277,-3.9614 -8.6403,-5.6416 -17.271,-11.298 -25.917,-16.93 -0.29021,-0.15691 -0.62461,-0.23239 -0.9541,-0.20848 z m -0.0625,1.25 c 0.82279,-0.0411 1.3915,0.75648 2.0998,1.0894 8.2852,5.4333 16.606,10.829 24.869,16.286 0.51121,0.5559 0.21609,1.4644 -0.48398,1.7144 -8.6728,5.6659 -17.339,11.35 -26.016,17.004 -0.72803,0.2353 -1.2911,-0.5491 -1.125,-1.2312 0.009,-11.374 -0.0187,-22.763 0.014,-34.129 0.0264,-0.33414 0.36672,-0.64439 0.64222,-0.73396 z" />
      <path
         style="color:black;opacity:0.6"
         inkscape:connector-curvature="0"
         id="path52"
         d="m 35.648,26.88 a 1.9417,2.1953 0 0 0 -1.8125,2.2188 l 0,0.75 a 1.9417,2.1953 0 0 1 2.9375,-1.6562 l 26.156,17.094 a 1.9417,2.1953 0 0 1 0.90625,1.3751 1.9417,2.1953 0 0 0 0.0625,-0.5625 A 1.9417,2.1953 0 0 0 62.929,44.2865 L 36.773,27.1925 A 1.9417,2.1953 0 0 0 35.648,26.88 Z" />
    </g>
  </g>
</svg>
