<?xml version="1.0" encoding="UTF-8" standalone="no"?>
<svg
   xmlns:dc="http://purl.org/dc/elements/1.1/"
   xmlns:cc="http://creativecommons.org/ns#"
   xmlns:rdf="http://www.w3.org/1999/02/22-rdf-syntax-ns#"
   xmlns:svg="http://www.w3.org/2000/svg"
   xmlns="http://www.w3.org/2000/svg"
   xmlns:xlink="http://www.w3.org/1999/xlink"
   xmlns:sodipodi="http://sodipodi.sourceforge.net/DTD/sodipodi-0.dtd"
   xmlns:inkscape="http://www.inkscape.org/namespaces/inkscape"
   display="inline"
   height="96"
   width="96"
   id="svg2"
   version="1.1"
   inkscape:version="0.91 r13725"
   sodipodi:docname="media-optical-copy.svg">
  <metadata
     id="metadata69">
    <rdf:RDF>
      <cc:Work
         rdf:about="">
        <dc:format>image/svg+xml</dc:format>
        <dc:type
           rdf:resource="http://purl.org/dc/dcmitype/StillImage" />
      </cc:Work>
    </rdf:RDF>
  </metadata>
  <sodipodi:namedview
     pagecolor="#ffffff"
     bordercolor="#666666"
     borderopacity="1"
     objecttolerance="10"
     gridtolerance="10"
     guidetolerance="10"
     inkscape:pageopacity="0"
     inkscape:pageshadow="2"
     inkscape:window-width="760"
     inkscape:window-height="480"
     id="namedview67"
     showgrid="false"
     inkscape:zoom="6.9532167"
     inkscape:cx="63.536062"
     inkscape:cy="18.817279"
     inkscape:window-x="36"
     inkscape:window-y="60"
     inkscape:window-maximized="0"
     inkscape:current-layer="svg2" />
  <defs
     id="defs4">
    <linearGradient
       id="linearGradient4081">
      <stop
         stop-color="#4d4d4d"
         stop-opacity="1"
         id="stop7" />
      <stop
         stop-color="#1a1a1a"
         stop-opacity="1"
         offset="1"
         id="stop9" />
    </linearGradient>
    <linearGradient
       x2="0"
       xlink:href="#linearGradient4081"
       y1="72"
       y2="24"
       gradientUnits="userSpaceOnUse"
       id="linearGradient3856"
       gradientTransform="matrix(1 0 0 1 104 0)" />
    <linearGradient
       x1="27"
       x2="69"
       xlink:href="#linearGradient4081"
       gradientUnits="userSpaceOnUse"
       id="linearGradient3940"
       gradientTransform="matrix(0,-1.509434,1.509434,0,-19.92453,124.22642)" />
    <linearGradient
       x2="0"
       y1="92.54"
       y2="7.02"
       gradientUnits="userSpaceOnUse"
       id="ButtonShadow-0"
       gradientTransform="matrix(1.0059 0 0 0.99417 100 0)">
      <stop
         stop-color="#000000"
         stop-opacity="1"
         id="stop14" />
      <stop
         stop-color="#000000"
         stop-opacity="0.588"
         offset="1"
         id="stop16" />
    </linearGradient>
    <linearGradient
       x2="0"
       xlink:href="#ButtonShadow-0"
       y1="6.132"
       y2="90.24"
       gradientUnits="userSpaceOnUse"
       id="linearGradient3780"
       gradientTransform="matrix(1.02381 0 0 -1.0119 -1.143 98.07)" />
    <linearGradient
       x2="0"
       xlink:href="#ButtonShadow-0"
       y1="6.132"
       y2="90.24"
       gradientUnits="userSpaceOnUse"
       id="linearGradient3721-8"
       gradientTransform="matrix(1 0 0 -1 0 97)" />
    <radialGradient
       cy="90.17"
       r="42"
       gradientUnits="userSpaceOnUse"
       id="radialGradient3619-1"
       cx="48"
       gradientTransform="matrix(1.15731 0 0 0.99591 -7.551 0.197)">
      <stop
         stop-color="#ffffff"
         stop-opacity="1"
         id="stop21" />
      <stop
         stop-color="#ffffff"
         stop-opacity="0"
         offset="1"
         id="stop23" />
    </radialGradient>
  </defs>
  <path
     style="color:#000000;visibility:visible;fill:url(#linearGradient3940);fill-opacity:1;fill-rule:nonzero;stroke:none;stroke-width:1"
     d="m 20.830188,51.773585 c 0,17.506385 14.191729,31.698114 31.698114,31.698114 17.506385,0 31.698114,-14.191729 31.698114,-31.698114 0,-17.506385 -14.191729,-31.698114 -31.698114,-31.698114 -17.506385,0 -31.698114,14.191729 -31.698114,31.698114 z m 18.113208,0 c 0,-7.502737 6.082169,-13.584906 13.584906,-13.584906 7.502737,0 13.584906,6.082169 13.584906,13.584906 0,7.502737 -6.082169,13.584906 -13.584906,13.584906 -7.502737,0 -13.584906,-6.082169 -13.584906,-13.584906 z m 3.018868,0 c 0,5.835461 4.730577,10.566038 10.566038,10.566038 5.835461,0 10.566038,-4.730577 10.566038,-10.566038 0,-5.835461 -4.730577,-10.566038 -10.566038,-10.566038 -5.835461,0 -10.566038,4.730577 -10.566038,10.566038 z m 3.018868,0 c 0,-4.168186 3.378984,-7.54717 7.54717,-7.54717 4.168186,0 7.54717,3.378984 7.54717,7.54717 0,4.168186 -3.378984,7.54717 -7.54717,7.54717 -4.168186,0 -7.54717,-3.378984 -7.54717,-7.54717 z"
     visibility="visible"
     inkscape:connector-curvature="0"
     id="path59" />
  <path
     style="color:#000000;visibility:visible;opacity:0.2;fill:#ffffff;fill-opacity:1;fill-rule:nonzero;stroke:none;stroke-width:1"
     d="m 40.45283,7.999999 c -17.506385,0 -31.698114,14.191729 -31.698114,31.698114 0,9.704895 4.403907,18.383614 11.273585,24.198114 -1.40987,-3.777946 -2.216981,-7.853149 -2.216981,-12.122642 0,-19.173659 15.543323,-34.716982 34.716982,-34.716982 4.269493,0 8.344696,0.807111 12.122642,2.216981 C 58.836444,12.403906 50.157725,7.999999 40.45283,7.999999 Z"
     visibility="visible"
     inkscape:connector-curvature="0"
     id="path61" />
  <path
     style="color:#000000;visibility:visible;opacity:0.75;fill:#ffffff;fill-opacity:1;fill-rule:nonzero;stroke:none;stroke-width:1"
     d="m 52.528302,20.075471 c -17.506385,0 -31.698114,14.191729 -31.698114,31.698114 0,0.249887 -0.0057,0.506213 0,0.754717 0.397179,-17.161037 14.441615,-30.943397 31.698114,-30.943397 17.256499,0 31.300935,13.78236 31.698114,30.943397 0.0058,-0.248504 0,-0.50483 0,-0.754717 0,-17.506385 -14.191729,-31.698114 -31.698114,-31.698114 z m 0,21.132076 c -5.835461,0 -10.566038,4.730577 -10.566038,10.566038 0,0.253925 0.02956,0.505275 0.04717,0.754717 0.387213,-5.482998 4.937331,-9.811321 10.518868,-9.811321 5.581537,0 10.131655,4.328323 10.518868,9.811321 0.01761,-0.249442 0.04717,-0.500792 0.04717,-0.754717 0,-5.835461 -4.730577,-10.566038 -10.566038,-10.566038 z M 38.990566,52.528302 c -0.0143,0.255389 -0.04717,0.495752 -0.04717,0.754717 0,7.502737 6.082169,13.584906 13.584906,13.584906 7.502737,0 13.584906,-6.082169 13.584906,-13.584906 0,-0.258965 -0.03288,-0.499328 -0.04717,-0.754717 -0.40001,7.14373 -6.293964,12.830189 -13.537736,12.830189 -7.243772,0 -13.137726,-5.686459 -13.537736,-12.830189 z m 6.037736,0 c -0.02577,0.253713 -0.04717,0.494205 -0.04717,0.754717 0,4.168186 3.378984,7.54717 7.54717,7.54717 4.168186,0 7.54717,-3.378984 7.54717,-7.54717 0,-0.260512 -0.0214,-0.501004 -0.04717,-0.754717 -0.38649,3.805706 -3.592326,6.792453 -7.5,6.792453 -3.907674,0 -7.11351,-2.986747 -7.5,-6.792453 z"
     visibility="visible"
     inkscape:connector-curvature="0"
     id="path63" />
  <path
     style="color:#000000;visibility:visible;opacity:0.15;fill:#000000;fill-opacity:1;fill-rule:nonzero;stroke:none;stroke-width:1"
     d="m 52.528302,36.679245 c -7.502737,0 -13.584906,6.082169 -13.584906,13.584906 0,0.258965 0.03287,0.499328 0.04717,0.754717 0.40001,-7.14373 6.293964,-12.830189 13.537736,-12.830189 7.243772,0 13.137726,5.686459 13.537736,12.830189 0.0143,-0.255389 0.04717,-0.495752 0.04717,-0.754717 0,-7.502737 -6.082169,-13.584906 -13.584906,-13.584906 z m 0,6.037736 c -4.168186,0 -7.54717,3.378984 -7.54717,7.54717 0,0.260512 0.0214,0.501004 0.04717,0.754717 0.38649,-3.805706 3.592326,-6.792453 7.5,-6.792453 3.907674,0 7.11351,2.986747 7.5,6.792453 0.02577,-0.253713 0.04717,-0.494205 0.04717,-0.754717 0,-4.168186 -3.378984,-7.54717 -7.54717,-7.54717 z m -31.698114,8.301887 c -0.0057,0.248504 0,0.50483 0,0.754717 0,17.506385 14.191729,31.698114 31.698114,31.698114 17.506385,0 31.698114,-14.191729 31.698114,-31.698114 0,-0.249887 0.0057,-0.506213 0,-0.754717 -0.397179,17.161037 -14.441615,30.943397 -31.698114,30.943397 -17.256499,0 -31.300935,-13.78236 -31.698114,-30.943397 z m 21.179246,0 c -0.01761,0.249442 -0.04717,0.500792 -0.04717,0.754717 0,5.835461 4.730577,10.566038 10.566038,10.566038 5.835461,0 10.566038,-4.730577 10.566038,-10.566038 0,-0.253925 -0.02956,-0.505275 -0.04717,-0.754717 -0.387213,5.482998 -4.937331,9.811321 -10.518868,9.811321 -5.581537,0 -10.131655,-4.328323 -10.518868,-9.811321 z"
     visibility="visible"
     inkscape:connector-curvature="0"
     id="path65" />
</svg>
