<?xml version="1.0" encoding="UTF-8" standalone="no"?>
<svg
   xmlns:dc="http://purl.org/dc/elements/1.1/"
   xmlns:cc="http://creativecommons.org/ns#"
   xmlns:rdf="http://www.w3.org/1999/02/22-rdf-syntax-ns#"
   xmlns:svg="http://www.w3.org/2000/svg"
   xmlns="http://www.w3.org/2000/svg"
   xmlns:xlink="http://www.w3.org/1999/xlink"
   xmlns:sodipodi="http://sodipodi.sourceforge.net/DTD/sodipodi-0.dtd"
   xmlns:inkscape="http://www.inkscape.org/namespaces/inkscape"
   display="inline"
   height="96"
   width="96"
   id="svg2"
   version="1.1"
   inkscape:version="0.91 r13725"
   sodipodi:docname="media-optical-burn.svg">
  <metadata
     id="metadata55">
    <rdf:RDF>
      <cc:Work
         rdf:about="">
        <dc:format>image/svg+xml</dc:format>
        <dc:type
           rdf:resource="http://purl.org/dc/dcmitype/StillImage" />
      </cc:Work>
    </rdf:RDF>
  </metadata>
  <sodipodi:namedview
     pagecolor="#ffffff"
     bordercolor="#666666"
     borderopacity="1"
     objecttolerance="10"
     gridtolerance="10"
     guidetolerance="10"
     inkscape:pageopacity="0"
     inkscape:pageshadow="2"
     inkscape:window-width="640"
     inkscape:window-height="480"
     id="namedview53"
     showgrid="false"
     inkscape:zoom="19.666667"
     inkscape:cx="52.283645"
     inkscape:cy="20.448331"
     inkscape:window-x="80"
     inkscape:window-y="104"
     inkscape:window-maximized="0"
     inkscape:current-layer="svg2" />
  <defs
     id="defs4">
    <linearGradient
       id="linearGradient4081">
      <stop
         stop-color="#4d4d4d"
         stop-opacity="1"
         id="stop7" />
      <stop
         stop-color="#1a1a1a"
         stop-opacity="1"
         offset="1"
         id="stop9" />
    </linearGradient>
    <linearGradient
       x2="0"
       xlink:href="#linearGradient4081"
       y1="72"
       y2="24"
       gradientUnits="userSpaceOnUse"
       id="linearGradient3796"
       gradientTransform="matrix(1 0 0 1 0 -80)" />
    <linearGradient
       x2="0"
       xlink:href="#linearGradient4081"
       y1="72"
       y2="24"
       gradientUnits="userSpaceOnUse"
       id="linearGradient3856"
       gradientTransform="matrix(1.288068,0,0,1.288068,-7.381018,-15.128785)" />
    <linearGradient
       x2="0"
       y1="92.54"
       y2="7.02"
       gradientUnits="userSpaceOnUse"
       id="ButtonShadow-0"
       gradientTransform="matrix(1.0059 0 0 0.99417 100 0)">
      <stop
         stop-color="#000000"
         stop-opacity="1"
         id="stop14" />
      <stop
         stop-color="#000000"
         stop-opacity="0.588"
         offset="1"
         id="stop16" />
    </linearGradient>
    <linearGradient
       x2="0"
       xlink:href="#ButtonShadow-0"
       y1="6.132"
       y2="90.24"
       gradientUnits="userSpaceOnUse"
       id="linearGradient3780"
       gradientTransform="matrix(1.02381 0 0 -1.0119 -1.143 98.07)" />
    <linearGradient
       x2="0"
       xlink:href="#ButtonShadow-0"
       y1="6.132"
       y2="90.24"
       gradientUnits="userSpaceOnUse"
       id="linearGradient3721-4"
       gradientTransform="matrix(1 0 0 -1 0 97)" />
    <radialGradient
       cy="90.17"
       r="42"
       gradientUnits="userSpaceOnUse"
       id="radialGradient3619-5"
       cx="48"
       gradientTransform="matrix(1.15731 0 0 0.99591 -7.551 0.197)">
      <stop
         stop-color="#ffffff"
         stop-opacity="1"
         id="stop21" />
      <stop
         stop-color="#ffffff"
         stop-opacity="0"
         offset="1"
         id="stop23" />
    </radialGradient>
  </defs>
  <path
     style="fill:url(#linearGradient3856);fill-opacity:1;stroke:none"
     d="m 54.446246,15.784847 c -12.197724,0 -22.704686,7.08783 -27.733714,17.348666 L 40.277498,46.698479 26.712532,60.263445 c 5.029028,10.260836 15.53599,17.348666 27.733714,17.348666 17.073128,0 30.913632,-13.840504 30.913632,-30.913632 0,-17.073128 -13.840504,-30.913632 -30.913632,-30.913632 z m -33.489768,15.295807 0,7.889417 -10.304544,0 0,15.456816 10.304544,0 0,7.728408 L 36.413294,46.577723 20.956478,31.080654 Z m 33.489768,2.737145 c 7.113804,0 12.88068,5.766876 12.88068,12.88068 0,7.113804 -5.766876,12.88068 -12.88068,12.88068 -7.113804,0 -12.88068,-5.766876 -12.88068,-12.88068 0,-7.113804 5.766876,-12.88068 12.88068,-12.88068 z m 0,2.576136 c -5.691043,0 -10.304544,4.613501 -10.304544,10.304544 0,5.691043 4.613501,10.304544 10.304544,10.304544 5.691043,0 10.304544,-4.613501 10.304544,-10.304544 0,-5.691043 -4.613501,-10.304544 -10.304544,-10.304544 z m 0,2.576136 c 4.268281,0 7.728408,3.460127 7.728408,7.728408 0,4.268281 -3.460127,7.728408 -7.728408,7.728408 -4.268281,0 -7.728408,-3.460127 -7.728408,-7.728408 0,-4.268281 3.460127,-7.728408 7.728408,-7.728408 z"
     inkscape:connector-curvature="0"
     id="path45" />
  <path
     style="opacity:0.75;fill:#ffffff;fill-opacity:1;stroke:none"
     d="m 54.446246,15.784847 c -12.197724,0 -22.704686,7.08783 -27.733714,17.348666 l 0.442773,0.442773 c 5.182644,-9.800606 15.4327,-16.503371 27.290941,-16.503371 16.859847,0 30.573789,13.491142 30.913632,30.269598 0.0043,-0.212252 0,-0.430753 0,-0.644034 0,-17.073128 -13.840504,-30.913632 -30.913632,-30.913632 z m -33.489768,15.295807 0,1.288068 14.812782,14.853035 0.644034,-0.644034 -15.456816,-15.497069 z m 33.489768,5.313281 c -5.691043,0 -10.304544,4.613501 -10.304544,10.304544 0,0.219089 0.02678,0.428342 0.04025,0.644034 0.336499,-5.387145 4.792338,-9.66051 10.264292,-9.66051 5.471954,0 9.927793,4.273365 10.264292,9.66051 0.01347,-0.215692 0.04025,-0.424945 0.04025,-0.644034 0,-5.691043 -4.613501,-10.304544 -10.304544,-10.304544 z m -43.794312,2.576136 0,1.288068 10.304544,0 0,-1.288068 -10.304544,0 z m 28.98153,8.372442 -12.920932,12.920932 c 0.139966,0.285576 0.294402,0.564719 0.442773,0.845295 L 40.277498,47.986547 39.633464,47.342513 Z m 1.972354,0 c -0.01047,0.212998 -0.04025,0.42844 -0.04025,0.644034 0,7.113804 5.766876,12.88068 12.88068,12.88068 7.113804,0 12.88068,-5.766876 12.88068,-12.88068 0,-0.215594 -0.02978,-0.431036 -0.04025,-0.644034 -0.335018,6.815106 -5.942218,12.236646 -12.840428,12.236646 -6.89821,0 -12.50541,-5.42154 -12.840428,-12.236646 z m 5.152272,0.161008 c -0.0096,0.157906 -0.04025,0.322699 -0.04025,0.483026 0,4.268281 3.460127,7.728408 7.728408,7.728408 4.268281,0 7.728408,-3.460127 7.728408,-7.728408 0,-0.160327 -0.03063,-0.32512 -0.04025,-0.483026 -0.395772,3.897097 -3.686643,6.923366 -7.688156,6.923366 -4.001513,0 -7.292384,-3.026269 -7.688156,-6.923366 z"
     inkscape:connector-curvature="0"
     id="path49" />
  <path
     style="opacity:0.15;fill:#000000;fill-opacity:1;stroke:none"
     d="m 27.155305,32.288218 c -0.148371,0.280576 -0.302807,0.559719 -0.442773,0.845295 L 39.633464,46.054445 40.277498,45.410411 27.155305,32.288218 Z m 27.290941,0.241513 c -7.113804,0 -12.88068,5.766876 -12.88068,12.88068 0,0.215594 0.02978,0.431036 0.04025,0.644034 0.335018,-6.815106 5.942218,-12.236646 12.840428,-12.236646 6.89821,0 12.50541,5.42154 12.840428,12.236646 0.01047,-0.212998 0.04025,-0.42844 0.04025,-0.644034 0,-7.113804 -5.766876,-12.88068 -12.88068,-12.88068 z m 0,5.152272 c -4.268281,0 -7.728408,3.460127 -7.728408,7.728408 0,0.160327 0.03063,0.32512 0.04025,0.483025 0.395772,-3.897096 3.686643,-6.923365 7.688156,-6.923365 4.001513,0 7.292384,3.026269 7.688156,6.923365 0.0096,-0.157905 0.04025,-0.322698 0.04025,-0.483025 0,-4.268281 -3.460127,-7.728408 -7.728408,-7.728408 z m -18.676986,8.251686 -14.812782,14.933538 0,1.288068 15.456816,-15.577572 -0.644034,-0.644034 z m 8.412694,0.120756 c -0.01347,0.215692 -0.04025,0.424945 -0.04025,0.644034 0,5.691043 4.613501,10.304544 10.304544,10.304544 5.691043,0 10.304544,-4.613501 10.304544,-10.304544 0,-0.219089 -0.02678,-0.428342 -0.04025,-0.644034 -0.336499,5.387145 -4.792338,9.66051 -10.264292,9.66051 -5.471954,0 -9.927793,-4.273365 -10.264292,-9.66051 z m 41.177924,0 c -0.339843,16.778456 -14.053785,30.269598 -30.913632,30.269598 -11.858241,0 -22.108297,-6.702765 -27.290941,-16.503371 l -0.442773,0.442773 c 5.029028,10.260836 15.53599,17.348666 27.733714,17.348666 17.073128,0 30.913632,-13.840504 30.913632,-30.913632 0,-0.213281 0.0043,-0.431782 0,-0.644034 z m -74.707944,7.084374 0,1.288068 10.304544,0 0,-1.288068 -10.304544,0 z"
     inkscape:connector-curvature="0"
     id="path51" />
</svg>
