<?xml version="1.0" encoding="UTF-8" standalone="no"?>
<svg
   xmlns:dc="http://purl.org/dc/elements/1.1/"
   xmlns:cc="http://creativecommons.org/ns#"
   xmlns:rdf="http://www.w3.org/1999/02/22-rdf-syntax-ns#"
   xmlns:svg="http://www.w3.org/2000/svg"
   xmlns="http://www.w3.org/2000/svg"
   xmlns:xlink="http://www.w3.org/1999/xlink"
   xmlns:sodipodi="http://sodipodi.sourceforge.net/DTD/sodipodi-0.dtd"
   xmlns:inkscape="http://www.inkscape.org/namespaces/inkscape"
   height="96"
   width="96"
   id="svg2"
   version="1.1"
   inkscape:version="0.91 r13725"
   sodipodi:docname="media-playback-stop.svg">
  <metadata
     id="metadata58">
    <rdf:RDF>
      <cc:Work
         rdf:about="">
        <dc:format>image/svg+xml</dc:format>
        <dc:type
           rdf:resource="http://purl.org/dc/dcmitype/StillImage" />
      </cc:Work>
    </rdf:RDF>
  </metadata>
  <sodipodi:namedview
     pagecolor="#ffffff"
     bordercolor="#666666"
     borderopacity="1"
     objecttolerance="10"
     gridtolerance="10"
     guidetolerance="10"
     inkscape:pageopacity="0"
     inkscape:pageshadow="2"
     inkscape:window-width="1366"
     inkscape:window-height="716"
     id="namedview56"
     showgrid="false"
     inkscape:zoom="2.4583333"
     inkscape:cx="-101.49152"
     inkscape:cy="47.999996"
     inkscape:window-x="0"
     inkscape:window-y="26"
     inkscape:window-maximized="1"
     inkscape:current-layer="svg2" />
  <defs
     id="defs4">
    <clipPath
       id="clipPath3613-55">
      <use
         xlink:href="#SVGCleanerId_0"
         id="use7" />
    </clipPath>
    <filter
       x="-0.192"
       y="-0.192"
       height="1.384"
       color-interpolation-filters="sRGB"
       id="filter3794-41"
       width="1.384">
      <feGaussianBlur
         stdDeviation="5.28"
         id="feGaussianBlur10" />
    </filter>
    <linearGradient
       x2="0"
       y1="90"
       y2="5.988"
       gradientUnits="userSpaceOnUse"
       id="linearGradient3182"
       gradientTransform="matrix(1.125,0,0,1.0417,-7.75,-3.25)">
      <stop
         stop-color="#8c8c8c"
         id="stop13" />
      <stop
         stop-color="#dcdcdc"
         offset="1"
         id="stop15" />
    </linearGradient>
    <linearGradient
       x2="0"
       y1="20.221"
       y2="138.66"
       gradientUnits="userSpaceOnUse"
       id="linearGradient90466">
      <stop
         stop-color="#fff"
         id="stop18" />
      <stop
         stop-color="#fff"
         stop-opacity="0"
         offset="1"
         id="stop20" />
    </linearGradient>
    <linearGradient
       x2="0"
       y1="36"
       y2="68"
       gradientUnits="userSpaceOnUse"
       id="linearGradient7001"
       gradientTransform="translate(83.11,911.17)">
      <stop
         stop-color="#1e1e1e"
         id="stop23" />
      <stop
         stop-color="#505050"
         offset="1"
         id="stop25" />
    </linearGradient>
    <rect
       x="6"
       rx="6"
       y="6"
       height="84"
       id="SVGCleanerId_0"
       width="84" />
  </defs>
  <g
     id="g3581"
     transform="matrix(1.1,0,0,1.1,-4.7999996,-4.7999999)">
    <g
       transform="matrix(1.5151515,0,0,1.5151515,-24.863636,-24.136363)"
       id="g3352">
      <g
         id="g44"
         transform="translate(-79.02,-916.06)">
        <path
           inkscape:connector-curvature="0"
           style="color:black;fill:url(#linearGradient7001)"
           id="path46"
           d="m 113.11,947.17 c -1.108,0 -2,0.892 -2,2 l 0,28 c 0,1.108 0.892,2 2,2 l 28,0 c 1.108,0 2,-0.892 2,-2 l 0,-28 c 0,-1.108 -0.892,-2 -2,-2 l -28,0 z" />
        <path
           style="color:black;opacity:0.6;fill:white"
           inkscape:connector-curvature="0"
           id="path48"
           d="m 111.11,977.17 0,1 c 0,1.108 0.892,2 2,2 l 28,0 c 1.108,0 2,-0.892 2,-2 l 0,-1 c 0,1.108 -0.892,2 -2,2 l -28,0 c -1.108,0 -2,-0.892 -2,-2 z" />
        <path
           style="color:black;opacity:0.1"
           inkscape:connector-curvature="0"
           id="path50"
           d="m 113.11,947.17 c -1.108,0 -2,0.892 -2,2 l 0,28 c 0,1.108 0.892,2 2,2 l 28,0 c 1.108,0 2,-0.892 2,-2 l 0,-28 c 0,-1.108 -0.892,-2 -2,-2 l -28,0 z m -0.0625,1.9375 c 0.007,-0.007 0.0295,0 0.0625,0 l 28,0 c 0.066,0 0.0625,-0.004 0.0625,0.0625 l 0,28 c 0,0.0659 0.004,0.0625 -0.0625,0.0625 l -28,0 c -0.0659,0 -0.0625,0.003 -0.0625,-0.0625 l 0,-28 c 0,-0.033 -0.007,-0.0551 0,-0.0625 z" />
        <path
           style="color:black;opacity:0.2"
           inkscape:connector-curvature="0"
           id="path52"
           d="m 113.11,947.17 c -1.108,0 -2,0.892 -2,2 l 0,28 c 0,1.108 0.892,2 2,2 l 28,0 c 1.108,0 2,-0.892 2,-2 l 0,-28 c 0,-1.108 -0.892,-2 -2,-2 l -28,0 z m 0,1.1562 28,0 c 0.49503,0 0.84375,0.34872 0.84375,0.84375 l 0,28 c 0,0.49503 -0.34872,0.84375 -0.84375,0.84375 l -28,0 c -0.49503,0 -0.84375,-0.34872 -0.84375,-0.84375 l 0,-28 c 0,-0.49503 0.34872,-0.84375 0.84375,-0.84375 z" />
        <path
           style="color:black;opacity:0.6"
           inkscape:connector-curvature="0"
           id="path54"
           d="m 113.11,947.17 c -1.108,0 -2,0.892 -2,2 l 0,1 c 0,-1.108 0.892,-2 2,-2 l 28,0 c 1.108,0 2,0.892 2,2 l 0,-1 c 0,-1.108 -0.892,-2 -2,-2 z" />
      </g>
    </g>
  </g>
</svg>
