<?xml version="1.0" encoding="UTF-8" standalone="no"?>
<svg
   xmlns:dc="http://purl.org/dc/elements/1.1/"
   xmlns:cc="http://creativecommons.org/ns#"
   xmlns:rdf="http://www.w3.org/1999/02/22-rdf-syntax-ns#"
   xmlns:svg="http://www.w3.org/2000/svg"
   xmlns="http://www.w3.org/2000/svg"
   xmlns:xlink="http://www.w3.org/1999/xlink"
   xmlns:sodipodi="http://sodipodi.sourceforge.net/DTD/sodipodi-0.dtd"
   xmlns:inkscape="http://www.inkscape.org/namespaces/inkscape"
   height="96"
   width="96"
   id="svg2"
   version="1.1"
   inkscape:version="0.91 r13725"
   sodipodi:docname="object-rotate-left.svg">
  <metadata
     id="metadata68">
    <rdf:RDF>
      <cc:Work
         rdf:about="">
        <dc:format>image/svg+xml</dc:format>
        <dc:type
           rdf:resource="http://purl.org/dc/dcmitype/StillImage" />
      </cc:Work>
    </rdf:RDF>
  </metadata>
  <sodipodi:namedview
     pagecolor="#ffffff"
     bordercolor="#666666"
     borderopacity="1"
     objecttolerance="10"
     gridtolerance="10"
     guidetolerance="10"
     inkscape:pageopacity="0"
     inkscape:pageshadow="2"
     inkscape:window-width="640"
     inkscape:window-height="480"
     id="namedview66"
     showgrid="false"
     inkscape:zoom="2.4583333"
     inkscape:cx="22.98305"
     inkscape:cy="47.999999"
     inkscape:window-x="75"
     inkscape:window-y="99"
     inkscape:window-maximized="0"
     inkscape:current-layer="svg2" />
  <defs
     id="defs4">
    <linearGradient
       x2="0"
       y1="92.54"
       y2="7.02"
       gradientUnits="userSpaceOnUse"
       id="ButtonShadow-0"
       gradientTransform="matrix(1.0059 0 0 0.99417 100 0)">
      <stop
         stop-color="#000000"
         stop-opacity="1"
         id="stop7" />
      <stop
         stop-color="#000000"
         stop-opacity="0.588"
         offset="1"
         id="stop9" />
    </linearGradient>
    <linearGradient
       x2="0"
       xlink:href="#ButtonShadow-0"
       y1="6.132"
       y2="90.24"
       gradientUnits="userSpaceOnUse"
       id="linearGradient3780"
       gradientTransform="matrix(1.02381 0 0 -1.0119 -1.143 98.07)" />
    <linearGradient
       x2="0"
       xlink:href="#ButtonShadow-0"
       y1="6.132"
       y2="90.24"
       gradientUnits="userSpaceOnUse"
       id="linearGradient3721"
       gradientTransform="matrix(1 0 0 -1 0 97)" />
    <radialGradient
       cy="90.17"
       r="42"
       gradientUnits="userSpaceOnUse"
       id="radialGradient3619-3"
       cx="48"
       gradientTransform="matrix(1.15731 0 0 0.99591 -7.551 0.197)">
      <stop
         stop-color="#ffffff"
         stop-opacity="1"
         id="stop14" />
      <stop
         stop-color="#ffffff"
         stop-opacity="0"
         offset="1"
         id="stop16" />
    </radialGradient>
    <linearGradient
       x1="11"
       x2="10.917"
       y1="2"
       y2="19.38"
       gradientUnits="userSpaceOnUse"
       id="linearGradient3026"
       gradientTransform="matrix(3,0,0,3,15.01,12)">
      <stop
         stop-color="#1a1a1a"
         stop-opacity="1"
         id="stop19" />
      <stop
         stop-color="#4d4d4d"
         stop-opacity="1"
         offset="1"
         id="stop21" />
    </linearGradient>
    <rect
       x="6"
       rx="6"
       y="6"
       fill="#000000"
       fill-opacity="1"
       stroke="none"
       fill-rule="nonzero"
       height="84"
       id="SVGCleanerId_0"
       opacity="0.6"
       width="84" />
  </defs>
  <g
     id="g3369"
     transform="matrix(1.385201,0,0,1.385201,-20.744055,-15.72005)">
    <path
       d="m 50.875,17.125 c -1.523255,0.386246 -2.659981,1.671174 -4.017027,2.437875 -4.083206,2.807694 -8.204865,5.570086 -12.264223,8.405875 -1.025667,0.948937 -0.524437,2.682998 0.710711,3.192095 4.87607,3.45871 9.765001,6.902175 14.633039,10.370405 -4.842215,-1.733144 -10.233365,2.864337 -9.771024,7.871768 0.08789,4.779023 5.201442,8.543964 9.791447,7.193354 4.825735,-1.075845 7.49303,-7.190993 4.877372,-11.43368 C 54.628477,43.633471 51.221919,42.234391 51.59375,41.75 c 1.553881,-0.467727 1.248344,-2.294074 1.25,-3.558406 0.05891,-1.192848 -0.478896,-3.341059 1.400055,-1.801937 5.327524,2.350423 8.941699,8.239423 8.05781,14.083074 -0.542873,6.983 -6.864896,12.857517 -13.8676,12.896091 -4.971264,0.246361 -9.614284,-2.51632 -12.459306,-6.477122 -0.549407,-1.248 -2.117354,-2.149118 -3.328533,-1.208121 -2.214601,1.370789 -4.595302,2.54607 -6.708676,4.035171 -1.14043,1.097052 -0.143932,2.726674 0.628257,3.720486 3.787181,6.18663 10.445881,10.491549 17.690181,11.187639 8.789314,1.253865 18.091994,-2.261988 23.683656,-9.191321 6.804346,-8.02789 7.865585,-20.334665 2.406711,-29.361712 C 66.644211,29.695709 60.091546,25.075291 52.84375,23.71875 52.75489,21.923965 53.018829,20.07504 52.71875,18.3125 52.450881,17.555231 51.654126,17.098473 50.875,17.125 Z"
       inkscape:connector-curvature="0"
       id="path42"
       style="opacity:0.15;fill:black;fill-opacity:1;stroke:none" />
    <path
       d="m 50.875,18 a 1.0094804,1.0094804 0 0 0 -0.4375,0.15625 L 35.34375,28.46875 A 1.0094804,1.0094804 0 0 0 35.3125,30.125 L 50.40625,40.8125 A 1.0094804,1.0094804 0 0 0 52,40 l 0,-5.5 c 5.981612,1.62628 10.576602,6.583135 11.21875,12.90625 0.04145,0.408083 0,0.965819 0,1.59375 0,8.429025 -6.762694,15.201688 -15.1875,15.21875 -0.01114,-2.25e-4 -0.02013,2.43e-4 -0.03125,0 -6.0703,-0.132758 -9.911013,-3.004051 -13.34375,-7.65625 a 1.0094804,1.0094804 0 0 0 -1.3125,-0.28125 l -6.5625,3.84375 a 1.0094804,1.0094804 0 0 0 -0.375,1.375 C 30.977453,69.529099 37.886769,74 48,74 61.800343,74 73,62.800343 73,49 73,36.572131 63.892997,26.305361 52,24.375 L 52,19 A 1.0094804,1.0094804 0 0 0 50.875,18 Z M 48,42 c -3.859217,0 -7,3.140783 -7,7 0,3.859217 3.140783,7 7,7 3.859217,0 7,-3.140783 7,-7 0,-3.859217 -3.140783,-7 -7,-7 z"
       id="path44"
       inkscape:connector-curvature="0"
       style="opacity:0.15;fill:black;fill-opacity:1;stroke:none" />
    <path
       d="M 51.01275,19 35.919,29.3125 51.01275,40 l 0,-6.9375 c 7.02909,1.291326 12.486891,7.043517 13.21875,14.25 0.05553,0.546717 0,1.126134 0,1.6875 0,8.981865 -7.236885,16.21875 -16.21875,16.21875 C 41.603166,65.08933 37.397572,61.955269 33.8565,57.15625 L 27.294,61 c 4.440272,7.799124 10.893224,12 20.71875,12 13.254834,0 24,-10.745166 24,-24 0,-12.234864 -9.166671,-22.331067 -21,-23.8125 l 0,-6.1875 z m -3,24 c -3.313707,0 -6,2.686293 -6,6 0,3.313707 2.686293,6 6,6 3.313707,0 6,-2.686293 6,-6 0,-3.313707 -2.686293,-6 -6,-6 z"
       inkscape:connector-curvature="0"
       id="path46"
       style="opacity:0.3;fill:black;fill-opacity:1;stroke:none" />
    <path
       d="M 51.01275,18 35.919,28.3125 51.01275,39 l 0,-6.9375 c 7.02909,1.291326 12.486891,7.043517 13.21875,14.25 0.05553,0.546717 0,1.126134 0,1.6875 0,8.981865 -7.236885,16.21875 -16.21875,16.21875 C 41.603166,64.08933 37.397572,60.955269 33.8565,56.15625 L 27.294,60 c 4.440272,7.799124 10.893224,12 20.71875,12 13.254834,0 24,-10.745166 24,-24 0,-12.234864 -9.166671,-22.331067 -21,-23.8125 l 0,-6.1875 z m -3,24 c -3.313707,0 -6,2.686293 -6,6 0,3.313707 2.686293,6 6,6 3.313707,0 6,-2.686293 6,-6 0,-3.313707 -2.686293,-6 -6,-6 z"
       inkscape:connector-curvature="0"
       id="path60"
       style="fill:url(#linearGradient3026);fill-opacity:1;stroke:none" />
    <path
       d="M 51,18 35.90625,28.3125 36.625,28.8125 51,19 51,18 Z m 0,6.1875 0,1 C 62.463537,26.622638 71.451136,36.158091 72,47.875 71.936642,35.697496 62.792241,25.663789 51,24.1875 Z M 48,42 c -3.313707,0 -6,2.686293 -6,6 0,0.124471 0.02378,0.252409 0.03125,0.375 C 42.33851,45.349465 44.8934,43 48,43 c 3.1066,0 5.66149,2.349465 5.96875,5.375 C 53.976221,48.252409 54,48.124471 54,48 54,44.686293 51.313707,42 48,42 Z m 16.21875,5.65625 c -0.0032,0.115262 0,0.229554 0,0.34375 0,8.981865 -7.236885,16.21875 -16.21875,16.21875 -6.409584,-0.12942 -10.615178,-3.263481 -14.15625,-8.0625 L 27.28125,60 c 0.143748,0.252486 0.320737,0.473827 0.46875,0.71875 l 6.09375,-3.5625 c 3.541072,4.799019 7.746666,7.93308 14.15625,8.0625 8.981865,0 16.21875,-7.236885 16.21875,-16.21875 0,-0.44717 0.01373,-0.899324 0,-1.34375 z"
       inkscape:connector-curvature="0"
       id="path62"
       style="opacity:0.75;fill:white;fill-opacity:1;stroke:none" />
    <path
       d="m 36.625,27.8125 -0.71875,0.5 L 51,39 51,38 36.625,27.8125 Z m 14.375,3.25 0,1 c 7.02909,1.291326 12.486891,7.043517 13.21875,14.25 0.0113,0.111216 -0.0035,0.230255 0,0.34375 0.01251,-0.451347 0.04423,-0.908249 0,-1.34375 C 63.486891,38.106017 58.02909,32.353826 51,31.0625 Z M 72,47 C 72,60.254834 61.254834,71 48,71 38.492562,71 32.174,67.039343 27.75,59.71875 L 27.28125,60 C 31.721522,67.799124 38.174474,72 48,72 61.254834,72 72,61.254834 72,48 c 0,-0.339857 0.01401,-0.663582 0,-1 z M 42.03125,47.625 C 42.023779,47.747591 42,47.875529 42,48 c 0,3.313707 2.686293,6 6,6 3.313707,0 6,-2.686293 6,-6 0,-0.124471 -0.02378,-0.252409 -0.03125,-0.375 C 53.66149,50.650535 51.1066,53 48,53 44.8934,53 42.33851,50.650535 42.03125,47.625 Z"
       inkscape:connector-curvature="0"
       id="path64"
       style="opacity:0.15;fill:black;fill-opacity:1;stroke:none" />
  </g>
</svg>
