<?xml version="1.0" encoding="UTF-8" standalone="no"?>
<svg
   xmlns:dc="http://purl.org/dc/elements/1.1/"
   xmlns:cc="http://creativecommons.org/ns#"
   xmlns:rdf="http://www.w3.org/1999/02/22-rdf-syntax-ns#"
   xmlns:svg="http://www.w3.org/2000/svg"
   xmlns="http://www.w3.org/2000/svg"
   xmlns:xlink="http://www.w3.org/1999/xlink"
   xmlns:sodipodi="http://sodipodi.sourceforge.net/DTD/sodipodi-0.dtd"
   xmlns:inkscape="http://www.inkscape.org/namespaces/inkscape"
   height="96"
   width="96"
   id="svg2"
   version="1.1"
   inkscape:version="0.91 r13725"
   sodipodi:docname="object-rotate-right.svg">
  <metadata
     id="metadata68">
    <rdf:RDF>
      <cc:Work
         rdf:about="">
        <dc:format>image/svg+xml</dc:format>
        <dc:type
           rdf:resource="http://purl.org/dc/dcmitype/StillImage" />
      </cc:Work>
    </rdf:RDF>
  </metadata>
  <sodipodi:namedview
     pagecolor="#ffffff"
     bordercolor="#666666"
     borderopacity="1"
     objecttolerance="10"
     gridtolerance="10"
     guidetolerance="10"
     inkscape:pageopacity="0"
     inkscape:pageshadow="2"
     inkscape:window-width="640"
     inkscape:window-height="480"
     id="namedview66"
     showgrid="false"
     inkscape:zoom="2.4583333"
     inkscape:cx="22.98305"
     inkscape:cy="47.999999"
     inkscape:window-x="75"
     inkscape:window-y="99"
     inkscape:window-maximized="0"
     inkscape:current-layer="svg2" />
  <defs
     id="defs4">
    <linearGradient
       x2="0"
       y1="92.54"
       y2="7.02"
       gradientUnits="userSpaceOnUse"
       id="ButtonShadow-0"
       gradientTransform="matrix(1.0059 0 0 0.99417 100 0)">
      <stop
         stop-color="#000000"
         stop-opacity="1"
         id="stop7" />
      <stop
         stop-color="#000000"
         stop-opacity="0.588"
         offset="1"
         id="stop9" />
    </linearGradient>
    <linearGradient
       x2="0"
       xlink:href="#ButtonShadow-0"
       y1="6.132"
       y2="90.24"
       gradientUnits="userSpaceOnUse"
       id="linearGradient3780"
       gradientTransform="matrix(1.02381 0 0 -1.0119 -1.143 98.07)" />
    <linearGradient
       x2="0"
       xlink:href="#ButtonShadow-0"
       y1="6.132"
       y2="90.24"
       gradientUnits="userSpaceOnUse"
       id="linearGradient3721"
       gradientTransform="matrix(1 0 0 -1 0 97)" />
    <radialGradient
       cy="90.17"
       r="42"
       gradientUnits="userSpaceOnUse"
       id="radialGradient3619-3"
       cx="48"
       gradientTransform="matrix(1.15731 0 0 0.99591 -7.551 0.197)">
      <stop
         stop-color="#ffffff"
         stop-opacity="1"
         id="stop14" />
      <stop
         stop-color="#ffffff"
         stop-opacity="0"
         offset="1"
         id="stop16" />
    </radialGradient>
    <linearGradient
       x1="11"
       x2="10.917"
       y1="2"
       y2="19.38"
       gradientUnits="userSpaceOnUse"
       id="linearGradient3026"
       gradientTransform="matrix(-3,0,0,3,81.04,12)">
      <stop
         stop-color="#1a1a1a"
         stop-opacity="1"
         id="stop19" />
      <stop
         stop-color="#4d4d4d"
         stop-opacity="1"
         offset="1"
         id="stop21" />
    </linearGradient>
    <rect
       x="6"
       rx="6"
       y="6"
       fill="#000000"
       fill-opacity="1"
       stroke="none"
       fill-rule="nonzero"
       height="84"
       id="SVGCleanerId_0"
       opacity="0.6"
       width="84" />
  </defs>
  <g
     id="g3369"
     transform="matrix(1.385201,0,0,1.385201,-16.311879,-15.72005)">
    <path
       d="m 45.180326,17.125 c 1.523255,0.386246 2.659981,1.671174 4.017027,2.437875 4.083206,2.807694 8.204865,5.570086 12.264223,8.405875 1.025667,0.948937 0.524437,2.682998 -0.710711,3.192095 -4.87607,3.45871 -9.765001,6.902175 -14.633039,10.370405 4.842215,-1.733144 10.233365,2.864337 9.771024,7.871768 -0.08789,4.779023 -5.201442,8.543964 -9.791447,7.193354 -4.825735,-1.075845 -7.49303,-7.190993 -4.877372,-11.43368 0.206818,-1.529221 3.613376,-2.928301 3.241545,-3.412692 -1.553881,-0.467727 -1.248344,-2.294074 -1.25,-3.558406 -0.05891,-1.192848 0.478896,-3.341059 -1.400055,-1.801937 -5.327524,2.350423 -8.941699,8.239423 -8.05781,14.083074 0.542873,6.983 6.864896,12.857517 13.8676,12.896091 4.971264,0.246361 9.614284,-2.51632 12.459306,-6.477122 0.549407,-1.248 2.117354,-2.149118 3.328533,-1.208121 2.214601,1.370789 4.595302,2.54607 6.708676,4.035171 1.14043,1.097052 0.143932,2.726674 -0.628257,3.720486 C 65.702388,69.625866 59.043688,73.930785 51.799388,74.626875 43.010074,75.88074 33.707394,72.364887 28.115732,65.435554 21.311386,57.407664 20.250147,45.100889 25.709021,36.073842 29.411115,29.695709 35.96378,25.075291 43.211576,23.71875 c 0.08886,-1.794785 -0.175079,-3.64371 0.125,-5.40625 0.267869,-0.757269 1.064624,-1.214027 1.84375,-1.1875 z"
       inkscape:connector-curvature="0"
       id="path42"
       style="opacity:0.15;fill:black;fill-opacity:1;stroke:none" />
    <path
       d="m 45.185,18 a 1.0094804,1.0094804 0 0 1 0.4375,0.15625 l 15.09375,10.3125 A 1.0094804,1.0094804 0 0 1 60.7475,30.125 L 45.65375,40.8125 A 1.0094804,1.0094804 0 0 1 44.06,40 l 0,-5.5 c -5.981612,1.62628 -10.576602,6.583135 -11.21875,12.90625 -0.04145,0.408083 0,0.965819 0,1.59375 0,8.429025 6.762694,15.201688 15.1875,15.21875 0.01114,-2.25e-4 0.02013,2.43e-4 0.03125,0 6.0703,-0.132758 9.911013,-3.004051 13.34375,-7.65625 a 1.0094804,1.0094804 0 0 1 1.3125,-0.28125 l 6.5625,3.84375 a 1.0094804,1.0094804 0 0 1 0.375,1.375 C 65.082547,69.529099 58.173231,74 48.06,74 c -13.800343,0 -25,-11.199657 -25,-25 0,-12.427869 9.107003,-22.694639 21,-24.625 l 0,-5.375 a 1.0094804,1.0094804 0 0 1 1.125,-1 z m 2.875,24 c 3.859217,0 7,3.140783 7,7 0,3.859217 -3.140783,7 -7,7 -3.859217,0 -7,-3.140783 -7,-7 0,-3.859217 3.140783,-7 7,-7 z"
       id="path44"
       inkscape:connector-curvature="0"
       style="opacity:0.15;fill:black;fill-opacity:1;stroke:none" />
    <path
       d="M 45.042576,19 60.136326,29.3125 45.042576,40 l 0,-6.9375 c -7.02909,1.291326 -12.486891,7.043517 -13.21875,14.25 -0.05553,0.546717 0,1.126134 0,1.6875 0,8.981865 7.236885,16.21875 16.21875,16.21875 6.409584,-0.12942 10.615178,-3.263481 14.15625,-8.0625 L 68.761326,61 c -4.440272,7.799124 -10.893224,12 -20.71875,12 -13.254834,0 -24,-10.745166 -24,-24 0,-12.234864 9.166671,-22.331067 21,-23.8125 l 0,-6.1875 z m 3,24 c 3.313707,0 6,2.686293 6,6 0,3.313707 -2.686293,6 -6,6 -3.313707,0 -6,-2.686293 -6,-6 0,-3.313707 2.686293,-6 6,-6 z"
       inkscape:connector-curvature="0"
       id="path46"
       style="opacity:0.3;fill:black;fill-opacity:1;stroke:none" />
    <path
       d="M 45.042576,18 60.136326,28.3125 45.042576,39 l 0,-6.9375 c -7.02909,1.291326 -12.486891,7.043517 -13.21875,14.25 -0.05553,0.546717 0,1.126134 0,1.6875 0,8.981865 7.236885,16.21875 16.21875,16.21875 6.409584,-0.12942 10.615178,-3.263481 14.15625,-8.0625 L 68.761326,60 c -4.440272,7.799124 -10.893224,12 -20.71875,12 -13.254834,0 -24,-10.745166 -24,-24 0,-12.234864 9.166671,-22.331067 21,-23.8125 l 0,-6.1875 z m 3,24 c 3.313707,0 6,2.686293 6,6 0,3.313707 -2.686293,6 -6,6 -3.313707,0 -6,-2.686293 -6,-6 0,-3.313707 2.686293,-6 6,-6 z"
       inkscape:connector-curvature="0"
       id="path60"
       style="fill:url(#linearGradient3026);fill-opacity:1;stroke:none" />
    <path
       d="m 45.055326,18 15.09375,10.3125 -0.71875,0.5 -14.375,-9.8125 0,-1 z m 0,6.1875 0,1 c -11.463537,1.435138 -20.451136,10.970591 -21,22.6875 0.06336,-12.177504 9.207759,-22.211211 21,-23.6875 z m 3,17.8125 c 3.313707,0 6,2.686293 6,6 0,0.124471 -0.02378,0.252409 -0.03125,0.375 C 53.716816,45.349465 51.161926,43 48.055326,43 c -3.1066,0 -5.66149,2.349465 -5.96875,5.375 -0.0075,-0.122591 -0.03125,-0.250529 -0.03125,-0.375 0,-3.313707 2.686293,-6 6,-6 z m -16.21875,5.65625 c 0.0032,0.115262 0,0.229554 0,0.34375 0,8.981865 7.236885,16.21875 16.21875,16.21875 6.409584,-0.12942 10.615178,-3.263481 14.15625,-8.0625 L 68.774076,60 c -0.143748,0.252486 -0.320737,0.473827 -0.46875,0.71875 l -6.09375,-3.5625 c -3.541072,4.799019 -7.746666,7.93308 -14.15625,8.0625 -8.981865,0 -16.21875,-7.236885 -16.21875,-16.21875 0,-0.44717 -0.01373,-0.899324 0,-1.34375 z"
       inkscape:connector-curvature="0"
       id="path62"
       style="opacity:0.75;fill:white;fill-opacity:1;stroke:none" />
    <path
       d="m 59.430326,27.8125 0.71875,0.5 L 45.055326,39 l 0,-1 14.375,-10.1875 z m -14.375,3.25 0,1 c -7.02909,1.291326 -12.486891,7.043517 -13.21875,14.25 -0.0113,0.111216 0.0035,0.230255 0,0.34375 -0.01251,-0.451347 -0.04423,-0.908249 0,-1.34375 0.731859,-7.206483 6.18966,-12.958674 13.21875,-14.25 z m -21,15.9375 c 0,13.254834 10.745166,24 24,24 9.507438,0 15.826,-3.960657 20.25,-11.28125 L 68.774076,60 c -4.440272,7.799124 -10.893224,12 -20.71875,12 -13.254834,0 -24,-10.745166 -24,-24 0,-0.339857 -0.01401,-0.663582 0,-1 z m 29.96875,0.625 c 0.0075,0.122591 0.03125,0.250529 0.03125,0.375 0,3.313707 -2.686293,6 -6,6 -3.313707,0 -6,-2.686293 -6,-6 0,-0.124471 0.02378,-0.252409 0.03125,-0.375 0.30726,3.025535 2.86215,5.375 5.96875,5.375 3.1066,0 5.66149,-2.349465 5.96875,-5.375 z"
       inkscape:connector-curvature="0"
       id="path64"
       style="opacity:0.15;fill:black;fill-opacity:1;stroke:none" />
  </g>
</svg>
