<?xml version="1.0" encoding="UTF-8" standalone="no"?>
<svg
   xmlns:dc="http://purl.org/dc/elements/1.1/"
   xmlns:cc="http://creativecommons.org/ns#"
   xmlns:rdf="http://www.w3.org/1999/02/22-rdf-syntax-ns#"
   xmlns:svg="http://www.w3.org/2000/svg"
   xmlns="http://www.w3.org/2000/svg"
   xmlns:xlink="http://www.w3.org/1999/xlink"
   xmlns:sodipodi="http://sodipodi.sourceforge.net/DTD/sodipodi-0.dtd"
   xmlns:inkscape="http://www.inkscape.org/namespaces/inkscape"
   height="96"
   width="96"
   id="svg2"
   version="1.1"
   inkscape:version="0.91 r13725"
   sodipodi:docname="object-flip-vertical.svg">
  <metadata
     id="metadata68">
    <rdf:RDF>
      <cc:Work
         rdf:about="">
        <dc:format>image/svg+xml</dc:format>
        <dc:type
           rdf:resource="http://purl.org/dc/dcmitype/StillImage" />
      </cc:Work>
    </rdf:RDF>
  </metadata>
  <sodipodi:namedview
     pagecolor="#ffffff"
     bordercolor="#666666"
     borderopacity="1"
     objecttolerance="10"
     gridtolerance="10"
     guidetolerance="10"
     inkscape:pageopacity="0"
     inkscape:pageshadow="2"
     inkscape:window-width="640"
     inkscape:window-height="480"
     id="namedview66"
     showgrid="false"
     inkscape:zoom="2.4583333"
     inkscape:cx="22.98305"
     inkscape:cy="47.999999"
     inkscape:window-x="75"
     inkscape:window-y="99"
     inkscape:window-maximized="0"
     inkscape:current-layer="svg2" />
  <defs
     id="defs4">
    <linearGradient
       x2="0"
       y1="92.54"
       y2="7.02"
       gradientUnits="userSpaceOnUse"
       id="ButtonShadow-0"
       gradientTransform="matrix(1.0059 0 0 0.99417 100 0)">
      <stop
         stop-color="#000000"
         stop-opacity="1"
         id="stop7" />
      <stop
         stop-color="#000000"
         stop-opacity="0.588"
         offset="1"
         id="stop9" />
    </linearGradient>
    <linearGradient
       x2="0"
       xlink:href="#ButtonShadow-0"
       y1="6.132"
       y2="90.24"
       gradientUnits="userSpaceOnUse"
       id="linearGradient3780"
       gradientTransform="matrix(1.02381 0 0 -1.0119 -1.143 98.07)" />
    <linearGradient
       x2="0"
       xlink:href="#ButtonShadow-0"
       y1="6.132"
       y2="90.24"
       gradientUnits="userSpaceOnUse"
       id="linearGradient3721"
       gradientTransform="matrix(1 0 0 -1 0 97)" />
    <radialGradient
       cy="90.17"
       r="42"
       gradientUnits="userSpaceOnUse"
       id="radialGradient3619-3"
       cx="48"
       gradientTransform="matrix(1.15731 0 0 0.99591 -7.551 0.197)">
      <stop
         stop-color="#ffffff"
         stop-opacity="1"
         id="stop14" />
      <stop
         stop-color="#ffffff"
         stop-opacity="0"
         offset="1"
         id="stop16" />
    </radialGradient>
    <linearGradient
       x1="21.22"
       x2="3.537"
       gradientUnits="userSpaceOnUse"
       id="linearGradient3011"
       gradientTransform="matrix(0,-3.39307,-2.65246,0,82,90)">
      <stop
         stop-color="#1a1a1a"
         stop-opacity="1"
         id="stop19" />
      <stop
         stop-color="#4d4d4d"
         stop-opacity="1"
         offset="1"
         id="stop21" />
    </linearGradient>
    <rect
       x="6"
       rx="6"
       y="6"
       fill="#000000"
       fill-opacity="1"
       stroke="none"
       fill-rule="nonzero"
       height="84"
       id="SVGCleanerId_0"
       opacity="0.6"
       width="84" />
  </defs>
  <g
     id="g3369"
     transform="matrix(1.3260738,0,0,1.3260738,-15.527223,-16.960374)">
    <path
       d="m 47.90625,16.9375 c -1.696535,0.152047 -2.189089,2.059926 -3.172796,3.179187 -3.2017,4.655447 -6.495475,9.256274 -9.639704,13.945813 -0.836517,1.44515 0.616201,3.318447 2.227641,2.96875 1.549119,0 3.098239,0 4.647359,0 0,7.979167 0,15.958333 0,23.9375 -1.913408,0.05964 -3.854467,-0.12124 -5.75,0.09375 -1.497755,0.497607 -1.751517,2.528829 -0.684607,3.579876 3.687651,5.265739 7.282868,10.60938 11.028357,15.826374 1.040766,1.058047 2.887548,0.54338 3.437179,-0.769588 3.561299,-5.259184 7.216113,-10.476222 10.719071,-15.761662 0.836517,-1.44515 -0.616201,-3.318447 -2.227641,-2.96875 -1.486619,0 -2.973239,0 -4.459859,0 0,-7.979167 0,-15.958333 0,-23.9375 1.850797,-0.0606 3.729633,0.12269 5.5625,-0.09375 1.508596,-0.501125 1.735806,-2.528577 0.687821,-3.582088 C 56.647525,28.080432 53.083651,22.72484 49.40625,17.5 c -0.401308,-0.391137 -0.945404,-0.556558 -1.5,-0.5625 z"
       inkscape:connector-curvature="0"
       id="path42"
       style="opacity:0.1;fill:black;fill-opacity:1;stroke:none" />
    <path
       d="m 47.875,17.96875 a 1.0329599,1.0329599 0 0 0 -0.71875,0.4375 l -11.09375,16 a 1.0329599,1.0329599 0 0 0 0.84375,1.625 l 6.0625,0 0,25.9375 -6.0625,0 a 1.0329599,1.0329599 0 0 0 -0.84375,1.625 l 11.09375,16 a 1.0329599,1.0329599 0 0 0 1.6875,0 l 10.90625,-16 a 1.0329599,1.0329599 0 0 0 -0.84375,-1.625 l -5.875,0 0,-25.9375 5.875,0 a 1.0329599,1.0329599 0 0 0 0.84375,-1.625 l -10.90625,-16 A 1.0329599,1.0329599 0 0 0 47.875,17.96875 Z"
       id="path44"
       inkscape:connector-curvature="0"
       style="opacity:0.15;fill:black;fill-opacity:1;stroke:none" />
    <path
       d="M 58.906249,63 48,79 36.90625,63 44,63 l 10e-7,-28 -7.09375,0 L 48,19 58.90625,35 52,35 52,63 Z"
       inkscape:connector-curvature="0"
       id="path46"
       style="opacity:0.3;fill:black;fill-opacity:1;stroke:none" />
    <path
       d="M 58.906249,62 48,78 36.90625,62 44,62 l 10e-7,-28 -7.09375,0 L 48,18 58.90625,34 52,34 52,62 Z"
       inkscape:connector-curvature="0"
       id="path60"
       style="fill:url(#linearGradient3011);fill-opacity:1;stroke:none" />
    <path
       d="M 48,18 36.90625,34 37.59375,34 48,19 58.21875,34 58.90625,34 48,18 Z M 36.90625,62 37.59375,63 44,63 44,62 36.90625,62 Z M 52,62 l 0,1 6.21875,0 0.6875,-1 L 52,62 Z"
       inkscape:connector-curvature="0"
       id="path62"
       style="opacity:0.75;fill:white;fill-opacity:1;stroke:none" />
    <path
       d="M 37.59375,33 36.90625,34 44,34 44,33 37.59375,33 Z M 52,33 l 0,1 6.90625,0 -0.6875,-1 L 52,33 Z M 36.90625,62 48,78 58.90625,62 58.21875,62 48,77 37.59375,62 l -0.6875,0 z"
       inkscape:connector-curvature="0"
       id="path64"
       style="opacity:0.15;fill:black;fill-opacity:1;stroke:none" />
  </g>
</svg>
