<svg height="96" width="96" xmlns="http://www.w3.org/2000/svg" xmlns:xlink="http://www.w3.org/1999/xlink" xmlns:sodipodi="http://sodipodi.sourceforge.net/DTD/sodipodi-0.dtd" xmlns:inkscape="http://www.inkscape.org/namespaces/inkscape">
 <defs>
  <linearGradient x2="0" y1="92.54" y2="7.02" gradientUnits="userSpaceOnUse" id="ButtonShadow-0" gradientTransform="matrix(1.0059 0 0 0.99417 100 0)">
   <stop stop-color="#000000" stop-opacity="1"/>
   <stop stop-color="#000000" stop-opacity="0.588" offset="1"/>
  </linearGradient>
  <linearGradient x2="0" xlink:href="#ButtonShadow-0" y1="6.132" y2="90.24" gradientUnits="userSpaceOnUse" id="linearGradient3780" gradientTransform="matrix(1.02381 0 0 -1.0119 -1.143 98.07)"/>
  <linearGradient x2="0" xlink:href="#ButtonShadow-0" y1="6.132" y2="90.24" gradientUnits="userSpaceOnUse" id="linearGradient3721" gradientTransform="matrix(1 0 0 -1 0 97)"/>
  <radialGradient cy="90.17" r="42" gradientUnits="userSpaceOnUse" id="radialGradient3619-3" cx="48" gradientTransform="matrix(1.15731 0 0 0.99591 -7.551 0.197)">
   <stop stop-color="#ffffff" stop-opacity="1"/>
   <stop stop-color="#ffffff" stop-opacity="0" offset="1"/>
  </radialGradient>
  <linearGradient x1="11" x2="10.917" y1="2" y2="19.38" gradientUnits="userSpaceOnUse" id="linearGradient3026" gradientTransform="matrix(-3 0 0 3 81.04 12)">
   <stop stop-color="#f0f0f0" stop-opacity="1"/>
   <stop stop-color="#aaaaaa" stop-opacity="1" offset="1"/>
  </linearGradient>
  <rect x="6" rx="6" y="6" fill="#000000" fill-opacity="1" stroke="none" fill-rule="nonzero" height="84" id="SVGCleanerId_0" opacity="0.6" width="84"/>
 </defs>
 <path d="M 12,3.96875 C 6.4889098,3.96875 1.96875,8.4889098 1.96875,14 l 0,71 c 0,5.51109 4.5201597,10.03125 10.03125,10.03125 l 72,0 c 5.51109,0 10.03125,-4.52016 10.03125,-10.03125 l 0,-71 C 94.03125,8.4889097 89.51109,3.96875 84,3.96875 l -72,0 z M 12,6 84,6 c 3.324,0 6,2.676 6,6 l 0,72 c 0,3.324 -2.676,6 -6,6 L 12,90 C 8.676,90 6,87.324 6,84 L 6,12 C 6,8.676 8.676,6 12,6 z" display="inline" fill="url(#linearGradient3780)" fill-opacity="1" fill-rule="nonzero" stroke="none" opacity="0.08" inkscape:connector-curvature="0"/>
 <path d="M 12,4.96875 C 7.0283671,4.96875 2.96875,9.0283671 2.96875,14 l 0,71 c 0,4.971633 4.059617,9.03125 9.03125,9.03125 l 72,0 c 4.971633,0 9.03125,-4.059617 9.03125,-9.03125 l 0,-71 C 93.03125,9.028367 88.971633,4.96875 84,4.96875 l -72,0 z M 12,6 84,6 c 3.324,0 6,2.676 6,6 l 0,72 c 0,3.324 -2.676,6 -6,6 L 12,90 C 8.676,90 6,87.324 6,84 L 6,12 C 6,8.676 8.676,6 12,6 z" display="inline" fill="url(#linearGradient3780)" fill-opacity="1" fill-rule="nonzero" stroke="none" opacity="0.1" inkscape:connector-curvature="0"/>
 <path d="M 11.1875,6.03125 C 7.159982,6.4419011 4,9.8664375 4,14 l 0,71 c 0,4.409133 3.590867,8 8,8 l 72,0 c 4.409133,0 8,-3.590867 8,-8 L 92,14 C 92,9.8029382 88.741028,6.3539584 84.625,6.03125 87.657886,6.337417 90,8.88375 90,12 l 0,72 c 0,3.324 -2.676,6 -6,6 L 12,90 C 8.676,90 6,87.324 6,84 L 6,12 c 0,-3.11625 2.342114,-5.662583 5.375,-5.96875 -0.06227,0.00488 -0.12563,-0.00631 -0.1875,0 z" display="inline" fill="url(#linearGradient3780)" fill-opacity="1" fill-rule="nonzero" stroke="none" opacity="0.2" inkscape:connector-curvature="0"/>
 <path d="M 6.4375,9.75 C 5.5380109,10.927446 5,12.397277 5,14 l 0,71 c 0,3.878 3.122,7 7,7 l 72,0 c 3.878,0 7,-3.122 7,-7 L 91,14 C 91,12.397277 90.461989,10.927446 89.5625,9.75 89.841816,10.444095 90,11.203625 90,12 l 0,72 c 0,3.324 -2.676,6 -6,6 L 12,90 C 8.676,90 6,87.324 6,84 L 6,12 C 6,11.203625 6.1581836,10.444095 6.4375,9.75 z" display="inline" fill="url(#linearGradient3780)" fill-opacity="1" fill-rule="nonzero" stroke="none" opacity="0.3" inkscape:connector-curvature="0"/>
 <path d="m 6,84 0,1 c 0,3.324 2.676,6 6,6 l 72,0 c 3.324,0 6,-2.676 6,-6 l 0,-1 c 0,3.324 -2.676,6 -6,6 L 12,90 C 8.676,90 6,87.324 6,84 z" display="inline" fill="url(#linearGradient3721)" fill-opacity="1" fill-rule="nonzero" stroke="none" opacity="0.45" inkscape:connector-curvature="0"/>
 <g display="inline">
  <use xlink:href="#SVGCleanerId_0"/>
  <path d="M 12,90 C 8.676,90 6,87.324 6,84 L 6,82 6,14 6,12 c 0,-0.334721 0.04135,-0.6507 0.09375,-0.96875 0.0487,-0.295596 0.09704,-0.596915 0.1875,-0.875 C 6.29113,10.12587 6.302142,10.09265 6.3125,10.0625 6.411365,9.774729 6.5473802,9.515048 6.6875,9.25 6.8320918,8.976493 7.0031161,8.714385 7.1875,8.46875 7.3718839,8.223115 7.5612765,7.995278 7.78125,7.78125 8.221197,7.353194 8.72416,6.966724 9.28125,6.6875 9.559795,6.547888 9.8547231,6.440553 10.15625,6.34375 9.9000482,6.443972 9.6695391,6.580022 9.4375,6.71875 c -0.00741,0.0044 -0.023866,-0.0045 -0.03125,0 -0.031933,0.0193 -0.062293,0.04251 -0.09375,0.0625 -0.120395,0.0767 -0.2310226,0.163513 -0.34375,0.25 -0.1061728,0.0808 -0.2132809,0.161112 -0.3125,0.25 C 8.4783201,7.442683 8.3087904,7.626638 8.15625,7.8125 8.0486711,7.942755 7.9378561,8.077785 7.84375,8.21875 7.818661,8.25713 7.805304,8.30462 7.78125,8.34375 7.716487,8.446782 7.6510225,8.548267 7.59375,8.65625 7.4927417,8.850956 7.3880752,9.071951 7.3125,9.28125 7.30454,9.30306 7.288911,9.3218 7.28125,9.34375 7.2494249,9.4357 7.2454455,9.530581 7.21875,9.625 7.1884177,9.731618 7.1483606,9.828031 7.125,9.9375 7.0521214,10.279012 7,10.635705 7,11 l 0,2 0,68 0,2 c 0,2.781848 2.2181517,5 5,5 l 2,0 68,0 2,0 c 2.781848,0 5,-2.218152 5,-5 l 0,-2 0,-68 0,-2 C 89,10.635705 88.94788,10.279012 88.875,9.9375 88.83085,9.730607 88.78662,9.539842 88.71875,9.34375 88.71105,9.3218 88.69545,9.30306 88.6875,9.28125 88.62476,9.107511 88.549117,8.913801 88.46875,8.75 88.42717,8.6672 88.38971,8.580046 88.34375,8.5 88.28915,8.40279 88.216976,8.31165 88.15625,8.21875 88.06214,8.077785 87.951329,7.942755 87.84375,7.8125 87.700576,7.63805 87.540609,7.465502 87.375,7.3125 87.36383,7.3023 87.35502,7.29135 87.34375,7.28125 87.205364,7.155694 87.058659,7.046814 86.90625,6.9375 86.803679,6.86435 86.701932,6.784136 86.59375,6.71875 c -0.0074,-0.0045 -0.02384,0.0044 -0.03125,0 -0.232039,-0.138728 -0.462548,-0.274778 -0.71875,-0.375 0.301527,0.0968 0.596455,0.204138 0.875,0.34375 0.55709,0.279224 1.060053,0.665694 1.5,1.09375 0.219973,0.214028 0.409366,0.441865 0.59375,0.6875 0.184384,0.245635 0.355408,0.507743 0.5,0.78125 0.14012,0.265048 0.276135,0.524729 0.375,0.8125 0.01041,0.03078 0.02133,0.06274 0.03125,0.09375 0.09046,0.278085 0.1388,0.579404 0.1875,0.875 C 89.95865,11.3493 90,11.665279 90,12 l 0,2 0,68 0,2 c 0,3.324 -2.676,6 -6,6 l -72,0 z" fill="url(#radialGradient3619-3)" fill-opacity="1" fill-rule="nonzero" stroke="none" opacity="0.15" inkscape:connector-curvature="0"/>
 </g>
 <g display="inline">
  <path d="m 45.180326,17.125 c 1.523255,0.386246 2.659981,1.671174 4.017027,2.437875 4.083206,2.807694 8.204865,5.570086 12.264223,8.405875 1.025667,0.948937 0.524437,2.682998 -0.710711,3.192095 -4.87607,3.45871 -9.765001,6.902175 -14.633039,10.370405 4.842215,-1.733144 10.233365,2.864337 9.771024,7.871768 -0.08789,4.779023 -5.201442,8.543964 -9.791447,7.193354 -4.825735,-1.075845 -7.49303,-7.190993 -4.877372,-11.43368 0.206818,-1.529221 3.613376,-2.928301 3.241545,-3.412692 -1.553881,-0.467727 -1.248344,-2.294074 -1.25,-3.558406 -0.05891,-1.192848 0.478896,-3.341059 -1.400055,-1.801937 -5.327524,2.350423 -8.941699,8.239423 -8.05781,14.083074 0.542873,6.983 6.864896,12.857517 13.8676,12.896091 4.971264,0.246361 9.614284,-2.51632 12.459306,-6.477122 0.549407,-1.248 2.117354,-2.149118 3.328533,-1.208121 2.214601,1.370789 4.595302,2.54607 6.708676,4.035171 1.14043,1.097052 0.143932,2.726674 -0.628257,3.720486 C 65.702388,69.625866 59.043688,73.930785 51.799388,74.626875 43.010074,75.88074 33.707394,72.364887 28.115732,65.435554 21.311386,57.407664 20.250147,45.100889 25.709021,36.073842 29.411115,29.695709 35.96378,25.075291 43.211576,23.71875 c 0.08886,-1.794785 -0.175079,-3.64371 0.125,-5.40625 0.267869,-0.757269 1.064624,-1.214027 1.84375,-1.1875 z" fill="#000000" fill-opacity="1" stroke="none" opacity="0.15" inkscape:connector-curvature="0"/>
  <path d="m 50.875,18 a 1.0094804,1.0094804 0 0 0 -0.4375,0.15625 L 35.34375,28.46875 A 1.0094804,1.0094804 0 0 0 35.3125,30.125 L 50.40625,40.8125 A 1.0094804,1.0094804 0 0 0 52,40 l 0,-5.5 c 5.981612,1.62628 10.576602,6.583135 11.21875,12.90625 0.04145,0.408083 0,0.965819 0,1.59375 0,8.429025 -6.762694,15.201688 -15.1875,15.21875 -0.01114,-2.25e-4 -0.02013,2.43e-4 -0.03125,0 -6.0703,-0.132758 -9.911013,-3.004051 -13.34375,-7.65625 a 1.0094804,1.0094804 0 0 0 -1.3125,-0.28125 l -6.5625,3.84375 a 1.0094804,1.0094804 0 0 0 -0.375,1.375 C 30.977453,69.529099 37.886769,74 48,74 61.800343,74 73,62.800343 73,49 73,36.572131 63.892997,26.305361 52,24.375 L 52,19 A 1.0094804,1.0094804 0 0 0 50.875,18 z M 48,42 c -3.859217,0 -7,3.140783 -7,7 0,3.859217 3.140783,7 7,7 3.859217,0 7,-3.140783 7,-7 0,-3.859217 -3.140783,-7 -7,-7 z" fill="#000000" fill-opacity="1" stroke="none" opacity="0.15" transform="matrix(-1 0 0 1 96.06 0)"/>
  <path d="M 45.042576,19 60.136326,29.3125 45.042576,40 l 0,-6.9375 c -7.02909,1.291326 -12.486891,7.043517 -13.21875,14.25 -0.05553,0.546717 0,1.126134 0,1.6875 0,8.981865 7.236885,16.21875 16.21875,16.21875 6.409584,-0.12942 10.615178,-3.263481 14.15625,-8.0625 L 68.761326,61 c -4.440272,7.799124 -10.893224,12 -20.71875,12 -13.254834,0 -24,-10.745166 -24,-24 0,-12.234864 9.166671,-22.331067 21,-23.8125 l 0,-6.1875 z m 3,24 c 3.313707,0 6,2.686293 6,6 0,3.313707 -2.686293,6 -6,6 -3.313707,0 -6,-2.686293 -6,-6 0,-3.313707 2.686293,-6 6,-6 z" fill="#000000" fill-opacity="1" stroke="none" opacity="0.3" inkscape:connector-curvature="0"/>
  <text x="104" font-size="4" font-stretch="normal" font-style="normal" letter-spacing="0" font-variant="normal" y="48" font-weight="normal" text-anchor="start" line-height="125%" fill="#000000" fill-opacity="1" stroke="none" word-spacing="0" writing-mode="lr-tb" font-family="Liberation Sans"><tspan x="104" y="48">Shadow opacity : 30, 15, 10, (8)</tspan>
  </text>
  <text x="124" font-size="4" font-stretch="normal" font-style="normal" letter-spacing="0" font-variant="normal" y="32" font-weight="normal" text-anchor="start" line-height="125%" fill="#000000" fill-opacity="1" stroke="none" word-spacing="0" writing-mode="lr-tb" font-family="Liberation Sans"><tspan x="124" y="32">Bevel opacity : 30 / 10</tspan>
  </text>
  <text x="124" font-size="4" font-stretch="normal" font-style="normal" letter-spacing="0" font-variant="normal" y="8" font-weight="normal" text-anchor="start" line-height="125%" fill="#000000" fill-opacity="1" stroke="none" word-spacing="0" writing-mode="lr-tb" font-family="Liberation Sans"><tspan x="124" y="8">Bevel opacity : 75 / 15</tspan>
  </text>
  <path d="M 45.042576,18 60.136326,28.3125 45.042576,39 l 0,-6.9375 c -7.02909,1.291326 -12.486891,7.043517 -13.21875,14.25 -0.05553,0.546717 0,1.126134 0,1.6875 0,8.981865 7.236885,16.21875 16.21875,16.21875 6.409584,-0.12942 10.615178,-3.263481 14.15625,-8.0625 L 68.761326,60 c -4.440272,7.799124 -10.893224,12 -20.71875,12 -13.254834,0 -24,-10.745166 -24,-24 0,-12.234864 9.166671,-22.331067 21,-23.8125 l 0,-6.1875 z m 3,24 c 3.313707,0 6,2.686293 6,6 0,3.313707 -2.686293,6 -6,6 -3.313707,0 -6,-2.686293 -6,-6 0,-3.313707 2.686293,-6 6,-6 z" fill="url(#linearGradient3026)" fill-opacity="1" stroke="none" inkscape:connector-curvature="0"/>
  <path d="m 45.055326,18 15.09375,10.3125 -0.71875,0.5 -14.375,-9.8125 0,-1 z m 0,6.1875 0,1 c -11.463537,1.435138 -20.451136,10.970591 -21,22.6875 0.06336,-12.177504 9.207759,-22.211211 21,-23.6875 z m 3,17.8125 c 3.313707,0 6,2.686293 6,6 0,0.124471 -0.02378,0.252409 -0.03125,0.375 C 53.716816,45.349465 51.161926,43 48.055326,43 c -3.1066,0 -5.66149,2.349465 -5.96875,5.375 -0.0075,-0.122591 -0.03125,-0.250529 -0.03125,-0.375 0,-3.313707 2.686293,-6 6,-6 z m -16.21875,5.65625 c 0.0032,0.115262 0,0.229554 0,0.34375 0,8.981865 7.236885,16.21875 16.21875,16.21875 6.409584,-0.12942 10.615178,-3.263481 14.15625,-8.0625 L 68.774076,60 c -0.143748,0.252486 -0.320737,0.473827 -0.46875,0.71875 l -6.09375,-3.5625 c -3.541072,4.799019 -7.746666,7.93308 -14.15625,8.0625 -8.981865,0 -16.21875,-7.236885 -16.21875,-16.21875 0,-0.44717 -0.01373,-0.899324 0,-1.34375 z" fill="#ffffff" fill-opacity="1" stroke="none" opacity="0.75" inkscape:connector-curvature="0"/>
  <path d="m 59.430326,27.8125 0.71875,0.5 L 45.055326,39 l 0,-1 14.375,-10.1875 z m -14.375,3.25 0,1 c -7.02909,1.291326 -12.486891,7.043517 -13.21875,14.25 -0.0113,0.111216 0.0035,0.230255 0,0.34375 -0.01251,-0.451347 -0.04423,-0.908249 0,-1.34375 0.731859,-7.206483 6.18966,-12.958674 13.21875,-14.25 z m -21,15.9375 c 0,13.254834 10.745166,24 24,24 9.507438,0 15.826,-3.960657 20.25,-11.28125 L 68.774076,60 c -4.440272,7.799124 -10.893224,12 -20.71875,12 -13.254834,0 -24,-10.745166 -24,-24 0,-0.339857 -0.01401,-0.663582 0,-1 z m 29.96875,0.625 c 0.0075,0.122591 0.03125,0.250529 0.03125,0.375 0,3.313707 -2.686293,6 -6,6 -3.313707,0 -6,-2.686293 -6,-6 0,-0.124471 0.02378,-0.252409 0.03125,-0.375 0.30726,3.025535 2.86215,5.375 5.96875,5.375 3.1066,0 5.66149,-2.349465 5.96875,-5.375 z" fill="#000000" fill-opacity="1" stroke="none" opacity="0.15" inkscape:connector-curvature="0"/>
 </g>
</svg>
