<svg height="16" width="16" xmlns="http://www.w3.org/2000/svg" xmlns:sodipodi="http://sodipodi.sourceforge.net/DTD/sodipodi-0.dtd" xmlns:inkscape="http://www.inkscape.org/namespaces/inkscape">
 <path d="M 7.9999997,2 C 4.6879999,2 2,4.6879998 2,7.9999997 2,11.312 4.6879999,14 7.9999997,14 11.312,14 14,11.312 14,7.9999997 14,4.6879998 11.312,2 7.9999997,2 z m 0,2.142857 c 2.1291433,-1e-7 3.8571423,1.7280001 3.8571423,3.8571427 0,0.5753957 -0.128694,1.1198775 -0.35491,1.6104913 L 6.3861606,4.4977678 C 6.8774888,4.2707477 7.4235197,4.142857 7.9999997,4.142857 z M 4.5446429,6.2924106 9.7109372,11.455357 c -0.5159543,0.256204 -1.0961473,0.401785 -1.7109375,0.401785 -2.1291424,0 -3.8571426,-1.727999 -3.8571426,-3.8571423 0,-0.6137253 0.1464118,-1.1923025 0.4017858,-1.7075891 z" fill="#d40000" fill-opacity="1" stroke="none" inkscape:label="Calque 1" inkscape:groupmode="layer" inkscape:connector-curvature="0"/>
</svg>
