<?xml version="1.0" encoding="UTF-8" standalone="no"?>
<svg
   xmlns:dc="http://purl.org/dc/elements/1.1/"
   xmlns:cc="http://creativecommons.org/ns#"
   xmlns:rdf="http://www.w3.org/1999/02/22-rdf-syntax-ns#"
   xmlns:svg="http://www.w3.org/2000/svg"
   xmlns="http://www.w3.org/2000/svg"
   xmlns:xlink="http://www.w3.org/1999/xlink"
   xmlns:sodipodi="http://sodipodi.sourceforge.net/DTD/sodipodi-0.dtd"
   xmlns:inkscape="http://www.inkscape.org/namespaces/inkscape"
   height="96"
   width="96"
   id="svg2"
   version="1.1"
   inkscape:version="0.91 r13725"
   sodipodi:docname="system-upgrade.svg">
  <metadata
     id="metadata68">
    <rdf:RDF>
      <cc:Work
         rdf:about="">
        <dc:format>image/svg+xml</dc:format>
        <dc:type
           rdf:resource="http://purl.org/dc/dcmitype/StillImage" />
      </cc:Work>
    </rdf:RDF>
  </metadata>
  <sodipodi:namedview
     pagecolor="#ffffff"
     bordercolor="#666666"
     borderopacity="1"
     objecttolerance="10"
     gridtolerance="10"
     guidetolerance="10"
     inkscape:pageopacity="0"
     inkscape:pageshadow="2"
     inkscape:window-width="640"
     inkscape:window-height="480"
     id="namedview66"
     showgrid="false"
     inkscape:zoom="2.4583333"
     inkscape:cx="22.98305"
     inkscape:cy="47.999999"
     inkscape:window-x="75"
     inkscape:window-y="99"
     inkscape:window-maximized="0"
     inkscape:current-layer="svg2" />
  <defs
     id="defs4">
    <linearGradient
       x2="0"
       y1="92.54"
       y2="7.02"
       gradientUnits="userSpaceOnUse"
       id="ButtonShadow-0"
       gradientTransform="matrix(1.0059 0 0 0.99417 100 0)">
      <stop
         stop-color="#000000"
         stop-opacity="1"
         id="stop7" />
      <stop
         stop-color="#000000"
         stop-opacity="0.588"
         offset="1"
         id="stop9" />
    </linearGradient>
    <linearGradient
       x2="0"
       xlink:href="#ButtonShadow-0"
       y1="6.132"
       y2="90.24"
       gradientUnits="userSpaceOnUse"
       id="linearGradient3780"
       gradientTransform="matrix(1.02381 0 0 -1.0119 -1.143 98.07)" />
    <linearGradient
       x2="0"
       xlink:href="#ButtonShadow-0"
       y1="6.132"
       y2="90.24"
       gradientUnits="userSpaceOnUse"
       id="linearGradient3721"
       gradientTransform="matrix(1 0 0 -1 0 97)" />
    <radialGradient
       cy="90.17"
       r="42"
       gradientUnits="userSpaceOnUse"
       id="radialGradient3619-3"
       cx="48"
       gradientTransform="matrix(1.15731 0 0 0.99591 -7.551 0.197)">
      <stop
         stop-color="#ffffff"
         stop-opacity="1"
         id="stop14" />
      <stop
         stop-color="#ffffff"
         stop-opacity="0"
         offset="1"
         id="stop16" />
    </radialGradient>
    <linearGradient
       x2="0"
       y1="44.5"
       y2="1.5"
       gradientUnits="userSpaceOnUse"
       id="linearGradient3053"
       gradientTransform="matrix(1.25581,0,0,-1.25581,17.861,76.884)">
      <stop
         stop-color="#1a1a1a"
         stop-opacity="1"
         id="stop19" />
      <stop
         stop-color="#4d4d4d"
         stop-opacity="1"
         offset="1"
         id="stop21" />
    </linearGradient>
    <rect
       x="6"
       rx="6"
       y="6"
       fill="#000000"
       fill-opacity="1"
       stroke="none"
       fill-rule="nonzero"
       height="84"
       id="SVGCleanerId_0"
       opacity="0.6"
       width="84" />
  </defs>
  <g
     id="g3369"
     transform="matrix(1.3748657,0,0,1.3748657,-17.993554,-19.368419)">
    <path
       d="m 44.25,19.90625 c -2.244419,0 -3.96875,1.901074 -3.96875,4.0625 l 0,2.40625 c -0.975268,0.31762 -1.937028,0.710354 -2.875,1.15625 l -1.6875,-1.6875 c -4.1e-5,-4.1e-5 -0.02916,0.0012 -0.03125,0 -0.02224,-0.01297 -0.125745,-0.08477 -0.25,-0.15625 -1.500192,-1.280826 -3.843355,-1.437905 -5.34375,0.0625 L 24.75,31.09375 c -1.570482,1.570356 -1.359186,4.079182 0.09375,5.5625 l 1.6875,1.75 c -0.445894,0.937971 -0.838628,1.899732 -1.15625,2.875 l -2.40625,0 c -2.161431,0 -4.0625,1.724335 -4.0625,3.96875 l 0,7.5 c 0,2.244415 1.901069,3.96875 4.0625,3.96875 l 2.40625,0 c 0.317619,0.975266 0.710352,1.937025 1.15625,2.875 l -1.6875,1.75 c -1.452871,1.483338 -1.664112,3.992128 -0.09375,5.5625 L 30.09375,72.25 c 0.730404,0.730371 1.734538,1.165406 2.8125,1.15625 1.069939,-0.0091 1.849382,-0.518352 2.4375,-1.03125 0.02268,-0.01978 0.07181,-0.01147 0.09375,-0.03125 a 1.1273049,1.1273049 0 0 0 0.21875,-0.1875 1.1273049,1.1273049 0 0 0 0.03125,0 l 1.71875,-1.6875 c 0.937972,0.445896 1.899731,0.83863 2.875,1.15625 l 0,2.40625 c 0,2.161426 1.724331,4.0625 3.96875,4.0625 l 7.5,0 c 2.244408,0 3.96875,-1.901062 3.96875,-4.0625 l 0,-2.40625 c 0.975268,-0.31762 1.937027,-0.710352 2.875,-1.15625 l 1.75,1.6875 c 1.48332,1.452749 3.992092,1.664106 5.5625,0.09375 L 71.25,66.90625 c 1.446474,-1.4463 1.309487,-3.653247 0.15625,-5.15625 A 1.1273049,1.1273049 0 0 0 71.375,61.6875 c -0.0055,-0.0069 0.0056,-0.02436 0,-0.03125 a 1.1273049,1.1273049 0 0 0 -0.21875,-0.3125 1.1273049,1.1273049 0 0 0 0,-0.03125 l -1.6875,-1.71875 c 0.445895,-0.937971 0.838629,-1.899731 1.15625,-2.875 l 2.40625,0 c 2.161427,0 4.0625,-1.72433 4.0625,-3.96875 l 0,-7.5 c 0,-2.244411 -1.90103,-3.968798 -4.0625,-3.96875 l -2.40625,0 c -0.317621,-0.975271 -0.710354,-1.93703 -1.15625,-2.875 l 1.6875,-1.71875 a 1.1273049,1.1273049 0 0 0 0,-0.03125 c 0.0209,-0.02134 0.04212,-0.04075 0.0625,-0.0625 a 1.1273049,1.1273049 0 0 0 0.125,-0.1875 1.1273049,1.1273049 0 0 0 0.09375,-0.1875 c 1.127123,-1.50252 1.247523,-3.689959 -0.1875,-5.125 L 65.90625,25.75 c -1.500401,-1.500467 -3.843573,-1.343334 -5.34375,-0.0625 -0.124255,0.07148 -0.227755,0.143284 -0.25,0.15625 -0.0021,0.0012 -0.03121,-4.1e-5 -0.03125,0 l -1.6875,1.6875 c -0.937972,-0.445896 -1.899731,-0.838629 -2.875,-1.15625 l 0,-2.40625 c 0,-2.161429 -1.724333,-4.0625 -3.96875,-4.0625 l -7.5,0 z M 48,37 l 9.90625,9.90625 -1.90625,0 c 0.0056,6e-5 -0.193073,4.96e-4 -0.1875,0 0.0056,-4.96e-4 -0.224246,0.0323 -0.21875,0.03125 0.0055,-10e-4 -0.192865,0.06409 -0.1875,0.0625 0.0054,-0.0016 -0.223931,0.06461 -0.21875,0.0625 0.0052,-0.0021 -0.192445,0.09637 -0.1875,0.09375 0.0049,-0.0026 -0.160911,0.09685 -0.15625,0.09375 0.0047,-0.0031 -0.19183,0.128544 -0.1875,0.125 0.0043,-0.0035 -0.160206,0.128956 -0.15625,0.125 0.004,-0.004 -0.128544,0.16058 -0.125,0.15625 0.0035,-0.0043 -0.128096,0.192161 -0.125,0.1875 0.0031,-0.0047 -0.09637,0.161195 -0.09375,0.15625 0.0026,-0.0049 -0.09586,0.192681 -0.09375,0.1875 0.0021,-0.0052 -0.06409,0.224115 -0.0625,0.21875 0.0016,-0.0054 -0.06355,0.192996 -0.0625,0.1875 10e-4,-0.0055 -0.03175,0.224323 -0.03125,0.21875 4.96e-4,-0.0056 6e-5,0.193095 0,0.1875 l 0,9.90625 -11.8125,0 0,-9.90625 c -6e-5,0.0056 -4.96e-4,-0.193073 0,-0.1875 4.96e-4,0.0056 -0.0323,-0.224246 -0.03125,-0.21875 10e-4,0.0055 -0.06409,-0.192865 -0.0625,-0.1875 0.0016,0.0054 -0.06461,-0.223931 -0.0625,-0.21875 0.0021,0.0052 -0.09637,-0.192445 -0.09375,-0.1875 0.0026,0.0049 -0.09685,-0.160911 -0.09375,-0.15625 0.0031,0.0047 -0.128544,-0.19183 -0.125,-0.1875 0.0035,0.0043 -0.128956,-0.160206 -0.125,-0.15625 0.004,0.004 -0.16058,-0.128544 -0.15625,-0.125 0.0043,0.0035 -0.192161,-0.128096 -0.1875,-0.125 0.0047,0.0031 -0.161195,-0.09637 -0.15625,-0.09375 0.0049,0.0026 -0.192681,-0.09586 -0.1875,-0.09375 0.0052,0.0021 -0.224115,-0.06409 -0.21875,-0.0625 0.0054,0.0016 -0.192996,-0.06355 -0.1875,-0.0625 0.0055,10e-4 -0.224323,-0.03175 -0.21875,-0.03125 0.0056,4.96e-4 -0.193095,6e-5 -0.1875,0 l -1.90625,0 L 48,37 Z"
       display="block"
       visibility="visible"
       id="path42"
       inkscape:connector-curvature="0"
       style="display:block;visibility:visible;opacity:0.1;fill:black;fill-opacity:1;fill-rule:nonzero;stroke:none;stroke-width:1" />
    <path
       d="m 44.25,21.03125 c -1.596558,0 -2.84375,1.376449 -2.84375,2.9375 l 0,3.1875 c -1.466628,0.428594 -2.893087,0.974255 -4.25,1.6875 l -2.25,-2.1875 c -0.0071,-0.0071 -0.0241,0.007 -0.03125,0 -1.070776,-1.048831 -2.86686,-1.195647 -3.96875,-0.09375 l -5.34375,5.34375 c -1.10198,1.101892 -0.955076,2.897992 0.09375,3.96875 l 2.1875,2.28125 c -0.713241,1.35691 -1.258902,2.783371 -1.6875,4.25 l -3.1875,0 c -1.561056,0 -2.9375,1.247196 -2.9375,2.84375 l 0,7.5 c 0,1.596554 1.376445,2.84375 2.9375,2.84375 l 3.1875,0 c 0.428595,1.466625 0.97425,2.893084 1.6875,4.25 l -2.1875,2.28125 c -1.048777,1.07077 -1.195646,2.866847 -0.09375,3.96875 l 5.34375,5.34375 c 0.526791,0.526767 1.253839,0.850088 2,0.84375 0.828612,-0.007 1.489944,-0.463767 1.96875,-0.9375 l 0.03125,0 2.25,-2.1875 c 1.356912,0.713245 2.78337,1.258907 4.25,1.6875 l 0,3.1875 c 0,1.561051 1.247192,2.9375 2.84375,2.9375 l 7.5,0 c 1.596548,0 2.84375,-1.376438 2.84375,-2.9375 l 0,-3.1875 c 1.466629,-0.428593 2.893086,-0.974251 4.25,-1.6875 l 2.28125,2.1875 c 1.070761,1.048693 2.866824,1.19564 3.96875,0.09375 l 5.34375,-5.34375 c 1.102028,-1.101896 0.955058,-2.898003 -0.09375,-3.96875 l 0,-0.03125 -2.1875,-2.25 c 0.713243,-1.356913 1.258906,-2.783371 1.6875,-4.25 l 3.1875,0 c 1.561052,0 2.9375,-1.247191 2.9375,-2.84375 l 0,-7.5 c 0,-1.596562 -1.376426,-2.843785 -2.9375,-2.84375 l -3.1875,0 c -0.428593,-1.466633 -0.974256,-2.893091 -1.6875,-4.25 l 2.1875,-2.25 0,-0.03125 c 1.048701,-1.070761 1.195658,-2.866828 0.09375,-3.96875 L 65.09375,26.5625 c -1.101895,-1.101944 -2.897989,-0.955084 -3.96875,0.09375 -0.0071,0.007 -0.02417,-0.0071 -0.03125,0 l -2.25,2.1875 c -1.356912,-0.713245 -2.78337,-1.258906 -4.25,-1.6875 l 0,-3.1875 c 0,-1.561053 -1.247194,-2.9375 -2.84375,-2.9375 l -7.5,0 z M 48,35.375 60.65625,48.03125 56,48.03125 A 0.95851803,0.95851803 0 0 0 55.03125,49 l 0,11.03125 -14.0625,0 0,-11.03125 A 0.95851803,0.95851803 0 0 0 40,48.03125 l -4.65625,0 L 48,35.375 Z"
       display="block"
       visibility="visible"
       id="path44"
       inkscape:connector-curvature="0"
       style="display:block;visibility:visible;opacity:0.15;fill:black;fill-opacity:1;fill-rule:nonzero;stroke:none;stroke-width:1" />
    <path
       d="m 44.25,76 c -1.062585,0 -1.875,-0.888009 -1.875,-1.96875 l 0,-3.84375 c -1.899961,-0.506223 -3.776452,-1.190199 -5.4375,-2.15625 l -2.71875,2.625 c -0.382108,0.382089 -0.818023,0.652065 -1.3125,0.65625 -0.494477,0.0042 -0.936823,-0.18684 -1.3125,-0.5625 L 26.25,65.40625 c -0.751351,-0.751356 -0.670403,-1.860801 0.09375,-2.625 l 2.625,-2.71875 C 28.00269,58.401451 27.318735,56.524963 26.8125,54.625 l -3.84375,0 C 21.888008,54.625 21,53.812579 21,52.75 l 0,-7.5 c 0,-1.062576 0.88801,-1.875 1.96875,-1.875 l 3.84375,0 c 0.506236,-1.899966 1.190205,-3.776457 2.15625,-5.4375 l -2.625,-2.71875 C 25.579552,34.454551 25.498584,33.345106 26.25,32.59375 L 31.59375,27.25 c 0.751351,-0.751356 1.8608,-0.67044 2.625,0.09375 l 2.71875,2.625 c 1.661048,-0.966051 3.53754,-1.650024 5.4375,-2.15625 l 0,-3.84375 C 42.375,22.888009 43.187415,22 44.25,22 l 7.5,0 c 1.062582,0 1.875,0.888009 1.875,1.96875 l 0,3.84375 c 1.899963,0.506226 3.776454,1.190199 5.4375,2.15625 l 2.71875,-2.625 c 0.76419,-0.764193 1.873644,-0.845139 2.625,-0.09375 L 69.75,32.59375 c 0.75135,0.751359 0.67035,1.860804 -0.09375,2.625 l -2.625,2.71875 c 0.966048,1.661043 1.650027,3.537534 2.15625,5.4375 l 3.84375,0 C 74.111979,43.374976 75,44.187421 75,45.25 l 0,7.5 c 0,1.062573 -0.888021,1.875 -1.96875,1.875 l -3.84375,0 c -0.506223,1.89996 -1.190202,3.776448 -2.15625,5.4375 l 2.625,2.71875 c 0.76419,0.764196 0.845196,1.873644 0.09375,2.625 L 64.40625,70.75 c -0.751371,0.751347 -1.860798,0.67035 -2.625,-0.09375 l -2.71875,-2.625 c -1.661049,0.966057 -3.537537,1.650024 -5.4375,2.15625 l 0,3.84375 C 53.625,75.111997 52.812573,76 51.75,76 Z M 40,61 l 16,0 0,-12 7,0 -15,-15 -15,15 7,0 z"
       display="block"
       visibility="visible"
       inkscape:connector-curvature="0"
       id="path46"
       style="display:block;visibility:visible;opacity:0.3;fill:black;fill-opacity:1;fill-rule:nonzero;stroke:none;stroke-width:1" />
    <path
       d="m 44.25,75 c -1.062585,0 -1.875,-0.888009 -1.875,-1.96875 l 0,-3.84375 c -1.899961,-0.506223 -3.776452,-1.190199 -5.4375,-2.15625 l -2.71875,2.625 c -0.382108,0.382089 -0.818023,0.652065 -1.3125,0.65625 -0.494477,0.0042 -0.936823,-0.18684 -1.3125,-0.5625 L 26.25,64.40625 c -0.751351,-0.751356 -0.670403,-1.860801 0.09375,-2.625 l 2.625,-2.71875 C 28.00269,57.401451 27.318735,55.524963 26.8125,53.625 l -3.84375,0 C 21.888008,53.625 21,52.812579 21,51.75 l 0,-7.5 c 0,-1.062576 0.88801,-1.875 1.96875,-1.875 l 3.84375,0 c 0.506236,-1.899966 1.190205,-3.776457 2.15625,-5.4375 l -2.625,-2.71875 C 25.579552,33.454551 25.498584,32.345106 26.25,31.59375 L 31.59375,26.25 c 0.751351,-0.751356 1.8608,-0.67044 2.625,0.09375 l 2.71875,2.625 c 1.661048,-0.966051 3.53754,-1.650024 5.4375,-2.15625 l 0,-3.84375 C 42.375,21.888009 43.187415,21 44.25,21 l 7.5,0 c 1.062582,0 1.875,0.888009 1.875,1.96875 l 0,3.84375 c 1.899963,0.506226 3.776454,1.190199 5.4375,2.15625 l 2.71875,-2.625 c 0.76419,-0.764193 1.873644,-0.845139 2.625,-0.09375 L 69.75,31.59375 c 0.75135,0.751359 0.67035,1.860804 -0.09375,2.625 l -2.625,2.71875 c 0.966048,1.661043 1.650027,3.537534 2.15625,5.4375 l 3.84375,0 C 74.111979,42.374976 75,43.187421 75,44.25 l 0,7.5 c 0,1.062573 -0.888021,1.875 -1.96875,1.875 l -3.84375,0 c -0.506223,1.89996 -1.190202,3.776448 -2.15625,5.4375 l 2.625,2.71875 c 0.76419,0.764196 0.845196,1.873644 0.09375,2.625 L 64.40625,69.75 c -0.751371,0.751347 -1.860798,0.67035 -2.625,-0.09375 l -2.71875,-2.625 c -1.661049,0.966057 -3.537537,1.650024 -5.4375,2.15625 l 0,3.84375 C 53.625,74.111997 52.812573,75 51.75,75 Z M 40,60 l 16,0 0,-12 7,0 -15,-15 -15,15 7,0 z"
       display="block"
       visibility="visible"
       inkscape:connector-curvature="0"
       id="path60"
       style="display:block;visibility:visible;fill:url(#linearGradient3053);fill-opacity:1;fill-rule:nonzero;stroke:none;stroke-width:1" />
    <path
       d="m 44.25,75 c -1.062585,0 -1.875,-0.888009 -1.875,-1.96875 l 0,-1 C 42.375,73.111991 43.187415,74 44.25,74 l 7.5,0 c 1.062573,0 1.875,-0.888003 1.875,-1.96875 l 0,1 C 53.625,74.111997 52.812573,75 51.75,75 l -7.5,0 z M 32.90625,70.3125 C 32.411773,70.3167 31.969427,70.12566 31.59375,69.75 L 26.25,64.40625 c -0.494959,-0.494963 -0.622293,-1.14531 -0.4375,-1.75 0.08058,0.26611 0.215707,0.528205 0.4375,0.75 L 31.59375,68.75 c 0.375677,0.37566 0.818023,0.5667 1.3125,0.5625 0.494477,-0.0042 0.930392,-0.274161 1.3125,-0.65625 l 2.71875,-2.625 c 1.661048,0.966051 3.537539,1.650027 5.4375,2.15625 l 0,1 c -1.899961,-0.506223 -3.776452,-1.190199 -5.4375,-2.15625 l -2.71875,2.625 c -0.382108,0.382089 -0.818023,0.652065 -1.3125,0.65625 z m 30.1875,-0.03125 c -0.466803,-0.02184 -0.930399,-0.24295 -1.3125,-0.625 l -2.71875,-2.625 c -1.661049,0.966057 -3.537537,1.650024 -5.4375,2.15625 l 0,-1 c 1.899963,-0.506226 3.776451,-1.190193 5.4375,-2.15625 l 2.71875,2.625 c 0.764202,0.7641 1.873629,0.845097 2.625,0.09375 L 69.75,63.40625 c 0.221821,-0.221795 0.356917,-0.48389 0.4375,-0.75 0.184813,0.60469 0.05752,1.255037 -0.4375,1.75 L 64.40625,69.75 c -0.375686,0.375673 -0.845697,0.553093 -1.3125,0.53125 z M 28.625,58.40625 C 27.843216,56.911592 27.254257,55.28297 26.8125,53.625 l -3.84375,0 C 21.888008,53.625 21,52.812579 21,51.75 l 0,-1 c 0,1.062579 0.888008,1.875 1.96875,1.875 l 3.84375,0 c 0.506235,1.899963 1.19019,3.776451 2.15625,5.4375 L 28.625,58.40625 Z m 38.75,0 -0.34375,-0.34375 c 0.966048,-1.661052 1.650027,-3.53754 2.15625,-5.4375 l 3.84375,0 C 74.111979,52.625 75,51.812573 75,50.75 l 0,1 c 0,1.062573 -0.888021,1.875 -1.96875,1.875 l -3.84375,0 c -0.441747,1.657967 -1.030719,3.28659 -1.8125,4.78125 z M 33,47 48,32 63,47 62,47 48,33 34,47 33,47 Z m -4.375,-10.40625 -2.28125,-2.375 c -0.538613,-0.538613 -0.723653,-1.239631 -0.53125,-1.875 0.09573,0.313233 0.270474,0.614224 0.53125,0.875 l 2.625,2.71875 c -0.123042,0.211562 -0.229644,0.438094 -0.34375,0.65625 z m 38.75,0 C 67.260893,36.375594 67.154293,36.149062 67.03125,35.9375 l 2.625,-2.71875 c 0.260742,-0.260775 0.435526,-0.561767 0.53125,-0.875 0.192376,0.63537 0.0073,1.336389 -0.53125,1.875 l -2.28125,2.375 z"
       display="block"
       visibility="visible"
       inkscape:connector-curvature="0"
       id="path62"
       style="display:block;visibility:visible;opacity:0.15;fill:black;fill-opacity:1;fill-rule:nonzero;stroke:none;stroke-width:1" />
    <path
       d="m 25.8125,63.65625 c -0.192389,-0.635369 -0.0073,-1.336387 0.53125,-1.875 l 2.28125,-2.375 c 0.114107,0.218156 0.220706,0.444687 0.34375,0.65625 l -2.625,2.71875 c -0.26076,0.260776 -0.435526,0.561767 -0.53125,0.875 z m 44.375,0 c -0.09573,-0.313233 -0.270477,-0.614225 -0.53125,-0.875 l -2.625,-2.71875 c 0.123043,-0.211564 0.229643,-0.438093 0.34375,-0.65625 l 2.28125,2.375 c 0.538607,0.538611 0.723653,1.23963 0.53125,1.875 z M 40,61 l 0,-1 16,0 0,1 -16,0 z m -7,-12 1,-1 6,0 0,1 -7,0 z m 23,0 0,-1 6,0 1,1 -7,0 z m -35,-3.75 0,-1 c 0,-1.062576 0.88801,-1.875 1.96875,-1.875 l 3.84375,0 c 0.441758,-1.657973 1.030723,-3.286595 1.8125,-4.78125 l 0.34375,0.34375 c -0.966045,1.661043 -1.650014,3.537534 -2.15625,5.4375 l -3.84375,0 C 21.88801,43.375 21,44.187424 21,45.25 Z m 54,0 c 0,-1.062579 -0.888021,-1.875024 -1.96875,-1.875 l -3.84375,0 C 68.681277,41.475034 67.997298,39.598543 67.03125,37.9375 L 67.375,37.59375 c 0.781781,1.494655 1.370753,3.123277 1.8125,4.78125 l 3.84375,0 C 74.111979,42.374976 75,43.187421 75,44.25 l 0,1 z M 25.8125,33.34375 c -0.184807,-0.60469 -0.0575,-1.255037 0.4375,-1.75 L 31.59375,26.25 c 0.751351,-0.751356 1.8608,-0.67044 2.625,0.09375 l 2.71875,2.625 c 1.661048,-0.966051 3.53754,-1.650024 5.4375,-2.15625 l 0,1 c -1.89996,0.506226 -3.776452,1.190199 -5.4375,2.15625 l -2.71875,-2.625 C 33.45455,26.57956 32.345101,26.498644 31.59375,27.25 L 26.25,32.59375 c -0.221812,0.221795 -0.356917,0.48389 -0.4375,0.75 z m 44.375,0 c -0.08057,-0.26611 -0.215707,-0.528205 -0.4375,-0.75 L 64.40625,27.25 c -0.751356,-0.751389 -1.86081,-0.670443 -2.625,0.09375 l -2.71875,2.625 C 57.401454,29.002699 55.524963,28.318726 53.625,27.8125 l 0,-1 c 1.899963,0.506226 3.776454,1.190199 5.4375,2.15625 l 2.71875,-2.625 c 0.76419,-0.764193 1.873644,-0.845139 2.625,-0.09375 L 69.75,31.59375 c 0.494959,0.494965 0.622293,1.14531 0.4375,1.75 z m -27.8125,-9.375 0,-1 C 42.375,21.888009 43.187415,21 44.25,21 l 7.5,0 c 1.062582,0 1.875,0.888009 1.875,1.96875 l 0,1 C 53.625,22.888009 52.812582,22 51.75,22 l -7.5,0 c -1.062585,0 -1.875,0.888009 -1.875,1.96875 z"
       display="block"
       visibility="visible"
       inkscape:connector-curvature="0"
       id="path64"
       style="display:block;visibility:visible;opacity:0.75;fill:white;fill-opacity:1;fill-rule:nonzero;stroke:none;stroke-width:1" />
  </g>
</svg>
