<?xml version="1.0" encoding="UTF-8" standalone="no"?>
<svg
   xmlns:dc="http://purl.org/dc/elements/1.1/"
   xmlns:cc="http://creativecommons.org/ns#"
   xmlns:rdf="http://www.w3.org/1999/02/22-rdf-syntax-ns#"
   xmlns:svg="http://www.w3.org/2000/svg"
   xmlns="http://www.w3.org/2000/svg"
   xmlns:xlink="http://www.w3.org/1999/xlink"
   xmlns:sodipodi="http://sodipodi.sourceforge.net/DTD/sodipodi-0.dtd"
   xmlns:inkscape="http://www.inkscape.org/namespaces/inkscape"
   height="96"
   width="96"
   id="svg2"
   version="1.1"
   inkscape:version="0.91 r13725"
   sodipodi:docname="system-upgrade.svg">
  <metadata
     id="metadata68">
    <rdf:RDF>
      <cc:Work
         rdf:about="">
        <dc:format>image/svg+xml</dc:format>
        <dc:type
           rdf:resource="http://purl.org/dc/dcmitype/StillImage" />
      </cc:Work>
    </rdf:RDF>
  </metadata>
  <sodipodi:namedview
     pagecolor="#ffffff"
     bordercolor="#666666"
     borderopacity="1"
     objecttolerance="10"
     gridtolerance="10"
     guidetolerance="10"
     inkscape:pageopacity="0"
     inkscape:pageshadow="2"
     inkscape:window-width="640"
     inkscape:window-height="480"
     id="namedview66"
     showgrid="false"
     inkscape:zoom="27.812867"
     inkscape:cx="49.688636"
     inkscape:cy="12.701794"
     inkscape:window-x="26"
     inkscape:window-y="52"
     inkscape:window-maximized="0"
     inkscape:current-layer="svg2" />
  <defs
     id="defs4">
    <linearGradient
       x2="0"
       y1="92.54"
       y2="7.02"
       gradientUnits="userSpaceOnUse"
       id="ButtonShadow-0"
       gradientTransform="matrix(1.0059 0 0 0.99417 100 0)">
      <stop
         stop-color="#000000"
         stop-opacity="1"
         id="stop7" />
      <stop
         stop-color="#000000"
         stop-opacity="0.588"
         offset="1"
         id="stop9" />
    </linearGradient>
    <linearGradient
       x2="0"
       xlink:href="#ButtonShadow-0"
       y1="6.132"
       y2="90.24"
       gradientUnits="userSpaceOnUse"
       id="linearGradient3780"
       gradientTransform="matrix(1.02381 0 0 -1.0119 -1.143 98.07)" />
    <linearGradient
       x2="0"
       xlink:href="#ButtonShadow-0"
       y1="6.132"
       y2="90.24"
       gradientUnits="userSpaceOnUse"
       id="linearGradient3721"
       gradientTransform="matrix(1 0 0 -1 0 97)" />
    <radialGradient
       cy="90.17"
       r="42"
       gradientUnits="userSpaceOnUse"
       id="radialGradient3619-3"
       cx="48"
       gradientTransform="matrix(1.15731 0 0 0.99591 -7.551 0.197)">
      <stop
         stop-color="#ffffff"
         stop-opacity="1"
         id="stop14" />
      <stop
         stop-color="#ffffff"
         stop-opacity="0"
         offset="1"
         id="stop16" />
    </radialGradient>
    <linearGradient
       x2="0"
       y1="44.5"
       y2="1.5"
       gradientUnits="userSpaceOnUse"
       id="linearGradient3053"
       gradientTransform="matrix(1.7265701,0,0,-1.7265701,6.5629223,86.336755)">
      <stop
         stop-color="#1a1a1a"
         stop-opacity="1"
         id="stop19" />
      <stop
         stop-color="#4d4d4d"
         stop-opacity="1"
         offset="1"
         id="stop21" />
    </linearGradient>
    <rect
       x="6"
       rx="6"
       y="6"
       fill="#000000"
       fill-opacity="1"
       stroke="none"
       fill-rule="nonzero"
       height="84"
       id="SVGCleanerId_0"
       opacity="0.6"
       width="84" />
  </defs>
  <path
     style="display:block;visibility:visible;fill:url(#linearGradient3053);fill-opacity:1;fill-rule:nonzero;stroke:none;stroke-width:1"
     id="path60"
     inkscape:connector-curvature="0"
     visibility="visible"
     display="block"
     d="m 42.844253,83.746509 c -1.460911,0 -2.577873,-1.220894 -2.577873,-2.706767 l 0,-5.28464 c -2.612191,-0.695989 -5.192114,-1.636364 -7.475832,-2.964555 l -3.737916,3.609023 c -0.525348,0.525321 -1.124672,0.896502 -1.804512,0.902256 -0.679839,0.0058 -1.288005,-0.25688 -1.804511,-0.773362 l -7.346938,-7.346939 c -1.033007,-1.033014 -0.921714,-2.558351 0.128893,-3.609022 l 3.609023,-3.737917 c -1.328203,-2.283719 -2.268549,-4.863638 -2.964554,-7.475832 l -5.28464,0 c -1.485876,0 -2.706767,-1.11697 -2.706767,-2.577873 l 0,-10.311493 c 0,-1.460899 1.220894,-2.577873 2.706767,-2.577873 l 5.28464,0 c 0.696006,-2.612198 1.636372,-5.192121 2.964554,-7.475832 l -3.609023,-3.737916 c -1.050669,-1.050671 -1.161989,-2.576009 -0.128893,-3.609023 l 7.346938,-7.346938 c 1.033007,-1.033014 2.55835,-0.921765 3.609023,0.128893 l 3.737916,3.609023 c 2.283718,-1.328191 4.863642,-2.268562 7.475832,-2.964554 l 0,-5.28464 c 0,-1.485874 1.116962,-2.7067673 2.577873,-2.7067673 l 10.311493,0 c 1.460908,0 2.577873,1.2208933 2.577873,2.7067673 l 0,5.28464 c 2.612194,0.695992 5.192117,1.636363 7.475832,2.964554 l 3.737917,-3.609023 c 1.050658,-1.050662 2.576008,-1.161952 3.609022,-0.128893 l 7.346939,7.346938 c 1.033005,1.033018 0.921641,2.558356 -0.128894,3.609023 l -3.609023,3.737916 c 1.328187,2.283711 2.268566,4.863634 2.964555,7.475832 l 5.28464,0 c 1.485857,-3.3e-5 2.706767,1.11697 2.706767,2.577873 l 0,10.311493 c 0,1.460895 -1.22091,2.577873 -2.706767,2.577873 l -5.28464,0 c -0.695989,2.61219 -1.636368,5.192109 -2.964555,7.475832 l 3.609023,3.737917 c 1.050659,1.050666 1.162031,2.576008 0.128894,3.609022 l -7.346939,7.346939 c -1.033034,1.033001 -2.558347,0.921641 -3.609022,-0.128894 l -3.737917,-3.609023 c -2.283719,1.328199 -4.863638,2.268562 -7.475832,2.964555 l 0,5.28464 c 0,1.485882 -1.116978,2.706767 -2.577873,2.706767 z m -5.843179,-20.622986 21.997851,0 0,-16.498388 9.62406,0 L 48,26.002149 27.377014,46.625135 l 9.62406,0 z" />
  <path
     style="display:block;visibility:visible;opacity:0.15;fill:#000000;fill-opacity:1;fill-rule:nonzero;stroke:none;stroke-width:1"
     id="path62"
     inkscape:connector-curvature="0"
     visibility="visible"
     display="block"
     d="m 42.844253,83.746509 c -1.460911,0 -2.577873,-1.220894 -2.577873,-2.706767 l 0,-1.374866 c 0,1.485874 1.116962,2.706767 2.577873,2.706767 l 10.311493,0 c 1.460895,0 2.577873,-1.220885 2.577873,-2.706767 l 0,1.374866 c 0,1.485882 -1.116978,2.706767 -2.577873,2.706767 l -10.311493,0 z M 27.24812,77.301826 c -0.679839,0.0058 -1.288005,-0.25688 -1.804511,-0.773362 l -7.346938,-7.346939 c -0.680503,-0.680508 -0.85557,-1.574647 -0.601504,-2.406015 0.110787,0.365866 0.296568,0.726211 0.601504,1.031149 l 7.346938,7.346939 c 0.516506,0.516482 1.124672,0.779136 1.804511,0.773362 0.67984,-0.0058 1.279164,-0.376935 1.804512,-0.902256 l 3.737916,-3.609022 c 2.283718,1.32819 4.863641,2.268565 7.475832,2.964554 l 0,1.374866 c -2.612191,-0.695989 -5.192114,-1.636364 -7.475832,-2.964555 l -3.737916,3.609023 c -0.525348,0.525321 -1.124672,0.896502 -1.804512,0.902256 z m 41.503759,-0.04297 c -0.641792,-0.03003 -1.279174,-0.334024 -1.804511,-0.859291 l -3.737917,-3.609023 c -2.283719,1.328199 -4.863638,2.268562 -7.475832,2.964555 l 0,-1.374866 c 2.612194,-0.695993 5.192113,-1.636356 7.475832,-2.964554 l 3.737917,3.609022 c 1.050675,1.050535 2.575988,1.161895 3.609022,0.128894 l 7.346939,-7.346939 c 0.304974,-0.304938 0.490713,-0.665283 0.601503,-1.031149 0.254093,0.831368 0.07908,1.725507 -0.601503,2.406015 l -7.346939,7.346939 c -0.516518,0.516499 -1.16272,0.760428 -1.804511,0.730397 z M 21.361977,60.932331 C 20.287129,58.877377 19.477389,56.63824 18.870033,54.358754 l -5.28464,0 c -1.485876,0 -2.706767,-1.11697 -2.706767,-2.577873 l 0,-1.374866 c 0,1.460904 1.220891,2.577873 2.706767,2.577873 l 5.28464,0 c 0.696005,2.612194 1.636351,5.192113 2.964554,7.475833 l -0.47261,0.47261 z m 53.276046,0 -0.472611,-0.47261 c 1.328187,-2.283724 2.268566,-4.863643 2.964555,-7.475833 l 5.28464,0 c 1.485857,0 2.706767,-1.116978 2.706767,-2.577873 l 0,1.374866 c 0,1.460895 -1.22091,2.577873 -2.706767,2.577873 l -5.28464,0 c -0.607343,2.279482 -1.417101,4.51862 -2.491944,6.573577 z M 27.377014,45.250269 48,24.627283 l 20.622985,20.622986 -1.374866,0 L 48,26.002149 l -19.24812,19.24812 -1.374866,0 z M 21.361977,30.943073 18.225564,27.677767 c -0.74052,-0.740521 -0.994925,-1.704326 -0.730397,-2.577874 0.131616,0.430654 0.371865,0.844476 0.730397,1.203008 l 3.609023,3.737916 c -0.169166,0.290869 -0.31573,0.602321 -0.47261,0.902256 z m 53.276046,0 C 74.481141,30.643138 74.33458,30.331686 74.165412,30.040817 l 3.609023,-3.737916 c 0.358485,-0.358531 0.59879,-0.772354 0.730397,-1.203008 0.264491,0.873549 0.01004,1.837356 -0.730397,2.577874 l -3.136412,3.265306 z" />
  <path
     style="display:block;visibility:visible;opacity:0.75;fill:#ffffff;fill-opacity:1;fill-rule:nonzero;stroke:none;stroke-width:1"
     id="path64"
     inkscape:connector-curvature="0"
     visibility="visible"
     display="block"
     d="m 17.495167,68.150376 c -0.264509,-0.873547 -0.01004,-1.837353 0.730397,-2.577873 l 3.136413,-3.265307 c 0.156881,0.299936 0.303441,0.611385 0.47261,0.902256 l -3.609023,3.737916 c -0.35851,0.358532 -0.598789,0.772354 -0.730397,1.203008 z m 61.009665,0 c -0.131616,-0.430654 -0.371869,-0.844477 -0.730397,-1.203008 l -3.609023,-3.737916 c 0.169168,-0.290872 0.315729,-0.602319 0.472611,-0.902256 l 3.136412,3.265307 c 0.740512,0.740517 0.994926,1.704324 0.730397,2.577873 z m -41.503758,-3.651987 0,-1.374866 21.997851,0 0,1.374866 -21.997851,0 z M 27.377014,48 l 1.374866,-1.374865 8.249194,0 0,1.374865 -9.62406,0 z m 31.621911,0 0,-1.374865 8.249194,0 L 68.622985,48 l -9.62406,0 z m -48.120299,-5.155746 0,-1.374866 c 0,-1.460899 1.220894,-2.577873 2.706767,-2.577873 l 5.28464,0 c 0.607358,-2.27949 1.417105,-4.518627 2.491944,-6.573577 l 0.47261,0.47261 c -1.328182,2.283712 -2.268548,4.863635 -2.964554,7.475833 l -5.28464,0 c -1.485873,0 -2.706767,1.116974 -2.706767,2.577873 z m 74.242748,0 c 0,-1.460903 -1.22091,-2.577906 -2.706767,-2.577873 l -5.28464,0 C 76.433978,37.654183 75.493599,35.07426 74.165412,32.790548 l 0.472611,-0.47261 c 1.074843,2.05495 1.884601,4.294087 2.491944,6.573577 l 5.28464,0 c 1.485857,-3.3e-5 2.706767,1.11697 2.706767,2.577873 l 0,1.374866 z M 17.495167,26.474759 c -0.254085,-0.831367 -0.07906,-1.725507 0.601504,-2.406015 l 7.346938,-7.346938 c 1.033007,-1.033014 2.55835,-0.921765 3.609023,0.128893 l 3.737916,3.609023 c 2.283718,-1.328191 4.863642,-2.268562 7.475832,-2.964554 l 0,1.374865 c -2.61219,0.695993 -5.192114,1.636364 -7.475832,2.964554 l -3.737916,-3.609022 c -1.050673,-1.050659 -2.576016,-1.161907 -3.609023,-0.128894 l -7.346938,7.346939 c -0.304962,0.304938 -0.490713,0.665284 -0.601504,1.031149 z m 61.009665,0 C 78.394059,26.108894 78.208264,25.748548 77.903329,25.44361 L 70.55639,18.096671 c -1.033014,-1.033059 -2.558364,-0.921769 -3.609022,0.128894 l -3.737917,3.609022 c -2.283715,-1.32819 -4.863638,-2.268561 -7.475832,-2.964554 l 0,-1.374865 c 2.612194,0.695992 5.192117,1.636363 7.475832,2.964554 l 3.737917,-3.609023 c 1.050658,-1.050662 2.576008,-1.161952 3.609022,-0.128893 l 7.346939,7.346938 c 0.680502,0.680511 0.855569,1.574648 0.601503,2.406015 z M 40.26638,13.585393 l 0,-1.374865 c 0,-1.485874 1.116962,-2.7067673 2.577873,-2.7067673 l 10.311493,0 c 1.460908,0 2.577873,1.2208933 2.577873,2.7067673 l 0,1.374865 c 0,-1.485873 -1.116965,-2.706767 -2.577873,-2.706767 l -10.311493,0 c -1.460911,0 -2.577873,1.220894 -2.577873,2.706767 z" />
</svg>
