<?xml version="1.0" encoding="UTF-8" standalone="no"?>
<svg
   xmlns:dc="http://purl.org/dc/elements/1.1/"
   xmlns:cc="http://creativecommons.org/ns#"
   xmlns:rdf="http://www.w3.org/1999/02/22-rdf-syntax-ns#"
   xmlns:svg="http://www.w3.org/2000/svg"
   xmlns="http://www.w3.org/2000/svg"
   xmlns:xlink="http://www.w3.org/1999/xlink"
   xmlns:sodipodi="http://sodipodi.sourceforge.net/DTD/sodipodi-0.dtd"
   xmlns:inkscape="http://www.inkscape.org/namespaces/inkscape"
   height="96"
   width="96"
   id="svg2"
   version="1.1"
   inkscape:version="0.91 r13725"
   sodipodi:docname="tag-new.svg">
  <metadata
     id="metadata68">
    <rdf:RDF>
      <cc:Work
         rdf:about="">
        <dc:format>image/svg+xml</dc:format>
        <dc:type
           rdf:resource="http://purl.org/dc/dcmitype/StillImage" />
      </cc:Work>
    </rdf:RDF>
  </metadata>
  <sodipodi:namedview
     pagecolor="#ffffff"
     bordercolor="#666666"
     borderopacity="1"
     objecttolerance="10"
     gridtolerance="10"
     guidetolerance="10"
     inkscape:pageopacity="0"
     inkscape:pageshadow="2"
     inkscape:window-width="640"
     inkscape:window-height="480"
     id="namedview66"
     showgrid="false"
     inkscape:zoom="9.8333333"
     inkscape:cx="28.955763"
     inkscape:cy="6.3802622"
     inkscape:window-x="246"
     inkscape:window-y="252"
     inkscape:window-maximized="0"
     inkscape:current-layer="svg2" />
  <defs
     id="defs4">
    <linearGradient
       x2="0"
       y1="92.54"
       y2="7.02"
       gradientUnits="userSpaceOnUse"
       id="ButtonShadow-0"
       gradientTransform="matrix(1.0059 0 0 0.99417 100 0)">
      <stop
         stop-color="#000000"
         stop-opacity="1"
         id="stop7" />
      <stop
         stop-color="#000000"
         stop-opacity="0.588"
         offset="1"
         id="stop9" />
    </linearGradient>
    <linearGradient
       x2="0"
       xlink:href="#ButtonShadow-0"
       y1="6.132"
       y2="90.24"
       gradientUnits="userSpaceOnUse"
       id="linearGradient3780"
       gradientTransform="matrix(1.02381 0 0 -1.0119 -1.143 98.07)" />
    <linearGradient
       x2="0"
       xlink:href="#ButtonShadow-0"
       y1="6.132"
       y2="90.24"
       gradientUnits="userSpaceOnUse"
       id="linearGradient3721"
       gradientTransform="matrix(1 0 0 -1 0 97)" />
    <radialGradient
       cy="90.17"
       r="42"
       gradientUnits="userSpaceOnUse"
       id="radialGradient3619-3"
       cx="48"
       gradientTransform="matrix(1.15731 0 0 0.99591 -7.551 0.197)">
      <stop
         stop-color="#ffffff"
         stop-opacity="1"
         id="stop14" />
      <stop
         stop-color="#ffffff"
         stop-opacity="0"
         offset="1"
         id="stop16" />
    </radialGradient>
    <linearGradient
       x2="0"
       y1="5.532"
       y2="20.283"
       gradientUnits="userSpaceOnUse"
       id="linearGradient3133"
       gradientTransform="matrix(3.9511234,0,0,4.6483905,-6.256161,-10.562273)">
      <stop
         stop-color="#1a1a1a"
         stop-opacity="1"
         id="stop19" />
      <stop
         stop-color="#4d4d4d"
         stop-opacity="1"
         offset="1"
         id="stop21" />
    </linearGradient>
    <rect
       x="6"
       rx="6"
       y="6"
       fill="#000000"
       fill-opacity="1"
       stroke="none"
       fill-rule="nonzero"
       height="84"
       id="SVGCleanerId_0"
       opacity="0.6"
       width="84" />
  </defs>
  <path
     style="fill:url(#linearGradient3133);fill-opacity:1;stroke:none"
     id="path60"
     inkscape:connector-curvature="0"
     d="m 28.117924,9.4371946 a 3.601006,3.6001172 0 0 0 -2.94635,3.6159754 l 0,18.883426 a 3.601006,3.6001172 0 0 0 1.0714,2.544575 L 60.126,68.364197 a 3.601006,3.6001172 0 0 0 5.089151,0 L 84.098577,49.480771 a 3.601006,3.6001172 0 0 0 0,-5.08915 L 50.21555,10.508595 A 3.601006,3.6001172 0 0 0 47.670975,9.4371946 l -18.883426,0 a 3.601006,3.6001172 0 0 0 -0.669625,0 z m 12.05325,8.5712004 c 3.551325,0 6.428401,2.877953 6.428401,6.4284 0,3.550449 -2.877076,6.428401 -6.428401,6.428401 -3.551324,0 -6.4284,-2.877952 -6.4284,-6.428401 0,-3.550447 2.877076,-6.4284 6.4284,-6.4284 z m -17.856667,31.427735 0,11.428267 -11.428267,0 0,11.428267 11.428267,0 0,11.428267 11.428267,0 0,-11.428267 11.428267,0 0,-11.428267 -11.428267,0 0,-11.428267 -11.428267,0 z" />
  <path
     style="opacity:0.75;fill:#ffffff;fill-opacity:1;stroke:none"
     id="path62"
     inkscape:connector-curvature="0"
     d="m 28.117924,9.4371946 a 3.601006,3.6001172 0 0 0 -2.94635,3.6159754 l 0,1.026758 a 3.601006,3.6001172 0 0 1 2.94635,-3.2142 3.601006,3.6001172 0 0 1 0.669625,0 l 18.883426,0 a 3.601006,3.6001172 0 0 1 2.544575,1.0714 l 33.883027,33.883027 a 3.601006,3.6001172 0 0 1 0.982116,1.785666 3.601006,3.6001172 0 0 0 -0.982116,-3.2142 L 50.21555,10.508595 A 3.601006,3.6001172 0 0 0 47.670975,9.4371946 l -18.883426,0 a 3.601006,3.6001172 0 0 0 -0.669625,0 z m 5.714134,15.7138674 c -0.02676,0.238245 -0.08928,0.468868 -0.08928,0.714267 0,3.550448 2.877076,6.4284 6.4284,6.4284 3.551325,0 6.428401,-2.877952 6.428401,-6.4284 0,-0.245399 -0.06253,-0.476022 -0.08928,-0.714267 -0.360429,3.208705 -3.033252,5.714134 -6.339117,5.714134 -3.305864,0 -5.978687,-2.505429 -6.339116,-5.714134 z m -11.517551,24.285068 0,1.428533 11.428267,0 0,-1.428533 -11.428267,0 z m -11.428267,11.428267 0,1.428533 11.428267,0 0,-1.428533 -11.428267,0 z m 22.856534,0 0,1.428533 11.428267,0 0,-1.428533 -11.428267,0 z" />
  <path
     style="opacity:0.15;fill:#000000;fill-opacity:1;stroke:none"
     id="path64"
     inkscape:connector-curvature="0"
     d="m 40.171174,16.579862 c -3.551324,0 -6.4284,2.877953 -6.4284,6.4284 0,0.245399 0.06253,0.476022 0.08928,0.714267 0.360429,-3.208704 3.033252,-5.714134 6.339116,-5.714134 3.305865,0 5.978688,2.50543 6.339117,5.714134 0.02676,-0.238245 0.08928,-0.468868 0.08928,-0.714267 0,-3.550447 -2.877076,-6.4284 -6.428401,-6.4284 z m -14.9996,14.285334 0,1.0714 a 3.601006,3.6001172 0 0 0 1.0714,2.544575 L 60.126,68.364197 a 3.601006,3.6001172 0 0 0 5.089151,0 L 84.098577,49.480771 a 3.601006,3.6001172 0 0 0 0.982116,-3.303483 3.601006,3.6001172 0 0 1 -0.982116,1.87495 L 65.215151,66.935664 a 3.601006,3.6001172 0 0 1 -5.089151,0 L 26.242974,33.052637 a 3.601006,3.6001172 0 0 1 -1.0714,-2.187441 z m -14.285334,39.998935 0,1.428533 11.428267,0 0,-1.428533 -11.428267,0 z m 22.856534,0 0,1.428533 11.428267,0 0,-1.428533 -11.428267,0 z m -11.428267,11.428267 0,1.428533 11.428267,0 0,-1.428533 -11.428267,0 z" />
</svg>
