<?xml version="1.0" encoding="UTF-8" standalone="no"?>
<svg
   xmlns:dc="http://purl.org/dc/elements/1.1/"
   xmlns:cc="http://creativecommons.org/ns#"
   xmlns:rdf="http://www.w3.org/1999/02/22-rdf-syntax-ns#"
   xmlns:svg="http://www.w3.org/2000/svg"
   xmlns="http://www.w3.org/2000/svg"
   xmlns:xlink="http://www.w3.org/1999/xlink"
   xmlns:sodipodi="http://sodipodi.sourceforge.net/DTD/sodipodi-0.dtd"
   xmlns:inkscape="http://www.inkscape.org/namespaces/inkscape"
   height="96"
   width="96"
   id="svg2"
   version="1.1"
   inkscape:version="0.91 r13725"
   sodipodi:docname="tag-new.svg">
  <metadata
     id="metadata68">
    <rdf:RDF>
      <cc:Work
         rdf:about="">
        <dc:format>image/svg+xml</dc:format>
        <dc:type
           rdf:resource="http://purl.org/dc/dcmitype/StillImage" />
      </cc:Work>
    </rdf:RDF>
  </metadata>
  <sodipodi:namedview
     pagecolor="#ffffff"
     bordercolor="#666666"
     borderopacity="1"
     objecttolerance="10"
     gridtolerance="10"
     guidetolerance="10"
     inkscape:pageopacity="0"
     inkscape:pageshadow="2"
     inkscape:window-width="640"
     inkscape:window-height="480"
     id="namedview66"
     showgrid="false"
     inkscape:zoom="2.4583333"
     inkscape:cx="22.98305"
     inkscape:cy="47.999999"
     inkscape:window-x="708"
     inkscape:window-y="91"
     inkscape:window-maximized="0"
     inkscape:current-layer="svg2" />
  <defs
     id="defs4">
    <linearGradient
       x2="0"
       y1="92.54"
       y2="7.02"
       gradientUnits="userSpaceOnUse"
       id="ButtonShadow-0"
       gradientTransform="matrix(1.0059 0 0 0.99417 100 0)">
      <stop
         stop-color="#000000"
         stop-opacity="1"
         id="stop7" />
      <stop
         stop-color="#000000"
         stop-opacity="0.588"
         offset="1"
         id="stop9" />
    </linearGradient>
    <linearGradient
       x2="0"
       xlink:href="#ButtonShadow-0"
       y1="6.132"
       y2="90.24"
       gradientUnits="userSpaceOnUse"
       id="linearGradient3780"
       gradientTransform="matrix(1.02381 0 0 -1.0119 -1.143 98.07)" />
    <linearGradient
       x2="0"
       xlink:href="#ButtonShadow-0"
       y1="6.132"
       y2="90.24"
       gradientUnits="userSpaceOnUse"
       id="linearGradient3721"
       gradientTransform="matrix(1 0 0 -1 0 97)" />
    <radialGradient
       cy="90.17"
       r="42"
       gradientUnits="userSpaceOnUse"
       id="radialGradient3619-3"
       cx="48"
       gradientTransform="matrix(1.15731 0 0 0.99591 -7.551 0.197)">
      <stop
         stop-color="#ffffff"
         stop-opacity="1"
         id="stop14" />
      <stop
         stop-color="#ffffff"
         stop-opacity="0"
         offset="1"
         id="stop16" />
    </radialGradient>
    <linearGradient
       x2="0"
       y1="5.532"
       y2="20.283"
       gradientUnits="userSpaceOnUse"
       id="linearGradient3133"
       gradientTransform="matrix(2.76586,0,0,3.25396,10,10)">
      <stop
         stop-color="#1a1a1a"
         stop-opacity="1"
         id="stop19" />
      <stop
         stop-color="#4d4d4d"
         stop-opacity="1"
         offset="1"
         id="stop21" />
    </linearGradient>
    <rect
       x="6"
       rx="6"
       y="6"
       fill="#000000"
       fill-opacity="1"
       stroke="none"
       fill-rule="nonzero"
       height="84"
       id="SVGCleanerId_0"
       opacity="0.6"
       width="84" />
  </defs>
  <g
     id="g3418"
     transform="matrix(1.4285334,0,0,1.4285334,-20.541495,-24.847607)">
    <path
       d="m 33.75,23 c -2.406113,0.409019 -4.068574,2.825583 -3.75,5.227255 0.02111,4.39194 -0.04206,8.792225 0.03125,13.178995 0.379352,2.357791 2.655557,3.630877 4.112224,5.330974 1.441759,1.441759 2.883517,2.883517 4.325276,4.325276 C 35.525575,50.91842 32.549524,51.040022 29.59375,51 28.061625,51.317836 27.851546,53.004565 28,54.298261 28,55.865507 28,57.432754 28,59 25.805478,59.05888 23.58201,58.879916 21.40625,59.09375 19.526277,59.657274 20.073739,61.88408 20,63.375645 c 0.06007,2.069158 -0.121806,4.167776 0.09375,6.218105 0.563524,1.879973 2.79033,1.332511 4.281895,1.40625 1.208118,0 2.416237,0 3.624355,0 0.05888,2.194522 -0.120084,4.41799 0.09375,6.59375 0.563524,1.879973 2.79033,1.332511 4.281895,1.40625 2.069158,-0.06006 4.167776,0.121806 6.218105,-0.09375 C 40.473723,78.342726 39.926261,76.11592 40,74.624355 40,73.416237 40,72.208118 40,71 c 2.194522,-0.05888 4.41799,0.120084 6.59375,-0.09375 1.879973,-0.563524 1.332511,-2.79033 1.40625,-4.281895 -0.04147,-2.028477 0.08314,-4.077401 -0.0625,-6.093105 2.608376,2.545031 5.101647,5.22793 7.78125,7.6875 0.242116,0.158739 1.22573,0.709411 1.875,0.71875 1.037915,0.233762 2.588612,-0.257552 3.119492,-0.684933 2.896222,-2.599241 5.540746,-5.496894 8.339508,-8.211567 1.961583,-1.961583 3.923167,-3.923167 5.88475,-5.88475 0.181692,-0.246934 0.762965,-0.991704 0.90625,-1.78125 0.311948,-1.248175 0.09023,-2.634999 -0.64296,-3.673573 C 74.984754,48.365258 74.056584,47.457903 73.53636,46.94261 65.842815,39.269847 58.184103,31.548755 50.46875,23.90625 48.503237,22.445228 45.915072,23.176226 43.632216,23 c -3.294063,2e-6 -6.588198,-2e-6 -9.882216,0 z m 8.75,10 c 4.294826,-0.02805 2.17861,7.004228 -1.412817,4.581922 C 39.068443,36.319501 40.079451,32.870623 42.5,33 Z m -2.5625,19.53125 c 2.177083,2.177083 4.354167,4.354167 6.53125,6.53125 C 44.327597,58.918735 42.153857,59.040148 40,59 39.95952,56.846827 40.08174,54.671419 39.9375,52.53125 Z"
       inkscape:connector-curvature="0"
       id="path42"
       style="opacity:0.1;fill:black;fill-opacity:1;stroke:none" />
    <path
       d="m 33.96875,24.0625 a 0.93179966,0.93179966 0 0 0 -0.0625,0.03125 c -0.04588,0.0085 -0.26754,0.05003 -0.3125,0.0625 -0.04496,0.01247 -0.237563,0.07737 -0.28125,0.09375 -0.04369,0.01638 -0.239174,0.104845 -0.28125,0.125 -0.04208,0.02015 -0.241112,0.101223 -0.28125,0.125 -0.04014,0.02378 -0.212111,0.160287 -0.25,0.1875 -0.03789,0.02721 -0.183403,0.157061 -0.21875,0.1875 -0.03535,0.03044 -0.21747,0.154072 -0.25,0.1875 -0.03253,0.03343 -0.158038,0.213842 -0.1875,0.25 -0.02946,0.03616 -0.161335,0.180143 -0.1875,0.21875 -0.02616,0.03861 -0.133584,0.240493 -0.15625,0.28125 -0.02267,0.04076 -0.106008,0.207409 -0.125,0.25 -0.01899,0.04259 -0.10983,0.237155 -0.125,0.28125 -0.01517,0.04409 -0.08252,0.267243 -0.09375,0.3125 -0.01123,0.04526 -0.05529,0.235181 -0.0625,0.28125 -0.0072,0.04607 -0.02812,0.265976 -0.03125,0.3125 -0.0028,0.04187 9.9e-5,0.212708 0,0.28125 -1.1e-5,0.0076 -9.8e-5,0.02659 0,0.03125 l 0,13.1875 c 1.28e-4,0.02604 -0.0014,0.161497 0,0.1875 0.0014,0.026 0.02856,0.130348 0.03125,0.15625 0.0027,0.0259 -0.004,0.130511 0,0.15625 0.004,0.02574 0.02603,0.161986 0.03125,0.1875 0.0052,0.02551 0.05603,0.131023 0.0625,0.15625 0.0065,0.02523 0.02355,0.131372 0.03125,0.15625 0.0077,0.02488 0.05359,0.13178 0.0625,0.15625 0.0089,0.02447 0.05239,0.132247 0.0625,0.15625 0.01011,0.024 0.05122,0.132773 0.0625,0.15625 0.01128,0.02348 0.08133,0.133355 0.09375,0.15625 0.01242,0.02289 0.04897,0.133993 0.0625,0.15625 0.01353,0.02226 0.07914,0.134684 0.09375,0.15625 0.01461,0.02157 0.0781,0.104178 0.09375,0.125 0.01565,0.02082 0.108345,0.104972 0.125,0.125 0.01666,0.02003 0.07613,0.105814 0.09375,0.125 0.01762,0.01919 0.106457,0.106703 0.125,0.125 L 55.8125,66.90625 c 0.01838,0.01835 0.105741,0.107571 0.125,0.125 0.01926,0.01743 0.104909,0.07729 0.125,0.09375 0.02009,0.01646 0.104125,0.10954 0.125,0.125 0.02087,0.01546 0.134642,0.07933 0.15625,0.09375 0.02161,0.01442 0.10271,0.08041 0.125,0.09375 0.02229,0.01334 0.133333,0.05027 0.15625,0.0625 0.02292,0.01223 0.13276,0.08265 0.15625,0.09375 0.02349,0.0111 0.132244,0.05257 0.15625,0.0625 0.02401,0.0099 0.131785,0.05376 0.15625,0.0625 0.02446,0.0087 0.131385,0.05497 0.15625,0.0625 0.02486,0.0075 0.131046,0.02494 0.15625,0.03125 0.0252,0.0063 0.130766,0.02619 0.15625,0.03125 0.02548,0.0051 0.161799,0.02744 0.1875,0.03125 0.0257,0.0038 0.130393,0.02871 0.15625,0.03125 0.02586,0.0025 0.161549,-0.0013 0.1875,0 0.02595,0.0013 0.130268,0 0.15625,0 0.02598,0 0.130299,0.0013 0.15625,0 0.02595,-0.0013 0.161643,0.0025 0.1875,0 0.02586,-0.0025 0.130549,-0.02744 0.15625,-0.03125 0.0257,-0.0038 0.162016,-0.02619 0.1875,-0.03125 0.02548,-0.0051 0.131046,-0.02494 0.15625,-0.03125 0.0252,-0.0063 0.131385,-0.02372 0.15625,-0.03125 0.02486,-0.0075 0.131785,-0.05376 0.15625,-0.0625 0.02446,-0.0087 0.132244,-0.05257 0.15625,-0.0625 0.02401,-0.0099 0.13276,-0.0514 0.15625,-0.0625 0.02349,-0.0111 0.133333,-0.08152 0.15625,-0.09375 0.02292,-0.01223 0.13396,-0.04916 0.15625,-0.0625 0.02229,-0.01334 0.103392,-0.07933 0.125,-0.09375 0.02161,-0.01442 0.135375,-0.07829 0.15625,-0.09375 0.02087,-0.01546 0.104909,-0.108536 0.125,-0.125 0.02009,-0.01646 0.105741,-0.07632 0.125,-0.09375 0.01926,-0.01743 0.106619,-0.106649 0.125,-0.125 L 73.90625,53.6875 c 0.01837,-0.01838 0.107558,-0.105745 0.125,-0.125 0.01744,-0.01926 0.07727,-0.104913 0.09375,-0.125 0.01648,-0.02009 0.109529,-0.10413 0.125,-0.125 0.01547,-0.02087 0.07932,-0.134647 0.09375,-0.15625 0.01443,-0.0216 0.0804,-0.102716 0.09375,-0.125 0.01335,-0.02228 0.05026,-0.133338 0.0625,-0.15625 0.01224,-0.02291 0.08265,-0.132766 0.09375,-0.15625 0.0111,-0.02348 0.05256,-0.132251 0.0625,-0.15625 0.0099,-0.024 0.05375,-0.131793 0.0625,-0.15625 0.0087,-0.02446 0.05496,-0.131393 0.0625,-0.15625 0.0075,-0.02486 0.02494,-0.131054 0.03125,-0.15625 0.0063,-0.0252 0.02618,-0.130775 0.03125,-0.15625 0.0051,-0.02548 0.02744,-0.161808 0.03125,-0.1875 0.0038,-0.02569 0.02871,-0.130402 0.03125,-0.15625 0.0025,-0.02585 -0.0013,-0.161558 0,-0.1875 0.0013,-0.02594 0,-0.130277 0,-0.15625 0,-0.02597 0.0013,-0.130308 0,-0.15625 -0.0013,-0.02594 0.0025,-0.161652 0,-0.1875 C 74.90375,50.8804 74.87881,50.775692 74.875,50.75 74.8712,50.72431 74.84882,50.587975 74.84375,50.5625 74.83865,50.53702 74.81881,50.431446 74.8125,50.40625 74.8062,50.38105 74.78879,50.274857 74.78125,50.25 c -0.0075,-0.02486 -0.05375,-0.131793 -0.0625,-0.15625 -0.0087,-0.02446 -0.05256,-0.132251 -0.0625,-0.15625 -0.0099,-0.024 -0.0514,-0.132766 -0.0625,-0.15625 C 74.58265,49.75777 74.51224,49.647912 74.5,49.625 74.48776,49.60209 74.45085,49.491034 74.4375,49.46875 74.42415,49.44647 74.35818,49.365353 74.34375,49.34375 74.32932,49.32215 74.26547,49.20837 74.25,49.1875 c -0.01547,-0.02087 -0.108524,-0.104913 -0.125,-0.125 -0.01648,-0.02009 -0.07631,-0.105745 -0.09375,-0.125 -0.01744,-0.01926 -0.106634,-0.106623 -0.125,-0.125 L 50.1875,25.09375 c -0.0183,-0.01854 -0.105814,-0.107385 -0.125,-0.125 -0.01919,-0.01761 -0.104971,-0.0771 -0.125,-0.09375 -0.02003,-0.01665 -0.104176,-0.109353 -0.125,-0.125 -0.02082,-0.01565 -0.103431,-0.07915 -0.125,-0.09375 C 49.66593,24.64165 49.553511,24.57603 49.53125,24.5625 49.50899,24.54897 49.3979,24.51242 49.375,24.5 49.3521,24.48758 49.242233,24.41753 49.21875,24.40625 49.19527,24.39497 49.08651,24.35386 49.0625,24.34375 49.03849,24.33364 48.930728,24.29017 48.90625,24.28125 48.88177,24.27235 48.774887,24.22645 48.75,24.21875 48.72511,24.21105 48.618986,24.19397 48.59375,24.1875 48.56851,24.181 48.463024,24.13022 48.4375,24.125 48.41198,24.1198 48.275751,24.09771 48.25,24.09375 c -0.02575,-0.004 -0.130336,0.0027 -0.15625,0 -0.02591,-0.0027 -0.130234,-0.02983 -0.15625,-0.03125 -0.02602,-0.0014 -0.161446,1.35e-4 -0.1875,0 l -13.125,0 c -0.01473,-0.0014 -0.05716,0.002 -0.09375,0 -0.08538,-0.0046 -0.184221,0 -0.21875,0 -0.04933,0 -0.294636,-0.0046 -0.34375,0 z M 42.5,31.9375 c 1.98263,0 3.5625,1.580455 3.5625,3.5625 0,1.982046 -1.57987,3.5625 -3.5625,3.5625 -1.98263,0 -3.5625,-1.580454 -3.5625,-3.5625 0,-1.982045 1.57987,-3.5625 3.5625,-3.5625 z M 29.90625,52.0625 A 0.93179966,0.93179966 0 0 0 29.0625,53 l 0,7.0625 -7.0625,0 A 0.93179966,0.93179966 0 0 0 21.0625,61 l 0,8 A 0.93179966,0.93179966 0 0 0 22,69.9375 l 7.0625,0 0,7.0625 A 0.93179966,0.93179966 0 0 0 30,77.9375 l 8,0 A 0.93179966,0.93179966 0 0 0 38.9375,77 l 0,-7.0625 7.0625,0 A 0.93179966,0.93179966 0 0 0 46.9375,69 l 0,-8 A 0.93179966,0.93179966 0 0 0 46,60.0625 l -7.0625,0 0,-7.0625 A 0.93179966,0.93179966 0 0 0 38,52.0625 l -8,0 a 0.93179966,0.93179966 0 0 0 -0.09375,0 z"
       id="path44"
       inkscape:connector-curvature="0"
       style="opacity:0.15;fill:black;fill-opacity:1;stroke:none" />
    <path
       d="M 34.0625,25 A 2.5207713,2.5201491 0 0 0 32,27.53125 L 32,40.75 a 2.5207713,2.5201491 0 0 0 0.75,1.78125 L 56.46875,66.25 a 2.5207713,2.5201491 0 0 0 3.5625,0 L 73.25,53.03125 a 2.5207713,2.5201491 0 0 0 0,-3.5625 L 49.53125,25.75 A 2.5207713,2.5201491 0 0 0 47.75,25 L 34.53125,25 A 2.5207713,2.5201491 0 0 0 34.0625,25 Z M 42.5,31 C 44.985993,31 47,33.014621 47,35.5 47,37.98538 44.985993,40 42.5,40 40.014007,40 38,37.98538 38,35.5 38,33.014621 40.014007,31 42.5,31 Z M 30,53 l 0,8 -8,0 0,8 8,0 0,8 8,0 0,-8 8,0 0,-8 -8,0 0,-8 -8,0 z"
       inkscape:connector-curvature="0"
       id="path46"
       style="opacity:0.3;fill:black;fill-opacity:1;stroke:none" />
    <path
       d="M 34.0625,24 A 2.5207713,2.5201491 0 0 0 32,26.53125 L 32,39.75 a 2.5207713,2.5201491 0 0 0 0.75,1.78125 L 56.46875,65.25 a 2.5207713,2.5201491 0 0 0 3.5625,0 L 73.25,52.03125 a 2.5207713,2.5201491 0 0 0 0,-3.5625 L 49.53125,24.75 A 2.5207713,2.5201491 0 0 0 47.75,24 L 34.53125,24 A 2.5207713,2.5201491 0 0 0 34.0625,24 Z M 42.5,30 C 44.985993,30 47,32.014621 47,34.5 47,36.98538 44.985993,39 42.5,39 40.014007,39 38,36.98538 38,34.5 38,32.014621 40.014007,30 42.5,30 Z M 30,52 l 0,8 -8,0 0,8 8,0 0,8 8,0 0,-8 8,0 0,-8 -8,0 0,-8 -8,0 z"
       inkscape:connector-curvature="0"
       id="path60"
       style="fill:url(#linearGradient3133);fill-opacity:1;stroke:none" />
    <path
       d="M 34.0625,24 A 2.5207713,2.5201491 0 0 0 32,26.53125 L 32,27.25 A 2.5207713,2.5201491 0 0 1 34.0625,25 2.5207713,2.5201491 0 0 1 34.53125,25 L 47.75,25 a 2.5207713,2.5201491 0 0 1 1.78125,0.75 L 73.25,49.46875 a 2.5207713,2.5201491 0 0 1 0.6875,1.25 2.5207713,2.5201491 0 0 0 -0.6875,-2.25 L 49.53125,24.75 A 2.5207713,2.5201491 0 0 0 47.75,24 l -13.21875,0 a 2.5207713,2.5201491 0 0 0 -0.46875,0 z m 4,11 C 38.043766,35.166776 38,35.328216 38,35.5 38,37.98538 40.014007,40 42.5,40 44.985993,40 47,37.98538 47,35.5 47,35.328216 46.95623,35.166776 46.9375,35 46.685193,37.246153 44.814167,39 42.5,39 40.185833,39 38.314807,37.246153 38.0625,35 Z M 30,52 l 0,1 8,0 0,-1 -8,0 z m -8,8 0,1 8,0 0,-1 -8,0 z m 16,0 0,1 8,0 0,-1 -8,0 z"
       inkscape:connector-curvature="0"
       id="path62"
       style="opacity:0.75;fill:white;fill-opacity:1;stroke:none" />
    <path
       d="m 42.5,29 c -2.485993,0 -4.5,2.014621 -4.5,4.5 0,0.171784 0.04377,0.333224 0.0625,0.5 0.252307,-2.246152 2.123333,-4 4.4375,-4 2.314167,0 4.185193,1.753848 4.4375,4 C 46.956234,33.833224 47,33.671784 47,33.5 47,31.014621 44.985993,29 42.5,29 Z M 32,39 l 0,0.75 a 2.5207713,2.5201491 0 0 0 0.75,1.78125 L 56.46875,65.25 a 2.5207713,2.5201491 0 0 0 3.5625,0 L 73.25,52.03125 a 2.5207713,2.5201491 0 0 0 0.6875,-2.3125 2.5207713,2.5201491 0 0 1 -0.6875,1.3125 L 60.03125,64.25 a 2.5207713,2.5201491 0 0 1 -3.5625,0 L 32.75,40.53125 A 2.5207713,2.5201491 0 0 1 32,39 Z m -10,28 0,1 8,0 0,-1 -8,0 z m 16,0 0,1 8,0 0,-1 -8,0 z m -8,8 0,1 8,0 0,-1 -8,0 z"
       inkscape:connector-curvature="0"
       id="path64"
       style="opacity:0.15;fill:black;fill-opacity:1;stroke:none" />
  </g>
</svg>
