<svg height="96" width="96" xmlns="http://www.w3.org/2000/svg" xmlns:xlink="http://www.w3.org/1999/xlink" xmlns:sodipodi="http://sodipodi.sourceforge.net/DTD/sodipodi-0.dtd" xmlns:inkscape="http://www.inkscape.org/namespaces/inkscape">
 <defs>
  <linearGradient x2="0" y1="92.54" y2="7.02" gradientUnits="userSpaceOnUse" id="ButtonShadow-0" gradientTransform="matrix(1.0059 0 0 0.99417 100 0)">
   <stop stop-color="#000000" stop-opacity="1"/>
   <stop stop-color="#000000" stop-opacity="0.588" offset="1"/>
  </linearGradient>
  <linearGradient x2="0" xlink:href="#ButtonShadow-0" y1="6.132" y2="90.24" gradientUnits="userSpaceOnUse" id="linearGradient3780" gradientTransform="matrix(1.02381 0 0 -1.0119 -1.143 98.07)"/>
  <linearGradient x2="0" xlink:href="#ButtonShadow-0" y1="6.132" y2="90.24" gradientUnits="userSpaceOnUse" id="linearGradient3721" gradientTransform="matrix(1 0 0 -1 0 97)"/>
  <radialGradient cy="90.17" r="42" gradientUnits="userSpaceOnUse" id="radialGradient3619-3" cx="48" gradientTransform="matrix(1.15731 0 0 0.99591 -7.551 0.197)">
   <stop stop-color="#ffffff" stop-opacity="1"/>
   <stop stop-color="#ffffff" stop-opacity="0" offset="1"/>
  </radialGradient>
  <linearGradient x2="0" y1="3.15" y2="18" gradientUnits="userSpaceOnUse" id="linearGradient3887" gradientTransform="matrix(3 0 0 3 16 18)">
   <stop stop-color="#f0f0f0" stop-opacity="1"/>
   <stop stop-color="#aaaaaa" stop-opacity="1" offset="1"/>
  </linearGradient>
  <rect x="6" rx="6" y="6" fill="#000000" fill-opacity="1" stroke="none" fill-rule="nonzero" height="84" id="SVGCleanerId_0" opacity="0.6" width="84"/>
 </defs>
 <path d="M 12,3.96875 C 6.4889098,3.96875 1.96875,8.4889098 1.96875,14 l 0,71 c 0,5.51109 4.5201597,10.03125 10.03125,10.03125 l 72,0 c 5.51109,0 10.03125,-4.52016 10.03125,-10.03125 l 0,-71 C 94.03125,8.4889097 89.51109,3.96875 84,3.96875 l -72,0 z M 12,6 84,6 c 3.324,0 6,2.676 6,6 l 0,72 c 0,3.324 -2.676,6 -6,6 L 12,90 C 8.676,90 6,87.324 6,84 L 6,12 C 6,8.676 8.676,6 12,6 z" display="inline" fill="url(#linearGradient3780)" fill-opacity="1" fill-rule="nonzero" stroke="none" opacity="0.08" inkscape:connector-curvature="0"/>
 <path d="M 12,4.96875 C 7.0283671,4.96875 2.96875,9.0283671 2.96875,14 l 0,71 c 0,4.971633 4.059617,9.03125 9.03125,9.03125 l 72,0 c 4.971633,0 9.03125,-4.059617 9.03125,-9.03125 l 0,-71 C 93.03125,9.028367 88.971633,4.96875 84,4.96875 l -72,0 z M 12,6 84,6 c 3.324,0 6,2.676 6,6 l 0,72 c 0,3.324 -2.676,6 -6,6 L 12,90 C 8.676,90 6,87.324 6,84 L 6,12 C 6,8.676 8.676,6 12,6 z" display="inline" fill="url(#linearGradient3780)" fill-opacity="1" fill-rule="nonzero" stroke="none" opacity="0.1" inkscape:connector-curvature="0"/>
 <path d="M 11.1875,6.03125 C 7.159982,6.4419011 4,9.8664375 4,14 l 0,71 c 0,4.409133 3.590867,8 8,8 l 72,0 c 4.409133,0 8,-3.590867 8,-8 L 92,14 C 92,9.8029382 88.741028,6.3539584 84.625,6.03125 87.657886,6.337417 90,8.88375 90,12 l 0,72 c 0,3.324 -2.676,6 -6,6 L 12,90 C 8.676,90 6,87.324 6,84 L 6,12 c 0,-3.11625 2.342114,-5.662583 5.375,-5.96875 -0.06227,0.00488 -0.12563,-0.00631 -0.1875,0 z" display="inline" fill="url(#linearGradient3780)" fill-opacity="1" fill-rule="nonzero" stroke="none" opacity="0.2" inkscape:connector-curvature="0"/>
 <path d="M 6.4375,9.75 C 5.5380109,10.927446 5,12.397277 5,14 l 0,71 c 0,3.878 3.122,7 7,7 l 72,0 c 3.878,0 7,-3.122 7,-7 L 91,14 C 91,12.397277 90.461989,10.927446 89.5625,9.75 89.841816,10.444095 90,11.203625 90,12 l 0,72 c 0,3.324 -2.676,6 -6,6 L 12,90 C 8.676,90 6,87.324 6,84 L 6,12 C 6,11.203625 6.1581836,10.444095 6.4375,9.75 z" display="inline" fill="url(#linearGradient3780)" fill-opacity="1" fill-rule="nonzero" stroke="none" opacity="0.3" inkscape:connector-curvature="0"/>
 <path d="m 6,84 0,1 c 0,3.324 2.676,6 6,6 l 72,0 c 3.324,0 6,-2.676 6,-6 l 0,-1 c 0,3.324 -2.676,6 -6,6 L 12,90 C 8.676,90 6,87.324 6,84 z" display="inline" fill="url(#linearGradient3721)" fill-opacity="1" fill-rule="nonzero" stroke="none" opacity="0.45" inkscape:connector-curvature="0"/>
 <g display="inline">
  <use xlink:href="#SVGCleanerId_0"/>
  <path d="M 12,90 C 8.676,90 6,87.324 6,84 L 6,82 6,14 6,12 c 0,-0.334721 0.04135,-0.6507 0.09375,-0.96875 0.0487,-0.295596 0.09704,-0.596915 0.1875,-0.875 C 6.29113,10.12587 6.302142,10.09265 6.3125,10.0625 6.411365,9.774729 6.5473802,9.515048 6.6875,9.25 6.8320918,8.976493 7.0031161,8.714385 7.1875,8.46875 7.3718839,8.223115 7.5612765,7.995278 7.78125,7.78125 8.221197,7.353194 8.72416,6.966724 9.28125,6.6875 9.559795,6.547888 9.8547231,6.440553 10.15625,6.34375 9.9000482,6.443972 9.6695391,6.580022 9.4375,6.71875 c -0.00741,0.0044 -0.023866,-0.0045 -0.03125,0 -0.031933,0.0193 -0.062293,0.04251 -0.09375,0.0625 -0.120395,0.0767 -0.2310226,0.163513 -0.34375,0.25 -0.1061728,0.0808 -0.2132809,0.161112 -0.3125,0.25 C 8.4783201,7.442683 8.3087904,7.626638 8.15625,7.8125 8.0486711,7.942755 7.9378561,8.077785 7.84375,8.21875 7.818661,8.25713 7.805304,8.30462 7.78125,8.34375 7.716487,8.446782 7.6510225,8.548267 7.59375,8.65625 7.4927417,8.850956 7.3880752,9.071951 7.3125,9.28125 7.30454,9.30306 7.288911,9.3218 7.28125,9.34375 7.2494249,9.4357 7.2454455,9.530581 7.21875,9.625 7.1884177,9.731618 7.1483606,9.828031 7.125,9.9375 7.0521214,10.279012 7,10.635705 7,11 l 0,2 0,68 0,2 c 0,2.781848 2.2181517,5 5,5 l 2,0 68,0 2,0 c 2.781848,0 5,-2.218152 5,-5 l 0,-2 0,-68 0,-2 C 89,10.635705 88.94788,10.279012 88.875,9.9375 88.83085,9.730607 88.78662,9.539842 88.71875,9.34375 88.71105,9.3218 88.69545,9.30306 88.6875,9.28125 88.62476,9.107511 88.549117,8.913801 88.46875,8.75 88.42717,8.6672 88.38971,8.580046 88.34375,8.5 88.28915,8.40279 88.216976,8.31165 88.15625,8.21875 88.06214,8.077785 87.951329,7.942755 87.84375,7.8125 87.700576,7.63805 87.540609,7.465502 87.375,7.3125 87.36383,7.3023 87.35502,7.29135 87.34375,7.28125 87.205364,7.155694 87.058659,7.046814 86.90625,6.9375 86.803679,6.86435 86.701932,6.784136 86.59375,6.71875 c -0.0074,-0.0045 -0.02384,0.0044 -0.03125,0 -0.232039,-0.138728 -0.462548,-0.274778 -0.71875,-0.375 0.301527,0.0968 0.596455,0.204138 0.875,0.34375 0.55709,0.279224 1.060053,0.665694 1.5,1.09375 0.219973,0.214028 0.409366,0.441865 0.59375,0.6875 0.184384,0.245635 0.355408,0.507743 0.5,0.78125 0.14012,0.265048 0.276135,0.524729 0.375,0.8125 0.01041,0.03078 0.02133,0.06274 0.03125,0.09375 0.09046,0.278085 0.1388,0.579404 0.1875,0.875 C 89.95865,11.3493 90,11.665279 90,12 l 0,2 0,68 0,2 c 0,3.324 -2.676,6 -6,6 l -72,0 z" fill="url(#radialGradient3619-3)" fill-opacity="1" fill-rule="nonzero" stroke="none" opacity="0.15" inkscape:connector-curvature="0"/>
 </g>
 <g display="inline">
  <path d="m 53.71875,25.96875 c -1.557632,0.175938 -1.848925,1.917343 -1.6875,3.19253 0.02083,8.674545 -0.04166,17.355985 0.03125,26.02622 0.09098,1.582729 1.850533,1.91668 3.13003,1.75 2.025297,-0.08604 4.092601,0.183157 6.08872,-0.15625 1.550835,-1.628908 3.782526,1.309272 6,0.625 5.506861,0.171567 9.859355,-4.787494 10.385011,-10.012249 0.924312,-5.669765 -1.366748,-12.497802 -7.134482,-14.589148 -2.523972,-1.135251 -6.022752,-0.324639 -8.063029,0.479675 -0.09089,-2.037944 0.190274,-4.119766 -0.15625,-6.128278 -0.819462,-1.754663 -3.004391,-1.039698 -4.534755,-1.1875 -1.352998,0 -2.705997,0 -4.058995,0 z m -22.75,0.09375 c -1.809239,0.303964 -1.852931,2.488384 -2.52932,3.828187 -3.052727,8.140604 -6.105453,16.281209 -9.15818,24.421813 -0.554299,1.233517 0.691912,2.875808 2.118445,2.625 2.436831,-0.05773 4.898769,0.118464 7.319055,-0.09375 1.597786,-0.664808 1.558129,-2.705318 2.244659,-4.069816 0.04385,-1.281204 1.423782,-0.668664 2.275233,-0.805184 2.08712,0 4.174239,0 6.261358,0 0.617093,1.44466 0.807968,3.121314 1.71875,4.40625 1.215606,1.0148 2.949521,0.387816 4.4032,0.5625 1.60452,-0.113182 3.303208,0.234207 4.8468,-0.1875 1.284805,-0.506902 1.377288,-2.146905 0.762689,-3.153663 C 47.924565,44.784897 44.62227,35.958068 41.3125,27.15625 40.421702,25.510564 38.326033,26.211647 36.808995,26.0625 c -1.946748,0 -3.893497,0 -5.840245,0 z m 4.4375,14.125 c 0.333333,0.979167 0.666667,1.958333 1,2.9375 -0.67885,-0.173807 -2.563706,0.515803 -1.753513,-0.724057 0.251171,-0.737814 0.502342,-1.475629 0.753513,-2.213443 z m 29.4375,0.71875 c 3.017998,0.201834 2.606687,4.625713 1.910399,6.716681 -1.838959,3.324855 -5.346164,-0.647586 -4.269292,-3.341757 0.07878,-1.358605 0.507141,-3.645478 2.358893,-3.374924 z M 26.8125,59.0625 c -1.529919,0.397007 -2.369709,1.997881 -3.567194,2.973444 -1.314584,1.42651 -2.890285,2.657705 -4.026556,4.214056 -0.342709,2.226679 -0.06787,4.525311 -0.15625,6.78125 -0.01627,1.766058 2.525533,2.56486 3.497586,1.096164 C 24.040057,72.647443 25.520029,71.167471 27,69.6875 c 1.713077,1.642834 3.324429,3.460395 5.09375,5 1.371766,0.785569 2.49435,-0.502805 3.331679,-1.425429 C 36.616953,72.070547 37.808476,70.879024 39,69.6875 c 1.713077,1.642834 3.324429,3.460395 5.09375,5 1.371766,0.785569 2.49435,-0.502805 3.331679,-1.425429 C 48.616953,72.070547 49.808476,70.879024 51,69.6875 c 1.713077,1.642834 3.324429,3.460395 5.09375,5 1.371766,0.785569 2.49435,-0.502805 3.331679,-1.425429 C 60.616953,72.070547 61.808476,70.879024 63,69.6875 c 1.713077,1.642834 3.324429,3.460395 5.09375,5 1.371705,0.785508 2.493592,-0.503564 3.334499,-1.422601 1.729215,-1.803765 3.654392,-3.467406 5.259251,-5.358649 0.518823,-1.649663 0.128737,-3.468936 0.25,-5.18948 0.05505,-1.278309 0.186128,-3.0588 -1.34375,-3.52927 -1.735298,-0.539611 -2.63472,1.393958 -3.776354,2.307604 C 70.878264,62.434236 69.939132,63.373368 69,64.3125 c -1.713077,-1.642834 -3.324429,-3.460395 -5.09375,-5 -1.371766,-0.785569 -2.49435,0.502805 -3.331679,1.425429 C 59.383047,61.929453 58.191524,63.120976 57,64.3125 c -1.713077,-1.642834 -3.324429,-3.460395 -5.09375,-5 -1.371766,-0.785569 -2.49435,0.502805 -3.331679,1.425429 C 47.383047,61.929453 46.191524,63.120976 45,64.3125 c -1.713077,-1.642834 -3.324429,-3.460395 -5.09375,-5 -1.371766,-0.785569 -2.49435,0.502805 -3.331679,1.425429 C 35.383047,61.929453 34.191524,63.120976 33,64.3125 31.295401,62.684973 29.718448,60.833527 27.9375,59.34375 27.619135,59.102217 27.199233,59.051694 26.8125,59.0625 z" fill="#000000" fill-opacity="1" stroke="none" opacity="0.1" inkscape:connector-curvature="0"/>
  <path d="m 53.875,26.96875 a 0.93991403,0.93991403 0 0 0 -0.84375,0.9375 l 0,27.09375 a 0.93991403,0.93991403 0 0 0 0.9375,0.9375 l 6.5625,0 A 0.93991403,0.93991403 0 0 0 61.46875,55 l 0,-0.65625 c 0.517121,0.437404 1.051288,0.828128 1.625,1.125 1.230821,0.623329 2.636767,0.9375 4.1875,0.9375 2.749497,0 5.13304,-1.083446 6.90625,-3.25 1.770688,-2.176729 2.656225,-4.994578 2.65625,-8.28125 -2.5e-5,-3.286654 -0.882098,-6.113461 -2.65625,-8.28125 -1.765058,-2.169724 -4.136432,-3.343727 -6.90625,-3.34375 -1.545411,2.3e-5 -2.948213,0.296243 -4.1875,0.9375 -0.578954,0.293221 -1.107053,0.685649 -1.625,1.125 l 0,-7.40625 a 0.93991403,0.93991403 0 0 0 -0.9375,-0.9375 l -6.5625,0 a 0.93991403,0.93991403 0 0 0 -0.09375,0 z m -22.75,0.09375 a 0.93991403,0.93991403 0 0 0 -0.78125,0.59375 l -10.125,27 a 0.93991403,0.93991403 0 0 0 0.875,1.28125 l 7.03125,0 A 0.93991403,0.93991403 0 0 0 29,55.3125 l 1.5625,-4.34375 9.65625,0 1.46875,4.34375 a 0.93991403,0.93991403 0 0 0 0.875,0.625 l 7.125,0 a 0.93991403,0.93991403 0 0 0 0.875,-1.28125 l -10.125,-27 a 0.93991403,0.93991403 0 0 0 -0.875,-0.59375 l -8.34375,0 a 0.93991403,0.93991403 0 0 0 -0.09375,0 z m 4.3125,10.09375 2.34375,6.96875 -4.78125,0 2.4375,-6.96875 z m 29.40625,2.75 c 1.180789,1.3e-5 1.875901,0.345957 2.4375,1.125 0.577767,0.788395 0.937483,2.039345 0.9375,3.84375 -1.7e-5,1.804424 -0.35974,3.055379 -0.9375,3.84375 -0.5616,0.779061 -1.256716,1.125003 -2.4375,1.125 -1.180815,3e-6 -1.842767,-0.32656 -2.4375,-1.125 -0.582605,-0.804411 -0.937508,-2.052165 -0.9375,-3.84375 -8e-6,-1.791563 0.361815,-3.058229 0.9375,-3.84375 0.593402,-0.806122 1.251281,-1.124987 2.4375,-1.125 z M 26.90625,60.0625 a 0.93991403,0.93991403 0 0 0 -0.5625,0.28125 l -6,6 A 0.93991403,0.93991403 0 0 0 20.0625,67 l 0,6 a 0.93991403,0.93991403 0 0 0 1.59375,0.65625 L 27,68.3125 l 5.34375,5.34375 a 0.93991403,0.93991403 0 0 0 1.3125,0 L 39,68.3125 l 5.34375,5.34375 a 0.93991403,0.93991403 0 0 0 1.3125,0 L 51,68.3125 l 5.34375,5.34375 a 0.93991403,0.93991403 0 0 0 1.3125,0 L 63,68.3125 l 5.34375,5.34375 a 0.93991403,0.93991403 0 0 0 1.3125,0 l 6,-6 A 0.93991403,0.93991403 0 0 0 75.9375,67 l 0,-6 A 0.93991403,0.93991403 0 0 0 74.34375,60.34375 L 69,65.6875 63.65625,60.34375 a 0.93991403,0.93991403 0 0 0 -1.3125,0 L 57,65.6875 51.65625,60.34375 a 0.93991403,0.93991403 0 0 0 -1.3125,0 L 45,65.6875 39.65625,60.34375 a 0.93991403,0.93991403 0 0 0 -1.3125,0 L 33,65.6875 27.65625,60.34375 a 0.93991403,0.93991403 0 0 0 -0.75,-0.28125 z" fill="#000000" fill-opacity="1" stroke="none" opacity="0.15"/>
  <path d="m 53.96875,27.90625 0,27.09375 6.5625,0 0,-3 c 0.900258,1.181385 1.905066,2.058417 3,2.625 1.09491,0.554499 2.326587,0.84375 3.75,0.84375 2.518305,0 4.569423,-0.929241 6.1875,-2.90625 1.618029,-1.989063 2.437476,-4.565265 2.4375,-7.6875 -2.4e-5,-3.122217 -0.819471,-5.710473 -2.4375,-7.6875 -1.618077,-1.989045 -3.669195,-2.999979 -6.1875,-3 -1.423413,2.1e-5 -2.65509,0.2772 -3.75,0.84375 -1.094934,0.554547 -2.099742,1.443633 -3,2.625 l 0,-9.75 -6.5625,0 z M 31.21875,28 l -10.125,27 7.03125,0 1.78125,-4.96875 10.96875,0 1.6875,4.96875 7.125,0 -10.125,-27 -8.34375,0 z m 4.21875,6.28125 3.65625,10.78125 -7.40625,0 3.75,-10.78125 z m 29.40625,4.6875 c 1.399053,1.5e-5 2.457534,0.487401 3.1875,1.5 0.742095,1.012629 1.124982,2.477472 1.125,4.40625 -1.8e-5,1.928796 -0.382905,3.393639 -1.125,4.40625 -0.729966,1.01262 -1.788447,1.500003 -3.1875,1.5 -1.39908,3e-6 -2.433231,-0.48738 -3.1875,-1.5 -0.742125,-1.024662 -1.125009,-2.489505 -1.125,-4.40625 -9e-6,-1.916724 0.382875,-3.393621 1.125,-4.40625 0.754269,-1.024656 1.78842,-1.499985 3.1875,-1.5 z M 27,61 l -6,6 0,6 6,-6 6,6 6,-6 6,6 6,-6 6,6 6,-6 6,6 6,-6 0,-6 -6,6 -6,-6 -6,6 -6,-6 -6,6 -6,-6 -6,6 -6,-6 z" fill="#000000" fill-opacity="1" stroke="none" opacity="0.3" inkscape:connector-curvature="0"/>
  <text x="104" font-size="4" font-stretch="normal" font-style="normal" letter-spacing="0" font-variant="normal" y="48" font-weight="normal" text-anchor="start" line-height="125%" fill="#000000" fill-opacity="1" stroke="none" word-spacing="0" writing-mode="lr-tb" font-family="Liberation Sans"><tspan x="104" y="48">Shadow opacity : 30, 15, 10, (8)</tspan>
  </text>
  <text x="124" font-size="4" font-stretch="normal" font-style="normal" letter-spacing="0" font-variant="normal" y="32" font-weight="normal" text-anchor="start" line-height="125%" fill="#000000" fill-opacity="1" stroke="none" word-spacing="0" writing-mode="lr-tb" font-family="Liberation Sans"><tspan x="124" y="32">Bevel opacity : 30 / 10</tspan>
  </text>
  <text x="124" font-size="4" font-stretch="normal" font-style="normal" letter-spacing="0" font-variant="normal" y="8" font-weight="normal" text-anchor="start" line-height="125%" fill="#000000" fill-opacity="1" stroke="none" word-spacing="0" writing-mode="lr-tb" font-family="Liberation Sans"><tspan x="124" y="8">Bevel opacity : 75 / 15</tspan>
  </text>
  <path d="m 53.96875,26.90625 0,27.09375 6.5625,0 0,-3 c 0.900258,1.181385 1.905066,2.058417 3,2.625 1.09491,0.554499 2.326587,0.84375 3.75,0.84375 2.518305,0 4.569423,-0.929241 6.1875,-2.90625 1.618029,-1.989063 2.437476,-4.565265 2.4375,-7.6875 -2.4e-5,-3.122217 -0.819471,-5.710473 -2.4375,-7.6875 -1.618077,-1.989045 -3.669195,-2.999979 -6.1875,-3 -1.423413,2.1e-5 -2.65509,0.2772 -3.75,0.84375 -1.094934,0.554547 -2.099742,1.443633 -3,2.625 l 0,-9.75 -6.5625,0 z M 31.21875,27 l -10.125,27 7.03125,0 1.78125,-4.96875 10.96875,0 1.6875,4.96875 7.125,0 -10.125,-27 -8.34375,0 z m 4.21875,6.28125 3.65625,10.78125 -7.40625,0 3.75,-10.78125 z m 29.40625,4.6875 c 1.399053,1.5e-5 2.457534,0.487401 3.1875,1.5 0.742095,1.012629 1.124982,2.477472 1.125,4.40625 -1.8e-5,1.928796 -0.382905,3.393639 -1.125,4.40625 -0.729966,1.01262 -1.788447,1.500003 -3.1875,1.5 -1.39908,3e-6 -2.433231,-0.48738 -3.1875,-1.5 -0.742125,-1.024662 -1.125009,-2.489505 -1.125,-4.40625 -9e-6,-1.916724 0.382875,-3.393621 1.125,-4.40625 0.754269,-1.024656 1.78842,-1.499985 3.1875,-1.5 z M 27,60 l -6,6 0,6 6,-6 6,6 6,-6 6,6 6,-6 6,6 6,-6 6,6 6,-6 0,-6 -6,6 -6,-6 -6,6 -6,-6 -6,6 -6,-6 -6,6 -6,-6 z" fill="url(#linearGradient3887)" fill-opacity="1" stroke="none" inkscape:connector-curvature="0"/>
  <path d="m 53.96875,26.90625 0,1 6.5625,0 0,-1 -6.5625,0 z M 31.21875,27 l -10.125,27 0.375,0 9.75,-26 8.34375,0 9.75,26 0.375,0 -10.125,-27 -8.34375,0 z m 36.0625,6.1875 c -1.423413,2.1e-5 -2.65509,0.2772 -3.75,0.84375 -1.094934,0.554547 -2.099742,1.443633 -3,2.625 l 0,1 c 0.900258,-1.181367 1.905066,-2.070453 3,-2.625 1.09491,-0.56655 2.326587,-0.843729 3.75,-0.84375 2.518305,2.1e-5 4.569423,1.010955 6.1875,3 1.530632,1.870239 2.353795,4.288709 2.4375,7.1875 0.0048,-0.165454 -10e-7,-0.331354 0,-0.5 -2.4e-5,-3.122217 -0.819471,-5.710473 -2.4375,-7.6875 -1.618077,-1.989045 -3.669195,-2.999979 -6.1875,-3 z m -35.25,10.875 -0.34375,1 7.40625,0 -0.34375,-1 -6.71875,0 z M 60.5625,44.375 c -0.0066,0.170789 -0.03125,0.321568 -0.03125,0.5 -9e-6,1.916745 0.382875,3.381588 1.125,4.40625 0.754269,1.01262 1.78842,1.500003 3.1875,1.5 1.399053,3e-6 2.457534,-0.48738 3.1875,-1.5 0.742095,-1.012611 1.124982,-2.477454 1.125,-4.40625 -2e-6,-0.175479 -0.02493,-0.332192 -0.03125,-0.5 -0.06317,1.676664 -0.41917,2.985766 -1.09375,3.90625 -0.729966,1.01262 -1.788447,1.500003 -3.1875,1.5 -1.39908,3e-6 -2.433231,-0.48738 -3.1875,-1.5 C 60.983211,47.351976 60.626958,46.037098 60.5625,44.375 z M 27,60 l -6,6 0,1 6,-6 6,6 6,-6 6,6 6,-6 6,6 6,-6 6,6 6,-6 0,-1 -6,6 -6,-6 -6,6 -6,-6 -6,6 -6,-6 -6,6 -6,-6 z" fill="#ffffff" fill-opacity="1" stroke="none" opacity="0.75" inkscape:connector-curvature="0"/>
  <path d="m 35.4375,32.28125 -3.75,10.78125 0.34375,0 3.40625,-9.78125 3.3125,9.78125 0.34375,0 -3.65625,-10.78125 z m 29.40625,4.6875 c -1.39908,1.5e-5 -2.433231,0.475344 -3.1875,1.5 -0.742125,1.012629 -1.125009,2.489526 -1.125,4.40625 -10e-7,0.178434 0.02463,0.329389 0.03125,0.5 0.06446,-1.663834 0.420711,-2.987889 1.09375,-3.90625 0.754269,-1.024656 1.78842,-1.499985 3.1875,-1.5 1.399053,1.5e-5 2.457534,0.487401 3.1875,1.5 0.67458,0.920501 1.030584,2.2296 1.09375,3.90625 0.0063,-0.167809 0.03125,-0.324519 0.03125,-0.5 -1.8e-5,-1.928778 -0.382905,-3.393621 -1.125,-4.40625 -0.729966,-1.012599 -1.788447,-1.499985 -3.1875,-1.5 z m 11.0625,6.40625 c -0.0837,2.897674 -0.906868,5.305875 -2.4375,7.1875 -1.618077,1.977009 -3.669195,2.90625 -6.1875,2.90625 -1.423413,0 -2.65509,-0.289251 -3.75,-0.84375 -1.094934,-0.566583 -2.099742,-1.443615 -3,-2.625 l 0,1 c 0.900258,1.181385 1.905066,2.058417 3,2.625 1.09491,0.554499 2.326587,0.84375 3.75,0.84375 2.518305,0 4.569423,-0.929241 6.1875,-2.90625 1.618029,-1.989063 2.437476,-4.565265 2.4375,-7.6875 -10e-7,-0.168645 0.0048,-0.334483 0,-0.5 z m -46,4.65625 L 28.125,53 l -6.65625,0 -0.375,1 7.03125,0 1.78125,-4.96875 10.96875,0 1.6875,4.96875 7.125,0 -0.375,-1 -6.75,0 -1.6875,-4.96875 -10.96875,0 z M 53.96875,53 l 0,1 6.5625,0 0,-1 -6.5625,0 z M 27,65 l -6,6 0,1 6,-6 6,6 6,-6 6,6 6,-6 6,6 6,-6 6,6 6,-6 0,-1 -6,6 -6,-6 -6,6 -6,-6 -6,6 -6,-6 -6,6 -6,-6 z" fill="#000000" fill-opacity="1" stroke="none" opacity="0.15" inkscape:connector-curvature="0"/>
 </g>
</svg>
