<?xml version="1.0" encoding="UTF-8" standalone="no"?>
<svg
   xmlns:dc="http://purl.org/dc/elements/1.1/"
   xmlns:cc="http://creativecommons.org/ns#"
   xmlns:rdf="http://www.w3.org/1999/02/22-rdf-syntax-ns#"
   xmlns:svg="http://www.w3.org/2000/svg"
   xmlns="http://www.w3.org/2000/svg"
   xmlns:xlink="http://www.w3.org/1999/xlink"
   xmlns:sodipodi="http://sodipodi.sourceforge.net/DTD/sodipodi-0.dtd"
   xmlns:inkscape="http://www.inkscape.org/namespaces/inkscape"
   height="96"
   width="96"
   id="svg2"
   version="1.1"
   inkscape:version="0.91 r13725"
   sodipodi:docname="tools-check-spelling.svg">
  <metadata
     id="metadata68">
    <rdf:RDF>
      <cc:Work
         rdf:about="">
        <dc:format>image/svg+xml</dc:format>
        <dc:type
           rdf:resource="http://purl.org/dc/dcmitype/StillImage" />
      </cc:Work>
    </rdf:RDF>
  </metadata>
  <sodipodi:namedview
     pagecolor="#ffffff"
     bordercolor="#666666"
     borderopacity="1"
     objecttolerance="10"
     gridtolerance="10"
     guidetolerance="10"
     inkscape:pageopacity="0"
     inkscape:pageshadow="2"
     inkscape:window-width="640"
     inkscape:window-height="480"
     id="namedview66"
     showgrid="false"
     inkscape:zoom="6.9532167"
     inkscape:cx="30.226762"
     inkscape:cy="11.644199"
     inkscape:window-x="202"
     inkscape:window-y="228"
     inkscape:window-maximized="0"
     inkscape:current-layer="svg2" />
  <defs
     id="defs4">
    <linearGradient
       x2="0"
       y1="92.54"
       y2="7.02"
       gradientUnits="userSpaceOnUse"
       id="ButtonShadow-0"
       gradientTransform="matrix(1.0059 0 0 0.99417 100 0)">
      <stop
         stop-color="#000000"
         stop-opacity="1"
         id="stop7" />
      <stop
         stop-color="#000000"
         stop-opacity="0.588"
         offset="1"
         id="stop9" />
    </linearGradient>
    <linearGradient
       x2="0"
       xlink:href="#ButtonShadow-0"
       y1="6.132"
       y2="90.24"
       gradientUnits="userSpaceOnUse"
       id="linearGradient3780"
       gradientTransform="matrix(1.02381 0 0 -1.0119 -1.143 98.07)" />
    <linearGradient
       x2="0"
       xlink:href="#ButtonShadow-0"
       y1="6.132"
       y2="90.24"
       gradientUnits="userSpaceOnUse"
       id="linearGradient3721"
       gradientTransform="matrix(1 0 0 -1 0 97)" />
    <radialGradient
       cy="90.17"
       r="42"
       gradientUnits="userSpaceOnUse"
       id="radialGradient3619-3"
       cx="48"
       gradientTransform="matrix(1.15731 0 0 0.99591 -7.551 0.197)">
      <stop
         stop-color="#ffffff"
         stop-opacity="1"
         id="stop14" />
      <stop
         stop-color="#ffffff"
         stop-opacity="0"
         offset="1"
         id="stop16" />
    </radialGradient>
    <linearGradient
       x2="0"
       y1="3.15"
       y2="18"
       gradientUnits="userSpaceOnUse"
       id="linearGradient3887"
       gradientTransform="matrix(4.0799862,0,0,4.0799862,3.8641914,3.8844832)">
      <stop
         stop-color="#1a1a1a"
         stop-opacity="1"
         id="stop19" />
      <stop
         stop-color="#4d4d4d"
         stop-opacity="1"
         offset="1"
         id="stop21" />
    </linearGradient>
    <rect
       x="6"
       rx="6"
       y="6"
       fill="#000000"
       fill-opacity="1"
       stroke="none"
       fill-rule="nonzero"
       height="84"
       id="SVGCleanerId_0"
       opacity="0.6"
       width="84" />
  </defs>
  <path
     style="fill:url(#linearGradient3887);fill-opacity:1;stroke:none"
     id="path60"
     inkscape:connector-curvature="0"
     d="m 55.501517,15.996942 0,36.847376 8.92497,0 0,-4.079987 c 1.224346,1.606679 2.590881,2.799438 4.079986,3.569988 1.489072,0.754116 3.164147,1.147496 5.099983,1.147496 3.424883,0 6.214394,-1.263763 8.414971,-3.952486 2.200512,-2.705117 3.314956,-6.20874 3.314989,-10.454965 -3.3e-5,-4.246201 -1.114477,-7.766217 -3.314989,-10.454964 -2.200577,-2.705093 -4.990088,-4.079958 -8.414971,-4.079987 -1.935836,2.9e-5 -3.610911,0.376991 -5.099983,1.147496 -1.489105,0.754182 -2.85564,1.963335 -4.079986,3.569988 l 0,-13.259955 -8.92497,0 z m -30.939896,0.1275 -13.769953,36.719876 9.562468,0 2.422491,-6.757478 14.91745,0 2.294992,6.757478 9.689967,0 -13.769953,-36.719876 -11.347462,0 z m 5.737481,8.542471 4.972483,14.66245 -10.072466,0 5.099983,-14.66245 z m 39.992365,6.374978 c 1.902705,2.1e-5 3.342235,0.662863 4.334985,2.039993 1.009246,1.377171 1.52997,3.369351 1.529995,5.99248 -2.5e-5,2.623154 -0.520749,4.615334 -1.529995,5.99248 -0.99275,1.377158 -2.43228,2.039997 -4.334985,2.039993 -1.902743,4e-6 -3.309183,-0.662835 -4.334986,-2.039993 -1.009286,-1.393536 -1.530007,-3.385715 -1.529994,-5.99248 -1.3e-5,-2.606736 0.520708,-4.615309 1.529994,-5.99248 1.025803,-1.393527 2.432243,-2.039972 4.334986,-2.039993 z m -51.467326,29.962399 -8.159973,8.159972 0,8.159973 8.159973,-8.159973 8.159972,8.159973 8.159973,-8.159973 8.159972,8.159973 8.159972,-8.159973 8.159973,8.159973 8.159972,-8.159973 8.159973,8.159973 8.159972,-8.159973 0,-8.159972 -8.159972,8.159972 -8.159973,-8.159972 -8.159972,8.159972 -8.159973,-8.159972 -8.159972,8.159972 -8.159972,-8.159972 -8.159973,8.159972 -8.159972,-8.159972 z" />
  <path
     style="opacity:0.75;fill:#ffffff;fill-opacity:1;stroke:none"
     id="path62"
     inkscape:connector-curvature="0"
     d="m 55.501517,15.996942 0,1.359996 8.92497,0 0,-1.359996 -8.92497,0 z m -30.939896,0.1275 -13.769953,36.719876 0.509998,0 13.259955,-35.359881 11.347462,0 13.259955,35.359881 0.509998,0 -13.769953,-36.719876 -11.347462,0 z m 49.044835,8.414971 c -1.935836,2.9e-5 -3.610911,0.376991 -5.099983,1.147496 -1.489105,0.754182 -2.85564,1.963335 -4.079986,3.569988 l 0,1.359996 c 1.224346,-1.606654 2.590881,-2.815807 4.079986,-3.569988 1.489072,-0.770506 3.164147,-1.147468 5.099983,-1.147496 3.424883,2.8e-5 6.214394,1.374894 8.414971,4.079986 2.081653,2.543516 3.20115,5.832624 3.314989,9.774967 0.0065,-0.225017 -2e-6,-0.45064 0,-0.679998 -3.3e-5,-4.246201 -1.114477,-7.766217 -3.314989,-10.454964 -2.200577,-2.705093 -4.990088,-4.079958 -8.414971,-4.079987 z m -47.939838,14.78995 -0.467499,1.359996 10.072466,0 -0.467498,-1.359996 -9.137469,0 z m 38.802368,0.424999 c -0.009,0.232272 -0.0425,0.437331 -0.0425,0.679998 -1.3e-5,2.606764 0.520708,4.598944 1.529994,5.992479 1.025803,1.377159 2.432243,2.039997 4.334986,2.039993 1.902705,4e-6 3.342235,-0.662834 4.334985,-2.039993 1.009246,-1.377146 1.52997,-3.369326 1.529995,-5.992479 -3e-6,-0.238651 -0.03391,-0.45178 -0.0425,-0.679998 -0.08591,2.280255 -0.570069,4.060628 -1.487495,5.312482 -0.99275,1.377158 -2.43228,2.039997 -4.334985,2.039993 -1.902743,4e-6 -3.309183,-0.662835 -4.334986,-2.039993 -0.91533,-1.263808 -1.399832,-3.052036 -1.487495,-5.312482 z m -45.644845,21.249928 -8.159973,8.159972 0,1.359996 8.159973,-8.159973 8.159972,8.159973 8.159973,-8.159973 8.159972,8.159973 8.159972,-8.159973 8.159973,8.159973 8.159972,-8.159973 8.159973,8.159973 8.159972,-8.159973 0,-1.359995 -8.159972,8.159972 -8.159973,-8.159972 -8.159972,8.159972 -8.159973,-8.159972 -8.159972,8.159972 -8.159972,-8.159972 -8.159973,8.159972 -8.159972,-8.159972 z" />
  <path
     style="opacity:0.15;fill:#000000;fill-opacity:1;stroke:none"
     id="path64"
     inkscape:connector-curvature="0"
     d="m 30.299102,23.306918 -5.099983,14.66245 0.467499,0 4.632484,-13.302455 4.504985,13.302455 0.467498,0 -4.972483,-14.66245 z m 39.992365,6.374978 c -1.902743,2e-5 -3.309183,0.646466 -4.334986,2.039993 -1.009286,1.377171 -1.530007,3.385744 -1.529994,5.99248 -2e-6,0.242669 0.0335,0.447967 0.0425,0.679997 0.08767,-2.262806 0.572165,-4.063515 1.487495,-5.312482 1.025803,-1.393527 2.432243,-2.039972 4.334986,-2.039993 1.902705,2.1e-5 3.342235,0.662863 4.334985,2.039993 0.917426,1.251878 1.40159,3.032246 1.487495,5.312482 0.0086,-0.228219 0.0425,-0.441344 0.0425,-0.679997 -2.5e-5,-2.623129 -0.520749,-4.615309 -1.529995,-5.99248 -0.99275,-1.37713 -2.43228,-2.039973 -4.334985,-2.039993 z m 15.044949,8.71247 c -0.113832,3.940824 -1.233336,7.215966 -3.314989,9.774967 -2.200577,2.688724 -4.990088,3.952487 -8.414971,3.952487 -1.935836,0 -3.610911,-0.39338 -5.099983,-1.147496 -1.489105,-0.77055 -2.85564,-1.96331 -4.079986,-3.569988 l 0,1.359995 c 1.224346,1.606679 2.590881,2.799438 4.079986,3.569988 1.489072,0.754116 3.164147,1.147496 5.099983,1.147496 3.424883,0 6.214394,-1.263763 8.414971,-3.952486 2.200512,-2.705117 3.314956,-6.20874 3.314989,-10.454965 -2e-6,-0.229356 0.0065,-0.454895 0,-0.679998 z m -62.559789,6.332479 -2.422491,6.757477 -9.05247,0 -0.509998,1.359996 9.562468,0 2.422491,-6.757478 14.91745,0 2.294992,6.757478 9.689967,0 -0.509998,-1.359996 -9.179969,0 -2.294992,-6.757477 -14.91745,0 z m 32.72489,6.757477 0,1.359996 8.92497,0 0,-1.359996 -8.92497,0 z m -36.677376,16.319945 -8.159973,8.159972 0,1.359996 8.159973,-8.159973 8.159972,8.159973 8.159973,-8.159973 8.159972,8.159973 8.159972,-8.159973 8.159973,8.159973 8.159972,-8.159973 8.159973,8.159973 8.159972,-8.159973 0,-1.359995 -8.159972,8.159972 -8.159973,-8.159972 -8.159972,8.159972 -8.159973,-8.159972 -8.159972,8.159972 -8.159972,-8.159972 -8.159973,8.159972 -8.159972,-8.159972 z" />
</svg>
