<?xml version="1.0" encoding="UTF-8" standalone="no"?>
<svg
   xmlns:dc="http://purl.org/dc/elements/1.1/"
   xmlns:cc="http://creativecommons.org/ns#"
   xmlns:rdf="http://www.w3.org/1999/02/22-rdf-syntax-ns#"
   xmlns:svg="http://www.w3.org/2000/svg"
   xmlns="http://www.w3.org/2000/svg"
   xmlns:xlink="http://www.w3.org/1999/xlink"
   xmlns:sodipodi="http://sodipodi.sourceforge.net/DTD/sodipodi-0.dtd"
   xmlns:inkscape="http://www.inkscape.org/namespaces/inkscape"
   height="96"
   width="96"
   id="svg2"
   version="1.1"
   inkscape:version="0.91 r13725"
   sodipodi:docname="view-sort-ascending.svg">
  <metadata
     id="metadata68">
    <rdf:RDF>
      <cc:Work
         rdf:about="">
        <dc:format>image/svg+xml</dc:format>
        <dc:type
           rdf:resource="http://purl.org/dc/dcmitype/StillImage" />
      </cc:Work>
    </rdf:RDF>
  </metadata>
  <sodipodi:namedview
     pagecolor="#ffffff"
     bordercolor="#666666"
     borderopacity="1"
     objecttolerance="10"
     gridtolerance="10"
     guidetolerance="10"
     inkscape:pageopacity="0"
     inkscape:pageshadow="2"
     inkscape:window-width="640"
     inkscape:window-height="480"
     id="namedview66"
     showgrid="false"
     inkscape:zoom="4.9166667"
     inkscape:cx="42.831344"
     inkscape:cy="43.713757"
     inkscape:window-x="158"
     inkscape:window-y="184"
     inkscape:window-maximized="0"
     inkscape:current-layer="svg2" />
  <defs
     id="defs4">
    <linearGradient
       x2="0"
       y1="92.54"
       y2="7.02"
       gradientUnits="userSpaceOnUse"
       id="ButtonShadow-0"
       gradientTransform="matrix(1.0059 0 0 0.99417 100 0)">
      <stop
         stop-color="#000000"
         stop-opacity="1"
         id="stop7" />
      <stop
         stop-color="#000000"
         stop-opacity="0.588"
         offset="1"
         id="stop9" />
    </linearGradient>
    <linearGradient
       x2="0"
       xlink:href="#ButtonShadow-0"
       y1="6.132"
       y2="90.24"
       gradientUnits="userSpaceOnUse"
       id="linearGradient3780"
       gradientTransform="matrix(1.02381 0 0 -1.0119 -1.143 98.07)" />
    <linearGradient
       x2="0"
       xlink:href="#ButtonShadow-0"
       y1="6.132"
       y2="90.24"
       gradientUnits="userSpaceOnUse"
       id="linearGradient3721"
       gradientTransform="matrix(1 0 0 -1 0 97)" />
    <radialGradient
       cy="90.17"
       r="42"
       gradientUnits="userSpaceOnUse"
       id="radialGradient3619-3"
       cx="48"
       gradientTransform="matrix(1.15731 0 0 0.99591 -7.551 0.197)">
      <stop
         stop-color="#ffffff"
         stop-opacity="1"
         id="stop14" />
      <stop
         stop-color="#ffffff"
         stop-opacity="0"
         offset="1"
         id="stop16" />
    </radialGradient>
    <linearGradient
       x1="13.262"
       x2="-0.53"
       gradientUnits="userSpaceOnUse"
       id="linearGradient3895"
       gradientTransform="matrix(0,-5.3814959,4.2068702,0,11.134663,80.858983)">
      <stop
         stop-color="#1a1a1a"
         stop-opacity="1"
         id="stop19" />
      <stop
         stop-color="#4d4d4d"
         stop-opacity="1"
         offset="1"
         id="stop21" />
    </linearGradient>
    <rect
       x="6"
       rx="6"
       y="6"
       fill="#000000"
       fill-opacity="1"
       stroke="none"
       fill-rule="nonzero"
       height="84"
       id="SVGCleanerId_0"
       opacity="0.6"
       width="84" />
  </defs>
  <path
     style="fill:url(#linearGradient3895);fill-opacity:1;stroke:none"
     id="path60"
     inkscape:connector-curvature="0"
     d="m 23.029372,9.4878734 c -3.941716,0 -7.137111,3.1953946 -7.137111,7.1371106 0,3.941717 3.195395,7.137111 7.137111,7.137111 3.941717,0 7.137111,-3.195394 7.137111,-7.137111 0,-3.941716 -3.195394,-7.1371106 -7.137111,-7.1371106 z m 29.842046,0 0,22.5711136 -11.285557,0 19.537841,25.961241 19.002558,-25.961241 -11.419377,0 0,-22.5711136 -15.835465,0 z M 23.029372,29.471784 c -3.941716,0 -7.137111,3.195395 -7.137111,7.137111 0,3.941717 3.195395,7.137111 7.137111,7.137111 3.941717,0 7.137111,-3.195394 7.137111,-7.137111 0,-3.941716 -3.195394,-7.137111 -7.137111,-7.137111 z m 0,19.983911 c -3.941716,0 -7.137111,3.195395 -7.137111,7.137111 0,3.941716 3.195395,7.137111 7.137111,7.137111 3.941717,0 7.137111,-3.195395 7.137111,-7.137111 0,-3.941716 -3.195394,-7.137111 -7.137111,-7.137111 z m 0,19.983911 c -3.941716,0 -7.137111,3.195394 -7.137111,7.137111 0,3.941716 3.195395,7.137111 7.137111,7.137111 3.941717,0 7.137111,-3.195395 7.137111,-7.137111 0,-3.941717 -3.195394,-7.137111 -7.137111,-7.137111 z" />
  <path
     style="opacity:0.75;fill:#ffffff;fill-opacity:1;stroke:none"
     id="path62"
     inkscape:connector-curvature="0"
     d="m 23.029372,9.4878734 c -3.941716,0 -7.137111,3.1953946 -7.137111,7.1371106 0,0.246358 0.02024,0.473783 0.04461,0.713712 0.365492,-3.598932 3.397145,-6.4234 7.092504,-6.4234 3.695359,0 6.727013,2.824468 7.092504,6.4234 0.02437,-0.239929 0.04461,-0.467354 0.04461,-0.713712 0,-3.941716 -3.195394,-7.1371106 -7.137111,-7.1371106 z m 29.842046,0 0,1.4274226 15.835465,0 0,-1.4274226 -15.835465,0 z M 23.029372,29.471784 c -3.941716,0 -7.137111,3.195395 -7.137111,7.137111 0,0.246358 0.02024,0.473783 0.04461,0.713711 0.365492,-3.598931 3.397145,-6.4234 7.092504,-6.4234 3.695359,0 6.727013,2.824469 7.092504,6.4234 0.02437,-0.239928 0.04461,-0.467353 0.04461,-0.713711 0,-3.941716 -3.195394,-7.137111 -7.137111,-7.137111 z m 18.556489,2.587203 1.070566,1.427422 10.214991,0 0,-1.427422 -11.285557,0 z m 27.121022,0 0,1.427422 10.393417,0 1.02596,-1.427422 -11.419377,0 z M 23.029372,49.455695 c -3.941716,0 -7.137111,3.195395 -7.137111,7.137111 0,0.246357 0.02024,0.473783 0.04461,0.713711 0.365492,-3.598931 3.397145,-6.4234 7.092504,-6.4234 3.695359,0 6.727013,2.824469 7.092504,6.4234 0.02437,-0.239928 0.04461,-0.467354 0.04461,-0.713711 0,-3.941716 -3.195394,-7.137111 -7.137111,-7.137111 z m 0,19.983911 c -3.941716,0 -7.137111,3.195394 -7.137111,7.137111 0,0.246357 0.02024,0.473783 0.04461,0.713711 0.365492,-3.598931 3.397145,-6.4234 7.092504,-6.4234 3.695359,0 6.727013,2.824469 7.092504,6.4234 0.02437,-0.239928 0.04461,-0.467354 0.04461,-0.713711 0,-3.941717 -3.195394,-7.137111 -7.137111,-7.137111 z" />
  <path
     style="opacity:0.15;fill:#000000;fill-opacity:1;stroke:none"
     id="path64"
     inkscape:connector-curvature="0"
     d="m 15.936868,15.911273 c -0.02437,0.239929 -0.04461,0.467354 -0.04461,0.713711 0,3.941717 3.195395,7.137111 7.137111,7.137111 3.941717,0 7.137111,-3.195394 7.137111,-7.137111 0,-0.246357 -0.02024,-0.473782 -0.04461,-0.713711 -0.365491,3.598931 -3.397145,6.4234 -7.092504,6.4234 -3.695359,0 -6.727012,-2.824469 -7.092504,-6.4234 z m 25.648993,16.147714 19.537841,25.961241 19.002558,-25.961241 -1.02596,0 -17.976598,24.533819 -18.467275,-24.533819 -1.070566,0 z m -25.648993,3.836197 c -0.02437,0.239928 -0.04461,0.467354 -0.04461,0.713711 0,3.941717 3.195395,7.137111 7.137111,7.137111 3.941717,0 7.137111,-3.195394 7.137111,-7.137111 0,-0.246357 -0.02024,-0.473783 -0.04461,-0.713711 -0.365491,3.598931 -3.397145,6.4234 -7.092504,6.4234 -3.695359,0 -6.727012,-2.824469 -7.092504,-6.4234 z m 0,19.983911 c -0.02437,0.239928 -0.04461,0.467354 -0.04461,0.713711 0,3.941716 3.195395,7.137111 7.137111,7.137111 3.941717,0 7.137111,-3.195395 7.137111,-7.137111 0,-0.246357 -0.02024,-0.473783 -0.04461,-0.713711 -0.365491,3.598931 -3.397145,6.4234 -7.092504,6.4234 -3.695359,0 -6.727012,-2.824469 -7.092504,-6.4234 z m 0,19.983911 c -0.02437,0.239928 -0.04461,0.467353 -0.04461,0.713711 0,3.941716 3.195395,7.137111 7.137111,7.137111 3.941717,0 7.137111,-3.195395 7.137111,-7.137111 0,-0.246358 -0.02024,-0.473783 -0.04461,-0.713711 -0.365491,3.598931 -3.397145,6.4234 -7.092504,6.4234 -3.695359,0 -6.727012,-2.824469 -7.092504,-6.4234 z" />
</svg>
