<?xml version="1.0" encoding="UTF-8" standalone="no"?>
<svg
   xmlns:dc="http://purl.org/dc/elements/1.1/"
   xmlns:cc="http://creativecommons.org/ns#"
   xmlns:rdf="http://www.w3.org/1999/02/22-rdf-syntax-ns#"
   xmlns:svg="http://www.w3.org/2000/svg"
   xmlns="http://www.w3.org/2000/svg"
   xmlns:xlink="http://www.w3.org/1999/xlink"
   xmlns:sodipodi="http://sodipodi.sourceforge.net/DTD/sodipodi-0.dtd"
   xmlns:inkscape="http://www.inkscape.org/namespaces/inkscape"
   height="96"
   width="96"
   id="svg2"
   version="1.1"
   inkscape:version="0.91 r13725"
   sodipodi:docname="view-refresh.svg">
  <metadata
     id="metadata68">
    <rdf:RDF>
      <cc:Work
         rdf:about="">
        <dc:format>image/svg+xml</dc:format>
        <dc:type
           rdf:resource="http://purl.org/dc/dcmitype/StillImage" />
      </cc:Work>
    </rdf:RDF>
  </metadata>
  <sodipodi:namedview
     pagecolor="#ffffff"
     bordercolor="#666666"
     borderopacity="1"
     objecttolerance="10"
     gridtolerance="10"
     guidetolerance="10"
     inkscape:pageopacity="0"
     inkscape:pageshadow="2"
     inkscape:window-width="640"
     inkscape:window-height="480"
     id="namedview66"
     showgrid="false"
     inkscape:zoom="2.4583333"
     inkscape:cx="22.98305"
     inkscape:cy="47.999999"
     inkscape:window-x="724"
     inkscape:window-y="41"
     inkscape:window-maximized="0"
     inkscape:current-layer="svg2" />
  <defs
     id="defs4">
    <linearGradient
       x2="0"
       y1="92.54"
       y2="7.02"
       gradientUnits="userSpaceOnUse"
       id="ButtonShadow-0"
       gradientTransform="matrix(1.0059 0 0 0.99417 100 0)">
      <stop
         stop-color="#000000"
         stop-opacity="1"
         id="stop7" />
      <stop
         stop-color="#000000"
         stop-opacity="0.588"
         offset="1"
         id="stop9" />
    </linearGradient>
    <linearGradient
       x2="0"
       xlink:href="#ButtonShadow-0"
       y1="6.132"
       y2="90.24"
       gradientUnits="userSpaceOnUse"
       id="linearGradient3780"
       gradientTransform="matrix(1.02381 0 0 -1.0119 -1.143 98.07)" />
    <linearGradient
       x2="0"
       xlink:href="#ButtonShadow-0"
       y1="6.132"
       y2="90.24"
       gradientUnits="userSpaceOnUse"
       id="linearGradient3721"
       gradientTransform="matrix(1 0 0 -1 0 97)" />
    <radialGradient
       cy="90.17"
       r="42"
       gradientUnits="userSpaceOnUse"
       id="radialGradient3619-3"
       cx="48"
       gradientTransform="matrix(1.15731 0 0 0.99591 -7.551 0.197)">
      <stop
         stop-color="#ffffff"
         stop-opacity="1"
         id="stop14" />
      <stop
         stop-color="#ffffff"
         stop-opacity="0"
         offset="1"
         id="stop16" />
    </radialGradient>
    <linearGradient
       x2="0"
       y1="4.397"
       y2="19.29"
       gradientUnits="userSpaceOnUse"
       id="linearGradient3015"
       gradientTransform="matrix(3.49192,0,0,3.0248,10.25,10.608)">
      <stop
         stop-color="#1a1a1a"
         stop-opacity="1"
         id="stop19" />
      <stop
         stop-color="#4d4d4d"
         stop-opacity="1"
         offset="1"
         id="stop21" />
    </linearGradient>
    <rect
       x="6"
       rx="6"
       y="6"
       fill="#000000"
       fill-opacity="1"
       stroke="none"
       fill-rule="nonzero"
       height="84"
       id="SVGCleanerId_0"
       opacity="0.6"
       width="84" />
  </defs>
  <g
     id="g3571"
     transform="matrix(1.4349774,0,0,1.4349774,-18.008955,-20.049327)">
    <path
       d="m 49.46875,23.03125 c -12.330632,-3e-6 -22.415651,9.228946 -24.03125,21.125 l -5.4375,0 c -1.76e-4,2e-6 -0.124825,-1.4e-5 -0.125,0 -1.75e-4,1.4e-5 -0.124826,0.03122 -0.125,0.03125 -1.74e-4,2.5e-5 -0.124828,-3.7e-5 -0.125,0 -1.72e-4,3.7e-5 -0.124831,0.0312 -0.125,0.03125 -1.69e-4,4.8e-5 -0.124834,0.03119 -0.125,0.03125 -1.66e-4,6e-5 -0.124839,0.06243 -0.125,0.0625 -1.61e-4,7.1e-5 -0.124844,0.06242 -0.125,0.0625 -1.56e-4,8.1e-5 -0.0936,0.06241 -0.09375,0.0625 -1.5e-4,9.1e-5 -0.09361,0.0624 -0.09375,0.0625 -1.44e-4,1.01e-4 -0.124863,0.06239 -0.125,0.0625 -1.37e-4,1.11e-4 -0.09362,0.09363 -0.09375,0.09375 -1.29e-4,1.2e-4 -0.09363,0.09362 -0.09375,0.09375 -1.21e-4,1.28e-4 -0.06239,0.09361 -0.0625,0.09375 -1.12e-4,1.36e-4 -0.09365,0.09361 -0.09375,0.09375 -1.03e-4,1.43e-4 -0.06241,0.0936 -0.0625,0.09375 -9.3e-5,1.49e-4 -0.06242,0.124845 -0.0625,0.125 -8.3e-5,1.55e-4 -0.06243,0.124839 -0.0625,0.125 -7.2e-5,1.61e-4 -0.03119,0.09358 -0.03125,0.09375 -6.1e-5,1.65e-4 -0.06245,0.124831 -0.0625,0.125 -5e-5,1.69e-4 -0.03121,0.124828 -0.03125,0.125 -3.9e-5,1.72e-4 2.7e-5,0.124826 0,0.125 -2.7e-5,1.74e-4 -0.03123,0.124825 -0.03125,0.125 -1.5e-5,1.75e-4 4e-6,0.124824 0,0.125 -4e-6,1.76e-4 -8e-6,0.124824 0,0.125 8e-6,1.76e-4 -2e-5,0.124825 0,0.125 2e-5,1.75e-4 0.03122,0.124827 0.03125,0.125 3.2e-5,1.73e-4 0.03121,0.124829 0.03125,0.125 4.3e-5,1.71e-4 0.0312,0.124833 0.03125,0.125 5.4e-5,1.67e-4 0.03118,0.124837 0.03125,0.125 6.6e-5,1.63e-4 0.06242,0.124841 0.0625,0.125 7.6e-5,1.59e-4 0.06241,0.0936 0.0625,0.09375 8.7e-5,1.53e-4 0.0624,0.124853 0.0625,0.125 l 11.25,16.84375 c 9e-5,1.31e-4 0.0624,0.09362 0.0625,0.09375 9.8e-5,1.26e-4 0.09364,0.09363 0.09375,0.09375 1.05e-4,1.19e-4 0.06239,0.06239 0.0625,0.0625 1.12e-4,1.13e-4 0.09363,0.09364 0.09375,0.09375 1.19e-4,1.06e-4 0.09362,0.0624 0.09375,0.0625 1.25e-4,9.8e-5 0.09362,0.06241 0.09375,0.0625 1.31e-4,9.1e-5 0.09361,0.06242 0.09375,0.0625 1.36e-4,8.3e-5 0.09361,0.06243 0.09375,0.0625 1.41e-4,7.4e-5 0.09361,0.06243 0.09375,0.0625 1.45e-4,6.6e-5 0.124851,0.03119 0.125,0.03125 1.49e-4,5.7e-5 0.0936,0.0312 0.09375,0.03125 1.52e-4,4.7e-5 0.124845,0.03121 0.125,0.03125 1.55e-4,3.8e-5 0.09359,0.03122 0.09375,0.03125 1.57e-4,2.9e-5 0.124842,0.03123 0.125,0.03125 1.58e-4,1.9e-5 0.09359,-1e-5 0.09375,0 1.59e-4,1e-5 0.124841,0 0.125,0 1.59e-4,0 0.124841,1e-5 0.125,0 1.59e-4,-1e-5 0.09359,1.9e-5 0.09375,0 1.58e-4,-1.9e-5 0.124843,-0.03122 0.125,-0.03125 1.57e-4,-2.9e-5 0.0936,-0.03121 0.09375,-0.03125 1.55e-4,-3.8e-5 0.124848,-0.0312 0.125,-0.03125 1.52e-4,-4.7e-5 0.0936,-0.03119 0.09375,-0.03125 1.49e-4,-5.7e-5 0.124855,-0.03118 0.125,-0.03125 1.45e-4,-6.6e-5 0.09361,-0.06243 0.09375,-0.0625 1.41e-4,-7.4e-5 0.09361,-0.06242 0.09375,-0.0625 1.36e-4,-8.3e-5 0.09362,-0.06241 0.09375,-0.0625 1.31e-4,-9.1e-5 0.09363,-0.0624 0.09375,-0.0625 1.25e-4,-9.8e-5 0.09363,-0.06239 0.09375,-0.0625 1.19e-4,-1.06e-4 0.09364,-0.09364 0.09375,-0.09375 1.12e-4,-1.13e-4 0.0624,-0.06238 0.0625,-0.0625 1.05e-4,-1.19e-4 0.09365,-0.09362 0.09375,-0.09375 9.8e-5,-1.26e-4 0.06241,-0.09362 0.0625,-0.09375 L 44.09375,47.09375 c 9.7e-5,-1.47e-4 0.06241,-0.124847 0.0625,-0.125 8.7e-5,-1.53e-4 0.06242,-0.09359 0.0625,-0.09375 7.6e-5,-1.59e-4 0.06243,-0.124837 0.0625,-0.125 6.6e-5,-1.63e-4 0.0312,-0.124833 0.03125,-0.125 5.4e-5,-1.67e-4 0.03121,-0.124829 0.03125,-0.125 4.3e-5,-1.71e-4 0.03122,-0.124827 0.03125,-0.125 3.2e-5,-1.73e-4 0.03123,-0.124825 0.03125,-0.125 2e-5,-1.75e-4 -8e-6,-0.124824 0,-0.125 8e-6,-1.76e-4 4e-6,-0.124824 0,-0.125 -4e-6,-1.76e-4 1.5e-5,-0.124825 0,-0.125 -1.5e-5,-1.75e-4 -0.03122,-0.124826 -0.03125,-0.125 -2.7e-5,-1.74e-4 3.9e-5,-0.124828 0,-0.125 -3.9e-5,-1.72e-4 -0.0312,-0.124831 -0.03125,-0.125 -5e-5,-1.69e-4 -0.06244,-0.124835 -0.0625,-0.125 -6.1e-5,-1.65e-4 -0.03118,-0.09359 -0.03125,-0.09375 -7.2e-5,-1.61e-4 -0.06242,-0.124845 -0.0625,-0.125 -8.3e-5,-1.55e-4 -0.06241,-0.124851 -0.0625,-0.125 -9.3e-5,-1.49e-4 -0.0624,-0.09361 -0.0625,-0.09375 -1.03e-4,-1.43e-4 -0.09364,-0.09361 -0.09375,-0.09375 -1.12e-4,-1.36e-4 -0.06238,-0.09362 -0.0625,-0.09375 -1.21e-4,-1.28e-4 -0.09362,-0.09363 -0.09375,-0.09375 -1.29e-4,-1.2e-4 -0.09361,-0.09364 -0.09375,-0.09375 -1.37e-4,-1.11e-4 -0.124856,-0.0624 -0.125,-0.0625 -1.44e-4,-1.01e-4 -0.0936,-0.06241 -0.09375,-0.0625 -1.5e-4,-9.1e-5 -0.09359,-0.06242 -0.09375,-0.0625 -1.56e-4,-8.1e-5 -0.124839,-0.06243 -0.125,-0.0625 -1.61e-4,-7.1e-5 -0.124834,-0.06244 -0.125,-0.0625 -1.66e-4,-6e-5 -0.124831,-0.0312 -0.125,-0.03125 -1.69e-4,-4.8e-5 -0.124828,-0.03121 -0.125,-0.03125 -1.72e-4,-3.7e-5 -0.124826,2.5e-5 -0.125,0 -1.74e-4,-2.5e-5 -0.124825,-0.03124 -0.125,-0.03125 -1.75e-4,-1.4e-5 -0.124824,2e-6 -0.125,0 l -5.53125,0 c 1.4579,-5.636526 6.349725,-9.84375 12.46875,-9.84375 7.270318,3e-6 13.125,5.85468 13.125,13.125 0,7.270505 -5.849631,13.09375 -13.125,13.09375 -2.55e-4,3e-6 -0.187247,-2.7e-5 -0.1875,0 -2.53e-4,2.7e-5 -0.187251,0.0312 -0.1875,0.03125 -2.49e-4,5.2e-5 -0.187257,0.06242 -0.1875,0.0625 -2.43e-4,7.6e-5 -0.156015,0.0624 -0.15625,0.0625 -2.35e-4,9.9e-5 -0.156026,0.06238 -0.15625,0.0625 -2.24e-4,1.21e-4 -0.156039,0.09361 -0.15625,0.09375 -2.11e-4,1.42e-4 -0.156053,0.124838 -0.15625,0.125 -1.97e-4,1.62e-4 -0.12482,0.12482 -0.125,0.125 -1.8e-4,1.8e-4 -0.124838,0.124803 -0.125,0.125 -1.62e-4,1.97e-4 -0.124858,0.156039 -0.125,0.15625 -1.42e-4,2.11e-4 -0.09363,0.156026 -0.09375,0.15625 -1.21e-4,2.24e-4 -0.0624,0.156015 -0.0625,0.15625 -9.9e-5,2.35e-4 -0.06242,0.156007 -0.0625,0.15625 -7.6e-5,2.43e-4 -0.06245,0.187251 -0.0625,0.1875 -5.2e-5,2.49e-4 -0.03122,0.187247 -0.03125,0.1875 -2.7e-5,2.53e-4 3e-6,0.187245 0,0.1875 l 0,7.53125 c 3e-6,2.55e-4 -2.7e-5,0.187247 0,0.1875 2.7e-5,2.53e-4 0.0312,0.187251 0.03125,0.1875 5.2e-5,2.49e-4 0.06242,0.187257 0.0625,0.1875 7.6e-5,2.43e-4 0.0624,0.156015 0.0625,0.15625 9.9e-5,2.35e-4 0.06238,0.156026 0.0625,0.15625 1.21e-4,2.24e-4 0.09361,0.156039 0.09375,0.15625 1.42e-4,2.11e-4 0.124838,0.156053 0.125,0.15625 1.62e-4,1.97e-4 0.12482,0.12482 0.125,0.125 1.8e-4,1.8e-4 0.124803,0.124838 0.125,0.125 1.97e-4,1.62e-4 0.156039,0.124858 0.15625,0.125 2.11e-4,1.42e-4 0.156026,0.09363 0.15625,0.09375 2.24e-4,1.21e-4 0.156015,0.0624 0.15625,0.0625 2.35e-4,9.9e-5 0.156007,0.06242 0.15625,0.0625 2.43e-4,7.6e-5 0.187251,0.06245 0.1875,0.0625 2.49e-4,5.2e-5 0.187247,0.03122 0.1875,0.03125 2.53e-4,2.7e-5 0.187245,-3e-6 0.1875,0 13.451631,0 24.40625,-10.920258 24.40625,-24.375 3e-6,-13.454669 -10.951582,-24.40625 -24.40625,-24.40625 z"
       id="path42"
       inkscape:connector-curvature="0"
       style="opacity:0.1;fill:black;fill-opacity:1;stroke:none" />
    <path
       d="m 49.46875,23.96875 c -12.149482,-3e-6 -22.067021,9.281678 -23.25,21.125 l -6.21875,0 a 0.94758431,0.94758431 0 0 0 -0.78125,1.46875 l 11.25,16.84375 a 0.94758431,0.94758431 0 0 0 1.5625,0 L 43.3125,46.5625 a 0.94758431,0.94758431 0 0 0 -0.78125,-1.46875 l -6.84375,0 C 36.791939,38.438943 42.484755,33.375 49.46875,33.375 c 7.776684,3e-6 14.0625,6.285814 14.0625,14.0625 0,7.77668 -6.283436,14.03125 -14.0625,14.03125 a 0.94758431,0.94758431 0 0 0 -0.9375,0.9375 l 0,7.53125 a 0.94758431,0.94758431 0 0 0 0.9375,0.9375 c 12.943826,0 23.46875,-10.49209 23.46875,-23.4375 3e-6,-12.945414 -10.523337,-23.46875 -23.46875,-23.46875 z"
       id="path44"
       inkscape:connector-curvature="0"
       style="opacity:0.15;fill:black;fill-opacity:1;stroke:none" />
    <path
       d="m 20,46.022044 11.261147,16.867847 11.261146,-16.867847 -7.949044,0 c 0.69246,-7.641628 7.07989,-13.579621 14.904459,-13.579621 8.288202,3e-6 14.987261,6.699059 14.987261,14.987264 0,8.288199 -6.699059,14.987261 -14.987261,14.987261 l 0,7.535031 C 61.910015,69.951979 72,59.861991 72,47.429687 72.000003,34.99738 61.910015,24.907392 49.477708,24.907392 c -11.960155,-3e-6 -21.71296,9.336398 -22.439491,21.114652 l -7.038217,0 z"
       inkscape:connector-curvature="0"
       id="path46"
       style="opacity:0.3;fill:black;fill-opacity:1;stroke:none" />
    <path
       d="m 20,45.022044 11.261147,16.867847 11.261146,-16.867847 -7.949044,0 c 0.69246,-7.641628 7.07989,-13.579621 14.904459,-13.579621 8.288202,3e-6 14.987261,6.699059 14.987261,14.987264 0,8.288199 -6.699059,14.987261 -14.987261,14.987261 l 0,7.535031 C 61.910015,68.951979 72,58.861991 72,46.429687 72.000003,33.99738 61.910015,23.907392 49.477708,23.907392 c -11.960155,-3e-6 -21.71296,9.336398 -22.439491,21.114652 l -7.038217,0 z"
       inkscape:connector-curvature="0"
       id="path60"
       style="fill:url(#linearGradient3015);fill-opacity:1;stroke:none" />
    <path
       d="m 49.46875,23.90625 c -11.960155,-3e-6 -21.710969,9.346746 -22.4375,21.125 l -7.03125,0 0.65625,1 6.375,0 c 0.726531,-11.778254 10.477345,-21.125003 22.4375,-21.125 12.264425,0 22.263823,9.830624 22.53125,22.03125 0.0037,-0.167008 0,-0.332119 0,-0.5 3e-6,-12.432307 -10.098943,-22.53125 -22.53125,-22.53125 z m -14.75,21.125 c -0.05291,0.33256 -0.125471,0.660336 -0.15625,1 l 7.3125,0 0.65625,-1 -7.8125,0 z M 64.4375,46.9375 c -0.265786,8.05341 -6.849708,14.46875 -14.96875,14.46875 l 0,1 c 8.288202,0 15,-6.680551 15,-14.96875 0,-0.16916 -0.02571,-0.332207 -0.03125,-0.5 z"
       inkscape:connector-curvature="0"
       id="path62"
       style="opacity:0.75;fill:white;fill-opacity:1;stroke:none" />
    <path
       d="m 49.46875,30.4375 c -7.824569,0 -14.21379,5.952122 -14.90625,13.59375 l 0.15625,0 c 1.137412,-7.149252 7.273226,-12.59375 14.75,-12.59375 8.119042,3e-6 14.702964,6.446585 14.96875,14.5 0.0055,-0.167793 0.03125,-0.33084 0.03125,-0.5 0,-8.288205 -6.711798,-14.999997 -15,-15 z M 20,45.03125 31.25,61.875 42.53125,45.03125 l -0.65625,0 L 31.25,60.875 20.65625,45.03125 20,45.03125 Z m 52,0.90625 c -0.26743,12.200623 -10.266825,22 -22.53125,22 l 0,1 C 61.901057,68.9375 72,58.869804 72,46.4375 c 0,-0.167882 0.0037,-0.332992 0,-0.5 z"
       inkscape:connector-curvature="0"
       id="path64"
       style="opacity:0.15;fill:black;fill-opacity:1;stroke:none" />
  </g>
</svg>
