<?xml version="1.0" encoding="UTF-8" standalone="no"?>
<svg
   xmlns:dc="http://purl.org/dc/elements/1.1/"
   xmlns:cc="http://creativecommons.org/ns#"
   xmlns:rdf="http://www.w3.org/1999/02/22-rdf-syntax-ns#"
   xmlns:svg="http://www.w3.org/2000/svg"
   xmlns="http://www.w3.org/2000/svg"
   xmlns:xlink="http://www.w3.org/1999/xlink"
   xmlns:sodipodi="http://sodipodi.sourceforge.net/DTD/sodipodi-0.dtd"
   xmlns:inkscape="http://www.inkscape.org/namespaces/inkscape"
   height="96"
   width="96"
   id="svg2"
   version="1.1"
   inkscape:version="0.91 r13725"
   sodipodi:docname="view-refresh.svg">
  <metadata
     id="metadata68">
    <rdf:RDF>
      <cc:Work
         rdf:about="">
        <dc:format>image/svg+xml</dc:format>
        <dc:type
           rdf:resource="http://purl.org/dc/dcmitype/StillImage" />
      </cc:Work>
    </rdf:RDF>
  </metadata>
  <sodipodi:namedview
     pagecolor="#ffffff"
     bordercolor="#666666"
     borderopacity="1"
     objecttolerance="10"
     gridtolerance="10"
     guidetolerance="10"
     inkscape:pageopacity="0"
     inkscape:pageshadow="2"
     inkscape:window-width="1366"
     inkscape:window-height="708"
     id="namedview66"
     showgrid="false"
     inkscape:zoom="13.906433"
     inkscape:cx="48.532994"
     inkscape:cy="25.135516"
     inkscape:window-x="0"
     inkscape:window-y="24"
     inkscape:window-maximized="1"
     inkscape:current-layer="svg2" />
  <defs
     id="defs4">
    <linearGradient
       x2="0"
       y1="92.54"
       y2="7.02"
       gradientUnits="userSpaceOnUse"
       id="ButtonShadow-0"
       gradientTransform="matrix(1.0059 0 0 0.99417 100 0)">
      <stop
         stop-color="#000000"
         stop-opacity="1"
         id="stop7" />
      <stop
         stop-color="#000000"
         stop-opacity="0.588"
         offset="1"
         id="stop9" />
    </linearGradient>
    <linearGradient
       x2="0"
       xlink:href="#ButtonShadow-0"
       y1="6.132"
       y2="90.24"
       gradientUnits="userSpaceOnUse"
       id="linearGradient3780"
       gradientTransform="matrix(1.02381 0 0 -1.0119 -1.143 98.07)" />
    <linearGradient
       x2="0"
       xlink:href="#ButtonShadow-0"
       y1="6.132"
       y2="90.24"
       gradientUnits="userSpaceOnUse"
       id="linearGradient3721"
       gradientTransform="matrix(1 0 0 -1 0 97)" />
    <radialGradient
       cy="90.17"
       r="42"
       gradientUnits="userSpaceOnUse"
       id="radialGradient3619-3"
       cx="48"
       gradientTransform="matrix(1.15731 0 0 0.99591 -7.551 0.197)">
      <stop
         stop-color="#ffffff"
         stop-opacity="1"
         id="stop14" />
      <stop
         stop-color="#ffffff"
         stop-opacity="0"
         offset="1"
         id="stop16" />
    </radialGradient>
    <linearGradient
       x2="0"
       y1="4.397"
       y2="19.29"
       gradientUnits="userSpaceOnUse"
       id="linearGradient3015"
       gradientTransform="matrix(5.0108263,0,0,4.3405196,-3.3004366,-4.8270867)">
      <stop
         stop-color="#1a1a1a"
         stop-opacity="1"
         id="stop19" />
      <stop
         stop-color="#4d4d4d"
         stop-opacity="1"
         offset="1"
         id="stop21" />
    </linearGradient>
    <rect
       x="6"
       rx="6"
       y="6"
       fill="#000000"
       fill-opacity="1"
       stroke="none"
       fill-rule="nonzero"
       height="84"
       id="SVGCleanerId_0"
       opacity="0.6"
       width="84" />
  </defs>
  <path
     style="fill:url(#linearGradient3015);fill-opacity:1;stroke:none"
     id="path60"
     inkscape:connector-curvature="0"
     d="m 10.690593,44.556289 16.159491,24.204979 16.15949,-24.204979 -11.406698,0 c 0.993664,-10.965564 10.159482,-19.48645 21.387562,-19.48645 11.893382,5e-6 21.506381,9.612999 21.506381,21.506386 0,11.893378 -9.612999,21.50638 -21.506381,21.50638 l 0,10.8126 c 17.840079,0 32.31898,-14.478905 32.31898,-32.31898 4e-6,-17.84008 -14.478901,-32.318985 -32.31898,-32.318985 -17.162552,-4e-6 -31.157607,13.39752 -32.200163,30.299049 l -10.099682,0 z" />
  <path
     style="opacity:0.75;fill:#ffffff;fill-opacity:1;stroke:none"
     id="path62"
     inkscape:connector-curvature="0"
     d="m 52.977583,14.255601 c -17.162552,-4e-6 -31.15475,13.41237 -32.197305,30.313898 l -10.089685,0 0.941704,1.434977 9.147981,0 c 1.042555,-16.901528 15.034753,-30.313901 32.197305,-30.313897 17.599173,0 31.948083,14.106723 32.331835,31.614346 0.0053,-0.239653 0,-0.476584 0,-0.717489 4e-6,-17.84008 -14.491755,-32.331835 -32.331835,-32.331835 z M 31.811667,44.569499 c -0.07593,0.477216 -0.180048,0.947567 -0.224216,1.434977 l 10.493273,0 0.941704,-1.434977 -11.210761,0 z m 42.645734,2.735426 C 74.076004,58.861386 64.628225,68.067254 52.977583,68.067254 l 0,1.434977 c 11.893383,0 21.524661,-9.586439 21.524661,-21.479818 0,-0.24274 -0.03689,-0.476709 -0.04484,-0.717488 z" />
  <path
     style="opacity:0.15;fill:#000000;fill-opacity:1;stroke:none"
     id="path64"
     inkscape:connector-curvature="0"
     d="m 52.977583,23.627798 c -11.228079,0 -20.396467,8.54116 -21.390132,19.506724 l 0.224216,0 c 1.63216,-10.259015 10.436915,-18.071747 21.165916,-18.071747 11.650642,4e-6 21.098421,9.250704 21.479818,20.807172 0.0079,-0.240779 0.04484,-0.474748 0.04484,-0.717488 0,-11.893387 -9.631278,-21.524657 -21.524661,-21.524661 z M 10.690593,44.569499 26.834089,68.7399 43.022428,44.569499 l -0.941704,0 -15.246635,22.735423 -15.201792,-22.735423 -0.941704,0 z m 74.618825,1.300448 C 84.925662,63.377566 70.576756,77.43945 52.977583,77.43945 l 0,1.434978 c 17.84008,0 32.331835,-14.446917 32.331835,-32.286992 0,-0.240907 0.0053,-0.477836 0,-0.717489 z" />
</svg>
