<?xml version="1.0" encoding="UTF-8" standalone="no"?>
<svg
   xmlns:dc="http://purl.org/dc/elements/1.1/"
   xmlns:cc="http://creativecommons.org/ns#"
   xmlns:rdf="http://www.w3.org/1999/02/22-rdf-syntax-ns#"
   xmlns:svg="http://www.w3.org/2000/svg"
   xmlns="http://www.w3.org/2000/svg"
   xmlns:xlink="http://www.w3.org/1999/xlink"
   xmlns:sodipodi="http://sodipodi.sourceforge.net/DTD/sodipodi-0.dtd"
   xmlns:inkscape="http://www.inkscape.org/namespaces/inkscape"
   display="inline"
   height="96"
   width="96"
   id="svg2"
   version="1.1"
   inkscape:version="0.91 r13725"
   sodipodi:docname="view-list-compact-symbolic.svg">
  <metadata
     id="metadata51">
    <rdf:RDF>
      <cc:Work
         rdf:about="">
        <dc:format>image/svg+xml</dc:format>
        <dc:type
           rdf:resource="http://purl.org/dc/dcmitype/StillImage" />
      </cc:Work>
    </rdf:RDF>
  </metadata>
  <sodipodi:namedview
     pagecolor="#ffffff"
     bordercolor="#666666"
     borderopacity="1"
     objecttolerance="10"
     gridtolerance="10"
     guidetolerance="10"
     inkscape:pageopacity="0"
     inkscape:pageshadow="2"
     inkscape:window-width="640"
     inkscape:window-height="480"
     id="namedview49"
     showgrid="false"
     inkscape:zoom="4.9166667"
     inkscape:cx="31.036789"
     inkscape:cy="4.0946502"
     inkscape:window-x="114"
     inkscape:window-y="140"
     inkscape:window-maximized="0"
     inkscape:current-layer="svg2" />
  <defs
     id="defs4">
    <linearGradient
       x2="0"
       y1="92.54"
       y2="7.02"
       gradientUnits="userSpaceOnUse"
       id="ButtonShadow-0"
       gradientTransform="matrix(1.0059 0 0 0.99417 100 0)">
      <stop
         stop-color="#000000"
         stop-opacity="1"
         id="stop7" />
      <stop
         stop-color="#000000"
         stop-opacity="0.588"
         offset="1"
         id="stop9" />
    </linearGradient>
    <linearGradient
       x2="0"
       xlink:href="#ButtonShadow-0"
       y1="6.132"
       y2="90.24"
       gradientUnits="userSpaceOnUse"
       id="linearGradient3780"
       gradientTransform="matrix(1.02381 0 0 -1.0119 -1.143 98.07)" />
    <linearGradient
       x2="0"
       xlink:href="#ButtonShadow-0"
       y1="6.132"
       y2="90.24"
       gradientUnits="userSpaceOnUse"
       id="linearGradient3721-5"
       gradientTransform="matrix(1 0 0 -1 0 97)" />
    <radialGradient
       cy="90.17"
       r="42"
       gradientUnits="userSpaceOnUse"
       id="radialGradient3619-6"
       cx="48"
       gradientTransform="matrix(1.15731 0 0 0.99591 -7.551 0.197)">
      <stop
         stop-color="#ffffff"
         stop-opacity="1"
         id="stop14" />
      <stop
         stop-color="#ffffff"
         stop-opacity="0"
         offset="1"
         id="stop16" />
    </radialGradient>
    <linearGradient
       x2="0"
       y1="57"
       y2="23.729"
       gradientUnits="userSpaceOnUse"
       id="linearGradient3984"
       gradientTransform="matrix(2.0431892,0,0,2.0431892,-37.811628,-36.271523)">
      <stop
         stop-color="#4d4d4d"
         stop-opacity="1"
         id="stop19" />
      <stop
         stop-color="#1a1a1a"
         stop-opacity="1"
         offset="1"
         id="stop21" />
    </linearGradient>
  </defs>
  <path
     style="fill:url(#linearGradient3984);fill-opacity:1;stroke:none"
     d="m 11.225035,12.765139 0,12.259166 12.259165,0 0,-12.259166 -12.259165,0 z m 3.064791,3.064792 6.129583,0 0,6.129582 -6.129583,0 0,-6.129582 z m 15.323957,0 0,6.129582 55.166245,0 0,-6.129582 -55.166245,0 z m -18.388748,15.323957 0,12.259165 12.259165,0 0,-12.259165 -12.259165,0 z m 3.064791,3.064791 6.129583,0 0,6.129583 -6.129583,0 0,-6.129583 z m 15.323957,0 0,6.129583 55.166245,0 0,-6.129583 -55.166245,0 z m -18.388748,15.323957 0,12.259166 12.259165,0 0,-12.259166 -12.259165,0 z m 3.064791,3.064791 6.129583,0 0,6.129583 -6.129583,0 0,-6.129583 z m 15.323957,0 0,6.129583 55.166245,0 0,-6.129583 -55.166245,0 z m -18.388748,15.323957 0,12.259166 12.259165,0 0,-12.259166 -12.259165,0 z m 3.064791,3.064792 6.129583,0 0,6.129583 -6.129583,0 0,-6.129583 z m 15.323957,0 0,6.129583 55.166245,0 0,-6.129583 -55.166245,0 z"
     inkscape:connector-curvature="0"
     id="path43" />
  <path
     style="opacity:0.75;fill:#ffffff;fill-opacity:1;stroke:none"
     d="m 11.225035,12.765139 0,1.532396 12.259165,0 0,-1.532396 -12.259165,0 z m 18.388748,3.064792 0,1.532395 55.166245,0 0,-1.532395 -55.166245,0 z m -15.323957,6.129582 0,1.532396 6.129583,0 0,-1.532396 -6.129583,0 z m -3.064791,9.194375 0,1.532395 12.259165,0 0,-1.532395 -12.259165,0 z m 18.388748,3.064791 0,1.532396 55.166245,0 0,-1.532396 -55.166245,0 z m -15.323957,6.129583 0,1.532395 6.129583,0 0,-1.532395 -6.129583,0 z m -3.064791,9.194374 0,1.532396 12.259165,0 0,-1.532396 -12.259165,0 z m 18.388748,3.064791 0,1.532396 55.166245,0 0,-1.532396 -55.166245,0 z m -15.323957,6.129583 0,1.532396 6.129583,0 0,-1.532396 -6.129583,0 z m -3.064791,9.194374 0,1.532396 12.259165,0 0,-1.532396 -12.259165,0 z m 18.388748,3.064792 0,1.532395 55.166245,0 0,-1.532395 -55.166245,0 z m -15.323957,6.129583 0,1.532395 6.129583,0 0,-1.532395 -6.129583,0 z"
     inkscape:connector-curvature="0"
     id="path45" />
  <path
     style="opacity:0.15;fill:#000000;fill-opacity:1;stroke:none"
     d="m 14.289826,14.297535 0,1.532396 6.129583,0 0,-1.532396 -6.129583,0 z m 15.323957,6.129583 0,1.532395 55.166245,0 0,-1.532395 -55.166245,0 z m -18.388748,3.064791 0,1.532396 12.259165,0 0,-1.532396 -12.259165,0 z m 3.064791,9.194374 0,1.532396 6.129583,0 0,-1.532396 -6.129583,0 z m 15.323957,6.129583 0,1.532396 55.166245,0 0,-1.532396 -55.166245,0 z m -18.388748,3.064791 0,1.532396 12.259165,0 0,-1.532396 -12.259165,0 z m 3.064791,9.194375 0,1.532395 6.129583,0 0,-1.532395 -6.129583,0 z m 15.323957,6.129582 0,1.532396 55.166245,0 0,-1.532396 -55.166245,0 z m -18.388748,3.064792 0,1.532396 12.259165,0 0,-1.532396 -12.259165,0 z m 3.064791,9.194374 0,1.532396 6.129583,0 0,-1.532396 -6.129583,0 z m 15.323957,6.129583 0,1.532396 55.166245,0 0,-1.532396 -55.166245,0 z m -18.388748,3.064791 0,1.532396 12.259165,0 0,-1.532396 -12.259165,0 z"
     inkscape:connector-curvature="0"
     id="path47" />
</svg>
