<?xml version="1.0" encoding="UTF-8" standalone="no"?>
<svg
   xmlns:dc="http://purl.org/dc/elements/1.1/"
   xmlns:cc="http://creativecommons.org/ns#"
   xmlns:rdf="http://www.w3.org/1999/02/22-rdf-syntax-ns#"
   xmlns:svg="http://www.w3.org/2000/svg"
   xmlns="http://www.w3.org/2000/svg"
   xmlns:xlink="http://www.w3.org/1999/xlink"
   xmlns:sodipodi="http://sodipodi.sourceforge.net/DTD/sodipodi-0.dtd"
   xmlns:inkscape="http://www.inkscape.org/namespaces/inkscape"
   display="inline"
   height="96"
   width="96"
   id="svg2"
   version="1.1"
   inkscape:version="0.91 r13725"
   sodipodi:docname="view-list-icons-symbolic.svg">
  <metadata
     id="metadata51">
    <rdf:RDF>
      <cc:Work
         rdf:about="">
        <dc:format>image/svg+xml</dc:format>
        <dc:type
           rdf:resource="http://purl.org/dc/dcmitype/StillImage" />
      </cc:Work>
    </rdf:RDF>
  </metadata>
  <sodipodi:namedview
     pagecolor="#ffffff"
     bordercolor="#666666"
     borderopacity="1"
     objecttolerance="10"
     gridtolerance="10"
     guidetolerance="10"
     inkscape:pageopacity="0"
     inkscape:pageshadow="2"
     inkscape:window-width="640"
     inkscape:window-height="480"
     id="namedview49"
     showgrid="false"
     inkscape:zoom="2.4583333"
     inkscape:cx="22.98305"
     inkscape:cy="47.999999"
     inkscape:window-x="75"
     inkscape:window-y="99"
     inkscape:window-maximized="0"
     inkscape:current-layer="svg2" />
  <defs
     id="defs4">
    <linearGradient
       x2="0"
       y1="92.54"
       y2="7.02"
       gradientUnits="userSpaceOnUse"
       id="ButtonShadow-0"
       gradientTransform="matrix(1.0059 0 0 0.99417 100 0)">
      <stop
         stop-color="#000000"
         stop-opacity="1"
         id="stop7" />
      <stop
         stop-color="#000000"
         stop-opacity="0.588"
         offset="1"
         id="stop9" />
    </linearGradient>
    <linearGradient
       x2="0"
       xlink:href="#ButtonShadow-0"
       y1="6.132"
       y2="90.24"
       gradientUnits="userSpaceOnUse"
       id="linearGradient3780"
       gradientTransform="matrix(1.02381 0 0 -1.0119 -1.143 98.07)" />
    <linearGradient
       x2="0"
       xlink:href="#ButtonShadow-0"
       y1="6.132"
       y2="90.24"
       gradientUnits="userSpaceOnUse"
       id="linearGradient3721-5"
       gradientTransform="matrix(1 0 0 -1 0 97)" />
    <radialGradient
       cy="90.17"
       r="42"
       gradientUnits="userSpaceOnUse"
       id="radialGradient3619-6"
       cx="48"
       gradientTransform="matrix(1.15731 0 0 0.99591 -7.551 0.197)">
      <stop
         stop-color="#ffffff"
         stop-opacity="1"
         id="stop14" />
      <stop
         stop-color="#ffffff"
         stop-opacity="0"
         offset="1"
         id="stop16" />
    </radialGradient>
    <linearGradient
       x2="0"
       y1="63"
       y2="27"
       gradientUnits="userSpaceOnUse"
       id="linearGradient4122"
       gradientTransform="matrix(1.77778,0,0,1.33333,25.333,-12)">
      <stop
         stop-color="#4d4d4d"
         stop-opacity="1"
         id="stop19" />
      <stop
         stop-color="#1a1a1a"
         stop-opacity="1"
         offset="1"
         id="stop21" />
    </linearGradient>
  </defs>
  <g
     id="g3551"
     transform="matrix(1.5304635,0,0,1.5304635,-25.454652,-26.992711)">
    <path
       id="path37"
       inkscape:connector-curvature="0"
       d="m 23.8125,22.90625 c -1.569067,0.09715 -2.12956,1.788939 -1.90625,3.127011 0.02086,6.456921 -0.04171,12.919771 0.03125,19.372989 0.247494,1.550922 1.943985,1.843372 3.24337,1.6875 6.407717,-0.02086 12.821365,0.04171 19.22538,-0.03125 1.550922,-0.247494 1.843372,-1.943985 1.6875,-3.24337 -0.02086,-6.407717 0.04171,-12.821365 -0.03125,-19.22538 -0.247494,-1.550922 -1.943985,-1.843372 -3.24337,-1.6875 -6.335543,0 -12.671087,0 -19.00663,0 z m 28,0 c -1.569067,0.09715 -2.12956,1.788939 -1.90625,3.127011 0.02086,6.456921 -0.04171,12.919771 0.03125,19.372989 0.247494,1.550922 1.943985,1.843372 3.24337,1.6875 6.407717,-0.02086 12.821365,0.04171 19.22538,-0.03125 1.550922,-0.247494 1.843372,-1.943985 1.6875,-3.24337 -0.02086,-6.407717 0.04171,-12.821365 -0.03125,-19.22538 -0.247494,-1.550922 -1.943985,-1.843372 -3.24337,-1.6875 -6.335543,0 -12.671087,0 -19.00663,0 z m -19.71875,10.1875 c 1.270833,0 2.541667,0 3.8125,0 0,1.270833 0,2.541667 0,3.8125 -1.270833,0 -2.541667,0 -3.8125,0 0,-1.270833 0,-2.541667 0,-3.8125 z m 28,0 c 1.270833,0 2.541667,0 3.8125,0 0,1.270833 0,2.541667 0,3.8125 -1.270833,0 -2.541667,0 -3.8125,0 0,-1.270833 0,-2.541667 0,-3.8125 z M 23.8125,50.90625 c -1.569067,0.09715 -2.12956,1.788939 -1.90625,3.127011 0.02086,6.456921 -0.04171,12.919771 0.03125,19.372989 0.247494,1.550922 1.943985,1.843372 3.24337,1.6875 6.407717,-0.02086 12.821365,0.04171 19.22538,-0.03125 1.550922,-0.247494 1.843372,-1.943985 1.6875,-3.24337 -0.02086,-6.407717 0.04171,-12.821365 -0.03125,-19.22538 -0.247494,-1.550922 -1.943985,-1.843372 -3.24337,-1.6875 -6.335543,0 -12.671087,0 -19.00663,0 z m 28,0 c -1.569067,0.09715 -2.12956,1.788939 -1.90625,3.127011 0.02086,6.456921 -0.04171,12.919771 0.03125,19.372989 0.247494,1.550922 1.943985,1.843372 3.24337,1.6875 6.407717,-0.02086 12.821365,0.04171 19.22538,-0.03125 1.550922,-0.247494 1.843372,-1.943985 1.6875,-3.24337 -0.02086,-6.407717 0.04171,-12.821365 -0.03125,-19.22538 -0.247494,-1.550922 -1.943985,-1.843372 -3.24337,-1.6875 -6.335543,0 -12.671087,0 -19.00663,0 z m -19.71875,10.1875 c 1.270833,0 2.541667,0 3.8125,0 0,1.270833 0,2.541667 0,3.8125 -1.270833,0 -2.541667,0 -3.8125,0 0,-1.270833 0,-2.541667 0,-3.8125 z m 28,0 c 1.270833,0 2.541667,0 3.8125,0 0,1.270833 0,2.541667 0,3.8125 -1.270833,0 -2.541667,0 -3.8125,0 0,-1.270833 0,-2.541667 0,-3.8125 z"
       style="opacity:0.1;fill:black;fill-opacity:1;stroke:none" />
    <path
       id="path39"
       d="M 24,23.96875 A 1.0200967,1.0200967 0 0 0 22.96875,25 l 0,20 A 1.0200967,1.0200967 0 0 0 24,46.03125 l 20,0 A 1.0200967,1.0200967 0 0 0 45.03125,45 l 0,-20 A 1.0200967,1.0200967 0 0 0 44,23.96875 l -20,0 z m 28,0 A 1.0200967,1.0200967 0 0 0 50.96875,25 l 0,20 A 1.0200967,1.0200967 0 0 0 52,46.03125 l 20,0 A 1.0200967,1.0200967 0 0 0 73.03125,45 l 0,-20 A 1.0200967,1.0200967 0 0 0 72,23.96875 l -20,0 z m -20.96875,8.0625 5.9375,0 0,5.9375 -5.9375,0 0,-5.9375 z m 28,0 5.9375,0 0,5.9375 -5.9375,0 0,-5.9375 z M 24,51.96875 A 1.0200967,1.0200967 0 0 0 22.96875,53 l 0,20 A 1.0200967,1.0200967 0 0 0 24,74.03125 l 20,0 A 1.0200967,1.0200967 0 0 0 45.03125,73 l 0,-20 A 1.0200967,1.0200967 0 0 0 44,51.96875 l -20,0 z m 28,0 A 1.0200967,1.0200967 0 0 0 50.96875,53 l 0,20 A 1.0200967,1.0200967 0 0 0 52,74.03125 l 20,0 A 1.0200967,1.0200967 0 0 0 73.03125,73 l 0,-20 A 1.0200967,1.0200967 0 0 0 72,51.96875 l -20,0 z m -20.96875,8.0625 5.9375,0 0,5.9375 -5.9375,0 0,-5.9375 z m 28,0 5.9375,0 0,5.9375 -5.9375,0 0,-5.9375 z"
       inkscape:connector-curvature="0"
       style="opacity:0.15;fill:black;fill-opacity:1;stroke:none" />
    <path
       id="path41"
       inkscape:connector-curvature="0"
       d="m 24,25 0,20 20,0 0,-20 z m 28,0 0,20 20,0 0,-20 z m -22,6 8,0 0,8 -8,0 z m 28,0 8,0 0,8 -8,0 z m -34,22 0,20 20,0 0,-20 z m 28,0 0,20 20,0 0,-20 z m -22,6 8,0 0,8 -8,0 z m 28,0 8,0 0,8 -8,0 z"
       style="opacity:0.3;fill:black;fill-opacity:1;stroke:none" />
    <path
       id="path43"
       inkscape:connector-curvature="0"
       d="m 24,24 0,20 20,0 0,-20 z m 28,0 0,20 20,0 0,-20 z m -22,6 8,0 0,8 -8,0 z m 28,0 8,0 0,8 -8,0 z m -34,22 0,20 20,0 0,-20 z m 28,0 0,20 20,0 0,-20 z m -22,6 8,0 0,8 -8,0 z m 28,0 8,0 0,8 -8,0 z"
       style="fill:url(#linearGradient4122);fill-opacity:1;stroke:none" />
    <path
       id="path45"
       inkscape:connector-curvature="0"
       d="m 24,24 0,1 20,0 0,-1 -20,0 z m 28,0 0,1 20,0 0,-1 -20,0 z m -22,14 0,1 8,0 0,-1 -8,0 z m 28,0 0,1 8,0 0,-1 -8,0 z m -34,14 0,1 20,0 0,-1 -20,0 z m 28,0 0,1 20,0 0,-1 -20,0 z m -22,14 0,1 8,0 0,-1 -8,0 z m 28,0 0,1 8,0 0,-1 -8,0 z"
       style="opacity:0.75;fill:white;fill-opacity:1;stroke:none" />
    <path
       id="path47"
       inkscape:connector-curvature="0"
       d="m 30,29 0,1 8,0 0,-1 -8,0 z m 28,0 0,1 8,0 0,-1 -8,0 z m -34,14 0,1 20,0 0,-1 -20,0 z m 28,0 0,1 20,0 0,-1 -20,0 z m -22,14 0,1 8,0 0,-1 -8,0 z m 28,0 0,1 8,0 0,-1 -8,0 z m -34,14 0,1 20,0 0,-1 -20,0 z m 28,0 0,1 20,0 0,-1 -20,0 z"
       style="opacity:0.15;fill:black;fill-opacity:1;stroke:none" />
  </g>
</svg>
