<svg height="96" width="96" xmlns="http://www.w3.org/2000/svg" xmlns:xlink="http://www.w3.org/1999/xlink" xmlns:sodipodi="http://sodipodi.sourceforge.net/DTD/sodipodi-0.dtd" xmlns:inkscape="http://www.inkscape.org/namespaces/inkscape">
 <defs>
  <linearGradient x2="0" y1="92.54" y2="7.02" gradientUnits="userSpaceOnUse" id="ButtonShadow-0" gradientTransform="matrix(1.0059 0 0 0.99417 100 0)">
   <stop stop-color="#000000" stop-opacity="1"/>
   <stop stop-color="#000000" stop-opacity="0.588" offset="1"/>
  </linearGradient>
  <linearGradient x2="0" xlink:href="#ButtonShadow-0" y1="6.132" y2="90.24" gradientUnits="userSpaceOnUse" id="linearGradient3780" gradientTransform="matrix(1.02381 0 0 -1.0119 -1.143 98.07)"/>
  <linearGradient x2="0" xlink:href="#ButtonShadow-0" y1="6.132" y2="90.24" gradientUnits="userSpaceOnUse" id="linearGradient3721" gradientTransform="matrix(1 0 0 -1 0 97)"/>
  <radialGradient cy="90.17" r="42" gradientUnits="userSpaceOnUse" id="radialGradient3619-3" cx="48" gradientTransform="matrix(1.15731 0 0 0.99591 -7.551 0.197)">
   <stop stop-color="#ffffff" stop-opacity="1"/>
   <stop stop-color="#ffffff" stop-opacity="0" offset="1"/>
  </radialGradient>
  <linearGradient x2="0" y1="4.397" y2="19.29" gradientUnits="userSpaceOnUse" id="linearGradient3015" gradientTransform="matrix(3.49192 0 0 3.0248 10.25 10.608)">
   <stop stop-color="#f0f0f0" stop-opacity="1"/>
   <stop stop-color="#aaaaaa" stop-opacity="1" offset="1"/>
  </linearGradient>
  <rect x="6" rx="6" y="6" fill="#000000" fill-opacity="1" stroke="none" fill-rule="nonzero" height="84" id="SVGCleanerId_0" opacity="0.6" width="84"/>
 </defs>
 <path d="M 12,3.96875 C 6.4889098,3.96875 1.96875,8.4889098 1.96875,14 l 0,71 c 0,5.51109 4.5201597,10.03125 10.03125,10.03125 l 72,0 c 5.51109,0 10.03125,-4.52016 10.03125,-10.03125 l 0,-71 C 94.03125,8.4889097 89.51109,3.96875 84,3.96875 l -72,0 z M 12,6 84,6 c 3.324,0 6,2.676 6,6 l 0,72 c 0,3.324 -2.676,6 -6,6 L 12,90 C 8.676,90 6,87.324 6,84 L 6,12 C 6,8.676 8.676,6 12,6 z" display="inline" fill="url(#linearGradient3780)" fill-opacity="1" fill-rule="nonzero" stroke="none" opacity="0.08" inkscape:connector-curvature="0"/>
 <path d="M 12,4.96875 C 7.0283671,4.96875 2.96875,9.0283671 2.96875,14 l 0,71 c 0,4.971633 4.059617,9.03125 9.03125,9.03125 l 72,0 c 4.971633,0 9.03125,-4.059617 9.03125,-9.03125 l 0,-71 C 93.03125,9.028367 88.971633,4.96875 84,4.96875 l -72,0 z M 12,6 84,6 c 3.324,0 6,2.676 6,6 l 0,72 c 0,3.324 -2.676,6 -6,6 L 12,90 C 8.676,90 6,87.324 6,84 L 6,12 C 6,8.676 8.676,6 12,6 z" display="inline" fill="url(#linearGradient3780)" fill-opacity="1" fill-rule="nonzero" stroke="none" opacity="0.1" inkscape:connector-curvature="0"/>
 <path d="M 11.1875,6.03125 C 7.159982,6.4419011 4,9.8664375 4,14 l 0,71 c 0,4.409133 3.590867,8 8,8 l 72,0 c 4.409133,0 8,-3.590867 8,-8 L 92,14 C 92,9.8029382 88.741028,6.3539584 84.625,6.03125 87.657886,6.337417 90,8.88375 90,12 l 0,72 c 0,3.324 -2.676,6 -6,6 L 12,90 C 8.676,90 6,87.324 6,84 L 6,12 c 0,-3.11625 2.342114,-5.662583 5.375,-5.96875 -0.06227,0.00488 -0.12563,-0.00631 -0.1875,0 z" display="inline" fill="url(#linearGradient3780)" fill-opacity="1" fill-rule="nonzero" stroke="none" opacity="0.2" inkscape:connector-curvature="0"/>
 <path d="M 6.4375,9.75 C 5.5380109,10.927446 5,12.397277 5,14 l 0,71 c 0,3.878 3.122,7 7,7 l 72,0 c 3.878,0 7,-3.122 7,-7 L 91,14 C 91,12.397277 90.461989,10.927446 89.5625,9.75 89.841816,10.444095 90,11.203625 90,12 l 0,72 c 0,3.324 -2.676,6 -6,6 L 12,90 C 8.676,90 6,87.324 6,84 L 6,12 C 6,11.203625 6.1581836,10.444095 6.4375,9.75 z" display="inline" fill="url(#linearGradient3780)" fill-opacity="1" fill-rule="nonzero" stroke="none" opacity="0.3" inkscape:connector-curvature="0"/>
 <path d="m 6,84 0,1 c 0,3.324 2.676,6 6,6 l 72,0 c 3.324,0 6,-2.676 6,-6 l 0,-1 c 0,3.324 -2.676,6 -6,6 L 12,90 C 8.676,90 6,87.324 6,84 z" display="inline" fill="url(#linearGradient3721)" fill-opacity="1" fill-rule="nonzero" stroke="none" opacity="0.45" inkscape:connector-curvature="0"/>
 <g display="inline">
  <use xlink:href="#SVGCleanerId_0"/>
  <path d="M 12,90 C 8.676,90 6,87.324 6,84 L 6,82 6,14 6,12 c 0,-0.334721 0.04135,-0.6507 0.09375,-0.96875 0.0487,-0.295596 0.09704,-0.596915 0.1875,-0.875 C 6.29113,10.12587 6.302142,10.09265 6.3125,10.0625 6.411365,9.774729 6.5473802,9.515048 6.6875,9.25 6.8320918,8.976493 7.0031161,8.714385 7.1875,8.46875 7.3718839,8.223115 7.5612765,7.995278 7.78125,7.78125 8.221197,7.353194 8.72416,6.966724 9.28125,6.6875 9.559795,6.547888 9.8547231,6.440553 10.15625,6.34375 9.9000482,6.443972 9.6695391,6.580022 9.4375,6.71875 c -0.00741,0.0044 -0.023866,-0.0045 -0.03125,0 -0.031933,0.0193 -0.062293,0.04251 -0.09375,0.0625 -0.120395,0.0767 -0.2310226,0.163513 -0.34375,0.25 -0.1061728,0.0808 -0.2132809,0.161112 -0.3125,0.25 C 8.4783201,7.442683 8.3087904,7.626638 8.15625,7.8125 8.0486711,7.942755 7.9378561,8.077785 7.84375,8.21875 7.818661,8.25713 7.805304,8.30462 7.78125,8.34375 7.716487,8.446782 7.6510225,8.548267 7.59375,8.65625 7.4927417,8.850956 7.3880752,9.071951 7.3125,9.28125 7.30454,9.30306 7.288911,9.3218 7.28125,9.34375 7.2494249,9.4357 7.2454455,9.530581 7.21875,9.625 7.1884177,9.731618 7.1483606,9.828031 7.125,9.9375 7.0521214,10.279012 7,10.635705 7,11 l 0,2 0,68 0,2 c 0,2.781848 2.2181517,5 5,5 l 2,0 68,0 2,0 c 2.781848,0 5,-2.218152 5,-5 l 0,-2 0,-68 0,-2 C 89,10.635705 88.94788,10.279012 88.875,9.9375 88.83085,9.730607 88.78662,9.539842 88.71875,9.34375 88.71105,9.3218 88.69545,9.30306 88.6875,9.28125 88.62476,9.107511 88.549117,8.913801 88.46875,8.75 88.42717,8.6672 88.38971,8.580046 88.34375,8.5 88.28915,8.40279 88.216976,8.31165 88.15625,8.21875 88.06214,8.077785 87.951329,7.942755 87.84375,7.8125 87.700576,7.63805 87.540609,7.465502 87.375,7.3125 87.36383,7.3023 87.35502,7.29135 87.34375,7.28125 87.205364,7.155694 87.058659,7.046814 86.90625,6.9375 86.803679,6.86435 86.701932,6.784136 86.59375,6.71875 c -0.0074,-0.0045 -0.02384,0.0044 -0.03125,0 -0.232039,-0.138728 -0.462548,-0.274778 -0.71875,-0.375 0.301527,0.0968 0.596455,0.204138 0.875,0.34375 0.55709,0.279224 1.060053,0.665694 1.5,1.09375 0.219973,0.214028 0.409366,0.441865 0.59375,0.6875 0.184384,0.245635 0.355408,0.507743 0.5,0.78125 0.14012,0.265048 0.276135,0.524729 0.375,0.8125 0.01041,0.03078 0.02133,0.06274 0.03125,0.09375 0.09046,0.278085 0.1388,0.579404 0.1875,0.875 C 89.95865,11.3493 90,11.665279 90,12 l 0,2 0,68 0,2 c 0,3.324 -2.676,6 -6,6 l -72,0 z" fill="url(#radialGradient3619-3)" fill-opacity="1" fill-rule="nonzero" stroke="none" opacity="0.15" inkscape:connector-curvature="0"/>
 </g>
 <g display="inline">
  <path d="m 49.46875,24.03125 c -12.330632,-3e-6 -22.415651,9.228946 -24.03125,21.125 l -5.4375,0 c -1.76e-4,2e-6 -0.124825,-1.4e-5 -0.125,0 -1.75e-4,1.4e-5 -0.124826,0.03122 -0.125,0.03125 -1.74e-4,2.5e-5 -0.124828,-3.7e-5 -0.125,0 -1.72e-4,3.7e-5 -0.124831,0.0312 -0.125,0.03125 -1.69e-4,4.8e-5 -0.124834,0.03119 -0.125,0.03125 -1.66e-4,6e-5 -0.124839,0.06243 -0.125,0.0625 -1.61e-4,7.1e-5 -0.124844,0.06242 -0.125,0.0625 -1.56e-4,8.1e-5 -0.0936,0.06241 -0.09375,0.0625 -1.5e-4,9.1e-5 -0.09361,0.0624 -0.09375,0.0625 -1.44e-4,1.01e-4 -0.124863,0.06239 -0.125,0.0625 -1.37e-4,1.11e-4 -0.09362,0.09363 -0.09375,0.09375 -1.29e-4,1.2e-4 -0.09363,0.09362 -0.09375,0.09375 -1.21e-4,1.28e-4 -0.06239,0.09361 -0.0625,0.09375 -1.12e-4,1.36e-4 -0.09365,0.09361 -0.09375,0.09375 -1.03e-4,1.43e-4 -0.06241,0.0936 -0.0625,0.09375 -9.3e-5,1.49e-4 -0.06242,0.124845 -0.0625,0.125 -8.3e-5,1.55e-4 -0.06243,0.124839 -0.0625,0.125 -7.2e-5,1.61e-4 -0.03119,0.09358 -0.03125,0.09375 -6.1e-5,1.65e-4 -0.06245,0.124831 -0.0625,0.125 -5e-5,1.69e-4 -0.03121,0.124828 -0.03125,0.125 -3.9e-5,1.72e-4 2.7e-5,0.124826 0,0.125 -2.7e-5,1.74e-4 -0.03123,0.124825 -0.03125,0.125 -1.5e-5,1.75e-4 4e-6,0.124824 0,0.125 -4e-6,1.76e-4 -8e-6,0.124824 0,0.125 8e-6,1.76e-4 -2e-5,0.124825 0,0.125 2e-5,1.75e-4 0.03122,0.124827 0.03125,0.125 3.2e-5,1.73e-4 0.03121,0.124829 0.03125,0.125 4.3e-5,1.71e-4 0.0312,0.124833 0.03125,0.125 5.4e-5,1.67e-4 0.03118,0.124837 0.03125,0.125 6.6e-5,1.63e-4 0.06242,0.124841 0.0625,0.125 7.6e-5,1.59e-4 0.06241,0.0936 0.0625,0.09375 8.7e-5,1.53e-4 0.0624,0.124853 0.0625,0.125 l 11.25,16.84375 c 9e-5,1.31e-4 0.0624,0.09362 0.0625,0.09375 9.8e-5,1.26e-4 0.09364,0.09363 0.09375,0.09375 1.05e-4,1.19e-4 0.06239,0.06239 0.0625,0.0625 1.12e-4,1.13e-4 0.09363,0.09364 0.09375,0.09375 1.19e-4,1.06e-4 0.09362,0.0624 0.09375,0.0625 1.25e-4,9.8e-5 0.09362,0.06241 0.09375,0.0625 1.31e-4,9.1e-5 0.09361,0.06242 0.09375,0.0625 1.36e-4,8.3e-5 0.09361,0.06243 0.09375,0.0625 1.41e-4,7.4e-5 0.09361,0.06243 0.09375,0.0625 1.45e-4,6.6e-5 0.124851,0.03119 0.125,0.03125 1.49e-4,5.7e-5 0.0936,0.0312 0.09375,0.03125 1.52e-4,4.7e-5 0.124845,0.03121 0.125,0.03125 1.55e-4,3.8e-5 0.09359,0.03122 0.09375,0.03125 1.57e-4,2.9e-5 0.124842,0.03123 0.125,0.03125 1.58e-4,1.9e-5 0.09359,-1e-5 0.09375,0 1.59e-4,1e-5 0.124841,0 0.125,0 1.59e-4,0 0.124841,1e-5 0.125,0 1.59e-4,-1e-5 0.09359,1.9e-5 0.09375,0 1.58e-4,-1.9e-5 0.124843,-0.03122 0.125,-0.03125 1.57e-4,-2.9e-5 0.0936,-0.03121 0.09375,-0.03125 1.55e-4,-3.8e-5 0.124848,-0.0312 0.125,-0.03125 1.52e-4,-4.7e-5 0.0936,-0.03119 0.09375,-0.03125 1.49e-4,-5.7e-5 0.124855,-0.03118 0.125,-0.03125 1.45e-4,-6.6e-5 0.09361,-0.06243 0.09375,-0.0625 1.41e-4,-7.4e-5 0.09361,-0.06242 0.09375,-0.0625 1.36e-4,-8.3e-5 0.09362,-0.06241 0.09375,-0.0625 1.31e-4,-9.1e-5 0.09363,-0.0624 0.09375,-0.0625 1.25e-4,-9.8e-5 0.09363,-0.06239 0.09375,-0.0625 1.19e-4,-1.06e-4 0.09364,-0.09364 0.09375,-0.09375 1.12e-4,-1.13e-4 0.0624,-0.06238 0.0625,-0.0625 1.05e-4,-1.19e-4 0.09365,-0.09362 0.09375,-0.09375 9.8e-5,-1.26e-4 0.06241,-0.09362 0.0625,-0.09375 L 44.09375,48.09375 c 9.7e-5,-1.47e-4 0.06241,-0.124847 0.0625,-0.125 8.7e-5,-1.53e-4 0.06242,-0.09359 0.0625,-0.09375 7.6e-5,-1.59e-4 0.06243,-0.124837 0.0625,-0.125 6.6e-5,-1.63e-4 0.0312,-0.124833 0.03125,-0.125 5.4e-5,-1.67e-4 0.03121,-0.124829 0.03125,-0.125 4.3e-5,-1.71e-4 0.03122,-0.124827 0.03125,-0.125 3.2e-5,-1.73e-4 0.03123,-0.124825 0.03125,-0.125 2e-5,-1.75e-4 -8e-6,-0.124824 0,-0.125 8e-6,-1.76e-4 4e-6,-0.124824 0,-0.125 -4e-6,-1.76e-4 1.5e-5,-0.124825 0,-0.125 -1.5e-5,-1.75e-4 -0.03122,-0.124826 -0.03125,-0.125 -2.7e-5,-1.74e-4 3.9e-5,-0.124828 0,-0.125 -3.9e-5,-1.72e-4 -0.0312,-0.124831 -0.03125,-0.125 -5e-5,-1.69e-4 -0.06244,-0.124835 -0.0625,-0.125 -6.1e-5,-1.65e-4 -0.03118,-0.09359 -0.03125,-0.09375 -7.2e-5,-1.61e-4 -0.06242,-0.124845 -0.0625,-0.125 -8.3e-5,-1.55e-4 -0.06241,-0.124851 -0.0625,-0.125 -9.3e-5,-1.49e-4 -0.0624,-0.09361 -0.0625,-0.09375 -1.03e-4,-1.43e-4 -0.09364,-0.09361 -0.09375,-0.09375 -1.12e-4,-1.36e-4 -0.06238,-0.09362 -0.0625,-0.09375 -1.21e-4,-1.28e-4 -0.09362,-0.09363 -0.09375,-0.09375 -1.29e-4,-1.2e-4 -0.09361,-0.09364 -0.09375,-0.09375 -1.37e-4,-1.11e-4 -0.124856,-0.0624 -0.125,-0.0625 -1.44e-4,-1.01e-4 -0.0936,-0.06241 -0.09375,-0.0625 -1.5e-4,-9.1e-5 -0.09359,-0.06242 -0.09375,-0.0625 -1.56e-4,-8.1e-5 -0.124839,-0.06243 -0.125,-0.0625 -1.61e-4,-7.1e-5 -0.124834,-0.06244 -0.125,-0.0625 -1.66e-4,-6e-5 -0.124831,-0.0312 -0.125,-0.03125 -1.69e-4,-4.8e-5 -0.124828,-0.03121 -0.125,-0.03125 -1.72e-4,-3.7e-5 -0.124826,2.5e-5 -0.125,0 -1.74e-4,-2.5e-5 -0.124825,-0.03124 -0.125,-0.03125 -1.75e-4,-1.4e-5 -0.124824,2e-6 -0.125,0 l -5.53125,0 c 1.4579,-5.636526 6.349725,-9.84375 12.46875,-9.84375 7.270318,3e-6 13.125,5.85468 13.125,13.125 0,7.270505 -5.849631,13.09375 -13.125,13.09375 -2.55e-4,3e-6 -0.187247,-2.7e-5 -0.1875,0 -2.53e-4,2.7e-5 -0.187251,0.0312 -0.1875,0.03125 -2.49e-4,5.2e-5 -0.187257,0.06242 -0.1875,0.0625 -2.43e-4,7.6e-5 -0.156015,0.0624 -0.15625,0.0625 -2.35e-4,9.9e-5 -0.156026,0.06238 -0.15625,0.0625 -2.24e-4,1.21e-4 -0.156039,0.09361 -0.15625,0.09375 -2.11e-4,1.42e-4 -0.156053,0.124838 -0.15625,0.125 -1.97e-4,1.62e-4 -0.12482,0.12482 -0.125,0.125 -1.8e-4,1.8e-4 -0.124838,0.124803 -0.125,0.125 -1.62e-4,1.97e-4 -0.124858,0.156039 -0.125,0.15625 -1.42e-4,2.11e-4 -0.09363,0.156026 -0.09375,0.15625 -1.21e-4,2.24e-4 -0.0624,0.156015 -0.0625,0.15625 -9.9e-5,2.35e-4 -0.06242,0.156007 -0.0625,0.15625 -7.6e-5,2.43e-4 -0.06245,0.187251 -0.0625,0.1875 -5.2e-5,2.49e-4 -0.03122,0.187247 -0.03125,0.1875 -2.7e-5,2.53e-4 3e-6,0.187245 0,0.1875 l 0,7.53125 c 3e-6,2.55e-4 -2.7e-5,0.187247 0,0.1875 2.7e-5,2.53e-4 0.0312,0.187251 0.03125,0.1875 5.2e-5,2.49e-4 0.06242,0.187257 0.0625,0.1875 7.6e-5,2.43e-4 0.0624,0.156015 0.0625,0.15625 9.9e-5,2.35e-4 0.06238,0.156026 0.0625,0.15625 1.21e-4,2.24e-4 0.09361,0.156039 0.09375,0.15625 1.42e-4,2.11e-4 0.124838,0.156053 0.125,0.15625 1.62e-4,1.97e-4 0.12482,0.12482 0.125,0.125 1.8e-4,1.8e-4 0.124803,0.124838 0.125,0.125 1.97e-4,1.62e-4 0.156039,0.124858 0.15625,0.125 2.11e-4,1.42e-4 0.156026,0.09363 0.15625,0.09375 2.24e-4,1.21e-4 0.156015,0.0624 0.15625,0.0625 2.35e-4,9.9e-5 0.156007,0.06242 0.15625,0.0625 2.43e-4,7.6e-5 0.187251,0.06245 0.1875,0.0625 2.49e-4,5.2e-5 0.187247,0.03122 0.1875,0.03125 2.53e-4,2.7e-5 0.187245,-3e-6 0.1875,0 13.451631,0 24.40625,-10.920258 24.40625,-24.375 3e-6,-13.454669 -10.951582,-24.40625 -24.40625,-24.40625 z" fill="#000000" fill-opacity="1" stroke="none" opacity="0.1" transform="matrix(1 0 0 1 0 -1)"/>
  <path d="m 49.46875,24.96875 c -12.149482,-3e-6 -22.067021,9.281678 -23.25,21.125 l -6.21875,0 a 0.94758431,0.94758431 0 0 0 -0.78125,1.46875 l 11.25,16.84375 a 0.94758431,0.94758431 0 0 0 1.5625,0 L 43.3125,47.5625 a 0.94758431,0.94758431 0 0 0 -0.78125,-1.46875 l -6.84375,0 C 36.791939,39.438943 42.484755,34.375 49.46875,34.375 c 7.776684,3e-6 14.0625,6.285814 14.0625,14.0625 0,7.77668 -6.283436,14.03125 -14.0625,14.03125 a 0.94758431,0.94758431 0 0 0 -0.9375,0.9375 l 0,7.53125 a 0.94758431,0.94758431 0 0 0 0.9375,0.9375 c 12.943826,0 23.46875,-10.49209 23.46875,-23.4375 3e-6,-12.945414 -10.523337,-23.46875 -23.46875,-23.46875 z" fill="#000000" fill-opacity="1" stroke="none" opacity="0.15" transform="matrix(1 0 0 1 0 -1)"/>
  <path d="m 20,46.022044 11.261147,16.867847 11.261146,-16.867847 -7.949044,0 c 0.69246,-7.641628 7.07989,-13.579621 14.904459,-13.579621 8.288202,3e-6 14.987261,6.699059 14.987261,14.987264 0,8.288199 -6.699059,14.987261 -14.987261,14.987261 l 0,7.535031 C 61.910015,69.951979 72,59.861991 72,47.429687 72.000003,34.99738 61.910015,24.907392 49.477708,24.907392 c -11.960155,-3e-6 -21.71296,9.336398 -22.439491,21.114652 l -7.038217,0 z" fill="#000000" fill-opacity="1" stroke="none" opacity="0.3" inkscape:connector-curvature="0"/>
  <text x="104" font-size="4" font-stretch="normal" font-style="normal" letter-spacing="0" font-variant="normal" y="48" font-weight="normal" text-anchor="start" line-height="125%" fill="#000000" fill-opacity="1" stroke="none" word-spacing="0" writing-mode="lr-tb" font-family="Liberation Sans"><tspan x="104" y="48">Shadow opacity : 30, 15, 10, (8)</tspan>
  </text>
  <text x="124" font-size="4" font-stretch="normal" font-style="normal" letter-spacing="0" font-variant="normal" y="32" font-weight="normal" text-anchor="start" line-height="125%" fill="#000000" fill-opacity="1" stroke="none" word-spacing="0" writing-mode="lr-tb" font-family="Liberation Sans"><tspan x="124" y="32">Bevel opacity : 30 / 10</tspan>
  </text>
  <text x="124" font-size="4" font-stretch="normal" font-style="normal" letter-spacing="0" font-variant="normal" y="8" font-weight="normal" text-anchor="start" line-height="125%" fill="#000000" fill-opacity="1" stroke="none" word-spacing="0" writing-mode="lr-tb" font-family="Liberation Sans"><tspan x="124" y="8">Bevel opacity : 75 / 15</tspan>
  </text>
  <path d="m 20,45.022044 11.261147,16.867847 11.261146,-16.867847 -7.949044,0 c 0.69246,-7.641628 7.07989,-13.579621 14.904459,-13.579621 8.288202,3e-6 14.987261,6.699059 14.987261,14.987264 0,8.288199 -6.699059,14.987261 -14.987261,14.987261 l 0,7.535031 C 61.910015,68.951979 72,58.861991 72,46.429687 72.000003,33.99738 61.910015,23.907392 49.477708,23.907392 c -11.960155,-3e-6 -21.71296,9.336398 -22.439491,21.114652 l -7.038217,0 z" fill="url(#linearGradient3015)" fill-opacity="1" stroke="none" inkscape:connector-curvature="0"/>
  <path d="m 49.46875,23.90625 c -11.960155,-3e-6 -21.710969,9.346746 -22.4375,21.125 l -7.03125,0 0.65625,1 6.375,0 c 0.726531,-11.778254 10.477345,-21.125003 22.4375,-21.125 12.264425,0 22.263823,9.830624 22.53125,22.03125 0.0037,-0.167008 0,-0.332119 0,-0.5 3e-6,-12.432307 -10.098943,-22.53125 -22.53125,-22.53125 z m -14.75,21.125 c -0.05291,0.33256 -0.125471,0.660336 -0.15625,1 l 7.3125,0 0.65625,-1 -7.8125,0 z M 64.4375,46.9375 c -0.265786,8.05341 -6.849708,14.46875 -14.96875,14.46875 l 0,1 c 8.288202,0 15,-6.680551 15,-14.96875 0,-0.16916 -0.02571,-0.332207 -0.03125,-0.5 z" fill="#ffffff" fill-opacity="1" stroke="none" opacity="0.75" inkscape:connector-curvature="0"/>
  <path d="m 49.46875,30.4375 c -7.824569,0 -14.21379,5.952122 -14.90625,13.59375 l 0.15625,0 c 1.137412,-7.149252 7.273226,-12.59375 14.75,-12.59375 8.119042,3e-6 14.702964,6.446585 14.96875,14.5 0.0055,-0.167793 0.03125,-0.33084 0.03125,-0.5 0,-8.288205 -6.711798,-14.999997 -15,-15 z M 20,45.03125 31.25,61.875 42.53125,45.03125 l -0.65625,0 L 31.25,60.875 20.65625,45.03125 20,45.03125 z m 52,0.90625 c -0.26743,12.200623 -10.266825,22 -22.53125,22 l 0,1 C 61.901057,68.9375 72,58.869804 72,46.4375 c 0,-0.167882 0.0037,-0.332992 0,-0.5 z" fill="#000000" fill-opacity="1" stroke="none" opacity="0.15" inkscape:connector-curvature="0"/>
 </g>
</svg>
