<?xml version="1.0" encoding="UTF-8" standalone="no"?>
<svg
   xmlns:dc="http://purl.org/dc/elements/1.1/"
   xmlns:cc="http://creativecommons.org/ns#"
   xmlns:rdf="http://www.w3.org/1999/02/22-rdf-syntax-ns#"
   xmlns:svg="http://www.w3.org/2000/svg"
   xmlns="http://www.w3.org/2000/svg"
   xmlns:xlink="http://www.w3.org/1999/xlink"
   xmlns:sodipodi="http://sodipodi.sourceforge.net/DTD/sodipodi-0.dtd"
   xmlns:inkscape="http://www.inkscape.org/namespaces/inkscape"
   height="96"
   width="96"
   id="svg2"
   version="1.1"
   inkscape:version="0.91 r13725"
   sodipodi:docname="view-restore.svg">
  <metadata
     id="metadata60">
    <rdf:RDF>
      <cc:Work
         rdf:about="">
        <dc:format>image/svg+xml</dc:format>
        <dc:type
           rdf:resource="http://purl.org/dc/dcmitype/StillImage" />
      </cc:Work>
    </rdf:RDF>
  </metadata>
  <sodipodi:namedview
     pagecolor="#ffffff"
     bordercolor="#666666"
     borderopacity="1"
     objecttolerance="10"
     gridtolerance="10"
     guidetolerance="10"
     inkscape:pageopacity="0"
     inkscape:pageshadow="2"
     inkscape:window-width="1366"
     inkscape:window-height="708"
     id="namedview58"
     showgrid="false"
     inkscape:zoom="6.9532167"
     inkscape:cx="37.315771"
     inkscape:cy="23.821285"
     inkscape:window-x="0"
     inkscape:window-y="24"
     inkscape:window-maximized="1"
     inkscape:current-layer="svg2" />
  <defs
     id="defs4">
    <linearGradient
       x2="0"
       y1="92.54"
       y2="7.02"
       gradientUnits="userSpaceOnUse"
       id="ButtonShadow-0"
       gradientTransform="matrix(1.0059 0 0 0.99417 100 0)">
      <stop
         stop-color="#000000"
         stop-opacity="1"
         id="stop7" />
      <stop
         stop-color="#000000"
         stop-opacity="0.588"
         offset="1"
         id="stop9" />
    </linearGradient>
    <linearGradient
       x2="0"
       xlink:href="#ButtonShadow-0"
       y1="6.132"
       y2="90.24"
       gradientUnits="userSpaceOnUse"
       id="linearGradient3780"
       gradientTransform="matrix(1.02381 0 0 -1.0119 -1.143 98.07)" />
    <linearGradient
       x2="0"
       xlink:href="#ButtonShadow-0"
       y1="6.132"
       y2="90.24"
       gradientUnits="userSpaceOnUse"
       id="linearGradient3721"
       gradientTransform="matrix(1 0 0 -1 0 97)" />
    <radialGradient
       cy="90.17"
       r="42"
       gradientUnits="userSpaceOnUse"
       id="radialGradient3619-1"
       cx="48"
       gradientTransform="matrix(1.15731 0 0 0.99591 -7.551 0.197)">
      <stop
         stop-color="#ffffff"
         stop-opacity="1"
         id="stop14" />
      <stop
         stop-color="#ffffff"
         stop-opacity="0"
         offset="1"
         id="stop16" />
    </radialGradient>
    <linearGradient
       x2="0"
       y1="-26"
       y2="30"
       gradientUnits="userSpaceOnUse"
       id="linearGradient3201"
       gradientTransform="matrix(1.3327566,0,0,-1.3327566,-15.973872,49.332757)">
      <stop
         stop-color="#4d4d4d"
         stop-opacity="1"
         id="stop19" />
      <stop
         stop-color="#1a1a1a"
         stop-opacity="1"
         offset="1"
         id="stop21" />
    </linearGradient>
    <rect
       x="6"
       rx="6"
       y="6"
       fill="#000000"
       fill-opacity="1"
       stroke="none"
       fill-rule="nonzero"
       height="84"
       id="SVGCleanerId_0"
       opacity="0.6"
       width="84" />
  </defs>
  <path
     style="fill:url(#linearGradient3201);fill-opacity:1;stroke:none"
     id="path50"
     inkscape:connector-curvature="0"
     d="m 36.003635,9.350059 11.99481,15.993079 11.994809,-15.993079 -23.989619,0 z m -0.791324,21.324106 c -1.772036,2e-6 -3.206945,1.434912 -3.206945,3.206945 l 0,28.779213 31.986158,0 0,-28.779213 c 0,-1.772033 -1.434912,-3.206945 -3.206946,-3.206945 l -25.572267,0 z m 14.11889,2.665513 c 0.738348,0 1.332757,0.594409 1.332757,1.332756 0,0.738348 -0.594409,1.332757 -1.332757,1.332757 -0.738347,0 -1.332756,-0.594409 -1.332756,-1.332757 0,-0.738347 0.594409,-1.332756 1.332756,-1.332756 z m 5.331027,0 c 0.738347,0 1.332756,0.594409 1.332756,1.332756 0,0.738348 -0.594409,1.332757 -1.332756,1.332757 -0.738347,0 -1.332757,-0.594409 -1.332757,-1.332757 0,-0.738347 0.59441,-1.332756 1.332757,-1.332756 z m 5.331026,0 c 0.738347,0 1.332757,0.594409 1.332757,1.332756 0,0.738348 -0.59441,1.332757 -1.332757,1.332757 -0.738347,0 -1.332756,-0.594409 -1.332756,-1.332757 0,-0.738347 0.594409,-1.332756 1.332756,-1.332756 z m -49.311994,1.332756 0,23.989619 L 26.674339,46.667244 10.68126,34.672434 Z m 74.63437,0 -15.99308,11.99481 15.99308,11.994809 0,-23.989619 z m -47.854292,3.99827 21.19916,0 0,18.616944 -21.19916,0 0,-18.616944 z m 10.537107,29.320645 -11.99481,15.99308 23.989619,0 -11.994809,-15.99308 z" />
  <path
     style="opacity:0.75;fill:#ffffff;fill-opacity:1;stroke:none"
     id="path54"
     inkscape:connector-curvature="0"
     d="m 36.003635,9.350059 0.999568,1.332757 21.990484,0 0.999567,-1.332757 -23.989619,0 z m -0.791324,21.324106 c -1.772036,2e-6 -3.206945,1.434912 -3.206945,3.206945 l 0,1.332757 c 0,-1.772033 1.434909,-3.206943 3.206945,-3.206946 l 25.572267,0 c 1.772034,0 3.206946,1.434913 3.206946,3.206946 l 0,-1.332757 c 0,-1.772033 -1.434912,-3.206945 -3.206946,-3.206945 l -25.572267,0 z m -24.531051,3.998269 0,1.332757 15.118458,11.328431 0.874621,-0.666378 -15.993079,-11.99481 z m 74.63437,0 -15.99308,11.99481 0.874622,0.666378 15.118458,-11.328431 0,-1.332757 z m -37.108942,0.666379 c -0.119183,0.199733 -0.208243,0.415952 -0.208243,0.666378 0,0.738347 0.594409,1.332757 1.332756,1.332757 0.738348,0 1.332757,-0.59441 1.332757,-1.332757 0,-0.250426 -0.08906,-0.466645 -0.208243,-0.666378 -0.23221,0.389153 -0.636593,0.666378 -1.124514,0.666378 -0.48792,0 -0.892303,-0.277225 -1.124513,-0.666378 z m 5.331026,0 c -0.119183,0.199733 -0.208243,0.415952 -0.208243,0.666378 0,0.738347 0.59441,1.332757 1.332757,1.332757 0.738347,0 1.332756,-0.59441 1.332756,-1.332757 0,-0.250426 -0.08905,-0.466645 -0.208243,-0.666378 -0.23221,0.389153 -0.636592,0.666378 -1.124513,0.666378 -0.487921,0 -0.892303,-0.277225 -1.124514,-0.666378 z m 5.331027,0 c -0.119183,0.199733 -0.208243,0.415952 -0.208243,0.666378 0,0.738347 0.594409,1.332757 1.332756,1.332757 0.738347,0 1.332757,-0.59441 1.332757,-1.332757 0,-0.250426 -0.08906,-0.466645 -0.208243,-0.666378 -0.232211,0.389153 -0.636593,0.666378 -1.124514,0.666378 -0.487921,0 -0.892303,-0.277225 -1.124513,-0.666378 z m -21.407403,21.948835 0,1.332757 21.19916,0 0,-1.332757 -21.19916,0 z m 10.537107,10.703701 -11.99481,15.99308 0.999568,0 10.995242,-14.660323 10.995242,14.660323 0.999567,0 -11.994809,-15.99308 z" />
  <path
     style="opacity:0.15;fill:#000000;fill-opacity:1;stroke:none"
     id="path56"
     inkscape:connector-curvature="0"
     d="m 36.003635,9.350059 11.99481,15.993079 11.994809,-15.993079 -0.999567,0 -10.995242,14.660323 -10.995242,-14.660323 -0.999568,0 z m 13.327566,22.656862 c -0.738347,0 -1.332756,0.59441 -1.332756,1.332757 0,0.250426 0.08906,0.466645 0.208243,0.666378 0.23221,-0.389153 0.636593,-0.666378 1.124513,-0.666378 0.487921,0 0.892304,0.277225 1.124514,0.666378 0.119183,-0.199733 0.208243,-0.415952 0.208243,-0.666378 0,-0.738347 -0.594409,-1.332757 -1.332757,-1.332757 z m 5.331027,0 c -0.738347,0 -1.332757,0.59441 -1.332757,1.332757 0,0.250426 0.08906,0.466645 0.208243,0.666378 0.232211,-0.389153 0.636593,-0.666378 1.124514,-0.666378 0.487921,0 0.892303,0.277225 1.124513,0.666378 0.119183,-0.199733 0.208243,-0.415952 0.208243,-0.666378 0,-0.738347 -0.594409,-1.332757 -1.332756,-1.332757 z m 5.331026,0 c -0.738347,0 -1.332756,0.59441 -1.332756,1.332757 0,0.250426 0.08905,0.466645 0.208243,0.666378 0.23221,-0.389153 0.636592,-0.666378 1.124513,-0.666378 0.487921,0 0.892303,0.277225 1.124514,0.666378 0.119183,-0.199733 0.208243,-0.415952 0.208243,-0.666378 0,-0.738347 -0.59441,-1.332757 -1.332757,-1.332757 z m -22.531916,5.331027 0,1.332756 21.19916,0 0,-1.332756 -21.19916,0 z m -11.66162,8.662917 -15.118458,11.328432 0,1.332756 15.993079,-11.994809 -0.874621,-0.666379 z m 44.397454,0 -0.874622,0.666379 15.99308,11.994809 0,-1.332756 -15.118458,-11.328432 z m -38.191806,15.326701 0,1.332757 31.986158,0 0,-1.332757 -31.986158,0 z m 4.997837,21.324106 -0.999568,1.332757 23.989619,0 -0.999567,-1.332757 -21.990484,0 z" />
</svg>
