<svg height="16" width="16" xmlns="http://www.w3.org/2000/svg" xmlns:sodipodi="http://sodipodi.sourceforge.net/DTD/sodipodi-0.dtd" xmlns:inkscape="http://www.inkscape.org/namespaces/inkscape">
 <path d="M 5 0 L 8 3 L 11 0 L 5 0 z M 4.5 4 C 4.223 4 4 4.223 4 4.5 L 4 11.5 C 4 11.777 4.223 12 4.5 12 L 11.5 12 C 11.777 12 12 11.777 12 11.5 L 12 4.5 C 12 4.223 11.777 4 11.5 4 L 4.5 4 z M 0 5 L 0 11 L 3 8 L 0 5 z M 6 5 L 7 5 L 7 6 L 6 6 L 6 5 z M 8 5 L 9 5 L 9 6 L 8 6 L 8 5 z M 10 5 L 11 5 L 11 6 L 10 6 L 10 5 z M 16 5 L 13 8 L 16 11 L 16 5 z M 6 7 L 10 7 L 10 10 L 6 10 L 6 7 z M 8 13 L 5 16 L 11 16 L 8 13 z " display="inline" fill="#bebebe" fill-opacity="1" stroke="none" inkscape:label="Cross" inkscape:groupmode="layer" transform="matrix(1 0 0 1 0 0)"/>
</svg>
