<?xml version="1.0" encoding="UTF-8" standalone="no"?>
<svg
   xmlns:dc="http://purl.org/dc/elements/1.1/"
   xmlns:cc="http://creativecommons.org/ns#"
   xmlns:rdf="http://www.w3.org/1999/02/22-rdf-syntax-ns#"
   xmlns:svg="http://www.w3.org/2000/svg"
   xmlns="http://www.w3.org/2000/svg"
   xmlns:xlink="http://www.w3.org/1999/xlink"
   xmlns:sodipodi="http://sodipodi.sourceforge.net/DTD/sodipodi-0.dtd"
   xmlns:inkscape="http://www.inkscape.org/namespaces/inkscape"
   height="96"
   width="96"
   id="svg2"
   version="1.1"
   inkscape:version="0.91 r13725"
   sodipodi:docname="view-fullscreen.svg">
  <metadata
     id="metadata60">
    <rdf:RDF>
      <cc:Work
         rdf:about="">
        <dc:format>image/svg+xml</dc:format>
        <dc:type
           rdf:resource="http://purl.org/dc/dcmitype/StillImage" />
      </cc:Work>
    </rdf:RDF>
  </metadata>
  <sodipodi:namedview
     pagecolor="#ffffff"
     bordercolor="#666666"
     borderopacity="1"
     objecttolerance="10"
     gridtolerance="10"
     guidetolerance="10"
     inkscape:pageopacity="0"
     inkscape:pageshadow="2"
     inkscape:window-width="640"
     inkscape:window-height="480"
     id="namedview58"
     showgrid="false"
     inkscape:zoom="4.9166667"
     inkscape:cx="26.908694"
     inkscape:cy="7.9700042"
     inkscape:window-x="158"
     inkscape:window-y="184"
     inkscape:window-maximized="0"
     inkscape:current-layer="svg2" />
  <defs
     id="defs4">
    <linearGradient
       x2="0"
       y1="92.54"
       y2="7.02"
       gradientUnits="userSpaceOnUse"
       id="ButtonShadow-0"
       gradientTransform="matrix(1.0059 0 0 0.99417 100 0)">
      <stop
         stop-color="#000000"
         stop-opacity="1"
         id="stop7" />
      <stop
         stop-color="#000000"
         stop-opacity="0.588"
         offset="1"
         id="stop9" />
    </linearGradient>
    <linearGradient
       x2="0"
       xlink:href="#ButtonShadow-0"
       y1="6.132"
       y2="90.24"
       gradientUnits="userSpaceOnUse"
       id="linearGradient3780"
       gradientTransform="matrix(1.02381 0 0 -1.0119 -1.143 98.07)" />
    <linearGradient
       x2="0"
       xlink:href="#ButtonShadow-0"
       y1="6.132"
       y2="90.24"
       gradientUnits="userSpaceOnUse"
       id="linearGradient3721"
       gradientTransform="matrix(1 0 0 -1 0 97)" />
    <radialGradient
       cy="90.17"
       r="42"
       gradientUnits="userSpaceOnUse"
       id="radialGradient3619-1"
       cx="48"
       gradientTransform="matrix(1.15731 0 0 0.99591 -7.551 0.197)">
      <stop
         stop-color="#ffffff"
         stop-opacity="1"
         id="stop14" />
      <stop
         stop-color="#ffffff"
         stop-opacity="0"
         offset="1"
         id="stop16" />
    </radialGradient>
    <linearGradient
       x2="0"
       y1="78"
       y2="18.19"
       gradientUnits="userSpaceOnUse"
       id="linearGradient3198"
       gradientTransform="matrix(1.2499107,0,0,1.2499107,-11.995714,-13.240838)">
      <stop
         stop-color="#4d4d4d"
         stop-opacity="1"
         id="stop19" />
      <stop
         stop-color="#1a1a1a"
         stop-opacity="1"
         offset="1"
         id="stop21" />
    </linearGradient>
    <rect
       x="6"
       rx="6"
       y="6"
       fill="#000000"
       fill-opacity="1"
       stroke="none"
       fill-rule="nonzero"
       height="84"
       id="SVGCleanerId_0"
       opacity="0.6"
       width="84" />
  </defs>
  <path
     style="fill:url(#linearGradient3198);fill-opacity:1;stroke:none"
     id="path50"
     inkscape:connector-curvature="0"
     d="m 48,9.2575546 -11.249197,14.9989284 22.498393,0 L 48,9.2575546 Z M 36.008669,31.755947 c -1.661884,3e-6 -3.007598,1.345717 -3.007598,3.007598 l 0,26.990259 29.997857,0 0,-26.990259 c 0,-1.661881 -1.345716,-3.007598 -3.007598,-3.007598 l -23.982661,0 z m 13.241241,2.499822 c 0.692451,0 1.249911,0.55746 1.249911,1.24991 0,0.692451 -0.55746,1.249911 -1.249911,1.249911 C 48.55746,36.75559 48,36.19813 48,35.505679 c 0,-0.69245 0.55746,-1.24991 1.24991,-1.24991 z m 4.999643,0 c 0.692451,0 1.249911,0.55746 1.249911,1.24991 0,0.692451 -0.55746,1.249911 -1.249911,1.249911 -0.69245,0 -1.249911,-0.55746 -1.249911,-1.249911 0,-0.69245 0.557461,-1.24991 1.249911,-1.24991 z m 4.999643,0 c 0.69245,0 1.249911,0.55746 1.249911,1.24991 0,0.692451 -0.557461,1.249911 -1.249911,1.249911 -0.692451,0 -1.249911,-0.55746 -1.249911,-1.249911 0,-0.69245 0.55746,-1.24991 1.249911,-1.24991 z m -33.747589,1.24991 -14.998928,11.249197 14.998928,11.249196 0,-22.498393 z m 44.996785,0 0,22.498393 L 85.497321,46.754876 70.498392,35.505679 Z m -32.380499,3.749732 19.881392,0 0,17.45969 -19.881392,0 0,-17.45969 z M 36.750803,69.253268 48,84.252197 59.249196,69.253268 l -22.498393,0 z" />
  <path
     style="opacity:0.75;fill:#ffffff;fill-opacity:1;stroke:none"
     id="path54"
     inkscape:connector-curvature="0"
     d="m 48,9.2575546 -11.249197,14.9989284 0.937433,0 L 48,10.507465 l 10.311763,13.749018 0.937433,0 L 48,9.2575546 Z M 36.008669,31.755947 c -1.661884,3e-6 -3.007598,1.345717 -3.007598,3.007598 l 0,1.249911 c 0,-1.661882 1.345714,-3.007596 3.007598,-3.007598 l 23.982661,0 c 1.661882,0 3.007598,1.345716 3.007598,3.007598 l 0,-1.249911 c 0,-1.661881 -1.345716,-3.007598 -3.007598,-3.007598 l -23.982661,0 z m -10.507062,3.749732 -14.998928,11.249197 0.820253,0.624955 14.178675,-10.624241 0,-1.249911 z m 44.996785,0 0,1.249911 14.178675,10.624241 0.820254,-0.624955 L 70.498392,35.505679 Z M 48.195298,36.130635 C 48.083524,36.317953 48,36.520731 48,36.75559 c 0,0.692451 0.55746,1.249911 1.24991,1.249911 0.692451,0 1.249911,-0.55746 1.249911,-1.249911 0,-0.234859 -0.08352,-0.437637 -0.195299,-0.624955 -0.217775,0.364962 -0.597021,0.624955 -1.054612,0.624955 -0.457591,0 -0.836836,-0.259993 -1.054612,-0.624955 z m 4.999643,0 c -0.111775,0.187318 -0.195299,0.390096 -0.195299,0.624955 0,0.692451 0.557461,1.249911 1.249911,1.249911 0.692451,0 1.249911,-0.55746 1.249911,-1.249911 0,-0.234859 -0.08352,-0.437637 -0.195299,-0.624955 -0.217775,0.364962 -0.597021,0.624955 -1.054612,0.624955 -0.457591,0 -0.836836,-0.259993 -1.054612,-0.624955 z m 4.999643,0 c -0.111775,0.187318 -0.195299,0.390096 -0.195299,0.624955 0,0.692451 0.55746,1.249911 1.249911,1.249911 0.69245,0 1.249911,-0.55746 1.249911,-1.249911 0,-0.234859 -0.08352,-0.437637 -0.195299,-0.624955 -0.217776,0.364962 -0.597021,0.624955 -1.054612,0.624955 -0.457591,0 -0.836837,-0.259993 -1.054612,-0.624955 z m -20.076691,20.584466 0,1.249911 19.881392,0 0,-1.249911 -19.881392,0 z m -1.36709,12.538167 0.937433,1.249911 20.623527,0 0.937433,-1.249911 -22.498393,0 z" />
  <path
     style="opacity:0.15;fill:#000000;fill-opacity:1;stroke:none"
     id="path56"
     inkscape:connector-curvature="0"
     d="m 37.688236,23.006572 -0.937433,1.249911 22.498393,0 -0.937433,-1.249911 -20.623527,0 z m 11.561674,9.999286 c -0.69245,0 -1.24991,0.55746 -1.24991,1.249911 0,0.234859 0.08352,0.437637 0.195298,0.624955 0.217776,-0.364963 0.597021,-0.624955 1.054612,-0.624955 0.457591,0 0.836837,0.259992 1.054612,0.624955 0.111775,-0.187318 0.195299,-0.390096 0.195299,-0.624955 0,-0.692451 -0.55746,-1.249911 -1.249911,-1.249911 z m 4.999643,0 c -0.69245,0 -1.249911,0.55746 -1.249911,1.249911 0,0.234859 0.08352,0.437637 0.195299,0.624955 0.217776,-0.364963 0.597021,-0.624955 1.054612,-0.624955 0.457591,0 0.836837,0.259992 1.054612,0.624955 0.111775,-0.187318 0.195299,-0.390096 0.195299,-0.624955 0,-0.692451 -0.55746,-1.249911 -1.249911,-1.249911 z m 4.999643,0 c -0.692451,0 -1.249911,0.55746 -1.249911,1.249911 0,0.234859 0.08352,0.437637 0.195299,0.624955 0.217775,-0.364963 0.597021,-0.624955 1.054612,-0.624955 0.457591,0 0.836836,0.259992 1.054612,0.624955 0.111775,-0.187318 0.195299,-0.390096 0.195299,-0.624955 0,-0.692451 -0.557461,-1.249911 -1.249911,-1.249911 z m -21.131303,4.999643 0,1.24991 19.881392,0 0,-1.24991 -19.881392,0 z m -26.794961,8.124419 -0.820253,0.624956 14.998928,11.249196 0,-1.249911 L 11.322932,46.12992 Z m 73.354135,0 -14.178675,10.624241 0,1.249911 14.998929,-11.249196 -0.820254,-0.624956 z m -51.675996,14.373973 0,1.249911 29.997857,0 0,-1.249911 -29.997857,0 z M 36.750803,69.253268 48,84.252197 59.249196,69.253268 l -0.937433,0 L 48,83.002286 37.688236,69.253268 l -0.937433,0 z" />
</svg>
