<?xml version="1.0" encoding="UTF-8" standalone="no"?>
<svg
   xmlns:dc="http://purl.org/dc/elements/1.1/"
   xmlns:cc="http://creativecommons.org/ns#"
   xmlns:rdf="http://www.w3.org/1999/02/22-rdf-syntax-ns#"
   xmlns:svg="http://www.w3.org/2000/svg"
   xmlns="http://www.w3.org/2000/svg"
   xmlns:xlink="http://www.w3.org/1999/xlink"
   xmlns:sodipodi="http://sodipodi.sourceforge.net/DTD/sodipodi-0.dtd"
   xmlns:inkscape="http://www.inkscape.org/namespaces/inkscape"
   display="inline"
   height="96"
   width="96"
   id="svg2"
   version="1.1"
   inkscape:version="0.91 r13725"
   sodipodi:docname="view-list-details-symbolic.svg">
  <metadata
     id="metadata51">
    <rdf:RDF>
      <cc:Work
         rdf:about="">
        <dc:format>image/svg+xml</dc:format>
        <dc:type
           rdf:resource="http://purl.org/dc/dcmitype/StillImage" />
      </cc:Work>
    </rdf:RDF>
  </metadata>
  <sodipodi:namedview
     pagecolor="#ffffff"
     bordercolor="#666666"
     borderopacity="1"
     objecttolerance="10"
     gridtolerance="10"
     guidetolerance="10"
     inkscape:pageopacity="0"
     inkscape:pageshadow="2"
     inkscape:window-width="640"
     inkscape:window-height="480"
     id="namedview49"
     showgrid="false"
     inkscape:zoom="2.4583333"
     inkscape:cx="22.98305"
     inkscape:cy="47.999999"
     inkscape:window-x="717"
     inkscape:window-y="99"
     inkscape:window-maximized="0"
     inkscape:current-layer="svg2" />
  <defs
     id="defs4">
    <linearGradient
       x2="0"
       y1="92.54"
       y2="7.02"
       gradientUnits="userSpaceOnUse"
       id="ButtonShadow-0"
       gradientTransform="matrix(1.0059 0 0 0.99417 100 0)">
      <stop
         stop-color="#000000"
         stop-opacity="1"
         id="stop7" />
      <stop
         stop-color="#000000"
         stop-opacity="0.588"
         offset="1"
         id="stop9" />
    </linearGradient>
    <linearGradient
       x2="0"
       xlink:href="#ButtonShadow-0"
       y1="6.132"
       y2="90.24"
       gradientUnits="userSpaceOnUse"
       id="linearGradient3780"
       gradientTransform="matrix(1.02381 0 0 -1.0119 -1.143 98.07)" />
    <linearGradient
       x2="0"
       xlink:href="#ButtonShadow-0"
       y1="6.132"
       y2="90.24"
       gradientUnits="userSpaceOnUse"
       id="linearGradient3721-5"
       gradientTransform="matrix(1 0 0 -1 0 97)" />
    <radialGradient
       cy="90.17"
       r="42"
       gradientUnits="userSpaceOnUse"
       id="radialGradient3619-6"
       cx="48"
       gradientTransform="matrix(1.15731 0 0 0.99591 -7.551 0.197)">
      <stop
         stop-color="#ffffff"
         stop-opacity="1"
         id="stop14" />
      <stop
         stop-color="#ffffff"
         stop-opacity="0"
         offset="1"
         id="stop16" />
    </radialGradient>
    <linearGradient
       x2="0"
       y1="64.5"
       y2="25.5"
       gradientUnits="userSpaceOnUse"
       id="linearGradient4052"
       gradientTransform="matrix(1.77778,0,0,1.33333,-34.667,-12)">
      <stop
         stop-color="#4d4d4d"
         stop-opacity="1"
         id="stop19" />
      <stop
         stop-color="#1a1a1a"
         stop-opacity="1"
         offset="1"
         id="stop21" />
    </linearGradient>
  </defs>
  <g
     id="g3543"
     transform="matrix(1.4301675,0,0,1.4301675,-20.64799,-22.078206)">
    <path
       id="path37"
       d="m 23.75,21.03125 a 1.0264599,1.0264599 0 0 0 -0.125,0.03125 c 0.0027,-5.32e-4 -0.190107,0.03201 -0.1875,0.03125 0.0026,-7.63e-4 -0.158781,0.06349 -0.15625,0.0625 0.0025,-9.87e-4 -0.158685,0.0637 -0.15625,0.0625 0.0024,-0.0012 -0.15857,0.09516 -0.15625,0.09375 0.0023,-0.0014 -0.127188,0.09536 -0.125,0.09375 0.0022,-0.0016 -0.15829,0.09554 -0.15625,0.09375 0.002,-0.0018 -0.126875,0.126965 -0.125,0.125 0.0019,-0.002 -0.09545,0.127121 -0.09375,0.125 0.0017,-0.0021 -0.09526,0.158511 -0.09375,0.15625 0.0015,-0.0023 -0.09505,0.127384 -0.09375,0.125 0.0013,-0.0024 -0.09484,0.158738 -0.09375,0.15625 0.0011,-0.0025 -0.06337,0.158824 -0.0625,0.15625 8.68e-4,-0.0026 -0.03189,0.19014 -0.03125,0.1875 6.4e-4,-0.0026 -0.03166,0.158935 -0.03125,0.15625 4.08e-4,-0.0027 -0.03142,0.158961 -0.03125,0.15625 1.43e-4,-0.0023 8.33e-4,0.117025 0,0.15625 -1.67e-4,0.0078 1.1e-5,0.0317 0,0.03125 l 0,3.96875 c 1.5e-5,-0.0031 2.88e-4,0.190557 0,0.1875 -2.88e-4,-0.0031 0.03184,0.190514 0.03125,0.1875 -5.88e-4,-0.003 0.06338,0.190441 0.0625,0.1875 -8.83e-4,-0.0029 0.06367,0.19034 0.0625,0.1875 -0.0012,-0.0028 0.09519,0.190211 0.09375,0.1875 -0.0014,-0.0027 0.09545,0.158805 0.09375,0.15625 -0.0017,-0.0026 0.0957,0.158625 0.09375,0.15625 -0.0019,-0.0024 0.158422,0.127172 0.15625,0.125 -0.0022,-0.0022 0.127375,0.158197 0.125,0.15625 -0.0024,-0.0019 0.158805,0.09545 0.15625,0.09375 -0.0026,-0.0017 0.158961,0.09519 0.15625,0.09375 -0.0027,-0.0014 0.19034,0.09492 0.1875,0.09375 -0.0028,-0.0012 0.190441,0.06338 0.1875,0.0625 -0.0029,-8.83e-4 0.190514,0.06309 0.1875,0.0625 -0.003,-5.88e-4 0.190557,0.03154 0.1875,0.03125 -0.0031,-2.88e-4 0.190571,-1.5e-5 0.1875,0 l 48,0 c -0.0031,-1.5e-5 0.190557,-2.88e-4 0.1875,0 -0.0031,2.88e-4 0.190514,-0.03184 0.1875,-0.03125 -0.003,5.88e-4 0.190441,-0.06338 0.1875,-0.0625 -0.0029,8.83e-4 0.19034,-0.06367 0.1875,-0.0625 -0.0028,0.0012 0.190211,-0.09519 0.1875,-0.09375 -0.0027,0.0014 0.158805,-0.09545 0.15625,-0.09375 -0.0026,0.0017 0.158625,-0.0957 0.15625,-0.09375 -0.0024,0.0019 0.127172,-0.158422 0.125,-0.15625 -0.0022,0.0022 0.158197,-0.127375 0.15625,-0.125 -0.0019,0.0024 0.09545,-0.158805 0.09375,-0.15625 -0.0017,0.0026 0.09519,-0.158961 0.09375,-0.15625 -0.0014,0.0027 0.09492,-0.19034 0.09375,-0.1875 -0.0012,0.0028 0.06338,-0.190441 0.0625,-0.1875 -8.83e-4,0.0029 0.06309,-0.190514 0.0625,-0.1875 -5.88e-4,0.003 0.03154,-0.190557 0.03125,-0.1875 -2.88e-4,0.0031 -1.5e-5,-0.190571 0,-0.1875 l 0,-4 c -1.5e-5,0.0031 -2.88e-4,-0.190557 0,-0.1875 2.88e-4,0.0031 -0.03184,-0.190514 -0.03125,-0.1875 5.88e-4,0.003 -0.06338,-0.190441 -0.0625,-0.1875 8.83e-4,0.0029 -0.06367,-0.19034 -0.0625,-0.1875 0.0012,0.0028 -0.09519,-0.190211 -0.09375,-0.1875 0.0014,0.0027 -0.09545,-0.158805 -0.09375,-0.15625 0.0017,0.0026 -0.0957,-0.158625 -0.09375,-0.15625 0.0019,0.0024 -0.158422,-0.127172 -0.15625,-0.125 0.0022,0.0022 -0.127375,-0.158197 -0.125,-0.15625 0.0024,0.0019 -0.158805,-0.09545 -0.15625,-0.09375 0.0026,0.0017 -0.158961,-0.09519 -0.15625,-0.09375 0.0027,0.0014 -0.19034,-0.09492 -0.1875,-0.09375 0.0028,0.0012 -0.190441,-0.06338 -0.1875,-0.0625 0.0029,8.83e-4 -0.190514,-0.06309 -0.1875,-0.0625 0.003,5.88e-4 -0.190557,-0.03154 -0.1875,-0.03125 0.0031,2.88e-4 -0.190571,1.5e-5 -0.1875,0 l -47.9375,0 c 8.92e-4,4.5e-5 -0.03934,-1.9e-5 -0.0625,0 -0.01158,10e-6 -0.01726,-3e-6 -0.03125,0 0.0018,9e-5 -0.06906,1.3e-5 -0.125,0 -0.04195,-10e-6 -0.09509,6.7e-5 -0.09375,0 z m 0,12 a 1.0264599,1.0264599 0 0 0 -0.125,0.03125 c 0.0027,-5.32e-4 -0.190107,0.03201 -0.1875,0.03125 0.0026,-7.63e-4 -0.158781,0.06349 -0.15625,0.0625 0.0025,-9.87e-4 -0.158685,0.0637 -0.15625,0.0625 0.0024,-0.0012 -0.15857,0.09516 -0.15625,0.09375 0.0023,-0.0014 -0.127188,0.09536 -0.125,0.09375 0.0022,-0.0016 -0.15829,0.09554 -0.15625,0.09375 0.002,-0.0018 -0.126875,0.126965 -0.125,0.125 0.0019,-0.002 -0.09545,0.127121 -0.09375,0.125 0.0017,-0.0021 -0.09526,0.158511 -0.09375,0.15625 0.0015,-0.0023 -0.09505,0.127384 -0.09375,0.125 0.0013,-0.0024 -0.09484,0.158738 -0.09375,0.15625 0.0011,-0.0025 -0.06337,0.158824 -0.0625,0.15625 8.68e-4,-0.0026 -0.03189,0.19014 -0.03125,0.1875 6.4e-4,-0.0026 -0.03166,0.158935 -0.03125,0.15625 4.08e-4,-0.0027 -0.03142,0.158961 -0.03125,0.15625 1.43e-4,-0.0023 8.33e-4,0.117025 0,0.15625 -1.67e-4,0.0078 1.1e-5,0.0317 0,0.03125 l 0,3.96875 c 1.5e-5,-0.0031 2.88e-4,0.190557 0,0.1875 -2.88e-4,-0.0031 0.03184,0.190514 0.03125,0.1875 -5.88e-4,-0.003 0.06338,0.190441 0.0625,0.1875 -8.83e-4,-0.0029 0.06367,0.19034 0.0625,0.1875 -0.0012,-0.0028 0.09519,0.190211 0.09375,0.1875 -0.0014,-0.0027 0.09545,0.158805 0.09375,0.15625 -0.0017,-0.0026 0.0957,0.158625 0.09375,0.15625 -0.0019,-0.0024 0.158422,0.127172 0.15625,0.125 -0.0022,-0.0022 0.127375,0.158197 0.125,0.15625 -0.0024,-0.0019 0.158805,0.09545 0.15625,0.09375 -0.0026,-0.0017 0.158961,0.09519 0.15625,0.09375 -0.0027,-0.0014 0.19034,0.09492 0.1875,0.09375 -0.0028,-0.0012 0.190441,0.06338 0.1875,0.0625 -0.0029,-8.83e-4 0.190514,0.06309 0.1875,0.0625 -0.003,-5.88e-4 0.190557,0.03154 0.1875,0.03125 -0.0031,-2.88e-4 0.190571,-1.5e-5 0.1875,0 l 48,0 c -0.0031,-1.5e-5 0.190557,-2.88e-4 0.1875,0 -0.0031,2.88e-4 0.190514,-0.03184 0.1875,-0.03125 -0.003,5.88e-4 0.190441,-0.06338 0.1875,-0.0625 -0.0029,8.83e-4 0.19034,-0.06367 0.1875,-0.0625 -0.0028,0.0012 0.190211,-0.09519 0.1875,-0.09375 -0.0027,0.0014 0.158805,-0.09545 0.15625,-0.09375 -0.0026,0.0017 0.158625,-0.0957 0.15625,-0.09375 -0.0024,0.0019 0.127172,-0.158422 0.125,-0.15625 -0.0022,0.0022 0.158197,-0.127375 0.15625,-0.125 -0.0019,0.0024 0.09545,-0.158805 0.09375,-0.15625 -0.0017,0.0026 0.09519,-0.158961 0.09375,-0.15625 -0.0014,0.0027 0.09492,-0.19034 0.09375,-0.1875 -0.0012,0.0028 0.06338,-0.190441 0.0625,-0.1875 -8.83e-4,0.0029 0.06309,-0.190514 0.0625,-0.1875 -5.88e-4,0.003 0.03154,-0.190557 0.03125,-0.1875 -2.88e-4,0.0031 -1.5e-5,-0.190571 0,-0.1875 l 0,-4 c -1.5e-5,0.0031 -2.88e-4,-0.190557 0,-0.1875 2.88e-4,0.0031 -0.03184,-0.190514 -0.03125,-0.1875 5.88e-4,0.003 -0.06338,-0.190441 -0.0625,-0.1875 8.83e-4,0.0029 -0.06367,-0.19034 -0.0625,-0.1875 0.0012,0.0028 -0.09519,-0.190211 -0.09375,-0.1875 0.0014,0.0027 -0.09545,-0.158805 -0.09375,-0.15625 0.0017,0.0026 -0.0957,-0.158625 -0.09375,-0.15625 0.0019,0.0024 -0.158422,-0.127172 -0.15625,-0.125 0.0022,0.0022 -0.127375,-0.158197 -0.125,-0.15625 0.0024,0.0019 -0.158805,-0.09545 -0.15625,-0.09375 0.0026,0.0017 -0.158961,-0.09519 -0.15625,-0.09375 0.0027,0.0014 -0.19034,-0.09492 -0.1875,-0.09375 0.0028,0.0012 -0.190441,-0.06338 -0.1875,-0.0625 0.0029,8.83e-4 -0.190514,-0.06309 -0.1875,-0.0625 0.003,5.88e-4 -0.190557,-0.03154 -0.1875,-0.03125 0.0031,2.88e-4 -0.190571,1.5e-5 -0.1875,0 l -47.9375,0 c 8.92e-4,4.5e-5 -0.03934,-1.9e-5 -0.0625,0 -0.01158,1e-5 -0.01726,-3e-6 -0.03125,0 0.0018,9e-5 -0.06906,1.3e-5 -0.125,0 -0.04195,-1e-5 -0.09509,6.7e-5 -0.09375,0 z m 0,12 a 1.0264599,1.0264599 0 0 0 -0.125,0.03125 c 0.0027,-5.32e-4 -0.190107,0.03201 -0.1875,0.03125 0.0026,-7.63e-4 -0.158781,0.06349 -0.15625,0.0625 0.0025,-9.87e-4 -0.158685,0.0637 -0.15625,0.0625 0.0024,-0.0012 -0.15857,0.09516 -0.15625,0.09375 0.0023,-0.0014 -0.127188,0.09536 -0.125,0.09375 0.0022,-0.0016 -0.15829,0.09554 -0.15625,0.09375 0.002,-0.0018 -0.126875,0.126965 -0.125,0.125 0.0019,-0.002 -0.09545,0.127121 -0.09375,0.125 0.0017,-0.0021 -0.09526,0.158511 -0.09375,0.15625 0.0015,-0.0023 -0.09505,0.127384 -0.09375,0.125 0.0013,-0.0024 -0.09484,0.158738 -0.09375,0.15625 0.0011,-0.0025 -0.06337,0.158824 -0.0625,0.15625 8.68e-4,-0.0026 -0.03189,0.19014 -0.03125,0.1875 6.4e-4,-0.0026 -0.03166,0.158935 -0.03125,0.15625 4.08e-4,-0.0027 -0.03142,0.158961 -0.03125,0.15625 1.43e-4,-0.0023 8.33e-4,0.117025 0,0.15625 -1.67e-4,0.0078 1.1e-5,0.0317 0,0.03125 l 0,3.96875 c 1.5e-5,-0.0031 2.88e-4,0.190557 0,0.1875 -2.88e-4,-0.0031 0.03184,0.190514 0.03125,0.1875 -5.88e-4,-0.003 0.06338,0.190441 0.0625,0.1875 -8.83e-4,-0.0029 0.06367,0.19034 0.0625,0.1875 -0.0012,-0.0028 0.09519,0.190211 0.09375,0.1875 -0.0014,-0.0027 0.09545,0.158805 0.09375,0.15625 -0.0017,-0.0026 0.0957,0.158625 0.09375,0.15625 -0.0019,-0.0024 0.158422,0.127172 0.15625,0.125 -0.0022,-0.0022 0.127375,0.158197 0.125,0.15625 -0.0024,-0.0019 0.158805,0.09545 0.15625,0.09375 -0.0026,-0.0017 0.158961,0.09519 0.15625,0.09375 -0.0027,-0.0014 0.19034,0.09492 0.1875,0.09375 -0.0028,-0.0012 0.190441,0.06338 0.1875,0.0625 -0.0029,-8.83e-4 0.190514,0.06309 0.1875,0.0625 -0.003,-5.88e-4 0.190557,0.03154 0.1875,0.03125 -0.0031,-2.88e-4 0.190571,-1.5e-5 0.1875,0 l 48,0 c -0.0031,-1.5e-5 0.190557,-2.88e-4 0.1875,0 -0.0031,2.88e-4 0.190514,-0.03184 0.1875,-0.03125 -0.003,5.88e-4 0.190441,-0.06338 0.1875,-0.0625 -0.0029,8.83e-4 0.19034,-0.06367 0.1875,-0.0625 -0.0028,0.0012 0.190211,-0.09519 0.1875,-0.09375 -0.0027,0.0014 0.158805,-0.09545 0.15625,-0.09375 -0.0026,0.0017 0.158625,-0.0957 0.15625,-0.09375 -0.0024,0.0019 0.127172,-0.158422 0.125,-0.15625 -0.0022,0.0022 0.158197,-0.127375 0.15625,-0.125 -0.0019,0.0024 0.09545,-0.158805 0.09375,-0.15625 -0.0017,0.0026 0.09519,-0.158961 0.09375,-0.15625 -0.0014,0.0027 0.09492,-0.19034 0.09375,-0.1875 -0.0012,0.0028 0.06338,-0.190441 0.0625,-0.1875 -8.83e-4,0.0029 0.06309,-0.190514 0.0625,-0.1875 -5.88e-4,0.003 0.03154,-0.190557 0.03125,-0.1875 -2.88e-4,0.0031 -1.5e-5,-0.190571 0,-0.1875 l 0,-4 c -1.5e-5,0.0031 -2.88e-4,-0.190557 0,-0.1875 2.88e-4,0.0031 -0.03184,-0.190514 -0.03125,-0.1875 5.88e-4,0.003 -0.06338,-0.190441 -0.0625,-0.1875 8.83e-4,0.0029 -0.06367,-0.19034 -0.0625,-0.1875 0.0012,0.0028 -0.09519,-0.190211 -0.09375,-0.1875 0.0014,0.0027 -0.09545,-0.158805 -0.09375,-0.15625 0.0017,0.0026 -0.0957,-0.158625 -0.09375,-0.15625 0.0019,0.0024 -0.158422,-0.127172 -0.15625,-0.125 0.0022,0.0022 -0.127375,-0.158197 -0.125,-0.15625 0.0024,0.0019 -0.158805,-0.09545 -0.15625,-0.09375 0.0026,0.0017 -0.158961,-0.09519 -0.15625,-0.09375 0.0027,0.0014 -0.19034,-0.09492 -0.1875,-0.09375 0.0028,0.0012 -0.190441,-0.06338 -0.1875,-0.0625 0.0029,8.83e-4 -0.190514,-0.06309 -0.1875,-0.0625 0.003,5.88e-4 -0.190557,-0.03154 -0.1875,-0.03125 0.0031,2.88e-4 -0.190571,1.5e-5 -0.1875,0 l -47.9375,0 c 8.92e-4,4.5e-5 -0.03934,-1.9e-5 -0.0625,0 -0.01158,1e-5 -0.01726,-3e-6 -0.03125,0 0.0018,9e-5 -0.06906,1.3e-5 -0.125,0 -0.04195,-1e-5 -0.09509,6.7e-5 -0.09375,0 z m 0,12 a 1.0264599,1.0264599 0 0 0 -0.125,0.03125 c 0.0027,-5.32e-4 -0.190107,0.03201 -0.1875,0.03125 0.0026,-7.63e-4 -0.158781,0.06349 -0.15625,0.0625 0.0025,-9.87e-4 -0.158685,0.0637 -0.15625,0.0625 0.0024,-0.0012 -0.15857,0.09516 -0.15625,0.09375 0.0023,-0.0014 -0.127188,0.09536 -0.125,0.09375 0.0022,-0.0016 -0.15829,0.09554 -0.15625,0.09375 0.002,-0.0018 -0.126875,0.126965 -0.125,0.125 0.0019,-0.002 -0.09545,0.127121 -0.09375,0.125 0.0017,-0.0021 -0.09526,0.158511 -0.09375,0.15625 0.0015,-0.0023 -0.09505,0.127384 -0.09375,0.125 0.0013,-0.0024 -0.09484,0.158738 -0.09375,0.15625 0.0011,-0.0025 -0.06337,0.158824 -0.0625,0.15625 8.68e-4,-0.0026 -0.03189,0.19014 -0.03125,0.1875 6.4e-4,-0.0026 -0.03166,0.158935 -0.03125,0.15625 4.08e-4,-0.0027 -0.03142,0.158961 -0.03125,0.15625 1.43e-4,-0.0023 8.33e-4,0.117025 0,0.15625 -1.67e-4,0.0078 1.1e-5,0.0317 0,0.03125 l 0,3.96875 c 1.5e-5,-0.0031 2.88e-4,0.190557 0,0.1875 -2.88e-4,-0.0031 0.03184,0.190514 0.03125,0.1875 -5.88e-4,-0.003 0.06338,0.190441 0.0625,0.1875 -8.83e-4,-0.0029 0.06367,0.19034 0.0625,0.1875 -0.0012,-0.0028 0.09519,0.190211 0.09375,0.1875 -0.0014,-0.0027 0.09545,0.158805 0.09375,0.15625 -0.0017,-0.0026 0.0957,0.158625 0.09375,0.15625 -0.0019,-0.0024 0.158422,0.127172 0.15625,0.125 -0.0022,-0.0022 0.127375,0.158197 0.125,0.15625 -0.0024,-0.0019 0.158805,0.09545 0.15625,0.09375 -0.0026,-0.0017 0.158961,0.09519 0.15625,0.09375 -0.0027,-0.0014 0.19034,0.09492 0.1875,0.09375 -0.0028,-0.0012 0.190441,0.06338 0.1875,0.0625 -0.0029,-8.83e-4 0.190514,0.06309 0.1875,0.0625 -0.003,-5.88e-4 0.190557,0.03154 0.1875,0.03125 -0.0031,-2.88e-4 0.190571,-1.5e-5 0.1875,0 l 48,0 c -0.0031,-1.5e-5 0.190557,-2.88e-4 0.1875,0 -0.0031,2.88e-4 0.190514,-0.03184 0.1875,-0.03125 -0.003,5.88e-4 0.190441,-0.06338 0.1875,-0.0625 -0.0029,8.83e-4 0.19034,-0.06367 0.1875,-0.0625 -0.0028,0.0012 0.190211,-0.09519 0.1875,-0.09375 -0.0027,0.0014 0.158805,-0.09545 0.15625,-0.09375 -0.0026,0.0017 0.158625,-0.0957 0.15625,-0.09375 -0.0024,0.0019 0.127172,-0.158422 0.125,-0.15625 -0.0022,0.0022 0.158197,-0.127375 0.15625,-0.125 -0.0019,0.0024 0.09545,-0.158805 0.09375,-0.15625 -0.0017,0.0026 0.09519,-0.158961 0.09375,-0.15625 -0.0014,0.0027 0.09492,-0.19034 0.09375,-0.1875 -0.0012,0.0028 0.06338,-0.190441 0.0625,-0.1875 -8.83e-4,0.0029 0.06309,-0.190514 0.0625,-0.1875 -5.88e-4,0.003 0.03154,-0.190557 0.03125,-0.1875 -2.88e-4,0.0031 -1.5e-5,-0.190571 0,-0.1875 l 0,-4 c -1.5e-5,0.0031 -2.88e-4,-0.190557 0,-0.1875 2.88e-4,0.0031 -0.03184,-0.190514 -0.03125,-0.1875 5.88e-4,0.003 -0.06338,-0.190441 -0.0625,-0.1875 8.83e-4,0.0029 -0.06367,-0.19034 -0.0625,-0.1875 0.0012,0.0028 -0.09519,-0.190211 -0.09375,-0.1875 0.0014,0.0027 -0.09545,-0.158805 -0.09375,-0.15625 0.0017,0.0026 -0.0957,-0.158625 -0.09375,-0.15625 0.0019,0.0024 -0.158422,-0.127172 -0.15625,-0.125 0.0022,0.0022 -0.127375,-0.158197 -0.125,-0.15625 0.0024,0.0019 -0.158805,-0.09545 -0.15625,-0.09375 0.0026,0.0017 -0.158961,-0.09519 -0.15625,-0.09375 0.0027,0.0014 -0.19034,-0.09492 -0.1875,-0.09375 0.0028,0.0012 -0.190441,-0.06338 -0.1875,-0.0625 0.0029,8.83e-4 -0.190514,-0.06309 -0.1875,-0.0625 0.003,5.88e-4 -0.190557,-0.03154 -0.1875,-0.03125 0.0031,2.88e-4 -0.190571,1.5e-5 -0.1875,0 l -47.9375,0 c 8.92e-4,4.5e-5 -0.03934,-1.9e-5 -0.0625,0 -0.01158,1e-5 -0.01726,-3e-6 -0.03125,0 0.0018,9e-5 -0.06906,1.3e-5 -0.125,0 -0.04195,-1e-5 -0.09509,6.7e-5 -0.09375,0 z m 0,12 a 1.0264599,1.0264599 0 0 0 -0.125,0.03125 c 0.0027,-5.32e-4 -0.190107,0.03201 -0.1875,0.03125 0.0026,-7.63e-4 -0.158781,0.06349 -0.15625,0.0625 0.0025,-9.87e-4 -0.158685,0.0637 -0.15625,0.0625 0.0024,-0.0012 -0.15857,0.09516 -0.15625,0.09375 0.0023,-0.0014 -0.127188,0.09536 -0.125,0.09375 0.0022,-0.0016 -0.15829,0.09554 -0.15625,0.09375 0.002,-0.0018 -0.126875,0.126965 -0.125,0.125 0.0019,-0.002 -0.09545,0.127121 -0.09375,0.125 0.0017,-0.0021 -0.09526,0.158511 -0.09375,0.15625 0.0015,-0.0023 -0.09505,0.127384 -0.09375,0.125 0.0013,-0.0024 -0.09484,0.158738 -0.09375,0.15625 0.0011,-0.0025 -0.06337,0.158824 -0.0625,0.15625 8.68e-4,-0.0026 -0.03189,0.19014 -0.03125,0.1875 6.4e-4,-0.0026 -0.03166,0.158935 -0.03125,0.15625 4.08e-4,-0.0027 -0.03142,0.158961 -0.03125,0.15625 1.43e-4,-0.0023 8.33e-4,0.117025 0,0.15625 -1.67e-4,0.0078 1.1e-5,0.0317 0,0.03125 l 0,3.96875 c 1.5e-5,-0.0031 2.88e-4,0.190557 0,0.1875 -2.88e-4,-0.0031 0.03184,0.190514 0.03125,0.1875 -5.88e-4,-0.003 0.06338,0.190441 0.0625,0.1875 -8.83e-4,-0.0029 0.06367,0.19034 0.0625,0.1875 -0.0012,-0.0028 0.09519,0.190211 0.09375,0.1875 -0.0014,-0.0027 0.09545,0.158805 0.09375,0.15625 -0.0017,-0.0026 0.0957,0.158625 0.09375,0.15625 -0.0019,-0.0024 0.158422,0.127172 0.15625,0.125 -0.0022,-0.0022 0.127375,0.158197 0.125,0.15625 -0.0024,-0.0019 0.158805,0.09545 0.15625,0.09375 -0.0026,-0.0017 0.158961,0.09519 0.15625,0.09375 -0.0027,-0.0014 0.19034,0.09492 0.1875,0.09375 -0.0028,-0.0012 0.190441,0.06338 0.1875,0.0625 -0.0029,-8.83e-4 0.190514,0.06309 0.1875,0.0625 -0.003,-5.88e-4 0.190557,0.03154 0.1875,0.03125 -0.0031,-2.88e-4 0.190571,-1.5e-5 0.1875,0 l 48,0 c -0.0031,-1.5e-5 0.190557,-2.88e-4 0.1875,0 -0.0031,2.88e-4 0.190514,-0.03184 0.1875,-0.03125 -0.003,5.88e-4 0.190441,-0.06338 0.1875,-0.0625 -0.0029,8.83e-4 0.19034,-0.06367 0.1875,-0.0625 -0.0028,0.0012 0.190211,-0.09519 0.1875,-0.09375 -0.0027,0.0014 0.158805,-0.09545 0.15625,-0.09375 -0.0026,0.0017 0.158625,-0.0957 0.15625,-0.09375 -0.0024,0.0019 0.127172,-0.158422 0.125,-0.15625 -0.0022,0.0022 0.158197,-0.127375 0.15625,-0.125 -0.0019,0.0024 0.09545,-0.158805 0.09375,-0.15625 -0.0017,0.0026 0.09519,-0.158961 0.09375,-0.15625 -0.0014,0.0027 0.09492,-0.19034 0.09375,-0.1875 -0.0012,0.0028 0.06338,-0.190441 0.0625,-0.1875 -8.83e-4,0.0029 0.06309,-0.190514 0.0625,-0.1875 -5.88e-4,0.003 0.03154,-0.190557 0.03125,-0.1875 -2.88e-4,0.0031 -1.5e-5,-0.190571 0,-0.1875 l 0,-4 c -1.5e-5,0.0031 -2.88e-4,-0.190557 0,-0.1875 2.88e-4,0.0031 -0.03184,-0.190514 -0.03125,-0.1875 5.88e-4,0.003 -0.06338,-0.190441 -0.0625,-0.1875 8.83e-4,0.0029 -0.06367,-0.19034 -0.0625,-0.1875 0.0012,0.0028 -0.09519,-0.190211 -0.09375,-0.1875 0.0014,0.0027 -0.09545,-0.158805 -0.09375,-0.15625 0.0017,0.0026 -0.0957,-0.158625 -0.09375,-0.15625 0.0019,0.0024 -0.158422,-0.127172 -0.15625,-0.125 0.0022,0.0022 -0.127375,-0.158197 -0.125,-0.15625 0.0024,0.0019 -0.158805,-0.09545 -0.15625,-0.09375 0.0026,0.0017 -0.158961,-0.09519 -0.15625,-0.09375 0.0027,0.0014 -0.19034,-0.09492 -0.1875,-0.09375 0.0028,0.0012 -0.190441,-0.06338 -0.1875,-0.0625 0.0029,8.83e-4 -0.190514,-0.06309 -0.1875,-0.0625 0.003,5.88e-4 -0.190557,-0.03154 -0.1875,-0.03125 0.0031,2.88e-4 -0.190571,1.5e-5 -0.1875,0 l -47.9375,0 c 8.92e-4,4.5e-5 -0.03934,-1.9e-5 -0.0625,0 -0.01158,1e-5 -0.01726,-3e-6 -0.03125,0 0.0018,9e-5 -0.06906,1.3e-5 -0.125,0 -0.04195,-1e-5 -0.09509,6.7e-5 -0.09375,0 z"
       inkscape:connector-curvature="0"
       style="opacity:0.1;fill:black;fill-opacity:1;stroke:none" />
    <path
       id="path39"
       d="M 23.90625,22.0625 A 0.93307872,0.93307872 0 0 0 23.0625,23 l 0,4 A 0.93307872,0.93307872 0 0 0 24,27.9375 l 48,0 A 0.93307872,0.93307872 0 0 0 72.9375,27 l 0,-4 A 0.93307872,0.93307872 0 0 0 72,22.0625 l -48,0 a 0.93307872,0.93307872 0 0 0 -0.09375,0 z m 0,12 A 0.93307872,0.93307872 0 0 0 23.0625,35 l 0,4 A 0.93307872,0.93307872 0 0 0 24,39.9375 l 48,0 A 0.93307872,0.93307872 0 0 0 72.9375,39 l 0,-4 A 0.93307872,0.93307872 0 0 0 72,34.0625 l -48,0 a 0.93307872,0.93307872 0 0 0 -0.09375,0 z m 0,12 A 0.93307872,0.93307872 0 0 0 23.0625,47 l 0,4 A 0.93307872,0.93307872 0 0 0 24,51.9375 l 48,0 A 0.93307872,0.93307872 0 0 0 72.9375,51 l 0,-4 A 0.93307872,0.93307872 0 0 0 72,46.0625 l -48,0 a 0.93307872,0.93307872 0 0 0 -0.09375,0 z m 0,12 A 0.93307872,0.93307872 0 0 0 23.0625,59 l 0,4 A 0.93307872,0.93307872 0 0 0 24,63.9375 l 48,0 A 0.93307872,0.93307872 0 0 0 72.9375,63 l 0,-4 A 0.93307872,0.93307872 0 0 0 72,58.0625 l -48,0 a 0.93307872,0.93307872 0 0 0 -0.09375,0 z m 0,12 A 0.93307872,0.93307872 0 0 0 23.0625,71 l 0,4 A 0.93307872,0.93307872 0 0 0 24,75.9375 l 48,0 A 0.93307872,0.93307872 0 0 0 72.9375,75 l 0,-4 A 0.93307872,0.93307872 0 0 0 72,70.0625 l -48,0 a 0.93307872,0.93307872 0 0 0 -0.09375,0 z"
       inkscape:connector-curvature="0"
       style="opacity:0.15;fill:black;fill-opacity:1;stroke:none" />
    <path
       id="path41"
       inkscape:connector-curvature="0"
       d="m 24,23 0,4 48,0 0,-4 -48,0 z m 0,12 0,4 48,0 0,-4 -48,0 z m 0,12 0,4 48,0 0,-4 -48,0 z m 0,12 0,4 48,0 0,-4 -48,0 z m 0,12 0,4 48,0 0,-4 -48,0 z"
       style="opacity:0.3;fill:black;fill-opacity:1;stroke:none" />
    <path
       id="path43"
       inkscape:connector-curvature="0"
       d="m 24,22 0,4 48,0 0,-4 -48,0 z m 0,12 0,4 48,0 0,-4 -48,0 z m 0,12 0,4 48,0 0,-4 -48,0 z m 0,12 0,4 48,0 0,-4 -48,0 z m 0,12 0,4 48,0 0,-4 -48,0 z"
       style="fill:url(#linearGradient4052);fill-opacity:1;stroke:none" />
    <path
       id="path45"
       inkscape:connector-curvature="0"
       d="m 24,22 0,1 48,0 0,-1 -48,0 z m 0,12 0,1 48,0 0,-1 -48,0 z m 0,12 0,1 48,0 0,-1 -48,0 z m 0,12 0,1 48,0 0,-1 -48,0 z m 0,12 0,1 48,0 0,-1 -48,0 z"
       style="opacity:0.75;fill:white;fill-opacity:1;stroke:none" />
    <path
       id="path47"
       inkscape:connector-curvature="0"
       d="m 24,25 0,1 48,0 0,-1 -48,0 z m 0,12 0,1 48,0 0,-1 -48,0 z m 0,12 0,1 48,0 0,-1 -48,0 z m 0,12 0,1 48,0 0,-1 -48,0 z m 0,12 0,1 48,0 0,-1 -48,0 z"
       style="opacity:0.15;fill:black;fill-opacity:1;stroke:none" />
  </g>
</svg>
