<?xml version="1.0" encoding="UTF-8" standalone="no"?>
<svg
   xmlns:dc="http://purl.org/dc/elements/1.1/"
   xmlns:cc="http://creativecommons.org/ns#"
   xmlns:rdf="http://www.w3.org/1999/02/22-rdf-syntax-ns#"
   xmlns:svg="http://www.w3.org/2000/svg"
   xmlns="http://www.w3.org/2000/svg"
   xmlns:xlink="http://www.w3.org/1999/xlink"
   xmlns:sodipodi="http://sodipodi.sourceforge.net/DTD/sodipodi-0.dtd"
   xmlns:inkscape="http://www.inkscape.org/namespaces/inkscape"
   height="96"
   width="96"
   id="svg2"
   version="1.1"
   inkscape:version="0.91 r13725"
   sodipodi:docname="view-sort-descending.svg">
  <metadata
     id="metadata68">
    <rdf:RDF>
      <cc:Work
         rdf:about="">
        <dc:format>image/svg+xml</dc:format>
        <dc:type
           rdf:resource="http://purl.org/dc/dcmitype/StillImage" />
      </cc:Work>
    </rdf:RDF>
  </metadata>
  <sodipodi:namedview
     pagecolor="#ffffff"
     bordercolor="#666666"
     borderopacity="1"
     objecttolerance="10"
     gridtolerance="10"
     guidetolerance="10"
     inkscape:pageopacity="0"
     inkscape:pageshadow="2"
     inkscape:window-width="640"
     inkscape:window-height="480"
     id="namedview66"
     showgrid="false"
     inkscape:zoom="9.8333333"
     inkscape:cx="47.321571"
     inkscape:cy="12.036349"
     inkscape:window-x="114"
     inkscape:window-y="140"
     inkscape:window-maximized="0"
     inkscape:current-layer="svg2" />
  <defs
     id="defs4">
    <linearGradient
       x2="0"
       y1="92.54"
       y2="7.02"
       gradientUnits="userSpaceOnUse"
       id="ButtonShadow-0"
       gradientTransform="matrix(1.0059 0 0 0.99417 100 0)">
      <stop
         stop-color="#000000"
         stop-opacity="1"
         id="stop7" />
      <stop
         stop-color="#000000"
         stop-opacity="0.588"
         offset="1"
         id="stop9" />
    </linearGradient>
    <linearGradient
       x2="0"
       xlink:href="#ButtonShadow-0"
       y1="6.132"
       y2="90.24"
       gradientUnits="userSpaceOnUse"
       id="linearGradient3780"
       gradientTransform="matrix(1.02381 0 0 -1.0119 -1.143 98.07)" />
    <linearGradient
       x2="0"
       xlink:href="#ButtonShadow-0"
       y1="6.132"
       y2="90.24"
       gradientUnits="userSpaceOnUse"
       id="linearGradient3721"
       gradientTransform="matrix(1 0 0 -1 0 97)" />
    <radialGradient
       cy="90.17"
       r="42"
       gradientUnits="userSpaceOnUse"
       id="radialGradient3619-3"
       cx="48"
       gradientTransform="matrix(1.15731 0 0 0.99591 -7.551 0.197)">
      <stop
         stop-color="#ffffff"
         stop-opacity="1"
         id="stop14" />
      <stop
         stop-color="#ffffff"
         stop-opacity="0"
         offset="1"
         id="stop16" />
    </radialGradient>
    <linearGradient
       x1="13.262"
       x2="-0.53"
       gradientUnits="userSpaceOnUse"
       id="linearGradient3960"
       gradientTransform="matrix(0,-5.3757194,4.2109143,0,11.120055,80.770152)">
      <stop
         stop-color="#1a1a1a"
         stop-opacity="1"
         id="stop19" />
      <stop
         stop-color="#4d4d4d"
         stop-opacity="1"
         offset="1"
         id="stop21" />
    </linearGradient>
    <rect
       x="6"
       rx="6"
       y="6"
       fill="#000000"
       fill-opacity="1"
       stroke="none"
       fill-rule="nonzero"
       height="84"
       id="SVGCleanerId_0"
       opacity="0.6"
       width="84" />
  </defs>
  <path
     style="fill:url(#linearGradient3960);fill-opacity:1;stroke:none"
     id="path60"
     inkscape:connector-curvature="0"
     d="m 23.026198,9.475652 c -3.945505,0 -7.143972,3.191965 -7.143972,7.12945 0,3.937485 3.198467,7.12945 7.143972,7.12945 3.945506,0 7.143972,-3.191965 7.143972,-7.12945 0,-3.937485 -3.198466,-7.12945 -7.143972,-7.12945 z m 0,19.96246 c -3.945505,0 -7.143972,3.191965 -7.143972,7.12945 0,3.937485 3.198467,7.12945 7.143972,7.12945 3.945506,0 7.143972,-3.191965 7.143972,-7.12945 0,-3.937485 -3.198466,-7.12945 -7.143972,-7.12945 z m 38.130951,5.70356 -19.556623,25.933374 11.296405,0 0,22.546886 15.850688,0 0,-22.546886 11.430355,0 -19.020825,-25.933374 z m -38.130951,14.2589 c -3.945505,0 -7.143972,3.191965 -7.143972,7.12945 0,3.937485 3.198467,7.12945 7.143972,7.12945 3.945506,0 7.143972,-3.191965 7.143972,-7.12945 0,-3.937485 -3.198466,-7.12945 -7.143972,-7.12945 z m 0,19.96246 c -3.945505,0 -7.143972,3.191965 -7.143972,7.12945 0,3.937485 3.198467,7.12945 7.143972,7.12945 3.945506,0 7.143972,-3.191965 7.143972,-7.12945 0,-3.937485 -3.198466,-7.12945 -7.143972,-7.12945 z" />
  <path
     style="opacity:0.75;fill:#ffffff;fill-opacity:1;stroke:none"
     id="path62"
     inkscape:connector-curvature="0"
     d="m 23.026198,9.475652 c -3.945505,0 -7.143972,3.191965 -7.143972,7.12945 0,0.246093 0.02026,0.473274 0.04465,0.712945 0.365843,-3.595068 3.400411,-6.416505 7.099322,-6.416505 3.698912,0 6.73348,2.821437 7.099323,6.416505 0.02439,-0.239671 0.04465,-0.466852 0.04465,-0.712945 0,-3.937485 -3.198466,-7.12945 -7.143972,-7.12945 z m 0,19.96246 c -3.945505,0 -7.143972,3.191965 -7.143972,7.12945 0,0.246093 0.02026,0.473274 0.04465,0.712945 0.365843,-3.595068 3.400411,-6.416505 7.099322,-6.416505 3.698912,0 6.73348,2.821437 7.099323,6.416505 0.02439,-0.239671 0.04465,-0.466852 0.04465,-0.712945 0,-3.937485 -3.198466,-7.12945 -7.143972,-7.12945 z m 38.130951,5.70356 -19.556623,25.933374 1.071595,0 18.485028,-24.507484 17.993879,24.507484 1.026946,0 -19.020825,-25.933374 z m -38.130951,14.2589 c -3.945505,0 -7.143972,3.191965 -7.143972,7.12945 0,0.246093 0.02026,0.473274 0.04465,0.712945 0.365843,-3.595068 3.400411,-6.416505 7.099322,-6.416505 3.698912,0 6.73348,2.821437 7.099323,6.416505 0.02439,-0.239671 0.04465,-0.466852 0.04465,-0.712945 0,-3.937485 -3.198466,-7.12945 -7.143972,-7.12945 z m 0,19.96246 c -3.945505,0 -7.143972,3.191965 -7.143972,7.12945 0,0.246093 0.02026,0.473274 0.04465,0.712945 0.365843,-3.595068 3.400411,-6.416505 7.099322,-6.416505 3.698912,0 6.73348,2.821437 7.099323,6.416505 0.02439,-0.239671 0.04465,-0.466852 0.04465,-0.712945 0,-3.937485 -3.198466,-7.12945 -7.143972,-7.12945 z" />
  <path
     style="opacity:0.15;fill:#000000;fill-opacity:1;stroke:none"
     id="path64"
     inkscape:connector-curvature="0"
     d="m 15.926876,15.892157 c -0.02439,0.239671 -0.04465,0.466852 -0.04465,0.712945 0,3.937485 3.198467,7.12945 7.143972,7.12945 3.945506,0 7.143972,-3.191965 7.143972,-7.12945 0,-0.246093 -0.02026,-0.473274 -0.04465,-0.712945 -0.365843,3.595068 -3.400411,6.416505 -7.099323,6.416505 -3.698911,0 -6.733479,-2.821437 -7.099322,-6.416505 z m 0,19.96246 c -0.02439,0.239671 -0.04465,0.466852 -0.04465,0.712945 0,3.937485 3.198467,7.12945 7.143972,7.12945 3.945506,0 7.143972,-3.191965 7.143972,-7.12945 0,-0.246093 -0.02026,-0.473274 -0.04465,-0.712945 -0.365843,3.595068 -3.400411,6.416505 -7.099323,6.416505 -3.698911,0 -6.733479,-2.821437 -7.099322,-6.416505 z m 0,19.96246 c -0.02439,0.239671 -0.04465,0.466852 -0.04465,0.712945 0,3.937485 3.198467,7.12945 7.143972,7.12945 3.945506,0 7.143972,-3.191965 7.143972,-7.12945 0,-0.246093 -0.02026,-0.473274 -0.04465,-0.712945 -0.365843,3.595068 -3.400411,6.416505 -7.099323,6.416505 -3.698911,0 -6.733479,-2.821437 -7.099322,-6.416505 z m 26.745245,3.832079 -1.071595,1.42589 11.296405,0 0,-1.42589 -10.22481,0 z m 26.075498,0 0,1.42589 11.430355,0 -1.026946,-1.42589 -10.403409,0 z M 15.926876,75.779537 c -0.02439,0.239671 -0.04465,0.466852 -0.04465,0.712945 0,3.937485 3.198467,7.12945 7.143972,7.12945 3.945506,0 7.143972,-3.191965 7.143972,-7.12945 0,-0.246093 -0.02026,-0.473274 -0.04465,-0.712945 -0.365843,3.595068 -3.400411,6.416505 -7.099323,6.416505 -3.698911,0 -6.733479,-2.821437 -7.099322,-6.416505 z m 36.970055,6.416505 0,1.42589 15.850688,0 0,-1.42589 -15.850688,0 z" />
</svg>
