<svg height="96" width="96" xmlns="http://www.w3.org/2000/svg" xmlns:xlink="http://www.w3.org/1999/xlink" xmlns:sodipodi="http://sodipodi.sourceforge.net/DTD/sodipodi-0.dtd" xmlns:inkscape="http://www.inkscape.org/namespaces/inkscape">
 <defs>
  <linearGradient x2="0" y1="92.54" y2="7.02" gradientUnits="userSpaceOnUse" id="ButtonShadow-0" gradientTransform="matrix(1.0059 0 0 0.99417 100 0)">
   <stop stop-color="#000000" stop-opacity="1"/>
   <stop stop-color="#000000" stop-opacity="0.588" offset="1"/>
  </linearGradient>
  <linearGradient x2="0" xlink:href="#ButtonShadow-0" y1="6.132" y2="90.24" gradientUnits="userSpaceOnUse" id="linearGradient3780" gradientTransform="matrix(1.02381 0 0 -1.0119 -1.143 98.07)"/>
  <linearGradient x2="0" xlink:href="#ButtonShadow-0" y1="6.132" y2="90.24" gradientUnits="userSpaceOnUse" id="linearGradient3721" gradientTransform="matrix(1 0 0 -1 0 97)"/>
  <radialGradient cy="90.17" r="42" gradientUnits="userSpaceOnUse" id="radialGradient3619-1" cx="48" gradientTransform="matrix(1.15731 0 0 0.99591 -7.551 0.197)">
   <stop stop-color="#ffffff" stop-opacity="1"/>
   <stop stop-color="#ffffff" stop-opacity="0" offset="1"/>
  </radialGradient>
  <linearGradient x2="0" y1="78" y2="18.19" gradientUnits="userSpaceOnUse" id="linearGradient3198">
   <stop stop-color="#aaaaaa" stop-opacity="1"/>
   <stop stop-color="#f0f0f0" stop-opacity="1" offset="1"/>
  </linearGradient>
  <rect x="6" rx="6" y="6" fill="#000000" fill-opacity="1" stroke="none" fill-rule="nonzero" height="84" id="SVGCleanerId_0" opacity="0.6" width="84"/>
 </defs>
 <g display="inline">
  <path d="M 12,3.96875 C 6.4889098,3.96875 1.96875,8.4889098 1.96875,14 l 0,71 c 0,5.51109 4.5201597,10.03125 10.03125,10.03125 l 72,0 c 5.51109,0 10.03125,-4.52016 10.03125,-10.03125 l 0,-71 C 94.03125,8.4889097 89.51109,3.96875 84,3.96875 l -72,0 z M 12,6 84,6 c 3.324,0 6,2.676 6,6 l 0,72 c 0,3.324 -2.676,6 -6,6 L 12,90 C 8.676,90 6,87.324 6,84 L 6,12 C 6,8.676 8.676,6 12,6 z" fill="url(#linearGradient3780)" fill-opacity="1" fill-rule="nonzero" stroke="none" opacity="0.08" inkscape:connector-curvature="0"/>
  <path d="M 12,4.96875 C 7.0283671,4.96875 2.96875,9.0283671 2.96875,14 l 0,71 c 0,4.971633 4.059617,9.03125 9.03125,9.03125 l 72,0 c 4.971633,0 9.03125,-4.059617 9.03125,-9.03125 l 0,-71 C 93.03125,9.028367 88.971633,4.96875 84,4.96875 l -72,0 z M 12,6 84,6 c 3.324,0 6,2.676 6,6 l 0,72 c 0,3.324 -2.676,6 -6,6 L 12,90 C 8.676,90 6,87.324 6,84 L 6,12 C 6,8.676 8.676,6 12,6 z" fill="url(#linearGradient3780)" fill-opacity="1" fill-rule="nonzero" stroke="none" opacity="0.1" inkscape:connector-curvature="0"/>
  <path d="M 11.1875,6.03125 C 7.159982,6.4419011 4,9.8664375 4,14 l 0,71 c 0,4.409133 3.590867,8 8,8 l 72,0 c 4.409133,0 8,-3.590867 8,-8 L 92,14 C 92,9.8029382 88.741028,6.3539584 84.625,6.03125 87.657886,6.337417 90,8.88375 90,12 l 0,72 c 0,3.324 -2.676,6 -6,6 L 12,90 C 8.676,90 6,87.324 6,84 L 6,12 c 0,-3.11625 2.342114,-5.662583 5.375,-5.96875 -0.06227,0.00488 -0.12563,-0.00631 -0.1875,0 z" fill="url(#linearGradient3780)" fill-opacity="1" fill-rule="nonzero" stroke="none" opacity="0.2" inkscape:connector-curvature="0"/>
  <path d="M 6.4375,9.75 C 5.5380109,10.927446 5,12.397277 5,14 l 0,71 c 0,3.878 3.122,7 7,7 l 72,0 c 3.878,0 7,-3.122 7,-7 L 91,14 C 91,12.397277 90.461989,10.927446 89.5625,9.75 89.841816,10.444095 90,11.203625 90,12 l 0,72 c 0,3.324 -2.676,6 -6,6 L 12,90 C 8.676,90 6,87.324 6,84 L 6,12 C 6,11.203625 6.1581836,10.444095 6.4375,9.75 z" fill="url(#linearGradient3780)" fill-opacity="1" fill-rule="nonzero" stroke="none" opacity="0.3" inkscape:connector-curvature="0"/>
  <path d="m 6,84 0,1 c 0,3.324 2.676,6 6,6 l 72,0 c 3.324,0 6,-2.676 6,-6 l 0,-1 c 0,3.324 -2.676,6 -6,6 L 12,90 C 8.676,90 6,87.324 6,84 z" fill="url(#linearGradient3721)" fill-opacity="1" fill-rule="nonzero" stroke="none" opacity="0.45" inkscape:connector-curvature="0"/>
 </g>
 <g display="inline">
  <use xlink:href="#SVGCleanerId_0"/>
  <path d="M 12,90 C 8.676,90 6,87.324 6,84 L 6,82 6,14 6,12 c 0,-0.334721 0.04135,-0.6507 0.09375,-0.96875 0.0487,-0.295596 0.09704,-0.596915 0.1875,-0.875 C 6.29113,10.12587 6.302142,10.09265 6.3125,10.0625 6.411365,9.774729 6.5473802,9.515048 6.6875,9.25 6.8320918,8.976493 7.0031161,8.714385 7.1875,8.46875 7.3718839,8.223115 7.5612765,7.995278 7.78125,7.78125 8.221197,7.353194 8.72416,6.966724 9.28125,6.6875 9.559795,6.547888 9.8547231,6.440553 10.15625,6.34375 9.9000482,6.443972 9.6695391,6.580022 9.4375,6.71875 c -0.00741,0.0044 -0.023866,-0.0045 -0.03125,0 -0.031933,0.0193 -0.062293,0.04251 -0.09375,0.0625 -0.120395,0.0767 -0.2310226,0.163513 -0.34375,0.25 -0.1061728,0.0808 -0.2132809,0.161112 -0.3125,0.25 C 8.4783201,7.442683 8.3087904,7.626638 8.15625,7.8125 8.0486711,7.942755 7.9378561,8.077785 7.84375,8.21875 7.818661,8.25713 7.805304,8.30462 7.78125,8.34375 7.716487,8.446782 7.6510225,8.548267 7.59375,8.65625 7.4927417,8.850956 7.3880752,9.071951 7.3125,9.28125 7.30454,9.30306 7.288911,9.3218 7.28125,9.34375 7.2494249,9.4357 7.2454455,9.530581 7.21875,9.625 7.1884177,9.731618 7.1483606,9.828031 7.125,9.9375 7.0521214,10.279012 7,10.635705 7,11 l 0,2 0,68 0,2 c 0,2.781848 2.2181517,5 5,5 l 2,0 68,0 2,0 c 2.781848,0 5,-2.218152 5,-5 l 0,-2 0,-68 0,-2 C 89,10.635705 88.94788,10.279012 88.875,9.9375 88.83085,9.730607 88.78662,9.539842 88.71875,9.34375 88.71105,9.3218 88.69545,9.30306 88.6875,9.28125 88.62476,9.107511 88.549117,8.913801 88.46875,8.75 88.42717,8.6672 88.38971,8.580046 88.34375,8.5 88.28915,8.40279 88.216976,8.31165 88.15625,8.21875 88.06214,8.077785 87.951329,7.942755 87.84375,7.8125 87.700576,7.63805 87.540609,7.465502 87.375,7.3125 87.36383,7.3023 87.35502,7.29135 87.34375,7.28125 87.205364,7.155694 87.058659,7.046814 86.90625,6.9375 86.803679,6.86435 86.701932,6.784136 86.59375,6.71875 c -0.0074,-0.0045 -0.02384,0.0044 -0.03125,0 -0.232039,-0.138728 -0.462548,-0.274778 -0.71875,-0.375 0.301527,0.0968 0.596455,0.204138 0.875,0.34375 0.55709,0.279224 1.060053,0.665694 1.5,1.09375 0.219973,0.214028 0.409366,0.441865 0.59375,0.6875 0.184384,0.245635 0.355408,0.507743 0.5,0.78125 0.14012,0.265048 0.276135,0.524729 0.375,0.8125 0.01041,0.03078 0.02133,0.06274 0.03125,0.09375 0.09046,0.278085 0.1388,0.579404 0.1875,0.875 C 89.95865,11.3493 90,11.665279 90,12 l 0,2 0,68 0,2 c 0,3.324 -2.676,6 -6,6 l -72,0 z" fill="url(#radialGradient3619-1)" fill-opacity="1" fill-rule="nonzero" stroke="none" opacity="0.15" inkscape:connector-curvature="0"/>
 </g>
 <g display="inline">
  <path d="m 47.6875,17 c -1.693001,0.544059 -2.292385,2.493177 -3.457128,3.706115 -2.334333,3.196107 -4.85614,6.274995 -7.074122,9.543885 -0.708051,1.506818 0.870079,3.124506 2.418063,2.75 5.98313,-0.04347 11.985449,0.08579 17.956937,-0.0625 1.708331,-0.394384 1.873476,-2.708158 0.628049,-3.735517 C 55.184821,25.306042 52.330326,21.290329 49.28125,17.46875 48.823811,17.097018 48.271492,16.94833 47.6875,17 z M 38.40625,35 C 35.544628,34.916118 33.56891,37.818735 34,40.492376 34.021183,47.451504 33.957862,54.424344 34.03125,61.375 34.289212,62.989303 36.130183,63.166321 37.448169,63 45.088717,62.97893 52.742917,63.041985 60.375,62.96875 61.989303,62.710788 62.166321,60.869817 62,59.551831 61.98473,52.687638 62.030559,45.821879 61.977056,38.958665 61.772817,36.174949 58.887938,34.609799 56.326602,35 50.353152,35 44.379701,35 38.40625,35 z M 29.75,38 c -1.710081,0.581733 -2.955539,2.089094 -4.476694,3.042751 -2.948033,2.277425 -6.03957,4.38932 -8.898306,6.769749 -0.938801,1.263457 0.02084,2.835525 1.275151,3.432926 C 21.53129,54.088263 25.296809,57.11627 29.25,59.84375 30.756818,60.551801 32.374506,58.973671 32,57.425687 31.957041,51.453608 32.085084,45.457152 31.9375,39.5 31.70632,38.529993 30.731078,37.885985 29.75,38 z m 35.96875,0 C 63.924646,38.233531 63.872817,40.259482 64,41.66044 c 0.04366,5.621066 -0.08605,11.261394 0.0625,16.87081 0.394384,1.708331 2.708158,1.873476 3.735517,0.628049 C 71.72255,56.148181 75.789426,53.301188 79.625,50.1875 80.563801,48.924043 79.604161,47.351975 78.349849,46.754574 74.469899,43.91247 70.696408,40.878863 66.75,38.15625 66.425421,37.975463 66.074743,37.995712 65.71875,38 z m -23.625,7 c 3.96875,0 7.9375,0 11.90625,0 0,3.322917 0,6.645833 0,9.96875 -3.96875,0 -7.9375,0 -11.90625,0 0,-3.322917 0,-6.645833 0,-9.96875 z M 38.6875,65 c -1.657532,0.209877 -2.25699,2.448457 -1.032896,3.539724 3.073498,4.010336 5.981404,8.164229 9.157896,12.085276 1.263457,0.938801 2.835525,-0.02084 3.432926,-1.275151 C 53.088263,75.46871 56.11627,71.703191 58.84375,67.75 59.551801,66.243182 57.973671,64.625494 56.425687,65 50.512958,65 44.600229,65 38.6875,65 z" fill="#000000" fill-opacity="1" stroke="none" opacity="0.1" inkscape:connector-curvature="0"/>
  <path d="M 48.03125,17.96875 A 1.0184911,1.0184911 0 0 0 47.1875,18.375 l -9,12 A 1.0184911,1.0184911 0 0 0 39,32.03125 l 18,0 A 1.0184911,1.0184911 0 0 0 57.8125,30.375 l -9,-12 a 1.0184911,1.0184911 0 0 0 -0.78125,-0.40625 z m -9.625,18 c -1.879363,3e-6 -3.4375,1.558137 -3.4375,3.4375 l 0,21.59375 A 1.0184911,1.0184911 0 0 0 36,62.03125 l 24,0 A 1.0184911,1.0184911 0 0 0 61.03125,61 l 0,-21.59375 c 0,-1.879364 -1.558136,-3.4375 -3.4375,-3.4375 l -19.1875,0 z m -8.4375,3 A 1.0184911,1.0184911 0 0 0 29.375,39.1875 l -12,9 a 1.0184911,1.0184911 0 0 0 0,1.625 l 12,9 A 1.0184911,1.0184911 0 0 0 31.03125,58 l 0,-18 a 1.0184911,1.0184911 0 0 0 -1.0625,-1.03125 z m 35.96875,0 A 1.0184911,1.0184911 0 0 0 64.96875,40 l 0,18 a 1.0184911,1.0184911 0 0 0 1.65625,0.8125 l 12,-9 a 1.0184911,1.0184911 0 0 0 0,-1.625 l -12,-9 a 1.0184911,1.0184911 0 0 0 -0.6875,-0.21875 z m -16.9375,1 c -0.0074,0 0.03125,0.03868 0.03125,0.03125 0,-0.0074 -0.03868,0.03125 -0.03125,0.03125 0.0074,0 -0.03125,-0.03868 -0.03125,-0.03125 0,0.0074 0.03868,-0.03125 0.03125,-0.03125 z m 4,0 c -0.0074,0 0.03125,0.03868 0.03125,0.03125 0,-0.0074 -0.03868,0.03125 -0.03125,0.03125 0.0074,0 -0.03125,-0.03868 -0.03125,-0.03125 0,0.0074 0.03868,-0.03125 0.03125,-0.03125 z m 4,0 c -0.0074,0 0.03125,0.03868 0.03125,0.03125 0,-0.0074 -0.03868,0.03125 -0.03125,0.03125 0.0074,0 -0.03125,-0.03868 -0.03125,-0.03125 0,0.0074 0.03868,-0.03125 0.03125,-0.03125 z m -15.875,4.0625 13.84375,0 0,11.90625 -13.84375,0 0,-11.90625 z M 39,65.96875 A 1.0184911,1.0184911 0 0 0 38.1875,67.625 l 9,12 a 1.0184911,1.0184911 0 0 0 1.625,0 l 9,-12 A 1.0184911,1.0184911 0 0 0 57,65.96875 l -18,0 z" fill="#000000" fill-opacity="1" stroke="none" opacity="0.15"/>
  <path d="M 48,19 39,31 57,31 48,19 z M 38.40625,37 C 37.076648,37.000002 36,38.07665 36,39.40625 L 36,61 60,61 60,39.40625 C 60,38.07665 58.92335,37 57.59375,37 l -19.1875,0 z M 49,39 c 0.554,0 1,0.446 1,1 0,0.554 -0.446,1 -1,1 -0.554,0 -1,-0.446 -1,-1 0,-0.554 0.446,-1 1,-1 z m 4,0 c 0.554,0 1,0.446 1,1 0,0.554 -0.446,1 -1,1 -0.554,0 -1,-0.446 -1,-1 0,-0.554 0.446,-1 1,-1 z m 4,0 c 0.554,0 1,0.446 1,1 0,0.554 -0.446,1 -1,1 -0.554,0 -1,-0.446 -1,-1 0,-0.554 0.446,-1 1,-1 z m -27,1 -12,9 12,9 0,-18 z m 36,0 0,18 12,-9 -12,-9 z M 40.09375,43 56,43 l 0,13.96875 -15.90625,0 0,-13.96875 z M 39,67 48,79 57,67 39,67 z" fill="#000000" fill-opacity="1" stroke="none" opacity="0.3" inkscape:connector-curvature="0"/>
  <path d="M 48,18 39,30 57,30 48,18 z M 38.40625,36 C 37.076648,36.000002 36,37.07665 36,38.40625 L 36,60 60,60 60,38.40625 C 60,37.07665 58.92335,36 57.59375,36 l -19.1875,0 z M 49,38 c 0.554,0 1,0.446 1,1 0,0.554 -0.446,1 -1,1 -0.554,0 -1,-0.446 -1,-1 0,-0.554 0.446,-1 1,-1 z m 4,0 c 0.554,0 1,0.446 1,1 0,0.554 -0.446,1 -1,1 -0.554,0 -1,-0.446 -1,-1 0,-0.554 0.446,-1 1,-1 z m 4,0 c 0.554,0 1,0.446 1,1 0,0.554 -0.446,1 -1,1 -0.554,0 -1,-0.446 -1,-1 0,-0.554 0.446,-1 1,-1 z m -27,1 -12,9 12,9 0,-18 z m 36,0 0,18 12,-9 -12,-9 z M 40.09375,42 56,42 l 0,13.96875 -15.90625,0 0,-13.96875 z M 39,66 48,78 57,66 39,66 z" fill="url(#linearGradient3198)" fill-opacity="1" stroke="none" inkscape:connector-curvature="0"/>
  <path d="m -42,18 -9,12 18,0 -9,-12 z m -9.59375,18 C -52.923352,36.000002 -54,37.07665 -54,38.40625 L -54,60 l 24,0 0,-21.59375 C -30,37.07665 -31.07665,36 -32.40625,36 l -19.1875,0 z M -41,38 c 0.554,0 1,0.446 1,1 0,0.554 -0.446,1 -1,1 -0.554,0 -1,-0.446 -1,-1 0,-0.554 0.446,-1 1,-1 z m 4,0 c 0.554,0 1,0.446 1,1 0,0.554 -0.446,1 -1,1 -0.554,0 -1,-0.446 -1,-1 0,-0.554 0.446,-1 1,-1 z m 4,0 c 0.554,0 1,0.446 1,1 0,0.554 -0.446,1 -1,1 -0.554,0 -1,-0.446 -1,-1 0,-0.554 0.446,-1 1,-1 z m -27,1 -12,9 12,9 0,-18 z m 36,0 0,18 12,-9 -12,-9 z M -49.90625,42 -34,42 l 0,13.96875 -15.90625,0 0,-13.96875 z M -51,66 l 9,12 9,-12 -18,0 z" fill="#000000" fill-opacity="1" stroke="none" inkscape:connector-curvature="0"/>
  <path d="M 48,18 39,30 39.75,30 48,19 56.25,30 57,30 48,18 z M 38.40625,36 C 37.076648,36.000002 36,37.07665 36,38.40625 l 0,1 C 36,38.07665 37.076648,37.000002 38.40625,37 l 19.1875,0 C 58.92335,37 60,38.07665 60,39.40625 l 0,-1 C 60,37.07665 58.92335,36 57.59375,36 l -19.1875,0 z M 30,39 18,48 18.65625,48.5 30,40 30,39 z m 36,0 0,1 11.34375,8.5 L 78,48 66,39 z M 48.15625,39.5 C 48.066824,39.649865 48,39.812099 48,40 c 0,0.554 0.446,1 1,1 0.554,0 1,-0.446 1,-1 0,-0.187901 -0.06682,-0.350135 -0.15625,-0.5 C 49.669517,39.791991 49.366099,40 49,40 48.633901,40 48.330483,39.791991 48.15625,39.5 z m 4,0 C 52.066824,39.649865 52,39.812099 52,40 c 0,0.554 0.446,1 1,1 0.554,0 1,-0.446 1,-1 0,-0.187901 -0.06682,-0.350135 -0.15625,-0.5 C 53.669517,39.791991 53.366099,40 53,40 52.633901,40 52.330483,39.791991 52.15625,39.5 z m 4,0 C 56.066824,39.649865 56,39.812099 56,40 c 0,0.554 0.446,1 1,1 0.554,0 1,-0.446 1,-1 0,-0.187901 -0.06682,-0.350135 -0.15625,-0.5 C 57.669517,39.791991 57.366099,40 57,40 56.633901,40 56.330483,39.791991 56.15625,39.5 z m -16.0625,16.46875 0,1 15.90625,0 0,-1 -15.90625,0 z M 39,66 l 0.75,1 16.5,0 0.75,-1 -18,0 z" fill="#ffffff" fill-opacity="1" stroke="none" opacity="0.75" inkscape:connector-curvature="0"/>
  <path d="M 39.75,29 39,30 57,30 56.25,29 39.75,29 z M 49,37 c -0.554,0 -1,0.446 -1,1 0,0.187901 0.06682,0.350135 0.15625,0.5 C 48.330483,38.208009 48.633901,38 49,38 c 0.366099,0 0.669517,0.208009 0.84375,0.5 C 49.933176,38.350135 50,38.187901 50,38 50,37.446 49.554,37 49,37 z m 4,0 c -0.554,0 -1,0.446 -1,1 0,0.187901 0.06682,0.350135 0.15625,0.5 C 52.330483,38.208009 52.633901,38 53,38 c 0.366099,0 0.669517,0.208009 0.84375,0.5 C 53.933176,38.350135 54,38.187901 54,38 54,37.446 53.554,37 53,37 z m 4,0 c -0.554,0 -1,0.446 -1,1 0,0.187901 0.06682,0.350135 0.15625,0.5 C 56.330483,38.208009 56.633901,38 57,38 c 0.366099,0 0.669517,0.208009 0.84375,0.5 C 57.933176,38.350135 58,38.187901 58,38 58,37.446 57.554,37 57,37 z m -16.90625,4 0,1 L 56,42 56,41 40.09375,41 z M 18.65625,47.5 18,48 30,57 30,56 18.65625,47.5 z m 58.6875,0 L 66,56 66,57 78,48 77.34375,47.5 z M 36,59 l 0,1 24,0 0,-1 -24,0 z m 3,7 9,12 9,-12 -0.75,0 L 48,77 39.75,66 39,66 z" fill="#000000" fill-opacity="1" stroke="none" opacity="0.15" inkscape:connector-curvature="0"/>
 </g>
</svg>
