<?xml version="1.0" encoding="UTF-8" standalone="no"?>
<svg
   xmlns:dc="http://purl.org/dc/elements/1.1/"
   xmlns:cc="http://creativecommons.org/ns#"
   xmlns:rdf="http://www.w3.org/1999/02/22-rdf-syntax-ns#"
   xmlns:svg="http://www.w3.org/2000/svg"
   xmlns="http://www.w3.org/2000/svg"
   xmlns:xlink="http://www.w3.org/1999/xlink"
   xmlns:sodipodi="http://sodipodi.sourceforge.net/DTD/sodipodi-0.dtd"
   xmlns:inkscape="http://www.inkscape.org/namespaces/inkscape"
   height="96"
   width="96"
   id="svg2"
   version="1.1"
   inkscape:version="0.91 r13725"
   sodipodi:docname="visualization.svg">
  <metadata
     id="metadata68">
    <rdf:RDF>
      <cc:Work
         rdf:about="">
        <dc:format>image/svg+xml</dc:format>
        <dc:type
           rdf:resource="http://purl.org/dc/dcmitype/StillImage" />
      </cc:Work>
    </rdf:RDF>
  </metadata>
  <sodipodi:namedview
     pagecolor="#ffffff"
     bordercolor="#666666"
     borderopacity="1"
     objecttolerance="10"
     gridtolerance="10"
     guidetolerance="10"
     inkscape:pageopacity="0"
     inkscape:pageshadow="2"
     inkscape:window-width="640"
     inkscape:window-height="480"
     id="namedview66"
     showgrid="false"
     inkscape:zoom="6.9532167"
     inkscape:cx="53.340505"
     inkscape:cy="29.599721"
     inkscape:window-x="70"
     inkscape:window-y="96"
     inkscape:window-maximized="0"
     inkscape:current-layer="svg2" />
  <defs
     id="defs4">
    <linearGradient
       x2="0"
       y1="92.54"
       y2="7.02"
       gradientUnits="userSpaceOnUse"
       id="ButtonShadow-0"
       gradientTransform="matrix(1.0059 0 0 0.99417 100 0)">
      <stop
         stop-color="#000000"
         stop-opacity="1"
         id="stop7" />
      <stop
         stop-color="#000000"
         stop-opacity="0.588"
         offset="1"
         id="stop9" />
    </linearGradient>
    <linearGradient
       x2="0"
       xlink:href="#ButtonShadow-0"
       y1="6.132"
       y2="90.24"
       gradientUnits="userSpaceOnUse"
       id="linearGradient3780"
       gradientTransform="matrix(1.02381 0 0 -1.0119 -1.143 98.07)" />
    <linearGradient
       x2="0"
       xlink:href="#ButtonShadow-0"
       y1="6.132"
       y2="90.24"
       gradientUnits="userSpaceOnUse"
       id="linearGradient3721"
       gradientTransform="matrix(1 0 0 -1 0 97)" />
    <radialGradient
       cy="90.17"
       r="42"
       gradientUnits="userSpaceOnUse"
       id="radialGradient3619-3"
       cx="48"
       gradientTransform="matrix(1.15731 0 0 0.99591 -7.551 0.197)">
      <stop
         stop-color="#ffffff"
         stop-opacity="1"
         id="stop14" />
      <stop
         stop-color="#ffffff"
         stop-opacity="0"
         offset="1"
         id="stop16" />
    </radialGradient>
    <linearGradient
       x2="0"
       y1="2"
       y2="20.03"
       gradientUnits="userSpaceOnUse"
       id="linearGradient3042"
       gradientTransform="matrix(4.1148423,0,0,4.1148423,2.736411,1.465607)">
      <stop
         stop-color="#1a1a1a"
         stop-opacity="1"
         id="stop19" />
      <stop
         stop-color="#4d4d4d"
         stop-opacity="1"
         offset="1"
         id="stop21" />
    </linearGradient>
    <rect
       x="6"
       rx="6"
       y="6"
       fill="#000000"
       fill-opacity="1"
       stroke="none"
       fill-rule="nonzero"
       height="84"
       id="SVGCleanerId_0"
       opacity="0.6"
       width="84" />
  </defs>
  <path
     style="color:#000000;visibility:visible;fill:url(#linearGradient3042);fill-opacity:1;fill-rule:nonzero;stroke:none;stroke-width:0.30000001"
     id="path60"
     inkscape:connector-curvature="0"
     visibility="visible"
     d="m 48,9.4383828 c 0,0 -2.150208,12.9762692 -7.329574,14.6591462 -5.179362,1.68288 -14.530558,-7.458162 -14.530558,-7.458162 0,0 5.772802,11.667797 2.571779,16.073627 -3.201021,4.40583 -16.202214,2.443191 -16.202214,2.443191 0,0 11.701599,6.127106 11.7016,11.573011 0,5.445903 -11.7016,11.573011 -11.7016,11.573011 0,0 13.001193,-1.962639 16.202214,2.443191 3.201023,4.40583 -2.571779,16.073627 -2.571779,16.073627 0,0 9.351196,-9.141043 14.530558,-7.458163 C 45.849787,71.043739 48,84.020009 48,84.020009 c 0,0 2.150209,-12.97627 7.329574,-14.659147 5.179365,-1.68288 14.53056,7.458163 14.53056,7.458163 0,0 -5.772803,-11.667797 -2.571781,-16.073627 3.201024,-4.40583 16.202213,-2.443191 16.202213,-2.443191 0,0 -11.701597,-6.127108 -11.701597,-11.573011 0,-5.445905 11.701597,-11.573011 11.701597,-11.573011 0,0 -13.001189,1.962639 -16.202213,-2.443191 -3.201023,-4.40583 2.571781,-16.073627 2.571781,-16.073627 0,0 -9.351195,9.141042 -14.530559,7.458162 C 50.150209,22.414652 48,9.4383828 48,9.4383828 Z m 0,20.8314202 c 9.090272,0 16.459393,7.369121 16.459393,16.459393 0,9.090272 -7.369121,16.459393 -16.459393,16.459393 -9.090272,0 -16.459393,-7.369121 -16.459393,-16.459393 0,-9.090272 7.369121,-16.459393 16.459393,-16.459393 z" />
  <path
     style="color:#000000;visibility:visible;opacity:0.75;fill:#ffffff;fill-opacity:1;fill-rule:nonzero;stroke:none;stroke-width:0.30000001"
     id="path62"
     inkscape:connector-curvature="0"
     visibility="visible"
     d="m 48,9.4383828 c 0,0 -2.162263,12.9615362 -7.341629,14.6444132 -5.179362,1.68288 -14.527879,-7.458163 -14.527879,-7.458163 0,0 0.411166,0.814515 0.93227,2.058764 2.107288,1.933827 9.183493,8.076012 13.595609,6.642426 C 45.837737,23.642946 48,10.68141 48,10.68141 c 0,0 2.162263,12.961536 7.341629,14.644413 4.412117,1.433586 11.488321,-4.708599 13.595609,-6.642426 0.521104,-1.244249 0.93227,-2.058764 0.93227,-2.058764 0,0 -9.348515,9.141043 -14.527879,7.458163 C 50.162263,22.399919 48,9.4383828 48,9.4383828 Z M 29.66535,29.598729 c -0.06643,1.211919 -0.370923,2.281474 -0.971115,3.107567 -3.201021,4.40583 -16.198197,2.44721 -16.198197,2.44721 0,0 1.097938,0.602015 2.563744,1.514939 3.939823,0.324573 11.318003,0.469202 13.634453,-2.719122 0.800256,-1.101457 1.062172,-2.637169 0.971115,-4.350594 z m 36.6693,0 c -0.09105,1.713425 0.170859,3.249137 0.971114,4.350594 2.316454,3.188324 9.694632,3.043695 13.634454,2.719122 1.465806,-0.912924 2.563743,-1.514939 2.563743,-1.514939 0,0 -12.997173,1.95862 -16.198197,-2.44721 -0.600191,-0.826093 -0.904688,-1.895648 -0.971114,-3.107567 z m -42.185233,17.75198 c -0.835439,5.276388 -11.653379,10.954177 -11.653379,10.954177 0,0 1.059266,-0.147969 2.563744,-0.271913 3.438414,-2.141489 9.167325,-6.242555 9.167325,-10.06075 0,-0.21034 -0.04413,-0.409533 -0.07769,-0.621514 z m 7.419318,0 c -0.0079,0.209623 -0.03884,0.409956 -0.03884,0.621514 0,9.090272 7.379837,16.470109 16.470109,16.470109 9.090272,0 16.470109,-7.379837 16.470109,-16.470109 0,-0.211558 -0.03093,-0.411891 -0.03884,-0.621514 C 64.099231,56.148186 56.878714,63.199305 48,63.199305 c -8.878714,0 -16.099231,-7.051119 -16.431265,-15.848596 z m 40.281847,0 c -0.03356,0.211981 -0.07769,0.411174 -0.07769,0.621514 0,3.818195 5.728911,7.919261 9.167325,10.06075 1.504478,0.123943 2.563743,0.271913 2.563743,0.271913 0,0 -10.81794,-5.677789 -11.653379,-10.954177 z M 29.66535,65.10269 c -0.273169,5.140278 -3.534858,11.731068 -3.534858,11.731068 0,0 0.565822,-0.479453 0.93227,-0.815736 1.107746,-2.64498 2.798347,-7.343799 2.602588,-10.915332 z m 36.6693,0 c -0.19576,3.571533 1.494842,8.270352 2.602588,10.915332 0.366448,0.336283 0.93227,0.815736 0.93227,0.815736 0,0 -3.261688,-6.59079 -3.534858,-11.731068 z" />
  <path
     style="color:#000000;visibility:visible;opacity:0.15;fill:#000000;fill-opacity:1;fill-rule:nonzero;stroke:none;stroke-width:0.30000001"
     id="path64"
     inkscape:connector-curvature="0"
     visibility="visible"
     d="m 26.130492,16.624633 c 0,0 3.261689,6.590791 3.534858,11.731068 0.195759,-3.571532 -1.494842,-8.270351 -2.602588,-10.915331 -0.366448,-0.336284 -0.93227,-0.815737 -0.93227,-0.815737 z m 43.739016,0 c 0,0 -0.565822,0.479453 -0.93227,0.815737 -1.107746,2.64498 -2.798348,7.343799 -2.602588,10.915331 0.273168,-5.140277 3.534858,-11.731068 3.534858,-11.731068 z M 48,29.01606 c -9.090272,0 -16.470109,7.379837 -16.470109,16.470109 0,0.211558 0.03093,0.41189 0.03884,0.621513 C 31.900769,37.310205 39.121286,30.259087 48,30.259087 c 8.878714,0 16.099231,7.051118 16.431264,15.848595 0.0079,-0.209623 0.03884,-0.409955 0.03884,-0.621513 C 64.470109,36.395897 57.090272,29.01606 48,29.01606 Z m -35.503962,6.137446 c 0,0 10.81794,5.677788 11.653379,10.954176 0.03356,-0.211981 0.07769,-0.411173 0.07769,-0.621513 -2e-6,-3.818197 -5.728911,-7.919261 -9.167325,-10.060751 -1.504478,-0.123942 -2.563744,-0.271912 -2.563744,-0.271912 z m 71.007923,0 c 0,0 -1.059265,0.147969 -2.563743,0.271912 -3.438414,2.14149 -9.167325,6.242554 -9.167325,10.060751 0,0.21034 0.04413,0.409532 0.07769,0.621513 0.835439,-5.276388 11.653379,-10.954176 11.653379,-10.954176 z M 19.410376,56.634568 c -1.632908,-0.02687 -3.132923,0.05507 -4.350594,0.155378 -1.465806,0.912924 -2.563744,1.51494 -2.563744,1.51494 0,0 12.997176,-1.958621 16.198197,2.447209 0.600192,0.826094 0.904689,1.895649 0.971115,3.107568 0.09105,-1.713426 -0.170859,-3.249137 -0.971115,-4.350595 -1.60051,-2.202915 -5.633432,-2.814431 -9.283859,-2.8745 z m 57.179247,0 c -3.650425,0.06006 -7.683347,0.671585 -9.283859,2.8745 -0.800255,1.101458 -1.062171,2.637169 -0.971114,4.350595 0.06643,-1.211919 0.370923,-2.281474 0.971114,-3.107568 3.201024,-4.40583 16.198197,-2.447209 16.198197,-2.447209 0,0 -1.097937,-0.602016 -2.563743,-1.51494 -1.217672,-0.100312 -2.717686,-0.182249 -4.350595,-0.155378 z m -38.02886,11.303778 c -4.369201,0.516909 -9.69993,5.186586 -11.498001,6.836649 -0.521104,1.244249 -0.93227,2.058763 -0.93227,2.058763 0,0 9.348517,-9.141042 14.527879,-7.458162 C 45.837732,71.058473 48,84.020009 48,84.020009 c 0,0 2.162264,-12.961536 7.341629,-14.644413 5.179365,-1.68288 14.527879,7.458162 14.527879,7.458162 0,0 -0.411166,-0.814514 -0.93227,-2.058763 C 66.82995,72.841168 59.753747,66.698983 55.341629,68.132569 50.162264,69.815446 48,82.776982 48,82.776982 c 0,0 -2.162268,-12.961536 -7.341629,-14.644413 -0.647421,-0.21036 -1.346231,-0.283117 -2.097608,-0.194223 z" />
</svg>
