<?xml version="1.0" encoding="UTF-8" standalone="no"?>
<svg
   xmlns:dc="http://purl.org/dc/elements/1.1/"
   xmlns:cc="http://creativecommons.org/ns#"
   xmlns:rdf="http://www.w3.org/1999/02/22-rdf-syntax-ns#"
   xmlns:svg="http://www.w3.org/2000/svg"
   xmlns="http://www.w3.org/2000/svg"
   xmlns:xlink="http://www.w3.org/1999/xlink"
   xmlns:sodipodi="http://sodipodi.sourceforge.net/DTD/sodipodi-0.dtd"
   xmlns:inkscape="http://www.inkscape.org/namespaces/inkscape"
   height="96"
   width="96"
   id="svg2"
   version="1.1"
   inkscape:version="0.91 r13725"
   sodipodi:docname="visualization.svg">
  <metadata
     id="metadata68">
    <rdf:RDF>
      <cc:Work
         rdf:about="">
        <dc:format>image/svg+xml</dc:format>
        <dc:type
           rdf:resource="http://purl.org/dc/dcmitype/StillImage" />
      </cc:Work>
    </rdf:RDF>
  </metadata>
  <sodipodi:namedview
     pagecolor="#ffffff"
     bordercolor="#666666"
     borderopacity="1"
     objecttolerance="10"
     gridtolerance="10"
     guidetolerance="10"
     inkscape:pageopacity="0"
     inkscape:pageshadow="2"
     inkscape:window-width="640"
     inkscape:window-height="480"
     id="namedview66"
     showgrid="false"
     inkscape:zoom="2.4583333"
     inkscape:cx="22.98305"
     inkscape:cy="47.999999"
     inkscape:window-x="708"
     inkscape:window-y="91"
     inkscape:window-maximized="0"
     inkscape:current-layer="svg2" />
  <defs
     id="defs4">
    <linearGradient
       x2="0"
       y1="92.54"
       y2="7.02"
       gradientUnits="userSpaceOnUse"
       id="ButtonShadow-0"
       gradientTransform="matrix(1.0059 0 0 0.99417 100 0)">
      <stop
         stop-color="#000000"
         stop-opacity="1"
         id="stop7" />
      <stop
         stop-color="#000000"
         stop-opacity="0.588"
         offset="1"
         id="stop9" />
    </linearGradient>
    <linearGradient
       x2="0"
       xlink:href="#ButtonShadow-0"
       y1="6.132"
       y2="90.24"
       gradientUnits="userSpaceOnUse"
       id="linearGradient3780"
       gradientTransform="matrix(1.02381 0 0 -1.0119 -1.143 98.07)" />
    <linearGradient
       x2="0"
       xlink:href="#ButtonShadow-0"
       y1="6.132"
       y2="90.24"
       gradientUnits="userSpaceOnUse"
       id="linearGradient3721"
       gradientTransform="matrix(1 0 0 -1 0 97)" />
    <radialGradient
       cy="90.17"
       r="42"
       gradientUnits="userSpaceOnUse"
       id="radialGradient3619-3"
       cx="48"
       gradientTransform="matrix(1.15731 0 0 0.99591 -7.551 0.197)">
      <stop
         stop-color="#ffffff"
         stop-opacity="1"
         id="stop14" />
      <stop
         stop-color="#ffffff"
         stop-opacity="0"
         offset="1"
         id="stop16" />
    </radialGradient>
    <linearGradient
       x2="0"
       y1="2"
       y2="20.03"
       gradientUnits="userSpaceOnUse"
       id="linearGradient3042"
       gradientTransform="matrix(3.31034,0,0,3.31034,11.586,11.586)">
      <stop
         stop-color="#1a1a1a"
         stop-opacity="1"
         id="stop19" />
      <stop
         stop-color="#4d4d4d"
         stop-opacity="1"
         offset="1"
         id="stop21" />
    </linearGradient>
    <rect
       x="6"
       rx="6"
       y="6"
       fill="#000000"
       fill-opacity="1"
       stroke="none"
       fill-rule="nonzero"
       height="84"
       id="SVGCleanerId_0"
       opacity="0.6"
       width="84" />
  </defs>
  <g
     id="g3414"
     transform="matrix(1.2430271,0,0,1.2430271,-11.665301,-12.936105)">
    <path
       d="m 47.71875,16.84375 c -2.004643,0.264776 -1.966343,2.650132 -2.33385,4.145047 -0.813897,2.739276 -1.495384,5.977563 -3.9474,7.729953 -3.269883,0.03566 -5.888583,-2.462303 -8.314749,-4.375666 C 32.170321,23.186742 30.411699,21.857392 29,23.125 c -1.48072,1.186498 -0.353049,3.101542 0.279466,4.406828 0.979544,2.815603 2.45514,5.944738 1.470534,8.936922 -2.672052,1.943236 -6.291232,1.414744 -9.410563,1.282695 C 19.918477,37.391355 17.864614,37.27051 17.3125,39 c -0.509051,1.477559 0.789758,2.678492 2.070194,3.122001 C 22.180802,43.906482 25.581193,45.707734 26.75,49 c -1.168808,3.292266 -4.569198,5.093519 -7.367307,6.877997 -1.445561,0.434138 -2.759241,1.983221 -1.913943,3.497003 1.218138,1.981168 3.701249,0.619921 5.515656,0.753258 2.600968,0.141545 6.688878,-0.620701 8.021924,2.153186 0.417441,3.765501 -1.467259,7.283353 -2.75633,10.687306 -0.333956,1.9845 2.405256,3.273231 3.71875,1.75 2.646552,-2.326151 5.502212,-5.092176 9.157641,-5.483023 2.668434,1.269998 3.280344,4.753658 4.150568,7.34472 0.568011,1.554119 0.206233,4.186597 2.348041,4.575803 1.647626,0.34561 2.708688,-1.339936 2.678721,-2.801394 0.836155,-3.191582 1.484394,-6.974524 4.258779,-9.073606 3.269883,-0.03566 5.888583,2.462303 8.314749,4.375666 C 63.829679,74.813258 65.588301,76.142608 67,74.875 68.48072,73.688502 67.353049,71.773458 66.720534,70.468172 65.74099,67.652569 64.265394,64.523434 65.25,61.53125 67.922052,59.588014 71.541232,60.116506 74.660563,60.248555 76.081523,60.608645 78.135386,60.72949 78.6875,59 79.196551,57.522441 77.897742,56.321508 76.617306,55.877999 73.819198,54.093518 70.418807,52.292266 69.25,49 70.418808,45.707734 73.819198,43.906481 76.617307,42.122003 78.062868,41.687865 79.376548,40.138782 78.53125,38.625 77.313112,36.643832 74.830001,38.005079 73.015594,37.871742 70.414626,37.730197 66.326716,38.492444 64.99367,35.718556 64.576229,31.953055 66.460929,28.435203 67.75,25.03125 c 0.333956,-1.9845 -2.405256,-3.273231 -3.71875,-1.75 -2.646552,2.326151 -5.502212,5.092175 -9.15764,5.483023 -2.673004,-1.27441 -3.286112,-4.766403 -4.153809,-7.364252 -0.542292,-1.567941 -0.23597,-4.258478 -2.438551,-4.556271 -0.18743,0.0026 -0.375188,-0.003 -0.5625,0 z M 48,37.875 c 6.583309,-0.218855 12.210014,6.348803 10.997031,12.821313 -0.789344,6.523444 -8.101764,11.076242 -14.308617,8.929303 C 38.36728,57.873976 34.949494,49.990739 37.970506,44.172918 39.754109,40.376668 43.801867,37.825041 48,37.875 Z"
       visibility="visible"
       inkscape:connector-curvature="0"
       id="path42"
       style="color:black;visibility:visible;opacity:0.1;fill:black;fill-opacity:1;fill-rule:nonzero;stroke:none;stroke-width:0.30000001" />
    <path
       d="M 47.8125,18 A 1.0064727,1.0064727 0 0 0 47,18.84375 c 0,0 -0.420565,2.537175 -1.34375,5.21875 -0.461593,1.340788 -1.037671,2.687997 -1.71875,3.75 -0.681079,1.062003 -1.456076,1.7725 -2.15625,2 -0.702413,0.228228 -1.732434,0.109984 -2.90625,-0.34375 -1.173816,-0.453734 -2.465575,-1.193951 -3.625,-2 C 32.931149,25.856652 31.125,24.0625 31.125,24.0625 A 1.0064727,1.0064727 0 0 0 29.5,25.21875 c 0,0 1.1288,2.304742 1.9375,5 0.40435,1.347629 0.715211,2.777663 0.78125,4.03125 0.06604,1.253587 -0.127374,2.276101 -0.5625,2.875 -0.4326,0.595423 -1.341973,1.118623 -2.5625,1.4375 -1.220527,0.318877 -2.707029,0.44502 -4.125,0.46875 -2.835941,0.04746 -5.375,-0.34375 -5.375,-0.34375 a 1.0064727,1.0064727 0 0 0 -0.625,1.90625 c 0,0 2.313577,1.185539 4.59375,2.90625 1.140087,0.860355 2.257211,1.862208 3.0625,2.84375 0.805289,0.981542 1.25,1.922265 1.25,2.65625 0,0.733985 -0.444711,1.674708 -1.25,2.65625 -0.805289,0.981542 -1.922413,1.983395 -3.0625,2.84375 -2.280173,1.720711 -4.59375,2.90625 -4.59375,2.90625 a 1.0064727,1.0064727 0 0 0 0.625,1.90625 c 0,0 2.539059,-0.39121 5.375,-0.34375 1.417971,0.02373 2.904473,0.149873 4.125,0.46875 1.220527,0.318877 2.1299,0.842077 2.5625,1.4375 0.435126,0.598899 0.628539,1.621413 0.5625,2.875 -0.06604,1.253587 -0.3769,2.683621 -0.78125,4.03125 -0.8087,2.695258 -1.9375,5 -1.9375,5 a 1.0064727,1.0064727 0 0 0 1.625,1.15625 c 0,0 1.806149,-1.794152 4.125,-3.40625 1.159425,-0.806049 2.451184,-1.546266 3.625,-2 1.173816,-0.453734 2.203837,-0.571978 2.90625,-0.34375 0.700172,0.2275 1.475172,0.937997 2.15625,2 0.681078,1.062003 1.257157,2.409212 1.71875,3.75 C 46.579436,76.619076 47,79.15625 47,79.15625 a 1.0064727,1.0064727 0 0 0 2,0 c 0,0 0.420565,-2.537175 1.34375,-5.21875 0.461593,-1.340788 1.037671,-2.687997 1.71875,-3.75 0.681079,-1.062003 1.456077,-1.7725 2.15625,-2 0.702414,-0.228228 1.732434,-0.109984 2.90625,0.34375 1.173816,0.453734 2.465575,1.193951 3.625,2 2.318851,1.612098 4.125,3.40625 4.125,3.40625 A 1.0064727,1.0064727 0 0 0 66.5,72.78125 c 0,0 -1.1288,-2.304742 -1.9375,-5 -0.40435,-1.347629 -0.715211,-2.777663 -0.78125,-4.03125 -0.06604,-1.253587 0.127374,-2.276101 0.5625,-2.875 0.4326,-0.595423 1.341972,-1.118623 2.5625,-1.4375 1.220528,-0.318877 2.70703,-0.44502 4.125,-0.46875 2.835941,-0.04746 5.375,0.34375 5.375,0.34375 a 1.0064727,1.0064727 0 0 0 0.625,-1.90625 c 0,0 -2.313577,-1.185539 -4.59375,-2.90625 C 71.297413,53.639645 70.180289,52.637792 69.375,51.65625 68.569711,50.674708 68.125,49.733985 68.125,49 c 0,-0.733985 0.444711,-1.674708 1.25,-2.65625 0.805289,-0.981542 1.922413,-1.983395 3.0625,-2.84375 2.280173,-1.720711 4.59375,-2.90625 4.59375,-2.90625 a 1.0064727,1.0064727 0 0 0 -0.625,-1.90625 c 0,0 -2.539059,0.39121 -5.375,0.34375 -1.41797,-0.02373 -2.904472,-0.149873 -4.125,-0.46875 -1.220528,-0.318877 -2.1299,-0.842077 -2.5625,-1.4375 -0.435126,-0.598899 -0.628539,-1.621413 -0.5625,-2.875 0.06604,-1.253587 0.3769,-2.683621 0.78125,-4.03125 0.8087,-2.695258 1.9375,-5 1.9375,-5 A 1.0064727,1.0064727 0 0 0 64.875,24.0625 c 0,0 -1.806149,1.794152 -4.125,3.40625 -1.159425,0.806049 -2.451184,1.546266 -3.625,2 -1.173816,0.453734 -2.203836,0.571978 -2.90625,0.34375 -0.700174,-0.2275 -1.475171,-0.937997 -2.15625,-2 -0.681079,-1.062003 -1.257157,-2.409212 -1.71875,-3.75 C 49.420565,21.380925 49,18.84375 49,18.84375 A 1.0064727,1.0064727 0 0 0 47.8125,18 Z M 48,36.75 c 6.768337,0 12.25,5.481663 12.25,12.25 0,6.768337 -5.481663,12.25 -12.25,12.25 -6.768337,0 -12.25,-5.481663 -12.25,-12.25 0,-6.768337 5.481663,-12.25 12.25,-12.25 z"
       visibility="visible"
       inkscape:connector-curvature="0"
       id="path44"
       style="color:black;visibility:visible;opacity:0.15;fill:black;fill-opacity:1;fill-rule:nonzero;stroke:none;stroke-width:0.30000001" />
    <path
       d="m 48,19 c 0,0 -1.729816,10.439249 -5.896552,11.793103 -4.166733,1.353856 -11.689655,-6 -11.689655,-6 0,0 4.644148,9.386599 2.068965,12.931035 -2.575182,3.544436 -13.034482,1.965517 -13.034482,1.965517 0,0 9.413792,4.929182 9.413793,9.310345 0,4.381162 -9.413793,9.310345 -9.413793,9.310345 0,0 10.4593,-1.578919 13.034482,1.965517 2.575183,3.544436 -2.068965,12.931035 -2.068965,12.931035 0,0 7.522922,-7.353856 11.689655,-6 C 46.27018,68.560751 48,79 48,79 c 0,0 1.729817,-10.439249 5.896552,-11.793103 4.166736,-1.353856 11.689657,6 11.689657,6 0,0 -4.644149,-9.386599 -2.068966,-12.931035 2.575184,-3.544436 13.034481,-1.965517 13.034481,-1.965517 0,0 -9.413791,-4.929183 -9.413791,-9.310345 0,-4.381163 9.413791,-9.310345 9.413791,-9.310345 0,0 -10.459297,1.578919 -13.034481,-1.965517 -2.575184,-3.544436 2.068966,-12.931035 2.068966,-12.931035 0,0 -7.522921,7.353856 -11.689656,6 C 49.729817,29.439249 48,19 48,19 Z m 0,16.758621 c 7.313012,0 13.241379,5.928367 13.241379,13.241379 0,7.313012 -5.928367,13.241379 -13.241379,13.241379 -7.313012,0 -13.241379,-5.928367 -13.241379,-13.241379 0,-7.313012 5.928367,-13.241379 13.241379,-13.241379 z"
       visibility="visible"
       inkscape:connector-curvature="0"
       id="path46"
       style="color:black;visibility:visible;opacity:0.3;fill:black;fill-opacity:1;fill-rule:nonzero;stroke:none;stroke-width:0.30000001" />
    <path
       d="m 48,18 c 0,0 -1.729816,10.439249 -5.896552,11.793103 -4.166733,1.353856 -11.689655,-6 -11.689655,-6 0,0 4.644148,9.386599 2.068965,12.931035 -2.575182,3.544436 -13.034482,1.965517 -13.034482,1.965517 0,0 9.413792,4.929182 9.413793,9.310345 0,4.381162 -9.413793,9.310345 -9.413793,9.310345 0,0 10.4593,-1.578919 13.034482,1.965517 2.575183,3.544436 -2.068965,12.931035 -2.068965,12.931035 0,0 7.522922,-7.353856 11.689655,-6 C 46.27018,67.560751 48,78 48,78 c 0,0 1.729817,-10.439249 5.896552,-11.793103 4.166736,-1.353856 11.689657,6 11.689657,6 0,0 -4.644149,-9.386599 -2.068966,-12.931035 2.575184,-3.544436 13.034481,-1.965517 13.034481,-1.965517 0,0 -9.413791,-4.929183 -9.413791,-9.310345 0,-4.381163 9.413791,-9.310345 9.413791,-9.310345 0,0 -10.459297,1.578919 -13.034481,-1.965517 -2.575184,-3.544436 2.068966,-12.931035 2.068966,-12.931035 0,0 -7.522921,7.353856 -11.689656,6 C 49.729817,28.439249 48,18 48,18 Z m 0,16.758621 c 7.313012,0 13.241379,5.928367 13.241379,13.241379 0,7.313012 -5.928367,13.241379 -13.241379,13.241379 -7.313012,0 -13.241379,-5.928367 -13.241379,-13.241379 0,-7.313012 5.928367,-13.241379 13.241379,-13.241379 z"
       visibility="visible"
       inkscape:connector-curvature="0"
       id="path60"
       style="color:black;visibility:visible;fill:url(#linearGradient3042);fill-opacity:1;fill-rule:nonzero;stroke:none;stroke-width:0.30000001" />
    <path
       d="m 48,18 c 0,0 -1.739514,10.427396 -5.90625,11.78125 -4.166733,1.353856 -11.6875,-6 -11.6875,-6 0,0 0.330778,0.655267 0.75,1.65625 1.695287,1.55574 7.388007,6.497052 10.9375,5.34375 C 46.260486,29.427396 48,19 48,19 c 0,0 1.739514,10.427396 5.90625,11.78125 3.549494,1.153302 9.242213,-3.78801 10.9375,-5.34375 0.419222,-1.000983 0.75,-1.65625 0.75,-1.65625 0,0 -7.520765,7.353856 -11.6875,6 C 49.739514,28.427396 48,18 48,18 Z M 33.25,34.21875 c -0.05344,0.974974 -0.298403,1.835418 -0.78125,2.5 -2.575182,3.544436 -13.03125,1.96875 -13.03125,1.96875 0,0 0.883277,0.484314 2.0625,1.21875 3.169539,0.261115 9.105194,0.377467 10.96875,-2.1875 0.643796,-0.886109 0.854504,-2.12157 0.78125,-3.5 z m 29.5,0 c -0.07325,1.37843 0.137454,2.613891 0.78125,3.5 1.863558,2.564967 7.799212,2.448615 10.96875,2.1875 1.179223,-0.734436 2.0625,-1.21875 2.0625,-1.21875 0,0 -10.456066,1.575686 -13.03125,-1.96875 -0.482847,-0.664582 -0.727811,-1.525026 -0.78125,-2.5 z M 28.8125,48.5 c -0.672101,4.244789 -9.375,8.8125 -9.375,8.8125 0,0 0.852166,-0.119039 2.0625,-0.21875 2.766162,-1.722802 7.375,-5.022059 7.375,-8.09375 0,-0.169216 -0.0355,-0.329464 -0.0625,-0.5 z m 5.96875,0 C 34.774885,48.668639 34.75,48.829804 34.75,49 c 0,7.313012 5.936988,13.25 13.25,13.25 7.313012,0 13.25,-5.936988 13.25,-13.25 0,-0.170196 -0.02488,-0.331361 -0.03125,-0.5 C 60.951633,55.577462 55.142816,61.25 48,61.25 40.857184,61.25 35.048367,55.577462 34.78125,48.5 Z m 32.40625,0 c -0.027,0.170536 -0.0625,0.330784 -0.0625,0.5 0,3.071691 4.608838,6.370948 7.375,8.09375 1.210334,0.09971 2.0625,0.21875 2.0625,0.21875 0,0 -8.7029,-4.567711 -9.375,-8.8125 z M 33.25,62.78125 c -0.219761,4.13529 -2.84375,9.4375 -2.84375,9.4375 0,0 0.455197,-0.385714 0.75,-0.65625 0.891168,-2.127854 2.251236,-5.907996 2.09375,-8.78125 z m 29.5,0 c -0.157486,2.873254 1.202582,6.653396 2.09375,8.78125 0.294803,0.270536 0.75,0.65625 0.75,0.65625 0,0 -2.623988,-5.30221 -2.84375,-9.4375 z"
       visibility="visible"
       inkscape:connector-curvature="0"
       id="path62"
       style="color:black;visibility:visible;opacity:0.75;fill:white;fill-opacity:1;fill-rule:nonzero;stroke:none;stroke-width:0.30000001" />
    <path
       d="m 30.40625,23.78125 c 0,0 2.623989,5.30221 2.84375,9.4375 0.157486,-2.873254 -1.202582,-6.653396 -2.09375,-8.78125 -0.294803,-0.270536 -0.75,-0.65625 -0.75,-0.65625 z m 35.1875,0 c 0,0 -0.455197,0.385714 -0.75,0.65625 -0.891168,2.127854 -2.251236,5.907996 -2.09375,8.78125 0.219761,-4.13529 2.84375,-9.4375 2.84375,-9.4375 z M 48,33.75 c -7.313012,0 -13.25,5.936988 -13.25,13.25 0,0.170196 0.02488,0.331361 0.03125,0.5 C 35.048367,40.422538 40.857184,34.75 48,34.75 c 7.142816,0 12.951633,5.672538 13.21875,12.75 C 61.225115,47.331361 61.25,47.170196 61.25,47 61.25,39.686988 55.313012,33.75 48,33.75 Z m -28.5625,4.9375 c 0,0 8.702899,4.567711 9.375,8.8125 0.027,-0.170536 0.0625,-0.330784 0.0625,-0.5 -1e-6,-3.071692 -4.608838,-6.370948 -7.375,-8.09375 -1.210334,-0.09971 -2.0625,-0.21875 -2.0625,-0.21875 z m 57.125,0 c 0,0 -0.852166,0.119039 -2.0625,0.21875 -2.766162,1.722802 -7.375,5.022058 -7.375,8.09375 0,0.169216 0.0355,0.329464 0.0625,0.5 0.6721,-4.244789 9.375,-8.8125 9.375,-8.8125 z M 25,55.96875 c -1.313655,-0.02162 -2.520398,0.0443 -3.5,0.125 -1.179223,0.734436 -2.0625,1.21875 -2.0625,1.21875 0,0 10.456068,-1.575686 13.03125,1.96875 0.482847,0.664582 0.727811,1.525026 0.78125,2.5 0.07325,-1.37843 -0.137454,-2.613891 -0.78125,-3.5 C 31.181159,56.509032 27.936723,56.017075 25,55.96875 Z m 46,0 c -2.936722,0.04832 -6.181158,0.540282 -7.46875,2.3125 -0.643796,0.886109 -0.854504,2.12157 -0.78125,3.5 0.05344,-0.974974 0.298403,-1.835418 0.78125,-2.5 2.575184,-3.544436 13.03125,-1.96875 13.03125,-1.96875 0,0 -0.883277,-0.484314 -2.0625,-1.21875 -0.979602,-0.0807 -2.186345,-0.146617 -3.5,-0.125 z M 40.40625,65.0625 c -3.514968,0.415847 -7.803474,4.172545 -9.25,5.5 -0.419222,1.000983 -0.75,1.65625 -0.75,1.65625 0,0 7.520767,-7.353856 11.6875,-6 C 46.260482,67.572604 48,78 48,78 c 0,0 1.739515,-10.427396 5.90625,-11.78125 4.166736,-1.353856 11.6875,6 11.6875,6 0,0 -0.330778,-0.655267 -0.75,-1.65625 C 63.148463,69.00676 57.455745,64.065448 53.90625,65.21875 49.739515,66.572604 48,77 48,77 48,77 46.260482,66.572604 42.09375,65.21875 41.572908,65.049518 41.010724,64.990986 40.40625,65.0625 Z"
       visibility="visible"
       inkscape:connector-curvature="0"
       id="path64"
       style="color:black;visibility:visible;opacity:0.15;fill:black;fill-opacity:1;fill-rule:nonzero;stroke:none;stroke-width:0.30000001" />
  </g>
</svg>
