<svg height="96" width="96" xmlns="http://www.w3.org/2000/svg" xmlns:xlink="http://www.w3.org/1999/xlink" xmlns:sodipodi="http://sodipodi.sourceforge.net/DTD/sodipodi-0.dtd" xmlns:inkscape="http://www.inkscape.org/namespaces/inkscape">
 <defs>
  <linearGradient x2="0" y1="92.54" y2="7.02" gradientUnits="userSpaceOnUse" id="ButtonShadow-0" gradientTransform="matrix(1.0059 0 0 0.99417 100 0)">
   <stop stop-color="#000000" stop-opacity="1"/>
   <stop stop-color="#000000" stop-opacity="0.588" offset="1"/>
  </linearGradient>
  <linearGradient x2="0" xlink:href="#ButtonShadow-0" y1="6.132" y2="90.24" gradientUnits="userSpaceOnUse" id="linearGradient3780" gradientTransform="matrix(1.02381 0 0 -1.0119 -1.143 98.07)"/>
  <linearGradient x2="0" xlink:href="#ButtonShadow-0" y1="6.132" y2="90.24" gradientUnits="userSpaceOnUse" id="linearGradient3721" gradientTransform="matrix(1 0 0 -1 0 97)"/>
  <radialGradient cy="90.17" r="42" gradientUnits="userSpaceOnUse" id="radialGradient3619-3" cx="48" gradientTransform="matrix(1.15731 0 0 0.99591 -7.551 0.197)">
   <stop stop-color="#ffffff" stop-opacity="1"/>
   <stop stop-color="#ffffff" stop-opacity="0" offset="1"/>
  </radialGradient>
  <linearGradient x2="0" y1="5.21" y2="24.723" gradientUnits="userSpaceOnUse" id="linearGradient3032" gradientTransform="matrix(3.22958 0 0 2.76821 -47.02 9.569)">
   <stop stop-color="#f0f0f0" stop-opacity="1"/>
   <stop stop-color="#aaaaaa" stop-opacity="1" offset="1"/>
  </linearGradient>
  <rect x="6" rx="6" y="6" fill="#000000" fill-opacity="1" stroke="none" fill-rule="nonzero" height="84" id="SVGCleanerId_0" opacity="0.6" width="84"/>
 </defs>
 <path d="M 12,3.96875 C 6.4889098,3.96875 1.96875,8.4889098 1.96875,14 l 0,71 c 0,5.51109 4.5201597,10.03125 10.03125,10.03125 l 72,0 c 5.51109,0 10.03125,-4.52016 10.03125,-10.03125 l 0,-71 C 94.03125,8.4889097 89.51109,3.96875 84,3.96875 l -72,0 z M 12,6 84,6 c 3.324,0 6,2.676 6,6 l 0,72 c 0,3.324 -2.676,6 -6,6 L 12,90 C 8.676,90 6,87.324 6,84 L 6,12 C 6,8.676 8.676,6 12,6 z" display="inline" fill="url(#linearGradient3780)" fill-opacity="1" fill-rule="nonzero" stroke="none" opacity="0.08" inkscape:connector-curvature="0"/>
 <path d="M 12,4.96875 C 7.0283671,4.96875 2.96875,9.0283671 2.96875,14 l 0,71 c 0,4.971633 4.059617,9.03125 9.03125,9.03125 l 72,0 c 4.971633,0 9.03125,-4.059617 9.03125,-9.03125 l 0,-71 C 93.03125,9.028367 88.971633,4.96875 84,4.96875 l -72,0 z M 12,6 84,6 c 3.324,0 6,2.676 6,6 l 0,72 c 0,3.324 -2.676,6 -6,6 L 12,90 C 8.676,90 6,87.324 6,84 L 6,12 C 6,8.676 8.676,6 12,6 z" display="inline" fill="url(#linearGradient3780)" fill-opacity="1" fill-rule="nonzero" stroke="none" opacity="0.1" inkscape:connector-curvature="0"/>
 <path d="M 11.1875,6.03125 C 7.159982,6.4419011 4,9.8664375 4,14 l 0,71 c 0,4.409133 3.590867,8 8,8 l 72,0 c 4.409133,0 8,-3.590867 8,-8 L 92,14 C 92,9.8029382 88.741028,6.3539584 84.625,6.03125 87.657886,6.337417 90,8.88375 90,12 l 0,72 c 0,3.324 -2.676,6 -6,6 L 12,90 C 8.676,90 6,87.324 6,84 L 6,12 c 0,-3.11625 2.342114,-5.662583 5.375,-5.96875 -0.06227,0.00488 -0.12563,-0.00631 -0.1875,0 z" display="inline" fill="url(#linearGradient3780)" fill-opacity="1" fill-rule="nonzero" stroke="none" opacity="0.2" inkscape:connector-curvature="0"/>
 <path d="M 6.4375,9.75 C 5.5380109,10.927446 5,12.397277 5,14 l 0,71 c 0,3.878 3.122,7 7,7 l 72,0 c 3.878,0 7,-3.122 7,-7 L 91,14 C 91,12.397277 90.461989,10.927446 89.5625,9.75 89.841816,10.444095 90,11.203625 90,12 l 0,72 c 0,3.324 -2.676,6 -6,6 L 12,90 C 8.676,90 6,87.324 6,84 L 6,12 C 6,11.203625 6.1581836,10.444095 6.4375,9.75 z" display="inline" fill="url(#linearGradient3780)" fill-opacity="1" fill-rule="nonzero" stroke="none" opacity="0.3" inkscape:connector-curvature="0"/>
 <path d="m 6,84 0,1 c 0,3.324 2.676,6 6,6 l 72,0 c 3.324,0 6,-2.676 6,-6 l 0,-1 c 0,3.324 -2.676,6 -6,6 L 12,90 C 8.676,90 6,87.324 6,84 z" display="inline" fill="url(#linearGradient3721)" fill-opacity="1" fill-rule="nonzero" stroke="none" opacity="0.45" inkscape:connector-curvature="0"/>
 <g display="inline">
  <use xlink:href="#SVGCleanerId_0"/>
  <path d="M 12,90 C 8.676,90 6,87.324 6,84 L 6,82 6,14 6,12 c 0,-0.334721 0.04135,-0.6507 0.09375,-0.96875 0.0487,-0.295596 0.09704,-0.596915 0.1875,-0.875 C 6.29113,10.12587 6.302142,10.09265 6.3125,10.0625 6.411365,9.774729 6.5473802,9.515048 6.6875,9.25 6.8320918,8.976493 7.0031161,8.714385 7.1875,8.46875 7.3718839,8.223115 7.5612765,7.995278 7.78125,7.78125 8.221197,7.353194 8.72416,6.966724 9.28125,6.6875 9.559795,6.547888 9.8547231,6.440553 10.15625,6.34375 9.9000482,6.443972 9.6695391,6.580022 9.4375,6.71875 c -0.00741,0.0044 -0.023866,-0.0045 -0.03125,0 -0.031933,0.0193 -0.062293,0.04251 -0.09375,0.0625 -0.120395,0.0767 -0.2310226,0.163513 -0.34375,0.25 -0.1061728,0.0808 -0.2132809,0.161112 -0.3125,0.25 C 8.4783201,7.442683 8.3087904,7.626638 8.15625,7.8125 8.0486711,7.942755 7.9378561,8.077785 7.84375,8.21875 7.818661,8.25713 7.805304,8.30462 7.78125,8.34375 7.716487,8.446782 7.6510225,8.548267 7.59375,8.65625 7.4927417,8.850956 7.3880752,9.071951 7.3125,9.28125 7.30454,9.30306 7.288911,9.3218 7.28125,9.34375 7.2494249,9.4357 7.2454455,9.530581 7.21875,9.625 7.1884177,9.731618 7.1483606,9.828031 7.125,9.9375 7.0521214,10.279012 7,10.635705 7,11 l 0,2 0,68 0,2 c 0,2.781848 2.2181517,5 5,5 l 2,0 68,0 2,0 c 2.781848,0 5,-2.218152 5,-5 l 0,-2 0,-68 0,-2 C 89,10.635705 88.94788,10.279012 88.875,9.9375 88.83085,9.730607 88.78662,9.539842 88.71875,9.34375 88.71105,9.3218 88.69545,9.30306 88.6875,9.28125 88.62476,9.107511 88.549117,8.913801 88.46875,8.75 88.42717,8.6672 88.38971,8.580046 88.34375,8.5 88.28915,8.40279 88.216976,8.31165 88.15625,8.21875 88.06214,8.077785 87.951329,7.942755 87.84375,7.8125 87.700576,7.63805 87.540609,7.465502 87.375,7.3125 87.36383,7.3023 87.35502,7.29135 87.34375,7.28125 87.205364,7.155694 87.058659,7.046814 86.90625,6.9375 86.803679,6.86435 86.701932,6.784136 86.59375,6.71875 c -0.0074,-0.0045 -0.02384,0.0044 -0.03125,0 -0.232039,-0.138728 -0.462548,-0.274778 -0.71875,-0.375 0.301527,0.0968 0.596455,0.204138 0.875,0.34375 0.55709,0.279224 1.060053,0.665694 1.5,1.09375 0.219973,0.214028 0.409366,0.441865 0.59375,0.6875 0.184384,0.245635 0.355408,0.507743 0.5,0.78125 0.14012,0.265048 0.276135,0.524729 0.375,0.8125 0.01041,0.03078 0.02133,0.06274 0.03125,0.09375 0.09046,0.278085 0.1388,0.579404 0.1875,0.875 C 89.95865,11.3493 90,11.665279 90,12 l 0,2 0,68 0,2 c 0,3.324 -2.676,6 -6,6 l -72,0 z" fill="url(#radialGradient3619-3)" fill-opacity="1" fill-rule="nonzero" stroke="none" opacity="0.15" inkscape:connector-curvature="0"/>
 </g>
 <g display="inline">
  <path d="M 25,22.96875 C 21.87738,22.8747 19.535137,25.981822 19.96875,28.959937 19.98966,39.451166 19.92698,49.952686 20,60.4375 c 0.346404,0.881292 -0.245583,1.856091 -0.03125,2.842416 0.06846,2.432324 -0.133438,4.905219 0.09375,7.313834 0.370457,1.410895 1.997353,1.584271 3.217416,1.4375 1.562944,0 3.125889,0 4.688834,0 0.0676,2.181993 -0.132303,4.404181 0.09375,6.5625 0.370457,1.410895 1.997353,1.584271 3.217416,1.4375 2.432324,-0.06847 4.905219,0.133438 7.313834,-0.09375 1.410895,-0.370457 1.584271,-1.997353 1.4375,-3.217416 0,-1.562944 0,-3.125889 0,-4.688834 2.222798,-0.08131 4.497562,0.164223 6.6875,-0.125 0.872286,-0.0147 1.907195,0.236871 2.881145,0.125 7.30384,-0.01721 14.609439,0.03456 21.91217,-0.02613 3.009259,-0.220594 4.920482,-3.287859 4.519185,-6.125043 -0.01735,-12.797159 0.03475,-25.59609 -0.02613,-38.392139 -0.220594,-3.009259 -3.287859,-4.920482 -6.125043,-4.519185 -14.960025,0 -29.920049,0 -44.880074,0 z m 5.03125,16.0625 c 11.979167,0 23.958333,0 35.9375,0 0,7.645833 0,15.291667 0,22.9375 -5.979167,0 -11.958333,0 -17.9375,0 0.02109,-1.442401 -1.528853,-2.273935 -2.831197,-2 -1.722935,0 -3.445869,0 -5.168803,0 -0.0676,-2.181993 0.132303,-4.404181 -0.09375,-6.5625 -0.370457,-1.410895 -1.997353,-1.584271 -3.217416,-1.4375 -2.229611,0 -4.459223,0 -6.688834,0 0,-4.3125 0,-8.625 0,-12.9375 z" fill="#000000" fill-opacity="1" stroke="none" opacity="0.1" inkscape:connector-curvature="0"/>
  <path d="m 25,23.90625 c -2.250767,0 -4.09375,1.842983 -4.09375,4.09375 l 0,32 a 1.0971178,1.0971178 0 0 0 0.65625,1 1.0971178,1.0971178 0 0 0 -0.65625,1 l 0,8 A 1.0971178,1.0971178 0 0 0 22,71.09375 l 6.90625,0 0,6.90625 A 1.0971178,1.0971178 0 0 0 30,79.09375 l 8,0 A 1.0971178,1.0971178 0 0 0 39.09375,78 l 0,-6.90625 6.90625,0 a 1.0971178,1.0971178 0 0 0 1,-0.65625 1.0971178,1.0971178 0 0 0 1,0.65625 l 23,0 c 2.250767,0 4.09375,-1.842983 4.09375,-4.09375 l 0,-39 c 0,-2.250767 -1.842983,-4.09375 -4.09375,-4.09375 l -46,0 z m 29.09375,5.1875 0.8125,0 0,0.8125 -0.8125,0 0,-0.8125 z m 6,0 0.8125,0 0,0.8125 -0.8125,0 0,-0.8125 z m 6,0 0.8125,0 0,0.8125 -0.8125,0 0,-0.8125 z m -37,9 37.8125,0 0,24.8125 -18.90625,0 A 1.0971178,1.0971178 0 0 0 47.09375,63.375 l 0,-1.375 A 1.0971178,1.0971178 0 0 0 46,60.90625 l -6.90625,0 0,-6.90625 A 1.0971178,1.0971178 0 0 0 38,52.90625 l -8,0 A 1.0971178,1.0971178 0 0 0 29.09375,53.375 l 0,-15.28125 z m -0.1875,22.53125 0,0.28125 -0.28125,0 A 1.0971178,1.0971178 0 0 0 28.90625,60.625 z" fill="#000000" fill-opacity="1" stroke="none" opacity="0.15"/>
  <path d="m 25,25 c -1.662,0 -3,1.338 -3,3 l 0,32 6,0 0,-23 40,0 0,27 -20,0 0,6 23,0 c 1.662,0 3,-1.338 3,-3 l 0,-39 c 0,-1.662 -1.338,-3 -3,-3 z m 28,3 3,0 0,3 -3,0 z m 6,0 3,0 0,3 -3,0 z m 6,0 3,0 0,3 -3,0 z m -35,26 0,8 -8,0 0,8 8,0 0,8 8,0 0,-8 8,0 0,-8 -8,0 0,-8 z" fill="#000000" fill-opacity="1" stroke="none" opacity="0.3" inkscape:connector-curvature="0"/>
  <text x="104" font-size="4" font-stretch="normal" font-style="normal" letter-spacing="0" font-variant="normal" y="48" font-weight="normal" text-anchor="start" line-height="125%" fill="#000000" fill-opacity="1" stroke="none" word-spacing="0" writing-mode="lr-tb" font-family="Liberation Sans"><tspan x="104" y="48">Shadow opacity : 30, 15, 10, (8)</tspan>
  </text>
  <text x="124" font-size="4" font-stretch="normal" font-style="normal" letter-spacing="0" font-variant="normal" y="32" font-weight="normal" text-anchor="start" line-height="125%" fill="#000000" fill-opacity="1" stroke="none" word-spacing="0" writing-mode="lr-tb" font-family="Liberation Sans"><tspan x="124" y="32">Bevel opacity : 30 / 10</tspan>
  </text>
  <text x="124" font-size="4" font-stretch="normal" font-style="normal" letter-spacing="0" font-variant="normal" y="8" font-weight="normal" text-anchor="start" line-height="125%" fill="#000000" fill-opacity="1" stroke="none" word-spacing="0" writing-mode="lr-tb" font-family="Liberation Sans"><tspan x="124" y="8">Bevel opacity : 75 / 15</tspan>
  </text>
  <path d="m 25,24 c -1.662,0 -3,1.338 -3,3 l 0,32 6,0 0,-23 40,0 0,27 -20,0 0,6 23,0 c 1.662,0 3,-1.338 3,-3 l 0,-39 c 0,-1.662 -1.338,-3 -3,-3 z m 28,3 3,0 0,3 -3,0 z m 6,0 3,0 0,3 -3,0 z m 6,0 3,0 0,3 -3,0 z m -35,26 0,8 -8,0 0,8 8,0 0,8 8,0 0,-8 8,0 0,-8 -8,0 0,-8 z" fill="url(#linearGradient3032)" fill-opacity="1" stroke="none" inkscape:connector-curvature="0"/>
  <path d="m 25,24 c -1.662,0 -3,1.338 -3,3 l 0,1 c 0,-1.662 1.338,-3 3,-3 l 46,0 c 1.662,0 3,1.338 3,3 l 0,-1 c 0,-1.662 -1.338,-3 -3,-3 l -46,0 z m 28,6 0,1 3,0 0,-1 -3,0 z m 6,0 0,1 3,0 0,-1 -3,0 z m 6,0 0,1 3,0 0,-1 -3,0 z m -35,23 0,1 8,0 0,-1 -8,0 z m -8,8 0,1 8,0 0,-1 -8,0 z m 16,0 0,1 8,0 0,-1 -8,0 z m 10,2 0,1 20,0 0,-1 -20,0 z" fill="#ffffff" fill-opacity="1" stroke="none" opacity="0.75" inkscape:connector-curvature="0"/>
  <path d="m 53,26 0,1 3,0 0,-1 -3,0 z m 6,0 0,1 3,0 0,-1 -3,0 z m 6,0 0,1 3,0 0,-1 -3,0 z m -37,9 0,1 40,0 0,-1 -40,0 z m -6,23 0,1 6,0 0,-1 -6,0 z m 52,7 c 0,1.662 -1.338,3 -3,3 l -23,0 0,1 23,0 c 1.662,0 3,-1.338 3,-3 l 0,-1 z m -52,3 0,1 8,0 0,-1 -8,0 z m 16,0 0,1 8,0 0,-1 -8,0 z m -8,8 0,1 8,0 0,-1 -8,0 z" fill="#000000" fill-opacity="1" stroke="none" opacity="0.15" inkscape:connector-curvature="0"/>
 </g>
</svg>
