<?xml version="1.0" encoding="UTF-8" standalone="no"?>
<svg
   xmlns:dc="http://purl.org/dc/elements/1.1/"
   xmlns:cc="http://creativecommons.org/ns#"
   xmlns:rdf="http://www.w3.org/1999/02/22-rdf-syntax-ns#"
   xmlns:svg="http://www.w3.org/2000/svg"
   xmlns="http://www.w3.org/2000/svg"
   xmlns:xlink="http://www.w3.org/1999/xlink"
   xmlns:sodipodi="http://sodipodi.sourceforge.net/DTD/sodipodi-0.dtd"
   xmlns:inkscape="http://www.inkscape.org/namespaces/inkscape"
   display="inline"
   height="96"
   width="96"
   id="svg2"
   version="1.1"
   inkscape:version="0.91 r13725"
   sodipodi:docname="window-close.svg">
  <metadata
     id="metadata73">
    <rdf:RDF>
      <cc:Work
         rdf:about="">
        <dc:format>image/svg+xml</dc:format>
        <dc:type
           rdf:resource="http://purl.org/dc/dcmitype/StillImage" />
      </cc:Work>
    </rdf:RDF>
  </metadata>
  <sodipodi:namedview
     pagecolor="#ffffff"
     bordercolor="#666666"
     borderopacity="1"
     objecttolerance="10"
     gridtolerance="10"
     guidetolerance="10"
     inkscape:pageopacity="0"
     inkscape:pageshadow="2"
     inkscape:window-width="1366"
     inkscape:window-height="708"
     id="namedview71"
     showgrid="false"
     inkscape:zoom="6.9532167"
     inkscape:cx="19.692288"
     inkscape:cy="56.107371"
     inkscape:window-x="0"
     inkscape:window-y="24"
     inkscape:window-maximized="1"
     inkscape:current-layer="svg2" />
  <defs
     id="defs4">
    <linearGradient
       id="linearGradient4081">
      <stop
         stop-color="#4d4d4d"
         stop-opacity="1"
         id="stop7" />
      <stop
         stop-color="#1a1a1a"
         stop-opacity="1"
         offset="1"
         id="stop9" />
    </linearGradient>
    <linearGradient
       x1="29.827"
       x2="65.69"
       xlink:href="#linearGradient4081"
       gradientUnits="userSpaceOnUse"
       id="linearGradient3034"
       gradientTransform="matrix(0 -1 -1 0 96 16)" />
    <linearGradient
       x1="27"
       x2="69"
       xlink:href="#linearGradient4081"
       gradientUnits="userSpaceOnUse"
       id="linearGradient3702"
       gradientTransform="matrix(0,-1.7379492,1.7379492,0,-35.421562,129.71077)" />
    <radialGradient
       cy="90.17"
       r="42"
       gradientUnits="userSpaceOnUse"
       id="radialGradient3619-9"
       cx="48"
       gradientTransform="matrix(1.15731 0 0 0.99591 -7.551 0.197)">
      <stop
         stop-color="#ffffff"
         stop-opacity="1"
         id="stop14" />
      <stop
         stop-color="#ffffff"
         stop-opacity="0"
         offset="1"
         id="stop16" />
    </radialGradient>
    <linearGradient
       x2="0"
       y1="92.54"
       y2="7.02"
       gradientUnits="userSpaceOnUse"
       id="ButtonShadow-0"
       gradientTransform="matrix(1.0059 0 0 0.99417 100 0)">
      <stop
         stop-color="#000000"
         stop-opacity="1"
         id="stop19" />
      <stop
         stop-color="#000000"
         stop-opacity="0.588"
         offset="1"
         id="stop21" />
    </linearGradient>
    <linearGradient
       x2="0"
       xlink:href="#ButtonShadow-0"
       y1="6.132"
       y2="90.24"
       gradientUnits="userSpaceOnUse"
       id="linearGradient3780"
       gradientTransform="matrix(1.02381 0 0 -1.0119 -1.143 98.07)" />
    <linearGradient
       x2="0"
       xlink:href="#ButtonShadow-0"
       y1="6.132"
       y2="90.24"
       gradientUnits="userSpaceOnUse"
       id="linearGradient3721-0"
       gradientTransform="matrix(1 0 0 -1 0 97)" />
  </defs>
  <path
     style="fill:url(#linearGradient3702);fill-opacity:1;stroke:none"
     d="M 11.503066,66.565279 27.723925,82.786138 48,62.510063 68.276074,82.786138 84.496933,66.565279 64.220858,46.289205 84.496933,26.01313 68.276074,9.7922714 48,30.068346 27.723925,9.7922714 11.503066,26.01313 31.779141,46.289205 11.503066,66.565279 Z"
     inkscape:connector-curvature="0"
     id="path65" />
  <path
     style="opacity:0.75;fill:#ffffff;fill-opacity:1;stroke:none"
     d="M 27.742029,9.7922714 11.503066,26.031234 12.372041,26.900209 27.742029,11.530221 48,31.788191 68.25797,11.530221 83.627958,26.900209 84.496933,26.031234 68.25797,9.7922714 48,30.050242 27.742029,9.7922714 Z M 30.892062,47.158179 11.503066,66.547175 12.372041,67.41615 31.761037,48.027154 30.892062,47.158179 Z m 34.215875,0 -0.868975,0.868975 19.388996,19.388996 0.868975,-0.868975 -19.388996,-19.388996 z"
     inkscape:connector-curvature="0"
     id="path67" />
  <path
     style="opacity:0.15;fill:#000000;fill-opacity:1;stroke:none"
     d="M 12.372041,25.16226 11.503066,26.031234 30.892062,45.42023 31.761037,44.551255 12.372041,25.16226 Z m 71.255917,0 L 64.238962,44.551255 65.107937,45.42023 84.496933,26.031234 83.627958,25.16226 Z M 48,60.790218 27.742029,81.048189 12.372041,65.6782 11.503066,66.547175 27.742029,82.786138 48,62.528167 68.25797,82.786138 84.496933,66.547175 83.627958,65.6782 68.25797,81.048189 48,60.790218 Z"
     inkscape:connector-curvature="0"
     id="path69" />
</svg>
