<?xml version="1.0" encoding="UTF-8" standalone="no"?>
<svg
   xmlns:dc="http://purl.org/dc/elements/1.1/"
   xmlns:cc="http://creativecommons.org/ns#"
   xmlns:rdf="http://www.w3.org/1999/02/22-rdf-syntax-ns#"
   xmlns:svg="http://www.w3.org/2000/svg"
   xmlns="http://www.w3.org/2000/svg"
   xmlns:xlink="http://www.w3.org/1999/xlink"
   xmlns:sodipodi="http://sodipodi.sourceforge.net/DTD/sodipodi-0.dtd"
   xmlns:inkscape="http://www.inkscape.org/namespaces/inkscape"
   height="96"
   width="96"
   id="svg2"
   version="1.1"
   inkscape:version="0.91 r13725"
   sodipodi:docname="zoom-in.svg">
  <metadata
     id="metadata68">
    <rdf:RDF>
      <cc:Work
         rdf:about="">
        <dc:format>image/svg+xml</dc:format>
        <dc:type
           rdf:resource="http://purl.org/dc/dcmitype/StillImage" />
      </cc:Work>
    </rdf:RDF>
  </metadata>
  <sodipodi:namedview
     pagecolor="#ffffff"
     bordercolor="#666666"
     borderopacity="1"
     objecttolerance="10"
     gridtolerance="10"
     guidetolerance="10"
     inkscape:pageopacity="0"
     inkscape:pageshadow="2"
     inkscape:window-width="640"
     inkscape:window-height="480"
     id="namedview66"
     showgrid="false"
     inkscape:zoom="2.4583333"
     inkscape:cx="51.661017"
     inkscape:cy="47.999999"
     inkscape:window-x="724"
     inkscape:window-y="49"
     inkscape:window-maximized="0"
     inkscape:current-layer="svg2" />
  <defs
     id="defs4">
    <linearGradient
       x2="0"
       y1="92.54"
       y2="7.02"
       gradientUnits="userSpaceOnUse"
       id="ButtonShadow-0"
       gradientTransform="matrix(1.0059 0 0 0.99417 100 0)">
      <stop
         stop-color="#000000"
         stop-opacity="1"
         id="stop7" />
      <stop
         stop-color="#000000"
         stop-opacity="0.588"
         offset="1"
         id="stop9" />
    </linearGradient>
    <linearGradient
       x2="0"
       xlink:href="#ButtonShadow-0"
       y1="6.132"
       y2="90.24"
       gradientUnits="userSpaceOnUse"
       id="linearGradient3780"
       gradientTransform="matrix(1.02381 0 0 -1.0119 -1.143 98.07)" />
    <linearGradient
       x2="0"
       xlink:href="#ButtonShadow-0"
       y1="6.132"
       y2="90.24"
       gradientUnits="userSpaceOnUse"
       id="linearGradient3721"
       gradientTransform="matrix(1 0 0 -1 0 97)" />
    <radialGradient
       cy="90.17"
       r="42"
       gradientUnits="userSpaceOnUse"
       id="radialGradient3619-3"
       cx="48"
       gradientTransform="matrix(1.15731 0 0 0.99591 -7.551 0.197)">
      <stop
         stop-color="#ffffff"
         stop-opacity="1"
         id="stop14" />
      <stop
         stop-color="#ffffff"
         stop-opacity="0"
         offset="1"
         id="stop16" />
    </radialGradient>
    <linearGradient
       x2="0"
       y1="3.01"
       y2="19.286"
       gradientUnits="userSpaceOnUse"
       id="linearGradient3879"
       gradientTransform="matrix(3.27283,0,0,3.27064,11.509,11.352)">
      <stop
         stop-color="#1a1a1a"
         stop-opacity="1"
         id="stop19" />
      <stop
         stop-color="#4d4d4d"
         stop-opacity="1"
         offset="1"
         id="stop21" />
    </linearGradient>
    <rect
       x="6"
       rx="6"
       y="6"
       fill="#000000"
       fill-opacity="1"
       stroke="none"
       fill-rule="nonzero"
       height="84"
       id="SVGCleanerId_0"
       opacity="0.6"
       width="84" />
  </defs>
  <g
     id="g3525"
     transform="matrix(1.3941017,0,0,1.3941017,-18.726308,-19.904244)">
    <path
       d="m 40.9375,20.03125 c -10.479459,-0.151093 -20.208135,8.30993 -21.513246,18.709846 -1.533328,9.434883 4.038331,19.381213 12.849584,23.052477 5.906961,2.61155 12.938712,2.300042 18.663662,-0.637323 2.409045,-1.479574 4.064733,0.149362 4.563599,2.472103 1.905571,2.733236 4.587563,4.832306 6.872596,7.257873 1.965896,1.838635 3.762398,3.954027 5.831023,5.601758 3.480027,2.582597 8.683967,-0.811925 8.33413,-4.933296 C 76.364411,68.509804 73.554728,66.951047 71.742483,64.87688 68.8864,62.146024 66.252742,59.144852 63.225372,56.625115 61.04505,55.838948 58.842309,54.53607 60.358574,51.911474 62.615028,47.062204 63.455911,41.434303 61.973157,36.217302 59.582892,26.917488 50.555952,19.935228 40.9375,20.03125 Z m 0,9.25 C 47.908371,29.081821 54.103593,35.562341 53.546036,42.523547 53.376318,49.499685 46.572875,55.340341 39.6491,54.434742 32.684334,53.915041 27.248653,46.806593 28.488606,39.954658 29.309776,33.940475 34.864774,29.173405 40.9375,29.28125 Z m -3.03125,1.5625 c -1.50196,0.03355 -2.29933,1.617774 -2.03125,2.967216 0,1.021344 0,2.042689 0,3.064034 -1.677965,0.149054 -3.490364,-0.343455 -5.0625,0.34375 -1.532014,1.145308 -0.742959,3.24227 -0.9375,4.862919 0.177616,1.608087 -0.612761,3.828211 1.125,4.793331 1.545127,0.518422 3.258261,0.128991 4.875,0.25 0.149054,1.677965 -0.343455,3.490364 0.34375,5.0625 1.145308,1.532014 3.24227,0.742959 4.862919,0.9375 1.608087,-0.177616 3.828211,0.612761 4.793331,-1.125 0.518422,-1.545127 0.128991,-3.258261 0.25,-4.875 1.677965,-0.149054 3.490364,0.343455 5.0625,-0.34375 1.532014,-1.145308 0.742959,-3.24227 0.9375,-4.862919 C 51.947384,40.310244 52.737761,38.09012 51,37.125 49.454873,36.606578 47.741739,36.996009 46.125,36.875 45.975946,35.197035 46.468455,33.384636 45.78125,31.8125 44.635942,30.280486 42.53898,31.069541 40.918331,30.875 39.917028,30.85099 38.898677,30.92111 37.90625,30.84375 Z m 35.0625,38.25 0.03125,0.0625 -0.03125,-0.0625 z m -5.8125,6.34375 c 0.275739,0.310044 0.0038,0.228869 0,0 z"
       inkscape:connector-curvature="0"
       id="path42"
       style="opacity:0.15;fill:black;fill-opacity:1;stroke:none" />
    <path
       d="m 40.9375,21.1875 c -5.286077,0 -10.550451,2.11295 -14.5625,6.125 -8.035193,8.035194 -8.035194,21.058559 0,29.09375 6.361413,6.361412 15.82446,7.651442 23.5,3.9375 0.09923,-0.04801 0.310842,-0.144625 0.53125,-0.25 0.02769,-0.01093 0.09512,-0.01981 0.125,-0.03125 0.551994,-0.211259 1.430694,-0.487971 2.3125,-0.5625 0.929545,-0.07856 1.744897,0.0574 2.25,0.5625 0.393827,0.393827 0.528899,0.865319 0.8125,1.65625 0.283601,0.790931 0.730538,1.824287 1.75,2.84375 l 10.4375,10.34375 a 0.97840007,0.97840007 0 0 0 0.0625,0.0625 c 0.0062,0.0053 0.02137,0.0011 0.0625,0.03125 A 0.97840007,0.97840007 0 0 0 68.25,75.03125 c 0.0063,0.0056 -0.0068,0.02528 0,0.03125 0.08211,0.07166 0.191811,0.169893 0.34375,0.28125 0.303877,0.222713 0.72787,0.497164 1.28125,0.6875 1.106759,0.380672 2.791609,0.270889 4.1875,-1.125 1.401885,-1.401886 1.496036,-3.088768 1.125,-4.21875 -0.185518,-0.564991 -0.430683,-0.994362 -0.65625,-1.3125 -0.112783,-0.159069 -0.234594,-0.31526 -0.3125,-0.40625 -0.02597,-0.03033 -0.0429,-0.04063 -0.0625,-0.0625 C 74.11466,68.85386 74.1248,68.8739 74.125,68.875 74.11327,68.86215 74.09847,68.84885 74.09375,68.84375 A 0.97840007,0.97840007 0 0 0 74.0625,68.8125 L 63.71875,58.5 c -1.011408,-1.011408 -1.990217,-1.465807 -2.75,-1.75 -0.759783,-0.284193 -1.218853,-0.406354 -1.625,-0.8125 -0.612027,-0.612028 -0.701849,-1.756671 -0.5,-2.90625 0.199285,-1.134976 0.663084,-2.165042 0.6875,-2.21875 3.14e-4,-6.91e-4 -1.67e-4,-0.03089 0,-0.03125 3.700082,-7.674877 2.351771,-17.116979 -4,-23.46875 -4.01393,-4.013931 -9.307672,-6.125 -14.59375,-6.125 z m 0,6.9375 c 7.597983,0 13.78125,6.154522 13.78125,13.75 0,7.595479 -6.185772,13.78125 -13.78125,13.78125 -7.595479,0 -13.75,-6.183263 -13.75,-13.78125 0,-7.597986 6.152014,-13.75 13.75,-13.75 z m -3.125,3.90625 A 0.97840007,0.97840007 0 0 0 37.03125,33 l 0,5.03125 -5.03125,0 A 0.97840007,0.97840007 0 0 0 31.03125,39 l 0,6 A 0.97840007,0.97840007 0 0 0 32,45.96875 l 5.03125,0 0,5.03125 A 0.97840007,0.97840007 0 0 0 38,51.96875 l 6,0 A 0.97840007,0.97840007 0 0 0 44.96875,51 l 0,-5.03125 5.03125,0 A 0.97840007,0.97840007 0 0 0 50.96875,45 l 0,-6 A 0.97840007,0.97840007 0 0 0 50,38.03125 l -5.03125,0 0,-5.03125 A 0.97840007,0.97840007 0 0 0 44,32.03125 l -6,0 a 0.97840007,0.97840007 0 0 0 -0.1875,0 z"
       id="path44"
       inkscape:connector-curvature="0"
       style="opacity:0.15;fill:black;fill-opacity:1;stroke:none" />
    <path
       d="m 40.9375,22.15625 c -5.024844,0 -10.043902,2.012651 -13.875,5.84375 -7.662194,7.662195 -7.662195,20.056558 0,27.71875 6.065905,6.065904 15.062155,7.288446 22.375,3.75 0.192443,-0.09311 0.435065,-0.181495 0.625,-0.28125 1.187096,-0.468823 4.141857,-1.389392 5.71875,0.1875 1.169626,1.169626 0.773272,2.710771 2.5625,4.5 l 10.4375,10.34375 c 0.01242,-0.01244 2.254863,2.338884 4.59375,0 2.347919,-2.34792 0.03413,-4.675755 0,-4.71875 L 63.03125,59.1875 c -1.789229,-1.789229 -3.205376,-1.392879 -4.375,-2.5625 -1.928265,-1.928268 -0.115198,-6.004099 0,-6.25 C 62.194695,43.062154 60.909654,34.065904 54.84375,28 51.012652,24.168901 45.962345,22.15625 40.9375,22.15625 Z m 0,5 c 8.126981,0 14.75,6.591766 14.75,14.71875 0,8.126985 -6.623016,14.75 -14.75,14.75 -8.126985,0 -14.71875,-6.623015 -14.71875,-14.75 0,-8.126984 6.591766,-14.71875 14.71875,-14.71875 z M 38,33 l 0,6 -6,0 0,6 6,0 0,6 6,0 0,-6 6,0 0,-6 -6,0 0,-6 -6,0 z"
       inkscape:connector-curvature="0"
       id="path46"
       style="opacity:0.3;fill:black;fill-opacity:1;stroke:none" />
    <path
       d="m 40.9375,21.15625 c -5.024844,0 -10.043902,2.012651 -13.875,5.84375 -7.662194,7.662195 -7.662195,20.056558 0,27.71875 6.065905,6.065904 15.062155,7.288446 22.375,3.75 0.192443,-0.09311 0.435065,-0.181495 0.625,-0.28125 1.187096,-0.468823 4.141857,-1.389392 5.71875,0.1875 1.169626,1.169626 0.773272,2.710771 2.5625,4.5 l 10.4375,10.34375 c 0.01242,-0.01244 2.254863,2.338884 4.59375,0 2.347919,-2.34792 0.03413,-4.675755 0,-4.71875 L 63.03125,58.1875 c -1.789229,-1.789229 -3.205376,-1.392879 -4.375,-2.5625 -1.928265,-1.928268 -0.115198,-6.004099 0,-6.25 C 62.194695,42.062154 60.909654,33.065904 54.84375,27 51.012652,23.168901 45.962345,21.15625 40.9375,21.15625 Z m 0,5 c 8.126981,0 14.75,6.591766 14.75,14.71875 0,8.126985 -6.623016,14.75 -14.75,14.75 -8.126985,0 -14.71875,-6.623015 -14.71875,-14.75 0,-8.126984 6.591766,-14.71875 14.71875,-14.71875 z M 38,32 l 0,6 -6,0 0,6 6,0 0,6 6,0 0,-6 6,0 0,-6 -6,0 0,-6 -6,0 z"
       inkscape:connector-curvature="0"
       id="path60"
       style="fill:url(#linearGradient3879);fill-opacity:1;stroke:none" />
    <path
       d="m 40.9375,21.15625 c -5.024844,0 -10.043902,2.012651 -13.875,5.84375 -3.95888,3.95888 -5.850795,9.194979 -5.71875,14.375 0.121568,-4.848402 2.013345,-9.669594 5.71875,-13.375 3.831098,-3.831099 8.850156,-5.84375 13.875,-5.84375 5.024845,0 10.075152,2.012651 13.90625,5.84375 3.704459,3.704459 5.62136,8.504359 5.75,13.34375 C 60.721225,36.16902 58.804257,30.960507 54.84375,27 51.012652,23.168901 45.962345,21.15625 40.9375,21.15625 Z M 38,32 l 0,1 6,0 0,-1 -6,0 z m -6,6 0,1 6,0 0,-1 -6,0 z m 12,0 0,1 6,0 0,-1 -6,0 z m -17.75,3.375 c -0.0057,0.168078 -0.03125,0.330541 -0.03125,0.5 0,8.126985 6.591765,14.75 14.71875,14.75 8.126984,0 14.75,-6.623015 14.75,-14.75 0,-0.169459 -0.02554,-0.331922 -0.03125,-0.5 -0.26826,7.893935 -6.761225,14.25 -14.71875,14.25 -7.957526,0 -14.42049,-6.356065 -14.6875,-14.25 z m 31.5625,12.3125 c -0.07578,1.07246 0.07515,2.168899 0.84375,2.9375 1.169624,1.169621 2.585771,0.773271 4.375,2.5625 L 73.375,69.5 c 0.02004,0.02524 0.81322,0.857787 1,2 0.338175,-1.647248 -0.974402,-2.967754 -1,-3 L 63.03125,58.1875 c -1.789229,-1.789229 -3.205376,-1.392879 -4.375,-2.5625 -0.527084,-0.527085 -0.764667,-1.211575 -0.84375,-1.9375 z"
       inkscape:connector-curvature="0"
       id="path62"
       style="opacity:0.75;fill:white;fill-opacity:1;stroke:none" />
    <path
       d="m 40.9375,25.15625 c -8.126984,0 -14.71875,6.591766 -14.71875,14.71875 0,0.169459 0.02556,0.331895 0.03125,0.5 0.26701,-7.892685 6.729975,-14.21875 14.6875,-14.21875 7.957522,0 14.45049,6.326065 14.71875,14.21875 0.0057,-0.168105 0.03125,-0.330541 0.03125,-0.5 0,-8.126984 -6.623019,-14.71875 -14.75,-14.71875 z m 19.65625,15.1875 c -0.06777,2.750876 -0.709351,5.493055 -1.9375,8.03125 -0.08371,0.178685 -1.053981,2.382728 -0.84375,4.3125 0.11434,-1.618131 0.774469,-3.164614 0.84375,-3.3125 1.37751,-2.846877 2.019503,-5.946331 1.9375,-9.03125 z m -39.25,0.03125 c -0.129816,5.177329 1.761961,10.386962 5.71875,14.34375 6.065905,6.065904 15.062155,7.288446 22.375,3.75 0.192443,-0.09311 0.435065,-0.181495 0.625,-0.28125 1.187096,-0.468823 4.141857,-1.389392 5.71875,0.1875 1.169626,1.169626 0.773272,2.710771 2.5625,4.5 l 10.4375,10.34375 c 0.01242,-0.01244 2.254863,2.338884 4.59375,0 0.969324,-0.969325 1.13133,-1.915632 1,-2.71875 -0.112725,0.549083 -0.41302,1.13177 -1,1.71875 -2.338887,2.338884 -4.58133,-0.01244 -4.59375,0 L 58.34375,61.875 c -1.789228,-1.789229 -1.392874,-3.330374 -2.5625,-4.5 -1.576893,-1.576892 -4.531654,-0.656323 -5.71875,-0.1875 -0.189935,0.09976 -0.432557,0.18814 -0.625,0.28125 -7.312845,3.538446 -16.309095,2.315904 -22.375,-3.75 C 23.359185,50.015437 21.467271,45.220625 21.34375,40.375 Z M 32,43 l 0,1 6,0 0,-1 -6,0 z m 12,0 0,1 6,0 0,-1 -6,0 z m -6,6 0,1 6,0 0,-1 -6,0 z"
       inkscape:connector-curvature="0"
       id="path64"
       style="opacity:0.15;fill:black;fill-opacity:1;stroke:none" />
  </g>
</svg>
