<?xml version="1.0" encoding="UTF-8" standalone="no"?>
<svg
   xmlns:dc="http://purl.org/dc/elements/1.1/"
   xmlns:cc="http://creativecommons.org/ns#"
   xmlns:rdf="http://www.w3.org/1999/02/22-rdf-syntax-ns#"
   xmlns:svg="http://www.w3.org/2000/svg"
   xmlns="http://www.w3.org/2000/svg"
   xmlns:xlink="http://www.w3.org/1999/xlink"
   xmlns:sodipodi="http://sodipodi.sourceforge.net/DTD/sodipodi-0.dtd"
   xmlns:inkscape="http://www.inkscape.org/namespaces/inkscape"
   height="96"
   width="96"
   id="svg2"
   version="1.1"
   inkscape:version="0.91 r13725"
   sodipodi:docname="zoom-original.svg">
  <metadata
     id="metadata68">
    <rdf:RDF>
      <cc:Work
         rdf:about="">
        <dc:format>image/svg+xml</dc:format>
        <dc:type
           rdf:resource="http://purl.org/dc/dcmitype/StillImage" />
      </cc:Work>
    </rdf:RDF>
  </metadata>
  <sodipodi:namedview
     pagecolor="#ffffff"
     bordercolor="#666666"
     borderopacity="1"
     objecttolerance="10"
     gridtolerance="10"
     guidetolerance="10"
     inkscape:pageopacity="0"
     inkscape:pageshadow="2"
     inkscape:window-width="640"
     inkscape:window-height="480"
     id="namedview66"
     showgrid="false"
     inkscape:zoom="2.4583333"
     inkscape:cx="18.818327"
     inkscape:cy="43.364441"
     inkscape:window-x="70"
     inkscape:window-y="96"
     inkscape:window-maximized="0"
     inkscape:current-layer="svg2" />
  <defs
     id="defs4">
    <linearGradient
       x2="0"
       y1="92.54"
       y2="7.02"
       gradientUnits="userSpaceOnUse"
       id="ButtonShadow-0"
       gradientTransform="matrix(1.0059 0 0 0.99417 100 0)">
      <stop
         stop-color="#000000"
         stop-opacity="1"
         id="stop7" />
      <stop
         stop-color="#000000"
         stop-opacity="0.588"
         offset="1"
         id="stop9" />
    </linearGradient>
    <linearGradient
       x2="0"
       xlink:href="#ButtonShadow-0"
       y1="6.132"
       y2="90.24"
       gradientUnits="userSpaceOnUse"
       id="linearGradient3780"
       gradientTransform="matrix(1.02381 0 0 -1.0119 -1.143 98.07)" />
    <linearGradient
       x2="0"
       xlink:href="#ButtonShadow-0"
       y1="6.132"
       y2="90.24"
       gradientUnits="userSpaceOnUse"
       id="linearGradient3721"
       gradientTransform="matrix(1 0 0 -1 0 97)" />
    <radialGradient
       cy="90.17"
       r="42"
       gradientUnits="userSpaceOnUse"
       id="radialGradient3619-3"
       cx="48"
       gradientTransform="matrix(1.15731 0 0 0.99591 -7.551 0.197)">
      <stop
         stop-color="#ffffff"
         stop-opacity="1"
         id="stop14" />
      <stop
         stop-color="#ffffff"
         stop-opacity="0"
         offset="1"
         id="stop16" />
    </radialGradient>
    <linearGradient
       x2="0"
       y1="3.01"
       y2="19.286"
       gradientUnits="userSpaceOnUse"
       id="linearGradient3878"
       gradientTransform="matrix(4.5703726,0,0,4.5673143,-2.7672315,-4.1497276)">
      <stop
         stop-color="#1a1a1a"
         stop-opacity="1"
         id="stop19" />
      <stop
         stop-color="#4d4d4d"
         stop-opacity="1"
         offset="1"
         id="stop21" />
    </linearGradient>
    <rect
       x="6"
       rx="6"
       y="6"
       fill="#000000"
       fill-opacity="1"
       stroke="none"
       fill-rule="nonzero"
       height="84"
       id="SVGCleanerId_0"
       opacity="0.6"
       width="84" />
  </defs>
  <path
     style="fill:url(#linearGradient3878);fill-opacity:1;stroke:none"
     id="path60"
     inkscape:connector-curvature="0"
     d="m 38.328459,9.5415046 c -7.016988,0 -14.025896,2.8105844 -19.375867,8.1605564 -10.699939,10.699941 -10.6999404,28.008159 0,38.708095 8.470787,8.470786 21.03368,10.178016 31.245768,5.236721 0.268739,-0.130024 0.60755,-0.25345 0.872787,-0.392754 1.65773,-0.654692 5.783933,-1.940229 7.985999,0.261836 1.633335,1.633335 1.079843,3.785481 3.578426,6.284065 l 14.57554,14.444622 c 0.01734,-0.01737 3.148823,3.266155 6.414983,0 3.278772,-3.278774 0.04766,-6.5295 0,-6.58954 L 69.181473,61.254123 c -2.498585,-2.498585 -4.476176,-1.945098 -6.109508,-3.578426 -2.692742,-2.692747 -0.160869,-8.384477 0,-8.727868 C 68.013258,38.73574 66.218751,26.172847 57.747966,17.702061 52.397995,12.352089 45.345449,9.5415046 38.328459,9.5415046 Z m 0,6.9822944 c 11.348995,0 20.597769,9.20513 20.597769,20.55413 0,11.349 -9.24877,20.597768 -20.597769,20.597768 -11.349,0 -20.554129,-9.248768 -20.554129,-20.597768 0,-11.349 9.20513,-20.55413 20.554129,-20.55413 z m -4.102098,8.160557 c -1.396459,2.792918 -2.792918,4.189377 -5.585835,4.189377 l 0,6.982294 5.585835,0 0,13.964589 8.378754,0 0,-25.13626 z" />
  <path
     style="opacity:0.75;fill:#ffffff;fill-opacity:1;stroke:none"
     id="path62"
     inkscape:connector-curvature="0"
     d="m 38.328459,9.5415046 c -7.016988,0 -14.025896,2.8105844 -19.375867,8.1605564 -5.528413,5.528414 -8.170395,12.840411 -7.985999,20.074097 0.169764,-6.770594 2.811553,-13.503191 7.985999,-18.677638 5.349971,-5.349972 12.358879,-8.160556 19.375867,-8.160556 7.01699,0 14.069536,2.810584 19.419507,8.160556 5.173125,5.173125 7.849998,11.875988 8.029638,18.633999 C 65.955618,30.506221 63.278651,23.232747 57.747966,17.702061 52.397995,12.352089 45.345449,9.5415046 38.328459,9.5415046 Z M 34.226361,24.684356 c -1.396459,2.792918 -2.792918,4.189377 -5.585835,4.189377 l 0,1.396458 c 2.792917,0 4.189376,-1.396458 5.585835,-4.189376 l 8.378754,0 0,-1.396459 -8.378754,0 z M 17.817969,37.776158 c -0.008,0.234714 -0.04364,0.461587 -0.04364,0.698229 0,11.349001 9.205129,20.597769 20.554129,20.597769 11.348999,0 20.597769,-9.248768 20.597769,-20.597769 0,-0.236642 -0.03567,-0.463515 -0.04364,-0.698229 -0.374614,11.023556 -9.441773,19.899539 -20.55413,19.899539 -11.112358,0 -20.137621,-8.875983 -20.51049,-19.899539 z m 44.075734,17.1939 c -0.105823,1.497647 0.104944,3.028779 1.178262,4.102098 1.633332,1.633328 3.610923,1.079841 6.109508,3.578426 l 14.444622,14.400983 c 0.02798,0.03525 1.135628,1.197864 1.396459,2.792917 0.472247,-2.300314 -1.360713,-4.144346 -1.396459,-4.189376 L 69.181473,61.254123 c -2.498585,-2.498585 -4.476176,-1.945098 -6.109508,-3.578426 -0.736051,-0.736052 -1.067826,-1.691914 -1.178262,-2.705639 z" />
  <path
     style="opacity:0.15;fill:#000000;fill-opacity:1;stroke:none"
     id="path64"
     inkscape:connector-curvature="0"
     d="m 38.328459,15.12734 c -11.348999,0 -20.554129,9.205131 -20.554129,20.55413 0,0.236642 0.03569,0.463477 0.04364,0.698229 0.372869,-11.02181 9.398134,-19.8559 20.51049,-19.8559 11.112353,0 20.179516,8.83409 20.55413,19.8559 0.008,-0.234752 0.04364,-0.461587 0.04364,-0.698229 0,-11.348999 -9.248774,-20.55413 -20.597769,-20.55413 z m -9.687933,19.332228 0,1.396459 5.585835,0 0,-1.396459 -5.585835,0 z m 37.137078,1.876492 c -0.09464,3.841485 -0.990579,7.670825 -2.705639,11.21531 -0.116897,0.249527 -1.471841,3.327382 -1.178262,6.022229 0.159671,-2.259653 1.081514,-4.419253 1.178262,-4.62577 1.923636,-3.975547 2.820153,-8.303807 2.705639,-12.611769 z m -54.811011,0.04364 c -0.181283,7.229927 2.460506,14.504966 7.985999,20.030457 8.470787,8.470786 21.03368,10.178016 31.245768,5.236721 0.268739,-0.130024 0.60755,-0.25345 0.872787,-0.392754 1.65773,-0.654692 5.783933,-1.940229 7.985999,0.261836 1.633335,1.633335 1.079843,3.785481 3.578426,6.284065 l 14.57554,14.444622 c 0.01734,-0.01737 3.148823,3.266155 6.414983,0 1.353621,-1.353622 1.579856,-2.675101 1.396459,-3.796623 -0.157416,0.766772 -0.576766,1.580471 -1.396459,2.400164 -3.26616,3.266156 -6.397639,-0.01737 -6.414983,0 L 62.635572,66.403565 C 60.136989,63.904981 60.690481,61.752835 59.057146,60.1195 56.85508,57.917436 52.728877,59.202972 51.071147,59.857664 50.80591,59.996975 50.467099,60.120394 50.19836,60.250418 39.986272,65.191713 27.423379,63.484483 18.952592,55.013698 13.781065,49.842173 11.139085,43.146415 10.966593,36.379699 Z m 23.259768,12.044458 0,1.396459 8.378754,0 0,-1.396459 -8.378754,0 z" />
</svg>
