<svg height="16" width="16" xmlns="http://www.w3.org/2000/svg" xmlns:sodipodi="http://sodipodi.sourceforge.net/DTD/sodipodi-0.dtd" xmlns:inkscape="http://www.inkscape.org/namespaces/inkscape">
 <path d="m 5.9999997,1 c -0.554,0 -1,0.446 -1,1 l 0,4 -1,0 c -0.554,0 -1,0.446 -1,1 l 0,6 c 0,0.554 0.446,1 1,1 L 12,14 c 0.554,0 1,-0.446 1,-1 L 13,7 C 13,6.446 12.554,6 12,6 L 11,6 11,2 C 11,1.446 10.554,1 9.9999997,1 l -4,0 z m 1,2 2,0 0,3 -2,0 0,-3 z" stroke-width="1" display="inline" fill="#cccccc" color="#000000" fill-opacity="1" stroke="none" visibility="visible" inkscape:label="Calque 1" inkscape:groupmode="layer" inkscape:connector-curvature="0"/>
</svg>
