<?xml version="1.0" encoding="UTF-8"?>
<svg xmlns="http://www.w3.org/2000/svg" xmlns:xlink="http://www.w3.org/1999/xlink" width="12pt" height="12pt" viewBox="0 0 12 12" version="1.1">
<g id="surface1">
<path style=" stroke:none;fill-rule:nonzero;fill:rgb(80%,80%,80%);fill-opacity:1;" d="M 2.082031 2.082031 C 1.726562 2.082031 1.4375 2.367188 1.4375 2.722656 L 1.4375 9.152344 C 1.4375 9.507812 1.726562 9.792969 2.082031 9.792969 L 9.792969 9.792969 C 10.148438 9.792969 10.4375 9.507812 10.4375 9.152344 L 10.4375 2.722656 C 10.4375 2.367188 10.148438 2.082031 9.792969 2.082031 Z M 4.332031 3.367188 L 5.292969 3.367188 L 5.292969 7.222656 L 6.582031 7.222656 L 6.582031 3.367188 L 7.542969 3.367188 C 7.722656 3.367188 7.867188 3.511719 7.867188 3.6875 L 7.867188 8.1875 C 7.867188 8.363281 7.722656 8.507812 7.542969 8.507812 L 4.332031 8.507812 C 4.152344 8.507812 4.007812 8.363281 4.007812 8.1875 L 4.007812 3.6875 C 4.007812 3.511719 4.152344 3.367188 4.332031 3.367188 Z M 4.332031 3.367188 "/>
</g>
</svg>
