<?xml version="1.0" encoding="UTF-8"?>
<svg xmlns="http://www.w3.org/2000/svg" xmlns:xlink="http://www.w3.org/1999/xlink" width="12pt" height="12pt" viewBox="0 0 12 12" version="1.1">
<g id="surface1">
<path style=" stroke:none;fill-rule:nonzero;fill:rgb(80%,80%,80%);fill-opacity:1;" d="M 2 2.5625 C 1.6875 2.5625 1.4375 2.8125 1.4375 3.125 L 1.4375 8.75 C 1.4375 9.0625 1.6875 9.3125 2 9.3125 L 9.875 9.3125 C 10.1875 9.3125 10.4375 9.0625 10.4375 8.75 L 10.4375 3.125 C 10.4375 2.8125 10.1875 2.5625 9.875 2.5625 Z M 2.84375 3.6875 L 5.09375 3.6875 C 5.25 3.6875 5.375 3.8125 5.375 3.96875 L 5.375 7.90625 C 5.375 8.0625 5.25 8.1875 5.09375 8.1875 L 2.84375 8.1875 C 2.6875 8.1875 2.5625 8.0625 2.5625 7.90625 L 2.5625 7.0625 L 4.25 7.0625 L 4.25 6.5 L 3.125 6.5 L 3.125 5.375 L 4.25 5.375 L 4.25 4.8125 L 2.5625 4.8125 L 2.5625 3.96875 C 2.5625 3.8125 2.6875 3.6875 2.84375 3.6875 Z M 6.21875 3.6875 L 9.03125 3.6875 C 9.1875 3.6875 9.3125 3.8125 9.3125 3.96875 L 9.3125 4.8125 L 7.0625 4.8125 L 7.0625 7.0625 L 8.1875 7.0625 L 8.1875 6.5 L 7.625 6.5 L 7.625 5.375 L 9.3125 5.375 L 9.3125 7.90625 C 9.3125 8.0625 9.1875 8.1875 9.03125 8.1875 L 6.21875 8.1875 C 6.0625 8.1875 5.9375 8.0625 5.9375 7.90625 L 5.9375 3.96875 C 5.9375 3.8125 6.0625 3.6875 6.21875 3.6875 Z M 6.21875 3.6875 "/>
</g>
</svg>
