<?xml version="1.0" encoding="UTF-8"?>
<svg xmlns="http://www.w3.org/2000/svg" xmlns:xlink="http://www.w3.org/1999/xlink" width="12pt" height="12pt" viewBox="0 0 12 12" version="1.1">
<g id="surface1">
<path style=" stroke:none;fill-rule:nonzero;fill:rgb(80%,80%,80%);fill-opacity:1;" d="M 4.71875 5.378906 C 4.65625 5.398438 4.605469 5.4375 4.5625 5.484375 L 3.222656 6.820312 C 3.15625 6.886719 3.121094 6.972656 3.117188 7.066406 L 3.117188 8.121094 L 1.570312 9.671875 C 1.394531 9.847656 1.394531 10.125 1.570312 10.304688 C 1.75 10.480469 2.027344 10.480469 2.203125 10.304688 L 3.753906 8.757812 L 4.808594 8.757812 C 4.902344 8.753906 4.988281 8.71875 5.054688 8.652344 L 6.390625 7.3125 C 6.523438 7.175781 6.523438 6.957031 6.390625 6.820312 L 5.054688 5.484375 C 4.96875 5.394531 4.84375 5.351562 4.71875 5.378906 Z M 4.71875 5.378906 "/>
<path style=" stroke:none;fill-rule:nonzero;fill:rgb(80%,80%,80%);fill-opacity:1;" d="M 7.152344 6.488281 C 7.210938 6.46875 7.265625 6.433594 7.308594 6.382812 L 8.644531 5.046875 C 8.710938 4.980469 8.75 4.894531 8.75 4.800781 L 8.75 3.746094 L 10.296875 2.195312 C 10.476562 2.019531 10.476562 1.738281 10.296875 1.5625 C 10.121094 1.386719 9.84375 1.386719 9.664062 1.5625 L 8.117188 3.113281 L 7.0625 3.113281 C 6.96875 3.113281 6.878906 3.152344 6.816406 3.21875 L 5.476562 4.554688 C 5.34375 4.691406 5.34375 4.90625 5.476562 5.046875 L 6.816406 6.382812 C 6.902344 6.472656 7.027344 6.511719 7.152344 6.488281 Z M 7.152344 6.488281 "/>
<path style=" stroke:none;fill-rule:nonzero;fill:rgb(80%,80%,80%);fill-opacity:1;" d="M 7.972656 6.503906 C 7.78125 6.503906 7.546875 6.675781 7.621094 6.855469 L 7.621094 8.191406 L 7.410156 8.191406 C 7.21875 8.191406 7.058594 8.351562 7.058594 8.542969 L 7.058594 10.09375 C 7.058594 10.289062 7.21875 10.445312 7.410156 10.445312 L 10.085938 10.445312 C 10.28125 10.445312 10.4375 10.289062 10.4375 10.09375 L 10.4375 8.542969 C 10.4375 8.351562 10.28125 8.191406 10.085938 8.191406 L 9.875 8.191406 L 9.875 6.855469 C 9.875 6.660156 9.71875 6.503906 9.523438 6.503906 Z M 8.1875 7.066406 L 9.3125 7.066406 L 9.3125 8.191406 L 8.1875 8.191406 Z M 8.1875 7.066406 "/>
</g>
</svg>
