<?xml version="1.0" encoding="UTF-8"?>
<svg xmlns="http://www.w3.org/2000/svg" xmlns:xlink="http://www.w3.org/1999/xlink" width="12pt" height="12pt" viewBox="0 0 12 12" version="1.1">
<g id="surface1">
<path style=" stroke:none;fill-rule:nonzero;fill:rgb(80%,80%,80%);fill-opacity:1;" d="M 3.40625 1.4375 C 3.40625 1.4375 3.125 1.5625 3.125 1.71875 L 3.125 9.875 C 3.125 10.1875 3.375 10.4375 3.6875 10.4375 L 8.1875 10.4375 C 8.5 10.4375 8.75 10.1875 8.75 9.875 L 8.75 3.125 C 8.75 2.8125 8.5 2.5625 8.1875 2.5625 L 4.25 2.5625 L 4.25 1.71875 C 4.25 1.5625 3.96875 1.4375 3.96875 1.4375 Z M 3.96875 3.6875 L 7.90625 3.6875 C 8.0625 3.6875 8.1875 3.8125 8.1875 3.96875 L 8.1875 5.65625 C 8.1875 5.8125 8.0625 5.9375 7.90625 5.9375 L 3.96875 5.9375 C 3.8125 5.9375 3.6875 5.8125 3.6875 5.65625 L 3.6875 3.96875 C 3.6875 3.8125 3.8125 3.6875 3.96875 3.6875 Z M 3.6875 6.5 L 4.8125 6.5 L 4.8125 7.0625 L 3.6875 7.0625 Z M 5.375 6.5 L 6.5 6.5 L 6.5 7.0625 L 5.375 7.0625 Z M 7.0625 6.5 L 8.1875 6.5 L 8.1875 7.0625 L 7.0625 7.0625 Z M 3.6875 7.625 L 4.8125 7.625 L 4.8125 8.1875 L 3.6875 8.1875 Z M 5.375 7.625 L 6.5 7.625 L 6.5 8.1875 L 5.375 8.1875 Z M 7.0625 7.625 L 8.1875 7.625 L 8.1875 8.1875 L 7.0625 8.1875 Z M 3.6875 8.75 L 4.8125 8.75 L 4.8125 9.3125 L 3.6875 9.3125 Z M 5.375 8.75 L 6.5 8.75 L 6.5 9.3125 L 5.375 9.3125 Z M 7.0625 8.75 L 8.1875 8.75 L 8.1875 9.3125 L 7.0625 9.3125 Z M 7.0625 8.75 "/>
</g>
</svg>
