<svg height="16" width="16" xmlns="http://www.w3.org/2000/svg" xmlns:sodipodi="http://sodipodi.sourceforge.net/DTD/sodipodi-0.dtd" xmlns:inkscape="http://www.inkscape.org/namespaces/inkscape">
 <g inkscape:label="Calque 1" inkscape:groupmode="layer">
  <path d="m 5.2019209,-11.889421 c -0.021495,0.009 -0.04239,0.01947 -0.0625,0.03125 l -1.96875,1.96875 c -0.098992,0.09781 -0.156583,0.236032 -0.15625,0.375 l 0,1.53125 -1.8125,1.78125 c -0.26922787,0.269227 -0.26922787,0.730772 0,1 0.2692279,0.269228 0.7307721,0.269228 1,0 l 1.78125,-1.8125 1.53125,0 c 0.1390676,-5.6e-5 0.2772321,-0.05762 0.375,-0.15625 l 1.96875,-1.96875 c 0.010849,-0.01 0.021278,-0.0204 0.03125,-0.03125 3.103e-4,-0.01041 3.103e-4,-0.02084 0,-0.03125 l -2.6875,-2.6875 z" display="inline" fill="#000000" fill-opacity="1" stroke="none" opacity="0.3" sodipodi:nodetypes="ccccccscccccscc"/>
  <path d="m 5.9054043,19.128126 -4.7034834,4.682007 c -0.26922788,0.269227 -0.26922788,0.718718 0,0.987946 0.2692279,0.269228 0.7187184,0.269228 0.9879463,0 L 6.979259,20.008687 C 6.5938706,19.746431 6.2444208,19.445869 5.9054043,19.128126 z" display="inline" fill="#ff0000" fill-opacity="1" stroke="none" opacity="0.2" sodipodi:nodetypes="ccsccc"/>
  <path d="M 10.875,8.46875 A 0.53394727,0.53394727 0 0 0 10.625,8.625 l -2,2 A 0.53394727,0.53394727 0 0 0 8.46875,11 l 0,2 A 0.53394727,0.53394727 0 0 0 9,13.53125 l 2,0 A 0.53394727,0.53394727 0 0 0 11.375,13.375 l 2,-2 a 0.53394727,0.53394727 0 0 0 0,-0.75 l -2,-2 a 0.53394727,0.53394727 0 0 0 -0.5,-0.15625 z" display="inline" fill="#ff0000" stroke="none" opacity="0.2" sodipodi:type="inkscape:offset" inkscape:original="M 11 9 L 9 11 L 9 13 L 11 13 L 13 11 L 11 9 z " inkscape:radius="0.53389388" transform="matrix(0.98812 0 0 0.98537 -4.368 8.667)"/>
  <path d="m 10.785125,-12.097392 c 0.0215,-0.009 0.04239,-0.01947 0.0625,-0.03125 l 1.96875,-1.96875 c 0.09899,-0.09781 0.156583,-0.236033 0.15625,-0.375 l 0,-1.53125 1.8125,-1.781251 c 0.269228,-0.269227 0.269228,-0.730772 0,-1 -0.269227,-0.269228 -0.730772,-0.269228 -1,0 l -1.78125,1.812501 -1.53125,0 c -0.139067,5.6e-5 -0.277232,0.05762 -0.375,0.15625 l -1.9687496,1.96875 c -0.010849,0.01 -0.021278,0.0204 -0.03125,0.03125 -3.103e-4,0.01041 -3.103e-4,0.02084 0,0.03125 l 2.6874996,2.6875 z" display="inline" fill="#000000" fill-opacity="1" stroke="none" opacity="0.3" sodipodi:nodetypes="ccccccscccccscc"/>
  <path d="M 4.84375,7.9999999 C 4.7353462,8.0356834 4.637002,8.1012462 4.5625,8.1874999 L 2.1875,10.5625 C 2.0716445,10.676927 2.0028631,10.837417 2,11 l 0,1.875 -1.75,1.75 c -0.31441823,0.314417 -0.31441823,0.810582 0,1.125 0.31441825,0.314419 0.8105817,0.314419 1.125,0 L 3.125,14 5,14 c 0.1626987,-0.0033 0.3231288,-0.07206 0.4375,-0.1875 l 2.375,-2.375 c 0.2239116,-0.232328 0.2239116,-0.642672 0,-0.875 L 5.4375,8.1874999 C 5.2895711,8.0291194 5.0561351,7.9554027 4.84375,7.9999999 z" display="inline" fill="#cccccc" fill-opacity="1" stroke="none" opacity="0.45" sodipodi:nodetypes="ccccccscccccccc"/>
  <path d="m 11.159583,7.9722659 c 0.108404,-0.035684 0.206748,-0.1012463 0.28125,-0.1875 l 2.375,-2.375 c 0.115855,-0.1144269 0.184637,-0.2749168 0.1875,-0.4375 l 0,-1.875 1.75,-1.7499997 c 0.314418,-0.314417 0.314418,-0.81058195 0,-1.12499995 -0.314418,-0.314419 -0.810582,-0.314419 -1.125,0 l -1.75,1.74999995 -1.875,0 c -0.162699,0.0033 -0.323129,0.072059 -0.4375,0.1874997 l -2.375,2.375 c -0.2239116,0.2323278 -0.2239116,0.6426722 0,0.875 l 2.375,2.375 c 0.147929,0.1583805 0.381365,0.2320972 0.59375,0.1875 z" display="inline" fill="#cccccc" fill-opacity="1" stroke="none" opacity="0.45" sodipodi:nodetypes="ccccccscccccccc"/>
 </g>
</svg>
