<svg height="16" width="16" xmlns="http://www.w3.org/2000/svg" xmlns:xlink="http://www.w3.org/1999/xlink" xmlns:sodipodi="http://sodipodi.sourceforge.net/DTD/sodipodi-0.dtd" xmlns:inkscape="http://www.inkscape.org/namespaces/inkscape">
 <defs>
  <path d="M 7,6 A 3,3 0 1 1 1,6 3,3 0 1 1 7,6 z" stroke-width="2" display="inline" fill="#000000" color="#000000" fill-opacity="1" stroke="none" fill-rule="nonzero" id="SVGCleanerId_0" visibility="visible"/>
 </defs>
 <g inkscape:label="Calque 1" inkscape:groupmode="layer">
  <use xlink:href="#SVGCleanerId_0" sodipodi:type="arc" sodipodi:cx="4" sodipodi:cy="6" sodipodi:rx="3" sodipodi:ry="3" transform="matrix(1 0 0 1 -13 0)"/>
  <use xlink:href="#SVGCleanerId_0" sodipodi:type="arc" sodipodi:cx="4" sodipodi:cy="6" sodipodi:rx="3" sodipodi:ry="3" transform="matrix(1.5 0 0 1.5 -18.5 -4.5)"/>
  <use xlink:href="#SVGCleanerId_0" sodipodi:type="arc" sodipodi:cx="4" sodipodi:cy="6" sodipodi:rx="3" sodipodi:ry="3" transform="matrix(0.83333 0 0 0.83333 -19.833 1.5)"/>
  <use xlink:href="#SVGCleanerId_0" sodipodi:type="arc" sodipodi:cx="4" sodipodi:cy="6" sodipodi:rx="3" sodipodi:ry="3" transform="matrix(1 0 0 1 -12 -20)"/>
  <use xlink:href="#SVGCleanerId_0" sodipodi:type="arc" sodipodi:cx="4" sodipodi:cy="6" sodipodi:rx="3" sodipodi:ry="3" transform="matrix(1.5 0 0 1.5 -18.5 -24.5)"/>
  <use xlink:href="#SVGCleanerId_0" sodipodi:type="arc" sodipodi:cx="4" sodipodi:cy="6" sodipodi:rx="3" sodipodi:ry="3" transform="matrix(1 0 0 1 -12 20)"/>
  <use xlink:href="#SVGCleanerId_0" sodipodi:type="arc" sodipodi:cx="4" sodipodi:cy="6" sodipodi:rx="3" sodipodi:ry="3" transform="matrix(1.5 0 0 1.5 -18.5 15.5)"/>
  <use xlink:href="#SVGCleanerId_0" sodipodi:type="arc" sodipodi:cx="4" sodipodi:cy="6" sodipodi:rx="3" sodipodi:ry="3" transform="matrix(0.83333 0 0 0.83333 -19.833 21.5)"/>
  <use xlink:href="#SVGCleanerId_0" sodipodi:type="arc" sodipodi:cx="4" sodipodi:cy="6" sodipodi:rx="3" sodipodi:ry="3" transform="matrix(1.16667 0 0 1.16667 -33.17 -1.5)"/>
  <use xlink:href="#SVGCleanerId_0" sodipodi:type="arc" sodipodi:cx="4" sodipodi:cy="6" sodipodi:rx="3" sodipodi:ry="3" transform="matrix(1.5 0 0 1.5 -38.5 -4.5)"/>
  <use xlink:href="#SVGCleanerId_0" sodipodi:type="arc" sodipodi:cx="4" sodipodi:cy="6" sodipodi:rx="3" sodipodi:ry="3" transform="matrix(0.83333 0 0 0.83333 -39.833 1.5)"/>
  <path d="M 7.5 0 C 5.164201 0 3.253781 1.7851525 3.03125 4.0625 C 1.877066 4.2838766 1 5.2812563 1 6.5 C 1 7.8807119 2.119288 9 3.5 9 L 4.71875 9 L 5.03125 7.75 A 0.99228672 0.99228672 0 0 1 5.90625 7 A 0.99228672 0.99228672 0 0 1 6 7 L 9 7 A 0.99228672 0.99228672 0 0 1 9.875 8.4375 L 9.59375 9 L 10.09375 9 L 11.5 9 C 13.432997 9 15 7.4329967 15 5.5 C 15 3.5670033 13.432997 2 11.5 2 C 11.415681 2 11.332827 2.0253863 11.25 2.03125 C 10.446562 0.80268909 9.077518 0 7.5 0 z " stroke-width="2" display="inline" fill="#cccccc" color="#000000" fill-opacity="1" fill-rule="nonzero" stroke="none" visibility="visible"/>
  <path d="m 6,8 -1,4 2,0 -1,4 4,-6 -2,0 1,-2 z" fill="#cccccc" fill-opacity="1" stroke="none" sodipodi:nodetypes="cccccccc" inkscape:connector-curvature="0"/>
  <path d="m -32.5,20 c -2.335799,0 -4.246219,1.785153 -4.46875,4.0625 C -38.122934,24.283877 -39,25.281256 -39,26.5 c 0,1.380712 1.119288,2.5 2.5,2.5 l 4,0 4,0 c 1.932997,0 3.5,-1.567003 3.5,-3.5 0,-1.932997 -1.567003,-3.5 -3.5,-3.5 -0.08432,0 -0.167173,0.02539 -0.25,0.03125 C -29.553438,20.802689 -30.922482,20 -32.5,20 z" stroke-width="2" display="inline" fill="#000000" color="#000000" fill-opacity="1" fill-rule="nonzero" stroke="none" visibility="visible" inkscape:connector-curvature="0"/>
 </g>
</svg>
