<svg height="96" width="96" xmlns="http://www.w3.org/2000/svg" xmlns:xlink="http://www.w3.org/1999/xlink" xmlns:sodipodi="http://sodipodi.sourceforge.net/DTD/sodipodi-0.dtd" xmlns:inkscape="http://www.inkscape.org/namespaces/inkscape">
 <defs>
  <linearGradient id="linearGradient3824">
   <stop stop-color="#e4e4e4" stop-opacity="1"/>
   <stop stop-color="#989898" stop-opacity="1" offset="1"/>
  </linearGradient>
  <linearGradient id="linearGradient3763">
   <stop stop-color="#dadada" stop-opacity="1"/>
   <stop stop-color="#ffffff" stop-opacity="1" offset="0.391"/>
   <stop stop-color="#b9b9b9" stop-opacity="1" offset="1"/>
  </linearGradient>
  <linearGradient id="linearGradient3755">
   <stop stop-color="#ffffff" stop-opacity="1"/>
   <stop stop-color="#ffffff" stop-opacity="0" offset="1"/>
  </linearGradient>
  <linearGradient id="linearGradient4120">
   <stop stop-color="#ffffff" stop-opacity="1"/>
   <stop stop-color="#989898" stop-opacity="1" offset="1"/>
  </linearGradient>
  <linearGradient x2="0" xlink:href="#linearGradient3755" y1="6" y2="63.893" gradientUnits="userSpaceOnUse" id="linearGradient3188"/>
  <filter x="-0.192" y="-0.192" height="1.384" color-interpolation-filters="sRGB" id="filter3794" width="1.384">
   <feGaussianBlur stdDeviation="5.28"/>
  </filter>
  <linearGradient x2="0" xlink:href="#linearGradient3755" y1="20.221" y2="138.66" gradientUnits="userSpaceOnUse" id="linearGradient3613"/>
  <radialGradient cy="90.17" r="42" xlink:href="#linearGradient3755" gradientUnits="userSpaceOnUse" id="radialGradient3619" cx="48" gradientTransform="matrix(1.15731 0 0 0.99591 -7.551 0.197)"/>
  <clipPath id="clipPath3613">
   <use xlink:href="#SVGCleanerId_0"/>
  </clipPath>
  <linearGradient x2="0" y1="90" y2="5.988" gradientUnits="userSpaceOnUse" id="linearGradient3617">
   <stop stop-color="#b9b9b9" stop-opacity="1"/>
   <stop stop-color="#dedede" stop-opacity="1" offset="1"/>
  </linearGradient>
  <linearGradient x1="15" x2="81" gradientUnits="userSpaceOnUse" id="linearGradient3628" gradientTransform="matrix(0.9697 0 0 0.9697 -94.55 1.455)">
   <stop stop-color="#808080" stop-opacity="1"/>
   <stop stop-color="#d0d0d0" stop-opacity="1" offset="1"/>
  </linearGradient>
  <linearGradient x1="82" x2="88" xlink:href="#linearGradient3763" gradientUnits="userSpaceOnUse" id="linearGradient3867" gradientTransform="matrix(0.66667 0 0 1.5 23.333 -84)"/>
  <linearGradient x1="-83" x2="-15" gradientUnits="userSpaceOnUse" id="linearGradient3748" gradientTransform="matrix(1 0 0 1 1 1)">
   <stop stop-color="#000000" stop-opacity="1"/>
   <stop stop-color="#000000" stop-opacity="0" offset="1"/>
  </linearGradient>
  <linearGradient x2="0" xlink:href="#linearGradient3755" y1="15" y2="104.2" gradientUnits="userSpaceOnUse" id="linearGradient3761"/>
  <linearGradient x1="82" x2="88" xlink:href="#linearGradient3763" gradientUnits="userSpaceOnUse" id="linearGradient3779" gradientTransform="matrix(0.66667 0 0 1.5 23.333 -48)"/>
  <radialGradient cy="43.639" r="11" gradientUnits="userSpaceOnUse" id="radialGradient3816" cx="57" gradientTransform="matrix(1.42477 0 0 0.51299 -24.21 14.391)">
   <stop stop-color="#9ae8fb" stop-opacity="1"/>
   <stop stop-color="#50bad4" stop-opacity="1" offset="1"/>
  </radialGradient>
  <linearGradient x2="0" xlink:href="#linearGradient3824" y1="40.798" y2="30.783" gradientUnits="userSpaceOnUse" id="linearGradient3822" gradientTransform="matrix(1 0 0 1 0 -2)"/>
  <linearGradient x1="49.914" x2="49.929" y1="32.34" y2="39.28" gradientUnits="userSpaceOnUse" id="linearGradient3837" gradientTransform="matrix(1 0 0 1 0 -2)">
   <stop stop-color="#267387" stop-opacity="1"/>
   <stop stop-color="#5bb9d2" stop-opacity="1" offset="1"/>
  </linearGradient>
  <linearGradient x2="0" xlink:href="#linearGradient2949" y1="46.02" y2="41.967" gradientUnits="userSpaceOnUse" id="linearGradient3860" gradientTransform="matrix(1 0 0 1 0 -88)"/>
  <linearGradient id="linearGradient2949">
   <stop stop-color="#323232" stop-opacity="1"/>
   <stop stop-color="#505050" stop-opacity="1" offset="1"/>
  </linearGradient>
  <linearGradient x2="0" xlink:href="#linearGradient2949" y1="46.02" y2="41.967" gradientUnits="userSpaceOnUse" id="linearGradient4016" gradientTransform="matrix(1 0 0 1 0 -94)"/>
  <linearGradient x2="0" xlink:href="#linearGradient2949" y1="46.02" y2="41.967" gradientUnits="userSpaceOnUse" id="linearGradient4046" gradientTransform="matrix(1 0 0 1 0 -100)"/>
  <linearGradient x2="0" xlink:href="#linearGradient2949" y1="46.02" y2="41.967" gradientUnits="userSpaceOnUse" id="linearGradient4077" gradientTransform="matrix(1 0 0 1 0 -106)"/>
  <linearGradient x1="24.12" x2="36.618" xlink:href="#linearGradient4120" gradientUnits="userSpaceOnUse" id="linearGradient3820"/>
  <linearGradient x1="27" x2="35" xlink:href="#linearGradient3755" y1="52.36" y2="52" gradientUnits="userSpaceOnUse" id="linearGradient3841" gradientTransform="matrix(1 0 0 1 1 0)"/>
  <linearGradient x1="27" x2="33" xlink:href="#linearGradient4120" gradientUnits="userSpaceOnUse" id="linearGradient3849" gradientTransform="matrix(1 0 0 1 1 0)"/>
  <linearGradient x1="28.805" x2="36.618" xlink:href="#linearGradient3824" y1="36.796" y2="38.36" gradientUnits="userSpaceOnUse" id="linearGradient3891"/>
  <filter x="-0.3" y="-0.075" height="1.15" color-interpolation-filters="sRGB" id="filter3901" width="1.6">
   <feGaussianBlur stdDeviation="0.75"/>
  </filter>
  <radialGradient cy="47" r="3" xlink:href="#linearGradient3755" gradientUnits="userSpaceOnUse" id="radialGradient3916" cx="53"/>
  <radialGradient cy="47" r="3" xlink:href="#linearGradient3755" gradientUnits="userSpaceOnUse" id="radialGradient3920" cx="53" gradientTransform="matrix(1 0 0 1 8 0)"/>
  <radialGradient cy="47" r="3" xlink:href="#linearGradient3755" gradientUnits="userSpaceOnUse" id="radialGradient3926" cx="53" gradientTransform="matrix(1 0 0 1 0 6)"/>
  <radialGradient cy="47" r="3" xlink:href="#linearGradient3755" gradientUnits="userSpaceOnUse" id="radialGradient3928" cx="53" gradientTransform="matrix(1 0 0 1 8 6)"/>
  <radialGradient cy="47" r="3" xlink:href="#linearGradient3755" gradientUnits="userSpaceOnUse" id="radialGradient3934" cx="53" gradientTransform="matrix(1 0 0 1 0 12)"/>
  <radialGradient cy="47" r="3" xlink:href="#linearGradient3755" gradientUnits="userSpaceOnUse" id="radialGradient3936" cx="53" gradientTransform="matrix(1 0 0 1 8 12)"/>
  <linearGradient x2="0" y1="92.54" y2="7.02" gradientUnits="userSpaceOnUse" id="ButtonShadow-0" gradientTransform="matrix(1.0059 0 0 0.99417 100 0)">
   <stop stop-color="#000000" stop-opacity="1"/>
   <stop stop-color="#000000" stop-opacity="0.588" offset="1"/>
  </linearGradient>
  <linearGradient x2="0" xlink:href="#ButtonShadow-0" y1="6.132" y2="90.24" gradientUnits="userSpaceOnUse" id="linearGradient3780" gradientTransform="matrix(1.02381 0 0 1.0119 -1.143 -98.07)"/>
  <linearGradient x2="0" xlink:href="#ButtonShadow-0" y1="6.132" y2="90.24" gradientUnits="userSpaceOnUse" id="linearGradient3721" gradientTransform="matrix(1 0 0 1 0 -97)"/>
  <rect x="6" rx="6" y="6" height="84" id="SVGCleanerId_0" width="84"/>
  <path d="m 36.618029,38.35817 a 6.250319,6.250319 0 1 1 -12.500638,0 6.250319,6.250319 0 1 1 12.500638,0 z" fill-opacity="1" stroke="none" id="SVGCleanerId_1"/>
 </defs>
 <g display="inline">
  <path d="m 12,-95.03125 c -5.5110903,0 -10.03125,4.52016 -10.03125,10.03125 l 0,71 c 0,5.5110902 4.5201598,10.03125 10.03125,10.03125 l 72,0 c 5.51109,0 10.03125,-4.5201597 10.03125,-10.03125 l 0,-71 c 0,-5.51109 -4.52016,-10.03125 -10.03125,-10.03125 l -72,0 z" fill="url(#linearGradient3780)" fill-opacity="1" fill-rule="nonzero" stroke="none" opacity="0.08" transform="matrix(1 0 0 -1 0 0)"/>
  <path d="m 12,-94.03125 c -4.971633,0 -9.03125,4.059617 -9.03125,9.03125 l 0,71 c 0,4.9716329 4.0596171,9.03125 9.03125,9.03125 l 72,0 c 4.971633,0 9.03125,-4.059617 9.03125,-9.03125 l 0,-71 c 0,-4.971633 -4.059617,-9.03125 -9.03125,-9.03125 l -72,0 z" fill="url(#linearGradient3780)" fill-opacity="1" fill-rule="nonzero" stroke="none" opacity="0.1" transform="matrix(1 0 0 -1 0 0)"/>
  <path d="m 12,-93 c -4.4091333,0 -8,3.590867 -8,8 l 0,71 c 0,4.4091333 3.5908667,8 8,8 l 72,0 c 4.409133,0 8,-3.5908667 8,-8 l 0,-71 c 0,-4.409133 -3.590867,-8 -8,-8 l -72,0 z" fill="url(#linearGradient3780)" fill-opacity="1" fill-rule="nonzero" stroke="none" opacity="0.2" transform="matrix(1 0 0 -1 0 0)"/>
  <rect x="5" rx="7" y="-92" fill="url(#linearGradient3780)" fill-opacity="1" fill-rule="nonzero" stroke="none" height="85" opacity="0.3" width="86" transform="matrix(1 0 0 -1 0 0)"/>
  <rect x="6" rx="6" y="-91" fill="url(#linearGradient3721)" fill-opacity="1" fill-rule="nonzero" stroke="none" height="84" opacity="0.45" width="84" transform="matrix(1 0 0 -1 0 0)"/>
 </g>
 <g display="inline">
  <use xlink:href="#SVGCleanerId_0" fill="url(#linearGradient3617)" fill-opacity="1" fill-rule="nonzero" stroke="none"/>
  <path d="M 12,6 C 8.676,6 6,8.676 6,12 l 0,2 0,68 0,2 c 0,0.334721 0.04135,0.6507 0.09375,0.96875 0.0487,0.295596 0.09704,0.596915 0.1875,0.875 0.00988,0.03038 0.020892,0.0636 0.03125,0.09375 0.098865,0.287771 0.2348802,0.547452 0.375,0.8125 0.1445918,0.273507 0.3156161,0.535615 0.5,0.78125 0.1843839,0.245635 0.3737765,0.473472 0.59375,0.6875 0.439947,0.428056 0.94291,0.814526 1.5,1.09375 0.278545,0.139612 0.5734731,0.246947 0.875,0.34375 -0.2562018,-0.100222 -0.4867109,-0.236272 -0.71875,-0.375 -0.00741,-0.0044 -0.023866,0.0045 -0.03125,0 -0.031933,-0.0193 -0.062293,-0.04251 -0.09375,-0.0625 -0.120395,-0.0767 -0.2310226,-0.163513 -0.34375,-0.25 -0.1061728,-0.0808 -0.2132809,-0.161112 -0.3125,-0.25 C 8.4783201,88.557317 8.3087904,88.373362 8.15625,88.1875 8.0486711,88.057245 7.9378561,87.922215 7.84375,87.78125 7.818661,87.74287 7.805304,87.69538 7.78125,87.65625 7.716487,87.553218 7.6510225,87.451733 7.59375,87.34375 7.4927417,87.149044 7.3880752,86.928049 7.3125,86.71875 7.30454,86.69694 7.288911,86.6782 7.28125,86.65625 7.2494249,86.5643 7.2454455,86.469419 7.21875,86.375 7.1884177,86.268382 7.1483606,86.171969 7.125,86.0625 7.0521214,85.720988 7,85.364295 7,85 L 7,83 7,15 7,13 C 7,10.218152 9.2181517,8 12,8 l 2,0 68,0 2,0 c 2.781848,0 5,2.218152 5,5 l 0,2 0,68 0,2 c 0,0.364295 -0.05212,0.720988 -0.125,1.0625 -0.04415,0.206893 -0.08838,0.397658 -0.15625,0.59375 -0.0077,0.02195 -0.0233,0.04069 -0.03125,0.0625 -0.06274,0.173739 -0.138383,0.367449 -0.21875,0.53125 -0.04158,0.0828 -0.07904,0.169954 -0.125,0.25 -0.0546,0.09721 -0.126774,0.18835 -0.1875,0.28125 -0.09411,0.140965 -0.204921,0.275995 -0.3125,0.40625 -0.143174,0.17445 -0.303141,0.346998 -0.46875,0.5 -0.01117,0.0102 -0.01998,0.02115 -0.03125,0.03125 -0.138386,0.125556 -0.285091,0.234436 -0.4375,0.34375 -0.102571,0.07315 -0.204318,0.153364 -0.3125,0.21875 -0.0074,0.0045 -0.02384,-0.0044 -0.03125,0 -0.232039,0.138728 -0.462548,0.274778 -0.71875,0.375 0.301527,-0.0968 0.596455,-0.204138 0.875,-0.34375 0.55709,-0.279224 1.060053,-0.665694 1.5,-1.09375 0.219973,-0.214028 0.409366,-0.441865 0.59375,-0.6875 0.184384,-0.245635 0.355408,-0.507743 0.5,-0.78125 0.14012,-0.265048 0.276135,-0.524729 0.375,-0.8125 0.01041,-0.03078 0.02133,-0.06274 0.03125,-0.09375 0.09046,-0.278085 0.1388,-0.579404 0.1875,-0.875 C 89.95865,84.6507 90,84.334721 90,84 l 0,-2 0,-68 0,-2 C 90,8.676 87.324,6 84,6 L 12,6 z" fill="url(#linearGradient3188)" fill-opacity="1" fill-rule="nonzero" stroke="none" opacity="0.5" inkscape:connector-curvature="0"/>
  <path d="M 12,90 C 8.676,90 6,87.324 6,84 L 6,82 6,14 6,12 c 0,-0.334721 0.04135,-0.6507 0.09375,-0.96875 0.0487,-0.295596 0.09704,-0.596915 0.1875,-0.875 C 6.29113,10.12587 6.302142,10.09265 6.3125,10.0625 6.411365,9.774729 6.5473802,9.515048 6.6875,9.25 6.8320918,8.976493 7.0031161,8.714385 7.1875,8.46875 7.3718839,8.223115 7.5612765,7.995278 7.78125,7.78125 8.221197,7.353194 8.72416,6.966724 9.28125,6.6875 9.559795,6.547888 9.8547231,6.440553 10.15625,6.34375 9.9000482,6.443972 9.6695391,6.580022 9.4375,6.71875 c -0.00741,0.0044 -0.023866,-0.0045 -0.03125,0 -0.031933,0.0193 -0.062293,0.04251 -0.09375,0.0625 -0.120395,0.0767 -0.2310226,0.163513 -0.34375,0.25 -0.1061728,0.0808 -0.2132809,0.161112 -0.3125,0.25 C 8.4783201,7.442683 8.3087904,7.626638 8.15625,7.8125 8.0486711,7.942755 7.9378561,8.077785 7.84375,8.21875 7.818661,8.25713 7.805304,8.30462 7.78125,8.34375 7.716487,8.446782 7.6510225,8.548267 7.59375,8.65625 7.4927417,8.850956 7.3880752,9.071951 7.3125,9.28125 7.30454,9.30306 7.288911,9.3218 7.28125,9.34375 7.2494249,9.4357 7.2454455,9.530581 7.21875,9.625 7.1884177,9.731618 7.1483606,9.828031 7.125,9.9375 7.0521214,10.279012 7,10.635705 7,11 l 0,2 0,68 0,2 c 0,2.781848 2.2181517,5 5,5 l 2,0 68,0 2,0 c 2.781848,0 5,-2.218152 5,-5 l 0,-2 0,-68 0,-2 C 89,10.635705 88.94788,10.279012 88.875,9.9375 88.83085,9.730607 88.78662,9.539842 88.71875,9.34375 88.71105,9.3218 88.69545,9.30306 88.6875,9.28125 88.62476,9.107511 88.549117,8.913801 88.46875,8.75 88.42717,8.6672 88.38971,8.580046 88.34375,8.5 88.28915,8.40279 88.216976,8.31165 88.15625,8.21875 88.06214,8.077785 87.951329,7.942755 87.84375,7.8125 87.700576,7.63805 87.540609,7.465502 87.375,7.3125 87.36383,7.3023 87.35502,7.29135 87.34375,7.28125 87.205364,7.155694 87.058659,7.046814 86.90625,6.9375 86.803679,6.86435 86.701932,6.784136 86.59375,6.71875 c -0.0074,-0.0045 -0.02384,0.0044 -0.03125,0 -0.232039,-0.138728 -0.462548,-0.274778 -0.71875,-0.375 0.301527,0.0968 0.596455,0.204138 0.875,0.34375 0.55709,0.279224 1.060053,0.665694 1.5,1.09375 0.219973,0.214028 0.409366,0.441865 0.59375,0.6875 0.184384,0.245635 0.355408,0.507743 0.5,0.78125 0.14012,0.265048 0.276135,0.524729 0.375,0.8125 0.01041,0.03078 0.02133,0.06274 0.03125,0.09375 0.09046,0.278085 0.1388,0.579404 0.1875,0.875 C 89.95865,11.3493 90,11.665279 90,12 l 0,2 0,68 0,2 c 0,3.324 -2.676,6 -6,6 l -72,0 z" fill="url(#radialGradient3619)" fill-opacity="1" fill-rule="nonzero" stroke="none" opacity="0.25" inkscape:connector-curvature="0"/>
 </g>
 <g display="inline">
  <path d="m -79,13 c -2.204152,0 -4,1.795848 -4,4 l 0,62 c 0,2.204152 1.795848,4 4,4 l 60,0 c 2.204152,0 4,-1.795848 4,-4 l 0,-62 c 0,-2.204152 -1.795848,-4 -4,-4 l -60,0 z" fill="url(#linearGradient3748)" fill-opacity="1" fill-rule="nonzero" stroke="none" opacity="0.1" transform="matrix(0 -1 1 0 0 0)"/>
  <rect x="-82" rx="3" y="14" fill="url(#linearGradient3748)" fill-opacity="1" fill-rule="nonzero" stroke="none" height="68" opacity="0.2" width="66" transform="matrix(0 -1 1 0 0 0)"/>
  <rect x="-81" rx="2" y="15" fill="#000000" fill-opacity="1" fill-rule="nonzero" stroke="none" height="66" opacity="0.4" width="66" transform="matrix(0 -1 1 0 0 0)"/>
  <rect x="-80" y="16" fill="url(#linearGradient3628)" fill-opacity="1" fill-rule="nonzero" stroke="none" height="64" width="64" transform="matrix(0 -1 1 0 0 0)"/>
  <rect x="77" rx="2" y="23" fill="#000000" fill-opacity="1" stroke="none" height="14" opacity="0.4" width="6"/>
  <path d="m 16,16 0,64 64,0 0,-64 -64,0 z m 2,2 60,0 0,60 -60,0 0,-60 z" fill="url(#linearGradient3761)" fill-opacity="1" fill-rule="nonzero" stroke="none" opacity="0.5" inkscape:connector-curvature="0"/>
  <rect x="78" rx="1" y="24" fill="url(#linearGradient3867)" fill-opacity="1" stroke="none" height="12" width="4"/>
  <rect x="77" rx="2" y="59" fill="#000000" fill-opacity="1" stroke="none" height="14" opacity="0.4" width="6"/>
  <rect x="78" rx="1" y="60" fill="url(#linearGradient3779)" fill-opacity="1" stroke="none" height="12" width="4"/>
  <rect x="78" y="30" fill="#000000" fill-opacity="1" stroke="none" height="1" opacity="0.2" width="4"/>
  <rect x="78" y="66" fill="#000000" fill-opacity="1" stroke="none" height="1" opacity="0.2" width="4"/>
  <path d="m 79,24 c -0.554,0 -1,0.446 -1,1 l 0,1 c 0,-0.554 0.446,-1 1,-1 l 2,0 c 0.554,0 1,0.446 1,1 l 0,-1 c 0,-0.554 -0.446,-1 -1,-1 l -2,0 z" fill="#ffffff" fill-opacity="1" stroke="none" inkscape:connector-curvature="0"/>
  <path d="m 79,60 c -0.554,0 -1,0.446 -1,1 l 0,1 c 0,-0.554 0.446,-1 1,-1 l 2,0 c 0.554,0 1,0.446 1,1 l 0,-1 c 0,-0.554 -0.446,-1 -1,-1 l -2,0 z" fill="#ffffff" fill-opacity="1" stroke="none" inkscape:connector-curvature="0"/>
 </g>
 <rect stroke="#ffffff" stroke-dasharray="none" clip-path="url(#clipPath3613)" stroke-dashoffset="0" stroke-linecap="round" height="66" stroke-linejoin="miter" stroke-miterlimit="4" stroke-opacity="1" stroke-width="0.5" display="inline" width="66" fill="url(#linearGradient3613)" fill-opacity="1" opacity="0.1" x="15" fill-rule="nonzero" filter="url(#filter3794)" y="15" rx="12"/>
 <g display="inline">
  <rect x="32" rx="1" y="42" fill="#000000" fill-opacity="1" stroke="none" height="24" filter="url(#filter3901)" opacity="0.1" width="6"/>
  <use xlink:href="#SVGCleanerId_1" fill="#000000" opacity="0.15" transform="matrix(0 1.11994 1.11994 0 -11.959 3.99)"/>
  <use xlink:href="#SVGCleanerId_1" fill="#000000" opacity="0.4" transform="matrix(0 0.95995 0.95995 0 -5.822 9.848)"/>
  <rect x="45" rx="2" y="29" fill="url(#linearGradient3822)" fill-opacity="1" stroke="none" height="10" width="24"/>
  <rect x="46.5" stroke-opacity="1" stroke-width="1" rx="1" y="30.5" fill="url(#radialGradient3816)" fill-opacity="1" stroke="url(#linearGradient3837)" height="7" stroke-dasharray="none" width="21" stroke-miterlimit="4"/>
  <rect x="46" rx="0.5" y="-46" fill="url(#linearGradient3860)" fill-opacity="1" stroke="none" height="4" width="6" transform="matrix(1 0 0 -1 0 0)"/>
  <text x="48.37" font-size="1.944" font-stretch="normal" font-style="normal" font-variant="normal" y="34.947" font-weight="normal" text-anchor="start" line-height="125%" fill="#000000" fill-opacity="1" stroke="none" opacity="0.4" writing-mode="lr-tb" font-family="Lilliput Steps"><tspan x="48.37" y="34.947">ENTER CODE</tspan>
  </text>
  <path d="m 46,45.5 0,1 c 0,0.277 0.223,0.5 0.5,0.5 l 5,0 c 0.277,0 0.5,-0.223 0.5,-0.5 l 0,-1 c 0,0.277 -0.223,0.5 -0.5,0.5 l -5,0 C 46.223,46 46,45.777 46,45.5 z" fill="#000000" fill-opacity="1" stroke="none" opacity="0.2" inkscape:connector-curvature="0"/>
  <text x="49" font-size="3.444" font-stretch="normal" font-style="normal" y="45.19" font-variant="normal" font-weight="normal" text-anchor="middle" line-height="125%" fill="#ffffff" fill-opacity="1" stroke="none" writing-mode="lr-tb" font-family="Liberation Sans"><tspan x="49" y="45.19">7</tspan>
  </text>
  <rect x="54" rx="0.5" y="-46" fill="url(#linearGradient3860)" fill-opacity="1" stroke="none" height="4" width="6" transform="matrix(1 0 0 -1 0 0)"/>
  <path d="m 54,45.5 0,1 c 0,0.277 0.223,0.5 0.5,0.5 l 5,0 c 0.277,0 0.5,-0.223 0.5,-0.5 l 0,-1 c 0,0.277 -0.223,0.5 -0.5,0.5 l -5,0 C 54.223,46 54,45.777 54,45.5 z" fill="#000000" fill-opacity="1" stroke="none" opacity="0.2" inkscape:connector-curvature="0"/>
  <text x="57" font-size="3.444" font-stretch="normal" font-style="normal" y="45.19" font-variant="normal" font-weight="normal" text-anchor="middle" line-height="125%" fill="#ffffff" fill-opacity="1" stroke="none" writing-mode="lr-tb" font-family="Liberation Sans"><tspan x="57" y="45.19">8</tspan>
  </text>
  <rect x="62" rx="0.5" y="-46" fill="url(#linearGradient3860)" fill-opacity="1" stroke="none" height="4" width="6" transform="matrix(1 0 0 -1 0 0)"/>
  <path d="m 62,45.5 0,1 c 0,0.277 0.223,0.5 0.5,0.5 l 5,0 c 0.277,0 0.5,-0.223 0.5,-0.5 l 0,-1 c 0,0.277 -0.223,0.5 -0.5,0.5 l -5,0 C 62.223,46 62,45.777 62,45.5 z" fill="#000000" fill-opacity="1" stroke="none" opacity="0.2" inkscape:connector-curvature="0"/>
  <text x="65" font-size="3.444" font-stretch="normal" font-style="normal" y="45.19" font-variant="normal" font-weight="normal" text-anchor="middle" line-height="125%" fill="#ffffff" fill-opacity="1" stroke="none" writing-mode="lr-tb" font-family="Liberation Sans"><tspan x="65" y="45.19">9</tspan>
  </text>
  <rect x="46" rx="0.5" y="-52" fill="url(#linearGradient4016)" fill-opacity="1" stroke="none" height="4" width="6" transform="matrix(1 0 0 -1 0 0)"/>
  <path d="m 46,51.5 0,1 c 0,0.277 0.223,0.5 0.5,0.5 l 5,0 c 0.277,0 0.5,-0.223 0.5,-0.5 l 0,-1 c 0,0.277 -0.223,0.5 -0.5,0.5 l -5,0 C 46.223,52 46,51.777 46,51.5 z" fill="#000000" fill-opacity="1" stroke="none" opacity="0.2" inkscape:connector-curvature="0"/>
  <text x="49" font-size="3.444" font-stretch="normal" font-style="normal" y="51.19" font-variant="normal" font-weight="normal" text-anchor="middle" line-height="125%" fill="#ffffff" fill-opacity="1" stroke="none" writing-mode="lr-tb" font-family="Liberation Sans"><tspan x="49" y="51.19">4</tspan>
  </text>
  <rect x="54" rx="0.5" y="-52" fill="url(#linearGradient4016)" fill-opacity="1" stroke="none" height="4" width="6" transform="matrix(1 0 0 -1 0 0)"/>
  <path d="m 54,51.5 0,1 c 0,0.277 0.223,0.5 0.5,0.5 l 5,0 c 0.277,0 0.5,-0.223 0.5,-0.5 l 0,-1 c 0,0.277 -0.223,0.5 -0.5,0.5 l -5,0 C 54.223,52 54,51.777 54,51.5 z" fill="#000000" fill-opacity="1" stroke="none" opacity="0.2" inkscape:connector-curvature="0"/>
  <text x="57" font-size="3.444" font-stretch="normal" font-style="normal" y="51.19" font-variant="normal" font-weight="normal" text-anchor="middle" line-height="125%" fill="#ffffff" fill-opacity="1" stroke="none" writing-mode="lr-tb" font-family="Liberation Sans"><tspan x="57" y="51.19">5</tspan>
  </text>
  <rect x="62" rx="0.5" y="-52" fill="url(#linearGradient4016)" fill-opacity="1" stroke="none" height="4" width="6" transform="matrix(1 0 0 -1 0 0)"/>
  <path d="m 62,51.5 0,1 c 0,0.277 0.223,0.5 0.5,0.5 l 5,0 c 0.277,0 0.5,-0.223 0.5,-0.5 l 0,-1 c 0,0.277 -0.223,0.5 -0.5,0.5 l -5,0 C 62.223,52 62,51.777 62,51.5 z" fill="#000000" fill-opacity="1" stroke="none" opacity="0.2" inkscape:connector-curvature="0"/>
  <text x="65" font-size="3.444" font-stretch="normal" font-style="normal" y="51.19" font-variant="normal" font-weight="normal" text-anchor="middle" line-height="125%" fill="#ffffff" fill-opacity="1" stroke="none" writing-mode="lr-tb" font-family="Liberation Sans"><tspan x="65" y="51.19">6</tspan>
  </text>
  <rect x="46" rx="0.5" y="-58" fill="url(#linearGradient4046)" fill-opacity="1" stroke="none" height="4" width="6" transform="matrix(1 0 0 -1 0 0)"/>
  <path d="m 46,57.5 0,1 c 0,0.277 0.223,0.5 0.5,0.5 l 5,0 c 0.277,0 0.5,-0.223 0.5,-0.5 l 0,-1 c 0,0.277 -0.223,0.5 -0.5,0.5 l -5,0 C 46.223,58 46,57.777 46,57.5 z" fill="#000000" fill-opacity="1" stroke="none" opacity="0.2" inkscape:connector-curvature="0"/>
  <text x="49" font-size="3.444" font-stretch="normal" font-style="normal" y="57.19" font-variant="normal" font-weight="normal" text-anchor="middle" line-height="125%" fill="#ffffff" fill-opacity="1" stroke="none" writing-mode="lr-tb" font-family="Liberation Sans"><tspan x="49" y="57.19">1</tspan>
  </text>
  <rect x="54" rx="0.5" y="-58" fill="url(#linearGradient4046)" fill-opacity="1" stroke="none" height="4" width="6" transform="matrix(1 0 0 -1 0 0)"/>
  <path d="m 54,57.5 0,1 c 0,0.277 0.223,0.5 0.5,0.5 l 5,0 c 0.277,0 0.5,-0.223 0.5,-0.5 l 0,-1 c 0,0.277 -0.223,0.5 -0.5,0.5 l -5,0 C 54.223,58 54,57.777 54,57.5 z" fill="#000000" fill-opacity="1" stroke="none" opacity="0.2" inkscape:connector-curvature="0"/>
  <text x="57" font-size="3.444" font-stretch="normal" font-style="normal" y="57.19" font-variant="normal" font-weight="normal" text-anchor="middle" line-height="125%" fill="#ffffff" fill-opacity="1" stroke="none" writing-mode="lr-tb" font-family="Liberation Sans"><tspan x="57" y="57.19">2</tspan>
  </text>
  <rect x="62" rx="0.5" y="-58" fill="url(#linearGradient4046)" fill-opacity="1" stroke="none" height="4" width="6" transform="matrix(1 0 0 -1 0 0)"/>
  <path d="m 62,57.5 0,1 c 0,0.277 0.223,0.5 0.5,0.5 l 5,0 c 0.277,0 0.5,-0.223 0.5,-0.5 l 0,-1 c 0,0.277 -0.223,0.5 -0.5,0.5 l -5,0 C 62.223,58 62,57.777 62,57.5 z" fill="#000000" fill-opacity="1" stroke="none" opacity="0.2" inkscape:connector-curvature="0"/>
  <text x="65" font-size="3.444" font-stretch="normal" font-style="normal" y="57.19" font-variant="normal" font-weight="normal" text-anchor="middle" line-height="125%" fill="#ffffff" fill-opacity="1" stroke="none" writing-mode="lr-tb" font-family="Liberation Sans"><tspan x="65" y="57.19">3</tspan>
  </text>
  <rect x="46" rx="0.5" y="-64" fill="url(#linearGradient4077)" fill-opacity="1" stroke="none" height="4" width="6" transform="matrix(1 0 0 -1 0 0)"/>
  <path d="m 46,63.5 0,1 c 0,0.277 0.223,0.5 0.5,0.5 l 5,0 c 0.277,0 0.5,-0.223 0.5,-0.5 l 0,-1 c 0,0.277 -0.223,0.5 -0.5,0.5 l -5,0 C 46.223,64 46,63.777 46,63.5 z" fill="#000000" fill-opacity="1" stroke="none" opacity="0.2" inkscape:connector-curvature="0"/>
  <text x="49" font-size="3.444" font-stretch="normal" font-style="normal" y="63.19" font-variant="normal" font-weight="normal" text-anchor="middle" line-height="125%" fill="#ffffff" fill-opacity="1" stroke="none" writing-mode="lr-tb" font-family="Liberation Sans"><tspan x="49" y="63.19">*</tspan>
  </text>
  <rect x="54" rx="0.5" y="-64" fill="url(#linearGradient4077)" fill-opacity="1" stroke="none" height="4" width="6" transform="matrix(1 0 0 -1 0 0)"/>
  <path d="m 54,63.5 0,1 c 0,0.277 0.223,0.5 0.5,0.5 l 5,0 c 0.277,0 0.5,-0.223 0.5,-0.5 l 0,-1 c 0,0.277 -0.223,0.5 -0.5,0.5 l -5,0 C 54.223,64 54,63.777 54,63.5 z" fill="#000000" fill-opacity="1" stroke="none" opacity="0.2" inkscape:connector-curvature="0"/>
  <text x="57" font-size="3.444" font-stretch="normal" font-style="normal" y="63.19" font-variant="normal" font-weight="normal" text-anchor="middle" line-height="125%" fill="#ffffff" fill-opacity="1" stroke="none" writing-mode="lr-tb" font-family="Liberation Sans"><tspan x="57" y="63.19">0</tspan>
  </text>
  <rect x="62" rx="0.5" y="-64" fill="url(#linearGradient4077)" fill-opacity="1" stroke="none" height="4" width="6" transform="matrix(1 0 0 -1 0 0)"/>
  <path d="m 62,63.5 0,1 c 0,0.277 0.223,0.5 0.5,0.5 l 5,0 c 0.277,0 0.5,-0.223 0.5,-0.5 l 0,-1 c 0,0.277 -0.223,0.5 -0.5,0.5 l -5,0 C 62.223,64 62,63.777 62,63.5 z" fill="#000000" fill-opacity="1" stroke="none" opacity="0.2" inkscape:connector-curvature="0"/>
  <text x="65" font-size="3.444" font-stretch="normal" font-style="normal" y="63.19" font-variant="normal" font-weight="normal" text-anchor="middle" line-height="125%" fill="#ffffff" fill-opacity="1" stroke="none" writing-mode="lr-tb" font-family="Liberation Sans"><tspan x="65" y="63.19">#</tspan>
  </text>
  <use xlink:href="#SVGCleanerId_1" fill="url(#linearGradient3820)" transform="matrix(0 0.95995 0.95995 0 -5.822 8.848)"/>
  <path d="m 32,34 c -1.876884,0 -3.443707,1.287639 -3.875,3.03125 -0.632368,0.0919 -1.125,0.544818 -1.125,1.125 l 0,25.6875 C 27,64.490083 27.605083,65 28.34375,65 l 1,0 4.3125,0 1,0 C 35.394917,65 36,64.490083 36,63.84375 l 0,-25.6875 c 0,-0.02262 0.0014,-0.0402 0,-0.0625 7.22e-4,-0.03127 0,-0.06231 0,-0.09375 0,-2.209139 -1.790861,-4 -4,-4 z" fill="#000000" fill-opacity="1" stroke="none" opacity="0.15" inkscape:connector-curvature="0"/>
  <path d="M 28.34375,37 C 28.26815,37 28.197102,37.02077 28.125,37.03125 28.048651,37.339912 28,37.667745 28,38 c 0,0.03144 -7.22e-4,0.06248 0,0.09375 -0.0014,0.0223 0,0.03988 0,0.0625 l 0,25.6875 C 28,64.490083 28.605083,65 29.34375,65 l 4.3125,0 C 34.394917,65 35,64.490083 35,63.84375 l 0,-25.6875 C 35,37.509917 34.394917,37 33.65625,37 l -5.3125,0 z" fill="#000000" fill-opacity="1" stroke="none" opacity="0.4" inkscape:connector-curvature="0"/>
  <rect x="28" rx="1" y="40" fill="url(#linearGradient3849)" fill-opacity="1" stroke="none" height="24" width="6"/>
  <use xlink:href="#SVGCleanerId_1" fill="url(#linearGradient3891)" transform="matrix(0.63997 0 0 0.63997 11.566 13.452)"/>
  <path d="M 28.0625,40.71875 C 28.033734,40.812267 28,40.896804 28,41 l 0,22 c 0,0.554 0.446,1 1,1 l 4,0 c 0.554,0 1,-0.446 1,-1 L 34,41 C 34,40.896804 33.966266,40.812267 33.9375,40.71875 33.665941,41.012591 33.348369,41.235538 33,41.4375 L 33,62.5 c 0,0.277 -0.223,0.5 -0.5,0.5 l -3,0 C 29.223,63 29,62.777 29,62.5 l 0,-21.0625 c -0.348369,-0.201962 -0.665941,-0.424909 -0.9375,-0.71875 z" fill="url(#linearGradient3841)" fill-opacity="1" stroke="none" inkscape:connector-curvature="0"/>
  <path d="m 31,34 c -2.209139,0 -4,1.790861 -4,4 0,0.17012 0.04189,0.335468 0.0625,0.5 C 27.309566,36.527954 28.960981,35 31,35 c 2.039019,0 3.690434,1.527954 3.9375,3.5 C 34.958113,38.335468 35,38.17012 35,38 35,35.790861 33.209139,34 31,34 z" fill="#000000" fill-opacity="1" stroke="none" opacity="0.2" inkscape:connector-curvature="0"/>
  <path d="m 52,44 0,3 -2,0 0,1 2,0 0,2 2,0 0,-2 2,0 0,-1 -2,0 0,-3 -2,0 z" fill="url(#radialGradient3916)" fill-opacity="1" stroke="none" opacity="0.4" inkscape:connector-curvature="0"/>
  <path d="m 60,44 0,3 -2,0 0,1 2,0 0,2 2,0 0,-2 2,0 0,-1 -2,0 0,-3 -2,0 z" fill="url(#radialGradient3920)" fill-opacity="1" stroke="none" opacity="0.4" inkscape:connector-curvature="0"/>
  <path d="m 52,50 0,3 -2,0 0,1 2,0 0,2 2,0 0,-2 2,0 0,-1 -2,0 0,-3 -2,0 z" fill="url(#radialGradient3926)" fill-opacity="1" stroke="none" opacity="0.4" inkscape:connector-curvature="0"/>
  <path d="m 60,50 0,3 -2,0 0,1 2,0 0,2 2,0 0,-2 2,0 0,-1 -2,0 0,-3 -2,0 z" fill="url(#radialGradient3928)" fill-opacity="1" stroke="none" opacity="0.4" inkscape:connector-curvature="0"/>
  <path d="m 52,56 0,3 -2,0 0,1 2,0 0,2 2,0 0,-2 2,0 0,-1 -2,0 0,-3 -2,0 z" fill="url(#radialGradient3934)" fill-opacity="1" stroke="none" opacity="0.4" inkscape:connector-curvature="0"/>
  <path d="m 60,56 0,3 -2,0 0,1 2,0 0,2 2,0 0,-2 2,0 0,-1 -2,0 0,-3 -2,0 z" fill="url(#radialGradient3936)" fill-opacity="1" stroke="none" opacity="0.4" inkscape:connector-curvature="0"/>
 </g>
</svg>
