<svg height="16" width="16" xmlns="http://www.w3.org/2000/svg" xmlns:xlink="http://www.w3.org/1999/xlink" xmlns:sodipodi="http://sodipodi.sourceforge.net/DTD/sodipodi-0.dtd" xmlns:inkscape="http://www.inkscape.org/namespaces/inkscape">
 <defs>
  <path d="m 22.008699,15 a 1,1 0 1 1 -2,0 1,1 0 1 1 2,0 z" stroke-width="1.5" display="inline" fill="#cccccc" color="#000000" fill-opacity="1" stroke="none" fill-rule="nonzero" id="SVGCleanerId_0" visibility="visible"/>
 </defs>
 <g inkscape:label="Calque 1" inkscape:groupmode="layer">
  <path d="M 5.84375 7 A 0.63312664 0.63136584 0 0 0 5.5625 7.1875 L 3.1875 9.5625 A 0.63312664 0.63136584 0 0 0 3 10 L 3 11.875 L 0.25 14.625 C -0.06441823 14.939417 -0.06441823 15.435582 0.25 15.75 C 0.56441825 16.064419 1.0605817 16.064419 1.375 15.75 L 4.125 13 L 6 13 A 0.63312664 0.63136584 0 0 0 6.4375 12.8125 L 8.8125 10.4375 A 0.63312664 0.63136584 0 0 0 8.8125 9.5625 L 6.4375 7.1875 A 0.63312664 0.63136584 0 0 0 5.84375 7 z " display="inline" fill="#cccccc" fill-opacity="1" stroke="none" opacity="0.45"/>
  <path d="m 10.159583,8.972266 a 0.63312664,0.63136584 0 0 0 0.28125,-0.1875 l 2.375,-2.375 a 0.63312664,0.63136584 0 0 0 0.1875,-0.4375 l 0,-1.875 2.75,-2.7499997 c 0.314418,-0.314417 0.314418,-0.810582 0,-1.125 -0.314418,-0.314419 -0.810582,-0.314419 -1.125,0 l -2.75,2.75 -1.875,0 a 0.63312664,0.63136584 0 0 0 -0.4375,0.1874997 l -2.375,2.375 a 0.63312664,0.63136584 0 0 0 0,0.875 l 2.375,2.375 a 0.63312664,0.63136584 0 0 0 0.59375,0.1875 z" display="inline" fill="#cccccc" fill-opacity="1" stroke="none" opacity="0.45"/>
  <use xlink:href="#SVGCleanerId_0" sodipodi:type="arc" sodipodi:cx="21.008699" sodipodi:cy="15" sodipodi:rx="1" sodipodi:ry="1" transform="matrix(1 0 0 1 -10 0)"/>
  <use xlink:href="#SVGCleanerId_0" sodipodi:type="arc" sodipodi:cx="21.008699" sodipodi:cy="15" sodipodi:rx="1" sodipodi:ry="1" transform="matrix(1 0 0 1 -13 0)"/>
  <use xlink:href="#SVGCleanerId_0" sodipodi:type="arc" sodipodi:cx="21.008699" sodipodi:cy="15" sodipodi:rx="1" sodipodi:ry="1" transform="matrix(1 0 0 1 -16 0)"/>
 </g>
</svg>
