<svg display="inline" height="96" width="96" xmlns="http://www.w3.org/2000/svg" xmlns:sodipodi="http://sodipodi.sourceforge.net/DTD/sodipodi-0.dtd" xmlns:inkscape="http://www.inkscape.org/namespaces/inkscape">
 <defs>
  <linearGradient x2="0" y1="-2" y2="-34" gradientUnits="userSpaceOnUse" id="linearGradient3695" gradientTransform="matrix(1 0 0 1 -8 16)">
   <stop stop-color="#aaaaaa" stop-opacity="1"/>
   <stop stop-color="#f0f0f0" stop-opacity="1" offset="1"/>
  </linearGradient>
  <linearGradient x2="0" y1="-18" y2="14.14" gradientUnits="userSpaceOnUse" id="linearGradient3727">
   <stop stop-color="#ffffff" stop-opacity="1"/>
   <stop stop-color="#ffffff" stop-opacity="0" offset="1"/>
  </linearGradient>
 </defs>
 <g transform="matrix(1 0 0 1 0 74)">
  <path d="m 14,54 c -3.843656,0 -7,3.156344 -7,7 l 0,24 c 0,3.843656 3.156344,7 7,7 l 8,0 c 3.843656,0 7,-3.156344 7,-7 l 0,-24 c 0,-3.843656 -3.156344,-7 -7,-7 l -8,0 z" fill="#000000" fill-opacity="1" stroke="none" opacity="0.08" transform="matrix(1 0 0 1 0 -74)"/>
  <path d="m 14,55.03125 c -3.283091,0 -5.96875,2.685659 -5.96875,5.96875 l 0,24 c 0,3.283091 2.685659,5.96875 5.96875,5.96875 l 8,0 c 3.283091,0 5.96875,-2.685659 5.96875,-5.96875 l 0,-24 c 0,-3.283091 -2.685659,-5.96875 -5.96875,-5.96875 l -8,0 z" fill="#000000" fill-opacity="1" stroke="none" opacity="0.1" inkscape:connector-curvature="0" transform="matrix(1 0 0 1 0 -74)"/>
  <path d="m 14,55.96875 c -2.763365,0 -5.03125,2.267885 -5.03125,5.03125 l 0,24 c 0,2.763365 2.267885,5.03125 5.03125,5.03125 l 8,0 c 2.763365,0 5.03125,-2.267885 5.03125,-5.03125 l 0,-24 c 0,-2.763365 -2.267885,-5.03125 -5.03125,-5.03125 l -8,0 z" fill="#000000" fill-opacity="1" stroke="none" opacity="0.15" inkscape:connector-curvature="0" transform="matrix(1 0 0 1 0 -74)"/>
  <path d="m 14,57 c -2.216,0 -4,1.784 -4,4 l 0,24 c 0,2.216 1.784,4 4,4 l 8,0 c 2.216,0 4,-1.784 4,-4 l 0,-24 c 0,-2.216 -1.784,-4 -4,-4 l -8,0 z" fill="#000000" fill-opacity="1" stroke="none" opacity="0.3" inkscape:connector-curvature="0" transform="matrix(1 0 0 1 0 -74)"/>
  <rect x="70" rx="4" y="-66" fill="#ffffff" fill-opacity="1" stroke="none" height="80" opacity="0.2" width="16"/>
  <rect x="50" rx="4" y="-50" fill="#ffffff" fill-opacity="1" stroke="none" height="64" opacity="0.2" width="16"/>
  <rect x="30" rx="4" y="-34" fill="#ffffff" fill-opacity="1" stroke="none" height="48" opacity="0.2" width="16"/>
  <rect x="10" rx="4" y="-18" fill="url(#linearGradient3695)" fill-opacity="1" stroke="none" height="32" width="16"/>
  <path d="m 14,-18 c -2.216,0 -4,1.784 -4,4 l 0,24 c 0,1.798949 1.184428,3.275003 2.8125,3.78125 C 11.72124,13.326579 10.96875,12.273179 10.96875,11 l 0,-24 c 0,-1.697572 1.333678,-3.03125 3.03125,-3.03125 l 8,0 c 1.697572,0 3.03125,1.333678 3.03125,3.03125 l 0,24 c 0,1.273179 -0.75249,2.326579 -1.84375,2.78125 C 24.815572,13.275003 26,11.798949 26,10 l 0,-24 c 0,-2.216 -1.784,-4 -4,-4 l -8,0 z" fill="url(#linearGradient3727)" fill-opacity="1" stroke="none" opacity="0.6" inkscape:connector-curvature="0"/>
 </g>
</svg>
