<svg height="96" width="96" xmlns="http://www.w3.org/2000/svg" xmlns:xlink="http://www.w3.org/1999/xlink" xmlns:sodipodi="http://sodipodi.sourceforge.net/DTD/sodipodi-0.dtd" xmlns:inkscape="http://www.inkscape.org/namespaces/inkscape">
 <defs>
  <linearGradient id="linearGradient3729">
   <stop stop-color="#ffffff" stop-opacity="1"/>
   <stop stop-color="#ffffff" stop-opacity="0" offset="1"/>
  </linearGradient>
  <filter x="-0.192" y="-0.192" height="1.384" color-interpolation-filters="sRGB" id="filter3794" width="1.384">
   <feGaussianBlur stdDeviation="5.28"/>
  </filter>
  <linearGradient x2="0" xlink:href="#linearGradient3729" y1="20.221" y2="138.66" gradientUnits="userSpaceOnUse" id="linearGradient3613"/>
  <clipPath id="clipPath3613">
   <use xlink:href="#SVGCleanerId_0"/>
  </clipPath>
  <linearGradient x2="0" y1="90" y2="5.988" gradientUnits="userSpaceOnUse" id="linearGradient3617">
   <stop stop-color="#808080" stop-opacity="1"/>
   <stop stop-color="#cecece" stop-opacity="1" offset="1"/>
  </linearGradient>
  <linearGradient x2="0" y1="92.54" y2="7.02" gradientUnits="userSpaceOnUse" id="ButtonShadow-0" gradientTransform="matrix(1.0059 0 0 0.99417 100 0)">
   <stop stop-color="#000000" stop-opacity="1"/>
   <stop stop-color="#000000" stop-opacity="0.588" offset="1"/>
  </linearGradient>
  <linearGradient x2="0" xlink:href="#ButtonShadow-0" y1="6.132" y2="90.24" gradientUnits="userSpaceOnUse" id="linearGradient3780" gradientTransform="matrix(1.02381 0 0 1.0119 -1.143 -98.07)"/>
  <linearGradient x2="0" xlink:href="#ButtonShadow-0" y1="6.132" y2="90.24" gradientUnits="userSpaceOnUse" id="linearGradient3721" gradientTransform="matrix(1 0 0 1 0 -97)"/>
  <clipPath id="clipPath4076">
   <use xlink:href="#SVGCleanerId_0"/>
  </clipPath>
  <radialGradient cy="90.17" r="42" xlink:href="#linearGradient3729" gradientUnits="userSpaceOnUse" id="radialGradient3619-6" cx="48" gradientTransform="matrix(1.15731 0 0 0.99591 -7.551 0.197)"/>
  <linearGradient x2="0" xlink:href="#linearGradient3729" y1="6" y2="63.893" gradientUnits="userSpaceOnUse" id="linearGradient2878"/>
  <radialGradient cy="37.73" r="57.44" xlink:href="#linearGradient3729" gradientUnits="userSpaceOnUse" id="radialGradient3735" cx="46.917" gradientTransform="matrix(1 0 0 0.2936 0 26.652)"/>
  <filter x="-0.147" y="-0.658" height="2.317" color-interpolation-filters="sRGB" id="filter3850" width="1.293">
   <feGaussianBlur stdDeviation="6.33349"/>
  </filter>
  <filter x="-0.129" y="-0.3" height="1.599" color-interpolation-filters="sRGB" id="filter3866" width="1.257">
   <feGaussianBlur stdDeviation="3.59675"/>
  </filter>
  <filter x="-0.092" y="-0.173" height="1.346" color-interpolation-filters="sRGB" id="filter3886" width="1.184">
   <feGaussianBlur stdDeviation="2.61488"/>
  </filter>
  <filter x="-0.071" y="-0.383" height="1.765" color-interpolation-filters="sRGB" id="filter3895" width="1.142">
   <feGaussianBlur stdDeviation="1.99876"/>
  </filter>
  <filter x="-0.152" y="-0.566" height="2.131" color-interpolation-filters="sRGB" id="filter3966" width="1.305">
   <feGaussianBlur stdDeviation="3.36486"/>
  </filter>
  <rect x="6" rx="6" y="6" height="84" id="SVGCleanerId_0" width="84"/>
  <path d="m 104.35198,37.729855 a 57.435329,16.863281 0 1 1 -114.870657,0 57.435329,16.863281 0 1 1 114.870657,0 z" stroke-width="1.5" display="inline" fill="url(#radialGradient3735)" color="#000000" fill-opacity="1" stroke="none" fill-rule="nonzero" id="SVGCleanerId_1" visibility="visible"/>
 </defs>
 <path d="m 12,-95.03125 c -5.5110903,0 -10.03125,4.52016 -10.03125,10.03125 l 0,71 c 0,5.5110902 4.5201598,10.03125 10.03125,10.03125 l 72,0 c 5.51109,0 10.03125,-4.5201597 10.03125,-10.03125 l 0,-71 c 0,-5.51109 -4.52016,-10.03125 -10.03125,-10.03125 l -72,0 z" display="inline" fill="url(#linearGradient3780)" fill-opacity="1" fill-rule="nonzero" stroke="none" opacity="0.08" transform="matrix(1 0 0 -1 0 0)"/>
 <path d="m 12,-94.03125 c -4.971633,0 -9.03125,4.059617 -9.03125,9.03125 l 0,71 c 0,4.9716329 4.0596171,9.03125 9.03125,9.03125 l 72,0 c 4.971633,0 9.03125,-4.059617 9.03125,-9.03125 l 0,-71 c 0,-4.971633 -4.059617,-9.03125 -9.03125,-9.03125 l -72,0 z" display="inline" fill="url(#linearGradient3780)" fill-opacity="1" fill-rule="nonzero" stroke="none" opacity="0.1" transform="matrix(1 0 0 -1 0 0)"/>
 <path d="m 12,-93 c -4.4091333,0 -8,3.590867 -8,8 l 0,71 c 0,4.4091333 3.5908667,8 8,8 l 72,0 c 4.409133,0 8,-3.5908667 8,-8 l 0,-71 c 0,-4.409133 -3.590867,-8 -8,-8 l -72,0 z" display="inline" fill="url(#linearGradient3780)" fill-opacity="1" fill-rule="nonzero" stroke="none" opacity="0.2" transform="matrix(1 0 0 -1 0 0)"/>
 <rect x="5" rx="7" display="inline" y="-92" fill="url(#linearGradient3780)" fill-opacity="1" fill-rule="nonzero" stroke="none" height="85" opacity="0.3" width="86" transform="matrix(1 0 0 -1 0 0)"/>
 <rect x="6" rx="6" display="inline" y="-91" fill="url(#linearGradient3721)" fill-opacity="1" fill-rule="nonzero" stroke="none" height="84" opacity="0.45" width="84" transform="matrix(1 0 0 -1 0 0)"/>
 <use xlink:href="#SVGCleanerId_0" fill="url(#linearGradient3617)" fill-opacity="1" fill-rule="nonzero" stroke="none"/>
 <g clip-path="url(#clipPath4076)">
  <use xlink:href="#SVGCleanerId_1" opacity="0.4" transform="matrix(1.27907 0 0 1.40836 -17.935 22.541)"/>
  <use xlink:href="#SVGCleanerId_1" opacity="0.3" transform="matrix(1 0 0 0.83663 0 8.919)"/>
  <use xlink:href="#SVGCleanerId_1" opacity="0.4" transform="matrix(1 0 0 1.0198 -20.87 19.955)"/>
  <use xlink:href="#SVGCleanerId_1" opacity="0.3" transform="matrix(1 0 0 0.83663 -9.684 56.34)"/>
  <use xlink:href="#SVGCleanerId_1" opacity="0.4" transform="matrix(0.70388 0 0 0.71782 36.744 -14.15)"/>
  <use xlink:href="#SVGCleanerId_1" opacity="0.2" transform="matrix(0.94049 0 0 0.30888 19.08 41.02)"/>
  <path d="M 60.106742,22.536204 C 47.662268,21.56782 35.112214,22.422077 22.720141,20.705407 c -1.087209,2.847996 7.207295,5.124133 1.963071,6.565104 -6.663016,0.299567 -13.570393,-1.699892 -20.0289655,0.720229 -3.0092777,-1.916193 -12.0225924,0.314627 -7.3488787,4.222664 4.2477502,1.691261 8.4881879,-1.544265 12.8055782,-0.680582 7.559959,-0.02414 15.43809,-1.299245 22.695256,1.47983 3.575939,2.875946 5.452038,9.822684 11.21548,8.355705 13.124249,-1.817315 26.393021,-1.245426 39.56382,-0.36128 4.535405,0.255129 9.075786,0.4672 13.619439,0.46099 3.826899,1.961739 2.520271,-5.648732 -0.459135,-2.711892 -7.977674,0.03327 -15.794815,-3.692047 -23.786252,-1.843257 -3.724286,-1.59139 0.7425,-11.039806 -5.642682,-7.865393 -5.275462,0.846481 -4.642212,-8.35804 0.654123,-5.677699 3.555598,0.605862 10.82452,3.037793 11.15981,-2.555326 -2.9854,-4.468071 -8.389914,-0.448887 -12.44559,-0.349853 -2.272494,0.365185 -4.60065,0.829212 -6.578473,2.071557 z" fill="#ffffff" stroke="none" filter="url(#filter3850)" opacity="0.2" inkscape:connector-curvature="0"/>
  <path d="M -1.3357054,52.088686 C 5.3967925,50.877579 12.254623,51.60276 19.046576,51.420833 c -0.391916,2.171178 -6.585501,1.072086 -4.342946,3.49481 4.264015,0.861182 8.65448,0.319303 12.955142,0.600788 1.673543,-0.712331 6.140279,1.481649 2.659809,2.397649 -1.025263,-0.20768 -4.345525,-0.264565 -3.290915,1.076257 3.979682,0.459241 7.991993,0.683184 11.985195,0.310938 8.717618,0.05365 17.432876,-0.206335 26.14958,-0.158531 2.457352,2.080094 -3.232438,2.252796 -4.686803,2.114995 -1.212344,-0.296031 -5.735068,-0.254167 -3.987995,1.511215 1.311478,0.181989 5.562932,-0.09401 3.88306,1.930164 -5.422836,1.38082 -11.101529,-0.204085 -16.537375,1.183034 -5.337955,0.806432 -10.831467,0.998721 -15.959617,2.8339 -2.135087,3.259554 3.447166,3.422056 5.463172,2.898102 3.46682,0.142153 6.976507,-0.214099 10.415657,0.160429 1.365461,0.02787 5.320618,1.08595 2.496823,2.458178 -5.029543,1.051807 -10.20826,0.335609 -15.284187,0.961206 -5.80979,0.256455 -11.626605,0.290839 -17.441159,0.269576 -0.158923,3.282564 5.932216,0.509616 5.134352,3.882583 C 13.60152,80.728705 8.3282648,79.913526 3.1686387,80.133492 0.38732599,79.457151 0.8799314,76.025249 1.8674125,74.054454 4.6559246,68.86584 4.2086683,62.785967 4.2253915,57.091426 4.2133971,53.788113 0.44641037,53.143612 -1.3357054,52.088686 z" fill="#ffffff" stroke="none" filter="url(#filter3866)" opacity="0.1" inkscape:connector-curvature="0"/>
  <path d="m 61.60941,37.56289 c -11.631767,5.2e-5 -23.263535,-6.9e-5 -34.895302,0 -1.159225,0.394159 -5.974344,1.187391 -2.436164,1.896731 1.314288,-0.439796 5.899728,0.506553 3.056754,1.86314 -4.409241,1.356286 -9.348586,-0.05556 -13.53314,2.21394 -1.060928,2.35808 3.851335,1.455671 5.242343,1.823114 5.303461,0.117361 10.615571,-0.537032 15.90716,-0.28829 2.138933,-0.888292 5.973778,2.488526 2.580711,3.106519 -2.002247,-1.16588 -5.836635,2.553022 -2.076687,2.429889 3.275814,0.22068 2.747146,3.882536 -0.415957,3.540779 -3.17592,0.702783 -7.158478,0.180803 -9.44162,2.95043 -1.65987,4.01752 4.441234,3.858701 6.790687,2.818427 4.015364,-0.511342 8.084654,-0.158094 12.096826,-0.234079 2.71718,0.155158 2.578419,2.988347 0.540026,3.716229 0.203666,3.371411 4.729058,1.956029 6.934359,1.854772 5.685282,-0.70677 11.387989,-1.274929 17.081674,-1.914 3.144328,-2.152077 -2.586589,-2.430194 -3.885838,-3.137782 -2.173172,-1.121992 -8.852172,-1.560759 -5.556667,-5.051851 2.187849,-1.297481 4.930818,-0.970598 7.143857,-2.225251 2.335392,-0.703158 6.975493,0.45947 7.080112,-3.082542 -1.038701,-2.054043 -8.301858,-0.508779 -5.033911,-3.788952 2.951976,-1.588613 6.398315,-1.589766 9.552706,-2.544678 2.910516,0.645081 5.656172,-4.084057 1.490575,-4.210892 -3.380997,-0.876745 -7.327512,1.546487 -10.338493,-0.582326 -1.636953,-4.026849 4.09438,-3.748515 6.444713,-4.704695 3.577774,-1.032833 1.513794,-4.480948 -1.351166,-4.157943 -5.857971,-0.691363 -11.777219,-0.03738 -17.659672,-0.325967 -2.252464,-0.922165 -4.414688,1.916014 -1.565197,2.948241 2.77138,0.879598 6.595554,-0.363391 8.583673,2.555811 1.399099,2.020415 -0.156234,4.041819 -2.336362,2.531226 z" fill="#ffffff" stroke="none" filter="url(#filter3886)" opacity="0.1" inkscape:connector-curvature="0"/>
  <path d="m 101.34665,70.514856 c -6.84651,1.103667 -13.797459,0.519456 -20.695789,0.673193 -7.695895,0.05407 -15.405693,-0.127397 -23.092915,0.07721 -1.334795,1.120416 3.028361,1.281765 3.996663,1.83024 1.165124,0.581944 3.498345,-0.208395 3.995991,0.776338 -3.493596,1.025 -7.235831,0.513184 -10.83664,0.658662 -3.850539,0.115904 -7.76758,-0.42478 -11.534267,0.588089 -2.397023,0.571561 -5.081224,0.672582 -7.388115,0.851407 2.591011,0.794255 5.383366,0.640818 7.942177,1.559928 0.784933,1.808787 -4.159854,1.177803 -1.206397,1.958897 5.323507,0.303316 10.69483,-0.612902 15.986905,0.160365 2.446272,1.40716 -2.962472,2.155976 -0.168646,2.853102 2.853115,0.537571 5.768352,-0.461728 8.670141,-0.266572 5.026171,-0.0535 10.058961,-0.07789 15.082621,0.02261 3.466996,0.784432 7.03224,0.587904 10.56169,0.668444 2.949512,0.18298 5.917713,0.12236 8.869801,0.07116 2.86373,-0.630136 1.28376,-4.036643 0.85863,-5.930354 -0.72639,-2.124287 0.15351,-4.590261 -1.04185,-6.552723 z" fill="#ffffff" stroke="none" filter="url(#filter3895)" opacity="0.1" inkscape:connector-curvature="0"/>
  <path d="m 25.710549,35.710284 c 3.914062,0.536072 7.93943,-0.361101 11.796181,0.658619 2.136167,0.266509 4.416129,-0.455513 6.438299,0.52899 -0.907785,1.646564 -3.352615,0.878689 -4.908933,1.453441 -3.097089,0.434879 -6.273718,-0.03452 -9.34374,0.576762 -1.731799,1.530048 2.599727,2.112459 3.787962,1.785117 2.847632,-0.02599 5.679219,-0.56714 8.530144,-0.325373 6.081896,-0.209013 12.15196,0.503427 18.098311,1.745814 1.807116,-0.202971 4.339144,2.856147 1.454329,3.288333 -3.485184,-0.013 -6.967793,0.312065 -10.451056,0.01957 -7.254304,-0.132585 -14.510362,0.0075 -21.765592,-0.04741 -3.438144,1e-6 -6.876287,1e-6 -10.314431,2e-6 -0.172149,2.360506 3.471069,0.488963 4.827119,1.484096 1.395939,0.02418 5.439481,0.01145 3.789703,2.277559 -1.747913,1.420965 -4.086665,0.523383 -6.109548,0.53658 -2.752918,-0.769622 -5.559833,-1.322189 -8.327947,-2.031619 -2.163213,0.714548 -5.255471,-2.518615 -1.842057,-3.136364 2.240412,-0.964489 4.699288,-1.467878 7.141175,-1.314723 1.878921,-0.617089 4.313839,0.106933 5.772653,-1.504367 0.458924,-2.930085 -4.242126,-2.227162 -5.915049,-3.599128 0.704026,-2.510801 4.176569,-1.154332 6.023706,-2.240201 0.650781,-0.138635 1.3212,-0.225518 1.986626,-0.155712" fill="#ffffff" stroke="none" filter="url(#filter3966)" opacity="0.3" inkscape:connector-curvature="0"/>
 </g>
 <rect stroke="#ffffff" stroke-dasharray="none" clip-path="url(#clipPath3613)" stroke-dashoffset="0" stroke-linecap="round" height="66" stroke-linejoin="miter" stroke-miterlimit="4" stroke-opacity="1" stroke-width="0.5" display="inline" width="66" fill="url(#linearGradient3613)" fill-opacity="1" opacity="0.1" x="15" fill-rule="nonzero" filter="url(#filter3794)" y="15" rx="12"/>
 <g display="inline">
  <path d="M 12,6 C 8.676,6 6,8.676 6,12 l 0,2 0,68 0,2 c 0,0.334721 0.04135,0.6507 0.09375,0.96875 0.0487,0.295596 0.09704,0.596915 0.1875,0.875 0.00988,0.03038 0.020892,0.0636 0.03125,0.09375 0.098865,0.287771 0.2348802,0.547452 0.375,0.8125 0.1445918,0.273507 0.3156161,0.535615 0.5,0.78125 0.1843839,0.245635 0.3737765,0.473472 0.59375,0.6875 0.439947,0.428056 0.94291,0.814526 1.5,1.09375 0.278545,0.139612 0.5734731,0.246947 0.875,0.34375 -0.2562018,-0.100222 -0.4867109,-0.236272 -0.71875,-0.375 -0.00741,-0.0044 -0.023866,0.0045 -0.03125,0 -0.031933,-0.0193 -0.062293,-0.04251 -0.09375,-0.0625 -0.120395,-0.0767 -0.2310226,-0.163513 -0.34375,-0.25 -0.1061728,-0.0808 -0.2132809,-0.161112 -0.3125,-0.25 C 8.4783201,88.557317 8.3087904,88.373362 8.15625,88.1875 8.0486711,88.057245 7.9378561,87.922215 7.84375,87.78125 7.818661,87.74287 7.805304,87.69538 7.78125,87.65625 7.716487,87.553218 7.6510225,87.451733 7.59375,87.34375 7.4927417,87.149044 7.3880752,86.928049 7.3125,86.71875 7.30454,86.69694 7.288911,86.6782 7.28125,86.65625 7.2494249,86.5643 7.2454455,86.469419 7.21875,86.375 7.1884177,86.268382 7.1483606,86.171969 7.125,86.0625 7.0521214,85.720988 7,85.364295 7,85 L 7,83 7,15 7,13 C 7,10.218152 9.2181517,8 12,8 l 2,0 68,0 2,0 c 2.781848,0 5,2.218152 5,5 l 0,2 0,68 0,2 c 0,0.364295 -0.05212,0.720988 -0.125,1.0625 -0.04415,0.206893 -0.08838,0.397658 -0.15625,0.59375 -0.0077,0.02195 -0.0233,0.04069 -0.03125,0.0625 -0.06274,0.173739 -0.138383,0.367449 -0.21875,0.53125 -0.04158,0.0828 -0.07904,0.169954 -0.125,0.25 -0.0546,0.09721 -0.126774,0.18835 -0.1875,0.28125 -0.09411,0.140965 -0.204921,0.275995 -0.3125,0.40625 -0.143174,0.17445 -0.303141,0.346998 -0.46875,0.5 -0.01117,0.0102 -0.01998,0.02115 -0.03125,0.03125 -0.138386,0.125556 -0.285091,0.234436 -0.4375,0.34375 -0.102571,0.07315 -0.204318,0.153364 -0.3125,0.21875 -0.0074,0.0045 -0.02384,-0.0044 -0.03125,0 -0.232039,0.138728 -0.462548,0.274778 -0.71875,0.375 0.301527,-0.0968 0.596455,-0.204138 0.875,-0.34375 0.55709,-0.279224 1.060053,-0.665694 1.5,-1.09375 0.219973,-0.214028 0.409366,-0.441865 0.59375,-0.6875 0.184384,-0.245635 0.355408,-0.507743 0.5,-0.78125 0.14012,-0.265048 0.276135,-0.524729 0.375,-0.8125 0.01041,-0.03078 0.02133,-0.06274 0.03125,-0.09375 0.09046,-0.278085 0.1388,-0.579404 0.1875,-0.875 C 89.95865,84.6507 90,84.334721 90,84 l 0,-2 0,-68 0,-2 C 90,8.676 87.324,6 84,6 L 12,6 z" fill="url(#linearGradient2878)" fill-opacity="1" fill-rule="nonzero" stroke="none" opacity="0.4" inkscape:connector-curvature="0"/>
  <path d="M 12,90 C 8.676,90 6,87.324 6,84 L 6,82 6,14 6,12 c 0,-0.334721 0.04135,-0.6507 0.09375,-0.96875 0.0487,-0.295596 0.09704,-0.596915 0.1875,-0.875 C 6.29113,10.12587 6.302142,10.09265 6.3125,10.0625 6.411365,9.774729 6.5473802,9.515048 6.6875,9.25 6.8320918,8.976493 7.0031161,8.714385 7.1875,8.46875 7.3718839,8.223115 7.5612765,7.995278 7.78125,7.78125 8.221197,7.353194 8.72416,6.966724 9.28125,6.6875 9.559795,6.547888 9.8547231,6.440553 10.15625,6.34375 9.9000482,6.443972 9.6695391,6.580022 9.4375,6.71875 c -0.00741,0.0044 -0.023866,-0.0045 -0.03125,0 -0.031933,0.0193 -0.062293,0.04251 -0.09375,0.0625 -0.120395,0.0767 -0.2310226,0.163513 -0.34375,0.25 -0.1061728,0.0808 -0.2132809,0.161112 -0.3125,0.25 C 8.4783201,7.442683 8.3087904,7.626638 8.15625,7.8125 8.0486711,7.942755 7.9378561,8.077785 7.84375,8.21875 7.818661,8.25713 7.805304,8.30462 7.78125,8.34375 7.716487,8.446782 7.6510225,8.548267 7.59375,8.65625 7.4927417,8.850956 7.3880752,9.071951 7.3125,9.28125 7.30454,9.30306 7.288911,9.3218 7.28125,9.34375 7.2494249,9.4357 7.2454455,9.530581 7.21875,9.625 7.1884177,9.731618 7.1483606,9.828031 7.125,9.9375 7.0521214,10.279012 7,10.635705 7,11 l 0,2 0,68 0,2 c 0,2.781848 2.2181517,5 5,5 l 2,0 68,0 2,0 c 2.781848,0 5,-2.218152 5,-5 l 0,-2 0,-68 0,-2 C 89,10.635705 88.94788,10.279012 88.875,9.9375 88.83085,9.730607 88.78662,9.539842 88.71875,9.34375 88.71105,9.3218 88.69545,9.30306 88.6875,9.28125 88.62476,9.107511 88.549117,8.913801 88.46875,8.75 88.42717,8.6672 88.38971,8.580046 88.34375,8.5 88.28915,8.40279 88.216976,8.31165 88.15625,8.21875 88.06214,8.077785 87.951329,7.942755 87.84375,7.8125 87.700576,7.63805 87.540609,7.465502 87.375,7.3125 87.36383,7.3023 87.35502,7.29135 87.34375,7.28125 87.205364,7.155694 87.058659,7.046814 86.90625,6.9375 86.803679,6.86435 86.701932,6.784136 86.59375,6.71875 c -0.0074,-0.0045 -0.02384,0.0044 -0.03125,0 -0.232039,-0.138728 -0.462548,-0.274778 -0.71875,-0.375 0.301527,0.0968 0.596455,0.204138 0.875,0.34375 0.55709,0.279224 1.060053,0.665694 1.5,1.09375 0.219973,0.214028 0.409366,0.441865 0.59375,0.6875 0.184384,0.245635 0.355408,0.507743 0.5,0.78125 0.14012,0.265048 0.276135,0.524729 0.375,0.8125 0.01041,0.03078 0.02133,0.06274 0.03125,0.09375 0.09046,0.278085 0.1388,0.579404 0.1875,0.875 C 89.95865,11.3493 90,11.665279 90,12 l 0,2 0,68 0,2 c 0,3.324 -2.676,6 -6,6 l -72,0 z" fill="url(#radialGradient3619-6)" fill-opacity="1" fill-rule="nonzero" stroke="none" opacity="0.2" inkscape:connector-curvature="0"/>
 </g>
</svg>
