<?xml version="1.0" encoding="UTF-8" standalone="no"?>
<!-- Created with Inkscape (http://www.inkscape.org/) -->

<svg
   xmlns:dc="http://purl.org/dc/elements/1.1/"
   xmlns:cc="http://creativecommons.org/ns#"
   xmlns:rdf="http://www.w3.org/1999/02/22-rdf-syntax-ns#"
   xmlns:svg="http://www.w3.org/2000/svg"
   xmlns="http://www.w3.org/2000/svg"
   xmlns:xlink="http://www.w3.org/1999/xlink"
   xmlns:sodipodi="http://sodipodi.sourceforge.net/DTD/sodipodi-0.dtd"
   xmlns:inkscape="http://www.inkscape.org/namespaces/inkscape"
   version="1.0"
   width="96"
   height="96"
   id="svg2408"
   inkscape:version="0.91 r13725"
   sodipodi:docname="stock_people.svg"
   inkscape:export-filename="/usr/share/icons/Tebu/stock/96/stock_people.png"
   inkscape:export-xdpi="90"
   inkscape:export-ydpi="90">
  <sodipodi:namedview
     pagecolor="#ffffff"
     bordercolor="#666666"
     borderopacity="1"
     objecttolerance="10"
     gridtolerance="10"
     guidetolerance="10"
     inkscape:pageopacity="0"
     inkscape:pageshadow="2"
     inkscape:window-width="640"
     inkscape:window-height="480"
     id="namedview296061"
     showgrid="false"
     inkscape:zoom="1.2291667"
     inkscape:cx="-26.902989"
     inkscape:cy="28.290423"
     inkscape:current-layer="svg2408" />
  <defs
     id="defs2410">
    <linearGradient
       x1="45.447727"
       y1="92.539597"
       x2="45.447727"
       y2="7.0165396"
       id="ButtonShadow"
       gradientUnits="userSpaceOnUse"
       gradientTransform="scale(1.0058652,0.994169)">
      <stop
         id="stop3750"
         style="stop-color:#000000;stop-opacity:1"
         offset="0" />
      <stop
         id="stop3752"
         style="stop-color:#000000;stop-opacity:0.58823532"
         offset="1" />
    </linearGradient>
    <linearGradient
       id="linearGradient3737">
      <stop
         id="stop3739"
         style="stop-color:#ffffff;stop-opacity:1"
         offset="0" />
      <stop
         id="stop3741"
         style="stop-color:#ffffff;stop-opacity:0"
         offset="1" />
    </linearGradient>
    <linearGradient
       id="linearGradient3700">
      <stop
         id="stop3702"
         style="stop-color:#bebebe;stop-opacity:1"
         offset="0" />
      <stop
         id="stop3704"
         style="stop-color:#dcdcdc;stop-opacity:1"
         offset="1" />
    </linearGradient>
    <filter
       color-interpolation-filters="sRGB"
       id="filter3174">
      <feGaussianBlur
         id="feGaussianBlur3176"
         stdDeviation="1.71" />
    </filter>
    <linearGradient
       x1="36.357143"
       y1="6"
       x2="36.357143"
       y2="63.893143"
       id="linearGradient3188"
       xlink:href="#linearGradient3737"
       gradientUnits="userSpaceOnUse" />
    <filter
       x="-0.192"
       y="-0.192"
       width="1.3839999"
       height="1.3839999"
       color-interpolation-filters="sRGB"
       id="filter3794">
      <feGaussianBlur
         id="feGaussianBlur3796"
         stdDeviation="5.28" />
    </filter>
    <linearGradient
       x1="48"
       y1="20.220806"
       x2="48"
       y2="138.66119"
       id="linearGradient3613"
       xlink:href="#linearGradient3737"
       gradientUnits="userSpaceOnUse" />
    <radialGradient
       cx="48"
       cy="90.171875"
       r="42"
       fx="48"
       fy="90.171875"
       id="radialGradient3619"
       xlink:href="#linearGradient3737"
       gradientUnits="userSpaceOnUse"
       gradientTransform="matrix(1.1573129,0,0,0.99590774,-7.5510206,0.19713193)" />
    <clipPath
       id="clipPath3613">
      <rect
         width="84"
         height="84"
         rx="6"
         ry="6"
         x="6"
         y="6"
         id="rect3615"
         style="fill:#ffffff;fill-opacity:1;fill-rule:nonzero;stroke:none" />
    </clipPath>
    <linearGradient
       x1="48"
       y1="90"
       x2="48"
       y2="5.9877172"
       id="linearGradient3617"
       xlink:href="#linearGradient3700"
       gradientUnits="userSpaceOnUse" />
    <linearGradient
       x1="45.447727"
       y1="92.539597"
       x2="45.447727"
       y2="7.0165396"
       id="ButtonShadow-0"
       gradientUnits="userSpaceOnUse"
       gradientTransform="matrix(1.0058652,0,0,0.994169,100,0)">
      <stop
         id="stop3750-8"
         style="stop-color:#000000;stop-opacity:1"
         offset="0" />
      <stop
         id="stop3752-5"
         style="stop-color:#000000;stop-opacity:0.58823532"
         offset="1" />
    </linearGradient>
    <linearGradient
       x1="32.251034"
       y1="6.1317081"
       x2="32.251034"
       y2="90.238609"
       id="linearGradient3780"
       xlink:href="#ButtonShadow-0"
       gradientUnits="userSpaceOnUse"
       gradientTransform="matrix(1.0238095,0,0,1.0119048,-1.1428571,-98.071429)" />
    <linearGradient
       x1="32.251034"
       y1="6.1317081"
       x2="32.251034"
       y2="90.238609"
       id="linearGradient3772"
       xlink:href="#ButtonShadow-0"
       gradientUnits="userSpaceOnUse"
       gradientTransform="matrix(1.0238095,0,0,1.0119048,-1.1428571,-98.071429)" />
    <linearGradient
       x1="32.251034"
       y1="6.1317081"
       x2="32.251034"
       y2="90.238609"
       id="linearGradient3725"
       xlink:href="#ButtonShadow-0"
       gradientUnits="userSpaceOnUse"
       gradientTransform="matrix(1.0238095,0,0,1.0119048,-1.1428571,-98.071429)" />
    <linearGradient
       x1="32.251034"
       y1="6.1317081"
       x2="32.251034"
       y2="90.238609"
       id="linearGradient3721"
       xlink:href="#ButtonShadow-0"
       gradientUnits="userSpaceOnUse"
       gradientTransform="translate(0,-97)" />
    <linearGradient
       x1="32.251034"
       y1="6.1317081"
       x2="32.251034"
       y2="90.238609"
       id="linearGradient3026"
       xlink:href="#ButtonShadow-0"
       gradientUnits="userSpaceOnUse"
       gradientTransform="matrix(1.0238095,0,0,1.0119048,-1.1428571,-98.071429)" />
    <linearGradient
       x1="11.998966"
       y1="0.92195445"
       x2="11.998966"
       y2="19.387045"
       id="StandardGradient-3"
       gradientUnits="userSpaceOnUse"
       gradientTransform="scale(0.9219544,1.0846523)">
      <stop
         id="stop3283-5"
         style="stop-color:#000000;stop-opacity:0.86274511"
         offset="0" />
      <stop
         id="stop2651-2"
         style="stop-color:#000000;stop-opacity:0.47058824"
         offset="1" />
    </linearGradient>
    <linearGradient
       x1="56"
       y1="16"
       x2="56"
       y2="80"
       id="linearGradient3736"
       xlink:href="#StandardGradient-3"
       gradientUnits="userSpaceOnUse"
       gradientTransform="matrix(0.94249199,0,0,0.94249199,-92.307413,187.58726)" />
    <linearGradient
       x1="56"
       y1="16"
       x2="56"
       y2="80"
       id="linearGradient2902"
       xlink:href="#StandardGradient-3"
       gradientUnits="userSpaceOnUse"
       gradientTransform="matrix(0.706869,0,0,0.706869,-105.69428,199.36841)" />
    <linearGradient
       x1="11.998966"
       y1="0.92195445"
       x2="11.998966"
       y2="19.387045"
       id="StandardGradient-5"
       gradientUnits="userSpaceOnUse"
       gradientTransform="scale(0.9219544,1.0846523)">
      <stop
         id="stop3283-0"
         style="stop-color:#000000;stop-opacity:0.86274511"
         offset="0" />
      <stop
         id="stop2651-4"
         style="stop-color:#000000;stop-opacity:0.47058824"
         offset="1" />
    </linearGradient>
    <linearGradient
       x1="49"
       y1="20"
       x2="49"
       y2="76"
       id="linearGradient3886"
       xlink:href="#StandardGradient-5"
       gradientUnits="userSpaceOnUse"
       gradientTransform="matrix(0.85714286,0,0,0.85714286,10.789346,193.569)" />
    <linearGradient
       x1="49"
       y1="20"
       x2="49"
       y2="76"
       id="linearGradient3081"
       xlink:href="#StandardGradient-5"
       gradientUnits="userSpaceOnUse"
       gradientTransform="matrix(0.57142857,0,0,0.57142857,0.0945407,211.28329)" />
    <linearGradient
       id="linearGradient17754"
       gradientUnits="userSpaceOnUse"
       y2="118.47"
       y1="2.993"
       x2="0">
      <stop
         id="stop4207"
         stop-color="#f2f2f2" />
      <stop
         id="stop4209"
         offset="1"
         stop-opacity="0"
         stop-color="#f2f2f2" />
    </linearGradient>
    <linearGradient
       id="linearGradient4198"
       gradientUnits="userSpaceOnUse"
       y2="118.47"
       y1="2.993"
       x2="0">
      <stop
         id="stop4200"
         stop-color="#f2f2f2" />
      <stop
         id="stop4202"
         offset="1"
         stop-opacity="0"
         stop-color="#f2f2f2" />
    </linearGradient>
    <linearGradient
       x1="49"
       y1="20"
       x2="49"
       y2="76"
       id="linearGradient3829"
       xlink:href="#StandardGradient-3"
       gradientUnits="userSpaceOnUse"
       gradientTransform="translate(-152.54237,26.033898)" />
    <linearGradient
       id="linearGradient17754-6"
       gradientUnits="userSpaceOnUse"
       y2="118.47"
       y1="2.993"
       x2="0">
      <stop
         id="stop4207-4"
         stop-color="#f2f2f2" />
      <stop
         id="stop4209-6"
         offset="1"
         stop-opacity="0"
         stop-color="#f2f2f2" />
    </linearGradient>
    <linearGradient
       id="linearGradient4233"
       gradientUnits="userSpaceOnUse"
       y2="118.47"
       y1="2.993"
       x2="0">
      <stop
         id="stop4235"
         stop-color="#f2f2f2" />
      <stop
         id="stop4237"
         offset="1"
         stop-opacity="0"
         stop-color="#f2f2f2" />
    </linearGradient>
    <linearGradient
       id="linearGradient17754-65"
       gradientUnits="userSpaceOnUse"
       y2="118.47"
       y1="2.993"
       x2="0">
      <stop
         id="stop4207-0"
         stop-color="#f2f2f2" />
      <stop
         id="stop4209-0"
         offset="1"
         stop-opacity="0"
         stop-color="#f2f2f2" />
    </linearGradient>
    <linearGradient
       id="linearGradient4268"
       gradientUnits="userSpaceOnUse"
       y2="118.47"
       y1="2.993"
       x2="0">
      <stop
         id="stop4270"
         stop-color="#f2f2f2" />
      <stop
         id="stop4272"
         offset="1"
         stop-opacity="0"
         stop-color="#f2f2f2" />
    </linearGradient>
    <filter
       id="filter3174-0"
       color-interpolation-filters="sRGB">
      <feGaussianBlur
         stdDeviation="1.71"
         id="feGaussianBlur3176-9" />
    </filter>
    <linearGradient
       gradientUnits="userSpaceOnUse"
       xlink:href="#linearGradient3737"
       id="linearGradient4376"
       y2="63.893143"
       x2="36.357143"
       y1="6"
       x1="36.357143" />
    <filter
       id="filter3794-8"
       color-interpolation-filters="sRGB"
       height="1.3839999"
       width="1.3839999"
       y="-0.192"
       x="-0.192">
      <feGaussianBlur
         stdDeviation="5.28"
         id="feGaussianBlur3796-6" />
    </filter>
    <linearGradient
       gradientUnits="userSpaceOnUse"
       xlink:href="#linearGradient3737"
       id="linearGradient4380"
       y2="138.66119"
       x2="48"
       y1="20.220806"
       x1="48" />
    <radialGradient
       gradientTransform="matrix(1.1573129,0,0,0.99590774,-7.5510206,0.19713193)"
       gradientUnits="userSpaceOnUse"
       xlink:href="#linearGradient3737"
       id="radialGradient3619-4"
       fy="90.171875"
       fx="48"
       r="42"
       cy="90.171875"
       cx="48" />
    <clipPath
       id="clipPath3613-5">
      <rect
         style="fill:#ffffff;fill-opacity:1;fill-rule:nonzero;stroke:none"
         id="rect3615-6"
         y="6"
         x="6"
         ry="6"
         rx="6"
         height="84"
         width="84" />
    </clipPath>
    <linearGradient
       gradientUnits="userSpaceOnUse"
       xlink:href="#linearGradient3700"
       id="linearGradient4385"
       y2="5.9877172"
       x2="48"
       y1="90"
       x1="48" />
    <linearGradient
       gradientTransform="matrix(1.0238095,0,0,1.0119048,-1.1428571,-98.071429)"
       gradientUnits="userSpaceOnUse"
       xlink:href="#ButtonShadow-0"
       id="linearGradient4387"
       y2="90.238609"
       x2="32.251034"
       y1="6.1317081"
       x1="32.251034" />
    <linearGradient
       gradientTransform="matrix(1.0238095,0,0,1.0119048,-1.1428571,-98.071429)"
       gradientUnits="userSpaceOnUse"
       xlink:href="#ButtonShadow-0"
       id="linearGradient4389"
       y2="90.238609"
       x2="32.251034"
       y1="6.1317081"
       x1="32.251034" />
    <linearGradient
       gradientTransform="matrix(1.0238095,0,0,1.0119048,-1.1428571,-98.071429)"
       gradientUnits="userSpaceOnUse"
       xlink:href="#ButtonShadow-0"
       id="linearGradient4391"
       y2="90.238609"
       x2="32.251034"
       y1="6.1317081"
       x1="32.251034" />
    <linearGradient
       gradientTransform="translate(0,-97)"
       gradientUnits="userSpaceOnUse"
       xlink:href="#ButtonShadow-0"
       id="linearGradient4393"
       y2="90.238609"
       x2="32.251034"
       y1="6.1317081"
       x1="32.251034" />
    <linearGradient
       gradientTransform="matrix(1.0238095,0,0,1.0119048,-1.1428571,-98.071429)"
       gradientUnits="userSpaceOnUse"
       xlink:href="#ButtonShadow-0"
       id="linearGradient4395"
       y2="90.238609"
       x2="32.251034"
       y1="6.1317081"
       x1="32.251034" />
    <linearGradient
       gradientTransform="matrix(0.94249199,0,0,0.94249199,-97.239616,0.875402)"
       gradientUnits="userSpaceOnUse"
       xlink:href="#StandardGradient-3"
       id="linearGradient3736-7"
       y2="80"
       x2="56"
       y1="16"
       x1="56" />
    <linearGradient
       gradientTransform="translate(-152.54237,26.033898)"
       gradientUnits="userSpaceOnUse"
       xlink:href="#StandardGradient-3"
       id="linearGradient4398"
       y2="76"
       x2="49"
       y1="20"
       x1="49" />
    <linearGradient
       x2="0"
       y1="2.993"
       y2="118.47"
       gradientUnits="userSpaceOnUse"
       id="linearGradient17754-0">
      <stop
         stop-color="#f2f2f2"
         id="stop4207-7" />
      <stop
         stop-color="#f2f2f2"
         stop-opacity="0"
         offset="1"
         id="stop4209-7" />
    </linearGradient>
    <path
       d="m17.469 5.4062c-6.668 0-12.032 5.3948-12.032 12.063l0.0005 61.031c0 6.668 5.3635 12.031 12.032 12.031h61.03c6.668 0 12.031-5.363 12.031-12.031v-61.031c0-6.668-5.363-12.063-12.031-12.063l-61.031 0.0002z"
       id="SVGCleanerId_0" />
    <linearGradient
       inkscape:collect="always"
       xlink:href="#ButtonShadow"
       id="linearGradient4422"
       gradientUnits="userSpaceOnUse"
       gradientTransform="scale(1.0058652,0.994169)"
       x1="45.447727"
       y1="92.539597"
       x2="45.447727"
       y2="7.0165396" />
  </defs>
  <metadata
     id="metadata2413">
    <rdf:RDF>
      <cc:Work
         rdf:about="">
        <dc:format>image/svg+xml</dc:format>
        <dc:type
           rdf:resource="http://purl.org/dc/dcmitype/StillImage" />
        <dc:title />
      </cc:Work>
    </rdf:RDF>
  </metadata>
  <g
     id="layer2"
     style="display:none">
    <rect
       width="86"
       height="85"
       rx="6"
       ry="6"
       x="5"
       y="7"
       id="rect3745"
       style="opacity:0.9;fill:url(#ButtonShadow);fill-opacity:1;fill-rule:nonzero;stroke:none;filter:url(#filter3174)" />
  </g>
  <g
     id="layer2-8"
     style="display:none"
     transform="translate(0,2.6226044e-6)">
    <rect
       width="86"
       height="85"
       rx="6"
       ry="6"
       x="5"
       y="7"
       id="rect3745-4"
       style="opacity:0.9;fill:url(#linearGradient4422);fill-opacity:1;fill-rule:nonzero;stroke:none;filter:url(#filter3174-0)" />
  </g>
  <use
     height="100%"
     width="100%"
     y="0"
     x="0"
     style="fill:white"
     xlink:href="#SVGCleanerId_0"
     transform="translate(0.00999832,0.02002262)"
     id="use4214-2" />
  <rect
     style="fill-opacity:0.02000002"
     x="3.0099983"
     rx="12.724"
     y="3.0099983"
     height="89.980003"
     width="89.980003"
     id="rect4216" />
  <rect
     style="fill-opacity:0.03900003"
     x="3.6179984"
     rx="12.552"
     y="3.6200447"
     height="88.760002"
     width="88.760002"
     id="rect4218" />
  <rect
     style="fill-opacity:0.078"
     x="4.2259984"
     rx="12.38"
     y="4.2300301"
     height="87.550003"
     width="87.550003"
     id="rect4220" />
  <rect
     style="fill-opacity:0.15700001"
     x="4.8339982"
     rx="12.208"
     y="4.8400154"
     height="86.330002"
     width="86.330002"
     id="rect4222" />
  <use
     height="100%"
     width="100%"
     y="0"
     x="0"
     style="fill:url(#linearGradient17754-0)"
     xlink:href="#SVGCleanerId_0"
     transform="translate(0.00999832,0.02002262)"
     id="use4224-0" />
  <path
     style="fill-opacity:0.2"
     inkscape:connector-curvature="0"
     d="m 5.4415983,73.460023 0,5.0663 c 0,6.668 5.3644997,12.032 12.0319997,12.032 l 61.049,0 c 6.668,0 12.032,-5.3645 12.032,-12.032 l 0,-5.0663 c 0,6.6681 -5.3645,12.032 -12.032,12.032 l -61.049,0 c -6.668,0 -12.0319997,-5.3643 -12.0319997,-12.032 z"
     id="path4226" />
  <path
     style="fill-opacity:0.09800002"
     inkscape:connector-curvature="0"
     d="m 5.4415983,77.560023 0,1.0133 c 0,6.668 5.3644997,12.032 12.0319997,12.032 l 61.049,0 c 6.668,0 12.032,-5.3645 12.032,-12.032 l 0,-1.0133 c 0,6.6681 -5.3645,12.032 -12.032,12.032 l -61.049,0 c -6.668,0 -12.0319997,-5.3644 -12.0319997,-12.032 z"
     id="path4228" />
  <g
     id="g4456"
     transform="translate(4.063536,-187.21188)">
    <path
       d="m 51.932204,210.71186 c -7.115552,0 -12.818184,5.35882 -12.818184,12 0.01605,0.7072 0.06889,1.72941 0.136368,2.59091 -1.2168,0.51643 -1.305592,2.88458 -0.272728,5.31818 0.409584,0.96505 0.931245,1.70604 1.5,2.31818 0.138191,0.68394 0.101934,0.99099 0.272725,1.77273 0.476599,1.42979 2.355621,4.232 4.090909,6.54546 0.170158,1.77669 0.346673,3.56967 0,5.5909 -5.00012,4.14839 -17.8828,5.93266 -17.863635,10.22728 l -0.272728,1.63636 50.454544,0 -0.272738,-1.63636 c -0.0205,-3.67562 -12.924821,-5.93266 -17.863627,-10.22728 -0.199832,-1.64398 -0.237925,-3.28986 -0.136352,-4.90909 1.581225,-2.44015 3.696428,-5.63474 4.227269,-7.22727 0.190782,-0.80644 0.26022,-1.35107 0.409089,-2.04546 0.473816,-0.57393 0.878237,-1.22306 1.227275,-2.04545 0.981222,-2.31192 0.917798,-4.51893 -0.136352,-5.18182 0.06215,-0.9315 0.108982,-1.92266 0.136352,-2.72727 0,-6.64118 -5.702625,-12 -12.818181,-12 z"
       inkscape:connector-curvature="0"
       id="path3159"
       style="fill:url(#linearGradient3886);fill-opacity:1;stroke:none" />
    <path
       d="m 27.525953,222.71186 c -4.743702,0 -8.5625,3.57255 -8.5625,8 0.01067,0.47147 0.04877,1.14442 0.09375,1.71875 -0.8112,0.34429 -0.844826,1.9401 -0.15625,3.5625 0.273056,0.64337 0.620831,1.12315 1,1.53125 0.09213,0.45596 0.04239,0.66634 0.15625,1.1875 0.317732,0.9532 1.59314,2.8327 2.75,4.375 0.11344,1.18446 0.231115,2.37126 0,3.71875 -3.333415,2.76559 -11.919027,3.94942 -11.90625,6.8125 l -0.1875,1.09375 17.71875,0 c 2.169385,-1.70915 6.406146,-3.06565 10.28125,-4.625 -2.385189,-0.9563 -4.972451,-1.98012 -6.46875,-3.28125 -0.133221,-1.09599 -0.161467,-2.20176 -0.09375,-3.28125 1.054149,-1.62677 2.458606,-3.75081 2.8125,-4.8125 0.127186,-0.53763 0.182004,-0.91208 0.28125,-1.375 0.315878,-0.38262 0.579808,-0.79549 0.8125,-1.34375 0.654148,-1.54128 0.609025,-3.02682 -0.09375,-3.46875 0.04144,-0.621 0.07549,-1.27609 0.09375,-1.8125 -1e-6,-4.42745 -3.787546,-8 -8.53125,-8 z"
       inkscape:connector-curvature="0"
       id="path3079"
       style="opacity:0.6;fill:url(#linearGradient3081);fill-opacity:1;stroke:none" />
    <path
       d="m 39.150953,223.21186 c -0.0074,0.16863 -0.03125,0.32962 -0.03125,0.5 0.01006,0.44327 0.06357,1.05053 0.09375,1.625 0.01311,-0.006 0.01787,-0.0256 0.03125,-0.0313 -0.05446,-0.69531 -0.07286,-1.43846 -0.09375,-2.09375 z m 25.5625,0.0313 c -0.02514,0.69625 -0.04375,1.43812 -0.09375,2.1875 0.01252,0.008 0.01901,0.0229 0.03125,0.0313 0.0293,-0.60453 0.07613,-1.23191 0.09375,-1.75 0,-0.15977 -0.02472,-0.31052 -0.03125,-0.46875 z m -26.4375,4.84375 c -0.08524,0.98521 0.140604,2.24267 0.6875,3.53125 0.409584,0.96505 0.931245,1.70036 1.5,2.3125 0.138191,0.68394 0.110459,0.99951 0.28125,1.78125 0.476599,1.42979 2.358462,4.21779 4.09375,6.53125 0.07447,0.77753 0.154982,1.57285 0.1875,2.375 0.01439,-1.15843 -0.08258,-2.27947 -0.1875,-3.375 -1.735288,-2.31346 -3.617151,-5.10146 -4.09375,-6.53125 -0.170791,-0.78174 -0.143059,-1.09731 -0.28125,-1.78125 -0.568755,-0.61214 -1.090416,-1.34745 -1.5,-2.3125 -0.373287,-0.87952 -0.608949,-1.75409 -0.6875,-2.53125 z m 27.125,0.0625 c -0.07899,0.76257 -0.288292,1.60178 -0.65625,2.46875 -0.349038,0.82239 -0.744934,1.48856 -1.21875,2.0625 -0.148869,0.69438 -0.215468,1.22481 -0.40625,2.03125 -0.530841,1.59253 -2.637525,4.77859 -4.21875,7.21875 -0.04623,0.73696 -0.07365,1.47409 -0.0625,2.21875 0.0087,-0.40743 0.03711,-0.81394 0.0625,-1.21875 1.581225,-2.44016 3.687909,-5.62622 4.21875,-7.21875 0.190782,-0.80644 0.257381,-1.33687 0.40625,-2.03125 0.473816,-0.57394 0.869712,-1.24011 1.21875,-2.0625 0.537467,-1.26636 0.733698,-2.50033 0.65625,-3.46875 z m -46.40625,2.96875 c -0.01567,0.1985 -0.03125,0.39142 -0.03125,0.59375 0.0047,0.20559 0.01787,0.49267 0.03125,0.75 0.01978,-0.0104 0.0417,-0.0224 0.0625,-0.0313 -0.03433,-0.43842 -0.04532,-0.89264 -0.0625,-1.3125 z m 17.03125,0.0313 c -0.01926,0.44353 -0.03107,0.90405 -0.0625,1.375 0.0251,0.0158 0.03908,0.0441 0.0625,0.0625 0.01521,-0.29682 0.02244,-0.61626 0.03125,-0.875 0,-0.1917 -0.01728,-0.37423 -0.03125,-0.5625 z m -17.5625,3.25 c -0.109862,0.68763 0.02999,1.63359 0.4375,2.59375 0.273056,0.64337 0.620831,1.12315 1,1.53125 0.09213,0.45596 0.04239,0.66634 0.15625,1.1875 0.317732,0.9532 1.59314,2.8327 2.75,4.375 0.05477,0.57191 0.107991,1.15918 0.125,1.75 0.05909,-0.95778 -0.03992,-1.86165 -0.125,-2.75 -1.15686,-1.5423 -2.432268,-3.4218 -2.75,-4.375 -0.11386,-0.52116 -0.06412,-0.73154 -0.15625,-1.1875 -0.379169,-0.4081 -0.726944,-0.88788 -1,-1.53125 -0.234178,-0.55176 -0.372562,-1.09632 -0.4375,-1.59375 z m 18,0.0937 c -0.06297,0.46994 -0.185224,0.97923 -0.40625,1.5 -0.232692,0.54826 -0.496622,0.96113 -0.8125,1.34375 -0.09925,0.46292 -0.154064,0.83737 -0.28125,1.375 -0.353894,1.06169 -1.758351,3.18573 -2.8125,4.8125 -0.03767,0.6005 -0.05452,1.20194 -0.03125,1.8125 0.0048,-0.2727 0.01431,-0.54253 0.03125,-0.8125 1.054149,-1.62677 2.458606,-3.75081 2.8125,-4.8125 0.127186,-0.53763 0.182004,-0.91208 0.28125,-1.375 0.315878,-0.38262 0.579808,-0.79549 0.8125,-1.34375 0.391671,-0.92284 0.507025,-1.82917 0.40625,-2.5 z m -25.59375,20.21875 -0.15625,1 16.75,0 c 0.248578,-0.34713 0.566186,-0.68284 0.96875,-1 l -17.5625,0 z m 16,4 -0.15625,1 50.4375,0 -0.15625,-1 -50.125,0 z"
       inkscape:connector-curvature="0"
       id="path3854"
       style="opacity:0.5;fill:white;fill-opacity:1;stroke:none" />
    <path
       d="m 51.932203,210.71186 c -7.115552,0 -12.8125,5.35882 -12.8125,12 0.01605,0.7072 0.05752,1.73225 0.125,2.59375 -1.2168,0.51643 -1.314114,2.8789 -0.28125,5.3125 0.409584,0.96505 0.931245,1.70036 1.5,2.3125 0.138191,0.68394 0.110459,0.99951 0.28125,1.78125 0.476599,1.42979 2.358462,4.21779 4.09375,6.53125 0.170158,1.7767 0.346673,3.57251 0,5.59375 -1.509885,1.25269 -3.749866,2.29424 -6.125,3.25 -2.385189,-0.9563 -4.972451,-1.98012 -6.46875,-3.28125 -0.133221,-1.09599 -0.161467,-2.20176 -0.09375,-3.28125 1.054149,-1.62677 2.458606,-3.75081 2.8125,-4.8125 0.127186,-0.53763 0.182004,-0.91208 0.28125,-1.375 0.315878,-0.38262 0.579808,-0.79549 0.8125,-1.34375 0.654148,-1.54128 0.609025,-3.02682 -0.09375,-3.46875 0.04144,-0.621 0.07549,-1.27609 0.09375,-1.8125 -1e-6,-4.42745 -3.787546,-8 -8.53125,-8 -4.743702,0 -8.5625,3.57255 -8.5625,8 0.01067,0.47147 0.04877,1.14442 0.09375,1.71875 -0.8112,0.34429 -0.844826,1.9401 -0.15625,3.5625 0.273056,0.64337 0.620831,1.12315 1,1.53125 0.09213,0.45596 0.04239,0.66634 0.15625,1.1875 0.317732,0.9532 1.59314,2.8327 2.75,4.375 0.11344,1.18446 0.231115,2.37126 0,3.71875 -3.333415,2.76559 -11.919027,3.94942 -11.90625,6.8125 l -0.1875,1.09375 17.71875,0 c -0.904248,0.71241 -1.472686,1.49307 -1.46875,2.375 l -0.25,1.625 50.4375,0 -0.25,-1.625 c -0.0205,-3.67561 -12.936194,-5.95538 -17.875,-10.25 -0.199832,-1.64398 -0.226573,-3.28702 -0.125,-4.90625 1.581225,-2.44016 3.687909,-5.62622 4.21875,-7.21875 0.190782,-0.80644 0.257381,-1.33687 0.40625,-2.03125 0.473816,-0.57394 0.869712,-1.24011 1.21875,-2.0625 0.981222,-2.31192 0.92915,-4.52461 -0.125,-5.1875 0.06215,-0.93151 0.09763,-1.91413 0.125,-2.71875 0,-6.64118 -5.696944,-12 -12.8125,-12 z m 0,1.96875 c 6.10881,0 10.807729,4.47637 10.84375,9.96875 1.39e-4,0.0211 0,0.0413 0,0.0625 -0.02699,0.78981 -0.06704,1.72501 -0.125,2.59375 a 1.9585335,1.9585335 0 0 0 0.78125,1.6875 c 0.01137,0.0468 0.05581,0.1891 0.0625,0.46875 0.01338,0.55929 -0.164539,1.46859 -0.5625,2.40625 -0.289567,0.68227 -0.565121,1.14929 -0.90625,1.5625 a 1.9585335,1.9585335 0 0 0 -0.40625,0.84375 c -0.156115,0.72818 -0.227857,1.22626 -0.375,1.875 -0.160277,0.45337 -0.75106,1.61181 -1.5,2.84375 -0.765213,1.25871 -1.705073,2.64827 -2.5,3.875 a 1.9585335,1.9585335 0 0 0 -0.3125,0.9375 c -0.1081,1.72328 -0.05992,3.50289 0.15625,5.28125 a 1.9585335,1.9585335 0 0 0 0.65625,1.21875 c 2.977783,2.58938 7.510243,4.14023 11.3125,5.6875 1.901129,0.77363 3.633593,1.54817 4.71875,2.21875 0.337637,0.20864 0.458467,0.36287 0.65625,0.53125 l -45.21875,0 c 0.07928,-0.1344 0.03511,-0.18298 0.4375,-0.5 a 1.9585335,1.9585335 0 0 0 -1.21875,-3.5 l -13.71875,0 c 0.534553,-0.25101 0.917838,-0.48625 1.59375,-0.75 2.489204,-0.97134 5.553111,-1.86484 7.75,-3.6875 a 1.9585335,1.9585335 0 0 0 0.6875,-1.15625 c 0.282224,-1.64548 0.113022,-3.0699 0,-4.25 a 1.9585335,1.9585335 0 0 0 -0.375,-1 c -0.55659,-0.74204 -1.127317,-1.55653 -1.59375,-2.28125 -0.44798,-0.69605 -0.788778,-1.33018 -0.84375,-1.46875 -0.03249,-0.23459 -0.002,-0.39134 -0.125,-1 a 1.9585335,1.9585335 0 0 0 -0.46875,-0.96875 c -0.264634,-0.28482 -0.44878,-0.52229 -0.625,-0.9375 -0.2381,-0.561 -0.312595,-1.10452 -0.3125,-1.375 a 1.9585335,1.9585335 0 0 0 0.59375,-1.59375 c -0.04157,-0.53084 -0.0524,-1.15276 -0.0625,-1.5625 0,-0.0105 -5.8e-5,-0.0207 0,-0.0313 0.01806,-3.28726 2.845271,-6 6.59375,-6 3.736492,0 6.526936,2.6867 6.5625,5.96875 2.28e-4,0.0211 0,0.0414 0,0.0625 -0.01775,0.49865 -0.05508,1.10807 -0.09375,1.6875 a 1.9585335,1.9585335 0 0 0 0.5625,1.5 c 0.0071,0.25402 -0.08016,0.79631 -0.3125,1.34375 -0.162765,0.3835 -0.283481,0.58148 -0.5,0.84375 a 1.9585335,1.9585335 0 0 0 -0.40625,0.84375 c -0.10298,0.48034 -0.160164,0.81788 -0.25,1.21875 -0.07574,0.20099 -0.452897,0.95287 -0.9375,1.75 -0.501654,0.82518 -1.124861,1.74246 -1.65625,2.5625 a 1.9585335,1.9585335 0 0 0 -0.3125,0.9375 c -0.07508,1.19685 -0.02326,2.43655 0.125,3.65625 a 1.9585335,1.9585335 0 0 0 0.65625,1.21875 c 1.95594,1.70082 4.651969,2.67107 7.03125,3.625 a 1.9585335,1.9585335 0 0 0 1.4375,0 c 2.436655,-0.98052 4.824395,-2.04269 6.65625,-3.5625 a 1.9585335,1.9585335 0 0 0 0.6875,-1.15625 c 0.398067,-2.32088 0.169844,-4.35158 0,-6.125 a 1.9585335,1.9585335 0 0 0 -0.375,-1 c -1.673335,-2.23086 -3.522465,-5.18049 -3.78125,-5.90625 -0.100111,-0.52254 -0.09398,-0.82155 -0.25,-1.59375 a 1.9585335,1.9585335 0 0 0 -0.46875,-0.96875 c -0.442905,-0.47669 -0.80928,-0.97486 -1.125,-1.71875 -0.418752,-0.98665 -0.590223,-1.96919 -0.5625,-2.53125 0.01271,-0.25777 0.03325,-0.32335 0.03125,-0.34375 -1.8e-4,-0.002 8.07e-4,-0.0307 0,-0.0313 a 1.9585335,1.9585335 0 0 0 0.9375,-1.8125 c -0.06212,-0.79305 -0.07801,-1.76413 -0.09375,-2.4375 0,-0.0106 -3.5e-5,-0.0207 0,-0.0313 0.01806,-5.50681 4.723188,-10 10.84375,-10 z"
       inkscape:connector-curvature="0"
       id="path3887"
       style="opacity:0.1;fill:black;fill-opacity:1;stroke:none" />
    <path
       d="m 51.932203,210.71186 c -7.115552,0 -12.8125,5.35882 -12.8125,12 0.01605,0.7072 0.05752,1.73225 0.125,2.59375 -1.2168,0.51643 -1.314114,2.8789 -0.28125,5.3125 0.409584,0.96505 0.931245,1.70036 1.5,2.3125 0.138191,0.68394 0.110459,0.99951 0.28125,1.78125 0.476599,1.42979 2.358462,4.21779 4.09375,6.53125 0.170158,1.7767 0.346673,3.57251 0,5.59375 -1.509885,1.25269 -3.749866,2.29424 -6.125,3.25 -2.385189,-0.9563 -4.972451,-1.98012 -6.46875,-3.28125 -0.133221,-1.09599 -0.161467,-2.20176 -0.09375,-3.28125 1.054149,-1.62677 2.458606,-3.75081 2.8125,-4.8125 0.127186,-0.53763 0.182004,-0.91208 0.28125,-1.375 0.315878,-0.38262 0.579808,-0.79549 0.8125,-1.34375 0.654148,-1.54128 0.609025,-3.02682 -0.09375,-3.46875 0.04144,-0.621 0.07549,-1.27609 0.09375,-1.8125 -1e-6,-4.42745 -3.787546,-8 -8.53125,-8 -4.743702,0 -8.5625,3.57255 -8.5625,8 0.01067,0.47147 0.04877,1.14442 0.09375,1.71875 -0.8112,0.34429 -0.844826,1.9401 -0.15625,3.5625 0.273056,0.64337 0.620831,1.12315 1,1.53125 0.09213,0.45596 0.04239,0.66634 0.15625,1.1875 0.317732,0.9532 1.59314,2.8327 2.75,4.375 0.11344,1.18446 0.231115,2.37126 0,3.71875 -3.333415,2.76559 -11.919027,3.94942 -11.90625,6.8125 l -0.1875,1.09375 17.71875,0 c -0.904248,0.71241 -1.472686,1.49307 -1.46875,2.375 l -0.25,1.625 50.4375,0 -0.25,-1.625 c -0.0205,-3.67561 -12.936194,-5.95538 -17.875,-10.25 -0.199832,-1.64398 -0.226573,-3.28702 -0.125,-4.90625 1.581225,-2.44016 3.687909,-5.62622 4.21875,-7.21875 0.190782,-0.80644 0.257381,-1.33687 0.40625,-2.03125 0.473816,-0.57394 0.869712,-1.24011 1.21875,-2.0625 0.981222,-2.31192 0.92915,-4.52461 -0.125,-5.1875 0.06215,-0.93151 0.09763,-1.91413 0.125,-2.71875 0,-6.64118 -5.696944,-12 -12.8125,-12 z m 0,0.96875 c 6.615391,0 11.82564,4.92996 11.84375,11 3.2e-5,0.0106 0,0.0206 0,0.0313 -0.02718,0.79752 -0.06494,1.75612 -0.125,2.65625 a 0.97330772,0.97330772 0 0 0 0.4375,0.875 c 0.120106,0.0755 0.357215,0.44423 0.375,1.1875 0.01779,0.74327 -0.180432,1.76503 -0.625,2.8125 -0.319483,0.75275 -0.654624,1.31844 -1.0625,1.8125 a 0.97330772,0.97330772 0 0 0 -0.1875,0.40625 c -0.150228,0.70072 -0.213179,1.23236 -0.375,1.9375 -5.03e-4,0.002 -0.03075,-0.002 -0.03125,0 -0.204856,0.61457 -0.846976,1.81396 -1.625,3.09375 -0.778024,1.27979 -1.675994,2.68286 -2.46875,3.90625 a 0.97330772,0.97330772 0 0 0 -0.15625,0.46875 c -0.104817,1.67093 -0.08295,3.38299 0.125,5.09375 a 0.97330772,0.97330772 0 0 0 0.34375,0.625 c 2.722046,2.367 7.205561,3.9432 11.03125,5.5 1.912844,0.7784 3.655096,1.54672 4.84375,2.28125 0.594327,0.36727 1.047659,0.7245 1.3125,1.03125 0.264841,0.30675 0.342775,0.51273 0.34375,0.6875 a 0.97330772,0.97330772 0 0 0 0,0.15625 l 0.0625,0.5 -48.125,0 0.0625,-0.5 a 0.97330772,0.97330772 0 0 0 0,-0.15625 c -0.0021,-0.4612 0.305238,-1.00377 1.09375,-1.625 a 0.97330772,0.97330772 0 0 0 -0.59375,-1.71875 l -16.5625,0 a 0.97330772,0.97330772 0 0 0 0,-0.125 c -10e-4,-0.22908 0.199737,-0.58214 0.9375,-1.0625 0.737763,-0.48036 1.893468,-0.97599 3.15625,-1.46875 2.525563,-0.98552 5.538565,-1.92986 7.46875,-3.53125 a 0.97330772,0.97330772 0 0 0 0.34375,-0.59375 c 0.256514,-1.49558 0.113232,-2.78645 0,-3.96875 a 0.97330772,0.97330772 0 0 0 -0.1875,-0.5 c -0.567577,-0.75668 -1.171334,-1.59031 -1.65625,-2.34375 -0.484916,-0.75344 -0.841487,-1.46196 -0.9375,-1.75 -0.06315,-0.34739 -0.01728,-0.52937 -0.125,-1.0625 a 0.97330772,0.97330772 0 0 0 -0.25,-0.46875 c -0.32225,-0.34683 -0.587567,-0.72002 -0.8125,-1.25 -0.297228,-0.70032 -0.422837,-1.39312 -0.40625,-1.84375 0.01244,-0.33797 0.06994,-0.42531 0.0625,-0.4375 a 0.97330772,0.97330772 0 0 0 0.5625,-0.96875 c -0.04289,-0.54768 -0.08299,-1.21625 -0.09375,-1.65625 -2.02e-4,-0.008 1.84e-4,-0.0231 0,-0.0313 0.01822,-3.85334 3.350344,-7 7.59375,-7 4.243408,0 7.544448,3.14215 7.5625,7 5e-5,0.0106 0,0.0206 0,0.0313 -0.01801,0.51735 -0.05369,1.14972 -0.09375,1.75 a 0.97330772,0.97330772 0 0 0 0.4375,0.875 c -0.05667,-0.0356 0.112729,0.0935 0.125,0.53125 0.01227,0.43777 -0.126253,1.09028 -0.40625,1.75 -0.197941,0.46638 -0.389749,0.77094 -0.65625,1.09375 a 0.97330772,0.97330772 0 0 0 -0.1875,0.40625 c -0.09896,0.46159 -0.148037,0.83326 -0.25,1.28125 l -0.03125,0 c -0.116383,0.34915 -0.516786,1.15375 -1.03125,2 -0.514464,0.84625 -1.127032,1.77706 -1.65625,2.59375 a 0.97330772,0.97330772 0 0 0 -0.15625,0.46875 c -0.07138,1.13781 -0.04694,2.31128 0.09375,3.46875 a 0.97330772,0.97330772 0 0 0 0.34375,0.625 c 1.724721,1.49976 4.336497,2.48238 6.71875,3.4375 a 0.97330772,0.97330772 0 0 0 0.75,0 c 2.405707,-0.96806 4.70511,-2.02081 6.375,-3.40625 a 0.97330772,0.97330772 0 0 0 0.34375,-0.59375 c 0.372214,-2.17015 0.170002,-4.06868 0,-5.84375 a 0.97330772,0.97330772 0 0 0 -0.1875,-0.5 c -1.71274,-2.2834 -3.583917,-5.18926 -3.9375,-6.25 -0.128852,-0.631 -0.103416,-0.93077 -0.25,-1.65625 a 0.97330772,0.97330772 0 0 0 -0.25,-0.46875 c -0.506213,-0.54483 -0.949563,-1.17611 -1.3125,-2.03125 -0.467889,-1.10242 -0.662581,-2.17558 -0.625,-2.9375 0.03758,-0.76192 0.249302,-1.0404 0.375,-1.09375 a 0.97330772,0.97330772 0 0 0 0.59375,-0.96875 c -0.06442,-0.8224 -0.108901,-1.84137 -0.125,-2.53125 -1.98e-4,-0.008 1.91e-4,-0.0229 0,-0.0313 0.01811,-6.07004 5.228363,-11 11.84375,-11 z"
       inkscape:connector-curvature="0"
       id="path3878"
       style="opacity:0.15;fill:black;fill-opacity:1;stroke:none" />
    <path
       d="m 51.932203,210.71186 c -7.115552,0 -12.8125,5.35882 -12.8125,12 0.0031,0.13642 0.02626,0.34338 0.03125,0.5 0.282075,-6.40407 5.848253,-11.5 12.78125,-11.5 6.944374,0 12.516154,5.11236 12.78125,11.53125 0.0061,-0.16921 0.0259,-0.37393 0.03125,-0.53125 0,-6.64118 -5.696944,-12 -12.8125,-12 z m -24.40625,12 c -4.743702,0 -8.5625,3.57255 -8.5625,8 0.0025,0.11157 0.02593,0.27609 0.03125,0.40625 0.327306,-4.14515 4.004325,-7.40625 8.53125,-7.40625 4.538313,0 8.191295,3.27744 8.5,7.4375 0.0061,-0.14131 0.02684,-0.30789 0.03125,-0.4375 -1e-6,-4.42745 -3.787546,-8 -8.53125,-8 z m 11.6875,2.625 c -0.748195,0.34946 -1.073905,1.40046 -0.9375,2.75 0.07574,-0.87545 0.396239,-1.53827 0.96875,-1.78125 -0.02518,-0.32152 -0.01328,-0.6267 -0.03125,-0.96875 z m 25.4375,0.125 c -0.01621,0.33433 -0.0091,0.63704 -0.03125,0.96875 0.4643,0.29197 0.708415,0.88691 0.78125,1.65625 0.114155,-1.21749 -0.128989,-2.20339 -0.75,-2.625 z m -45.65625,7 c -0.48925,0.25857 -0.65236,1.00979 -0.53125,1.9375 0.07577,-0.47427 0.26263,-0.82822 0.59375,-0.96875 -0.02537,-0.32389 -0.0452,-0.63596 -0.0625,-0.96875 z m 17.03125,0.125 c -0.01633,0.31853 -0.04105,0.61604 -0.0625,0.9375 0.281988,0.17732 0.432466,0.5192 0.5,0.96875 0.116733,-0.87122 -0.02674,-1.58352 -0.4375,-1.90625 z m 22.8125,11.78125 c -0.01552,1.15026 0.04659,2.30953 0.1875,3.46875 4.938806,4.29462 17.8545,6.57439 17.875,10.25 l 0.09375,0.625 0.15625,0 -0.25,-1.625 c -0.0205,-3.67561 -12.936194,-5.95538 -17.875,-10.25 -0.09992,-0.82199 -0.168532,-1.65009 -0.1875,-2.46875 z m -13.8125,0.25 c -0.0089,0.72028 -0.05459,1.44383 -0.1875,2.21875 -1.509885,1.25269 -3.749866,2.29424 -6.125,3.25 -2.385189,-0.9563 -4.972451,-1.98012 -6.46875,-3.28125 -0.05911,-0.48631 -0.106436,-0.98174 -0.125,-1.46875 -0.01436,0.81768 0.0251,1.64686 0.125,2.46875 1.496299,1.30113 4.083561,2.32495 6.46875,3.28125 2.375134,-0.95576 4.615115,-1.99731 6.125,-3.25 0.194959,-1.13668 0.229286,-2.18796 0.1875,-3.21875 z m -22.09375,1.28125 c -0.0204,0.29991 -0.07089,0.59076 -0.125,0.90625 -3.333415,2.76559 -11.919027,3.94942 -11.90625,6.8125 l -0.1875,1.09375 0.15625,0 0.03125,-0.0937 c -0.01278,-2.86308 8.572835,-4.04691 11.90625,-6.8125 0.115558,-0.67375 0.139709,-1.29306 0.125,-1.90625 z m 4.53125,9.8125 c -0.309783,0.4326 -0.502184,0.8857 -0.5,1.375 l -0.25,1.625 0.15625,0 0.09375,-0.625 c -0.0039,-0.88193 0.564502,-1.66259 1.46875,-2.375 l -0.96875,0 z"
       inkscape:connector-curvature="0"
       id="path3868"
       style="opacity:0.5;fill:black;fill-opacity:1;stroke:none" />
  </g>
</svg>
