<?xml version="1.0" encoding="UTF-8"?>
<svg xmlns="http://www.w3.org/2000/svg" xmlns:xlink="http://www.w3.org/1999/xlink" width="17pt" height="17pt" viewBox="0 0 17 17" version="1.1">
<defs>
<linearGradient id="linear0" gradientUnits="userSpaceOnUse" x1="0" y1="6.132" x2="0" y2="90.24" gradientTransform="matrix(0.1813,0,0,-0.179191,-0.202406,17.366562)">
<stop offset="0" style="stop-color:rgb(0%,0%,0%);stop-opacity:0.0784314;"/>
<stop offset="1" style="stop-color:rgb(0%,0%,0%);stop-opacity:0.0470588;"/>
</linearGradient>
<linearGradient id="linear1" gradientUnits="userSpaceOnUse" x1="0" y1="6.132" x2="0" y2="90.24" gradientTransform="matrix(0.1813,0,0,-0.179191,-0.202406,17.366562)">
<stop offset="0" style="stop-color:rgb(0%,0%,0%);stop-opacity:0.101961;"/>
<stop offset="1" style="stop-color:rgb(0%,0%,0%);stop-opacity:0.0588235;"/>
</linearGradient>
<linearGradient id="linear2" gradientUnits="userSpaceOnUse" x1="0" y1="6.132" x2="0" y2="90.24" gradientTransform="matrix(0.1813,0,0,-0.179191,-0.202406,17.366562)">
<stop offset="0" style="stop-color:rgb(0%,0%,0%);stop-opacity:0.2;"/>
<stop offset="1" style="stop-color:rgb(0%,0%,0%);stop-opacity:0.117647;"/>
</linearGradient>
<linearGradient id="linear3" gradientUnits="userSpaceOnUse" x1="0" y1="6.132" x2="0" y2="90.24" gradientTransform="matrix(0.1813,0,0,-0.179191,-0.202406,17.366562)">
<stop offset="0" style="stop-color:rgb(0%,0%,0%);stop-opacity:0.298039;"/>
<stop offset="1" style="stop-color:rgb(0%,0%,0%);stop-opacity:0.176471;"/>
</linearGradient>
<linearGradient id="linear4" gradientUnits="userSpaceOnUse" x1="0" y1="6.132" x2="0" y2="90.24" gradientTransform="matrix(0.177083,0,0,-0.177083,0,17.177083)">
<stop offset="0" style="stop-color:rgb(0%,0%,0%);stop-opacity:0.45098;"/>
<stop offset="1" style="stop-color:rgb(0%,0%,0%);stop-opacity:0.266667;"/>
</linearGradient>
<linearGradient id="linear5" gradientUnits="userSpaceOnUse" x1="0" y1="90" x2="0" y2="5.988" gradientTransform="matrix(0.177083,0,0,0.177083,0,0)">
<stop offset="0" style="stop-color:rgb(66.27451%,4.705882%,4.705882%);stop-opacity:1;"/>
<stop offset="1" style="stop-color:rgb(94.117647%,33.333333%,18.823529%);stop-opacity:1;"/>
</linearGradient>
<linearGradient id="linear6" gradientUnits="userSpaceOnUse" x1="0" y1="6" x2="0" y2="63.893" gradientTransform="matrix(0.177083,0,0,0.177083,0,0)">
<stop offset="0" style="stop-color:rgb(100%,100%,100%);stop-opacity:0.4;"/>
<stop offset="1" style="stop-color:rgb(100%,100%,100%);stop-opacity:0;"/>
</linearGradient>
<radialGradient id="radial0" gradientUnits="userSpaceOnUse" cx="48" cy="90.17" fx="48" fy="90.17" r="42" gradientTransform="matrix(0.20494,0,0,0.176359,-1.337156,0.0348853)">
<stop offset="0" style="stop-color:rgb(100%,100%,100%);stop-opacity:0.2;"/>
<stop offset="1" style="stop-color:rgb(100%,100%,100%);stop-opacity:0;"/>
</radialGradient>
<linearGradient id="linear7" gradientUnits="userSpaceOnUse" x1="0" y1="16.385" x2="0" y2="1.092" gradientTransform="matrix(-0.7979,0,0,0.687843,14.366771,2.489792)">
<stop offset="0" style="stop-color:rgb(86.27451%,86.27451%,86.27451%);stop-opacity:1;"/>
<stop offset="0.307" style="stop-color:rgb(92.156863%,92.156863%,92.156863%);stop-opacity:1;"/>
<stop offset="0.707" style="stop-color:rgb(100%,100%,100%);stop-opacity:1;"/>
<stop offset="0.845" style="stop-color:rgb(98.039216%,98.039216%,98.039216%);stop-opacity:1;"/>
<stop offset="1" style="stop-color:rgb(94.117647%,94.117647%,94.117647%);stop-opacity:1;"/>
</linearGradient>
</defs>
<g id="surface1">
<path style=" stroke:none;fill-rule:nonzero;fill:url(#linear0);" d="M 2.125 16.828125 C 1.148438 16.828125 0.347656 16.027344 0.347656 15.050781 L 0.347656 2.480469 C 0.347656 1.503906 1.148438 0.703125 2.125 0.703125 L 14.875 0.703125 C 15.851562 0.703125 16.652344 1.503906 16.652344 2.480469 L 16.652344 15.050781 C 16.652344 16.027344 15.851562 16.828125 14.875 16.828125 Z M 2.125 16.828125 "/>
<path style=" stroke:none;fill-rule:nonzero;fill:url(#linear1);" d="M 2.125 16.652344 C 1.246094 16.652344 0.527344 15.933594 0.527344 15.050781 L 0.527344 2.480469 C 0.527344 1.597656 1.246094 0.878906 2.125 0.878906 L 14.875 0.878906 C 15.753906 0.878906 16.472656 1.597656 16.472656 2.480469 L 16.472656 15.050781 C 16.472656 15.933594 15.753906 16.652344 14.875 16.652344 Z M 2.125 16.652344 "/>
<path style=" stroke:none;fill-rule:nonzero;fill:url(#linear2);" d="M 2.125 16.46875 C 1.34375 16.46875 0.707031 15.832031 0.707031 15.050781 L 0.707031 2.480469 C 0.707031 1.699219 1.34375 1.0625 2.125 1.0625 L 14.875 1.0625 C 15.65625 1.0625 16.292969 1.699219 16.292969 2.480469 L 16.292969 15.050781 C 16.292969 15.832031 15.65625 16.46875 14.875 16.46875 Z M 2.125 16.46875 "/>
<path style=" stroke:none;fill-rule:nonzero;fill:url(#linear3);" d="M 2.125 16.292969 L 14.875 16.292969 C 15.558594 16.292969 16.113281 15.738281 16.113281 15.050781 L 16.113281 2.480469 C 16.113281 1.792969 15.558594 1.238281 14.875 1.238281 L 2.125 1.238281 C 1.441406 1.238281 0.886719 1.792969 0.886719 2.480469 L 0.886719 15.050781 C 0.886719 15.738281 1.441406 16.292969 2.125 16.292969 Z M 2.125 16.292969 "/>
<path style=" stroke:none;fill-rule:nonzero;fill:url(#linear4);" d="M 2.125 16.113281 L 14.875 16.113281 C 15.460938 16.113281 15.9375 15.640625 15.9375 15.050781 L 15.9375 2.300781 C 15.9375 1.714844 15.460938 1.238281 14.875 1.238281 L 2.125 1.238281 C 1.539062 1.238281 1.0625 1.714844 1.0625 2.300781 L 1.0625 15.050781 C 1.0625 15.640625 1.539062 16.113281 2.125 16.113281 Z M 2.125 16.113281 "/>
<path style=" stroke:none;fill-rule:nonzero;fill:url(#linear5);" d="M 2.125 1.0625 L 14.875 1.0625 C 15.460938 1.0625 15.9375 1.539062 15.9375 2.125 L 15.9375 14.875 C 15.9375 15.460938 15.460938 15.9375 14.875 15.9375 L 2.125 15.9375 C 1.539062 15.9375 1.0625 15.460938 1.0625 14.875 L 1.0625 2.125 C 1.0625 1.539062 1.539062 1.0625 2.125 1.0625 Z M 2.125 1.0625 "/>
<path style=" stroke:none;fill-rule:nonzero;fill:url(#linear6);" d="M 2.125 1.0625 C 1.535156 1.0625 1.0625 1.535156 1.0625 2.125 L 1.0625 14.875 C 1.0625 14.933594 1.070312 14.992188 1.078125 15.046875 C 1.085938 15.097656 1.097656 15.152344 1.113281 15.203125 C 1.113281 15.207031 1.117188 15.214844 1.117188 15.21875 C 1.136719 15.269531 1.160156 15.316406 1.183594 15.363281 C 1.210938 15.410156 1.238281 15.457031 1.273438 15.5 C 1.304688 15.542969 1.339844 15.585938 1.378906 15.621094 C 1.457031 15.699219 1.542969 15.765625 1.644531 15.816406 C 1.691406 15.839844 1.746094 15.859375 1.796875 15.875 C 1.753906 15.859375 1.710938 15.835938 1.671875 15.808594 C 1.667969 15.808594 1.667969 15.8125 1.664062 15.808594 C 1.660156 15.804688 1.65625 15.804688 1.648438 15.800781 C 1.628906 15.785156 1.609375 15.769531 1.589844 15.753906 C 1.570312 15.742188 1.550781 15.726562 1.53125 15.710938 C 1.5 15.683594 1.472656 15.648438 1.445312 15.617188 C 1.425781 15.59375 1.40625 15.570312 1.390625 15.542969 C 1.386719 15.539062 1.382812 15.53125 1.378906 15.523438 C 1.367188 15.503906 1.355469 15.488281 1.34375 15.46875 C 1.328125 15.433594 1.308594 15.394531 1.296875 15.355469 C 1.292969 15.351562 1.289062 15.347656 1.289062 15.34375 C 1.285156 15.328125 1.28125 15.3125 1.277344 15.296875 C 1.273438 15.277344 1.265625 15.257812 1.261719 15.242188 C 1.25 15.179688 1.238281 15.117188 1.238281 15.050781 L 1.238281 2.300781 C 1.238281 1.808594 1.632812 1.417969 2.125 1.417969 L 14.875 1.417969 C 15.367188 1.417969 15.761719 1.808594 15.761719 2.300781 L 15.761719 15.050781 C 15.761719 15.117188 15.75 15.179688 15.738281 15.242188 C 15.730469 15.277344 15.722656 15.3125 15.710938 15.34375 C 15.710938 15.347656 15.707031 15.351562 15.703125 15.355469 C 15.695312 15.386719 15.679688 15.421875 15.667969 15.449219 C 15.660156 15.464844 15.652344 15.480469 15.644531 15.496094 C 15.632812 15.511719 15.621094 15.527344 15.609375 15.542969 C 15.59375 15.570312 15.574219 15.59375 15.554688 15.617188 C 15.53125 15.648438 15.503906 15.679688 15.472656 15.703125 C 15.472656 15.707031 15.46875 15.707031 15.46875 15.710938 C 15.441406 15.734375 15.417969 15.753906 15.390625 15.773438 C 15.371094 15.785156 15.355469 15.796875 15.335938 15.808594 C 15.332031 15.8125 15.332031 15.808594 15.328125 15.808594 C 15.289062 15.835938 15.246094 15.859375 15.203125 15.875 C 15.253906 15.859375 15.308594 15.839844 15.355469 15.816406 C 15.457031 15.765625 15.542969 15.699219 15.621094 15.621094 C 15.660156 15.585938 15.695312 15.542969 15.726562 15.5 C 15.761719 15.457031 15.789062 15.410156 15.816406 15.363281 C 15.839844 15.316406 15.863281 15.269531 15.882812 15.21875 C 15.882812 15.210938 15.886719 15.207031 15.886719 15.203125 C 15.902344 15.152344 15.914062 15.097656 15.921875 15.046875 C 15.929688 14.992188 15.9375 14.933594 15.9375 14.875 L 15.9375 2.125 C 15.9375 1.535156 15.464844 1.0625 14.875 1.0625 Z M 2.125 1.0625 "/>
<path style=" stroke:none;fill-rule:nonzero;fill:url(#radial0);" d="M 2.125 15.9375 C 1.535156 15.9375 1.0625 15.464844 1.0625 14.875 L 1.0625 2.125 C 1.0625 2.066406 1.070312 2.007812 1.078125 1.953125 C 1.085938 1.902344 1.097656 1.847656 1.113281 1.796875 C 1.113281 1.792969 1.117188 1.785156 1.117188 1.78125 C 1.136719 1.730469 1.160156 1.683594 1.183594 1.636719 C 1.210938 1.589844 1.238281 1.542969 1.273438 1.5 C 1.304688 1.457031 1.339844 1.414062 1.378906 1.378906 C 1.457031 1.300781 1.542969 1.234375 1.644531 1.183594 C 1.691406 1.160156 1.746094 1.140625 1.796875 1.125 C 1.753906 1.140625 1.710938 1.164062 1.671875 1.191406 C 1.667969 1.191406 1.667969 1.1875 1.664062 1.191406 C 1.660156 1.195312 1.65625 1.195312 1.648438 1.199219 C 1.628906 1.214844 1.609375 1.230469 1.589844 1.246094 C 1.570312 1.257812 1.550781 1.273438 1.53125 1.289062 C 1.5 1.316406 1.472656 1.351562 1.445312 1.382812 C 1.425781 1.40625 1.40625 1.429688 1.390625 1.457031 C 1.386719 1.460938 1.382812 1.46875 1.378906 1.476562 C 1.367188 1.496094 1.355469 1.511719 1.34375 1.53125 C 1.328125 1.566406 1.308594 1.605469 1.296875 1.644531 C 1.292969 1.648438 1.289062 1.652344 1.289062 1.65625 C 1.285156 1.671875 1.28125 1.6875 1.277344 1.703125 C 1.273438 1.722656 1.265625 1.742188 1.261719 1.757812 C 1.25 1.820312 1.238281 1.882812 1.238281 1.949219 L 1.238281 14.699219 C 1.238281 15.191406 1.632812 15.582031 2.125 15.582031 L 14.875 15.582031 C 15.367188 15.582031 15.761719 15.191406 15.761719 14.699219 L 15.761719 1.949219 C 15.761719 1.882812 15.75 1.820312 15.738281 1.757812 C 15.730469 1.722656 15.722656 1.6875 15.710938 1.65625 C 15.710938 1.652344 15.707031 1.648438 15.703125 1.644531 C 15.695312 1.613281 15.679688 1.578125 15.667969 1.550781 C 15.660156 1.535156 15.652344 1.519531 15.644531 1.503906 C 15.632812 1.488281 15.621094 1.472656 15.609375 1.457031 C 15.59375 1.429688 15.574219 1.40625 15.554688 1.382812 C 15.53125 1.351562 15.503906 1.320312 15.472656 1.296875 C 15.472656 1.292969 15.46875 1.292969 15.46875 1.289062 C 15.441406 1.265625 15.417969 1.246094 15.390625 1.226562 C 15.371094 1.214844 15.355469 1.203125 15.335938 1.191406 C 15.332031 1.1875 15.332031 1.191406 15.328125 1.191406 C 15.289062 1.164062 15.246094 1.140625 15.203125 1.125 C 15.253906 1.140625 15.308594 1.160156 15.355469 1.183594 C 15.457031 1.234375 15.542969 1.300781 15.621094 1.378906 C 15.660156 1.414062 15.695312 1.457031 15.726562 1.5 C 15.761719 1.542969 15.789062 1.589844 15.816406 1.636719 C 15.839844 1.683594 15.863281 1.730469 15.882812 1.78125 C 15.882812 1.789062 15.886719 1.792969 15.886719 1.796875 C 15.902344 1.847656 15.914062 1.902344 15.921875 1.953125 C 15.929688 2.007812 15.9375 2.066406 15.9375 2.125 L 15.9375 14.875 C 15.9375 15.464844 15.464844 15.9375 14.875 15.9375 Z M 2.125 15.9375 "/>
<path style=" stroke:none;fill-rule:nonzero;fill:rgb(33.333333%,0%,0%);fill-opacity:0.0784314;" d="M 7.519531 3.066406 C 7.160156 3.132812 7.195312 3.578125 7.082031 3.847656 C 6.882812 4.542969 6.6875 5.238281 6.492188 5.933594 C 5.398438 5.761719 4.308594 5.550781 3.214844 5.402344 C 2.882812 5.40625 2.773438 5.882812 3.042969 6.058594 C 3.675781 6.691406 4.3125 7.324219 4.945312 7.957031 C 4.117188 8.300781 3.269531 8.613281 2.445312 8.976562 C 2.148438 9.160156 2.332031 9.652344 2.671875 9.628906 C 3.472656 9.761719 4.273438 9.894531 5.074219 10.027344 C 4.359375 10.898438 3.609375 11.75 2.910156 12.632812 C 2.777344 12.929688 3.128906 13.234375 3.410156 13.089844 C 4.429688 12.800781 5.449219 12.511719 6.46875 12.222656 C 6.660156 12.855469 6.816406 13.5 7.027344 14.121094 C 7.175781 14.371094 7.542969 14.316406 7.679688 14.089844 C 8.167969 13.601562 8.65625 13.117188 9.140625 12.628906 C 10.0625 13.171875 10.976562 13.742188 11.898438 14.273438 C 12.195312 14.382812 12.46875 14.03125 12.332031 13.757812 C 12.136719 12.835938 11.9375 11.914062 11.742188 10.992188 C 12.644531 10.914062 13.550781 10.863281 14.449219 10.769531 C 14.773438 10.675781 14.765625 10.203125 14.46875 10.085938 C 13.789062 9.601562 13.113281 9.117188 12.433594 8.632812 C 12.910156 8.335938 13.429688 8.058594 13.878906 7.746094 C 14.113281 7.511719 13.875 7.105469 13.558594 7.144531 C 13.140625 7.097656 12.71875 7.046875 12.300781 7 C 12.898438 6.039062 13.511719 5.085938 14.09375 4.117188 C 14.210938 3.804688 13.8125 3.515625 13.546875 3.707031 C 12.195312 4.324219 10.847656 4.945312 9.496094 5.5625 C 8.933594 4.765625 8.386719 3.945312 7.8125 3.160156 C 7.738281 3.078125 7.625 3.058594 7.519531 3.066406 Z M 8.144531 7.261719 C 8.382812 7.261719 8.617188 7.261719 8.855469 7.261719 C 8.855469 7.851562 8.855469 8.441406 8.855469 9.03125 C 8.617188 9.03125 8.382812 9.03125 8.144531 9.03125 C 8.144531 8.441406 8.144531 7.851562 8.144531 7.261719 Z M 8.144531 10.09375 C 8.382812 10.09375 8.617188 10.09375 8.855469 10.09375 C 8.855469 10.328125 8.855469 10.566406 8.855469 10.800781 C 8.617188 10.800781 8.382812 10.800781 8.144531 10.800781 C 8.144531 10.566406 8.144531 10.328125 8.144531 10.09375 Z M 8.144531 10.09375 "/>
<path style=" stroke:none;fill-rule:nonzero;fill:rgb(33.333333%,0%,0%);fill-opacity:0.14902;" d="M 7.546875 3.25 C 7.480469 3.257812 7.421875 3.308594 7.40625 3.375 L 6.625 6.140625 L 3.269531 5.582031 C 3.195312 5.570312 3.121094 5.609375 3.085938 5.675781 C 3.054688 5.742188 3.066406 5.824219 3.121094 5.875 L 5.269531 8.023438 L 2.589844 9.101562 C 2.515625 9.132812 2.472656 9.207031 2.480469 9.285156 C 2.488281 9.363281 2.550781 9.425781 2.628906 9.433594 L 5.417969 9.894531 L 3.109375 12.65625 C 3.058594 12.714844 3.054688 12.800781 3.097656 12.863281 C 3.140625 12.925781 3.21875 12.957031 3.292969 12.933594 L 6.597656 11.996094 L 7.167969 13.984375 C 7.183594 14.042969 7.230469 14.085938 7.289062 14.101562 C 7.347656 14.117188 7.410156 14.097656 7.453125 14.054688 L 9.113281 12.402344 L 11.921875 14.082031 C 11.980469 14.117188 12.054688 14.113281 12.109375 14.074219 C 12.164062 14.03125 12.191406 13.960938 12.175781 13.894531 L 11.523438 10.824219 L 14.355469 10.601562 C 14.425781 10.597656 14.484375 10.546875 14.503906 10.476562 C 14.527344 10.410156 14.5 10.335938 14.445312 10.292969 L 12.101562 8.621094 L 13.703125 7.660156 C 13.765625 7.621094 13.800781 7.546875 13.785156 7.472656 C 13.769531 7.402344 13.710938 7.347656 13.636719 7.335938 L 11.992188 7.148438 L 13.902344 4.09375 C 13.941406 4.03125 13.933594 3.949219 13.886719 3.890625 C 13.835938 3.835938 13.753906 3.816406 13.683594 3.847656 L 9.433594 5.792969 L 7.714844 3.320312 C 7.675781 3.265625 7.613281 3.238281 7.546875 3.25 Z M 7.96875 7.078125 L 9.03125 7.078125 C 9.035156 7.078125 9.035156 7.078125 9.035156 7.082031 L 9.035156 9.207031 C 9.035156 9.214844 9.035156 9.214844 9.03125 9.214844 L 7.96875 9.214844 C 7.964844 9.214844 7.964844 9.214844 7.964844 9.207031 L 7.964844 7.082031 C 7.964844 7.078125 7.964844 7.078125 7.96875 7.078125 Z M 7.96875 9.910156 L 9.03125 9.910156 C 9.035156 9.910156 9.035156 9.910156 9.035156 9.917969 L 9.035156 10.980469 C 9.035156 10.984375 9.035156 10.984375 9.03125 10.984375 L 7.96875 10.984375 C 7.964844 10.984375 7.964844 10.984375 7.964844 10.980469 L 7.964844 9.917969 C 7.964844 9.910156 7.964844 9.910156 7.96875 9.910156 Z M 7.96875 9.910156 "/>
<path style=" stroke:none;fill-rule:nonzero;fill:rgb(33.333333%,0%,0%);fill-opacity:0.298039;" d="M 7.570312 3.421875 L 6.746094 6.34375 L 3.242188 5.753906 L 5.578125 8.089844 L 2.65625 9.265625 L 5.742188 9.773438 L 3.242188 12.765625 L 6.710938 11.78125 L 7.332031 13.933594 L 9.085938 12.1875 L 12.007812 13.933594 L 11.3125 10.667969 L 14.34375 10.429688 L 11.789062 8.605469 L 13.613281 7.507812 L 11.699219 7.289062 L 13.757812 4 L 9.375 6.007812 Z M 7.96875 6.90625 L 9.03125 6.90625 C 9.128906 6.90625 9.207031 6.984375 9.207031 7.082031 L 9.207031 9.207031 C 9.207031 9.304688 9.128906 9.386719 9.03125 9.386719 L 7.96875 9.386719 C 7.871094 9.386719 7.792969 9.304688 7.792969 9.207031 L 7.792969 7.082031 C 7.792969 6.984375 7.871094 6.90625 7.96875 6.90625 Z M 7.96875 9.738281 L 9.03125 9.738281 C 9.128906 9.738281 9.207031 9.820312 9.207031 9.917969 L 9.207031 10.980469 C 9.207031 11.078125 9.128906 11.15625 9.03125 11.15625 L 7.96875 11.15625 C 7.871094 11.15625 7.792969 11.078125 7.792969 10.980469 L 7.792969 9.917969 C 7.792969 9.820312 7.871094 9.738281 7.96875 9.738281 Z M 7.96875 9.738281 "/>
<path style=" stroke:none;fill-rule:nonzero;fill:url(#linear7);" d="M 7.570312 3.242188 L 6.746094 6.164062 L 3.242188 5.578125 L 5.578125 7.914062 L 2.65625 9.085938 L 5.742188 9.59375 L 3.242188 12.589844 L 6.710938 11.605469 L 7.332031 13.757812 L 9.085938 12.007812 L 12.007812 13.757812 L 11.3125 10.492188 L 14.34375 10.253906 L 11.789062 8.429688 L 13.613281 7.332031 L 11.699219 7.109375 L 13.757812 3.824219 L 9.375 5.832031 Z M 7.96875 6.730469 L 9.03125 6.730469 C 9.128906 6.730469 9.207031 6.808594 9.207031 6.90625 L 9.207031 9.03125 C 9.207031 9.128906 9.128906 9.207031 9.03125 9.207031 L 7.96875 9.207031 C 7.871094 9.207031 7.792969 9.128906 7.792969 9.03125 L 7.792969 6.90625 C 7.792969 6.808594 7.871094 6.730469 7.96875 6.730469 Z M 7.96875 9.5625 L 9.03125 9.5625 C 9.128906 9.5625 9.207031 9.640625 9.207031 9.738281 L 9.207031 10.800781 C 9.207031 10.898438 9.128906 10.980469 9.03125 10.980469 L 7.96875 10.980469 C 7.871094 10.980469 7.792969 10.898438 7.792969 10.800781 L 7.792969 9.738281 C 7.792969 9.640625 7.871094 9.5625 7.96875 9.5625 Z M 7.96875 9.5625 "/>
<path style=" stroke:none;fill-rule:nonzero;fill:rgb(100%,100%,100%);fill-opacity:0.4;" d="M 7.570312 3.242188 L 6.746094 6.164062 L 3.242188 5.578125 L 3.667969 6.003906 L 6.746094 6.519531 L 7.570312 3.597656 L 9.375 6.1875 L 13.445312 4.320312 L 13.757812 3.824219 L 9.375 5.832031 Z M 11.902344 7.132812 L 11.699219 7.464844 L 13.121094 7.632812 L 13.613281 7.332031 Z M 5.324219 8.011719 L 2.65625 9.085938 L 3.28125 9.191406 L 5.578125 8.265625 Z M 12.058594 8.621094 L 11.789062 8.78125 L 13.894531 10.289062 L 14.34375 10.253906 Z M 7.792969 9.03125 L 7.792969 9.386719 C 7.792969 9.484375 7.871094 9.5625 7.96875 9.5625 L 9.03125 9.5625 C 9.128906 9.5625 9.207031 9.484375 9.207031 9.386719 L 9.207031 9.03125 C 9.207031 9.128906 9.128906 9.207031 9.03125 9.207031 L 7.96875 9.207031 C 7.871094 9.207031 7.792969 9.128906 7.792969 9.03125 Z M 5.484375 9.90625 L 3.242188 12.589844 L 3.628906 12.480469 L 5.742188 9.949219 Z M 7.792969 10.800781 L 7.792969 11.15625 C 7.792969 11.253906 7.871094 11.332031 7.96875 11.332031 L 9.03125 11.332031 C 9.128906 11.332031 9.207031 11.253906 9.207031 11.15625 L 9.207031 10.800781 C 9.207031 10.898438 9.128906 10.980469 9.03125 10.980469 L 7.96875 10.980469 C 7.871094 10.980469 7.792969 10.898438 7.792969 10.800781 Z M 11.382812 10.839844 L 11.3125 10.847656 L 11.921875 13.707031 L 12.007812 13.757812 Z M 11.382812 10.839844 "/>
<path style=" stroke:none;fill-rule:nonzero;fill:rgb(100%,100%,100%);fill-opacity:0.8;" d="M 7.570312 3.242188 L 6.746094 6.164062 L 3.242188 5.578125 L 3.453125 5.789062 L 6.746094 6.34375 L 7.570312 3.421875 L 9.375 6.007812 L 13.601562 4.074219 L 13.757812 3.824219 L 9.375 5.832031 Z M 11.804688 7.121094 L 11.699219 7.289062 L 13.363281 7.480469 L 13.613281 7.332031 Z M 5.449219 7.964844 L 2.65625 9.085938 L 2.964844 9.136719 L 5.578125 8.089844 Z M 11.921875 8.523438 L 11.789062 8.605469 L 14.121094 10.269531 L 14.34375 10.253906 Z M 7.792969 9.03125 L 7.792969 9.207031 C 7.792969 9.304688 7.871094 9.386719 7.96875 9.386719 L 9.03125 9.386719 C 9.128906 9.386719 9.207031 9.304688 9.207031 9.207031 L 9.207031 9.03125 C 9.207031 9.128906 9.128906 9.207031 9.03125 9.207031 L 7.96875 9.207031 C 7.871094 9.207031 7.792969 9.128906 7.792969 9.03125 Z M 5.617188 9.75 L 3.242188 12.589844 L 3.4375 12.535156 L 5.742188 9.773438 Z M 11.351562 10.664062 L 11.3125 10.667969 L 11.964844 13.730469 L 12.007812 13.757812 Z M 7.792969 10.800781 L 7.792969 10.980469 C 7.792969 11.078125 7.871094 11.15625 7.96875 11.15625 L 9.03125 11.15625 C 9.128906 11.15625 9.207031 11.078125 9.207031 10.980469 L 9.207031 10.800781 C 9.207031 10.898438 9.128906 10.980469 9.03125 10.980469 L 7.96875 10.980469 C 7.871094 10.980469 7.792969 10.898438 7.792969 10.800781 Z M 7.792969 10.800781 "/>
</g>
</svg>
