<?xml version="1.0" encoding="UTF-8"?>
<svg xmlns="http://www.w3.org/2000/svg" xmlns:xlink="http://www.w3.org/1999/xlink" width="17pt" height="17pt" viewBox="0 0 17 17" version="1.1">
<g id="surface1">
<path style=" stroke:none;fill-rule:nonzero;fill:rgb(80%,80%,80%);fill-opacity:1;" d="M 8.410156 2.347656 C 6.613281 2.347656 5.171875 3.699219 5.171875 5.378906 C 5.175781 5.558594 5.191406 5.816406 5.207031 6.03125 C 4.898438 6.164062 4.878906 6.761719 5.136719 7.378906 C 5.242188 7.621094 5.375 7.808594 5.515625 7.960938 C 5.550781 8.136719 5.542969 8.214844 5.585938 8.410156 C 5.707031 8.773438 6.179688 9.480469 6.617188 10.0625 C 6.664062 10.515625 6.707031 10.964844 6.617188 11.476562 C 5.355469 12.527344 2.097656 12.976562 2.105469 14.0625 L 2.035156 14.476562 L 14.785156 14.476562 L 14.71875 14.0625 C 14.714844 13.132812 11.453125 12.5625 10.203125 11.476562 C 10.152344 11.0625 10.144531 10.644531 10.167969 10.238281 C 10.570312 9.621094 11.105469 8.8125 11.238281 8.410156 C 11.285156 8.207031 11.304688 8.070312 11.339844 7.894531 C 11.460938 7.75 11.5625 7.585938 11.652344 7.378906 C 11.898438 6.792969 11.882812 6.234375 11.617188 6.066406 C 11.632812 5.832031 11.644531 5.582031 11.652344 5.378906 C 11.652344 3.699219 10.210938 2.347656 8.410156 2.347656 Z M 8.410156 2.347656 "/>
</g>
</svg>
