<?xml version="1.0" encoding="UTF-8"?>
<svg xmlns="http://www.w3.org/2000/svg" xmlns:xlink="http://www.w3.org/1999/xlink" width="17pt" height="17pt" viewBox="0 0 17 17" version="1.1">
<g id="surface1">
<path style=" stroke:none;fill-rule:nonzero;fill:rgb(100%,50.196078%,50.196078%);fill-opacity:1;" d="M 7.429688 8.496094 L 6.011719 6.800781 C 5.960938 6.742188 5.9375 6.671875 5.9375 6.59375 C 5.9375 6.507812 5.964844 6.433594 6.027344 6.371094 C 6.089844 6.308594 6.167969 6.277344 6.253906 6.277344 C 6.339844 6.277344 6.417969 6.308594 6.488281 6.375 L 7.84375 8 L 9.195312 6.375 C 9.265625 6.308594 9.34375 6.277344 9.429688 6.277344 C 9.519531 6.277344 9.59375 6.308594 9.652344 6.371094 C 9.71875 6.433594 9.75 6.507812 9.75 6.59375 C 9.75 6.671875 9.722656 6.742188 9.671875 6.800781 L 8.253906 8.496094 L 9.683594 10.210938 C 9.726562 10.265625 9.75 10.332031 9.75 10.40625 C 9.75 10.492188 9.71875 10.570312 9.652344 10.632812 C 9.59375 10.695312 9.519531 10.722656 9.429688 10.722656 C 9.34375 10.722656 9.269531 10.691406 9.207031 10.628906 L 7.84375 8.992188 L 6.476562 10.628906 C 6.414062 10.691406 6.339844 10.722656 6.253906 10.722656 C 6.167969 10.722656 6.089844 10.695312 6.027344 10.632812 C 5.964844 10.570312 5.9375 10.492188 5.9375 10.40625 C 5.9375 10.332031 5.957031 10.265625 6 10.210938 Z M 7.429688 8.496094 "/>
<path style="fill:none;stroke-width:1.209903;stroke-linecap:round;stroke-linejoin:round;stroke:rgb(100%,50.196078%,50.196078%);stroke-opacity:1;stroke-miterlimit:4;" d="M 2.625 1035.867715 L 2.625 1044.867715 L 19.527574 1044.867715 L 19.527574 1035.867715 L 2.625 1035.867715 " transform="matrix(0.708333,0,0,0.708333,0,-728.423225)"/>
<path style=" stroke:none;fill-rule:evenodd;fill:rgb(100%,50.196078%,50.196078%);fill-opacity:1;" d="M 14.089844 7.082031 L 14.089844 9.917969 L 14.769531 9.917969 C 15.027344 9.804688 15.304688 9.578125 15.453125 9.199219 C 15.601562 8.820312 15.605469 8.121094 15.453125 7.75 C 15.300781 7.378906 14.90625 7.082031 14.769531 7.082031 C 14.636719 7.082031 14.089844 7.082031 14.089844 7.082031 Z M 14.089844 7.082031 "/>
</g>
</svg>
