<?xml version="1.0" encoding="UTF-8"?>
<svg xmlns="http://www.w3.org/2000/svg" xmlns:xlink="http://www.w3.org/1999/xlink" width="17pt" height="17pt" viewBox="0 0 17 17" version="1.1">
<g id="surface1">
<path style=" stroke:none;fill-rule:nonzero;fill:rgb(80%,80%,80%);fill-opacity:1;" d="M 8.410156 10.648438 C 7.792969 10.648438 7.292969 11.148438 7.292969 11.769531 C 7.292969 12.390625 7.792969 12.886719 8.410156 12.886719 C 9.03125 12.886719 9.53125 12.390625 9.53125 11.769531 C 9.53125 11.148438 9.03125 10.648438 8.410156 10.648438 Z M 8.410156 11.207031 C 8.71875 11.207031 8.972656 11.457031 8.972656 11.769531 C 8.972656 12.078125 8.71875 12.328125 8.410156 12.328125 C 8.101562 12.328125 7.851562 12.078125 7.851562 11.769531 C 7.851562 11.457031 8.101562 11.207031 8.410156 11.207031 Z M 8.410156 11.207031 "/>
<path style=" stroke:none;fill-rule:nonzero;fill:rgb(80%,80%,80%);fill-opacity:0.501961;" d="M 8.410156 3.933594 C 6.085938 3.933594 3.988281 4.871094 2.472656 6.386719 L 2.867188 6.785156 C 4.285156 5.371094 6.242188 4.492188 8.410156 4.492188 C 10.582031 4.492188 12.539062 5.371094 13.957031 6.785156 L 14.351562 6.386719 C 12.835938 4.871094 10.738281 3.933594 8.410156 3.933594 Z M 8.410156 3.933594 "/>
<path style=" stroke:none;fill-rule:nonzero;fill:rgb(80%,80%,80%);fill-opacity:0.501961;" d="M 8.410156 5.613281 C 6.550781 5.613281 4.875 6.363281 3.660156 7.578125 L 4.054688 7.972656 C 5.167969 6.859375 6.707031 6.175781 8.410156 6.175781 C 10.117188 6.175781 11.65625 6.859375 12.765625 7.972656 L 13.164062 7.578125 C 11.949219 6.363281 10.273438 5.613281 8.410156 5.613281 Z M 8.410156 5.613281 "/>
<path style=" stroke:none;fill-rule:nonzero;fill:rgb(80%,80%,80%);fill-opacity:0.501961;" d="M 8.410156 7.292969 C 7.015625 7.292969 5.757812 7.855469 4.847656 8.761719 L 5.242188 9.160156 C 6.054688 8.351562 7.171875 7.851562 8.410156 7.851562 C 9.652344 7.851562 10.769531 8.351562 11.578125 9.160156 L 11.976562 8.761719 C 11.0625 7.855469 9.804688 7.292969 8.410156 7.292969 Z M 8.410156 7.292969 "/>
<path style=" stroke:none;fill-rule:nonzero;fill:rgb(80%,80%,80%);fill-opacity:1;" d="M 8.410156 8.972656 C 7.484375 8.972656 6.640625 9.34375 6.035156 9.953125 L 6.433594 10.347656 C 6.9375 9.839844 7.636719 9.53125 8.410156 9.53125 C 9.1875 9.53125 9.886719 9.839844 10.390625 10.347656 L 10.789062 9.953125 C 10.179688 9.34375 9.339844 8.972656 8.410156 8.972656 Z M 8.410156 8.972656 "/>
</g>
</svg>
