<?xml version="1.0" encoding="UTF-8"?>
<svg xmlns="http://www.w3.org/2000/svg" xmlns:xlink="http://www.w3.org/1999/xlink" width="17pt" height="17pt" viewBox="0 0 17 17" version="1.1">
<g id="surface1">
<path style=" stroke:none;fill-rule:nonzero;fill:rgb(80%,80%,80%);fill-opacity:1;" d="M 2.921875 3.71875 C 2.480469 3.71875 2.125 4.074219 2.125 4.515625 L 2.125 12.484375 C 2.125 12.925781 2.480469 13.28125 2.921875 13.28125 L 14.078125 13.28125 C 14.519531 13.28125 14.875 12.925781 14.875 12.484375 L 14.875 4.515625 C 14.875 4.074219 14.519531 3.71875 14.078125 3.71875 Z M 3.71875 5.3125 L 5.3125 5.3125 L 5.3125 6.90625 L 3.71875 6.90625 Z M 6.109375 5.3125 L 7.703125 5.3125 L 7.703125 6.90625 L 6.109375 6.90625 Z M 8.5 5.3125 L 10.09375 5.3125 L 10.09375 6.90625 L 8.5 6.90625 Z M 10.890625 5.3125 L 12.484375 5.3125 L 12.484375 6.90625 L 10.890625 6.90625 Z M 4.515625 7.703125 L 6.109375 7.703125 L 6.109375 9.296875 L 4.515625 9.296875 Z M 6.90625 7.703125 L 8.5 7.703125 L 8.5 9.296875 L 6.90625 9.296875 Z M 9.296875 7.703125 L 10.890625 7.703125 L 10.890625 9.296875 L 9.296875 9.296875 Z M 11.6875 7.703125 L 13.28125 7.703125 L 13.28125 9.296875 L 11.6875 9.296875 Z M 3.71875 10.09375 L 5.3125 10.09375 L 5.3125 11.6875 L 3.71875 11.6875 Z M 6.109375 10.09375 L 10.890625 10.09375 L 10.890625 11.6875 L 6.109375 11.6875 Z M 11.6875 10.09375 L 14.078125 10.09375 L 14.078125 11.6875 L 11.6875 11.6875 Z M 11.6875 10.09375 "/>
</g>
</svg>
