<?xml version="1.0" encoding="UTF-8"?>
<svg xmlns="http://www.w3.org/2000/svg" xmlns:xlink="http://www.w3.org/1999/xlink" width="17pt" height="17pt" viewBox="0 0 17 17" version="1.1">
<g id="surface1">
<path style=" stroke:none;fill-rule:nonzero;fill:rgb(80%,80%,80%);fill-opacity:1;" d="M 8.410156 3.933594 C 7.171875 3.933594 6.175781 4.933594 6.175781 6.175781 L 6.175781 8.410156 L 5.054688 8.410156 L 5.054688 12.886719 L 11.769531 12.886719 L 11.769531 8.410156 L 10.648438 8.410156 L 10.648438 6.175781 C 10.648438 4.933594 9.652344 3.933594 8.410156 3.933594 Z M 8.410156 4.492188 C 9.339844 4.492188 10.089844 5.367188 10.089844 6.453125 L 10.089844 8.410156 L 6.734375 8.410156 L 6.734375 6.453125 C 6.734375 5.367188 7.484375 4.492188 8.410156 4.492188 Z M 5.613281 8.972656 L 11.207031 8.972656 L 11.207031 12.328125 L 5.613281 12.328125 Z M 5.613281 8.972656 "/>
</g>
</svg>
