<?xml version="1.0" encoding="UTF-8"?>
<svg xmlns="http://www.w3.org/2000/svg" xmlns:xlink="http://www.w3.org/1999/xlink" width="17pt" height="17pt" viewBox="0 0 17 17" version="1.1">
<g id="surface1">
<path style=" stroke:none;fill-rule:nonzero;fill:rgb(80%,80%,80%);fill-opacity:1;" d="M 4.824219 2.035156 C 4.824219 2.035156 4.425781 2.214844 4.425781 2.433594 L 4.425781 13.988281 C 4.425781 14.429688 4.785156 14.785156 5.222656 14.785156 L 11.597656 14.785156 C 12.039062 14.785156 12.394531 14.429688 12.394531 13.988281 L 12.394531 4.425781 C 12.394531 3.988281 12.039062 3.628906 11.597656 3.628906 L 6.019531 3.628906 L 6.019531 2.433594 C 6.019531 2.214844 5.621094 2.035156 5.621094 2.035156 Z M 5.621094 5.222656 L 11.199219 5.222656 C 11.421875 5.222656 11.597656 5.402344 11.597656 5.621094 L 11.597656 8.011719 C 11.597656 8.234375 11.421875 8.410156 11.199219 8.410156 L 5.621094 8.410156 C 5.402344 8.410156 5.222656 8.234375 5.222656 8.011719 L 5.222656 5.621094 C 5.222656 5.402344 5.402344 5.222656 5.621094 5.222656 Z M 5.222656 9.207031 L 6.816406 9.207031 L 6.816406 10.003906 L 5.222656 10.003906 Z M 7.613281 9.207031 L 9.207031 9.207031 L 9.207031 10.003906 L 7.613281 10.003906 Z M 10.003906 9.207031 L 11.597656 9.207031 L 11.597656 10.003906 L 10.003906 10.003906 Z M 5.222656 10.800781 L 6.816406 10.800781 L 6.816406 11.597656 L 5.222656 11.597656 Z M 7.613281 10.800781 L 9.207031 10.800781 L 9.207031 11.597656 L 7.613281 11.597656 Z M 10.003906 10.800781 L 11.597656 10.800781 L 11.597656 11.597656 L 10.003906 11.597656 Z M 5.222656 12.394531 L 6.816406 12.394531 L 6.816406 13.191406 L 5.222656 13.191406 Z M 7.613281 12.394531 L 9.207031 12.394531 L 9.207031 13.191406 L 7.613281 13.191406 Z M 10.003906 12.394531 L 11.597656 12.394531 L 11.597656 13.191406 L 10.003906 13.191406 Z M 10.003906 12.394531 "/>
</g>
</svg>
