<?xml version="1.0" encoding="UTF-8"?>
<svg xmlns="http://www.w3.org/2000/svg" xmlns:xlink="http://www.w3.org/1999/xlink" width="17pt" height="17pt" viewBox="0 0 17 17" version="1.1">
<g id="surface1">
<path style=" stroke:none;fill-rule:nonzero;fill:rgb(80%,80%,80%);fill-opacity:0.45098;" d="M 13.085938 1.613281 L 13.9375 1.613281 C 14.40625 1.613281 14.785156 1.992188 14.785156 2.460938 L 14.785156 11.8125 C 14.785156 12.28125 14.40625 12.660156 13.9375 12.660156 L 13.085938 12.660156 C 12.617188 12.660156 12.238281 12.28125 12.238281 11.8125 L 12.238281 2.460938 C 12.238281 1.992188 12.617188 1.613281 13.085938 1.613281 Z M 13.085938 1.613281 "/>
<path style=" stroke:none;fill-rule:nonzero;fill:rgb(80%,80%,80%);fill-opacity:0.45098;" d="M 9.6875 4.160156 L 10.535156 4.160156 C 11.007812 4.160156 11.386719 4.542969 11.386719 5.011719 L 11.386719 11.8125 C 11.386719 12.28125 11.007812 12.660156 10.535156 12.660156 L 9.6875 12.660156 C 9.214844 12.660156 8.835938 12.28125 8.835938 11.8125 L 8.835938 5.011719 C 8.835938 4.542969 9.214844 4.160156 9.6875 4.160156 Z M 9.6875 4.160156 "/>
<path style=" stroke:none;fill-rule:nonzero;fill:rgb(80%,80%,80%);fill-opacity:0.45098;" d="M 6.285156 6.710938 L 7.136719 6.710938 C 7.605469 6.710938 7.988281 7.089844 7.988281 7.5625 L 7.988281 11.8125 C 7.988281 12.28125 7.605469 12.660156 7.136719 12.660156 L 6.285156 12.660156 C 5.816406 12.660156 5.4375 12.28125 5.4375 11.8125 L 5.4375 7.5625 C 5.4375 7.089844 5.816406 6.710938 6.285156 6.710938 Z M 6.285156 6.710938 "/>
<path style=" stroke:none;fill-rule:nonzero;fill:rgb(80%,80%,80%);fill-opacity:0.45098;" d="M 2.886719 9.261719 L 3.738281 9.261719 C 4.207031 9.261719 4.585938 9.640625 4.585938 10.113281 L 4.585938 11.8125 C 4.585938 12.28125 4.207031 12.660156 3.738281 12.660156 L 2.886719 12.660156 C 2.417969 12.660156 2.035156 12.28125 2.035156 11.8125 L 2.035156 10.113281 C 2.035156 9.640625 2.417969 9.261719 2.886719 9.261719 Z M 2.886719 9.261719 "/>
<path style=" stroke:none;fill-rule:nonzero;fill:rgb(80%,80%,80%);fill-opacity:1;" d="M 9.6875 14.363281 C 9.6875 14.832031 9.304688 15.210938 8.835938 15.210938 C 8.367188 15.210938 7.988281 14.832031 7.988281 14.363281 C 7.988281 13.890625 8.367188 13.511719 8.835938 13.511719 C 9.304688 13.511719 9.6875 13.890625 9.6875 14.363281 Z M 9.6875 14.363281 "/>
<path style=" stroke:none;fill-rule:nonzero;fill:rgb(80%,80%,80%);fill-opacity:1;" d="M 12.238281 14.363281 C 12.238281 14.832031 11.855469 15.210938 11.386719 15.210938 C 10.917969 15.210938 10.535156 14.832031 10.535156 14.363281 C 10.535156 13.890625 10.917969 13.511719 11.386719 13.511719 C 11.855469 13.511719 12.238281 13.890625 12.238281 14.363281 Z M 12.238281 14.363281 "/>
<path style=" stroke:none;fill-rule:nonzero;fill:rgb(80%,80%,80%);fill-opacity:1;" d="M 7.136719 14.363281 C 7.136719 14.832031 6.757812 15.210938 6.285156 15.210938 C 5.816406 15.210938 5.4375 14.832031 5.4375 14.363281 C 5.4375 13.890625 5.816406 13.511719 6.285156 13.511719 C 6.757812 13.511719 7.136719 13.890625 7.136719 14.363281 Z M 7.136719 14.363281 "/>
</g>
</svg>
