<?xml version="1.0" encoding="UTF-8"?>
<svg xmlns="http://www.w3.org/2000/svg" xmlns:xlink="http://www.w3.org/1999/xlink" width="17pt" height="17pt" viewBox="0 0 17 17" version="1.1">
<g id="surface1">
<path style=" stroke:none;fill-rule:nonzero;fill:rgb(80%,80%,80%);fill-opacity:1;" d="M 2.832031 3.628906 C 2.394531 3.628906 2.035156 3.988281 2.035156 4.425781 L 2.035156 12.394531 C 2.035156 12.835938 2.394531 13.191406 2.832031 13.191406 L 13.988281 13.191406 C 14.429688 13.191406 14.785156 12.835938 14.785156 12.394531 L 14.785156 4.425781 C 14.785156 3.988281 14.429688 3.628906 13.988281 3.628906 Z M 4.425781 5.222656 L 5.222656 5.222656 L 5.222656 7.613281 L 7.613281 7.613281 L 7.613281 10.800781 C 7.613281 11.242188 7.257812 11.597656 6.816406 11.597656 L 6.019531 11.597656 L 6.019531 9.207031 L 3.628906 9.207031 L 3.628906 6.019531 C 3.628906 5.582031 3.988281 5.222656 4.425781 5.222656 Z M 8.808594 5.222656 L 12.792969 5.222656 C 13.015625 5.222656 13.191406 5.402344 13.191406 5.621094 L 13.191406 6.816406 L 10.003906 6.816406 L 10.003906 10.003906 L 11.597656 10.003906 L 11.597656 9.207031 L 10.800781 9.207031 L 10.800781 7.613281 L 13.191406 7.613281 L 13.191406 11.199219 C 13.191406 11.421875 13.015625 11.597656 12.792969 11.597656 L 8.808594 11.597656 C 8.589844 11.597656 8.410156 11.421875 8.410156 11.199219 L 8.410156 5.621094 C 8.410156 5.402344 8.589844 5.222656 8.808594 5.222656 Z M 8.808594 5.222656 "/>
</g>
</svg>
