<?xml version="1.0" encoding="UTF-8"?>
<svg xmlns="http://www.w3.org/2000/svg" xmlns:xlink="http://www.w3.org/1999/xlink" width="17pt" height="17pt" viewBox="0 0 17 17" version="1.1">
<g id="surface1">
<path style=" stroke:none;fill-rule:nonzero;fill:rgb(80%,80%,80%);fill-opacity:0.45098;" d="M 13.085938 2.886719 L 13.9375 2.886719 C 14.40625 2.886719 14.785156 3.265625 14.785156 3.738281 L 14.785156 13.085938 C 14.785156 13.554688 14.40625 13.9375 13.9375 13.9375 L 13.085938 13.9375 C 12.617188 13.9375 12.238281 13.554688 12.238281 13.085938 L 12.238281 3.738281 C 12.238281 3.265625 12.617188 2.886719 13.085938 2.886719 Z M 13.085938 2.886719 "/>
<path style=" stroke:none;fill-rule:nonzero;fill:rgb(80%,80%,80%);fill-opacity:1;" d="M 9.6875 5.4375 L 10.535156 5.4375 C 11.007812 5.4375 11.386719 5.816406 11.386719 6.285156 L 11.386719 13.085938 C 11.386719 13.554688 11.007812 13.9375 10.535156 13.9375 L 9.6875 13.9375 C 9.214844 13.9375 8.835938 13.554688 8.835938 13.085938 L 8.835938 6.285156 C 8.835938 5.816406 9.214844 5.4375 9.6875 5.4375 Z M 9.6875 5.4375 "/>
<path style=" stroke:none;fill-rule:nonzero;fill:rgb(80%,80%,80%);fill-opacity:1;" d="M 6.285156 7.988281 L 7.136719 7.988281 C 7.605469 7.988281 7.988281 8.367188 7.988281 8.835938 L 7.988281 13.085938 C 7.988281 13.554688 7.605469 13.9375 7.136719 13.9375 L 6.285156 13.9375 C 5.816406 13.9375 5.4375 13.554688 5.4375 13.085938 L 5.4375 8.835938 C 5.4375 8.367188 5.816406 7.988281 6.285156 7.988281 Z M 6.285156 7.988281 "/>
<path style=" stroke:none;fill-rule:nonzero;fill:rgb(80%,80%,80%);fill-opacity:1;" d="M 2.886719 10.535156 L 3.738281 10.535156 C 4.207031 10.535156 4.585938 10.917969 4.585938 11.386719 L 4.585938 13.085938 C 4.585938 13.554688 4.207031 13.9375 3.738281 13.9375 L 2.886719 13.9375 C 2.417969 13.9375 2.035156 13.554688 2.035156 13.085938 L 2.035156 11.386719 C 2.035156 10.917969 2.417969 10.535156 2.886719 10.535156 Z M 2.886719 10.535156 "/>
</g>
</svg>
