<?xml version="1.0" encoding="UTF-8"?>
<svg xmlns="http://www.w3.org/2000/svg" xmlns:xlink="http://www.w3.org/1999/xlink" width="17pt" height="17pt" viewBox="0 0 17 17" version="1.1">
<g id="surface1">
<path style=" stroke:none;fill-rule:nonzero;fill:rgb(80%,80%,80%);fill-opacity:1;" d="M 3.933594 3.933594 L 3.933594 10.089844 L 6.734375 10.089844 L 7.292969 10.648438 L 8.972656 10.648438 L 9.53125 10.089844 L 9.53125 9.53125 L 4.492188 9.53125 L 4.492188 4.492188 L 12.328125 4.492188 L 12.328125 8.972656 L 12.886719 8.972656 L 12.886719 3.933594 Z M 10.089844 10.089844 L 10.089844 11.207031 L 3.933594 11.207031 L 3.933594 11.769531 L 10.089844 11.769531 L 10.089844 12.886719 L 12.328125 12.886719 L 12.328125 12.328125 L 10.648438 12.328125 L 10.648438 10.648438 L 12.328125 10.648438 L 12.328125 10.089844 Z M 11.207031 11.207031 L 11.207031 11.769531 L 12.886719 11.769531 L 12.886719 11.207031 Z M 7.292969 12.328125 C 6.980469 12.328125 6.734375 12.578125 6.734375 12.886719 L 9.53125 12.886719 C 9.53125 12.578125 9.28125 12.328125 8.972656 12.328125 Z M 7.292969 12.328125 "/>
</g>
</svg>
