<?xml version="1.0" encoding="UTF-8"?>
<svg xmlns="http://www.w3.org/2000/svg" xmlns:xlink="http://www.w3.org/1999/xlink" width="17pt" height="17pt" viewBox="0 0 17 17" version="1.1">
<g id="surface1">
<path style=" stroke:none;fill-rule:nonzero;fill:rgb(80%,80%,80%);fill-opacity:1;" d="M 2.945312 2.945312 C 2.445312 2.945312 2.035156 3.355469 2.035156 3.859375 L 2.035156 12.964844 C 2.035156 13.46875 2.445312 13.875 2.945312 13.875 L 13.875 13.875 C 14.378906 13.875 14.785156 13.46875 14.785156 12.964844 L 14.785156 3.859375 C 14.785156 3.355469 14.378906 2.945312 13.875 2.945312 Z M 6.132812 4.769531 L 7.5 4.769531 L 7.5 10.234375 L 9.320312 10.234375 L 9.320312 4.769531 L 10.6875 4.769531 C 10.941406 4.769531 11.144531 4.972656 11.144531 5.222656 L 11.144531 11.597656 C 11.144531 11.851562 10.941406 12.054688 10.6875 12.054688 L 6.132812 12.054688 C 5.882812 12.054688 5.679688 11.851562 5.679688 11.597656 L 5.679688 5.222656 C 5.679688 4.972656 5.882812 4.769531 6.132812 4.769531 Z M 6.132812 4.769531 "/>
</g>
</svg>
