<?xml version="1.0" encoding="UTF-8"?>
<svg xmlns="http://www.w3.org/2000/svg" xmlns:xlink="http://www.w3.org/1999/xlink" width="17pt" height="17pt" viewBox="0 0 17 17" version="1.1">
<g id="surface1">
<path style=" stroke:none;fill-rule:nonzero;fill:rgb(80%,80%,80%);fill-opacity:1;" d="M 3.894531 2.746094 C 3.257812 2.746094 2.746094 3.257812 2.746094 3.894531 L 2.746094 12.929688 C 2.746094 13.566406 3.257812 14.078125 3.894531 14.078125 L 12.929688 14.078125 C 13.566406 14.078125 14.078125 13.566406 14.078125 12.929688 L 14.078125 3.894531 C 14.078125 3.257812 13.566406 2.746094 12.929688 2.746094 Z M 7.4375 7.199219 L 9.386719 7.199219 L 9.402344 7.242188 C 9.414062 7.269531 9.421875 7.402344 9.421875 7.542969 C 9.421875 7.773438 9.421875 7.796875 9.453125 7.8125 C 9.472656 7.824219 9.589844 7.832031 9.71875 7.832031 C 9.875 7.832031 9.957031 7.835938 9.972656 7.851562 C 9.988281 7.867188 9.992188 7.980469 9.992188 8.253906 C 9.992188 8.523438 10 8.636719 10.011719 8.652344 C 10.027344 8.667969 10.183594 8.671875 10.59375 8.671875 C 10.917969 8.671875 11.175781 8.679688 11.199219 8.691406 L 11.246094 8.707031 L 11.242188 10.417969 L 11.238281 12.125 L 5.585938 12.125 L 5.582031 10.417969 L 5.578125 8.707031 L 5.621094 8.691406 C 5.648438 8.679688 5.90625 8.671875 6.226562 8.671875 C 6.640625 8.671875 6.792969 8.667969 6.808594 8.652344 C 6.824219 8.636719 6.832031 8.523438 6.832031 8.253906 C 6.832031 7.980469 6.835938 7.867188 6.851562 7.851562 C 6.863281 7.835938 6.945312 7.832031 7.105469 7.832031 C 7.230469 7.832031 7.351562 7.824219 7.371094 7.8125 C 7.402344 7.796875 7.402344 7.773438 7.402344 7.542969 C 7.402344 7.402344 7.410156 7.269531 7.421875 7.242188 Z M 7.4375 7.199219 "/>
<path style="fill:none;stroke-width:1;stroke-linecap:butt;stroke-linejoin:miter;stroke:rgb(100%,50.196078%,50.196078%);stroke-opacity:1;stroke-miterlimit:4;" d="M 12.49272 13.057163 L 10.401095 10.554521 C 10.328025 10.472317 10.29149 10.362713 10.29149 10.253108 C 10.29149 10.116102 10.337159 10.015631 10.428496 9.924294 C 10.519834 9.823823 10.629438 9.778154 10.757311 9.778154 C 10.885183 9.778154 11.003921 9.832956 11.104392 9.924294 L 13.10468 12.326465 L 15.104967 9.924294 C 15.205438 9.832956 15.315043 9.778154 15.442915 9.778154 C 15.579921 9.778154 15.689526 9.823823 15.771729 9.924294 C 15.8722 10.015631 15.917869 10.116102 15.917869 10.253108 C 15.917869 10.362713 15.881334 10.472317 15.808264 10.554521 L 13.71664 13.057163 L 15.826532 15.587207 C 15.881334 15.669411 15.917869 15.760748 15.917869 15.870353 C 15.917869 16.007359 15.8722 16.116964 15.771729 16.208301 C 15.689526 16.299638 15.579921 16.345307 15.442915 16.345307 C 15.315043 16.345307 15.205438 16.299638 15.123234 16.199167 L 13.10468 13.787862 L 11.086125 16.199167 C 10.994788 16.299638 10.885183 16.345307 10.757311 16.345307 C 10.629438 16.345307 10.519834 16.299638 10.428496 16.208301 C 10.337159 16.116964 10.29149 16.007359 10.29149 15.870353 C 10.29149 15.760748 10.318891 15.669411 10.382828 15.587207 Z M 12.49272 13.057163 " transform="matrix(0.427673,0,0,0.427673,7.110327,6.927523)"/>
</g>
</svg>
