<?xml version="1.0" encoding="UTF-8"?>
<svg xmlns="http://www.w3.org/2000/svg" xmlns:xlink="http://www.w3.org/1999/xlink" width="17pt" height="17pt" viewBox="0 0 17 17" version="1.1">
<g id="surface1">
<path style=" stroke:none;fill-rule:nonzero;fill:rgb(80%,80%,80%);fill-opacity:0.501961;" d="M 8.410156 2.101562 C 4.742188 2.101562 1.605469 3.472656 0.164062 5.453125 L 1.347656 6.769531 C 2.554688 5.0625 5.273438 3.878906 8.410156 3.878906 C 11.546875 3.878906 14.265625 5.0625 15.472656 6.769531 L 16.65625 5.453125 C 15.21875 3.472656 12.082031 2.101562 8.410156 2.101562 Z M 8.410156 2.101562 "/>
<path style=" stroke:none;fill-rule:nonzero;fill:rgb(80%,80%,80%);fill-opacity:0.501961;" d="M 8.410156 5.585938 C 5.929688 5.585938 3.761719 6.53125 2.398438 7.953125 L 3.484375 9.164062 C 4.652344 8.070312 6.421875 7.359375 8.410156 7.359375 C 10.398438 7.359375 12.171875 8.070312 13.339844 9.164062 L 14.421875 7.953125 C 13.058594 6.53125 10.890625 5.585938 8.410156 5.585938 Z M 8.410156 5.585938 "/>
<path style=" stroke:none;fill-rule:nonzero;fill:rgb(80%,80%,80%);fill-opacity:0.501961;" d="M 8.410156 8.9375 C 6.902344 8.9375 5.519531 9.4375 4.433594 10.25 L 5.554688 11.5 C 6.375 11.007812 7.359375 10.710938 8.410156 10.710938 C 9.460938 10.710938 10.449219 11.007812 11.269531 11.5 L 12.386719 10.25 C 11.300781 9.4375 9.917969 8.9375 8.410156 8.9375 Z M 8.410156 8.9375 "/>
<path style=" stroke:none;fill-rule:nonzero;fill:rgb(80%,80%,80%);fill-opacity:0.901961;" d="M 8.410156 12.390625 C 7.308594 12.382812 6.875 12.726562 6.769531 12.8125 C 6.828125 12.867188 8.410156 14.71875 8.410156 14.71875 C 8.410156 14.71875 9.980469 12.882812 10.054688 12.8125 C 9.972656 12.730469 9.496094 12.390625 8.410156 12.390625 Z M 8.410156 12.390625 "/>
</g>
</svg>
