<?xml version="1.0" encoding="UTF-8"?>
<svg xmlns="http://www.w3.org/2000/svg" xmlns:xlink="http://www.w3.org/1999/xlink" width="17pt" height="17pt" viewBox="0 0 17 17" version="1.1">
<g id="surface1">
<path style=" stroke:none;fill-rule:nonzero;fill:rgb(80%,80%,80%);fill-opacity:1;" d="M 3.933594 3.933594 L 3.933594 10.089844 L 6.734375 10.089844 L 7.292969 10.648438 L 8.972656 10.648438 L 9.53125 10.089844 L 9.53125 9.53125 L 4.492188 9.53125 L 4.492188 4.492188 L 12.328125 4.492188 L 12.328125 8.972656 L 12.886719 8.972656 L 12.886719 3.933594 Z M 10.089844 10.089844 L 10.089844 11.207031 L 3.933594 11.207031 L 3.933594 11.769531 L 10.089844 11.769531 L 10.089844 12.886719 L 12.328125 12.886719 L 12.328125 12.328125 L 10.648438 12.328125 L 10.648438 10.648438 L 12.328125 10.648438 L 12.328125 10.089844 Z M 11.207031 11.207031 L 11.207031 11.769531 L 12.886719 11.769531 L 12.886719 11.207031 Z M 7.292969 12.328125 C 6.980469 12.328125 6.734375 12.578125 6.734375 12.886719 L 9.53125 12.886719 C 9.53125 12.578125 9.28125 12.328125 8.972656 12.328125 Z M 7.292969 12.328125 "/>
<path style=" stroke:none;fill-rule:nonzero;fill:rgb(80%,80%,80%);fill-opacity:1;" d="M 8.410156 7.851562 C 8.71875 7.851562 8.972656 8.101562 8.972656 8.410156 C 8.972656 8.71875 8.71875 8.972656 8.410156 8.972656 C 8.101562 8.972656 7.851562 8.71875 7.851562 8.410156 C 7.851562 8.101562 8.101562 7.851562 8.410156 7.851562 Z M 8.410156 7.851562 "/>
<path style=" stroke:none;fill-rule:nonzero;fill:rgb(80%,80%,80%);fill-opacity:1;" d="M 8.410156 6.175781 C 7.792969 6.175781 7.230469 6.421875 6.828125 6.828125 L 7.222656 7.222656 C 7.527344 6.921875 7.945312 6.734375 8.410156 6.734375 C 8.878906 6.734375 9.296875 6.921875 9.597656 7.222656 L 9.996094 6.828125 C 9.589844 6.421875 9.03125 6.175781 8.410156 6.175781 Z M 8.410156 6.175781 "/>
<path style=" stroke:none;fill-rule:nonzero;fill:rgb(80%,80%,80%);fill-opacity:1;" d="M 8.410156 5.054688 C 7.484375 5.054688 6.640625 5.425781 6.035156 6.035156 L 6.433594 6.433594 C 6.9375 5.925781 7.636719 5.613281 8.410156 5.613281 C 9.1875 5.613281 9.886719 5.925781 10.390625 6.433594 L 10.789062 6.035156 C 10.179688 5.425781 9.339844 5.054688 8.410156 5.054688 Z M 8.410156 5.054688 "/>
</g>
</svg>
