<?xml version="1.0" encoding="UTF-8"?>
<svg xmlns="http://www.w3.org/2000/svg" xmlns:xlink="http://www.w3.org/1999/xlink" width="17pt" height="17pt" viewBox="0 0 17 17" version="1.1">
<g id="surface1">
<path style=" stroke:none;fill-rule:nonzero;fill:rgb(97.254902%,50.980392%,16.862745%);fill-opacity:1;" d="M 13.558594 10.242188 C 12.941406 10.242188 12.441406 10.742188 12.441406 11.363281 L 12.441406 12.480469 L 11.882812 12.480469 L 11.882812 14.71875 L 15.242188 14.71875 L 15.242188 12.480469 L 14.679688 12.480469 L 14.679688 11.363281 C 14.679688 10.742188 14.179688 10.242188 13.558594 10.242188 Z M 13.558594 10.800781 C 13.871094 10.800781 14.121094 11.054688 14.121094 11.363281 L 14.121094 12.480469 L 13 12.480469 L 13 11.363281 C 13 11.054688 13.25 10.800781 13.558594 10.800781 Z M 12.441406 13.039062 L 14.679688 13.039062 L 14.679688 14.160156 L 12.441406 14.160156 Z M 12.441406 13.039062 "/>
</g>
</svg>
