<?xml version="1.0" encoding="UTF-8"?>
<svg xmlns="http://www.w3.org/2000/svg" xmlns:xlink="http://www.w3.org/1999/xlink" width="17pt" height="17pt" viewBox="0 0 17 17" version="1.1">
<g id="surface1">
<path style=" stroke:none;fill-rule:nonzero;fill:rgb(80%,80%,80%);fill-opacity:1;" d="M 8.410156 3.933594 C 5.929688 3.933594 3.933594 5.929688 3.933594 8.410156 C 3.933594 9.652344 4.433594 10.769531 5.242188 11.578125 L 5.636719 11.183594 C 4.929688 10.476562 4.492188 9.496094 4.492188 8.410156 C 4.492188 6.242188 6.242188 4.492188 8.410156 4.492188 C 10.582031 4.492188 12.328125 6.242188 12.328125 8.410156 C 12.328125 9.496094 11.890625 10.476562 11.183594 11.183594 L 11.578125 11.578125 C 12.390625 10.769531 12.886719 9.652344 12.886719 8.410156 C 12.886719 5.929688 10.890625 3.933594 8.410156 3.933594 Z M 8.410156 5.054688 C 6.550781 5.054688 5.054688 6.550781 5.054688 8.410156 C 5.054688 9.339844 5.425781 10.179688 6.035156 10.789062 L 6.433594 10.390625 C 5.925781 9.886719 5.613281 9.1875 5.613281 8.410156 C 5.613281 6.863281 6.863281 5.613281 8.410156 5.613281 C 9.960938 5.613281 11.207031 6.863281 11.207031 8.410156 C 11.207031 9.1875 10.898438 9.886719 10.390625 10.390625 L 10.789062 10.789062 C 11.394531 10.179688 11.769531 9.339844 11.769531 8.410156 C 11.769531 6.550781 10.273438 5.054688 8.410156 5.054688 Z M 8.410156 6.175781 C 7.171875 6.175781 6.175781 7.171875 6.175781 8.410156 C 6.175781 9.03125 6.421875 9.589844 6.828125 9.996094 L 7.222656 9.597656 C 6.921875 9.296875 6.734375 8.878906 6.734375 8.410156 C 6.734375 7.484375 7.484375 6.734375 8.410156 6.734375 C 9.339844 6.734375 10.089844 7.484375 10.089844 8.410156 C 10.089844 8.878906 9.902344 9.296875 9.597656 9.597656 L 9.996094 9.996094 C 10.402344 9.589844 10.648438 9.03125 10.648438 8.410156 C 10.648438 7.171875 9.652344 6.175781 8.410156 6.175781 Z M 8.410156 7.851562 C 8.101562 7.851562 7.851562 8.101562 7.851562 8.410156 C 7.851562 8.425781 7.859375 8.4375 7.859375 8.453125 L 6.652344 12.886719 L 7.230469 12.886719 L 7.292969 12.664062 L 7.304688 12.675781 L 8.410156 11.570312 L 9.515625 12.675781 L 9.53125 12.664062 L 9.589844 12.886719 L 10.171875 12.886719 L 8.964844 8.453125 C 8.964844 8.4375 8.972656 8.425781 8.972656 8.410156 C 8.972656 8.101562 8.71875 7.851562 8.410156 7.851562 Z M 8.304688 8.949219 C 8.339844 8.957031 8.375 8.972656 8.410156 8.972656 C 8.449219 8.972656 8.480469 8.957031 8.519531 8.949219 L 8.886719 10.300781 L 8.410156 10.777344 L 7.9375 10.300781 Z M 9.058594 10.925781 L 9.242188 11.609375 L 8.804688 11.175781 Z M 7.765625 10.925781 L 8.015625 11.175781 L 7.578125 11.609375 Z M 7.765625 10.925781 "/>
</g>
</svg>
