<?xml version="1.0" encoding="UTF-8"?>
<svg xmlns="http://www.w3.org/2000/svg" xmlns:xlink="http://www.w3.org/1999/xlink" width="17pt" height="17pt" viewBox="0 0 17 17" version="1.1">
<g id="surface1">
<path style=" stroke:none;fill-rule:nonzero;fill:rgb(80%,80%,80%);fill-opacity:1;" d="M 8.410156 2.746094 C 5.273438 2.746094 2.746094 5.273438 2.746094 8.410156 C 2.746094 9.980469 3.375 11.398438 4.402344 12.421875 L 4.902344 11.921875 C 4.007812 11.023438 3.453125 9.785156 3.453125 8.410156 C 3.453125 5.667969 5.667969 3.453125 8.410156 3.453125 C 11.15625 3.453125 13.371094 5.667969 13.371094 8.410156 C 13.371094 9.785156 12.816406 11.023438 11.921875 11.921875 L 12.421875 12.421875 C 13.445312 11.398438 14.078125 9.980469 14.078125 8.410156 C 14.078125 5.273438 11.550781 2.746094 8.410156 2.746094 Z M 8.410156 4.160156 C 6.058594 4.160156 4.160156 6.058594 4.160156 8.410156 C 4.160156 9.585938 4.632812 10.652344 5.402344 11.417969 L 5.90625 10.917969 C 5.265625 10.277344 4.871094 9.390625 4.871094 8.410156 C 4.871094 6.449219 6.449219 4.871094 8.410156 4.871094 C 10.371094 4.871094 11.949219 6.449219 11.949219 8.410156 C 11.949219 9.390625 11.558594 10.277344 10.917969 10.917969 L 11.417969 11.417969 C 12.1875 10.652344 12.664062 9.585938 12.664062 8.410156 C 12.664062 6.058594 10.765625 4.160156 8.410156 4.160156 Z M 8.410156 5.578125 C 6.84375 5.578125 5.578125 6.84375 5.578125 8.410156 C 5.578125 9.195312 5.894531 9.902344 6.40625 10.417969 L 6.910156 9.914062 C 6.523438 9.53125 6.289062 9 6.289062 8.410156 C 6.289062 7.234375 7.234375 6.289062 8.410156 6.289062 C 9.585938 6.289062 10.535156 7.234375 10.535156 8.410156 C 10.535156 9 10.296875 9.53125 9.914062 9.914062 L 10.417969 10.417969 C 10.929688 9.902344 11.242188 9.195312 11.242188 8.410156 C 11.242188 6.84375 9.980469 5.578125 8.410156 5.578125 Z M 8.410156 7.703125 C 8.019531 7.703125 7.703125 8.019531 7.703125 8.410156 C 7.703125 8.429688 7.714844 8.445312 7.714844 8.460938 L 6.183594 14.078125 L 6.917969 14.078125 L 6.996094 13.792969 L 7.011719 13.808594 L 8.410156 12.410156 L 9.8125 13.808594 L 9.828125 13.792969 L 9.902344 14.078125 L 10.636719 14.078125 L 9.109375 8.460938 C 9.109375 8.445312 9.121094 8.429688 9.121094 8.410156 C 9.121094 8.019531 8.800781 7.703125 8.410156 7.703125 Z M 8.277344 9.089844 C 8.320312 9.101562 8.363281 9.121094 8.410156 9.121094 C 8.460938 9.121094 8.5 9.101562 8.546875 9.089844 L 9.015625 10.804688 L 8.410156 11.40625 L 7.808594 10.804688 Z M 9.226562 11.59375 L 9.464844 12.460938 L 8.910156 11.910156 Z M 7.59375 11.59375 L 7.910156 11.910156 L 7.359375 12.460938 Z M 7.59375 11.59375 "/>
</g>
</svg>
