<?xml version="1.0" encoding="UTF-8"?>
<svg xmlns="http://www.w3.org/2000/svg" xmlns:xlink="http://www.w3.org/1999/xlink" width="17pt" height="17pt" viewBox="0 0 17 17" version="1.1">
<defs>
<linearGradient id="linear0" gradientUnits="userSpaceOnUse" x1="0" y1="-2" x2="0" y2="-34" gradientTransform="matrix(0.177083,0,0,0.177083,-1.416667,15.9375)">
<stop offset="0" style="stop-color:rgb(66.666667%,66.666667%,66.666667%);stop-opacity:1;"/>
<stop offset="1" style="stop-color:rgb(94.117647%,94.117647%,94.117647%);stop-opacity:1;"/>
</linearGradient>
<linearGradient id="linear1" gradientUnits="userSpaceOnUse" x1="0" y1="-18" x2="0" y2="14.14" gradientTransform="matrix(0.177083,0,0,0.177083,0,13.104167)">
<stop offset="0" style="stop-color:rgb(100%,100%,100%);stop-opacity:0.6;"/>
<stop offset="1" style="stop-color:rgb(100%,100%,100%);stop-opacity:0;"/>
</linearGradient>
</defs>
<g id="surface1">
<path style=" stroke:none;fill-rule:nonzero;fill:rgb(0%,0%,0%);fill-opacity:0.0784314;" d="M 2.480469 9.5625 C 1.796875 9.5625 1.238281 10.121094 1.238281 10.800781 L 1.238281 15.050781 C 1.238281 15.734375 1.796875 16.292969 2.480469 16.292969 L 3.894531 16.292969 C 4.578125 16.292969 5.136719 15.734375 5.136719 15.050781 L 5.136719 10.800781 C 5.136719 10.121094 4.578125 9.5625 3.894531 9.5625 Z M 2.480469 9.5625 "/>
<path style=" stroke:none;fill-rule:nonzero;fill:rgb(0%,0%,0%);fill-opacity:0.101961;" d="M 2.480469 9.746094 C 1.898438 9.746094 1.421875 10.21875 1.421875 10.800781 L 1.421875 15.050781 C 1.421875 15.632812 1.898438 16.109375 2.480469 16.109375 L 3.894531 16.109375 C 4.476562 16.109375 4.953125 15.632812 4.953125 15.050781 L 4.953125 10.800781 C 4.953125 10.21875 4.476562 9.746094 3.894531 9.746094 Z M 2.480469 9.746094 "/>
<path style=" stroke:none;fill-rule:nonzero;fill:rgb(0%,0%,0%);fill-opacity:0.14902;" d="M 2.480469 9.910156 C 1.988281 9.910156 1.589844 10.3125 1.589844 10.800781 L 1.589844 15.050781 C 1.589844 15.542969 1.988281 15.941406 2.480469 15.941406 L 3.894531 15.941406 C 4.386719 15.941406 4.785156 15.542969 4.785156 15.050781 L 4.785156 10.800781 C 4.785156 10.3125 4.386719 9.910156 3.894531 9.910156 Z M 2.480469 9.910156 "/>
<path style=" stroke:none;fill-rule:nonzero;fill:rgb(0%,0%,0%);fill-opacity:0.298039;" d="M 2.480469 10.09375 C 2.085938 10.09375 1.769531 10.410156 1.769531 10.800781 L 1.769531 15.050781 C 1.769531 15.445312 2.085938 15.761719 2.480469 15.761719 L 3.894531 15.761719 C 4.289062 15.761719 4.605469 15.445312 4.605469 15.050781 L 4.605469 10.800781 C 4.605469 10.410156 4.289062 10.09375 3.894531 10.09375 Z M 2.480469 10.09375 "/>
<path style=" stroke:none;fill-rule:nonzero;fill:rgb(100%,100%,100%);fill-opacity:0.2;" d="M 13.105469 1.417969 L 14.519531 1.417969 C 14.910156 1.417969 15.230469 1.734375 15.230469 2.125 L 15.230469 14.875 C 15.230469 15.265625 14.910156 15.582031 14.519531 15.582031 L 13.105469 15.582031 C 12.714844 15.582031 12.394531 15.265625 12.394531 14.875 L 12.394531 2.125 C 12.394531 1.734375 12.714844 1.417969 13.105469 1.417969 Z M 13.105469 1.417969 "/>
<path style=" stroke:none;fill-rule:nonzero;fill:rgb(100%,100%,100%);fill-opacity:0.2;" d="M 9.5625 4.25 L 10.980469 4.25 C 11.371094 4.25 11.6875 4.566406 11.6875 4.957031 L 11.6875 14.875 C 11.6875 15.265625 11.371094 15.582031 10.980469 15.582031 L 9.5625 15.582031 C 9.171875 15.582031 8.855469 15.265625 8.855469 14.875 L 8.855469 4.957031 C 8.855469 4.566406 9.171875 4.25 9.5625 4.25 Z M 9.5625 4.25 "/>
<path style=" stroke:none;fill-rule:nonzero;fill:rgb(100%,100%,100%);fill-opacity:0.2;" d="M 6.019531 7.082031 L 7.4375 7.082031 C 7.828125 7.082031 8.144531 7.402344 8.144531 7.792969 L 8.144531 14.875 C 8.144531 15.265625 7.828125 15.582031 7.4375 15.582031 L 6.019531 15.582031 C 5.628906 15.582031 5.3125 15.265625 5.3125 14.875 L 5.3125 7.792969 C 5.3125 7.402344 5.628906 7.082031 6.019531 7.082031 Z M 6.019531 7.082031 "/>
<path style=" stroke:none;fill-rule:nonzero;fill:url(#linear0);" d="M 2.480469 9.917969 L 3.894531 9.917969 C 4.285156 9.917969 4.605469 10.234375 4.605469 10.625 L 4.605469 14.875 C 4.605469 15.265625 4.285156 15.582031 3.894531 15.582031 L 2.480469 15.582031 C 2.089844 15.582031 1.769531 15.265625 1.769531 14.875 L 1.769531 10.625 C 1.769531 10.234375 2.089844 9.917969 2.480469 9.917969 Z M 2.480469 9.917969 "/>
<path style=" stroke:none;fill-rule:nonzero;fill:url(#linear1);" d="M 2.480469 9.917969 C 2.085938 9.917969 1.769531 10.234375 1.769531 10.625 L 1.769531 14.875 C 1.769531 15.195312 1.980469 15.457031 2.269531 15.542969 C 2.074219 15.464844 1.941406 15.277344 1.941406 15.050781 L 1.941406 10.800781 C 1.941406 10.5 2.179688 10.265625 2.480469 10.265625 L 3.894531 10.265625 C 4.195312 10.265625 4.433594 10.5 4.433594 10.800781 L 4.433594 15.050781 C 4.433594 15.277344 4.300781 15.464844 4.105469 15.542969 C 4.394531 15.457031 4.605469 15.195312 4.605469 14.875 L 4.605469 10.625 C 4.605469 10.234375 4.289062 9.917969 3.894531 9.917969 Z M 2.480469 9.917969 "/>
</g>
</svg>
