<?xml version="1.0" encoding="UTF-8"?>
<svg xmlns="http://www.w3.org/2000/svg" xmlns:xlink="http://www.w3.org/1999/xlink" width="17pt" height="17pt" viewBox="0 0 17 17" version="1.1">
<g id="surface1">
<path style=" stroke:none;fill-rule:nonzero;fill:rgb(100%,100%,100%);fill-opacity:0.2;" d="M 13.105469 1.417969 L 14.519531 1.417969 C 14.910156 1.417969 15.230469 1.734375 15.230469 2.125 L 15.230469 14.875 C 15.230469 15.265625 14.910156 15.582031 14.519531 15.582031 L 13.105469 15.582031 C 12.714844 15.582031 12.394531 15.265625 12.394531 14.875 L 12.394531 2.125 C 12.394531 1.734375 12.714844 1.417969 13.105469 1.417969 Z M 13.105469 1.417969 "/>
<path style=" stroke:none;fill-rule:nonzero;fill:rgb(100%,100%,100%);fill-opacity:0.2;" d="M 9.5625 4.25 L 10.980469 4.25 C 11.371094 4.25 11.6875 4.566406 11.6875 4.957031 L 11.6875 14.875 C 11.6875 15.265625 11.371094 15.582031 10.980469 15.582031 L 9.5625 15.582031 C 9.171875 15.582031 8.855469 15.265625 8.855469 14.875 L 8.855469 4.957031 C 8.855469 4.566406 9.171875 4.25 9.5625 4.25 Z M 9.5625 4.25 "/>
<path style=" stroke:none;fill-rule:nonzero;fill:rgb(100%,100%,100%);fill-opacity:0.2;" d="M 6.019531 7.082031 L 7.4375 7.082031 C 7.828125 7.082031 8.144531 7.402344 8.144531 7.792969 L 8.144531 14.875 C 8.144531 15.265625 7.828125 15.582031 7.4375 15.582031 L 6.019531 15.582031 C 5.628906 15.582031 5.3125 15.265625 5.3125 14.875 L 5.3125 7.792969 C 5.3125 7.402344 5.628906 7.082031 6.019531 7.082031 Z M 6.019531 7.082031 "/>
<path style=" stroke:none;fill-rule:nonzero;fill:rgb(100%,100%,100%);fill-opacity:0.2;" d="M 2.480469 9.917969 L 3.894531 9.917969 C 4.285156 9.917969 4.605469 10.234375 4.605469 10.625 L 4.605469 14.875 C 4.605469 15.265625 4.285156 15.582031 3.894531 15.582031 L 2.480469 15.582031 C 2.089844 15.582031 1.769531 15.265625 1.769531 14.875 L 1.769531 10.625 C 1.769531 10.234375 2.089844 9.917969 2.480469 9.917969 Z M 2.480469 9.917969 "/>
</g>
</svg>
