<?xml version="1.0" encoding="UTF-8"?>
<svg xmlns="http://www.w3.org/2000/svg" xmlns:xlink="http://www.w3.org/1999/xlink" width="17pt" height="17pt" viewBox="0 0 17 17" version="1.1">
<defs>
<linearGradient id="linear0" gradientUnits="userSpaceOnUse" x1="8" y1="0" x2="88" y2="0" gradientTransform="matrix(0,-0.177083,0.177083,0,0,17)">
<stop offset="0" style="stop-color:rgb(66.666667%,66.666667%,66.666667%);stop-opacity:1;"/>
<stop offset="1" style="stop-color:rgb(94.117647%,94.117647%,94.117647%);stop-opacity:1;"/>
</linearGradient>
</defs>
<g id="surface1">
<path style=" stroke:none;fill-rule:nonzero;fill:rgb(100%,100%,100%);fill-opacity:0.298039;" d="M 14.167969 8.5 C 14.167969 11.628906 11.628906 14.167969 8.5 14.167969 C 5.371094 14.167969 2.832031 11.628906 2.832031 8.5 C 2.832031 5.371094 5.371094 2.832031 8.5 2.832031 L 8.5 8.5 Z M 14.167969 8.5 "/>
<path style=" stroke:none;fill-rule:nonzero;fill:rgb(0%,0%,0%);fill-opacity:0.0784314;" d="M 8.5 0.707031 C 4.105469 0.707031 0.53125 4.28125 0.53125 8.675781 C 0.53125 13.070312 4.105469 16.644531 8.5 16.644531 C 12.894531 16.644531 16.46875 13.070312 16.46875 8.675781 C 16.46875 4.28125 12.894531 0.707031 8.5 0.707031 Z M 7.570312 3.636719 C 7.386719 3.851562 7.261719 4.121094 7.261719 4.425781 L 7.261719 7.746094 C 7.058594 8 6.902344 8.3125 6.902344 8.683594 C 6.902344 9.558594 7.625 10.269531 8.5 10.269531 C 8.867188 10.269531 9.179688 10.113281 9.429688 9.917969 L 12.042969 9.917969 C 12.722656 9.917969 13.28125 9.355469 13.28125 8.675781 C 13.28125 7.996094 12.722656 7.4375 12.042969 7.4375 L 9.738281 7.4375 L 9.738281 4.425781 C 9.738281 4.121094 9.613281 3.851562 9.429688 3.636719 C 11.824219 4.074219 13.636719 6.152344 13.636719 8.675781 C 13.636719 11.519531 11.34375 13.8125 8.5 13.8125 C 5.65625 13.8125 3.363281 11.519531 3.363281 8.675781 C 3.363281 8.582031 3.367188 8.5 3.371094 8.417969 C 3.492188 6.011719 5.257812 4.058594 7.570312 3.636719 Z M 7.570312 3.636719 "/>
<path style=" stroke:none;fill-rule:nonzero;fill:rgb(0%,0%,0%);fill-opacity:0.101961;" d="M 8.5 0.886719 C 4.199219 0.886719 0.707031 4.378906 0.707031 8.675781 C 0.707031 12.976562 4.199219 16.46875 8.5 16.46875 C 12.800781 16.46875 16.292969 12.976562 16.292969 8.675781 C 16.292969 4.378906 12.800781 0.886719 8.5 0.886719 Z M 8.5 3.363281 C 11.4375 3.363281 13.8125 5.738281 13.8125 8.675781 C 13.8125 11.617188 11.4375 13.988281 8.5 13.988281 C 5.5625 13.988281 3.1875 11.617188 3.1875 8.675781 C 3.1875 8.582031 3.1875 8.492188 3.191406 8.40625 C 3.335938 5.597656 5.652344 3.363281 8.5 3.363281 Z M 8.5 3.363281 C 7.917969 3.363281 7.4375 3.84375 7.4375 4.425781 L 7.4375 7.796875 C 7.230469 8.035156 7.078125 8.332031 7.078125 8.683594 C 7.078125 9.460938 7.722656 10.09375 8.5 10.09375 C 8.847656 10.09375 9.144531 9.941406 9.386719 9.738281 L 12.042969 9.738281 C 12.625 9.738281 13.105469 9.261719 13.105469 8.675781 C 13.105469 8.09375 12.625 7.613281 12.042969 7.613281 L 9.5625 7.613281 L 9.5625 4.425781 C 9.5625 3.84375 9.082031 3.363281 8.5 3.363281 Z M 8.5 3.363281 "/>
<path style=" stroke:none;fill-rule:nonzero;fill:rgb(0%,0%,0%);fill-opacity:0.14902;" d="M 8.5 1.0625 C 4.296875 1.0625 0.886719 4.472656 0.886719 8.675781 C 0.886719 12.878906 4.296875 16.292969 8.5 16.292969 C 12.703125 16.292969 16.113281 12.878906 16.113281 8.675781 C 16.113281 4.472656 12.703125 1.0625 8.5 1.0625 Z M 8.5 3.1875 C 11.535156 3.1875 13.988281 5.644531 13.988281 8.675781 C 13.988281 11.710938 11.535156 14.167969 8.5 14.167969 C 5.464844 14.167969 3.011719 11.710938 3.011719 8.675781 C 3.011719 8.582031 3.011719 8.484375 3.015625 8.394531 C 3.164062 5.492188 5.5625 3.1875 8.5 3.1875 Z M 8.5 3.542969 C 8.011719 3.542969 7.613281 3.941406 7.613281 4.425781 L 7.613281 7.847656 C 7.402344 8.066406 7.253906 8.351562 7.253906 8.683594 C 7.253906 9.363281 7.816406 9.917969 8.5 9.917969 C 8.828125 9.917969 9.121094 9.769531 9.339844 9.5625 L 12.042969 9.5625 C 12.527344 9.5625 12.925781 9.164062 12.925781 8.675781 C 12.925781 8.191406 12.527344 7.792969 12.042969 7.792969 L 9.386719 7.792969 L 9.386719 4.425781 C 9.386719 3.941406 8.988281 3.542969 8.5 3.542969 Z M 8.5 8.5 C 8.601562 8.5 8.675781 8.578125 8.675781 8.675781 C 8.675781 8.777344 8.601562 8.855469 8.5 8.855469 C 8.398438 8.855469 8.324219 8.777344 8.324219 8.675781 C 8.324219 8.578125 8.398438 8.5 8.5 8.5 Z M 8.5 8.5 "/>
<path style=" stroke:none;fill-rule:nonzero;fill:rgb(0%,0%,0%);fill-opacity:0.298039;" d="M 8.5 1.238281 C 4.390625 1.238281 1.0625 4.570312 1.0625 8.675781 C 1.0625 12.785156 4.390625 16.113281 8.5 16.113281 C 12.609375 16.113281 15.9375 12.785156 15.9375 8.675781 C 15.9375 4.570312 12.609375 1.238281 8.5 1.238281 Z M 8.5 3.011719 C 11.628906 3.011719 14.167969 5.546875 14.167969 8.675781 C 14.167969 11.804688 11.628906 14.34375 8.5 14.34375 C 5.371094 14.34375 2.832031 11.804688 2.832031 8.675781 C 2.832031 8.578125 2.832031 8.480469 2.839844 8.382812 C 2.992188 5.390625 5.46875 3.011719 8.5 3.011719 Z M 8.5 3.71875 C 8.109375 3.71875 7.792969 4.035156 7.792969 4.425781 L 7.792969 7.898438 C 7.570312 8.089844 7.433594 8.367188 7.433594 8.683594 C 7.433594 9.265625 7.910156 9.738281 8.5 9.738281 C 8.816406 9.738281 9.097656 9.601562 9.292969 9.386719 L 12.042969 9.386719 C 12.433594 9.386719 12.75 9.070312 12.75 8.675781 C 12.75 8.285156 12.433594 7.96875 12.042969 7.96875 L 9.28125 7.96875 C 9.257812 7.945312 9.234375 7.917969 9.207031 7.898438 L 9.207031 4.425781 C 9.207031 4.035156 8.890625 3.71875 8.5 3.71875 Z M 8.5 8.324219 C 8.695312 8.324219 8.855469 8.480469 8.855469 8.675781 C 8.855469 8.875 8.695312 9.03125 8.5 9.03125 C 8.304688 9.03125 8.144531 8.875 8.144531 8.675781 C 8.144531 8.480469 8.304688 8.324219 8.5 8.324219 Z M 8.5 8.324219 "/>
<path style=" stroke:none;fill-rule:nonzero;fill:url(#linear0);" d="M 8.5 1.0625 C 4.390625 1.0625 1.0625 4.390625 1.0625 8.5 C 1.0625 12.609375 4.390625 15.9375 8.5 15.9375 C 12.609375 15.9375 15.9375 12.609375 15.9375 8.5 C 15.9375 4.390625 12.609375 1.0625 8.5 1.0625 Z M 8.5 2.832031 C 11.628906 2.832031 14.167969 5.371094 14.167969 8.5 C 14.167969 11.628906 11.628906 14.167969 8.5 14.167969 C 5.371094 14.167969 2.832031 11.628906 2.832031 8.5 C 2.832031 8.402344 2.832031 8.304688 2.839844 8.207031 C 2.992188 5.210938 5.46875 2.832031 8.5 2.832031 Z M 8.5 3.542969 C 8.109375 3.542969 7.792969 3.859375 7.792969 4.25 L 7.792969 7.71875 C 7.570312 7.914062 7.433594 8.191406 7.433594 8.503906 C 7.433594 9.089844 7.910156 9.5625 8.5 9.5625 C 8.816406 9.5625 9.097656 9.425781 9.292969 9.207031 L 12.042969 9.207031 C 12.433594 9.207031 12.75 8.890625 12.75 8.5 C 12.75 8.109375 12.433594 7.792969 12.042969 7.792969 L 9.28125 7.792969 C 9.257812 7.765625 9.234375 7.742188 9.207031 7.71875 L 9.207031 4.25 C 9.207031 3.859375 8.890625 3.542969 8.5 3.542969 Z M 8.5 8.144531 C 8.695312 8.144531 8.855469 8.304688 8.855469 8.5 C 8.855469 8.695312 8.695312 8.855469 8.5 8.855469 C 8.304688 8.855469 8.144531 8.695312 8.144531 8.5 C 8.144531 8.304688 8.304688 8.144531 8.5 8.144531 Z M 8.5 8.144531 "/>
<path style=" stroke:none;fill-rule:nonzero;fill:rgb(100%,100%,100%);fill-opacity:0.6;" d="M 8.5 1.0625 C 4.390625 1.0625 1.0625 4.390625 1.0625 8.5 C 1.0625 8.558594 1.066406 8.617188 1.066406 8.675781 C 1.164062 4.652344 4.453125 1.417969 8.5 1.417969 C 12.546875 1.417969 15.835938 4.652344 15.933594 8.675781 C 15.933594 8.617188 15.9375 8.558594 15.9375 8.5 C 15.9375 4.390625 12.609375 1.0625 8.5 1.0625 Z M 8.5 3.542969 C 8.109375 3.542969 7.792969 3.859375 7.792969 4.25 L 7.792969 4.605469 C 7.792969 4.210938 8.109375 3.894531 8.5 3.894531 C 8.890625 3.894531 9.207031 4.210938 9.207031 4.605469 L 9.207031 4.25 C 9.207031 3.859375 8.890625 3.542969 8.5 3.542969 Z M 7.792969 7.71875 C 7.570312 7.914062 7.433594 8.191406 7.433594 8.503906 C 7.433594 8.566406 7.4375 8.628906 7.449219 8.6875 C 7.488281 8.445312 7.613281 8.230469 7.792969 8.074219 Z M 9.207031 7.71875 L 9.207031 8.074219 C 9.234375 8.097656 9.257812 8.121094 9.28125 8.144531 L 12.042969 8.144531 C 12.371094 8.144531 12.644531 8.371094 12.722656 8.675781 C 12.738281 8.621094 12.75 8.5625 12.75 8.5 C 12.75 8.109375 12.433594 7.792969 12.042969 7.792969 L 9.28125 7.792969 C 9.257812 7.765625 9.234375 7.742188 9.207031 7.71875 Z M 2.839844 8.675781 C 2.839844 8.734375 2.832031 8.796875 2.832031 8.855469 C 2.832031 11.984375 5.371094 14.519531 8.5 14.519531 C 11.628906 14.519531 14.167969 11.984375 14.167969 8.855469 C 14.167969 8.796875 14.164062 8.734375 14.160156 8.675781 C 14.066406 11.726562 11.570312 14.167969 8.5 14.167969 C 5.429688 14.167969 2.933594 11.726562 2.839844 8.675781 Z M 8.195312 8.675781 C 8.164062 8.730469 8.144531 8.789062 8.144531 8.855469 C 8.144531 9.050781 8.304688 9.207031 8.5 9.207031 C 8.695312 9.207031 8.855469 9.050781 8.855469 8.855469 C 8.855469 8.789062 8.835938 8.730469 8.804688 8.675781 C 8.742188 8.78125 8.632812 8.855469 8.5 8.855469 C 8.367188 8.855469 8.257812 8.78125 8.195312 8.675781 Z M 8.195312 8.675781 "/>
</g>
</svg>
