<?xml version="1.0" encoding="UTF-8"?>
<svg xmlns="http://www.w3.org/2000/svg" xmlns:xlink="http://www.w3.org/1999/xlink" width="17pt" height="17pt" viewBox="0 0 17 17" version="1.1">
<g id="surface1">
<path style=" stroke:none;fill-rule:nonzero;fill:rgb(80%,80%,80%);fill-opacity:1;" d="M 13.683594 10.308594 L 11.464844 9.414062 L 11.722656 10.128906 C 11.707031 10.882812 10.242188 11.484375 8.5 11.484375 C 6.757812 11.484375 5.292969 10.882812 5.277344 10.128906 L 5.535156 9.414062 L 3.316406 10.308594 C 2.695312 10.558594 2.667969 11.023438 3.257812 11.335938 L 7.429688 13.574219 C 8.015625 13.890625 8.980469 13.890625 9.570312 13.574219 L 13.742188 11.335938 C 14.332031 11.023438 14.304688 10.558594 13.683594 10.308594 Z M 8.5 5.769531 C 9.164062 5.769531 9.777344 5.5625 9.960938 5.242188 C 9.710938 4.542969 9.496094 3.949219 9.363281 3.566406 C 9.273438 3.316406 8.867188 3.1875 8.5 3.1875 C 8.132812 3.1875 7.726562 3.316406 7.636719 3.566406 C 7.503906 3.949219 7.289062 4.542969 7.039062 5.242188 C 7.21875 5.5625 7.835938 5.769531 8.5 5.769531 Z M 8.5 9.726562 C 9.910156 9.726562 11.089844 9.246094 11.164062 8.621094 C 10.953125 8.03125 10.722656 7.390625 10.5 6.757812 C 10.34375 7.207031 9.484375 7.527344 8.5 7.527344 C 7.519531 7.527344 6.65625 7.207031 6.5 6.757812 C 6.273438 7.390625 6.046875 8.03125 5.835938 8.621094 C 5.90625 9.246094 7.089844 9.726562 8.5 9.726562 "/>
</g>
</svg>
