<?xml version="1.0" encoding="UTF-8"?>
<svg xmlns="http://www.w3.org/2000/svg" xmlns:xlink="http://www.w3.org/1999/xlink" width="17pt" height="17pt" viewBox="0 0 17 17" version="1.1">
<g id="surface1">
<path style=" stroke:none;fill-rule:nonzero;fill:rgb(93.333333%,93.333333%,93.333333%);fill-opacity:1;" d="M 8.460938 4.023438 L 5.664062 6.820312 L 3.652344 6.820312 L 3.652344 10.179688 L 5.664062 10.179688 L 8.460938 12.976562 L 8.464844 12.972656 L 8.464844 12.976562 L 9.808594 12.976562 L 9.808594 4.023438 L 8.464844 4.023438 L 8.464844 4.027344 Z M 8.691406 4.582031 L 9.246094 4.582031 L 9.246094 12.417969 L 8.691406 12.417969 L 5.894531 9.621094 L 5.890625 9.625 L 5.890625 7.375 L 5.894531 7.378906 Z M 4.210938 7.378906 L 4.769531 7.378906 L 4.769531 9.621094 L 4.210938 9.621094 Z M 4.210938 7.378906 "/>
<path style=" stroke:none;fill-rule:nonzero;fill:rgb(93.333333%,93.333333%,93.333333%);fill-opacity:1;" d="M 11.507812 5.492188 L 11.007812 5.992188 C 11.648438 6.632812 12.042969 7.519531 12.042969 8.5 C 12.042969 9.480469 11.648438 10.367188 11.007812 11.007812 L 11.507812 11.507812 C 12.277344 10.738281 12.75 9.675781 12.75 8.5 C 12.75 7.324219 12.277344 6.261719 11.507812 5.492188 Z M 11.507812 5.492188 "/>
<path style=" stroke:none;fill-rule:nonzero;fill:rgb(93.333333%,93.333333%,93.333333%);fill-opacity:1;" d="M 12.511719 4.488281 L 12.011719 4.988281 C 12.90625 5.886719 13.457031 7.125 13.457031 8.5 C 13.457031 9.875 12.90625 11.113281 12.011719 12.011719 L 12.511719 12.511719 C 13.535156 11.488281 14.167969 10.070312 14.167969 8.5 C 14.167969 6.929688 13.535156 5.511719 12.511719 4.488281 Z M 12.511719 4.488281 "/>
</g>
</svg>
