<?xml version="1.0" encoding="UTF-8"?>
<svg xmlns="http://www.w3.org/2000/svg" xmlns:xlink="http://www.w3.org/1999/xlink" width="12pt" height="12pt" viewBox="0 0 12 12" version="1.1">
<defs>
<linearGradient id="linear0" gradientUnits="userSpaceOnUse" x1="0" y1="6.132" x2="0" y2="90.24" gradientTransform="matrix(0.127976,0,0,-0.126487,-0.142875,12.25875)">
<stop offset="0" style="stop-color:rgb(0%,0%,0%);stop-opacity:0.0784314;"/>
<stop offset="1" style="stop-color:rgb(0%,0%,0%);stop-opacity:0.0470588;"/>
</linearGradient>
<linearGradient id="linear1" gradientUnits="userSpaceOnUse" x1="0" y1="6.132" x2="0" y2="90.24" gradientTransform="matrix(0.127976,0,0,-0.126487,-0.142875,12.25875)">
<stop offset="0" style="stop-color:rgb(0%,0%,0%);stop-opacity:0.101961;"/>
<stop offset="1" style="stop-color:rgb(0%,0%,0%);stop-opacity:0.0588235;"/>
</linearGradient>
<linearGradient id="linear2" gradientUnits="userSpaceOnUse" x1="0" y1="6.132" x2="0" y2="90.24" gradientTransform="matrix(0.127976,0,0,-0.126487,-0.142875,12.25875)">
<stop offset="0" style="stop-color:rgb(0%,0%,0%);stop-opacity:0.2;"/>
<stop offset="1" style="stop-color:rgb(0%,0%,0%);stop-opacity:0.117647;"/>
</linearGradient>
<linearGradient id="linear3" gradientUnits="userSpaceOnUse" x1="0" y1="6.132" x2="0" y2="90.24" gradientTransform="matrix(0.127976,0,0,-0.126487,-0.142875,12.25875)">
<stop offset="0" style="stop-color:rgb(0%,0%,0%);stop-opacity:0.298039;"/>
<stop offset="1" style="stop-color:rgb(0%,0%,0%);stop-opacity:0.176471;"/>
</linearGradient>
<linearGradient id="linear4" gradientUnits="userSpaceOnUse" x1="0" y1="6.132" x2="0" y2="90.24" gradientTransform="matrix(0.125,0,0,-0.125,0,12.125)">
<stop offset="0" style="stop-color:rgb(0%,0%,0%);stop-opacity:0.45098;"/>
<stop offset="1" style="stop-color:rgb(0%,0%,0%);stop-opacity:0.266667;"/>
</linearGradient>
<linearGradient id="linear5" gradientUnits="userSpaceOnUse" x1="0" y1="90" x2="0" y2="5.988" gradientTransform="matrix(0.125,0,0,0.125,0,0)">
<stop offset="0" style="stop-color:rgb(66.27451%,4.705882%,4.705882%);stop-opacity:1;"/>
<stop offset="1" style="stop-color:rgb(94.117647%,33.333333%,18.823529%);stop-opacity:1;"/>
</linearGradient>
<linearGradient id="linear6" gradientUnits="userSpaceOnUse" x1="0" y1="6" x2="0" y2="63.893" gradientTransform="matrix(0.125,0,0,0.125,0,0)">
<stop offset="0" style="stop-color:rgb(100%,100%,100%);stop-opacity:0.4;"/>
<stop offset="1" style="stop-color:rgb(100%,100%,100%);stop-opacity:0;"/>
</linearGradient>
<radialGradient id="radial0" gradientUnits="userSpaceOnUse" cx="48" cy="90.17" fx="48" fy="90.17" r="42" gradientTransform="matrix(0.144664,0,0,0.124489,-0.943875,0.0246249)">
<stop offset="0" style="stop-color:rgb(100%,100%,100%);stop-opacity:0.2;"/>
<stop offset="1" style="stop-color:rgb(100%,100%,100%);stop-opacity:0;"/>
</radialGradient>
<linearGradient id="linear7" gradientUnits="userSpaceOnUse" x1="0" y1="16.385" x2="0" y2="1.092" gradientTransform="matrix(-0.563224,0,0,0.485536,10.14125,1.7575)">
<stop offset="0" style="stop-color:rgb(86.27451%,86.27451%,86.27451%);stop-opacity:1;"/>
<stop offset="0.307" style="stop-color:rgb(92.156863%,92.156863%,92.156863%);stop-opacity:1;"/>
<stop offset="0.707" style="stop-color:rgb(100%,100%,100%);stop-opacity:1;"/>
<stop offset="0.845" style="stop-color:rgb(98.039216%,98.039216%,98.039216%);stop-opacity:1;"/>
<stop offset="1" style="stop-color:rgb(94.117647%,94.117647%,94.117647%);stop-opacity:1;"/>
</linearGradient>
</defs>
<g id="surface1">
<path style=" stroke:none;fill-rule:nonzero;fill:url(#linear0);" d="M 1.5 11.878906 C 0.8125 11.878906 0.246094 11.3125 0.246094 10.625 L 0.246094 1.75 C 0.246094 1.0625 0.8125 0.496094 1.5 0.496094 L 10.5 0.496094 C 11.1875 0.496094 11.753906 1.0625 11.753906 1.75 L 11.753906 10.625 C 11.753906 11.3125 11.1875 11.878906 10.5 11.878906 Z M 1.5 11.878906 "/>
<path style=" stroke:none;fill-rule:nonzero;fill:url(#linear1);" d="M 1.5 11.753906 C 0.878906 11.753906 0.371094 11.246094 0.371094 10.625 L 0.371094 1.75 C 0.371094 1.128906 0.878906 0.621094 1.5 0.621094 L 10.5 0.621094 C 11.121094 0.621094 11.628906 1.128906 11.628906 1.75 L 11.628906 10.625 C 11.628906 11.246094 11.121094 11.753906 10.5 11.753906 Z M 1.5 11.753906 "/>
<path style=" stroke:none;fill-rule:nonzero;fill:url(#linear2);" d="M 1.5 11.625 C 0.949219 11.625 0.5 11.175781 0.5 10.625 L 0.5 1.75 C 0.5 1.199219 0.949219 0.75 1.5 0.75 L 10.5 0.75 C 11.050781 0.75 11.5 1.199219 11.5 1.75 L 11.5 10.625 C 11.5 11.175781 11.050781 11.625 10.5 11.625 Z M 1.5 11.625 "/>
<path style=" stroke:none;fill-rule:nonzero;fill:url(#linear3);" d="M 1.5 11.5 L 10.5 11.5 C 10.984375 11.5 11.375 11.109375 11.375 10.625 L 11.375 1.75 C 11.375 1.265625 10.984375 0.875 10.5 0.875 L 1.5 0.875 C 1.015625 0.875 0.625 1.265625 0.625 1.75 L 0.625 10.625 C 0.625 11.109375 1.015625 11.5 1.5 11.5 Z M 1.5 11.5 "/>
<path style=" stroke:none;fill-rule:nonzero;fill:url(#linear4);" d="M 1.5 11.375 L 10.5 11.375 C 10.914062 11.375 11.25 11.039062 11.25 10.625 L 11.25 1.625 C 11.25 1.210938 10.914062 0.875 10.5 0.875 L 1.5 0.875 C 1.085938 0.875 0.75 1.210938 0.75 1.625 L 0.75 10.625 C 0.75 11.039062 1.085938 11.375 1.5 11.375 Z M 1.5 11.375 "/>
<path style=" stroke:none;fill-rule:nonzero;fill:url(#linear5);" d="M 1.5 0.75 L 10.5 0.75 C 10.914062 0.75 11.25 1.085938 11.25 1.5 L 11.25 10.5 C 11.25 10.914062 10.914062 11.25 10.5 11.25 L 1.5 11.25 C 1.085938 11.25 0.75 10.914062 0.75 10.5 L 0.75 1.5 C 0.75 1.085938 1.085938 0.75 1.5 0.75 Z M 1.5 0.75 "/>
<path style=" stroke:none;fill-rule:nonzero;fill:url(#linear6);" d="M 1.5 0.75 C 1.085938 0.75 0.75 1.085938 0.75 1.5 L 0.75 10.5 C 0.75 10.542969 0.753906 10.582031 0.761719 10.621094 C 0.769531 10.65625 0.773438 10.695312 0.785156 10.730469 C 0.785156 10.734375 0.789062 10.738281 0.789062 10.742188 C 0.800781 10.777344 0.820312 10.8125 0.835938 10.84375 C 0.855469 10.878906 0.875 10.910156 0.898438 10.941406 C 0.921875 10.972656 0.945312 11 0.972656 11.027344 C 1.027344 11.082031 1.089844 11.128906 1.160156 11.164062 C 1.195312 11.179688 1.230469 11.195312 1.269531 11.207031 C 1.238281 11.195312 1.207031 11.175781 1.179688 11.160156 C 1.179688 11.160156 1.175781 11.160156 1.175781 11.160156 C 1.171875 11.15625 1.167969 11.15625 1.164062 11.152344 C 1.148438 11.144531 1.136719 11.132812 1.121094 11.121094 C 1.109375 11.109375 1.09375 11.101562 1.082031 11.089844 C 1.058594 11.070312 1.039062 11.046875 1.019531 11.023438 C 1.007812 11.007812 0.992188 10.992188 0.980469 10.972656 C 0.976562 10.96875 0.976562 10.960938 0.972656 10.957031 C 0.964844 10.945312 0.957031 10.933594 0.949219 10.917969 C 0.9375 10.894531 0.921875 10.867188 0.914062 10.839844 C 0.914062 10.835938 0.910156 10.835938 0.910156 10.832031 C 0.90625 10.820312 0.90625 10.808594 0.902344 10.796875 C 0.898438 10.785156 0.894531 10.769531 0.890625 10.757812 C 0.882812 10.714844 0.875 10.671875 0.875 10.625 L 0.875 1.625 C 0.875 1.277344 1.152344 1 1.5 1 L 10.5 1 C 10.847656 1 11.125 1.277344 11.125 1.625 L 11.125 10.625 C 11.125 10.671875 11.117188 10.714844 11.109375 10.757812 C 11.105469 10.785156 11.097656 10.808594 11.089844 10.832031 C 11.089844 10.835938 11.085938 10.835938 11.085938 10.839844 C 11.078125 10.863281 11.070312 10.886719 11.058594 10.90625 C 11.054688 10.917969 11.050781 10.925781 11.042969 10.9375 C 11.035156 10.949219 11.027344 10.960938 11.019531 10.972656 C 11.007812 10.992188 10.992188 11.007812 10.980469 11.023438 C 10.960938 11.046875 10.941406 11.066406 10.921875 11.085938 C 10.921875 11.085938 10.917969 11.089844 10.917969 11.089844 C 10.902344 11.105469 10.882812 11.121094 10.863281 11.132812 C 10.851562 11.140625 10.839844 11.152344 10.824219 11.160156 C 10.824219 11.160156 10.820312 11.160156 10.820312 11.160156 C 10.792969 11.175781 10.761719 11.195312 10.730469 11.207031 C 10.769531 11.195312 10.804688 11.179688 10.839844 11.164062 C 10.910156 11.128906 10.972656 11.082031 11.027344 11.027344 C 11.054688 11 11.078125 10.972656 11.101562 10.941406 C 11.125 10.910156 11.144531 10.878906 11.164062 10.84375 C 11.179688 10.8125 11.199219 10.777344 11.210938 10.742188 C 11.210938 10.738281 11.214844 10.734375 11.214844 10.730469 C 11.226562 10.695312 11.230469 10.65625 11.238281 10.621094 C 11.246094 10.582031 11.25 10.542969 11.25 10.5 L 11.25 1.5 C 11.25 1.085938 10.914062 0.75 10.5 0.75 Z M 1.5 0.75 "/>
<path style=" stroke:none;fill-rule:nonzero;fill:url(#radial0);" d="M 1.5 11.25 C 1.085938 11.25 0.75 10.914062 0.75 10.5 L 0.75 1.5 C 0.75 1.457031 0.753906 1.417969 0.761719 1.378906 C 0.769531 1.34375 0.773438 1.304688 0.785156 1.269531 C 0.785156 1.265625 0.789062 1.261719 0.789062 1.257812 C 0.800781 1.222656 0.820312 1.1875 0.835938 1.15625 C 0.855469 1.121094 0.875 1.089844 0.898438 1.058594 C 0.921875 1.027344 0.945312 1 0.972656 0.972656 C 1.027344 0.917969 1.089844 0.871094 1.160156 0.835938 C 1.195312 0.820312 1.230469 0.804688 1.269531 0.792969 C 1.238281 0.804688 1.207031 0.824219 1.179688 0.839844 C 1.179688 0.839844 1.175781 0.839844 1.175781 0.839844 C 1.171875 0.84375 1.167969 0.84375 1.164062 0.847656 C 1.148438 0.855469 1.136719 0.867188 1.121094 0.878906 C 1.109375 0.890625 1.09375 0.898438 1.082031 0.910156 C 1.058594 0.929688 1.039062 0.953125 1.019531 0.976562 C 1.007812 0.992188 0.992188 1.007812 0.980469 1.027344 C 0.976562 1.03125 0.976562 1.039062 0.972656 1.042969 C 0.964844 1.054688 0.957031 1.066406 0.949219 1.082031 C 0.9375 1.105469 0.921875 1.132812 0.914062 1.160156 C 0.914062 1.164062 0.910156 1.164062 0.910156 1.167969 C 0.90625 1.179688 0.90625 1.191406 0.902344 1.203125 C 0.898438 1.214844 0.894531 1.230469 0.890625 1.242188 C 0.882812 1.285156 0.875 1.328125 0.875 1.375 L 0.875 10.375 C 0.875 10.722656 1.152344 11 1.5 11 L 10.5 11 C 10.847656 11 11.125 10.722656 11.125 10.375 L 11.125 1.375 C 11.125 1.328125 11.117188 1.285156 11.109375 1.242188 C 11.105469 1.214844 11.097656 1.191406 11.089844 1.167969 C 11.089844 1.164062 11.085938 1.164062 11.085938 1.160156 C 11.078125 1.136719 11.070312 1.113281 11.058594 1.09375 C 11.054688 1.082031 11.050781 1.074219 11.042969 1.0625 C 11.035156 1.050781 11.027344 1.039062 11.019531 1.027344 C 11.007812 1.007812 10.992188 0.992188 10.980469 0.976562 C 10.960938 0.953125 10.941406 0.933594 10.921875 0.914062 C 10.921875 0.914062 10.917969 0.910156 10.917969 0.910156 C 10.902344 0.894531 10.882812 0.878906 10.863281 0.867188 C 10.851562 0.859375 10.839844 0.847656 10.824219 0.839844 C 10.824219 0.839844 10.820312 0.839844 10.820312 0.839844 C 10.792969 0.824219 10.761719 0.804688 10.730469 0.792969 C 10.769531 0.804688 10.804688 0.820312 10.839844 0.835938 C 10.910156 0.871094 10.972656 0.917969 11.027344 0.972656 C 11.054688 1 11.078125 1.027344 11.101562 1.058594 C 11.125 1.089844 11.144531 1.121094 11.164062 1.15625 C 11.179688 1.1875 11.199219 1.222656 11.210938 1.257812 C 11.210938 1.261719 11.214844 1.265625 11.214844 1.269531 C 11.226562 1.304688 11.230469 1.34375 11.238281 1.378906 C 11.246094 1.417969 11.25 1.457031 11.25 1.5 L 11.25 10.5 C 11.25 10.914062 10.914062 11.25 10.5 11.25 Z M 1.5 11.25 "/>
<path style=" stroke:none;fill-rule:nonzero;fill:rgb(33.333333%,0%,0%);fill-opacity:0.0784314;" d="M 5.308594 2.164062 C 5.054688 2.210938 5.078125 2.523438 5 2.714844 C 4.859375 3.207031 4.722656 3.695312 4.582031 4.1875 C 3.8125 4.066406 3.039062 3.917969 2.269531 3.8125 C 2.035156 3.816406 1.957031 4.152344 2.148438 4.277344 C 2.59375 4.722656 3.042969 5.167969 3.492188 5.617188 C 2.90625 5.859375 2.308594 6.082031 1.726562 6.335938 C 1.515625 6.464844 1.648438 6.8125 1.886719 6.796875 C 2.453125 6.890625 3.015625 6.984375 3.582031 7.078125 C 3.074219 7.691406 2.546875 8.292969 2.054688 8.917969 C 1.960938 9.128906 2.210938 9.34375 2.410156 9.242188 C 3.128906 9.035156 3.847656 8.832031 4.566406 8.628906 C 4.699219 9.074219 4.8125 9.53125 4.960938 9.96875 C 5.066406 10.144531 5.324219 10.105469 5.421875 9.945312 C 5.765625 9.601562 6.109375 9.257812 6.453125 8.914062 C 7.101562 9.296875 7.75 9.703125 8.398438 10.074219 C 8.609375 10.152344 8.800781 9.902344 8.703125 9.710938 C 8.566406 9.058594 8.425781 8.410156 8.289062 7.757812 C 8.925781 7.703125 9.566406 7.667969 10.199219 7.601562 C 10.425781 7.535156 10.421875 7.203125 10.210938 7.117188 C 9.734375 6.777344 9.253906 6.433594 8.777344 6.09375 C 9.113281 5.882812 9.480469 5.6875 9.796875 5.46875 C 9.960938 5.300781 9.792969 5.015625 9.570312 5.042969 C 9.273438 5.007812 8.980469 4.976562 8.683594 4.941406 C 9.105469 4.261719 9.539062 3.589844 9.949219 2.90625 C 10.03125 2.683594 9.75 2.480469 9.5625 2.617188 C 8.609375 3.054688 7.65625 3.488281 6.703125 3.925781 C 6.304688 3.363281 5.921875 2.785156 5.515625 2.230469 C 5.464844 2.175781 5.382812 2.15625 5.308594 2.164062 Z M 5.75 5.125 C 5.917969 5.125 6.082031 5.125 6.25 5.125 C 6.25 5.542969 6.25 5.957031 6.25 6.375 C 6.082031 6.375 5.917969 6.375 5.75 6.375 C 5.75 5.957031 5.75 5.542969 5.75 5.125 Z M 5.75 7.125 C 5.917969 7.125 6.082031 7.125 6.25 7.125 C 6.25 7.292969 6.25 7.457031 6.25 7.625 C 6.082031 7.625 5.917969 7.625 5.75 7.625 C 5.75 7.457031 5.75 7.292969 5.75 7.125 Z M 5.75 7.125 "/>
<path style=" stroke:none;fill-rule:nonzero;fill:rgb(33.333333%,0%,0%);fill-opacity:0.14902;" d="M 5.328125 2.292969 C 5.277344 2.300781 5.238281 2.335938 5.226562 2.382812 L 4.675781 4.335938 L 2.308594 3.941406 C 2.257812 3.933594 2.203125 3.960938 2.179688 4.007812 C 2.15625 4.054688 2.164062 4.113281 2.203125 4.148438 L 3.71875 5.664062 L 1.828125 6.425781 C 1.777344 6.445312 1.746094 6.5 1.75 6.554688 C 1.757812 6.609375 1.800781 6.652344 1.855469 6.660156 L 3.824219 6.984375 L 2.195312 8.933594 C 2.160156 8.976562 2.15625 9.035156 2.1875 9.078125 C 2.214844 9.125 2.273438 9.144531 2.324219 9.128906 L 4.65625 8.46875 L 5.058594 9.871094 C 5.070312 9.914062 5.105469 9.945312 5.144531 9.953125 C 5.1875 9.964844 5.230469 9.953125 5.261719 9.921875 L 6.433594 8.753906 L 8.414062 9.941406 C 8.457031 9.964844 8.507812 9.960938 8.546875 9.933594 C 8.585938 9.90625 8.605469 9.855469 8.59375 9.808594 L 8.132812 7.640625 L 10.132812 7.484375 C 10.183594 7.480469 10.226562 7.445312 10.238281 7.394531 C 10.253906 7.347656 10.234375 7.296875 10.195312 7.265625 L 8.542969 6.085938 L 9.671875 5.40625 C 9.71875 5.378906 9.742188 5.328125 9.730469 5.277344 C 9.71875 5.226562 9.675781 5.1875 9.625 5.179688 L 8.464844 5.046875 L 9.8125 2.890625 C 9.839844 2.84375 9.835938 2.789062 9.800781 2.746094 C 9.765625 2.707031 9.710938 2.695312 9.660156 2.714844 L 6.660156 4.089844 L 5.445312 2.34375 C 5.417969 2.304688 5.375 2.285156 5.328125 2.292969 Z M 5.625 4.996094 L 6.375 4.996094 C 6.378906 4.996094 6.378906 4.996094 6.378906 5 L 6.378906 6.5 C 6.378906 6.503906 6.378906 6.503906 6.375 6.503906 L 5.625 6.503906 C 5.621094 6.503906 5.621094 6.503906 5.621094 6.5 L 5.621094 5 C 5.621094 4.996094 5.621094 4.996094 5.625 4.996094 Z M 5.625 6.996094 L 6.375 6.996094 C 6.378906 6.996094 6.378906 6.996094 6.378906 7 L 6.378906 7.75 C 6.378906 7.753906 6.378906 7.753906 6.375 7.753906 L 5.625 7.753906 C 5.621094 7.753906 5.621094 7.753906 5.621094 7.75 L 5.621094 7 C 5.621094 6.996094 5.621094 6.996094 5.625 6.996094 Z M 5.625 6.996094 "/>
<path style=" stroke:none;fill-rule:nonzero;fill:rgb(33.333333%,0%,0%);fill-opacity:0.298039;" d="M 5.34375 2.414062 L 4.761719 4.476562 L 2.289062 4.0625 L 3.9375 5.710938 L 1.875 6.539062 L 4.054688 6.898438 L 2.289062 9.011719 L 4.738281 8.316406 L 5.175781 9.835938 L 6.414062 8.601562 L 8.476562 9.835938 L 7.984375 7.53125 L 10.125 7.363281 L 8.320312 6.074219 L 9.609375 5.300781 L 8.257812 5.144531 L 9.710938 2.824219 L 6.617188 4.242188 Z M 5.625 4.875 L 6.375 4.875 C 6.445312 4.875 6.5 4.929688 6.5 5 L 6.5 6.5 C 6.5 6.570312 6.445312 6.625 6.375 6.625 L 5.625 6.625 C 5.554688 6.625 5.5 6.570312 5.5 6.5 L 5.5 5 C 5.5 4.929688 5.554688 4.875 5.625 4.875 Z M 5.625 6.875 L 6.375 6.875 C 6.445312 6.875 6.5 6.929688 6.5 7 L 6.5 7.75 C 6.5 7.820312 6.445312 7.875 6.375 7.875 L 5.625 7.875 C 5.554688 7.875 5.5 7.820312 5.5 7.75 L 5.5 7 C 5.5 6.929688 5.554688 6.875 5.625 6.875 Z M 5.625 6.875 "/>
<path style=" stroke:none;fill-rule:nonzero;fill:url(#linear7);" d="M 5.34375 2.289062 L 4.761719 4.351562 L 2.289062 3.9375 L 3.9375 5.585938 L 1.875 6.414062 L 4.054688 6.773438 L 2.289062 8.886719 L 4.738281 8.191406 L 5.175781 9.710938 L 6.414062 8.476562 L 8.476562 9.710938 L 7.984375 7.40625 L 10.125 7.238281 L 8.320312 5.949219 L 9.609375 5.175781 L 8.257812 5.019531 L 9.710938 2.699219 L 6.617188 4.117188 Z M 5.625 4.75 L 6.375 4.75 C 6.445312 4.75 6.5 4.804688 6.5 4.875 L 6.5 6.375 C 6.5 6.445312 6.445312 6.5 6.375 6.5 L 5.625 6.5 C 5.554688 6.5 5.5 6.445312 5.5 6.375 L 5.5 4.875 C 5.5 4.804688 5.554688 4.75 5.625 4.75 Z M 5.625 6.75 L 6.375 6.75 C 6.445312 6.75 6.5 6.804688 6.5 6.875 L 6.5 7.625 C 6.5 7.695312 6.445312 7.75 6.375 7.75 L 5.625 7.75 C 5.554688 7.75 5.5 7.695312 5.5 7.625 L 5.5 6.875 C 5.5 6.804688 5.554688 6.75 5.625 6.75 Z M 5.625 6.75 "/>
<path style=" stroke:none;fill-rule:nonzero;fill:rgb(100%,100%,100%);fill-opacity:0.4;" d="M 5.34375 2.289062 L 4.761719 4.351562 L 2.289062 3.9375 L 2.589844 4.238281 L 4.761719 4.601562 L 5.34375 2.539062 L 6.617188 4.367188 L 9.492188 3.050781 L 9.710938 2.699219 L 6.617188 4.117188 Z M 8.402344 5.035156 L 8.257812 5.269531 L 9.261719 5.386719 L 9.609375 5.175781 Z M 3.757812 5.65625 L 1.875 6.414062 L 2.316406 6.488281 L 3.9375 5.835938 Z M 8.511719 6.085938 L 8.320312 6.199219 L 9.808594 7.261719 L 10.125 7.238281 Z M 5.5 6.375 L 5.5 6.625 C 5.5 6.695312 5.554688 6.75 5.625 6.75 L 6.375 6.75 C 6.445312 6.75 6.5 6.695312 6.5 6.625 L 6.5 6.375 C 6.5 6.445312 6.445312 6.5 6.375 6.5 L 5.625 6.5 C 5.554688 6.5 5.5 6.445312 5.5 6.375 Z M 3.871094 6.992188 L 2.289062 8.886719 L 2.5625 8.808594 L 4.054688 7.023438 Z M 5.5 7.625 L 5.5 7.875 C 5.5 7.945312 5.554688 8 5.625 8 L 6.375 8 C 6.445312 8 6.5 7.945312 6.5 7.875 L 6.5 7.625 C 6.5 7.695312 6.445312 7.75 6.375 7.75 L 5.625 7.75 C 5.554688 7.75 5.5 7.695312 5.5 7.625 Z M 8.035156 7.652344 L 7.984375 7.65625 L 8.414062 9.675781 L 8.476562 9.710938 Z M 8.035156 7.652344 "/>
<path style=" stroke:none;fill-rule:nonzero;fill:rgb(100%,100%,100%);fill-opacity:0.8;" d="M 5.34375 2.289062 L 4.761719 4.351562 L 2.289062 3.9375 L 2.4375 4.085938 L 4.761719 4.476562 L 5.34375 2.414062 L 6.617188 4.242188 L 9.601562 2.875 L 9.710938 2.699219 L 6.617188 4.117188 Z M 8.332031 5.027344 L 8.257812 5.144531 L 9.433594 5.28125 L 9.609375 5.175781 Z M 3.847656 5.621094 L 1.875 6.414062 L 2.09375 6.449219 L 3.9375 5.710938 Z M 8.414062 6.015625 L 8.320312 6.074219 L 9.96875 7.25 L 10.125 7.238281 Z M 5.5 6.375 L 5.5 6.5 C 5.5 6.570312 5.554688 6.625 5.625 6.625 L 6.375 6.625 C 6.445312 6.625 6.5 6.570312 6.5 6.5 L 6.5 6.375 C 6.5 6.445312 6.445312 6.5 6.375 6.5 L 5.625 6.5 C 5.554688 6.5 5.5 6.445312 5.5 6.375 Z M 3.964844 6.882812 L 2.289062 8.886719 L 2.425781 8.847656 L 4.054688 6.898438 Z M 8.011719 7.527344 L 7.984375 7.53125 L 8.445312 9.691406 L 8.476562 9.710938 Z M 5.5 7.625 L 5.5 7.75 C 5.5 7.820312 5.554688 7.875 5.625 7.875 L 6.375 7.875 C 6.445312 7.875 6.5 7.820312 6.5 7.75 L 6.5 7.625 C 6.5 7.695312 6.445312 7.75 6.375 7.75 L 5.625 7.75 C 5.554688 7.75 5.5 7.695312 5.5 7.625 Z M 5.5 7.625 "/>
</g>
</svg>
