<?xml version="1.0" encoding="UTF-8"?>
<svg xmlns="http://www.w3.org/2000/svg" xmlns:xlink="http://www.w3.org/1999/xlink" width="12pt" height="12pt" viewBox="0 0 12 12" version="1.1">
<g id="surface1">
<path style="fill-rule:nonzero;fill:rgb(100%,66.666667%,66.666667%);fill-opacity:1;stroke-width:1;stroke-linecap:butt;stroke-linejoin:miter;stroke:rgb(100%,66.666667%,66.666667%);stroke-opacity:1;stroke-miterlimit:4;" d="M 14.84375 1046.08095 C 12.890625 1046.073138 10.9375 1046.057513 8.984375 1046.0497 C 9.65625 1047.33095 10.773438 1047.979388 11.898438 1047.995013 C 13.015625 1047.979388 14.148438 1047.354388 14.84375 1046.08095 Z M 14.84375 1046.08095 " transform="matrix(0.5,0,0,0.5,0,-514.1811)"/>
<path style="fill:none;stroke-width:1.3;stroke-linecap:butt;stroke-linejoin:miter;stroke:rgb(100%,66.666667%,66.666667%);stroke-opacity:1;stroke-miterlimit:4;" d="M 15.390625 1036.135638 C 14.859375 1035.5497 14.140625 1035.120013 13.257812 1034.854388 C 13.070312 1034.7997 13 1034.713763 13.015625 1034.51845 C 13.023438 1034.346575 13.023438 1034.159075 12.976562 1033.995013 C 12.867188 1033.6122 12.523438 1033.385638 12.140625 1033.377825 C 11.75 1033.39345 11.40625 1033.6122 11.289062 1033.9872 C 11.234375 1034.151263 11.226562 1034.338763 11.242188 1034.510638 C 11.25 1034.70595 11.171875 1034.784075 10.984375 1034.838763 C 9.203125 1035.3622 8.085938 1036.526263 7.742188 1038.354388 C 7.609375 1039.065325 7.664062 1039.815325 7.625 1040.5497 C 7.601562 1040.995013 7.578125 1041.448138 7.546875 1041.901263 C 7.5 1042.70595 7.125 1043.3622 6.460938 1043.791888 C 5.914062 1044.14345 5.796875 1045.1122 5.796875 1045.190325 L 5.789062 1046.088763 C 9.929688 1046.1122 14.070312 1046.127825 18.210938 1046.151263 L 18.21875 1045.245013 C 18.21875 1045.166888 18.125 1044.20595 17.585938 1043.846575 C 16.929688 1043.409075 16.570312 1042.752825 16.539062 1041.940325 C 16.523438 1041.4872 16.507812 1041.041888 16.492188 1040.588763 C 16.46875 1039.854388 16.539062 1039.1122 16.421875 1038.39345 C 16.273438 1037.479388 15.921875 1036.729388 15.390625 1036.135638 Z M 15.390625 1036.135638 " transform="matrix(0.5,0,0,0.5,0,-514.1811)"/>
<path style="fill:none;stroke-width:1.4;stroke-linecap:round;stroke-linejoin:miter;stroke:rgb(100%,66.666667%,66.666667%);stroke-opacity:1;stroke-miterlimit:4;" d="M 4.367188 1046.995013 L 18.1875 1035.135638 " transform="matrix(0.5,0,0,0.5,0,-514.1811)"/>
</g>
</svg>
