<?xml version="1.0" encoding="UTF-8"?>
<svg xmlns="http://www.w3.org/2000/svg" xmlns:xlink="http://www.w3.org/1999/xlink" width="12pt" height="12pt" viewBox="0 0 12 12" version="1.1">
<g id="surface1">
<path style=" stroke:none;fill-rule:nonzero;fill:rgb(97.647059%,17.647059%,21.176471%);fill-opacity:1;" d="M 8 5.5 L 10 5.5 L 10 6.5 L 8 6.5 Z M 8 5.5 "/>
<path style=" stroke:none;fill-rule:nonzero;fill:rgb(97.647059%,17.647059%,21.176471%);fill-opacity:1;" d="M 5.972656 2.839844 L 3.996094 4.816406 L 2.578125 4.816406 L 2.578125 7.183594 L 3.996094 7.183594 L 5.972656 9.160156 L 5.972656 9.15625 L 5.972656 9.160156 L 6.921875 9.160156 L 6.921875 2.839844 L 5.972656 2.839844 L 5.972656 2.84375 Z M 6.136719 3.234375 L 6.527344 3.234375 L 6.527344 8.765625 L 6.136719 8.765625 L 4.160156 6.789062 L 4.15625 6.792969 L 4.15625 5.207031 L 4.160156 5.210938 Z M 2.972656 5.210938 L 3.367188 5.210938 L 3.367188 6.789062 L 2.972656 6.789062 Z M 2.972656 5.210938 "/>
</g>
</svg>
