<?xml version="1.0" encoding="UTF-8"?>
<svg xmlns="http://www.w3.org/2000/svg" xmlns:xlink="http://www.w3.org/1999/xlink" width="12pt" height="12pt" viewBox="0 0 12 12" version="1.1">
<g id="surface1">
<path style=" stroke:none;fill-rule:nonzero;fill:rgb(80%,80%,80%);fill-opacity:0.501961;" d="M 9.75 6 C 9.75 4.386719 9.148438 3.007812 8.277344 2.375 L 7.699219 2.894531 C 8.449219 3.425781 8.96875 4.621094 8.96875 6 C 8.96875 7.378906 8.449219 8.574219 7.699219 9.105469 L 8.277344 9.625 C 9.148438 8.992188 9.75 7.613281 9.75 6 Z M 9.75 6 "/>
<path style=" stroke:none;fill-rule:nonzero;fill:rgb(80%,80%,80%);fill-opacity:0.501961;" d="M 8.21875 6 C 8.21875 4.910156 7.804688 3.957031 7.179688 3.355469 L 6.644531 3.832031 C 7.128906 4.347656 7.4375 5.125 7.4375 6 C 7.4375 6.875 7.128906 7.652344 6.644531 8.167969 L 7.179688 8.644531 C 7.804688 8.042969 8.21875 7.089844 8.21875 6 Z M 8.21875 6 "/>
<path style=" stroke:none;fill-rule:nonzero;fill:rgb(80%,80%,80%);fill-opacity:1;" d="M 6.746094 6 C 6.746094 5.335938 6.527344 4.730469 6.167969 4.253906 L 5.621094 4.742188 C 5.835938 5.105469 5.964844 5.539062 5.964844 6 C 5.964844 6.460938 5.835938 6.894531 5.621094 7.257812 L 6.167969 7.746094 C 6.527344 7.269531 6.746094 6.664062 6.746094 6 Z M 6.746094 6 "/>
<path style=" stroke:none;fill-rule:nonzero;fill:rgb(80%,80%,80%);fill-opacity:1;" d="M 2.25 5 L 2.25 7 L 3.074219 7 L 4.75 8.683594 L 4.75 3.316406 L 3.074219 5 Z M 2.25 5 "/>
</g>
</svg>
