<?xml version="1.0" encoding="UTF-8"?>
<svg xmlns="http://www.w3.org/2000/svg" xmlns:xlink="http://www.w3.org/1999/xlink" width="12pt" height="12pt" viewBox="0 0 12 12" version="1.1">
<g id="surface1">
<path style=" stroke:none;fill-rule:evenodd;fill:rgb(80%,80%,80%);fill-opacity:1;" d="M 4.207031 3.019531 C 4.042969 3.019531 3.902344 3.085938 3.804688 3.203125 L 2.605469 4.621094 L 1.535156 4.621094 C 1.242188 4.621094 1 4.859375 1 5.15625 C 0.996094 5.6875 1.003906 6.230469 1 6.757812 C 1 7.054688 1.242188 7.292969 1.535156 7.292969 L 2.605469 7.292969 L 3.753906 8.609375 C 3.847656 8.773438 4.007812 8.894531 4.207031 8.894531 C 4.5 8.894531 4.742188 8.65625 4.742188 8.359375 L 4.742188 3.554688 C 4.742188 3.257812 4.5 3.019531 4.207031 3.019531 Z M 4.207031 3.019531 "/>
<path style=" stroke:none;fill-rule:nonzero;fill:rgb(80%,80%,80%);fill-opacity:0.298039;" d="M 9.359375 1.992188 L 8.699219 2.367188 C 9.96875 3.769531 10.507812 5.574219 9.988281 7.320312 C 9.730469 8.183594 9.238281 8.957031 8.585938 9.617188 L 9.242188 10.007812 C 9.960938 9.28125 10.496094 8.429688 10.78125 7.480469 C 11.359375 5.546875 10.765625 3.546875 9.359375 1.992188 Z M 9.359375 1.992188 "/>
<path style=" stroke:none;fill-rule:nonzero;fill:rgb(80%,80%,80%);fill-opacity:1;" d="M 8.039062 2.742188 L 7.382812 3.117188 C 8.363281 4.207031 8.785156 5.609375 8.394531 6.964844 C 8.191406 7.667969 7.796875 8.292969 7.261719 8.828125 L 7.921875 9.21875 C 8.515625 8.617188 8.960938 7.910156 9.191406 7.117188 C 9.636719 5.574219 9.15625 3.984375 8.039062 2.742188 Z M 8.039062 2.742188 "/>
<path style=" stroke:none;fill-rule:nonzero;fill:rgb(80%,80%,80%);fill-opacity:1;" d="M 6.722656 3.492188 L 6.066406 3.863281 C 6.761719 4.644531 7.0625 5.640625 6.800781 6.609375 C 6.65625 7.152344 6.351562 7.628906 5.941406 8.039062 L 6.597656 8.429688 C 7.074219 7.953125 7.429688 7.390625 7.601562 6.757812 C 7.914062 5.601562 7.550781 4.417969 6.722656 3.492188 Z M 6.722656 3.492188 "/>
<path style=" stroke:none;fill-rule:nonzero;fill:rgb(80%,80%,80%);fill-opacity:1;" d="M 5.40625 4.238281 L 4.746094 4.613281 C 5.15625 5.082031 5.347656 5.679688 5.210938 6.261719 C 5.121094 6.640625 4.914062 6.972656 4.625 7.253906 L 5.28125 7.644531 C 5.636719 7.289062 5.898438 6.867188 6.011719 6.390625 C 6.191406 5.628906 5.949219 4.851562 5.40625 4.238281 Z M 5.40625 4.238281 "/>
</g>
</svg>
