<?xml version="1.0" encoding="UTF-8"?>
<svg xmlns="http://www.w3.org/2000/svg" xmlns:xlink="http://www.w3.org/1999/xlink" width="12pt" height="12pt" viewBox="0 0 12 12" version="1.1">
<g id="surface1">
<path style=" stroke:none;fill-rule:nonzero;fill:rgb(80%,80%,80%);fill-opacity:1;" d="M 5.9375 1.65625 C 4.667969 1.65625 3.652344 2.613281 3.652344 3.796875 C 3.652344 3.921875 3.664062 4.105469 3.675781 4.257812 C 3.457031 4.351562 3.441406 4.773438 3.625 5.207031 C 3.699219 5.378906 3.792969 5.511719 3.894531 5.621094 C 3.917969 5.742188 3.914062 5.796875 3.941406 5.9375 C 4.027344 6.191406 4.363281 6.691406 4.671875 7.105469 C 4.703125 7.421875 4.734375 7.742188 4.671875 8.101562 C 3.78125 8.839844 1.480469 9.160156 1.484375 9.925781 L 1.4375 10.21875 L 10.4375 10.21875 L 10.390625 9.925781 C 10.386719 9.269531 8.082031 8.867188 7.203125 8.101562 C 7.167969 7.808594 7.160156 7.515625 7.175781 7.226562 C 7.460938 6.792969 7.835938 6.222656 7.933594 5.9375 C 7.964844 5.792969 7.976562 5.695312 8.003906 5.570312 C 8.089844 5.46875 8.160156 5.355469 8.222656 5.207031 C 8.398438 4.796875 8.386719 4.402344 8.199219 4.28125 C 8.210938 4.117188 8.21875 3.941406 8.222656 3.796875 C 8.222656 2.613281 7.207031 1.65625 5.9375 1.65625 Z M 5.9375 1.65625 "/>
</g>
</svg>
