<?xml version="1.0" encoding="UTF-8"?>
<svg xmlns="http://www.w3.org/2000/svg" xmlns:xlink="http://www.w3.org/1999/xlink" width="12pt" height="12pt" viewBox="0 0 12 12" version="1.1">
<g id="surface1">
<path style=" stroke:none;fill-rule:nonzero;fill:rgb(74.509804%,74.509804%,74.509804%);fill-opacity:1;" d="M 2.5 3.5 C 2.222656 3.5 2 3.722656 2 4 L 2 8 C 2 8.277344 2.222656 8.5 2.5 8.5 L 8.5 8.5 C 8.777344 8.5 9 8.277344 9 8 L 9 7 L 9.5 7 C 9.777344 7 10 6.777344 10 6.5 L 10 5.5 C 10 5.222656 9.777344 5 9.5 5 L 9 5 L 9 4 C 9 3.722656 8.777344 3.5 8.5 3.5 Z M 2.75 4 L 8.25 4 C 8.386719 4 8.5 4.113281 8.5 4.25 L 8.5 7.75 C 8.5 7.886719 8.386719 8 8.25 8 L 2.75 8 C 2.613281 8 2.5 7.886719 2.5 7.75 L 2.5 4.25 C 2.5 4.113281 2.613281 4 2.75 4 Z M 9 5.5 L 9.25 5.5 C 9.386719 5.5 9.5 5.613281 9.5 5.75 L 9.5 6.25 C 9.5 6.386719 9.386719 6.5 9.25 6.5 L 9 6.5 Z M 9 5.5 "/>
<path style=" stroke:none;fill-rule:nonzero;fill:rgb(74.509804%,74.509804%,74.509804%);fill-opacity:0.298039;" d="M 3.148438 4.5 C 3.066406 4.5 3 4.554688 3 4.625 L 3 5 L 5.347656 6.5 L 5.386719 5 L 7.109375 6.234375 L 7.109375 4.625 C 7.109375 4.554688 7.042969 4.5 6.964844 4.5 Z M 3 5.5 L 3 7.375 C 3 7.445312 3.066406 7.5 3.148438 7.5 L 5.824219 7.5 Z M 6.523438 6.5 L 6.523438 7.5 L 6.964844 7.5 C 7.042969 7.5 7.109375 7.445312 7.109375 7.375 L 7.109375 6.75 Z M 6.523438 6.5 "/>
<path style=" stroke:none;fill-rule:nonzero;fill:rgb(74.509804%,74.509804%,74.509804%);fill-opacity:1;" d="M 8 7 L 5.023438 4.5 L 5 6 L 3 5 L 6 7.5 L 6 6 Z M 8 7 "/>
</g>
</svg>
