<?xml version="1.0" encoding="UTF-8"?>
<svg xmlns="http://www.w3.org/2000/svg" xmlns:xlink="http://www.w3.org/1999/xlink" width="12pt" height="12pt" viewBox="0 0 12 12" version="1.1">
<g id="surface1">
<path style=" stroke:none;fill-rule:nonzero;fill:rgb(80%,80%,80%);fill-opacity:1;" d="M 2.0625 2.625 C 1.75 2.625 1.5 2.875 1.5 3.1875 L 1.5 8.8125 C 1.5 9.125 1.75 9.375 2.0625 9.375 L 9.9375 9.375 C 10.25 9.375 10.5 9.125 10.5 8.8125 L 10.5 3.1875 C 10.5 2.875 10.25 2.625 9.9375 2.625 Z M 2.625 3.75 L 3.75 3.75 L 3.75 4.875 L 2.625 4.875 Z M 4.3125 3.75 L 5.4375 3.75 L 5.4375 4.875 L 4.3125 4.875 Z M 6 3.75 L 7.125 3.75 L 7.125 4.875 L 6 4.875 Z M 7.6875 3.75 L 8.8125 3.75 L 8.8125 4.875 L 7.6875 4.875 Z M 3.1875 5.4375 L 4.3125 5.4375 L 4.3125 6.5625 L 3.1875 6.5625 Z M 4.875 5.4375 L 6 5.4375 L 6 6.5625 L 4.875 6.5625 Z M 6.5625 5.4375 L 7.6875 5.4375 L 7.6875 6.5625 L 6.5625 6.5625 Z M 8.25 5.4375 L 9.375 5.4375 L 9.375 6.5625 L 8.25 6.5625 Z M 2.625 7.125 L 3.75 7.125 L 3.75 8.25 L 2.625 8.25 Z M 4.3125 7.125 L 7.6875 7.125 L 7.6875 8.25 L 4.3125 8.25 Z M 8.25 7.125 L 9.9375 7.125 L 9.9375 8.25 L 8.25 8.25 Z M 8.25 7.125 "/>
</g>
</svg>
