<?xml version="1.0" encoding="UTF-8"?>
<svg xmlns="http://www.w3.org/2000/svg" xmlns:xlink="http://www.w3.org/1999/xlink" width="12pt" height="12pt" viewBox="0 0 12 12" version="1.1">
<g id="surface1">
<path style=" stroke:none;fill-rule:nonzero;fill:rgb(97.254902%,16.862745%,20.784314%);fill-opacity:1;" d="M 5.9375 2.777344 C 5.0625 2.777344 4.359375 3.484375 4.359375 4.359375 L 4.359375 5.9375 L 3.566406 5.9375 L 3.566406 9.097656 L 8.308594 9.097656 L 8.308594 5.9375 L 7.515625 5.9375 L 7.515625 4.359375 C 7.515625 3.484375 6.8125 2.777344 5.9375 2.777344 Z M 5.9375 3.171875 C 6.59375 3.171875 7.121094 3.789062 7.121094 4.554688 L 7.121094 5.9375 L 4.753906 5.9375 L 4.753906 4.554688 C 4.753906 3.789062 5.28125 3.171875 5.9375 3.171875 Z M 3.964844 6.332031 L 7.910156 6.332031 L 7.910156 8.703125 L 3.964844 8.703125 Z M 3.964844 6.332031 "/>
</g>
</svg>
