<?xml version="1.0" encoding="UTF-8"?>
<svg xmlns="http://www.w3.org/2000/svg" xmlns:xlink="http://www.w3.org/1999/xlink" width="12pt" height="12pt" viewBox="0 0 12 12" version="1.1">
<g id="surface1">
<path style=" stroke:none;fill-rule:nonzero;fill:rgb(80%,80%,80%);fill-opacity:0.45098;" d="M 9.238281 1.136719 L 9.835938 1.136719 C 10.167969 1.136719 10.4375 1.40625 10.4375 1.738281 L 10.4375 8.335938 C 10.4375 8.667969 10.167969 8.9375 9.835938 8.9375 L 9.238281 8.9375 C 8.90625 8.9375 8.636719 8.667969 8.636719 8.335938 L 8.636719 1.738281 C 8.636719 1.40625 8.90625 1.136719 9.238281 1.136719 Z M 9.238281 1.136719 "/>
<path style=" stroke:none;fill-rule:nonzero;fill:rgb(80%,80%,80%);fill-opacity:0.45098;" d="M 6.835938 2.9375 L 7.4375 2.9375 C 7.769531 2.9375 8.039062 3.207031 8.039062 3.539062 L 8.039062 8.335938 C 8.039062 8.667969 7.769531 8.9375 7.4375 8.9375 L 6.835938 8.9375 C 6.507812 8.9375 6.238281 8.667969 6.238281 8.335938 L 6.238281 3.539062 C 6.238281 3.207031 6.507812 2.9375 6.835938 2.9375 Z M 6.835938 2.9375 "/>
<path style=" stroke:none;fill-rule:nonzero;fill:rgb(80%,80%,80%);fill-opacity:0.45098;" d="M 4.4375 4.738281 L 5.039062 4.738281 C 5.367188 4.738281 5.636719 5.007812 5.636719 5.335938 L 5.636719 8.335938 C 5.636719 8.667969 5.367188 8.9375 5.039062 8.9375 L 4.4375 8.9375 C 4.105469 8.9375 3.835938 8.667969 3.835938 8.335938 L 3.835938 5.335938 C 3.835938 5.007812 4.105469 4.738281 4.4375 4.738281 Z M 4.4375 4.738281 "/>
<path style=" stroke:none;fill-rule:nonzero;fill:rgb(80%,80%,80%);fill-opacity:0.45098;" d="M 2.039062 6.539062 L 2.636719 6.539062 C 2.96875 6.539062 3.238281 6.804688 3.238281 7.136719 L 3.238281 8.335938 C 3.238281 8.667969 2.96875 8.9375 2.636719 8.9375 L 2.039062 8.9375 C 1.707031 8.9375 1.4375 8.667969 1.4375 8.335938 L 1.4375 7.136719 C 1.4375 6.804688 1.707031 6.539062 2.039062 6.539062 Z M 2.039062 6.539062 "/>
<path style=" stroke:none;fill-rule:nonzero;fill:rgb(80%,80%,80%);fill-opacity:1;" d="M 6.835938 10.136719 C 6.835938 10.46875 6.570312 10.738281 6.238281 10.738281 C 5.90625 10.738281 5.636719 10.46875 5.636719 10.136719 C 5.636719 9.804688 5.90625 9.539062 6.238281 9.539062 C 6.570312 9.539062 6.835938 9.804688 6.835938 10.136719 Z M 6.835938 10.136719 "/>
<path style=" stroke:none;fill-rule:nonzero;fill:rgb(80%,80%,80%);fill-opacity:1;" d="M 8.636719 10.136719 C 8.636719 10.46875 8.367188 10.738281 8.039062 10.738281 C 7.707031 10.738281 7.4375 10.46875 7.4375 10.136719 C 7.4375 9.804688 7.707031 9.539062 8.039062 9.539062 C 8.367188 9.539062 8.636719 9.804688 8.636719 10.136719 Z M 8.636719 10.136719 "/>
<path style=" stroke:none;fill-rule:nonzero;fill:rgb(80%,80%,80%);fill-opacity:1;" d="M 5.039062 10.136719 C 5.039062 10.46875 4.769531 10.738281 4.4375 10.738281 C 4.105469 10.738281 3.835938 10.46875 3.835938 10.136719 C 3.835938 9.804688 4.105469 9.539062 4.4375 9.539062 C 4.769531 9.539062 5.039062 9.804688 5.039062 10.136719 Z M 5.039062 10.136719 "/>
</g>
</svg>
