<?xml version="1.0" encoding="UTF-8"?>
<svg xmlns="http://www.w3.org/2000/svg" xmlns:xlink="http://www.w3.org/1999/xlink" width="12pt" height="12pt" viewBox="0 0 12 12" version="1.1">
<g id="surface1">
<path style=" stroke:none;fill-rule:nonzero;fill:rgb(80%,80%,80%);fill-opacity:1;" d="M 8.191406 9.59375 C 8.191406 9.90625 7.941406 10.15625 7.628906 10.15625 C 7.320312 10.15625 7.066406 9.90625 7.066406 9.59375 C 7.066406 9.28125 7.320312 9.03125 7.628906 9.03125 C 7.941406 9.03125 8.191406 9.28125 8.191406 9.59375 Z M 8.191406 9.59375 "/>
<path style=" stroke:none;fill-rule:nonzero;fill:rgb(80%,80%,80%);fill-opacity:1;" d="M 6.503906 9.59375 C 6.503906 9.90625 6.253906 10.15625 5.941406 10.15625 C 5.632812 10.15625 5.378906 9.90625 5.378906 9.59375 C 5.378906 9.28125 5.632812 9.03125 5.941406 9.03125 C 6.253906 9.03125 6.503906 9.28125 6.503906 9.59375 Z M 6.503906 9.59375 "/>
<path style=" stroke:none;fill-rule:nonzero;fill:rgb(80%,80%,80%);fill-opacity:1;" d="M 4.816406 9.59375 C 4.816406 9.90625 4.566406 10.15625 4.253906 10.15625 C 3.945312 10.15625 3.691406 9.90625 3.691406 9.59375 C 3.691406 9.28125 3.945312 9.03125 4.253906 9.03125 C 4.566406 9.03125 4.816406 9.28125 4.816406 9.59375 Z M 4.816406 9.59375 "/>
<path style=" stroke:none;fill-rule:nonzero;fill:rgb(80%,80%,80%);fill-opacity:0.501961;" d="M 5.9375 1.882812 C 2.890625 1.882812 1.4375 3.570312 1.4375 3.570312 L 5.9375 8.632812 L 10.4375 3.570312 C 10.4375 3.570312 9.023438 1.882812 5.9375 1.882812 Z M 5.9375 1.882812 "/>
</g>
</svg>
