<?xml version="1.0" encoding="UTF-8"?>
<svg xmlns="http://www.w3.org/2000/svg" xmlns:xlink="http://www.w3.org/1999/xlink" width="12pt" height="12pt" viewBox="0 0 12 12" version="1.1">
<g id="surface1">
<path style=" stroke:none;fill-rule:nonzero;fill:rgb(25.882353%,28.235294%,32.941176%);fill-opacity:1;" d="M 6 1.636719 C 5.394531 1.636719 4.910156 2.121094 4.910156 2.726562 L 4.910156 3.5 C 3.945312 3.921875 3.273438 4.878906 3.273438 6 L 3.273438 8.183594 L 2.183594 8.183594 L 2.183594 8.726562 L 4.910156 8.726562 L 4.910156 9.273438 C 4.910156 9.878906 5.394531 10.363281 6 10.363281 C 6.605469 10.363281 7.089844 9.878906 7.089844 9.273438 L 7.089844 8.726562 L 9.816406 8.726562 L 9.816406 8.183594 L 8.726562 8.183594 L 8.726562 6 C 8.726562 4.878906 8.054688 3.921875 7.089844 3.5 L 7.089844 2.726562 C 7.089844 2.121094 6.605469 1.636719 6 1.636719 Z M 6 2.183594 C 6.300781 2.183594 6.546875 2.425781 6.546875 2.726562 L 6.546875 3.328125 C 6.371094 3.292969 6.1875 3.273438 6 3.273438 C 5.8125 3.273438 5.628906 3.292969 5.453125 3.328125 L 5.453125 2.726562 C 5.453125 2.425781 5.699219 2.183594 6 2.183594 Z M 6 3.816406 C 6.191406 3.816406 6.371094 3.847656 6.546875 3.894531 C 6.550781 3.894531 6.554688 3.898438 6.558594 3.898438 C 6.746094 3.949219 6.921875 4.023438 7.085938 4.117188 C 7.089844 4.117188 7.089844 4.117188 7.089844 4.117188 C 7.742188 4.496094 8.183594 5.191406 8.183594 6 L 8.183594 8.183594 L 3.816406 8.183594 L 3.816406 6 C 3.816406 5.191406 4.257812 4.496094 4.910156 4.117188 C 4.910156 4.117188 4.910156 4.117188 4.914062 4.117188 C 5.078125 4.023438 5.253906 3.949219 5.441406 3.898438 C 5.445312 3.898438 5.449219 3.894531 5.453125 3.894531 C 5.628906 3.847656 5.808594 3.816406 6 3.816406 Z M 5.453125 8.726562 L 6.546875 8.726562 L 6.546875 9.273438 C 6.546875 9.574219 6.300781 9.816406 6 9.816406 C 5.699219 9.816406 5.453125 9.574219 5.453125 9.273438 Z M 5.453125 8.726562 "/>
<path style=" stroke:none;fill-rule:nonzero;fill:rgb(13.333333%,61.568627%,94.117647%);fill-opacity:1;" d="M 7.636719 1.636719 L 7.636719 4.363281 L 10.363281 4.363281 L 10.363281 1.636719 Z M 8.726562 1.925781 L 9.273438 1.925781 L 9.273438 3.238281 L 8.726562 3.238281 Z M 9 3.546875 C 9.152344 3.546875 9.273438 3.667969 9.273438 3.816406 C 9.273438 3.96875 9.152344 4.089844 9 4.089844 C 8.847656 4.089844 8.726562 3.96875 8.726562 3.816406 C 8.726562 3.667969 8.847656 3.546875 9 3.546875 Z M 9 3.546875 "/>
</g>
</svg>
