<?xml version="1.0" encoding="UTF-8"?>
<svg xmlns="http://www.w3.org/2000/svg" xmlns:xlink="http://www.w3.org/1999/xlink" width="12pt" height="12pt" viewBox="0 0 12 12" version="1.1">
<g id="surface1">
<path style=" stroke:none;fill-rule:nonzero;fill:rgb(80%,80%,80%);fill-opacity:1;" d="M 2.777344 2.777344 L 2.777344 7.121094 L 4.753906 7.121094 L 5.148438 7.515625 L 6.332031 7.515625 L 6.726562 7.121094 L 6.726562 6.726562 L 3.171875 6.726562 L 3.171875 3.171875 L 8.703125 3.171875 L 8.703125 6.332031 L 9.097656 6.332031 L 9.097656 2.777344 Z M 7.121094 7.121094 L 7.121094 7.910156 L 2.777344 7.910156 L 2.777344 8.308594 L 7.121094 8.308594 L 7.121094 9.097656 L 8.703125 9.097656 L 8.703125 8.703125 L 7.515625 8.703125 L 7.515625 7.515625 L 8.703125 7.515625 L 8.703125 7.121094 Z M 7.910156 7.910156 L 7.910156 8.308594 L 9.097656 8.308594 L 9.097656 7.910156 Z M 5.148438 8.703125 C 4.929688 8.703125 4.753906 8.878906 4.753906 9.097656 L 6.726562 9.097656 C 6.726562 8.878906 6.550781 8.703125 6.332031 8.703125 Z M 5.148438 8.703125 "/>
<path style=" stroke:none;fill-rule:nonzero;fill:rgb(80%,80%,80%);fill-opacity:1;" d="M 5.9375 5.542969 C 6.15625 5.542969 6.332031 5.71875 6.332031 5.9375 C 6.332031 6.15625 6.15625 6.332031 5.9375 6.332031 C 5.71875 6.332031 5.542969 6.15625 5.542969 5.9375 C 5.542969 5.71875 5.71875 5.542969 5.9375 5.542969 Z M 5.9375 5.542969 "/>
<path style=" stroke:none;fill-rule:nonzero;fill:rgb(80%,80%,80%);fill-opacity:1;" d="M 5.9375 4.359375 C 5.5 4.359375 5.105469 4.535156 4.820312 4.820312 L 5.101562 5.101562 C 5.3125 4.886719 5.609375 4.753906 5.9375 4.753906 C 6.265625 4.753906 6.5625 4.886719 6.773438 5.101562 L 7.054688 4.820312 C 6.769531 4.535156 6.375 4.359375 5.9375 4.359375 Z M 5.9375 4.359375 "/>
<path style=" stroke:none;fill-rule:nonzero;fill:rgb(80%,80%,80%);fill-opacity:1;" d="M 5.9375 3.566406 C 5.28125 3.566406 4.6875 3.832031 4.261719 4.261719 L 4.539062 4.539062 C 4.894531 4.183594 5.390625 3.964844 5.9375 3.964844 C 6.484375 3.964844 6.980469 4.183594 7.335938 4.539062 L 7.613281 4.261719 C 7.1875 3.832031 6.59375 3.566406 5.9375 3.566406 Z M 5.9375 3.566406 "/>
</g>
</svg>
