<?xml version="1.0" encoding="UTF-8"?>
<svg xmlns="http://www.w3.org/2000/svg" xmlns:xlink="http://www.w3.org/1999/xlink" width="12pt" height="12pt" viewBox="0 0 12 12" version="1.1">
<g id="surface1">
<path style=" stroke:none;fill-rule:nonzero;fill:rgb(80%,80%,80%);fill-opacity:1;" d="M 5.9375 7.515625 C 5.5 7.515625 5.148438 7.871094 5.148438 8.308594 C 5.148438 8.746094 5.5 9.097656 5.9375 9.097656 C 6.375 9.097656 6.726562 8.746094 6.726562 8.308594 C 6.726562 7.871094 6.375 7.515625 5.9375 7.515625 Z M 5.9375 7.910156 C 6.15625 7.910156 6.332031 8.089844 6.332031 8.308594 C 6.332031 8.527344 6.15625 8.703125 5.9375 8.703125 C 5.71875 8.703125 5.542969 8.527344 5.542969 8.308594 C 5.542969 8.089844 5.71875 7.910156 5.9375 7.910156 Z M 5.9375 7.910156 "/>
<path style=" stroke:none;fill-rule:nonzero;fill:rgb(80%,80%,80%);fill-opacity:1;" d="M 5.9375 2.777344 C 4.296875 2.777344 2.816406 3.4375 1.746094 4.507812 L 2.023438 4.789062 C 3.023438 3.789062 4.40625 3.171875 5.9375 3.171875 C 7.46875 3.171875 8.851562 3.789062 9.851562 4.789062 L 10.128906 4.507812 C 9.058594 3.4375 7.578125 2.777344 5.9375 2.777344 Z M 5.9375 2.777344 "/>
<path style=" stroke:none;fill-rule:nonzero;fill:rgb(80%,80%,80%);fill-opacity:1;" d="M 5.9375 3.964844 C 4.625 3.964844 3.441406 4.492188 2.582031 5.347656 L 2.863281 5.625 C 3.648438 4.84375 4.734375 4.359375 5.9375 4.359375 C 7.140625 4.359375 8.226562 4.84375 9.011719 5.625 L 9.292969 5.347656 C 8.433594 4.492188 7.25 3.964844 5.9375 3.964844 Z M 5.9375 3.964844 "/>
<path style=" stroke:none;fill-rule:nonzero;fill:rgb(80%,80%,80%);fill-opacity:1;" d="M 5.9375 5.148438 C 4.953125 5.148438 4.066406 5.542969 3.421875 6.1875 L 3.699219 6.464844 C 4.273438 5.894531 5.0625 5.542969 5.9375 5.542969 C 6.757812 5.542969 7.5 5.855469 8.058594 6.363281 C 8.109375 6.382812 8.15625 6.410156 8.191406 6.449219 L 8.453125 6.1875 C 7.808594 5.542969 6.921875 5.148438 5.9375 5.148438 Z M 5.9375 5.148438 "/>
<path style=" stroke:none;fill-rule:nonzero;fill:rgb(80%,80%,80%);fill-opacity:1;" d="M 5.9375 6.332031 C 5.28125 6.332031 4.6875 6.597656 4.261719 7.027344 L 4.539062 7.304688 C 4.894531 6.945312 5.390625 6.726562 5.9375 6.726562 C 6.484375 6.726562 6.980469 6.945312 7.335938 7.304688 L 7.515625 7.121094 L 7.515625 6.9375 C 7.097656 6.5625 6.546875 6.332031 5.9375 6.332031 Z M 5.9375 6.332031 "/>
<path style=" stroke:none;fill-rule:nonzero;fill:rgb(97.254902%,50.980392%,16.862745%);fill-opacity:1;" d="M 7.910156 5.9375 C 7.472656 5.9375 7.121094 6.289062 7.121094 6.726562 L 7.121094 7.515625 L 6.726562 7.515625 L 6.726562 9.097656 L 9.097656 9.097656 L 9.097656 7.515625 L 8.703125 7.515625 L 8.703125 6.726562 C 8.703125 6.289062 8.347656 5.9375 7.910156 5.9375 Z M 7.910156 6.332031 C 8.132812 6.332031 8.308594 6.507812 8.308594 6.726562 L 8.308594 7.515625 L 7.515625 7.515625 L 7.515625 6.726562 C 7.515625 6.507812 7.695312 6.332031 7.910156 6.332031 Z M 7.121094 7.910156 L 8.703125 7.910156 L 8.703125 8.703125 L 7.121094 8.703125 Z M 7.121094 7.910156 "/>
</g>
</svg>
