<?xml version="1.0" encoding="UTF-8"?>
<svg xmlns="http://www.w3.org/2000/svg" xmlns:xlink="http://www.w3.org/1999/xlink" width="12pt" height="12pt" viewBox="0 0 12 12" version="1.1">
<g id="surface1">
<path style=" stroke:none;fill-rule:nonzero;fill:rgb(97.254902%,50.980392%,16.862745%);fill-opacity:1;" d="M 9.570312 7.230469 C 9.132812 7.230469 8.78125 7.582031 8.78125 8.019531 L 8.78125 8.808594 L 8.386719 8.808594 L 8.386719 10.390625 L 10.757812 10.390625 L 10.757812 8.808594 L 10.363281 8.808594 L 10.363281 8.019531 C 10.363281 7.582031 10.007812 7.230469 9.570312 7.230469 Z M 9.570312 7.625 C 9.792969 7.625 9.96875 7.800781 9.96875 8.019531 L 9.96875 8.808594 L 9.175781 8.808594 L 9.175781 8.019531 C 9.175781 7.800781 9.355469 7.625 9.570312 7.625 Z M 8.78125 9.203125 L 10.363281 9.203125 L 10.363281 9.996094 L 8.78125 9.996094 Z M 8.78125 9.203125 "/>
<path style=" stroke:none;fill-rule:nonzero;fill:rgb(80%,80%,80%);fill-opacity:0.901961;" d="M 5.9375 2.5625 C 2.890625 2.5625 1.4375 4.25 1.4375 4.25 L 5.9375 9.3125 L 10.4375 4.25 C 10.4375 4.25 9.023438 2.5625 5.9375 2.5625 Z M 5.9375 3.125 C 8.378906 3.125 9.59375 4.390625 9.59375 4.390625 L 5.9375 8.46875 L 2.28125 4.390625 C 2.28125 4.390625 3.523438 3.125 5.9375 3.125 Z M 5.9375 3.125 "/>
</g>
</svg>
