<?xml version="1.0" encoding="UTF-8"?>
<svg xmlns="http://www.w3.org/2000/svg" xmlns:xlink="http://www.w3.org/1999/xlink" width="12pt" height="12pt" viewBox="0 0 12 12" version="1.1">
<g id="surface1">
<path style=" stroke:none;fill-rule:nonzero;fill:rgb(80%,80%,80%);fill-opacity:1;" d="M 5.9375 1.9375 C 3.722656 1.9375 1.9375 3.722656 1.9375 5.9375 C 1.9375 7.046875 2.382812 8.042969 3.105469 8.769531 L 3.460938 8.414062 C 2.828125 7.78125 2.4375 6.90625 2.4375 5.9375 C 2.4375 4 4 2.4375 5.9375 2.4375 C 7.875 2.4375 9.4375 4 9.4375 5.9375 C 9.4375 6.90625 9.046875 7.78125 8.414062 8.414062 L 8.769531 8.769531 C 9.492188 8.042969 9.9375 7.046875 9.9375 5.9375 C 9.9375 3.722656 8.152344 1.9375 5.9375 1.9375 Z M 5.9375 2.9375 C 4.277344 2.9375 2.9375 4.277344 2.9375 5.9375 C 2.9375 6.765625 3.273438 7.519531 3.8125 8.0625 L 4.167969 7.707031 C 3.71875 7.253906 3.4375 6.628906 3.4375 5.9375 C 3.4375 4.554688 4.554688 3.4375 5.9375 3.4375 C 7.320312 3.4375 8.4375 4.554688 8.4375 5.9375 C 8.4375 6.628906 8.15625 7.253906 7.707031 7.707031 L 8.0625 8.0625 C 8.601562 7.519531 8.9375 6.765625 8.9375 5.9375 C 8.9375 4.277344 7.597656 2.9375 5.9375 2.9375 Z M 5.9375 3.9375 C 4.828125 3.9375 3.9375 4.828125 3.9375 5.9375 C 3.9375 6.492188 4.160156 6.992188 4.523438 7.351562 L 4.878906 6.996094 C 4.605469 6.730469 4.4375 6.355469 4.4375 5.9375 C 4.4375 5.109375 5.109375 4.4375 5.9375 4.4375 C 6.765625 4.4375 7.4375 5.109375 7.4375 5.9375 C 7.4375 6.355469 7.269531 6.730469 6.996094 6.996094 L 7.351562 7.351562 C 7.714844 6.992188 7.9375 6.492188 7.9375 5.9375 C 7.9375 4.828125 7.046875 3.9375 5.9375 3.9375 Z M 5.9375 5.4375 C 5.660156 5.4375 5.4375 5.660156 5.4375 5.9375 C 5.4375 5.949219 5.445312 5.960938 5.445312 5.972656 L 4.367188 9.9375 L 4.882812 9.9375 L 4.9375 9.734375 L 4.949219 9.746094 L 5.9375 8.757812 L 6.925781 9.746094 L 6.9375 9.734375 L 6.992188 9.9375 L 7.507812 9.9375 L 6.429688 5.972656 C 6.429688 5.960938 6.4375 5.949219 6.4375 5.9375 C 6.4375 5.660156 6.214844 5.4375 5.9375 5.4375 Z M 5.84375 6.417969 C 5.875 6.421875 5.902344 6.4375 5.9375 6.4375 C 5.972656 6.4375 6 6.421875 6.03125 6.417969 L 6.363281 7.625 L 5.9375 8.050781 L 5.511719 7.625 Z M 6.515625 8.183594 L 6.679688 8.796875 L 6.289062 8.40625 Z M 5.359375 8.183594 L 5.585938 8.40625 L 5.195312 8.796875 Z M 5.359375 8.183594 "/>
</g>
</svg>
