<?xml version="1.0" encoding="UTF-8"?>
<svg xmlns="http://www.w3.org/2000/svg" xmlns:xlink="http://www.w3.org/1999/xlink" width="12pt" height="12pt" viewBox="0 0 12 12" version="1.1">
<defs>
<linearGradient id="linear0" gradientUnits="userSpaceOnUse" x1="0" y1="-2" x2="0" y2="-66" gradientTransform="matrix(0.125,0,0,0.125,-2,11.25)">
<stop offset="0" style="stop-color:rgb(66.666667%,66.666667%,66.666667%);stop-opacity:1;"/>
<stop offset="1" style="stop-color:rgb(94.117647%,94.117647%,94.117647%);stop-opacity:1;"/>
</linearGradient>
<linearGradient id="linear1" gradientUnits="userSpaceOnUse" x1="0" y1="-2" x2="0" y2="-50" gradientTransform="matrix(0.125,0,0,0.125,-1.5,11.25)">
<stop offset="0" style="stop-color:rgb(66.666667%,66.666667%,66.666667%);stop-opacity:1;"/>
<stop offset="1" style="stop-color:rgb(94.117647%,94.117647%,94.117647%);stop-opacity:1;"/>
</linearGradient>
<linearGradient id="linear2" gradientUnits="userSpaceOnUse" x1="0" y1="-2" x2="0" y2="-34" gradientTransform="matrix(0.125,0,0,0.125,-1,11.25)">
<stop offset="0" style="stop-color:rgb(66.666667%,66.666667%,66.666667%);stop-opacity:1;"/>
<stop offset="1" style="stop-color:rgb(94.117647%,94.117647%,94.117647%);stop-opacity:1;"/>
</linearGradient>
<linearGradient id="linear3" gradientUnits="userSpaceOnUse" x1="0" y1="-50" x2="0" y2="14.01" gradientTransform="matrix(0.125,0,0,0.125,0,9.25)">
<stop offset="0" style="stop-color:rgb(100%,100%,100%);stop-opacity:0.6;"/>
<stop offset="1" style="stop-color:rgb(100%,100%,100%);stop-opacity:0;"/>
</linearGradient>
<linearGradient id="linear4" gradientUnits="userSpaceOnUse" x1="0" y1="-34" x2="0" y2="14.01" gradientTransform="matrix(0.125,0,0,0.125,0,9.25)">
<stop offset="0" style="stop-color:rgb(100%,100%,100%);stop-opacity:0.6;"/>
<stop offset="1" style="stop-color:rgb(100%,100%,100%);stop-opacity:0;"/>
</linearGradient>
<linearGradient id="linear5" gradientUnits="userSpaceOnUse" x1="0" y1="-18" x2="0" y2="14.14" gradientTransform="matrix(0.125,0,0,0.125,0,9.25)">
<stop offset="0" style="stop-color:rgb(100%,100%,100%);stop-opacity:0.6;"/>
<stop offset="1" style="stop-color:rgb(100%,100%,100%);stop-opacity:0;"/>
</linearGradient>
</defs>
<g id="surface1">
<path style=" stroke:none;fill-rule:nonzero;fill:rgb(0%,0%,0%);fill-opacity:0.0784314;" d="M 6.75 2.742188 C 6.265625 2.742188 5.867188 3.140625 5.867188 3.625 L 5.867188 4.996094 C 5.707031 4.839844 5.488281 4.742188 5.25 4.742188 L 4.25 4.742188 C 3.765625 4.742188 3.367188 5.140625 3.367188 5.625 L 3.367188 6.996094 C 3.207031 6.839844 2.988281 6.742188 2.75 6.742188 L 1.75 6.742188 C 1.265625 6.742188 0.867188 7.140625 0.867188 7.625 L 0.867188 10.625 C 0.867188 11.109375 1.265625 11.507812 1.75 11.507812 L 2.75 11.507812 C 3.074219 11.507812 3.347656 11.324219 3.5 11.0625 C 3.652344 11.324219 3.925781 11.507812 4.25 11.507812 L 5.25 11.507812 C 5.574219 11.507812 5.847656 11.324219 6 11.0625 C 6.152344 11.324219 6.425781 11.507812 6.75 11.507812 L 7.75 11.507812 C 8.234375 11.507812 8.632812 11.109375 8.632812 10.625 L 8.632812 3.625 C 8.632812 3.140625 8.234375 2.742188 7.75 2.742188 Z M 6.75 2.742188 "/>
<path style=" stroke:none;fill-rule:nonzero;fill:rgb(0%,0%,0%);fill-opacity:0.101961;" d="M 6.75 2.878906 C 6.339844 2.878906 6.003906 3.214844 6.003906 3.625 L 6.003906 10.625 C 6.003906 11.035156 6.339844 11.371094 6.75 11.371094 L 7.75 11.371094 C 8.160156 11.371094 8.496094 11.035156 8.496094 10.625 L 8.496094 3.625 C 8.496094 3.214844 8.160156 2.878906 7.75 2.878906 Z M 4.25 4.878906 C 3.839844 4.878906 3.503906 5.214844 3.503906 5.625 L 3.503906 10.625 C 3.503906 11.035156 3.839844 11.371094 4.25 11.371094 L 5.25 11.371094 C 5.660156 11.371094 5.996094 11.035156 5.996094 10.625 L 5.996094 5.625 C 5.996094 5.214844 5.660156 4.878906 5.25 4.878906 Z M 1.75 6.878906 C 1.339844 6.878906 1.003906 7.214844 1.003906 7.625 L 1.003906 10.625 C 1.003906 11.035156 1.339844 11.371094 1.75 11.371094 L 2.75 11.371094 C 3.160156 11.371094 3.496094 11.035156 3.496094 10.625 L 3.496094 7.625 C 3.496094 7.214844 3.160156 6.878906 2.75 6.878906 Z M 1.75 6.878906 "/>
<path style=" stroke:none;fill-rule:nonzero;fill:rgb(0%,0%,0%);fill-opacity:0.14902;" d="M 6.75 2.996094 C 6.40625 2.996094 6.121094 3.28125 6.121094 3.625 L 6.121094 10.625 C 6.121094 10.96875 6.40625 11.253906 6.75 11.253906 L 7.75 11.253906 C 8.09375 11.253906 8.378906 10.96875 8.378906 10.625 L 8.378906 3.625 C 8.378906 3.28125 8.09375 2.996094 7.75 2.996094 Z M 4.25 4.996094 C 3.90625 4.996094 3.621094 5.28125 3.621094 5.625 L 3.621094 10.625 C 3.621094 10.96875 3.90625 11.253906 4.25 11.253906 L 5.25 11.253906 C 5.59375 11.253906 5.878906 10.96875 5.878906 10.625 L 5.878906 5.625 C 5.878906 5.28125 5.59375 4.996094 5.25 4.996094 Z M 1.75 6.996094 C 1.40625 6.996094 1.121094 7.28125 1.121094 7.625 L 1.121094 10.625 C 1.121094 10.96875 1.40625 11.253906 1.75 11.253906 L 2.75 11.253906 C 3.09375 11.253906 3.378906 10.96875 3.378906 10.625 L 3.378906 7.625 C 3.378906 7.28125 3.09375 6.996094 2.75 6.996094 Z M 1.75 6.996094 "/>
<path style=" stroke:none;fill-rule:nonzero;fill:rgb(0%,0%,0%);fill-opacity:0.298039;" d="M 6.75 3.125 C 6.472656 3.125 6.25 3.347656 6.25 3.625 L 6.25 10.625 C 6.25 10.902344 6.472656 11.125 6.75 11.125 L 7.75 11.125 C 8.027344 11.125 8.25 10.902344 8.25 10.625 L 8.25 3.625 C 8.25 3.347656 8.027344 3.125 7.75 3.125 Z M 4.25 5.125 C 3.972656 5.125 3.75 5.347656 3.75 5.625 L 3.75 10.625 C 3.75 10.902344 3.972656 11.125 4.25 11.125 L 5.25 11.125 C 5.527344 11.125 5.75 10.902344 5.75 10.625 L 5.75 5.625 C 5.75 5.347656 5.527344 5.125 5.25 5.125 Z M 1.75 7.125 C 1.472656 7.125 1.25 7.347656 1.25 7.625 L 1.25 10.625 C 1.25 10.902344 1.472656 11.125 1.75 11.125 L 2.75 11.125 C 3.027344 11.125 3.25 10.902344 3.25 10.625 L 3.25 7.625 C 3.25 7.347656 3.027344 7.125 2.75 7.125 Z M 1.75 7.125 "/>
<path style=" stroke:none;fill-rule:nonzero;fill:rgb(100%,100%,100%);fill-opacity:0.2;" d="M 9.25 1 L 10.25 1 C 10.527344 1 10.75 1.222656 10.75 1.5 L 10.75 10.5 C 10.75 10.777344 10.527344 11 10.25 11 L 9.25 11 C 8.972656 11 8.75 10.777344 8.75 10.5 L 8.75 1.5 C 8.75 1.222656 8.972656 1 9.25 1 Z M 9.25 1 "/>
<path style=" stroke:none;fill-rule:nonzero;fill:url(#linear0);" d="M 6.75 3 L 7.75 3 C 8.027344 3 8.25 3.222656 8.25 3.5 L 8.25 10.5 C 8.25 10.777344 8.027344 11 7.75 11 L 6.75 11 C 6.472656 11 6.25 10.777344 6.25 10.5 L 6.25 3.5 C 6.25 3.222656 6.472656 3 6.75 3 Z M 6.75 3 "/>
<path style=" stroke:none;fill-rule:nonzero;fill:url(#linear1);" d="M 4.25 5 L 5.25 5 C 5.527344 5 5.75 5.222656 5.75 5.5 L 5.75 10.5 C 5.75 10.777344 5.527344 11 5.25 11 L 4.25 11 C 3.972656 11 3.75 10.777344 3.75 10.5 L 3.75 5.5 C 3.75 5.222656 3.972656 5 4.25 5 Z M 4.25 5 "/>
<path style=" stroke:none;fill-rule:nonzero;fill:url(#linear2);" d="M 1.75 7 L 2.75 7 C 3.027344 7 3.25 7.222656 3.25 7.5 L 3.25 10.5 C 3.25 10.777344 3.027344 11 2.75 11 L 1.75 11 C 1.472656 11 1.25 10.777344 1.25 10.5 L 1.25 7.5 C 1.25 7.222656 1.472656 7 1.75 7 Z M 1.75 7 "/>
<path style=" stroke:none;fill-rule:nonzero;fill:url(#linear3);" d="M 6.75 3 C 6.472656 3 6.25 3.222656 6.25 3.5 L 6.25 10.5 C 6.25 10.726562 6.398438 10.910156 6.601562 10.972656 C 6.464844 10.914062 6.371094 10.785156 6.371094 10.625 L 6.371094 3.625 C 6.371094 3.414062 6.539062 3.246094 6.75 3.246094 L 7.75 3.246094 C 7.960938 3.246094 8.128906 3.414062 8.128906 3.625 L 8.128906 10.625 C 8.128906 10.785156 8.035156 10.914062 7.898438 10.972656 C 8.101562 10.910156 8.25 10.726562 8.25 10.5 L 8.25 3.5 C 8.25 3.222656 8.027344 3 7.75 3 Z M 6.75 3 "/>
<path style=" stroke:none;fill-rule:nonzero;fill:url(#linear4);" d="M 4.25 5 C 3.972656 5 3.75 5.222656 3.75 5.5 L 3.75 10.5 C 3.75 10.726562 3.898438 10.910156 4.101562 10.972656 C 3.964844 10.914062 3.871094 10.785156 3.871094 10.625 L 3.871094 5.625 C 3.871094 5.414062 4.039062 5.246094 4.25 5.246094 L 5.25 5.246094 C 5.460938 5.246094 5.628906 5.414062 5.628906 5.625 L 5.628906 10.625 C 5.628906 10.785156 5.535156 10.914062 5.398438 10.972656 C 5.601562 10.910156 5.75 10.726562 5.75 10.5 L 5.75 5.5 C 5.75 5.222656 5.527344 5 5.25 5 Z M 4.25 5 "/>
<path style=" stroke:none;fill-rule:nonzero;fill:url(#linear5);" d="M 1.75 7 C 1.472656 7 1.25 7.222656 1.25 7.5 L 1.25 10.5 C 1.25 10.726562 1.398438 10.910156 1.601562 10.972656 C 1.464844 10.914062 1.371094 10.785156 1.371094 10.625 L 1.371094 7.625 C 1.371094 7.414062 1.539062 7.246094 1.75 7.246094 L 2.75 7.246094 C 2.960938 7.246094 3.128906 7.414062 3.128906 7.625 L 3.128906 10.625 C 3.128906 10.785156 3.035156 10.914062 2.898438 10.972656 C 3.101562 10.910156 3.25 10.726562 3.25 10.5 L 3.25 7.5 C 3.25 7.222656 3.027344 7 2.75 7 Z M 1.75 7 "/>
</g>
</svg>
