<?xml version="1.0" encoding="UTF-8"?>
<svg xmlns="http://www.w3.org/2000/svg" xmlns:xlink="http://www.w3.org/1999/xlink" width="12pt" height="12pt" viewBox="0 0 12 12" version="1.1">
<defs>
<linearGradient id="linear0" gradientUnits="userSpaceOnUse" x1="11" y1="0" x2="19" y2="0" gradientTransform="matrix(0,-0.375,0.370656,0,5.6675,15.375)">
<stop offset="0" style="stop-color:rgb(78.431373%,0%,0%);stop-opacity:1;"/>
<stop offset="1" style="stop-color:rgb(95.294118%,37.647059%,30.196078%);stop-opacity:1;"/>
</linearGradient>
</defs>
<g id="surface1">
<path style=" stroke:none;fill-rule:nonzero;fill:rgb(100%,100%,100%);fill-opacity:0.2;" d="M 9.25 1 L 10.25 1 C 10.527344 1 10.75 1.222656 10.75 1.5 L 10.75 10.5 C 10.75 10.777344 10.527344 11 10.25 11 L 9.25 11 C 8.972656 11 8.75 10.777344 8.75 10.5 L 8.75 1.5 C 8.75 1.222656 8.972656 1 9.25 1 Z M 9.25 1 "/>
<path style=" stroke:none;fill-rule:nonzero;fill:rgb(100%,100%,100%);fill-opacity:0.2;" d="M 6.75 3 L 7.75 3 C 8.027344 3 8.25 3.222656 8.25 3.5 L 8.25 10.5 C 8.25 10.777344 8.027344 11 7.75 11 L 6.75 11 C 6.472656 11 6.25 10.777344 6.25 10.5 L 6.25 3.5 C 6.25 3.222656 6.472656 3 6.75 3 Z M 6.75 3 "/>
<path style=" stroke:none;fill-rule:nonzero;fill:rgb(100%,100%,100%);fill-opacity:0.2;" d="M 4.25 5 L 5.25 5 C 5.527344 5 5.75 5.222656 5.75 5.5 L 5.75 10.5 C 5.75 10.777344 5.527344 11 5.25 11 L 4.25 11 C 3.972656 11 3.75 10.777344 3.75 10.5 L 3.75 5.5 C 3.75 5.222656 3.972656 5 4.25 5 Z M 4.25 5 "/>
<path style=" stroke:none;fill-rule:nonzero;fill:rgb(100%,100%,100%);fill-opacity:0.2;" d="M 1.75 7 L 2.75 7 C 3.027344 7 3.25 7.222656 3.25 7.5 L 3.25 10.5 C 3.25 10.777344 3.027344 11 2.75 11 L 1.75 11 C 1.472656 11 1.25 10.777344 1.25 10.5 L 1.25 7.5 C 1.25 7.222656 1.472656 7 1.75 7 Z M 1.75 7 "/>
<path style=" stroke:none;fill-rule:evenodd;fill:rgb(0%,0%,0%);fill-opacity:0.101961;" d="M 8.980469 8.128906 C 8.980469 8.128906 8.96875 8.132812 8.96875 8.132812 C 8.96875 8.132812 8.957031 8.132812 8.957031 8.132812 C 8.957031 8.132812 8.945312 8.136719 8.945312 8.136719 C 8.945312 8.136719 8.929688 8.140625 8.929688 8.140625 C 8.929688 8.140625 8.914062 8.148438 8.914062 8.148438 C 8.914062 8.148438 8.894531 8.15625 8.894531 8.15625 C 8.894531 8.15625 8.878906 8.164062 8.878906 8.164062 C 8.878906 8.164062 8.867188 8.175781 8.867188 8.175781 C 8.867188 8.175781 8.851562 8.183594 8.851562 8.183594 C 8.851562 8.183594 8.839844 8.195312 8.839844 8.195312 C 8.839844 8.195312 8.832031 8.203125 8.828125 8.207031 C 8.828125 8.207031 8.824219 8.210938 8.824219 8.210938 L 8.074219 8.96875 C 8.074219 8.96875 8.058594 8.988281 8.058594 8.988281 C 8.058594 8.988281 8.046875 9.003906 8.046875 9.003906 C 8.046875 9.003906 8.035156 9.023438 8.035156 9.023438 C 8.035156 9.023438 8.023438 9.046875 8.023438 9.046875 C 8.023438 9.046875 8.015625 9.066406 8.015625 9.066406 C 8.015625 9.066406 8.011719 9.089844 8.011719 9.089844 C 8.011719 9.089844 8.007812 9.113281 8.007812 9.113281 C 8.007812 9.113281 8.007812 9.136719 8.007812 9.136719 C 8.007812 9.136719 8.007812 9.160156 8.007812 9.160156 C 8.007812 9.160156 8.011719 9.183594 8.011719 9.183594 C 8.011719 9.183594 8.015625 9.207031 8.015625 9.207031 C 8.015625 9.207031 8.023438 9.226562 8.023438 9.226562 C 8.023438 9.226562 8.035156 9.25 8.035156 9.25 C 8.035156 9.25 8.046875 9.269531 8.046875 9.269531 C 8.046875 9.269531 8.058594 9.285156 8.058594 9.285156 C 8.058594 9.285156 8.074219 9.304688 8.074219 9.304688 L 8.636719 9.875 L 8.074219 10.445312 C 8.074219 10.445312 8.058594 10.464844 8.058594 10.464844 C 8.058594 10.464844 8.046875 10.480469 8.046875 10.480469 C 8.046875 10.480469 8.035156 10.5 8.035156 10.5 C 8.035156 10.5 8.023438 10.523438 8.023438 10.523438 C 8.023438 10.523438 8.015625 10.542969 8.015625 10.542969 C 8.015625 10.542969 8.011719 10.566406 8.011719 10.566406 C 8.011719 10.566406 8.007812 10.589844 8.007812 10.589844 C 8.007812 10.589844 8.007812 10.613281 8.007812 10.613281 C 8.007812 10.613281 8.007812 10.636719 8.007812 10.636719 C 8.007812 10.636719 8.011719 10.660156 8.011719 10.660156 C 8.011719 10.660156 8.015625 10.683594 8.015625 10.683594 C 8.015625 10.683594 8.023438 10.703125 8.023438 10.703125 C 8.023438 10.703125 8.035156 10.726562 8.035156 10.726562 C 8.035156 10.726562 8.046875 10.746094 8.046875 10.746094 C 8.046875 10.746094 8.058594 10.761719 8.058594 10.761719 C 8.058594 10.761719 8.074219 10.78125 8.074219 10.78125 L 8.828125 11.542969 C 8.828125 11.542969 8.84375 11.558594 8.84375 11.558594 C 8.84375 11.558594 8.863281 11.574219 8.863281 11.574219 C 8.863281 11.574219 8.882812 11.585938 8.882812 11.585938 C 8.882812 11.585938 8.90625 11.597656 8.90625 11.597656 C 8.90625 11.597656 8.929688 11.605469 8.929688 11.605469 C 8.929688 11.605469 8.949219 11.613281 8.949219 11.613281 C 8.949219 11.613281 8.972656 11.617188 8.972656 11.617188 C 8.972656 11.617188 9 11.617188 9 11.617188 C 9 11.617188 9.023438 11.617188 9.023438 11.617188 C 9.023438 11.617188 9.046875 11.613281 9.046875 11.613281 C 9.046875 11.613281 9.070312 11.609375 9.070312 11.609375 C 9.070312 11.609375 9.089844 11.601562 9.089844 11.601562 C 9.089844 11.601562 9.113281 11.59375 9.113281 11.59375 C 9.113281 11.59375 9.132812 11.582031 9.132812 11.582031 C 9.132812 11.582031 9.152344 11.566406 9.152344 11.566406 C 9.152344 11.566406 9.171875 11.550781 9.171875 11.550781 L 9.746094 10.980469 L 10.296875 11.542969 C 10.296875 11.542969 10.304688 11.550781 10.304688 11.550781 C 10.304688 11.550781 10.316406 11.558594 10.316406 11.558594 C 10.316406 11.558594 10.324219 11.566406 10.324219 11.566406 C 10.324219 11.566406 10.335938 11.574219 10.335938 11.574219 C 10.335938 11.574219 10.34375 11.582031 10.34375 11.582031 C 10.34375 11.582031 10.355469 11.589844 10.355469 11.589844 C 10.355469 11.589844 10.367188 11.59375 10.367188 11.59375 C 10.367188 11.59375 10.378906 11.597656 10.378906 11.597656 C 10.378906 11.597656 10.386719 11.601562 10.386719 11.601562 C 10.386719 11.601562 10.398438 11.605469 10.398438 11.605469 C 10.398438 11.605469 10.410156 11.609375 10.410156 11.609375 C 10.410156 11.609375 10.425781 11.613281 10.425781 11.613281 C 10.425781 11.613281 10.4375 11.617188 10.4375 11.617188 C 10.4375 11.617188 10.449219 11.617188 10.449219 11.617188 C 10.449219 11.617188 10.460938 11.617188 10.460938 11.617188 C 10.460938 11.617188 10.472656 11.617188 10.472656 11.617188 C 10.472656 11.617188 10.484375 11.617188 10.484375 11.617188 C 10.484375 11.617188 10.496094 11.617188 10.496094 11.617188 C 10.496094 11.617188 10.507812 11.617188 10.507812 11.617188 C 10.507812 11.617188 10.519531 11.613281 10.519531 11.613281 C 10.519531 11.613281 10.535156 11.609375 10.535156 11.609375 C 10.535156 11.609375 10.546875 11.605469 10.546875 11.605469 C 10.546875 11.605469 10.558594 11.601562 10.558594 11.601562 C 10.558594 11.601562 10.566406 11.597656 10.566406 11.597656 C 10.566406 11.597656 10.578125 11.59375 10.578125 11.59375 C 10.578125 11.59375 10.589844 11.589844 10.589844 11.589844 C 10.589844 11.589844 10.601562 11.582031 10.601562 11.582031 C 10.601562 11.582031 10.609375 11.574219 10.609375 11.574219 C 10.609375 11.574219 10.621094 11.566406 10.621094 11.566406 C 10.621094 11.566406 10.628906 11.558594 10.628906 11.558594 C 10.628906 11.558594 10.640625 11.550781 10.640625 11.550781 C 10.640625 11.550781 10.648438 11.542969 10.648438 11.542969 L 11.425781 10.757812 C 11.425781 10.757812 11.441406 10.738281 11.441406 10.738281 C 11.441406 10.738281 11.457031 10.71875 11.457031 10.71875 C 11.457031 10.71875 11.46875 10.699219 11.46875 10.699219 C 11.46875 10.699219 11.476562 10.675781 11.476562 10.675781 C 11.476562 10.675781 11.484375 10.65625 11.484375 10.65625 C 11.484375 10.65625 11.488281 10.632812 11.488281 10.632812 C 11.488281 10.632812 11.492188 10.609375 11.492188 10.609375 C 11.492188 10.609375 11.492188 10.585938 11.492188 10.585938 C 11.492188 10.585938 11.492188 10.558594 11.492188 10.558594 C 11.492188 10.558594 11.488281 10.535156 11.488281 10.535156 C 11.488281 10.535156 11.480469 10.515625 11.480469 10.515625 C 11.480469 10.515625 11.472656 10.492188 11.472656 10.492188 C 11.472656 10.492188 11.460938 10.46875 11.460938 10.46875 C 11.460938 10.46875 11.449219 10.449219 11.449219 10.449219 C 11.449219 10.449219 11.433594 10.429688 11.433594 10.429688 C 11.433594 10.429688 11.417969 10.414062 11.417969 10.414062 L 10.867188 9.875 L 11.417969 9.335938 C 11.417969 9.335938 11.433594 9.320312 11.433594 9.320312 C 11.433594 9.320312 11.449219 9.300781 11.449219 9.300781 C 11.449219 9.300781 11.460938 9.28125 11.460938 9.28125 C 11.460938 9.28125 11.472656 9.257812 11.472656 9.257812 C 11.472656 9.257812 11.480469 9.234375 11.480469 9.234375 C 11.480469 9.234375 11.488281 9.214844 11.488281 9.214844 C 11.488281 9.214844 11.492188 9.191406 11.492188 9.191406 C 11.492188 9.191406 11.492188 9.164062 11.492188 9.164062 C 11.492188 9.164062 11.492188 9.140625 11.492188 9.140625 C 11.492188 9.140625 11.488281 9.117188 11.488281 9.117188 C 11.488281 9.117188 11.484375 9.09375 11.484375 9.09375 C 11.484375 9.09375 11.476562 9.074219 11.476562 9.074219 C 11.476562 9.074219 11.46875 9.050781 11.46875 9.050781 C 11.46875 9.050781 11.457031 9.03125 11.457031 9.03125 C 11.457031 9.03125 11.441406 9.011719 11.441406 9.011719 C 11.441406 9.011719 11.425781 8.992188 11.425781 8.992188 L 10.648438 8.207031 C 10.648438 8.207031 10.640625 8.199219 10.640625 8.199219 C 10.640625 8.199219 10.628906 8.191406 10.628906 8.191406 C 10.628906 8.191406 10.621094 8.183594 10.621094 8.183594 C 10.621094 8.183594 10.609375 8.175781 10.609375 8.175781 C 10.609375 8.175781 10.601562 8.167969 10.601562 8.167969 C 10.601562 8.167969 10.589844 8.160156 10.589844 8.160156 C 10.589844 8.160156 10.578125 8.15625 10.578125 8.15625 C 10.578125 8.15625 10.566406 8.152344 10.566406 8.152344 C 10.566406 8.152344 10.558594 8.148438 10.558594 8.148438 C 10.558594 8.148438 10.546875 8.144531 10.546875 8.144531 C 10.546875 8.144531 10.535156 8.140625 10.535156 8.140625 C 10.535156 8.140625 10.519531 8.136719 10.519531 8.136719 C 10.519531 8.136719 10.507812 8.132812 10.507812 8.132812 C 10.507812 8.132812 10.496094 8.132812 10.496094 8.132812 C 10.496094 8.132812 10.484375 8.132812 10.484375 8.132812 C 10.484375 8.132812 10.472656 8.132812 10.472656 8.132812 C 10.472656 8.132812 10.460938 8.132812 10.460938 8.132812 C 10.460938 8.132812 10.449219 8.132812 10.449219 8.132812 C 10.449219 8.132812 10.4375 8.132812 10.4375 8.132812 C 10.4375 8.132812 10.425781 8.136719 10.425781 8.136719 C 10.425781 8.136719 10.410156 8.140625 10.410156 8.140625 C 10.410156 8.140625 10.398438 8.144531 10.398438 8.144531 C 10.398438 8.144531 10.386719 8.148438 10.386719 8.148438 C 10.386719 8.148438 10.378906 8.152344 10.378906 8.152344 C 10.378906 8.152344 10.367188 8.15625 10.367188 8.15625 C 10.367188 8.15625 10.355469 8.160156 10.355469 8.160156 C 10.355469 8.160156 10.34375 8.167969 10.34375 8.167969 C 10.34375 8.167969 10.335938 8.175781 10.335938 8.175781 C 10.335938 8.175781 10.324219 8.183594 10.324219 8.183594 C 10.324219 8.183594 10.316406 8.191406 10.316406 8.191406 C 10.316406 8.191406 10.304688 8.199219 10.304688 8.199219 C 10.304688 8.199219 10.296875 8.207031 10.296875 8.207031 L 9.746094 8.769531 L 9.175781 8.203125 C 9.175781 8.203125 9.171875 8.199219 9.171875 8.199219 C 9.167969 8.195312 9.164062 8.191406 9.164062 8.191406 C 9.164062 8.191406 9.15625 8.183594 9.15625 8.183594 C 9.15625 8.183594 9.148438 8.175781 9.148438 8.175781 C 9.148438 8.175781 9.136719 8.171875 9.136719 8.171875 C 9.136719 8.171875 9.125 8.164062 9.125 8.164062 C 9.125 8.164062 9.117188 8.15625 9.117188 8.15625 C 9.117188 8.15625 9.105469 8.152344 9.105469 8.152344 C 9.105469 8.152344 9.09375 8.148438 9.09375 8.148438 C 9.09375 8.148438 9.082031 8.144531 9.082031 8.144531 C 9.082031 8.144531 9.070312 8.140625 9.070312 8.140625 C 9.070312 8.140625 9.058594 8.136719 9.058594 8.136719 C 9.058594 8.136719 9.046875 8.132812 9.046875 8.132812 C 9.046875 8.132812 9.035156 8.132812 9.035156 8.132812 C 9.035156 8.132812 9.023438 8.128906 9.023438 8.128906 C 9.023438 8.128906 9.011719 8.128906 9.011719 8.128906 C 9.011719 8.128906 9 8.128906 9 8.128906 C 8.996094 8.128906 8.996094 8.128906 8.992188 8.128906 C 8.992188 8.128906 8.980469 8.128906 8.980469 8.128906 Z M 8.980469 8.128906 "/>
<path style=" stroke:none;fill-rule:evenodd;fill:rgb(0%,0%,0%);fill-opacity:0.14902;" d="M 8.976562 8.257812 C 8.953125 8.261719 8.933594 8.277344 8.917969 8.292969 L 8.164062 9.054688 C 8.121094 9.101562 8.121094 9.171875 8.164062 9.21875 L 8.8125 9.875 L 8.164062 10.53125 C 8.121094 10.578125 8.121094 10.648438 8.164062 10.695312 L 8.917969 11.457031 C 8.964844 11.503906 9.039062 11.507812 9.085938 11.460938 L 9.746094 10.804688 L 10.386719 11.457031 C 10.410156 11.480469 10.441406 11.492188 10.472656 11.492188 C 10.503906 11.492188 10.535156 11.480469 10.558594 11.457031 L 11.335938 10.671875 C 11.382812 10.625 11.378906 10.550781 11.332031 10.503906 L 10.6875 9.875 L 11.332031 9.246094 C 11.378906 9.199219 11.382812 9.125 11.335938 9.078125 L 10.558594 8.292969 C 10.535156 8.269531 10.503906 8.257812 10.472656 8.257812 C 10.441406 8.257812 10.410156 8.269531 10.386719 8.292969 L 9.746094 8.945312 L 9.085938 8.289062 C 9.058594 8.261719 9.015625 8.25 8.976562 8.257812 Z M 8.976562 8.257812 "/>
<path style=" stroke:none;fill-rule:evenodd;fill:rgb(0%,0%,0%);fill-opacity:0.298039;" d="M 8.25 10.613281 L 9.003906 11.375 L 9.746094 10.636719 L 10.472656 11.375 L 11.25 10.589844 L 10.519531 9.875 L 11.25 9.160156 L 10.472656 8.375 L 9.746094 9.113281 L 9.003906 8.375 L 8.25 9.136719 L 8.980469 9.875 Z M 8.25 10.613281 "/>
<path style=" stroke:none;fill-rule:evenodd;fill:url(#linear0);" d="M 8.25 10.488281 L 9.003906 11.25 L 9.746094 10.511719 L 10.472656 11.25 L 11.25 10.464844 L 10.519531 9.75 L 11.25 9.035156 L 10.472656 8.25 L 9.746094 8.988281 L 9.003906 8.25 L 8.25 9.011719 L 8.980469 9.75 Z M 8.25 10.488281 "/>
<path style=" stroke:none;fill-rule:evenodd;fill:rgb(100%,100%,100%);fill-opacity:0.2;" d="M 9.003906 8.25 L 8.25 9.011719 L 8.375 9.136719 L 9.003906 8.5 L 9.746094 9.238281 L 10.472656 8.5 L 11.125 9.15625 L 11.25 9.035156 L 10.472656 8.25 L 9.746094 8.988281 Z M 8.980469 9.746094 L 8.25 10.488281 L 8.375 10.613281 L 8.980469 10 Z M 10.523438 9.753906 L 10.519531 10 L 11.125 10.59375 L 11.25 10.464844 Z M 10.523438 9.753906 "/>
</g>
</svg>
