<?xml version="1.0" encoding="UTF-8"?>
<svg xmlns="http://www.w3.org/2000/svg" xmlns:xlink="http://www.w3.org/1999/xlink" width="12pt" height="12pt" viewBox="0 0 12 12" version="1.1">
<defs>
<linearGradient id="linear0" gradientUnits="userSpaceOnUse" x1="0" y1="-2" x2="0" y2="-34" gradientTransform="matrix(0.125,0,0,0.125,-1,11.25)">
<stop offset="0" style="stop-color:rgb(66.666667%,66.666667%,66.666667%);stop-opacity:1;"/>
<stop offset="1" style="stop-color:rgb(94.117647%,94.117647%,94.117647%);stop-opacity:1;"/>
</linearGradient>
<linearGradient id="linear1" gradientUnits="userSpaceOnUse" x1="0" y1="-18" x2="0" y2="14.14" gradientTransform="matrix(0.125,0,0,0.125,0,9.25)">
<stop offset="0" style="stop-color:rgb(100%,100%,100%);stop-opacity:0.6;"/>
<stop offset="1" style="stop-color:rgb(100%,100%,100%);stop-opacity:0;"/>
</linearGradient>
</defs>
<g id="surface1">
<path style=" stroke:none;fill-rule:nonzero;fill:rgb(0%,0%,0%);fill-opacity:0.0784314;" d="M 1.75 6.75 C 1.269531 6.75 0.875 7.144531 0.875 7.625 L 0.875 10.625 C 0.875 11.105469 1.269531 11.5 1.75 11.5 L 2.75 11.5 C 3.230469 11.5 3.625 11.105469 3.625 10.625 L 3.625 7.625 C 3.625 7.144531 3.230469 6.75 2.75 6.75 Z M 1.75 6.75 "/>
<path style=" stroke:none;fill-rule:nonzero;fill:rgb(0%,0%,0%);fill-opacity:0.101961;" d="M 1.75 6.878906 C 1.339844 6.878906 1.003906 7.214844 1.003906 7.625 L 1.003906 10.625 C 1.003906 11.035156 1.339844 11.371094 1.75 11.371094 L 2.75 11.371094 C 3.160156 11.371094 3.496094 11.035156 3.496094 10.625 L 3.496094 7.625 C 3.496094 7.214844 3.160156 6.878906 2.75 6.878906 Z M 1.75 6.878906 "/>
<path style=" stroke:none;fill-rule:nonzero;fill:rgb(0%,0%,0%);fill-opacity:0.14902;" d="M 1.75 6.996094 C 1.40625 6.996094 1.121094 7.28125 1.121094 7.625 L 1.121094 10.625 C 1.121094 10.96875 1.40625 11.253906 1.75 11.253906 L 2.75 11.253906 C 3.09375 11.253906 3.378906 10.96875 3.378906 10.625 L 3.378906 7.625 C 3.378906 7.28125 3.09375 6.996094 2.75 6.996094 Z M 1.75 6.996094 "/>
<path style=" stroke:none;fill-rule:nonzero;fill:rgb(0%,0%,0%);fill-opacity:0.298039;" d="M 1.75 7.125 C 1.472656 7.125 1.25 7.347656 1.25 7.625 L 1.25 10.625 C 1.25 10.902344 1.472656 11.125 1.75 11.125 L 2.75 11.125 C 3.027344 11.125 3.25 10.902344 3.25 10.625 L 3.25 7.625 C 3.25 7.347656 3.027344 7.125 2.75 7.125 Z M 1.75 7.125 "/>
<path style=" stroke:none;fill-rule:nonzero;fill:rgb(100%,100%,100%);fill-opacity:0.2;" d="M 9.25 1 L 10.25 1 C 10.527344 1 10.75 1.222656 10.75 1.5 L 10.75 10.5 C 10.75 10.777344 10.527344 11 10.25 11 L 9.25 11 C 8.972656 11 8.75 10.777344 8.75 10.5 L 8.75 1.5 C 8.75 1.222656 8.972656 1 9.25 1 Z M 9.25 1 "/>
<path style=" stroke:none;fill-rule:nonzero;fill:rgb(100%,100%,100%);fill-opacity:0.2;" d="M 6.75 3 L 7.75 3 C 8.027344 3 8.25 3.222656 8.25 3.5 L 8.25 10.5 C 8.25 10.777344 8.027344 11 7.75 11 L 6.75 11 C 6.472656 11 6.25 10.777344 6.25 10.5 L 6.25 3.5 C 6.25 3.222656 6.472656 3 6.75 3 Z M 6.75 3 "/>
<path style=" stroke:none;fill-rule:nonzero;fill:rgb(100%,100%,100%);fill-opacity:0.2;" d="M 4.25 5 L 5.25 5 C 5.527344 5 5.75 5.222656 5.75 5.5 L 5.75 10.5 C 5.75 10.777344 5.527344 11 5.25 11 L 4.25 11 C 3.972656 11 3.75 10.777344 3.75 10.5 L 3.75 5.5 C 3.75 5.222656 3.972656 5 4.25 5 Z M 4.25 5 "/>
<path style=" stroke:none;fill-rule:nonzero;fill:url(#linear0);" d="M 1.75 7 L 2.75 7 C 3.027344 7 3.25 7.222656 3.25 7.5 L 3.25 10.5 C 3.25 10.777344 3.027344 11 2.75 11 L 1.75 11 C 1.472656 11 1.25 10.777344 1.25 10.5 L 1.25 7.5 C 1.25 7.222656 1.472656 7 1.75 7 Z M 1.75 7 "/>
<path style=" stroke:none;fill-rule:nonzero;fill:url(#linear1);" d="M 1.75 7 C 1.472656 7 1.25 7.222656 1.25 7.5 L 1.25 10.5 C 1.25 10.726562 1.398438 10.910156 1.601562 10.972656 C 1.464844 10.914062 1.371094 10.785156 1.371094 10.625 L 1.371094 7.625 C 1.371094 7.414062 1.539062 7.246094 1.75 7.246094 L 2.75 7.246094 C 2.960938 7.246094 3.128906 7.414062 3.128906 7.625 L 3.128906 10.625 C 3.128906 10.785156 3.035156 10.914062 2.898438 10.972656 C 3.101562 10.910156 3.25 10.726562 3.25 10.5 L 3.25 7.5 C 3.25 7.222656 3.027344 7 2.75 7 Z M 1.75 7 "/>
</g>
</svg>
