<?xml version="1.0" encoding="UTF-8"?>
<svg xmlns="http://www.w3.org/2000/svg" xmlns:xlink="http://www.w3.org/1999/xlink" width="12pt" height="12pt" viewBox="0 0 12 12" version="1.1">
<g id="surface1">
<path style=" stroke:none;fill-rule:nonzero;fill:rgb(100%,100%,100%);fill-opacity:0.2;" d="M 9.25 1 L 10.25 1 C 10.527344 1 10.75 1.222656 10.75 1.5 L 10.75 10.5 C 10.75 10.777344 10.527344 11 10.25 11 L 9.25 11 C 8.972656 11 8.75 10.777344 8.75 10.5 L 8.75 1.5 C 8.75 1.222656 8.972656 1 9.25 1 Z M 9.25 1 "/>
<path style=" stroke:none;fill-rule:nonzero;fill:rgb(100%,100%,100%);fill-opacity:0.2;" d="M 6.75 3 L 7.75 3 C 8.027344 3 8.25 3.222656 8.25 3.5 L 8.25 10.5 C 8.25 10.777344 8.027344 11 7.75 11 L 6.75 11 C 6.472656 11 6.25 10.777344 6.25 10.5 L 6.25 3.5 C 6.25 3.222656 6.472656 3 6.75 3 Z M 6.75 3 "/>
<path style=" stroke:none;fill-rule:nonzero;fill:rgb(100%,100%,100%);fill-opacity:0.2;" d="M 4.25 5 L 5.25 5 C 5.527344 5 5.75 5.222656 5.75 5.5 L 5.75 10.5 C 5.75 10.777344 5.527344 11 5.25 11 L 4.25 11 C 3.972656 11 3.75 10.777344 3.75 10.5 L 3.75 5.5 C 3.75 5.222656 3.972656 5 4.25 5 Z M 4.25 5 "/>
<path style=" stroke:none;fill-rule:nonzero;fill:rgb(100%,100%,100%);fill-opacity:0.2;" d="M 1.75 7 L 2.75 7 C 3.027344 7 3.25 7.222656 3.25 7.5 L 3.25 10.5 C 3.25 10.777344 3.027344 11 2.75 11 L 1.75 11 C 1.472656 11 1.25 10.777344 1.25 10.5 L 1.25 7.5 C 1.25 7.222656 1.472656 7 1.75 7 Z M 1.75 7 "/>
</g>
</svg>
