<?xml version="1.0" encoding="UTF-8"?>
<svg xmlns="http://www.w3.org/2000/svg" xmlns:xlink="http://www.w3.org/1999/xlink" width="12pt" height="12pt" viewBox="0 0 12 12" version="1.1">
<g id="surface3">
<path style=" stroke:none;fill-rule:nonzero;fill:rgb(80%,80%,80%);fill-opacity:1;" d="M 3.429688 1.847656 L 3.429688 3.136719 L 8.570312 3.136719 L 8.570312 1.847656 Z M 2.140625 3.777344 C 1.820312 3.777344 1.5 4.097656 1.5 4.421875 L 1.5 6.992188 C 1.5 7.3125 1.820312 7.636719 2.140625 7.636719 L 2.785156 7.636719 L 2.785156 6.347656 L 7.285156 6.347656 L 7.285156 5.0625 L 9.855469 5.0625 L 9.855469 7.636719 C 10.179688 7.636719 10.5 7.3125 10.5 6.992188 L 10.5 4.421875 C 10.5 4.097656 10.179688 3.777344 9.855469 3.777344 Z M 3.429688 6.992188 L 3.429688 10.207031 L 7.285156 10.207031 L 7.285156 6.992188 Z M 3.429688 6.992188 "/>
<path style=" stroke:none;fill-rule:nonzero;fill:rgb(90.588235%,29.803922%,23.529412%);fill-opacity:1;" d="M 7.929688 5.707031 L 7.929688 8.289062 L 8.089844 9.5625 L 9.054688 9.5625 L 9.214844 8.277344 L 9.214844 5.707031 Z M 7.929688 10.207031 L 7.929688 11.492188 L 9.214844 11.492188 L 9.214844 10.207031 Z M 7.929688 10.207031 "/>
</g>
</svg>
