<?xml version="1.0" encoding="UTF-8"?>
<svg xmlns="http://www.w3.org/2000/svg" xmlns:xlink="http://www.w3.org/1999/xlink" width="12pt" height="12pt" viewBox="0 0 12 12" version="1.1">
<g id="surface4">
<path style=" stroke:none;fill-rule:nonzero;fill:rgb(80%,80%,80%);fill-opacity:1;" d="M 2.144531 3.75 C 1.820312 3.75 1.5 4.070312 1.5 4.394531 L 1.5 6.964844 C 1.5 7.285156 1.820312 7.605469 2.144531 7.605469 L 2.785156 7.605469 L 2.785156 6.320312 L 9.214844 6.320312 L 9.214844 7.605469 L 9.855469 7.605469 C 10.179688 7.605469 10.5 7.285156 10.5 6.964844 L 10.5 4.394531 C 10.5 4.070312 10.179688 3.75 9.855469 3.75 Z M 2.144531 3.75 "/>
<path style=" stroke:none;fill-rule:nonzero;fill:rgb(80%,80%,80%);fill-opacity:1;" d="M 3.429688 1.820312 L 3.429688 3.105469 L 8.570312 3.105469 L 8.570312 1.820312 Z M 3.429688 1.820312 "/>
<path style=" stroke:none;fill-rule:nonzero;fill:rgb(80%,80%,80%);fill-opacity:1;" d="M 3.429688 6.964844 L 3.429688 10.179688 L 8.570312 10.179688 L 8.570312 6.964844 Z M 3.429688 6.964844 "/>
</g>
</svg>
