<?xml version="1.0" encoding="UTF-8"?>
<svg xmlns="http://www.w3.org/2000/svg" xmlns:xlink="http://www.w3.org/1999/xlink" width="12pt" height="12pt" viewBox="0 0 12 12" version="1.1">
<g id="surface1">
<path style=" stroke:none;fill-rule:nonzero;fill:rgb(80%,80%,80%);fill-opacity:1;" d="M 9.660156 7.277344 L 8.09375 6.644531 L 8.273438 7.148438 C 8.265625 7.683594 7.230469 8.105469 6 8.105469 C 4.769531 8.105469 3.734375 7.683594 3.726562 7.148438 L 3.90625 6.644531 L 2.339844 7.277344 C 1.902344 7.453125 1.882812 7.78125 2.300781 8.003906 L 5.242188 9.582031 C 5.660156 9.804688 6.339844 9.804688 6.757812 9.582031 L 9.699219 8.003906 C 10.117188 7.78125 10.097656 7.453125 9.660156 7.277344 Z M 6 4.070312 C 6.46875 4.070312 6.902344 3.925781 7.03125 3.699219 C 6.855469 3.207031 6.703125 2.785156 6.609375 2.519531 C 6.546875 2.339844 6.257812 2.25 6 2.25 C 5.742188 2.25 5.453125 2.339844 5.390625 2.519531 C 5.296875 2.785156 5.144531 3.207031 4.96875 3.699219 C 5.097656 3.925781 5.53125 4.070312 6 4.070312 Z M 6 6.863281 C 6.996094 6.863281 7.828125 6.527344 7.878906 6.085938 C 7.730469 5.667969 7.570312 5.214844 7.410156 4.769531 C 7.300781 5.085938 6.695312 5.3125 6 5.3125 C 5.308594 5.3125 4.699219 5.085938 4.589844 4.769531 C 4.429688 5.214844 4.269531 5.667969 4.121094 6.085938 C 4.171875 6.527344 5.003906 6.863281 6 6.863281 "/>
</g>
</svg>
