<?xml version="1.0" encoding="UTF-8"?>
<svg xmlns="http://www.w3.org/2000/svg" xmlns:xlink="http://www.w3.org/1999/xlink" width="12pt" height="12pt" viewBox="0 0 12 12" version="1.1">
<g id="surface1">
<path style=" stroke:none;fill-rule:nonzero;fill:rgb(93.333333%,93.333333%,93.333333%);fill-opacity:1;" d="M 5.972656 2.839844 L 3.996094 4.816406 L 2.578125 4.816406 L 2.578125 7.183594 L 3.996094 7.183594 L 5.972656 9.160156 L 5.972656 9.15625 L 5.972656 9.160156 L 6.921875 9.160156 L 6.921875 2.839844 L 5.972656 2.839844 L 5.972656 2.84375 Z M 6.136719 3.234375 L 6.527344 3.234375 L 6.527344 8.765625 L 6.136719 8.765625 L 4.160156 6.789062 L 4.15625 6.792969 L 4.15625 5.207031 L 4.160156 5.210938 Z M 2.972656 5.210938 L 3.367188 5.210938 L 3.367188 6.789062 L 2.972656 6.789062 Z M 2.972656 5.210938 "/>
<path style=" stroke:none;fill-rule:nonzero;fill:rgb(93.333333%,93.333333%,93.333333%);fill-opacity:1;" d="M 8.125 3.875 L 7.769531 4.230469 C 8.222656 4.683594 8.5 5.308594 8.5 6 C 8.5 6.691406 8.222656 7.316406 7.769531 7.769531 L 8.125 8.125 C 8.664062 7.582031 9 6.832031 9 6 C 9 5.167969 8.664062 4.417969 8.125 3.875 Z M 8.125 3.875 "/>
<path style=" stroke:none;fill-rule:nonzero;fill:rgb(93.333333%,93.333333%,93.333333%);fill-opacity:1;" d="M 8.832031 3.167969 L 8.476562 3.523438 C 9.109375 4.15625 9.5 5.03125 9.5 6 C 9.5 6.96875 9.109375 7.84375 8.476562 8.476562 L 8.832031 8.832031 C 9.554688 8.109375 10 7.109375 10 6 C 10 4.890625 9.554688 3.890625 8.832031 3.167969 Z M 8.832031 3.167969 "/>
</g>
</svg>
